<svg aria-roledescription="class" role="graphics-document document" viewBox="0 0 794.359375 716" style="max-width: 794.359px; background-color: white;" class="classDiagram" xmlns:xlink="http://www.w3.org/1999/xlink" xmlns="http://www.w3.org/2000/svg" width="100%" id="my-svg"><style>#my-svg{font-family:"trebuchet ms",verdana,arial,sans-serif;font-size:16px;fill:#333;}#my-svg .error-icon{fill:#552222;}#my-svg .error-text{fill:#552222;stroke:#552222;}#my-svg .edge-thickness-normal{stroke-width:1px;}#my-svg .edge-thickness-thick{stroke-width:3.5px;}#my-svg .edge-pattern-solid{stroke-dasharray:0;}#my-svg .edge-thickness-invisible{stroke-width:0;fill:none;}#my-svg .edge-pattern-dashed{stroke-dasharray:3;}#my-svg .edge-pattern-dotted{stroke-dasharray:2;}#my-svg .marker{fill:#333333;stroke:#333333;}#my-svg .marker.cross{stroke:#333333;}#my-svg svg{font-family:"trebuchet ms",verdana,arial,sans-serif;font-size:16px;}#my-svg p{margin:0;}#my-svg g.classGroup text{fill:#9370DB;stroke:none;font-family:"trebuchet ms",verdana,arial,sans-serif;font-size:10px;}#my-svg g.classGroup text .title{font-weight:bolder;}#my-svg .nodeLabel,#my-svg .edgeLabel{color:#131300;}#my-svg .edgeLabel .label rect{fill:#ECECFF;}#my-svg .label text{fill:#131300;}#my-svg .labelBkg{background:#ECECFF;}#my-svg .edgeLabel .label span{background:#ECECFF;}#my-svg .classTitle{font-weight:bolder;}#my-svg .node rect,#my-svg .node circle,#my-svg .node ellipse,#my-svg .node polygon,#my-svg .node path{fill:#ECECFF;stroke:#9370DB;stroke-width:1px;}#my-svg .divider{stroke:#9370DB;stroke-width:1;}#my-svg g.clickable{cursor:pointer;}#my-svg g.classGroup rect{fill:#ECECFF;stroke:#9370DB;}#my-svg g.classGroup line{stroke:#9370DB;stroke-width:1;}#my-svg .classLabel .box{stroke:none;stroke-width:0;fill:#ECECFF;opacity:0.5;}#my-svg .classLabel .label{fill:#9370DB;font-size:10px;}#my-svg .relation{stroke:#333333;stroke-width:1;fill:none;}#my-svg .dashed-line{stroke-dasharray:3;}#my-svg .dotted-line{stroke-dasharray:1 2;}#my-svg #compositionStart,#my-svg .composition{fill:#333333!important;stroke:#333333!important;stroke-width:1;}#my-svg #compositionEnd,#my-svg .composition{fill:#333333!important;stroke:#333333!important;stroke-width:1;}#my-svg #dependencyStart,#my-svg .dependency{fill:#333333!important;stroke:#333333!important;stroke-width:1;}#my-svg #dependencyStart,#my-svg .dependency{fill:#333333!important;stroke:#333333!important;stroke-width:1;}#my-svg #extensionStart,#my-svg .extension{fill:transparent!important;stroke:#333333!important;stroke-width:1;}#my-svg #extensionEnd,#my-svg .extension{fill:transparent!important;stroke:#333333!important;stroke-width:1;}#my-svg #aggregationStart,#my-svg .aggregation{fill:transparent!important;stroke:#333333!important;stroke-width:1;}#my-svg #aggregationEnd,#my-svg .aggregation{fill:transparent!important;stroke:#333333!important;stroke-width:1;}#my-svg #lollipopStart,#my-svg .lollipop{fill:#ECECFF!important;stroke:#333333!important;stroke-width:1;}#my-svg #lollipopEnd,#my-svg .lollipop{fill:#ECECFF!important;stroke:#333333!important;stroke-width:1;}#my-svg .edgeTerminals{font-size:11px;line-height:initial;}#my-svg .classTitleText{text-anchor:middle;font-size:18px;fill:#333;}#my-svg :root{--mermaid-font-family:"trebuchet ms",verdana,arial,sans-serif;}</style><g><defs><marker orient="auto" markerHeight="240" markerWidth="190" refY="7" refX="18" class="marker aggregation class" id="my-svg_class-aggregationStart"><path d="M 18,7 L9,13 L1,7 L9,1 Z"/></marker></defs><defs><marker orient="auto" markerHeight="28" markerWidth="20" refY="7" refX="1" class="marker aggregation class" id="my-svg_class-aggregationEnd"><path d="M 18,7 L9,13 L1,7 L9,1 Z"/></marker></defs><defs><marker orient="auto" markerHeight="240" markerWidth="190" refY="7" refX="18" class="marker extension class" id="my-svg_class-extensionStart"><path d="M 1,7 L18,13 V 1 Z"/></marker></defs><defs><marker orient="auto" markerHeight="28" markerWidth="20" refY="7" refX="1" class="marker extension class" id="my-svg_class-extensionEnd"><path d="M 1,1 V 13 L18,7 Z"/></marker></defs><defs><marker orient="auto" markerHeight="240" markerWidth="190" refY="7" refX="18" class="marker composition class" id="my-svg_class-compositionStart"><path d="M 18,7 L9,13 L1,7 L9,1 Z"/></marker></defs><defs><marker orient="auto" markerHeight="28" markerWidth="20" refY="7" refX="1" class="marker composition class" id="my-svg_class-compositionEnd"><path d="M 18,7 L9,13 L1,7 L9,1 Z"/></marker></defs><defs><marker orient="auto" markerHeight="240" markerWidth="190" refY="7" refX="6" class="marker dependency class" id="my-svg_class-dependencyStart"><path d="M 5,7 L9,13 L1,7 L9,1 Z"/></marker></defs><defs><marker orient="auto" markerHeight="28" markerWidth="20" refY="7" refX="13" class="marker dependency class" id="my-svg_class-dependencyEnd"><path d="M 18,7 L9,13 L14,7 L9,1 Z"/></marker></defs><defs><marker orient="auto" markerHeight="240" markerWidth="190" refY="7" refX="13" class="marker lollipop class" id="my-svg_class-lollipopStart"><circle r="6" cy="7" cx="7" fill="transparent" stroke="black"/></marker></defs><defs><marker orient="auto" markerHeight="240" markerWidth="190" refY="7" refX="1" class="marker lollipop class" id="my-svg_class-lollipopEnd"><circle r="6" cy="7" cx="7" fill="transparent" stroke="black"/></marker></defs><g class="root"><g class="clusters"/><g class="edgePaths"><path marker-end="url(#my-svg_class-dependencyEnd)" style=";" class="edge-thickness-normal edge-pattern-solid relation" id="id_Application_User_1" d="M157.387,155L157.387,162.667C157.387,170.333,157.387,185.667,157.387,196.5C157.387,207.333,157.387,213.667,157.387,216.833L157.387,220"/><path marker-end="url(#my-svg_class-dependencyEnd)" style=";" class="edge-thickness-normal edge-pattern-solid relation" id="id_User_Progress_2" d="M157.387,442L157.387,446.167C157.387,450.333,157.387,458.667,171.032,471.597C184.677,484.526,211.966,502.053,225.611,510.816L239.256,519.579"/><path marker-end="url(#my-svg_class-dependencyEnd)" style=";" class="edge-thickness-normal edge-pattern-solid relation" id="id_AdaptiveLearning_Progress_3" d="M571.566,397L571.566,408.667C571.566,420.333,571.566,443.667,557.921,464.097C544.277,484.526,516.987,502.053,503.342,510.816L489.697,519.579"/></g><g class="edgeLabels"><g class="edgeLabel"><g transform="translate(0, -12)" class="label"><foreignObject height="24" width="0"><div class="labelBkg" xmlns="http://www.w3.org/1999/xhtml" style="display: table-cell; white-space: nowrap; line-height: 1.5; max-width: 200px; text-align: center;"><span class="edgeLabel" style=";display: inline-block"></span></div></foreignObject></g></g><g class="edgeLabel"><g transform="translate(0, -12)" class="label"><foreignObject height="24" width="0"><div class="labelBkg" xmlns="http://www.w3.org/1999/xhtml" style="display: table-cell; white-space: nowrap; line-height: 1.5; max-width: 200px; text-align: center;"><span class="edgeLabel" style=";display: inline-block"></span></div></foreignObject></g></g><g class="edgeLabel"><g transform="translate(0, -12)" class="label"><foreignObject height="24" width="0"><div class="labelBkg" xmlns="http://www.w3.org/1999/xhtml" style="display: table-cell; white-space: nowrap; line-height: 1.5; max-width: 200px; text-align: center;"><span class="edgeLabel" style=";display: inline-block"></span></div></foreignObject></g></g></g><g class="nodes"><g transform="translate(157.38671875, 92)" id="classId-Application-0" class="node default"><g class="basic label-container"><path style="" fill="#ECECFF" stroke-width="0" stroke="none" d="M-82.8203125 -63 L82.8203125 -63 L82.8203125 63 L-82.8203125 63"/><path style="" fill="none" stroke-width="1.3" stroke="#9370DB" d="M-82.8203125 -63 C-31.648486081406595 -63, 19.52334033718681 -63, 82.8203125 -63 M-82.8203125 -63 C-17.208031536440075 -63, 48.40424942711985 -63, 82.8203125 -63 M82.8203125 -63 C82.8203125 -15.377812819885094, 82.8203125 32.24437436022981, 82.8203125 63 M82.8203125 -63 C82.8203125 -17.948352247691815, 82.8203125 27.10329550461637, 82.8203125 63 M82.8203125 63 C34.365026762148595 63, -14.09025897570281 63, -82.8203125 63 M82.8203125 63 C34.22878505944559 63, -14.362742381108816 63, -82.8203125 63 M-82.8203125 63 C-82.8203125 29.95394569684759, -82.8203125 -3.0921086063048193, -82.8203125 -63 M-82.8203125 63 C-82.8203125 30.91860217355614, -82.8203125 -1.1627956528877235, -82.8203125 -63"/></g><g transform="translate(0, -39)" class="annotation-group text"/><g transform="translate(-42.296875, -39)" class="label-group text"><g transform="translate(0,-12)" style="font-weight: bolder" class="label"><foreignObject height="24" width="84.59375"><div style="display: table-cell; white-space: nowrap; line-height: 1.5; max-width: 126px; text-align: center;" xmlns="http://www.w3.org/1999/xhtml"><span style="" class="nodeLabel markdown-node-label"><p>Application</p></span></div></foreignObject></g></g><g transform="translate(-70.8203125, 9)" class="members-group text"/><g transform="translate(-70.8203125, 39)" class="methods-group text"><g transform="translate(0,-12)" style="" class="label"><foreignObject height="24" width="99.34375"><div style="display: table-cell; white-space: nowrap; line-height: 1.5; max-width: 143px; text-align: center;" xmlns="http://www.w3.org/1999/xhtml"><span style="" class="nodeLabel markdown-node-label"><p>+start() : void</p></span></div></foreignObject></g></g><g style="" class="divider"><path style="" fill="none" stroke-width="1.3" stroke="#9370DB" d="M-82.8203125 -15 C-47.57332771464662 -15, -12.326342929293233 -15, 82.8203125 -15 M-82.8203125 -15 C-26.15208875016407 -15, 30.516134999671863 -15, 82.8203125 -15"/></g><g style="" class="divider"><path style="" fill="none" stroke-width="1.3" stroke="#9370DB" d="M-82.8203125 9 C-19.46454342083843 9, 43.89122565832314 9, 82.8203125 9 M-82.8203125 9 C-27.07496694780923 9, 28.67037860438154 9, 82.8203125 9"/></g></g><g transform="translate(157.38671875, 334)" id="classId-User-1" class="node default"><g class="basic label-container"><path style="" fill="#ECECFF" stroke-width="0" stroke="none" d="M-149.38671875 -108 L149.38671875 -108 L149.38671875 108 L-149.38671875 108"/><path style="" fill="none" stroke-width="1.3" stroke="#9370DB" d="M-149.38671875 -108 C-72.39985521449064 -108, 4.587008321018715 -108, 149.38671875 -108 M-149.38671875 -108 C-34.663986784142594 -108, 80.05874518171481 -108, 149.38671875 -108 M149.38671875 -108 C149.38671875 -44.72184644392338, 149.38671875 18.556307112153235, 149.38671875 108 M149.38671875 -108 C149.38671875 -22.544721963632895, 149.38671875 62.91055607273421, 149.38671875 108 M149.38671875 108 C60.89899951841298 108, -27.588719713174044 108, -149.38671875 108 M149.38671875 108 C31.539592583579036 108, -86.30753358284193 108, -149.38671875 108 M-149.38671875 108 C-149.38671875 58.26874414289518, -149.38671875 8.53748828579036, -149.38671875 -108 M-149.38671875 108 C-149.38671875 40.9979760430375, -149.38671875 -26.004047913925007, -149.38671875 -108"/></g><g transform="translate(0, -84)" class="annotation-group text"/><g transform="translate(-16.8828125, -84)" class="label-group text"><g transform="translate(0,-12)" style="font-weight: bolder" class="label"><foreignObject height="24" width="33.765625"><div style="display: table-cell; white-space: nowrap; line-height: 1.5; max-width: 80px; text-align: center;" xmlns="http://www.w3.org/1999/xhtml"><span style="" class="nodeLabel markdown-node-label"><p>User</p></span></div></foreignObject></g></g><g transform="translate(-137.38671875, -36)" class="members-group text"><g transform="translate(0,-12)" style="" class="label"><foreignObject height="24" width="43.828125"><div style="display: table-cell; white-space: nowrap; line-height: 1.5; max-width: 93px; text-align: center;" xmlns="http://www.w3.org/1999/xhtml"><span style="" class="nodeLabel markdown-node-label"><p>-id int</p></span></div></foreignObject></g><g transform="translate(0,12)" style="" class="label"><foreignObject height="24" width="99.0625"><div style="display: table-cell; white-space: nowrap; line-height: 1.5; max-width: 141px; text-align: center;" xmlns="http://www.w3.org/1999/xhtml"><span style="" class="nodeLabel markdown-node-label"><p>-username str</p></span></div></foreignObject></g><g transform="translate(0,36)" style="" class="label"><foreignObject height="24" width="129.25"><div style="display: table-cell; white-space: nowrap; line-height: 1.5; max-width: 173px; text-align: center;" xmlns="http://www.w3.org/1999/xhtml"><span style="" class="nodeLabel markdown-node-label"><p>-progress Progress</p></span></div></foreignObject></g></g><g transform="translate(-137.38671875, 60)" class="methods-group text"><g transform="translate(0,-12)" style="" class="label"><foreignObject height="24" width="257.890625"><div style="display: table-cell; white-space: nowrap; line-height: 1.5; max-width: 285px; text-align: center;" xmlns="http://www.w3.org/1999/xhtml"><span style="" class="nodeLabel markdown-node-label"><p>+login(username: str, password: str)</p></span></div></foreignObject></g><g transform="translate(0,12)" style="" class="label"><foreignObject height="24" width="65.15625"><div style="display: table-cell; white-space: nowrap; line-height: 1.5; max-width: 115px; text-align: center;" xmlns="http://www.w3.org/1999/xhtml"><span style="" class="nodeLabel markdown-node-label"><p>+logout()</p></span></div></foreignObject></g></g><g style="" class="divider"><path style="" fill="none" stroke-width="1.3" stroke="#9370DB" d="M-149.38671875 -60 C-56.20759717402184 -60, 36.971524401956316 -60, 149.38671875 -60 M-149.38671875 -60 C-86.65940601059634 -60, -23.9320932711927 -60, 149.38671875 -60"/></g><g style="" class="divider"><path style="" fill="none" stroke-width="1.3" stroke="#9370DB" d="M-149.38671875 36 C-73.58799649137293 36, 2.2107257672541323 36, 149.38671875 36 M-149.38671875 36 C-68.15451959896379 36, 13.077679552072425 36, 149.38671875 36"/></g></g><g transform="translate(389.328125, 92)" id="classId-Flashcard-2" class="node default"><g class="basic label-container"><path style="" fill="#ECECFF" stroke-width="0" stroke="none" d="M-99.12109375 -84 L99.12109375 -84 L99.12109375 84 L-99.12109375 84"/><path style="" fill="none" stroke-width="1.3" stroke="#9370DB" d="M-99.12109375 -84 C-27.14447833734596 -84, 44.83213707530808 -84, 99.12109375 -84 M-99.12109375 -84 C-39.500938871087776 -84, 20.11921600782445 -84, 99.12109375 -84 M99.12109375 -84 C99.12109375 -45.15451746832135, 99.12109375 -6.309034936642703, 99.12109375 84 M99.12109375 -84 C99.12109375 -32.237333256019454, 99.12109375 19.525333487961092, 99.12109375 84 M99.12109375 84 C24.612680768295235 84, -49.89573221340953 84, -99.12109375 84 M99.12109375 84 C34.529532905325524 84, -30.06202793934895 84, -99.12109375 84 M-99.12109375 84 C-99.12109375 45.60974850627125, -99.12109375 7.219497012542504, -99.12109375 -84 M-99.12109375 84 C-99.12109375 17.765295106656723, -99.12109375 -48.469409786686555, -99.12109375 -84"/></g><g transform="translate(0, -60)" class="annotation-group text"/><g transform="translate(-35.8984375, -60)" class="label-group text"><g transform="translate(0,-12)" style="font-weight: bolder" class="label"><foreignObject height="24" width="71.796875"><div style="display: table-cell; white-space: nowrap; line-height: 1.5; max-width: 112px; text-align: center;" xmlns="http://www.w3.org/1999/xhtml"><span style="" class="nodeLabel markdown-node-label"><p>Flashcard</p></span></div></foreignObject></g></g><g transform="translate(-87.12109375, -12)" class="members-group text"><g transform="translate(0,-12)" style="" class="label"><foreignObject height="24" width="43.828125"><div style="display: table-cell; white-space: nowrap; line-height: 1.5; max-width: 93px; text-align: center;" xmlns="http://www.w3.org/1999/xhtml"><span style="" class="nodeLabel markdown-node-label"><p>-id int</p></span></div></foreignObject></g><g transform="translate(0,12)" style="" class="label"><foreignObject height="24" width="85.140625"><div style="display: table-cell; white-space: nowrap; line-height: 1.5; max-width: 127px; text-align: center;" xmlns="http://www.w3.org/1999/xhtml"><span style="" class="nodeLabel markdown-node-label"><p>-content str</p></span></div></foreignObject></g><g transform="translate(0,36)" style="" class="label"><foreignObject height="24" width="138.34375"><div style="display: table-cell; white-space: nowrap; line-height: 1.5; max-width: 178px; text-align: center;" xmlns="http://www.w3.org/1999/xhtml"><span style="" class="nodeLabel markdown-node-label"><p>-difficulty_level str</p></span></div></foreignObject></g></g><g transform="translate(-87.12109375, 84)" class="methods-group text"/><g style="" class="divider"><path style="" fill="none" stroke-width="1.3" stroke="#9370DB" d="M-99.12109375 -36 C-27.227417482491873 -36, 44.666258785016254 -36, 99.12109375 -36 M-99.12109375 -36 C-42.927574983742694 -36, 13.265943782514611 -36, 99.12109375 -36"/></g><g style="" class="divider"><path style="" fill="none" stroke-width="1.3" stroke="#9370DB" d="M-99.12109375 60 C-53.408715136048436 60, -7.696336522096871 60, 99.12109375 60 M-99.12109375 60 C-32.64286460523465 60, 33.8353645395307 60, 99.12109375 60"/></g></g><g transform="translate(628.12890625, 92)" id="classId-Quiz-3" class="node default"><g class="basic label-container"><path style="" fill="#ECECFF" stroke-width="0" stroke="none" d="M-89.6796875 -84 L89.6796875 -84 L89.6796875 84 L-89.6796875 84"/><path style="" fill="none" stroke-width="1.3" stroke="#9370DB" d="M-89.6796875 -84 C-33.05580579260222 -84, 23.568075914795557 -84, 89.6796875 -84 M-89.6796875 -84 C-18.257708216434395 -84, 53.16427106713121 -84, 89.6796875 -84 M89.6796875 -84 C89.6796875 -27.76845937718491, 89.6796875 28.46308124563018, 89.6796875 84 M89.6796875 -84 C89.6796875 -22.586919820583752, 89.6796875 38.826160358832496, 89.6796875 84 M89.6796875 84 C50.28539294631785 84, 10.891098392635698 84, -89.6796875 84 M89.6796875 84 C24.75811162927687 84, -40.16346424144626 84, -89.6796875 84 M-89.6796875 84 C-89.6796875 37.28891804781815, -89.6796875 -9.4221639043637, -89.6796875 -84 M-89.6796875 84 C-89.6796875 26.4972554417866, -89.6796875 -31.0054891164268, -89.6796875 -84"/></g><g transform="translate(0, -60)" class="annotation-group text"/><g transform="translate(-17.015625, -60)" class="label-group text"><g transform="translate(0,-12)" style="font-weight: bolder" class="label"><foreignObject height="24" width="34.03125"><div style="display: table-cell; white-space: nowrap; line-height: 1.5; max-width: 81px; text-align: center;" xmlns="http://www.w3.org/1999/xhtml"><span style="" class="nodeLabel markdown-node-label"><p>Quiz</p></span></div></foreignObject></g></g><g transform="translate(-77.6796875, -12)" class="members-group text"><g transform="translate(0,-12)" style="" class="label"><foreignObject height="24" width="43.828125"><div style="display: table-cell; white-space: nowrap; line-height: 1.5; max-width: 93px; text-align: center;" xmlns="http://www.w3.org/1999/xhtml"><span style="" class="nodeLabel markdown-node-label"><p>-id int</p></span></div></foreignObject></g><g transform="translate(0,12)" style="" class="label"><foreignObject height="24" width="100.375"><div style="display: table-cell; white-space: nowrap; line-height: 1.5; max-width: 144px; text-align: center;" xmlns="http://www.w3.org/1999/xhtml"><span style="" class="nodeLabel markdown-node-label"><p>-questions list</p></span></div></foreignObject></g><g transform="translate(0,36)" style="" class="label"><foreignObject height="24" width="138.34375"><div style="display: table-cell; white-space: nowrap; line-height: 1.5; max-width: 178px; text-align: center;" xmlns="http://www.w3.org/1999/xhtml"><span style="" class="nodeLabel markdown-node-label"><p>-difficulty_level str</p></span></div></foreignObject></g></g><g transform="translate(-77.6796875, 84)" class="methods-group text"/><g style="" class="divider"><path style="" fill="none" stroke-width="1.3" stroke="#9370DB" d="M-89.6796875 -36 C-20.701544558635703 -36, 48.276598382728594 -36, 89.6796875 -36 M-89.6796875 -36 C-35.6349717318089 -36, 18.409744036382193 -36, 89.6796875 -36"/></g><g style="" class="divider"><path style="" fill="none" stroke-width="1.3" stroke="#9370DB" d="M-89.6796875 60 C-44.102455408420084 60, 1.4747766831598312 60, 89.6796875 60 M-89.6796875 60 C-27.155964801210636 60, 35.36775789757873 60, 89.6796875 60"/></g></g><g transform="translate(364.4765625, 600)" id="classId-Progress-4" class="node default"><g class="basic label-container"><path style="" fill="#ECECFF" stroke-width="0" stroke="none" d="M-120.171875 -108 L120.171875 -108 L120.171875 108 L-120.171875 108"/><path style="" fill="none" stroke-width="1.3" stroke="#9370DB" d="M-120.171875 -108 C-62.20402807707406 -108, -4.236181154148113 -108, 120.171875 -108 M-120.171875 -108 C-61.17589300630393 -108, -2.1799110126078602 -108, 120.171875 -108 M120.171875 -108 C120.171875 -35.17359139312232, 120.171875 37.652817213755355, 120.171875 108 M120.171875 -108 C120.171875 -39.12524741817056, 120.171875 29.74950516365888, 120.171875 108 M120.171875 108 C61.55784840052778 108, 2.943821801055563 108, -120.171875 108 M120.171875 108 C33.16414557830876 108, -53.843583843382476 108, -120.171875 108 M-120.171875 108 C-120.171875 48.98991002166266, -120.171875 -10.020179956674681, -120.171875 -108 M-120.171875 108 C-120.171875 32.02981617405287, -120.171875 -43.94036765189426, -120.171875 -108"/></g><g transform="translate(0, -84)" class="annotation-group text"/><g transform="translate(-31.5625, -84)" class="label-group text"><g transform="translate(0,-12)" style="font-weight: bolder" class="label"><foreignObject height="24" width="63.125"><div style="display: table-cell; white-space: nowrap; line-height: 1.5; max-width: 105px; text-align: center;" xmlns="http://www.w3.org/1999/xhtml"><span style="" class="nodeLabel markdown-node-label"><p>Progress</p></span></div></foreignObject></g></g><g transform="translate(-108.171875, -36)" class="members-group text"><g transform="translate(0,-12)" style="" class="label"><foreignObject height="24" width="82.375"><div style="display: table-cell; white-space: nowrap; line-height: 1.5; max-width: 128px; text-align: center;" xmlns="http://www.w3.org/1999/xhtml"><span style="" class="nodeLabel markdown-node-label"><p>-user_id int</p></span></div></foreignObject></g><g transform="translate(0,12)" style="" class="label"><foreignObject height="24" width="68.28125"><div style="display: table-cell; white-space: nowrap; line-height: 1.5; max-width: 114px; text-align: center;" xmlns="http://www.w3.org/1999/xhtml"><span style="" class="nodeLabel markdown-node-label"><p>-score int</p></span></div></foreignObject></g><g transform="translate(0,36)" style="" class="label"><foreignObject height="24" width="64.46875"><div style="display: table-cell; white-space: nowrap; line-height: 1.5; max-width: 111px; text-align: center;" xmlns="http://www.w3.org/1999/xhtml"><span style="" class="nodeLabel markdown-node-label"><p>-level str</p></span></div></foreignObject></g></g><g transform="translate(-108.171875, 60)" class="methods-group text"><g transform="translate(0,-12)" style="" class="label"><foreignObject height="24" width="184.78125"><div style="display: table-cell; white-space: nowrap; line-height: 1.5; max-width: 218px; text-align: center;" xmlns="http://www.w3.org/1999/xhtml"><span style="" class="nodeLabel markdown-node-label"><p>+update_score(score: int)</p></span></div></foreignObject></g><g transform="translate(0,12)" style="" class="label"><foreignObject height="24" width="120.921875"><div style="display: table-cell; white-space: nowrap; line-height: 1.5; max-width: 161px; text-align: center;" xmlns="http://www.w3.org/1999/xhtml"><span style="" class="nodeLabel markdown-node-label"><p>+get_level() : str</p></span></div></foreignObject></g></g><g style="" class="divider"><path style="" fill="none" stroke-width="1.3" stroke="#9370DB" d="M-120.171875 -60 C-66.41968762065703 -60, -12.667500241314059 -60, 120.171875 -60 M-120.171875 -60 C-25.76311135994402 -60, 68.64565228011196 -60, 120.171875 -60"/></g><g style="" class="divider"><path style="" fill="none" stroke-width="1.3" stroke="#9370DB" d="M-120.171875 36 C-40.08957525379577 36, 39.992724492408456 36, 120.171875 36 M-120.171875 36 C-57.84485265611082 36, 4.4821696877783666 36, 120.171875 36"/></g></g><g transform="translate(571.56640625, 334)" id="classId-AdaptiveLearning-5" class="node default"><g class="basic label-container"><path style="" fill="#ECECFF" stroke-width="0" stroke="none" d="M-214.79296875 -63 L214.79296875 -63 L214.79296875 63 L-214.79296875 63"/><path style="" fill="none" stroke-width="1.3" stroke="#9370DB" d="M-214.79296875 -63 C-111.53710622149421 -63, -8.281243692988426 -63, 214.79296875 -63 M-214.79296875 -63 C-121.87022608654271 -63, -28.94748342308543 -63, 214.79296875 -63 M214.79296875 -63 C214.79296875 -17.565241424830987, 214.79296875 27.869517150338027, 214.79296875 63 M214.79296875 -63 C214.79296875 -32.81243822049045, 214.79296875 -2.6248764409808913, 214.79296875 63 M214.79296875 63 C45.595484498983865 63, -123.60199975203227 63, -214.79296875 63 M214.79296875 63 C84.68780575133005 63, -45.41735724733991 63, -214.79296875 63 M-214.79296875 63 C-214.79296875 32.72078014723174, -214.79296875 2.4415602944634855, -214.79296875 -63 M-214.79296875 63 C-214.79296875 36.58319836371824, -214.79296875 10.16639672743647, -214.79296875 -63"/></g><g transform="translate(0, -39)" class="annotation-group text"/><g transform="translate(-65.5546875, -39)" class="label-group text"><g transform="translate(0,-12)" style="font-weight: bolder" class="label"><foreignObject height="24" width="131.109375"><div style="display: table-cell; white-space: nowrap; line-height: 1.5; max-width: 166px; text-align: center;" xmlns="http://www.w3.org/1999/xhtml"><span style="" class="nodeLabel markdown-node-label"><p>AdaptiveLearning</p></span></div></foreignObject></g></g><g transform="translate(-202.79296875, 9)" class="members-group text"/><g transform="translate(-202.79296875, 39)" class="methods-group text"><g transform="translate(0,-12)" style="" class="label"><foreignObject height="24" width="340.03125"><div style="display: table-cell; white-space: nowrap; line-height: 1.5; max-width: 361px; text-align: center;" xmlns="http://www.w3.org/1999/xhtml"><span style="" class="nodeLabel markdown-node-label"><p>+adjust_learning_path(user_progress: Progress)</p></span></div></foreignObject></g></g><g style="" class="divider"><path style="" fill="none" stroke-width="1.3" stroke="#9370DB" d="M-214.79296875 -15 C-49.89587764673331 -15, 115.00121345653338 -15, 214.79296875 -15 M-214.79296875 -15 C-59.71347870924194 -15, 95.36601133151612 -15, 214.79296875 -15"/></g><g style="" class="divider"><path style="" fill="none" stroke-width="1.3" stroke="#9370DB" d="M-214.79296875 9 C-118.33892471296758 9, -21.884880675935165 9, 214.79296875 9 M-214.79296875 9 C-122.58311384868057 9, -30.373258947361137 9, 214.79296875 9"/></g></g></g></g></g></svg>