<svg aria-roledescription="mindmap" role="graphics-document document" viewBox="5 5 1099.74267578125 621.826171875" style="max-width: 1099.74px; background-color: white;" xmlns:xlink="http://www.w3.org/1999/xlink" xmlns="http://www.w3.org/2000/svg" width="100%" id="my-svg"><style>#my-svg{font-family:"trebuchet ms",verdana,arial,sans-serif;font-size:16px;fill:#333;}#my-svg .error-icon{fill:#552222;}#my-svg .error-text{fill:#552222;stroke:#552222;}#my-svg .edge-thickness-normal{stroke-width:1px;}#my-svg .edge-thickness-thick{stroke-width:3.5px;}#my-svg .edge-pattern-solid{stroke-dasharray:0;}#my-svg .edge-thickness-invisible{stroke-width:0;fill:none;}#my-svg .edge-pattern-dashed{stroke-dasharray:3;}#my-svg .edge-pattern-dotted{stroke-dasharray:2;}#my-svg .marker{fill:#333333;stroke:#333333;}#my-svg .marker.cross{stroke:#333333;}#my-svg svg{font-family:"trebuchet ms",verdana,arial,sans-serif;font-size:16px;}#my-svg p{margin:0;}#my-svg .edge{stroke-width:3;}#my-svg .section--1 rect,#my-svg .section--1 path,#my-svg .section--1 circle,#my-svg .section--1 polygon,#my-svg .section--1 path{fill:hsl(240, 100%, 76.2745098039%);}#my-svg .section--1 text{fill:#ffffff;}#my-svg .node-icon--1{font-size:40px;color:#ffffff;}#my-svg .section-edge--1{stroke:hsl(240, 100%, 76.2745098039%);}#my-svg .edge-depth--1{stroke-width:17;}#my-svg .section--1 line{stroke:hsl(60, 100%, 86.2745098039%);stroke-width:3;}#my-svg .disabled,#my-svg .disabled circle,#my-svg .disabled text{fill:lightgray;}#my-svg .disabled text{fill:#efefef;}#my-svg .section-0 rect,#my-svg .section-0 path,#my-svg .section-0 circle,#my-svg .section-0 polygon,#my-svg .section-0 path{fill:hsl(60, 100%, 73.5294117647%);}#my-svg .section-0 text{fill:black;}#my-svg .node-icon-0{font-size:40px;color:black;}#my-svg .section-edge-0{stroke:hsl(60, 100%, 73.5294117647%);}#my-svg .edge-depth-0{stroke-width:14;}#my-svg .section-0 line{stroke:hsl(240, 100%, 83.5294117647%);stroke-width:3;}#my-svg .disabled,#my-svg .disabled circle,#my-svg .disabled text{fill:lightgray;}#my-svg .disabled text{fill:#efefef;}#my-svg .section-1 rect,#my-svg .section-1 path,#my-svg .section-1 circle,#my-svg .section-1 polygon,#my-svg .section-1 path{fill:hsl(80, 100%, 76.2745098039%);}#my-svg .section-1 text{fill:black;}#my-svg .node-icon-1{font-size:40px;color:black;}#my-svg .section-edge-1{stroke:hsl(80, 100%, 76.2745098039%);}#my-svg .edge-depth-1{stroke-width:11;}#my-svg .section-1 line{stroke:hsl(260, 100%, 86.2745098039%);stroke-width:3;}#my-svg .disabled,#my-svg .disabled circle,#my-svg .disabled text{fill:lightgray;}#my-svg .disabled text{fill:#efefef;}#my-svg .section-2 rect,#my-svg .section-2 path,#my-svg .section-2 circle,#my-svg .section-2 polygon,#my-svg .section-2 path{fill:hsl(270, 100%, 76.2745098039%);}#my-svg .section-2 text{fill:#ffffff;}#my-svg .node-icon-2{font-size:40px;color:#ffffff;}#my-svg .section-edge-2{stroke:hsl(270, 100%, 76.2745098039%);}#my-svg .edge-depth-2{stroke-width:8;}#my-svg .section-2 line{stroke:hsl(90, 100%, 86.2745098039%);stroke-width:3;}#my-svg .disabled,#my-svg .disabled circle,#my-svg .disabled text{fill:lightgray;}#my-svg .disabled text{fill:#efefef;}#my-svg .section-3 rect,#my-svg .section-3 path,#my-svg .section-3 circle,#my-svg .section-3 polygon,#my-svg .section-3 path{fill:hsl(300, 100%, 76.2745098039%);}#my-svg .section-3 text{fill:black;}#my-svg .node-icon-3{font-size:40px;color:black;}#my-svg .section-edge-3{stroke:hsl(300, 100%, 76.2745098039%);}#my-svg .edge-depth-3{stroke-width:5;}#my-svg .section-3 line{stroke:hsl(120, 100%, 86.2745098039%);stroke-width:3;}#my-svg .disabled,#my-svg .disabled circle,#my-svg .disabled text{fill:lightgray;}#my-svg .disabled text{fill:#efefef;}#my-svg .section-4 rect,#my-svg .section-4 path,#my-svg .section-4 circle,#my-svg .section-4 polygon,#my-svg .section-4 path{fill:hsl(330, 100%, 76.2745098039%);}#my-svg .section-4 text{fill:black;}#my-svg .node-icon-4{font-size:40px;color:black;}#my-svg .section-edge-4{stroke:hsl(330, 100%, 76.2745098039%);}#my-svg .edge-depth-4{stroke-width:2;}#my-svg .section-4 line{stroke:hsl(150, 100%, 86.2745098039%);stroke-width:3;}#my-svg .disabled,#my-svg .disabled circle,#my-svg .disabled text{fill:lightgray;}#my-svg .disabled text{fill:#efefef;}#my-svg .section-5 rect,#my-svg .section-5 path,#my-svg .section-5 circle,#my-svg .section-5 polygon,#my-svg .section-5 path{fill:hsl(0, 100%, 76.2745098039%);}#my-svg .section-5 text{fill:black;}#my-svg .node-icon-5{font-size:40px;color:black;}#my-svg .section-edge-5{stroke:hsl(0, 100%, 76.2745098039%);}#my-svg .edge-depth-5{stroke-width:-1;}#my-svg .section-5 line{stroke:hsl(180, 100%, 86.2745098039%);stroke-width:3;}#my-svg .disabled,#my-svg .disabled circle,#my-svg .disabled text{fill:lightgray;}#my-svg .disabled text{fill:#efefef;}#my-svg .section-6 rect,#my-svg .section-6 path,#my-svg .section-6 circle,#my-svg .section-6 polygon,#my-svg .section-6 path{fill:hsl(30, 100%, 76.2745098039%);}#my-svg .section-6 text{fill:black;}#my-svg .node-icon-6{font-size:40px;color:black;}#my-svg .section-edge-6{stroke:hsl(30, 100%, 76.2745098039%);}#my-svg .edge-depth-6{stroke-width:-4;}#my-svg .section-6 line{stroke:hsl(210, 100%, 86.2745098039%);stroke-width:3;}#my-svg .disabled,#my-svg .disabled circle,#my-svg .disabled text{fill:lightgray;}#my-svg .disabled text{fill:#efefef;}#my-svg .section-7 rect,#my-svg .section-7 path,#my-svg .section-7 circle,#my-svg .section-7 polygon,#my-svg .section-7 path{fill:hsl(90, 100%, 76.2745098039%);}#my-svg .section-7 text{fill:black;}#my-svg .node-icon-7{font-size:40px;color:black;}#my-svg .section-edge-7{stroke:hsl(90, 100%, 76.2745098039%);}#my-svg .edge-depth-7{stroke-width:-7;}#my-svg .section-7 line{stroke:hsl(270, 100%, 86.2745098039%);stroke-width:3;}#my-svg .disabled,#my-svg .disabled circle,#my-svg .disabled text{fill:lightgray;}#my-svg .disabled text{fill:#efefef;}#my-svg .section-8 rect,#my-svg .section-8 path,#my-svg .section-8 circle,#my-svg .section-8 polygon,#my-svg .section-8 path{fill:hsl(150, 100%, 76.2745098039%);}#my-svg .section-8 text{fill:black;}#my-svg .node-icon-8{font-size:40px;color:black;}#my-svg .section-edge-8{stroke:hsl(150, 100%, 76.2745098039%);}#my-svg .edge-depth-8{stroke-width:-10;}#my-svg .section-8 line{stroke:hsl(330, 100%, 86.2745098039%);stroke-width:3;}#my-svg .disabled,#my-svg .disabled circle,#my-svg .disabled text{fill:lightgray;}#my-svg .disabled text{fill:#efefef;}#my-svg .section-9 rect,#my-svg .section-9 path,#my-svg .section-9 circle,#my-svg .section-9 polygon,#my-svg .section-9 path{fill:hsl(180, 100%, 76.2745098039%);}#my-svg .section-9 text{fill:black;}#my-svg .node-icon-9{font-size:40px;color:black;}#my-svg .section-edge-9{stroke:hsl(180, 100%, 76.2745098039%);}#my-svg .edge-depth-9{stroke-width:-13;}#my-svg .section-9 line{stroke:hsl(0, 100%, 86.2745098039%);stroke-width:3;}#my-svg .disabled,#my-svg .disabled circle,#my-svg .disabled text{fill:lightgray;}#my-svg .disabled text{fill:#efefef;}#my-svg .section-10 rect,#my-svg .section-10 path,#my-svg .section-10 circle,#my-svg .section-10 polygon,#my-svg .section-10 path{fill:hsl(210, 100%, 76.2745098039%);}#my-svg .section-10 text{fill:black;}#my-svg .node-icon-10{font-size:40px;color:black;}#my-svg .section-edge-10{stroke:hsl(210, 100%, 76.2745098039%);}#my-svg .edge-depth-10{stroke-width:-16;}#my-svg .section-10 line{stroke:hsl(30, 100%, 86.2745098039%);stroke-width:3;}#my-svg .disabled,#my-svg .disabled circle,#my-svg .disabled text{fill:lightgray;}#my-svg .disabled text{fill:#efefef;}#my-svg .section-root rect,#my-svg .section-root path,#my-svg .section-root circle,#my-svg .section-root polygon{fill:hsl(240, 100%, 46.2745098039%);}#my-svg .section-root text{fill:#ffffff;}#my-svg .icon-container{height:100%;display:flex;justify-content:center;align-items:center;}#my-svg .edge{fill:none;}#my-svg .mindmap-node-label{dy:1em;alignment-baseline:middle;text-anchor:middle;dominant-baseline:middle;text-align:center;}#my-svg :root{--mermaid-font-family:"trebuchet ms",verdana,arial,sans-serif;}</style><g/><g class="mindmap-edges"><path class="edge section-edge-0 edge-depth-0" d="M 503.9798822725839,311.39467518804236 L 429.58064115714205,316.9842566772203 L355.1814000417002,322.5738381663982"/><path class="edge section-edge-1 edge-depth-0" d="M 532.7331877466576,304.38147881831816 L 588.5146278918351,280.5678234809427 L644.2960680370124,256.7541681435673"/><path class="edge section-edge-2 edge-depth-1" d="M 620.597875833383,389.71888931040974 L 658.6994449698217,364.68604757309356 L696.8010141062604,339.6532058357774"/><path class="edge section-edge-2 edge-depth-2" d="M 780.2127158958834,449.536394348418 L 772.6608260364561,482.0476519793731 L765.1089361770288,514.5589096103281"/><path class="edge section-edge-2 edge-depth-2" d="M 797.0248698288405,441.62994874500544 L 858.0998294032837,472.1466610184861 L919.174788977727,502.66337329196676"/><path class="edge section-edge-2 edge-depth-2" d="M 797.1769730293105,428.53430833777907 L 850.3515499368743,403.49120343837046 L903.5261268444382,378.448098538962"/><path class="edge section-edge-2 edge-depth-2" d="M 798.6051285550197,434.71264379468346 L 890.6512568539595,433.40698306033886 L982.6973851528992,432.10132232599426"/><path class="edge section-edge-2 edge-depth-1" d="M 622.7395129074525,401.0465454825284 L 695.8340629465314,416.44036371594854 L768.9286129856102,431.83418194936866"/><path class="edge section-edge-2 edge-depth-1" d="M 593.1023426921395,396.84900636137775 L 524.9918762121762,391.8117954305576 L456.8814097322129,386.77458449973744"/><path class="edge section-edge-2 edge-depth-2" d="M 521.3371554376738,489.3145200095857 L 568.6423981157636,514.2995196775985 L615.9476407938535,539.2845193456113"/><path class="edge section-edge-2 edge-depth-2" d="M 493.757942203664,486.7884685721681 L 432.5704827550454,505.93406655042315 L371.38302330642694,525.0796645286782"/><path class="edge section-edge-2 edge-depth-2" d="M 503.8250810320129,496.69490532071853 L 492.3008442326911,535.7176359191682 L480.77660743336924,574.7403665176179"/><path class="edge section-edge-2 edge-depth-3" d="M 306.25510906309256,454.4094317248234 L 219.82168913312427,481.27947509452747 L133.38826920315597,508.1495184642316"/><path class="edge section-edge-2 edge-depth-2" d="M 493.29194890553265,479.75852733108474 L 414.3262125277692,466.1328136012413 L335.36047615000575,452.5070998713979"/><path class="edge section-edge-2 edge-depth-1" d="M 596.5964905005565,407.6276546804488 L 558.0674981883077,440.13222525936123 L519.5385058760589,472.63679583827366"/><path class="edge section-edge-2 edge-depth-1" d="M 617.1946739279807,409.8542785855494 L 636.5770517317396,435.10613346277296 L655.9594295354985,460.3579883399965"/><path class="edge section-edge-2 edge-depth-0" d="M 529.6303189960782,320.7908078815674 L 563.4996078831405,354.1131156413918 L597.3688967702026,387.4354234012161"/><path class="edge section-edge-3 edge-depth-2" d="M 274.8392054548923,163.85528667155512 L 231.92915243269454,138.94794528197966 L189.01909941049678,114.04060389240419"/><path class="edge section-edge-3 edge-depth-1" d="M 424.9617813767675,219.74685930552033 L 363.46009245231073,198.06028098015733 L301.9584035278541,176.37370265479433"/><path class="edge section-edge-3 edge-depth-2" d="M 452.5146859186815,108.4419981473041 L 482.71969597499225,76.61140065440947 L512.924706031303,44.78080316151481"/><path class="edge section-edge-3 edge-depth-1" d="M 439.54637659556136,209.74149562568158 L 440.6488186705483,172.02894594025375 L441.7512607455352,134.31639625482592"/><path class="edge section-edge-3 edge-depth-1" d="M 453.43583629601903,220.2949125516206 L 511.86776239822075,202.18684242499856 L570.2996885004225,184.07877229837652"/><path class="edge section-edge-3 edge-depth-2" d="M 249.6727831715382,259.0221691511941 L 170.01290053765416,279.02555022410536 L90.35301790377011,299.0289312970167"/><path class="edge section-edge-3 edge-depth-1" d="M 424.3330262781839,227.32314254489785 L 351.6645929721242,240.05201533842765 L278.99615966606444,252.78088813195745"/><path class="edge section-edge-3 edge-depth-0" d="M 508.70321158311725,299.304829150738 L 479.0228998223726,267.5029947994597 L449.34258806162796,235.70116044818144"/></g><g class="mindmap-nodes"><g transform="translate(454.6174147758052, 291.3708990272309)" class="mindmap-node section--1 section-root"><g><path d="M0 0 a19.29609375,19.29609375 0 0,1 32.16015625,-12.864062500000001&#10;      a45.024218749999996,45.024218749999996 1 0,1 51.456250000000004,-12.864062500000001&#10;      a32.16015625,32.16015625 1 0,1 45.024218749999996,25.728125000000002&#10;&#10;      a19.29609375,19.29609375 1 0,1 19.29609375,13.229999999999999&#10;      a25.728125000000002,25.728125000000002 1 0,1 -19.29609375,24.57&#10;&#10;      a32.16015625,19.29609375 1 0,1 -32.16015625,19.29609375&#10;      a45.024218749999996,45.024218749999996 1 0,1 -64.3203125,0&#10;      a19.29609375,19.29609375 1 0,1 -32.16015625,-19.29609375&#10;&#10;      a19.29609375,19.29609375 1 0,1 -12.864062500000001,-13.229999999999999&#10;      a25.728125000000002,25.728125000000002 1 0,1 12.864062500000001,-24.57&#10;&#10;    H0 V0 Z" class="node-bkg node-cloud" id="node-0"/></g><g transform="translate(64.3203125, 5)" text-anchor="middle" dominant-baseline="middle" alignment-baseline="middle" dy="1em"><g><rect style="stroke: none" class="background"/><text style="" y="-10.1"><tspan dy="1.1em" y="-0.1em" x="0" class="text-outer-tspan"><tspan font-weight="normal" class="text-inner-tspan" font-style="normal">5</tspan><tspan font-weight="normal" class="text-inner-tspan" font-style="normal"> Forces</tspan><tspan font-weight="normal" class="text-inner-tspan" font-style="normal"> Porter</tspan></tspan></text></g></g></g><g transform="translate(279.82511753847893, 304.7976143272097)" class="mindmap-node section-0"><g><path d="M0 32.8 v-27.799999999999997 q0,-5 5,-5 h110.796875 q5,0 5,5 v32.8 H0 Z" class="node-bkg node-no-border" id="node-1"/><line y2="37.8" x2="120.796875" y1="37.8" x1="0" class="node-line-0"/></g><g transform="translate(60.3984375, 5)" text-anchor="middle" dominant-baseline="middle" alignment-baseline="middle" dy="1em"><g><rect style="stroke: none" class="background"/><text style="" y="-10.1"><tspan dy="1.1em" y="-0.1em" x="0" class="text-outer-tspan"><tspan font-weight="normal" class="text-inner-tspan" font-style="normal">dégager</tspan><tspan font-weight="normal" class="text-inner-tspan" font-style="normal"> profil</tspan></tspan></text></g></g></g><g transform="translate(589.9430910078648, 231.96474793465455)" class="mindmap-node section-1"><g><path d="M0 32.8 v-27.799999999999997 q0,-5 5,-5 h126.296875 q5,0 5,5 v32.8 H0 Z" class="node-bkg node-no-border" id="node-2"/><line y2="37.8" x2="136.296875" y1="37.8" x1="0" class="node-line-1"/></g><g transform="translate(68.1484375, 5)" text-anchor="middle" dominant-baseline="middle" alignment-baseline="middle" dy="1em"><g><rect style="stroke: none" class="background"/><text style="" y="-10.1"><tspan dy="1.1em" y="-0.1em" x="0" class="text-outer-tspan"><tspan font-weight="normal" class="text-inner-tspan" font-style="normal">définir</tspan><tspan font-weight="normal" class="text-inner-tspan" font-style="normal"> stratégie</tspan></tspan></text></g></g></g><g transform="translate(567.4443009904757, 379.0553322555526)" class="mindmap-node section-2"><g><path d="M0 32.8 v-27.799999999999997 q0,-5 5,-5 h71.234375 q5,0 5,5 v32.8 H0 Z" class="node-bkg node-no-border" id="node-3"/><line y2="37.8" x2="81.234375" y1="37.8" x1="0" class="node-line-2"/></g><g transform="translate(40.6171875, 5)" text-anchor="middle" dominant-baseline="middle" alignment-baseline="middle" dy="1em"><g><rect style="stroke: none" class="background"/><text style="" y="-10.1"><tspan dy="1.1em" y="-0.1em" x="0" class="text-outer-tspan"><tspan font-weight="normal" class="text-inner-tspan" font-style="normal">Facteurs</tspan></tspan></text></g></g></g><g transform="translate(397.87369736894004, 205.83509057168857)" class="mindmap-node section-3"><g><path d="M0 32.8 v-27.799999999999997 q0,-5 5,-5 h72.46875 q5,0 5,5 v32.8 H0 Z" class="node-bkg node-no-border" id="node-18"/><line y2="37.8" x2="82.46875" y1="37.8" x1="0" class="node-line-3"/></g><g transform="translate(41.234375, 5)" text-anchor="middle" dominant-baseline="middle" alignment-baseline="middle" dy="1em"><g><rect style="stroke: none" class="background"/><text style="" y="-10.1"><tspan dy="1.1em" y="-0.1em" x="0" class="text-outer-tspan"><tspan font-weight="normal" class="text-inner-tspan" font-style="normal">critiques</tspan></tspan></text></g></g></g><g transform="translate(617.5014639491677, 312.51676289063454)" class="mindmap-node section-2"><g><path d="M0 32.8 v-27.799999999999997 q0,-5 5,-5 h173.671875 q5,0 5,5 v32.8 H0 Z" class="node-bkg node-no-border" id="node-4"/><line y2="37.8" x2="183.671875" y1="37.8" x1="0" class="node-line-2"/></g><g transform="translate(91.8359375, 5)" text-anchor="middle" dominant-baseline="middle" alignment-baseline="middle" dy="1em"><g><rect style="stroke: none" class="background"/><text style="" y="-10.1"><tspan dy="1.1em" y="-0.1em" x="0" class="text-outer-tspan"><tspan font-weight="normal" class="text-inner-tspan" font-style="normal">Produit</tspan><tspan font-weight="normal" class="text-inner-tspan" font-style="normal"> de</tspan><tspan font-weight="normal" class="text-inner-tspan" font-style="normal"> substitution</tspan></tspan></text></g></g></g><g transform="translate(729.4191374025871, 416.0253951763445)" class="mindmap-node section-2"><g><path d="M0 32.8 v-27.799999999999997 q0,-5 5,-5 h98.375 q5,0 5,5 v32.8 H0 Z" class="node-bkg node-no-border" id="node-5"/><line y2="37.8" x2="108.375" y1="37.8" x1="0" class="node-line-2"/></g><g transform="translate(54.1875, 5)" text-anchor="middle" dominant-baseline="middle" alignment-baseline="middle" dy="1em"><g><rect style="stroke: none" class="background"/><text style="" y="-10.1"><tspan dy="1.1em" y="-0.1em" x="0" class="text-outer-tspan"><tspan font-weight="normal" class="text-inner-tspan" font-style="normal">Fournisseurs</tspan></tspan></text></g></g></g><g transform="translate(364.8753889338767, 366.7682586055626)" class="mindmap-node section-2"><g><path d="M0 32.8 v-27.799999999999997 q0,-5 5,-5 h144.09375 q5,0 5,5 v32.8 H0 Z" class="node-bkg node-no-border" id="node-10"/><line y2="37.8" x2="154.09375" y1="37.8" x1="0" class="node-line-2"/></g><g transform="translate(77.046875, 5)" text-anchor="middle" dominant-baseline="middle" alignment-baseline="middle" dy="1em"><g><rect style="stroke: none" class="background"/><text style="" y="-10.1"><tspan dy="1.1em" y="-0.1em" x="0" class="text-outer-tspan"><tspan font-weight="normal" class="text-inner-tspan" font-style="normal">Nouveaux</tspan><tspan font-weight="normal" class="text-inner-tspan" font-style="normal"> entrants</tspan></tspan></text></g></g></g><g transform="translate(473.50319538613974, 463.4091182631699)" class="mindmap-node section-2"><g><path d="M0 32.8 v-27.799999999999997 q0,-5 5,-5 h59.140625 q5,0 5,5 v32.8 H0 Z" class="node-bkg node-no-border" id="node-11"/><line y2="37.8" x2="69.140625" y1="37.8" x1="0" class="node-line-2"/></g><g transform="translate(34.5703125, 5)" text-anchor="middle" dominant-baseline="middle" alignment-baseline="middle" dy="1em"><g><rect style="stroke: none" class="background"/><text style="" y="-10.1"><tspan dy="1.1em" y="-0.1em" x="0" class="text-outer-tspan"><tspan font-weight="normal" class="text-inner-tspan" font-style="normal">Clients</tspan></tspan></text></g></g></g><g transform="translate(640.2566774730036, 453.35693466999334)" class="mindmap-node section-2"><g><path d="M0 32.8 v-27.799999999999997 q0,-5 5,-5 h39.671875 q5,0 5,5 v32.8 H0 Z" class="node-bkg node-no-border" id="node-17"/><line y2="37.8" x2="49.671875" y1="37.8" x1="0" class="node-line-2"/></g><g transform="translate(24.8359375, 5)" text-anchor="middle" dominant-baseline="middle" alignment-baseline="middle" dy="1em"><g><rect style="stroke: none" class="background"/><text style="" y="-10.1"><tspan dy="1.1em" y="-0.1em" x="0" class="text-outer-tspan"><tspan font-weight="normal" class="text-inner-tspan" font-style="normal">Etat</tspan></tspan></text></g></g></g><g transform="translate(229.83555003568154, 152.48547138862608)" class="mindmap-node section-3"><g><path d="M0 32.8 v-27.799999999999997 q0,-5 5,-5 h105.953125 q5,0 5,5 v32.8 H0 Z" class="node-bkg node-no-border" id="node-19"/><line y2="37.8" x2="115.953125" y1="37.8" x1="0" class="node-line-3"/></g><g transform="translate(57.9765625, 5)" text-anchor="middle" dominant-baseline="middle" alignment-baseline="middle" dy="1em"><g><rect style="stroke: none" class="background"/><text style="" y="-10.1"><tspan dy="1.1em" y="-0.1em" x="0" class="text-outer-tspan"><tspan font-weight="normal" class="text-inner-tspan" font-style="normal">affrontement</tspan></tspan></text></g></g></g><g transform="translate(378.1973774721565, 91.62280207175837)" class="mindmap-node section-3"><g><path d="M0 50.39999847412109 v-45.39999847412109 q0,-5 5,-5 h117.984375 q5,0 5,5 v50.39999847412109 H0 Z" class="node-bkg node-no-border" id="node-21"/><line y2="55.39999847412109" x2="127.984375" y1="55.39999847412109" x1="0" class="node-line-3"/></g><g transform="translate(63.9921875, 5)" text-anchor="middle" dominant-baseline="middle" alignment-baseline="middle" dy="1em"><g><rect style="stroke: none" class="background"/><text style="" y="-10.1"><tspan dy="1.1em" y="-0.1em" x="0" class="text-outer-tspan"><tspan font-weight="normal" class="text-inner-tspan" font-style="normal">que</tspan><tspan font-weight="normal" class="text-inner-tspan" font-style="normal"> s'adapter</tspan></tspan><tspan dy="1.1em" y="1em" x="0" class="text-outer-tspan"><tspan font-weight="normal" class="text-inner-tspan" font-style="normal">environnement</tspan></tspan></text></g></g></g><g transform="translate(534.7837024275015, 160.73859427830854)" class="mindmap-node section-3"><g><path d="M0 32.8 v-27.799999999999997 q0,-5 5,-5 h89.6875 q5,0 5,5 v32.8 H0 Z" class="node-bkg node-no-border" id="node-23"/><line y2="37.8" x2="99.6875" y1="37.8" x1="0" class="node-line-3"/></g><g transform="translate(49.84375, 5)" text-anchor="middle" dominant-baseline="middle" alignment-baseline="middle" dy="1em"><g><rect style="stroke: none" class="background"/><text style="" y="-10.1"><tspan dy="1.1em" y="-0.1em" x="0" class="text-outer-tspan"><tspan font-weight="normal" class="text-inner-tspan" font-style="normal">généraliste</tspan></tspan></text></g></g></g><g transform="translate(189.06486357530832, 236.46894010516672)" class="mindmap-node section-3"><g><path d="M0 32.8 v-27.799999999999997 q0,-5 5,-5 h140.3125 q5,0 5,5 v32.8 H0 Z" class="node-bkg node-no-border" id="node-24"/><line y2="37.8" x2="150.3125" y1="37.8" x1="0" class="node-line-3"/></g><g transform="translate(75.15625, 5)" text-anchor="middle" dominant-baseline="middle" alignment-baseline="middle" dy="1em"><g><rect style="stroke: none" class="background"/><text style="" y="-10.1"><tspan dy="1.1em" y="-0.1em" x="0" class="text-outer-tspan"><tspan font-weight="normal" class="text-inner-tspan" font-style="normal">Grande</tspan><tspan font-weight="normal" class="text-inner-tspan" font-style="normal"> entreprise</tspan></tspan></text></g></g></g><g transform="translate(715.7462646703251, 510.26990878240167)" class="mindmap-node section-2"><g><path d="M0 32.8 v-27.799999999999997 q0,-5 5,-5 h81.9375 q5,0 5,5 v32.8 H0 Z" class="node-bkg node-no-border" id="node-6"/><line y2="37.8" x2="91.9375" y1="37.8" x1="0" class="node-line-2"/></g><g transform="translate(45.96875, 5)" text-anchor="middle" dominant-baseline="middle" alignment-baseline="middle" dy="1em"><g><rect style="stroke: none" class="background"/><text style="" y="-10.1"><tspan dy="1.1em" y="-0.1em" x="0" class="text-outer-tspan"><tspan font-weight="normal" class="text-inner-tspan" font-style="normal">concentré</tspan></tspan></text></g></g></g><g transform="translate(835.5383339039803, 481.6679276235672)" class="mindmap-node section-2"><g><path d="M0 50.39999847412109 v-45.39999847412109 q0,-5 5,-5 h184.109375 q5,0 5,5 v50.39999847412109 H0 Z" class="node-bkg node-no-border" id="node-7"/><line y2="55.39999847412109" x2="194.109375" y1="55.39999847412109" x1="0" class="node-line-2"/></g><g transform="translate(97.0546875, 5)" text-anchor="middle" dominant-baseline="middle" alignment-baseline="middle" dy="1em"><g><rect style="stroke: none" class="background"/><text style="" y="-10.1"><tspan dy="1.1em" y="-0.1em" x="0" class="text-outer-tspan"><tspan font-weight="normal" class="text-inner-tspan" font-style="normal">concurrent</tspan><tspan font-weight="normal" class="text-inner-tspan" font-style="normal"> nombreux</tspan><tspan font-weight="normal" class="text-inner-tspan" font-style="normal"> et</tspan></tspan><tspan dy="1.1em" y="1em" x="0" class="text-outer-tspan"><tspan font-weight="normal" class="text-inner-tspan" font-style="normal">dispersé</tspan></tspan></text></g></g></g><g transform="translate(830.0105249711615, 353.1570117003966)" class="mindmap-node section-2"><g><path d="M0 32.8 v-27.799999999999997 q0,-5 5,-5 h164.171875 q5,0 5,5 v32.8 H0 Z" class="node-bkg node-no-border" id="node-8"/><line y2="37.8" x2="174.171875" y1="37.8" x1="0" class="node-line-2"/></g><g transform="translate(87.0859375, 5)" text-anchor="middle" dominant-baseline="middle" alignment-baseline="middle" dy="1em"><g><rect style="stroke: none" class="background"/><text style="" y="-10.1"><tspan dy="1.1em" y="-0.1em" x="0" class="text-outer-tspan"><tspan font-weight="normal" class="text-inner-tspan" font-style="normal">cout</tspan><tspan font-weight="normal" class="text-inner-tspan" font-style="normal"> de</tspan><tspan font-weight="normal" class="text-inner-tspan" font-style="normal"> transfert</tspan><tspan font-weight="normal" class="text-inner-tspan" font-style="normal"> fort</tspan></tspan></text></g></g></g><g transform="translate(900.6490013053318, 412.9885709443333)" class="mindmap-node section-2"><g><path d="M0 32.8 v-27.799999999999997 q0,-5 5,-5 h184.09375 q5,0 5,5 v32.8 H0 Z" class="node-bkg node-no-border" id="node-9"/><line y2="37.8" x2="194.09375" y1="37.8" x1="0" class="node-line-2"/></g><g transform="translate(97.046875, 5)" text-anchor="middle" dominant-baseline="middle" alignment-baseline="middle" dy="1em"><g><rect style="stroke: none" class="background"/><text style="" y="-10.1"><tspan dy="1.1em" y="-0.1em" x="0" class="text-outer-tspan"><tspan font-weight="normal" class="text-inner-tspan" font-style="normal">menace</tspan><tspan font-weight="normal" class="text-inner-tspan" font-style="normal"> intégration</tspan><tspan font-weight="normal" class="text-inner-tspan" font-style="normal"> aval</tspan></tspan></text></g></g></g><g transform="translate(580.1331633453875, 527.3899210920272)" class="mindmap-node section-2"><g><path d="M0 32.8 v-27.799999999999997 q0,-5 5,-5 h88.15625 q5,0 5,5 v32.8 H0 Z" class="node-bkg node-no-border" id="node-12"/><line y2="37.8" x2="98.15625" y1="37.8" x1="0" class="node-line-2"/></g><g transform="translate(49.078125, 5)" text-anchor="middle" dominant-baseline="middle" alignment-baseline="middle" dy="1em"><g><rect style="stroke: none" class="background"/><text style="" y="-10.1"><tspan dy="1.1em" y="-0.1em" x="0" class="text-outer-tspan"><tspan font-weight="normal" class="text-inner-tspan" font-style="normal">concentrer</tspan></tspan></text></g></g></g><g transform="translate(275.4424576239512, 510.6590148376764)" class="mindmap-node section-2"><g><path d="M0 32.8 v-27.799999999999997 q0,-5 5,-5 h153.25 q5,0 5,5 v32.8 H0 Z" class="node-bkg node-no-border" id="node-13"/><line y2="37.8" x2="163.25" y1="37.8" x1="0" class="node-line-2"/></g><g transform="translate(81.625, 5)" text-anchor="middle" dominant-baseline="middle" alignment-baseline="middle" dy="1em"><g><rect style="stroke: none" class="background"/><text style="" y="-10.1"><tspan dy="1.1em" y="-0.1em" x="0" class="text-outer-tspan"><tspan font-weight="normal" class="text-inner-tspan" font-style="normal">fournisseur</tspan><tspan font-weight="normal" class="text-inner-tspan" font-style="normal"> dispersé</tspan></tspan></text></g></g></g><g transform="translate(398.3406805792424, 561.426154338106)" class="mindmap-node section-2"><g><path d="M0 50.39999847412109 v-45.39999847412109 q0,-5 5,-5 h146.375 q5,0 5,5 v50.39999847412109 H0 Z" class="node-bkg node-no-border" id="node-14"/><line y2="55.39999847412109" x2="156.375" y1="55.39999847412109" x1="0" class="node-line-2"/></g><g transform="translate(78.1875, 5)" text-anchor="middle" dominant-baseline="middle" alignment-baseline="middle" dy="1em"><g><rect style="stroke: none" class="background"/><text style="" y="-10.1"><tspan dy="1.1em" y="-0.1em" x="0" class="text-outer-tspan"><tspan font-weight="normal" class="text-inner-tspan" font-style="normal">approvisionnement</tspan></tspan><tspan dy="1.1em" y="1em" x="0" class="text-outer-tspan"><tspan font-weight="normal" class="text-inner-tspan" font-style="normal">substitution</tspan></tspan></text></g></g></g><g transform="translate(230.86797966939866, 422.25650970225223)" class="mindmap-node section-2"><g><path d="M0 50.39999847412109 v-45.39999847412109 q0,-5 5,-5 h169.421875 q5,0 5,5 v50.39999847412109 H0 Z" class="node-bkg node-no-border" id="node-15"/><line y2="55.39999847412109" x2="179.421875" y1="55.39999847412109" x1="0" class="node-line-2"/></g><g transform="translate(89.7109375, 5)" text-anchor="middle" dominant-baseline="middle" alignment-baseline="middle" dy="1em"><g><rect style="stroke: none" class="background"/><text style="" y="-10.1"><tspan dy="1.1em" y="-0.1em" x="0" class="text-outer-tspan"><tspan font-weight="normal" class="text-inner-tspan" font-style="normal">cout</tspan><tspan font-weight="normal" class="text-inner-tspan" font-style="normal"> transfer</tspan><tspan font-weight="normal" class="text-inner-tspan" font-style="normal"> faible</tspan><tspan font-weight="normal" class="text-inner-tspan" font-style="normal"> et</tspan></tspan><tspan dy="1.1em" y="1em" x="0" class="text-outer-tspan"><tspan font-weight="normal" class="text-inner-tspan" font-style="normal">prévisible</tspan></tspan></text></g></g></g><g transform="translate(76.67119232970754, 87.61041917533322)" class="mindmap-node section-3"><g><path d="M0 32.8 v-27.799999999999997 q0,-5 5,-5 h188.75 q5,0 5,5 v32.8 H0 Z" class="node-bkg node-no-border" id="node-20"/><line y2="37.8" x2="198.75" y1="37.8" x1="0" class="node-line-3"/></g><g transform="translate(99.375, 5)" text-anchor="middle" dominant-baseline="middle" alignment-baseline="middle" dy="1em"><g><rect style="stroke: none" class="background"/><text style="" y="-10.1"><tspan dy="1.1em" y="-0.1em" x="0" class="text-outer-tspan"><tspan font-weight="normal" class="text-inner-tspan" font-style="normal">au</tspan><tspan font-weight="normal" class="text-inner-tspan" font-style="normal"> lieux</tspan><tspan font-weight="normal" class="text-inner-tspan" font-style="normal"> de</tspan><tspan font-weight="normal" class="text-inner-tspan" font-style="normal"> collaboration</tspan></tspan></text></g></g></g><g transform="translate(478.421701977828, 15)" class="mindmap-node section-3"><g><path d="M0 32.8 v-27.799999999999997 q0,-5 5,-5 h79.65625 q5,0 5,5 v32.8 H0 Z" class="node-bkg node-no-border" id="node-22"/><line y2="37.8" x2="89.65625" y1="37.8" x1="0" class="node-line-3"/></g><g transform="translate(44.828125, 5)" text-anchor="middle" dominant-baseline="middle" alignment-baseline="middle" dy="1em"><g><rect style="stroke: none" class="background"/><text style="" y="-10.1"><tspan dy="1.1em" y="-0.1em" x="0" class="text-outer-tspan"><tspan font-weight="normal" class="text-inner-tspan" font-style="normal">créativité</tspan></tspan></text></g></g></g><g transform="translate(15, 283.78216034304404)" class="mindmap-node section-3"><g><path d="M0 32.8 v-27.799999999999997 q0,-5 5,-5 h111.609375 q5,0 5,5 v32.8 H0 Z" class="node-bkg node-no-border" id="node-25"/><line y2="37.8" x2="121.609375" y1="37.8" x1="0" class="node-line-3"/></g><g transform="translate(60.8046875, 5)" text-anchor="middle" dominant-baseline="middle" alignment-baseline="middle" dy="1em"><g><rect style="stroke: none" class="background"/><text style="" y="-10.1"><tspan dy="1.1em" y="-0.1em" x="0" class="text-outer-tspan"><tspan font-weight="normal" class="text-inner-tspan" font-style="normal">300</tspan><tspan font-weight="normal" class="text-inner-tspan" font-style="normal"> personnes</tspan></tspan></text></g></g></g><g transform="translate(38.54883609684987, 493.70244124974226)" class="mindmap-node section-2"><g><path d="M0 32.8 v-27.799999999999997 q0,-5 5,-5 h151.03125 q5,0 5,5 v32.8 H0 Z" class="node-bkg node-no-border" id="node-16"/><line y2="37.8" x2="161.03125" y1="37.8" x1="0" class="node-line-2"/></g><g transform="translate(80.515625, 5)" text-anchor="middle" dominant-baseline="middle" alignment-baseline="middle" dy="1em"><g><rect style="stroke: none" class="background"/><text style="" y="-10.1"><tspan dy="1.1em" y="-0.1em" x="0" class="text-outer-tspan"><tspan font-weight="normal" class="text-inner-tspan" font-style="normal">changer</tspan><tspan font-weight="normal" class="text-inner-tspan" font-style="normal"> fournisseur</tspan></tspan></text></g></g></g></g></svg>