<svg aria-roledescription="er" role="graphics-document document" viewBox="0 0 496.08203125 664.3671875" style="max-width: 496.082px; background-color: white;" xmlns:xlink="http://www.w3.org/1999/xlink" xmlns="http://www.w3.org/2000/svg" width="100%" id="my-svg"><style>#my-svg{font-family:"trebuchet ms",verdana,arial,sans-serif;font-size:16px;fill:#333;}#my-svg .error-icon{fill:#552222;}#my-svg .error-text{fill:#552222;stroke:#552222;}#my-svg .edge-thickness-normal{stroke-width:1px;}#my-svg .edge-thickness-thick{stroke-width:3.5px;}#my-svg .edge-pattern-solid{stroke-dasharray:0;}#my-svg .edge-thickness-invisible{stroke-width:0;fill:none;}#my-svg .edge-pattern-dashed{stroke-dasharray:3;}#my-svg .edge-pattern-dotted{stroke-dasharray:2;}#my-svg .marker{fill:#333333;stroke:#333333;}#my-svg .marker.cross{stroke:#333333;}#my-svg svg{font-family:"trebuchet ms",verdana,arial,sans-serif;font-size:16px;}#my-svg p{margin:0;}#my-svg .entityBox{fill:#ECECFF;stroke:#9370DB;}#my-svg .attributeBoxOdd{fill:#ffffff;stroke:#9370DB;}#my-svg .attributeBoxEven{fill:#f2f2f2;stroke:#9370DB;}#my-svg .relationshipLabelBox{fill:hsl(80, 100%, 96.2745098039%);opacity:0.7;background-color:hsl(80, 100%, 96.2745098039%);}#my-svg .relationshipLabelBox rect{opacity:0.5;}#my-svg .relationshipLine{stroke:#333333;}#my-svg .entityTitleText{text-anchor:middle;font-size:18px;fill:#333;}#my-svg #MD_PARENT_START{fill:#f5f5f5!important;stroke:#333333!important;stroke-width:1;}#my-svg #MD_PARENT_END{fill:#f5f5f5!important;stroke:#333333!important;stroke-width:1;}#my-svg :root{--mermaid-font-family:"trebuchet ms",verdana,arial,sans-serif;}</style><g/><defs><marker orient="auto" markerHeight="240" markerWidth="190" refY="7" refX="0" id="MD_PARENT_START"><path d="M 18,7 L9,13 L1,7 L9,1 Z"/></marker></defs><defs><marker orient="auto" markerHeight="28" markerWidth="20" refY="7" refX="19" id="MD_PARENT_END"><path d="M 18,7 L9,13 L1,7 L9,1 Z"/></marker></defs><defs><marker orient="auto" markerHeight="18" markerWidth="18" refY="9" refX="0" id="ONLY_ONE_START"><path d="M9,0 L9,18 M15,0 L15,18" fill="none" stroke="gray"/></marker></defs><defs><marker orient="auto" markerHeight="18" markerWidth="18" refY="9" refX="18" id="ONLY_ONE_END"><path d="M3,0 L3,18 M9,0 L9,18" fill="none" stroke="gray"/></marker></defs><defs><marker orient="auto" markerHeight="18" markerWidth="30" refY="9" refX="0" id="ZERO_OR_ONE_START"><circle r="6" cy="9" cx="21" fill="white" stroke="gray"/><path d="M9,0 L9,18" fill="none" stroke="gray"/></marker></defs><defs><marker orient="auto" markerHeight="18" markerWidth="30" refY="9" refX="30" id="ZERO_OR_ONE_END"><circle r="6" cy="9" cx="9" fill="white" stroke="gray"/><path d="M21,0 L21,18" fill="none" stroke="gray"/></marker></defs><defs><marker orient="auto" markerHeight="36" markerWidth="45" refY="18" refX="18" id="ONE_OR_MORE_START"><path d="M0,18 Q 18,0 36,18 Q 18,36 0,18 M42,9 L42,27" fill="none" stroke="gray"/></marker></defs><defs><marker orient="auto" markerHeight="36" markerWidth="45" refY="18" refX="27" id="ONE_OR_MORE_END"><path d="M3,9 L3,27 M9,18 Q27,0 45,18 Q27,36 9,18" fill="none" stroke="gray"/></marker></defs><defs><marker orient="auto" markerHeight="36" markerWidth="57" refY="18" refX="18" id="ZERO_OR_MORE_START"><circle r="6" cy="18" cx="48" fill="white" stroke="gray"/><path d="M0,18 Q18,0 36,18 Q18,36 0,18" fill="none" stroke="gray"/></marker></defs><defs><marker orient="auto" markerHeight="36" markerWidth="57" refY="18" refX="39" id="ZERO_OR_MORE_END"><circle r="6" cy="18" cx="9" fill="white" stroke="gray"/><path d="M21,18 Q39,0 57,18 Q39,36 21,18" fill="none" stroke="gray"/></marker></defs><path style="stroke: gray; fill: none;" marker-start="url(#ONLY_ONE_START)" marker-end="url(#ZERO_OR_MORE_END)" d="M356.77,176.275L356.77,184.609C356.77,192.942,356.77,209.609,356.77,226.275C356.77,242.942,356.77,259.609,356.77,267.942L356.77,276.275" class="er relationshipLine"/><path style="stroke: gray; fill: none;" marker-start="url(#ONLY_ONE_START)" marker-end="url(#ZERO_OR_MORE_END)" d="M286.545,454.367L279.973,462.701C273.401,471.034,260.257,487.701,241.292,506.193C222.326,524.685,197.54,545.003,185.146,555.162L172.753,565.321" class="er relationshipLine"/><path style="stroke: gray; fill: none;" marker-start="url(#ONLY_ONE_START)" marker-end="url(#ZERO_OR_MORE_END)" d="M81.219,399.413L81.219,416.905C81.219,434.398,81.219,469.382,86.566,497.034C91.912,524.685,102.606,545.003,107.953,555.162L113.3,565.321" class="er relationshipLine"/><path style="stroke: gray; fill: none;" marker-start="url(#ONLY_ONE_START)" marker-end="url(#ZERO_OR_MORE_END)" d="M388.79,454.367L391.786,462.701C394.783,471.034,400.776,487.701,403.773,504.367C406.77,521.034,406.77,537.701,406.77,546.034L406.77,554.367" class="er relationshipLine"/><g transform="translate(275.58984375,20 )" id="entity-Categories-4066dbfd-a08d-5786-b5c1-a5236eeca05a"><rect height="156.27539157867432" width="162.359375" y="0" x="0" class="er entityBox"/><text style="dominant-baseline: middle; text-anchor: middle; font-size: 12px;" transform="translate(81.1796875,12)" y="0" x="0" id="text-entity-Categories-4066dbfd-a08d-5786-b5c1-a5236eeca05a" class="er entityLabel">Categories</text><rect height="22.091796875" width="51.640625" y="24" x="0" class="er attributeBoxOdd"/><text style="dominant-baseline: middle; font-size: 10.2px;" transform="translate(5,35.0458984375)" y="0" x="0" id="text-entity-Categories-4066dbfd-a08d-5786-b5c1-a5236eeca05a-attr-1-type" class="er entityLabel">int</text><rect height="22.091796875" width="89.15625" y="24" x="51.640625" class="er attributeBoxOdd"/><text style="dominant-baseline: middle; font-size: 10.2px;" transform="translate(56.640625,35.0458984375)" y="0" x="0" id="text-entity-Categories-4066dbfd-a08d-5786-b5c1-a5236eeca05a-attr-1-name" class="er entityLabel">CategoryID</text><rect height="22.091796875" width="21.5625" y="24" x="140.796875" class="er attributeBoxOdd"/><text style="dominant-baseline: middle; font-size: 10.2px;" transform="translate(145.796875,35.0458984375)" y="0" x="0" id="text-entity-Categories-4066dbfd-a08d-5786-b5c1-a5236eeca05a-attr-1-key" class="er entityLabel">PK</text><rect height="22.091796875" width="51.640625" y="46.091796875" x="0" class="er attributeBoxEven"/><text style="dominant-baseline: middle; font-size: 10.2px;" transform="translate(5,57.1376953125)" y="0" x="0" id="text-entity-Categories-4066dbfd-a08d-5786-b5c1-a5236eeca05a-attr-2-type" class="er entityLabel">nvarchar</text><rect height="22.091796875" width="89.15625" y="46.091796875" x="51.640625" class="er attributeBoxEven"/><text style="dominant-baseline: middle; font-size: 10.2px;" transform="translate(56.640625,57.1376953125)" y="0" x="0" id="text-entity-Categories-4066dbfd-a08d-5786-b5c1-a5236eeca05a-attr-2-name" class="er entityLabel">CategoryName</text><rect height="22.091796875" width="21.5625" y="46.091796875" x="140.796875" class="er attributeBoxEven"/><text style="dominant-baseline: middle; font-size: 10.2px;" transform="translate(145.796875,57.1376953125)" y="0" x="0" id="text-entity-Categories-4066dbfd-a08d-5786-b5c1-a5236eeca05a-attr-2-key" class="er entityLabel"/><rect height="22.091797828674316" width="51.640625" y="68.18359375" x="0" class="er attributeBoxOdd"/><text style="dominant-baseline: middle; font-size: 10.2px;" transform="translate(5,79.22949266433716)" y="0" x="0" id="text-entity-Categories-4066dbfd-a08d-5786-b5c1-a5236eeca05a-attr-3-type" class="er entityLabel">nvarchar</text><rect height="22.091797828674316" width="89.15625" y="68.18359375" x="51.640625" class="er attributeBoxOdd"/><text style="dominant-baseline: middle; font-size: 10.2px;" transform="translate(56.640625,79.22949266433716)" y="0" x="0" id="text-entity-Categories-4066dbfd-a08d-5786-b5c1-a5236eeca05a-attr-3-name" class="er entityLabel">Description</text><rect height="22.091797828674316" width="21.5625" y="68.18359375" x="140.796875" class="er attributeBoxOdd"/><text style="dominant-baseline: middle; font-size: 10.2px;" transform="translate(145.796875,79.22949266433716)" y="0" x="0" id="text-entity-Categories-4066dbfd-a08d-5786-b5c1-a5236eeca05a-attr-3-key" class="er entityLabel"/><rect height="22" width="51.640625" y="90.27539157867432" x="0" class="er attributeBoxEven"/><text style="dominant-baseline: middle; font-size: 10.2px;" transform="translate(5,101.27539157867432)" y="0" x="0" id="text-entity-Categories-4066dbfd-a08d-5786-b5c1-a5236eeca05a-attr-4-type" class="er entityLabel">bit</text><rect height="22" width="89.15625" y="90.27539157867432" x="51.640625" class="er attributeBoxEven"/><text style="dominant-baseline: middle; font-size: 10.2px;" transform="translate(56.640625,101.27539157867432)" y="0" x="0" id="text-entity-Categories-4066dbfd-a08d-5786-b5c1-a5236eeca05a-attr-4-name" class="er entityLabel">IsActive</text><rect height="22" width="21.5625" y="90.27539157867432" x="140.796875" class="er attributeBoxEven"/><text style="dominant-baseline: middle; font-size: 10.2px;" transform="translate(145.796875,101.27539157867432)" y="0" x="0" id="text-entity-Categories-4066dbfd-a08d-5786-b5c1-a5236eeca05a-attr-4-key" class="er entityLabel"/><rect height="22" width="51.640625" y="112.27539157867432" x="0" class="er attributeBoxOdd"/><text style="dominant-baseline: middle; font-size: 10.2px;" transform="translate(5,123.27539157867432)" y="0" x="0" id="text-entity-Categories-4066dbfd-a08d-5786-b5c1-a5236eeca05a-attr-5-type" class="er entityLabel">datetime</text><rect height="22" width="89.15625" y="112.27539157867432" x="51.640625" class="er attributeBoxOdd"/><text style="dominant-baseline: middle; font-size: 10.2px;" transform="translate(56.640625,123.27539157867432)" y="0" x="0" id="text-entity-Categories-4066dbfd-a08d-5786-b5c1-a5236eeca05a-attr-5-name" class="er entityLabel">CreatedDate</text><rect height="22" width="21.5625" y="112.27539157867432" x="140.796875" class="er attributeBoxOdd"/><text style="dominant-baseline: middle; font-size: 10.2px;" transform="translate(145.796875,123.27539157867432)" y="0" x="0" id="text-entity-Categories-4066dbfd-a08d-5786-b5c1-a5236eeca05a-attr-5-key" class="er entityLabel"/><rect height="22" width="51.640625" y="134.27539157867432" x="0" class="er attributeBoxEven"/><text style="dominant-baseline: middle; font-size: 10.2px;" transform="translate(5,145.27539157867432)" y="0" x="0" id="text-entity-Categories-4066dbfd-a08d-5786-b5c1-a5236eeca05a-attr-6-type" class="er entityLabel">datetime</text><rect height="22" width="89.15625" y="134.27539157867432" x="51.640625" class="er attributeBoxEven"/><text style="dominant-baseline: middle; font-size: 10.2px;" transform="translate(56.640625,145.27539157867432)" y="0" x="0" id="text-entity-Categories-4066dbfd-a08d-5786-b5c1-a5236eeca05a-attr-6-name" class="er entityLabel">LastModifiedDate</text><rect height="22" width="21.5625" y="134.27539157867432" x="140.796875" class="er attributeBoxEven"/><text style="dominant-baseline: middle; font-size: 10.2px;" transform="translate(145.796875,145.27539157867432)" y="0" x="0" id="text-entity-Categories-4066dbfd-a08d-5786-b5c1-a5236eeca05a-attr-6-key" class="er entityLabel"/></g><g transform="translate(286.19921875,276.275390625 )" id="entity-Facts-c137bfa5-d388-5621-9ea6-252af02c8128"><rect height="178.091796875" width="141.140625" y="0" x="0" class="er entityBox"/><text style="dominant-baseline: middle; text-anchor: middle; font-size: 12px;" transform="translate(70.5703125,12)" y="0" x="0" id="text-entity-Facts-c137bfa5-d388-5621-9ea6-252af02c8128" class="er entityLabel">Facts</text><rect height="22" width="51.640625" y="24" x="0" class="er attributeBoxOdd"/><text style="dominant-baseline: middle; font-size: 10.2px;" transform="translate(5,35)" y="0" x="0" id="text-entity-Facts-c137bfa5-d388-5621-9ea6-252af02c8128-attr-1-type" class="er entityLabel">int</text><rect height="22" width="67.9375" y="24" x="51.640625" class="er attributeBoxOdd"/><text style="dominant-baseline: middle; font-size: 10.2px;" transform="translate(56.640625,35)" y="0" x="0" id="text-entity-Facts-c137bfa5-d388-5621-9ea6-252af02c8128-attr-1-name" class="er entityLabel">FactID</text><rect height="22" width="21.5625" y="24" x="119.578125" class="er attributeBoxOdd"/><text style="dominant-baseline: middle; font-size: 10.2px;" transform="translate(124.578125,35)" y="0" x="0" id="text-entity-Facts-c137bfa5-d388-5621-9ea6-252af02c8128-attr-1-key" class="er entityLabel">PK</text><rect height="22.091796875" width="51.640625" y="46" x="0" class="er attributeBoxEven"/><text style="dominant-baseline: middle; font-size: 10.2px;" transform="translate(5,57.0458984375)" y="0" x="0" id="text-entity-Facts-c137bfa5-d388-5621-9ea6-252af02c8128-attr-2-type" class="er entityLabel">int</text><rect height="22.091796875" width="67.9375" y="46" x="51.640625" class="er attributeBoxEven"/><text style="dominant-baseline: middle; font-size: 10.2px;" transform="translate(56.640625,57.0458984375)" y="0" x="0" id="text-entity-Facts-c137bfa5-d388-5621-9ea6-252af02c8128-attr-2-name" class="er entityLabel">CategoryID</text><rect height="22.091796875" width="21.5625" y="46" x="119.578125" class="er attributeBoxEven"/><text style="dominant-baseline: middle; font-size: 10.2px;" transform="translate(124.578125,57.0458984375)" y="0" x="0" id="text-entity-Facts-c137bfa5-d388-5621-9ea6-252af02c8128-attr-2-key" class="er entityLabel">FK</text><rect height="22" width="51.640625" y="68.091796875" x="0" class="er attributeBoxOdd"/><text style="dominant-baseline: middle; font-size: 10.2px;" transform="translate(5,79.091796875)" y="0" x="0" id="text-entity-Facts-c137bfa5-d388-5621-9ea6-252af02c8128-attr-3-type" class="er entityLabel">nvarchar</text><rect height="22" width="67.9375" y="68.091796875" x="51.640625" class="er attributeBoxOdd"/><text style="dominant-baseline: middle; font-size: 10.2px;" transform="translate(56.640625,79.091796875)" y="0" x="0" id="text-entity-Facts-c137bfa5-d388-5621-9ea6-252af02c8128-attr-3-name" class="er entityLabel">FactText</text><rect height="22" width="21.5625" y="68.091796875" x="119.578125" class="er attributeBoxOdd"/><text style="dominant-baseline: middle; font-size: 10.2px;" transform="translate(124.578125,79.091796875)" y="0" x="0" id="text-entity-Facts-c137bfa5-d388-5621-9ea6-252af02c8128-attr-3-key" class="er entityLabel"/><rect height="22" width="51.640625" y="90.091796875" x="0" class="er attributeBoxEven"/><text style="dominant-baseline: middle; font-size: 10.2px;" transform="translate(5,101.091796875)" y="0" x="0" id="text-entity-Facts-c137bfa5-d388-5621-9ea6-252af02c8128-attr-4-type" class="er entityLabel">int</text><rect height="22" width="67.9375" y="90.091796875" x="51.640625" class="er attributeBoxEven"/><text style="dominant-baseline: middle; font-size: 10.2px;" transform="translate(56.640625,101.091796875)" y="0" x="0" id="text-entity-Facts-c137bfa5-d388-5621-9ea6-252af02c8128-attr-4-name" class="er entityLabel">ViewCount</text><rect height="22" width="21.5625" y="90.091796875" x="119.578125" class="er attributeBoxEven"/><text style="dominant-baseline: middle; font-size: 10.2px;" transform="translate(124.578125,101.091796875)" y="0" x="0" id="text-entity-Facts-c137bfa5-d388-5621-9ea6-252af02c8128-attr-4-key" class="er entityLabel"/><rect height="22" width="51.640625" y="112.091796875" x="0" class="er attributeBoxOdd"/><text style="dominant-baseline: middle; font-size: 10.2px;" transform="translate(5,123.091796875)" y="0" x="0" id="text-entity-Facts-c137bfa5-d388-5621-9ea6-252af02c8128-attr-5-type" class="er entityLabel">bit</text><rect height="22" width="67.9375" y="112.091796875" x="51.640625" class="er attributeBoxOdd"/><text style="dominant-baseline: middle; font-size: 10.2px;" transform="translate(56.640625,123.091796875)" y="0" x="0" id="text-entity-Facts-c137bfa5-d388-5621-9ea6-252af02c8128-attr-5-name" class="er entityLabel">IsVerified</text><rect height="22" width="21.5625" y="112.091796875" x="119.578125" class="er attributeBoxOdd"/><text style="dominant-baseline: middle; font-size: 10.2px;" transform="translate(124.578125,123.091796875)" y="0" x="0" id="text-entity-Facts-c137bfa5-d388-5621-9ea6-252af02c8128-attr-5-key" class="er entityLabel"/><rect height="22" width="51.640625" y="134.091796875" x="0" class="er attributeBoxEven"/><text style="dominant-baseline: middle; font-size: 10.2px;" transform="translate(5,145.091796875)" y="0" x="0" id="text-entity-Facts-c137bfa5-d388-5621-9ea6-252af02c8128-attr-6-type" class="er entityLabel">datetime</text><rect height="22" width="67.9375" y="134.091796875" x="51.640625" class="er attributeBoxEven"/><text style="dominant-baseline: middle; font-size: 10.2px;" transform="translate(56.640625,145.091796875)" y="0" x="0" id="text-entity-Facts-c137bfa5-d388-5621-9ea6-252af02c8128-attr-6-name" class="er entityLabel">DateAdded</text><rect height="22" width="21.5625" y="134.091796875" x="119.578125" class="er attributeBoxEven"/><text style="dominant-baseline: middle; font-size: 10.2px;" transform="translate(124.578125,145.091796875)" y="0" x="0" id="text-entity-Facts-c137bfa5-d388-5621-9ea6-252af02c8128-attr-6-key" class="er entityLabel"/><rect height="22" width="51.640625" y="156.091796875" x="0" class="er attributeBoxOdd"/><text style="dominant-baseline: middle; font-size: 10.2px;" transform="translate(5,167.091796875)" y="0" x="0" id="text-entity-Facts-c137bfa5-d388-5621-9ea6-252af02c8128-attr-7-type" class="er entityLabel">datetime</text><rect height="22" width="67.9375" y="156.091796875" x="51.640625" class="er attributeBoxOdd"/><text style="dominant-baseline: middle; font-size: 10.2px;" transform="translate(56.640625,167.091796875)" y="0" x="0" id="text-entity-Facts-c137bfa5-d388-5621-9ea6-252af02c8128-attr-7-name" class="er entityLabel">LastModified</text><rect height="22" width="21.5625" y="156.091796875" x="119.578125" class="er attributeBoxOdd"/><text style="dominant-baseline: middle; font-size: 10.2px;" transform="translate(124.578125,167.091796875)" y="0" x="0" id="text-entity-Facts-c137bfa5-d388-5621-9ea6-252af02c8128-attr-7-key" class="er entityLabel"/></g><g transform="translate(81.21875,565.3212890625 )" id="entity-FactTags-080433e4-a7e2-5040-ad2b-c1db0b0de68d"><rect height="68.091796875" width="100" y="0" x="0" class="er entityBox"/><text style="dominant-baseline: middle; text-anchor: middle; font-size: 12px;" transform="translate(50,12)" y="0" x="0" id="text-entity-FactTags-080433e4-a7e2-5040-ad2b-c1db0b0de68d" class="er entityLabel">FactTags</text><rect height="22" width="23.208333333333332" y="24" x="0" class="er attributeBoxOdd"/><text style="dominant-baseline: middle; font-size: 10.2px;" transform="translate(5,35)" y="0" x="0" id="text-entity-FactTags-080433e4-a7e2-5040-ad2b-c1db0b0de68d-attr-1-type" class="er entityLabel">int</text><rect height="22" width="39.583333333333336" y="24" x="23.208333333333332" class="er attributeBoxOdd"/><text style="dominant-baseline: middle; font-size: 10.2px;" transform="translate(28.208333333333332,35)" y="0" x="0" id="text-entity-FactTags-080433e4-a7e2-5040-ad2b-c1db0b0de68d-attr-1-name" class="er entityLabel">FactID</text><rect height="22" width="37.208333333333336" y="24" x="62.79166666666667" class="er attributeBoxOdd"/><text style="dominant-baseline: middle; font-size: 10.2px;" transform="translate(67.79166666666667,35)" y="0" x="0" id="text-entity-FactTags-080433e4-a7e2-5040-ad2b-c1db0b0de68d-attr-1-key" class="er entityLabel">PK,FK</text><rect height="22.091796875" width="23.208333333333332" y="46" x="0" class="er attributeBoxEven"/><text style="dominant-baseline: middle; font-size: 10.2px;" transform="translate(5,57.0458984375)" y="0" x="0" id="text-entity-FactTags-080433e4-a7e2-5040-ad2b-c1db0b0de68d-attr-2-type" class="er entityLabel">int</text><rect height="22.091796875" width="39.583333333333336" y="46" x="23.208333333333332" class="er attributeBoxEven"/><text style="dominant-baseline: middle; font-size: 10.2px;" transform="translate(28.208333333333332,57.0458984375)" y="0" x="0" id="text-entity-FactTags-080433e4-a7e2-5040-ad2b-c1db0b0de68d-attr-2-name" class="er entityLabel">TagID</text><rect height="22.091796875" width="37.208333333333336" y="46" x="62.79166666666667" class="er attributeBoxEven"/><text style="dominant-baseline: middle; font-size: 10.2px;" transform="translate(67.79166666666667,57.0458984375)" y="0" x="0" id="text-entity-FactTags-080433e4-a7e2-5040-ad2b-c1db0b0de68d-attr-2-key" class="er entityLabel">PK,FK</text></g><g transform="translate(20,331.2294921875 )" id="entity-Tags-a57fe403-b041-5502-860a-d625a6cdfbee"><rect height="68.18359375" width="122.4375" y="0" x="0" class="er entityBox"/><text style="dominant-baseline: middle; text-anchor: middle; font-size: 12px;" transform="translate(61.21875,12)" y="0" x="0" id="text-entity-Tags-a57fe403-b041-5502-860a-d625a6cdfbee" class="er entityLabel">Tags</text><rect height="22.091796875" width="49.84375" y="24" x="0" class="er attributeBoxOdd"/><text style="dominant-baseline: middle; font-size: 10.2px;" transform="translate(5,35.0458984375)" y="0" x="0" id="text-entity-Tags-a57fe403-b041-5502-860a-d625a6cdfbee-attr-1-type" class="er entityLabel">int</text><rect height="22.091796875" width="51.03125" y="24" x="49.84375" class="er attributeBoxOdd"/><text style="dominant-baseline: middle; font-size: 10.2px;" transform="translate(54.84375,35.0458984375)" y="0" x="0" id="text-entity-Tags-a57fe403-b041-5502-860a-d625a6cdfbee-attr-1-name" class="er entityLabel">TagID</text><rect height="22.091796875" width="21.5625" y="24" x="100.875" class="er attributeBoxOdd"/><text style="dominant-baseline: middle; font-size: 10.2px;" transform="translate(105.875,35.0458984375)" y="0" x="0" id="text-entity-Tags-a57fe403-b041-5502-860a-d625a6cdfbee-attr-1-key" class="er entityLabel">PK</text><rect height="22.091796875" width="49.84375" y="46.091796875" x="0" class="er attributeBoxEven"/><text style="dominant-baseline: middle; font-size: 10.2px;" transform="translate(5,57.1376953125)" y="0" x="0" id="text-entity-Tags-a57fe403-b041-5502-860a-d625a6cdfbee-attr-2-type" class="er entityLabel">nvarchar</text><rect height="22.091796875" width="51.03125" y="46.091796875" x="49.84375" class="er attributeBoxEven"/><text style="dominant-baseline: middle; font-size: 10.2px;" transform="translate(54.84375,57.1376953125)" y="0" x="0" id="text-entity-Tags-a57fe403-b041-5502-860a-d625a6cdfbee-attr-2-name" class="er entityLabel">TagName</text><rect height="22.091796875" width="21.5625" y="46.091796875" x="100.875" class="er attributeBoxEven"/><text style="dominant-baseline: middle; font-size: 10.2px;" transform="translate(105.875,57.1376953125)" y="0" x="0" id="text-entity-Tags-a57fe403-b041-5502-860a-d625a6cdfbee-attr-2-key" class="er entityLabel"/></g><g transform="translate(337.45703125,554.3671875 )" id="entity-SavedFacts-9b17705d-eb5c-5c02-97e7-928a87ba31e9"><rect height="90" width="138.625" y="0" x="0" class="er entityBox"/><text style="dominant-baseline: middle; text-anchor: middle; font-size: 12px;" transform="translate(69.3125,12)" y="0" x="0" id="text-entity-SavedFacts-9b17705d-eb5c-5c02-97e7-928a87ba31e9" class="er entityLabel">SavedFacts</text><rect height="22" width="51.640625" y="24" x="0" class="er attributeBoxOdd"/><text style="dominant-baseline: middle; font-size: 10.2px;" transform="translate(5,35)" y="0" x="0" id="text-entity-SavedFacts-9b17705d-eb5c-5c02-97e7-928a87ba31e9-attr-1-type" class="er entityLabel">int</text><rect height="22" width="65.421875" y="24" x="51.640625" class="er attributeBoxOdd"/><text style="dominant-baseline: middle; font-size: 10.2px;" transform="translate(56.640625,35)" y="0" x="0" id="text-entity-SavedFacts-9b17705d-eb5c-5c02-97e7-928a87ba31e9-attr-1-name" class="er entityLabel">SavedFactID</text><rect height="22" width="21.5625" y="24" x="117.0625" class="er attributeBoxOdd"/><text style="dominant-baseline: middle; font-size: 10.2px;" transform="translate(122.0625,35)" y="0" x="0" id="text-entity-SavedFacts-9b17705d-eb5c-5c02-97e7-928a87ba31e9-attr-1-key" class="er entityLabel">PK</text><rect height="22" width="51.640625" y="46" x="0" class="er attributeBoxEven"/><text style="dominant-baseline: middle; font-size: 10.2px;" transform="translate(5,57)" y="0" x="0" id="text-entity-SavedFacts-9b17705d-eb5c-5c02-97e7-928a87ba31e9-attr-2-type" class="er entityLabel">int</text><rect height="22" width="65.421875" y="46" x="51.640625" class="er attributeBoxEven"/><text style="dominant-baseline: middle; font-size: 10.2px;" transform="translate(56.640625,57)" y="0" x="0" id="text-entity-SavedFacts-9b17705d-eb5c-5c02-97e7-928a87ba31e9-attr-2-name" class="er entityLabel">FactID</text><rect height="22" width="21.5625" y="46" x="117.0625" class="er attributeBoxEven"/><text style="dominant-baseline: middle; font-size: 10.2px;" transform="translate(122.0625,57)" y="0" x="0" id="text-entity-SavedFacts-9b17705d-eb5c-5c02-97e7-928a87ba31e9-attr-2-key" class="er entityLabel">FK</text><rect height="22" width="51.640625" y="68" x="0" class="er attributeBoxOdd"/><text style="dominant-baseline: middle; font-size: 10.2px;" transform="translate(5,79)" y="0" x="0" id="text-entity-SavedFacts-9b17705d-eb5c-5c02-97e7-928a87ba31e9-attr-3-type" class="er entityLabel">datetime</text><rect height="22" width="65.421875" y="68" x="51.640625" class="er attributeBoxOdd"/><text style="dominant-baseline: middle; font-size: 10.2px;" transform="translate(56.640625,79)" y="0" x="0" id="text-entity-SavedFacts-9b17705d-eb5c-5c02-97e7-928a87ba31e9-attr-3-name" class="er entityLabel">DateSaved</text><rect height="22" width="21.5625" y="68" x="117.0625" class="er attributeBoxOdd"/><text style="dominant-baseline: middle; font-size: 10.2px;" transform="translate(122.0625,79)" y="0" x="0" id="text-entity-SavedFacts-9b17705d-eb5c-5c02-97e7-928a87ba31e9-attr-3-key" class="er entityLabel"/></g><rect height="14" width="44.84375" y="219.27499389648438" x="334.3481140136719" class="er relationshipLabelBox"/><text style="text-anchor: middle; dominant-baseline: middle; font-size: 12px;" y="226.27499389648438" x="356.7699890136719" id="rel1" class="er relationshipLabel">contains</text><rect height="14" width="17.71875" y="506.66265869140625" x="224.57423400878906" class="er relationshipLabelBox"/><text style="text-anchor: middle; dominant-baseline: middle; font-size: 12px;" y="513.6626586914062" x="233.43360900878906" id="rel2" class="er relationshipLabel">has</text><rect height="14" width="17.71875" y="478.06512451171875" x="75.76177215576172" class="er relationshipLabelBox"/><text style="text-anchor: middle; dominant-baseline: middle; font-size: 12px;" y="485.06512451171875" x="84.62114715576172" id="rel3" class="er relationshipLabel">has</text><rect height="14" width="47.734375" y="496.3349304199219" x="379.7159729003906" class="er relationshipLabelBox"/><text style="text-anchor: middle; dominant-baseline: middle; font-size: 12px;" y="503.3349304199219" x="403.5831604003906" id="rel4" class="er relationshipLabel">saved_as</text></svg>