<svg aria-roledescription="er" role="graphics-document document" viewBox="0 -62 377.328125 702" style="max-width: 377.328px; background-color: white;" xmlns:xlink="http://www.w3.org/1999/xlink" xmlns="http://www.w3.org/2000/svg" width="100%" id="my-svg"><style>#my-svg{font-family:"trebuchet ms",verdana,arial,sans-serif;font-size:16px;fill:#333;}#my-svg .error-icon{fill:#552222;}#my-svg .error-text{fill:#552222;stroke:#552222;}#my-svg .edge-thickness-normal{stroke-width:1px;}#my-svg .edge-thickness-thick{stroke-width:3.5px;}#my-svg .edge-pattern-solid{stroke-dasharray:0;}#my-svg .edge-thickness-invisible{stroke-width:0;fill:none;}#my-svg .edge-pattern-dashed{stroke-dasharray:3;}#my-svg .edge-pattern-dotted{stroke-dasharray:2;}#my-svg .marker{fill:#333333;stroke:#333333;}#my-svg .marker.cross{stroke:#333333;}#my-svg svg{font-family:"trebuchet ms",verdana,arial,sans-serif;font-size:16px;}#my-svg p{margin:0;}#my-svg .entityBox{fill:#ECECFF;stroke:#9370DB;}#my-svg .attributeBoxOdd{fill:#ffffff;stroke:#9370DB;}#my-svg .attributeBoxEven{fill:#f2f2f2;stroke:#9370DB;}#my-svg .relationshipLabelBox{fill:hsl(80, 100%, 96.2745098039%);opacity:0.7;background-color:hsl(80, 100%, 96.2745098039%);}#my-svg .relationshipLabelBox rect{opacity:0.5;}#my-svg .relationshipLine{stroke:#333333;}#my-svg .entityTitleText{text-anchor:middle;font-size:18px;fill:#333;}#my-svg #MD_PARENT_START{fill:#f5f5f5!important;stroke:#333333!important;stroke-width:1;}#my-svg #MD_PARENT_END{fill:#f5f5f5!important;stroke:#333333!important;stroke-width:1;}#my-svg :root{--mermaid-font-family:"trebuchet ms",verdana,arial,sans-serif;}</style><g/><defs><marker orient="auto" markerHeight="240" markerWidth="190" refY="7" refX="0" id="MD_PARENT_START"><path d="M 18,7 L9,13 L1,7 L9,1 Z"/></marker></defs><defs><marker orient="auto" markerHeight="28" markerWidth="20" refY="7" refX="19" id="MD_PARENT_END"><path d="M 18,7 L9,13 L1,7 L9,1 Z"/></marker></defs><defs><marker orient="auto" markerHeight="18" markerWidth="18" refY="9" refX="0" id="ONLY_ONE_START"><path d="M9,0 L9,18 M15,0 L15,18" fill="none" stroke="gray"/></marker></defs><defs><marker orient="auto" markerHeight="18" markerWidth="18" refY="9" refX="18" id="ONLY_ONE_END"><path d="M3,0 L3,18 M9,0 L9,18" fill="none" stroke="gray"/></marker></defs><defs><marker orient="auto" markerHeight="18" markerWidth="30" refY="9" refX="0" id="ZERO_OR_ONE_START"><circle r="6" cy="9" cx="21" fill="white" stroke="gray"/><path d="M9,0 L9,18" fill="none" stroke="gray"/></marker></defs><defs><marker orient="auto" markerHeight="18" markerWidth="30" refY="9" refX="30" id="ZERO_OR_ONE_END"><circle r="6" cy="9" cx="9" fill="white" stroke="gray"/><path d="M21,0 L21,18" fill="none" stroke="gray"/></marker></defs><defs><marker orient="auto" markerHeight="36" markerWidth="45" refY="18" refX="18" id="ONE_OR_MORE_START"><path d="M0,18 Q 18,0 36,18 Q 18,36 0,18 M42,9 L42,27" fill="none" stroke="gray"/></marker></defs><defs><marker orient="auto" markerHeight="36" markerWidth="45" refY="18" refX="27" id="ONE_OR_MORE_END"><path d="M3,9 L3,27 M9,18 Q27,0 45,18 Q27,36 9,18" fill="none" stroke="gray"/></marker></defs><defs><marker orient="auto" markerHeight="36" markerWidth="57" refY="18" refX="18" id="ZERO_OR_MORE_START"><circle r="6" cy="18" cx="48" fill="white" stroke="gray"/><path d="M0,18 Q18,0 36,18 Q18,36 0,18" fill="none" stroke="gray"/></marker></defs><defs><marker orient="auto" markerHeight="36" markerWidth="57" refY="18" refX="39" id="ZERO_OR_MORE_END"><circle r="6" cy="18" cx="9" fill="white" stroke="gray"/><path d="M21,18 Q39,0 57,18 Q39,36 21,18" fill="none" stroke="gray"/></marker></defs><path style="stroke: gray; fill: none;" marker-start="url(#ONE_OR_MORE_START)" marker-end="url(#ONLY_ONE_END)" d="M193.309,95L193.309,103.333C193.309,111.667,193.309,128.333,193.309,145C193.309,161.667,193.309,178.333,193.309,186.667L193.309,195" class="er relationshipLine"/><path style="stroke: gray; fill: none;" marker-start="url(#ONE_OR_MORE_START)" marker-end="url(#ONLY_ONE_END)" d="M193.309,270L193.309,278.333C193.309,286.667,193.309,303.333,193.309,320C193.309,336.667,193.309,353.333,193.309,361.667L193.309,370" class="er relationshipLine"/><path style="stroke: gray; fill: none;" marker-start="url(#ONLY_ONE_START)" marker-end="url(#ONE_OR_MORE_END)" d="M146.452,445L136.039,453.333C125.627,461.667,104.802,478.333,94.389,495C83.977,511.667,83.977,528.333,83.977,536.667L83.977,545" class="er relationshipLine"/><path style="stroke: gray; fill: none;" marker-start="url(#ONLY_ONE_START)" marker-end="url(#ZERO_OR_ONE_END)" d="M240.165,445L250.578,453.333C260.99,461.667,281.815,478.333,292.228,495C302.641,511.667,302.641,528.333,302.641,536.667L302.641,545" class="er relationshipLine"/><g transform="translate(143.30859375,20 )" id="entity-OFFENDER-b356487e-844e-54f5-aa41-67b3a7b2a365"><rect height="75" width="100" y="0" x="0" class="er entityBox"/><text style="dominant-baseline: middle; text-anchor: middle; font-size: 12px;" transform="translate(50,37.5)" y="0" x="0" id="text-entity-OFFENDER-b356487e-844e-54f5-aa41-67b3a7b2a365" class="er entityLabel">OFFENDER</text></g><g transform="translate(120.95703125,195 )" id="entity-HDCAPPLICATIONID-e1a1ad28-3ab0-52ac-a369-738da138afc8"><rect height="75" width="144.703125" y="0" x="0" class="er entityBox"/><text style="dominant-baseline: middle; text-anchor: middle; font-size: 12px;" transform="translate(72.3515625,37.5)" y="0" x="0" id="text-entity-HDCAPPLICATIONID-e1a1ad28-3ab0-52ac-a369-738da138afc8" class="er entityLabel">HDC_APPLICATION_ID</text></g><g transform="translate(108.41796875,370 )" id="entity-CURFEWADDRESSCHECK-f4fe4c04-6365-5d5c-bb05-5a5ee952b4ad"><rect height="75" width="169.78125" y="0" x="0" class="er entityBox"/><text style="dominant-baseline: middle; text-anchor: middle; font-size: 12px;" transform="translate(84.890625,37.5)" y="0" x="0" id="text-entity-CURFEWADDRESSCHECK-f4fe4c04-6365-5d5c-bb05-5a5ee952b4ad" class="er entityLabel">CURFEW_ADDRESS_CHECK</text></g><g transform="translate(20,545 )" id="entity-CURFEWADDRESS-d045d377-0c1d-52c8-8a86-cf9cf12b2b82"><rect height="75" width="127.953125" y="0" x="0" class="er entityBox"/><text style="dominant-baseline: middle; text-anchor: middle; font-size: 12px;" transform="translate(63.9765625,37.5)" y="0" x="0" id="text-entity-CURFEWADDRESS-d045d377-0c1d-52c8-8a86-cf9cf12b2b82" class="er entityLabel">CURFEW_ADDRESS</text></g><g transform="translate(247.953125,545 )" id="entity-CAS2ADDRESS-7994560a-bf22-5f04-8373-3517f6e01c0e"><rect height="75" width="109.375" y="0" x="0" class="er entityBox"/><text style="dominant-baseline: middle; text-anchor: middle; font-size: 12px;" transform="translate(54.6875,37.5)" y="0" x="0" id="text-entity-CAS2ADDRESS-7994560a-bf22-5f04-8373-3517f6e01c0e" class="er entityLabel">CAS2_ADDRESS</text></g><rect height="14" width="86.828125" y="138" x="149.8949432373047" class="er relationshipLabelBox"/><text style="text-anchor: middle; dominant-baseline: middle; font-size: 12px;" y="145" x="193.3090057373047" id="rel1" class="er relationshipLabel">has one or more</text><rect height="14" width="86.828125" y="313" x="149.8949432373047" class="er relationshipLabelBox"/><text style="text-anchor: middle; dominant-baseline: middle; font-size: 12px;" y="320" x="193.3090057373047" id="rel2" class="er relationshipLabel">has one or more</text><rect height="14" width="117.890625" y="479.64984130859375" x="41.46660614013672" class="er relationshipLabelBox"/><text style="text-anchor: middle; dominant-baseline: middle; font-size: 12px;" y="486.64984130859375" x="100.41191864013672" id="rel3" class="er relationshipLabel">pertains to (only 1 of)</text><rect height="14" width="117.890625" y="479.64996337890625" x="227.25985717773438" class="er relationshipLabelBox"/><text style="text-anchor: middle; dominant-baseline: middle; font-size: 12px;" y="486.64996337890625" x="286.2051696777344" id="rel4" class="er relationshipLabel">pertains to (only 1 of)</text><text class="entityTitleText" y="-25" x="188.6640625" text-anchor="middle">Address Service ER</text></svg>