<svg aria-roledescription="er" role="graphics-document document" viewBox="-97.375 -62 566.09375 702" style="max-width: 566.094px; background-color: white;" xmlns:xlink="http://www.w3.org/1999/xlink" xmlns="http://www.w3.org/2000/svg" width="100%" id="my-svg"><style>#my-svg{font-family:"trebuchet ms",verdana,arial,sans-serif;font-size:16px;fill:#333;}#my-svg .error-icon{fill:#552222;}#my-svg .error-text{fill:#552222;stroke:#552222;}#my-svg .edge-thickness-normal{stroke-width:1px;}#my-svg .edge-thickness-thick{stroke-width:3.5px;}#my-svg .edge-pattern-solid{stroke-dasharray:0;}#my-svg .edge-thickness-invisible{stroke-width:0;fill:none;}#my-svg .edge-pattern-dashed{stroke-dasharray:3;}#my-svg .edge-pattern-dotted{stroke-dasharray:2;}#my-svg .marker{fill:#333333;stroke:#333333;}#my-svg .marker.cross{stroke:#333333;}#my-svg svg{font-family:"trebuchet ms",verdana,arial,sans-serif;font-size:16px;}#my-svg p{margin:0;}#my-svg .entityBox{fill:#ECECFF;stroke:#9370DB;}#my-svg .attributeBoxOdd{fill:#ffffff;stroke:#9370DB;}#my-svg .attributeBoxEven{fill:#f2f2f2;stroke:#9370DB;}#my-svg .relationshipLabelBox{fill:hsl(80, 100%, 96.2745098039%);opacity:0.7;background-color:hsl(80, 100%, 96.2745098039%);}#my-svg .relationshipLabelBox rect{opacity:0.5;}#my-svg .relationshipLine{stroke:#333333;}#my-svg .entityTitleText{text-anchor:middle;font-size:18px;fill:#333;}#my-svg #MD_PARENT_START{fill:#f5f5f5!important;stroke:#333333!important;stroke-width:1;}#my-svg #MD_PARENT_END{fill:#f5f5f5!important;stroke:#333333!important;stroke-width:1;}#my-svg :root{--mermaid-font-family:"trebuchet ms",verdana,arial,sans-serif;}</style><g/><defs><marker orient="auto" markerHeight="240" markerWidth="190" refY="7" refX="0" id="MD_PARENT_START"><path d="M 18,7 L9,13 L1,7 L9,1 Z"/></marker></defs><defs><marker orient="auto" markerHeight="28" markerWidth="20" refY="7" refX="19" id="MD_PARENT_END"><path d="M 18,7 L9,13 L1,7 L9,1 Z"/></marker></defs><defs><marker orient="auto" markerHeight="18" markerWidth="18" refY="9" refX="0" id="ONLY_ONE_START"><path d="M9,0 L9,18 M15,0 L15,18" fill="none" stroke="gray"/></marker></defs><defs><marker orient="auto" markerHeight="18" markerWidth="18" refY="9" refX="18" id="ONLY_ONE_END"><path d="M3,0 L3,18 M9,0 L9,18" fill="none" stroke="gray"/></marker></defs><defs><marker orient="auto" markerHeight="18" markerWidth="30" refY="9" refX="0" id="ZERO_OR_ONE_START"><circle r="6" cy="9" cx="21" fill="white" stroke="gray"/><path d="M9,0 L9,18" fill="none" stroke="gray"/></marker></defs><defs><marker orient="auto" markerHeight="18" markerWidth="30" refY="9" refX="30" id="ZERO_OR_ONE_END"><circle r="6" cy="9" cx="9" fill="white" stroke="gray"/><path d="M21,0 L21,18" fill="none" stroke="gray"/></marker></defs><defs><marker orient="auto" markerHeight="36" markerWidth="45" refY="18" refX="18" id="ONE_OR_MORE_START"><path d="M0,18 Q 18,0 36,18 Q 18,36 0,18 M42,9 L42,27" fill="none" stroke="gray"/></marker></defs><defs><marker orient="auto" markerHeight="36" markerWidth="45" refY="18" refX="27" id="ONE_OR_MORE_END"><path d="M3,9 L3,27 M9,18 Q27,0 45,18 Q27,36 9,18" fill="none" stroke="gray"/></marker></defs><defs><marker orient="auto" markerHeight="36" markerWidth="57" refY="18" refX="18" id="ZERO_OR_MORE_START"><circle r="6" cy="18" cx="48" fill="white" stroke="gray"/><path d="M0,18 Q18,0 36,18 Q18,36 0,18" fill="none" stroke="gray"/></marker></defs><defs><marker orient="auto" markerHeight="36" markerWidth="57" refY="18" refX="39" id="ZERO_OR_MORE_END"><circle r="6" cy="18" cx="9" fill="white" stroke="gray"/><path d="M21,18 Q39,0 57,18 Q39,36 21,18" fill="none" stroke="gray"/></marker></defs><path style="stroke: gray; fill: none;" marker-start="url(#ZERO_OR_ONE_START)" marker-end="url(#ONLY_ONE_END)" d="M193.508,95L193.508,103.333C193.508,111.667,193.508,128.333,193.508,145C193.508,161.667,193.508,178.333,193.508,186.667L193.508,195" class="er relationshipLine"/><path style="stroke: gray; fill: none;" marker-start="url(#ONE_OR_MORE_START)" marker-end="url(#ONLY_ONE_END)" d="M193.508,270L193.508,278.333C193.508,286.667,193.508,303.333,193.508,320C193.508,336.667,193.508,353.333,193.508,361.667L193.508,370" class="er relationshipLine"/><path style="stroke: gray; fill: none;" marker-start="url(#ONE_OR_MORE_START)" marker-end="url(#ONLY_ONE_END)" d="M147.292,445L137.022,453.333C126.752,461.667,106.212,478.333,95.942,495C85.672,511.667,85.672,528.333,85.672,536.667L85.672,545" class="er relationshipLine"/><path style="stroke: gray; fill: none;" marker-start="url(#ONLY_ONE_START)" marker-end="url(#ZERO_OR_ONE_END)" d="M239.723,445L249.993,453.333C260.263,461.667,280.804,478.333,291.074,495C301.344,511.667,301.344,528.333,301.344,536.667L301.344,545" class="er relationshipLine"/><g transform="translate(143.5078125,20 )" id="entity-PIP-e5713d8e-bff8-51ff-8b92-db9c55761519"><rect height="75" width="100" y="0" x="0" class="er entityBox"/><text style="dominant-baseline: middle; text-anchor: middle; font-size: 12px;" transform="translate(50,37.5)" y="0" x="0" id="text-entity-PIP-e5713d8e-bff8-51ff-8b92-db9c55761519" class="er entityLabel">PIP</text></g><g transform="translate(143.5078125,195 )" id="entity-HDC-f86b2159-f4e9-5f4c-8bba-da11b4682a53"><rect height="75" width="100" y="0" x="0" class="er entityBox"/><text style="dominant-baseline: middle; text-anchor: middle; font-size: 12px;" transform="translate(50,37.5)" y="0" x="0" id="text-entity-HDC-f86b2159-f4e9-5f4c-8bba-da11b4682a53" class="er entityLabel">HDC</text></g><g transform="translate(134.2109375,370 )" id="entity-ADDRESSCHECK-7a347d93-e876-5a1a-a446-a7ce4c531e72"><rect height="75" width="118.59375" y="0" x="0" class="er entityBox"/><text style="dominant-baseline: middle; text-anchor: middle; font-size: 12px;" transform="translate(59.296875,37.5)" y="0" x="0" id="text-entity-ADDRESSCHECK-7a347d93-e876-5a1a-a446-a7ce4c531e72" class="er entityLabel">ADDRESS_CHECK</text></g><g transform="translate(20,545 )" id="entity-ADDRESSCRITERIA-d51badda-8a79-582a-a9c4-eaa43e6d2070"><rect height="75" width="131.34375" y="0" x="0" class="er entityBox"/><text style="dominant-baseline: middle; text-anchor: middle; font-size: 12px;" transform="translate(65.671875,37.5)" y="0" x="0" id="text-entity-ADDRESSCRITERIA-d51badda-8a79-582a-a9c4-eaa43e6d2070" class="er entityLabel">ADDRESS_CRITERIA</text></g><g transform="translate(251.34375,545 )" id="entity-Address-c76279a2-ae7d-51c9-9b7a-8d5514196196"><rect height="75" width="100" y="0" x="0" class="er entityBox"/><text style="dominant-baseline: middle; text-anchor: middle; font-size: 12px;" transform="translate(50,37.5)" y="0" x="0" id="text-entity-Address-c76279a2-ae7d-51c9-9b7a-8d5514196196" class="er entityLabel">Address</text></g><rect height="14" width="74.875" y="138" x="156.07049560546875" class="er relationshipLabelBox"/><text style="text-anchor: middle; dominant-baseline: middle; font-size: 12px;" y="145" x="193.50799560546875" id="rel1" class="er relationshipLabel">Has 0 or more</text><rect height="14" width="73.578125" y="313" x="156.71893310546875" class="er relationshipLabelBox"/><text style="text-anchor: middle; dominant-baseline: middle; font-size: 12px;" y="320" x="193.50799560546875" id="rel2" class="er relationshipLabel">has 0 or more</text><rect height="14" width="130.390625" y="479.7939758300781" x="36.57170104980469" class="er relationshipLabelBox"/><text style="text-anchor: middle; dominant-baseline: middle; font-size: 12px;" y="486.7939758300781" x="101.76701354980469" id="rel3" class="er relationshipLabel">Individual check criteria</text><rect height="14" width="58.609375" y="479.7937316894531" x="255.94403076171875" class="er relationshipLabelBox"/><text style="text-anchor: middle; dominant-baseline: middle; font-size: 12px;" y="486.7937316894531" x="285.24871826171875" id="rel4" class="er relationshipLabel">pertains to</text><text class="entityTitleText" y="-25" x="185.671875" text-anchor="middle">S&amp;E/Licences Service ER sketch licences kept basic for simplicity</text></svg>