<svg aria-roledescription="er" role="graphics-document document" viewBox="0 0 579.453125 371.55078125" style="max-width: 579.453px; background-color: white;" xmlns:xlink="http://www.w3.org/1999/xlink" xmlns="http://www.w3.org/2000/svg" width="100%" id="my-svg"><style>#my-svg{font-family:"trebuchet ms",verdana,arial,sans-serif;font-size:16px;fill:#333;}#my-svg .error-icon{fill:#552222;}#my-svg .error-text{fill:#552222;stroke:#552222;}#my-svg .edge-thickness-normal{stroke-width:1px;}#my-svg .edge-thickness-thick{stroke-width:3.5px;}#my-svg .edge-pattern-solid{stroke-dasharray:0;}#my-svg .edge-thickness-invisible{stroke-width:0;fill:none;}#my-svg .edge-pattern-dashed{stroke-dasharray:3;}#my-svg .edge-pattern-dotted{stroke-dasharray:2;}#my-svg .marker{fill:#333333;stroke:#333333;}#my-svg .marker.cross{stroke:#333333;}#my-svg svg{font-family:"trebuchet ms",verdana,arial,sans-serif;font-size:16px;}#my-svg p{margin:0;}#my-svg .entityBox{fill:#ECECFF;stroke:#9370DB;}#my-svg .attributeBoxOdd{fill:#ffffff;stroke:#9370DB;}#my-svg .attributeBoxEven{fill:#f2f2f2;stroke:#9370DB;}#my-svg .relationshipLabelBox{fill:hsl(80, 100%, 96.2745098039%);opacity:0.7;background-color:hsl(80, 100%, 96.2745098039%);}#my-svg .relationshipLabelBox rect{opacity:0.5;}#my-svg .relationshipLine{stroke:#333333;}#my-svg .entityTitleText{text-anchor:middle;font-size:18px;fill:#333;}#my-svg #MD_PARENT_START{fill:#f5f5f5!important;stroke:#333333!important;stroke-width:1;}#my-svg #MD_PARENT_END{fill:#f5f5f5!important;stroke:#333333!important;stroke-width:1;}#my-svg :root{--mermaid-font-family:"trebuchet ms",verdana,arial,sans-serif;}</style><g/><defs><marker orient="auto" markerHeight="240" markerWidth="190" refY="7" refX="0" id="MD_PARENT_START"><path d="M 18,7 L9,13 L1,7 L9,1 Z"/></marker></defs><defs><marker orient="auto" markerHeight="28" markerWidth="20" refY="7" refX="19" id="MD_PARENT_END"><path d="M 18,7 L9,13 L1,7 L9,1 Z"/></marker></defs><defs><marker orient="auto" markerHeight="18" markerWidth="18" refY="9" refX="0" id="ONLY_ONE_START"><path d="M9,0 L9,18 M15,0 L15,18" fill="none" stroke="gray"/></marker></defs><defs><marker orient="auto" markerHeight="18" markerWidth="18" refY="9" refX="18" id="ONLY_ONE_END"><path d="M3,0 L3,18 M9,0 L9,18" fill="none" stroke="gray"/></marker></defs><defs><marker orient="auto" markerHeight="18" markerWidth="30" refY="9" refX="0" id="ZERO_OR_ONE_START"><circle r="6" cy="9" cx="21" fill="white" stroke="gray"/><path d="M9,0 L9,18" fill="none" stroke="gray"/></marker></defs><defs><marker orient="auto" markerHeight="18" markerWidth="30" refY="9" refX="30" id="ZERO_OR_ONE_END"><circle r="6" cy="9" cx="9" fill="white" stroke="gray"/><path d="M21,0 L21,18" fill="none" stroke="gray"/></marker></defs><defs><marker orient="auto" markerHeight="36" markerWidth="45" refY="18" refX="18" id="ONE_OR_MORE_START"><path d="M0,18 Q 18,0 36,18 Q 18,36 0,18 M42,9 L42,27" fill="none" stroke="gray"/></marker></defs><defs><marker orient="auto" markerHeight="36" markerWidth="45" refY="18" refX="27" id="ONE_OR_MORE_END"><path d="M3,9 L3,27 M9,18 Q27,0 45,18 Q27,36 9,18" fill="none" stroke="gray"/></marker></defs><defs><marker orient="auto" markerHeight="36" markerWidth="57" refY="18" refX="18" id="ZERO_OR_MORE_START"><circle r="6" cy="18" cx="48" fill="white" stroke="gray"/><path d="M0,18 Q18,0 36,18 Q18,36 0,18" fill="none" stroke="gray"/></marker></defs><defs><marker orient="auto" markerHeight="36" markerWidth="57" refY="18" refX="39" id="ZERO_OR_MORE_END"><circle r="6" cy="18" cx="9" fill="white" stroke="gray"/><path d="M21,18 Q39,0 57,18 Q39,36 21,18" fill="none" stroke="gray"/></marker></defs><path style="stroke: gray; fill: none;" marker-start="url(#ZERO_OR_MORE_START)" marker-end="url(#ONLY_ONE_END)" d="M191.563,148.583L171.302,161.578C151.042,174.573,110.521,200.562,90.26,221.89C70,243.217,70,259.884,70,268.217L70,276.551" class="er relationshipLine"/><path style="stroke: gray; fill: none;" marker-start="url(#ZERO_OR_MORE_START)" marker-end="url(#ZERO_OR_MORE_END)" d="M270,176.551L270,184.884C270,193.217,270,209.884,270,226.551C270,243.217,270,259.884,270,268.217L270,276.551" class="er relationshipLine"/><path style="stroke: gray; fill: none;" marker-start="url(#ZERO_OR_MORE_START)" marker-end="url(#ZERO_OR_MORE_END)" d="M348.438,144.067L371.986,157.814C395.534,171.561,442.63,199.056,466.178,221.137C489.727,243.217,489.727,259.884,489.727,268.217L489.727,276.551" class="er relationshipLine"/><g transform="translate(191.5625,20 )" id="entity-AGGREGATORITEM-68f444e5-c6d3-5f87-9e7a-a039ca232832"><rect height="156.5507869720459" width="156.875" y="0" x="0" class="er entityBox"/><text style="dominant-baseline: middle; text-anchor: middle; font-size: 12px;" transform="translate(78.4375,12)" y="0" x="0" id="text-entity-AGGREGATORITEM-68f444e5-c6d3-5f87-9e7a-a039ca232832" class="er entityLabel">AGGREGATOR-ITEM</text><rect height="22.091797828674316" width="115.3125" y="24" x="0" class="er attributeBoxOdd"/><text style="dominant-baseline: middle; font-size: 10.2px;" transform="translate(5,35.04589891433716)" y="0" x="0" id="text-entity-AGGREGATORITEM-68f444e5-c6d3-5f87-9e7a-a039ca232832-attr-1-type" class="er entityLabel">value-object</text><rect height="22.091797828674316" width="41.5625" y="24" x="115.3125" class="er attributeBoxOdd"/><text style="dominant-baseline: middle; font-size: 10.2px;" transform="translate(120.3125,35.04589891433716)" y="0" x="0" id="text-entity-AGGREGATORITEM-68f444e5-c6d3-5f87-9e7a-a039ca232832-attr-1-name" class="er entityLabel">true</text><rect height="22.091797828674316" width="115.3125" y="46.091797828674316" x="0" class="er attributeBoxEven"/><text style="dominant-baseline: middle; font-size: 10.2px;" transform="translate(5,57.137696743011475)" y="0" x="0" id="text-entity-AGGREGATORITEM-68f444e5-c6d3-5f87-9e7a-a039ca232832-attr-2-type" class="er entityLabel">start-bucket</text><rect height="22.091797828674316" width="41.5625" y="46.091797828674316" x="115.3125" class="er attributeBoxEven"/><text style="dominant-baseline: middle; font-size: 10.2px;" transform="translate(120.3125,57.137696743011475)" y="0" x="0" id="text-entity-AGGREGATORITEM-68f444e5-c6d3-5f87-9e7a-a039ca232832-attr-2-name" class="er entityLabel">pos-int</text><rect height="22.091797828674316" width="115.3125" y="68.18359565734863" x="0" class="er attributeBoxOdd"/><text style="dominant-baseline: middle; font-size: 10.2px;" transform="translate(5,79.22949457168579)" y="0" x="0" id="text-entity-AGGREGATORITEM-68f444e5-c6d3-5f87-9e7a-a039ca232832-attr-3-type" class="er entityLabel">end-bucket</text><rect height="22.091797828674316" width="41.5625" y="68.18359565734863" x="115.3125" class="er attributeBoxOdd"/><text style="dominant-baseline: middle; font-size: 10.2px;" transform="translate(120.3125,79.22949457168579)" y="0" x="0" id="text-entity-AGGREGATORITEM-68f444e5-c6d3-5f87-9e7a-a039ca232832-attr-3-name" class="er entityLabel">pos-int</text><rect height="22.091797828674316" width="115.3125" y="90.27539348602295" x="0" class="er attributeBoxEven"/><text style="dominant-baseline: middle; font-size: 10.2px;" transform="translate(5,101.32129240036011)" y="0" x="0" id="text-entity-AGGREGATORITEM-68f444e5-c6d3-5f87-9e7a-a039ca232832-attr-4-type" class="er entityLabel">step</text><rect height="22.091797828674316" width="41.5625" y="90.27539348602295" x="115.3125" class="er attributeBoxEven"/><text style="dominant-baseline: middle; font-size: 10.2px;" transform="translate(120.3125,101.32129240036011)" y="0" x="0" id="text-entity-AGGREGATORITEM-68f444e5-c6d3-5f87-9e7a-a039ca232832-attr-4-name" class="er entityLabel">pos-int</text><rect height="22.091797828674316" width="115.3125" y="112.36719131469727" x="0" class="er attributeBoxOdd"/><text style="dominant-baseline: middle; font-size: 10.2px;" transform="translate(5,123.41309022903442)" y="0" x="0" id="text-entity-AGGREGATORITEM-68f444e5-c6d3-5f87-9e7a-a039ca232832-attr-5-type" class="er entityLabel">start-bucket-aggregate</text><rect height="22.091797828674316" width="41.5625" y="112.36719131469727" x="115.3125" class="er attributeBoxOdd"/><text style="dominant-baseline: middle; font-size: 10.2px;" transform="translate(120.3125,123.41309022903442)" y="0" x="0" id="text-entity-AGGREGATORITEM-68f444e5-c6d3-5f87-9e7a-a039ca232832-attr-5-name" class="er entityLabel">pos-int</text><rect height="22.091797828674316" width="115.3125" y="134.45898914337158" x="0" class="er attributeBoxEven"/><text style="dominant-baseline: middle; font-size: 10.2px;" transform="translate(5,145.50488805770874)" y="0" x="0" id="text-entity-AGGREGATORITEM-68f444e5-c6d3-5f87-9e7a-a039ca232832-attr-6-type" class="er entityLabel">end-bucket-aggregate</text><rect height="22.091797828674316" width="41.5625" y="134.45898914337158" x="115.3125" class="er attributeBoxEven"/><text style="dominant-baseline: middle; font-size: 10.2px;" transform="translate(120.3125,145.50488805770874)" y="0" x="0" id="text-entity-AGGREGATORITEM-68f444e5-c6d3-5f87-9e7a-a039ca232832-attr-6-name" class="er entityLabel">pos-int</text></g><g transform="translate(20,276.55078125 )" id="entity-AGGREGATES-87ed3031-de68-55df-a151-9dd34fe6652d"><rect height="75" width="100" y="0" x="0" class="er entityBox"/><text style="dominant-baseline: middle; text-anchor: middle; font-size: 12px;" transform="translate(50,37.5)" y="0" x="0" id="text-entity-AGGREGATES-87ed3031-de68-55df-a151-9dd34fe6652d" class="er entityLabel">AGGREGATES</text></g><g transform="translate(220,276.55078125 )" id="entity-BUCKET-1b63a865-0730-5f44-ade1-9a322ff8897d"><rect height="75" width="100" y="0" x="0" class="er entityBox"/><text style="dominant-baseline: middle; text-anchor: middle; font-size: 12px;" transform="translate(50,37.5)" y="0" x="0" id="text-entity-BUCKET-1b63a865-0730-5f44-ade1-9a322ff8897d" class="er entityLabel">BUCKET</text></g><g transform="translate(420,276.55078125 )" id="entity-BUCKETAGGREGATE-fd888e66-c8fa-547c-9d23-dad45fa573c7"><rect height="75" width="139.453125" y="0" x="0" class="er entityBox"/><text style="dominant-baseline: middle; text-anchor: middle; font-size: 12px;" transform="translate(69.7265625,37.5)" y="0" x="0" id="text-entity-BUCKETAGGREGATE-fd888e66-c8fa-547c-9d23-dad45fa573c7" class="er entityLabel">BUCKET-AGGREGATE</text></g><rect height="14" width="80.0625" y="193.5111846923828" x="74.64086151123047" class="er relationshipLabelBox"/><text style="text-anchor: middle; dominant-baseline: middle; font-size: 12px;" y="200.5111846923828" x="114.67211151123047" id="rel1" class="er relationshipLabel">is defined with</text><rect height="14" width="47.515625" y="219.55099487304688" x="246.2421875" class="er relationshipLabelBox"/><text style="text-anchor: middle; dominant-baseline: middle; font-size: 12px;" y="226.55099487304688" x="270" id="rel2" class="er relationshipLabel">concerns</text><rect height="14" width="39.625" y="190.13194274902344" x="415.5115051269531" class="er relationshipLabelBox"/><text style="text-anchor: middle; dominant-baseline: middle; font-size: 12px;" y="197.13194274902344" x="435.3240051269531" id="rel3" class="er relationshipLabel">creates</text></svg>