<svg aria-roledescription="er" role="graphics-document document" viewBox="0 0 371.78125 436.091796875" style="max-width: 371.781px; background-color: white;" xmlns:xlink="http://www.w3.org/1999/xlink" xmlns="http://www.w3.org/2000/svg" width="100%" id="my-svg"><style>#my-svg{font-family:"trebuchet ms",verdana,arial,sans-serif;font-size:16px;fill:#333;}#my-svg .error-icon{fill:#552222;}#my-svg .error-text{fill:#552222;stroke:#552222;}#my-svg .edge-thickness-normal{stroke-width:1px;}#my-svg .edge-thickness-thick{stroke-width:3.5px;}#my-svg .edge-pattern-solid{stroke-dasharray:0;}#my-svg .edge-thickness-invisible{stroke-width:0;fill:none;}#my-svg .edge-pattern-dashed{stroke-dasharray:3;}#my-svg .edge-pattern-dotted{stroke-dasharray:2;}#my-svg .marker{fill:#333333;stroke:#333333;}#my-svg .marker.cross{stroke:#333333;}#my-svg svg{font-family:"trebuchet ms",verdana,arial,sans-serif;font-size:16px;}#my-svg p{margin:0;}#my-svg .entityBox{fill:#ECECFF;stroke:#9370DB;}#my-svg .attributeBoxOdd{fill:#ffffff;stroke:#9370DB;}#my-svg .attributeBoxEven{fill:#f2f2f2;stroke:#9370DB;}#my-svg .relationshipLabelBox{fill:hsl(80, 100%, 96.2745098039%);opacity:0.7;background-color:hsl(80, 100%, 96.2745098039%);}#my-svg .relationshipLabelBox rect{opacity:0.5;}#my-svg .relationshipLine{stroke:#333333;}#my-svg .entityTitleText{text-anchor:middle;font-size:18px;fill:#333;}#my-svg #MD_PARENT_START{fill:#f5f5f5!important;stroke:#333333!important;stroke-width:1;}#my-svg #MD_PARENT_END{fill:#f5f5f5!important;stroke:#333333!important;stroke-width:1;}#my-svg :root{--mermaid-font-family:"trebuchet ms",verdana,arial,sans-serif;}</style><g/><defs><marker orient="auto" markerHeight="240" markerWidth="190" refY="7" refX="0" id="MD_PARENT_START"><path d="M 18,7 L9,13 L1,7 L9,1 Z"/></marker></defs><defs><marker orient="auto" markerHeight="28" markerWidth="20" refY="7" refX="19" id="MD_PARENT_END"><path d="M 18,7 L9,13 L1,7 L9,1 Z"/></marker></defs><defs><marker orient="auto" markerHeight="18" markerWidth="18" refY="9" refX="0" id="ONLY_ONE_START"><path d="M9,0 L9,18 M15,0 L15,18" fill="none" stroke="gray"/></marker></defs><defs><marker orient="auto" markerHeight="18" markerWidth="18" refY="9" refX="18" id="ONLY_ONE_END"><path d="M3,0 L3,18 M9,0 L9,18" fill="none" stroke="gray"/></marker></defs><defs><marker orient="auto" markerHeight="18" markerWidth="30" refY="9" refX="0" id="ZERO_OR_ONE_START"><circle r="6" cy="9" cx="21" fill="white" stroke="gray"/><path d="M9,0 L9,18" fill="none" stroke="gray"/></marker></defs><defs><marker orient="auto" markerHeight="18" markerWidth="30" refY="9" refX="30" id="ZERO_OR_ONE_END"><circle r="6" cy="9" cx="9" fill="white" stroke="gray"/><path d="M21,0 L21,18" fill="none" stroke="gray"/></marker></defs><defs><marker orient="auto" markerHeight="36" markerWidth="45" refY="18" refX="18" id="ONE_OR_MORE_START"><path d="M0,18 Q 18,0 36,18 Q 18,36 0,18 M42,9 L42,27" fill="none" stroke="gray"/></marker></defs><defs><marker orient="auto" markerHeight="36" markerWidth="45" refY="18" refX="27" id="ONE_OR_MORE_END"><path d="M3,9 L3,27 M9,18 Q27,0 45,18 Q27,36 9,18" fill="none" stroke="gray"/></marker></defs><defs><marker orient="auto" markerHeight="36" markerWidth="57" refY="18" refX="18" id="ZERO_OR_MORE_START"><circle r="6" cy="18" cx="48" fill="white" stroke="gray"/><path d="M0,18 Q18,0 36,18 Q18,36 0,18" fill="none" stroke="gray"/></marker></defs><defs><marker orient="auto" markerHeight="36" markerWidth="57" refY="18" refX="39" id="ZERO_OR_MORE_END"><circle r="6" cy="18" cx="9" fill="white" stroke="gray"/><path d="M21,18 Q39,0 57,18 Q39,36 21,18" fill="none" stroke="gray"/></marker></defs><path style="stroke: gray; fill: none;" marker-start="url(#ZERO_OR_MORE_START)" marker-end="url(#ZERO_OR_MORE_END)" d="M177.945,95L177.945,103.333C177.945,111.667,177.945,128.333,177.945,145C177.945,161.667,177.945,178.333,177.945,186.667L177.945,195" class="er relationshipLine"/><path style="stroke: gray; fill: none;" marker-start="url(#ONLY_ONE_START)" marker-end="url(#ZERO_OR_MORE_END)" d="M143.889,241.092L131.574,249.425C119.259,257.758,94.63,274.425,82.315,291.092C70,307.758,70,324.425,70,332.758L70,341.092" class="er relationshipLine"/><path style="stroke: gray; fill: none;" marker-start="url(#ONLY_ONE_START)" marker-end="url(#ZERO_OR_MORE_END)" d="M212.002,241.092L224.317,249.425C236.631,257.758,261.261,274.425,273.576,291.092C285.891,307.758,285.891,324.425,285.891,332.758L285.891,341.092" class="er relationshipLine"/><g transform="translate(127.9453125,195 )" id="entity-AGGREGATES-87ed3031-de68-55df-a151-9dd34fe6652d"><rect height="46.091797828674316" width="100" y="0" x="0" class="er entityBox"/><text style="dominant-baseline: middle; text-anchor: middle; font-size: 12px;" transform="translate(50,12)" y="0" x="0" id="text-entity-AGGREGATES-87ed3031-de68-55df-a151-9dd34fe6652d" class="er entityLabel">AGGREGATES</text><rect height="22.091797828674316" width="69.328125" y="24" x="0" class="er attributeBoxOdd"/><text style="dominant-baseline: middle; font-size: 10.2px;" transform="translate(5,35.04589891433716)" y="0" x="0" id="text-entity-AGGREGATES-87ed3031-de68-55df-a151-9dd34fe6652d-attr-1-type" class="er entityLabel">value-object</text><rect height="22.091797828674316" width="30.671875" y="24" x="69.328125" class="er attributeBoxOdd"/><text style="dominant-baseline: middle; font-size: 10.2px;" transform="translate(74.328125,35.04589891433716)" y="0" x="0" id="text-entity-AGGREGATES-87ed3031-de68-55df-a151-9dd34fe6652d-attr-1-name" class="er entityLabel">true</text></g><g transform="translate(97.2578125,20 )" id="entity-SCENARIOMANAGEMENT-c5f4374e-af03-5299-8969-d1d7c0734ed1"><rect height="75" width="161.375" y="0" x="0" class="er entityBox"/><text style="dominant-baseline: middle; text-anchor: middle; font-size: 12px;" transform="translate(80.6875,37.5)" y="0" x="0" id="text-entity-SCENARIOMANAGEMENT-c5f4374e-af03-5299-8969-d1d7c0734ed1" class="er entityLabel">SCENARIO-MANAGEMENT</text></g><g transform="translate(20,341.091796875 )" id="entity-AGGREGATE-4702bb0b-4907-5adc-8073-62e2e368568e"><rect height="75" width="100" y="0" x="0" class="er entityBox"/><text style="dominant-baseline: middle; text-anchor: middle; font-size: 12px;" transform="translate(50,37.5)" y="0" x="0" id="text-entity-AGGREGATE-4702bb0b-4907-5adc-8073-62e2e368568e" class="er entityLabel">AGGREGATE</text></g><g transform="translate(220,341.091796875 )" id="entity-AGGREGATORITEM-68f444e5-c6d3-5f87-9e7a-a039ca232832"><rect height="75" width="131.78125" y="0" x="0" class="er entityBox"/><text style="dominant-baseline: middle; text-anchor: middle; font-size: 12px;" transform="translate(65.890625,37.5)" y="0" x="0" id="text-entity-AGGREGATORITEM-68f444e5-c6d3-5f87-9e7a-a039ca232832" class="er entityLabel">AGGREGATOR-ITEM</text></g><rect height="14" width="39.625" y="138" x="158.13250732421875" class="er relationshipLabelBox"/><text style="text-anchor: middle; dominant-baseline: middle; font-size: 12px;" y="145" x="177.94500732421875" id="rel1" class="er relationshipLabel">creates</text><rect height="14" width="44.84375" y="273.9271545410156" x="68.7938461303711" class="er relationshipLabelBox"/><text style="text-anchor: middle; dominant-baseline: middle; font-size: 12px;" y="280.9271545410156" x="91.2157211303711" id="rel2" class="er relationshipLabel">contains</text><rect height="14" width="39.046875" y="273.9272155761719" x="245.15182495117188" class="er relationshipLabelBox"/><text style="text-anchor: middle; dominant-baseline: middle; font-size: 12px;" y="280.9272155761719" x="264.6752624511719" id="rel3" class="er relationshipLabel">defines</text></svg>