<svg aria-roledescription="flowchart-v2" role="graphics-document document" viewBox="0 0 2324.71875 752" style="max-width: 2324.72px; background-color: white;" class="flowchart" xmlns:xlink="http://www.w3.org/1999/xlink" xmlns="http://www.w3.org/2000/svg" width="100%" id="my-svg"><style>#my-svg{font-family:"trebuchet ms",verdana,arial,sans-serif;font-size:16px;fill:#333;}#my-svg .error-icon{fill:#552222;}#my-svg .error-text{fill:#552222;stroke:#552222;}#my-svg .edge-thickness-normal{stroke-width:1px;}#my-svg .edge-thickness-thick{stroke-width:3.5px;}#my-svg .edge-pattern-solid{stroke-dasharray:0;}#my-svg .edge-thickness-invisible{stroke-width:0;fill:none;}#my-svg .edge-pattern-dashed{stroke-dasharray:3;}#my-svg .edge-pattern-dotted{stroke-dasharray:2;}#my-svg .marker{fill:#333333;stroke:#333333;}#my-svg .marker.cross{stroke:#333333;}#my-svg svg{font-family:"trebuchet ms",verdana,arial,sans-serif;font-size:16px;}#my-svg p{margin:0;}#my-svg .label{font-family:"trebuchet ms",verdana,arial,sans-serif;color:#333;}#my-svg .cluster-label text{fill:#333;}#my-svg .cluster-label span{color:#333;}#my-svg .cluster-label span p{background-color:transparent;}#my-svg .label text,#my-svg span{fill:#333;color:#333;}#my-svg .node rect,#my-svg .node circle,#my-svg .node ellipse,#my-svg .node polygon,#my-svg .node path{fill:#ECECFF;stroke:#9370DB;stroke-width:1px;}#my-svg .rough-node .label text,#my-svg .node .label text,#my-svg .image-shape .label,#my-svg .icon-shape .label{text-anchor:middle;}#my-svg .node .katex path{fill:#000;stroke:#000;stroke-width:1px;}#my-svg .rough-node .label,#my-svg .node .label,#my-svg .image-shape .label,#my-svg .icon-shape .label{text-align:center;}#my-svg .node.clickable{cursor:pointer;}#my-svg .root .anchor path{fill:#333333!important;stroke-width:0;stroke:#333333;}#my-svg .arrowheadPath{fill:#333333;}#my-svg .edgePath .path{stroke:#333333;stroke-width:2.0px;}#my-svg .flowchart-link{stroke:#333333;fill:none;}#my-svg .edgeLabel{background-color:rgba(232,232,232, 0.8);text-align:center;}#my-svg .edgeLabel p{background-color:rgba(232,232,232, 0.8);}#my-svg .edgeLabel rect{opacity:0.5;background-color:rgba(232,232,232, 0.8);fill:rgba(232,232,232, 0.8);}#my-svg .labelBkg{background-color:rgba(232, 232, 232, 0.5);}#my-svg .cluster rect{fill:#ffffde;stroke:#aaaa33;stroke-width:1px;}#my-svg .cluster text{fill:#333;}#my-svg .cluster span{color:#333;}#my-svg div.mermaidTooltip{position:absolute;text-align:center;max-width:200px;padding:2px;font-family:"trebuchet ms",verdana,arial,sans-serif;font-size:12px;background:hsl(80, 100%, 96.2745098039%);border:1px solid #aaaa33;border-radius:2px;pointer-events:none;z-index:100;}#my-svg .flowchartTitleText{text-anchor:middle;font-size:18px;fill:#333;}#my-svg rect.text{fill:none;stroke-width:0;}#my-svg .icon-shape,#my-svg .image-shape{background-color:rgba(232,232,232, 0.8);text-align:center;}#my-svg .icon-shape p,#my-svg .image-shape p{background-color:rgba(232,232,232, 0.8);padding:2px;}#my-svg .icon-shape rect,#my-svg .image-shape rect{opacity:0.5;background-color:rgba(232,232,232, 0.8);fill:rgba(232,232,232, 0.8);}#my-svg :root{--mermaid-font-family:"trebuchet ms",verdana,arial,sans-serif;}#my-svg .tr&gt;*{fill:#00000000!important;stroke:#00000000!important;}#my-svg .tr span{fill:#00000000!important;stroke:#00000000!important;}</style><g><marker orient="auto" markerHeight="8" markerWidth="8" markerUnits="userSpaceOnUse" refY="5" refX="5" viewBox="0 0 10 10" class="marker flowchart-v2" id="my-svg_flowchart-v2-pointEnd"><path style="stroke-width: 1; stroke-dasharray: 1, 0;" class="arrowMarkerPath" d="M 0 0 L 10 5 L 0 10 z"/></marker><marker orient="auto" markerHeight="8" markerWidth="8" markerUnits="userSpaceOnUse" refY="5" refX="4.5" viewBox="0 0 10 10" class="marker flowchart-v2" id="my-svg_flowchart-v2-pointStart"><path style="stroke-width: 1; stroke-dasharray: 1, 0;" class="arrowMarkerPath" d="M 0 5 L 10 10 L 10 0 z"/></marker><marker orient="auto" markerHeight="11" markerWidth="11" markerUnits="userSpaceOnUse" refY="5" refX="11" viewBox="0 0 10 10" class="marker flowchart-v2" id="my-svg_flowchart-v2-circleEnd"><circle style="stroke-width: 1; stroke-dasharray: 1, 0;" class="arrowMarkerPath" r="5" cy="5" cx="5"/></marker><marker orient="auto" markerHeight="11" markerWidth="11" markerUnits="userSpaceOnUse" refY="5" refX="-1" viewBox="0 0 10 10" class="marker flowchart-v2" id="my-svg_flowchart-v2-circleStart"><circle style="stroke-width: 1; stroke-dasharray: 1, 0;" class="arrowMarkerPath" r="5" cy="5" cx="5"/></marker><marker orient="auto" markerHeight="11" markerWidth="11" markerUnits="userSpaceOnUse" refY="5.2" refX="12" viewBox="0 0 11 11" class="marker cross flowchart-v2" id="my-svg_flowchart-v2-crossEnd"><path style="stroke-width: 2; stroke-dasharray: 1, 0;" class="arrowMarkerPath" d="M 1,1 l 9,9 M 10,1 l -9,9"/></marker><marker orient="auto" markerHeight="11" markerWidth="11" markerUnits="userSpaceOnUse" refY="5.2" refX="-1" viewBox="0 0 11 11" class="marker cross flowchart-v2" id="my-svg_flowchart-v2-crossStart"><path style="stroke-width: 2; stroke-dasharray: 1, 0;" class="arrowMarkerPath" d="M 1,1 l 9,9 M 10,1 l -9,9"/></marker><g class="root"><g class="clusters"/><g class="edgePaths"><path marker-end="url(#my-svg_flowchart-v2-pointEnd)" style="" class="edge-thickness-normal edge-pattern-solid edge-thickness-normal edge-pattern-solid flowchart-link" id="L_traders_tradeA_0" d="M561.266,297.862L582.099,291.885C602.932,285.908,644.599,273.954,692.835,267.977C741.07,262,795.875,262,823.277,262L850.68,262"/><path marker-end="url(#my-svg_flowchart-v2-pointEnd)" style="" class="edge-thickness-normal edge-pattern-solid edge-thickness-normal edge-pattern-solid flowchart-link" id="L_traders_tradeB_1" d="M561.266,330.138L582.099,336.115C602.932,342.092,644.599,354.046,692.793,360.023C740.987,366,795.708,366,823.069,366L850.43,366"/><path marker-end="url(#my-svg_flowchart-v2-pointEnd)" style="" class="edge-thickness-normal edge-pattern-solid edge-thickness-normal edge-pattern-solid flowchart-link" id="L_tradeA_numA_2" d="M937.679,235L970.776,201.167C1003.874,167.333,1070.07,99.667,1141.578,65.833C1213.086,32,1289.906,32,1366.727,32C1443.547,32,1520.367,32,1595.165,32C1669.964,32,1742.74,32,1815.516,32C1888.292,32,1961.068,32,2020.639,42.231C2080.209,52.462,2126.575,72.923,2149.758,83.154L2172.941,93.385"/><path marker-end="url(#my-svg_flowchart-v2-pointEnd)" style="" class="edge-thickness-normal edge-pattern-solid edge-thickness-normal edge-pattern-solid flowchart-link" id="L_tradeA_numB_3" d="M931.382,289L965.529,334.833C999.676,380.667,1067.971,472.333,1140.528,518.167C1213.086,564,1289.906,564,1366.727,564C1443.547,564,1520.367,564,1595.165,564C1669.964,564,1742.74,564,1815.516,564C1888.292,564,1961.068,564,2020.639,574.231C2080.209,584.462,2126.575,604.923,2149.758,615.154L2172.941,625.385"/><path marker-end="url(#my-svg_flowchart-v2-pointEnd)" style="" class="edge-thickness-normal edge-pattern-solid edge-thickness-normal edge-pattern-solid flowchart-link" id="L_tradeB_numB_4" d="M934.104,393L967.798,432.833C1001.491,472.667,1068.878,552.333,1140.982,592.167C1213.086,632,1289.906,632,1366.727,632C1443.547,632,1520.367,632,1595.165,632C1669.964,632,1742.74,632,1815.516,632C1888.292,632,1961.068,632,2017.626,634.176C2074.185,636.352,2114.526,640.704,2134.696,642.88L2154.867,645.056"/><path marker-end="url(#my-svg_flowchart-v2-pointEnd)" style="" class="edge-thickness-normal edge-pattern-solid edge-thickness-normal edge-pattern-solid flowchart-link" id="L_tradeB_numA_5" d="M934.104,339L967.798,299.167C1001.491,259.333,1068.878,179.667,1140.982,139.833C1213.086,100,1289.906,100,1366.727,100C1443.547,100,1520.367,100,1595.165,100C1669.964,100,1742.74,100,1815.516,100C1888.292,100,1961.068,100,2017.668,102.18C2074.268,104.361,2114.692,108.722,2134.905,110.902L2155.117,113.082"/><path marker-end="url(#my-svg_flowchart-v2-pointEnd)" style="" class="edge-thickness-normal edge-pattern-solid edge-thickness-normal edge-pattern-solid flowchart-link" id="L_numA_traders_6" d="M2159.094,147.466L2138.219,154.221C2117.344,160.977,2075.594,174.489,2018.331,181.244C1961.068,188,1888.292,188,1815.516,188C1742.74,188,1669.964,188,1595.165,188C1520.367,188,1443.547,188,1366.727,188C1289.906,188,1213.086,188,1137.176,188C1061.266,188,986.266,188,911.266,188C836.266,188,761.266,188,700.578,204.119C639.89,220.239,593.515,252.478,570.327,268.597L547.139,284.717"/><path marker-end="url(#my-svg_flowchart-v2-pointEnd)" style="" class="edge-thickness-normal edge-pattern-solid edge-thickness-normal edge-pattern-solid flowchart-link" id="L_numB_traders_7" d="M2158.844,679.546L2138.01,686.289C2117.177,693.031,2075.51,706.515,2018.289,713.258C1961.068,720,1888.292,720,1815.516,720C1742.74,720,1669.964,720,1595.165,720C1520.367,720,1443.547,720,1366.727,720C1289.906,720,1213.086,720,1137.176,720C1061.266,720,986.266,720,911.266,720C836.266,720,761.266,720,695.838,657.442C630.41,594.884,574.555,469.768,546.627,407.21L518.7,344.653"/><path marker-end="url(#my-svg_flowchart-v2-pointEnd)" style="" class="edge-thickness-normal edge-pattern-solid edge-thickness-normal edge-pattern-solid flowchart-link" id="L_tradeA_lFee_8" d="M967.852,262L995.921,262C1023.99,262,1080.128,262,1128.38,266.554C1176.632,271.108,1216.998,280.216,1237.181,284.77L1257.364,289.324"/><path marker-end="url(#my-svg_flowchart-v2-pointEnd)" style="" class="edge-thickness-normal edge-pattern-solid edge-thickness-normal edge-pattern-solid flowchart-link" id="L_tradeB_lFee_9" d="M968.102,366L996.129,366C1024.156,366,1080.211,366,1128.421,361.446C1176.632,356.892,1216.998,347.784,1237.181,343.23L1257.364,338.676"/><path marker-end="url(#my-svg_flowchart-v2-pointEnd)" style="" class="edge-thickness-normal edge-pattern-solid edge-thickness-normal edge-pattern-solid flowchart-link" id="L_lFee_lProvider_10" d="M1472.188,314L1493.021,314C1513.854,314,1555.521,314,1605.059,332.144C1654.598,350.288,1712.008,386.575,1740.713,404.719L1769.418,422.863"/><path marker-end="url(#my-svg_flowchart-v2-pointEnd)" style="" class="edge-thickness-normal edge-pattern-solid edge-thickness-normal edge-pattern-solid flowchart-link" id="L_lProvider_numA_11" d="M1834.655,425L1867.853,378.167C1901.051,331.333,1967.447,237.667,2020.858,188.653C2074.268,139.639,2114.692,135.278,2134.905,133.098L2155.117,130.918"/><path marker-end="url(#my-svg_flowchart-v2-pointEnd)" style="" class="edge-thickness-normal edge-pattern-solid edge-thickness-normal edge-pattern-solid flowchart-link" id="L_lProvider_numB_12" d="M1841.832,479L1873.834,511.833C1905.836,544.667,1969.84,610.333,2022.012,640.991C2074.185,671.648,2114.526,667.296,2134.696,665.12L2154.867,662.944"/><path marker-end="url(#my-svg_flowchart-v2-pointEnd)" style="" class="edge-thickness-normal edge-pattern-solid edge-thickness-normal edge-pattern-solid flowchart-link" id="L_lProvider_lFee_13" d="M1722.188,470.809L1701.354,475.007C1680.521,479.206,1638.854,487.603,1585.832,466.381C1532.81,445.16,1468.432,394.319,1436.244,368.899L1404.055,343.479"/><path marker-end="url(#my-svg_flowchart-v2-pointEnd)" style="" class="edge-thickness-normal edge-pattern-solid edge-thickness-normal edge-pattern-solid flowchart-link" id="L_secondaryReward_lProvider_14" d="M166.018,384L192.309,395.333C218.6,406.667,271.183,429.333,327.683,440.667C384.182,452,444.599,452,505.016,452C565.432,452,625.849,452,693.557,452C761.266,452,836.266,452,911.266,452C986.266,452,1061.266,452,1137.176,452C1213.086,452,1289.906,452,1366.727,452C1443.547,452,1520.367,452,1578.944,452C1637.521,452,1677.854,452,1698.021,452L1718.188,452"/><path marker-end="url(#my-svg_flowchart-v2-pointEnd)" style="" class="edge-thickness-normal edge-pattern-solid edge-thickness-normal edge-pattern-solid flowchart-link" id="L_secondaryReward_traders_15" d="M198.766,338.389L219.599,334.324C240.432,330.26,282.099,322.13,323.099,318.065C364.099,314,404.432,314,424.599,314L444.766,314"/></g><g class="edgeLabels"><g transform="translate(686.265625, 262)" class="edgeLabel"><g transform="translate(-100, -24)" class="label"><foreignObject height="48" width="200"><div style="display: table; white-space: break-spaces; line-height: 1.5; max-width: 200px; text-align: center; width: 200px;" class="labelBkg" xmlns="http://www.w3.org/1999/xhtml"><span class="edgeLabel">Unsupported markdown: list</span></div></foreignObject></g></g><g transform="translate(686.265625, 366)" class="edgeLabel"><g transform="translate(-100, -24)" class="label"><foreignObject height="48" width="200"><div style="display: table; white-space: break-spaces; line-height: 1.5; max-width: 200px; text-align: center; width: 200px;" class="labelBkg" xmlns="http://www.w3.org/1999/xhtml"><span class="edgeLabel">Unsupported markdown: list</span></div></foreignObject></g></g><g transform="translate(1597.1875, 32)" class="edgeLabel"><g transform="translate(-100, -24)" class="label"><foreignObject height="48" width="200"><div style="display: table; white-space: break-spaces; line-height: 1.5; max-width: 200px; text-align: center; width: 200px;" class="labelBkg" xmlns="http://www.w3.org/1999/xhtml"><span class="edgeLabel">Unsupported markdown: list</span></div></foreignObject></g></g><g transform="translate(1597.1875, 564)" class="edgeLabel"><g transform="translate(-100, -24)" class="label"><foreignObject height="48" width="200"><div style="display: table; white-space: break-spaces; line-height: 1.5; max-width: 200px; text-align: center; width: 200px;" class="labelBkg" xmlns="http://www.w3.org/1999/xhtml"><span class="edgeLabel">Unsupported markdown: list</span></div></foreignObject></g></g><g transform="translate(1597.1875, 632)" class="edgeLabel"><g transform="translate(-100, -24)" class="label"><foreignObject height="48" width="200"><div style="display: table; white-space: break-spaces; line-height: 1.5; max-width: 200px; text-align: center; width: 200px;" class="labelBkg" xmlns="http://www.w3.org/1999/xhtml"><span class="edgeLabel">Unsupported markdown: list</span></div></foreignObject></g></g><g transform="translate(1597.1875, 100)" class="edgeLabel"><g transform="translate(-100, -24)" class="label"><foreignObject height="48" width="200"><div style="display: table; white-space: break-spaces; line-height: 1.5; max-width: 200px; text-align: center; width: 200px;" class="labelBkg" xmlns="http://www.w3.org/1999/xhtml"><span class="edgeLabel">Unsupported markdown: list</span></div></foreignObject></g></g><g transform="translate(1366.7265625, 188)" class="edgeLabel"><g transform="translate(-100, -24)" class="label"><foreignObject height="48" width="200"><div style="display: table; white-space: break-spaces; line-height: 1.5; max-width: 200px; text-align: center; width: 200px;" class="labelBkg" xmlns="http://www.w3.org/1999/xhtml"><span class="edgeLabel">Unsupported markdown: list</span></div></foreignObject></g></g><g transform="translate(1366.7265625, 720)" class="edgeLabel"><g transform="translate(-100, -24)" class="label"><foreignObject height="48" width="200"><div style="display: table; white-space: break-spaces; line-height: 1.5; max-width: 200px; text-align: center; width: 200px;" class="labelBkg" xmlns="http://www.w3.org/1999/xhtml"><span class="edgeLabel">Unsupported markdown: list</span></div></foreignObject></g></g><g transform="translate(1136.265625, 262)" class="edgeLabel"><g transform="translate(-100, -24)" class="label"><foreignObject height="48" width="200"><div style="display: table; white-space: break-spaces; line-height: 1.5; max-width: 200px; text-align: center; width: 200px;" class="labelBkg" xmlns="http://www.w3.org/1999/xhtml"><span class="edgeLabel">Unsupported markdown: list</span></div></foreignObject></g></g><g transform="translate(1136.265625, 366)" class="edgeLabel"><g transform="translate(-100, -24)" class="label"><foreignObject height="48" width="200"><div style="display: table; white-space: break-spaces; line-height: 1.5; max-width: 200px; text-align: center; width: 200px;" class="labelBkg" xmlns="http://www.w3.org/1999/xhtml"><span class="edgeLabel">Unsupported markdown: list</span></div></foreignObject></g></g><g transform="translate(1597.1875, 314)" class="edgeLabel"><g transform="translate(-100, -24)" class="label"><foreignObject height="48" width="200"><div style="display: table; white-space: break-spaces; line-height: 1.5; max-width: 200px; text-align: center; width: 200px;" class="labelBkg" xmlns="http://www.w3.org/1999/xhtml"><span class="edgeLabel">Unsupported markdown: list</span></div></foreignObject></g></g><g transform="translate(2033.84375, 144)" class="edgeLabel"><g transform="translate(-100, -24)" class="label"><foreignObject height="48" width="200"><div style="display: table; white-space: break-spaces; line-height: 1.5; max-width: 200px; text-align: center; width: 200px;" class="labelBkg" xmlns="http://www.w3.org/1999/xhtml"><span class="edgeLabel">Unsupported markdown: list</span></div></foreignObject></g></g><g transform="translate(2033.84375, 676)" class="edgeLabel"><g transform="translate(-100, -24)" class="label"><foreignObject height="48" width="200"><div style="display: table; white-space: break-spaces; line-height: 1.5; max-width: 200px; text-align: center; width: 200px;" class="labelBkg" xmlns="http://www.w3.org/1999/xhtml"><span class="edgeLabel">Unsupported markdown: list</span></div></foreignObject></g></g><g transform="translate(1597.1875, 496)" class="edgeLabel"><g transform="translate(-100, -24)" class="label"><foreignObject height="48" width="200"><div style="display: table; white-space: break-spaces; line-height: 1.5; max-width: 200px; text-align: center; width: 200px;" class="labelBkg" xmlns="http://www.w3.org/1999/xhtml"><span class="edgeLabel">Unsupported markdown: list</span></div></foreignObject></g></g><g transform="translate(911.265625, 452)" class="edgeLabel"><g transform="translate(-100, -24)" class="label"><foreignObject height="48" width="200"><div style="display: table; white-space: break-spaces; line-height: 1.5; max-width: 200px; text-align: center; width: 200px;" class="labelBkg" xmlns="http://www.w3.org/1999/xhtml"><span class="edgeLabel">Unsupported markdown: list</span></div></foreignObject></g></g><g transform="translate(323.765625, 314)" class="edgeLabel"><g transform="translate(-100, -24)" class="label"><foreignObject height="48" width="200"><div style="display: table; white-space: break-spaces; line-height: 1.5; max-width: 200px; text-align: center; width: 200px;" class="labelBkg" xmlns="http://www.w3.org/1999/xhtml"><span class="edgeLabel">Unsupported markdown: list</span></div></foreignObject></g></g></g><g class="nodes"><g transform="translate(505.015625, 314)" id="flowchart-traders-0" class="node default tr"><rect height="54" width="112.5" y="-27" x="-56.25" style="fill:#00000000 !important;stroke:#00000000 !important" class="basic label-container"/><g transform="translate(-26.25, -12)" style="" class="label"><rect/><foreignObject height="24" width="52.5"><div style="display: table-cell; white-space: nowrap; line-height: 1.5; max-width: 200px; text-align: center;" xmlns="http://www.w3.org/1999/xhtml"><span class="nodeLabel"><p>Traders</p></span></div></foreignObject></g></g><g transform="translate(911.265625, 262)" id="flowchart-tradeA-1" class="node default tr"><rect height="54" width="113.171875" y="-27" x="-56.5859375" style="fill:#00000000 !important;stroke:#00000000 !important" class="basic label-container"/><g transform="translate(-26.5859375, -12)" style="" class="label"><rect/><foreignObject height="24" width="53.171875"><div style="display: table-cell; white-space: nowrap; line-height: 1.5; max-width: 200px; text-align: center;" xmlns="http://www.w3.org/1999/xhtml"><span class="nodeLabel"><p>Trade A</p></span></div></foreignObject></g></g><g transform="translate(911.265625, 366)" id="flowchart-tradeB-2" class="node default tr"><rect height="54" width="113.671875" y="-27" x="-56.8359375" style="fill:#00000000 !important;stroke:#00000000 !important" class="basic label-container"/><g transform="translate(-26.8359375, -12)" style="" class="label"><rect/><foreignObject height="24" width="53.671875"><div style="display: table-cell; white-space: nowrap; line-height: 1.5; max-width: 200px; text-align: center;" xmlns="http://www.w3.org/1999/xhtml"><span class="nodeLabel"><p>Trade B</p></span></div></foreignObject></g></g><g transform="translate(2237.78125, 122)" id="flowchart-numA-3" class="node default tr"><rect height="54" width="157.375" y="-27" x="-78.6875" style="fill:#00000000 !important;stroke:#00000000 !important" class="basic label-container"/><g transform="translate(-48.6875, -12)" style="" class="label"><rect/><foreignObject height="24" width="97.375"><div style="display: table-cell; white-space: nowrap; line-height: 1.5; max-width: 200px; text-align: center;" xmlns="http://www.w3.org/1999/xhtml"><span class="nodeLabel"><p>Num tokens A</p></span></div></foreignObject></g></g><g transform="translate(2237.78125, 654)" id="flowchart-numB-4" class="node default tr"><rect height="54" width="157.875" y="-27" x="-78.9375" style="fill:#00000000 !important;stroke:#00000000 !important" class="basic label-container"/><g transform="translate(-48.9375, -12)" style="" class="label"><rect/><foreignObject height="24" width="97.875"><div style="display: table-cell; white-space: nowrap; line-height: 1.5; max-width: 200px; text-align: center;" xmlns="http://www.w3.org/1999/xhtml"><span class="nodeLabel"><p>Num tokens B</p></span></div></foreignObject></g></g><g transform="translate(1815.515625, 452)" id="flowchart-lProvider-5" class="node default tr"><rect height="54" width="186.65625" y="-27" x="-93.328125" style="fill:#00000000 !important;stroke:#00000000 !important" class="basic label-container"/><g transform="translate(-63.328125, -12)" style="" class="label"><rect/><foreignObject height="24" width="126.65625"><div style="display: table-cell; white-space: nowrap; line-height: 1.5; max-width: 200px; text-align: center;" xmlns="http://www.w3.org/1999/xhtml"><span class="nodeLabel"><p>Liquidity Provider</p></span></div></foreignObject></g></g><g transform="translate(1366.7265625, 314)" id="flowchart-lFee-6" class="node default tr"><rect height="54" width="210.921875" y="-27" x="-105.4609375" style="fill:#00000000 !important;stroke:#00000000 !important" class="basic label-container"/><g transform="translate(-75.4609375, -12)" style="" class="label"><rect/><foreignObject height="24" width="150.921875"><div style="display: table-cell; white-space: nowrap; line-height: 1.5; max-width: 200px; text-align: center;" xmlns="http://www.w3.org/1999/xhtml"><span class="nodeLabel"><p>Liquidity Fee Reward</p></span></div></foreignObject></g></g><g transform="translate(103.3828125, 357)" id="flowchart-secondaryReward-7" class="node default tr"><rect height="54" width="190.765625" y="-27" x="-95.3828125" style="fill:#00000000 !important;stroke:#00000000 !important" class="basic label-container"/><g transform="translate(-65.3828125, -12)" style="" class="label"><rect/><foreignObject height="24" width="130.765625"><div style="display: table-cell; white-space: nowrap; line-height: 1.5; max-width: 200px; text-align: center;" xmlns="http://www.w3.org/1999/xhtml"><span class="nodeLabel"><p>Secondary Reward</p></span></div></foreignObject></g></g></g></g></g></svg>