<svg aria-roledescription="flowchart-v2" role="graphics-document document" viewBox="0 0 1810.9375 1169.4407958984375" style="max-width: 1810.94px; background-color: white;" class="flowchart" xmlns:xlink="http://www.w3.org/1999/xlink" xmlns="http://www.w3.org/2000/svg" width="100%" id="my-svg"><style>#my-svg{font-family:"trebuchet ms",verdana,arial,sans-serif;font-size:16px;fill:#333;}#my-svg .error-icon{fill:#552222;}#my-svg .error-text{fill:#552222;stroke:#552222;}#my-svg .edge-thickness-normal{stroke-width:1px;}#my-svg .edge-thickness-thick{stroke-width:3.5px;}#my-svg .edge-pattern-solid{stroke-dasharray:0;}#my-svg .edge-thickness-invisible{stroke-width:0;fill:none;}#my-svg .edge-pattern-dashed{stroke-dasharray:3;}#my-svg .edge-pattern-dotted{stroke-dasharray:2;}#my-svg .marker{fill:#333333;stroke:#333333;}#my-svg .marker.cross{stroke:#333333;}#my-svg svg{font-family:"trebuchet ms",verdana,arial,sans-serif;font-size:16px;}#my-svg p{margin:0;}#my-svg .label{font-family:"trebuchet ms",verdana,arial,sans-serif;color:#333;}#my-svg .cluster-label text{fill:#333;}#my-svg .cluster-label span{color:#333;}#my-svg .cluster-label span p{background-color:transparent;}#my-svg .label text,#my-svg span{fill:#333;color:#333;}#my-svg .node rect,#my-svg .node circle,#my-svg .node ellipse,#my-svg .node polygon,#my-svg .node path{fill:#ECECFF;stroke:#9370DB;stroke-width:1px;}#my-svg .rough-node .label text,#my-svg .node .label text,#my-svg .image-shape .label,#my-svg .icon-shape .label{text-anchor:middle;}#my-svg .node .katex path{fill:#000;stroke:#000;stroke-width:1px;}#my-svg .rough-node .label,#my-svg .node .label,#my-svg .image-shape .label,#my-svg .icon-shape .label{text-align:center;}#my-svg .node.clickable{cursor:pointer;}#my-svg .root .anchor path{fill:#333333!important;stroke-width:0;stroke:#333333;}#my-svg .arrowheadPath{fill:#333333;}#my-svg .edgePath .path{stroke:#333333;stroke-width:2.0px;}#my-svg .flowchart-link{stroke:#333333;fill:none;}#my-svg .edgeLabel{background-color:rgba(232,232,232, 0.8);text-align:center;}#my-svg .edgeLabel p{background-color:rgba(232,232,232, 0.8);}#my-svg .edgeLabel rect{opacity:0.5;background-color:rgba(232,232,232, 0.8);fill:rgba(232,232,232, 0.8);}#my-svg .labelBkg{background-color:rgba(232, 232, 232, 0.5);}#my-svg .cluster rect{fill:#ffffde;stroke:#aaaa33;stroke-width:1px;}#my-svg .cluster text{fill:#333;}#my-svg .cluster span{color:#333;}#my-svg div.mermaidTooltip{position:absolute;text-align:center;max-width:200px;padding:2px;font-family:"trebuchet ms",verdana,arial,sans-serif;font-size:12px;background:hsl(80, 100%, 96.2745098039%);border:1px solid #aaaa33;border-radius:2px;pointer-events:none;z-index:100;}#my-svg .flowchartTitleText{text-anchor:middle;font-size:18px;fill:#333;}#my-svg rect.text{fill:none;stroke-width:0;}#my-svg .icon-shape,#my-svg .image-shape{background-color:rgba(232,232,232, 0.8);text-align:center;}#my-svg .icon-shape p,#my-svg .image-shape p{background-color:rgba(232,232,232, 0.8);padding:2px;}#my-svg .icon-shape rect,#my-svg .image-shape rect{opacity:0.5;background-color:rgba(232,232,232, 0.8);fill:rgba(232,232,232, 0.8);}#my-svg :root{--mermaid-font-family:"trebuchet ms",verdana,arial,sans-serif;}#my-svg .green&gt;*{fill:#9f6!important;stroke:#333!important;stroke-width:2px!important;}#my-svg .green span{fill:#9f6!important;stroke:#333!important;stroke-width:2px!important;}#my-svg .orange&gt;*{fill:#f96!important;stroke:#333!important;stroke-width:4px!important;}#my-svg .orange span{fill:#f96!important;stroke:#333!important;stroke-width:4px!important;}#my-svg .purple&gt;*{fill:#f9f!important;stroke:#333!important;stroke-width:4px!important;}#my-svg .purple span{fill:#f9f!important;stroke:#333!important;stroke-width:4px!important;}</style><g><marker orient="auto" markerHeight="8" markerWidth="8" markerUnits="userSpaceOnUse" refY="5" refX="5" viewBox="0 0 10 10" class="marker flowchart-v2" id="my-svg_flowchart-v2-pointEnd"><path style="stroke-width: 1; stroke-dasharray: 1, 0;" class="arrowMarkerPath" d="M 0 0 L 10 5 L 0 10 z"/></marker><marker orient="auto" markerHeight="8" markerWidth="8" markerUnits="userSpaceOnUse" refY="5" refX="4.5" viewBox="0 0 10 10" class="marker flowchart-v2" id="my-svg_flowchart-v2-pointStart"><path style="stroke-width: 1; stroke-dasharray: 1, 0;" class="arrowMarkerPath" d="M 0 5 L 10 10 L 10 0 z"/></marker><marker orient="auto" markerHeight="11" markerWidth="11" markerUnits="userSpaceOnUse" refY="5" refX="11" viewBox="0 0 10 10" class="marker flowchart-v2" id="my-svg_flowchart-v2-circleEnd"><circle style="stroke-width: 1; stroke-dasharray: 1, 0;" class="arrowMarkerPath" r="5" cy="5" cx="5"/></marker><marker orient="auto" markerHeight="11" markerWidth="11" markerUnits="userSpaceOnUse" refY="5" refX="-1" viewBox="0 0 10 10" class="marker flowchart-v2" id="my-svg_flowchart-v2-circleStart"><circle style="stroke-width: 1; stroke-dasharray: 1, 0;" class="arrowMarkerPath" r="5" cy="5" cx="5"/></marker><marker orient="auto" markerHeight="11" markerWidth="11" markerUnits="userSpaceOnUse" refY="5.2" refX="12" viewBox="0 0 11 11" class="marker cross flowchart-v2" id="my-svg_flowchart-v2-crossEnd"><path style="stroke-width: 2; stroke-dasharray: 1, 0;" class="arrowMarkerPath" d="M 1,1 l 9,9 M 10,1 l -9,9"/></marker><marker orient="auto" markerHeight="11" markerWidth="11" markerUnits="userSpaceOnUse" refY="5.2" refX="-1" viewBox="0 0 11 11" class="marker cross flowchart-v2" id="my-svg_flowchart-v2-crossStart"><path style="stroke-width: 2; stroke-dasharray: 1, 0;" class="arrowMarkerPath" d="M 1,1 l 9,9 M 10,1 l -9,9"/></marker><g class="root"><g class="clusters"><g data-look="classic" id="Node" class="cluster"><rect height="659.190746307373" width="1076.5625" y="8" x="726.375" style=""/><g transform="translate(1246.4375, 8)" class="cluster-label"><foreignObject height="24" width="36.4375"><div style="display: table-cell; white-space: nowrap; line-height: 1.5; max-width: 200px; text-align: center;" xmlns="http://www.w3.org/1999/xhtml"><span class="nodeLabel"><p>Node</p></span></div></foreignObject></g></g></g><g class="edgePaths"><path marker-end="url(#my-svg_flowchart-v2-pointEnd)" style="" class="edge-thickness-normal edge-pattern-dotted edge-thickness-normal edge-pattern-solid flowchart-link" id="L_D1_FS1_0" d="M828.197,339.191L853.357,292.524C878.517,245.857,928.837,152.524,991.42,105.857C1054.003,59.191,1128.849,59.191,1198.908,59.191C1268.966,59.191,1334.237,59.191,1386.432,59.191C1438.628,59.191,1477.747,59.191,1514.98,59.191C1552.214,59.191,1587.56,59.191,1618.838,78.579C1650.115,97.967,1677.324,136.744,1690.929,156.133L1704.534,175.521"/><path marker-end="url(#my-svg_flowchart-v2-pointEnd)" style="" class="edge-thickness-normal edge-pattern-dotted edge-thickness-normal edge-pattern-solid flowchart-link" id="L_P1_FS1_1" d="M1559.703,384.441L1570.237,384.441C1580.771,384.441,1601.839,384.441,1626.463,362.01C1651.087,339.58,1679.268,294.719,1693.359,272.288L1707.45,249.858"/><path marker-end="url(#my-svg_flowchart-v2-pointEnd)" style="" class="edge-thickness-normal edge-pattern-solid edge-thickness-normal edge-pattern-solid flowchart-link" id="L_D1_R1_2" d="M831.881,339.191L856.427,302.857C880.973,266.524,930.065,193.857,978.317,157.524C1026.57,121.191,1073.984,121.191,1097.691,121.191L1121.398,121.191"/><path marker-end="url(#my-svg_flowchart-v2-pointEnd)" style="" class="edge-thickness-normal edge-pattern-solid edge-thickness-normal edge-pattern-solid flowchart-link" id="L_D1_E1_3" d="M872.422,353.051L890.211,349.074C908,345.097,943.578,337.144,986.089,333.167C1028.599,329.191,1078.042,329.191,1102.763,329.191L1127.484,329.191"/><path marker-end="url(#my-svg_flowchart-v2-pointEnd)" style="" class="edge-thickness-normal edge-pattern-solid edge-thickness-normal edge-pattern-solid flowchart-link" id="L_D1_M1_4" d="M845.335,339.191L867.639,320.191C889.942,301.191,934.549,263.191,984.308,244.191C1034.068,225.191,1088.979,225.191,1116.435,225.191L1143.891,225.191"/><path marker-end="url(#my-svg_flowchart-v2-pointEnd)" style="" class="edge-thickness-normal edge-pattern-solid edge-thickness-normal edge-pattern-solid flowchart-link" id="L_R1_P1_5" d="M1281.992,121.191L1301.578,121.191C1321.164,121.191,1360.336,121.191,1397.204,159.957C1434.072,198.723,1468.637,276.255,1485.919,315.021L1503.202,353.787"/><path marker-end="url(#my-svg_flowchart-v2-pointEnd)" style="" class="edge-thickness-normal edge-pattern-solid edge-thickness-normal edge-pattern-solid flowchart-link" id="L_E1_P1_6" d="M1275.906,329.191L1296.507,329.191C1317.107,329.191,1358.307,329.191,1390.725,334.754C1423.143,340.317,1446.777,351.444,1458.595,357.008L1470.412,362.571"/><path marker-end="url(#my-svg_flowchart-v2-pointEnd)" style="" class="edge-thickness-normal edge-pattern-solid edge-thickness-normal edge-pattern-solid flowchart-link" id="L_D1_P1_7" d="M872.422,379.331L890.211,383.308C908,387.284,943.578,395.237,998.79,399.214C1054.003,403.191,1128.849,403.191,1198.908,403.191C1268.966,403.191,1334.237,403.191,1378.635,401.312C1423.032,399.432,1446.557,395.674,1458.319,393.795L1470.081,391.916"/><path marker-end="url(#my-svg_flowchart-v2-pointEnd)" style="" class="edge-thickness-normal edge-pattern-solid edge-thickness-normal edge-pattern-solid flowchart-link" id="L_U_M_8" d="M69.797,826.994L77.943,828.985C86.089,830.976,102.38,834.958,118.005,836.95C133.63,838.941,148.589,838.941,156.068,838.941L163.547,838.941"/><path marker-end="url(#my-svg_flowchart-v2-pointEnd)" style="" class="edge-thickness-normal edge-pattern-solid edge-thickness-normal edge-pattern-solid flowchart-link" id="L_U_W_9" d="M69.797,802.979L77.943,798.64C86.089,794.3,102.38,785.62,128.663,781.281C154.945,776.941,191.219,776.941,232.245,776.941C273.271,776.941,319.049,776.941,370.74,776.941C422.43,776.941,480.031,776.941,532.512,776.941C584.992,776.941,632.352,776.941,663.809,776.941C695.266,776.941,710.82,776.941,722.136,778.198C733.452,779.455,740.529,781.969,744.067,783.226L747.606,784.483"/><path marker-end="url(#my-svg_flowchart-v2-pointEnd)" style="" class="edge-thickness-normal edge-pattern-solid edge-thickness-normal edge-pattern-solid flowchart-link" id="L_U_Config_10" d="M65.326,846.441L74.217,855.524C83.108,864.607,100.89,882.774,127.918,891.857C154.945,900.941,191.219,900.941,232.245,900.941C273.271,900.941,319.049,900.941,370.74,900.941C422.43,900.941,480.031,900.941,532.512,900.941C584.992,900.941,632.352,900.941,663.809,900.941C695.266,900.941,710.82,900.941,733.142,900.941C755.464,900.941,784.552,900.941,826.682,900.941C868.813,900.941,923.984,900.941,980.458,901.022C1036.932,901.104,1094.708,901.267,1123.596,901.348L1152.484,901.429"/><path marker-end="url(#my-svg_flowchart-v2-pointEnd)" style="" class="edge-thickness-normal edge-pattern-solid edge-thickness-normal edge-pattern-solid flowchart-link" id="L_U_Recording_11" d="M62.964,792.441L72.249,782.024C81.533,771.607,100.103,750.774,127.524,740.357C154.945,729.941,191.219,729.941,232.245,729.941C273.271,729.941,319.049,729.941,370.74,729.941C422.43,729.941,480.031,729.941,532.512,729.941C584.992,729.941,632.352,729.941,663.809,729.941C695.266,729.941,710.82,729.941,733.142,729.941C755.464,729.941,784.552,729.941,826.682,729.941C868.813,729.941,923.984,729.941,975.43,732.451C1026.876,734.962,1074.595,739.983,1098.454,742.493L1122.314,745.004"/><path marker-end="url(#my-svg_flowchart-v2-pointEnd)" style="" class="edge-thickness-normal edge-pattern-solid edge-thickness-normal edge-pattern-solid flowchart-link" id="L_U_Profile_12" d="M49.972,846.441L61.422,874.357C72.872,902.274,95.772,958.107,125.359,986.024C154.945,1013.941,191.219,1013.941,232.245,1013.941C273.271,1013.941,319.049,1013.941,370.74,1013.941C422.43,1013.941,480.031,1013.941,532.512,1013.941C584.992,1013.941,632.352,1013.941,663.809,1013.941C695.266,1013.941,710.82,1013.941,733.142,1013.941C755.464,1013.941,784.552,1013.941,826.682,1013.941C868.813,1013.941,923.984,1013.941,971.82,1014.021C1019.656,1014.102,1060.156,1014.263,1080.406,1014.344L1100.656,1014.425"/><path marker-end="url(#my-svg_flowchart-v2-pointEnd)" style="" class="edge-thickness-normal edge-pattern-dotted edge-thickness-normal edge-pattern-solid flowchart-link" id="L_W_Recording_13" d="M875.906,807.941L893.115,807.941C910.323,807.941,944.74,807.941,983.252,802.817C1021.765,797.694,1064.373,787.448,1085.677,782.324L1106.981,777.201"/><path marker-end="url(#my-svg_flowchart-v2-pointEnd)" style="" class="edge-thickness-normal edge-pattern-solid edge-thickness-normal edge-pattern-solid flowchart-link" id="L_W_P1_14" d="M826.028,780.941L851.55,725.316C877.071,669.691,928.114,558.441,991.058,502.816C1054.003,447.191,1128.849,447.191,1198.908,447.191C1268.966,447.191,1334.237,447.191,1378.705,440.864C1423.173,434.537,1446.838,421.884,1458.671,415.557L1470.504,409.23"/><path marker-end="url(#my-svg_flowchart-v2-pointEnd)" style="" class="edge-thickness-normal edge-pattern-dotted edge-thickness-normal edge-pattern-solid flowchart-link" id="L_M_Config_15" d="M258.784,865.941L276.458,881.191C294.132,896.441,329.48,926.941,375.955,942.191C422.43,957.441,480.031,957.441,532.512,957.441C584.992,957.441,632.352,957.441,663.809,957.441C695.266,957.441,710.82,957.441,733.142,957.441C755.464,957.441,784.552,957.441,826.682,957.441C868.813,957.441,923.984,957.441,979.333,950.557C1034.683,943.673,1090.209,929.905,1117.972,923.021L1145.735,916.137"/><path marker-end="url(#my-svg_flowchart-v2-pointEnd)" style="" class="edge-thickness-normal edge-pattern-solid edge-thickness-normal edge-pattern-solid flowchart-link" id="L_M_D_16" d="M235.336,811.941L256.918,737.649C278.5,663.357,321.664,514.774,359.788,440.482C397.911,366.191,430.995,366.191,447.536,366.191L464.078,366.191"/><path marker-end="url(#my-svg_flowchart-v2-pointEnd)" style="" class="edge-thickness-normal edge-pattern-solid edge-thickness-normal edge-pattern-solid flowchart-link" id="L_M_W_17" d="M287.438,838.941L300.336,838.941C313.234,838.941,339.031,838.941,380.73,838.941C422.43,838.941,480.031,838.941,532.512,838.941C584.992,838.941,632.352,838.941,663.809,838.941C695.266,838.941,710.82,838.941,722.136,837.684C733.452,836.427,740.529,833.913,744.067,832.656L747.606,831.399"/><path marker-end="url(#my-svg_flowchart-v2-pointEnd)" style="" class="edge-thickness-normal edge-pattern-dotted edge-thickness-normal edge-pattern-solid flowchart-link" id="L_D_D1_18" d="M607.188,366.191L619.275,366.191C631.362,366.191,655.536,366.191,675.401,366.191C695.266,366.191,710.82,366.191,722.678,366.191C734.536,366.191,742.698,366.191,746.779,366.191L750.859,366.191"/><path marker-end="url(#my-svg_flowchart-v2-pointEnd)" style="" class="edge-thickness-normal edge-pattern-dotted edge-thickness-normal edge-pattern-solid flowchart-link" id="L_D1_Config_19" d="M833.503,393.191L857.778,426.191C882.054,459.191,930.605,525.191,989.64,606.109C1048.675,687.028,1118.193,782.866,1152.952,830.784L1187.711,878.703"/><path marker-end="url(#my-svg_flowchart-v2-pointEnd)" style="" class="edge-thickness-normal edge-pattern-dotted edge-thickness-normal edge-pattern-solid flowchart-link" id="L_D1_Recording_20" d="M838.331,393.191L861.802,418.857C885.273,444.524,932.214,495.857,986.969,550.189C1041.724,604.52,1104.292,661.85,1135.576,690.514L1166.86,719.179"/><path marker-end="url(#my-svg_flowchart-v2-pointEnd)" style="" class="edge-thickness-normal edge-pattern-solid edge-thickness-normal edge-pattern-solid flowchart-link" id="L_D1_Profile_21" d="M830.254,393.191L855.071,433.524C879.888,473.857,929.522,554.524,987.207,650.242C1044.893,745.961,1110.629,856.731,1143.497,912.116L1176.365,967.501"/><path marker-end="url(#my-svg_flowchart-v2-pointEnd)" style="" class="edge-thickness-normal edge-pattern-solid edge-thickness-normal edge-pattern-solid flowchart-link" id="L_W_Binding_22" d="M827.328,834.941L852.633,884.857C877.937,934.774,928.547,1034.607,975.34,1084.524C1022.133,1134.441,1065.109,1134.441,1086.598,1134.441L1108.086,1134.441"/><path marker-end="url(#my-svg_flowchart-v2-pointEnd)" style="" class="edge-thickness-normal edge-pattern-solid edge-thickness-normal edge-pattern-solid flowchart-link" id="L_W_Profile_23" d="M830.812,834.941L855.536,873.816C880.26,912.691,929.708,990.441,972.421,1025.07C1015.133,1059.698,1051.11,1051.206,1069.098,1046.96L1087.086,1042.713"/><path marker-end="url(#my-svg_flowchart-v2-pointEnd)" style="" class="edge-thickness-normal edge-pattern-solid edge-thickness-normal edge-pattern-solid flowchart-link" id="L_W_P1_24" d="M828.906,780.941L853.948,736.649C878.989,692.357,929.073,603.774,991.538,559.482C1054.003,515.191,1128.849,515.191,1198.908,515.191C1268.966,515.191,1334.237,515.191,1381.948,498.395C1429.659,481.6,1459.81,448.009,1474.885,431.213L1489.96,414.417"/></g><g class="edgeLabels"><g transform="translate(1399.5078125, 59.19074630737305)" class="edgeLabel"><g transform="translate(-48.21875, -12)" class="label"><foreignObject height="24" width="96.4375"><div style="display: table-cell; white-space: nowrap; line-height: 1.5; max-width: 200px; text-align: center;" class="labelBkg" xmlns="http://www.w3.org/1999/xhtml"><span class="edgeLabel"><p>install profile</p></span></div></foreignObject></g></g><g transform="translate(1622.90625, 384.44074630737305)" class="edgeLabel"><g transform="translate(-38.203125, -12)" class="label"><foreignObject height="24" width="76.40625"><div style="display: table-cell; white-space: nowrap; line-height: 1.5; max-width: 200px; text-align: center;" class="labelBkg" xmlns="http://www.w3.org/1999/xhtml"><span class="edgeLabel"><p>use profile</p></span></div></foreignObject></g></g><g transform="translate(979.15625, 121.19074630737305)" class="edgeLabel"><g transform="translate(-72.7890625, -12)" class="label"><foreignObject height="24" width="145.578125"><div style="display: table-cell; white-space: nowrap; line-height: 1.5; max-width: 200px; text-align: center;" class="labelBkg" xmlns="http://www.w3.org/1999/xhtml"><span class="edgeLabel"><p>gRPC: record profile</p></span></div></foreignObject></g></g><g transform="translate(979.15625, 329.19074630737305)" class="edgeLabel"><g transform="translate(-72.7890625, -12)" class="label"><foreignObject height="24" width="145.578125"><div style="display: table-cell; white-space: nowrap; line-height: 1.5; max-width: 200px; text-align: center;" class="labelBkg" xmlns="http://www.w3.org/1999/xhtml"><span class="edgeLabel"><p>gRPC: record profile</p></span></div></foreignObject></g></g><g transform="translate(979.15625, 225.19074630737305)" class="edgeLabel"><g transform="translate(-74.2265625, -12)" class="label"><foreignObject height="24" width="148.453125"><div style="display: table-cell; white-space: nowrap; line-height: 1.5; max-width: 200px; text-align: center;" class="labelBkg" xmlns="http://www.w3.org/1999/xhtml"><span class="edgeLabel"><p>gRPC: update metric</p></span></div></foreignObject></g></g><g transform="translate(1399.5078125, 121.19074630737305)" class="edgeLabel"><g transform="translate(-49.5234375, -12)" class="label"><foreignObject height="24" width="99.046875"><div style="display: table-cell; white-space: nowrap; line-height: 1.5; max-width: 200px; text-align: center;" class="labelBkg" xmlns="http://www.w3.org/1999/xhtml"><span class="edgeLabel"><p>record profile</p></span></div></foreignObject></g></g><g transform="translate(1399.5078125, 329.19074630737305)" class="edgeLabel"><g transform="translate(-49.5234375, -12)" class="label"><foreignObject height="24" width="99.046875"><div style="display: table-cell; white-space: nowrap; line-height: 1.5; max-width: 200px; text-align: center;" class="labelBkg" xmlns="http://www.w3.org/1999/xhtml"><span class="edgeLabel"><p>record profile</p></span></div></foreignObject></g></g><g transform="translate(1203.6953125, 403.19074630737305)" class="edgeLabel"><g transform="translate(-37.40625, -12)" class="label"><foreignObject height="24" width="74.8125"><div style="display: table-cell; white-space: nowrap; line-height: 1.5; max-width: 200px; text-align: center;" class="labelBkg" xmlns="http://www.w3.org/1999/xhtml"><span class="edgeLabel"><p>get/watch</p></span></div></foreignObject></g></g><g transform="translate(118.671875, 838.940746307373)" class="edgeLabel"><g transform="translate(-23.875, -12)" class="label"><foreignObject height="24" width="47.75"><div style="display: table-cell; white-space: nowrap; line-height: 1.5; max-width: 200px; text-align: center;" class="labelBkg" xmlns="http://www.w3.org/1999/xhtml"><span class="edgeLabel"><p>deploy</p></span></div></foreignObject></g></g><g transform="translate(364.828125, 776.940746307373)" class="edgeLabel"><g transform="translate(-23.875, -12)" class="label"><foreignObject height="24" width="47.75"><div style="display: table-cell; white-space: nowrap; line-height: 1.5; max-width: 200px; text-align: center;" class="labelBkg" xmlns="http://www.w3.org/1999/xhtml"><span class="edgeLabel"><p>deploy</p></span></div></foreignObject></g></g><g transform="translate(537.6328125, 900.940746307373)" class="edgeLabel"><g transform="translate(-25.0234375, -12)" class="label"><foreignObject height="24" width="50.046875"><div style="display: table-cell; white-space: nowrap; line-height: 1.5; max-width: 200px; text-align: center;" class="labelBkg" xmlns="http://www.w3.org/1999/xhtml"><span class="edgeLabel"><p>update</p></span></div></foreignObject></g></g><g transform="translate(537.6328125, 729.940746307373)" class="edgeLabel"><g transform="translate(-23.171875, -12)" class="label"><foreignObject height="24" width="46.34375"><div style="display: table-cell; white-space: nowrap; line-height: 1.5; max-width: 200px; text-align: center;" class="labelBkg" xmlns="http://www.w3.org/1999/xhtml"><span class="edgeLabel"><p>create</p></span></div></foreignObject></g></g><g transform="translate(537.6328125, 1013.940746307373)" class="edgeLabel"><g transform="translate(-95.4140625, -12)" class="label"><foreignObject height="24" width="190.828125"><div style="display: table-cell; white-space: nowrap; line-height: 1.5; max-width: 200px; text-align: center;" class="labelBkg" xmlns="http://www.w3.org/1999/xhtml"><span class="edgeLabel"><p>create/update/get/delete</p></span></div></foreignObject></g></g><g transform="translate(979.15625, 807.940746307373)" class="edgeLabel"><g transform="translate(-21.6640625, -12)" class="label"><foreignObject height="24" width="43.328125"><div style="display: table-cell; white-space: nowrap; line-height: 1.5; max-width: 200px; text-align: center;" class="labelBkg" xmlns="http://www.w3.org/1999/xhtml"><span class="edgeLabel"><p>watch</p></span></div></foreignObject></g></g><g transform="translate(1203.6953125, 447.19074630737305)" class="edgeLabel"><g transform="translate(-57.5, -12)" class="label"><foreignObject height="24" width="115"><div style="display: table-cell; white-space: nowrap; line-height: 1.5; max-width: 200px; text-align: center;" class="labelBkg" xmlns="http://www.w3.org/1999/xhtml"><span class="edgeLabel"><p>add annotations</p></span></div></foreignObject></g></g><g transform="translate(679.7109375, 957.440746307373)" class="edgeLabel"><g transform="translate(-21.6640625, -12)" class="label"><foreignObject height="24" width="43.328125"><div style="display: table-cell; white-space: nowrap; line-height: 1.5; max-width: 200px; text-align: center;" class="labelBkg" xmlns="http://www.w3.org/1999/xhtml"><span class="edgeLabel"><p>watch</p></span></div></foreignObject></g></g><g transform="translate(364.828125, 366.19074630737305)" class="edgeLabel"><g transform="translate(-52.390625, -12)" class="label"><foreignObject height="24" width="104.78125"><div style="display: table-cell; white-space: nowrap; line-height: 1.5; max-width: 200px; text-align: center;" class="labelBkg" xmlns="http://www.w3.org/1999/xhtml"><span class="edgeLabel"><p>create/update</p></span></div></foreignObject></g></g><g transform="translate(537.6328125, 838.940746307373)" class="edgeLabel"><g transform="translate(-58.421875, -24)" class="label"><foreignObject height="48" width="116.84375"><div style="display: table-cell; white-space: nowrap; line-height: 1.5; max-width: 200px; text-align: center;" class="labelBkg" xmlns="http://www.w3.org/1999/xhtml"><span class="edgeLabel"><p>create<br />when not preset</p></span></div></foreignObject></g></g><g transform="translate(679.7109375, 366.19074630737305)" class="edgeLabel"><g transform="translate(-16.8984375, -12)" class="label"><foreignObject height="24" width="33.796875"><div style="display: table-cell; white-space: nowrap; line-height: 1.5; max-width: 200px; text-align: center;" class="labelBkg" xmlns="http://www.w3.org/1999/xhtml"><span class="edgeLabel"><p>start</p></span></div></foreignObject></g></g><g transform="translate(979.15625, 591.190746307373)" class="edgeLabel"><g transform="translate(-21.6640625, -12)" class="label"><foreignObject height="24" width="43.328125"><div style="display: table-cell; white-space: nowrap; line-height: 1.5; max-width: 200px; text-align: center;" class="labelBkg" xmlns="http://www.w3.org/1999/xhtml"><span class="edgeLabel"><p>watch</p></span></div></foreignObject></g></g><g transform="translate(979.15625, 547.190746307373)" class="edgeLabel"><g transform="translate(-40.7734375, -12)" class="label"><foreignObject height="24" width="81.546875"><div style="display: table-cell; white-space: nowrap; line-height: 1.5; max-width: 200px; text-align: center;" class="labelBkg" xmlns="http://www.w3.org/1999/xhtml"><span class="edgeLabel"><p>get/update</p></span></div></foreignObject></g></g><g transform="translate(979.15625, 635.190746307373)" class="edgeLabel"><g transform="translate(-78.25, -12)" class="label"><foreignObject height="24" width="156.5"><div style="display: table-cell; white-space: nowrap; line-height: 1.5; max-width: 200px; text-align: center;" class="labelBkg" xmlns="http://www.w3.org/1999/xhtml"><span class="edgeLabel"><p>create/update/watch</p></span></div></foreignObject></g></g><g transform="translate(979.15625, 1134.440746307373)" class="edgeLabel"><g transform="translate(-11.5546875, -12)" class="label"><foreignObject height="24" width="23.109375"><div style="display: table-cell; white-space: nowrap; line-height: 1.5; max-width: 200px; text-align: center;" class="labelBkg" xmlns="http://www.w3.org/1999/xhtml"><span class="edgeLabel"><p>get</p></span></div></foreignObject></g></g><g transform="translate(979.15625, 1068.190746307373)" class="edgeLabel"><g transform="translate(-11.5546875, -12)" class="label"><foreignObject height="24" width="23.109375"><div style="display: table-cell; white-space: nowrap; line-height: 1.5; max-width: 200px; text-align: center;" class="labelBkg" xmlns="http://www.w3.org/1999/xhtml"><span class="edgeLabel"><p>get</p></span></div></foreignObject></g></g><g transform="translate(1203.6953125, 515.190746307373)" class="edgeLabel"><g transform="translate(-100, -36)" class="label"><foreignObject height="72" width="200"><div style="display: table; white-space: break-spaces; line-height: 1.5; max-width: 200px; text-align: center; width: 200px;" class="labelBkg" xmlns="http://www.w3.org/1999/xhtml"><span class="edgeLabel"><p>add SecurityContext<br />when profile binding is defined</p></span></div></foreignObject></g></g></g><g class="nodes"><g transform="translate(38.8984375, 819.440746307373)" id="flowchart-U-0" class="node default orange"><rect height="54" width="61.796875" y="-27" x="-30.8984375" ry="5" rx="5" style="fill:#f96 !important;stroke:#333 !important;stroke-width:4px !important" class="basic label-container"/><g transform="translate(-15.8984375, -12)" style="" class="label"><rect/><foreignObject height="24" width="31.796875"><div style="display: table-cell; white-space: nowrap; line-height: 1.5; max-width: 200px; text-align: center;" xmlns="http://www.w3.org/1999/xhtml"><span class="nodeLabel"><p>User</p></span></div></foreignObject></g></g><g transform="translate(1732.0234375, 212.44074630737305)" id="flowchart-FS1-1" class="node default"><path transform="translate(-45.9140625, -35.3814945593428)" style="" class="basic label-container" d="M0,10.587663039561864 a45.9140625,10.587663039561864 0,0,0 91.828125,0 a45.9140625,10.587663039561864 0,0,0 -91.828125,0 l0,49.58766303956186 a45.9140625,10.587663039561864 0,0,0 91.828125,0 l0,-49.58766303956186"/><g transform="translate(-38.4140625, -2)" style="" class="label"><rect/><foreignObject height="24" width="76.828125"><div style="display: table-cell; white-space: nowrap; line-height: 1.5; max-width: 200px; text-align: center;" xmlns="http://www.w3.org/1999/xhtml"><span class="nodeLabel"><p>FileSystem</p></span></div></foreignObject></g></g><g transform="translate(1516.8671875, 384.44074630737305)" id="flowchart-P1-2" class="node default purple"><rect height="54" width="85.671875" y="-27" x="-42.8359375" style="fill:#f9f !important;stroke:#333 !important;stroke-width:4px !important" class="basic label-container"/><g transform="translate(-12.8359375, -12)" style="" class="label"><rect/><foreignObject height="24" width="25.671875"><div style="display: table-cell; white-space: nowrap; line-height: 1.5; max-width: 200px; text-align: center;" xmlns="http://www.w3.org/1999/xhtml"><span class="nodeLabel"><p>Pod</p></span></div></foreignObject></g></g><g transform="translate(813.640625, 366.19074630737305)" id="flowchart-D1-3" class="node default green"><rect height="54" width="117.5625" y="-27" x="-58.78125" style="fill:#9f6 !important;stroke:#333 !important;stroke-width:2px !important" class="basic label-container"/><g transform="translate(-28.78125, -12)" style="" class="label"><rect/><foreignObject height="24" width="57.5625"><div style="display: table-cell; white-space: nowrap; line-height: 1.5; max-width: 200px; text-align: center;" xmlns="http://www.w3.org/1999/xhtml"><span class="nodeLabel"><p>Daemon</p></span></div></foreignObject></g></g><g transform="translate(1203.6953125, 121.19074630737305)" id="flowchart-R1-4" class="node default green"><rect height="54" width="156.59375" y="-27" x="-78.296875" style="fill:#9f6 !important;stroke:#333 !important;stroke-width:2px !important" class="basic label-container"/><g transform="translate(-48.296875, -12)" style="" class="label"><rect/><foreignObject height="24" width="96.59375"><div style="display: table-cell; white-space: nowrap; line-height: 1.5; max-width: 200px; text-align: center;" xmlns="http://www.w3.org/1999/xhtml"><span class="nodeLabel"><p>eBpfRecorder</p></span></div></foreignObject></g></g><g transform="translate(1203.6953125, 329.19074630737305)" id="flowchart-E1-5" class="node default green"><rect height="54" width="144.421875" y="-27" x="-72.2109375" style="fill:#9f6 !important;stroke:#333 !important;stroke-width:2px !important" class="basic label-container"/><g transform="translate(-42.2109375, -12)" style="" class="label"><rect/><foreignObject height="24" width="84.421875"><div style="display: table-cell; white-space: nowrap; line-height: 1.5; max-width: 200px; text-align: center;" xmlns="http://www.w3.org/1999/xhtml"><span class="nodeLabel"><p>LogEnricher</p></span></div></foreignObject></g></g><g transform="translate(1203.6953125, 225.19074630737305)" id="flowchart-M1-6" class="node default green"><rect height="54" width="111.609375" y="-27" x="-55.8046875" style="fill:#9f6 !important;stroke:#333 !important;stroke-width:2px !important" class="basic label-container"/><g transform="translate(-25.8046875, -12)" style="" class="label"><rect/><foreignObject height="24" width="51.609375"><div style="display: table-cell; white-space: nowrap; line-height: 1.5; max-width: 200px; text-align: center;" xmlns="http://www.w3.org/1999/xhtml"><span class="nodeLabel"><p>Metrics</p></span></div></foreignObject></g></g><g transform="translate(1203.6953125, 752.8814926147461)" id="flowchart-Recording-23" class="node default"><polygon transform="translate(-66.1328125,31.5)" class="label-container" points="-31.5,0 132.265625,0 163.765625,-63 0,-63"/><g transform="translate(-58.6328125, -24)" style="" class="label"><rect/><foreignObject height="48" width="117.265625"><div style="display: table-cell; white-space: nowrap; line-height: 1.5; max-width: 200px; text-align: center;" xmlns="http://www.w3.org/1999/xhtml"><span class="nodeLabel"><p>ProfileRecording<br /> CR</p></span></div></foreignObject></g></g><g transform="translate(1203.6953125, 900.940746307373)" id="flowchart-Config-24" class="node default"><polygon transform="translate(-37.9609375,19.5)" class="label-container" points="-19.5,0 75.921875,0 95.421875,-39 0,-39"/><g transform="translate(-30.4609375, -12)" style="" class="label"><rect/><foreignObject height="24" width="60.921875"><div style="display: table-cell; white-space: nowrap; line-height: 1.5; max-width: 200px; text-align: center;" xmlns="http://www.w3.org/1999/xhtml"><span class="nodeLabel"><p>SPOD CR</p></span></div></foreignObject></g></g><g transform="translate(1203.6953125, 1013.940746307373)" id="flowchart-Profile-25" class="node default"><polygon transform="translate(-77.7890625,43.5)" class="label-container" points="-43.5,0 155.578125,0 199.078125,-87 0,-87"/><g transform="translate(-70.2890625, -36)" style="" class="label"><rect/><foreignObject height="72" width="140.578125"><div style="display: table-cell; white-space: nowrap; line-height: 1.5; max-width: 200px; text-align: center;" xmlns="http://www.w3.org/1999/xhtml"><span class="nodeLabel"><p>SeccompProfile CR<br />SelinuxProfile CR <br /> ApparmorProfile CR</p></span></div></foreignObject></g></g><g transform="translate(1203.6953125, 1134.440746307373)" id="flowchart-Binding-26" class="node default"><rect height="54" width="183.21875" y="-27" x="-91.609375" style="" class="basic label-container"/><g transform="translate(-61.609375, -12)" style="" class="label"><rect/><foreignObject height="24" width="123.21875"><div style="display: table-cell; white-space: nowrap; line-height: 1.5; max-width: 200px; text-align: center;" xmlns="http://www.w3.org/1999/xhtml"><span class="nodeLabel"><p>ProfileBinding CR</p></span></div></foreignObject></g></g><g transform="translate(813.640625, 807.940746307373)" id="flowchart-W-27" class="node default green"><rect height="54" width="124.53125" y="-27" x="-62.265625" style="fill:#9f6 !important;stroke:#333 !important;stroke-width:2px !important" class="basic label-container"/><g transform="translate(-32.265625, -12)" style="" class="label"><rect/><foreignObject height="24" width="64.53125"><div style="display: table-cell; white-space: nowrap; line-height: 1.5; max-width: 200px; text-align: center;" xmlns="http://www.w3.org/1999/xhtml"><span class="nodeLabel"><p>Webhook</p></span></div></foreignObject></g></g><g transform="translate(227.4921875, 838.940746307373)" id="flowchart-M-28" class="node default green"><rect height="54" width="119.890625" y="-27" x="-59.9453125" style="fill:#9f6 !important;stroke:#333 !important;stroke-width:2px !important" class="basic label-container"/><g transform="translate(-29.9453125, -12)" style="" class="label"><rect/><foreignObject height="24" width="59.890625"><div style="display: table-cell; white-space: nowrap; line-height: 1.5; max-width: 200px; text-align: center;" xmlns="http://www.w3.org/1999/xhtml"><span class="nodeLabel"><p>Manager</p></span></div></foreignObject></g></g><g transform="translate(537.6328125, 366.19074630737305)" id="flowchart-D-29" class="node default green"><rect height="54" width="139.109375" y="-27" x="-69.5546875" style="fill:#9f6 !important;stroke:#333 !important;stroke-width:2px !important" class="basic label-container"/><g transform="translate(-39.5546875, -12)" style="" class="label"><rect/><foreignObject height="24" width="79.109375"><div style="display: table-cell; white-space: nowrap; line-height: 1.5; max-width: 200px; text-align: center;" xmlns="http://www.w3.org/1999/xhtml"><span class="nodeLabel"><p>Daemonset</p></span></div></foreignObject></g></g></g></g></g></svg>