<svg aria-roledescription="flowchart-v2" role="graphics-document document" viewBox="0 0 1034.703125 388" style="max-width: 1034.7px; background-color: white;" class="flowchart" xmlns:xlink="http://www.w3.org/1999/xlink" xmlns="http://www.w3.org/2000/svg" width="100%" id="my-svg"><style>#my-svg{font-family:"trebuchet ms",verdana,arial,sans-serif;font-size:16px;fill:#333;}#my-svg .error-icon{fill:#552222;}#my-svg .error-text{fill:#552222;stroke:#552222;}#my-svg .edge-thickness-normal{stroke-width:1px;}#my-svg .edge-thickness-thick{stroke-width:3.5px;}#my-svg .edge-pattern-solid{stroke-dasharray:0;}#my-svg .edge-thickness-invisible{stroke-width:0;fill:none;}#my-svg .edge-pattern-dashed{stroke-dasharray:3;}#my-svg .edge-pattern-dotted{stroke-dasharray:2;}#my-svg .marker{fill:#333333;stroke:#333333;}#my-svg .marker.cross{stroke:#333333;}#my-svg svg{font-family:"trebuchet ms",verdana,arial,sans-serif;font-size:16px;}#my-svg p{margin:0;}#my-svg .label{font-family:"trebuchet ms",verdana,arial,sans-serif;color:#333;}#my-svg .cluster-label text{fill:#333;}#my-svg .cluster-label span{color:#333;}#my-svg .cluster-label span p{background-color:transparent;}#my-svg .label text,#my-svg span{fill:#333;color:#333;}#my-svg .node rect,#my-svg .node circle,#my-svg .node ellipse,#my-svg .node polygon,#my-svg .node path{fill:#ECECFF;stroke:#9370DB;stroke-width:1px;}#my-svg .rough-node .label text,#my-svg .node .label text,#my-svg .image-shape .label,#my-svg .icon-shape .label{text-anchor:middle;}#my-svg .node .katex path{fill:#000;stroke:#000;stroke-width:1px;}#my-svg .rough-node .label,#my-svg .node .label,#my-svg .image-shape .label,#my-svg .icon-shape .label{text-align:center;}#my-svg .node.clickable{cursor:pointer;}#my-svg .root .anchor path{fill:#333333!important;stroke-width:0;stroke:#333333;}#my-svg .arrowheadPath{fill:#333333;}#my-svg .edgePath .path{stroke:#333333;stroke-width:2.0px;}#my-svg .flowchart-link{stroke:#333333;fill:none;}#my-svg .edgeLabel{background-color:rgba(232,232,232, 0.8);text-align:center;}#my-svg .edgeLabel p{background-color:rgba(232,232,232, 0.8);}#my-svg .edgeLabel rect{opacity:0.5;background-color:rgba(232,232,232, 0.8);fill:rgba(232,232,232, 0.8);}#my-svg .labelBkg{background-color:rgba(232, 232, 232, 0.5);}#my-svg .cluster rect{fill:#ffffde;stroke:#aaaa33;stroke-width:1px;}#my-svg .cluster text{fill:#333;}#my-svg .cluster span{color:#333;}#my-svg div.mermaidTooltip{position:absolute;text-align:center;max-width:200px;padding:2px;font-family:"trebuchet ms",verdana,arial,sans-serif;font-size:12px;background:hsl(80, 100%, 96.2745098039%);border:1px solid #aaaa33;border-radius:2px;pointer-events:none;z-index:100;}#my-svg .flowchartTitleText{text-anchor:middle;font-size:18px;fill:#333;}#my-svg rect.text{fill:none;stroke-width:0;}#my-svg .icon-shape,#my-svg .image-shape{background-color:rgba(232,232,232, 0.8);text-align:center;}#my-svg .icon-shape p,#my-svg .image-shape p{background-color:rgba(232,232,232, 0.8);padding:2px;}#my-svg .icon-shape rect,#my-svg .image-shape rect{opacity:0.5;background-color:rgba(232,232,232, 0.8);fill:rgba(232,232,232, 0.8);}#my-svg :root{--mermaid-font-family:"trebuchet ms",verdana,arial,sans-serif;}</style><g><marker orient="auto" markerHeight="8" markerWidth="8" markerUnits="userSpaceOnUse" refY="5" refX="5" viewBox="0 0 10 10" class="marker flowchart-v2" id="my-svg_flowchart-v2-pointEnd"><path style="stroke-width: 1; stroke-dasharray: 1, 0;" class="arrowMarkerPath" d="M 0 0 L 10 5 L 0 10 z"/></marker><marker orient="auto" markerHeight="8" markerWidth="8" markerUnits="userSpaceOnUse" refY="5" refX="4.5" viewBox="0 0 10 10" class="marker flowchart-v2" id="my-svg_flowchart-v2-pointStart"><path style="stroke-width: 1; stroke-dasharray: 1, 0;" class="arrowMarkerPath" d="M 0 5 L 10 10 L 10 0 z"/></marker><marker orient="auto" markerHeight="11" markerWidth="11" markerUnits="userSpaceOnUse" refY="5" refX="11" viewBox="0 0 10 10" class="marker flowchart-v2" id="my-svg_flowchart-v2-circleEnd"><circle style="stroke-width: 1; stroke-dasharray: 1, 0;" class="arrowMarkerPath" r="5" cy="5" cx="5"/></marker><marker orient="auto" markerHeight="11" markerWidth="11" markerUnits="userSpaceOnUse" refY="5" refX="-1" viewBox="0 0 10 10" class="marker flowchart-v2" id="my-svg_flowchart-v2-circleStart"><circle style="stroke-width: 1; stroke-dasharray: 1, 0;" class="arrowMarkerPath" r="5" cy="5" cx="5"/></marker><marker orient="auto" markerHeight="11" markerWidth="11" markerUnits="userSpaceOnUse" refY="5.2" refX="12" viewBox="0 0 11 11" class="marker cross flowchart-v2" id="my-svg_flowchart-v2-crossEnd"><path style="stroke-width: 2; stroke-dasharray: 1, 0;" class="arrowMarkerPath" d="M 1,1 l 9,9 M 10,1 l -9,9"/></marker><marker orient="auto" markerHeight="11" markerWidth="11" markerUnits="userSpaceOnUse" refY="5.2" refX="-1" viewBox="0 0 11 11" class="marker cross flowchart-v2" id="my-svg_flowchart-v2-crossStart"><path style="stroke-width: 2; stroke-dasharray: 1, 0;" class="arrowMarkerPath" d="M 1,1 l 9,9 M 10,1 l -9,9"/></marker><g class="root"><g class="clusters"><g data-look="classic" id="subGraph1" class="cluster"><rect height="372" width="249.078125" y="8" x="529.203125" style=""/><g transform="translate(591.59375, 8)" class="cluster-label"><foreignObject height="24" width="124.296875"><div style="display: table-cell; white-space: nowrap; line-height: 1.5; max-width: 200px; text-align: center;" xmlns="http://www.w3.org/1999/xhtml"><span class="nodeLabel"><p>Compute Plan dir</p></span></div></foreignObject></g></g><g data-look="classic" id="subGraph0" class="cluster"><rect height="332" width="199.078125" y="28" x="554.203125" style=""/><g transform="translate(626.359375, 28)" class="cluster-label"><foreignObject height="24" width="54.765625"><div style="display: table-cell; white-space: nowrap; line-height: 1.5; max-width: 200px; text-align: center;" xmlns="http://www.w3.org/1999/xhtml"><span class="nodeLabel"><p>Task dir</p></span></div></foreignObject></g></g></g><g class="edgePaths"><path marker-end="url(#my-svg_flowchart-v2-pointEnd)" style="" class="edge-thickness-normal edge-pattern-solid edge-thickness-normal edge-pattern-solid flowchart-link" id="L_A1_B_0" d="M153.719,38L167.141,38C180.563,38,207.406,38,236.923,57.791C266.44,77.581,298.63,117.163,314.725,136.953L330.82,156.744"/><path marker-end="url(#my-svg_flowchart-v2-pointEnd)" style="" class="edge-thickness-normal edge-pattern-solid edge-thickness-normal edge-pattern-solid flowchart-link" id="L_A3_B_1" d="M154.75,142L168,142C181.25,142,207.75,142,233.434,147.005C259.117,152.011,283.985,162.021,296.418,167.027L308.852,172.032"/><path marker-end="url(#my-svg_flowchart-v2-pointEnd)" style="" class="edge-thickness-normal edge-pattern-solid edge-thickness-normal edge-pattern-solid flowchart-link" id="L_A2_B_2" d="M155.938,246L168.99,246C182.042,246,208.146,246,233.632,240.995C259.117,235.989,283.985,225.979,296.418,220.973L308.852,215.968"/><path marker-end="url(#my-svg_flowchart-v2-pointEnd)" style="" class="edge-thickness-normal edge-pattern-solid edge-thickness-normal edge-pattern-solid flowchart-link" id="L_A4_B_3" d="M138.023,350L154.061,350C170.099,350,202.174,350,234.307,330.209C266.44,310.419,298.63,270.837,314.725,251.047L330.82,231.256"/><path marker-end="url(#my-svg_flowchart-v2-pointEnd)" style="" class="edge-thickness-normal edge-pattern-dotted edge-thickness-normal edge-pattern-solid flowchart-link" id="L_B_C1_4" d="M401.255,161.396L413.003,149.497C424.751,137.597,448.247,113.799,469.571,101.899C490.896,90,510.049,90,523.793,90C537.536,90,545.87,90,554.926,90C563.982,90,573.76,90,578.65,90L583.539,90"/><path marker-end="url(#my-svg_flowchart-v2-pointEnd)" style="" class="edge-thickness-normal edge-pattern-dotted edge-thickness-normal edge-pattern-solid flowchart-link" id="L_B_C2_5" d="M414.281,194L423.858,194C433.435,194,452.589,194,471.742,194C490.896,194,510.049,194,523.793,194C537.536,194,545.87,194,553.536,194C561.203,194,568.203,194,571.703,194L575.203,194"/><path marker-end="url(#my-svg_flowchart-v2-pointEnd)" style="" class="edge-thickness-normal edge-pattern-dotted edge-thickness-normal edge-pattern-solid flowchart-link" id="L_B_C3_6" d="M401.255,226.604L413.003,238.503C424.751,250.403,448.247,274.201,469.571,286.101C490.896,298,510.049,298,523.793,298C537.536,298,545.87,298,556.26,298C566.651,298,579.099,298,585.323,298L591.547,298"/><path marker-end="url(#my-svg_flowchart-v2-pointEnd)" style="" class="edge-thickness-normal edge-pattern-dotted edge-thickness-normal edge-pattern-solid flowchart-link" id="L_C1_D_7" d="M719.945,90L725.501,90C731.057,90,742.169,90,751.892,90C761.615,90,769.948,90,781.928,90C793.909,90,809.536,90,832.166,102.405C854.796,114.811,884.429,139.621,899.245,152.027L914.061,164.432"/><path marker-end="url(#my-svg_flowchart-v2-pointEnd)" style="" class="edge-thickness-normal edge-pattern-dotted edge-thickness-normal edge-pattern-solid flowchart-link" id="L_C2_D_8" d="M728.281,194L732.448,194C736.615,194,744.948,194,753.281,194C761.615,194,769.948,194,781.928,194C793.909,194,809.536,194,824.497,194C839.458,194,853.753,194,860.9,194L868.047,194"/><path marker-end="url(#my-svg_flowchart-v2-pointEnd)" style="" class="edge-thickness-normal edge-pattern-dotted edge-thickness-normal edge-pattern-solid flowchart-link" id="L_C3_D_9" d="M711.938,298L718.828,298C725.719,298,739.5,298,750.557,298C761.615,298,769.948,298,781.928,298C793.909,298,809.536,298,832.166,285.595C854.796,273.189,884.429,248.379,899.245,235.973L914.061,223.568"/></g><g class="edgeLabels"><g transform="translate(234.25, 38)" class="edgeLabel"><g transform="translate(-53.3125, -12)" class="label"><foreignObject height="24" width="106.625"><div style="display: table-cell; white-space: nowrap; line-height: 1.5; max-width: 200px; text-align: center;" class="labelBkg" xmlns="http://www.w3.org/1999/xhtml"><span class="edgeLabel"><p>Copy from disk</p></span></div></foreignObject></g></g><g transform="translate(234.25, 142)" class="edgeLabel"><g transform="translate(-53.3125, -12)" class="label"><foreignObject height="24" width="106.625"><div style="display: table-cell; white-space: nowrap; line-height: 1.5; max-width: 200px; text-align: center;" class="labelBkg" xmlns="http://www.w3.org/1999/xhtml"><span class="edgeLabel"><p>Copy from disk</p></span></div></foreignObject></g></g><g transform="translate(234.25, 246)" class="edgeLabel"><g transform="translate(-34.8359375, -12)" class="label"><foreignObject height="24" width="69.671875"><div style="display: table-cell; white-space: nowrap; line-height: 1.5; max-width: 200px; text-align: center;" class="labelBkg" xmlns="http://www.w3.org/1999/xhtml"><span class="edgeLabel"><p>Download</p></span></div></foreignObject></g></g><g transform="translate(234.25, 350)" class="edgeLabel"><g transform="translate(-34.8359375, -12)" class="label"><foreignObject height="24" width="69.671875"><div style="display: table-cell; white-space: nowrap; line-height: 1.5; max-width: 200px; text-align: center;" class="labelBkg" xmlns="http://www.w3.org/1999/xhtml"><span class="edgeLabel"><p>Download</p></span></div></foreignObject></g></g><g transform="translate(471.7421875, 90)" class="edgeLabel"><g transform="translate(-32.4609375, -12)" class="label"><foreignObject height="24" width="64.921875"><div style="display: table-cell; white-space: nowrap; line-height: 1.5; max-width: 200px; text-align: center;" class="labelBkg" xmlns="http://www.w3.org/1999/xhtml"><span class="edgeLabel"><p>Hard link</p></span></div></foreignObject></g></g><g transform="translate(471.7421875, 194)" class="edgeLabel"><g transform="translate(-32.4609375, -12)" class="label"><foreignObject height="24" width="64.921875"><div style="display: table-cell; white-space: nowrap; line-height: 1.5; max-width: 200px; text-align: center;" class="labelBkg" xmlns="http://www.w3.org/1999/xhtml"><span class="edgeLabel"><p>Hard link</p></span></div></foreignObject></g></g><g transform="translate(471.7421875, 298)" class="edgeLabel"><g transform="translate(-32.4609375, -12)" class="label"><foreignObject height="24" width="64.921875"><div style="display: table-cell; white-space: nowrap; line-height: 1.5; max-width: 200px; text-align: center;" class="labelBkg" xmlns="http://www.w3.org/1999/xhtml"><span class="edgeLabel"><p>Hard link</p></span></div></foreignObject></g></g><g transform="translate(825.1640625, 90)" class="edgeLabel"><g transform="translate(-21.8828125, -12)" class="label"><foreignObject height="24" width="43.765625"><div style="display: table-cell; white-space: nowrap; line-height: 1.5; max-width: 200px; text-align: center;" class="labelBkg" xmlns="http://www.w3.org/1999/xhtml"><span class="edgeLabel"><p>Mount</p></span></div></foreignObject></g></g><g transform="translate(825.1640625, 194)" class="edgeLabel"><g transform="translate(-21.8828125, -12)" class="label"><foreignObject height="24" width="43.765625"><div style="display: table-cell; white-space: nowrap; line-height: 1.5; max-width: 200px; text-align: center;" class="labelBkg" xmlns="http://www.w3.org/1999/xhtml"><span class="edgeLabel"><p>Mount</p></span></div></foreignObject></g></g><g transform="translate(825.1640625, 298)" class="edgeLabel"><g transform="translate(-21.8828125, -12)" class="label"><foreignObject height="24" width="43.765625"><div style="display: table-cell; white-space: nowrap; line-height: 1.5; max-width: 200px; text-align: center;" class="labelBkg" xmlns="http://www.w3.org/1999/xhtml"><span class="edgeLabel"><p>Mount</p></span></div></foreignObject></g></g></g><g class="nodes"><g transform="translate(81.96875, 38)" id="flowchart-A1-0" class="node default"><rect height="54" width="143.5" y="-27" x="-71.75" style="" class="basic label-container"/><g transform="translate(-41.75, -12)" style="" class="label"><rect/><foreignObject height="24" width="83.5"><div style="display: table-cell; white-space: nowrap; line-height: 1.5; max-width: 200px; text-align: center;" xmlns="http://www.w3.org/1999/xhtml"><span class="nodeLabel"><p>Datasample</p></span></div></foreignObject></g></g><g transform="translate(363.421875, 194)" id="flowchart-B-1" class="node default"><path transform="translate(-50.859375, -36.32460372157133)" style="" class="basic label-container" d="M0,11.216402481047554 a50.859375,11.216402481047554 0,0,0 101.71875,0 a50.859375,11.216402481047554 0,0,0 -101.71875,0 l0,50.21640248104755 a50.859375,11.216402481047554 0,0,0 101.71875,0 l0,-50.21640248104755"/><g transform="translate(-43.359375, -2)" style="" class="label"><rect/><foreignObject height="24" width="86.71875"><div style="display: table-cell; white-space: nowrap; line-height: 1.5; max-width: 200px; text-align: center;" xmlns="http://www.w3.org/1999/xhtml"><span class="nodeLabel"><p>Asset buffer</p></span></div></foreignObject></g></g><g transform="translate(81.96875, 142)" id="flowchart-A3-2" class="node default"><rect height="54" width="145.5625" y="-27" x="-72.78125" style="" class="basic label-container"/><g transform="translate(-42.78125, -12)" style="" class="label"><rect/><foreignObject height="24" width="85.5625"><div style="display: table-cell; white-space: nowrap; line-height: 1.5; max-width: 200px; text-align: center;" xmlns="http://www.w3.org/1999/xhtml"><span class="nodeLabel"><p>Head model</p></span></div></foreignObject></g></g><g transform="translate(81.96875, 246)" id="flowchart-A2-4" class="node default"><rect height="54" width="147.9375" y="-27" x="-73.96875" style="" class="basic label-container"/><g transform="translate(-43.96875, -12)" style="" class="label"><rect/><foreignObject height="24" width="87.9375"><div style="display: table-cell; white-space: nowrap; line-height: 1.5; max-width: 200px; text-align: center;" xmlns="http://www.w3.org/1999/xhtml"><span class="nodeLabel"><p>Other Model</p></span></div></foreignObject></g></g><g transform="translate(81.96875, 350)" id="flowchart-A4-6" class="node default"><rect height="54" width="112.109375" y="-27" x="-56.0546875" style="" class="basic label-container"/><g transform="translate(-26.0546875, -12)" style="" class="label"><rect/><foreignObject height="24" width="52.109375"><div style="display: table-cell; white-space: nowrap; line-height: 1.5; max-width: 200px; text-align: center;" xmlns="http://www.w3.org/1999/xhtml"><span class="nodeLabel"><p>Opener</p></span></div></foreignObject></g></g><g transform="translate(653.7421875, 90)" id="flowchart-C1-8" class="node default"><rect height="54" width="132.40625" y="-27" x="-66.203125" style="" class="basic label-container"/><g transform="translate(-36.203125, -12)" style="" class="label"><rect/><foreignObject height="24" width="72.40625"><div style="display: table-cell; white-space: nowrap; line-height: 1.5; max-width: 200px; text-align: center;" xmlns="http://www.w3.org/1999/xhtml"><span class="nodeLabel"><p>in_models</p></span></div></foreignObject></g></g><g transform="translate(653.7421875, 194)" id="flowchart-C2-9" class="node default"><rect height="54" width="149.078125" y="-27" x="-74.5390625" style="" class="basic label-container"/><g transform="translate(-44.5390625, -12)" style="" class="label"><rect/><foreignObject height="24" width="89.078125"><div style="display: table-cell; white-space: nowrap; line-height: 1.5; max-width: 200px; text-align: center;" xmlns="http://www.w3.org/1999/xhtml"><span class="nodeLabel"><p>datasamples</p></span></div></foreignObject></g></g><g transform="translate(653.7421875, 298)" id="flowchart-C3-10" class="node default"><rect height="54" width="116.390625" y="-27" x="-58.1953125" style="" class="basic label-container"/><g transform="translate(-28.1953125, -12)" style="" class="label"><rect/><foreignObject height="24" width="56.390625"><div style="display: table-cell; white-space: nowrap; line-height: 1.5; max-width: 200px; text-align: center;" xmlns="http://www.w3.org/1999/xhtml"><span class="nodeLabel"><p>openers</p></span></div></foreignObject></g></g><g transform="translate(949.375, 194)" id="flowchart-D-17" class="node default"><rect height="54" width="154.65625" y="-27" x="-77.328125" style="" class="basic label-container"/><g transform="translate(-47.328125, -12)" style="" class="label"><rect/><foreignObject height="24" width="94.65625"><div style="display: table-cell; white-space: nowrap; line-height: 1.5; max-width: 200px; text-align: center;" xmlns="http://www.w3.org/1999/xhtml"><span class="nodeLabel"><p>Compute Pod</p></span></div></foreignObject></g></g></g></g></g></svg>