<svg aria-roledescription="er" role="graphics-document document" viewBox="0 -62 497.671875 660.3671875" style="max-width: 497.672px; background-color: white;" xmlns:xlink="http://www.w3.org/1999/xlink" xmlns="http://www.w3.org/2000/svg" width="100%" id="my-svg"><style>#my-svg{font-family:"trebuchet ms",verdana,arial,sans-serif;font-size:16px;fill:#333;}#my-svg .error-icon{fill:#552222;}#my-svg .error-text{fill:#552222;stroke:#552222;}#my-svg .edge-thickness-normal{stroke-width:1px;}#my-svg .edge-thickness-thick{stroke-width:3.5px;}#my-svg .edge-pattern-solid{stroke-dasharray:0;}#my-svg .edge-thickness-invisible{stroke-width:0;fill:none;}#my-svg .edge-pattern-dashed{stroke-dasharray:3;}#my-svg .edge-pattern-dotted{stroke-dasharray:2;}#my-svg .marker{fill:#333333;stroke:#333333;}#my-svg .marker.cross{stroke:#333333;}#my-svg svg{font-family:"trebuchet ms",verdana,arial,sans-serif;font-size:16px;}#my-svg p{margin:0;}#my-svg .entityBox{fill:#ECECFF;stroke:#9370DB;}#my-svg .attributeBoxOdd{fill:#ffffff;stroke:#9370DB;}#my-svg .attributeBoxEven{fill:#f2f2f2;stroke:#9370DB;}#my-svg .relationshipLabelBox{fill:hsl(80, 100%, 96.2745098039%);opacity:0.7;background-color:hsl(80, 100%, 96.2745098039%);}#my-svg .relationshipLabelBox rect{opacity:0.5;}#my-svg .relationshipLine{stroke:#333333;}#my-svg .entityTitleText{text-anchor:middle;font-size:18px;fill:#333;}#my-svg #MD_PARENT_START{fill:#f5f5f5!important;stroke:#333333!important;stroke-width:1;}#my-svg #MD_PARENT_END{fill:#f5f5f5!important;stroke:#333333!important;stroke-width:1;}#my-svg :root{--mermaid-font-family:"trebuchet ms",verdana,arial,sans-serif;}</style><g/><defs><marker orient="auto" markerHeight="240" markerWidth="190" refY="7" refX="0" id="MD_PARENT_START"><path d="M 18,7 L9,13 L1,7 L9,1 Z"/></marker></defs><defs><marker orient="auto" markerHeight="28" markerWidth="20" refY="7" refX="19" id="MD_PARENT_END"><path d="M 18,7 L9,13 L1,7 L9,1 Z"/></marker></defs><defs><marker orient="auto" markerHeight="18" markerWidth="18" refY="9" refX="0" id="ONLY_ONE_START"><path d="M9,0 L9,18 M15,0 L15,18" fill="none" stroke="gray"/></marker></defs><defs><marker orient="auto" markerHeight="18" markerWidth="18" refY="9" refX="18" id="ONLY_ONE_END"><path d="M3,0 L3,18 M9,0 L9,18" fill="none" stroke="gray"/></marker></defs><defs><marker orient="auto" markerHeight="18" markerWidth="30" refY="9" refX="0" id="ZERO_OR_ONE_START"><circle r="6" cy="9" cx="21" fill="white" stroke="gray"/><path d="M9,0 L9,18" fill="none" stroke="gray"/></marker></defs><defs><marker orient="auto" markerHeight="18" markerWidth="30" refY="9" refX="30" id="ZERO_OR_ONE_END"><circle r="6" cy="9" cx="9" fill="white" stroke="gray"/><path d="M21,0 L21,18" fill="none" stroke="gray"/></marker></defs><defs><marker orient="auto" markerHeight="36" markerWidth="45" refY="18" refX="18" id="ONE_OR_MORE_START"><path d="M0,18 Q 18,0 36,18 Q 18,36 0,18 M42,9 L42,27" fill="none" stroke="gray"/></marker></defs><defs><marker orient="auto" markerHeight="36" markerWidth="45" refY="18" refX="27" id="ONE_OR_MORE_END"><path d="M3,9 L3,27 M9,18 Q27,0 45,18 Q27,36 9,18" fill="none" stroke="gray"/></marker></defs><defs><marker orient="auto" markerHeight="36" markerWidth="57" refY="18" refX="18" id="ZERO_OR_MORE_START"><circle r="6" cy="18" cx="48" fill="white" stroke="gray"/><path d="M0,18 Q18,0 36,18 Q18,36 0,18" fill="none" stroke="gray"/></marker></defs><defs><marker orient="auto" markerHeight="36" markerWidth="57" refY="18" refX="39" id="ZERO_OR_MORE_END"><circle r="6" cy="18" cx="9" fill="white" stroke="gray"/><path d="M21,18 Q39,0 57,18 Q39,36 21,18" fill="none" stroke="gray"/></marker></defs><path style="stroke: gray; fill: none;" marker-start="url(#ZERO_OR_MORE_START)" marker-end="url(#ONLY_ONE_END)" d="M91.141,388.367L91.141,396.701C91.141,405.034,91.141,421.701,91.141,438.367C91.141,455.034,91.141,471.701,91.141,480.034L91.141,488.367" class="er relationshipLine"/><path style="stroke: gray; fill: none;" marker-start="url(#ZERO_OR_MORE_START)" marker-end="url(#ZERO_OR_MORE_END)" d="M93.721,110.184L84.958,118.517C76.194,126.85,58.668,143.517,52.9,160.184C47.132,176.85,53.123,193.517,56.119,201.85L59.114,210.184" class="er relationshipLine"/><path style="stroke: gray; fill: none;" marker-start="url(#ZERO_OR_ONE_START)" marker-end="url(#ONLY_ONE_END)" d="M206.391,104.456L221.786,113.744C237.182,123.032,267.974,141.608,294.068,164.721C320.161,187.835,341.557,215.486,352.255,229.312L362.953,243.138" class="er relationshipLine"/><path style="stroke: gray; fill: none;" marker-start="url(#ONE_OR_MORE_START)" marker-end="url(#ZERO_OR_MORE_END)" d="M306.391,95.256L288.453,106.077C270.516,116.898,234.641,138.541,210.255,157.696C185.869,176.85,172.973,193.517,166.525,201.85L160.077,210.184" class="er relationshipLine"/><path style="stroke: gray; fill: none;" marker-start="url(#ZERO_OR_ONE_START)" marker-end="url(#ONLY_ONE_END)" d="M395.826,102.592L405.92,112.19C416.014,121.789,436.202,140.986,441.327,164.411C446.451,187.835,436.511,215.486,431.541,229.312L426.571,243.138" class="er relationshipLine"/><g transform="translate(20,210.18359375 )" id="entity-EVENT-12434316-4a87-5800-981a-68e9670d1fb3"><rect height="178.18359375" width="142.28125" y="0" x="0" class="er entityBox"/><text style="dominant-baseline: middle; text-anchor: middle; font-size: 12px;" transform="translate(71.140625,12)" y="0" x="0" id="text-entity-EVENT-12434316-4a87-5800-981a-68e9670d1fb3" class="er entityLabel">EVENT</text><rect height="22" width="30.65625" y="24" x="0" class="er attributeBoxOdd"/><text style="dominant-baseline: middle; font-size: 10.2px;" transform="translate(5,35)" y="0" x="0" id="text-entity-EVENT-12434316-4a87-5800-981a-68e9670d1fb3-attr-1-type" class="er entityLabel">text</text><rect height="22" width="75.25" y="24" x="30.65625" class="er attributeBoxOdd"/><text style="dominant-baseline: middle; font-size: 10.2px;" transform="translate(35.65625,35)" y="0" x="0" id="text-entity-EVENT-12434316-4a87-5800-981a-68e9670d1fb3-attr-1-name" class="er entityLabel">name</text><rect height="22" width="36.375" y="24" x="105.90625" class="er attributeBoxOdd"/><text style="dominant-baseline: middle; font-size: 10.2px;" transform="translate(110.90625,35)" y="0" x="0" id="text-entity-EVENT-12434316-4a87-5800-981a-68e9670d1fb3-attr-1-comment" class="er entityLabel"/><rect height="22.091796875" width="30.65625" y="46" x="0" class="er attributeBoxEven"/><text style="dominant-baseline: middle; font-size: 10.2px;" transform="translate(5,57.0458984375)" y="0" x="0" id="text-entity-EVENT-12434316-4a87-5800-981a-68e9670d1fb3-attr-2-type" class="er entityLabel">text</text><rect height="22.091796875" width="75.25" y="46" x="30.65625" class="er attributeBoxEven"/><text style="dominant-baseline: middle; font-size: 10.2px;" transform="translate(35.65625,57.0458984375)" y="0" x="0" id="text-entity-EVENT-12434316-4a87-5800-981a-68e9670d1fb3-attr-2-name" class="er entityLabel">description</text><rect height="22.091796875" width="36.375" y="46" x="105.90625" class="er attributeBoxEven"/><text style="dominant-baseline: middle; font-size: 10.2px;" transform="translate(110.90625,57.0458984375)" y="0" x="0" id="text-entity-EVENT-12434316-4a87-5800-981a-68e9670d1fb3-attr-2-comment" class="er entityLabel"/><rect height="22.091796875" width="30.65625" y="68.091796875" x="0" class="er attributeBoxOdd"/><text style="dominant-baseline: middle; font-size: 10.2px;" transform="translate(5,79.1376953125)" y="0" x="0" id="text-entity-EVENT-12434316-4a87-5800-981a-68e9670d1fb3-attr-3-type" class="er entityLabel">text</text><rect height="22.091796875" width="75.25" y="68.091796875" x="30.65625" class="er attributeBoxOdd"/><text style="dominant-baseline: middle; font-size: 10.2px;" transform="translate(35.65625,79.1376953125)" y="0" x="0" id="text-entity-EVENT-12434316-4a87-5800-981a-68e9670d1fb3-attr-3-name" class="er entityLabel">country</text><rect height="22.091796875" width="36.375" y="68.091796875" x="105.90625" class="er attributeBoxOdd"/><text style="dominant-baseline: middle; font-size: 10.2px;" transform="translate(110.90625,79.1376953125)" y="0" x="0" id="text-entity-EVENT-12434316-4a87-5800-981a-68e9670d1fb3-attr-3-comment" class="er entityLabel"/><rect height="22" width="30.65625" y="90.18359375" x="0" class="er attributeBoxEven"/><text style="dominant-baseline: middle; font-size: 10.2px;" transform="translate(5,101.18359375)" y="0" x="0" id="text-entity-EVENT-12434316-4a87-5800-981a-68e9670d1fb3-attr-4-type" class="er entityLabel">int</text><rect height="22" width="75.25" y="90.18359375" x="30.65625" class="er attributeBoxEven"/><text style="dominant-baseline: middle; font-size: 10.2px;" transform="translate(35.65625,101.18359375)" y="0" x="0" id="text-entity-EVENT-12434316-4a87-5800-981a-68e9670d1fb3-attr-4-name" class="er entityLabel">stars</text><rect height="22" width="36.375" y="90.18359375" x="105.90625" class="er attributeBoxEven"/><text style="dominant-baseline: middle; font-size: 10.2px;" transform="translate(110.90625,101.18359375)" y="0" x="0" id="text-entity-EVENT-12434316-4a87-5800-981a-68e9670d1fb3-attr-4-comment" class="er entityLabel">1 to 4</text><rect height="22" width="30.65625" y="112.18359375" x="0" class="er attributeBoxOdd"/><text style="dominant-baseline: middle; font-size: 10.2px;" transform="translate(5,123.18359375)" y="0" x="0" id="text-entity-EVENT-12434316-4a87-5800-981a-68e9670d1fb3-attr-5-type" class="er entityLabel">date</text><rect height="22" width="75.25" y="112.18359375" x="30.65625" class="er attributeBoxOdd"/><text style="dominant-baseline: middle; font-size: 10.2px;" transform="translate(35.65625,123.18359375)" y="0" x="0" id="text-entity-EVENT-12434316-4a87-5800-981a-68e9670d1fb3-attr-5-name" class="er entityLabel">start_date</text><rect height="22" width="36.375" y="112.18359375" x="105.90625" class="er attributeBoxOdd"/><text style="dominant-baseline: middle; font-size: 10.2px;" transform="translate(110.90625,123.18359375)" y="0" x="0" id="text-entity-EVENT-12434316-4a87-5800-981a-68e9670d1fb3-attr-5-comment" class="er entityLabel"/><rect height="22" width="30.65625" y="134.18359375" x="0" class="er attributeBoxEven"/><text style="dominant-baseline: middle; font-size: 10.2px;" transform="translate(5,145.18359375)" y="0" x="0" id="text-entity-EVENT-12434316-4a87-5800-981a-68e9670d1fb3-attr-6-type" class="er entityLabel">date</text><rect height="22" width="75.25" y="134.18359375" x="30.65625" class="er attributeBoxEven"/><text style="dominant-baseline: middle; font-size: 10.2px;" transform="translate(35.65625,145.18359375)" y="0" x="0" id="text-entity-EVENT-12434316-4a87-5800-981a-68e9670d1fb3-attr-6-name" class="er entityLabel">end_date</text><rect height="22" width="36.375" y="134.18359375" x="105.90625" class="er attributeBoxEven"/><text style="dominant-baseline: middle; font-size: 10.2px;" transform="translate(110.90625,145.18359375)" y="0" x="0" id="text-entity-EVENT-12434316-4a87-5800-981a-68e9670d1fb3-attr-6-comment" class="er entityLabel"/><rect height="22" width="30.65625" y="156.18359375" x="0" class="er attributeBoxOdd"/><text style="dominant-baseline: middle; font-size: 10.2px;" transform="translate(5,167.18359375)" y="0" x="0" id="text-entity-EVENT-12434316-4a87-5800-981a-68e9670d1fb3-attr-7-type" class="er entityLabel">text</text><rect height="22" width="75.25" y="156.18359375" x="30.65625" class="er attributeBoxOdd"/><text style="dominant-baseline: middle; font-size: 10.2px;" transform="translate(35.65625,167.18359375)" y="0" x="0" id="text-entity-EVENT-12434316-4a87-5800-981a-68e9670d1fb3-attr-7-name" class="er entityLabel">contact_email</text><rect height="22" width="36.375" y="156.18359375" x="105.90625" class="er attributeBoxOdd"/><text style="dominant-baseline: middle; font-size: 10.2px;" transform="translate(110.90625,167.18359375)" y="0" x="0" id="text-entity-EVENT-12434316-4a87-5800-981a-68e9670d1fb3-attr-7-comment" class="er entityLabel"/></g><g transform="translate(39.1328125,488.3671875 )" id="entity-VENUE-4b9301ab-73c0-5f41-b2c2-2f413c92ad96"><rect height="90" width="104.015625" y="0" x="0" class="er entityBox"/><text style="dominant-baseline: middle; text-anchor: middle; font-size: 12px;" transform="translate(52.0078125,12)" y="0" x="0" id="text-entity-VENUE-4b9301ab-73c0-5f41-b2c2-2f413c92ad96" class="er entityLabel">VENUE</text><rect height="22" width="28.765625" y="24" x="0" class="er attributeBoxOdd"/><text style="dominant-baseline: middle; font-size: 10.2px;" transform="translate(5,35)" y="0" x="0" id="text-entity-VENUE-4b9301ab-73c0-5f41-b2c2-2f413c92ad96-attr-1-type" class="er entityLabel">text</text><rect height="22" width="75.25" y="24" x="28.765625" class="er attributeBoxOdd"/><text style="dominant-baseline: middle; font-size: 10.2px;" transform="translate(33.765625,35)" y="0" x="0" id="text-entity-VENUE-4b9301ab-73c0-5f41-b2c2-2f413c92ad96-attr-1-name" class="er entityLabel">name</text><rect height="22" width="28.765625" y="46" x="0" class="er attributeBoxEven"/><text style="dominant-baseline: middle; font-size: 10.2px;" transform="translate(5,57)" y="0" x="0" id="text-entity-VENUE-4b9301ab-73c0-5f41-b2c2-2f413c92ad96-attr-2-type" class="er entityLabel">text</text><rect height="22" width="75.25" y="46" x="28.765625" class="er attributeBoxEven"/><text style="dominant-baseline: middle; font-size: 10.2px;" transform="translate(33.765625,57)" y="0" x="0" id="text-entity-VENUE-4b9301ab-73c0-5f41-b2c2-2f413c92ad96-attr-2-name" class="er entityLabel">address</text><rect height="22" width="28.765625" y="68" x="0" class="er attributeBoxOdd"/><text style="dominant-baseline: middle; font-size: 10.2px;" transform="translate(5,79)" y="0" x="0" id="text-entity-VENUE-4b9301ab-73c0-5f41-b2c2-2f413c92ad96-attr-3-type" class="er entityLabel">text</text><rect height="22" width="75.25" y="68" x="28.765625" class="er attributeBoxOdd"/><text style="dominant-baseline: middle; font-size: 10.2px;" transform="translate(33.765625,79)" y="0" x="0" id="text-entity-VENUE-4b9301ab-73c0-5f41-b2c2-2f413c92ad96-attr-3-name" class="er entityLabel">contact_email</text></g><g transform="translate(75.890625,20 )" id="entity-COMPETITOR-cea53f97-9775-59c8-aa36-084c7041798a"><rect height="90.18359375" width="130.5" y="0" x="0" class="er entityBox"/><text style="dominant-baseline: middle; text-anchor: middle; font-size: 12px;" transform="translate(65.25,12)" y="0" x="0" id="text-entity-COMPETITOR-cea53f97-9775-59c8-aa36-084c7041798a" class="er entityLabel">COMPETITOR</text><rect height="22.091796875" width="30.65625" y="24" x="0" class="er attributeBoxOdd"/><text style="dominant-baseline: middle; font-size: 10.2px;" transform="translate(5,35.0458984375)" y="0" x="0" id="text-entity-COMPETITOR-cea53f97-9775-59c8-aa36-084c7041798a-attr-1-type" class="er entityLabel">text</text><rect height="22.091796875" width="99.84375" y="24" x="30.65625" class="er attributeBoxOdd"/><text style="dominant-baseline: middle; font-size: 10.2px;" transform="translate(35.65625,35.0458984375)" y="0" x="0" id="text-entity-COMPETITOR-cea53f97-9775-59c8-aa36-084c7041798a-attr-1-name" class="er entityLabel">nationality</text><rect height="22" width="30.65625" y="46.091796875" x="0" class="er attributeBoxEven"/><text style="dominant-baseline: middle; font-size: 10.2px;" transform="translate(5,57.091796875)" y="0" x="0" id="text-entity-COMPETITOR-cea53f97-9775-59c8-aa36-084c7041798a-attr-2-type" class="er entityLabel">date</text><rect height="22" width="99.84375" y="46.091796875" x="30.65625" class="er attributeBoxEven"/><text style="dominant-baseline: middle; font-size: 10.2px;" transform="translate(35.65625,57.091796875)" y="0" x="0" id="text-entity-COMPETITOR-cea53f97-9775-59c8-aa36-084c7041798a-attr-2-name" class="er entityLabel">date_of_birth</text><rect height="22.091796875" width="30.65625" y="68.091796875" x="0" class="er attributeBoxOdd"/><text style="dominant-baseline: middle; font-size: 10.2px;" transform="translate(5,79.1376953125)" y="0" x="0" id="text-entity-COMPETITOR-cea53f97-9775-59c8-aa36-084c7041798a-attr-3-type" class="er entityLabel">text</text><rect height="22.091796875" width="99.84375" y="68.091796875" x="30.65625" class="er attributeBoxOdd"/><text style="dominant-baseline: middle; font-size: 10.2px;" transform="translate(35.65625,79.1376953125)" y="0" x="0" id="text-entity-COMPETITOR-cea53f97-9775-59c8-aa36-084c7041798a-attr-3-name" class="er entityLabel">emergency_contact</text></g><g transform="translate(335.109375,243.1376953125 )" id="entity-USER-6e7e2962-0c6f-577d-a7fd-2ce3a0cfd2c8"><rect height="112.27539157867432" width="142.5625" y="0" x="0" class="er entityBox"/><text style="dominant-baseline: middle; text-anchor: middle; font-size: 12px;" transform="translate(71.28125,12)" y="0" x="0" id="text-entity-USER-6e7e2962-0c6f-577d-a7fd-2ce3a0cfd2c8" class="er entityLabel">USER</text><rect height="22" width="28.765625" y="24" x="0" class="er attributeBoxOdd"/><text style="dominant-baseline: middle; font-size: 10.2px;" transform="translate(5,35)" y="0" x="0" id="text-entity-USER-6e7e2962-0c6f-577d-a7fd-2ce3a0cfd2c8-attr-1-type" class="er entityLabel">text</text><rect height="22" width="68.859375" y="24" x="28.765625" class="er attributeBoxOdd"/><text style="dominant-baseline: middle; font-size: 10.2px;" transform="translate(33.765625,35)" y="0" x="0" id="text-entity-USER-6e7e2962-0c6f-577d-a7fd-2ce3a0cfd2c8-attr-1-name" class="er entityLabel">email</text><rect height="22" width="44.9375" y="24" x="97.625" class="er attributeBoxOdd"/><text style="dominant-baseline: middle; font-size: 10.2px;" transform="translate(102.625,35)" y="0" x="0" id="text-entity-USER-6e7e2962-0c6f-577d-a7fd-2ce3a0cfd2c8-attr-1-comment" class="er entityLabel">UNIQUE</text><rect height="22.091796875" width="28.765625" y="46" x="0" class="er attributeBoxEven"/><text style="dominant-baseline: middle; font-size: 10.2px;" transform="translate(5,57.0458984375)" y="0" x="0" id="text-entity-USER-6e7e2962-0c6f-577d-a7fd-2ce3a0cfd2c8-attr-2-type" class="er entityLabel">text</text><rect height="22.091796875" width="68.859375" y="46" x="28.765625" class="er attributeBoxEven"/><text style="dominant-baseline: middle; font-size: 10.2px;" transform="translate(33.765625,57.0458984375)" y="0" x="0" id="text-entity-USER-6e7e2962-0c6f-577d-a7fd-2ce3a0cfd2c8-attr-2-name" class="er entityLabel">family_name</text><rect height="22.091796875" width="44.9375" y="46" x="97.625" class="er attributeBoxEven"/><text style="dominant-baseline: middle; font-size: 10.2px;" transform="translate(102.625,57.0458984375)" y="0" x="0" id="text-entity-USER-6e7e2962-0c6f-577d-a7fd-2ce3a0cfd2c8-attr-2-comment" class="er entityLabel"/><rect height="22.091797828674316" width="28.765625" y="68.091796875" x="0" class="er attributeBoxOdd"/><text style="dominant-baseline: middle; font-size: 10.2px;" transform="translate(5,79.13769578933716)" y="0" x="0" id="text-entity-USER-6e7e2962-0c6f-577d-a7fd-2ce3a0cfd2c8-attr-3-type" class="er entityLabel">text</text><rect height="22.091797828674316" width="68.859375" y="68.091796875" x="28.765625" class="er attributeBoxOdd"/><text style="dominant-baseline: middle; font-size: 10.2px;" transform="translate(33.765625,79.13769578933716)" y="0" x="0" id="text-entity-USER-6e7e2962-0c6f-577d-a7fd-2ce3a0cfd2c8-attr-3-name" class="er entityLabel">given_names</text><rect height="22.091797828674316" width="44.9375" y="68.091796875" x="97.625" class="er attributeBoxOdd"/><text style="dominant-baseline: middle; font-size: 10.2px;" transform="translate(102.625,79.13769578933716)" y="0" x="0" id="text-entity-USER-6e7e2962-0c6f-577d-a7fd-2ce3a0cfd2c8-attr-3-comment" class="er entityLabel"/><rect height="22.091796875" width="28.765625" y="90.18359470367432" x="0" class="er attributeBoxEven"/><text style="dominant-baseline: middle; font-size: 10.2px;" transform="translate(5,101.22949314117432)" y="0" x="0" id="text-entity-USER-6e7e2962-0c6f-577d-a7fd-2ce3a0cfd2c8-attr-4-type" class="er entityLabel">text</text><rect height="22.091796875" width="68.859375" y="90.18359470367432" x="28.765625" class="er attributeBoxEven"/><text style="dominant-baseline: middle; font-size: 10.2px;" transform="translate(33.765625,101.22949314117432)" y="0" x="0" id="text-entity-USER-6e7e2962-0c6f-577d-a7fd-2ce3a0cfd2c8-attr-4-name" class="er entityLabel">password</text><rect height="22.091796875" width="44.9375" y="90.18359470367432" x="97.625" class="er attributeBoxEven"/><text style="dominant-baseline: middle; font-size: 10.2px;" transform="translate(102.625,101.22949314117432)" y="0" x="0" id="text-entity-USER-6e7e2962-0c6f-577d-a7fd-2ce3a0cfd2c8-attr-4-comment" class="er entityLabel"/></g><g transform="translate(306.390625,27.591796875 )" id="entity-ORGANISER-cd469dfb-c04b-5570-900c-ec2445b10312"><rect height="75" width="100" y="0" x="0" class="er entityBox"/><text style="dominant-baseline: middle; text-anchor: middle; font-size: 12px;" transform="translate(50,37.5)" y="0" x="0" id="text-entity-ORGANISER-cd469dfb-c04b-5570-900c-ec2445b10312" class="er entityLabel">ORGANISER</text></g><rect height="14" width="75.828125" y="431.36700439453125" x="53.22693634033203" class="er relationshipLabelBox"/><text style="text-anchor: middle; dominant-baseline: middle; font-size: 12px;" y="438.36700439453125" x="91.14099884033203" id="rel1" class="er relationshipLabel">takes place at</text><rect height="14" width="40.15625" y="146.93519592285156" x="35.503570556640625" class="er relationshipLabelBox"/><text style="text-anchor: middle; dominant-baseline: middle; font-size: 12px;" y="153.93519592285156" x="55.581695556640625" id="rel2" class="er relationshipLabel">entrant</text><rect height="0" width="0" y="164.05731201171875" x="293.3157043457031" class="er relationshipLabelBox"/><text style="text-anchor: middle; dominant-baseline: middle; font-size: 12px;" y="164.05731201171875" x="293.3157043457031" id="rel3" class="er relationshipLabel"/><rect height="14" width="49.671875" y="138.2692108154297" x="202.2489471435547" class="er relationshipLabelBox"/><text style="text-anchor: middle; dominant-baseline: middle; font-size: 12px;" y="145.2692108154297" x="227.0848846435547" id="rel4" class="er relationshipLabel">organises</text><rect height="0" width="0" y="165.98260498046875" x="441.6470642089844" class="er relationshipLabelBox"/><text style="text-anchor: middle; dominant-baseline: middle; font-size: 12px;" y="165.98260498046875" x="441.6470642089844" id="rel5" class="er relationshipLabel"/><text class="entityTitleText" y="-25" x="248.8359375" text-anchor="middle">IFA</text></svg>