<svg aria-roledescription="er" role="graphics-document document" viewBox="0 0 823.921875 408.55078125" style="max-width: 823.922px; background-color: white;" xmlns:xlink="http://www.w3.org/1999/xlink" xmlns="http://www.w3.org/2000/svg" width="100%" id="my-svg"><style>#my-svg{font-family:"trebuchet ms",verdana,arial,sans-serif;font-size:16px;fill:#333;}#my-svg .error-icon{fill:#552222;}#my-svg .error-text{fill:#552222;stroke:#552222;}#my-svg .edge-thickness-normal{stroke-width:1px;}#my-svg .edge-thickness-thick{stroke-width:3.5px;}#my-svg .edge-pattern-solid{stroke-dasharray:0;}#my-svg .edge-thickness-invisible{stroke-width:0;fill:none;}#my-svg .edge-pattern-dashed{stroke-dasharray:3;}#my-svg .edge-pattern-dotted{stroke-dasharray:2;}#my-svg .marker{fill:#333333;stroke:#333333;}#my-svg .marker.cross{stroke:#333333;}#my-svg svg{font-family:"trebuchet ms",verdana,arial,sans-serif;font-size:16px;}#my-svg p{margin:0;}#my-svg .entityBox{fill:#ECECFF;stroke:#9370DB;}#my-svg .attributeBoxOdd{fill:#ffffff;stroke:#9370DB;}#my-svg .attributeBoxEven{fill:#f2f2f2;stroke:#9370DB;}#my-svg .relationshipLabelBox{fill:hsl(80, 100%, 96.2745098039%);opacity:0.7;background-color:hsl(80, 100%, 96.2745098039%);}#my-svg .relationshipLabelBox rect{opacity:0.5;}#my-svg .relationshipLine{stroke:#333333;}#my-svg .entityTitleText{text-anchor:middle;font-size:18px;fill:#333;}#my-svg #MD_PARENT_START{fill:#f5f5f5!important;stroke:#333333!important;stroke-width:1;}#my-svg #MD_PARENT_END{fill:#f5f5f5!important;stroke:#333333!important;stroke-width:1;}#my-svg :root{--mermaid-font-family:"trebuchet ms",verdana,arial,sans-serif;}</style><g/><defs><marker orient="auto" markerHeight="240" markerWidth="190" refY="7" refX="0" id="MD_PARENT_START"><path d="M 18,7 L9,13 L1,7 L9,1 Z"/></marker></defs><defs><marker orient="auto" markerHeight="28" markerWidth="20" refY="7" refX="19" id="MD_PARENT_END"><path d="M 18,7 L9,13 L1,7 L9,1 Z"/></marker></defs><defs><marker orient="auto" markerHeight="18" markerWidth="18" refY="9" refX="0" id="ONLY_ONE_START"><path d="M9,0 L9,18 M15,0 L15,18" fill="none" stroke="gray"/></marker></defs><defs><marker orient="auto" markerHeight="18" markerWidth="18" refY="9" refX="18" id="ONLY_ONE_END"><path d="M3,0 L3,18 M9,0 L9,18" fill="none" stroke="gray"/></marker></defs><defs><marker orient="auto" markerHeight="18" markerWidth="30" refY="9" refX="0" id="ZERO_OR_ONE_START"><circle r="6" cy="9" cx="21" fill="white" stroke="gray"/><path d="M9,0 L9,18" fill="none" stroke="gray"/></marker></defs><defs><marker orient="auto" markerHeight="18" markerWidth="30" refY="9" refX="30" id="ZERO_OR_ONE_END"><circle r="6" cy="9" cx="9" fill="white" stroke="gray"/><path d="M21,0 L21,18" fill="none" stroke="gray"/></marker></defs><defs><marker orient="auto" markerHeight="36" markerWidth="45" refY="18" refX="18" id="ONE_OR_MORE_START"><path d="M0,18 Q 18,0 36,18 Q 18,36 0,18 M42,9 L42,27" fill="none" stroke="gray"/></marker></defs><defs><marker orient="auto" markerHeight="36" markerWidth="45" refY="18" refX="27" id="ONE_OR_MORE_END"><path d="M3,9 L3,27 M9,18 Q27,0 45,18 Q27,36 9,18" fill="none" stroke="gray"/></marker></defs><defs><marker orient="auto" markerHeight="36" markerWidth="57" refY="18" refX="18" id="ZERO_OR_MORE_START"><circle r="6" cy="18" cx="48" fill="white" stroke="gray"/><path d="M0,18 Q18,0 36,18 Q18,36 0,18" fill="none" stroke="gray"/></marker></defs><defs><marker orient="auto" markerHeight="36" markerWidth="57" refY="18" refX="39" id="ZERO_OR_MORE_END"><circle r="6" cy="18" cx="9" fill="white" stroke="gray"/><path d="M21,18 Q39,0 57,18 Q39,36 21,18" fill="none" stroke="gray"/></marker></defs><path style="stroke: gray; fill: none;" marker-start="url(#ONLY_ONE_START)" marker-end="url(#ZERO_OR_MORE_END)" d="M75.039,154.184L75.039,162.517C75.039,170.85,75.039,187.517,83.373,204.525C91.707,221.533,108.375,238.882,116.709,247.557L125.043,256.231" class="er relationshipLine"/><path style="stroke: gray; fill: none;" marker-start="url(#ONLY_ONE_START)" marker-end="url(#ZERO_OR_MORE_END)" d="M522.992,143.229L522.992,153.389C522.992,163.548,522.992,183.866,534.121,206.055C545.25,228.245,567.507,252.306,578.636,264.337L589.764,276.367" class="er relationshipLine"/><path style="stroke: gray; fill: none;" marker-start="url(#ONLY_ONE_START)" marker-end="url(#ZERO_OR_MORE_END)" d="M739.789,143.229L739.789,153.389C739.789,163.548,739.789,183.866,728.66,206.055C717.532,228.245,695.274,252.306,684.146,264.337L673.017,276.367" class="er relationshipLine"/><path style="stroke: gray; fill: none;" marker-start="url(#ONLY_ONE_START)" marker-end="url(#ZERO_OR_MORE_END)" d="M300.203,132.229L300.203,144.222C300.203,156.214,300.203,180.199,291.869,200.866C283.535,221.533,266.867,238.882,258.533,247.557L250.199,256.231" class="er relationshipLine"/><g transform="translate(20,20 )" id="entity-AUCTION-d1d548df-acfe-5824-a7a8-b2b90c3bad96"><rect height="134.18359565734863" width="110.078125" y="0" x="0" class="er entityBox"/><text style="dominant-baseline: middle; text-anchor: middle; font-size: 12px;" transform="translate(55.0390625,12)" y="0" x="0" id="text-entity-AUCTION-d1d548df-acfe-5824-a7a8-b2b90c3bad96" class="er entityLabel">AUCTION</text><rect height="22" width="35.75" y="24" x="0" class="er attributeBoxOdd"/><text style="dominant-baseline: middle; font-size: 10.2px;" transform="translate(5,35)" y="0" x="0" id="text-entity-AUCTION-d1d548df-acfe-5824-a7a8-b2b90c3bad96-attr-1-type" class="er entityLabel">int</text><rect height="22" width="52.765625" y="24" x="35.75" class="er attributeBoxOdd"/><text style="dominant-baseline: middle; font-size: 10.2px;" transform="translate(40.75,35)" y="0" x="0" id="text-entity-AUCTION-d1d548df-acfe-5824-a7a8-b2b90c3bad96-attr-1-name" class="er entityLabel">auctionId</text><rect height="22" width="21.5625" y="24" x="88.515625" class="er attributeBoxOdd"/><text style="dominant-baseline: middle; font-size: 10.2px;" transform="translate(93.515625,35)" y="0" x="0" id="text-entity-AUCTION-d1d548df-acfe-5824-a7a8-b2b90c3bad96-attr-1-key" class="er entityLabel">PK</text><rect height="22.091797828674316" width="35.75" y="46" x="0" class="er attributeBoxEven"/><text style="dominant-baseline: middle; font-size: 10.2px;" transform="translate(5,57.04589891433716)" y="0" x="0" id="text-entity-AUCTION-d1d548df-acfe-5824-a7a8-b2b90c3bad96-attr-2-type" class="er entityLabel">string</text><rect height="22.091797828674316" width="52.765625" y="46" x="35.75" class="er attributeBoxEven"/><text style="dominant-baseline: middle; font-size: 10.2px;" transform="translate(40.75,57.04589891433716)" y="0" x="0" id="text-entity-AUCTION-d1d548df-acfe-5824-a7a8-b2b90c3bad96-attr-2-name" class="er entityLabel">name</text><rect height="22.091797828674316" width="21.5625" y="46" x="88.515625" class="er attributeBoxEven"/><text style="dominant-baseline: middle; font-size: 10.2px;" transform="translate(93.515625,57.04589891433716)" y="0" x="0" id="text-entity-AUCTION-d1d548df-acfe-5824-a7a8-b2b90c3bad96-attr-2-key" class="er entityLabel"/><rect height="22" width="35.75" y="68.09179782867432" x="0" class="er attributeBoxOdd"/><text style="dominant-baseline: middle; font-size: 10.2px;" transform="translate(5,79.09179782867432)" y="0" x="0" id="text-entity-AUCTION-d1d548df-acfe-5824-a7a8-b2b90c3bad96-attr-3-type" class="er entityLabel">date</text><rect height="22" width="52.765625" y="68.09179782867432" x="35.75" class="er attributeBoxOdd"/><text style="dominant-baseline: middle; font-size: 10.2px;" transform="translate(40.75,79.09179782867432)" y="0" x="0" id="text-entity-AUCTION-d1d548df-acfe-5824-a7a8-b2b90c3bad96-attr-3-name" class="er entityLabel">startDate</text><rect height="22" width="21.5625" y="68.09179782867432" x="88.515625" class="er attributeBoxOdd"/><text style="dominant-baseline: middle; font-size: 10.2px;" transform="translate(93.515625,79.09179782867432)" y="0" x="0" id="text-entity-AUCTION-d1d548df-acfe-5824-a7a8-b2b90c3bad96-attr-3-key" class="er entityLabel"/><rect height="22" width="35.75" y="90.09179782867432" x="0" class="er attributeBoxEven"/><text style="dominant-baseline: middle; font-size: 10.2px;" transform="translate(5,101.09179782867432)" y="0" x="0" id="text-entity-AUCTION-d1d548df-acfe-5824-a7a8-b2b90c3bad96-attr-4-type" class="er entityLabel">date</text><rect height="22" width="52.765625" y="90.09179782867432" x="35.75" class="er attributeBoxEven"/><text style="dominant-baseline: middle; font-size: 10.2px;" transform="translate(40.75,101.09179782867432)" y="0" x="0" id="text-entity-AUCTION-d1d548df-acfe-5824-a7a8-b2b90c3bad96-attr-4-name" class="er entityLabel">endDate</text><rect height="22" width="21.5625" y="90.09179782867432" x="88.515625" class="er attributeBoxEven"/><text style="dominant-baseline: middle; font-size: 10.2px;" transform="translate(93.515625,101.09179782867432)" y="0" x="0" id="text-entity-AUCTION-d1d548df-acfe-5824-a7a8-b2b90c3bad96-attr-4-key" class="er entityLabel"/><rect height="22.091797828674316" width="35.75" y="112.09179782867432" x="0" class="er attributeBoxOdd"/><text style="dominant-baseline: middle; font-size: 10.2px;" transform="translate(5,123.13769674301147)" y="0" x="0" id="text-entity-AUCTION-d1d548df-acfe-5824-a7a8-b2b90c3bad96-attr-5-type" class="er entityLabel">string</text><rect height="22.091797828674316" width="52.765625" y="112.09179782867432" x="35.75" class="er attributeBoxOdd"/><text style="dominant-baseline: middle; font-size: 10.2px;" transform="translate(40.75,123.13769674301147)" y="0" x="0" id="text-entity-AUCTION-d1d548df-acfe-5824-a7a8-b2b90c3bad96-attr-5-name" class="er entityLabel">status</text><rect height="22.091797828674316" width="21.5625" y="112.09179782867432" x="88.515625" class="er attributeBoxOdd"/><text style="dominant-baseline: middle; font-size: 10.2px;" transform="translate(93.515625,123.13769674301147)" y="0" x="0" id="text-entity-AUCTION-d1d548df-acfe-5824-a7a8-b2b90c3bad96-attr-5-key" class="er entityLabel"/></g><g transform="translate(125.04296875,254.18359375 )" id="entity-ITEM-1c913bec-a30b-5efb-a4b8-101d7fb1bda1"><rect height="134.36719131469727" width="125.15625" y="0" x="0" class="er entityBox"/><text style="dominant-baseline: middle; text-anchor: middle; font-size: 12px;" transform="translate(62.578125,12)" y="0" x="0" id="text-entity-ITEM-1c913bec-a30b-5efb-a4b8-101d7fb1bda1" class="er entityLabel">ITEM</text><rect height="22" width="35.75" y="24" x="0" class="er attributeBoxOdd"/><text style="dominant-baseline: middle; font-size: 10.2px;" transform="translate(5,35)" y="0" x="0" id="text-entity-ITEM-1c913bec-a30b-5efb-a4b8-101d7fb1bda1-attr-1-type" class="er entityLabel">int</text><rect height="22" width="67.84375" y="24" x="35.75" class="er attributeBoxOdd"/><text style="dominant-baseline: middle; font-size: 10.2px;" transform="translate(40.75,35)" y="0" x="0" id="text-entity-ITEM-1c913bec-a30b-5efb-a4b8-101d7fb1bda1-attr-1-name" class="er entityLabel">itemId</text><rect height="22" width="21.5625" y="24" x="103.59375" class="er attributeBoxOdd"/><text style="dominant-baseline: middle; font-size: 10.2px;" transform="translate(108.59375,35)" y="0" x="0" id="text-entity-ITEM-1c913bec-a30b-5efb-a4b8-101d7fb1bda1-attr-1-key" class="er entityLabel">PK</text><rect height="22.091797828674316" width="35.75" y="46" x="0" class="er attributeBoxEven"/><text style="dominant-baseline: middle; font-size: 10.2px;" transform="translate(5,57.04589891433716)" y="0" x="0" id="text-entity-ITEM-1c913bec-a30b-5efb-a4b8-101d7fb1bda1-attr-2-type" class="er entityLabel">string</text><rect height="22.091797828674316" width="67.84375" y="46" x="35.75" class="er attributeBoxEven"/><text style="dominant-baseline: middle; font-size: 10.2px;" transform="translate(40.75,57.04589891433716)" y="0" x="0" id="text-entity-ITEM-1c913bec-a30b-5efb-a4b8-101d7fb1bda1-attr-2-name" class="er entityLabel">name</text><rect height="22.091797828674316" width="21.5625" y="46" x="103.59375" class="er attributeBoxEven"/><text style="dominant-baseline: middle; font-size: 10.2px;" transform="translate(108.59375,57.04589891433716)" y="0" x="0" id="text-entity-ITEM-1c913bec-a30b-5efb-a4b8-101d7fb1bda1-attr-2-key" class="er entityLabel"/><rect height="22.091797828674316" width="35.75" y="68.09179782867432" x="0" class="er attributeBoxOdd"/><text style="dominant-baseline: middle; font-size: 10.2px;" transform="translate(5,79.13769674301147)" y="0" x="0" id="text-entity-ITEM-1c913bec-a30b-5efb-a4b8-101d7fb1bda1-attr-3-type" class="er entityLabel">string</text><rect height="22.091797828674316" width="67.84375" y="68.09179782867432" x="35.75" class="er attributeBoxOdd"/><text style="dominant-baseline: middle; font-size: 10.2px;" transform="translate(40.75,79.13769674301147)" y="0" x="0" id="text-entity-ITEM-1c913bec-a30b-5efb-a4b8-101d7fb1bda1-attr-3-name" class="er entityLabel">description</text><rect height="22.091797828674316" width="21.5625" y="68.09179782867432" x="103.59375" class="er attributeBoxOdd"/><text style="dominant-baseline: middle; font-size: 10.2px;" transform="translate(108.59375,79.13769674301147)" y="0" x="0" id="text-entity-ITEM-1c913bec-a30b-5efb-a4b8-101d7fb1bda1-attr-3-key" class="er entityLabel"/><rect height="22.091797828674316" width="35.75" y="90.18359565734863" x="0" class="er attributeBoxEven"/><text style="dominant-baseline: middle; font-size: 10.2px;" transform="translate(5,101.22949457168579)" y="0" x="0" id="text-entity-ITEM-1c913bec-a30b-5efb-a4b8-101d7fb1bda1-attr-4-type" class="er entityLabel">float</text><rect height="22.091797828674316" width="67.84375" y="90.18359565734863" x="35.75" class="er attributeBoxEven"/><text style="dominant-baseline: middle; font-size: 10.2px;" transform="translate(40.75,101.22949457168579)" y="0" x="0" id="text-entity-ITEM-1c913bec-a30b-5efb-a4b8-101d7fb1bda1-attr-4-name" class="er entityLabel">startingPrice</text><rect height="22.091797828674316" width="21.5625" y="90.18359565734863" x="103.59375" class="er attributeBoxEven"/><text style="dominant-baseline: middle; font-size: 10.2px;" transform="translate(108.59375,101.22949457168579)" y="0" x="0" id="text-entity-ITEM-1c913bec-a30b-5efb-a4b8-101d7fb1bda1-attr-4-key" class="er entityLabel"/><rect height="22.091797828674316" width="35.75" y="112.27539348602295" x="0" class="er attributeBoxOdd"/><text style="dominant-baseline: middle; font-size: 10.2px;" transform="translate(5,123.32129240036011)" y="0" x="0" id="text-entity-ITEM-1c913bec-a30b-5efb-a4b8-101d7fb1bda1-attr-5-type" class="er entityLabel">string</text><rect height="22.091797828674316" width="67.84375" y="112.27539348602295" x="35.75" class="er attributeBoxOdd"/><text style="dominant-baseline: middle; font-size: 10.2px;" transform="translate(40.75,123.32129240036011)" y="0" x="0" id="text-entity-ITEM-1c913bec-a30b-5efb-a4b8-101d7fb1bda1-attr-5-name" class="er entityLabel">category</text><rect height="22.091797828674316" width="21.5625" y="112.27539348602295" x="103.59375" class="er attributeBoxOdd"/><text style="dominant-baseline: middle; font-size: 10.2px;" transform="translate(108.59375,123.32129240036011)" y="0" x="0" id="text-entity-ITEM-1c913bec-a30b-5efb-a4b8-101d7fb1bda1-attr-5-key" class="er entityLabel"/></g><g transform="translate(470.328125,30.9541015625 )" id="entity-BIDDER-a20f253a-3071-5c1e-b926-192cfdead1da"><rect height="112.27539348602295" width="105.328125" y="0" x="0" class="er entityBox"/><text style="dominant-baseline: middle; text-anchor: middle; font-size: 12px;" transform="translate(52.6640625,12)" y="0" x="0" id="text-entity-BIDDER-a20f253a-3071-5c1e-b926-192cfdead1da" class="er entityLabel">BIDDER</text><rect height="22" width="35.75" y="24" x="0" class="er attributeBoxOdd"/><text style="dominant-baseline: middle; font-size: 10.2px;" transform="translate(5,35)" y="0" x="0" id="text-entity-BIDDER-a20f253a-3071-5c1e-b926-192cfdead1da-attr-1-type" class="er entityLabel">int</text><rect height="22" width="48.015625" y="24" x="35.75" class="er attributeBoxOdd"/><text style="dominant-baseline: middle; font-size: 10.2px;" transform="translate(40.75,35)" y="0" x="0" id="text-entity-BIDDER-a20f253a-3071-5c1e-b926-192cfdead1da-attr-1-name" class="er entityLabel">bidderId</text><rect height="22" width="21.5625" y="24" x="83.765625" class="er attributeBoxOdd"/><text style="dominant-baseline: middle; font-size: 10.2px;" transform="translate(88.765625,35)" y="0" x="0" id="text-entity-BIDDER-a20f253a-3071-5c1e-b926-192cfdead1da-attr-1-key" class="er entityLabel">PK</text><rect height="22.091797828674316" width="35.75" y="46" x="0" class="er attributeBoxEven"/><text style="dominant-baseline: middle; font-size: 10.2px;" transform="translate(5,57.04589891433716)" y="0" x="0" id="text-entity-BIDDER-a20f253a-3071-5c1e-b926-192cfdead1da-attr-2-type" class="er entityLabel">string</text><rect height="22.091797828674316" width="48.015625" y="46" x="35.75" class="er attributeBoxEven"/><text style="dominant-baseline: middle; font-size: 10.2px;" transform="translate(40.75,57.04589891433716)" y="0" x="0" id="text-entity-BIDDER-a20f253a-3071-5c1e-b926-192cfdead1da-attr-2-name" class="er entityLabel">name</text><rect height="22.091797828674316" width="21.5625" y="46" x="83.765625" class="er attributeBoxEven"/><text style="dominant-baseline: middle; font-size: 10.2px;" transform="translate(88.765625,57.04589891433716)" y="0" x="0" id="text-entity-BIDDER-a20f253a-3071-5c1e-b926-192cfdead1da-attr-2-key" class="er entityLabel"/><rect height="22.091797828674316" width="35.75" y="68.09179782867432" x="0" class="er attributeBoxOdd"/><text style="dominant-baseline: middle; font-size: 10.2px;" transform="translate(5,79.13769674301147)" y="0" x="0" id="text-entity-BIDDER-a20f253a-3071-5c1e-b926-192cfdead1da-attr-3-type" class="er entityLabel">string</text><rect height="22.091797828674316" width="48.015625" y="68.09179782867432" x="35.75" class="er attributeBoxOdd"/><text style="dominant-baseline: middle; font-size: 10.2px;" transform="translate(40.75,79.13769674301147)" y="0" x="0" id="text-entity-BIDDER-a20f253a-3071-5c1e-b926-192cfdead1da-attr-3-name" class="er entityLabel">email</text><rect height="22.091797828674316" width="21.5625" y="68.09179782867432" x="83.765625" class="er attributeBoxOdd"/><text style="dominant-baseline: middle; font-size: 10.2px;" transform="translate(88.765625,79.13769674301147)" y="0" x="0" id="text-entity-BIDDER-a20f253a-3071-5c1e-b926-192cfdead1da-attr-3-key" class="er entityLabel"/><rect height="22.091797828674316" width="35.75" y="90.18359565734863" x="0" class="er attributeBoxEven"/><text style="dominant-baseline: middle; font-size: 10.2px;" transform="translate(5,101.22949457168579)" y="0" x="0" id="text-entity-BIDDER-a20f253a-3071-5c1e-b926-192cfdead1da-attr-4-type" class="er entityLabel">string</text><rect height="22.091797828674316" width="48.015625" y="90.18359565734863" x="35.75" class="er attributeBoxEven"/><text style="dominant-baseline: middle; font-size: 10.2px;" transform="translate(40.75,101.22949457168579)" y="0" x="0" id="text-entity-BIDDER-a20f253a-3071-5c1e-b926-192cfdead1da-attr-4-name" class="er entityLabel">phone</text><rect height="22.091797828674316" width="21.5625" y="90.18359565734863" x="83.765625" class="er attributeBoxEven"/><text style="dominant-baseline: middle; font-size: 10.2px;" transform="translate(88.765625,101.22949457168579)" y="0" x="0" id="text-entity-BIDDER-a20f253a-3071-5c1e-b926-192cfdead1da-attr-4-key" class="er entityLabel"/></g><g transform="translate(581.390625,276.3671875 )" id="entity-BID-6153cdff-9743-5520-9704-4366ae63d47a"><rect height="90" width="100" y="0" x="0" class="er entityBox"/><text style="dominant-baseline: middle; text-anchor: middle; font-size: 12px;" transform="translate(50,12)" y="0" x="0" id="text-entity-BID-6153cdff-9743-5520-9704-4366ae63d47a" class="er entityLabel">BID</text><rect height="22" width="31.677083333333332" y="24" x="0" class="er attributeBoxOdd"/><text style="dominant-baseline: middle; font-size: 10.2px;" transform="translate(5,35)" y="0" x="0" id="text-entity-BID-6153cdff-9743-5520-9704-4366ae63d47a-attr-1-type" class="er entityLabel">int</text><rect height="22" width="46.739583333333336" y="24" x="31.677083333333332" class="er attributeBoxOdd"/><text style="dominant-baseline: middle; font-size: 10.2px;" transform="translate(36.67708333333333,35)" y="0" x="0" id="text-entity-BID-6153cdff-9743-5520-9704-4366ae63d47a-attr-1-name" class="er entityLabel">bidId</text><rect height="22" width="21.583333333333332" y="24" x="78.41666666666667" class="er attributeBoxOdd"/><text style="dominant-baseline: middle; font-size: 10.2px;" transform="translate(83.41666666666667,35)" y="0" x="0" id="text-entity-BID-6153cdff-9743-5520-9704-4366ae63d47a-attr-1-key" class="er entityLabel">PK</text><rect height="22" width="31.677083333333332" y="46" x="0" class="er attributeBoxEven"/><text style="dominant-baseline: middle; font-size: 10.2px;" transform="translate(5,57)" y="0" x="0" id="text-entity-BID-6153cdff-9743-5520-9704-4366ae63d47a-attr-2-type" class="er entityLabel">float</text><rect height="22" width="46.739583333333336" y="46" x="31.677083333333332" class="er attributeBoxEven"/><text style="dominant-baseline: middle; font-size: 10.2px;" transform="translate(36.67708333333333,57)" y="0" x="0" id="text-entity-BID-6153cdff-9743-5520-9704-4366ae63d47a-attr-2-name" class="er entityLabel">amount</text><rect height="22" width="21.583333333333332" y="46" x="78.41666666666667" class="er attributeBoxEven"/><text style="dominant-baseline: middle; font-size: 10.2px;" transform="translate(83.41666666666667,57)" y="0" x="0" id="text-entity-BID-6153cdff-9743-5520-9704-4366ae63d47a-attr-2-key" class="er entityLabel"/><rect height="22" width="31.677083333333332" y="68" x="0" class="er attributeBoxOdd"/><text style="dominant-baseline: middle; font-size: 10.2px;" transform="translate(5,79)" y="0" x="0" id="text-entity-BID-6153cdff-9743-5520-9704-4366ae63d47a-attr-3-type" class="er entityLabel">date</text><rect height="22" width="46.739583333333336" y="68" x="31.677083333333332" class="er attributeBoxOdd"/><text style="dominant-baseline: middle; font-size: 10.2px;" transform="translate(36.67708333333333,79)" y="0" x="0" id="text-entity-BID-6153cdff-9743-5520-9704-4366ae63d47a-attr-3-name" class="er entityLabel">bidTime</text><rect height="22" width="21.583333333333332" y="68" x="78.41666666666667" class="er attributeBoxOdd"/><text style="dominant-baseline: middle; font-size: 10.2px;" transform="translate(83.41666666666667,79)" y="0" x="0" id="text-entity-BID-6153cdff-9743-5520-9704-4366ae63d47a-attr-3-key" class="er entityLabel"/></g><g transform="translate(675.65625,30.9541015625 )" id="entity-PAYMENT-9797eee8-7a01-5efe-aaa5-fb9a4f14957c"><rect height="112.27539157867432" width="128.265625" y="0" x="0" class="er entityBox"/><text style="dominant-baseline: middle; text-anchor: middle; font-size: 12px;" transform="translate(64.1328125,12)" y="0" x="0" id="text-entity-PAYMENT-9797eee8-7a01-5efe-aaa5-fb9a4f14957c" class="er entityLabel">PAYMENT</text><rect height="22.091796875" width="35.75" y="24" x="0" class="er attributeBoxOdd"/><text style="dominant-baseline: middle; font-size: 10.2px;" transform="translate(5,35.0458984375)" y="0" x="0" id="text-entity-PAYMENT-9797eee8-7a01-5efe-aaa5-fb9a4f14957c-attr-1-type" class="er entityLabel">int</text><rect height="22.091796875" width="70.953125" y="24" x="35.75" class="er attributeBoxOdd"/><text style="dominant-baseline: middle; font-size: 10.2px;" transform="translate(40.75,35.0458984375)" y="0" x="0" id="text-entity-PAYMENT-9797eee8-7a01-5efe-aaa5-fb9a4f14957c-attr-1-name" class="er entityLabel">paymentId</text><rect height="22.091796875" width="21.5625" y="24" x="106.703125" class="er attributeBoxOdd"/><text style="dominant-baseline: middle; font-size: 10.2px;" transform="translate(111.703125,35.0458984375)" y="0" x="0" id="text-entity-PAYMENT-9797eee8-7a01-5efe-aaa5-fb9a4f14957c-attr-1-key" class="er entityLabel">PK</text><rect height="22" width="35.75" y="46.091796875" x="0" class="er attributeBoxEven"/><text style="dominant-baseline: middle; font-size: 10.2px;" transform="translate(5,57.091796875)" y="0" x="0" id="text-entity-PAYMENT-9797eee8-7a01-5efe-aaa5-fb9a4f14957c-attr-2-type" class="er entityLabel">float</text><rect height="22" width="70.953125" y="46.091796875" x="35.75" class="er attributeBoxEven"/><text style="dominant-baseline: middle; font-size: 10.2px;" transform="translate(40.75,57.091796875)" y="0" x="0" id="text-entity-PAYMENT-9797eee8-7a01-5efe-aaa5-fb9a4f14957c-attr-2-name" class="er entityLabel">amount</text><rect height="22" width="21.5625" y="46.091796875" x="106.703125" class="er attributeBoxEven"/><text style="dominant-baseline: middle; font-size: 10.2px;" transform="translate(111.703125,57.091796875)" y="0" x="0" id="text-entity-PAYMENT-9797eee8-7a01-5efe-aaa5-fb9a4f14957c-attr-2-key" class="er entityLabel"/><rect height="22.091796875" width="35.75" y="68.091796875" x="0" class="er attributeBoxOdd"/><text style="dominant-baseline: middle; font-size: 10.2px;" transform="translate(5,79.1376953125)" y="0" x="0" id="text-entity-PAYMENT-9797eee8-7a01-5efe-aaa5-fb9a4f14957c-attr-3-type" class="er entityLabel">date</text><rect height="22.091796875" width="70.953125" y="68.091796875" x="35.75" class="er attributeBoxOdd"/><text style="dominant-baseline: middle; font-size: 10.2px;" transform="translate(40.75,79.1376953125)" y="0" x="0" id="text-entity-PAYMENT-9797eee8-7a01-5efe-aaa5-fb9a4f14957c-attr-3-name" class="er entityLabel">paymentDate</text><rect height="22.091796875" width="21.5625" y="68.091796875" x="106.703125" class="er attributeBoxOdd"/><text style="dominant-baseline: middle; font-size: 10.2px;" transform="translate(111.703125,79.1376953125)" y="0" x="0" id="text-entity-PAYMENT-9797eee8-7a01-5efe-aaa5-fb9a4f14957c-attr-3-key" class="er entityLabel"/><rect height="22.091797828674316" width="35.75" y="90.18359375" x="0" class="er attributeBoxEven"/><text style="dominant-baseline: middle; font-size: 10.2px;" transform="translate(5,101.22949266433716)" y="0" x="0" id="text-entity-PAYMENT-9797eee8-7a01-5efe-aaa5-fb9a4f14957c-attr-4-type" class="er entityLabel">string</text><rect height="22.091797828674316" width="70.953125" y="90.18359375" x="35.75" class="er attributeBoxEven"/><text style="dominant-baseline: middle; font-size: 10.2px;" transform="translate(40.75,101.22949266433716)" y="0" x="0" id="text-entity-PAYMENT-9797eee8-7a01-5efe-aaa5-fb9a4f14957c-attr-4-name" class="er entityLabel">method</text><rect height="22.091797828674316" width="21.5625" y="90.18359375" x="106.703125" class="er attributeBoxEven"/><text style="dominant-baseline: middle; font-size: 10.2px;" transform="translate(111.703125,101.22949266433716)" y="0" x="0" id="text-entity-PAYMENT-9797eee8-7a01-5efe-aaa5-fb9a4f14957c-attr-4-key" class="er entityLabel"/></g><g transform="translate(230.078125,41.9541015625 )" id="entity-SHIPPING-dc3cdfdd-e1a9-56b9-b8b9-5b6b74adebc0"><rect height="90.27539157867432" width="140.25" y="0" x="0" class="er entityBox"/><text style="dominant-baseline: middle; text-anchor: middle; font-size: 12px;" transform="translate(70.125,12)" y="0" x="0" id="text-entity-SHIPPING-dc3cdfdd-e1a9-56b9-b8b9-5b6b74adebc0" class="er entityLabel">SHIPPING</text><rect height="22.091796875" width="35.75" y="24" x="0" class="er attributeBoxOdd"/><text style="dominant-baseline: middle; font-size: 10.2px;" transform="translate(5,35.0458984375)" y="0" x="0" id="text-entity-SHIPPING-dc3cdfdd-e1a9-56b9-b8b9-5b6b74adebc0-attr-1-type" class="er entityLabel">int</text><rect height="22.091796875" width="82.9375" y="24" x="35.75" class="er attributeBoxOdd"/><text style="dominant-baseline: middle; font-size: 10.2px;" transform="translate(40.75,35.0458984375)" y="0" x="0" id="text-entity-SHIPPING-dc3cdfdd-e1a9-56b9-b8b9-5b6b74adebc0-attr-1-name" class="er entityLabel">shippingId</text><rect height="22.091796875" width="21.5625" y="24" x="118.6875" class="er attributeBoxOdd"/><text style="dominant-baseline: middle; font-size: 10.2px;" transform="translate(123.6875,35.0458984375)" y="0" x="0" id="text-entity-SHIPPING-dc3cdfdd-e1a9-56b9-b8b9-5b6b74adebc0-attr-1-key" class="er entityLabel">PK</text><rect height="22.091796875" width="35.75" y="46.091796875" x="0" class="er attributeBoxEven"/><text style="dominant-baseline: middle; font-size: 10.2px;" transform="translate(5,57.1376953125)" y="0" x="0" id="text-entity-SHIPPING-dc3cdfdd-e1a9-56b9-b8b9-5b6b74adebc0-attr-2-type" class="er entityLabel">date</text><rect height="22.091796875" width="82.9375" y="46.091796875" x="35.75" class="er attributeBoxEven"/><text style="dominant-baseline: middle; font-size: 10.2px;" transform="translate(40.75,57.1376953125)" y="0" x="0" id="text-entity-SHIPPING-dc3cdfdd-e1a9-56b9-b8b9-5b6b74adebc0-attr-2-name" class="er entityLabel">deliveryDate</text><rect height="22.091796875" width="21.5625" y="46.091796875" x="118.6875" class="er attributeBoxEven"/><text style="dominant-baseline: middle; font-size: 10.2px;" transform="translate(123.6875,57.1376953125)" y="0" x="0" id="text-entity-SHIPPING-dc3cdfdd-e1a9-56b9-b8b9-5b6b74adebc0-attr-2-key" class="er entityLabel"/><rect height="22.091797828674316" width="35.75" y="68.18359375" x="0" class="er attributeBoxOdd"/><text style="dominant-baseline: middle; font-size: 10.2px;" transform="translate(5,79.22949266433716)" y="0" x="0" id="text-entity-SHIPPING-dc3cdfdd-e1a9-56b9-b8b9-5b6b74adebc0-attr-3-type" class="er entityLabel">string</text><rect height="22.091797828674316" width="82.9375" y="68.18359375" x="35.75" class="er attributeBoxOdd"/><text style="dominant-baseline: middle; font-size: 10.2px;" transform="translate(40.75,79.22949266433716)" y="0" x="0" id="text-entity-SHIPPING-dc3cdfdd-e1a9-56b9-b8b9-5b6b74adebc0-attr-3-name" class="er entityLabel">trackingNumber</text><rect height="22.091797828674316" width="21.5625" y="68.18359375" x="118.6875" class="er attributeBoxOdd"/><text style="dominant-baseline: middle; font-size: 10.2px;" transform="translate(123.6875,79.22949266433716)" y="0" x="0" id="text-entity-SHIPPING-dc3cdfdd-e1a9-56b9-b8b9-5b6b74adebc0-attr-3-key" class="er entityLabel"/></g><rect height="14" width="44.84375" y="204.1450653076172" x="64.58124542236328" class="er relationshipLabelBox"/><text style="text-anchor: middle; dominant-baseline: middle; font-size: 12px;" y="211.1450653076172" x="87.00312042236328" id="rel1" class="er relationshipLabel">contains</text><rect height="14" width="33.875" y="210.0928955078125" x="523.4782104492188" class="er relationshipLabelBox"/><text style="text-anchor: middle; dominant-baseline: middle; font-size: 12px;" y="217.0928955078125" x="540.4157104492188" id="rel2" class="er relationshipLabel">places</text><rect height="14" width="33.734375" y="210.09298706054688" x="705.498291015625" class="er relationshipLabelBox"/><text style="text-anchor: middle; dominant-baseline: middle; font-size: 12px;" y="217.09298706054688" x="722.365478515625" id="rel3" class="er relationshipLabel">makes</text><rect height="14" width="42.140625" y="193.93560791015625" x="270.7704772949219" class="er relationshipLabelBox"/><text style="text-anchor: middle; dominant-baseline: middle; font-size: 12px;" y="200.93560791015625" x="291.8407897949219" id="rel4" class="er relationshipLabel">delivers</text></svg>