<svg aria-roledescription="er" role="graphics-document document" viewBox="0 0 985.15234375 841.8359375" style="max-width: 985.152px; background-color: white;" xmlns:xlink="http://www.w3.org/1999/xlink" xmlns="http://www.w3.org/2000/svg" width="100%" id="my-svg"><style>#my-svg{font-family:"trebuchet ms",verdana,arial,sans-serif;font-size:16px;fill:#333;}#my-svg .error-icon{fill:#552222;}#my-svg .error-text{fill:#552222;stroke:#552222;}#my-svg .edge-thickness-normal{stroke-width:1px;}#my-svg .edge-thickness-thick{stroke-width:3.5px;}#my-svg .edge-pattern-solid{stroke-dasharray:0;}#my-svg .edge-thickness-invisible{stroke-width:0;fill:none;}#my-svg .edge-pattern-dashed{stroke-dasharray:3;}#my-svg .edge-pattern-dotted{stroke-dasharray:2;}#my-svg .marker{fill:#333333;stroke:#333333;}#my-svg .marker.cross{stroke:#333333;}#my-svg svg{font-family:"trebuchet ms",verdana,arial,sans-serif;font-size:16px;}#my-svg p{margin:0;}#my-svg .entityBox{fill:#ECECFF;stroke:#9370DB;}#my-svg .attributeBoxOdd{fill:#ffffff;stroke:#9370DB;}#my-svg .attributeBoxEven{fill:#f2f2f2;stroke:#9370DB;}#my-svg .relationshipLabelBox{fill:hsl(80, 100%, 96.2745098039%);opacity:0.7;background-color:hsl(80, 100%, 96.2745098039%);}#my-svg .relationshipLabelBox rect{opacity:0.5;}#my-svg .relationshipLine{stroke:#333333;}#my-svg .entityTitleText{text-anchor:middle;font-size:18px;fill:#333;}#my-svg #MD_PARENT_START{fill:#f5f5f5!important;stroke:#333333!important;stroke-width:1;}#my-svg #MD_PARENT_END{fill:#f5f5f5!important;stroke:#333333!important;stroke-width:1;}#my-svg :root{--mermaid-font-family:"trebuchet ms",verdana,arial,sans-serif;}</style><g/><defs><marker orient="auto" markerHeight="240" markerWidth="190" refY="7" refX="0" id="MD_PARENT_START"><path d="M 18,7 L9,13 L1,7 L9,1 Z"/></marker></defs><defs><marker orient="auto" markerHeight="28" markerWidth="20" refY="7" refX="19" id="MD_PARENT_END"><path d="M 18,7 L9,13 L1,7 L9,1 Z"/></marker></defs><defs><marker orient="auto" markerHeight="18" markerWidth="18" refY="9" refX="0" id="ONLY_ONE_START"><path d="M9,0 L9,18 M15,0 L15,18" fill="none" stroke="gray"/></marker></defs><defs><marker orient="auto" markerHeight="18" markerWidth="18" refY="9" refX="18" id="ONLY_ONE_END"><path d="M3,0 L3,18 M9,0 L9,18" fill="none" stroke="gray"/></marker></defs><defs><marker orient="auto" markerHeight="18" markerWidth="30" refY="9" refX="0" id="ZERO_OR_ONE_START"><circle r="6" cy="9" cx="21" fill="white" stroke="gray"/><path d="M9,0 L9,18" fill="none" stroke="gray"/></marker></defs><defs><marker orient="auto" markerHeight="18" markerWidth="30" refY="9" refX="30" id="ZERO_OR_ONE_END"><circle r="6" cy="9" cx="9" fill="white" stroke="gray"/><path d="M21,0 L21,18" fill="none" stroke="gray"/></marker></defs><defs><marker orient="auto" markerHeight="36" markerWidth="45" refY="18" refX="18" id="ONE_OR_MORE_START"><path d="M0,18 Q 18,0 36,18 Q 18,36 0,18 M42,9 L42,27" fill="none" stroke="gray"/></marker></defs><defs><marker orient="auto" markerHeight="36" markerWidth="45" refY="18" refX="27" id="ONE_OR_MORE_END"><path d="M3,9 L3,27 M9,18 Q27,0 45,18 Q27,36 9,18" fill="none" stroke="gray"/></marker></defs><defs><marker orient="auto" markerHeight="36" markerWidth="57" refY="18" refX="18" id="ZERO_OR_MORE_START"><circle r="6" cy="18" cx="48" fill="white" stroke="gray"/><path d="M0,18 Q18,0 36,18 Q18,36 0,18" fill="none" stroke="gray"/></marker></defs><defs><marker orient="auto" markerHeight="36" markerWidth="57" refY="18" refX="39" id="ZERO_OR_MORE_END"><circle r="6" cy="18" cx="9" fill="white" stroke="gray"/><path d="M21,18 Q39,0 57,18 Q39,36 21,18" fill="none" stroke="gray"/></marker></defs><path style="stroke: gray; fill: none;" marker-start="url(#ONLY_ONE_START)" marker-end="url(#ZERO_OR_MORE_END)" d="M576.465,154.367L576.465,162.701C576.465,171.034,576.465,187.701,576.465,204.367C576.465,221.034,576.465,237.701,576.465,246.034L576.465,254.367" class="er relationshipLine"/><path style="stroke: gray; fill: none;" marker-start="url(#ONLY_ONE_START)" marker-end="url(#ZERO_OR_MORE_END)" d="M487.738,534.008L481.254,543.888C474.77,553.767,461.801,573.526,448.428,593.572C435.056,613.618,421.279,633.952,414.391,644.118L407.503,654.285" class="er relationshipLine"/><path style="stroke: gray; fill: none;" marker-start="url(#ONLY_ONE_START)" marker-end="url(#ZERO_OR_MORE_END)" d="M500.324,116.932L463.026,131.505C425.728,146.077,351.132,175.222,313.833,222.204C276.535,269.187,276.535,334.007,276.535,398.826C276.535,463.646,276.535,528.465,282.224,571.042C287.913,613.618,299.291,633.952,304.98,644.118L310.669,654.285" class="er relationshipLine"/><path style="stroke: gray; fill: none;" marker-start="url(#ONLY_ONE_START)" marker-end="url(#ZERO_OR_MORE_END)" d="M487.738,434.932L422.882,461.324C358.026,487.716,228.314,540.501,163.458,578.908C98.602,617.316,98.602,641.346,98.602,653.362L98.602,665.377" class="er relationshipLine"/><path style="stroke: gray; fill: none;" marker-start="url(#ONLY_ONE_START)" marker-end="url(#ONLY_ONE_END)" d="M613.609,543.285L615.751,551.618C617.894,559.952,622.179,576.618,624.322,598.808C626.465,620.998,626.465,648.71,626.465,662.567L626.465,676.423" class="er relationshipLine"/><path style="stroke: gray; fill: none;" marker-start="url(#ONLY_ONE_START)" marker-end="url(#ZERO_OR_MORE_END)" d="M652.605,112.083L699.639,127.463C746.673,142.844,840.741,173.606,887.775,221.396C934.809,269.187,934.809,334.007,934.809,398.826C934.809,463.646,934.809,528.465,931.817,569.209C928.825,609.952,922.842,626.618,919.85,634.952L916.859,643.285" class="er relationshipLine"/><path style="stroke: gray; fill: none;" marker-start="url(#ONLY_ONE_START)" marker-end="url(#ONLY_ONE_END)" d="M665.191,474.113L688.599,493.975C712.007,513.837,758.822,553.561,786.966,581.757C815.111,609.952,824.585,626.618,829.322,634.952L834.059,643.285" class="er relationshipLine"/><g transform="translate(500.32421875,20 )" id="entity-PLAYER-09044be7-efdd-5fb9-97db-80dc92021a88"><rect height="134.36718940734863" width="152.28125" y="0" x="0" class="er entityBox"/><text style="dominant-baseline: middle; text-anchor: middle; font-size: 12px;" transform="translate(76.140625,12)" y="0" x="0" id="text-entity-PLAYER-09044be7-efdd-5fb9-97db-80dc92021a88" class="er entityLabel">PLAYER</text><rect height="22.091797828674316" width="35.75" y="24" x="0" class="er attributeBoxOdd"/><text style="dominant-baseline: middle; font-size: 10.2px;" transform="translate(5,35.04589891433716)" y="0" x="0" id="text-entity-PLAYER-09044be7-efdd-5fb9-97db-80dc92021a88-attr-1-type" class="er entityLabel">string</text><rect height="22.091797828674316" width="94.96875" y="24" x="35.75" class="er attributeBoxOdd"/><text style="dominant-baseline: middle; font-size: 10.2px;" transform="translate(40.75,35.04589891433716)" y="0" x="0" id="text-entity-PLAYER-09044be7-efdd-5fb9-97db-80dc92021a88-attr-1-name" class="er entityLabel">player_id</text><rect height="22.091797828674316" width="21.5625" y="24" x="130.71875" class="er attributeBoxOdd"/><text style="dominant-baseline: middle; font-size: 10.2px;" transform="translate(135.71875,35.04589891433716)" y="0" x="0" id="text-entity-PLAYER-09044be7-efdd-5fb9-97db-80dc92021a88-attr-1-key" class="er entityLabel">PK</text><rect height="22.091797828674316" width="35.75" y="46.091797828674316" x="0" class="er attributeBoxEven"/><text style="dominant-baseline: middle; font-size: 10.2px;" transform="translate(5,57.137696743011475)" y="0" x="0" id="text-entity-PLAYER-09044be7-efdd-5fb9-97db-80dc92021a88-attr-2-type" class="er entityLabel">string</text><rect height="22.091797828674316" width="94.96875" y="46.091797828674316" x="35.75" class="er attributeBoxEven"/><text style="dominant-baseline: middle; font-size: 10.2px;" transform="translate(40.75,57.137696743011475)" y="0" x="0" id="text-entity-PLAYER-09044be7-efdd-5fb9-97db-80dc92021a88-attr-2-name" class="er entityLabel">player_name</text><rect height="22.091797828674316" width="21.5625" y="46.091797828674316" x="130.71875" class="er attributeBoxEven"/><text style="dominant-baseline: middle; font-size: 10.2px;" transform="translate(135.71875,57.137696743011475)" y="0" x="0" id="text-entity-PLAYER-09044be7-efdd-5fb9-97db-80dc92021a88-attr-2-key" class="er entityLabel"/><rect height="22.091796875" width="35.75" y="68.18359565734863" x="0" class="er attributeBoxOdd"/><text style="dominant-baseline: middle; font-size: 10.2px;" transform="translate(5,79.22949409484863)" y="0" x="0" id="text-entity-PLAYER-09044be7-efdd-5fb9-97db-80dc92021a88-attr-3-type" class="er entityLabel">float</text><rect height="22.091796875" width="94.96875" y="68.18359565734863" x="35.75" class="er attributeBoxOdd"/><text style="dominant-baseline: middle; font-size: 10.2px;" transform="translate(40.75,79.22949409484863)" y="0" x="0" id="text-entity-PLAYER-09044be7-efdd-5fb9-97db-80dc92021a88-attr-3-name" class="er entityLabel">beginning_balance</text><rect height="22.091796875" width="21.5625" y="68.18359565734863" x="130.71875" class="er attributeBoxOdd"/><text style="dominant-baseline: middle; font-size: 10.2px;" transform="translate(135.71875,79.22949409484863)" y="0" x="0" id="text-entity-PLAYER-09044be7-efdd-5fb9-97db-80dc92021a88-attr-3-key" class="er entityLabel"/><rect height="22.091796875" width="35.75" y="90.27539253234863" x="0" class="er attributeBoxEven"/><text style="dominant-baseline: middle; font-size: 10.2px;" transform="translate(5,101.32129096984863)" y="0" x="0" id="text-entity-PLAYER-09044be7-efdd-5fb9-97db-80dc92021a88-attr-4-type" class="er entityLabel">float</text><rect height="22.091796875" width="94.96875" y="90.27539253234863" x="35.75" class="er attributeBoxEven"/><text style="dominant-baseline: middle; font-size: 10.2px;" transform="translate(40.75,101.32129096984863)" y="0" x="0" id="text-entity-PLAYER-09044be7-efdd-5fb9-97db-80dc92021a88-attr-4-name" class="er entityLabel">total_payouts</text><rect height="22.091796875" width="21.5625" y="90.27539253234863" x="130.71875" class="er attributeBoxEven"/><text style="dominant-baseline: middle; font-size: 10.2px;" transform="translate(135.71875,101.32129096984863)" y="0" x="0" id="text-entity-PLAYER-09044be7-efdd-5fb9-97db-80dc92021a88-attr-4-key" class="er entityLabel"/><rect height="22" width="35.75" y="112.36718940734863" x="0" class="er attributeBoxOdd"/><text style="dominant-baseline: middle; font-size: 10.2px;" transform="translate(5,123.36718940734863)" y="0" x="0" id="text-entity-PLAYER-09044be7-efdd-5fb9-97db-80dc92021a88-attr-5-type" class="er entityLabel">float</text><rect height="22" width="94.96875" y="112.36718940734863" x="35.75" class="er attributeBoxOdd"/><text style="dominant-baseline: middle; font-size: 10.2px;" transform="translate(40.75,123.36718940734863)" y="0" x="0" id="text-entity-PLAYER-09044be7-efdd-5fb9-97db-80dc92021a88-attr-5-name" class="er entityLabel">current_balance</text><rect height="22" width="21.5625" y="112.36718940734863" x="130.71875" class="er attributeBoxOdd"/><text style="dominant-baseline: middle; font-size: 10.2px;" transform="translate(135.71875,123.36718940734863)" y="0" x="0" id="text-entity-PLAYER-09044be7-efdd-5fb9-97db-80dc92021a88-attr-5-key" class="er entityLabel"/></g><g transform="translate(487.73828125,254.3671875 )" id="entity-GAME-ffe717d5-9fe2-58b5-a684-f2592fc078b6"><rect height="288.91797637939453" width="177.453125" y="0" x="0" class="er entityBox"/><text style="dominant-baseline: middle; text-anchor: middle; font-size: 12px;" transform="translate(88.7265625,12)" y="0" x="0" id="text-entity-GAME-ffe717d5-9fe2-58b5-a684-f2592fc078b6" class="er entityLabel">GAME</text><rect height="22.091797828674316" width="51.640625" y="24" x="0" class="er attributeBoxOdd"/><text style="dominant-baseline: middle; font-size: 10.2px;" transform="translate(5,35.04589891433716)" y="0" x="0" id="text-entity-GAME-ffe717d5-9fe2-58b5-a684-f2592fc078b6-attr-1-type" class="er entityLabel">string</text><rect height="22.091797828674316" width="104.25" y="24" x="51.640625" class="er attributeBoxOdd"/><text style="dominant-baseline: middle; font-size: 10.2px;" transform="translate(56.640625,35.04589891433716)" y="0" x="0" id="text-entity-GAME-ffe717d5-9fe2-58b5-a684-f2592fc078b6-attr-1-name" class="er entityLabel">game_id</text><rect height="22.091797828674316" width="21.5625" y="24" x="155.890625" class="er attributeBoxOdd"/><text style="dominant-baseline: middle; font-size: 10.2px;" transform="translate(160.890625,35.04589891433716)" y="0" x="0" id="text-entity-GAME-ffe717d5-9fe2-58b5-a684-f2592fc078b6-attr-1-key" class="er entityLabel">PK</text><rect height="22.091797828674316" width="51.640625" y="46.091797828674316" x="0" class="er attributeBoxEven"/><text style="dominant-baseline: middle; font-size: 10.2px;" transform="translate(5,57.137696743011475)" y="0" x="0" id="text-entity-GAME-ffe717d5-9fe2-58b5-a684-f2592fc078b6-attr-2-type" class="er entityLabel">string</text><rect height="22.091797828674316" width="104.25" y="46.091797828674316" x="51.640625" class="er attributeBoxEven"/><text style="dominant-baseline: middle; font-size: 10.2px;" transform="translate(56.640625,57.137696743011475)" y="0" x="0" id="text-entity-GAME-ffe717d5-9fe2-58b5-a684-f2592fc078b6-attr-2-name" class="er entityLabel">game_name</text><rect height="22.091797828674316" width="21.5625" y="46.091797828674316" x="155.890625" class="er attributeBoxEven"/><text style="dominant-baseline: middle; font-size: 10.2px;" transform="translate(160.890625,57.137696743011475)" y="0" x="0" id="text-entity-GAME-ffe717d5-9fe2-58b5-a684-f2592fc078b6-attr-2-key" class="er entityLabel"/><rect height="22.091797828674316" width="51.640625" y="68.18359565734863" x="0" class="er attributeBoxOdd"/><text style="dominant-baseline: middle; font-size: 10.2px;" transform="translate(5,79.22949457168579)" y="0" x="0" id="text-entity-GAME-ffe717d5-9fe2-58b5-a684-f2592fc078b6-attr-3-type" class="er entityLabel">string</text><rect height="22.091797828674316" width="104.25" y="68.18359565734863" x="51.640625" class="er attributeBoxOdd"/><text style="dominant-baseline: middle; font-size: 10.2px;" transform="translate(56.640625,79.22949457168579)" y="0" x="0" id="text-entity-GAME-ffe717d5-9fe2-58b5-a684-f2592fc078b6-attr-3-name" class="er entityLabel">status</text><rect height="22.091797828674316" width="21.5625" y="68.18359565734863" x="155.890625" class="er attributeBoxOdd"/><text style="dominant-baseline: middle; font-size: 10.2px;" transform="translate(160.890625,79.22949457168579)" y="0" x="0" id="text-entity-GAME-ffe717d5-9fe2-58b5-a684-f2592fc078b6-attr-3-key" class="er entityLabel"/><rect height="22" width="51.640625" y="90.27539348602295" x="0" class="er attributeBoxEven"/><text style="dominant-baseline: middle; font-size: 10.2px;" transform="translate(5,101.27539348602295)" y="0" x="0" id="text-entity-GAME-ffe717d5-9fe2-58b5-a684-f2592fc078b6-attr-4-type" class="er entityLabel">datetime</text><rect height="22" width="104.25" y="90.27539348602295" x="51.640625" class="er attributeBoxEven"/><text style="dominant-baseline: middle; font-size: 10.2px;" transform="translate(56.640625,101.27539348602295)" y="0" x="0" id="text-entity-GAME-ffe717d5-9fe2-58b5-a684-f2592fc078b6-attr-4-name" class="er entityLabel">start_time</text><rect height="22" width="21.5625" y="90.27539348602295" x="155.890625" class="er attributeBoxEven"/><text style="dominant-baseline: middle; font-size: 10.2px;" transform="translate(160.890625,101.27539348602295)" y="0" x="0" id="text-entity-GAME-ffe717d5-9fe2-58b5-a684-f2592fc078b6-attr-4-key" class="er entityLabel"/><rect height="22" width="51.640625" y="112.27539348602295" x="0" class="er attributeBoxOdd"/><text style="dominant-baseline: middle; font-size: 10.2px;" transform="translate(5,123.27539348602295)" y="0" x="0" id="text-entity-GAME-ffe717d5-9fe2-58b5-a684-f2592fc078b6-attr-5-type" class="er entityLabel">datetime</text><rect height="22" width="104.25" y="112.27539348602295" x="51.640625" class="er attributeBoxOdd"/><text style="dominant-baseline: middle; font-size: 10.2px;" transform="translate(56.640625,123.27539348602295)" y="0" x="0" id="text-entity-GAME-ffe717d5-9fe2-58b5-a684-f2592fc078b6-attr-5-name" class="er entityLabel">end_time</text><rect height="22" width="21.5625" y="112.27539348602295" x="155.890625" class="er attributeBoxOdd"/><text style="dominant-baseline: middle; font-size: 10.2px;" transform="translate(160.890625,123.27539348602295)" y="0" x="0" id="text-entity-GAME-ffe717d5-9fe2-58b5-a684-f2592fc078b6-attr-5-key" class="er entityLabel"/><rect height="22.091797828674316" width="51.640625" y="134.27539348602295" x="0" class="er attributeBoxEven"/><text style="dominant-baseline: middle; font-size: 10.2px;" transform="translate(5,145.3212924003601)" y="0" x="0" id="text-entity-GAME-ffe717d5-9fe2-58b5-a684-f2592fc078b6-attr-6-type" class="er entityLabel">string</text><rect height="22.091797828674316" width="104.25" y="134.27539348602295" x="51.640625" class="er attributeBoxEven"/><text style="dominant-baseline: middle; font-size: 10.2px;" transform="translate(56.640625,145.3212924003601)" y="0" x="0" id="text-entity-GAME-ffe717d5-9fe2-58b5-a684-f2592fc078b6-attr-6-name" class="er entityLabel">last_action</text><rect height="22.091797828674316" width="21.5625" y="134.27539348602295" x="155.890625" class="er attributeBoxEven"/><text style="dominant-baseline: middle; font-size: 10.2px;" transform="translate(160.890625,145.3212924003601)" y="0" x="0" id="text-entity-GAME-ffe717d5-9fe2-58b5-a684-f2592fc078b6-attr-6-key" class="er entityLabel"/><rect height="22.091796875" width="51.640625" y="156.36719131469727" x="0" class="er attributeBoxOdd"/><text style="dominant-baseline: middle; font-size: 10.2px;" transform="translate(5,167.41308975219727)" y="0" x="0" id="text-entity-GAME-ffe717d5-9fe2-58b5-a684-f2592fc078b6-attr-7-type" class="er entityLabel">int</text><rect height="22.091796875" width="104.25" y="156.36719131469727" x="51.640625" class="er attributeBoxOdd"/><text style="dominant-baseline: middle; font-size: 10.2px;" transform="translate(56.640625,167.41308975219727)" y="0" x="0" id="text-entity-GAME-ffe717d5-9fe2-58b5-a684-f2592fc078b6-attr-7-name" class="er entityLabel">player_wager</text><rect height="22.091796875" width="21.5625" y="156.36719131469727" x="155.890625" class="er attributeBoxOdd"/><text style="dominant-baseline: middle; font-size: 10.2px;" transform="translate(160.890625,167.41308975219727)" y="0" x="0" id="text-entity-GAME-ffe717d5-9fe2-58b5-a684-f2592fc078b6-attr-7-key" class="er entityLabel"/><rect height="22.091796875" width="51.640625" y="178.45898818969727" x="0" class="er attributeBoxEven"/><text style="dominant-baseline: middle; font-size: 10.2px;" transform="translate(5,189.50488662719727)" y="0" x="0" id="text-entity-GAME-ffe717d5-9fe2-58b5-a684-f2592fc078b6-attr-8-type" class="er entityLabel">float</text><rect height="22.091796875" width="104.25" y="178.45898818969727" x="51.640625" class="er attributeBoxEven"/><text style="dominant-baseline: middle; font-size: 10.2px;" transform="translate(56.640625,189.50488662719727)" y="0" x="0" id="text-entity-GAME-ffe717d5-9fe2-58b5-a684-f2592fc078b6-attr-8-name" class="er entityLabel">player_payout</text><rect height="22.091796875" width="21.5625" y="178.45898818969727" x="155.890625" class="er attributeBoxEven"/><text style="dominant-baseline: middle; font-size: 10.2px;" transform="translate(160.890625,189.50488662719727)" y="0" x="0" id="text-entity-GAME-ffe717d5-9fe2-58b5-a684-f2592fc078b6-attr-8-key" class="er entityLabel"/><rect height="22.091797828674316" width="51.640625" y="200.55078506469727" x="0" class="er attributeBoxOdd"/><text style="dominant-baseline: middle; font-size: 10.2px;" transform="translate(5,211.59668397903442)" y="0" x="0" id="text-entity-GAME-ffe717d5-9fe2-58b5-a684-f2592fc078b6-attr-9-type" class="er entityLabel">string</text><rect height="22.091797828674316" width="104.25" y="200.55078506469727" x="51.640625" class="er attributeBoxOdd"/><text style="dominant-baseline: middle; font-size: 10.2px;" transform="translate(56.640625,211.59668397903442)" y="0" x="0" id="text-entity-GAME-ffe717d5-9fe2-58b5-a684-f2592fc078b6-attr-9-name" class="er entityLabel">game_outcome</text><rect height="22.091797828674316" width="21.5625" y="200.55078506469727" x="155.890625" class="er attributeBoxOdd"/><text style="dominant-baseline: middle; font-size: 10.2px;" transform="translate(160.890625,211.59668397903442)" y="0" x="0" id="text-entity-GAME-ffe717d5-9fe2-58b5-a684-f2592fc078b6-attr-9-key" class="er entityLabel"/><rect height="22.091797828674316" width="51.640625" y="222.64258289337158" x="0" class="er attributeBoxEven"/><text style="dominant-baseline: middle; font-size: 10.2px;" transform="translate(5,233.68848180770874)" y="0" x="0" id="text-entity-GAME-ffe717d5-9fe2-58b5-a684-f2592fc078b6-attr-10-type" class="er entityLabel">string</text><rect height="22.091797828674316" width="104.25" y="222.64258289337158" x="51.640625" class="er attributeBoxEven"/><text style="dominant-baseline: middle; font-size: 10.2px;" transform="translate(56.640625,233.68848180770874)" y="0" x="0" id="text-entity-GAME-ffe717d5-9fe2-58b5-a684-f2592fc078b6-attr-10-name" class="er entityLabel">player_bet</text><rect height="22.091797828674316" width="21.5625" y="222.64258289337158" x="155.890625" class="er attributeBoxEven"/><text style="dominant-baseline: middle; font-size: 10.2px;" transform="translate(160.890625,233.68848180770874)" y="0" x="0" id="text-entity-GAME-ffe717d5-9fe2-58b5-a684-f2592fc078b6-attr-10-key" class="er entityLabel"/><rect height="22.091797828674316" width="51.640625" y="244.7343807220459" x="0" class="er attributeBoxOdd"/><text style="dominant-baseline: middle; font-size: 10.2px;" transform="translate(5,255.78027963638306)" y="0" x="0" id="text-entity-GAME-ffe717d5-9fe2-58b5-a684-f2592fc078b6-attr-11-type" class="er entityLabel">string</text><rect height="22.091797828674316" width="104.25" y="244.7343807220459" x="51.640625" class="er attributeBoxOdd"/><text style="dominant-baseline: middle; font-size: 10.2px;" transform="translate(56.640625,255.78027963638306)" y="0" x="0" id="text-entity-GAME-ffe717d5-9fe2-58b5-a684-f2592fc078b6-attr-11-name" class="er entityLabel">player_bet_outcome</text><rect height="22.091797828674316" width="21.5625" y="244.7343807220459" x="155.890625" class="er attributeBoxOdd"/><text style="dominant-baseline: middle; font-size: 10.2px;" transform="translate(160.890625,255.78027963638306)" y="0" x="0" id="text-entity-GAME-ffe717d5-9fe2-58b5-a684-f2592fc078b6-attr-11-key" class="er entityLabel"/><rect height="22.091797828674316" width="51.640625" y="266.8261785507202" x="0" class="er attributeBoxEven"/><text style="dominant-baseline: middle; font-size: 10.2px;" transform="translate(5,277.8720774650574)" y="0" x="0" id="text-entity-GAME-ffe717d5-9fe2-58b5-a684-f2592fc078b6-attr-12-type" class="er entityLabel">string</text><rect height="22.091797828674316" width="104.25" y="266.8261785507202" x="51.640625" class="er attributeBoxEven"/><text style="dominant-baseline: middle; font-size: 10.2px;" transform="translate(56.640625,277.8720774650574)" y="0" x="0" id="text-entity-GAME-ffe717d5-9fe2-58b5-a684-f2592fc078b6-attr-12-name" class="er entityLabel">player_id</text><rect height="22.091797828674316" width="21.5625" y="266.8261785507202" x="155.890625" class="er attributeBoxEven"/><text style="dominant-baseline: middle; font-size: 10.2px;" transform="translate(160.890625,277.8720774650574)" y="0" x="0" id="text-entity-GAME-ffe717d5-9fe2-58b5-a684-f2592fc078b6-attr-12-key" class="er entityLabel">FK</text></g><g transform="translate(277.203125,654.28515625 )" id="entity-PLAYERHAND-013120bc-5559-5a45-8bcf-85359a188307"><rect height="156.55078601837158" width="154.53125" y="0" x="0" class="er entityBox"/><text style="dominant-baseline: middle; text-anchor: middle; font-size: 12px;" transform="translate(77.265625,12)" y="0" x="0" id="text-entity-PLAYERHAND-013120bc-5559-5a45-8bcf-85359a188307" class="er entityLabel">PLAYER_HAND</text><rect height="22.091797828674316" width="35.75" y="24" x="0" class="er attributeBoxOdd"/><text style="dominant-baseline: middle; font-size: 10.2px;" transform="translate(5,35.04589891433716)" y="0" x="0" id="text-entity-PLAYERHAND-013120bc-5559-5a45-8bcf-85359a188307-attr-1-type" class="er entityLabel">string</text><rect height="22.091797828674316" width="97.21875" y="24" x="35.75" class="er attributeBoxOdd"/><text style="dominant-baseline: middle; font-size: 10.2px;" transform="translate(40.75,35.04589891433716)" y="0" x="0" id="text-entity-PLAYERHAND-013120bc-5559-5a45-8bcf-85359a188307-attr-1-name" class="er entityLabel">player_hand_id</text><rect height="22.091797828674316" width="21.5625" y="24" x="132.96875" class="er attributeBoxOdd"/><text style="dominant-baseline: middle; font-size: 10.2px;" transform="translate(137.96875,35.04589891433716)" y="0" x="0" id="text-entity-PLAYERHAND-013120bc-5559-5a45-8bcf-85359a188307-attr-1-key" class="er entityLabel">PK</text><rect height="22.091796875" width="35.75" y="46.091797828674316" x="0" class="er attributeBoxEven"/><text style="dominant-baseline: middle; font-size: 10.2px;" transform="translate(5,57.137696266174316)" y="0" x="0" id="text-entity-PLAYERHAND-013120bc-5559-5a45-8bcf-85359a188307-attr-2-type" class="er entityLabel">int</text><rect height="22.091796875" width="97.21875" y="46.091797828674316" x="35.75" class="er attributeBoxEven"/><text style="dominant-baseline: middle; font-size: 10.2px;" transform="translate(40.75,57.137696266174316)" y="0" x="0" id="text-entity-PLAYERHAND-013120bc-5559-5a45-8bcf-85359a188307-attr-2-name" class="er entityLabel">player_hand_count</text><rect height="22.091796875" width="21.5625" y="46.091797828674316" x="132.96875" class="er attributeBoxEven"/><text style="dominant-baseline: middle; font-size: 10.2px;" transform="translate(137.96875,57.137696266174316)" y="0" x="0" id="text-entity-PLAYERHAND-013120bc-5559-5a45-8bcf-85359a188307-attr-2-key" class="er entityLabel">PK</text><rect height="22.091797828674316" width="35.75" y="68.18359470367432" x="0" class="er attributeBoxOdd"/><text style="dominant-baseline: middle; font-size: 10.2px;" transform="translate(5,79.22949361801147)" y="0" x="0" id="text-entity-PLAYERHAND-013120bc-5559-5a45-8bcf-85359a188307-attr-3-type" class="er entityLabel">string</text><rect height="22.091797828674316" width="97.21875" y="68.18359470367432" x="35.75" class="er attributeBoxOdd"/><text style="dominant-baseline: middle; font-size: 10.2px;" transform="translate(40.75,79.22949361801147)" y="0" x="0" id="text-entity-PLAYERHAND-013120bc-5559-5a45-8bcf-85359a188307-attr-3-name" class="er entityLabel">game_id</text><rect height="22.091797828674316" width="21.5625" y="68.18359470367432" x="132.96875" class="er attributeBoxOdd"/><text style="dominant-baseline: middle; font-size: 10.2px;" transform="translate(137.96875,79.22949361801147)" y="0" x="0" id="text-entity-PLAYERHAND-013120bc-5559-5a45-8bcf-85359a188307-attr-3-key" class="er entityLabel">FK</text><rect height="22.091797828674316" width="35.75" y="90.27539253234863" x="0" class="er attributeBoxEven"/><text style="dominant-baseline: middle; font-size: 10.2px;" transform="translate(5,101.32129144668579)" y="0" x="0" id="text-entity-PLAYERHAND-013120bc-5559-5a45-8bcf-85359a188307-attr-4-type" class="er entityLabel">string</text><rect height="22.091797828674316" width="97.21875" y="90.27539253234863" x="35.75" class="er attributeBoxEven"/><text style="dominant-baseline: middle; font-size: 10.2px;" transform="translate(40.75,101.32129144668579)" y="0" x="0" id="text-entity-PLAYERHAND-013120bc-5559-5a45-8bcf-85359a188307-attr-4-name" class="er entityLabel">player_id</text><rect height="22.091797828674316" width="21.5625" y="90.27539253234863" x="132.96875" class="er attributeBoxEven"/><text style="dominant-baseline: middle; font-size: 10.2px;" transform="translate(137.96875,101.32129144668579)" y="0" x="0" id="text-entity-PLAYERHAND-013120bc-5559-5a45-8bcf-85359a188307-attr-4-key" class="er entityLabel">FK</text><rect height="22.091797828674316" width="35.75" y="112.36719036102295" x="0" class="er attributeBoxOdd"/><text style="dominant-baseline: middle; font-size: 10.2px;" transform="translate(5,123.41308927536011)" y="0" x="0" id="text-entity-PLAYERHAND-013120bc-5559-5a45-8bcf-85359a188307-attr-5-type" class="er entityLabel">string</text><rect height="22.091797828674316" width="97.21875" y="112.36719036102295" x="35.75" class="er attributeBoxOdd"/><text style="dominant-baseline: middle; font-size: 10.2px;" transform="translate(40.75,123.41308927536011)" y="0" x="0" id="text-entity-PLAYERHAND-013120bc-5559-5a45-8bcf-85359a188307-attr-5-name" class="er entityLabel">value</text><rect height="22.091797828674316" width="21.5625" y="112.36719036102295" x="132.96875" class="er attributeBoxOdd"/><text style="dominant-baseline: middle; font-size: 10.2px;" transform="translate(137.96875,123.41308927536011)" y="0" x="0" id="text-entity-PLAYERHAND-013120bc-5559-5a45-8bcf-85359a188307-attr-5-key" class="er entityLabel"/><rect height="22.091797828674316" width="35.75" y="134.45898818969727" x="0" class="er attributeBoxEven"/><text style="dominant-baseline: middle; font-size: 10.2px;" transform="translate(5,145.50488710403442)" y="0" x="0" id="text-entity-PLAYERHAND-013120bc-5559-5a45-8bcf-85359a188307-attr-6-type" class="er entityLabel">string</text><rect height="22.091797828674316" width="97.21875" y="134.45898818969727" x="35.75" class="er attributeBoxEven"/><text style="dominant-baseline: middle; font-size: 10.2px;" transform="translate(40.75,145.50488710403442)" y="0" x="0" id="text-entity-PLAYERHAND-013120bc-5559-5a45-8bcf-85359a188307-attr-6-name" class="er entityLabel">rank</text><rect height="22.091797828674316" width="21.5625" y="134.45898818969727" x="132.96875" class="er attributeBoxEven"/><text style="dominant-baseline: middle; font-size: 10.2px;" transform="translate(137.96875,145.50488710403442)" y="0" x="0" id="text-entity-PLAYERHAND-013120bc-5559-5a45-8bcf-85359a188307-attr-6-key" class="er entityLabel"/></g><g transform="translate(20,665.376953125 )" id="entity-BANKERHAND-dbdd9315-5975-5240-a004-f34f7eec1c4d"><rect height="134.36719131469727" width="157.203125" y="0" x="0" class="er entityBox"/><text style="dominant-baseline: middle; text-anchor: middle; font-size: 12px;" transform="translate(78.6015625,12)" y="0" x="0" id="text-entity-BANKERHAND-dbdd9315-5975-5240-a004-f34f7eec1c4d" class="er entityLabel">BANKER_HAND</text><rect height="22.091797828674316" width="35.75" y="24" x="0" class="er attributeBoxOdd"/><text style="dominant-baseline: middle; font-size: 10.2px;" transform="translate(5,35.04589891433716)" y="0" x="0" id="text-entity-BANKERHAND-dbdd9315-5975-5240-a004-f34f7eec1c4d-attr-1-type" class="er entityLabel">string</text><rect height="22.091797828674316" width="99.890625" y="24" x="35.75" class="er attributeBoxOdd"/><text style="dominant-baseline: middle; font-size: 10.2px;" transform="translate(40.75,35.04589891433716)" y="0" x="0" id="text-entity-BANKERHAND-dbdd9315-5975-5240-a004-f34f7eec1c4d-attr-1-name" class="er entityLabel">banker_hand_id</text><rect height="22.091797828674316" width="21.5625" y="24" x="135.640625" class="er attributeBoxOdd"/><text style="dominant-baseline: middle; font-size: 10.2px;" transform="translate(140.640625,35.04589891433716)" y="0" x="0" id="text-entity-BANKERHAND-dbdd9315-5975-5240-a004-f34f7eec1c4d-attr-1-key" class="er entityLabel">PK</text><rect height="22" width="35.75" y="46.091797828674316" x="0" class="er attributeBoxEven"/><text style="dominant-baseline: middle; font-size: 10.2px;" transform="translate(5,57.091797828674316)" y="0" x="0" id="text-entity-BANKERHAND-dbdd9315-5975-5240-a004-f34f7eec1c4d-attr-2-type" class="er entityLabel">int</text><rect height="22" width="99.890625" y="46.091797828674316" x="35.75" class="er attributeBoxEven"/><text style="dominant-baseline: middle; font-size: 10.2px;" transform="translate(40.75,57.091797828674316)" y="0" x="0" id="text-entity-BANKERHAND-dbdd9315-5975-5240-a004-f34f7eec1c4d-attr-2-name" class="er entityLabel">banker_hand_count</text><rect height="22" width="21.5625" y="46.091797828674316" x="135.640625" class="er attributeBoxEven"/><text style="dominant-baseline: middle; font-size: 10.2px;" transform="translate(140.640625,57.091797828674316)" y="0" x="0" id="text-entity-BANKERHAND-dbdd9315-5975-5240-a004-f34f7eec1c4d-attr-2-key" class="er entityLabel">PK</text><rect height="22.091797828674316" width="35.75" y="68.09179782867432" x="0" class="er attributeBoxOdd"/><text style="dominant-baseline: middle; font-size: 10.2px;" transform="translate(5,79.13769674301147)" y="0" x="0" id="text-entity-BANKERHAND-dbdd9315-5975-5240-a004-f34f7eec1c4d-attr-3-type" class="er entityLabel">string</text><rect height="22.091797828674316" width="99.890625" y="68.09179782867432" x="35.75" class="er attributeBoxOdd"/><text style="dominant-baseline: middle; font-size: 10.2px;" transform="translate(40.75,79.13769674301147)" y="0" x="0" id="text-entity-BANKERHAND-dbdd9315-5975-5240-a004-f34f7eec1c4d-attr-3-name" class="er entityLabel">game_id</text><rect height="22.091797828674316" width="21.5625" y="68.09179782867432" x="135.640625" class="er attributeBoxOdd"/><text style="dominant-baseline: middle; font-size: 10.2px;" transform="translate(140.640625,79.13769674301147)" y="0" x="0" id="text-entity-BANKERHAND-dbdd9315-5975-5240-a004-f34f7eec1c4d-attr-3-key" class="er entityLabel">FK</text><rect height="22.091797828674316" width="35.75" y="90.18359565734863" x="0" class="er attributeBoxEven"/><text style="dominant-baseline: middle; font-size: 10.2px;" transform="translate(5,101.22949457168579)" y="0" x="0" id="text-entity-BANKERHAND-dbdd9315-5975-5240-a004-f34f7eec1c4d-attr-4-type" class="er entityLabel">string</text><rect height="22.091797828674316" width="99.890625" y="90.18359565734863" x="35.75" class="er attributeBoxEven"/><text style="dominant-baseline: middle; font-size: 10.2px;" transform="translate(40.75,101.22949457168579)" y="0" x="0" id="text-entity-BANKERHAND-dbdd9315-5975-5240-a004-f34f7eec1c4d-attr-4-name" class="er entityLabel">value</text><rect height="22.091797828674316" width="21.5625" y="90.18359565734863" x="135.640625" class="er attributeBoxEven"/><text style="dominant-baseline: middle; font-size: 10.2px;" transform="translate(140.640625,101.22949457168579)" y="0" x="0" id="text-entity-BANKERHAND-dbdd9315-5975-5240-a004-f34f7eec1c4d-attr-4-key" class="er entityLabel"/><rect height="22.091797828674316" width="35.75" y="112.27539348602295" x="0" class="er attributeBoxOdd"/><text style="dominant-baseline: middle; font-size: 10.2px;" transform="translate(5,123.32129240036011)" y="0" x="0" id="text-entity-BANKERHAND-dbdd9315-5975-5240-a004-f34f7eec1c4d-attr-5-type" class="er entityLabel">string</text><rect height="22.091797828674316" width="99.890625" y="112.27539348602295" x="35.75" class="er attributeBoxOdd"/><text style="dominant-baseline: middle; font-size: 10.2px;" transform="translate(40.75,123.32129240036011)" y="0" x="0" id="text-entity-BANKERHAND-dbdd9315-5975-5240-a004-f34f7eec1c4d-attr-5-name" class="er entityLabel">rank</text><rect height="22.091797828674316" width="21.5625" y="112.27539348602295" x="135.640625" class="er attributeBoxOdd"/><text style="dominant-baseline: middle; font-size: 10.2px;" transform="translate(140.640625,123.32129240036011)" y="0" x="0" id="text-entity-BANKERHAND-dbdd9315-5975-5240-a004-f34f7eec1c4d-attr-5-key" class="er entityLabel"/></g><g transform="translate(548.46484375,676.4228515625 )" id="entity-HANDVALUE-ad1b2511-7e26-547c-b537-ddf777c7a210"><rect height="112.27539253234863" width="156" y="0" x="0" class="er entityBox"/><text style="dominant-baseline: middle; text-anchor: middle; font-size: 12px;" transform="translate(78,12)" y="0" x="0" id="text-entity-HANDVALUE-ad1b2511-7e26-547c-b537-ddf777c7a210" class="er entityLabel">HAND_VALUE</text><rect height="22.091797828674316" width="35.75" y="24" x="0" class="er attributeBoxOdd"/><text style="dominant-baseline: middle; font-size: 10.2px;" transform="translate(5,35.04589891433716)" y="0" x="0" id="text-entity-HANDVALUE-ad1b2511-7e26-547c-b537-ddf777c7a210-attr-1-type" class="er entityLabel">string</text><rect height="22.091797828674316" width="98.6875" y="24" x="35.75" class="er attributeBoxOdd"/><text style="dominant-baseline: middle; font-size: 10.2px;" transform="translate(40.75,35.04589891433716)" y="0" x="0" id="text-entity-HANDVALUE-ad1b2511-7e26-547c-b537-ddf777c7a210-attr-1-name" class="er entityLabel">hand_value_id</text><rect height="22.091797828674316" width="21.5625" y="24" x="134.4375" class="er attributeBoxOdd"/><text style="dominant-baseline: middle; font-size: 10.2px;" transform="translate(139.4375,35.04589891433716)" y="0" x="0" id="text-entity-HANDVALUE-ad1b2511-7e26-547c-b537-ddf777c7a210-attr-1-key" class="er entityLabel">PK</text><rect height="22.091797828674316" width="35.75" y="46.091797828674316" x="0" class="er attributeBoxEven"/><text style="dominant-baseline: middle; font-size: 10.2px;" transform="translate(5,57.137696743011475)" y="0" x="0" id="text-entity-HANDVALUE-ad1b2511-7e26-547c-b537-ddf777c7a210-attr-2-type" class="er entityLabel">string</text><rect height="22.091797828674316" width="98.6875" y="46.091797828674316" x="35.75" class="er attributeBoxEven"/><text style="dominant-baseline: middle; font-size: 10.2px;" transform="translate(40.75,57.137696743011475)" y="0" x="0" id="text-entity-HANDVALUE-ad1b2511-7e26-547c-b537-ddf777c7a210-attr-2-name" class="er entityLabel">game_id</text><rect height="22.091797828674316" width="21.5625" y="46.091797828674316" x="134.4375" class="er attributeBoxEven"/><text style="dominant-baseline: middle; font-size: 10.2px;" transform="translate(139.4375,57.137696743011475)" y="0" x="0" id="text-entity-HANDVALUE-ad1b2511-7e26-547c-b537-ddf777c7a210-attr-2-key" class="er entityLabel">FK</text><rect height="22.091796875" width="35.75" y="68.18359565734863" x="0" class="er attributeBoxOdd"/><text style="dominant-baseline: middle; font-size: 10.2px;" transform="translate(5,79.22949409484863)" y="0" x="0" id="text-entity-HANDVALUE-ad1b2511-7e26-547c-b537-ddf777c7a210-attr-3-type" class="er entityLabel">int</text><rect height="22.091796875" width="98.6875" y="68.18359565734863" x="35.75" class="er attributeBoxOdd"/><text style="dominant-baseline: middle; font-size: 10.2px;" transform="translate(40.75,79.22949409484863)" y="0" x="0" id="text-entity-HANDVALUE-ad1b2511-7e26-547c-b537-ddf777c7a210-attr-3-name" class="er entityLabel">player_hand_value</text><rect height="22.091796875" width="21.5625" y="68.18359565734863" x="134.4375" class="er attributeBoxOdd"/><text style="dominant-baseline: middle; font-size: 10.2px;" transform="translate(139.4375,79.22949409484863)" y="0" x="0" id="text-entity-HANDVALUE-ad1b2511-7e26-547c-b537-ddf777c7a210-attr-3-key" class="er entityLabel"/><rect height="22" width="35.75" y="90.27539253234863" x="0" class="er attributeBoxEven"/><text style="dominant-baseline: middle; font-size: 10.2px;" transform="translate(5,101.27539253234863)" y="0" x="0" id="text-entity-HANDVALUE-ad1b2511-7e26-547c-b537-ddf777c7a210-attr-4-type" class="er entityLabel">int</text><rect height="22" width="98.6875" y="90.27539253234863" x="35.75" class="er attributeBoxEven"/><text style="dominant-baseline: middle; font-size: 10.2px;" transform="translate(40.75,101.27539253234863)" y="0" x="0" id="text-entity-HANDVALUE-ad1b2511-7e26-547c-b537-ddf777c7a210-attr-4-name" class="er entityLabel">banker_hand_value</text><rect height="22" width="21.5625" y="90.27539253234863" x="134.4375" class="er attributeBoxEven"/><text style="dominant-baseline: middle; font-size: 10.2px;" transform="translate(139.4375,101.27539253234863)" y="0" x="0" id="text-entity-HANDVALUE-ad1b2511-7e26-547c-b537-ddf777c7a210-attr-4-key" class="er entityLabel"/></g><g transform="translate(804.46484375,643.28515625 )" id="entity-TRANSACTION-33a4f79e-93d2-5b31-be7e-7dfe596c998b"><rect height="178.55078506469727" width="160.6875" y="0" x="0" class="er entityBox"/><text style="dominant-baseline: middle; text-anchor: middle; font-size: 12px;" transform="translate(80.34375,12)" y="0" x="0" id="text-entity-TRANSACTION-33a4f79e-93d2-5b31-be7e-7dfe596c998b" class="er entityLabel">TRANSACTION</text><rect height="22.091797828674316" width="51.640625" y="24" x="0" class="er attributeBoxOdd"/><text style="dominant-baseline: middle; font-size: 10.2px;" transform="translate(5,35.04589891433716)" y="0" x="0" id="text-entity-TRANSACTION-33a4f79e-93d2-5b31-be7e-7dfe596c998b-attr-1-type" class="er entityLabel">string</text><rect height="22.091797828674316" width="87.484375" y="24" x="51.640625" class="er attributeBoxOdd"/><text style="dominant-baseline: middle; font-size: 10.2px;" transform="translate(56.640625,35.04589891433716)" y="0" x="0" id="text-entity-TRANSACTION-33a4f79e-93d2-5b31-be7e-7dfe596c998b-attr-1-name" class="er entityLabel">transaction_id</text><rect height="22.091797828674316" width="21.5625" y="24" x="139.125" class="er attributeBoxOdd"/><text style="dominant-baseline: middle; font-size: 10.2px;" transform="translate(144.125,35.04589891433716)" y="0" x="0" id="text-entity-TRANSACTION-33a4f79e-93d2-5b31-be7e-7dfe596c998b-attr-1-key" class="er entityLabel">PK</text><rect height="22.091797828674316" width="51.640625" y="46.091797828674316" x="0" class="er attributeBoxEven"/><text style="dominant-baseline: middle; font-size: 10.2px;" transform="translate(5,57.137696743011475)" y="0" x="0" id="text-entity-TRANSACTION-33a4f79e-93d2-5b31-be7e-7dfe596c998b-attr-2-type" class="er entityLabel">string</text><rect height="22.091797828674316" width="87.484375" y="46.091797828674316" x="51.640625" class="er attributeBoxEven"/><text style="dominant-baseline: middle; font-size: 10.2px;" transform="translate(56.640625,57.137696743011475)" y="0" x="0" id="text-entity-TRANSACTION-33a4f79e-93d2-5b31-be7e-7dfe596c998b-attr-2-name" class="er entityLabel">game_id</text><rect height="22.091797828674316" width="21.5625" y="46.091797828674316" x="139.125" class="er attributeBoxEven"/><text style="dominant-baseline: middle; font-size: 10.2px;" transform="translate(144.125,57.137696743011475)" y="0" x="0" id="text-entity-TRANSACTION-33a4f79e-93d2-5b31-be7e-7dfe596c998b-attr-2-key" class="er entityLabel">FK</text><rect height="22.091797828674316" width="51.640625" y="68.18359565734863" x="0" class="er attributeBoxOdd"/><text style="dominant-baseline: middle; font-size: 10.2px;" transform="translate(5,79.22949457168579)" y="0" x="0" id="text-entity-TRANSACTION-33a4f79e-93d2-5b31-be7e-7dfe596c998b-attr-3-type" class="er entityLabel">string</text><rect height="22.091797828674316" width="87.484375" y="68.18359565734863" x="51.640625" class="er attributeBoxOdd"/><text style="dominant-baseline: middle; font-size: 10.2px;" transform="translate(56.640625,79.22949457168579)" y="0" x="0" id="text-entity-TRANSACTION-33a4f79e-93d2-5b31-be7e-7dfe596c998b-attr-3-name" class="er entityLabel">player_id</text><rect height="22.091797828674316" width="21.5625" y="68.18359565734863" x="139.125" class="er attributeBoxOdd"/><text style="dominant-baseline: middle; font-size: 10.2px;" transform="translate(144.125,79.22949457168579)" y="0" x="0" id="text-entity-TRANSACTION-33a4f79e-93d2-5b31-be7e-7dfe596c998b-attr-3-key" class="er entityLabel">FK</text><rect height="22.091796875" width="51.640625" y="90.27539348602295" x="0" class="er attributeBoxEven"/><text style="dominant-baseline: middle; font-size: 10.2px;" transform="translate(5,101.32129192352295)" y="0" x="0" id="text-entity-TRANSACTION-33a4f79e-93d2-5b31-be7e-7dfe596c998b-attr-4-type" class="er entityLabel">float</text><rect height="22.091796875" width="87.484375" y="90.27539348602295" x="51.640625" class="er attributeBoxEven"/><text style="dominant-baseline: middle; font-size: 10.2px;" transform="translate(56.640625,101.32129192352295)" y="0" x="0" id="text-entity-TRANSACTION-33a4f79e-93d2-5b31-be7e-7dfe596c998b-attr-4-name" class="er entityLabel">player_wager</text><rect height="22.091796875" width="21.5625" y="90.27539348602295" x="139.125" class="er attributeBoxEven"/><text style="dominant-baseline: middle; font-size: 10.2px;" transform="translate(144.125,101.32129192352295)" y="0" x="0" id="text-entity-TRANSACTION-33a4f79e-93d2-5b31-be7e-7dfe596c998b-attr-4-key" class="er entityLabel"/><rect height="22.091796875" width="51.640625" y="112.36719036102295" x="0" class="er attributeBoxOdd"/><text style="dominant-baseline: middle; font-size: 10.2px;" transform="translate(5,123.41308879852295)" y="0" x="0" id="text-entity-TRANSACTION-33a4f79e-93d2-5b31-be7e-7dfe596c998b-attr-5-type" class="er entityLabel">float</text><rect height="22.091796875" width="87.484375" y="112.36719036102295" x="51.640625" class="er attributeBoxOdd"/><text style="dominant-baseline: middle; font-size: 10.2px;" transform="translate(56.640625,123.41308879852295)" y="0" x="0" id="text-entity-TRANSACTION-33a4f79e-93d2-5b31-be7e-7dfe596c998b-attr-5-name" class="er entityLabel">player_payout</text><rect height="22.091796875" width="21.5625" y="112.36719036102295" x="139.125" class="er attributeBoxOdd"/><text style="dominant-baseline: middle; font-size: 10.2px;" transform="translate(144.125,123.41308879852295)" y="0" x="0" id="text-entity-TRANSACTION-33a4f79e-93d2-5b31-be7e-7dfe596c998b-attr-5-key" class="er entityLabel"/><rect height="22.091797828674316" width="51.640625" y="134.45898723602295" x="0" class="er attributeBoxEven"/><text style="dominant-baseline: middle; font-size: 10.2px;" transform="translate(5,145.5048861503601)" y="0" x="0" id="text-entity-TRANSACTION-33a4f79e-93d2-5b31-be7e-7dfe596c998b-attr-6-type" class="er entityLabel">string</text><rect height="22.091797828674316" width="87.484375" y="134.45898723602295" x="51.640625" class="er attributeBoxEven"/><text style="dominant-baseline: middle; font-size: 10.2px;" transform="translate(56.640625,145.5048861503601)" y="0" x="0" id="text-entity-TRANSACTION-33a4f79e-93d2-5b31-be7e-7dfe596c998b-attr-6-name" class="er entityLabel">transaction_type</text><rect height="22.091797828674316" width="21.5625" y="134.45898723602295" x="139.125" class="er attributeBoxEven"/><text style="dominant-baseline: middle; font-size: 10.2px;" transform="translate(144.125,145.5048861503601)" y="0" x="0" id="text-entity-TRANSACTION-33a4f79e-93d2-5b31-be7e-7dfe596c998b-attr-6-key" class="er entityLabel"/><rect height="22" width="51.640625" y="156.55078506469727" x="0" class="er attributeBoxOdd"/><text style="dominant-baseline: middle; font-size: 10.2px;" transform="translate(5,167.55078506469727)" y="0" x="0" id="text-entity-TRANSACTION-33a4f79e-93d2-5b31-be7e-7dfe596c998b-attr-7-type" class="er entityLabel">datetime</text><rect height="22" width="87.484375" y="156.55078506469727" x="51.640625" class="er attributeBoxOdd"/><text style="dominant-baseline: middle; font-size: 10.2px;" transform="translate(56.640625,167.55078506469727)" y="0" x="0" id="text-entity-TRANSACTION-33a4f79e-93d2-5b31-be7e-7dfe596c998b-attr-7-name" class="er entityLabel">transaction_date</text><rect height="22" width="21.5625" y="156.55078506469727" x="139.125" class="er attributeBoxOdd"/><text style="dominant-baseline: middle; font-size: 10.2px;" transform="translate(144.125,167.55078506469727)" y="0" x="0" id="text-entity-TRANSACTION-33a4f79e-93d2-5b31-be7e-7dfe596c998b-attr-7-key" class="er entityLabel"/></g><rect height="14" width="80.625" y="197.36700439453125" x="536.1525268554688" class="er relationshipLabelBox"/><text style="text-anchor: middle; dominant-baseline: middle; font-size: 12px;" y="204.36700439453125" x="576.4650268554688" id="rel1" class="er relationshipLabel">participates_in</text><rect height="14" width="44.109375" y="587.3419189453125" x="425.8587951660156" class="er relationshipLabelBox"/><text style="text-anchor: middle; dominant-baseline: middle; font-size: 12px;" y="594.3419189453125" x="447.9134826660156" id="rel2" class="er relationshipLabel">includes</text><rect height="14" width="26.796875" y="322.0708312988281" x="264.9228210449219" class="er relationshipLabelBox"/><text style="text-anchor: middle; dominant-baseline: middle; font-size: 12px;" y="329.0708312988281" x="278.3212585449219" id="rel3" class="er relationshipLabel">owns</text><rect height="14" width="44.109375" y="518.5560302734375" x="248.66110229492188" class="er relationshipLabelBox"/><text style="text-anchor: middle; dominant-baseline: middle; font-size: 12px;" y="525.5560302734375" x="270.7157897949219" id="rel4" class="er relationshipLabel">includes</text><rect height="14" width="17.71875" y="602.3018798828125" x="616.3026123046875" class="er relationshipLabelBox"/><text style="text-anchor: middle; dominant-baseline: middle; font-size: 12px;" y="609.3018798828125" x="625.1619873046875" id="rel5" class="er relationshipLabel">has</text><rect height="14" width="33.734375" y="290.2500915527344" x="910.7059326171875" class="er relationshipLabelBox"/><text style="text-anchor: middle; dominant-baseline: middle; font-size: 12px;" y="297.2500915527344" x="927.5731201171875" id="rel6" class="er relationshipLabel">makes</text><rect height="14" width="20.859375" y="545.673828125" x="745.710693359375" class="er relationshipLabelBox"/><text style="text-anchor: middle; dominant-baseline: middle; font-size: 12px;" y="552.673828125" x="756.140380859375" id="rel7" class="er relationshipLabel">logs</text></svg>