<svg aria-roledescription="er" role="graphics-document document" viewBox="0 0 725.62109375 811.184814453125" style="max-width: 725.621px; background-color: white;" xmlns:xlink="http://www.w3.org/1999/xlink" xmlns="http://www.w3.org/2000/svg" width="100%" id="my-svg"><style>#my-svg{font-family:"trebuchet ms",verdana,arial,sans-serif;font-size:16px;fill:#333;}#my-svg .error-icon{fill:#552222;}#my-svg .error-text{fill:#552222;stroke:#552222;}#my-svg .edge-thickness-normal{stroke-width:1px;}#my-svg .edge-thickness-thick{stroke-width:3.5px;}#my-svg .edge-pattern-solid{stroke-dasharray:0;}#my-svg .edge-thickness-invisible{stroke-width:0;fill:none;}#my-svg .edge-pattern-dashed{stroke-dasharray:3;}#my-svg .edge-pattern-dotted{stroke-dasharray:2;}#my-svg .marker{fill:#333333;stroke:#333333;}#my-svg .marker.cross{stroke:#333333;}#my-svg svg{font-family:"trebuchet ms",verdana,arial,sans-serif;font-size:16px;}#my-svg p{margin:0;}#my-svg .entityBox{fill:#ECECFF;stroke:#9370DB;}#my-svg .attributeBoxOdd{fill:#ffffff;stroke:#9370DB;}#my-svg .attributeBoxEven{fill:#f2f2f2;stroke:#9370DB;}#my-svg .relationshipLabelBox{fill:hsl(80, 100%, 96.2745098039%);opacity:0.7;background-color:hsl(80, 100%, 96.2745098039%);}#my-svg .relationshipLabelBox rect{opacity:0.5;}#my-svg .relationshipLine{stroke:#333333;}#my-svg .entityTitleText{text-anchor:middle;font-size:18px;fill:#333;}#my-svg #MD_PARENT_START{fill:#f5f5f5!important;stroke:#333333!important;stroke-width:1;}#my-svg #MD_PARENT_END{fill:#f5f5f5!important;stroke:#333333!important;stroke-width:1;}#my-svg :root{--mermaid-font-family:"trebuchet ms",verdana,arial,sans-serif;}</style><g/><defs><marker orient="auto" markerHeight="240" markerWidth="190" refY="7" refX="0" id="MD_PARENT_START"><path d="M 18,7 L9,13 L1,7 L9,1 Z"/></marker></defs><defs><marker orient="auto" markerHeight="28" markerWidth="20" refY="7" refX="19" id="MD_PARENT_END"><path d="M 18,7 L9,13 L1,7 L9,1 Z"/></marker></defs><defs><marker orient="auto" markerHeight="18" markerWidth="18" refY="9" refX="0" id="ONLY_ONE_START"><path d="M9,0 L9,18 M15,0 L15,18" fill="none" stroke="gray"/></marker></defs><defs><marker orient="auto" markerHeight="18" markerWidth="18" refY="9" refX="18" id="ONLY_ONE_END"><path d="M3,0 L3,18 M9,0 L9,18" fill="none" stroke="gray"/></marker></defs><defs><marker orient="auto" markerHeight="18" markerWidth="30" refY="9" refX="0" id="ZERO_OR_ONE_START"><circle r="6" cy="9" cx="21" fill="white" stroke="gray"/><path d="M9,0 L9,18" fill="none" stroke="gray"/></marker></defs><defs><marker orient="auto" markerHeight="18" markerWidth="30" refY="9" refX="30" id="ZERO_OR_ONE_END"><circle r="6" cy="9" cx="9" fill="white" stroke="gray"/><path d="M21,0 L21,18" fill="none" stroke="gray"/></marker></defs><defs><marker orient="auto" markerHeight="36" markerWidth="45" refY="18" refX="18" id="ONE_OR_MORE_START"><path d="M0,18 Q 18,0 36,18 Q 18,36 0,18 M42,9 L42,27" fill="none" stroke="gray"/></marker></defs><defs><marker orient="auto" markerHeight="36" markerWidth="45" refY="18" refX="27" id="ONE_OR_MORE_END"><path d="M3,9 L3,27 M9,18 Q27,0 45,18 Q27,36 9,18" fill="none" stroke="gray"/></marker></defs><defs><marker orient="auto" markerHeight="36" markerWidth="57" refY="18" refX="18" id="ZERO_OR_MORE_START"><circle r="6" cy="18" cx="48" fill="white" stroke="gray"/><path d="M0,18 Q18,0 36,18 Q18,36 0,18" fill="none" stroke="gray"/></marker></defs><defs><marker orient="auto" markerHeight="36" markerWidth="57" refY="18" refX="39" id="ZERO_OR_MORE_END"><circle r="6" cy="18" cx="9" fill="white" stroke="gray"/><path d="M21,18 Q39,0 57,18 Q39,36 21,18" fill="none" stroke="gray"/></marker></defs><path style="stroke: gray; fill: none;" marker-start="url(#ONLY_ONE_START)" marker-end="url(#ZERO_OR_MORE_END)" d="M135.684,88.263L130.732,96.597C125.779,104.93,115.874,121.597,110.921,141.941C105.969,162.285,105.969,186.307,105.969,198.318L105.969,210.329" class="er relationshipLine"/><path style="stroke: gray; fill: none;" marker-start="url(#ONLY_ONE_START)" marker-end="url(#ZERO_OR_MORE_END)" d="M218.775,88.263L234.109,96.597C249.444,104.93,280.113,121.597,303.947,138.263C327.782,154.93,344.783,171.597,353.284,179.93L361.784,188.263" class="er relationshipLine"/><path style="stroke: gray; fill: none;" marker-start="url(#ONLY_ONE_START)" marker-end="url(#ZERO_OR_MORE_END)" d="M491.551,88.197L491.551,96.542C491.551,104.886,491.551,121.575,488.301,138.252C485.05,154.93,478.55,171.597,475.3,179.93L472.05,188.263" class="er relationshipLine"/><path style="stroke: gray; fill: none;" marker-start="url(#ONLY_ONE_START)" marker-end="url(#ZERO_OR_MORE_END)" d="M105.969,322.592L105.969,334.603C105.969,346.614,105.969,370.636,123.992,393.235C142.014,415.834,178.06,437.01,196.083,447.598L214.105,458.186" class="er relationshipLine"/><path style="stroke: gray; fill: none;" marker-start="url(#ONLY_ONE_START)" marker-end="url(#ZERO_OR_MORE_END)" d="M441.551,344.658L441.551,352.992C441.551,361.325,441.551,377.992,427.854,395.72C414.158,413.449,386.764,432.24,373.068,441.636L359.371,451.031" class="er relationshipLine"/><path style="stroke: gray; fill: none;" marker-start="url(#ONLY_ONE_START)" marker-end="url(#ZERO_OR_MORE_END)" d="M286.738,556.856L286.738,565.222C286.738,573.588,286.738,590.321,297.265,607.02C307.792,623.72,328.845,640.386,339.372,648.72L349.899,657.053" class="er relationshipLine"/><path style="stroke: gray; fill: none;" marker-start="url(#ONLY_ONE_START)" marker-end="url(#ZERO_OR_MORE_END)" d="M582.496,557.053L582.496,565.386C582.496,573.72,582.496,590.386,571.969,607.053C561.443,623.72,540.389,640.386,529.862,648.72L519.336,657.053" class="er relationshipLine"/><g transform="translate(65.5546875,20 )" id="entity-EstadoCivil-a5dbb66d-b55d-5652-bd2f-d780e952845d"><rect height="68.2632827758789" width="180.828125" y="0" x="0" class="er entityBox"/><text style="dominant-baseline: middle; text-anchor: middle; font-size: 12px;" transform="translate(90.4140625,12)" y="0" x="0" id="text-entity-EstadoCivil-a5dbb66d-b55d-5652-bd2f-d780e952845d" class="er entityLabel">Estado_Civil</text><rect height="22.131641387939453" width="62.46875" y="24" x="0" class="er attributeBoxOdd"/><text style="dominant-baseline: middle; font-size: 10.2px;" transform="translate(5,35.06582069396973)" y="0" x="0" id="text-entity-EstadoCivil-a5dbb66d-b55d-5652-bd2f-d780e952845d-attr-1-type" class="er entityLabel">char(1)</text><rect height="22.131641387939453" width="96.796875" y="24" x="62.46875" class="er attributeBoxOdd"/><text style="dominant-baseline: middle; font-size: 10.2px;" transform="translate(67.46875,35.06582069396973)" y="0" x="0" id="text-entity-EstadoCivil-a5dbb66d-b55d-5652-bd2f-d780e952845d-attr-1-name" class="er entityLabel">Cd_Estado_Civil</text><rect height="22.131641387939453" width="21.5625" y="24" x="159.265625" class="er attributeBoxOdd"/><text style="dominant-baseline: middle; font-size: 10.2px;" transform="translate(164.265625,35.06582069396973)" y="0" x="0" id="text-entity-EstadoCivil-a5dbb66d-b55d-5652-bd2f-d780e952845d-attr-1-key" class="er entityLabel">PK</text><rect height="22.131641387939453" width="62.46875" y="46.13164138793945" x="0" class="er attributeBoxEven"/><text style="dominant-baseline: middle; font-size: 10.2px;" transform="translate(5,57.19746208190918)" y="0" x="0" id="text-entity-EstadoCivil-a5dbb66d-b55d-5652-bd2f-d780e952845d-attr-2-type" class="er entityLabel">varchar(50)</text><rect height="22.131641387939453" width="96.796875" y="46.13164138793945" x="62.46875" class="er attributeBoxEven"/><text style="dominant-baseline: middle; font-size: 10.2px;" transform="translate(67.46875,57.19746208190918)" y="0" x="0" id="text-entity-EstadoCivil-a5dbb66d-b55d-5652-bd2f-d780e952845d-attr-2-name" class="er entityLabel">Nome_Estado_Civil</text><rect height="22.131641387939453" width="21.5625" y="46.13164138793945" x="159.265625" class="er attributeBoxEven"/><text style="dominant-baseline: middle; font-size: 10.2px;" transform="translate(164.265625,57.19746208190918)" y="0" x="0" id="text-entity-EstadoCivil-a5dbb66d-b55d-5652-bd2f-d780e952845d-attr-2-key" class="er entityLabel"/></g><g transform="translate(20,210.32910537719727 )" id="entity-Clientes-c3b7b470-d6c9-5283-8266-3c9bc1119cee"><rect height="112.2632827758789" width="171.9375" y="0" x="0" class="er entityBox"/><text style="dominant-baseline: middle; text-anchor: middle; font-size: 12px;" transform="translate(85.96875,12)" y="0" x="0" id="text-entity-Clientes-c3b7b470-d6c9-5283-8266-3c9bc1119cee" class="er entityLabel">Clientes</text><rect height="22" width="67.8125" y="24" x="0" class="er attributeBoxOdd"/><text style="dominant-baseline: middle; font-size: 10.2px;" transform="translate(5,35)" y="0" x="0" id="text-entity-Clientes-c3b7b470-d6c9-5283-8266-3c9bc1119cee-attr-1-type" class="er entityLabel">int</text><rect height="22" width="82.5625" y="24" x="67.8125" class="er attributeBoxOdd"/><text style="dominant-baseline: middle; font-size: 10.2px;" transform="translate(72.8125,35)" y="0" x="0" id="text-entity-Clientes-c3b7b470-d6c9-5283-8266-3c9bc1119cee-attr-1-name" class="er entityLabel">Id_Cliente</text><rect height="22" width="21.5625" y="24" x="150.375" class="er attributeBoxOdd"/><text style="dominant-baseline: middle; font-size: 10.2px;" transform="translate(155.375,35)" y="0" x="0" id="text-entity-Clientes-c3b7b470-d6c9-5283-8266-3c9bc1119cee-attr-1-key" class="er entityLabel">PK</text><rect height="22.131641387939453" width="67.8125" y="46" x="0" class="er attributeBoxEven"/><text style="dominant-baseline: middle; font-size: 10.2px;" transform="translate(5,57.06582069396973)" y="0" x="0" id="text-entity-Clientes-c3b7b470-d6c9-5283-8266-3c9bc1119cee-attr-2-type" class="er entityLabel">varchar(100)</text><rect height="22.131641387939453" width="82.5625" y="46" x="67.8125" class="er attributeBoxEven"/><text style="dominant-baseline: middle; font-size: 10.2px;" transform="translate(72.8125,57.06582069396973)" y="0" x="0" id="text-entity-Clientes-c3b7b470-d6c9-5283-8266-3c9bc1119cee-attr-2-name" class="er entityLabel">Nome_Cliente</text><rect height="22.131641387939453" width="21.5625" y="46" x="150.375" class="er attributeBoxEven"/><text style="dominant-baseline: middle; font-size: 10.2px;" transform="translate(155.375,57.06582069396973)" y="0" x="0" id="text-entity-Clientes-c3b7b470-d6c9-5283-8266-3c9bc1119cee-attr-2-key" class="er entityLabel"/><rect height="22" width="67.8125" y="68.13164138793945" x="0" class="er attributeBoxOdd"/><text style="dominant-baseline: middle; font-size: 10.2px;" transform="translate(5,79.13164138793945)" y="0" x="0" id="text-entity-Clientes-c3b7b470-d6c9-5283-8266-3c9bc1119cee-attr-3-type" class="er entityLabel">date</text><rect height="22" width="82.5625" y="68.13164138793945" x="67.8125" class="er attributeBoxOdd"/><text style="dominant-baseline: middle; font-size: 10.2px;" transform="translate(72.8125,79.13164138793945)" y="0" x="0" id="text-entity-Clientes-c3b7b470-d6c9-5283-8266-3c9bc1119cee-attr-3-name" class="er entityLabel">Dt_Nascimento</text><rect height="22" width="21.5625" y="68.13164138793945" x="150.375" class="er attributeBoxOdd"/><text style="dominant-baseline: middle; font-size: 10.2px;" transform="translate(155.375,79.13164138793945)" y="0" x="0" id="text-entity-Clientes-c3b7b470-d6c9-5283-8266-3c9bc1119cee-attr-3-key" class="er entityLabel"/><rect height="22.131641387939453" width="67.8125" y="90.13164138793945" x="0" class="er attributeBoxEven"/><text style="dominant-baseline: middle; font-size: 10.2px;" transform="translate(5,101.19746208190918)" y="0" x="0" id="text-entity-Clientes-c3b7b470-d6c9-5283-8266-3c9bc1119cee-attr-4-type" class="er entityLabel">char(1)</text><rect height="22.131641387939453" width="82.5625" y="90.13164138793945" x="67.8125" class="er attributeBoxEven"/><text style="dominant-baseline: middle; font-size: 10.2px;" transform="translate(72.8125,101.19746208190918)" y="0" x="0" id="text-entity-Clientes-c3b7b470-d6c9-5283-8266-3c9bc1119cee-attr-4-name" class="er entityLabel">Cd_Estado_Civil</text><rect height="22.131641387939453" width="21.5625" y="90.13164138793945" x="150.375" class="er attributeBoxEven"/><text style="dominant-baseline: middle; font-size: 10.2px;" transform="translate(155.375,101.19746208190918)" y="0" x="0" id="text-entity-Clientes-c3b7b470-d6c9-5283-8266-3c9bc1119cee-attr-4-key" class="er entityLabel">FK</text></g><g transform="translate(420.42578125,20.06582260131836 )" id="entity-Filiais-96ffb12b-5eff-5506-8b61-1237e04a8e4f"><rect height="68.13164138793945" width="142.25" y="0" x="0" class="er entityBox"/><text style="dominant-baseline: middle; text-anchor: middle; font-size: 12px;" transform="translate(71.125,12)" y="0" x="0" id="text-entity-Filiais-96ffb12b-5eff-5506-8b61-1237e04a8e4f" class="er entityLabel">Filiais</text><rect height="22" width="67.8125" y="24" x="0" class="er attributeBoxOdd"/><text style="dominant-baseline: middle; font-size: 10.2px;" transform="translate(5,35)" y="0" x="0" id="text-entity-Filiais-96ffb12b-5eff-5506-8b61-1237e04a8e4f-attr-1-type" class="er entityLabel">int</text><rect height="22" width="52.875" y="24" x="67.8125" class="er attributeBoxOdd"/><text style="dominant-baseline: middle; font-size: 10.2px;" transform="translate(72.8125,35)" y="0" x="0" id="text-entity-Filiais-96ffb12b-5eff-5506-8b61-1237e04a8e4f-attr-1-name" class="er entityLabel">Id_Filial</text><rect height="22" width="21.5625" y="24" x="120.6875" class="er attributeBoxOdd"/><text style="dominant-baseline: middle; font-size: 10.2px;" transform="translate(125.6875,35)" y="0" x="0" id="text-entity-Filiais-96ffb12b-5eff-5506-8b61-1237e04a8e4f-attr-1-key" class="er entityLabel">PK</text><rect height="22.131641387939453" width="67.8125" y="46" x="0" class="er attributeBoxEven"/><text style="dominant-baseline: middle; font-size: 10.2px;" transform="translate(5,57.06582069396973)" y="0" x="0" id="text-entity-Filiais-96ffb12b-5eff-5506-8b61-1237e04a8e4f-attr-2-type" class="er entityLabel">varchar(100)</text><rect height="22.131641387939453" width="52.875" y="46" x="67.8125" class="er attributeBoxEven"/><text style="dominant-baseline: middle; font-size: 10.2px;" transform="translate(72.8125,57.06582069396973)" y="0" x="0" id="text-entity-Filiais-96ffb12b-5eff-5506-8b61-1237e04a8e4f-attr-2-name" class="er entityLabel">Nm_Filial</text><rect height="22.131641387939453" width="21.5625" y="46" x="120.6875" class="er attributeBoxEven"/><text style="dominant-baseline: middle; font-size: 10.2px;" transform="translate(125.6875,57.06582069396973)" y="0" x="0" id="text-entity-Filiais-96ffb12b-5eff-5506-8b61-1237e04a8e4f-attr-2-key" class="er entityLabel"/></g><g transform="translate(317.89453125,188.2632827758789 )" id="entity-Funcionarios-b9816270-c59b-57ef-b016-4464a15bbafe"><rect height="156.39492511749268" width="247.3125" y="0" x="0" class="er entityBox"/><text style="dominant-baseline: middle; text-anchor: middle; font-size: 12px;" transform="translate(123.65625,12)" y="0" x="0" id="text-entity-Funcionarios-b9816270-c59b-57ef-b016-4464a15bbafe" class="er entityLabel">Funcionarios</text><rect height="22" width="67.8125" y="24" x="0" class="er attributeBoxOdd"/><text style="dominant-baseline: middle; font-size: 10.2px;" transform="translate(5,35)" y="0" x="0" id="text-entity-Funcionarios-b9816270-c59b-57ef-b016-4464a15bbafe-attr-1-type" class="er entityLabel">int</text><rect height="22" width="83.546875" y="24" x="67.8125" class="er attributeBoxOdd"/><text style="dominant-baseline: middle; font-size: 10.2px;" transform="translate(72.8125,35)" y="0" x="0" id="text-entity-Funcionarios-b9816270-c59b-57ef-b016-4464a15bbafe-attr-1-name" class="er entityLabel">Id_Funcionario</text><rect height="22" width="21.5625" y="24" x="151.359375" class="er attributeBoxOdd"/><text style="dominant-baseline: middle; font-size: 10.2px;" transform="translate(156.359375,35)" y="0" x="0" id="text-entity-Funcionarios-b9816270-c59b-57ef-b016-4464a15bbafe-attr-1-key" class="er entityLabel">PK</text><rect height="22" width="74.390625" y="24" x="172.921875" class="er attributeBoxOdd"/><text style="dominant-baseline: middle; font-size: 10.2px;" transform="translate(177.921875,35)" y="0" x="0" id="text-entity-Funcionarios-b9816270-c59b-57ef-b016-4464a15bbafe-attr-1-comment" class="er entityLabel"/><rect height="22.131641387939453" width="67.8125" y="46" x="0" class="er attributeBoxEven"/><text style="dominant-baseline: middle; font-size: 10.2px;" transform="translate(5,57.06582069396973)" y="0" x="0" id="text-entity-Funcionarios-b9816270-c59b-57ef-b016-4464a15bbafe-attr-2-type" class="er entityLabel">varchar(100)</text><rect height="22.131641387939453" width="83.546875" y="46" x="67.8125" class="er attributeBoxEven"/><text style="dominant-baseline: middle; font-size: 10.2px;" transform="translate(72.8125,57.06582069396973)" y="0" x="0" id="text-entity-Funcionarios-b9816270-c59b-57ef-b016-4464a15bbafe-attr-2-name" class="er entityLabel">Nm_Funcionario</text><rect height="22.131641387939453" width="21.5625" y="46" x="151.359375" class="er attributeBoxEven"/><text style="dominant-baseline: middle; font-size: 10.2px;" transform="translate(156.359375,57.06582069396973)" y="0" x="0" id="text-entity-Funcionarios-b9816270-c59b-57ef-b016-4464a15bbafe-attr-2-key" class="er entityLabel"/><rect height="22.131641387939453" width="74.390625" y="46" x="172.921875" class="er attributeBoxEven"/><text style="dominant-baseline: middle; font-size: 10.2px;" transform="translate(177.921875,57.06582069396973)" y="0" x="0" id="text-entity-Funcionarios-b9816270-c59b-57ef-b016-4464a15bbafe-attr-2-comment" class="er entityLabel"/><rect height="22" width="67.8125" y="68.13164138793945" x="0" class="er attributeBoxOdd"/><text style="dominant-baseline: middle; font-size: 10.2px;" transform="translate(5,79.13164138793945)" y="0" x="0" id="text-entity-Funcionarios-b9816270-c59b-57ef-b016-4464a15bbafe-attr-3-type" class="er entityLabel">date</text><rect height="22" width="83.546875" y="68.13164138793945" x="67.8125" class="er attributeBoxOdd"/><text style="dominant-baseline: middle; font-size: 10.2px;" transform="translate(72.8125,79.13164138793945)" y="0" x="0" id="text-entity-Funcionarios-b9816270-c59b-57ef-b016-4464a15bbafe-attr-3-name" class="er entityLabel">Dt_Nascimento</text><rect height="22" width="21.5625" y="68.13164138793945" x="151.359375" class="er attributeBoxOdd"/><text style="dominant-baseline: middle; font-size: 10.2px;" transform="translate(156.359375,79.13164138793945)" y="0" x="0" id="text-entity-Funcionarios-b9816270-c59b-57ef-b016-4464a15bbafe-attr-3-key" class="er entityLabel"/><rect height="22" width="74.390625" y="68.13164138793945" x="172.921875" class="er attributeBoxOdd"/><text style="dominant-baseline: middle; font-size: 10.2px;" transform="translate(177.921875,79.13164138793945)" y="0" x="0" id="text-entity-Funcionarios-b9816270-c59b-57ef-b016-4464a15bbafe-attr-3-comment" class="er entityLabel"/><rect height="22.131641387939453" width="67.8125" y="90.13164138793945" x="0" class="er attributeBoxEven"/><text style="dominant-baseline: middle; font-size: 10.2px;" transform="translate(5,101.19746208190918)" y="0" x="0" id="text-entity-Funcionarios-b9816270-c59b-57ef-b016-4464a15bbafe-attr-4-type" class="er entityLabel">char(1)</text><rect height="22.131641387939453" width="83.546875" y="90.13164138793945" x="67.8125" class="er attributeBoxEven"/><text style="dominant-baseline: middle; font-size: 10.2px;" transform="translate(72.8125,101.19746208190918)" y="0" x="0" id="text-entity-Funcionarios-b9816270-c59b-57ef-b016-4464a15bbafe-attr-4-name" class="er entityLabel">Cd_Estado_Civil</text><rect height="22.131641387939453" width="21.5625" y="90.13164138793945" x="151.359375" class="er attributeBoxEven"/><text style="dominant-baseline: middle; font-size: 10.2px;" transform="translate(156.359375,101.19746208190918)" y="0" x="0" id="text-entity-Funcionarios-b9816270-c59b-57ef-b016-4464a15bbafe-attr-4-key" class="er entityLabel">FK</text><rect height="22.131641387939453" width="74.390625" y="90.13164138793945" x="172.921875" class="er attributeBoxEven"/><text style="dominant-baseline: middle; font-size: 10.2px;" transform="translate(177.921875,101.19746208190918)" y="0" x="0" id="text-entity-Funcionarios-b9816270-c59b-57ef-b016-4464a15bbafe-attr-4-comment" class="er entityLabel"/><rect height="22.13164234161377" width="67.8125" y="112.2632827758789" x="0" class="er attributeBoxOdd"/><text style="dominant-baseline: middle; font-size: 10.2px;" transform="translate(5,123.32910394668579)" y="0" x="0" id="text-entity-Funcionarios-b9816270-c59b-57ef-b016-4464a15bbafe-attr-5-type" class="er entityLabel">numeric</text><rect height="22.13164234161377" width="83.546875" y="112.2632827758789" x="67.8125" class="er attributeBoxOdd"/><text style="dominant-baseline: middle; font-size: 10.2px;" transform="translate(72.8125,123.32910394668579)" y="0" x="0" id="text-entity-Funcionarios-b9816270-c59b-57ef-b016-4464a15bbafe-attr-5-name" class="er entityLabel">Vl_Salario</text><rect height="22.13164234161377" width="21.5625" y="112.2632827758789" x="151.359375" class="er attributeBoxOdd"/><text style="dominant-baseline: middle; font-size: 10.2px;" transform="translate(156.359375,123.32910394668579)" y="0" x="0" id="text-entity-Funcionarios-b9816270-c59b-57ef-b016-4464a15bbafe-attr-5-key" class="er entityLabel"/><rect height="22.13164234161377" width="74.390625" y="112.2632827758789" x="172.921875" class="er attributeBoxOdd"/><text style="dominant-baseline: middle; font-size: 10.2px;" transform="translate(177.921875,123.32910394668579)" y="0" x="0" id="text-entity-Funcionarios-b9816270-c59b-57ef-b016-4464a15bbafe-attr-5-comment" class="er entityLabel">numeric(18,2)</text><rect height="22" width="67.8125" y="134.39492511749268" x="0" class="er attributeBoxEven"/><text style="dominant-baseline: middle; font-size: 10.2px;" transform="translate(5,145.39492511749268)" y="0" x="0" id="text-entity-Funcionarios-b9816270-c59b-57ef-b016-4464a15bbafe-attr-6-type" class="er entityLabel">int</text><rect height="22" width="83.546875" y="134.39492511749268" x="67.8125" class="er attributeBoxEven"/><text style="dominant-baseline: middle; font-size: 10.2px;" transform="translate(72.8125,145.39492511749268)" y="0" x="0" id="text-entity-Funcionarios-b9816270-c59b-57ef-b016-4464a15bbafe-attr-6-name" class="er entityLabel">Id_Filial</text><rect height="22" width="21.5625" y="134.39492511749268" x="151.359375" class="er attributeBoxEven"/><text style="dominant-baseline: middle; font-size: 10.2px;" transform="translate(156.359375,145.39492511749268)" y="0" x="0" id="text-entity-Funcionarios-b9816270-c59b-57ef-b016-4464a15bbafe-attr-6-key" class="er entityLabel">FK</text><rect height="22" width="74.390625" y="134.39492511749268" x="172.921875" class="er attributeBoxEven"/><text style="dominant-baseline: middle; font-size: 10.2px;" transform="translate(177.921875,145.39492511749268)" y="0" x="0" id="text-entity-Funcionarios-b9816270-c59b-57ef-b016-4464a15bbafe-attr-6-comment" class="er entityLabel"/></g><g transform="translate(459.37109375,444.65821075439453 )" id="entity-Produtos-42fcffcd-ec46-5843-a11f-a6b711591c51"><rect height="112.39492607116699" width="246.25" y="0" x="0" class="er entityBox"/><text style="dominant-baseline: middle; text-anchor: middle; font-size: 12px;" transform="translate(123.125,12)" y="0" x="0" id="text-entity-Produtos-42fcffcd-ec46-5843-a11f-a6b711591c51" class="er entityLabel">Produtos</text><rect height="22" width="67.8125" y="24" x="0" class="er attributeBoxOdd"/><text style="dominant-baseline: middle; font-size: 10.2px;" transform="translate(5,35)" y="0" x="0" id="text-entity-Produtos-42fcffcd-ec46-5843-a11f-a6b711591c51-attr-1-type" class="er entityLabel">int</text><rect height="22" width="82.484375" y="24" x="67.8125" class="er attributeBoxOdd"/><text style="dominant-baseline: middle; font-size: 10.2px;" transform="translate(72.8125,35)" y="0" x="0" id="text-entity-Produtos-42fcffcd-ec46-5843-a11f-a6b711591c51-attr-1-name" class="er entityLabel">Id_Produto</text><rect height="22" width="21.5625" y="24" x="150.296875" class="er attributeBoxOdd"/><text style="dominant-baseline: middle; font-size: 10.2px;" transform="translate(155.296875,35)" y="0" x="0" id="text-entity-Produtos-42fcffcd-ec46-5843-a11f-a6b711591c51-attr-1-key" class="er entityLabel">PK</text><rect height="22" width="74.390625" y="24" x="171.859375" class="er attributeBoxOdd"/><text style="dominant-baseline: middle; font-size: 10.2px;" transform="translate(176.859375,35)" y="0" x="0" id="text-entity-Produtos-42fcffcd-ec46-5843-a11f-a6b711591c51-attr-1-comment" class="er entityLabel"/><rect height="22.131641387939453" width="67.8125" y="46" x="0" class="er attributeBoxEven"/><text style="dominant-baseline: middle; font-size: 10.2px;" transform="translate(5,57.06582069396973)" y="0" x="0" id="text-entity-Produtos-42fcffcd-ec46-5843-a11f-a6b711591c51-attr-2-type" class="er entityLabel">varchar(100)</text><rect height="22.131641387939453" width="82.484375" y="46" x="67.8125" class="er attributeBoxEven"/><text style="dominant-baseline: middle; font-size: 10.2px;" transform="translate(72.8125,57.06582069396973)" y="0" x="0" id="text-entity-Produtos-42fcffcd-ec46-5843-a11f-a6b711591c51-attr-2-name" class="er entityLabel">Nm_Produto</text><rect height="22.131641387939453" width="21.5625" y="46" x="150.296875" class="er attributeBoxEven"/><text style="dominant-baseline: middle; font-size: 10.2px;" transform="translate(155.296875,57.06582069396973)" y="0" x="0" id="text-entity-Produtos-42fcffcd-ec46-5843-a11f-a6b711591c51-attr-2-key" class="er entityLabel"/><rect height="22.131641387939453" width="74.390625" y="46" x="171.859375" class="er attributeBoxEven"/><text style="dominant-baseline: middle; font-size: 10.2px;" transform="translate(176.859375,57.06582069396973)" y="0" x="0" id="text-entity-Produtos-42fcffcd-ec46-5843-a11f-a6b711591c51-attr-2-comment" class="er entityLabel"/><rect height="22.13164234161377" width="67.8125" y="68.13164138793945" x="0" class="er attributeBoxOdd"/><text style="dominant-baseline: middle; font-size: 10.2px;" transform="translate(5,79.19746255874634)" y="0" x="0" id="text-entity-Produtos-42fcffcd-ec46-5843-a11f-a6b711591c51-attr-3-type" class="er entityLabel">numeric</text><rect height="22.13164234161377" width="82.484375" y="68.13164138793945" x="67.8125" class="er attributeBoxOdd"/><text style="dominant-baseline: middle; font-size: 10.2px;" transform="translate(72.8125,79.19746255874634)" y="0" x="0" id="text-entity-Produtos-42fcffcd-ec46-5843-a11f-a6b711591c51-attr-3-name" class="er entityLabel">Vl_Custo</text><rect height="22.13164234161377" width="21.5625" y="68.13164138793945" x="150.296875" class="er attributeBoxOdd"/><text style="dominant-baseline: middle; font-size: 10.2px;" transform="translate(155.296875,79.19746255874634)" y="0" x="0" id="text-entity-Produtos-42fcffcd-ec46-5843-a11f-a6b711591c51-attr-3-key" class="er entityLabel"/><rect height="22.13164234161377" width="74.390625" y="68.13164138793945" x="171.859375" class="er attributeBoxOdd"/><text style="dominant-baseline: middle; font-size: 10.2px;" transform="translate(176.859375,79.19746255874634)" y="0" x="0" id="text-entity-Produtos-42fcffcd-ec46-5843-a11f-a6b711591c51-attr-3-comment" class="er entityLabel">numeric(18,2)</text><rect height="22.13164234161377" width="67.8125" y="90.26328372955322" x="0" class="er attributeBoxEven"/><text style="dominant-baseline: middle; font-size: 10.2px;" transform="translate(5,101.32910490036011)" y="0" x="0" id="text-entity-Produtos-42fcffcd-ec46-5843-a11f-a6b711591c51-attr-4-type" class="er entityLabel">numeric</text><rect height="22.13164234161377" width="82.484375" y="90.26328372955322" x="67.8125" class="er attributeBoxEven"/><text style="dominant-baseline: middle; font-size: 10.2px;" transform="translate(72.8125,101.32910490036011)" y="0" x="0" id="text-entity-Produtos-42fcffcd-ec46-5843-a11f-a6b711591c51-attr-4-name" class="er entityLabel">Vl_Preco_Venda</text><rect height="22.13164234161377" width="21.5625" y="90.26328372955322" x="150.296875" class="er attributeBoxEven"/><text style="dominant-baseline: middle; font-size: 10.2px;" transform="translate(155.296875,101.32910490036011)" y="0" x="0" id="text-entity-Produtos-42fcffcd-ec46-5843-a11f-a6b711591c51-attr-4-key" class="er entityLabel"/><rect height="22.13164234161377" width="74.390625" y="90.26328372955322" x="171.859375" class="er attributeBoxEven"/><text style="dominant-baseline: middle; font-size: 10.2px;" transform="translate(176.859375,101.32910490036011)" y="0" x="0" id="text-entity-Produtos-42fcffcd-ec46-5843-a11f-a6b711591c51-attr-4-comment" class="er entityLabel">numeric(18,2)</text></g><g transform="translate(214.10546875,444.85567474365234 )" id="entity-Pedidos-7e29ea32-13bc-5dc1-adcf-5517ce1dee84"><rect height="112" width="145.265625" y="0" x="0" class="er entityBox"/><text style="dominant-baseline: middle; text-anchor: middle; font-size: 12px;" transform="translate(72.6328125,12)" y="0" x="0" id="text-entity-Pedidos-7e29ea32-13bc-5dc1-adcf-5517ce1dee84" class="er entityLabel">Pedidos</text><rect height="22" width="56.984375" y="24" x="0" class="er attributeBoxOdd"/><text style="dominant-baseline: middle; font-size: 10.2px;" transform="translate(5,35)" y="0" x="0" id="text-entity-Pedidos-7e29ea32-13bc-5dc1-adcf-5517ce1dee84-attr-1-type" class="er entityLabel">int</text><rect height="22" width="66.71875" y="24" x="56.984375" class="er attributeBoxOdd"/><text style="dominant-baseline: middle; font-size: 10.2px;" transform="translate(61.984375,35)" y="0" x="0" id="text-entity-Pedidos-7e29ea32-13bc-5dc1-adcf-5517ce1dee84-attr-1-name" class="er entityLabel">Id_Pedido</text><rect height="22" width="21.5625" y="24" x="123.703125" class="er attributeBoxOdd"/><text style="dominant-baseline: middle; font-size: 10.2px;" transform="translate(128.703125,35)" y="0" x="0" id="text-entity-Pedidos-7e29ea32-13bc-5dc1-adcf-5517ce1dee84-attr-1-key" class="er entityLabel">PK</text><rect height="22" width="56.984375" y="46" x="0" class="er attributeBoxEven"/><text style="dominant-baseline: middle; font-size: 10.2px;" transform="translate(5,57)" y="0" x="0" id="text-entity-Pedidos-7e29ea32-13bc-5dc1-adcf-5517ce1dee84-attr-2-type" class="er entityLabel">datetime2</text><rect height="22" width="66.71875" y="46" x="56.984375" class="er attributeBoxEven"/><text style="dominant-baseline: middle; font-size: 10.2px;" transform="translate(61.984375,57)" y="0" x="0" id="text-entity-Pedidos-7e29ea32-13bc-5dc1-adcf-5517ce1dee84-attr-2-name" class="er entityLabel">Dt_Pedido</text><rect height="22" width="21.5625" y="46" x="123.703125" class="er attributeBoxEven"/><text style="dominant-baseline: middle; font-size: 10.2px;" transform="translate(128.703125,57)" y="0" x="0" id="text-entity-Pedidos-7e29ea32-13bc-5dc1-adcf-5517ce1dee84-attr-2-key" class="er entityLabel"/><rect height="22" width="56.984375" y="68" x="0" class="er attributeBoxOdd"/><text style="dominant-baseline: middle; font-size: 10.2px;" transform="translate(5,79)" y="0" x="0" id="text-entity-Pedidos-7e29ea32-13bc-5dc1-adcf-5517ce1dee84-attr-3-type" class="er entityLabel">int</text><rect height="22" width="66.71875" y="68" x="56.984375" class="er attributeBoxOdd"/><text style="dominant-baseline: middle; font-size: 10.2px;" transform="translate(61.984375,79)" y="0" x="0" id="text-entity-Pedidos-7e29ea32-13bc-5dc1-adcf-5517ce1dee84-attr-3-name" class="er entityLabel">Id_Cliente</text><rect height="22" width="21.5625" y="68" x="123.703125" class="er attributeBoxOdd"/><text style="dominant-baseline: middle; font-size: 10.2px;" transform="translate(128.703125,79)" y="0" x="0" id="text-entity-Pedidos-7e29ea32-13bc-5dc1-adcf-5517ce1dee84-attr-3-key" class="er entityLabel">FK</text><rect height="22" width="56.984375" y="90" x="0" class="er attributeBoxEven"/><text style="dominant-baseline: middle; font-size: 10.2px;" transform="translate(5,101)" y="0" x="0" id="text-entity-Pedidos-7e29ea32-13bc-5dc1-adcf-5517ce1dee84-attr-4-type" class="er entityLabel">int</text><rect height="22" width="66.71875" y="90" x="56.984375" class="er attributeBoxEven"/><text style="dominant-baseline: middle; font-size: 10.2px;" transform="translate(61.984375,101)" y="0" x="0" id="text-entity-Pedidos-7e29ea32-13bc-5dc1-adcf-5517ce1dee84-attr-4-name" class="er entityLabel">Id_Vendedor</text><rect height="22" width="21.5625" y="90" x="123.703125" class="er attributeBoxEven"/><text style="dominant-baseline: middle; font-size: 10.2px;" transform="translate(128.703125,101)" y="0" x="0" id="text-entity-Pedidos-7e29ea32-13bc-5dc1-adcf-5517ce1dee84-attr-4-key" class="er entityLabel">FK</text></g><g transform="translate(322.7578125,657.0531387329102 )" id="entity-PedidosItens-5e65edc4-5181-59b5-8dcd-a43f40bb8dd0"><rect height="134.13164234161377" width="223.71875" y="0" x="0" class="er entityBox"/><text style="dominant-baseline: middle; text-anchor: middle; font-size: 12px;" transform="translate(111.859375,12)" y="0" x="0" id="text-entity-PedidosItens-5e65edc4-5181-59b5-8dcd-a43f40bb8dd0" class="er entityLabel">Pedidos_Itens</text><rect height="22" width="47.109375" y="24" x="0" class="er attributeBoxOdd"/><text style="dominant-baseline: middle; font-size: 10.2px;" transform="translate(5,35)" y="0" x="0" id="text-entity-PedidosItens-5e65edc4-5181-59b5-8dcd-a43f40bb8dd0-attr-1-type" class="er entityLabel">int</text><rect height="22" width="80.65625" y="24" x="47.109375" class="er attributeBoxOdd"/><text style="dominant-baseline: middle; font-size: 10.2px;" transform="translate(52.109375,35)" y="0" x="0" id="text-entity-PedidosItens-5e65edc4-5181-59b5-8dcd-a43f40bb8dd0-attr-1-name" class="er entityLabel">Id_Pedido_Item</text><rect height="22" width="21.5625" y="24" x="127.765625" class="er attributeBoxOdd"/><text style="dominant-baseline: middle; font-size: 10.2px;" transform="translate(132.765625,35)" y="0" x="0" id="text-entity-PedidosItens-5e65edc4-5181-59b5-8dcd-a43f40bb8dd0-attr-1-key" class="er entityLabel">PK</text><rect height="22" width="74.390625" y="24" x="149.328125" class="er attributeBoxOdd"/><text style="dominant-baseline: middle; font-size: 10.2px;" transform="translate(154.328125,35)" y="0" x="0" id="text-entity-PedidosItens-5e65edc4-5181-59b5-8dcd-a43f40bb8dd0-attr-1-comment" class="er entityLabel"/><rect height="22" width="47.109375" y="46" x="0" class="er attributeBoxEven"/><text style="dominant-baseline: middle; font-size: 10.2px;" transform="translate(5,57)" y="0" x="0" id="text-entity-PedidosItens-5e65edc4-5181-59b5-8dcd-a43f40bb8dd0-attr-2-type" class="er entityLabel">int</text><rect height="22" width="80.65625" y="46" x="47.109375" class="er attributeBoxEven"/><text style="dominant-baseline: middle; font-size: 10.2px;" transform="translate(52.109375,57)" y="0" x="0" id="text-entity-PedidosItens-5e65edc4-5181-59b5-8dcd-a43f40bb8dd0-attr-2-name" class="er entityLabel">Id_Pedido</text><rect height="22" width="21.5625" y="46" x="127.765625" class="er attributeBoxEven"/><text style="dominant-baseline: middle; font-size: 10.2px;" transform="translate(132.765625,57)" y="0" x="0" id="text-entity-PedidosItens-5e65edc4-5181-59b5-8dcd-a43f40bb8dd0-attr-2-key" class="er entityLabel">FK</text><rect height="22" width="74.390625" y="46" x="149.328125" class="er attributeBoxEven"/><text style="dominant-baseline: middle; font-size: 10.2px;" transform="translate(154.328125,57)" y="0" x="0" id="text-entity-PedidosItens-5e65edc4-5181-59b5-8dcd-a43f40bb8dd0-attr-2-comment" class="er entityLabel"/><rect height="22" width="47.109375" y="68" x="0" class="er attributeBoxOdd"/><text style="dominant-baseline: middle; font-size: 10.2px;" transform="translate(5,79)" y="0" x="0" id="text-entity-PedidosItens-5e65edc4-5181-59b5-8dcd-a43f40bb8dd0-attr-3-type" class="er entityLabel">int</text><rect height="22" width="80.65625" y="68" x="47.109375" class="er attributeBoxOdd"/><text style="dominant-baseline: middle; font-size: 10.2px;" transform="translate(52.109375,79)" y="0" x="0" id="text-entity-PedidosItens-5e65edc4-5181-59b5-8dcd-a43f40bb8dd0-attr-3-name" class="er entityLabel">Id_Produto</text><rect height="22" width="21.5625" y="68" x="127.765625" class="er attributeBoxOdd"/><text style="dominant-baseline: middle; font-size: 10.2px;" transform="translate(132.765625,79)" y="0" x="0" id="text-entity-PedidosItens-5e65edc4-5181-59b5-8dcd-a43f40bb8dd0-attr-3-key" class="er entityLabel">FK</text><rect height="22" width="74.390625" y="68" x="149.328125" class="er attributeBoxOdd"/><text style="dominant-baseline: middle; font-size: 10.2px;" transform="translate(154.328125,79)" y="0" x="0" id="text-entity-PedidosItens-5e65edc4-5181-59b5-8dcd-a43f40bb8dd0-attr-3-comment" class="er entityLabel"/><rect height="22" width="47.109375" y="90" x="0" class="er attributeBoxEven"/><text style="dominant-baseline: middle; font-size: 10.2px;" transform="translate(5,101)" y="0" x="0" id="text-entity-PedidosItens-5e65edc4-5181-59b5-8dcd-a43f40bb8dd0-attr-4-type" class="er entityLabel">int</text><rect height="22" width="80.65625" y="90" x="47.109375" class="er attributeBoxEven"/><text style="dominant-baseline: middle; font-size: 10.2px;" transform="translate(52.109375,101)" y="0" x="0" id="text-entity-PedidosItens-5e65edc4-5181-59b5-8dcd-a43f40bb8dd0-attr-4-name" class="er entityLabel">Qt_Vendida</text><rect height="22" width="21.5625" y="90" x="127.765625" class="er attributeBoxEven"/><text style="dominant-baseline: middle; font-size: 10.2px;" transform="translate(132.765625,101)" y="0" x="0" id="text-entity-PedidosItens-5e65edc4-5181-59b5-8dcd-a43f40bb8dd0-attr-4-key" class="er entityLabel"/><rect height="22" width="74.390625" y="90" x="149.328125" class="er attributeBoxEven"/><text style="dominant-baseline: middle; font-size: 10.2px;" transform="translate(154.328125,101)" y="0" x="0" id="text-entity-PedidosItens-5e65edc4-5181-59b5-8dcd-a43f40bb8dd0-attr-4-comment" class="er entityLabel"/><rect height="22.13164234161377" width="47.109375" y="112" x="0" class="er attributeBoxOdd"/><text style="dominant-baseline: middle; font-size: 10.2px;" transform="translate(5,123.06582117080688)" y="0" x="0" id="text-entity-PedidosItens-5e65edc4-5181-59b5-8dcd-a43f40bb8dd0-attr-5-type" class="er entityLabel">numeric</text><rect height="22.13164234161377" width="80.65625" y="112" x="47.109375" class="er attributeBoxOdd"/><text style="dominant-baseline: middle; font-size: 10.2px;" transform="translate(52.109375,123.06582117080688)" y="0" x="0" id="text-entity-PedidosItens-5e65edc4-5181-59b5-8dcd-a43f40bb8dd0-attr-5-name" class="er entityLabel">Vl_Unitario</text><rect height="22.13164234161377" width="21.5625" y="112" x="127.765625" class="er attributeBoxOdd"/><text style="dominant-baseline: middle; font-size: 10.2px;" transform="translate(132.765625,123.06582117080688)" y="0" x="0" id="text-entity-PedidosItens-5e65edc4-5181-59b5-8dcd-a43f40bb8dd0-attr-5-key" class="er entityLabel"/><rect height="22.13164234161377" width="74.390625" y="112" x="149.328125" class="er attributeBoxOdd"/><text style="dominant-baseline: middle; font-size: 10.2px;" transform="translate(154.328125,123.06582117080688)" y="0" x="0" id="text-entity-PedidosItens-5e65edc4-5181-59b5-8dcd-a43f40bb8dd0-attr-5-comment" class="er entityLabel">numeric(18,2)</text></g><rect height="14" width="17.71875" y="139.51173400878906" x="101.04179382324219" class="er relationshipLabelBox"/><text style="text-anchor: middle; dominant-baseline: middle; font-size: 12px;" y="146.51173400878906" x="109.90116882324219" id="rel1" class="er relationshipLabel">has</text><rect height="14" width="17.71875" y="125.02816772460938" x="285.8707580566406" class="er relationshipLabelBox"/><text style="text-anchor: middle; dominant-baseline: middle; font-size: 12px;" y="132.02816772460938" x="294.7301330566406" id="rel2" class="er relationshipLabel">has</text><rect height="14" width="17.71875" y="132.43553161621094" x="479.2049255371094" class="er relationshipLabelBox"/><text style="text-anchor: middle; dominant-baseline: middle; font-size: 12px;" y="139.43553161621094" x="488.0643005371094" id="rel3" class="er relationshipLabel">has</text><rect height="14" width="33.875" y="399.60009765625" x="119.79742431640625" class="er relationshipLabelBox"/><text style="text-anchor: middle; dominant-baseline: middle; font-size: 12px;" y="406.60009765625" x="136.73492431640625" id="rel4" class="er relationshipLabel">places</text><rect height="14" width="51.40625" y="401.2765808105469" x="390.5627746582031" class="er relationshipLabelBox"/><text style="text-anchor: middle; dominant-baseline: middle; font-size: 12px;" y="408.2765808105469" x="416.2658996582031" id="rel5" class="er relationshipLabel">processes</text><rect height="14" width="44.84375" y="608.4381713867188" x="280.9761962890625" class="er relationshipLabelBox"/><text style="text-anchor: middle; dominant-baseline: middle; font-size: 12px;" y="615.4381713867188" x="303.3980712890625" id="rel6" class="er relationshipLabel">contains</text><rect height="14" width="44.109375" y="608.517822265625" x="543.7318115234375" class="er relationshipLabelBox"/><text style="text-anchor: middle; dominant-baseline: middle; font-size: 12px;" y="615.517822265625" x="565.7864990234375" id="rel7" class="er relationshipLabel">includes</text></svg>