<svg aria-roledescription="er" role="graphics-document document" viewBox="0 0 192.515625 342.841796875" style="max-width: 192.516px; background-color: white;" xmlns:xlink="http://www.w3.org/1999/xlink" xmlns="http://www.w3.org/2000/svg" width="100%" id="my-svg"><style>#my-svg{font-family:"trebuchet ms",verdana,arial,sans-serif;font-size:16px;fill:#333;}#my-svg .error-icon{fill:#552222;}#my-svg .error-text{fill:#552222;stroke:#552222;}#my-svg .edge-thickness-normal{stroke-width:1px;}#my-svg .edge-thickness-thick{stroke-width:3.5px;}#my-svg .edge-pattern-solid{stroke-dasharray:0;}#my-svg .edge-thickness-invisible{stroke-width:0;fill:none;}#my-svg .edge-pattern-dashed{stroke-dasharray:3;}#my-svg .edge-pattern-dotted{stroke-dasharray:2;}#my-svg .marker{fill:#333333;stroke:#333333;}#my-svg .marker.cross{stroke:#333333;}#my-svg svg{font-family:"trebuchet ms",verdana,arial,sans-serif;font-size:16px;}#my-svg p{margin:0;}#my-svg .entityBox{fill:#ECECFF;stroke:#9370DB;}#my-svg .attributeBoxOdd{fill:#ffffff;stroke:#9370DB;}#my-svg .attributeBoxEven{fill:#f2f2f2;stroke:#9370DB;}#my-svg .relationshipLabelBox{fill:hsl(80, 100%, 96.2745098039%);opacity:0.7;background-color:hsl(80, 100%, 96.2745098039%);}#my-svg .relationshipLabelBox rect{opacity:0.5;}#my-svg .relationshipLine{stroke:#333333;}#my-svg .entityTitleText{text-anchor:middle;font-size:18px;fill:#333;}#my-svg #MD_PARENT_START{fill:#f5f5f5!important;stroke:#333333!important;stroke-width:1;}#my-svg #MD_PARENT_END{fill:#f5f5f5!important;stroke:#333333!important;stroke-width:1;}#my-svg :root{--mermaid-font-family:"trebuchet ms",verdana,arial,sans-serif;}</style><g/><defs><marker orient="auto" markerHeight="240" markerWidth="190" refY="7" refX="0" id="MD_PARENT_START"><path d="M 18,7 L9,13 L1,7 L9,1 Z"/></marker></defs><defs><marker orient="auto" markerHeight="28" markerWidth="20" refY="7" refX="19" id="MD_PARENT_END"><path d="M 18,7 L9,13 L1,7 L9,1 Z"/></marker></defs><defs><marker orient="auto" markerHeight="18" markerWidth="18" refY="9" refX="0" id="ONLY_ONE_START"><path d="M9,0 L9,18 M15,0 L15,18" fill="none" stroke="gray"/></marker></defs><defs><marker orient="auto" markerHeight="18" markerWidth="18" refY="9" refX="18" id="ONLY_ONE_END"><path d="M3,0 L3,18 M9,0 L9,18" fill="none" stroke="gray"/></marker></defs><defs><marker orient="auto" markerHeight="18" markerWidth="30" refY="9" refX="0" id="ZERO_OR_ONE_START"><circle r="6" cy="9" cx="21" fill="white" stroke="gray"/><path d="M9,0 L9,18" fill="none" stroke="gray"/></marker></defs><defs><marker orient="auto" markerHeight="18" markerWidth="30" refY="9" refX="30" id="ZERO_OR_ONE_END"><circle r="6" cy="9" cx="9" fill="white" stroke="gray"/><path d="M21,0 L21,18" fill="none" stroke="gray"/></marker></defs><defs><marker orient="auto" markerHeight="36" markerWidth="45" refY="18" refX="18" id="ONE_OR_MORE_START"><path d="M0,18 Q 18,0 36,18 Q 18,36 0,18 M42,9 L42,27" fill="none" stroke="gray"/></marker></defs><defs><marker orient="auto" markerHeight="36" markerWidth="45" refY="18" refX="27" id="ONE_OR_MORE_END"><path d="M3,9 L3,27 M9,18 Q27,0 45,18 Q27,36 9,18" fill="none" stroke="gray"/></marker></defs><defs><marker orient="auto" markerHeight="36" markerWidth="57" refY="18" refX="18" id="ZERO_OR_MORE_START"><circle r="6" cy="18" cx="48" fill="white" stroke="gray"/><path d="M0,18 Q18,0 36,18 Q18,36 0,18" fill="none" stroke="gray"/></marker></defs><defs><marker orient="auto" markerHeight="36" markerWidth="57" refY="18" refX="39" id="ZERO_OR_MORE_END"><circle r="6" cy="18" cx="9" fill="white" stroke="gray"/><path d="M21,18 Q39,0 57,18 Q39,36 21,18" fill="none" stroke="gray"/></marker></defs><path style="stroke: gray; fill: none;" marker-start="url(#ONLY_ONE_START)" marker-end="url(#ZERO_OR_MORE_END)" d="M96.258,110.355L96.258,118.688C96.258,127.022,96.258,143.688,96.258,160.355C96.258,177.022,96.258,193.688,96.258,202.022L96.258,210.355" class="er relationshipLine"/><g transform="translate(21.2578125,20 )" id="entity-Regioes-d155fd71-28fb-5eb0-9943-e3ba19ce5941"><rect height="90.3550796508789" width="150" y="0" x="0" class="er entityBox"/><text style="dominant-baseline: middle; text-anchor: middle; font-size: 12px;" transform="translate(75,12)" y="0" x="0" id="text-entity-Regioes-d155fd71-28fb-5eb0-9943-e3ba19ce5941" class="er entityLabel">Regioes</text><rect height="22.091796875" width="62.46875" y="24" x="0" class="er attributeBoxOdd"/><text style="dominant-baseline: middle; font-size: 10.2px;" transform="translate(5,35.0458984375)" y="0" x="0" id="text-entity-Regioes-d155fd71-28fb-5eb0-9943-e3ba19ce5941-attr-1-type" class="er entityLabel">int</text><rect height="22.091796875" width="65.96875" y="24" x="62.46875" class="er attributeBoxOdd"/><text style="dominant-baseline: middle; font-size: 10.2px;" transform="translate(67.46875,35.0458984375)" y="0" x="0" id="text-entity-Regioes-d155fd71-28fb-5eb0-9943-e3ba19ce5941-attr-1-name" class="er entityLabel">IdRegiao</text><rect height="22.091796875" width="21.5625" y="24" x="128.4375" class="er attributeBoxOdd"/><text style="dominant-baseline: middle; font-size: 10.2px;" transform="translate(133.4375,35.0458984375)" y="0" x="0" id="text-entity-Regioes-d155fd71-28fb-5eb0-9943-e3ba19ce5941-attr-1-key" class="er entityLabel">PK</text><rect height="22.131641387939453" width="62.46875" y="46.091796875" x="0" class="er attributeBoxEven"/><text style="dominant-baseline: middle; font-size: 10.2px;" transform="translate(5,57.15761756896973)" y="0" x="0" id="text-entity-Regioes-d155fd71-28fb-5eb0-9943-e3ba19ce5941-attr-2-type" class="er entityLabel">varchar(2)</text><rect height="22.131641387939453" width="65.96875" y="46.091796875" x="62.46875" class="er attributeBoxEven"/><text style="dominant-baseline: middle; font-size: 10.2px;" transform="translate(67.46875,57.15761756896973)" y="0" x="0" id="text-entity-Regioes-d155fd71-28fb-5eb0-9943-e3ba19ce5941-attr-2-name" class="er entityLabel">CodRegiao</text><rect height="22.131641387939453" width="21.5625" y="46.091796875" x="128.4375" class="er attributeBoxEven"/><text style="dominant-baseline: middle; font-size: 10.2px;" transform="translate(133.4375,57.15761756896973)" y="0" x="0" id="text-entity-Regioes-d155fd71-28fb-5eb0-9943-e3ba19ce5941-attr-2-key" class="er entityLabel"/><rect height="22.131641387939453" width="62.46875" y="68.22343826293945" x="0" class="er attributeBoxOdd"/><text style="dominant-baseline: middle; font-size: 10.2px;" transform="translate(5,79.28925895690918)" y="0" x="0" id="text-entity-Regioes-d155fd71-28fb-5eb0-9943-e3ba19ce5941-attr-3-type" class="er entityLabel">varchar(20)</text><rect height="22.131641387939453" width="65.96875" y="68.22343826293945" x="62.46875" class="er attributeBoxOdd"/><text style="dominant-baseline: middle; font-size: 10.2px;" transform="translate(67.46875,79.28925895690918)" y="0" x="0" id="text-entity-Regioes-d155fd71-28fb-5eb0-9943-e3ba19ce5941-attr-3-name" class="er entityLabel">NomeRegiao</text><rect height="22.131641387939453" width="21.5625" y="68.22343826293945" x="128.4375" class="er attributeBoxOdd"/><text style="dominant-baseline: middle; font-size: 10.2px;" transform="translate(133.4375,79.28925895690918)" y="0" x="0" id="text-entity-Regioes-d155fd71-28fb-5eb0-9943-e3ba19ce5941-attr-3-key" class="er entityLabel"/></g><g transform="translate(20,210.3550796508789 )" id="entity-Estados-2a6b3a17-e29a-5922-996d-a157610d5a14"><rect height="112.48672103881836" width="152.515625" y="0" x="0" class="er entityBox"/><text style="dominant-baseline: middle; text-anchor: middle; font-size: 12px;" transform="translate(76.2578125,12)" y="0" x="0" id="text-entity-Estados-2a6b3a17-e29a-5922-996d-a157610d5a14" class="er entityLabel">Estados</text><rect height="22.131641387939453" width="62.46875" y="24" x="0" class="er attributeBoxOdd"/><text style="dominant-baseline: middle; font-size: 10.2px;" transform="translate(5,35.06582069396973)" y="0" x="0" id="text-entity-Estados-2a6b3a17-e29a-5922-996d-a157610d5a14-attr-1-type" class="er entityLabel">char(2)</text><rect height="22.131641387939453" width="68.484375" y="24" x="62.46875" class="er attributeBoxOdd"/><text style="dominant-baseline: middle; font-size: 10.2px;" transform="translate(67.46875,35.06582069396973)" y="0" x="0" id="text-entity-Estados-2a6b3a17-e29a-5922-996d-a157610d5a14-attr-1-name" class="er entityLabel">SiglaEstado</text><rect height="22.131641387939453" width="21.5625" y="24" x="130.953125" class="er attributeBoxOdd"/><text style="dominant-baseline: middle; font-size: 10.2px;" transform="translate(135.953125,35.06582069396973)" y="0" x="0" id="text-entity-Estados-2a6b3a17-e29a-5922-996d-a157610d5a14-attr-1-key" class="er entityLabel">PK</text><rect height="22.131641387939453" width="62.46875" y="46.13164138793945" x="0" class="er attributeBoxEven"/><text style="dominant-baseline: middle; font-size: 10.2px;" transform="translate(5,57.19746208190918)" y="0" x="0" id="text-entity-Estados-2a6b3a17-e29a-5922-996d-a157610d5a14-attr-2-type" class="er entityLabel">varchar(20)</text><rect height="22.131641387939453" width="68.484375" y="46.13164138793945" x="62.46875" class="er attributeBoxEven"/><text style="dominant-baseline: middle; font-size: 10.2px;" transform="translate(67.46875,57.19746208190918)" y="0" x="0" id="text-entity-Estados-2a6b3a17-e29a-5922-996d-a157610d5a14-attr-2-name" class="er entityLabel">NomeEstado</text><rect height="22.131641387939453" width="21.5625" y="46.13164138793945" x="130.953125" class="er attributeBoxEven"/><text style="dominant-baseline: middle; font-size: 10.2px;" transform="translate(135.953125,57.19746208190918)" y="0" x="0" id="text-entity-Estados-2a6b3a17-e29a-5922-996d-a157610d5a14-attr-2-key" class="er entityLabel"/><rect height="22.131641387939453" width="62.46875" y="68.2632827758789" x="0" class="er attributeBoxOdd"/><text style="dominant-baseline: middle; font-size: 10.2px;" transform="translate(5,79.32910346984863)" y="0" x="0" id="text-entity-Estados-2a6b3a17-e29a-5922-996d-a157610d5a14-attr-3-type" class="er entityLabel">varchar(20)</text><rect height="22.131641387939453" width="68.484375" y="68.2632827758789" x="62.46875" class="er attributeBoxOdd"/><text style="dominant-baseline: middle; font-size: 10.2px;" transform="translate(67.46875,79.32910346984863)" y="0" x="0" id="text-entity-Estados-2a6b3a17-e29a-5922-996d-a157610d5a14-attr-3-name" class="er entityLabel">NomeCapital</text><rect height="22.131641387939453" width="21.5625" y="68.2632827758789" x="130.953125" class="er attributeBoxOdd"/><text style="dominant-baseline: middle; font-size: 10.2px;" transform="translate(135.953125,79.32910346984863)" y="0" x="0" id="text-entity-Estados-2a6b3a17-e29a-5922-996d-a157610d5a14-attr-3-key" class="er entityLabel"/><rect height="22.091796875" width="62.46875" y="90.39492416381836" x="0" class="er attributeBoxEven"/><text style="dominant-baseline: middle; font-size: 10.2px;" transform="translate(5,101.44082260131836)" y="0" x="0" id="text-entity-Estados-2a6b3a17-e29a-5922-996d-a157610d5a14-attr-4-type" class="er entityLabel">int</text><rect height="22.091796875" width="68.484375" y="90.39492416381836" x="62.46875" class="er attributeBoxEven"/><text style="dominant-baseline: middle; font-size: 10.2px;" transform="translate(67.46875,101.44082260131836)" y="0" x="0" id="text-entity-Estados-2a6b3a17-e29a-5922-996d-a157610d5a14-attr-4-name" class="er entityLabel">IdRegiao</text><rect height="22.091796875" width="21.5625" y="90.39492416381836" x="130.953125" class="er attributeBoxEven"/><text style="dominant-baseline: middle; font-size: 10.2px;" transform="translate(135.953125,101.44082260131836)" y="0" x="0" id="text-entity-Estados-2a6b3a17-e29a-5922-996d-a157610d5a14-attr-4-key" class="er entityLabel">FK</text></g><rect height="14" width="44.84375" y="153.35499572753906" x="73.83612823486328" class="er relationshipLabelBox"/><text style="text-anchor: middle; dominant-baseline: middle; font-size: 12px;" y="160.35499572753906" x="96.25800323486328" id="rel1" class="er relationshipLabel">contains</text></svg>