<svg aria-roledescription="er" role="graphics-document document" viewBox="0 0 174.3125 532.642578125" style="max-width: 174.312px; background-color: white;" xmlns:xlink="http://www.w3.org/1999/xlink" xmlns="http://www.w3.org/2000/svg" width="100%" id="my-svg"><style>#my-svg{font-family:"trebuchet ms",verdana,arial,sans-serif;font-size:16px;fill:#333;}#my-svg .error-icon{fill:#552222;}#my-svg .error-text{fill:#552222;stroke:#552222;}#my-svg .edge-thickness-normal{stroke-width:1px;}#my-svg .edge-thickness-thick{stroke-width:3.5px;}#my-svg .edge-pattern-solid{stroke-dasharray:0;}#my-svg .edge-thickness-invisible{stroke-width:0;fill:none;}#my-svg .edge-pattern-dashed{stroke-dasharray:3;}#my-svg .edge-pattern-dotted{stroke-dasharray:2;}#my-svg .marker{fill:#333333;stroke:#333333;}#my-svg .marker.cross{stroke:#333333;}#my-svg svg{font-family:"trebuchet ms",verdana,arial,sans-serif;font-size:16px;}#my-svg p{margin:0;}#my-svg .entityBox{fill:#ECECFF;stroke:#9370DB;}#my-svg .attributeBoxOdd{fill:#ffffff;stroke:#9370DB;}#my-svg .attributeBoxEven{fill:#f2f2f2;stroke:#9370DB;}#my-svg .relationshipLabelBox{fill:hsl(80, 100%, 96.2745098039%);opacity:0.7;background-color:hsl(80, 100%, 96.2745098039%);}#my-svg .relationshipLabelBox rect{opacity:0.5;}#my-svg .relationshipLine{stroke:#333333;}#my-svg .entityTitleText{text-anchor:middle;font-size:18px;fill:#333;}#my-svg #MD_PARENT_START{fill:#f5f5f5!important;stroke:#333333!important;stroke-width:1;}#my-svg #MD_PARENT_END{fill:#f5f5f5!important;stroke:#333333!important;stroke-width:1;}#my-svg :root{--mermaid-font-family:"trebuchet ms",verdana,arial,sans-serif;}</style><g/><defs><marker orient="auto" markerHeight="240" markerWidth="190" refY="7" refX="0" id="MD_PARENT_START"><path d="M 18,7 L9,13 L1,7 L9,1 Z"/></marker></defs><defs><marker orient="auto" markerHeight="28" markerWidth="20" refY="7" refX="19" id="MD_PARENT_END"><path d="M 18,7 L9,13 L1,7 L9,1 Z"/></marker></defs><defs><marker orient="auto" markerHeight="18" markerWidth="18" refY="9" refX="0" id="ONLY_ONE_START"><path d="M9,0 L9,18 M15,0 L15,18" fill="none" stroke="gray"/></marker></defs><defs><marker orient="auto" markerHeight="18" markerWidth="18" refY="9" refX="18" id="ONLY_ONE_END"><path d="M3,0 L3,18 M9,0 L9,18" fill="none" stroke="gray"/></marker></defs><defs><marker orient="auto" markerHeight="18" markerWidth="30" refY="9" refX="0" id="ZERO_OR_ONE_START"><circle r="6" cy="9" cx="21" fill="white" stroke="gray"/><path d="M9,0 L9,18" fill="none" stroke="gray"/></marker></defs><defs><marker orient="auto" markerHeight="18" markerWidth="30" refY="9" refX="30" id="ZERO_OR_ONE_END"><circle r="6" cy="9" cx="9" fill="white" stroke="gray"/><path d="M21,0 L21,18" fill="none" stroke="gray"/></marker></defs><defs><marker orient="auto" markerHeight="36" markerWidth="45" refY="18" refX="18" id="ONE_OR_MORE_START"><path d="M0,18 Q 18,0 36,18 Q 18,36 0,18 M42,9 L42,27" fill="none" stroke="gray"/></marker></defs><defs><marker orient="auto" markerHeight="36" markerWidth="45" refY="18" refX="27" id="ONE_OR_MORE_END"><path d="M3,9 L3,27 M9,18 Q27,0 45,18 Q27,36 9,18" fill="none" stroke="gray"/></marker></defs><defs><marker orient="auto" markerHeight="36" markerWidth="57" refY="18" refX="18" id="ZERO_OR_MORE_START"><circle r="6" cy="18" cx="48" fill="white" stroke="gray"/><path d="M0,18 Q18,0 36,18 Q18,36 0,18" fill="none" stroke="gray"/></marker></defs><defs><marker orient="auto" markerHeight="36" markerWidth="57" refY="18" refX="39" id="ZERO_OR_MORE_END"><circle r="6" cy="18" cx="9" fill="white" stroke="gray"/><path d="M21,18 Q39,0 57,18 Q39,36 21,18" fill="none" stroke="gray"/></marker></defs><path style="stroke: gray; fill: none;" marker-start="url(#ONLY_ONE_START)" marker-end="url(#ZERO_OR_MORE_END)" d="M87.156,110.275L87.156,118.609C87.156,126.942,87.156,143.609,87.156,160.275C87.156,176.942,87.156,193.609,87.156,201.942L87.156,210.275" class="er relationshipLine"/><path style="stroke: gray; fill: none;" marker-start="url(#ONLY_ONE_START)" marker-end="url(#ZERO_OR_MORE_END)" d="M87.156,322.551L87.156,330.884C87.156,339.217,87.156,355.884,87.156,372.551C87.156,389.217,87.156,405.884,87.156,414.217L87.156,422.551" class="er relationshipLine"/><g transform="translate(21.2578125,20 )" id="entity-Regioes-d155fd71-28fb-5eb0-9943-e3ba19ce5941"><rect height="90.275390625" width="131.796875" y="0" x="0" class="er entityBox"/><text style="dominant-baseline: middle; text-anchor: middle; font-size: 12px;" transform="translate(65.8984375,12)" y="0" x="0" id="text-entity-Regioes-d155fd71-28fb-5eb0-9943-e3ba19ce5941" class="er entityLabel">Regioes</text><rect height="22.091796875" width="44.265625" y="24" x="0" class="er attributeBoxOdd"/><text style="dominant-baseline: middle; font-size: 10.2px;" transform="translate(5,35.0458984375)" y="0" x="0" id="text-entity-Regioes-d155fd71-28fb-5eb0-9943-e3ba19ce5941-attr-1-type" class="er entityLabel">int</text><rect height="22.091796875" width="65.96875" y="24" x="44.265625" class="er attributeBoxOdd"/><text style="dominant-baseline: middle; font-size: 10.2px;" transform="translate(49.265625,35.0458984375)" y="0" x="0" id="text-entity-Regioes-d155fd71-28fb-5eb0-9943-e3ba19ce5941-attr-1-name" class="er entityLabel">IdRegiao</text><rect height="22.091796875" width="21.5625" y="24" x="110.234375" class="er attributeBoxOdd"/><text style="dominant-baseline: middle; font-size: 10.2px;" transform="translate(115.234375,35.0458984375)" y="0" x="0" id="text-entity-Regioes-d155fd71-28fb-5eb0-9943-e3ba19ce5941-attr-1-key" class="er entityLabel">PK</text><rect height="22.091796875" width="44.265625" y="46.091796875" x="0" class="er attributeBoxEven"/><text style="dominant-baseline: middle; font-size: 10.2px;" transform="translate(5,57.1376953125)" y="0" x="0" id="text-entity-Regioes-d155fd71-28fb-5eb0-9943-e3ba19ce5941-attr-2-type" class="er entityLabel">varchar</text><rect height="22.091796875" width="65.96875" y="46.091796875" x="44.265625" class="er attributeBoxEven"/><text style="dominant-baseline: middle; font-size: 10.2px;" transform="translate(49.265625,57.1376953125)" y="0" x="0" id="text-entity-Regioes-d155fd71-28fb-5eb0-9943-e3ba19ce5941-attr-2-name" class="er entityLabel">CodRegiao</text><rect height="22.091796875" width="21.5625" y="46.091796875" x="110.234375" class="er attributeBoxEven"/><text style="dominant-baseline: middle; font-size: 10.2px;" transform="translate(115.234375,57.1376953125)" y="0" x="0" id="text-entity-Regioes-d155fd71-28fb-5eb0-9943-e3ba19ce5941-attr-2-key" class="er entityLabel"/><rect height="22.091796875" width="44.265625" y="68.18359375" x="0" class="er attributeBoxOdd"/><text style="dominant-baseline: middle; font-size: 10.2px;" transform="translate(5,79.2294921875)" y="0" x="0" id="text-entity-Regioes-d155fd71-28fb-5eb0-9943-e3ba19ce5941-attr-3-type" class="er entityLabel">varchar</text><rect height="22.091796875" width="65.96875" y="68.18359375" x="44.265625" class="er attributeBoxOdd"/><text style="dominant-baseline: middle; font-size: 10.2px;" transform="translate(49.265625,79.2294921875)" y="0" x="0" id="text-entity-Regioes-d155fd71-28fb-5eb0-9943-e3ba19ce5941-attr-3-name" class="er entityLabel">NomeRegiao</text><rect height="22.091796875" width="21.5625" y="68.18359375" x="110.234375" class="er attributeBoxOdd"/><text style="dominant-baseline: middle; font-size: 10.2px;" transform="translate(115.234375,79.2294921875)" y="0" x="0" id="text-entity-Regioes-d155fd71-28fb-5eb0-9943-e3ba19ce5941-attr-3-key" class="er entityLabel"/></g><g transform="translate(20,210.275390625 )" id="entity-Estados-2a6b3a17-e29a-5922-996d-a157610d5a14"><rect height="112.275390625" width="134.3125" y="0" x="0" class="er entityBox"/><text style="dominant-baseline: middle; text-anchor: middle; font-size: 12px;" transform="translate(67.15625,12)" y="0" x="0" id="text-entity-Estados-2a6b3a17-e29a-5922-996d-a157610d5a14" class="er entityLabel">Estados</text><rect height="22.091796875" width="44.265625" y="24" x="0" class="er attributeBoxOdd"/><text style="dominant-baseline: middle; font-size: 10.2px;" transform="translate(5,35.0458984375)" y="0" x="0" id="text-entity-Estados-2a6b3a17-e29a-5922-996d-a157610d5a14-attr-1-type" class="er entityLabel">char</text><rect height="22.091796875" width="68.484375" y="24" x="44.265625" class="er attributeBoxOdd"/><text style="dominant-baseline: middle; font-size: 10.2px;" transform="translate(49.265625,35.0458984375)" y="0" x="0" id="text-entity-Estados-2a6b3a17-e29a-5922-996d-a157610d5a14-attr-1-name" class="er entityLabel">SiglaEstado</text><rect height="22.091796875" width="21.5625" y="24" x="112.75" class="er attributeBoxOdd"/><text style="dominant-baseline: middle; font-size: 10.2px;" transform="translate(117.75,35.0458984375)" y="0" x="0" id="text-entity-Estados-2a6b3a17-e29a-5922-996d-a157610d5a14-attr-1-key" class="er entityLabel">PK</text><rect height="22" width="44.265625" y="46.091796875" x="0" class="er attributeBoxEven"/><text style="dominant-baseline: middle; font-size: 10.2px;" transform="translate(5,57.091796875)" y="0" x="0" id="text-entity-Estados-2a6b3a17-e29a-5922-996d-a157610d5a14-attr-2-type" class="er entityLabel">varchar</text><rect height="22" width="68.484375" y="46.091796875" x="44.265625" class="er attributeBoxEven"/><text style="dominant-baseline: middle; font-size: 10.2px;" transform="translate(49.265625,57.091796875)" y="0" x="0" id="text-entity-Estados-2a6b3a17-e29a-5922-996d-a157610d5a14-attr-2-name" class="er entityLabel">NomeEstado</text><rect height="22" width="21.5625" y="46.091796875" x="112.75" class="er attributeBoxEven"/><text style="dominant-baseline: middle; font-size: 10.2px;" transform="translate(117.75,57.091796875)" y="0" x="0" id="text-entity-Estados-2a6b3a17-e29a-5922-996d-a157610d5a14-attr-2-key" class="er entityLabel"/><rect height="22.091796875" width="44.265625" y="68.091796875" x="0" class="er attributeBoxOdd"/><text style="dominant-baseline: middle; font-size: 10.2px;" transform="translate(5,79.1376953125)" y="0" x="0" id="text-entity-Estados-2a6b3a17-e29a-5922-996d-a157610d5a14-attr-3-type" class="er entityLabel">varchar</text><rect height="22.091796875" width="68.484375" y="68.091796875" x="44.265625" class="er attributeBoxOdd"/><text style="dominant-baseline: middle; font-size: 10.2px;" transform="translate(49.265625,79.1376953125)" y="0" x="0" id="text-entity-Estados-2a6b3a17-e29a-5922-996d-a157610d5a14-attr-3-name" class="er entityLabel">NomeCapital</text><rect height="22.091796875" width="21.5625" y="68.091796875" x="112.75" class="er attributeBoxOdd"/><text style="dominant-baseline: middle; font-size: 10.2px;" transform="translate(117.75,79.1376953125)" y="0" x="0" id="text-entity-Estados-2a6b3a17-e29a-5922-996d-a157610d5a14-attr-3-key" class="er entityLabel"/><rect height="22.091796875" width="44.265625" y="90.18359375" x="0" class="er attributeBoxEven"/><text style="dominant-baseline: middle; font-size: 10.2px;" transform="translate(5,101.2294921875)" y="0" x="0" id="text-entity-Estados-2a6b3a17-e29a-5922-996d-a157610d5a14-attr-4-type" class="er entityLabel">int</text><rect height="22.091796875" width="68.484375" y="90.18359375" x="44.265625" class="er attributeBoxEven"/><text style="dominant-baseline: middle; font-size: 10.2px;" transform="translate(49.265625,101.2294921875)" y="0" x="0" id="text-entity-Estados-2a6b3a17-e29a-5922-996d-a157610d5a14-attr-4-name" class="er entityLabel">IdRegiao</text><rect height="22.091796875" width="21.5625" y="90.18359375" x="112.75" class="er attributeBoxEven"/><text style="dominant-baseline: middle; font-size: 10.2px;" transform="translate(117.75,101.2294921875)" y="0" x="0" id="text-entity-Estados-2a6b3a17-e29a-5922-996d-a157610d5a14-attr-4-key" class="er entityLabel">FK</text></g><g transform="translate(20.5859375,422.55078125 )" id="entity-Cidades-540de835-a738-5819-b64b-0e56f36b7030"><rect height="90.091796875" width="133.140625" y="0" x="0" class="er entityBox"/><text style="dominant-baseline: middle; text-anchor: middle; font-size: 12px;" transform="translate(66.5703125,12)" y="0" x="0" id="text-entity-Cidades-540de835-a738-5819-b64b-0e56f36b7030" class="er entityLabel">Cidades</text><rect height="22" width="44.265625" y="24" x="0" class="er attributeBoxOdd"/><text style="dominant-baseline: middle; font-size: 10.2px;" transform="translate(5,35)" y="0" x="0" id="text-entity-Cidades-540de835-a738-5819-b64b-0e56f36b7030-attr-1-type" class="er entityLabel">int</text><rect height="22" width="67.3125" y="24" x="44.265625" class="er attributeBoxOdd"/><text style="dominant-baseline: middle; font-size: 10.2px;" transform="translate(49.265625,35)" y="0" x="0" id="text-entity-Cidades-540de835-a738-5819-b64b-0e56f36b7030-attr-1-name" class="er entityLabel">IdCidade</text><rect height="22" width="21.5625" y="24" x="111.578125" class="er attributeBoxOdd"/><text style="dominant-baseline: middle; font-size: 10.2px;" transform="translate(116.578125,35)" y="0" x="0" id="text-entity-Cidades-540de835-a738-5819-b64b-0e56f36b7030-attr-1-key" class="er entityLabel">PK</text><rect height="22" width="44.265625" y="46" x="0" class="er attributeBoxEven"/><text style="dominant-baseline: middle; font-size: 10.2px;" transform="translate(5,57)" y="0" x="0" id="text-entity-Cidades-540de835-a738-5819-b64b-0e56f36b7030-attr-2-type" class="er entityLabel">varchar</text><rect height="22" width="67.3125" y="46" x="44.265625" class="er attributeBoxEven"/><text style="dominant-baseline: middle; font-size: 10.2px;" transform="translate(49.265625,57)" y="0" x="0" id="text-entity-Cidades-540de835-a738-5819-b64b-0e56f36b7030-attr-2-name" class="er entityLabel">NomeCidade</text><rect height="22" width="21.5625" y="46" x="111.578125" class="er attributeBoxEven"/><text style="dominant-baseline: middle; font-size: 10.2px;" transform="translate(116.578125,57)" y="0" x="0" id="text-entity-Cidades-540de835-a738-5819-b64b-0e56f36b7030-attr-2-key" class="er entityLabel"/><rect height="22.091796875" width="44.265625" y="68" x="0" class="er attributeBoxOdd"/><text style="dominant-baseline: middle; font-size: 10.2px;" transform="translate(5,79.0458984375)" y="0" x="0" id="text-entity-Cidades-540de835-a738-5819-b64b-0e56f36b7030-attr-3-type" class="er entityLabel">char</text><rect height="22.091796875" width="67.3125" y="68" x="44.265625" class="er attributeBoxOdd"/><text style="dominant-baseline: middle; font-size: 10.2px;" transform="translate(49.265625,79.0458984375)" y="0" x="0" id="text-entity-Cidades-540de835-a738-5819-b64b-0e56f36b7030-attr-3-name" class="er entityLabel">SiglaEstado</text><rect height="22.091796875" width="21.5625" y="68" x="111.578125" class="er attributeBoxOdd"/><text style="dominant-baseline: middle; font-size: 10.2px;" transform="translate(116.578125,79.0458984375)" y="0" x="0" id="text-entity-Cidades-540de835-a738-5819-b64b-0e56f36b7030-attr-3-key" class="er entityLabel">FK</text></g><rect height="14" width="44.84375" y="153.27499389648438" x="64.73412322998047" class="er relationshipLabelBox"/><text style="text-anchor: middle; dominant-baseline: middle; font-size: 12px;" y="160.27499389648438" x="87.15599822998047" id="rel1" class="er relationshipLabel">contains</text><rect height="14" width="44.84375" y="365.5509948730469" x="64.73412322998047" class="er relationshipLabelBox"/><text style="text-anchor: middle; dominant-baseline: middle; font-size: 12px;" y="372.5509948730469" x="87.15599822998047" id="rel2" class="er relationshipLabel">contains</text></svg>