<svg aria-roledescription="stateDiagram" role="graphics-document document" viewBox="0 0 2696.613525390625 1634.324951171875" style="max-width: 2696.61px; background-color: white;" class="statediagram" xmlns:xlink="http://www.w3.org/1999/xlink" xmlns="http://www.w3.org/2000/svg" width="100%" id="my-svg"><style>#my-svg{font-family:"trebuchet ms",verdana,arial,sans-serif;font-size:16px;fill:#333;}#my-svg .error-icon{fill:#552222;}#my-svg .error-text{fill:#552222;stroke:#552222;}#my-svg .edge-thickness-normal{stroke-width:1px;}#my-svg .edge-thickness-thick{stroke-width:3.5px;}#my-svg .edge-pattern-solid{stroke-dasharray:0;}#my-svg .edge-thickness-invisible{stroke-width:0;fill:none;}#my-svg .edge-pattern-dashed{stroke-dasharray:3;}#my-svg .edge-pattern-dotted{stroke-dasharray:2;}#my-svg .marker{fill:#333333;stroke:#333333;}#my-svg .marker.cross{stroke:#333333;}#my-svg svg{font-family:"trebuchet ms",verdana,arial,sans-serif;font-size:16px;}#my-svg p{margin:0;}#my-svg defs #statediagram-barbEnd{fill:#333333;stroke:#333333;}#my-svg g.stateGroup text{fill:#9370DB;stroke:none;font-size:10px;}#my-svg g.stateGroup text{fill:#333;stroke:none;font-size:10px;}#my-svg g.stateGroup .state-title{font-weight:bolder;fill:#131300;}#my-svg g.stateGroup rect{fill:#ECECFF;stroke:#9370DB;}#my-svg g.stateGroup line{stroke:#333333;stroke-width:1;}#my-svg .transition{stroke:#333333;stroke-width:1;fill:none;}#my-svg .stateGroup .composit{fill:white;border-bottom:1px;}#my-svg .stateGroup .alt-composit{fill:#e0e0e0;border-bottom:1px;}#my-svg .state-note{stroke:#aaaa33;fill:#fff5ad;}#my-svg .state-note text{fill:black;stroke:none;font-size:10px;}#my-svg .stateLabel .box{stroke:none;stroke-width:0;fill:#ECECFF;opacity:0.5;}#my-svg .edgeLabel .label rect{fill:#ECECFF;opacity:0.5;}#my-svg .edgeLabel{background-color:rgba(232,232,232, 0.8);text-align:center;}#my-svg .edgeLabel p{background-color:rgba(232,232,232, 0.8);}#my-svg .edgeLabel rect{opacity:0.5;background-color:rgba(232,232,232, 0.8);fill:rgba(232,232,232, 0.8);}#my-svg .edgeLabel .label text{fill:#333;}#my-svg .label div .edgeLabel{color:#333;}#my-svg .stateLabel text{fill:#131300;font-size:10px;font-weight:bold;}#my-svg .node circle.state-start{fill:#333333;stroke:#333333;}#my-svg .node .fork-join{fill:#333333;stroke:#333333;}#my-svg .node circle.state-end{fill:#9370DB;stroke:white;stroke-width:1.5;}#my-svg .end-state-inner{fill:white;stroke-width:1.5;}#my-svg .node rect{fill:#ECECFF;stroke:#9370DB;stroke-width:1px;}#my-svg .node polygon{fill:#ECECFF;stroke:#9370DB;stroke-width:1px;}#my-svg #statediagram-barbEnd{fill:#333333;}#my-svg .statediagram-cluster rect{fill:#ECECFF;stroke:#9370DB;stroke-width:1px;}#my-svg .cluster-label,#my-svg .nodeLabel{color:#131300;}#my-svg .statediagram-cluster rect.outer{rx:5px;ry:5px;}#my-svg .statediagram-state .divider{stroke:#9370DB;}#my-svg .statediagram-state .title-state{rx:5px;ry:5px;}#my-svg .statediagram-cluster.statediagram-cluster .inner{fill:white;}#my-svg .statediagram-cluster.statediagram-cluster-alt .inner{fill:#f0f0f0;}#my-svg .statediagram-cluster .inner{rx:0;ry:0;}#my-svg .statediagram-state rect.basic{rx:5px;ry:5px;}#my-svg .statediagram-state rect.divider{stroke-dasharray:10,10;fill:#f0f0f0;}#my-svg .note-edge{stroke-dasharray:5;}#my-svg .statediagram-note rect{fill:#fff5ad;stroke:#aaaa33;stroke-width:1px;rx:0;ry:0;}#my-svg .statediagram-note rect{fill:#fff5ad;stroke:#aaaa33;stroke-width:1px;rx:0;ry:0;}#my-svg .statediagram-note text{fill:black;}#my-svg .statediagram-note .nodeLabel{color:black;}#my-svg .statediagram .edgeLabel{color:red;}#my-svg #dependencyStart,#my-svg #dependencyEnd{fill:#333333;stroke:#333333;stroke-width:1;}#my-svg .statediagramTitleText{text-anchor:middle;font-size:18px;fill:#333;}#my-svg :root{--mermaid-font-family:"trebuchet ms",verdana,arial,sans-serif;}</style><g><defs><marker orient="auto" markerUnits="userSpaceOnUse" markerHeight="14" markerWidth="20" refY="7" refX="19" id="my-svg_stateDiagram-barbEnd"><path d="M 19,7 L9,13 L14,7 L9,1 Z"/></marker></defs><g class="root"><g class="clusters"/><g class="edgePaths"><path marker-end="url(#my-svg_stateDiagram-barbEnd)" style=";fill:none" class="edge-thickness-normal edge-pattern-solid transition" id="edge0" d="M22,810.575L26.167,810.575C30.333,810.575,38.667,810.575,47,810.575C55.333,810.575,63.667,810.575,67.833,810.575L72,810.575"/><path marker-end="url(#my-svg_stateDiagram-barbEnd)" style=";fill:none" class="edge-thickness-normal edge-pattern-solid transition" id="edge1" d="M127.261,830.575L140.643,842.246C154.026,853.917,180.79,877.258,219.312,888.929C257.833,900.6,308.112,900.6,361.82,900.6C415.529,900.6,472.667,900.6,521.375,901.545C570.083,902.49,610.362,904.381,630.501,905.326L650.641,906.271"/><path marker-end="url(#my-svg_stateDiagram-barbEnd)" style=";fill:none" class="edge-thickness-normal edge-pattern-solid transition" id="edge2" d="M106.94,790.575L123.709,662.146C140.478,533.717,174.016,276.858,215.925,148.429C257.833,20,308.112,20,361.82,20C415.529,20,472.667,20,526.005,20C579.344,20,628.883,20,674.992,20C721.102,20,763.781,20,810.46,20C857.138,20,907.815,20,964.365,20C1020.914,20,1083.336,20,1144.542,20C1205.747,20,1265.737,20,1321.849,20C1377.961,20,1430.195,20,1484.605,20C1539.016,20,1595.602,20,1652.145,20C1708.688,20,1765.188,20,1825.757,20C1886.326,20,1950.964,20,2016.88,20C2082.797,20,2149.992,20,2206.783,20C2263.573,20,2309.958,20,2349.777,20C2389.596,20,2422.849,20,2453.026,128.35C2483.203,236.7,2510.304,453.4,2523.854,561.75L2537.405,670.1"/><path marker-end="url(#my-svg_stateDiagram-barbEnd)" style=";fill:none" class="edge-thickness-normal edge-pattern-solid transition" id="edge3" d="M115.025,830.575L130.447,859.408C145.868,888.242,176.712,945.908,217.272,974.742C257.833,1003.575,308.112,1003.575,361.82,1003.575C415.529,1003.575,472.667,1003.575,526.005,1003.575C579.344,1003.575,628.883,1003.575,674.992,1003.575C721.102,1003.575,763.781,1003.575,810.46,1003.575C857.138,1003.575,907.815,1003.575,964.365,1003.575C1020.914,1003.575,1083.336,1003.575,1144.542,1003.575C1205.747,1003.575,1265.737,1003.575,1321.849,1003.575C1377.961,1003.575,1430.195,1003.575,1484.605,1003.575C1539.016,1003.575,1595.602,1003.575,1652.145,1003.575C1708.688,1003.575,1765.188,1003.575,1825.757,1003.575C1886.326,1003.575,1950.964,1003.575,2016.88,1003.575C2082.797,1003.575,2149.992,1003.575,2204.367,1032.246C2258.742,1060.917,2300.296,1118.258,2321.073,1146.929L2341.85,1175.6"/><path marker-end="url(#my-svg_stateDiagram-barbEnd)" style=";fill:none" class="edge-thickness-normal edge-pattern-solid transition" id="edge4" d="M117.233,790.575L132.287,767.246C147.341,743.917,177.448,697.258,209.257,680.592C241.067,663.925,274.579,677.25,291.335,683.913L308.091,690.575"/><path style=";fill:none" class="edge-thickness-normal edge-pattern-solid transition" id="s_start-cyclic-special-1" d="M107.061,790.575L123.81,667.988C140.559,545.4,174.057,300.225,215.937,177.638C257.817,55.05,308.079,55.05,333.21,55.05L358.341,55.05"/><path style=";fill:none" class="edge-thickness-normal edge-pattern-solid transition" id="s_start-cyclic-special-mid" d="M358.441,55.05L387.001,55.05C415.562,55.05,472.683,55.05,526.005,55.479C579.327,55.908,628.849,56.766,653.611,57.195L678.372,57.624"/><path marker-end="url(#my-svg_stateDiagram-barbEnd)" style=";fill:none" class="edge-thickness-normal edge-pattern-solid transition" id="s_start-cyclic-special-2" d="M678.372,57.636L653.611,63.047C628.849,68.457,579.327,79.279,525.997,84.689C472.667,90.1,415.529,90.1,361.82,90.1C308.112,90.1,257.833,90.1,215.967,206.846C174.101,323.592,140.647,557.083,123.92,673.829L107.194,790.575"/><path marker-end="url(#my-svg_stateDiagram-barbEnd)" style=";fill:none" class="edge-thickness-normal edge-pattern-solid transition" id="edge6" d="M110.087,790.575L126.332,734.158C142.576,677.742,175.065,564.908,216.449,508.492C257.833,452.075,308.112,452.075,361.82,452.075C415.529,452.075,472.667,452.075,526.005,452.075C579.344,452.075,628.883,452.075,674.992,452.075C721.102,452.075,763.781,452.075,810.46,452.075C857.138,452.075,907.815,452.075,964.365,452.075C1020.914,452.075,1083.336,452.075,1133.727,452.075C1184.117,452.075,1222.477,452.075,1241.656,452.075L1260.836,452.075"/><path marker-end="url(#my-svg_stateDiagram-barbEnd)" style=";fill:none" class="edge-thickness-normal edge-pattern-solid transition" id="edge7" d="M107.54,790.575L124.209,686.767C140.878,582.958,174.216,375.342,216.025,271.533C257.833,167.725,308.112,167.725,361.82,167.725C415.529,167.725,472.667,167.725,526.005,167.725C579.344,167.725,628.883,167.725,674.992,167.725C721.102,167.725,763.781,167.725,810.46,167.725C857.138,167.725,907.815,167.725,964.365,167.725C1020.914,167.725,1083.336,167.725,1144.542,167.725C1205.747,167.725,1265.737,167.725,1321.849,167.725C1377.961,167.725,1430.195,167.725,1484.605,167.725C1539.016,167.725,1595.602,167.725,1652.145,167.725C1708.688,167.725,1765.188,167.725,1825.757,167.725C1886.326,167.725,1950.964,167.725,2016.88,167.725C2082.797,167.725,2149.992,167.725,2206.783,167.725C2263.573,167.725,2309.958,167.725,2349.777,167.725C2389.596,167.725,2422.849,167.725,2452.908,251.454C2482.967,335.183,2509.832,502.642,2523.265,586.371L2536.698,670.1"/><path marker-end="url(#my-svg_stateDiagram-barbEnd)" style=";fill:none" class="edge-thickness-normal edge-pattern-solid transition" id="edge8" d="M2332.753,1215.6L2313.492,1231.929C2294.231,1248.258,2255.709,1280.917,2202.851,1297.246C2149.992,1313.575,2082.797,1313.575,2016.88,1313.575C1950.964,1313.575,1886.326,1313.575,1825.757,1313.575C1765.188,1313.575,1708.688,1313.575,1652.145,1313.575C1595.602,1313.575,1539.016,1313.575,1484.605,1313.575C1430.195,1313.575,1377.961,1313.575,1321.849,1313.575C1265.737,1313.575,1205.747,1313.575,1144.542,1313.575C1083.336,1313.575,1020.914,1313.575,964.365,1313.575C907.815,1313.575,857.138,1313.575,810.46,1313.575C763.781,1313.575,721.102,1313.575,674.992,1313.575C628.883,1313.575,579.344,1313.575,526.005,1313.575C472.667,1313.575,415.529,1313.575,361.82,1313.575C308.112,1313.575,257.833,1313.575,216.174,1233.075C174.514,1152.575,141.473,991.575,124.953,911.075L108.433,830.575"/><path marker-end="url(#my-svg_stateDiagram-barbEnd)" style=";fill:none" class="edge-thickness-normal edge-pattern-solid transition" id="edge9" d="M2358.666,1175.6L2374.905,1035.733C2391.144,895.867,2423.623,616.133,2453.04,531.883C2482.457,447.633,2508.812,558.867,2521.99,614.483L2535.168,670.1"/><path style=";fill:none" class="edge-thickness-normal edge-pattern-solid transition" id="s_comment-cyclic-special-1" d="M2364.061,1215.6L2379.401,1255.354C2394.741,1295.108,2425.421,1374.617,2454.721,1414.371C2484.02,1454.125,2511.938,1454.125,2525.897,1454.125L2539.856,1454.125"/><path style=";fill:none" class="edge-thickness-normal edge-pattern-solid transition" id="s_comment-cyclic-special-mid" d="M2539.956,1454.125L2553.915,1454.125C2567.874,1454.125,2595.793,1454.125,2619.395,1469.213C2642.997,1484.3,2662.283,1514.475,2671.926,1529.563L2681.568,1544.65"/><path marker-end="url(#my-svg_stateDiagram-barbEnd)" style=";fill:none" class="edge-thickness-normal edge-pattern-solid transition" id="s_comment-cyclic-special-2" d="M2681.565,1544.75L2671.923,1558.346C2662.28,1571.942,2642.996,1599.133,2619.386,1612.729C2595.776,1626.325,2567.841,1626.325,2539.906,1626.325C2511.971,1626.325,2484.036,1626.325,2454.215,1557.871C2424.393,1489.417,2392.684,1352.508,2376.83,1284.054L2360.976,1215.6"/><path style=";fill:none" class="edge-thickness-normal edge-pattern-solid transition" id="s_section_name-cyclic-special-1" d="M1338.298,432.075L1362.32,393.858C1386.342,355.642,1434.386,279.208,1486.692,240.992C1538.999,202.775,1595.568,202.775,1623.853,202.775L1652.137,202.775"/><path style=";fill:none" class="edge-thickness-normal edge-pattern-solid transition" id="s_section_name-cyclic-special-mid" d="M1652.238,202.775L1680.479,202.775C1708.721,202.775,1765.204,202.775,1825.757,212.448C1886.309,222.12,1950.93,241.465,1983.241,251.138L2015.552,260.81"/><path marker-end="url(#my-svg_stateDiagram-barbEnd)" style=";fill:none" class="edge-thickness-normal edge-pattern-solid transition" id="s_section_name-cyclic-special-2" d="M2015.552,260.86L1983.241,283.212C1950.93,305.565,1886.309,350.27,1825.748,372.622C1765.188,394.975,1708.688,394.975,1652.145,394.975C1595.602,394.975,1539.016,394.975,1493.753,401.158C1448.491,407.342,1414.552,419.708,1397.583,425.892L1380.614,432.075"/><path marker-end="url(#my-svg_stateDiagram-barbEnd)" style=";fill:none" class="edge-thickness-normal edge-pattern-solid transition" id="edge12" d="M1334.231,472.075L1358.931,530.158C1383.631,588.242,1433.03,704.408,1471.541,762.492C1510.052,820.575,1537.674,820.575,1551.486,820.575L1565.297,820.575"/><path marker-end="url(#my-svg_stateDiagram-barbEnd)" style=";fill:none" class="edge-thickness-normal edge-pattern-solid transition" id="edge13" d="M1390.617,464.705L1405.919,467.683C1421.221,470.662,1451.826,476.618,1495.421,479.597C1539.016,482.575,1595.602,482.575,1652.145,482.575C1708.688,482.575,1765.188,482.575,1825.757,482.575C1886.326,482.575,1950.964,482.575,2016.88,482.575C2082.797,482.575,2149.992,482.575,2206.783,482.575C2263.573,482.575,2309.958,482.575,2349.777,482.575C2389.596,482.575,2422.849,482.575,2452.097,513.829C2481.344,545.083,2506.587,607.592,2519.208,638.846L2531.83,670.1"/><path marker-end="url(#my-svg_stateDiagram-barbEnd)" style=";fill:none" class="edge-thickness-normal edge-pattern-solid transition" id="edge14" d="M1367.795,472.075L1386.9,481.158C1406.006,490.242,1444.218,508.408,1491.617,517.492C1539.016,526.575,1595.602,526.575,1652.145,526.575C1708.688,526.575,1765.188,526.575,1825.757,526.575C1886.326,526.575,1950.964,526.575,2016.88,526.575C2082.797,526.575,2149.992,526.575,2206.783,526.575C2263.573,526.575,2309.958,526.575,2349.777,526.575C2389.596,526.575,2422.849,526.575,2451.734,550.496C2480.62,574.417,2505.138,622.258,2517.397,646.179L2529.656,670.1"/><path marker-end="url(#my-svg_stateDiagram-barbEnd)" style=";fill:none" class="edge-thickness-normal edge-pattern-solid transition" id="edge15" d="M1664.272,840.575L1690.508,883.996C1716.744,927.417,1769.216,1014.258,1809.22,1057.784C1849.224,1101.309,1876.76,1101.519,1890.529,1101.624L1904.297,1101.728"/><path marker-end="url(#my-svg_stateDiagram-barbEnd)" style=";fill:none" class="edge-thickness-normal edge-pattern-solid transition" id="edge16" d="M1667.955,840.575L1693.577,873.075C1719.199,905.575,1770.443,970.575,1828.384,1003.075C1886.326,1035.575,1950.964,1035.575,2016.88,1035.575C2082.797,1035.575,2149.992,1035.575,2203.884,1058.913C2257.776,1082.25,2298.364,1128.925,2318.658,1152.263L2338.952,1175.6"/><path marker-end="url(#my-svg_stateDiagram-barbEnd)" style=";fill:none" class="edge-thickness-normal edge-pattern-solid transition" id="edge17" d="M1565.297,836.954L1551.486,839.558C1537.674,842.161,1510.052,847.368,1470.124,849.972C1430.195,852.575,1377.961,852.575,1321.849,852.575C1265.737,852.575,1205.747,852.575,1144.542,852.575C1083.336,852.575,1020.914,852.575,964.365,852.575C907.815,852.575,857.138,852.575,810.46,852.575C763.781,852.575,721.102,852.575,674.992,852.575C628.883,852.575,579.344,852.575,526.005,852.575C472.667,852.575,415.529,852.575,361.82,852.575C308.112,852.575,257.833,852.575,220.878,847.767C183.922,842.959,160.289,833.344,148.473,828.536L136.656,823.728"/><path marker-end="url(#my-svg_stateDiagram-barbEnd)" style=";fill:none" class="edge-thickness-normal edge-pattern-solid transition" id="edge18" d="M1665.126,800.575L1691.22,760.242C1717.313,719.908,1769.5,639.242,1827.913,598.908C1886.326,558.575,1950.964,558.575,2016.88,558.575C2082.797,558.575,2149.992,558.575,2206.783,558.575C2263.573,558.575,2309.958,558.575,2349.777,558.575C2389.596,558.575,2422.849,558.575,2451.319,577.163C2479.789,595.75,2503.476,632.925,2515.319,651.513L2527.163,670.1"/><path marker-end="url(#my-svg_stateDiagram-barbEnd)" style=";fill:none" class="edge-thickness-normal edge-pattern-solid transition" id="edge19" d="M1667.738,800.575L1693.396,767.575C1719.054,734.575,1770.371,668.575,1828.348,635.575C1886.326,602.575,1950.964,602.575,2016.88,602.575C2082.797,602.575,2149.992,602.575,2206.783,602.575C2263.573,602.575,2309.958,602.575,2349.777,602.575C2389.596,602.575,2422.849,602.575,2450.251,613.829C2477.653,625.083,2499.205,647.592,2509.981,658.846L2520.756,670.1"/><path style=";fill:none" class="edge-thickness-normal edge-pattern-solid transition" id="s_after_section_name_space-cyclic-special-1" d="M2025.911,1122.575L2057.79,1184.421C2089.67,1246.267,2153.429,1369.958,2208.492,1431.804C2263.556,1493.65,2309.925,1493.65,2333.109,1493.65L2356.294,1493.65"/><path style=";fill:none" class="edge-thickness-normal edge-pattern-solid transition" id="s_after_section_name_space-cyclic-special-mid" d="M2356.394,1493.65L2373.012,1493.65C2389.63,1493.65,2422.866,1493.65,2453.443,1497.568C2484.02,1501.487,2511.938,1509.324,2525.897,1513.242L2539.856,1517.161"/><path marker-end="url(#my-svg_stateDiagram-barbEnd)" style=";fill:none" class="edge-thickness-normal edge-pattern-solid transition" id="s_after_section_name_space-cyclic-special-2" d="M2539.856,1517.182L2525.897,1519.102C2511.938,1521.021,2484.02,1524.861,2453.434,1526.78C2422.849,1528.7,2389.596,1528.7,2349.777,1528.7C2309.958,1528.7,2263.573,1528.7,2208.359,1461.013C2153.146,1393.325,2089.104,1257.95,2057.084,1190.263L2025.063,1122.575"/><path marker-end="url(#my-svg_stateDiagram-barbEnd)" style=";fill:none" class="edge-thickness-normal edge-pattern-solid transition" id="edge21" d="M2126.906,1102.575L2141.953,1102.575C2157,1102.575,2187.094,1102.575,2220.347,1114.746C2253.6,1126.917,2290.013,1151.258,2308.219,1163.429L2326.426,1175.6"/><path marker-end="url(#my-svg_stateDiagram-barbEnd)" style=";fill:none" class="edge-thickness-normal edge-pattern-solid transition" id="edge22" d="M1904.297,1120.943L1890.529,1123.215C1876.76,1125.487,1849.224,1130.031,1807.206,1132.303C1765.188,1134.575,1708.688,1134.575,1652.145,1134.575C1595.602,1134.575,1539.016,1134.575,1484.605,1134.575C1430.195,1134.575,1377.961,1134.575,1321.849,1134.575C1265.737,1134.575,1205.747,1134.575,1144.542,1134.575C1083.336,1134.575,1020.914,1134.575,964.365,1134.575C907.815,1134.575,857.138,1134.575,810.46,1134.575C763.781,1134.575,721.102,1134.575,674.992,1134.575C628.883,1134.575,579.344,1134.575,526.005,1134.575C472.667,1134.575,415.529,1134.575,361.82,1134.575C308.112,1134.575,257.833,1134.575,216.552,1083.908C175.27,1033.242,142.985,931.908,126.843,881.242L110.7,830.575"/><path marker-end="url(#my-svg_stateDiagram-barbEnd)" style=";fill:none" class="edge-thickness-normal edge-pattern-solid transition" id="edge23" d="M2024.216,1082.575L2056.378,1007.908C2088.54,933.242,2152.864,783.908,2208.218,709.242C2263.573,634.575,2309.958,634.575,2349.777,634.575C2389.596,634.575,2422.849,634.575,2448.412,640.496C2473.974,646.417,2491.847,658.258,2500.784,664.179L2509.72,670.1"/><path marker-end="url(#my-svg_stateDiagram-barbEnd)" style=";fill:none" class="edge-thickness-normal edge-pattern-solid transition" id="edge24" d="M2025.11,1082.575L2057.123,1015.242C2089.136,947.908,2153.162,813.242,2208.367,745.908C2263.573,678.575,2309.958,678.575,2349.777,678.575C2389.596,678.575,2422.849,678.575,2447.956,679.741C2473.063,680.908,2490.023,683.24,2498.504,684.406L2506.984,685.573"/><path style=";fill:none" class="edge-thickness-normal edge-pattern-solid transition" id="s_before_key_space-cyclic-special-1" d="M364.124,690.575L391.738,594.258C419.351,497.942,474.578,305.308,526.953,208.992C579.327,112.675,628.849,112.675,653.611,112.675L678.372,112.675"/><path style=";fill:none" class="edge-thickness-normal edge-pattern-solid transition" id="s_before_key_space-cyclic-special-mid" d="M678.472,112.675L699.803,112.675C721.135,112.675,763.798,112.675,810.46,112.675C857.121,112.675,907.782,112.675,933.112,112.675L958.442,112.675"/><path marker-end="url(#my-svg_stateDiagram-barbEnd)" style=";fill:none" class="edge-thickness-normal edge-pattern-solid transition" id="s_before_key_space-cyclic-special-2" d="M958.442,112.687L933.112,118.526C907.782,124.366,857.121,136.046,810.451,141.885C763.781,147.725,721.102,147.725,674.992,147.725C628.883,147.725,579.344,147.725,527.02,238.2C474.697,328.675,419.589,509.625,392.035,600.1L364.482,690.575"/><path marker-end="url(#my-svg_stateDiagram-barbEnd)" style=";fill:none" class="edge-thickness-normal edge-pattern-solid transition" id="edge26" d="M365.909,730.575L393.225,803.242C420.541,875.908,475.173,1021.242,527.258,1093.908C579.344,1166.575,628.883,1166.575,674.992,1166.575C721.102,1166.575,763.781,1166.575,810.46,1166.575C857.138,1166.575,907.815,1166.575,964.365,1166.575C1020.914,1166.575,1083.336,1166.575,1144.542,1166.575C1205.747,1166.575,1265.737,1166.575,1321.849,1166.575C1377.961,1166.575,1430.195,1166.575,1484.605,1166.575C1539.016,1166.575,1595.602,1166.575,1652.145,1166.575C1708.688,1166.575,1765.188,1166.575,1825.757,1166.575C1886.326,1166.575,1950.964,1166.575,2016.88,1166.575C2082.797,1166.575,2149.992,1166.575,2198.637,1169.713C2247.281,1172.852,2277.375,1179.129,2292.422,1182.267L2307.469,1185.406"/><path marker-end="url(#my-svg_stateDiagram-barbEnd)" style=";fill:none" class="edge-thickness-normal edge-pattern-solid transition" id="edge27" d="M315.917,730.575L297.856,739.079C279.796,747.583,243.675,764.592,213.799,776.413C183.922,788.234,160.289,794.867,148.473,798.184L136.656,801.501"/><path marker-end="url(#my-svg_stateDiagram-barbEnd)" style=";fill:none" class="edge-thickness-normal edge-pattern-solid transition" id="edge28" d="M373.832,730.575L399.827,764.246C425.823,797.917,477.814,865.258,523.948,895.538C570.083,925.818,610.362,919.035,630.501,915.644L650.641,912.253"/><path marker-end="url(#my-svg_stateDiagram-barbEnd)" style=";fill:none" class="edge-thickness-normal edge-pattern-solid transition" id="edge29" d="M438.328,710.575L453.574,710.575C468.82,710.575,499.313,710.575,539.328,710.575C579.344,710.575,628.883,710.575,674.992,710.575C721.102,710.575,763.781,710.575,810.46,710.575C857.138,710.575,907.815,710.575,964.365,710.575C1020.914,710.575,1083.336,710.575,1144.542,710.575C1205.747,710.575,1265.737,710.575,1321.849,710.575C1377.961,710.575,1430.195,710.575,1484.605,710.575C1539.016,710.575,1595.602,710.575,1652.145,710.575C1708.688,710.575,1765.188,710.575,1825.757,710.575C1886.326,710.575,1950.964,710.575,2016.88,710.575C2082.797,710.575,2149.992,710.575,2206.783,710.575C2263.573,710.575,2309.958,710.575,2349.777,710.575C2389.596,710.575,2422.849,710.575,2447.956,708.503C2473.063,706.431,2490.023,702.287,2498.504,700.215L2506.984,698.143"/><path style=";fill:none" class="edge-thickness-normal edge-pattern-solid transition" id="s_after_key_space-cyclic-special-1" d="M965.797,745.575L995.791,663.458C1025.784,581.342,1085.771,417.108,1145.751,334.992C1205.731,252.875,1265.704,252.875,1295.69,252.875L1325.677,252.875"/><path style=";fill:none" class="edge-thickness-normal edge-pattern-solid transition" id="s_after_key_space-cyclic-special-mid" d="M1325.777,252.875L1351.885,252.875C1377.994,252.875,1430.212,252.875,1484.605,255.453C1538.999,258.032,1595.568,263.189,1623.853,265.767L1652.137,268.345"/><path marker-end="url(#my-svg_stateDiagram-barbEnd)" style=";fill:none" class="edge-thickness-normal edge-pattern-solid transition" id="s_after_key_space-cyclic-special-2" d="M1652.137,268.376L1623.853,283.318C1595.568,298.259,1538.999,328.142,1484.597,343.084C1430.195,358.025,1377.961,358.025,1321.849,358.025C1265.737,358.025,1205.747,358.025,1146.073,422.617C1086.399,487.208,1027.041,616.392,997.361,680.983L967.682,745.575"/><path marker-end="url(#my-svg_stateDiagram-barbEnd)" style=";fill:none" class="edge-thickness-normal edge-pattern-solid transition" id="edge31" d="M966.778,785.575L996.608,857.575C1026.438,929.575,1086.098,1073.575,1133.617,1147.148C1181.135,1220.72,1216.513,1223.865,1234.202,1225.438L1251.891,1227.011"/><path marker-end="url(#my-svg_stateDiagram-barbEnd)" style=";fill:none" class="edge-thickness-normal edge-pattern-solid transition" id="edge32" d="M1032.688,765.575L1051.533,765.575C1070.378,765.575,1108.068,765.575,1156.908,765.575C1205.747,765.575,1265.737,765.575,1321.849,765.575C1377.961,765.575,1430.195,765.575,1484.605,765.575C1539.016,765.575,1595.602,765.575,1652.145,765.575C1708.688,765.575,1765.188,765.575,1825.757,765.575C1886.326,765.575,1950.964,765.575,2016.88,765.575C2082.797,765.575,2149.992,765.575,2206.783,765.575C2263.573,765.575,2309.958,765.575,2349.777,765.575C2389.596,765.575,2422.849,765.575,2449.741,756.329C2476.634,747.083,2497.167,728.592,2507.433,719.346L2517.699,710.1"/><path marker-end="url(#my-svg_stateDiagram-barbEnd)" style=";fill:none" class="edge-thickness-normal edge-pattern-solid transition" id="edge33" d="M989.965,785.575L1015.931,802.075C1041.896,818.575,1093.827,851.575,1149.787,868.075C1205.747,884.575,1265.737,884.575,1321.849,884.575C1377.961,884.575,1430.195,884.575,1484.605,884.575C1539.016,884.575,1595.602,884.575,1652.145,884.575C1708.688,884.575,1765.188,884.575,1825.757,884.575C1886.326,884.575,1950.964,884.575,2016.88,884.575C2082.797,884.575,2149.992,884.575,2206.783,884.575C2263.573,884.575,2309.958,884.575,2349.777,884.575C2389.596,884.575,2422.849,884.575,2452.006,855.496C2481.164,826.417,2506.226,768.258,2518.757,739.179L2531.288,710.1"/><path style=";fill:none" class="edge-thickness-normal edge-pattern-solid transition" id="s_before_value_space-cyclic-special-1" d="M1658.656,919.575L1685.828,835.567C1713,751.558,1767.344,583.542,1826.826,499.533C1886.309,415.525,1950.93,415.525,1983.241,415.525L2015.552,415.525"/><path style=";fill:none" class="edge-thickness-normal edge-pattern-solid transition" id="s_before_value_space-cyclic-special-mid" d="M2015.652,415.525L2049.241,415.525C2082.83,415.525,2150.009,415.525,2206.783,416.025C2263.556,416.525,2309.925,417.524,2333.109,418.024L2356.294,418.524"/><path marker-end="url(#my-svg_stateDiagram-barbEnd)" style=";fill:none" class="edge-thickness-normal edge-pattern-solid transition" id="s_before_value_space-cyclic-special-2" d="M2356.294,418.537L2333.109,423.876C2309.925,429.216,2263.556,439.896,2206.774,445.235C2149.992,450.575,2082.797,450.575,2016.88,450.575C1950.964,450.575,1886.326,450.575,1826.912,528.742C1767.498,606.908,1713.309,763.242,1686.215,841.408L1659.12,919.575"/><path marker-end="url(#my-svg_stateDiagram-barbEnd)" style=";fill:none" class="edge-thickness-normal edge-pattern-solid transition" id="edge35" d="M1565.383,955.938L1551.557,958.544C1537.732,961.15,1510.081,966.363,1470.138,968.969C1430.195,971.575,1377.961,971.575,1321.849,971.575C1265.737,971.575,1205.747,971.575,1144.542,971.575C1083.336,971.575,1020.914,971.575,964.365,971.575C907.815,971.575,857.138,971.575,810.46,971.575C763.781,971.575,721.102,971.575,674.992,971.575C628.883,971.575,579.344,971.575,526.005,971.575C472.667,971.575,415.529,971.575,361.82,971.575C308.112,971.575,257.833,971.575,217.627,948.075C177.42,924.575,147.286,877.575,132.219,854.075L117.151,830.575"/><path marker-end="url(#my-svg_stateDiagram-barbEnd)" style=";fill:none" class="edge-thickness-normal edge-pattern-solid transition" id="edge36" d="M1738.992,939.575L1752.775,939.575C1766.557,939.575,1794.122,939.575,1840.224,939.575C1886.326,939.575,1950.964,939.575,2016.88,939.575C2082.797,939.575,2149.992,939.575,2206.783,939.575C2263.573,939.575,2309.958,939.575,2349.777,939.575C2389.596,939.575,2422.849,939.575,2452.323,901.329C2481.797,863.083,2507.492,786.592,2520.34,748.346L2533.188,710.1"/><path marker-end="url(#my-svg_stateDiagram-barbEnd)" style=";fill:none" class="edge-thickness-normal edge-pattern-solid transition" id="edge37" d="M1663.338,959.575L1689.729,1006.913C1716.121,1054.25,1768.904,1148.925,1827.615,1196.263C1886.326,1243.6,1950.964,1243.6,2016.88,1243.6C2082.797,1243.6,2149.992,1243.6,2198.637,1238.41C2247.281,1233.22,2277.375,1222.839,2292.422,1217.649L2307.469,1212.459"/><path marker-end="url(#my-svg_stateDiagram-barbEnd)" style=";fill:none" class="edge-thickness-normal edge-pattern-solid transition" id="edge38" d="M1659.228,959.575L1686.305,1036.492C1713.381,1113.408,1767.534,1267.242,1821.155,1354.914C1874.776,1442.587,1927.865,1464.099,1954.409,1474.854L1980.953,1485.61"/><path marker-end="url(#my-svg_stateDiagram-barbEnd)" style=";fill:none" class="edge-thickness-normal edge-pattern-solid transition" id="edge39" d="M1336.387,1213.575L1360.727,1167.908C1385.068,1122.242,1433.749,1030.908,1471.915,985.242C1510.081,939.575,1537.732,939.575,1551.557,939.575L1565.383,939.575"/><path marker-end="url(#my-svg_stateDiagram-barbEnd)" style=";fill:none" class="edge-thickness-normal edge-pattern-solid transition" id="edge40" d="M1353.709,1253.575L1375.163,1268.908C1396.616,1284.242,1439.523,1314.908,1489.269,1330.242C1539.016,1345.575,1595.602,1345.575,1652.145,1345.575C1708.688,1345.575,1765.188,1345.575,1825.757,1345.575C1886.326,1345.575,1950.964,1345.575,2016.88,1345.575C2082.797,1345.575,2149.992,1345.575,2206.783,1345.575C2263.573,1345.575,2309.958,1345.575,2349.777,1345.575C2389.596,1345.575,2422.849,1345.575,2453.017,1239.663C2483.184,1133.75,2510.267,921.925,2523.808,816.013L2537.349,710.1"/><path marker-end="url(#my-svg_stateDiagram-barbEnd)" style=";fill:none" class="edge-thickness-normal edge-pattern-solid transition" id="edge41" d="M1251.891,1253.268L1234.202,1257.986C1216.513,1262.704,1181.135,1272.139,1132.236,1276.857C1083.336,1281.575,1020.914,1281.575,964.365,1281.575C907.815,1281.575,857.138,1281.575,810.46,1281.575C763.781,1281.575,721.102,1281.575,674.992,1281.575C628.883,1281.575,579.344,1281.575,526.005,1281.575C472.667,1281.575,415.529,1281.575,361.82,1281.575C308.112,1281.575,257.833,1281.575,216.22,1206.408C174.607,1131.242,141.659,980.908,125.185,905.742L108.711,830.575"/><path marker-end="url(#my-svg_stateDiagram-barbEnd)" style=";fill:none" class="edge-thickness-normal edge-pattern-solid transition" id="edge42" d="M1340.005,1253.575L1363.742,1286.825C1387.48,1320.075,1434.955,1386.575,1486.985,1419.825C1539.016,1453.075,1595.602,1453.075,1652.145,1453.075C1708.688,1453.075,1765.188,1453.075,1819.982,1459.451C1874.776,1465.826,1927.865,1478.577,1954.409,1484.953L1980.953,1491.328"/><path style=";fill:none" class="edge-thickness-normal edge-pattern-solid transition" id="s_key-cyclic-special-1" d="M682.657,887.575L703.291,790.142C723.925,692.708,765.193,497.842,811.157,400.408C857.121,302.975,907.782,302.975,933.112,302.975L958.442,302.975"/><path style=";fill:none" class="edge-thickness-normal edge-pattern-solid transition" id="s_key-cyclic-special-mid" d="M958.542,302.975L989.745,302.975C1020.947,302.975,1083.353,302.975,1144.542,302.975C1205.731,302.975,1265.704,302.975,1295.69,302.975L1325.677,302.975"/><path marker-end="url(#my-svg_stateDiagram-barbEnd)" style=";fill:none" class="edge-thickness-normal edge-pattern-solid transition" id="s_key-cyclic-special-2" d="M1325.677,302.985L1295.69,308.825C1265.704,314.665,1205.731,326.345,1144.533,332.185C1083.336,338.025,1020.914,338.025,964.365,338.025C907.815,338.025,857.138,338.025,811.209,429.617C765.28,521.208,724.099,704.392,703.509,795.983L682.918,887.575"/><path marker-end="url(#my-svg_stateDiagram-barbEnd)" style=";fill:none" class="edge-thickness-normal edge-pattern-solid transition" id="edge44" d="M685.91,927.575L706.001,981.242C726.093,1034.908,766.277,1142.242,811.708,1195.908C857.138,1249.575,907.815,1249.575,964.365,1249.575C1020.914,1249.575,1083.336,1249.575,1132.236,1248.002C1181.135,1246.43,1216.513,1243.285,1234.202,1241.712L1251.891,1240.139"/><path marker-end="url(#my-svg_stateDiagram-barbEnd)" style=";fill:none" class="edge-thickness-normal edge-pattern-solid transition" id="edge45" d="M683.87,927.575L704.302,1002.575C724.734,1077.575,765.597,1227.575,811.368,1302.575C857.138,1377.575,907.815,1377.575,964.365,1377.575C1020.914,1377.575,1083.336,1377.575,1144.542,1377.575C1205.747,1377.575,1265.737,1377.575,1321.849,1377.575C1377.961,1377.575,1430.195,1377.575,1484.605,1377.575C1539.016,1377.575,1595.602,1377.575,1652.145,1377.575C1708.688,1377.575,1765.188,1377.575,1825.757,1377.575C1886.326,1377.575,1950.964,1377.575,2016.88,1377.575C2082.797,1377.575,2149.992,1377.575,2206.783,1377.575C2263.573,1377.575,2309.958,1377.575,2349.777,1377.575C2389.596,1377.575,2422.849,1377.575,2453.036,1266.329C2483.224,1155.083,2510.346,932.592,2523.907,821.346L2537.468,710.1"/><path marker-end="url(#my-svg_stateDiagram-barbEnd)" style=";fill:none" class="edge-thickness-normal edge-pattern-solid transition" id="edge46" d="M696.456,887.575L714.79,867.242C733.124,846.908,769.792,806.242,801.099,785.908C832.406,765.575,858.352,765.575,871.324,765.575L884.297,765.575"/><path marker-end="url(#my-svg_stateDiagram-barbEnd)" style=";fill:none" class="edge-thickness-normal edge-pattern-solid transition" id="edge47" d="M1980.953,1504.296L1954.409,1507.855C1927.865,1511.414,1874.776,1518.532,1819.982,1522.091C1765.188,1525.65,1708.688,1525.65,1652.145,1525.65C1595.602,1525.65,1539.016,1525.65,1484.605,1525.65C1430.195,1525.65,1377.961,1525.65,1321.849,1525.65C1265.737,1525.65,1205.747,1525.65,1144.542,1525.65C1083.336,1525.65,1020.914,1525.65,964.365,1525.65C907.815,1525.65,857.138,1525.65,810.46,1525.65C763.781,1525.65,721.102,1525.65,674.992,1525.65C628.883,1525.65,579.344,1525.65,526.005,1525.65C472.667,1525.65,415.529,1525.65,361.82,1525.65C308.112,1525.65,257.833,1525.65,215.971,1409.804C174.108,1293.958,140.662,1062.267,123.939,946.421L107.215,830.575"/><path marker-end="url(#my-svg_stateDiagram-barbEnd)" style=";fill:none" class="edge-thickness-normal edge-pattern-solid transition" id="edge48" d="M2050.25,1488.125L2078.073,1478.871C2105.896,1469.617,2161.542,1451.108,2212.557,1441.854C2263.573,1432.6,2309.958,1432.6,2349.777,1432.6C2389.596,1432.6,2422.849,1432.6,2453.066,1312.183C2483.284,1191.767,2510.466,950.933,2524.058,830.517L2537.649,710.1"/><path marker-end="url(#my-svg_stateDiagram-barbEnd)" style=";fill:none" class="edge-thickness-normal edge-pattern-solid transition" id="edge49" d="M2033.596,1479.65L2064.195,1445.642C2094.793,1411.633,2155.99,1343.617,2203.983,1299.608C2251.977,1255.6,2286.766,1235.6,2304.16,1225.6L2321.555,1215.6"/><path style=";fill:none" class="edge-thickness-normal edge-pattern-solid transition" id="s_value-cyclic-special-1" d="M2050.25,1510.667L2078.073,1519.515C2105.896,1528.362,2161.542,1546.056,2212.549,1554.903C2263.556,1563.75,2309.925,1563.75,2333.109,1563.75L2356.294,1563.75"/><path style=";fill:none" class="edge-thickness-normal edge-pattern-solid transition" id="s_value-cyclic-special-mid" d="M2356.394,1563.75L2373.012,1563.75C2389.63,1563.75,2422.866,1563.75,2453.443,1567.668C2484.02,1571.587,2511.938,1579.424,2525.897,1583.342L2539.856,1587.261"/><path marker-end="url(#my-svg_stateDiagram-barbEnd)" style=";fill:none" class="edge-thickness-normal edge-pattern-solid transition" id="s_value-cyclic-special-2" d="M2539.856,1587.282L2525.897,1589.202C2511.938,1591.121,2484.02,1594.961,2453.434,1596.88C2422.849,1598.8,2389.596,1598.8,2349.777,1598.8C2309.958,1598.8,2263.573,1598.8,2212.557,1585.115C2161.542,1571.431,2105.896,1544.061,2078.073,1530.377L2050.25,1516.692"/><path marker-end="url(#my-svg_stateDiagram-barbEnd)" style=";fill:none" class="edge-thickness-normal edge-pattern-solid transition" id="edge51" d="M2572.828,690.1L2581.309,690.1C2589.789,690.1,2606.75,690.1,2623.712,690.1C2640.674,690.1,2657.637,690.1,2666.119,690.1L2674.6,690.1"/></g><g class="edgeLabels"><g class="edgeLabel"><g transform="translate(0, 0)" class="label"><foreignObject height="0" width="0"><div style="display: table-cell; white-space: nowrap; line-height: 1.5; max-width: 200px; text-align: center;" class="labelBkg" xmlns="http://www.w3.org/1999/xhtml"><span class="edgeLabel"></span></div></foreignObject></g></g><g transform="translate(358.390625, 900.6000000089407)" class="edgeLabel"><g transform="translate(-66.4765625, -12)" class="label"><foreignObject height="24" width="132.953125"><div style="display: table-cell; white-space: nowrap; line-height: 1.5; max-width: 200px; text-align: center;" class="labelBkg" xmlns="http://www.w3.org/1999/xhtml"><span class="edgeLabel"><p>c_keyval_key_first</p></span></div></foreignObject></g></g><g transform="translate(1325.7265625, 20)" class="edgeLabel"><g transform="translate(-20.0546875, -12)" class="label"><foreignObject height="24" width="40.109375"><div style="display: table-cell; white-space: nowrap; line-height: 1.5; max-width: 200px; text-align: center;" class="labelBkg" xmlns="http://www.w3.org/1999/xhtml"><span class="edgeLabel"><p>c_eos</p></span></div></foreignObject></g></g><g transform="translate(1145.7578125, 1003.5750000085682)" class="edgeLabel"><g transform="translate(-65.28125, -12)" class="label"><foreignObject height="24" width="130.5625"><div style="display: table-cell; white-space: nowrap; line-height: 1.5; max-width: 200px; text-align: center;" class="labelBkg" xmlns="http://www.w3.org/1999/xhtml"><span class="edgeLabel"><p>c_comment_begin</p></span></div></foreignObject></g></g><g transform="translate(207.5546875, 650.6000000089407)" class="edgeLabel"><g transform="translate(-17.3515625, -12)" class="label"><foreignObject height="24" width="34.703125"><div style="display: table-cell; white-space: nowrap; line-height: 1.5; max-width: 200px; text-align: center;" class="labelBkg" xmlns="http://www.w3.org/1999/xhtml"><span class="edgeLabel"><p>c_ws</p></span></div></foreignObject></g></g><g class="edgeLabel"><g transform="translate(0, 0)" class="label"><foreignObject height="0" width="0"><div style="display: table-cell; white-space: nowrap; line-height: 1.5; max-width: 200px; text-align: center;" class="labelBkg" xmlns="http://www.w3.org/1999/xhtml"><span class="edgeLabel"></span></div></foreignObject></g></g><g transform="translate(529.8046875, 55.05000000074506)" class="edgeLabel"><g transform="translate(-45.8984375, -12)" class="label"><foreignObject height="24" width="91.796875"><div style="display: table-cell; white-space: nowrap; line-height: 1.5; max-width: 200px; text-align: center;" class="labelBkg" xmlns="http://www.w3.org/1999/xhtml"><span class="edgeLabel"><p>c_line_break</p></span></div></foreignObject></g></g><g class="edgeLabel"><g transform="translate(0, 0)" class="label"><foreignObject height="0" width="0"><div style="display: table-cell; white-space: nowrap; line-height: 1.5; max-width: 200px; text-align: center;" class="labelBkg" xmlns="http://www.w3.org/1999/xhtml"><span class="edgeLabel"></span></div></foreignObject></g></g><g transform="translate(678.421875, 452.07500000856817)" class="edgeLabel"><g transform="translate(-57.140625, -12)" class="label"><foreignObject height="24" width="114.28125"><div style="display: table-cell; white-space: nowrap; line-height: 1.5; max-width: 200px; text-align: center;" class="labelBkg" xmlns="http://www.w3.org/1999/xhtml"><span class="edgeLabel"><p>c_open_bracket</p></span></div></foreignObject></g></g><g transform="translate(1325.7265625, 167.72500000335276)" class="edgeLabel"><g transform="translate(-25.8828125, -12)" class="label"><foreignObject height="24" width="51.765625"><div style="display: table-cell; white-space: nowrap; line-height: 1.5; max-width: 200px; text-align: center;" class="labelBkg" xmlns="http://www.w3.org/1999/xhtml"><span class="edgeLabel"><p>default</p></span></div></foreignObject></g></g><g transform="translate(1145.7578125, 1313.5750000085682)" class="edgeLabel"><g transform="translate(-45.8984375, -12)" class="label"><foreignObject height="24" width="91.796875"><div style="display: table-cell; white-space: nowrap; line-height: 1.5; max-width: 200px; text-align: center;" class="labelBkg" xmlns="http://www.w3.org/1999/xhtml"><span class="edgeLabel"><p>c_line_break</p></span></div></foreignObject></g></g><g transform="translate(2456.1015625, 336.40000000596046)" class="edgeLabel"><g transform="translate(-20.0546875, -12)" class="label"><foreignObject height="24" width="40.109375"><div style="display: table-cell; white-space: nowrap; line-height: 1.5; max-width: 200px; text-align: center;" class="labelBkg" xmlns="http://www.w3.org/1999/xhtml"><span class="edgeLabel"><p>c_eos</p></span></div></foreignObject></g></g><g class="edgeLabel"><g transform="translate(0, 0)" class="label"><foreignObject height="0" width="0"><div style="display: table-cell; white-space: nowrap; line-height: 1.5; max-width: 200px; text-align: center;" class="labelBkg" xmlns="http://www.w3.org/1999/xhtml"><span class="edgeLabel"></span></div></foreignObject></g></g><g transform="translate(2623.7109375, 1454.1250000093132)" class="edgeLabel"><g transform="translate(-25.8828125, -12)" class="label"><foreignObject height="24" width="51.765625"><div style="display: table-cell; white-space: nowrap; line-height: 1.5; max-width: 200px; text-align: center;" class="labelBkg" xmlns="http://www.w3.org/1999/xhtml"><span class="edgeLabel"><p>default</p></span></div></foreignObject></g></g><g class="edgeLabel"><g transform="translate(0, 0)" class="label"><foreignObject height="0" width="0"><div style="display: table-cell; white-space: nowrap; line-height: 1.5; max-width: 200px; text-align: center;" class="labelBkg" xmlns="http://www.w3.org/1999/xhtml"><span class="edgeLabel"></span></div></foreignObject></g></g><g class="edgeLabel"><g transform="translate(0, 0)" class="label"><foreignObject height="0" width="0"><div style="display: table-cell; white-space: nowrap; line-height: 1.5; max-width: 200px; text-align: center;" class="labelBkg" xmlns="http://www.w3.org/1999/xhtml"><span class="edgeLabel"></span></div></foreignObject></g></g><g transform="translate(1821.6875, 202.77500000409782)" class="edgeLabel"><g transform="translate(-57.609375, -12)" class="label"><foreignObject height="24" width="115.21875"><div style="display: table-cell; white-space: nowrap; line-height: 1.5; max-width: 200px; text-align: center;" class="labelBkg" xmlns="http://www.w3.org/1999/xhtml"><span class="edgeLabel"><p>c_section_name</p></span></div></foreignObject></g></g><g class="edgeLabel"><g transform="translate(0, 0)" class="label"><foreignObject height="0" width="0"><div style="display: table-cell; white-space: nowrap; line-height: 1.5; max-width: 200px; text-align: center;" class="labelBkg" xmlns="http://www.w3.org/1999/xhtml"><span class="edgeLabel"></span></div></foreignObject></g></g><g transform="translate(1482.4296875, 820.5750000085682)" class="edgeLabel"><g transform="translate(-57.8671875, -12)" class="label"><foreignObject height="24" width="115.734375"><div style="display: table-cell; white-space: nowrap; line-height: 1.5; max-width: 200px; text-align: center;" class="labelBkg" xmlns="http://www.w3.org/1999/xhtml"><span class="edgeLabel"><p>c_close_bracket</p></span></div></foreignObject></g></g><g transform="translate(2015.6015625, 482.57500000856817)" class="edgeLabel"><g transform="translate(-20.0546875, -12)" class="label"><foreignObject height="24" width="40.109375"><div style="display: table-cell; white-space: nowrap; line-height: 1.5; max-width: 200px; text-align: center;" class="labelBkg" xmlns="http://www.w3.org/1999/xhtml"><span class="edgeLabel"><p>c_eos</p></span></div></foreignObject></g></g><g transform="translate(2015.6015625, 526.5750000085682)" class="edgeLabel"><g transform="translate(-25.8828125, -12)" class="label"><foreignObject height="24" width="51.765625"><div style="display: table-cell; white-space: nowrap; line-height: 1.5; max-width: 200px; text-align: center;" class="labelBkg" xmlns="http://www.w3.org/1999/xhtml"><span class="edgeLabel"><p>default</p></span></div></foreignObject></g></g><g transform="translate(1821.6875, 1101.1000000089407)" class="edgeLabel"><g transform="translate(-17.3515625, -12)" class="label"><foreignObject height="24" width="34.703125"><div style="display: table-cell; white-space: nowrap; line-height: 1.5; max-width: 200px; text-align: center;" class="labelBkg" xmlns="http://www.w3.org/1999/xhtml"><span class="edgeLabel"><p>c_ws</p></span></div></foreignObject></g></g><g transform="translate(2015.6015625, 1035.5750000085682)" class="edgeLabel"><g transform="translate(-65.28125, -12)" class="label"><foreignObject height="24" width="130.5625"><div style="display: table-cell; white-space: nowrap; line-height: 1.5; max-width: 200px; text-align: center;" class="labelBkg" xmlns="http://www.w3.org/1999/xhtml"><span class="edgeLabel"><p>c_comment_begin</p></span></div></foreignObject></g></g><g transform="translate(806.4609375, 852.5750000085682)" class="edgeLabel"><g transform="translate(-45.8984375, -12)" class="label"><foreignObject height="24" width="91.796875"><div style="display: table-cell; white-space: nowrap; line-height: 1.5; max-width: 200px; text-align: center;" class="labelBkg" xmlns="http://www.w3.org/1999/xhtml"><span class="edgeLabel"><p>c_line_break</p></span></div></foreignObject></g></g><g transform="translate(2217.1875, 558.5750000085682)" class="edgeLabel"><g transform="translate(-20.0546875, -12)" class="label"><foreignObject height="24" width="40.109375"><div style="display: table-cell; white-space: nowrap; line-height: 1.5; max-width: 200px; text-align: center;" class="labelBkg" xmlns="http://www.w3.org/1999/xhtml"><span class="edgeLabel"><p>c_eos</p></span></div></foreignObject></g></g><g transform="translate(2217.1875, 602.5750000085682)" class="edgeLabel"><g transform="translate(-25.8828125, -12)" class="label"><foreignObject height="24" width="51.765625"><div style="display: table-cell; white-space: nowrap; line-height: 1.5; max-width: 200px; text-align: center;" class="labelBkg" xmlns="http://www.w3.org/1999/xhtml"><span class="edgeLabel"><p>default</p></span></div></foreignObject></g></g><g class="edgeLabel"><g transform="translate(0, 0)" class="label"><foreignObject height="0" width="0"><div style="display: table-cell; white-space: nowrap; line-height: 1.5; max-width: 200px; text-align: center;" class="labelBkg" xmlns="http://www.w3.org/1999/xhtml"><span class="edgeLabel"></span></div></foreignObject></g></g><g transform="translate(2456.1015625, 1493.6500000096858)" class="edgeLabel"><g transform="translate(-17.3515625, -12)" class="label"><foreignObject height="24" width="34.703125"><div style="display: table-cell; white-space: nowrap; line-height: 1.5; max-width: 200px; text-align: center;" class="labelBkg" xmlns="http://www.w3.org/1999/xhtml"><span class="edgeLabel"><p>c_ws</p></span></div></foreignObject></g></g><g class="edgeLabel"><g transform="translate(0, 0)" class="label"><foreignObject height="0" width="0"><div style="display: table-cell; white-space: nowrap; line-height: 1.5; max-width: 200px; text-align: center;" class="labelBkg" xmlns="http://www.w3.org/1999/xhtml"><span class="edgeLabel"></span></div></foreignObject></g></g><g transform="translate(2217.1875, 1102.5750000085682)" class="edgeLabel"><g transform="translate(-65.28125, -12)" class="label"><foreignObject height="24" width="130.5625"><div style="display: table-cell; white-space: nowrap; line-height: 1.5; max-width: 200px; text-align: center;" class="labelBkg" xmlns="http://www.w3.org/1999/xhtml"><span class="edgeLabel"><p>c_comment_begin</p></span></div></foreignObject></g></g><g transform="translate(958.4921875, 1134.5750000085682)" class="edgeLabel"><g transform="translate(-45.8984375, -12)" class="label"><foreignObject height="24" width="91.796875"><div style="display: table-cell; white-space: nowrap; line-height: 1.5; max-width: 200px; text-align: center;" class="labelBkg" xmlns="http://www.w3.org/1999/xhtml"><span class="edgeLabel"><p>c_line_break</p></span></div></foreignObject></g></g><g transform="translate(2356.34375, 634.5750000085682)" class="edgeLabel"><g transform="translate(-20.0546875, -12)" class="label"><foreignObject height="24" width="40.109375"><div style="display: table-cell; white-space: nowrap; line-height: 1.5; max-width: 200px; text-align: center;" class="labelBkg" xmlns="http://www.w3.org/1999/xhtml"><span class="edgeLabel"><p>c_eos</p></span></div></foreignObject></g></g><g transform="translate(2356.34375, 678.5750000085682)" class="edgeLabel"><g transform="translate(-25.8828125, -12)" class="label"><foreignObject height="24" width="51.765625"><div style="display: table-cell; white-space: nowrap; line-height: 1.5; max-width: 200px; text-align: center;" class="labelBkg" xmlns="http://www.w3.org/1999/xhtml"><span class="edgeLabel"><p>default</p></span></div></foreignObject></g></g><g class="edgeLabel"><g transform="translate(0, 0)" class="label"><foreignObject height="0" width="0"><div style="display: table-cell; white-space: nowrap; line-height: 1.5; max-width: 200px; text-align: center;" class="labelBkg" xmlns="http://www.w3.org/1999/xhtml"><span class="edgeLabel"></span></div></foreignObject></g></g><g transform="translate(806.4609375, 112.6750000026077)" class="edgeLabel"><g transform="translate(-17.3515625, -12)" class="label"><foreignObject height="24" width="34.703125"><div style="display: table-cell; white-space: nowrap; line-height: 1.5; max-width: 200px; text-align: center;" class="labelBkg" xmlns="http://www.w3.org/1999/xhtml"><span class="edgeLabel"><p>c_ws</p></span></div></foreignObject></g></g><g class="edgeLabel"><g transform="translate(0, 0)" class="label"><foreignObject height="0" width="0"><div style="display: table-cell; white-space: nowrap; line-height: 1.5; max-width: 200px; text-align: center;" class="labelBkg" xmlns="http://www.w3.org/1999/xhtml"><span class="edgeLabel"></span></div></foreignObject></g></g><g transform="translate(1325.7265625, 1166.5750000085682)" class="edgeLabel"><g transform="translate(-65.28125, -12)" class="label"><foreignObject height="24" width="130.5625"><div style="display: table-cell; white-space: nowrap; line-height: 1.5; max-width: 200px; text-align: center;" class="labelBkg" xmlns="http://www.w3.org/1999/xhtml"><span class="edgeLabel"><p>c_comment_begin</p></span></div></foreignObject></g></g><g transform="translate(207.5546875, 781.6000000089407)" class="edgeLabel"><g transform="translate(-45.8984375, -12)" class="label"><foreignObject height="24" width="91.796875"><div style="display: table-cell; white-space: nowrap; line-height: 1.5; max-width: 200px; text-align: center;" class="labelBkg" xmlns="http://www.w3.org/1999/xhtml"><span class="edgeLabel"><p>c_line_break</p></span></div></foreignObject></g></g><g transform="translate(529.8046875, 932.6000000089407)" class="edgeLabel"><g transform="translate(-66.4765625, -12)" class="label"><foreignObject height="24" width="132.953125"><div style="display: table-cell; white-space: nowrap; line-height: 1.5; max-width: 200px; text-align: center;" class="labelBkg" xmlns="http://www.w3.org/1999/xhtml"><span class="edgeLabel"><p>c_keyval_key_first</p></span></div></foreignObject></g></g><g transform="translate(1482.4296875, 710.5750000085682)" class="edgeLabel"><g transform="translate(-25.8828125, -12)" class="label"><foreignObject height="24" width="51.765625"><div style="display: table-cell; white-space: nowrap; line-height: 1.5; max-width: 200px; text-align: center;" class="labelBkg" xmlns="http://www.w3.org/1999/xhtml"><span class="edgeLabel"><p>default</p></span></div></foreignObject></g></g><g class="edgeLabel"><g transform="translate(0, 0)" class="label"><foreignObject height="0" width="0"><div style="display: table-cell; white-space: nowrap; line-height: 1.5; max-width: 200px; text-align: center;" class="labelBkg" xmlns="http://www.w3.org/1999/xhtml"><span class="edgeLabel"></span></div></foreignObject></g></g><g transform="translate(1482.4296875, 252.87500000558794)" class="edgeLabel"><g transform="translate(-17.3515625, -12)" class="label"><foreignObject height="24" width="34.703125"><div style="display: table-cell; white-space: nowrap; line-height: 1.5; max-width: 200px; text-align: center;" class="labelBkg" xmlns="http://www.w3.org/1999/xhtml"><span class="edgeLabel"><p>c_ws</p></span></div></foreignObject></g></g><g class="edgeLabel"><g transform="translate(0, 0)" class="label"><foreignObject height="0" width="0"><div style="display: table-cell; white-space: nowrap; line-height: 1.5; max-width: 200px; text-align: center;" class="labelBkg" xmlns="http://www.w3.org/1999/xhtml"><span class="edgeLabel"></span></div></foreignObject></g></g><g transform="translate(1145.7578125, 1217.5750000085682)" class="edgeLabel"><g transform="translate(-81.1328125, -12)" class="label"><foreignObject height="24" width="162.265625"><div style="display: table-cell; white-space: nowrap; line-height: 1.5; max-width: 200px; text-align: center;" class="labelBkg" xmlns="http://www.w3.org/1999/xhtml"><span class="edgeLabel"><p>c_key_value_delimiter</p></span></div></foreignObject></g></g><g transform="translate(1821.6875, 765.5750000085682)" class="edgeLabel"><g transform="translate(-20.0546875, -12)" class="label"><foreignObject height="24" width="40.109375"><div style="display: table-cell; white-space: nowrap; line-height: 1.5; max-width: 200px; text-align: center;" class="labelBkg" xmlns="http://www.w3.org/1999/xhtml"><span class="edgeLabel"><p>c_eos</p></span></div></foreignObject></g></g><g transform="translate(1821.6875, 884.5750000085682)" class="edgeLabel"><g transform="translate(-25.8828125, -12)" class="label"><foreignObject height="24" width="51.765625"><div style="display: table-cell; white-space: nowrap; line-height: 1.5; max-width: 200px; text-align: center;" class="labelBkg" xmlns="http://www.w3.org/1999/xhtml"><span class="edgeLabel"><p>default</p></span></div></foreignObject></g></g><g class="edgeLabel"><g transform="translate(0, 0)" class="label"><foreignObject height="0" width="0"><div style="display: table-cell; white-space: nowrap; line-height: 1.5; max-width: 200px; text-align: center;" class="labelBkg" xmlns="http://www.w3.org/1999/xhtml"><span class="edgeLabel"></span></div></foreignObject></g></g><g transform="translate(2217.1875, 415.5250000078231)" class="edgeLabel"><g transform="translate(-17.3515625, -12)" class="label"><foreignObject height="24" width="34.703125"><div style="display: table-cell; white-space: nowrap; line-height: 1.5; max-width: 200px; text-align: center;" class="labelBkg" xmlns="http://www.w3.org/1999/xhtml"><span class="edgeLabel"><p>c_ws</p></span></div></foreignObject></g></g><g class="edgeLabel"><g transform="translate(0, 0)" class="label"><foreignObject height="0" width="0"><div style="display: table-cell; white-space: nowrap; line-height: 1.5; max-width: 200px; text-align: center;" class="labelBkg" xmlns="http://www.w3.org/1999/xhtml"><span class="edgeLabel"></span></div></foreignObject></g></g><g transform="translate(806.4609375, 971.5750000085682)" class="edgeLabel"><g transform="translate(-45.8984375, -12)" class="label"><foreignObject height="24" width="91.796875"><div style="display: table-cell; white-space: nowrap; line-height: 1.5; max-width: 200px; text-align: center;" class="labelBkg" xmlns="http://www.w3.org/1999/xhtml"><span class="edgeLabel"><p>c_line_break</p></span></div></foreignObject></g></g><g transform="translate(2217.1875, 939.5750000085682)" class="edgeLabel"><g transform="translate(-20.0546875, -12)" class="label"><foreignObject height="24" width="40.109375"><div style="display: table-cell; white-space: nowrap; line-height: 1.5; max-width: 200px; text-align: center;" class="labelBkg" xmlns="http://www.w3.org/1999/xhtml"><span class="edgeLabel"><p>c_eos</p></span></div></foreignObject></g></g><g transform="translate(2015.6015625, 1243.6000000089407)" class="edgeLabel"><g transform="translate(-65.28125, -12)" class="label"><foreignObject height="24" width="130.5625"><div style="display: table-cell; white-space: nowrap; line-height: 1.5; max-width: 200px; text-align: center;" class="labelBkg" xmlns="http://www.w3.org/1999/xhtml"><span class="edgeLabel"><p>c_comment_begin</p></span></div></foreignObject></g></g><g transform="translate(1821.6875, 1421.0750000085682)" class="edgeLabel"><g transform="translate(-25.8828125, -12)" class="label"><foreignObject height="24" width="51.765625"><div style="display: table-cell; white-space: nowrap; line-height: 1.5; max-width: 200px; text-align: center;" class="labelBkg" xmlns="http://www.w3.org/1999/xhtml"><span class="edgeLabel"><p>default</p></span></div></foreignObject></g></g><g transform="translate(1482.4296875, 939.5750000085682)" class="edgeLabel"><g transform="translate(-17.3515625, -12)" class="label"><foreignObject height="24" width="34.703125"><div style="display: table-cell; white-space: nowrap; line-height: 1.5; max-width: 200px; text-align: center;" class="labelBkg" xmlns="http://www.w3.org/1999/xhtml"><span class="edgeLabel"><p>c_ws</p></span></div></foreignObject></g></g><g transform="translate(2015.6015625, 1345.5750000085682)" class="edgeLabel"><g transform="translate(-20.0546875, -12)" class="label"><foreignObject height="24" width="40.109375"><div style="display: table-cell; white-space: nowrap; line-height: 1.5; max-width: 200px; text-align: center;" class="labelBkg" xmlns="http://www.w3.org/1999/xhtml"><span class="edgeLabel"><p>c_eos</p></span></div></foreignObject></g></g><g transform="translate(678.421875, 1281.5750000085682)" class="edgeLabel"><g transform="translate(-45.8984375, -12)" class="label"><foreignObject height="24" width="91.796875"><div style="display: table-cell; white-space: nowrap; line-height: 1.5; max-width: 200px; text-align: center;" class="labelBkg" xmlns="http://www.w3.org/1999/xhtml"><span class="edgeLabel"><p>c_line_break</p></span></div></foreignObject></g></g><g transform="translate(1652.1875, 1453.0750000085682)" class="edgeLabel"><g transform="translate(-25.8828125, -12)" class="label"><foreignObject height="24" width="51.765625"><div style="display: table-cell; white-space: nowrap; line-height: 1.5; max-width: 200px; text-align: center;" class="labelBkg" xmlns="http://www.w3.org/1999/xhtml"><span class="edgeLabel"><p>default</p></span></div></foreignObject></g></g><g class="edgeLabel"><g transform="translate(0, 0)" class="label"><foreignObject height="0" width="0"><div style="display: table-cell; white-space: nowrap; line-height: 1.5; max-width: 200px; text-align: center;" class="labelBkg" xmlns="http://www.w3.org/1999/xhtml"><span class="edgeLabel"></span></div></foreignObject></g></g><g transform="translate(1145.7578125, 302.97500000707805)" class="edgeLabel"><g transform="translate(-47.5234375, -12)" class="label"><foreignObject height="24" width="95.046875"><div style="display: table-cell; white-space: nowrap; line-height: 1.5; max-width: 200px; text-align: center;" class="labelBkg" xmlns="http://www.w3.org/1999/xhtml"><span class="edgeLabel"><p>c_keyval_key</p></span></div></foreignObject></g></g><g class="edgeLabel"><g transform="translate(0, 0)" class="label"><foreignObject height="0" width="0"><div style="display: table-cell; white-space: nowrap; line-height: 1.5; max-width: 200px; text-align: center;" class="labelBkg" xmlns="http://www.w3.org/1999/xhtml"><span class="edgeLabel"></span></div></foreignObject></g></g><g transform="translate(958.4921875, 1249.5750000085682)" class="edgeLabel"><g transform="translate(-81.1328125, -12)" class="label"><foreignObject height="24" width="162.265625"><div style="display: table-cell; white-space: nowrap; line-height: 1.5; max-width: 200px; text-align: center;" class="labelBkg" xmlns="http://www.w3.org/1999/xhtml"><span class="edgeLabel"><p>c_key_value_delimiter</p></span></div></foreignObject></g></g><g transform="translate(1652.1875, 1377.5750000085682)" class="edgeLabel"><g transform="translate(-20.0546875, -12)" class="label"><foreignObject height="24" width="40.109375"><div style="display: table-cell; white-space: nowrap; line-height: 1.5; max-width: 200px; text-align: center;" class="labelBkg" xmlns="http://www.w3.org/1999/xhtml"><span class="edgeLabel"><p>c_eos</p></span></div></foreignObject></g></g><g transform="translate(806.4609375, 765.5750000085682)" class="edgeLabel"><g transform="translate(-17.3515625, -12)" class="label"><foreignObject height="24" width="34.703125"><div style="display: table-cell; white-space: nowrap; line-height: 1.5; max-width: 200px; text-align: center;" class="labelBkg" xmlns="http://www.w3.org/1999/xhtml"><span class="edgeLabel"><p>c_ws</p></span></div></foreignObject></g></g><g transform="translate(958.4921875, 1525.6500000096858)" class="edgeLabel"><g transform="translate(-45.8984375, -12)" class="label"><foreignObject height="24" width="91.796875"><div style="display: table-cell; white-space: nowrap; line-height: 1.5; max-width: 200px; text-align: center;" class="labelBkg" xmlns="http://www.w3.org/1999/xhtml"><span class="edgeLabel"><p>c_line_break</p></span></div></foreignObject></g></g><g transform="translate(2356.34375, 1432.6000000089407)" class="edgeLabel"><g transform="translate(-20.0546875, -12)" class="label"><foreignObject height="24" width="40.109375"><div style="display: table-cell; white-space: nowrap; line-height: 1.5; max-width: 200px; text-align: center;" class="labelBkg" xmlns="http://www.w3.org/1999/xhtml"><span class="edgeLabel"><p>c_eos</p></span></div></foreignObject></g></g><g transform="translate(2217.1875, 1275.6000000089407)" class="edgeLabel"><g transform="translate(-65.28125, -12)" class="label"><foreignObject height="24" width="130.5625"><div style="display: table-cell; white-space: nowrap; line-height: 1.5; max-width: 200px; text-align: center;" class="labelBkg" xmlns="http://www.w3.org/1999/xhtml"><span class="edgeLabel"><p>c_comment_begin</p></span></div></foreignObject></g></g><g class="edgeLabel"><g transform="translate(0, 0)" class="label"><foreignObject height="0" width="0"><div style="display: table-cell; white-space: nowrap; line-height: 1.5; max-width: 200px; text-align: center;" class="labelBkg" xmlns="http://www.w3.org/1999/xhtml"><span class="edgeLabel"></span></div></foreignObject></g></g><g transform="translate(2456.1015625, 1563.7500000111759)" class="edgeLabel"><g transform="translate(-25.8828125, -12)" class="label"><foreignObject height="24" width="51.765625"><div style="display: table-cell; white-space: nowrap; line-height: 1.5; max-width: 200px; text-align: center;" class="labelBkg" xmlns="http://www.w3.org/1999/xhtml"><span class="edgeLabel"><p>default</p></span></div></foreignObject></g></g><g class="edgeLabel"><g transform="translate(0, 0)" class="label"><foreignObject height="0" width="0"><div style="display: table-cell; white-space: nowrap; line-height: 1.5; max-width: 200px; text-align: center;" class="labelBkg" xmlns="http://www.w3.org/1999/xhtml"><span class="edgeLabel"></span></div></foreignObject></g></g><g class="edgeLabel"><g transform="translate(0, 0)" class="label"><foreignObject height="0" width="0"><div style="display: table-cell; white-space: nowrap; line-height: 1.5; max-width: 200px; text-align: center;" class="labelBkg" xmlns="http://www.w3.org/1999/xhtml"><span class="edgeLabel"></span></div></foreignObject></g></g></g><g class="nodes"><g transform="translate(15, 810.5750000085682)" id="state-root_start-0" class="node default"><circle height="14" width="14" r="7" class="state-start"/></g><g transform="translate(104.328125, 810.5750000085682)" id="state-s_start-47" class="node  statediagram-state"><rect height="40" width="64.65625" y="-20" x="-32.328125" ry="5" rx="5" style="" class="basic label-container"/><g transform="translate(-24.328125, -12)" style="" class="label"><rect/><foreignObject height="24" width="48.65625"><div style="display: table-cell; white-space: nowrap; line-height: 1.5; max-width: 200px; text-align: center;" xmlns="http://www.w3.org/1999/xhtml"><span class="nodeLabel"><p>s_start</p></span></div></foreignObject></g></g><g transform="translate(678.421875, 907.5750000085682)" id="state-s_key-46" class="node  statediagram-state"><rect height="40" width="55.5625" y="-20" x="-27.78125" ry="5" rx="5" style="" class="basic label-container"/><g transform="translate(-19.78125, -12)" style="" class="label"><rect/><foreignObject height="24" width="39.5625"><div style="display: table-cell; white-space: nowrap; line-height: 1.5; max-width: 200px; text-align: center;" xmlns="http://www.w3.org/1999/xhtml"><span class="nodeLabel"><p>s_key</p></span></div></foreignObject></g></g><g transform="translate(2539.90625, 690.1000000089407)" id="state-s_done-51" class="node  statediagram-state"><rect height="40" width="65.84375" y="-20" x="-32.921875" ry="5" rx="5" style="" class="basic label-container"/><g transform="translate(-24.921875, -12)" style="" class="label"><rect/><foreignObject height="24" width="49.84375"><div style="display: table-cell; white-space: nowrap; line-height: 1.5; max-width: 200px; text-align: center;" xmlns="http://www.w3.org/1999/xhtml"><span class="nodeLabel"><p>s_done</p></span></div></foreignObject></g></g><g transform="translate(2356.34375, 1195.6000000089407)" id="state-s_comment-49" class="node  statediagram-state"><rect height="40" width="97.75" y="-20" x="-48.875" ry="5" rx="5" style="" class="basic label-container"/><g transform="translate(-40.875, -12)" style="" class="label"><rect/><foreignObject height="24" width="81.75"><div style="display: table-cell; white-space: nowrap; line-height: 1.5; max-width: 200px; text-align: center;" xmlns="http://www.w3.org/1999/xhtml"><span class="nodeLabel"><p>s_comment</p></span></div></foreignObject></g></g><g transform="translate(358.390625, 710.5750000085682)" id="state-s_before_key_space-29" class="node  statediagram-state"><rect height="40" width="159.875" y="-20" x="-79.9375" ry="5" rx="5" style="" class="basic label-container"/><g transform="translate(-71.9375, -12)" style="" class="label"><rect/><foreignObject height="24" width="143.875"><div style="display: table-cell; white-space: nowrap; line-height: 1.5; max-width: 200px; text-align: center;" xmlns="http://www.w3.org/1999/xhtml"><span class="nodeLabel"><p>s_before_key_space</p></span></div></foreignObject></g></g><g transform="translate(1325.7265625, 452.07500000856817)" id="state-s_section_name-14" class="node  statediagram-state"><rect height="40" width="129.78125" y="-20" x="-64.890625" ry="5" rx="5" style="" class="basic label-container"/><g transform="translate(-56.890625, -12)" style="" class="label"><rect/><foreignObject height="24" width="113.78125"><div style="display: table-cell; white-space: nowrap; line-height: 1.5; max-width: 200px; text-align: center;" xmlns="http://www.w3.org/1999/xhtml"><span class="nodeLabel"><p>s_section_name</p></span></div></foreignObject></g></g><g transform="translate(1652.1875, 820.5750000085682)" id="state-s_after_section_name-19" class="node  statediagram-state"><rect height="40" width="173.78125" y="-20" x="-86.890625" ry="5" rx="5" style="" class="basic label-container"/><g transform="translate(-78.890625, -12)" style="" class="label"><rect/><foreignObject height="24" width="157.78125"><div style="display: table-cell; white-space: nowrap; line-height: 1.5; max-width: 200px; text-align: center;" xmlns="http://www.w3.org/1999/xhtml"><span class="nodeLabel"><p>s_after_section_name</p></span></div></foreignObject></g></g><g transform="translate(2015.6015625, 1102.5750000085682)" id="state-s_after_section_name_space-24" class="node  statediagram-state"><rect height="40" width="222.609375" y="-20" x="-111.3046875" ry="5" rx="5" style="" class="basic label-container"/><g transform="translate(-103.3046875, -12)" style="" class="label"><rect/><foreignObject height="24" width="206.609375"><div style="display: table; white-space: break-spaces; line-height: 1.5; max-width: 200px; text-align: center; width: 200px;" xmlns="http://www.w3.org/1999/xhtml"><span class="nodeLabel"><p>s_after_section_name_space</p></span></div></foreignObject></g></g><g transform="translate(958.4921875, 765.5750000085682)" id="state-s_after_key_space-46" class="node  statediagram-state"><rect height="40" width="148.390625" y="-20" x="-74.1953125" ry="5" rx="5" style="" class="basic label-container"/><g transform="translate(-66.1953125, -12)" style="" class="label"><rect/><foreignObject height="24" width="132.390625"><div style="display: table-cell; white-space: nowrap; line-height: 1.5; max-width: 200px; text-align: center;" xmlns="http://www.w3.org/1999/xhtml"><span class="nodeLabel"><p>s_after_key_space</p></span></div></foreignObject></g></g><g transform="translate(1325.7265625, 1233.5750000085682)" id="state-s_expecting_value-44" class="node  statediagram-state"><rect height="40" width="147.671875" y="-20" x="-73.8359375" ry="5" rx="5" style="" class="basic label-container"/><g transform="translate(-65.8359375, -12)" style="" class="label"><rect/><foreignObject height="24" width="131.671875"><div style="display: table-cell; white-space: nowrap; line-height: 1.5; max-width: 200px; text-align: center;" xmlns="http://www.w3.org/1999/xhtml"><span class="nodeLabel"><p>s_expecting_value</p></span></div></foreignObject></g></g><g transform="translate(1652.1875, 939.5750000085682)" id="state-s_before_value_space-39" class="node  statediagram-state"><rect height="40" width="173.609375" y="-20" x="-86.8046875" ry="5" rx="5" style="" class="basic label-container"/><g transform="translate(-78.8046875, -12)" style="" class="label"><rect/><foreignObject height="24" width="157.609375"><div style="display: table-cell; white-space: nowrap; line-height: 1.5; max-width: 200px; text-align: center;" xmlns="http://www.w3.org/1999/xhtml"><span class="nodeLabel"><p>s_before_value_space</p></span></div></foreignObject></g></g><g transform="translate(2015.6015625, 1499.6500000096858)" id="state-s_value-50" class="node  statediagram-state"><rect height="40" width="69.296875" y="-20" x="-34.6484375" ry="5" rx="5" style="" class="basic label-container"/><g transform="translate(-26.6484375, -12)" style="" class="label"><rect/><foreignObject height="24" width="53.296875"><div style="display: table-cell; white-space: nowrap; line-height: 1.5; max-width: 200px; text-align: center;" xmlns="http://www.w3.org/1999/xhtml"><span class="nodeLabel"><p>s_value</p></span></div></foreignObject></g></g><g transform="translate(2681.600396633148, 690.1000000089407)" id="state-root_end-51" class="node default"><g><path style="" fill="#ECECFF" stroke-width="0" stroke="none" d="M7 0 C7 0.40517908122283747, 6.964012880168563 0.816513743121899, 6.893654271085456 1.2155372436685123 C6.823295662002349 1.6145607442151257, 6.716427752933756 2.013397210557766, 6.5778483455013586 2.394141003279681 C6.439268938068961 2.7748847960015954, 6.26476736710249 3.149104622578984, 6.062177826491071 3.4999999999999996 C5.859588285879653 3.8508953774210153, 5.622755194947063 4.189128084166967, 5.362311101832846 4.499513267805774 C5.10186700871863 4.809898451444582, 4.809898451444583 5.10186700871863, 4.499513267805775 5.362311101832846 C4.189128084166968 5.622755194947063, 3.8508953774210166 5.859588285879652, 3.500000000000001 6.06217782649107 C3.149104622578985 6.264767367102489, 2.7748847960015963 6.439268938068961, 2.3941410032796817 6.5778483455013586 C2.013397210557767 6.716427752933756, 1.6145607442151264 6.823295662002349, 1.2155372436685128 6.893654271085456 C0.8165137431218992 6.964012880168563, 0.4051790812228379 7, 4.286263797015736e-16 7 C-0.405179081222837 7, -0.8165137431218985 6.964012880168563, -1.2155372436685121 6.893654271085456 C-1.6145607442151257 6.823295662002349, -2.0133972105577667 6.716427752933756, -2.394141003279681 6.5778483455013586 C-2.774884796001595 6.439268938068961, -3.149104622578983 6.26476736710249, -3.4999999999999982 6.062177826491071 C-3.8508953774210135 5.859588285879653, -4.189128084166966 5.6227551949470636, -4.499513267805773 5.362311101832848 C-4.809898451444581 5.101867008718632, -5.101867008718628 4.809898451444586, -5.3623111018328435 4.499513267805779 C-5.622755194947059 4.189128084166971, -5.859588285879649 3.8508953774210206, -6.062177826491068 3.5000000000000053 C-6.264767367102486 3.14910462257899, -6.439268938068958 2.774884796001602, -6.577848345501356 2.394141003279688 C-6.716427752933754 2.0133972105577738, -6.823295662002347 1.614560744215134, -6.893654271085454 1.215537243668521 C-6.9640128801685615 0.816513743121908, -6.999999999999999 0.4051790812228472, -7 1.0183126166254463e-14 C-7.000000000000001 -0.40517908122282686, -6.964012880168565 -0.8165137431218878, -6.893654271085459 -1.215537243668501 C-6.823295662002352 -1.6145607442151142, -6.716427752933759 -2.0133972105577542, -6.577848345501363 -2.394141003279669 C-6.439268938068967 -2.7748847960015834, -6.264767367102496 -3.149104622578972, -6.062177826491078 -3.4999999999999876 C-5.859588285879661 -3.8508953774210033, -5.6227551949470715 -4.1891280841669545, -5.362311101832856 -4.499513267805763 C-5.10186700871864 -4.809898451444571, -4.809898451444594 -5.10186700871862, -4.499513267805787 -5.362311101832836 C-4.189128084166979 -5.622755194947053, -3.850895377421028 -5.859588285879643, -3.5000000000000133 -6.062177826491062 C-3.1491046225789985 -6.264767367102482, -2.774884796001611 -6.439268938068954, -2.3941410032796973 -6.577848345501353 C-2.0133972105577835 -6.716427752933752, -1.6145607442151435 -6.823295662002345, -1.2155372436685306 -6.893654271085453 C-0.8165137431219176 -6.9640128801685615, -0.40517908122285695 -6.999999999999999, -1.9937625952807352e-14 -7 C0.4051790812228171 -7.000000000000001, 0.8165137431218781 -6.964012880168565, 1.2155372436684913 -6.89365427108546 C1.6145607442151044 -6.823295662002354, 2.013397210557745 -6.716427752933763, 2.3941410032796595 -6.5778483455013665 C2.774884796001574 -6.43926893806897, 3.149104622578963 -6.2647673671025, 3.499999999999979 -6.062177826491083 C3.8508953774209953 -5.859588285879665, 4.189128084166947 -5.622755194947077, 4.499513267805756 -5.362311101832862 C4.809898451444564 -5.1018670087186475, 5.101867008718613 -4.809898451444602, 5.362311101832829 -4.499513267805796 C5.622755194947046 -4.189128084166989, 5.859588285879637 -3.8508953774210393, 6.062177826491056 -3.500000000000025 C6.2647673671024755 -3.1491046225790105, 6.439268938068949 -2.774884796001623, 6.577848345501348 -2.3941410032797092 C6.716427752933747 -2.0133972105577955, 6.823295662002342 -1.6145607442151562, 6.893654271085451 -1.2155372436685434 C6.96401288016856 -0.8165137431219307, 6.982275711847575 -0.2025895406114567, 7 -3.2800750208310675e-14 C7.017724288152425 0.2025895406113911, 7.017724288152424 -0.2025895406114242, 7 0"/><path style="" fill="none" stroke-width="2" stroke="#333333" d="M7 0 C7 0.40517908122283747, 6.964012880168563 0.816513743121899, 6.893654271085456 1.2155372436685123 C6.823295662002349 1.6145607442151257, 6.716427752933756 2.013397210557766, 6.5778483455013586 2.394141003279681 C6.439268938068961 2.7748847960015954, 6.26476736710249 3.149104622578984, 6.062177826491071 3.4999999999999996 C5.859588285879653 3.8508953774210153, 5.622755194947063 4.189128084166967, 5.362311101832846 4.499513267805774 C5.10186700871863 4.809898451444582, 4.809898451444583 5.10186700871863, 4.499513267805775 5.362311101832846 C4.189128084166968 5.622755194947063, 3.8508953774210166 5.859588285879652, 3.500000000000001 6.06217782649107 C3.149104622578985 6.264767367102489, 2.7748847960015963 6.439268938068961, 2.3941410032796817 6.5778483455013586 C2.013397210557767 6.716427752933756, 1.6145607442151264 6.823295662002349, 1.2155372436685128 6.893654271085456 C0.8165137431218992 6.964012880168563, 0.4051790812228379 7, 4.286263797015736e-16 7 C-0.405179081222837 7, -0.8165137431218985 6.964012880168563, -1.2155372436685121 6.893654271085456 C-1.6145607442151257 6.823295662002349, -2.0133972105577667 6.716427752933756, -2.394141003279681 6.5778483455013586 C-2.774884796001595 6.439268938068961, -3.149104622578983 6.26476736710249, -3.4999999999999982 6.062177826491071 C-3.8508953774210135 5.859588285879653, -4.189128084166966 5.6227551949470636, -4.499513267805773 5.362311101832848 C-4.809898451444581 5.101867008718632, -5.101867008718628 4.809898451444586, -5.3623111018328435 4.499513267805779 C-5.622755194947059 4.189128084166971, -5.859588285879649 3.8508953774210206, -6.062177826491068 3.5000000000000053 C-6.264767367102486 3.14910462257899, -6.439268938068958 2.774884796001602, -6.577848345501356 2.394141003279688 C-6.716427752933754 2.0133972105577738, -6.823295662002347 1.614560744215134, -6.893654271085454 1.215537243668521 C-6.9640128801685615 0.816513743121908, -6.999999999999999 0.4051790812228472, -7 1.0183126166254463e-14 C-7.000000000000001 -0.40517908122282686, -6.964012880168565 -0.8165137431218878, -6.893654271085459 -1.215537243668501 C-6.823295662002352 -1.6145607442151142, -6.716427752933759 -2.0133972105577542, -6.577848345501363 -2.394141003279669 C-6.439268938068967 -2.7748847960015834, -6.264767367102496 -3.149104622578972, -6.062177826491078 -3.4999999999999876 C-5.859588285879661 -3.8508953774210033, -5.6227551949470715 -4.1891280841669545, -5.362311101832856 -4.499513267805763 C-5.10186700871864 -4.809898451444571, -4.809898451444594 -5.10186700871862, -4.499513267805787 -5.362311101832836 C-4.189128084166979 -5.622755194947053, -3.850895377421028 -5.859588285879643, -3.5000000000000133 -6.062177826491062 C-3.1491046225789985 -6.264767367102482, -2.774884796001611 -6.439268938068954, -2.3941410032796973 -6.577848345501353 C-2.0133972105577835 -6.716427752933752, -1.6145607442151435 -6.823295662002345, -1.2155372436685306 -6.893654271085453 C-0.8165137431219176 -6.9640128801685615, -0.40517908122285695 -6.999999999999999, -1.9937625952807352e-14 -7 C0.4051790812228171 -7.000000000000001, 0.8165137431218781 -6.964012880168565, 1.2155372436684913 -6.89365427108546 C1.6145607442151044 -6.823295662002354, 2.013397210557745 -6.716427752933763, 2.3941410032796595 -6.5778483455013665 C2.774884796001574 -6.43926893806897, 3.149104622578963 -6.2647673671025, 3.499999999999979 -6.062177826491083 C3.8508953774209953 -5.859588285879665, 4.189128084166947 -5.622755194947077, 4.499513267805756 -5.362311101832862 C4.809898451444564 -5.1018670087186475, 5.101867008718613 -4.809898451444602, 5.362311101832829 -4.499513267805796 C5.622755194947046 -4.189128084166989, 5.859588285879637 -3.8508953774210393, 6.062177826491056 -3.500000000000025 C6.2647673671024755 -3.1491046225790105, 6.439268938068949 -2.774884796001623, 6.577848345501348 -2.3941410032797092 C6.716427752933747 -2.0133972105577955, 6.823295662002342 -1.6145607442151562, 6.893654271085451 -1.2155372436685434 C6.96401288016856 -0.8165137431219307, 6.982275711847575 -0.2025895406114567, 7 -3.2800750208310675e-14 C7.017724288152425 0.2025895406113911, 7.017724288152424 -0.2025895406114242, 7 0"/><g><path style="" fill="#9370DB" stroke-width="0" stroke="none" d="M2.5 0 C2.5 0.14470681472244193, 2.487147457203058 0.29161205111496386, 2.46201938253052 0.4341204441673258 C2.436891307857982 0.5766288372196877, 2.3987241974763416 0.7190704323420595, 2.3492315519647713 0.8550503583141718 C2.299738906453201 0.991030284286284, 2.2374169168223177 1.124680222349637, 2.165063509461097 1.2499999999999998 C2.092710102099876 1.3753197776503625, 2.0081268553382365 1.496117172916774, 1.915111107797445 1.6069690242163481 C1.8220953602566536 1.7178208755159223, 1.7178208755159226 1.8220953602566536, 1.6069690242163484 1.915111107797445 C1.4961171729167742 2.0081268553382365, 1.375319777650363 2.0927101020998755, 1.2500000000000002 2.1650635094610964 C1.1246802223496375 2.2374169168223172, 0.9910302842862845 2.2997389064532, 0.8550503583141721 2.349231551964771 C0.7190704323420597 2.3987241974763416, 0.576628837219688 2.436891307857982, 0.43412044416732604 2.46201938253052 C0.291612051114964 2.487147457203058, 0.14470681472244212 2.5, 1.5308084989341916e-16 2.5 C-0.1447068147224418 2.5, -0.2916120511149638 2.487147457203058, -0.43412044416732576 2.46201938253052 C-0.5766288372196877 2.436891307857982, -0.7190704323420595 2.3987241974763416, -0.8550503583141718 2.3492315519647713 C-0.991030284286284 2.299738906453201, -1.124680222349637 2.2374169168223177, -1.2499999999999996 2.165063509461097 C-1.375319777650362 2.092710102099876, -1.4961171729167733 2.008126855338237, -1.6069690242163475 1.9151111077974459 C-1.7178208755159217 1.8220953602566548, -1.822095360256653 1.7178208755159234, -1.9151111077974443 1.6069690242163495 C-2.0081268553382357 1.4961171729167755, -2.0927101020998746 1.3753197776503645, -2.1650635094610955 1.250000000000002 C-2.2374169168223164 1.1246802223496395, -2.2997389064531992 0.9910302842862865, -2.34923155196477 0.8550503583141743 C-2.3987241974763407 0.7190704323420621, -2.436891307857981 0.5766288372196907, -2.4620193825305194 0.434120444167329 C-2.487147457203058 0.29161205111496724, -2.5 0.14470681472244545, -2.5 3.636830773662308e-15 C-2.5 -0.14470681472243818, -2.4871474572030587 -0.2916120511149599, -2.4620193825305208 -0.4341204441673218 C-2.436891307857983 -0.5766288372196837, -2.398724197476343 -0.7190704323420553, -2.3492315519647726 -0.8550503583141675 C-2.2997389064532023 -0.9910302842862798, -2.23741691682232 -1.1246802223496328, -2.165063509461099 -1.2499999999999956 C-2.092710102099878 -1.3753197776503583, -2.00812685533824 -1.4961171729167695, -1.9151111077974488 -1.606969024216344 C-1.8220953602566576 -1.7178208755159183, -1.7178208755159263 -1.82209536025665, -1.6069690242163523 -1.9151111077974416 C-1.4961171729167784 -2.0081268553382334, -1.3753197776503672 -2.0927101020998724, -1.2500000000000047 -2.1650635094610937 C-1.1246802223496422 -2.237416916822315, -0.9910302842862897 -2.299738906453198, -0.8550503583141776 -2.3492315519647686 C-0.7190704323420656 -2.3987241974763394, -0.5766288372196942 -2.4368913078579806, -0.43412044416733236 -2.462019382530519 C-0.29161205111497057 -2.4871474572030574, -0.1447068147224489 -2.4999999999999996, -7.120580697431198e-15 -2.5 C0.14470681472243463 -2.5000000000000004, 0.29161205111495647 -2.487147457203059, 0.4341204441673183 -2.4620193825305217 C0.5766288372196802 -2.436891307857984, 0.7190704323420518 -2.3987241974763442, 0.8550503583141642 -2.349231551964774 C0.9910302842862766 -2.2997389064532037, 1.1246802223496295 -2.2374169168223212, 1.2499999999999925 -2.165063509461101 C1.3753197776503554 -2.0927101020998804, 1.4961171729167668 -2.008126855338242, 1.6069690242163412 -1.915111107797451 C1.7178208755159157 -1.82209536025666, 1.8220953602566472 -1.7178208755159294, 1.915111107797439 -1.6069690242163557 C2.0081268553382308 -1.496117172916782, 2.09271010209987 -1.3753197776503712, 2.1650635094610915 -1.2500000000000089 C2.237416916822313 -1.1246802223496466, 2.299738906453196 -0.9910302842862939, 2.3492315519647673 -0.855050358314182 C2.3987241974763385 -0.71907043234207, 2.4368913078579792 -0.5766288372196986, 2.462019382530518 -0.4341204441673369 C2.487147457203057 -0.29161205111497523, 2.4936698970884197 -0.07235340736123454, 2.5 -1.1714553645825241e-14 C2.5063301029115803 0.07235340736121111, 2.50633010291158 -0.07235340736122292, 2.5 0"/><path style="" fill="none" stroke-width="2" stroke="#9370DB" d="M2.5 0 C2.5 0.14470681472244193, 2.487147457203058 0.29161205111496386, 2.46201938253052 0.4341204441673258 C2.436891307857982 0.5766288372196877, 2.3987241974763416 0.7190704323420595, 2.3492315519647713 0.8550503583141718 C2.299738906453201 0.991030284286284, 2.2374169168223177 1.124680222349637, 2.165063509461097 1.2499999999999998 C2.092710102099876 1.3753197776503625, 2.0081268553382365 1.496117172916774, 1.915111107797445 1.6069690242163481 C1.8220953602566536 1.7178208755159223, 1.7178208755159226 1.8220953602566536, 1.6069690242163484 1.915111107797445 C1.4961171729167742 2.0081268553382365, 1.375319777650363 2.0927101020998755, 1.2500000000000002 2.1650635094610964 C1.1246802223496375 2.2374169168223172, 0.9910302842862845 2.2997389064532, 0.8550503583141721 2.349231551964771 C0.7190704323420597 2.3987241974763416, 0.576628837219688 2.436891307857982, 0.43412044416732604 2.46201938253052 C0.291612051114964 2.487147457203058, 0.14470681472244212 2.5, 1.5308084989341916e-16 2.5 C-0.1447068147224418 2.5, -0.2916120511149638 2.487147457203058, -0.43412044416732576 2.46201938253052 C-0.5766288372196877 2.436891307857982, -0.7190704323420595 2.3987241974763416, -0.8550503583141718 2.3492315519647713 C-0.991030284286284 2.299738906453201, -1.124680222349637 2.2374169168223177, -1.2499999999999996 2.165063509461097 C-1.375319777650362 2.092710102099876, -1.4961171729167733 2.008126855338237, -1.6069690242163475 1.9151111077974459 C-1.7178208755159217 1.8220953602566548, -1.822095360256653 1.7178208755159234, -1.9151111077974443 1.6069690242163495 C-2.0081268553382357 1.4961171729167755, -2.0927101020998746 1.3753197776503645, -2.1650635094610955 1.250000000000002 C-2.2374169168223164 1.1246802223496395, -2.2997389064531992 0.9910302842862865, -2.34923155196477 0.8550503583141743 C-2.3987241974763407 0.7190704323420621, -2.436891307857981 0.5766288372196907, -2.4620193825305194 0.434120444167329 C-2.487147457203058 0.29161205111496724, -2.5 0.14470681472244545, -2.5 3.636830773662308e-15 C-2.5 -0.14470681472243818, -2.4871474572030587 -0.2916120511149599, -2.4620193825305208 -0.4341204441673218 C-2.436891307857983 -0.5766288372196837, -2.398724197476343 -0.7190704323420553, -2.3492315519647726 -0.8550503583141675 C-2.2997389064532023 -0.9910302842862798, -2.23741691682232 -1.1246802223496328, -2.165063509461099 -1.2499999999999956 C-2.092710102099878 -1.3753197776503583, -2.00812685533824 -1.4961171729167695, -1.9151111077974488 -1.606969024216344 C-1.8220953602566576 -1.7178208755159183, -1.7178208755159263 -1.82209536025665, -1.6069690242163523 -1.9151111077974416 C-1.4961171729167784 -2.0081268553382334, -1.3753197776503672 -2.0927101020998724, -1.2500000000000047 -2.1650635094610937 C-1.1246802223496422 -2.237416916822315, -0.9910302842862897 -2.299738906453198, -0.8550503583141776 -2.3492315519647686 C-0.7190704323420656 -2.3987241974763394, -0.5766288372196942 -2.4368913078579806, -0.43412044416733236 -2.462019382530519 C-0.29161205111497057 -2.4871474572030574, -0.1447068147224489 -2.4999999999999996, -7.120580697431198e-15 -2.5 C0.14470681472243463 -2.5000000000000004, 0.29161205111495647 -2.487147457203059, 0.4341204441673183 -2.4620193825305217 C0.5766288372196802 -2.436891307857984, 0.7190704323420518 -2.3987241974763442, 0.8550503583141642 -2.349231551964774 C0.9910302842862766 -2.2997389064532037, 1.1246802223496295 -2.2374169168223212, 1.2499999999999925 -2.165063509461101 C1.3753197776503554 -2.0927101020998804, 1.4961171729167668 -2.008126855338242, 1.6069690242163412 -1.915111107797451 C1.7178208755159157 -1.82209536025666, 1.8220953602566472 -1.7178208755159294, 1.915111107797439 -1.6069690242163557 C2.0081268553382308 -1.496117172916782, 2.09271010209987 -1.3753197776503712, 2.1650635094610915 -1.2500000000000089 C2.237416916822313 -1.1246802223496466, 2.299738906453196 -0.9910302842862939, 2.3492315519647673 -0.855050358314182 C2.3987241974763385 -0.71907043234207, 2.4368913078579792 -0.5766288372196986, 2.462019382530518 -0.4341204441673369 C2.487147457203057 -0.29161205111497523, 2.4936698970884197 -0.07235340736123454, 2.5 -1.1714553645825241e-14 C2.5063301029115803 0.07235340736121111, 2.50633010291158 -0.07235340736122292, 2.5 0"/></g></g></g><g transform="translate(358.390625, 55.05000000074506)" id="s_start---s_start---1" class="label edgeLabel"><rect height="0.1" width="0.1"/><g transform="translate(0, 0)" style="" class="label"><rect/><foreignObject height="0" width="0"><div style="display: table-cell; white-space: nowrap; line-height: 1.5; max-width: 10px; text-align: center;" xmlns="http://www.w3.org/1999/xhtml"><span class="nodeLabel"></span></div></foreignObject></g></g><g transform="translate(678.421875, 57.625000001862645)" id="s_start---s_start---2" class="label edgeLabel"><rect height="0.1" width="0.1"/><g transform="translate(0, 0)" style="" class="label"><rect/><foreignObject height="0" width="0"><div style="display: table-cell; white-space: nowrap; line-height: 1.5; max-width: 10px; text-align: center;" xmlns="http://www.w3.org/1999/xhtml"><span class="nodeLabel"></span></div></foreignObject></g></g><g transform="translate(2539.90625, 1454.1250000093132)" id="s_comment---s_comment---1" class="label edgeLabel"><rect height="0.1" width="0.1"/><g transform="translate(0, 0)" style="" class="label"><rect/><foreignObject height="0" width="0"><div style="display: table-cell; white-space: nowrap; line-height: 1.5; max-width: 10px; text-align: center;" xmlns="http://www.w3.org/1999/xhtml"><span class="nodeLabel"></span></div></foreignObject></g></g><g transform="translate(2681.600396633148, 1544.7000000104308)" id="s_comment---s_comment---2" class="label edgeLabel"><rect height="0.1" width="0.1"/><g transform="translate(0, 0)" style="" class="label"><rect/><foreignObject height="0" width="0"><div style="display: table-cell; white-space: nowrap; line-height: 1.5; max-width: 10px; text-align: center;" xmlns="http://www.w3.org/1999/xhtml"><span class="nodeLabel"></span></div></foreignObject></g></g><g transform="translate(1652.1875, 202.77500000409782)" id="s_section_name---s_section_name---1" class="label edgeLabel"><rect height="0.1" width="0.1"/><g transform="translate(0, 0)" style="" class="label"><rect/><foreignObject height="0" width="0"><div style="display: table-cell; white-space: nowrap; line-height: 1.5; max-width: 10px; text-align: center;" xmlns="http://www.w3.org/1999/xhtml"><span class="nodeLabel"></span></div></foreignObject></g></g><g transform="translate(2015.6015625, 260.8250000048429)" id="s_section_name---s_section_name---2" class="label edgeLabel"><rect height="0.1" width="0.1"/><g transform="translate(0, 0)" style="" class="label"><rect/><foreignObject height="0" width="0"><div style="display: table-cell; white-space: nowrap; line-height: 1.5; max-width: 10px; text-align: center;" xmlns="http://www.w3.org/1999/xhtml"><span class="nodeLabel"></span></div></foreignObject></g></g><g transform="translate(2356.34375, 1493.6500000096858)" id="s_after_section_name_space---s_after_section_name_space---1" class="label edgeLabel"><rect height="0.1" width="0.1"/><g transform="translate(0, 0)" style="" class="label"><rect/><foreignObject height="0" width="0"><div style="display: table-cell; white-space: nowrap; line-height: 1.5; max-width: 10px; text-align: center;" xmlns="http://www.w3.org/1999/xhtml"><span class="nodeLabel"></span></div></foreignObject></g></g><g transform="translate(2539.90625, 1517.1750000100583)" id="s_after_section_name_space---s_after_section_name_space---2" class="label edgeLabel"><rect height="0.1" width="0.1"/><g transform="translate(0, 0)" style="" class="label"><rect/><foreignObject height="0" width="0"><div style="display: table-cell; white-space: nowrap; line-height: 1.5; max-width: 10px; text-align: center;" xmlns="http://www.w3.org/1999/xhtml"><span class="nodeLabel"></span></div></foreignObject></g></g><g transform="translate(678.421875, 112.6750000026077)" id="s_before_key_space---s_before_key_space---1" class="label edgeLabel"><rect height="0.1" width="0.1"/><g transform="translate(0, 0)" style="" class="label"><rect/><foreignObject height="0" width="0"><div style="display: table-cell; white-space: nowrap; line-height: 1.5; max-width: 10px; text-align: center;" xmlns="http://www.w3.org/1999/xhtml"><span class="nodeLabel"></span></div></foreignObject></g></g><g transform="translate(958.4921875, 112.6750000026077)" id="s_before_key_space---s_before_key_space---2" class="label edgeLabel"><rect height="0.1" width="0.1"/><g transform="translate(0, 0)" style="" class="label"><rect/><foreignObject height="0" width="0"><div style="display: table-cell; white-space: nowrap; line-height: 1.5; max-width: 10px; text-align: center;" xmlns="http://www.w3.org/1999/xhtml"><span class="nodeLabel"></span></div></foreignObject></g></g><g transform="translate(1325.7265625, 252.87500000558794)" id="s_after_key_space---s_after_key_space---1" class="label edgeLabel"><rect height="0.1" width="0.1"/><g transform="translate(0, 0)" style="" class="label"><rect/><foreignObject height="0" width="0"><div style="display: table-cell; white-space: nowrap; line-height: 1.5; max-width: 10px; text-align: center;" xmlns="http://www.w3.org/1999/xhtml"><span class="nodeLabel"></span></div></foreignObject></g></g><g transform="translate(1652.1875, 268.3500000052154)" id="s_after_key_space---s_after_key_space---2" class="label edgeLabel"><rect height="0.1" width="0.1"/><g transform="translate(0, 0)" style="" class="label"><rect/><foreignObject height="0" width="0"><div style="display: table-cell; white-space: nowrap; line-height: 1.5; max-width: 10px; text-align: center;" xmlns="http://www.w3.org/1999/xhtml"><span class="nodeLabel"></span></div></foreignObject></g></g><g transform="translate(2015.6015625, 415.5250000078231)" id="s_before_value_space---s_before_value_space---1" class="label edgeLabel"><rect height="0.1" width="0.1"/><g transform="translate(0, 0)" style="" class="label"><rect/><foreignObject height="0" width="0"><div style="display: table-cell; white-space: nowrap; line-height: 1.5; max-width: 10px; text-align: center;" xmlns="http://www.w3.org/1999/xhtml"><span class="nodeLabel"></span></div></foreignObject></g></g><g transform="translate(2356.34375, 418.5250000078231)" id="s_before_value_space---s_before_value_space---2" class="label edgeLabel"><rect height="0.1" width="0.1"/><g transform="translate(0, 0)" style="" class="label"><rect/><foreignObject height="0" width="0"><div style="display: table-cell; white-space: nowrap; line-height: 1.5; max-width: 10px; text-align: center;" xmlns="http://www.w3.org/1999/xhtml"><span class="nodeLabel"></span></div></foreignObject></g></g><g transform="translate(958.4921875, 302.97500000707805)" id="s_key---s_key---1" class="label edgeLabel"><rect height="0.1" width="0.1"/><g transform="translate(0, 0)" style="" class="label"><rect/><foreignObject height="0" width="0"><div style="display: table-cell; white-space: nowrap; line-height: 1.5; max-width: 10px; text-align: center;" xmlns="http://www.w3.org/1999/xhtml"><span class="nodeLabel"></span></div></foreignObject></g></g><g transform="translate(1325.7265625, 302.97500000707805)" id="s_key---s_key---2" class="label edgeLabel"><rect height="0.1" width="0.1"/><g transform="translate(0, 0)" style="" class="label"><rect/><foreignObject height="0" width="0"><div style="display: table-cell; white-space: nowrap; line-height: 1.5; max-width: 10px; text-align: center;" xmlns="http://www.w3.org/1999/xhtml"><span class="nodeLabel"></span></div></foreignObject></g></g><g transform="translate(2356.34375, 1563.7500000111759)" id="s_value---s_value---1" class="label edgeLabel"><rect height="0.1" width="0.1"/><g transform="translate(0, 0)" style="" class="label"><rect/><foreignObject height="0" width="0"><div style="display: table-cell; white-space: nowrap; line-height: 1.5; max-width: 10px; text-align: center;" xmlns="http://www.w3.org/1999/xhtml"><span class="nodeLabel"></span></div></foreignObject></g></g><g transform="translate(2539.90625, 1587.2750000115484)" id="s_value---s_value---2" class="label edgeLabel"><rect height="0.1" width="0.1"/><g transform="translate(0, 0)" style="" class="label"><rect/><foreignObject height="0" width="0"><div style="display: table-cell; white-space: nowrap; line-height: 1.5; max-width: 10px; text-align: center;" xmlns="http://www.w3.org/1999/xhtml"><span class="nodeLabel"></span></div></foreignObject></g></g></g></g></g></svg>