<svg aria-roledescription="er" role="graphics-document document" viewBox="0 0 434.859375 554.734375" style="max-width: 434.859px; background-color: white;" xmlns:xlink="http://www.w3.org/1999/xlink" xmlns="http://www.w3.org/2000/svg" width="100%" id="my-svg"><style>#my-svg{font-family:"trebuchet ms",verdana,arial,sans-serif;font-size:16px;fill:#333;}#my-svg .error-icon{fill:#552222;}#my-svg .error-text{fill:#552222;stroke:#552222;}#my-svg .edge-thickness-normal{stroke-width:1px;}#my-svg .edge-thickness-thick{stroke-width:3.5px;}#my-svg .edge-pattern-solid{stroke-dasharray:0;}#my-svg .edge-thickness-invisible{stroke-width:0;fill:none;}#my-svg .edge-pattern-dashed{stroke-dasharray:3;}#my-svg .edge-pattern-dotted{stroke-dasharray:2;}#my-svg .marker{fill:#333333;stroke:#333333;}#my-svg .marker.cross{stroke:#333333;}#my-svg svg{font-family:"trebuchet ms",verdana,arial,sans-serif;font-size:16px;}#my-svg p{margin:0;}#my-svg .entityBox{fill:#ECECFF;stroke:#9370DB;}#my-svg .attributeBoxOdd{fill:#ffffff;stroke:#9370DB;}#my-svg .attributeBoxEven{fill:#f2f2f2;stroke:#9370DB;}#my-svg .relationshipLabelBox{fill:hsl(80, 100%, 96.2745098039%);opacity:0.7;background-color:hsl(80, 100%, 96.2745098039%);}#my-svg .relationshipLabelBox rect{opacity:0.5;}#my-svg .relationshipLine{stroke:#333333;}#my-svg .entityTitleText{text-anchor:middle;font-size:18px;fill:#333;}#my-svg #MD_PARENT_START{fill:#f5f5f5!important;stroke:#333333!important;stroke-width:1;}#my-svg #MD_PARENT_END{fill:#f5f5f5!important;stroke:#333333!important;stroke-width:1;}#my-svg :root{--mermaid-font-family:"trebuchet ms",verdana,arial,sans-serif;}</style><g/><defs><marker orient="auto" markerHeight="240" markerWidth="190" refY="7" refX="0" id="MD_PARENT_START"><path d="M 18,7 L9,13 L1,7 L9,1 Z"/></marker></defs><defs><marker orient="auto" markerHeight="28" markerWidth="20" refY="7" refX="19" id="MD_PARENT_END"><path d="M 18,7 L9,13 L1,7 L9,1 Z"/></marker></defs><defs><marker orient="auto" markerHeight="18" markerWidth="18" refY="9" refX="0" id="ONLY_ONE_START"><path d="M9,0 L9,18 M15,0 L15,18" fill="none" stroke="gray"/></marker></defs><defs><marker orient="auto" markerHeight="18" markerWidth="18" refY="9" refX="18" id="ONLY_ONE_END"><path d="M3,0 L3,18 M9,0 L9,18" fill="none" stroke="gray"/></marker></defs><defs><marker orient="auto" markerHeight="18" markerWidth="30" refY="9" refX="0" id="ZERO_OR_ONE_START"><circle r="6" cy="9" cx="21" fill="white" stroke="gray"/><path d="M9,0 L9,18" fill="none" stroke="gray"/></marker></defs><defs><marker orient="auto" markerHeight="18" markerWidth="30" refY="9" refX="30" id="ZERO_OR_ONE_END"><circle r="6" cy="9" cx="9" fill="white" stroke="gray"/><path d="M21,0 L21,18" fill="none" stroke="gray"/></marker></defs><defs><marker orient="auto" markerHeight="36" markerWidth="45" refY="18" refX="18" id="ONE_OR_MORE_START"><path d="M0,18 Q 18,0 36,18 Q 18,36 0,18 M42,9 L42,27" fill="none" stroke="gray"/></marker></defs><defs><marker orient="auto" markerHeight="36" markerWidth="45" refY="18" refX="27" id="ONE_OR_MORE_END"><path d="M3,9 L3,27 M9,18 Q27,0 45,18 Q27,36 9,18" fill="none" stroke="gray"/></marker></defs><defs><marker orient="auto" markerHeight="36" markerWidth="57" refY="18" refX="18" id="ZERO_OR_MORE_START"><circle r="6" cy="18" cx="48" fill="white" stroke="gray"/><path d="M0,18 Q18,0 36,18 Q18,36 0,18" fill="none" stroke="gray"/></marker></defs><defs><marker orient="auto" markerHeight="36" markerWidth="57" refY="18" refX="39" id="ZERO_OR_MORE_END"><circle r="6" cy="18" cx="9" fill="white" stroke="gray"/><path d="M21,18 Q39,0 57,18 Q39,36 21,18" fill="none" stroke="gray"/></marker></defs><path style="stroke: gray; fill: none;" marker-start="url(#ONLY_ONE_START)" marker-end="url(#ONLY_ONE_END)" d="M224.777,88.184L224.777,96.517C224.777,104.85,224.777,121.517,224.777,138.184C224.777,154.85,224.777,171.517,224.777,179.85L224.777,188.184" class="er relationshipLine"/><path style="stroke: gray; fill: none;" marker-start="url(#ONLY_ONE_START)" marker-end="url(#ONLY_ONE_END)" d="M159.934,299.882L150.122,308.296C140.31,316.711,120.686,333.539,110.874,350.286C101.063,367.034,101.063,383.701,101.063,392.034L101.063,400.367" class="er relationshipLine"/><path style="stroke: gray; fill: none;" marker-start="url(#ONLY_ONE_START)" marker-end="url(#ONLY_ONE_END)" d="M289.621,299.882L299.433,308.296C309.245,316.711,328.868,333.539,338.68,353.976C348.492,374.413,348.492,398.459,348.492,410.482L348.492,422.505" class="er relationshipLine"/><g transform="translate(163.70703125,20 )" id="entity-GAME-ffe717d5-9fe2-58b5-a684-f2592fc078b6"><rect height="68.18359565734863" width="122.140625" y="0" x="0" class="er entityBox"/><text style="dominant-baseline: middle; text-anchor: middle; font-size: 12px;" transform="translate(61.0703125,12)" y="0" x="0" id="text-entity-GAME-ffe717d5-9fe2-58b5-a684-f2592fc078b6" class="er entityLabel">GAME</text><rect height="22.091797828674316" width="35.75" y="24" x="0" class="er attributeBoxOdd"/><text style="dominant-baseline: middle; font-size: 10.2px;" transform="translate(5,35.04589891433716)" y="0" x="0" id="text-entity-GAME-ffe717d5-9fe2-58b5-a684-f2592fc078b6-attr-1-type" class="er entityLabel">string</text><rect height="22.091797828674316" width="64.828125" y="24" x="35.75" class="er attributeBoxOdd"/><text style="dominant-baseline: middle; font-size: 10.2px;" transform="translate(40.75,35.04589891433716)" y="0" x="0" id="text-entity-GAME-ffe717d5-9fe2-58b5-a684-f2592fc078b6-attr-1-name" class="er entityLabel">game_id</text><rect height="22.091797828674316" width="21.5625" y="24" x="100.578125" class="er attributeBoxOdd"/><text style="dominant-baseline: middle; font-size: 10.2px;" transform="translate(105.578125,35.04589891433716)" y="0" x="0" id="text-entity-GAME-ffe717d5-9fe2-58b5-a684-f2592fc078b6-attr-1-key" class="er entityLabel">PK</text><rect height="22.091797828674316" width="35.75" y="46.091797828674316" x="0" class="er attributeBoxEven"/><text style="dominant-baseline: middle; font-size: 10.2px;" transform="translate(5,57.137696743011475)" y="0" x="0" id="text-entity-GAME-ffe717d5-9fe2-58b5-a684-f2592fc078b6-attr-2-type" class="er entityLabel">string</text><rect height="22.091797828674316" width="64.828125" y="46.091797828674316" x="35.75" class="er attributeBoxEven"/><text style="dominant-baseline: middle; font-size: 10.2px;" transform="translate(40.75,57.137696743011475)" y="0" x="0" id="text-entity-GAME-ffe717d5-9fe2-58b5-a684-f2592fc078b6-attr-2-name" class="er entityLabel">game_name</text><rect height="22.091797828674316" width="21.5625" y="46.091797828674316" x="100.578125" class="er attributeBoxEven"/><text style="dominant-baseline: middle; font-size: 10.2px;" transform="translate(105.578125,57.137696743011475)" y="0" x="0" id="text-entity-GAME-ffe717d5-9fe2-58b5-a684-f2592fc078b6-attr-2-key" class="er entityLabel"/></g><g transform="translate(159.93359375,188.18359375 )" id="entity-HANDSUMMARY-e5dcffc3-87b2-5788-967d-fb6b6f4b8f51"><rect height="112.18359565734863" width="129.6875" y="0" x="0" class="er entityBox"/><text style="dominant-baseline: middle; text-anchor: middle; font-size: 12px;" transform="translate(64.84375,12)" y="0" x="0" id="text-entity-HANDSUMMARY-e5dcffc3-87b2-5788-967d-fb6b6f4b8f51" class="er entityLabel">HAND_SUMMARY</text><rect height="22" width="35.75" y="24" x="0" class="er attributeBoxOdd"/><text style="dominant-baseline: middle; font-size: 10.2px;" transform="translate(5,35)" y="0" x="0" id="text-entity-HANDSUMMARY-e5dcffc3-87b2-5788-967d-fb6b6f4b8f51-attr-1-type" class="er entityLabel">int</text><rect height="22" width="72.375" y="24" x="35.75" class="er attributeBoxOdd"/><text style="dominant-baseline: middle; font-size: 10.2px;" transform="translate(40.75,35)" y="0" x="0" id="text-entity-HANDSUMMARY-e5dcffc3-87b2-5788-967d-fb6b6f4b8f51-attr-1-name" class="er entityLabel">hand_number</text><rect height="22" width="21.5625" y="24" x="108.125" class="er attributeBoxOdd"/><text style="dominant-baseline: middle; font-size: 10.2px;" transform="translate(113.125,35)" y="0" x="0" id="text-entity-HANDSUMMARY-e5dcffc3-87b2-5788-967d-fb6b6f4b8f51-attr-1-key" class="er entityLabel">PK</text><rect height="22.091797828674316" width="35.75" y="46" x="0" class="er attributeBoxEven"/><text style="dominant-baseline: middle; font-size: 10.2px;" transform="translate(5,57.04589891433716)" y="0" x="0" id="text-entity-HANDSUMMARY-e5dcffc3-87b2-5788-967d-fb6b6f4b8f51-attr-2-type" class="er entityLabel">string</text><rect height="22.091797828674316" width="72.375" y="46" x="35.75" class="er attributeBoxEven"/><text style="dominant-baseline: middle; font-size: 10.2px;" transform="translate(40.75,57.04589891433716)" y="0" x="0" id="text-entity-HANDSUMMARY-e5dcffc3-87b2-5788-967d-fb6b6f4b8f51-attr-2-name" class="er entityLabel">game_id</text><rect height="22.091797828674316" width="21.5625" y="46" x="108.125" class="er attributeBoxEven"/><text style="dominant-baseline: middle; font-size: 10.2px;" transform="translate(113.125,57.04589891433716)" y="0" x="0" id="text-entity-HANDSUMMARY-e5dcffc3-87b2-5788-967d-fb6b6f4b8f51-attr-2-key" class="er entityLabel">FK</text><rect height="22.091797828674316" width="35.75" y="68.09179782867432" x="0" class="er attributeBoxOdd"/><text style="dominant-baseline: middle; font-size: 10.2px;" transform="translate(5,79.13769674301147)" y="0" x="0" id="text-entity-HANDSUMMARY-e5dcffc3-87b2-5788-967d-fb6b6f4b8f51-attr-3-type" class="er entityLabel">string</text><rect height="22.091797828674316" width="72.375" y="68.09179782867432" x="35.75" class="er attributeBoxOdd"/><text style="dominant-baseline: middle; font-size: 10.2px;" transform="translate(40.75,79.13769674301147)" y="0" x="0" id="text-entity-HANDSUMMARY-e5dcffc3-87b2-5788-967d-fb6b6f4b8f51-attr-3-name" class="er entityLabel">result</text><rect height="22.091797828674316" width="21.5625" y="68.09179782867432" x="108.125" class="er attributeBoxOdd"/><text style="dominant-baseline: middle; font-size: 10.2px;" transform="translate(113.125,79.13769674301147)" y="0" x="0" id="text-entity-HANDSUMMARY-e5dcffc3-87b2-5788-967d-fb6b6f4b8f51-attr-3-key" class="er entityLabel"/><rect height="22" width="35.75" y="90.18359565734863" x="0" class="er attributeBoxEven"/><text style="dominant-baseline: middle; font-size: 10.2px;" transform="translate(5,101.18359565734863)" y="0" x="0" id="text-entity-HANDSUMMARY-e5dcffc3-87b2-5788-967d-fb6b6f4b8f51-attr-4-type" class="er entityLabel">float</text><rect height="22" width="72.375" y="90.18359565734863" x="35.75" class="er attributeBoxEven"/><text style="dominant-baseline: middle; font-size: 10.2px;" transform="translate(40.75,101.18359565734863)" y="0" x="0" id="text-entity-HANDSUMMARY-e5dcffc3-87b2-5788-967d-fb6b6f4b8f51-attr-4-name" class="er entityLabel">amount_won</text><rect height="22" width="21.5625" y="90.18359565734863" x="108.125" class="er attributeBoxEven"/><text style="dominant-baseline: middle; font-size: 10.2px;" transform="translate(113.125,101.18359565734863)" y="0" x="0" id="text-entity-HANDSUMMARY-e5dcffc3-87b2-5788-967d-fb6b6f4b8f51-attr-4-key" class="er entityLabel"/></g><g transform="translate(20,400.3671875 )" id="entity-HANDDETAIL-631d2ef6-db18-597b-a4f4-9d768e813122"><rect height="134.36718940734863" width="162.125" y="0" x="0" class="er entityBox"/><text style="dominant-baseline: middle; text-anchor: middle; font-size: 12px;" transform="translate(81.0625,12)" y="0" x="0" id="text-entity-HANDDETAIL-631d2ef6-db18-597b-a4f4-9d768e813122" class="er entityLabel">HAND_DETAIL</text><rect height="22" width="35.75" y="24" x="0" class="er attributeBoxOdd"/><text style="dominant-baseline: middle; font-size: 10.2px;" transform="translate(5,35)" y="0" x="0" id="text-entity-HANDDETAIL-631d2ef6-db18-597b-a4f4-9d768e813122-attr-1-type" class="er entityLabel">int</text><rect height="22" width="104.8125" y="24" x="35.75" class="er attributeBoxOdd"/><text style="dominant-baseline: middle; font-size: 10.2px;" transform="translate(40.75,35)" y="0" x="0" id="text-entity-HANDDETAIL-631d2ef6-db18-597b-a4f4-9d768e813122-attr-1-name" class="er entityLabel">hand_number</text><rect height="22" width="21.5625" y="24" x="140.5625" class="er attributeBoxOdd"/><text style="dominant-baseline: middle; font-size: 10.2px;" transform="translate(145.5625,35)" y="0" x="0" id="text-entity-HANDDETAIL-631d2ef6-db18-597b-a4f4-9d768e813122-attr-1-key" class="er entityLabel">PK</text><rect height="22.091796875" width="35.75" y="46" x="0" class="er attributeBoxEven"/><text style="dominant-baseline: middle; font-size: 10.2px;" transform="translate(5,57.0458984375)" y="0" x="0" id="text-entity-HANDDETAIL-631d2ef6-db18-597b-a4f4-9d768e813122-attr-2-type" class="er entityLabel">int</text><rect height="22.091796875" width="104.8125" y="46" x="35.75" class="er attributeBoxEven"/><text style="dominant-baseline: middle; font-size: 10.2px;" transform="translate(40.75,57.0458984375)" y="0" x="0" id="text-entity-HANDDETAIL-631d2ef6-db18-597b-a4f4-9d768e813122-attr-2-name" class="er entityLabel">final_wheel_position</text><rect height="22.091796875" width="21.5625" y="46" x="140.5625" class="er attributeBoxEven"/><text style="dominant-baseline: middle; font-size: 10.2px;" transform="translate(145.5625,57.0458984375)" y="0" x="0" id="text-entity-HANDDETAIL-631d2ef6-db18-597b-a4f4-9d768e813122-attr-2-key" class="er entityLabel"/><rect height="22.091797828674316" width="35.75" y="68.091796875" x="0" class="er attributeBoxOdd"/><text style="dominant-baseline: middle; font-size: 10.2px;" transform="translate(5,79.13769578933716)" y="0" x="0" id="text-entity-HANDDETAIL-631d2ef6-db18-597b-a4f4-9d768e813122-attr-3-type" class="er entityLabel">string</text><rect height="22.091797828674316" width="104.8125" y="68.091796875" x="35.75" class="er attributeBoxOdd"/><text style="dominant-baseline: middle; font-size: 10.2px;" transform="translate(40.75,79.13769578933716)" y="0" x="0" id="text-entity-HANDDETAIL-631d2ef6-db18-597b-a4f4-9d768e813122-attr-3-name" class="er entityLabel">selected_bet</text><rect height="22.091797828674316" width="21.5625" y="68.091796875" x="140.5625" class="er attributeBoxOdd"/><text style="dominant-baseline: middle; font-size: 10.2px;" transform="translate(145.5625,79.13769578933716)" y="0" x="0" id="text-entity-HANDDETAIL-631d2ef6-db18-597b-a4f4-9d768e813122-attr-3-key" class="er entityLabel"/><rect height="22.091797828674316" width="35.75" y="90.18359470367432" x="0" class="er attributeBoxEven"/><text style="dominant-baseline: middle; font-size: 10.2px;" transform="translate(5,101.22949361801147)" y="0" x="0" id="text-entity-HANDDETAIL-631d2ef6-db18-597b-a4f4-9d768e813122-attr-4-type" class="er entityLabel">string</text><rect height="22.091797828674316" width="104.8125" y="90.18359470367432" x="35.75" class="er attributeBoxEven"/><text style="dominant-baseline: middle; font-size: 10.2px;" transform="translate(40.75,101.22949361801147)" y="0" x="0" id="text-entity-HANDDETAIL-631d2ef6-db18-597b-a4f4-9d768e813122-attr-4-name" class="er entityLabel">winning_option</text><rect height="22.091797828674316" width="21.5625" y="90.18359470367432" x="140.5625" class="er attributeBoxEven"/><text style="dominant-baseline: middle; font-size: 10.2px;" transform="translate(145.5625,101.22949361801147)" y="0" x="0" id="text-entity-HANDDETAIL-631d2ef6-db18-597b-a4f4-9d768e813122-attr-4-key" class="er entityLabel"/><rect height="22.091796875" width="35.75" y="112.27539253234863" x="0" class="er attributeBoxOdd"/><text style="dominant-baseline: middle; font-size: 10.2px;" transform="translate(5,123.32129096984863)" y="0" x="0" id="text-entity-HANDDETAIL-631d2ef6-db18-597b-a4f4-9d768e813122-attr-5-type" class="er entityLabel">float</text><rect height="22.091796875" width="104.8125" y="112.27539253234863" x="35.75" class="er attributeBoxOdd"/><text style="dominant-baseline: middle; font-size: 10.2px;" transform="translate(40.75,123.32129096984863)" y="0" x="0" id="text-entity-HANDDETAIL-631d2ef6-db18-597b-a4f4-9d768e813122-attr-5-name" class="er entityLabel">multiplier</text><rect height="22.091796875" width="21.5625" y="112.27539253234863" x="140.5625" class="er attributeBoxOdd"/><text style="dominant-baseline: middle; font-size: 10.2px;" transform="translate(145.5625,123.32129096984863)" y="0" x="0" id="text-entity-HANDDETAIL-631d2ef6-db18-597b-a4f4-9d768e813122-attr-5-key" class="er entityLabel"/></g><g transform="translate(282.125,422.5048828125 )" id="entity-TRANSACTION-33a4f79e-93d2-5b31-be7e-7dfe596c998b"><rect height="90.09179782867432" width="132.734375" y="0" x="0" class="er entityBox"/><text style="dominant-baseline: middle; text-anchor: middle; font-size: 12px;" transform="translate(66.3671875,12)" y="0" x="0" id="text-entity-TRANSACTION-33a4f79e-93d2-5b31-be7e-7dfe596c998b" class="er entityLabel">TRANSACTION</text><rect height="22.091797828674316" width="35.75" y="24" x="0" class="er attributeBoxOdd"/><text style="dominant-baseline: middle; font-size: 10.2px;" transform="translate(5,35.04589891433716)" y="0" x="0" id="text-entity-TRANSACTION-33a4f79e-93d2-5b31-be7e-7dfe596c998b-attr-1-type" class="er entityLabel">string</text><rect height="22.091797828674316" width="75.421875" y="24" x="35.75" class="er attributeBoxOdd"/><text style="dominant-baseline: middle; font-size: 10.2px;" transform="translate(40.75,35.04589891433716)" y="0" x="0" id="text-entity-TRANSACTION-33a4f79e-93d2-5b31-be7e-7dfe596c998b-attr-1-name" class="er entityLabel">transaction_id</text><rect height="22.091797828674316" width="21.5625" y="24" x="111.171875" class="er attributeBoxOdd"/><text style="dominant-baseline: middle; font-size: 10.2px;" transform="translate(116.171875,35.04589891433716)" y="0" x="0" id="text-entity-TRANSACTION-33a4f79e-93d2-5b31-be7e-7dfe596c998b-attr-1-key" class="er entityLabel">PK</text><rect height="22" width="35.75" y="46.091797828674316" x="0" class="er attributeBoxEven"/><text style="dominant-baseline: middle; font-size: 10.2px;" transform="translate(5,57.091797828674316)" y="0" x="0" id="text-entity-TRANSACTION-33a4f79e-93d2-5b31-be7e-7dfe596c998b-attr-2-type" class="er entityLabel">int</text><rect height="22" width="75.421875" y="46.091797828674316" x="35.75" class="er attributeBoxEven"/><text style="dominant-baseline: middle; font-size: 10.2px;" transform="translate(40.75,57.091797828674316)" y="0" x="0" id="text-entity-TRANSACTION-33a4f79e-93d2-5b31-be7e-7dfe596c998b-attr-2-name" class="er entityLabel">hand_number</text><rect height="22" width="21.5625" y="46.091797828674316" x="111.171875" class="er attributeBoxEven"/><text style="dominant-baseline: middle; font-size: 10.2px;" transform="translate(116.171875,57.091797828674316)" y="0" x="0" id="text-entity-TRANSACTION-33a4f79e-93d2-5b31-be7e-7dfe596c998b-attr-2-key" class="er entityLabel">FK</text><rect height="22" width="35.75" y="68.09179782867432" x="0" class="er attributeBoxOdd"/><text style="dominant-baseline: middle; font-size: 10.2px;" transform="translate(5,79.09179782867432)" y="0" x="0" id="text-entity-TRANSACTION-33a4f79e-93d2-5b31-be7e-7dfe596c998b-attr-3-type" class="er entityLabel">float</text><rect height="22" width="75.421875" y="68.09179782867432" x="35.75" class="er attributeBoxOdd"/><text style="dominant-baseline: middle; font-size: 10.2px;" transform="translate(40.75,79.09179782867432)" y="0" x="0" id="text-entity-TRANSACTION-33a4f79e-93d2-5b31-be7e-7dfe596c998b-attr-3-name" class="er entityLabel">amount_won</text><rect height="22" width="21.5625" y="68.09179782867432" x="111.171875" class="er attributeBoxOdd"/><text style="dominant-baseline: middle; font-size: 10.2px;" transform="translate(116.171875,79.09179782867432)" y="0" x="0" id="text-entity-TRANSACTION-33a4f79e-93d2-5b31-be7e-7dfe596c998b-attr-3-key" class="er entityLabel"/></g><rect height="14" width="44.109375" y="131.1840057373047" x="202.72230529785156" class="er relationshipLabelBox"/><text style="text-anchor: middle; dominant-baseline: middle; font-size: 12px;" y="138.1840057373047" x="224.77699279785156" id="rel1" class="er relationshipLabel">includes</text><rect height="14" width="17.71875" y="335.45166015625" x="107.26580810546875" class="er relationshipLabelBox"/><text style="text-anchor: middle; dominant-baseline: middle; font-size: 12px;" y="342.45166015625" x="116.12518310546875" id="rel2" class="er relationshipLabel">has</text><rect height="14" width="52.0625" y="345.3129577636719" x="311.8244323730469" class="er relationshipLabelBox"/><text style="text-anchor: middle; dominant-baseline: middle; font-size: 12px;" y="352.3129577636719" x="337.8556823730469" id="rel3" class="er relationshipLabel">results_in</text></svg>