<svg aria-roledescription="er" role="graphics-document document" viewBox="0 0 658.9453125 833.28515625" style="max-width: 658.945px; background-color: white;" xmlns:xlink="http://www.w3.org/1999/xlink" xmlns="http://www.w3.org/2000/svg" width="100%" id="my-svg"><style>#my-svg{font-family:"trebuchet ms",verdana,arial,sans-serif;font-size:16px;fill:#333;}#my-svg .error-icon{fill:#552222;}#my-svg .error-text{fill:#552222;stroke:#552222;}#my-svg .edge-thickness-normal{stroke-width:1px;}#my-svg .edge-thickness-thick{stroke-width:3.5px;}#my-svg .edge-pattern-solid{stroke-dasharray:0;}#my-svg .edge-thickness-invisible{stroke-width:0;fill:none;}#my-svg .edge-pattern-dashed{stroke-dasharray:3;}#my-svg .edge-pattern-dotted{stroke-dasharray:2;}#my-svg .marker{fill:#333333;stroke:#333333;}#my-svg .marker.cross{stroke:#333333;}#my-svg svg{font-family:"trebuchet ms",verdana,arial,sans-serif;font-size:16px;}#my-svg p{margin:0;}#my-svg .entityBox{fill:#ECECFF;stroke:#9370DB;}#my-svg .attributeBoxOdd{fill:#ffffff;stroke:#9370DB;}#my-svg .attributeBoxEven{fill:#f2f2f2;stroke:#9370DB;}#my-svg .relationshipLabelBox{fill:hsl(80, 100%, 96.2745098039%);opacity:0.7;background-color:hsl(80, 100%, 96.2745098039%);}#my-svg .relationshipLabelBox rect{opacity:0.5;}#my-svg .relationshipLine{stroke:#333333;}#my-svg .entityTitleText{text-anchor:middle;font-size:18px;fill:#333;}#my-svg #MD_PARENT_START{fill:#f5f5f5!important;stroke:#333333!important;stroke-width:1;}#my-svg #MD_PARENT_END{fill:#f5f5f5!important;stroke:#333333!important;stroke-width:1;}#my-svg :root{--mermaid-font-family:"trebuchet ms",verdana,arial,sans-serif;}</style><g/><defs><marker orient="auto" markerHeight="240" markerWidth="190" refY="7" refX="0" id="MD_PARENT_START"><path d="M 18,7 L9,13 L1,7 L9,1 Z"/></marker></defs><defs><marker orient="auto" markerHeight="28" markerWidth="20" refY="7" refX="19" id="MD_PARENT_END"><path d="M 18,7 L9,13 L1,7 L9,1 Z"/></marker></defs><defs><marker orient="auto" markerHeight="18" markerWidth="18" refY="9" refX="0" id="ONLY_ONE_START"><path d="M9,0 L9,18 M15,0 L15,18" fill="none" stroke="gray"/></marker></defs><defs><marker orient="auto" markerHeight="18" markerWidth="18" refY="9" refX="18" id="ONLY_ONE_END"><path d="M3,0 L3,18 M9,0 L9,18" fill="none" stroke="gray"/></marker></defs><defs><marker orient="auto" markerHeight="18" markerWidth="30" refY="9" refX="0" id="ZERO_OR_ONE_START"><circle r="6" cy="9" cx="21" fill="white" stroke="gray"/><path d="M9,0 L9,18" fill="none" stroke="gray"/></marker></defs><defs><marker orient="auto" markerHeight="18" markerWidth="30" refY="9" refX="30" id="ZERO_OR_ONE_END"><circle r="6" cy="9" cx="9" fill="white" stroke="gray"/><path d="M21,0 L21,18" fill="none" stroke="gray"/></marker></defs><defs><marker orient="auto" markerHeight="36" markerWidth="45" refY="18" refX="18" id="ONE_OR_MORE_START"><path d="M0,18 Q 18,0 36,18 Q 18,36 0,18 M42,9 L42,27" fill="none" stroke="gray"/></marker></defs><defs><marker orient="auto" markerHeight="36" markerWidth="45" refY="18" refX="27" id="ONE_OR_MORE_END"><path d="M3,9 L3,27 M9,18 Q27,0 45,18 Q27,36 9,18" fill="none" stroke="gray"/></marker></defs><defs><marker orient="auto" markerHeight="36" markerWidth="57" refY="18" refX="18" id="ZERO_OR_MORE_START"><circle r="6" cy="18" cx="48" fill="white" stroke="gray"/><path d="M0,18 Q18,0 36,18 Q18,36 0,18" fill="none" stroke="gray"/></marker></defs><defs><marker orient="auto" markerHeight="36" markerWidth="57" refY="18" refX="39" id="ZERO_OR_MORE_END"><circle r="6" cy="18" cx="9" fill="white" stroke="gray"/><path d="M21,18 Q39,0 57,18 Q39,36 21,18" fill="none" stroke="gray"/></marker></defs><path style="stroke: gray; fill: none;" marker-start="url(#ZERO_OR_ONE_START)" marker-end="url(#ZERO_OR_MORE_END)" d="M270.305,132.275L270.305,140.609C270.305,148.942,270.305,165.609,270.305,182.275C270.305,198.942,270.305,215.609,270.305,223.942L270.305,232.275" class="er relationshipLine"/><path style="stroke: gray; fill: none;" marker-start="url(#ZERO_OR_ONE_START)" marker-end="url(#ZERO_OR_ONE_END)" d="M270.305,300.367L270.305,308.701C270.305,317.034,270.305,333.701,270.305,350.367C270.305,367.034,270.305,383.701,270.305,392.034L270.305,400.367" class="er relationshipLine"/><path style="stroke: gray; fill: none;" marker-start="url(#ZERO_OR_MORE_START)" marker-end="url(#ZERO_OR_ONE_END)" d="M320.305,727.34L331.971,722.952C343.638,718.563,366.971,709.787,381.555,705.398C396.138,701.01,401.971,701.01,407.805,708.533C413.638,716.056,419.471,731.102,419.471,746.147C419.471,761.193,413.638,776.239,407.805,783.762C401.971,791.285,396.138,791.285,381.555,786.897C366.971,782.508,343.638,773.732,331.971,769.343L320.305,764.955" class="er relationshipLine"/><path style="stroke: gray; fill: none;" marker-start="url(#ZERO_OR_ONE_START)" marker-end="url(#ZERO_OR_MORE_END)" d="M182,551.202L163.384,564.17C144.768,577.138,107.536,603.074,88.921,628.042C70.305,653.01,70.305,677.01,70.305,689.01L70.305,701.01" class="er relationshipLine"/><path style="stroke: gray; fill: none;" marker-start="url(#ZERO_OR_ONE_START)" marker-end="url(#ZERO_OR_ONE_END)" d="M270.305,579.01L270.305,587.343C270.305,595.676,270.305,612.343,270.305,632.676C270.305,653.01,270.305,677.01,270.305,689.01L270.305,701.01" class="er relationshipLine"/><path style="stroke: gray; fill: none;" marker-start="url(#ZERO_OR_MORE_START)" marker-end="url(#ZERO_OR_ONE_END)" d="M358.609,528.829L396.279,545.526C433.948,562.223,509.286,595.616,546.956,620.646C584.625,645.676,584.625,662.343,584.625,670.676L584.625,679.01" class="er relationshipLine"/><g transform="translate(182,400.3671875 )" id="entity-Books-5e2bc31f-8ec9-51cd-9d88-5a97d7861887"><rect height="178.64258003234863" width="176.609375" y="0" x="0" class="er entityBox"/><text style="dominant-baseline: middle; text-anchor: middle; font-size: 12px;" transform="translate(88.3046875,12)" y="0" x="0" id="text-entity-Books-5e2bc31f-8ec9-51cd-9d88-5a97d7861887" class="er entityLabel">Books</text><rect height="22.091796875" width="107.8125" y="24" x="0" class="er attributeBoxOdd"/><text style="dominant-baseline: middle; font-size: 10.2px;" transform="translate(5,35.0458984375)" y="0" x="0" id="text-entity-Books-5e2bc31f-8ec9-51cd-9d88-5a97d7861887-attr-1-type" class="er entityLabel">String</text><rect height="22.091796875" width="68.796875" y="24" x="107.8125" class="er attributeBoxOdd"/><text style="dominant-baseline: middle; font-size: 10.2px;" transform="translate(112.8125,35.0458984375)" y="0" x="0" id="text-entity-Books-5e2bc31f-8ec9-51cd-9d88-5a97d7861887-attr-1-name" class="er entityLabel">title</text><rect height="22.091796875" width="107.8125" y="46.091796875" x="0" class="er attributeBoxEven"/><text style="dominant-baseline: middle; font-size: 10.2px;" transform="translate(5,57.1376953125)" y="0" x="0" id="text-entity-Books-5e2bc31f-8ec9-51cd-9d88-5a97d7861887-attr-2-type" class="er entityLabel">String</text><rect height="22.091796875" width="68.796875" y="46.091796875" x="107.8125" class="er attributeBoxEven"/><text style="dominant-baseline: middle; font-size: 10.2px;" transform="translate(112.8125,57.1376953125)" y="0" x="0" id="text-entity-Books-5e2bc31f-8ec9-51cd-9d88-5a97d7861887-attr-2-name" class="er entityLabel">descr</text><rect height="22.091796875" width="107.8125" y="68.18359375" x="0" class="er attributeBoxOdd"/><text style="dominant-baseline: middle; font-size: 10.2px;" transform="translate(5,79.2294921875)" y="0" x="0" id="text-entity-Books-5e2bc31f-8ec9-51cd-9d88-5a97d7861887-attr-3-type" class="er entityLabel">Integer</text><rect height="22.091796875" width="68.796875" y="68.18359375" x="107.8125" class="er attributeBoxOdd"/><text style="dominant-baseline: middle; font-size: 10.2px;" transform="translate(112.8125,79.2294921875)" y="0" x="0" id="text-entity-Books-5e2bc31f-8ec9-51cd-9d88-5a97d7861887-attr-3-name" class="er entityLabel">stock</text><rect height="22.091797828674316" width="107.8125" y="90.275390625" x="0" class="er attributeBoxEven"/><text style="dominant-baseline: middle; font-size: 10.2px;" transform="translate(5,101.32128953933716)" y="0" x="0" id="text-entity-Books-5e2bc31f-8ec9-51cd-9d88-5a97d7861887-attr-4-type" class="er entityLabel">Decimal</text><rect height="22.091797828674316" width="68.796875" y="90.275390625" x="107.8125" class="er attributeBoxEven"/><text style="dominant-baseline: middle; font-size: 10.2px;" transform="translate(112.8125,101.32128953933716)" y="0" x="0" id="text-entity-Books-5e2bc31f-8ec9-51cd-9d88-5a97d7861887-attr-4-name" class="er entityLabel">price</text><rect height="22.091796875" width="107.8125" y="112.36718845367432" x="0" class="er attributeBoxOdd"/><text style="dominant-baseline: middle; font-size: 10.2px;" transform="translate(5,123.41308689117432)" y="0" x="0" id="text-entity-Books-5e2bc31f-8ec9-51cd-9d88-5a97d7861887-attr-5-type" class="er entityLabel">Currency</text><rect height="22.091796875" width="68.796875" y="112.36718845367432" x="107.8125" class="er attributeBoxOdd"/><text style="dominant-baseline: middle; font-size: 10.2px;" transform="translate(112.8125,123.41308689117432)" y="0" x="0" id="text-entity-Books-5e2bc31f-8ec9-51cd-9d88-5a97d7861887-attr-5-name" class="er entityLabel">currency</text><rect height="22.091797828674316" width="107.8125" y="134.45898532867432" x="0" class="er attributeBoxEven"/><text style="dominant-baseline: middle; font-size: 10.2px;" transform="translate(5,145.50488424301147)" y="0" x="0" id="text-entity-Books-5e2bc31f-8ec9-51cd-9d88-5a97d7861887-attr-6-type" class="er entityLabel">Decimal</text><rect height="22.091797828674316" width="68.796875" y="134.45898532867432" x="107.8125" class="er attributeBoxEven"/><text style="dominant-baseline: middle; font-size: 10.2px;" transform="translate(112.8125,145.50488424301147)" y="0" x="0" id="text-entity-Books-5e2bc31f-8ec9-51cd-9d88-5a97d7861887-attr-6-name" class="er entityLabel">rating</text><rect height="22.091796875" width="107.8125" y="156.55078315734863" x="0" class="er attributeBoxOdd"/><text style="dominant-baseline: middle; font-size: 10.2px;" transform="translate(5,167.59668159484863)" y="0" x="0" id="text-entity-Books-5e2bc31f-8ec9-51cd-9d88-5a97d7861887-attr-7-type" class="er entityLabel">TechnicalBooleanFlag</text><rect height="22.091796875" width="68.796875" y="156.55078315734863" x="107.8125" class="er attributeBoxOdd"/><text style="dominant-baseline: middle; font-size: 10.2px;" transform="translate(112.8125,167.59668159484863)" y="0" x="0" id="text-entity-Books-5e2bc31f-8ec9-51cd-9d88-5a97d7861887-attr-7-name" class="er entityLabel">isReviewable</text></g><g transform="translate(530.3046875,679.009765625 )" id="entity-Authors-c63c753f-966e-5a77-b031-7b4785b63957"><rect height="134.275390625" width="108.640625" y="0" x="0" class="er entityBox"/><text style="dominant-baseline: middle; text-anchor: middle; font-size: 12px;" transform="translate(54.3203125,12)" y="0" x="0" id="text-entity-Authors-c63c753f-966e-5a77-b031-7b4785b63957" class="er entityLabel">Authors</text><rect height="22.091796875" width="36.53125" y="24" x="0" class="er attributeBoxOdd"/><text style="dominant-baseline: middle; font-size: 10.2px;" transform="translate(5,35.0458984375)" y="0" x="0" id="text-entity-Authors-c63c753f-966e-5a77-b031-7b4785b63957-attr-1-type" class="er entityLabel">String</text><rect height="22.091796875" width="72.109375" y="24" x="36.53125" class="er attributeBoxOdd"/><text style="dominant-baseline: middle; font-size: 10.2px;" transform="translate(41.53125,35.0458984375)" y="0" x="0" id="text-entity-Authors-c63c753f-966e-5a77-b031-7b4785b63957-attr-1-name" class="er entityLabel">name</text><rect height="22" width="36.53125" y="46.091796875" x="0" class="er attributeBoxEven"/><text style="dominant-baseline: middle; font-size: 10.2px;" transform="translate(5,57.091796875)" y="0" x="0" id="text-entity-Authors-c63c753f-966e-5a77-b031-7b4785b63957-attr-2-type" class="er entityLabel">Date</text><rect height="22" width="72.109375" y="46.091796875" x="36.53125" class="er attributeBoxEven"/><text style="dominant-baseline: middle; font-size: 10.2px;" transform="translate(41.53125,57.091796875)" y="0" x="0" id="text-entity-Authors-c63c753f-966e-5a77-b031-7b4785b63957-attr-2-name" class="er entityLabel">dateOfBirth</text><rect height="22" width="36.53125" y="68.091796875" x="0" class="er attributeBoxOdd"/><text style="dominant-baseline: middle; font-size: 10.2px;" transform="translate(5,79.091796875)" y="0" x="0" id="text-entity-Authors-c63c753f-966e-5a77-b031-7b4785b63957-attr-3-type" class="er entityLabel">Date</text><rect height="22" width="72.109375" y="68.091796875" x="36.53125" class="er attributeBoxOdd"/><text style="dominant-baseline: middle; font-size: 10.2px;" transform="translate(41.53125,79.091796875)" y="0" x="0" id="text-entity-Authors-c63c753f-966e-5a77-b031-7b4785b63957-attr-3-name" class="er entityLabel">dateOfDeath</text><rect height="22.091796875" width="36.53125" y="90.091796875" x="0" class="er attributeBoxEven"/><text style="dominant-baseline: middle; font-size: 10.2px;" transform="translate(5,101.1376953125)" y="0" x="0" id="text-entity-Authors-c63c753f-966e-5a77-b031-7b4785b63957-attr-4-type" class="er entityLabel">String</text><rect height="22.091796875" width="72.109375" y="90.091796875" x="36.53125" class="er attributeBoxEven"/><text style="dominant-baseline: middle; font-size: 10.2px;" transform="translate(41.53125,101.1376953125)" y="0" x="0" id="text-entity-Authors-c63c753f-966e-5a77-b031-7b4785b63957-attr-4-name" class="er entityLabel">placeOfBirth</text><rect height="22.091796875" width="36.53125" y="112.18359375" x="0" class="er attributeBoxOdd"/><text style="dominant-baseline: middle; font-size: 10.2px;" transform="translate(5,123.2294921875)" y="0" x="0" id="text-entity-Authors-c63c753f-966e-5a77-b031-7b4785b63957-attr-5-type" class="er entityLabel">String</text><rect height="22.091796875" width="72.109375" y="112.18359375" x="36.53125" class="er attributeBoxOdd"/><text style="dominant-baseline: middle; font-size: 10.2px;" transform="translate(41.53125,123.2294921875)" y="0" x="0" id="text-entity-Authors-c63c753f-966e-5a77-b031-7b4785b63957-attr-5-name" class="er entityLabel">placeOfDeath</text></g><g transform="translate(220.3046875,701.009765625 )" id="entity-Genres-1ed9c5ad-e0e5-59c5-9b33-e527147f7fa5"><rect height="90.275390625" width="100" y="0" x="0" class="er entityBox"/><text style="dominant-baseline: middle; text-anchor: middle; font-size: 12px;" transform="translate(50,12)" y="0" x="0" id="text-entity-Genres-1ed9c5ad-e0e5-59c5-9b33-e527147f7fa5" class="er entityLabel">Genres</text><rect height="22.091796875" width="42.9375" y="24" x="0" class="er attributeBoxOdd"/><text style="dominant-baseline: middle; font-size: 10.2px;" transform="translate(5,35.0458984375)" y="0" x="0" id="text-entity-Genres-1ed9c5ad-e0e5-59c5-9b33-e527147f7fa5-attr-1-type" class="er entityLabel">String</text><rect height="22.091796875" width="35.234375" y="24" x="42.9375" class="er attributeBoxOdd"/><text style="dominant-baseline: middle; font-size: 10.2px;" transform="translate(47.9375,35.0458984375)" y="0" x="0" id="text-entity-Genres-1ed9c5ad-e0e5-59c5-9b33-e527147f7fa5-attr-1-name" class="er entityLabel">name</text><rect height="22.091796875" width="21.828125" y="24" x="78.171875" class="er attributeBoxOdd"/><text style="dominant-baseline: middle; font-size: 10.2px;" transform="translate(83.171875,35.0458984375)" y="0" x="0" id="text-entity-Genres-1ed9c5ad-e0e5-59c5-9b33-e527147f7fa5-attr-1-key" class="er entityLabel"/><rect height="22.091796875" width="42.9375" y="46.091796875" x="0" class="er attributeBoxEven"/><text style="dominant-baseline: middle; font-size: 10.2px;" transform="translate(5,57.1376953125)" y="0" x="0" id="text-entity-Genres-1ed9c5ad-e0e5-59c5-9b33-e527147f7fa5-attr-2-type" class="er entityLabel">String</text><rect height="22.091796875" width="35.234375" y="46.091796875" x="42.9375" class="er attributeBoxEven"/><text style="dominant-baseline: middle; font-size: 10.2px;" transform="translate(47.9375,57.1376953125)" y="0" x="0" id="text-entity-Genres-1ed9c5ad-e0e5-59c5-9b33-e527147f7fa5-attr-2-name" class="er entityLabel">descr</text><rect height="22.091796875" width="21.828125" y="46.091796875" x="78.171875" class="er attributeBoxEven"/><text style="dominant-baseline: middle; font-size: 10.2px;" transform="translate(83.171875,57.1376953125)" y="0" x="0" id="text-entity-Genres-1ed9c5ad-e0e5-59c5-9b33-e527147f7fa5-attr-2-key" class="er entityLabel"/><rect height="22.091796875" width="42.9375" y="68.18359375" x="0" class="er attributeBoxOdd"/><text style="dominant-baseline: middle; font-size: 10.2px;" transform="translate(5,79.2294921875)" y="0" x="0" id="text-entity-Genres-1ed9c5ad-e0e5-59c5-9b33-e527147f7fa5-attr-3-type" class="er entityLabel">Integer</text><rect height="22.091796875" width="35.234375" y="68.18359375" x="42.9375" class="er attributeBoxOdd"/><text style="dominant-baseline: middle; font-size: 10.2px;" transform="translate(47.9375,79.2294921875)" y="0" x="0" id="text-entity-Genres-1ed9c5ad-e0e5-59c5-9b33-e527147f7fa5-attr-3-name" class="er entityLabel">ID</text><rect height="22.091796875" width="21.828125" y="68.18359375" x="78.171875" class="er attributeBoxOdd"/><text style="dominant-baseline: middle; font-size: 10.2px;" transform="translate(83.171875,79.2294921875)" y="0" x="0" id="text-entity-Genres-1ed9c5ad-e0e5-59c5-9b33-e527147f7fa5-attr-3-key" class="er entityLabel">PK</text></g><g transform="translate(20,53.091796875 )" id="entity-Notes-3e05cef8-fe14-5cc0-9488-57ae59084fab"><rect height="46.091796875" width="100" y="0" x="0" class="er entityBox"/><text style="dominant-baseline: middle; text-anchor: middle; font-size: 12px;" transform="translate(50,12)" y="0" x="0" id="text-entity-Notes-3e05cef8-fe14-5cc0-9488-57ae59084fab" class="er entityLabel">Notes</text><rect height="22.091796875" width="52.9375" y="24" x="0" class="er attributeBoxOdd"/><text style="dominant-baseline: middle; font-size: 10.2px;" transform="translate(5,35.0458984375)" y="0" x="0" id="text-entity-Notes-3e05cef8-fe14-5cc0-9488-57ae59084fab-attr-1-type" class="er entityLabel">String</text><rect height="22.091796875" width="47.0625" y="24" x="52.9375" class="er attributeBoxOdd"/><text style="dominant-baseline: middle; font-size: 10.2px;" transform="translate(57.9375,35.0458984375)" y="0" x="0" id="text-entity-Notes-3e05cef8-fe14-5cc0-9488-57ae59084fab-attr-1-name" class="er entityLabel">note</text></g><g transform="translate(220,20 )" id="entity-Orders-a7fbdabd-c6b5-58e0-a795-7630f285f18b"><rect height="112.275390625" width="100.609375" y="0" x="0" class="er entityBox"/><text style="dominant-baseline: middle; text-anchor: middle; font-size: 12px;" transform="translate(50.3046875,12)" y="0" x="0" id="text-entity-Orders-a7fbdabd-c6b5-58e0-a795-7630f285f18b" class="er entityLabel">Orders</text><rect height="22.091796875" width="50.828125" y="24" x="0" class="er attributeBoxOdd"/><text style="dominant-baseline: middle; font-size: 10.2px;" transform="translate(5,35.0458984375)" y="0" x="0" id="text-entity-Orders-a7fbdabd-c6b5-58e0-a795-7630f285f18b-attr-1-type" class="er entityLabel">String</text><rect height="22.091796875" width="49.78125" y="24" x="50.828125" class="er attributeBoxOdd"/><text style="dominant-baseline: middle; font-size: 10.2px;" transform="translate(55.828125,35.0458984375)" y="0" x="0" id="text-entity-Orders-a7fbdabd-c6b5-58e0-a795-7630f285f18b-attr-1-name" class="er entityLabel">OrderNo</text><rect height="22.091796875" width="50.828125" y="46.091796875" x="0" class="er attributeBoxEven"/><text style="dominant-baseline: middle; font-size: 10.2px;" transform="translate(5,57.1376953125)" y="0" x="0" id="text-entity-Orders-a7fbdabd-c6b5-58e0-a795-7630f285f18b-attr-2-type" class="er entityLabel">User</text><rect height="22.091796875" width="49.78125" y="46.091796875" x="50.828125" class="er attributeBoxEven"/><text style="dominant-baseline: middle; font-size: 10.2px;" transform="translate(55.828125,57.1376953125)" y="0" x="0" id="text-entity-Orders-a7fbdabd-c6b5-58e0-a795-7630f285f18b-attr-2-name" class="er entityLabel">buyer</text><rect height="22" width="50.828125" y="68.18359375" x="0" class="er attributeBoxOdd"/><text style="dominant-baseline: middle; font-size: 10.2px;" transform="translate(5,79.18359375)" y="0" x="0" id="text-entity-Orders-a7fbdabd-c6b5-58e0-a795-7630f285f18b-attr-3-type" class="er entityLabel">Decimal</text><rect height="22" width="49.78125" y="68.18359375" x="50.828125" class="er attributeBoxOdd"/><text style="dominant-baseline: middle; font-size: 10.2px;" transform="translate(55.828125,79.18359375)" y="0" x="0" id="text-entity-Orders-a7fbdabd-c6b5-58e0-a795-7630f285f18b-attr-3-name" class="er entityLabel">total</text><rect height="22.091796875" width="50.828125" y="90.18359375" x="0" class="er attributeBoxEven"/><text style="dominant-baseline: middle; font-size: 10.2px;" transform="translate(5,101.2294921875)" y="0" x="0" id="text-entity-Orders-a7fbdabd-c6b5-58e0-a795-7630f285f18b-attr-4-type" class="er entityLabel">Currency</text><rect height="22.091796875" width="49.78125" y="90.18359375" x="50.828125" class="er attributeBoxEven"/><text style="dominant-baseline: middle; font-size: 10.2px;" transform="translate(55.828125,101.2294921875)" y="0" x="0" id="text-entity-Orders-a7fbdabd-c6b5-58e0-a795-7630f285f18b-attr-4-name" class="er entityLabel">currency</text></g><g transform="translate(220.3046875,232.275390625 )" id="entity-OrderItems-baaa336a-e9f9-5545-9669-c7e239750f18"><rect height="68.09179782867432" width="100" y="0" x="0" class="er entityBox"/><text style="dominant-baseline: middle; text-anchor: middle; font-size: 12px;" transform="translate(50,12)" y="0" x="0" id="text-entity-OrderItems-baaa336a-e9f9-5545-9669-c7e239750f18" class="er entityLabel">OrderItems</text><rect height="22.091797828674316" width="49.203125" y="24" x="0" class="er attributeBoxOdd"/><text style="dominant-baseline: middle; font-size: 10.2px;" transform="translate(5,35.04589891433716)" y="0" x="0" id="text-entity-OrderItems-baaa336a-e9f9-5545-9669-c7e239750f18-attr-1-type" class="er entityLabel">Integer</text><rect height="22.091797828674316" width="50.796875" y="24" x="49.203125" class="er attributeBoxOdd"/><text style="dominant-baseline: middle; font-size: 10.2px;" transform="translate(54.203125,35.04589891433716)" y="0" x="0" id="text-entity-OrderItems-baaa336a-e9f9-5545-9669-c7e239750f18-attr-1-name" class="er entityLabel">quantity</text><rect height="22" width="49.203125" y="46.091797828674316" x="0" class="er attributeBoxEven"/><text style="dominant-baseline: middle; font-size: 10.2px;" transform="translate(5,57.091797828674316)" y="0" x="0" id="text-entity-OrderItems-baaa336a-e9f9-5545-9669-c7e239750f18-attr-2-type" class="er entityLabel">Decimal</text><rect height="22" width="50.796875" y="46.091797828674316" x="49.203125" class="er attributeBoxEven"/><text style="dominant-baseline: middle; font-size: 10.2px;" transform="translate(54.203125,57.091797828674316)" y="0" x="0" id="text-entity-OrderItems-baaa336a-e9f9-5545-9669-c7e239750f18-attr-2-name" class="er entityLabel">amount</text></g><g transform="translate(20.3046875,701.009765625 )" id="entity-Reviews-5bc97cb8-91d5-5dd4-a66a-2d4b34fc0ba6"><rect height="90.27539157867432" width="100" y="0" x="0" class="er entityBox"/><text style="dominant-baseline: middle; text-anchor: middle; font-size: 12px;" transform="translate(50,12)" y="0" x="0" id="text-entity-Reviews-5bc97cb8-91d5-5dd4-a66a-2d4b34fc0ba6" class="er entityLabel">Reviews</text><rect height="22.091797828674316" width="50.984375" y="24" x="0" class="er attributeBoxOdd"/><text style="dominant-baseline: middle; font-size: 10.2px;" transform="translate(5,35.04589891433716)" y="0" x="0" id="text-entity-Reviews-5bc97cb8-91d5-5dd4-a66a-2d4b34fc0ba6-attr-1-type" class="er entityLabel">Rating</text><rect height="22.091797828674316" width="49.015625" y="24" x="50.984375" class="er attributeBoxOdd"/><text style="dominant-baseline: middle; font-size: 10.2px;" transform="translate(55.984375,35.04589891433716)" y="0" x="0" id="text-entity-Reviews-5bc97cb8-91d5-5dd4-a66a-2d4b34fc0ba6-attr-1-name" class="er entityLabel">rating</text><rect height="22.091796875" width="50.984375" y="46.091797828674316" x="0" class="er attributeBoxEven"/><text style="dominant-baseline: middle; font-size: 10.2px;" transform="translate(5,57.137696266174316)" y="0" x="0" id="text-entity-Reviews-5bc97cb8-91d5-5dd4-a66a-2d4b34fc0ba6-attr-2-type" class="er entityLabel">String</text><rect height="22.091796875" width="49.015625" y="46.091797828674316" x="50.984375" class="er attributeBoxEven"/><text style="dominant-baseline: middle; font-size: 10.2px;" transform="translate(55.984375,57.137696266174316)" y="0" x="0" id="text-entity-Reviews-5bc97cb8-91d5-5dd4-a66a-2d4b34fc0ba6-attr-2-name" class="er entityLabel">title</text><rect height="22.091796875" width="50.984375" y="68.18359470367432" x="0" class="er attributeBoxOdd"/><text style="dominant-baseline: middle; font-size: 10.2px;" transform="translate(5,79.22949314117432)" y="0" x="0" id="text-entity-Reviews-5bc97cb8-91d5-5dd4-a66a-2d4b34fc0ba6-attr-3-type" class="er entityLabel">String</text><rect height="22.091796875" width="49.015625" y="68.18359470367432" x="50.984375" class="er attributeBoxOdd"/><text style="dominant-baseline: middle; font-size: 10.2px;" transform="translate(55.984375,79.22949314117432)" y="0" x="0" id="text-entity-Reviews-5bc97cb8-91d5-5dd4-a66a-2d4b34fc0ba6-attr-3-name" class="er entityLabel">text</text></g><rect height="0" width="0" y="182.27499389648438" x="270.30499267578125" class="er relationshipLabelBox"/><text style="text-anchor: middle; dominant-baseline: middle; font-size: 12px;" y="182.27499389648438" x="270.30499267578125" id="rel1" class="er relationshipLabel"/><rect height="0" width="0" y="350.36700439453125" x="270.30499267578125" class="er relationshipLabelBox"/><text style="text-anchor: middle; dominant-baseline: middle; font-size: 12px;" y="350.36700439453125" x="270.30499267578125" id="rel2" class="er relationshipLabel"/><rect height="0" width="0" y="746.1475219726562" x="419.47100830078125" class="er relationshipLabelBox"/><text style="text-anchor: middle; dominant-baseline: middle; font-size: 12px;" y="746.1475219726562" x="419.47100830078125" id="rel3" class="er relationshipLabel"/><rect height="0" width="0" y="611.5305786132812" x="103.55489349365234" class="er relationshipLabelBox"/><text style="text-anchor: middle; dominant-baseline: middle; font-size: 12px;" y="611.5305786132812" x="103.55489349365234" id="rel4" class="er relationshipLabel"/><rect height="0" width="0" y="640.010009765625" x="270.30499267578125" class="er relationshipLabelBox"/><text style="text-anchor: middle; dominant-baseline: middle; font-size: 12px;" y="640.010009765625" x="270.30499267578125" id="rel5" class="er relationshipLabel"/><rect height="0" width="0" y="587.7177734375" x="487.52239990234375" class="er relationshipLabelBox"/><text style="text-anchor: middle; dominant-baseline: middle; font-size: 12px;" y="587.7177734375" x="487.52239990234375" id="rel6" class="er relationshipLabel"/></svg>