<svg aria-roledescription="gitGraph" role="graphics-document document" viewBox="-179.9375 -34.70000076293945 1437.9375 733.3905639648438" style="max-width: 1437.94px; background-color: white;" xmlns:xlink="http://www.w3.org/1999/xlink" xmlns="http://www.w3.org/2000/svg" width="100%" id="my-svg"><style>#my-svg{font-family:"trebuchet ms",verdana,arial,sans-serif;font-size:16px;fill:#333;}#my-svg .error-icon{fill:#552222;}#my-svg .error-text{fill:#552222;stroke:#552222;}#my-svg .edge-thickness-normal{stroke-width:1px;}#my-svg .edge-thickness-thick{stroke-width:3.5px;}#my-svg .edge-pattern-solid{stroke-dasharray:0;}#my-svg .edge-thickness-invisible{stroke-width:0;fill:none;}#my-svg .edge-pattern-dashed{stroke-dasharray:3;}#my-svg .edge-pattern-dotted{stroke-dasharray:2;}#my-svg .marker{fill:#333333;stroke:#333333;}#my-svg .marker.cross{stroke:#333333;}#my-svg svg{font-family:"trebuchet ms",verdana,arial,sans-serif;font-size:16px;}#my-svg p{margin:0;}#my-svg .commit-id,#my-svg .commit-msg,#my-svg .branch-label{fill:lightgrey;color:lightgrey;font-family:'trebuchet ms',verdana,arial,sans-serif;font-family:var(--mermaid-font-family);}#my-svg .branch-label0{fill:#ffffff;}#my-svg .commit0{stroke:hsl(240, 100%, 46.2745098039%);fill:hsl(240, 100%, 46.2745098039%);}#my-svg .commit-highlight0{stroke:hsl(60, 100%, 3.7254901961%);fill:hsl(60, 100%, 3.7254901961%);}#my-svg .label0{fill:hsl(240, 100%, 46.2745098039%);}#my-svg .arrow0{stroke:hsl(240, 100%, 46.2745098039%);}#my-svg .branch-label1{fill:black;}#my-svg .commit1{stroke:hsl(60, 100%, 43.5294117647%);fill:hsl(60, 100%, 43.5294117647%);}#my-svg .commit-highlight1{stroke:rgb(0, 0, 160.5);fill:rgb(0, 0, 160.5);}#my-svg .label1{fill:hsl(60, 100%, 43.5294117647%);}#my-svg .arrow1{stroke:hsl(60, 100%, 43.5294117647%);}#my-svg .branch-label2{fill:black;}#my-svg .commit2{stroke:hsl(80, 100%, 46.2745098039%);fill:hsl(80, 100%, 46.2745098039%);}#my-svg .commit-highlight2{stroke:rgb(48.8333333334, 0, 146.5000000001);fill:rgb(48.8333333334, 0, 146.5000000001);}#my-svg .label2{fill:hsl(80, 100%, 46.2745098039%);}#my-svg .arrow2{stroke:hsl(80, 100%, 46.2745098039%);}#my-svg .branch-label3{fill:#ffffff;}#my-svg .commit3{stroke:hsl(210, 100%, 46.2745098039%);fill:hsl(210, 100%, 46.2745098039%);}#my-svg .commit-highlight3{stroke:rgb(146.5000000001, 73.2500000001, 0);fill:rgb(146.5000000001, 73.2500000001, 0);}#my-svg .label3{fill:hsl(210, 100%, 46.2745098039%);}#my-svg .arrow3{stroke:hsl(210, 100%, 46.2745098039%);}#my-svg .branch-label4{fill:black;}#my-svg .commit4{stroke:hsl(180, 100%, 46.2745098039%);fill:hsl(180, 100%, 46.2745098039%);}#my-svg .commit-highlight4{stroke:rgb(146.5000000001, 0, 0);fill:rgb(146.5000000001, 0, 0);}#my-svg .label4{fill:hsl(180, 100%, 46.2745098039%);}#my-svg .arrow4{stroke:hsl(180, 100%, 46.2745098039%);}#my-svg .branch-label5{fill:black;}#my-svg .commit5{stroke:hsl(150, 100%, 46.2745098039%);fill:hsl(150, 100%, 46.2745098039%);}#my-svg .commit-highlight5{stroke:rgb(146.5000000001, 0, 73.2500000001);fill:rgb(146.5000000001, 0, 73.2500000001);}#my-svg .label5{fill:hsl(150, 100%, 46.2745098039%);}#my-svg .arrow5{stroke:hsl(150, 100%, 46.2745098039%);}#my-svg .branch-label6{fill:black;}#my-svg .commit6{stroke:hsl(300, 100%, 46.2745098039%);fill:hsl(300, 100%, 46.2745098039%);}#my-svg .commit-highlight6{stroke:rgb(0, 146.5000000001, 0);fill:rgb(0, 146.5000000001, 0);}#my-svg .label6{fill:hsl(300, 100%, 46.2745098039%);}#my-svg .arrow6{stroke:hsl(300, 100%, 46.2745098039%);}#my-svg .branch-label7{fill:black;}#my-svg .commit7{stroke:hsl(0, 100%, 46.2745098039%);fill:hsl(0, 100%, 46.2745098039%);}#my-svg .commit-highlight7{stroke:rgb(0, 146.5000000001, 146.5000000001);fill:rgb(0, 146.5000000001, 146.5000000001);}#my-svg .label7{fill:hsl(0, 100%, 46.2745098039%);}#my-svg .arrow7{stroke:hsl(0, 100%, 46.2745098039%);}#my-svg .branch{stroke-width:1;stroke:#333333;stroke-dasharray:2;}#my-svg .commit-label{font-size:10px;fill:#000021;}#my-svg .commit-label-bkg{font-size:10px;fill:#ffffde;opacity:0.5;}#my-svg .tag-label{font-size:10px;fill:#131300;}#my-svg .tag-label-bkg{fill:#ECECFF;stroke:hsl(240, 60%, 86.2745098039%);}#my-svg .tag-hole{fill:#333;}#my-svg .commit-merge{stroke:#ECECFF;fill:#ECECFF;}#my-svg .commit-reverse{stroke:#ECECFF;fill:#ECECFF;stroke-width:3;}#my-svg .commit-highlight-inner{stroke:#ECECFF;fill:#ECECFF;}#my-svg .arrow{stroke-width:8;stroke-linecap:round;fill:none;}#my-svg .gitTitleText{text-anchor:middle;font-size:18px;fill:#333;}#my-svg :root{--mermaid-font-family:"trebuchet ms",verdana,arial,sans-serif;}</style><g/><g class="commit-bullets"/><g class="commit-labels"/><g><line class="branch branch0" y2="0" x2="1250" y1="0" x1="0"/><rect transform="translate(-19, -9.5)" height="23" width="98.53125" y="-1.5" x="-114.53125" ry="4" rx="4" class="branchLabelBkg label0"/><g class="branchLabel"><g transform="translate(-124.53125, -10.5)" class="label branch-label0"><text><tspan class="row" x="0" dy="1em" xml:space="preserve">release-1.1</tspan></text></g></g><line class="branch branch1" y2="90" x2="1250" y1="90" x1="0"/><rect transform="translate(-19, 80.5)" height="23" width="50.765625" y="-1.5" x="-66.765625" ry="4" rx="4" class="branchLabelBkg label1"/><g class="branchLabel"><g transform="translate(-76.765625, 79.5)" class="label branch-label1"><text><tspan class="row" x="0" dy="1em" xml:space="preserve">fix-1</tspan></text></g></g><line class="branch branch2" y2="180" x2="1250" y1="180" x1="0"/><rect transform="translate(-19, 170.5)" height="23" width="98.53125" y="-1.5" x="-114.53125" ry="4" rx="4" class="branchLabelBkg label2"/><g class="branchLabel"><g transform="translate(-124.53125, 169.5)" class="label branch-label2"><text><tspan class="row" x="0" dy="1em" xml:space="preserve">release-1.2</tspan></text></g></g><line class="branch branch3" y2="270" x2="1250" y1="270" x1="0"/><rect transform="translate(-19, 260.5)" height="23" width="53" y="-1.5" x="-69" ry="4" rx="4" class="branchLabelBkg label3"/><g class="branchLabel"><g transform="translate(-79, 259.5)" class="label branch-label3"><text><tspan class="row" x="0" dy="1em" xml:space="preserve">main</tspan></text></g></g><line class="branch branch4" y2="360" x2="1250" y1="360" x1="0"/><rect transform="translate(-19, 350.5)" height="23" width="43.484375" y="-1.5" x="-59.484375" ry="4" rx="4" class="branchLabelBkg label4"/><g class="branchLabel"><g transform="translate(-69.484375, 349.5)" class="label branch-label4"><text><tspan class="row" x="0" dy="1em" xml:space="preserve">dev</tspan></text></g></g><line class="branch branch5" y2="450" x2="1250" y1="450" x1="0"/><rect transform="translate(-19, 440.5)" height="23" width="136.9375" y="-1.5" x="-152.9375" ry="4" rx="4" class="branchLabelBkg label5"/><g class="branchLabel"><g transform="translate(-162.9375, 439.5)" class="label branch-label5"><text><tspan class="row" x="0" dy="1em" xml:space="preserve">feat-1-make-hay</tspan></text></g></g><line class="branch branch6" y2="540" x2="1250" y1="540" x1="0"/><rect transform="translate(-19, 530.5)" height="23" width="122.921875" y="-1.5" x="-138.921875" ry="4" rx="4" class="branchLabelBkg label6"/><g class="branchLabel"><g transform="translate(-148.921875, 529.5)" class="label branch-label6"><text><tspan class="row" x="0" dy="1em" xml:space="preserve">feat-2-eat-dirt</tspan></text></g></g><line class="branch branch7" y2="630" x2="1250" y1="630" x1="0"/><rect transform="translate(-19, 620.5)" height="23" width="122.640625" y="-1.5" x="-138.640625" ry="4" rx="4" class="branchLabelBkg label7"/><g class="branchLabel"><g transform="translate(-148.640625, 619.5)" class="label branch-label7"><text><tspan class="row" x="0" dy="1em" xml:space="preserve">feat-3-get-lost</tspan></text></g></g></g><g class="commit-arrows"><path class="arrow arrow3" d="M 10 270 L 60 270"/><path class="arrow arrow4" d="M 60 270 L 60 340 A 20 20, 0, 0, 0, 80 360 L 110 360"/><path class="arrow arrow5" d="M 110 360 L 110 430 A 20 20, 0, 0, 0, 130 450 L 160 450"/><path class="arrow arrow5" d="M 160 450 L 210 450"/><path class="arrow arrow4" d="M 110 360 L 260 360"/><path class="arrow arrow5" d="M 210 450 L 240 450 A 20 20, 0, 0, 0, 260 430 L 260 360"/><path class="arrow arrow4" d="M 260 360 L 310 360"/><path class="arrow arrow6" d="M 310 360 L 310 520 A 20 20, 0, 0, 0, 330 540 L 360 540"/><path class="arrow arrow4" d="M 310 360 L 410 360"/><path class="arrow arrow6" d="M 360 540 L 390 540 A 20 20, 0, 0, 0, 410 520 L 410 360"/><path class="arrow arrow4" d="M 410 360 L 460 360"/><path class="arrow arrow3" d="M 60 270 L 510 270"/><path class="arrow arrow4" d="M 460 360 L 490 360 A 20 20, 0, 0, 0, 510 340 L 510 270"/><path class="arrow arrow0" d="M 510 270 L 510 20 A 20 20, 0, 0, 1, 530 0 L 560 0"/><path class="arrow arrow0" d="M 560 0 L 610 0"/><path class="arrow arrow1" d="M 610 0 L 610 70 A 20 20, 0, 0, 0, 630 90 L 660 90"/><path class="arrow arrow0" d="M 610 0 L 710 0"/><path class="arrow arrow1" d="M 660 90 L 690 90 A 20 20, 0, 0, 0, 710 70 L 710 0"/><path class="arrow arrow3" d="M 510 270 L 760 270"/><path class="arrow arrow1" d="M 660 90 L 740 90 A 20 20, 0, 0, 1, 760 110 L 760 270"/><path class="arrow arrow4" d="M 460 360 L 810 360"/><path class="arrow arrow3" d="M 760 270 L 790 270 A 20 20, 0, 0, 1, 810 290 L 810 360"/><path class="arrow arrow4" d="M 810 360 L 860 360"/><path class="arrow arrow7" d="M 860 360 L 860 610 A 20 20, 0, 0, 0, 880 630 L 910 630"/><path class="arrow arrow4" d="M 860 360 L 960 360"/><path class="arrow arrow7" d="M 910 630 L 940 630 A 20 20, 0, 0, 0, 960 610 L 960 360"/><path class="arrow arrow4" d="M 960 360 L 1010 360"/><path class="arrow arrow3" d="M 760 270 L 1060 270"/><path class="arrow arrow4" d="M 1010 360 L 1040 360 A 20 20, 0, 0, 0, 1060 340 L 1060 270"/><path class="arrow arrow2" d="M 1060 270 L 1060 200 A 20 20, 0, 0, 1, 1080 180 L 1110 180"/><path class="arrow arrow4" d="M 1010 360 L 1160 360"/><path class="arrow arrow2" d="M 1110 180 L 1210 180"/></g><g class="commit-bullets"><circle class="commit 0-ff6fd53 commit3" r="10" cy="270" cx="10"/><circle class="commit 1-725293c commit3" r="10" cy="270" cx="60"/><circle class="commit 2-41047f0 commit4" r="10" cy="360" cx="110"/><circle class="commit 3-babd580 commit5" r="10" cy="450" cx="160"/><circle class="commit 4-970e879 commit5" r="10" cy="450" cx="210"/><circle class="commit 5-900487d commit4" r="9" cy="360" cx="260"/><circle class="commit commit-merge 5-900487d commit4" r="6" cy="360" cx="260"/><circle class="commit 6-586134d commit4" r="10" cy="360" cx="310"/><circle class="commit 7-1d5ae94 commit6" r="10" cy="540" cx="360"/><circle class="commit 8-7c23f5d commit4" r="9" cy="360" cx="410"/><circle class="commit commit-merge 8-7c23f5d commit4" r="6" cy="360" cx="410"/><circle class="commit 9-239fbd6 commit4" r="10" cy="360" cx="460"/><circle class="commit 10-565f172 commit3" r="9" cy="270" cx="510"/><circle class="commit commit-merge 10-565f172 commit3" r="6" cy="270" cx="510"/><circle class="commit 11-bc0fca4 commit0" r="10" cy="0" cx="560"/><circle class="commit 12-500ddd2 commit0" r="10" cy="0" cx="610"/><circle class="commit 13-1f9d55c commit1" r="10" cy="90" cx="660"/><circle class="commit 14-068a9de commit0" r="9" cy="0" cx="710"/><circle class="commit commit-merge 14-068a9de commit0" r="6" cy="0" cx="710"/><circle class="commit 15-66f5678 commit3" r="9" cy="270" cx="760"/><circle class="commit commit-merge 15-66f5678 commit3" r="6" cy="270" cx="760"/><circle class="commit 16-9b91f8c commit4" r="9" cy="360" cx="810"/><circle class="commit commit-merge 16-9b91f8c commit4" r="6" cy="360" cx="810"/><circle class="commit 17-69e8c4a commit4" r="10" cy="360" cx="860"/><circle class="commit 18-bd56d1d commit7" r="10" cy="630" cx="910"/><circle class="commit 19-d72344a commit4" r="9" cy="360" cx="960"/><circle class="commit commit-merge 19-d72344a commit4" r="6" cy="360" cx="960"/><circle class="commit 20-9d81411 commit4" r="10" cy="360" cx="1010"/><circle class="commit 21-ff3698a commit3" r="9" cy="270" cx="1060"/><circle class="commit commit-merge 21-ff3698a commit3" r="6" cy="270" cx="1060"/><circle class="commit 22-6b12120 commit2" r="10" cy="180" cx="1110"/><circle class="commit 23-a0a568f commit4" r="10" cy="360" cx="1160"/><circle class="commit 24-c2bf18f commit2" r="10" cy="180" cx="1210"/></g><g class="commit-labels"><g transform="translate(-26.99875, 24.04625) rotate(-45, 0, 270)"><rect height="15" width="45.3125" y="283.5" x="-12.65625" class="commit-label-bkg"/><text class="commit-label" y="295" x="-10.65625">0-ff6fd53</text></g><g transform="translate(-28.530625, 25.416874999999997) rotate(-45, 50, 270)"><rect height="15" width="49.34375" y="283.5" x="35.328125" class="commit-label-bkg"/><text class="commit-label" y="295" x="37.328125">1-725293c</text></g><g transform="translate(-28.0496875, 24.986562499999998) rotate(-45, 100, 360)"><rect height="15" width="48.078125" y="373.5" x="85.9609375" class="commit-label-bkg"/><text class="commit-label" y="385" x="87.9609375">2-41047f0</text></g><g transform="translate(-29.017500000000002, 25.8525) rotate(-45, 150, 450)"><rect height="15" width="50.625" y="463.5" x="134.6875" class="commit-label-bkg"/><text class="commit-label" y="475" x="136.6875">3-babd580</text></g><g transform="translate(-28.720625000000002, 25.586875) rotate(-45, 200, 450)"><rect height="15" width="49.84375" y="463.5" x="185.078125" class="commit-label-bkg"/><text class="commit-label" y="475" x="187.078125">4-970e879</text></g><g transform="translate(-28.762187500000003, 25.6240625) rotate(-45, 300, 360)"><rect height="15" width="49.953125" y="373.5" x="285.0234375" class="commit-label-bkg"/><text class="commit-label" y="385" x="287.0234375">6-586134d</text></g><g transform="translate(-28.845312500000002, 25.6984375) rotate(-45, 350, 540)"><rect height="15" width="50.171875" y="553.5" x="334.9140625" class="commit-label-bkg"/><text class="commit-label" y="565" x="336.9140625">7-1d5ae94</text></g><g transform="translate(-28.2990625, 25.2096875) rotate(-45, 450, 360)"><rect height="15" width="48.734375" y="373.5" x="435.6328125" class="commit-label-bkg"/><text class="commit-label" y="385" x="437.6328125">9-239fbd6</text></g><g transform="translate(-29.949687500000003, 26.6865625) rotate(-45, 550, 0)"><rect height="15" width="53.078125" y="13.5" x="533.4609375" class="commit-label-bkg"/><text class="commit-label" y="25" x="535.4609375">11-bc0fca4</text></g><polygon points="536.4609375,-17.2  &#10;      536.4609375,-21.2&#10;      544.4609375,-26.7&#10;      575.5390625,-26.7&#10;      575.5390625,-11.7&#10;      544.4609375,-11.7" class="tag-label-bkg"/><circle class="tag-hole" r="1.5" cx="540.4609375" cy="-19.2"/><text x="548.4609375" class="tag-label" y="-16">1.1.1</text><g transform="translate(-31.0065625, 27.6321875) rotate(-45, 600, 0)"><rect height="15" width="55.859375" y="13.5" x="582.0703125" class="commit-label-bkg"/><text class="commit-label" y="25" x="584.0703125">12-500ddd2</text></g><polygon points="586.4609375,-17.2  &#10;      586.4609375,-21.2&#10;      594.4609375,-26.7&#10;      625.5390625,-26.7&#10;      625.5390625,-11.7&#10;      594.4609375,-11.7" class="tag-label-bkg"/><circle class="tag-hole" r="1.5" cx="590.4609375" cy="-19.2"/><text x="598.4609375" class="tag-label" y="-16">1.1.1</text><g transform="translate(-30.056562500000002, 26.7821875) rotate(-45, 650, 90)"><rect height="15" width="53.359375" y="103.5" x="633.3203125" class="commit-label-bkg"/><text class="commit-label" y="115" x="635.3203125">13-1f9d55c</text></g><polygon points="686.4609375,-17.2  &#10;      686.4609375,-21.2&#10;      694.4609375,-26.7&#10;      725.5390625,-26.7&#10;      725.5390625,-11.7&#10;      694.4609375,-11.7" class="tag-label-bkg"/><circle class="tag-hole" r="1.5" cx="690.4609375" cy="-19.2"/><text x="698.4609375" class="tag-label" y="-16">1.1.2</text><g transform="translate(-30.6028125, 27.2709375) rotate(-45, 850, 360)"><rect height="15" width="54.796875" y="373.5" x="832.6015625" class="commit-label-bkg"/><text class="commit-label" y="385" x="834.6015625">17-69e8c4a</text></g><g transform="translate(-31.131249999999998, 27.74375) rotate(-45, 900, 630)"><rect height="15" width="56.1875" y="643.5" x="881.90625" class="commit-label-bkg"/><text class="commit-label" y="655" x="883.90625">18-bd56d1d</text></g><g transform="translate(-30.7571875, 27.4090625) rotate(-45, 1000, 360)"><rect height="15" width="55.203125" y="373.5" x="982.3984375" class="commit-label-bkg"/><text class="commit-label" y="385" x="984.3984375">20-9d81411</text></g><g transform="translate(-30.7571875, 27.4090625) rotate(-45, 1100, 180)"><rect height="15" width="55.203125" y="193.5" x="1082.3984375" class="commit-label-bkg"/><text class="commit-label" y="205" x="1084.3984375">22-6b12120</text></g><polygon points="1086.4609375,162.8  &#10;      1086.4609375,158.8&#10;      1094.4609375,153.3&#10;      1125.5390625,153.3&#10;      1125.5390625,168.3&#10;      1094.4609375,168.3" class="tag-label-bkg"/><circle class="tag-hole" r="1.5" cx="1090.4609375" cy="160.8"/><text x="1098.4609375" class="tag-label" y="164">1.2.1</text><g transform="translate(-30.06806640625, 26.79248046875) rotate(-45, 1150, 360)"><rect height="15" width="53.3896484375" y="373.5" x="1133.30517578125" class="commit-label-bkg"/><text class="commit-label" y="385" x="1135.30517578125">23-a0a568f</text></g><g transform="translate(-29.485449218750002, 26.27119140625) rotate(-45, 1200, 180)"><rect height="15" width="51.8564453125" y="193.5" x="1184.07177734375" class="commit-label-bkg"/><text class="commit-label" y="205" x="1186.07177734375">24-c2bf18f</text></g><polygon points="1186.4609375,162.8  &#10;      1186.4609375,158.8&#10;      1194.4609375,153.3&#10;      1225.5390625,153.3&#10;      1225.5390625,168.3&#10;      1194.4609375,168.3" class="tag-label-bkg"/><circle class="tag-hole" r="1.5" cx="1190.4609375" cy="160.8"/><text x="1198.4609375" class="tag-label" y="164">1.2.2</text></g></svg>