<svg aria-roledescription="er" role="graphics-document document" viewBox="0 0 580.28125 261.091796875" style="max-width: 580.281px; background-color: white;" xmlns:xlink="http://www.w3.org/1999/xlink" xmlns="http://www.w3.org/2000/svg" width="100%" id="my-svg"><style>#my-svg{font-family:"trebuchet ms",verdana,arial,sans-serif;font-size:16px;fill:#333;}#my-svg .error-icon{fill:#552222;}#my-svg .error-text{fill:#552222;stroke:#552222;}#my-svg .edge-thickness-normal{stroke-width:1px;}#my-svg .edge-thickness-thick{stroke-width:3.5px;}#my-svg .edge-pattern-solid{stroke-dasharray:0;}#my-svg .edge-thickness-invisible{stroke-width:0;fill:none;}#my-svg .edge-pattern-dashed{stroke-dasharray:3;}#my-svg .edge-pattern-dotted{stroke-dasharray:2;}#my-svg .marker{fill:#333333;stroke:#333333;}#my-svg .marker.cross{stroke:#333333;}#my-svg svg{font-family:"trebuchet ms",verdana,arial,sans-serif;font-size:16px;}#my-svg p{margin:0;}#my-svg .entityBox{fill:#ECECFF;stroke:#9370DB;}#my-svg .attributeBoxOdd{fill:#ffffff;stroke:#9370DB;}#my-svg .attributeBoxEven{fill:#f2f2f2;stroke:#9370DB;}#my-svg .relationshipLabelBox{fill:hsl(80, 100%, 96.2745098039%);opacity:0.7;background-color:hsl(80, 100%, 96.2745098039%);}#my-svg .relationshipLabelBox rect{opacity:0.5;}#my-svg .relationshipLine{stroke:#333333;}#my-svg .entityTitleText{text-anchor:middle;font-size:18px;fill:#333;}#my-svg #MD_PARENT_START{fill:#f5f5f5!important;stroke:#333333!important;stroke-width:1;}#my-svg #MD_PARENT_END{fill:#f5f5f5!important;stroke:#333333!important;stroke-width:1;}#my-svg :root{--mermaid-font-family:"trebuchet ms",verdana,arial,sans-serif;}</style><g/><defs><marker orient="auto" markerHeight="240" markerWidth="190" refY="7" refX="0" id="MD_PARENT_START"><path d="M 18,7 L9,13 L1,7 L9,1 Z"/></marker></defs><defs><marker orient="auto" markerHeight="28" markerWidth="20" refY="7" refX="19" id="MD_PARENT_END"><path d="M 18,7 L9,13 L1,7 L9,1 Z"/></marker></defs><defs><marker orient="auto" markerHeight="18" markerWidth="18" refY="9" refX="0" id="ONLY_ONE_START"><path d="M9,0 L9,18 M15,0 L15,18" fill="none" stroke="gray"/></marker></defs><defs><marker orient="auto" markerHeight="18" markerWidth="18" refY="9" refX="18" id="ONLY_ONE_END"><path d="M3,0 L3,18 M9,0 L9,18" fill="none" stroke="gray"/></marker></defs><defs><marker orient="auto" markerHeight="18" markerWidth="30" refY="9" refX="0" id="ZERO_OR_ONE_START"><circle r="6" cy="9" cx="21" fill="white" stroke="gray"/><path d="M9,0 L9,18" fill="none" stroke="gray"/></marker></defs><defs><marker orient="auto" markerHeight="18" markerWidth="30" refY="9" refX="30" id="ZERO_OR_ONE_END"><circle r="6" cy="9" cx="9" fill="white" stroke="gray"/><path d="M21,0 L21,18" fill="none" stroke="gray"/></marker></defs><defs><marker orient="auto" markerHeight="36" markerWidth="45" refY="18" refX="18" id="ONE_OR_MORE_START"><path d="M0,18 Q 18,0 36,18 Q 18,36 0,18 M42,9 L42,27" fill="none" stroke="gray"/></marker></defs><defs><marker orient="auto" markerHeight="36" markerWidth="45" refY="18" refX="27" id="ONE_OR_MORE_END"><path d="M3,9 L3,27 M9,18 Q27,0 45,18 Q27,36 9,18" fill="none" stroke="gray"/></marker></defs><defs><marker orient="auto" markerHeight="36" markerWidth="57" refY="18" refX="18" id="ZERO_OR_MORE_START"><circle r="6" cy="18" cx="48" fill="white" stroke="gray"/><path d="M0,18 Q18,0 36,18 Q18,36 0,18" fill="none" stroke="gray"/></marker></defs><defs><marker orient="auto" markerHeight="36" markerWidth="57" refY="18" refX="39" id="ZERO_OR_MORE_END"><circle r="6" cy="18" cx="9" fill="white" stroke="gray"/><path d="M21,18 Q39,0 57,18 Q39,36 21,18" fill="none" stroke="gray"/></marker></defs><path style="stroke: gray; fill: none;" marker-start="url(#ZERO_OR_MORE_START)" marker-end="url(#ZERO_OR_MORE_END)" d="M251.781,59.963L224.133,69.318C196.484,78.673,141.188,97.382,113.539,115.07C85.891,132.758,85.891,149.425,85.891,157.758L85.891,166.092" class="er relationshipLine"/><path style="stroke: gray; fill: none;" marker-start="url(#ZERO_OR_MORE_START)" marker-end="url(#ZERO_OR_MORE_END)" d="M301.781,66.092L301.781,74.425C301.781,82.758,301.781,99.425,301.781,116.092C301.781,132.758,301.781,149.425,301.781,157.758L301.781,166.092" class="er relationshipLine"/><path style="stroke: gray; fill: none;" marker-start="url(#ONLY_ONE_START)" marker-end="url(#ZERO_OR_MORE_END)" d="M351.781,60.927L377.49,70.121C403.198,79.316,454.615,97.704,480.323,115.231C506.031,132.758,506.031,149.425,506.031,157.758L506.031,166.092" class="er relationshipLine"/><g transform="translate(251.78125,20 )" id="entity-BUCKET-1b63a865-0730-5f44-ade1-9a322ff8897d"><rect height="46.091797828674316" width="100" y="0" x="0" class="er entityBox"/><text style="dominant-baseline: middle; text-anchor: middle; font-size: 12px;" transform="translate(50,12)" y="0" x="0" id="text-entity-BUCKET-1b63a865-0730-5f44-ade1-9a322ff8897d" class="er entityLabel">BUCKET</text><rect height="22.091797828674316" width="54.0078125" y="24" x="0" class="er attributeBoxOdd"/><text style="dominant-baseline: middle; font-size: 10.2px;" transform="translate(5,35.04589891433716)" y="0" x="0" id="text-entity-BUCKET-1b63a865-0730-5f44-ade1-9a322ff8897d-attr-1-type" class="er entityLabel">entity</text><rect height="22.091797828674316" width="45.9921875" y="24" x="54.0078125" class="er attributeBoxOdd"/><text style="dominant-baseline: middle; font-size: 10.2px;" transform="translate(59.0078125,35.04589891433716)" y="0" x="0" id="text-entity-BUCKET-1b63a865-0730-5f44-ade1-9a322ff8897d-attr-1-name" class="er entityLabel">true</text></g><g transform="translate(20,166.091796875 )" id="entity-AGGREGATORITEM-68f444e5-c6d3-5f87-9e7a-a039ca232832"><rect height="75" width="131.78125" y="0" x="0" class="er entityBox"/><text style="dominant-baseline: middle; text-anchor: middle; font-size: 12px;" transform="translate(65.890625,37.5)" y="0" x="0" id="text-entity-AGGREGATORITEM-68f444e5-c6d3-5f87-9e7a-a039ca232832" class="er entityLabel">AGGREGATOR-ITEM</text></g><g transform="translate(251.78125,166.091796875 )" id="entity-TBVAR-e94ea5f0-ce6b-5fe6-b1ba-458238298cfd"><rect height="75" width="100" y="0" x="0" class="er entityBox"/><text style="dominant-baseline: middle; text-anchor: middle; font-size: 12px;" transform="translate(50,37.5)" y="0" x="0" id="text-entity-TBVAR-e94ea5f0-ce6b-5fe6-b1ba-458238298cfd" class="er entityLabel">TB-VAR-*</text></g><g transform="translate(451.78125,166.091796875 )" id="entity-BUCKETVALUE-e5a3cf6b-92bf-5f4f-8992-0f69ea93cadf"><rect height="75" width="108.5" y="0" x="0" class="er entityBox"/><text style="dominant-baseline: middle; text-anchor: middle; font-size: 12px;" transform="translate(54.25,37.5)" y="0" x="0" id="text-entity-BUCKETVALUE-e5a3cf6b-92bf-5f4f-8992-0f69ea93cadf" class="er entityLabel">BUCKET-VALUE</text></g><rect height="14" width="84" y="88.63423156738281" x="110.56521606445312" class="er relationshipLabelBox"/><text style="text-anchor: middle; dominant-baseline: middle; font-size: 12px;" y="95.63423156738281" x="152.56521606445312" id="rel1" class="er relationshipLabel">is concerned by</text><rect height="14" width="114.15625" y="109.09199523925781" x="244.702880859375" class="er relationshipLabelBox"/><text style="text-anchor: middle; dominant-baseline: middle; font-size: 12px;" y="116.09199523925781" x="301.781005859375" id="rel2" class="er relationshipLabel">is describing time for</text><rect height="14" width="84.234375" y="89.5984878540039" x="403.2054138183594" class="er relationshipLabelBox"/><text style="text-anchor: middle; dominant-baseline: middle; font-size: 12px;" y="96.5984878540039" x="445.3226013183594" id="rel3" class="er relationshipLabel">is associated by</text></svg>