<svg aria-roledescription="er" role="graphics-document document" viewBox="0 0 979.25 686.642578125" style="max-width: 979.25px; background-color: white;" xmlns:xlink="http://www.w3.org/1999/xlink" xmlns="http://www.w3.org/2000/svg" width="100%" id="my-svg"><style>#my-svg{font-family:"trebuchet ms",verdana,arial,sans-serif;font-size:16px;fill:#333;}#my-svg .error-icon{fill:#552222;}#my-svg .error-text{fill:#552222;stroke:#552222;}#my-svg .edge-thickness-normal{stroke-width:1px;}#my-svg .edge-thickness-thick{stroke-width:3.5px;}#my-svg .edge-pattern-solid{stroke-dasharray:0;}#my-svg .edge-thickness-invisible{stroke-width:0;fill:none;}#my-svg .edge-pattern-dashed{stroke-dasharray:3;}#my-svg .edge-pattern-dotted{stroke-dasharray:2;}#my-svg .marker{fill:#333333;stroke:#333333;}#my-svg .marker.cross{stroke:#333333;}#my-svg svg{font-family:"trebuchet ms",verdana,arial,sans-serif;font-size:16px;}#my-svg p{margin:0;}#my-svg .entityBox{fill:#ECECFF;stroke:#9370DB;}#my-svg .attributeBoxOdd{fill:#ffffff;stroke:#9370DB;}#my-svg .attributeBoxEven{fill:#f2f2f2;stroke:#9370DB;}#my-svg .relationshipLabelBox{fill:hsl(80, 100%, 96.2745098039%);opacity:0.7;background-color:hsl(80, 100%, 96.2745098039%);}#my-svg .relationshipLabelBox rect{opacity:0.5;}#my-svg .relationshipLine{stroke:#333333;}#my-svg .entityTitleText{text-anchor:middle;font-size:18px;fill:#333;}#my-svg #MD_PARENT_START{fill:#f5f5f5!important;stroke:#333333!important;stroke-width:1;}#my-svg #MD_PARENT_END{fill:#f5f5f5!important;stroke:#333333!important;stroke-width:1;}#my-svg :root{--mermaid-font-family:"trebuchet ms",verdana,arial,sans-serif;}</style><g/><defs><marker orient="auto" markerHeight="240" markerWidth="190" refY="7" refX="0" id="MD_PARENT_START"><path d="M 18,7 L9,13 L1,7 L9,1 Z"/></marker></defs><defs><marker orient="auto" markerHeight="28" markerWidth="20" refY="7" refX="19" id="MD_PARENT_END"><path d="M 18,7 L9,13 L1,7 L9,1 Z"/></marker></defs><defs><marker orient="auto" markerHeight="18" markerWidth="18" refY="9" refX="0" id="ONLY_ONE_START"><path d="M9,0 L9,18 M15,0 L15,18" fill="none" stroke="gray"/></marker></defs><defs><marker orient="auto" markerHeight="18" markerWidth="18" refY="9" refX="18" id="ONLY_ONE_END"><path d="M3,0 L3,18 M9,0 L9,18" fill="none" stroke="gray"/></marker></defs><defs><marker orient="auto" markerHeight="18" markerWidth="30" refY="9" refX="0" id="ZERO_OR_ONE_START"><circle r="6" cy="9" cx="21" fill="white" stroke="gray"/><path d="M9,0 L9,18" fill="none" stroke="gray"/></marker></defs><defs><marker orient="auto" markerHeight="18" markerWidth="30" refY="9" refX="30" id="ZERO_OR_ONE_END"><circle r="6" cy="9" cx="9" fill="white" stroke="gray"/><path d="M21,0 L21,18" fill="none" stroke="gray"/></marker></defs><defs><marker orient="auto" markerHeight="36" markerWidth="45" refY="18" refX="18" id="ONE_OR_MORE_START"><path d="M0,18 Q 18,0 36,18 Q 18,36 0,18 M42,9 L42,27" fill="none" stroke="gray"/></marker></defs><defs><marker orient="auto" markerHeight="36" markerWidth="45" refY="18" refX="27" id="ONE_OR_MORE_END"><path d="M3,9 L3,27 M9,18 Q27,0 45,18 Q27,36 9,18" fill="none" stroke="gray"/></marker></defs><defs><marker orient="auto" markerHeight="36" markerWidth="57" refY="18" refX="18" id="ZERO_OR_MORE_START"><circle r="6" cy="18" cx="48" fill="white" stroke="gray"/><path d="M0,18 Q18,0 36,18 Q18,36 0,18" fill="none" stroke="gray"/></marker></defs><defs><marker orient="auto" markerHeight="36" markerWidth="57" refY="18" refX="39" id="ZERO_OR_MORE_END"><circle r="6" cy="18" cx="9" fill="white" stroke="gray"/><path d="M21,18 Q39,0 57,18 Q39,36 21,18" fill="none" stroke="gray"/></marker></defs><path style="stroke: gray; fill: none;" marker-start="url(#ONLY_ONE_START)" marker-end="url(#ZERO_OR_MORE_END)" d="M494.336,176.184L494.336,184.517C494.336,192.85,494.336,209.517,494.336,226.184C494.336,242.85,494.336,259.517,494.336,267.85L494.336,276.184" class="er relationshipLine"/><path style="stroke: gray; fill: none;" marker-start="url(#ONE_OR_MORE_START)" marker-end="url(#ONLY_ONE_END)" d="M416.68,366.47L364.284,382.119C311.888,397.769,207.096,429.068,154.701,453.059C102.305,477.049,102.305,493.731,102.305,502.072L102.305,510.413" class="er relationshipLine"/><path style="stroke: gray; fill: none;" marker-start="url(#ONLY_ONE_START)" marker-end="url(#ZERO_OR_MORE_END)" d="M419.221,410.367L409.891,418.701C400.562,427.034,381.902,443.701,372.572,460.375C363.242,477.049,363.242,493.731,363.242,502.072L363.242,510.413" class="er relationshipLine"/><path style="stroke: gray; fill: none;" marker-start="url(#ONE_OR_MORE_START)" marker-end="url(#ONLY_ONE_END)" d="M569.451,410.367L578.78,418.701C588.11,427.034,606.77,443.701,616.1,460.367C625.43,477.034,625.43,493.701,625.43,502.034L625.43,510.367" class="er relationshipLine"/><path style="stroke: gray; fill: none;" marker-start="url(#ONE_OR_MORE_START)" marker-end="url(#ONE_OR_MORE_END)" d="M571.992,366.604L624.013,382.231C676.034,397.858,780.076,429.113,832.096,456.748C884.117,484.382,884.117,508.398,884.117,520.405L884.117,532.413" class="er relationshipLine"/><g transform="translate(409.4765625,20 )" id="entity-PASAJERO-1cdd0366-790a-5e0c-a119-b919639d0568"><rect height="156.18359470367432" width="169.71875" y="0" x="0" class="er entityBox"/><text style="dominant-baseline: middle; text-anchor: middle; font-size: 12px;" transform="translate(84.859375,12)" y="0" x="0" id="text-entity-PASAJERO-1cdd0366-790a-5e0c-a119-b919639d0568" class="er entityLabel">PASAJERO</text><rect height="22.091797828674316" width="96.515625" y="24" x="0" class="er attributeBoxOdd"/><text style="dominant-baseline: middle; font-size: 10.2px;" transform="translate(5,35.04589891433716)" y="0" x="0" id="text-entity-PASAJERO-1cdd0366-790a-5e0c-a119-b919639d0568-attr-1-type" class="er entityLabel">id_pasajero</text><rect height="22.091797828674316" width="51.640625" y="24" x="96.515625" class="er attributeBoxOdd"/><text style="dominant-baseline: middle; font-size: 10.2px;" transform="translate(101.515625,35.04589891433716)" y="0" x="0" id="text-entity-PASAJERO-1cdd0366-790a-5e0c-a119-b919639d0568-attr-1-name" class="er entityLabel">INT</text><rect height="22.091797828674316" width="21.5625" y="24" x="148.15625" class="er attributeBoxOdd"/><text style="dominant-baseline: middle; font-size: 10.2px;" transform="translate(153.15625,35.04589891433716)" y="0" x="0" id="text-entity-PASAJERO-1cdd0366-790a-5e0c-a119-b919639d0568-attr-1-key" class="er entityLabel">PK</text><rect height="22" width="96.515625" y="46.091797828674316" x="0" class="er attributeBoxEven"/><text style="dominant-baseline: middle; font-size: 10.2px;" transform="translate(5,57.091797828674316)" y="0" x="0" id="text-entity-PASAJERO-1cdd0366-790a-5e0c-a119-b919639d0568-attr-2-type" class="er entityLabel">nombre</text><rect height="22" width="51.640625" y="46.091797828674316" x="96.515625" class="er attributeBoxEven"/><text style="dominant-baseline: middle; font-size: 10.2px;" transform="translate(101.515625,57.091797828674316)" y="0" x="0" id="text-entity-PASAJERO-1cdd0366-790a-5e0c-a119-b919639d0568-attr-2-name" class="er entityLabel">VARCHAR</text><rect height="22" width="21.5625" y="46.091797828674316" x="148.15625" class="er attributeBoxEven"/><text style="dominant-baseline: middle; font-size: 10.2px;" transform="translate(153.15625,57.091797828674316)" y="0" x="0" id="text-entity-PASAJERO-1cdd0366-790a-5e0c-a119-b919639d0568-attr-2-key" class="er entityLabel"/><rect height="22.091796875" width="96.515625" y="68.09179782867432" x="0" class="er attributeBoxOdd"/><text style="dominant-baseline: middle; font-size: 10.2px;" transform="translate(5,79.13769626617432)" y="0" x="0" id="text-entity-PASAJERO-1cdd0366-790a-5e0c-a119-b919639d0568-attr-3-type" class="er entityLabel">apellido</text><rect height="22.091796875" width="51.640625" y="68.09179782867432" x="96.515625" class="er attributeBoxOdd"/><text style="dominant-baseline: middle; font-size: 10.2px;" transform="translate(101.515625,79.13769626617432)" y="0" x="0" id="text-entity-PASAJERO-1cdd0366-790a-5e0c-a119-b919639d0568-attr-3-name" class="er entityLabel">VARCHAR</text><rect height="22.091796875" width="21.5625" y="68.09179782867432" x="148.15625" class="er attributeBoxOdd"/><text style="dominant-baseline: middle; font-size: 10.2px;" transform="translate(153.15625,79.13769626617432)" y="0" x="0" id="text-entity-PASAJERO-1cdd0366-790a-5e0c-a119-b919639d0568-attr-3-key" class="er entityLabel"/><rect height="22" width="96.515625" y="90.18359470367432" x="0" class="er attributeBoxEven"/><text style="dominant-baseline: middle; font-size: 10.2px;" transform="translate(5,101.18359470367432)" y="0" x="0" id="text-entity-PASAJERO-1cdd0366-790a-5e0c-a119-b919639d0568-attr-4-type" class="er entityLabel">documento</text><rect height="22" width="51.640625" y="90.18359470367432" x="96.515625" class="er attributeBoxEven"/><text style="dominant-baseline: middle; font-size: 10.2px;" transform="translate(101.515625,101.18359470367432)" y="0" x="0" id="text-entity-PASAJERO-1cdd0366-790a-5e0c-a119-b919639d0568-attr-4-name" class="er entityLabel">VARCHAR</text><rect height="22" width="21.5625" y="90.18359470367432" x="148.15625" class="er attributeBoxEven"/><text style="dominant-baseline: middle; font-size: 10.2px;" transform="translate(153.15625,101.18359470367432)" y="0" x="0" id="text-entity-PASAJERO-1cdd0366-790a-5e0c-a119-b919639d0568-attr-4-key" class="er entityLabel"/><rect height="22" width="96.515625" y="112.18359470367432" x="0" class="er attributeBoxOdd"/><text style="dominant-baseline: middle; font-size: 10.2px;" transform="translate(5,123.18359470367432)" y="0" x="0" id="text-entity-PASAJERO-1cdd0366-790a-5e0c-a119-b919639d0568-attr-5-type" class="er entityLabel">telefono</text><rect height="22" width="51.640625" y="112.18359470367432" x="96.515625" class="er attributeBoxOdd"/><text style="dominant-baseline: middle; font-size: 10.2px;" transform="translate(101.515625,123.18359470367432)" y="0" x="0" id="text-entity-PASAJERO-1cdd0366-790a-5e0c-a119-b919639d0568-attr-5-name" class="er entityLabel">VARCHAR</text><rect height="22" width="21.5625" y="112.18359470367432" x="148.15625" class="er attributeBoxOdd"/><text style="dominant-baseline: middle; font-size: 10.2px;" transform="translate(153.15625,123.18359470367432)" y="0" x="0" id="text-entity-PASAJERO-1cdd0366-790a-5e0c-a119-b919639d0568-attr-5-key" class="er entityLabel"/><rect height="22" width="96.515625" y="134.18359470367432" x="0" class="er attributeBoxEven"/><text style="dominant-baseline: middle; font-size: 10.2px;" transform="translate(5,145.18359470367432)" y="0" x="0" id="text-entity-PASAJERO-1cdd0366-790a-5e0c-a119-b919639d0568-attr-6-type" class="er entityLabel">correo_electronico</text><rect height="22" width="51.640625" y="134.18359470367432" x="96.515625" class="er attributeBoxEven"/><text style="dominant-baseline: middle; font-size: 10.2px;" transform="translate(101.515625,145.18359470367432)" y="0" x="0" id="text-entity-PASAJERO-1cdd0366-790a-5e0c-a119-b919639d0568-attr-6-name" class="er entityLabel">VARCHAR</text><rect height="22" width="21.5625" y="134.18359470367432" x="148.15625" class="er attributeBoxEven"/><text style="dominant-baseline: middle; font-size: 10.2px;" transform="translate(153.15625,145.18359470367432)" y="0" x="0" id="text-entity-PASAJERO-1cdd0366-790a-5e0c-a119-b919639d0568-attr-6-key" class="er entityLabel"/></g><g transform="translate(416.6796875,276.18359375 )" id="entity-RESERVA-d824fe02-3045-5228-ba0d-f2063a10dd28"><rect height="134.18359565734863" width="155.3125" y="0" x="0" class="er entityBox"/><text style="dominant-baseline: middle; text-anchor: middle; font-size: 12px;" transform="translate(77.65625,12)" y="0" x="0" id="text-entity-RESERVA-d824fe02-3045-5228-ba0d-f2063a10dd28" class="er entityLabel">RESERVA</text><rect height="22" width="79.609375" y="24" x="0" class="er attributeBoxOdd"/><text style="dominant-baseline: middle; font-size: 10.2px;" transform="translate(5,35)" y="0" x="0" id="text-entity-RESERVA-d824fe02-3045-5228-ba0d-f2063a10dd28-attr-1-type" class="er entityLabel">id_reserva</text><rect height="22" width="54.140625" y="24" x="79.609375" class="er attributeBoxOdd"/><text style="dominant-baseline: middle; font-size: 10.2px;" transform="translate(84.609375,35)" y="0" x="0" id="text-entity-RESERVA-d824fe02-3045-5228-ba0d-f2063a10dd28-attr-1-name" class="er entityLabel">INT</text><rect height="22" width="21.5625" y="24" x="133.75" class="er attributeBoxOdd"/><text style="dominant-baseline: middle; font-size: 10.2px;" transform="translate(138.75,35)" y="0" x="0" id="text-entity-RESERVA-d824fe02-3045-5228-ba0d-f2063a10dd28-attr-1-key" class="er entityLabel">PK</text><rect height="22.091797828674316" width="79.609375" y="46" x="0" class="er attributeBoxEven"/><text style="dominant-baseline: middle; font-size: 10.2px;" transform="translate(5,57.04589891433716)" y="0" x="0" id="text-entity-RESERVA-d824fe02-3045-5228-ba0d-f2063a10dd28-attr-2-type" class="er entityLabel">id_pasajero</text><rect height="22.091797828674316" width="54.140625" y="46" x="79.609375" class="er attributeBoxEven"/><text style="dominant-baseline: middle; font-size: 10.2px;" transform="translate(84.609375,57.04589891433716)" y="0" x="0" id="text-entity-RESERVA-d824fe02-3045-5228-ba0d-f2063a10dd28-attr-2-name" class="er entityLabel">INT</text><rect height="22.091797828674316" width="21.5625" y="46" x="133.75" class="er attributeBoxEven"/><text style="dominant-baseline: middle; font-size: 10.2px;" transform="translate(138.75,57.04589891433716)" y="0" x="0" id="text-entity-RESERVA-d824fe02-3045-5228-ba0d-f2063a10dd28-attr-2-key" class="er entityLabel">FK</text><rect height="22" width="79.609375" y="68.09179782867432" x="0" class="er attributeBoxOdd"/><text style="dominant-baseline: middle; font-size: 10.2px;" transform="translate(5,79.09179782867432)" y="0" x="0" id="text-entity-RESERVA-d824fe02-3045-5228-ba0d-f2063a10dd28-attr-3-type" class="er entityLabel">fecha_creacion</text><rect height="22" width="54.140625" y="68.09179782867432" x="79.609375" class="er attributeBoxOdd"/><text style="dominant-baseline: middle; font-size: 10.2px;" transform="translate(84.609375,79.09179782867432)" y="0" x="0" id="text-entity-RESERVA-d824fe02-3045-5228-ba0d-f2063a10dd28-attr-3-name" class="er entityLabel">DATE</text><rect height="22" width="21.5625" y="68.09179782867432" x="133.75" class="er attributeBoxOdd"/><text style="dominant-baseline: middle; font-size: 10.2px;" transform="translate(138.75,79.09179782867432)" y="0" x="0" id="text-entity-RESERVA-d824fe02-3045-5228-ba0d-f2063a10dd28-attr-3-key" class="er entityLabel"/><rect height="22" width="79.609375" y="90.09179782867432" x="0" class="er attributeBoxEven"/><text style="dominant-baseline: middle; font-size: 10.2px;" transform="translate(5,101.09179782867432)" y="0" x="0" id="text-entity-RESERVA-d824fe02-3045-5228-ba0d-f2063a10dd28-attr-4-type" class="er entityLabel">costo</text><rect height="22" width="54.140625" y="90.09179782867432" x="79.609375" class="er attributeBoxEven"/><text style="dominant-baseline: middle; font-size: 10.2px;" transform="translate(84.609375,101.09179782867432)" y="0" x="0" id="text-entity-RESERVA-d824fe02-3045-5228-ba0d-f2063a10dd28-attr-4-name" class="er entityLabel">DECIMAL</text><rect height="22" width="21.5625" y="90.09179782867432" x="133.75" class="er attributeBoxEven"/><text style="dominant-baseline: middle; font-size: 10.2px;" transform="translate(138.75,101.09179782867432)" y="0" x="0" id="text-entity-RESERVA-d824fe02-3045-5228-ba0d-f2063a10dd28-attr-4-key" class="er entityLabel"/><rect height="22.091797828674316" width="79.609375" y="112.09179782867432" x="0" class="er attributeBoxOdd"/><text style="dominant-baseline: middle; font-size: 10.2px;" transform="translate(5,123.13769674301147)" y="0" x="0" id="text-entity-RESERVA-d824fe02-3045-5228-ba0d-f2063a10dd28-attr-5-type" class="er entityLabel">vigencia</text><rect height="22.091797828674316" width="54.140625" y="112.09179782867432" x="79.609375" class="er attributeBoxOdd"/><text style="dominant-baseline: middle; font-size: 10.2px;" transform="translate(84.609375,123.13769674301147)" y="0" x="0" id="text-entity-RESERVA-d824fe02-3045-5228-ba0d-f2063a10dd28-attr-5-name" class="er entityLabel">DATETIME</text><rect height="22.091797828674316" width="21.5625" y="112.09179782867432" x="133.75" class="er attributeBoxOdd"/><text style="dominant-baseline: middle; font-size: 10.2px;" transform="translate(138.75,123.13769674301147)" y="0" x="0" id="text-entity-RESERVA-d824fe02-3045-5228-ba0d-f2063a10dd28-attr-5-key" class="er entityLabel"/></g><g transform="translate(20,510.4130859375 )" id="entity-VUELO-802f4ad3-6df9-5710-a4b9-b1e8cfd1fc86"><rect height="156.18359470367432" width="164.609375" y="0" x="0" class="er entityBox"/><text style="dominant-baseline: middle; text-anchor: middle; font-size: 12px;" transform="translate(82.3046875,12)" y="0" x="0" id="text-entity-VUELO-802f4ad3-6df9-5710-a4b9-b1e8cfd1fc86" class="er entityLabel">VUELO</text><rect height="22" width="91.40625" y="24" x="0" class="er attributeBoxOdd"/><text style="dominant-baseline: middle; font-size: 10.2px;" transform="translate(5,35)" y="0" x="0" id="text-entity-VUELO-802f4ad3-6df9-5710-a4b9-b1e8cfd1fc86-attr-1-type" class="er entityLabel">id_vuelo</text><rect height="22" width="51.640625" y="24" x="91.40625" class="er attributeBoxOdd"/><text style="dominant-baseline: middle; font-size: 10.2px;" transform="translate(96.40625,35)" y="0" x="0" id="text-entity-VUELO-802f4ad3-6df9-5710-a4b9-b1e8cfd1fc86-attr-1-name" class="er entityLabel">INT</text><rect height="22" width="21.5625" y="24" x="143.046875" class="er attributeBoxOdd"/><text style="dominant-baseline: middle; font-size: 10.2px;" transform="translate(148.046875,35)" y="0" x="0" id="text-entity-VUELO-802f4ad3-6df9-5710-a4b9-b1e8cfd1fc86-attr-1-key" class="er entityLabel">PK</text><rect height="22.091797828674316" width="91.40625" y="46" x="0" class="er attributeBoxEven"/><text style="dominant-baseline: middle; font-size: 10.2px;" transform="translate(5,57.04589891433716)" y="0" x="0" id="text-entity-VUELO-802f4ad3-6df9-5710-a4b9-b1e8cfd1fc86-attr-2-type" class="er entityLabel">origen</text><rect height="22.091797828674316" width="51.640625" y="46" x="91.40625" class="er attributeBoxEven"/><text style="dominant-baseline: middle; font-size: 10.2px;" transform="translate(96.40625,57.04589891433716)" y="0" x="0" id="text-entity-VUELO-802f4ad3-6df9-5710-a4b9-b1e8cfd1fc86-attr-2-name" class="er entityLabel">VARCHAR</text><rect height="22.091797828674316" width="21.5625" y="46" x="143.046875" class="er attributeBoxEven"/><text style="dominant-baseline: middle; font-size: 10.2px;" transform="translate(148.046875,57.04589891433716)" y="0" x="0" id="text-entity-VUELO-802f4ad3-6df9-5710-a4b9-b1e8cfd1fc86-attr-2-key" class="er entityLabel"/><rect height="22" width="91.40625" y="68.09179782867432" x="0" class="er attributeBoxOdd"/><text style="dominant-baseline: middle; font-size: 10.2px;" transform="translate(5,79.09179782867432)" y="0" x="0" id="text-entity-VUELO-802f4ad3-6df9-5710-a4b9-b1e8cfd1fc86-attr-3-type" class="er entityLabel">destino</text><rect height="22" width="51.640625" y="68.09179782867432" x="91.40625" class="er attributeBoxOdd"/><text style="dominant-baseline: middle; font-size: 10.2px;" transform="translate(96.40625,79.09179782867432)" y="0" x="0" id="text-entity-VUELO-802f4ad3-6df9-5710-a4b9-b1e8cfd1fc86-attr-3-name" class="er entityLabel">VARCHAR</text><rect height="22" width="21.5625" y="68.09179782867432" x="143.046875" class="er attributeBoxOdd"/><text style="dominant-baseline: middle; font-size: 10.2px;" transform="translate(148.046875,79.09179782867432)" y="0" x="0" id="text-entity-VUELO-802f4ad3-6df9-5710-a4b9-b1e8cfd1fc86-attr-3-key" class="er entityLabel"/><rect height="22" width="91.40625" y="90.09179782867432" x="0" class="er attributeBoxEven"/><text style="dominant-baseline: middle; font-size: 10.2px;" transform="translate(5,101.09179782867432)" y="0" x="0" id="text-entity-VUELO-802f4ad3-6df9-5710-a4b9-b1e8cfd1fc86-attr-4-type" class="er entityLabel">fecha_salida</text><rect height="22" width="51.640625" y="90.09179782867432" x="91.40625" class="er attributeBoxEven"/><text style="dominant-baseline: middle; font-size: 10.2px;" transform="translate(96.40625,101.09179782867432)" y="0" x="0" id="text-entity-VUELO-802f4ad3-6df9-5710-a4b9-b1e8cfd1fc86-attr-4-name" class="er entityLabel">DATE</text><rect height="22" width="21.5625" y="90.09179782867432" x="143.046875" class="er attributeBoxEven"/><text style="dominant-baseline: middle; font-size: 10.2px;" transform="translate(148.046875,101.09179782867432)" y="0" x="0" id="text-entity-VUELO-802f4ad3-6df9-5710-a4b9-b1e8cfd1fc86-attr-4-key" class="er entityLabel"/><rect height="22" width="91.40625" y="112.09179782867432" x="0" class="er attributeBoxOdd"/><text style="dominant-baseline: middle; font-size: 10.2px;" transform="translate(5,123.09179782867432)" y="0" x="0" id="text-entity-VUELO-802f4ad3-6df9-5710-a4b9-b1e8cfd1fc86-attr-5-type" class="er entityLabel">hora_salida</text><rect height="22" width="51.640625" y="112.09179782867432" x="91.40625" class="er attributeBoxOdd"/><text style="dominant-baseline: middle; font-size: 10.2px;" transform="translate(96.40625,123.09179782867432)" y="0" x="0" id="text-entity-VUELO-802f4ad3-6df9-5710-a4b9-b1e8cfd1fc86-attr-5-name" class="er entityLabel">TIME</text><rect height="22" width="21.5625" y="112.09179782867432" x="143.046875" class="er attributeBoxOdd"/><text style="dominant-baseline: middle; font-size: 10.2px;" transform="translate(148.046875,123.09179782867432)" y="0" x="0" id="text-entity-VUELO-802f4ad3-6df9-5710-a4b9-b1e8cfd1fc86-attr-5-key" class="er entityLabel"/><rect height="22.091796875" width="91.40625" y="134.09179782867432" x="0" class="er attributeBoxEven"/><text style="dominant-baseline: middle; font-size: 10.2px;" transform="translate(5,145.13769626617432)" y="0" x="0" id="text-entity-VUELO-802f4ad3-6df9-5710-a4b9-b1e8cfd1fc86-attr-6-type" class="er entityLabel">puerta_embarque</text><rect height="22.091796875" width="51.640625" y="134.09179782867432" x="91.40625" class="er attributeBoxEven"/><text style="dominant-baseline: middle; font-size: 10.2px;" transform="translate(96.40625,145.13769626617432)" y="0" x="0" id="text-entity-VUELO-802f4ad3-6df9-5710-a4b9-b1e8cfd1fc86-attr-6-name" class="er entityLabel">VARCHAR</text><rect height="22.091796875" width="21.5625" y="134.09179782867432" x="143.046875" class="er attributeBoxEven"/><text style="dominant-baseline: middle; font-size: 10.2px;" transform="translate(148.046875,145.13769626617432)" y="0" x="0" id="text-entity-VUELO-802f4ad3-6df9-5710-a4b9-b1e8cfd1fc86-attr-6-key" class="er entityLabel"/></g><g transform="translate(284.609375,510.4130859375 )" id="entity-ASIENTO-ea1d5011-a11b-57e0-90c9-85e11d009a4d"><rect height="156.18359470367432" width="157.265625" y="0" x="0" class="er entityBox"/><text style="dominant-baseline: middle; text-anchor: middle; font-size: 12px;" transform="translate(78.6328125,12)" y="0" x="0" id="text-entity-ASIENTO-ea1d5011-a11b-57e0-90c9-85e11d009a4d" class="er entityLabel">ASIENTO</text><rect height="22" width="83.015625" y="24" x="0" class="er attributeBoxOdd"/><text style="dominant-baseline: middle; font-size: 10.2px;" transform="translate(5,35)" y="0" x="0" id="text-entity-ASIENTO-ea1d5011-a11b-57e0-90c9-85e11d009a4d-attr-1-type" class="er entityLabel">id_asiento</text><rect height="22" width="52.6875" y="24" x="83.015625" class="er attributeBoxOdd"/><text style="dominant-baseline: middle; font-size: 10.2px;" transform="translate(88.015625,35)" y="0" x="0" id="text-entity-ASIENTO-ea1d5011-a11b-57e0-90c9-85e11d009a4d-attr-1-name" class="er entityLabel">INT</text><rect height="22" width="21.5625" y="24" x="135.703125" class="er attributeBoxOdd"/><text style="dominant-baseline: middle; font-size: 10.2px;" transform="translate(140.703125,35)" y="0" x="0" id="text-entity-ASIENTO-ea1d5011-a11b-57e0-90c9-85e11d009a4d-attr-1-key" class="er entityLabel">PK</text><rect height="22" width="83.015625" y="46" x="0" class="er attributeBoxEven"/><text style="dominant-baseline: middle; font-size: 10.2px;" transform="translate(5,57)" y="0" x="0" id="text-entity-ASIENTO-ea1d5011-a11b-57e0-90c9-85e11d009a4d-attr-2-type" class="er entityLabel">id_vuelo</text><rect height="22" width="52.6875" y="46" x="83.015625" class="er attributeBoxEven"/><text style="dominant-baseline: middle; font-size: 10.2px;" transform="translate(88.015625,57)" y="0" x="0" id="text-entity-ASIENTO-ea1d5011-a11b-57e0-90c9-85e11d009a4d-attr-2-name" class="er entityLabel">INT</text><rect height="22" width="21.5625" y="46" x="135.703125" class="er attributeBoxEven"/><text style="dominant-baseline: middle; font-size: 10.2px;" transform="translate(140.703125,57)" y="0" x="0" id="text-entity-ASIENTO-ea1d5011-a11b-57e0-90c9-85e11d009a4d-attr-2-key" class="er entityLabel">FK</text><rect height="22" width="83.015625" y="68" x="0" class="er attributeBoxOdd"/><text style="dominant-baseline: middle; font-size: 10.2px;" transform="translate(5,79)" y="0" x="0" id="text-entity-ASIENTO-ea1d5011-a11b-57e0-90c9-85e11d009a4d-attr-3-type" class="er entityLabel">numero_asiento</text><rect height="22" width="52.6875" y="68" x="83.015625" class="er attributeBoxOdd"/><text style="dominant-baseline: middle; font-size: 10.2px;" transform="translate(88.015625,79)" y="0" x="0" id="text-entity-ASIENTO-ea1d5011-a11b-57e0-90c9-85e11d009a4d-attr-3-name" class="er entityLabel">VARCHAR</text><rect height="22" width="21.5625" y="68" x="135.703125" class="er attributeBoxOdd"/><text style="dominant-baseline: middle; font-size: 10.2px;" transform="translate(140.703125,79)" y="0" x="0" id="text-entity-ASIENTO-ea1d5011-a11b-57e0-90c9-85e11d009a4d-attr-3-key" class="er entityLabel"/><rect height="22.091797828674316" width="83.015625" y="90" x="0" class="er attributeBoxEven"/><text style="dominant-baseline: middle; font-size: 10.2px;" transform="translate(5,101.04589891433716)" y="0" x="0" id="text-entity-ASIENTO-ea1d5011-a11b-57e0-90c9-85e11d009a4d-attr-4-type" class="er entityLabel">tipo_asiento</text><rect height="22.091797828674316" width="52.6875" y="90" x="83.015625" class="er attributeBoxEven"/><text style="dominant-baseline: middle; font-size: 10.2px;" transform="translate(88.015625,101.04589891433716)" y="0" x="0" id="text-entity-ASIENTO-ea1d5011-a11b-57e0-90c9-85e11d009a4d-attr-4-name" class="er entityLabel">VARCHAR</text><rect height="22.091797828674316" width="21.5625" y="90" x="135.703125" class="er attributeBoxEven"/><text style="dominant-baseline: middle; font-size: 10.2px;" transform="translate(140.703125,101.04589891433716)" y="0" x="0" id="text-entity-ASIENTO-ea1d5011-a11b-57e0-90c9-85e11d009a4d-attr-4-key" class="er entityLabel"/><rect height="22" width="83.015625" y="112.09179782867432" x="0" class="er attributeBoxOdd"/><text style="dominant-baseline: middle; font-size: 10.2px;" transform="translate(5,123.09179782867432)" y="0" x="0" id="text-entity-ASIENTO-ea1d5011-a11b-57e0-90c9-85e11d009a4d-attr-5-type" class="er entityLabel">costo_extra</text><rect height="22" width="52.6875" y="112.09179782867432" x="83.015625" class="er attributeBoxOdd"/><text style="dominant-baseline: middle; font-size: 10.2px;" transform="translate(88.015625,123.09179782867432)" y="0" x="0" id="text-entity-ASIENTO-ea1d5011-a11b-57e0-90c9-85e11d009a4d-attr-5-name" class="er entityLabel">DECIMAL</text><rect height="22" width="21.5625" y="112.09179782867432" x="135.703125" class="er attributeBoxOdd"/><text style="dominant-baseline: middle; font-size: 10.2px;" transform="translate(140.703125,123.09179782867432)" y="0" x="0" id="text-entity-ASIENTO-ea1d5011-a11b-57e0-90c9-85e11d009a4d-attr-5-key" class="er entityLabel"/><rect height="22.091796875" width="83.015625" y="134.09179782867432" x="0" class="er attributeBoxEven"/><text style="dominant-baseline: middle; font-size: 10.2px;" transform="translate(5,145.13769626617432)" y="0" x="0" id="text-entity-ASIENTO-ea1d5011-a11b-57e0-90c9-85e11d009a4d-attr-6-type" class="er entityLabel">ocupado</text><rect height="22.091796875" width="52.6875" y="134.09179782867432" x="83.015625" class="er attributeBoxEven"/><text style="dominant-baseline: middle; font-size: 10.2px;" transform="translate(88.015625,145.13769626617432)" y="0" x="0" id="text-entity-ASIENTO-ea1d5011-a11b-57e0-90c9-85e11d009a4d-attr-6-name" class="er entityLabel">BOOLEAN</text><rect height="22.091796875" width="21.5625" y="134.09179782867432" x="135.703125" class="er attributeBoxEven"/><text style="dominant-baseline: middle; font-size: 10.2px;" transform="translate(140.703125,145.13769626617432)" y="0" x="0" id="text-entity-ASIENTO-ea1d5011-a11b-57e0-90c9-85e11d009a4d-attr-6-key" class="er entityLabel"/></g><g transform="translate(541.875,510.3671875 )" id="entity-TARJETADEEMBARQUE-e9ae0741-f69a-5870-8ac0-bda157eef59e"><rect height="156.27539157867432" width="167.109375" y="0" x="0" class="er entityBox"/><text style="dominant-baseline: middle; text-anchor: middle; font-size: 12px;" transform="translate(83.5546875,12)" y="0" x="0" id="text-entity-TARJETADEEMBARQUE-e9ae0741-f69a-5870-8ac0-bda157eef59e" class="er entityLabel">TARJETA_DE_EMBARQUE</text><rect height="22.091797828674316" width="91.40625" y="24" x="0" class="er attributeBoxOdd"/><text style="dominant-baseline: middle; font-size: 10.2px;" transform="translate(5,35.04589891433716)" y="0" x="0" id="text-entity-TARJETADEEMBARQUE-e9ae0741-f69a-5870-8ac0-bda157eef59e-attr-1-type" class="er entityLabel">id_tarjeta</text><rect height="22.091797828674316" width="54.140625" y="24" x="91.40625" class="er attributeBoxOdd"/><text style="dominant-baseline: middle; font-size: 10.2px;" transform="translate(96.40625,35.04589891433716)" y="0" x="0" id="text-entity-TARJETADEEMBARQUE-e9ae0741-f69a-5870-8ac0-bda157eef59e-attr-1-name" class="er entityLabel">INT</text><rect height="22.091797828674316" width="21.5625" y="24" x="145.546875" class="er attributeBoxOdd"/><text style="dominant-baseline: middle; font-size: 10.2px;" transform="translate(150.546875,35.04589891433716)" y="0" x="0" id="text-entity-TARJETADEEMBARQUE-e9ae0741-f69a-5870-8ac0-bda157eef59e-attr-1-key" class="er entityLabel">PK</text><rect height="22" width="91.40625" y="46.091797828674316" x="0" class="er attributeBoxEven"/><text style="dominant-baseline: middle; font-size: 10.2px;" transform="translate(5,57.091797828674316)" y="0" x="0" id="text-entity-TARJETADEEMBARQUE-e9ae0741-f69a-5870-8ac0-bda157eef59e-attr-2-type" class="er entityLabel">id_reserva</text><rect height="22" width="54.140625" y="46.091797828674316" x="91.40625" class="er attributeBoxEven"/><text style="dominant-baseline: middle; font-size: 10.2px;" transform="translate(96.40625,57.091797828674316)" y="0" x="0" id="text-entity-TARJETADEEMBARQUE-e9ae0741-f69a-5870-8ac0-bda157eef59e-attr-2-name" class="er entityLabel">INT</text><rect height="22" width="21.5625" y="46.091797828674316" x="145.546875" class="er attributeBoxEven"/><text style="dominant-baseline: middle; font-size: 10.2px;" transform="translate(150.546875,57.091797828674316)" y="0" x="0" id="text-entity-TARJETADEEMBARQUE-e9ae0741-f69a-5870-8ac0-bda157eef59e-attr-2-key" class="er entityLabel">FK</text><rect height="22" width="91.40625" y="68.09179782867432" x="0" class="er attributeBoxOdd"/><text style="dominant-baseline: middle; font-size: 10.2px;" transform="translate(5,79.09179782867432)" y="0" x="0" id="text-entity-TARJETADEEMBARQUE-e9ae0741-f69a-5870-8ac0-bda157eef59e-attr-3-type" class="er entityLabel">id_asiento</text><rect height="22" width="54.140625" y="68.09179782867432" x="91.40625" class="er attributeBoxOdd"/><text style="dominant-baseline: middle; font-size: 10.2px;" transform="translate(96.40625,79.09179782867432)" y="0" x="0" id="text-entity-TARJETADEEMBARQUE-e9ae0741-f69a-5870-8ac0-bda157eef59e-attr-3-name" class="er entityLabel">INT</text><rect height="22" width="21.5625" y="68.09179782867432" x="145.546875" class="er attributeBoxOdd"/><text style="dominant-baseline: middle; font-size: 10.2px;" transform="translate(150.546875,79.09179782867432)" y="0" x="0" id="text-entity-TARJETADEEMBARQUE-e9ae0741-f69a-5870-8ac0-bda157eef59e-attr-3-key" class="er entityLabel">FK</text><rect height="22" width="91.40625" y="90.09179782867432" x="0" class="er attributeBoxEven"/><text style="dominant-baseline: middle; font-size: 10.2px;" transform="translate(5,101.09179782867432)" y="0" x="0" id="text-entity-TARJETADEEMBARQUE-e9ae0741-f69a-5870-8ac0-bda157eef59e-attr-4-type" class="er entityLabel">fecha_emision</text><rect height="22" width="54.140625" y="90.09179782867432" x="91.40625" class="er attributeBoxEven"/><text style="dominant-baseline: middle; font-size: 10.2px;" transform="translate(96.40625,101.09179782867432)" y="0" x="0" id="text-entity-TARJETADEEMBARQUE-e9ae0741-f69a-5870-8ac0-bda157eef59e-attr-4-name" class="er entityLabel">DATETIME</text><rect height="22" width="21.5625" y="90.09179782867432" x="145.546875" class="er attributeBoxEven"/><text style="dominant-baseline: middle; font-size: 10.2px;" transform="translate(150.546875,101.09179782867432)" y="0" x="0" id="text-entity-TARJETADEEMBARQUE-e9ae0741-f69a-5870-8ac0-bda157eef59e-attr-4-key" class="er entityLabel"/><rect height="22.091796875" width="91.40625" y="112.09179782867432" x="0" class="er attributeBoxOdd"/><text style="dominant-baseline: middle; font-size: 10.2px;" transform="translate(5,123.13769626617432)" y="0" x="0" id="text-entity-TARJETADEEMBARQUE-e9ae0741-f69a-5870-8ac0-bda157eef59e-attr-5-type" class="er entityLabel">puerta_embarque</text><rect height="22.091796875" width="54.140625" y="112.09179782867432" x="91.40625" class="er attributeBoxOdd"/><text style="dominant-baseline: middle; font-size: 10.2px;" transform="translate(96.40625,123.13769626617432)" y="0" x="0" id="text-entity-TARJETADEEMBARQUE-e9ae0741-f69a-5870-8ac0-bda157eef59e-attr-5-name" class="er entityLabel">VARCHAR</text><rect height="22.091796875" width="21.5625" y="112.09179782867432" x="145.546875" class="er attributeBoxOdd"/><text style="dominant-baseline: middle; font-size: 10.2px;" transform="translate(150.546875,123.13769626617432)" y="0" x="0" id="text-entity-TARJETADEEMBARQUE-e9ae0741-f69a-5870-8ac0-bda157eef59e-attr-5-key" class="er entityLabel"/><rect height="22.091796875" width="91.40625" y="134.18359470367432" x="0" class="er attributeBoxEven"/><text style="dominant-baseline: middle; font-size: 10.2px;" transform="translate(5,145.22949314117432)" y="0" x="0" id="text-entity-TARJETADEEMBARQUE-e9ae0741-f69a-5870-8ac0-bda157eef59e-attr-6-type" class="er entityLabel">hora_embarque</text><rect height="22.091796875" width="54.140625" y="134.18359470367432" x="91.40625" class="er attributeBoxEven"/><text style="dominant-baseline: middle; font-size: 10.2px;" transform="translate(96.40625,145.22949314117432)" y="0" x="0" id="text-entity-TARJETADEEMBARQUE-e9ae0741-f69a-5870-8ac0-bda157eef59e-attr-6-name" class="er entityLabel">TIME</text><rect height="22.091796875" width="21.5625" y="134.18359470367432" x="145.546875" class="er attributeBoxEven"/><text style="dominant-baseline: middle; font-size: 10.2px;" transform="translate(150.546875,145.22949314117432)" y="0" x="0" id="text-entity-TARJETADEEMBARQUE-e9ae0741-f69a-5870-8ac0-bda157eef59e-attr-6-key" class="er entityLabel"/></g><g transform="translate(808.984375,532.4130859375 )" id="entity-METODODEPAGO-67bd076b-f1bd-5afc-b5e2-9048d69cc39e"><rect height="112.18359375" width="150.265625" y="0" x="0" class="er entityBox"/><text style="dominant-baseline: middle; text-anchor: middle; font-size: 12px;" transform="translate(75.1328125,12)" y="0" x="0" id="text-entity-METODODEPAGO-67bd076b-f1bd-5afc-b5e2-9048d69cc39e" class="er entityLabel">METODO_DE_PAGO</text><rect height="22.091796875" width="77.0625" y="24" x="0" class="er attributeBoxOdd"/><text style="dominant-baseline: middle; font-size: 10.2px;" transform="translate(5,35.0458984375)" y="0" x="0" id="text-entity-METODODEPAGO-67bd076b-f1bd-5afc-b5e2-9048d69cc39e-attr-1-type" class="er entityLabel">id_pago</text><rect height="22.091796875" width="51.640625" y="24" x="77.0625" class="er attributeBoxOdd"/><text style="dominant-baseline: middle; font-size: 10.2px;" transform="translate(82.0625,35.0458984375)" y="0" x="0" id="text-entity-METODODEPAGO-67bd076b-f1bd-5afc-b5e2-9048d69cc39e-attr-1-name" class="er entityLabel">INT</text><rect height="22.091796875" width="21.5625" y="24" x="128.703125" class="er attributeBoxOdd"/><text style="dominant-baseline: middle; font-size: 10.2px;" transform="translate(133.703125,35.0458984375)" y="0" x="0" id="text-entity-METODODEPAGO-67bd076b-f1bd-5afc-b5e2-9048d69cc39e-attr-1-key" class="er entityLabel">PK</text><rect height="22" width="77.0625" y="46.091796875" x="0" class="er attributeBoxEven"/><text style="dominant-baseline: middle; font-size: 10.2px;" transform="translate(5,57.091796875)" y="0" x="0" id="text-entity-METODODEPAGO-67bd076b-f1bd-5afc-b5e2-9048d69cc39e-attr-2-type" class="er entityLabel">id_reserva</text><rect height="22" width="51.640625" y="46.091796875" x="77.0625" class="er attributeBoxEven"/><text style="dominant-baseline: middle; font-size: 10.2px;" transform="translate(82.0625,57.091796875)" y="0" x="0" id="text-entity-METODODEPAGO-67bd076b-f1bd-5afc-b5e2-9048d69cc39e-attr-2-name" class="er entityLabel">INT</text><rect height="22" width="21.5625" y="46.091796875" x="128.703125" class="er attributeBoxEven"/><text style="dominant-baseline: middle; font-size: 10.2px;" transform="translate(133.703125,57.091796875)" y="0" x="0" id="text-entity-METODODEPAGO-67bd076b-f1bd-5afc-b5e2-9048d69cc39e-attr-2-key" class="er entityLabel">FK</text><rect height="22" width="77.0625" y="68.091796875" x="0" class="er attributeBoxOdd"/><text style="dominant-baseline: middle; font-size: 10.2px;" transform="translate(5,79.091796875)" y="0" x="0" id="text-entity-METODODEPAGO-67bd076b-f1bd-5afc-b5e2-9048d69cc39e-attr-3-type" class="er entityLabel">metodo</text><rect height="22" width="51.640625" y="68.091796875" x="77.0625" class="er attributeBoxOdd"/><text style="dominant-baseline: middle; font-size: 10.2px;" transform="translate(82.0625,79.091796875)" y="0" x="0" id="text-entity-METODODEPAGO-67bd076b-f1bd-5afc-b5e2-9048d69cc39e-attr-3-name" class="er entityLabel">VARCHAR</text><rect height="22" width="21.5625" y="68.091796875" x="128.703125" class="er attributeBoxOdd"/><text style="dominant-baseline: middle; font-size: 10.2px;" transform="translate(133.703125,79.091796875)" y="0" x="0" id="text-entity-METODODEPAGO-67bd076b-f1bd-5afc-b5e2-9048d69cc39e-attr-3-key" class="er entityLabel"/><rect height="22.091796875" width="77.0625" y="90.091796875" x="0" class="er attributeBoxEven"/><text style="dominant-baseline: middle; font-size: 10.2px;" transform="translate(5,101.1376953125)" y="0" x="0" id="text-entity-METODODEPAGO-67bd076b-f1bd-5afc-b5e2-9048d69cc39e-attr-4-type" class="er entityLabel">monto_pagado</text><rect height="22.091796875" width="51.640625" y="90.091796875" x="77.0625" class="er attributeBoxEven"/><text style="dominant-baseline: middle; font-size: 10.2px;" transform="translate(82.0625,101.1376953125)" y="0" x="0" id="text-entity-METODODEPAGO-67bd076b-f1bd-5afc-b5e2-9048d69cc39e-attr-4-name" class="er entityLabel">DECIMAL</text><rect height="22.091796875" width="21.5625" y="90.091796875" x="128.703125" class="er attributeBoxEven"/><text style="dominant-baseline: middle; font-size: 10.2px;" transform="translate(133.703125,101.1376953125)" y="0" x="0" id="text-entity-METODODEPAGO-67bd076b-f1bd-5afc-b5e2-9048d69cc39e-attr-4-key" class="er entityLabel"/></g><rect height="14" width="27.828125" y="219.18399047851562" x="480.42193603515625" class="er relationshipLabelBox"/><text style="text-anchor: middle; dominant-baseline: middle; font-size: 12px;" y="226.18399047851562" x="494.33599853515625" id="rel1" class="er relationshipLabel">tiene</text><rect height="14" width="27.828125" y="412.35888671875" x="230.6812286376953" class="er relationshipLabelBox"/><text style="text-anchor: middle; dominant-baseline: middle; font-size: 12px;" y="419.35888671875" x="244.5952911376953" id="rel2" class="er relationshipLabel">tiene</text><rect height="14" width="27.828125" y="446.1556701660156" x="363.2427062988281" class="er relationshipLabelBox"/><text style="text-anchor: middle; dominant-baseline: middle; font-size: 12px;" y="453.1556701660156" x="377.1567687988281" id="rel3" class="er relationshipLabel">tiene</text><rect height="14" width="27.828125" y="446.1360168457031" x="597.5907592773438" class="er relationshipLabelBox"/><text style="text-anchor: middle; dominant-baseline: middle; font-size: 12px;" y="453.1360168457031" x="611.5048217773438" id="rel4" class="er relationshipLabel">tiene</text><rect height="14" width="87.375" y="415.8170471191406" x="706.93115234375" class="er relationshipLabelBox"/><text style="text-anchor: middle; dominant-baseline: middle; font-size: 12px;" y="422.8170471191406" x="750.61865234375" id="rel5" class="er relationshipLabel">fue_pagada_con</text></svg>