<svg aria-roledescription="er" role="graphics-document document" viewBox="-102.90209197998047 0 677.233154296875 709.560546875" style="max-width: 677.233px; background-color: white;" xmlns:xlink="http://www.w3.org/1999/xlink" xmlns="http://www.w3.org/2000/svg" width="100%" id="my-svg"><style>#my-svg{font-family:"trebuchet ms",verdana,arial,sans-serif;font-size:16px;fill:#333;}#my-svg .error-icon{fill:#552222;}#my-svg .error-text{fill:#552222;stroke:#552222;}#my-svg .edge-thickness-normal{stroke-width:1px;}#my-svg .edge-thickness-thick{stroke-width:3.5px;}#my-svg .edge-pattern-solid{stroke-dasharray:0;}#my-svg .edge-thickness-invisible{stroke-width:0;fill:none;}#my-svg .edge-pattern-dashed{stroke-dasharray:3;}#my-svg .edge-pattern-dotted{stroke-dasharray:2;}#my-svg .marker{fill:#333333;stroke:#333333;}#my-svg .marker.cross{stroke:#333333;}#my-svg svg{font-family:"trebuchet ms",verdana,arial,sans-serif;font-size:16px;}#my-svg p{margin:0;}#my-svg .entityBox{fill:#ECECFF;stroke:#9370DB;}#my-svg .attributeBoxOdd{fill:#ffffff;stroke:#9370DB;}#my-svg .attributeBoxEven{fill:#f2f2f2;stroke:#9370DB;}#my-svg .relationshipLabelBox{fill:hsl(80, 100%, 96.2745098039%);opacity:0.7;background-color:hsl(80, 100%, 96.2745098039%);}#my-svg .relationshipLabelBox rect{opacity:0.5;}#my-svg .relationshipLine{stroke:#333333;}#my-svg .entityTitleText{text-anchor:middle;font-size:18px;fill:#333;}#my-svg #MD_PARENT_START{fill:#f5f5f5!important;stroke:#333333!important;stroke-width:1;}#my-svg #MD_PARENT_END{fill:#f5f5f5!important;stroke:#333333!important;stroke-width:1;}#my-svg :root{--mermaid-font-family:"trebuchet ms",verdana,arial,sans-serif;}</style><g/><defs><marker orient="auto" markerHeight="240" markerWidth="190" refY="7" refX="0" id="MD_PARENT_START"><path d="M 18,7 L9,13 L1,7 L9,1 Z"/></marker></defs><defs><marker orient="auto" markerHeight="28" markerWidth="20" refY="7" refX="19" id="MD_PARENT_END"><path d="M 18,7 L9,13 L1,7 L9,1 Z"/></marker></defs><defs><marker orient="auto" markerHeight="18" markerWidth="18" refY="9" refX="0" id="ONLY_ONE_START"><path d="M9,0 L9,18 M15,0 L15,18" fill="none" stroke="gray"/></marker></defs><defs><marker orient="auto" markerHeight="18" markerWidth="18" refY="9" refX="18" id="ONLY_ONE_END"><path d="M3,0 L3,18 M9,0 L9,18" fill="none" stroke="gray"/></marker></defs><defs><marker orient="auto" markerHeight="18" markerWidth="30" refY="9" refX="0" id="ZERO_OR_ONE_START"><circle r="6" cy="9" cx="21" fill="white" stroke="gray"/><path d="M9,0 L9,18" fill="none" stroke="gray"/></marker></defs><defs><marker orient="auto" markerHeight="18" markerWidth="30" refY="9" refX="30" id="ZERO_OR_ONE_END"><circle r="6" cy="9" cx="9" fill="white" stroke="gray"/><path d="M21,0 L21,18" fill="none" stroke="gray"/></marker></defs><defs><marker orient="auto" markerHeight="36" markerWidth="45" refY="18" refX="18" id="ONE_OR_MORE_START"><path d="M0,18 Q 18,0 36,18 Q 18,36 0,18 M42,9 L42,27" fill="none" stroke="gray"/></marker></defs><defs><marker orient="auto" markerHeight="36" markerWidth="45" refY="18" refX="27" id="ONE_OR_MORE_END"><path d="M3,9 L3,27 M9,18 Q27,0 45,18 Q27,36 9,18" fill="none" stroke="gray"/></marker></defs><defs><marker orient="auto" markerHeight="36" markerWidth="57" refY="18" refX="18" id="ZERO_OR_MORE_START"><circle r="6" cy="18" cx="48" fill="white" stroke="gray"/><path d="M0,18 Q18,0 36,18 Q18,36 0,18" fill="none" stroke="gray"/></marker></defs><defs><marker orient="auto" markerHeight="36" markerWidth="57" refY="18" refX="39" id="ZERO_OR_MORE_END"><circle r="6" cy="18" cx="9" fill="white" stroke="gray"/><path d="M21,18 Q39,0 57,18 Q39,36 21,18" fill="none" stroke="gray"/></marker></defs><path style="stroke: gray; fill: none;" marker-start="url(#ONLY_ONE_START)" marker-end="url(#ZERO_OR_MORE_END)" d="M152.391,154.761L175.185,170.408C197.979,186.055,243.567,217.349,266.361,248.693C289.155,280.037,289.155,311.432,289.155,327.129L289.155,342.826" class="er relationshipLine"/><path style="stroke: gray; fill: none;" marker-start="url(#ONLY_ONE_START)" marker-end="url(#ZERO_OR_MORE_END)" d="M20,169.614L5.539,182.786C-8.922,195.957,-37.843,222.3,-52.304,256.85C-66.765,291.401,-66.765,334.16,-66.765,376.918C-66.765,419.676,-66.765,462.435,-47.838,496.301C-28.912,530.166,8.94,555.139,27.867,567.626L46.793,580.112" class="er relationshipLine"/><path style="stroke: gray; fill: none;" marker-start="url(#ONLY_ONE_START)" marker-end="url(#ZERO_OR_MORE_END)" d="M86.195,198.643L86.195,206.976C86.195,215.309,86.195,231.976,86.195,248.643C86.195,265.309,86.195,281.976,86.195,290.309L86.195,298.643" class="er relationshipLine"/><path style="stroke: gray; fill: none;" marker-start="url(#ONLY_ONE_START)" marker-end="url(#ONE_OR_MORE_END)" d="M289.155,411.01L289.155,426.707C289.155,442.404,289.155,473.799,270.116,502.009C251.076,530.22,212.997,555.247,193.958,567.76L174.918,580.273" class="er relationshipLine"/><path style="stroke: gray; fill: none;" marker-start="url(#ONLY_ONE_START)" marker-end="url(#ZERO_OR_MORE_END)" d="M499.87,444.147L499.87,454.322C499.87,464.496,499.87,484.845,499.87,505.186C499.87,525.527,499.87,545.86,499.87,556.027L499.87,566.193" class="er relationshipLine"/><path style="stroke: gray; fill: none;" marker-start="url(#ONLY_ONE_START)" marker-end="url(#ZERO_OR_MORE_END)" d="M499.87,143.413L499.87,160.951C499.87,178.49,499.87,213.566,499.87,241.279C499.87,268.991,499.87,289.34,499.87,299.514L499.87,309.688" class="er relationshipLine"/><g transform="translate(20,20 )" id="entity-Employee-c527a5e7-c82f-5591-9a78-fbfc19a3c96b"><rect height="178.64258480072021" width="132.390625" y="0" x="0" class="er entityBox"/><text style="dominant-baseline: middle; text-anchor: middle; font-size: 12px;" transform="translate(66.1953125,12)" y="0" x="0" id="text-entity-Employee-c527a5e7-c82f-5591-9a78-fbfc19a3c96b" class="er entityLabel">Employee</text><rect height="22.091797828674316" width="35.75" y="24" x="0" class="er attributeBoxOdd"/><text style="dominant-baseline: middle; font-size: 10.2px;" transform="translate(5,35.04589891433716)" y="0" x="0" id="text-entity-Employee-c527a5e7-c82f-5591-9a78-fbfc19a3c96b-attr-1-type" class="er entityLabel">string</text><rect height="22.091797828674316" width="96.640625" y="24" x="35.75" class="er attributeBoxOdd"/><text style="dominant-baseline: middle; font-size: 10.2px;" transform="translate(40.75,35.04589891433716)" y="0" x="0" id="text-entity-Employee-c527a5e7-c82f-5591-9a78-fbfc19a3c96b-attr-1-name" class="er entityLabel">employeeId</text><rect height="22.091797828674316" width="35.75" y="46.091797828674316" x="0" class="er attributeBoxEven"/><text style="dominant-baseline: middle; font-size: 10.2px;" transform="translate(5,57.137696743011475)" y="0" x="0" id="text-entity-Employee-c527a5e7-c82f-5591-9a78-fbfc19a3c96b-attr-2-type" class="er entityLabel">string</text><rect height="22.091797828674316" width="96.640625" y="46.091797828674316" x="35.75" class="er attributeBoxEven"/><text style="dominant-baseline: middle; font-size: 10.2px;" transform="translate(40.75,57.137696743011475)" y="0" x="0" id="text-entity-Employee-c527a5e7-c82f-5591-9a78-fbfc19a3c96b-attr-2-name" class="er entityLabel">firstName</text><rect height="22.091797828674316" width="35.75" y="68.18359565734863" x="0" class="er attributeBoxOdd"/><text style="dominant-baseline: middle; font-size: 10.2px;" transform="translate(5,79.22949457168579)" y="0" x="0" id="text-entity-Employee-c527a5e7-c82f-5591-9a78-fbfc19a3c96b-attr-3-type" class="er entityLabel">string</text><rect height="22.091797828674316" width="96.640625" y="68.18359565734863" x="35.75" class="er attributeBoxOdd"/><text style="dominant-baseline: middle; font-size: 10.2px;" transform="translate(40.75,79.22949457168579)" y="0" x="0" id="text-entity-Employee-c527a5e7-c82f-5591-9a78-fbfc19a3c96b-attr-3-name" class="er entityLabel">lastName</text><rect height="22.091797828674316" width="35.75" y="90.27539348602295" x="0" class="er attributeBoxEven"/><text style="dominant-baseline: middle; font-size: 10.2px;" transform="translate(5,101.32129240036011)" y="0" x="0" id="text-entity-Employee-c527a5e7-c82f-5591-9a78-fbfc19a3c96b-attr-4-type" class="er entityLabel">string</text><rect height="22.091797828674316" width="96.640625" y="90.27539348602295" x="35.75" class="er attributeBoxEven"/><text style="dominant-baseline: middle; font-size: 10.2px;" transform="translate(40.75,101.32129240036011)" y="0" x="0" id="text-entity-Employee-c527a5e7-c82f-5591-9a78-fbfc19a3c96b-attr-4-name" class="er entityLabel">username</text><rect height="22.091797828674316" width="35.75" y="112.36719131469727" x="0" class="er attributeBoxOdd"/><text style="dominant-baseline: middle; font-size: 10.2px;" transform="translate(5,123.41309022903442)" y="0" x="0" id="text-entity-Employee-c527a5e7-c82f-5591-9a78-fbfc19a3c96b-attr-5-type" class="er entityLabel">string</text><rect height="22.091797828674316" width="96.640625" y="112.36719131469727" x="35.75" class="er attributeBoxOdd"/><text style="dominant-baseline: middle; font-size: 10.2px;" transform="translate(40.75,123.41309022903442)" y="0" x="0" id="text-entity-Employee-c527a5e7-c82f-5591-9a78-fbfc19a3c96b-attr-5-name" class="er entityLabel">password</text><rect height="22.091797828674316" width="35.75" y="134.45898914337158" x="0" class="er attributeBoxEven"/><text style="dominant-baseline: middle; font-size: 10.2px;" transform="translate(5,145.50488805770874)" y="0" x="0" id="text-entity-Employee-c527a5e7-c82f-5591-9a78-fbfc19a3c96b-attr-6-type" class="er entityLabel">string</text><rect height="22.091797828674316" width="96.640625" y="134.45898914337158" x="35.75" class="er attributeBoxEven"/><text style="dominant-baseline: middle; font-size: 10.2px;" transform="translate(40.75,145.50488805770874)" y="0" x="0" id="text-entity-Employee-c527a5e7-c82f-5591-9a78-fbfc19a3c96b-attr-6-name" class="er entityLabel">email</text><rect height="22.091797828674316" width="35.75" y="156.5507869720459" x="0" class="er attributeBoxOdd"/><text style="dominant-baseline: middle; font-size: 10.2px;" transform="translate(5,167.59668588638306)" y="0" x="0" id="text-entity-Employee-c527a5e7-c82f-5591-9a78-fbfc19a3c96b-attr-7-type" class="er entityLabel">string</text><rect height="22.091797828674316" width="96.640625" y="156.5507869720459" x="35.75" class="er attributeBoxOdd"/><text style="dominant-baseline: middle; font-size: 10.2px;" transform="translate(40.75,167.59668588638306)" y="0" x="0" id="text-entity-Employee-c527a5e7-c82f-5591-9a78-fbfc19a3c96b-attr-7-name" class="er entityLabel">employeeMealCard</text></g><g transform="translate(239.1552734375,342.826171875 )" id="entity-Order-3ec22774-e93b-529c-bc12-1dfdb28f8e64"><rect height="68.18359565734863" width="100" y="0" x="0" class="er entityBox"/><text style="dominant-baseline: middle; text-anchor: middle; font-size: 12px;" transform="translate(50,12)" y="0" x="0" id="text-entity-Order-3ec22774-e93b-529c-bc12-1dfdb28f8e64" class="er entityLabel">Order</text><rect height="22.091797828674316" width="36.4375" y="24" x="0" class="er attributeBoxOdd"/><text style="dominant-baseline: middle; font-size: 10.2px;" transform="translate(5,35.04589891433716)" y="0" x="0" id="text-entity-Order-3ec22774-e93b-529c-bc12-1dfdb28f8e64-attr-1-type" class="er entityLabel">string</text><rect height="22.091797828674316" width="63.5625" y="24" x="36.4375" class="er attributeBoxOdd"/><text style="dominant-baseline: middle; font-size: 10.2px;" transform="translate(41.4375,35.04589891433716)" y="0" x="0" id="text-entity-Order-3ec22774-e93b-529c-bc12-1dfdb28f8e64-attr-1-name" class="er entityLabel">orderId</text><rect height="22.091797828674316" width="36.4375" y="46.091797828674316" x="0" class="er attributeBoxEven"/><text style="dominant-baseline: middle; font-size: 10.2px;" transform="translate(5,57.137696743011475)" y="0" x="0" id="text-entity-Order-3ec22774-e93b-529c-bc12-1dfdb28f8e64-attr-2-type" class="er entityLabel">string</text><rect height="22.091797828674316" width="63.5625" y="46.091797828674316" x="36.4375" class="er attributeBoxEven"/><text style="dominant-baseline: middle; font-size: 10.2px;" transform="translate(41.4375,57.137696743011475)" y="0" x="0" id="text-entity-Order-3ec22774-e93b-529c-bc12-1dfdb28f8e64-attr-2-name" class="er entityLabel">employeeId</text></g><g transform="translate(46.79296875,555.193359375 )" id="entity-Payment-78272184-28d6-5c12-ad2c-3811a6228073"><rect height="134.36719131469727" width="128.125" y="0" x="0" class="er entityBox"/><text style="dominant-baseline: middle; text-anchor: middle; font-size: 12px;" transform="translate(64.0625,12)" y="0" x="0" id="text-entity-Payment-78272184-28d6-5c12-ad2c-3811a6228073" class="er entityLabel">Payment</text><rect height="22.091797828674316" width="44.828125" y="24" x="0" class="er attributeBoxOdd"/><text style="dominant-baseline: middle; font-size: 10.2px;" transform="translate(5,35.04589891433716)" y="0" x="0" id="text-entity-Payment-78272184-28d6-5c12-ad2c-3811a6228073-attr-1-type" class="er entityLabel">string</text><rect height="22.091797828674316" width="83.296875" y="24" x="44.828125" class="er attributeBoxOdd"/><text style="dominant-baseline: middle; font-size: 10.2px;" transform="translate(49.828125,35.04589891433716)" y="0" x="0" id="text-entity-Payment-78272184-28d6-5c12-ad2c-3811a6228073-attr-1-name" class="er entityLabel">paymentId</text><rect height="22.091797828674316" width="44.828125" y="46.091797828674316" x="0" class="er attributeBoxEven"/><text style="dominant-baseline: middle; font-size: 10.2px;" transform="translate(5,57.137696743011475)" y="0" x="0" id="text-entity-Payment-78272184-28d6-5c12-ad2c-3811a6228073-attr-2-type" class="er entityLabel">string</text><rect height="22.091797828674316" width="83.296875" y="46.091797828674316" x="44.828125" class="er attributeBoxEven"/><text style="dominant-baseline: middle; font-size: 10.2px;" transform="translate(49.828125,57.137696743011475)" y="0" x="0" id="text-entity-Payment-78272184-28d6-5c12-ad2c-3811a6228073-attr-2-name" class="er entityLabel">employeeId</text><rect height="22.091797828674316" width="44.828125" y="68.18359565734863" x="0" class="er attributeBoxOdd"/><text style="dominant-baseline: middle; font-size: 10.2px;" transform="translate(5,79.22949457168579)" y="0" x="0" id="text-entity-Payment-78272184-28d6-5c12-ad2c-3811a6228073-attr-3-type" class="er entityLabel">string</text><rect height="22.091797828674316" width="83.296875" y="68.18359565734863" x="44.828125" class="er attributeBoxOdd"/><text style="dominant-baseline: middle; font-size: 10.2px;" transform="translate(49.828125,79.22949457168579)" y="0" x="0" id="text-entity-Payment-78272184-28d6-5c12-ad2c-3811a6228073-attr-3-name" class="er entityLabel">orderId</text><rect height="22" width="44.828125" y="90.27539348602295" x="0" class="er attributeBoxEven"/><text style="dominant-baseline: middle; font-size: 10.2px;" transform="translate(5,101.27539348602295)" y="0" x="0" id="text-entity-Payment-78272184-28d6-5c12-ad2c-3811a6228073-attr-4-type" class="er entityLabel">number</text><rect height="22" width="83.296875" y="90.27539348602295" x="44.828125" class="er attributeBoxEven"/><text style="dominant-baseline: middle; font-size: 10.2px;" transform="translate(49.828125,101.27539348602295)" y="0" x="0" id="text-entity-Payment-78272184-28d6-5c12-ad2c-3811a6228073-attr-4-name" class="er entityLabel">amount</text><rect height="22.091797828674316" width="44.828125" y="112.27539348602295" x="0" class="er attributeBoxOdd"/><text style="dominant-baseline: middle; font-size: 10.2px;" transform="translate(5,123.32129240036011)" y="0" x="0" id="text-entity-Payment-78272184-28d6-5c12-ad2c-3811a6228073-attr-5-type" class="er entityLabel">string</text><rect height="22.091797828674316" width="83.296875" y="112.27539348602295" x="44.828125" class="er attributeBoxOdd"/><text style="dominant-baseline: middle; font-size: 10.2px;" transform="translate(49.828125,123.32129240036011)" y="0" x="0" id="text-entity-Payment-78272184-28d6-5c12-ad2c-3811a6228073-attr-5-name" class="er entityLabel">paymentMethod</text></g><g transform="translate(33.2353515625,298.642578125 )" id="entity-CafeteriaStaff-c747306a-e960-5613-bbc0-78e98d7bead0"><rect height="156.5507869720459" width="105.919921875" y="0" x="0" class="er entityBox"/><text style="dominant-baseline: middle; text-anchor: middle; font-size: 12px;" transform="translate(52.9599609375,12)" y="0" x="0" id="text-entity-CafeteriaStaff-c747306a-e960-5613-bbc0-78e98d7bead0" class="er entityLabel">CafeteriaStaff</text><rect height="22.091797828674316" width="43.4755859375" y="24" x="0" class="er attributeBoxOdd"/><text style="dominant-baseline: middle; font-size: 10.2px;" transform="translate(5,35.04589891433716)" y="0" x="0" id="text-entity-CafeteriaStaff-c747306a-e960-5613-bbc0-78e98d7bead0-attr-1-type" class="er entityLabel">string</text><rect height="22.091797828674316" width="62.4443359375" y="24" x="43.4755859375" class="er attributeBoxOdd"/><text style="dominant-baseline: middle; font-size: 10.2px;" transform="translate(48.4755859375,35.04589891433716)" y="0" x="0" id="text-entity-CafeteriaStaff-c747306a-e960-5613-bbc0-78e98d7bead0-attr-1-name" class="er entityLabel">staffId</text><rect height="22.091797828674316" width="43.4755859375" y="46.091797828674316" x="0" class="er attributeBoxEven"/><text style="dominant-baseline: middle; font-size: 10.2px;" transform="translate(5,57.137696743011475)" y="0" x="0" id="text-entity-CafeteriaStaff-c747306a-e960-5613-bbc0-78e98d7bead0-attr-2-type" class="er entityLabel">string</text><rect height="22.091797828674316" width="62.4443359375" y="46.091797828674316" x="43.4755859375" class="er attributeBoxEven"/><text style="dominant-baseline: middle; font-size: 10.2px;" transform="translate(48.4755859375,57.137696743011475)" y="0" x="0" id="text-entity-CafeteriaStaff-c747306a-e960-5613-bbc0-78e98d7bead0-attr-2-name" class="er entityLabel">firstName</text><rect height="22.091797828674316" width="43.4755859375" y="68.18359565734863" x="0" class="er attributeBoxOdd"/><text style="dominant-baseline: middle; font-size: 10.2px;" transform="translate(5,79.22949457168579)" y="0" x="0" id="text-entity-CafeteriaStaff-c747306a-e960-5613-bbc0-78e98d7bead0-attr-3-type" class="er entityLabel">string</text><rect height="22.091797828674316" width="62.4443359375" y="68.18359565734863" x="43.4755859375" class="er attributeBoxOdd"/><text style="dominant-baseline: middle; font-size: 10.2px;" transform="translate(48.4755859375,79.22949457168579)" y="0" x="0" id="text-entity-CafeteriaStaff-c747306a-e960-5613-bbc0-78e98d7bead0-attr-3-name" class="er entityLabel">lastName</text><rect height="22.091797828674316" width="43.4755859375" y="90.27539348602295" x="0" class="er attributeBoxEven"/><text style="dominant-baseline: middle; font-size: 10.2px;" transform="translate(5,101.32129240036011)" y="0" x="0" id="text-entity-CafeteriaStaff-c747306a-e960-5613-bbc0-78e98d7bead0-attr-4-type" class="er entityLabel">string</text><rect height="22.091797828674316" width="62.4443359375" y="90.27539348602295" x="43.4755859375" class="er attributeBoxEven"/><text style="dominant-baseline: middle; font-size: 10.2px;" transform="translate(48.4755859375,101.32129240036011)" y="0" x="0" id="text-entity-CafeteriaStaff-c747306a-e960-5613-bbc0-78e98d7bead0-attr-4-name" class="er entityLabel">username</text><rect height="22.091797828674316" width="43.4755859375" y="112.36719131469727" x="0" class="er attributeBoxOdd"/><text style="dominant-baseline: middle; font-size: 10.2px;" transform="translate(5,123.41309022903442)" y="0" x="0" id="text-entity-CafeteriaStaff-c747306a-e960-5613-bbc0-78e98d7bead0-attr-5-type" class="er entityLabel">string</text><rect height="22.091797828674316" width="62.4443359375" y="112.36719131469727" x="43.4755859375" class="er attributeBoxOdd"/><text style="dominant-baseline: middle; font-size: 10.2px;" transform="translate(48.4755859375,123.41309022903442)" y="0" x="0" id="text-entity-CafeteriaStaff-c747306a-e960-5613-bbc0-78e98d7bead0-attr-5-name" class="er entityLabel">password</text><rect height="22.091797828674316" width="43.4755859375" y="134.45898914337158" x="0" class="er attributeBoxEven"/><text style="dominant-baseline: middle; font-size: 10.2px;" transform="translate(5,145.50488805770874)" y="0" x="0" id="text-entity-CafeteriaStaff-c747306a-e960-5613-bbc0-78e98d7bead0-attr-6-type" class="er entityLabel">string</text><rect height="22.091797828674316" width="62.4443359375" y="134.45898914337158" x="43.4755859375" class="er attributeBoxEven"/><text style="dominant-baseline: middle; font-size: 10.2px;" transform="translate(48.4755859375,145.50488805770874)" y="0" x="0" id="text-entity-CafeteriaStaff-c747306a-e960-5613-bbc0-78e98d7bead0-attr-6-name" class="er entityLabel">email</text></g><g transform="translate(446.9638671875,309.6884765625 )" id="entity-Menu-1d328a09-3d8a-500d-95b0-f020ecbee1a0"><rect height="134.45898914337158" width="105.8125" y="0" x="0" class="er entityBox"/><text style="dominant-baseline: middle; text-anchor: middle; font-size: 12px;" transform="translate(52.90625,12)" y="0" x="0" id="text-entity-Menu-1d328a09-3d8a-500d-95b0-f020ecbee1a0" class="er entityLabel">Menu</text><rect height="22.091797828674316" width="44.828125" y="24" x="0" class="er attributeBoxOdd"/><text style="dominant-baseline: middle; font-size: 10.2px;" transform="translate(5,35.04589891433716)" y="0" x="0" id="text-entity-Menu-1d328a09-3d8a-500d-95b0-f020ecbee1a0-attr-1-type" class="er entityLabel">string</text><rect height="22.091797828674316" width="60.984375" y="24" x="44.828125" class="er attributeBoxOdd"/><text style="dominant-baseline: middle; font-size: 10.2px;" transform="translate(49.828125,35.04589891433716)" y="0" x="0" id="text-entity-Menu-1d328a09-3d8a-500d-95b0-f020ecbee1a0-attr-1-name" class="er entityLabel">menuId</text><rect height="22.091797828674316" width="44.828125" y="46.091797828674316" x="0" class="er attributeBoxEven"/><text style="dominant-baseline: middle; font-size: 10.2px;" transform="translate(5,57.137696743011475)" y="0" x="0" id="text-entity-Menu-1d328a09-3d8a-500d-95b0-f020ecbee1a0-attr-2-type" class="er entityLabel">string</text><rect height="22.091797828674316" width="60.984375" y="46.091797828674316" x="44.828125" class="er attributeBoxEven"/><text style="dominant-baseline: middle; font-size: 10.2px;" transform="translate(49.828125,57.137696743011475)" y="0" x="0" id="text-entity-Menu-1d328a09-3d8a-500d-95b0-f020ecbee1a0-attr-2-name" class="er entityLabel">name</text><rect height="22.091797828674316" width="44.828125" y="68.18359565734863" x="0" class="er attributeBoxOdd"/><text style="dominant-baseline: middle; font-size: 10.2px;" transform="translate(5,79.22949457168579)" y="0" x="0" id="text-entity-Menu-1d328a09-3d8a-500d-95b0-f020ecbee1a0-attr-3-type" class="er entityLabel">string</text><rect height="22.091797828674316" width="60.984375" y="68.18359565734863" x="44.828125" class="er attributeBoxOdd"/><text style="dominant-baseline: middle; font-size: 10.2px;" transform="translate(49.828125,79.22949457168579)" y="0" x="0" id="text-entity-Menu-1d328a09-3d8a-500d-95b0-f020ecbee1a0-attr-3-name" class="er entityLabel">description</text><rect height="22.091797828674316" width="44.828125" y="90.27539348602295" x="0" class="er attributeBoxEven"/><text style="dominant-baseline: middle; font-size: 10.2px;" transform="translate(5,101.32129240036011)" y="0" x="0" id="text-entity-Menu-1d328a09-3d8a-500d-95b0-f020ecbee1a0-attr-4-type" class="er entityLabel">number</text><rect height="22.091797828674316" width="60.984375" y="90.27539348602295" x="44.828125" class="er attributeBoxEven"/><text style="dominant-baseline: middle; font-size: 10.2px;" transform="translate(49.828125,101.32129240036011)" y="0" x="0" id="text-entity-Menu-1d328a09-3d8a-500d-95b0-f020ecbee1a0-attr-4-name" class="er entityLabel">price</text><rect height="22.091797828674316" width="44.828125" y="112.36719131469727" x="0" class="er attributeBoxOdd"/><text style="dominant-baseline: middle; font-size: 10.2px;" transform="translate(5,123.41309022903442)" y="0" x="0" id="text-entity-Menu-1d328a09-3d8a-500d-95b0-f020ecbee1a0-attr-5-type" class="er entityLabel">string</text><rect height="22.091797828674316" width="60.984375" y="112.36719131469727" x="44.828125" class="er attributeBoxOdd"/><text style="dominant-baseline: middle; font-size: 10.2px;" transform="translate(49.828125,123.41309022903442)" y="0" x="0" id="text-entity-Menu-1d328a09-3d8a-500d-95b0-f020ecbee1a0-attr-5-name" class="er entityLabel">categoryId</text></g><g transform="translate(445.4091796875,566.193359375 )" id="entity-OrderItem-4d4ac7c9-a974-525a-a211-bd0d8afb3983"><rect height="112.36719131469727" width="108.921875" y="0" x="0" class="er entityBox"/><text style="dominant-baseline: middle; text-anchor: middle; font-size: 12px;" transform="translate(54.4609375,12)" y="0" x="0" id="text-entity-OrderItem-4d4ac7c9-a974-525a-a211-bd0d8afb3983" class="er entityLabel">OrderItem</text><rect height="22.091797828674316" width="44.828125" y="24" x="0" class="er attributeBoxOdd"/><text style="dominant-baseline: middle; font-size: 10.2px;" transform="translate(5,35.04589891433716)" y="0" x="0" id="text-entity-OrderItem-4d4ac7c9-a974-525a-a211-bd0d8afb3983-attr-1-type" class="er entityLabel">string</text><rect height="22.091797828674316" width="64.09375" y="24" x="44.828125" class="er attributeBoxOdd"/><text style="dominant-baseline: middle; font-size: 10.2px;" transform="translate(49.828125,35.04589891433716)" y="0" x="0" id="text-entity-OrderItem-4d4ac7c9-a974-525a-a211-bd0d8afb3983-attr-1-name" class="er entityLabel">orderItemId</text><rect height="22.091797828674316" width="44.828125" y="46.091797828674316" x="0" class="er attributeBoxEven"/><text style="dominant-baseline: middle; font-size: 10.2px;" transform="translate(5,57.137696743011475)" y="0" x="0" id="text-entity-OrderItem-4d4ac7c9-a974-525a-a211-bd0d8afb3983-attr-2-type" class="er entityLabel">string</text><rect height="22.091797828674316" width="64.09375" y="46.091797828674316" x="44.828125" class="er attributeBoxEven"/><text style="dominant-baseline: middle; font-size: 10.2px;" transform="translate(49.828125,57.137696743011475)" y="0" x="0" id="text-entity-OrderItem-4d4ac7c9-a974-525a-a211-bd0d8afb3983-attr-2-name" class="er entityLabel">orderId</text><rect height="22.091797828674316" width="44.828125" y="68.18359565734863" x="0" class="er attributeBoxOdd"/><text style="dominant-baseline: middle; font-size: 10.2px;" transform="translate(5,79.22949457168579)" y="0" x="0" id="text-entity-OrderItem-4d4ac7c9-a974-525a-a211-bd0d8afb3983-attr-3-type" class="er entityLabel">string</text><rect height="22.091797828674316" width="64.09375" y="68.18359565734863" x="44.828125" class="er attributeBoxOdd"/><text style="dominant-baseline: middle; font-size: 10.2px;" transform="translate(49.828125,79.22949457168579)" y="0" x="0" id="text-entity-OrderItem-4d4ac7c9-a974-525a-a211-bd0d8afb3983-attr-3-name" class="er entityLabel">menuId</text><rect height="22.091797828674316" width="44.828125" y="90.27539348602295" x="0" class="er attributeBoxEven"/><text style="dominant-baseline: middle; font-size: 10.2px;" transform="translate(5,101.32129240036011)" y="0" x="0" id="text-entity-OrderItem-4d4ac7c9-a974-525a-a211-bd0d8afb3983-attr-4-type" class="er entityLabel">number</text><rect height="22.091797828674316" width="64.09375" y="90.27539348602295" x="44.828125" class="er attributeBoxEven"/><text style="dominant-baseline: middle; font-size: 10.2px;" transform="translate(49.828125,101.32129240036011)" y="0" x="0" id="text-entity-OrderItem-4d4ac7c9-a974-525a-a211-bd0d8afb3983-attr-4-name" class="er entityLabel">quantity</text></g><g transform="translate(446.8623046875,75.2294921875 )" id="entity-MenuCategory-f0adc5c4-5687-5824-aaaf-48ab297ca2ff"><rect height="68.18359565734863" width="106.015625" y="0" x="0" class="er entityBox"/><text style="dominant-baseline: middle; text-anchor: middle; font-size: 12px;" transform="translate(53.0078125,12)" y="0" x="0" id="text-entity-MenuCategory-f0adc5c4-5687-5824-aaaf-48ab297ca2ff" class="er entityLabel">MenuCategory</text><rect height="22.091797828674316" width="41.8125" y="24" x="0" class="er attributeBoxOdd"/><text style="dominant-baseline: middle; font-size: 10.2px;" transform="translate(5,35.04589891433716)" y="0" x="0" id="text-entity-MenuCategory-f0adc5c4-5687-5824-aaaf-48ab297ca2ff-attr-1-type" class="er entityLabel">string</text><rect height="22.091797828674316" width="64.203125" y="24" x="41.8125" class="er attributeBoxOdd"/><text style="dominant-baseline: middle; font-size: 10.2px;" transform="translate(46.8125,35.04589891433716)" y="0" x="0" id="text-entity-MenuCategory-f0adc5c4-5687-5824-aaaf-48ab297ca2ff-attr-1-name" class="er entityLabel">categoryId</text><rect height="22.091797828674316" width="41.8125" y="46.091797828674316" x="0" class="er attributeBoxEven"/><text style="dominant-baseline: middle; font-size: 10.2px;" transform="translate(5,57.137696743011475)" y="0" x="0" id="text-entity-MenuCategory-f0adc5c4-5687-5824-aaaf-48ab297ca2ff-attr-2-type" class="er entityLabel">string</text><rect height="22.091797828674316" width="64.203125" y="46.091797828674316" x="41.8125" class="er attributeBoxEven"/><text style="dominant-baseline: middle; font-size: 10.2px;" transform="translate(46.8125,57.137696743011475)" y="0" x="0" id="text-entity-MenuCategory-f0adc5c4-5687-5824-aaaf-48ab297ca2ff-attr-2-name" class="er entityLabel">name</text></g><rect height="14" width="33.890625" y="222.96609497070312" x="233.31822204589844" class="er relationshipLabelBox"/><text style="text-anchor: middle; dominant-baseline: middle; font-size: 12px;" y="229.96609497070312" x="250.26353454589844" id="rel1" class="er relationshipLabel">Places</text><rect height="14" width="32.28125" y="376.8518981933594" x="-82.90209197998047" class="er relationshipLabelBox"/><text style="text-anchor: middle; dominant-baseline: middle; font-size: 12px;" y="383.8518981933594" x="-66.76146697998047" id="rel2" class="er relationshipLabel">Makes</text><rect height="14" width="45.109375" y="241.64300537109375" x="63.64031219482422" class="er relationshipLabelBox"/><text style="text-anchor: middle; dominant-baseline: middle; font-size: 12px;" y="248.64300537109375" x="86.19499969482422" id="rel3" class="er relationshipLabel">Manages</text><rect height="14" width="44.03125" y="506.619140625" x="239.11056518554688" class="er relationshipLabelBox"/><text style="text-anchor: middle; dominant-baseline: middle; font-size: 12px;" y="513.619140625" x="261.1261901855469" id="rel4" class="er relationshipLabel">Includes</text><rect height="14" width="19.015625" y="498.16998291015625" x="490.3621826171875" class="er relationshipLabelBox"/><text style="text-anchor: middle; dominant-baseline: middle; font-size: 12px;" y="505.16998291015625" x="499.8699951171875" id="rel5" class="er relationshipLabel">Has</text><rect height="14" width="62.4375" y="219.5504913330078" x="468.6512451171875" class="er relationshipLabelBox"/><text style="text-anchor: middle; dominant-baseline: middle; font-size: 12px;" y="226.5504913330078" x="499.8699951171875" id="rel6" class="er relationshipLabel">Categorizes</text></svg>