<svg aria-roledescription="er" role="graphics-document document" viewBox="0 0 1190 465" style="max-width: 1190px; background-color: white;" xmlns:xlink="http://www.w3.org/1999/xlink" xmlns="http://www.w3.org/2000/svg" width="100%" id="my-svg"><style>#my-svg{font-family:"trebuchet ms",verdana,arial,sans-serif;font-size:16px;fill:#333;}#my-svg .error-icon{fill:#552222;}#my-svg .error-text{fill:#552222;stroke:#552222;}#my-svg .edge-thickness-normal{stroke-width:1px;}#my-svg .edge-thickness-thick{stroke-width:3.5px;}#my-svg .edge-pattern-solid{stroke-dasharray:0;}#my-svg .edge-thickness-invisible{stroke-width:0;fill:none;}#my-svg .edge-pattern-dashed{stroke-dasharray:3;}#my-svg .edge-pattern-dotted{stroke-dasharray:2;}#my-svg .marker{fill:#333333;stroke:#333333;}#my-svg .marker.cross{stroke:#333333;}#my-svg svg{font-family:"trebuchet ms",verdana,arial,sans-serif;font-size:16px;}#my-svg p{margin:0;}#my-svg .entityBox{fill:#ECECFF;stroke:#9370DB;}#my-svg .attributeBoxOdd{fill:#ffffff;stroke:#9370DB;}#my-svg .attributeBoxEven{fill:#f2f2f2;stroke:#9370DB;}#my-svg .relationshipLabelBox{fill:hsl(80, 100%, 96.2745098039%);opacity:0.7;background-color:hsl(80, 100%, 96.2745098039%);}#my-svg .relationshipLabelBox rect{opacity:0.5;}#my-svg .relationshipLine{stroke:#333333;}#my-svg .entityTitleText{text-anchor:middle;font-size:18px;fill:#333;}#my-svg #MD_PARENT_START{fill:#f5f5f5!important;stroke:#333333!important;stroke-width:1;}#my-svg #MD_PARENT_END{fill:#f5f5f5!important;stroke:#333333!important;stroke-width:1;}#my-svg :root{--mermaid-font-family:"trebuchet ms",verdana,arial,sans-serif;}</style><g/><defs><marker orient="auto" markerHeight="240" markerWidth="190" refY="7" refX="0" id="MD_PARENT_START"><path d="M 18,7 L9,13 L1,7 L9,1 Z"/></marker></defs><defs><marker orient="auto" markerHeight="28" markerWidth="20" refY="7" refX="19" id="MD_PARENT_END"><path d="M 18,7 L9,13 L1,7 L9,1 Z"/></marker></defs><defs><marker orient="auto" markerHeight="18" markerWidth="18" refY="9" refX="0" id="ONLY_ONE_START"><path d="M9,0 L9,18 M15,0 L15,18" fill="none" stroke="gray"/></marker></defs><defs><marker orient="auto" markerHeight="18" markerWidth="18" refY="9" refX="18" id="ONLY_ONE_END"><path d="M3,0 L3,18 M9,0 L9,18" fill="none" stroke="gray"/></marker></defs><defs><marker orient="auto" markerHeight="18" markerWidth="30" refY="9" refX="0" id="ZERO_OR_ONE_START"><circle r="6" cy="9" cx="21" fill="white" stroke="gray"/><path d="M9,0 L9,18" fill="none" stroke="gray"/></marker></defs><defs><marker orient="auto" markerHeight="18" markerWidth="30" refY="9" refX="30" id="ZERO_OR_ONE_END"><circle r="6" cy="9" cx="9" fill="white" stroke="gray"/><path d="M21,0 L21,18" fill="none" stroke="gray"/></marker></defs><defs><marker orient="auto" markerHeight="36" markerWidth="45" refY="18" refX="18" id="ONE_OR_MORE_START"><path d="M0,18 Q 18,0 36,18 Q 18,36 0,18 M42,9 L42,27" fill="none" stroke="gray"/></marker></defs><defs><marker orient="auto" markerHeight="36" markerWidth="45" refY="18" refX="27" id="ONE_OR_MORE_END"><path d="M3,9 L3,27 M9,18 Q27,0 45,18 Q27,36 9,18" fill="none" stroke="gray"/></marker></defs><defs><marker orient="auto" markerHeight="36" markerWidth="57" refY="18" refX="18" id="ZERO_OR_MORE_START"><circle r="6" cy="18" cx="48" fill="white" stroke="gray"/><path d="M0,18 Q18,0 36,18 Q18,36 0,18" fill="none" stroke="gray"/></marker></defs><defs><marker orient="auto" markerHeight="36" markerWidth="57" refY="18" refX="39" id="ZERO_OR_MORE_END"><circle r="6" cy="18" cx="9" fill="white" stroke="gray"/><path d="M21,18 Q39,0 57,18 Q39,36 21,18" fill="none" stroke="gray"/></marker></defs><path style="stroke: gray; fill: none;" marker-start="url(#ONLY_ONE_START)" marker-end="url(#ONLY_ONE_END)" d="M250.985,95L252.315,103.333C253.645,111.667,256.305,128.333,257.635,151.25C258.965,174.167,258.965,203.333,258.965,232.5C258.965,261.667,258.965,290.833,319.137,318.226C379.31,345.619,499.655,371.237,559.827,384.047L620,396.856" class="er relationshipLine"/><path style="stroke: gray; fill: none;" marker-start="url(#ONLY_ONE_START)" marker-end="url(#ONLY_ONE_END)" d="M180.813,84.114L156.338,94.261C131.863,104.409,82.914,124.705,61.871,143.186C40.829,161.667,47.693,178.333,51.124,186.667L54.556,195" class="er relationshipLine"/><path style="stroke: gray; fill: none;" marker-start="url(#ONLY_ONE_START)" marker-end="url(#ZERO_OR_MORE_END)" d="M309.188,71.067L367.484,83.389C425.78,95.712,542.372,120.356,614.351,141.741C686.329,163.127,713.694,181.253,727.376,190.316L741.059,199.38" class="er relationshipLine"/><path style="stroke: gray; fill: none;" marker-start="url(#ONLY_ONE_START)" marker-end="url(#ZERO_OR_MORE_END)" d="M445,89.661L430.661,98.884C416.322,108.107,387.643,126.554,373.304,150.36C358.965,174.167,358.965,203.333,358.965,232.5C358.965,261.667,358.965,290.833,402.471,317.656C445.977,344.478,532.988,368.956,576.494,381.195L620,393.434" class="er relationshipLine"/><path style="stroke: gray; fill: none;" marker-start="url(#ONLY_ONE_START)" marker-end="url(#ZERO_OR_MORE_END)" d="M500.985,95L502.315,103.333C503.645,111.667,506.305,128.333,507.635,145C508.965,161.667,508.965,178.333,508.965,186.667L508.965,195" class="er relationshipLine"/><path style="stroke: gray; fill: none;" marker-start="url(#ONLY_ONE_START)" marker-end="url(#ZERO_OR_MORE_END)" d="M545,71.127L590.176,83.439C635.353,95.751,725.706,120.376,768.501,141.021C811.297,161.667,806.535,178.333,804.154,186.667L801.773,195" class="er relationshipLine"/><path style="stroke: gray; fill: none;" marker-start="url(#ONLY_ONE_START)" marker-end="url(#ONLY_ONE_END)" d="M508.965,270L508.965,278.333C508.965,286.667,508.965,303.333,527.471,321.722C545.977,340.111,582.988,360.221,601.494,370.277L620,380.332" class="er relationshipLine"/><path style="stroke: gray; fill: none;" marker-start="url(#ONLY_ONE_START)" marker-end="url(#ZERO_OR_ONE_END)" d="M791.059,270L791.059,278.333C791.059,286.667,791.059,303.333,779.215,320.227C767.372,337.12,743.686,354.24,731.843,362.8L720,371.36" class="er relationshipLine"/><path style="stroke: gray; fill: none;" marker-start="url(#ONLY_ONE_START)" marker-end="url(#ZERO_OR_ONE_END)" d="M841.059,245.8L887.549,258.167C934.039,270.533,1027.02,295.267,1073.51,315.967C1120,336.667,1120,353.333,1120,361.667L1120,370" class="er relationshipLine"/><path style="stroke: gray; fill: none;" marker-start="url(#ONLY_ONE_START)" marker-end="url(#ZERO_OR_ONE_END)" d="M902.883,86.441L922.402,96.201C941.922,105.961,980.961,125.48,1000.48,149.824C1020,174.167,1020,203.333,1020,232.5C1020,261.667,1020,290.833,970,317.917C920,345,820,370,770,382.5L720,395" class="er relationshipLine"/><path style="stroke: gray; fill: none;" marker-start="url(#ONLY_ONE_START)" marker-end="url(#ZERO_OR_ONE_END)" d="M787.117,64.623L678.258,78.019C569.4,91.415,351.682,118.208,236.732,139.937C121.781,161.667,109.597,178.333,103.505,186.667L97.414,195" class="er relationshipLine"/><path style="stroke: gray; fill: none;" marker-start="url(#ONLY_ONE_START)" marker-end="url(#ZERO_OR_MORE_END)" d="M875.454,95L882.221,103.333C888.989,111.667,902.524,128.333,896.791,145.417C891.059,162.5,866.059,180,853.559,188.75L841.059,197.5" class="er relationshipLine"/><g transform="translate(180.8125,20 )" id="entity-CheckServiceNode-eb47d0a6-3247-515d-9e33-5a4c6e45d65d"><rect height="75" width="128.375" y="0" x="0" class="er entityBox"/><text style="dominant-baseline: middle; text-anchor: middle; font-size: 12px;" transform="translate(64.1875,37.5)" y="0" x="0" id="text-entity-CheckServiceNode-eb47d0a6-3247-515d-9e33-5a4c6e45d65d" class="er entityLabel">CheckServiceNode</text></g><g transform="translate(620,370 )" id="entity-Node-f0988848-8d5f-5e31-b59e-30007596fa90"><rect height="75" width="100" y="0" x="0" class="er entityBox"/><text style="dominant-baseline: middle; text-anchor: middle; font-size: 12px;" transform="translate(50,37.5)" y="0" x="0" id="text-entity-Node-f0988848-8d5f-5e31-b59e-30007596fa90" class="er entityLabel">Node</text></g><g transform="translate(20,195 )" id="entity-NodeService-5c3023ef-2ff9-5dfd-8523-7c79c7f12960"><rect height="75" width="100" y="0" x="0" class="er entityBox"/><text style="dominant-baseline: middle; text-anchor: middle; font-size: 12px;" transform="translate(50,37.5)" y="0" x="0" id="text-entity-NodeService-5c3023ef-2ff9-5dfd-8523-7c79c7f12960" class="er entityLabel">NodeService</text></g><g transform="translate(458.96484375,195 )" id="entity-ServiceNode-f72e6303-1bb7-5c9e-93eb-9d21f0eaac82"><rect height="75" width="100" y="0" x="0" class="er entityBox"/><text style="dominant-baseline: middle; text-anchor: middle; font-size: 12px;" transform="translate(50,37.5)" y="0" x="0" id="text-entity-ServiceNode-f72e6303-1bb7-5c9e-93eb-9d21f0eaac82" class="er entityLabel">ServiceNode</text></g><g transform="translate(741.05859375,195 )" id="entity-HealthCheck-9a933be8-4fbd-5a79-8224-bcb8cf9b04a0"><rect height="75" width="100" y="0" x="0" class="er entityBox"/><text style="dominant-baseline: middle; text-anchor: middle; font-size: 12px;" transform="translate(50,37.5)" y="0" x="0" id="text-entity-HealthCheck-9a933be8-4fbd-5a79-8224-bcb8cf9b04a0" class="er entityLabel">HealthCheck</text></g><g transform="translate(445,20 )" id="entity-Store-2d08f651-b793-591f-8c6f-89a8109cae2a"><rect height="75" width="100" y="0" x="0" class="er entityBox"/><text style="dominant-baseline: middle; text-anchor: middle; font-size: 12px;" transform="translate(50,37.5)" y="0" x="0" id="text-entity-Store-2d08f651-b793-591f-8c6f-89a8109cae2a" class="er entityLabel">Store</text></g><g transform="translate(1070,370 )" id="entity-Service-bb5e86a7-2789-5e41-b2ce-0929aaa7e22c"><rect height="75" width="100" y="0" x="0" class="er entityBox"/><text style="dominant-baseline: middle; text-anchor: middle; font-size: 12px;" transform="translate(50,37.5)" y="0" x="0" id="text-entity-Service-bb5e86a7-2789-5e41-b2ce-0929aaa7e22c" class="er entityLabel">Service</text></g><g transform="translate(787.1171875,20 )" id="entity-RegisterRequest-0847ef48-7849-5b53-a398-cb9814a22ac9"><rect height="75" width="115.765625" y="0" x="0" class="er entityBox"/><text style="dominant-baseline: middle; text-anchor: middle; font-size: 12px;" transform="translate(57.8828125,37.5)" y="0" x="0" id="text-entity-RegisterRequest-0847ef48-7849-5b53-a398-cb9814a22ac9" class="er entityLabel">RegisterRequest</text></g><rect height="14" width="17.71875" y="322.38885498046875" x="338.18072509765625" class="er relationshipLabelBox"/><text style="text-anchor: middle; dominant-baseline: middle; font-size: 12px;" y="329.38885498046875" x="347.04010009765625" id="rel1" class="er relationshipLabel">has</text><rect height="14" width="17.71875" y="115.78640747070312" x="84.69673919677734" class="er relationshipLabelBox"/><text style="text-anchor: middle; dominant-baseline: middle; font-size: 12px;" y="122.78640747070312" x="93.55611419677734" id="rel2" class="er relationshipLabel">has</text><rect height="14" width="17.71875" y="112.65606689453125" x="521.6607055664062" class="er relationshipLabelBox"/><text style="text-anchor: middle; dominant-baseline: middle; font-size: 12px;" y="119.65606689453125" x="530.5200805664062" id="rel3" class="er relationshipLabel">has</text><rect height="14" width="130.3125" y="295.6285705566406" x="317.44970703125" class="er relationshipLabelBox"/><text style="text-anchor: middle; dominant-baseline: middle; font-size: 12px;" y="302.6285705566406" x="382.60595703125" id="rel4" class="er relationshipLabel">stored in the node table</text><rect height="14" width="141.9375" y="137.78956604003906" x="436.6492004394531" class="er relationshipLabelBox"/><text style="text-anchor: middle; dominant-baseline: middle; font-size: 12px;" y="144.78956604003906" x="507.6179504394531" id="rel5" class="er relationshipLabel">stored in the service table</text><rect height="14" width="139.984375" y="105.94104766845703" x="622.5986328125" class="er relationshipLabelBox"/><text style="text-anchor: middle; dominant-baseline: middle; font-size: 12px;" y="112.94104766845703" x="692.5908203125" id="rel6" class="er relationshipLabel">stored in the checks table</text><rect height="14" width="57.3125" y="331.3309631347656" x="519.341796875" class="er relationshipLabelBox"/><text style="text-anchor: middle; dominant-baseline: middle; font-size: 12px;" y="338.3309631347656" x="547.998046875" id="rel7" class="er relationshipLabel">references</text><rect height="14" width="57.3125" y="323.2198791503906" x="742.314697265625" class="er relationshipLabelBox"/><text style="text-anchor: middle; dominant-baseline: middle; font-size: 12px;" y="330.2198791503906" x="770.970947265625" id="rel8" class="er relationshipLabel">references</text><rect height="14" width="57.3125" y="281.4355163574219" x="966.8273315429688" class="er relationshipLabelBox"/><text style="text-anchor: middle; dominant-baseline: middle; font-size: 12px;" y="288.4355163574219" x="995.4835815429688" id="rel9" class="er relationshipLabel">references</text><rect height="14" width="17.71875" y="297.95880126953125" x="981.2578125" class="er relationshipLabelBox"/><text style="text-anchor: middle; dominant-baseline: middle; font-size: 12px;" y="304.95880126953125" x="990.1171875" id="rel10" class="er relationshipLabel">has</text><rect height="14" width="17.71875" y="102.1788101196289" x="426.4237976074219" class="er relationshipLabelBox"/><text style="text-anchor: middle; dominant-baseline: middle; font-size: 12px;" y="109.1788101196289" x="435.2831726074219" id="rel11" class="er relationshipLabel">has</text><rect height="14" width="17.71875" y="147.2972412109375" x="883.3744506835938" class="er relationshipLabelBox"/><text style="text-anchor: middle; dominant-baseline: middle; font-size: 12px;" y="154.2972412109375" x="892.2338256835938" id="rel12" class="er relationshipLabel">has</text></svg>