<svg aria-roledescription="class" role="graphics-document document" viewBox="0 0 266.1796875 270" style="max-width: 266.18px; background-color: white;" class="classDiagram" xmlns:xlink="http://www.w3.org/1999/xlink" xmlns="http://www.w3.org/2000/svg" width="100%" id="my-svg"><style>#my-svg{font-family:"trebuchet ms",verdana,arial,sans-serif;font-size:16px;fill:#333;}#my-svg .error-icon{fill:#552222;}#my-svg .error-text{fill:#552222;stroke:#552222;}#my-svg .edge-thickness-normal{stroke-width:1px;}#my-svg .edge-thickness-thick{stroke-width:3.5px;}#my-svg .edge-pattern-solid{stroke-dasharray:0;}#my-svg .edge-thickness-invisible{stroke-width:0;fill:none;}#my-svg .edge-pattern-dashed{stroke-dasharray:3;}#my-svg .edge-pattern-dotted{stroke-dasharray:2;}#my-svg .marker{fill:#333333;stroke:#333333;}#my-svg .marker.cross{stroke:#333333;}#my-svg svg{font-family:"trebuchet ms",verdana,arial,sans-serif;font-size:16px;}#my-svg p{margin:0;}#my-svg g.classGroup text{fill:#9370DB;stroke:none;font-family:"trebuchet ms",verdana,arial,sans-serif;font-size:10px;}#my-svg g.classGroup text .title{font-weight:bolder;}#my-svg .nodeLabel,#my-svg .edgeLabel{color:#131300;}#my-svg .edgeLabel .label rect{fill:#ECECFF;}#my-svg .label text{fill:#131300;}#my-svg .labelBkg{background:#ECECFF;}#my-svg .edgeLabel .label span{background:#ECECFF;}#my-svg .classTitle{font-weight:bolder;}#my-svg .node rect,#my-svg .node circle,#my-svg .node ellipse,#my-svg .node polygon,#my-svg .node path{fill:#ECECFF;stroke:#9370DB;stroke-width:1px;}#my-svg .divider{stroke:#9370DB;stroke-width:1;}#my-svg g.clickable{cursor:pointer;}#my-svg g.classGroup rect{fill:#ECECFF;stroke:#9370DB;}#my-svg g.classGroup line{stroke:#9370DB;stroke-width:1;}#my-svg .classLabel .box{stroke:none;stroke-width:0;fill:#ECECFF;opacity:0.5;}#my-svg .classLabel .label{fill:#9370DB;font-size:10px;}#my-svg .relation{stroke:#333333;stroke-width:1;fill:none;}#my-svg .dashed-line{stroke-dasharray:3;}#my-svg .dotted-line{stroke-dasharray:1 2;}#my-svg #compositionStart,#my-svg .composition{fill:#333333!important;stroke:#333333!important;stroke-width:1;}#my-svg #compositionEnd,#my-svg .composition{fill:#333333!important;stroke:#333333!important;stroke-width:1;}#my-svg #dependencyStart,#my-svg .dependency{fill:#333333!important;stroke:#333333!important;stroke-width:1;}#my-svg #dependencyStart,#my-svg .dependency{fill:#333333!important;stroke:#333333!important;stroke-width:1;}#my-svg #extensionStart,#my-svg .extension{fill:transparent!important;stroke:#333333!important;stroke-width:1;}#my-svg #extensionEnd,#my-svg .extension{fill:transparent!important;stroke:#333333!important;stroke-width:1;}#my-svg #aggregationStart,#my-svg .aggregation{fill:transparent!important;stroke:#333333!important;stroke-width:1;}#my-svg #aggregationEnd,#my-svg .aggregation{fill:transparent!important;stroke:#333333!important;stroke-width:1;}#my-svg #lollipopStart,#my-svg .lollipop{fill:#ECECFF!important;stroke:#333333!important;stroke-width:1;}#my-svg #lollipopEnd,#my-svg .lollipop{fill:#ECECFF!important;stroke:#333333!important;stroke-width:1;}#my-svg .edgeTerminals{font-size:11px;line-height:initial;}#my-svg .classTitleText{text-anchor:middle;font-size:18px;fill:#333;}#my-svg :root{--mermaid-font-family:"trebuchet ms",verdana,arial,sans-serif;}</style><g><defs><marker orient="auto" markerHeight="240" markerWidth="190" refY="7" refX="18" class="marker aggregation class" id="my-svg_class-aggregationStart"><path d="M 18,7 L9,13 L1,7 L9,1 Z"/></marker></defs><defs><marker orient="auto" markerHeight="28" markerWidth="20" refY="7" refX="1" class="marker aggregation class" id="my-svg_class-aggregationEnd"><path d="M 18,7 L9,13 L1,7 L9,1 Z"/></marker></defs><defs><marker orient="auto" markerHeight="240" markerWidth="190" refY="7" refX="18" class="marker extension class" id="my-svg_class-extensionStart"><path d="M 1,7 L18,13 V 1 Z"/></marker></defs><defs><marker orient="auto" markerHeight="28" markerWidth="20" refY="7" refX="1" class="marker extension class" id="my-svg_class-extensionEnd"><path d="M 1,1 V 13 L18,7 Z"/></marker></defs><defs><marker orient="auto" markerHeight="240" markerWidth="190" refY="7" refX="18" class="marker composition class" id="my-svg_class-compositionStart"><path d="M 18,7 L9,13 L1,7 L9,1 Z"/></marker></defs><defs><marker orient="auto" markerHeight="28" markerWidth="20" refY="7" refX="1" class="marker composition class" id="my-svg_class-compositionEnd"><path d="M 18,7 L9,13 L1,7 L9,1 Z"/></marker></defs><defs><marker orient="auto" markerHeight="240" markerWidth="190" refY="7" refX="6" class="marker dependency class" id="my-svg_class-dependencyStart"><path d="M 5,7 L9,13 L1,7 L9,1 Z"/></marker></defs><defs><marker orient="auto" markerHeight="28" markerWidth="20" refY="7" refX="13" class="marker dependency class" id="my-svg_class-dependencyEnd"><path d="M 18,7 L9,13 L14,7 L9,1 Z"/></marker></defs><defs><marker orient="auto" markerHeight="240" markerWidth="190" refY="7" refX="13" class="marker lollipop class" id="my-svg_class-lollipopStart"><circle r="6" cy="7" cx="7" fill="transparent" stroke="black"/></marker></defs><defs><marker orient="auto" markerHeight="240" markerWidth="190" refY="7" refX="1" class="marker lollipop class" id="my-svg_class-lollipopEnd"><circle r="6" cy="7" cx="7" fill="transparent" stroke="black"/></marker></defs><g class="root"><g class="clusters"/><g class="edgePaths"><path style=";" class="edge-thickness-normal edge-pattern-solid relation" id="id_ChainCompositionOr_RiskChain_1" d="M133.09,128L133.09,132.167C133.09,136.333,133.09,144.667,133.09,153C133.09,161.333,133.09,169.667,133.09,173.833L133.09,178"/></g><g class="edgeLabels"><g class="edgeLabel"><g transform="translate(0, -12)" class="label"><foreignObject height="24" width="0"><div class="labelBkg" xmlns="http://www.w3.org/1999/xhtml" style="display: table-cell; white-space: nowrap; line-height: 1.5; max-width: 200px; text-align: center;"><span class="edgeLabel" style=";display: inline-block"></span></div></foreignObject></g></g></g><g class="nodes"><g transform="translate(133.08984375, 68)" id="classId-ChainCompositionOr-0" class="node default"><g class="basic label-container"><path style="" fill="#ECECFF" stroke-width="0" stroke="none" d="M-125.08984375 -60 L125.08984375 -60 L125.08984375 60 L-125.08984375 60"/><path style="" fill="none" stroke-width="1.3" stroke="#9370DB" d="M-125.08984375 -60 C-25.16601905750035 -60, 74.7578056349993 -60, 125.08984375 -60 M-125.08984375 -60 C-71.7870280971539 -60, -18.484212444307786 -60, 125.08984375 -60 M125.08984375 -60 C125.08984375 -21.97127482977563, 125.08984375 16.05745034044874, 125.08984375 60 M125.08984375 -60 C125.08984375 -21.962194748769363, 125.08984375 16.075610502461274, 125.08984375 60 M125.08984375 60 C56.25002885496572 60, -12.58978604006856 60, -125.08984375 60 M125.08984375 60 C47.05436203499998 60, -30.981119680000035 60, -125.08984375 60 M-125.08984375 60 C-125.08984375 17.30578664281674, -125.08984375 -25.388426714366517, -125.08984375 -60 M-125.08984375 60 C-125.08984375 14.621805152651774, -125.08984375 -30.756389694696452, -125.08984375 -60"/></g><g transform="translate(0, -36)" class="annotation-group text"/><g transform="translate(-76.1796875, -36)" class="label-group text"><g transform="translate(0,-12)" style="font-weight: bolder" class="label"><foreignObject height="24" width="152.359375"><div style="display: table-cell; white-space: nowrap; line-height: 1.5; max-width: 188px; text-align: center;" xmlns="http://www.w3.org/1999/xhtml"><span style="" class="nodeLabel markdown-node-label"><p>ChainCompositionOr</p></span></div></foreignObject></g></g><g transform="translate(-113.08984375, 12)" class="members-group text"><g transform="translate(0,-12)" style="" class="label"><foreignObject height="24" width="150"><div style="display: table-cell; white-space: nowrap; line-height: 1.5; max-width: 190px; text-align: center;" xmlns="http://www.w3.org/1999/xhtml"><span style="" class="nodeLabel markdown-node-label"><p>RiskChain[] operands</p></span></div></foreignObject></g></g><g transform="translate(-113.08984375, 60)" class="methods-group text"/><g style="" class="divider"><path style="" fill="none" stroke-width="1.3" stroke="#9370DB" d="M-125.08984375 -12 C-38.88750267301805 -12, 47.314838403963904 -12, 125.08984375 -12 M-125.08984375 -12 C-33.63879791877872 -12, 57.81224791244256 -12, 125.08984375 -12"/></g><g style="" class="divider"><path style="" fill="none" stroke-width="1.3" stroke="#9370DB" d="M-125.08984375 36 C-59.57903276024035 36, 5.931778229519296 36, 125.08984375 36 M-125.08984375 36 C-52.87036434650234 36, 19.349115056995316 36, 125.08984375 36"/></g></g><g transform="translate(133.08984375, 220)" id="classId-RiskChain-1" class="node default"><g class="basic label-container"><path style="" fill="#ECECFF" stroke-width="0" stroke="none" d="M-48.109375 -42 L48.109375 -42 L48.109375 42 L-48.109375 42"/><path style="" fill="none" stroke-width="1.3" stroke="#9370DB" d="M-48.109375 -42 C-11.385808359203885 -42, 25.33775828159223 -42, 48.109375 -42 M-48.109375 -42 C-11.82559703547905 -42, 24.4581809290419 -42, 48.109375 -42 M48.109375 -42 C48.109375 -9.755963675621487, 48.109375 22.488072648757026, 48.109375 42 M48.109375 -42 C48.109375 -8.527843541422214, 48.109375 24.94431291715557, 48.109375 42 M48.109375 42 C10.602744601804439 42, -26.903885796391123 42, -48.109375 42 M48.109375 42 C22.904483824572964 42, -2.3004073508540728 42, -48.109375 42 M-48.109375 42 C-48.109375 24.296459636756648, -48.109375 6.592919273513296, -48.109375 -42 M-48.109375 42 C-48.109375 17.966625082510355, -48.109375 -6.066749834979291, -48.109375 -42"/></g><g transform="translate(0, -18)" class="annotation-group text"/><g transform="translate(-36.109375, -18)" class="label-group text"><g transform="translate(0,-12)" style="font-weight: bolder" class="label"><foreignObject height="24" width="72.21875"><div style="display: table-cell; white-space: nowrap; line-height: 1.5; max-width: 118px; text-align: center;" xmlns="http://www.w3.org/1999/xhtml"><span style="" class="nodeLabel markdown-node-label"><p>RiskChain</p></span></div></foreignObject></g></g><g transform="translate(-36.109375, 30)" class="members-group text"/><g transform="translate(-36.109375, 60)" class="methods-group text"/><g style="" class="divider"><path style="" fill="none" stroke-width="1.3" stroke="#9370DB" d="M-48.109375 6 C-21.634584649956025 6, 4.8402057000879495 6, 48.109375 6 M-48.109375 6 C-9.636978182970857 6, 28.835418634058286 6, 48.109375 6"/></g><g style="" class="divider"><path style="" fill="none" stroke-width="1.3" stroke="#9370DB" d="M-48.109375 24 C-15.388844119882954 24, 17.331686760234092 24, 48.109375 24 M-48.109375 24 C-20.792975538309637 24, 6.523423923380726 24, 48.109375 24"/></g></g></g></g></g></svg>