<svg aria-roledescription="er" role="graphics-document document" viewBox="0 0 1024.6409912109375 817.734375" style="max-width: 1024.64px; background-color: white;" xmlns:xlink="http://www.w3.org/1999/xlink" xmlns="http://www.w3.org/2000/svg" width="100%" id="my-svg"><style>#my-svg{font-family:"trebuchet ms",verdana,arial,sans-serif;font-size:16px;fill:#333;}#my-svg .error-icon{fill:#552222;}#my-svg .error-text{fill:#552222;stroke:#552222;}#my-svg .edge-thickness-normal{stroke-width:1px;}#my-svg .edge-thickness-thick{stroke-width:3.5px;}#my-svg .edge-pattern-solid{stroke-dasharray:0;}#my-svg .edge-thickness-invisible{stroke-width:0;fill:none;}#my-svg .edge-pattern-dashed{stroke-dasharray:3;}#my-svg .edge-pattern-dotted{stroke-dasharray:2;}#my-svg .marker{fill:#333333;stroke:#333333;}#my-svg .marker.cross{stroke:#333333;}#my-svg svg{font-family:"trebuchet ms",verdana,arial,sans-serif;font-size:16px;}#my-svg p{margin:0;}#my-svg .entityBox{fill:#ECECFF;stroke:#9370DB;}#my-svg .attributeBoxOdd{fill:#ffffff;stroke:#9370DB;}#my-svg .attributeBoxEven{fill:#f2f2f2;stroke:#9370DB;}#my-svg .relationshipLabelBox{fill:hsl(80, 100%, 96.2745098039%);opacity:0.7;background-color:hsl(80, 100%, 96.2745098039%);}#my-svg .relationshipLabelBox rect{opacity:0.5;}#my-svg .relationshipLine{stroke:#333333;}#my-svg .entityTitleText{text-anchor:middle;font-size:18px;fill:#333;}#my-svg #MD_PARENT_START{fill:#f5f5f5!important;stroke:#333333!important;stroke-width:1;}#my-svg #MD_PARENT_END{fill:#f5f5f5!important;stroke:#333333!important;stroke-width:1;}#my-svg :root{--mermaid-font-family:"trebuchet ms",verdana,arial,sans-serif;}</style><g/><defs><marker orient="auto" markerHeight="240" markerWidth="190" refY="7" refX="0" id="MD_PARENT_START"><path d="M 18,7 L9,13 L1,7 L9,1 Z"/></marker></defs><defs><marker orient="auto" markerHeight="28" markerWidth="20" refY="7" refX="19" id="MD_PARENT_END"><path d="M 18,7 L9,13 L1,7 L9,1 Z"/></marker></defs><defs><marker orient="auto" markerHeight="18" markerWidth="18" refY="9" refX="0" id="ONLY_ONE_START"><path d="M9,0 L9,18 M15,0 L15,18" fill="none" stroke="gray"/></marker></defs><defs><marker orient="auto" markerHeight="18" markerWidth="18" refY="9" refX="18" id="ONLY_ONE_END"><path d="M3,0 L3,18 M9,0 L9,18" fill="none" stroke="gray"/></marker></defs><defs><marker orient="auto" markerHeight="18" markerWidth="30" refY="9" refX="0" id="ZERO_OR_ONE_START"><circle r="6" cy="9" cx="21" fill="white" stroke="gray"/><path d="M9,0 L9,18" fill="none" stroke="gray"/></marker></defs><defs><marker orient="auto" markerHeight="18" markerWidth="30" refY="9" refX="30" id="ZERO_OR_ONE_END"><circle r="6" cy="9" cx="9" fill="white" stroke="gray"/><path d="M21,0 L21,18" fill="none" stroke="gray"/></marker></defs><defs><marker orient="auto" markerHeight="36" markerWidth="45" refY="18" refX="18" id="ONE_OR_MORE_START"><path d="M0,18 Q 18,0 36,18 Q 18,36 0,18 M42,9 L42,27" fill="none" stroke="gray"/></marker></defs><defs><marker orient="auto" markerHeight="36" markerWidth="45" refY="18" refX="27" id="ONE_OR_MORE_END"><path d="M3,9 L3,27 M9,18 Q27,0 45,18 Q27,36 9,18" fill="none" stroke="gray"/></marker></defs><defs><marker orient="auto" markerHeight="36" markerWidth="57" refY="18" refX="18" id="ZERO_OR_MORE_START"><circle r="6" cy="18" cx="48" fill="white" stroke="gray"/><path d="M0,18 Q18,0 36,18 Q18,36 0,18" fill="none" stroke="gray"/></marker></defs><defs><marker orient="auto" markerHeight="36" markerWidth="57" refY="18" refX="39" id="ZERO_OR_MORE_END"><circle r="6" cy="18" cx="9" fill="white" stroke="gray"/><path d="M21,18 Q39,0 57,18 Q39,36 21,18" fill="none" stroke="gray"/></marker></defs><path style="stroke: gray; fill: none;" marker-start="url(#ONLY_ONE_START)" marker-end="url(#ONE_OR_MORE_END)" d="M515.168,67.12L447.705,80.1C380.242,93.08,245.316,119.04,177.854,140.353C110.391,161.667,110.391,178.333,110.391,186.667L110.391,195" class="er relationshipLine"/><path style="stroke: gray; fill: none;" marker-start="url(#ONLY_ONE_START)" marker-end="url(#ZERO_OR_MORE_END)" d="M110.391,307.275L110.391,315.609C110.391,323.942,110.391,340.609,112.848,359.116C115.306,377.624,120.222,397.973,122.679,408.147L125.137,418.321" class="er relationshipLine"/><path style="stroke: gray; fill: none;" marker-start="url(#ONLY_ONE_START)" marker-end="url(#ZERO_OR_MORE_END)" d="M515.168,74.048L479.437,85.873C443.706,97.698,372.243,121.349,336.512,150.864C300.781,180.379,300.781,215.758,300.781,251.138C300.781,286.517,300.781,321.896,288.122,349.76C275.462,377.624,250.143,397.973,237.483,408.147L224.824,418.321" class="er relationshipLine"/><path style="stroke: gray; fill: none;" marker-start="url(#ONLY_ONE_START)" marker-end="url(#ZERO_OR_MORE_END)" d="M141.344,552.505L141.344,562.679C141.344,572.854,141.344,593.202,190.618,617.24C239.893,641.278,338.443,669.005,387.717,682.869L436.992,696.733" class="er relationshipLine"/><path style="stroke: gray; fill: none;" marker-start="url(#ONLY_ONE_START)" marker-end="url(#ZERO_OR_MORE_END)" d="M615.168,67.455L680.08,80.379C744.992,93.303,874.816,119.152,939.729,149.765C1004.641,180.379,1004.641,215.758,1004.641,251.138C1004.641,286.517,1004.641,321.896,1004.641,360.942C1004.641,399.988,1004.641,442.701,1004.641,485.413C1004.641,528.126,1004.641,570.838,950.207,606.449C895.773,642.061,786.906,670.57,732.473,684.825L678.039,699.08" class="er relationshipLine"/><path style="stroke: gray; fill: none;" marker-start="url(#ONLY_ONE_START)" marker-end="url(#ZERO_OR_MORE_END)" d="M200.781,284.175L234.115,296.359C267.448,308.542,334.115,332.909,381.777,353.653C429.439,374.398,458.096,391.521,472.425,400.082L486.754,408.644" class="er relationshipLine"/><path style="stroke: gray; fill: none;" marker-start="url(#ONLY_ONE_START)" marker-end="url(#ZERO_OR_MORE_END)" d="M500.781,288.638L500.781,300.077C500.781,311.517,500.781,334.396,508.225,354.169C515.668,373.942,530.556,390.609,537.999,398.942L545.443,407.275" class="er relationshipLine"/><path style="stroke: gray; fill: none;" marker-start="url(#ONLY_ONE_START)" marker-end="url(#ZERO_OR_MORE_END)" d="M729.695,288.638L729.695,300.077C729.695,311.517,729.695,334.396,722.252,354.169C714.808,373.942,699.921,390.609,692.477,398.942L685.034,407.275" class="er relationshipLine"/><path style="stroke: gray; fill: none;" marker-start="url(#ONLY_ONE_START)" marker-end="url(#ZERO_OR_MORE_END)" d="M615.168,70.388L663.413,82.823C711.659,95.258,808.15,120.129,856.395,150.254C904.641,180.379,904.641,215.758,904.641,251.138C904.641,286.517,904.641,321.896,877.821,351.461C851.001,381.025,797.362,404.775,770.542,416.65L743.723,428.524" class="er relationshipLine"/><g transform="translate(20,195 )" id="entity-kachatthreads-027cc754-81bb-5b43-85bf-3e5b7014183c"><rect height="112.27539253234863" width="180.78125" y="0" x="0" class="er entityBox"/><text style="dominant-baseline: middle; text-anchor: middle; font-size: 12px;" transform="translate(90.390625,12)" y="0" x="0" id="text-entity-kachatthreads-027cc754-81bb-5b43-85bf-3e5b7014183c" class="er entityLabel">ka_chat_threads</text><rect height="22" width="63.515625" y="24" x="0" class="er attributeBoxOdd"/><text style="dominant-baseline: middle; font-size: 10.2px;" transform="translate(5,35)" y="0" x="0" id="text-entity-kachatthreads-027cc754-81bb-5b43-85bf-3e5b7014183c-attr-1-type" class="er entityLabel">int8</text><rect height="22" width="62.34375" y="24" x="63.515625" class="er attributeBoxOdd"/><text style="dominant-baseline: middle; font-size: 10.2px;" transform="translate(68.515625,35)" y="0" x="0" id="text-entity-kachatthreads-027cc754-81bb-5b43-85bf-3e5b7014183c-attr-1-name" class="er entityLabel">id</text><rect height="22" width="21.5625" y="24" x="125.859375" class="er attributeBoxOdd"/><text style="dominant-baseline: middle; font-size: 10.2px;" transform="translate(130.859375,35)" y="0" x="0" id="text-entity-kachatthreads-027cc754-81bb-5b43-85bf-3e5b7014183c-attr-1-key" class="er entityLabel">PK</text><rect height="22" width="33.359375" y="24" x="147.421875" class="er attributeBoxOdd"/><text style="dominant-baseline: middle; font-size: 10.2px;" transform="translate(152.421875,35)" y="0" x="0" id="text-entity-kachatthreads-027cc754-81bb-5b43-85bf-3e5b7014183c-attr-1-comment" class="er entityLabel"/><rect height="22.091797828674316" width="63.515625" y="46" x="0" class="er attributeBoxEven"/><text style="dominant-baseline: middle; font-size: 10.2px;" transform="translate(5,57.04589891433716)" y="0" x="0" id="text-entity-kachatthreads-027cc754-81bb-5b43-85bf-3e5b7014183c-attr-2-type" class="er entityLabel">timestampz</text><rect height="22.091797828674316" width="62.34375" y="46" x="63.515625" class="er attributeBoxEven"/><text style="dominant-baseline: middle; font-size: 10.2px;" transform="translate(68.515625,57.04589891433716)" y="0" x="0" id="text-entity-kachatthreads-027cc754-81bb-5b43-85bf-3e5b7014183c-attr-2-name" class="er entityLabel">created_at</text><rect height="22.091797828674316" width="21.5625" y="46" x="125.859375" class="er attributeBoxEven"/><text style="dominant-baseline: middle; font-size: 10.2px;" transform="translate(130.859375,57.04589891433716)" y="0" x="0" id="text-entity-kachatthreads-027cc754-81bb-5b43-85bf-3e5b7014183c-attr-2-key" class="er entityLabel"/><rect height="22.091797828674316" width="33.359375" y="46" x="147.421875" class="er attributeBoxEven"/><text style="dominant-baseline: middle; font-size: 10.2px;" transform="translate(152.421875,57.04589891433716)" y="0" x="0" id="text-entity-kachatthreads-027cc754-81bb-5b43-85bf-3e5b7014183c-attr-2-comment" class="er entityLabel"/><rect height="22.091796875" width="63.515625" y="68.09179782867432" x="0" class="er attributeBoxOdd"/><text style="dominant-baseline: middle; font-size: 10.2px;" transform="translate(5,79.13769626617432)" y="0" x="0" id="text-entity-kachatthreads-027cc754-81bb-5b43-85bf-3e5b7014183c-attr-3-type" class="er entityLabel">udid</text><rect height="22.091796875" width="62.34375" y="68.09179782867432" x="63.515625" class="er attributeBoxOdd"/><text style="dominant-baseline: middle; font-size: 10.2px;" transform="translate(68.515625,79.13769626617432)" y="0" x="0" id="text-entity-kachatthreads-027cc754-81bb-5b43-85bf-3e5b7014183c-attr-3-name" class="er entityLabel">created_by</text><rect height="22.091796875" width="21.5625" y="68.09179782867432" x="125.859375" class="er attributeBoxOdd"/><text style="dominant-baseline: middle; font-size: 10.2px;" transform="translate(130.859375,79.13769626617432)" y="0" x="0" id="text-entity-kachatthreads-027cc754-81bb-5b43-85bf-3e5b7014183c-attr-3-key" class="er entityLabel">FK</text><rect height="22.091796875" width="33.359375" y="68.09179782867432" x="147.421875" class="er attributeBoxOdd"/><text style="dominant-baseline: middle; font-size: 10.2px;" transform="translate(152.421875,79.13769626617432)" y="0" x="0" id="text-entity-kachatthreads-027cc754-81bb-5b43-85bf-3e5b7014183c-attr-3-comment" class="er entityLabel">users</text><rect height="22.091797828674316" width="63.515625" y="90.18359470367432" x="0" class="er attributeBoxEven"/><text style="dominant-baseline: middle; font-size: 10.2px;" transform="translate(5,101.22949361801147)" y="0" x="0" id="text-entity-kachatthreads-027cc754-81bb-5b43-85bf-3e5b7014183c-attr-4-type" class="er entityLabel">timestampz</text><rect height="22.091797828674316" width="62.34375" y="90.18359470367432" x="63.515625" class="er attributeBoxEven"/><text style="dominant-baseline: middle; font-size: 10.2px;" transform="translate(68.515625,101.22949361801147)" y="0" x="0" id="text-entity-kachatthreads-027cc754-81bb-5b43-85bf-3e5b7014183c-attr-4-name" class="er entityLabel">updated_at</text><rect height="22.091797828674316" width="21.5625" y="90.18359470367432" x="125.859375" class="er attributeBoxEven"/><text style="dominant-baseline: middle; font-size: 10.2px;" transform="translate(130.859375,101.22949361801147)" y="0" x="0" id="text-entity-kachatthreads-027cc754-81bb-5b43-85bf-3e5b7014183c-attr-4-key" class="er entityLabel"/><rect height="22.091797828674316" width="33.359375" y="90.18359470367432" x="147.421875" class="er attributeBoxEven"/><text style="dominant-baseline: middle; font-size: 10.2px;" transform="translate(152.421875,101.22949361801147)" y="0" x="0" id="text-entity-kachatthreads-027cc754-81bb-5b43-85bf-3e5b7014183c-attr-4-comment" class="er entityLabel"/></g><g transform="translate(515.16796875,20 )" id="entity-users-33ae1e26-be31-5c1d-bf65-e859e9d0308e"><rect height="75" width="100" y="0" x="0" class="er entityBox"/><text style="dominant-baseline: middle; text-anchor: middle; font-size: 12px;" transform="translate(50,37.5)" y="0" x="0" id="text-entity-users-33ae1e26-be31-5c1d-bf65-e859e9d0308e" class="er entityLabel">users</text></g><g transform="translate(26.0390625,418.3212890625 )" id="entity-kachatmessages-be0f7a45-9b3d-5ef7-ac29-21967634134b"><rect height="134.18359470367432" width="230.609375" y="0" x="0" class="er entityBox"/><text style="dominant-baseline: middle; text-anchor: middle; font-size: 12px;" transform="translate(115.3046875,12)" y="0" x="0" id="text-entity-kachatmessages-be0f7a45-9b3d-5ef7-ac29-21967634134b" class="er entityLabel">ka_chat_messages</text><rect height="22" width="63.515625" y="24" x="0" class="er attributeBoxOdd"/><text style="dominant-baseline: middle; font-size: 10.2px;" transform="translate(5,35)" y="0" x="0" id="text-entity-kachatmessages-be0f7a45-9b3d-5ef7-ac29-21967634134b-attr-1-type" class="er entityLabel">int8</text><rect height="22" width="59.984375" y="24" x="63.515625" class="er attributeBoxOdd"/><text style="dominant-baseline: middle; font-size: 10.2px;" transform="translate(68.515625,35)" y="0" x="0" id="text-entity-kachatmessages-be0f7a45-9b3d-5ef7-ac29-21967634134b-attr-1-name" class="er entityLabel">id</text><rect height="22" width="21.5625" y="24" x="123.5" class="er attributeBoxOdd"/><text style="dominant-baseline: middle; font-size: 10.2px;" transform="translate(128.5,35)" y="0" x="0" id="text-entity-kachatmessages-be0f7a45-9b3d-5ef7-ac29-21967634134b-attr-1-key" class="er entityLabel">PK</text><rect height="22" width="85.546875" y="24" x="145.0625" class="er attributeBoxOdd"/><text style="dominant-baseline: middle; font-size: 10.2px;" transform="translate(150.0625,35)" y="0" x="0" id="text-entity-kachatmessages-be0f7a45-9b3d-5ef7-ac29-21967634134b-attr-1-comment" class="er entityLabel"/><rect height="22.091797828674316" width="63.515625" y="46" x="0" class="er attributeBoxEven"/><text style="dominant-baseline: middle; font-size: 10.2px;" transform="translate(5,57.04589891433716)" y="0" x="0" id="text-entity-kachatmessages-be0f7a45-9b3d-5ef7-ac29-21967634134b-attr-2-type" class="er entityLabel">timestampz</text><rect height="22.091797828674316" width="59.984375" y="46" x="63.515625" class="er attributeBoxEven"/><text style="dominant-baseline: middle; font-size: 10.2px;" transform="translate(68.515625,57.04589891433716)" y="0" x="0" id="text-entity-kachatmessages-be0f7a45-9b3d-5ef7-ac29-21967634134b-attr-2-name" class="er entityLabel">created_at</text><rect height="22.091797828674316" width="21.5625" y="46" x="123.5" class="er attributeBoxEven"/><text style="dominant-baseline: middle; font-size: 10.2px;" transform="translate(128.5,57.04589891433716)" y="0" x="0" id="text-entity-kachatmessages-be0f7a45-9b3d-5ef7-ac29-21967634134b-attr-2-key" class="er entityLabel"/><rect height="22.091797828674316" width="85.546875" y="46" x="145.0625" class="er attributeBoxEven"/><text style="dominant-baseline: middle; font-size: 10.2px;" transform="translate(150.0625,57.04589891433716)" y="0" x="0" id="text-entity-kachatmessages-be0f7a45-9b3d-5ef7-ac29-21967634134b-attr-2-comment" class="er entityLabel"/><rect height="22" width="63.515625" y="68.09179782867432" x="0" class="er attributeBoxOdd"/><text style="dominant-baseline: middle; font-size: 10.2px;" transform="translate(5,79.09179782867432)" y="0" x="0" id="text-entity-kachatmessages-be0f7a45-9b3d-5ef7-ac29-21967634134b-attr-3-type" class="er entityLabel">int8</text><rect height="22" width="59.984375" y="68.09179782867432" x="63.515625" class="er attributeBoxOdd"/><text style="dominant-baseline: middle; font-size: 10.2px;" transform="translate(68.515625,79.09179782867432)" y="0" x="0" id="text-entity-kachatmessages-be0f7a45-9b3d-5ef7-ac29-21967634134b-attr-3-name" class="er entityLabel">thread_id</text><rect height="22" width="21.5625" y="68.09179782867432" x="123.5" class="er attributeBoxOdd"/><text style="dominant-baseline: middle; font-size: 10.2px;" transform="translate(128.5,79.09179782867432)" y="0" x="0" id="text-entity-kachatmessages-be0f7a45-9b3d-5ef7-ac29-21967634134b-attr-3-key" class="er entityLabel">FK</text><rect height="22" width="85.546875" y="68.09179782867432" x="145.0625" class="er attributeBoxOdd"/><text style="dominant-baseline: middle; font-size: 10.2px;" transform="translate(150.0625,79.09179782867432)" y="0" x="0" id="text-entity-kachatmessages-be0f7a45-9b3d-5ef7-ac29-21967634134b-attr-3-comment" class="er entityLabel">ka_chat_threads</text><rect height="22" width="63.515625" y="90.09179782867432" x="0" class="er attributeBoxEven"/><text style="dominant-baseline: middle; font-size: 10.2px;" transform="translate(5,101.09179782867432)" y="0" x="0" id="text-entity-kachatmessages-be0f7a45-9b3d-5ef7-ac29-21967634134b-attr-4-type" class="er entityLabel">udid</text><rect height="22" width="59.984375" y="90.09179782867432" x="63.515625" class="er attributeBoxEven"/><text style="dominant-baseline: middle; font-size: 10.2px;" transform="translate(68.515625,101.09179782867432)" y="0" x="0" id="text-entity-kachatmessages-be0f7a45-9b3d-5ef7-ac29-21967634134b-attr-4-name" class="er entityLabel">user_id</text><rect height="22" width="21.5625" y="90.09179782867432" x="123.5" class="er attributeBoxEven"/><text style="dominant-baseline: middle; font-size: 10.2px;" transform="translate(128.5,101.09179782867432)" y="0" x="0" id="text-entity-kachatmessages-be0f7a45-9b3d-5ef7-ac29-21967634134b-attr-4-key" class="er entityLabel">FK</text><rect height="22" width="85.546875" y="90.09179782867432" x="145.0625" class="er attributeBoxEven"/><text style="dominant-baseline: middle; font-size: 10.2px;" transform="translate(150.0625,101.09179782867432)" y="0" x="0" id="text-entity-kachatmessages-be0f7a45-9b3d-5ef7-ac29-21967634134b-attr-4-comment" class="er entityLabel">users</text><rect height="22.091796875" width="63.515625" y="112.09179782867432" x="0" class="er attributeBoxOdd"/><text style="dominant-baseline: middle; font-size: 10.2px;" transform="translate(5,123.13769626617432)" y="0" x="0" id="text-entity-kachatmessages-be0f7a45-9b3d-5ef7-ac29-21967634134b-attr-5-type" class="er entityLabel">text</text><rect height="22.091796875" width="59.984375" y="112.09179782867432" x="63.515625" class="er attributeBoxOdd"/><text style="dominant-baseline: middle; font-size: 10.2px;" transform="translate(68.515625,123.13769626617432)" y="0" x="0" id="text-entity-kachatmessages-be0f7a45-9b3d-5ef7-ac29-21967634134b-attr-5-name" class="er entityLabel">message</text><rect height="22.091796875" width="21.5625" y="112.09179782867432" x="123.5" class="er attributeBoxOdd"/><text style="dominant-baseline: middle; font-size: 10.2px;" transform="translate(128.5,123.13769626617432)" y="0" x="0" id="text-entity-kachatmessages-be0f7a45-9b3d-5ef7-ac29-21967634134b-attr-5-key" class="er entityLabel"/><rect height="22.091796875" width="85.546875" y="112.09179782867432" x="145.0625" class="er attributeBoxOdd"/><text style="dominant-baseline: middle; font-size: 10.2px;" transform="translate(150.0625,123.13769626617432)" y="0" x="0" id="text-entity-kachatmessages-be0f7a45-9b3d-5ef7-ac29-21967634134b-attr-5-comment" class="er entityLabel"/></g><g transform="translate(436.9921875,663.55078125 )" id="entity-kachatunreadstatuses-e13b2535-dabb-56ba-a319-9a3c7784353e"><rect height="134.18359565734863" width="241.046875" y="0" x="0" class="er entityBox"/><text style="dominant-baseline: middle; text-anchor: middle; font-size: 12px;" transform="translate(120.5234375,12)" y="0" x="0" id="text-entity-kachatunreadstatuses-e13b2535-dabb-56ba-a319-9a3c7784353e" class="er entityLabel">ka_chat_unread_statuses</text><rect height="22" width="63.515625" y="24" x="0" class="er attributeBoxOdd"/><text style="dominant-baseline: middle; font-size: 10.2px;" transform="translate(5,35)" y="0" x="0" id="text-entity-kachatunreadstatuses-e13b2535-dabb-56ba-a319-9a3c7784353e-attr-1-type" class="er entityLabel">int8</text><rect height="22" width="62.28125" y="24" x="63.515625" class="er attributeBoxOdd"/><text style="dominant-baseline: middle; font-size: 10.2px;" transform="translate(68.515625,35)" y="0" x="0" id="text-entity-kachatunreadstatuses-e13b2535-dabb-56ba-a319-9a3c7784353e-attr-1-name" class="er entityLabel">id</text><rect height="22" width="21.5625" y="24" x="125.796875" class="er attributeBoxOdd"/><text style="dominant-baseline: middle; font-size: 10.2px;" transform="translate(130.796875,35)" y="0" x="0" id="text-entity-kachatunreadstatuses-e13b2535-dabb-56ba-a319-9a3c7784353e-attr-1-key" class="er entityLabel">PK</text><rect height="22" width="93.6875" y="24" x="147.359375" class="er attributeBoxOdd"/><text style="dominant-baseline: middle; font-size: 10.2px;" transform="translate(152.359375,35)" y="0" x="0" id="text-entity-kachatunreadstatuses-e13b2535-dabb-56ba-a319-9a3c7784353e-attr-1-comment" class="er entityLabel"/><rect height="22.091797828674316" width="63.515625" y="46" x="0" class="er attributeBoxEven"/><text style="dominant-baseline: middle; font-size: 10.2px;" transform="translate(5,57.04589891433716)" y="0" x="0" id="text-entity-kachatunreadstatuses-e13b2535-dabb-56ba-a319-9a3c7784353e-attr-2-type" class="er entityLabel">timestampz</text><rect height="22.091797828674316" width="62.28125" y="46" x="63.515625" class="er attributeBoxEven"/><text style="dominant-baseline: middle; font-size: 10.2px;" transform="translate(68.515625,57.04589891433716)" y="0" x="0" id="text-entity-kachatunreadstatuses-e13b2535-dabb-56ba-a319-9a3c7784353e-attr-2-name" class="er entityLabel">created_at</text><rect height="22.091797828674316" width="21.5625" y="46" x="125.796875" class="er attributeBoxEven"/><text style="dominant-baseline: middle; font-size: 10.2px;" transform="translate(130.796875,57.04589891433716)" y="0" x="0" id="text-entity-kachatunreadstatuses-e13b2535-dabb-56ba-a319-9a3c7784353e-attr-2-key" class="er entityLabel"/><rect height="22.091797828674316" width="93.6875" y="46" x="147.359375" class="er attributeBoxEven"/><text style="dominant-baseline: middle; font-size: 10.2px;" transform="translate(152.359375,57.04589891433716)" y="0" x="0" id="text-entity-kachatunreadstatuses-e13b2535-dabb-56ba-a319-9a3c7784353e-attr-2-comment" class="er entityLabel"/><rect height="22.091797828674316" width="63.515625" y="68.09179782867432" x="0" class="er attributeBoxOdd"/><text style="dominant-baseline: middle; font-size: 10.2px;" transform="translate(5,79.13769674301147)" y="0" x="0" id="text-entity-kachatunreadstatuses-e13b2535-dabb-56ba-a319-9a3c7784353e-attr-3-type" class="er entityLabel">int8</text><rect height="22.091797828674316" width="62.28125" y="68.09179782867432" x="63.515625" class="er attributeBoxOdd"/><text style="dominant-baseline: middle; font-size: 10.2px;" transform="translate(68.515625,79.13769674301147)" y="0" x="0" id="text-entity-kachatunreadstatuses-e13b2535-dabb-56ba-a319-9a3c7784353e-attr-3-name" class="er entityLabel">message_id</text><rect height="22.091797828674316" width="21.5625" y="68.09179782867432" x="125.796875" class="er attributeBoxOdd"/><text style="dominant-baseline: middle; font-size: 10.2px;" transform="translate(130.796875,79.13769674301147)" y="0" x="0" id="text-entity-kachatunreadstatuses-e13b2535-dabb-56ba-a319-9a3c7784353e-attr-3-key" class="er entityLabel">FK</text><rect height="22.091797828674316" width="93.6875" y="68.09179782867432" x="147.359375" class="er attributeBoxOdd"/><text style="dominant-baseline: middle; font-size: 10.2px;" transform="translate(152.359375,79.13769674301147)" y="0" x="0" id="text-entity-kachatunreadstatuses-e13b2535-dabb-56ba-a319-9a3c7784353e-attr-3-comment" class="er entityLabel">ka_chat_messages</text><rect height="22" width="63.515625" y="90.18359565734863" x="0" class="er attributeBoxEven"/><text style="dominant-baseline: middle; font-size: 10.2px;" transform="translate(5,101.18359565734863)" y="0" x="0" id="text-entity-kachatunreadstatuses-e13b2535-dabb-56ba-a319-9a3c7784353e-attr-4-type" class="er entityLabel">udid</text><rect height="22" width="62.28125" y="90.18359565734863" x="63.515625" class="er attributeBoxEven"/><text style="dominant-baseline: middle; font-size: 10.2px;" transform="translate(68.515625,101.18359565734863)" y="0" x="0" id="text-entity-kachatunreadstatuses-e13b2535-dabb-56ba-a319-9a3c7784353e-attr-4-name" class="er entityLabel">user_id</text><rect height="22" width="21.5625" y="90.18359565734863" x="125.796875" class="er attributeBoxEven"/><text style="dominant-baseline: middle; font-size: 10.2px;" transform="translate(130.796875,101.18359565734863)" y="0" x="0" id="text-entity-kachatunreadstatuses-e13b2535-dabb-56ba-a319-9a3c7784353e-attr-4-key" class="er entityLabel">FK</text><rect height="22" width="93.6875" y="90.18359565734863" x="147.359375" class="er attributeBoxEven"/><text style="dominant-baseline: middle; font-size: 10.2px;" transform="translate(152.359375,101.18359565734863)" y="0" x="0" id="text-entity-kachatunreadstatuses-e13b2535-dabb-56ba-a319-9a3c7784353e-attr-4-comment" class="er entityLabel">users</text><rect height="22" width="63.515625" y="112.18359565734863" x="0" class="er attributeBoxOdd"/><text style="dominant-baseline: middle; font-size: 10.2px;" transform="translate(5,123.18359565734863)" y="0" x="0" id="text-entity-kachatunreadstatuses-e13b2535-dabb-56ba-a319-9a3c7784353e-attr-5-type" class="er entityLabel">bool</text><rect height="22" width="62.28125" y="112.18359565734863" x="63.515625" class="er attributeBoxOdd"/><text style="dominant-baseline: middle; font-size: 10.2px;" transform="translate(68.515625,123.18359565734863)" y="0" x="0" id="text-entity-kachatunreadstatuses-e13b2535-dabb-56ba-a319-9a3c7784353e-attr-5-name" class="er entityLabel">status</text><rect height="22" width="21.5625" y="112.18359565734863" x="125.796875" class="er attributeBoxOdd"/><text style="dominant-baseline: middle; font-size: 10.2px;" transform="translate(130.796875,123.18359565734863)" y="0" x="0" id="text-entity-kachatunreadstatuses-e13b2535-dabb-56ba-a319-9a3c7784353e-attr-5-key" class="er entityLabel"/><rect height="22" width="93.6875" y="112.18359565734863" x="147.359375" class="er attributeBoxOdd"/><text style="dominant-baseline: middle; font-size: 10.2px;" transform="translate(152.359375,123.18359565734863)" y="0" x="0" id="text-entity-kachatunreadstatuses-e13b2535-dabb-56ba-a319-9a3c7784353e-attr-5-comment" class="er entityLabel"/></g><g transform="translate(486.75390625,407.275390625 )" id="entity-kachatthreadmembers-e730034e-2308-5d6e-a6ea-acfee5b22f2f"><rect height="156.27539253234863" width="256.96875" y="0" x="0" class="er entityBox"/><text style="dominant-baseline: middle; text-anchor: middle; font-size: 12px;" transform="translate(128.484375,12)" y="0" x="0" id="text-entity-kachatthreadmembers-e730034e-2308-5d6e-a6ea-acfee5b22f2f" class="er entityLabel">ka_chat_thread_members</text><rect height="22" width="63.515625" y="24" x="0" class="er attributeBoxOdd"/><text style="dominant-baseline: middle; font-size: 10.2px;" transform="translate(5,35)" y="0" x="0" id="text-entity-kachatthreadmembers-e730034e-2308-5d6e-a6ea-acfee5b22f2f-attr-1-type" class="er entityLabel">int8</text><rect height="22" width="59.984375" y="24" x="63.515625" class="er attributeBoxOdd"/><text style="dominant-baseline: middle; font-size: 10.2px;" transform="translate(68.515625,35)" y="0" x="0" id="text-entity-kachatthreadmembers-e730034e-2308-5d6e-a6ea-acfee5b22f2f-attr-1-name" class="er entityLabel">id</text><rect height="22" width="21.5625" y="24" x="123.5" class="er attributeBoxOdd"/><text style="dominant-baseline: middle; font-size: 10.2px;" transform="translate(128.5,35)" y="0" x="0" id="text-entity-kachatthreadmembers-e730034e-2308-5d6e-a6ea-acfee5b22f2f-attr-1-key" class="er entityLabel">PK</text><rect height="22" width="111.90625" y="24" x="145.0625" class="er attributeBoxOdd"/><text style="dominant-baseline: middle; font-size: 10.2px;" transform="translate(150.0625,35)" y="0" x="0" id="text-entity-kachatthreadmembers-e730034e-2308-5d6e-a6ea-acfee5b22f2f-attr-1-comment" class="er entityLabel"/><rect height="22.091797828674316" width="63.515625" y="46" x="0" class="er attributeBoxEven"/><text style="dominant-baseline: middle; font-size: 10.2px;" transform="translate(5,57.04589891433716)" y="0" x="0" id="text-entity-kachatthreadmembers-e730034e-2308-5d6e-a6ea-acfee5b22f2f-attr-2-type" class="er entityLabel">timestampz</text><rect height="22.091797828674316" width="59.984375" y="46" x="63.515625" class="er attributeBoxEven"/><text style="dominant-baseline: middle; font-size: 10.2px;" transform="translate(68.515625,57.04589891433716)" y="0" x="0" id="text-entity-kachatthreadmembers-e730034e-2308-5d6e-a6ea-acfee5b22f2f-attr-2-name" class="er entityLabel">created_at</text><rect height="22.091797828674316" width="21.5625" y="46" x="123.5" class="er attributeBoxEven"/><text style="dominant-baseline: middle; font-size: 10.2px;" transform="translate(128.5,57.04589891433716)" y="0" x="0" id="text-entity-kachatthreadmembers-e730034e-2308-5d6e-a6ea-acfee5b22f2f-attr-2-key" class="er entityLabel"/><rect height="22.091797828674316" width="111.90625" y="46" x="145.0625" class="er attributeBoxEven"/><text style="dominant-baseline: middle; font-size: 10.2px;" transform="translate(150.0625,57.04589891433716)" y="0" x="0" id="text-entity-kachatthreadmembers-e730034e-2308-5d6e-a6ea-acfee5b22f2f-attr-2-comment" class="er entityLabel"/><rect height="22" width="63.515625" y="68.09179782867432" x="0" class="er attributeBoxOdd"/><text style="dominant-baseline: middle; font-size: 10.2px;" transform="translate(5,79.09179782867432)" y="0" x="0" id="text-entity-kachatthreadmembers-e730034e-2308-5d6e-a6ea-acfee5b22f2f-attr-3-type" class="er entityLabel">int8</text><rect height="22" width="59.984375" y="68.09179782867432" x="63.515625" class="er attributeBoxOdd"/><text style="dominant-baseline: middle; font-size: 10.2px;" transform="translate(68.515625,79.09179782867432)" y="0" x="0" id="text-entity-kachatthreadmembers-e730034e-2308-5d6e-a6ea-acfee5b22f2f-attr-3-name" class="er entityLabel">thread_id</text><rect height="22" width="21.5625" y="68.09179782867432" x="123.5" class="er attributeBoxOdd"/><text style="dominant-baseline: middle; font-size: 10.2px;" transform="translate(128.5,79.09179782867432)" y="0" x="0" id="text-entity-kachatthreadmembers-e730034e-2308-5d6e-a6ea-acfee5b22f2f-attr-3-key" class="er entityLabel">FK</text><rect height="22" width="111.90625" y="68.09179782867432" x="145.0625" class="er attributeBoxOdd"/><text style="dominant-baseline: middle; font-size: 10.2px;" transform="translate(150.0625,79.09179782867432)" y="0" x="0" id="text-entity-kachatthreadmembers-e730034e-2308-5d6e-a6ea-acfee5b22f2f-attr-3-comment" class="er entityLabel">ka_chat_threads</text><rect height="22" width="63.515625" y="90.09179782867432" x="0" class="er attributeBoxEven"/><text style="dominant-baseline: middle; font-size: 10.2px;" transform="translate(5,101.09179782867432)" y="0" x="0" id="text-entity-kachatthreadmembers-e730034e-2308-5d6e-a6ea-acfee5b22f2f-attr-4-type" class="er entityLabel">udid</text><rect height="22" width="59.984375" y="90.09179782867432" x="63.515625" class="er attributeBoxEven"/><text style="dominant-baseline: middle; font-size: 10.2px;" transform="translate(68.515625,101.09179782867432)" y="0" x="0" id="text-entity-kachatthreadmembers-e730034e-2308-5d6e-a6ea-acfee5b22f2f-attr-4-name" class="er entityLabel">user_id</text><rect height="22" width="21.5625" y="90.09179782867432" x="123.5" class="er attributeBoxEven"/><text style="dominant-baseline: middle; font-size: 10.2px;" transform="translate(128.5,101.09179782867432)" y="0" x="0" id="text-entity-kachatthreadmembers-e730034e-2308-5d6e-a6ea-acfee5b22f2f-attr-4-key" class="er entityLabel">FK</text><rect height="22" width="111.90625" y="90.09179782867432" x="145.0625" class="er attributeBoxEven"/><text style="dominant-baseline: middle; font-size: 10.2px;" transform="translate(150.0625,101.09179782867432)" y="0" x="0" id="text-entity-kachatthreadmembers-e730034e-2308-5d6e-a6ea-acfee5b22f2f-attr-4-comment" class="er entityLabel">users</text><rect height="22.091797828674316" width="63.515625" y="112.09179782867432" x="0" class="er attributeBoxOdd"/><text style="dominant-baseline: middle; font-size: 10.2px;" transform="translate(5,123.13769674301147)" y="0" x="0" id="text-entity-kachatthreadmembers-e730034e-2308-5d6e-a6ea-acfee5b22f2f-attr-5-type" class="er entityLabel">int8</text><rect height="22.091797828674316" width="59.984375" y="112.09179782867432" x="63.515625" class="er attributeBoxOdd"/><text style="dominant-baseline: middle; font-size: 10.2px;" transform="translate(68.515625,123.13769674301147)" y="0" x="0" id="text-entity-kachatthreadmembers-e730034e-2308-5d6e-a6ea-acfee5b22f2f-attr-5-name" class="er entityLabel">group_id</text><rect height="22.091797828674316" width="21.5625" y="112.09179782867432" x="123.5" class="er attributeBoxOdd"/><text style="dominant-baseline: middle; font-size: 10.2px;" transform="translate(128.5,123.13769674301147)" y="0" x="0" id="text-entity-kachatthreadmembers-e730034e-2308-5d6e-a6ea-acfee5b22f2f-attr-5-key" class="er entityLabel">FK</text><rect height="22.091797828674316" width="111.90625" y="112.09179782867432" x="145.0625" class="er attributeBoxOdd"/><text style="dominant-baseline: middle; font-size: 10.2px;" transform="translate(150.0625,123.13769674301147)" y="0" x="0" id="text-entity-kachatthreadmembers-e730034e-2308-5d6e-a6ea-acfee5b22f2f-attr-5-comment" class="er entityLabel">ka_user_group</text><rect height="22.091796875" width="63.515625" y="134.18359565734863" x="0" class="er attributeBoxEven"/><text style="dominant-baseline: middle; font-size: 10.2px;" transform="translate(5,145.22949409484863)" y="0" x="0" id="text-entity-kachatthreadmembers-e730034e-2308-5d6e-a6ea-acfee5b22f2f-attr-6-type" class="er entityLabel">int8</text><rect height="22.091796875" width="59.984375" y="134.18359565734863" x="63.515625" class="er attributeBoxEven"/><text style="dominant-baseline: middle; font-size: 10.2px;" transform="translate(68.515625,145.22949409484863)" y="0" x="0" id="text-entity-kachatthreadmembers-e730034e-2308-5d6e-a6ea-acfee5b22f2f-attr-6-name" class="er entityLabel">role_id</text><rect height="22.091796875" width="21.5625" y="134.18359565734863" x="123.5" class="er attributeBoxEven"/><text style="dominant-baseline: middle; font-size: 10.2px;" transform="translate(128.5,145.22949409484863)" y="0" x="0" id="text-entity-kachatthreadmembers-e730034e-2308-5d6e-a6ea-acfee5b22f2f-attr-6-key" class="er entityLabel">FK</text><rect height="22.091796875" width="111.90625" y="134.18359565734863" x="145.0625" class="er attributeBoxEven"/><text style="dominant-baseline: middle; font-size: 10.2px;" transform="translate(150.0625,145.22949409484863)" y="0" x="0" id="text-entity-kachatthreadmembers-e730034e-2308-5d6e-a6ea-acfee5b22f2f-attr-6-comment" class="er entityLabel">ka_group_role_master</text></g><g transform="translate(446.8125,213.6376953125 )" id="entity-kausergroup-8495afc3-3619-51a2-b497-e42518af79af"><rect height="75" width="107.9375" y="0" x="0" class="er entityBox"/><text style="dominant-baseline: middle; text-anchor: middle; font-size: 12px;" transform="translate(53.96875,37.5)" y="0" x="0" id="text-entity-kausergroup-8495afc3-3619-51a2-b497-e42518af79af" class="er entityLabel">ka_user_group</text></g><g transform="translate(654.75,213.6376953125 )" id="entity-kagrouprolemaster-9617801a-b97d-5821-9420-a306ec16140a"><rect height="75" width="149.890625" y="0" x="0" class="er entityBox"/><text style="dominant-baseline: middle; text-anchor: middle; font-size: 12px;" transform="translate(74.9453125,37.5)" y="0" x="0" id="text-entity-kagrouprolemaster-9617801a-b97d-5821-9420-a306ec16140a" class="er entityLabel">ka_group_role_master</text></g><rect height="0" width="0" y="110.01005554199219" x="299.2471923828125" class="er relationshipLabelBox"/><text style="text-anchor: middle; dominant-baseline: middle; font-size: 12px;" y="110.01005554199219" x="299.2471923828125" id="rel1" class="er relationshipLabel"/><rect height="0" width="0" y="363.3499450683594" x="113.44715881347656" class="er relationshipLabelBox"/><text style="text-anchor: middle; dominant-baseline: middle; font-size: 12px;" y="363.3499450683594" x="113.44715881347656" id="rel2" class="er relationshipLabel"/><rect height="0" width="0" y="195.67282104492188" x="306.1258239746094" class="er relationshipLabelBox"/><text style="text-anchor: middle; dominant-baseline: middle; font-size: 12px;" y="195.67282104492188" x="306.1258239746094" id="rel3" class="er relationshipLabel"/><rect height="0" width="0" y="647.8352661132812" x="270.434326171875" class="er relationshipLabelBox"/><text style="text-anchor: middle; dominant-baseline: middle; font-size: 12px;" y="647.8352661132812" x="270.434326171875" id="rel4" class="er relationshipLabel"/><rect height="0" width="0" y="349.9161071777344" x="1004.6409912109375" class="er relationshipLabelBox"/><text style="text-anchor: middle; dominant-baseline: middle; font-size: 12px;" y="349.9161071777344" x="1004.6409912109375" id="rel5" class="er relationshipLabel"/><rect height="0" width="0" y="339.1681213378906" x="347.0343933105469" class="er relationshipLabelBox"/><text style="text-anchor: middle; dominant-baseline: middle; font-size: 12px;" y="339.1681213378906" x="347.0343933105469" id="rel6" class="er relationshipLabel"/><rect height="0" width="0" y="353.66070556640625" x="508.0356750488281" class="er relationshipLabelBox"/><text style="text-anchor: middle; dominant-baseline: middle; font-size: 12px;" y="353.66070556640625" x="508.0356750488281" id="rel7" class="er relationshipLabel"/><rect height="0" width="0" y="353.6607360839844" x="722.4412841796875" class="er relationshipLabelBox"/><text style="text-anchor: middle; dominant-baseline: middle; font-size: 12px;" y="353.6607360839844" x="722.4412841796875" id="rel8" class="er relationshipLabel"/><rect height="0" width="0" y="196.33763122558594" x="897.7230224609375" class="er relationshipLabelBox"/><text style="text-anchor: middle; dominant-baseline: middle; font-size: 12px;" y="196.33763122558594" x="897.7230224609375" id="rel9" class="er relationshipLabel"/></svg>