<svg aria-roledescription="class" role="graphics-document document" viewBox="0 0 1742.66796875 1004" style="max-width: 1742.67px; background-color: white;" class="classDiagram" xmlns:xlink="http://www.w3.org/1999/xlink" xmlns="http://www.w3.org/2000/svg" width="100%" id="my-svg"><style>#my-svg{font-family:"trebuchet ms",verdana,arial,sans-serif;font-size:16px;fill:#333;}#my-svg .error-icon{fill:#552222;}#my-svg .error-text{fill:#552222;stroke:#552222;}#my-svg .edge-thickness-normal{stroke-width:1px;}#my-svg .edge-thickness-thick{stroke-width:3.5px;}#my-svg .edge-pattern-solid{stroke-dasharray:0;}#my-svg .edge-thickness-invisible{stroke-width:0;fill:none;}#my-svg .edge-pattern-dashed{stroke-dasharray:3;}#my-svg .edge-pattern-dotted{stroke-dasharray:2;}#my-svg .marker{fill:#333333;stroke:#333333;}#my-svg .marker.cross{stroke:#333333;}#my-svg svg{font-family:"trebuchet ms",verdana,arial,sans-serif;font-size:16px;}#my-svg p{margin:0;}#my-svg g.classGroup text{fill:#9370DB;stroke:none;font-family:"trebuchet ms",verdana,arial,sans-serif;font-size:10px;}#my-svg g.classGroup text .title{font-weight:bolder;}#my-svg .nodeLabel,#my-svg .edgeLabel{color:#131300;}#my-svg .edgeLabel .label rect{fill:#ECECFF;}#my-svg .label text{fill:#131300;}#my-svg .labelBkg{background:#ECECFF;}#my-svg .edgeLabel .label span{background:#ECECFF;}#my-svg .classTitle{font-weight:bolder;}#my-svg .node rect,#my-svg .node circle,#my-svg .node ellipse,#my-svg .node polygon,#my-svg .node path{fill:#ECECFF;stroke:#9370DB;stroke-width:1px;}#my-svg .divider{stroke:#9370DB;stroke-width:1;}#my-svg g.clickable{cursor:pointer;}#my-svg g.classGroup rect{fill:#ECECFF;stroke:#9370DB;}#my-svg g.classGroup line{stroke:#9370DB;stroke-width:1;}#my-svg .classLabel .box{stroke:none;stroke-width:0;fill:#ECECFF;opacity:0.5;}#my-svg .classLabel .label{fill:#9370DB;font-size:10px;}#my-svg .relation{stroke:#333333;stroke-width:1;fill:none;}#my-svg .dashed-line{stroke-dasharray:3;}#my-svg .dotted-line{stroke-dasharray:1 2;}#my-svg #compositionStart,#my-svg .composition{fill:#333333!important;stroke:#333333!important;stroke-width:1;}#my-svg #compositionEnd,#my-svg .composition{fill:#333333!important;stroke:#333333!important;stroke-width:1;}#my-svg #dependencyStart,#my-svg .dependency{fill:#333333!important;stroke:#333333!important;stroke-width:1;}#my-svg #dependencyStart,#my-svg .dependency{fill:#333333!important;stroke:#333333!important;stroke-width:1;}#my-svg #extensionStart,#my-svg .extension{fill:transparent!important;stroke:#333333!important;stroke-width:1;}#my-svg #extensionEnd,#my-svg .extension{fill:transparent!important;stroke:#333333!important;stroke-width:1;}#my-svg #aggregationStart,#my-svg .aggregation{fill:transparent!important;stroke:#333333!important;stroke-width:1;}#my-svg #aggregationEnd,#my-svg .aggregation{fill:transparent!important;stroke:#333333!important;stroke-width:1;}#my-svg #lollipopStart,#my-svg .lollipop{fill:#ECECFF!important;stroke:#333333!important;stroke-width:1;}#my-svg #lollipopEnd,#my-svg .lollipop{fill:#ECECFF!important;stroke:#333333!important;stroke-width:1;}#my-svg .edgeTerminals{font-size:11px;line-height:initial;}#my-svg .classTitleText{text-anchor:middle;font-size:18px;fill:#333;}#my-svg :root{--mermaid-font-family:"trebuchet ms",verdana,arial,sans-serif;}</style><g><defs><marker orient="auto" markerHeight="240" markerWidth="190" refY="7" refX="18" class="marker aggregation class" id="my-svg_class-aggregationStart"><path d="M 18,7 L9,13 L1,7 L9,1 Z"/></marker></defs><defs><marker orient="auto" markerHeight="28" markerWidth="20" refY="7" refX="1" class="marker aggregation class" id="my-svg_class-aggregationEnd"><path d="M 18,7 L9,13 L1,7 L9,1 Z"/></marker></defs><defs><marker orient="auto" markerHeight="240" markerWidth="190" refY="7" refX="18" class="marker extension class" id="my-svg_class-extensionStart"><path d="M 1,7 L18,13 V 1 Z"/></marker></defs><defs><marker orient="auto" markerHeight="28" markerWidth="20" refY="7" refX="1" class="marker extension class" id="my-svg_class-extensionEnd"><path d="M 1,1 V 13 L18,7 Z"/></marker></defs><defs><marker orient="auto" markerHeight="240" markerWidth="190" refY="7" refX="18" class="marker composition class" id="my-svg_class-compositionStart"><path d="M 18,7 L9,13 L1,7 L9,1 Z"/></marker></defs><defs><marker orient="auto" markerHeight="28" markerWidth="20" refY="7" refX="1" class="marker composition class" id="my-svg_class-compositionEnd"><path d="M 18,7 L9,13 L1,7 L9,1 Z"/></marker></defs><defs><marker orient="auto" markerHeight="240" markerWidth="190" refY="7" refX="6" class="marker dependency class" id="my-svg_class-dependencyStart"><path d="M 5,7 L9,13 L1,7 L9,1 Z"/></marker></defs><defs><marker orient="auto" markerHeight="28" markerWidth="20" refY="7" refX="13" class="marker dependency class" id="my-svg_class-dependencyEnd"><path d="M 18,7 L9,13 L14,7 L9,1 Z"/></marker></defs><defs><marker orient="auto" markerHeight="240" markerWidth="190" refY="7" refX="13" class="marker lollipop class" id="my-svg_class-lollipopStart"><circle r="6" cy="7" cx="7" fill="transparent" stroke="black"/></marker></defs><defs><marker orient="auto" markerHeight="240" markerWidth="190" refY="7" refX="1" class="marker lollipop class" id="my-svg_class-lollipopEnd"><circle r="6" cy="7" cx="7" fill="transparent" stroke="black"/></marker></defs><g class="root"><g class="clusters"><g data-look="classic" id="tcpip" class="cluster undefined"><rect height="134" width="409.296875" y="410" x="8" style="fill:none !important;stroke:black !important"/><g transform="translate(194.3203125, 410)" class="cluster-label"><foreignObject height="24" width="36.65625"><div style="display: table-cell; white-space: nowrap; line-height: 1.5; max-width: 200px; text-align: center;" xmlns="http://www.w3.org/1999/xhtml"><span class="nodeLabel"><p>tcpip</p></span></div></foreignObject></g></g><g data-look="classic" id="m2com" class="cluster undefined"><rect height="134" width="598.296875" y="728" x="220.93359375" style="fill:none !important;stroke:black !important"/><g transform="translate(494.34765625, 728)" class="cluster-label"><foreignObject height="24" width="51.46875"><div style="display: table-cell; white-space: nowrap; line-height: 1.5; max-width: 200px; text-align: center;" xmlns="http://www.w3.org/1999/xhtml"><span class="nodeLabel"><p>m2com</p></span></div></foreignObject></g></g></g><g class="edgePaths"><path marker-start="url(#my-svg_class-compositionStart)" style=";" class="edge-thickness-normal edge-pattern-solid relation" id="id_MockControlLoop_BiquadraticFilter_1" d="M1173.339,647.341L1095.964,656.618C1018.589,665.894,863.84,684.447,786.465,697.89C709.09,711.333,709.09,719.667,709.09,728C709.09,736.333,709.09,744.667,709.09,748.833L709.09,753"/><path marker-start="url(#my-svg_class-compositionStart)" style=";" class="edge-thickness-normal edge-pattern-solid relation" id="id_MockControlLoop_SimpleDelayFilter_2" d="M1173.28,644.321L1062.024,654.101C950.769,663.881,728.257,683.44,617.002,697.387C505.746,711.333,505.746,719.667,505.746,728C505.746,736.333,505.746,744.667,505.746,748.833L505.746,753"/><path marker-start="url(#my-svg_class-compositionStart)" style=";" class="edge-thickness-normal edge-pattern-solid relation" id="id_MockControlLoop_MockDeadbandControl_3" d="M1212.576,690.645L1210.49,692.704C1208.404,694.763,1204.231,698.882,1202.145,705.107C1200.059,711.333,1200.059,719.667,1200.059,728C1200.059,736.333,1200.059,744.667,1200.059,748.833L1200.059,753"/><path marker-start="url(#my-svg_class-compositionStart)" style=";" class="edge-thickness-normal edge-pattern-solid relation" id="id_MockControlLoop_MockGainSchedular_4" d="M1361.302,674.548L1372.787,679.29C1384.273,684.032,1407.244,693.516,1418.729,702.425C1430.215,711.333,1430.215,719.667,1430.215,728C1430.215,736.333,1430.215,744.667,1430.215,748.833L1430.215,753"/><path marker-start="url(#my-svg_class-compositionStart)" style=";" class="edge-thickness-normal edge-pattern-solid relation" id="id_MockControlLoop_MockInPosition_5" d="M1362.367,653.366L1407.35,661.638C1452.332,669.911,1542.297,686.455,1587.279,698.894C1632.262,711.333,1632.262,719.667,1632.262,728C1632.262,736.333,1632.262,744.667,1632.262,748.833L1632.262,753"/><path marker-start="url(#my-svg_class-extensionStart)" style=";" class="edge-thickness-normal edge-pattern-solid relation" id="id_ErrorHandler_MockErrorHandler_6" d="M316.738,855L316.738,856.167C316.738,857.333,316.738,859.667,316.738,865C316.738,870.333,316.738,878.667,479.824,893.158C642.909,907.65,969.079,928.3,1132.165,938.625L1295.25,948.95"/><path marker-start="url(#my-svg_class-compositionStart)" style=";" class="edge-thickness-normal edge-pattern-solid relation" id="id_MockServer_OneClientServer_7" d="M246.638,67.966L213.532,76.138C180.425,84.311,114.213,100.655,81.106,119.994C48,139.333,48,161.667,48,184C48,206.333,48,228.667,48,251C48,273.333,48,295.667,48,318C48,340.333,48,362.667,48,378C48,393.333,48,401.667,55.355,410.026C62.711,418.384,77.422,426.769,84.777,430.961L92.133,435.153"/><path marker-start="url(#my-svg_class-compositionStart)" style=";" class="edge-thickness-normal edge-pattern-solid relation" id="id_MockServer_MockModel_8" d="M392.24,67.216L427.338,75.513C462.436,83.81,532.632,100.405,567.73,119.869C602.828,139.333,602.828,161.667,602.828,184C602.828,206.333,602.828,228.667,693.524,250.008C784.22,271.349,965.612,291.699,1056.308,301.873L1147.004,312.048"/><path marker-start="url(#my-svg_class-compositionStart)" style=";" class="edge-thickness-normal edge-pattern-solid relation" id="id_MockServer_MockMessageTelemetry_9" d="M381.883,103.739L384.452,105.949C387.021,108.159,392.159,112.58,394.728,125.957C397.297,139.333,397.297,161.667,397.297,184C397.297,206.333,397.297,228.667,397.297,244C397.297,259.333,397.297,267.667,397.297,271.833L397.297,276"/><path marker-start="url(#my-svg_class-compositionStart)" style=";" class="edge-thickness-normal edge-pattern-solid relation" id="id_MockServer_MockMessageEvent_10" d="M247.023,73.936L225.316,81.114C203.608,88.291,160.193,102.645,138.485,120.989C116.777,139.333,116.777,161.667,116.777,184C116.777,206.333,116.777,228.667,119.811,244C122.844,259.333,128.911,267.667,131.944,271.833L134.978,276"/><path marker-start="url(#my-svg_class-compositionStart)" style=";" class="edge-thickness-normal edge-pattern-solid relation" id="id_MockServer_MockCommand_11" d="M391.599,76.772L409.676,83.476C427.754,90.181,463.908,103.591,481.985,114.462C500.063,125.333,500.063,133.667,500.063,137.833L500.063,142"/><path marker-start="url(#my-svg_class-compositionStart)" style=";" class="edge-thickness-normal edge-pattern-solid relation" id="id_MockMessageEvent_OneClientServer_12" d="M165.555,378L165.555,379.167C165.555,380.333,165.555,382.667,165.555,388C165.555,393.333,165.555,401.667,165.555,410C165.555,418.333,165.555,426.667,165.555,430.833L165.555,435"/><path marker-start="url(#my-svg_class-compositionStart)" style=";" class="edge-thickness-normal edge-pattern-solid relation" id="id_MockMessageTelemetry_OneClientServer_13" d="M397.297,378L397.297,379.167C397.297,380.333,397.297,382.667,397.297,388C397.297,393.333,397.297,401.667,370.91,413.462C344.523,425.258,291.75,440.515,265.363,448.144L238.977,455.773"/><path marker-end="url(#my-svg_class-dependencyEnd)" style=";" class="edge-thickness-normal edge-pattern-solid relation" id="id_MockCommand_MockMessageEvent_14" d="M432.297,203.858L405.485,211.715C378.673,219.572,325.049,235.286,292.499,246.775C259.948,258.264,248.47,265.528,242.731,269.16L236.992,272.791"/><path marker-end="url(#my-svg_class-dependencyEnd)" style=";" class="edge-thickness-normal edge-pattern-solid relation" id="id_MockCommand_MockModel_15" d="M567.828,190.395L674.867,200.496C781.905,210.597,995.982,230.798,1102.546,244.077C1209.11,257.355,1208.162,263.71,1207.687,266.888L1207.213,270.066"/><path marker-start="url(#my-svg_class-compositionStart)" style=";" class="edge-thickness-normal edge-pattern-solid relation" id="id_MockModel_MockScriptEngine_16" d="M1129.103,325.478L1034.967,335.398C940.832,345.318,752.56,365.159,658.425,379.246C564.289,393.333,564.289,401.667,564.289,410C564.289,418.333,564.289,426.667,564.289,430.833L564.289,435"/><path marker-start="url(#my-svg_class-compositionStart)" style=";" class="edge-thickness-normal edge-pattern-solid relation" id="id_MockModel_MockControlOpenLoop_17" d="M1270.87,329.764L1326.282,338.97C1381.693,348.176,1492.517,366.588,1547.928,379.961C1603.34,393.333,1603.34,401.667,1603.34,410C1603.34,418.333,1603.34,426.667,1603.34,430.833L1603.34,435"/><path marker-start="url(#my-svg_class-compositionStart)" style=";" class="edge-thickness-normal edge-pattern-solid relation" id="id_MockModel_MockControlClosedLoop_18" d="M1255.42,372.645L1257.506,374.704C1259.593,376.763,1263.765,380.882,1265.851,387.107C1267.938,393.333,1267.938,401.667,1267.938,410C1267.938,418.333,1267.938,426.667,1267.938,430.833L1267.938,435"/><path marker-start="url(#my-svg_class-compositionStart)" style=";" class="edge-thickness-normal edge-pattern-solid relation" id="id_MockModel_MockErrorHandler_19" d="M1270.974,326.887L1348.256,336.573C1425.538,346.258,1580.103,365.629,1657.386,379.481C1734.668,393.333,1734.668,401.667,1734.668,417C1734.668,432.333,1734.668,454.667,1734.668,477C1734.668,499.333,1734.668,521.667,1734.668,537C1734.668,552.333,1734.668,560.667,1734.668,576C1734.668,591.333,1734.668,613.667,1734.668,636C1734.668,658.333,1734.668,680.667,1734.668,696C1734.668,711.333,1734.668,719.667,1734.668,735C1734.668,750.333,1734.668,772.667,1734.668,795C1734.668,817.333,1734.668,839.667,1734.668,855C1734.668,870.333,1734.668,878.667,1688.023,891.523C1641.378,904.38,1548.087,921.759,1501.442,930.449L1454.797,939.139"/><path marker-start="url(#my-svg_class-compositionStart)" style=";" class="edge-thickness-normal edge-pattern-solid relation" id="id_MockModel_MockPowerSystem_20" d="M1129.221,329.104L1069.787,338.42C1010.353,347.736,891.485,366.368,832.051,379.851C772.617,393.333,772.617,401.667,772.617,410C772.617,418.333,772.617,426.667,772.617,430.833L772.617,435"/><path marker-start="url(#my-svg_class-compositionStart)" style=";" class="edge-thickness-normal edge-pattern-solid relation" id="id_MockModel_MockInnerLoopController_21" d="M1130.027,342.682L1110.015,349.735C1090.003,356.788,1049.978,370.894,1029.966,382.114C1009.953,393.333,1009.953,401.667,1009.953,410C1009.953,418.333,1009.953,426.667,1009.953,430.833L1009.953,435"/><path marker-start="url(#my-svg_class-compositionStart)" style=";" class="edge-thickness-normal edge-pattern-solid relation" id="id_MockModel_MockPlant_22" d="M1270.591,335.377L1304.161,343.647C1337.731,351.918,1404.871,368.459,1438.442,380.896C1472.012,393.333,1472.012,401.667,1472.012,417C1472.012,432.333,1472.012,454.667,1472.012,477C1472.012,499.333,1472.012,521.667,1472.012,537C1472.012,552.333,1472.012,560.667,1473.278,569C1474.543,577.333,1477.075,585.667,1478.341,589.833L1479.607,594"/><path marker-start="url(#my-svg_class-compositionStart)" style=";" class="edge-thickness-normal edge-pattern-solid relation" id="id_MockControlClosedLoop_MockControlLoop_23" d="M1267.938,537L1267.938,538.167C1267.938,539.333,1267.938,541.667,1267.938,547C1267.938,552.333,1267.938,560.667,1267.938,569C1267.938,577.333,1267.938,585.667,1267.938,589.833L1267.938,594"/><path marker-end="url(#my-svg_class-dependencyEnd)" style=";" class="edge-thickness-normal edge-pattern-solid relation" id="id_MockControlClosedLoop_MockPlant_24" d="M1369.133,501.206L1398.949,508.339C1428.766,515.471,1488.398,529.735,1518.215,541.034C1548.031,552.333,1548.031,560.667,1545.209,568.231C1542.386,575.795,1536.741,582.59,1533.918,585.987L1531.095,589.385"/><path marker-end="url(#my-svg_class-dependencyEnd)" style=";" class="edge-thickness-normal edge-pattern-dashed relation" id="id_MockControlOpenLoop_MockPlant_25" d="M1603.34,519L1603.34,523.167C1603.34,527.333,1603.34,535.667,1603.34,544C1603.34,552.333,1603.34,560.667,1594.064,570.434C1584.788,580.201,1566.235,591.402,1556.959,597.002L1547.683,602.603"/></g><g class="edgeLabels"><g class="edgeLabel"><g transform="translate(0, -12)" class="label"><foreignObject height="24" width="0"><div class="labelBkg" xmlns="http://www.w3.org/1999/xhtml" style="display: table-cell; white-space: nowrap; line-height: 1.5; max-width: 200px; text-align: center;"><span class="edgeLabel" style=";display: inline-block"></span></div></foreignObject></g></g><g class="edgeLabel"><g transform="translate(0, -12)" class="label"><foreignObject height="24" width="0"><div class="labelBkg" xmlns="http://www.w3.org/1999/xhtml" style="display: table-cell; white-space: nowrap; line-height: 1.5; max-width: 200px; text-align: center;"><span class="edgeLabel" style=";display: inline-block"></span></div></foreignObject></g></g><g class="edgeLabel"><g transform="translate(0, -12)" class="label"><foreignObject height="24" width="0"><div class="labelBkg" xmlns="http://www.w3.org/1999/xhtml" style="display: table-cell; white-space: nowrap; line-height: 1.5; max-width: 200px; text-align: center;"><span class="edgeLabel" style=";display: inline-block"></span></div></foreignObject></g></g><g class="edgeLabel"><g transform="translate(0, -12)" class="label"><foreignObject height="24" width="0"><div class="labelBkg" xmlns="http://www.w3.org/1999/xhtml" style="display: table-cell; white-space: nowrap; line-height: 1.5; max-width: 200px; text-align: center;"><span class="edgeLabel" style=";display: inline-block"></span></div></foreignObject></g></g><g class="edgeLabel"><g transform="translate(0, -12)" class="label"><foreignObject height="24" width="0"><div class="labelBkg" xmlns="http://www.w3.org/1999/xhtml" style="display: table-cell; white-space: nowrap; line-height: 1.5; max-width: 200px; text-align: center;"><span class="edgeLabel" style=";display: inline-block"></span></div></foreignObject></g></g><g class="edgeLabel"><g transform="translate(0, -12)" class="label"><foreignObject height="24" width="0"><div class="labelBkg" xmlns="http://www.w3.org/1999/xhtml" style="display: table-cell; white-space: nowrap; line-height: 1.5; max-width: 200px; text-align: center;"><span class="edgeLabel" style=";display: inline-block"></span></div></foreignObject></g></g><g class="edgeLabel"><g transform="translate(0, -12)" class="label"><foreignObject height="24" width="0"><div class="labelBkg" xmlns="http://www.w3.org/1999/xhtml" style="display: table-cell; white-space: nowrap; line-height: 1.5; max-width: 200px; text-align: center;"><span class="edgeLabel" style=";display: inline-block"></span></div></foreignObject></g></g><g class="edgeLabel"><g transform="translate(0, -12)" class="label"><foreignObject height="24" width="0"><div class="labelBkg" xmlns="http://www.w3.org/1999/xhtml" style="display: table-cell; white-space: nowrap; line-height: 1.5; max-width: 200px; text-align: center;"><span class="edgeLabel" style=";display: inline-block"></span></div></foreignObject></g></g><g class="edgeLabel"><g transform="translate(0, -12)" class="label"><foreignObject height="24" width="0"><div class="labelBkg" xmlns="http://www.w3.org/1999/xhtml" style="display: table-cell; white-space: nowrap; line-height: 1.5; max-width: 200px; text-align: center;"><span class="edgeLabel" style=";display: inline-block"></span></div></foreignObject></g></g><g class="edgeLabel"><g transform="translate(0, -12)" class="label"><foreignObject height="24" width="0"><div class="labelBkg" xmlns="http://www.w3.org/1999/xhtml" style="display: table-cell; white-space: nowrap; line-height: 1.5; max-width: 200px; text-align: center;"><span class="edgeLabel" style=";display: inline-block"></span></div></foreignObject></g></g><g class="edgeLabel"><g transform="translate(0, -12)" class="label"><foreignObject height="24" width="0"><div class="labelBkg" xmlns="http://www.w3.org/1999/xhtml" style="display: table-cell; white-space: nowrap; line-height: 1.5; max-width: 200px; text-align: center;"><span class="edgeLabel" style=";display: inline-block"></span></div></foreignObject></g></g><g class="edgeLabel"><g transform="translate(0, -12)" class="label"><foreignObject height="24" width="0"><div class="labelBkg" xmlns="http://www.w3.org/1999/xhtml" style="display: table-cell; white-space: nowrap; line-height: 1.5; max-width: 200px; text-align: center;"><span class="edgeLabel" style=";display: inline-block"></span></div></foreignObject></g></g><g class="edgeLabel"><g transform="translate(0, -12)" class="label"><foreignObject height="24" width="0"><div class="labelBkg" xmlns="http://www.w3.org/1999/xhtml" style="display: table-cell; white-space: nowrap; line-height: 1.5; max-width: 200px; text-align: center;"><span class="edgeLabel" style=";display: inline-block"></span></div></foreignObject></g></g><g class="edgeLabel"><g transform="translate(0, -12)" class="label"><foreignObject height="24" width="0"><div class="labelBkg" xmlns="http://www.w3.org/1999/xhtml" style="display: table-cell; white-space: nowrap; line-height: 1.5; max-width: 200px; text-align: center;"><span class="edgeLabel" style=";display: inline-block"></span></div></foreignObject></g></g><g class="edgeLabel"><g transform="translate(0, -12)" class="label"><foreignObject height="24" width="0"><div class="labelBkg" xmlns="http://www.w3.org/1999/xhtml" style="display: table-cell; white-space: nowrap; line-height: 1.5; max-width: 200px; text-align: center;"><span class="edgeLabel" style=";display: inline-block"></span></div></foreignObject></g></g><g class="edgeLabel"><g transform="translate(0, -12)" class="label"><foreignObject height="24" width="0"><div class="labelBkg" xmlns="http://www.w3.org/1999/xhtml" style="display: table-cell; white-space: nowrap; line-height: 1.5; max-width: 200px; text-align: center;"><span class="edgeLabel" style=";display: inline-block"></span></div></foreignObject></g></g><g class="edgeLabel"><g transform="translate(0, -12)" class="label"><foreignObject height="24" width="0"><div class="labelBkg" xmlns="http://www.w3.org/1999/xhtml" style="display: table-cell; white-space: nowrap; line-height: 1.5; max-width: 200px; text-align: center;"><span class="edgeLabel" style=";display: inline-block"></span></div></foreignObject></g></g><g class="edgeLabel"><g transform="translate(0, -12)" class="label"><foreignObject height="24" width="0"><div class="labelBkg" xmlns="http://www.w3.org/1999/xhtml" style="display: table-cell; white-space: nowrap; line-height: 1.5; max-width: 200px; text-align: center;"><span class="edgeLabel" style=";display: inline-block"></span></div></foreignObject></g></g><g class="edgeLabel"><g transform="translate(0, -12)" class="label"><foreignObject height="24" width="0"><div class="labelBkg" xmlns="http://www.w3.org/1999/xhtml" style="display: table-cell; white-space: nowrap; line-height: 1.5; max-width: 200px; text-align: center;"><span class="edgeLabel" style=";display: inline-block"></span></div></foreignObject></g></g><g class="edgeLabel"><g transform="translate(0, -12)" class="label"><foreignObject height="24" width="0"><div class="labelBkg" xmlns="http://www.w3.org/1999/xhtml" style="display: table-cell; white-space: nowrap; line-height: 1.5; max-width: 200px; text-align: center;"><span class="edgeLabel" style=";display: inline-block"></span></div></foreignObject></g></g><g class="edgeLabel"><g transform="translate(0, -12)" class="label"><foreignObject height="24" width="0"><div class="labelBkg" xmlns="http://www.w3.org/1999/xhtml" style="display: table-cell; white-space: nowrap; line-height: 1.5; max-width: 200px; text-align: center;"><span class="edgeLabel" style=";display: inline-block"></span></div></foreignObject></g></g><g class="edgeLabel"><g transform="translate(0, -12)" class="label"><foreignObject height="24" width="0"><div class="labelBkg" xmlns="http://www.w3.org/1999/xhtml" style="display: table-cell; white-space: nowrap; line-height: 1.5; max-width: 200px; text-align: center;"><span class="edgeLabel" style=";display: inline-block"></span></div></foreignObject></g></g><g class="edgeLabel"><g transform="translate(0, -12)" class="label"><foreignObject height="24" width="0"><div class="labelBkg" xmlns="http://www.w3.org/1999/xhtml" style="display: table-cell; white-space: nowrap; line-height: 1.5; max-width: 200px; text-align: center;"><span class="edgeLabel" style=";display: inline-block"></span></div></foreignObject></g></g><g class="edgeLabel"><g transform="translate(0, -12)" class="label"><foreignObject height="24" width="0"><div class="labelBkg" xmlns="http://www.w3.org/1999/xhtml" style="display: table-cell; white-space: nowrap; line-height: 1.5; max-width: 200px; text-align: center;"><span class="edgeLabel" style=";display: inline-block"></span></div></foreignObject></g></g><g class="edgeLabel"><g transform="translate(0, -12)" class="label"><foreignObject height="24" width="0"><div class="labelBkg" xmlns="http://www.w3.org/1999/xhtml" style="display: table-cell; white-space: nowrap; line-height: 1.5; max-width: 200px; text-align: center;"><span class="edgeLabel" style=";display: inline-block"></span></div></foreignObject></g></g><g transform="translate(1172.049808467426, 632.3885146848598)" class="edgeTerminals"><g transform="translate(0, 0)" class="inner"><foreignObject style="width: 9px; height: 12px;"><div xmlns="http://www.w3.org/1999/xhtml" style="display: inline-block; padding-right: 1px; white-space: nowrap;"><span style=";display: inline-block" class="edgeLabel">1</span></div></foreignObject></g></g><g transform="translate(1172.4646580463375, 629.334642454273)" class="edgeTerminals"><g transform="translate(0, 0)" class="inner"><foreignObject style="width: 9px; height: 12px;"><div xmlns="http://www.w3.org/1999/xhtml" style="display: inline-block; padding-right: 1px; white-space: nowrap;"><span style=";display: inline-block" class="edgeLabel">1</span></div></foreignObject></g></g><g transform="translate(1202.3945426249675, 679.6179861989176)" class="edgeTerminals"><g transform="translate(0, 0)" class="inner"><foreignObject style="width: 9px; height: 12px;"><div xmlns="http://www.w3.org/1999/xhtml" style="display: inline-block; padding-right: 1px; white-space: nowrap;"><span style=";display: inline-block" class="edgeLabel">1</span></div></foreignObject></g></g><g transform="translate(243.52840948132706, 53.28320780811155)" class="edgeTerminals"><g transform="translate(0, 0)" class="inner"><foreignObject style="width: 9px; height: 12px;"><div xmlns="http://www.w3.org/1999/xhtml" style="display: inline-block; padding-right: 1px; white-space: nowrap;"><span style=";display: inline-block" class="edgeLabel">1</span></div></foreignObject></g></g><g transform="translate(1127.3921695415097, 314.20706573242853)" class="edgeTerminals"><g transform="translate(0, 0)" class="inner"><foreignObject style="width: 9px; height: 12px;"><div xmlns="http://www.w3.org/1999/xhtml" style="display: inline-block; padding-right: 1px; white-space: nowrap;"><span style=";display: inline-block" class="edgeLabel">1</span></div></foreignObject></g></g><g transform="translate(1125.513013743118, 328.36821720909904)" class="edgeTerminals"><g transform="translate(0, 0)" class="inner"><foreignObject style="width: 9px; height: 12px;"><div xmlns="http://www.w3.org/1999/xhtml" style="display: inline-block; padding-right: 1px; white-space: nowrap;"><span style=";display: inline-block" class="edgeLabel">1</span></div></foreignObject></g></g><g transform="translate(719.0898418749999, 730.4999983928572)" class="edgeTerminals"><g transform="translate(0, 0)" class="inner"/><foreignObject style="width: 9px; height: 12px;"><div xmlns="http://www.w3.org/1999/xhtml" style="display: inline-block; padding-right: 1px; white-space: nowrap;"><span style=";display: inline-block" class="edgeLabel">4</span></div></foreignObject></g><g transform="translate(515.7460918749999, 730.4999983928572)" class="edgeTerminals"><g transform="translate(0, 0)" class="inner"/><foreignObject style="width: 9px; height: 12px;"><div xmlns="http://www.w3.org/1999/xhtml" style="display: inline-block; padding-right: 1px; white-space: nowrap;"><span style=";display: inline-block" class="edgeLabel">3</span></div></foreignObject></g><g transform="translate(1210.058591875, 730.4999983928572)" class="edgeTerminals"><g transform="translate(0, 0)" class="inner"/><foreignObject style="width: 9px; height: 12px;"><div xmlns="http://www.w3.org/1999/xhtml" style="display: inline-block; padding-right: 1px; white-space: nowrap;"><span style=";display: inline-block" class="edgeLabel">2</span></div></foreignObject></g><g transform="translate(79.35639671683677, 408.45598032892605)" class="edgeTerminals"><g transform="translate(0, 0)" class="inner"/><foreignObject style="width: 9px; height: 12px;"><div xmlns="http://www.w3.org/1999/xhtml" style="display: inline-block; padding-right: 1px; white-space: nowrap;"><span style=";display: inline-block" class="edgeLabel">2</span></div></foreignObject></g><g transform="translate(782.61718875, 412.5000010714286)" class="edgeTerminals"><g transform="translate(0, 0)" class="inner"/><foreignObject style="width: 9px; height: 12px;"><div xmlns="http://www.w3.org/1999/xhtml" style="display: inline-block; padding-right: 1px; white-space: nowrap;"><span style=";display: inline-block" class="edgeLabel">2</span></div></foreignObject></g><g transform="translate(1019.9531274999997, 412.5000021428571)" class="edgeTerminals"><g transform="translate(0, 0)" class="inner"/><foreignObject style="width: 18px; height: 12px;"><div xmlns="http://www.w3.org/1999/xhtml" style="display: inline-block; padding-right: 1px; white-space: nowrap;"><span style=";display: inline-block" class="edgeLabel">84</span></div></foreignObject></g></g><g class="nodes"><g transform="translate(165.5546875, 477)" id="classId-OneClientServer-0" class="node default"><g class="basic label-container"><path style="" fill="#ECECFF" stroke-width="0" stroke="none" d="M-73.421875 -42 L73.421875 -42 L73.421875 42 L-73.421875 42"/><path style="" fill="none" stroke-width="1.3" stroke="#9370DB" d="M-73.421875 -42 C-36.9068628418077 -42, -0.3918506836154023 -42, 73.421875 -42 M-73.421875 -42 C-26.817074680143236 -42, 19.78772563971353 -42, 73.421875 -42 M73.421875 -42 C73.421875 -22.089699379370735, 73.421875 -2.1793987587414705, 73.421875 42 M73.421875 -42 C73.421875 -13.422592845794775, 73.421875 15.154814308410451, 73.421875 42 M73.421875 42 C36.52275911329017 42, -0.37635677341965845 42, -73.421875 42 M73.421875 42 C16.425465937559757 42, -40.570943124880486 42, -73.421875 42 M-73.421875 42 C-73.421875 23.513469252968555, -73.421875 5.02693850593711, -73.421875 -42 M-73.421875 42 C-73.421875 18.778525894892848, -73.421875 -4.442948210214304, -73.421875 -42"/></g><g transform="translate(0, -18)" class="annotation-group text"/><g transform="translate(-61.421875, -18)" class="label-group text"><g transform="translate(0,-12)" style="font-weight: bolder" class="label"><foreignObject height="24" width="122.84375"><div style="display: table-cell; white-space: nowrap; line-height: 1.5; max-width: 158px; text-align: center;" xmlns="http://www.w3.org/1999/xhtml"><span style="" class="nodeLabel markdown-node-label"><p>OneClientServer</p></span></div></foreignObject></g></g><g transform="translate(-61.421875, 30)" class="members-group text"/><g transform="translate(-61.421875, 60)" class="methods-group text"/><g style="" class="divider"><path style="" fill="none" stroke-width="1.3" stroke="#9370DB" d="M-73.421875 6 C-29.996909305990386 6, 13.428056388019229 6, 73.421875 6 M-73.421875 6 C-25.36578762239519 6, 22.690299755209622 6, 73.421875 6"/></g><g style="" class="divider"><path style="" fill="none" stroke-width="1.3" stroke="#9370DB" d="M-73.421875 24 C-42.116929512546946 24, -10.811984025093892 24, 73.421875 24 M-73.421875 24 C-42.73261555672764 24, -12.043356113455282 24, 73.421875 24"/></g></g><g transform="translate(316.73828125, 795)" id="classId-ErrorHandler-1" class="node default"><g class="basic label-container"><path style="" fill="#ECECFF" stroke-width="0" stroke="none" d="M-60.8046875 -42 L60.8046875 -42 L60.8046875 42 L-60.8046875 42"/><path style="" fill="none" stroke-width="1.3" stroke="#9370DB" d="M-60.8046875 -42 C-25.401854138475287 -42, 10.000979223049427 -42, 60.8046875 -42 M-60.8046875 -42 C-18.587825970562932 -42, 23.629035558874136 -42, 60.8046875 -42 M60.8046875 -42 C60.8046875 -22.914873819104365, 60.8046875 -3.8297476382087297, 60.8046875 42 M60.8046875 -42 C60.8046875 -11.13704790268769, 60.8046875 19.72590419462462, 60.8046875 42 M60.8046875 42 C21.541346763740897 42, -17.721993972518206 42, -60.8046875 42 M60.8046875 42 C21.272548676501934 42, -18.259590146996132 42, -60.8046875 42 M-60.8046875 42 C-60.8046875 23.857937599327393, -60.8046875 5.7158751986547855, -60.8046875 -42 M-60.8046875 42 C-60.8046875 17.627814507574143, -60.8046875 -6.744370984851713, -60.8046875 -42"/></g><g transform="translate(0, -18)" class="annotation-group text"/><g transform="translate(-48.8046875, -18)" class="label-group text"><g transform="translate(0,-12)" style="font-weight: bolder" class="label"><foreignObject height="24" width="97.609375"><div style="display: table-cell; white-space: nowrap; line-height: 1.5; max-width: 135px; text-align: center;" xmlns="http://www.w3.org/1999/xhtml"><span style="" class="nodeLabel markdown-node-label"><p>ErrorHandler</p></span></div></foreignObject></g></g><g transform="translate(-48.8046875, 30)" class="members-group text"/><g transform="translate(-48.8046875, 60)" class="methods-group text"/><g style="" class="divider"><path style="" fill="none" stroke-width="1.3" stroke="#9370DB" d="M-60.8046875 6 C-24.69752307697864 6, 11.409641346042719 6, 60.8046875 6 M-60.8046875 6 C-15.504371402644331 6, 29.795944694711338 6, 60.8046875 6"/></g><g style="" class="divider"><path style="" fill="none" stroke-width="1.3" stroke="#9370DB" d="M-60.8046875 24 C-15.126310297854864 24, 30.55206690429027 24, 60.8046875 24 M-60.8046875 24 C-25.556458972339897 24, 9.691769555320207 24, 60.8046875 24"/></g></g><g transform="translate(505.74609375, 795)" id="classId-SimpleDelayFilter-2" class="node default"><g class="basic label-container"><path style="" fill="#ECECFF" stroke-width="0" stroke="none" d="M-78.203125 -42 L78.203125 -42 L78.203125 42 L-78.203125 42"/><path style="" fill="none" stroke-width="1.3" stroke="#9370DB" d="M-78.203125 -42 C-34.72984212135531 -42, 8.743440757289378 -42, 78.203125 -42 M-78.203125 -42 C-23.328280391299153 -42, 31.546564217401695 -42, 78.203125 -42 M78.203125 -42 C78.203125 -10.806500998497022, 78.203125 20.386998003005957, 78.203125 42 M78.203125 -42 C78.203125 -17.137324887412678, 78.203125 7.725350225174644, 78.203125 42 M78.203125 42 C20.766242770622313 42, -36.670639458755375 42, -78.203125 42 M78.203125 42 C45.56007895289727 42, 12.917032905794542 42, -78.203125 42 M-78.203125 42 C-78.203125 10.052139022401438, -78.203125 -21.895721955197125, -78.203125 -42 M-78.203125 42 C-78.203125 17.796763127519704, -78.203125 -6.406473744960593, -78.203125 -42"/></g><g transform="translate(0, -18)" class="annotation-group text"/><g transform="translate(-66.203125, -18)" class="label-group text"><g transform="translate(0,-12)" style="font-weight: bolder" class="label"><foreignObject height="24" width="132.40625"><div style="display: table-cell; white-space: nowrap; line-height: 1.5; max-width: 168px; text-align: center;" xmlns="http://www.w3.org/1999/xhtml"><span style="" class="nodeLabel markdown-node-label"><p>SimpleDelayFilter</p></span></div></foreignObject></g></g><g transform="translate(-66.203125, 30)" class="members-group text"/><g transform="translate(-66.203125, 60)" class="methods-group text"/><g style="" class="divider"><path style="" fill="none" stroke-width="1.3" stroke="#9370DB" d="M-78.203125 6 C-45.55462573801535 6, -12.906126476030707 6, 78.203125 6 M-78.203125 6 C-29.97884166311883 6, 18.245441673762343 6, 78.203125 6"/></g><g style="" class="divider"><path style="" fill="none" stroke-width="1.3" stroke="#9370DB" d="M-78.203125 24 C-29.38786413087515 24, 19.427396738249698 24, 78.203125 24 M-78.203125 24 C-20.649340216923022 24, 36.904444566153956 24, 78.203125 24"/></g></g><g transform="translate(709.08984375, 795)" id="classId-BiquadraticFilter-3" class="node default"><g class="basic label-container"><path style="" fill="#ECECFF" stroke-width="0" stroke="none" d="M-75.140625 -42 L75.140625 -42 L75.140625 42 L-75.140625 42"/><path style="" fill="none" stroke-width="1.3" stroke="#9370DB" d="M-75.140625 -42 C-31.030227096800814 -42, 13.080170806398371 -42, 75.140625 -42 M-75.140625 -42 C-42.85917898038874 -42, -10.577732960777482 -42, 75.140625 -42 M75.140625 -42 C75.140625 -15.879697623139709, 75.140625 10.240604753720582, 75.140625 42 M75.140625 -42 C75.140625 -15.048361671850937, 75.140625 11.903276656298125, 75.140625 42 M75.140625 42 C27.82382116227207 42, -19.492982675455863 42, -75.140625 42 M75.140625 42 C19.770881283736443 42, -35.59886243252711 42, -75.140625 42 M-75.140625 42 C-75.140625 17.46860180801034, -75.140625 -7.062796383979318, -75.140625 -42 M-75.140625 42 C-75.140625 10.906554040402266, -75.140625 -20.186891919195467, -75.140625 -42"/></g><g transform="translate(0, -18)" class="annotation-group text"/><g transform="translate(-63.140625, -18)" class="label-group text"><g transform="translate(0,-12)" style="font-weight: bolder" class="label"><foreignObject height="24" width="126.28125"><div style="display: table-cell; white-space: nowrap; line-height: 1.5; max-width: 159px; text-align: center;" xmlns="http://www.w3.org/1999/xhtml"><span style="" class="nodeLabel markdown-node-label"><p>BiquadraticFilter</p></span></div></foreignObject></g></g><g transform="translate(-63.140625, 30)" class="members-group text"/><g transform="translate(-63.140625, 60)" class="methods-group text"/><g style="" class="divider"><path style="" fill="none" stroke-width="1.3" stroke="#9370DB" d="M-75.140625 6 C-24.814123675348796 6, 25.512377649302408 6, 75.140625 6 M-75.140625 6 C-41.611178455484165 6, -8.08173191096833 6, 75.140625 6"/></g><g style="" class="divider"><path style="" fill="none" stroke-width="1.3" stroke="#9370DB" d="M-75.140625 24 C-20.284198854326625 24, 34.57222729134675 24, 75.140625 24 M-75.140625 24 C-15.804084379183863 24, 43.532456241632275 24, 75.140625 24"/></g></g><g transform="translate(1267.9375, 636)" id="classId-MockControlLoop-4" class="node default"><g class="basic label-container"><path style="" fill="#ECECFF" stroke-width="0" stroke="none" d="M-76.7265625 -42 L76.7265625 -42 L76.7265625 42 L-76.7265625 42"/><path style="" fill="none" stroke-width="1.3" stroke="#9370DB" d="M-76.7265625 -42 C-21.764272164268625 -42, 33.19801817146275 -42, 76.7265625 -42 M-76.7265625 -42 C-21.16140909570516 -42, 34.40374430858968 -42, 76.7265625 -42 M76.7265625 -42 C76.7265625 -17.989412928473378, 76.7265625 6.021174143053244, 76.7265625 42 M76.7265625 -42 C76.7265625 -17.31774724754192, 76.7265625 7.36450550491616, 76.7265625 42 M76.7265625 42 C31.917401468657495 42, -12.89175956268501 42, -76.7265625 42 M76.7265625 42 C37.32243550844912 42, -2.081691483101764 42, -76.7265625 42 M-76.7265625 42 C-76.7265625 11.612389775814925, -76.7265625 -18.77522044837015, -76.7265625 -42 M-76.7265625 42 C-76.7265625 17.88716734660609, -76.7265625 -6.225665306787818, -76.7265625 -42"/></g><g transform="translate(0, -18)" class="annotation-group text"/><g transform="translate(-64.7265625, -18)" class="label-group text"><g transform="translate(0,-12)" style="font-weight: bolder" class="label"><foreignObject height="24" width="129.453125"><div style="display: table-cell; white-space: nowrap; line-height: 1.5; max-width: 170px; text-align: center;" xmlns="http://www.w3.org/1999/xhtml"><span style="" class="nodeLabel markdown-node-label"><p>MockControlLoop</p></span></div></foreignObject></g></g><g transform="translate(-64.7265625, 30)" class="members-group text"/><g transform="translate(-64.7265625, 60)" class="methods-group text"/><g style="" class="divider"><path style="" fill="none" stroke-width="1.3" stroke="#9370DB" d="M-76.7265625 6 C-18.675785250200782 6, 39.374991999598436 6, 76.7265625 6 M-76.7265625 6 C-22.959216259331264 6, 30.808129981337473 6, 76.7265625 6"/></g><g style="" class="divider"><path style="" fill="none" stroke-width="1.3" stroke="#9370DB" d="M-76.7265625 24 C-17.52022812829231 24, 41.68610624341538 24, 76.7265625 24 M-76.7265625 24 C-33.10668767273322 24, 10.513187154533554 24, 76.7265625 24"/></g></g><g transform="translate(1200.05859375, 795)" id="classId-MockDeadbandControl-5" class="node default"><g class="basic label-container"><path style="" fill="#ECECFF" stroke-width="0" stroke="none" d="M-95.515625 -42 L95.515625 -42 L95.515625 42 L-95.515625 42"/><path style="" fill="none" stroke-width="1.3" stroke="#9370DB" d="M-95.515625 -42 C-31.31073268059741 -42, 32.89415963880518 -42, 95.515625 -42 M-95.515625 -42 C-54.21713347065723 -42, -12.918641941314462 -42, 95.515625 -42 M95.515625 -42 C95.515625 -17.33043133468066, 95.515625 7.339137330638678, 95.515625 42 M95.515625 -42 C95.515625 -13.610803376965436, 95.515625 14.778393246069129, 95.515625 42 M95.515625 42 C21.427959423391314 42, -52.65970615321737 42, -95.515625 42 M95.515625 42 C22.230266037357254 42, -51.05509292528549 42, -95.515625 42 M-95.515625 42 C-95.515625 9.416007241609968, -95.515625 -23.167985516780064, -95.515625 -42 M-95.515625 42 C-95.515625 21.215584169922963, -95.515625 0.4311683398459252, -95.515625 -42"/></g><g transform="translate(0, -18)" class="annotation-group text"/><g transform="translate(-83.515625, -18)" class="label-group text"><g transform="translate(0,-12)" style="font-weight: bolder" class="label"><foreignObject height="24" width="167.03125"><div style="display: table-cell; white-space: nowrap; line-height: 1.5; max-width: 201px; text-align: center;" xmlns="http://www.w3.org/1999/xhtml"><span style="" class="nodeLabel markdown-node-label"><p>MockDeadbandControl</p></span></div></foreignObject></g></g><g transform="translate(-83.515625, 30)" class="members-group text"/><g transform="translate(-83.515625, 60)" class="methods-group text"/><g style="" class="divider"><path style="" fill="none" stroke-width="1.3" stroke="#9370DB" d="M-95.515625 6 C-37.5140116042469 6, 20.487601791506194 6, 95.515625 6 M-95.515625 6 C-56.60238061934227 6, -17.68913623868454 6, 95.515625 6"/></g><g style="" class="divider"><path style="" fill="none" stroke-width="1.3" stroke="#9370DB" d="M-95.515625 24 C-28.84711623302674 24, 37.82139253394652 24, 95.515625 24 M-95.515625 24 C-49.70497108639792 24, -3.8943171727958372 24, 95.515625 24"/></g></g><g transform="translate(1430.21484375, 795)" id="classId-MockGainSchedular-6" class="node default"><g class="basic label-container"><path style="" fill="#ECECFF" stroke-width="0" stroke="none" d="M-84.640625 -42 L84.640625 -42 L84.640625 42 L-84.640625 42"/><path style="" fill="none" stroke-width="1.3" stroke="#9370DB" d="M-84.640625 -42 C-34.143019022353705 -42, 16.35458695529259 -42, 84.640625 -42 M-84.640625 -42 C-39.593914291526694 -42, 5.452796416946612 -42, 84.640625 -42 M84.640625 -42 C84.640625 -21.53402772481718, 84.640625 -1.0680554496343575, 84.640625 42 M84.640625 -42 C84.640625 -17.43283346868793, 84.640625 7.134333062624137, 84.640625 42 M84.640625 42 C48.374426827340315 42, 12.10822865468063 42, -84.640625 42 M84.640625 42 C38.22525730881362 42, -8.190110382372765 42, -84.640625 42 M-84.640625 42 C-84.640625 18.40886311221772, -84.640625 -5.1822737755645605, -84.640625 -42 M-84.640625 42 C-84.640625 9.535372939664803, -84.640625 -22.929254120670393, -84.640625 -42"/></g><g transform="translate(0, -18)" class="annotation-group text"/><g transform="translate(-72.640625, -18)" class="label-group text"><g transform="translate(0,-12)" style="font-weight: bolder" class="label"><foreignObject height="24" width="145.28125"><div style="display: table-cell; white-space: nowrap; line-height: 1.5; max-width: 183px; text-align: center;" xmlns="http://www.w3.org/1999/xhtml"><span style="" class="nodeLabel markdown-node-label"><p>MockGainSchedular</p></span></div></foreignObject></g></g><g transform="translate(-72.640625, 30)" class="members-group text"/><g transform="translate(-72.640625, 60)" class="methods-group text"/><g style="" class="divider"><path style="" fill="none" stroke-width="1.3" stroke="#9370DB" d="M-84.640625 6 C-48.79587352231838 6, -12.951122044636762 6, 84.640625 6 M-84.640625 6 C-37.41481210583508 6, 9.811000788329835 6, 84.640625 6"/></g><g style="" class="divider"><path style="" fill="none" stroke-width="1.3" stroke="#9370DB" d="M-84.640625 24 C-25.913629877816206 24, 32.81336524436759 24, 84.640625 24 M-84.640625 24 C-42.16210772902497 24, 0.31640954195006543 24, 84.640625 24"/></g></g><g transform="translate(1632.26171875, 795)" id="classId-MockInPosition-7" class="node default"><g class="basic label-container"><path style="" fill="#ECECFF" stroke-width="0" stroke="none" d="M-67.40625 -42 L67.40625 -42 L67.40625 42 L-67.40625 42"/><path style="" fill="none" stroke-width="1.3" stroke="#9370DB" d="M-67.40625 -42 C-34.52444893028363 -42, -1.6426478605672656 -42, 67.40625 -42 M-67.40625 -42 C-31.949542619511227 -42, 3.5071647609775454 -42, 67.40625 -42 M67.40625 -42 C67.40625 -14.70459318301095, 67.40625 12.590813633978101, 67.40625 42 M67.40625 -42 C67.40625 -14.780769037419596, 67.40625 12.438461925160809, 67.40625 42 M67.40625 42 C14.204255070530046 42, -38.99773985893991 42, -67.40625 42 M67.40625 42 C20.986486476116795 42, -25.43327704776641 42, -67.40625 42 M-67.40625 42 C-67.40625 20.716141731512632, -67.40625 -0.5677165369747357, -67.40625 -42 M-67.40625 42 C-67.40625 19.127944186473187, -67.40625 -3.744111627053627, -67.40625 -42"/></g><g transform="translate(0, -18)" class="annotation-group text"/><g transform="translate(-55.40625, -18)" class="label-group text"><g transform="translate(0,-12)" style="font-weight: bolder" class="label"><foreignObject height="24" width="110.8125"><div style="display: table-cell; white-space: nowrap; line-height: 1.5; max-width: 153px; text-align: center;" xmlns="http://www.w3.org/1999/xhtml"><span style="" class="nodeLabel markdown-node-label"><p>MockInPosition</p></span></div></foreignObject></g></g><g transform="translate(-55.40625, 30)" class="members-group text"/><g transform="translate(-55.40625, 60)" class="methods-group text"/><g style="" class="divider"><path style="" fill="none" stroke-width="1.3" stroke="#9370DB" d="M-67.40625 6 C-31.56965603526354 6, 4.266937929472917 6, 67.40625 6 M-67.40625 6 C-31.633387181597996 6, 4.139475636804008 6, 67.40625 6"/></g><g style="" class="divider"><path style="" fill="none" stroke-width="1.3" stroke="#9370DB" d="M-67.40625 24 C-33.04262221615633 24, 1.3210055676873367 24, 67.40625 24 M-67.40625 24 C-25.831233079130598 24, 15.743783841738804 24, 67.40625 24"/></g></g><g transform="translate(1375.0234375, 954)" id="classId-MockErrorHandler-8" class="node default"><g class="basic label-container"><path style="" fill="#ECECFF" stroke-width="0" stroke="none" d="M-79.7734375 -42 L79.7734375 -42 L79.7734375 42 L-79.7734375 42"/><path style="" fill="none" stroke-width="1.3" stroke="#9370DB" d="M-79.7734375 -42 C-25.885705417922928 -42, 28.002026664154144 -42, 79.7734375 -42 M-79.7734375 -42 C-25.48705507324543 -42, 28.799327353509142 -42, 79.7734375 -42 M79.7734375 -42 C79.7734375 -12.013038216063201, 79.7734375 17.973923567873598, 79.7734375 42 M79.7734375 -42 C79.7734375 -15.94716104462049, 79.7734375 10.10567791075902, 79.7734375 42 M79.7734375 42 C40.157524596934344 42, 0.5416116938686883 42, -79.7734375 42 M79.7734375 42 C16.80073779277364 42, -46.17196191445272 42, -79.7734375 42 M-79.7734375 42 C-79.7734375 13.641637188875869, -79.7734375 -14.716725622248262, -79.7734375 -42 M-79.7734375 42 C-79.7734375 9.27655176897828, -79.7734375 -23.44689646204344, -79.7734375 -42"/></g><g transform="translate(0, -18)" class="annotation-group text"/><g transform="translate(-67.7734375, -18)" class="label-group text"><g transform="translate(0,-12)" style="font-weight: bolder" class="label"><foreignObject height="24" width="135.546875"><div style="display: table-cell; white-space: nowrap; line-height: 1.5; max-width: 173px; text-align: center;" xmlns="http://www.w3.org/1999/xhtml"><span style="" class="nodeLabel markdown-node-label"><p>MockErrorHandler</p></span></div></foreignObject></g></g><g transform="translate(-67.7734375, 30)" class="members-group text"/><g transform="translate(-67.7734375, 60)" class="methods-group text"/><g style="" class="divider"><path style="" fill="none" stroke-width="1.3" stroke="#9370DB" d="M-79.7734375 6 C-43.566350802623276 6, -7.359264105246552 6, 79.7734375 6 M-79.7734375 6 C-35.337803154468965 6, 9.09783119106207 6, 79.7734375 6"/></g><g style="" class="divider"><path style="" fill="none" stroke-width="1.3" stroke="#9370DB" d="M-79.7734375 24 C-22.492167575768107 24, 34.789102348463786 24, 79.7734375 24 M-79.7734375 24 C-43.55197806498627 24, -7.330518629972545 24, 79.7734375 24"/></g></g><g transform="translate(319.41796875, 50)" id="classId-MockServer-9" class="node default"><g class="basic label-container"><path style="" fill="#ECECFF" stroke-width="0" stroke="none" d="M-55.3046875 -42 L55.3046875 -42 L55.3046875 42 L-55.3046875 42"/><path style="" fill="none" stroke-width="1.3" stroke="#9370DB" d="M-55.3046875 -42 C-13.864237365574056 -42, 27.57621276885189 -42, 55.3046875 -42 M-55.3046875 -42 C-24.666087715888455 -42, 5.972512068223089 -42, 55.3046875 -42 M55.3046875 -42 C55.3046875 -24.681747766602157, 55.3046875 -7.363495533204315, 55.3046875 42 M55.3046875 -42 C55.3046875 -16.22463224139744, 55.3046875 9.55073551720512, 55.3046875 42 M55.3046875 42 C14.61149552706955 42, -26.0816964458609 42, -55.3046875 42 M55.3046875 42 C30.939920638322516 42, 6.575153776645031 42, -55.3046875 42 M-55.3046875 42 C-55.3046875 16.987426477998063, -55.3046875 -8.025147044003873, -55.3046875 -42 M-55.3046875 42 C-55.3046875 21.787076924921266, -55.3046875 1.5741538498425314, -55.3046875 -42"/></g><g transform="translate(0, -18)" class="annotation-group text"/><g transform="translate(-43.3046875, -18)" class="label-group text"><g transform="translate(0,-12)" style="font-weight: bolder" class="label"><foreignObject height="24" width="86.609375"><div style="display: table-cell; white-space: nowrap; line-height: 1.5; max-width: 129px; text-align: center;" xmlns="http://www.w3.org/1999/xhtml"><span style="" class="nodeLabel markdown-node-label"><p>MockServer</p></span></div></foreignObject></g></g><g transform="translate(-43.3046875, 30)" class="members-group text"/><g transform="translate(-43.3046875, 60)" class="methods-group text"/><g style="" class="divider"><path style="" fill="none" stroke-width="1.3" stroke="#9370DB" d="M-55.3046875 6 C-31.786417189445917 6, -8.268146878891834 6, 55.3046875 6 M-55.3046875 6 C-20.776268995405765 6, 13.75214950918847 6, 55.3046875 6"/></g><g style="" class="divider"><path style="" fill="none" stroke-width="1.3" stroke="#9370DB" d="M-55.3046875 24 C-29.45211446082257 24, -3.5995414216451422 24, 55.3046875 24 M-55.3046875 24 C-17.73311540312958 24, 19.838456693740838 24, 55.3046875 24"/></g></g><g transform="translate(1200.05859375, 318)" id="classId-MockModel-10" class="node default"><g class="basic label-container"><path style="" fill="#ECECFF" stroke-width="0" stroke="none" d="M-53.0546875 -42 L53.0546875 -42 L53.0546875 42 L-53.0546875 42"/><path style="" fill="none" stroke-width="1.3" stroke="#9370DB" d="M-53.0546875 -42 C-14.839188850278042 -42, 23.376309799443916 -42, 53.0546875 -42 M-53.0546875 -42 C-11.03139168464736 -42, 30.99190413070528 -42, 53.0546875 -42 M53.0546875 -42 C53.0546875 -18.27212161480533, 53.0546875 5.455756770389343, 53.0546875 42 M53.0546875 -42 C53.0546875 -9.9107768288018, 53.0546875 22.1784463423964, 53.0546875 42 M53.0546875 42 C17.964757592209956 42, -17.125172315580087 42, -53.0546875 42 M53.0546875 42 C30.429513554215056 42, 7.804339608430112 42, -53.0546875 42 M-53.0546875 42 C-53.0546875 18.381654027666958, -53.0546875 -5.2366919446660845, -53.0546875 -42 M-53.0546875 42 C-53.0546875 21.34597322933508, -53.0546875 0.6919464586701594, -53.0546875 -42"/></g><g transform="translate(0, -18)" class="annotation-group text"/><g transform="translate(-41.0546875, -18)" class="label-group text"><g transform="translate(0,-12)" style="font-weight: bolder" class="label"><foreignObject height="24" width="82.109375"><div style="display: table-cell; white-space: nowrap; line-height: 1.5; max-width: 129px; text-align: center;" xmlns="http://www.w3.org/1999/xhtml"><span style="" class="nodeLabel markdown-node-label"><p>MockModel</p></span></div></foreignObject></g></g><g transform="translate(-41.0546875, 30)" class="members-group text"/><g transform="translate(-41.0546875, 60)" class="methods-group text"/><g style="" class="divider"><path style="" fill="none" stroke-width="1.3" stroke="#9370DB" d="M-53.0546875 6 C-14.277412281022649 6, 24.499862937954703 6, 53.0546875 6 M-53.0546875 6 C-23.717048470551198 6, 5.620590558897604 6, 53.0546875 6"/></g><g style="" class="divider"><path style="" fill="none" stroke-width="1.3" stroke="#9370DB" d="M-53.0546875 24 C-26.503211997750004 24, 0.04826350449999239 24, 53.0546875 24 M-53.0546875 24 C-23.603577477706153 24, 5.847532544587693 24, 53.0546875 24"/></g></g><g transform="translate(397.296875, 318)" id="classId-MockMessageTelemetry-11" class="node default"><g class="basic label-container"><path style="" fill="#ECECFF" stroke-width="0" stroke="none" d="M-99.1875 -42 L99.1875 -42 L99.1875 42 L-99.1875 42"/><path style="" fill="none" stroke-width="1.3" stroke="#9370DB" d="M-99.1875 -42 C-36.8747839721995 -42, 25.437932055600996 -42, 99.1875 -42 M-99.1875 -42 C-27.451813704575827 -42, 44.28387259084835 -42, 99.1875 -42 M99.1875 -42 C99.1875 -21.315806166917685, 99.1875 -0.6316123338353705, 99.1875 42 M99.1875 -42 C99.1875 -13.956970837636401, 99.1875 14.086058324727198, 99.1875 42 M99.1875 42 C22.876479591884546 42, -53.43454081623091 42, -99.1875 42 M99.1875 42 C25.813471649677552 42, -47.560556700644895 42, -99.1875 42 M-99.1875 42 C-99.1875 14.490941884795081, -99.1875 -13.018116230409838, -99.1875 -42 M-99.1875 42 C-99.1875 10.802881926956907, -99.1875 -20.394236146086186, -99.1875 -42"/></g><g transform="translate(0, -18)" class="annotation-group text"/><g transform="translate(-87.1875, -18)" class="label-group text"><g transform="translate(0,-12)" style="font-weight: bolder" class="label"><foreignObject height="24" width="174.375"><div style="display: table-cell; white-space: nowrap; line-height: 1.5; max-width: 208px; text-align: center;" xmlns="http://www.w3.org/1999/xhtml"><span style="" class="nodeLabel markdown-node-label"><p>MockMessageTelemetry</p></span></div></foreignObject></g></g><g transform="translate(-87.1875, 30)" class="members-group text"/><g transform="translate(-87.1875, 60)" class="methods-group text"/><g style="" class="divider"><path style="" fill="none" stroke-width="1.3" stroke="#9370DB" d="M-99.1875 6 C-33.42977563550511 6, 32.32794872898978 6, 99.1875 6 M-99.1875 6 C-55.005790565446915 6, -10.82408113089383 6, 99.1875 6"/></g><g style="" class="divider"><path style="" fill="none" stroke-width="1.3" stroke="#9370DB" d="M-99.1875 24 C-40.40036450871031 24, 18.386770982579378 24, 99.1875 24 M-99.1875 24 C-43.47753894614753 24, 12.232422107704934 24, 99.1875 24"/></g></g><g transform="translate(165.5546875, 318)" id="classId-MockMessageEvent-12" class="node default"><g class="basic label-container"><path style="" fill="#ECECFF" stroke-width="0" stroke="none" d="M-82.5546875 -42 L82.5546875 -42 L82.5546875 42 L-82.5546875 42"/><path style="" fill="none" stroke-width="1.3" stroke="#9370DB" d="M-82.5546875 -42 C-20.38611026307923 -42, 41.78246697384154 -42, 82.5546875 -42 M-82.5546875 -42 C-35.936759865300495 -42, 10.68116776939901 -42, 82.5546875 -42 M82.5546875 -42 C82.5546875 -23.90305213983647, 82.5546875 -5.806104279672937, 82.5546875 42 M82.5546875 -42 C82.5546875 -11.551017056235455, 82.5546875 18.89796588752909, 82.5546875 42 M82.5546875 42 C27.4717589237914 42, -27.611169652417203 42, -82.5546875 42 M82.5546875 42 C36.58357073135041 42, -9.387546037299174 42, -82.5546875 42 M-82.5546875 42 C-82.5546875 20.626560452309324, -82.5546875 -0.7468790953813524, -82.5546875 -42 M-82.5546875 42 C-82.5546875 15.039962353432891, -82.5546875 -11.920075293134218, -82.5546875 -42"/></g><g transform="translate(0, -18)" class="annotation-group text"/><g transform="translate(-70.5546875, -18)" class="label-group text"><g transform="translate(0,-12)" style="font-weight: bolder" class="label"><foreignObject height="24" width="141.109375"><div style="display: table-cell; white-space: nowrap; line-height: 1.5; max-width: 181px; text-align: center;" xmlns="http://www.w3.org/1999/xhtml"><span style="" class="nodeLabel markdown-node-label"><p>MockMessageEvent</p></span></div></foreignObject></g></g><g transform="translate(-70.5546875, 30)" class="members-group text"/><g transform="translate(-70.5546875, 60)" class="methods-group text"/><g style="" class="divider"><path style="" fill="none" stroke-width="1.3" stroke="#9370DB" d="M-82.5546875 6 C-31.557478636412455 6, 19.43973022717509 6, 82.5546875 6 M-82.5546875 6 C-30.0771581794181 6, 22.400371141163802 6, 82.5546875 6"/></g><g style="" class="divider"><path style="" fill="none" stroke-width="1.3" stroke="#9370DB" d="M-82.5546875 24 C-47.43258552862288 24, -12.31048355724576 24, 82.5546875 24 M-82.5546875 24 C-32.372005759170264 24, 17.81067598165947 24, 82.5546875 24"/></g></g><g transform="translate(500.0625, 184)" id="classId-MockCommand-13" class="node default"><g class="basic label-container"><path style="" fill="#ECECFF" stroke-width="0" stroke="none" d="M-67.765625 -42 L67.765625 -42 L67.765625 42 L-67.765625 42"/><path style="" fill="none" stroke-width="1.3" stroke="#9370DB" d="M-67.765625 -42 C-28.219060343767033 -42, 11.327504312465933 -42, 67.765625 -42 M-67.765625 -42 C-21.712338841685167 -42, 24.340947316629666 -42, 67.765625 -42 M67.765625 -42 C67.765625 -10.871790453226787, 67.765625 20.256419093546427, 67.765625 42 M67.765625 -42 C67.765625 -25.082008841247877, 67.765625 -8.164017682495754, 67.765625 42 M67.765625 42 C23.706518109613917 42, -20.352588780772166 42, -67.765625 42 M67.765625 42 C32.162291756182526 42, -3.4410414876349478 42, -67.765625 42 M-67.765625 42 C-67.765625 10.20462430314274, -67.765625 -21.59075139371452, -67.765625 -42 M-67.765625 42 C-67.765625 22.542250832713666, -67.765625 3.0845016654273323, -67.765625 -42"/></g><g transform="translate(0, -18)" class="annotation-group text"/><g transform="translate(-55.765625, -18)" class="label-group text"><g transform="translate(0,-12)" style="font-weight: bolder" class="label"><foreignObject height="24" width="111.53125"><div style="display: table-cell; white-space: nowrap; line-height: 1.5; max-width: 154px; text-align: center;" xmlns="http://www.w3.org/1999/xhtml"><span style="" class="nodeLabel markdown-node-label"><p>MockCommand</p></span></div></foreignObject></g></g><g transform="translate(-55.765625, 30)" class="members-group text"/><g transform="translate(-55.765625, 60)" class="methods-group text"/><g style="" class="divider"><path style="" fill="none" stroke-width="1.3" stroke="#9370DB" d="M-67.765625 6 C-26.841866022598268 6, 14.081892954803465 6, 67.765625 6 M-67.765625 6 C-21.149385736012093 6, 25.466853527975815 6, 67.765625 6"/></g><g style="" class="divider"><path style="" fill="none" stroke-width="1.3" stroke="#9370DB" d="M-67.765625 24 C-25.04072092688466 24, 17.68418314623068 24, 67.765625 24 M-67.765625 24 C-32.99344629988117 24, 1.7787324002376579 24, 67.765625 24"/></g></g><g transform="translate(564.2890625, 477)" id="classId-MockScriptEngine-14" class="node default"><g class="basic label-container"><path style="" fill="#ECECFF" stroke-width="0" stroke="none" d="M-77.78125 -42 L77.78125 -42 L77.78125 42 L-77.78125 42"/><path style="" fill="none" stroke-width="1.3" stroke="#9370DB" d="M-77.78125 -42 C-29.476844737856524 -42, 18.82756052428695 -42, 77.78125 -42 M-77.78125 -42 C-22.83759559122764 -42, 32.10605881754472 -42, 77.78125 -42 M77.78125 -42 C77.78125 -13.47174116058423, 77.78125 15.05651767883154, 77.78125 42 M77.78125 -42 C77.78125 -22.69402340861198, 77.78125 -3.388046817223959, 77.78125 42 M77.78125 42 C18.542534192412397 42, -40.696181615175206 42, -77.78125 42 M77.78125 42 C26.49362890508334 42, -24.793992189833318 42, -77.78125 42 M-77.78125 42 C-77.78125 9.599271225208149, -77.78125 -22.801457549583702, -77.78125 -42 M-77.78125 42 C-77.78125 16.973981551902032, -77.78125 -8.052036896195936, -77.78125 -42"/></g><g transform="translate(0, -18)" class="annotation-group text"/><g transform="translate(-65.78125, -18)" class="label-group text"><g transform="translate(0,-12)" style="font-weight: bolder" class="label"><foreignObject height="24" width="131.5625"><div style="display: table-cell; white-space: nowrap; line-height: 1.5; max-width: 171px; text-align: center;" xmlns="http://www.w3.org/1999/xhtml"><span style="" class="nodeLabel markdown-node-label"><p>MockScriptEngine</p></span></div></foreignObject></g></g><g transform="translate(-65.78125, 30)" class="members-group text"/><g transform="translate(-65.78125, 60)" class="methods-group text"/><g style="" class="divider"><path style="" fill="none" stroke-width="1.3" stroke="#9370DB" d="M-77.78125 6 C-33.455540894961594 6, 10.870168210076812 6, 77.78125 6 M-77.78125 6 C-25.835258704471414 6, 26.11073259105717 6, 77.78125 6"/></g><g style="" class="divider"><path style="" fill="none" stroke-width="1.3" stroke="#9370DB" d="M-77.78125 24 C-28.265647477067752 24, 21.249955045864496 24, 77.78125 24 M-77.78125 24 C-16.835739222251654 24, 44.10977155549669 24, 77.78125 24"/></g></g><g transform="translate(1603.33984375, 477)" id="classId-MockControlOpenLoop-15" class="node default"><g class="basic label-container"><path style="" fill="#ECECFF" stroke-width="0" stroke="none" d="M-96.328125 -42 L96.328125 -42 L96.328125 42 L-96.328125 42"/><path style="" fill="none" stroke-width="1.3" stroke="#9370DB" d="M-96.328125 -42 C-50.2024122597238 -42, -4.076699519447601 -42, 96.328125 -42 M-96.328125 -42 C-49.191438555820966 -42, -2.054752111641932 -42, 96.328125 -42 M96.328125 -42 C96.328125 -15.693507929450586, 96.328125 10.612984141098828, 96.328125 42 M96.328125 -42 C96.328125 -10.393776762582231, 96.328125 21.212446474835538, 96.328125 42 M96.328125 42 C24.795671698351484 42, -46.73678160329703 42, -96.328125 42 M96.328125 42 C20.295463954134078 42, -55.737197091731844 42, -96.328125 42 M-96.328125 42 C-96.328125 21.245588858806737, -96.328125 0.49117771761347484, -96.328125 -42 M-96.328125 42 C-96.328125 24.44070512920066, -96.328125 6.881410258401317, -96.328125 -42"/></g><g transform="translate(0, -18)" class="annotation-group text"/><g transform="translate(-84.328125, -18)" class="label-group text"><g transform="translate(0,-12)" style="font-weight: bolder" class="label"><foreignObject height="24" width="168.65625"><div style="display: table-cell; white-space: nowrap; line-height: 1.5; max-width: 205px; text-align: center;" xmlns="http://www.w3.org/1999/xhtml"><span style="" class="nodeLabel markdown-node-label"><p>MockControlOpenLoop</p></span></div></foreignObject></g></g><g transform="translate(-84.328125, 30)" class="members-group text"/><g transform="translate(-84.328125, 60)" class="methods-group text"/><g style="" class="divider"><path style="" fill="none" stroke-width="1.3" stroke="#9370DB" d="M-96.328125 6 C-27.009606088903055 6, 42.30891282219389 6, 96.328125 6 M-96.328125 6 C-50.29054842277722 6, -4.252971845554441 6, 96.328125 6"/></g><g style="" class="divider"><path style="" fill="none" stroke-width="1.3" stroke="#9370DB" d="M-96.328125 24 C-25.59426252651005 24, 45.1395999469799 24, 96.328125 24 M-96.328125 24 C-48.59470845347587 24, -0.8612919069517346 24, 96.328125 24"/></g></g><g transform="translate(1267.9375, 477)" id="classId-MockControlClosedLoop-16" class="node default"><g class="basic label-container"><path style="" fill="#ECECFF" stroke-width="0" stroke="none" d="M-101.1953125 -42 L101.1953125 -42 L101.1953125 42 L-101.1953125 42"/><path style="" fill="none" stroke-width="1.3" stroke="#9370DB" d="M-101.1953125 -42 C-47.267548150777465 -42, 6.66021619844507 -42, 101.1953125 -42 M-101.1953125 -42 C-45.48315644296261 -42, 10.22899961407478 -42, 101.1953125 -42 M101.1953125 -42 C101.1953125 -18.146322258628064, 101.1953125 5.707355482743871, 101.1953125 42 M101.1953125 -42 C101.1953125 -12.613422117652053, 101.1953125 16.773155764695893, 101.1953125 42 M101.1953125 42 C39.176428988611285 42, -22.84245452277743 42, -101.1953125 42 M101.1953125 42 C41.32724627157946 42, -18.540819956841077 42, -101.1953125 42 M-101.1953125 42 C-101.1953125 10.424330587085318, -101.1953125 -21.151338825829363, -101.1953125 -42 M-101.1953125 42 C-101.1953125 15.119066543756052, -101.1953125 -11.761866912487896, -101.1953125 -42"/></g><g transform="translate(0, -18)" class="annotation-group text"/><g transform="translate(-89.1953125, -18)" class="label-group text"><g transform="translate(0,-12)" style="font-weight: bolder" class="label"><foreignObject height="24" width="178.390625"><div style="display: table-cell; white-space: nowrap; line-height: 1.5; max-width: 214px; text-align: center;" xmlns="http://www.w3.org/1999/xhtml"><span style="" class="nodeLabel markdown-node-label"><p>MockControlClosedLoop</p></span></div></foreignObject></g></g><g transform="translate(-89.1953125, 30)" class="members-group text"/><g transform="translate(-89.1953125, 60)" class="methods-group text"/><g style="" class="divider"><path style="" fill="none" stroke-width="1.3" stroke="#9370DB" d="M-101.1953125 6 C-36.44398356588633 6, 28.307345368227345 6, 101.1953125 6 M-101.1953125 6 C-32.37122043456587 6, 36.45287163086826 6, 101.1953125 6"/></g><g style="" class="divider"><path style="" fill="none" stroke-width="1.3" stroke="#9370DB" d="M-101.1953125 24 C-30.55224744816266 24, 40.09081760367468 24, 101.1953125 24 M-101.1953125 24 C-32.57086648882782 24, 36.053579522344364 24, 101.1953125 24"/></g></g><g transform="translate(772.6171875, 477)" id="classId-MockPowerSystem-17" class="node default"><g class="basic label-container"><path style="" fill="#ECECFF" stroke-width="0" stroke="none" d="M-80.546875 -42 L80.546875 -42 L80.546875 42 L-80.546875 42"/><path style="" fill="none" stroke-width="1.3" stroke="#9370DB" d="M-80.546875 -42 C-46.712456677942434 -42, -12.878038355884868 -42, 80.546875 -42 M-80.546875 -42 C-16.877368358370923 -42, 46.792138283258154 -42, 80.546875 -42 M80.546875 -42 C80.546875 -18.082050859870073, 80.546875 5.835898280259855, 80.546875 42 M80.546875 -42 C80.546875 -24.31825199064179, 80.546875 -6.636503981283582, 80.546875 42 M80.546875 42 C37.40485959580492 42, -5.737155808390156 42, -80.546875 42 M80.546875 42 C38.325031688124014 42, -3.8968116237519723 42, -80.546875 42 M-80.546875 42 C-80.546875 24.418940721198084, -80.546875 6.837881442396167, -80.546875 -42 M-80.546875 42 C-80.546875 10.054209035304048, -80.546875 -21.891581929391904, -80.546875 -42"/></g><g transform="translate(0, -18)" class="annotation-group text"/><g transform="translate(-68.546875, -18)" class="label-group text"><g transform="translate(0,-12)" style="font-weight: bolder" class="label"><foreignObject height="24" width="137.09375"><div style="display: table-cell; white-space: nowrap; line-height: 1.5; max-width: 175px; text-align: center;" xmlns="http://www.w3.org/1999/xhtml"><span style="" class="nodeLabel markdown-node-label"><p>MockPowerSystem</p></span></div></foreignObject></g></g><g transform="translate(-68.546875, 30)" class="members-group text"/><g transform="translate(-68.546875, 60)" class="methods-group text"/><g style="" class="divider"><path style="" fill="none" stroke-width="1.3" stroke="#9370DB" d="M-80.546875 6 C-28.708296342311115 6, 23.13028231537777 6, 80.546875 6 M-80.546875 6 C-18.310386928445794 6, 43.92610114310841 6, 80.546875 6"/></g><g style="" class="divider"><path style="" fill="none" stroke-width="1.3" stroke="#9370DB" d="M-80.546875 24 C-21.144454281507052 24, 38.257966436985896 24, 80.546875 24 M-80.546875 24 C-37.595166625836946 24, 5.356541748326109 24, 80.546875 24"/></g></g><g transform="translate(1009.953125, 477)" id="classId-MockInnerLoopController-18" class="node default"><g class="basic label-container"><path style="" fill="#ECECFF" stroke-width="0" stroke="none" d="M-106.7890625 -42 L106.7890625 -42 L106.7890625 42 L-106.7890625 42"/><path style="" fill="none" stroke-width="1.3" stroke="#9370DB" d="M-106.7890625 -42 C-28.610193924161294 -42, 49.56867465167741 -42, 106.7890625 -42 M-106.7890625 -42 C-24.123661359112944 -42, 58.54173978177411 -42, 106.7890625 -42 M106.7890625 -42 C106.7890625 -22.80194122029118, 106.7890625 -3.6038824405823604, 106.7890625 42 M106.7890625 -42 C106.7890625 -15.093027520768537, 106.7890625 11.813944958462926, 106.7890625 42 M106.7890625 42 C39.87347555679477 42, -27.042111386410454 42, -106.7890625 42 M106.7890625 42 C41.39655627391322 42, -23.99594995217356 42, -106.7890625 42 M-106.7890625 42 C-106.7890625 13.932694331917585, -106.7890625 -14.13461133616483, -106.7890625 -42 M-106.7890625 42 C-106.7890625 15.551948021014319, -106.7890625 -10.896103957971363, -106.7890625 -42"/></g><g transform="translate(0, -18)" class="annotation-group text"/><g transform="translate(-94.7890625, -18)" class="label-group text"><g transform="translate(0,-12)" style="font-weight: bolder" class="label"><foreignObject height="24" width="189.578125"><div style="display: table-cell; white-space: nowrap; line-height: 1.5; max-width: 221px; text-align: center;" xmlns="http://www.w3.org/1999/xhtml"><span style="" class="nodeLabel markdown-node-label"><p>MockInnerLoopController</p></span></div></foreignObject></g></g><g transform="translate(-94.7890625, 30)" class="members-group text"/><g transform="translate(-94.7890625, 60)" class="methods-group text"/><g style="" class="divider"><path style="" fill="none" stroke-width="1.3" stroke="#9370DB" d="M-106.7890625 6 C-22.33895672914676 6, 62.11114904170648 6, 106.7890625 6 M-106.7890625 6 C-43.72337979349835 6, 19.342302913003294 6, 106.7890625 6"/></g><g style="" class="divider"><path style="" fill="none" stroke-width="1.3" stroke="#9370DB" d="M-106.7890625 24 C-22.898443127091042 24, 60.992176245817916 24, 106.7890625 24 M-106.7890625 24 C-42.9771454422342 24, 20.834771615531594 24, 106.7890625 24"/></g></g><g transform="translate(1492.3671875, 636)" id="classId-MockPlant-19" class="node default"><g class="basic label-container"><path style="" fill="#ECECFF" stroke-width="0" stroke="none" d="M-50.1796875 -42 L50.1796875 -42 L50.1796875 42 L-50.1796875 42"/><path style="" fill="none" stroke-width="1.3" stroke="#9370DB" d="M-50.1796875 -42 C-17.812998393328193 -42, 14.553690713343613 -42, 50.1796875 -42 M-50.1796875 -42 C-13.91874071103144 -42, 22.34220607793712 -42, 50.1796875 -42 M50.1796875 -42 C50.1796875 -19.595312715492806, 50.1796875 2.8093745690143876, 50.1796875 42 M50.1796875 -42 C50.1796875 -16.258123746527072, 50.1796875 9.483752506945855, 50.1796875 42 M50.1796875 42 C19.469690112114865 42, -11.24030727577027 42, -50.1796875 42 M50.1796875 42 C23.069230984879304 42, -4.041225530241391 42, -50.1796875 42 M-50.1796875 42 C-50.1796875 10.825235272041137, -50.1796875 -20.349529455917725, -50.1796875 -42 M-50.1796875 42 C-50.1796875 22.673316316382163, -50.1796875 3.346632632764326, -50.1796875 -42"/></g><g transform="translate(0, -18)" class="annotation-group text"/><g transform="translate(-38.1796875, -18)" class="label-group text"><g transform="translate(0,-12)" style="font-weight: bolder" class="label"><foreignObject height="24" width="76.359375"><div style="display: table-cell; white-space: nowrap; line-height: 1.5; max-width: 120px; text-align: center;" xmlns="http://www.w3.org/1999/xhtml"><span style="" class="nodeLabel markdown-node-label"><p>MockPlant</p></span></div></foreignObject></g></g><g transform="translate(-38.1796875, 30)" class="members-group text"/><g transform="translate(-38.1796875, 60)" class="methods-group text"/><g style="" class="divider"><path style="" fill="none" stroke-width="1.3" stroke="#9370DB" d="M-50.1796875 6 C-17.027360646574827 6, 16.124966206850345 6, 50.1796875 6 M-50.1796875 6 C-26.687982646633852 6, -3.1962777932677042 6, 50.1796875 6"/></g><g style="" class="divider"><path style="" fill="none" stroke-width="1.3" stroke="#9370DB" d="M-50.1796875 24 C-29.025747683103063 24, -7.871807866206126 24, 50.1796875 24 M-50.1796875 24 C-18.94433239073451 24, 12.291022718530982 24, 50.1796875 24"/></g></g></g></g></g></svg>