<svg aria-roledescription="er" role="graphics-document document" viewBox="-122.92723846435547 0 527.78662109375 931.036376953125" style="max-width: 527.787px; background-color: white;" xmlns:xlink="http://www.w3.org/1999/xlink" xmlns="http://www.w3.org/2000/svg" width="100%" id="my-svg"><style>#my-svg{font-family:"trebuchet ms",verdana,arial,sans-serif;font-size:16px;fill:#333;}#my-svg .error-icon{fill:#552222;}#my-svg .error-text{fill:#552222;stroke:#552222;}#my-svg .edge-thickness-normal{stroke-width:1px;}#my-svg .edge-thickness-thick{stroke-width:3.5px;}#my-svg .edge-pattern-solid{stroke-dasharray:0;}#my-svg .edge-thickness-invisible{stroke-width:0;fill:none;}#my-svg .edge-pattern-dashed{stroke-dasharray:3;}#my-svg .edge-pattern-dotted{stroke-dasharray:2;}#my-svg .marker{fill:#333333;stroke:#333333;}#my-svg .marker.cross{stroke:#333333;}#my-svg svg{font-family:"trebuchet ms",verdana,arial,sans-serif;font-size:16px;}#my-svg p{margin:0;}#my-svg .entityBox{fill:#ECECFF;stroke:#9370DB;}#my-svg .attributeBoxOdd{fill:#ffffff;stroke:#9370DB;}#my-svg .attributeBoxEven{fill:#f2f2f2;stroke:#9370DB;}#my-svg .relationshipLabelBox{fill:hsl(80, 100%, 96.2745098039%);opacity:0.7;background-color:hsl(80, 100%, 96.2745098039%);}#my-svg .relationshipLabelBox rect{opacity:0.5;}#my-svg .relationshipLine{stroke:#333333;}#my-svg .entityTitleText{text-anchor:middle;font-size:18px;fill:#333;}#my-svg #MD_PARENT_START{fill:#f5f5f5!important;stroke:#333333!important;stroke-width:1;}#my-svg #MD_PARENT_END{fill:#f5f5f5!important;stroke:#333333!important;stroke-width:1;}#my-svg :root{--mermaid-font-family:"trebuchet ms",verdana,arial,sans-serif;}</style><g/><defs><marker orient="auto" markerHeight="240" markerWidth="190" refY="7" refX="0" id="MD_PARENT_START"><path d="M 18,7 L9,13 L1,7 L9,1 Z"/></marker></defs><defs><marker orient="auto" markerHeight="28" markerWidth="20" refY="7" refX="19" id="MD_PARENT_END"><path d="M 18,7 L9,13 L1,7 L9,1 Z"/></marker></defs><defs><marker orient="auto" markerHeight="18" markerWidth="18" refY="9" refX="0" id="ONLY_ONE_START"><path d="M9,0 L9,18 M15,0 L15,18" fill="none" stroke="gray"/></marker></defs><defs><marker orient="auto" markerHeight="18" markerWidth="18" refY="9" refX="18" id="ONLY_ONE_END"><path d="M3,0 L3,18 M9,0 L9,18" fill="none" stroke="gray"/></marker></defs><defs><marker orient="auto" markerHeight="18" markerWidth="30" refY="9" refX="0" id="ZERO_OR_ONE_START"><circle r="6" cy="9" cx="21" fill="white" stroke="gray"/><path d="M9,0 L9,18" fill="none" stroke="gray"/></marker></defs><defs><marker orient="auto" markerHeight="18" markerWidth="30" refY="9" refX="30" id="ZERO_OR_ONE_END"><circle r="6" cy="9" cx="9" fill="white" stroke="gray"/><path d="M21,0 L21,18" fill="none" stroke="gray"/></marker></defs><defs><marker orient="auto" markerHeight="36" markerWidth="45" refY="18" refX="18" id="ONE_OR_MORE_START"><path d="M0,18 Q 18,0 36,18 Q 18,36 0,18 M42,9 L42,27" fill="none" stroke="gray"/></marker></defs><defs><marker orient="auto" markerHeight="36" markerWidth="45" refY="18" refX="27" id="ONE_OR_MORE_END"><path d="M3,9 L3,27 M9,18 Q27,0 45,18 Q27,36 9,18" fill="none" stroke="gray"/></marker></defs><defs><marker orient="auto" markerHeight="36" markerWidth="57" refY="18" refX="18" id="ZERO_OR_MORE_START"><circle r="6" cy="18" cx="48" fill="white" stroke="gray"/><path d="M0,18 Q18,0 36,18 Q18,36 0,18" fill="none" stroke="gray"/></marker></defs><defs><marker orient="auto" markerHeight="36" markerWidth="57" refY="18" refX="39" id="ZERO_OR_MORE_END"><circle r="6" cy="18" cx="9" fill="white" stroke="gray"/><path d="M21,18 Q39,0 57,18 Q39,36 21,18" fill="none" stroke="gray"/></marker></defs><path style="stroke: gray; fill: none;" marker-start="url(#ONLY_ONE_START)" marker-end="url(#ONE_OR_MORE_END)" d="M150,245.016L178.322,271.426C206.643,297.835,263.286,350.654,291.608,385.396C319.93,420.139,319.93,436.806,319.93,445.139L319.93,453.472" class="er relationshipLine"/><path style="stroke: gray; fill: none;" marker-start="url(#ONLY_ONE_START)" marker-end="url(#ZERO_OR_MORE_END)" d="M25,267.608L7.5,290.252C-10,312.896,-45,358.184,-62.5,405.903C-80,453.621,-80,503.77,-80,553.919C-80,604.068,-80,654.217,-58.04,693.385C-36.079,732.554,7.841,760.741,29.801,774.835L51.762,788.929" class="er relationshipLine"/><path style="stroke: gray; fill: none;" marker-start="url(#ONLY_ONE_START)" marker-end="url(#ONE_OR_MORE_END)" d="M87.5,353.472L87.5,361.806C87.5,370.139,87.5,386.806,87.5,410.843C87.5,434.88,87.5,466.288,87.5,481.992L87.5,497.696" class="er relationshipLine"/><path style="stroke: gray; fill: none;" marker-start="url(#ONLY_ONE_START)" marker-end="url(#ZERO_OR_MORE_END)" d="M319.93,654.366L319.93,662.699C319.93,671.033,319.93,687.699,297.969,710.127C276.009,732.554,232.089,760.741,210.128,774.835L188.168,788.929" class="er relationshipLine"/><g transform="translate(25,20 )" id="entity-BUKU-6be8ec10-f6e8-51b8-8d6f-b3150e5dcbd1"><rect height="333.4722833633423" width="125" y="0" x="0" class="er entityBox"/><text style="dominant-baseline: middle; text-anchor: middle; font-size: 12px;" transform="translate(62.5,12)" y="0" x="0" id="text-entity-BUKU-6be8ec10-f6e8-51b8-8d6f-b3150e5dcbd1" class="er entityLabel">BUKU</text><rect height="22.091797828674316" width="35.75" y="24" x="0" class="er attributeBoxOdd"/><text style="dominant-baseline: middle; font-size: 10.2px;" transform="translate(5,35.04589891433716)" y="0" x="0" id="text-entity-BUKU-6be8ec10-f6e8-51b8-8d6f-b3150e5dcbd1-attr-1-type" class="er entityLabel">string</text><rect height="22.091797828674316" width="67.6875" y="24" x="35.75" class="er attributeBoxOdd"/><text style="dominant-baseline: middle; font-size: 10.2px;" transform="translate(40.75,35.04589891433716)" y="0" x="0" id="text-entity-BUKU-6be8ec10-f6e8-51b8-8d6f-b3150e5dcbd1-attr-1-name" class="er entityLabel">id_buku</text><rect height="22.091797828674316" width="21.5625" y="24" x="103.4375" class="er attributeBoxOdd"/><text style="dominant-baseline: middle; font-size: 10.2px;" transform="translate(108.4375,35.04589891433716)" y="0" x="0" id="text-entity-BUKU-6be8ec10-f6e8-51b8-8d6f-b3150e5dcbd1-attr-1-key" class="er entityLabel">PK</text><rect height="22.13164234161377" width="35.75" y="46.091797828674316" x="0" class="er attributeBoxEven"/><text style="dominant-baseline: middle; font-size: 10.2px;" transform="translate(5,57.1576189994812)" y="0" x="0" id="text-entity-BUKU-6be8ec10-f6e8-51b8-8d6f-b3150e5dcbd1-attr-2-type" class="er entityLabel">string</text><rect height="22.13164234161377" width="67.6875" y="46.091797828674316" x="35.75" class="er attributeBoxEven"/><text style="dominant-baseline: middle; font-size: 10.2px;" transform="translate(40.75,57.1576189994812)" y="0" x="0" id="text-entity-BUKU-6be8ec10-f6e8-51b8-8d6f-b3150e5dcbd1-attr-2-name" class="er entityLabel">varying(10)</text><rect height="22.13164234161377" width="21.5625" y="46.091797828674316" x="103.4375" class="er attributeBoxEven"/><text style="dominant-baseline: middle; font-size: 10.2px;" transform="translate(108.4375,57.1576189994812)" y="0" x="0" id="text-entity-BUKU-6be8ec10-f6e8-51b8-8d6f-b3150e5dcbd1-attr-2-key" class="er entityLabel"/><rect height="22.091797828674316" width="35.75" y="68.22344017028809" x="0" class="er attributeBoxOdd"/><text style="dominant-baseline: middle; font-size: 10.2px;" transform="translate(5,79.26933908462524)" y="0" x="0" id="text-entity-BUKU-6be8ec10-f6e8-51b8-8d6f-b3150e5dcbd1-attr-3-type" class="er entityLabel">string</text><rect height="22.091797828674316" width="67.6875" y="68.22344017028809" x="35.75" class="er attributeBoxOdd"/><text style="dominant-baseline: middle; font-size: 10.2px;" transform="translate(40.75,79.26933908462524)" y="0" x="0" id="text-entity-BUKU-6be8ec10-f6e8-51b8-8d6f-b3150e5dcbd1-attr-3-name" class="er entityLabel">judul_buku</text><rect height="22.091797828674316" width="21.5625" y="68.22344017028809" x="103.4375" class="er attributeBoxOdd"/><text style="dominant-baseline: middle; font-size: 10.2px;" transform="translate(108.4375,79.26933908462524)" y="0" x="0" id="text-entity-BUKU-6be8ec10-f6e8-51b8-8d6f-b3150e5dcbd1-attr-3-key" class="er entityLabel"/><rect height="22.13164234161377" width="35.75" y="90.3152379989624" x="0" class="er attributeBoxEven"/><text style="dominant-baseline: middle; font-size: 10.2px;" transform="translate(5,101.38105916976929)" y="0" x="0" id="text-entity-BUKU-6be8ec10-f6e8-51b8-8d6f-b3150e5dcbd1-attr-4-type" class="er entityLabel">string</text><rect height="22.13164234161377" width="67.6875" y="90.3152379989624" x="35.75" class="er attributeBoxEven"/><text style="dominant-baseline: middle; font-size: 10.2px;" transform="translate(40.75,101.38105916976929)" y="0" x="0" id="text-entity-BUKU-6be8ec10-f6e8-51b8-8d6f-b3150e5dcbd1-attr-4-name" class="er entityLabel">varying(200)</text><rect height="22.13164234161377" width="21.5625" y="90.3152379989624" x="103.4375" class="er attributeBoxEven"/><text style="dominant-baseline: middle; font-size: 10.2px;" transform="translate(108.4375,101.38105916976929)" y="0" x="0" id="text-entity-BUKU-6be8ec10-f6e8-51b8-8d6f-b3150e5dcbd1-attr-4-key" class="er entityLabel"/><rect height="22.091797828674316" width="35.75" y="112.44688034057617" x="0" class="er attributeBoxOdd"/><text style="dominant-baseline: middle; font-size: 10.2px;" transform="translate(5,123.49277925491333)" y="0" x="0" id="text-entity-BUKU-6be8ec10-f6e8-51b8-8d6f-b3150e5dcbd1-attr-5-type" class="er entityLabel">string</text><rect height="22.091797828674316" width="67.6875" y="112.44688034057617" x="35.75" class="er attributeBoxOdd"/><text style="dominant-baseline: middle; font-size: 10.2px;" transform="translate(40.75,123.49277925491333)" y="0" x="0" id="text-entity-BUKU-6be8ec10-f6e8-51b8-8d6f-b3150e5dcbd1-attr-5-name" class="er entityLabel">isbn</text><rect height="22.091797828674316" width="21.5625" y="112.44688034057617" x="103.4375" class="er attributeBoxOdd"/><text style="dominant-baseline: middle; font-size: 10.2px;" transform="translate(108.4375,123.49277925491333)" y="0" x="0" id="text-entity-BUKU-6be8ec10-f6e8-51b8-8d6f-b3150e5dcbd1-attr-5-key" class="er entityLabel"/><rect height="22.13164234161377" width="35.75" y="134.5386781692505" x="0" class="er attributeBoxEven"/><text style="dominant-baseline: middle; font-size: 10.2px;" transform="translate(5,145.60449934005737)" y="0" x="0" id="text-entity-BUKU-6be8ec10-f6e8-51b8-8d6f-b3150e5dcbd1-attr-6-type" class="er entityLabel">string</text><rect height="22.13164234161377" width="67.6875" y="134.5386781692505" x="35.75" class="er attributeBoxEven"/><text style="dominant-baseline: middle; font-size: 10.2px;" transform="translate(40.75,145.60449934005737)" y="0" x="0" id="text-entity-BUKU-6be8ec10-f6e8-51b8-8d6f-b3150e5dcbd1-attr-6-name" class="er entityLabel">varying(20)</text><rect height="22.13164234161377" width="21.5625" y="134.5386781692505" x="103.4375" class="er attributeBoxEven"/><text style="dominant-baseline: middle; font-size: 10.2px;" transform="translate(108.4375,145.60449934005737)" y="0" x="0" id="text-entity-BUKU-6be8ec10-f6e8-51b8-8d6f-b3150e5dcbd1-attr-6-key" class="er entityLabel"/><rect height="22" width="35.75" y="156.67032051086426" x="0" class="er attributeBoxOdd"/><text style="dominant-baseline: middle; font-size: 10.2px;" transform="translate(5,167.67032051086426)" y="0" x="0" id="text-entity-BUKU-6be8ec10-f6e8-51b8-8d6f-b3150e5dcbd1-attr-7-type" class="er entityLabel">int</text><rect height="22" width="67.6875" y="156.67032051086426" x="35.75" class="er attributeBoxOdd"/><text style="dominant-baseline: middle; font-size: 10.2px;" transform="translate(40.75,167.67032051086426)" y="0" x="0" id="text-entity-BUKU-6be8ec10-f6e8-51b8-8d6f-b3150e5dcbd1-attr-7-name" class="er entityLabel">tahun_terbit</text><rect height="22" width="21.5625" y="156.67032051086426" x="103.4375" class="er attributeBoxOdd"/><text style="dominant-baseline: middle; font-size: 10.2px;" transform="translate(108.4375,167.67032051086426)" y="0" x="0" id="text-entity-BUKU-6be8ec10-f6e8-51b8-8d6f-b3150e5dcbd1-attr-7-key" class="er entityLabel"/><rect height="22.13164234161377" width="35.75" y="178.67032051086426" x="0" class="er attributeBoxEven"/><text style="dominant-baseline: middle; font-size: 10.2px;" transform="translate(5,189.73614168167114)" y="0" x="0" id="text-entity-BUKU-6be8ec10-f6e8-51b8-8d6f-b3150e5dcbd1-attr-8-type" class="er entityLabel">int</text><rect height="22.13164234161377" width="67.6875" y="178.67032051086426" x="35.75" class="er attributeBoxEven"/><text style="dominant-baseline: middle; font-size: 10.2px;" transform="translate(40.75,189.73614168167114)" y="0" x="0" id="text-entity-BUKU-6be8ec10-f6e8-51b8-8d6f-b3150e5dcbd1-attr-8-name" class="er entityLabel">varying(4)</text><rect height="22.13164234161377" width="21.5625" y="178.67032051086426" x="103.4375" class="er attributeBoxEven"/><text style="dominant-baseline: middle; font-size: 10.2px;" transform="translate(108.4375,189.73614168167114)" y="0" x="0" id="text-entity-BUKU-6be8ec10-f6e8-51b8-8d6f-b3150e5dcbd1-attr-8-key" class="er entityLabel"/><rect height="22.091797828674316" width="35.75" y="200.80196285247803" x="0" class="er attributeBoxOdd"/><text style="dominant-baseline: middle; font-size: 10.2px;" transform="translate(5,211.84786176681519)" y="0" x="0" id="text-entity-BUKU-6be8ec10-f6e8-51b8-8d6f-b3150e5dcbd1-attr-9-type" class="er entityLabel">string</text><rect height="22.091797828674316" width="67.6875" y="200.80196285247803" x="35.75" class="er attributeBoxOdd"/><text style="dominant-baseline: middle; font-size: 10.2px;" transform="translate(40.75,211.84786176681519)" y="0" x="0" id="text-entity-BUKU-6be8ec10-f6e8-51b8-8d6f-b3150e5dcbd1-attr-9-name" class="er entityLabel">id_penulis</text><rect height="22.091797828674316" width="21.5625" y="200.80196285247803" x="103.4375" class="er attributeBoxOdd"/><text style="dominant-baseline: middle; font-size: 10.2px;" transform="translate(108.4375,211.84786176681519)" y="0" x="0" id="text-entity-BUKU-6be8ec10-f6e8-51b8-8d6f-b3150e5dcbd1-attr-9-key" class="er entityLabel">FK</text><rect height="22.13164234161377" width="35.75" y="222.89376068115234" x="0" class="er attributeBoxEven"/><text style="dominant-baseline: middle; font-size: 10.2px;" transform="translate(5,233.95958185195923)" y="0" x="0" id="text-entity-BUKU-6be8ec10-f6e8-51b8-8d6f-b3150e5dcbd1-attr-10-type" class="er entityLabel">string</text><rect height="22.13164234161377" width="67.6875" y="222.89376068115234" x="35.75" class="er attributeBoxEven"/><text style="dominant-baseline: middle; font-size: 10.2px;" transform="translate(40.75,233.95958185195923)" y="0" x="0" id="text-entity-BUKU-6be8ec10-f6e8-51b8-8d6f-b3150e5dcbd1-attr-10-name" class="er entityLabel">varying(10)</text><rect height="22.13164234161377" width="21.5625" y="222.89376068115234" x="103.4375" class="er attributeBoxEven"/><text style="dominant-baseline: middle; font-size: 10.2px;" transform="translate(108.4375,233.95958185195923)" y="0" x="0" id="text-entity-BUKU-6be8ec10-f6e8-51b8-8d6f-b3150e5dcbd1-attr-10-key" class="er entityLabel"/><rect height="22.091797828674316" width="35.75" y="245.0254030227661" x="0" class="er attributeBoxOdd"/><text style="dominant-baseline: middle; font-size: 10.2px;" transform="translate(5,256.07130193710327)" y="0" x="0" id="text-entity-BUKU-6be8ec10-f6e8-51b8-8d6f-b3150e5dcbd1-attr-11-type" class="er entityLabel">string</text><rect height="22.091797828674316" width="67.6875" y="245.0254030227661" x="35.75" class="er attributeBoxOdd"/><text style="dominant-baseline: middle; font-size: 10.2px;" transform="translate(40.75,256.07130193710327)" y="0" x="0" id="text-entity-BUKU-6be8ec10-f6e8-51b8-8d6f-b3150e5dcbd1-attr-11-name" class="er entityLabel">id_penerbit</text><rect height="22.091797828674316" width="21.5625" y="245.0254030227661" x="103.4375" class="er attributeBoxOdd"/><text style="dominant-baseline: middle; font-size: 10.2px;" transform="translate(108.4375,256.07130193710327)" y="0" x="0" id="text-entity-BUKU-6be8ec10-f6e8-51b8-8d6f-b3150e5dcbd1-attr-11-key" class="er entityLabel">FK</text><rect height="22.13164234161377" width="35.75" y="267.11720085144043" x="0" class="er attributeBoxEven"/><text style="dominant-baseline: middle; font-size: 10.2px;" transform="translate(5,278.1830220222473)" y="0" x="0" id="text-entity-BUKU-6be8ec10-f6e8-51b8-8d6f-b3150e5dcbd1-attr-12-type" class="er entityLabel">string</text><rect height="22.13164234161377" width="67.6875" y="267.11720085144043" x="35.75" class="er attributeBoxEven"/><text style="dominant-baseline: middle; font-size: 10.2px;" transform="translate(40.75,278.1830220222473)" y="0" x="0" id="text-entity-BUKU-6be8ec10-f6e8-51b8-8d6f-b3150e5dcbd1-attr-12-name" class="er entityLabel">varying(10)</text><rect height="22.13164234161377" width="21.5625" y="267.11720085144043" x="103.4375" class="er attributeBoxEven"/><text style="dominant-baseline: middle; font-size: 10.2px;" transform="translate(108.4375,278.1830220222473)" y="0" x="0" id="text-entity-BUKU-6be8ec10-f6e8-51b8-8d6f-b3150e5dcbd1-attr-12-key" class="er entityLabel"/><rect height="22.091797828674316" width="35.75" y="289.2488431930542" x="0" class="er attributeBoxOdd"/><text style="dominant-baseline: middle; font-size: 10.2px;" transform="translate(5,300.29474210739136)" y="0" x="0" id="text-entity-BUKU-6be8ec10-f6e8-51b8-8d6f-b3150e5dcbd1-attr-13-type" class="er entityLabel">string</text><rect height="22.091797828674316" width="67.6875" y="289.2488431930542" x="35.75" class="er attributeBoxOdd"/><text style="dominant-baseline: middle; font-size: 10.2px;" transform="translate(40.75,300.29474210739136)" y="0" x="0" id="text-entity-BUKU-6be8ec10-f6e8-51b8-8d6f-b3150e5dcbd1-attr-13-name" class="er entityLabel">id_kategori</text><rect height="22.091797828674316" width="21.5625" y="289.2488431930542" x="103.4375" class="er attributeBoxOdd"/><text style="dominant-baseline: middle; font-size: 10.2px;" transform="translate(108.4375,300.29474210739136)" y="0" x="0" id="text-entity-BUKU-6be8ec10-f6e8-51b8-8d6f-b3150e5dcbd1-attr-13-key" class="er entityLabel">FK</text><rect height="22.13164234161377" width="35.75" y="311.3406410217285" x="0" class="er attributeBoxEven"/><text style="dominant-baseline: middle; font-size: 10.2px;" transform="translate(5,322.4064621925354)" y="0" x="0" id="text-entity-BUKU-6be8ec10-f6e8-51b8-8d6f-b3150e5dcbd1-attr-14-type" class="er entityLabel">string</text><rect height="22.13164234161377" width="67.6875" y="311.3406410217285" x="35.75" class="er attributeBoxEven"/><text style="dominant-baseline: middle; font-size: 10.2px;" transform="translate(40.75,322.4064621925354)" y="0" x="0" id="text-entity-BUKU-6be8ec10-f6e8-51b8-8d6f-b3150e5dcbd1-attr-14-name" class="er entityLabel">varying(10)</text><rect height="22.13164234161377" width="21.5625" y="311.3406410217285" x="103.4375" class="er attributeBoxEven"/><text style="dominant-baseline: middle; font-size: 10.2px;" transform="translate(108.4375,322.4064621925354)" y="0" x="0" id="text-entity-BUKU-6be8ec10-f6e8-51b8-8d6f-b3150e5dcbd1-attr-14-key" class="er entityLabel"/></g><g transform="translate(255,453.4722900390625 )" id="entity-PENULIS-60cf0373-b045-5d7a-9192-8291abd8705f"><rect height="200.89376068115234" width="129.859375" y="0" x="0" class="er entityBox"/><text style="dominant-baseline: middle; text-anchor: middle; font-size: 12px;" transform="translate(64.9296875,12)" y="0" x="0" id="text-entity-PENULIS-60cf0373-b045-5d7a-9192-8291abd8705f" class="er entityLabel">PENULIS</text><rect height="22.091797828674316" width="35.75" y="24" x="0" class="er attributeBoxOdd"/><text style="dominant-baseline: middle; font-size: 10.2px;" transform="translate(5,35.04589891433716)" y="0" x="0" id="text-entity-PENULIS-60cf0373-b045-5d7a-9192-8291abd8705f-attr-1-type" class="er entityLabel">string</text><rect height="22.091797828674316" width="72.546875" y="24" x="35.75" class="er attributeBoxOdd"/><text style="dominant-baseline: middle; font-size: 10.2px;" transform="translate(40.75,35.04589891433716)" y="0" x="0" id="text-entity-PENULIS-60cf0373-b045-5d7a-9192-8291abd8705f-attr-1-name" class="er entityLabel">id_penulis</text><rect height="22.091797828674316" width="21.5625" y="24" x="108.296875" class="er attributeBoxOdd"/><text style="dominant-baseline: middle; font-size: 10.2px;" transform="translate(113.296875,35.04589891433716)" y="0" x="0" id="text-entity-PENULIS-60cf0373-b045-5d7a-9192-8291abd8705f-attr-1-key" class="er entityLabel">PK</text><rect height="22.13164234161377" width="35.75" y="46.091797828674316" x="0" class="er attributeBoxEven"/><text style="dominant-baseline: middle; font-size: 10.2px;" transform="translate(5,57.1576189994812)" y="0" x="0" id="text-entity-PENULIS-60cf0373-b045-5d7a-9192-8291abd8705f-attr-2-type" class="er entityLabel">string</text><rect height="22.13164234161377" width="72.546875" y="46.091797828674316" x="35.75" class="er attributeBoxEven"/><text style="dominant-baseline: middle; font-size: 10.2px;" transform="translate(40.75,57.1576189994812)" y="0" x="0" id="text-entity-PENULIS-60cf0373-b045-5d7a-9192-8291abd8705f-attr-2-name" class="er entityLabel">varying(10)</text><rect height="22.13164234161377" width="21.5625" y="46.091797828674316" x="108.296875" class="er attributeBoxEven"/><text style="dominant-baseline: middle; font-size: 10.2px;" transform="translate(113.296875,57.1576189994812)" y="0" x="0" id="text-entity-PENULIS-60cf0373-b045-5d7a-9192-8291abd8705f-attr-2-key" class="er entityLabel"/><rect height="22.091797828674316" width="35.75" y="68.22344017028809" x="0" class="er attributeBoxOdd"/><text style="dominant-baseline: middle; font-size: 10.2px;" transform="translate(5,79.26933908462524)" y="0" x="0" id="text-entity-PENULIS-60cf0373-b045-5d7a-9192-8291abd8705f-attr-3-type" class="er entityLabel">string</text><rect height="22.091797828674316" width="72.546875" y="68.22344017028809" x="35.75" class="er attributeBoxOdd"/><text style="dominant-baseline: middle; font-size: 10.2px;" transform="translate(40.75,79.26933908462524)" y="0" x="0" id="text-entity-PENULIS-60cf0373-b045-5d7a-9192-8291abd8705f-attr-3-name" class="er entityLabel">nama_penulis</text><rect height="22.091797828674316" width="21.5625" y="68.22344017028809" x="108.296875" class="er attributeBoxOdd"/><text style="dominant-baseline: middle; font-size: 10.2px;" transform="translate(113.296875,79.26933908462524)" y="0" x="0" id="text-entity-PENULIS-60cf0373-b045-5d7a-9192-8291abd8705f-attr-3-key" class="er entityLabel"/><rect height="22.13164234161377" width="35.75" y="90.3152379989624" x="0" class="er attributeBoxEven"/><text style="dominant-baseline: middle; font-size: 10.2px;" transform="translate(5,101.38105916976929)" y="0" x="0" id="text-entity-PENULIS-60cf0373-b045-5d7a-9192-8291abd8705f-attr-4-type" class="er entityLabel">string</text><rect height="22.13164234161377" width="72.546875" y="90.3152379989624" x="35.75" class="er attributeBoxEven"/><text style="dominant-baseline: middle; font-size: 10.2px;" transform="translate(40.75,101.38105916976929)" y="0" x="0" id="text-entity-PENULIS-60cf0373-b045-5d7a-9192-8291abd8705f-attr-4-name" class="er entityLabel">varying(100)</text><rect height="22.13164234161377" width="21.5625" y="90.3152379989624" x="108.296875" class="er attributeBoxEven"/><text style="dominant-baseline: middle; font-size: 10.2px;" transform="translate(113.296875,101.38105916976929)" y="0" x="0" id="text-entity-PENULIS-60cf0373-b045-5d7a-9192-8291abd8705f-attr-4-key" class="er entityLabel"/><rect height="22.091797828674316" width="35.75" y="112.44688034057617" x="0" class="er attributeBoxOdd"/><text style="dominant-baseline: middle; font-size: 10.2px;" transform="translate(5,123.49277925491333)" y="0" x="0" id="text-entity-PENULIS-60cf0373-b045-5d7a-9192-8291abd8705f-attr-5-type" class="er entityLabel">string</text><rect height="22.091797828674316" width="72.546875" y="112.44688034057617" x="35.75" class="er attributeBoxOdd"/><text style="dominant-baseline: middle; font-size: 10.2px;" transform="translate(40.75,123.49277925491333)" y="0" x="0" id="text-entity-PENULIS-60cf0373-b045-5d7a-9192-8291abd8705f-attr-5-name" class="er entityLabel">id_penerbit</text><rect height="22.091797828674316" width="21.5625" y="112.44688034057617" x="108.296875" class="er attributeBoxOdd"/><text style="dominant-baseline: middle; font-size: 10.2px;" transform="translate(113.296875,123.49277925491333)" y="0" x="0" id="text-entity-PENULIS-60cf0373-b045-5d7a-9192-8291abd8705f-attr-5-key" class="er entityLabel">FK</text><rect height="22.13164234161377" width="35.75" y="134.5386781692505" x="0" class="er attributeBoxEven"/><text style="dominant-baseline: middle; font-size: 10.2px;" transform="translate(5,145.60449934005737)" y="0" x="0" id="text-entity-PENULIS-60cf0373-b045-5d7a-9192-8291abd8705f-attr-6-type" class="er entityLabel">string</text><rect height="22.13164234161377" width="72.546875" y="134.5386781692505" x="35.75" class="er attributeBoxEven"/><text style="dominant-baseline: middle; font-size: 10.2px;" transform="translate(40.75,145.60449934005737)" y="0" x="0" id="text-entity-PENULIS-60cf0373-b045-5d7a-9192-8291abd8705f-attr-6-name" class="er entityLabel">varying(10)</text><rect height="22.13164234161377" width="21.5625" y="134.5386781692505" x="108.296875" class="er attributeBoxEven"/><text style="dominant-baseline: middle; font-size: 10.2px;" transform="translate(113.296875,145.60449934005737)" y="0" x="0" id="text-entity-PENULIS-60cf0373-b045-5d7a-9192-8291abd8705f-attr-6-key" class="er entityLabel"/><rect height="22.091797828674316" width="35.75" y="156.67032051086426" x="0" class="er attributeBoxOdd"/><text style="dominant-baseline: middle; font-size: 10.2px;" transform="translate(5,167.71621942520142)" y="0" x="0" id="text-entity-PENULIS-60cf0373-b045-5d7a-9192-8291abd8705f-attr-7-type" class="er entityLabel">string</text><rect height="22.091797828674316" width="72.546875" y="156.67032051086426" x="35.75" class="er attributeBoxOdd"/><text style="dominant-baseline: middle; font-size: 10.2px;" transform="translate(40.75,167.71621942520142)" y="0" x="0" id="text-entity-PENULIS-60cf0373-b045-5d7a-9192-8291abd8705f-attr-7-name" class="er entityLabel">deskripsi</text><rect height="22.091797828674316" width="21.5625" y="156.67032051086426" x="108.296875" class="er attributeBoxOdd"/><text style="dominant-baseline: middle; font-size: 10.2px;" transform="translate(113.296875,167.71621942520142)" y="0" x="0" id="text-entity-PENULIS-60cf0373-b045-5d7a-9192-8291abd8705f-attr-7-key" class="er entityLabel"/><rect height="22.13164234161377" width="35.75" y="178.76211833953857" x="0" class="er attributeBoxEven"/><text style="dominant-baseline: middle; font-size: 10.2px;" transform="translate(5,189.82793951034546)" y="0" x="0" id="text-entity-PENULIS-60cf0373-b045-5d7a-9192-8291abd8705f-attr-8-type" class="er entityLabel">string</text><rect height="22.13164234161377" width="72.546875" y="178.76211833953857" x="35.75" class="er attributeBoxEven"/><text style="dominant-baseline: middle; font-size: 10.2px;" transform="translate(40.75,189.82793951034546)" y="0" x="0" id="text-entity-PENULIS-60cf0373-b045-5d7a-9192-8291abd8705f-attr-8-name" class="er entityLabel">varying(500)</text><rect height="22.13164234161377" width="21.5625" y="178.76211833953857" x="108.296875" class="er attributeBoxEven"/><text style="dominant-baseline: middle; font-size: 10.2px;" transform="translate(113.296875,189.82793951034546)" y="0" x="0" id="text-entity-PENULIS-60cf0373-b045-5d7a-9192-8291abd8705f-attr-8-key" class="er entityLabel"/></g><g transform="translate(51.76171875,754.3660430908203 )" id="entity-PENERBIT-52ed825a-87ac-597c-a4de-806fa1cb114a"><rect height="156.67032051086426" width="136.40625" y="0" x="0" class="er entityBox"/><text style="dominant-baseline: middle; text-anchor: middle; font-size: 12px;" transform="translate(68.203125,12)" y="0" x="0" id="text-entity-PENERBIT-52ed825a-87ac-597c-a4de-806fa1cb114a" class="er entityLabel">PENERBIT</text><rect height="22.091797828674316" width="35.75" y="24" x="0" class="er attributeBoxOdd"/><text style="dominant-baseline: middle; font-size: 10.2px;" transform="translate(5,35.04589891433716)" y="0" x="0" id="text-entity-PENERBIT-52ed825a-87ac-597c-a4de-806fa1cb114a-attr-1-type" class="er entityLabel">string</text><rect height="22.091797828674316" width="79.09375" y="24" x="35.75" class="er attributeBoxOdd"/><text style="dominant-baseline: middle; font-size: 10.2px;" transform="translate(40.75,35.04589891433716)" y="0" x="0" id="text-entity-PENERBIT-52ed825a-87ac-597c-a4de-806fa1cb114a-attr-1-name" class="er entityLabel">id_penerbit</text><rect height="22.091797828674316" width="21.5625" y="24" x="114.84375" class="er attributeBoxOdd"/><text style="dominant-baseline: middle; font-size: 10.2px;" transform="translate(119.84375,35.04589891433716)" y="0" x="0" id="text-entity-PENERBIT-52ed825a-87ac-597c-a4de-806fa1cb114a-attr-1-key" class="er entityLabel">PK</text><rect height="22.13164234161377" width="35.75" y="46.091797828674316" x="0" class="er attributeBoxEven"/><text style="dominant-baseline: middle; font-size: 10.2px;" transform="translate(5,57.1576189994812)" y="0" x="0" id="text-entity-PENERBIT-52ed825a-87ac-597c-a4de-806fa1cb114a-attr-2-type" class="er entityLabel">string</text><rect height="22.13164234161377" width="79.09375" y="46.091797828674316" x="35.75" class="er attributeBoxEven"/><text style="dominant-baseline: middle; font-size: 10.2px;" transform="translate(40.75,57.1576189994812)" y="0" x="0" id="text-entity-PENERBIT-52ed825a-87ac-597c-a4de-806fa1cb114a-attr-2-name" class="er entityLabel">varying(10)</text><rect height="22.13164234161377" width="21.5625" y="46.091797828674316" x="114.84375" class="er attributeBoxEven"/><text style="dominant-baseline: middle; font-size: 10.2px;" transform="translate(119.84375,57.1576189994812)" y="0" x="0" id="text-entity-PENERBIT-52ed825a-87ac-597c-a4de-806fa1cb114a-attr-2-key" class="er entityLabel"/><rect height="22.091797828674316" width="35.75" y="68.22344017028809" x="0" class="er attributeBoxOdd"/><text style="dominant-baseline: middle; font-size: 10.2px;" transform="translate(5,79.26933908462524)" y="0" x="0" id="text-entity-PENERBIT-52ed825a-87ac-597c-a4de-806fa1cb114a-attr-3-type" class="er entityLabel">string</text><rect height="22.091797828674316" width="79.09375" y="68.22344017028809" x="35.75" class="er attributeBoxOdd"/><text style="dominant-baseline: middle; font-size: 10.2px;" transform="translate(40.75,79.26933908462524)" y="0" x="0" id="text-entity-PENERBIT-52ed825a-87ac-597c-a4de-806fa1cb114a-attr-3-name" class="er entityLabel">nama_penerbit</text><rect height="22.091797828674316" width="21.5625" y="68.22344017028809" x="114.84375" class="er attributeBoxOdd"/><text style="dominant-baseline: middle; font-size: 10.2px;" transform="translate(119.84375,79.26933908462524)" y="0" x="0" id="text-entity-PENERBIT-52ed825a-87ac-597c-a4de-806fa1cb114a-attr-3-key" class="er entityLabel"/><rect height="22.13164234161377" width="35.75" y="90.3152379989624" x="0" class="er attributeBoxEven"/><text style="dominant-baseline: middle; font-size: 10.2px;" transform="translate(5,101.38105916976929)" y="0" x="0" id="text-entity-PENERBIT-52ed825a-87ac-597c-a4de-806fa1cb114a-attr-4-type" class="er entityLabel">string</text><rect height="22.13164234161377" width="79.09375" y="90.3152379989624" x="35.75" class="er attributeBoxEven"/><text style="dominant-baseline: middle; font-size: 10.2px;" transform="translate(40.75,101.38105916976929)" y="0" x="0" id="text-entity-PENERBIT-52ed825a-87ac-597c-a4de-806fa1cb114a-attr-4-name" class="er entityLabel">varying(100)</text><rect height="22.13164234161377" width="21.5625" y="90.3152379989624" x="114.84375" class="er attributeBoxEven"/><text style="dominant-baseline: middle; font-size: 10.2px;" transform="translate(119.84375,101.38105916976929)" y="0" x="0" id="text-entity-PENERBIT-52ed825a-87ac-597c-a4de-806fa1cb114a-attr-4-key" class="er entityLabel"/><rect height="22.091797828674316" width="35.75" y="112.44688034057617" x="0" class="er attributeBoxOdd"/><text style="dominant-baseline: middle; font-size: 10.2px;" transform="translate(5,123.49277925491333)" y="0" x="0" id="text-entity-PENERBIT-52ed825a-87ac-597c-a4de-806fa1cb114a-attr-5-type" class="er entityLabel">string</text><rect height="22.091797828674316" width="79.09375" y="112.44688034057617" x="35.75" class="er attributeBoxOdd"/><text style="dominant-baseline: middle; font-size: 10.2px;" transform="translate(40.75,123.49277925491333)" y="0" x="0" id="text-entity-PENERBIT-52ed825a-87ac-597c-a4de-806fa1cb114a-attr-5-name" class="er entityLabel">lokasi</text><rect height="22.091797828674316" width="21.5625" y="112.44688034057617" x="114.84375" class="er attributeBoxOdd"/><text style="dominant-baseline: middle; font-size: 10.2px;" transform="translate(119.84375,123.49277925491333)" y="0" x="0" id="text-entity-PENERBIT-52ed825a-87ac-597c-a4de-806fa1cb114a-attr-5-key" class="er entityLabel"/><rect height="22.13164234161377" width="35.75" y="134.5386781692505" x="0" class="er attributeBoxEven"/><text style="dominant-baseline: middle; font-size: 10.2px;" transform="translate(5,145.60449934005737)" y="0" x="0" id="text-entity-PENERBIT-52ed825a-87ac-597c-a4de-806fa1cb114a-attr-6-type" class="er entityLabel">string</text><rect height="22.13164234161377" width="79.09375" y="134.5386781692505" x="35.75" class="er attributeBoxEven"/><text style="dominant-baseline: middle; font-size: 10.2px;" transform="translate(40.75,145.60449934005737)" y="0" x="0" id="text-entity-PENERBIT-52ed825a-87ac-597c-a4de-806fa1cb114a-attr-6-name" class="er entityLabel">varying(100)</text><rect height="22.13164234161377" width="21.5625" y="134.5386781692505" x="114.84375" class="er attributeBoxEven"/><text style="dominant-baseline: middle; font-size: 10.2px;" transform="translate(119.84375,145.60449934005737)" y="0" x="0" id="text-entity-PENERBIT-52ed825a-87ac-597c-a4de-806fa1cb114a-attr-6-key" class="er entityLabel"/></g><g transform="translate(20,497.69572830200195 )" id="entity-KATEGORI-779869cc-d446-5884-aa7c-f06a3c4baef8"><rect height="112.44688034057617" width="135" y="0" x="0" class="er entityBox"/><text style="dominant-baseline: middle; text-anchor: middle; font-size: 12px;" transform="translate(67.5,12)" y="0" x="0" id="text-entity-KATEGORI-779869cc-d446-5884-aa7c-f06a3c4baef8" class="er entityLabel">KATEGORI</text><rect height="22.091797828674316" width="35.75" y="24" x="0" class="er attributeBoxOdd"/><text style="dominant-baseline: middle; font-size: 10.2px;" transform="translate(5,35.04589891433716)" y="0" x="0" id="text-entity-KATEGORI-779869cc-d446-5884-aa7c-f06a3c4baef8-attr-1-type" class="er entityLabel">string</text><rect height="22.091797828674316" width="77.6875" y="24" x="35.75" class="er attributeBoxOdd"/><text style="dominant-baseline: middle; font-size: 10.2px;" transform="translate(40.75,35.04589891433716)" y="0" x="0" id="text-entity-KATEGORI-779869cc-d446-5884-aa7c-f06a3c4baef8-attr-1-name" class="er entityLabel">id_kategori</text><rect height="22.091797828674316" width="21.5625" y="24" x="113.4375" class="er attributeBoxOdd"/><text style="dominant-baseline: middle; font-size: 10.2px;" transform="translate(118.4375,35.04589891433716)" y="0" x="0" id="text-entity-KATEGORI-779869cc-d446-5884-aa7c-f06a3c4baef8-attr-1-key" class="er entityLabel">PK</text><rect height="22.13164234161377" width="35.75" y="46.091797828674316" x="0" class="er attributeBoxEven"/><text style="dominant-baseline: middle; font-size: 10.2px;" transform="translate(5,57.1576189994812)" y="0" x="0" id="text-entity-KATEGORI-779869cc-d446-5884-aa7c-f06a3c4baef8-attr-2-type" class="er entityLabel">string</text><rect height="22.13164234161377" width="77.6875" y="46.091797828674316" x="35.75" class="er attributeBoxEven"/><text style="dominant-baseline: middle; font-size: 10.2px;" transform="translate(40.75,57.1576189994812)" y="0" x="0" id="text-entity-KATEGORI-779869cc-d446-5884-aa7c-f06a3c4baef8-attr-2-name" class="er entityLabel">varying(10)</text><rect height="22.13164234161377" width="21.5625" y="46.091797828674316" x="113.4375" class="er attributeBoxEven"/><text style="dominant-baseline: middle; font-size: 10.2px;" transform="translate(118.4375,57.1576189994812)" y="0" x="0" id="text-entity-KATEGORI-779869cc-d446-5884-aa7c-f06a3c4baef8-attr-2-key" class="er entityLabel"/><rect height="22.091797828674316" width="35.75" y="68.22344017028809" x="0" class="er attributeBoxOdd"/><text style="dominant-baseline: middle; font-size: 10.2px;" transform="translate(5,79.26933908462524)" y="0" x="0" id="text-entity-KATEGORI-779869cc-d446-5884-aa7c-f06a3c4baef8-attr-3-type" class="er entityLabel">string</text><rect height="22.091797828674316" width="77.6875" y="68.22344017028809" x="35.75" class="er attributeBoxOdd"/><text style="dominant-baseline: middle; font-size: 10.2px;" transform="translate(40.75,79.26933908462524)" y="0" x="0" id="text-entity-KATEGORI-779869cc-d446-5884-aa7c-f06a3c4baef8-attr-3-name" class="er entityLabel">nama_kategori</text><rect height="22.091797828674316" width="21.5625" y="68.22344017028809" x="113.4375" class="er attributeBoxOdd"/><text style="dominant-baseline: middle; font-size: 10.2px;" transform="translate(118.4375,79.26933908462524)" y="0" x="0" id="text-entity-KATEGORI-779869cc-d446-5884-aa7c-f06a3c4baef8-attr-3-key" class="er entityLabel"/><rect height="22.13164234161377" width="35.75" y="90.3152379989624" x="0" class="er attributeBoxEven"/><text style="dominant-baseline: middle; font-size: 10.2px;" transform="translate(5,101.38105916976929)" y="0" x="0" id="text-entity-KATEGORI-779869cc-d446-5884-aa7c-f06a3c4baef8-attr-4-type" class="er entityLabel">string</text><rect height="22.13164234161377" width="77.6875" y="90.3152379989624" x="35.75" class="er attributeBoxEven"/><text style="dominant-baseline: middle; font-size: 10.2px;" transform="translate(40.75,101.38105916976929)" y="0" x="0" id="text-entity-KATEGORI-779869cc-d446-5884-aa7c-f06a3c4baef8-attr-4-name" class="er entityLabel">varying(100)</text><rect height="22.13164234161377" width="21.5625" y="90.3152379989624" x="113.4375" class="er attributeBoxEven"/><text style="dominant-baseline: middle; font-size: 10.2px;" transform="translate(118.4375,101.38105916976929)" y="0" x="0" id="text-entity-KATEGORI-779869cc-d446-5884-aa7c-f06a3c4baef8-attr-4-key" class="er entityLabel"/></g><rect height="14" width="38.171875" y="332.9309997558594" x="230.6082763671875" class="er relationshipLabelBox"/><text style="text-anchor: middle; dominant-baseline: middle; font-size: 12px;" y="339.9309997558594" x="249.6942138671875" id="rel1" class="er relationshipLabel">penulis</text><rect height="14" width="45.875" y="534.7411499023438" x="-102.92723846435547" class="er relationshipLabelBox"/><text style="text-anchor: middle; dominant-baseline: middle; font-size: 12px;" y="541.7411499023438" x="-79.98973846435547" id="rel2" class="er relationshipLabel">penerbit</text><rect height="14" width="44.21875" y="418.583984375" x="65.390625" class="er relationshipLabelBox"/><text style="text-anchor: middle; dominant-baseline: middle; font-size: 12px;" y="425.583984375" x="87.5" id="rel3" class="er relationshipLabel">kategori</text><rect height="14" width="19.296875" y="726.877685546875" x="260.4823303222656" class="er relationshipLabelBox"/><text style="text-anchor: middle; dominant-baseline: middle; font-size: 12px;" y="733.877685546875" x="270.1307678222656" id="rel4" class="er relationshipLabel">ada</text></svg>