<svg aria-roledescription="er" role="graphics-document document" viewBox="0 0 540 407.18359375" style="max-width: 540px; background-color: white;" xmlns:xlink="http://www.w3.org/1999/xlink" xmlns="http://www.w3.org/2000/svg" width="100%" id="my-svg"><style>#my-svg{font-family:"trebuchet ms",verdana,arial,sans-serif;font-size:16px;fill:#333;}#my-svg .error-icon{fill:#552222;}#my-svg .error-text{fill:#552222;stroke:#552222;}#my-svg .edge-thickness-normal{stroke-width:1px;}#my-svg .edge-thickness-thick{stroke-width:3.5px;}#my-svg .edge-pattern-solid{stroke-dasharray:0;}#my-svg .edge-thickness-invisible{stroke-width:0;fill:none;}#my-svg .edge-pattern-dashed{stroke-dasharray:3;}#my-svg .edge-pattern-dotted{stroke-dasharray:2;}#my-svg .marker{fill:#333333;stroke:#333333;}#my-svg .marker.cross{stroke:#333333;}#my-svg svg{font-family:"trebuchet ms",verdana,arial,sans-serif;font-size:16px;}#my-svg p{margin:0;}#my-svg .entityBox{fill:#ECECFF;stroke:#9370DB;}#my-svg .attributeBoxOdd{fill:#ffffff;stroke:#9370DB;}#my-svg .attributeBoxEven{fill:#f2f2f2;stroke:#9370DB;}#my-svg .relationshipLabelBox{fill:hsl(80, 100%, 96.2745098039%);opacity:0.7;background-color:hsl(80, 100%, 96.2745098039%);}#my-svg .relationshipLabelBox rect{opacity:0.5;}#my-svg .relationshipLine{stroke:#333333;}#my-svg .entityTitleText{text-anchor:middle;font-size:18px;fill:#333;}#my-svg #MD_PARENT_START{fill:#f5f5f5!important;stroke:#333333!important;stroke-width:1;}#my-svg #MD_PARENT_END{fill:#f5f5f5!important;stroke:#333333!important;stroke-width:1;}#my-svg :root{--mermaid-font-family:"trebuchet ms",verdana,arial,sans-serif;}</style><g/><defs><marker orient="auto" markerHeight="240" markerWidth="190" refY="7" refX="0" id="MD_PARENT_START"><path d="M 18,7 L9,13 L1,7 L9,1 Z"/></marker></defs><defs><marker orient="auto" markerHeight="28" markerWidth="20" refY="7" refX="19" id="MD_PARENT_END"><path d="M 18,7 L9,13 L1,7 L9,1 Z"/></marker></defs><defs><marker orient="auto" markerHeight="18" markerWidth="18" refY="9" refX="0" id="ONLY_ONE_START"><path d="M9,0 L9,18 M15,0 L15,18" fill="none" stroke="gray"/></marker></defs><defs><marker orient="auto" markerHeight="18" markerWidth="18" refY="9" refX="18" id="ONLY_ONE_END"><path d="M3,0 L3,18 M9,0 L9,18" fill="none" stroke="gray"/></marker></defs><defs><marker orient="auto" markerHeight="18" markerWidth="30" refY="9" refX="0" id="ZERO_OR_ONE_START"><circle r="6" cy="9" cx="21" fill="white" stroke="gray"/><path d="M9,0 L9,18" fill="none" stroke="gray"/></marker></defs><defs><marker orient="auto" markerHeight="18" markerWidth="30" refY="9" refX="30" id="ZERO_OR_ONE_END"><circle r="6" cy="9" cx="9" fill="white" stroke="gray"/><path d="M21,0 L21,18" fill="none" stroke="gray"/></marker></defs><defs><marker orient="auto" markerHeight="36" markerWidth="45" refY="18" refX="18" id="ONE_OR_MORE_START"><path d="M0,18 Q 18,0 36,18 Q 18,36 0,18 M42,9 L42,27" fill="none" stroke="gray"/></marker></defs><defs><marker orient="auto" markerHeight="36" markerWidth="45" refY="18" refX="27" id="ONE_OR_MORE_END"><path d="M3,9 L3,27 M9,18 Q27,0 45,18 Q27,36 9,18" fill="none" stroke="gray"/></marker></defs><defs><marker orient="auto" markerHeight="36" markerWidth="57" refY="18" refX="18" id="ZERO_OR_MORE_START"><circle r="6" cy="18" cx="48" fill="white" stroke="gray"/><path d="M0,18 Q18,0 36,18 Q18,36 0,18" fill="none" stroke="gray"/></marker></defs><defs><marker orient="auto" markerHeight="36" markerWidth="57" refY="18" refX="39" id="ZERO_OR_MORE_END"><circle r="6" cy="18" cx="9" fill="white" stroke="gray"/><path d="M21,18 Q39,0 57,18 Q39,36 21,18" fill="none" stroke="gray"/></marker></defs><path style="stroke: gray; fill: none;" marker-start="url(#ZERO_OR_ONE_START)" marker-end="url(#ZERO_OR_ONE_END)" d="M270,66.092L270,74.425C270,82.758,270,99.425,270,116.092C270,132.758,270,149.425,270,157.758L270,166.092" class="er relationshipLine"/><path style="stroke: gray; fill: none;" marker-start="url(#ONLY_ONE_START)" marker-end="url(#ONLY_ONE_END)" d="M206.9,212.184L184.084,220.517C161.267,228.85,115.633,245.517,92.817,264.593C70,283.668,70,305.153,70,315.895L70,326.638" class="er relationshipLine"/><path style="stroke: gray; fill: none;" marker-start="url(#ONLY_ONE_START)" marker-end="url(#ONLY_ONE_END)" d="M270,212.184L270,220.517C270,228.85,270,245.517,270,262.184C270,278.85,270,295.517,270,303.85L270,312.184" class="er relationshipLine"/><path style="stroke: gray; fill: none;" marker-start="url(#ZERO_OR_ONE_START)" marker-end="url(#ONLY_ONE_END)" d="M333.1,212.184L355.916,220.517C378.733,228.85,424.367,245.517,447.183,262.184C470,278.85,470,295.517,470,303.85L470,312.184" class="er relationshipLine"/><g transform="translate(193.7734375,166.091796875 )" id="entity-ComputationResponse-fa364192-a821-53ec-87a4-cf2723b323e0"><rect height="46.091797828674316" width="152.453125" y="0" x="0" class="er entityBox"/><text style="dominant-baseline: middle; text-anchor: middle; font-size: 12px;" transform="translate(76.2265625,12)" y="0" x="0" id="text-entity-ComputationResponse-fa364192-a821-53ec-87a4-cf2723b323e0" class="er entityLabel">Computation-Response</text><rect height="22.091797828674316" width="97.765625" y="24" x="0" class="er attributeBoxOdd"/><text style="dominant-baseline: middle; font-size: 10.2px;" transform="translate(5,35.04589891433716)" y="0" x="0" id="text-entity-ComputationResponse-fa364192-a821-53ec-87a4-cf2723b323e0-attr-1-type" class="er entityLabel">value-object</text><rect height="22.091797828674316" width="54.6875" y="24" x="97.765625" class="er attributeBoxOdd"/><text style="dominant-baseline: middle; font-size: 10.2px;" transform="translate(102.765625,35.04589891433716)" y="0" x="0" id="text-entity-ComputationResponse-fa364192-a821-53ec-87a4-cf2723b323e0-attr-1-name" class="er entityLabel">yes</text></g><g transform="translate(181.859375,20 )" id="entity-Response-79299989-89c0-500c-bb64-28b839e02fd3"><rect height="46.091796875" width="176.28125" y="0" x="0" class="er entityBox"/><text style="dominant-baseline: middle; text-anchor: middle; font-size: 12px;" transform="translate(88.140625,12)" y="0" x="0" id="text-entity-Response-79299989-89c0-500c-bb64-28b839e02fd3" class="er entityLabel">Response</text><rect height="22.091796875" width="87.84375" y="24" x="0" class="er attributeBoxOdd"/><text style="dominant-baseline: middle; font-size: 10.2px;" transform="translate(5,35.0458984375)" y="0" x="0" id="text-entity-Response-79299989-89c0-500c-bb64-28b839e02fd3-attr-1-type" class="er entityLabel">bounded-context</text><rect height="22.091796875" width="88.4375" y="24" x="87.84375" class="er attributeBoxOdd"/><text style="dominant-baseline: middle; font-size: 10.2px;" transform="translate(92.84375,35.0458984375)" y="0" x="0" id="text-entity-Response-79299989-89c0-500c-bb64-28b839e02fd3-attr-1-name" class="er entityLabel">SimulationEngine</text></g><g transform="translate(20,326.6376953125 )" id="entity-status-3a93d909-c50f-5400-94e9-d6a6a7141509"><rect height="46.091797828674316" width="100" y="0" x="0" class="er entityBox"/><text style="dominant-baseline: middle; text-anchor: middle; font-size: 12px;" transform="translate(50,12)" y="0" x="0" id="text-entity-status-3a93d909-c50f-5400-94e9-d6a6a7141509" class="er entityLabel">status</text><rect height="22.091797828674316" width="71.5390625" y="24" x="0" class="er attributeBoxOdd"/><text style="dominant-baseline: middle; font-size: 10.2px;" transform="translate(5,35.04589891433716)" y="0" x="0" id="text-entity-status-3a93d909-c50f-5400-94e9-d6a6a7141509-attr-1-type" class="er entityLabel">value-object</text><rect height="22.091797828674316" width="28.4609375" y="24" x="71.5390625" class="er attributeBoxOdd"/><text style="dominant-baseline: middle; font-size: 10.2px;" transform="translate(76.5390625,35.04589891433716)" y="0" x="0" id="text-entity-status-3a93d909-c50f-5400-94e9-d6a6a7141509-attr-1-name" class="er entityLabel">yes</text></g><g transform="translate(220,312.18359375 )" id="entity-Computation-80007822-184b-54e0-ae30-f7ec345f23ae"><rect height="75" width="100" y="0" x="0" class="er entityBox"/><text style="dominant-baseline: middle; text-anchor: middle; font-size: 12px;" transform="translate(50,37.5)" y="0" x="0" id="text-entity-Computation-80007822-184b-54e0-ae30-f7ec345f23ae" class="er entityLabel">Computation</text></g><g transform="translate(420,312.18359375 )" id="entity-UI-4d67f9e3-6f43-5581-8c60-bc9a93a57d83"><rect height="75" width="100" y="0" x="0" class="er entityBox"/><text style="dominant-baseline: middle; text-anchor: middle; font-size: 12px;" transform="translate(50,37.5)" y="0" x="0" id="text-entity-UI-4d67f9e3-6f43-5581-8c60-bc9a93a57d83" class="er entityLabel">UI</text></g><rect height="14" width="44.84375" y="109.09199523925781" x="247.578125" class="er relationshipLabelBox"/><text style="text-anchor: middle; dominant-baseline: middle; font-size: 12px;" y="116.09199523925781" x="270" id="rel1" class="er relationshipLabel">contains</text><rect height="14" width="44.84375" y="242.08921813964844" x="94.25435638427734" class="er relationshipLabelBox"/><text style="text-anchor: middle; dominant-baseline: middle; font-size: 12px;" y="249.08921813964844" x="116.67623138427734" id="rel2" class="er relationshipLabel">contains</text><rect height="14" width="63.203125" y="255.18399047851562" x="238.3984375" class="er relationshipLabelBox"/><text style="text-anchor: middle; dominant-baseline: middle; font-size: 12px;" y="262.1839904785156" x="270" id="rel3" class="er relationshipLabel">returned by</text><rect height="14" width="42.09375" y="238.6811981201172" x="397.1013488769531" class="er relationshipLabelBox"/><text style="text-anchor: middle; dominant-baseline: middle; font-size: 12px;" y="245.6811981201172" x="418.1482238769531" id="rel4" class="er relationshipLabel">Used by</text></svg>