<svg aria-roledescription="er" role="graphics-document document" viewBox="0 0 984.08984375 1023.46875" style="max-width: 984.09px; background-color: white;" xmlns:xlink="http://www.w3.org/1999/xlink" xmlns="http://www.w3.org/2000/svg" width="100%" id="my-svg"><style>#my-svg{font-family:"trebuchet ms",verdana,arial,sans-serif;font-size:16px;fill:#333;}#my-svg .error-icon{fill:#552222;}#my-svg .error-text{fill:#552222;stroke:#552222;}#my-svg .edge-thickness-normal{stroke-width:1px;}#my-svg .edge-thickness-thick{stroke-width:3.5px;}#my-svg .edge-pattern-solid{stroke-dasharray:0;}#my-svg .edge-thickness-invisible{stroke-width:0;fill:none;}#my-svg .edge-pattern-dashed{stroke-dasharray:3;}#my-svg .edge-pattern-dotted{stroke-dasharray:2;}#my-svg .marker{fill:#333333;stroke:#333333;}#my-svg .marker.cross{stroke:#333333;}#my-svg svg{font-family:"trebuchet ms",verdana,arial,sans-serif;font-size:16px;}#my-svg p{margin:0;}#my-svg .entityBox{fill:#ECECFF;stroke:#9370DB;}#my-svg .attributeBoxOdd{fill:#ffffff;stroke:#9370DB;}#my-svg .attributeBoxEven{fill:#f2f2f2;stroke:#9370DB;}#my-svg .relationshipLabelBox{fill:hsl(80, 100%, 96.2745098039%);opacity:0.7;background-color:hsl(80, 100%, 96.2745098039%);}#my-svg .relationshipLabelBox rect{opacity:0.5;}#my-svg .relationshipLine{stroke:#333333;}#my-svg .entityTitleText{text-anchor:middle;font-size:18px;fill:#333;}#my-svg #MD_PARENT_START{fill:#f5f5f5!important;stroke:#333333!important;stroke-width:1;}#my-svg #MD_PARENT_END{fill:#f5f5f5!important;stroke:#333333!important;stroke-width:1;}#my-svg :root{--mermaid-font-family:"trebuchet ms",verdana,arial,sans-serif;}</style><g/><defs><marker orient="auto" markerHeight="240" markerWidth="190" refY="7" refX="0" id="MD_PARENT_START"><path d="M 18,7 L9,13 L1,7 L9,1 Z"/></marker></defs><defs><marker orient="auto" markerHeight="28" markerWidth="20" refY="7" refX="19" id="MD_PARENT_END"><path d="M 18,7 L9,13 L1,7 L9,1 Z"/></marker></defs><defs><marker orient="auto" markerHeight="18" markerWidth="18" refY="9" refX="0" id="ONLY_ONE_START"><path d="M9,0 L9,18 M15,0 L15,18" fill="none" stroke="gray"/></marker></defs><defs><marker orient="auto" markerHeight="18" markerWidth="18" refY="9" refX="18" id="ONLY_ONE_END"><path d="M3,0 L3,18 M9,0 L9,18" fill="none" stroke="gray"/></marker></defs><defs><marker orient="auto" markerHeight="18" markerWidth="30" refY="9" refX="0" id="ZERO_OR_ONE_START"><circle r="6" cy="9" cx="21" fill="white" stroke="gray"/><path d="M9,0 L9,18" fill="none" stroke="gray"/></marker></defs><defs><marker orient="auto" markerHeight="18" markerWidth="30" refY="9" refX="30" id="ZERO_OR_ONE_END"><circle r="6" cy="9" cx="9" fill="white" stroke="gray"/><path d="M21,0 L21,18" fill="none" stroke="gray"/></marker></defs><defs><marker orient="auto" markerHeight="36" markerWidth="45" refY="18" refX="18" id="ONE_OR_MORE_START"><path d="M0,18 Q 18,0 36,18 Q 18,36 0,18 M42,9 L42,27" fill="none" stroke="gray"/></marker></defs><defs><marker orient="auto" markerHeight="36" markerWidth="45" refY="18" refX="27" id="ONE_OR_MORE_END"><path d="M3,9 L3,27 M9,18 Q27,0 45,18 Q27,36 9,18" fill="none" stroke="gray"/></marker></defs><defs><marker orient="auto" markerHeight="36" markerWidth="57" refY="18" refX="18" id="ZERO_OR_MORE_START"><circle r="6" cy="18" cx="48" fill="white" stroke="gray"/><path d="M0,18 Q18,0 36,18 Q18,36 0,18" fill="none" stroke="gray"/></marker></defs><defs><marker orient="auto" markerHeight="36" markerWidth="57" refY="18" refX="39" id="ZERO_OR_MORE_END"><circle r="6" cy="18" cx="9" fill="white" stroke="gray"/><path d="M21,18 Q39,0 57,18 Q39,36 21,18" fill="none" stroke="gray"/></marker></defs><path style="stroke: gray; fill: none;" marker-start="url(#ONLY_ONE_START)" marker-end="url(#ZERO_OR_MORE_END)" d="M324.491,110.275L317.399,118.609C310.306,126.942,296.122,143.609,289.03,162.116C281.938,180.624,281.938,200.973,281.938,211.147L281.938,221.321" class="er relationshipLine"/><path style="stroke: gray; fill: none;" marker-start="url(#ONLY_ONE_START)" marker-end="url(#ZERO_OR_MORE_END)" d="M308.242,82.893L268.535,95.79C228.828,108.687,149.414,134.481,109.707,155.712C70,176.942,70,193.609,70,201.942L70,210.275" class="er relationshipLine"/><path style="stroke: gray; fill: none;" marker-start="url(#ONLY_ONE_START)" marker-end="url(#ZERO_OR_MORE_END)" d="M650.613,344.643L650.613,360.325C650.613,376.007,650.613,407.37,661.786,432.135C672.958,456.899,695.303,475.063,706.476,484.145L717.648,493.227" class="er relationshipLine"/><path style="stroke: gray; fill: none;" marker-start="url(#ZERO_OR_MORE_START)" marker-end="url(#ZERO_OR_MORE_END)" d="M417.57,75.105L495.423,89.3C573.275,103.495,728.979,131.885,806.831,163.603C884.684,195.321,884.684,230.367,884.684,247.89L884.684,265.413" class="er relationshipLine"/><path style="stroke: gray; fill: none;" marker-start="url(#ZERO_OR_MORE_START)" marker-end="url(#ZERO_OR_MORE_END)" d="M884.684,333.597L884.684,351.12C884.684,368.643,884.684,403.688,873.511,430.294C862.339,456.899,839.993,475.063,828.821,484.145L817.648,493.227" class="er relationshipLine"/><path style="stroke: gray; fill: none;" marker-start="url(#ONLY_ONE_START)" marker-end="url(#ZERO_OR_MORE_END)" d="M401.322,110.275L408.414,118.609C415.506,126.942,429.691,143.609,436.783,175.147C443.875,206.685,443.875,253.095,443.875,299.505C443.875,345.915,443.875,392.325,443.875,431.386C443.875,470.447,443.875,502.16,443.875,533.872C443.875,565.585,443.875,597.297,443.875,621.487C443.875,645.676,443.875,662.343,443.875,670.676L443.875,679.01" class="er relationshipLine"/><path style="stroke: gray; fill: none;" marker-start="url(#ZERO_OR_MORE_START)" marker-end="url(#ONLY_ONE_END)" d="M443.875,769.193L443.875,777.527C443.875,785.86,443.875,802.527,467.725,825.234C491.576,847.941,539.276,876.688,563.126,891.062L586.977,905.435" class="er relationshipLine"/><path style="stroke: gray; fill: none;" marker-start="url(#ONLY_ONE_START)" marker-end="url(#ZERO_OR_MORE_END)" d="M767.648,579.01L767.648,587.343C767.648,595.676,767.648,612.343,767.648,630.843C767.648,649.343,767.648,669.676,767.648,679.843L767.648,690.01" class="er relationshipLine"/><path style="stroke: gray; fill: none;" marker-start="url(#ONLY_ONE_START)" marker-end="url(#ZERO_OR_MORE_END)" d="M767.648,758.193L767.648,768.36C767.648,778.527,767.648,798.86,754.625,820.815C741.602,842.771,715.555,866.348,702.531,878.137L689.508,889.926" class="er relationshipLine"/><g transform="translate(308.2421875,20 )" id="entity-Student-8f7f7a56-d9f8-57b5-bb12-4f40575e65f5"><rect height="90.27539348602295" width="109.328125" y="0" x="0" class="er entityBox"/><text style="dominant-baseline: middle; text-anchor: middle; font-size: 12px;" transform="translate(54.6640625,12)" y="0" x="0" id="text-entity-Student-8f7f7a56-d9f8-57b5-bb12-4f40575e65f5" class="er entityLabel">学生</text><rect height="22.091797828674316" width="35.75" y="24" x="0" class="er attributeBoxOdd"/><text style="dominant-baseline: middle; font-size: 10.2px;" transform="translate(5,35.04589891433716)" y="0" x="0" id="text-entity-Student-8f7f7a56-d9f8-57b5-bb12-4f40575e65f5-attr-1-type" class="er entityLabel">string</text><rect height="22.091797828674316" width="52.015625" y="24" x="35.75" class="er attributeBoxOdd"/><text style="dominant-baseline: middle; font-size: 10.2px;" transform="translate(40.75,35.04589891433716)" y="0" x="0" id="text-entity-Student-8f7f7a56-d9f8-57b5-bb12-4f40575e65f5-attr-1-name" class="er entityLabel">id</text><rect height="22.091797828674316" width="21.5625" y="24" x="87.765625" class="er attributeBoxOdd"/><text style="dominant-baseline: middle; font-size: 10.2px;" transform="translate(92.765625,35.04589891433716)" y="0" x="0" id="text-entity-Student-8f7f7a56-d9f8-57b5-bb12-4f40575e65f5-attr-1-key" class="er entityLabel">PK</text><rect height="22.091797828674316" width="35.75" y="46.091797828674316" x="0" class="er attributeBoxEven"/><text style="dominant-baseline: middle; font-size: 10.2px;" transform="translate(5,57.137696743011475)" y="0" x="0" id="text-entity-Student-8f7f7a56-d9f8-57b5-bb12-4f40575e65f5-attr-2-type" class="er entityLabel">string</text><rect height="22.091797828674316" width="52.015625" y="46.091797828674316" x="35.75" class="er attributeBoxEven"/><text style="dominant-baseline: middle; font-size: 10.2px;" transform="translate(40.75,57.137696743011475)" y="0" x="0" id="text-entity-Student-8f7f7a56-d9f8-57b5-bb12-4f40575e65f5-attr-2-name" class="er entityLabel">name</text><rect height="22.091797828674316" width="21.5625" y="46.091797828674316" x="87.765625" class="er attributeBoxEven"/><text style="dominant-baseline: middle; font-size: 10.2px;" transform="translate(92.765625,57.137696743011475)" y="0" x="0" id="text-entity-Student-8f7f7a56-d9f8-57b5-bb12-4f40575e65f5-attr-2-key" class="er entityLabel"/><rect height="22.091797828674316" width="35.75" y="68.18359565734863" x="0" class="er attributeBoxOdd"/><text style="dominant-baseline: middle; font-size: 10.2px;" transform="translate(5,79.22949457168579)" y="0" x="0" id="text-entity-Student-8f7f7a56-d9f8-57b5-bb12-4f40575e65f5-attr-3-type" class="er entityLabel">string</text><rect height="22.091797828674316" width="52.015625" y="68.18359565734863" x="35.75" class="er attributeBoxOdd"/><text style="dominant-baseline: middle; font-size: 10.2px;" transform="translate(40.75,79.22949457168579)" y="0" x="0" id="text-entity-Student-8f7f7a56-d9f8-57b5-bb12-4f40575e65f5-attr-3-name" class="er entityLabel">password</text><rect height="22.091797828674316" width="21.5625" y="68.18359565734863" x="87.765625" class="er attributeBoxOdd"/><text style="dominant-baseline: middle; font-size: 10.2px;" transform="translate(92.765625,79.22949457168579)" y="0" x="0" id="text-entity-Student-8f7f7a56-d9f8-57b5-bb12-4f40575e65f5-attr-3-key" class="er entityLabel"/></g><g transform="translate(20,210.275390625 )" id="entity-StuTodo-84bacefa-c9e2-54a3-a467-ad7d84df27ec"><rect height="178.45898818969727" width="100" y="0" x="0" class="er entityBox"/><text style="dominant-baseline: middle; text-anchor: middle; font-size: 12px;" transform="translate(50,12)" y="0" x="0" id="text-entity-StuTodo-84bacefa-c9e2-54a3-a467-ad7d84df27ec" class="er entityLabel">学生待办</text><rect height="22.091797828674316" width="36.041666666666664" y="24" x="0" class="er attributeBoxOdd"/><text style="dominant-baseline: middle; font-size: 10.2px;" transform="translate(5,35.04589891433716)" y="0" x="0" id="text-entity-StuTodo-84bacefa-c9e2-54a3-a467-ad7d84df27ec-attr-1-type" class="er entityLabel">string</text><rect height="22.091797828674316" width="42.104166666666664" y="24" x="36.041666666666664" class="er attributeBoxOdd"/><text style="dominant-baseline: middle; font-size: 10.2px;" transform="translate(41.041666666666664,35.04589891433716)" y="0" x="0" id="text-entity-StuTodo-84bacefa-c9e2-54a3-a467-ad7d84df27ec-attr-1-name" class="er entityLabel">id</text><rect height="22.091797828674316" width="21.854166666666668" y="24" x="78.14583333333333" class="er attributeBoxOdd"/><text style="dominant-baseline: middle; font-size: 10.2px;" transform="translate(83.14583333333333,35.04589891433716)" y="0" x="0" id="text-entity-StuTodo-84bacefa-c9e2-54a3-a467-ad7d84df27ec-attr-1-key" class="er entityLabel">PK</text><rect height="22.091797828674316" width="36.041666666666664" y="46.091797828674316" x="0" class="er attributeBoxEven"/><text style="dominant-baseline: middle; font-size: 10.2px;" transform="translate(5,57.137696743011475)" y="0" x="0" id="text-entity-StuTodo-84bacefa-c9e2-54a3-a467-ad7d84df27ec-attr-2-type" class="er entityLabel">string</text><rect height="22.091797828674316" width="42.104166666666664" y="46.091797828674316" x="36.041666666666664" class="er attributeBoxEven"/><text style="dominant-baseline: middle; font-size: 10.2px;" transform="translate(41.041666666666664,57.137696743011475)" y="0" x="0" id="text-entity-StuTodo-84bacefa-c9e2-54a3-a467-ad7d84df27ec-attr-2-name" class="er entityLabel">stu_id</text><rect height="22.091797828674316" width="21.854166666666668" y="46.091797828674316" x="78.14583333333333" class="er attributeBoxEven"/><text style="dominant-baseline: middle; font-size: 10.2px;" transform="translate(83.14583333333333,57.137696743011475)" y="0" x="0" id="text-entity-StuTodo-84bacefa-c9e2-54a3-a467-ad7d84df27ec-attr-2-key" class="er entityLabel">FK</text><rect height="22.091797828674316" width="36.041666666666664" y="68.18359565734863" x="0" class="er attributeBoxOdd"/><text style="dominant-baseline: middle; font-size: 10.2px;" transform="translate(5,79.22949457168579)" y="0" x="0" id="text-entity-StuTodo-84bacefa-c9e2-54a3-a467-ad7d84df27ec-attr-3-type" class="er entityLabel">string</text><rect height="22.091797828674316" width="42.104166666666664" y="68.18359565734863" x="36.041666666666664" class="er attributeBoxOdd"/><text style="dominant-baseline: middle; font-size: 10.2px;" transform="translate(41.041666666666664,79.22949457168579)" y="0" x="0" id="text-entity-StuTodo-84bacefa-c9e2-54a3-a467-ad7d84df27ec-attr-3-name" class="er entityLabel">title</text><rect height="22.091797828674316" width="21.854166666666668" y="68.18359565734863" x="78.14583333333333" class="er attributeBoxOdd"/><text style="dominant-baseline: middle; font-size: 10.2px;" transform="translate(83.14583333333333,79.22949457168579)" y="0" x="0" id="text-entity-StuTodo-84bacefa-c9e2-54a3-a467-ad7d84df27ec-attr-3-key" class="er entityLabel"/><rect height="22.091797828674316" width="36.041666666666664" y="90.27539348602295" x="0" class="er attributeBoxEven"/><text style="dominant-baseline: middle; font-size: 10.2px;" transform="translate(5,101.32129240036011)" y="0" x="0" id="text-entity-StuTodo-84bacefa-c9e2-54a3-a467-ad7d84df27ec-attr-4-type" class="er entityLabel">string</text><rect height="22.091797828674316" width="42.104166666666664" y="90.27539348602295" x="36.041666666666664" class="er attributeBoxEven"/><text style="dominant-baseline: middle; font-size: 10.2px;" transform="translate(41.041666666666664,101.32129240036011)" y="0" x="0" id="text-entity-StuTodo-84bacefa-c9e2-54a3-a467-ad7d84df27ec-attr-4-name" class="er entityLabel">detail</text><rect height="22.091797828674316" width="21.854166666666668" y="90.27539348602295" x="78.14583333333333" class="er attributeBoxEven"/><text style="dominant-baseline: middle; font-size: 10.2px;" transform="translate(83.14583333333333,101.32129240036011)" y="0" x="0" id="text-entity-StuTodo-84bacefa-c9e2-54a3-a467-ad7d84df27ec-attr-4-key" class="er entityLabel"/><rect height="22" width="36.041666666666664" y="112.36719131469727" x="0" class="er attributeBoxOdd"/><text style="dominant-baseline: middle; font-size: 10.2px;" transform="translate(5,123.36719131469727)" y="0" x="0" id="text-entity-StuTodo-84bacefa-c9e2-54a3-a467-ad7d84df27ec-attr-5-type" class="er entityLabel">date</text><rect height="22" width="42.104166666666664" y="112.36719131469727" x="36.041666666666664" class="er attributeBoxOdd"/><text style="dominant-baseline: middle; font-size: 10.2px;" transform="translate(41.041666666666664,123.36719131469727)" y="0" x="0" id="text-entity-StuTodo-84bacefa-c9e2-54a3-a467-ad7d84df27ec-attr-5-name" class="er entityLabel">due</text><rect height="22" width="21.854166666666668" y="112.36719131469727" x="78.14583333333333" class="er attributeBoxOdd"/><text style="dominant-baseline: middle; font-size: 10.2px;" transform="translate(83.14583333333333,123.36719131469727)" y="0" x="0" id="text-entity-StuTodo-84bacefa-c9e2-54a3-a467-ad7d84df27ec-attr-5-key" class="er entityLabel"/><rect height="22" width="36.041666666666664" y="134.36719131469727" x="0" class="er attributeBoxEven"/><text style="dominant-baseline: middle; font-size: 10.2px;" transform="translate(5,145.36719131469727)" y="0" x="0" id="text-entity-StuTodo-84bacefa-c9e2-54a3-a467-ad7d84df27ec-attr-6-type" class="er entityLabel">bool</text><rect height="22" width="42.104166666666664" y="134.36719131469727" x="36.041666666666664" class="er attributeBoxEven"/><text style="dominant-baseline: middle; font-size: 10.2px;" transform="translate(41.041666666666664,145.36719131469727)" y="0" x="0" id="text-entity-StuTodo-84bacefa-c9e2-54a3-a467-ad7d84df27ec-attr-6-name" class="er entityLabel">done</text><rect height="22" width="21.854166666666668" y="134.36719131469727" x="78.14583333333333" class="er attributeBoxEven"/><text style="dominant-baseline: middle; font-size: 10.2px;" transform="translate(83.14583333333333,145.36719131469727)" y="0" x="0" id="text-entity-StuTodo-84bacefa-c9e2-54a3-a467-ad7d84df27ec-attr-6-key" class="er entityLabel"/><rect height="22.091796875" width="36.041666666666664" y="156.36719131469727" x="0" class="er attributeBoxOdd"/><text style="dominant-baseline: middle; font-size: 10.2px;" transform="translate(5,167.41308975219727)" y="0" x="0" id="text-entity-StuTodo-84bacefa-c9e2-54a3-a467-ad7d84df27ec-attr-7-type" class="er entityLabel">bool</text><rect height="22.091796875" width="42.104166666666664" y="156.36719131469727" x="36.041666666666664" class="er attributeBoxOdd"/><text style="dominant-baseline: middle; font-size: 10.2px;" transform="translate(41.041666666666664,167.41308975219727)" y="0" x="0" id="text-entity-StuTodo-84bacefa-c9e2-54a3-a467-ad7d84df27ec-attr-7-name" class="er entityLabel">display</text><rect height="22.091796875" width="21.854166666666668" y="156.36719131469727" x="78.14583333333333" class="er attributeBoxOdd"/><text style="dominant-baseline: middle; font-size: 10.2px;" transform="translate(83.14583333333333,167.41308975219727)" y="0" x="0" id="text-entity-StuTodo-84bacefa-c9e2-54a3-a467-ad7d84df27ec-attr-7-key" class="er entityLabel"/></g><g transform="translate(220,221.3212890625 )" id="entity-Event-5fcfcec5-0af7-59ba-bebb-bb0a822c8afa"><rect height="156.36719131469727" width="123.875" y="0" x="0" class="er entityBox"/><text style="dominant-baseline: middle; text-anchor: middle; font-size: 12px;" transform="translate(61.9375,12)" y="0" x="0" id="text-entity-Event-5fcfcec5-0af7-59ba-bebb-bb0a822c8afa" class="er entityLabel">事件</text><rect height="22.091797828674316" width="44.828125" y="24" x="0" class="er attributeBoxOdd"/><text style="dominant-baseline: middle; font-size: 10.2px;" transform="translate(5,35.04589891433716)" y="0" x="0" id="text-entity-Event-5fcfcec5-0af7-59ba-bebb-bb0a822c8afa-attr-1-type" class="er entityLabel">string</text><rect height="22.091797828674316" width="57.484375" y="24" x="44.828125" class="er attributeBoxOdd"/><text style="dominant-baseline: middle; font-size: 10.2px;" transform="translate(49.828125,35.04589891433716)" y="0" x="0" id="text-entity-Event-5fcfcec5-0af7-59ba-bebb-bb0a822c8afa-attr-1-name" class="er entityLabel">id</text><rect height="22.091797828674316" width="21.5625" y="24" x="102.3125" class="er attributeBoxOdd"/><text style="dominant-baseline: middle; font-size: 10.2px;" transform="translate(107.3125,35.04589891433716)" y="0" x="0" id="text-entity-Event-5fcfcec5-0af7-59ba-bebb-bb0a822c8afa-attr-1-key" class="er entityLabel">PK</text><rect height="22.091797828674316" width="44.828125" y="46.091797828674316" x="0" class="er attributeBoxEven"/><text style="dominant-baseline: middle; font-size: 10.2px;" transform="translate(5,57.137696743011475)" y="0" x="0" id="text-entity-Event-5fcfcec5-0af7-59ba-bebb-bb0a822c8afa-attr-2-type" class="er entityLabel">string</text><rect height="22.091797828674316" width="57.484375" y="46.091797828674316" x="44.828125" class="er attributeBoxEven"/><text style="dominant-baseline: middle; font-size: 10.2px;" transform="translate(49.828125,57.137696743011475)" y="0" x="0" id="text-entity-Event-5fcfcec5-0af7-59ba-bebb-bb0a822c8afa-attr-2-name" class="er entityLabel">name</text><rect height="22.091797828674316" width="21.5625" y="46.091797828674316" x="102.3125" class="er attributeBoxEven"/><text style="dominant-baseline: middle; font-size: 10.2px;" transform="translate(107.3125,57.137696743011475)" y="0" x="0" id="text-entity-Event-5fcfcec5-0af7-59ba-bebb-bb0a822c8afa-attr-2-key" class="er entityLabel"/><rect height="22.091797828674316" width="44.828125" y="68.18359565734863" x="0" class="er attributeBoxOdd"/><text style="dominant-baseline: middle; font-size: 10.2px;" transform="translate(5,79.22949457168579)" y="0" x="0" id="text-entity-Event-5fcfcec5-0af7-59ba-bebb-bb0a822c8afa-attr-3-type" class="er entityLabel">string</text><rect height="22.091797828674316" width="57.484375" y="68.18359565734863" x="44.828125" class="er attributeBoxOdd"/><text style="dominant-baseline: middle; font-size: 10.2px;" transform="translate(49.828125,79.22949457168579)" y="0" x="0" id="text-entity-Event-5fcfcec5-0af7-59ba-bebb-bb0a822c8afa-attr-3-name" class="er entityLabel">location</text><rect height="22.091797828674316" width="21.5625" y="68.18359565734863" x="102.3125" class="er attributeBoxOdd"/><text style="dominant-baseline: middle; font-size: 10.2px;" transform="translate(107.3125,79.22949457168579)" y="0" x="0" id="text-entity-Event-5fcfcec5-0af7-59ba-bebb-bb0a822c8afa-attr-3-key" class="er entityLabel"/><rect height="22" width="44.828125" y="90.27539348602295" x="0" class="er attributeBoxEven"/><text style="dominant-baseline: middle; font-size: 10.2px;" transform="translate(5,101.27539348602295)" y="0" x="0" id="text-entity-Event-5fcfcec5-0af7-59ba-bebb-bb0a822c8afa-attr-4-type" class="er entityLabel">number</text><rect height="22" width="57.484375" y="90.27539348602295" x="44.828125" class="er attributeBoxEven"/><text style="dominant-baseline: middle; font-size: 10.2px;" transform="translate(49.828125,101.27539348602295)" y="0" x="0" id="text-entity-Event-5fcfcec5-0af7-59ba-bebb-bb0a822c8afa-attr-4-name" class="er entityLabel">start_hour</text><rect height="22" width="21.5625" y="90.27539348602295" x="102.3125" class="er attributeBoxEven"/><text style="dominant-baseline: middle; font-size: 10.2px;" transform="translate(107.3125,101.27539348602295)" y="0" x="0" id="text-entity-Event-5fcfcec5-0af7-59ba-bebb-bb0a822c8afa-attr-4-key" class="er entityLabel"/><rect height="22" width="44.828125" y="112.27539348602295" x="0" class="er attributeBoxOdd"/><text style="dominant-baseline: middle; font-size: 10.2px;" transform="translate(5,123.27539348602295)" y="0" x="0" id="text-entity-Event-5fcfcec5-0af7-59ba-bebb-bb0a822c8afa-attr-5-type" class="er entityLabel">number</text><rect height="22" width="57.484375" y="112.27539348602295" x="44.828125" class="er attributeBoxOdd"/><text style="dominant-baseline: middle; font-size: 10.2px;" transform="translate(49.828125,123.27539348602295)" y="0" x="0" id="text-entity-Event-5fcfcec5-0af7-59ba-bebb-bb0a822c8afa-attr-5-name" class="er entityLabel">end_hour</text><rect height="22" width="21.5625" y="112.27539348602295" x="102.3125" class="er attributeBoxOdd"/><text style="dominant-baseline: middle; font-size: 10.2px;" transform="translate(107.3125,123.27539348602295)" y="0" x="0" id="text-entity-Event-5fcfcec5-0af7-59ba-bebb-bb0a822c8afa-attr-5-key" class="er entityLabel"/><rect height="22.091797828674316" width="44.828125" y="134.27539348602295" x="0" class="er attributeBoxEven"/><text style="dominant-baseline: middle; font-size: 10.2px;" transform="translate(5,145.3212924003601)" y="0" x="0" id="text-entity-Event-5fcfcec5-0af7-59ba-bebb-bb0a822c8afa-attr-6-type" class="er entityLabel">string</text><rect height="22.091797828674316" width="57.484375" y="134.27539348602295" x="44.828125" class="er attributeBoxEven"/><text style="dominant-baseline: middle; font-size: 10.2px;" transform="translate(49.828125,145.3212924003601)" y="0" x="0" id="text-entity-Event-5fcfcec5-0af7-59ba-bebb-bb0a822c8afa-attr-6-name" class="er entityLabel">stud_id</text><rect height="22.091797828674316" width="21.5625" y="134.27539348602295" x="102.3125" class="er attributeBoxEven"/><text style="dominant-baseline: middle; font-size: 10.2px;" transform="translate(107.3125,145.3212924003601)" y="0" x="0" id="text-entity-Event-5fcfcec5-0af7-59ba-bebb-bb0a822c8afa-attr-6-key" class="er entityLabel">FK</text></g><g transform="translate(586.9765625,869.193359375 )" id="entity-Msg-e80067cf-5010-577b-a11a-01c050b2819d"><rect height="134.27539348602295" width="102.53125" y="0" x="0" class="er entityBox"/><text style="dominant-baseline: middle; text-anchor: middle; font-size: 12px;" transform="translate(51.265625,12)" y="0" x="0" id="text-entity-Msg-e80067cf-5010-577b-a11a-01c050b2819d" class="er entityLabel">通知</text><rect height="22.091797828674316" width="35.75" y="24" x="0" class="er attributeBoxOdd"/><text style="dominant-baseline: middle; font-size: 10.2px;" transform="translate(5,35.04589891433716)" y="0" x="0" id="text-entity-Msg-e80067cf-5010-577b-a11a-01c050b2819d-attr-1-type" class="er entityLabel">string</text><rect height="22.091797828674316" width="45.21875" y="24" x="35.75" class="er attributeBoxOdd"/><text style="dominant-baseline: middle; font-size: 10.2px;" transform="translate(40.75,35.04589891433716)" y="0" x="0" id="text-entity-Msg-e80067cf-5010-577b-a11a-01c050b2819d-attr-1-name" class="er entityLabel">id</text><rect height="22.091797828674316" width="21.5625" y="24" x="80.96875" class="er attributeBoxOdd"/><text style="dominant-baseline: middle; font-size: 10.2px;" transform="translate(85.96875,35.04589891433716)" y="0" x="0" id="text-entity-Msg-e80067cf-5010-577b-a11a-01c050b2819d-attr-1-key" class="er entityLabel">PK</text><rect height="22.091797828674316" width="35.75" y="46.091797828674316" x="0" class="er attributeBoxEven"/><text style="dominant-baseline: middle; font-size: 10.2px;" transform="translate(5,57.137696743011475)" y="0" x="0" id="text-entity-Msg-e80067cf-5010-577b-a11a-01c050b2819d-attr-2-type" class="er entityLabel">string</text><rect height="22.091797828674316" width="45.21875" y="46.091797828674316" x="35.75" class="er attributeBoxEven"/><text style="dominant-baseline: middle; font-size: 10.2px;" transform="translate(40.75,57.137696743011475)" y="0" x="0" id="text-entity-Msg-e80067cf-5010-577b-a11a-01c050b2819d-attr-2-name" class="er entityLabel">title</text><rect height="22.091797828674316" width="21.5625" y="46.091797828674316" x="80.96875" class="er attributeBoxEven"/><text style="dominant-baseline: middle; font-size: 10.2px;" transform="translate(85.96875,57.137696743011475)" y="0" x="0" id="text-entity-Msg-e80067cf-5010-577b-a11a-01c050b2819d-attr-2-key" class="er entityLabel"/><rect height="22.091797828674316" width="35.75" y="68.18359565734863" x="0" class="er attributeBoxOdd"/><text style="dominant-baseline: middle; font-size: 10.2px;" transform="translate(5,79.22949457168579)" y="0" x="0" id="text-entity-Msg-e80067cf-5010-577b-a11a-01c050b2819d-attr-3-type" class="er entityLabel">string</text><rect height="22.091797828674316" width="45.21875" y="68.18359565734863" x="35.75" class="er attributeBoxOdd"/><text style="dominant-baseline: middle; font-size: 10.2px;" transform="translate(40.75,79.22949457168579)" y="0" x="0" id="text-entity-Msg-e80067cf-5010-577b-a11a-01c050b2819d-attr-3-name" class="er entityLabel">detail</text><rect height="22.091797828674316" width="21.5625" y="68.18359565734863" x="80.96875" class="er attributeBoxOdd"/><text style="dominant-baseline: middle; font-size: 10.2px;" transform="translate(85.96875,79.22949457168579)" y="0" x="0" id="text-entity-Msg-e80067cf-5010-577b-a11a-01c050b2819d-attr-3-key" class="er entityLabel"/><rect height="22" width="35.75" y="90.27539348602295" x="0" class="er attributeBoxEven"/><text style="dominant-baseline: middle; font-size: 10.2px;" transform="translate(5,101.27539348602295)" y="0" x="0" id="text-entity-Msg-e80067cf-5010-577b-a11a-01c050b2819d-attr-4-type" class="er entityLabel">date</text><rect height="22" width="45.21875" y="90.27539348602295" x="35.75" class="er attributeBoxEven"/><text style="dominant-baseline: middle; font-size: 10.2px;" transform="translate(40.75,101.27539348602295)" y="0" x="0" id="text-entity-Msg-e80067cf-5010-577b-a11a-01c050b2819d-attr-4-name" class="er entityLabel">date</text><rect height="22" width="21.5625" y="90.27539348602295" x="80.96875" class="er attributeBoxEven"/><text style="dominant-baseline: middle; font-size: 10.2px;" transform="translate(85.96875,101.27539348602295)" y="0" x="0" id="text-entity-Msg-e80067cf-5010-577b-a11a-01c050b2819d-attr-4-key" class="er entityLabel"/><rect height="22" width="35.75" y="112.27539348602295" x="0" class="er attributeBoxOdd"/><text style="dominant-baseline: middle; font-size: 10.2px;" transform="translate(5,123.27539348602295)" y="0" x="0" id="text-entity-Msg-e80067cf-5010-577b-a11a-01c050b2819d-attr-5-type" class="er entityLabel">bool</text><rect height="22" width="45.21875" y="112.27539348602295" x="35.75" class="er attributeBoxOdd"/><text style="dominant-baseline: middle; font-size: 10.2px;" transform="translate(40.75,123.27539348602295)" y="0" x="0" id="text-entity-Msg-e80067cf-5010-577b-a11a-01c050b2819d-attr-5-name" class="er entityLabel">is_draft</text><rect height="22" width="21.5625" y="112.27539348602295" x="80.96875" class="er attributeBoxOdd"/><text style="dominant-baseline: middle; font-size: 10.2px;" transform="translate(85.96875,123.27539348602295)" y="0" x="0" id="text-entity-Msg-e80067cf-5010-577b-a11a-01c050b2819d-attr-5-key" class="er entityLabel"/></g><g transform="translate(717.6484375,488.734375 )" id="entity-Class-72a8fe3b-dda1-500b-81e8-fe5cfcc9ca17"><rect height="90.27539348602295" width="100" y="0" x="0" class="er entityBox"/><text style="dominant-baseline: middle; text-anchor: middle; font-size: 12px;" transform="translate(50,12)" y="0" x="0" id="text-entity-Class-72a8fe3b-dda1-500b-81e8-fe5cfcc9ca17" class="er entityLabel">班级</text><rect height="22.091797828674316" width="37.109375" y="24" x="0" class="er attributeBoxOdd"/><text style="dominant-baseline: middle; font-size: 10.2px;" transform="translate(5,35.04589891433716)" y="0" x="0" id="text-entity-Class-72a8fe3b-dda1-500b-81e8-fe5cfcc9ca17-attr-1-type" class="er entityLabel">string</text><rect height="22.091797828674316" width="39.96875" y="24" x="37.109375" class="er attributeBoxOdd"/><text style="dominant-baseline: middle; font-size: 10.2px;" transform="translate(42.109375,35.04589891433716)" y="0" x="0" id="text-entity-Class-72a8fe3b-dda1-500b-81e8-fe5cfcc9ca17-attr-1-name" class="er entityLabel">id</text><rect height="22.091797828674316" width="22.921875" y="24" x="77.078125" class="er attributeBoxOdd"/><text style="dominant-baseline: middle; font-size: 10.2px;" transform="translate(82.078125,35.04589891433716)" y="0" x="0" id="text-entity-Class-72a8fe3b-dda1-500b-81e8-fe5cfcc9ca17-attr-1-key" class="er entityLabel">PK</text><rect height="22.091797828674316" width="37.109375" y="46.091797828674316" x="0" class="er attributeBoxEven"/><text style="dominant-baseline: middle; font-size: 10.2px;" transform="translate(5,57.137696743011475)" y="0" x="0" id="text-entity-Class-72a8fe3b-dda1-500b-81e8-fe5cfcc9ca17-attr-2-type" class="er entityLabel">string</text><rect height="22.091797828674316" width="39.96875" y="46.091797828674316" x="37.109375" class="er attributeBoxEven"/><text style="dominant-baseline: middle; font-size: 10.2px;" transform="translate(42.109375,57.137696743011475)" y="0" x="0" id="text-entity-Class-72a8fe3b-dda1-500b-81e8-fe5cfcc9ca17-attr-2-name" class="er entityLabel">tch_id</text><rect height="22.091797828674316" width="22.921875" y="46.091797828674316" x="77.078125" class="er attributeBoxEven"/><text style="dominant-baseline: middle; font-size: 10.2px;" transform="translate(82.078125,57.137696743011475)" y="0" x="0" id="text-entity-Class-72a8fe3b-dda1-500b-81e8-fe5cfcc9ca17-attr-2-key" class="er entityLabel">FK</text><rect height="22.091797828674316" width="37.109375" y="68.18359565734863" x="0" class="er attributeBoxOdd"/><text style="dominant-baseline: middle; font-size: 10.2px;" transform="translate(5,79.22949457168579)" y="0" x="0" id="text-entity-Class-72a8fe3b-dda1-500b-81e8-fe5cfcc9ca17-attr-3-type" class="er entityLabel">string</text><rect height="22.091797828674316" width="39.96875" y="68.18359565734863" x="37.109375" class="er attributeBoxOdd"/><text style="dominant-baseline: middle; font-size: 10.2px;" transform="translate(42.109375,79.22949457168579)" y="0" x="0" id="text-entity-Class-72a8fe3b-dda1-500b-81e8-fe5cfcc9ca17-attr-3-name" class="er entityLabel">name</text><rect height="22.091797828674316" width="22.921875" y="68.18359565734863" x="77.078125" class="er attributeBoxOdd"/><text style="dominant-baseline: middle; font-size: 10.2px;" transform="translate(82.078125,79.22949457168579)" y="0" x="0" id="text-entity-Class-72a8fe3b-dda1-500b-81e8-fe5cfcc9ca17-attr-3-key" class="er entityLabel"/></g><g transform="translate(595.94921875,254.3671875 )" id="entity-Teacher-ed6f2787-ae2d-5cf4-94cc-4a1510120b97"><rect height="90.27539348602295" width="109.328125" y="0" x="0" class="er entityBox"/><text style="dominant-baseline: middle; text-anchor: middle; font-size: 12px;" transform="translate(54.6640625,12)" y="0" x="0" id="text-entity-Teacher-ed6f2787-ae2d-5cf4-94cc-4a1510120b97" class="er entityLabel">老师</text><rect height="22.091797828674316" width="35.75" y="24" x="0" class="er attributeBoxOdd"/><text style="dominant-baseline: middle; font-size: 10.2px;" transform="translate(5,35.04589891433716)" y="0" x="0" id="text-entity-Teacher-ed6f2787-ae2d-5cf4-94cc-4a1510120b97-attr-1-type" class="er entityLabel">string</text><rect height="22.091797828674316" width="52.015625" y="24" x="35.75" class="er attributeBoxOdd"/><text style="dominant-baseline: middle; font-size: 10.2px;" transform="translate(40.75,35.04589891433716)" y="0" x="0" id="text-entity-Teacher-ed6f2787-ae2d-5cf4-94cc-4a1510120b97-attr-1-name" class="er entityLabel">id</text><rect height="22.091797828674316" width="21.5625" y="24" x="87.765625" class="er attributeBoxOdd"/><text style="dominant-baseline: middle; font-size: 10.2px;" transform="translate(92.765625,35.04589891433716)" y="0" x="0" id="text-entity-Teacher-ed6f2787-ae2d-5cf4-94cc-4a1510120b97-attr-1-key" class="er entityLabel">PK</text><rect height="22.091797828674316" width="35.75" y="46.091797828674316" x="0" class="er attributeBoxEven"/><text style="dominant-baseline: middle; font-size: 10.2px;" transform="translate(5,57.137696743011475)" y="0" x="0" id="text-entity-Teacher-ed6f2787-ae2d-5cf4-94cc-4a1510120b97-attr-2-type" class="er entityLabel">string</text><rect height="22.091797828674316" width="52.015625" y="46.091797828674316" x="35.75" class="er attributeBoxEven"/><text style="dominant-baseline: middle; font-size: 10.2px;" transform="translate(40.75,57.137696743011475)" y="0" x="0" id="text-entity-Teacher-ed6f2787-ae2d-5cf4-94cc-4a1510120b97-attr-2-name" class="er entityLabel">name</text><rect height="22.091797828674316" width="21.5625" y="46.091797828674316" x="87.765625" class="er attributeBoxEven"/><text style="dominant-baseline: middle; font-size: 10.2px;" transform="translate(92.765625,57.137696743011475)" y="0" x="0" id="text-entity-Teacher-ed6f2787-ae2d-5cf4-94cc-4a1510120b97-attr-2-key" class="er entityLabel"/><rect height="22.091797828674316" width="35.75" y="68.18359565734863" x="0" class="er attributeBoxOdd"/><text style="dominant-baseline: middle; font-size: 10.2px;" transform="translate(5,79.22949457168579)" y="0" x="0" id="text-entity-Teacher-ed6f2787-ae2d-5cf4-94cc-4a1510120b97-attr-3-type" class="er entityLabel">string</text><rect height="22.091797828674316" width="52.015625" y="68.18359565734863" x="35.75" class="er attributeBoxOdd"/><text style="dominant-baseline: middle; font-size: 10.2px;" transform="translate(40.75,79.22949457168579)" y="0" x="0" id="text-entity-Teacher-ed6f2787-ae2d-5cf4-94cc-4a1510120b97-attr-3-name" class="er entityLabel">password</text><rect height="22.091797828674316" width="21.5625" y="68.18359565734863" x="87.765625" class="er attributeBoxOdd"/><text style="dominant-baseline: middle; font-size: 10.2px;" transform="translate(92.765625,79.22949457168579)" y="0" x="0" id="text-entity-Teacher-ed6f2787-ae2d-5cf4-94cc-4a1510120b97-attr-3-key" class="er entityLabel"/></g><g transform="translate(364.46875,679.009765625 )" id="entity-StuMsgRead-5ca7ef02-b853-54af-8178-ae9bded06b3d"><rect height="90.18359565734863" width="158.8125" y="0" x="0" class="er entityBox"/><text style="dominant-baseline: middle; text-anchor: middle; font-size: 12px;" transform="translate(79.40625,12)" y="0" x="0" id="text-entity-StuMsgRead-5ca7ef02-b853-54af-8178-ae9bded06b3d" class="er entityLabel">学生消息阅读表(关系表)</text><rect height="22.091797828674316" width="50.708333333333336" y="24" x="0" class="er attributeBoxOdd"/><text style="dominant-baseline: middle; font-size: 10.2px;" transform="translate(5,35.04589891433716)" y="0" x="0" id="text-entity-StuMsgRead-5ca7ef02-b853-54af-8178-ae9bded06b3d-attr-1-type" class="er entityLabel">string</text><rect height="22.091797828674316" width="56.614583333333336" y="24" x="50.708333333333336" class="er attributeBoxOdd"/><text style="dominant-baseline: middle; font-size: 10.2px;" transform="translate(55.708333333333336,35.04589891433716)" y="0" x="0" id="text-entity-StuMsgRead-5ca7ef02-b853-54af-8178-ae9bded06b3d-attr-1-name" class="er entityLabel">stu_id</text><rect height="22.091797828674316" width="51.489583333333336" y="24" x="107.32291666666667" class="er attributeBoxOdd"/><text style="dominant-baseline: middle; font-size: 10.2px;" transform="translate(112.32291666666667,35.04589891433716)" y="0" x="0" id="text-entity-StuMsgRead-5ca7ef02-b853-54af-8178-ae9bded06b3d-attr-1-key" class="er entityLabel">PK,FK</text><rect height="22.091797828674316" width="50.708333333333336" y="46.091797828674316" x="0" class="er attributeBoxEven"/><text style="dominant-baseline: middle; font-size: 10.2px;" transform="translate(5,57.137696743011475)" y="0" x="0" id="text-entity-StuMsgRead-5ca7ef02-b853-54af-8178-ae9bded06b3d-attr-2-type" class="er entityLabel">string</text><rect height="22.091797828674316" width="56.614583333333336" y="46.091797828674316" x="50.708333333333336" class="er attributeBoxEven"/><text style="dominant-baseline: middle; font-size: 10.2px;" transform="translate(55.708333333333336,57.137696743011475)" y="0" x="0" id="text-entity-StuMsgRead-5ca7ef02-b853-54af-8178-ae9bded06b3d-attr-2-name" class="er entityLabel">msg_id</text><rect height="22.091797828674316" width="51.489583333333336" y="46.091797828674316" x="107.32291666666667" class="er attributeBoxEven"/><text style="dominant-baseline: middle; font-size: 10.2px;" transform="translate(112.32291666666667,57.137696743011475)" y="0" x="0" id="text-entity-StuMsgRead-5ca7ef02-b853-54af-8178-ae9bded06b3d-attr-2-key" class="er entityLabel">PK,FK</text><rect height="22" width="50.708333333333336" y="68.18359565734863" x="0" class="er attributeBoxOdd"/><text style="dominant-baseline: middle; font-size: 10.2px;" transform="translate(5,79.18359565734863)" y="0" x="0" id="text-entity-StuMsgRead-5ca7ef02-b853-54af-8178-ae9bded06b3d-attr-3-type" class="er entityLabel">bool</text><rect height="22" width="56.614583333333336" y="68.18359565734863" x="50.708333333333336" class="er attributeBoxOdd"/><text style="dominant-baseline: middle; font-size: 10.2px;" transform="translate(55.708333333333336,79.18359565734863)" y="0" x="0" id="text-entity-StuMsgRead-5ca7ef02-b853-54af-8178-ae9bded06b3d-attr-3-name" class="er entityLabel">read</text><rect height="22" width="51.489583333333336" y="68.18359565734863" x="107.32291666666667" class="er attributeBoxOdd"/><text style="dominant-baseline: middle; font-size: 10.2px;" transform="translate(112.32291666666667,79.18359565734863)" y="0" x="0" id="text-entity-StuMsgRead-5ca7ef02-b853-54af-8178-ae9bded06b3d-attr-3-key" class="er entityLabel"/></g><g transform="translate(688.2421875,690.009765625 )" id="entity-ClassMsgLink-b4573c40-ebf8-5724-927c-d67e371dc6c7"><rect height="68.18359565734863" width="158.8125" y="0" x="0" class="er entityBox"/><text style="dominant-baseline: middle; text-anchor: middle; font-size: 12px;" transform="translate(79.40625,12)" y="0" x="0" id="text-entity-ClassMsgLink-b4573c40-ebf8-5724-927c-d67e371dc6c7" class="er entityLabel">班级通知关联表(关系表)</text><rect height="22.091797828674316" width="50.708333333333336" y="24" x="0" class="er attributeBoxOdd"/><text style="dominant-baseline: middle; font-size: 10.2px;" transform="translate(5,35.04589891433716)" y="0" x="0" id="text-entity-ClassMsgLink-b4573c40-ebf8-5724-927c-d67e371dc6c7-attr-1-type" class="er entityLabel">string</text><rect height="22.091797828674316" width="56.614583333333336" y="24" x="50.708333333333336" class="er attributeBoxOdd"/><text style="dominant-baseline: middle; font-size: 10.2px;" transform="translate(55.708333333333336,35.04589891433716)" y="0" x="0" id="text-entity-ClassMsgLink-b4573c40-ebf8-5724-927c-d67e371dc6c7-attr-1-name" class="er entityLabel">msg_id</text><rect height="22.091797828674316" width="51.489583333333336" y="24" x="107.32291666666667" class="er attributeBoxOdd"/><text style="dominant-baseline: middle; font-size: 10.2px;" transform="translate(112.32291666666667,35.04589891433716)" y="0" x="0" id="text-entity-ClassMsgLink-b4573c40-ebf8-5724-927c-d67e371dc6c7-attr-1-key" class="er entityLabel">PK,FK</text><rect height="22.091797828674316" width="50.708333333333336" y="46.091797828674316" x="0" class="er attributeBoxEven"/><text style="dominant-baseline: middle; font-size: 10.2px;" transform="translate(5,57.137696743011475)" y="0" x="0" id="text-entity-ClassMsgLink-b4573c40-ebf8-5724-927c-d67e371dc6c7-attr-2-type" class="er entityLabel">string</text><rect height="22.091797828674316" width="56.614583333333336" y="46.091797828674316" x="50.708333333333336" class="er attributeBoxEven"/><text style="dominant-baseline: middle; font-size: 10.2px;" transform="translate(55.708333333333336,57.137696743011475)" y="0" x="0" id="text-entity-ClassMsgLink-b4573c40-ebf8-5724-927c-d67e371dc6c7-attr-2-name" class="er entityLabel">cla_id</text><rect height="22.091797828674316" width="51.489583333333336" y="46.091797828674316" x="107.32291666666667" class="er attributeBoxEven"/><text style="dominant-baseline: middle; font-size: 10.2px;" transform="translate(112.32291666666667,57.137696743011475)" y="0" x="0" id="text-entity-ClassMsgLink-b4573c40-ebf8-5724-927c-d67e371dc6c7-attr-2-key" class="er entityLabel">PK,FK</text></g><g transform="translate(805.27734375,265.4130859375 )" id="entity-StuClassLink-2cf75d79-4b0e-5699-86b3-6672c9d56bb2"><rect height="68.18359565734863" width="158.8125" y="0" x="0" class="er entityBox"/><text style="dominant-baseline: middle; text-anchor: middle; font-size: 12px;" transform="translate(79.40625,12)" y="0" x="0" id="text-entity-StuClassLink-2cf75d79-4b0e-5699-86b3-6672c9d56bb2" class="er entityLabel">学生班级关联表(关系表)</text><rect height="22.091797828674316" width="52.03125" y="24" x="0" class="er attributeBoxOdd"/><text style="dominant-baseline: middle; font-size: 10.2px;" transform="translate(5,35.04589891433716)" y="0" x="0" id="text-entity-StuClassLink-2cf75d79-4b0e-5699-86b3-6672c9d56bb2-attr-1-type" class="er entityLabel">string</text><rect height="22.091797828674316" width="53.96875" y="24" x="52.03125" class="er attributeBoxOdd"/><text style="dominant-baseline: middle; font-size: 10.2px;" transform="translate(57.03125,35.04589891433716)" y="0" x="0" id="text-entity-StuClassLink-2cf75d79-4b0e-5699-86b3-6672c9d56bb2-attr-1-name" class="er entityLabel">stu_id</text><rect height="22.091797828674316" width="52.8125" y="24" x="106" class="er attributeBoxOdd"/><text style="dominant-baseline: middle; font-size: 10.2px;" transform="translate(111,35.04589891433716)" y="0" x="0" id="text-entity-StuClassLink-2cf75d79-4b0e-5699-86b3-6672c9d56bb2-attr-1-key" class="er entityLabel">PK,FK</text><rect height="22.091797828674316" width="52.03125" y="46.091797828674316" x="0" class="er attributeBoxEven"/><text style="dominant-baseline: middle; font-size: 10.2px;" transform="translate(5,57.137696743011475)" y="0" x="0" id="text-entity-StuClassLink-2cf75d79-4b0e-5699-86b3-6672c9d56bb2-attr-2-type" class="er entityLabel">string</text><rect height="22.091797828674316" width="53.96875" y="46.091797828674316" x="52.03125" class="er attributeBoxEven"/><text style="dominant-baseline: middle; font-size: 10.2px;" transform="translate(57.03125,57.137696743011475)" y="0" x="0" id="text-entity-StuClassLink-2cf75d79-4b0e-5699-86b3-6672c9d56bb2-attr-2-name" class="er entityLabel">cla_id</text><rect height="22.091797828674316" width="52.8125" y="46.091797828674316" x="106" class="er attributeBoxEven"/><text style="dominant-baseline: middle; font-size: 10.2px;" transform="translate(111,57.137696743011475)" y="0" x="0" id="text-entity-StuClassLink-2cf75d79-4b0e-5699-86b3-6672c9d56bb2-attr-2-key" class="er entityLabel">PK,FK</text></g><rect height="14" width="24" y="153.65953063964844" x="277.60443115234375" class="er relationshipLabelBox"/><text style="text-anchor: middle; dominant-baseline: middle; font-size: 12px;" y="160.65953063964844" x="289.60443115234375" id="rel1" class="er relationshipLabel">拥有</text><rect height="14" width="24" y="121.32708740234375" x="161.5608367919922" class="er relationshipLabelBox"/><text style="text-anchor: middle; dominant-baseline: middle; font-size: 12px;" y="128.32708740234375" x="173.5608367919922" id="rel2" class="er relationshipLabel">拥有</text><rect height="14" width="24" y="422.7078552246094" x="648.7351684570312" class="er relationshipLabelBox"/><text style="text-anchor: middle; dominant-baseline: middle; font-size: 12px;" y="429.7078552246094" x="660.7351684570312" id="rel3" class="er relationshipLabel">管理</text><rect height="14" width="24" y="120.02951049804688" x="670.5941162109375" class="er relationshipLabelBox"/><text style="text-anchor: middle; dominant-baseline: middle; font-size: 12px;" y="127.02951049804688" x="682.5941162109375" id="rel4" class="er relationshipLabel">归属</text><rect height="14" width="24" y="417.2813415527344" x="863.8041381835938" class="er relationshipLabelBox"/><text style="text-anchor: middle; dominant-baseline: middle; font-size: 12px;" y="424.2813415527344" x="875.8041381835938" id="rel5" class="er relationshipLabel">包含</text><rect height="14" width="24" y="382.4168395996094" x="431.875" class="er relationshipLabelBox"/><text style="text-anchor: middle; dominant-baseline: middle; font-size: 12px;" y="389.4168395996094" x="443.875" id="rel6" class="er relationshipLabel">阅读</text><rect height="14" width="36" y="843.2521362304688" x="481.24981689453125" class="er relationshipLabelBox"/><text style="text-anchor: middle; dominant-baseline: middle; font-size: 12px;" y="850.2521362304688" x="499.24981689453125" id="rel7" class="er relationshipLabel">被阅读</text><rect height="14" width="24" y="627.510009765625" x="755.6480102539062" class="er relationshipLabelBox"/><text style="text-anchor: middle; dominant-baseline: middle; font-size: 12px;" y="634.510009765625" x="767.6480102539062" id="rel8" class="er relationshipLabel">关联</text><rect height="14" width="24" y="826.3179931640625" x="734.04345703125" class="er relationshipLabelBox"/><text style="text-anchor: middle; dominant-baseline: middle; font-size: 12px;" y="833.3179931640625" x="746.04345703125" id="rel9" class="er relationshipLabel">关联</text></svg>