<svg aria-roledescription="er" role="graphics-document document" viewBox="-39.33021926879883 0 306.6114807128906 686.7621459960938" style="max-width: 306.611px; background-color: white;" xmlns:xlink="http://www.w3.org/1999/xlink" xmlns="http://www.w3.org/2000/svg" width="100%" id="my-svg"><style>#my-svg{font-family:"trebuchet ms",verdana,arial,sans-serif;font-size:16px;fill:#333;}#my-svg .error-icon{fill:#552222;}#my-svg .error-text{fill:#552222;stroke:#552222;}#my-svg .edge-thickness-normal{stroke-width:1px;}#my-svg .edge-thickness-thick{stroke-width:3.5px;}#my-svg .edge-pattern-solid{stroke-dasharray:0;}#my-svg .edge-thickness-invisible{stroke-width:0;fill:none;}#my-svg .edge-pattern-dashed{stroke-dasharray:3;}#my-svg .edge-pattern-dotted{stroke-dasharray:2;}#my-svg .marker{fill:#333333;stroke:#333333;}#my-svg .marker.cross{stroke:#333333;}#my-svg svg{font-family:"trebuchet ms",verdana,arial,sans-serif;font-size:16px;}#my-svg p{margin:0;}#my-svg .entityBox{fill:#ECECFF;stroke:#9370DB;}#my-svg .attributeBoxOdd{fill:#ffffff;stroke:#9370DB;}#my-svg .attributeBoxEven{fill:#f2f2f2;stroke:#9370DB;}#my-svg .relationshipLabelBox{fill:hsl(80, 100%, 96.2745098039%);opacity:0.7;background-color:hsl(80, 100%, 96.2745098039%);}#my-svg .relationshipLabelBox rect{opacity:0.5;}#my-svg .relationshipLine{stroke:#333333;}#my-svg .entityTitleText{text-anchor:middle;font-size:18px;fill:#333;}#my-svg #MD_PARENT_START{fill:#f5f5f5!important;stroke:#333333!important;stroke-width:1;}#my-svg #MD_PARENT_END{fill:#f5f5f5!important;stroke:#333333!important;stroke-width:1;}#my-svg :root{--mermaid-font-family:"trebuchet ms",verdana,arial,sans-serif;}</style><g/><defs><marker orient="auto" markerHeight="240" markerWidth="190" refY="7" refX="0" id="MD_PARENT_START"><path d="M 18,7 L9,13 L1,7 L9,1 Z"/></marker></defs><defs><marker orient="auto" markerHeight="28" markerWidth="20" refY="7" refX="19" id="MD_PARENT_END"><path d="M 18,7 L9,13 L1,7 L9,1 Z"/></marker></defs><defs><marker orient="auto" markerHeight="18" markerWidth="18" refY="9" refX="0" id="ONLY_ONE_START"><path d="M9,0 L9,18 M15,0 L15,18" fill="none" stroke="gray"/></marker></defs><defs><marker orient="auto" markerHeight="18" markerWidth="18" refY="9" refX="18" id="ONLY_ONE_END"><path d="M3,0 L3,18 M9,0 L9,18" fill="none" stroke="gray"/></marker></defs><defs><marker orient="auto" markerHeight="18" markerWidth="30" refY="9" refX="0" id="ZERO_OR_ONE_START"><circle r="6" cy="9" cx="21" fill="white" stroke="gray"/><path d="M9,0 L9,18" fill="none" stroke="gray"/></marker></defs><defs><marker orient="auto" markerHeight="18" markerWidth="30" refY="9" refX="30" id="ZERO_OR_ONE_END"><circle r="6" cy="9" cx="9" fill="white" stroke="gray"/><path d="M21,0 L21,18" fill="none" stroke="gray"/></marker></defs><defs><marker orient="auto" markerHeight="36" markerWidth="45" refY="18" refX="18" id="ONE_OR_MORE_START"><path d="M0,18 Q 18,0 36,18 Q 18,36 0,18 M42,9 L42,27" fill="none" stroke="gray"/></marker></defs><defs><marker orient="auto" markerHeight="36" markerWidth="45" refY="18" refX="27" id="ONE_OR_MORE_END"><path d="M3,9 L3,27 M9,18 Q27,0 45,18 Q27,36 9,18" fill="none" stroke="gray"/></marker></defs><defs><marker orient="auto" markerHeight="36" markerWidth="57" refY="18" refX="18" id="ZERO_OR_MORE_START"><circle r="6" cy="18" cx="48" fill="white" stroke="gray"/><path d="M0,18 Q18,0 36,18 Q18,36 0,18" fill="none" stroke="gray"/></marker></defs><defs><marker orient="auto" markerHeight="36" markerWidth="57" refY="18" refX="39" id="ZERO_OR_MORE_END"><circle r="6" cy="18" cx="9" fill="white" stroke="gray"/><path d="M21,18 Q39,0 57,18 Q39,36 21,18" fill="none" stroke="gray"/></marker></defs><path style="stroke: gray; fill: none;" marker-start="url(#ONLY_ONE_START)" marker-end="url(#ZERO_OR_MORE_END)" d="M47.348,154.355L41.378,162.688C35.409,171.022,23.47,187.688,17.501,217.37C11.531,247.052,11.531,289.75,11.531,332.447C11.531,375.144,11.531,417.841,16.991,447.523C22.451,477.205,33.371,493.872,38.831,502.205L44.291,510.539" class="er relationshipLine"/><path style="stroke: gray; fill: none;" marker-start="url(#ONLY_ONE_START)" marker-end="url(#ZERO_OR_MORE_END)" d="M143.59,154.355L149.559,162.688C155.529,171.022,167.467,187.688,173.437,204.355C179.406,221.022,179.406,237.688,179.406,246.022L179.406,254.355" class="er relationshipLine"/><path style="stroke: gray; fill: none;" marker-start="url(#ZERO_OR_MORE_START)" marker-end="url(#ONLY_ONE_END)" d="M179.406,410.539L179.406,418.872C179.406,427.205,179.406,443.872,173.946,460.539C168.486,477.205,157.567,493.872,152.107,502.205L146.647,510.539" class="er relationshipLine"/><g transform="translate(20,20 )" id="entity-USER-6e7e2962-0c6f-577d-a7fd-2ce3a0cfd2c8"><rect height="134.35508155822754" width="150.9375" y="0" x="0" class="er entityBox"/><text style="dominant-baseline: middle; text-anchor: middle; font-size: 12px;" transform="translate(75.46875,12)" y="0" x="0" id="text-entity-USER-6e7e2962-0c6f-577d-a7fd-2ce3a0cfd2c8" class="er entityLabel">USER</text><rect height="22" width="75.171875" y="24" x="0" class="er attributeBoxOdd"/><text style="dominant-baseline: middle; font-size: 10.2px;" transform="translate(5,35)" y="0" x="0" id="text-entity-USER-6e7e2962-0c6f-577d-a7fd-2ce3a0cfd2c8-attr-1-type" class="er entityLabel">BIGINT</text><rect height="22" width="54.203125" y="24" x="75.171875" class="er attributeBoxOdd"/><text style="dominant-baseline: middle; font-size: 10.2px;" transform="translate(80.171875,35)" y="0" x="0" id="text-entity-USER-6e7e2962-0c6f-577d-a7fd-2ce3a0cfd2c8-attr-1-name" class="er entityLabel">id</text><rect height="22" width="21.5625" y="24" x="129.375" class="er attributeBoxOdd"/><text style="dominant-baseline: middle; font-size: 10.2px;" transform="translate(134.375,35)" y="0" x="0" id="text-entity-USER-6e7e2962-0c6f-577d-a7fd-2ce3a0cfd2c8-attr-1-key" class="er entityLabel">PK</text><rect height="22.13164234161377" width="75.171875" y="46" x="0" class="er attributeBoxEven"/><text style="dominant-baseline: middle; font-size: 10.2px;" transform="translate(5,57.065821170806885)" y="0" x="0" id="text-entity-USER-6e7e2962-0c6f-577d-a7fd-2ce3a0cfd2c8-attr-2-type" class="er entityLabel">VARCHAR(64)</text><rect height="22.13164234161377" width="54.203125" y="46" x="75.171875" class="er attributeBoxEven"/><text style="dominant-baseline: middle; font-size: 10.2px;" transform="translate(80.171875,57.065821170806885)" y="0" x="0" id="text-entity-USER-6e7e2962-0c6f-577d-a7fd-2ce3a0cfd2c8-attr-2-name" class="er entityLabel">username</text><rect height="22.13164234161377" width="21.5625" y="46" x="129.375" class="er attributeBoxEven"/><text style="dominant-baseline: middle; font-size: 10.2px;" transform="translate(134.375,57.065821170806885)" y="0" x="0" id="text-entity-USER-6e7e2962-0c6f-577d-a7fd-2ce3a0cfd2c8-attr-2-key" class="er entityLabel"/><rect height="22.13164234161377" width="75.171875" y="68.13164234161377" x="0" class="er attributeBoxOdd"/><text style="dominant-baseline: middle; font-size: 10.2px;" transform="translate(5,79.19746351242065)" y="0" x="0" id="text-entity-USER-6e7e2962-0c6f-577d-a7fd-2ce3a0cfd2c8-attr-3-type" class="er entityLabel">VARCHAR(255)</text><rect height="22.13164234161377" width="54.203125" y="68.13164234161377" x="75.171875" class="er attributeBoxOdd"/><text style="dominant-baseline: middle; font-size: 10.2px;" transform="translate(80.171875,79.19746351242065)" y="0" x="0" id="text-entity-USER-6e7e2962-0c6f-577d-a7fd-2ce3a0cfd2c8-attr-3-name" class="er entityLabel">email</text><rect height="22.13164234161377" width="21.5625" y="68.13164234161377" x="129.375" class="er attributeBoxOdd"/><text style="dominant-baseline: middle; font-size: 10.2px;" transform="translate(134.375,79.19746351242065)" y="0" x="0" id="text-entity-USER-6e7e2962-0c6f-577d-a7fd-2ce3a0cfd2c8-attr-3-key" class="er entityLabel"/><rect height="22" width="75.171875" y="90.26328468322754" x="0" class="er attributeBoxEven"/><text style="dominant-baseline: middle; font-size: 10.2px;" transform="translate(5,101.26328468322754)" y="0" x="0" id="text-entity-USER-6e7e2962-0c6f-577d-a7fd-2ce3a0cfd2c8-attr-4-type" class="er entityLabel">TIMESTAMP</text><rect height="22" width="54.203125" y="90.26328468322754" x="75.171875" class="er attributeBoxEven"/><text style="dominant-baseline: middle; font-size: 10.2px;" transform="translate(80.171875,101.26328468322754)" y="0" x="0" id="text-entity-USER-6e7e2962-0c6f-577d-a7fd-2ce3a0cfd2c8-attr-4-name" class="er entityLabel">created</text><rect height="22" width="21.5625" y="90.26328468322754" x="129.375" class="er attributeBoxEven"/><text style="dominant-baseline: middle; font-size: 10.2px;" transform="translate(134.375,101.26328468322754)" y="0" x="0" id="text-entity-USER-6e7e2962-0c6f-577d-a7fd-2ce3a0cfd2c8-attr-4-key" class="er entityLabel"/><rect height="22.091796875" width="75.171875" y="112.26328468322754" x="0" class="er attributeBoxOdd"/><text style="dominant-baseline: middle; font-size: 10.2px;" transform="translate(5,123.30918312072754)" y="0" x="0" id="text-entity-USER-6e7e2962-0c6f-577d-a7fd-2ce3a0cfd2c8-attr-5-type" class="er entityLabel">TIMESTAMP</text><rect height="22.091796875" width="54.203125" y="112.26328468322754" x="75.171875" class="er attributeBoxOdd"/><text style="dominant-baseline: middle; font-size: 10.2px;" transform="translate(80.171875,123.30918312072754)" y="0" x="0" id="text-entity-USER-6e7e2962-0c6f-577d-a7fd-2ce3a0cfd2c8-attr-5-name" class="er entityLabel">updated</text><rect height="22.091796875" width="21.5625" y="112.26328468322754" x="129.375" class="er attributeBoxOdd"/><text style="dominant-baseline: middle; font-size: 10.2px;" transform="translate(134.375,123.30918312072754)" y="0" x="0" id="text-entity-USER-6e7e2962-0c6f-577d-a7fd-2ce3a0cfd2c8-attr-5-key" class="er entityLabel"/></g><g transform="translate(20.1328125,510.53868103027344 )" id="entity-POST-dedb1204-6961-5504-b717-5f982e5d0300"><rect height="156.22343921661377" width="150.671875" y="0" x="0" class="er entityBox"/><text style="dominant-baseline: middle; text-anchor: middle; font-size: 12px;" transform="translate(75.3359375,12)" y="0" x="0" id="text-entity-POST-dedb1204-6961-5504-b717-5f982e5d0300" class="er entityLabel">POST</text><rect height="22" width="75.171875" y="24" x="0" class="er attributeBoxOdd"/><text style="dominant-baseline: middle; font-size: 10.2px;" transform="translate(5,35)" y="0" x="0" id="text-entity-POST-dedb1204-6961-5504-b717-5f982e5d0300-attr-1-type" class="er entityLabel">BIGINT</text><rect height="22" width="53.9375" y="24" x="75.171875" class="er attributeBoxOdd"/><text style="dominant-baseline: middle; font-size: 10.2px;" transform="translate(80.171875,35)" y="0" x="0" id="text-entity-POST-dedb1204-6961-5504-b717-5f982e5d0300-attr-1-name" class="er entityLabel">id</text><rect height="22" width="21.5625" y="24" x="129.109375" class="er attributeBoxOdd"/><text style="dominant-baseline: middle; font-size: 10.2px;" transform="translate(134.109375,35)" y="0" x="0" id="text-entity-POST-dedb1204-6961-5504-b717-5f982e5d0300-attr-1-key" class="er entityLabel">PK</text><rect height="22.13164234161377" width="75.171875" y="46" x="0" class="er attributeBoxEven"/><text style="dominant-baseline: middle; font-size: 10.2px;" transform="translate(5,57.065821170806885)" y="0" x="0" id="text-entity-POST-dedb1204-6961-5504-b717-5f982e5d0300-attr-2-type" class="er entityLabel">VARCHAR(512)</text><rect height="22.13164234161377" width="53.9375" y="46" x="75.171875" class="er attributeBoxEven"/><text style="dominant-baseline: middle; font-size: 10.2px;" transform="translate(80.171875,57.065821170806885)" y="0" x="0" id="text-entity-POST-dedb1204-6961-5504-b717-5f982e5d0300-attr-2-name" class="er entityLabel">title</text><rect height="22.13164234161377" width="21.5625" y="46" x="129.109375" class="er attributeBoxEven"/><text style="dominant-baseline: middle; font-size: 10.2px;" transform="translate(134.109375,57.065821170806885)" y="0" x="0" id="text-entity-POST-dedb1204-6961-5504-b717-5f982e5d0300-attr-2-key" class="er entityLabel"/><rect height="22" width="75.171875" y="68.13164234161377" x="0" class="er attributeBoxOdd"/><text style="dominant-baseline: middle; font-size: 10.2px;" transform="translate(5,79.13164234161377)" y="0" x="0" id="text-entity-POST-dedb1204-6961-5504-b717-5f982e5d0300-attr-3-type" class="er entityLabel">LONGTEXT</text><rect height="22" width="53.9375" y="68.13164234161377" x="75.171875" class="er attributeBoxOdd"/><text style="dominant-baseline: middle; font-size: 10.2px;" transform="translate(80.171875,79.13164234161377)" y="0" x="0" id="text-entity-POST-dedb1204-6961-5504-b717-5f982e5d0300-attr-3-name" class="er entityLabel">content</text><rect height="22" width="21.5625" y="68.13164234161377" x="129.109375" class="er attributeBoxOdd"/><text style="dominant-baseline: middle; font-size: 10.2px;" transform="translate(134.109375,79.13164234161377)" y="0" x="0" id="text-entity-POST-dedb1204-6961-5504-b717-5f982e5d0300-attr-3-key" class="er entityLabel"/><rect height="22" width="75.171875" y="90.13164234161377" x="0" class="er attributeBoxEven"/><text style="dominant-baseline: middle; font-size: 10.2px;" transform="translate(5,101.13164234161377)" y="0" x="0" id="text-entity-POST-dedb1204-6961-5504-b717-5f982e5d0300-attr-4-type" class="er entityLabel">BIGINT</text><rect height="22" width="53.9375" y="90.13164234161377" x="75.171875" class="er attributeBoxEven"/><text style="dominant-baseline: middle; font-size: 10.2px;" transform="translate(80.171875,101.13164234161377)" y="0" x="0" id="text-entity-POST-dedb1204-6961-5504-b717-5f982e5d0300-attr-4-name" class="er entityLabel">author_id</text><rect height="22" width="21.5625" y="90.13164234161377" x="129.109375" class="er attributeBoxEven"/><text style="dominant-baseline: middle; font-size: 10.2px;" transform="translate(134.109375,101.13164234161377)" y="0" x="0" id="text-entity-POST-dedb1204-6961-5504-b717-5f982e5d0300-attr-4-key" class="er entityLabel">FK</text><rect height="22" width="75.171875" y="112.13164234161377" x="0" class="er attributeBoxOdd"/><text style="dominant-baseline: middle; font-size: 10.2px;" transform="translate(5,123.13164234161377)" y="0" x="0" id="text-entity-POST-dedb1204-6961-5504-b717-5f982e5d0300-attr-5-type" class="er entityLabel">TIMESTAMP</text><rect height="22" width="53.9375" y="112.13164234161377" x="75.171875" class="er attributeBoxOdd"/><text style="dominant-baseline: middle; font-size: 10.2px;" transform="translate(80.171875,123.13164234161377)" y="0" x="0" id="text-entity-POST-dedb1204-6961-5504-b717-5f982e5d0300-attr-5-name" class="er entityLabel">created</text><rect height="22" width="21.5625" y="112.13164234161377" x="129.109375" class="er attributeBoxOdd"/><text style="dominant-baseline: middle; font-size: 10.2px;" transform="translate(134.109375,123.13164234161377)" y="0" x="0" id="text-entity-POST-dedb1204-6961-5504-b717-5f982e5d0300-attr-5-key" class="er entityLabel"/><rect height="22.091796875" width="75.171875" y="134.13164234161377" x="0" class="er attributeBoxEven"/><text style="dominant-baseline: middle; font-size: 10.2px;" transform="translate(5,145.17754077911377)" y="0" x="0" id="text-entity-POST-dedb1204-6961-5504-b717-5f982e5d0300-attr-6-type" class="er entityLabel">TIMESTAMP</text><rect height="22.091796875" width="53.9375" y="134.13164234161377" x="75.171875" class="er attributeBoxEven"/><text style="dominant-baseline: middle; font-size: 10.2px;" transform="translate(80.171875,145.17754077911377)" y="0" x="0" id="text-entity-POST-dedb1204-6961-5504-b717-5f982e5d0300-attr-6-name" class="er entityLabel">updated</text><rect height="22.091796875" width="21.5625" y="134.13164234161377" x="129.109375" class="er attributeBoxEven"/><text style="dominant-baseline: middle; font-size: 10.2px;" transform="translate(134.109375,145.17754077911377)" y="0" x="0" id="text-entity-POST-dedb1204-6961-5504-b717-5f982e5d0300-attr-6-key" class="er entityLabel"/></g><g transform="translate(111.53125,254.35508728027344 )" id="entity-COMMENT-7200c8cd-419e-593d-9e89-c74d55c6fb75"><rect height="156.18359470367432" width="135.75" y="0" x="0" class="er entityBox"/><text style="dominant-baseline: middle; text-anchor: middle; font-size: 12px;" transform="translate(67.875,12)" y="0" x="0" id="text-entity-COMMENT-7200c8cd-419e-593d-9e89-c74d55c6fb75" class="er entityLabel">COMMENT</text><rect height="22" width="60.25" y="24" x="0" class="er attributeBoxOdd"/><text style="dominant-baseline: middle; font-size: 10.2px;" transform="translate(5,35)" y="0" x="0" id="text-entity-COMMENT-7200c8cd-419e-593d-9e89-c74d55c6fb75-attr-1-type" class="er entityLabel">BIGINT</text><rect height="22" width="53.9375" y="24" x="60.25" class="er attributeBoxOdd"/><text style="dominant-baseline: middle; font-size: 10.2px;" transform="translate(65.25,35)" y="0" x="0" id="text-entity-COMMENT-7200c8cd-419e-593d-9e89-c74d55c6fb75-attr-1-name" class="er entityLabel">id</text><rect height="22" width="21.5625" y="24" x="114.1875" class="er attributeBoxOdd"/><text style="dominant-baseline: middle; font-size: 10.2px;" transform="translate(119.1875,35)" y="0" x="0" id="text-entity-COMMENT-7200c8cd-419e-593d-9e89-c74d55c6fb75-attr-1-key" class="er entityLabel">PK</text><rect height="22" width="60.25" y="46" x="0" class="er attributeBoxEven"/><text style="dominant-baseline: middle; font-size: 10.2px;" transform="translate(5,57)" y="0" x="0" id="text-entity-COMMENT-7200c8cd-419e-593d-9e89-c74d55c6fb75-attr-2-type" class="er entityLabel">LONGTEXT</text><rect height="22" width="53.9375" y="46" x="60.25" class="er attributeBoxEven"/><text style="dominant-baseline: middle; font-size: 10.2px;" transform="translate(65.25,57)" y="0" x="0" id="text-entity-COMMENT-7200c8cd-419e-593d-9e89-c74d55c6fb75-attr-2-name" class="er entityLabel">content</text><rect height="22" width="21.5625" y="46" x="114.1875" class="er attributeBoxEven"/><text style="dominant-baseline: middle; font-size: 10.2px;" transform="translate(119.1875,57)" y="0" x="0" id="text-entity-COMMENT-7200c8cd-419e-593d-9e89-c74d55c6fb75-attr-2-key" class="er entityLabel"/><rect height="22.091797828674316" width="60.25" y="68" x="0" class="er attributeBoxOdd"/><text style="dominant-baseline: middle; font-size: 10.2px;" transform="translate(5,79.04589891433716)" y="0" x="0" id="text-entity-COMMENT-7200c8cd-419e-593d-9e89-c74d55c6fb75-attr-3-type" class="er entityLabel">BIGINT</text><rect height="22.091797828674316" width="53.9375" y="68" x="60.25" class="er attributeBoxOdd"/><text style="dominant-baseline: middle; font-size: 10.2px;" transform="translate(65.25,79.04589891433716)" y="0" x="0" id="text-entity-COMMENT-7200c8cd-419e-593d-9e89-c74d55c6fb75-attr-3-name" class="er entityLabel">post_id</text><rect height="22.091797828674316" width="21.5625" y="68" x="114.1875" class="er attributeBoxOdd"/><text style="dominant-baseline: middle; font-size: 10.2px;" transform="translate(119.1875,79.04589891433716)" y="0" x="0" id="text-entity-COMMENT-7200c8cd-419e-593d-9e89-c74d55c6fb75-attr-3-key" class="er entityLabel">FK</text><rect height="22" width="60.25" y="90.09179782867432" x="0" class="er attributeBoxEven"/><text style="dominant-baseline: middle; font-size: 10.2px;" transform="translate(5,101.09179782867432)" y="0" x="0" id="text-entity-COMMENT-7200c8cd-419e-593d-9e89-c74d55c6fb75-attr-4-type" class="er entityLabel">BIGINT</text><rect height="22" width="53.9375" y="90.09179782867432" x="60.25" class="er attributeBoxEven"/><text style="dominant-baseline: middle; font-size: 10.2px;" transform="translate(65.25,101.09179782867432)" y="0" x="0" id="text-entity-COMMENT-7200c8cd-419e-593d-9e89-c74d55c6fb75-attr-4-name" class="er entityLabel">author_id</text><rect height="22" width="21.5625" y="90.09179782867432" x="114.1875" class="er attributeBoxEven"/><text style="dominant-baseline: middle; font-size: 10.2px;" transform="translate(119.1875,101.09179782867432)" y="0" x="0" id="text-entity-COMMENT-7200c8cd-419e-593d-9e89-c74d55c6fb75-attr-4-key" class="er entityLabel">FK</text><rect height="22" width="60.25" y="112.09179782867432" x="0" class="er attributeBoxOdd"/><text style="dominant-baseline: middle; font-size: 10.2px;" transform="translate(5,123.09179782867432)" y="0" x="0" id="text-entity-COMMENT-7200c8cd-419e-593d-9e89-c74d55c6fb75-attr-5-type" class="er entityLabel">TIMESTAMP</text><rect height="22" width="53.9375" y="112.09179782867432" x="60.25" class="er attributeBoxOdd"/><text style="dominant-baseline: middle; font-size: 10.2px;" transform="translate(65.25,123.09179782867432)" y="0" x="0" id="text-entity-COMMENT-7200c8cd-419e-593d-9e89-c74d55c6fb75-attr-5-name" class="er entityLabel">created</text><rect height="22" width="21.5625" y="112.09179782867432" x="114.1875" class="er attributeBoxOdd"/><text style="dominant-baseline: middle; font-size: 10.2px;" transform="translate(119.1875,123.09179782867432)" y="0" x="0" id="text-entity-COMMENT-7200c8cd-419e-593d-9e89-c74d55c6fb75-attr-5-key" class="er entityLabel"/><rect height="22.091796875" width="60.25" y="134.09179782867432" x="0" class="er attributeBoxEven"/><text style="dominant-baseline: middle; font-size: 10.2px;" transform="translate(5,145.13769626617432)" y="0" x="0" id="text-entity-COMMENT-7200c8cd-419e-593d-9e89-c74d55c6fb75-attr-6-type" class="er entityLabel">TIMESTAMP</text><rect height="22.091796875" width="53.9375" y="134.09179782867432" x="60.25" class="er attributeBoxEven"/><text style="dominant-baseline: middle; font-size: 10.2px;" transform="translate(65.25,145.13769626617432)" y="0" x="0" id="text-entity-COMMENT-7200c8cd-419e-593d-9e89-c74d55c6fb75-attr-6-name" class="er entityLabel">updated</text><rect height="22.091796875" width="21.5625" y="134.09179782867432" x="114.1875" class="er attributeBoxEven"/><text style="dominant-baseline: middle; font-size: 10.2px;" transform="translate(119.1875,145.13769626617432)" y="0" x="0" id="text-entity-COMMENT-7200c8cd-419e-593d-9e89-c74d55c6fb75-attr-6-key" class="er entityLabel"/></g><rect height="14" width="61.72265625" y="324.8516540527344" x="-19.330219268798828" class="er relationshipLabelBox"/><text style="text-anchor: middle; dominant-baseline: middle; font-size: 12px;" y="331.8516540527344" x="11.531108856201172" id="rel1" class="er relationshipLabel">is author of</text><rect height="14" width="61.72265625" y="193.72280883789062" x="141.18324279785156" class="er relationshipLabelBox"/><text style="text-anchor: middle; dominant-baseline: middle; font-size: 12px;" y="200.72280883789062" x="172.04457092285156" id="rel2" class="er relationshipLabel">is author of</text><rect height="14" width="59.296875" y="456.6556091308594" x="143.2147674560547" class="er relationshipLabelBox"/><text style="text-anchor: middle; dominant-baseline: middle; font-size: 12px;" y="463.6556091308594" x="172.8632049560547" id="rel3" class="er relationshipLabel">has_author</text></svg>