<svg aria-roledescription="er" role="graphics-document document" viewBox="0 0 704.203125 1141.4046630859375" style="max-width: 704.203px; background-color: white;" xmlns:xlink="http://www.w3.org/1999/xlink" xmlns="http://www.w3.org/2000/svg" width="100%" id="my-svg"><style>#my-svg{font-family:"trebuchet ms",verdana,arial,sans-serif;font-size:16px;fill:#333;}#my-svg .error-icon{fill:#552222;}#my-svg .error-text{fill:#552222;stroke:#552222;}#my-svg .edge-thickness-normal{stroke-width:1px;}#my-svg .edge-thickness-thick{stroke-width:3.5px;}#my-svg .edge-pattern-solid{stroke-dasharray:0;}#my-svg .edge-thickness-invisible{stroke-width:0;fill:none;}#my-svg .edge-pattern-dashed{stroke-dasharray:3;}#my-svg .edge-pattern-dotted{stroke-dasharray:2;}#my-svg .marker{fill:#333333;stroke:#333333;}#my-svg .marker.cross{stroke:#333333;}#my-svg svg{font-family:"trebuchet ms",verdana,arial,sans-serif;font-size:16px;}#my-svg p{margin:0;}#my-svg .entityBox{fill:#ECECFF;stroke:#9370DB;}#my-svg .attributeBoxOdd{fill:#ffffff;stroke:#9370DB;}#my-svg .attributeBoxEven{fill:#f2f2f2;stroke:#9370DB;}#my-svg .relationshipLabelBox{fill:hsl(80, 100%, 96.2745098039%);opacity:0.7;background-color:hsl(80, 100%, 96.2745098039%);}#my-svg .relationshipLabelBox rect{opacity:0.5;}#my-svg .relationshipLine{stroke:#333333;}#my-svg .entityTitleText{text-anchor:middle;font-size:18px;fill:#333;}#my-svg #MD_PARENT_START{fill:#f5f5f5!important;stroke:#333333!important;stroke-width:1;}#my-svg #MD_PARENT_END{fill:#f5f5f5!important;stroke:#333333!important;stroke-width:1;}#my-svg :root{--mermaid-font-family:"trebuchet ms",verdana,arial,sans-serif;}</style><g/><defs><marker orient="auto" markerHeight="240" markerWidth="190" refY="7" refX="0" id="MD_PARENT_START"><path d="M 18,7 L9,13 L1,7 L9,1 Z"/></marker></defs><defs><marker orient="auto" markerHeight="28" markerWidth="20" refY="7" refX="19" id="MD_PARENT_END"><path d="M 18,7 L9,13 L1,7 L9,1 Z"/></marker></defs><defs><marker orient="auto" markerHeight="18" markerWidth="18" refY="9" refX="0" id="ONLY_ONE_START"><path d="M9,0 L9,18 M15,0 L15,18" fill="none" stroke="gray"/></marker></defs><defs><marker orient="auto" markerHeight="18" markerWidth="18" refY="9" refX="18" id="ONLY_ONE_END"><path d="M3,0 L3,18 M9,0 L9,18" fill="none" stroke="gray"/></marker></defs><defs><marker orient="auto" markerHeight="18" markerWidth="30" refY="9" refX="0" id="ZERO_OR_ONE_START"><circle r="6" cy="9" cx="21" fill="white" stroke="gray"/><path d="M9,0 L9,18" fill="none" stroke="gray"/></marker></defs><defs><marker orient="auto" markerHeight="18" markerWidth="30" refY="9" refX="30" id="ZERO_OR_ONE_END"><circle r="6" cy="9" cx="9" fill="white" stroke="gray"/><path d="M21,0 L21,18" fill="none" stroke="gray"/></marker></defs><defs><marker orient="auto" markerHeight="36" markerWidth="45" refY="18" refX="18" id="ONE_OR_MORE_START"><path d="M0,18 Q 18,0 36,18 Q 18,36 0,18 M42,9 L42,27" fill="none" stroke="gray"/></marker></defs><defs><marker orient="auto" markerHeight="36" markerWidth="45" refY="18" refX="27" id="ONE_OR_MORE_END"><path d="M3,9 L3,27 M9,18 Q27,0 45,18 Q27,36 9,18" fill="none" stroke="gray"/></marker></defs><defs><marker orient="auto" markerHeight="36" markerWidth="57" refY="18" refX="18" id="ZERO_OR_MORE_START"><circle r="6" cy="18" cx="48" fill="white" stroke="gray"/><path d="M0,18 Q18,0 36,18 Q18,36 0,18" fill="none" stroke="gray"/></marker></defs><defs><marker orient="auto" markerHeight="36" markerWidth="57" refY="18" refX="39" id="ZERO_OR_MORE_END"><circle r="6" cy="18" cx="9" fill="white" stroke="gray"/><path d="M21,18 Q39,0 57,18 Q39,36 21,18" fill="none" stroke="gray"/></marker></defs><path style="stroke: gray; fill: none;" marker-start="url(#ONLY_ONE_START)" marker-end="url(#ZERO_OR_MORE_END)" d="M352.102,242.275L352.102,250.609C352.102,258.942,352.102,275.609,352.102,292.275C352.102,308.942,352.102,325.609,352.102,333.942L352.102,342.275" class="er relationshipLine"/><path style="stroke: gray; fill: none;" marker-start="url(#ONLY_ONE_START)" marker-end="url(#ZERO_OR_MORE_END)" d="M352.102,608.906L352.102,617.239C352.102,625.573,352.102,642.239,352.102,658.906C352.102,675.573,352.102,692.239,352.102,700.573L352.102,708.906" class="er relationshipLine"/><path style="stroke: gray; fill: none;" marker-start="url(#ONLY_ONE_START)" marker-end="url(#ZERO_OR_ONE_END)" d="M245.75,824.912L221.02,836.281C196.289,847.651,146.828,870.39,122.098,890.093C97.367,909.796,97.367,926.463,97.367,934.796L97.367,943.129" class="er relationshipLine"/><path style="stroke: gray; fill: none;" marker-start="url(#ONLY_ONE_START)" marker-end="url(#ZERO_OR_ONE_END)" d="M352.102,843.129L352.102,851.463C352.102,859.796,352.102,876.463,352.102,896.804C352.102,917.145,352.102,941.16,352.102,953.168L352.102,965.175" class="er relationshipLine"/><path style="stroke: gray; fill: none;" marker-start="url(#ONLY_ONE_START)" marker-end="url(#ZERO_OR_ONE_END)" d="M458.453,824.912L483.184,836.281C507.914,847.651,557.375,870.39,582.105,893.767C606.836,917.145,606.836,941.16,606.836,953.168L606.836,965.175" class="er relationshipLine"/><g transform="translate(246.3203125,20 )" id="entity-PARTNERS-be454b65-6029-59a5-b899-6dc0bf38ff55"><rect height="222.275390625" width="211.5625" y="0" x="0" class="er entityBox"/><text style="dominant-baseline: middle; text-anchor: middle; font-size: 12px;" transform="translate(105.78125,12)" y="0" x="0" id="text-entity-PARTNERS-be454b65-6029-59a5-b899-6dc0bf38ff55" class="er entityLabel">PARTNERS</text><rect height="22" width="60.25" y="24" x="0" class="er attributeBoxOdd"/><text style="dominant-baseline: middle; font-size: 10.2px;" transform="translate(5,35)" y="0" x="0" id="text-entity-PARTNERS-be454b65-6029-59a5-b899-6dc0bf38ff55-attr-1-type" class="er entityLabel">UUID</text><rect height="22" width="129.75" y="24" x="60.25" class="er attributeBoxOdd"/><text style="dominant-baseline: middle; font-size: 10.2px;" transform="translate(65.25,35)" y="0" x="0" id="text-entity-PARTNERS-be454b65-6029-59a5-b899-6dc0bf38ff55-attr-1-name" class="er entityLabel">id</text><rect height="22" width="21.5625" y="24" x="190" class="er attributeBoxOdd"/><text style="dominant-baseline: middle; font-size: 10.2px;" transform="translate(195,35)" y="0" x="0" id="text-entity-PARTNERS-be454b65-6029-59a5-b899-6dc0bf38ff55-attr-1-key" class="er entityLabel">PK</text><rect height="22" width="60.25" y="46" x="0" class="er attributeBoxEven"/><text style="dominant-baseline: middle; font-size: 10.2px;" transform="translate(5,57)" y="0" x="0" id="text-entity-PARTNERS-be454b65-6029-59a5-b899-6dc0bf38ff55-attr-2-type" class="er entityLabel">VARCHAR</text><rect height="22" width="129.75" y="46" x="60.25" class="er attributeBoxEven"/><text style="dominant-baseline: middle; font-size: 10.2px;" transform="translate(65.25,57)" y="0" x="0" id="text-entity-PARTNERS-be454b65-6029-59a5-b899-6dc0bf38ff55-attr-2-name" class="er entityLabel">name</text><rect height="22" width="21.5625" y="46" x="190" class="er attributeBoxEven"/><text style="dominant-baseline: middle; font-size: 10.2px;" transform="translate(195,57)" y="0" x="0" id="text-entity-PARTNERS-be454b65-6029-59a5-b899-6dc0bf38ff55-attr-2-key" class="er entityLabel"/><rect height="22" width="60.25" y="68" x="0" class="er attributeBoxOdd"/><text style="dominant-baseline: middle; font-size: 10.2px;" transform="translate(5,79)" y="0" x="0" id="text-entity-PARTNERS-be454b65-6029-59a5-b899-6dc0bf38ff55-attr-3-type" class="er entityLabel">VARCHAR</text><rect height="22" width="129.75" y="68" x="60.25" class="er attributeBoxOdd"/><text style="dominant-baseline: middle; font-size: 10.2px;" transform="translate(65.25,79)" y="0" x="0" id="text-entity-PARTNERS-be454b65-6029-59a5-b899-6dc0bf38ff55-attr-3-name" class="er entityLabel">webhook_url</text><rect height="22" width="21.5625" y="68" x="190" class="er attributeBoxOdd"/><text style="dominant-baseline: middle; font-size: 10.2px;" transform="translate(195,79)" y="0" x="0" id="text-entity-PARTNERS-be454b65-6029-59a5-b899-6dc0bf38ff55-attr-3-key" class="er entityLabel"/><rect height="22.091796875" width="60.25" y="90" x="0" class="er attributeBoxEven"/><text style="dominant-baseline: middle; font-size: 10.2px;" transform="translate(5,101.0458984375)" y="0" x="0" id="text-entity-PARTNERS-be454b65-6029-59a5-b899-6dc0bf38ff55-attr-4-type" class="er entityLabel">FLOAT</text><rect height="22.091796875" width="129.75" y="90" x="60.25" class="er attributeBoxEven"/><text style="dominant-baseline: middle; font-size: 10.2px;" transform="translate(65.25,101.0458984375)" y="0" x="0" id="text-entity-PARTNERS-be454b65-6029-59a5-b899-6dc0bf38ff55-attr-4-name" class="er entityLabel">prediction_high_threshold</text><rect height="22.091796875" width="21.5625" y="90" x="190" class="er attributeBoxEven"/><text style="dominant-baseline: middle; font-size: 10.2px;" transform="translate(195,101.0458984375)" y="0" x="0" id="text-entity-PARTNERS-be454b65-6029-59a5-b899-6dc0bf38ff55-attr-4-key" class="er entityLabel"/><rect height="22.091796875" width="60.25" y="112.091796875" x="0" class="er attributeBoxOdd"/><text style="dominant-baseline: middle; font-size: 10.2px;" transform="translate(5,123.1376953125)" y="0" x="0" id="text-entity-PARTNERS-be454b65-6029-59a5-b899-6dc0bf38ff55-attr-5-type" class="er entityLabel">FLOAT</text><rect height="22.091796875" width="129.75" y="112.091796875" x="60.25" class="er attributeBoxOdd"/><text style="dominant-baseline: middle; font-size: 10.2px;" transform="translate(65.25,123.1376953125)" y="0" x="0" id="text-entity-PARTNERS-be454b65-6029-59a5-b899-6dc0bf38ff55-attr-5-name" class="er entityLabel">prediction_low_threshold</text><rect height="22.091796875" width="21.5625" y="112.091796875" x="190" class="er attributeBoxOdd"/><text style="dominant-baseline: middle; font-size: 10.2px;" transform="translate(195,123.1376953125)" y="0" x="0" id="text-entity-PARTNERS-be454b65-6029-59a5-b899-6dc0bf38ff55-attr-5-key" class="er entityLabel"/><rect height="22" width="60.25" y="134.18359375" x="0" class="er attributeBoxEven"/><text style="dominant-baseline: middle; font-size: 10.2px;" transform="translate(5,145.18359375)" y="0" x="0" id="text-entity-PARTNERS-be454b65-6029-59a5-b899-6dc0bf38ff55-attr-6-type" class="er entityLabel">BOOLEAN</text><rect height="22" width="129.75" y="134.18359375" x="60.25" class="er attributeBoxEven"/><text style="dominant-baseline: middle; font-size: 10.2px;" transform="translate(65.25,145.18359375)" y="0" x="0" id="text-entity-PARTNERS-be454b65-6029-59a5-b899-6dc0bf38ff55-attr-6-name" class="er entityLabel">aml_state</text><rect height="22" width="21.5625" y="134.18359375" x="190" class="er attributeBoxEven"/><text style="dominant-baseline: middle; font-size: 10.2px;" transform="translate(195,145.18359375)" y="0" x="0" id="text-entity-PARTNERS-be454b65-6029-59a5-b899-6dc0bf38ff55-attr-6-key" class="er entityLabel"/><rect height="22" width="60.25" y="156.18359375" x="0" class="er attributeBoxOdd"/><text style="dominant-baseline: middle; font-size: 10.2px;" transform="translate(5,167.18359375)" y="0" x="0" id="text-entity-PARTNERS-be454b65-6029-59a5-b899-6dc0bf38ff55-attr-7-type" class="er entityLabel">BOOLEAN</text><rect height="22" width="129.75" y="156.18359375" x="60.25" class="er attributeBoxOdd"/><text style="dominant-baseline: middle; font-size: 10.2px;" transform="translate(65.25,167.18359375)" y="0" x="0" id="text-entity-PARTNERS-be454b65-6029-59a5-b899-6dc0bf38ff55-attr-7-name" class="er entityLabel">cft_state</text><rect height="22" width="21.5625" y="156.18359375" x="190" class="er attributeBoxOdd"/><text style="dominant-baseline: middle; font-size: 10.2px;" transform="translate(195,167.18359375)" y="0" x="0" id="text-entity-PARTNERS-be454b65-6029-59a5-b899-6dc0bf38ff55-attr-7-key" class="er entityLabel"/><rect height="22" width="60.25" y="178.18359375" x="0" class="er attributeBoxEven"/><text style="dominant-baseline: middle; font-size: 10.2px;" transform="translate(5,189.18359375)" y="0" x="0" id="text-entity-PARTNERS-be454b65-6029-59a5-b899-6dc0bf38ff55-attr-8-type" class="er entityLabel">TIMESTAMP</text><rect height="22" width="129.75" y="178.18359375" x="60.25" class="er attributeBoxEven"/><text style="dominant-baseline: middle; font-size: 10.2px;" transform="translate(65.25,189.18359375)" y="0" x="0" id="text-entity-PARTNERS-be454b65-6029-59a5-b899-6dc0bf38ff55-attr-8-name" class="er entityLabel">created_at</text><rect height="22" width="21.5625" y="178.18359375" x="190" class="er attributeBoxEven"/><text style="dominant-baseline: middle; font-size: 10.2px;" transform="translate(195,189.18359375)" y="0" x="0" id="text-entity-PARTNERS-be454b65-6029-59a5-b899-6dc0bf38ff55-attr-8-key" class="er entityLabel"/><rect height="22.091796875" width="60.25" y="200.18359375" x="0" class="er attributeBoxOdd"/><text style="dominant-baseline: middle; font-size: 10.2px;" transform="translate(5,211.2294921875)" y="0" x="0" id="text-entity-PARTNERS-be454b65-6029-59a5-b899-6dc0bf38ff55-attr-9-type" class="er entityLabel">TIMESTAMP</text><rect height="22.091796875" width="129.75" y="200.18359375" x="60.25" class="er attributeBoxOdd"/><text style="dominant-baseline: middle; font-size: 10.2px;" transform="translate(65.25,211.2294921875)" y="0" x="0" id="text-entity-PARTNERS-be454b65-6029-59a5-b899-6dc0bf38ff55-attr-9-name" class="er entityLabel">updated_at</text><rect height="22.091796875" width="21.5625" y="200.18359375" x="190" class="er attributeBoxOdd"/><text style="dominant-baseline: middle; font-size: 10.2px;" transform="translate(195,211.2294921875)" y="0" x="0" id="text-entity-PARTNERS-be454b65-6029-59a5-b899-6dc0bf38ff55-attr-9-key" class="er entityLabel"/></g><g transform="translate(253.1015625,342.275390625 )" id="entity-CUSTOMERS-f16d4b86-fdce-5504-97dd-e4b4cdf26b8c"><rect height="266.63047313690186" width="198" y="0" x="0" class="er entityBox"/><text style="dominant-baseline: middle; text-anchor: middle; font-size: 12px;" transform="translate(99,12)" y="0" x="0" id="text-entity-CUSTOMERS-f16d4b86-fdce-5504-97dd-e4b4cdf26b8c" class="er entityLabel">CUSTOMERS</text><rect height="22" width="64.484375" y="24" x="0" class="er attributeBoxOdd"/><text style="dominant-baseline: middle; font-size: 10.2px;" transform="translate(5,35)" y="0" x="0" id="text-entity-CUSTOMERS-f16d4b86-fdce-5504-97dd-e4b4cdf26b8c-attr-1-type" class="er entityLabel">UUID</text><rect height="22" width="111.953125" y="24" x="64.484375" class="er attributeBoxOdd"/><text style="dominant-baseline: middle; font-size: 10.2px;" transform="translate(69.484375,35)" y="0" x="0" id="text-entity-CUSTOMERS-f16d4b86-fdce-5504-97dd-e4b4cdf26b8c-attr-1-name" class="er entityLabel">id</text><rect height="22" width="21.5625" y="24" x="176.4375" class="er attributeBoxOdd"/><text style="dominant-baseline: middle; font-size: 10.2px;" transform="translate(181.4375,35)" y="0" x="0" id="text-entity-CUSTOMERS-f16d4b86-fdce-5504-97dd-e4b4cdf26b8c-attr-1-key" class="er entityLabel">PK</text><rect height="22.091797828674316" width="64.484375" y="46" x="0" class="er attributeBoxEven"/><text style="dominant-baseline: middle; font-size: 10.2px;" transform="translate(5,57.04589891433716)" y="0" x="0" id="text-entity-CUSTOMERS-f16d4b86-fdce-5504-97dd-e4b4cdf26b8c-attr-2-type" class="er entityLabel">UUID</text><rect height="22.091797828674316" width="111.953125" y="46" x="64.484375" class="er attributeBoxEven"/><text style="dominant-baseline: middle; font-size: 10.2px;" transform="translate(69.484375,57.04589891433716)" y="0" x="0" id="text-entity-CUSTOMERS-f16d4b86-fdce-5504-97dd-e4b4cdf26b8c-attr-2-name" class="er entityLabel">partner_id</text><rect height="22.091797828674316" width="21.5625" y="46" x="176.4375" class="er attributeBoxEven"/><text style="dominant-baseline: middle; font-size: 10.2px;" transform="translate(181.4375,57.04589891433716)" y="0" x="0" id="text-entity-CUSTOMERS-f16d4b86-fdce-5504-97dd-e4b4cdf26b8c-attr-2-key" class="er entityLabel">FK</text><rect height="22" width="64.484375" y="68.09179782867432" x="0" class="er attributeBoxOdd"/><text style="dominant-baseline: middle; font-size: 10.2px;" transform="translate(5,79.09179782867432)" y="0" x="0" id="text-entity-CUSTOMERS-f16d4b86-fdce-5504-97dd-e4b4cdf26b8c-attr-3-type" class="er entityLabel">VARCHAR</text><rect height="22" width="111.953125" y="68.09179782867432" x="64.484375" class="er attributeBoxOdd"/><text style="dominant-baseline: middle; font-size: 10.2px;" transform="translate(69.484375,79.09179782867432)" y="0" x="0" id="text-entity-CUSTOMERS-f16d4b86-fdce-5504-97dd-e4b4cdf26b8c-attr-3-name" class="er entityLabel">email</text><rect height="22" width="21.5625" y="68.09179782867432" x="176.4375" class="er attributeBoxOdd"/><text style="dominant-baseline: middle; font-size: 10.2px;" transform="translate(181.4375,79.09179782867432)" y="0" x="0" id="text-entity-CUSTOMERS-f16d4b86-fdce-5504-97dd-e4b4cdf26b8c-attr-3-key" class="er entityLabel"/><rect height="22" width="64.484375" y="90.09179782867432" x="0" class="er attributeBoxEven"/><text style="dominant-baseline: middle; font-size: 10.2px;" transform="translate(5,101.09179782867432)" y="0" x="0" id="text-entity-CUSTOMERS-f16d4b86-fdce-5504-97dd-e4b4cdf26b8c-attr-4-type" class="er entityLabel">VARCHAR</text><rect height="22" width="111.953125" y="90.09179782867432" x="64.484375" class="er attributeBoxEven"/><text style="dominant-baseline: middle; font-size: 10.2px;" transform="translate(69.484375,101.09179782867432)" y="0" x="0" id="text-entity-CUSTOMERS-f16d4b86-fdce-5504-97dd-e4b4cdf26b8c-attr-4-name" class="er entityLabel">full_name</text><rect height="22" width="21.5625" y="90.09179782867432" x="176.4375" class="er attributeBoxEven"/><text style="dominant-baseline: middle; font-size: 10.2px;" transform="translate(181.4375,101.09179782867432)" y="0" x="0" id="text-entity-CUSTOMERS-f16d4b86-fdce-5504-97dd-e4b4cdf26b8c-attr-4-key" class="er entityLabel"/><rect height="22.13164234161377" width="64.484375" y="112.09179782867432" x="0" class="er attributeBoxOdd"/><text style="dominant-baseline: middle; font-size: 10.2px;" transform="translate(5,123.1576189994812)" y="0" x="0" id="text-entity-CUSTOMERS-f16d4b86-fdce-5504-97dd-e4b4cdf26b8c-attr-5-type" class="er entityLabel">VARCHAR(9)</text><rect height="22.13164234161377" width="111.953125" y="112.09179782867432" x="64.484375" class="er attributeBoxOdd"/><text style="dominant-baseline: middle; font-size: 10.2px;" transform="translate(69.484375,123.1576189994812)" y="0" x="0" id="text-entity-CUSTOMERS-f16d4b86-fdce-5504-97dd-e4b4cdf26b8c-attr-5-name" class="er entityLabel">gender</text><rect height="22.13164234161377" width="21.5625" y="112.09179782867432" x="176.4375" class="er attributeBoxOdd"/><text style="dominant-baseline: middle; font-size: 10.2px;" transform="translate(181.4375,123.1576189994812)" y="0" x="0" id="text-entity-CUSTOMERS-f16d4b86-fdce-5504-97dd-e4b4cdf26b8c-attr-5-key" class="er entityLabel"/><rect height="22" width="64.484375" y="134.2234401702881" x="0" class="er attributeBoxEven"/><text style="dominant-baseline: middle; font-size: 10.2px;" transform="translate(5,145.2234401702881)" y="0" x="0" id="text-entity-CUSTOMERS-f16d4b86-fdce-5504-97dd-e4b4cdf26b8c-attr-6-type" class="er entityLabel">VARCHAR</text><rect height="22" width="111.953125" y="134.2234401702881" x="64.484375" class="er attributeBoxEven"/><text style="dominant-baseline: middle; font-size: 10.2px;" transform="translate(69.484375,145.2234401702881)" y="0" x="0" id="text-entity-CUSTOMERS-f16d4b86-fdce-5504-97dd-e4b4cdf26b8c-attr-6-name" class="er entityLabel">address</text><rect height="22" width="21.5625" y="134.2234401702881" x="176.4375" class="er attributeBoxEven"/><text style="dominant-baseline: middle; font-size: 10.2px;" transform="translate(181.4375,145.2234401702881)" y="0" x="0" id="text-entity-CUSTOMERS-f16d4b86-fdce-5504-97dd-e4b4cdf26b8c-attr-6-key" class="er entityLabel"/><rect height="22.091796875" width="64.484375" y="156.2234401702881" x="0" class="er attributeBoxOdd"/><text style="dominant-baseline: middle; font-size: 10.2px;" transform="translate(5,167.2693386077881)" y="0" x="0" id="text-entity-CUSTOMERS-f16d4b86-fdce-5504-97dd-e4b4cdf26b8c-attr-7-type" class="er entityLabel">VARCHAR</text><rect height="22.091796875" width="111.953125" y="156.2234401702881" x="64.484375" class="er attributeBoxOdd"/><text style="dominant-baseline: middle; font-size: 10.2px;" transform="translate(69.484375,167.2693386077881)" y="0" x="0" id="text-entity-CUSTOMERS-f16d4b86-fdce-5504-97dd-e4b4cdf26b8c-attr-7-name" class="er entityLabel">phone_number</text><rect height="22.091796875" width="21.5625" y="156.2234401702881" x="176.4375" class="er attributeBoxOdd"/><text style="dominant-baseline: middle; font-size: 10.2px;" transform="translate(181.4375,167.2693386077881)" y="0" x="0" id="text-entity-CUSTOMERS-f16d4b86-fdce-5504-97dd-e4b4cdf26b8c-attr-7-key" class="er entityLabel"/><rect height="22.13164234161377" width="64.484375" y="178.3152370452881" x="0" class="er attributeBoxEven"/><text style="dominant-baseline: middle; font-size: 10.2px;" transform="translate(5,189.38105821609497)" y="0" x="0" id="text-entity-CUSTOMERS-f16d4b86-fdce-5504-97dd-e4b4cdf26b8c-attr-8-type" class="er entityLabel">CHAR(16)</text><rect height="22.13164234161377" width="111.953125" y="178.3152370452881" x="64.484375" class="er attributeBoxEven"/><text style="dominant-baseline: middle; font-size: 10.2px;" transform="translate(69.484375,189.38105821609497)" y="0" x="0" id="text-entity-CUSTOMERS-f16d4b86-fdce-5504-97dd-e4b4cdf26b8c-attr-8-name" class="er entityLabel">identification_number</text><rect height="22.13164234161377" width="21.5625" y="178.3152370452881" x="176.4375" class="er attributeBoxEven"/><text style="dominant-baseline: middle; font-size: 10.2px;" transform="translate(181.4375,189.38105821609497)" y="0" x="0" id="text-entity-CUSTOMERS-f16d4b86-fdce-5504-97dd-e4b4cdf26b8c-attr-8-key" class="er entityLabel"/><rect height="22.091796875" width="64.484375" y="200.44687938690186" x="0" class="er attributeBoxOdd"/><text style="dominant-baseline: middle; font-size: 10.2px;" transform="translate(5,211.49277782440186)" y="0" x="0" id="text-entity-CUSTOMERS-f16d4b86-fdce-5504-97dd-e4b4cdf26b8c-attr-9-type" class="er entityLabel">TEXT</text><rect height="22.091796875" width="111.953125" y="200.44687938690186" x="64.484375" class="er attributeBoxOdd"/><text style="dominant-baseline: middle; font-size: 10.2px;" transform="translate(69.484375,211.49277782440186)" y="0" x="0" id="text-entity-CUSTOMERS-f16d4b86-fdce-5504-97dd-e4b4cdf26b8c-attr-9-name" class="er entityLabel">identification_picture</text><rect height="22.091796875" width="21.5625" y="200.44687938690186" x="176.4375" class="er attributeBoxOdd"/><text style="dominant-baseline: middle; font-size: 10.2px;" transform="translate(181.4375,211.49277782440186)" y="0" x="0" id="text-entity-CUSTOMERS-f16d4b86-fdce-5504-97dd-e4b4cdf26b8c-attr-9-key" class="er entityLabel"/><rect height="22" width="64.484375" y="222.53867626190186" x="0" class="er attributeBoxEven"/><text style="dominant-baseline: middle; font-size: 10.2px;" transform="translate(5,233.53867626190186)" y="0" x="0" id="text-entity-CUSTOMERS-f16d4b86-fdce-5504-97dd-e4b4cdf26b8c-attr-10-type" class="er entityLabel">TIMESTAMP</text><rect height="22" width="111.953125" y="222.53867626190186" x="64.484375" class="er attributeBoxEven"/><text style="dominant-baseline: middle; font-size: 10.2px;" transform="translate(69.484375,233.53867626190186)" y="0" x="0" id="text-entity-CUSTOMERS-f16d4b86-fdce-5504-97dd-e4b4cdf26b8c-attr-10-name" class="er entityLabel">created_at</text><rect height="22" width="21.5625" y="222.53867626190186" x="176.4375" class="er attributeBoxEven"/><text style="dominant-baseline: middle; font-size: 10.2px;" transform="translate(181.4375,233.53867626190186)" y="0" x="0" id="text-entity-CUSTOMERS-f16d4b86-fdce-5504-97dd-e4b4cdf26b8c-attr-10-key" class="er entityLabel"/><rect height="22.091796875" width="64.484375" y="244.53867626190186" x="0" class="er attributeBoxOdd"/><text style="dominant-baseline: middle; font-size: 10.2px;" transform="translate(5,255.58457469940186)" y="0" x="0" id="text-entity-CUSTOMERS-f16d4b86-fdce-5504-97dd-e4b4cdf26b8c-attr-11-type" class="er entityLabel">TIMESTAMP</text><rect height="22.091796875" width="111.953125" y="244.53867626190186" x="64.484375" class="er attributeBoxOdd"/><text style="dominant-baseline: middle; font-size: 10.2px;" transform="translate(69.484375,255.58457469940186)" y="0" x="0" id="text-entity-CUSTOMERS-f16d4b86-fdce-5504-97dd-e4b4cdf26b8c-attr-11-name" class="er entityLabel">updated_at</text><rect height="22.091796875" width="21.5625" y="244.53867626190186" x="176.4375" class="er attributeBoxOdd"/><text style="dominant-baseline: middle; font-size: 10.2px;" transform="translate(181.4375,255.58457469940186)" y="0" x="0" id="text-entity-CUSTOMERS-f16d4b86-fdce-5504-97dd-e4b4cdf26b8c-attr-11-key" class="er entityLabel"/></g><g transform="translate(245.75,708.9058532714844 )" id="entity-SUBMISSIONS-dfc51483-dd3e-572b-8e3b-983526051a16"><rect height="134.22343826293945" width="212.703125" y="0" x="0" class="er entityBox"/><text style="dominant-baseline: middle; text-anchor: middle; font-size: 12px;" transform="translate(106.3515625,12)" y="0" x="0" id="text-entity-SUBMISSIONS-dfc51483-dd3e-572b-8e3b-983526051a16" class="er entityLabel">SUBMISSIONS</text><rect height="22" width="124.921875" y="24" x="0" class="er attributeBoxOdd"/><text style="dominant-baseline: middle; font-size: 10.2px;" transform="translate(5,35)" y="0" x="0" id="text-entity-SUBMISSIONS-dfc51483-dd3e-572b-8e3b-983526051a16-attr-1-type" class="er entityLabel">UUID</text><rect height="22" width="66.21875" y="24" x="124.921875" class="er attributeBoxOdd"/><text style="dominant-baseline: middle; font-size: 10.2px;" transform="translate(129.921875,35)" y="0" x="0" id="text-entity-SUBMISSIONS-dfc51483-dd3e-572b-8e3b-983526051a16-attr-1-name" class="er entityLabel">id</text><rect height="22" width="21.5625" y="24" x="191.140625" class="er attributeBoxOdd"/><text style="dominant-baseline: middle; font-size: 10.2px;" transform="translate(196.140625,35)" y="0" x="0" id="text-entity-SUBMISSIONS-dfc51483-dd3e-572b-8e3b-983526051a16-attr-1-key" class="er entityLabel">PK</text><rect height="22" width="124.921875" y="46" x="0" class="er attributeBoxEven"/><text style="dominant-baseline: middle; font-size: 10.2px;" transform="translate(5,57)" y="0" x="0" id="text-entity-SUBMISSIONS-dfc51483-dd3e-572b-8e3b-983526051a16-attr-2-type" class="er entityLabel">UUID</text><rect height="22" width="66.21875" y="46" x="124.921875" class="er attributeBoxEven"/><text style="dominant-baseline: middle; font-size: 10.2px;" transform="translate(129.921875,57)" y="0" x="0" id="text-entity-SUBMISSIONS-dfc51483-dd3e-572b-8e3b-983526051a16-attr-2-name" class="er entityLabel">customer_id</text><rect height="22" width="21.5625" y="46" x="191.140625" class="er attributeBoxEven"/><text style="dominant-baseline: middle; font-size: 10.2px;" transform="translate(196.140625,57)" y="0" x="0" id="text-entity-SUBMISSIONS-dfc51483-dd3e-572b-8e3b-983526051a16-attr-2-key" class="er entityLabel">FK</text><rect height="22.131641387939453" width="124.921875" y="68" x="0" class="er attributeBoxOdd"/><text style="dominant-baseline: middle; font-size: 10.2px;" transform="translate(5,79.06582069396973)" y="0" x="0" id="text-entity-SUBMISSIONS-dfc51483-dd3e-572b-8e3b-983526051a16-attr-3-type" class="er entityLabel">ENUM(submission_status)</text><rect height="22.131641387939453" width="66.21875" y="68" x="124.921875" class="er attributeBoxOdd"/><text style="dominant-baseline: middle; font-size: 10.2px;" transform="translate(129.921875,79.06582069396973)" y="0" x="0" id="text-entity-SUBMISSIONS-dfc51483-dd3e-572b-8e3b-983526051a16-attr-3-name" class="er entityLabel">status</text><rect height="22.131641387939453" width="21.5625" y="68" x="191.140625" class="er attributeBoxOdd"/><text style="dominant-baseline: middle; font-size: 10.2px;" transform="translate(196.140625,79.06582069396973)" y="0" x="0" id="text-entity-SUBMISSIONS-dfc51483-dd3e-572b-8e3b-983526051a16-attr-3-key" class="er entityLabel"/><rect height="22" width="124.921875" y="90.13164138793945" x="0" class="er attributeBoxEven"/><text style="dominant-baseline: middle; font-size: 10.2px;" transform="translate(5,101.13164138793945)" y="0" x="0" id="text-entity-SUBMISSIONS-dfc51483-dd3e-572b-8e3b-983526051a16-attr-4-type" class="er entityLabel">TIMESTAMP</text><rect height="22" width="66.21875" y="90.13164138793945" x="124.921875" class="er attributeBoxEven"/><text style="dominant-baseline: middle; font-size: 10.2px;" transform="translate(129.921875,101.13164138793945)" y="0" x="0" id="text-entity-SUBMISSIONS-dfc51483-dd3e-572b-8e3b-983526051a16-attr-4-name" class="er entityLabel">created_at</text><rect height="22" width="21.5625" y="90.13164138793945" x="191.140625" class="er attributeBoxEven"/><text style="dominant-baseline: middle; font-size: 10.2px;" transform="translate(196.140625,101.13164138793945)" y="0" x="0" id="text-entity-SUBMISSIONS-dfc51483-dd3e-572b-8e3b-983526051a16-attr-4-key" class="er entityLabel"/><rect height="22.091796875" width="124.921875" y="112.13164138793945" x="0" class="er attributeBoxOdd"/><text style="dominant-baseline: middle; font-size: 10.2px;" transform="translate(5,123.17753982543945)" y="0" x="0" id="text-entity-SUBMISSIONS-dfc51483-dd3e-572b-8e3b-983526051a16-attr-5-type" class="er entityLabel">TIMESTAMP</text><rect height="22.091796875" width="66.21875" y="112.13164138793945" x="124.921875" class="er attributeBoxOdd"/><text style="dominant-baseline: middle; font-size: 10.2px;" transform="translate(129.921875,123.17753982543945)" y="0" x="0" id="text-entity-SUBMISSIONS-dfc51483-dd3e-572b-8e3b-983526051a16-attr-5-name" class="er entityLabel">updated_at</text><rect height="22.091796875" width="21.5625" y="112.13164138793945" x="191.140625" class="er attributeBoxOdd"/><text style="dominant-baseline: middle; font-size: 10.2px;" transform="translate(196.140625,123.17753982543945)" y="0" x="0" id="text-entity-SUBMISSIONS-dfc51483-dd3e-572b-8e3b-983526051a16-attr-5-key" class="er entityLabel"/></g><g transform="translate(20,943.1292877197266 )" id="entity-LIVENESSCHECKS-7a0d434b-9e1b-5b09-a3e5-c7eb1bb6bab0"><rect height="178.275390625" width="154.734375" y="0" x="0" class="er entityBox"/><text style="dominant-baseline: middle; text-anchor: middle; font-size: 12px;" transform="translate(77.3671875,12)" y="0" x="0" id="text-entity-LIVENESSCHECKS-7a0d434b-9e1b-5b09-a3e5-c7eb1bb6bab0" class="er entityLabel">LIVENESS_CHECKS</text><rect height="22" width="60.25" y="24" x="0" class="er attributeBoxOdd"/><text style="dominant-baseline: middle; font-size: 10.2px;" transform="translate(5,35)" y="0" x="0" id="text-entity-LIVENESSCHECKS-7a0d434b-9e1b-5b09-a3e5-c7eb1bb6bab0-attr-1-type" class="er entityLabel">UUID</text><rect height="22" width="72.921875" y="24" x="60.25" class="er attributeBoxOdd"/><text style="dominant-baseline: middle; font-size: 10.2px;" transform="translate(65.25,35)" y="0" x="0" id="text-entity-LIVENESSCHECKS-7a0d434b-9e1b-5b09-a3e5-c7eb1bb6bab0-attr-1-name" class="er entityLabel">id</text><rect height="22" width="21.5625" y="24" x="133.171875" class="er attributeBoxOdd"/><text style="dominant-baseline: middle; font-size: 10.2px;" transform="translate(138.171875,35)" y="0" x="0" id="text-entity-LIVENESSCHECKS-7a0d434b-9e1b-5b09-a3e5-c7eb1bb6bab0-attr-1-key" class="er entityLabel">PK</text><rect height="22" width="60.25" y="46" x="0" class="er attributeBoxEven"/><text style="dominant-baseline: middle; font-size: 10.2px;" transform="translate(5,57)" y="0" x="0" id="text-entity-LIVENESSCHECKS-7a0d434b-9e1b-5b09-a3e5-c7eb1bb6bab0-attr-2-type" class="er entityLabel">UUID</text><rect height="22" width="72.921875" y="46" x="60.25" class="er attributeBoxEven"/><text style="dominant-baseline: middle; font-size: 10.2px;" transform="translate(65.25,57)" y="0" x="0" id="text-entity-LIVENESSCHECKS-7a0d434b-9e1b-5b09-a3e5-c7eb1bb6bab0-attr-2-name" class="er entityLabel">submission_id</text><rect height="22" width="21.5625" y="46" x="133.171875" class="er attributeBoxEven"/><text style="dominant-baseline: middle; font-size: 10.2px;" transform="translate(138.171875,57)" y="0" x="0" id="text-entity-LIVENESSCHECKS-7a0d434b-9e1b-5b09-a3e5-c7eb1bb6bab0-attr-2-key" class="er entityLabel">FK</text><rect height="22.091796875" width="60.25" y="68" x="0" class="er attributeBoxOdd"/><text style="dominant-baseline: middle; font-size: 10.2px;" transform="translate(5,79.0458984375)" y="0" x="0" id="text-entity-LIVENESSCHECKS-7a0d434b-9e1b-5b09-a3e5-c7eb1bb6bab0-attr-3-type" class="er entityLabel">TEXT</text><rect height="22.091796875" width="72.921875" y="68" x="60.25" class="er attributeBoxOdd"/><text style="dominant-baseline: middle; font-size: 10.2px;" transform="translate(65.25,79.0458984375)" y="0" x="0" id="text-entity-LIVENESSCHECKS-7a0d434b-9e1b-5b09-a3e5-c7eb1bb6bab0-attr-3-name" class="er entityLabel">self_picture</text><rect height="22.091796875" width="21.5625" y="68" x="133.171875" class="er attributeBoxOdd"/><text style="dominant-baseline: middle; font-size: 10.2px;" transform="translate(138.171875,79.0458984375)" y="0" x="0" id="text-entity-LIVENESSCHECKS-7a0d434b-9e1b-5b09-a3e5-c7eb1bb6bab0-attr-3-key" class="er entityLabel"/><rect height="22" width="60.25" y="90.091796875" x="0" class="er attributeBoxEven"/><text style="dominant-baseline: middle; font-size: 10.2px;" transform="translate(5,101.091796875)" y="0" x="0" id="text-entity-LIVENESSCHECKS-7a0d434b-9e1b-5b09-a3e5-c7eb1bb6bab0-attr-4-type" class="er entityLabel">VARCHAR</text><rect height="22" width="72.921875" y="90.091796875" x="60.25" class="er attributeBoxEven"/><text style="dominant-baseline: middle; font-size: 10.2px;" transform="translate(65.25,101.091796875)" y="0" x="0" id="text-entity-LIVENESSCHECKS-7a0d434b-9e1b-5b09-a3e5-c7eb1bb6bab0-attr-4-name" class="er entityLabel">score</text><rect height="22" width="21.5625" y="90.091796875" x="133.171875" class="er attributeBoxEven"/><text style="dominant-baseline: middle; font-size: 10.2px;" transform="translate(138.171875,101.091796875)" y="0" x="0" id="text-entity-LIVENESSCHECKS-7a0d434b-9e1b-5b09-a3e5-c7eb1bb6bab0-attr-4-key" class="er entityLabel"/><rect height="22.091796875" width="60.25" y="112.091796875" x="0" class="er attributeBoxOdd"/><text style="dominant-baseline: middle; font-size: 10.2px;" transform="translate(5,123.1376953125)" y="0" x="0" id="text-entity-LIVENESSCHECKS-7a0d434b-9e1b-5b09-a3e5-c7eb1bb6bab0-attr-5-type" class="er entityLabel">BOOLEAN</text><rect height="22.091796875" width="72.921875" y="112.091796875" x="60.25" class="er attributeBoxOdd"/><text style="dominant-baseline: middle; font-size: 10.2px;" transform="translate(65.25,123.1376953125)" y="0" x="0" id="text-entity-LIVENESSCHECKS-7a0d434b-9e1b-5b09-a3e5-c7eb1bb6bab0-attr-5-name" class="er entityLabel">passed</text><rect height="22.091796875" width="21.5625" y="112.091796875" x="133.171875" class="er attributeBoxOdd"/><text style="dominant-baseline: middle; font-size: 10.2px;" transform="translate(138.171875,123.1376953125)" y="0" x="0" id="text-entity-LIVENESSCHECKS-7a0d434b-9e1b-5b09-a3e5-c7eb1bb6bab0-attr-5-key" class="er entityLabel"/><rect height="22" width="60.25" y="134.18359375" x="0" class="er attributeBoxEven"/><text style="dominant-baseline: middle; font-size: 10.2px;" transform="translate(5,145.18359375)" y="0" x="0" id="text-entity-LIVENESSCHECKS-7a0d434b-9e1b-5b09-a3e5-c7eb1bb6bab0-attr-6-type" class="er entityLabel">TIMESTAMP</text><rect height="22" width="72.921875" y="134.18359375" x="60.25" class="er attributeBoxEven"/><text style="dominant-baseline: middle; font-size: 10.2px;" transform="translate(65.25,145.18359375)" y="0" x="0" id="text-entity-LIVENESSCHECKS-7a0d434b-9e1b-5b09-a3e5-c7eb1bb6bab0-attr-6-name" class="er entityLabel">created_at</text><rect height="22" width="21.5625" y="134.18359375" x="133.171875" class="er attributeBoxEven"/><text style="dominant-baseline: middle; font-size: 10.2px;" transform="translate(138.171875,145.18359375)" y="0" x="0" id="text-entity-LIVENESSCHECKS-7a0d434b-9e1b-5b09-a3e5-c7eb1bb6bab0-attr-6-key" class="er entityLabel"/><rect height="22.091796875" width="60.25" y="156.18359375" x="0" class="er attributeBoxOdd"/><text style="dominant-baseline: middle; font-size: 10.2px;" transform="translate(5,167.2294921875)" y="0" x="0" id="text-entity-LIVENESSCHECKS-7a0d434b-9e1b-5b09-a3e5-c7eb1bb6bab0-attr-7-type" class="er entityLabel">TIMESTAMP</text><rect height="22.091796875" width="72.921875" y="156.18359375" x="60.25" class="er attributeBoxOdd"/><text style="dominant-baseline: middle; font-size: 10.2px;" transform="translate(65.25,167.2294921875)" y="0" x="0" id="text-entity-LIVENESSCHECKS-7a0d434b-9e1b-5b09-a3e5-c7eb1bb6bab0-attr-7-name" class="er entityLabel">updated_at</text><rect height="22.091796875" width="21.5625" y="156.18359375" x="133.171875" class="er attributeBoxOdd"/><text style="dominant-baseline: middle; font-size: 10.2px;" transform="translate(138.171875,167.2294921875)" y="0" x="0" id="text-entity-LIVENESSCHECKS-7a0d434b-9e1b-5b09-a3e5-c7eb1bb6bab0-attr-7-key" class="er entityLabel"/></g><g transform="translate(274.734375,965.1751861572266 )" id="entity-AMLCHECKS-a3eedaec-48d5-5bc8-8150-166e33595ccd"><rect height="134.18359375" width="154.734375" y="0" x="0" class="er entityBox"/><text style="dominant-baseline: middle; text-anchor: middle; font-size: 12px;" transform="translate(77.3671875,12)" y="0" x="0" id="text-entity-AMLCHECKS-a3eedaec-48d5-5bc8-8150-166e33595ccd" class="er entityLabel">AML_CHECKS</text><rect height="22" width="60.25" y="24" x="0" class="er attributeBoxOdd"/><text style="dominant-baseline: middle; font-size: 10.2px;" transform="translate(5,35)" y="0" x="0" id="text-entity-AMLCHECKS-a3eedaec-48d5-5bc8-8150-166e33595ccd-attr-1-type" class="er entityLabel">UUID</text><rect height="22" width="72.921875" y="24" x="60.25" class="er attributeBoxOdd"/><text style="dominant-baseline: middle; font-size: 10.2px;" transform="translate(65.25,35)" y="0" x="0" id="text-entity-AMLCHECKS-a3eedaec-48d5-5bc8-8150-166e33595ccd-attr-1-name" class="er entityLabel">id</text><rect height="22" width="21.5625" y="24" x="133.171875" class="er attributeBoxOdd"/><text style="dominant-baseline: middle; font-size: 10.2px;" transform="translate(138.171875,35)" y="0" x="0" id="text-entity-AMLCHECKS-a3eedaec-48d5-5bc8-8150-166e33595ccd-attr-1-key" class="er entityLabel">PK</text><rect height="22" width="60.25" y="46" x="0" class="er attributeBoxEven"/><text style="dominant-baseline: middle; font-size: 10.2px;" transform="translate(5,57)" y="0" x="0" id="text-entity-AMLCHECKS-a3eedaec-48d5-5bc8-8150-166e33595ccd-attr-2-type" class="er entityLabel">UUID</text><rect height="22" width="72.921875" y="46" x="60.25" class="er attributeBoxEven"/><text style="dominant-baseline: middle; font-size: 10.2px;" transform="translate(65.25,57)" y="0" x="0" id="text-entity-AMLCHECKS-a3eedaec-48d5-5bc8-8150-166e33595ccd-attr-2-name" class="er entityLabel">submission_id</text><rect height="22" width="21.5625" y="46" x="133.171875" class="er attributeBoxEven"/><text style="dominant-baseline: middle; font-size: 10.2px;" transform="translate(138.171875,57)" y="0" x="0" id="text-entity-AMLCHECKS-a3eedaec-48d5-5bc8-8150-166e33595ccd-attr-2-key" class="er entityLabel">FK</text><rect height="22.091796875" width="60.25" y="68" x="0" class="er attributeBoxOdd"/><text style="dominant-baseline: middle; font-size: 10.2px;" transform="translate(5,79.0458984375)" y="0" x="0" id="text-entity-AMLCHECKS-a3eedaec-48d5-5bc8-8150-166e33595ccd-attr-3-type" class="er entityLabel">BOOLEAN</text><rect height="22.091796875" width="72.921875" y="68" x="60.25" class="er attributeBoxOdd"/><text style="dominant-baseline: middle; font-size: 10.2px;" transform="translate(65.25,79.0458984375)" y="0" x="0" id="text-entity-AMLCHECKS-a3eedaec-48d5-5bc8-8150-166e33595ccd-attr-3-name" class="er entityLabel">passed</text><rect height="22.091796875" width="21.5625" y="68" x="133.171875" class="er attributeBoxOdd"/><text style="dominant-baseline: middle; font-size: 10.2px;" transform="translate(138.171875,79.0458984375)" y="0" x="0" id="text-entity-AMLCHECKS-a3eedaec-48d5-5bc8-8150-166e33595ccd-attr-3-key" class="er entityLabel"/><rect height="22" width="60.25" y="90.091796875" x="0" class="er attributeBoxEven"/><text style="dominant-baseline: middle; font-size: 10.2px;" transform="translate(5,101.091796875)" y="0" x="0" id="text-entity-AMLCHECKS-a3eedaec-48d5-5bc8-8150-166e33595ccd-attr-4-type" class="er entityLabel">TIMESTAMP</text><rect height="22" width="72.921875" y="90.091796875" x="60.25" class="er attributeBoxEven"/><text style="dominant-baseline: middle; font-size: 10.2px;" transform="translate(65.25,101.091796875)" y="0" x="0" id="text-entity-AMLCHECKS-a3eedaec-48d5-5bc8-8150-166e33595ccd-attr-4-name" class="er entityLabel">created_at</text><rect height="22" width="21.5625" y="90.091796875" x="133.171875" class="er attributeBoxEven"/><text style="dominant-baseline: middle; font-size: 10.2px;" transform="translate(138.171875,101.091796875)" y="0" x="0" id="text-entity-AMLCHECKS-a3eedaec-48d5-5bc8-8150-166e33595ccd-attr-4-key" class="er entityLabel"/><rect height="22.091796875" width="60.25" y="112.091796875" x="0" class="er attributeBoxOdd"/><text style="dominant-baseline: middle; font-size: 10.2px;" transform="translate(5,123.1376953125)" y="0" x="0" id="text-entity-AMLCHECKS-a3eedaec-48d5-5bc8-8150-166e33595ccd-attr-5-type" class="er entityLabel">TIMESTAMP</text><rect height="22.091796875" width="72.921875" y="112.091796875" x="60.25" class="er attributeBoxOdd"/><text style="dominant-baseline: middle; font-size: 10.2px;" transform="translate(65.25,123.1376953125)" y="0" x="0" id="text-entity-AMLCHECKS-a3eedaec-48d5-5bc8-8150-166e33595ccd-attr-5-name" class="er entityLabel">updated_at</text><rect height="22.091796875" width="21.5625" y="112.091796875" x="133.171875" class="er attributeBoxOdd"/><text style="dominant-baseline: middle; font-size: 10.2px;" transform="translate(138.171875,123.1376953125)" y="0" x="0" id="text-entity-AMLCHECKS-a3eedaec-48d5-5bc8-8150-166e33595ccd-attr-5-key" class="er entityLabel"/></g><g transform="translate(529.46875,965.1751861572266 )" id="entity-CFTCHECKS-8a06da94-4492-5be3-a7db-6924d0e706bc"><rect height="134.18359375" width="154.734375" y="0" x="0" class="er entityBox"/><text style="dominant-baseline: middle; text-anchor: middle; font-size: 12px;" transform="translate(77.3671875,12)" y="0" x="0" id="text-entity-CFTCHECKS-8a06da94-4492-5be3-a7db-6924d0e706bc" class="er entityLabel">CFT_CHECKS</text><rect height="22" width="60.25" y="24" x="0" class="er attributeBoxOdd"/><text style="dominant-baseline: middle; font-size: 10.2px;" transform="translate(5,35)" y="0" x="0" id="text-entity-CFTCHECKS-8a06da94-4492-5be3-a7db-6924d0e706bc-attr-1-type" class="er entityLabel">UUID</text><rect height="22" width="72.921875" y="24" x="60.25" class="er attributeBoxOdd"/><text style="dominant-baseline: middle; font-size: 10.2px;" transform="translate(65.25,35)" y="0" x="0" id="text-entity-CFTCHECKS-8a06da94-4492-5be3-a7db-6924d0e706bc-attr-1-name" class="er entityLabel">id</text><rect height="22" width="21.5625" y="24" x="133.171875" class="er attributeBoxOdd"/><text style="dominant-baseline: middle; font-size: 10.2px;" transform="translate(138.171875,35)" y="0" x="0" id="text-entity-CFTCHECKS-8a06da94-4492-5be3-a7db-6924d0e706bc-attr-1-key" class="er entityLabel">PK</text><rect height="22" width="60.25" y="46" x="0" class="er attributeBoxEven"/><text style="dominant-baseline: middle; font-size: 10.2px;" transform="translate(5,57)" y="0" x="0" id="text-entity-CFTCHECKS-8a06da94-4492-5be3-a7db-6924d0e706bc-attr-2-type" class="er entityLabel">UUID</text><rect height="22" width="72.921875" y="46" x="60.25" class="er attributeBoxEven"/><text style="dominant-baseline: middle; font-size: 10.2px;" transform="translate(65.25,57)" y="0" x="0" id="text-entity-CFTCHECKS-8a06da94-4492-5be3-a7db-6924d0e706bc-attr-2-name" class="er entityLabel">submission_id</text><rect height="22" width="21.5625" y="46" x="133.171875" class="er attributeBoxEven"/><text style="dominant-baseline: middle; font-size: 10.2px;" transform="translate(138.171875,57)" y="0" x="0" id="text-entity-CFTCHECKS-8a06da94-4492-5be3-a7db-6924d0e706bc-attr-2-key" class="er entityLabel">FK</text><rect height="22.091796875" width="60.25" y="68" x="0" class="er attributeBoxOdd"/><text style="dominant-baseline: middle; font-size: 10.2px;" transform="translate(5,79.0458984375)" y="0" x="0" id="text-entity-CFTCHECKS-8a06da94-4492-5be3-a7db-6924d0e706bc-attr-3-type" class="er entityLabel">BOOLEAN</text><rect height="22.091796875" width="72.921875" y="68" x="60.25" class="er attributeBoxOdd"/><text style="dominant-baseline: middle; font-size: 10.2px;" transform="translate(65.25,79.0458984375)" y="0" x="0" id="text-entity-CFTCHECKS-8a06da94-4492-5be3-a7db-6924d0e706bc-attr-3-name" class="er entityLabel">passed</text><rect height="22.091796875" width="21.5625" y="68" x="133.171875" class="er attributeBoxOdd"/><text style="dominant-baseline: middle; font-size: 10.2px;" transform="translate(138.171875,79.0458984375)" y="0" x="0" id="text-entity-CFTCHECKS-8a06da94-4492-5be3-a7db-6924d0e706bc-attr-3-key" class="er entityLabel"/><rect height="22" width="60.25" y="90.091796875" x="0" class="er attributeBoxEven"/><text style="dominant-baseline: middle; font-size: 10.2px;" transform="translate(5,101.091796875)" y="0" x="0" id="text-entity-CFTCHECKS-8a06da94-4492-5be3-a7db-6924d0e706bc-attr-4-type" class="er entityLabel">TIMESTAMP</text><rect height="22" width="72.921875" y="90.091796875" x="60.25" class="er attributeBoxEven"/><text style="dominant-baseline: middle; font-size: 10.2px;" transform="translate(65.25,101.091796875)" y="0" x="0" id="text-entity-CFTCHECKS-8a06da94-4492-5be3-a7db-6924d0e706bc-attr-4-name" class="er entityLabel">created_at</text><rect height="22" width="21.5625" y="90.091796875" x="133.171875" class="er attributeBoxEven"/><text style="dominant-baseline: middle; font-size: 10.2px;" transform="translate(138.171875,101.091796875)" y="0" x="0" id="text-entity-CFTCHECKS-8a06da94-4492-5be3-a7db-6924d0e706bc-attr-4-key" class="er entityLabel"/><rect height="22.091796875" width="60.25" y="112.091796875" x="0" class="er attributeBoxOdd"/><text style="dominant-baseline: middle; font-size: 10.2px;" transform="translate(5,123.1376953125)" y="0" x="0" id="text-entity-CFTCHECKS-8a06da94-4492-5be3-a7db-6924d0e706bc-attr-5-type" class="er entityLabel">TIMESTAMP</text><rect height="22.091796875" width="72.921875" y="112.091796875" x="60.25" class="er attributeBoxOdd"/><text style="dominant-baseline: middle; font-size: 10.2px;" transform="translate(65.25,123.1376953125)" y="0" x="0" id="text-entity-CFTCHECKS-8a06da94-4492-5be3-a7db-6924d0e706bc-attr-5-name" class="er entityLabel">updated_at</text><rect height="22.091796875" width="21.5625" y="112.091796875" x="133.171875" class="er attributeBoxOdd"/><text style="dominant-baseline: middle; font-size: 10.2px;" transform="translate(138.171875,123.1376953125)" y="0" x="0" id="text-entity-CFTCHECKS-8a06da94-4492-5be3-a7db-6924d0e706bc-attr-5-key" class="er entityLabel"/></g><rect height="14" width="17.71875" y="285.2749938964844" x="343.24261474609375" class="er relationshipLabelBox"/><text style="text-anchor: middle; dominant-baseline: middle; font-size: 12px;" y="292.2749938964844" x="352.10198974609375" id="rel1" class="er relationshipLabel">has</text><rect height="14" width="17.71875" y="651.906005859375" x="343.24261474609375" class="er relationshipLabelBox"/><text style="text-anchor: middle; dominant-baseline: middle; font-size: 12px;" y="658.906005859375" x="352.10198974609375" id="rel2" class="er relationshipLabel">has</text><rect height="14" width="17.71875" y="861.8699951171875" x="146.24110412597656" class="er relationshipLabelBox"/><text style="text-anchor: middle; dominant-baseline: middle; font-size: 12px;" y="868.8699951171875" x="155.10047912597656" id="rel3" class="er relationshipLabel">has</text><rect height="14" width="17.71875" y="897.1519775390625" x="343.24261474609375" class="er relationshipLabelBox"/><text style="text-anchor: middle; dominant-baseline: middle; font-size: 12px;" y="904.1519775390625" x="352.10198974609375" id="rel4" class="er relationshipLabel">has</text><rect height="14" width="17.71875" y="867.6292724609375" x="547.91796875" class="er relationshipLabelBox"/><text style="text-anchor: middle; dominant-baseline: middle; font-size: 12px;" y="874.6292724609375" x="556.77734375" id="rel5" class="er relationshipLabel">has</text></svg>