<svg aria-roledescription="er" role="graphics-document document" viewBox="0 0 187.46875 1146.91796875" style="max-width: 187.469px; background-color: white;" xmlns:xlink="http://www.w3.org/1999/xlink" xmlns="http://www.w3.org/2000/svg" width="100%" id="my-svg"><style>#my-svg{font-family:"trebuchet ms",verdana,arial,sans-serif;font-size:16px;fill:#333;}#my-svg .error-icon{fill:#552222;}#my-svg .error-text{fill:#552222;stroke:#552222;}#my-svg .edge-thickness-normal{stroke-width:1px;}#my-svg .edge-thickness-thick{stroke-width:3.5px;}#my-svg .edge-pattern-solid{stroke-dasharray:0;}#my-svg .edge-thickness-invisible{stroke-width:0;fill:none;}#my-svg .edge-pattern-dashed{stroke-dasharray:3;}#my-svg .edge-pattern-dotted{stroke-dasharray:2;}#my-svg .marker{fill:#333333;stroke:#333333;}#my-svg .marker.cross{stroke:#333333;}#my-svg svg{font-family:"trebuchet ms",verdana,arial,sans-serif;font-size:16px;}#my-svg p{margin:0;}#my-svg .entityBox{fill:#ECECFF;stroke:#9370DB;}#my-svg .attributeBoxOdd{fill:#ffffff;stroke:#9370DB;}#my-svg .attributeBoxEven{fill:#f2f2f2;stroke:#9370DB;}#my-svg .relationshipLabelBox{fill:hsl(80, 100%, 96.2745098039%);opacity:0.7;background-color:hsl(80, 100%, 96.2745098039%);}#my-svg .relationshipLabelBox rect{opacity:0.5;}#my-svg .relationshipLine{stroke:#333333;}#my-svg .entityTitleText{text-anchor:middle;font-size:18px;fill:#333;}#my-svg #MD_PARENT_START{fill:#f5f5f5!important;stroke:#333333!important;stroke-width:1;}#my-svg #MD_PARENT_END{fill:#f5f5f5!important;stroke:#333333!important;stroke-width:1;}#my-svg :root{--mermaid-font-family:"trebuchet ms",verdana,arial,sans-serif;}</style><g/><defs><marker orient="auto" markerHeight="240" markerWidth="190" refY="7" refX="0" id="MD_PARENT_START"><path d="M 18,7 L9,13 L1,7 L9,1 Z"/></marker></defs><defs><marker orient="auto" markerHeight="28" markerWidth="20" refY="7" refX="19" id="MD_PARENT_END"><path d="M 18,7 L9,13 L1,7 L9,1 Z"/></marker></defs><defs><marker orient="auto" markerHeight="18" markerWidth="18" refY="9" refX="0" id="ONLY_ONE_START"><path d="M9,0 L9,18 M15,0 L15,18" fill="none" stroke="gray"/></marker></defs><defs><marker orient="auto" markerHeight="18" markerWidth="18" refY="9" refX="18" id="ONLY_ONE_END"><path d="M3,0 L3,18 M9,0 L9,18" fill="none" stroke="gray"/></marker></defs><defs><marker orient="auto" markerHeight="18" markerWidth="30" refY="9" refX="0" id="ZERO_OR_ONE_START"><circle r="6" cy="9" cx="21" fill="white" stroke="gray"/><path d="M9,0 L9,18" fill="none" stroke="gray"/></marker></defs><defs><marker orient="auto" markerHeight="18" markerWidth="30" refY="9" refX="30" id="ZERO_OR_ONE_END"><circle r="6" cy="9" cx="9" fill="white" stroke="gray"/><path d="M21,0 L21,18" fill="none" stroke="gray"/></marker></defs><defs><marker orient="auto" markerHeight="36" markerWidth="45" refY="18" refX="18" id="ONE_OR_MORE_START"><path d="M0,18 Q 18,0 36,18 Q 18,36 0,18 M42,9 L42,27" fill="none" stroke="gray"/></marker></defs><defs><marker orient="auto" markerHeight="36" markerWidth="45" refY="18" refX="27" id="ONE_OR_MORE_END"><path d="M3,9 L3,27 M9,18 Q27,0 45,18 Q27,36 9,18" fill="none" stroke="gray"/></marker></defs><defs><marker orient="auto" markerHeight="36" markerWidth="57" refY="18" refX="18" id="ZERO_OR_MORE_START"><circle r="6" cy="18" cx="48" fill="white" stroke="gray"/><path d="M0,18 Q18,0 36,18 Q18,36 0,18" fill="none" stroke="gray"/></marker></defs><defs><marker orient="auto" markerHeight="36" markerWidth="57" refY="18" refX="39" id="ZERO_OR_MORE_END"><circle r="6" cy="18" cx="9" fill="white" stroke="gray"/><path d="M21,18 Q39,0 57,18 Q39,36 21,18" fill="none" stroke="gray"/></marker></defs><path style="stroke: gray; fill: none;" marker-start="url(#ONLY_ONE_START)" marker-end="url(#ZERO_OR_MORE_END)" d="M93.734,110.184L93.734,118.517C93.734,126.85,93.734,143.517,93.734,160.184C93.734,176.85,93.734,193.517,93.734,201.85L93.734,210.184" class="er relationshipLine"/><path style="stroke: gray; fill: none;" marker-start="url(#ONLY_ONE_START)" marker-end="url(#ONE_OR_MORE_END)" d="M93.734,322.275L93.734,330.609C93.734,338.942,93.734,355.609,93.734,372.275C93.734,388.942,93.734,405.609,93.734,413.942L93.734,422.275" class="er relationshipLine"/><path style="stroke: gray; fill: none;" marker-start="url(#ONLY_ONE_START)" marker-end="url(#ONE_OR_MORE_END)" d="M93.734,512.367L93.734,520.701C93.734,529.034,93.734,545.701,93.734,562.367C93.734,579.034,93.734,595.701,93.734,604.034L93.734,612.367" class="er relationshipLine"/><path style="stroke: gray; fill: none;" marker-start="url(#ONLY_ONE_START)" marker-end="url(#ONLY_ONE_END)" d="M93.734,724.643L93.734,732.976C93.734,741.309,93.734,757.976,93.734,774.643C93.734,791.309,93.734,807.976,93.734,816.309L93.734,824.643" class="er relationshipLine"/><path style="stroke: gray; fill: none;" marker-start="url(#ONLY_ONE_START)" marker-end="url(#ONLY_ONE_END)" d="M93.734,914.826L93.734,923.16C93.734,931.493,93.734,948.16,93.734,964.826C93.734,981.493,93.734,998.16,93.734,1006.493L93.734,1014.826" class="er relationshipLine"/><g transform="translate(43.734375,20 )" id="entity-RESEARCHER-8195d6cd-f75f-5532-a711-bdac80b6bd7d"><rect height="90.18359565734863" width="100" y="0" x="0" class="er entityBox"/><text style="dominant-baseline: middle; text-anchor: middle; font-size: 12px;" transform="translate(50,12)" y="0" x="0" id="text-entity-RESEARCHER-8195d6cd-f75f-5532-a711-bdac80b6bd7d" class="er entityLabel">RESEARCHER</text><rect height="22" width="50.21875" y="24" x="0" class="er attributeBoxOdd"/><text style="dominant-baseline: middle; font-size: 10.2px;" transform="translate(5,35)" y="0" x="0" id="text-entity-RESEARCHER-8195d6cd-f75f-5532-a711-bdac80b6bd7d-attr-1-type" class="er entityLabel">int</text><rect height="22" width="49.78125" y="24" x="50.21875" class="er attributeBoxOdd"/><text style="dominant-baseline: middle; font-size: 10.2px;" transform="translate(55.21875,35)" y="0" x="0" id="text-entity-RESEARCHER-8195d6cd-f75f-5532-a711-bdac80b6bd7d-attr-1-name" class="er entityLabel">id</text><rect height="22.091797828674316" width="50.21875" y="46" x="0" class="er attributeBoxEven"/><text style="dominant-baseline: middle; font-size: 10.2px;" transform="translate(5,57.04589891433716)" y="0" x="0" id="text-entity-RESEARCHER-8195d6cd-f75f-5532-a711-bdac80b6bd7d-attr-2-type" class="er entityLabel">string</text><rect height="22.091797828674316" width="49.78125" y="46" x="50.21875" class="er attributeBoxEven"/><text style="dominant-baseline: middle; font-size: 10.2px;" transform="translate(55.21875,57.04589891433716)" y="0" x="0" id="text-entity-RESEARCHER-8195d6cd-f75f-5532-a711-bdac80b6bd7d-attr-2-name" class="er entityLabel">name</text><rect height="22.091797828674316" width="50.21875" y="68.09179782867432" x="0" class="er attributeBoxOdd"/><text style="dominant-baseline: middle; font-size: 10.2px;" transform="translate(5,79.13769674301147)" y="0" x="0" id="text-entity-RESEARCHER-8195d6cd-f75f-5532-a711-bdac80b6bd7d-attr-3-type" class="er entityLabel">string</text><rect height="22.091797828674316" width="49.78125" y="68.09179782867432" x="50.21875" class="er attributeBoxOdd"/><text style="dominant-baseline: middle; font-size: 10.2px;" transform="translate(55.21875,79.13769674301147)" y="0" x="0" id="text-entity-RESEARCHER-8195d6cd-f75f-5532-a711-bdac80b6bd7d-attr-3-name" class="er entityLabel">email</text></g><g transform="translate(39.5390625,210.18359375 )" id="entity-SURVEY-60a4e23e-e777-5af2-b8ab-6de1ab6fbbd8"><rect height="112.09179782867432" width="108.390625" y="0" x="0" class="er entityBox"/><text style="dominant-baseline: middle; text-anchor: middle; font-size: 12px;" transform="translate(54.1953125,12)" y="0" x="0" id="text-entity-SURVEY-60a4e23e-e777-5af2-b8ab-6de1ab6fbbd8" class="er entityLabel">SURVEY</text><rect height="22" width="35.75" y="24" x="0" class="er attributeBoxOdd"/><text style="dominant-baseline: middle; font-size: 10.2px;" transform="translate(5,35)" y="0" x="0" id="text-entity-SURVEY-60a4e23e-e777-5af2-b8ab-6de1ab6fbbd8-attr-1-type" class="er entityLabel">int</text><rect height="22" width="72.640625" y="24" x="35.75" class="er attributeBoxOdd"/><text style="dominant-baseline: middle; font-size: 10.2px;" transform="translate(40.75,35)" y="0" x="0" id="text-entity-SURVEY-60a4e23e-e777-5af2-b8ab-6de1ab6fbbd8-attr-1-name" class="er entityLabel">id</text><rect height="22.091797828674316" width="35.75" y="46" x="0" class="er attributeBoxEven"/><text style="dominant-baseline: middle; font-size: 10.2px;" transform="translate(5,57.04589891433716)" y="0" x="0" id="text-entity-SURVEY-60a4e23e-e777-5af2-b8ab-6de1ab6fbbd8-attr-2-type" class="er entityLabel">string</text><rect height="22.091797828674316" width="72.640625" y="46" x="35.75" class="er attributeBoxEven"/><text style="dominant-baseline: middle; font-size: 10.2px;" transform="translate(40.75,57.04589891433716)" y="0" x="0" id="text-entity-SURVEY-60a4e23e-e777-5af2-b8ab-6de1ab6fbbd8-attr-2-name" class="er entityLabel">title</text><rect height="22" width="35.75" y="68.09179782867432" x="0" class="er attributeBoxOdd"/><text style="dominant-baseline: middle; font-size: 10.2px;" transform="translate(5,79.09179782867432)" y="0" x="0" id="text-entity-SURVEY-60a4e23e-e777-5af2-b8ab-6de1ab6fbbd8-attr-3-type" class="er entityLabel">date</text><rect height="22" width="72.640625" y="68.09179782867432" x="35.75" class="er attributeBoxOdd"/><text style="dominant-baseline: middle; font-size: 10.2px;" transform="translate(40.75,79.09179782867432)" y="0" x="0" id="text-entity-SURVEY-60a4e23e-e777-5af2-b8ab-6de1ab6fbbd8-attr-3-name" class="er entityLabel">created_at</text><rect height="22" width="35.75" y="90.09179782867432" x="0" class="er attributeBoxEven"/><text style="dominant-baseline: middle; font-size: 10.2px;" transform="translate(5,101.09179782867432)" y="0" x="0" id="text-entity-SURVEY-60a4e23e-e777-5af2-b8ab-6de1ab6fbbd8-attr-4-type" class="er entityLabel">int</text><rect height="22" width="72.640625" y="90.09179782867432" x="35.75" class="er attributeBoxEven"/><text style="dominant-baseline: middle; font-size: 10.2px;" transform="translate(40.75,101.09179782867432)" y="0" x="0" id="text-entity-SURVEY-60a4e23e-e777-5af2-b8ab-6de1ab6fbbd8-attr-4-name" class="er entityLabel">researcher_id</text></g><g transform="translate(42.9765625,422.275390625 )" id="entity-RESPONSE-8fa7fdf9-0d75-5955-8028-f6c38c016eed"><rect height="90.09179782867432" width="101.515625" y="0" x="0" class="er entityBox"/><text style="dominant-baseline: middle; text-anchor: middle; font-size: 12px;" transform="translate(50.7578125,12)" y="0" x="0" id="text-entity-RESPONSE-8fa7fdf9-0d75-5955-8028-f6c38c016eed" class="er entityLabel">RESPONSE</text><rect height="22" width="30.65625" y="24" x="0" class="er attributeBoxOdd"/><text style="dominant-baseline: middle; font-size: 10.2px;" transform="translate(5,35)" y="0" x="0" id="text-entity-RESPONSE-8fa7fdf9-0d75-5955-8028-f6c38c016eed-attr-1-type" class="er entityLabel">int</text><rect height="22" width="70.859375" y="24" x="30.65625" class="er attributeBoxOdd"/><text style="dominant-baseline: middle; font-size: 10.2px;" transform="translate(35.65625,35)" y="0" x="0" id="text-entity-RESPONSE-8fa7fdf9-0d75-5955-8028-f6c38c016eed-attr-1-name" class="er entityLabel">id</text><rect height="22.091797828674316" width="30.65625" y="46" x="0" class="er attributeBoxEven"/><text style="dominant-baseline: middle; font-size: 10.2px;" transform="translate(5,57.04589891433716)" y="0" x="0" id="text-entity-RESPONSE-8fa7fdf9-0d75-5955-8028-f6c38c016eed-attr-2-type" class="er entityLabel">int</text><rect height="22.091797828674316" width="70.859375" y="46" x="30.65625" class="er attributeBoxEven"/><text style="dominant-baseline: middle; font-size: 10.2px;" transform="translate(35.65625,57.04589891433716)" y="0" x="0" id="text-entity-RESPONSE-8fa7fdf9-0d75-5955-8028-f6c38c016eed-attr-2-name" class="er entityLabel">survey_id</text><rect height="22" width="30.65625" y="68.09179782867432" x="0" class="er attributeBoxOdd"/><text style="dominant-baseline: middle; font-size: 10.2px;" transform="translate(5,79.09179782867432)" y="0" x="0" id="text-entity-RESPONSE-8fa7fdf9-0d75-5955-8028-f6c38c016eed-attr-3-type" class="er entityLabel">date</text><rect height="22" width="70.859375" y="68.09179782867432" x="30.65625" class="er attributeBoxOdd"/><text style="dominant-baseline: middle; font-size: 10.2px;" transform="translate(35.65625,79.09179782867432)" y="0" x="0" id="text-entity-RESPONSE-8fa7fdf9-0d75-5955-8028-f6c38c016eed-attr-3-name" class="er entityLabel">submitted_at</text></g><g transform="translate(43.734375,612.3671875 )" id="entity-DATAPOINT-16d36fb5-73cd-5b28-aae6-f13e9254d5f2"><rect height="112.27539348602295" width="100" y="0" x="0" class="er entityBox"/><text style="dominant-baseline: middle; text-anchor: middle; font-size: 12px;" transform="translate(50,12)" y="0" x="0" id="text-entity-DATAPOINT-16d36fb5-73cd-5b28-aae6-f13e9254d5f2" class="er entityLabel">DATA_POINT</text><rect height="22" width="35.859375" y="24" x="0" class="er attributeBoxOdd"/><text style="dominant-baseline: middle; font-size: 10.2px;" transform="translate(5,35)" y="0" x="0" id="text-entity-DATAPOINT-16d36fb5-73cd-5b28-aae6-f13e9254d5f2-attr-1-type" class="er entityLabel">int</text><rect height="22" width="64.140625" y="24" x="35.859375" class="er attributeBoxOdd"/><text style="dominant-baseline: middle; font-size: 10.2px;" transform="translate(40.859375,35)" y="0" x="0" id="text-entity-DATAPOINT-16d36fb5-73cd-5b28-aae6-f13e9254d5f2-attr-1-name" class="er entityLabel">id</text><rect height="22.091797828674316" width="35.859375" y="46" x="0" class="er attributeBoxEven"/><text style="dominant-baseline: middle; font-size: 10.2px;" transform="translate(5,57.04589891433716)" y="0" x="0" id="text-entity-DATAPOINT-16d36fb5-73cd-5b28-aae6-f13e9254d5f2-attr-2-type" class="er entityLabel">int</text><rect height="22.091797828674316" width="64.140625" y="46" x="35.859375" class="er attributeBoxEven"/><text style="dominant-baseline: middle; font-size: 10.2px;" transform="translate(40.859375,57.04589891433716)" y="0" x="0" id="text-entity-DATAPOINT-16d36fb5-73cd-5b28-aae6-f13e9254d5f2-attr-2-name" class="er entityLabel">response_id</text><rect height="22.091797828674316" width="35.859375" y="68.09179782867432" x="0" class="er attributeBoxOdd"/><text style="dominant-baseline: middle; font-size: 10.2px;" transform="translate(5,79.13769674301147)" y="0" x="0" id="text-entity-DATAPOINT-16d36fb5-73cd-5b28-aae6-f13e9254d5f2-attr-3-type" class="er entityLabel">string</text><rect height="22.091797828674316" width="64.140625" y="68.09179782867432" x="35.859375" class="er attributeBoxOdd"/><text style="dominant-baseline: middle; font-size: 10.2px;" transform="translate(40.859375,79.13769674301147)" y="0" x="0" id="text-entity-DATAPOINT-16d36fb5-73cd-5b28-aae6-f13e9254d5f2-attr-3-name" class="er entityLabel">question</text><rect height="22.091797828674316" width="35.859375" y="90.18359565734863" x="0" class="er attributeBoxEven"/><text style="dominant-baseline: middle; font-size: 10.2px;" transform="translate(5,101.22949457168579)" y="0" x="0" id="text-entity-DATAPOINT-16d36fb5-73cd-5b28-aae6-f13e9254d5f2-attr-4-type" class="er entityLabel">string</text><rect height="22.091797828674316" width="64.140625" y="90.18359565734863" x="35.859375" class="er attributeBoxEven"/><text style="dominant-baseline: middle; font-size: 10.2px;" transform="translate(40.859375,101.22949457168579)" y="0" x="0" id="text-entity-DATAPOINT-16d36fb5-73cd-5b28-aae6-f13e9254d5f2-attr-4-name" class="er entityLabel">answer</text></g><g transform="translate(39.1484375,824.642578125 )" id="entity-HASH-1db4e7d4-94ae-5c65-8812-4ec5dccaf11f"><rect height="90.18359470367432" width="109.171875" y="0" x="0" class="er entityBox"/><text style="dominant-baseline: middle; text-anchor: middle; font-size: 12px;" transform="translate(54.5859375,12)" y="0" x="0" id="text-entity-HASH-1db4e7d4-94ae-5c65-8812-4ec5dccaf11f" class="er entityLabel">HASH</text><rect height="22" width="35.75" y="24" x="0" class="er attributeBoxOdd"/><text style="dominant-baseline: middle; font-size: 10.2px;" transform="translate(5,35)" y="0" x="0" id="text-entity-HASH-1db4e7d4-94ae-5c65-8812-4ec5dccaf11f-attr-1-type" class="er entityLabel">int</text><rect height="22" width="73.421875" y="24" x="35.75" class="er attributeBoxOdd"/><text style="dominant-baseline: middle; font-size: 10.2px;" transform="translate(40.75,35)" y="0" x="0" id="text-entity-HASH-1db4e7d4-94ae-5c65-8812-4ec5dccaf11f-attr-1-name" class="er entityLabel">id</text><rect height="22.091796875" width="35.75" y="46" x="0" class="er attributeBoxEven"/><text style="dominant-baseline: middle; font-size: 10.2px;" transform="translate(5,57.0458984375)" y="0" x="0" id="text-entity-HASH-1db4e7d4-94ae-5c65-8812-4ec5dccaf11f-attr-2-type" class="er entityLabel">int</text><rect height="22.091796875" width="73.421875" y="46" x="35.75" class="er attributeBoxEven"/><text style="dominant-baseline: middle; font-size: 10.2px;" transform="translate(40.75,57.0458984375)" y="0" x="0" id="text-entity-HASH-1db4e7d4-94ae-5c65-8812-4ec5dccaf11f-attr-2-name" class="er entityLabel">data_point_id</text><rect height="22.091797828674316" width="35.75" y="68.091796875" x="0" class="er attributeBoxOdd"/><text style="dominant-baseline: middle; font-size: 10.2px;" transform="translate(5,79.13769578933716)" y="0" x="0" id="text-entity-HASH-1db4e7d4-94ae-5c65-8812-4ec5dccaf11f-attr-3-type" class="er entityLabel">string</text><rect height="22.091797828674316" width="73.421875" y="68.091796875" x="35.75" class="er attributeBoxOdd"/><text style="dominant-baseline: middle; font-size: 10.2px;" transform="translate(40.75,79.13769578933716)" y="0" x="0" id="text-entity-HASH-1db4e7d4-94ae-5c65-8812-4ec5dccaf11f-attr-3-name" class="er entityLabel">hash_value</text></g><g transform="translate(20,1014.826171875 )" id="entity-BLOCKCHAINRECORD-300c1c5f-3acf-5f0f-a810-51155c2aa3f0"><rect height="112.09179782867432" width="147.46875" y="0" x="0" class="er entityBox"/><text style="dominant-baseline: middle; text-anchor: middle; font-size: 12px;" transform="translate(73.734375,12)" y="0" x="0" id="text-entity-BLOCKCHAINRECORD-300c1c5f-3acf-5f0f-a810-51155c2aa3f0" class="er entityLabel">BLOCKCHAIN_RECORD</text><rect height="22" width="53.8984375" y="24" x="0" class="er attributeBoxOdd"/><text style="dominant-baseline: middle; font-size: 10.2px;" transform="translate(5,35)" y="0" x="0" id="text-entity-BLOCKCHAINRECORD-300c1c5f-3acf-5f0f-a810-51155c2aa3f0-attr-1-type" class="er entityLabel">int</text><rect height="22" width="93.5703125" y="24" x="53.8984375" class="er attributeBoxOdd"/><text style="dominant-baseline: middle; font-size: 10.2px;" transform="translate(58.8984375,35)" y="0" x="0" id="text-entity-BLOCKCHAINRECORD-300c1c5f-3acf-5f0f-a810-51155c2aa3f0-attr-1-name" class="er entityLabel">id</text><rect height="22" width="53.8984375" y="46" x="0" class="er attributeBoxEven"/><text style="dominant-baseline: middle; font-size: 10.2px;" transform="translate(5,57)" y="0" x="0" id="text-entity-BLOCKCHAINRECORD-300c1c5f-3acf-5f0f-a810-51155c2aa3f0-attr-2-type" class="er entityLabel">int</text><rect height="22" width="93.5703125" y="46" x="53.8984375" class="er attributeBoxEven"/><text style="dominant-baseline: middle; font-size: 10.2px;" transform="translate(58.8984375,57)" y="0" x="0" id="text-entity-BLOCKCHAINRECORD-300c1c5f-3acf-5f0f-a810-51155c2aa3f0-attr-2-name" class="er entityLabel">hash_id</text><rect height="22.091797828674316" width="53.8984375" y="68" x="0" class="er attributeBoxOdd"/><text style="dominant-baseline: middle; font-size: 10.2px;" transform="translate(5,79.04589891433716)" y="0" x="0" id="text-entity-BLOCKCHAINRECORD-300c1c5f-3acf-5f0f-a810-51155c2aa3f0-attr-3-type" class="er entityLabel">string</text><rect height="22.091797828674316" width="93.5703125" y="68" x="53.8984375" class="er attributeBoxOdd"/><text style="dominant-baseline: middle; font-size: 10.2px;" transform="translate(58.8984375,79.04589891433716)" y="0" x="0" id="text-entity-BLOCKCHAINRECORD-300c1c5f-3acf-5f0f-a810-51155c2aa3f0-attr-3-name" class="er entityLabel">transaction_id</text><rect height="22" width="53.8984375" y="90.09179782867432" x="0" class="er attributeBoxEven"/><text style="dominant-baseline: middle; font-size: 10.2px;" transform="translate(5,101.09179782867432)" y="0" x="0" id="text-entity-BLOCKCHAINRECORD-300c1c5f-3acf-5f0f-a810-51155c2aa3f0-attr-4-type" class="er entityLabel">date</text><rect height="22" width="93.5703125" y="90.09179782867432" x="53.8984375" class="er attributeBoxEven"/><text style="dominant-baseline: middle; font-size: 10.2px;" transform="translate(58.8984375,101.09179782867432)" y="0" x="0" id="text-entity-BLOCKCHAINRECORD-300c1c5f-3acf-5f0f-a810-51155c2aa3f0-attr-4-name" class="er entityLabel">recorded_at</text></g><rect height="14" width="39.625" y="153.1840057373047" x="73.92150115966797" class="er relationshipLabelBox"/><text style="text-anchor: middle; dominant-baseline: middle; font-size: 12px;" y="160.1840057373047" x="93.73400115966797" id="rel1" class="er relationshipLabel">creates</text><rect height="14" width="17.71875" y="365.2749938964844" x="84.87462615966797" class="er relationshipLabelBox"/><text style="text-anchor: middle; dominant-baseline: middle; font-size: 12px;" y="372.2749938964844" x="93.73400115966797" id="rel2" class="er relationshipLabel">has</text><rect height="14" width="44.84375" y="555.3670043945312" x="71.31212615966797" class="er relationshipLabelBox"/><text style="text-anchor: middle; dominant-baseline: middle; font-size: 12px;" y="562.3670043945312" x="93.73400115966797" id="rel3" class="er relationshipLabel">contains</text><rect height="14" width="52.8125" y="767.6430053710938" x="67.32775115966797" class="er relationshipLabelBox"/><text style="text-anchor: middle; dominant-baseline: middle; font-size: 12px;" y="774.6430053710938" x="93.73400115966797" id="rel4" class="er relationshipLabel">generates</text><rect height="14" width="51.40625" y="957.8259887695312" x="68.03087615966797" class="er relationshipLabelBox"/><text style="text-anchor: middle; dominant-baseline: middle; font-size: 12px;" y="964.8259887695312" x="93.73400115966797" id="rel5" class="er relationshipLabel">stored_as</text></svg>