<svg aria-roledescription="class" role="graphics-document document" viewBox="0 0 604.9765625 1758" style="max-width: 604.977px; background-color: white;" class="classDiagram" xmlns:xlink="http://www.w3.org/1999/xlink" xmlns="http://www.w3.org/2000/svg" width="100%" id="my-svg"><style>#my-svg{font-family:"trebuchet ms",verdana,arial,sans-serif;font-size:16px;fill:#333;}#my-svg .error-icon{fill:#552222;}#my-svg .error-text{fill:#552222;stroke:#552222;}#my-svg .edge-thickness-normal{stroke-width:1px;}#my-svg .edge-thickness-thick{stroke-width:3.5px;}#my-svg .edge-pattern-solid{stroke-dasharray:0;}#my-svg .edge-thickness-invisible{stroke-width:0;fill:none;}#my-svg .edge-pattern-dashed{stroke-dasharray:3;}#my-svg .edge-pattern-dotted{stroke-dasharray:2;}#my-svg .marker{fill:#333333;stroke:#333333;}#my-svg .marker.cross{stroke:#333333;}#my-svg svg{font-family:"trebuchet ms",verdana,arial,sans-serif;font-size:16px;}#my-svg p{margin:0;}#my-svg g.classGroup text{fill:#9370DB;stroke:none;font-family:"trebuchet ms",verdana,arial,sans-serif;font-size:10px;}#my-svg g.classGroup text .title{font-weight:bolder;}#my-svg .nodeLabel,#my-svg .edgeLabel{color:#131300;}#my-svg .edgeLabel .label rect{fill:#ECECFF;}#my-svg .label text{fill:#131300;}#my-svg .labelBkg{background:#ECECFF;}#my-svg .edgeLabel .label span{background:#ECECFF;}#my-svg .classTitle{font-weight:bolder;}#my-svg .node rect,#my-svg .node circle,#my-svg .node ellipse,#my-svg .node polygon,#my-svg .node path{fill:#ECECFF;stroke:#9370DB;stroke-width:1px;}#my-svg .divider{stroke:#9370DB;stroke-width:1;}#my-svg g.clickable{cursor:pointer;}#my-svg g.classGroup rect{fill:#ECECFF;stroke:#9370DB;}#my-svg g.classGroup line{stroke:#9370DB;stroke-width:1;}#my-svg .classLabel .box{stroke:none;stroke-width:0;fill:#ECECFF;opacity:0.5;}#my-svg .classLabel .label{fill:#9370DB;font-size:10px;}#my-svg .relation{stroke:#333333;stroke-width:1;fill:none;}#my-svg .dashed-line{stroke-dasharray:3;}#my-svg .dotted-line{stroke-dasharray:1 2;}#my-svg #compositionStart,#my-svg .composition{fill:#333333!important;stroke:#333333!important;stroke-width:1;}#my-svg #compositionEnd,#my-svg .composition{fill:#333333!important;stroke:#333333!important;stroke-width:1;}#my-svg #dependencyStart,#my-svg .dependency{fill:#333333!important;stroke:#333333!important;stroke-width:1;}#my-svg #dependencyStart,#my-svg .dependency{fill:#333333!important;stroke:#333333!important;stroke-width:1;}#my-svg #extensionStart,#my-svg .extension{fill:transparent!important;stroke:#333333!important;stroke-width:1;}#my-svg #extensionEnd,#my-svg .extension{fill:transparent!important;stroke:#333333!important;stroke-width:1;}#my-svg #aggregationStart,#my-svg .aggregation{fill:transparent!important;stroke:#333333!important;stroke-width:1;}#my-svg #aggregationEnd,#my-svg .aggregation{fill:transparent!important;stroke:#333333!important;stroke-width:1;}#my-svg #lollipopStart,#my-svg .lollipop{fill:#ECECFF!important;stroke:#333333!important;stroke-width:1;}#my-svg #lollipopEnd,#my-svg .lollipop{fill:#ECECFF!important;stroke:#333333!important;stroke-width:1;}#my-svg .edgeTerminals{font-size:11px;line-height:initial;}#my-svg .classTitleText{text-anchor:middle;font-size:18px;fill:#333;}#my-svg :root{--mermaid-font-family:"trebuchet ms",verdana,arial,sans-serif;}</style><g><defs><marker orient="auto" markerHeight="240" markerWidth="190" refY="7" refX="18" class="marker aggregation class" id="my-svg_class-aggregationStart"><path d="M 18,7 L9,13 L1,7 L9,1 Z"/></marker></defs><defs><marker orient="auto" markerHeight="28" markerWidth="20" refY="7" refX="1" class="marker aggregation class" id="my-svg_class-aggregationEnd"><path d="M 18,7 L9,13 L1,7 L9,1 Z"/></marker></defs><defs><marker orient="auto" markerHeight="240" markerWidth="190" refY="7" refX="18" class="marker extension class" id="my-svg_class-extensionStart"><path d="M 1,7 L18,13 V 1 Z"/></marker></defs><defs><marker orient="auto" markerHeight="28" markerWidth="20" refY="7" refX="1" class="marker extension class" id="my-svg_class-extensionEnd"><path d="M 1,1 V 13 L18,7 Z"/></marker></defs><defs><marker orient="auto" markerHeight="240" markerWidth="190" refY="7" refX="18" class="marker composition class" id="my-svg_class-compositionStart"><path d="M 18,7 L9,13 L1,7 L9,1 Z"/></marker></defs><defs><marker orient="auto" markerHeight="28" markerWidth="20" refY="7" refX="1" class="marker composition class" id="my-svg_class-compositionEnd"><path d="M 18,7 L9,13 L1,7 L9,1 Z"/></marker></defs><defs><marker orient="auto" markerHeight="240" markerWidth="190" refY="7" refX="6" class="marker dependency class" id="my-svg_class-dependencyStart"><path d="M 5,7 L9,13 L1,7 L9,1 Z"/></marker></defs><defs><marker orient="auto" markerHeight="28" markerWidth="20" refY="7" refX="13" class="marker dependency class" id="my-svg_class-dependencyEnd"><path d="M 18,7 L9,13 L14,7 L9,1 Z"/></marker></defs><defs><marker orient="auto" markerHeight="240" markerWidth="190" refY="7" refX="13" class="marker lollipop class" id="my-svg_class-lollipopStart"><circle r="6" cy="7" cx="7" fill="transparent" stroke="black"/></marker></defs><defs><marker orient="auto" markerHeight="240" markerWidth="190" refY="7" refX="1" class="marker lollipop class" id="my-svg_class-lollipopEnd"><circle r="6" cy="7" cx="7" fill="transparent" stroke="black"/></marker></defs><g class="root"><g class="clusters"/><g class="edgePaths"><path style=";" class="edge-thickness-normal edge-pattern-solid relation" id="id_User_Workflow_1" d="M187.191,272L187.191,278.167C187.191,284.333,187.191,296.667,187.191,309C187.191,321.333,187.191,333.667,187.191,339.833L187.191,346"/><path style=";" class="edge-thickness-normal edge-pattern-solid relation" id="id_Workflow_Task_2" d="M262.494,730L264.913,736.167C267.332,742.333,272.169,754.667,274.587,767C277.006,779.333,277.006,791.667,277.006,797.833L277.006,804"/><path style=";" class="edge-thickness-normal edge-pattern-solid relation" id="id_Task_Action_3" d="M341.52,1140L343.888,1146.167C346.256,1152.333,350.992,1164.667,353.36,1177C355.729,1189.333,355.729,1201.667,355.729,1207.833L355.729,1214"/><path style=";" class="edge-thickness-normal edge-pattern-solid relation" id="id_Workflow_API_4" d="M106.427,730L103.833,736.167C101.239,742.333,96.051,754.667,93.457,795C90.863,835.333,90.863,903.667,90.863,972C90.863,1040.333,90.863,1108.667,90.863,1171C90.863,1233.333,90.863,1289.667,90.863,1346C90.863,1402.333,90.863,1458.667,95.734,1493C100.605,1527.333,110.346,1539.667,115.217,1545.833L120.088,1552"/><path style=";" class="edge-thickness-normal edge-pattern-solid relation" id="id_Task_API_5" d="M212.492,1140L210.124,1146.167C207.756,1152.333,203.019,1164.667,200.651,1199C198.283,1233.333,198.283,1289.667,198.283,1346C198.283,1402.333,198.283,1458.667,198.283,1493C198.283,1527.333,198.283,1539.667,198.283,1545.833L198.283,1552"/><path style=";" class="edge-thickness-normal edge-pattern-solid relation" id="id_Action_API_6" d="M355.729,1478L355.729,1484.167C355.729,1490.333,355.729,1502.667,348.589,1515C341.45,1527.333,327.172,1539.667,320.033,1545.833L312.894,1552"/></g><g class="edgeLabels"><g transform="translate(187.19140625, 309)" class="edgeLabel"><g transform="translate(-11.8125, -12)" class="label"><foreignObject height="24" width="23.625"><div class="labelBkg" xmlns="http://www.w3.org/1999/xhtml" style="display: table-cell; white-space: nowrap; line-height: 1.5; max-width: 200px; text-align: center;"><span class="edgeLabel" style=";display: inline-block"><p>has</p></span></div></foreignObject></g></g><g transform="translate(277.005859375, 767)" class="edgeLabel"><g transform="translate(-11.8125, -12)" class="label"><foreignObject height="24" width="23.625"><div class="labelBkg" xmlns="http://www.w3.org/1999/xhtml" style="display: table-cell; white-space: nowrap; line-height: 1.5; max-width: 200px; text-align: center;"><span class="edgeLabel" style=";display: inline-block"><p>has</p></span></div></foreignObject></g></g><g transform="translate(355.728515625, 1177)" class="edgeLabel"><g transform="translate(-11.8125, -12)" class="label"><foreignObject height="24" width="23.625"><div class="labelBkg" xmlns="http://www.w3.org/1999/xhtml" style="display: table-cell; white-space: nowrap; line-height: 1.5; max-width: 200px; text-align: center;"><span class="edgeLabel" style=";display: inline-block"><p>has</p></span></div></foreignObject></g></g><g transform="translate(90.86328125, 1177)" class="edgeLabel"><g transform="translate(-15.2109375, -12)" class="label"><foreignObject height="24" width="30.421875"><div class="labelBkg" xmlns="http://www.w3.org/1999/xhtml" style="display: table-cell; white-space: nowrap; line-height: 1.5; max-width: 200px; text-align: center;"><span class="edgeLabel" style=";display: inline-block"><p>uses</p></span></div></foreignObject></g></g><g transform="translate(198.283203125, 1346)" class="edgeLabel"><g transform="translate(-15.2109375, -12)" class="label"><foreignObject height="24" width="30.421875"><div class="labelBkg" xmlns="http://www.w3.org/1999/xhtml" style="display: table-cell; white-space: nowrap; line-height: 1.5; max-width: 200px; text-align: center;"><span class="edgeLabel" style=";display: inline-block"><p>uses</p></span></div></foreignObject></g></g><g transform="translate(355.728515625, 1515)" class="edgeLabel"><g transform="translate(-15.2109375, -12)" class="label"><foreignObject height="24" width="30.421875"><div class="labelBkg" xmlns="http://www.w3.org/1999/xhtml" style="display: table-cell; white-space: nowrap; line-height: 1.5; max-width: 200px; text-align: center;"><span class="edgeLabel" style=";display: inline-block"><p>uses</p></span></div></foreignObject></g></g><g transform="translate(172.1914081250001, 289.50000160714285)" class="edgeTerminals"><g transform="translate(0, 0)" class="inner"><foreignObject style="width: 9px; height: 12px;"><div xmlns="http://www.w3.org/1999/xhtml" style="display: inline-block; padding-right: 1px; white-space: nowrap;"><span style=";display: inline-block" class="edgeLabel">1</span></div></foreignObject></g></g><g transform="translate(254.91965795282044, 751.7686463647246)" class="edgeTerminals"><g transform="translate(0, 0)" class="inner"><foreignObject style="width: 9px; height: 12px;"><div xmlns="http://www.w3.org/1999/xhtml" style="display: inline-block; padding-right: 1px; white-space: nowrap;"><span style=";display: inline-block" class="edgeLabel">1</span></div></foreignObject></g></g><g transform="translate(333.7905900097525, 1161.714183037049)" class="edgeTerminals"><g transform="translate(0, 0)" class="inner"><foreignObject style="width: 9px; height: 12px;"><div xmlns="http://www.w3.org/1999/xhtml" style="display: inline-block; padding-right: 1px; white-space: nowrap;"><span style=";display: inline-block" class="edgeLabel">1</span></div></foreignObject></g></g><g transform="translate(85.81524051162869, 740.3148713477186)" class="edgeTerminals"><g transform="translate(0, 0)" class="inner"><foreignObject style="width: 9px; height: 12px;"><div xmlns="http://www.w3.org/1999/xhtml" style="display: inline-block; padding-right: 1px; white-space: nowrap;"><span style=";display: inline-block" class="edgeLabel">1</span></div></foreignObject></g></g><g transform="translate(192.2151130012011, 1150.9595074298184)" class="edgeTerminals"><g transform="translate(0, 0)" class="inner"><foreignObject style="width: 9px; height: 12px;"><div xmlns="http://www.w3.org/1999/xhtml" style="display: inline-block; padding-right: 1px; white-space: nowrap;"><span style=";display: inline-block" class="edgeLabel">1</span></div></foreignObject></g></g><g transform="translate(340.7285178125001, 1495.500001875)" class="edgeTerminals"><g transform="translate(0, 0)" class="inner"><foreignObject style="width: 9px; height: 12px;"><div xmlns="http://www.w3.org/1999/xhtml" style="display: inline-block; padding-right: 1px; white-space: nowrap;"><span style=";display: inline-block" class="edgeLabel">1</span></div></foreignObject></g></g><g transform="translate(197.19140812499992, 323.50000160714285)" class="edgeTerminals"><g transform="translate(0, 0)" class="inner"/><foreignObject style="width: 36px; height: 12px;"><div xmlns="http://www.w3.org/1999/xhtml" style="display: inline-block; padding-right: 1px; white-space: nowrap;"><span style=";display: inline-block" class="edgeLabel">1..*</span></div></foreignObject></g><g transform="translate(287.0058596875, 781.5000002678571)" class="edgeTerminals"><g transform="translate(0, 0)" class="inner"/><foreignObject style="width: 36px; height: 12px;"><div xmlns="http://www.w3.org/1999/xhtml" style="display: inline-block; padding-right: 1px; white-space: nowrap;"><span style=";display: inline-block" class="edgeLabel">1..*</span></div></foreignObject></g><g transform="translate(365.7285178124999, 1191.500001875)" class="edgeTerminals"><g transform="translate(0, 0)" class="inner"/><foreignObject style="width: 36px; height: 12px;"><div xmlns="http://www.w3.org/1999/xhtml" style="display: inline-block; padding-right: 1px; white-space: nowrap;"><span style=";display: inline-block" class="edgeLabel">1..*</span></div></foreignObject></g><g transform="translate(116.01191265671702, 1523.9696698978332)" class="edgeTerminals"><g transform="translate(0, 0)" class="inner"/><foreignObject style="width: 9px; height: 12px;"><div xmlns="http://www.w3.org/1999/xhtml" style="display: inline-block; padding-right: 1px; white-space: nowrap;"><span style=";display: inline-block" class="edgeLabel">1</span></div></foreignObject></g><g transform="translate(208.28320156249993, 1529.4999986607143)" class="edgeTerminals"><g transform="translate(0, 0)" class="inner"/><foreignObject style="width: 9px; height: 12px;"><div xmlns="http://www.w3.org/1999/xhtml" style="display: inline-block; padding-right: 1px; white-space: nowrap;"><span style=";display: inline-block" class="edgeLabel">1</span></div></foreignObject></g><g transform="translate(330.9428243265456, 1546.911941294033)" class="edgeTerminals"><g transform="translate(0, 0)" class="inner"/><foreignObject style="width: 9px; height: 12px;"><div xmlns="http://www.w3.org/1999/xhtml" style="display: inline-block; padding-right: 1px; white-space: nowrap;"><span style=";display: inline-block" class="edgeLabel">1</span></div></foreignObject></g></g><g class="nodes"><g transform="translate(187.19140625, 140)" id="classId-User-0" class="node default"><g class="basic label-container"><path style="" fill="#ECECFF" stroke-width="0" stroke="none" d="M-176.83984375 -132 L176.83984375 -132 L176.83984375 132 L-176.83984375 132"/><path style="" fill="none" stroke-width="1.3" stroke="#9370DB" d="M-176.83984375 -132 C-104.3682413215117 -132, -31.896638893023407 -132, 176.83984375 -132 M-176.83984375 -132 C-98.06639124366879 -132, -19.29293873733758 -132, 176.83984375 -132 M176.83984375 -132 C176.83984375 -77.56363394480287, 176.83984375 -23.127267889605747, 176.83984375 132 M176.83984375 -132 C176.83984375 -51.42602001383507, 176.83984375 29.147959972329858, 176.83984375 132 M176.83984375 132 C58.3676636857674 132, -60.104516378465206 132, -176.83984375 132 M176.83984375 132 C70.80602835527709 132, -35.227787039445815 132, -176.83984375 132 M-176.83984375 132 C-176.83984375 78.78685260476297, -176.83984375 25.573705209525954, -176.83984375 -132 M-176.83984375 132 C-176.83984375 49.37440483614017, -176.83984375 -33.251190327719655, -176.83984375 -132"/></g><g transform="translate(0, -108)" class="annotation-group text"/><g transform="translate(-16.8828125, -108)" class="label-group text"><g transform="translate(0,-12)" style="font-weight: bolder" class="label"><foreignObject height="24" width="33.765625"><div style="display: table-cell; white-space: nowrap; line-height: 1.5; max-width: 80px; text-align: center;" xmlns="http://www.w3.org/1999/xhtml"><span style="" class="nodeLabel markdown-node-label"><p>User</p></span></div></foreignObject></g></g><g transform="translate(-164.83984375, -60)" class="members-group text"><g transform="translate(0,-12)" style="" class="label"><foreignObject height="24" width="107.453125"><div style="display: table-cell; white-space: nowrap; line-height: 1.5; max-width: 149px; text-align: center;" xmlns="http://www.w3.org/1999/xhtml"><span style="" class="nodeLabel markdown-node-label"><p>+username: str</p></span></div></foreignObject></g><g transform="translate(0,12)" style="" class="label"><foreignObject height="24" width="77.828125"><div style="display: table-cell; white-space: nowrap; line-height: 1.5; max-width: 124px; text-align: center;" xmlns="http://www.w3.org/1999/xhtml"><span style="" class="nodeLabel markdown-node-label"><p>+email: str</p></span></div></foreignObject></g><g transform="translate(0,36)" style="" class="label"><foreignObject height="24" width="104.03125"><div style="display: table-cell; white-space: nowrap; line-height: 1.5; max-width: 148px; text-align: center;" xmlns="http://www.w3.org/1999/xhtml"><span style="" class="nodeLabel markdown-node-label"><p>+password: str</p></span></div></foreignObject></g></g><g transform="translate(-164.83984375, 36)" class="methods-group text"><g transform="translate(0,-12)" style="" class="label"><foreignObject height="24" width="312.796875"><div style="display: table-cell; white-space: nowrap; line-height: 1.5; max-width: 357px; text-align: center;" xmlns="http://www.w3.org/1999/xhtml"><span style="" class="nodeLabel markdown-node-label"><p>+create_workflow(data: dict) : -&gt; Workflow</p></span></div></foreignObject></g><g transform="translate(0,12)" style="" class="label"><foreignObject height="24" width="262.859375"><div style="display: table-cell; white-space: nowrap; line-height: 1.5; max-width: 317px; text-align: center;" xmlns="http://www.w3.org/1999/xhtml"><span style="" class="nodeLabel markdown-node-label"><p>+get_workflow(id: int) : -&gt; Workflow</p></span></div></foreignObject></g><g transform="translate(0,36)" style="" class="label"><foreignObject height="24" width="262.75"><div style="display: table-cell; white-space: nowrap; line-height: 1.5; max-width: 321px; text-align: center;" xmlns="http://www.w3.org/1999/xhtml"><span style="" class="nodeLabel markdown-node-label"><p>+get_workflows() : -&gt; List[Workflow]</p></span></div></foreignObject></g><g transform="translate(0,60)" style="" class="label"><foreignObject height="24" width="255.28125"><div style="display: table-cell; white-space: nowrap; line-height: 1.5; max-width: 306px; text-align: center;" xmlns="http://www.w3.org/1999/xhtml"><span style="" class="nodeLabel markdown-node-label"><p>+delete_workflow(id: int) : -&gt; None</p></span></div></foreignObject></g></g><g style="" class="divider"><path style="" fill="none" stroke-width="1.3" stroke="#9370DB" d="M-176.83984375 -84 C-90.63054447078294 -84, -4.421245191565873 -84, 176.83984375 -84 M-176.83984375 -84 C-74.46941867013564 -84, 27.901006409728723 -84, 176.83984375 -84"/></g><g style="" class="divider"><path style="" fill="none" stroke-width="1.3" stroke="#9370DB" d="M-176.83984375 12 C-80.48248881146613 12, 15.874866127067747 12, 176.83984375 12 M-176.83984375 12 C-57.46330409700657 12, 61.91323555598686 12, 176.83984375 12"/></g></g><g transform="translate(187.19140625, 538)" id="classId-Workflow-1" class="node default"><g class="basic label-container"><path style="" fill="#ECECFF" stroke-width="0" stroke="none" d="M-179.19140625 -192 L179.19140625 -192 L179.19140625 192 L-179.19140625 192"/><path style="" fill="none" stroke-width="1.3" stroke="#9370DB" d="M-179.19140625 -192 C-80.04829238564785 -192, 19.09482147870429 -192, 179.19140625 -192 M-179.19140625 -192 C-105.30541526412195 -192, -31.419424278243895 -192, 179.19140625 -192 M179.19140625 -192 C179.19140625 -114.76859300731635, 179.19140625 -37.53718601463271, 179.19140625 192 M179.19140625 -192 C179.19140625 -90.33670227642295, 179.19140625 11.32659544715409, 179.19140625 192 M179.19140625 192 C50.75076366393523 192, -77.68987892212954 192, -179.19140625 192 M179.19140625 192 C97.31296358936571 192, 15.434520928731416 192, -179.19140625 192 M-179.19140625 192 C-179.19140625 42.043260234167946, -179.19140625 -107.91347953166411, -179.19140625 -192 M-179.19140625 192 C-179.19140625 52.76610792101002, -179.19140625 -86.46778415797996, -179.19140625 -192"/></g><g transform="translate(0, -168)" class="annotation-group text"/><g transform="translate(-35.3671875, -168)" class="label-group text"><g transform="translate(0,-12)" style="font-weight: bolder" class="label"><foreignObject height="24" width="70.734375"><div style="display: table-cell; white-space: nowrap; line-height: 1.5; max-width: 114px; text-align: center;" xmlns="http://www.w3.org/1999/xhtml"><span style="" class="nodeLabel markdown-node-label"><p>Workflow</p></span></div></foreignObject></g></g><g transform="translate(-167.19140625, -120)" class="members-group text"><g transform="translate(0,-12)" style="" class="label"><foreignObject height="24" width="52.21875"><div style="display: table-cell; white-space: nowrap; line-height: 1.5; max-width: 101px; text-align: center;" xmlns="http://www.w3.org/1999/xhtml"><span style="" class="nodeLabel markdown-node-label"><p>+id: int</p></span></div></foreignObject></g><g transform="translate(0,12)" style="" class="label"><foreignObject height="24" width="77.28125"><div style="display: table-cell; white-space: nowrap; line-height: 1.5; max-width: 123px; text-align: center;" xmlns="http://www.w3.org/1999/xhtml"><span style="" class="nodeLabel markdown-node-label"><p>+name: str</p></span></div></foreignObject></g><g transform="translate(0,36)" style="" class="label"><foreignObject height="24" width="118.09375"><div style="display: table-cell; white-space: nowrap; line-height: 1.5; max-width: 159px; text-align: center;" xmlns="http://www.w3.org/1999/xhtml"><span style="" class="nodeLabel markdown-node-label"><p>+description: str</p></span></div></foreignObject></g><g transform="translate(0,60)" style="" class="label"><foreignObject height="24" width="80.921875"><div style="display: table-cell; white-space: nowrap; line-height: 1.5; max-width: 124px; text-align: center;" xmlns="http://www.w3.org/1999/xhtml"><span style="" class="nodeLabel markdown-node-label"><p>+status: str</p></span></div></foreignObject></g><g transform="translate(0,84)" style="" class="label"><foreignObject height="24" width="162.796875"><div style="display: table-cell; white-space: nowrap; line-height: 1.5; max-width: 193px; text-align: center;" xmlns="http://www.w3.org/1999/xhtml"><span style="" class="nodeLabel markdown-node-label"><p>+created_at: datetime</p></span></div></foreignObject></g><g transform="translate(0,108)" style="" class="label"><foreignObject height="24" width="166.5"><div style="display: table-cell; white-space: nowrap; line-height: 1.5; max-width: 197px; text-align: center;" xmlns="http://www.w3.org/1999/xhtml"><span style="" class="nodeLabel markdown-node-label"><p>+updated_at: datetime</p></span></div></foreignObject></g></g><g transform="translate(-167.19140625, 48)" class="methods-group text"><g transform="translate(0,-12)" style="" class="label"><foreignObject height="24" width="219.140625"><div style="display: table-cell; white-space: nowrap; line-height: 1.5; max-width: 271px; text-align: center;" xmlns="http://www.w3.org/1999/xhtml"><span style="" class="nodeLabel markdown-node-label"><p>+add_task(data: dict) : -&gt; Task</p></span></div></foreignObject></g><g transform="translate(0,12)" style="" class="label"><foreignObject height="24" width="189.3125"><div style="display: table-cell; white-space: nowrap; line-height: 1.5; max-width: 246px; text-align: center;" xmlns="http://www.w3.org/1999/xhtml"><span style="" class="nodeLabel markdown-node-label"><p>+get_task(id: int) : -&gt; Task</p></span></div></foreignObject></g><g transform="translate(0,36)" style="" class="label"><foreignObject height="24" width="189.5"><div style="display: table-cell; white-space: nowrap; line-height: 1.5; max-width: 250px; text-align: center;" xmlns="http://www.w3.org/1999/xhtml"><span style="" class="nodeLabel markdown-node-label"><p>+get_tasks() : -&gt; List[Task]</p></span></div></foreignObject></g><g transform="translate(0,60)" style="" class="label"><foreignObject height="24" width="218.671875"><div style="display: table-cell; white-space: nowrap; line-height: 1.5; max-width: 270px; text-align: center;" xmlns="http://www.w3.org/1999/xhtml"><span style="" class="nodeLabel markdown-node-label"><p>+delete_task(id: int) : -&gt; None</p></span></div></foreignObject></g><g transform="translate(0,84)" style="" class="label"><foreignObject height="24" width="114.71875"><div style="display: table-cell; white-space: nowrap; line-height: 1.5; max-width: 181px; text-align: center;" xmlns="http://www.w3.org/1999/xhtml"><span style="" class="nodeLabel markdown-node-label"><p>+run() : -&gt; None</p></span></div></foreignObject></g><g transform="translate(0,108)" style="" class="label"><foreignObject height="24" width="299.015625"><div style="display: table-cell; white-space: nowrap; line-height: 1.5; max-width: 345px; text-align: center;" xmlns="http://www.w3.org/1999/xhtml"><span style="" class="nodeLabel markdown-node-label"><p>+schedule(cron_expression: str) : -&gt; None</p></span></div></foreignObject></g></g><g style="" class="divider"><path style="" fill="none" stroke-width="1.3" stroke="#9370DB" d="M-179.19140625 -144 C-68.22298340151237 -144, 42.74543944697527 -144, 179.19140625 -144 M-179.19140625 -144 C-93.24892033658574 -144, -7.306434423171481 -144, 179.19140625 -144"/></g><g style="" class="divider"><path style="" fill="none" stroke-width="1.3" stroke="#9370DB" d="M-179.19140625 24 C-43.98218958413335 24, 91.2270270817333 24, 179.19140625 24 M-179.19140625 24 C-35.961180011808835 24, 107.26904622638233 24, 179.19140625 24"/></g></g><g transform="translate(277.005859375, 972)" id="classId-Task-2" class="node default"><g class="basic label-container"><path style="" fill="#ECECFF" stroke-width="0" stroke="none" d="M-144.62890625 -168 L144.62890625 -168 L144.62890625 168 L-144.62890625 168"/><path style="" fill="none" stroke-width="1.3" stroke="#9370DB" d="M-144.62890625 -168 C-47.089574598216245 -168, 50.44975705356751 -168, 144.62890625 -168 M-144.62890625 -168 C-82.18049952626365 -168, -19.732092802527276 -168, 144.62890625 -168 M144.62890625 -168 C144.62890625 -95.59523353102115, 144.62890625 -23.190467062042302, 144.62890625 168 M144.62890625 -168 C144.62890625 -71.11309372351793, 144.62890625 25.77381255296413, 144.62890625 168 M144.62890625 168 C85.36169175595865 168, 26.094477261917277 168, -144.62890625 168 M144.62890625 168 C45.10325094456178 168, -54.42240436087644 168, -144.62890625 168 M-144.62890625 168 C-144.62890625 35.66315594693194, -144.62890625 -96.67368810613613, -144.62890625 -168 M-144.62890625 168 C-144.62890625 40.9857342460061, -144.62890625 -86.0285315079878, -144.62890625 -168"/></g><g transform="translate(0, -144)" class="annotation-group text"/><g transform="translate(-16.1015625, -144)" class="label-group text"><g transform="translate(0,-12)" style="font-weight: bolder" class="label"><foreignObject height="24" width="32.203125"><div style="display: table-cell; white-space: nowrap; line-height: 1.5; max-width: 80px; text-align: center;" xmlns="http://www.w3.org/1999/xhtml"><span style="" class="nodeLabel markdown-node-label"><p>Task</p></span></div></foreignObject></g></g><g transform="translate(-132.62890625, -96)" class="members-group text"><g transform="translate(0,-12)" style="" class="label"><foreignObject height="24" width="52.21875"><div style="display: table-cell; white-space: nowrap; line-height: 1.5; max-width: 101px; text-align: center;" xmlns="http://www.w3.org/1999/xhtml"><span style="" class="nodeLabel markdown-node-label"><p>+id: int</p></span></div></foreignObject></g><g transform="translate(0,12)" style="" class="label"><foreignObject height="24" width="77.28125"><div style="display: table-cell; white-space: nowrap; line-height: 1.5; max-width: 123px; text-align: center;" xmlns="http://www.w3.org/1999/xhtml"><span style="" class="nodeLabel markdown-node-label"><p>+name: str</p></span></div></foreignObject></g><g transform="translate(0,36)" style="" class="label"><foreignObject height="24" width="118.09375"><div style="display: table-cell; white-space: nowrap; line-height: 1.5; max-width: 159px; text-align: center;" xmlns="http://www.w3.org/1999/xhtml"><span style="" class="nodeLabel markdown-node-label"><p>+description: str</p></span></div></foreignObject></g><g transform="translate(0,60)" style="" class="label"><foreignObject height="24" width="80.921875"><div style="display: table-cell; white-space: nowrap; line-height: 1.5; max-width: 124px; text-align: center;" xmlns="http://www.w3.org/1999/xhtml"><span style="" class="nodeLabel markdown-node-label"><p>+status: str</p></span></div></foreignObject></g><g transform="translate(0,84)" style="" class="label"><foreignObject height="24" width="162.796875"><div style="display: table-cell; white-space: nowrap; line-height: 1.5; max-width: 193px; text-align: center;" xmlns="http://www.w3.org/1999/xhtml"><span style="" class="nodeLabel markdown-node-label"><p>+created_at: datetime</p></span></div></foreignObject></g><g transform="translate(0,108)" style="" class="label"><foreignObject height="24" width="166.5"><div style="display: table-cell; white-space: nowrap; line-height: 1.5; max-width: 197px; text-align: center;" xmlns="http://www.w3.org/1999/xhtml"><span style="" class="nodeLabel markdown-node-label"><p>+updated_at: datetime</p></span></div></foreignObject></g></g><g transform="translate(-132.62890625, 72)" class="methods-group text"><g transform="translate(0,-12)" style="" class="label"><foreignObject height="24" width="249.15625"><div style="display: table-cell; white-space: nowrap; line-height: 1.5; max-width: 297px; text-align: center;" xmlns="http://www.w3.org/1999/xhtml"><span style="" class="nodeLabel markdown-node-label"><p>+add_action(data: dict) : -&gt; Action</p></span></div></foreignObject></g><g transform="translate(0,12)" style="" class="label"><foreignObject height="24" width="219.328125"><div style="display: table-cell; white-space: nowrap; line-height: 1.5; max-width: 272px; text-align: center;" xmlns="http://www.w3.org/1999/xhtml"><span style="" class="nodeLabel markdown-node-label"><p>+get_action(id: int) : -&gt; Action</p></span></div></foreignObject></g><g transform="translate(0,36)" style="" class="label"><foreignObject height="24" width="220.109375"><div style="display: table-cell; white-space: nowrap; line-height: 1.5; max-width: 277px; text-align: center;" xmlns="http://www.w3.org/1999/xhtml"><span style="" class="nodeLabel markdown-node-label"><p>+get_actions() : -&gt; List[Action]</p></span></div></foreignObject></g><g transform="translate(0,60)" style="" class="label"><foreignObject height="24" width="233.9375"><div style="display: table-cell; white-space: nowrap; line-height: 1.5; max-width: 283px; text-align: center;" xmlns="http://www.w3.org/1999/xhtml"><span style="" class="nodeLabel markdown-node-label"><p>+delete_action(id: int) : -&gt; None</p></span></div></foreignObject></g></g><g style="" class="divider"><path style="" fill="none" stroke-width="1.3" stroke="#9370DB" d="M-144.62890625 -120 C-34.45956857612724 -120, 75.70976909774552 -120, 144.62890625 -120 M-144.62890625 -120 C-49.186159374749266 -120, 46.25658750050147 -120, 144.62890625 -120"/></g><g style="" class="divider"><path style="" fill="none" stroke-width="1.3" stroke="#9370DB" d="M-144.62890625 48 C-51.20742476204376 48, 42.214056725912485 48, 144.62890625 48 M-144.62890625 48 C-33.69804005879756 48, 77.23282613240488 48, 144.62890625 48"/></g></g><g transform="translate(355.728515625, 1346)" id="classId-Action-3" class="node default"><g class="basic label-container"><path style="" fill="#ECECFF" stroke-width="0" stroke="none" d="M-107.234375 -132 L107.234375 -132 L107.234375 132 L-107.234375 132"/><path style="" fill="none" stroke-width="1.3" stroke="#9370DB" d="M-107.234375 -132 C-57.9149109010818 -132, -8.595446802163593 -132, 107.234375 -132 M-107.234375 -132 C-26.42052056122246 -132, 54.39333387755508 -132, 107.234375 -132 M107.234375 -132 C107.234375 -58.104290760909706, 107.234375 15.791418478180589, 107.234375 132 M107.234375 -132 C107.234375 -76.89980276123254, 107.234375 -21.79960552246507, 107.234375 132 M107.234375 132 C38.826650457702 132, -29.581074084595997 132, -107.234375 132 M107.234375 132 C32.82085583492014 132, -41.59266333015972 132, -107.234375 132 M-107.234375 132 C-107.234375 70.74273721211563, -107.234375 9.48547442423127, -107.234375 -132 M-107.234375 132 C-107.234375 47.06231662553154, -107.234375 -37.875366748936926, -107.234375 -132"/></g><g transform="translate(0, -108)" class="annotation-group text"/><g transform="translate(-23.96875, -108)" class="label-group text"><g transform="translate(0,-12)" style="font-weight: bolder" class="label"><foreignObject height="24" width="47.9375"><div style="display: table-cell; white-space: nowrap; line-height: 1.5; max-width: 94px; text-align: center;" xmlns="http://www.w3.org/1999/xhtml"><span style="" class="nodeLabel markdown-node-label"><p>Action</p></span></div></foreignObject></g></g><g transform="translate(-95.234375, -60)" class="members-group text"><g transform="translate(0,-12)" style="" class="label"><foreignObject height="24" width="52.21875"><div style="display: table-cell; white-space: nowrap; line-height: 1.5; max-width: 101px; text-align: center;" xmlns="http://www.w3.org/1999/xhtml"><span style="" class="nodeLabel markdown-node-label"><p>+id: int</p></span></div></foreignObject></g><g transform="translate(0,12)" style="" class="label"><foreignObject height="24" width="77.28125"><div style="display: table-cell; white-space: nowrap; line-height: 1.5; max-width: 123px; text-align: center;" xmlns="http://www.w3.org/1999/xhtml"><span style="" class="nodeLabel markdown-node-label"><p>+name: str</p></span></div></foreignObject></g><g transform="translate(0,36)" style="" class="label"><foreignObject height="24" width="118.09375"><div style="display: table-cell; white-space: nowrap; line-height: 1.5; max-width: 159px; text-align: center;" xmlns="http://www.w3.org/1999/xhtml"><span style="" class="nodeLabel markdown-node-label"><p>+description: str</p></span></div></foreignObject></g><g transform="translate(0,60)" style="" class="label"><foreignObject height="24" width="80.921875"><div style="display: table-cell; white-space: nowrap; line-height: 1.5; max-width: 124px; text-align: center;" xmlns="http://www.w3.org/1999/xhtml"><span style="" class="nodeLabel markdown-node-label"><p>+status: str</p></span></div></foreignObject></g><g transform="translate(0,84)" style="" class="label"><foreignObject height="24" width="162.796875"><div style="display: table-cell; white-space: nowrap; line-height: 1.5; max-width: 193px; text-align: center;" xmlns="http://www.w3.org/1999/xhtml"><span style="" class="nodeLabel markdown-node-label"><p>+created_at: datetime</p></span></div></foreignObject></g><g transform="translate(0,108)" style="" class="label"><foreignObject height="24" width="166.5"><div style="display: table-cell; white-space: nowrap; line-height: 1.5; max-width: 197px; text-align: center;" xmlns="http://www.w3.org/1999/xhtml"><span style="" class="nodeLabel markdown-node-label"><p>+updated_at: datetime</p></span></div></foreignObject></g></g><g transform="translate(-95.234375, 108)" class="methods-group text"><g transform="translate(0,-12)" style="" class="label"><foreignObject height="24" width="114.71875"><div style="display: table-cell; white-space: nowrap; line-height: 1.5; max-width: 181px; text-align: center;" xmlns="http://www.w3.org/1999/xhtml"><span style="" class="nodeLabel markdown-node-label"><p>+run() : -&gt; None</p></span></div></foreignObject></g></g><g style="" class="divider"><path style="" fill="none" stroke-width="1.3" stroke="#9370DB" d="M-107.234375 -84 C-33.64196331282646 -84, 39.950448374347076 -84, 107.234375 -84 M-107.234375 -84 C-34.178497919630914 -84, 38.87737916073817 -84, 107.234375 -84"/></g><g style="" class="divider"><path style="" fill="none" stroke-width="1.3" stroke="#9370DB" d="M-107.234375 84 C-60.81513929509391 84, -14.395903590187814 84, 107.234375 84 M-107.234375 84 C-48.35857400004704 84, 10.517226999905915 84, 107.234375 84"/></g></g><g transform="translate(198.283203125, 1651)" id="classId-API-4" class="node default"><g class="basic label-container"><path style="" fill="#ECECFF" stroke-width="0" stroke="none" d="M-163.55859375 -99 L163.55859375 -99 L163.55859375 99 L-163.55859375 99"/><path style="" fill="none" stroke-width="1.3" stroke="#9370DB" d="M-163.55859375 -99 C-91.81855134213342 -99, -20.078508934266836 -99, 163.55859375 -99 M-163.55859375 -99 C-75.05436734398648 -99, 13.44985906202703 -99, 163.55859375 -99 M163.55859375 -99 C163.55859375 -26.71837504683407, 163.55859375 45.56324990633186, 163.55859375 99 M163.55859375 -99 C163.55859375 -52.754776337518116, 163.55859375 -6.5095526750362325, 163.55859375 99 M163.55859375 99 C50.34155412194217 99, -62.875485506115666 99, -163.55859375 99 M163.55859375 99 C60.57513886621781 99, -42.408316017564374 99, -163.55859375 99 M-163.55859375 99 C-163.55859375 40.75094293016056, -163.55859375 -17.498114139678876, -163.55859375 -99 M-163.55859375 99 C-163.55859375 56.49008754225989, -163.55859375 13.980175084519786, -163.55859375 -99"/></g><g transform="translate(0, -75)" class="annotation-group text"/><g transform="translate(-11.9921875, -75)" class="label-group text"><g transform="translate(0,-12)" style="font-weight: bolder" class="label"><foreignObject height="24" width="23.984375"><div style="display: table-cell; white-space: nowrap; line-height: 1.5; max-width: 76px; text-align: center;" xmlns="http://www.w3.org/1999/xhtml"><span style="" class="nodeLabel markdown-node-label"><p>API</p></span></div></foreignObject></g></g><g transform="translate(-151.55859375, -27)" class="members-group text"/><g transform="translate(-151.55859375, 3)" class="methods-group text"><g transform="translate(0,-12)" style="" class="label"><foreignObject height="24" width="291.125"><div style="display: table-cell; white-space: nowrap; line-height: 1.5; max-width: 334px; text-align: center;" xmlns="http://www.w3.org/1999/xhtml"><span style="" class="nodeLabel markdown-node-label"><p>+get(url: str, params: dict) : -&gt; Response</p></span></div></foreignObject></g><g transform="translate(0,12)" style="" class="label"><foreignObject height="24" width="278.71875"><div style="display: table-cell; white-space: nowrap; line-height: 1.5; max-width: 322px; text-align: center;" xmlns="http://www.w3.org/1999/xhtml"><span style="" class="nodeLabel markdown-node-label"><p>+post(url: str, data: dict) : -&gt; Response</p></span></div></foreignObject></g><g transform="translate(0,36)" style="" class="label"><foreignObject height="24" width="272.390625"><div style="display: table-cell; white-space: nowrap; line-height: 1.5; max-width: 316px; text-align: center;" xmlns="http://www.w3.org/1999/xhtml"><span style="" class="nodeLabel markdown-node-label"><p>+put(url: str, data: dict) : -&gt; Response</p></span></div></foreignObject></g><g transform="translate(0,60)" style="" class="label"><foreignObject height="24" width="215.625"><div style="display: table-cell; white-space: nowrap; line-height: 1.5; max-width: 267px; text-align: center;" xmlns="http://www.w3.org/1999/xhtml"><span style="" class="nodeLabel markdown-node-label"><p>+delete(url: str) : -&gt; Response</p></span></div></foreignObject></g></g><g style="" class="divider"><path style="" fill="none" stroke-width="1.3" stroke="#9370DB" d="M-163.55859375 -51 C-75.73302251505518 -51, 12.092548719889635 -51, 163.55859375 -51 M-163.55859375 -51 C-43.75491676405572 -51, 76.04876022188856 -51, 163.55859375 -51"/></g><g style="" class="divider"><path style="" fill="none" stroke-width="1.3" stroke="#9370DB" d="M-163.55859375 -27 C-63.55815757862577 -27, 36.442278592748465 -27, 163.55859375 -27 M-163.55859375 -27 C-70.65546387487235 -27, 22.247666000255293 -27, 163.55859375 -27"/></g></g><g transform="translate(505.50390625, 140)" id="classId-Response-5" class="node default"><g class="basic label-container"><path style="" fill="#ECECFF" stroke-width="0" stroke="none" d="M-91.47265625 -72 L91.47265625 -72 L91.47265625 72 L-91.47265625 72"/><path style="" fill="none" stroke-width="1.3" stroke="#9370DB" d="M-91.47265625 -72 C-19.038937755638372 -72, 53.394780738723256 -72, 91.47265625 -72 M-91.47265625 -72 C-32.72717161045717 -72, 26.01831302908566 -72, 91.47265625 -72 M91.47265625 -72 C91.47265625 -19.194143663187646, 91.47265625 33.61171267362471, 91.47265625 72 M91.47265625 -72 C91.47265625 -36.122503043657815, 91.47265625 -0.24500608731563034, 91.47265625 72 M91.47265625 72 C20.74312053790247 72, -49.98641517419506 72, -91.47265625 72 M91.47265625 72 C23.72200752301906 72, -44.02864120396188 72, -91.47265625 72 M-91.47265625 72 C-91.47265625 31.345980820028764, -91.47265625 -9.308038359942472, -91.47265625 -72 M-91.47265625 72 C-91.47265625 22.177694172019763, -91.47265625 -27.644611655960475, -91.47265625 -72"/></g><g transform="translate(0, -48)" class="annotation-group text"/><g transform="translate(-34.8828125, -48)" class="label-group text"><g transform="translate(0,-12)" style="font-weight: bolder" class="label"><foreignObject height="24" width="69.765625"><div style="display: table-cell; white-space: nowrap; line-height: 1.5; max-width: 111px; text-align: center;" xmlns="http://www.w3.org/1999/xhtml"><span style="" class="nodeLabel markdown-node-label"><p>Response</p></span></div></foreignObject></g></g><g transform="translate(-79.47265625, 0)" class="members-group text"><g transform="translate(0,-12)" style="" class="label"><foreignObject height="24" width="124.0625"><div style="display: table-cell; white-space: nowrap; line-height: 1.5; max-width: 163px; text-align: center;" xmlns="http://www.w3.org/1999/xhtml"><span style="" class="nodeLabel markdown-node-label"><p>+status_code: int</p></span></div></foreignObject></g></g><g transform="translate(-79.47265625, 48)" class="methods-group text"><g transform="translate(0,-12)" style="" class="label"><foreignObject height="24" width="112.15625"><div style="display: table-cell; white-space: nowrap; line-height: 1.5; max-width: 176px; text-align: center;" xmlns="http://www.w3.org/1999/xhtml"><span style="" class="nodeLabel markdown-node-label"><p>+json() : -&gt; dict</p></span></div></foreignObject></g></g><g style="" class="divider"><path style="" fill="none" stroke-width="1.3" stroke="#9370DB" d="M-91.47265625 -24 C-26.309471522667536 -24, 38.85371320466493 -24, 91.47265625 -24 M-91.47265625 -24 C-38.915389735043675 -24, 13.64187677991265 -24, 91.47265625 -24"/></g><g style="" class="divider"><path style="" fill="none" stroke-width="1.3" stroke="#9370DB" d="M-91.47265625 24 C-32.83921139129173 24, 25.794233467416547 24, 91.47265625 24 M-91.47265625 24 C-43.68191553466443 24, 4.108825180671147 24, 91.47265625 24"/></g></g></g></g></g></svg>