<svg aria-roledescription="er" role="graphics-document document" viewBox="0 0 430.328125 620.826171875" style="max-width: 430.328px; background-color: white;" xmlns:xlink="http://www.w3.org/1999/xlink" xmlns="http://www.w3.org/2000/svg" width="100%" id="my-svg"><style>#my-svg{font-family:"trebuchet ms",verdana,arial,sans-serif;font-size:16px;fill:#333;}#my-svg .error-icon{fill:#552222;}#my-svg .error-text{fill:#552222;stroke:#552222;}#my-svg .edge-thickness-normal{stroke-width:1px;}#my-svg .edge-thickness-thick{stroke-width:3.5px;}#my-svg .edge-pattern-solid{stroke-dasharray:0;}#my-svg .edge-thickness-invisible{stroke-width:0;fill:none;}#my-svg .edge-pattern-dashed{stroke-dasharray:3;}#my-svg .edge-pattern-dotted{stroke-dasharray:2;}#my-svg .marker{fill:#333333;stroke:#333333;}#my-svg .marker.cross{stroke:#333333;}#my-svg svg{font-family:"trebuchet ms",verdana,arial,sans-serif;font-size:16px;}#my-svg p{margin:0;}#my-svg .entityBox{fill:#ECECFF;stroke:#9370DB;}#my-svg .attributeBoxOdd{fill:#ffffff;stroke:#9370DB;}#my-svg .attributeBoxEven{fill:#f2f2f2;stroke:#9370DB;}#my-svg .relationshipLabelBox{fill:hsl(80, 100%, 96.2745098039%);opacity:0.7;background-color:hsl(80, 100%, 96.2745098039%);}#my-svg .relationshipLabelBox rect{opacity:0.5;}#my-svg .relationshipLine{stroke:#333333;}#my-svg .entityTitleText{text-anchor:middle;font-size:18px;fill:#333;}#my-svg #MD_PARENT_START{fill:#f5f5f5!important;stroke:#333333!important;stroke-width:1;}#my-svg #MD_PARENT_END{fill:#f5f5f5!important;stroke:#333333!important;stroke-width:1;}#my-svg :root{--mermaid-font-family:"trebuchet ms",verdana,arial,sans-serif;}</style><g/><defs><marker orient="auto" markerHeight="240" markerWidth="190" refY="7" refX="0" id="MD_PARENT_START"><path d="M 18,7 L9,13 L1,7 L9,1 Z"/></marker></defs><defs><marker orient="auto" markerHeight="28" markerWidth="20" refY="7" refX="19" id="MD_PARENT_END"><path d="M 18,7 L9,13 L1,7 L9,1 Z"/></marker></defs><defs><marker orient="auto" markerHeight="18" markerWidth="18" refY="9" refX="0" id="ONLY_ONE_START"><path d="M9,0 L9,18 M15,0 L15,18" fill="none" stroke="gray"/></marker></defs><defs><marker orient="auto" markerHeight="18" markerWidth="18" refY="9" refX="18" id="ONLY_ONE_END"><path d="M3,0 L3,18 M9,0 L9,18" fill="none" stroke="gray"/></marker></defs><defs><marker orient="auto" markerHeight="18" markerWidth="30" refY="9" refX="0" id="ZERO_OR_ONE_START"><circle r="6" cy="9" cx="21" fill="white" stroke="gray"/><path d="M9,0 L9,18" fill="none" stroke="gray"/></marker></defs><defs><marker orient="auto" markerHeight="18" markerWidth="30" refY="9" refX="30" id="ZERO_OR_ONE_END"><circle r="6" cy="9" cx="9" fill="white" stroke="gray"/><path d="M21,0 L21,18" fill="none" stroke="gray"/></marker></defs><defs><marker orient="auto" markerHeight="36" markerWidth="45" refY="18" refX="18" id="ONE_OR_MORE_START"><path d="M0,18 Q 18,0 36,18 Q 18,36 0,18 M42,9 L42,27" fill="none" stroke="gray"/></marker></defs><defs><marker orient="auto" markerHeight="36" markerWidth="45" refY="18" refX="27" id="ONE_OR_MORE_END"><path d="M3,9 L3,27 M9,18 Q27,0 45,18 Q27,36 9,18" fill="none" stroke="gray"/></marker></defs><defs><marker orient="auto" markerHeight="36" markerWidth="57" refY="18" refX="18" id="ZERO_OR_MORE_START"><circle r="6" cy="18" cx="48" fill="white" stroke="gray"/><path d="M0,18 Q18,0 36,18 Q18,36 0,18" fill="none" stroke="gray"/></marker></defs><defs><marker orient="auto" markerHeight="36" markerWidth="57" refY="18" refX="39" id="ZERO_OR_MORE_END"><circle r="6" cy="18" cx="9" fill="white" stroke="gray"/><path d="M21,18 Q39,0 57,18 Q39,36 21,18" fill="none" stroke="gray"/></marker></defs><path style="stroke: gray; fill: none;" marker-start="url(#ONLY_ONE_START)" marker-end="url(#ONE_OR_MORE_END)" d="M95.656,300.367L95.656,308.701C95.656,317.034,95.656,333.701,102.456,350.367C109.256,367.034,122.855,383.701,129.655,392.034L136.455,400.367" class="er relationshipLine"/><path style="stroke: gray; fill: none;" marker-start="url(#ONE_OR_MORE_START)" marker-end="url(#ONLY_ONE_END)" d="M340.82,278.367L340.82,290.367C340.82,302.367,340.82,326.367,334.021,346.701C327.221,367.034,313.621,383.701,306.822,392.034L300.022,400.367" class="er relationshipLine"/><path style="stroke: gray; fill: none;" marker-start="url(#ONLY_ONE_START)" marker-end="url(#ZERO_OR_MORE_END)" d="M340.82,88.184L340.82,96.517C340.82,104.85,340.82,121.517,340.82,141.85C340.82,162.184,340.82,186.184,340.82,198.184L340.82,210.184" class="er relationshipLine"/><g transform="translate(20,188.18359375 )" id="entity-AUTHOR-c8b9204d-0c02-5422-8f8d-d29ca9ffce24"><rect height="112.18359470367432" width="151.3125" y="0" x="0" class="er entityBox"/><text style="dominant-baseline: middle; text-anchor: middle; font-size: 12px;" transform="translate(75.65625,12)" y="0" x="0" id="text-entity-AUTHOR-c8b9204d-0c02-5422-8f8d-d29ca9ffce24" class="er entityLabel">AUTHOR</text><rect height="22.091796875" width="58.671875" y="24" x="0" class="er attributeBoxOdd"/><text style="dominant-baseline: middle; font-size: 10.2px;" transform="translate(5,35.0458984375)" y="0" x="0" id="text-entity-AUTHOR-c8b9204d-0c02-5422-8f8d-d29ca9ffce24-attr-1-type" class="er entityLabel">serial</text><rect height="22.091796875" width="59.140625" y="24" x="58.671875" class="er attributeBoxOdd"/><text style="dominant-baseline: middle; font-size: 10.2px;" transform="translate(63.671875,35.0458984375)" y="0" x="0" id="text-entity-AUTHOR-c8b9204d-0c02-5422-8f8d-d29ca9ffce24-attr-1-name" class="er entityLabel">author_id</text><rect height="22.091796875" width="33.5" y="24" x="117.8125" class="er attributeBoxOdd"/><text style="dominant-baseline: middle; font-size: 10.2px;" transform="translate(122.8125,35.0458984375)" y="0" x="0" id="text-entity-AUTHOR-c8b9204d-0c02-5422-8f8d-d29ca9ffce24-attr-1-key" class="er entityLabel">pk,fk</text><rect height="22.091797828674316" width="58.671875" y="46.091796875" x="0" class="er attributeBoxEven"/><text style="dominant-baseline: middle; font-size: 10.2px;" transform="translate(5,57.13769578933716)" y="0" x="0" id="text-entity-AUTHOR-c8b9204d-0c02-5422-8f8d-d29ca9ffce24-attr-2-type" class="er entityLabel">timestamp</text><rect height="22.091797828674316" width="59.140625" y="46.091796875" x="58.671875" class="er attributeBoxEven"/><text style="dominant-baseline: middle; font-size: 10.2px;" transform="translate(63.671875,57.13769578933716)" y="0" x="0" id="text-entity-AUTHOR-c8b9204d-0c02-5422-8f8d-d29ca9ffce24-attr-2-name" class="er entityLabel">created_ts</text><rect height="22.091797828674316" width="33.5" y="46.091796875" x="117.8125" class="er attributeBoxEven"/><text style="dominant-baseline: middle; font-size: 10.2px;" transform="translate(122.8125,57.13769578933716)" y="0" x="0" id="text-entity-AUTHOR-c8b9204d-0c02-5422-8f8d-d29ca9ffce24-attr-2-key" class="er entityLabel"/><rect height="22" width="58.671875" y="68.18359470367432" x="0" class="er attributeBoxOdd"/><text style="dominant-baseline: middle; font-size: 10.2px;" transform="translate(5,79.18359470367432)" y="0" x="0" id="text-entity-AUTHOR-c8b9204d-0c02-5422-8f8d-d29ca9ffce24-attr-3-type" class="er entityLabel">text</text><rect height="22" width="59.140625" y="68.18359470367432" x="58.671875" class="er attributeBoxOdd"/><text style="dominant-baseline: middle; font-size: 10.2px;" transform="translate(63.671875,79.18359470367432)" y="0" x="0" id="text-entity-AUTHOR-c8b9204d-0c02-5422-8f8d-d29ca9ffce24-attr-3-name" class="er entityLabel">first_name</text><rect height="22" width="33.5" y="68.18359470367432" x="117.8125" class="er attributeBoxOdd"/><text style="dominant-baseline: middle; font-size: 10.2px;" transform="translate(122.8125,79.18359470367432)" y="0" x="0" id="text-entity-AUTHOR-c8b9204d-0c02-5422-8f8d-d29ca9ffce24-attr-3-key" class="er entityLabel"/><rect height="22" width="58.671875" y="90.18359470367432" x="0" class="er attributeBoxEven"/><text style="dominant-baseline: middle; font-size: 10.2px;" transform="translate(5,101.18359470367432)" y="0" x="0" id="text-entity-AUTHOR-c8b9204d-0c02-5422-8f8d-d29ca9ffce24-attr-4-type" class="er entityLabel">text</text><rect height="22" width="59.140625" y="90.18359470367432" x="58.671875" class="er attributeBoxEven"/><text style="dominant-baseline: middle; font-size: 10.2px;" transform="translate(63.671875,101.18359470367432)" y="0" x="0" id="text-entity-AUTHOR-c8b9204d-0c02-5422-8f8d-d29ca9ffce24-attr-4-name" class="er entityLabel">last_name</text><rect height="22" width="33.5" y="90.18359470367432" x="117.8125" class="er attributeBoxEven"/><text style="dominant-baseline: middle; font-size: 10.2px;" transform="translate(122.8125,101.18359470367432)" y="0" x="0" id="text-entity-AUTHOR-c8b9204d-0c02-5422-8f8d-d29ca9ffce24-attr-4-key" class="er entityLabel"/></g><g transform="translate(109.93359375,400.3671875 )" id="entity-BOOK-12b90bf2-7af7-5ded-a124-d6647c4b972e"><rect height="200.45898532867432" width="216.609375" y="0" x="0" class="er entityBox"/><text style="dominant-baseline: middle; text-anchor: middle; font-size: 12px;" transform="translate(108.3046875,12)" y="0" x="0" id="text-entity-BOOK-12b90bf2-7af7-5ded-a124-d6647c4b972e" class="er entityLabel">BOOK</text><rect height="22.091796875" width="58.671875" y="24" x="0" class="er attributeBoxOdd"/><text style="dominant-baseline: middle; font-size: 10.2px;" transform="translate(5,35.0458984375)" y="0" x="0" id="text-entity-BOOK-12b90bf2-7af7-5ded-a124-d6647c4b972e-attr-1-type" class="er entityLabel">serial</text><rect height="22.091796875" width="68.5625" y="24" x="58.671875" class="er attributeBoxOdd"/><text style="dominant-baseline: middle; font-size: 10.2px;" transform="translate(63.671875,35.0458984375)" y="0" x="0" id="text-entity-BOOK-12b90bf2-7af7-5ded-a124-d6647c4b972e-attr-1-name" class="er entityLabel">book_id</text><rect height="22.091796875" width="33.5" y="24" x="127.234375" class="er attributeBoxOdd"/><text style="dominant-baseline: middle; font-size: 10.2px;" transform="translate(132.234375,35.0458984375)" y="0" x="0" id="text-entity-BOOK-12b90bf2-7af7-5ded-a124-d6647c4b972e-attr-1-key" class="er entityLabel">pk,fk</text><rect height="22.091796875" width="55.875" y="24" x="160.734375" class="er attributeBoxOdd"/><text style="dominant-baseline: middle; font-size: 10.2px;" transform="translate(165.734375,35.0458984375)" y="0" x="0" id="text-entity-BOOK-12b90bf2-7af7-5ded-a124-d6647c4b972e-attr-1-comment" class="er entityLabel"/><rect height="22" width="58.671875" y="46.091796875" x="0" class="er attributeBoxEven"/><text style="dominant-baseline: middle; font-size: 10.2px;" transform="translate(5,57.091796875)" y="0" x="0" id="text-entity-BOOK-12b90bf2-7af7-5ded-a124-d6647c4b972e-attr-2-type" class="er entityLabel">serial</text><rect height="22" width="68.5625" y="46.091796875" x="58.671875" class="er attributeBoxEven"/><text style="dominant-baseline: middle; font-size: 10.2px;" transform="translate(63.671875,57.091796875)" y="0" x="0" id="text-entity-BOOK-12b90bf2-7af7-5ded-a124-d6647c4b972e-attr-2-name" class="er entityLabel">author_id</text><rect height="22" width="33.5" y="46.091796875" x="127.234375" class="er attributeBoxEven"/><text style="dominant-baseline: middle; font-size: 10.2px;" transform="translate(132.234375,57.091796875)" y="0" x="0" id="text-entity-BOOK-12b90bf2-7af7-5ded-a124-d6647c4b972e-attr-2-key" class="er entityLabel">fk</text><rect height="22" width="55.875" y="46.091796875" x="160.734375" class="er attributeBoxEven"/><text style="dominant-baseline: middle; font-size: 10.2px;" transform="translate(165.734375,57.091796875)" y="0" x="0" id="text-entity-BOOK-12b90bf2-7af7-5ded-a124-d6647c4b972e-attr-2-comment" class="er entityLabel"/><rect height="22.091797828674316" width="58.671875" y="68.091796875" x="0" class="er attributeBoxOdd"/><text style="dominant-baseline: middle; font-size: 10.2px;" transform="translate(5,79.13769578933716)" y="0" x="0" id="text-entity-BOOK-12b90bf2-7af7-5ded-a124-d6647c4b972e-attr-3-type" class="er entityLabel">timestamp</text><rect height="22.091797828674316" width="68.5625" y="68.091796875" x="58.671875" class="er attributeBoxOdd"/><text style="dominant-baseline: middle; font-size: 10.2px;" transform="translate(63.671875,79.13769578933716)" y="0" x="0" id="text-entity-BOOK-12b90bf2-7af7-5ded-a124-d6647c4b972e-attr-3-name" class="er entityLabel">created_ts</text><rect height="22.091797828674316" width="33.5" y="68.091796875" x="127.234375" class="er attributeBoxOdd"/><text style="dominant-baseline: middle; font-size: 10.2px;" transform="translate(132.234375,79.13769578933716)" y="0" x="0" id="text-entity-BOOK-12b90bf2-7af7-5ded-a124-d6647c4b972e-attr-3-key" class="er entityLabel"/><rect height="22.091797828674316" width="55.875" y="68.091796875" x="160.734375" class="er attributeBoxOdd"/><text style="dominant-baseline: middle; font-size: 10.2px;" transform="translate(165.734375,79.13769578933716)" y="0" x="0" id="text-entity-BOOK-12b90bf2-7af7-5ded-a124-d6647c4b972e-attr-3-comment" class="er entityLabel"/><rect height="22" width="58.671875" y="90.18359470367432" x="0" class="er attributeBoxEven"/><text style="dominant-baseline: middle; font-size: 10.2px;" transform="translate(5,101.18359470367432)" y="0" x="0" id="text-entity-BOOK-12b90bf2-7af7-5ded-a124-d6647c4b972e-attr-4-type" class="er entityLabel">text</text><rect height="22" width="68.5625" y="90.18359470367432" x="58.671875" class="er attributeBoxEven"/><text style="dominant-baseline: middle; font-size: 10.2px;" transform="translate(63.671875,101.18359470367432)" y="0" x="0" id="text-entity-BOOK-12b90bf2-7af7-5ded-a124-d6647c4b972e-attr-4-name" class="er entityLabel">title</text><rect height="22" width="33.5" y="90.18359470367432" x="127.234375" class="er attributeBoxEven"/><text style="dominant-baseline: middle; font-size: 10.2px;" transform="translate(132.234375,101.18359470367432)" y="0" x="0" id="text-entity-BOOK-12b90bf2-7af7-5ded-a124-d6647c4b972e-attr-4-key" class="er entityLabel"/><rect height="22" width="55.875" y="90.18359470367432" x="160.734375" class="er attributeBoxEven"/><text style="dominant-baseline: middle; font-size: 10.2px;" transform="translate(165.734375,101.18359470367432)" y="0" x="0" id="text-entity-BOOK-12b90bf2-7af7-5ded-a124-d6647c4b972e-attr-4-comment" class="er entityLabel"/><rect height="22.091796875" width="58.671875" y="112.18359470367432" x="0" class="er attributeBoxOdd"/><text style="dominant-baseline: middle; font-size: 10.2px;" transform="translate(5,123.22949314117432)" y="0" x="0" id="text-entity-BOOK-12b90bf2-7af7-5ded-a124-d6647c4b972e-attr-5-type" class="er entityLabel">date</text><rect height="22.091796875" width="68.5625" y="112.18359470367432" x="58.671875" class="er attributeBoxOdd"/><text style="dominant-baseline: middle; font-size: 10.2px;" transform="translate(63.671875,123.22949314117432)" y="0" x="0" id="text-entity-BOOK-12b90bf2-7af7-5ded-a124-d6647c4b972e-attr-5-name" class="er entityLabel">publish_date</text><rect height="22.091796875" width="33.5" y="112.18359470367432" x="127.234375" class="er attributeBoxOdd"/><text style="dominant-baseline: middle; font-size: 10.2px;" transform="translate(132.234375,123.22949314117432)" y="0" x="0" id="text-entity-BOOK-12b90bf2-7af7-5ded-a124-d6647c4b972e-attr-5-key" class="er entityLabel"/><rect height="22.091796875" width="55.875" y="112.18359470367432" x="160.734375" class="er attributeBoxOdd"/><text style="dominant-baseline: middle; font-size: 10.2px;" transform="translate(165.734375,123.22949314117432)" y="0" x="0" id="text-entity-BOOK-12b90bf2-7af7-5ded-a124-d6647c4b972e-attr-5-comment" class="er entityLabel">NULLABLE</text><rect height="22" width="58.671875" y="134.27539157867432" x="0" class="er attributeBoxEven"/><text style="dominant-baseline: middle; font-size: 10.2px;" transform="translate(5,145.27539157867432)" y="0" x="0" id="text-entity-BOOK-12b90bf2-7af7-5ded-a124-d6647c4b972e-attr-6-type" class="er entityLabel">smallint</text><rect height="22" width="68.5625" y="134.27539157867432" x="58.671875" class="er attributeBoxEven"/><text style="dominant-baseline: middle; font-size: 10.2px;" transform="translate(63.671875,145.27539157867432)" y="0" x="0" id="text-entity-BOOK-12b90bf2-7af7-5ded-a124-d6647c4b972e-attr-6-name" class="er entityLabel">edition</text><rect height="22" width="33.5" y="134.27539157867432" x="127.234375" class="er attributeBoxEven"/><text style="dominant-baseline: middle; font-size: 10.2px;" transform="translate(132.234375,145.27539157867432)" y="0" x="0" id="text-entity-BOOK-12b90bf2-7af7-5ded-a124-d6647c4b972e-attr-6-key" class="er entityLabel"/><rect height="22" width="55.875" y="134.27539157867432" x="160.734375" class="er attributeBoxEven"/><text style="dominant-baseline: middle; font-size: 10.2px;" transform="translate(165.734375,145.27539157867432)" y="0" x="0" id="text-entity-BOOK-12b90bf2-7af7-5ded-a124-d6647c4b972e-attr-6-comment" class="er entityLabel">NULLABLE</text><rect height="22.091796875" width="58.671875" y="156.27539157867432" x="0" class="er attributeBoxOdd"/><text style="dominant-baseline: middle; font-size: 10.2px;" transform="translate(5,167.32129001617432)" y="0" x="0" id="text-entity-BOOK-12b90bf2-7af7-5ded-a124-d6647c4b972e-attr-7-type" class="er entityLabel">text</text><rect height="22.091796875" width="68.5625" y="156.27539157867432" x="58.671875" class="er attributeBoxOdd"/><text style="dominant-baseline: middle; font-size: 10.2px;" transform="translate(63.671875,167.32129001617432)" y="0" x="0" id="text-entity-BOOK-12b90bf2-7af7-5ded-a124-d6647c4b972e-attr-7-name" class="er entityLabel">description</text><rect height="22.091796875" width="33.5" y="156.27539157867432" x="127.234375" class="er attributeBoxOdd"/><text style="dominant-baseline: middle; font-size: 10.2px;" transform="translate(132.234375,167.32129001617432)" y="0" x="0" id="text-entity-BOOK-12b90bf2-7af7-5ded-a124-d6647c4b972e-attr-7-key" class="er entityLabel"/><rect height="22.091796875" width="55.875" y="156.27539157867432" x="160.734375" class="er attributeBoxOdd"/><text style="dominant-baseline: middle; font-size: 10.2px;" transform="translate(165.734375,167.32129001617432)" y="0" x="0" id="text-entity-BOOK-12b90bf2-7af7-5ded-a124-d6647c4b972e-attr-7-comment" class="er entityLabel">NULLABLE</text><rect height="22.091796875" width="58.671875" y="178.36718845367432" x="0" class="er attributeBoxEven"/><text style="dominant-baseline: middle; font-size: 10.2px;" transform="translate(5,189.41308689117432)" y="0" x="0" id="text-entity-BOOK-12b90bf2-7af7-5ded-a124-d6647c4b972e-attr-8-type" class="er entityLabel">text</text><rect height="22.091796875" width="68.5625" y="178.36718845367432" x="58.671875" class="er attributeBoxEven"/><text style="dominant-baseline: middle; font-size: 10.2px;" transform="translate(63.671875,189.41308689117432)" y="0" x="0" id="text-entity-BOOK-12b90bf2-7af7-5ded-a124-d6647c4b972e-attr-8-name" class="er entityLabel">genre</text><rect height="22.091796875" width="33.5" y="178.36718845367432" x="127.234375" class="er attributeBoxEven"/><text style="dominant-baseline: middle; font-size: 10.2px;" transform="translate(132.234375,189.41308689117432)" y="0" x="0" id="text-entity-BOOK-12b90bf2-7af7-5ded-a124-d6647c4b972e-attr-8-key" class="er entityLabel"/><rect height="22.091796875" width="55.875" y="178.36718845367432" x="160.734375" class="er attributeBoxEven"/><text style="dominant-baseline: middle; font-size: 10.2px;" transform="translate(165.734375,189.41308689117432)" y="0" x="0" id="text-entity-BOOK-12b90bf2-7af7-5ded-a124-d6647c4b972e-attr-8-comment" class="er entityLabel">NULLABLE</text></g><g transform="translate(271.3125,210.18359375 )" id="entity-COLLECTIONBOOKS-8b6776ef-86b8-5882-bd23-b576f6a25e3e"><rect height="68.18359375" width="139.015625" y="0" x="0" class="er entityBox"/><text style="dominant-baseline: middle; text-anchor: middle; font-size: 12px;" transform="translate(69.5078125,12)" y="0" x="0" id="text-entity-COLLECTIONBOOKS-8b6776ef-86b8-5882-bd23-b576f6a25e3e" class="er entityLabel">COLLECTION_BOOKS</text><rect height="22.091796875" width="35.432291666666664" y="24" x="0" class="er attributeBoxOdd"/><text style="dominant-baseline: middle; font-size: 10.2px;" transform="translate(5,35.0458984375)" y="0" x="0" id="text-entity-COLLECTIONBOOKS-8b6776ef-86b8-5882-bd23-b576f6a25e3e-attr-1-type" class="er entityLabel">serial</text><rect height="22.091796875" width="69.58854166666667" y="24" x="35.432291666666664" class="er attributeBoxOdd"/><text style="dominant-baseline: middle; font-size: 10.2px;" transform="translate(40.432291666666664,35.0458984375)" y="0" x="0" id="text-entity-COLLECTIONBOOKS-8b6776ef-86b8-5882-bd23-b576f6a25e3e-attr-1-name" class="er entityLabel">collection_id</text><rect height="22.091796875" width="33.994791666666664" y="24" x="105.02083333333334" class="er attributeBoxOdd"/><text style="dominant-baseline: middle; font-size: 10.2px;" transform="translate(110.02083333333334,35.0458984375)" y="0" x="0" id="text-entity-COLLECTIONBOOKS-8b6776ef-86b8-5882-bd23-b576f6a25e3e-attr-1-key" class="er entityLabel">pk,fk</text><rect height="22.091796875" width="35.432291666666664" y="46.091796875" x="0" class="er attributeBoxEven"/><text style="dominant-baseline: middle; font-size: 10.2px;" transform="translate(5,57.1376953125)" y="0" x="0" id="text-entity-COLLECTIONBOOKS-8b6776ef-86b8-5882-bd23-b576f6a25e3e-attr-2-type" class="er entityLabel">serial</text><rect height="22.091796875" width="69.58854166666667" y="46.091796875" x="35.432291666666664" class="er attributeBoxEven"/><text style="dominant-baseline: middle; font-size: 10.2px;" transform="translate(40.432291666666664,57.1376953125)" y="0" x="0" id="text-entity-COLLECTIONBOOKS-8b6776ef-86b8-5882-bd23-b576f6a25e3e-attr-2-name" class="er entityLabel">book_id</text><rect height="22.091796875" width="33.994791666666664" y="46.091796875" x="105.02083333333334" class="er attributeBoxEven"/><text style="dominant-baseline: middle; font-size: 10.2px;" transform="translate(110.02083333333334,57.1376953125)" y="0" x="0" id="text-entity-COLLECTIONBOOKS-8b6776ef-86b8-5882-bd23-b576f6a25e3e-attr-2-key" class="er entityLabel">pk,fk</text></g><g transform="translate(271.6953125,20 )" id="entity-COLLECTION-cced9893-eeef-5a77-a515-0d379332563a"><rect height="68.18359470367432" width="138.25" y="0" x="0" class="er entityBox"/><text style="dominant-baseline: middle; text-anchor: middle; font-size: 12px;" transform="translate(69.125,12)" y="0" x="0" id="text-entity-COLLECTION-cced9893-eeef-5a77-a515-0d379332563a" class="er entityLabel">COLLECTION</text><rect height="22.091797828674316" width="58.671875" y="24" x="0" class="er attributeBoxOdd"/><text style="dominant-baseline: middle; font-size: 10.2px;" transform="translate(5,35.04589891433716)" y="0" x="0" id="text-entity-COLLECTION-cced9893-eeef-5a77-a515-0d379332563a-attr-1-type" class="er entityLabel">timestamp</text><rect height="22.091797828674316" width="58.75" y="24" x="58.671875" class="er attributeBoxOdd"/><text style="dominant-baseline: middle; font-size: 10.2px;" transform="translate(63.671875,35.04589891433716)" y="0" x="0" id="text-entity-COLLECTION-cced9893-eeef-5a77-a515-0d379332563a-attr-1-name" class="er entityLabel">created_ts</text><rect height="22.091797828674316" width="20.828125" y="24" x="117.421875" class="er attributeBoxOdd"/><text style="dominant-baseline: middle; font-size: 10.2px;" transform="translate(122.421875,35.04589891433716)" y="0" x="0" id="text-entity-COLLECTION-cced9893-eeef-5a77-a515-0d379332563a-attr-1-key" class="er entityLabel"/><rect height="22.091796875" width="58.671875" y="46.091797828674316" x="0" class="er attributeBoxEven"/><text style="dominant-baseline: middle; font-size: 10.2px;" transform="translate(5,57.137696266174316)" y="0" x="0" id="text-entity-COLLECTION-cced9893-eeef-5a77-a515-0d379332563a-attr-2-type" class="er entityLabel">text</text><rect height="22.091796875" width="58.75" y="46.091797828674316" x="58.671875" class="er attributeBoxEven"/><text style="dominant-baseline: middle; font-size: 10.2px;" transform="translate(63.671875,57.137696266174316)" y="0" x="0" id="text-entity-COLLECTION-cced9893-eeef-5a77-a515-0d379332563a-attr-2-name" class="er entityLabel">title</text><rect height="22.091796875" width="20.828125" y="46.091797828674316" x="117.421875" class="er attributeBoxEven"/><text style="dominant-baseline: middle; font-size: 10.2px;" transform="translate(122.421875,57.137696266174316)" y="0" x="0" id="text-entity-COLLECTION-cced9893-eeef-5a77-a515-0d379332563a-attr-2-key" class="er entityLabel">pk</text></g><rect height="14" width="33.1875" y="347.8726501464844" x="87.85939025878906" class="er relationshipLabelBox"/><text style="text-anchor: middle; dominant-baseline: middle; font-size: 12px;" y="354.8726501464844" x="104.45314025878906" id="rel1" class="er relationshipLabel">writes</text><rect height="14" width="36.9609375" y="337.2877197265625" x="316.3109436035156" class="er relationshipLabelBox"/><text style="text-anchor: middle; dominant-baseline: middle; font-size: 12px;" y="344.2877197265625" x="334.7914123535156" id="rel2" class="er relationshipLabel">part of</text><rect height="14" width="44.84375" y="142.1840057373047" x="318.39813232421875" class="er relationshipLabelBox"/><text style="text-anchor: middle; dominant-baseline: middle; font-size: 12px;" y="149.1840057373047" x="340.82000732421875" id="rel3" class="er relationshipLabel">contains</text></svg>