<svg aria-roledescription="er" role="graphics-document document" viewBox="0 0 609.984375 540.642578125" style="max-width: 609.984px; background-color: white;" xmlns:xlink="http://www.w3.org/1999/xlink" xmlns="http://www.w3.org/2000/svg" width="100%" id="my-svg"><style>#my-svg{font-family:"trebuchet ms",verdana,arial,sans-serif;font-size:16px;fill:#333;}#my-svg .error-icon{fill:#552222;}#my-svg .error-text{fill:#552222;stroke:#552222;}#my-svg .edge-thickness-normal{stroke-width:1px;}#my-svg .edge-thickness-thick{stroke-width:3.5px;}#my-svg .edge-pattern-solid{stroke-dasharray:0;}#my-svg .edge-thickness-invisible{stroke-width:0;fill:none;}#my-svg .edge-pattern-dashed{stroke-dasharray:3;}#my-svg .edge-pattern-dotted{stroke-dasharray:2;}#my-svg .marker{fill:#333333;stroke:#333333;}#my-svg .marker.cross{stroke:#333333;}#my-svg svg{font-family:"trebuchet ms",verdana,arial,sans-serif;font-size:16px;}#my-svg p{margin:0;}#my-svg .entityBox{fill:#ECECFF;stroke:#9370DB;}#my-svg .attributeBoxOdd{fill:#ffffff;stroke:#9370DB;}#my-svg .attributeBoxEven{fill:#f2f2f2;stroke:#9370DB;}#my-svg .relationshipLabelBox{fill:hsl(80, 100%, 96.2745098039%);opacity:0.7;background-color:hsl(80, 100%, 96.2745098039%);}#my-svg .relationshipLabelBox rect{opacity:0.5;}#my-svg .relationshipLine{stroke:#333333;}#my-svg .entityTitleText{text-anchor:middle;font-size:18px;fill:#333;}#my-svg #MD_PARENT_START{fill:#f5f5f5!important;stroke:#333333!important;stroke-width:1;}#my-svg #MD_PARENT_END{fill:#f5f5f5!important;stroke:#333333!important;stroke-width:1;}#my-svg :root{--mermaid-font-family:"trebuchet ms",verdana,arial,sans-serif;}</style><g/><defs><marker orient="auto" markerHeight="240" markerWidth="190" refY="7" refX="0" id="MD_PARENT_START"><path d="M 18,7 L9,13 L1,7 L9,1 Z"/></marker></defs><defs><marker orient="auto" markerHeight="28" markerWidth="20" refY="7" refX="19" id="MD_PARENT_END"><path d="M 18,7 L9,13 L1,7 L9,1 Z"/></marker></defs><defs><marker orient="auto" markerHeight="18" markerWidth="18" refY="9" refX="0" id="ONLY_ONE_START"><path d="M9,0 L9,18 M15,0 L15,18" fill="none" stroke="gray"/></marker></defs><defs><marker orient="auto" markerHeight="18" markerWidth="18" refY="9" refX="18" id="ONLY_ONE_END"><path d="M3,0 L3,18 M9,0 L9,18" fill="none" stroke="gray"/></marker></defs><defs><marker orient="auto" markerHeight="18" markerWidth="30" refY="9" refX="0" id="ZERO_OR_ONE_START"><circle r="6" cy="9" cx="21" fill="white" stroke="gray"/><path d="M9,0 L9,18" fill="none" stroke="gray"/></marker></defs><defs><marker orient="auto" markerHeight="18" markerWidth="30" refY="9" refX="30" id="ZERO_OR_ONE_END"><circle r="6" cy="9" cx="9" fill="white" stroke="gray"/><path d="M21,0 L21,18" fill="none" stroke="gray"/></marker></defs><defs><marker orient="auto" markerHeight="36" markerWidth="45" refY="18" refX="18" id="ONE_OR_MORE_START"><path d="M0,18 Q 18,0 36,18 Q 18,36 0,18 M42,9 L42,27" fill="none" stroke="gray"/></marker></defs><defs><marker orient="auto" markerHeight="36" markerWidth="45" refY="18" refX="27" id="ONE_OR_MORE_END"><path d="M3,9 L3,27 M9,18 Q27,0 45,18 Q27,36 9,18" fill="none" stroke="gray"/></marker></defs><defs><marker orient="auto" markerHeight="36" markerWidth="57" refY="18" refX="18" id="ZERO_OR_MORE_START"><circle r="6" cy="18" cx="48" fill="white" stroke="gray"/><path d="M0,18 Q18,0 36,18 Q18,36 0,18" fill="none" stroke="gray"/></marker></defs><defs><marker orient="auto" markerHeight="36" markerWidth="57" refY="18" refX="39" id="ZERO_OR_MORE_END"><circle r="6" cy="18" cx="9" fill="white" stroke="gray"/><path d="M21,18 Q39,0 57,18 Q39,36 21,18" fill="none" stroke="gray"/></marker></defs><path style="stroke: gray; fill: none;" marker-start="url(#ONLY_ONE_START)" marker-end="url(#ZERO_OR_MORE_END)" d="M89.523,308.551L89.523,316.884C89.523,325.217,89.523,341.884,98.609,358.551C107.695,375.217,125.867,391.884,134.952,400.217L144.038,408.551" class="er relationshipLine"/><path style="stroke: gray; fill: none;" marker-start="url(#ONLY_ONE_START)" marker-end="url(#ZERO_OR_MORE_END)" d="M320.766,231.321L320.766,252.526C320.766,273.731,320.766,316.141,311.68,345.679C302.594,375.217,284.423,391.884,275.337,400.217L266.251,408.551" class="er relationshipLine"/><g transform="translate(20,20 )" id="entity-EVENT-12434316-4a87-5800-981a-68e9670d1fb3"><rect height="288.5507860183716" width="139.046875" y="0" x="0" class="er entityBox"/><text style="dominant-baseline: middle; text-anchor: middle; font-size: 12px;" transform="translate(69.5234375,12)" y="0" x="0" id="text-entity-EVENT-12434316-4a87-5800-981a-68e9670d1fb3" class="er entityLabel">EVENT</text><rect height="22" width="64.796875" y="24" x="0" class="er attributeBoxOdd"/><text style="dominant-baseline: middle; font-size: 10.2px;" transform="translate(5,35)" y="0" x="0" id="text-entity-EVENT-12434316-4a87-5800-981a-68e9670d1fb3-attr-1-type" class="er entityLabel">id</text><rect height="22" width="52.6875" y="24" x="64.796875" class="er attributeBoxOdd"/><text style="dominant-baseline: middle; font-size: 10.2px;" transform="translate(69.796875,35)" y="0" x="0" id="text-entity-EVENT-12434316-4a87-5800-981a-68e9670d1fb3-attr-1-name" class="er entityLabel">INTEGER</text><rect height="22" width="21.5625" y="24" x="117.484375" class="er attributeBoxOdd"/><text style="dominant-baseline: middle; font-size: 10.2px;" transform="translate(122.484375,35)" y="0" x="0" id="text-entity-EVENT-12434316-4a87-5800-981a-68e9670d1fb3-attr-1-key" class="er entityLabel">PK</text><rect height="22" width="64.796875" y="46" x="0" class="er attributeBoxEven"/><text style="dominant-baseline: middle; font-size: 10.2px;" transform="translate(5,57)" y="0" x="0" id="text-entity-EVENT-12434316-4a87-5800-981a-68e9670d1fb3-attr-2-type" class="er entityLabel">name</text><rect height="22" width="52.6875" y="46" x="64.796875" class="er attributeBoxEven"/><text style="dominant-baseline: middle; font-size: 10.2px;" transform="translate(69.796875,57)" y="0" x="0" id="text-entity-EVENT-12434316-4a87-5800-981a-68e9670d1fb3-attr-2-name" class="er entityLabel">STRING</text><rect height="22" width="21.5625" y="46" x="117.484375" class="er attributeBoxEven"/><text style="dominant-baseline: middle; font-size: 10.2px;" transform="translate(122.484375,57)" y="0" x="0" id="text-entity-EVENT-12434316-4a87-5800-981a-68e9670d1fb3-attr-2-key" class="er entityLabel"/><rect height="22.091796875" width="64.796875" y="68" x="0" class="er attributeBoxOdd"/><text style="dominant-baseline: middle; font-size: 10.2px;" transform="translate(5,79.0458984375)" y="0" x="0" id="text-entity-EVENT-12434316-4a87-5800-981a-68e9670d1fb3-attr-3-type" class="er entityLabel">description</text><rect height="22.091796875" width="52.6875" y="68" x="64.796875" class="er attributeBoxOdd"/><text style="dominant-baseline: middle; font-size: 10.2px;" transform="translate(69.796875,79.0458984375)" y="0" x="0" id="text-entity-EVENT-12434316-4a87-5800-981a-68e9670d1fb3-attr-3-name" class="er entityLabel">TEXT</text><rect height="22.091796875" width="21.5625" y="68" x="117.484375" class="er attributeBoxOdd"/><text style="dominant-baseline: middle; font-size: 10.2px;" transform="translate(122.484375,79.0458984375)" y="0" x="0" id="text-entity-EVENT-12434316-4a87-5800-981a-68e9670d1fb3-attr-3-key" class="er entityLabel"/><rect height="22.091797828674316" width="64.796875" y="90.091796875" x="0" class="er attributeBoxEven"/><text style="dominant-baseline: middle; font-size: 10.2px;" transform="translate(5,101.13769578933716)" y="0" x="0" id="text-entity-EVENT-12434316-4a87-5800-981a-68e9670d1fb3-attr-4-type" class="er entityLabel">min_age</text><rect height="22.091797828674316" width="52.6875" y="90.091796875" x="64.796875" class="er attributeBoxEven"/><text style="dominant-baseline: middle; font-size: 10.2px;" transform="translate(69.796875,101.13769578933716)" y="0" x="0" id="text-entity-EVENT-12434316-4a87-5800-981a-68e9670d1fb3-attr-4-name" class="er entityLabel">INTEGER</text><rect height="22.091797828674316" width="21.5625" y="90.091796875" x="117.484375" class="er attributeBoxEven"/><text style="dominant-baseline: middle; font-size: 10.2px;" transform="translate(122.484375,101.13769578933716)" y="0" x="0" id="text-entity-EVENT-12434316-4a87-5800-981a-68e9670d1fb3-attr-4-key" class="er entityLabel"/><rect height="22" width="64.796875" y="112.18359470367432" x="0" class="er attributeBoxOdd"/><text style="dominant-baseline: middle; font-size: 10.2px;" transform="translate(5,123.18359470367432)" y="0" x="0" id="text-entity-EVENT-12434316-4a87-5800-981a-68e9670d1fb3-attr-5-type" class="er entityLabel">start_date</text><rect height="22" width="52.6875" y="112.18359470367432" x="64.796875" class="er attributeBoxOdd"/><text style="dominant-baseline: middle; font-size: 10.2px;" transform="translate(69.796875,123.18359470367432)" y="0" x="0" id="text-entity-EVENT-12434316-4a87-5800-981a-68e9670d1fb3-attr-5-name" class="er entityLabel">DATE</text><rect height="22" width="21.5625" y="112.18359470367432" x="117.484375" class="er attributeBoxOdd"/><text style="dominant-baseline: middle; font-size: 10.2px;" transform="translate(122.484375,123.18359470367432)" y="0" x="0" id="text-entity-EVENT-12434316-4a87-5800-981a-68e9670d1fb3-attr-5-key" class="er entityLabel"/><rect height="22.091797828674316" width="64.796875" y="134.18359470367432" x="0" class="er attributeBoxEven"/><text style="dominant-baseline: middle; font-size: 10.2px;" transform="translate(5,145.22949361801147)" y="0" x="0" id="text-entity-EVENT-12434316-4a87-5800-981a-68e9670d1fb3-attr-6-type" class="er entityLabel">expire_date</text><rect height="22.091797828674316" width="52.6875" y="134.18359470367432" x="64.796875" class="er attributeBoxEven"/><text style="dominant-baseline: middle; font-size: 10.2px;" transform="translate(69.796875,145.22949361801147)" y="0" x="0" id="text-entity-EVENT-12434316-4a87-5800-981a-68e9670d1fb3-attr-6-name" class="er entityLabel">DATE</text><rect height="22.091797828674316" width="21.5625" y="134.18359470367432" x="117.484375" class="er attributeBoxEven"/><text style="dominant-baseline: middle; font-size: 10.2px;" transform="translate(122.484375,145.22949361801147)" y="0" x="0" id="text-entity-EVENT-12434316-4a87-5800-981a-68e9670d1fb3-attr-6-key" class="er entityLabel"/><rect height="22.091797828674316" width="64.796875" y="156.27539253234863" x="0" class="er attributeBoxOdd"/><text style="dominant-baseline: middle; font-size: 10.2px;" transform="translate(5,167.3212914466858)" y="0" x="0" id="text-entity-EVENT-12434316-4a87-5800-981a-68e9670d1fb3-attr-7-type" class="er entityLabel">image</text><rect height="22.091797828674316" width="52.6875" y="156.27539253234863" x="64.796875" class="er attributeBoxOdd"/><text style="dominant-baseline: middle; font-size: 10.2px;" transform="translate(69.796875,167.3212914466858)" y="0" x="0" id="text-entity-EVENT-12434316-4a87-5800-981a-68e9670d1fb3-attr-7-name" class="er entityLabel">STRING</text><rect height="22.091797828674316" width="21.5625" y="156.27539253234863" x="117.484375" class="er attributeBoxOdd"/><text style="dominant-baseline: middle; font-size: 10.2px;" transform="translate(122.484375,167.3212914466858)" y="0" x="0" id="text-entity-EVENT-12434316-4a87-5800-981a-68e9670d1fb3-attr-7-key" class="er entityLabel"/><rect height="22" width="64.796875" y="178.36719036102295" x="0" class="er attributeBoxEven"/><text style="dominant-baseline: middle; font-size: 10.2px;" transform="translate(5,189.36719036102295)" y="0" x="0" id="text-entity-EVENT-12434316-4a87-5800-981a-68e9670d1fb3-attr-8-type" class="er entityLabel">banner</text><rect height="22" width="52.6875" y="178.36719036102295" x="64.796875" class="er attributeBoxEven"/><text style="dominant-baseline: middle; font-size: 10.2px;" transform="translate(69.796875,189.36719036102295)" y="0" x="0" id="text-entity-EVENT-12434316-4a87-5800-981a-68e9670d1fb3-attr-8-name" class="er entityLabel">STRING</text><rect height="22" width="21.5625" y="178.36719036102295" x="117.484375" class="er attributeBoxEven"/><text style="dominant-baseline: middle; font-size: 10.2px;" transform="translate(122.484375,189.36719036102295)" y="0" x="0" id="text-entity-EVENT-12434316-4a87-5800-981a-68e9670d1fb3-attr-8-key" class="er entityLabel"/><rect height="22" width="64.796875" y="200.36719036102295" x="0" class="er attributeBoxOdd"/><text style="dominant-baseline: middle; font-size: 10.2px;" transform="translate(5,211.36719036102295)" y="0" x="0" id="text-entity-EVENT-12434316-4a87-5800-981a-68e9670d1fb3-attr-9-type" class="er entityLabel">location</text><rect height="22" width="52.6875" y="200.36719036102295" x="64.796875" class="er attributeBoxOdd"/><text style="dominant-baseline: middle; font-size: 10.2px;" transform="translate(69.796875,211.36719036102295)" y="0" x="0" id="text-entity-EVENT-12434316-4a87-5800-981a-68e9670d1fb3-attr-9-name" class="er entityLabel">STRING</text><rect height="22" width="21.5625" y="200.36719036102295" x="117.484375" class="er attributeBoxOdd"/><text style="dominant-baseline: middle; font-size: 10.2px;" transform="translate(122.484375,211.36719036102295)" y="0" x="0" id="text-entity-EVENT-12434316-4a87-5800-981a-68e9670d1fb3-attr-9-key" class="er entityLabel"/><rect height="22.091797828674316" width="64.796875" y="222.36719036102295" x="0" class="er attributeBoxEven"/><text style="dominant-baseline: middle; font-size: 10.2px;" transform="translate(5,233.4130892753601)" y="0" x="0" id="text-entity-EVENT-12434316-4a87-5800-981a-68e9670d1fb3-attr-10-type" class="er entityLabel">price</text><rect height="22.091797828674316" width="52.6875" y="222.36719036102295" x="64.796875" class="er attributeBoxEven"/><text style="dominant-baseline: middle; font-size: 10.2px;" transform="translate(69.796875,233.4130892753601)" y="0" x="0" id="text-entity-EVENT-12434316-4a87-5800-981a-68e9670d1fb3-attr-10-name" class="er entityLabel">DECIMAL</text><rect height="22.091797828674316" width="21.5625" y="222.36719036102295" x="117.484375" class="er attributeBoxEven"/><text style="dominant-baseline: middle; font-size: 10.2px;" transform="translate(122.484375,233.4130892753601)" y="0" x="0" id="text-entity-EVENT-12434316-4a87-5800-981a-68e9670d1fb3-attr-10-key" class="er entityLabel"/><rect height="22.091797828674316" width="64.796875" y="244.45898818969727" x="0" class="er attributeBoxOdd"/><text style="dominant-baseline: middle; font-size: 10.2px;" transform="translate(5,255.50488710403442)" y="0" x="0" id="text-entity-EVENT-12434316-4a87-5800-981a-68e9670d1fb3-attr-11-type" class="er entityLabel">quantity</text><rect height="22.091797828674316" width="52.6875" y="244.45898818969727" x="64.796875" class="er attributeBoxOdd"/><text style="dominant-baseline: middle; font-size: 10.2px;" transform="translate(69.796875,255.50488710403442)" y="0" x="0" id="text-entity-EVENT-12434316-4a87-5800-981a-68e9670d1fb3-attr-11-name" class="er entityLabel">INTEGER</text><rect height="22.091797828674316" width="21.5625" y="244.45898818969727" x="117.484375" class="er attributeBoxOdd"/><text style="dominant-baseline: middle; font-size: 10.2px;" transform="translate(122.484375,255.50488710403442)" y="0" x="0" id="text-entity-EVENT-12434316-4a87-5800-981a-68e9670d1fb3-attr-11-key" class="er entityLabel"/><rect height="22" width="64.796875" y="266.5507860183716" x="0" class="er attributeBoxEven"/><text style="dominant-baseline: middle; font-size: 10.2px;" transform="translate(5,277.5507860183716)" y="0" x="0" id="text-entity-EVENT-12434316-4a87-5800-981a-68e9670d1fb3-attr-12-type" class="er entityLabel">featured</text><rect height="22" width="52.6875" y="266.5507860183716" x="64.796875" class="er attributeBoxEven"/><text style="dominant-baseline: middle; font-size: 10.2px;" transform="translate(69.796875,277.5507860183716)" y="0" x="0" id="text-entity-EVENT-12434316-4a87-5800-981a-68e9670d1fb3-attr-12-name" class="er entityLabel">BOOLEAN</text><rect height="22" width="21.5625" y="266.5507860183716" x="117.484375" class="er attributeBoxEven"/><text style="dominant-baseline: middle; font-size: 10.2px;" transform="translate(122.484375,277.5507860183716)" y="0" x="0" id="text-entity-EVENT-12434316-4a87-5800-981a-68e9670d1fb3-attr-12-key" class="er entityLabel"/></g><g transform="translate(142.41796875,408.55078125 )" id="entity-TICKET-62b2a6f9-450b-57ed-a5a2-bdc35d7dd008"><rect height="112.091796875" width="125.453125" y="0" x="0" class="er entityBox"/><text style="dominant-baseline: middle; text-anchor: middle; font-size: 12px;" transform="translate(62.7265625,12)" y="0" x="0" id="text-entity-TICKET-62b2a6f9-450b-57ed-a5a2-bdc35d7dd008" class="er entityLabel">TICKET</text><rect height="22" width="54.8125" y="24" x="0" class="er attributeBoxOdd"/><text style="dominant-baseline: middle; font-size: 10.2px;" transform="translate(5,35)" y="0" x="0" id="text-entity-TICKET-62b2a6f9-450b-57ed-a5a2-bdc35d7dd008-attr-1-type" class="er entityLabel">id</text><rect height="22" width="49.078125" y="24" x="54.8125" class="er attributeBoxOdd"/><text style="dominant-baseline: middle; font-size: 10.2px;" transform="translate(59.8125,35)" y="0" x="0" id="text-entity-TICKET-62b2a6f9-450b-57ed-a5a2-bdc35d7dd008-attr-1-name" class="er entityLabel">INTEGER</text><rect height="22" width="21.5625" y="24" x="103.890625" class="er attributeBoxOdd"/><text style="dominant-baseline: middle; font-size: 10.2px;" transform="translate(108.890625,35)" y="0" x="0" id="text-entity-TICKET-62b2a6f9-450b-57ed-a5a2-bdc35d7dd008-attr-1-key" class="er entityLabel">PK</text><rect height="22.091796875" width="54.8125" y="46" x="0" class="er attributeBoxEven"/><text style="dominant-baseline: middle; font-size: 10.2px;" transform="translate(5,57.0458984375)" y="0" x="0" id="text-entity-TICKET-62b2a6f9-450b-57ed-a5a2-bdc35d7dd008-attr-2-type" class="er entityLabel">buy_price</text><rect height="22.091796875" width="49.078125" y="46" x="54.8125" class="er attributeBoxEven"/><text style="dominant-baseline: middle; font-size: 10.2px;" transform="translate(59.8125,57.0458984375)" y="0" x="0" id="text-entity-TICKET-62b2a6f9-450b-57ed-a5a2-bdc35d7dd008-attr-2-name" class="er entityLabel">DECIMAL</text><rect height="22.091796875" width="21.5625" y="46" x="103.890625" class="er attributeBoxEven"/><text style="dominant-baseline: middle; font-size: 10.2px;" transform="translate(108.890625,57.0458984375)" y="0" x="0" id="text-entity-TICKET-62b2a6f9-450b-57ed-a5a2-bdc35d7dd008-attr-2-key" class="er entityLabel"/><rect height="22" width="54.8125" y="68.091796875" x="0" class="er attributeBoxOdd"/><text style="dominant-baseline: middle; font-size: 10.2px;" transform="translate(5,79.091796875)" y="0" x="0" id="text-entity-TICKET-62b2a6f9-450b-57ed-a5a2-bdc35d7dd008-attr-3-type" class="er entityLabel">event_id</text><rect height="22" width="49.078125" y="68.091796875" x="54.8125" class="er attributeBoxOdd"/><text style="dominant-baseline: middle; font-size: 10.2px;" transform="translate(59.8125,79.091796875)" y="0" x="0" id="text-entity-TICKET-62b2a6f9-450b-57ed-a5a2-bdc35d7dd008-attr-3-name" class="er entityLabel">INTEGER</text><rect height="22" width="21.5625" y="68.091796875" x="103.890625" class="er attributeBoxOdd"/><text style="dominant-baseline: middle; font-size: 10.2px;" transform="translate(108.890625,79.091796875)" y="0" x="0" id="text-entity-TICKET-62b2a6f9-450b-57ed-a5a2-bdc35d7dd008-attr-3-key" class="er entityLabel">FK</text><rect height="22" width="54.8125" y="90.091796875" x="0" class="er attributeBoxEven"/><text style="dominant-baseline: middle; font-size: 10.2px;" transform="translate(5,101.091796875)" y="0" x="0" id="text-entity-TICKET-62b2a6f9-450b-57ed-a5a2-bdc35d7dd008-attr-4-type" class="er entityLabel">user_id</text><rect height="22" width="49.078125" y="90.091796875" x="54.8125" class="er attributeBoxEven"/><text style="dominant-baseline: middle; font-size: 10.2px;" transform="translate(59.8125,101.091796875)" y="0" x="0" id="text-entity-TICKET-62b2a6f9-450b-57ed-a5a2-bdc35d7dd008-attr-4-name" class="er entityLabel">INTEGER</text><rect height="22" width="21.5625" y="90.091796875" x="103.890625" class="er attributeBoxEven"/><text style="dominant-baseline: middle; font-size: 10.2px;" transform="translate(108.890625,101.091796875)" y="0" x="0" id="text-entity-TICKET-62b2a6f9-450b-57ed-a5a2-bdc35d7dd008-attr-4-key" class="er entityLabel">FK</text></g><g transform="translate(259.046875,97.2294921875 )" id="entity-USER-6e7e2962-0c6f-577d-a7fd-2ce3a0cfd2c8"><rect height="134.091796875" width="123.4375" y="0" x="0" class="er entityBox"/><text style="dominant-baseline: middle; text-anchor: middle; font-size: 12px;" transform="translate(61.71875,12)" y="0" x="0" id="text-entity-USER-6e7e2962-0c6f-577d-a7fd-2ce3a0cfd2c8" class="er entityLabel">USER</text><rect height="22" width="52.828125" y="24" x="0" class="er attributeBoxOdd"/><text style="dominant-baseline: middle; font-size: 10.2px;" transform="translate(5,35)" y="0" x="0" id="text-entity-USER-6e7e2962-0c6f-577d-a7fd-2ce3a0cfd2c8-attr-1-type" class="er entityLabel">id</text><rect height="22" width="49.046875" y="24" x="52.828125" class="er attributeBoxOdd"/><text style="dominant-baseline: middle; font-size: 10.2px;" transform="translate(57.828125,35)" y="0" x="0" id="text-entity-USER-6e7e2962-0c6f-577d-a7fd-2ce3a0cfd2c8-attr-1-name" class="er entityLabel">INTEGER</text><rect height="22" width="21.5625" y="24" x="101.875" class="er attributeBoxOdd"/><text style="dominant-baseline: middle; font-size: 10.2px;" transform="translate(106.875,35)" y="0" x="0" id="text-entity-USER-6e7e2962-0c6f-577d-a7fd-2ce3a0cfd2c8-attr-1-key" class="er entityLabel">PK</text><rect height="22" width="52.828125" y="46" x="0" class="er attributeBoxEven"/><text style="dominant-baseline: middle; font-size: 10.2px;" transform="translate(5,57)" y="0" x="0" id="text-entity-USER-6e7e2962-0c6f-577d-a7fd-2ce3a0cfd2c8-attr-2-type" class="er entityLabel">fullname</text><rect height="22" width="49.046875" y="46" x="52.828125" class="er attributeBoxEven"/><text style="dominant-baseline: middle; font-size: 10.2px;" transform="translate(57.828125,57)" y="0" x="0" id="text-entity-USER-6e7e2962-0c6f-577d-a7fd-2ce3a0cfd2c8-attr-2-name" class="er entityLabel">STRING</text><rect height="22" width="21.5625" y="46" x="101.875" class="er attributeBoxEven"/><text style="dominant-baseline: middle; font-size: 10.2px;" transform="translate(106.875,57)" y="0" x="0" id="text-entity-USER-6e7e2962-0c6f-577d-a7fd-2ce3a0cfd2c8-attr-2-key" class="er entityLabel"/><rect height="22" width="52.828125" y="68" x="0" class="er attributeBoxOdd"/><text style="dominant-baseline: middle; font-size: 10.2px;" transform="translate(5,79)" y="0" x="0" id="text-entity-USER-6e7e2962-0c6f-577d-a7fd-2ce3a0cfd2c8-attr-3-type" class="er entityLabel">birthdate</text><rect height="22" width="49.046875" y="68" x="52.828125" class="er attributeBoxOdd"/><text style="dominant-baseline: middle; font-size: 10.2px;" transform="translate(57.828125,79)" y="0" x="0" id="text-entity-USER-6e7e2962-0c6f-577d-a7fd-2ce3a0cfd2c8-attr-3-name" class="er entityLabel">DATE</text><rect height="22" width="21.5625" y="68" x="101.875" class="er attributeBoxOdd"/><text style="dominant-baseline: middle; font-size: 10.2px;" transform="translate(106.875,79)" y="0" x="0" id="text-entity-USER-6e7e2962-0c6f-577d-a7fd-2ce3a0cfd2c8-attr-3-key" class="er entityLabel"/><rect height="22" width="52.828125" y="90" x="0" class="er attributeBoxEven"/><text style="dominant-baseline: middle; font-size: 10.2px;" transform="translate(5,101)" y="0" x="0" id="text-entity-USER-6e7e2962-0c6f-577d-a7fd-2ce3a0cfd2c8-attr-4-type" class="er entityLabel">email</text><rect height="22" width="49.046875" y="90" x="52.828125" class="er attributeBoxEven"/><text style="dominant-baseline: middle; font-size: 10.2px;" transform="translate(57.828125,101)" y="0" x="0" id="text-entity-USER-6e7e2962-0c6f-577d-a7fd-2ce3a0cfd2c8-attr-4-name" class="er entityLabel">STRING</text><rect height="22" width="21.5625" y="90" x="101.875" class="er attributeBoxEven"/><text style="dominant-baseline: middle; font-size: 10.2px;" transform="translate(106.875,101)" y="0" x="0" id="text-entity-USER-6e7e2962-0c6f-577d-a7fd-2ce3a0cfd2c8-attr-4-key" class="er entityLabel"/><rect height="22.091796875" width="52.828125" y="112" x="0" class="er attributeBoxOdd"/><text style="dominant-baseline: middle; font-size: 10.2px;" transform="translate(5,123.0458984375)" y="0" x="0" id="text-entity-USER-6e7e2962-0c6f-577d-a7fd-2ce3a0cfd2c8-attr-5-type" class="er entityLabel">password</text><rect height="22.091796875" width="49.046875" y="112" x="52.828125" class="er attributeBoxOdd"/><text style="dominant-baseline: middle; font-size: 10.2px;" transform="translate(57.828125,123.0458984375)" y="0" x="0" id="text-entity-USER-6e7e2962-0c6f-577d-a7fd-2ce3a0cfd2c8-attr-5-name" class="er entityLabel">STRING</text><rect height="22.091796875" width="21.5625" y="112" x="101.875" class="er attributeBoxOdd"/><text style="dominant-baseline: middle; font-size: 10.2px;" transform="translate(106.875,123.0458984375)" y="0" x="0" id="text-entity-USER-6e7e2962-0c6f-577d-a7fd-2ce3a0cfd2c8-attr-5-key" class="er entityLabel"/></g><g transform="translate(482.484375,119.2294921875 )" id="entity-SESSION-8f2b9dc0-ba92-59b4-9121-ff71fe9aae8d"><rect height="90.09179782867432" width="107.5" y="0" x="0" class="er entityBox"/><text style="dominant-baseline: middle; text-anchor: middle; font-size: 12px;" transform="translate(53.75,12)" y="0" x="0" id="text-entity-SESSION-8f2b9dc0-ba92-59b4-9121-ff71fe9aae8d" class="er entityLabel">SESSION</text><rect height="22" width="42.921875" y="24" x="0" class="er attributeBoxOdd"/><text style="dominant-baseline: middle; font-size: 10.2px;" transform="translate(5,35)" y="0" x="0" id="text-entity-SESSION-8f2b9dc0-ba92-59b4-9121-ff71fe9aae8d-attr-1-type" class="er entityLabel">sid</text><rect height="22" width="43.015625" y="24" x="42.921875" class="er attributeBoxOdd"/><text style="dominant-baseline: middle; font-size: 10.2px;" transform="translate(47.921875,35)" y="0" x="0" id="text-entity-SESSION-8f2b9dc0-ba92-59b4-9121-ff71fe9aae8d-attr-1-name" class="er entityLabel">STRING</text><rect height="22" width="21.5625" y="24" x="85.9375" class="er attributeBoxOdd"/><text style="dominant-baseline: middle; font-size: 10.2px;" transform="translate(90.9375,35)" y="0" x="0" id="text-entity-SESSION-8f2b9dc0-ba92-59b4-9121-ff71fe9aae8d-attr-1-key" class="er entityLabel">PK</text><rect height="22.091797828674316" width="42.921875" y="46" x="0" class="er attributeBoxEven"/><text style="dominant-baseline: middle; font-size: 10.2px;" transform="translate(5,57.04589891433716)" y="0" x="0" id="text-entity-SESSION-8f2b9dc0-ba92-59b4-9121-ff71fe9aae8d-attr-2-type" class="er entityLabel">expires</text><rect height="22.091797828674316" width="43.015625" y="46" x="42.921875" class="er attributeBoxEven"/><text style="dominant-baseline: middle; font-size: 10.2px;" transform="translate(47.921875,57.04589891433716)" y="0" x="0" id="text-entity-SESSION-8f2b9dc0-ba92-59b4-9121-ff71fe9aae8d-attr-2-name" class="er entityLabel">DATE</text><rect height="22.091797828674316" width="21.5625" y="46" x="85.9375" class="er attributeBoxEven"/><text style="dominant-baseline: middle; font-size: 10.2px;" transform="translate(90.9375,57.04589891433716)" y="0" x="0" id="text-entity-SESSION-8f2b9dc0-ba92-59b4-9121-ff71fe9aae8d-attr-2-key" class="er entityLabel"/><rect height="22" width="42.921875" y="68.09179782867432" x="0" class="er attributeBoxOdd"/><text style="dominant-baseline: middle; font-size: 10.2px;" transform="translate(5,79.09179782867432)" y="0" x="0" id="text-entity-SESSION-8f2b9dc0-ba92-59b4-9121-ff71fe9aae8d-attr-3-type" class="er entityLabel">data</text><rect height="22" width="43.015625" y="68.09179782867432" x="42.921875" class="er attributeBoxOdd"/><text style="dominant-baseline: middle; font-size: 10.2px;" transform="translate(47.921875,79.09179782867432)" y="0" x="0" id="text-entity-SESSION-8f2b9dc0-ba92-59b4-9121-ff71fe9aae8d-attr-3-name" class="er entityLabel">TEXT</text><rect height="22" width="21.5625" y="68.09179782867432" x="85.9375" class="er attributeBoxOdd"/><text style="dominant-baseline: middle; font-size: 10.2px;" transform="translate(90.9375,79.09179782867432)" y="0" x="0" id="text-entity-SESSION-8f2b9dc0-ba92-59b4-9121-ff71fe9aae8d-attr-3-key" class="er entityLabel"/></g><rect height="14" width="45.015625" y="358.5234375" x="80.39872741699219" class="er relationshipLabelBox"/><text style="text-anchor: middle; dominant-baseline: middle; font-size: 12px;" y="365.5234375" x="102.90653991699219" id="rel1" class="er relationshipLabel">hasMany</text><rect height="14" width="45.015625" y="320.98797607421875" x="293.3742370605469" class="er relationshipLabelBox"/><text style="text-anchor: middle; dominant-baseline: middle; font-size: 12px;" y="327.98797607421875" x="315.8820495605469" id="rel2" class="er relationshipLabel">hasMany</text></svg>