<svg aria-roledescription="er" role="graphics-document document" viewBox="0 0 401.515625 576.826171875" style="max-width: 401.516px; background-color: white;" xmlns:xlink="http://www.w3.org/1999/xlink" xmlns="http://www.w3.org/2000/svg" width="100%" id="my-svg"><style>#my-svg{font-family:"trebuchet ms",verdana,arial,sans-serif;font-size:16px;fill:#333;}#my-svg .error-icon{fill:#552222;}#my-svg .error-text{fill:#552222;stroke:#552222;}#my-svg .edge-thickness-normal{stroke-width:1px;}#my-svg .edge-thickness-thick{stroke-width:3.5px;}#my-svg .edge-pattern-solid{stroke-dasharray:0;}#my-svg .edge-thickness-invisible{stroke-width:0;fill:none;}#my-svg .edge-pattern-dashed{stroke-dasharray:3;}#my-svg .edge-pattern-dotted{stroke-dasharray:2;}#my-svg .marker{fill:#333333;stroke:#333333;}#my-svg .marker.cross{stroke:#333333;}#my-svg svg{font-family:"trebuchet ms",verdana,arial,sans-serif;font-size:16px;}#my-svg p{margin:0;}#my-svg .entityBox{fill:#ECECFF;stroke:#9370DB;}#my-svg .attributeBoxOdd{fill:#ffffff;stroke:#9370DB;}#my-svg .attributeBoxEven{fill:#f2f2f2;stroke:#9370DB;}#my-svg .relationshipLabelBox{fill:hsl(80, 100%, 96.2745098039%);opacity:0.7;background-color:hsl(80, 100%, 96.2745098039%);}#my-svg .relationshipLabelBox rect{opacity:0.5;}#my-svg .relationshipLine{stroke:#333333;}#my-svg .entityTitleText{text-anchor:middle;font-size:18px;fill:#333;}#my-svg #MD_PARENT_START{fill:#f5f5f5!important;stroke:#333333!important;stroke-width:1;}#my-svg #MD_PARENT_END{fill:#f5f5f5!important;stroke:#333333!important;stroke-width:1;}#my-svg :root{--mermaid-font-family:"trebuchet ms",verdana,arial,sans-serif;}</style><g/><defs><marker orient="auto" markerHeight="240" markerWidth="190" refY="7" refX="0" id="MD_PARENT_START"><path d="M 18,7 L9,13 L1,7 L9,1 Z"/></marker></defs><defs><marker orient="auto" markerHeight="28" markerWidth="20" refY="7" refX="19" id="MD_PARENT_END"><path d="M 18,7 L9,13 L1,7 L9,1 Z"/></marker></defs><defs><marker orient="auto" markerHeight="18" markerWidth="18" refY="9" refX="0" id="ONLY_ONE_START"><path d="M9,0 L9,18 M15,0 L15,18" fill="none" stroke="gray"/></marker></defs><defs><marker orient="auto" markerHeight="18" markerWidth="18" refY="9" refX="18" id="ONLY_ONE_END"><path d="M3,0 L3,18 M9,0 L9,18" fill="none" stroke="gray"/></marker></defs><defs><marker orient="auto" markerHeight="18" markerWidth="30" refY="9" refX="0" id="ZERO_OR_ONE_START"><circle r="6" cy="9" cx="21" fill="white" stroke="gray"/><path d="M9,0 L9,18" fill="none" stroke="gray"/></marker></defs><defs><marker orient="auto" markerHeight="18" markerWidth="30" refY="9" refX="30" id="ZERO_OR_ONE_END"><circle r="6" cy="9" cx="9" fill="white" stroke="gray"/><path d="M21,0 L21,18" fill="none" stroke="gray"/></marker></defs><defs><marker orient="auto" markerHeight="36" markerWidth="45" refY="18" refX="18" id="ONE_OR_MORE_START"><path d="M0,18 Q 18,0 36,18 Q 18,36 0,18 M42,9 L42,27" fill="none" stroke="gray"/></marker></defs><defs><marker orient="auto" markerHeight="36" markerWidth="45" refY="18" refX="27" id="ONE_OR_MORE_END"><path d="M3,9 L3,27 M9,18 Q27,0 45,18 Q27,36 9,18" fill="none" stroke="gray"/></marker></defs><defs><marker orient="auto" markerHeight="36" markerWidth="57" refY="18" refX="18" id="ZERO_OR_MORE_START"><circle r="6" cy="18" cx="48" fill="white" stroke="gray"/><path d="M0,18 Q18,0 36,18 Q18,36 0,18" fill="none" stroke="gray"/></marker></defs><defs><marker orient="auto" markerHeight="36" markerWidth="57" refY="18" refX="39" id="ZERO_OR_MORE_END"><circle r="6" cy="18" cx="9" fill="white" stroke="gray"/><path d="M21,18 Q39,0 57,18 Q39,36 21,18" fill="none" stroke="gray"/></marker></defs><path style="stroke: gray; fill: none;" marker-start="url(#ONLY_ONE_START)" marker-end="url(#ZERO_OR_ONE_END)" d="M149.723,132.184L149.723,140.517C149.723,148.85,149.723,165.517,149.723,182.184C149.723,198.85,149.723,215.517,149.723,223.85L149.723,232.184" class="er relationshipLine"/><path style="stroke: gray; fill: none;" marker-start="url(#ONLY_ONE_START)" marker-end="url(#ZERO_OR_MORE_END)" d="M83.554,366.643L75.353,374.976C67.151,383.309,50.747,399.976,46.927,416.643C43.107,433.309,51.871,449.976,56.252,458.309L60.634,466.643" class="er relationshipLine"/><path style="stroke: gray; fill: none;" marker-start="url(#ZERO_OR_MORE_START)" marker-end="url(#ZERO_OR_MORE_END)" d="M227.402,354.477L242.019,364.838C256.635,375.199,285.868,395.921,300.485,418.289C315.102,440.658,315.102,464.673,315.102,476.681L315.102,488.688" class="er relationshipLine"/><path style="stroke: gray; fill: none;" marker-start="url(#ZERO_OR_MORE_START)" marker-end="url(#ONLY_ONE_END)" d="M115.346,466.643L121.075,458.309C126.805,449.976,138.264,433.309,143.993,416.643C149.723,399.976,149.723,383.309,149.723,374.976L149.723,366.643" class="er relationshipLine"/><g transform="translate(83.12890625,20 )" id="entity-USERS-1e82e395-936c-57a7-8ba9-b08f03574b93"><rect height="112.18359565734863" width="133.1875" y="0" x="0" class="er entityBox"/><text style="dominant-baseline: middle; text-anchor: middle; font-size: 12px;" transform="translate(66.59375,12)" y="0" x="0" id="text-entity-USERS-1e82e395-936c-57a7-8ba9-b08f03574b93" class="er entityLabel">USERS</text><rect height="22" width="51.640625" y="24" x="0" class="er attributeBoxOdd"/><text style="dominant-baseline: middle; font-size: 10.2px;" transform="translate(5,35)" y="0" x="0" id="text-entity-USERS-1e82e395-936c-57a7-8ba9-b08f03574b93-attr-1-type" class="er entityLabel">int</text><rect height="22" width="59.984375" y="24" x="51.640625" class="er attributeBoxOdd"/><text style="dominant-baseline: middle; font-size: 10.2px;" transform="translate(56.640625,35)" y="0" x="0" id="text-entity-USERS-1e82e395-936c-57a7-8ba9-b08f03574b93-attr-1-name" class="er entityLabel">idUsers</text><rect height="22" width="21.5625" y="24" x="111.625" class="er attributeBoxOdd"/><text style="dominant-baseline: middle; font-size: 10.2px;" transform="translate(116.625,35)" y="0" x="0" id="text-entity-USERS-1e82e395-936c-57a7-8ba9-b08f03574b93-attr-1-key" class="er entityLabel">PK</text><rect height="22.091797828674316" width="51.640625" y="46" x="0" class="er attributeBoxEven"/><text style="dominant-baseline: middle; font-size: 10.2px;" transform="translate(5,57.04589891433716)" y="0" x="0" id="text-entity-USERS-1e82e395-936c-57a7-8ba9-b08f03574b93-attr-2-type" class="er entityLabel">string</text><rect height="22.091797828674316" width="59.984375" y="46" x="51.640625" class="er attributeBoxEven"/><text style="dominant-baseline: middle; font-size: 10.2px;" transform="translate(56.640625,57.04589891433716)" y="0" x="0" id="text-entity-USERS-1e82e395-936c-57a7-8ba9-b08f03574b93-attr-2-name" class="er entityLabel">name</text><rect height="22.091797828674316" width="21.5625" y="46" x="111.625" class="er attributeBoxEven"/><text style="dominant-baseline: middle; font-size: 10.2px;" transform="translate(116.625,57.04589891433716)" y="0" x="0" id="text-entity-USERS-1e82e395-936c-57a7-8ba9-b08f03574b93-attr-2-key" class="er entityLabel"/><rect height="22.091797828674316" width="51.640625" y="68.09179782867432" x="0" class="er attributeBoxOdd"/><text style="dominant-baseline: middle; font-size: 10.2px;" transform="translate(5,79.13769674301147)" y="0" x="0" id="text-entity-USERS-1e82e395-936c-57a7-8ba9-b08f03574b93-attr-3-type" class="er entityLabel">string</text><rect height="22.091797828674316" width="59.984375" y="68.09179782867432" x="51.640625" class="er attributeBoxOdd"/><text style="dominant-baseline: middle; font-size: 10.2px;" transform="translate(56.640625,79.13769674301147)" y="0" x="0" id="text-entity-USERS-1e82e395-936c-57a7-8ba9-b08f03574b93-attr-3-name" class="er entityLabel">email</text><rect height="22.091797828674316" width="21.5625" y="68.09179782867432" x="111.625" class="er attributeBoxOdd"/><text style="dominant-baseline: middle; font-size: 10.2px;" transform="translate(116.625,79.13769674301147)" y="0" x="0" id="text-entity-USERS-1e82e395-936c-57a7-8ba9-b08f03574b93-attr-3-key" class="er entityLabel"/><rect height="22" width="51.640625" y="90.18359565734863" x="0" class="er attributeBoxEven"/><text style="dominant-baseline: middle; font-size: 10.2px;" transform="translate(5,101.18359565734863)" y="0" x="0" id="text-entity-USERS-1e82e395-936c-57a7-8ba9-b08f03574b93-attr-4-type" class="er entityLabel">datetime</text><rect height="22" width="59.984375" y="90.18359565734863" x="51.640625" class="er attributeBoxEven"/><text style="dominant-baseline: middle; font-size: 10.2px;" transform="translate(56.640625,101.18359565734863)" y="0" x="0" id="text-entity-USERS-1e82e395-936c-57a7-8ba9-b08f03574b93-attr-4-name" class="er entityLabel">created_at</text><rect height="22" width="21.5625" y="90.18359565734863" x="111.625" class="er attributeBoxEven"/><text style="dominant-baseline: middle; font-size: 10.2px;" transform="translate(116.625,101.18359565734863)" y="0" x="0" id="text-entity-USERS-1e82e395-936c-57a7-8ba9-b08f03574b93-attr-4-key" class="er entityLabel"/></g><g transform="translate(72.04296875,232.18359375 )" id="entity-SHOPS-e5b595c4-bca4-54e2-9b4b-b15b28b5e747"><rect height="134.45898818969727" width="155.359375" y="0" x="0" class="er entityBox"/><text style="dominant-baseline: middle; text-anchor: middle; font-size: 12px;" transform="translate(77.6796875,12)" y="0" x="0" id="text-entity-SHOPS-e5b595c4-bca4-54e2-9b4b-b15b28b5e747" class="er entityLabel">SHOPS</text><rect height="22.091796875" width="35.75" y="24" x="0" class="er attributeBoxOdd"/><text style="dominant-baseline: middle; font-size: 10.2px;" transform="translate(5,35.0458984375)" y="0" x="0" id="text-entity-SHOPS-e5b595c4-bca4-54e2-9b4b-b15b28b5e747-attr-1-type" class="er entityLabel">int</text><rect height="22.091796875" width="98.046875" y="24" x="35.75" class="er attributeBoxOdd"/><text style="dominant-baseline: middle; font-size: 10.2px;" transform="translate(40.75,35.0458984375)" y="0" x="0" id="text-entity-SHOPS-e5b595c4-bca4-54e2-9b4b-b15b28b5e747-attr-1-name" class="er entityLabel">idshops</text><rect height="22.091796875" width="21.5625" y="24" x="133.796875" class="er attributeBoxOdd"/><text style="dominant-baseline: middle; font-size: 10.2px;" transform="translate(138.796875,35.0458984375)" y="0" x="0" id="text-entity-SHOPS-e5b595c4-bca4-54e2-9b4b-b15b28b5e747-attr-1-key" class="er entityLabel">PK</text><rect height="22.091797828674316" width="35.75" y="46.091796875" x="0" class="er attributeBoxEven"/><text style="dominant-baseline: middle; font-size: 10.2px;" transform="translate(5,57.13769578933716)" y="0" x="0" id="text-entity-SHOPS-e5b595c4-bca4-54e2-9b4b-b15b28b5e747-attr-2-type" class="er entityLabel">string</text><rect height="22.091797828674316" width="98.046875" y="46.091796875" x="35.75" class="er attributeBoxEven"/><text style="dominant-baseline: middle; font-size: 10.2px;" transform="translate(40.75,57.13769578933716)" y="0" x="0" id="text-entity-SHOPS-e5b595c4-bca4-54e2-9b4b-b15b28b5e747-attr-2-name" class="er entityLabel">shopName</text><rect height="22.091797828674316" width="21.5625" y="46.091796875" x="133.796875" class="er attributeBoxEven"/><text style="dominant-baseline: middle; font-size: 10.2px;" transform="translate(138.796875,57.13769578933716)" y="0" x="0" id="text-entity-SHOPS-e5b595c4-bca4-54e2-9b4b-b15b28b5e747-attr-2-key" class="er entityLabel"/><rect height="22.091797828674316" width="35.75" y="68.18359470367432" x="0" class="er attributeBoxOdd"/><text style="dominant-baseline: middle; font-size: 10.2px;" transform="translate(5,79.22949361801147)" y="0" x="0" id="text-entity-SHOPS-e5b595c4-bca4-54e2-9b4b-b15b28b5e747-attr-3-type" class="er entityLabel">string</text><rect height="22.091797828674316" width="98.046875" y="68.18359470367432" x="35.75" class="er attributeBoxOdd"/><text style="dominant-baseline: middle; font-size: 10.2px;" transform="translate(40.75,79.22949361801147)" y="0" x="0" id="text-entity-SHOPS-e5b595c4-bca4-54e2-9b4b-b15b28b5e747-attr-3-name" class="er entityLabel">shopDescription</text><rect height="22.091797828674316" width="21.5625" y="68.18359470367432" x="133.796875" class="er attributeBoxOdd"/><text style="dominant-baseline: middle; font-size: 10.2px;" transform="translate(138.796875,79.22949361801147)" y="0" x="0" id="text-entity-SHOPS-e5b595c4-bca4-54e2-9b4b-b15b28b5e747-attr-3-key" class="er entityLabel"/><rect height="22.091797828674316" width="35.75" y="90.27539253234863" x="0" class="er attributeBoxEven"/><text style="dominant-baseline: middle; font-size: 10.2px;" transform="translate(5,101.32129144668579)" y="0" x="0" id="text-entity-SHOPS-e5b595c4-bca4-54e2-9b4b-b15b28b5e747-attr-4-type" class="er entityLabel">string</text><rect height="22.091797828674316" width="98.046875" y="90.27539253234863" x="35.75" class="er attributeBoxEven"/><text style="dominant-baseline: middle; font-size: 10.2px;" transform="translate(40.75,101.32129144668579)" y="0" x="0" id="text-entity-SHOPS-e5b595c4-bca4-54e2-9b4b-b15b28b5e747-attr-4-name" class="er entityLabel">ownerName</text><rect height="22.091797828674316" width="21.5625" y="90.27539253234863" x="133.796875" class="er attributeBoxEven"/><text style="dominant-baseline: middle; font-size: 10.2px;" transform="translate(138.796875,101.32129144668579)" y="0" x="0" id="text-entity-SHOPS-e5b595c4-bca4-54e2-9b4b-b15b28b5e747-attr-4-key" class="er entityLabel"/><rect height="22.091797828674316" width="35.75" y="112.36719036102295" x="0" class="er attributeBoxOdd"/><text style="dominant-baseline: middle; font-size: 10.2px;" transform="translate(5,123.41308927536011)" y="0" x="0" id="text-entity-SHOPS-e5b595c4-bca4-54e2-9b4b-b15b28b5e747-attr-5-type" class="er entityLabel">json</text><rect height="22.091797828674316" width="98.046875" y="112.36719036102295" x="35.75" class="er attributeBoxOdd"/><text style="dominant-baseline: middle; font-size: 10.2px;" transform="translate(40.75,123.41308927536011)" y="0" x="0" id="text-entity-SHOPS-e5b595c4-bca4-54e2-9b4b-b15b28b5e747-attr-5-name" class="er entityLabel">contactInformation</text><rect height="22.091797828674316" width="21.5625" y="112.36719036102295" x="133.796875" class="er attributeBoxOdd"/><text style="dominant-baseline: middle; font-size: 10.2px;" transform="translate(138.796875,123.41308927536011)" y="0" x="0" id="text-entity-SHOPS-e5b595c4-bca4-54e2-9b4b-b15b28b5e747-attr-5-key" class="er entityLabel"/></g><g transform="translate(248.6875,488.6884765625 )" id="entity-CATEGORIES-051115c8-8701-5ef2-9611-ff1fd9eaa4b7"><rect height="46.091797828674316" width="132.828125" y="0" x="0" class="er entityBox"/><text style="dominant-baseline: middle; text-anchor: middle; font-size: 12px;" transform="translate(66.4140625,12)" y="0" x="0" id="text-entity-CATEGORIES-051115c8-8701-5ef2-9611-ff1fd9eaa4b7" class="er entityLabel">CATEGORIES</text><rect height="22.091797828674316" width="35.75" y="24" x="0" class="er attributeBoxOdd"/><text style="dominant-baseline: middle; font-size: 10.2px;" transform="translate(5,35.04589891433716)" y="0" x="0" id="text-entity-CATEGORIES-051115c8-8701-5ef2-9611-ff1fd9eaa4b7-attr-1-type" class="er entityLabel">string</text><rect height="22.091797828674316" width="75.515625" y="24" x="35.75" class="er attributeBoxOdd"/><text style="dominant-baseline: middle; font-size: 10.2px;" transform="translate(40.75,35.04589891433716)" y="0" x="0" id="text-entity-CATEGORIES-051115c8-8701-5ef2-9611-ff1fd9eaa4b7-attr-1-name" class="er entityLabel">categoryName</text><rect height="22.091797828674316" width="21.5625" y="24" x="111.265625" class="er attributeBoxOdd"/><text style="dominant-baseline: middle; font-size: 10.2px;" transform="translate(116.265625,35.04589891433716)" y="0" x="0" id="text-entity-CATEGORIES-051115c8-8701-5ef2-9611-ff1fd9eaa4b7-attr-1-key" class="er entityLabel">PK</text></g><g transform="translate(20,466.642578125 )" id="entity-PRODUCTS-362c442a-463b-592a-aa0d-86bc5b21c2f4"><rect height="90.18359470367432" width="128.6875" y="0" x="0" class="er entityBox"/><text style="dominant-baseline: middle; text-anchor: middle; font-size: 12px;" transform="translate(64.34375,12)" y="0" x="0" id="text-entity-PRODUCTS-362c442a-463b-592a-aa0d-86bc5b21c2f4" class="er entityLabel">PRODUCTS</text><rect height="22" width="35.75" y="24" x="0" class="er attributeBoxOdd"/><text style="dominant-baseline: middle; font-size: 10.2px;" transform="translate(5,35)" y="0" x="0" id="text-entity-PRODUCTS-362c442a-463b-592a-aa0d-86bc5b21c2f4-attr-1-type" class="er entityLabel">int</text><rect height="22" width="71.375" y="24" x="35.75" class="er attributeBoxOdd"/><text style="dominant-baseline: middle; font-size: 10.2px;" transform="translate(40.75,35)" y="0" x="0" id="text-entity-PRODUCTS-362c442a-463b-592a-aa0d-86bc5b21c2f4-attr-1-name" class="er entityLabel">idProducts</text><rect height="22" width="21.5625" y="24" x="107.125" class="er attributeBoxOdd"/><text style="dominant-baseline: middle; font-size: 10.2px;" transform="translate(112.125,35)" y="0" x="0" id="text-entity-PRODUCTS-362c442a-463b-592a-aa0d-86bc5b21c2f4-attr-1-key" class="er entityLabel">PK</text><rect height="22.091797828674316" width="35.75" y="46" x="0" class="er attributeBoxEven"/><text style="dominant-baseline: middle; font-size: 10.2px;" transform="translate(5,57.04589891433716)" y="0" x="0" id="text-entity-PRODUCTS-362c442a-463b-592a-aa0d-86bc5b21c2f4-attr-2-type" class="er entityLabel">string</text><rect height="22.091797828674316" width="71.375" y="46" x="35.75" class="er attributeBoxEven"/><text style="dominant-baseline: middle; font-size: 10.2px;" transform="translate(40.75,57.04589891433716)" y="0" x="0" id="text-entity-PRODUCTS-362c442a-463b-592a-aa0d-86bc5b21c2f4-attr-2-name" class="er entityLabel">productName</text><rect height="22.091797828674316" width="21.5625" y="46" x="107.125" class="er attributeBoxEven"/><text style="dominant-baseline: middle; font-size: 10.2px;" transform="translate(112.125,57.04589891433716)" y="0" x="0" id="text-entity-PRODUCTS-362c442a-463b-592a-aa0d-86bc5b21c2f4-attr-2-key" class="er entityLabel"/><rect height="22.091796875" width="35.75" y="68.09179782867432" x="0" class="er attributeBoxOdd"/><text style="dominant-baseline: middle; font-size: 10.2px;" transform="translate(5,79.13769626617432)" y="0" x="0" id="text-entity-PRODUCTS-362c442a-463b-592a-aa0d-86bc5b21c2f4-attr-3-type" class="er entityLabel">int</text><rect height="22.091796875" width="71.375" y="68.09179782867432" x="35.75" class="er attributeBoxOdd"/><text style="dominant-baseline: middle; font-size: 10.2px;" transform="translate(40.75,79.13769626617432)" y="0" x="0" id="text-entity-PRODUCTS-362c442a-463b-592a-aa0d-86bc5b21c2f4-attr-3-name" class="er entityLabel">idshops</text><rect height="22.091796875" width="21.5625" y="68.09179782867432" x="107.125" class="er attributeBoxOdd"/><text style="dominant-baseline: middle; font-size: 10.2px;" transform="translate(112.125,79.13769626617432)" y="0" x="0" id="text-entity-PRODUCTS-362c442a-463b-592a-aa0d-86bc5b21c2f4-attr-3-key" class="er entityLabel">FK</text></g><rect height="14" width="32.609375" y="175.1840057373047" x="133.41831970214844" class="er relationshipLabelBox"/><text style="text-anchor: middle; dominant-baseline: middle; font-size: 12px;" y="182.1840057373047" x="149.72300720214844" id="rel1" class="er relationshipLabel">1-to-1</text><rect height="14" width="55.046875" y="405.0089111328125" x="20.775901794433594" class="er relationshipLabelBox"/><text style="text-anchor: middle; dominant-baseline: middle; font-size: 12px;" y="412.0089111328125" x="48.299339294433594" id="rel2" class="er relationshipLabel">1-to-many</text><rect height="14" width="77.5" y="401.5238037109375" x="254.40423583984375" class="er relationshipLabelBox"/><text style="text-anchor: middle; dominant-baseline: middle; font-size: 12px;" y="408.5238037109375" x="293.15423583984375" id="rel3" class="er relationshipLabel">many-to-many</text><rect height="14" width="55.046875" y="413.0299377441406" x="115.228759765625" class="er relationshipLabelBox"/><text style="text-anchor: middle; dominant-baseline: middle; font-size: 12px;" y="420.0299377441406" x="142.752197265625" id="rel4" class="er relationshipLabel">many-to-1</text></svg>