<svg aria-roledescription="er" role="graphics-document document" viewBox="0 0 205.890625 386.6183776855469" style="max-width: 205.891px; background-color: white;" xmlns:xlink="http://www.w3.org/1999/xlink" xmlns="http://www.w3.org/2000/svg" width="100%" id="my-svg"><style>#my-svg{font-family:"trebuchet ms",verdana,arial,sans-serif;font-size:16px;fill:#333;}#my-svg .error-icon{fill:#552222;}#my-svg .error-text{fill:#552222;stroke:#552222;}#my-svg .edge-thickness-normal{stroke-width:1px;}#my-svg .edge-thickness-thick{stroke-width:3.5px;}#my-svg .edge-pattern-solid{stroke-dasharray:0;}#my-svg .edge-thickness-invisible{stroke-width:0;fill:none;}#my-svg .edge-pattern-dashed{stroke-dasharray:3;}#my-svg .edge-pattern-dotted{stroke-dasharray:2;}#my-svg .marker{fill:#333333;stroke:#333333;}#my-svg .marker.cross{stroke:#333333;}#my-svg svg{font-family:"trebuchet ms",verdana,arial,sans-serif;font-size:16px;}#my-svg p{margin:0;}#my-svg .entityBox{fill:#ECECFF;stroke:#9370DB;}#my-svg .attributeBoxOdd{fill:#ffffff;stroke:#9370DB;}#my-svg .attributeBoxEven{fill:#f2f2f2;stroke:#9370DB;}#my-svg .relationshipLabelBox{fill:hsl(80, 100%, 96.2745098039%);opacity:0.7;background-color:hsl(80, 100%, 96.2745098039%);}#my-svg .relationshipLabelBox rect{opacity:0.5;}#my-svg .relationshipLine{stroke:#333333;}#my-svg .entityTitleText{text-anchor:middle;font-size:18px;fill:#333;}#my-svg #MD_PARENT_START{fill:#f5f5f5!important;stroke:#333333!important;stroke-width:1;}#my-svg #MD_PARENT_END{fill:#f5f5f5!important;stroke:#333333!important;stroke-width:1;}#my-svg :root{--mermaid-font-family:"trebuchet ms",verdana,arial,sans-serif;}</style><g/><defs><marker orient="auto" markerHeight="240" markerWidth="190" refY="7" refX="0" id="MD_PARENT_START"><path d="M 18,7 L9,13 L1,7 L9,1 Z"/></marker></defs><defs><marker orient="auto" markerHeight="28" markerWidth="20" refY="7" refX="19" id="MD_PARENT_END"><path d="M 18,7 L9,13 L1,7 L9,1 Z"/></marker></defs><defs><marker orient="auto" markerHeight="18" markerWidth="18" refY="9" refX="0" id="ONLY_ONE_START"><path d="M9,0 L9,18 M15,0 L15,18" fill="none" stroke="gray"/></marker></defs><defs><marker orient="auto" markerHeight="18" markerWidth="18" refY="9" refX="18" id="ONLY_ONE_END"><path d="M3,0 L3,18 M9,0 L9,18" fill="none" stroke="gray"/></marker></defs><defs><marker orient="auto" markerHeight="18" markerWidth="30" refY="9" refX="0" id="ZERO_OR_ONE_START"><circle r="6" cy="9" cx="21" fill="white" stroke="gray"/><path d="M9,0 L9,18" fill="none" stroke="gray"/></marker></defs><defs><marker orient="auto" markerHeight="18" markerWidth="30" refY="9" refX="30" id="ZERO_OR_ONE_END"><circle r="6" cy="9" cx="9" fill="white" stroke="gray"/><path d="M21,0 L21,18" fill="none" stroke="gray"/></marker></defs><defs><marker orient="auto" markerHeight="36" markerWidth="45" refY="18" refX="18" id="ONE_OR_MORE_START"><path d="M0,18 Q 18,0 36,18 Q 18,36 0,18 M42,9 L42,27" fill="none" stroke="gray"/></marker></defs><defs><marker orient="auto" markerHeight="36" markerWidth="45" refY="18" refX="27" id="ONE_OR_MORE_END"><path d="M3,9 L3,27 M9,18 Q27,0 45,18 Q27,36 9,18" fill="none" stroke="gray"/></marker></defs><defs><marker orient="auto" markerHeight="36" markerWidth="57" refY="18" refX="18" id="ZERO_OR_MORE_START"><circle r="6" cy="18" cx="48" fill="white" stroke="gray"/><path d="M0,18 Q18,0 36,18 Q18,36 0,18" fill="none" stroke="gray"/></marker></defs><defs><marker orient="auto" markerHeight="36" markerWidth="57" refY="18" refX="39" id="ZERO_OR_MORE_END"><circle r="6" cy="18" cx="9" fill="white" stroke="gray"/><path d="M21,18 Q39,0 57,18 Q39,36 21,18" fill="none" stroke="gray"/></marker></defs><path style="stroke: gray; fill: none;" marker-start="url(#ONLY_ONE_START)" marker-end="url(#ZERO_OR_MORE_END)" d="M102.945,154.263L102.945,162.597C102.945,170.93,102.945,187.597,102.945,204.263C102.945,220.93,102.945,237.597,102.945,245.93L102.945,254.263" class="er relationshipLine"/><g transform="translate(27.5625,20 )" id="entity-user-dad033c9-7a45-5f6a-ab5a-b5def405b2a6"><rect height="134.26328468322754" width="150.765625" y="0" x="0" class="er entityBox"/><text style="dominant-baseline: middle; text-anchor: middle; font-size: 12px;" transform="translate(75.3828125,12)" y="0" x="0" id="text-entity-user-dad033c9-7a45-5f6a-ab5a-b5def405b2a6" class="er entityLabel">user</text><rect height="22" width="53.9375" y="24" x="0" class="er attributeBoxOdd"/><text style="dominant-baseline: middle; font-size: 10.2px;" transform="translate(5,35)" y="0" x="0" id="text-entity-user-dad033c9-7a45-5f6a-ab5a-b5def405b2a6-attr-1-type" class="er entityLabel">int</text><rect height="22" width="74.328125" y="24" x="53.9375" class="er attributeBoxOdd"/><text style="dominant-baseline: middle; font-size: 10.2px;" transform="translate(58.9375,35)" y="0" x="0" id="text-entity-user-dad033c9-7a45-5f6a-ab5a-b5def405b2a6-attr-1-name" class="er entityLabel">id</text><rect height="22" width="22.5" y="24" x="128.265625" class="er attributeBoxOdd"/><text style="dominant-baseline: middle; font-size: 10.2px;" transform="translate(133.265625,35)" y="0" x="0" id="text-entity-user-dad033c9-7a45-5f6a-ab5a-b5def405b2a6-attr-1-key" class="er entityLabel">PK</text><rect height="22" width="53.9375" y="46" x="0" class="er attributeBoxEven"/><text style="dominant-baseline: middle; font-size: 10.2px;" transform="translate(5,57)" y="0" x="0" id="text-entity-user-dad033c9-7a45-5f6a-ab5a-b5def405b2a6-attr-2-type" class="er entityLabel">UUID</text><rect height="22" width="74.328125" y="46" x="53.9375" class="er attributeBoxEven"/><text style="dominant-baseline: middle; font-size: 10.2px;" transform="translate(58.9375,57)" y="0" x="0" id="text-entity-user-dad033c9-7a45-5f6a-ab5a-b5def405b2a6-attr-2-name" class="er entityLabel">alternaitve_id</text><rect height="22" width="22.5" y="46" x="128.265625" class="er attributeBoxEven"/><text style="dominant-baseline: middle; font-size: 10.2px;" transform="translate(133.265625,57)" y="0" x="0" id="text-entity-user-dad033c9-7a45-5f6a-ab5a-b5def405b2a6-attr-2-key" class="er entityLabel">UK</text><rect height="22.13164234161377" width="53.9375" y="68" x="0" class="er attributeBoxOdd"/><text style="dominant-baseline: middle; font-size: 10.2px;" transform="translate(5,79.06582117080688)" y="0" x="0" id="text-entity-user-dad033c9-7a45-5f6a-ab5a-b5def405b2a6-attr-3-type" class="er entityLabel">string(69)</text><rect height="22.13164234161377" width="74.328125" y="68" x="53.9375" class="er attributeBoxOdd"/><text style="dominant-baseline: middle; font-size: 10.2px;" transform="translate(58.9375,79.06582117080688)" y="0" x="0" id="text-entity-user-dad033c9-7a45-5f6a-ab5a-b5def405b2a6-attr-3-name" class="er entityLabel">name</text><rect height="22.13164234161377" width="22.5" y="68" x="128.265625" class="er attributeBoxOdd"/><text style="dominant-baseline: middle; font-size: 10.2px;" transform="translate(133.265625,79.06582117080688)" y="0" x="0" id="text-entity-user-dad033c9-7a45-5f6a-ab5a-b5def405b2a6-attr-3-key" class="er entityLabel"/><rect height="22.13164234161377" width="53.9375" y="90.13164234161377" x="0" class="er attributeBoxEven"/><text style="dominant-baseline: middle; font-size: 10.2px;" transform="translate(5,101.19746351242065)" y="0" x="0" id="text-entity-user-dad033c9-7a45-5f6a-ab5a-b5def405b2a6-attr-4-type" class="er entityLabel">string(69)</text><rect height="22.13164234161377" width="74.328125" y="90.13164234161377" x="53.9375" class="er attributeBoxEven"/><text style="dominant-baseline: middle; font-size: 10.2px;" transform="translate(58.9375,101.19746351242065)" y="0" x="0" id="text-entity-user-dad033c9-7a45-5f6a-ab5a-b5def405b2a6-attr-4-name" class="er entityLabel">password</text><rect height="22.13164234161377" width="22.5" y="90.13164234161377" x="128.265625" class="er attributeBoxEven"/><text style="dominant-baseline: middle; font-size: 10.2px;" transform="translate(133.265625,101.19746351242065)" y="0" x="0" id="text-entity-user-dad033c9-7a45-5f6a-ab5a-b5def405b2a6-attr-4-key" class="er entityLabel"/><rect height="22" width="53.9375" y="112.26328468322754" x="0" class="er attributeBoxOdd"/><text style="dominant-baseline: middle; font-size: 10.2px;" transform="translate(5,123.26328468322754)" y="0" x="0" id="text-entity-user-dad033c9-7a45-5f6a-ab5a-b5def405b2a6-attr-5-type" class="er entityLabel">bool</text><rect height="22" width="74.328125" y="112.26328468322754" x="53.9375" class="er attributeBoxOdd"/><text style="dominant-baseline: middle; font-size: 10.2px;" transform="translate(58.9375,123.26328468322754)" y="0" x="0" id="text-entity-user-dad033c9-7a45-5f6a-ab5a-b5def405b2a6-attr-5-name" class="er entityLabel">remember</text><rect height="22" width="22.5" y="112.26328468322754" x="128.265625" class="er attributeBoxOdd"/><text style="dominant-baseline: middle; font-size: 10.2px;" transform="translate(133.265625,123.26328468322754)" y="0" x="0" id="text-entity-user-dad033c9-7a45-5f6a-ab5a-b5def405b2a6-attr-5-key" class="er entityLabel"/></g><g transform="translate(20,254.26329040527344 )" id="entity-sharedaddresses-f754c2a2-00a2-5cf1-8444-c723a7d41a49"><rect height="112.35508155822754" width="165.890625" y="0" x="0" class="er entityBox"/><text style="dominant-baseline: middle; text-anchor: middle; font-size: 12px;" transform="translate(82.9453125,12)" y="0" x="0" id="text-entity-sharedaddresses-f754c2a2-00a2-5cf1-8444-c723a7d41a49" class="er entityLabel">shared-addresses</text><rect height="22" width="59.28125" y="24" x="0" class="er attributeBoxOdd"/><text style="dominant-baseline: middle; font-size: 10.2px;" transform="translate(5,35)" y="0" x="0" id="text-entity-sharedaddresses-f754c2a2-00a2-5cf1-8444-c723a7d41a49-attr-1-type" class="er entityLabel">int</text><rect height="22" width="70.078125" y="24" x="59.28125" class="er attributeBoxOdd"/><text style="dominant-baseline: middle; font-size: 10.2px;" transform="translate(64.28125,35)" y="0" x="0" id="text-entity-sharedaddresses-f754c2a2-00a2-5cf1-8444-c723a7d41a49-attr-1-name" class="er entityLabel">user</text><rect height="22" width="36.53125" y="24" x="129.359375" class="er attributeBoxOdd"/><text style="dominant-baseline: middle; font-size: 10.2px;" transform="translate(134.359375,35)" y="0" x="0" id="text-entity-sharedaddresses-f754c2a2-00a2-5cf1-8444-c723a7d41a49-attr-1-key" class="er entityLabel">PK,FK</text><rect height="22.13164234161377" width="59.28125" y="46" x="0" class="er attributeBoxEven"/><text style="dominant-baseline: middle; font-size: 10.2px;" transform="translate(5,57.065821170806885)" y="0" x="0" id="text-entity-sharedaddresses-f754c2a2-00a2-5cf1-8444-c723a7d41a49-attr-2-type" class="er entityLabel">string(420)</text><rect height="22.13164234161377" width="70.078125" y="46" x="59.28125" class="er attributeBoxEven"/><text style="dominant-baseline: middle; font-size: 10.2px;" transform="translate(64.28125,57.065821170806885)" y="0" x="0" id="text-entity-sharedaddresses-f754c2a2-00a2-5cf1-8444-c723a7d41a49-attr-2-name" class="er entityLabel">device_name</text><rect height="22.13164234161377" width="36.53125" y="46" x="129.359375" class="er attributeBoxEven"/><text style="dominant-baseline: middle; font-size: 10.2px;" transform="translate(134.359375,57.065821170806885)" y="0" x="0" id="text-entity-sharedaddresses-f754c2a2-00a2-5cf1-8444-c723a7d41a49-attr-2-key" class="er entityLabel">PK</text><rect height="22.13164234161377" width="59.28125" y="68.13164234161377" x="0" class="er attributeBoxOdd"/><text style="dominant-baseline: middle; font-size: 10.2px;" transform="translate(5,79.19746351242065)" y="0" x="0" id="text-entity-sharedaddresses-f754c2a2-00a2-5cf1-8444-c723a7d41a49-attr-3-type" class="er entityLabel">string(420)</text><rect height="22.13164234161377" width="70.078125" y="68.13164234161377" x="59.28125" class="er attributeBoxOdd"/><text style="dominant-baseline: middle; font-size: 10.2px;" transform="translate(64.28125,79.19746351242065)" y="0" x="0" id="text-entity-sharedaddresses-f754c2a2-00a2-5cf1-8444-c723a7d41a49-attr-3-name" class="er entityLabel">address</text><rect height="22.13164234161377" width="36.53125" y="68.13164234161377" x="129.359375" class="er attributeBoxOdd"/><text style="dominant-baseline: middle; font-size: 10.2px;" transform="translate(134.359375,79.19746351242065)" y="0" x="0" id="text-entity-sharedaddresses-f754c2a2-00a2-5cf1-8444-c723a7d41a49-attr-3-key" class="er entityLabel"/><rect height="22.091796875" width="59.28125" y="90.26328468322754" x="0" class="er attributeBoxEven"/><text style="dominant-baseline: middle; font-size: 10.2px;" transform="translate(5,101.30918312072754)" y="0" x="0" id="text-entity-sharedaddresses-f754c2a2-00a2-5cf1-8444-c723a7d41a49-attr-4-type" class="er entityLabel">datetime</text><rect height="22.091796875" width="70.078125" y="90.26328468322754" x="59.28125" class="er attributeBoxEven"/><text style="dominant-baseline: middle; font-size: 10.2px;" transform="translate(64.28125,101.30918312072754)" y="0" x="0" id="text-entity-sharedaddresses-f754c2a2-00a2-5cf1-8444-c723a7d41a49-attr-4-name" class="er entityLabel">last_updated</text><rect height="22.091796875" width="36.53125" y="90.26328468322754" x="129.359375" class="er attributeBoxEven"/><text style="dominant-baseline: middle; font-size: 10.2px;" transform="translate(134.359375,101.30918312072754)" y="0" x="0" id="text-entity-sharedaddresses-f754c2a2-00a2-5cf1-8444-c723a7d41a49-attr-4-key" class="er entityLabel"/></g><rect height="14" width="33.796875" y="197.26300048828125" x="86.04656219482422" class="er relationshipLabelBox"/><text style="text-anchor: middle; dominant-baseline: middle; font-size: 12px;" y="204.26300048828125" x="102.94499969482422" id="rel1" class="er relationshipLabel">shares</text></svg>