<svg aria-roledescription="er" role="graphics-document document" viewBox="0 0 474.671875 430.826171875" style="max-width: 474.672px; background-color: white;" xmlns:xlink="http://www.w3.org/1999/xlink" xmlns="http://www.w3.org/2000/svg" width="100%" id="my-svg"><style>#my-svg{font-family:"trebuchet ms",verdana,arial,sans-serif;font-size:16px;fill:#333;}#my-svg .error-icon{fill:#552222;}#my-svg .error-text{fill:#552222;stroke:#552222;}#my-svg .edge-thickness-normal{stroke-width:1px;}#my-svg .edge-thickness-thick{stroke-width:3.5px;}#my-svg .edge-pattern-solid{stroke-dasharray:0;}#my-svg .edge-thickness-invisible{stroke-width:0;fill:none;}#my-svg .edge-pattern-dashed{stroke-dasharray:3;}#my-svg .edge-pattern-dotted{stroke-dasharray:2;}#my-svg .marker{fill:#333333;stroke:#333333;}#my-svg .marker.cross{stroke:#333333;}#my-svg svg{font-family:"trebuchet ms",verdana,arial,sans-serif;font-size:16px;}#my-svg p{margin:0;}#my-svg .entityBox{fill:#ECECFF;stroke:#9370DB;}#my-svg .attributeBoxOdd{fill:#ffffff;stroke:#9370DB;}#my-svg .attributeBoxEven{fill:#f2f2f2;stroke:#9370DB;}#my-svg .relationshipLabelBox{fill:hsl(80, 100%, 96.2745098039%);opacity:0.7;background-color:hsl(80, 100%, 96.2745098039%);}#my-svg .relationshipLabelBox rect{opacity:0.5;}#my-svg .relationshipLine{stroke:#333333;}#my-svg .entityTitleText{text-anchor:middle;font-size:18px;fill:#333;}#my-svg #MD_PARENT_START{fill:#f5f5f5!important;stroke:#333333!important;stroke-width:1;}#my-svg #MD_PARENT_END{fill:#f5f5f5!important;stroke:#333333!important;stroke-width:1;}#my-svg :root{--mermaid-font-family:"trebuchet ms",verdana,arial,sans-serif;}</style><g/><defs><marker orient="auto" markerHeight="240" markerWidth="190" refY="7" refX="0" id="MD_PARENT_START"><path d="M 18,7 L9,13 L1,7 L9,1 Z"/></marker></defs><defs><marker orient="auto" markerHeight="28" markerWidth="20" refY="7" refX="19" id="MD_PARENT_END"><path d="M 18,7 L9,13 L1,7 L9,1 Z"/></marker></defs><defs><marker orient="auto" markerHeight="18" markerWidth="18" refY="9" refX="0" id="ONLY_ONE_START"><path d="M9,0 L9,18 M15,0 L15,18" fill="none" stroke="gray"/></marker></defs><defs><marker orient="auto" markerHeight="18" markerWidth="18" refY="9" refX="18" id="ONLY_ONE_END"><path d="M3,0 L3,18 M9,0 L9,18" fill="none" stroke="gray"/></marker></defs><defs><marker orient="auto" markerHeight="18" markerWidth="30" refY="9" refX="0" id="ZERO_OR_ONE_START"><circle r="6" cy="9" cx="21" fill="white" stroke="gray"/><path d="M9,0 L9,18" fill="none" stroke="gray"/></marker></defs><defs><marker orient="auto" markerHeight="18" markerWidth="30" refY="9" refX="30" id="ZERO_OR_ONE_END"><circle r="6" cy="9" cx="9" fill="white" stroke="gray"/><path d="M21,0 L21,18" fill="none" stroke="gray"/></marker></defs><defs><marker orient="auto" markerHeight="36" markerWidth="45" refY="18" refX="18" id="ONE_OR_MORE_START"><path d="M0,18 Q 18,0 36,18 Q 18,36 0,18 M42,9 L42,27" fill="none" stroke="gray"/></marker></defs><defs><marker orient="auto" markerHeight="36" markerWidth="45" refY="18" refX="27" id="ONE_OR_MORE_END"><path d="M3,9 L3,27 M9,18 Q27,0 45,18 Q27,36 9,18" fill="none" stroke="gray"/></marker></defs><defs><marker orient="auto" markerHeight="36" markerWidth="57" refY="18" refX="18" id="ZERO_OR_MORE_START"><circle r="6" cy="18" cx="48" fill="white" stroke="gray"/><path d="M0,18 Q18,0 36,18 Q18,36 0,18" fill="none" stroke="gray"/></marker></defs><defs><marker orient="auto" markerHeight="36" markerWidth="57" refY="18" refX="39" id="ZERO_OR_MORE_END"><circle r="6" cy="18" cx="9" fill="white" stroke="gray"/><path d="M21,18 Q39,0 57,18 Q39,36 21,18" fill="none" stroke="gray"/></marker></defs><path style="stroke: gray; fill: none;" marker-start="url(#ONLY_ONE_START)" marker-end="url(#ONE_OR_MORE_END)" d="M180.352,132.275L169.857,140.609C159.362,148.942,138.373,165.609,127.878,187.806C117.383,210.003,117.383,237.731,117.383,251.595L117.383,265.459" class="er relationshipLine"/><path style="stroke: gray; fill: none;" marker-start="url(#ONLY_ONE_START)" marker-end="url(#ONLY_ONE_END)" d="M321.75,132.275L332.244,140.609C342.739,148.942,363.729,165.609,374.224,182.275C384.719,198.942,384.719,215.609,384.719,223.942L384.719,232.275" class="er relationshipLine"/><g transform="translate(179.68359375,20 )" id="entity-organization-d01bc0bf-3d35-5382-94e1-22fc6aee0359"><rect height="112.27539348602295" width="142.734375" y="0" x="0" class="er entityBox"/><text style="dominant-baseline: middle; text-anchor: middle; font-size: 12px;" transform="translate(71.3671875,12)" y="0" x="0" id="text-entity-organization-d01bc0bf-3d35-5382-94e1-22fc6aee0359" class="er entityLabel">organization</text><rect height="22" width="113.96875" y="24" x="0" class="er attributeBoxOdd"/><text style="dominant-baseline: middle; font-size: 10.2px;" transform="translate(5,35)" y="0" x="0" id="text-entity-organization-d01bc0bf-3d35-5382-94e1-22fc6aee0359-attr-1-type" class="er entityLabel">id</text><rect height="22" width="28.765625" y="24" x="113.96875" class="er attributeBoxOdd"/><text style="dominant-baseline: middle; font-size: 10.2px;" transform="translate(118.96875,35)" y="0" x="0" id="text-entity-organization-d01bc0bf-3d35-5382-94e1-22fc6aee0359-attr-1-name" class="er entityLabel">int</text><rect height="22.091797828674316" width="113.96875" y="46" x="0" class="er attributeBoxEven"/><text style="dominant-baseline: middle; font-size: 10.2px;" transform="translate(5,57.04589891433716)" y="0" x="0" id="text-entity-organization-d01bc0bf-3d35-5382-94e1-22fc6aee0359-attr-2-type" class="er entityLabel">organization_name</text><rect height="22.091797828674316" width="28.765625" y="46" x="113.96875" class="er attributeBoxEven"/><text style="dominant-baseline: middle; font-size: 10.2px;" transform="translate(118.96875,57.04589891433716)" y="0" x="0" id="text-entity-organization-d01bc0bf-3d35-5382-94e1-22fc6aee0359-attr-2-name" class="er entityLabel">text</text><rect height="22.091797828674316" width="113.96875" y="68.09179782867432" x="0" class="er attributeBoxOdd"/><text style="dominant-baseline: middle; font-size: 10.2px;" transform="translate(5,79.13769674301147)" y="0" x="0" id="text-entity-organization-d01bc0bf-3d35-5382-94e1-22fc6aee0359-attr-3-type" class="er entityLabel">organization_password</text><rect height="22.091797828674316" width="28.765625" y="68.09179782867432" x="113.96875" class="er attributeBoxOdd"/><text style="dominant-baseline: middle; font-size: 10.2px;" transform="translate(118.96875,79.13769674301147)" y="0" x="0" id="text-entity-organization-d01bc0bf-3d35-5382-94e1-22fc6aee0359-attr-3-name" class="er entityLabel">text</text><rect height="22.091797828674316" width="113.96875" y="90.18359565734863" x="0" class="er attributeBoxEven"/><text style="dominant-baseline: middle; font-size: 10.2px;" transform="translate(5,101.22949457168579)" y="0" x="0" id="text-entity-organization-d01bc0bf-3d35-5382-94e1-22fc6aee0359-attr-4-type" class="er entityLabel">organization_email</text><rect height="22.091797828674316" width="28.765625" y="90.18359565734863" x="113.96875" class="er attributeBoxEven"/><text style="dominant-baseline: middle; font-size: 10.2px;" transform="translate(118.96875,101.22949457168579)" y="0" x="0" id="text-entity-organization-d01bc0bf-3d35-5382-94e1-22fc6aee0359-attr-4-name" class="er entityLabel">text</text></g><g transform="translate(20,265.458984375 )" id="entity-module-63992aa8-ee3d-579d-a169-f4651630b1b2"><rect height="112.18359470367432" width="194.765625" y="0" x="0" class="er entityBox"/><text style="dominant-baseline: middle; text-anchor: middle; font-size: 12px;" transform="translate(97.3828125,12)" y="0" x="0" id="text-entity-module-63992aa8-ee3d-579d-a169-f4651630b1b2" class="er entityLabel">module</text><rect height="22" width="80.546875" y="24" x="0" class="er attributeBoxOdd"/><text style="dominant-baseline: middle; font-size: 10.2px;" transform="translate(5,35)" y="0" x="0" id="text-entity-module-63992aa8-ee3d-579d-a169-f4651630b1b2-attr-1-type" class="er entityLabel">id</text><rect height="22" width="114.21875" y="24" x="80.546875" class="er attributeBoxOdd"/><text style="dominant-baseline: middle; font-size: 10.2px;" transform="translate(85.546875,35)" y="0" x="0" id="text-entity-module-63992aa8-ee3d-579d-a169-f4651630b1b2-attr-1-name" class="er entityLabel">int</text><rect height="22.091797828674316" width="80.546875" y="46" x="0" class="er attributeBoxEven"/><text style="dominant-baseline: middle; font-size: 10.2px;" transform="translate(5,57.04589891433716)" y="0" x="0" id="text-entity-module-63992aa8-ee3d-579d-a169-f4651630b1b2-attr-2-type" class="er entityLabel">organization_id</text><rect height="22.091797828674316" width="114.21875" y="46" x="80.546875" class="er attributeBoxEven"/><text style="dominant-baseline: middle; font-size: 10.2px;" transform="translate(85.546875,57.04589891433716)" y="0" x="0" id="text-entity-module-63992aa8-ee3d-579d-a169-f4651630b1b2-attr-2-name" class="er entityLabel">int</text><rect height="22" width="80.546875" y="68.09179782867432" x="0" class="er attributeBoxOdd"/><text style="dominant-baseline: middle; font-size: 10.2px;" transform="translate(5,79.09179782867432)" y="0" x="0" id="text-entity-module-63992aa8-ee3d-579d-a169-f4651630b1b2-attr-3-type" class="er entityLabel">module_name</text><rect height="22" width="114.21875" y="68.09179782867432" x="80.546875" class="er attributeBoxOdd"/><text style="dominant-baseline: middle; font-size: 10.2px;" transform="translate(85.546875,79.09179782867432)" y="0" x="0" id="text-entity-module-63992aa8-ee3d-579d-a169-f4651630b1b2-attr-3-name" class="er entityLabel">text</text><rect height="22.091796875" width="80.546875" y="90.09179782867432" x="0" class="er attributeBoxEven"/><text style="dominant-baseline: middle; font-size: 10.2px;" transform="translate(5,101.13769626617432)" y="0" x="0" id="text-entity-module-63992aa8-ee3d-579d-a169-f4651630b1b2-attr-4-type" class="er entityLabel">notify_when</text><rect height="22.091796875" width="114.21875" y="90.09179782867432" x="80.546875" class="er attributeBoxEven"/><text style="dominant-baseline: middle; font-size: 10.2px;" transform="translate(85.546875,101.13769626617432)" y="0" x="0" id="text-entity-module-63992aa8-ee3d-579d-a169-f4651630b1b2-attr-4-name" class="er entityLabel">notification_frequency</text></g><g transform="translate(314.765625,232.275390625 )" id="entity-job-752a5373-3068-5762-a86e-102c9bd718f5"><rect height="178.5507869720459" width="139.90625" y="0" x="0" class="er entityBox"/><text style="dominant-baseline: middle; text-anchor: middle; font-size: 12px;" transform="translate(69.953125,12)" y="0" x="0" id="text-entity-job-752a5373-3068-5762-a86e-102c9bd718f5" class="er entityLabel">job</text><rect height="22" width="81.234375" y="24" x="0" class="er attributeBoxOdd"/><text style="dominant-baseline: middle; font-size: 10.2px;" transform="translate(5,35)" y="0" x="0" id="text-entity-job-752a5373-3068-5762-a86e-102c9bd718f5-attr-1-type" class="er entityLabel">id</text><rect height="22" width="58.671875" y="24" x="81.234375" class="er attributeBoxOdd"/><text style="dominant-baseline: middle; font-size: 10.2px;" transform="translate(86.234375,35)" y="0" x="0" id="text-entity-job-752a5373-3068-5762-a86e-102c9bd718f5-attr-1-name" class="er entityLabel">int</text><rect height="22.091797828674316" width="81.234375" y="46" x="0" class="er attributeBoxEven"/><text style="dominant-baseline: middle; font-size: 10.2px;" transform="translate(5,57.04589891433716)" y="0" x="0" id="text-entity-job-752a5373-3068-5762-a86e-102c9bd718f5-attr-2-type" class="er entityLabel">organization_id</text><rect height="22.091797828674316" width="58.671875" y="46" x="81.234375" class="er attributeBoxEven"/><text style="dominant-baseline: middle; font-size: 10.2px;" transform="translate(86.234375,57.04589891433716)" y="0" x="0" id="text-entity-job-752a5373-3068-5762-a86e-102c9bd718f5-attr-2-name" class="er entityLabel">int</text><rect height="22.091797828674316" width="81.234375" y="68.09179782867432" x="0" class="er attributeBoxOdd"/><text style="dominant-baseline: middle; font-size: 10.2px;" transform="translate(5,79.13769674301147)" y="0" x="0" id="text-entity-job-752a5373-3068-5762-a86e-102c9bd718f5-attr-3-type" class="er entityLabel">job_name</text><rect height="22.091797828674316" width="58.671875" y="68.09179782867432" x="81.234375" class="er attributeBoxOdd"/><text style="dominant-baseline: middle; font-size: 10.2px;" transform="translate(86.234375,79.13769674301147)" y="0" x="0" id="text-entity-job-752a5373-3068-5762-a86e-102c9bd718f5-attr-3-name" class="er entityLabel">text</text><rect height="22.091797828674316" width="81.234375" y="90.18359565734863" x="0" class="er attributeBoxEven"/><text style="dominant-baseline: middle; font-size: 10.2px;" transform="translate(5,101.22949457168579)" y="0" x="0" id="text-entity-job-752a5373-3068-5762-a86e-102c9bd718f5-attr-4-type" class="er entityLabel">job_description</text><rect height="22.091797828674316" width="58.671875" y="90.18359565734863" x="81.234375" class="er attributeBoxEven"/><text style="dominant-baseline: middle; font-size: 10.2px;" transform="translate(86.234375,101.22949457168579)" y="0" x="0" id="text-entity-job-752a5373-3068-5762-a86e-102c9bd718f5-attr-4-name" class="er entityLabel">text</text><rect height="22.091797828674316" width="81.234375" y="112.27539348602295" x="0" class="er attributeBoxOdd"/><text style="dominant-baseline: middle; font-size: 10.2px;" transform="translate(5,123.32129240036011)" y="0" x="0" id="text-entity-job-752a5373-3068-5762-a86e-102c9bd718f5-attr-5-type" class="er entityLabel">job_starts_at</text><rect height="22.091797828674316" width="58.671875" y="112.27539348602295" x="81.234375" class="er attributeBoxOdd"/><text style="dominant-baseline: middle; font-size: 10.2px;" transform="translate(86.234375,123.32129240036011)" y="0" x="0" id="text-entity-job-752a5373-3068-5762-a86e-102c9bd718f5-attr-5-name" class="er entityLabel">timestamp</text><rect height="22.091797828674316" width="81.234375" y="134.36719131469727" x="0" class="er attributeBoxEven"/><text style="dominant-baseline: middle; font-size: 10.2px;" transform="translate(5,145.41309022903442)" y="0" x="0" id="text-entity-job-752a5373-3068-5762-a86e-102c9bd718f5-attr-6-type" class="er entityLabel">job_last_run</text><rect height="22.091797828674316" width="58.671875" y="134.36719131469727" x="81.234375" class="er attributeBoxEven"/><text style="dominant-baseline: middle; font-size: 10.2px;" transform="translate(86.234375,145.41309022903442)" y="0" x="0" id="text-entity-job-752a5373-3068-5762-a86e-102c9bd718f5-attr-6-name" class="er entityLabel">timestamp</text><rect height="22.091797828674316" width="81.234375" y="156.45898914337158" x="0" class="er attributeBoxOdd"/><text style="dominant-baseline: middle; font-size: 10.2px;" transform="translate(5,167.50488805770874)" y="0" x="0" id="text-entity-job-752a5373-3068-5762-a86e-102c9bd718f5-attr-7-type" class="er entityLabel">job_schedule</text><rect height="22.091797828674316" width="58.671875" y="156.45898914337158" x="81.234375" class="er attributeBoxOdd"/><text style="dominant-baseline: middle; font-size: 10.2px;" transform="translate(86.234375,167.50488805770874)" y="0" x="0" id="text-entity-job-752a5373-3068-5762-a86e-102c9bd718f5-attr-7-name" class="er entityLabel">schedule</text></g><rect height="14" width="17.71875" y="181.67144775390625" x="118.6161117553711" class="er relationshipLabelBox"/><text style="text-anchor: middle; dominant-baseline: middle; font-size: 12px;" y="188.67144775390625" x="127.4754867553711" id="rel1" class="er relationshipLabel">has</text><rect height="14" width="17.71875" y="166.8423614501953" x="359.22650146484375" class="er relationshipLabelBox"/><text style="text-anchor: middle; dominant-baseline: middle; font-size: 12px;" y="173.8423614501953" x="368.08587646484375" id="rel2" class="er relationshipLabel">has</text></svg>