<svg aria-roledescription="er" role="graphics-document document" viewBox="-77.48830795288086 -62 714.86328125 1385.560546875" style="max-width: 714.863px; background-color: white;" xmlns:xlink="http://www.w3.org/1999/xlink" xmlns="http://www.w3.org/2000/svg" width="100%" id="my-svg"><style>#my-svg{font-family:"trebuchet ms",verdana,arial,sans-serif;font-size:16px;fill:#333;}#my-svg .error-icon{fill:#552222;}#my-svg .error-text{fill:#552222;stroke:#552222;}#my-svg .edge-thickness-normal{stroke-width:1px;}#my-svg .edge-thickness-thick{stroke-width:3.5px;}#my-svg .edge-pattern-solid{stroke-dasharray:0;}#my-svg .edge-thickness-invisible{stroke-width:0;fill:none;}#my-svg .edge-pattern-dashed{stroke-dasharray:3;}#my-svg .edge-pattern-dotted{stroke-dasharray:2;}#my-svg .marker{fill:#333333;stroke:#333333;}#my-svg .marker.cross{stroke:#333333;}#my-svg svg{font-family:"trebuchet ms",verdana,arial,sans-serif;font-size:16px;}#my-svg p{margin:0;}#my-svg .entityBox{fill:#ECECFF;stroke:#9370DB;}#my-svg .attributeBoxOdd{fill:#ffffff;stroke:#9370DB;}#my-svg .attributeBoxEven{fill:#f2f2f2;stroke:#9370DB;}#my-svg .relationshipLabelBox{fill:hsl(80, 100%, 96.2745098039%);opacity:0.7;background-color:hsl(80, 100%, 96.2745098039%);}#my-svg .relationshipLabelBox rect{opacity:0.5;}#my-svg .relationshipLine{stroke:#333333;}#my-svg .entityTitleText{text-anchor:middle;font-size:18px;fill:#333;}#my-svg #MD_PARENT_START{fill:#f5f5f5!important;stroke:#333333!important;stroke-width:1;}#my-svg #MD_PARENT_END{fill:#f5f5f5!important;stroke:#333333!important;stroke-width:1;}#my-svg :root{--mermaid-font-family:"trebuchet ms",verdana,arial,sans-serif;}</style><g/><defs><marker orient="auto" markerHeight="240" markerWidth="190" refY="7" refX="0" id="MD_PARENT_START"><path d="M 18,7 L9,13 L1,7 L9,1 Z"/></marker></defs><defs><marker orient="auto" markerHeight="28" markerWidth="20" refY="7" refX="19" id="MD_PARENT_END"><path d="M 18,7 L9,13 L1,7 L9,1 Z"/></marker></defs><defs><marker orient="auto" markerHeight="18" markerWidth="18" refY="9" refX="0" id="ONLY_ONE_START"><path d="M9,0 L9,18 M15,0 L15,18" fill="none" stroke="gray"/></marker></defs><defs><marker orient="auto" markerHeight="18" markerWidth="18" refY="9" refX="18" id="ONLY_ONE_END"><path d="M3,0 L3,18 M9,0 L9,18" fill="none" stroke="gray"/></marker></defs><defs><marker orient="auto" markerHeight="18" markerWidth="30" refY="9" refX="0" id="ZERO_OR_ONE_START"><circle r="6" cy="9" cx="21" fill="white" stroke="gray"/><path d="M9,0 L9,18" fill="none" stroke="gray"/></marker></defs><defs><marker orient="auto" markerHeight="18" markerWidth="30" refY="9" refX="30" id="ZERO_OR_ONE_END"><circle r="6" cy="9" cx="9" fill="white" stroke="gray"/><path d="M21,0 L21,18" fill="none" stroke="gray"/></marker></defs><defs><marker orient="auto" markerHeight="36" markerWidth="45" refY="18" refX="18" id="ONE_OR_MORE_START"><path d="M0,18 Q 18,0 36,18 Q 18,36 0,18 M42,9 L42,27" fill="none" stroke="gray"/></marker></defs><defs><marker orient="auto" markerHeight="36" markerWidth="45" refY="18" refX="27" id="ONE_OR_MORE_END"><path d="M3,9 L3,27 M9,18 Q27,0 45,18 Q27,36 9,18" fill="none" stroke="gray"/></marker></defs><defs><marker orient="auto" markerHeight="36" markerWidth="57" refY="18" refX="18" id="ZERO_OR_MORE_START"><circle r="6" cy="18" cx="48" fill="white" stroke="gray"/><path d="M0,18 Q18,0 36,18 Q18,36 0,18" fill="none" stroke="gray"/></marker></defs><defs><marker orient="auto" markerHeight="36" markerWidth="57" refY="18" refX="39" id="ZERO_OR_MORE_END"><circle r="6" cy="18" cx="9" fill="white" stroke="gray"/><path d="M21,18 Q39,0 57,18 Q39,36 21,18" fill="none" stroke="gray"/></marker></defs><path style="stroke: gray; fill: none;" marker-start="url(#ONE_OR_MORE_START)" marker-end="url(#ONLY_ONE_END)" d="M246.949,383.109L268.559,399.698C290.169,416.287,333.389,449.465,354.999,485.584C376.609,521.704,376.609,560.765,376.609,599.826C376.609,638.887,376.609,677.949,371.939,705.813C367.269,733.676,357.929,750.343,353.259,758.676L348.589,767.01" class="er relationshipLine"/><path style="stroke: gray; fill: none;" marker-start="url(#ONE_OR_MORE_START)" marker-end="url(#ONE_OR_MORE_END)" d="M240.878,421.505L246.833,431.694C252.789,441.884,264.699,462.263,303.988,486.9C343.276,511.536,409.943,540.429,443.276,554.876L476.609,569.322" class="er relationshipLine"/><path style="stroke: gray; fill: none;" marker-start="url(#ONE_OR_MORE_START)" marker-end="url(#ONLY_ONE_END)" d="M546.992,432.643L546.992,440.976C546.992,449.309,546.992,465.976,546.992,486.325C546.992,506.673,546.992,530.704,546.992,542.719L546.992,554.734" class="er relationshipLine"/><path style="stroke: gray; fill: none;" marker-start="url(#ONE_OR_MORE_START)" marker-end="url(#ONE_OR_MORE_END)" d="M155.363,421.505L150.16,431.694C144.957,441.884,134.551,462.263,129.348,480.786C124.145,499.309,124.145,515.976,124.145,524.309L124.145,532.643" class="er relationshipLine"/><path style="stroke: gray; fill: none;" marker-start="url(#ONLY_ONE_START)" marker-end="url(#ONE_OR_MORE_END)" d="M181.957,665.943L189.399,674.454C196.841,682.965,211.725,699.988,224.252,716.832C236.78,733.676,246.95,750.343,252.035,758.676L257.12,767.01" class="er relationshipLine"/><path style="stroke: gray; fill: none;" marker-start="url(#ONE_OR_MORE_START)" marker-end="url(#ONLY_ONE_END)" d="M304.801,923.285L304.801,931.618C304.801,939.952,304.801,956.618,304.801,973.285C304.801,989.952,304.801,1006.618,304.801,1014.952L304.801,1023.285" class="er relationshipLine"/><path style="stroke: gray; fill: none;" marker-start="url(#ONE_OR_MORE_START)" marker-end="url(#ONE_OR_MORE_END)" d="M107.572,667.01L105.516,675.343C103.461,683.676,99.35,700.343,97.294,730.033C95.238,759.722,95.238,802.435,95.238,845.147C95.238,887.86,95.238,930.573,95.238,965.937C95.238,1001.3,95.238,1029.316,95.238,1057.331C95.238,1085.346,95.238,1113.362,93.525,1135.703C91.812,1158.044,88.386,1174.71,86.673,1183.044L84.96,1191.377" class="er relationshipLine"/><path style="stroke: gray; fill: none;" marker-start="url(#ONE_OR_MORE_START)" marker-end="url(#ONLY_ONE_END)" d="M143.527,374.866L113.995,392.828C84.462,410.791,25.397,446.717,-4.135,484.21C-33.668,521.704,-33.668,560.765,-33.668,599.826C-33.668,638.887,-33.668,677.949,-33.668,718.835C-33.668,759.722,-33.668,802.435,-33.668,845.147C-33.668,887.86,-33.668,930.573,-33.668,965.937C-33.668,1001.3,-33.668,1029.316,-33.668,1057.331C-33.668,1085.346,-33.668,1113.362,-24.723,1136.23C-15.779,1159.098,2.111,1176.82,11.055,1185.68L20,1194.541" class="er relationshipLine"/><path style="stroke: gray; fill: none;" marker-start="url(#ONE_OR_MORE_START)" marker-end="url(#ONLY_ONE_END)" d="M304.801,1091.377L304.801,1099.71C304.801,1108.044,304.801,1124.71,275.144,1146.642C245.487,1168.574,186.173,1195.772,156.516,1209.371L126.859,1222.969" class="er relationshipLine"/><path style="stroke: gray; fill: none;" marker-start="url(#ONLY_ONE_START)" marker-end="url(#ONE_OR_MORE_END)" d="M546.992,154.184L546.992,162.517C546.992,170.85,546.992,187.517,546.992,204.184C546.992,220.85,546.992,237.517,546.992,245.85L546.992,254.184" class="er relationshipLine"/><g transform="translate(496.9921875,20 )" id="entity-LEAGUE-a43ba769-492f-5c3a-a22d-31983f41ee59"><rect height="134.18359565734863" width="100" y="0" x="0" class="er entityBox"/><text style="dominant-baseline: middle; text-anchor: middle; font-size: 12px;" transform="translate(50,12)" y="0" x="0" id="text-entity-LEAGUE-a43ba769-492f-5c3a-a22d-31983f41ee59" class="er entityLabel">LEAGUE</text><rect height="22" width="60.8984375" y="24" x="0" class="er attributeBoxOdd"/><text style="dominant-baseline: middle; font-size: 10.2px;" transform="translate(5,35)" y="0" x="0" id="text-entity-LEAGUE-a43ba769-492f-5c3a-a22d-31983f41ee59-attr-1-type" class="er entityLabel">id</text><rect height="22" width="39.1015625" y="24" x="60.8984375" class="er attributeBoxOdd"/><text style="dominant-baseline: middle; font-size: 10.2px;" transform="translate(65.8984375,35)" y="0" x="0" id="text-entity-LEAGUE-a43ba769-492f-5c3a-a22d-31983f41ee59-attr-1-name" class="er entityLabel">UUID</text><rect height="22.091797828674316" width="60.8984375" y="46" x="0" class="er attributeBoxEven"/><text style="dominant-baseline: middle; font-size: 10.2px;" transform="translate(5,57.04589891433716)" y="0" x="0" id="text-entity-LEAGUE-a43ba769-492f-5c3a-a22d-31983f41ee59-attr-2-type" class="er entityLabel">name</text><rect height="22.091797828674316" width="39.1015625" y="46" x="60.8984375" class="er attributeBoxEven"/><text style="dominant-baseline: middle; font-size: 10.2px;" transform="translate(65.8984375,57.04589891433716)" y="0" x="0" id="text-entity-LEAGUE-a43ba769-492f-5c3a-a22d-31983f41ee59-attr-2-name" class="er entityLabel">string</text><rect height="22" width="60.8984375" y="68.09179782867432" x="0" class="er attributeBoxOdd"/><text style="dominant-baseline: middle; font-size: 10.2px;" transform="translate(5,79.09179782867432)" y="0" x="0" id="text-entity-LEAGUE-a43ba769-492f-5c3a-a22d-31983f41ee59-attr-3-type" class="er entityLabel">start_date</text><rect height="22" width="39.1015625" y="68.09179782867432" x="60.8984375" class="er attributeBoxOdd"/><text style="dominant-baseline: middle; font-size: 10.2px;" transform="translate(65.8984375,79.09179782867432)" y="0" x="0" id="text-entity-LEAGUE-a43ba769-492f-5c3a-a22d-31983f41ee59-attr-3-name" class="er entityLabel">Date</text><rect height="22" width="60.8984375" y="90.09179782867432" x="0" class="er attributeBoxEven"/><text style="dominant-baseline: middle; font-size: 10.2px;" transform="translate(5,101.09179782867432)" y="0" x="0" id="text-entity-LEAGUE-a43ba769-492f-5c3a-a22d-31983f41ee59-attr-4-type" class="er entityLabel">end_date</text><rect height="22" width="39.1015625" y="90.09179782867432" x="60.8984375" class="er attributeBoxEven"/><text style="dominant-baseline: middle; font-size: 10.2px;" transform="translate(65.8984375,101.09179782867432)" y="0" x="0" id="text-entity-LEAGUE-a43ba769-492f-5c3a-a22d-31983f41ee59-attr-4-name" class="er entityLabel">Date</text><rect height="22.091797828674316" width="60.8984375" y="112.09179782867432" x="0" class="er attributeBoxOdd"/><text style="dominant-baseline: middle; font-size: 10.2px;" transform="translate(5,123.13769674301147)" y="0" x="0" id="text-entity-LEAGUE-a43ba769-492f-5c3a-a22d-31983f41ee59-attr-5-type" class="er entityLabel">website</text><rect height="22.091797828674316" width="39.1015625" y="112.09179782867432" x="60.8984375" class="er attributeBoxOdd"/><text style="dominant-baseline: middle; font-size: 10.2px;" transform="translate(65.8984375,123.13769674301147)" y="0" x="0" id="text-entity-LEAGUE-a43ba769-492f-5c3a-a22d-31983f41ee59-attr-5-name" class="er entityLabel">string</text></g><g transform="translate(143.52734375,265.3212890625 )" id="entity-PARTICIPANT-64c9b90f-bc54-512c-b40c-100024024616"><rect height="156.18359565734863" width="103.421875" y="0" x="0" class="er entityBox"/><text style="dominant-baseline: middle; text-anchor: middle; font-size: 12px;" transform="translate(51.7109375,12)" y="0" x="0" id="text-entity-PARTICIPANT-64c9b90f-bc54-512c-b40c-100024024616" class="er entityLabel">PARTICIPANT</text><rect height="22" width="67.671875" y="24" x="0" class="er attributeBoxOdd"/><text style="dominant-baseline: middle; font-size: 10.2px;" transform="translate(5,35)" y="0" x="0" id="text-entity-PARTICIPANT-64c9b90f-bc54-512c-b40c-100024024616-attr-1-type" class="er entityLabel">id</text><rect height="22" width="35.75" y="24" x="67.671875" class="er attributeBoxOdd"/><text style="dominant-baseline: middle; font-size: 10.2px;" transform="translate(72.671875,35)" y="0" x="0" id="text-entity-PARTICIPANT-64c9b90f-bc54-512c-b40c-100024024616-attr-1-name" class="er entityLabel">UUID</text><rect height="22.091797828674316" width="67.671875" y="46" x="0" class="er attributeBoxEven"/><text style="dominant-baseline: middle; font-size: 10.2px;" transform="translate(5,57.04589891433716)" y="0" x="0" id="text-entity-PARTICIPANT-64c9b90f-bc54-512c-b40c-100024024616-attr-2-type" class="er entityLabel">name</text><rect height="22.091797828674316" width="35.75" y="46" x="67.671875" class="er attributeBoxEven"/><text style="dominant-baseline: middle; font-size: 10.2px;" transform="translate(72.671875,57.04589891433716)" y="0" x="0" id="text-entity-PARTICIPANT-64c9b90f-bc54-512c-b40c-100024024616-attr-2-name" class="er entityLabel">string</text><rect height="22.091797828674316" width="67.671875" y="68.09179782867432" x="0" class="er attributeBoxOdd"/><text style="dominant-baseline: middle; font-size: 10.2px;" transform="translate(5,79.13769674301147)" y="0" x="0" id="text-entity-PARTICIPANT-64c9b90f-bc54-512c-b40c-100024024616-attr-3-type" class="er entityLabel">contact_info</text><rect height="22.091797828674316" width="35.75" y="68.09179782867432" x="67.671875" class="er attributeBoxOdd"/><text style="dominant-baseline: middle; font-size: 10.2px;" transform="translate(72.671875,79.13769674301147)" y="0" x="0" id="text-entity-PARTICIPANT-64c9b90f-bc54-512c-b40c-100024024616-attr-3-name" class="er entityLabel">string</text><rect height="22" width="67.671875" y="90.18359565734863" x="0" class="er attributeBoxEven"/><text style="dominant-baseline: middle; font-size: 10.2px;" transform="translate(5,101.18359565734863)" y="0" x="0" id="text-entity-PARTICIPANT-64c9b90f-bc54-512c-b40c-100024024616-attr-4-type" class="er entityLabel">wins</text><rect height="22" width="35.75" y="90.18359565734863" x="67.671875" class="er attributeBoxEven"/><text style="dominant-baseline: middle; font-size: 10.2px;" transform="translate(72.671875,101.18359565734863)" y="0" x="0" id="text-entity-PARTICIPANT-64c9b90f-bc54-512c-b40c-100024024616-attr-4-name" class="er entityLabel">int</text><rect height="22" width="67.671875" y="112.18359565734863" x="0" class="er attributeBoxOdd"/><text style="dominant-baseline: middle; font-size: 10.2px;" transform="translate(5,123.18359565734863)" y="0" x="0" id="text-entity-PARTICIPANT-64c9b90f-bc54-512c-b40c-100024024616-attr-5-type" class="er entityLabel">losses</text><rect height="22" width="35.75" y="112.18359565734863" x="67.671875" class="er attributeBoxOdd"/><text style="dominant-baseline: middle; font-size: 10.2px;" transform="translate(72.671875,123.18359565734863)" y="0" x="0" id="text-entity-PARTICIPANT-64c9b90f-bc54-512c-b40c-100024024616-attr-5-name" class="er entityLabel">int</text><rect height="22" width="67.671875" y="134.18359565734863" x="0" class="er attributeBoxEven"/><text style="dominant-baseline: middle; font-size: 10.2px;" transform="translate(5,145.18359565734863)" y="0" x="0" id="text-entity-PARTICIPANT-64c9b90f-bc54-512c-b40c-100024024616-attr-6-type" class="er entityLabel">rank</text><rect height="22" width="35.75" y="134.18359565734863" x="67.671875" class="er attributeBoxEven"/><text style="dominant-baseline: middle; font-size: 10.2px;" transform="translate(72.671875,145.18359565734863)" y="0" x="0" id="text-entity-PARTICIPANT-64c9b90f-bc54-512c-b40c-100024024616-attr-6-name" class="er entityLabel">int</text></g><g transform="translate(66.33203125,532.642578125 )" id="entity-MATCH-37c1e2bd-c7e7-5fe2-af19-ed7eb880a242"><rect height="134.36719131469727" width="115.625" y="0" x="0" class="er entityBox"/><text style="dominant-baseline: middle; text-anchor: middle; font-size: 12px;" transform="translate(57.8125,12)" y="0" x="0" id="text-entity-MATCH-37c1e2bd-c7e7-5fe2-af19-ed7eb880a242" class="er entityLabel">MATCH</text><rect height="22" width="79.875" y="24" x="0" class="er attributeBoxOdd"/><text style="dominant-baseline: middle; font-size: 10.2px;" transform="translate(5,35)" y="0" x="0" id="text-entity-MATCH-37c1e2bd-c7e7-5fe2-af19-ed7eb880a242-attr-1-type" class="er entityLabel">id</text><rect height="22" width="35.75" y="24" x="79.875" class="er attributeBoxOdd"/><text style="dominant-baseline: middle; font-size: 10.2px;" transform="translate(84.875,35)" y="0" x="0" id="text-entity-MATCH-37c1e2bd-c7e7-5fe2-af19-ed7eb880a242-attr-1-name" class="er entityLabel">UUID</text><rect height="22.091797828674316" width="79.875" y="46" x="0" class="er attributeBoxEven"/><text style="dominant-baseline: middle; font-size: 10.2px;" transform="translate(5,57.04589891433716)" y="0" x="0" id="text-entity-MATCH-37c1e2bd-c7e7-5fe2-af19-ed7eb880a242-attr-2-type" class="er entityLabel">group_id</text><rect height="22.091797828674316" width="35.75" y="46" x="79.875" class="er attributeBoxEven"/><text style="dominant-baseline: middle; font-size: 10.2px;" transform="translate(84.875,57.04589891433716)" y="0" x="0" id="text-entity-MATCH-37c1e2bd-c7e7-5fe2-af19-ed7eb880a242-attr-2-name" class="er entityLabel">UUID</text><rect height="22.091797828674316" width="79.875" y="68.09179782867432" x="0" class="er attributeBoxOdd"/><text style="dominant-baseline: middle; font-size: 10.2px;" transform="translate(5,79.13769674301147)" y="0" x="0" id="text-entity-MATCH-37c1e2bd-c7e7-5fe2-af19-ed7eb880a242-attr-3-type" class="er entityLabel">participant1_id</text><rect height="22.091797828674316" width="35.75" y="68.09179782867432" x="79.875" class="er attributeBoxOdd"/><text style="dominant-baseline: middle; font-size: 10.2px;" transform="translate(84.875,79.13769674301147)" y="0" x="0" id="text-entity-MATCH-37c1e2bd-c7e7-5fe2-af19-ed7eb880a242-attr-3-name" class="er entityLabel">UUID</text><rect height="22.091797828674316" width="79.875" y="90.18359565734863" x="0" class="er attributeBoxEven"/><text style="dominant-baseline: middle; font-size: 10.2px;" transform="translate(5,101.22949457168579)" y="0" x="0" id="text-entity-MATCH-37c1e2bd-c7e7-5fe2-af19-ed7eb880a242-attr-4-type" class="er entityLabel">participant2_id</text><rect height="22.091797828674316" width="35.75" y="90.18359565734863" x="79.875" class="er attributeBoxEven"/><text style="dominant-baseline: middle; font-size: 10.2px;" transform="translate(84.875,101.22949457168579)" y="0" x="0" id="text-entity-MATCH-37c1e2bd-c7e7-5fe2-af19-ed7eb880a242-attr-4-name" class="er entityLabel">UUID</text><rect height="22.091797828674316" width="79.875" y="112.27539348602295" x="0" class="er attributeBoxOdd"/><text style="dominant-baseline: middle; font-size: 10.2px;" transform="translate(5,123.32129240036011)" y="0" x="0" id="text-entity-MATCH-37c1e2bd-c7e7-5fe2-af19-ed7eb880a242-attr-5-type" class="er entityLabel">replay_url</text><rect height="22.091797828674316" width="35.75" y="112.27539348602295" x="79.875" class="er attributeBoxOdd"/><text style="dominant-baseline: middle; font-size: 10.2px;" transform="translate(84.875,123.32129240036011)" y="0" x="0" id="text-entity-MATCH-37c1e2bd-c7e7-5fe2-af19-ed7eb880a242-attr-5-name" class="er entityLabel">string</text></g><g transform="translate(20,1191.376953125 )" id="entity-MATCHVETO-261322b9-51ca-5730-8d76-1c83b67c7e0a"><rect height="112.18359565734863" width="106.859375" y="0" x="0" class="er entityBox"/><text style="dominant-baseline: middle; text-anchor: middle; font-size: 12px;" transform="translate(53.4296875,12)" y="0" x="0" id="text-entity-MATCHVETO-261322b9-51ca-5730-8d76-1c83b67c7e0a" class="er entityLabel">MATCH_VETO</text><rect height="22" width="74.53125" y="24" x="0" class="er attributeBoxOdd"/><text style="dominant-baseline: middle; font-size: 10.2px;" transform="translate(5,35)" y="0" x="0" id="text-entity-MATCHVETO-261322b9-51ca-5730-8d76-1c83b67c7e0a-attr-1-type" class="er entityLabel">id</text><rect height="22" width="32.328125" y="24" x="74.53125" class="er attributeBoxOdd"/><text style="dominant-baseline: middle; font-size: 10.2px;" transform="translate(79.53125,35)" y="0" x="0" id="text-entity-MATCHVETO-261322b9-51ca-5730-8d76-1c83b67c7e0a-attr-1-name" class="er entityLabel">UUID</text><rect height="22" width="74.53125" y="46" x="0" class="er attributeBoxEven"/><text style="dominant-baseline: middle; font-size: 10.2px;" transform="translate(5,57)" y="0" x="0" id="text-entity-MATCHVETO-261322b9-51ca-5730-8d76-1c83b67c7e0a-attr-2-type" class="er entityLabel">match_id</text><rect height="22" width="32.328125" y="46" x="74.53125" class="er attributeBoxEven"/><text style="dominant-baseline: middle; font-size: 10.2px;" transform="translate(79.53125,57)" y="0" x="0" id="text-entity-MATCHVETO-261322b9-51ca-5730-8d76-1c83b67c7e0a-attr-2-name" class="er entityLabel">UUID</text><rect height="22.091797828674316" width="74.53125" y="68" x="0" class="er attributeBoxOdd"/><text style="dominant-baseline: middle; font-size: 10.2px;" transform="translate(5,79.04589891433716)" y="0" x="0" id="text-entity-MATCHVETO-261322b9-51ca-5730-8d76-1c83b67c7e0a-attr-3-type" class="er entityLabel">participant_id</text><rect height="22.091797828674316" width="32.328125" y="68" x="74.53125" class="er attributeBoxOdd"/><text style="dominant-baseline: middle; font-size: 10.2px;" transform="translate(79.53125,79.04589891433716)" y="0" x="0" id="text-entity-MATCHVETO-261322b9-51ca-5730-8d76-1c83b67c7e0a-attr-3-name" class="er entityLabel">UUID</text><rect height="22.091797828674316" width="74.53125" y="90.09179782867432" x="0" class="er attributeBoxEven"/><text style="dominant-baseline: middle; font-size: 10.2px;" transform="translate(5,101.13769674301147)" y="0" x="0" id="text-entity-MATCHVETO-261322b9-51ca-5730-8d76-1c83b67c7e0a-attr-4-type" class="er entityLabel">game_map_id</text><rect height="22.091797828674316" width="32.328125" y="90.09179782867432" x="74.53125" class="er attributeBoxEven"/><text style="dominant-baseline: middle; font-size: 10.2px;" transform="translate(79.53125,101.13769674301147)" y="0" x="0" id="text-entity-MATCHVETO-261322b9-51ca-5730-8d76-1c83b67c7e0a-attr-4-name" class="er entityLabel">UUID</text></g><g transform="translate(242.05859375,767.009765625 )" id="entity-GAME-ffe717d5-9fe2-58b5-a684-f2592fc078b6"><rect height="156.27539253234863" width="125.484375" y="0" x="0" class="er entityBox"/><text style="dominant-baseline: middle; text-anchor: middle; font-size: 12px;" transform="translate(62.7421875,12)" y="0" x="0" id="text-entity-GAME-ffe717d5-9fe2-58b5-a684-f2592fc078b6" class="er entityLabel">GAME</text><rect height="22" width="93.15625" y="24" x="0" class="er attributeBoxOdd"/><text style="dominant-baseline: middle; font-size: 10.2px;" transform="translate(5,35)" y="0" x="0" id="text-entity-GAME-ffe717d5-9fe2-58b5-a684-f2592fc078b6-attr-1-type" class="er entityLabel">id</text><rect height="22" width="32.328125" y="24" x="93.15625" class="er attributeBoxOdd"/><text style="dominant-baseline: middle; font-size: 10.2px;" transform="translate(98.15625,35)" y="0" x="0" id="text-entity-GAME-ffe717d5-9fe2-58b5-a684-f2592fc078b6-attr-1-name" class="er entityLabel">UUID</text><rect height="22" width="93.15625" y="46" x="0" class="er attributeBoxEven"/><text style="dominant-baseline: middle; font-size: 10.2px;" transform="translate(5,57)" y="0" x="0" id="text-entity-GAME-ffe717d5-9fe2-58b5-a684-f2592fc078b6-attr-2-type" class="er entityLabel">match_id</text><rect height="22" width="32.328125" y="46" x="93.15625" class="er attributeBoxEven"/><text style="dominant-baseline: middle; font-size: 10.2px;" transform="translate(98.15625,57)" y="0" x="0" id="text-entity-GAME-ffe717d5-9fe2-58b5-a684-f2592fc078b6-attr-2-name" class="er entityLabel">UUID</text><rect height="22" width="93.15625" y="68" x="0" class="er attributeBoxOdd"/><text style="dominant-baseline: middle; font-size: 10.2px;" transform="translate(5,79)" y="0" x="0" id="text-entity-GAME-ffe717d5-9fe2-58b5-a684-f2592fc078b6-attr-3-type" class="er entityLabel">round_number</text><rect height="22" width="32.328125" y="68" x="93.15625" class="er attributeBoxOdd"/><text style="dominant-baseline: middle; font-size: 10.2px;" transform="translate(98.15625,79)" y="0" x="0" id="text-entity-GAME-ffe717d5-9fe2-58b5-a684-f2592fc078b6-attr-3-name" class="er entityLabel">int</text><rect height="22.091797828674316" width="93.15625" y="90" x="0" class="er attributeBoxEven"/><text style="dominant-baseline: middle; font-size: 10.2px;" transform="translate(5,101.04589891433716)" y="0" x="0" id="text-entity-GAME-ffe717d5-9fe2-58b5-a684-f2592fc078b6-attr-4-type" class="er entityLabel">winning_player_id</text><rect height="22.091797828674316" width="32.328125" y="90" x="93.15625" class="er attributeBoxEven"/><text style="dominant-baseline: middle; font-size: 10.2px;" transform="translate(98.15625,101.04589891433716)" y="0" x="0" id="text-entity-GAME-ffe717d5-9fe2-58b5-a684-f2592fc078b6-attr-4-name" class="er entityLabel">UUID</text><rect height="22.091797828674316" width="93.15625" y="112.09179782867432" x="0" class="er attributeBoxOdd"/><text style="dominant-baseline: middle; font-size: 10.2px;" transform="translate(5,123.13769674301147)" y="0" x="0" id="text-entity-GAME-ffe717d5-9fe2-58b5-a684-f2592fc078b6-attr-5-type" class="er entityLabel">game_map_id</text><rect height="22.091797828674316" width="32.328125" y="112.09179782867432" x="93.15625" class="er attributeBoxOdd"/><text style="dominant-baseline: middle; font-size: 10.2px;" transform="translate(98.15625,123.13769674301147)" y="0" x="0" id="text-entity-GAME-ffe717d5-9fe2-58b5-a684-f2592fc078b6-attr-5-name" class="er entityLabel">UUID</text><rect height="22.091796875" width="93.15625" y="134.18359565734863" x="0" class="er attributeBoxEven"/><text style="dominant-baseline: middle; font-size: 10.2px;" transform="translate(5,145.22949409484863)" y="0" x="0" id="text-entity-GAME-ffe717d5-9fe2-58b5-a684-f2592fc078b6-attr-6-type" class="er entityLabel">game_date</text><rect height="22.091796875" width="32.328125" y="134.18359565734863" x="93.15625" class="er attributeBoxEven"/><text style="dominant-baseline: middle; font-size: 10.2px;" transform="translate(98.15625,145.22949409484863)" y="0" x="0" id="text-entity-GAME-ffe717d5-9fe2-58b5-a684-f2592fc078b6-attr-6-name" class="er entityLabel">Date</text></g><g transform="translate(484.703125,254.18359375 )" id="entity-GROUP-160fc21e-934b-5d98-8cdb-510c14267f93"><rect height="178.45898628234863" width="124.578125" y="0" x="0" class="er entityBox"/><text style="dominant-baseline: middle; text-anchor: middle; font-size: 12px;" transform="translate(62.2890625,12)" y="0" x="0" id="text-entity-GROUP-160fc21e-934b-5d98-8cdb-510c14267f93" class="er entityLabel">GROUP</text><rect height="22" width="88.046875" y="24" x="0" class="er attributeBoxOdd"/><text style="dominant-baseline: middle; font-size: 10.2px;" transform="translate(5,35)" y="0" x="0" id="text-entity-GROUP-160fc21e-934b-5d98-8cdb-510c14267f93-attr-1-type" class="er entityLabel">id</text><rect height="22" width="36.53125" y="24" x="88.046875" class="er attributeBoxOdd"/><text style="dominant-baseline: middle; font-size: 10.2px;" transform="translate(93.046875,35)" y="0" x="0" id="text-entity-GROUP-160fc21e-934b-5d98-8cdb-510c14267f93-attr-1-name" class="er entityLabel">UUID</text><rect height="22.091796875" width="88.046875" y="46" x="0" class="er attributeBoxEven"/><text style="dominant-baseline: middle; font-size: 10.2px;" transform="translate(5,57.0458984375)" y="0" x="0" id="text-entity-GROUP-160fc21e-934b-5d98-8cdb-510c14267f93-attr-2-type" class="er entityLabel">name</text><rect height="22.091796875" width="36.53125" y="46" x="88.046875" class="er attributeBoxEven"/><text style="dominant-baseline: middle; font-size: 10.2px;" transform="translate(93.046875,57.0458984375)" y="0" x="0" id="text-entity-GROUP-160fc21e-934b-5d98-8cdb-510c14267f93-attr-2-name" class="er entityLabel">String</text><rect height="22.091796875" width="88.046875" y="68.091796875" x="0" class="er attributeBoxOdd"/><text style="dominant-baseline: middle; font-size: 10.2px;" transform="translate(5,79.1376953125)" y="0" x="0" id="text-entity-GROUP-160fc21e-934b-5d98-8cdb-510c14267f93-attr-3-type" class="er entityLabel">league_id</text><rect height="22.091796875" width="36.53125" y="68.091796875" x="88.046875" class="er attributeBoxOdd"/><text style="dominant-baseline: middle; font-size: 10.2px;" transform="translate(93.046875,79.1376953125)" y="0" x="0" id="text-entity-GROUP-160fc21e-934b-5d98-8cdb-510c14267f93-attr-3-name" class="er entityLabel">UUID</text><rect height="22.091797828674316" width="88.046875" y="90.18359375" x="0" class="er attributeBoxEven"/><text style="dominant-baseline: middle; font-size: 10.2px;" transform="translate(5,101.22949266433716)" y="0" x="0" id="text-entity-GROUP-160fc21e-934b-5d98-8cdb-510c14267f93-attr-4-type" class="er entityLabel">admin</text><rect height="22.091797828674316" width="36.53125" y="90.18359375" x="88.046875" class="er attributeBoxEven"/><text style="dominant-baseline: middle; font-size: 10.2px;" transform="translate(93.046875,101.22949266433716)" y="0" x="0" id="text-entity-GROUP-160fc21e-934b-5d98-8cdb-510c14267f93-attr-4-name" class="er entityLabel">string</text><rect height="22" width="88.046875" y="112.27539157867432" x="0" class="er attributeBoxOdd"/><text style="dominant-baseline: middle; font-size: 10.2px;" transform="translate(5,123.27539157867432)" y="0" x="0" id="text-entity-GROUP-160fc21e-934b-5d98-8cdb-510c14267f93-attr-5-type" class="er entityLabel">vetos</text><rect height="22" width="36.53125" y="112.27539157867432" x="88.046875" class="er attributeBoxOdd"/><text style="dominant-baseline: middle; font-size: 10.2px;" transform="translate(93.046875,123.27539157867432)" y="0" x="0" id="text-entity-GROUP-160fc21e-934b-5d98-8cdb-510c14267f93-attr-5-name" class="er entityLabel">int</text><rect height="22.091796875" width="88.046875" y="134.27539157867432" x="0" class="er attributeBoxEven"/><text style="dominant-baseline: middle; font-size: 10.2px;" transform="translate(5,145.32129001617432)" y="0" x="0" id="text-entity-GROUP-160fc21e-934b-5d98-8cdb-510c14267f93-attr-6-type" class="er entityLabel">maps_per_match</text><rect height="22.091796875" width="36.53125" y="134.27539157867432" x="88.046875" class="er attributeBoxEven"/><text style="dominant-baseline: middle; font-size: 10.2px;" transform="translate(93.046875,145.32129001617432)" y="0" x="0" id="text-entity-GROUP-160fc21e-934b-5d98-8cdb-510c14267f93-attr-6-name" class="er entityLabel">int</text><rect height="22.091797828674316" width="88.046875" y="156.36718845367432" x="0" class="er attributeBoxOdd"/><text style="dominant-baseline: middle; font-size: 10.2px;" transform="translate(5,167.41308736801147)" y="0" x="0" id="text-entity-GROUP-160fc21e-934b-5d98-8cdb-510c14267f93-attr-7-type" class="er entityLabel">status</text><rect height="22.091797828674316" width="36.53125" y="156.36718845367432" x="88.046875" class="er attributeBoxOdd"/><text style="dominant-baseline: middle; font-size: 10.2px;" transform="translate(93.046875,167.41308736801147)" y="0" x="0" id="text-entity-GROUP-160fc21e-934b-5d98-8cdb-510c14267f93-attr-7-name" class="er entityLabel">string</text></g><g transform="translate(254.80078125,1023.28515625 )" id="entity-GAMEMAP-3ebdc61f-7273-52dd-aeda-440bfa686e67"><rect height="68.09179782867432" width="100" y="0" x="0" class="er entityBox"/><text style="dominant-baseline: middle; text-anchor: middle; font-size: 12px;" transform="translate(50,12)" y="0" x="0" id="text-entity-GAMEMAP-3ebdc61f-7273-52dd-aeda-440bfa686e67" class="er entityLabel">GAME_MAP</text><rect height="22" width="49.609375" y="24" x="0" class="er attributeBoxOdd"/><text style="dominant-baseline: middle; font-size: 10.2px;" transform="translate(5,35)" y="0" x="0" id="text-entity-GAMEMAP-3ebdc61f-7273-52dd-aeda-440bfa686e67-attr-1-type" class="er entityLabel">id</text><rect height="22" width="50.390625" y="24" x="49.609375" class="er attributeBoxOdd"/><text style="dominant-baseline: middle; font-size: 10.2px;" transform="translate(54.609375,35)" y="0" x="0" id="text-entity-GAMEMAP-3ebdc61f-7273-52dd-aeda-440bfa686e67-attr-1-name" class="er entityLabel">UUID</text><rect height="22.091797828674316" width="49.609375" y="46" x="0" class="er attributeBoxEven"/><text style="dominant-baseline: middle; font-size: 10.2px;" transform="translate(5,57.04589891433716)" y="0" x="0" id="text-entity-GAMEMAP-3ebdc61f-7273-52dd-aeda-440bfa686e67-attr-2-type" class="er entityLabel">name</text><rect height="22.091797828674316" width="50.390625" y="46" x="49.609375" class="er attributeBoxEven"/><text style="dominant-baseline: middle; font-size: 10.2px;" transform="translate(54.609375,57.04589891433716)" y="0" x="0" id="text-entity-GAMEMAP-3ebdc61f-7273-52dd-aeda-440bfa686e67-attr-2-name" class="er entityLabel">string</text></g><g transform="translate(476.609375,554.734375 )" id="entity-PARTICIPANTGROUP-a45939f3-1c4c-58bb-b0cd-2ffee5bcf920"><rect height="90.18359565734863" width="140.765625" y="0" x="0" class="er entityBox"/><text style="dominant-baseline: middle; text-anchor: middle; font-size: 12px;" transform="translate(70.3828125,12)" y="0" x="0" id="text-entity-PARTICIPANTGROUP-a45939f3-1c4c-58bb-b0cd-2ffee5bcf920" class="er entityLabel">PARTICIPANT_GROUP</text><rect height="22" width="91.484375" y="24" x="0" class="er attributeBoxOdd"/><text style="dominant-baseline: middle; font-size: 10.2px;" transform="translate(5,35)" y="0" x="0" id="text-entity-PARTICIPANTGROUP-a45939f3-1c4c-58bb-b0cd-2ffee5bcf920-attr-1-type" class="er entityLabel">id</text><rect height="22" width="49.28125" y="24" x="91.484375" class="er attributeBoxOdd"/><text style="dominant-baseline: middle; font-size: 10.2px;" transform="translate(96.484375,35)" y="0" x="0" id="text-entity-PARTICIPANTGROUP-a45939f3-1c4c-58bb-b0cd-2ffee5bcf920-attr-1-name" class="er entityLabel">UUID</text><rect height="22.091797828674316" width="91.484375" y="46" x="0" class="er attributeBoxEven"/><text style="dominant-baseline: middle; font-size: 10.2px;" transform="translate(5,57.04589891433716)" y="0" x="0" id="text-entity-PARTICIPANTGROUP-a45939f3-1c4c-58bb-b0cd-2ffee5bcf920-attr-2-type" class="er entityLabel">participant_id</text><rect height="22.091797828674316" width="49.28125" y="46" x="91.484375" class="er attributeBoxEven"/><text style="dominant-baseline: middle; font-size: 10.2px;" transform="translate(96.484375,57.04589891433716)" y="0" x="0" id="text-entity-PARTICIPANTGROUP-a45939f3-1c4c-58bb-b0cd-2ffee5bcf920-attr-2-name" class="er entityLabel">UUID</text><rect height="22.091797828674316" width="91.484375" y="68.09179782867432" x="0" class="er attributeBoxOdd"/><text style="dominant-baseline: middle; font-size: 10.2px;" transform="translate(5,79.13769674301147)" y="0" x="0" id="text-entity-PARTICIPANTGROUP-a45939f3-1c4c-58bb-b0cd-2ffee5bcf920-attr-3-type" class="er entityLabel">group_id</text><rect height="22.091797828674316" width="49.28125" y="68.09179782867432" x="91.484375" class="er attributeBoxOdd"/><text style="dominant-baseline: middle; font-size: 10.2px;" transform="translate(96.484375,79.13769674301147)" y="0" x="0" id="text-entity-PARTICIPANTGROUP-a45939f3-1c4c-58bb-b0cd-2ffee5bcf920-attr-3-name" class="er entityLabel">UUID</text></g><rect height="14" width="60.46875" y="545.1057739257812" x="344.8963623046875" class="er relationshipLabelBox"/><text style="text-anchor: middle; dominant-baseline: middle; font-size: 12px;" y="552.1057739257812" x="375.1307373046875" id="rel1" class="er relationshipLabel">compete in</text><rect height="14" width="55.46875" y="503.9017333984375" x="319.7101135253906" class="er relationshipLabelBox"/><text style="text-anchor: middle; dominant-baseline: middle; font-size: 12px;" y="510.9017333984375" x="347.4444885253906" id="rel2" class="er relationshipLabel">belongs to</text><rect height="14" width="44.109375" y="486.6885070800781" x="524.9373168945312" class="er relationshipLabelBox"/><text style="text-anchor: middle; dominant-baseline: middle; font-size: 12px;" y="493.6885070800781" x="546.9920043945312" id="rel3" class="er relationshipLabel">includes</text><rect height="14" width="40.90625" y="467.795166015625" x="110.72984313964844" class="er relationshipLabelBox"/><text style="text-anchor: middle; dominant-baseline: middle; font-size: 12px;" y="474.795166015625" x="131.18296813964844" id="rel4" class="er relationshipLabel">plays in</text><rect height="14" width="48.85546875" y="707.3599243164062" x="197.97007751464844" class="er relationshipLabelBox"/><text style="text-anchor: middle; dominant-baseline: middle; font-size: 12px;" y="714.3599243164062" x="222.39781188964844" id="rel5" class="er relationshipLabel">is part of</text><rect height="14" width="64.1875" y="966.2849731445312" x="272.7072448730469" class="er relationshipLabelBox"/><text style="text-anchor: middle; dominant-baseline: middle; font-size: 12px;" y="973.2849731445312" x="304.8009948730469" id="rel6" class="er relationshipLabel">is played on</text><rect height="14" width="44.109375" y="922.0738525390625" x="73.18331146240234" class="er relationshipLabelBox"/><text style="text-anchor: middle; dominant-baseline: middle; font-size: 12px;" y="929.0738525390625" x="95.23799896240234" id="rel7" class="er relationshipLabel">includes</text><rect height="14" width="47.640625" y="745.2325439453125" x="-57.48830795288086" class="er relationshipLabelBox"/><text style="text-anchor: middle; dominant-baseline: middle; font-size: 12px;" y="752.2325439453125" x="-33.66799545288086" id="rel8" class="er relationshipLabel">votes for</text><rect height="14" width="61.359375" y="1165.715087890625" x="201.3910675048828" class="er relationshipLabelBox"/><text style="text-anchor: middle; dominant-baseline: middle; font-size: 12px;" y="1172.715087890625" x="232.0707550048828" id="rel9" class="er relationshipLabel">is voted for</text><rect height="14" width="17.71875" y="197.1840057373047" x="538.1326293945312" class="er relationshipLabelBox"/><text style="text-anchor: middle; dominant-baseline: middle; font-size: 12px;" y="204.1840057373047" x="546.9920043945312" id="rel10" class="er relationshipLabel">has</text><text class="entityTitleText" y="-25" x="279.94333267211914" text-anchor="middle">Warcraft III Game Tracker</text></svg>