<svg aria-roledescription="er" role="graphics-document document" viewBox="0 0 323.3515319824219 664.826171875" style="max-width: 323.352px; background-color: white;" xmlns:xlink="http://www.w3.org/1999/xlink" xmlns="http://www.w3.org/2000/svg" width="100%" id="my-svg"><style>#my-svg{font-family:"trebuchet ms",verdana,arial,sans-serif;font-size:16px;fill:#333;}#my-svg .error-icon{fill:#552222;}#my-svg .error-text{fill:#552222;stroke:#552222;}#my-svg .edge-thickness-normal{stroke-width:1px;}#my-svg .edge-thickness-thick{stroke-width:3.5px;}#my-svg .edge-pattern-solid{stroke-dasharray:0;}#my-svg .edge-thickness-invisible{stroke-width:0;fill:none;}#my-svg .edge-pattern-dashed{stroke-dasharray:3;}#my-svg .edge-pattern-dotted{stroke-dasharray:2;}#my-svg .marker{fill:#333333;stroke:#333333;}#my-svg .marker.cross{stroke:#333333;}#my-svg svg{font-family:"trebuchet ms",verdana,arial,sans-serif;font-size:16px;}#my-svg p{margin:0;}#my-svg .entityBox{fill:#ECECFF;stroke:#9370DB;}#my-svg .attributeBoxOdd{fill:#ffffff;stroke:#9370DB;}#my-svg .attributeBoxEven{fill:#f2f2f2;stroke:#9370DB;}#my-svg .relationshipLabelBox{fill:hsl(80, 100%, 96.2745098039%);opacity:0.7;background-color:hsl(80, 100%, 96.2745098039%);}#my-svg .relationshipLabelBox rect{opacity:0.5;}#my-svg .relationshipLine{stroke:#333333;}#my-svg .entityTitleText{text-anchor:middle;font-size:18px;fill:#333;}#my-svg #MD_PARENT_START{fill:#f5f5f5!important;stroke:#333333!important;stroke-width:1;}#my-svg #MD_PARENT_END{fill:#f5f5f5!important;stroke:#333333!important;stroke-width:1;}#my-svg :root{--mermaid-font-family:"trebuchet ms",verdana,arial,sans-serif;}</style><g/><defs><marker orient="auto" markerHeight="240" markerWidth="190" refY="7" refX="0" id="MD_PARENT_START"><path d="M 18,7 L9,13 L1,7 L9,1 Z"/></marker></defs><defs><marker orient="auto" markerHeight="28" markerWidth="20" refY="7" refX="19" id="MD_PARENT_END"><path d="M 18,7 L9,13 L1,7 L9,1 Z"/></marker></defs><defs><marker orient="auto" markerHeight="18" markerWidth="18" refY="9" refX="0" id="ONLY_ONE_START"><path d="M9,0 L9,18 M15,0 L15,18" fill="none" stroke="gray"/></marker></defs><defs><marker orient="auto" markerHeight="18" markerWidth="18" refY="9" refX="18" id="ONLY_ONE_END"><path d="M3,0 L3,18 M9,0 L9,18" fill="none" stroke="gray"/></marker></defs><defs><marker orient="auto" markerHeight="18" markerWidth="30" refY="9" refX="0" id="ZERO_OR_ONE_START"><circle r="6" cy="9" cx="21" fill="white" stroke="gray"/><path d="M9,0 L9,18" fill="none" stroke="gray"/></marker></defs><defs><marker orient="auto" markerHeight="18" markerWidth="30" refY="9" refX="30" id="ZERO_OR_ONE_END"><circle r="6" cy="9" cx="9" fill="white" stroke="gray"/><path d="M21,0 L21,18" fill="none" stroke="gray"/></marker></defs><defs><marker orient="auto" markerHeight="36" markerWidth="45" refY="18" refX="18" id="ONE_OR_MORE_START"><path d="M0,18 Q 18,0 36,18 Q 18,36 0,18 M42,9 L42,27" fill="none" stroke="gray"/></marker></defs><defs><marker orient="auto" markerHeight="36" markerWidth="45" refY="18" refX="27" id="ONE_OR_MORE_END"><path d="M3,9 L3,27 M9,18 Q27,0 45,18 Q27,36 9,18" fill="none" stroke="gray"/></marker></defs><defs><marker orient="auto" markerHeight="36" markerWidth="57" refY="18" refX="18" id="ZERO_OR_MORE_START"><circle r="6" cy="18" cx="48" fill="white" stroke="gray"/><path d="M0,18 Q18,0 36,18 Q18,36 0,18" fill="none" stroke="gray"/></marker></defs><defs><marker orient="auto" markerHeight="36" markerWidth="57" refY="18" refX="39" id="ZERO_OR_MORE_END"><circle r="6" cy="18" cx="9" fill="white" stroke="gray"/><path d="M21,18 Q39,0 57,18 Q39,36 21,18" fill="none" stroke="gray"/></marker></defs><path style="stroke: gray; fill: none;" marker-start="url(#ONLY_ONE_START)" marker-end="url(#ZERO_OR_MORE_END)" d="M129.819,176.459L124.113,184.792C118.408,193.126,106.997,209.792,101.291,226.459C95.586,243.126,95.586,259.792,95.586,268.126L95.586,276.459" class="er relationshipLine"/><path style="stroke: gray; fill: none;" marker-start="url(#ONLY_ONE_START)" marker-end="url(#ZERO_OR_MORE_END)" d="M95.586,410.643L95.586,418.976C95.586,427.309,95.586,443.976,101.834,460.643C108.082,477.309,120.579,493.976,126.827,502.309L133.075,510.643" class="er relationshipLine"/><path style="stroke: gray; fill: none;" marker-start="url(#ONLY_ONE_START)" marker-end="url(#ZERO_OR_MORE_END)" d="M236.939,176.459L242.645,184.792C248.35,193.126,259.761,209.792,265.466,237.641C271.172,265.49,271.172,304.52,271.172,343.551C271.172,382.581,271.172,421.612,264.924,449.461C258.676,477.309,246.179,493.976,239.931,502.309L233.683,510.643" class="er relationshipLine"/><g transform="translate(110.18359375,20 )" id="entity-Profiles-eb4f0374-8f35-55d2-9d15-955512709224"><rect height="156.45898818969727" width="146.390625" y="0" x="0" class="er entityBox"/><text style="dominant-baseline: middle; text-anchor: middle; font-size: 12px;" transform="translate(73.1953125,12)" y="0" x="0" id="text-entity-Profiles-eb4f0374-8f35-55d2-9d15-955512709224" class="er entityLabel">Profiles</text><rect height="22" width="36.390625" y="24" x="0" class="er attributeBoxOdd"/><text style="dominant-baseline: middle; font-size: 10.2px;" transform="translate(5,35)" y="0" x="0" id="text-entity-Profiles-eb4f0374-8f35-55d2-9d15-955512709224-attr-1-type" class="er entityLabel">uuid</text><rect height="22" width="88.4375" y="24" x="36.390625" class="er attributeBoxOdd"/><text style="dominant-baseline: middle; font-size: 10.2px;" transform="translate(41.390625,35)" y="0" x="0" id="text-entity-Profiles-eb4f0374-8f35-55d2-9d15-955512709224-attr-1-name" class="er entityLabel">id</text><rect height="22" width="21.5625" y="24" x="124.828125" class="er attributeBoxOdd"/><text style="dominant-baseline: middle; font-size: 10.2px;" transform="translate(129.828125,35)" y="0" x="0" id="text-entity-Profiles-eb4f0374-8f35-55d2-9d15-955512709224-attr-1-key" class="er entityLabel">PK</text><rect height="22.091797828674316" width="36.390625" y="46" x="0" class="er attributeBoxEven"/><text style="dominant-baseline: middle; font-size: 10.2px;" transform="translate(5,57.04589891433716)" y="0" x="0" id="text-entity-Profiles-eb4f0374-8f35-55d2-9d15-955512709224-attr-2-type" class="er entityLabel">string</text><rect height="22.091797828674316" width="88.4375" y="46" x="36.390625" class="er attributeBoxEven"/><text style="dominant-baseline: middle; font-size: 10.2px;" transform="translate(41.390625,57.04589891433716)" y="0" x="0" id="text-entity-Profiles-eb4f0374-8f35-55d2-9d15-955512709224-attr-2-name" class="er entityLabel">username</text><rect height="22.091797828674316" width="21.5625" y="46" x="124.828125" class="er attributeBoxEven"/><text style="dominant-baseline: middle; font-size: 10.2px;" transform="translate(129.828125,57.04589891433716)" y="0" x="0" id="text-entity-Profiles-eb4f0374-8f35-55d2-9d15-955512709224-attr-2-key" class="er entityLabel"/><rect height="22.091797828674316" width="36.390625" y="68.09179782867432" x="0" class="er attributeBoxOdd"/><text style="dominant-baseline: middle; font-size: 10.2px;" transform="translate(5,79.13769674301147)" y="0" x="0" id="text-entity-Profiles-eb4f0374-8f35-55d2-9d15-955512709224-attr-3-type" class="er entityLabel">string</text><rect height="22.091797828674316" width="88.4375" y="68.09179782867432" x="36.390625" class="er attributeBoxOdd"/><text style="dominant-baseline: middle; font-size: 10.2px;" transform="translate(41.390625,79.13769674301147)" y="0" x="0" id="text-entity-Profiles-eb4f0374-8f35-55d2-9d15-955512709224-attr-3-name" class="er entityLabel">full_name</text><rect height="22.091797828674316" width="21.5625" y="68.09179782867432" x="124.828125" class="er attributeBoxOdd"/><text style="dominant-baseline: middle; font-size: 10.2px;" transform="translate(129.828125,79.13769674301147)" y="0" x="0" id="text-entity-Profiles-eb4f0374-8f35-55d2-9d15-955512709224-attr-3-key" class="er entityLabel"/><rect height="22.091797828674316" width="36.390625" y="90.18359565734863" x="0" class="er attributeBoxEven"/><text style="dominant-baseline: middle; font-size: 10.2px;" transform="translate(5,101.22949457168579)" y="0" x="0" id="text-entity-Profiles-eb4f0374-8f35-55d2-9d15-955512709224-attr-4-type" class="er entityLabel">string</text><rect height="22.091797828674316" width="88.4375" y="90.18359565734863" x="36.390625" class="er attributeBoxEven"/><text style="dominant-baseline: middle; font-size: 10.2px;" transform="translate(41.390625,101.22949457168579)" y="0" x="0" id="text-entity-Profiles-eb4f0374-8f35-55d2-9d15-955512709224-attr-4-name" class="er entityLabel">avatar_url</text><rect height="22.091797828674316" width="21.5625" y="90.18359565734863" x="124.828125" class="er attributeBoxEven"/><text style="dominant-baseline: middle; font-size: 10.2px;" transform="translate(129.828125,101.22949457168579)" y="0" x="0" id="text-entity-Profiles-eb4f0374-8f35-55d2-9d15-955512709224-attr-4-key" class="er entityLabel"/><rect height="22.091797828674316" width="36.390625" y="112.27539348602295" x="0" class="er attributeBoxOdd"/><text style="dominant-baseline: middle; font-size: 10.2px;" transform="translate(5,123.32129240036011)" y="0" x="0" id="text-entity-Profiles-eb4f0374-8f35-55d2-9d15-955512709224-attr-5-type" class="er entityLabel">string</text><rect height="22.091797828674316" width="88.4375" y="112.27539348602295" x="36.390625" class="er attributeBoxOdd"/><text style="dominant-baseline: middle; font-size: 10.2px;" transform="translate(41.390625,123.32129240036011)" y="0" x="0" id="text-entity-Profiles-eb4f0374-8f35-55d2-9d15-955512709224-attr-5-name" class="er entityLabel">website</text><rect height="22.091797828674316" width="21.5625" y="112.27539348602295" x="124.828125" class="er attributeBoxOdd"/><text style="dominant-baseline: middle; font-size: 10.2px;" transform="translate(129.828125,123.32129240036011)" y="0" x="0" id="text-entity-Profiles-eb4f0374-8f35-55d2-9d15-955512709224-attr-5-key" class="er entityLabel"/><rect height="22.091796875" width="36.390625" y="134.36719131469727" x="0" class="er attributeBoxEven"/><text style="dominant-baseline: middle; font-size: 10.2px;" transform="translate(5,145.41308975219727)" y="0" x="0" id="text-entity-Profiles-eb4f0374-8f35-55d2-9d15-955512709224-attr-6-type" class="er entityLabel">check</text><rect height="22.091796875" width="88.4375" y="134.36719131469727" x="36.390625" class="er attributeBoxEven"/><text style="dominant-baseline: middle; font-size: 10.2px;" transform="translate(41.390625,145.41308975219727)" y="0" x="0" id="text-entity-Profiles-eb4f0374-8f35-55d2-9d15-955512709224-attr-6-name" class="er entityLabel">username_length</text><rect height="22.091796875" width="21.5625" y="134.36719131469727" x="124.828125" class="er attributeBoxEven"/><text style="dominant-baseline: middle; font-size: 10.2px;" transform="translate(129.828125,145.41308975219727)" y="0" x="0" id="text-entity-Profiles-eb4f0374-8f35-55d2-9d15-955512709224-attr-6-key" class="er entityLabel"/></g><g transform="translate(20,276.458984375 )" id="entity-Game-87e52c75-2f34-5ffb-97f0-d4ba8ef70a3a"><rect height="134.18359565734863" width="151.171875" y="0" x="0" class="er entityBox"/><text style="dominant-baseline: middle; text-anchor: middle; font-size: 12px;" transform="translate(75.5859375,12)" y="0" x="0" id="text-entity-Game-87e52c75-2f34-5ffb-97f0-d4ba8ef70a3a" class="er entityLabel">Game</text><rect height="22" width="46.140625" y="24" x="0" class="er attributeBoxOdd"/><text style="dominant-baseline: middle; font-size: 10.2px;" transform="translate(5,35)" y="0" x="0" id="text-entity-Game-87e52c75-2f34-5ffb-97f0-d4ba8ef70a3a-attr-1-type" class="er entityLabel">int</text><rect height="22" width="83.46875" y="24" x="46.140625" class="er attributeBoxOdd"/><text style="dominant-baseline: middle; font-size: 10.2px;" transform="translate(51.140625,35)" y="0" x="0" id="text-entity-Game-87e52c75-2f34-5ffb-97f0-d4ba8ef70a3a-attr-1-name" class="er entityLabel">GameID</text><rect height="22" width="21.5625" y="24" x="129.609375" class="er attributeBoxOdd"/><text style="dominant-baseline: middle; font-size: 10.2px;" transform="translate(134.609375,35)" y="0" x="0" id="text-entity-Game-87e52c75-2f34-5ffb-97f0-d4ba8ef70a3a-attr-1-key" class="er entityLabel">PK</text><rect height="22.091797828674316" width="46.140625" y="46" x="0" class="er attributeBoxEven"/><text style="dominant-baseline: middle; font-size: 10.2px;" transform="translate(5,57.04589891433716)" y="0" x="0" id="text-entity-Game-87e52c75-2f34-5ffb-97f0-d4ba8ef70a3a-attr-2-type" class="er entityLabel">string</text><rect height="22.091797828674316" width="83.46875" y="46" x="46.140625" class="er attributeBoxEven"/><text style="dominant-baseline: middle; font-size: 10.2px;" transform="translate(51.140625,57.04589891433716)" y="0" x="0" id="text-entity-Game-87e52c75-2f34-5ffb-97f0-d4ba8ef70a3a-attr-2-name" class="er entityLabel">Name</text><rect height="22.091797828674316" width="21.5625" y="46" x="129.609375" class="er attributeBoxEven"/><text style="dominant-baseline: middle; font-size: 10.2px;" transform="translate(134.609375,57.04589891433716)" y="0" x="0" id="text-entity-Game-87e52c75-2f34-5ffb-97f0-d4ba8ef70a3a-attr-2-key" class="er entityLabel"/><rect height="22" width="46.140625" y="68.09179782867432" x="0" class="er attributeBoxOdd"/><text style="dominant-baseline: middle; font-size: 10.2px;" transform="translate(5,79.09179782867432)" y="0" x="0" id="text-entity-Game-87e52c75-2f34-5ffb-97f0-d4ba8ef70a3a-attr-3-type" class="er entityLabel">uuid</text><rect height="22" width="83.46875" y="68.09179782867432" x="46.140625" class="er attributeBoxOdd"/><text style="dominant-baseline: middle; font-size: 10.2px;" transform="translate(51.140625,79.09179782867432)" y="0" x="0" id="text-entity-Game-87e52c75-2f34-5ffb-97f0-d4ba8ef70a3a-attr-3-name" class="er entityLabel">CreatorProfileID</text><rect height="22" width="21.5625" y="68.09179782867432" x="129.609375" class="er attributeBoxOdd"/><text style="dominant-baseline: middle; font-size: 10.2px;" transform="translate(134.609375,79.09179782867432)" y="0" x="0" id="text-entity-Game-87e52c75-2f34-5ffb-97f0-d4ba8ef70a3a-attr-3-key" class="er entityLabel">FK</text><rect height="22.091797828674316" width="46.140625" y="90.09179782867432" x="0" class="er attributeBoxEven"/><text style="dominant-baseline: middle; font-size: 10.2px;" transform="translate(5,101.13769674301147)" y="0" x="0" id="text-entity-Game-87e52c75-2f34-5ffb-97f0-d4ba8ef70a3a-attr-4-type" class="er entityLabel">string</text><rect height="22.091797828674316" width="83.46875" y="90.09179782867432" x="46.140625" class="er attributeBoxEven"/><text style="dominant-baseline: middle; font-size: 10.2px;" transform="translate(51.140625,101.13769674301147)" y="0" x="0" id="text-entity-Game-87e52c75-2f34-5ffb-97f0-d4ba8ef70a3a-attr-4-name" class="er entityLabel">UniqueCode</text><rect height="22.091797828674316" width="21.5625" y="90.09179782867432" x="129.609375" class="er attributeBoxEven"/><text style="dominant-baseline: middle; font-size: 10.2px;" transform="translate(134.609375,101.13769674301147)" y="0" x="0" id="text-entity-Game-87e52c75-2f34-5ffb-97f0-d4ba8ef70a3a-attr-4-key" class="er entityLabel"/><rect height="22" width="46.140625" y="112.18359565734863" x="0" class="er attributeBoxOdd"/><text style="dominant-baseline: middle; font-size: 10.2px;" transform="translate(5,123.18359565734863)" y="0" x="0" id="text-entity-Game-87e52c75-2f34-5ffb-97f0-d4ba8ef70a3a-attr-5-type" class="er entityLabel">boolean</text><rect height="22" width="83.46875" y="112.18359565734863" x="46.140625" class="er attributeBoxOdd"/><text style="dominant-baseline: middle; font-size: 10.2px;" transform="translate(51.140625,123.18359565734863)" y="0" x="0" id="text-entity-Game-87e52c75-2f34-5ffb-97f0-d4ba8ef70a3a-attr-5-name" class="er entityLabel">IsActive</text><rect height="22" width="21.5625" y="112.18359565734863" x="129.609375" class="er attributeBoxOdd"/><text style="dominant-baseline: middle; font-size: 10.2px;" transform="translate(134.609375,123.18359565734863)" y="0" x="0" id="text-entity-Game-87e52c75-2f34-5ffb-97f0-d4ba8ef70a3a-attr-5-key" class="er entityLabel"/></g><g transform="translate(107.98046875,510.642578125 )" id="entity-Participation-e151516a-f7e0-5093-b9cf-5dc6e89d03ff"><rect height="134.18359565734863" width="150.796875" y="0" x="0" class="er entityBox"/><text style="dominant-baseline: middle; text-anchor: middle; font-size: 12px;" transform="translate(75.3984375,12)" y="0" x="0" id="text-entity-Participation-e151516a-f7e0-5093-b9cf-5dc6e89d03ff" class="er entityLabel">Participation</text><rect height="22.091797828674316" width="51.640625" y="24" x="0" class="er attributeBoxOdd"/><text style="dominant-baseline: middle; font-size: 10.2px;" transform="translate(5,35.04589891433716)" y="0" x="0" id="text-entity-Participation-e151516a-f7e0-5093-b9cf-5dc6e89d03ff-attr-1-type" class="er entityLabel">int</text><rect height="22.091797828674316" width="77.59375" y="24" x="51.640625" class="er attributeBoxOdd"/><text style="dominant-baseline: middle; font-size: 10.2px;" transform="translate(56.640625,35.04589891433716)" y="0" x="0" id="text-entity-Participation-e151516a-f7e0-5093-b9cf-5dc6e89d03ff-attr-1-name" class="er entityLabel">ParticipationID</text><rect height="22.091797828674316" width="21.5625" y="24" x="129.234375" class="er attributeBoxOdd"/><text style="dominant-baseline: middle; font-size: 10.2px;" transform="translate(134.234375,35.04589891433716)" y="0" x="0" id="text-entity-Participation-e151516a-f7e0-5093-b9cf-5dc6e89d03ff-attr-1-key" class="er entityLabel">PK</text><rect height="22" width="51.640625" y="46.091797828674316" x="0" class="er attributeBoxEven"/><text style="dominant-baseline: middle; font-size: 10.2px;" transform="translate(5,57.091797828674316)" y="0" x="0" id="text-entity-Participation-e151516a-f7e0-5093-b9cf-5dc6e89d03ff-attr-2-type" class="er entityLabel">uuid</text><rect height="22" width="77.59375" y="46.091797828674316" x="51.640625" class="er attributeBoxEven"/><text style="dominant-baseline: middle; font-size: 10.2px;" transform="translate(56.640625,57.091797828674316)" y="0" x="0" id="text-entity-Participation-e151516a-f7e0-5093-b9cf-5dc6e89d03ff-attr-2-name" class="er entityLabel">ProfileID</text><rect height="22" width="21.5625" y="46.091797828674316" x="129.234375" class="er attributeBoxEven"/><text style="dominant-baseline: middle; font-size: 10.2px;" transform="translate(134.234375,57.091797828674316)" y="0" x="0" id="text-entity-Participation-e151516a-f7e0-5093-b9cf-5dc6e89d03ff-attr-2-key" class="er entityLabel">FK</text><rect height="22" width="51.640625" y="68.09179782867432" x="0" class="er attributeBoxOdd"/><text style="dominant-baseline: middle; font-size: 10.2px;" transform="translate(5,79.09179782867432)" y="0" x="0" id="text-entity-Participation-e151516a-f7e0-5093-b9cf-5dc6e89d03ff-attr-3-type" class="er entityLabel">int</text><rect height="22" width="77.59375" y="68.09179782867432" x="51.640625" class="er attributeBoxOdd"/><text style="dominant-baseline: middle; font-size: 10.2px;" transform="translate(56.640625,79.09179782867432)" y="0" x="0" id="text-entity-Participation-e151516a-f7e0-5093-b9cf-5dc6e89d03ff-attr-3-name" class="er entityLabel">GameID</text><rect height="22" width="21.5625" y="68.09179782867432" x="129.234375" class="er attributeBoxOdd"/><text style="dominant-baseline: middle; font-size: 10.2px;" transform="translate(134.234375,79.09179782867432)" y="0" x="0" id="text-entity-Participation-e151516a-f7e0-5093-b9cf-5dc6e89d03ff-attr-3-key" class="er entityLabel">FK</text><rect height="22" width="51.640625" y="90.09179782867432" x="0" class="er attributeBoxEven"/><text style="dominant-baseline: middle; font-size: 10.2px;" transform="translate(5,101.09179782867432)" y="0" x="0" id="text-entity-Participation-e151516a-f7e0-5093-b9cf-5dc6e89d03ff-attr-4-type" class="er entityLabel">int</text><rect height="22" width="77.59375" y="90.09179782867432" x="51.640625" class="er attributeBoxEven"/><text style="dominant-baseline: middle; font-size: 10.2px;" transform="translate(56.640625,101.09179782867432)" y="0" x="0" id="text-entity-Participation-e151516a-f7e0-5093-b9cf-5dc6e89d03ff-attr-4-name" class="er entityLabel">Score</text><rect height="22" width="21.5625" y="90.09179782867432" x="129.234375" class="er attributeBoxEven"/><text style="dominant-baseline: middle; font-size: 10.2px;" transform="translate(134.234375,101.09179782867432)" y="0" x="0" id="text-entity-Participation-e151516a-f7e0-5093-b9cf-5dc6e89d03ff-attr-4-key" class="er entityLabel"/><rect height="22.091797828674316" width="51.640625" y="112.09179782867432" x="0" class="er attributeBoxOdd"/><text style="dominant-baseline: middle; font-size: 10.2px;" transform="translate(5,123.13769674301147)" y="0" x="0" id="text-entity-Participation-e151516a-f7e0-5093-b9cf-5dc6e89d03ff-attr-5-type" class="er entityLabel">datetime</text><rect height="22.091797828674316" width="77.59375" y="112.09179782867432" x="51.640625" class="er attributeBoxOdd"/><text style="dominant-baseline: middle; font-size: 10.2px;" transform="translate(56.640625,123.13769674301147)" y="0" x="0" id="text-entity-Participation-e151516a-f7e0-5093-b9cf-5dc6e89d03ff-attr-5-name" class="er entityLabel">Timestamp</text><rect height="22.091797828674316" width="21.5625" y="112.09179782867432" x="129.234375" class="er attributeBoxOdd"/><text style="dominant-baseline: middle; font-size: 10.2px;" transform="translate(134.234375,123.13769674301147)" y="0" x="0" id="text-entity-Participation-e151516a-f7e0-5093-b9cf-5dc6e89d03ff-attr-5-key" class="er entityLabel"/></g><rect height="14" width="39.625" y="216.09608459472656" x="82.70496368408203" class="er relationshipLabelBox"/><text style="text-anchor: middle; dominant-baseline: middle; font-size: 12px;" y="223.09608459472656" x="102.51746368408203" id="rel1" class="er relationshipLabel">creates</text><rect height="14" width="17.71875" y="457.564697265625" x="94.5559310913086" class="er relationshipLabelBox"/><text style="text-anchor: middle; dominant-baseline: middle; font-size: 12px;" y="464.564697265625" x="103.4153060913086" id="rel2" class="er relationshipLabel">has</text><rect height="14" width="64.359375" y="337.2183837890625" x="238.99215698242188" class="er relationshipLabelBox"/><text style="text-anchor: middle; dominant-baseline: middle; font-size: 12px;" y="344.2183837890625" x="271.1718444824219" id="rel3" class="er relationshipLabel">participates</text></svg>