<svg aria-roledescription="flowchart-v2" role="graphics-document document" viewBox="0 0 964.3984375 694" style="max-width: 964.398px; background-color: white;" class="flowchart" xmlns:xlink="http://www.w3.org/1999/xlink" xmlns="http://www.w3.org/2000/svg" width="100%" id="my-svg"><style>#my-svg{font-family:"trebuchet ms",verdana,arial,sans-serif;font-size:16px;fill:#333;}#my-svg .error-icon{fill:#552222;}#my-svg .error-text{fill:#552222;stroke:#552222;}#my-svg .edge-thickness-normal{stroke-width:1px;}#my-svg .edge-thickness-thick{stroke-width:3.5px;}#my-svg .edge-pattern-solid{stroke-dasharray:0;}#my-svg .edge-thickness-invisible{stroke-width:0;fill:none;}#my-svg .edge-pattern-dashed{stroke-dasharray:3;}#my-svg .edge-pattern-dotted{stroke-dasharray:2;}#my-svg .marker{fill:#333333;stroke:#333333;}#my-svg .marker.cross{stroke:#333333;}#my-svg svg{font-family:"trebuchet ms",verdana,arial,sans-serif;font-size:16px;}#my-svg p{margin:0;}#my-svg .label{font-family:"trebuchet ms",verdana,arial,sans-serif;color:#333;}#my-svg .cluster-label text{fill:#333;}#my-svg .cluster-label span{color:#333;}#my-svg .cluster-label span p{background-color:transparent;}#my-svg .label text,#my-svg span{fill:#333;color:#333;}#my-svg .node rect,#my-svg .node circle,#my-svg .node ellipse,#my-svg .node polygon,#my-svg .node path{fill:#ECECFF;stroke:#9370DB;stroke-width:1px;}#my-svg .rough-node .label text,#my-svg .node .label text,#my-svg .image-shape .label,#my-svg .icon-shape .label{text-anchor:middle;}#my-svg .node .katex path{fill:#000;stroke:#000;stroke-width:1px;}#my-svg .rough-node .label,#my-svg .node .label,#my-svg .image-shape .label,#my-svg .icon-shape .label{text-align:center;}#my-svg .node.clickable{cursor:pointer;}#my-svg .root .anchor path{fill:#333333!important;stroke-width:0;stroke:#333333;}#my-svg .arrowheadPath{fill:#333333;}#my-svg .edgePath .path{stroke:#333333;stroke-width:2.0px;}#my-svg .flowchart-link{stroke:#333333;fill:none;}#my-svg .edgeLabel{background-color:rgba(232,232,232, 0.8);text-align:center;}#my-svg .edgeLabel p{background-color:rgba(232,232,232, 0.8);}#my-svg .edgeLabel rect{opacity:0.5;background-color:rgba(232,232,232, 0.8);fill:rgba(232,232,232, 0.8);}#my-svg .labelBkg{background-color:rgba(232, 232, 232, 0.5);}#my-svg .cluster rect{fill:#ffffde;stroke:#aaaa33;stroke-width:1px;}#my-svg .cluster text{fill:#333;}#my-svg .cluster span{color:#333;}#my-svg div.mermaidTooltip{position:absolute;text-align:center;max-width:200px;padding:2px;font-family:"trebuchet ms",verdana,arial,sans-serif;font-size:12px;background:hsl(80, 100%, 96.2745098039%);border:1px solid #aaaa33;border-radius:2px;pointer-events:none;z-index:100;}#my-svg .flowchartTitleText{text-anchor:middle;font-size:18px;fill:#333;}#my-svg rect.text{fill:none;stroke-width:0;}#my-svg .icon-shape,#my-svg .image-shape{background-color:rgba(232,232,232, 0.8);text-align:center;}#my-svg .icon-shape p,#my-svg .image-shape p{background-color:rgba(232,232,232, 0.8);padding:2px;}#my-svg .icon-shape rect,#my-svg .image-shape rect{opacity:0.5;background-color:rgba(232,232,232, 0.8);fill:rgba(232,232,232, 0.8);}#my-svg :root{--mermaid-font-family:"trebuchet ms",verdana,arial,sans-serif;}</style><g><marker orient="auto" markerHeight="8" markerWidth="8" markerUnits="userSpaceOnUse" refY="5" refX="5" viewBox="0 0 10 10" class="marker flowchart-v2" id="my-svg_flowchart-v2-pointEnd"><path style="stroke-width: 1; stroke-dasharray: 1, 0;" class="arrowMarkerPath" d="M 0 0 L 10 5 L 0 10 z"/></marker><marker orient="auto" markerHeight="8" markerWidth="8" markerUnits="userSpaceOnUse" refY="5" refX="4.5" viewBox="0 0 10 10" class="marker flowchart-v2" id="my-svg_flowchart-v2-pointStart"><path style="stroke-width: 1; stroke-dasharray: 1, 0;" class="arrowMarkerPath" d="M 0 5 L 10 10 L 10 0 z"/></marker><marker orient="auto" markerHeight="11" markerWidth="11" markerUnits="userSpaceOnUse" refY="5" refX="11" viewBox="0 0 10 10" class="marker flowchart-v2" id="my-svg_flowchart-v2-circleEnd"><circle style="stroke-width: 1; stroke-dasharray: 1, 0;" class="arrowMarkerPath" r="5" cy="5" cx="5"/></marker><marker orient="auto" markerHeight="11" markerWidth="11" markerUnits="userSpaceOnUse" refY="5" refX="-1" viewBox="0 0 10 10" class="marker flowchart-v2" id="my-svg_flowchart-v2-circleStart"><circle style="stroke-width: 1; stroke-dasharray: 1, 0;" class="arrowMarkerPath" r="5" cy="5" cx="5"/></marker><marker orient="auto" markerHeight="11" markerWidth="11" markerUnits="userSpaceOnUse" refY="5.2" refX="12" viewBox="0 0 11 11" class="marker cross flowchart-v2" id="my-svg_flowchart-v2-crossEnd"><path style="stroke-width: 2; stroke-dasharray: 1, 0;" class="arrowMarkerPath" d="M 1,1 l 9,9 M 10,1 l -9,9"/></marker><marker orient="auto" markerHeight="11" markerWidth="11" markerUnits="userSpaceOnUse" refY="5.2" refX="-1" viewBox="0 0 11 11" class="marker cross flowchart-v2" id="my-svg_flowchart-v2-crossStart"><path style="stroke-width: 2; stroke-dasharray: 1, 0;" class="arrowMarkerPath" d="M 1,1 l 9,9 M 10,1 l -9,9"/></marker><g class="root"><g class="clusters"/><g class="edgePaths"><path marker-end="url(#my-svg_flowchart-v2-pointEnd)" style="" class="edge-thickness-normal edge-pattern-solid edge-thickness-normal edge-pattern-solid flowchart-link" id="L_A3_A4_0" d="M242.679,166L241.429,170.167C240.179,174.333,237.679,182.667,236.429,190.333C235.18,198,235.18,205,235.18,208.5L235.18,212"/><path marker-end="url(#my-svg_flowchart-v2-pointEnd)" style="" class="edge-thickness-normal edge-pattern-solid edge-thickness-normal edge-pattern-solid flowchart-link" id="L_A5_A3_1" d="M237.646,62L227.25,66.167C216.854,70.333,196.062,78.667,191.167,86.622C186.272,94.577,197.275,102.154,202.776,105.943L208.277,109.731"/><path marker-end="url(#my-svg_flowchart-v2-pointEnd)" style="" class="edge-thickness-normal edge-pattern-solid edge-thickness-normal edge-pattern-solid flowchart-link" id="L_A1_A3_2" d="M144.805,55.408L160.712,60.674C176.618,65.939,208.432,76.469,225.051,85.248C241.669,94.027,243.092,101.053,243.804,104.566L244.515,108.08"/><path marker-end="url(#my-svg_flowchart-v2-pointEnd)" style="" class="edge-thickness-normal edge-pattern-solid edge-thickness-normal edge-pattern-solid flowchart-link" id="L_A2_A3_3" d="M508.918,53.281L488.479,58.901C468.04,64.52,427.163,75.76,396.147,85.439C365.132,95.118,343.978,103.235,333.401,107.294L322.824,111.353"/><path marker-end="url(#my-svg_flowchart-v2-pointEnd)" style="" class="edge-thickness-normal edge-pattern-solid edge-thickness-normal edge-pattern-solid flowchart-link" id="L_A4_A6_4" d="M176.57,264.212L162.393,269.344C148.215,274.475,119.859,284.737,108.485,293.507C97.111,302.277,102.718,309.554,105.522,313.193L108.325,316.831"/><path marker-end="url(#my-svg_flowchart-v2-pointEnd)" style="" class="edge-thickness-normal edge-pattern-solid edge-thickness-normal edge-pattern-solid flowchart-link" id="L_A3_A6_5" d="M194.074,166L185.323,170.167C176.573,174.333,159.071,182.667,150.321,195.5C141.57,208.333,141.57,225.667,141.57,243C141.57,260.333,141.57,277.667,140.895,289.845C140.22,302.024,138.869,309.048,138.193,312.56L137.518,316.072"/><path marker-end="url(#my-svg_flowchart-v2-pointEnd)" style="" class="edge-thickness-normal edge-pattern-solid edge-thickness-normal edge-pattern-solid flowchart-link" id="L_A7_A8_6" d="M607.152,166L612.027,170.167C616.902,174.333,626.652,182.667,631.527,190.333C636.402,198,636.402,205,636.402,208.5L636.402,212"/><path marker-end="url(#my-svg_flowchart-v2-pointEnd)" style="" class="edge-thickness-normal edge-pattern-solid edge-thickness-normal edge-pattern-solid flowchart-link" id="L_A3_A9_7" d="M315.945,166L326.002,170.167C336.058,174.333,356.172,182.667,366.228,195.5C376.285,208.333,376.285,225.667,376.285,243C376.285,260.333,376.285,277.667,382.324,290.144C388.363,302.622,400.441,310.244,406.48,314.054L412.519,317.865"/><path marker-end="url(#my-svg_flowchart-v2-pointEnd)" style="" class="edge-thickness-normal edge-pattern-solid edge-thickness-normal edge-pattern-solid flowchart-link" id="L_A4_A9_8" d="M293.789,261.917L310.872,267.431C327.954,272.945,362.12,283.972,383.691,293.226C405.261,302.48,414.237,309.96,418.725,313.699L423.213,317.439"/><path marker-end="url(#my-svg_flowchart-v2-pointEnd)" style="" class="edge-thickness-normal edge-pattern-solid edge-thickness-normal edge-pattern-solid flowchart-link" id="L_A5_A9_9" d="M379.225,62L390.678,66.167C402.131,70.333,425.036,78.667,436.489,91.5C447.941,104.333,447.941,121.667,447.941,139C447.941,156.333,447.941,173.667,447.941,191C447.941,208.333,447.941,225.667,447.941,243C447.941,260.333,447.941,277.667,448.668,289.847C449.394,302.028,450.846,309.055,451.572,312.569L452.298,316.083"/><path marker-end="url(#my-svg_flowchart-v2-pointEnd)" style="" class="edge-thickness-normal edge-pattern-solid edge-thickness-normal edge-pattern-solid flowchart-link" id="L_A7_A9_10" d="M543.973,166L539.098,170.167C534.223,174.333,524.473,182.667,519.598,195.5C514.723,208.333,514.723,225.667,514.723,243C514.723,260.333,514.723,277.667,510.721,290.047C506.72,302.426,498.717,309.853,494.716,313.566L490.715,317.279"/><path marker-end="url(#my-svg_flowchart-v2-pointEnd)" style="" class="edge-thickness-normal edge-pattern-solid edge-thickness-normal edge-pattern-solid flowchart-link" id="L_A8_A9_11" d="M636.402,270L636.402,274.167C636.402,278.333,636.402,286.667,622.802,294.813C609.202,302.959,582.002,310.918,568.402,314.897L554.802,318.877"/><path marker-end="url(#my-svg_flowchart-v2-pointEnd)" style="" class="edge-thickness-normal edge-pattern-solid edge-thickness-normal edge-pattern-solid flowchart-link" id="L_A5_A10_12" d="M208.066,53.427L178.628,59.023C149.19,64.618,90.314,75.809,60.876,90.071C31.438,104.333,31.438,121.667,31.438,139C31.438,156.333,31.438,173.667,31.438,191C31.438,208.333,31.438,225.667,31.438,243C31.438,260.333,31.438,277.667,31.438,295C31.438,312.333,31.438,329.667,31.438,347C31.438,364.333,31.438,381.667,40.977,394.744C50.516,407.821,69.595,416.642,79.135,421.053L88.674,425.463"/><path marker-end="url(#my-svg_flowchart-v2-pointEnd)" style="" class="edge-thickness-normal edge-pattern-solid edge-thickness-normal edge-pattern-solid flowchart-link" id="L_A6_A10_13" d="M131.57,374L131.57,378.167C131.57,382.333,131.57,390.667,132.405,398.351C133.239,406.036,134.909,413.072,135.743,416.59L136.578,420.108"/><path marker-end="url(#my-svg_flowchart-v2-pointEnd)" style="" class="edge-thickness-normal edge-pattern-solid edge-thickness-normal edge-pattern-solid flowchart-link" id="L_A9_A10_14" d="M458.688,374L458.688,378.167C458.688,382.333,458.688,390.667,415.482,401.971C372.276,413.275,285.865,427.549,242.66,434.686L199.454,441.824"/><path marker-end="url(#my-svg_flowchart-v2-pointEnd)" style="" class="edge-thickness-normal edge-pattern-solid edge-thickness-normal edge-pattern-solid flowchart-link" id="L_A5_A11_15" d="M401.957,43.78L481.493,50.983C561.029,58.187,720.1,72.593,799.636,88.463C879.172,104.333,879.172,121.667,879.172,139C879.172,156.333,879.172,173.667,879.172,191C879.172,208.333,879.172,225.667,879.172,243C879.172,260.333,879.172,277.667,879.172,295C879.172,312.333,879.172,329.667,879.172,347C879.172,364.333,879.172,381.667,879.172,393.833C879.172,406,879.172,413,879.172,416.5L879.172,420"/><path marker-end="url(#my-svg_flowchart-v2-pointEnd)" style="" class="edge-thickness-normal edge-pattern-solid edge-thickness-normal edge-pattern-solid flowchart-link" id="L_A3_A12_16" d="M319.09,145.882L393.732,153.402C468.375,160.921,617.66,175.961,692.303,192.147C766.945,208.333,766.945,225.667,766.945,243C766.945,260.333,766.945,277.667,766.945,295C766.945,312.333,766.945,329.667,766.945,347C766.945,364.333,766.945,381.667,766.945,399C766.945,416.333,766.945,433.667,766.945,451C766.945,468.333,766.945,485.667,770.953,498.047C774.96,510.427,782.974,517.854,786.982,521.568L790.989,525.281"/><path marker-end="url(#my-svg_flowchart-v2-pointEnd)" style="" class="edge-thickness-normal edge-pattern-solid edge-thickness-normal edge-pattern-solid flowchart-link" id="L_A11_A12_17" d="M879.172,478L879.172,482.167C879.172,486.333,879.172,494.667,875.165,502.547C871.157,510.427,863.143,517.854,859.136,521.568L855.128,525.281"/><path marker-end="url(#my-svg_flowchart-v2-pointEnd)" style="" class="edge-thickness-normal edge-pattern-solid edge-thickness-normal edge-pattern-solid flowchart-link" id="L_A10_A14_18" d="M195.508,456.918L262.476,464.598C329.444,472.279,463.38,487.639,532.126,498.89C600.871,510.14,604.426,517.28,606.204,520.849L607.981,524.419"/><path marker-end="url(#my-svg_flowchart-v2-pointEnd)" style="" class="edge-thickness-normal edge-pattern-solid edge-thickness-normal edge-pattern-solid flowchart-link" id="L_A11_A14_19" d="M801.945,475.186L787.143,479.821C772.341,484.457,742.737,493.729,721.306,502.197C699.876,510.666,686.619,518.332,679.99,522.165L673.362,525.998"/><path marker-end="url(#my-svg_flowchart-v2-pointEnd)" style="" class="edge-thickness-normal edge-pattern-solid edge-thickness-normal edge-pattern-solid flowchart-link" id="L_A13_A15_20" d="M53.453,582L53.453,586.167C53.453,590.333,53.453,598.667,101.402,610.222C149.351,621.778,245.25,636.556,293.199,643.945L341.148,651.335"/><path marker-end="url(#my-svg_flowchart-v2-pointEnd)" style="" class="edge-thickness-normal edge-pattern-solid edge-thickness-normal edge-pattern-solid flowchart-link" id="L_A10_A15_21" d="M138.714,478L137.913,482.167C137.111,486.333,135.509,494.667,134.708,507.5C133.906,520.333,133.906,537.667,133.906,555C133.906,572.333,133.906,589.667,168.452,605.324C202.998,620.98,272.089,634.961,306.635,641.951L341.181,648.941"/><path marker-end="url(#my-svg_flowchart-v2-pointEnd)" style="" class="edge-thickness-normal edge-pattern-solid edge-thickness-normal edge-pattern-solid flowchart-link" id="L_A14_A15_22" d="M623.207,582L623.207,586.167C623.207,590.333,623.207,598.667,592.77,609.646C562.332,620.626,501.458,634.251,471.02,641.064L440.583,647.877"/><path marker-end="url(#my-svg_flowchart-v2-pointEnd)" style="" class="edge-thickness-normal edge-pattern-solid edge-thickness-normal edge-pattern-solid flowchart-link" id="L_A12_A15_23" d="M823.059,582L823.059,586.167C823.059,590.333,823.059,598.667,759.324,610.502C695.589,622.338,568.12,637.675,504.386,645.344L440.651,653.013"/><path marker-end="url(#my-svg_flowchart-v2-pointEnd)" style="" class="edge-thickness-normal edge-pattern-solid edge-thickness-normal edge-pattern-solid flowchart-link" id="L_A11_A15_24" d="M912.966,478L918.182,482.167C923.397,486.333,933.827,494.667,939.043,507.5C944.258,520.333,944.258,537.667,944.258,555C944.258,572.333,944.258,589.667,860.325,606.22C776.393,622.774,608.527,638.549,524.595,646.436L440.662,654.323"/></g><g class="edgeLabels"><g class="edgeLabel"><g transform="translate(0, 0)" class="label"><foreignObject height="0" width="0"><div style="display: table-cell; white-space: nowrap; line-height: 1.5; max-width: 200px; text-align: center;" class="labelBkg" xmlns="http://www.w3.org/1999/xhtml"><span class="edgeLabel"></span></div></foreignObject></g></g><g class="edgeLabel"><g transform="translate(0, 0)" class="label"><foreignObject height="0" width="0"><div style="display: table-cell; white-space: nowrap; line-height: 1.5; max-width: 200px; text-align: center;" class="labelBkg" xmlns="http://www.w3.org/1999/xhtml"><span class="edgeLabel"></span></div></foreignObject></g></g><g class="edgeLabel"><g transform="translate(0, 0)" class="label"><foreignObject height="0" width="0"><div style="display: table-cell; white-space: nowrap; line-height: 1.5; max-width: 200px; text-align: center;" class="labelBkg" xmlns="http://www.w3.org/1999/xhtml"><span class="edgeLabel"></span></div></foreignObject></g></g><g class="edgeLabel"><g transform="translate(0, 0)" class="label"><foreignObject height="0" width="0"><div style="display: table-cell; white-space: nowrap; line-height: 1.5; max-width: 200px; text-align: center;" class="labelBkg" xmlns="http://www.w3.org/1999/xhtml"><span class="edgeLabel"></span></div></foreignObject></g></g><g class="edgeLabel"><g transform="translate(0, 0)" class="label"><foreignObject height="0" width="0"><div style="display: table-cell; white-space: nowrap; line-height: 1.5; max-width: 200px; text-align: center;" class="labelBkg" xmlns="http://www.w3.org/1999/xhtml"><span class="edgeLabel"></span></div></foreignObject></g></g><g class="edgeLabel"><g transform="translate(0, 0)" class="label"><foreignObject height="0" width="0"><div style="display: table-cell; white-space: nowrap; line-height: 1.5; max-width: 200px; text-align: center;" class="labelBkg" xmlns="http://www.w3.org/1999/xhtml"><span class="edgeLabel"></span></div></foreignObject></g></g><g class="edgeLabel"><g transform="translate(0, 0)" class="label"><foreignObject height="0" width="0"><div style="display: table-cell; white-space: nowrap; line-height: 1.5; max-width: 200px; text-align: center;" class="labelBkg" xmlns="http://www.w3.org/1999/xhtml"><span class="edgeLabel"></span></div></foreignObject></g></g><g class="edgeLabel"><g transform="translate(0, 0)" class="label"><foreignObject height="0" width="0"><div style="display: table-cell; white-space: nowrap; line-height: 1.5; max-width: 200px; text-align: center;" class="labelBkg" xmlns="http://www.w3.org/1999/xhtml"><span class="edgeLabel"></span></div></foreignObject></g></g><g class="edgeLabel"><g transform="translate(0, 0)" class="label"><foreignObject height="0" width="0"><div style="display: table-cell; white-space: nowrap; line-height: 1.5; max-width: 200px; text-align: center;" class="labelBkg" xmlns="http://www.w3.org/1999/xhtml"><span class="edgeLabel"></span></div></foreignObject></g></g><g class="edgeLabel"><g transform="translate(0, 0)" class="label"><foreignObject height="0" width="0"><div style="display: table-cell; white-space: nowrap; line-height: 1.5; max-width: 200px; text-align: center;" class="labelBkg" xmlns="http://www.w3.org/1999/xhtml"><span class="edgeLabel"></span></div></foreignObject></g></g><g class="edgeLabel"><g transform="translate(0, 0)" class="label"><foreignObject height="0" width="0"><div style="display: table-cell; white-space: nowrap; line-height: 1.5; max-width: 200px; text-align: center;" class="labelBkg" xmlns="http://www.w3.org/1999/xhtml"><span class="edgeLabel"></span></div></foreignObject></g></g><g class="edgeLabel"><g transform="translate(0, 0)" class="label"><foreignObject height="0" width="0"><div style="display: table-cell; white-space: nowrap; line-height: 1.5; max-width: 200px; text-align: center;" class="labelBkg" xmlns="http://www.w3.org/1999/xhtml"><span class="edgeLabel"></span></div></foreignObject></g></g><g class="edgeLabel"><g transform="translate(0, 0)" class="label"><foreignObject height="0" width="0"><div style="display: table-cell; white-space: nowrap; line-height: 1.5; max-width: 200px; text-align: center;" class="labelBkg" xmlns="http://www.w3.org/1999/xhtml"><span class="edgeLabel"></span></div></foreignObject></g></g><g class="edgeLabel"><g transform="translate(0, 0)" class="label"><foreignObject height="0" width="0"><div style="display: table-cell; white-space: nowrap; line-height: 1.5; max-width: 200px; text-align: center;" class="labelBkg" xmlns="http://www.w3.org/1999/xhtml"><span class="edgeLabel"></span></div></foreignObject></g></g><g class="edgeLabel"><g transform="translate(0, 0)" class="label"><foreignObject height="0" width="0"><div style="display: table-cell; white-space: nowrap; line-height: 1.5; max-width: 200px; text-align: center;" class="labelBkg" xmlns="http://www.w3.org/1999/xhtml"><span class="edgeLabel"></span></div></foreignObject></g></g><g class="edgeLabel"><g transform="translate(0, 0)" class="label"><foreignObject height="0" width="0"><div style="display: table-cell; white-space: nowrap; line-height: 1.5; max-width: 200px; text-align: center;" class="labelBkg" xmlns="http://www.w3.org/1999/xhtml"><span class="edgeLabel"></span></div></foreignObject></g></g><g class="edgeLabel"><g transform="translate(0, 0)" class="label"><foreignObject height="0" width="0"><div style="display: table-cell; white-space: nowrap; line-height: 1.5; max-width: 200px; text-align: center;" class="labelBkg" xmlns="http://www.w3.org/1999/xhtml"><span class="edgeLabel"></span></div></foreignObject></g></g><g class="edgeLabel"><g transform="translate(0, 0)" class="label"><foreignObject height="0" width="0"><div style="display: table-cell; white-space: nowrap; line-height: 1.5; max-width: 200px; text-align: center;" class="labelBkg" xmlns="http://www.w3.org/1999/xhtml"><span class="edgeLabel"></span></div></foreignObject></g></g><g class="edgeLabel"><g transform="translate(0, 0)" class="label"><foreignObject height="0" width="0"><div style="display: table-cell; white-space: nowrap; line-height: 1.5; max-width: 200px; text-align: center;" class="labelBkg" xmlns="http://www.w3.org/1999/xhtml"><span class="edgeLabel"></span></div></foreignObject></g></g><g class="edgeLabel"><g transform="translate(0, 0)" class="label"><foreignObject height="0" width="0"><div style="display: table-cell; white-space: nowrap; line-height: 1.5; max-width: 200px; text-align: center;" class="labelBkg" xmlns="http://www.w3.org/1999/xhtml"><span class="edgeLabel"></span></div></foreignObject></g></g><g class="edgeLabel"><g transform="translate(0, 0)" class="label"><foreignObject height="0" width="0"><div style="display: table-cell; white-space: nowrap; line-height: 1.5; max-width: 200px; text-align: center;" class="labelBkg" xmlns="http://www.w3.org/1999/xhtml"><span class="edgeLabel"></span></div></foreignObject></g></g><g class="edgeLabel"><g transform="translate(0, 0)" class="label"><foreignObject height="0" width="0"><div style="display: table-cell; white-space: nowrap; line-height: 1.5; max-width: 200px; text-align: center;" class="labelBkg" xmlns="http://www.w3.org/1999/xhtml"><span class="edgeLabel"></span></div></foreignObject></g></g><g class="edgeLabel"><g transform="translate(0, 0)" class="label"><foreignObject height="0" width="0"><div style="display: table-cell; white-space: nowrap; line-height: 1.5; max-width: 200px; text-align: center;" class="labelBkg" xmlns="http://www.w3.org/1999/xhtml"><span class="edgeLabel"></span></div></foreignObject></g></g><g class="edgeLabel"><g transform="translate(0, 0)" class="label"><foreignObject height="0" width="0"><div style="display: table-cell; white-space: nowrap; line-height: 1.5; max-width: 200px; text-align: center;" class="labelBkg" xmlns="http://www.w3.org/1999/xhtml"><span class="edgeLabel"></span></div></foreignObject></g></g><g class="edgeLabel"><g transform="translate(0, 0)" class="label"><foreignObject height="0" width="0"><div style="display: table-cell; white-space: nowrap; line-height: 1.5; max-width: 200px; text-align: center;" class="labelBkg" xmlns="http://www.w3.org/1999/xhtml"><span class="edgeLabel"></span></div></foreignObject></g></g></g><g class="nodes"><g transform="translate(83.1484375, 35)" id="flowchart-A1-0" class="node default"><rect height="54" width="123.3125" y="-27" x="-61.65625" ry="5" rx="5" style="" class="basic label-container"/><g transform="translate(-46.65625, -12)" style="" class="label"><rect/><foreignObject height="24" width="93.3125"><div style="display: table-cell; white-space: nowrap; line-height: 1.5; max-width: 200px; text-align: center;" xmlns="http://www.w3.org/1999/xhtml"><span class="nodeLabel"><p>any_event.pl</p></span></div></foreignObject></g></g><g transform="translate(575.40234375, 35)" id="flowchart-A2-1" class="node default"><rect height="54" width="132.96875" y="-27" x="-66.484375" ry="5" rx="5" style="" class="basic label-container"/><g transform="translate(-51.484375, -12)" style="" class="label"><rect/><foreignObject height="24" width="102.96875"><div style="display: table-cell; white-space: nowrap; line-height: 1.5; max-width: 200px; text-align: center;" xmlns="http://www.w3.org/1999/xhtml"><span class="nodeLabel"><p>time_constr.pl</p></span></div></foreignObject></g></g><g transform="translate(250.77734375, 139)" id="flowchart-A3-2" class="node default"><rect height="54" width="136.625" y="-27" x="-68.3125" ry="5" rx="5" style="" class="basic label-container"/><g transform="translate(-53.3125, -12)" style="" class="label"><rect/><foreignObject height="24" width="106.625"><div style="display: table-cell; white-space: nowrap; line-height: 1.5; max-width: 200px; text-align: center;" xmlns="http://www.w3.org/1999/xhtml"><span class="nodeLabel"><p>event_types.pl</p></span></div></foreignObject></g></g><g transform="translate(235.1796875, 243)" id="flowchart-A4-3" class="node default"><rect height="54" width="117.21875" y="-27" x="-58.609375" ry="5" rx="5" style="" class="basic label-container"/><g transform="translate(-43.609375, -12)" style="" class="label"><rect/><foreignObject height="24" width="87.21875"><div style="display: table-cell; white-space: nowrap; line-height: 1.5; max-width: 200px; text-align: center;" xmlns="http://www.w3.org/1999/xhtml"><span class="nodeLabel"><p>skippable.pl</p></span></div></foreignObject></g></g><g transform="translate(305.01171875, 35)" id="flowchart-A5-6" class="node default"><rect height="54" width="193.890625" y="-27" x="-96.9453125" ry="5" rx="5" style="" class="basic label-container"/><g transform="translate(-81.9453125, -12)" style="" class="label"><rect/><foreignObject height="24" width="163.890625"><div style="display: table-cell; white-space: nowrap; line-height: 1.5; max-width: 200px; text-align: center;" xmlns="http://www.w3.org/1999/xhtml"><span class="nodeLabel"><p>skip_pattern_syntax.pl</p></span></div></foreignObject></g></g><g transform="translate(131.5703125, 347)" id="flowchart-A6-13" class="node default"><rect height="54" width="130.265625" y="-27" x="-65.1328125" ry="5" rx="5" style="" class="basic label-container"/><g transform="translate(-50.1328125, -12)" style="" class="label"><rect/><foreignObject height="24" width="100.265625"><div style="display: table-cell; white-space: nowrap; line-height: 1.5; max-width: 200px; text-align: center;" xmlns="http://www.w3.org/1999/xhtml"><span class="nodeLabel"><p>so_auto_cp.pl</p></span></div></foreignObject></g></g><g transform="translate(575.5625, 139)" id="flowchart-A7-18" class="node default"><rect height="54" width="157.125" y="-27" x="-78.5625" ry="5" rx="5" style="" class="basic label-container"/><g transform="translate(-63.5625, -12)" style="" class="label"><rect/><foreignObject height="24" width="127.125"><div style="display: table-cell; white-space: nowrap; line-height: 1.5; max-width: 200px; text-align: center;" xmlns="http://www.w3.org/1999/xhtml"><span class="nodeLabel"><p>compiler_state.pl</p></span></div></foreignObject></g></g><g transform="translate(636.40234375, 243)" id="flowchart-A8-19" class="node default"><rect height="54" width="173.359375" y="-27" x="-86.6796875" ry="5" rx="5" style="" class="basic label-container"/><g transform="translate(-71.6796875, -12)" style="" class="label"><rect/><foreignObject height="24" width="143.359375"><div style="display: table-cell; white-space: nowrap; line-height: 1.5; max-width: 200px; text-align: center;" xmlns="http://www.w3.org/1999/xhtml"><span class="nodeLabel"><p>compiler_helpers.pl</p></span></div></foreignObject></g></g><g transform="translate(458.6875, 347)" id="flowchart-A9-22" class="node default"><rect height="54" width="208.8125" y="-27" x="-104.40625" ry="5" rx="5" style="" class="basic label-container"/><g transform="translate(-89.40625, -12)" style="" class="label"><rect/><foreignObject height="24" width="178.8125"><div style="display: table-cell; white-space: nowrap; line-height: 1.5; max-width: 200px; text-align: center;" xmlns="http://www.w3.org/1999/xhtml"><span class="nodeLabel"><p>skip_pattern_compiler.pl</p></span></div></foreignObject></g></g><g transform="translate(143.90625, 451)" id="flowchart-A10-33" class="node default"><rect height="54" width="103.203125" y="-27" x="-51.6015625" ry="5" rx="5" style="" class="basic label-container"/><g transform="translate(-36.6015625, -12)" style="" class="label"><rect/><foreignObject height="24" width="73.203125"><div style="display: table-cell; white-space: nowrap; line-height: 1.5; max-width: 200px; text-align: center;" xmlns="http://www.w3.org/1999/xhtml"><span class="nodeLabel"><p>pattern.pl</p></span></div></foreignObject></g></g><g transform="translate(879.171875, 451)" id="flowchart-A11-40" class="node default"><rect height="54" width="154.453125" y="-27" x="-77.2265625" ry="5" rx="5" style="" class="basic label-container"/><g transform="translate(-62.2265625, -12)" style="" class="label"><rect/><foreignObject height="24" width="124.453125"><div style="display: table-cell; white-space: nowrap; line-height: 1.5; max-width: 200px; text-align: center;" xmlns="http://www.w3.org/1999/xhtml"><span class="nodeLabel"><p>patterns_clpfd.pl</p></span></div></foreignObject></g></g><g transform="translate(823.05859375, 555)" id="flowchart-A12-43" class="node default"><rect height="54" width="150.34375" y="-27" x="-75.171875" ry="5" rx="5" style="" class="basic label-container"/><g transform="translate(-60.171875, -12)" style="" class="label"><rect/><foreignObject height="24" width="120.34375"><div style="display: table-cell; white-space: nowrap; line-height: 1.5; max-width: 200px; text-align: center;" xmlns="http://www.w3.org/1999/xhtml"><span class="nodeLabel"><p>read_patterns.pl</p></span></div></foreignObject></g></g><g transform="translate(53.453125, 555)" id="flowchart-A13-48" class="node default"><rect height="54" width="90.90625" y="-27" x="-45.453125" ry="5" rx="5" style="" class="basic label-container"/><g transform="translate(-30.453125, -12)" style="" class="label"><rect/><foreignObject height="24" width="60.90625"><div style="display: table-cell; white-space: nowrap; line-height: 1.5; max-width: 200px; text-align: center;" xmlns="http://www.w3.org/1999/xhtml"><span class="nodeLabel"><p>style.css</p></span></div></foreignObject></g></g><g transform="translate(623.20703125, 555)" id="flowchart-A14-49" class="node default"><rect height="54" width="149.359375" y="-27" x="-74.6796875" ry="5" rx="5" style="" class="basic label-container"/><g transform="translate(-59.6796875, -12)" style="" class="label"><rect/><foreignObject height="24" width="119.359375"><div style="display: table-cell; white-space: nowrap; line-height: 1.5; max-width: 200px; text-align: center;" xmlns="http://www.w3.org/1999/xhtml"><span class="nodeLabel"><p>write_pattern.pl</p></span></div></foreignObject></g></g><g transform="translate(390.890625, 659)" id="flowchart-A15-54" class="node default"><rect height="54" width="91.578125" y="-27" x="-45.7890625" ry="5" rx="5" style="" class="basic label-container"/><g transform="translate(-30.7890625, -12)" style="" class="label"><rect/><foreignObject height="24" width="61.578125"><div style="display: table-cell; white-space: nowrap; line-height: 1.5; max-width: 200px; text-align: center;" xmlns="http://www.w3.org/1999/xhtml"><span class="nodeLabel"><p>server.pl</p></span></div></foreignObject></g></g></g></g></g></svg>