<svg aria-roledescription="mindmap" role="graphics-document document" viewBox="-6.259675025939941 -35.91861343383789 634.4421997070312 476.9074401855469" style="max-width: 634.442px; background-color: white;" xmlns:xlink="http://www.w3.org/1999/xlink" xmlns="http://www.w3.org/2000/svg" width="100%" id="my-svg"><style>#my-svg{font-family:"trebuchet ms",verdana,arial,sans-serif;font-size:16px;fill:#333;}#my-svg .error-icon{fill:#552222;}#my-svg .error-text{fill:#552222;stroke:#552222;}#my-svg .edge-thickness-normal{stroke-width:1px;}#my-svg .edge-thickness-thick{stroke-width:3.5px;}#my-svg .edge-pattern-solid{stroke-dasharray:0;}#my-svg .edge-thickness-invisible{stroke-width:0;fill:none;}#my-svg .edge-pattern-dashed{stroke-dasharray:3;}#my-svg .edge-pattern-dotted{stroke-dasharray:2;}#my-svg .marker{fill:#333333;stroke:#333333;}#my-svg .marker.cross{stroke:#333333;}#my-svg svg{font-family:"trebuchet ms",verdana,arial,sans-serif;font-size:16px;}#my-svg p{margin:0;}#my-svg .edge{stroke-width:3;}#my-svg .section--1 rect,#my-svg .section--1 path,#my-svg .section--1 circle,#my-svg .section--1 polygon,#my-svg .section--1 path{fill:hsl(240, 100%, 76.2745098039%);}#my-svg .section--1 text{fill:#ffffff;}#my-svg .node-icon--1{font-size:40px;color:#ffffff;}#my-svg .section-edge--1{stroke:hsl(240, 100%, 76.2745098039%);}#my-svg .edge-depth--1{stroke-width:17;}#my-svg .section--1 line{stroke:hsl(60, 100%, 86.2745098039%);stroke-width:3;}#my-svg .disabled,#my-svg .disabled circle,#my-svg .disabled text{fill:lightgray;}#my-svg .disabled text{fill:#efefef;}#my-svg .section-0 rect,#my-svg .section-0 path,#my-svg .section-0 circle,#my-svg .section-0 polygon,#my-svg .section-0 path{fill:hsl(60, 100%, 73.5294117647%);}#my-svg .section-0 text{fill:black;}#my-svg .node-icon-0{font-size:40px;color:black;}#my-svg .section-edge-0{stroke:hsl(60, 100%, 73.5294117647%);}#my-svg .edge-depth-0{stroke-width:14;}#my-svg .section-0 line{stroke:hsl(240, 100%, 83.5294117647%);stroke-width:3;}#my-svg .disabled,#my-svg .disabled circle,#my-svg .disabled text{fill:lightgray;}#my-svg .disabled text{fill:#efefef;}#my-svg .section-1 rect,#my-svg .section-1 path,#my-svg .section-1 circle,#my-svg .section-1 polygon,#my-svg .section-1 path{fill:hsl(80, 100%, 76.2745098039%);}#my-svg .section-1 text{fill:black;}#my-svg .node-icon-1{font-size:40px;color:black;}#my-svg .section-edge-1{stroke:hsl(80, 100%, 76.2745098039%);}#my-svg .edge-depth-1{stroke-width:11;}#my-svg .section-1 line{stroke:hsl(260, 100%, 86.2745098039%);stroke-width:3;}#my-svg .disabled,#my-svg .disabled circle,#my-svg .disabled text{fill:lightgray;}#my-svg .disabled text{fill:#efefef;}#my-svg .section-2 rect,#my-svg .section-2 path,#my-svg .section-2 circle,#my-svg .section-2 polygon,#my-svg .section-2 path{fill:hsl(270, 100%, 76.2745098039%);}#my-svg .section-2 text{fill:#ffffff;}#my-svg .node-icon-2{font-size:40px;color:#ffffff;}#my-svg .section-edge-2{stroke:hsl(270, 100%, 76.2745098039%);}#my-svg .edge-depth-2{stroke-width:8;}#my-svg .section-2 line{stroke:hsl(90, 100%, 86.2745098039%);stroke-width:3;}#my-svg .disabled,#my-svg .disabled circle,#my-svg .disabled text{fill:lightgray;}#my-svg .disabled text{fill:#efefef;}#my-svg .section-3 rect,#my-svg .section-3 path,#my-svg .section-3 circle,#my-svg .section-3 polygon,#my-svg .section-3 path{fill:hsl(300, 100%, 76.2745098039%);}#my-svg .section-3 text{fill:black;}#my-svg .node-icon-3{font-size:40px;color:black;}#my-svg .section-edge-3{stroke:hsl(300, 100%, 76.2745098039%);}#my-svg .edge-depth-3{stroke-width:5;}#my-svg .section-3 line{stroke:hsl(120, 100%, 86.2745098039%);stroke-width:3;}#my-svg .disabled,#my-svg .disabled circle,#my-svg .disabled text{fill:lightgray;}#my-svg .disabled text{fill:#efefef;}#my-svg .section-4 rect,#my-svg .section-4 path,#my-svg .section-4 circle,#my-svg .section-4 polygon,#my-svg .section-4 path{fill:hsl(330, 100%, 76.2745098039%);}#my-svg .section-4 text{fill:black;}#my-svg .node-icon-4{font-size:40px;color:black;}#my-svg .section-edge-4{stroke:hsl(330, 100%, 76.2745098039%);}#my-svg .edge-depth-4{stroke-width:2;}#my-svg .section-4 line{stroke:hsl(150, 100%, 86.2745098039%);stroke-width:3;}#my-svg .disabled,#my-svg .disabled circle,#my-svg .disabled text{fill:lightgray;}#my-svg .disabled text{fill:#efefef;}#my-svg .section-5 rect,#my-svg .section-5 path,#my-svg .section-5 circle,#my-svg .section-5 polygon,#my-svg .section-5 path{fill:hsl(0, 100%, 76.2745098039%);}#my-svg .section-5 text{fill:black;}#my-svg .node-icon-5{font-size:40px;color:black;}#my-svg .section-edge-5{stroke:hsl(0, 100%, 76.2745098039%);}#my-svg .edge-depth-5{stroke-width:-1;}#my-svg .section-5 line{stroke:hsl(180, 100%, 86.2745098039%);stroke-width:3;}#my-svg .disabled,#my-svg .disabled circle,#my-svg .disabled text{fill:lightgray;}#my-svg .disabled text{fill:#efefef;}#my-svg .section-6 rect,#my-svg .section-6 path,#my-svg .section-6 circle,#my-svg .section-6 polygon,#my-svg .section-6 path{fill:hsl(30, 100%, 76.2745098039%);}#my-svg .section-6 text{fill:black;}#my-svg .node-icon-6{font-size:40px;color:black;}#my-svg .section-edge-6{stroke:hsl(30, 100%, 76.2745098039%);}#my-svg .edge-depth-6{stroke-width:-4;}#my-svg .section-6 line{stroke:hsl(210, 100%, 86.2745098039%);stroke-width:3;}#my-svg .disabled,#my-svg .disabled circle,#my-svg .disabled text{fill:lightgray;}#my-svg .disabled text{fill:#efefef;}#my-svg .section-7 rect,#my-svg .section-7 path,#my-svg .section-7 circle,#my-svg .section-7 polygon,#my-svg .section-7 path{fill:hsl(90, 100%, 76.2745098039%);}#my-svg .section-7 text{fill:black;}#my-svg .node-icon-7{font-size:40px;color:black;}#my-svg .section-edge-7{stroke:hsl(90, 100%, 76.2745098039%);}#my-svg .edge-depth-7{stroke-width:-7;}#my-svg .section-7 line{stroke:hsl(270, 100%, 86.2745098039%);stroke-width:3;}#my-svg .disabled,#my-svg .disabled circle,#my-svg .disabled text{fill:lightgray;}#my-svg .disabled text{fill:#efefef;}#my-svg .section-8 rect,#my-svg .section-8 path,#my-svg .section-8 circle,#my-svg .section-8 polygon,#my-svg .section-8 path{fill:hsl(150, 100%, 76.2745098039%);}#my-svg .section-8 text{fill:black;}#my-svg .node-icon-8{font-size:40px;color:black;}#my-svg .section-edge-8{stroke:hsl(150, 100%, 76.2745098039%);}#my-svg .edge-depth-8{stroke-width:-10;}#my-svg .section-8 line{stroke:hsl(330, 100%, 86.2745098039%);stroke-width:3;}#my-svg .disabled,#my-svg .disabled circle,#my-svg .disabled text{fill:lightgray;}#my-svg .disabled text{fill:#efefef;}#my-svg .section-9 rect,#my-svg .section-9 path,#my-svg .section-9 circle,#my-svg .section-9 polygon,#my-svg .section-9 path{fill:hsl(180, 100%, 76.2745098039%);}#my-svg .section-9 text{fill:black;}#my-svg .node-icon-9{font-size:40px;color:black;}#my-svg .section-edge-9{stroke:hsl(180, 100%, 76.2745098039%);}#my-svg .edge-depth-9{stroke-width:-13;}#my-svg .section-9 line{stroke:hsl(0, 100%, 86.2745098039%);stroke-width:3;}#my-svg .disabled,#my-svg .disabled circle,#my-svg .disabled text{fill:lightgray;}#my-svg .disabled text{fill:#efefef;}#my-svg .section-10 rect,#my-svg .section-10 path,#my-svg .section-10 circle,#my-svg .section-10 polygon,#my-svg .section-10 path{fill:hsl(210, 100%, 76.2745098039%);}#my-svg .section-10 text{fill:black;}#my-svg .node-icon-10{font-size:40px;color:black;}#my-svg .section-edge-10{stroke:hsl(210, 100%, 76.2745098039%);}#my-svg .edge-depth-10{stroke-width:-16;}#my-svg .section-10 line{stroke:hsl(30, 100%, 86.2745098039%);stroke-width:3;}#my-svg .disabled,#my-svg .disabled circle,#my-svg .disabled text{fill:lightgray;}#my-svg .disabled text{fill:#efefef;}#my-svg .section-root rect,#my-svg .section-root path,#my-svg .section-root circle,#my-svg .section-root polygon{fill:hsl(240, 100%, 46.2745098039%);}#my-svg .section-root text{fill:#ffffff;}#my-svg .icon-container{height:100%;display:flex;justify-content:center;align-items:center;}#my-svg .edge{fill:none;}#my-svg .mindmap-node-label{dy:1em;alignment-baseline:middle;text-anchor:middle;dominant-baseline:middle;text-align:center;}#my-svg :root{--mermaid-font-family:"trebuchet ms",verdana,arial,sans-serif;}</style><g/><g class="mindmap-edges"><path class="edge section-edge-0 edge-depth-1" d="M 412.6252252871129,88.77694236621556 L 451.5812584375236,65.59148542183655 L490.5372915879343,42.406028477457525"/><path class="edge section-edge-0 edge-depth-0" d="M 354.77001664568064,169.96599606197913 L 373.3394419984112,139.60541136310044 L391.90886735114174,109.24482666422176"/><path class="edge section-edge-1 edge-depth-1" d="M 471.5214071893662,194.98985036792163 L 508.73952666168634,197.82127571946123 L545.9576461340065,200.65270107100082"/><path class="edge section-edge-1 edge-depth-0" d="M 361.8672665074296,184.2720260988984 L 401.7540327343569,188.3071311570652 L441.6407989612842,192.34223621523196"/><path class="edge section-edge-2 edge-depth-1" d="M 362.2747666809314,288.4174895077368 L 364.5793585568239,319.4684404957735 L366.88395043271635,350.51939148381024"/><path class="edge section-edge-2 edge-depth-0" d="M 349.2670311285851,197.5812096670307 L 354.05398179742417,228.11045284475327 L358.84093246626327,258.63969602247585"/><path class="edge section-edge-3 edge-depth-1" d="M 199.79093741427084,224.33169043579804 L 140.652334759202,223.39208635308088 L81.51373210413317,222.45248227036373"/><path class="edge section-edge-3 edge-depth-0" d="M 332.6420231097267,187.28659697530213 L 280.8662415128306,203.66612738090595 L229.09045991593445,220.04565778650982"/><path class="edge section-edge-4 edge-depth-1" d="M 249.81777828540257,96.72556705438137 L 220.57265771092716,70.3371481263525 L191.32753713645175,43.94872919832362"/><path class="edge section-edge-4 edge-depth-0" d="M 335.7033472641806,172.82948027957377 L 303.94889003204923,144.76828406307587 L272.1944327999179,116.70708784657795"/></g><g class="mindmap-nodes"><g transform="translate(312.96687600725716, 163.86227187344673)" class="mindmap-node section--1 section-root"><g transform="translate(33.9765625, 18.9)"><circle r="33.9765625" class="node-bkg node-circle" id="node-0"/></g><g transform="translate(33.9765625, 5)" text-anchor="middle" dominant-baseline="middle" alignment-baseline="middle" dy="1em"><g><rect style="stroke: none" class="background"/><text style="" y="-10.1"><tspan dy="1.1em" y="-0.1em" x="0" class="text-outer-tspan"><tspan font-weight="normal" class="text-inner-tspan" font-style="normal">Coucal</tspan></tspan></text></g></g></g><g transform="translate(373.1807579895652, 77.54855085275415)" class="mindmap-node section-0"><g><path d="M0 32.8 v-27.799999999999997 q0,-5 5,-5 h43.109375 q5,0 5,5 v32.8 H0 Z" class="node-bkg node-no-border" id="node-1"/><line y2="37.8" x2="53.109375" y1="37.8" x1="0" class="node-line-0"/></g><g transform="translate(26.5546875, 5)" text-anchor="middle" dominant-baseline="middle" alignment-baseline="middle" dy="1em"><g><rect style="stroke: none" class="background"/><text style="" y="-10.1"><tspan dy="1.1em" y="-0.1em" x="0" class="text-outer-tspan"><tspan font-weight="normal" class="text-inner-tspan" font-style="normal">Core</tspan></tspan></text></g></g></g><g transform="translate(435.1583769614566, 174.95199044068363)" class="mindmap-node section-1"><g><path d="M0 32.8 v-27.799999999999997 q0,-5 5,-5 h32.8125 q5,0 5,5 v32.8 H0 Z" class="node-bkg node-no-border" id="node-3"/><line y2="37.8" x2="42.8125" y1="37.8" x1="0" class="node-line-1"/></g><g transform="translate(21.40625, 5)" text-anchor="middle" dominant-baseline="middle" alignment-baseline="middle" dy="1em"><g><rect style="stroke: none" class="background"/><text style="" y="-10.1"><tspan dy="1.1em" y="-0.1em" x="0" class="text-outer-tspan"><tspan font-weight="normal" class="text-inner-tspan" font-style="normal">API</tspan></tspan></text></g></g></g><g transform="translate(322.3364000875912, 254.55863381605977)" class="mindmap-node section-2"><g><path d="M0 32.8 v-27.799999999999997 q0,-5 5,-5 h67.65625 q5,0 5,5 v32.8 H0 Z" class="node-bkg node-no-border" id="node-5"/><line y2="37.8" x2="77.65625" y1="37.8" x1="0" class="node-line-2"/></g><g transform="translate(38.828125, 5)" text-anchor="middle" dominant-baseline="middle" alignment-baseline="middle" dy="1em"><g><rect style="stroke: none" class="background"/><text style="" y="-10.1"><tspan dy="1.1em" y="-0.1em" x="0" class="text-outer-tspan"><tspan font-weight="normal" class="text-inner-tspan" font-style="normal">Channel</tspan></tspan></text></g></g></g><g transform="translate(171.335919518404, 205.6699828883652)" class="mindmap-node section-3"><g><path d="M0 32.8 v-27.799999999999997 q0,-5 5,-5 h76.90625 q5,0 5,5 v32.8 H0 Z" class="node-bkg node-no-border" id="node-7"/><line y2="37.8" x2="86.90625" y1="37.8" x1="0" class="node-line-3"/></g><g transform="translate(43.453125, 5)" text-anchor="middle" dominant-baseline="middle" alignment-baseline="middle" dy="1em"><g><rect style="stroke: none" class="background"/><text style="" y="-10.1"><tspan dy="1.1em" y="-0.1em" x="0" class="text-outer-tspan"><tspan font-weight="normal" class="text-inner-tspan" font-style="normal">Workflow</tspan></tspan></text></g></g></g><g transform="translate(215.5637165568413, 87.874296252705)" class="mindmap-node section-4"><g><path d="M0 32.8 v-27.799999999999997 q0,-5 5,-5 h80.78125 q5,0 5,5 v32.8 H0 Z" class="node-bkg node-no-border" id="node-9"/><line y2="37.8" x2="90.78125" y1="37.8" x1="0" class="node-line-4"/></g><g transform="translate(45.390625, 5)" text-anchor="middle" dominant-baseline="middle" alignment-baseline="middle" dy="1em"><g><rect style="stroke: none" class="background"/><text style="" y="-10.1"><tspan dy="1.1em" y="-0.1em" x="0" class="text-outer-tspan"><tspan font-weight="normal" class="text-inner-tspan" font-style="normal">Command</tspan></tspan></text></g></g></g><g transform="translate(415.153633885482, 15.834419990918946)" class="mindmap-node section-0"><g><path d="M0 0 a26.48203125,26.48203125 0 0,1 44.13671875,-17.6546875&#10;      a61.791406249999994,61.791406249999994 1 0,1 70.61875,-17.6546875&#10;      a44.13671875,44.13671875 1 0,1 61.791406249999994,35.309375&#10;&#10;      a26.48203125,26.48203125 1 0,1 26.48203125,13.229999999999999&#10;      a35.309375,35.309375 1 0,1 -26.48203125,24.57&#10;&#10;      a44.13671875,26.48203125 1 0,1 -44.13671875,26.48203125&#10;      a61.791406249999994,61.791406249999994 1 0,1 -88.2734375,0&#10;      a26.48203125,26.48203125 1 0,1 -44.13671875,-26.48203125&#10;&#10;      a26.48203125,26.48203125 1 0,1 -17.6546875,-13.229999999999999&#10;      a35.309375,35.309375 1 0,1 17.6546875,-24.57&#10;&#10;    H0 V0 Z" class="node-bkg node-cloud" id="node-2"/></g><g transform="translate(88.2734375, 5)" text-anchor="middle" dominant-baseline="middle" alignment-baseline="middle" dy="1em"><g><rect style="stroke: none" class="background"/><text style="" y="-10.1"><tspan dy="1.1em" y="-0.1em" x="0" class="text-outer-tspan"><tspan font-weight="normal" class="text-inner-tspan" font-style="normal">CalDAV/Local</tspan><tspan font-weight="normal" class="text-inner-tspan" font-style="normal"> FS,</tspan><tspan font-weight="normal" class="text-inner-tspan" font-style="normal"> etc.</tspan></tspan></text></g></g></g><g transform="translate(531.9300513619161, 182.8905609982388)" class="mindmap-node section-1"><g><path d="M0 0 a8.6953125,8.6953125 0 0,1 14.4921875,-5.796875&#10;      a20.2890625,20.2890625 1 0,1 23.1875,-5.796875&#10;      a14.4921875,14.4921875 1 0,1 20.2890625,11.59375&#10;&#10;      a8.6953125,8.6953125 1 0,1 8.6953125,13.229999999999999&#10;      a11.59375,11.59375 1 0,1 -8.6953125,24.57&#10;&#10;      a14.4921875,8.6953125 1 0,1 -14.4921875,8.6953125&#10;      a20.2890625,20.2890625 1 0,1 -28.984375,0&#10;      a8.6953125,8.6953125 1 0,1 -14.4921875,-8.6953125&#10;&#10;      a8.6953125,8.6953125 1 0,1 -5.796875,-13.229999999999999&#10;      a11.59375,11.59375 1 0,1 5.796875,-24.57&#10;&#10;    H0 V0 Z" class="node-bkg node-cloud" id="node-4"/></g><g transform="translate(28.984375, 5)" text-anchor="middle" dominant-baseline="middle" alignment-baseline="middle" dy="1em"><g><rect style="stroke: none" class="background"/><text style="" y="-10.1"><tspan dy="1.1em" y="-0.1em" x="0" class="text-outer-tspan"><tspan font-weight="normal" class="text-inner-tspan" font-style="normal">HTTP</tspan></tspan></text></g></g></g><g transform="translate(276.61919202605657, 346.57824717548726)" class="mindmap-node section-2"><g><path d="M0 0 a27.412499999999998,27.412499999999998 0 0,1 45.6875,-18.275000000000002&#10;      a63.9625,63.9625 1 0,1 73.10000000000001,-18.275000000000002&#10;      a45.6875,45.6875 1 0,1 63.9625,36.550000000000004&#10;&#10;      a27.412499999999998,27.412499999999998 1 0,1 27.412499999999998,13.229999999999999&#10;      a36.550000000000004,36.550000000000004 1 0,1 -27.412499999999998,24.57&#10;&#10;      a45.6875,27.412499999999998 1 0,1 -45.6875,27.412499999999998&#10;      a63.9625,63.9625 1 0,1 -91.375,0&#10;      a27.412499999999998,27.412499999999998 1 0,1 -45.6875,-27.412499999999998&#10;&#10;      a27.412499999999998,27.412499999999998 1 0,1 -18.275000000000002,-13.229999999999999&#10;      a36.550000000000004,36.550000000000004 1 0,1 18.275000000000002,-24.57&#10;&#10;    H0 V0 Z" class="node-bkg node-cloud" id="node-6"/></g><g transform="translate(91.375, 5)" text-anchor="middle" dominant-baseline="middle" alignment-baseline="middle" dy="1em"><g><rect style="stroke: none" class="background"/><text style="" y="-10.1"><tspan dy="1.1em" y="-0.1em" x="0" class="text-outer-tspan"><tspan font-weight="normal" class="text-inner-tspan" font-style="normal">SMTP/IMAP/XMPP,</tspan><tspan font-weight="normal" class="text-inner-tspan" font-style="normal"> etc.</tspan></tspan></text></g></g></g><g transform="translate(15, 203.31418981779655)" class="mindmap-node section-3"><g><path d="M0 0 a15.454687499999999,15.454687499999999 0 0,1 25.7578125,-10.303125000000001&#10;      a36.060937499999994,36.060937499999994 1 0,1 41.212500000000006,-10.303125000000001&#10;      a25.7578125,25.7578125 1 0,1 36.060937499999994,20.606250000000003&#10;&#10;      a15.454687499999999,15.454687499999999 1 0,1 15.454687499999999,13.229999999999999&#10;      a20.606250000000003,20.606250000000003 1 0,1 -15.454687499999999,24.57&#10;&#10;      a25.7578125,15.454687499999999 1 0,1 -25.7578125,15.454687499999999&#10;      a36.060937499999994,36.060937499999994 1 0,1 -51.515625,0&#10;      a15.454687499999999,15.454687499999999 1 0,1 -25.7578125,-15.454687499999999&#10;&#10;      a15.454687499999999,15.454687499999999 1 0,1 -10.303125000000001,-13.229999999999999&#10;      a20.606250000000003,20.606250000000003 1 0,1 10.303125000000001,-24.57&#10;&#10;    H0 V0 Z" class="node-bkg node-cloud" id="node-8"/></g><g transform="translate(51.515625, 5)" text-anchor="middle" dominant-baseline="middle" alignment-baseline="middle" dy="1em"><g><rect style="stroke: none" class="background"/><text style="" y="-10.1"><tspan dy="1.1em" y="-0.1em" x="0" class="text-outer-tspan"><tspan font-weight="normal" class="text-inner-tspan" font-style="normal">Automation</tspan></tspan></text></g></g></g><g transform="translate(89.503473865013, 15)" class="mindmap-node section-4"><g><path d="M0 0 a27.20625,27.20625 0 0,1 45.34375,-18.1375&#10;      a63.481249999999996,63.481249999999996 1 0,1 72.55,-18.1375&#10;      a45.34375,45.34375 1 0,1 63.481249999999996,36.275&#10;&#10;      a27.20625,27.20625 1 0,1 27.20625,13.229999999999999&#10;      a36.275,36.275 1 0,1 -27.20625,24.57&#10;&#10;      a45.34375,27.20625 1 0,1 -45.34375,27.20625&#10;      a63.481249999999996,63.481249999999996 1 0,1 -90.6875,0&#10;      a27.20625,27.20625 1 0,1 -45.34375,-27.20625&#10;&#10;      a27.20625,27.20625 1 0,1 -18.1375,-13.229999999999999&#10;      a36.275,36.275 1 0,1 18.1375,-24.57&#10;&#10;    H0 V0 Z" class="node-bkg node-cloud" id="node-10"/></g><g transform="translate(90.6875, 5)" text-anchor="middle" dominant-baseline="middle" alignment-baseline="middle" dy="1em"><g><rect style="stroke: none" class="background"/><text style="" y="-10.1"><tspan dy="1.1em" y="-0.1em" x="0" class="text-outer-tspan"><tspan font-weight="normal" class="text-inner-tspan" font-style="normal">Command</tspan><tspan font-weight="normal" class="text-inner-tspan" font-style="normal"> line</tspan><tspan font-weight="normal" class="text-inner-tspan" font-style="normal"> support</tspan></tspan></text></g></g></g></g></svg>