<svg aria-roledescription="er" role="graphics-document document" viewBox="0 0 399.796875 664.91796875" style="max-width: 399.797px; background-color: white;" xmlns:xlink="http://www.w3.org/1999/xlink" xmlns="http://www.w3.org/2000/svg" width="100%" id="my-svg"><style>#my-svg{font-family:"trebuchet ms",verdana,arial,sans-serif;font-size:16px;fill:#333;}#my-svg .error-icon{fill:#552222;}#my-svg .error-text{fill:#552222;stroke:#552222;}#my-svg .edge-thickness-normal{stroke-width:1px;}#my-svg .edge-thickness-thick{stroke-width:3.5px;}#my-svg .edge-pattern-solid{stroke-dasharray:0;}#my-svg .edge-thickness-invisible{stroke-width:0;fill:none;}#my-svg .edge-pattern-dashed{stroke-dasharray:3;}#my-svg .edge-pattern-dotted{stroke-dasharray:2;}#my-svg .marker{fill:#333333;stroke:#333333;}#my-svg .marker.cross{stroke:#333333;}#my-svg svg{font-family:"trebuchet ms",verdana,arial,sans-serif;font-size:16px;}#my-svg p{margin:0;}#my-svg .entityBox{fill:#ECECFF;stroke:#9370DB;}#my-svg .attributeBoxOdd{fill:#ffffff;stroke:#9370DB;}#my-svg .attributeBoxEven{fill:#f2f2f2;stroke:#9370DB;}#my-svg .relationshipLabelBox{fill:hsl(80, 100%, 96.2745098039%);opacity:0.7;background-color:hsl(80, 100%, 96.2745098039%);}#my-svg .relationshipLabelBox rect{opacity:0.5;}#my-svg .relationshipLine{stroke:#333333;}#my-svg .entityTitleText{text-anchor:middle;font-size:18px;fill:#333;}#my-svg #MD_PARENT_START{fill:#f5f5f5!important;stroke:#333333!important;stroke-width:1;}#my-svg #MD_PARENT_END{fill:#f5f5f5!important;stroke:#333333!important;stroke-width:1;}#my-svg :root{--mermaid-font-family:"trebuchet ms",verdana,arial,sans-serif;}</style><g/><defs><marker orient="auto" markerHeight="240" markerWidth="190" refY="7" refX="0" id="MD_PARENT_START"><path d="M 18,7 L9,13 L1,7 L9,1 Z"/></marker></defs><defs><marker orient="auto" markerHeight="28" markerWidth="20" refY="7" refX="19" id="MD_PARENT_END"><path d="M 18,7 L9,13 L1,7 L9,1 Z"/></marker></defs><defs><marker orient="auto" markerHeight="18" markerWidth="18" refY="9" refX="0" id="ONLY_ONE_START"><path d="M9,0 L9,18 M15,0 L15,18" fill="none" stroke="gray"/></marker></defs><defs><marker orient="auto" markerHeight="18" markerWidth="18" refY="9" refX="18" id="ONLY_ONE_END"><path d="M3,0 L3,18 M9,0 L9,18" fill="none" stroke="gray"/></marker></defs><defs><marker orient="auto" markerHeight="18" markerWidth="30" refY="9" refX="0" id="ZERO_OR_ONE_START"><circle r="6" cy="9" cx="21" fill="white" stroke="gray"/><path d="M9,0 L9,18" fill="none" stroke="gray"/></marker></defs><defs><marker orient="auto" markerHeight="18" markerWidth="30" refY="9" refX="30" id="ZERO_OR_ONE_END"><circle r="6" cy="9" cx="9" fill="white" stroke="gray"/><path d="M21,0 L21,18" fill="none" stroke="gray"/></marker></defs><defs><marker orient="auto" markerHeight="36" markerWidth="45" refY="18" refX="18" id="ONE_OR_MORE_START"><path d="M0,18 Q 18,0 36,18 Q 18,36 0,18 M42,9 L42,27" fill="none" stroke="gray"/></marker></defs><defs><marker orient="auto" markerHeight="36" markerWidth="45" refY="18" refX="27" id="ONE_OR_MORE_END"><path d="M3,9 L3,27 M9,18 Q27,0 45,18 Q27,36 9,18" fill="none" stroke="gray"/></marker></defs><defs><marker orient="auto" markerHeight="36" markerWidth="57" refY="18" refX="18" id="ZERO_OR_MORE_START"><circle r="6" cy="18" cx="48" fill="white" stroke="gray"/><path d="M0,18 Q18,0 36,18 Q18,36 0,18" fill="none" stroke="gray"/></marker></defs><defs><marker orient="auto" markerHeight="36" markerWidth="57" refY="18" refX="39" id="ZERO_OR_MORE_END"><circle r="6" cy="18" cx="9" fill="white" stroke="gray"/><path d="M21,18 Q39,0 57,18 Q39,36 21,18" fill="none" stroke="gray"/></marker></defs><path style="stroke: gray; fill: none;" marker-start="url(#ONLY_ONE_START)" marker-end="url(#ZERO_OR_MORE_END)" d="M303.391,176.459L303.391,184.792C303.391,193.126,303.391,209.792,303.391,226.474C303.391,243.156,303.391,259.854,303.391,268.202L303.391,276.551" class="er relationshipLine"/><path style="stroke: gray; fill: none;" marker-start="url(#ONLY_ONE_START)" marker-end="url(#ZERO_OR_MORE_END)" d="M73.492,410.734L73.492,419.068C73.492,427.401,73.492,444.068,82.583,461.661C91.673,479.254,109.854,497.774,118.945,507.034L128.035,516.294" class="er relationshipLine"/><path style="stroke: gray; fill: none;" marker-start="url(#ONLY_ONE_START)" marker-end="url(#ONE_OR_MORE_END)" d="M303.391,410.643L303.391,418.991C303.391,427.34,303.391,444.037,294.3,461.646C285.21,479.254,267.029,497.774,257.938,507.034L248.848,516.294" class="er relationshipLine"/><g transform="translate(248.640625,20 )" id="entity-USUARIO-2dbea479-c464-5e02-9ddf-36fc948251bd"><rect height="156.45898914337158" width="109.5" y="0" x="0" class="er entityBox"/><text style="dominant-baseline: middle; text-anchor: middle; font-size: 12px;" transform="translate(54.75,12)" y="0" x="0" id="text-entity-USUARIO-2dbea479-c464-5e02-9ddf-36fc948251bd" class="er entityLabel">USUARIO</text><rect height="22" width="35.75" y="24" x="0" class="er attributeBoxOdd"/><text style="dominant-baseline: middle; font-size: 10.2px;" transform="translate(5,35)" y="0" x="0" id="text-entity-USUARIO-2dbea479-c464-5e02-9ddf-36fc948251bd-attr-1-type" class="er entityLabel">int</text><rect height="22" width="52.1875" y="24" x="35.75" class="er attributeBoxOdd"/><text style="dominant-baseline: middle; font-size: 10.2px;" transform="translate(40.75,35)" y="0" x="0" id="text-entity-USUARIO-2dbea479-c464-5e02-9ddf-36fc948251bd-attr-1-name" class="er entityLabel">id</text><rect height="22" width="21.5625" y="24" x="87.9375" class="er attributeBoxOdd"/><text style="dominant-baseline: middle; font-size: 10.2px;" transform="translate(92.9375,35)" y="0" x="0" id="text-entity-USUARIO-2dbea479-c464-5e02-9ddf-36fc948251bd-attr-1-key" class="er entityLabel">PK</text><rect height="22.091797828674316" width="35.75" y="46" x="0" class="er attributeBoxEven"/><text style="dominant-baseline: middle; font-size: 10.2px;" transform="translate(5,57.04589891433716)" y="0" x="0" id="text-entity-USUARIO-2dbea479-c464-5e02-9ddf-36fc948251bd-attr-2-type" class="er entityLabel">string</text><rect height="22.091797828674316" width="52.1875" y="46" x="35.75" class="er attributeBoxEven"/><text style="dominant-baseline: middle; font-size: 10.2px;" transform="translate(40.75,57.04589891433716)" y="0" x="0" id="text-entity-USUARIO-2dbea479-c464-5e02-9ddf-36fc948251bd-attr-2-name" class="er entityLabel">nombre</text><rect height="22.091797828674316" width="21.5625" y="46" x="87.9375" class="er attributeBoxEven"/><text style="dominant-baseline: middle; font-size: 10.2px;" transform="translate(92.9375,57.04589891433716)" y="0" x="0" id="text-entity-USUARIO-2dbea479-c464-5e02-9ddf-36fc948251bd-attr-2-key" class="er entityLabel"/><rect height="22.091797828674316" width="35.75" y="68.09179782867432" x="0" class="er attributeBoxOdd"/><text style="dominant-baseline: middle; font-size: 10.2px;" transform="translate(5,79.13769674301147)" y="0" x="0" id="text-entity-USUARIO-2dbea479-c464-5e02-9ddf-36fc948251bd-attr-3-type" class="er entityLabel">string</text><rect height="22.091797828674316" width="52.1875" y="68.09179782867432" x="35.75" class="er attributeBoxOdd"/><text style="dominant-baseline: middle; font-size: 10.2px;" transform="translate(40.75,79.13769674301147)" y="0" x="0" id="text-entity-USUARIO-2dbea479-c464-5e02-9ddf-36fc948251bd-attr-3-name" class="er entityLabel">telefono</text><rect height="22.091797828674316" width="21.5625" y="68.09179782867432" x="87.9375" class="er attributeBoxOdd"/><text style="dominant-baseline: middle; font-size: 10.2px;" transform="translate(92.9375,79.13769674301147)" y="0" x="0" id="text-entity-USUARIO-2dbea479-c464-5e02-9ddf-36fc948251bd-attr-3-key" class="er entityLabel"/><rect height="22.091797828674316" width="35.75" y="90.18359565734863" x="0" class="er attributeBoxEven"/><text style="dominant-baseline: middle; font-size: 10.2px;" transform="translate(5,101.22949457168579)" y="0" x="0" id="text-entity-USUARIO-2dbea479-c464-5e02-9ddf-36fc948251bd-attr-4-type" class="er entityLabel">string</text><rect height="22.091797828674316" width="52.1875" y="90.18359565734863" x="35.75" class="er attributeBoxEven"/><text style="dominant-baseline: middle; font-size: 10.2px;" transform="translate(40.75,101.22949457168579)" y="0" x="0" id="text-entity-USUARIO-2dbea479-c464-5e02-9ddf-36fc948251bd-attr-4-name" class="er entityLabel">direccion</text><rect height="22.091797828674316" width="21.5625" y="90.18359565734863" x="87.9375" class="er attributeBoxEven"/><text style="dominant-baseline: middle; font-size: 10.2px;" transform="translate(92.9375,101.22949457168579)" y="0" x="0" id="text-entity-USUARIO-2dbea479-c464-5e02-9ddf-36fc948251bd-attr-4-key" class="er entityLabel"/><rect height="22.091797828674316" width="35.75" y="112.27539348602295" x="0" class="er attributeBoxOdd"/><text style="dominant-baseline: middle; font-size: 10.2px;" transform="translate(5,123.32129240036011)" y="0" x="0" id="text-entity-USUARIO-2dbea479-c464-5e02-9ddf-36fc948251bd-attr-5-type" class="er entityLabel">string</text><rect height="22.091797828674316" width="52.1875" y="112.27539348602295" x="35.75" class="er attributeBoxOdd"/><text style="dominant-baseline: middle; font-size: 10.2px;" transform="translate(40.75,123.32129240036011)" y="0" x="0" id="text-entity-USUARIO-2dbea479-c464-5e02-9ddf-36fc948251bd-attr-5-name" class="er entityLabel">email</text><rect height="22.091797828674316" width="21.5625" y="112.27539348602295" x="87.9375" class="er attributeBoxOdd"/><text style="dominant-baseline: middle; font-size: 10.2px;" transform="translate(92.9375,123.32129240036011)" y="0" x="0" id="text-entity-USUARIO-2dbea479-c464-5e02-9ddf-36fc948251bd-attr-5-key" class="er entityLabel"/><rect height="22.091797828674316" width="35.75" y="134.36719131469727" x="0" class="er attributeBoxEven"/><text style="dominant-baseline: middle; font-size: 10.2px;" transform="translate(5,145.41309022903442)" y="0" x="0" id="text-entity-USUARIO-2dbea479-c464-5e02-9ddf-36fc948251bd-attr-6-type" class="er entityLabel">string</text><rect height="22.091797828674316" width="52.1875" y="134.36719131469727" x="35.75" class="er attributeBoxEven"/><text style="dominant-baseline: middle; font-size: 10.2px;" transform="translate(40.75,145.41309022903442)" y="0" x="0" id="text-entity-USUARIO-2dbea479-c464-5e02-9ddf-36fc948251bd-attr-6-name" class="er entityLabel">tipo</text><rect height="22.091797828674316" width="21.5625" y="134.36719131469727" x="87.9375" class="er attributeBoxEven"/><text style="dominant-baseline: middle; font-size: 10.2px;" transform="translate(92.9375,145.41309022903442)" y="0" x="0" id="text-entity-USUARIO-2dbea479-c464-5e02-9ddf-36fc948251bd-attr-6-key" class="er entityLabel"/></g><g transform="translate(226.984375,276.55078125 )" id="entity-PEDIDO-79609d0a-2a15-5826-829f-bc409be443d0"><rect height="134.09179782867432" width="152.8125" y="0" x="0" class="er entityBox"/><text style="dominant-baseline: middle; text-anchor: middle; font-size: 12px;" transform="translate(76.40625,12)" y="0" x="0" id="text-entity-PEDIDO-79609d0a-2a15-5826-829f-bc409be443d0" class="er entityLabel">PEDIDO</text><rect height="22" width="51.640625" y="24" x="0" class="er attributeBoxOdd"/><text style="dominant-baseline: middle; font-size: 10.2px;" transform="translate(5,35)" y="0" x="0" id="text-entity-PEDIDO-79609d0a-2a15-5826-829f-bc409be443d0-attr-1-type" class="er entityLabel">int</text><rect height="22" width="79.609375" y="24" x="51.640625" class="er attributeBoxOdd"/><text style="dominant-baseline: middle; font-size: 10.2px;" transform="translate(56.640625,35)" y="0" x="0" id="text-entity-PEDIDO-79609d0a-2a15-5826-829f-bc409be443d0-attr-1-name" class="er entityLabel">id</text><rect height="22" width="21.5625" y="24" x="131.25" class="er attributeBoxOdd"/><text style="dominant-baseline: middle; font-size: 10.2px;" transform="translate(136.25,35)" y="0" x="0" id="text-entity-PEDIDO-79609d0a-2a15-5826-829f-bc409be443d0-attr-1-key" class="er entityLabel">PK</text><rect height="22" width="51.640625" y="46" x="0" class="er attributeBoxEven"/><text style="dominant-baseline: middle; font-size: 10.2px;" transform="translate(5,57)" y="0" x="0" id="text-entity-PEDIDO-79609d0a-2a15-5826-829f-bc409be443d0-attr-2-type" class="er entityLabel">int</text><rect height="22" width="79.609375" y="46" x="51.640625" class="er attributeBoxEven"/><text style="dominant-baseline: middle; font-size: 10.2px;" transform="translate(56.640625,57)" y="0" x="0" id="text-entity-PEDIDO-79609d0a-2a15-5826-829f-bc409be443d0-attr-2-name" class="er entityLabel">id_usuario</text><rect height="22" width="21.5625" y="46" x="131.25" class="er attributeBoxEven"/><text style="dominant-baseline: middle; font-size: 10.2px;" transform="translate(136.25,57)" y="0" x="0" id="text-entity-PEDIDO-79609d0a-2a15-5826-829f-bc409be443d0-attr-2-key" class="er entityLabel">FK</text><rect height="22" width="51.640625" y="68" x="0" class="er attributeBoxOdd"/><text style="dominant-baseline: middle; font-size: 10.2px;" transform="translate(5,79)" y="0" x="0" id="text-entity-PEDIDO-79609d0a-2a15-5826-829f-bc409be443d0-attr-3-type" class="er entityLabel">datetime</text><rect height="22" width="79.609375" y="68" x="51.640625" class="er attributeBoxOdd"/><text style="dominant-baseline: middle; font-size: 10.2px;" transform="translate(56.640625,79)" y="0" x="0" id="text-entity-PEDIDO-79609d0a-2a15-5826-829f-bc409be443d0-attr-3-name" class="er entityLabel">fecha_creacion</text><rect height="22" width="21.5625" y="68" x="131.25" class="er attributeBoxOdd"/><text style="dominant-baseline: middle; font-size: 10.2px;" transform="translate(136.25,79)" y="0" x="0" id="text-entity-PEDIDO-79609d0a-2a15-5826-829f-bc409be443d0-attr-3-key" class="er entityLabel"/><rect height="22" width="51.640625" y="90" x="0" class="er attributeBoxEven"/><text style="dominant-baseline: middle; font-size: 10.2px;" transform="translate(5,101)" y="0" x="0" id="text-entity-PEDIDO-79609d0a-2a15-5826-829f-bc409be443d0-attr-4-type" class="er entityLabel">float</text><rect height="22" width="79.609375" y="90" x="51.640625" class="er attributeBoxEven"/><text style="dominant-baseline: middle; font-size: 10.2px;" transform="translate(56.640625,101)" y="0" x="0" id="text-entity-PEDIDO-79609d0a-2a15-5826-829f-bc409be443d0-attr-4-name" class="er entityLabel">total</text><rect height="22" width="21.5625" y="90" x="131.25" class="er attributeBoxEven"/><text style="dominant-baseline: middle; font-size: 10.2px;" transform="translate(136.25,101)" y="0" x="0" id="text-entity-PEDIDO-79609d0a-2a15-5826-829f-bc409be443d0-attr-4-key" class="er entityLabel"/><rect height="22.091797828674316" width="51.640625" y="112" x="0" class="er attributeBoxOdd"/><text style="dominant-baseline: middle; font-size: 10.2px;" transform="translate(5,123.04589891433716)" y="0" x="0" id="text-entity-PEDIDO-79609d0a-2a15-5826-829f-bc409be443d0-attr-5-type" class="er entityLabel">string</text><rect height="22.091797828674316" width="79.609375" y="112" x="51.640625" class="er attributeBoxOdd"/><text style="dominant-baseline: middle; font-size: 10.2px;" transform="translate(56.640625,123.04589891433716)" y="0" x="0" id="text-entity-PEDIDO-79609d0a-2a15-5826-829f-bc409be443d0-attr-5-name" class="er entityLabel">metodo_pago</text><rect height="22.091797828674316" width="21.5625" y="112" x="131.25" class="er attributeBoxOdd"/><text style="dominant-baseline: middle; font-size: 10.2px;" transform="translate(136.25,123.04589891433716)" y="0" x="0" id="text-entity-PEDIDO-79609d0a-2a15-5826-829f-bc409be443d0-attr-5-key" class="er entityLabel"/></g><g transform="translate(20,276.458984375 )" id="entity-PRODUCTO-de8d947b-ce98-5a8a-bf9b-4231cfa30ee4"><rect height="134.27539348602295" width="106.984375" y="0" x="0" class="er entityBox"/><text style="dominant-baseline: middle; text-anchor: middle; font-size: 12px;" transform="translate(53.4921875,12)" y="0" x="0" id="text-entity-PRODUCTO-de8d947b-ce98-5a8a-bf9b-4231cfa30ee4" class="er entityLabel">PRODUCTO</text><rect height="22" width="35.75" y="24" x="0" class="er attributeBoxOdd"/><text style="dominant-baseline: middle; font-size: 10.2px;" transform="translate(5,35)" y="0" x="0" id="text-entity-PRODUCTO-de8d947b-ce98-5a8a-bf9b-4231cfa30ee4-attr-1-type" class="er entityLabel">int</text><rect height="22" width="49.671875" y="24" x="35.75" class="er attributeBoxOdd"/><text style="dominant-baseline: middle; font-size: 10.2px;" transform="translate(40.75,35)" y="0" x="0" id="text-entity-PRODUCTO-de8d947b-ce98-5a8a-bf9b-4231cfa30ee4-attr-1-name" class="er entityLabel">id</text><rect height="22" width="21.5625" y="24" x="85.421875" class="er attributeBoxOdd"/><text style="dominant-baseline: middle; font-size: 10.2px;" transform="translate(90.421875,35)" y="0" x="0" id="text-entity-PRODUCTO-de8d947b-ce98-5a8a-bf9b-4231cfa30ee4-attr-1-key" class="er entityLabel">PK</text><rect height="22.091797828674316" width="35.75" y="46" x="0" class="er attributeBoxEven"/><text style="dominant-baseline: middle; font-size: 10.2px;" transform="translate(5,57.04589891433716)" y="0" x="0" id="text-entity-PRODUCTO-de8d947b-ce98-5a8a-bf9b-4231cfa30ee4-attr-2-type" class="er entityLabel">string</text><rect height="22.091797828674316" width="49.671875" y="46" x="35.75" class="er attributeBoxEven"/><text style="dominant-baseline: middle; font-size: 10.2px;" transform="translate(40.75,57.04589891433716)" y="0" x="0" id="text-entity-PRODUCTO-de8d947b-ce98-5a8a-bf9b-4231cfa30ee4-attr-2-name" class="er entityLabel">nombre</text><rect height="22.091797828674316" width="21.5625" y="46" x="85.421875" class="er attributeBoxEven"/><text style="dominant-baseline: middle; font-size: 10.2px;" transform="translate(90.421875,57.04589891433716)" y="0" x="0" id="text-entity-PRODUCTO-de8d947b-ce98-5a8a-bf9b-4231cfa30ee4-attr-2-key" class="er entityLabel"/><rect height="22.091797828674316" width="35.75" y="68.09179782867432" x="0" class="er attributeBoxOdd"/><text style="dominant-baseline: middle; font-size: 10.2px;" transform="translate(5,79.13769674301147)" y="0" x="0" id="text-entity-PRODUCTO-de8d947b-ce98-5a8a-bf9b-4231cfa30ee4-attr-3-type" class="er entityLabel">float</text><rect height="22.091797828674316" width="49.671875" y="68.09179782867432" x="35.75" class="er attributeBoxOdd"/><text style="dominant-baseline: middle; font-size: 10.2px;" transform="translate(40.75,79.13769674301147)" y="0" x="0" id="text-entity-PRODUCTO-de8d947b-ce98-5a8a-bf9b-4231cfa30ee4-attr-3-name" class="er entityLabel">precio</text><rect height="22.091797828674316" width="21.5625" y="68.09179782867432" x="85.421875" class="er attributeBoxOdd"/><text style="dominant-baseline: middle; font-size: 10.2px;" transform="translate(90.421875,79.13769674301147)" y="0" x="0" id="text-entity-PRODUCTO-de8d947b-ce98-5a8a-bf9b-4231cfa30ee4-attr-3-key" class="er entityLabel"/><rect height="22" width="35.75" y="90.18359565734863" x="0" class="er attributeBoxEven"/><text style="dominant-baseline: middle; font-size: 10.2px;" transform="translate(5,101.18359565734863)" y="0" x="0" id="text-entity-PRODUCTO-de8d947b-ce98-5a8a-bf9b-4231cfa30ee4-attr-4-type" class="er entityLabel">int</text><rect height="22" width="49.671875" y="90.18359565734863" x="35.75" class="er attributeBoxEven"/><text style="dominant-baseline: middle; font-size: 10.2px;" transform="translate(40.75,101.18359565734863)" y="0" x="0" id="text-entity-PRODUCTO-de8d947b-ce98-5a8a-bf9b-4231cfa30ee4-attr-4-name" class="er entityLabel">cantidad</text><rect height="22" width="21.5625" y="90.18359565734863" x="85.421875" class="er attributeBoxEven"/><text style="dominant-baseline: middle; font-size: 10.2px;" transform="translate(90.421875,101.18359565734863)" y="0" x="0" id="text-entity-PRODUCTO-de8d947b-ce98-5a8a-bf9b-4231cfa30ee4-attr-4-key" class="er entityLabel"/><rect height="22.091797828674316" width="35.75" y="112.18359565734863" x="0" class="er attributeBoxOdd"/><text style="dominant-baseline: middle; font-size: 10.2px;" transform="translate(5,123.22949457168579)" y="0" x="0" id="text-entity-PRODUCTO-de8d947b-ce98-5a8a-bf9b-4231cfa30ee4-attr-5-type" class="er entityLabel">string</text><rect height="22.091797828674316" width="49.671875" y="112.18359565734863" x="35.75" class="er attributeBoxOdd"/><text style="dominant-baseline: middle; font-size: 10.2px;" transform="translate(40.75,123.22949457168579)" y="0" x="0" id="text-entity-PRODUCTO-de8d947b-ce98-5a8a-bf9b-4231cfa30ee4-attr-5-name" class="er entityLabel">unidad</text><rect height="22.091797828674316" width="21.5625" y="112.18359565734863" x="85.421875" class="er attributeBoxOdd"/><text style="dominant-baseline: middle; font-size: 10.2px;" transform="translate(90.421875,123.22949457168579)" y="0" x="0" id="text-entity-PRODUCTO-de8d947b-ce98-5a8a-bf9b-4231cfa30ee4-attr-5-key" class="er entityLabel"/></g><g transform="translate(128.03515625,510.734375 )" id="entity-DETALLEPEDIDO-8389da1e-db8b-50cb-a63e-aef48a3ecf4e"><rect height="134.18359375" width="120.8125" y="0" x="0" class="er entityBox"/><text style="dominant-baseline: middle; text-anchor: middle; font-size: 12px;" transform="translate(60.40625,12)" y="0" x="0" id="text-entity-DETALLEPEDIDO-8389da1e-db8b-50cb-a63e-aef48a3ecf4e" class="er entityLabel">DETALLE_PEDIDO</text><rect height="22" width="32.557291666666664" y="24" x="0" class="er attributeBoxOdd"/><text style="dominant-baseline: middle; font-size: 10.2px;" transform="translate(5,35)" y="0" x="0" id="text-entity-DETALLEPEDIDO-8389da1e-db8b-50cb-a63e-aef48a3ecf4e-attr-1-type" class="er entityLabel">int</text><rect height="22" width="65.79166666666667" y="24" x="32.557291666666664" class="er attributeBoxOdd"/><text style="dominant-baseline: middle; font-size: 10.2px;" transform="translate(37.557291666666664,35)" y="0" x="0" id="text-entity-DETALLEPEDIDO-8389da1e-db8b-50cb-a63e-aef48a3ecf4e-attr-1-name" class="er entityLabel">id</text><rect height="22" width="22.463541666666668" y="24" x="98.34895833333334" class="er attributeBoxOdd"/><text style="dominant-baseline: middle; font-size: 10.2px;" transform="translate(103.34895833333334,35)" y="0" x="0" id="text-entity-DETALLEPEDIDO-8389da1e-db8b-50cb-a63e-aef48a3ecf4e-attr-1-key" class="er entityLabel">PK</text><rect height="22.091796875" width="32.557291666666664" y="46" x="0" class="er attributeBoxEven"/><text style="dominant-baseline: middle; font-size: 10.2px;" transform="translate(5,57.0458984375)" y="0" x="0" id="text-entity-DETALLEPEDIDO-8389da1e-db8b-50cb-a63e-aef48a3ecf4e-attr-2-type" class="er entityLabel">int</text><rect height="22.091796875" width="65.79166666666667" y="46" x="32.557291666666664" class="er attributeBoxEven"/><text style="dominant-baseline: middle; font-size: 10.2px;" transform="translate(37.557291666666664,57.0458984375)" y="0" x="0" id="text-entity-DETALLEPEDIDO-8389da1e-db8b-50cb-a63e-aef48a3ecf4e-attr-2-name" class="er entityLabel">id_pedido</text><rect height="22.091796875" width="22.463541666666668" y="46" x="98.34895833333334" class="er attributeBoxEven"/><text style="dominant-baseline: middle; font-size: 10.2px;" transform="translate(103.34895833333334,57.0458984375)" y="0" x="0" id="text-entity-DETALLEPEDIDO-8389da1e-db8b-50cb-a63e-aef48a3ecf4e-attr-2-key" class="er entityLabel">FK</text><rect height="22.091796875" width="32.557291666666664" y="68.091796875" x="0" class="er attributeBoxOdd"/><text style="dominant-baseline: middle; font-size: 10.2px;" transform="translate(5,79.1376953125)" y="0" x="0" id="text-entity-DETALLEPEDIDO-8389da1e-db8b-50cb-a63e-aef48a3ecf4e-attr-3-type" class="er entityLabel">int</text><rect height="22.091796875" width="65.79166666666667" y="68.091796875" x="32.557291666666664" class="er attributeBoxOdd"/><text style="dominant-baseline: middle; font-size: 10.2px;" transform="translate(37.557291666666664,79.1376953125)" y="0" x="0" id="text-entity-DETALLEPEDIDO-8389da1e-db8b-50cb-a63e-aef48a3ecf4e-attr-3-name" class="er entityLabel">id_producto</text><rect height="22.091796875" width="22.463541666666668" y="68.091796875" x="98.34895833333334" class="er attributeBoxOdd"/><text style="dominant-baseline: middle; font-size: 10.2px;" transform="translate(103.34895833333334,79.1376953125)" y="0" x="0" id="text-entity-DETALLEPEDIDO-8389da1e-db8b-50cb-a63e-aef48a3ecf4e-attr-3-key" class="er entityLabel">FK</text><rect height="22" width="32.557291666666664" y="90.18359375" x="0" class="er attributeBoxEven"/><text style="dominant-baseline: middle; font-size: 10.2px;" transform="translate(5,101.18359375)" y="0" x="0" id="text-entity-DETALLEPEDIDO-8389da1e-db8b-50cb-a63e-aef48a3ecf4e-attr-4-type" class="er entityLabel">int</text><rect height="22" width="65.79166666666667" y="90.18359375" x="32.557291666666664" class="er attributeBoxEven"/><text style="dominant-baseline: middle; font-size: 10.2px;" transform="translate(37.557291666666664,101.18359375)" y="0" x="0" id="text-entity-DETALLEPEDIDO-8389da1e-db8b-50cb-a63e-aef48a3ecf4e-attr-4-name" class="er entityLabel">cantidad</text><rect height="22" width="22.463541666666668" y="90.18359375" x="98.34895833333334" class="er attributeBoxEven"/><text style="dominant-baseline: middle; font-size: 10.2px;" transform="translate(103.34895833333334,101.18359375)" y="0" x="0" id="text-entity-DETALLEPEDIDO-8389da1e-db8b-50cb-a63e-aef48a3ecf4e-attr-4-key" class="er entityLabel"/><rect height="22" width="32.557291666666664" y="112.18359375" x="0" class="er attributeBoxOdd"/><text style="dominant-baseline: middle; font-size: 10.2px;" transform="translate(5,123.18359375)" y="0" x="0" id="text-entity-DETALLEPEDIDO-8389da1e-db8b-50cb-a63e-aef48a3ecf4e-attr-5-type" class="er entityLabel">float</text><rect height="22" width="65.79166666666667" y="112.18359375" x="32.557291666666664" class="er attributeBoxOdd"/><text style="dominant-baseline: middle; font-size: 10.2px;" transform="translate(37.557291666666664,123.18359375)" y="0" x="0" id="text-entity-DETALLEPEDIDO-8389da1e-db8b-50cb-a63e-aef48a3ecf4e-attr-5-name" class="er entityLabel">subtotal</text><rect height="22" width="22.463541666666668" y="112.18359375" x="98.34895833333334" class="er attributeBoxOdd"/><text style="dominant-baseline: middle; font-size: 10.2px;" transform="translate(103.34895833333334,123.18359375)" y="0" x="0" id="text-entity-DETALLEPEDIDO-8389da1e-db8b-50cb-a63e-aef48a3ecf4e-attr-5-key" class="er entityLabel"/></g><rect height="14" width="36.484375" y="219.5050048828125" x="285.1488037109375" class="er relationshipLabelBox"/><text style="text-anchor: middle; dominant-baseline: middle; font-size: 12px;" y="226.5050048828125" x="303.3909912109375" id="rel1" class="er relationshipLabel">realiza</text><rect height="14" width="38.484375" y="462.84515380859375" x="68.13882446289062" class="er relationshipLabelBox"/><text style="text-anchor: middle; dominant-baseline: middle; font-size: 12px;" y="469.84515380859375" x="87.38101196289062" id="rel2" class="er relationshipLabel">incluye</text><rect height="14" width="46.765625" y="462.8056640625" x="266.13885498046875" class="er relationshipLabelBox"/><text style="text-anchor: middle; dominant-baseline: middle; font-size: 12px;" y="469.8056640625" x="289.52166748046875" id="rel3" class="er relationshipLabel">contiene</text></svg>