<svg aria-roledescription="er" role="graphics-document document" viewBox="-88.15098571777344 0 728.1431884765625 640" style="max-width: 728.143px; background-color: white;" xmlns:xlink="http://www.w3.org/1999/xlink" xmlns="http://www.w3.org/2000/svg" width="100%" id="my-svg"><style>#my-svg{font-family:"trebuchet ms",verdana,arial,sans-serif;font-size:16px;fill:#333;}#my-svg .error-icon{fill:#552222;}#my-svg .error-text{fill:#552222;stroke:#552222;}#my-svg .edge-thickness-normal{stroke-width:1px;}#my-svg .edge-thickness-thick{stroke-width:3.5px;}#my-svg .edge-pattern-solid{stroke-dasharray:0;}#my-svg .edge-thickness-invisible{stroke-width:0;fill:none;}#my-svg .edge-pattern-dashed{stroke-dasharray:3;}#my-svg .edge-pattern-dotted{stroke-dasharray:2;}#my-svg .marker{fill:#333333;stroke:#333333;}#my-svg .marker.cross{stroke:#333333;}#my-svg svg{font-family:"trebuchet ms",verdana,arial,sans-serif;font-size:16px;}#my-svg p{margin:0;}#my-svg .entityBox{fill:#ECECFF;stroke:#9370DB;}#my-svg .attributeBoxOdd{fill:#ffffff;stroke:#9370DB;}#my-svg .attributeBoxEven{fill:#f2f2f2;stroke:#9370DB;}#my-svg .relationshipLabelBox{fill:hsl(80, 100%, 96.2745098039%);opacity:0.7;background-color:hsl(80, 100%, 96.2745098039%);}#my-svg .relationshipLabelBox rect{opacity:0.5;}#my-svg .relationshipLine{stroke:#333333;}#my-svg .entityTitleText{text-anchor:middle;font-size:18px;fill:#333;}#my-svg #MD_PARENT_START{fill:#f5f5f5!important;stroke:#333333!important;stroke-width:1;}#my-svg #MD_PARENT_END{fill:#f5f5f5!important;stroke:#333333!important;stroke-width:1;}#my-svg :root{--mermaid-font-family:"trebuchet ms",verdana,arial,sans-serif;}</style><g/><defs><marker orient="auto" markerHeight="240" markerWidth="190" refY="7" refX="0" id="MD_PARENT_START"><path d="M 18,7 L9,13 L1,7 L9,1 Z"/></marker></defs><defs><marker orient="auto" markerHeight="28" markerWidth="20" refY="7" refX="19" id="MD_PARENT_END"><path d="M 18,7 L9,13 L1,7 L9,1 Z"/></marker></defs><defs><marker orient="auto" markerHeight="18" markerWidth="18" refY="9" refX="0" id="ONLY_ONE_START"><path d="M9,0 L9,18 M15,0 L15,18" fill="none" stroke="gray"/></marker></defs><defs><marker orient="auto" markerHeight="18" markerWidth="18" refY="9" refX="18" id="ONLY_ONE_END"><path d="M3,0 L3,18 M9,0 L9,18" fill="none" stroke="gray"/></marker></defs><defs><marker orient="auto" markerHeight="18" markerWidth="30" refY="9" refX="0" id="ZERO_OR_ONE_START"><circle r="6" cy="9" cx="21" fill="white" stroke="gray"/><path d="M9,0 L9,18" fill="none" stroke="gray"/></marker></defs><defs><marker orient="auto" markerHeight="18" markerWidth="30" refY="9" refX="30" id="ZERO_OR_ONE_END"><circle r="6" cy="9" cx="9" fill="white" stroke="gray"/><path d="M21,0 L21,18" fill="none" stroke="gray"/></marker></defs><defs><marker orient="auto" markerHeight="36" markerWidth="45" refY="18" refX="18" id="ONE_OR_MORE_START"><path d="M0,18 Q 18,0 36,18 Q 18,36 0,18 M42,9 L42,27" fill="none" stroke="gray"/></marker></defs><defs><marker orient="auto" markerHeight="36" markerWidth="45" refY="18" refX="27" id="ONE_OR_MORE_END"><path d="M3,9 L3,27 M9,18 Q27,0 45,18 Q27,36 9,18" fill="none" stroke="gray"/></marker></defs><defs><marker orient="auto" markerHeight="36" markerWidth="57" refY="18" refX="18" id="ZERO_OR_MORE_START"><circle r="6" cy="18" cx="48" fill="white" stroke="gray"/><path d="M0,18 Q18,0 36,18 Q18,36 0,18" fill="none" stroke="gray"/></marker></defs><defs><marker orient="auto" markerHeight="36" markerWidth="57" refY="18" refX="39" id="ZERO_OR_MORE_END"><circle r="6" cy="18" cx="9" fill="white" stroke="gray"/><path d="M21,18 Q39,0 57,18 Q39,36 21,18" fill="none" stroke="gray"/></marker></defs><path style="stroke: gray; fill: none;" marker-start="url(#ONE_OR_MORE_START)" marker-end="url(#ONE_OR_MORE_END)" stroke-dasharray="8,8" d="M154.969,79.375L179.969,90.313C204.969,101.25,254.969,123.125,279.969,142.396C304.969,161.667,304.969,178.333,304.969,186.667L304.969,195" class="er relationshipLine"/><path style="stroke: gray; fill: none;" marker-start="url(#ONLY_ONE_START)" marker-end="url(#ZERO_OR_MORE_END)" d="M54.969,86.667L38.302,96.389C21.635,106.111,-11.698,125.556,-28.365,149.861C-45.031,174.167,-45.031,203.333,-45.031,232.5C-45.031,261.667,-45.031,290.833,-33.126,313.75C-21.222,336.667,2.588,353.333,14.493,361.667L26.397,370" class="er relationshipLine"/><path style="stroke: gray; fill: none;" marker-start="url(#ONLY_ONE_START)" marker-end="url(#ZERO_OR_MORE_END)" d="M104.969,95L104.969,103.333C104.969,111.667,104.969,128.333,104.969,145C104.969,161.667,104.969,178.333,104.969,186.667L104.969,195" class="er relationshipLine"/><path style="stroke: gray; fill: none;" marker-start="url(#ONLY_ONE_START)" marker-end="url(#ONE_OR_MORE_END)" d="M328.544,270L333.782,278.333C339.021,286.667,349.499,303.333,371.404,321.389C393.31,339.444,426.643,358.889,443.31,368.611L459.977,378.333" class="er relationshipLine"/><path style="stroke: gray; fill: none;" marker-start="url(#ONLY_ONE_START)" marker-end="url(#ONE_OR_MORE_END)" d="M254.969,257.5L234.135,267.917C213.302,278.333,171.635,299.167,146.04,317.917C120.445,336.667,110.921,353.333,106.159,361.667L101.397,370" class="er relationshipLine"/><path style="stroke: gray; fill: none;" marker-start="url(#ONLY_ONE_START)" marker-end="url(#ZERO_OR_MORE_END)" d="M554.98,370L564.981,361.667C574.981,353.333,594.983,336.667,561.648,316.102C528.313,295.537,441.641,271.075,398.305,258.843L354.969,246.612" class="er relationshipLine"/><path style="stroke: gray; fill: none;" marker-start="url(#ONLY_ONE_START)" marker-end="url(#ZERO_OR_MORE_END)" d="M139.938,372.518L154.943,363.765C169.948,355.012,199.958,337.506,222.106,320.42C244.254,303.333,258.54,286.667,265.683,278.333L272.826,270" class="er relationshipLine"/><path style="stroke: gray; fill: none;" marker-start="url(#ONLY_ONE_START)" marker-end="url(#ONE_OR_MORE_END)" d="M79.969,445L79.969,453.333C79.969,461.667,79.969,478.333,79.969,495C79.969,511.667,79.969,528.333,79.969,536.667L79.969,545" class="er relationshipLine"/><path style="stroke: gray; fill: none;" marker-start="url(#ONLY_ONE_START)" marker-end="url(#ONE_OR_MORE_END)" d="M540.694,270L536.409,278.333C532.124,286.667,523.554,303.333,518.792,320C514.031,336.667,513.077,353.333,512.6,361.667L512.123,370" class="er relationshipLine"/><g transform="translate(54.96875,20 )" id="entity-CUSTOMER-7c659eae-ee79-5f5d-acd7-c418f8ad1d67"><rect height="75" width="100" y="0" x="0" class="er entityBox"/><text style="dominant-baseline: middle; text-anchor: middle; font-size: 12px;" transform="translate(50,37.5)" y="0" x="0" id="text-entity-CUSTOMER-7c659eae-ee79-5f5d-acd7-c418f8ad1d67" class="er entityLabel">CUSTOMER</text></g><g transform="translate(254.96875,195 )" id="entity-BOOKLOAN-0e31e20a-a070-5bc1-b4b5-fa2b3f1191ce"><rect height="75" width="100" y="0" x="0" class="er entityBox"/><text style="dominant-baseline: middle; text-anchor: middle; font-size: 12px;" transform="translate(50,37.5)" y="0" x="0" id="text-entity-BOOKLOAN-0e31e20a-a070-5bc1-b4b5-fa2b3f1191ce" class="er entityLabel">BOOK-LOAN</text></g><g transform="translate(20,370 )" id="entity-LIBRARYMEMBER-43fedd40-959e-5965-acb1-c9725611ed0e"><rect height="75" width="119.9375" y="0" x="0" class="er entityBox"/><text style="dominant-baseline: middle; text-anchor: middle; font-size: 12px;" transform="translate(59.96875,37.5)" y="0" x="0" id="text-entity-LIBRARYMEMBER-43fedd40-959e-5965-acb1-c9725611ed0e" class="er entityLabel">LIBRARY-MEMBER</text></g><g transform="translate(54.96875,195 )" id="entity-FINE-30b69713-0a4b-5882-81d6-69cc0491cc71"><rect height="75" width="100" y="0" x="0" class="er entityBox"/><text style="dominant-baseline: middle; text-anchor: middle; font-size: 12px;" transform="translate(50,37.5)" y="0" x="0" id="text-entity-FINE-30b69713-0a4b-5882-81d6-69cc0491cc71" class="er entityLabel">FINE</text></g><g transform="translate(459.9765625,370 )" id="entity-BOOK-12b90bf2-7af7-5ded-a124-d6647c4b972e"><rect height="75" width="100" y="0" x="0" class="er entityBox"/><text style="dominant-baseline: middle; text-anchor: middle; font-size: 12px;" transform="translate(50,37.5)" y="0" x="0" id="text-entity-BOOK-12b90bf2-7af7-5ded-a124-d6647c4b972e" class="er entityLabel">BOOK</text></g><g transform="translate(26.203125,545 )" id="entity-LIBRARYSTAFF-c204fff8-2b23-532b-bff9-42b42c88317b"><rect height="75" width="107.53125" y="0" x="0" class="er entityBox"/><text style="dominant-baseline: middle; text-anchor: middle; font-size: 12px;" transform="translate(53.765625,37.5)" y="0" x="0" id="text-entity-LIBRARYSTAFF-c204fff8-2b23-532b-bff9-42b42c88317b" class="er entityLabel">LIBRARY-STAFF</text></g><g transform="translate(499.9609375,195 )" id="entity-BOOKCATEGORY-a0988de2-685c-51dc-b343-0ab5e512ac7e"><rect height="75" width="120.03125" y="0" x="0" class="er entityBox"/><text style="dominant-baseline: middle; text-anchor: middle; font-size: 12px;" transform="translate(60.015625,37.5)" y="0" x="0" id="text-entity-BOOKCATEGORY-a0988de2-685c-51dc-b343-0ab5e512ac7e" class="er entityLabel">BOOK-CATEGORY</text></g><rect height="14" width="42.6875" y="114.65673828125" x="225.0909423828125" class="er relationshipLabelBox"/><text style="text-anchor: middle; dominant-baseline: middle; font-size: 12px;" y="121.65673828125" x="246.4346923828125" id="rel1" class="er relationshipLabel">borrows</text><rect height="14" width="46.34375" y="212.77041625976562" x="-68.15098190307617" class="er relationshipLabelBox"/><text style="text-anchor: middle; dominant-baseline: middle; font-size: 12px;" y="219.77041625976562" x="-44.97910690307617" id="rel2" class="er relationshipLabel">registers</text><rect height="14" width="32" y="138" x="88.96900177001953" class="er relationshipLabelBox"/><text style="text-anchor: middle; dominant-baseline: middle; font-size: 12px;" y="145" x="104.96900177001953" id="rel3" class="er relationshipLabel">incurs</text><rect height="14" width="44.84375" y="325.9237365722656" x="364.1468200683594" class="er relationshipLabelBox"/><text style="text-anchor: middle; dominant-baseline: middle; font-size: 12px;" y="332.9237365722656" x="386.5686950683594" id="rel4" class="er relationshipLabel">contains</text><rect height="14" width="48.53125" y="295.7349853515625" x="144.93711853027344" class="er relationshipLabelBox"/><text style="text-anchor: middle; dominant-baseline: middle; font-size: 12px;" y="302.7349853515625" x="169.20274353027344" id="rel5" class="er relationshipLabel">issued-to</text><rect height="14" width="64.65625" y="280.81005859375" x="461.8133239746094" class="er relationshipLabelBox"/><text style="text-anchor: middle; dominant-baseline: middle; font-size: 12px;" y="287.81005859375" x="494.1414489746094" id="rel6" class="er relationshipLabel">borrowed in</text><rect height="14" width="46.53125" y="321.0440673828125" x="188.5067138671875" class="er relationshipLabelBox"/><text style="text-anchor: middle; dominant-baseline: middle; font-size: 12px;" y="328.0440673828125" x="211.7723388671875" id="rel7" class="er relationshipLabel">issued in</text><rect height="14" width="46.5625" y="488" x="56.68775177001953" class="er relationshipLabelBox"/><text style="text-anchor: middle; dominant-baseline: middle; font-size: 12px;" y="495" x="79.96900177001953" id="rel8" class="er relationshipLabel">manages</text><rect height="14" width="56.25" y="311.0237731933594" x="491.24981689453125" class="er relationshipLabelBox"/><text style="text-anchor: middle; dominant-baseline: middle; font-size: 12px;" y="318.0237731933594" x="519.3748168945312" id="rel9" class="er relationshipLabel">belongs-to</text></svg>