<svg aria-roledescription="er" role="graphics-document document" viewBox="0 0 307.2964172363281 964.826171875" style="max-width: 307.296px; background-color: white;" xmlns:xlink="http://www.w3.org/1999/xlink" xmlns="http://www.w3.org/2000/svg" width="100%" id="my-svg"><style>#my-svg{font-family:"trebuchet ms",verdana,arial,sans-serif;font-size:16px;fill:#333;}#my-svg .error-icon{fill:#552222;}#my-svg .error-text{fill:#552222;stroke:#552222;}#my-svg .edge-thickness-normal{stroke-width:1px;}#my-svg .edge-thickness-thick{stroke-width:3.5px;}#my-svg .edge-pattern-solid{stroke-dasharray:0;}#my-svg .edge-thickness-invisible{stroke-width:0;fill:none;}#my-svg .edge-pattern-dashed{stroke-dasharray:3;}#my-svg .edge-pattern-dotted{stroke-dasharray:2;}#my-svg .marker{fill:#333333;stroke:#333333;}#my-svg .marker.cross{stroke:#333333;}#my-svg svg{font-family:"trebuchet ms",verdana,arial,sans-serif;font-size:16px;}#my-svg p{margin:0;}#my-svg .entityBox{fill:#ECECFF;stroke:#9370DB;}#my-svg .attributeBoxOdd{fill:#ffffff;stroke:#9370DB;}#my-svg .attributeBoxEven{fill:#f2f2f2;stroke:#9370DB;}#my-svg .relationshipLabelBox{fill:hsl(80, 100%, 96.2745098039%);opacity:0.7;background-color:hsl(80, 100%, 96.2745098039%);}#my-svg .relationshipLabelBox rect{opacity:0.5;}#my-svg .relationshipLine{stroke:#333333;}#my-svg .entityTitleText{text-anchor:middle;font-size:18px;fill:#333;}#my-svg #MD_PARENT_START{fill:#f5f5f5!important;stroke:#333333!important;stroke-width:1;}#my-svg #MD_PARENT_END{fill:#f5f5f5!important;stroke:#333333!important;stroke-width:1;}#my-svg :root{--mermaid-font-family:"trebuchet ms",verdana,arial,sans-serif;}</style><g/><defs><marker orient="auto" markerHeight="240" markerWidth="190" refY="7" refX="0" id="MD_PARENT_START"><path d="M 18,7 L9,13 L1,7 L9,1 Z"/></marker></defs><defs><marker orient="auto" markerHeight="28" markerWidth="20" refY="7" refX="19" id="MD_PARENT_END"><path d="M 18,7 L9,13 L1,7 L9,1 Z"/></marker></defs><defs><marker orient="auto" markerHeight="18" markerWidth="18" refY="9" refX="0" id="ONLY_ONE_START"><path d="M9,0 L9,18 M15,0 L15,18" fill="none" stroke="gray"/></marker></defs><defs><marker orient="auto" markerHeight="18" markerWidth="18" refY="9" refX="18" id="ONLY_ONE_END"><path d="M3,0 L3,18 M9,0 L9,18" fill="none" stroke="gray"/></marker></defs><defs><marker orient="auto" markerHeight="18" markerWidth="30" refY="9" refX="0" id="ZERO_OR_ONE_START"><circle r="6" cy="9" cx="21" fill="white" stroke="gray"/><path d="M9,0 L9,18" fill="none" stroke="gray"/></marker></defs><defs><marker orient="auto" markerHeight="18" markerWidth="30" refY="9" refX="30" id="ZERO_OR_ONE_END"><circle r="6" cy="9" cx="9" fill="white" stroke="gray"/><path d="M21,0 L21,18" fill="none" stroke="gray"/></marker></defs><defs><marker orient="auto" markerHeight="36" markerWidth="45" refY="18" refX="18" id="ONE_OR_MORE_START"><path d="M0,18 Q 18,0 36,18 Q 18,36 0,18 M42,9 L42,27" fill="none" stroke="gray"/></marker></defs><defs><marker orient="auto" markerHeight="36" markerWidth="45" refY="18" refX="27" id="ONE_OR_MORE_END"><path d="M3,9 L3,27 M9,18 Q27,0 45,18 Q27,36 9,18" fill="none" stroke="gray"/></marker></defs><defs><marker orient="auto" markerHeight="36" markerWidth="57" refY="18" refX="18" id="ZERO_OR_MORE_START"><circle r="6" cy="18" cx="48" fill="white" stroke="gray"/><path d="M0,18 Q18,0 36,18 Q18,36 0,18" fill="none" stroke="gray"/></marker></defs><defs><marker orient="auto" markerHeight="36" markerWidth="57" refY="18" refX="39" id="ZERO_OR_MORE_END"><circle r="6" cy="18" cx="9" fill="white" stroke="gray"/><path d="M21,18 Q39,0 57,18 Q39,36 21,18" fill="none" stroke="gray"/></marker></defs><path style="stroke: gray; fill: none;" marker-start="url(#ONLY_ONE_START)" marker-end="url(#ZERO_OR_MORE_END)" d="M180.145,154.275L180.145,162.609C180.145,170.942,180.145,187.609,180.145,204.275C180.145,220.942,180.145,237.609,180.145,245.942L180.145,254.275" class="er relationshipLine"/><path style="stroke: gray; fill: none;" marker-start="url(#ONLY_ONE_START)" marker-end="url(#ZERO_OR_MORE_END)" d="M93.43,688.643L93.43,696.976C93.43,705.309,93.43,721.976,99.071,738.643C104.713,755.309,115.995,771.976,121.637,780.309L127.278,788.643" class="er relationshipLine"/><path style="stroke: gray; fill: none;" marker-start="url(#ONLY_ONE_START)" marker-end="url(#ONLY_ONE_END)" d="M124.612,432.367L119.415,440.701C114.218,449.034,103.824,465.701,98.627,482.367C93.43,499.034,93.43,515.701,93.43,524.034L93.43,532.367" class="er relationshipLine"/><path style="stroke: gray; fill: none;" marker-start="url(#ONLY_ONE_START)" marker-end="url(#ONLY_ONE_END)" d="M235.677,432.367L240.874,440.701C246.071,449.034,256.465,465.701,261.662,495.39C266.859,525.08,266.859,567.792,266.859,610.505C266.859,653.217,266.859,695.93,261.218,725.62C255.576,755.309,244.294,771.976,238.652,780.309L233.011,788.643" class="er relationshipLine"/><g transform="translate(113.55078125,20 )" id="entity-User-818c511a-4a32-5484-ba70-875d765a9175"><rect height="134.27539348602295" width="133.1875" y="0" x="0" class="er entityBox"/><text style="dominant-baseline: middle; text-anchor: middle; font-size: 12px;" transform="translate(66.59375,12)" y="0" x="0" id="text-entity-User-818c511a-4a32-5484-ba70-875d765a9175" class="er entityLabel">User</text><rect height="22" width="51.640625" y="24" x="0" class="er attributeBoxOdd"/><text style="dominant-baseline: middle; font-size: 10.2px;" transform="translate(5,35)" y="0" x="0" id="text-entity-User-818c511a-4a32-5484-ba70-875d765a9175-attr-1-type" class="er entityLabel">int</text><rect height="22" width="59.984375" y="24" x="51.640625" class="er attributeBoxOdd"/><text style="dominant-baseline: middle; font-size: 10.2px;" transform="translate(56.640625,35)" y="0" x="0" id="text-entity-User-818c511a-4a32-5484-ba70-875d765a9175-attr-1-name" class="er entityLabel">id</text><rect height="22" width="21.5625" y="24" x="111.625" class="er attributeBoxOdd"/><text style="dominant-baseline: middle; font-size: 10.2px;" transform="translate(116.625,35)" y="0" x="0" id="text-entity-User-818c511a-4a32-5484-ba70-875d765a9175-attr-1-key" class="er entityLabel">PK</text><rect height="22.091797828674316" width="51.640625" y="46" x="0" class="er attributeBoxEven"/><text style="dominant-baseline: middle; font-size: 10.2px;" transform="translate(5,57.04589891433716)" y="0" x="0" id="text-entity-User-818c511a-4a32-5484-ba70-875d765a9175-attr-2-type" class="er entityLabel">string</text><rect height="22.091797828674316" width="59.984375" y="46" x="51.640625" class="er attributeBoxEven"/><text style="dominant-baseline: middle; font-size: 10.2px;" transform="translate(56.640625,57.04589891433716)" y="0" x="0" id="text-entity-User-818c511a-4a32-5484-ba70-875d765a9175-attr-2-name" class="er entityLabel">username</text><rect height="22.091797828674316" width="21.5625" y="46" x="111.625" class="er attributeBoxEven"/><text style="dominant-baseline: middle; font-size: 10.2px;" transform="translate(116.625,57.04589891433716)" y="0" x="0" id="text-entity-User-818c511a-4a32-5484-ba70-875d765a9175-attr-2-key" class="er entityLabel"/><rect height="22.091797828674316" width="51.640625" y="68.09179782867432" x="0" class="er attributeBoxOdd"/><text style="dominant-baseline: middle; font-size: 10.2px;" transform="translate(5,79.13769674301147)" y="0" x="0" id="text-entity-User-818c511a-4a32-5484-ba70-875d765a9175-attr-3-type" class="er entityLabel">string</text><rect height="22.091797828674316" width="59.984375" y="68.09179782867432" x="51.640625" class="er attributeBoxOdd"/><text style="dominant-baseline: middle; font-size: 10.2px;" transform="translate(56.640625,79.13769674301147)" y="0" x="0" id="text-entity-User-818c511a-4a32-5484-ba70-875d765a9175-attr-3-name" class="er entityLabel">email</text><rect height="22.091797828674316" width="21.5625" y="68.09179782867432" x="111.625" class="er attributeBoxOdd"/><text style="dominant-baseline: middle; font-size: 10.2px;" transform="translate(116.625,79.13769674301147)" y="0" x="0" id="text-entity-User-818c511a-4a32-5484-ba70-875d765a9175-attr-3-key" class="er entityLabel"/><rect height="22.091797828674316" width="51.640625" y="90.18359565734863" x="0" class="er attributeBoxEven"/><text style="dominant-baseline: middle; font-size: 10.2px;" transform="translate(5,101.22949457168579)" y="0" x="0" id="text-entity-User-818c511a-4a32-5484-ba70-875d765a9175-attr-4-type" class="er entityLabel">string</text><rect height="22.091797828674316" width="59.984375" y="90.18359565734863" x="51.640625" class="er attributeBoxEven"/><text style="dominant-baseline: middle; font-size: 10.2px;" transform="translate(56.640625,101.22949457168579)" y="0" x="0" id="text-entity-User-818c511a-4a32-5484-ba70-875d765a9175-attr-4-name" class="er entityLabel">password</text><rect height="22.091797828674316" width="21.5625" y="90.18359565734863" x="111.625" class="er attributeBoxEven"/><text style="dominant-baseline: middle; font-size: 10.2px;" transform="translate(116.625,101.22949457168579)" y="0" x="0" id="text-entity-User-818c511a-4a32-5484-ba70-875d765a9175-attr-4-key" class="er entityLabel"/><rect height="22" width="51.640625" y="112.27539348602295" x="0" class="er attributeBoxOdd"/><text style="dominant-baseline: middle; font-size: 10.2px;" transform="translate(5,123.27539348602295)" y="0" x="0" id="text-entity-User-818c511a-4a32-5484-ba70-875d765a9175-attr-5-type" class="er entityLabel">datetime</text><rect height="22" width="59.984375" y="112.27539348602295" x="51.640625" class="er attributeBoxOdd"/><text style="dominant-baseline: middle; font-size: 10.2px;" transform="translate(56.640625,123.27539348602295)" y="0" x="0" id="text-entity-User-818c511a-4a32-5484-ba70-875d765a9175-attr-5-name" class="er entityLabel">created_at</text><rect height="22" width="21.5625" y="112.27539348602295" x="111.625" class="er attributeBoxOdd"/><text style="dominant-baseline: middle; font-size: 10.2px;" transform="translate(116.625,123.27539348602295)" y="0" x="0" id="text-entity-User-818c511a-4a32-5484-ba70-875d765a9175-attr-5-key" class="er entityLabel"/></g><g transform="translate(20,532.3671875 )" id="entity-Task-48d7b74a-e47a-5efe-8103-e90c35d0bbcd"><rect height="156.27539253234863" width="146.859375" y="0" x="0" class="er entityBox"/><text style="dominant-baseline: middle; text-anchor: middle; font-size: 12px;" transform="translate(73.4296875,12)" y="0" x="0" id="text-entity-Task-48d7b74a-e47a-5efe-8103-e90c35d0bbcd" class="er entityLabel">Task</text><rect height="22" width="51.640625" y="24" x="0" class="er attributeBoxOdd"/><text style="dominant-baseline: middle; font-size: 10.2px;" transform="translate(5,35)" y="0" x="0" id="text-entity-Task-48d7b74a-e47a-5efe-8103-e90c35d0bbcd-attr-1-type" class="er entityLabel">int</text><rect height="22" width="73.65625" y="24" x="51.640625" class="er attributeBoxOdd"/><text style="dominant-baseline: middle; font-size: 10.2px;" transform="translate(56.640625,35)" y="0" x="0" id="text-entity-Task-48d7b74a-e47a-5efe-8103-e90c35d0bbcd-attr-1-name" class="er entityLabel">id</text><rect height="22" width="21.5625" y="24" x="125.296875" class="er attributeBoxOdd"/><text style="dominant-baseline: middle; font-size: 10.2px;" transform="translate(130.296875,35)" y="0" x="0" id="text-entity-Task-48d7b74a-e47a-5efe-8103-e90c35d0bbcd-attr-1-key" class="er entityLabel">PK</text><rect height="22.091797828674316" width="51.640625" y="46" x="0" class="er attributeBoxEven"/><text style="dominant-baseline: middle; font-size: 10.2px;" transform="translate(5,57.04589891433716)" y="0" x="0" id="text-entity-Task-48d7b74a-e47a-5efe-8103-e90c35d0bbcd-attr-2-type" class="er entityLabel">string</text><rect height="22.091797828674316" width="73.65625" y="46" x="51.640625" class="er attributeBoxEven"/><text style="dominant-baseline: middle; font-size: 10.2px;" transform="translate(56.640625,57.04589891433716)" y="0" x="0" id="text-entity-Task-48d7b74a-e47a-5efe-8103-e90c35d0bbcd-attr-2-name" class="er entityLabel">name</text><rect height="22.091797828674316" width="21.5625" y="46" x="125.296875" class="er attributeBoxEven"/><text style="dominant-baseline: middle; font-size: 10.2px;" transform="translate(130.296875,57.04589891433716)" y="0" x="0" id="text-entity-Task-48d7b74a-e47a-5efe-8103-e90c35d0bbcd-attr-2-key" class="er entityLabel"/><rect height="22" width="51.640625" y="68.09179782867432" x="0" class="er attributeBoxOdd"/><text style="dominant-baseline: middle; font-size: 10.2px;" transform="translate(5,79.09179782867432)" y="0" x="0" id="text-entity-Task-48d7b74a-e47a-5efe-8103-e90c35d0bbcd-attr-3-type" class="er entityLabel">int</text><rect height="22" width="73.65625" y="68.09179782867432" x="51.640625" class="er attributeBoxOdd"/><text style="dominant-baseline: middle; font-size: 10.2px;" transform="translate(56.640625,79.09179782867432)" y="0" x="0" id="text-entity-Task-48d7b74a-e47a-5efe-8103-e90c35d0bbcd-attr-3-name" class="er entityLabel">timeout</text><rect height="22" width="21.5625" y="68.09179782867432" x="125.296875" class="er attributeBoxOdd"/><text style="dominant-baseline: middle; font-size: 10.2px;" transform="translate(130.296875,79.09179782867432)" y="0" x="0" id="text-entity-Task-48d7b74a-e47a-5efe-8103-e90c35d0bbcd-attr-3-key" class="er entityLabel"/><rect height="22.091796875" width="51.640625" y="90.09179782867432" x="0" class="er attributeBoxEven"/><text style="dominant-baseline: middle; font-size: 10.2px;" transform="translate(5,101.13769626617432)" y="0" x="0" id="text-entity-Task-48d7b74a-e47a-5efe-8103-e90c35d0bbcd-attr-4-type" class="er entityLabel">int</text><rect height="22.091796875" width="73.65625" y="90.09179782867432" x="51.640625" class="er attributeBoxEven"/><text style="dominant-baseline: middle; font-size: 10.2px;" transform="translate(56.640625,101.13769626617432)" y="0" x="0" id="text-entity-Task-48d7b74a-e47a-5efe-8103-e90c35d0bbcd-attr-4-name" class="er entityLabel">memory_limit</text><rect height="22.091796875" width="21.5625" y="90.09179782867432" x="125.296875" class="er attributeBoxEven"/><text style="dominant-baseline: middle; font-size: 10.2px;" transform="translate(130.296875,101.13769626617432)" y="0" x="0" id="text-entity-Task-48d7b74a-e47a-5efe-8103-e90c35d0bbcd-attr-4-key" class="er entityLabel"/><rect height="22.091797828674316" width="51.640625" y="112.18359470367432" x="0" class="er attributeBoxOdd"/><text style="dominant-baseline: middle; font-size: 10.2px;" transform="translate(5,123.22949361801147)" y="0" x="0" id="text-entity-Task-48d7b74a-e47a-5efe-8103-e90c35d0bbcd-attr-5-type" class="er entityLabel">string</text><rect height="22.091797828674316" width="73.65625" y="112.18359470367432" x="51.640625" class="er attributeBoxOdd"/><text style="dominant-baseline: middle; font-size: 10.2px;" transform="translate(56.640625,123.22949361801147)" y="0" x="0" id="text-entity-Task-48d7b74a-e47a-5efe-8103-e90c35d0bbcd-attr-5-name" class="er entityLabel">description</text><rect height="22.091797828674316" width="21.5625" y="112.18359470367432" x="125.296875" class="er attributeBoxOdd"/><text style="dominant-baseline: middle; font-size: 10.2px;" transform="translate(130.296875,123.22949361801147)" y="0" x="0" id="text-entity-Task-48d7b74a-e47a-5efe-8103-e90c35d0bbcd-attr-5-key" class="er entityLabel"/><rect height="22" width="51.640625" y="134.27539253234863" x="0" class="er attributeBoxEven"/><text style="dominant-baseline: middle; font-size: 10.2px;" transform="translate(5,145.27539253234863)" y="0" x="0" id="text-entity-Task-48d7b74a-e47a-5efe-8103-e90c35d0bbcd-attr-6-type" class="er entityLabel">datetime</text><rect height="22" width="73.65625" y="134.27539253234863" x="51.640625" class="er attributeBoxEven"/><text style="dominant-baseline: middle; font-size: 10.2px;" transform="translate(56.640625,145.27539253234863)" y="0" x="0" id="text-entity-Task-48d7b74a-e47a-5efe-8103-e90c35d0bbcd-attr-6-name" class="er entityLabel">created_at</text><rect height="22" width="21.5625" y="134.27539253234863" x="125.296875" class="er attributeBoxEven"/><text style="dominant-baseline: middle; font-size: 10.2px;" transform="translate(130.296875,145.27539253234863)" y="0" x="0" id="text-entity-Task-48d7b74a-e47a-5efe-8103-e90c35d0bbcd-attr-6-key" class="er entityLabel"/></g><g transform="translate(113.55078125,788.642578125 )" id="entity-Test-553381b8-c3b2-53c7-a7aa-23bae560afb8"><rect height="156.18359565734863" width="133.1875" y="0" x="0" class="er entityBox"/><text style="dominant-baseline: middle; text-anchor: middle; font-size: 12px;" transform="translate(66.59375,12)" y="0" x="0" id="text-entity-Test-553381b8-c3b2-53c7-a7aa-23bae560afb8" class="er entityLabel">Test</text><rect height="22" width="51.640625" y="24" x="0" class="er attributeBoxOdd"/><text style="dominant-baseline: middle; font-size: 10.2px;" transform="translate(5,35)" y="0" x="0" id="text-entity-Test-553381b8-c3b2-53c7-a7aa-23bae560afb8-attr-1-type" class="er entityLabel">int</text><rect height="22" width="59.984375" y="24" x="51.640625" class="er attributeBoxOdd"/><text style="dominant-baseline: middle; font-size: 10.2px;" transform="translate(56.640625,35)" y="0" x="0" id="text-entity-Test-553381b8-c3b2-53c7-a7aa-23bae560afb8-attr-1-name" class="er entityLabel">id</text><rect height="22" width="21.5625" y="24" x="111.625" class="er attributeBoxOdd"/><text style="dominant-baseline: middle; font-size: 10.2px;" transform="translate(116.625,35)" y="0" x="0" id="text-entity-Test-553381b8-c3b2-53c7-a7aa-23bae560afb8-attr-1-key" class="er entityLabel">PK</text><rect height="22" width="51.640625" y="46" x="0" class="er attributeBoxEven"/><text style="dominant-baseline: middle; font-size: 10.2px;" transform="translate(5,57)" y="0" x="0" id="text-entity-Test-553381b8-c3b2-53c7-a7aa-23bae560afb8-attr-2-type" class="er entityLabel">int</text><rect height="22" width="59.984375" y="46" x="51.640625" class="er attributeBoxEven"/><text style="dominant-baseline: middle; font-size: 10.2px;" transform="translate(56.640625,57)" y="0" x="0" id="text-entity-Test-553381b8-c3b2-53c7-a7aa-23bae560afb8-attr-2-name" class="er entityLabel">task_id</text><rect height="22" width="21.5625" y="46" x="111.625" class="er attributeBoxEven"/><text style="dominant-baseline: middle; font-size: 10.2px;" transform="translate(116.625,57)" y="0" x="0" id="text-entity-Test-553381b8-c3b2-53c7-a7aa-23bae560afb8-attr-2-key" class="er entityLabel">FK</text><rect height="22" width="51.640625" y="68" x="0" class="er attributeBoxOdd"/><text style="dominant-baseline: middle; font-size: 10.2px;" transform="translate(5,79)" y="0" x="0" id="text-entity-Test-553381b8-c3b2-53c7-a7aa-23bae560afb8-attr-3-type" class="er entityLabel">int</text><rect height="22" width="59.984375" y="68" x="51.640625" class="er attributeBoxOdd"/><text style="dominant-baseline: middle; font-size: 10.2px;" transform="translate(56.640625,79)" y="0" x="0" id="text-entity-Test-553381b8-c3b2-53c7-a7aa-23bae560afb8-attr-3-name" class="er entityLabel">test_num</text><rect height="22" width="21.5625" y="68" x="111.625" class="er attributeBoxOdd"/><text style="dominant-baseline: middle; font-size: 10.2px;" transform="translate(116.625,79)" y="0" x="0" id="text-entity-Test-553381b8-c3b2-53c7-a7aa-23bae560afb8-attr-3-key" class="er entityLabel"/><rect height="22.091797828674316" width="51.640625" y="90" x="0" class="er attributeBoxEven"/><text style="dominant-baseline: middle; font-size: 10.2px;" transform="translate(5,101.04589891433716)" y="0" x="0" id="text-entity-Test-553381b8-c3b2-53c7-a7aa-23bae560afb8-attr-4-type" class="er entityLabel">string</text><rect height="22.091797828674316" width="59.984375" y="90" x="51.640625" class="er attributeBoxEven"/><text style="dominant-baseline: middle; font-size: 10.2px;" transform="translate(56.640625,101.04589891433716)" y="0" x="0" id="text-entity-Test-553381b8-c3b2-53c7-a7aa-23bae560afb8-attr-4-name" class="er entityLabel">in</text><rect height="22.091797828674316" width="21.5625" y="90" x="111.625" class="er attributeBoxEven"/><text style="dominant-baseline: middle; font-size: 10.2px;" transform="translate(116.625,101.04589891433716)" y="0" x="0" id="text-entity-Test-553381b8-c3b2-53c7-a7aa-23bae560afb8-attr-4-key" class="er entityLabel"/><rect height="22.091797828674316" width="51.640625" y="112.09179782867432" x="0" class="er attributeBoxOdd"/><text style="dominant-baseline: middle; font-size: 10.2px;" transform="translate(5,123.13769674301147)" y="0" x="0" id="text-entity-Test-553381b8-c3b2-53c7-a7aa-23bae560afb8-attr-5-type" class="er entityLabel">string</text><rect height="22.091797828674316" width="59.984375" y="112.09179782867432" x="51.640625" class="er attributeBoxOdd"/><text style="dominant-baseline: middle; font-size: 10.2px;" transform="translate(56.640625,123.13769674301147)" y="0" x="0" id="text-entity-Test-553381b8-c3b2-53c7-a7aa-23bae560afb8-attr-5-name" class="er entityLabel">out</text><rect height="22.091797828674316" width="21.5625" y="112.09179782867432" x="111.625" class="er attributeBoxOdd"/><text style="dominant-baseline: middle; font-size: 10.2px;" transform="translate(116.625,123.13769674301147)" y="0" x="0" id="text-entity-Test-553381b8-c3b2-53c7-a7aa-23bae560afb8-attr-5-key" class="er entityLabel"/><rect height="22" width="51.640625" y="134.18359565734863" x="0" class="er attributeBoxEven"/><text style="dominant-baseline: middle; font-size: 10.2px;" transform="translate(5,145.18359565734863)" y="0" x="0" id="text-entity-Test-553381b8-c3b2-53c7-a7aa-23bae560afb8-attr-6-type" class="er entityLabel">datetime</text><rect height="22" width="59.984375" y="134.18359565734863" x="51.640625" class="er attributeBoxEven"/><text style="dominant-baseline: middle; font-size: 10.2px;" transform="translate(56.640625,145.18359565734863)" y="0" x="0" id="text-entity-Test-553381b8-c3b2-53c7-a7aa-23bae560afb8-attr-6-name" class="er entityLabel">created_at</text><rect height="22" width="21.5625" y="134.18359565734863" x="111.625" class="er attributeBoxEven"/><text style="dominant-baseline: middle; font-size: 10.2px;" transform="translate(116.625,145.18359565734863)" y="0" x="0" id="text-entity-Test-553381b8-c3b2-53c7-a7aa-23bae560afb8-attr-6-key" class="er entityLabel"/></g><g transform="translate(110.14453125,254.275390625 )" id="entity-Attempt-545c8ea0-1c9d-5e8c-8c3e-4f09d1631933"><rect height="178.09179782867432" width="140" y="0" x="0" class="er entityBox"/><text style="dominant-baseline: middle; text-anchor: middle; font-size: 12px;" transform="translate(70,12)" y="0" x="0" id="text-entity-Attempt-545c8ea0-1c9d-5e8c-8c3e-4f09d1631933" class="er entityLabel">Attempt</text><rect height="22" width="51.640625" y="24" x="0" class="er attributeBoxOdd"/><text style="dominant-baseline: middle; font-size: 10.2px;" transform="translate(5,35)" y="0" x="0" id="text-entity-Attempt-545c8ea0-1c9d-5e8c-8c3e-4f09d1631933-attr-1-type" class="er entityLabel">int</text><rect height="22" width="66.796875" y="24" x="51.640625" class="er attributeBoxOdd"/><text style="dominant-baseline: middle; font-size: 10.2px;" transform="translate(56.640625,35)" y="0" x="0" id="text-entity-Attempt-545c8ea0-1c9d-5e8c-8c3e-4f09d1631933-attr-1-name" class="er entityLabel">id</text><rect height="22" width="21.5625" y="24" x="118.4375" class="er attributeBoxOdd"/><text style="dominant-baseline: middle; font-size: 10.2px;" transform="translate(123.4375,35)" y="0" x="0" id="text-entity-Attempt-545c8ea0-1c9d-5e8c-8c3e-4f09d1631933-attr-1-key" class="er entityLabel">PK</text><rect height="22" width="51.640625" y="46" x="0" class="er attributeBoxEven"/><text style="dominant-baseline: middle; font-size: 10.2px;" transform="translate(5,57)" y="0" x="0" id="text-entity-Attempt-545c8ea0-1c9d-5e8c-8c3e-4f09d1631933-attr-2-type" class="er entityLabel">int</text><rect height="22" width="66.796875" y="46" x="51.640625" class="er attributeBoxEven"/><text style="dominant-baseline: middle; font-size: 10.2px;" transform="translate(56.640625,57)" y="0" x="0" id="text-entity-Attempt-545c8ea0-1c9d-5e8c-8c3e-4f09d1631933-attr-2-name" class="er entityLabel">user_id</text><rect height="22" width="21.5625" y="46" x="118.4375" class="er attributeBoxEven"/><text style="dominant-baseline: middle; font-size: 10.2px;" transform="translate(123.4375,57)" y="0" x="0" id="text-entity-Attempt-545c8ea0-1c9d-5e8c-8c3e-4f09d1631933-attr-2-key" class="er entityLabel">FK</text><rect height="22" width="51.640625" y="68" x="0" class="er attributeBoxOdd"/><text style="dominant-baseline: middle; font-size: 10.2px;" transform="translate(5,79)" y="0" x="0" id="text-entity-Attempt-545c8ea0-1c9d-5e8c-8c3e-4f09d1631933-attr-3-type" class="er entityLabel">int</text><rect height="22" width="66.796875" y="68" x="51.640625" class="er attributeBoxOdd"/><text style="dominant-baseline: middle; font-size: 10.2px;" transform="translate(56.640625,79)" y="0" x="0" id="text-entity-Attempt-545c8ea0-1c9d-5e8c-8c3e-4f09d1631933-attr-3-name" class="er entityLabel">task_id</text><rect height="22" width="21.5625" y="68" x="118.4375" class="er attributeBoxOdd"/><text style="dominant-baseline: middle; font-size: 10.2px;" transform="translate(123.4375,79)" y="0" x="0" id="text-entity-Attempt-545c8ea0-1c9d-5e8c-8c3e-4f09d1631933-attr-3-key" class="er entityLabel">FK</text><rect height="22.091797828674316" width="51.640625" y="90" x="0" class="er attributeBoxEven"/><text style="dominant-baseline: middle; font-size: 10.2px;" transform="translate(5,101.04589891433716)" y="0" x="0" id="text-entity-Attempt-545c8ea0-1c9d-5e8c-8c3e-4f09d1631933-attr-4-type" class="er entityLabel">string</text><rect height="22.091797828674316" width="66.796875" y="90" x="51.640625" class="er attributeBoxEven"/><text style="dominant-baseline: middle; font-size: 10.2px;" transform="translate(56.640625,101.04589891433716)" y="0" x="0" id="text-entity-Attempt-545c8ea0-1c9d-5e8c-8c3e-4f09d1631933-attr-4-name" class="er entityLabel">solution_file</text><rect height="22.091797828674316" width="21.5625" y="90" x="118.4375" class="er attributeBoxEven"/><text style="dominant-baseline: middle; font-size: 10.2px;" transform="translate(123.4375,101.04589891433716)" y="0" x="0" id="text-entity-Attempt-545c8ea0-1c9d-5e8c-8c3e-4f09d1631933-attr-4-key" class="er entityLabel"/><rect height="22" width="51.640625" y="112.09179782867432" x="0" class="er attributeBoxOdd"/><text style="dominant-baseline: middle; font-size: 10.2px;" transform="translate(5,123.09179782867432)" y="0" x="0" id="text-entity-Attempt-545c8ea0-1c9d-5e8c-8c3e-4f09d1631933-attr-5-type" class="er entityLabel">boolean</text><rect height="22" width="66.796875" y="112.09179782867432" x="51.640625" class="er attributeBoxOdd"/><text style="dominant-baseline: middle; font-size: 10.2px;" transform="translate(56.640625,123.09179782867432)" y="0" x="0" id="text-entity-Attempt-545c8ea0-1c9d-5e8c-8c3e-4f09d1631933-attr-5-name" class="er entityLabel">succeeded</text><rect height="22" width="21.5625" y="112.09179782867432" x="118.4375" class="er attributeBoxOdd"/><text style="dominant-baseline: middle; font-size: 10.2px;" transform="translate(123.4375,123.09179782867432)" y="0" x="0" id="text-entity-Attempt-545c8ea0-1c9d-5e8c-8c3e-4f09d1631933-attr-5-key" class="er entityLabel"/><rect height="22" width="51.640625" y="134.09179782867432" x="0" class="er attributeBoxEven"/><text style="dominant-baseline: middle; font-size: 10.2px;" transform="translate(5,145.09179782867432)" y="0" x="0" id="text-entity-Attempt-545c8ea0-1c9d-5e8c-8c3e-4f09d1631933-attr-6-type" class="er entityLabel">int</text><rect height="22" width="66.796875" y="134.09179782867432" x="51.640625" class="er attributeBoxEven"/><text style="dominant-baseline: middle; font-size: 10.2px;" transform="translate(56.640625,145.09179782867432)" y="0" x="0" id="text-entity-Attempt-545c8ea0-1c9d-5e8c-8c3e-4f09d1631933-attr-6-name" class="er entityLabel">failed_test</text><rect height="22" width="21.5625" y="134.09179782867432" x="118.4375" class="er attributeBoxEven"/><text style="dominant-baseline: middle; font-size: 10.2px;" transform="translate(123.4375,145.09179782867432)" y="0" x="0" id="text-entity-Attempt-545c8ea0-1c9d-5e8c-8c3e-4f09d1631933-attr-6-key" class="er entityLabel">FK</text><rect height="22" width="51.640625" y="156.09179782867432" x="0" class="er attributeBoxOdd"/><text style="dominant-baseline: middle; font-size: 10.2px;" transform="translate(5,167.09179782867432)" y="0" x="0" id="text-entity-Attempt-545c8ea0-1c9d-5e8c-8c3e-4f09d1631933-attr-7-type" class="er entityLabel">datetime</text><rect height="22" width="66.796875" y="156.09179782867432" x="51.640625" class="er attributeBoxOdd"/><text style="dominant-baseline: middle; font-size: 10.2px;" transform="translate(56.640625,167.09179782867432)" y="0" x="0" id="text-entity-Attempt-545c8ea0-1c9d-5e8c-8c3e-4f09d1631933-attr-7-name" class="er entityLabel">created_at</text><rect height="22" width="21.5625" y="156.09179782867432" x="118.4375" class="er attributeBoxOdd"/><text style="dominant-baseline: middle; font-size: 10.2px;" transform="translate(123.4375,167.09179782867432)" y="0" x="0" id="text-entity-Attempt-545c8ea0-1c9d-5e8c-8c3e-4f09d1631933-attr-7-key" class="er entityLabel"/></g><rect height="14" width="50.078125" y="197.27499389648438" x="155.10594177246094" class="er relationshipLabelBox"/><text style="text-anchor: middle; dominant-baseline: middle; font-size: 12px;" y="204.27499389648438" x="180.14500427246094" id="rel1" class="er relationshipLabel">has many</text><rect height="14" width="50.078125" y="734.9410400390625" x="75.21992492675781" class="er relationshipLabelBox"/><text style="text-anchor: middle; dominant-baseline: middle; font-size: 12px;" y="741.9410400390625" x="100.25898742675781" id="rel2" class="er relationshipLabel">has many</text><rect height="14" width="40.875" y="472.5080871582031" x="79.1307601928711" class="er relationshipLabelBox"/><text style="text-anchor: middle; dominant-baseline: middle; font-size: 12px;" y="479.5080871582031" x="99.5682601928711" id="rel3" class="er relationshipLabel">has one</text><rect height="14" width="40.875" y="604.0031127929688" x="246.42141723632812" class="er relationshipLabelBox"/><text style="text-anchor: middle; dominant-baseline: middle; font-size: 12px;" y="611.0031127929688" x="266.8589172363281" id="rel4" class="er relationshipLabel">has one</text></svg>