<svg aria-roledescription="er" role="graphics-document document" viewBox="0 0 549.203125 386.55078125" style="max-width: 549.203px; background-color: white;" xmlns:xlink="http://www.w3.org/1999/xlink" xmlns="http://www.w3.org/2000/svg" width="100%" id="my-svg"><style>#my-svg{font-family:"trebuchet ms",verdana,arial,sans-serif;font-size:16px;fill:#333;}#my-svg .error-icon{fill:#552222;}#my-svg .error-text{fill:#552222;stroke:#552222;}#my-svg .edge-thickness-normal{stroke-width:1px;}#my-svg .edge-thickness-thick{stroke-width:3.5px;}#my-svg .edge-pattern-solid{stroke-dasharray:0;}#my-svg .edge-thickness-invisible{stroke-width:0;fill:none;}#my-svg .edge-pattern-dashed{stroke-dasharray:3;}#my-svg .edge-pattern-dotted{stroke-dasharray:2;}#my-svg .marker{fill:#333333;stroke:#333333;}#my-svg .marker.cross{stroke:#333333;}#my-svg svg{font-family:"trebuchet ms",verdana,arial,sans-serif;font-size:16px;}#my-svg p{margin:0;}#my-svg .entityBox{fill:#ECECFF;stroke:#9370DB;}#my-svg .attributeBoxOdd{fill:#ffffff;stroke:#9370DB;}#my-svg .attributeBoxEven{fill:#f2f2f2;stroke:#9370DB;}#my-svg .relationshipLabelBox{fill:hsl(80, 100%, 96.2745098039%);opacity:0.7;background-color:hsl(80, 100%, 96.2745098039%);}#my-svg .relationshipLabelBox rect{opacity:0.5;}#my-svg .relationshipLine{stroke:#333333;}#my-svg .entityTitleText{text-anchor:middle;font-size:18px;fill:#333;}#my-svg #MD_PARENT_START{fill:#f5f5f5!important;stroke:#333333!important;stroke-width:1;}#my-svg #MD_PARENT_END{fill:#f5f5f5!important;stroke:#333333!important;stroke-width:1;}#my-svg :root{--mermaid-font-family:"trebuchet ms",verdana,arial,sans-serif;}</style><g/><defs><marker orient="auto" markerHeight="240" markerWidth="190" refY="7" refX="0" id="MD_PARENT_START"><path d="M 18,7 L9,13 L1,7 L9,1 Z"/></marker></defs><defs><marker orient="auto" markerHeight="28" markerWidth="20" refY="7" refX="19" id="MD_PARENT_END"><path d="M 18,7 L9,13 L1,7 L9,1 Z"/></marker></defs><defs><marker orient="auto" markerHeight="18" markerWidth="18" refY="9" refX="0" id="ONLY_ONE_START"><path d="M9,0 L9,18 M15,0 L15,18" fill="none" stroke="gray"/></marker></defs><defs><marker orient="auto" markerHeight="18" markerWidth="18" refY="9" refX="18" id="ONLY_ONE_END"><path d="M3,0 L3,18 M9,0 L9,18" fill="none" stroke="gray"/></marker></defs><defs><marker orient="auto" markerHeight="18" markerWidth="30" refY="9" refX="0" id="ZERO_OR_ONE_START"><circle r="6" cy="9" cx="21" fill="white" stroke="gray"/><path d="M9,0 L9,18" fill="none" stroke="gray"/></marker></defs><defs><marker orient="auto" markerHeight="18" markerWidth="30" refY="9" refX="30" id="ZERO_OR_ONE_END"><circle r="6" cy="9" cx="9" fill="white" stroke="gray"/><path d="M21,0 L21,18" fill="none" stroke="gray"/></marker></defs><defs><marker orient="auto" markerHeight="36" markerWidth="45" refY="18" refX="18" id="ONE_OR_MORE_START"><path d="M0,18 Q 18,0 36,18 Q 18,36 0,18 M42,9 L42,27" fill="none" stroke="gray"/></marker></defs><defs><marker orient="auto" markerHeight="36" markerWidth="45" refY="18" refX="27" id="ONE_OR_MORE_END"><path d="M3,9 L3,27 M9,18 Q27,0 45,18 Q27,36 9,18" fill="none" stroke="gray"/></marker></defs><defs><marker orient="auto" markerHeight="36" markerWidth="57" refY="18" refX="18" id="ZERO_OR_MORE_START"><circle r="6" cy="18" cx="48" fill="white" stroke="gray"/><path d="M0,18 Q18,0 36,18 Q18,36 0,18" fill="none" stroke="gray"/></marker></defs><defs><marker orient="auto" markerHeight="36" markerWidth="57" refY="18" refX="39" id="ZERO_OR_MORE_END"><circle r="6" cy="18" cx="9" fill="white" stroke="gray"/><path d="M21,18 Q39,0 57,18 Q39,36 21,18" fill="none" stroke="gray"/></marker></defs><path style="stroke: gray; fill: none;" marker-start="url(#ZERO_OR_MORE_START)" marker-end="url(#ONLY_ONE_END)" d="M97.414,143.321L93.073,153.496C88.732,163.67,80.05,184.019,75.708,204.367C71.367,224.716,71.367,245.064,71.367,255.239L71.367,265.413" class="er relationshipLine"/><path style="stroke: gray; fill: none;" marker-start="url(#ZERO_OR_MORE_START)" marker-end="url(#ONLY_ONE_END)" d="M169.928,143.321L178.729,153.496C187.53,163.67,205.132,184.019,217.972,202.534C230.811,221.049,238.888,237.731,242.927,246.072L246.965,254.413" class="er relationshipLine"/><path style="stroke: gray; fill: none;" marker-start="url(#ZERO_OR_MORE_START)" marker-end="url(#ONLY_ONE_END)" d="M456.002,154.367L459.558,162.701C463.113,171.034,470.225,187.701,473.78,204.367C477.336,221.034,477.336,237.701,477.336,246.034L477.336,254.367" class="er relationshipLine"/><path style="stroke: gray; fill: none;" marker-start="url(#ZERO_OR_MORE_START)" marker-end="url(#ONLY_ONE_END)" d="M375.969,146.42L367.594,156.077C359.219,165.735,342.469,185.051,330.036,203.05C317.602,221.049,309.486,237.731,305.428,246.072L301.37,254.413" class="er relationshipLine"/><g transform="translate(20,265.4130859375 )" id="entity-USER-6e7e2962-0c6f-577d-a7fd-2ce3a0cfd2c8"><rect height="90.09179782867432" width="102.734375" y="0" x="0" class="er entityBox"/><text style="dominant-baseline: middle; text-anchor: middle; font-size: 12px;" transform="translate(51.3671875,12)" y="0" x="0" id="text-entity-USER-6e7e2962-0c6f-577d-a7fd-2ce3a0cfd2c8" class="er entityLabel">USER</text><rect height="22.091797828674316" width="42.75" y="24" x="0" class="er attributeBoxOdd"/><text style="dominant-baseline: middle; font-size: 10.2px;" transform="translate(5,35.04589891433716)" y="0" x="0" id="text-entity-USER-6e7e2962-0c6f-577d-a7fd-2ce3a0cfd2c8-attr-1-type" class="er entityLabel">integer</text><rect height="22.091797828674316" width="59.984375" y="24" x="42.75" class="er attributeBoxOdd"/><text style="dominant-baseline: middle; font-size: 10.2px;" transform="translate(47.75,35.04589891433716)" y="0" x="0" id="text-entity-USER-6e7e2962-0c6f-577d-a7fd-2ce3a0cfd2c8-attr-1-name" class="er entityLabel">id</text><rect height="22" width="42.75" y="46.091797828674316" x="0" class="er attributeBoxEven"/><text style="dominant-baseline: middle; font-size: 10.2px;" transform="translate(5,57.091797828674316)" y="0" x="0" id="text-entity-USER-6e7e2962-0c6f-577d-a7fd-2ce3a0cfd2c8-attr-2-type" class="er entityLabel">text</text><rect height="22" width="59.984375" y="46.091797828674316" x="42.75" class="er attributeBoxEven"/><text style="dominant-baseline: middle; font-size: 10.2px;" transform="translate(47.75,57.091797828674316)" y="0" x="0" id="text-entity-USER-6e7e2962-0c6f-577d-a7fd-2ce3a0cfd2c8-attr-2-name" class="er entityLabel">username</text><rect height="22" width="42.75" y="68.09179782867432" x="0" class="er attributeBoxOdd"/><text style="dominant-baseline: middle; font-size: 10.2px;" transform="translate(5,79.09179782867432)" y="0" x="0" id="text-entity-USER-6e7e2962-0c6f-577d-a7fd-2ce3a0cfd2c8-attr-3-type" class="er entityLabel">text</text><rect height="22" width="59.984375" y="68.09179782867432" x="42.75" class="er attributeBoxOdd"/><text style="dominant-baseline: middle; font-size: 10.2px;" transform="translate(47.75,79.09179782867432)" y="0" x="0" id="text-entity-USER-6e7e2962-0c6f-577d-a7fd-2ce3a0cfd2c8-attr-3-name" class="er entityLabel">created_at</text></g><g transform="translate(222.734375,254.4130859375 )" id="entity-STORE-bb477a94-b92a-597f-9184-a9aa41e2b141"><rect height="112.09179782867432" width="102.734375" y="0" x="0" class="er entityBox"/><text style="dominant-baseline: middle; text-anchor: middle; font-size: 12px;" transform="translate(51.3671875,12)" y="0" x="0" id="text-entity-STORE-bb477a94-b92a-597f-9184-a9aa41e2b141" class="er entityLabel">STORE</text><rect height="22.091797828674316" width="42.75" y="24" x="0" class="er attributeBoxOdd"/><text style="dominant-baseline: middle; font-size: 10.2px;" transform="translate(5,35.04589891433716)" y="0" x="0" id="text-entity-STORE-bb477a94-b92a-597f-9184-a9aa41e2b141-attr-1-type" class="er entityLabel">integer</text><rect height="22.091797828674316" width="59.984375" y="24" x="42.75" class="er attributeBoxOdd"/><text style="dominant-baseline: middle; font-size: 10.2px;" transform="translate(47.75,35.04589891433716)" y="0" x="0" id="text-entity-STORE-bb477a94-b92a-597f-9184-a9aa41e2b141-attr-1-name" class="er entityLabel">id</text><rect height="22" width="42.75" y="46.091797828674316" x="0" class="er attributeBoxEven"/><text style="dominant-baseline: middle; font-size: 10.2px;" transform="translate(5,57.091797828674316)" y="0" x="0" id="text-entity-STORE-bb477a94-b92a-597f-9184-a9aa41e2b141-attr-2-type" class="er entityLabel">text</text><rect height="22" width="59.984375" y="46.091797828674316" x="42.75" class="er attributeBoxEven"/><text style="dominant-baseline: middle; font-size: 10.2px;" transform="translate(47.75,57.091797828674316)" y="0" x="0" id="text-entity-STORE-bb477a94-b92a-597f-9184-a9aa41e2b141-attr-2-name" class="er entityLabel">name</text><rect height="22" width="42.75" y="68.09179782867432" x="0" class="er attributeBoxOdd"/><text style="dominant-baseline: middle; font-size: 10.2px;" transform="translate(5,79.09179782867432)" y="0" x="0" id="text-entity-STORE-bb477a94-b92a-597f-9184-a9aa41e2b141-attr-3-type" class="er entityLabel">text</text><rect height="22" width="59.984375" y="68.09179782867432" x="42.75" class="er attributeBoxOdd"/><text style="dominant-baseline: middle; font-size: 10.2px;" transform="translate(47.75,79.09179782867432)" y="0" x="0" id="text-entity-STORE-bb477a94-b92a-597f-9184-a9aa41e2b141-attr-3-name" class="er entityLabel">location</text><rect height="22" width="42.75" y="90.09179782867432" x="0" class="er attributeBoxEven"/><text style="dominant-baseline: middle; font-size: 10.2px;" transform="translate(5,101.09179782867432)" y="0" x="0" id="text-entity-STORE-bb477a94-b92a-597f-9184-a9aa41e2b141-attr-4-type" class="er entityLabel">text</text><rect height="22" width="59.984375" y="90.09179782867432" x="42.75" class="er attributeBoxEven"/><text style="dominant-baseline: middle; font-size: 10.2px;" transform="translate(47.75,101.09179782867432)" y="0" x="0" id="text-entity-STORE-bb477a94-b92a-597f-9184-a9aa41e2b141-attr-4-name" class="er entityLabel">created_at</text></g><g transform="translate(425.46875,254.3671875 )" id="entity-ITEM-1c913bec-a30b-5efb-a4b8-101d7fb1bda1"><rect height="112.18359470367432" width="103.734375" y="0" x="0" class="er entityBox"/><text style="dominant-baseline: middle; text-anchor: middle; font-size: 12px;" transform="translate(51.8671875,12)" y="0" x="0" id="text-entity-ITEM-1c913bec-a30b-5efb-a4b8-101d7fb1bda1" class="er entityLabel">ITEM</text><rect height="22.091797828674316" width="42.75" y="24" x="0" class="er attributeBoxOdd"/><text style="dominant-baseline: middle; font-size: 10.2px;" transform="translate(5,35.04589891433716)" y="0" x="0" id="text-entity-ITEM-1c913bec-a30b-5efb-a4b8-101d7fb1bda1-attr-1-type" class="er entityLabel">integer</text><rect height="22.091797828674316" width="60.984375" y="24" x="42.75" class="er attributeBoxOdd"/><text style="dominant-baseline: middle; font-size: 10.2px;" transform="translate(47.75,35.04589891433716)" y="0" x="0" id="text-entity-ITEM-1c913bec-a30b-5efb-a4b8-101d7fb1bda1-attr-1-name" class="er entityLabel">id</text><rect height="22" width="42.75" y="46.091797828674316" x="0" class="er attributeBoxEven"/><text style="dominant-baseline: middle; font-size: 10.2px;" transform="translate(5,57.091797828674316)" y="0" x="0" id="text-entity-ITEM-1c913bec-a30b-5efb-a4b8-101d7fb1bda1-attr-2-type" class="er entityLabel">text</text><rect height="22" width="60.984375" y="46.091797828674316" x="42.75" class="er attributeBoxEven"/><text style="dominant-baseline: middle; font-size: 10.2px;" transform="translate(47.75,57.091797828674316)" y="0" x="0" id="text-entity-ITEM-1c913bec-a30b-5efb-a4b8-101d7fb1bda1-attr-2-name" class="er entityLabel">name</text><rect height="22.091796875" width="42.75" y="68.09179782867432" x="0" class="er attributeBoxOdd"/><text style="dominant-baseline: middle; font-size: 10.2px;" transform="translate(5,79.13769626617432)" y="0" x="0" id="text-entity-ITEM-1c913bec-a30b-5efb-a4b8-101d7fb1bda1-attr-3-type" class="er entityLabel">text</text><rect height="22.091796875" width="60.984375" y="68.09179782867432" x="42.75" class="er attributeBoxOdd"/><text style="dominant-baseline: middle; font-size: 10.2px;" transform="translate(47.75,79.13769626617432)" y="0" x="0" id="text-entity-ITEM-1c913bec-a30b-5efb-a4b8-101d7fb1bda1-attr-3-name" class="er entityLabel">description</text><rect height="22" width="42.75" y="90.18359470367432" x="0" class="er attributeBoxEven"/><text style="dominant-baseline: middle; font-size: 10.2px;" transform="translate(5,101.18359470367432)" y="0" x="0" id="text-entity-ITEM-1c913bec-a30b-5efb-a4b8-101d7fb1bda1-attr-4-type" class="er entityLabel">text</text><rect height="22" width="60.984375" y="90.18359470367432" x="42.75" class="er attributeBoxEven"/><text style="dominant-baseline: middle; font-size: 10.2px;" transform="translate(47.75,101.18359470367432)" y="0" x="0" id="text-entity-ITEM-1c913bec-a30b-5efb-a4b8-101d7fb1bda1-attr-4-name" class="er entityLabel">created_at</text></g><g transform="translate(70,31.0458984375 )" id="entity-USERSTORE-db23d830-ca3f-5bbc-91ca-10c4a6e5f42e"><rect height="112.27539348602295" width="102.734375" y="0" x="0" class="er entityBox"/><text style="dominant-baseline: middle; text-anchor: middle; font-size: 12px;" transform="translate(51.3671875,12)" y="0" x="0" id="text-entity-USERSTORE-db23d830-ca3f-5bbc-91ca-10c4a6e5f42e" class="er entityLabel">USER_STORE</text><rect height="22.091797828674316" width="42.75" y="24" x="0" class="er attributeBoxOdd"/><text style="dominant-baseline: middle; font-size: 10.2px;" transform="translate(5,35.04589891433716)" y="0" x="0" id="text-entity-USERSTORE-db23d830-ca3f-5bbc-91ca-10c4a6e5f42e-attr-1-type" class="er entityLabel">integer</text><rect height="22.091797828674316" width="59.984375" y="24" x="42.75" class="er attributeBoxOdd"/><text style="dominant-baseline: middle; font-size: 10.2px;" transform="translate(47.75,35.04589891433716)" y="0" x="0" id="text-entity-USERSTORE-db23d830-ca3f-5bbc-91ca-10c4a6e5f42e-attr-1-name" class="er entityLabel">id</text><rect height="22.091797828674316" width="42.75" y="46.091797828674316" x="0" class="er attributeBoxEven"/><text style="dominant-baseline: middle; font-size: 10.2px;" transform="translate(5,57.137696743011475)" y="0" x="0" id="text-entity-USERSTORE-db23d830-ca3f-5bbc-91ca-10c4a6e5f42e-attr-2-type" class="er entityLabel">integer</text><rect height="22.091797828674316" width="59.984375" y="46.091797828674316" x="42.75" class="er attributeBoxEven"/><text style="dominant-baseline: middle; font-size: 10.2px;" transform="translate(47.75,57.137696743011475)" y="0" x="0" id="text-entity-USERSTORE-db23d830-ca3f-5bbc-91ca-10c4a6e5f42e-attr-2-name" class="er entityLabel">user_id</text><rect height="22.091797828674316" width="42.75" y="68.18359565734863" x="0" class="er attributeBoxOdd"/><text style="dominant-baseline: middle; font-size: 10.2px;" transform="translate(5,79.22949457168579)" y="0" x="0" id="text-entity-USERSTORE-db23d830-ca3f-5bbc-91ca-10c4a6e5f42e-attr-3-type" class="er entityLabel">integer</text><rect height="22.091797828674316" width="59.984375" y="68.18359565734863" x="42.75" class="er attributeBoxOdd"/><text style="dominant-baseline: middle; font-size: 10.2px;" transform="translate(47.75,79.22949457168579)" y="0" x="0" id="text-entity-USERSTORE-db23d830-ca3f-5bbc-91ca-10c4a6e5f42e-attr-3-name" class="er entityLabel">store_id</text><rect height="22" width="42.75" y="90.27539348602295" x="0" class="er attributeBoxEven"/><text style="dominant-baseline: middle; font-size: 10.2px;" transform="translate(5,101.27539348602295)" y="0" x="0" id="text-entity-USERSTORE-db23d830-ca3f-5bbc-91ca-10c4a6e5f42e-attr-4-type" class="er entityLabel">text</text><rect height="22" width="59.984375" y="90.27539348602295" x="42.75" class="er attributeBoxEven"/><text style="dominant-baseline: middle; font-size: 10.2px;" transform="translate(47.75,101.27539348602295)" y="0" x="0" id="text-entity-USERSTORE-db23d830-ca3f-5bbc-91ca-10c4a6e5f42e-attr-4-name" class="er entityLabel">created_at</text></g><g transform="translate(375.96875,20 )" id="entity-ITEMSTORE-48f50b72-33a0-5147-806b-24f385e1f478"><rect height="134.36719131469727" width="102.734375" y="0" x="0" class="er entityBox"/><text style="dominant-baseline: middle; text-anchor: middle; font-size: 12px;" transform="translate(51.3671875,12)" y="0" x="0" id="text-entity-ITEMSTORE-48f50b72-33a0-5147-806b-24f385e1f478" class="er entityLabel">ITEM_STORE</text><rect height="22.091797828674316" width="42.75" y="24" x="0" class="er attributeBoxOdd"/><text style="dominant-baseline: middle; font-size: 10.2px;" transform="translate(5,35.04589891433716)" y="0" x="0" id="text-entity-ITEMSTORE-48f50b72-33a0-5147-806b-24f385e1f478-attr-1-type" class="er entityLabel">integer</text><rect height="22.091797828674316" width="59.984375" y="24" x="42.75" class="er attributeBoxOdd"/><text style="dominant-baseline: middle; font-size: 10.2px;" transform="translate(47.75,35.04589891433716)" y="0" x="0" id="text-entity-ITEMSTORE-48f50b72-33a0-5147-806b-24f385e1f478-attr-1-name" class="er entityLabel">id</text><rect height="22.091797828674316" width="42.75" y="46.091797828674316" x="0" class="er attributeBoxEven"/><text style="dominant-baseline: middle; font-size: 10.2px;" transform="translate(5,57.137696743011475)" y="0" x="0" id="text-entity-ITEMSTORE-48f50b72-33a0-5147-806b-24f385e1f478-attr-2-type" class="er entityLabel">integer</text><rect height="22.091797828674316" width="59.984375" y="46.091797828674316" x="42.75" class="er attributeBoxEven"/><text style="dominant-baseline: middle; font-size: 10.2px;" transform="translate(47.75,57.137696743011475)" y="0" x="0" id="text-entity-ITEMSTORE-48f50b72-33a0-5147-806b-24f385e1f478-attr-2-name" class="er entityLabel">item_id</text><rect height="22.091797828674316" width="42.75" y="68.18359565734863" x="0" class="er attributeBoxOdd"/><text style="dominant-baseline: middle; font-size: 10.2px;" transform="translate(5,79.22949457168579)" y="0" x="0" id="text-entity-ITEMSTORE-48f50b72-33a0-5147-806b-24f385e1f478-attr-3-type" class="er entityLabel">integer</text><rect height="22.091797828674316" width="59.984375" y="68.18359565734863" x="42.75" class="er attributeBoxOdd"/><text style="dominant-baseline: middle; font-size: 10.2px;" transform="translate(47.75,79.22949457168579)" y="0" x="0" id="text-entity-ITEMSTORE-48f50b72-33a0-5147-806b-24f385e1f478-attr-3-name" class="er entityLabel">store_id</text><rect height="22.091797828674316" width="42.75" y="90.27539348602295" x="0" class="er attributeBoxEven"/><text style="dominant-baseline: middle; font-size: 10.2px;" transform="translate(5,101.32129240036011)" y="0" x="0" id="text-entity-ITEMSTORE-48f50b72-33a0-5147-806b-24f385e1f478-attr-4-type" class="er entityLabel">integer</text><rect height="22.091797828674316" width="59.984375" y="90.27539348602295" x="42.75" class="er attributeBoxEven"/><text style="dominant-baseline: middle; font-size: 10.2px;" transform="translate(47.75,101.32129240036011)" y="0" x="0" id="text-entity-ITEMSTORE-48f50b72-33a0-5147-806b-24f385e1f478-attr-4-name" class="er entityLabel">amount</text><rect height="22" width="42.75" y="112.36719131469727" x="0" class="er attributeBoxOdd"/><text style="dominant-baseline: middle; font-size: 10.2px;" transform="translate(5,123.36719131469727)" y="0" x="0" id="text-entity-ITEMSTORE-48f50b72-33a0-5147-806b-24f385e1f478-attr-5-type" class="er entityLabel">text</text><rect height="22" width="59.984375" y="112.36719131469727" x="42.75" class="er attributeBoxOdd"/><text style="dominant-baseline: middle; font-size: 10.2px;" transform="translate(47.75,123.36719131469727)" y="0" x="0" id="text-entity-ITEMSTORE-48f50b72-33a0-5147-806b-24f385e1f478-attr-5-name" class="er entityLabel">created_at</text></g><rect height="14" width="39.03125" y="195.6228790283203" x="56.5751953125" class="er relationshipLabelBox"/><text style="text-anchor: middle; dominant-baseline: middle; font-size: 12px;" y="202.6228790283203" x="76.0908203125" id="rel1" class="er relationshipLabel">user_id</text><rect height="14" width="43.671875" y="188.70706176757812" x="191.25537109375" class="er relationshipLabelBox"/><text style="text-anchor: middle; dominant-baseline: middle; font-size: 12px;" y="195.70706176757812" x="213.09130859375" id="rel2" class="er relationshipLabel">store_id</text><rect height="14" width="41.09375" y="195.9385223388672" x="452.919677734375" class="er relationshipLabelBox"/><text style="text-anchor: middle; dominant-baseline: middle; font-size: 12px;" y="202.9385223388672" x="473.466552734375" id="rel3" class="er relationshipLabel">item_id</text><rect height="14" width="43.671875" y="190.3151397705078" x="312.2699279785156" class="er relationshipLabelBox"/><text style="text-anchor: middle; dominant-baseline: middle; font-size: 12px;" y="197.3151397705078" x="334.1058654785156" id="rel4" class="er relationshipLabel">store_id</text></svg>