<svg aria-roledescription="er" role="graphics-document document" viewBox="0 0 1344.7109375 707.91796875" style="max-width: 1344.71px; background-color: white;" xmlns:xlink="http://www.w3.org/1999/xlink" xmlns="http://www.w3.org/2000/svg" width="100%" id="my-svg"><style>#my-svg{font-family:"trebuchet ms",verdana,arial,sans-serif;font-size:16px;fill:#333;}#my-svg .error-icon{fill:#552222;}#my-svg .error-text{fill:#552222;stroke:#552222;}#my-svg .edge-thickness-normal{stroke-width:1px;}#my-svg .edge-thickness-thick{stroke-width:3.5px;}#my-svg .edge-pattern-solid{stroke-dasharray:0;}#my-svg .edge-thickness-invisible{stroke-width:0;fill:none;}#my-svg .edge-pattern-dashed{stroke-dasharray:3;}#my-svg .edge-pattern-dotted{stroke-dasharray:2;}#my-svg .marker{fill:#333333;stroke:#333333;}#my-svg .marker.cross{stroke:#333333;}#my-svg svg{font-family:"trebuchet ms",verdana,arial,sans-serif;font-size:16px;}#my-svg p{margin:0;}#my-svg .entityBox{fill:#ECECFF;stroke:#9370DB;}#my-svg .attributeBoxOdd{fill:#ffffff;stroke:#9370DB;}#my-svg .attributeBoxEven{fill:#f2f2f2;stroke:#9370DB;}#my-svg .relationshipLabelBox{fill:hsl(80, 100%, 96.2745098039%);opacity:0.7;background-color:hsl(80, 100%, 96.2745098039%);}#my-svg .relationshipLabelBox rect{opacity:0.5;}#my-svg .relationshipLine{stroke:#333333;}#my-svg .entityTitleText{text-anchor:middle;font-size:18px;fill:#333;}#my-svg #MD_PARENT_START{fill:#f5f5f5!important;stroke:#333333!important;stroke-width:1;}#my-svg #MD_PARENT_END{fill:#f5f5f5!important;stroke:#333333!important;stroke-width:1;}#my-svg :root{--mermaid-font-family:"trebuchet ms",verdana,arial,sans-serif;}</style><g/><defs><marker orient="auto" markerHeight="240" markerWidth="190" refY="7" refX="0" id="MD_PARENT_START"><path d="M 18,7 L9,13 L1,7 L9,1 Z"/></marker></defs><defs><marker orient="auto" markerHeight="28" markerWidth="20" refY="7" refX="19" id="MD_PARENT_END"><path d="M 18,7 L9,13 L1,7 L9,1 Z"/></marker></defs><defs><marker orient="auto" markerHeight="18" markerWidth="18" refY="9" refX="0" id="ONLY_ONE_START"><path d="M9,0 L9,18 M15,0 L15,18" fill="none" stroke="gray"/></marker></defs><defs><marker orient="auto" markerHeight="18" markerWidth="18" refY="9" refX="18" id="ONLY_ONE_END"><path d="M3,0 L3,18 M9,0 L9,18" fill="none" stroke="gray"/></marker></defs><defs><marker orient="auto" markerHeight="18" markerWidth="30" refY="9" refX="0" id="ZERO_OR_ONE_START"><circle r="6" cy="9" cx="21" fill="white" stroke="gray"/><path d="M9,0 L9,18" fill="none" stroke="gray"/></marker></defs><defs><marker orient="auto" markerHeight="18" markerWidth="30" refY="9" refX="30" id="ZERO_OR_ONE_END"><circle r="6" cy="9" cx="9" fill="white" stroke="gray"/><path d="M21,0 L21,18" fill="none" stroke="gray"/></marker></defs><defs><marker orient="auto" markerHeight="36" markerWidth="45" refY="18" refX="18" id="ONE_OR_MORE_START"><path d="M0,18 Q 18,0 36,18 Q 18,36 0,18 M42,9 L42,27" fill="none" stroke="gray"/></marker></defs><defs><marker orient="auto" markerHeight="36" markerWidth="45" refY="18" refX="27" id="ONE_OR_MORE_END"><path d="M3,9 L3,27 M9,18 Q27,0 45,18 Q27,36 9,18" fill="none" stroke="gray"/></marker></defs><defs><marker orient="auto" markerHeight="36" markerWidth="57" refY="18" refX="18" id="ZERO_OR_MORE_START"><circle r="6" cy="18" cx="48" fill="white" stroke="gray"/><path d="M0,18 Q18,0 36,18 Q18,36 0,18" fill="none" stroke="gray"/></marker></defs><defs><marker orient="auto" markerHeight="36" markerWidth="57" refY="18" refX="39" id="ZERO_OR_MORE_END"><circle r="6" cy="18" cx="9" fill="white" stroke="gray"/><path d="M21,18 Q39,0 57,18 Q39,36 21,18" fill="none" stroke="gray"/></marker></defs><path style="stroke: gray; fill: none;" marker-start="url(#ONE_OR_MORE_START)" marker-end="url(#ONLY_ONE_END)" d="M414.738,70.824L357.282,83.186C299.826,95.549,184.913,120.275,127.456,140.986C70,161.697,70,178.395,70,186.743L70,195.092" class="er relationshipLine"/><path style="stroke: gray; fill: none;" marker-start="url(#ONLY_ONE_START)" marker-end="url(#ONE_OR_MORE_END)" d="M538.582,65.39L642.72,78.658C746.858,91.926,955.134,118.463,1059.272,140.065C1163.41,161.667,1163.41,178.333,1163.41,186.667L1163.41,195" class="er relationshipLine"/><path style="stroke: gray; fill: none;" marker-start="url(#ONLY_ONE_START)" marker-end="url(#ONLY_ONE_END)" d="M430.949,95L420.791,103.333C410.632,111.667,390.316,128.333,380.158,148.114C370,167.895,370,190.789,370,202.236L370,213.684" class="er relationshipLine"/><path style="stroke: gray; fill: none;" marker-start="url(#ONLY_ONE_START)" marker-end="url(#ONLY_ONE_END)" d="M522.372,95L532.53,103.333C542.688,111.667,563.004,128.333,573.162,148.114C583.32,167.895,583.32,190.789,583.32,202.236L583.32,213.684" class="er relationshipLine"/><path style="stroke: gray; fill: none;" marker-start="url(#ONE_OR_MORE_START)" marker-end="url(#ONE_OR_MORE_END)" d="M538.582,73.312L585.37,85.26C632.159,97.208,725.736,121.104,772.524,144.499C819.313,167.895,819.313,190.789,819.313,202.236L819.313,213.684" class="er relationshipLine"/><path style="stroke: gray; fill: none;" marker-start="url(#ONLY_ONE_START)" marker-end="url(#ONE_OR_MORE_END)" d="M414.738,78.61L382.282,89.675C349.826,100.74,284.913,122.87,252.456,151.632C220,180.395,220,215.789,220,251.184C220,286.578,220,321.973,261.609,354.414C303.219,386.856,386.438,416.345,428.047,431.089L469.656,445.833" class="er relationshipLine"/><path style="stroke: gray; fill: none;" marker-start="url(#ZERO_OR_ONE_START)" marker-end="url(#ONE_OR_MORE_END)" d="M819.313,288.684L819.313,300.131C819.313,311.578,819.313,334.473,777.703,360.664C736.094,386.856,652.875,416.345,611.266,431.089L569.656,445.833" class="er relationshipLine"/><path style="stroke: gray; fill: none;" marker-start="url(#ONE_OR_MORE_START)" marker-end="url(#ONLY_ONE_END)" d="M1104.519,307.367L1095.784,315.701C1087.049,324.034,1069.579,340.701,1060.844,357.367C1052.109,374.034,1052.109,390.701,1052.109,399.034L1052.109,407.367" class="er relationshipLine"/><path style="stroke: gray; fill: none;" marker-start="url(#ONLY_ONE_START)" marker-end="url(#ONLY_ONE_END)" d="M1222.301,307.367L1231.036,315.701C1239.771,324.034,1257.241,340.701,1265.976,360.481C1274.711,380.262,1274.711,403.156,1274.711,414.604L1274.711,426.051" class="er relationshipLine"/><path style="stroke: gray; fill: none;" marker-start="url(#ONE_OR_MORE_START)" marker-end="url(#ONE_OR_MORE_END)" d="M1052.109,519.734L1052.109,528.068C1052.109,536.401,1052.109,553.068,1052.109,569.734C1052.109,586.401,1052.109,603.068,1052.109,611.401L1052.109,619.734" class="er relationshipLine"/><path style="stroke: gray; fill: none;" marker-start="url(#ONE_OR_MORE_START)" marker-end="url(#ONLY_ONE_END)" d="M1108.492,638.617L1120.159,635.47C1131.826,632.323,1155.159,626.029,1169.742,622.881C1184.326,619.734,1190.159,619.734,1195.992,625.416C1201.826,631.098,1207.659,642.462,1207.659,653.826C1207.659,665.19,1201.826,676.554,1195.992,682.236C1190.159,687.918,1184.326,687.918,1169.742,684.771C1155.159,681.624,1131.826,675.33,1120.159,672.183L1108.492,669.035" class="er relationshipLine"/><g transform="translate(414.73828125,20 )" id="entity-ReportingContext-789f9ee1-5351-5823-a7b2-ab085478d16c"><rect height="75" width="123.84375" y="0" x="0" class="er entityBox"/><text style="dominant-baseline: middle; text-anchor: middle; font-size: 12px;" transform="translate(61.921875,37.5)" y="0" x="0" id="text-entity-ReportingContext-789f9ee1-5351-5823-a7b2-ab085478d16c" class="er entityLabel">ReportingContext</text></g><g transform="translate(20,195.091796875 )" id="entity-Patient-fd7c0e36-73bd-52fe-9d20-17fb0d0ffb71"><rect height="112.18359565734863" width="100" y="0" x="0" class="er entityBox"/><text style="dominant-baseline: middle; text-anchor: middle; font-size: 12px;" transform="translate(50,12)" y="0" x="0" id="text-entity-Patient-fd7c0e36-73bd-52fe-9d20-17fb0d0ffb71" class="er entityLabel">Patient</text><rect height="22.091797828674316" width="36.09375" y="24" x="0" class="er attributeBoxOdd"/><text style="dominant-baseline: middle; font-size: 10.2px;" transform="translate(5,35.04589891433716)" y="0" x="0" id="text-entity-Patient-fd7c0e36-73bd-52fe-9d20-17fb0d0ffb71-attr-1-type" class="er entityLabel">string</text><rect height="22.091797828674316" width="63.90625" y="24" x="36.09375" class="er attributeBoxOdd"/><text style="dominant-baseline: middle; font-size: 10.2px;" transform="translate(41.09375,35.04589891433716)" y="0" x="0" id="text-entity-Patient-fd7c0e36-73bd-52fe-9d20-17fb0d0ffb71-attr-1-name" class="er entityLabel">ID</text><rect height="22.091797828674316" width="36.09375" y="46.091797828674316" x="0" class="er attributeBoxEven"/><text style="dominant-baseline: middle; font-size: 10.2px;" transform="translate(5,57.137696743011475)" y="0" x="0" id="text-entity-Patient-fd7c0e36-73bd-52fe-9d20-17fb0d0ffb71-attr-2-type" class="er entityLabel">string</text><rect height="22.091797828674316" width="63.90625" y="46.091797828674316" x="36.09375" class="er attributeBoxEven"/><text style="dominant-baseline: middle; font-size: 10.2px;" transform="translate(41.09375,57.137696743011475)" y="0" x="0" id="text-entity-Patient-fd7c0e36-73bd-52fe-9d20-17fb0d0ffb71-attr-2-name" class="er entityLabel">MRN</text><rect height="22" width="36.09375" y="68.18359565734863" x="0" class="er attributeBoxOdd"/><text style="dominant-baseline: middle; font-size: 10.2px;" transform="translate(5,79.18359565734863)" y="0" x="0" id="text-entity-Patient-fd7c0e36-73bd-52fe-9d20-17fb0d0ffb71-attr-3-type" class="er entityLabel">enum</text><rect height="22" width="63.90625" y="68.18359565734863" x="36.09375" class="er attributeBoxOdd"/><text style="dominant-baseline: middle; font-size: 10.2px;" transform="translate(41.09375,79.18359565734863)" y="0" x="0" id="text-entity-Patient-fd7c0e36-73bd-52fe-9d20-17fb0d0ffb71-attr-3-name" class="er entityLabel">sex</text><rect height="22" width="36.09375" y="90.18359565734863" x="0" class="er attributeBoxEven"/><text style="dominant-baseline: middle; font-size: 10.2px;" transform="translate(5,101.18359565734863)" y="0" x="0" id="text-entity-Patient-fd7c0e36-73bd-52fe-9d20-17fb0d0ffb71-attr-4-type" class="er entityLabel">date</text><rect height="22" width="63.90625" y="90.18359565734863" x="36.09375" class="er attributeBoxEven"/><text style="dominant-baseline: middle; font-size: 10.2px;" transform="translate(41.09375,101.18359565734863)" y="0" x="0" id="text-entity-Patient-fd7c0e36-73bd-52fe-9d20-17fb0d0ffb71-attr-4-name" class="er entityLabel">dateOfBirth</text></g><g transform="translate(1093.08984375,195 )" id="entity-ImagingStudy-185d66a9-0357-505a-8ac9-9556f3776fd8"><rect height="112.36719036102295" width="140.640625" y="0" x="0" class="er entityBox"/><text style="dominant-baseline: middle; text-anchor: middle; font-size: 12px;" transform="translate(70.3203125,12)" y="0" x="0" id="text-entity-ImagingStudy-185d66a9-0357-505a-8ac9-9556f3776fd8" class="er entityLabel">ImagingStudy</text><rect height="22.091797828674316" width="51.640625" y="24" x="0" class="er attributeBoxOdd"/><text style="dominant-baseline: middle; font-size: 10.2px;" transform="translate(5,35.04589891433716)" y="0" x="0" id="text-entity-ImagingStudy-185d66a9-0357-505a-8ac9-9556f3776fd8-attr-1-type" class="er entityLabel">string</text><rect height="22.091797828674316" width="89" y="24" x="51.640625" class="er attributeBoxOdd"/><text style="dominant-baseline: middle; font-size: 10.2px;" transform="translate(56.640625,35.04589891433716)" y="0" x="0" id="text-entity-ImagingStudy-185d66a9-0357-505a-8ac9-9556f3776fd8-attr-1-name" class="er entityLabel">ID</text><rect height="22.091797828674316" width="51.640625" y="46.091797828674316" x="0" class="er attributeBoxEven"/><text style="dominant-baseline: middle; font-size: 10.2px;" transform="translate(5,57.137696743011475)" y="0" x="0" id="text-entity-ImagingStudy-185d66a9-0357-505a-8ac9-9556f3776fd8-attr-2-type" class="er entityLabel">string</text><rect height="22.091797828674316" width="89" y="46.091797828674316" x="51.640625" class="er attributeBoxEven"/><text style="dominant-baseline: middle; font-size: 10.2px;" transform="translate(56.640625,57.137696743011475)" y="0" x="0" id="text-entity-ImagingStudy-185d66a9-0357-505a-8ac9-9556f3776fd8-attr-2-name" class="er entityLabel">accessionNumber</text><rect height="22.091797828674316" width="51.640625" y="68.18359565734863" x="0" class="er attributeBoxOdd"/><text style="dominant-baseline: middle; font-size: 10.2px;" transform="translate(5,79.22949457168579)" y="0" x="0" id="text-entity-ImagingStudy-185d66a9-0357-505a-8ac9-9556f3776fd8-attr-3-type" class="er entityLabel">datetime</text><rect height="22.091797828674316" width="89" y="68.18359565734863" x="51.640625" class="er attributeBoxOdd"/><text style="dominant-baseline: middle; font-size: 10.2px;" transform="translate(56.640625,79.22949457168579)" y="0" x="0" id="text-entity-ImagingStudy-185d66a9-0357-505a-8ac9-9556f3776fd8-attr-3-name" class="er entityLabel">timestamp</text><rect height="22.091796875" width="51.640625" y="90.27539348602295" x="0" class="er attributeBoxEven"/><text style="dominant-baseline: middle; font-size: 10.2px;" transform="translate(5,101.32129192352295)" y="0" x="0" id="text-entity-ImagingStudy-185d66a9-0357-505a-8ac9-9556f3776fd8-attr-4-type" class="er entityLabel">enum</text><rect height="22.091796875" width="89" y="90.27539348602295" x="51.640625" class="er attributeBoxEven"/><text style="dominant-baseline: middle; font-size: 10.2px;" transform="translate(56.640625,101.32129192352295)" y="0" x="0" id="text-entity-ImagingStudy-185d66a9-0357-505a-8ac9-9556f3776fd8-attr-4-name" class="er entityLabel">laterality</text></g><g transform="translate(320,213.68359375 )" id="entity-ReportText-eb57f4a1-3c5d-5f6d-af64-877f0261df78"><rect height="75" width="100" y="0" x="0" class="er entityBox"/><text style="dominant-baseline: middle; text-anchor: middle; font-size: 12px;" transform="translate(50,37.5)" y="0" x="0" id="text-entity-ReportText-eb57f4a1-3c5d-5f6d-af64-877f0261df78" class="er entityLabel">ReportText</text></g><g transform="translate(520,213.68359375 )" id="entity-PriorImagingStudy-fce9d28e-6469-5b8c-9d05-d3caa5d8b581"><rect height="75" width="126.640625" y="0" x="0" class="er entityBox"/><text style="dominant-baseline: middle; text-anchor: middle; font-size: 12px;" transform="translate(63.3203125,37.5)" y="0" x="0" id="text-entity-PriorImagingStudy-fce9d28e-6469-5b8c-9d05-d3caa5d8b581" class="er entityLabel">PriorImagingStudy</text></g><g transform="translate(746.640625,213.68359375 )" id="entity-ObservationSequence-0db70013-c926-58ba-944a-9a5c0661e1b1"><rect height="75" width="145.34375" y="0" x="0" class="er entityBox"/><text style="dominant-baseline: middle; text-anchor: middle; font-size: 12px;" transform="translate(72.671875,37.5)" y="0" x="0" id="text-entity-ObservationSequence-0db70013-c926-58ba-944a-9a5c0661e1b1" class="er entityLabel">ObservationSequence</text></g><g transform="translate(469.65625,426.05078125 )" id="entity-Observation-e952f20c-7a72-5c21-9adf-e7a51e8e6e38"><rect height="75" width="100" y="0" x="0" class="er entityBox"/><text style="dominant-baseline: middle; text-anchor: middle; font-size: 12px;" transform="translate(50,37.5)" y="0" x="0" id="text-entity-Observation-e952f20c-7a72-5c21-9adf-e7a51e8e6e38" class="er entityLabel">Observation</text></g><g transform="translate(979.5078125,407.3671875 )" id="entity-ImagingStudyType-c920cf6a-792d-57d6-80bd-b8de2d57d38a"><rect height="112.36718940734863" width="145.203125" y="0" x="0" class="er entityBox"/><text style="dominant-baseline: middle; text-anchor: middle; font-size: 12px;" transform="translate(72.6015625,12)" y="0" x="0" id="text-entity-ImagingStudyType-c920cf6a-792d-57d6-80bd-b8de2d57d38a" class="er entityLabel">ImagingStudyType</text><rect height="22.091797828674316" width="35.75" y="24" x="0" class="er attributeBoxOdd"/><text style="dominant-baseline: middle; font-size: 10.2px;" transform="translate(5,35.04589891433716)" y="0" x="0" id="text-entity-ImagingStudyType-c920cf6a-792d-57d6-80bd-b8de2d57d38a-attr-1-type" class="er entityLabel">string</text><rect height="22.091797828674316" width="109.453125" y="24" x="35.75" class="er attributeBoxOdd"/><text style="dominant-baseline: middle; font-size: 10.2px;" transform="translate(40.75,35.04589891433716)" y="0" x="0" id="text-entity-ImagingStudyType-c920cf6a-792d-57d6-80bd-b8de2d57d38a-attr-1-name" class="er entityLabel">loincId</text><rect height="22.091797828674316" width="35.75" y="46.091797828674316" x="0" class="er attributeBoxEven"/><text style="dominant-baseline: middle; font-size: 10.2px;" transform="translate(5,57.137696743011475)" y="0" x="0" id="text-entity-ImagingStudyType-c920cf6a-792d-57d6-80bd-b8de2d57d38a-attr-2-type" class="er entityLabel">string</text><rect height="22.091797828674316" width="109.453125" y="46.091797828674316" x="35.75" class="er attributeBoxEven"/><text style="dominant-baseline: middle; font-size: 10.2px;" transform="translate(40.75,57.137696743011475)" y="0" x="0" id="text-entity-ImagingStudyType-c920cf6a-792d-57d6-80bd-b8de2d57d38a-attr-2-name" class="er entityLabel">commonName</text><rect height="22.091796875" width="35.75" y="68.18359565734863" x="0" class="er attributeBoxOdd"/><text style="dominant-baseline: middle; font-size: 10.2px;" transform="translate(5,79.22949409484863)" y="0" x="0" id="text-entity-ImagingStudyType-c920cf6a-792d-57d6-80bd-b8de2d57d38a-attr-3-type" class="er entityLabel">enum</text><rect height="22.091796875" width="109.453125" y="68.18359565734863" x="35.75" class="er attributeBoxOdd"/><text style="dominant-baseline: middle; font-size: 10.2px;" transform="translate(40.75,79.22949409484863)" y="0" x="0" id="text-entity-ImagingStudyType-c920cf6a-792d-57d6-80bd-b8de2d57d38a-attr-3-name" class="er entityLabel">Modality</text><rect height="22.091796875" width="35.75" y="90.27539253234863" x="0" class="er attributeBoxEven"/><text style="dominant-baseline: middle; font-size: 10.2px;" transform="translate(5,101.32129096984863)" y="0" x="0" id="text-entity-ImagingStudyType-c920cf6a-792d-57d6-80bd-b8de2d57d38a-attr-4-type" class="er entityLabel">bool</text><rect height="22.091796875" width="109.453125" y="90.27539253234863" x="35.75" class="er attributeBoxEven"/><text style="dominant-baseline: middle; font-size: 10.2px;" transform="translate(40.75,101.32129096984863)" y="0" x="0" id="text-entity-ImagingStudyType-c920cf6a-792d-57d6-80bd-b8de2d57d38a-attr-4-name" class="er entityLabel">isLateralityApplicable</text></g><g transform="translate(1224.7109375,426.05078125 )" id="entity-Order-3ec22774-e93b-529c-bc12-1dfdb28f8e64"><rect height="75" width="100" y="0" x="0" class="er entityBox"/><text style="dominant-baseline: middle; text-anchor: middle; font-size: 12px;" transform="translate(50,37.5)" y="0" x="0" id="text-entity-Order-3ec22774-e93b-529c-bc12-1dfdb28f8e64" class="er entityLabel">Order</text></g><g transform="translate(995.7265625,619.734375 )" id="entity-BodyPart-56b9967d-99c7-5bef-a6b6-61755fce6b12"><rect height="68.18359565734863" width="112.765625" y="0" x="0" class="er entityBox"/><text style="dominant-baseline: middle; text-anchor: middle; font-size: 12px;" transform="translate(56.3828125,12)" y="0" x="0" id="text-entity-BodyPart-56b9967d-99c7-5bef-a6b6-61755fce6b12" class="er entityLabel">BodyPart</text><rect height="22.091797828674316" width="35.75" y="24" x="0" class="er attributeBoxOdd"/><text style="dominant-baseline: middle; font-size: 10.2px;" transform="translate(5,35.04589891433716)" y="0" x="0" id="text-entity-BodyPart-56b9967d-99c7-5bef-a6b6-61755fce6b12-attr-1-type" class="er entityLabel">string</text><rect height="22.091797828674316" width="77.015625" y="24" x="35.75" class="er attributeBoxOdd"/><text style="dominant-baseline: middle; font-size: 10.2px;" transform="translate(40.75,35.04589891433716)" y="0" x="0" id="text-entity-BodyPart-56b9967d-99c7-5bef-a6b6-61755fce6b12-attr-1-name" class="er entityLabel">radlexId</text><rect height="22.091797828674316" width="35.75" y="46.091797828674316" x="0" class="er attributeBoxEven"/><text style="dominant-baseline: middle; font-size: 10.2px;" transform="translate(5,57.137696743011475)" y="0" x="0" id="text-entity-BodyPart-56b9967d-99c7-5bef-a6b6-61755fce6b12-attr-2-type" class="er entityLabel">string</text><rect height="22.091797828674316" width="77.015625" y="46.091797828674316" x="35.75" class="er attributeBoxEven"/><text style="dominant-baseline: middle; font-size: 10.2px;" transform="translate(40.75,57.137696743011475)" y="0" x="0" id="text-entity-BodyPart-56b9967d-99c7-5bef-a6b6-61755fce6b12-attr-2-name" class="er entityLabel">accDescription</text></g><rect height="0" width="0" y="112.3811264038086" x="228.22402954101562" class="er relationshipLabelBox"/><text style="text-anchor: middle; dominant-baseline: middle; font-size: 12px;" y="112.3811264038086" x="228.22402954101562" id="rel1" class="er relationshipLabel"/><rect height="0" width="0" y="107.9039535522461" x="862.77294921875" class="er relationshipLabelBox"/><text style="text-anchor: middle; dominant-baseline: middle; font-size: 12px;" y="107.9039535522461" x="862.77294921875" id="rel2" class="er relationshipLabel"/><rect height="0" width="0" y="145.05404663085938" x="381.82269287109375" class="er relationshipLabelBox"/><text style="text-anchor: middle; dominant-baseline: middle; font-size: 12px;" y="145.05404663085938" x="381.82269287109375" id="rel3" class="er relationshipLabel"/><rect height="0" width="0" y="145.0543975830078" x="571.4974365234375" class="er relationshipLabelBox"/><text style="text-anchor: middle; dominant-baseline: middle; font-size: 12px;" y="145.0543975830078" x="571.4974365234375" id="rel4" class="er relationshipLabel"/><rect height="0" width="0" y="117.1267318725586" x="700.365966796875" class="er relationshipLabelBox"/><text style="text-anchor: middle; dominant-baseline: middle; font-size: 12px;" y="117.1267318725586" x="700.365966796875" id="rel5" class="er relationshipLabel"/><rect height="0" width="0" y="279.6456604003906" x="220.80665588378906" class="er relationshipLabelBox"/><text style="text-anchor: middle; dominant-baseline: middle; font-size: 12px;" y="279.6456604003906" x="220.80665588378906" id="rel6" class="er relationshipLabel"/><rect height="14" width="21.4375" y="384.0250244140625" x="705.93798828125" class="er relationshipLabelBox"/><text style="text-anchor: middle; dominant-baseline: middle; font-size: 12px;" y="391.0250244140625" x="716.65673828125" id="rel7" class="er relationshipLabel">lists</text><rect height="14" width="59.490234375" y="343.76953125" x="1034.9853515625" class="er relationshipLabelBox"/><text style="text-anchor: middle; dominant-baseline: middle; font-size: 12px;" y="350.76953125" x="1064.73046875" id="rel8" class="er relationshipLabel">instance of</text><rect height="14" width="62.109375" y="352.31353759765625" x="1234.3934326171875" class="er relationshipLabelBox"/><text style="text-anchor: middle; dominant-baseline: middle; font-size: 12px;" y="359.31353759765625" x="1265.4481201171875" id="rel9" class="er relationshipLabel">responds to</text><rect height="14" width="34.328125" y="562.7340087890625" x="1034.9449462890625" class="er relationshipLabelBox"/><text style="text-anchor: middle; dominant-baseline: middle; font-size: 12px;" y="569.7340087890625" x="1052.1090087890625" id="rel10" class="er relationshipLabel">covers</text><rect height="14" width="44.84375" y="646.8260498046875" x="1185.2371826171875" class="er relationshipLabelBox"/><text style="text-anchor: middle; dominant-baseline: middle; font-size: 12px;" y="653.8260498046875" x="1207.6590576171875" id="rel11" class="er relationshipLabel">contains</text></svg>