<svg aria-roledescription="er" role="graphics-document document" viewBox="0 0 666.34375 854.55078125" style="max-width: 666.344px; background-color: white;" xmlns:xlink="http://www.w3.org/1999/xlink" xmlns="http://www.w3.org/2000/svg" width="100%" id="my-svg"><style>#my-svg{font-family:"trebuchet ms",verdana,arial,sans-serif;font-size:16px;fill:#333;}#my-svg .error-icon{fill:#552222;}#my-svg .error-text{fill:#552222;stroke:#552222;}#my-svg .edge-thickness-normal{stroke-width:1px;}#my-svg .edge-thickness-thick{stroke-width:3.5px;}#my-svg .edge-pattern-solid{stroke-dasharray:0;}#my-svg .edge-thickness-invisible{stroke-width:0;fill:none;}#my-svg .edge-pattern-dashed{stroke-dasharray:3;}#my-svg .edge-pattern-dotted{stroke-dasharray:2;}#my-svg .marker{fill:#333333;stroke:#333333;}#my-svg .marker.cross{stroke:#333333;}#my-svg svg{font-family:"trebuchet ms",verdana,arial,sans-serif;font-size:16px;}#my-svg p{margin:0;}#my-svg .entityBox{fill:#ECECFF;stroke:#9370DB;}#my-svg .attributeBoxOdd{fill:#ffffff;stroke:#9370DB;}#my-svg .attributeBoxEven{fill:#f2f2f2;stroke:#9370DB;}#my-svg .relationshipLabelBox{fill:hsl(80, 100%, 96.2745098039%);opacity:0.7;background-color:hsl(80, 100%, 96.2745098039%);}#my-svg .relationshipLabelBox rect{opacity:0.5;}#my-svg .relationshipLine{stroke:#333333;}#my-svg .entityTitleText{text-anchor:middle;font-size:18px;fill:#333;}#my-svg #MD_PARENT_START{fill:#f5f5f5!important;stroke:#333333!important;stroke-width:1;}#my-svg #MD_PARENT_END{fill:#f5f5f5!important;stroke:#333333!important;stroke-width:1;}#my-svg :root{--mermaid-font-family:"trebuchet ms",verdana,arial,sans-serif;}</style><g/><defs><marker orient="auto" markerHeight="240" markerWidth="190" refY="7" refX="0" id="MD_PARENT_START"><path d="M 18,7 L9,13 L1,7 L9,1 Z"/></marker></defs><defs><marker orient="auto" markerHeight="28" markerWidth="20" refY="7" refX="19" id="MD_PARENT_END"><path d="M 18,7 L9,13 L1,7 L9,1 Z"/></marker></defs><defs><marker orient="auto" markerHeight="18" markerWidth="18" refY="9" refX="0" id="ONLY_ONE_START"><path d="M9,0 L9,18 M15,0 L15,18" fill="none" stroke="gray"/></marker></defs><defs><marker orient="auto" markerHeight="18" markerWidth="18" refY="9" refX="18" id="ONLY_ONE_END"><path d="M3,0 L3,18 M9,0 L9,18" fill="none" stroke="gray"/></marker></defs><defs><marker orient="auto" markerHeight="18" markerWidth="30" refY="9" refX="0" id="ZERO_OR_ONE_START"><circle r="6" cy="9" cx="21" fill="white" stroke="gray"/><path d="M9,0 L9,18" fill="none" stroke="gray"/></marker></defs><defs><marker orient="auto" markerHeight="18" markerWidth="30" refY="9" refX="30" id="ZERO_OR_ONE_END"><circle r="6" cy="9" cx="9" fill="white" stroke="gray"/><path d="M21,0 L21,18" fill="none" stroke="gray"/></marker></defs><defs><marker orient="auto" markerHeight="36" markerWidth="45" refY="18" refX="18" id="ONE_OR_MORE_START"><path d="M0,18 Q 18,0 36,18 Q 18,36 0,18 M42,9 L42,27" fill="none" stroke="gray"/></marker></defs><defs><marker orient="auto" markerHeight="36" markerWidth="45" refY="18" refX="27" id="ONE_OR_MORE_END"><path d="M3,9 L3,27 M9,18 Q27,0 45,18 Q27,36 9,18" fill="none" stroke="gray"/></marker></defs><defs><marker orient="auto" markerHeight="36" markerWidth="57" refY="18" refX="18" id="ZERO_OR_MORE_START"><circle r="6" cy="18" cx="48" fill="white" stroke="gray"/><path d="M0,18 Q18,0 36,18 Q18,36 0,18" fill="none" stroke="gray"/></marker></defs><defs><marker orient="auto" markerHeight="36" markerWidth="57" refY="18" refX="39" id="ZERO_OR_MORE_END"><circle r="6" cy="18" cx="9" fill="white" stroke="gray"/><path d="M21,18 Q39,0 57,18 Q39,36 21,18" fill="none" stroke="gray"/></marker></defs><path style="stroke: gray; fill: none;" marker-start="url(#ZERO_OR_MORE_START)" marker-end="url(#ONLY_ONE_END)" d="M570.836,611.459L570.836,621.626C570.836,631.792,570.836,652.126,570.836,674.292C570.836,696.459,570.836,720.459,570.836,732.459L570.836,744.459" class="er relationshipLine"/><path style="stroke: gray; fill: none;" marker-start="url(#ONLY_ONE_START)" marker-end="url(#ONE_OR_MORE_END)" d="M273.229,322.138L262.117,330.479C251.005,338.82,228.782,355.502,217.67,372.176C206.559,388.85,206.559,405.517,206.559,413.85L206.559,422.184" class="er relationshipLine"/><path style="stroke: gray; fill: none;" marker-start="url(#ZERO_OR_MORE_START)" marker-end="url(#ZERO_OR_ONE_END)" d="M395.363,301.956L424.609,313.66C453.854,325.365,512.345,348.774,541.59,370.646C570.836,392.517,570.836,412.85,570.836,423.017L570.836,433.184" class="er relationshipLine"/><path style="stroke: gray; fill: none;" marker-start="url(#ONLY_ONE_START)" marker-end="url(#ZERO_OR_MORE_END)" d="M279.502,132L288.458,140.333C297.414,148.667,315.326,165.333,324.282,182.008C333.238,198.682,333.238,215.364,333.238,223.705L333.238,232.046" class="er relationshipLine"/><path style="stroke: gray; fill: none;" marker-start="url(#ONLY_ONE_START)" marker-end="url(#ZERO_OR_MORE_END)" d="M159.131,132L150.175,140.333C141.219,148.667,123.307,165.333,114.351,182C105.395,198.667,105.395,215.333,105.395,223.667L105.395,232" class="er relationshipLine"/><path style="stroke: gray; fill: none;" marker-start="url(#ZERO_OR_MORE_START)" marker-end="url(#ONLY_ONE_END)" d="M128.707,620.812L121.903,629.42C115.099,638.028,101.491,655.243,94.687,672.184C87.883,689.126,87.883,705.792,87.883,714.126L87.883,722.459" class="er relationshipLine"/><path style="stroke: gray; fill: none;" marker-start="url(#ZERO_OR_MORE_START)" marker-end="url(#ONLY_ONE_END)" d="M284.41,620.812L291.214,629.42C298.018,638.028,311.626,655.243,318.43,675.859C325.234,696.474,325.234,720.49,325.234,732.497L325.234,744.505" class="er relationshipLine"/><g transform="translate(502.4609375,744.458984375 )" id="entity-Tipodoc-d77ae02e-1ef4-59e6-8667-0ea1d2688959"><rect height="68.091796875" width="136.75" y="0" x="0" class="er entityBox"/><text style="dominant-baseline: middle; text-anchor: middle; font-size: 12px;" transform="translate(68.375,12)" y="0" x="0" id="text-entity-Tipodoc-d77ae02e-1ef4-59e6-8667-0ea1d2688959" class="er entityLabel">Tipo_doc</text><rect height="22.091796875" width="63.546875" y="24" x="0" class="er attributeBoxOdd"/><text style="dominant-baseline: middle; font-size: 10.2px;" transform="translate(5,35.0458984375)" y="0" x="0" id="text-entity-Tipodoc-d77ae02e-1ef4-59e6-8667-0ea1d2688959-attr-1-type" class="er entityLabel">Id_tipo_doc</text><rect height="22.091796875" width="51.640625" y="24" x="63.546875" class="er attributeBoxOdd"/><text style="dominant-baseline: middle; font-size: 10.2px;" transform="translate(68.546875,35.0458984375)" y="0" x="0" id="text-entity-Tipodoc-d77ae02e-1ef4-59e6-8667-0ea1d2688959-attr-1-name" class="er entityLabel">INT</text><rect height="22.091796875" width="21.5625" y="24" x="115.1875" class="er attributeBoxOdd"/><text style="dominant-baseline: middle; font-size: 10.2px;" transform="translate(120.1875,35.0458984375)" y="0" x="0" id="text-entity-Tipodoc-d77ae02e-1ef4-59e6-8667-0ea1d2688959-attr-1-key" class="er entityLabel">PK</text><rect height="22" width="63.546875" y="46.091796875" x="0" class="er attributeBoxEven"/><text style="dominant-baseline: middle; font-size: 10.2px;" transform="translate(5,57.091796875)" y="0" x="0" id="text-entity-Tipodoc-d77ae02e-1ef4-59e6-8667-0ea1d2688959-attr-2-type" class="er entityLabel">Nombre</text><rect height="22" width="51.640625" y="46.091796875" x="63.546875" class="er attributeBoxEven"/><text style="dominant-baseline: middle; font-size: 10.2px;" transform="translate(68.546875,57.091796875)" y="0" x="0" id="text-entity-Tipodoc-d77ae02e-1ef4-59e6-8667-0ea1d2688959-attr-2-name" class="er entityLabel">VARCHAR</text><rect height="22" width="21.5625" y="46.091796875" x="115.1875" class="er attributeBoxEven"/><text style="dominant-baseline: middle; font-size: 10.2px;" transform="translate(120.1875,57.091796875)" y="0" x="0" id="text-entity-Tipodoc-d77ae02e-1ef4-59e6-8667-0ea1d2688959-attr-2-key" class="er entityLabel"/></g><g transform="translate(20,722.458984375 )" id="entity-Estado-90a1a059-f29a-5e46-a135-01807afc68b2"><rect height="112.09179782867432" width="135.765625" y="0" x="0" class="er entityBox"/><text style="dominant-baseline: middle; text-anchor: middle; font-size: 12px;" transform="translate(67.8828125,12)" y="0" x="0" id="text-entity-Estado-90a1a059-f29a-5e46-a135-01807afc68b2" class="er entityLabel">Estado</text><rect height="22" width="62.5625" y="24" x="0" class="er attributeBoxOdd"/><text style="dominant-baseline: middle; font-size: 10.2px;" transform="translate(5,35)" y="0" x="0" id="text-entity-Estado-90a1a059-f29a-5e46-a135-01807afc68b2-attr-1-type" class="er entityLabel">Id_estado</text><rect height="22" width="51.640625" y="24" x="62.5625" class="er attributeBoxOdd"/><text style="dominant-baseline: middle; font-size: 10.2px;" transform="translate(67.5625,35)" y="0" x="0" id="text-entity-Estado-90a1a059-f29a-5e46-a135-01807afc68b2-attr-1-name" class="er entityLabel">INT</text><rect height="22" width="21.5625" y="24" x="114.203125" class="er attributeBoxOdd"/><text style="dominant-baseline: middle; font-size: 10.2px;" transform="translate(119.203125,35)" y="0" x="0" id="text-entity-Estado-90a1a059-f29a-5e46-a135-01807afc68b2-attr-1-key" class="er entityLabel">PK</text><rect height="22" width="62.5625" y="46" x="0" class="er attributeBoxEven"/><text style="dominant-baseline: middle; font-size: 10.2px;" transform="translate(5,57)" y="0" x="0" id="text-entity-Estado-90a1a059-f29a-5e46-a135-01807afc68b2-attr-2-type" class="er entityLabel">Nombre</text><rect height="22" width="51.640625" y="46" x="62.5625" class="er attributeBoxEven"/><text style="dominant-baseline: middle; font-size: 10.2px;" transform="translate(67.5625,57)" y="0" x="0" id="text-entity-Estado-90a1a059-f29a-5e46-a135-01807afc68b2-attr-2-name" class="er entityLabel">VARCHAR</text><rect height="22" width="21.5625" y="46" x="114.203125" class="er attributeBoxEven"/><text style="dominant-baseline: middle; font-size: 10.2px;" transform="translate(119.203125,57)" y="0" x="0" id="text-entity-Estado-90a1a059-f29a-5e46-a135-01807afc68b2-attr-2-key" class="er entityLabel"/><rect height="22.091797828674316" width="62.5625" y="68" x="0" class="er attributeBoxOdd"/><text style="dominant-baseline: middle; font-size: 10.2px;" transform="translate(5,79.04589891433716)" y="0" x="0" id="text-entity-Estado-90a1a059-f29a-5e46-a135-01807afc68b2-attr-3-type" class="er entityLabel">Descripcion</text><rect height="22.091797828674316" width="51.640625" y="68" x="62.5625" class="er attributeBoxOdd"/><text style="dominant-baseline: middle; font-size: 10.2px;" transform="translate(67.5625,79.04589891433716)" y="0" x="0" id="text-entity-Estado-90a1a059-f29a-5e46-a135-01807afc68b2-attr-3-name" class="er entityLabel">TEXT</text><rect height="22.091797828674316" width="21.5625" y="68" x="114.203125" class="er attributeBoxOdd"/><text style="dominant-baseline: middle; font-size: 10.2px;" transform="translate(119.203125,79.04589891433716)" y="0" x="0" id="text-entity-Estado-90a1a059-f29a-5e46-a135-01807afc68b2-attr-3-key" class="er entityLabel"/><rect height="22" width="62.5625" y="90.09179782867432" x="0" class="er attributeBoxEven"/><text style="dominant-baseline: middle; font-size: 10.2px;" transform="translate(5,101.09179782867432)" y="0" x="0" id="text-entity-Estado-90a1a059-f29a-5e46-a135-01807afc68b2-attr-4-type" class="er entityLabel">Fecha</text><rect height="22" width="51.640625" y="90.09179782867432" x="62.5625" class="er attributeBoxEven"/><text style="dominant-baseline: middle; font-size: 10.2px;" transform="translate(67.5625,101.09179782867432)" y="0" x="0" id="text-entity-Estado-90a1a059-f29a-5e46-a135-01807afc68b2-attr-4-name" class="er entityLabel">DATE</text><rect height="22" width="21.5625" y="90.09179782867432" x="114.203125" class="er attributeBoxEven"/><text style="dominant-baseline: middle; font-size: 10.2px;" transform="translate(119.203125,101.09179782867432)" y="0" x="0" id="text-entity-Estado-90a1a059-f29a-5e46-a135-01807afc68b2-attr-4-key" class="er entityLabel"/></g><g transform="translate(255.765625,744.5048828125 )" id="entity-Aeronave-e1013c6b-4489-5bd3-8bdc-77740ff8430e"><rect height="68" width="138.9375" y="0" x="0" class="er entityBox"/><text style="dominant-baseline: middle; text-anchor: middle; font-size: 12px;" transform="translate(69.46875,12)" y="0" x="0" id="text-entity-Aeronave-e1013c6b-4489-5bd3-8bdc-77740ff8430e" class="er entityLabel">Aeronave</text><rect height="22" width="65.734375" y="24" x="0" class="er attributeBoxOdd"/><text style="dominant-baseline: middle; font-size: 10.2px;" transform="translate(5,35)" y="0" x="0" id="text-entity-Aeronave-e1013c6b-4489-5bd3-8bdc-77740ff8430e-attr-1-type" class="er entityLabel">Id_aeronave</text><rect height="22" width="51.640625" y="24" x="65.734375" class="er attributeBoxOdd"/><text style="dominant-baseline: middle; font-size: 10.2px;" transform="translate(70.734375,35)" y="0" x="0" id="text-entity-Aeronave-e1013c6b-4489-5bd3-8bdc-77740ff8430e-attr-1-name" class="er entityLabel">INT</text><rect height="22" width="21.5625" y="24" x="117.375" class="er attributeBoxOdd"/><text style="dominant-baseline: middle; font-size: 10.2px;" transform="translate(122.375,35)" y="0" x="0" id="text-entity-Aeronave-e1013c6b-4489-5bd3-8bdc-77740ff8430e-attr-1-key" class="er entityLabel">PK</text><rect height="22" width="65.734375" y="46" x="0" class="er attributeBoxEven"/><text style="dominant-baseline: middle; font-size: 10.2px;" transform="translate(5,57)" y="0" x="0" id="text-entity-Aeronave-e1013c6b-4489-5bd3-8bdc-77740ff8430e-attr-2-type" class="er entityLabel">Nombre</text><rect height="22" width="51.640625" y="46" x="65.734375" class="er attributeBoxEven"/><text style="dominant-baseline: middle; font-size: 10.2px;" transform="translate(70.734375,57)" y="0" x="0" id="text-entity-Aeronave-e1013c6b-4489-5bd3-8bdc-77740ff8430e-attr-2-name" class="er entityLabel">VARCHAR</text><rect height="22" width="21.5625" y="46" x="117.375" class="er attributeBoxEven"/><text style="dominant-baseline: middle; font-size: 10.2px;" transform="translate(122.375,57)" y="0" x="0" id="text-entity-Aeronave-e1013c6b-4489-5bd3-8bdc-77740ff8430e-attr-2-key" class="er entityLabel"/></g><g transform="translate(495.328125,433.18359375 )" id="entity-Pasajero-c346a857-96c9-51e2-942d-4fb91fced48c"><rect height="178.27539157867432" width="151.015625" y="0" x="0" class="er entityBox"/><text style="dominant-baseline: middle; text-anchor: middle; font-size: 12px;" transform="translate(75.5078125,12)" y="0" x="0" id="text-entity-Pasajero-c346a857-96c9-51e2-942d-4fb91fced48c" class="er entityLabel">Pasajero</text><rect height="22.091797828674316" width="77.8125" y="24" x="0" class="er attributeBoxOdd"/><text style="dominant-baseline: middle; font-size: 10.2px;" transform="translate(5,35.04589891433716)" y="0" x="0" id="text-entity-Pasajero-c346a857-96c9-51e2-942d-4fb91fced48c-attr-1-type" class="er entityLabel">Id_pasajero</text><rect height="22.091797828674316" width="51.640625" y="24" x="77.8125" class="er attributeBoxOdd"/><text style="dominant-baseline: middle; font-size: 10.2px;" transform="translate(82.8125,35.04589891433716)" y="0" x="0" id="text-entity-Pasajero-c346a857-96c9-51e2-942d-4fb91fced48c-attr-1-name" class="er entityLabel">INT</text><rect height="22.091797828674316" width="21.5625" y="24" x="129.453125" class="er attributeBoxOdd"/><text style="dominant-baseline: middle; font-size: 10.2px;" transform="translate(134.453125,35.04589891433716)" y="0" x="0" id="text-entity-Pasajero-c346a857-96c9-51e2-942d-4fb91fced48c-attr-1-key" class="er entityLabel">PK</text><rect height="22.091796875" width="77.8125" y="46.091797828674316" x="0" class="er attributeBoxEven"/><text style="dominant-baseline: middle; font-size: 10.2px;" transform="translate(5,57.137696266174316)" y="0" x="0" id="text-entity-Pasajero-c346a857-96c9-51e2-942d-4fb91fced48c-attr-2-type" class="er entityLabel">Id_tipo_doc_fk</text><rect height="22.091796875" width="51.640625" y="46.091797828674316" x="77.8125" class="er attributeBoxEven"/><text style="dominant-baseline: middle; font-size: 10.2px;" transform="translate(82.8125,57.137696266174316)" y="0" x="0" id="text-entity-Pasajero-c346a857-96c9-51e2-942d-4fb91fced48c-attr-2-name" class="er entityLabel">INT</text><rect height="22.091796875" width="21.5625" y="46.091797828674316" x="129.453125" class="er attributeBoxEven"/><text style="dominant-baseline: middle; font-size: 10.2px;" transform="translate(134.453125,57.137696266174316)" y="0" x="0" id="text-entity-Pasajero-c346a857-96c9-51e2-942d-4fb91fced48c-attr-2-key" class="er entityLabel">FK</text><rect height="22" width="77.8125" y="68.18359470367432" x="0" class="er attributeBoxOdd"/><text style="dominant-baseline: middle; font-size: 10.2px;" transform="translate(5,79.18359470367432)" y="0" x="0" id="text-entity-Pasajero-c346a857-96c9-51e2-942d-4fb91fced48c-attr-3-type" class="er entityLabel">Nombre</text><rect height="22" width="51.640625" y="68.18359470367432" x="77.8125" class="er attributeBoxOdd"/><text style="dominant-baseline: middle; font-size: 10.2px;" transform="translate(82.8125,79.18359470367432)" y="0" x="0" id="text-entity-Pasajero-c346a857-96c9-51e2-942d-4fb91fced48c-attr-3-name" class="er entityLabel">VARCHAR</text><rect height="22" width="21.5625" y="68.18359470367432" x="129.453125" class="er attributeBoxOdd"/><text style="dominant-baseline: middle; font-size: 10.2px;" transform="translate(134.453125,79.18359470367432)" y="0" x="0" id="text-entity-Pasajero-c346a857-96c9-51e2-942d-4fb91fced48c-attr-3-key" class="er entityLabel"/><rect height="22.091796875" width="77.8125" y="90.18359470367432" x="0" class="er attributeBoxEven"/><text style="dominant-baseline: middle; font-size: 10.2px;" transform="translate(5,101.22949314117432)" y="0" x="0" id="text-entity-Pasajero-c346a857-96c9-51e2-942d-4fb91fced48c-attr-4-type" class="er entityLabel">Apellido</text><rect height="22.091796875" width="51.640625" y="90.18359470367432" x="77.8125" class="er attributeBoxEven"/><text style="dominant-baseline: middle; font-size: 10.2px;" transform="translate(82.8125,101.22949314117432)" y="0" x="0" id="text-entity-Pasajero-c346a857-96c9-51e2-942d-4fb91fced48c-attr-4-name" class="er entityLabel">VARCHAR</text><rect height="22.091796875" width="21.5625" y="90.18359470367432" x="129.453125" class="er attributeBoxEven"/><text style="dominant-baseline: middle; font-size: 10.2px;" transform="translate(134.453125,101.22949314117432)" y="0" x="0" id="text-entity-Pasajero-c346a857-96c9-51e2-942d-4fb91fced48c-attr-4-key" class="er entityLabel"/><rect height="22" width="77.8125" y="112.27539157867432" x="0" class="er attributeBoxOdd"/><text style="dominant-baseline: middle; font-size: 10.2px;" transform="translate(5,123.27539157867432)" y="0" x="0" id="text-entity-Pasajero-c346a857-96c9-51e2-942d-4fb91fced48c-attr-5-type" class="er entityLabel">Documento</text><rect height="22" width="51.640625" y="112.27539157867432" x="77.8125" class="er attributeBoxOdd"/><text style="dominant-baseline: middle; font-size: 10.2px;" transform="translate(82.8125,123.27539157867432)" y="0" x="0" id="text-entity-Pasajero-c346a857-96c9-51e2-942d-4fb91fced48c-attr-5-name" class="er entityLabel">VARCHAR</text><rect height="22" width="21.5625" y="112.27539157867432" x="129.453125" class="er attributeBoxOdd"/><text style="dominant-baseline: middle; font-size: 10.2px;" transform="translate(134.453125,123.27539157867432)" y="0" x="0" id="text-entity-Pasajero-c346a857-96c9-51e2-942d-4fb91fced48c-attr-5-key" class="er entityLabel"/><rect height="22" width="77.8125" y="134.27539157867432" x="0" class="er attributeBoxEven"/><text style="dominant-baseline: middle; font-size: 10.2px;" transform="translate(5,145.27539157867432)" y="0" x="0" id="text-entity-Pasajero-c346a857-96c9-51e2-942d-4fb91fced48c-attr-6-type" class="er entityLabel">Telefono</text><rect height="22" width="51.640625" y="134.27539157867432" x="77.8125" class="er attributeBoxEven"/><text style="dominant-baseline: middle; font-size: 10.2px;" transform="translate(82.8125,145.27539157867432)" y="0" x="0" id="text-entity-Pasajero-c346a857-96c9-51e2-942d-4fb91fced48c-attr-6-name" class="er entityLabel">VARCHAR</text><rect height="22" width="21.5625" y="134.27539157867432" x="129.453125" class="er attributeBoxEven"/><text style="dominant-baseline: middle; font-size: 10.2px;" transform="translate(134.453125,145.27539157867432)" y="0" x="0" id="text-entity-Pasajero-c346a857-96c9-51e2-942d-4fb91fced48c-attr-6-key" class="er entityLabel"/><rect height="22" width="77.8125" y="156.27539157867432" x="0" class="er attributeBoxOdd"/><text style="dominant-baseline: middle; font-size: 10.2px;" transform="translate(5,167.27539157867432)" y="0" x="0" id="text-entity-Pasajero-c346a857-96c9-51e2-942d-4fb91fced48c-attr-7-type" class="er entityLabel">Email</text><rect height="22" width="51.640625" y="156.27539157867432" x="77.8125" class="er attributeBoxOdd"/><text style="dominant-baseline: middle; font-size: 10.2px;" transform="translate(82.8125,167.27539157867432)" y="0" x="0" id="text-entity-Pasajero-c346a857-96c9-51e2-942d-4fb91fced48c-attr-7-name" class="er entityLabel">VARCHAR</text><rect height="22" width="21.5625" y="156.27539157867432" x="129.453125" class="er attributeBoxOdd"/><text style="dominant-baseline: middle; font-size: 10.2px;" transform="translate(134.453125,167.27539157867432)" y="0" x="0" id="text-entity-Pasajero-c346a857-96c9-51e2-942d-4fb91fced48c-attr-7-key" class="er entityLabel"/></g><g transform="translate(39.67578125,232 )" id="entity-Asiento-15937693-0370-5b5f-b8db-51a51f136c09"><rect height="90.18359470367432" width="131.4375" y="0" x="0" class="er entityBox"/><text style="dominant-baseline: middle; text-anchor: middle; font-size: 12px;" transform="translate(65.71875,12)" y="0" x="0" id="text-entity-Asiento-15937693-0370-5b5f-b8db-51a51f136c09" class="er entityLabel">Asiento</text><rect height="22" width="57.1875" y="24" x="0" class="er attributeBoxOdd"/><text style="dominant-baseline: middle; font-size: 10.2px;" transform="translate(5,35)" y="0" x="0" id="text-entity-Asiento-15937693-0370-5b5f-b8db-51a51f136c09-attr-1-type" class="er entityLabel">Id_asiento</text><rect height="22" width="52.6875" y="24" x="57.1875" class="er attributeBoxOdd"/><text style="dominant-baseline: middle; font-size: 10.2px;" transform="translate(62.1875,35)" y="0" x="0" id="text-entity-Asiento-15937693-0370-5b5f-b8db-51a51f136c09-attr-1-name" class="er entityLabel">INT</text><rect height="22" width="21.5625" y="24" x="109.875" class="er attributeBoxOdd"/><text style="dominant-baseline: middle; font-size: 10.2px;" transform="translate(114.875,35)" y="0" x="0" id="text-entity-Asiento-15937693-0370-5b5f-b8db-51a51f136c09-attr-1-key" class="er entityLabel">PK</text><rect height="22.091797828674316" width="57.1875" y="46" x="0" class="er attributeBoxEven"/><text style="dominant-baseline: middle; font-size: 10.2px;" transform="translate(5,57.04589891433716)" y="0" x="0" id="text-entity-Asiento-15937693-0370-5b5f-b8db-51a51f136c09-attr-2-type" class="er entityLabel">Disponible</text><rect height="22.091797828674316" width="52.6875" y="46" x="57.1875" class="er attributeBoxEven"/><text style="dominant-baseline: middle; font-size: 10.2px;" transform="translate(62.1875,57.04589891433716)" y="0" x="0" id="text-entity-Asiento-15937693-0370-5b5f-b8db-51a51f136c09-attr-2-name" class="er entityLabel">BOOLEAN</text><rect height="22.091797828674316" width="21.5625" y="46" x="109.875" class="er attributeBoxEven"/><text style="dominant-baseline: middle; font-size: 10.2px;" transform="translate(114.875,57.04589891433716)" y="0" x="0" id="text-entity-Asiento-15937693-0370-5b5f-b8db-51a51f136c09-attr-2-key" class="er entityLabel"/><rect height="22.091796875" width="57.1875" y="68.09179782867432" x="0" class="er attributeBoxOdd"/><text style="dominant-baseline: middle; font-size: 10.2px;" transform="translate(5,79.13769626617432)" y="0" x="0" id="text-entity-Asiento-15937693-0370-5b5f-b8db-51a51f136c09-attr-3-type" class="er entityLabel">Pago</text><rect height="22.091796875" width="52.6875" y="68.09179782867432" x="57.1875" class="er attributeBoxOdd"/><text style="dominant-baseline: middle; font-size: 10.2px;" transform="translate(62.1875,79.13769626617432)" y="0" x="0" id="text-entity-Asiento-15937693-0370-5b5f-b8db-51a51f136c09-attr-3-name" class="er entityLabel">DECIMAL</text><rect height="22.091796875" width="21.5625" y="68.09179782867432" x="109.875" class="er attributeBoxOdd"/><text style="dominant-baseline: middle; font-size: 10.2px;" transform="translate(114.875,79.13769626617432)" y="0" x="0" id="text-entity-Asiento-15937693-0370-5b5f-b8db-51a51f136c09-attr-3-key" class="er entityLabel"/></g><g transform="translate(128.70703125,422.18359375 )" id="entity-Vuelo-83007018-ee9a-5943-bc72-f2aa0acf39fa"><rect height="200.275390625" width="155.703125" y="0" x="0" class="er entityBox"/><text style="dominant-baseline: middle; text-anchor: middle; font-size: 12px;" transform="translate(77.8515625,12)" y="0" x="0" id="text-entity-Vuelo-83007018-ee9a-5943-bc72-f2aa0acf39fa" class="er entityLabel">Vuelo</text><rect height="22" width="80" y="24" x="0" class="er attributeBoxOdd"/><text style="dominant-baseline: middle; font-size: 10.2px;" transform="translate(5,35)" y="0" x="0" id="text-entity-Vuelo-83007018-ee9a-5943-bc72-f2aa0acf39fa-attr-1-type" class="er entityLabel">Id_vuelo</text><rect height="22" width="54.140625" y="24" x="80" class="er attributeBoxOdd"/><text style="dominant-baseline: middle; font-size: 10.2px;" transform="translate(85,35)" y="0" x="0" id="text-entity-Vuelo-83007018-ee9a-5943-bc72-f2aa0acf39fa-attr-1-name" class="er entityLabel">INT</text><rect height="22" width="21.5625" y="24" x="134.140625" class="er attributeBoxOdd"/><text style="dominant-baseline: middle; font-size: 10.2px;" transform="translate(139.140625,35)" y="0" x="0" id="text-entity-Vuelo-83007018-ee9a-5943-bc72-f2aa0acf39fa-attr-1-key" class="er entityLabel">PK</text><rect height="22" width="80" y="46" x="0" class="er attributeBoxEven"/><text style="dominant-baseline: middle; font-size: 10.2px;" transform="translate(5,57)" y="0" x="0" id="text-entity-Vuelo-83007018-ee9a-5943-bc72-f2aa0acf39fa-attr-2-type" class="er entityLabel">Id_estado_fk</text><rect height="22" width="54.140625" y="46" x="80" class="er attributeBoxEven"/><text style="dominant-baseline: middle; font-size: 10.2px;" transform="translate(85,57)" y="0" x="0" id="text-entity-Vuelo-83007018-ee9a-5943-bc72-f2aa0acf39fa-attr-2-name" class="er entityLabel">INT</text><rect height="22" width="21.5625" y="46" x="134.140625" class="er attributeBoxEven"/><text style="dominant-baseline: middle; font-size: 10.2px;" transform="translate(139.140625,57)" y="0" x="0" id="text-entity-Vuelo-83007018-ee9a-5943-bc72-f2aa0acf39fa-attr-2-key" class="er entityLabel">FK</text><rect height="22" width="80" y="68" x="0" class="er attributeBoxOdd"/><text style="dominant-baseline: middle; font-size: 10.2px;" transform="translate(5,79)" y="0" x="0" id="text-entity-Vuelo-83007018-ee9a-5943-bc72-f2aa0acf39fa-attr-3-type" class="er entityLabel">Id_aeronave_fk</text><rect height="22" width="54.140625" y="68" x="80" class="er attributeBoxOdd"/><text style="dominant-baseline: middle; font-size: 10.2px;" transform="translate(85,79)" y="0" x="0" id="text-entity-Vuelo-83007018-ee9a-5943-bc72-f2aa0acf39fa-attr-3-name" class="er entityLabel">INT</text><rect height="22" width="21.5625" y="68" x="134.140625" class="er attributeBoxOdd"/><text style="dominant-baseline: middle; font-size: 10.2px;" transform="translate(139.140625,79)" y="0" x="0" id="text-entity-Vuelo-83007018-ee9a-5943-bc72-f2aa0acf39fa-attr-3-key" class="er entityLabel">FK</text><rect height="22" width="80" y="90" x="0" class="er attributeBoxEven"/><text style="dominant-baseline: middle; font-size: 10.2px;" transform="translate(5,101)" y="0" x="0" id="text-entity-Vuelo-83007018-ee9a-5943-bc72-f2aa0acf39fa-attr-4-type" class="er entityLabel">Puerta</text><rect height="22" width="54.140625" y="90" x="80" class="er attributeBoxEven"/><text style="dominant-baseline: middle; font-size: 10.2px;" transform="translate(85,101)" y="0" x="0" id="text-entity-Vuelo-83007018-ee9a-5943-bc72-f2aa0acf39fa-attr-4-name" class="er entityLabel">VARCHAR</text><rect height="22" width="21.5625" y="90" x="134.140625" class="er attributeBoxEven"/><text style="dominant-baseline: middle; font-size: 10.2px;" transform="translate(139.140625,101)" y="0" x="0" id="text-entity-Vuelo-83007018-ee9a-5943-bc72-f2aa0acf39fa-attr-4-key" class="er entityLabel"/><rect height="22" width="80" y="112" x="0" class="er attributeBoxOdd"/><text style="dominant-baseline: middle; font-size: 10.2px;" transform="translate(5,123)" y="0" x="0" id="text-entity-Vuelo-83007018-ee9a-5943-bc72-f2aa0acf39fa-attr-5-type" class="er entityLabel">Hora_salida</text><rect height="22" width="54.140625" y="112" x="80" class="er attributeBoxOdd"/><text style="dominant-baseline: middle; font-size: 10.2px;" transform="translate(85,123)" y="0" x="0" id="text-entity-Vuelo-83007018-ee9a-5943-bc72-f2aa0acf39fa-attr-5-name" class="er entityLabel">DATETIME</text><rect height="22" width="21.5625" y="112" x="134.140625" class="er attributeBoxOdd"/><text style="dominant-baseline: middle; font-size: 10.2px;" transform="translate(139.140625,123)" y="0" x="0" id="text-entity-Vuelo-83007018-ee9a-5943-bc72-f2aa0acf39fa-attr-5-key" class="er entityLabel"/><rect height="22.091796875" width="80" y="134" x="0" class="er attributeBoxEven"/><text style="dominant-baseline: middle; font-size: 10.2px;" transform="translate(5,145.0458984375)" y="0" x="0" id="text-entity-Vuelo-83007018-ee9a-5943-bc72-f2aa0acf39fa-attr-6-type" class="er entityLabel">Lugar_salida</text><rect height="22.091796875" width="54.140625" y="134" x="80" class="er attributeBoxEven"/><text style="dominant-baseline: middle; font-size: 10.2px;" transform="translate(85,145.0458984375)" y="0" x="0" id="text-entity-Vuelo-83007018-ee9a-5943-bc72-f2aa0acf39fa-attr-6-name" class="er entityLabel">VARCHAR</text><rect height="22.091796875" width="21.5625" y="134" x="134.140625" class="er attributeBoxEven"/><text style="dominant-baseline: middle; font-size: 10.2px;" transform="translate(139.140625,145.0458984375)" y="0" x="0" id="text-entity-Vuelo-83007018-ee9a-5943-bc72-f2aa0acf39fa-attr-6-key" class="er entityLabel"/><rect height="22.091796875" width="80" y="156.091796875" x="0" class="er attributeBoxOdd"/><text style="dominant-baseline: middle; font-size: 10.2px;" transform="translate(5,167.1376953125)" y="0" x="0" id="text-entity-Vuelo-83007018-ee9a-5943-bc72-f2aa0acf39fa-attr-7-type" class="er entityLabel">Hora_llegada</text><rect height="22.091796875" width="54.140625" y="156.091796875" x="80" class="er attributeBoxOdd"/><text style="dominant-baseline: middle; font-size: 10.2px;" transform="translate(85,167.1376953125)" y="0" x="0" id="text-entity-Vuelo-83007018-ee9a-5943-bc72-f2aa0acf39fa-attr-7-name" class="er entityLabel">DATETIME</text><rect height="22.091796875" width="21.5625" y="156.091796875" x="134.140625" class="er attributeBoxOdd"/><text style="dominant-baseline: middle; font-size: 10.2px;" transform="translate(139.140625,167.1376953125)" y="0" x="0" id="text-entity-Vuelo-83007018-ee9a-5943-bc72-f2aa0acf39fa-attr-7-key" class="er entityLabel"/><rect height="22.091796875" width="80" y="178.18359375" x="0" class="er attributeBoxEven"/><text style="dominant-baseline: middle; font-size: 10.2px;" transform="translate(5,189.2294921875)" y="0" x="0" id="text-entity-Vuelo-83007018-ee9a-5943-bc72-f2aa0acf39fa-attr-8-type" class="er entityLabel">Lugar_llegada</text><rect height="22.091796875" width="54.140625" y="178.18359375" x="80" class="er attributeBoxEven"/><text style="dominant-baseline: middle; font-size: 10.2px;" transform="translate(85,189.2294921875)" y="0" x="0" id="text-entity-Vuelo-83007018-ee9a-5943-bc72-f2aa0acf39fa-attr-8-name" class="er entityLabel">VARCHAR</text><rect height="22.091796875" width="21.5625" y="178.18359375" x="134.140625" class="er attributeBoxEven"/><text style="dominant-baseline: middle; font-size: 10.2px;" transform="translate(139.140625,189.2294921875)" y="0" x="0" id="text-entity-Vuelo-83007018-ee9a-5943-bc72-f2aa0acf39fa-attr-8-key" class="er entityLabel"/></g><g transform="translate(271.11328125,232.0458984375 )" id="entity-Reserva-5b43aa53-3654-58fd-a8e0-e144cf011211"><rect height="90.09179782867432" width="124.25" y="0" x="0" class="er entityBox"/><text style="dominant-baseline: middle; text-anchor: middle; font-size: 12px;" transform="translate(62.125,12)" y="0" x="0" id="text-entity-Reserva-5b43aa53-3654-58fd-a8e0-e144cf011211" class="er entityLabel">Reserva</text><rect height="22" width="77.40625" y="24" x="0" class="er attributeBoxOdd"/><text style="dominant-baseline: middle; font-size: 10.2px;" transform="translate(5,35)" y="0" x="0" id="text-entity-Reserva-5b43aa53-3654-58fd-a8e0-e144cf011211-attr-1-type" class="er entityLabel">Id_reserva</text><rect height="22" width="25.28125" y="24" x="77.40625" class="er attributeBoxOdd"/><text style="dominant-baseline: middle; font-size: 10.2px;" transform="translate(82.40625,35)" y="0" x="0" id="text-entity-Reserva-5b43aa53-3654-58fd-a8e0-e144cf011211-attr-1-name" class="er entityLabel">INT</text><rect height="22" width="21.5625" y="24" x="102.6875" class="er attributeBoxOdd"/><text style="dominant-baseline: middle; font-size: 10.2px;" transform="translate(107.6875,35)" y="0" x="0" id="text-entity-Reserva-5b43aa53-3654-58fd-a8e0-e144cf011211-attr-1-key" class="er entityLabel">PK</text><rect height="22" width="77.40625" y="46" x="0" class="er attributeBoxEven"/><text style="dominant-baseline: middle; font-size: 10.2px;" transform="translate(5,57)" y="0" x="0" id="text-entity-Reserva-5b43aa53-3654-58fd-a8e0-e144cf011211-attr-2-type" class="er entityLabel">Id_vuelo_fk</text><rect height="22" width="25.28125" y="46" x="77.40625" class="er attributeBoxEven"/><text style="dominant-baseline: middle; font-size: 10.2px;" transform="translate(82.40625,57)" y="0" x="0" id="text-entity-Reserva-5b43aa53-3654-58fd-a8e0-e144cf011211-attr-2-name" class="er entityLabel">INT</text><rect height="22" width="21.5625" y="46" x="102.6875" class="er attributeBoxEven"/><text style="dominant-baseline: middle; font-size: 10.2px;" transform="translate(107.6875,57)" y="0" x="0" id="text-entity-Reserva-5b43aa53-3654-58fd-a8e0-e144cf011211-attr-2-key" class="er entityLabel">FK</text><rect height="22.091797828674316" width="77.40625" y="68" x="0" class="er attributeBoxOdd"/><text style="dominant-baseline: middle; font-size: 10.2px;" transform="translate(5,79.04589891433716)" y="0" x="0" id="text-entity-Reserva-5b43aa53-3654-58fd-a8e0-e144cf011211-attr-3-type" class="er entityLabel">Id_pasajero_fk</text><rect height="22.091797828674316" width="25.28125" y="68" x="77.40625" class="er attributeBoxOdd"/><text style="dominant-baseline: middle; font-size: 10.2px;" transform="translate(82.40625,79.04589891433716)" y="0" x="0" id="text-entity-Reserva-5b43aa53-3654-58fd-a8e0-e144cf011211-attr-3-name" class="er entityLabel">INT</text><rect height="22.091797828674316" width="21.5625" y="68" x="102.6875" class="er attributeBoxOdd"/><text style="dominant-baseline: middle; font-size: 10.2px;" transform="translate(107.6875,79.04589891433716)" y="0" x="0" id="text-entity-Reserva-5b43aa53-3654-58fd-a8e0-e144cf011211-attr-3-key" class="er entityLabel">FK</text></g><g transform="translate(148.15234375,20 )" id="entity-Venta-951c9b5f-cf12-594d-9545-aeb122b42f10"><rect height="112" width="142.328125" y="0" x="0" class="er entityBox"/><text style="dominant-baseline: middle; text-anchor: middle; font-size: 12px;" transform="translate(71.1640625,12)" y="0" x="0" id="text-entity-Venta-951c9b5f-cf12-594d-9545-aeb122b42f10" class="er entityLabel">Venta</text><rect height="22" width="71.6875" y="24" x="0" class="er attributeBoxOdd"/><text style="dominant-baseline: middle; font-size: 10.2px;" transform="translate(5,35)" y="0" x="0" id="text-entity-Venta-951c9b5f-cf12-594d-9545-aeb122b42f10-attr-1-type" class="er entityLabel">Id_venta</text><rect height="22" width="49.078125" y="24" x="71.6875" class="er attributeBoxOdd"/><text style="dominant-baseline: middle; font-size: 10.2px;" transform="translate(76.6875,35)" y="0" x="0" id="text-entity-Venta-951c9b5f-cf12-594d-9545-aeb122b42f10-attr-1-name" class="er entityLabel">INT</text><rect height="22" width="21.5625" y="24" x="120.765625" class="er attributeBoxOdd"/><text style="dominant-baseline: middle; font-size: 10.2px;" transform="translate(125.765625,35)" y="0" x="0" id="text-entity-Venta-951c9b5f-cf12-594d-9545-aeb122b42f10-attr-1-key" class="er entityLabel">PK</text><rect height="22" width="71.6875" y="46" x="0" class="er attributeBoxEven"/><text style="dominant-baseline: middle; font-size: 10.2px;" transform="translate(5,57)" y="0" x="0" id="text-entity-Venta-951c9b5f-cf12-594d-9545-aeb122b42f10-attr-2-type" class="er entityLabel">Id_reserva_fk</text><rect height="22" width="49.078125" y="46" x="71.6875" class="er attributeBoxEven"/><text style="dominant-baseline: middle; font-size: 10.2px;" transform="translate(76.6875,57)" y="0" x="0" id="text-entity-Venta-951c9b5f-cf12-594d-9545-aeb122b42f10-attr-2-name" class="er entityLabel">INT</text><rect height="22" width="21.5625" y="46" x="120.765625" class="er attributeBoxEven"/><text style="dominant-baseline: middle; font-size: 10.2px;" transform="translate(125.765625,57)" y="0" x="0" id="text-entity-Venta-951c9b5f-cf12-594d-9545-aeb122b42f10-attr-2-key" class="er entityLabel">FK</text><rect height="22" width="71.6875" y="68" x="0" class="er attributeBoxOdd"/><text style="dominant-baseline: middle; font-size: 10.2px;" transform="translate(5,79)" y="0" x="0" id="text-entity-Venta-951c9b5f-cf12-594d-9545-aeb122b42f10-attr-3-type" class="er entityLabel">Id_asiento_fk</text><rect height="22" width="49.078125" y="68" x="71.6875" class="er attributeBoxOdd"/><text style="dominant-baseline: middle; font-size: 10.2px;" transform="translate(76.6875,79)" y="0" x="0" id="text-entity-Venta-951c9b5f-cf12-594d-9545-aeb122b42f10-attr-3-name" class="er entityLabel">INT</text><rect height="22" width="21.5625" y="68" x="120.765625" class="er attributeBoxOdd"/><text style="dominant-baseline: middle; font-size: 10.2px;" transform="translate(125.765625,79)" y="0" x="0" id="text-entity-Venta-951c9b5f-cf12-594d-9545-aeb122b42f10-attr-3-key" class="er entityLabel">FK</text><rect height="22" width="71.6875" y="90" x="0" class="er attributeBoxEven"/><text style="dominant-baseline: middle; font-size: 10.2px;" transform="translate(5,101)" y="0" x="0" id="text-entity-Venta-951c9b5f-cf12-594d-9545-aeb122b42f10-attr-4-type" class="er entityLabel">Monto</text><rect height="22" width="49.078125" y="90" x="71.6875" class="er attributeBoxEven"/><text style="dominant-baseline: middle; font-size: 10.2px;" transform="translate(76.6875,101)" y="0" x="0" id="text-entity-Venta-951c9b5f-cf12-594d-9545-aeb122b42f10-attr-4-name" class="er entityLabel">DECIMAL</text><rect height="22" width="21.5625" y="90" x="120.765625" class="er attributeBoxEven"/><text style="dominant-baseline: middle; font-size: 10.2px;" transform="translate(125.765625,101)" y="0" x="0" id="text-entity-Venta-951c9b5f-cf12-594d-9545-aeb122b42f10-attr-4-key" class="er entityLabel"/></g><rect height="14" width="27.828125" y="670.958984375" x="556.9219360351562" class="er relationshipLabelBox"/><text style="text-anchor: middle; dominant-baseline: middle; font-size: 12px;" y="677.958984375" x="570.8359985351562" id="rel1" class="er relationshipLabel">tiene</text><rect height="14" width="27.828125" y="356.12554931640625" x="210.7900390625" class="er relationshipLabelBox"/><text style="text-anchor: middle; dominant-baseline: middle; font-size: 12px;" y="363.12554931640625" x="224.7041015625" id="rel2" class="er relationshipLabel">tiene</text><rect height="14" width="27.828125" y="340.9988708496094" x="489.3569030761719" class="er relationshipLabelBox"/><text style="text-anchor: middle; dominant-baseline: middle; font-size: 12px;" y="347.9988708496094" x="503.2709655761719" id="rel3" class="er relationshipLabel">tiene</text><rect height="14" width="27.828125" y="168.18582153320312" x="306.2347717285156" class="er relationshipLabelBox"/><text style="text-anchor: middle; dominant-baseline: middle; font-size: 12px;" y="175.18582153320312" x="320.1488342285156" id="rel4" class="er relationshipLabel">tiene</text><rect height="14" width="27.828125" y="168.16586303710938" x="104.58008575439453" class="er relationshipLabelBox"/><text style="text-anchor: middle; dominant-baseline: middle; font-size: 12px;" y="175.16586303710938" x="118.49414825439453" id="rel5" class="er relationshipLabel">tiene</text><rect height="14" width="27.828125" y="660.2703247070312" x="82.9253158569336" class="er relationshipLabelBox"/><text style="text-anchor: middle; dominant-baseline: middle; font-size: 12px;" y="667.2703247070312" x="96.8393783569336" id="rel6" class="er relationshipLabel">tiene</text><rect height="14" width="27.828125" y="670.86572265625" x="305.1536865234375" class="er relationshipLabelBox"/><text style="text-anchor: middle; dominant-baseline: middle; font-size: 12px;" y="677.86572265625" x="319.0677490234375" id="rel7" class="er relationshipLabel">tiene</text></svg>