<svg aria-roledescription="class" role="graphics-document document" viewBox="0 0 518.828125 270" style="max-width: 518.828px; background-color: white;" class="classDiagram" xmlns:xlink="http://www.w3.org/1999/xlink" xmlns="http://www.w3.org/2000/svg" width="100%" id="my-svg"><style>#my-svg{font-family:"trebuchet ms",verdana,arial,sans-serif;font-size:16px;fill:#333;}#my-svg .error-icon{fill:#552222;}#my-svg .error-text{fill:#552222;stroke:#552222;}#my-svg .edge-thickness-normal{stroke-width:1px;}#my-svg .edge-thickness-thick{stroke-width:3.5px;}#my-svg .edge-pattern-solid{stroke-dasharray:0;}#my-svg .edge-thickness-invisible{stroke-width:0;fill:none;}#my-svg .edge-pattern-dashed{stroke-dasharray:3;}#my-svg .edge-pattern-dotted{stroke-dasharray:2;}#my-svg .marker{fill:#333333;stroke:#333333;}#my-svg .marker.cross{stroke:#333333;}#my-svg svg{font-family:"trebuchet ms",verdana,arial,sans-serif;font-size:16px;}#my-svg p{margin:0;}#my-svg g.classGroup text{fill:#9370DB;stroke:none;font-family:"trebuchet ms",verdana,arial,sans-serif;font-size:10px;}#my-svg g.classGroup text .title{font-weight:bolder;}#my-svg .nodeLabel,#my-svg .edgeLabel{color:#131300;}#my-svg .edgeLabel .label rect{fill:#ECECFF;}#my-svg .label text{fill:#131300;}#my-svg .labelBkg{background:#ECECFF;}#my-svg .edgeLabel .label span{background:#ECECFF;}#my-svg .classTitle{font-weight:bolder;}#my-svg .node rect,#my-svg .node circle,#my-svg .node ellipse,#my-svg .node polygon,#my-svg .node path{fill:#ECECFF;stroke:#9370DB;stroke-width:1px;}#my-svg .divider{stroke:#9370DB;stroke-width:1;}#my-svg g.clickable{cursor:pointer;}#my-svg g.classGroup rect{fill:#ECECFF;stroke:#9370DB;}#my-svg g.classGroup line{stroke:#9370DB;stroke-width:1;}#my-svg .classLabel .box{stroke:none;stroke-width:0;fill:#ECECFF;opacity:0.5;}#my-svg .classLabel .label{fill:#9370DB;font-size:10px;}#my-svg .relation{stroke:#333333;stroke-width:1;fill:none;}#my-svg .dashed-line{stroke-dasharray:3;}#my-svg .dotted-line{stroke-dasharray:1 2;}#my-svg #compositionStart,#my-svg .composition{fill:#333333!important;stroke:#333333!important;stroke-width:1;}#my-svg #compositionEnd,#my-svg .composition{fill:#333333!important;stroke:#333333!important;stroke-width:1;}#my-svg #dependencyStart,#my-svg .dependency{fill:#333333!important;stroke:#333333!important;stroke-width:1;}#my-svg #dependencyStart,#my-svg .dependency{fill:#333333!important;stroke:#333333!important;stroke-width:1;}#my-svg #extensionStart,#my-svg .extension{fill:transparent!important;stroke:#333333!important;stroke-width:1;}#my-svg #extensionEnd,#my-svg .extension{fill:transparent!important;stroke:#333333!important;stroke-width:1;}#my-svg #aggregationStart,#my-svg .aggregation{fill:transparent!important;stroke:#333333!important;stroke-width:1;}#my-svg #aggregationEnd,#my-svg .aggregation{fill:transparent!important;stroke:#333333!important;stroke-width:1;}#my-svg #lollipopStart,#my-svg .lollipop{fill:#ECECFF!important;stroke:#333333!important;stroke-width:1;}#my-svg #lollipopEnd,#my-svg .lollipop{fill:#ECECFF!important;stroke:#333333!important;stroke-width:1;}#my-svg .edgeTerminals{font-size:11px;line-height:initial;}#my-svg .classTitleText{text-anchor:middle;font-size:18px;fill:#333;}#my-svg :root{--mermaid-font-family:"trebuchet ms",verdana,arial,sans-serif;}</style><g><defs><marker orient="auto" markerHeight="240" markerWidth="190" refY="7" refX="18" class="marker aggregation class" id="my-svg_class-aggregationStart"><path d="M 18,7 L9,13 L1,7 L9,1 Z"/></marker></defs><defs><marker orient="auto" markerHeight="28" markerWidth="20" refY="7" refX="1" class="marker aggregation class" id="my-svg_class-aggregationEnd"><path d="M 18,7 L9,13 L1,7 L9,1 Z"/></marker></defs><defs><marker orient="auto" markerHeight="240" markerWidth="190" refY="7" refX="18" class="marker extension class" id="my-svg_class-extensionStart"><path d="M 1,7 L18,13 V 1 Z"/></marker></defs><defs><marker orient="auto" markerHeight="28" markerWidth="20" refY="7" refX="1" class="marker extension class" id="my-svg_class-extensionEnd"><path d="M 1,1 V 13 L18,7 Z"/></marker></defs><defs><marker orient="auto" markerHeight="240" markerWidth="190" refY="7" refX="18" class="marker composition class" id="my-svg_class-compositionStart"><path d="M 18,7 L9,13 L1,7 L9,1 Z"/></marker></defs><defs><marker orient="auto" markerHeight="28" markerWidth="20" refY="7" refX="1" class="marker composition class" id="my-svg_class-compositionEnd"><path d="M 18,7 L9,13 L1,7 L9,1 Z"/></marker></defs><defs><marker orient="auto" markerHeight="240" markerWidth="190" refY="7" refX="6" class="marker dependency class" id="my-svg_class-dependencyStart"><path d="M 5,7 L9,13 L1,7 L9,1 Z"/></marker></defs><defs><marker orient="auto" markerHeight="28" markerWidth="20" refY="7" refX="13" class="marker dependency class" id="my-svg_class-dependencyEnd"><path d="M 18,7 L9,13 L14,7 L9,1 Z"/></marker></defs><defs><marker orient="auto" markerHeight="240" markerWidth="190" refY="7" refX="13" class="marker lollipop class" id="my-svg_class-lollipopStart"><circle r="6" cy="7" cx="7" fill="transparent" stroke="black"/></marker></defs><defs><marker orient="auto" markerHeight="240" markerWidth="190" refY="7" refX="1" class="marker lollipop class" id="my-svg_class-lollipopEnd"><circle r="6" cy="7" cx="7" fill="transparent" stroke="black"/></marker></defs><g class="root"><g class="clusters"/><g class="edgePaths"><path style=";" class="edge-thickness-normal edge-pattern-solid relation" id="id_DigitalDocument_DigitalDocumentPermission_1" d="M259.414,128L259.414,132.167C259.414,136.333,259.414,144.667,259.414,153C259.414,161.333,259.414,169.667,259.414,173.833L259.414,178"/></g><g class="edgeLabels"><g class="edgeLabel"><g transform="translate(0, -12)" class="label"><foreignObject height="24" width="0"><div class="labelBkg" xmlns="http://www.w3.org/1999/xhtml" style="display: table-cell; white-space: nowrap; line-height: 1.5; max-width: 200px; text-align: center;"><span class="edgeLabel" style=";display: inline-block"></span></div></foreignObject></g></g></g><g class="nodes"><g transform="translate(259.4140625, 68)" id="classId-DigitalDocument-0" class="node default"><g class="basic label-container"><path style="" fill="#ECECFF" stroke-width="0" stroke="none" d="M-251.4140625 -60 L251.4140625 -60 L251.4140625 60 L-251.4140625 60"/><path style="" fill="none" stroke-width="1.3" stroke="#9370DB" d="M-251.4140625 -60 C-92.46626543019175 -60, 66.48153163961649 -60, 251.4140625 -60 M-251.4140625 -60 C-109.52850618579345 -60, 32.35705012841311 -60, 251.4140625 -60 M251.4140625 -60 C251.4140625 -31.614914750435602, 251.4140625 -3.2298295008712046, 251.4140625 60 M251.4140625 -60 C251.4140625 -13.379139632597479, 251.4140625 33.24172073480504, 251.4140625 60 M251.4140625 60 C54.5057182876252 60, -142.4026259247496 60, -251.4140625 60 M251.4140625 60 C123.34186639476391 60, -4.730329710472176 60, -251.4140625 60 M-251.4140625 60 C-251.4140625 28.871511556224778, -251.4140625 -2.2569768875504437, -251.4140625 -60 M-251.4140625 60 C-251.4140625 16.789546940011185, -251.4140625 -26.42090611997763, -251.4140625 -60"/></g><g transform="translate(0, -36)" class="annotation-group text"/><g transform="translate(-61.578125, -36)" class="label-group text"><g transform="translate(0,-12)" style="font-weight: bolder" class="label"><foreignObject height="24" width="123.15625"><div style="display: table-cell; white-space: nowrap; line-height: 1.5; max-width: 161px; text-align: center;" xmlns="http://www.w3.org/1999/xhtml"><span style="" class="nodeLabel markdown-node-label"><p>DigitalDocument</p></span></div></foreignObject></g></g><g transform="translate(-239.4140625, 12)" class="members-group text"><g transform="translate(0,-12)" style="" class="label"><foreignObject height="24" width="417.25"><div style="display: table-cell; white-space: nowrap; line-height: 1.5; max-width: 440px; text-align: center;" xmlns="http://www.w3.org/1999/xhtml"><span style="" class="nodeLabel markdown-node-label"><p>DigitalDocumentPermission hasDigitalDocumentPermission</p></span></div></foreignObject></g></g><g transform="translate(-239.4140625, 60)" class="methods-group text"/><g style="" class="divider"><path style="" fill="none" stroke-width="1.3" stroke="#9370DB" d="M-251.4140625 -12 C-65.57314951441467 -12, 120.26776347117067 -12, 251.4140625 -12 M-251.4140625 -12 C-103.74586584428653 -12, 43.922330811426946 -12, 251.4140625 -12"/></g><g style="" class="divider"><path style="" fill="none" stroke-width="1.3" stroke="#9370DB" d="M-251.4140625 36 C-78.94999388016535 36, 93.5140747396693 36, 251.4140625 36 M-251.4140625 36 C-121.6556965754458 36, 8.102669349108396 36, 251.4140625 36"/></g></g><g transform="translate(259.4140625, 220)" id="classId-DigitalDocumentPermission-1" class="node default"><g class="basic label-container"><path style="" fill="#ECECFF" stroke-width="0" stroke="none" d="M-113.703125 -42 L113.703125 -42 L113.703125 42 L-113.703125 42"/><path style="" fill="none" stroke-width="1.3" stroke="#9370DB" d="M-113.703125 -42 C-63.91689463667844 -42, -14.130664273356885 -42, 113.703125 -42 M-113.703125 -42 C-35.91820782198094 -42, 41.866709356038115 -42, 113.703125 -42 M113.703125 -42 C113.703125 -10.023432022860593, 113.703125 21.953135954278814, 113.703125 42 M113.703125 -42 C113.703125 -24.12711625216019, 113.703125 -6.2542325043203775, 113.703125 42 M113.703125 42 C58.205554569320135 42, 2.7079841386402705 42, -113.703125 42 M113.703125 42 C35.68360783442512 42, -42.335909331149765 42, -113.703125 42 M-113.703125 42 C-113.703125 9.020917315441956, -113.703125 -23.958165369116088, -113.703125 -42 M-113.703125 42 C-113.703125 21.092472456698065, -113.703125 0.18494491339613006, -113.703125 -42"/></g><g transform="translate(0, -18)" class="annotation-group text"/><g transform="translate(-101.703125, -18)" class="label-group text"><g transform="translate(0,-12)" style="font-weight: bolder" class="label"><foreignObject height="24" width="203.40625"><div style="display: table-cell; white-space: nowrap; line-height: 1.5; max-width: 232px; text-align: center;" xmlns="http://www.w3.org/1999/xhtml"><span style="" class="nodeLabel markdown-node-label"><p>DigitalDocumentPermission</p></span></div></foreignObject></g></g><g transform="translate(-101.703125, 30)" class="members-group text"/><g transform="translate(-101.703125, 60)" class="methods-group text"/><g style="" class="divider"><path style="" fill="none" stroke-width="1.3" stroke="#9370DB" d="M-113.703125 6 C-67.47907207354771 6, -21.255019147095425 6, 113.703125 6 M-113.703125 6 C-34.66863817635624 6, 44.36584864728752 6, 113.703125 6"/></g><g style="" class="divider"><path style="" fill="none" stroke-width="1.3" stroke="#9370DB" d="M-113.703125 24 C-49.468998186042626 24, 14.765128627914748 24, 113.703125 24 M-113.703125 24 C-24.130440386399158 24, 65.44224422720168 24, 113.703125 24"/></g></g></g></g></g></svg>