<svg aria-roledescription="er" role="graphics-document document" viewBox="-32.79703235626221 -62 587.3634643554688 1106.193359375" style="max-width: 587.363px; background-color: white;" xmlns:xlink="http://www.w3.org/1999/xlink" xmlns="http://www.w3.org/2000/svg" width="100%" id="my-svg"><style>#my-svg{font-family:"trebuchet ms",verdana,arial,sans-serif;font-size:16px;fill:#333;}#my-svg .error-icon{fill:#552222;}#my-svg .error-text{fill:#552222;stroke:#552222;}#my-svg .edge-thickness-normal{stroke-width:1px;}#my-svg .edge-thickness-thick{stroke-width:3.5px;}#my-svg .edge-pattern-solid{stroke-dasharray:0;}#my-svg .edge-thickness-invisible{stroke-width:0;fill:none;}#my-svg .edge-pattern-dashed{stroke-dasharray:3;}#my-svg .edge-pattern-dotted{stroke-dasharray:2;}#my-svg .marker{fill:#333333;stroke:#333333;}#my-svg .marker.cross{stroke:#333333;}#my-svg svg{font-family:"trebuchet ms",verdana,arial,sans-serif;font-size:16px;}#my-svg p{margin:0;}#my-svg .entityBox{fill:#ECECFF;stroke:#9370DB;}#my-svg .attributeBoxOdd{fill:#ffffff;stroke:#9370DB;}#my-svg .attributeBoxEven{fill:#f2f2f2;stroke:#9370DB;}#my-svg .relationshipLabelBox{fill:hsl(80, 100%, 96.2745098039%);opacity:0.7;background-color:hsl(80, 100%, 96.2745098039%);}#my-svg .relationshipLabelBox rect{opacity:0.5;}#my-svg .relationshipLine{stroke:#333333;}#my-svg .entityTitleText{text-anchor:middle;font-size:18px;fill:#333;}#my-svg #MD_PARENT_START{fill:#f5f5f5!important;stroke:#333333!important;stroke-width:1;}#my-svg #MD_PARENT_END{fill:#f5f5f5!important;stroke:#333333!important;stroke-width:1;}#my-svg :root{--mermaid-font-family:"trebuchet ms",verdana,arial,sans-serif;}</style><g/><defs><marker orient="auto" markerHeight="240" markerWidth="190" refY="7" refX="0" id="MD_PARENT_START"><path d="M 18,7 L9,13 L1,7 L9,1 Z"/></marker></defs><defs><marker orient="auto" markerHeight="28" markerWidth="20" refY="7" refX="19" id="MD_PARENT_END"><path d="M 18,7 L9,13 L1,7 L9,1 Z"/></marker></defs><defs><marker orient="auto" markerHeight="18" markerWidth="18" refY="9" refX="0" id="ONLY_ONE_START"><path d="M9,0 L9,18 M15,0 L15,18" fill="none" stroke="gray"/></marker></defs><defs><marker orient="auto" markerHeight="18" markerWidth="18" refY="9" refX="18" id="ONLY_ONE_END"><path d="M3,0 L3,18 M9,0 L9,18" fill="none" stroke="gray"/></marker></defs><defs><marker orient="auto" markerHeight="18" markerWidth="30" refY="9" refX="0" id="ZERO_OR_ONE_START"><circle r="6" cy="9" cx="21" fill="white" stroke="gray"/><path d="M9,0 L9,18" fill="none" stroke="gray"/></marker></defs><defs><marker orient="auto" markerHeight="18" markerWidth="30" refY="9" refX="30" id="ZERO_OR_ONE_END"><circle r="6" cy="9" cx="9" fill="white" stroke="gray"/><path d="M21,0 L21,18" fill="none" stroke="gray"/></marker></defs><defs><marker orient="auto" markerHeight="36" markerWidth="45" refY="18" refX="18" id="ONE_OR_MORE_START"><path d="M0,18 Q 18,0 36,18 Q 18,36 0,18 M42,9 L42,27" fill="none" stroke="gray"/></marker></defs><defs><marker orient="auto" markerHeight="36" markerWidth="45" refY="18" refX="27" id="ONE_OR_MORE_END"><path d="M3,9 L3,27 M9,18 Q27,0 45,18 Q27,36 9,18" fill="none" stroke="gray"/></marker></defs><defs><marker orient="auto" markerHeight="36" markerWidth="57" refY="18" refX="18" id="ZERO_OR_MORE_START"><circle r="6" cy="18" cx="48" fill="white" stroke="gray"/><path d="M0,18 Q18,0 36,18 Q18,36 0,18" fill="none" stroke="gray"/></marker></defs><defs><marker orient="auto" markerHeight="36" markerWidth="57" refY="18" refX="39" id="ZERO_OR_MORE_END"><circle r="6" cy="18" cx="9" fill="white" stroke="gray"/><path d="M21,18 Q39,0 57,18 Q39,36 21,18" fill="none" stroke="gray"/></marker></defs><path style="stroke: gray; fill: none;" marker-start="url(#ONLY_ONE_START)" marker-end="url(#ONE_OR_MORE_END)" d="M160.918,66.092L160.918,74.425C160.918,82.758,160.918,99.425,160.918,116.092C160.918,132.758,160.918,149.425,160.918,157.758L160.918,166.092" class="er relationshipLine"/><path style="stroke: gray; fill: none;" marker-start="url(#ONLY_ONE_START)" marker-end="url(#ONE_OR_MORE_END)" d="M111.298,66.092L93.356,74.425C75.414,82.758,39.529,99.425,21.587,129.13C3.645,158.835,3.645,201.578,3.645,244.321C3.645,287.064,3.645,329.808,11.134,359.513C18.623,389.217,33.601,405.884,41.091,414.217L48.58,422.551" class="er relationshipLine"/><path style="stroke: gray; fill: none;" marker-start="url(#ONLY_ONE_START)" marker-end="url(#ZERO_OR_MORE_END)" d="M210.918,56.711L247.13,66.608C283.342,76.505,355.767,96.298,391.979,127.567C428.191,158.835,428.191,201.578,428.191,244.321C428.191,287.064,428.191,329.808,432.953,359.513C437.715,389.217,447.239,405.884,452.001,414.217L456.763,422.551" class="er relationshipLine"/><path style="stroke: gray; fill: none;" marker-start="url(#ONLY_ONE_START)" marker-end="url(#ZERO_OR_ONE_END)" d="M218.191,264.318L269.858,282.357C321.525,300.395,424.858,336.473,471.763,362.845C518.668,389.217,509.144,405.884,504.382,414.217L499.62,422.551" class="er relationshipLine"/><path style="stroke: gray; fill: none;" marker-start="url(#ONLY_ONE_START)" marker-end="url(#ONE_OR_MORE_END)" d="M160.918,322.551L160.918,330.884C160.918,339.217,160.918,355.884,153.429,372.551C145.94,389.217,130.961,405.884,123.472,414.217L115.983,422.551" class="er relationshipLine"/><path style="stroke: gray; fill: none;" marker-start="url(#ONLY_ONE_START)" marker-end="url(#ZERO_OR_MORE_END)" d="M218.191,209.118L229.858,201.947C241.525,194.776,264.858,180.434,279.441,173.263C294.025,166.092,299.858,166.092,305.691,179.13C311.525,192.168,317.358,218.245,317.358,244.321C317.358,270.398,311.525,296.474,305.691,309.513C299.858,322.551,294.025,322.551,279.441,315.38C264.858,308.209,241.525,293.867,229.858,286.696L218.191,279.525" class="er relationshipLine"/><path style="stroke: gray; fill: none;" marker-start="url(#ONLY_ONE_START)" marker-end="url(#ONLY_ONE_END)" d="M82.281,497.551L82.281,505.884C82.281,514.217,82.281,530.884,82.281,547.551C82.281,564.217,82.281,580.884,82.281,589.217L82.281,597.551" class="er relationshipLine"/><path style="stroke: gray; fill: none;" marker-start="url(#ONLY_ONE_START)" marker-end="url(#ONE_OR_MORE_END)" d="M58.559,687.826L54.179,696.16C49.8,704.493,41.04,721.16,41.616,737.826C42.191,754.493,52.101,771.16,57.056,779.493L62.011,787.826" class="er relationshipLine"/><path style="stroke: gray; fill: none;" marker-start="url(#ONLY_ONE_START)" marker-end="url(#ONE_OR_MORE_END)" d="M106.004,687.826L110.383,696.16C114.763,704.493,123.522,721.16,122.947,737.826C122.371,754.493,112.462,771.16,107.507,779.493L102.552,787.826" class="er relationshipLine"/><path style="stroke: gray; fill: none;" marker-start="url(#ONLY_ONE_START)" marker-end="url(#ONLY_ONE_END)" d="M82.281,856.01L82.281,864.343C82.281,872.676,82.281,889.343,82.281,906.01C82.281,922.676,82.281,939.343,82.281,947.676L82.281,956.01" class="er relationshipLine"/><g transform="translate(110.91796875,20 )" id="entity-Plan-23707d35-cd75-5f86-ad5d-c7c4997678e0"><rect height="46.091797828674316" width="100" y="0" x="0" class="er entityBox"/><text style="dominant-baseline: middle; text-anchor: middle; font-size: 12px;" transform="translate(50,12)" y="0" x="0" id="text-entity-Plan-23707d35-cd75-5f86-ad5d-c7c4997678e0" class="er entityLabel">Plan</text><rect height="22.091797828674316" width="50.390625" y="24" x="0" class="er attributeBoxOdd"/><text style="dominant-baseline: middle; font-size: 10.2px;" transform="translate(5,35.04589891433716)" y="0" x="0" id="text-entity-Plan-23707d35-cd75-5f86-ad5d-c7c4997678e0-attr-1-type" class="er entityLabel">string</text><rect height="22.091797828674316" width="49.609375" y="24" x="50.390625" class="er attributeBoxOdd"/><text style="dominant-baseline: middle; font-size: 10.2px;" transform="translate(55.390625,35.04589891433716)" y="0" x="0" id="text-entity-Plan-23707d35-cd75-5f86-ad5d-c7c4997678e0-attr-1-name" class="er entityLabel">name</text></g><g transform="translate(103.64453125,166.091796875 )" id="entity-Project-c2395ed5-a5fa-58df-9cbe-a2926add311c"><rect height="156.45898914337158" width="114.546875" y="0" x="0" class="er entityBox"/><text style="dominant-baseline: middle; text-anchor: middle; font-size: 12px;" transform="translate(57.2734375,12)" y="0" x="0" id="text-entity-Project-c2395ed5-a5fa-58df-9cbe-a2926add311c" class="er entityLabel">Project</text><rect height="22" width="35.75" y="24" x="0" class="er attributeBoxOdd"/><text style="dominant-baseline: middle; font-size: 10.2px;" transform="translate(5,35)" y="0" x="0" id="text-entity-Project-c2395ed5-a5fa-58df-9cbe-a2926add311c-attr-1-type" class="er entityLabel">int</text><rect height="22" width="78.796875" y="24" x="35.75" class="er attributeBoxOdd"/><text style="dominant-baseline: middle; font-size: 10.2px;" transform="translate(40.75,35)" y="0" x="0" id="text-entity-Project-c2395ed5-a5fa-58df-9cbe-a2926add311c-attr-1-name" class="er entityLabel">rank</text><rect height="22.091797828674316" width="35.75" y="46" x="0" class="er attributeBoxEven"/><text style="dominant-baseline: middle; font-size: 10.2px;" transform="translate(5,57.04589891433716)" y="0" x="0" id="text-entity-Project-c2395ed5-a5fa-58df-9cbe-a2926add311c-attr-2-type" class="er entityLabel">string</text><rect height="22.091797828674316" width="78.796875" y="46" x="35.75" class="er attributeBoxEven"/><text style="dominant-baseline: middle; font-size: 10.2px;" transform="translate(40.75,57.04589891433716)" y="0" x="0" id="text-entity-Project-c2395ed5-a5fa-58df-9cbe-a2926add311c-attr-2-name" class="er entityLabel">name</text><rect height="22.091797828674316" width="35.75" y="68.09179782867432" x="0" class="er attributeBoxOdd"/><text style="dominant-baseline: middle; font-size: 10.2px;" transform="translate(5,79.13769674301147)" y="0" x="0" id="text-entity-Project-c2395ed5-a5fa-58df-9cbe-a2926add311c-attr-3-type" class="er entityLabel">string</text><rect height="22.091797828674316" width="78.796875" y="68.09179782867432" x="35.75" class="er attributeBoxOdd"/><text style="dominant-baseline: middle; font-size: 10.2px;" transform="translate(40.75,79.13769674301147)" y="0" x="0" id="text-entity-Project-c2395ed5-a5fa-58df-9cbe-a2926add311c-attr-3-name" class="er entityLabel">documentation</text><rect height="22.091797828674316" width="35.75" y="90.18359565734863" x="0" class="er attributeBoxEven"/><text style="dominant-baseline: middle; font-size: 10.2px;" transform="translate(5,101.22949457168579)" y="0" x="0" id="text-entity-Project-c2395ed5-a5fa-58df-9cbe-a2926add311c-attr-4-type" class="er entityLabel">string</text><rect height="22.091797828674316" width="78.796875" y="90.18359565734863" x="35.75" class="er attributeBoxEven"/><text style="dominant-baseline: middle; font-size: 10.2px;" transform="translate(40.75,101.22949457168579)" y="0" x="0" id="text-entity-Project-c2395ed5-a5fa-58df-9cbe-a2926add311c-attr-4-name" class="er entityLabel">description</text><rect height="22.091797828674316" width="35.75" y="112.27539348602295" x="0" class="er attributeBoxOdd"/><text style="dominant-baseline: middle; font-size: 10.2px;" transform="translate(5,123.32129240036011)" y="0" x="0" id="text-entity-Project-c2395ed5-a5fa-58df-9cbe-a2926add311c-attr-5-type" class="er entityLabel">string</text><rect height="22.091797828674316" width="78.796875" y="112.27539348602295" x="35.75" class="er attributeBoxOdd"/><text style="dominant-baseline: middle; font-size: 10.2px;" transform="translate(40.75,123.32129240036011)" y="0" x="0" id="text-entity-Project-c2395ed5-a5fa-58df-9cbe-a2926add311c-attr-5-name" class="er entityLabel">state</text><rect height="22.091797828674316" width="35.75" y="134.36719131469727" x="0" class="er attributeBoxEven"/><text style="dominant-baseline: middle; font-size: 10.2px;" transform="translate(5,145.41309022903442)" y="0" x="0" id="text-entity-Project-c2395ed5-a5fa-58df-9cbe-a2926add311c-attr-6-type" class="er entityLabel">int</text><rect height="22.091797828674316" width="78.796875" y="134.36719131469727" x="35.75" class="er attributeBoxEven"/><text style="dominant-baseline: middle; font-size: 10.2px;" transform="translate(40.75,145.41309022903442)" y="0" x="0" id="text-entity-Project-c2395ed5-a5fa-58df-9cbe-a2926add311c-attr-6-name" class="er entityLabel">subProject</text></g><g transform="translate(32.28125,422.55078125 )" id="entity-Pillar-93f7d4b9-0087-511e-bc9c-a95e03ea8865"><rect height="75" width="100" y="0" x="0" class="er entityBox"/><text style="dominant-baseline: middle; text-anchor: middle; font-size: 12px;" transform="translate(50,37.5)" y="0" x="0" id="text-entity-Pillar-93f7d4b9-0087-511e-bc9c-a95e03ea8865" class="er entityLabel">Pillar</text></g><g transform="translate(421.81640625,422.55078125 )" id="entity-ProjectDelivery-d3aa8e7a-0945-5e3f-8ff9-419497a1b221"><rect height="75" width="112.75" y="0" x="0" class="er entityBox"/><text style="dominant-baseline: middle; text-anchor: middle; font-size: 12px;" transform="translate(56.375,37.5)" y="0" x="0" id="text-entity-ProjectDelivery-d3aa8e7a-0945-5e3f-8ff9-419497a1b221" class="er entityLabel">ProjectDelivery</text></g><g transform="translate(30.8671875,597.55078125 )" id="entity-CapacityPlan-df59595a-1ccf-5e2f-91ce-be364660b24e"><rect height="90.27539253234863" width="102.828125" y="0" x="0" class="er entityBox"/><text style="dominant-baseline: middle; text-anchor: middle; font-size: 12px;" transform="translate(51.4140625,12)" y="0" x="0" id="text-entity-CapacityPlan-df59595a-1ccf-5e2f-91ce-be364660b24e" class="er entityLabel">CapacityPlan</text><rect height="22.091797828674316" width="35.75" y="24" x="0" class="er attributeBoxOdd"/><text style="dominant-baseline: middle; font-size: 10.2px;" transform="translate(5,35.04589891433716)" y="0" x="0" id="text-entity-CapacityPlan-df59595a-1ccf-5e2f-91ce-be364660b24e-attr-1-type" class="er entityLabel">string</text><rect height="22.091797828674316" width="67.078125" y="24" x="35.75" class="er attributeBoxOdd"/><text style="dominant-baseline: middle; font-size: 10.2px;" transform="translate(40.75,35.04589891433716)" y="0" x="0" id="text-entity-CapacityPlan-df59595a-1ccf-5e2f-91ce-be364660b24e-attr-1-name" class="er entityLabel">name</text><rect height="22.091797828674316" width="35.75" y="46.091797828674316" x="0" class="er attributeBoxEven"/><text style="dominant-baseline: middle; font-size: 10.2px;" transform="translate(5,57.137696743011475)" y="0" x="0" id="text-entity-CapacityPlan-df59595a-1ccf-5e2f-91ce-be364660b24e-attr-2-type" class="er entityLabel">string</text><rect height="22.091797828674316" width="67.078125" y="46.091797828674316" x="35.75" class="er attributeBoxEven"/><text style="dominant-baseline: middle; font-size: 10.2px;" transform="translate(40.75,57.137696743011475)" y="0" x="0" id="text-entity-CapacityPlan-df59595a-1ccf-5e2f-91ce-be364660b24e-attr-2-name" class="er entityLabel">description</text><rect height="22.091796875" width="35.75" y="68.18359565734863" x="0" class="er attributeBoxOdd"/><text style="dominant-baseline: middle; font-size: 10.2px;" transform="translate(5,79.22949409484863)" y="0" x="0" id="text-entity-CapacityPlan-df59595a-1ccf-5e2f-91ce-be364660b24e-attr-3-type" class="er entityLabel">int</text><rect height="22.091796875" width="67.078125" y="68.18359565734863" x="35.75" class="er attributeBoxOdd"/><text style="dominant-baseline: middle; font-size: 10.2px;" transform="translate(40.75,79.22949409484863)" y="0" x="0" id="text-entity-CapacityPlan-df59595a-1ccf-5e2f-91ce-be364660b24e-attr-3-name" class="er entityLabel">yearSliceCnt</text></g><g transform="translate(20,787.826171875 )" id="entity-ResourceCapacity-aff2f66e-26aa-5f69-ab79-28ca244f80d1"><rect height="68.18359470367432" width="124.5625" y="0" x="0" class="er entityBox"/><text style="dominant-baseline: middle; text-anchor: middle; font-size: 12px;" transform="translate(62.28125,12)" y="0" x="0" id="text-entity-ResourceCapacity-aff2f66e-26aa-5f69-ab79-28ca244f80d1" class="er entityLabel">ResourceCapacity</text><rect height="22.091797828674316" width="47.8671875" y="24" x="0" class="er attributeBoxOdd"/><text style="dominant-baseline: middle; font-size: 10.2px;" transform="translate(5,35.04589891433716)" y="0" x="0" id="text-entity-ResourceCapacity-aff2f66e-26aa-5f69-ab79-28ca244f80d1-attr-1-type" class="er entityLabel">int</text><rect height="22.091797828674316" width="76.6953125" y="24" x="47.8671875" class="er attributeBoxOdd"/><text style="dominant-baseline: middle; font-size: 10.2px;" transform="translate(52.8671875,35.04589891433716)" y="0" x="0" id="text-entity-ResourceCapacity-aff2f66e-26aa-5f69-ab79-28ca244f80d1-attr-1-name" class="er entityLabel">capacity</text><rect height="22.091796875" width="47.8671875" y="46.091797828674316" x="0" class="er attributeBoxEven"/><text style="dominant-baseline: middle; font-size: 10.2px;" transform="translate(5,57.137696266174316)" y="0" x="0" id="text-entity-ResourceCapacity-aff2f66e-26aa-5f69-ab79-28ca244f80d1-attr-2-type" class="er entityLabel">int</text><rect height="22.091796875" width="76.6953125" y="46.091797828674316" x="47.8671875" class="er attributeBoxEven"/><text style="dominant-baseline: middle; font-size: 10.2px;" transform="translate(52.8671875,57.137696266174316)" y="0" x="0" id="text-entity-ResourceCapacity-aff2f66e-26aa-5f69-ab79-28ca244f80d1-attr-2-name" class="er entityLabel">yearSlice</text></g><g transform="translate(30.6484375,956.009765625 )" id="entity-ResourceType-4f4c7ca3-1f08-56f2-b6e5-c216a4feff90"><rect height="68.18359565734863" width="103.265625" y="0" x="0" class="er entityBox"/><text style="dominant-baseline: middle; text-anchor: middle; font-size: 12px;" transform="translate(51.6328125,12)" y="0" x="0" id="text-entity-ResourceType-4f4c7ca3-1f08-56f2-b6e5-c216a4feff90" class="er entityLabel">ResourceType</text><rect height="22.091797828674316" width="35.75" y="24" x="0" class="er attributeBoxOdd"/><text style="dominant-baseline: middle; font-size: 10.2px;" transform="translate(5,35.04589891433716)" y="0" x="0" id="text-entity-ResourceType-4f4c7ca3-1f08-56f2-b6e5-c216a4feff90-attr-1-type" class="er entityLabel">string</text><rect height="22.091797828674316" width="67.515625" y="24" x="35.75" class="er attributeBoxOdd"/><text style="dominant-baseline: middle; font-size: 10.2px;" transform="translate(40.75,35.04589891433716)" y="0" x="0" id="text-entity-ResourceType-4f4c7ca3-1f08-56f2-b6e5-c216a4feff90-attr-1-name" class="er entityLabel">name</text><rect height="22.091797828674316" width="35.75" y="46.091797828674316" x="0" class="er attributeBoxEven"/><text style="dominant-baseline: middle; font-size: 10.2px;" transform="translate(5,57.137696743011475)" y="0" x="0" id="text-entity-ResourceType-4f4c7ca3-1f08-56f2-b6e5-c216a4feff90-attr-2-type" class="er entityLabel">string</text><rect height="22.091797828674316" width="67.515625" y="46.091797828674316" x="35.75" class="er attributeBoxEven"/><text style="dominant-baseline: middle; font-size: 10.2px;" transform="translate(40.75,57.137696743011475)" y="0" x="0" id="text-entity-ResourceType-4f4c7ca3-1f08-56f2-b6e5-c216a4feff90-attr-2-name" class="er entityLabel">abbreviation</text></g><rect height="14" width="35.25" y="109.09199523925781" x="143.29299926757812" class="er relationshipLabelBox"/><text style="text-anchor: middle; dominant-baseline: middle; font-size: 12px;" y="116.09199523925781" x="160.91799926757812" id="rel1" class="er relationshipLabel">zitems</text><rect height="14" width="33.015625" y="217.62066650390625" x="-12.797032117843628" class="er relationshipLabelBox"/><text style="text-anchor: middle; dominant-baseline: middle; font-size: 12px;" y="224.62066650390625" x="3.710780382156372" id="rel2" class="er relationshipLabel">pillars</text><rect height="14" width="45.34375" y="168.16140747070312" x="399.3415222167969" class="er relationshipLabelBox"/><text style="text-anchor: middle; dominant-baseline: middle; font-size: 12px;" y="175.16140747070312" x="422.0133972167969" id="rel3" class="er relationshipLabel">commits</text><rect height="14" width="45.34375" y="316.604736328125" x="360.6448059082031" class="er relationshipLabelBox"/><text style="text-anchor: middle; dominant-baseline: middle; font-size: 12px;" y="323.604736328125" x="383.3166809082031" id="rel4" class="er relationshipLabel">commits</text><rect height="14" width="65.078125" y="370.7999267578125" x="118.2955322265625" class="er relationshipLabelBox"/><text style="text-anchor: middle; dominant-baseline: middle; font-size: 12px;" y="377.7999267578125" x="150.8345947265625" id="rel5" class="er relationshipLabel">leadClimber</text><rect height="14" width="54.359375" y="237.3214874267578" x="290.1783142089844" class="er relationshipLabelBox"/><text style="text-anchor: middle; dominant-baseline: middle; font-size: 12px;" y="244.3214874267578" x="317.3580017089844" id="rel6" class="er relationshipLabel">crossPillar</text><rect height="14" width="45.28125" y="540.551025390625" x="59.64037322998047" class="er relationshipLabelBox"/><text style="text-anchor: middle; dominant-baseline: middle; font-size: 12px;" y="547.551025390625" x="82.28099822998047" id="rel7" class="er relationshipLabel">capacity</text><rect height="14" width="41.09375" y="731.4100952148438" x="21.09349822998047" class="er relationshipLabelBox"/><text style="text-anchor: middle; dominant-baseline: middle; font-size: 12px;" y="738.4100952148438" x="41.64037322998047" id="rel8" class="er relationshipLabel">resCaps</text><rect height="14" width="83.09375" y="731.4100952148438" x="81.37572479248047" class="er relationshipLabelBox"/><text style="text-anchor: middle; dominant-baseline: middle; font-size: 12px;" y="738.4100952148438" x="122.92259979248047" id="rel9" class="er relationshipLabel">resAdjustments</text><rect height="14" width="40.8125" y="899.010009765625" x="61.87474822998047" class="er relationshipLabelBox"/><text style="text-anchor: middle; dominant-baseline: middle; font-size: 12px;" y="906.010009765625" x="82.28099822998047" id="rel10" class="er relationshipLabel">resType</text><text class="entityTitleText" y="-25" x="260.88469982147217" text-anchor="middle">ZKit domain model</text></svg>