<svg aria-roledescription="er" role="graphics-document document" viewBox="0 0 485.82421875 320.458984375" style="max-width: 485.824px; background-color: white;" xmlns:xlink="http://www.w3.org/1999/xlink" xmlns="http://www.w3.org/2000/svg" width="100%" id="my-svg"><style>#my-svg{font-family:"trebuchet ms",verdana,arial,sans-serif;font-size:16px;fill:#333;}#my-svg .error-icon{fill:#552222;}#my-svg .error-text{fill:#552222;stroke:#552222;}#my-svg .edge-thickness-normal{stroke-width:1px;}#my-svg .edge-thickness-thick{stroke-width:3.5px;}#my-svg .edge-pattern-solid{stroke-dasharray:0;}#my-svg .edge-thickness-invisible{stroke-width:0;fill:none;}#my-svg .edge-pattern-dashed{stroke-dasharray:3;}#my-svg .edge-pattern-dotted{stroke-dasharray:2;}#my-svg .marker{fill:#333333;stroke:#333333;}#my-svg .marker.cross{stroke:#333333;}#my-svg svg{font-family:"trebuchet ms",verdana,arial,sans-serif;font-size:16px;}#my-svg p{margin:0;}#my-svg .entityBox{fill:#ECECFF;stroke:#9370DB;}#my-svg .attributeBoxOdd{fill:#ffffff;stroke:#9370DB;}#my-svg .attributeBoxEven{fill:#f2f2f2;stroke:#9370DB;}#my-svg .relationshipLabelBox{fill:hsl(80, 100%, 96.2745098039%);opacity:0.7;background-color:hsl(80, 100%, 96.2745098039%);}#my-svg .relationshipLabelBox rect{opacity:0.5;}#my-svg .relationshipLine{stroke:#333333;}#my-svg .entityTitleText{text-anchor:middle;font-size:18px;fill:#333;}#my-svg #MD_PARENT_START{fill:#f5f5f5!important;stroke:#333333!important;stroke-width:1;}#my-svg #MD_PARENT_END{fill:#f5f5f5!important;stroke:#333333!important;stroke-width:1;}#my-svg :root{--mermaid-font-family:"trebuchet ms",verdana,arial,sans-serif;}</style><g/><defs><marker orient="auto" markerHeight="240" markerWidth="190" refY="7" refX="0" id="MD_PARENT_START"><path d="M 18,7 L9,13 L1,7 L9,1 Z"/></marker></defs><defs><marker orient="auto" markerHeight="28" markerWidth="20" refY="7" refX="19" id="MD_PARENT_END"><path d="M 18,7 L9,13 L1,7 L9,1 Z"/></marker></defs><defs><marker orient="auto" markerHeight="18" markerWidth="18" refY="9" refX="0" id="ONLY_ONE_START"><path d="M9,0 L9,18 M15,0 L15,18" fill="none" stroke="gray"/></marker></defs><defs><marker orient="auto" markerHeight="18" markerWidth="18" refY="9" refX="18" id="ONLY_ONE_END"><path d="M3,0 L3,18 M9,0 L9,18" fill="none" stroke="gray"/></marker></defs><defs><marker orient="auto" markerHeight="18" markerWidth="30" refY="9" refX="0" id="ZERO_OR_ONE_START"><circle r="6" cy="9" cx="21" fill="white" stroke="gray"/><path d="M9,0 L9,18" fill="none" stroke="gray"/></marker></defs><defs><marker orient="auto" markerHeight="18" markerWidth="30" refY="9" refX="30" id="ZERO_OR_ONE_END"><circle r="6" cy="9" cx="9" fill="white" stroke="gray"/><path d="M21,0 L21,18" fill="none" stroke="gray"/></marker></defs><defs><marker orient="auto" markerHeight="36" markerWidth="45" refY="18" refX="18" id="ONE_OR_MORE_START"><path d="M0,18 Q 18,0 36,18 Q 18,36 0,18 M42,9 L42,27" fill="none" stroke="gray"/></marker></defs><defs><marker orient="auto" markerHeight="36" markerWidth="45" refY="18" refX="27" id="ONE_OR_MORE_END"><path d="M3,9 L3,27 M9,18 Q27,0 45,18 Q27,36 9,18" fill="none" stroke="gray"/></marker></defs><defs><marker orient="auto" markerHeight="36" markerWidth="57" refY="18" refX="18" id="ZERO_OR_MORE_START"><circle r="6" cy="18" cx="48" fill="white" stroke="gray"/><path d="M0,18 Q18,0 36,18 Q18,36 0,18" fill="none" stroke="gray"/></marker></defs><defs><marker orient="auto" markerHeight="36" markerWidth="57" refY="18" refX="39" id="ZERO_OR_MORE_END"><circle r="6" cy="18" cx="9" fill="white" stroke="gray"/><path d="M21,18 Q39,0 57,18 Q39,36 21,18" fill="none" stroke="gray"/></marker></defs><path style="stroke: gray; fill: none;" marker-start="url(#ONLY_ONE_START)" marker-end="url(#ZERO_OR_MORE_END)" d="M88.141,110.184L88.141,118.517C88.141,126.85,88.141,143.517,92.52,160.184C96.9,176.85,105.659,193.517,110.039,201.85L114.418,210.184" class="er relationshipLine"/><path style="stroke: gray; fill: none;" marker-start="url(#ZERO_OR_ONE_START)" marker-end="url(#ONLY_ONE_END)" d="M313.507,110.138L303.82,118.479C294.132,126.82,274.758,143.502,254.801,160.176C234.844,176.85,214.305,193.517,204.035,201.85L193.766,210.184" class="er relationshipLine"/><path style="stroke: gray; fill: none;" marker-start="url(#ZERO_OR_MORE_START)" marker-end="url(#ZERO_OR_ONE_END)" d="M389.51,110.138L393.895,118.479C398.281,126.82,407.053,143.502,411.438,163.866C415.824,184.229,415.824,208.275,415.824,220.298L415.824,232.321" class="er relationshipLine"/><g transform="translate(20,20 )" id="entity-Entreprise-8c1e1a80-c46b-5e62-b08c-2b348945101f"><rect height="90.18359470367432" width="136.28125" y="0" x="0" class="er entityBox"/><text style="dominant-baseline: middle; text-anchor: middle; font-size: 12px;" transform="translate(68.140625,12)" y="0" x="0" id="text-entity-Entreprise-8c1e1a80-c46b-5e62-b08c-2b348945101f" class="er entityLabel">Entreprise</text><rect height="22.091797828674316" width="32.890625" y="24" x="0" class="er attributeBoxOdd"/><text style="dominant-baseline: middle; font-size: 10.2px;" transform="translate(5,35.04589891433716)" y="0" x="0" id="text-entity-Entreprise-8c1e1a80-c46b-5e62-b08c-2b348945101f-attr-1-type" class="er entityLabel">TYPE</text><rect height="22.091797828674316" width="81.828125" y="24" x="32.890625" class="er attributeBoxOdd"/><text style="dominant-baseline: middle; font-size: 10.2px;" transform="translate(37.890625,35.04589891433716)" y="0" x="0" id="text-entity-Entreprise-8c1e1a80-c46b-5e62-b08c-2b348945101f-attr-1-name" class="er entityLabel">nom_entreprise</text><rect height="22.091797828674316" width="21.5625" y="24" x="114.71875" class="er attributeBoxOdd"/><text style="dominant-baseline: middle; font-size: 10.2px;" transform="translate(119.71875,35.04589891433716)" y="0" x="0" id="text-entity-Entreprise-8c1e1a80-c46b-5e62-b08c-2b348945101f-attr-1-key" class="er entityLabel">PK</text><rect height="22" width="32.890625" y="46.091797828674316" x="0" class="er attributeBoxEven"/><text style="dominant-baseline: middle; font-size: 10.2px;" transform="translate(5,57.091797828674316)" y="0" x="0" id="text-entity-Entreprise-8c1e1a80-c46b-5e62-b08c-2b348945101f-attr-2-type" class="er entityLabel">TYPE</text><rect height="22" width="81.828125" y="46.091797828674316" x="32.890625" class="er attributeBoxEven"/><text style="dominant-baseline: middle; font-size: 10.2px;" transform="translate(37.890625,57.091797828674316)" y="0" x="0" id="text-entity-Entreprise-8c1e1a80-c46b-5e62-b08c-2b348945101f-attr-2-name" class="er entityLabel">adresse</text><rect height="22" width="21.5625" y="46.091797828674316" x="114.71875" class="er attributeBoxEven"/><text style="dominant-baseline: middle; font-size: 10.2px;" transform="translate(119.71875,57.091797828674316)" y="0" x="0" id="text-entity-Entreprise-8c1e1a80-c46b-5e62-b08c-2b348945101f-attr-2-key" class="er entityLabel"/><rect height="22.091796875" width="32.890625" y="68.09179782867432" x="0" class="er attributeBoxOdd"/><text style="dominant-baseline: middle; font-size: 10.2px;" transform="translate(5,79.13769626617432)" y="0" x="0" id="text-entity-Entreprise-8c1e1a80-c46b-5e62-b08c-2b348945101f-attr-3-type" class="er entityLabel">TYPE</text><rect height="22.091796875" width="81.828125" y="68.09179782867432" x="32.890625" class="er attributeBoxOdd"/><text style="dominant-baseline: middle; font-size: 10.2px;" transform="translate(37.890625,79.13769626617432)" y="0" x="0" id="text-entity-Entreprise-8c1e1a80-c46b-5e62-b08c-2b348945101f-attr-3-name" class="er entityLabel">telephone</text><rect height="22.091796875" width="21.5625" y="68.09179782867432" x="114.71875" class="er attributeBoxOdd"/><text style="dominant-baseline: middle; font-size: 10.2px;" transform="translate(119.71875,79.13769626617432)" y="0" x="0" id="text-entity-Entreprise-8c1e1a80-c46b-5e62-b08c-2b348945101f-attr-3-key" class="er entityLabel"/></g><g transform="translate(67.2578125,210.18359375 )" id="entity-Stage-7b8b4ec3-d984-5f8d-89c2-50e79d244961"><rect height="90.27539157867432" width="141.765625" y="0" x="0" class="er entityBox"/><text style="dominant-baseline: middle; text-anchor: middle; font-size: 12px;" transform="translate(70.8828125,12)" y="0" x="0" id="text-entity-Stage-7b8b4ec3-d984-5f8d-89c2-50e79d244961" class="er entityLabel">Stage</text><rect height="22.091796875" width="32.890625" y="24" x="0" class="er attributeBoxOdd"/><text style="dominant-baseline: middle; font-size: 10.2px;" transform="translate(5,35.0458984375)" y="0" x="0" id="text-entity-Stage-7b8b4ec3-d984-5f8d-89c2-50e79d244961-attr-1-type" class="er entityLabel">TYPE</text><rect height="22.091796875" width="87.3125" y="24" x="32.890625" class="er attributeBoxOdd"/><text style="dominant-baseline: middle; font-size: 10.2px;" transform="translate(37.890625,35.0458984375)" y="0" x="0" id="text-entity-Stage-7b8b4ec3-d984-5f8d-89c2-50e79d244961-attr-1-name" class="er entityLabel">num_stage</text><rect height="22.091796875" width="21.5625" y="24" x="120.203125" class="er attributeBoxOdd"/><text style="dominant-baseline: middle; font-size: 10.2px;" transform="translate(125.203125,35.0458984375)" y="0" x="0" id="text-entity-Stage-7b8b4ec3-d984-5f8d-89c2-50e79d244961-attr-1-key" class="er entityLabel">PK</text><rect height="22.091797828674316" width="32.890625" y="46.091796875" x="0" class="er attributeBoxEven"/><text style="dominant-baseline: middle; font-size: 10.2px;" transform="translate(5,57.13769578933716)" y="0" x="0" id="text-entity-Stage-7b8b4ec3-d984-5f8d-89c2-50e79d244961-attr-2-type" class="er entityLabel">TYPE</text><rect height="22.091797828674316" width="87.3125" y="46.091796875" x="32.890625" class="er attributeBoxEven"/><text style="dominant-baseline: middle; font-size: 10.2px;" transform="translate(37.890625,57.13769578933716)" y="0" x="0" id="text-entity-Stage-7b8b4ec3-d984-5f8d-89c2-50e79d244961-attr-2-name" class="er entityLabel">sujet</text><rect height="22.091797828674316" width="21.5625" y="46.091796875" x="120.203125" class="er attributeBoxEven"/><text style="dominant-baseline: middle; font-size: 10.2px;" transform="translate(125.203125,57.13769578933716)" y="0" x="0" id="text-entity-Stage-7b8b4ec3-d984-5f8d-89c2-50e79d244961-attr-2-key" class="er entityLabel"/><rect height="22.091796875" width="32.890625" y="68.18359470367432" x="0" class="er attributeBoxOdd"/><text style="dominant-baseline: middle; font-size: 10.2px;" transform="translate(5,79.22949314117432)" y="0" x="0" id="text-entity-Stage-7b8b4ec3-d984-5f8d-89c2-50e79d244961-attr-3-type" class="er entityLabel">TYPE</text><rect height="22.091796875" width="87.3125" y="68.18359470367432" x="32.890625" class="er attributeBoxOdd"/><text style="dominant-baseline: middle; font-size: 10.2px;" transform="translate(37.890625,79.22949314117432)" y="0" x="0" id="text-entity-Stage-7b8b4ec3-d984-5f8d-89c2-50e79d244961-attr-3-name" class="er entityLabel">date_proposition</text><rect height="22.091796875" width="21.5625" y="68.18359470367432" x="120.203125" class="er attributeBoxOdd"/><text style="dominant-baseline: middle; font-size: 10.2px;" transform="translate(125.203125,79.22949314117432)" y="0" x="0" id="text-entity-Stage-7b8b4ec3-d984-5f8d-89c2-50e79d244961-attr-3-key" class="er entityLabel"/></g><g transform="translate(299.48046875,20.0458984375 )" id="entity-Etudiant-2cb87999-11c5-513f-bf39-ea5009a9e822"><rect height="90.091796875" width="132.6875" y="0" x="0" class="er entityBox"/><text style="dominant-baseline: middle; text-anchor: middle; font-size: 12px;" transform="translate(66.34375,12)" y="0" x="0" id="text-entity-Etudiant-2cb87999-11c5-513f-bf39-ea5009a9e822" class="er entityLabel">Etudiant</text><rect height="22" width="32.890625" y="24" x="0" class="er attributeBoxOdd"/><text style="dominant-baseline: middle; font-size: 10.2px;" transform="translate(5,35)" y="0" x="0" id="text-entity-Etudiant-2cb87999-11c5-513f-bf39-ea5009a9e822-attr-1-type" class="er entityLabel">TYPE</text><rect height="22" width="78.234375" y="24" x="32.890625" class="er attributeBoxOdd"/><text style="dominant-baseline: middle; font-size: 10.2px;" transform="translate(37.890625,35)" y="0" x="0" id="text-entity-Etudiant-2cb87999-11c5-513f-bf39-ea5009a9e822-attr-1-name" class="er entityLabel">num_etudiant</text><rect height="22" width="21.5625" y="24" x="111.125" class="er attributeBoxOdd"/><text style="dominant-baseline: middle; font-size: 10.2px;" transform="translate(116.125,35)" y="0" x="0" id="text-entity-Etudiant-2cb87999-11c5-513f-bf39-ea5009a9e822-attr-1-key" class="er entityLabel">PK</text><rect height="22" width="32.890625" y="46" x="0" class="er attributeBoxEven"/><text style="dominant-baseline: middle; font-size: 10.2px;" transform="translate(5,57)" y="0" x="0" id="text-entity-Etudiant-2cb87999-11c5-513f-bf39-ea5009a9e822-attr-2-type" class="er entityLabel">TYPE</text><rect height="22" width="78.234375" y="46" x="32.890625" class="er attributeBoxEven"/><text style="dominant-baseline: middle; font-size: 10.2px;" transform="translate(37.890625,57)" y="0" x="0" id="text-entity-Etudiant-2cb87999-11c5-513f-bf39-ea5009a9e822-attr-2-name" class="er entityLabel">nom</text><rect height="22" width="21.5625" y="46" x="111.125" class="er attributeBoxEven"/><text style="dominant-baseline: middle; font-size: 10.2px;" transform="translate(116.125,57)" y="0" x="0" id="text-entity-Etudiant-2cb87999-11c5-513f-bf39-ea5009a9e822-attr-2-key" class="er entityLabel"/><rect height="22.091796875" width="32.890625" y="68" x="0" class="er attributeBoxOdd"/><text style="dominant-baseline: middle; font-size: 10.2px;" transform="translate(5,79.0458984375)" y="0" x="0" id="text-entity-Etudiant-2cb87999-11c5-513f-bf39-ea5009a9e822-attr-3-type" class="er entityLabel">TYPE</text><rect height="22.091796875" width="78.234375" y="68" x="32.890625" class="er attributeBoxOdd"/><text style="dominant-baseline: middle; font-size: 10.2px;" transform="translate(37.890625,79.0458984375)" y="0" x="0" id="text-entity-Etudiant-2cb87999-11c5-513f-bf39-ea5009a9e822-attr-3-name" class="er entityLabel">date_signature</text><rect height="22.091796875" width="21.5625" y="68" x="111.125" class="er attributeBoxOdd"/><text style="dominant-baseline: middle; font-size: 10.2px;" transform="translate(116.125,79.0458984375)" y="0" x="0" id="text-entity-Etudiant-2cb87999-11c5-513f-bf39-ea5009a9e822-attr-3-key" class="er entityLabel"/></g><g transform="translate(365.82421875,232.3212890625 )" id="entity-Date-7e62fd57-a538-5b88-8dc2-5a8d536e6d1b"><rect height="46" width="100" y="0" x="0" class="er entityBox"/><text style="dominant-baseline: middle; text-anchor: middle; font-size: 12px;" transform="translate(50,12)" y="0" x="0" id="text-entity-Date-7e62fd57-a538-5b88-8dc2-5a8d536e6d1b" class="er entityLabel">Date</text><rect height="22" width="37.854166666666664" y="24" x="0" class="er attributeBoxOdd"/><text style="dominant-baseline: middle; font-size: 10.2px;" transform="translate(5,35)" y="0" x="0" id="text-entity-Date-7e62fd57-a538-5b88-8dc2-5a8d536e6d1b-attr-1-type" class="er entityLabel">TYPE</text><rect height="22" width="35.619791666666664" y="24" x="37.854166666666664" class="er attributeBoxOdd"/><text style="dominant-baseline: middle; font-size: 10.2px;" transform="translate(42.854166666666664,35)" y="0" x="0" id="text-entity-Date-7e62fd57-a538-5b88-8dc2-5a8d536e6d1b-attr-1-name" class="er entityLabel">date</text><rect height="22" width="26.526041666666668" y="24" x="73.47395833333333" class="er attributeBoxOdd"/><text style="dominant-baseline: middle; font-size: 10.2px;" transform="translate(78.47395833333333,35)" y="0" x="0" id="text-entity-Date-7e62fd57-a538-5b88-8dc2-5a8d536e6d1b-attr-1-key" class="er entityLabel">PK</text></g><rect height="14" width="46.4375" y="155.2870635986328" x="69.87690734863281" class="er relationshipLabelBox"/><text style="text-anchor: middle; dominant-baseline: middle; font-size: 12px;" y="162.2870635986328" x="93.09565734863281" id="rel1" class="er relationshipLabel">Proposer</text><rect height="14" width="49.140625" y="153.74215698242188" x="229.5518341064453" class="er relationshipLabelBox"/><text style="text-anchor: middle; dominant-baseline: middle; font-size: 12px;" y="160.74215698242188" x="254.1221466064453" id="rel2" class="er relationshipLabel">Attribuer</text><rect height="14" width="44.71875" y="162.0117645263672" x="390.0838623046875" class="er relationshipLabelBox"/><text style="text-anchor: middle; dominant-baseline: middle; font-size: 12px;" y="169.0117645263672" x="412.4432373046875" id="rel3" class="er relationshipLabel">Soutenir</text></svg>