<svg aria-roledescription="er" role="graphics-document document" viewBox="0 0 398.25 576.91796875" style="max-width: 398.25px; background-color: white;" xmlns:xlink="http://www.w3.org/1999/xlink" xmlns="http://www.w3.org/2000/svg" width="100%" id="my-svg"><style>#my-svg{font-family:"trebuchet ms",verdana,arial,sans-serif;font-size:16px;fill:#333;}#my-svg .error-icon{fill:#552222;}#my-svg .error-text{fill:#552222;stroke:#552222;}#my-svg .edge-thickness-normal{stroke-width:1px;}#my-svg .edge-thickness-thick{stroke-width:3.5px;}#my-svg .edge-pattern-solid{stroke-dasharray:0;}#my-svg .edge-thickness-invisible{stroke-width:0;fill:none;}#my-svg .edge-pattern-dashed{stroke-dasharray:3;}#my-svg .edge-pattern-dotted{stroke-dasharray:2;}#my-svg .marker{fill:#333333;stroke:#333333;}#my-svg .marker.cross{stroke:#333333;}#my-svg svg{font-family:"trebuchet ms",verdana,arial,sans-serif;font-size:16px;}#my-svg p{margin:0;}#my-svg .entityBox{fill:#ECECFF;stroke:#9370DB;}#my-svg .attributeBoxOdd{fill:#ffffff;stroke:#9370DB;}#my-svg .attributeBoxEven{fill:#f2f2f2;stroke:#9370DB;}#my-svg .relationshipLabelBox{fill:hsl(80, 100%, 96.2745098039%);opacity:0.7;background-color:hsl(80, 100%, 96.2745098039%);}#my-svg .relationshipLabelBox rect{opacity:0.5;}#my-svg .relationshipLine{stroke:#333333;}#my-svg .entityTitleText{text-anchor:middle;font-size:18px;fill:#333;}#my-svg #MD_PARENT_START{fill:#f5f5f5!important;stroke:#333333!important;stroke-width:1;}#my-svg #MD_PARENT_END{fill:#f5f5f5!important;stroke:#333333!important;stroke-width:1;}#my-svg :root{--mermaid-font-family:"trebuchet ms",verdana,arial,sans-serif;}</style><g/><defs><marker orient="auto" markerHeight="240" markerWidth="190" refY="7" refX="0" id="MD_PARENT_START"><path d="M 18,7 L9,13 L1,7 L9,1 Z"/></marker></defs><defs><marker orient="auto" markerHeight="28" markerWidth="20" refY="7" refX="19" id="MD_PARENT_END"><path d="M 18,7 L9,13 L1,7 L9,1 Z"/></marker></defs><defs><marker orient="auto" markerHeight="18" markerWidth="18" refY="9" refX="0" id="ONLY_ONE_START"><path d="M9,0 L9,18 M15,0 L15,18" fill="none" stroke="gray"/></marker></defs><defs><marker orient="auto" markerHeight="18" markerWidth="18" refY="9" refX="18" id="ONLY_ONE_END"><path d="M3,0 L3,18 M9,0 L9,18" fill="none" stroke="gray"/></marker></defs><defs><marker orient="auto" markerHeight="18" markerWidth="30" refY="9" refX="0" id="ZERO_OR_ONE_START"><circle r="6" cy="9" cx="21" fill="white" stroke="gray"/><path d="M9,0 L9,18" fill="none" stroke="gray"/></marker></defs><defs><marker orient="auto" markerHeight="18" markerWidth="30" refY="9" refX="30" id="ZERO_OR_ONE_END"><circle r="6" cy="9" cx="9" fill="white" stroke="gray"/><path d="M21,0 L21,18" fill="none" stroke="gray"/></marker></defs><defs><marker orient="auto" markerHeight="36" markerWidth="45" refY="18" refX="18" id="ONE_OR_MORE_START"><path d="M0,18 Q 18,0 36,18 Q 18,36 0,18 M42,9 L42,27" fill="none" stroke="gray"/></marker></defs><defs><marker orient="auto" markerHeight="36" markerWidth="45" refY="18" refX="27" id="ONE_OR_MORE_END"><path d="M3,9 L3,27 M9,18 Q27,0 45,18 Q27,36 9,18" fill="none" stroke="gray"/></marker></defs><defs><marker orient="auto" markerHeight="36" markerWidth="57" refY="18" refX="18" id="ZERO_OR_MORE_START"><circle r="6" cy="18" cx="48" fill="white" stroke="gray"/><path d="M0,18 Q18,0 36,18 Q18,36 0,18" fill="none" stroke="gray"/></marker></defs><defs><marker orient="auto" markerHeight="36" markerWidth="57" refY="18" refX="39" id="ZERO_OR_MORE_END"><circle r="6" cy="18" cx="9" fill="white" stroke="gray"/><path d="M21,18 Q39,0 57,18 Q39,36 21,18" fill="none" stroke="gray"/></marker></defs><path style="stroke: gray; fill: none;" marker-start="url(#ONLY_ONE_START)" marker-end="url(#ZERO_OR_MORE_END)" d="M81.766,132.275L81.766,140.609C81.766,148.942,81.766,165.609,81.766,182.298C81.766,198.988,81.766,215.701,81.766,224.057L81.766,232.413" class="er relationshipLine"/><path style="stroke: gray; fill: none;" marker-start="url(#ONLY_ONE_START)" marker-end="url(#ONE_OR_MORE_END)" d="M81.766,344.505L81.766,352.861C81.766,361.217,81.766,377.93,91.5,395.305C101.234,412.68,120.703,430.717,130.438,439.735L140.172,448.754" class="er relationshipLine"/><path style="stroke: gray; fill: none;" marker-start="url(#ONLY_ONE_START)" marker-end="url(#ZERO_OR_MORE_END)" d="M310.891,344.643L310.891,352.976C310.891,361.309,310.891,377.976,301.156,395.328C291.422,412.68,271.953,430.717,262.219,439.735L252.484,448.754" class="er relationshipLine"/><g transform="translate(20,20 )" id="entity-CUSTOMERS-f16d4b86-fdce-5504-97dd-e4b4cdf26b8c"><rect height="112.27539348602295" width="123.53125" y="0" x="0" class="er entityBox"/><text style="dominant-baseline: middle; text-anchor: middle; font-size: 12px;" transform="translate(61.765625,12)" y="0" x="0" id="text-entity-CUSTOMERS-f16d4b86-fdce-5504-97dd-e4b4cdf26b8c" class="er entityLabel">CUSTOMERS</text><rect height="22" width="35.75" y="24" x="0" class="er attributeBoxOdd"/><text style="dominant-baseline: middle; font-size: 10.2px;" transform="translate(5,35)" y="0" x="0" id="text-entity-CUSTOMERS-f16d4b86-fdce-5504-97dd-e4b4cdf26b8c-attr-1-type" class="er entityLabel">int</text><rect height="22" width="66.21875" y="24" x="35.75" class="er attributeBoxOdd"/><text style="dominant-baseline: middle; font-size: 10.2px;" transform="translate(40.75,35)" y="0" x="0" id="text-entity-CUSTOMERS-f16d4b86-fdce-5504-97dd-e4b4cdf26b8c-attr-1-name" class="er entityLabel">customer_id</text><rect height="22" width="21.5625" y="24" x="101.96875" class="er attributeBoxOdd"/><text style="dominant-baseline: middle; font-size: 10.2px;" transform="translate(106.96875,35)" y="0" x="0" id="text-entity-CUSTOMERS-f16d4b86-fdce-5504-97dd-e4b4cdf26b8c-attr-1-key" class="er entityLabel">PK</text><rect height="22.091797828674316" width="35.75" y="46" x="0" class="er attributeBoxEven"/><text style="dominant-baseline: middle; font-size: 10.2px;" transform="translate(5,57.04589891433716)" y="0" x="0" id="text-entity-CUSTOMERS-f16d4b86-fdce-5504-97dd-e4b4cdf26b8c-attr-2-type" class="er entityLabel">string</text><rect height="22.091797828674316" width="66.21875" y="46" x="35.75" class="er attributeBoxEven"/><text style="dominant-baseline: middle; font-size: 10.2px;" transform="translate(40.75,57.04589891433716)" y="0" x="0" id="text-entity-CUSTOMERS-f16d4b86-fdce-5504-97dd-e4b4cdf26b8c-attr-2-name" class="er entityLabel">name</text><rect height="22.091797828674316" width="21.5625" y="46" x="101.96875" class="er attributeBoxEven"/><text style="dominant-baseline: middle; font-size: 10.2px;" transform="translate(106.96875,57.04589891433716)" y="0" x="0" id="text-entity-CUSTOMERS-f16d4b86-fdce-5504-97dd-e4b4cdf26b8c-attr-2-key" class="er entityLabel"/><rect height="22.091797828674316" width="35.75" y="68.09179782867432" x="0" class="er attributeBoxOdd"/><text style="dominant-baseline: middle; font-size: 10.2px;" transform="translate(5,79.13769674301147)" y="0" x="0" id="text-entity-CUSTOMERS-f16d4b86-fdce-5504-97dd-e4b4cdf26b8c-attr-3-type" class="er entityLabel">string</text><rect height="22.091797828674316" width="66.21875" y="68.09179782867432" x="35.75" class="er attributeBoxOdd"/><text style="dominant-baseline: middle; font-size: 10.2px;" transform="translate(40.75,79.13769674301147)" y="0" x="0" id="text-entity-CUSTOMERS-f16d4b86-fdce-5504-97dd-e4b4cdf26b8c-attr-3-name" class="er entityLabel">email</text><rect height="22.091797828674316" width="21.5625" y="68.09179782867432" x="101.96875" class="er attributeBoxOdd"/><text style="dominant-baseline: middle; font-size: 10.2px;" transform="translate(106.96875,79.13769674301147)" y="0" x="0" id="text-entity-CUSTOMERS-f16d4b86-fdce-5504-97dd-e4b4cdf26b8c-attr-3-key" class="er entityLabel"/><rect height="22.091797828674316" width="35.75" y="90.18359565734863" x="0" class="er attributeBoxEven"/><text style="dominant-baseline: middle; font-size: 10.2px;" transform="translate(5,101.22949457168579)" y="0" x="0" id="text-entity-CUSTOMERS-f16d4b86-fdce-5504-97dd-e4b4cdf26b8c-attr-4-type" class="er entityLabel">string</text><rect height="22.091797828674316" width="66.21875" y="90.18359565734863" x="35.75" class="er attributeBoxEven"/><text style="dominant-baseline: middle; font-size: 10.2px;" transform="translate(40.75,101.22949457168579)" y="0" x="0" id="text-entity-CUSTOMERS-f16d4b86-fdce-5504-97dd-e4b4cdf26b8c-attr-4-name" class="er entityLabel">address</text><rect height="22.091797828674316" width="21.5625" y="90.18359565734863" x="101.96875" class="er attributeBoxEven"/><text style="dominant-baseline: middle; font-size: 10.2px;" transform="translate(106.96875,101.22949457168579)" y="0" x="0" id="text-entity-CUSTOMERS-f16d4b86-fdce-5504-97dd-e4b4cdf26b8c-attr-4-key" class="er entityLabel"/></g><g transform="translate(20,232.4130859375 )" id="entity-ORDERS-892fdbd0-1a6d-547f-b5d2-5ca9e20e885e"><rect height="112.09179782867432" width="123.53125" y="0" x="0" class="er entityBox"/><text style="dominant-baseline: middle; text-anchor: middle; font-size: 12px;" transform="translate(61.765625,12)" y="0" x="0" id="text-entity-ORDERS-892fdbd0-1a6d-547f-b5d2-5ca9e20e885e" class="er entityLabel">ORDERS</text><rect height="22" width="35.75" y="24" x="0" class="er attributeBoxOdd"/><text style="dominant-baseline: middle; font-size: 10.2px;" transform="translate(5,35)" y="0" x="0" id="text-entity-ORDERS-892fdbd0-1a6d-547f-b5d2-5ca9e20e885e-attr-1-type" class="er entityLabel">int</text><rect height="22" width="66.21875" y="24" x="35.75" class="er attributeBoxOdd"/><text style="dominant-baseline: middle; font-size: 10.2px;" transform="translate(40.75,35)" y="0" x="0" id="text-entity-ORDERS-892fdbd0-1a6d-547f-b5d2-5ca9e20e885e-attr-1-name" class="er entityLabel">order_id</text><rect height="22" width="21.5625" y="24" x="101.96875" class="er attributeBoxOdd"/><text style="dominant-baseline: middle; font-size: 10.2px;" transform="translate(106.96875,35)" y="0" x="0" id="text-entity-ORDERS-892fdbd0-1a6d-547f-b5d2-5ca9e20e885e-attr-1-key" class="er entityLabel">PK</text><rect height="22" width="35.75" y="46" x="0" class="er attributeBoxEven"/><text style="dominant-baseline: middle; font-size: 10.2px;" transform="translate(5,57)" y="0" x="0" id="text-entity-ORDERS-892fdbd0-1a6d-547f-b5d2-5ca9e20e885e-attr-2-type" class="er entityLabel">int</text><rect height="22" width="66.21875" y="46" x="35.75" class="er attributeBoxEven"/><text style="dominant-baseline: middle; font-size: 10.2px;" transform="translate(40.75,57)" y="0" x="0" id="text-entity-ORDERS-892fdbd0-1a6d-547f-b5d2-5ca9e20e885e-attr-2-name" class="er entityLabel">customer_id</text><rect height="22" width="21.5625" y="46" x="101.96875" class="er attributeBoxEven"/><text style="dominant-baseline: middle; font-size: 10.2px;" transform="translate(106.96875,57)" y="0" x="0" id="text-entity-ORDERS-892fdbd0-1a6d-547f-b5d2-5ca9e20e885e-attr-2-key" class="er entityLabel">FK</text><rect height="22" width="35.75" y="68" x="0" class="er attributeBoxOdd"/><text style="dominant-baseline: middle; font-size: 10.2px;" transform="translate(5,79)" y="0" x="0" id="text-entity-ORDERS-892fdbd0-1a6d-547f-b5d2-5ca9e20e885e-attr-3-type" class="er entityLabel">date</text><rect height="22" width="66.21875" y="68" x="35.75" class="er attributeBoxOdd"/><text style="dominant-baseline: middle; font-size: 10.2px;" transform="translate(40.75,79)" y="0" x="0" id="text-entity-ORDERS-892fdbd0-1a6d-547f-b5d2-5ca9e20e885e-attr-3-name" class="er entityLabel">order_date</text><rect height="22" width="21.5625" y="68" x="101.96875" class="er attributeBoxOdd"/><text style="dominant-baseline: middle; font-size: 10.2px;" transform="translate(106.96875,79)" y="0" x="0" id="text-entity-ORDERS-892fdbd0-1a6d-547f-b5d2-5ca9e20e885e-attr-3-key" class="er entityLabel"/><rect height="22.091797828674316" width="35.75" y="90" x="0" class="er attributeBoxEven"/><text style="dominant-baseline: middle; font-size: 10.2px;" transform="translate(5,101.04589891433716)" y="0" x="0" id="text-entity-ORDERS-892fdbd0-1a6d-547f-b5d2-5ca9e20e885e-attr-4-type" class="er entityLabel">string</text><rect height="22.091797828674316" width="66.21875" y="90" x="35.75" class="er attributeBoxEven"/><text style="dominant-baseline: middle; font-size: 10.2px;" transform="translate(40.75,101.04589891433716)" y="0" x="0" id="text-entity-ORDERS-892fdbd0-1a6d-547f-b5d2-5ca9e20e885e-attr-4-name" class="er entityLabel">status</text><rect height="22.091797828674316" width="21.5625" y="90" x="101.96875" class="er attributeBoxEven"/><text style="dominant-baseline: middle; font-size: 10.2px;" transform="translate(106.96875,101.04589891433716)" y="0" x="0" id="text-entity-ORDERS-892fdbd0-1a6d-547f-b5d2-5ca9e20e885e-attr-4-key" class="er entityLabel"/></g><g transform="translate(140.171875,444.642578125 )" id="entity-ORDERITEMS-d4ca6fa3-4379-50e4-9502-93d20129943c"><rect height="112.27539253234863" width="112.3125" y="0" x="0" class="er entityBox"/><text style="dominant-baseline: middle; text-anchor: middle; font-size: 12px;" transform="translate(56.15625,12)" y="0" x="0" id="text-entity-ORDERITEMS-d4ca6fa3-4379-50e4-9502-93d20129943c" class="er entityLabel">ORDER_ITEMS</text><rect height="22" width="31.65625" y="24" x="0" class="er attributeBoxOdd"/><text style="dominant-baseline: middle; font-size: 10.2px;" transform="translate(5,35)" y="0" x="0" id="text-entity-ORDERITEMS-d4ca6fa3-4379-50e4-9502-93d20129943c-attr-1-type" class="er entityLabel">int</text><rect height="22" width="59.421875" y="24" x="31.65625" class="er attributeBoxOdd"/><text style="dominant-baseline: middle; font-size: 10.2px;" transform="translate(36.65625,35)" y="0" x="0" id="text-entity-ORDERITEMS-d4ca6fa3-4379-50e4-9502-93d20129943c-attr-1-name" class="er entityLabel">order_id</text><rect height="22" width="21.234375" y="24" x="91.078125" class="er attributeBoxOdd"/><text style="dominant-baseline: middle; font-size: 10.2px;" transform="translate(96.078125,35)" y="0" x="0" id="text-entity-ORDERITEMS-d4ca6fa3-4379-50e4-9502-93d20129943c-attr-1-key" class="er entityLabel">FK</text><rect height="22.091796875" width="31.65625" y="46" x="0" class="er attributeBoxEven"/><text style="dominant-baseline: middle; font-size: 10.2px;" transform="translate(5,57.0458984375)" y="0" x="0" id="text-entity-ORDERITEMS-d4ca6fa3-4379-50e4-9502-93d20129943c-attr-2-type" class="er entityLabel">int</text><rect height="22.091796875" width="59.421875" y="46" x="31.65625" class="er attributeBoxEven"/><text style="dominant-baseline: middle; font-size: 10.2px;" transform="translate(36.65625,57.0458984375)" y="0" x="0" id="text-entity-ORDERITEMS-d4ca6fa3-4379-50e4-9502-93d20129943c-attr-2-name" class="er entityLabel">product_id</text><rect height="22.091796875" width="21.234375" y="46" x="91.078125" class="er attributeBoxEven"/><text style="dominant-baseline: middle; font-size: 10.2px;" transform="translate(96.078125,57.0458984375)" y="0" x="0" id="text-entity-ORDERITEMS-d4ca6fa3-4379-50e4-9502-93d20129943c-attr-2-key" class="er entityLabel">FK</text><rect height="22.091797828674316" width="31.65625" y="68.091796875" x="0" class="er attributeBoxOdd"/><text style="dominant-baseline: middle; font-size: 10.2px;" transform="translate(5,79.13769578933716)" y="0" x="0" id="text-entity-ORDERITEMS-d4ca6fa3-4379-50e4-9502-93d20129943c-attr-3-type" class="er entityLabel">int</text><rect height="22.091797828674316" width="59.421875" y="68.091796875" x="31.65625" class="er attributeBoxOdd"/><text style="dominant-baseline: middle; font-size: 10.2px;" transform="translate(36.65625,79.13769578933716)" y="0" x="0" id="text-entity-ORDERITEMS-d4ca6fa3-4379-50e4-9502-93d20129943c-attr-3-name" class="er entityLabel">quantity</text><rect height="22.091797828674316" width="21.234375" y="68.091796875" x="91.078125" class="er attributeBoxOdd"/><text style="dominant-baseline: middle; font-size: 10.2px;" transform="translate(96.078125,79.13769578933716)" y="0" x="0" id="text-entity-ORDERITEMS-d4ca6fa3-4379-50e4-9502-93d20129943c-attr-3-key" class="er entityLabel"/><rect height="22.091797828674316" width="31.65625" y="90.18359470367432" x="0" class="er attributeBoxEven"/><text style="dominant-baseline: middle; font-size: 10.2px;" transform="translate(5,101.22949361801147)" y="0" x="0" id="text-entity-ORDERITEMS-d4ca6fa3-4379-50e4-9502-93d20129943c-attr-4-type" class="er entityLabel">float</text><rect height="22.091797828674316" width="59.421875" y="90.18359470367432" x="31.65625" class="er attributeBoxEven"/><text style="dominant-baseline: middle; font-size: 10.2px;" transform="translate(36.65625,101.22949361801147)" y="0" x="0" id="text-entity-ORDERITEMS-d4ca6fa3-4379-50e4-9502-93d20129943c-attr-4-name" class="er entityLabel">unit_price</text><rect height="22.091797828674316" width="21.234375" y="90.18359470367432" x="91.078125" class="er attributeBoxEven"/><text style="dominant-baseline: middle; font-size: 10.2px;" transform="translate(96.078125,101.22949361801147)" y="0" x="0" id="text-entity-ORDERITEMS-d4ca6fa3-4379-50e4-9502-93d20129943c-attr-4-key" class="er entityLabel"/></g><g transform="translate(243.53125,232.275390625 )" id="entity-PRODUCTS-362c442a-463b-592a-aa0d-86bc5b21c2f4"><rect height="112.36718940734863" width="134.71875" y="0" x="0" class="er entityBox"/><text style="dominant-baseline: middle; text-anchor: middle; font-size: 12px;" transform="translate(67.359375,12)" y="0" x="0" id="text-entity-PRODUCTS-362c442a-463b-592a-aa0d-86bc5b21c2f4" class="er entityLabel">PRODUCTS</text><rect height="22.091796875" width="35.75" y="24" x="0" class="er attributeBoxOdd"/><text style="dominant-baseline: middle; font-size: 10.2px;" transform="translate(5,35.0458984375)" y="0" x="0" id="text-entity-PRODUCTS-362c442a-463b-592a-aa0d-86bc5b21c2f4-attr-1-type" class="er entityLabel">int</text><rect height="22.091796875" width="77.40625" y="24" x="35.75" class="er attributeBoxOdd"/><text style="dominant-baseline: middle; font-size: 10.2px;" transform="translate(40.75,35.0458984375)" y="0" x="0" id="text-entity-PRODUCTS-362c442a-463b-592a-aa0d-86bc5b21c2f4-attr-1-name" class="er entityLabel">product_id</text><rect height="22.091796875" width="21.5625" y="24" x="113.15625" class="er attributeBoxOdd"/><text style="dominant-baseline: middle; font-size: 10.2px;" transform="translate(118.15625,35.0458984375)" y="0" x="0" id="text-entity-PRODUCTS-362c442a-463b-592a-aa0d-86bc5b21c2f4-attr-1-key" class="er entityLabel">PK</text><rect height="22.091797828674316" width="35.75" y="46.091796875" x="0" class="er attributeBoxEven"/><text style="dominant-baseline: middle; font-size: 10.2px;" transform="translate(5,57.13769578933716)" y="0" x="0" id="text-entity-PRODUCTS-362c442a-463b-592a-aa0d-86bc5b21c2f4-attr-2-type" class="er entityLabel">string</text><rect height="22.091797828674316" width="77.40625" y="46.091796875" x="35.75" class="er attributeBoxEven"/><text style="dominant-baseline: middle; font-size: 10.2px;" transform="translate(40.75,57.13769578933716)" y="0" x="0" id="text-entity-PRODUCTS-362c442a-463b-592a-aa0d-86bc5b21c2f4-attr-2-name" class="er entityLabel">name</text><rect height="22.091797828674316" width="21.5625" y="46.091796875" x="113.15625" class="er attributeBoxEven"/><text style="dominant-baseline: middle; font-size: 10.2px;" transform="translate(118.15625,57.13769578933716)" y="0" x="0" id="text-entity-PRODUCTS-362c442a-463b-592a-aa0d-86bc5b21c2f4-attr-2-key" class="er entityLabel"/><rect height="22.091797828674316" width="35.75" y="68.18359470367432" x="0" class="er attributeBoxOdd"/><text style="dominant-baseline: middle; font-size: 10.2px;" transform="translate(5,79.22949361801147)" y="0" x="0" id="text-entity-PRODUCTS-362c442a-463b-592a-aa0d-86bc5b21c2f4-attr-3-type" class="er entityLabel">float</text><rect height="22.091797828674316" width="77.40625" y="68.18359470367432" x="35.75" class="er attributeBoxOdd"/><text style="dominant-baseline: middle; font-size: 10.2px;" transform="translate(40.75,79.22949361801147)" y="0" x="0" id="text-entity-PRODUCTS-362c442a-463b-592a-aa0d-86bc5b21c2f4-attr-3-name" class="er entityLabel">price</text><rect height="22.091797828674316" width="21.5625" y="68.18359470367432" x="113.15625" class="er attributeBoxOdd"/><text style="dominant-baseline: middle; font-size: 10.2px;" transform="translate(118.15625,79.22949361801147)" y="0" x="0" id="text-entity-PRODUCTS-362c442a-463b-592a-aa0d-86bc5b21c2f4-attr-3-key" class="er entityLabel"/><rect height="22.091796875" width="35.75" y="90.27539253234863" x="0" class="er attributeBoxEven"/><text style="dominant-baseline: middle; font-size: 10.2px;" transform="translate(5,101.32129096984863)" y="0" x="0" id="text-entity-PRODUCTS-362c442a-463b-592a-aa0d-86bc5b21c2f4-attr-4-type" class="er entityLabel">int</text><rect height="22.091796875" width="77.40625" y="90.27539253234863" x="35.75" class="er attributeBoxEven"/><text style="dominant-baseline: middle; font-size: 10.2px;" transform="translate(40.75,101.32129096984863)" y="0" x="0" id="text-entity-PRODUCTS-362c442a-463b-592a-aa0d-86bc5b21c2f4-attr-4-name" class="er entityLabel">stock_quantity</text><rect height="22.091796875" width="21.5625" y="90.27539253234863" x="113.15625" class="er attributeBoxEven"/><text style="dominant-baseline: middle; font-size: 10.2px;" transform="translate(118.15625,101.32129096984863)" y="0" x="0" id="text-entity-PRODUCTS-362c442a-463b-592a-aa0d-86bc5b21c2f4-attr-4-key" class="er entityLabel"/></g><rect height="14" width="33.875" y="175.343994140625" x="64.82849884033203" class="er relationshipLabelBox"/><text style="text-anchor: middle; dominant-baseline: middle; font-size: 12px;" y="182.343994140625" x="81.76599884033203" id="rel1" class="er relationshipLabel">places</text><rect height="14" width="44.84375" y="396.78192138671875" x="74.50824737548828" class="er relationshipLabelBox"/><text style="text-anchor: middle; dominant-baseline: middle; font-size: 12px;" y="403.78192138671875" x="96.93012237548828" id="rel2" class="er relationshipLabel">contains</text><rect height="14" width="48.85546875" y="396.8401184082031" x="271.2662658691406" class="er relationshipLabelBox"/><text style="text-anchor: middle; dominant-baseline: middle; font-size: 12px;" y="403.8401184082031" x="295.6940002441406" id="rel3" class="er relationshipLabel">is part of</text></svg>