<svg aria-roledescription="class" role="graphics-document document" viewBox="0 0 316.2734375 414" style="max-width: 316.273px; background-color: white;" class="classDiagram" xmlns:xlink="http://www.w3.org/1999/xlink" xmlns="http://www.w3.org/2000/svg" width="100%" id="my-svg"><style>#my-svg{font-family:"trebuchet ms",verdana,arial,sans-serif;font-size:16px;fill:#333;}#my-svg .error-icon{fill:#552222;}#my-svg .error-text{fill:#552222;stroke:#552222;}#my-svg .edge-thickness-normal{stroke-width:1px;}#my-svg .edge-thickness-thick{stroke-width:3.5px;}#my-svg .edge-pattern-solid{stroke-dasharray:0;}#my-svg .edge-thickness-invisible{stroke-width:0;fill:none;}#my-svg .edge-pattern-dashed{stroke-dasharray:3;}#my-svg .edge-pattern-dotted{stroke-dasharray:2;}#my-svg .marker{fill:#333333;stroke:#333333;}#my-svg .marker.cross{stroke:#333333;}#my-svg svg{font-family:"trebuchet ms",verdana,arial,sans-serif;font-size:16px;}#my-svg p{margin:0;}#my-svg g.classGroup text{fill:#9370DB;stroke:none;font-family:"trebuchet ms",verdana,arial,sans-serif;font-size:10px;}#my-svg g.classGroup text .title{font-weight:bolder;}#my-svg .nodeLabel,#my-svg .edgeLabel{color:#131300;}#my-svg .edgeLabel .label rect{fill:#ECECFF;}#my-svg .label text{fill:#131300;}#my-svg .labelBkg{background:#ECECFF;}#my-svg .edgeLabel .label span{background:#ECECFF;}#my-svg .classTitle{font-weight:bolder;}#my-svg .node rect,#my-svg .node circle,#my-svg .node ellipse,#my-svg .node polygon,#my-svg .node path{fill:#ECECFF;stroke:#9370DB;stroke-width:1px;}#my-svg .divider{stroke:#9370DB;stroke-width:1;}#my-svg g.clickable{cursor:pointer;}#my-svg g.classGroup rect{fill:#ECECFF;stroke:#9370DB;}#my-svg g.classGroup line{stroke:#9370DB;stroke-width:1;}#my-svg .classLabel .box{stroke:none;stroke-width:0;fill:#ECECFF;opacity:0.5;}#my-svg .classLabel .label{fill:#9370DB;font-size:10px;}#my-svg .relation{stroke:#333333;stroke-width:1;fill:none;}#my-svg .dashed-line{stroke-dasharray:3;}#my-svg .dotted-line{stroke-dasharray:1 2;}#my-svg #compositionStart,#my-svg .composition{fill:#333333!important;stroke:#333333!important;stroke-width:1;}#my-svg #compositionEnd,#my-svg .composition{fill:#333333!important;stroke:#333333!important;stroke-width:1;}#my-svg #dependencyStart,#my-svg .dependency{fill:#333333!important;stroke:#333333!important;stroke-width:1;}#my-svg #dependencyStart,#my-svg .dependency{fill:#333333!important;stroke:#333333!important;stroke-width:1;}#my-svg #extensionStart,#my-svg .extension{fill:transparent!important;stroke:#333333!important;stroke-width:1;}#my-svg #extensionEnd,#my-svg .extension{fill:transparent!important;stroke:#333333!important;stroke-width:1;}#my-svg #aggregationStart,#my-svg .aggregation{fill:transparent!important;stroke:#333333!important;stroke-width:1;}#my-svg #aggregationEnd,#my-svg .aggregation{fill:transparent!important;stroke:#333333!important;stroke-width:1;}#my-svg #lollipopStart,#my-svg .lollipop{fill:#ECECFF!important;stroke:#333333!important;stroke-width:1;}#my-svg #lollipopEnd,#my-svg .lollipop{fill:#ECECFF!important;stroke:#333333!important;stroke-width:1;}#my-svg .edgeTerminals{font-size:11px;line-height:initial;}#my-svg .classTitleText{text-anchor:middle;font-size:18px;fill:#333;}#my-svg :root{--mermaid-font-family:"trebuchet ms",verdana,arial,sans-serif;}</style><g><defs><marker orient="auto" markerHeight="240" markerWidth="190" refY="7" refX="18" class="marker aggregation class" id="my-svg_class-aggregationStart"><path d="M 18,7 L9,13 L1,7 L9,1 Z"/></marker></defs><defs><marker orient="auto" markerHeight="28" markerWidth="20" refY="7" refX="1" class="marker aggregation class" id="my-svg_class-aggregationEnd"><path d="M 18,7 L9,13 L1,7 L9,1 Z"/></marker></defs><defs><marker orient="auto" markerHeight="240" markerWidth="190" refY="7" refX="18" class="marker extension class" id="my-svg_class-extensionStart"><path d="M 1,7 L18,13 V 1 Z"/></marker></defs><defs><marker orient="auto" markerHeight="28" markerWidth="20" refY="7" refX="1" class="marker extension class" id="my-svg_class-extensionEnd"><path d="M 1,1 V 13 L18,7 Z"/></marker></defs><defs><marker orient="auto" markerHeight="240" markerWidth="190" refY="7" refX="18" class="marker composition class" id="my-svg_class-compositionStart"><path d="M 18,7 L9,13 L1,7 L9,1 Z"/></marker></defs><defs><marker orient="auto" markerHeight="28" markerWidth="20" refY="7" refX="1" class="marker composition class" id="my-svg_class-compositionEnd"><path d="M 18,7 L9,13 L1,7 L9,1 Z"/></marker></defs><defs><marker orient="auto" markerHeight="240" markerWidth="190" refY="7" refX="6" class="marker dependency class" id="my-svg_class-dependencyStart"><path d="M 5,7 L9,13 L1,7 L9,1 Z"/></marker></defs><defs><marker orient="auto" markerHeight="28" markerWidth="20" refY="7" refX="13" class="marker dependency class" id="my-svg_class-dependencyEnd"><path d="M 18,7 L9,13 L14,7 L9,1 Z"/></marker></defs><defs><marker orient="auto" markerHeight="240" markerWidth="190" refY="7" refX="13" class="marker lollipop class" id="my-svg_class-lollipopStart"><circle r="6" cy="7" cx="7" fill="transparent" stroke="black"/></marker></defs><defs><marker orient="auto" markerHeight="240" markerWidth="190" refY="7" refX="1" class="marker lollipop class" id="my-svg_class-lollipopEnd"><circle r="6" cy="7" cx="7" fill="transparent" stroke="black"/></marker></defs><g class="root"><g class="clusters"/><g class="edgePaths"><path style=";" class="edge-thickness-normal edge-pattern-solid relation" id="id_EducationEvent_DefinedTerm_1" d="M158.137,272L158.137,276.167C158.137,280.333,158.137,288.667,158.137,297C158.137,305.333,158.137,313.667,158.137,317.833L158.137,322"/></g><g class="edgeLabels"><g class="edgeLabel"><g transform="translate(0, -12)" class="label"><foreignObject height="24" width="0"><div class="labelBkg" xmlns="http://www.w3.org/1999/xhtml" style="display: table-cell; white-space: nowrap; line-height: 1.5; max-width: 200px; text-align: center;"><span class="edgeLabel" style=";display: inline-block"></span></div></foreignObject></g></g></g><g class="nodes"><g transform="translate(158.13671875, 140)" id="classId-EducationEvent-0" class="node default"><g class="basic label-container"><path style="" fill="#ECECFF" stroke-width="0" stroke="none" d="M-150.13671875 -132 L150.13671875 -132 L150.13671875 132 L-150.13671875 132"/><path style="" fill="none" stroke-width="1.3" stroke="#9370DB" d="M-150.13671875 -132 C-40.56465918302263 -132, 69.00740038395475 -132, 150.13671875 -132 M-150.13671875 -132 C-47.42104547627062 -132, 55.29462779745876 -132, 150.13671875 -132 M150.13671875 -132 C150.13671875 -57.56455318293949, 150.13671875 16.870893634121018, 150.13671875 132 M150.13671875 -132 C150.13671875 -51.52517191283093, 150.13671875 28.949656174338145, 150.13671875 132 M150.13671875 132 C54.6067901446812 132, -40.9231384606376 132, -150.13671875 132 M150.13671875 132 C51.43560547407772 132, -47.265507801844564 132, -150.13671875 132 M-150.13671875 132 C-150.13671875 50.71114919297992, -150.13671875 -30.577701614040166, -150.13671875 -132 M-150.13671875 132 C-150.13671875 49.78823295274043, -150.13671875 -32.42353409451914, -150.13671875 -132"/></g><g transform="translate(0, -108)" class="annotation-group text"/><g transform="translate(-58.3515625, -108)" class="label-group text"><g transform="translate(0,-12)" style="font-weight: bolder" class="label"><foreignObject height="24" width="116.703125"><div style="display: table-cell; white-space: nowrap; line-height: 1.5; max-width: 152px; text-align: center;" xmlns="http://www.w3.org/1999/xhtml"><span style="" class="nodeLabel markdown-node-label"><p>EducationEvent</p></span></div></foreignObject></g></g><g transform="translate(-138.13671875, -60)" class="members-group text"><g transform="translate(0,-12)" style="" class="label"><foreignObject height="24" width="151.09375"><div style="display: table-cell; white-space: nowrap; line-height: 1.5; max-width: 186px; text-align: center;" xmlns="http://www.w3.org/1999/xhtml"><span style="" class="nodeLabel markdown-node-label"><p>DefinedTerm teaches</p></span></div></foreignObject></g><g transform="translate(0,12)" style="" class="label"><foreignObject height="24" width="100.546875"><div style="display: table-cell; white-space: nowrap; line-height: 1.5; max-width: 138px; text-align: center;" xmlns="http://www.w3.org/1999/xhtml"><span style="" class="nodeLabel markdown-node-label"><p>string teaches</p></span></div></foreignObject></g><g transform="translate(0,36)" style="" class="label"><foreignObject height="24" width="167.375"><div style="display: table-cell; white-space: nowrap; line-height: 1.5; max-width: 201px; text-align: center;" xmlns="http://www.w3.org/1999/xhtml"><span style="" class="nodeLabel markdown-node-label"><p>string educationalLevel</p></span></div></foreignObject></g><g transform="translate(0,60)" style="" class="label"><foreignObject height="24" width="217.921875"><div style="display: table-cell; white-space: nowrap; line-height: 1.5; max-width: 249px; text-align: center;" xmlns="http://www.w3.org/1999/xhtml"><span style="" class="nodeLabel markdown-node-label"><p>DefinedTerm educationalLevel</p></span></div></foreignObject></g><g transform="translate(0,84)" style="" class="label"><foreignObject height="24" width="167.375"><div style="display: table-cell; white-space: nowrap; line-height: 1.5; max-width: 201px; text-align: center;" xmlns="http://www.w3.org/1999/xhtml"><span style="" class="nodeLabel markdown-node-label"><p>string educationalLevel</p></span></div></foreignObject></g><g transform="translate(0,108)" style="" class="label"><foreignObject height="24" width="103.4375"><div style="display: table-cell; white-space: nowrap; line-height: 1.5; max-width: 143px; text-align: center;" xmlns="http://www.w3.org/1999/xhtml"><span style="" class="nodeLabel markdown-node-label"><p>string assesses</p></span></div></foreignObject></g><g transform="translate(0,132)" style="" class="label"><foreignObject height="24" width="153.984375"><div style="display: table-cell; white-space: nowrap; line-height: 1.5; max-width: 192px; text-align: center;" xmlns="http://www.w3.org/1999/xhtml"><span style="" class="nodeLabel markdown-node-label"><p>DefinedTerm assesses</p></span></div></foreignObject></g></g><g transform="translate(-138.13671875, 132)" class="methods-group text"/><g style="" class="divider"><path style="" fill="none" stroke-width="1.3" stroke="#9370DB" d="M-150.13671875 -84 C-69.61678418333405 -84, 10.903150383331905 -84, 150.13671875 -84 M-150.13671875 -84 C-50.079192677508615 -84, 49.97833339498277 -84, 150.13671875 -84"/></g><g style="" class="divider"><path style="" fill="none" stroke-width="1.3" stroke="#9370DB" d="M-150.13671875 108 C-48.599075817392915 108, 52.93856711521417 108, 150.13671875 108 M-150.13671875 108 C-64.88890956015798 108, 20.358899629684032 108, 150.13671875 108"/></g></g><g transform="translate(158.13671875, 364)" id="classId-DefinedTerm-1" class="node default"><g class="basic label-container"><path style="" fill="#ECECFF" stroke-width="0" stroke="none" d="M-59.9453125 -42 L59.9453125 -42 L59.9453125 42 L-59.9453125 42"/><path style="" fill="none" stroke-width="1.3" stroke="#9370DB" d="M-59.9453125 -42 C-19.768289145385616 -42, 20.40873420922877 -42, 59.9453125 -42 M-59.9453125 -42 C-33.63259210405327 -42, -7.31987170810654 -42, 59.9453125 -42 M59.9453125 -42 C59.9453125 -18.698120302724565, 59.9453125 4.60375939455087, 59.9453125 42 M59.9453125 -42 C59.9453125 -17.999406953587755, 59.9453125 6.00118609282449, 59.9453125 42 M59.9453125 42 C12.70784921091883 42, -34.52961407816234 42, -59.9453125 42 M59.9453125 42 C13.185609453039703 42, -33.574093593920594 42, -59.9453125 42 M-59.9453125 42 C-59.9453125 25.166419604528304, -59.9453125 8.332839209056608, -59.9453125 -42 M-59.9453125 42 C-59.9453125 15.617256630870475, -59.9453125 -10.76548673825905, -59.9453125 -42"/></g><g transform="translate(0, -18)" class="annotation-group text"/><g transform="translate(-47.9453125, -18)" class="label-group text"><g transform="translate(0,-12)" style="font-weight: bolder" class="label"><foreignObject height="24" width="95.890625"><div style="display: table-cell; white-space: nowrap; line-height: 1.5; max-width: 135px; text-align: center;" xmlns="http://www.w3.org/1999/xhtml"><span style="" class="nodeLabel markdown-node-label"><p>DefinedTerm</p></span></div></foreignObject></g></g><g transform="translate(-47.9453125, 30)" class="members-group text"/><g transform="translate(-47.9453125, 60)" class="methods-group text"/><g style="" class="divider"><path style="" fill="none" stroke-width="1.3" stroke="#9370DB" d="M-59.9453125 6 C-34.42887422745288 6, -8.91243595490576 6, 59.9453125 6 M-59.9453125 6 C-26.91580759564505 6, 6.113697308709902 6, 59.9453125 6"/></g><g style="" class="divider"><path style="" fill="none" stroke-width="1.3" stroke="#9370DB" d="M-59.9453125 24 C-18.67867743527963 24, 22.587957629440737 24, 59.9453125 24 M-59.9453125 24 C-17.433240987293154 24, 25.078830525413693 24, 59.9453125 24"/></g></g></g></g></g></svg>