<svg aria-roledescription="er" role="graphics-document document" viewBox="0 0 616.78125 890.91796875" style="max-width: 616.781px; background-color: white;" xmlns:xlink="http://www.w3.org/1999/xlink" xmlns="http://www.w3.org/2000/svg" width="100%" id="my-svg"><style>#my-svg{font-family:"trebuchet ms",verdana,arial,sans-serif;font-size:16px;fill:#333;}#my-svg .error-icon{fill:#552222;}#my-svg .error-text{fill:#552222;stroke:#552222;}#my-svg .edge-thickness-normal{stroke-width:1px;}#my-svg .edge-thickness-thick{stroke-width:3.5px;}#my-svg .edge-pattern-solid{stroke-dasharray:0;}#my-svg .edge-thickness-invisible{stroke-width:0;fill:none;}#my-svg .edge-pattern-dashed{stroke-dasharray:3;}#my-svg .edge-pattern-dotted{stroke-dasharray:2;}#my-svg .marker{fill:#333333;stroke:#333333;}#my-svg .marker.cross{stroke:#333333;}#my-svg svg{font-family:"trebuchet ms",verdana,arial,sans-serif;font-size:16px;}#my-svg p{margin:0;}#my-svg .entityBox{fill:#ECECFF;stroke:#9370DB;}#my-svg .attributeBoxOdd{fill:#ffffff;stroke:#9370DB;}#my-svg .attributeBoxEven{fill:#f2f2f2;stroke:#9370DB;}#my-svg .relationshipLabelBox{fill:hsl(80, 100%, 96.2745098039%);opacity:0.7;background-color:hsl(80, 100%, 96.2745098039%);}#my-svg .relationshipLabelBox rect{opacity:0.5;}#my-svg .relationshipLine{stroke:#333333;}#my-svg .entityTitleText{text-anchor:middle;font-size:18px;fill:#333;}#my-svg #MD_PARENT_START{fill:#f5f5f5!important;stroke:#333333!important;stroke-width:1;}#my-svg #MD_PARENT_END{fill:#f5f5f5!important;stroke:#333333!important;stroke-width:1;}#my-svg :root{--mermaid-font-family:"trebuchet ms",verdana,arial,sans-serif;}</style><g/><defs><marker orient="auto" markerHeight="240" markerWidth="190" refY="7" refX="0" id="MD_PARENT_START"><path d="M 18,7 L9,13 L1,7 L9,1 Z"/></marker></defs><defs><marker orient="auto" markerHeight="28" markerWidth="20" refY="7" refX="19" id="MD_PARENT_END"><path d="M 18,7 L9,13 L1,7 L9,1 Z"/></marker></defs><defs><marker orient="auto" markerHeight="18" markerWidth="18" refY="9" refX="0" id="ONLY_ONE_START"><path d="M9,0 L9,18 M15,0 L15,18" fill="none" stroke="gray"/></marker></defs><defs><marker orient="auto" markerHeight="18" markerWidth="18" refY="9" refX="18" id="ONLY_ONE_END"><path d="M3,0 L3,18 M9,0 L9,18" fill="none" stroke="gray"/></marker></defs><defs><marker orient="auto" markerHeight="18" markerWidth="30" refY="9" refX="0" id="ZERO_OR_ONE_START"><circle r="6" cy="9" cx="21" fill="white" stroke="gray"/><path d="M9,0 L9,18" fill="none" stroke="gray"/></marker></defs><defs><marker orient="auto" markerHeight="18" markerWidth="30" refY="9" refX="30" id="ZERO_OR_ONE_END"><circle r="6" cy="9" cx="9" fill="white" stroke="gray"/><path d="M21,0 L21,18" fill="none" stroke="gray"/></marker></defs><defs><marker orient="auto" markerHeight="36" markerWidth="45" refY="18" refX="18" id="ONE_OR_MORE_START"><path d="M0,18 Q 18,0 36,18 Q 18,36 0,18 M42,9 L42,27" fill="none" stroke="gray"/></marker></defs><defs><marker orient="auto" markerHeight="36" markerWidth="45" refY="18" refX="27" id="ONE_OR_MORE_END"><path d="M3,9 L3,27 M9,18 Q27,0 45,18 Q27,36 9,18" fill="none" stroke="gray"/></marker></defs><defs><marker orient="auto" markerHeight="36" markerWidth="57" refY="18" refX="18" id="ZERO_OR_MORE_START"><circle r="6" cy="18" cx="48" fill="white" stroke="gray"/><path d="M0,18 Q18,0 36,18 Q18,36 0,18" fill="none" stroke="gray"/></marker></defs><defs><marker orient="auto" markerHeight="36" markerWidth="57" refY="18" refX="39" id="ZERO_OR_MORE_END"><circle r="6" cy="18" cx="9" fill="white" stroke="gray"/><path d="M21,18 Q39,0 57,18 Q39,36 21,18" fill="none" stroke="gray"/></marker></defs><path style="stroke: gray; fill: none;" marker-start="url(#ONLY_ONE_START)" marker-end="url(#ZERO_OR_MORE_END)" d="M84.008,300.551L84.008,308.884C84.008,317.217,84.008,333.884,84.008,350.551C84.008,367.217,84.008,383.884,84.008,392.217L84.008,400.551" class="er relationshipLine"/><path style="stroke: gray; fill: none;" marker-start="url(#ONLY_ONE_START)" marker-end="url(#ZERO_OR_MORE_END)" d="M84.008,490.734L84.008,499.068C84.008,507.401,84.008,524.068,110.654,543.755C137.299,563.442,190.591,586.149,217.237,597.503L243.883,608.856" class="er relationshipLine"/><path style="stroke: gray; fill: none;" marker-start="url(#ONLY_ONE_START)" marker-end="url(#ZERO_OR_MORE_END)" d="M307.07,680.826L307.07,689.16C307.07,697.493,307.07,714.16,307.07,730.826C307.07,747.493,307.07,764.16,307.07,772.493L307.07,780.826" class="er relationshipLine"/><path style="stroke: gray; fill: none;" marker-start="url(#ONLY_ONE_START)" marker-end="url(#ZERO_OR_MORE_END)" d="M84.008,110.275L84.008,118.609C84.008,126.942,84.008,143.609,84.008,160.275C84.008,176.942,84.008,193.609,84.008,201.942L84.008,210.275" class="er relationshipLine"/><path style="stroke: gray; fill: none;" marker-start="url(#ONLY_ONE_START)" marker-end="url(#ZERO_OR_MORE_END)" d="M307.07,490.734L307.07,499.068C307.07,507.401,307.07,524.068,307.07,540.734C307.07,557.401,307.07,574.068,307.07,582.401L307.07,590.734" class="er relationshipLine"/><path style="stroke: gray; fill: none;" marker-start="url(#ONLY_ONE_START)" marker-end="url(#ZERO_OR_MORE_END)" d="M531.453,490.734L531.453,499.068C531.453,507.401,531.453,524.068,504.587,543.781C477.721,563.495,423.99,586.255,397.124,597.635L370.258,609.015" class="er relationshipLine"/><g transform="translate(31.90625,210.275390625 )" id="entity-UTILITY-e1c1706a-90ec-53c7-a4c4-8148aae80493"><rect height="90.27539253234863" width="104.203125" y="0" x="0" class="er entityBox"/><text style="dominant-baseline: middle; text-anchor: middle; font-size: 12px;" transform="translate(52.1015625,12)" y="0" x="0" id="text-entity-UTILITY-e1c1706a-90ec-53c7-a4c4-8148aae80493" class="er entityLabel">UTILITY</text><rect height="22.091796875" width="35.75" y="24" x="0" class="er attributeBoxOdd"/><text style="dominant-baseline: middle; font-size: 10.2px;" transform="translate(5,35.0458984375)" y="0" x="0" id="text-entity-UTILITY-e1c1706a-90ec-53c7-a4c4-8148aae80493-attr-1-type" class="er entityLabel">int</text><rect height="22.091796875" width="46.890625" y="24" x="35.75" class="er attributeBoxOdd"/><text style="dominant-baseline: middle; font-size: 10.2px;" transform="translate(40.75,35.0458984375)" y="0" x="0" id="text-entity-UTILITY-e1c1706a-90ec-53c7-a4c4-8148aae80493-attr-1-name" class="er entityLabel">utilityId</text><rect height="22.091796875" width="21.5625" y="24" x="82.640625" class="er attributeBoxOdd"/><text style="dominant-baseline: middle; font-size: 10.2px;" transform="translate(87.640625,35.0458984375)" y="0" x="0" id="text-entity-UTILITY-e1c1706a-90ec-53c7-a4c4-8148aae80493-attr-1-key" class="er entityLabel">PK</text><rect height="22.091797828674316" width="35.75" y="46.091796875" x="0" class="er attributeBoxEven"/><text style="dominant-baseline: middle; font-size: 10.2px;" transform="translate(5,57.13769578933716)" y="0" x="0" id="text-entity-UTILITY-e1c1706a-90ec-53c7-a4c4-8148aae80493-attr-2-type" class="er entityLabel">string</text><rect height="22.091797828674316" width="46.890625" y="46.091796875" x="35.75" class="er attributeBoxEven"/><text style="dominant-baseline: middle; font-size: 10.2px;" transform="translate(40.75,57.13769578933716)" y="0" x="0" id="text-entity-UTILITY-e1c1706a-90ec-53c7-a4c4-8148aae80493-attr-2-name" class="er entityLabel">name</text><rect height="22.091797828674316" width="21.5625" y="46.091796875" x="82.640625" class="er attributeBoxEven"/><text style="dominant-baseline: middle; font-size: 10.2px;" transform="translate(87.640625,57.13769578933716)" y="0" x="0" id="text-entity-UTILITY-e1c1706a-90ec-53c7-a4c4-8148aae80493-attr-2-key" class="er entityLabel"/><rect height="22.091797828674316" width="35.75" y="68.18359470367432" x="0" class="er attributeBoxOdd"/><text style="dominant-baseline: middle; font-size: 10.2px;" transform="translate(5,79.22949361801147)" y="0" x="0" id="text-entity-UTILITY-e1c1706a-90ec-53c7-a4c4-8148aae80493-attr-3-type" class="er entityLabel">string</text><rect height="22.091797828674316" width="46.890625" y="68.18359470367432" x="35.75" class="er attributeBoxOdd"/><text style="dominant-baseline: middle; font-size: 10.2px;" transform="translate(40.75,79.22949361801147)" y="0" x="0" id="text-entity-UTILITY-e1c1706a-90ec-53c7-a4c4-8148aae80493-attr-3-name" class="er entityLabel">location</text><rect height="22.091797828674316" width="21.5625" y="68.18359470367432" x="82.640625" class="er attributeBoxOdd"/><text style="dominant-baseline: middle; font-size: 10.2px;" transform="translate(87.640625,79.22949361801147)" y="0" x="0" id="text-entity-UTILITY-e1c1706a-90ec-53c7-a4c4-8148aae80493-attr-3-key" class="er entityLabel"/></g><g transform="translate(20,400.55078125 )" id="entity-METER-f35ca18e-1e46-53cf-994b-7f8663f6ee74"><rect height="90.18359565734863" width="128.015625" y="0" x="0" class="er entityBox"/><text style="dominant-baseline: middle; text-anchor: middle; font-size: 12px;" transform="translate(64.0078125,12)" y="0" x="0" id="text-entity-METER-f35ca18e-1e46-53cf-994b-7f8663f6ee74" class="er entityLabel">METER</text><rect height="22" width="35.75" y="24" x="0" class="er attributeBoxOdd"/><text style="dominant-baseline: middle; font-size: 10.2px;" transform="translate(5,35)" y="0" x="0" id="text-entity-METER-f35ca18e-1e46-53cf-994b-7f8663f6ee74-attr-1-type" class="er entityLabel">int</text><rect height="22" width="70.703125" y="24" x="35.75" class="er attributeBoxOdd"/><text style="dominant-baseline: middle; font-size: 10.2px;" transform="translate(40.75,35)" y="0" x="0" id="text-entity-METER-f35ca18e-1e46-53cf-994b-7f8663f6ee74-attr-1-name" class="er entityLabel">meterId</text><rect height="22" width="21.5625" y="24" x="106.453125" class="er attributeBoxOdd"/><text style="dominant-baseline: middle; font-size: 10.2px;" transform="translate(111.453125,35)" y="0" x="0" id="text-entity-METER-f35ca18e-1e46-53cf-994b-7f8663f6ee74-attr-1-key" class="er entityLabel">PK</text><rect height="22.091797828674316" width="35.75" y="46" x="0" class="er attributeBoxEven"/><text style="dominant-baseline: middle; font-size: 10.2px;" transform="translate(5,57.04589891433716)" y="0" x="0" id="text-entity-METER-f35ca18e-1e46-53cf-994b-7f8663f6ee74-attr-2-type" class="er entityLabel">string</text><rect height="22.091797828674316" width="70.703125" y="46" x="35.75" class="er attributeBoxEven"/><text style="dominant-baseline: middle; font-size: 10.2px;" transform="translate(40.75,57.04589891433716)" y="0" x="0" id="text-entity-METER-f35ca18e-1e46-53cf-994b-7f8663f6ee74-attr-2-name" class="er entityLabel">type</text><rect height="22.091797828674316" width="21.5625" y="46" x="106.453125" class="er attributeBoxEven"/><text style="dominant-baseline: middle; font-size: 10.2px;" transform="translate(111.453125,57.04589891433716)" y="0" x="0" id="text-entity-METER-f35ca18e-1e46-53cf-994b-7f8663f6ee74-attr-2-key" class="er entityLabel"/><rect height="22.091797828674316" width="35.75" y="68.09179782867432" x="0" class="er attributeBoxOdd"/><text style="dominant-baseline: middle; font-size: 10.2px;" transform="translate(5,79.13769674301147)" y="0" x="0" id="text-entity-METER-f35ca18e-1e46-53cf-994b-7f8663f6ee74-attr-3-type" class="er entityLabel">string</text><rect height="22.091797828674316" width="70.703125" y="68.09179782867432" x="35.75" class="er attributeBoxOdd"/><text style="dominant-baseline: middle; font-size: 10.2px;" transform="translate(40.75,79.13769674301147)" y="0" x="0" id="text-entity-METER-f35ca18e-1e46-53cf-994b-7f8663f6ee74-attr-3-name" class="er entityLabel">serialNumber</text><rect height="22.091797828674316" width="21.5625" y="68.09179782867432" x="106.453125" class="er attributeBoxOdd"/><text style="dominant-baseline: middle; font-size: 10.2px;" transform="translate(111.453125,79.13769674301147)" y="0" x="0" id="text-entity-METER-f35ca18e-1e46-53cf-994b-7f8663f6ee74-attr-3-key" class="er entityLabel"/></g><g transform="translate(243.8828125,590.734375 )" id="entity-USAGE-40e3c181-9621-5cec-b095-7cb2303c7033"><rect height="90.091796875" width="126.375" y="0" x="0" class="er entityBox"/><text style="dominant-baseline: middle; text-anchor: middle; font-size: 12px;" transform="translate(63.1875,12)" y="0" x="0" id="text-entity-USAGE-40e3c181-9621-5cec-b095-7cb2303c7033" class="er entityLabel">USAGE</text><rect height="22.091796875" width="31.65625" y="24" x="0" class="er attributeBoxOdd"/><text style="dominant-baseline: middle; font-size: 10.2px;" transform="translate(5,35.0458984375)" y="0" x="0" id="text-entity-USAGE-40e3c181-9621-5cec-b095-7cb2303c7033-attr-1-type" class="er entityLabel">int</text><rect height="22.091796875" width="73.15625" y="24" x="31.65625" class="er attributeBoxOdd"/><text style="dominant-baseline: middle; font-size: 10.2px;" transform="translate(36.65625,35.0458984375)" y="0" x="0" id="text-entity-USAGE-40e3c181-9621-5cec-b095-7cb2303c7033-attr-1-name" class="er entityLabel">usageId</text><rect height="22.091796875" width="21.5625" y="24" x="104.8125" class="er attributeBoxOdd"/><text style="dominant-baseline: middle; font-size: 10.2px;" transform="translate(109.8125,35.0458984375)" y="0" x="0" id="text-entity-USAGE-40e3c181-9621-5cec-b095-7cb2303c7033-attr-1-key" class="er entityLabel">PK</text><rect height="22" width="31.65625" y="46.091796875" x="0" class="er attributeBoxEven"/><text style="dominant-baseline: middle; font-size: 10.2px;" transform="translate(5,57.091796875)" y="0" x="0" id="text-entity-USAGE-40e3c181-9621-5cec-b095-7cb2303c7033-attr-2-type" class="er entityLabel">float</text><rect height="22" width="73.15625" y="46.091796875" x="31.65625" class="er attributeBoxEven"/><text style="dominant-baseline: middle; font-size: 10.2px;" transform="translate(36.65625,57.091796875)" y="0" x="0" id="text-entity-USAGE-40e3c181-9621-5cec-b095-7cb2303c7033-attr-2-name" class="er entityLabel">amount</text><rect height="22" width="21.5625" y="46.091796875" x="104.8125" class="er attributeBoxEven"/><text style="dominant-baseline: middle; font-size: 10.2px;" transform="translate(109.8125,57.091796875)" y="0" x="0" id="text-entity-USAGE-40e3c181-9621-5cec-b095-7cb2303c7033-attr-2-key" class="er entityLabel"/><rect height="22" width="31.65625" y="68.091796875" x="0" class="er attributeBoxOdd"/><text style="dominant-baseline: middle; font-size: 10.2px;" transform="translate(5,79.091796875)" y="0" x="0" id="text-entity-USAGE-40e3c181-9621-5cec-b095-7cb2303c7033-attr-3-type" class="er entityLabel">date</text><rect height="22" width="73.15625" y="68.091796875" x="31.65625" class="er attributeBoxOdd"/><text style="dominant-baseline: middle; font-size: 10.2px;" transform="translate(36.65625,79.091796875)" y="0" x="0" id="text-entity-USAGE-40e3c181-9621-5cec-b095-7cb2303c7033-attr-3-name" class="er entityLabel">dateRecorded</text><rect height="22" width="21.5625" y="68.091796875" x="104.8125" class="er attributeBoxOdd"/><text style="dominant-baseline: middle; font-size: 10.2px;" transform="translate(109.8125,79.091796875)" y="0" x="0" id="text-entity-USAGE-40e3c181-9621-5cec-b095-7cb2303c7033-attr-3-key" class="er entityLabel"/></g><g transform="translate(256.4375,780.826171875 )" id="entity-BILLING-c8bb2aaa-875b-5aff-9a1e-52137d9bcc6c"><rect height="90.091796875" width="101.265625" y="0" x="0" class="er entityBox"/><text style="dominant-baseline: middle; text-anchor: middle; font-size: 12px;" transform="translate(50.6328125,12)" y="0" x="0" id="text-entity-BILLING-c8bb2aaa-875b-5aff-9a1e-52137d9bcc6c" class="er entityLabel">BILLING</text><rect height="22.091796875" width="31.65625" y="24" x="0" class="er attributeBoxOdd"/><text style="dominant-baseline: middle; font-size: 10.2px;" transform="translate(5,35.0458984375)" y="0" x="0" id="text-entity-BILLING-c8bb2aaa-875b-5aff-9a1e-52137d9bcc6c-attr-1-type" class="er entityLabel">int</text><rect height="22.091796875" width="48.046875" y="24" x="31.65625" class="er attributeBoxOdd"/><text style="dominant-baseline: middle; font-size: 10.2px;" transform="translate(36.65625,35.0458984375)" y="0" x="0" id="text-entity-BILLING-c8bb2aaa-875b-5aff-9a1e-52137d9bcc6c-attr-1-name" class="er entityLabel">billingId</text><rect height="22.091796875" width="21.5625" y="24" x="79.703125" class="er attributeBoxOdd"/><text style="dominant-baseline: middle; font-size: 10.2px;" transform="translate(84.703125,35.0458984375)" y="0" x="0" id="text-entity-BILLING-c8bb2aaa-875b-5aff-9a1e-52137d9bcc6c-attr-1-key" class="er entityLabel">PK</text><rect height="22" width="31.65625" y="46.091796875" x="0" class="er attributeBoxEven"/><text style="dominant-baseline: middle; font-size: 10.2px;" transform="translate(5,57.091796875)" y="0" x="0" id="text-entity-BILLING-c8bb2aaa-875b-5aff-9a1e-52137d9bcc6c-attr-2-type" class="er entityLabel">float</text><rect height="22" width="48.046875" y="46.091796875" x="31.65625" class="er attributeBoxEven"/><text style="dominant-baseline: middle; font-size: 10.2px;" transform="translate(36.65625,57.091796875)" y="0" x="0" id="text-entity-BILLING-c8bb2aaa-875b-5aff-9a1e-52137d9bcc6c-attr-2-name" class="er entityLabel">amount</text><rect height="22" width="21.5625" y="46.091796875" x="79.703125" class="er attributeBoxEven"/><text style="dominant-baseline: middle; font-size: 10.2px;" transform="translate(84.703125,57.091796875)" y="0" x="0" id="text-entity-BILLING-c8bb2aaa-875b-5aff-9a1e-52137d9bcc6c-attr-2-key" class="er entityLabel"/><rect height="22" width="31.65625" y="68.091796875" x="0" class="er attributeBoxOdd"/><text style="dominant-baseline: middle; font-size: 10.2px;" transform="translate(5,79.091796875)" y="0" x="0" id="text-entity-BILLING-c8bb2aaa-875b-5aff-9a1e-52137d9bcc6c-attr-3-type" class="er entityLabel">date</text><rect height="22" width="48.046875" y="68.091796875" x="31.65625" class="er attributeBoxOdd"/><text style="dominant-baseline: middle; font-size: 10.2px;" transform="translate(36.65625,79.091796875)" y="0" x="0" id="text-entity-BILLING-c8bb2aaa-875b-5aff-9a1e-52137d9bcc6c-attr-3-name" class="er entityLabel">dueDate</text><rect height="22" width="21.5625" y="68.091796875" x="79.703125" class="er attributeBoxOdd"/><text style="dominant-baseline: middle; font-size: 10.2px;" transform="translate(84.703125,79.091796875)" y="0" x="0" id="text-entity-BILLING-c8bb2aaa-875b-5aff-9a1e-52137d9bcc6c-attr-3-key" class="er entityLabel"/></g><g transform="translate(24.2265625,20 )" id="entity-PROVIDER-0bca8935-91c5-59df-85c0-0095319dd48e"><rect height="90.27539348602295" width="119.5625" y="0" x="0" class="er entityBox"/><text style="dominant-baseline: middle; text-anchor: middle; font-size: 12px;" transform="translate(59.78125,12)" y="0" x="0" id="text-entity-PROVIDER-0bca8935-91c5-59df-85c0-0095319dd48e" class="er entityLabel">PROVIDER</text><rect height="22.091797828674316" width="35.75" y="24" x="0" class="er attributeBoxOdd"/><text style="dominant-baseline: middle; font-size: 10.2px;" transform="translate(5,35.04589891433716)" y="0" x="0" id="text-entity-PROVIDER-0bca8935-91c5-59df-85c0-0095319dd48e-attr-1-type" class="er entityLabel">int</text><rect height="22.091797828674316" width="62.25" y="24" x="35.75" class="er attributeBoxOdd"/><text style="dominant-baseline: middle; font-size: 10.2px;" transform="translate(40.75,35.04589891433716)" y="0" x="0" id="text-entity-PROVIDER-0bca8935-91c5-59df-85c0-0095319dd48e-attr-1-name" class="er entityLabel">providerId</text><rect height="22.091797828674316" width="21.5625" y="24" x="98" class="er attributeBoxOdd"/><text style="dominant-baseline: middle; font-size: 10.2px;" transform="translate(103,35.04589891433716)" y="0" x="0" id="text-entity-PROVIDER-0bca8935-91c5-59df-85c0-0095319dd48e-attr-1-key" class="er entityLabel">PK</text><rect height="22.091797828674316" width="35.75" y="46.091797828674316" x="0" class="er attributeBoxEven"/><text style="dominant-baseline: middle; font-size: 10.2px;" transform="translate(5,57.137696743011475)" y="0" x="0" id="text-entity-PROVIDER-0bca8935-91c5-59df-85c0-0095319dd48e-attr-2-type" class="er entityLabel">string</text><rect height="22.091797828674316" width="62.25" y="46.091797828674316" x="35.75" class="er attributeBoxEven"/><text style="dominant-baseline: middle; font-size: 10.2px;" transform="translate(40.75,57.137696743011475)" y="0" x="0" id="text-entity-PROVIDER-0bca8935-91c5-59df-85c0-0095319dd48e-attr-2-name" class="er entityLabel">name</text><rect height="22.091797828674316" width="21.5625" y="46.091797828674316" x="98" class="er attributeBoxEven"/><text style="dominant-baseline: middle; font-size: 10.2px;" transform="translate(103,57.137696743011475)" y="0" x="0" id="text-entity-PROVIDER-0bca8935-91c5-59df-85c0-0095319dd48e-attr-2-key" class="er entityLabel"/><rect height="22.091797828674316" width="35.75" y="68.18359565734863" x="0" class="er attributeBoxOdd"/><text style="dominant-baseline: middle; font-size: 10.2px;" transform="translate(5,79.22949457168579)" y="0" x="0" id="text-entity-PROVIDER-0bca8935-91c5-59df-85c0-0095319dd48e-attr-3-type" class="er entityLabel">string</text><rect height="22.091797828674316" width="62.25" y="68.18359565734863" x="35.75" class="er attributeBoxOdd"/><text style="dominant-baseline: middle; font-size: 10.2px;" transform="translate(40.75,79.22949457168579)" y="0" x="0" id="text-entity-PROVIDER-0bca8935-91c5-59df-85c0-0095319dd48e-attr-3-name" class="er entityLabel">contactInfo</text><rect height="22.091797828674316" width="21.5625" y="68.18359565734863" x="98" class="er attributeBoxOdd"/><text style="dominant-baseline: middle; font-size: 10.2px;" transform="translate(103,79.22949457168579)" y="0" x="0" id="text-entity-PROVIDER-0bca8935-91c5-59df-85c0-0095319dd48e-attr-3-key" class="er entityLabel"/></g><g transform="translate(248.015625,400.55078125 )" id="entity-CUSTOMER-7c659eae-ee79-5f5d-acd7-c418f8ad1d67"><rect height="90.18359565734863" width="118.109375" y="0" x="0" class="er entityBox"/><text style="dominant-baseline: middle; text-anchor: middle; font-size: 12px;" transform="translate(59.0546875,12)" y="0" x="0" id="text-entity-CUSTOMER-7c659eae-ee79-5f5d-acd7-c418f8ad1d67" class="er entityLabel">CUSTOMER</text><rect height="22" width="35.75" y="24" x="0" class="er attributeBoxOdd"/><text style="dominant-baseline: middle; font-size: 10.2px;" transform="translate(5,35)" y="0" x="0" id="text-entity-CUSTOMER-7c659eae-ee79-5f5d-acd7-c418f8ad1d67-attr-1-type" class="er entityLabel">int</text><rect height="22" width="60.796875" y="24" x="35.75" class="er attributeBoxOdd"/><text style="dominant-baseline: middle; font-size: 10.2px;" transform="translate(40.75,35)" y="0" x="0" id="text-entity-CUSTOMER-7c659eae-ee79-5f5d-acd7-c418f8ad1d67-attr-1-name" class="er entityLabel">customerId</text><rect height="22" width="21.5625" y="24" x="96.546875" class="er attributeBoxOdd"/><text style="dominant-baseline: middle; font-size: 10.2px;" transform="translate(101.546875,35)" y="0" x="0" id="text-entity-CUSTOMER-7c659eae-ee79-5f5d-acd7-c418f8ad1d67-attr-1-key" class="er entityLabel">PK</text><rect height="22.091797828674316" width="35.75" y="46" x="0" class="er attributeBoxEven"/><text style="dominant-baseline: middle; font-size: 10.2px;" transform="translate(5,57.04589891433716)" y="0" x="0" id="text-entity-CUSTOMER-7c659eae-ee79-5f5d-acd7-c418f8ad1d67-attr-2-type" class="er entityLabel">string</text><rect height="22.091797828674316" width="60.796875" y="46" x="35.75" class="er attributeBoxEven"/><text style="dominant-baseline: middle; font-size: 10.2px;" transform="translate(40.75,57.04589891433716)" y="0" x="0" id="text-entity-CUSTOMER-7c659eae-ee79-5f5d-acd7-c418f8ad1d67-attr-2-name" class="er entityLabel">name</text><rect height="22.091797828674316" width="21.5625" y="46" x="96.546875" class="er attributeBoxEven"/><text style="dominant-baseline: middle; font-size: 10.2px;" transform="translate(101.546875,57.04589891433716)" y="0" x="0" id="text-entity-CUSTOMER-7c659eae-ee79-5f5d-acd7-c418f8ad1d67-attr-2-key" class="er entityLabel"/><rect height="22.091797828674316" width="35.75" y="68.09179782867432" x="0" class="er attributeBoxOdd"/><text style="dominant-baseline: middle; font-size: 10.2px;" transform="translate(5,79.13769674301147)" y="0" x="0" id="text-entity-CUSTOMER-7c659eae-ee79-5f5d-acd7-c418f8ad1d67-attr-3-type" class="er entityLabel">string</text><rect height="22.091797828674316" width="60.796875" y="68.09179782867432" x="35.75" class="er attributeBoxOdd"/><text style="dominant-baseline: middle; font-size: 10.2px;" transform="translate(40.75,79.13769674301147)" y="0" x="0" id="text-entity-CUSTOMER-7c659eae-ee79-5f5d-acd7-c418f8ad1d67-attr-3-name" class="er entityLabel">address</text><rect height="22.091797828674316" width="21.5625" y="68.09179782867432" x="96.546875" class="er attributeBoxOdd"/><text style="dominant-baseline: middle; font-size: 10.2px;" transform="translate(101.546875,79.13769674301147)" y="0" x="0" id="text-entity-CUSTOMER-7c659eae-ee79-5f5d-acd7-c418f8ad1d67-attr-3-key" class="er entityLabel"/></g><g transform="translate(466.125,400.55078125 )" id="entity-ALERT-2749889f-e9d1-5df4-b3d9-85dfbb849560"><rect height="90.18359470367432" width="130.65625" y="0" x="0" class="er entityBox"/><text style="dominant-baseline: middle; text-anchor: middle; font-size: 12px;" transform="translate(65.328125,12)" y="0" x="0" id="text-entity-ALERT-2749889f-e9d1-5df4-b3d9-85dfbb849560" class="er entityLabel">ALERT</text><rect height="22" width="35.75" y="24" x="0" class="er attributeBoxOdd"/><text style="dominant-baseline: middle; font-size: 10.2px;" transform="translate(5,35)" y="0" x="0" id="text-entity-ALERT-2749889f-e9d1-5df4-b3d9-85dfbb849560-attr-1-type" class="er entityLabel">int</text><rect height="22" width="73.34375" y="24" x="35.75" class="er attributeBoxOdd"/><text style="dominant-baseline: middle; font-size: 10.2px;" transform="translate(40.75,35)" y="0" x="0" id="text-entity-ALERT-2749889f-e9d1-5df4-b3d9-85dfbb849560-attr-1-name" class="er entityLabel">alertId</text><rect height="22" width="21.5625" y="24" x="109.09375" class="er attributeBoxOdd"/><text style="dominant-baseline: middle; font-size: 10.2px;" transform="translate(114.09375,35)" y="0" x="0" id="text-entity-ALERT-2749889f-e9d1-5df4-b3d9-85dfbb849560-attr-1-key" class="er entityLabel">PK</text><rect height="22.091797828674316" width="35.75" y="46" x="0" class="er attributeBoxEven"/><text style="dominant-baseline: middle; font-size: 10.2px;" transform="translate(5,57.04589891433716)" y="0" x="0" id="text-entity-ALERT-2749889f-e9d1-5df4-b3d9-85dfbb849560-attr-2-type" class="er entityLabel">string</text><rect height="22.091797828674316" width="73.34375" y="46" x="35.75" class="er attributeBoxEven"/><text style="dominant-baseline: middle; font-size: 10.2px;" transform="translate(40.75,57.04589891433716)" y="0" x="0" id="text-entity-ALERT-2749889f-e9d1-5df4-b3d9-85dfbb849560-attr-2-name" class="er entityLabel">description</text><rect height="22.091797828674316" width="21.5625" y="46" x="109.09375" class="er attributeBoxEven"/><text style="dominant-baseline: middle; font-size: 10.2px;" transform="translate(114.09375,57.04589891433716)" y="0" x="0" id="text-entity-ALERT-2749889f-e9d1-5df4-b3d9-85dfbb849560-attr-2-key" class="er entityLabel"/><rect height="22.091796875" width="35.75" y="68.09179782867432" x="0" class="er attributeBoxOdd"/><text style="dominant-baseline: middle; font-size: 10.2px;" transform="translate(5,79.13769626617432)" y="0" x="0" id="text-entity-ALERT-2749889f-e9d1-5df4-b3d9-85dfbb849560-attr-3-type" class="er entityLabel">date</text><rect height="22.091796875" width="73.34375" y="68.09179782867432" x="35.75" class="er attributeBoxOdd"/><text style="dominant-baseline: middle; font-size: 10.2px;" transform="translate(40.75,79.13769626617432)" y="0" x="0" id="text-entity-ALERT-2749889f-e9d1-5df4-b3d9-85dfbb849560-attr-3-name" class="er entityLabel">dateTriggered</text><rect height="22.091796875" width="21.5625" y="68.09179782867432" x="109.09375" class="er attributeBoxOdd"/><text style="dominant-baseline: middle; font-size: 10.2px;" transform="translate(114.09375,79.13769626617432)" y="0" x="0" id="text-entity-ALERT-2749889f-e9d1-5df4-b3d9-85dfbb849560-attr-3-key" class="er entityLabel"/></g><rect height="14" width="26.796875" y="343.5509948730469" x="70.60956573486328" class="er relationshipLabelBox"/><text style="text-anchor: middle; dominant-baseline: middle; font-size: 12px;" y="350.5509948730469" x="84.00800323486328" id="rel1" class="er relationshipLabel">owns</text><rect height="14" width="39.796875" y="558.6484985351562" x="127.65628051757812" class="er relationshipLabelBox"/><text style="text-anchor: middle; dominant-baseline: middle; font-size: 12px;" y="565.6484985351562" x="147.55471801757812" id="rel2" class="er relationshipLabel">records</text><rect height="14" width="52.8125" y="723.8259887695312" x="280.66375732421875" class="er relationshipLabelBox"/><text style="text-anchor: middle; dominant-baseline: middle; font-size: 12px;" y="730.8259887695312" x="307.07000732421875" id="rel3" class="er relationshipLabel">generates</text><rect height="14" width="43.15625" y="153.27499389648438" x="62.42987823486328" class="er relationshipLabelBox"/><text style="text-anchor: middle; dominant-baseline: middle; font-size: 12px;" y="160.27499389648438" x="84.00800323486328" id="rel4" class="er relationshipLabel">supplies</text><rect height="14" width="51.71875" y="533.7340087890625" x="281.21063232421875" class="er relationshipLabelBox"/><text style="text-anchor: middle; dominant-baseline: middle; font-size: 12px;" y="540.7340087890625" x="307.07000732421875" id="rel5" class="er relationshipLabel">consumes</text><rect height="14" width="40.96875" y="558.7854614257812" x="446.7511291503906" class="er relationshipLabelBox"/><text style="text-anchor: middle; dominant-baseline: middle; font-size: 12px;" y="565.7854614257812" x="467.2355041503906" id="rel6" class="er relationshipLabel">triggers</text></svg>