<svg aria-roledescription="er" role="graphics-document document" viewBox="-43.71049499511719 0 529.8042602539062 1177.1015625" style="max-width: 529.804px; background-color: white;" xmlns:xlink="http://www.w3.org/1999/xlink" xmlns="http://www.w3.org/2000/svg" width="100%" id="my-svg"><style>#my-svg{font-family:"trebuchet ms",verdana,arial,sans-serif;font-size:16px;fill:#333;}#my-svg .error-icon{fill:#552222;}#my-svg .error-text{fill:#552222;stroke:#552222;}#my-svg .edge-thickness-normal{stroke-width:1px;}#my-svg .edge-thickness-thick{stroke-width:3.5px;}#my-svg .edge-pattern-solid{stroke-dasharray:0;}#my-svg .edge-thickness-invisible{stroke-width:0;fill:none;}#my-svg .edge-pattern-dashed{stroke-dasharray:3;}#my-svg .edge-pattern-dotted{stroke-dasharray:2;}#my-svg .marker{fill:#333333;stroke:#333333;}#my-svg .marker.cross{stroke:#333333;}#my-svg svg{font-family:"trebuchet ms",verdana,arial,sans-serif;font-size:16px;}#my-svg p{margin:0;}#my-svg .entityBox{fill:#ECECFF;stroke:#9370DB;}#my-svg .attributeBoxOdd{fill:#ffffff;stroke:#9370DB;}#my-svg .attributeBoxEven{fill:#f2f2f2;stroke:#9370DB;}#my-svg .relationshipLabelBox{fill:hsl(80, 100%, 96.2745098039%);opacity:0.7;background-color:hsl(80, 100%, 96.2745098039%);}#my-svg .relationshipLabelBox rect{opacity:0.5;}#my-svg .relationshipLine{stroke:#333333;}#my-svg .entityTitleText{text-anchor:middle;font-size:18px;fill:#333;}#my-svg #MD_PARENT_START{fill:#f5f5f5!important;stroke:#333333!important;stroke-width:1;}#my-svg #MD_PARENT_END{fill:#f5f5f5!important;stroke:#333333!important;stroke-width:1;}#my-svg :root{--mermaid-font-family:"trebuchet ms",verdana,arial,sans-serif;}</style><g/><defs><marker orient="auto" markerHeight="240" markerWidth="190" refY="7" refX="0" id="MD_PARENT_START"><path d="M 18,7 L9,13 L1,7 L9,1 Z"/></marker></defs><defs><marker orient="auto" markerHeight="28" markerWidth="20" refY="7" refX="19" id="MD_PARENT_END"><path d="M 18,7 L9,13 L1,7 L9,1 Z"/></marker></defs><defs><marker orient="auto" markerHeight="18" markerWidth="18" refY="9" refX="0" id="ONLY_ONE_START"><path d="M9,0 L9,18 M15,0 L15,18" fill="none" stroke="gray"/></marker></defs><defs><marker orient="auto" markerHeight="18" markerWidth="18" refY="9" refX="18" id="ONLY_ONE_END"><path d="M3,0 L3,18 M9,0 L9,18" fill="none" stroke="gray"/></marker></defs><defs><marker orient="auto" markerHeight="18" markerWidth="30" refY="9" refX="0" id="ZERO_OR_ONE_START"><circle r="6" cy="9" cx="21" fill="white" stroke="gray"/><path d="M9,0 L9,18" fill="none" stroke="gray"/></marker></defs><defs><marker orient="auto" markerHeight="18" markerWidth="30" refY="9" refX="30" id="ZERO_OR_ONE_END"><circle r="6" cy="9" cx="9" fill="white" stroke="gray"/><path d="M21,0 L21,18" fill="none" stroke="gray"/></marker></defs><defs><marker orient="auto" markerHeight="36" markerWidth="45" refY="18" refX="18" id="ONE_OR_MORE_START"><path d="M0,18 Q 18,0 36,18 Q 18,36 0,18 M42,9 L42,27" fill="none" stroke="gray"/></marker></defs><defs><marker orient="auto" markerHeight="36" markerWidth="45" refY="18" refX="27" id="ONE_OR_MORE_END"><path d="M3,9 L3,27 M9,18 Q27,0 45,18 Q27,36 9,18" fill="none" stroke="gray"/></marker></defs><defs><marker orient="auto" markerHeight="36" markerWidth="57" refY="18" refX="18" id="ZERO_OR_MORE_START"><circle r="6" cy="18" cx="48" fill="white" stroke="gray"/><path d="M0,18 Q18,0 36,18 Q18,36 0,18" fill="none" stroke="gray"/></marker></defs><defs><marker orient="auto" markerHeight="36" markerWidth="57" refY="18" refX="39" id="ZERO_OR_MORE_END"><circle r="6" cy="18" cx="9" fill="white" stroke="gray"/><path d="M21,18 Q39,0 57,18 Q39,36 21,18" fill="none" stroke="gray"/></marker></defs><path style="stroke: gray; fill: none;" marker-start="url(#ONLY_ONE_START)" marker-end="url(#ZERO_OR_MORE_END)" d="M171.203,360.181L181.094,369.576C190.984,378.971,210.766,397.761,226.114,415.489C241.462,433.217,252.377,449.884,257.834,458.217L263.292,466.551" class="er relationshipLine"/><path style="stroke: gray; fill: none;" marker-start="url(#ONLY_ONE_START)" marker-end="url(#ZERO_OR_MORE_END)" d="M95.602,366.551L95.602,374.884C95.602,383.217,95.602,399.884,95.602,429.566C95.602,459.248,95.602,501.945,95.602,544.643C95.602,587.34,95.602,630.037,134.759,667.949C173.917,705.861,252.232,738.987,291.389,755.55L330.547,772.113" class="er relationshipLine"/><path style="stroke: gray; fill: none;" marker-start="url(#ONLY_ONE_START)" marker-end="url(#ZERO_OR_MORE_END)" d="M34.608,366.551L28.107,374.884C21.606,383.217,8.604,399.884,2.103,429.566C-4.398,459.248,-4.398,501.945,-4.398,544.643C-4.398,587.34,-4.398,630.037,-4.398,672.727C-4.398,715.416,-4.398,758.098,-4.398,800.78C-4.398,843.462,-4.398,886.144,17.972,922.985C40.342,959.825,85.083,990.825,107.454,1006.324L129.824,1021.824" class="er relationshipLine"/><path style="stroke: gray; fill: none;" marker-start="url(#ONLY_ONE_START)" marker-end="url(#ZERO_OR_MORE_END)" d="M364.434,110.184L364.434,118.517C364.434,126.85,364.434,143.517,364.434,163.858C364.434,184.199,364.434,208.214,364.434,220.222L364.434,232.229" class="er relationshipLine"/><path style="stroke: gray; fill: none;" marker-start="url(#ONLY_ONE_START)" marker-end="url(#ZERO_OR_MORE_END)" d="M364.434,344.505L364.434,356.513C364.434,368.52,364.434,392.535,361.181,412.876C357.928,433.217,351.422,449.884,348.169,458.217L344.916,466.551" class="er relationshipLine"/><path style="stroke: gray; fill: none;" marker-start="url(#ONLY_ONE_START)" marker-end="url(#ZERO_OR_MORE_END)" d="M365.576,622.734L371.033,631.068C376.49,639.401,387.405,656.068,392.863,672.734C398.32,689.401,398.32,706.068,398.32,714.401L398.32,722.734" class="er relationshipLine"/><path style="stroke: gray; fill: none;" marker-start="url(#ONLY_ONE_START)" marker-end="url(#ZERO_OR_MORE_END)" d="M263.292,622.734L257.834,631.068C252.377,639.401,241.462,656.068,236.004,685.742C230.547,715.416,230.547,758.098,230.547,800.78C230.547,843.462,230.547,886.144,228.503,915.819C226.459,945.493,222.371,962.16,220.327,970.493L218.282,978.826" class="er relationshipLine"/><path style="stroke: gray; fill: none;" marker-start="url(#ONLY_ONE_START)" marker-end="url(#ZERO_OR_MORE_END)" d="M398.32,878.826L398.32,887.16C398.32,895.493,398.32,912.16,375.769,936.034C353.217,959.908,308.115,990.99,285.563,1006.531L263.012,1022.072" class="er relationshipLine"/><g transform="translate(20,210.18359375 )" id="entity-USER-6e7e2962-0c6f-577d-a7fd-2ce3a0cfd2c8"><rect height="156.36719036102295" width="151.203125" y="0" x="0" class="er entityBox"/><text style="dominant-baseline: middle; text-anchor: middle; font-size: 12px;" transform="translate(75.6015625,12)" y="0" x="0" id="text-entity-USER-6e7e2962-0c6f-577d-a7fd-2ce3a0cfd2c8" class="er entityLabel">USER</text><rect height="22" width="51.640625" y="24" x="0" class="er attributeBoxOdd"/><text style="dominant-baseline: middle; font-size: 10.2px;" transform="translate(5,35)" y="0" x="0" id="text-entity-USER-6e7e2962-0c6f-577d-a7fd-2ce3a0cfd2c8-attr-1-type" class="er entityLabel">int</text><rect height="22" width="78" y="24" x="51.640625" class="er attributeBoxOdd"/><text style="dominant-baseline: middle; font-size: 10.2px;" transform="translate(56.640625,35)" y="0" x="0" id="text-entity-USER-6e7e2962-0c6f-577d-a7fd-2ce3a0cfd2c8-attr-1-name" class="er entityLabel">id</text><rect height="22" width="21.5625" y="24" x="129.640625" class="er attributeBoxOdd"/><text style="dominant-baseline: middle; font-size: 10.2px;" transform="translate(134.640625,35)" y="0" x="0" id="text-entity-USER-6e7e2962-0c6f-577d-a7fd-2ce3a0cfd2c8-attr-1-key" class="er entityLabel">PK</text><rect height="22.091797828674316" width="51.640625" y="46" x="0" class="er attributeBoxEven"/><text style="dominant-baseline: middle; font-size: 10.2px;" transform="translate(5,57.04589891433716)" y="0" x="0" id="text-entity-USER-6e7e2962-0c6f-577d-a7fd-2ce3a0cfd2c8-attr-2-type" class="er entityLabel">string</text><rect height="22.091797828674316" width="78" y="46" x="51.640625" class="er attributeBoxEven"/><text style="dominant-baseline: middle; font-size: 10.2px;" transform="translate(56.640625,57.04589891433716)" y="0" x="0" id="text-entity-USER-6e7e2962-0c6f-577d-a7fd-2ce3a0cfd2c8-attr-2-name" class="er entityLabel">username</text><rect height="22.091797828674316" width="21.5625" y="46" x="129.640625" class="er attributeBoxEven"/><text style="dominant-baseline: middle; font-size: 10.2px;" transform="translate(134.640625,57.04589891433716)" y="0" x="0" id="text-entity-USER-6e7e2962-0c6f-577d-a7fd-2ce3a0cfd2c8-attr-2-key" class="er entityLabel"/><rect height="22.091797828674316" width="51.640625" y="68.09179782867432" x="0" class="er attributeBoxOdd"/><text style="dominant-baseline: middle; font-size: 10.2px;" transform="translate(5,79.13769674301147)" y="0" x="0" id="text-entity-USER-6e7e2962-0c6f-577d-a7fd-2ce3a0cfd2c8-attr-3-type" class="er entityLabel">string</text><rect height="22.091797828674316" width="78" y="68.09179782867432" x="51.640625" class="er attributeBoxOdd"/><text style="dominant-baseline: middle; font-size: 10.2px;" transform="translate(56.640625,79.13769674301147)" y="0" x="0" id="text-entity-USER-6e7e2962-0c6f-577d-a7fd-2ce3a0cfd2c8-attr-3-name" class="er entityLabel">password_hash</text><rect height="22.091797828674316" width="21.5625" y="68.09179782867432" x="129.640625" class="er attributeBoxOdd"/><text style="dominant-baseline: middle; font-size: 10.2px;" transform="translate(134.640625,79.13769674301147)" y="0" x="0" id="text-entity-USER-6e7e2962-0c6f-577d-a7fd-2ce3a0cfd2c8-attr-3-key" class="er entityLabel"/><rect height="22.091797828674316" width="51.640625" y="90.18359565734863" x="0" class="er attributeBoxEven"/><text style="dominant-baseline: middle; font-size: 10.2px;" transform="translate(5,101.22949457168579)" y="0" x="0" id="text-entity-USER-6e7e2962-0c6f-577d-a7fd-2ce3a0cfd2c8-attr-4-type" class="er entityLabel">string</text><rect height="22.091797828674316" width="78" y="90.18359565734863" x="51.640625" class="er attributeBoxEven"/><text style="dominant-baseline: middle; font-size: 10.2px;" transform="translate(56.640625,101.22949457168579)" y="0" x="0" id="text-entity-USER-6e7e2962-0c6f-577d-a7fd-2ce3a0cfd2c8-attr-4-name" class="er entityLabel">email</text><rect height="22.091797828674316" width="21.5625" y="90.18359565734863" x="129.640625" class="er attributeBoxEven"/><text style="dominant-baseline: middle; font-size: 10.2px;" transform="translate(134.640625,101.22949457168579)" y="0" x="0" id="text-entity-USER-6e7e2962-0c6f-577d-a7fd-2ce3a0cfd2c8-attr-4-key" class="er entityLabel"/><rect height="22" width="51.640625" y="112.27539348602295" x="0" class="er attributeBoxOdd"/><text style="dominant-baseline: middle; font-size: 10.2px;" transform="translate(5,123.27539348602295)" y="0" x="0" id="text-entity-USER-6e7e2962-0c6f-577d-a7fd-2ce3a0cfd2c8-attr-5-type" class="er entityLabel">datetime</text><rect height="22" width="78" y="112.27539348602295" x="51.640625" class="er attributeBoxOdd"/><text style="dominant-baseline: middle; font-size: 10.2px;" transform="translate(56.640625,123.27539348602295)" y="0" x="0" id="text-entity-USER-6e7e2962-0c6f-577d-a7fd-2ce3a0cfd2c8-attr-5-name" class="er entityLabel">created_at</text><rect height="22" width="21.5625" y="112.27539348602295" x="129.640625" class="er attributeBoxOdd"/><text style="dominant-baseline: middle; font-size: 10.2px;" transform="translate(134.640625,123.27539348602295)" y="0" x="0" id="text-entity-USER-6e7e2962-0c6f-577d-a7fd-2ce3a0cfd2c8-attr-5-key" class="er entityLabel"/><rect height="22.091796875" width="51.640625" y="134.27539348602295" x="0" class="er attributeBoxEven"/><text style="dominant-baseline: middle; font-size: 10.2px;" transform="translate(5,145.32129192352295)" y="0" x="0" id="text-entity-USER-6e7e2962-0c6f-577d-a7fd-2ce3a0cfd2c8-attr-6-type" class="er entityLabel">datetime</text><rect height="22.091796875" width="78" y="134.27539348602295" x="51.640625" class="er attributeBoxEven"/><text style="dominant-baseline: middle; font-size: 10.2px;" transform="translate(56.640625,145.32129192352295)" y="0" x="0" id="text-entity-USER-6e7e2962-0c6f-577d-a7fd-2ce3a0cfd2c8-attr-6-name" class="er entityLabel">updated_at</text><rect height="22.091796875" width="21.5625" y="134.27539348602295" x="129.640625" class="er attributeBoxEven"/><text style="dominant-baseline: middle; font-size: 10.2px;" transform="translate(134.640625,145.32129192352295)" y="0" x="0" id="text-entity-USER-6e7e2962-0c6f-577d-a7fd-2ce3a0cfd2c8-attr-6-key" class="er entityLabel"/></g><g transform="translate(305.28515625,20 )" id="entity-CATEGORY-4496cc9e-da1f-5994-ab05-87aa395a773d"><rect height="90.18359565734863" width="118.296875" y="0" x="0" class="er entityBox"/><text style="dominant-baseline: middle; text-anchor: middle; font-size: 12px;" transform="translate(59.1484375,12)" y="0" x="0" id="text-entity-CATEGORY-4496cc9e-da1f-5994-ab05-87aa395a773d" class="er entityLabel">CATEGORY</text><rect height="22" width="35.75" y="24" x="0" class="er attributeBoxOdd"/><text style="dominant-baseline: middle; font-size: 10.2px;" transform="translate(5,35)" y="0" x="0" id="text-entity-CATEGORY-4496cc9e-da1f-5994-ab05-87aa395a773d-attr-1-type" class="er entityLabel">int</text><rect height="22" width="60.984375" y="24" x="35.75" class="er attributeBoxOdd"/><text style="dominant-baseline: middle; font-size: 10.2px;" transform="translate(40.75,35)" y="0" x="0" id="text-entity-CATEGORY-4496cc9e-da1f-5994-ab05-87aa395a773d-attr-1-name" class="er entityLabel">id</text><rect height="22" width="21.5625" y="24" x="96.734375" class="er attributeBoxOdd"/><text style="dominant-baseline: middle; font-size: 10.2px;" transform="translate(101.734375,35)" y="0" x="0" id="text-entity-CATEGORY-4496cc9e-da1f-5994-ab05-87aa395a773d-attr-1-key" class="er entityLabel">PK</text><rect height="22.091797828674316" width="35.75" y="46" x="0" class="er attributeBoxEven"/><text style="dominant-baseline: middle; font-size: 10.2px;" transform="translate(5,57.04589891433716)" y="0" x="0" id="text-entity-CATEGORY-4496cc9e-da1f-5994-ab05-87aa395a773d-attr-2-type" class="er entityLabel">string</text><rect height="22.091797828674316" width="60.984375" y="46" x="35.75" class="er attributeBoxEven"/><text style="dominant-baseline: middle; font-size: 10.2px;" transform="translate(40.75,57.04589891433716)" y="0" x="0" id="text-entity-CATEGORY-4496cc9e-da1f-5994-ab05-87aa395a773d-attr-2-name" class="er entityLabel">name</text><rect height="22.091797828674316" width="21.5625" y="46" x="96.734375" class="er attributeBoxEven"/><text style="dominant-baseline: middle; font-size: 10.2px;" transform="translate(101.734375,57.04589891433716)" y="0" x="0" id="text-entity-CATEGORY-4496cc9e-da1f-5994-ab05-87aa395a773d-attr-2-key" class="er entityLabel"/><rect height="22.091797828674316" width="35.75" y="68.09179782867432" x="0" class="er attributeBoxOdd"/><text style="dominant-baseline: middle; font-size: 10.2px;" transform="translate(5,79.13769674301147)" y="0" x="0" id="text-entity-CATEGORY-4496cc9e-da1f-5994-ab05-87aa395a773d-attr-3-type" class="er entityLabel">string</text><rect height="22.091797828674316" width="60.984375" y="68.09179782867432" x="35.75" class="er attributeBoxOdd"/><text style="dominant-baseline: middle; font-size: 10.2px;" transform="translate(40.75,79.13769674301147)" y="0" x="0" id="text-entity-CATEGORY-4496cc9e-da1f-5994-ab05-87aa395a773d-attr-3-name" class="er entityLabel">description</text><rect height="22.091797828674316" width="21.5625" y="68.09179782867432" x="96.734375" class="er attributeBoxOdd"/><text style="dominant-baseline: middle; font-size: 10.2px;" transform="translate(101.734375,79.13769674301147)" y="0" x="0" id="text-entity-CATEGORY-4496cc9e-da1f-5994-ab05-87aa395a773d-attr-3-key" class="er entityLabel"/></g><g transform="translate(304.00390625,232.2294921875 )" id="entity-SUBFORUM-5233d883-ccdf-5a9b-bee1-de58c42d0788"><rect height="112.27539348602295" width="120.859375" y="0" x="0" class="er entityBox"/><text style="dominant-baseline: middle; text-anchor: middle; font-size: 12px;" transform="translate(60.4296875,12)" y="0" x="0" id="text-entity-SUBFORUM-5233d883-ccdf-5a9b-bee1-de58c42d0788" class="er entityLabel">SUBFORUM</text><rect height="22" width="35.75" y="24" x="0" class="er attributeBoxOdd"/><text style="dominant-baseline: middle; font-size: 10.2px;" transform="translate(5,35)" y="0" x="0" id="text-entity-SUBFORUM-5233d883-ccdf-5a9b-bee1-de58c42d0788-attr-1-type" class="er entityLabel">int</text><rect height="22" width="63.546875" y="24" x="35.75" class="er attributeBoxOdd"/><text style="dominant-baseline: middle; font-size: 10.2px;" transform="translate(40.75,35)" y="0" x="0" id="text-entity-SUBFORUM-5233d883-ccdf-5a9b-bee1-de58c42d0788-attr-1-name" class="er entityLabel">id</text><rect height="22" width="21.5625" y="24" x="99.296875" class="er attributeBoxOdd"/><text style="dominant-baseline: middle; font-size: 10.2px;" transform="translate(104.296875,35)" y="0" x="0" id="text-entity-SUBFORUM-5233d883-ccdf-5a9b-bee1-de58c42d0788-attr-1-key" class="er entityLabel">PK</text><rect height="22.091797828674316" width="35.75" y="46" x="0" class="er attributeBoxEven"/><text style="dominant-baseline: middle; font-size: 10.2px;" transform="translate(5,57.04589891433716)" y="0" x="0" id="text-entity-SUBFORUM-5233d883-ccdf-5a9b-bee1-de58c42d0788-attr-2-type" class="er entityLabel">int</text><rect height="22.091797828674316" width="63.546875" y="46" x="35.75" class="er attributeBoxEven"/><text style="dominant-baseline: middle; font-size: 10.2px;" transform="translate(40.75,57.04589891433716)" y="0" x="0" id="text-entity-SUBFORUM-5233d883-ccdf-5a9b-bee1-de58c42d0788-attr-2-name" class="er entityLabel">category_id</text><rect height="22.091797828674316" width="21.5625" y="46" x="99.296875" class="er attributeBoxEven"/><text style="dominant-baseline: middle; font-size: 10.2px;" transform="translate(104.296875,57.04589891433716)" y="0" x="0" id="text-entity-SUBFORUM-5233d883-ccdf-5a9b-bee1-de58c42d0788-attr-2-key" class="er entityLabel">FK</text><rect height="22.091797828674316" width="35.75" y="68.09179782867432" x="0" class="er attributeBoxOdd"/><text style="dominant-baseline: middle; font-size: 10.2px;" transform="translate(5,79.13769674301147)" y="0" x="0" id="text-entity-SUBFORUM-5233d883-ccdf-5a9b-bee1-de58c42d0788-attr-3-type" class="er entityLabel">string</text><rect height="22.091797828674316" width="63.546875" y="68.09179782867432" x="35.75" class="er attributeBoxOdd"/><text style="dominant-baseline: middle; font-size: 10.2px;" transform="translate(40.75,79.13769674301147)" y="0" x="0" id="text-entity-SUBFORUM-5233d883-ccdf-5a9b-bee1-de58c42d0788-attr-3-name" class="er entityLabel">name</text><rect height="22.091797828674316" width="21.5625" y="68.09179782867432" x="99.296875" class="er attributeBoxOdd"/><text style="dominant-baseline: middle; font-size: 10.2px;" transform="translate(104.296875,79.13769674301147)" y="0" x="0" id="text-entity-SUBFORUM-5233d883-ccdf-5a9b-bee1-de58c42d0788-attr-3-key" class="er entityLabel"/><rect height="22.091797828674316" width="35.75" y="90.18359565734863" x="0" class="er attributeBoxEven"/><text style="dominant-baseline: middle; font-size: 10.2px;" transform="translate(5,101.22949457168579)" y="0" x="0" id="text-entity-SUBFORUM-5233d883-ccdf-5a9b-bee1-de58c42d0788-attr-4-type" class="er entityLabel">string</text><rect height="22.091797828674316" width="63.546875" y="90.18359565734863" x="35.75" class="er attributeBoxEven"/><text style="dominant-baseline: middle; font-size: 10.2px;" transform="translate(40.75,101.22949457168579)" y="0" x="0" id="text-entity-SUBFORUM-5233d883-ccdf-5a9b-bee1-de58c42d0788-attr-4-name" class="er entityLabel">description</text><rect height="22.091797828674316" width="21.5625" y="90.18359565734863" x="99.296875" class="er attributeBoxEven"/><text style="dominant-baseline: middle; font-size: 10.2px;" transform="translate(104.296875,101.22949457168579)" y="0" x="0" id="text-entity-SUBFORUM-5233d883-ccdf-5a9b-bee1-de58c42d0788-attr-4-key" class="er entityLabel"/></g><g transform="translate(244.54296875,466.55078125 )" id="entity-THREAD-6cabdf8e-3cf2-5f9b-b573-95c5d2eed208"><rect height="156.18359470367432" width="139.78125" y="0" x="0" class="er entityBox"/><text style="dominant-baseline: middle; text-anchor: middle; font-size: 12px;" transform="translate(69.890625,12)" y="0" x="0" id="text-entity-THREAD-6cabdf8e-3cf2-5f9b-b573-95c5d2eed208" class="er entityLabel">THREAD</text><rect height="22" width="51.640625" y="24" x="0" class="er attributeBoxOdd"/><text style="dominant-baseline: middle; font-size: 10.2px;" transform="translate(5,35)" y="0" x="0" id="text-entity-THREAD-6cabdf8e-3cf2-5f9b-b573-95c5d2eed208-attr-1-type" class="er entityLabel">int</text><rect height="22" width="66.578125" y="24" x="51.640625" class="er attributeBoxOdd"/><text style="dominant-baseline: middle; font-size: 10.2px;" transform="translate(56.640625,35)" y="0" x="0" id="text-entity-THREAD-6cabdf8e-3cf2-5f9b-b573-95c5d2eed208-attr-1-name" class="er entityLabel">id</text><rect height="22" width="21.5625" y="24" x="118.21875" class="er attributeBoxOdd"/><text style="dominant-baseline: middle; font-size: 10.2px;" transform="translate(123.21875,35)" y="0" x="0" id="text-entity-THREAD-6cabdf8e-3cf2-5f9b-b573-95c5d2eed208-attr-1-key" class="er entityLabel">PK</text><rect height="22" width="51.640625" y="46" x="0" class="er attributeBoxEven"/><text style="dominant-baseline: middle; font-size: 10.2px;" transform="translate(5,57)" y="0" x="0" id="text-entity-THREAD-6cabdf8e-3cf2-5f9b-b573-95c5d2eed208-attr-2-type" class="er entityLabel">int</text><rect height="22" width="66.578125" y="46" x="51.640625" class="er attributeBoxEven"/><text style="dominant-baseline: middle; font-size: 10.2px;" transform="translate(56.640625,57)" y="0" x="0" id="text-entity-THREAD-6cabdf8e-3cf2-5f9b-b573-95c5d2eed208-attr-2-name" class="er entityLabel">subforum_id</text><rect height="22" width="21.5625" y="46" x="118.21875" class="er attributeBoxEven"/><text style="dominant-baseline: middle; font-size: 10.2px;" transform="translate(123.21875,57)" y="0" x="0" id="text-entity-THREAD-6cabdf8e-3cf2-5f9b-b573-95c5d2eed208-attr-2-key" class="er entityLabel">FK</text><rect height="22" width="51.640625" y="68" x="0" class="er attributeBoxOdd"/><text style="dominant-baseline: middle; font-size: 10.2px;" transform="translate(5,79)" y="0" x="0" id="text-entity-THREAD-6cabdf8e-3cf2-5f9b-b573-95c5d2eed208-attr-3-type" class="er entityLabel">int</text><rect height="22" width="66.578125" y="68" x="51.640625" class="er attributeBoxOdd"/><text style="dominant-baseline: middle; font-size: 10.2px;" transform="translate(56.640625,79)" y="0" x="0" id="text-entity-THREAD-6cabdf8e-3cf2-5f9b-b573-95c5d2eed208-attr-3-name" class="er entityLabel">user_id</text><rect height="22" width="21.5625" y="68" x="118.21875" class="er attributeBoxOdd"/><text style="dominant-baseline: middle; font-size: 10.2px;" transform="translate(123.21875,79)" y="0" x="0" id="text-entity-THREAD-6cabdf8e-3cf2-5f9b-b573-95c5d2eed208-attr-3-key" class="er entityLabel">FK</text><rect height="22.091797828674316" width="51.640625" y="90" x="0" class="er attributeBoxEven"/><text style="dominant-baseline: middle; font-size: 10.2px;" transform="translate(5,101.04589891433716)" y="0" x="0" id="text-entity-THREAD-6cabdf8e-3cf2-5f9b-b573-95c5d2eed208-attr-4-type" class="er entityLabel">string</text><rect height="22.091797828674316" width="66.578125" y="90" x="51.640625" class="er attributeBoxEven"/><text style="dominant-baseline: middle; font-size: 10.2px;" transform="translate(56.640625,101.04589891433716)" y="0" x="0" id="text-entity-THREAD-6cabdf8e-3cf2-5f9b-b573-95c5d2eed208-attr-4-name" class="er entityLabel">title</text><rect height="22.091797828674316" width="21.5625" y="90" x="118.21875" class="er attributeBoxEven"/><text style="dominant-baseline: middle; font-size: 10.2px;" transform="translate(123.21875,101.04589891433716)" y="0" x="0" id="text-entity-THREAD-6cabdf8e-3cf2-5f9b-b573-95c5d2eed208-attr-4-key" class="er entityLabel"/><rect height="22" width="51.640625" y="112.09179782867432" x="0" class="er attributeBoxOdd"/><text style="dominant-baseline: middle; font-size: 10.2px;" transform="translate(5,123.09179782867432)" y="0" x="0" id="text-entity-THREAD-6cabdf8e-3cf2-5f9b-b573-95c5d2eed208-attr-5-type" class="er entityLabel">datetime</text><rect height="22" width="66.578125" y="112.09179782867432" x="51.640625" class="er attributeBoxOdd"/><text style="dominant-baseline: middle; font-size: 10.2px;" transform="translate(56.640625,123.09179782867432)" y="0" x="0" id="text-entity-THREAD-6cabdf8e-3cf2-5f9b-b573-95c5d2eed208-attr-5-name" class="er entityLabel">created_at</text><rect height="22" width="21.5625" y="112.09179782867432" x="118.21875" class="er attributeBoxOdd"/><text style="dominant-baseline: middle; font-size: 10.2px;" transform="translate(123.21875,123.09179782867432)" y="0" x="0" id="text-entity-THREAD-6cabdf8e-3cf2-5f9b-b573-95c5d2eed208-attr-5-key" class="er entityLabel"/><rect height="22.091796875" width="51.640625" y="134.09179782867432" x="0" class="er attributeBoxEven"/><text style="dominant-baseline: middle; font-size: 10.2px;" transform="translate(5,145.13769626617432)" y="0" x="0" id="text-entity-THREAD-6cabdf8e-3cf2-5f9b-b573-95c5d2eed208-attr-6-type" class="er entityLabel">datetime</text><rect height="22.091796875" width="66.578125" y="134.09179782867432" x="51.640625" class="er attributeBoxEven"/><text style="dominant-baseline: middle; font-size: 10.2px;" transform="translate(56.640625,145.13769626617432)" y="0" x="0" id="text-entity-THREAD-6cabdf8e-3cf2-5f9b-b573-95c5d2eed208-attr-6-name" class="er entityLabel">updated_at</text><rect height="22.091796875" width="21.5625" y="134.09179782867432" x="118.21875" class="er attributeBoxEven"/><text style="dominant-baseline: middle; font-size: 10.2px;" transform="translate(123.21875,145.13769626617432)" y="0" x="0" id="text-entity-THREAD-6cabdf8e-3cf2-5f9b-b573-95c5d2eed208-attr-6-key" class="er entityLabel"/></g><g transform="translate(330.546875,722.734375 )" id="entity-POST-dedb1204-6961-5504-b717-5f982e5d0300"><rect height="156.091796875" width="135.546875" y="0" x="0" class="er entityBox"/><text style="dominant-baseline: middle; text-anchor: middle; font-size: 12px;" transform="translate(67.7734375,12)" y="0" x="0" id="text-entity-POST-dedb1204-6961-5504-b717-5f982e5d0300" class="er entityLabel">POST</text><rect height="22" width="51.640625" y="24" x="0" class="er attributeBoxOdd"/><text style="dominant-baseline: middle; font-size: 10.2px;" transform="translate(5,35)" y="0" x="0" id="text-entity-POST-dedb1204-6961-5504-b717-5f982e5d0300-attr-1-type" class="er entityLabel">int</text><rect height="22" width="62.34375" y="24" x="51.640625" class="er attributeBoxOdd"/><text style="dominant-baseline: middle; font-size: 10.2px;" transform="translate(56.640625,35)" y="0" x="0" id="text-entity-POST-dedb1204-6961-5504-b717-5f982e5d0300-attr-1-name" class="er entityLabel">id</text><rect height="22" width="21.5625" y="24" x="113.984375" class="er attributeBoxOdd"/><text style="dominant-baseline: middle; font-size: 10.2px;" transform="translate(118.984375,35)" y="0" x="0" id="text-entity-POST-dedb1204-6961-5504-b717-5f982e5d0300-attr-1-key" class="er entityLabel">PK</text><rect height="22" width="51.640625" y="46" x="0" class="er attributeBoxEven"/><text style="dominant-baseline: middle; font-size: 10.2px;" transform="translate(5,57)" y="0" x="0" id="text-entity-POST-dedb1204-6961-5504-b717-5f982e5d0300-attr-2-type" class="er entityLabel">int</text><rect height="22" width="62.34375" y="46" x="51.640625" class="er attributeBoxEven"/><text style="dominant-baseline: middle; font-size: 10.2px;" transform="translate(56.640625,57)" y="0" x="0" id="text-entity-POST-dedb1204-6961-5504-b717-5f982e5d0300-attr-2-name" class="er entityLabel">thread_id</text><rect height="22" width="21.5625" y="46" x="113.984375" class="er attributeBoxEven"/><text style="dominant-baseline: middle; font-size: 10.2px;" transform="translate(118.984375,57)" y="0" x="0" id="text-entity-POST-dedb1204-6961-5504-b717-5f982e5d0300-attr-2-key" class="er entityLabel">FK</text><rect height="22" width="51.640625" y="68" x="0" class="er attributeBoxOdd"/><text style="dominant-baseline: middle; font-size: 10.2px;" transform="translate(5,79)" y="0" x="0" id="text-entity-POST-dedb1204-6961-5504-b717-5f982e5d0300-attr-3-type" class="er entityLabel">int</text><rect height="22" width="62.34375" y="68" x="51.640625" class="er attributeBoxOdd"/><text style="dominant-baseline: middle; font-size: 10.2px;" transform="translate(56.640625,79)" y="0" x="0" id="text-entity-POST-dedb1204-6961-5504-b717-5f982e5d0300-attr-3-name" class="er entityLabel">user_id</text><rect height="22" width="21.5625" y="68" x="113.984375" class="er attributeBoxOdd"/><text style="dominant-baseline: middle; font-size: 10.2px;" transform="translate(118.984375,79)" y="0" x="0" id="text-entity-POST-dedb1204-6961-5504-b717-5f982e5d0300-attr-3-key" class="er entityLabel">FK</text><rect height="22" width="51.640625" y="90" x="0" class="er attributeBoxEven"/><text style="dominant-baseline: middle; font-size: 10.2px;" transform="translate(5,101)" y="0" x="0" id="text-entity-POST-dedb1204-6961-5504-b717-5f982e5d0300-attr-4-type" class="er entityLabel">text</text><rect height="22" width="62.34375" y="90" x="51.640625" class="er attributeBoxEven"/><text style="dominant-baseline: middle; font-size: 10.2px;" transform="translate(56.640625,101)" y="0" x="0" id="text-entity-POST-dedb1204-6961-5504-b717-5f982e5d0300-attr-4-name" class="er entityLabel">content</text><rect height="22" width="21.5625" y="90" x="113.984375" class="er attributeBoxEven"/><text style="dominant-baseline: middle; font-size: 10.2px;" transform="translate(118.984375,101)" y="0" x="0" id="text-entity-POST-dedb1204-6961-5504-b717-5f982e5d0300-attr-4-key" class="er entityLabel"/><rect height="22" width="51.640625" y="112" x="0" class="er attributeBoxOdd"/><text style="dominant-baseline: middle; font-size: 10.2px;" transform="translate(5,123)" y="0" x="0" id="text-entity-POST-dedb1204-6961-5504-b717-5f982e5d0300-attr-5-type" class="er entityLabel">datetime</text><rect height="22" width="62.34375" y="112" x="51.640625" class="er attributeBoxOdd"/><text style="dominant-baseline: middle; font-size: 10.2px;" transform="translate(56.640625,123)" y="0" x="0" id="text-entity-POST-dedb1204-6961-5504-b717-5f982e5d0300-attr-5-name" class="er entityLabel">created_at</text><rect height="22" width="21.5625" y="112" x="113.984375" class="er attributeBoxOdd"/><text style="dominant-baseline: middle; font-size: 10.2px;" transform="translate(118.984375,123)" y="0" x="0" id="text-entity-POST-dedb1204-6961-5504-b717-5f982e5d0300-attr-5-key" class="er entityLabel"/><rect height="22.091796875" width="51.640625" y="134" x="0" class="er attributeBoxEven"/><text style="dominant-baseline: middle; font-size: 10.2px;" transform="translate(5,145.0458984375)" y="0" x="0" id="text-entity-POST-dedb1204-6961-5504-b717-5f982e5d0300-attr-6-type" class="er entityLabel">datetime</text><rect height="22.091796875" width="62.34375" y="134" x="51.640625" class="er attributeBoxEven"/><text style="dominant-baseline: middle; font-size: 10.2px;" transform="translate(56.640625,145.0458984375)" y="0" x="0" id="text-entity-POST-dedb1204-6961-5504-b717-5f982e5d0300-attr-6-name" class="er entityLabel">updated_at</text><rect height="22.091796875" width="21.5625" y="134" x="113.984375" class="er attributeBoxEven"/><text style="dominant-baseline: middle; font-size: 10.2px;" transform="translate(118.984375,145.0458984375)" y="0" x="0" id="text-entity-POST-dedb1204-6961-5504-b717-5f982e5d0300-attr-6-key" class="er entityLabel"/></g><g transform="translate(129.82421875,978.826171875 )" id="entity-FLAG-1b5f845b-b65d-5e3f-a9f1-fadbcf0b772f"><rect height="178.27539348602295" width="133.1875" y="0" x="0" class="er entityBox"/><text style="dominant-baseline: middle; text-anchor: middle; font-size: 12px;" transform="translate(66.59375,12)" y="0" x="0" id="text-entity-FLAG-1b5f845b-b65d-5e3f-a9f1-fadbcf0b772f" class="er entityLabel">FLAG</text><rect height="22" width="51.640625" y="24" x="0" class="er attributeBoxOdd"/><text style="dominant-baseline: middle; font-size: 10.2px;" transform="translate(5,35)" y="0" x="0" id="text-entity-FLAG-1b5f845b-b65d-5e3f-a9f1-fadbcf0b772f-attr-1-type" class="er entityLabel">int</text><rect height="22" width="59.984375" y="24" x="51.640625" class="er attributeBoxOdd"/><text style="dominant-baseline: middle; font-size: 10.2px;" transform="translate(56.640625,35)" y="0" x="0" id="text-entity-FLAG-1b5f845b-b65d-5e3f-a9f1-fadbcf0b772f-attr-1-name" class="er entityLabel">id</text><rect height="22" width="21.5625" y="24" x="111.625" class="er attributeBoxOdd"/><text style="dominant-baseline: middle; font-size: 10.2px;" transform="translate(116.625,35)" y="0" x="0" id="text-entity-FLAG-1b5f845b-b65d-5e3f-a9f1-fadbcf0b772f-attr-1-key" class="er entityLabel">PK</text><rect height="22" width="51.640625" y="46" x="0" class="er attributeBoxEven"/><text style="dominant-baseline: middle; font-size: 10.2px;" transform="translate(5,57)" y="0" x="0" id="text-entity-FLAG-1b5f845b-b65d-5e3f-a9f1-fadbcf0b772f-attr-2-type" class="er entityLabel">int</text><rect height="22" width="59.984375" y="46" x="51.640625" class="er attributeBoxEven"/><text style="dominant-baseline: middle; font-size: 10.2px;" transform="translate(56.640625,57)" y="0" x="0" id="text-entity-FLAG-1b5f845b-b65d-5e3f-a9f1-fadbcf0b772f-attr-2-name" class="er entityLabel">user_id</text><rect height="22" width="21.5625" y="46" x="111.625" class="er attributeBoxEven"/><text style="dominant-baseline: middle; font-size: 10.2px;" transform="translate(116.625,57)" y="0" x="0" id="text-entity-FLAG-1b5f845b-b65d-5e3f-a9f1-fadbcf0b772f-attr-2-key" class="er entityLabel">FK</text><rect height="22" width="51.640625" y="68" x="0" class="er attributeBoxOdd"/><text style="dominant-baseline: middle; font-size: 10.2px;" transform="translate(5,79)" y="0" x="0" id="text-entity-FLAG-1b5f845b-b65d-5e3f-a9f1-fadbcf0b772f-attr-3-type" class="er entityLabel">int</text><rect height="22" width="59.984375" y="68" x="51.640625" class="er attributeBoxOdd"/><text style="dominant-baseline: middle; font-size: 10.2px;" transform="translate(56.640625,79)" y="0" x="0" id="text-entity-FLAG-1b5f845b-b65d-5e3f-a9f1-fadbcf0b772f-attr-3-name" class="er entityLabel">thread_id</text><rect height="22" width="21.5625" y="68" x="111.625" class="er attributeBoxOdd"/><text style="dominant-baseline: middle; font-size: 10.2px;" transform="translate(116.625,79)" y="0" x="0" id="text-entity-FLAG-1b5f845b-b65d-5e3f-a9f1-fadbcf0b772f-attr-3-key" class="er entityLabel">FK</text><rect height="22.091797828674316" width="51.640625" y="90" x="0" class="er attributeBoxEven"/><text style="dominant-baseline: middle; font-size: 10.2px;" transform="translate(5,101.04589891433716)" y="0" x="0" id="text-entity-FLAG-1b5f845b-b65d-5e3f-a9f1-fadbcf0b772f-attr-4-type" class="er entityLabel">int</text><rect height="22.091797828674316" width="59.984375" y="90" x="51.640625" class="er attributeBoxEven"/><text style="dominant-baseline: middle; font-size: 10.2px;" transform="translate(56.640625,101.04589891433716)" y="0" x="0" id="text-entity-FLAG-1b5f845b-b65d-5e3f-a9f1-fadbcf0b772f-attr-4-name" class="er entityLabel">post_id</text><rect height="22.091797828674316" width="21.5625" y="90" x="111.625" class="er attributeBoxEven"/><text style="dominant-baseline: middle; font-size: 10.2px;" transform="translate(116.625,101.04589891433716)" y="0" x="0" id="text-entity-FLAG-1b5f845b-b65d-5e3f-a9f1-fadbcf0b772f-attr-4-key" class="er entityLabel">FK</text><rect height="22.091797828674316" width="51.640625" y="112.09179782867432" x="0" class="er attributeBoxOdd"/><text style="dominant-baseline: middle; font-size: 10.2px;" transform="translate(5,123.13769674301147)" y="0" x="0" id="text-entity-FLAG-1b5f845b-b65d-5e3f-a9f1-fadbcf0b772f-attr-5-type" class="er entityLabel">string</text><rect height="22.091797828674316" width="59.984375" y="112.09179782867432" x="51.640625" class="er attributeBoxOdd"/><text style="dominant-baseline: middle; font-size: 10.2px;" transform="translate(56.640625,123.13769674301147)" y="0" x="0" id="text-entity-FLAG-1b5f845b-b65d-5e3f-a9f1-fadbcf0b772f-attr-5-name" class="er entityLabel">reason</text><rect height="22.091797828674316" width="21.5625" y="112.09179782867432" x="111.625" class="er attributeBoxOdd"/><text style="dominant-baseline: middle; font-size: 10.2px;" transform="translate(116.625,123.13769674301147)" y="0" x="0" id="text-entity-FLAG-1b5f845b-b65d-5e3f-a9f1-fadbcf0b772f-attr-5-key" class="er entityLabel"/><rect height="22.091797828674316" width="51.640625" y="134.18359565734863" x="0" class="er attributeBoxEven"/><text style="dominant-baseline: middle; font-size: 10.2px;" transform="translate(5,145.2294945716858)" y="0" x="0" id="text-entity-FLAG-1b5f845b-b65d-5e3f-a9f1-fadbcf0b772f-attr-6-type" class="er entityLabel">string</text><rect height="22.091797828674316" width="59.984375" y="134.18359565734863" x="51.640625" class="er attributeBoxEven"/><text style="dominant-baseline: middle; font-size: 10.2px;" transform="translate(56.640625,145.2294945716858)" y="0" x="0" id="text-entity-FLAG-1b5f845b-b65d-5e3f-a9f1-fadbcf0b772f-attr-6-name" class="er entityLabel">status</text><rect height="22.091797828674316" width="21.5625" y="134.18359565734863" x="111.625" class="er attributeBoxEven"/><text style="dominant-baseline: middle; font-size: 10.2px;" transform="translate(116.625,145.2294945716858)" y="0" x="0" id="text-entity-FLAG-1b5f845b-b65d-5e3f-a9f1-fadbcf0b772f-attr-6-key" class="er entityLabel"/><rect height="22" width="51.640625" y="156.27539348602295" x="0" class="er attributeBoxOdd"/><text style="dominant-baseline: middle; font-size: 10.2px;" transform="translate(5,167.27539348602295)" y="0" x="0" id="text-entity-FLAG-1b5f845b-b65d-5e3f-a9f1-fadbcf0b772f-attr-7-type" class="er entityLabel">datetime</text><rect height="22" width="59.984375" y="156.27539348602295" x="51.640625" class="er attributeBoxOdd"/><text style="dominant-baseline: middle; font-size: 10.2px;" transform="translate(56.640625,167.27539348602295)" y="0" x="0" id="text-entity-FLAG-1b5f845b-b65d-5e3f-a9f1-fadbcf0b772f-attr-7-name" class="er entityLabel">created_at</text><rect height="22" width="21.5625" y="156.27539348602295" x="111.625" class="er attributeBoxOdd"/><text style="dominant-baseline: middle; font-size: 10.2px;" transform="translate(116.625,167.27539348602295)" y="0" x="0" id="text-entity-FLAG-1b5f845b-b65d-5e3f-a9f1-fadbcf0b772f-attr-7-key" class="er entityLabel"/></g><rect height="14" width="39.625" y="402.9671630859375" x="201.41354370117188" class="er relationshipLabelBox"/><text style="text-anchor: middle; dominant-baseline: middle; font-size: 12px;" y="409.9671630859375" x="221.22604370117188" id="rel1" class="er relationshipLabel">creates</text><rect height="14" width="33.1875" y="625.1304321289062" x="92.18653106689453" class="er relationshipLabelBox"/><text style="text-anchor: middle; dominant-baseline: middle; font-size: 12px;" y="632.1304321289062" x="108.78028106689453" id="rel2" class="er relationshipLabel">writes</text><rect height="14" width="38.625" y="710.286865234375" x="-23.710495948791504" class="er relationshipLabelBox"/><text style="text-anchor: middle; dominant-baseline: middle; font-size: 12px;" y="717.286865234375" x="-4.397995948791504" id="rel3" class="er relationshipLabel">reports</text><rect height="14" width="44.84375" y="164.2064971923828" x="342.0121154785156" class="er relationshipLabelBox"/><text style="text-anchor: middle; dominant-baseline: middle; font-size: 12px;" y="171.2064971923828" x="364.4339904785156" id="rel4" class="er relationshipLabel">contains</text><rect height="14" width="44.84375" y="399.78338623046875" x="339.6270446777344" class="er relationshipLabelBox"/><text style="text-anchor: middle; dominant-baseline: middle; font-size: 12px;" y="406.78338623046875" x="362.0489196777344" id="rel5" class="er relationshipLabel">contains</text><rect height="14" width="44.84375" y="662.6198120117188" x="369.359619140625" class="er relationshipLabelBox"/><text style="text-anchor: middle; dominant-baseline: middle; font-size: 12px;" y="669.6198120117188" x="391.781494140625" id="rel6" class="er relationshipLabel">contains</text><rect height="14" width="53.765625" y="790.99853515625" x="203.66464233398438" class="er relationshipLabelBox"/><text style="text-anchor: middle; dominant-baseline: middle; font-size: 12px;" y="797.99853515625" x="230.54745483398438" id="rel7" class="er relationshipLabel">may_have</text><rect height="14" width="53.765625" y="955.1212768554688" x="319.672119140625" class="er relationshipLabelBox"/><text style="text-anchor: middle; dominant-baseline: middle; font-size: 12px;" y="962.1212768554688" x="346.554931640625" id="rel8" class="er relationshipLabel">may_have</text></svg>