<svg aria-roledescription="er" role="graphics-document document" viewBox="0 0 216.453125 1134.203125" style="max-width: 216.453px; background-color: white;" xmlns:xlink="http://www.w3.org/1999/xlink" xmlns="http://www.w3.org/2000/svg" width="100%" id="my-svg"><style>#my-svg{font-family:"trebuchet ms",verdana,arial,sans-serif;font-size:16px;fill:#333;}#my-svg .error-icon{fill:#552222;}#my-svg .error-text{fill:#552222;stroke:#552222;}#my-svg .edge-thickness-normal{stroke-width:1px;}#my-svg .edge-thickness-thick{stroke-width:3.5px;}#my-svg .edge-pattern-solid{stroke-dasharray:0;}#my-svg .edge-thickness-invisible{stroke-width:0;fill:none;}#my-svg .edge-pattern-dashed{stroke-dasharray:3;}#my-svg .edge-pattern-dotted{stroke-dasharray:2;}#my-svg .marker{fill:#333333;stroke:#333333;}#my-svg .marker.cross{stroke:#333333;}#my-svg svg{font-family:"trebuchet ms",verdana,arial,sans-serif;font-size:16px;}#my-svg p{margin:0;}#my-svg .entityBox{fill:#ECECFF;stroke:#9370DB;}#my-svg .attributeBoxOdd{fill:#ffffff;stroke:#9370DB;}#my-svg .attributeBoxEven{fill:#f2f2f2;stroke:#9370DB;}#my-svg .relationshipLabelBox{fill:hsl(80, 100%, 96.2745098039%);opacity:0.7;background-color:hsl(80, 100%, 96.2745098039%);}#my-svg .relationshipLabelBox rect{opacity:0.5;}#my-svg .relationshipLine{stroke:#333333;}#my-svg .entityTitleText{text-anchor:middle;font-size:18px;fill:#333;}#my-svg #MD_PARENT_START{fill:#f5f5f5!important;stroke:#333333!important;stroke-width:1;}#my-svg #MD_PARENT_END{fill:#f5f5f5!important;stroke:#333333!important;stroke-width:1;}#my-svg :root{--mermaid-font-family:"trebuchet ms",verdana,arial,sans-serif;}</style><g/><defs><marker orient="auto" markerHeight="240" markerWidth="190" refY="7" refX="0" id="MD_PARENT_START"><path d="M 18,7 L9,13 L1,7 L9,1 Z"/></marker></defs><defs><marker orient="auto" markerHeight="28" markerWidth="20" refY="7" refX="19" id="MD_PARENT_END"><path d="M 18,7 L9,13 L1,7 L9,1 Z"/></marker></defs><defs><marker orient="auto" markerHeight="18" markerWidth="18" refY="9" refX="0" id="ONLY_ONE_START"><path d="M9,0 L9,18 M15,0 L15,18" fill="none" stroke="gray"/></marker></defs><defs><marker orient="auto" markerHeight="18" markerWidth="18" refY="9" refX="18" id="ONLY_ONE_END"><path d="M3,0 L3,18 M9,0 L9,18" fill="none" stroke="gray"/></marker></defs><defs><marker orient="auto" markerHeight="18" markerWidth="30" refY="9" refX="0" id="ZERO_OR_ONE_START"><circle r="6" cy="9" cx="21" fill="white" stroke="gray"/><path d="M9,0 L9,18" fill="none" stroke="gray"/></marker></defs><defs><marker orient="auto" markerHeight="18" markerWidth="30" refY="9" refX="30" id="ZERO_OR_ONE_END"><circle r="6" cy="9" cx="9" fill="white" stroke="gray"/><path d="M21,0 L21,18" fill="none" stroke="gray"/></marker></defs><defs><marker orient="auto" markerHeight="36" markerWidth="45" refY="18" refX="18" id="ONE_OR_MORE_START"><path d="M0,18 Q 18,0 36,18 Q 18,36 0,18 M42,9 L42,27" fill="none" stroke="gray"/></marker></defs><defs><marker orient="auto" markerHeight="36" markerWidth="45" refY="18" refX="27" id="ONE_OR_MORE_END"><path d="M3,9 L3,27 M9,18 Q27,0 45,18 Q27,36 9,18" fill="none" stroke="gray"/></marker></defs><defs><marker orient="auto" markerHeight="36" markerWidth="57" refY="18" refX="18" id="ZERO_OR_MORE_START"><circle r="6" cy="18" cx="48" fill="white" stroke="gray"/><path d="M0,18 Q18,0 36,18 Q18,36 0,18" fill="none" stroke="gray"/></marker></defs><defs><marker orient="auto" markerHeight="36" markerWidth="57" refY="18" refX="39" id="ZERO_OR_MORE_END"><circle r="6" cy="18" cx="9" fill="white" stroke="gray"/><path d="M21,18 Q39,0 57,18 Q39,36 21,18" fill="none" stroke="gray"/></marker></defs><path style="stroke: gray; fill: none;" marker-start="url(#ONLY_ONE_START)" marker-end="url(#ZERO_OR_MORE_END)" d="M108.227,813.561L108.227,821.894C108.227,830.227,108.227,846.894,108.227,863.561C108.227,880.227,108.227,896.894,108.227,905.227L108.227,913.561" class="er relationshipLine"/><path style="stroke: gray; fill: none;" marker-start="url(#ONLY_ONE_START)" marker-end="url(#ZERO_OR_MORE_END)" d="M108.227,645.469L108.227,653.802C108.227,662.135,108.227,678.802,108.227,695.469C108.227,712.135,108.227,728.802,108.227,737.135L108.227,745.469" class="er relationshipLine"/><path style="stroke: gray; fill: none;" marker-start="url(#ONLY_ONE_START)" marker-end="url(#ZERO_OR_MORE_END)" d="M108.227,366.826L108.227,375.16C108.227,383.493,108.227,400.16,108.227,416.826C108.227,433.493,108.227,450.16,108.227,458.493L108.227,466.826" class="er relationshipLine"/><path style="stroke: gray; fill: none;" marker-start="url(#ZERO_OR_MORE_START)" marker-end="url(#ONLY_ONE_END)" d="M108.227,176.551L108.227,184.884C108.227,193.217,108.227,209.884,108.227,226.551C108.227,243.217,108.227,259.884,108.227,268.217L108.227,276.551" class="er relationshipLine"/><g transform="translate(20,913.560546875 )" id="entity-CHATMESSAGE-9efbcff3-0f25-5049-bdf8-ceccba4cdf55"><rect height="200.64258480072021" width="176.453125" y="0" x="0" class="er entityBox"/><text style="dominant-baseline: middle; text-anchor: middle; font-size: 12px;" transform="translate(88.2265625,12)" y="0" x="0" id="text-entity-CHATMESSAGE-9efbcff3-0f25-5049-bdf8-ceccba4cdf55" class="er entityLabel">CHAT_MESSAGE</text><rect height="22.091797828674316" width="58.671875" y="24" x="0" class="er attributeBoxOdd"/><text style="dominant-baseline: middle; font-size: 10.2px;" transform="translate(5,35.04589891433716)" y="0" x="0" id="text-entity-CHATMESSAGE-9efbcff3-0f25-5049-bdf8-ceccba4cdf55-attr-1-type" class="er entityLabel">string</text><rect height="22.091797828674316" width="96.21875" y="24" x="58.671875" class="er attributeBoxOdd"/><text style="dominant-baseline: middle; font-size: 10.2px;" transform="translate(63.671875,35.04589891433716)" y="0" x="0" id="text-entity-CHATMESSAGE-9efbcff3-0f25-5049-bdf8-ceccba4cdf55-attr-1-name" class="er entityLabel">message_id</text><rect height="22.091797828674316" width="21.5625" y="24" x="154.890625" class="er attributeBoxOdd"/><text style="dominant-baseline: middle; font-size: 10.2px;" transform="translate(159.890625,35.04589891433716)" y="0" x="0" id="text-entity-CHATMESSAGE-9efbcff3-0f25-5049-bdf8-ceccba4cdf55-attr-1-key" class="er entityLabel">PK</text><rect height="22.091797828674316" width="58.671875" y="46.091797828674316" x="0" class="er attributeBoxEven"/><text style="dominant-baseline: middle; font-size: 10.2px;" transform="translate(5,57.137696743011475)" y="0" x="0" id="text-entity-CHATMESSAGE-9efbcff3-0f25-5049-bdf8-ceccba4cdf55-attr-2-type" class="er entityLabel">string</text><rect height="22.091797828674316" width="96.21875" y="46.091797828674316" x="58.671875" class="er attributeBoxEven"/><text style="dominant-baseline: middle; font-size: 10.2px;" transform="translate(63.671875,57.137696743011475)" y="0" x="0" id="text-entity-CHATMESSAGE-9efbcff3-0f25-5049-bdf8-ceccba4cdf55-attr-2-name" class="er entityLabel">conversation_id</text><rect height="22.091797828674316" width="21.5625" y="46.091797828674316" x="154.890625" class="er attributeBoxEven"/><text style="dominant-baseline: middle; font-size: 10.2px;" transform="translate(159.890625,57.137696743011475)" y="0" x="0" id="text-entity-CHATMESSAGE-9efbcff3-0f25-5049-bdf8-ceccba4cdf55-attr-2-key" class="er entityLabel">FK</text><rect height="22.091797828674316" width="58.671875" y="68.18359565734863" x="0" class="er attributeBoxOdd"/><text style="dominant-baseline: middle; font-size: 10.2px;" transform="translate(5,79.22949457168579)" y="0" x="0" id="text-entity-CHATMESSAGE-9efbcff3-0f25-5049-bdf8-ceccba4cdf55-attr-3-type" class="er entityLabel">string</text><rect height="22.091797828674316" width="96.21875" y="68.18359565734863" x="58.671875" class="er attributeBoxOdd"/><text style="dominant-baseline: middle; font-size: 10.2px;" transform="translate(63.671875,79.22949457168579)" y="0" x="0" id="text-entity-CHATMESSAGE-9efbcff3-0f25-5049-bdf8-ceccba4cdf55-attr-3-name" class="er entityLabel">message</text><rect height="22.091797828674316" width="21.5625" y="68.18359565734863" x="154.890625" class="er attributeBoxOdd"/><text style="dominant-baseline: middle; font-size: 10.2px;" transform="translate(159.890625,79.22949457168579)" y="0" x="0" id="text-entity-CHATMESSAGE-9efbcff3-0f25-5049-bdf8-ceccba4cdf55-attr-3-key" class="er entityLabel"/><rect height="22.091797828674316" width="58.671875" y="90.27539348602295" x="0" class="er attributeBoxEven"/><text style="dominant-baseline: middle; font-size: 10.2px;" transform="translate(5,101.32129240036011)" y="0" x="0" id="text-entity-CHATMESSAGE-9efbcff3-0f25-5049-bdf8-ceccba4cdf55-attr-4-type" class="er entityLabel">timestamp</text><rect height="22.091797828674316" width="96.21875" y="90.27539348602295" x="58.671875" class="er attributeBoxEven"/><text style="dominant-baseline: middle; font-size: 10.2px;" transform="translate(63.671875,101.32129240036011)" y="0" x="0" id="text-entity-CHATMESSAGE-9efbcff3-0f25-5049-bdf8-ceccba4cdf55-attr-4-name" class="er entityLabel">sent_at</text><rect height="22.091797828674316" width="21.5625" y="90.27539348602295" x="154.890625" class="er attributeBoxEven"/><text style="dominant-baseline: middle; font-size: 10.2px;" transform="translate(159.890625,101.32129240036011)" y="0" x="0" id="text-entity-CHATMESSAGE-9efbcff3-0f25-5049-bdf8-ceccba4cdf55-attr-4-key" class="er entityLabel"/><rect height="22.091797828674316" width="58.671875" y="112.36719131469727" x="0" class="er attributeBoxOdd"/><text style="dominant-baseline: middle; font-size: 10.2px;" transform="translate(5,123.41309022903442)" y="0" x="0" id="text-entity-CHATMESSAGE-9efbcff3-0f25-5049-bdf8-ceccba4cdf55-attr-5-type" class="er entityLabel">bool</text><rect height="22.091797828674316" width="96.21875" y="112.36719131469727" x="58.671875" class="er attributeBoxOdd"/><text style="dominant-baseline: middle; font-size: 10.2px;" transform="translate(63.671875,123.41309022903442)" y="0" x="0" id="text-entity-CHATMESSAGE-9efbcff3-0f25-5049-bdf8-ceccba4cdf55-attr-5-name" class="er entityLabel">is_image</text><rect height="22.091797828674316" width="21.5625" y="112.36719131469727" x="154.890625" class="er attributeBoxOdd"/><text style="dominant-baseline: middle; font-size: 10.2px;" transform="translate(159.890625,123.41309022903442)" y="0" x="0" id="text-entity-CHATMESSAGE-9efbcff3-0f25-5049-bdf8-ceccba4cdf55-attr-5-key" class="er entityLabel"/><rect height="22" width="58.671875" y="134.45898914337158" x="0" class="er attributeBoxEven"/><text style="dominant-baseline: middle; font-size: 10.2px;" transform="translate(5,145.45898914337158)" y="0" x="0" id="text-entity-CHATMESSAGE-9efbcff3-0f25-5049-bdf8-ceccba4cdf55-attr-6-type" class="er entityLabel">enum</text><rect height="22" width="96.21875" y="134.45898914337158" x="58.671875" class="er attributeBoxEven"/><text style="dominant-baseline: middle; font-size: 10.2px;" transform="translate(63.671875,145.45898914337158)" y="0" x="0" id="text-entity-CHATMESSAGE-9efbcff3-0f25-5049-bdf8-ceccba4cdf55-attr-6-name" class="er entityLabel">sender</text><rect height="22" width="21.5625" y="134.45898914337158" x="154.890625" class="er attributeBoxEven"/><text style="dominant-baseline: middle; font-size: 10.2px;" transform="translate(159.890625,145.45898914337158)" y="0" x="0" id="text-entity-CHATMESSAGE-9efbcff3-0f25-5049-bdf8-ceccba4cdf55-attr-6-key" class="er entityLabel"/><rect height="22.091797828674316" width="58.671875" y="156.45898914337158" x="0" class="er attributeBoxOdd"/><text style="dominant-baseline: middle; font-size: 10.2px;" transform="translate(5,167.50488805770874)" y="0" x="0" id="text-entity-CHATMESSAGE-9efbcff3-0f25-5049-bdf8-ceccba4cdf55-attr-7-type" class="er entityLabel">json</text><rect height="22.091797828674316" width="96.21875" y="156.45898914337158" x="58.671875" class="er attributeBoxOdd"/><text style="dominant-baseline: middle; font-size: 10.2px;" transform="translate(63.671875,167.50488805770874)" y="0" x="0" id="text-entity-CHATMESSAGE-9efbcff3-0f25-5049-bdf8-ceccba4cdf55-attr-7-name" class="er entityLabel">citations</text><rect height="22.091797828674316" width="21.5625" y="156.45898914337158" x="154.890625" class="er attributeBoxOdd"/><text style="dominant-baseline: middle; font-size: 10.2px;" transform="translate(159.890625,167.50488805770874)" y="0" x="0" id="text-entity-CHATMESSAGE-9efbcff3-0f25-5049-bdf8-ceccba4cdf55-attr-7-key" class="er entityLabel"/><rect height="22.091797828674316" width="58.671875" y="178.5507869720459" x="0" class="er attributeBoxEven"/><text style="dominant-baseline: middle; font-size: 10.2px;" transform="translate(5,189.59668588638306)" y="0" x="0" id="text-entity-CHATMESSAGE-9efbcff3-0f25-5049-bdf8-ceccba4cdf55-attr-8-type" class="er entityLabel">string</text><rect height="22.091797828674316" width="96.21875" y="178.5507869720459" x="58.671875" class="er attributeBoxEven"/><text style="dominant-baseline: middle; font-size: 10.2px;" transform="translate(63.671875,189.59668588638306)" y="0" x="0" id="text-entity-CHATMESSAGE-9efbcff3-0f25-5049-bdf8-ceccba4cdf55-attr-8-name" class="er entityLabel">additional_context</text><rect height="22.091797828674316" width="21.5625" y="178.5507869720459" x="154.890625" class="er attributeBoxEven"/><text style="dominant-baseline: middle; font-size: 10.2px;" transform="translate(159.890625,189.59668588638306)" y="0" x="0" id="text-entity-CHATMESSAGE-9efbcff3-0f25-5049-bdf8-ceccba4cdf55-attr-8-key" class="er entityLabel"/></g><g transform="translate(29.203125,745.46875 )" id="entity-CONVERSATIONSTATUS-077f0c30-0e52-5710-bf21-427f4d7f06f0"><rect height="68.09179782867432" width="158.046875" y="0" x="0" class="er entityBox"/><text style="dominant-baseline: middle; text-anchor: middle; font-size: 12px;" transform="translate(79.0234375,12)" y="0" x="0" id="text-entity-CONVERSATIONSTATUS-077f0c30-0e52-5710-bf21-427f4d7f06f0" class="er entityLabel">CONVERSATION_STATUS</text><rect height="22.091797828674316" width="35.75" y="24" x="0" class="er attributeBoxOdd"/><text style="dominant-baseline: middle; font-size: 10.2px;" transform="translate(5,35.04589891433716)" y="0" x="0" id="text-entity-CONVERSATIONSTATUS-077f0c30-0e52-5710-bf21-427f4d7f06f0-attr-1-type" class="er entityLabel">string</text><rect height="22.091797828674316" width="100.734375" y="24" x="35.75" class="er attributeBoxOdd"/><text style="dominant-baseline: middle; font-size: 10.2px;" transform="translate(40.75,35.04589891433716)" y="0" x="0" id="text-entity-CONVERSATIONSTATUS-077f0c30-0e52-5710-bf21-427f4d7f06f0-attr-1-name" class="er entityLabel">conversation_id</text><rect height="22.091797828674316" width="21.5625" y="24" x="136.484375" class="er attributeBoxOdd"/><text style="dominant-baseline: middle; font-size: 10.2px;" transform="translate(141.484375,35.04589891433716)" y="0" x="0" id="text-entity-CONVERSATIONSTATUS-077f0c30-0e52-5710-bf21-427f4d7f06f0-attr-1-key" class="er entityLabel">PK</text><rect height="22" width="35.75" y="46.091797828674316" x="0" class="er attributeBoxEven"/><text style="dominant-baseline: middle; font-size: 10.2px;" transform="translate(5,57.091797828674316)" y="0" x="0" id="text-entity-CONVERSATIONSTATUS-077f0c30-0e52-5710-bf21-427f4d7f06f0-attr-2-type" class="er entityLabel">enum</text><rect height="22" width="100.734375" y="46.091797828674316" x="35.75" class="er attributeBoxEven"/><text style="dominant-baseline: middle; font-size: 10.2px;" transform="translate(40.75,57.091797828674316)" y="0" x="0" id="text-entity-CONVERSATIONSTATUS-077f0c30-0e52-5710-bf21-427f4d7f06f0-attr-2-name" class="er entityLabel">conversation_status</text><rect height="22" width="21.5625" y="46.091797828674316" x="136.484375" class="er attributeBoxEven"/><text style="dominant-baseline: middle; font-size: 10.2px;" transform="translate(141.484375,57.091797828674316)" y="0" x="0" id="text-entity-CONVERSATIONSTATUS-077f0c30-0e52-5710-bf21-427f4d7f06f0-attr-2-key" class="er entityLabel"/></g><g transform="translate(27.078125,466.826171875 )" id="entity-WORKORDERS-df10d2a9-5ff8-5dbd-ac4b-cc8eaeaa22d8"><rect height="178.64258480072021" width="162.296875" y="0" x="0" class="er entityBox"/><text style="dominant-baseline: middle; text-anchor: middle; font-size: 12px;" transform="translate(81.1484375,12)" y="0" x="0" id="text-entity-WORKORDERS-df10d2a9-5ff8-5dbd-ac4b-cc8eaeaa22d8" class="er entityLabel">WORK_ORDERS</text><rect height="22.091797828674316" width="58.671875" y="24" x="0" class="er attributeBoxOdd"/><text style="dominant-baseline: middle; font-size: 10.2px;" transform="translate(5,35.04589891433716)" y="0" x="0" id="text-entity-WORKORDERS-df10d2a9-5ff8-5dbd-ac4b-cc8eaeaa22d8-attr-1-type" class="er entityLabel">string</text><rect height="22.091797828674316" width="82.0625" y="24" x="58.671875" class="er attributeBoxOdd"/><text style="dominant-baseline: middle; font-size: 10.2px;" transform="translate(63.671875,35.04589891433716)" y="0" x="0" id="text-entity-WORKORDERS-df10d2a9-5ff8-5dbd-ac4b-cc8eaeaa22d8-attr-1-name" class="er entityLabel">order_id</text><rect height="22.091797828674316" width="21.5625" y="24" x="140.734375" class="er attributeBoxOdd"/><text style="dominant-baseline: middle; font-size: 10.2px;" transform="translate(145.734375,35.04589891433716)" y="0" x="0" id="text-entity-WORKORDERS-df10d2a9-5ff8-5dbd-ac4b-cc8eaeaa22d8-attr-1-key" class="er entityLabel">PK</text><rect height="22.091797828674316" width="58.671875" y="46.091797828674316" x="0" class="er attributeBoxEven"/><text style="dominant-baseline: middle; font-size: 10.2px;" transform="translate(5,57.137696743011475)" y="0" x="0" id="text-entity-WORKORDERS-df10d2a9-5ff8-5dbd-ac4b-cc8eaeaa22d8-attr-2-type" class="er entityLabel">string</text><rect height="22.091797828674316" width="82.0625" y="46.091797828674316" x="58.671875" class="er attributeBoxEven"/><text style="dominant-baseline: middle; font-size: 10.2px;" transform="translate(63.671875,57.137696743011475)" y="0" x="0" id="text-entity-WORKORDERS-df10d2a9-5ff8-5dbd-ac4b-cc8eaeaa22d8-attr-2-name" class="er entityLabel">user_id</text><rect height="22.091797828674316" width="21.5625" y="46.091797828674316" x="140.734375" class="er attributeBoxEven"/><text style="dominant-baseline: middle; font-size: 10.2px;" transform="translate(145.734375,57.137696743011475)" y="0" x="0" id="text-entity-WORKORDERS-df10d2a9-5ff8-5dbd-ac4b-cc8eaeaa22d8-attr-2-key" class="er entityLabel"/><rect height="22.091797828674316" width="58.671875" y="68.18359565734863" x="0" class="er attributeBoxOdd"/><text style="dominant-baseline: middle; font-size: 10.2px;" transform="translate(5,79.22949457168579)" y="0" x="0" id="text-entity-WORKORDERS-df10d2a9-5ff8-5dbd-ac4b-cc8eaeaa22d8-attr-3-type" class="er entityLabel">string</text><rect height="22.091797828674316" width="82.0625" y="68.18359565734863" x="58.671875" class="er attributeBoxOdd"/><text style="dominant-baseline: middle; font-size: 10.2px;" transform="translate(63.671875,79.22949457168579)" y="0" x="0" id="text-entity-WORKORDERS-df10d2a9-5ff8-5dbd-ac4b-cc8eaeaa22d8-attr-3-name" class="er entityLabel">conversation_id</text><rect height="22.091797828674316" width="21.5625" y="68.18359565734863" x="140.734375" class="er attributeBoxOdd"/><text style="dominant-baseline: middle; font-size: 10.2px;" transform="translate(145.734375,79.22949457168579)" y="0" x="0" id="text-entity-WORKORDERS-df10d2a9-5ff8-5dbd-ac4b-cc8eaeaa22d8-attr-3-key" class="er entityLabel">FK</text><rect height="22.091797828674316" width="58.671875" y="90.27539348602295" x="0" class="er attributeBoxEven"/><text style="dominant-baseline: middle; font-size: 10.2px;" transform="translate(5,101.32129240036011)" y="0" x="0" id="text-entity-WORKORDERS-df10d2a9-5ff8-5dbd-ac4b-cc8eaeaa22d8-attr-4-type" class="er entityLabel">string</text><rect height="22.091797828674316" width="82.0625" y="90.27539348602295" x="58.671875" class="er attributeBoxEven"/><text style="dominant-baseline: middle; font-size: 10.2px;" transform="translate(63.671875,101.32129240036011)" y="0" x="0" id="text-entity-WORKORDERS-df10d2a9-5ff8-5dbd-ac4b-cc8eaeaa22d8-attr-4-name" class="er entityLabel">machine_id</text><rect height="22.091797828674316" width="21.5625" y="90.27539348602295" x="140.734375" class="er attributeBoxEven"/><text style="dominant-baseline: middle; font-size: 10.2px;" transform="translate(145.734375,101.32129240036011)" y="0" x="0" id="text-entity-WORKORDERS-df10d2a9-5ff8-5dbd-ac4b-cc8eaeaa22d8-attr-4-key" class="er entityLabel">FK</text><rect height="22.091797828674316" width="58.671875" y="112.36719131469727" x="0" class="er attributeBoxOdd"/><text style="dominant-baseline: middle; font-size: 10.2px;" transform="translate(5,123.41309022903442)" y="0" x="0" id="text-entity-WORKORDERS-df10d2a9-5ff8-5dbd-ac4b-cc8eaeaa22d8-attr-5-type" class="er entityLabel">string</text><rect height="22.091797828674316" width="82.0625" y="112.36719131469727" x="58.671875" class="er attributeBoxOdd"/><text style="dominant-baseline: middle; font-size: 10.2px;" transform="translate(63.671875,123.41309022903442)" y="0" x="0" id="text-entity-WORKORDERS-df10d2a9-5ff8-5dbd-ac4b-cc8eaeaa22d8-attr-5-name" class="er entityLabel">task_name</text><rect height="22.091797828674316" width="21.5625" y="112.36719131469727" x="140.734375" class="er attributeBoxOdd"/><text style="dominant-baseline: middle; font-size: 10.2px;" transform="translate(145.734375,123.41309022903442)" y="0" x="0" id="text-entity-WORKORDERS-df10d2a9-5ff8-5dbd-ac4b-cc8eaeaa22d8-attr-5-key" class="er entityLabel"/><rect height="22.091797828674316" width="58.671875" y="134.45898914337158" x="0" class="er attributeBoxEven"/><text style="dominant-baseline: middle; font-size: 10.2px;" transform="translate(5,145.50488805770874)" y="0" x="0" id="text-entity-WORKORDERS-df10d2a9-5ff8-5dbd-ac4b-cc8eaeaa22d8-attr-6-type" class="er entityLabel">string</text><rect height="22.091797828674316" width="82.0625" y="134.45898914337158" x="58.671875" class="er attributeBoxEven"/><text style="dominant-baseline: middle; font-size: 10.2px;" transform="translate(63.671875,145.50488805770874)" y="0" x="0" id="text-entity-WORKORDERS-df10d2a9-5ff8-5dbd-ac4b-cc8eaeaa22d8-attr-6-name" class="er entityLabel">task_desc</text><rect height="22.091797828674316" width="21.5625" y="134.45898914337158" x="140.734375" class="er attributeBoxEven"/><text style="dominant-baseline: middle; font-size: 10.2px;" transform="translate(145.734375,145.50488805770874)" y="0" x="0" id="text-entity-WORKORDERS-df10d2a9-5ff8-5dbd-ac4b-cc8eaeaa22d8-attr-6-key" class="er entityLabel"/><rect height="22.091797828674316" width="58.671875" y="156.5507869720459" x="0" class="er attributeBoxOdd"/><text style="dominant-baseline: middle; font-size: 10.2px;" transform="translate(5,167.59668588638306)" y="0" x="0" id="text-entity-WORKORDERS-df10d2a9-5ff8-5dbd-ac4b-cc8eaeaa22d8-attr-7-type" class="er entityLabel">timestamp</text><rect height="22.091797828674316" width="82.0625" y="156.5507869720459" x="58.671875" class="er attributeBoxOdd"/><text style="dominant-baseline: middle; font-size: 10.2px;" transform="translate(63.671875,167.59668588638306)" y="0" x="0" id="text-entity-WORKORDERS-df10d2a9-5ff8-5dbd-ac4b-cc8eaeaa22d8-attr-7-name" class="er entityLabel">created_at</text><rect height="22.091797828674316" width="21.5625" y="156.5507869720459" x="140.734375" class="er attributeBoxOdd"/><text style="dominant-baseline: middle; font-size: 10.2px;" transform="translate(145.734375,167.59668588638306)" y="0" x="0" id="text-entity-WORKORDERS-df10d2a9-5ff8-5dbd-ac4b-cc8eaeaa22d8-attr-7-key" class="er entityLabel"/></g><g transform="translate(43.4375,276.55078125 )" id="entity-MACHINE-9b6e6990-2332-54a8-b04f-01d6d576d077"><rect height="90.27539348602295" width="129.578125" y="0" x="0" class="er entityBox"/><text style="dominant-baseline: middle; text-anchor: middle; font-size: 12px;" transform="translate(64.7890625,12)" y="0" x="0" id="text-entity-MACHINE-9b6e6990-2332-54a8-b04f-01d6d576d077" class="er entityLabel">MACHINE</text><rect height="22.091797828674316" width="35.75" y="24" x="0" class="er attributeBoxOdd"/><text style="dominant-baseline: middle; font-size: 10.2px;" transform="translate(5,35.04589891433716)" y="0" x="0" id="text-entity-MACHINE-9b6e6990-2332-54a8-b04f-01d6d576d077-attr-1-type" class="er entityLabel">string</text><rect height="22.091797828674316" width="72.265625" y="24" x="35.75" class="er attributeBoxOdd"/><text style="dominant-baseline: middle; font-size: 10.2px;" transform="translate(40.75,35.04589891433716)" y="0" x="0" id="text-entity-MACHINE-9b6e6990-2332-54a8-b04f-01d6d576d077-attr-1-name" class="er entityLabel">machine_id</text><rect height="22.091797828674316" width="21.5625" y="24" x="108.015625" class="er attributeBoxOdd"/><text style="dominant-baseline: middle; font-size: 10.2px;" transform="translate(113.015625,35.04589891433716)" y="0" x="0" id="text-entity-MACHINE-9b6e6990-2332-54a8-b04f-01d6d576d077-attr-1-key" class="er entityLabel">PK</text><rect height="22.091797828674316" width="35.75" y="46.091797828674316" x="0" class="er attributeBoxEven"/><text style="dominant-baseline: middle; font-size: 10.2px;" transform="translate(5,57.137696743011475)" y="0" x="0" id="text-entity-MACHINE-9b6e6990-2332-54a8-b04f-01d6d576d077-attr-2-type" class="er entityLabel">string</text><rect height="22.091797828674316" width="72.265625" y="46.091797828674316" x="35.75" class="er attributeBoxEven"/><text style="dominant-baseline: middle; font-size: 10.2px;" transform="translate(40.75,57.137696743011475)" y="0" x="0" id="text-entity-MACHINE-9b6e6990-2332-54a8-b04f-01d6d576d077-attr-2-name" class="er entityLabel">manufacturer</text><rect height="22.091797828674316" width="21.5625" y="46.091797828674316" x="108.015625" class="er attributeBoxEven"/><text style="dominant-baseline: middle; font-size: 10.2px;" transform="translate(113.015625,57.137696743011475)" y="0" x="0" id="text-entity-MACHINE-9b6e6990-2332-54a8-b04f-01d6d576d077-attr-2-key" class="er entityLabel"/><rect height="22.091797828674316" width="35.75" y="68.18359565734863" x="0" class="er attributeBoxOdd"/><text style="dominant-baseline: middle; font-size: 10.2px;" transform="translate(5,79.22949457168579)" y="0" x="0" id="text-entity-MACHINE-9b6e6990-2332-54a8-b04f-01d6d576d077-attr-3-type" class="er entityLabel">string</text><rect height="22.091797828674316" width="72.265625" y="68.18359565734863" x="35.75" class="er attributeBoxOdd"/><text style="dominant-baseline: middle; font-size: 10.2px;" transform="translate(40.75,79.22949457168579)" y="0" x="0" id="text-entity-MACHINE-9b6e6990-2332-54a8-b04f-01d6d576d077-attr-3-name" class="er entityLabel">model</text><rect height="22.091797828674316" width="21.5625" y="68.18359565734863" x="108.015625" class="er attributeBoxOdd"/><text style="dominant-baseline: middle; font-size: 10.2px;" transform="translate(113.015625,79.22949457168579)" y="0" x="0" id="text-entity-MACHINE-9b6e6990-2332-54a8-b04f-01d6d576d077-attr-3-key" class="er entityLabel"/></g><g transform="translate(36.890625,20 )" id="entity-PENDINGUPLOADS-da145ac2-5dd2-542f-a699-f0b61883b23b"><rect height="156.5507869720459" width="142.671875" y="0" x="0" class="er entityBox"/><text style="dominant-baseline: middle; text-anchor: middle; font-size: 12px;" transform="translate(71.3359375,12)" y="0" x="0" id="text-entity-PENDINGUPLOADS-da145ac2-5dd2-542f-a699-f0b61883b23b" class="er entityLabel">PENDING_UPLOADS</text><rect height="22.091797828674316" width="58.671875" y="24" x="0" class="er attributeBoxOdd"/><text style="dominant-baseline: middle; font-size: 10.2px;" transform="translate(5,35.04589891433716)" y="0" x="0" id="text-entity-PENDINGUPLOADS-da145ac2-5dd2-542f-a699-f0b61883b23b-attr-1-type" class="er entityLabel">string</text><rect height="22.091797828674316" width="62.4375" y="24" x="58.671875" class="er attributeBoxOdd"/><text style="dominant-baseline: middle; font-size: 10.2px;" transform="translate(63.671875,35.04589891433716)" y="0" x="0" id="text-entity-PENDINGUPLOADS-da145ac2-5dd2-542f-a699-f0b61883b23b-attr-1-name" class="er entityLabel">upload_id</text><rect height="22.091797828674316" width="21.5625" y="24" x="121.109375" class="er attributeBoxOdd"/><text style="dominant-baseline: middle; font-size: 10.2px;" transform="translate(126.109375,35.04589891433716)" y="0" x="0" id="text-entity-PENDINGUPLOADS-da145ac2-5dd2-542f-a699-f0b61883b23b-attr-1-key" class="er entityLabel">PK</text><rect height="22.091797828674316" width="58.671875" y="46.091797828674316" x="0" class="er attributeBoxEven"/><text style="dominant-baseline: middle; font-size: 10.2px;" transform="translate(5,57.137696743011475)" y="0" x="0" id="text-entity-PENDINGUPLOADS-da145ac2-5dd2-542f-a699-f0b61883b23b-attr-2-type" class="er entityLabel">string</text><rect height="22.091797828674316" width="62.4375" y="46.091797828674316" x="58.671875" class="er attributeBoxEven"/><text style="dominant-baseline: middle; font-size: 10.2px;" transform="translate(63.671875,57.137696743011475)" y="0" x="0" id="text-entity-PENDINGUPLOADS-da145ac2-5dd2-542f-a699-f0b61883b23b-attr-2-name" class="er entityLabel">filename</text><rect height="22.091797828674316" width="21.5625" y="46.091797828674316" x="121.109375" class="er attributeBoxEven"/><text style="dominant-baseline: middle; font-size: 10.2px;" transform="translate(126.109375,57.137696743011475)" y="0" x="0" id="text-entity-PENDINGUPLOADS-da145ac2-5dd2-542f-a699-f0b61883b23b-attr-2-key" class="er entityLabel"/><rect height="22.091797828674316" width="58.671875" y="68.18359565734863" x="0" class="er attributeBoxOdd"/><text style="dominant-baseline: middle; font-size: 10.2px;" transform="translate(5,79.22949457168579)" y="0" x="0" id="text-entity-PENDINGUPLOADS-da145ac2-5dd2-542f-a699-f0b61883b23b-attr-3-type" class="er entityLabel">string</text><rect height="22.091797828674316" width="62.4375" y="68.18359565734863" x="58.671875" class="er attributeBoxOdd"/><text style="dominant-baseline: middle; font-size: 10.2px;" transform="translate(63.671875,79.22949457168579)" y="0" x="0" id="text-entity-PENDINGUPLOADS-da145ac2-5dd2-542f-a699-f0b61883b23b-attr-3-name" class="er entityLabel">username</text><rect height="22.091797828674316" width="21.5625" y="68.18359565734863" x="121.109375" class="er attributeBoxOdd"/><text style="dominant-baseline: middle; font-size: 10.2px;" transform="translate(126.109375,79.22949457168579)" y="0" x="0" id="text-entity-PENDINGUPLOADS-da145ac2-5dd2-542f-a699-f0b61883b23b-attr-3-key" class="er entityLabel"/><rect height="22.091797828674316" width="58.671875" y="90.27539348602295" x="0" class="er attributeBoxEven"/><text style="dominant-baseline: middle; font-size: 10.2px;" transform="translate(5,101.32129240036011)" y="0" x="0" id="text-entity-PENDINGUPLOADS-da145ac2-5dd2-542f-a699-f0b61883b23b-attr-4-type" class="er entityLabel">string</text><rect height="22.091797828674316" width="62.4375" y="90.27539348602295" x="58.671875" class="er attributeBoxEven"/><text style="dominant-baseline: middle; font-size: 10.2px;" transform="translate(63.671875,101.32129240036011)" y="0" x="0" id="text-entity-PENDINGUPLOADS-da145ac2-5dd2-542f-a699-f0b61883b23b-attr-4-name" class="er entityLabel">user_email</text><rect height="22.091797828674316" width="21.5625" y="90.27539348602295" x="121.109375" class="er attributeBoxEven"/><text style="dominant-baseline: middle; font-size: 10.2px;" transform="translate(126.109375,101.32129240036011)" y="0" x="0" id="text-entity-PENDINGUPLOADS-da145ac2-5dd2-542f-a699-f0b61883b23b-attr-4-key" class="er entityLabel"/><rect height="22.091797828674316" width="58.671875" y="112.36719131469727" x="0" class="er attributeBoxOdd"/><text style="dominant-baseline: middle; font-size: 10.2px;" transform="translate(5,123.41309022903442)" y="0" x="0" id="text-entity-PENDINGUPLOADS-da145ac2-5dd2-542f-a699-f0b61883b23b-attr-5-type" class="er entityLabel">string</text><rect height="22.091797828674316" width="62.4375" y="112.36719131469727" x="58.671875" class="er attributeBoxOdd"/><text style="dominant-baseline: middle; font-size: 10.2px;" transform="translate(63.671875,123.41309022903442)" y="0" x="0" id="text-entity-PENDINGUPLOADS-da145ac2-5dd2-542f-a699-f0b61883b23b-attr-5-name" class="er entityLabel">machine_id</text><rect height="22.091797828674316" width="21.5625" y="112.36719131469727" x="121.109375" class="er attributeBoxOdd"/><text style="dominant-baseline: middle; font-size: 10.2px;" transform="translate(126.109375,123.41309022903442)" y="0" x="0" id="text-entity-PENDINGUPLOADS-da145ac2-5dd2-542f-a699-f0b61883b23b-attr-5-key" class="er entityLabel">FK</text><rect height="22.091797828674316" width="58.671875" y="134.45898914337158" x="0" class="er attributeBoxEven"/><text style="dominant-baseline: middle; font-size: 10.2px;" transform="translate(5,145.50488805770874)" y="0" x="0" id="text-entity-PENDINGUPLOADS-da145ac2-5dd2-542f-a699-f0b61883b23b-attr-6-type" class="er entityLabel">timestamp</text><rect height="22.091797828674316" width="62.4375" y="134.45898914337158" x="58.671875" class="er attributeBoxEven"/><text style="dominant-baseline: middle; font-size: 10.2px;" transform="translate(63.671875,145.50488805770874)" y="0" x="0" id="text-entity-PENDINGUPLOADS-da145ac2-5dd2-542f-a699-f0b61883b23b-attr-6-name" class="er entityLabel">sent_at</text><rect height="22.091797828674316" width="21.5625" y="134.45898914337158" x="121.109375" class="er attributeBoxEven"/><text style="dominant-baseline: middle; font-size: 10.2px;" transform="translate(126.109375,145.50488805770874)" y="0" x="0" id="text-entity-PENDINGUPLOADS-da145ac2-5dd2-542f-a699-f0b61883b23b-attr-6-key" class="er entityLabel"/></g><rect height="0" width="0" y="863.5609741210938" x="108.22699737548828" class="er relationshipLabelBox"/><text style="text-anchor: middle; dominant-baseline: middle; font-size: 12px;" y="863.5609741210938" x="108.22699737548828" id="rel1" class="er relationshipLabel"/><rect height="0" width="0" y="695.468994140625" x="108.22699737548828" class="er relationshipLabelBox"/><text style="text-anchor: middle; dominant-baseline: middle; font-size: 12px;" y="695.468994140625" x="108.22699737548828" id="rel2" class="er relationshipLabel"/><rect height="0" width="0" y="416.82598876953125" x="108.22699737548828" class="er relationshipLabelBox"/><text style="text-anchor: middle; dominant-baseline: middle; font-size: 12px;" y="416.82598876953125" x="108.22699737548828" id="rel3" class="er relationshipLabel"/><rect height="0" width="0" y="226.55099487304688" x="108.22699737548828" class="er relationshipLabelBox"/><text style="text-anchor: middle; dominant-baseline: middle; font-size: 12px;" y="226.55099487304688" x="108.22699737548828" id="rel4" class="er relationshipLabel"/></svg>