<svg aria-roledescription="er" role="graphics-document document" viewBox="0 0 590.265625 788.642578125" style="max-width: 590.266px; background-color: white;" xmlns:xlink="http://www.w3.org/1999/xlink" xmlns="http://www.w3.org/2000/svg" width="100%" id="my-svg"><style>#my-svg{font-family:"trebuchet ms",verdana,arial,sans-serif;font-size:16px;fill:#333;}#my-svg .error-icon{fill:#552222;}#my-svg .error-text{fill:#552222;stroke:#552222;}#my-svg .edge-thickness-normal{stroke-width:1px;}#my-svg .edge-thickness-thick{stroke-width:3.5px;}#my-svg .edge-pattern-solid{stroke-dasharray:0;}#my-svg .edge-thickness-invisible{stroke-width:0;fill:none;}#my-svg .edge-pattern-dashed{stroke-dasharray:3;}#my-svg .edge-pattern-dotted{stroke-dasharray:2;}#my-svg .marker{fill:#333333;stroke:#333333;}#my-svg .marker.cross{stroke:#333333;}#my-svg svg{font-family:"trebuchet ms",verdana,arial,sans-serif;font-size:16px;}#my-svg p{margin:0;}#my-svg .entityBox{fill:#ECECFF;stroke:#9370DB;}#my-svg .attributeBoxOdd{fill:#ffffff;stroke:#9370DB;}#my-svg .attributeBoxEven{fill:#f2f2f2;stroke:#9370DB;}#my-svg .relationshipLabelBox{fill:hsl(80, 100%, 96.2745098039%);opacity:0.7;background-color:hsl(80, 100%, 96.2745098039%);}#my-svg .relationshipLabelBox rect{opacity:0.5;}#my-svg .relationshipLine{stroke:#333333;}#my-svg .entityTitleText{text-anchor:middle;font-size:18px;fill:#333;}#my-svg #MD_PARENT_START{fill:#f5f5f5!important;stroke:#333333!important;stroke-width:1;}#my-svg #MD_PARENT_END{fill:#f5f5f5!important;stroke:#333333!important;stroke-width:1;}#my-svg :root{--mermaid-font-family:"trebuchet ms",verdana,arial,sans-serif;}</style><g/><defs><marker orient="auto" markerHeight="240" markerWidth="190" refY="7" refX="0" id="MD_PARENT_START"><path d="M 18,7 L9,13 L1,7 L9,1 Z"/></marker></defs><defs><marker orient="auto" markerHeight="28" markerWidth="20" refY="7" refX="19" id="MD_PARENT_END"><path d="M 18,7 L9,13 L1,7 L9,1 Z"/></marker></defs><defs><marker orient="auto" markerHeight="18" markerWidth="18" refY="9" refX="0" id="ONLY_ONE_START"><path d="M9,0 L9,18 M15,0 L15,18" fill="none" stroke="gray"/></marker></defs><defs><marker orient="auto" markerHeight="18" markerWidth="18" refY="9" refX="18" id="ONLY_ONE_END"><path d="M3,0 L3,18 M9,0 L9,18" fill="none" stroke="gray"/></marker></defs><defs><marker orient="auto" markerHeight="18" markerWidth="30" refY="9" refX="0" id="ZERO_OR_ONE_START"><circle r="6" cy="9" cx="21" fill="white" stroke="gray"/><path d="M9,0 L9,18" fill="none" stroke="gray"/></marker></defs><defs><marker orient="auto" markerHeight="18" markerWidth="30" refY="9" refX="30" id="ZERO_OR_ONE_END"><circle r="6" cy="9" cx="9" fill="white" stroke="gray"/><path d="M21,0 L21,18" fill="none" stroke="gray"/></marker></defs><defs><marker orient="auto" markerHeight="36" markerWidth="45" refY="18" refX="18" id="ONE_OR_MORE_START"><path d="M0,18 Q 18,0 36,18 Q 18,36 0,18 M42,9 L42,27" fill="none" stroke="gray"/></marker></defs><defs><marker orient="auto" markerHeight="36" markerWidth="45" refY="18" refX="27" id="ONE_OR_MORE_END"><path d="M3,9 L3,27 M9,18 Q27,0 45,18 Q27,36 9,18" fill="none" stroke="gray"/></marker></defs><defs><marker orient="auto" markerHeight="36" markerWidth="57" refY="18" refX="18" id="ZERO_OR_MORE_START"><circle r="6" cy="18" cx="48" fill="white" stroke="gray"/><path d="M0,18 Q18,0 36,18 Q18,36 0,18" fill="none" stroke="gray"/></marker></defs><defs><marker orient="auto" markerHeight="36" markerWidth="57" refY="18" refX="39" id="ZERO_OR_MORE_END"><circle r="6" cy="18" cx="9" fill="white" stroke="gray"/><path d="M21,18 Q39,0 57,18 Q39,36 21,18" fill="none" stroke="gray"/></marker></defs><path style="stroke: gray; fill: none;" marker-start="url(#ONLY_ONE_START)" marker-end="url(#ZERO_OR_MORE_END)" d="M300.867,132.275L300.867,140.609C300.867,148.942,300.867,165.609,300.867,182.275C300.867,198.942,300.867,215.609,300.867,223.942L300.867,232.275" class="er relationshipLine"/><path style="stroke: gray; fill: none;" marker-start="url(#ONLY_ONE_START)" marker-end="url(#ONLY_ONE_END)" d="M350.867,100.326L379.1,113.984C407.333,127.642,463.799,154.959,492.033,178.776C520.266,202.593,520.266,222.911,520.266,233.07L520.266,243.229" class="er relationshipLine"/><path style="stroke: gray; fill: none;" marker-start="url(#ONLY_ONE_START)" marker-end="url(#ONLY_ONE_END)" d="M250.867,100.326L222.634,113.984C194.401,127.642,137.935,154.959,109.702,180.617C81.469,206.275,81.469,230.275,81.469,242.275L81.469,254.275" class="er relationshipLine"/><path style="stroke: gray; fill: none;" marker-start="url(#ONLY_ONE_START)" marker-end="url(#ONE_OR_MORE_END)" d="M81.469,322.275L81.469,334.275C81.469,346.275,81.469,370.275,81.469,390.609C81.469,410.942,81.469,427.609,81.469,435.942L81.469,444.275" class="er relationshipLine"/><path style="stroke: gray; fill: none;" marker-start="url(#ONLY_ONE_START)" marker-end="url(#ONE_OR_MORE_END)" d="M81.469,534.459L81.469,542.792C81.469,551.126,81.469,567.792,90.13,584.459C98.792,601.126,116.115,617.792,124.776,626.126L133.438,634.459" class="er relationshipLine"/><path style="stroke: gray; fill: none;" marker-start="url(#ONLY_ONE_START)" marker-end="url(#ONE_OR_MORE_END)" d="M324.875,534.459L324.875,542.792C324.875,551.126,324.875,567.792,316.213,584.459C307.552,601.126,290.229,617.792,281.567,626.126L272.906,634.459" class="er relationshipLine"/><g transform="translate(250.8671875,20 )" id="entity-User-818c511a-4a32-5484-ba70-875d765a9175"><rect height="112.27539253234863" width="100" y="0" x="0" class="er entityBox"/><text style="dominant-baseline: middle; text-anchor: middle; font-size: 12px;" transform="translate(50,12)" y="0" x="0" id="text-entity-User-818c511a-4a32-5484-ba70-875d765a9175" class="er entityLabel">User</text><rect height="22" width="36.682291666666664" y="24" x="0" class="er attributeBoxOdd"/><text style="dominant-baseline: middle; font-size: 10.2px;" transform="translate(5,35)" y="0" x="0" id="text-entity-User-818c511a-4a32-5484-ba70-875d765a9175-attr-1-type" class="er entityLabel">int</text><rect height="22" width="40.822916666666664" y="24" x="36.682291666666664" class="er attributeBoxOdd"/><text style="dominant-baseline: middle; font-size: 10.2px;" transform="translate(41.682291666666664,35)" y="0" x="0" id="text-entity-User-818c511a-4a32-5484-ba70-875d765a9175-attr-1-name" class="er entityLabel">Id</text><rect height="22" width="22.494791666666668" y="24" x="77.50520833333333" class="er attributeBoxOdd"/><text style="dominant-baseline: middle; font-size: 10.2px;" transform="translate(82.50520833333333,35)" y="0" x="0" id="text-entity-User-818c511a-4a32-5484-ba70-875d765a9175-attr-1-key" class="er entityLabel">PK</text><rect height="22.091797828674316" width="36.682291666666664" y="46" x="0" class="er attributeBoxEven"/><text style="dominant-baseline: middle; font-size: 10.2px;" transform="translate(5,57.04589891433716)" y="0" x="0" id="text-entity-User-818c511a-4a32-5484-ba70-875d765a9175-attr-2-type" class="er entityLabel">string</text><rect height="22.091797828674316" width="40.822916666666664" y="46" x="36.682291666666664" class="er attributeBoxEven"/><text style="dominant-baseline: middle; font-size: 10.2px;" transform="translate(41.682291666666664,57.04589891433716)" y="0" x="0" id="text-entity-User-818c511a-4a32-5484-ba70-875d765a9175-attr-2-name" class="er entityLabel">Name</text><rect height="22.091797828674316" width="22.494791666666668" y="46" x="77.50520833333333" class="er attributeBoxEven"/><text style="dominant-baseline: middle; font-size: 10.2px;" transform="translate(82.50520833333333,57.04589891433716)" y="0" x="0" id="text-entity-User-818c511a-4a32-5484-ba70-875d765a9175-attr-2-key" class="er entityLabel"/><rect height="22.091796875" width="36.682291666666664" y="68.09179782867432" x="0" class="er attributeBoxOdd"/><text style="dominant-baseline: middle; font-size: 10.2px;" transform="translate(5,79.13769626617432)" y="0" x="0" id="text-entity-User-818c511a-4a32-5484-ba70-875d765a9175-attr-3-type" class="er entityLabel">int</text><rect height="22.091796875" width="40.822916666666664" y="68.09179782867432" x="36.682291666666664" class="er attributeBoxOdd"/><text style="dominant-baseline: middle; font-size: 10.2px;" transform="translate(41.682291666666664,79.13769626617432)" y="0" x="0" id="text-entity-User-818c511a-4a32-5484-ba70-875d765a9175-attr-3-name" class="er entityLabel">Age</text><rect height="22.091796875" width="22.494791666666668" y="68.09179782867432" x="77.50520833333333" class="er attributeBoxOdd"/><text style="dominant-baseline: middle; font-size: 10.2px;" transform="translate(82.50520833333333,79.13769626617432)" y="0" x="0" id="text-entity-User-818c511a-4a32-5484-ba70-875d765a9175-attr-3-key" class="er entityLabel"/><rect height="22.091797828674316" width="36.682291666666664" y="90.18359470367432" x="0" class="er attributeBoxEven"/><text style="dominant-baseline: middle; font-size: 10.2px;" transform="translate(5,101.22949361801147)" y="0" x="0" id="text-entity-User-818c511a-4a32-5484-ba70-875d765a9175-attr-4-type" class="er entityLabel">float</text><rect height="22.091797828674316" width="40.822916666666664" y="90.18359470367432" x="36.682291666666664" class="er attributeBoxEven"/><text style="dominant-baseline: middle; font-size: 10.2px;" transform="translate(41.682291666666664,101.22949361801147)" y="0" x="0" id="text-entity-User-818c511a-4a32-5484-ba70-875d765a9175-attr-4-name" class="er entityLabel">Height</text><rect height="22.091797828674316" width="22.494791666666668" y="90.18359470367432" x="77.50520833333333" class="er attributeBoxEven"/><text style="dominant-baseline: middle; font-size: 10.2px;" transform="translate(82.50520833333333,101.22949361801147)" y="0" x="0" id="text-entity-User-818c511a-4a32-5484-ba70-875d765a9175-attr-4-key" class="er entityLabel"/></g><g transform="translate(242.9375,444.275390625 )" id="entity-Exercise-f3d393b9-630e-5784-a309-81e49efab0e7"><rect height="90.18359565734863" width="163.875" y="0" x="0" class="er entityBox"/><text style="dominant-baseline: middle; text-anchor: middle; font-size: 12px;" transform="translate(81.9375,12)" y="0" x="0" id="text-entity-Exercise-f3d393b9-630e-5784-a309-81e49efab0e7" class="er entityLabel">Exercise</text><rect height="22" width="35.75" y="24" x="0" class="er attributeBoxOdd"/><text style="dominant-baseline: middle; font-size: 10.2px;" transform="translate(5,35)" y="0" x="0" id="text-entity-Exercise-f3d393b9-630e-5784-a309-81e49efab0e7-attr-1-type" class="er entityLabel">int</text><rect height="22" width="106.5625" y="24" x="35.75" class="er attributeBoxOdd"/><text style="dominant-baseline: middle; font-size: 10.2px;" transform="translate(40.75,35)" y="0" x="0" id="text-entity-Exercise-f3d393b9-630e-5784-a309-81e49efab0e7-attr-1-name" class="er entityLabel">Id</text><rect height="22" width="21.5625" y="24" x="142.3125" class="er attributeBoxOdd"/><text style="dominant-baseline: middle; font-size: 10.2px;" transform="translate(147.3125,35)" y="0" x="0" id="text-entity-Exercise-f3d393b9-630e-5784-a309-81e49efab0e7-attr-1-key" class="er entityLabel">PK</text><rect height="22.091797828674316" width="35.75" y="46" x="0" class="er attributeBoxEven"/><text style="dominant-baseline: middle; font-size: 10.2px;" transform="translate(5,57.04589891433716)" y="0" x="0" id="text-entity-Exercise-f3d393b9-630e-5784-a309-81e49efab0e7-attr-2-type" class="er entityLabel">string</text><rect height="22.091797828674316" width="106.5625" y="46" x="35.75" class="er attributeBoxEven"/><text style="dominant-baseline: middle; font-size: 10.2px;" transform="translate(40.75,57.04589891433716)" y="0" x="0" id="text-entity-Exercise-f3d393b9-630e-5784-a309-81e49efab0e7-attr-2-name" class="er entityLabel">Name</text><rect height="22.091797828674316" width="21.5625" y="46" x="142.3125" class="er attributeBoxEven"/><text style="dominant-baseline: middle; font-size: 10.2px;" transform="translate(147.3125,57.04589891433716)" y="0" x="0" id="text-entity-Exercise-f3d393b9-630e-5784-a309-81e49efab0e7-attr-2-key" class="er entityLabel"/><rect height="22.091797828674316" width="35.75" y="68.09179782867432" x="0" class="er attributeBoxOdd"/><text style="dominant-baseline: middle; font-size: 10.2px;" transform="translate(5,79.13769674301147)" y="0" x="0" id="text-entity-Exercise-f3d393b9-630e-5784-a309-81e49efab0e7-attr-3-type" class="er entityLabel">string</text><rect height="22.091797828674316" width="106.5625" y="68.09179782867432" x="35.75" class="er attributeBoxOdd"/><text style="dominant-baseline: middle; font-size: 10.2px;" transform="translate(40.75,79.13769674301147)" y="0" x="0" id="text-entity-Exercise-f3d393b9-630e-5784-a309-81e49efab0e7-attr-3-name" class="er entityLabel">InstructionalVideoUrl</text><rect height="22.091797828674316" width="21.5625" y="68.09179782867432" x="142.3125" class="er attributeBoxOdd"/><text style="dominant-baseline: middle; font-size: 10.2px;" transform="translate(147.3125,79.13769674301147)" y="0" x="0" id="text-entity-Exercise-f3d393b9-630e-5784-a309-81e49efab0e7-attr-3-key" class="er entityLabel"/></g><g transform="translate(127.2109375,634.458984375 )" id="entity-TrainingDayExercise-70019e62-c69f-5376-b88d-45c9974acb11"><rect height="134.18359470367432" width="151.921875" y="0" x="0" class="er entityBox"/><text style="dominant-baseline: middle; text-anchor: middle; font-size: 12px;" transform="translate(75.9609375,12)" y="0" x="0" id="text-entity-TrainingDayExercise-70019e62-c69f-5376-b88d-45c9974acb11" class="er entityLabel">TrainingDayExercise</text><rect height="22" width="22.53125" y="24" x="0" class="er attributeBoxOdd"/><text style="dominant-baseline: middle; font-size: 10.2px;" transform="translate(5,35)" y="0" x="0" id="text-entity-TrainingDayExercise-70019e62-c69f-5376-b88d-45c9974acb11-attr-1-type" class="er entityLabel">int</text><rect height="22" width="107.828125" y="24" x="22.53125" class="er attributeBoxOdd"/><text style="dominant-baseline: middle; font-size: 10.2px;" transform="translate(27.53125,35)" y="0" x="0" id="text-entity-TrainingDayExercise-70019e62-c69f-5376-b88d-45c9974acb11-attr-1-name" class="er entityLabel">Id</text><rect height="22" width="21.5625" y="24" x="130.359375" class="er attributeBoxOdd"/><text style="dominant-baseline: middle; font-size: 10.2px;" transform="translate(135.359375,35)" y="0" x="0" id="text-entity-TrainingDayExercise-70019e62-c69f-5376-b88d-45c9974acb11-attr-1-key" class="er entityLabel">PK</text><rect height="22.091797828674316" width="22.53125" y="46" x="0" class="er attributeBoxEven"/><text style="dominant-baseline: middle; font-size: 10.2px;" transform="translate(5,57.04589891433716)" y="0" x="0" id="text-entity-TrainingDayExercise-70019e62-c69f-5376-b88d-45c9974acb11-attr-2-type" class="er entityLabel">int</text><rect height="22.091797828674316" width="107.828125" y="46" x="22.53125" class="er attributeBoxEven"/><text style="dominant-baseline: middle; font-size: 10.2px;" transform="translate(27.53125,57.04589891433716)" y="0" x="0" id="text-entity-TrainingDayExercise-70019e62-c69f-5376-b88d-45c9974acb11-attr-2-name" class="er entityLabel">TrainingDayId</text><rect height="22.091797828674316" width="21.5625" y="46" x="130.359375" class="er attributeBoxEven"/><text style="dominant-baseline: middle; font-size: 10.2px;" transform="translate(135.359375,57.04589891433716)" y="0" x="0" id="text-entity-TrainingDayExercise-70019e62-c69f-5376-b88d-45c9974acb11-attr-2-key" class="er entityLabel">FK</text><rect height="22" width="22.53125" y="68.09179782867432" x="0" class="er attributeBoxOdd"/><text style="dominant-baseline: middle; font-size: 10.2px;" transform="translate(5,79.09179782867432)" y="0" x="0" id="text-entity-TrainingDayExercise-70019e62-c69f-5376-b88d-45c9974acb11-attr-3-type" class="er entityLabel">int</text><rect height="22" width="107.828125" y="68.09179782867432" x="22.53125" class="er attributeBoxOdd"/><text style="dominant-baseline: middle; font-size: 10.2px;" transform="translate(27.53125,79.09179782867432)" y="0" x="0" id="text-entity-TrainingDayExercise-70019e62-c69f-5376-b88d-45c9974acb11-attr-3-name" class="er entityLabel">NumberOfSets</text><rect height="22" width="21.5625" y="68.09179782867432" x="130.359375" class="er attributeBoxOdd"/><text style="dominant-baseline: middle; font-size: 10.2px;" transform="translate(135.359375,79.09179782867432)" y="0" x="0" id="text-entity-TrainingDayExercise-70019e62-c69f-5376-b88d-45c9974acb11-attr-3-key" class="er entityLabel"/><rect height="22.091796875" width="22.53125" y="90.09179782867432" x="0" class="er attributeBoxEven"/><text style="dominant-baseline: middle; font-size: 10.2px;" transform="translate(5,101.13769626617432)" y="0" x="0" id="text-entity-TrainingDayExercise-70019e62-c69f-5376-b88d-45c9974acb11-attr-4-type" class="er entityLabel">int</text><rect height="22.091796875" width="107.828125" y="90.09179782867432" x="22.53125" class="er attributeBoxEven"/><text style="dominant-baseline: middle; font-size: 10.2px;" transform="translate(27.53125,101.13769626617432)" y="0" x="0" id="text-entity-TrainingDayExercise-70019e62-c69f-5376-b88d-45c9974acb11-attr-4-name" class="er entityLabel">NumberOfRepetitions</text><rect height="22.091796875" width="21.5625" y="90.09179782867432" x="130.359375" class="er attributeBoxEven"/><text style="dominant-baseline: middle; font-size: 10.2px;" transform="translate(135.359375,101.13769626617432)" y="0" x="0" id="text-entity-TrainingDayExercise-70019e62-c69f-5376-b88d-45c9974acb11-attr-4-key" class="er entityLabel"/><rect height="22" width="22.53125" y="112.18359470367432" x="0" class="er attributeBoxOdd"/><text style="dominant-baseline: middle; font-size: 10.2px;" transform="translate(5,123.18359470367432)" y="0" x="0" id="text-entity-TrainingDayExercise-70019e62-c69f-5376-b88d-45c9974acb11-attr-5-type" class="er entityLabel">int</text><rect height="22" width="107.828125" y="112.18359470367432" x="22.53125" class="er attributeBoxOdd"/><text style="dominant-baseline: middle; font-size: 10.2px;" transform="translate(27.53125,123.18359470367432)" y="0" x="0" id="text-entity-TrainingDayExercise-70019e62-c69f-5376-b88d-45c9974acb11-attr-5-name" class="er entityLabel">ExerciseId</text><rect height="22" width="21.5625" y="112.18359470367432" x="130.359375" class="er attributeBoxOdd"/><text style="dominant-baseline: middle; font-size: 10.2px;" transform="translate(135.359375,123.18359470367432)" y="0" x="0" id="text-entity-TrainingDayExercise-70019e62-c69f-5376-b88d-45c9974acb11-attr-5-key" class="er entityLabel">FK</text></g><g transform="translate(20,444.275390625 )" id="entity-TrainingDay-04c8554b-56d8-5308-a48a-05f082643b1e"><rect height="90.18359565734863" width="122.9375" y="0" x="0" class="er entityBox"/><text style="dominant-baseline: middle; text-anchor: middle; font-size: 12px;" transform="translate(61.46875,12)" y="0" x="0" id="text-entity-TrainingDay-04c8554b-56d8-5308-a48a-05f082643b1e" class="er entityLabel">TrainingDay</text><rect height="22" width="22.53125" y="24" x="0" class="er attributeBoxOdd"/><text style="dominant-baseline: middle; font-size: 10.2px;" transform="translate(5,35)" y="0" x="0" id="text-entity-TrainingDay-04c8554b-56d8-5308-a48a-05f082643b1e-attr-1-type" class="er entityLabel">int</text><rect height="22" width="78.84375" y="24" x="22.53125" class="er attributeBoxOdd"/><text style="dominant-baseline: middle; font-size: 10.2px;" transform="translate(27.53125,35)" y="0" x="0" id="text-entity-TrainingDay-04c8554b-56d8-5308-a48a-05f082643b1e-attr-1-name" class="er entityLabel">Id</text><rect height="22" width="21.5625" y="24" x="101.375" class="er attributeBoxOdd"/><text style="dominant-baseline: middle; font-size: 10.2px;" transform="translate(106.375,35)" y="0" x="0" id="text-entity-TrainingDay-04c8554b-56d8-5308-a48a-05f082643b1e-attr-1-key" class="er entityLabel">PK</text><rect height="22.091797828674316" width="22.53125" y="46" x="0" class="er attributeBoxEven"/><text style="dominant-baseline: middle; font-size: 10.2px;" transform="translate(5,57.04589891433716)" y="0" x="0" id="text-entity-TrainingDay-04c8554b-56d8-5308-a48a-05f082643b1e-attr-2-type" class="er entityLabel">int</text><rect height="22.091797828674316" width="78.84375" y="46" x="22.53125" class="er attributeBoxEven"/><text style="dominant-baseline: middle; font-size: 10.2px;" transform="translate(27.53125,57.04589891433716)" y="0" x="0" id="text-entity-TrainingDay-04c8554b-56d8-5308-a48a-05f082643b1e-attr-2-name" class="er entityLabel">TrainingPlanId</text><rect height="22.091797828674316" width="21.5625" y="46" x="101.375" class="er attributeBoxEven"/><text style="dominant-baseline: middle; font-size: 10.2px;" transform="translate(106.375,57.04589891433716)" y="0" x="0" id="text-entity-TrainingDay-04c8554b-56d8-5308-a48a-05f082643b1e-attr-2-key" class="er entityLabel">FK</text><rect height="22.091797828674316" width="22.53125" y="68.09179782867432" x="0" class="er attributeBoxOdd"/><text style="dominant-baseline: middle; font-size: 10.2px;" transform="translate(5,79.13769674301147)" y="0" x="0" id="text-entity-TrainingDay-04c8554b-56d8-5308-a48a-05f082643b1e-attr-3-type" class="er entityLabel">int</text><rect height="22.091797828674316" width="78.84375" y="68.09179782867432" x="22.53125" class="er attributeBoxOdd"/><text style="dominant-baseline: middle; font-size: 10.2px;" transform="translate(27.53125,79.13769674301147)" y="0" x="0" id="text-entity-TrainingDay-04c8554b-56d8-5308-a48a-05f082643b1e-attr-3-name" class="er entityLabel">DayOfTheWeek</text><rect height="22.091797828674316" width="21.5625" y="68.09179782867432" x="101.375" class="er attributeBoxOdd"/><text style="dominant-baseline: middle; font-size: 10.2px;" transform="translate(106.375,79.13769674301147)" y="0" x="0" id="text-entity-TrainingDay-04c8554b-56d8-5308-a48a-05f082643b1e-attr-3-key" class="er entityLabel"/></g><g transform="translate(31.46875,254.275390625 )" id="entity-TrainingPlan-8adbdae1-ce2b-541a-b8f7-e4d87027e745"><rect height="68" width="100" y="0" x="0" class="er entityBox"/><text style="dominant-baseline: middle; text-anchor: middle; font-size: 12px;" transform="translate(50,12)" y="0" x="0" id="text-entity-TrainingPlan-8adbdae1-ce2b-541a-b8f7-e4d87027e745" class="er entityLabel">TrainingPlan</text><rect height="22" width="28.234375" y="24" x="0" class="er attributeBoxOdd"/><text style="dominant-baseline: middle; font-size: 10.2px;" transform="translate(5,35)" y="0" x="0" id="text-entity-TrainingPlan-8adbdae1-ce2b-541a-b8f7-e4d87027e745-attr-1-type" class="er entityLabel">int</text><rect height="22" width="44.5" y="24" x="28.234375" class="er attributeBoxOdd"/><text style="dominant-baseline: middle; font-size: 10.2px;" transform="translate(33.234375,35)" y="0" x="0" id="text-entity-TrainingPlan-8adbdae1-ce2b-541a-b8f7-e4d87027e745-attr-1-name" class="er entityLabel">Id</text><rect height="22" width="27.265625" y="24" x="72.734375" class="er attributeBoxOdd"/><text style="dominant-baseline: middle; font-size: 10.2px;" transform="translate(77.734375,35)" y="0" x="0" id="text-entity-TrainingPlan-8adbdae1-ce2b-541a-b8f7-e4d87027e745-attr-1-key" class="er entityLabel">PK</text><rect height="22" width="28.234375" y="46" x="0" class="er attributeBoxEven"/><text style="dominant-baseline: middle; font-size: 10.2px;" transform="translate(5,57)" y="0" x="0" id="text-entity-TrainingPlan-8adbdae1-ce2b-541a-b8f7-e4d87027e745-attr-2-type" class="er entityLabel">int</text><rect height="22" width="44.5" y="46" x="28.234375" class="er attributeBoxEven"/><text style="dominant-baseline: middle; font-size: 10.2px;" transform="translate(33.234375,57)" y="0" x="0" id="text-entity-TrainingPlan-8adbdae1-ce2b-541a-b8f7-e4d87027e745-attr-2-name" class="er entityLabel">UserId</text><rect height="22" width="27.265625" y="46" x="72.734375" class="er attributeBoxEven"/><text style="dominant-baseline: middle; font-size: 10.2px;" transform="translate(77.734375,57)" y="0" x="0" id="text-entity-TrainingPlan-8adbdae1-ce2b-541a-b8f7-e4d87027e745-attr-2-key" class="er entityLabel">FK</text></g><g transform="translate(231.46875,232.275390625 )" id="entity-WeightMeasurement-1c2314be-c956-5d4c-8881-88938ec998bc"><rect height="112" width="138.796875" y="0" x="0" class="er entityBox"/><text style="dominant-baseline: middle; text-anchor: middle; font-size: 12px;" transform="translate(69.3984375,12)" y="0" x="0" id="text-entity-WeightMeasurement-1c2314be-c956-5d4c-8881-88938ec998bc" class="er entityLabel">WeightMeasurement</text><rect height="22" width="36.5" y="24" x="0" class="er attributeBoxOdd"/><text style="dominant-baseline: middle; font-size: 10.2px;" transform="translate(5,35)" y="0" x="0" id="text-entity-WeightMeasurement-1c2314be-c956-5d4c-8881-88938ec998bc-attr-1-type" class="er entityLabel">int</text><rect height="22" width="75.890625" y="24" x="36.5" class="er attributeBoxOdd"/><text style="dominant-baseline: middle; font-size: 10.2px;" transform="translate(41.5,35)" y="0" x="0" id="text-entity-WeightMeasurement-1c2314be-c956-5d4c-8881-88938ec998bc-attr-1-name" class="er entityLabel">Id</text><rect height="22" width="26.40625" y="24" x="112.390625" class="er attributeBoxOdd"/><text style="dominant-baseline: middle; font-size: 10.2px;" transform="translate(117.390625,35)" y="0" x="0" id="text-entity-WeightMeasurement-1c2314be-c956-5d4c-8881-88938ec998bc-attr-1-key" class="er entityLabel">PK</text><rect height="22" width="36.5" y="46" x="0" class="er attributeBoxEven"/><text style="dominant-baseline: middle; font-size: 10.2px;" transform="translate(5,57)" y="0" x="0" id="text-entity-WeightMeasurement-1c2314be-c956-5d4c-8881-88938ec998bc-attr-2-type" class="er entityLabel">date</text><rect height="22" width="75.890625" y="46" x="36.5" class="er attributeBoxEven"/><text style="dominant-baseline: middle; font-size: 10.2px;" transform="translate(41.5,57)" y="0" x="0" id="text-entity-WeightMeasurement-1c2314be-c956-5d4c-8881-88938ec998bc-attr-2-name" class="er entityLabel">DateTaken</text><rect height="22" width="26.40625" y="46" x="112.390625" class="er attributeBoxEven"/><text style="dominant-baseline: middle; font-size: 10.2px;" transform="translate(117.390625,57)" y="0" x="0" id="text-entity-WeightMeasurement-1c2314be-c956-5d4c-8881-88938ec998bc-attr-2-key" class="er entityLabel"/><rect height="22" width="36.5" y="68" x="0" class="er attributeBoxOdd"/><text style="dominant-baseline: middle; font-size: 10.2px;" transform="translate(5,79)" y="0" x="0" id="text-entity-WeightMeasurement-1c2314be-c956-5d4c-8881-88938ec998bc-attr-3-type" class="er entityLabel">float</text><rect height="22" width="75.890625" y="68" x="36.5" class="er attributeBoxOdd"/><text style="dominant-baseline: middle; font-size: 10.2px;" transform="translate(41.5,79)" y="0" x="0" id="text-entity-WeightMeasurement-1c2314be-c956-5d4c-8881-88938ec998bc-attr-3-name" class="er entityLabel">Measurement</text><rect height="22" width="26.40625" y="68" x="112.390625" class="er attributeBoxOdd"/><text style="dominant-baseline: middle; font-size: 10.2px;" transform="translate(117.390625,79)" y="0" x="0" id="text-entity-WeightMeasurement-1c2314be-c956-5d4c-8881-88938ec998bc-attr-3-key" class="er entityLabel"/><rect height="22" width="36.5" y="90" x="0" class="er attributeBoxEven"/><text style="dominant-baseline: middle; font-size: 10.2px;" transform="translate(5,101)" y="0" x="0" id="text-entity-WeightMeasurement-1c2314be-c956-5d4c-8881-88938ec998bc-attr-4-type" class="er entityLabel">int</text><rect height="22" width="75.890625" y="90" x="36.5" class="er attributeBoxEven"/><text style="dominant-baseline: middle; font-size: 10.2px;" transform="translate(41.5,101)" y="0" x="0" id="text-entity-WeightMeasurement-1c2314be-c956-5d4c-8881-88938ec998bc-attr-4-name" class="er entityLabel">UserId</text><rect height="22" width="26.40625" y="90" x="112.390625" class="er attributeBoxEven"/><text style="dominant-baseline: middle; font-size: 10.2px;" transform="translate(117.390625,101)" y="0" x="0" id="text-entity-WeightMeasurement-1c2314be-c956-5d4c-8881-88938ec998bc-attr-4-key" class="er entityLabel">FK</text></g><g transform="translate(470.265625,243.2294921875 )" id="entity-WeightGoal-1895e041-f72d-5ed6-b8c0-b38220a660e3"><rect height="90.09179782867432" width="100" y="0" x="0" class="er entityBox"/><text style="dominant-baseline: middle; text-anchor: middle; font-size: 12px;" transform="translate(50,12)" y="0" x="0" id="text-entity-WeightGoal-1895e041-f72d-5ed6-b8c0-b38220a660e3" class="er entityLabel">WeightGoal</text><rect height="22" width="33.4375" y="24" x="0" class="er attributeBoxOdd"/><text style="dominant-baseline: middle; font-size: 10.2px;" transform="translate(5,35)" y="0" x="0" id="text-entity-WeightGoal-1895e041-f72d-5ed6-b8c0-b38220a660e3-attr-1-type" class="er entityLabel">int</text><rect height="22" width="43.21875" y="24" x="33.4375" class="er attributeBoxOdd"/><text style="dominant-baseline: middle; font-size: 10.2px;" transform="translate(38.4375,35)" y="0" x="0" id="text-entity-WeightGoal-1895e041-f72d-5ed6-b8c0-b38220a660e3-attr-1-name" class="er entityLabel">Id</text><rect height="22" width="23.34375" y="24" x="76.65625" class="er attributeBoxOdd"/><text style="dominant-baseline: middle; font-size: 10.2px;" transform="translate(81.65625,35)" y="0" x="0" id="text-entity-WeightGoal-1895e041-f72d-5ed6-b8c0-b38220a660e3-attr-1-key" class="er entityLabel">PK</text><rect height="22.091797828674316" width="33.4375" y="46" x="0" class="er attributeBoxEven"/><text style="dominant-baseline: middle; font-size: 10.2px;" transform="translate(5,57.04589891433716)" y="0" x="0" id="text-entity-WeightGoal-1895e041-f72d-5ed6-b8c0-b38220a660e3-attr-2-type" class="er entityLabel">float</text><rect height="22.091797828674316" width="43.21875" y="46" x="33.4375" class="er attributeBoxEven"/><text style="dominant-baseline: middle; font-size: 10.2px;" transform="translate(38.4375,57.04589891433716)" y="0" x="0" id="text-entity-WeightGoal-1895e041-f72d-5ed6-b8c0-b38220a660e3-attr-2-name" class="er entityLabel">Weight</text><rect height="22.091797828674316" width="23.34375" y="46" x="76.65625" class="er attributeBoxEven"/><text style="dominant-baseline: middle; font-size: 10.2px;" transform="translate(81.65625,57.04589891433716)" y="0" x="0" id="text-entity-WeightGoal-1895e041-f72d-5ed6-b8c0-b38220a660e3-attr-2-key" class="er entityLabel"/><rect height="22" width="33.4375" y="68.09179782867432" x="0" class="er attributeBoxOdd"/><text style="dominant-baseline: middle; font-size: 10.2px;" transform="translate(5,79.09179782867432)" y="0" x="0" id="text-entity-WeightGoal-1895e041-f72d-5ed6-b8c0-b38220a660e3-attr-3-type" class="er entityLabel">int</text><rect height="22" width="43.21875" y="68.09179782867432" x="33.4375" class="er attributeBoxOdd"/><text style="dominant-baseline: middle; font-size: 10.2px;" transform="translate(38.4375,79.09179782867432)" y="0" x="0" id="text-entity-WeightGoal-1895e041-f72d-5ed6-b8c0-b38220a660e3-attr-3-name" class="er entityLabel">UserId</text><rect height="22" width="23.34375" y="68.09179782867432" x="76.65625" class="er attributeBoxOdd"/><text style="dominant-baseline: middle; font-size: 10.2px;" transform="translate(81.65625,79.09179782867432)" y="0" x="0" id="text-entity-WeightGoal-1895e041-f72d-5ed6-b8c0-b38220a660e3-attr-3-key" class="er entityLabel">FK</text></g><rect height="14" width="28.453125" y="175.27499389648438" x="286.64044189453125" class="er relationshipLabelBox"/><text style="text-anchor: middle; dominant-baseline: middle; font-size: 12px;" y="182.27499389648438" x="300.86700439453125" id="rel1" class="er relationshipLabel">saves</text><rect height="14" width="21.03125" y="146.9483184814453" x="445.155029296875" class="er relationshipLabelBox"/><text style="text-anchor: middle; dominant-baseline: middle; font-size: 12px;" y="153.9483184814453" x="455.670654296875" id="rel2" class="er relationshipLabel">sets</text><rect height="14" width="57.15625" y="149.84902954101562" x="113.65345764160156" class="er relationshipLabelBox"/><text style="text-anchor: middle; dominant-baseline: middle; font-size: 12px;" y="156.84902954101562" x="142.23158264160156" id="rel3" class="er relationshipLabel">is assigned</text><rect height="14" width="56.23828125" y="376.2749938964844" x="53.34986114501953" class="er relationshipLabelBox"/><text style="text-anchor: middle; dominant-baseline: middle; font-size: 12px;" y="383.2749938964844" x="81.46900177001953" id="rel4" class="er relationshipLabel">consists of</text><rect height="14" width="56.23828125" y="583.9776000976562" x="65.81400299072266" class="er relationshipLabelBox"/><text style="text-anchor: middle; dominant-baseline: middle; font-size: 12px;" y="590.9776000976562" x="93.93314361572266" id="rel5" class="er relationshipLabel">consists of</text><rect height="14" width="50.203125" y="583.9773559570312" x="287.3088073730469" class="er relationshipLabelBox"/><text style="text-anchor: middle; dominant-baseline: middle; font-size: 12px;" y="590.9773559570312" x="312.4103698730469" id="rel6" class="er relationshipLabel">describes</text></svg>