<svg aria-roledescription="er" role="graphics-document document" viewBox="-160.734619140625 -62 1028.1798095703125 1143.65234375" style="max-width: 1028.18px; background-color: white;" xmlns:xlink="http://www.w3.org/1999/xlink" xmlns="http://www.w3.org/2000/svg" width="100%" id="my-svg"><style>#my-svg{font-family:"trebuchet ms",verdana,arial,sans-serif;font-size:16px;fill:#333;}#my-svg .error-icon{fill:#552222;}#my-svg .error-text{fill:#552222;stroke:#552222;}#my-svg .edge-thickness-normal{stroke-width:1px;}#my-svg .edge-thickness-thick{stroke-width:3.5px;}#my-svg .edge-pattern-solid{stroke-dasharray:0;}#my-svg .edge-thickness-invisible{stroke-width:0;fill:none;}#my-svg .edge-pattern-dashed{stroke-dasharray:3;}#my-svg .edge-pattern-dotted{stroke-dasharray:2;}#my-svg .marker{fill:#333333;stroke:#333333;}#my-svg .marker.cross{stroke:#333333;}#my-svg svg{font-family:"trebuchet ms",verdana,arial,sans-serif;font-size:16px;}#my-svg p{margin:0;}#my-svg .entityBox{fill:#ECECFF;stroke:#9370DB;}#my-svg .attributeBoxOdd{fill:#ffffff;stroke:#9370DB;}#my-svg .attributeBoxEven{fill:#f2f2f2;stroke:#9370DB;}#my-svg .relationshipLabelBox{fill:hsl(80, 100%, 96.2745098039%);opacity:0.7;background-color:hsl(80, 100%, 96.2745098039%);}#my-svg .relationshipLabelBox rect{opacity:0.5;}#my-svg .relationshipLine{stroke:#333333;}#my-svg .entityTitleText{text-anchor:middle;font-size:18px;fill:#333;}#my-svg #MD_PARENT_START{fill:#f5f5f5!important;stroke:#333333!important;stroke-width:1;}#my-svg #MD_PARENT_END{fill:#f5f5f5!important;stroke:#333333!important;stroke-width:1;}#my-svg :root{--mermaid-font-family:"trebuchet ms",verdana,arial,sans-serif;}</style><g/><defs><marker orient="auto" markerHeight="240" markerWidth="190" refY="7" refX="0" id="MD_PARENT_START"><path d="M 18,7 L9,13 L1,7 L9,1 Z"/></marker></defs><defs><marker orient="auto" markerHeight="28" markerWidth="20" refY="7" refX="19" id="MD_PARENT_END"><path d="M 18,7 L9,13 L1,7 L9,1 Z"/></marker></defs><defs><marker orient="auto" markerHeight="18" markerWidth="18" refY="9" refX="0" id="ONLY_ONE_START"><path d="M9,0 L9,18 M15,0 L15,18" fill="none" stroke="gray"/></marker></defs><defs><marker orient="auto" markerHeight="18" markerWidth="18" refY="9" refX="18" id="ONLY_ONE_END"><path d="M3,0 L3,18 M9,0 L9,18" fill="none" stroke="gray"/></marker></defs><defs><marker orient="auto" markerHeight="18" markerWidth="30" refY="9" refX="0" id="ZERO_OR_ONE_START"><circle r="6" cy="9" cx="21" fill="white" stroke="gray"/><path d="M9,0 L9,18" fill="none" stroke="gray"/></marker></defs><defs><marker orient="auto" markerHeight="18" markerWidth="30" refY="9" refX="30" id="ZERO_OR_ONE_END"><circle r="6" cy="9" cx="9" fill="white" stroke="gray"/><path d="M21,0 L21,18" fill="none" stroke="gray"/></marker></defs><defs><marker orient="auto" markerHeight="36" markerWidth="45" refY="18" refX="18" id="ONE_OR_MORE_START"><path d="M0,18 Q 18,0 36,18 Q 18,36 0,18 M42,9 L42,27" fill="none" stroke="gray"/></marker></defs><defs><marker orient="auto" markerHeight="36" markerWidth="45" refY="18" refX="27" id="ONE_OR_MORE_END"><path d="M3,9 L3,27 M9,18 Q27,0 45,18 Q27,36 9,18" fill="none" stroke="gray"/></marker></defs><defs><marker orient="auto" markerHeight="36" markerWidth="57" refY="18" refX="18" id="ZERO_OR_MORE_START"><circle r="6" cy="18" cx="48" fill="white" stroke="gray"/><path d="M0,18 Q18,0 36,18 Q18,36 0,18" fill="none" stroke="gray"/></marker></defs><defs><marker orient="auto" markerHeight="36" markerWidth="57" refY="18" refX="39" id="ZERO_OR_MORE_END"><circle r="6" cy="18" cx="9" fill="white" stroke="gray"/><path d="M21,18 Q39,0 57,18 Q39,36 21,18" fill="none" stroke="gray"/></marker></defs><path style="stroke: gray; fill: none;" marker-start="url(#ONE_OR_MORE_START)" marker-end="url(#ZERO_OR_ONE_END)" d="M456.82,761.01L456.82,769.343C456.82,777.676,456.82,794.343,456.82,811.01C456.82,827.676,456.82,844.343,456.82,852.676L456.82,861.01" class="er relationshipLine"/><path style="stroke: gray; fill: none;" marker-start="url(#ONLY_ONE_START)" marker-end="url(#ONLY_ONE_END)" d="M43.313,80.939L20.536,91.616C-2.24,102.293,-47.792,123.646,-70.568,148.906C-93.344,174.167,-93.344,203.333,-93.344,232.5C-93.344,261.667,-93.344,290.833,-93.344,321.273C-93.344,351.713,-93.344,383.425,-93.344,415.138C-93.344,446.85,-93.344,478.563,-93.344,519.48C-93.344,560.398,-93.344,610.52,-93.344,660.643C-93.344,710.765,-93.344,760.887,-16.156,807.039C61.031,853.19,215.406,895.37,292.594,916.459L369.781,937.549" class="er relationshipLine"/><path style="stroke: gray; fill: none;" marker-start="url(#ONLY_ONE_START)" marker-end="url(#ONE_OR_MORE_END)" d="M71.884,95L67.122,103.333C62.36,111.667,52.836,128.333,48.074,151.25C43.313,174.167,43.313,203.333,43.313,232.5C43.313,261.667,43.313,290.833,47.692,313.75C52.072,336.667,60.831,353.333,65.211,361.667L69.59,370" class="er relationshipLine"/><path style="stroke: gray; fill: none;" marker-start="url(#ONLY_ONE_START)" marker-end="url(#ONE_OR_MORE_END)" d="M114.741,95L119.503,103.333C124.265,111.667,133.789,128.333,155.217,146.389C176.646,164.444,209.979,183.889,226.646,193.611L243.313,203.333" class="er relationshipLine"/><path style="stroke: gray; fill: none;" marker-start="url(#ONLY_ONE_START)" marker-end="url(#ONLY_ONE_END)" d="M143.313,71.455L187.23,83.712C231.148,95.97,318.984,120.485,352.092,141.076C385.2,161.667,363.579,178.333,352.769,186.667L341.959,195" class="er relationshipLine"/><path style="stroke: gray; fill: none;" marker-start="url(#ONLY_ONE_START)" marker-end="url(#ONLY_ONE_END)" d="M243.313,261.667L226.646,271.389C209.979,281.111,176.646,300.556,155.6,318.611C134.553,336.667,125.794,353.333,121.414,361.667L117.035,370" class="er relationshipLine"/><path style="stroke: gray; fill: none;" marker-start="url(#ONE_OR_MORE_START)" marker-end="url(#ONLY_ONE_END)" d="M293.313,270L293.313,278.333C293.313,286.667,293.313,303.333,293.313,327.523C293.313,351.713,293.313,383.425,293.313,415.138C293.313,446.85,293.313,478.563,293.313,519.48C293.313,560.398,293.313,610.52,293.313,660.643C293.313,710.765,293.313,760.887,306.057,797.666C318.802,834.444,344.292,857.878,357.036,869.595L369.781,881.311" class="er relationshipLine"/><path style="stroke: gray; fill: none;" marker-start="url(#ONLY_ONE_START)" marker-end="url(#ONE_OR_MORE_END)" d="M343.313,245.879L389.482,258.232C435.651,270.586,527.99,295.293,574.159,323.503C620.328,351.713,620.328,383.425,620.328,415.138C620.328,446.85,620.328,478.563,620.328,519.48C620.328,560.398,620.328,610.52,620.328,660.643C620.328,710.765,620.328,760.887,607.583,797.666C594.839,834.444,569.349,857.878,556.604,869.595L543.859,881.311" class="er relationshipLine"/><path style="stroke: gray; fill: none;" marker-start="url(#ONLY_ONE_START)" marker-end="url(#ONLY_ONE_END)" d="M93.313,460.275L93.313,468.609C93.313,476.942,93.313,493.609,143.313,522.625C193.313,551.641,293.313,593.007,343.313,613.689L393.313,634.372" class="er relationshipLine"/><path style="stroke: gray; fill: none;" marker-start="url(#ONE_OR_MORE_START)" marker-end="url(#ONE_OR_MORE_END)" d="M681.366,91.592L671.193,100.493C661.02,109.395,640.674,127.197,584.332,148.452C527.99,169.707,435.651,194.414,389.482,206.768L343.313,219.121" class="er relationshipLine"/><path style="stroke: gray; fill: none;" marker-start="url(#ONLY_ONE_START)" marker-end="url(#ONLY_ONE_END)" d="M720.328,91.592L720.328,100.493C720.328,109.395,720.328,127.197,720.328,150.682C720.328,174.167,720.328,203.333,720.328,232.5C720.328,261.667,720.328,290.833,720.328,321.273C720.328,351.713,720.328,383.425,720.328,415.138C720.328,446.85,720.328,478.563,686.995,513.44C653.661,548.318,586.995,586.36,553.661,605.381L520.328,624.403" class="er relationshipLine"/><path style="stroke: gray; fill: none;" marker-start="url(#ONE_OR_MORE_START)" marker-end="url(#ONE_OR_MORE_END)" d="M759.29,91.592L769.463,100.493C779.636,109.395,799.982,127.197,810.155,150.682C820.328,174.167,820.328,203.333,820.328,232.5C820.328,261.667,820.328,290.833,820.328,321.273C820.328,351.713,820.328,383.425,820.328,415.138C820.328,446.85,820.328,478.563,820.328,519.48C820.328,560.398,820.328,610.52,820.328,660.643C820.328,710.765,820.328,760.887,774.25,805.003C728.172,849.119,636.016,887.228,589.938,906.283L543.859,925.338" class="er relationshipLine"/><g transform="translate(393.3125,560.275390625 )" id="entity-Usuario-0c7fd897-052d-59c3-b4ab-b420e3294af2"><rect height="200.734375" width="127.015625" y="0" x="0" class="er entityBox"/><text style="dominant-baseline: middle; text-anchor: middle; font-size: 12px;" transform="translate(63.5078125,12)" y="0" x="0" id="text-entity-Usuario-0c7fd897-052d-59c3-b4ab-b420e3294af2" class="er entityLabel">Usuario</text><rect height="22.091796875" width="36.53125" y="24" x="0" class="er attributeBoxOdd"/><text style="dominant-baseline: middle; font-size: 10.2px;" transform="translate(5,35.0458984375)" y="0" x="0" id="text-entity-Usuario-0c7fd897-052d-59c3-b4ab-b420e3294af2-attr-1-type" class="er entityLabel">String</text><rect height="22.091796875" width="90.484375" y="24" x="36.53125" class="er attributeBoxOdd"/><text style="dominant-baseline: middle; font-size: 10.2px;" transform="translate(41.53125,35.0458984375)" y="0" x="0" id="text-entity-Usuario-0c7fd897-052d-59c3-b4ab-b420e3294af2-attr-1-name" class="er entityLabel">nombres</text><rect height="22.091796875" width="36.53125" y="46.091796875" x="0" class="er attributeBoxEven"/><text style="dominant-baseline: middle; font-size: 10.2px;" transform="translate(5,57.1376953125)" y="0" x="0" id="text-entity-Usuario-0c7fd897-052d-59c3-b4ab-b420e3294af2-attr-2-type" class="er entityLabel">String</text><rect height="22.091796875" width="90.484375" y="46.091796875" x="36.53125" class="er attributeBoxEven"/><text style="dominant-baseline: middle; font-size: 10.2px;" transform="translate(41.53125,57.1376953125)" y="0" x="0" id="text-entity-Usuario-0c7fd897-052d-59c3-b4ab-b420e3294af2-attr-2-name" class="er entityLabel">apellido_paterno</text><rect height="22.091796875" width="36.53125" y="68.18359375" x="0" class="er attributeBoxOdd"/><text style="dominant-baseline: middle; font-size: 10.2px;" transform="translate(5,79.2294921875)" y="0" x="0" id="text-entity-Usuario-0c7fd897-052d-59c3-b4ab-b420e3294af2-attr-3-type" class="er entityLabel">String</text><rect height="22.091796875" width="90.484375" y="68.18359375" x="36.53125" class="er attributeBoxOdd"/><text style="dominant-baseline: middle; font-size: 10.2px;" transform="translate(41.53125,79.2294921875)" y="0" x="0" id="text-entity-Usuario-0c7fd897-052d-59c3-b4ab-b420e3294af2-attr-3-name" class="er entityLabel">apellido_materno</text><rect height="22.091796875" width="36.53125" y="90.275390625" x="0" class="er attributeBoxEven"/><text style="dominant-baseline: middle; font-size: 10.2px;" transform="translate(5,101.3212890625)" y="0" x="0" id="text-entity-Usuario-0c7fd897-052d-59c3-b4ab-b420e3294af2-attr-4-type" class="er entityLabel">String</text><rect height="22.091796875" width="90.484375" y="90.275390625" x="36.53125" class="er attributeBoxEven"/><text style="dominant-baseline: middle; font-size: 10.2px;" transform="translate(41.53125,101.3212890625)" y="0" x="0" id="text-entity-Usuario-0c7fd897-052d-59c3-b4ab-b420e3294af2-attr-4-name" class="er entityLabel">correo</text><rect height="22.091796875" width="36.53125" y="112.3671875" x="0" class="er attributeBoxOdd"/><text style="dominant-baseline: middle; font-size: 10.2px;" transform="translate(5,123.4130859375)" y="0" x="0" id="text-entity-Usuario-0c7fd897-052d-59c3-b4ab-b420e3294af2-attr-5-type" class="er entityLabel">String</text><rect height="22.091796875" width="90.484375" y="112.3671875" x="36.53125" class="er attributeBoxOdd"/><text style="dominant-baseline: middle; font-size: 10.2px;" transform="translate(41.53125,123.4130859375)" y="0" x="0" id="text-entity-Usuario-0c7fd897-052d-59c3-b4ab-b420e3294af2-attr-5-name" class="er entityLabel">contacto</text><rect height="22.091796875" width="36.53125" y="134.458984375" x="0" class="er attributeBoxEven"/><text style="dominant-baseline: middle; font-size: 10.2px;" transform="translate(5,145.5048828125)" y="0" x="0" id="text-entity-Usuario-0c7fd897-052d-59c3-b4ab-b420e3294af2-attr-6-type" class="er entityLabel">String</text><rect height="22.091796875" width="90.484375" y="134.458984375" x="36.53125" class="er attributeBoxEven"/><text style="dominant-baseline: middle; font-size: 10.2px;" transform="translate(41.53125,145.5048828125)" y="0" x="0" id="text-entity-Usuario-0c7fd897-052d-59c3-b4ab-b420e3294af2-attr-6-name" class="er entityLabel">clave</text><rect height="22.091796875" width="36.53125" y="156.55078125" x="0" class="er attributeBoxOdd"/><text style="dominant-baseline: middle; font-size: 10.2px;" transform="translate(5,167.5966796875)" y="0" x="0" id="text-entity-Usuario-0c7fd897-052d-59c3-b4ab-b420e3294af2-attr-7-type" class="er entityLabel">String</text><rect height="22.091796875" width="90.484375" y="156.55078125" x="36.53125" class="er attributeBoxOdd"/><text style="dominant-baseline: middle; font-size: 10.2px;" transform="translate(41.53125,167.5966796875)" y="0" x="0" id="text-entity-Usuario-0c7fd897-052d-59c3-b4ab-b420e3294af2-attr-7-name" class="er entityLabel">foto</text><rect height="22.091796875" width="36.53125" y="178.642578125" x="0" class="er attributeBoxEven"/><text style="dominant-baseline: middle; font-size: 10.2px;" transform="translate(5,189.6884765625)" y="0" x="0" id="text-entity-Usuario-0c7fd897-052d-59c3-b4ab-b420e3294af2-attr-8-type" class="er entityLabel">INT</text><rect height="22.091796875" width="90.484375" y="178.642578125" x="36.53125" class="er attributeBoxEven"/><text style="dominant-baseline: middle; font-size: 10.2px;" transform="translate(41.53125,189.6884765625)" y="0" x="0" id="text-entity-Usuario-0c7fd897-052d-59c3-b4ab-b420e3294af2-attr-8-name" class="er entityLabel">proyecto_ID</text></g><g transform="translate(20,370 )" id="entity-Estudiante-f866bbad-4341-5fe3-957a-38fc2231fdad"><rect height="90.275390625" width="146.625" y="0" x="0" class="er entityBox"/><text style="dominant-baseline: middle; text-anchor: middle; font-size: 12px;" transform="translate(73.3125,12)" y="0" x="0" id="text-entity-Estudiante-f866bbad-4341-5fe3-957a-38fc2231fdad" class="er entityLabel">Estudiante</text><rect height="22.091796875" width="36.53125" y="24" x="0" class="er attributeBoxOdd"/><text style="dominant-baseline: middle; font-size: 10.2px;" transform="translate(5,35.0458984375)" y="0" x="0" id="text-entity-Estudiante-f866bbad-4341-5fe3-957a-38fc2231fdad-attr-1-type" class="er entityLabel">Int</text><rect height="22.091796875" width="110.09375" y="24" x="36.53125" class="er attributeBoxOdd"/><text style="dominant-baseline: middle; font-size: 10.2px;" transform="translate(41.53125,35.0458984375)" y="0" x="0" id="text-entity-Estudiante-f866bbad-4341-5fe3-957a-38fc2231fdad-attr-1-name" class="er entityLabel">codigo_de_estudiante</text><rect height="22.091796875" width="36.53125" y="46.091796875" x="0" class="er attributeBoxEven"/><text style="dominant-baseline: middle; font-size: 10.2px;" transform="translate(5,57.1376953125)" y="0" x="0" id="text-entity-Estudiante-f866bbad-4341-5fe3-957a-38fc2231fdad-attr-2-type" class="er entityLabel">String</text><rect height="22.091796875" width="110.09375" y="46.091796875" x="36.53125" class="er attributeBoxEven"/><text style="dominant-baseline: middle; font-size: 10.2px;" transform="translate(41.53125,57.1376953125)" y="0" x="0" id="text-entity-Estudiante-f866bbad-4341-5fe3-957a-38fc2231fdad-attr-2-name" class="er entityLabel">carrera</text><rect height="22.091796875" width="36.53125" y="68.18359375" x="0" class="er attributeBoxOdd"/><text style="dominant-baseline: middle; font-size: 10.2px;" transform="translate(5,79.2294921875)" y="0" x="0" id="text-entity-Estudiante-f866bbad-4341-5fe3-957a-38fc2231fdad-attr-3-type" class="er entityLabel">String</text><rect height="22.091796875" width="110.09375" y="68.18359375" x="36.53125" class="er attributeBoxOdd"/><text style="dominant-baseline: middle; font-size: 10.2px;" transform="translate(41.53125,79.2294921875)" y="0" x="0" id="text-entity-Estudiante-f866bbad-4341-5fe3-957a-38fc2231fdad-attr-3-name" class="er entityLabel">foto</text></g><g transform="translate(652.21875,23.408203125 )" id="entity-Asesor-aa43a384-60d6-5523-aa0f-6d363300ae14"><rect height="68.18359375" width="136.21875" y="0" x="0" class="er entityBox"/><text style="dominant-baseline: middle; text-anchor: middle; font-size: 12px;" transform="translate(68.109375,12)" y="0" x="0" id="text-entity-Asesor-aa43a384-60d6-5523-aa0f-6d363300ae14" class="er entityLabel">Asesor</text><rect height="22.091796875" width="36.53125" y="24" x="0" class="er attributeBoxOdd"/><text style="dominant-baseline: middle; font-size: 10.2px;" transform="translate(5,35.0458984375)" y="0" x="0" id="text-entity-Asesor-aa43a384-60d6-5523-aa0f-6d363300ae14-attr-1-type" class="er entityLabel">Int</text><rect height="22.091796875" width="99.6875" y="24" x="36.53125" class="er attributeBoxOdd"/><text style="dominant-baseline: middle; font-size: 10.2px;" transform="translate(41.53125,35.0458984375)" y="0" x="0" id="text-entity-Asesor-aa43a384-60d6-5523-aa0f-6d363300ae14-attr-1-name" class="er entityLabel">codigo_de_profesor</text><rect height="22.091796875" width="36.53125" y="46.091796875" x="0" class="er attributeBoxEven"/><text style="dominant-baseline: middle; font-size: 10.2px;" transform="translate(5,57.1376953125)" y="0" x="0" id="text-entity-Asesor-aa43a384-60d6-5523-aa0f-6d363300ae14-attr-2-type" class="er entityLabel">String</text><rect height="22.091796875" width="99.6875" y="46.091796875" x="36.53125" class="er attributeBoxEven"/><text style="dominant-baseline: middle; font-size: 10.2px;" transform="translate(41.53125,57.1376953125)" y="0" x="0" id="text-entity-Asesor-aa43a384-60d6-5523-aa0f-6d363300ae14-attr-2-name" class="er entityLabel">departamento</text></g><g transform="translate(369.78125,861.009765625 )" id="entity-Proyecto-d9d064be-1059-5539-be89-7894dbd50225"><rect height="200.64257907867432" width="174.078125" y="0" x="0" class="er entityBox"/><text style="dominant-baseline: middle; text-anchor: middle; font-size: 12px;" transform="translate(87.0390625,12)" y="0" x="0" id="text-entity-Proyecto-d9d064be-1059-5539-be89-7894dbd50225" class="er entityLabel">Proyecto</text><rect height="22" width="71.1875" y="24" x="0" class="er attributeBoxOdd"/><text style="dominant-baseline: middle; font-size: 10.2px;" transform="translate(5,35)" y="0" x="0" id="text-entity-Proyecto-d9d064be-1059-5539-be89-7894dbd50225-attr-1-type" class="er entityLabel">INT</text><rect height="22" width="102.890625" y="24" x="71.1875" class="er attributeBoxOdd"/><text style="dominant-baseline: middle; font-size: 10.2px;" transform="translate(76.1875,35)" y="0" x="0" id="text-entity-Proyecto-d9d064be-1059-5539-be89-7894dbd50225-attr-1-name" class="er entityLabel">ID</text><rect height="22.091796875" width="71.1875" y="46" x="0" class="er attributeBoxEven"/><text style="dominant-baseline: middle; font-size: 10.2px;" transform="translate(5,57.0458984375)" y="0" x="0" id="text-entity-Proyecto-d9d064be-1059-5539-be89-7894dbd50225-attr-2-type" class="er entityLabel">String</text><rect height="22.091796875" width="102.890625" y="46" x="71.1875" class="er attributeBoxEven"/><text style="dominant-baseline: middle; font-size: 10.2px;" transform="translate(76.1875,57.0458984375)" y="0" x="0" id="text-entity-Proyecto-d9d064be-1059-5539-be89-7894dbd50225-attr-2-name" class="er entityLabel">nombre</text><rect height="22.091796875" width="71.1875" y="68.091796875" x="0" class="er attributeBoxOdd"/><text style="dominant-baseline: middle; font-size: 10.2px;" transform="translate(5,79.1376953125)" y="0" x="0" id="text-entity-Proyecto-d9d064be-1059-5539-be89-7894dbd50225-attr-3-type" class="er entityLabel">String</text><rect height="22.091796875" width="102.890625" y="68.091796875" x="71.1875" class="er attributeBoxOdd"/><text style="dominant-baseline: middle; font-size: 10.2px;" transform="translate(76.1875,79.1376953125)" y="0" x="0" id="text-entity-Proyecto-d9d064be-1059-5539-be89-7894dbd50225-attr-3-name" class="er entityLabel">descripcion</text><rect height="22.091797828674316" width="71.1875" y="90.18359375" x="0" class="er attributeBoxEven"/><text style="dominant-baseline: middle; font-size: 10.2px;" transform="translate(5,101.22949266433716)" y="0" x="0" id="text-entity-Proyecto-d9d064be-1059-5539-be89-7894dbd50225-attr-4-type" class="er entityLabel">Estudiante[3]</text><rect height="22.091797828674316" width="102.890625" y="90.18359375" x="71.1875" class="er attributeBoxEven"/><text style="dominant-baseline: middle; font-size: 10.2px;" transform="translate(76.1875,101.22949266433716)" y="0" x="0" id="text-entity-Proyecto-d9d064be-1059-5539-be89-7894dbd50225-attr-4-name" class="er entityLabel">integrantes</text><rect height="22.091796875" width="71.1875" y="112.27539157867432" x="0" class="er attributeBoxOdd"/><text style="dominant-baseline: middle; font-size: 10.2px;" transform="translate(5,123.32129001617432)" y="0" x="0" id="text-entity-Proyecto-d9d064be-1059-5539-be89-7894dbd50225-attr-5-type" class="er entityLabel">Asesor[]</text><rect height="22.091796875" width="102.890625" y="112.27539157867432" x="71.1875" class="er attributeBoxOdd"/><text style="dominant-baseline: middle; font-size: 10.2px;" transform="translate(76.1875,123.32129001617432)" y="0" x="0" id="text-entity-Proyecto-d9d064be-1059-5539-be89-7894dbd50225-attr-5-name" class="er entityLabel">asesores</text><rect height="22.091796875" width="71.1875" y="134.36718845367432" x="0" class="er attributeBoxEven"/><text style="dominant-baseline: middle; font-size: 10.2px;" transform="translate(5,145.41308689117432)" y="0" x="0" id="text-entity-Proyecto-d9d064be-1059-5539-be89-7894dbd50225-attr-6-type" class="er entityLabel">String[]</text><rect height="22.091796875" width="102.890625" y="134.36718845367432" x="71.1875" class="er attributeBoxEven"/><text style="dominant-baseline: middle; font-size: 10.2px;" transform="translate(76.1875,145.41308689117432)" y="0" x="0" id="text-entity-Proyecto-d9d064be-1059-5539-be89-7894dbd50225-attr-6-name" class="er entityLabel">conocimientos</text><rect height="22.091796875" width="71.1875" y="156.45898532867432" x="0" class="er attributeBoxOdd"/><text style="dominant-baseline: middle; font-size: 10.2px;" transform="translate(5,167.50488376617432)" y="0" x="0" id="text-entity-Proyecto-d9d064be-1059-5539-be89-7894dbd50225-attr-7-type" class="er entityLabel">String</text><rect height="22.091796875" width="102.890625" y="156.45898532867432" x="71.1875" class="er attributeBoxOdd"/><text style="dominant-baseline: middle; font-size: 10.2px;" transform="translate(76.1875,167.50488376617432)" y="0" x="0" id="text-entity-Proyecto-d9d064be-1059-5539-be89-7894dbd50225-attr-7-name" class="er entityLabel">nivel_de_innovacion</text><rect height="22.091796875" width="71.1875" y="178.55078220367432" x="0" class="er attributeBoxEven"/><text style="dominant-baseline: middle; font-size: 10.2px;" transform="translate(5,189.59668064117432)" y="0" x="0" id="text-entity-Proyecto-d9d064be-1059-5539-be89-7894dbd50225-attr-8-type" class="er entityLabel">String</text><rect height="22.091796875" width="102.890625" y="178.55078220367432" x="71.1875" class="er attributeBoxEven"/><text style="dominant-baseline: middle; font-size: 10.2px;" transform="translate(76.1875,189.59668064117432)" y="0" x="0" id="text-entity-Proyecto-d9d064be-1059-5539-be89-7894dbd50225-attr-8-name" class="er entityLabel">logo</text></g><g transform="translate(43.3125,20 )" id="entity-Lider-ca25c89a-d6d1-5805-a010-196ed6a54965"><rect height="75" width="100" y="0" x="0" class="er entityBox"/><text style="dominant-baseline: middle; text-anchor: middle; font-size: 12px;" transform="translate(50,37.5)" y="0" x="0" id="text-entity-Lider-ca25c89a-d6d1-5805-a010-196ed6a54965" class="er entityLabel">Lider</text></g><g transform="translate(243.3125,195 )" id="entity-Integrante-c2373578-4cd2-54dd-9caf-86c9e6cd6b7a"><rect height="75" width="100" y="0" x="0" class="er entityBox"/><text style="dominant-baseline: middle; text-anchor: middle; font-size: 12px;" transform="translate(50,37.5)" y="0" x="0" id="text-entity-Integrante-c2373578-4cd2-54dd-9caf-86c9e6cd6b7a" class="er entityLabel">Integrante</text></g><rect height="14" width="35.59375" y="804.010009765625" x="439.02313232421875" class="er relationshipLabelBox"/><text style="text-anchor: middle; dominant-baseline: middle; font-size: 12px;" y="811.010009765625" x="456.82000732421875" id="rel1" class="er relationshipLabel">Se une</text><rect height="14" width="94.78125" y="620.6434326171875" x="-140.73462677001953" class="er relationshipLabelBox"/><text style="text-anchor: middle; dominant-baseline: middle; font-size: 12px;" y="627.6434326171875" x="-93.34400177001953" id="rel2" class="er relationshipLabel">Crea y administra</text><rect height="14" width="99.984375" y="225.09959411621094" x="-6.679103851318359" class="er relationshipLabelBox"/><text style="text-anchor: middle; dominant-baseline: middle; font-size: 12px;" y="232.09959411621094" x="43.31308364868164" id="rel3" class="er relationshipLabel">Agrega o elimina a</text><rect height="14" width="81.21875" y="151.34146118164062" x="130.10906982421875" class="er relationshipLabelBox"/><text style="text-anchor: middle; dominant-baseline: middle; font-size: 12px;" y="158.34146118164062" x="170.71844482421875" id="rel4" class="er relationshipLabel">Asigna tareas a</text><rect height="14" width="11.296875" y="105.72774505615234" x="278.5613708496094" class="er relationshipLabelBox"/><text style="text-anchor: middle; dominant-baseline: middle; font-size: 12px;" y="112.72774505615234" x="284.2098083496094" id="rel5" class="er relationshipLabel">Es</text><rect height="14" width="11.296875" y="299.333984375" x="165.70150756835938" class="er relationshipLabelBox"/><text style="text-anchor: middle; dominant-baseline: middle; font-size: 12px;" y="306.333984375" x="171.34994506835938" id="rel6" class="er relationshipLabel">Es</text><rect height="14" width="49.578125" y="580.656494140625" x="268.52392578125" class="er relationshipLabelBox"/><text style="text-anchor: middle; dominant-baseline: middle; font-size: 12px;" y="587.656494140625" x="293.31298828125" id="rel7" class="er relationshipLabel">Petenece</text><rect height="14" width="135.03125" y="476.6089782714844" x="552.8123779296875" class="er relationshipLabelBox"/><text style="text-anchor: middle; dominant-baseline: middle; font-size: 12px;" y="483.6089782714844" x="620.3280029296875" id="rel8" class="er relationshipLabel">Administra sus tareas del</text><rect height="14" width="11.296875" y="557.4143676757812" x="222.2500457763672" class="er relationshipLabelBox"/><text style="text-anchor: middle; dominant-baseline: middle; font-size: 12px;" y="564.4143676757812" x="227.8984832763672" id="rel9" class="er relationshipLabel">Es</text><rect height="14" width="117.515625" y="163.30519104003906" x="460.1663818359375" class="er relationshipLabelBox"/><text style="text-anchor: middle; dominant-baseline: middle; font-size: 12px;" y="170.30519104003906" x="518.9241943359375" id="rel10" class="er relationshipLabel">Agenda reuniones con</text><rect height="14" width="11.296875" y="400.33941650390625" x="714.6795654296875" class="er relationshipLabelBox"/><text style="text-anchor: middle; dominant-baseline: middle; font-size: 12px;" y="407.33941650390625" x="720.3280029296875" id="rel11" class="er relationshipLabel">Es</text><rect height="14" width="54.234375" y="567.693359375" x="793.2108154296875" class="er relationshipLabelBox"/><text style="text-anchor: middle; dominant-baseline: middle; font-size: 12px;" y="574.693359375" x="820.3280029296875" id="rel12" class="er relationshipLabel">Pertenece</text><text class="entityTitleText" y="-25" x="353.35528564453125" text-anchor="middle">Diagrama Entidad-Relación de Link Project</text></svg>