<svg aria-roledescription="er" role="graphics-document document" viewBox="0 0 566.984375 408.642578125" style="max-width: 566.984px; background-color: white;" xmlns:xlink="http://www.w3.org/1999/xlink" xmlns="http://www.w3.org/2000/svg" width="100%" id="my-svg"><style>#my-svg{font-family:"trebuchet ms",verdana,arial,sans-serif;font-size:16px;fill:#333;}#my-svg .error-icon{fill:#552222;}#my-svg .error-text{fill:#552222;stroke:#552222;}#my-svg .edge-thickness-normal{stroke-width:1px;}#my-svg .edge-thickness-thick{stroke-width:3.5px;}#my-svg .edge-pattern-solid{stroke-dasharray:0;}#my-svg .edge-thickness-invisible{stroke-width:0;fill:none;}#my-svg .edge-pattern-dashed{stroke-dasharray:3;}#my-svg .edge-pattern-dotted{stroke-dasharray:2;}#my-svg .marker{fill:#333333;stroke:#333333;}#my-svg .marker.cross{stroke:#333333;}#my-svg svg{font-family:"trebuchet ms",verdana,arial,sans-serif;font-size:16px;}#my-svg p{margin:0;}#my-svg .entityBox{fill:#ECECFF;stroke:#9370DB;}#my-svg .attributeBoxOdd{fill:#ffffff;stroke:#9370DB;}#my-svg .attributeBoxEven{fill:#f2f2f2;stroke:#9370DB;}#my-svg .relationshipLabelBox{fill:hsl(80, 100%, 96.2745098039%);opacity:0.7;background-color:hsl(80, 100%, 96.2745098039%);}#my-svg .relationshipLabelBox rect{opacity:0.5;}#my-svg .relationshipLine{stroke:#333333;}#my-svg .entityTitleText{text-anchor:middle;font-size:18px;fill:#333;}#my-svg #MD_PARENT_START{fill:#f5f5f5!important;stroke:#333333!important;stroke-width:1;}#my-svg #MD_PARENT_END{fill:#f5f5f5!important;stroke:#333333!important;stroke-width:1;}#my-svg :root{--mermaid-font-family:"trebuchet ms",verdana,arial,sans-serif;}</style><g/><defs><marker orient="auto" markerHeight="240" markerWidth="190" refY="7" refX="0" id="MD_PARENT_START"><path d="M 18,7 L9,13 L1,7 L9,1 Z"/></marker></defs><defs><marker orient="auto" markerHeight="28" markerWidth="20" refY="7" refX="19" id="MD_PARENT_END"><path d="M 18,7 L9,13 L1,7 L9,1 Z"/></marker></defs><defs><marker orient="auto" markerHeight="18" markerWidth="18" refY="9" refX="0" id="ONLY_ONE_START"><path d="M9,0 L9,18 M15,0 L15,18" fill="none" stroke="gray"/></marker></defs><defs><marker orient="auto" markerHeight="18" markerWidth="18" refY="9" refX="18" id="ONLY_ONE_END"><path d="M3,0 L3,18 M9,0 L9,18" fill="none" stroke="gray"/></marker></defs><defs><marker orient="auto" markerHeight="18" markerWidth="30" refY="9" refX="0" id="ZERO_OR_ONE_START"><circle r="6" cy="9" cx="21" fill="white" stroke="gray"/><path d="M9,0 L9,18" fill="none" stroke="gray"/></marker></defs><defs><marker orient="auto" markerHeight="18" markerWidth="30" refY="9" refX="30" id="ZERO_OR_ONE_END"><circle r="6" cy="9" cx="9" fill="white" stroke="gray"/><path d="M21,0 L21,18" fill="none" stroke="gray"/></marker></defs><defs><marker orient="auto" markerHeight="36" markerWidth="45" refY="18" refX="18" id="ONE_OR_MORE_START"><path d="M0,18 Q 18,0 36,18 Q 18,36 0,18 M42,9 L42,27" fill="none" stroke="gray"/></marker></defs><defs><marker orient="auto" markerHeight="36" markerWidth="45" refY="18" refX="27" id="ONE_OR_MORE_END"><path d="M3,9 L3,27 M9,18 Q27,0 45,18 Q27,36 9,18" fill="none" stroke="gray"/></marker></defs><defs><marker orient="auto" markerHeight="36" markerWidth="57" refY="18" refX="18" id="ZERO_OR_MORE_START"><circle r="6" cy="18" cx="48" fill="white" stroke="gray"/><path d="M0,18 Q18,0 36,18 Q18,36 0,18" fill="none" stroke="gray"/></marker></defs><defs><marker orient="auto" markerHeight="36" markerWidth="57" refY="18" refX="39" id="ZERO_OR_MORE_END"><circle r="6" cy="18" cx="9" fill="white" stroke="gray"/><path d="M21,18 Q39,0 57,18 Q39,36 21,18" fill="none" stroke="gray"/></marker></defs><path style="stroke: gray; fill: none;" marker-start="url(#ONLY_ONE_START)" marker-end="url(#ONE_OR_MORE_END)" d="M270,97.365L236.667,111.517C203.333,125.669,136.667,153.972,103.333,176.457C70,198.942,70,215.609,70,223.942L70,232.275" class="er relationshipLine"/><path style="stroke: gray; fill: none;" marker-start="url(#ONLY_ONE_START)" marker-end="url(#ONE_OR_MORE_END)" d="M293.554,132.275L289.629,140.609C285.703,148.942,277.851,165.609,273.926,184.116C270,202.624,270,222.973,270,233.147L270,243.321" class="er relationshipLine"/><path style="stroke: gray; fill: none;" marker-start="url(#ONLY_ONE_START)" marker-end="url(#ONE_OR_MORE_END)" d="M370,125.853L379.458,135.256C388.915,144.66,407.831,163.468,420.984,181.22C434.138,198.973,441.53,215.67,445.226,224.019L448.921,232.367" class="er relationshipLine"/><path style="stroke: gray; fill: none;" marker-start="url(#ONLY_ONE_START)" marker-end="url(#ONE_OR_MORE_END)" d="M370,100.995L397.249,114.542C424.497,128.089,478.995,155.182,502.987,177.077C526.979,198.973,520.466,215.67,517.21,224.019L513.953,232.367" class="er relationshipLine"/><g transform="translate(270,20 )" id="entity-User-818c511a-4a32-5484-ba70-875d765a9175"><rect height="112.27539348602295" width="100" y="0" x="0" class="er entityBox"/><text style="dominant-baseline: middle; text-anchor: middle; font-size: 12px;" transform="translate(50,12)" y="0" x="0" id="text-entity-User-818c511a-4a32-5484-ba70-875d765a9175" class="er entityLabel">User</text><rect height="22" width="41.8671875" y="24" x="0" class="er attributeBoxOdd"/><text style="dominant-baseline: middle; font-size: 10.2px;" transform="translate(5,35)" y="0" x="0" id="text-entity-User-818c511a-4a32-5484-ba70-875d765a9175-attr-1-type" class="er entityLabel">int</text><rect height="22" width="58.1328125" y="24" x="41.8671875" class="er attributeBoxOdd"/><text style="dominant-baseline: middle; font-size: 10.2px;" transform="translate(46.8671875,35)" y="0" x="0" id="text-entity-User-818c511a-4a32-5484-ba70-875d765a9175-attr-1-name" class="er entityLabel">id</text><rect height="22.091797828674316" width="41.8671875" y="46" x="0" class="er attributeBoxEven"/><text style="dominant-baseline: middle; font-size: 10.2px;" transform="translate(5,57.04589891433716)" y="0" x="0" id="text-entity-User-818c511a-4a32-5484-ba70-875d765a9175-attr-2-type" class="er entityLabel">string</text><rect height="22.091797828674316" width="58.1328125" y="46" x="41.8671875" class="er attributeBoxEven"/><text style="dominant-baseline: middle; font-size: 10.2px;" transform="translate(46.8671875,57.04589891433716)" y="0" x="0" id="text-entity-User-818c511a-4a32-5484-ba70-875d765a9175-attr-2-name" class="er entityLabel">name</text><rect height="22.091797828674316" width="41.8671875" y="68.09179782867432" x="0" class="er attributeBoxOdd"/><text style="dominant-baseline: middle; font-size: 10.2px;" transform="translate(5,79.13769674301147)" y="0" x="0" id="text-entity-User-818c511a-4a32-5484-ba70-875d765a9175-attr-3-type" class="er entityLabel">string</text><rect height="22.091797828674316" width="58.1328125" y="68.09179782867432" x="41.8671875" class="er attributeBoxOdd"/><text style="dominant-baseline: middle; font-size: 10.2px;" transform="translate(46.8671875,79.13769674301147)" y="0" x="0" id="text-entity-User-818c511a-4a32-5484-ba70-875d765a9175-attr-3-name" class="er entityLabel">email</text><rect height="22.091797828674316" width="41.8671875" y="90.18359565734863" x="0" class="er attributeBoxEven"/><text style="dominant-baseline: middle; font-size: 10.2px;" transform="translate(5,101.22949457168579)" y="0" x="0" id="text-entity-User-818c511a-4a32-5484-ba70-875d765a9175-attr-4-type" class="er entityLabel">string</text><rect height="22.091797828674316" width="58.1328125" y="90.18359565734863" x="41.8671875" class="er attributeBoxEven"/><text style="dominant-baseline: middle; font-size: 10.2px;" transform="translate(46.8671875,101.22949457168579)" y="0" x="0" id="text-entity-User-818c511a-4a32-5484-ba70-875d765a9175-attr-4-name" class="er entityLabel">password</text></g><g transform="translate(20,232.275390625 )" id="entity-Dog-a987c8d5-d7c9-54b8-beb6-a3c5364a9688"><rect height="156.36719036102295" width="100" y="0" x="0" class="er entityBox"/><text style="dominant-baseline: middle; text-anchor: middle; font-size: 12px;" transform="translate(50,12)" y="0" x="0" id="text-entity-Dog-a987c8d5-d7c9-54b8-beb6-a3c5364a9688" class="er entityLabel">Dog</text><rect height="22" width="37.3828125" y="24" x="0" class="er attributeBoxOdd"/><text style="dominant-baseline: middle; font-size: 10.2px;" transform="translate(5,35)" y="0" x="0" id="text-entity-Dog-a987c8d5-d7c9-54b8-beb6-a3c5364a9688-attr-1-type" class="er entityLabel">int</text><rect height="22" width="62.6171875" y="24" x="37.3828125" class="er attributeBoxOdd"/><text style="dominant-baseline: middle; font-size: 10.2px;" transform="translate(42.3828125,35)" y="0" x="0" id="text-entity-Dog-a987c8d5-d7c9-54b8-beb6-a3c5364a9688-attr-1-name" class="er entityLabel">id</text><rect height="22" width="37.3828125" y="46" x="0" class="er attributeBoxEven"/><text style="dominant-baseline: middle; font-size: 10.2px;" transform="translate(5,57)" y="0" x="0" id="text-entity-Dog-a987c8d5-d7c9-54b8-beb6-a3c5364a9688-attr-2-type" class="er entityLabel">int</text><rect height="22" width="62.6171875" y="46" x="37.3828125" class="er attributeBoxEven"/><text style="dominant-baseline: middle; font-size: 10.2px;" transform="translate(42.3828125,57)" y="0" x="0" id="text-entity-Dog-a987c8d5-d7c9-54b8-beb6-a3c5364a9688-attr-2-name" class="er entityLabel">owner_id</text><rect height="22.091797828674316" width="37.3828125" y="68" x="0" class="er attributeBoxOdd"/><text style="dominant-baseline: middle; font-size: 10.2px;" transform="translate(5,79.04589891433716)" y="0" x="0" id="text-entity-Dog-a987c8d5-d7c9-54b8-beb6-a3c5364a9688-attr-3-type" class="er entityLabel">string</text><rect height="22.091797828674316" width="62.6171875" y="68" x="37.3828125" class="er attributeBoxOdd"/><text style="dominant-baseline: middle; font-size: 10.2px;" transform="translate(42.3828125,79.04589891433716)" y="0" x="0" id="text-entity-Dog-a987c8d5-d7c9-54b8-beb6-a3c5364a9688-attr-3-name" class="er entityLabel">name</text><rect height="22.091797828674316" width="37.3828125" y="90.09179782867432" x="0" class="er attributeBoxEven"/><text style="dominant-baseline: middle; font-size: 10.2px;" transform="translate(5,101.13769674301147)" y="0" x="0" id="text-entity-Dog-a987c8d5-d7c9-54b8-beb6-a3c5364a9688-attr-4-type" class="er entityLabel">string</text><rect height="22.091797828674316" width="62.6171875" y="90.09179782867432" x="37.3828125" class="er attributeBoxEven"/><text style="dominant-baseline: middle; font-size: 10.2px;" transform="translate(42.3828125,101.13769674301147)" y="0" x="0" id="text-entity-Dog-a987c8d5-d7c9-54b8-beb6-a3c5364a9688-attr-4-name" class="er entityLabel">breed</text><rect height="22.091796875" width="37.3828125" y="112.18359565734863" x="0" class="er attributeBoxOdd"/><text style="dominant-baseline: middle; font-size: 10.2px;" transform="translate(5,123.22949409484863)" y="0" x="0" id="text-entity-Dog-a987c8d5-d7c9-54b8-beb6-a3c5364a9688-attr-5-type" class="er entityLabel">int</text><rect height="22.091796875" width="62.6171875" y="112.18359565734863" x="37.3828125" class="er attributeBoxOdd"/><text style="dominant-baseline: middle; font-size: 10.2px;" transform="translate(42.3828125,123.22949409484863)" y="0" x="0" id="text-entity-Dog-a987c8d5-d7c9-54b8-beb6-a3c5364a9688-attr-5-name" class="er entityLabel">age</text><rect height="22.091797828674316" width="37.3828125" y="134.27539253234863" x="0" class="er attributeBoxEven"/><text style="dominant-baseline: middle; font-size: 10.2px;" transform="translate(5,145.3212914466858)" y="0" x="0" id="text-entity-Dog-a987c8d5-d7c9-54b8-beb6-a3c5364a9688-attr-6-type" class="er entityLabel">sting</text><rect height="22.091797828674316" width="62.6171875" y="134.27539253234863" x="37.3828125" class="er attributeBoxEven"/><text style="dominant-baseline: middle; font-size: 10.2px;" transform="translate(42.3828125,145.3212914466858)" y="0" x="0" id="text-entity-Dog-a987c8d5-d7c9-54b8-beb6-a3c5364a9688-attr-6-name" class="er entityLabel">description</text></g><g transform="translate(220,243.3212890625 )" id="entity-Comment-09a819da-2a79-5b7d-8a84-94cec22d9152"><rect height="134.27539253234863" width="100" y="0" x="0" class="er entityBox"/><text style="dominant-baseline: middle; text-anchor: middle; font-size: 12px;" transform="translate(50,12)" y="0" x="0" id="text-entity-Comment-09a819da-2a79-5b7d-8a84-94cec22d9152" class="er entityLabel">Comment</text><rect height="22" width="41.5546875" y="24" x="0" class="er attributeBoxOdd"/><text style="dominant-baseline: middle; font-size: 10.2px;" transform="translate(5,35)" y="0" x="0" id="text-entity-Comment-09a819da-2a79-5b7d-8a84-94cec22d9152-attr-1-type" class="er entityLabel">int</text><rect height="22" width="58.4453125" y="24" x="41.5546875" class="er attributeBoxOdd"/><text style="dominant-baseline: middle; font-size: 10.2px;" transform="translate(46.5546875,35)" y="0" x="0" id="text-entity-Comment-09a819da-2a79-5b7d-8a84-94cec22d9152-attr-1-name" class="er entityLabel">id</text><rect height="22.091796875" width="41.5546875" y="46" x="0" class="er attributeBoxEven"/><text style="dominant-baseline: middle; font-size: 10.2px;" transform="translate(5,57.0458984375)" y="0" x="0" id="text-entity-Comment-09a819da-2a79-5b7d-8a84-94cec22d9152-attr-2-type" class="er entityLabel">int</text><rect height="22.091796875" width="58.4453125" y="46" x="41.5546875" class="er attributeBoxEven"/><text style="dominant-baseline: middle; font-size: 10.2px;" transform="translate(46.5546875,57.0458984375)" y="0" x="0" id="text-entity-Comment-09a819da-2a79-5b7d-8a84-94cec22d9152-attr-2-name" class="er entityLabel">dog_id</text><rect height="22" width="41.5546875" y="68.091796875" x="0" class="er attributeBoxOdd"/><text style="dominant-baseline: middle; font-size: 10.2px;" transform="translate(5,79.091796875)" y="0" x="0" id="text-entity-Comment-09a819da-2a79-5b7d-8a84-94cec22d9152-attr-3-type" class="er entityLabel">int</text><rect height="22" width="58.4453125" y="68.091796875" x="41.5546875" class="er attributeBoxOdd"/><text style="dominant-baseline: middle; font-size: 10.2px;" transform="translate(46.5546875,79.091796875)" y="0" x="0" id="text-entity-Comment-09a819da-2a79-5b7d-8a84-94cec22d9152-attr-3-name" class="er entityLabel">sitter_id</text><rect height="22.091797828674316" width="41.5546875" y="90.091796875" x="0" class="er attributeBoxEven"/><text style="dominant-baseline: middle; font-size: 10.2px;" transform="translate(5,101.13769578933716)" y="0" x="0" id="text-entity-Comment-09a819da-2a79-5b7d-8a84-94cec22d9152-attr-4-type" class="er entityLabel">int</text><rect height="22.091797828674316" width="58.4453125" y="90.091796875" x="41.5546875" class="er attributeBoxEven"/><text style="dominant-baseline: middle; font-size: 10.2px;" transform="translate(46.5546875,101.13769578933716)" y="0" x="0" id="text-entity-Comment-09a819da-2a79-5b7d-8a84-94cec22d9152-attr-4-name" class="er entityLabel">rating</text><rect height="22.091797828674316" width="41.5546875" y="112.18359470367432" x="0" class="er attributeBoxOdd"/><text style="dominant-baseline: middle; font-size: 10.2px;" transform="translate(5,123.22949361801147)" y="0" x="0" id="text-entity-Comment-09a819da-2a79-5b7d-8a84-94cec22d9152-attr-5-type" class="er entityLabel">string</text><rect height="22.091797828674316" width="58.4453125" y="112.18359470367432" x="41.5546875" class="er attributeBoxOdd"/><text style="dominant-baseline: middle; font-size: 10.2px;" transform="translate(46.5546875,123.22949361801147)" y="0" x="0" id="text-entity-Comment-09a819da-2a79-5b7d-8a84-94cec22d9152-attr-5-name" class="er entityLabel">comment</text></g><g transform="translate(420,232.3671875 )" id="entity-DogSittingRequest-fbd60c3a-1a4c-5383-8073-8f635ae03bcc"><rect height="156.18359375" width="126.984375" y="0" x="0" class="er entityBox"/><text style="dominant-baseline: middle; text-anchor: middle; font-size: 12px;" transform="translate(63.4921875,12)" y="0" x="0" id="text-entity-DogSittingRequest-fbd60c3a-1a4c-5383-8073-8f635ae03bcc" class="er entityLabel">DogSittingRequest</text><rect height="22" width="64.328125" y="24" x="0" class="er attributeBoxOdd"/><text style="dominant-baseline: middle; font-size: 10.2px;" transform="translate(5,35)" y="0" x="0" id="text-entity-DogSittingRequest-fbd60c3a-1a4c-5383-8073-8f635ae03bcc-attr-1-type" class="er entityLabel">int</text><rect height="22" width="62.65625" y="24" x="64.328125" class="er attributeBoxOdd"/><text style="dominant-baseline: middle; font-size: 10.2px;" transform="translate(69.328125,35)" y="0" x="0" id="text-entity-DogSittingRequest-fbd60c3a-1a4c-5383-8073-8f635ae03bcc-attr-1-name" class="er entityLabel">id</text><rect height="22.091796875" width="64.328125" y="46" x="0" class="er attributeBoxEven"/><text style="dominant-baseline: middle; font-size: 10.2px;" transform="translate(5,57.0458984375)" y="0" x="0" id="text-entity-DogSittingRequest-fbd60c3a-1a4c-5383-8073-8f635ae03bcc-attr-2-type" class="er entityLabel">int</text><rect height="22.091796875" width="62.65625" y="46" x="64.328125" class="er attributeBoxEven"/><text style="dominant-baseline: middle; font-size: 10.2px;" transform="translate(69.328125,57.0458984375)" y="0" x="0" id="text-entity-DogSittingRequest-fbd60c3a-1a4c-5383-8073-8f635ae03bcc-attr-2-name" class="er entityLabel">dog_id</text><rect height="22" width="64.328125" y="68.091796875" x="0" class="er attributeBoxOdd"/><text style="dominant-baseline: middle; font-size: 10.2px;" transform="translate(5,79.091796875)" y="0" x="0" id="text-entity-DogSittingRequest-fbd60c3a-1a4c-5383-8073-8f635ae03bcc-attr-3-type" class="er entityLabel">int</text><rect height="22" width="62.65625" y="68.091796875" x="64.328125" class="er attributeBoxOdd"/><text style="dominant-baseline: middle; font-size: 10.2px;" transform="translate(69.328125,79.091796875)" y="0" x="0" id="text-entity-DogSittingRequest-fbd60c3a-1a4c-5383-8073-8f635ae03bcc-attr-3-name" class="er entityLabel">sitter_id</text><rect height="22" width="64.328125" y="90.091796875" x="0" class="er attributeBoxEven"/><text style="dominant-baseline: middle; font-size: 10.2px;" transform="translate(5,101.091796875)" y="0" x="0" id="text-entity-DogSittingRequest-fbd60c3a-1a4c-5383-8073-8f635ae03bcc-attr-4-type" class="er entityLabel">DateTime</text><rect height="22" width="62.65625" y="90.091796875" x="64.328125" class="er attributeBoxEven"/><text style="dominant-baseline: middle; font-size: 10.2px;" transform="translate(69.328125,101.091796875)" y="0" x="0" id="text-entity-DogSittingRequest-fbd60c3a-1a4c-5383-8073-8f635ae03bcc-attr-4-name" class="er entityLabel">start</text><rect height="22" width="64.328125" y="112.091796875" x="0" class="er attributeBoxOdd"/><text style="dominant-baseline: middle; font-size: 10.2px;" transform="translate(5,123.091796875)" y="0" x="0" id="text-entity-DogSittingRequest-fbd60c3a-1a4c-5383-8073-8f635ae03bcc-attr-5-type" class="er entityLabel">DateTime</text><rect height="22" width="62.65625" y="112.091796875" x="64.328125" class="er attributeBoxOdd"/><text style="dominant-baseline: middle; font-size: 10.2px;" transform="translate(69.328125,123.091796875)" y="0" x="0" id="text-entity-DogSittingRequest-fbd60c3a-1a4c-5383-8073-8f635ae03bcc-attr-5-name" class="er entityLabel">end</text><rect height="22.091796875" width="64.328125" y="134.091796875" x="0" class="er attributeBoxEven"/><text style="dominant-baseline: middle; font-size: 10.2px;" transform="translate(5,145.1376953125)" y="0" x="0" id="text-entity-DogSittingRequest-fbd60c3a-1a4c-5383-8073-8f635ae03bcc-attr-6-type" class="er entityLabel">boolean</text><rect height="22.091796875" width="62.65625" y="134.091796875" x="64.328125" class="er attributeBoxEven"/><text style="dominant-baseline: middle; font-size: 10.2px;" transform="translate(69.328125,145.1376953125)" y="0" x="0" id="text-entity-DogSittingRequest-fbd60c3a-1a4c-5383-8073-8f635ae03bcc-attr-6-name" class="er entityLabel">accepted</text></g><rect height="14" width="26.796875" y="141.51480102539062" x="140.5282745361328" class="er relationshipLabelBox"/><text style="text-anchor: middle; dominant-baseline: middle; font-size: 12px;" y="148.51480102539062" x="153.9267120361328" id="rel1" class="er relationshipLabel">owns</text><rect height="14" width="39.625" y="179.01605224609375" x="253.72543334960938" class="er relationshipLabelBox"/><text style="text-anchor: middle; dominant-baseline: middle; font-size: 12px;" y="186.01605224609375" x="273.5379333496094" id="rel2" class="er relationshipLabel">creates</text><rect height="14" width="39.625" y="167.5323486328125" x="395.9974365234375" class="er relationshipLabelBox"/><text style="text-anchor: middle; dominant-baseline: middle; font-size: 12px;" y="174.5323486328125" x="415.8099365234375" id="rel3" class="er relationshipLabel">creates</text><rect height="14" width="41.046875" y="143.84326171875" x="444.9819641113281" class="er relationshipLabelBox"/><text style="text-anchor: middle; dominant-baseline: middle; font-size: 12px;" y="150.84326171875" x="465.5054016113281" id="rel4" class="er relationshipLabel">accepts</text></svg>