<svg aria-roledescription="er" role="graphics-document document" viewBox="0 -62 189.859375 470.91796875" style="max-width: 189.859px; background-color: white;" xmlns:xlink="http://www.w3.org/1999/xlink" xmlns="http://www.w3.org/2000/svg" width="100%" id="my-svg"><style>#my-svg{font-family:"trebuchet ms",verdana,arial,sans-serif;font-size:16px;fill:#333;}#my-svg .error-icon{fill:#552222;}#my-svg .error-text{fill:#552222;stroke:#552222;}#my-svg .edge-thickness-normal{stroke-width:1px;}#my-svg .edge-thickness-thick{stroke-width:3.5px;}#my-svg .edge-pattern-solid{stroke-dasharray:0;}#my-svg .edge-thickness-invisible{stroke-width:0;fill:none;}#my-svg .edge-pattern-dashed{stroke-dasharray:3;}#my-svg .edge-pattern-dotted{stroke-dasharray:2;}#my-svg .marker{fill:#333333;stroke:#333333;}#my-svg .marker.cross{stroke:#333333;}#my-svg svg{font-family:"trebuchet ms",verdana,arial,sans-serif;font-size:16px;}#my-svg p{margin:0;}#my-svg .entityBox{fill:#ECECFF;stroke:#9370DB;}#my-svg .attributeBoxOdd{fill:#ffffff;stroke:#9370DB;}#my-svg .attributeBoxEven{fill:#f2f2f2;stroke:#9370DB;}#my-svg .relationshipLabelBox{fill:hsl(80, 100%, 96.2745098039%);opacity:0.7;background-color:hsl(80, 100%, 96.2745098039%);}#my-svg .relationshipLabelBox rect{opacity:0.5;}#my-svg .relationshipLine{stroke:#333333;}#my-svg .entityTitleText{text-anchor:middle;font-size:18px;fill:#333;}#my-svg #MD_PARENT_START{fill:#f5f5f5!important;stroke:#333333!important;stroke-width:1;}#my-svg #MD_PARENT_END{fill:#f5f5f5!important;stroke:#333333!important;stroke-width:1;}#my-svg :root{--mermaid-font-family:"trebuchet ms",verdana,arial,sans-serif;}</style><g/><defs><marker orient="auto" markerHeight="240" markerWidth="190" refY="7" refX="0" id="MD_PARENT_START"><path d="M 18,7 L9,13 L1,7 L9,1 Z"/></marker></defs><defs><marker orient="auto" markerHeight="28" markerWidth="20" refY="7" refX="19" id="MD_PARENT_END"><path d="M 18,7 L9,13 L1,7 L9,1 Z"/></marker></defs><defs><marker orient="auto" markerHeight="18" markerWidth="18" refY="9" refX="0" id="ONLY_ONE_START"><path d="M9,0 L9,18 M15,0 L15,18" fill="none" stroke="gray"/></marker></defs><defs><marker orient="auto" markerHeight="18" markerWidth="18" refY="9" refX="18" id="ONLY_ONE_END"><path d="M3,0 L3,18 M9,0 L9,18" fill="none" stroke="gray"/></marker></defs><defs><marker orient="auto" markerHeight="18" markerWidth="30" refY="9" refX="0" id="ZERO_OR_ONE_START"><circle r="6" cy="9" cx="21" fill="white" stroke="gray"/><path d="M9,0 L9,18" fill="none" stroke="gray"/></marker></defs><defs><marker orient="auto" markerHeight="18" markerWidth="30" refY="9" refX="30" id="ZERO_OR_ONE_END"><circle r="6" cy="9" cx="9" fill="white" stroke="gray"/><path d="M21,0 L21,18" fill="none" stroke="gray"/></marker></defs><defs><marker orient="auto" markerHeight="36" markerWidth="45" refY="18" refX="18" id="ONE_OR_MORE_START"><path d="M0,18 Q 18,0 36,18 Q 18,36 0,18 M42,9 L42,27" fill="none" stroke="gray"/></marker></defs><defs><marker orient="auto" markerHeight="36" markerWidth="45" refY="18" refX="27" id="ONE_OR_MORE_END"><path d="M3,9 L3,27 M9,18 Q27,0 45,18 Q27,36 9,18" fill="none" stroke="gray"/></marker></defs><defs><marker orient="auto" markerHeight="36" markerWidth="57" refY="18" refX="18" id="ZERO_OR_MORE_START"><circle r="6" cy="18" cx="48" fill="white" stroke="gray"/><path d="M0,18 Q18,0 36,18 Q18,36 0,18" fill="none" stroke="gray"/></marker></defs><defs><marker orient="auto" markerHeight="36" markerWidth="57" refY="18" refX="39" id="ZERO_OR_MORE_END"><circle r="6" cy="18" cx="9" fill="white" stroke="gray"/><path d="M21,18 Q39,0 57,18 Q39,36 21,18" fill="none" stroke="gray"/></marker></defs><path style="stroke: gray; fill: none;" marker-start="url(#ONLY_ONE_START)" marker-end="url(#ZERO_OR_MORE_END)" d="M94.93,176.551L94.93,184.884C94.93,193.217,94.93,209.884,94.93,226.551C94.93,243.217,94.93,259.884,94.93,268.217L94.93,276.551" class="er relationshipLine"/><g transform="translate(20,20 )" id="entity-users-33ae1e26-be31-5c1d-bf65-e859e9d0308e"><rect height="156.55078125" width="149.859375" y="0" x="0" class="er entityBox"/><text style="dominant-baseline: middle; text-anchor: middle; font-size: 12px;" transform="translate(74.9296875,12)" y="0" x="0" id="text-entity-users-33ae1e26-be31-5c1d-bf65-e859e9d0308e" class="er entityLabel">users</text><rect height="22.091796875" width="36.53125" y="24" x="0" class="er attributeBoxOdd"/><text style="dominant-baseline: middle; font-size: 10.2px;" transform="translate(5,35.0458984375)" y="0" x="0" id="text-entity-users-33ae1e26-be31-5c1d-bf65-e859e9d0308e-attr-1-type" class="er entityLabel">String</text><rect height="22.091796875" width="113.328125" y="24" x="36.53125" class="er attributeBoxOdd"/><text style="dominant-baseline: middle; font-size: 10.2px;" transform="translate(41.53125,35.0458984375)" y="0" x="0" id="text-entity-users-33ae1e26-be31-5c1d-bf65-e859e9d0308e-attr-1-name" class="er entityLabel">userId</text><rect height="22.091796875" width="36.53125" y="46.091796875" x="0" class="er attributeBoxEven"/><text style="dominant-baseline: middle; font-size: 10.2px;" transform="translate(5,57.1376953125)" y="0" x="0" id="text-entity-users-33ae1e26-be31-5c1d-bf65-e859e9d0308e-attr-2-type" class="er entityLabel">String</text><rect height="22.091796875" width="113.328125" y="46.091796875" x="36.53125" class="er attributeBoxEven"/><text style="dominant-baseline: middle; font-size: 10.2px;" transform="translate(41.53125,57.1376953125)" y="0" x="0" id="text-entity-users-33ae1e26-be31-5c1d-bf65-e859e9d0308e-attr-2-name" class="er entityLabel">iamIssuer</text><rect height="22.091796875" width="36.53125" y="68.18359375" x="0" class="er attributeBoxOdd"/><text style="dominant-baseline: middle; font-size: 10.2px;" transform="translate(5,79.2294921875)" y="0" x="0" id="text-entity-users-33ae1e26-be31-5c1d-bf65-e859e9d0308e-attr-3-type" class="er entityLabel">String</text><rect height="22.091796875" width="113.328125" y="68.18359375" x="36.53125" class="er attributeBoxOdd"/><text style="dominant-baseline: middle; font-size: 10.2px;" transform="translate(41.53125,79.2294921875)" y="0" x="0" id="text-entity-users-33ae1e26-be31-5c1d-bf65-e859e9d0308e-attr-3-name" class="er entityLabel">mappedExternalUserId</text><rect height="22.091796875" width="36.53125" y="90.275390625" x="0" class="er attributeBoxEven"/><text style="dominant-baseline: middle; font-size: 10.2px;" transform="translate(5,101.3212890625)" y="0" x="0" id="text-entity-users-33ae1e26-be31-5c1d-bf65-e859e9d0308e-attr-4-type" class="er entityLabel">String</text><rect height="22.091796875" width="113.328125" y="90.275390625" x="36.53125" class="er attributeBoxEven"/><text style="dominant-baseline: middle; font-size: 10.2px;" transform="translate(41.53125,101.3212890625)" y="0" x="0" id="text-entity-users-33ae1e26-be31-5c1d-bf65-e859e9d0308e-attr-4-name" class="er entityLabel">userCode</text><rect height="22.091796875" width="36.53125" y="112.3671875" x="0" class="er attributeBoxOdd"/><text style="dominant-baseline: middle; font-size: 10.2px;" transform="translate(5,123.4130859375)" y="0" x="0" id="text-entity-users-33ae1e26-be31-5c1d-bf65-e859e9d0308e-attr-5-type" class="er entityLabel">Date</text><rect height="22.091796875" width="113.328125" y="112.3671875" x="36.53125" class="er attributeBoxOdd"/><text style="dominant-baseline: middle; font-size: 10.2px;" transform="translate(41.53125,123.4130859375)" y="0" x="0" id="text-entity-users-33ae1e26-be31-5c1d-bf65-e859e9d0308e-attr-5-name" class="er entityLabel">lastLogin</text><rect height="22.091796875" width="36.53125" y="134.458984375" x="0" class="er attributeBoxEven"/><text style="dominant-baseline: middle; font-size: 10.2px;" transform="translate(5,145.5048828125)" y="0" x="0" id="text-entity-users-33ae1e26-be31-5c1d-bf65-e859e9d0308e-attr-6-type" class="er entityLabel">String</text><rect height="22.091796875" width="113.328125" y="134.458984375" x="36.53125" class="er attributeBoxEven"/><text style="dominant-baseline: middle; font-size: 10.2px;" transform="translate(41.53125,145.5048828125)" y="0" x="0" id="text-entity-users-33ae1e26-be31-5c1d-bf65-e859e9d0308e-attr-6-name" class="er entityLabel">tosVersion</text></g><g transform="translate(21.265625,276.55078125 )" id="entity-operators-be0a7f6f-64c9-5c37-ac62-d6d900ddef48"><rect height="112.36718845367432" width="147.328125" y="0" x="0" class="er entityBox"/><text style="dominant-baseline: middle; text-anchor: middle; font-size: 12px;" transform="translate(73.6640625,12)" y="0" x="0" id="text-entity-operators-be0a7f6f-64c9-5c37-ac62-d6d900ddef48" class="er entityLabel">operators</text><rect height="22.091796875" width="44.015625" y="24" x="0" class="er attributeBoxOdd"/><text style="dominant-baseline: middle; font-size: 10.2px;" transform="translate(5,35.0458984375)" y="0" x="0" id="text-entity-operators-be0a7f6f-64c9-5c37-ac62-d6d900ddef48-attr-1-type" class="er entityLabel">String</text><rect height="22.091796875" width="103.3125" y="24" x="44.015625" class="er attributeBoxOdd"/><text style="dominant-baseline: middle; font-size: 10.2px;" transform="translate(49.015625,35.0458984375)" y="0" x="0" id="text-entity-operators-be0a7f6f-64c9-5c37-ac62-d6d900ddef48-attr-1-name" class="er entityLabel">operatorId</text><rect height="22.091796875" width="44.015625" y="46.091796875" x="0" class="er attributeBoxEven"/><text style="dominant-baseline: middle; font-size: 10.2px;" transform="translate(5,57.1376953125)" y="0" x="0" id="text-entity-operators-be0a7f6f-64c9-5c37-ac62-d6d900ddef48-attr-2-type" class="er entityLabel">String</text><rect height="22.091796875" width="103.3125" y="46.091796875" x="44.015625" class="er attributeBoxEven"/><text style="dominant-baseline: middle; font-size: 10.2px;" transform="translate(49.015625,57.1376953125)" y="0" x="0" id="text-entity-operators-be0a7f6f-64c9-5c37-ac62-d6d900ddef48-attr-2-name" class="er entityLabel">userId</text><rect height="22.091796875" width="44.015625" y="68.18359375" x="0" class="er attributeBoxOdd"/><text style="dominant-baseline: middle; font-size: 10.2px;" transform="translate(5,79.2294921875)" y="0" x="0" id="text-entity-operators-be0a7f6f-64c9-5c37-ac62-d6d900ddef48-attr-3-type" class="er entityLabel">String[]</text><rect height="22.091796875" width="103.3125" y="68.18359375" x="44.015625" class="er attributeBoxOdd"/><text style="dominant-baseline: middle; font-size: 10.2px;" transform="translate(49.015625,79.2294921875)" y="0" x="0" id="text-entity-operators-be0a7f6f-64c9-5c37-ac62-d6d900ddef48-attr-3-name" class="er entityLabel">roles</text><rect height="22.091797828674316" width="44.015625" y="90.275390625" x="0" class="er attributeBoxEven"/><text style="dominant-baseline: middle; font-size: 10.2px;" transform="translate(5,101.32128953933716)" y="0" x="0" id="text-entity-operators-be0a7f6f-64c9-5c37-ac62-d6d900ddef48-attr-4-type" class="er entityLabel">String</text><rect height="22.091797828674316" width="103.3125" y="90.275390625" x="44.015625" class="er attributeBoxEven"/><text style="dominant-baseline: middle; font-size: 10.2px;" transform="translate(49.015625,101.32128953933716)" y="0" x="0" id="text-entity-operators-be0a7f6f-64c9-5c37-ac62-d6d900ddef48-attr-4-name" class="er entityLabel">organizationIpaCode</text></g><rect height="14" width="8.28125" y="219.55099487304688" x="90.78937530517578" class="er relationshipLabelBox"/><text style="text-anchor: middle; dominant-baseline: middle; font-size: 12px;" y="226.55099487304688" x="94.93000030517578" id="rel1" class="er relationshipLabel">is</text><text class="entityTitleText" y="-25" x="94.9296875" text-anchor="middle">ER - P4PA</text></svg>