<svg aria-roledescription="er" role="graphics-document document" viewBox="0 0 1289.46875 863.560546875" style="max-width: 1289.47px; background-color: white;" xmlns:xlink="http://www.w3.org/1999/xlink" xmlns="http://www.w3.org/2000/svg" width="100%" id="my-svg"><style>#my-svg{font-family:"trebuchet ms",verdana,arial,sans-serif;font-size:16px;fill:#333;}#my-svg .error-icon{fill:#552222;}#my-svg .error-text{fill:#552222;stroke:#552222;}#my-svg .edge-thickness-normal{stroke-width:1px;}#my-svg .edge-thickness-thick{stroke-width:3.5px;}#my-svg .edge-pattern-solid{stroke-dasharray:0;}#my-svg .edge-thickness-invisible{stroke-width:0;fill:none;}#my-svg .edge-pattern-dashed{stroke-dasharray:3;}#my-svg .edge-pattern-dotted{stroke-dasharray:2;}#my-svg .marker{fill:#333333;stroke:#333333;}#my-svg .marker.cross{stroke:#333333;}#my-svg svg{font-family:"trebuchet ms",verdana,arial,sans-serif;font-size:16px;}#my-svg p{margin:0;}#my-svg .entityBox{fill:#ECECFF;stroke:#9370DB;}#my-svg .attributeBoxOdd{fill:#ffffff;stroke:#9370DB;}#my-svg .attributeBoxEven{fill:#f2f2f2;stroke:#9370DB;}#my-svg .relationshipLabelBox{fill:hsl(80, 100%, 96.2745098039%);opacity:0.7;background-color:hsl(80, 100%, 96.2745098039%);}#my-svg .relationshipLabelBox rect{opacity:0.5;}#my-svg .relationshipLine{stroke:#333333;}#my-svg .entityTitleText{text-anchor:middle;font-size:18px;fill:#333;}#my-svg #MD_PARENT_START{fill:#f5f5f5!important;stroke:#333333!important;stroke-width:1;}#my-svg #MD_PARENT_END{fill:#f5f5f5!important;stroke:#333333!important;stroke-width:1;}#my-svg :root{--mermaid-font-family:"trebuchet ms",verdana,arial,sans-serif;}</style><g/><defs><marker orient="auto" markerHeight="240" markerWidth="190" refY="7" refX="0" id="MD_PARENT_START"><path d="M 18,7 L9,13 L1,7 L9,1 Z"/></marker></defs><defs><marker orient="auto" markerHeight="28" markerWidth="20" refY="7" refX="19" id="MD_PARENT_END"><path d="M 18,7 L9,13 L1,7 L9,1 Z"/></marker></defs><defs><marker orient="auto" markerHeight="18" markerWidth="18" refY="9" refX="0" id="ONLY_ONE_START"><path d="M9,0 L9,18 M15,0 L15,18" fill="none" stroke="gray"/></marker></defs><defs><marker orient="auto" markerHeight="18" markerWidth="18" refY="9" refX="18" id="ONLY_ONE_END"><path d="M3,0 L3,18 M9,0 L9,18" fill="none" stroke="gray"/></marker></defs><defs><marker orient="auto" markerHeight="18" markerWidth="30" refY="9" refX="0" id="ZERO_OR_ONE_START"><circle r="6" cy="9" cx="21" fill="white" stroke="gray"/><path d="M9,0 L9,18" fill="none" stroke="gray"/></marker></defs><defs><marker orient="auto" markerHeight="18" markerWidth="30" refY="9" refX="30" id="ZERO_OR_ONE_END"><circle r="6" cy="9" cx="9" fill="white" stroke="gray"/><path d="M21,0 L21,18" fill="none" stroke="gray"/></marker></defs><defs><marker orient="auto" markerHeight="36" markerWidth="45" refY="18" refX="18" id="ONE_OR_MORE_START"><path d="M0,18 Q 18,0 36,18 Q 18,36 0,18 M42,9 L42,27" fill="none" stroke="gray"/></marker></defs><defs><marker orient="auto" markerHeight="36" markerWidth="45" refY="18" refX="27" id="ONE_OR_MORE_END"><path d="M3,9 L3,27 M9,18 Q27,0 45,18 Q27,36 9,18" fill="none" stroke="gray"/></marker></defs><defs><marker orient="auto" markerHeight="36" markerWidth="57" refY="18" refX="18" id="ZERO_OR_MORE_START"><circle r="6" cy="18" cx="48" fill="white" stroke="gray"/><path d="M0,18 Q18,0 36,18 Q18,36 0,18" fill="none" stroke="gray"/></marker></defs><defs><marker orient="auto" markerHeight="36" markerWidth="57" refY="18" refX="39" id="ZERO_OR_MORE_END"><circle r="6" cy="18" cx="9" fill="white" stroke="gray"/><path d="M21,18 Q39,0 57,18 Q39,36 21,18" fill="none" stroke="gray"/></marker></defs><path style="stroke: gray; fill: none;" marker-start="url(#ONLY_ONE_START)" marker-end="url(#ZERO_OR_MORE_END)" d="M674.523,66.092L674.523,74.425C674.523,82.758,674.523,99.425,674.523,116.092C674.523,132.758,674.523,149.425,674.523,157.758L674.523,166.092" class="er relationshipLine"/><path style="stroke: gray; fill: none;" marker-start="url(#ONLY_ONE_START)" marker-end="url(#ZERO_OR_MORE_END)" d="M603.25,380.783L506.935,416.169C410.62,451.556,217.99,522.329,126.284,571.564C34.578,620.799,43.796,648.496,48.405,662.345L53.014,676.193" class="er relationshipLine"/><path style="stroke: gray; fill: none;" marker-start="url(#ONLY_ONE_START)" marker-end="url(#ZERO_OR_MORE_END)" d="M603.25,392.997L541.349,426.348C479.448,459.699,355.646,526.4,298.26,571.758C240.873,617.117,249.903,641.132,254.417,653.14L258.932,665.147" class="er relationshipLine"/><path style="stroke: gray; fill: none;" marker-start="url(#ONLY_ONE_START)" marker-end="url(#ZERO_OR_MORE_END)" d="M603.25,502.797L596.012,517.848C588.773,532.899,574.297,563,567.059,586.384C559.82,609.768,559.82,626.435,559.82,634.768L559.82,643.102" class="er relationshipLine"/><path style="stroke: gray; fill: none;" marker-start="url(#ONLY_ONE_START)" marker-end="url(#ZERO_OR_MORE_END)" d="M745.797,502.797L753.035,517.848C760.273,532.899,774.75,563,781.988,593.725C789.227,624.45,789.227,655.799,789.227,671.473L789.227,687.147" class="er relationshipLine"/><path style="stroke: gray; fill: none;" marker-start="url(#ONLY_ONE_START)" marker-end="url(#ZERO_OR_MORE_END)" d="M745.797,416.37L779.782,445.825C813.767,475.281,881.737,534.191,922.792,581.162C963.846,628.132,977.986,663.163,985.055,680.678L992.125,698.193" class="er relationshipLine"/><path style="stroke: gray; fill: none;" marker-start="url(#ONLY_ONE_START)" marker-end="url(#ZERO_OR_MORE_END)" d="M745.797,385.89L824.453,420.426C903.109,454.961,1060.422,524.031,1139.078,576.082C1217.734,628.132,1217.734,663.163,1217.734,680.678L1217.734,698.193" class="er relationshipLine"/><path style="stroke: gray; fill: none;" marker-start="url(#ONLY_ONE_START)" marker-end="url(#ZERO_OR_MORE_END)" d="M80.817,377.643L89.322,413.552C97.826,449.462,114.835,521.282,118.132,571.04C121.43,620.799,111.016,648.496,105.809,662.345L100.602,676.193" class="er relationshipLine"/><path style="stroke: gray; fill: none;" marker-start="url(#ONLY_ONE_START)" marker-end="url(#ZERO_OR_MORE_END)" d="M287.302,377.643L295.806,413.552C304.31,449.462,321.319,521.282,325.827,569.199C330.335,617.117,322.342,641.132,318.346,653.14L314.35,665.147" class="er relationshipLine"/><path style="stroke: gray; fill: none;" marker-start="url(#ONLY_ONE_START)" marker-end="url(#ZERO_OR_MORE_END)" d="M1157.715,377.643L1142.102,413.552C1126.489,449.462,1095.264,521.282,1073.391,574.707C1051.518,628.132,1038.998,663.163,1032.737,680.678L1026.477,698.193" class="er relationshipLine"/><g transform="translate(624.5234375,20 )" id="entity-Customer-7db3a251-ee0f-5d85-b53f-42db636cc6f9"><rect height="46.091797828674316" width="100" y="0" x="0" class="er entityBox"/><text style="dominant-baseline: middle; text-anchor: middle; font-size: 12px;" transform="translate(50,12)" y="0" x="0" id="text-entity-Customer-7db3a251-ee0f-5d85-b53f-42db636cc6f9" class="er entityLabel">Customer</text><rect height="22.091797828674316" width="37.4765625" y="24" x="0" class="er attributeBoxOdd"/><text style="dominant-baseline: middle; font-size: 10.2px;" transform="translate(5,35.04589891433716)" y="0" x="0" id="text-entity-Customer-7db3a251-ee0f-5d85-b53f-42db636cc6f9-attr-1-type" class="er entityLabel">string</text><rect height="22.091797828674316" width="62.5234375" y="24" x="37.4765625" class="er attributeBoxOdd"/><text style="dominant-baseline: middle; font-size: 10.2px;" transform="translate(42.4765625,35.04589891433716)" y="0" x="0" id="text-entity-Customer-7db3a251-ee0f-5d85-b53f-42db636cc6f9-attr-1-name" class="er entityLabel">customerId</text></g><g transform="translate(603.25,166.091796875 )" id="entity-Account-3e57c4b6-cd9d-514f-a2f6-ac5478bb332e"><rect height="377.00977516174316" width="142.546875" y="0" x="0" class="er entityBox"/><text style="dominant-baseline: middle; text-anchor: middle; font-size: 12px;" transform="translate(71.2734375,12)" y="0" x="0" id="text-entity-Account-3e57c4b6-cd9d-514f-a2f6-ac5478bb332e" class="er entityLabel">Account</text><rect height="22.091797828674316" width="46.140625" y="24" x="0" class="er attributeBoxOdd"/><text style="dominant-baseline: middle; font-size: 10.2px;" transform="translate(5,35.04589891433716)" y="0" x="0" id="text-entity-Account-3e57c4b6-cd9d-514f-a2f6-ac5478bb332e-attr-1-type" class="er entityLabel">string</text><rect height="22.091797828674316" width="96.40625" y="24" x="46.140625" class="er attributeBoxOdd"/><text style="dominant-baseline: middle; font-size: 10.2px;" transform="translate(51.140625,35.04589891433716)" y="0" x="0" id="text-entity-Account-3e57c4b6-cd9d-514f-a2f6-ac5478bb332e-attr-1-name" class="er entityLabel">accountId</text><rect height="22.091797828674316" width="46.140625" y="46.091797828674316" x="0" class="er attributeBoxEven"/><text style="dominant-baseline: middle; font-size: 10.2px;" transform="translate(5,57.137696743011475)" y="0" x="0" id="text-entity-Account-3e57c4b6-cd9d-514f-a2f6-ac5478bb332e-attr-2-type" class="er entityLabel">string</text><rect height="22.091797828674316" width="96.40625" y="46.091797828674316" x="46.140625" class="er attributeBoxEven"/><text style="dominant-baseline: middle; font-size: 10.2px;" transform="translate(51.140625,57.137696743011475)" y="0" x="0" id="text-entity-Account-3e57c4b6-cd9d-514f-a2f6-ac5478bb332e-attr-2-name" class="er entityLabel">customerId</text><rect height="22.091797828674316" width="46.140625" y="68.18359565734863" x="0" class="er attributeBoxOdd"/><text style="dominant-baseline: middle; font-size: 10.2px;" transform="translate(5,79.22949457168579)" y="0" x="0" id="text-entity-Account-3e57c4b6-cd9d-514f-a2f6-ac5478bb332e-attr-3-type" class="er entityLabel">string</text><rect height="22.091797828674316" width="96.40625" y="68.18359565734863" x="46.140625" class="er attributeBoxOdd"/><text style="dominant-baseline: middle; font-size: 10.2px;" transform="translate(51.140625,79.22949457168579)" y="0" x="0" id="text-entity-Account-3e57c4b6-cd9d-514f-a2f6-ac5478bb332e-attr-3-name" class="er entityLabel">accountName</text><rect height="22" width="46.140625" y="90.27539348602295" x="0" class="er attributeBoxEven"/><text style="dominant-baseline: middle; font-size: 10.2px;" transform="translate(5,101.27539348602295)" y="0" x="0" id="text-entity-Account-3e57c4b6-cd9d-514f-a2f6-ac5478bb332e-attr-4-type" class="er entityLabel">date</text><rect height="22" width="96.40625" y="90.27539348602295" x="46.140625" class="er attributeBoxEven"/><text style="dominant-baseline: middle; font-size: 10.2px;" transform="translate(51.140625,101.27539348602295)" y="0" x="0" id="text-entity-Account-3e57c4b6-cd9d-514f-a2f6-ac5478bb332e-attr-4-name" class="er entityLabel">effDate</text><rect height="22" width="46.140625" y="112.27539348602295" x="0" class="er attributeBoxOdd"/><text style="dominant-baseline: middle; font-size: 10.2px;" transform="translate(5,123.27539348602295)" y="0" x="0" id="text-entity-Account-3e57c4b6-cd9d-514f-a2f6-ac5478bb332e-attr-5-type" class="er entityLabel">date</text><rect height="22" width="96.40625" y="112.27539348602295" x="46.140625" class="er attributeBoxOdd"/><text style="dominant-baseline: middle; font-size: 10.2px;" transform="translate(51.140625,123.27539348602295)" y="0" x="0" id="text-entity-Account-3e57c4b6-cd9d-514f-a2f6-ac5478bb332e-attr-5-name" class="er entityLabel">termDate</text><rect height="22.091797828674316" width="46.140625" y="134.27539348602295" x="0" class="er attributeBoxEven"/><text style="dominant-baseline: middle; font-size: 10.2px;" transform="translate(5,145.3212924003601)" y="0" x="0" id="text-entity-Account-3e57c4b6-cd9d-514f-a2f6-ac5478bb332e-attr-6-type" class="er entityLabel">string</text><rect height="22.091797828674316" width="96.40625" y="134.27539348602295" x="46.140625" class="er attributeBoxEven"/><text style="dominant-baseline: middle; font-size: 10.2px;" transform="translate(51.140625,145.3212924003601)" y="0" x="0" id="text-entity-Account-3e57c4b6-cd9d-514f-a2f6-ac5478bb332e-attr-6-name" class="er entityLabel">statusCode</text><rect height="22.091797828674316" width="46.140625" y="156.36719131469727" x="0" class="er attributeBoxOdd"/><text style="dominant-baseline: middle; font-size: 10.2px;" transform="translate(5,167.41309022903442)" y="0" x="0" id="text-entity-Account-3e57c4b6-cd9d-514f-a2f6-ac5478bb332e-attr-7-type" class="er entityLabel">string</text><rect height="22.091797828674316" width="96.40625" y="156.36719131469727" x="46.140625" class="er attributeBoxOdd"/><text style="dominant-baseline: middle; font-size: 10.2px;" transform="translate(51.140625,167.41309022903442)" y="0" x="0" id="text-entity-Account-3e57c4b6-cd9d-514f-a2f6-ac5478bb332e-attr-7-name" class="er entityLabel">situsState</text><rect height="22.091797828674316" width="46.140625" y="178.45898914337158" x="0" class="er attributeBoxEven"/><text style="dominant-baseline: middle; font-size: 10.2px;" transform="translate(5,189.50488805770874)" y="0" x="0" id="text-entity-Account-3e57c4b6-cd9d-514f-a2f6-ac5478bb332e-attr-8-type" class="er entityLabel">string</text><rect height="22.091797828674316" width="96.40625" y="178.45898914337158" x="46.140625" class="er attributeBoxEven"/><text style="dominant-baseline: middle; font-size: 10.2px;" transform="translate(51.140625,189.50488805770874)" y="0" x="0" id="text-entity-Account-3e57c4b6-cd9d-514f-a2f6-ac5478bb332e-attr-8-name" class="er entityLabel">naicsCode</text><rect height="22.091796875" width="46.140625" y="200.5507869720459" x="0" class="er attributeBoxOdd"/><text style="dominant-baseline: middle; font-size: 10.2px;" transform="translate(5,211.5966854095459)" y="0" x="0" id="text-entity-Account-3e57c4b6-cd9d-514f-a2f6-ac5478bb332e-attr-9-type" class="er entityLabel">boolean</text><rect height="22.091796875" width="96.40625" y="200.5507869720459" x="46.140625" class="er attributeBoxOdd"/><text style="dominant-baseline: middle; font-size: 10.2px;" transform="translate(51.140625,211.5966854095459)" y="0" x="0" id="text-entity-Account-3e57c4b6-cd9d-514f-a2f6-ac5478bb332e-attr-9-name" class="er entityLabel">hasCustomProgram</text><rect height="22.091797828674316" width="46.140625" y="222.6425838470459" x="0" class="er attributeBoxEven"/><text style="dominant-baseline: middle; font-size: 10.2px;" transform="translate(5,233.68848276138306)" y="0" x="0" id="text-entity-Account-3e57c4b6-cd9d-514f-a2f6-ac5478bb332e-attr-10-type" class="er entityLabel">string</text><rect height="22.091797828674316" width="96.40625" y="222.6425838470459" x="46.140625" class="er attributeBoxEven"/><text style="dominant-baseline: middle; font-size: 10.2px;" transform="translate(51.140625,233.68848276138306)" y="0" x="0" id="text-entity-Account-3e57c4b6-cd9d-514f-a2f6-ac5478bb332e-attr-10-name" class="er entityLabel">programName</text><rect height="22" width="46.140625" y="244.73438167572021" x="0" class="er attributeBoxOdd"/><text style="dominant-baseline: middle; font-size: 10.2px;" transform="translate(5,255.73438167572021)" y="0" x="0" id="text-entity-Account-3e57c4b6-cd9d-514f-a2f6-ac5478bb332e-attr-11-type" class="er entityLabel">boolean</text><rect height="22" width="96.40625" y="244.73438167572021" x="46.140625" class="er attributeBoxOdd"/><text style="dominant-baseline: middle; font-size: 10.2px;" transform="translate(51.140625,255.73438167572021)" y="0" x="0" id="text-entity-Account-3e57c4b6-cd9d-514f-a2f6-ac5478bb332e-attr-11-name" class="er entityLabel">hasCustomizedUrl</text><rect height="22.091797828674316" width="46.140625" y="266.7343816757202" x="0" class="er attributeBoxEven"/><text style="dominant-baseline: middle; font-size: 10.2px;" transform="translate(5,277.7802805900574)" y="0" x="0" id="text-entity-Account-3e57c4b6-cd9d-514f-a2f6-ac5478bb332e-attr-12-type" class="er entityLabel">string</text><rect height="22.091797828674316" width="96.40625" y="266.7343816757202" x="46.140625" class="er attributeBoxEven"/><text style="dominant-baseline: middle; font-size: 10.2px;" transform="translate(51.140625,277.7802805900574)" y="0" x="0" id="text-entity-Account-3e57c4b6-cd9d-514f-a2f6-ac5478bb332e-attr-12-name" class="er entityLabel">customUrl</text><rect height="22.091797828674316" width="46.140625" y="288.82617950439453" x="0" class="er attributeBoxOdd"/><text style="dominant-baseline: middle; font-size: 10.2px;" transform="translate(5,299.8720784187317)" y="0" x="0" id="text-entity-Account-3e57c4b6-cd9d-514f-a2f6-ac5478bb332e-attr-13-type" class="er entityLabel">string</text><rect height="22.091797828674316" width="96.40625" y="288.82617950439453" x="46.140625" class="er attributeBoxOdd"/><text style="dominant-baseline: middle; font-size: 10.2px;" transform="translate(51.140625,299.8720784187317)" y="0" x="0" id="text-entity-Account-3e57c4b6-cd9d-514f-a2f6-ac5478bb332e-attr-13-name" class="er entityLabel">pin</text><rect height="22.091797828674316" width="46.140625" y="310.91797733306885" x="0" class="er attributeBoxEven"/><text style="dominant-baseline: middle; font-size: 10.2px;" transform="translate(5,321.963876247406)" y="0" x="0" id="text-entity-Account-3e57c4b6-cd9d-514f-a2f6-ac5478bb332e-attr-14-type" class="er entityLabel">string</text><rect height="22.091797828674316" width="96.40625" y="310.91797733306885" x="46.140625" class="er attributeBoxEven"/><text style="dominant-baseline: middle; font-size: 10.2px;" transform="translate(51.140625,321.963876247406)" y="0" x="0" id="text-entity-Account-3e57c4b6-cd9d-514f-a2f6-ac5478bb332e-attr-14-name" class="er entityLabel">customSurvey</text><rect height="22" width="46.140625" y="333.00977516174316" x="0" class="er attributeBoxOdd"/><text style="dominant-baseline: middle; font-size: 10.2px;" transform="translate(5,344.00977516174316)" y="0" x="0" id="text-entity-Account-3e57c4b6-cd9d-514f-a2f6-ac5478bb332e-attr-15-type" class="er entityLabel">boolean</text><rect height="22" width="96.40625" y="333.00977516174316" x="46.140625" class="er attributeBoxOdd"/><text style="dominant-baseline: middle; font-size: 10.2px;" transform="translate(51.140625,344.00977516174316)" y="0" x="0" id="text-entity-Account-3e57c4b6-cd9d-514f-a2f6-ac5478bb332e-attr-15-name" class="er entityLabel">isReleased</text><rect height="22" width="46.140625" y="355.00977516174316" x="0" class="er attributeBoxEven"/><text style="dominant-baseline: middle; font-size: 10.2px;" transform="translate(5,366.00977516174316)" y="0" x="0" id="text-entity-Account-3e57c4b6-cd9d-514f-a2f6-ac5478bb332e-attr-16-type" class="er entityLabel">boolean</text><rect height="22" width="96.40625" y="355.00977516174316" x="46.140625" class="er attributeBoxEven"/><text style="dominant-baseline: middle; font-size: 10.2px;" transform="translate(51.140625,366.00977516174316)" y="0" x="0" id="text-entity-Account-3e57c4b6-cd9d-514f-a2f6-ac5478bb332e-attr-16-name" class="er entityLabel">isLinx</text></g><g transform="translate(20,676.193359375 )" id="entity-AccountCarrier-7d4f17cf-229d-5bc0-af38-53ca00f81ec2"><rect height="134.27539348602295" width="110.71875" y="0" x="0" class="er entityBox"/><text style="dominant-baseline: middle; text-anchor: middle; font-size: 12px;" transform="translate(55.359375,12)" y="0" x="0" id="text-entity-AccountCarrier-7d4f17cf-229d-5bc0-af38-53ca00f81ec2" class="er entityLabel">AccountCarrier</text><rect height="22.091797828674316" width="45.90625" y="24" x="0" class="er attributeBoxOdd"/><text style="dominant-baseline: middle; font-size: 10.2px;" transform="translate(5,35.04589891433716)" y="0" x="0" id="text-entity-AccountCarrier-7d4f17cf-229d-5bc0-af38-53ca00f81ec2-attr-1-type" class="er entityLabel">string</text><rect height="22.091797828674316" width="64.8125" y="24" x="45.90625" class="er attributeBoxOdd"/><text style="dominant-baseline: middle; font-size: 10.2px;" transform="translate(50.90625,35.04589891433716)" y="0" x="0" id="text-entity-AccountCarrier-7d4f17cf-229d-5bc0-af38-53ca00f81ec2-attr-1-name" class="er entityLabel">accountId</text><rect height="22.091797828674316" width="45.90625" y="46.091797828674316" x="0" class="er attributeBoxEven"/><text style="dominant-baseline: middle; font-size: 10.2px;" transform="translate(5,57.137696743011475)" y="0" x="0" id="text-entity-AccountCarrier-7d4f17cf-229d-5bc0-af38-53ca00f81ec2-attr-2-type" class="er entityLabel">string</text><rect height="22.091797828674316" width="64.8125" y="46.091797828674316" x="45.90625" class="er attributeBoxEven"/><text style="dominant-baseline: middle; font-size: 10.2px;" transform="translate(50.90625,57.137696743011475)" y="0" x="0" id="text-entity-AccountCarrier-7d4f17cf-229d-5bc0-af38-53ca00f81ec2-attr-2-name" class="er entityLabel">carrierId</text><rect height="22.091797828674316" width="45.90625" y="68.18359565734863" x="0" class="er attributeBoxOdd"/><text style="dominant-baseline: middle; font-size: 10.2px;" transform="translate(5,79.22949457168579)" y="0" x="0" id="text-entity-AccountCarrier-7d4f17cf-229d-5bc0-af38-53ca00f81ec2-attr-3-type" class="er entityLabel">string</text><rect height="22.091797828674316" width="64.8125" y="68.18359565734863" x="45.90625" class="er attributeBoxOdd"/><text style="dominant-baseline: middle; font-size: 10.2px;" transform="translate(50.90625,79.22949457168579)" y="0" x="0" id="text-entity-AccountCarrier-7d4f17cf-229d-5bc0-af38-53ca00f81ec2-attr-3-name" class="er entityLabel">typeCode</text><rect height="22" width="45.90625" y="90.27539348602295" x="0" class="er attributeBoxEven"/><text style="dominant-baseline: middle; font-size: 10.2px;" transform="translate(5,101.27539348602295)" y="0" x="0" id="text-entity-AccountCarrier-7d4f17cf-229d-5bc0-af38-53ca00f81ec2-attr-4-type" class="er entityLabel">date</text><rect height="22" width="64.8125" y="90.27539348602295" x="45.90625" class="er attributeBoxEven"/><text style="dominant-baseline: middle; font-size: 10.2px;" transform="translate(50.90625,101.27539348602295)" y="0" x="0" id="text-entity-AccountCarrier-7d4f17cf-229d-5bc0-af38-53ca00f81ec2-attr-4-name" class="er entityLabel">effDate</text><rect height="22" width="45.90625" y="112.27539348602295" x="0" class="er attributeBoxOdd"/><text style="dominant-baseline: middle; font-size: 10.2px;" transform="translate(5,123.27539348602295)" y="0" x="0" id="text-entity-AccountCarrier-7d4f17cf-229d-5bc0-af38-53ca00f81ec2-attr-5-type" class="er entityLabel">date</text><rect height="22" width="64.8125" y="112.27539348602295" x="45.90625" class="er attributeBoxOdd"/><text style="dominant-baseline: middle; font-size: 10.2px;" transform="translate(50.90625,123.27539348602295)" y="0" x="0" id="text-entity-AccountCarrier-7d4f17cf-229d-5bc0-af38-53ca00f81ec2-attr-5-name" class="er entityLabel">termDate</text></g><g transform="translate(230.71875,665.1474609375 )" id="entity-AccountContact-bc5fbce6-7fe7-5c2d-a275-3ef4099a051b"><rect height="156.36719131469727" width="115.21875" y="0" x="0" class="er entityBox"/><text style="dominant-baseline: middle; text-anchor: middle; font-size: 12px;" transform="translate(57.609375,12)" y="0" x="0" id="text-entity-AccountContact-bc5fbce6-7fe7-5c2d-a275-3ef4099a051b" class="er entityLabel">AccountContact</text><rect height="22.091797828674316" width="48.15625" y="24" x="0" class="er attributeBoxOdd"/><text style="dominant-baseline: middle; font-size: 10.2px;" transform="translate(5,35.04589891433716)" y="0" x="0" id="text-entity-AccountContact-bc5fbce6-7fe7-5c2d-a275-3ef4099a051b-attr-1-type" class="er entityLabel">string</text><rect height="22.091797828674316" width="67.0625" y="24" x="48.15625" class="er attributeBoxOdd"/><text style="dominant-baseline: middle; font-size: 10.2px;" transform="translate(53.15625,35.04589891433716)" y="0" x="0" id="text-entity-AccountContact-bc5fbce6-7fe7-5c2d-a275-3ef4099a051b-attr-1-name" class="er entityLabel">accountId</text><rect height="22.091797828674316" width="48.15625" y="46.091797828674316" x="0" class="er attributeBoxEven"/><text style="dominant-baseline: middle; font-size: 10.2px;" transform="translate(5,57.137696743011475)" y="0" x="0" id="text-entity-AccountContact-bc5fbce6-7fe7-5c2d-a275-3ef4099a051b-attr-2-type" class="er entityLabel">string</text><rect height="22.091797828674316" width="67.0625" y="46.091797828674316" x="48.15625" class="er attributeBoxEven"/><text style="dominant-baseline: middle; font-size: 10.2px;" transform="translate(53.15625,57.137696743011475)" y="0" x="0" id="text-entity-AccountContact-bc5fbce6-7fe7-5c2d-a275-3ef4099a051b-attr-2-name" class="er entityLabel">contactId</text><rect height="22.091797828674316" width="48.15625" y="68.18359565734863" x="0" class="er attributeBoxOdd"/><text style="dominant-baseline: middle; font-size: 10.2px;" transform="translate(5,79.22949457168579)" y="0" x="0" id="text-entity-AccountContact-bc5fbce6-7fe7-5c2d-a275-3ef4099a051b-attr-3-type" class="er entityLabel">string</text><rect height="22.091797828674316" width="67.0625" y="68.18359565734863" x="48.15625" class="er attributeBoxOdd"/><text style="dominant-baseline: middle; font-size: 10.2px;" transform="translate(53.15625,79.22949457168579)" y="0" x="0" id="text-entity-AccountContact-bc5fbce6-7fe7-5c2d-a275-3ef4099a051b-attr-3-name" class="er entityLabel">typeCode</text><rect height="22.091797828674316" width="48.15625" y="90.27539348602295" x="0" class="er attributeBoxEven"/><text style="dominant-baseline: middle; font-size: 10.2px;" transform="translate(5,101.32129240036011)" y="0" x="0" id="text-entity-AccountContact-bc5fbce6-7fe7-5c2d-a275-3ef4099a051b-attr-4-type" class="er entityLabel">string</text><rect height="22.091797828674316" width="67.0625" y="90.27539348602295" x="48.15625" class="er attributeBoxEven"/><text style="dominant-baseline: middle; font-size: 10.2px;" transform="translate(53.15625,101.32129240036011)" y="0" x="0" id="text-entity-AccountContact-bc5fbce6-7fe7-5c2d-a275-3ef4099a051b-attr-4-name" class="er entityLabel">refId</text><rect height="22" width="48.15625" y="112.36719131469727" x="0" class="er attributeBoxOdd"/><text style="dominant-baseline: middle; font-size: 10.2px;" transform="translate(5,123.36719131469727)" y="0" x="0" id="text-entity-AccountContact-bc5fbce6-7fe7-5c2d-a275-3ef4099a051b-attr-5-type" class="er entityLabel">date</text><rect height="22" width="67.0625" y="112.36719131469727" x="48.15625" class="er attributeBoxOdd"/><text style="dominant-baseline: middle; font-size: 10.2px;" transform="translate(53.15625,123.36719131469727)" y="0" x="0" id="text-entity-AccountContact-bc5fbce6-7fe7-5c2d-a275-3ef4099a051b-attr-5-name" class="er entityLabel">effDate</text><rect height="22" width="48.15625" y="134.36719131469727" x="0" class="er attributeBoxEven"/><text style="dominant-baseline: middle; font-size: 10.2px;" transform="translate(5,145.36719131469727)" y="0" x="0" id="text-entity-AccountContact-bc5fbce6-7fe7-5c2d-a275-3ef4099a051b-attr-6-type" class="er entityLabel">date</text><rect height="22" width="67.0625" y="134.36719131469727" x="48.15625" class="er attributeBoxEven"/><text style="dominant-baseline: middle; font-size: 10.2px;" transform="translate(53.15625,145.36719131469727)" y="0" x="0" id="text-entity-AccountContact-bc5fbce6-7fe7-5c2d-a275-3ef4099a051b-attr-6-name" class="er entityLabel">termDate</text></g><g transform="translate(495.71875,643.1015625 )" id="entity-AccountNote-bfe2fd9c-8716-57a0-99a3-2f8bc52ae6ae"><rect height="200.45898914337158" width="128.203125" y="0" x="0" class="er entityBox"/><text style="dominant-baseline: middle; text-anchor: middle; font-size: 12px;" transform="translate(64.1015625,12)" y="0" x="0" id="text-entity-AccountNote-bfe2fd9c-8716-57a0-99a3-2f8bc52ae6ae" class="er entityLabel">AccountNote</text><rect height="22.091797828674316" width="46.140625" y="24" x="0" class="er attributeBoxOdd"/><text style="dominant-baseline: middle; font-size: 10.2px;" transform="translate(5,35.04589891433716)" y="0" x="0" id="text-entity-AccountNote-bfe2fd9c-8716-57a0-99a3-2f8bc52ae6ae-attr-1-type" class="er entityLabel">string</text><rect height="22.091797828674316" width="82.0625" y="24" x="46.140625" class="er attributeBoxOdd"/><text style="dominant-baseline: middle; font-size: 10.2px;" transform="translate(51.140625,35.04589891433716)" y="0" x="0" id="text-entity-AccountNote-bfe2fd9c-8716-57a0-99a3-2f8bc52ae6ae-attr-1-name" class="er entityLabel">accountId</text><rect height="22.091797828674316" width="46.140625" y="46.091797828674316" x="0" class="er attributeBoxEven"/><text style="dominant-baseline: middle; font-size: 10.2px;" transform="translate(5,57.137696743011475)" y="0" x="0" id="text-entity-AccountNote-bfe2fd9c-8716-57a0-99a3-2f8bc52ae6ae-attr-2-type" class="er entityLabel">string</text><rect height="22.091797828674316" width="82.0625" y="46.091797828674316" x="46.140625" class="er attributeBoxEven"/><text style="dominant-baseline: middle; font-size: 10.2px;" transform="translate(51.140625,57.137696743011475)" y="0" x="0" id="text-entity-AccountNote-bfe2fd9c-8716-57a0-99a3-2f8bc52ae6ae-attr-2-name" class="er entityLabel">noteId</text><rect height="22.091797828674316" width="46.140625" y="68.18359565734863" x="0" class="er attributeBoxOdd"/><text style="dominant-baseline: middle; font-size: 10.2px;" transform="translate(5,79.22949457168579)" y="0" x="0" id="text-entity-AccountNote-bfe2fd9c-8716-57a0-99a3-2f8bc52ae6ae-attr-3-type" class="er entityLabel">string</text><rect height="22.091797828674316" width="82.0625" y="68.18359565734863" x="46.140625" class="er attributeBoxOdd"/><text style="dominant-baseline: middle; font-size: 10.2px;" transform="translate(51.140625,79.22949457168579)" y="0" x="0" id="text-entity-AccountNote-bfe2fd9c-8716-57a0-99a3-2f8bc52ae6ae-attr-3-name" class="er entityLabel">typeCode</text><rect height="22.091797828674316" width="46.140625" y="90.27539348602295" x="0" class="er attributeBoxEven"/><text style="dominant-baseline: middle; font-size: 10.2px;" transform="translate(5,101.32129240036011)" y="0" x="0" id="text-entity-AccountNote-bfe2fd9c-8716-57a0-99a3-2f8bc52ae6ae-attr-4-type" class="er entityLabel">string</text><rect height="22.091797828674316" width="82.0625" y="90.27539348602295" x="46.140625" class="er attributeBoxEven"/><text style="dominant-baseline: middle; font-size: 10.2px;" transform="translate(51.140625,101.32129240036011)" y="0" x="0" id="text-entity-AccountNote-bfe2fd9c-8716-57a0-99a3-2f8bc52ae6ae-attr-4-name" class="er entityLabel">note</text><rect height="22" width="46.140625" y="112.36719131469727" x="0" class="er attributeBoxOdd"/><text style="dominant-baseline: middle; font-size: 10.2px;" transform="translate(5,123.36719131469727)" y="0" x="0" id="text-entity-AccountNote-bfe2fd9c-8716-57a0-99a3-2f8bc52ae6ae-attr-5-type" class="er entityLabel">date</text><rect height="22" width="82.0625" y="112.36719131469727" x="46.140625" class="er attributeBoxOdd"/><text style="dominant-baseline: middle; font-size: 10.2px;" transform="translate(51.140625,123.36719131469727)" y="0" x="0" id="text-entity-AccountNote-bfe2fd9c-8716-57a0-99a3-2f8bc52ae6ae-attr-5-name" class="er entityLabel">effDate</text><rect height="22" width="46.140625" y="134.36719131469727" x="0" class="er attributeBoxEven"/><text style="dominant-baseline: middle; font-size: 10.2px;" transform="translate(5,145.36719131469727)" y="0" x="0" id="text-entity-AccountNote-bfe2fd9c-8716-57a0-99a3-2f8bc52ae6ae-attr-6-type" class="er entityLabel">date</text><rect height="22" width="82.0625" y="134.36719131469727" x="46.140625" class="er attributeBoxEven"/><text style="dominant-baseline: middle; font-size: 10.2px;" transform="translate(51.140625,145.36719131469727)" y="0" x="0" id="text-entity-AccountNote-bfe2fd9c-8716-57a0-99a3-2f8bc52ae6ae-attr-6-name" class="er entityLabel">termDate</text><rect height="22" width="46.140625" y="156.36719131469727" x="0" class="er attributeBoxOdd"/><text style="dominant-baseline: middle; font-size: 10.2px;" transform="translate(5,167.36719131469727)" y="0" x="0" id="text-entity-AccountNote-bfe2fd9c-8716-57a0-99a3-2f8bc52ae6ae-attr-7-type" class="er entityLabel">boolean</text><rect height="22" width="82.0625" y="156.36719131469727" x="46.140625" class="er attributeBoxOdd"/><text style="dominant-baseline: middle; font-size: 10.2px;" transform="translate(51.140625,167.36719131469727)" y="0" x="0" id="text-entity-AccountNote-bfe2fd9c-8716-57a0-99a3-2f8bc52ae6ae-attr-7-name" class="er entityLabel">isInstruction</text><rect height="22.091797828674316" width="46.140625" y="178.36719131469727" x="0" class="er attributeBoxEven"/><text style="dominant-baseline: middle; font-size: 10.2px;" transform="translate(5,189.41309022903442)" y="0" x="0" id="text-entity-AccountNote-bfe2fd9c-8716-57a0-99a3-2f8bc52ae6ae-attr-8-type" class="er entityLabel">string</text><rect height="22.091797828674316" width="82.0625" y="178.36719131469727" x="46.140625" class="er attributeBoxEven"/><text style="dominant-baseline: middle; font-size: 10.2px;" transform="translate(51.140625,189.41309022903442)" y="0" x="0" id="text-entity-AccountNote-bfe2fd9c-8716-57a0-99a3-2f8bc52ae6ae-attr-8-name" class="er entityLabel">instructionCode</text></g><g transform="translate(723.921875,687.1474609375 )" id="entity-AccountNoteDetail-592a23f7-8cb2-5396-95be-ebc5b30c6d6f"><rect height="112.36719131469727" width="130.609375" y="0" x="0" class="er entityBox"/><text style="dominant-baseline: middle; text-anchor: middle; font-size: 12px;" transform="translate(65.3046875,12)" y="0" x="0" id="text-entity-AccountNoteDetail-592a23f7-8cb2-5396-95be-ebc5b30c6d6f" class="er entityLabel">AccountNoteDetail</text><rect height="22.091797828674316" width="53.984375" y="24" x="0" class="er attributeBoxOdd"/><text style="dominant-baseline: middle; font-size: 10.2px;" transform="translate(5,35.04589891433716)" y="0" x="0" id="text-entity-AccountNoteDetail-592a23f7-8cb2-5396-95be-ebc5b30c6d6f-attr-1-type" class="er entityLabel">string</text><rect height="22.091797828674316" width="76.625" y="24" x="53.984375" class="er attributeBoxOdd"/><text style="dominant-baseline: middle; font-size: 10.2px;" transform="translate(58.984375,35.04589891433716)" y="0" x="0" id="text-entity-AccountNoteDetail-592a23f7-8cb2-5396-95be-ebc5b30c6d6f-attr-1-name" class="er entityLabel">accountId</text><rect height="22.091797828674316" width="53.984375" y="46.091797828674316" x="0" class="er attributeBoxEven"/><text style="dominant-baseline: middle; font-size: 10.2px;" transform="translate(5,57.137696743011475)" y="0" x="0" id="text-entity-AccountNoteDetail-592a23f7-8cb2-5396-95be-ebc5b30c6d6f-attr-2-type" class="er entityLabel">string</text><rect height="22.091797828674316" width="76.625" y="46.091797828674316" x="53.984375" class="er attributeBoxEven"/><text style="dominant-baseline: middle; font-size: 10.2px;" transform="translate(58.984375,57.137696743011475)" y="0" x="0" id="text-entity-AccountNoteDetail-592a23f7-8cb2-5396-95be-ebc5b30c6d6f-attr-2-name" class="er entityLabel">noteId</text><rect height="22.091797828674316" width="53.984375" y="68.18359565734863" x="0" class="er attributeBoxOdd"/><text style="dominant-baseline: middle; font-size: 10.2px;" transform="translate(5,79.22949457168579)" y="0" x="0" id="text-entity-AccountNoteDetail-592a23f7-8cb2-5396-95be-ebc5b30c6d6f-attr-3-type" class="er entityLabel">string</text><rect height="22.091797828674316" width="76.625" y="68.18359565734863" x="53.984375" class="er attributeBoxOdd"/><text style="dominant-baseline: middle; font-size: 10.2px;" transform="translate(58.984375,79.22949457168579)" y="0" x="0" id="text-entity-AccountNoteDetail-592a23f7-8cb2-5396-95be-ebc5b30c6d6f-attr-3-name" class="er entityLabel">noteLineId</text><rect height="22.091797828674316" width="53.984375" y="90.27539348602295" x="0" class="er attributeBoxEven"/><text style="dominant-baseline: middle; font-size: 10.2px;" transform="translate(5,101.32129240036011)" y="0" x="0" id="text-entity-AccountNoteDetail-592a23f7-8cb2-5396-95be-ebc5b30c6d6f-attr-4-type" class="er entityLabel">string</text><rect height="22.091797828674316" width="76.625" y="90.27539348602295" x="53.984375" class="er attributeBoxEven"/><text style="dominant-baseline: middle; font-size: 10.2px;" transform="translate(58.984375,101.32129240036011)" y="0" x="0" id="text-entity-AccountNoteDetail-592a23f7-8cb2-5396-95be-ebc5b30c6d6f-attr-4-name" class="er entityLabel">note</text></g><g transform="translate(954.6875,698.193359375 )" id="entity-AccountWorker-21bb53d4-c824-59df-94f5-ecdc21874bf0"><rect height="90.27539348602295" width="111.3125" y="0" x="0" class="er entityBox"/><text style="dominant-baseline: middle; text-anchor: middle; font-size: 12px;" transform="translate(55.65625,12)" y="0" x="0" id="text-entity-AccountWorker-21bb53d4-c824-59df-94f5-ecdc21874bf0" class="er entityLabel">AccountWorker</text><rect height="22.091797828674316" width="46.203125" y="24" x="0" class="er attributeBoxOdd"/><text style="dominant-baseline: middle; font-size: 10.2px;" transform="translate(5,35.04589891433716)" y="0" x="0" id="text-entity-AccountWorker-21bb53d4-c824-59df-94f5-ecdc21874bf0-attr-1-type" class="er entityLabel">string</text><rect height="22.091797828674316" width="65.109375" y="24" x="46.203125" class="er attributeBoxOdd"/><text style="dominant-baseline: middle; font-size: 10.2px;" transform="translate(51.203125,35.04589891433716)" y="0" x="0" id="text-entity-AccountWorker-21bb53d4-c824-59df-94f5-ecdc21874bf0-attr-1-name" class="er entityLabel">accountId</text><rect height="22.091797828674316" width="46.203125" y="46.091797828674316" x="0" class="er attributeBoxEven"/><text style="dominant-baseline: middle; font-size: 10.2px;" transform="translate(5,57.137696743011475)" y="0" x="0" id="text-entity-AccountWorker-21bb53d4-c824-59df-94f5-ecdc21874bf0-attr-2-type" class="er entityLabel">string</text><rect height="22.091797828674316" width="65.109375" y="46.091797828674316" x="46.203125" class="er attributeBoxEven"/><text style="dominant-baseline: middle; font-size: 10.2px;" transform="translate(51.203125,57.137696743011475)" y="0" x="0" id="text-entity-AccountWorker-21bb53d4-c824-59df-94f5-ecdc21874bf0-attr-2-name" class="er entityLabel">userId</text><rect height="22.091797828674316" width="46.203125" y="68.18359565734863" x="0" class="er attributeBoxOdd"/><text style="dominant-baseline: middle; font-size: 10.2px;" transform="translate(5,79.22949457168579)" y="0" x="0" id="text-entity-AccountWorker-21bb53d4-c824-59df-94f5-ecdc21874bf0-attr-3-type" class="er entityLabel">string</text><rect height="22.091797828674316" width="65.109375" y="68.18359565734863" x="46.203125" class="er attributeBoxOdd"/><text style="dominant-baseline: middle; font-size: 10.2px;" transform="translate(51.203125,79.22949457168579)" y="0" x="0" id="text-entity-AccountWorker-21bb53d4-c824-59df-94f5-ecdc21874bf0-attr-3-name" class="er entityLabel">roleCode</text></g><g transform="translate(1166,698.193359375 )" id="entity-AccountXref-62c0ea53-e69c-5d1f-acb3-b3725155ee0a"><rect height="90.27539348602295" width="103.46875" y="0" x="0" class="er entityBox"/><text style="dominant-baseline: middle; text-anchor: middle; font-size: 12px;" transform="translate(51.734375,12)" y="0" x="0" id="text-entity-AccountXref-62c0ea53-e69c-5d1f-acb3-b3725155ee0a" class="er entityLabel">AccountXref</text><rect height="22.091797828674316" width="35.75" y="24" x="0" class="er attributeBoxOdd"/><text style="dominant-baseline: middle; font-size: 10.2px;" transform="translate(5,35.04589891433716)" y="0" x="0" id="text-entity-AccountXref-62c0ea53-e69c-5d1f-acb3-b3725155ee0a-attr-1-type" class="er entityLabel">string</text><rect height="22.091797828674316" width="67.71875" y="24" x="35.75" class="er attributeBoxOdd"/><text style="dominant-baseline: middle; font-size: 10.2px;" transform="translate(40.75,35.04589891433716)" y="0" x="0" id="text-entity-AccountXref-62c0ea53-e69c-5d1f-acb3-b3725155ee0a-attr-1-name" class="er entityLabel">accountId</text><rect height="22.091797828674316" width="35.75" y="46.091797828674316" x="0" class="er attributeBoxEven"/><text style="dominant-baseline: middle; font-size: 10.2px;" transform="translate(5,57.137696743011475)" y="0" x="0" id="text-entity-AccountXref-62c0ea53-e69c-5d1f-acb3-b3725155ee0a-attr-2-type" class="er entityLabel">string</text><rect height="22.091797828674316" width="67.71875" y="46.091797828674316" x="35.75" class="er attributeBoxEven"/><text style="dominant-baseline: middle; font-size: 10.2px;" transform="translate(40.75,57.137696743011475)" y="0" x="0" id="text-entity-AccountXref-62c0ea53-e69c-5d1f-acb3-b3725155ee0a-attr-2-name" class="er entityLabel">altAccountId</text><rect height="22.091797828674316" width="35.75" y="68.18359565734863" x="0" class="er attributeBoxOdd"/><text style="dominant-baseline: middle; font-size: 10.2px;" transform="translate(5,79.22949457168579)" y="0" x="0" id="text-entity-AccountXref-62c0ea53-e69c-5d1f-acb3-b3725155ee0a-attr-3-type" class="er entityLabel">string</text><rect height="22.091797828674316" width="67.71875" y="68.18359565734863" x="35.75" class="er attributeBoxOdd"/><text style="dominant-baseline: middle; font-size: 10.2px;" transform="translate(40.75,79.22949457168579)" y="0" x="0" id="text-entity-AccountXref-62c0ea53-e69c-5d1f-acb3-b3725155ee0a-attr-3-name" class="er entityLabel">systemCode</text></g><g transform="translate(25.359375,331.55078125 )" id="entity-Carrier-e13ffb28-984f-5873-8d3d-e121a5908ab7"><rect height="46.091797828674316" width="100" y="0" x="0" class="er entityBox"/><text style="dominant-baseline: middle; text-anchor: middle; font-size: 12px;" transform="translate(50,12)" y="0" x="0" id="text-entity-Carrier-e13ffb28-984f-5873-8d3d-e121a5908ab7" class="er entityLabel">Carrier</text><rect height="22.091797828674316" width="43.2265625" y="24" x="0" class="er attributeBoxOdd"/><text style="dominant-baseline: middle; font-size: 10.2px;" transform="translate(5,35.04589891433716)" y="0" x="0" id="text-entity-Carrier-e13ffb28-984f-5873-8d3d-e121a5908ab7-attr-1-type" class="er entityLabel">string</text><rect height="22.091797828674316" width="56.7734375" y="24" x="43.2265625" class="er attributeBoxOdd"/><text style="dominant-baseline: middle; font-size: 10.2px;" transform="translate(48.2265625,35.04589891433716)" y="0" x="0" id="text-entity-Carrier-e13ffb28-984f-5873-8d3d-e121a5908ab7-attr-1-name" class="er entityLabel">carrierId</text></g><g transform="translate(231.84375,331.55078125 )" id="entity-Contact-a4626517-d92a-5eaf-904d-ed1fdd3a62ce"><rect height="46.091797828674316" width="100" y="0" x="0" class="er entityBox"/><text style="dominant-baseline: middle; text-anchor: middle; font-size: 12px;" transform="translate(50,12)" y="0" x="0" id="text-entity-Contact-a4626517-d92a-5eaf-904d-ed1fdd3a62ce" class="er entityLabel">Contact</text><rect height="22.091797828674316" width="41.3125" y="24" x="0" class="er attributeBoxOdd"/><text style="dominant-baseline: middle; font-size: 10.2px;" transform="translate(5,35.04589891433716)" y="0" x="0" id="text-entity-Contact-a4626517-d92a-5eaf-904d-ed1fdd3a62ce-attr-1-type" class="er entityLabel">string</text><rect height="22.091797828674316" width="58.6875" y="24" x="41.3125" class="er attributeBoxOdd"/><text style="dominant-baseline: middle; font-size: 10.2px;" transform="translate(46.3125,35.04589891433716)" y="0" x="0" id="text-entity-Contact-a4626517-d92a-5eaf-904d-ed1fdd3a62ce-attr-1-name" class="er entityLabel">contactId</text></g><g transform="translate(1117.734375,331.55078125 )" id="entity-User-818c511a-4a32-5484-ba70-875d765a9175"><rect height="46.091797828674316" width="100" y="0" x="0" class="er entityBox"/><text style="dominant-baseline: middle; text-anchor: middle; font-size: 12px;" transform="translate(50,12)" y="0" x="0" id="text-entity-User-818c511a-4a32-5484-ba70-875d765a9175" class="er entityLabel">User</text><rect height="22.091797828674316" width="48.9921875" y="24" x="0" class="er attributeBoxOdd"/><text style="dominant-baseline: middle; font-size: 10.2px;" transform="translate(5,35.04589891433716)" y="0" x="0" id="text-entity-User-818c511a-4a32-5484-ba70-875d765a9175-attr-1-type" class="er entityLabel">string</text><rect height="22.091797828674316" width="51.0078125" y="24" x="48.9921875" class="er attributeBoxOdd"/><text style="dominant-baseline: middle; font-size: 10.2px;" transform="translate(53.9921875,35.04589891433716)" y="0" x="0" id="text-entity-User-818c511a-4a32-5484-ba70-875d765a9175-attr-1-name" class="er entityLabel">userId</text></g><rect height="14" width="17.71875" y="109.09199523925781" x="665.6636352539062" class="er relationshipLabelBox"/><text style="text-anchor: middle; dominant-baseline: middle; font-size: 12px;" y="116.09199523925781" x="674.5230102539062" id="rel1" class="er relationshipLabel">has</text><rect height="14" width="17.71875" y="489.52642822265625" x="286.2489929199219" class="er relationshipLabelBox"/><text style="text-anchor: middle; dominant-baseline: middle; font-size: 12px;" y="496.52642822265625" x="295.1083679199219" id="rel2" class="er relationshipLabel">has</text><rect height="14" width="17.71875" y="498.6106262207031" x="390.3157958984375" class="er relationshipLabelBox"/><text style="text-anchor: middle; dominant-baseline: middle; font-size: 12px;" y="505.6106262207031" x="399.1751708984375" id="rel3" class="er relationshipLabel">has</text><rect height="14" width="17.71875" y="563.4826049804688" x="563.7679443359375" class="er relationshipLabelBox"/><text style="text-anchor: middle; dominant-baseline: middle; font-size: 12px;" y="570.4826049804688" x="572.6273193359375" id="rel4" class="er relationshipLabel">has</text><rect height="14" width="17.71875" y="584.7140502929688" x="772.6442260742188" class="er relationshipLabelBox"/><text style="text-anchor: middle; dominant-baseline: middle; font-size: 12px;" y="591.7140502929688" x="781.5036010742188" id="rel5" class="er relationshipLabel">has</text><rect height="14" width="17.71875" y="536.0565795898438" x="877.7481079101562" class="er relationshipLabelBox"/><text style="text-anchor: middle; dominant-baseline: middle; font-size: 12px;" y="543.0565795898438" x="886.6074829101562" id="rel6" class="er relationshipLabel">has</text><rect height="14.000030517578125" width="17.71875" y="500.8672637939453" x="1006.349365234375" class="er relationshipLabelBox"/><text style="text-anchor: middle; dominant-baseline: middle; font-size: 12px;" y="507.8672790527344" x="1015.208740234375" id="rel7" class="er relationshipLabel">has</text><rect height="14" width="17.71875" y="519.6427001953125" x="103.97557067871094" class="er relationshipLabelBox"/><text style="text-anchor: middle; dominant-baseline: middle; font-size: 12px;" y="526.6427001953125" x="112.83494567871094" id="rel8" class="er relationshipLabel">has</text><rect height="14" width="17.71875" y="513.7454833984375" x="310.0142517089844" class="er relationshipLabelBox"/><text style="text-anchor: middle; dominant-baseline: middle; font-size: 12px;" y="520.7454833984375" x="318.8736267089844" id="rel9" class="er relationshipLabel">has</text><rect height="14" width="17.71875" y="529.7402954101562" x="1080.321533203125" class="er relationshipLabelBox"/><text style="text-anchor: middle; dominant-baseline: middle; font-size: 12px;" y="536.7402954101562" x="1089.180908203125" id="rel10" class="er relationshipLabel">has</text></svg>