<svg aria-roledescription="er" role="graphics-document document" viewBox="0 0 893.2109375 1323.65234375" style="max-width: 893.211px; background-color: white;" xmlns:xlink="http://www.w3.org/1999/xlink" xmlns="http://www.w3.org/2000/svg" width="100%" id="my-svg"><style>#my-svg{font-family:"trebuchet ms",verdana,arial,sans-serif;font-size:16px;fill:#333;}#my-svg .error-icon{fill:#552222;}#my-svg .error-text{fill:#552222;stroke:#552222;}#my-svg .edge-thickness-normal{stroke-width:1px;}#my-svg .edge-thickness-thick{stroke-width:3.5px;}#my-svg .edge-pattern-solid{stroke-dasharray:0;}#my-svg .edge-thickness-invisible{stroke-width:0;fill:none;}#my-svg .edge-pattern-dashed{stroke-dasharray:3;}#my-svg .edge-pattern-dotted{stroke-dasharray:2;}#my-svg .marker{fill:#333333;stroke:#333333;}#my-svg .marker.cross{stroke:#333333;}#my-svg svg{font-family:"trebuchet ms",verdana,arial,sans-serif;font-size:16px;}#my-svg p{margin:0;}#my-svg .entityBox{fill:#ECECFF;stroke:#9370DB;}#my-svg .attributeBoxOdd{fill:#ffffff;stroke:#9370DB;}#my-svg .attributeBoxEven{fill:#f2f2f2;stroke:#9370DB;}#my-svg .relationshipLabelBox{fill:hsl(80, 100%, 96.2745098039%);opacity:0.7;background-color:hsl(80, 100%, 96.2745098039%);}#my-svg .relationshipLabelBox rect{opacity:0.5;}#my-svg .relationshipLine{stroke:#333333;}#my-svg .entityTitleText{text-anchor:middle;font-size:18px;fill:#333;}#my-svg #MD_PARENT_START{fill:#f5f5f5!important;stroke:#333333!important;stroke-width:1;}#my-svg #MD_PARENT_END{fill:#f5f5f5!important;stroke:#333333!important;stroke-width:1;}#my-svg :root{--mermaid-font-family:"trebuchet ms",verdana,arial,sans-serif;}</style><g/><defs><marker orient="auto" markerHeight="240" markerWidth="190" refY="7" refX="0" id="MD_PARENT_START"><path d="M 18,7 L9,13 L1,7 L9,1 Z"/></marker></defs><defs><marker orient="auto" markerHeight="28" markerWidth="20" refY="7" refX="19" id="MD_PARENT_END"><path d="M 18,7 L9,13 L1,7 L9,1 Z"/></marker></defs><defs><marker orient="auto" markerHeight="18" markerWidth="18" refY="9" refX="0" id="ONLY_ONE_START"><path d="M9,0 L9,18 M15,0 L15,18" fill="none" stroke="gray"/></marker></defs><defs><marker orient="auto" markerHeight="18" markerWidth="18" refY="9" refX="18" id="ONLY_ONE_END"><path d="M3,0 L3,18 M9,0 L9,18" fill="none" stroke="gray"/></marker></defs><defs><marker orient="auto" markerHeight="18" markerWidth="30" refY="9" refX="0" id="ZERO_OR_ONE_START"><circle r="6" cy="9" cx="21" fill="white" stroke="gray"/><path d="M9,0 L9,18" fill="none" stroke="gray"/></marker></defs><defs><marker orient="auto" markerHeight="18" markerWidth="30" refY="9" refX="30" id="ZERO_OR_ONE_END"><circle r="6" cy="9" cx="9" fill="white" stroke="gray"/><path d="M21,0 L21,18" fill="none" stroke="gray"/></marker></defs><defs><marker orient="auto" markerHeight="36" markerWidth="45" refY="18" refX="18" id="ONE_OR_MORE_START"><path d="M0,18 Q 18,0 36,18 Q 18,36 0,18 M42,9 L42,27" fill="none" stroke="gray"/></marker></defs><defs><marker orient="auto" markerHeight="36" markerWidth="45" refY="18" refX="27" id="ONE_OR_MORE_END"><path d="M3,9 L3,27 M9,18 Q27,0 45,18 Q27,36 9,18" fill="none" stroke="gray"/></marker></defs><defs><marker orient="auto" markerHeight="36" markerWidth="57" refY="18" refX="18" id="ZERO_OR_MORE_START"><circle r="6" cy="18" cx="48" fill="white" stroke="gray"/><path d="M0,18 Q18,0 36,18 Q18,36 0,18" fill="none" stroke="gray"/></marker></defs><defs><marker orient="auto" markerHeight="36" markerWidth="57" refY="18" refX="39" id="ZERO_OR_MORE_END"><circle r="6" cy="18" cx="9" fill="white" stroke="gray"/><path d="M21,18 Q39,0 57,18 Q39,36 21,18" fill="none" stroke="gray"/></marker></defs><path style="stroke: gray; fill: none;" marker-start="url(#ONLY_ONE_START)" marker-end="url(#ZERO_OR_MORE_END)" d="M494.266,176.459L494.266,184.792C494.266,193.126,494.266,209.792,494.266,237.649C494.266,265.505,494.266,304.551,494.266,343.597C494.266,382.643,494.266,421.688,494.266,455.219C494.266,488.75,494.266,516.765,494.266,544.78C494.266,572.796,494.266,600.811,489.672,623.152C485.078,645.493,475.891,662.16,471.297,670.493L466.704,678.826" class="er relationshipLine"/><path style="stroke: gray; fill: none;" marker-start="url(#ONLY_ONE_START)" marker-end="url(#ZERO_OR_MORE_END)" d="M562.18,163.781L573.003,174.227C583.826,184.673,605.471,205.566,616.294,235.536C627.117,265.505,627.117,304.551,627.117,343.597C627.117,382.643,627.117,421.688,627.117,455.219C627.117,488.75,627.117,516.765,627.117,544.78C627.117,572.796,627.117,600.811,627.117,639.857C627.117,678.903,627.117,728.979,627.117,779.056C627.117,829.132,627.117,879.209,625.559,912.58C624.001,945.952,620.885,962.618,619.327,970.952L617.769,979.285" class="er relationshipLine"/><path style="stroke: gray; fill: none;" marker-start="url(#ONLY_ONE_START)" marker-end="url(#ZERO_OR_MORE_END)" d="M562.18,123.705L607.834,140.831C653.488,157.956,744.797,192.208,790.451,228.856C836.105,265.505,836.105,304.551,836.105,343.597C836.105,382.643,836.105,421.688,836.105,455.219C836.105,488.75,836.105,516.765,836.105,544.78C836.105,572.796,836.105,600.811,836.105,639.857C836.105,678.903,836.105,728.979,836.105,779.056C836.105,829.132,836.105,879.209,834.581,918.088C833.056,956.967,830.006,984.649,828.481,998.49L826.957,1012.331" class="er relationshipLine"/><path style="stroke: gray; fill: none;" marker-start="url(#ONLY_ONE_START)" marker-end="url(#ZERO_OR_MORE_END)" d="M426.352,119.852L370.544,137.62C314.737,155.388,203.122,190.923,147.315,220.706C91.508,250.49,91.508,274.52,91.508,286.535L91.508,298.551" class="er relationshipLine"/><path style="stroke: gray; fill: none;" marker-start="url(#ONLY_ONE_START)" marker-end="url(#ZERO_OR_MORE_END)" d="M426.352,150.81L410.066,163.418C393.781,176.026,361.211,201.243,344.926,222.184C328.641,243.126,328.641,259.792,328.641,268.126L328.641,276.459" class="er relationshipLine"/><path style="stroke: gray; fill: none;" marker-start="url(#ONLY_ONE_START)" marker-end="url(#ZERO_OR_MORE_END)" d="M438.789,879.285L441.062,887.618C443.335,895.952,447.88,912.618,464.292,931.782C480.703,950.945,508.98,972.604,523.119,983.434L537.258,994.263" class="er relationshipLine"/><path style="stroke: gray; fill: none;" marker-start="url(#ONLY_ONE_START)" marker-end="url(#ZERO_OR_MORE_END)" d="M477.156,810.325L518.816,830.152C560.477,849.978,643.797,889.632,696.82,923.299C749.844,956.967,772.571,984.649,783.934,998.49L795.297,1012.331" class="er relationshipLine"/><path style="stroke: gray; fill: none;" marker-start="url(#ONLY_ONE_START)" marker-end="url(#ZERO_OR_MORE_END)" d="M372.072,879.285L368.797,887.618C365.523,895.952,358.974,912.618,355.7,934.785C352.426,956.952,352.426,984.618,352.426,998.452L352.426,1012.285" class="er relationshipLine"/><path style="stroke: gray; fill: none;" marker-start="url(#ONLY_ONE_START)" marker-end="url(#ONE_OR_MORE_END)" d="M352.426,1080.377L352.426,1094.21C352.426,1108.044,352.426,1135.71,352.426,1157.877C352.426,1180.044,352.426,1196.71,352.426,1205.044L352.426,1213.377" class="er relationshipLine"/><path style="stroke: gray; fill: none;" marker-start="url(#ONLY_ONE_START)" marker-end="url(#ZERO_OR_MORE_END)" d="M328.641,410.734L328.641,419.068C328.641,427.401,328.641,444.068,328.641,460.734C328.641,477.401,328.641,494.068,328.641,502.401L328.641,510.734" class="er relationshipLine"/><path style="stroke: gray; fill: none;" marker-start="url(#ONLY_ONE_START)" marker-end="url(#ZERO_OR_MORE_END)" d="M328.641,578.826L328.641,587.16C328.641,595.493,328.641,612.16,333.234,628.826C337.828,645.493,347.015,662.16,351.609,670.493L356.203,678.826" class="er relationshipLine"/><g transform="translate(426.3515625,20 )" id="entity-User-818c511a-4a32-5484-ba70-875d765a9175"><rect height="156.45898914337158" width="135.828125" y="0" x="0" class="er entityBox"/><text style="dominant-baseline: middle; text-anchor: middle; font-size: 12px;" transform="translate(67.9140625,12)" y="0" x="0" id="text-entity-User-818c511a-4a32-5484-ba70-875d765a9175" class="er entityLabel">User</text><rect height="22" width="35.75" y="24" x="0" class="er attributeBoxOdd"/><text style="dominant-baseline: middle; font-size: 10.2px;" transform="translate(5,35)" y="0" x="0" id="text-entity-User-818c511a-4a32-5484-ba70-875d765a9175-attr-1-type" class="er entityLabel">int</text><rect height="22" width="78.515625" y="24" x="35.75" class="er attributeBoxOdd"/><text style="dominant-baseline: middle; font-size: 10.2px;" transform="translate(40.75,35)" y="0" x="0" id="text-entity-User-818c511a-4a32-5484-ba70-875d765a9175-attr-1-name" class="er entityLabel">user_id</text><rect height="22" width="21.5625" y="24" x="114.265625" class="er attributeBoxOdd"/><text style="dominant-baseline: middle; font-size: 10.2px;" transform="translate(119.265625,35)" y="0" x="0" id="text-entity-User-818c511a-4a32-5484-ba70-875d765a9175-attr-1-key" class="er entityLabel">PK</text><rect height="22.091797828674316" width="35.75" y="46" x="0" class="er attributeBoxEven"/><text style="dominant-baseline: middle; font-size: 10.2px;" transform="translate(5,57.04589891433716)" y="0" x="0" id="text-entity-User-818c511a-4a32-5484-ba70-875d765a9175-attr-2-type" class="er entityLabel">string</text><rect height="22.091797828674316" width="78.515625" y="46" x="35.75" class="er attributeBoxEven"/><text style="dominant-baseline: middle; font-size: 10.2px;" transform="translate(40.75,57.04589891433716)" y="0" x="0" id="text-entity-User-818c511a-4a32-5484-ba70-875d765a9175-attr-2-name" class="er entityLabel">username</text><rect height="22.091797828674316" width="21.5625" y="46" x="114.265625" class="er attributeBoxEven"/><text style="dominant-baseline: middle; font-size: 10.2px;" transform="translate(119.265625,57.04589891433716)" y="0" x="0" id="text-entity-User-818c511a-4a32-5484-ba70-875d765a9175-attr-2-key" class="er entityLabel"/><rect height="22.091797828674316" width="35.75" y="68.09179782867432" x="0" class="er attributeBoxOdd"/><text style="dominant-baseline: middle; font-size: 10.2px;" transform="translate(5,79.13769674301147)" y="0" x="0" id="text-entity-User-818c511a-4a32-5484-ba70-875d765a9175-attr-3-type" class="er entityLabel">string</text><rect height="22.091797828674316" width="78.515625" y="68.09179782867432" x="35.75" class="er attributeBoxOdd"/><text style="dominant-baseline: middle; font-size: 10.2px;" transform="translate(40.75,79.13769674301147)" y="0" x="0" id="text-entity-User-818c511a-4a32-5484-ba70-875d765a9175-attr-3-name" class="er entityLabel">email</text><rect height="22.091797828674316" width="21.5625" y="68.09179782867432" x="114.265625" class="er attributeBoxOdd"/><text style="dominant-baseline: middle; font-size: 10.2px;" transform="translate(119.265625,79.13769674301147)" y="0" x="0" id="text-entity-User-818c511a-4a32-5484-ba70-875d765a9175-attr-3-key" class="er entityLabel"/><rect height="22.091797828674316" width="35.75" y="90.18359565734863" x="0" class="er attributeBoxEven"/><text style="dominant-baseline: middle; font-size: 10.2px;" transform="translate(5,101.22949457168579)" y="0" x="0" id="text-entity-User-818c511a-4a32-5484-ba70-875d765a9175-attr-4-type" class="er entityLabel">string</text><rect height="22.091797828674316" width="78.515625" y="90.18359565734863" x="35.75" class="er attributeBoxEven"/><text style="dominant-baseline: middle; font-size: 10.2px;" transform="translate(40.75,101.22949457168579)" y="0" x="0" id="text-entity-User-818c511a-4a32-5484-ba70-875d765a9175-attr-4-name" class="er entityLabel">password</text><rect height="22.091797828674316" width="21.5625" y="90.18359565734863" x="114.265625" class="er attributeBoxEven"/><text style="dominant-baseline: middle; font-size: 10.2px;" transform="translate(119.265625,101.22949457168579)" y="0" x="0" id="text-entity-User-818c511a-4a32-5484-ba70-875d765a9175-attr-4-key" class="er entityLabel"/><rect height="22.091797828674316" width="35.75" y="112.27539348602295" x="0" class="er attributeBoxOdd"/><text style="dominant-baseline: middle; font-size: 10.2px;" transform="translate(5,123.32129240036011)" y="0" x="0" id="text-entity-User-818c511a-4a32-5484-ba70-875d765a9175-attr-5-type" class="er entityLabel">date</text><rect height="22.091797828674316" width="78.515625" y="112.27539348602295" x="35.75" class="er attributeBoxOdd"/><text style="dominant-baseline: middle; font-size: 10.2px;" transform="translate(40.75,123.32129240036011)" y="0" x="0" id="text-entity-User-818c511a-4a32-5484-ba70-875d765a9175-attr-5-name" class="er entityLabel">date_joined</text><rect height="22.091797828674316" width="21.5625" y="112.27539348602295" x="114.265625" class="er attributeBoxOdd"/><text style="dominant-baseline: middle; font-size: 10.2px;" transform="translate(119.265625,123.32129240036011)" y="0" x="0" id="text-entity-User-818c511a-4a32-5484-ba70-875d765a9175-attr-5-key" class="er entityLabel"/><rect height="22.091797828674316" width="35.75" y="134.36719131469727" x="0" class="er attributeBoxEven"/><text style="dominant-baseline: middle; font-size: 10.2px;" transform="translate(5,145.41309022903442)" y="0" x="0" id="text-entity-User-818c511a-4a32-5484-ba70-875d765a9175-attr-6-type" class="er entityLabel">string</text><rect height="22.091797828674316" width="78.515625" y="134.36719131469727" x="35.75" class="er attributeBoxEven"/><text style="dominant-baseline: middle; font-size: 10.2px;" transform="translate(40.75,145.41309022903442)" y="0" x="0" id="text-entity-User-818c511a-4a32-5484-ba70-875d765a9175-attr-6-name" class="er entityLabel">profile_picture</text><rect height="22.091797828674316" width="21.5625" y="134.36719131469727" x="114.265625" class="er attributeBoxEven"/><text style="dominant-baseline: middle; font-size: 10.2px;" transform="translate(119.265625,145.41309022903442)" y="0" x="0" id="text-entity-User-818c511a-4a32-5484-ba70-875d765a9175-attr-6-key" class="er entityLabel"/></g><g transform="translate(345.75,678.826171875 )" id="entity-Video-82b4a79c-b969-5a99-9dc7-f00117579345"><rect height="200.45898818969727" width="131.40625" y="0" x="0" class="er entityBox"/><text style="dominant-baseline: middle; text-anchor: middle; font-size: 12px;" transform="translate(65.703125,12)" y="0" x="0" id="text-entity-Video-82b4a79c-b969-5a99-9dc7-f00117579345" class="er entityLabel">Video</text><rect height="22" width="35.75" y="24" x="0" class="er attributeBoxOdd"/><text style="dominant-baseline: middle; font-size: 10.2px;" transform="translate(5,35)" y="0" x="0" id="text-entity-Video-82b4a79c-b969-5a99-9dc7-f00117579345-attr-1-type" class="er entityLabel">int</text><rect height="22" width="74.09375" y="24" x="35.75" class="er attributeBoxOdd"/><text style="dominant-baseline: middle; font-size: 10.2px;" transform="translate(40.75,35)" y="0" x="0" id="text-entity-Video-82b4a79c-b969-5a99-9dc7-f00117579345-attr-1-name" class="er entityLabel">video_id</text><rect height="22" width="21.5625" y="24" x="109.84375" class="er attributeBoxOdd"/><text style="dominant-baseline: middle; font-size: 10.2px;" transform="translate(114.84375,35)" y="0" x="0" id="text-entity-Video-82b4a79c-b969-5a99-9dc7-f00117579345-attr-1-key" class="er entityLabel">PK</text><rect height="22" width="35.75" y="46" x="0" class="er attributeBoxEven"/><text style="dominant-baseline: middle; font-size: 10.2px;" transform="translate(5,57)" y="0" x="0" id="text-entity-Video-82b4a79c-b969-5a99-9dc7-f00117579345-attr-2-type" class="er entityLabel">int</text><rect height="22" width="74.09375" y="46" x="35.75" class="er attributeBoxEven"/><text style="dominant-baseline: middle; font-size: 10.2px;" transform="translate(40.75,57)" y="0" x="0" id="text-entity-Video-82b4a79c-b969-5a99-9dc7-f00117579345-attr-2-name" class="er entityLabel">user_id</text><rect height="22" width="21.5625" y="46" x="109.84375" class="er attributeBoxEven"/><text style="dominant-baseline: middle; font-size: 10.2px;" transform="translate(114.84375,57)" y="0" x="0" id="text-entity-Video-82b4a79c-b969-5a99-9dc7-f00117579345-attr-2-key" class="er entityLabel">FK</text><rect height="22.091797828674316" width="35.75" y="68" x="0" class="er attributeBoxOdd"/><text style="dominant-baseline: middle; font-size: 10.2px;" transform="translate(5,79.04589891433716)" y="0" x="0" id="text-entity-Video-82b4a79c-b969-5a99-9dc7-f00117579345-attr-3-type" class="er entityLabel">string</text><rect height="22.091797828674316" width="74.09375" y="68" x="35.75" class="er attributeBoxOdd"/><text style="dominant-baseline: middle; font-size: 10.2px;" transform="translate(40.75,79.04589891433716)" y="0" x="0" id="text-entity-Video-82b4a79c-b969-5a99-9dc7-f00117579345-attr-3-name" class="er entityLabel">title</text><rect height="22.091797828674316" width="21.5625" y="68" x="109.84375" class="er attributeBoxOdd"/><text style="dominant-baseline: middle; font-size: 10.2px;" transform="translate(114.84375,79.04589891433716)" y="0" x="0" id="text-entity-Video-82b4a79c-b969-5a99-9dc7-f00117579345-attr-3-key" class="er entityLabel"/><rect height="22.091797828674316" width="35.75" y="90.09179782867432" x="0" class="er attributeBoxEven"/><text style="dominant-baseline: middle; font-size: 10.2px;" transform="translate(5,101.13769674301147)" y="0" x="0" id="text-entity-Video-82b4a79c-b969-5a99-9dc7-f00117579345-attr-4-type" class="er entityLabel">string</text><rect height="22.091797828674316" width="74.09375" y="90.09179782867432" x="35.75" class="er attributeBoxEven"/><text style="dominant-baseline: middle; font-size: 10.2px;" transform="translate(40.75,101.13769674301147)" y="0" x="0" id="text-entity-Video-82b4a79c-b969-5a99-9dc7-f00117579345-attr-4-name" class="er entityLabel">description</text><rect height="22.091797828674316" width="21.5625" y="90.09179782867432" x="109.84375" class="er attributeBoxEven"/><text style="dominant-baseline: middle; font-size: 10.2px;" transform="translate(114.84375,101.13769674301147)" y="0" x="0" id="text-entity-Video-82b4a79c-b969-5a99-9dc7-f00117579345-attr-4-key" class="er entityLabel"/><rect height="22.091796875" width="35.75" y="112.18359565734863" x="0" class="er attributeBoxOdd"/><text style="dominant-baseline: middle; font-size: 10.2px;" transform="translate(5,123.22949409484863)" y="0" x="0" id="text-entity-Video-82b4a79c-b969-5a99-9dc7-f00117579345-attr-5-type" class="er entityLabel">date</text><rect height="22.091796875" width="74.09375" y="112.18359565734863" x="35.75" class="er attributeBoxOdd"/><text style="dominant-baseline: middle; font-size: 10.2px;" transform="translate(40.75,123.22949409484863)" y="0" x="0" id="text-entity-Video-82b4a79c-b969-5a99-9dc7-f00117579345-attr-5-name" class="er entityLabel">upload_date</text><rect height="22.091796875" width="21.5625" y="112.18359565734863" x="109.84375" class="er attributeBoxOdd"/><text style="dominant-baseline: middle; font-size: 10.2px;" transform="translate(114.84375,123.22949409484863)" y="0" x="0" id="text-entity-Video-82b4a79c-b969-5a99-9dc7-f00117579345-attr-5-key" class="er entityLabel"/><rect height="22.091797828674316" width="35.75" y="134.27539253234863" x="0" class="er attributeBoxEven"/><text style="dominant-baseline: middle; font-size: 10.2px;" transform="translate(5,145.3212914466858)" y="0" x="0" id="text-entity-Video-82b4a79c-b969-5a99-9dc7-f00117579345-attr-6-type" class="er entityLabel">string</text><rect height="22.091797828674316" width="74.09375" y="134.27539253234863" x="35.75" class="er attributeBoxEven"/><text style="dominant-baseline: middle; font-size: 10.2px;" transform="translate(40.75,145.3212914466858)" y="0" x="0" id="text-entity-Video-82b4a79c-b969-5a99-9dc7-f00117579345-attr-6-name" class="er entityLabel">video_url</text><rect height="22.091797828674316" width="21.5625" y="134.27539253234863" x="109.84375" class="er attributeBoxEven"/><text style="dominant-baseline: middle; font-size: 10.2px;" transform="translate(114.84375,145.3212914466858)" y="0" x="0" id="text-entity-Video-82b4a79c-b969-5a99-9dc7-f00117579345-attr-6-key" class="er entityLabel"/><rect height="22.091797828674316" width="35.75" y="156.36719036102295" x="0" class="er attributeBoxOdd"/><text style="dominant-baseline: middle; font-size: 10.2px;" transform="translate(5,167.4130892753601)" y="0" x="0" id="text-entity-Video-82b4a79c-b969-5a99-9dc7-f00117579345-attr-7-type" class="er entityLabel">string</text><rect height="22.091797828674316" width="74.09375" y="156.36719036102295" x="35.75" class="er attributeBoxOdd"/><text style="dominant-baseline: middle; font-size: 10.2px;" transform="translate(40.75,167.4130892753601)" y="0" x="0" id="text-entity-Video-82b4a79c-b969-5a99-9dc7-f00117579345-attr-7-name" class="er entityLabel">thumbnail_url</text><rect height="22.091797828674316" width="21.5625" y="156.36719036102295" x="109.84375" class="er attributeBoxOdd"/><text style="dominant-baseline: middle; font-size: 10.2px;" transform="translate(114.84375,167.4130892753601)" y="0" x="0" id="text-entity-Video-82b4a79c-b969-5a99-9dc7-f00117579345-attr-7-key" class="er entityLabel"/><rect height="22" width="35.75" y="178.45898818969727" x="0" class="er attributeBoxEven"/><text style="dominant-baseline: middle; font-size: 10.2px;" transform="translate(5,189.45898818969727)" y="0" x="0" id="text-entity-Video-82b4a79c-b969-5a99-9dc7-f00117579345-attr-8-type" class="er entityLabel">int</text><rect height="22" width="74.09375" y="178.45898818969727" x="35.75" class="er attributeBoxEven"/><text style="dominant-baseline: middle; font-size: 10.2px;" transform="translate(40.75,189.45898818969727)" y="0" x="0" id="text-entity-Video-82b4a79c-b969-5a99-9dc7-f00117579345-attr-8-name" class="er entityLabel">views_count</text><rect height="22" width="21.5625" y="178.45898818969727" x="109.84375" class="er attributeBoxEven"/><text style="dominant-baseline: middle; font-size: 10.2px;" transform="translate(114.84375,189.45898818969727)" y="0" x="0" id="text-entity-Video-82b4a79c-b969-5a99-9dc7-f00117579345-attr-8-key" class="er entityLabel"/></g><g transform="translate(291.99609375,1213.376953125 )" id="entity-Category-1a07ff93-e37c-5c4b-81d2-6cefab6d4eed"><rect height="90.27539348602295" width="120.859375" y="0" x="0" class="er entityBox"/><text style="dominant-baseline: middle; text-anchor: middle; font-size: 12px;" transform="translate(60.4296875,12)" y="0" x="0" id="text-entity-Category-1a07ff93-e37c-5c4b-81d2-6cefab6d4eed" class="er entityLabel">Category</text><rect height="22.091797828674316" width="35.75" y="24" x="0" class="er attributeBoxOdd"/><text style="dominant-baseline: middle; font-size: 10.2px;" transform="translate(5,35.04589891433716)" y="0" x="0" id="text-entity-Category-1a07ff93-e37c-5c4b-81d2-6cefab6d4eed-attr-1-type" class="er entityLabel">int</text><rect height="22.091797828674316" width="63.546875" y="24" x="35.75" class="er attributeBoxOdd"/><text style="dominant-baseline: middle; font-size: 10.2px;" transform="translate(40.75,35.04589891433716)" y="0" x="0" id="text-entity-Category-1a07ff93-e37c-5c4b-81d2-6cefab6d4eed-attr-1-name" class="er entityLabel">category_id</text><rect height="22.091797828674316" width="21.5625" y="24" x="99.296875" class="er attributeBoxOdd"/><text style="dominant-baseline: middle; font-size: 10.2px;" transform="translate(104.296875,35.04589891433716)" y="0" x="0" id="text-entity-Category-1a07ff93-e37c-5c4b-81d2-6cefab6d4eed-attr-1-key" class="er entityLabel">PK</text><rect height="22.091797828674316" width="35.75" y="46.091797828674316" x="0" class="er attributeBoxEven"/><text style="dominant-baseline: middle; font-size: 10.2px;" transform="translate(5,57.137696743011475)" y="0" x="0" id="text-entity-Category-1a07ff93-e37c-5c4b-81d2-6cefab6d4eed-attr-2-type" class="er entityLabel">string</text><rect height="22.091797828674316" width="63.546875" y="46.091797828674316" x="35.75" class="er attributeBoxEven"/><text style="dominant-baseline: middle; font-size: 10.2px;" transform="translate(40.75,57.137696743011475)" y="0" x="0" id="text-entity-Category-1a07ff93-e37c-5c4b-81d2-6cefab6d4eed-attr-2-name" class="er entityLabel">name</text><rect height="22.091797828674316" width="21.5625" y="46.091797828674316" x="99.296875" class="er attributeBoxEven"/><text style="dominant-baseline: middle; font-size: 10.2px;" transform="translate(104.296875,57.137696743011475)" y="0" x="0" id="text-entity-Category-1a07ff93-e37c-5c4b-81d2-6cefab6d4eed-attr-2-key" class="er entityLabel"/><rect height="22.091797828674316" width="35.75" y="68.18359565734863" x="0" class="er attributeBoxOdd"/><text style="dominant-baseline: middle; font-size: 10.2px;" transform="translate(5,79.22949457168579)" y="0" x="0" id="text-entity-Category-1a07ff93-e37c-5c4b-81d2-6cefab6d4eed-attr-3-type" class="er entityLabel">string</text><rect height="22.091797828674316" width="63.546875" y="68.18359565734863" x="35.75" class="er attributeBoxOdd"/><text style="dominant-baseline: middle; font-size: 10.2px;" transform="translate(40.75,79.22949457168579)" y="0" x="0" id="text-entity-Category-1a07ff93-e37c-5c4b-81d2-6cefab6d4eed-attr-3-name" class="er entityLabel">description</text><rect height="22.091797828674316" width="21.5625" y="68.18359565734863" x="99.296875" class="er attributeBoxOdd"/><text style="dominant-baseline: middle; font-size: 10.2px;" transform="translate(104.296875,79.22949457168579)" y="0" x="0" id="text-entity-Category-1a07ff93-e37c-5c4b-81d2-6cefab6d4eed-attr-3-key" class="er entityLabel"/></g><g transform="translate(298.54296875,1012.28515625 )" id="entity-VideoCategory-1a8ca7f0-cb04-5500-bca3-7a474bd09070"><rect height="68.09179782867432" width="107.765625" y="0" x="0" class="er entityBox"/><text style="dominant-baseline: middle; text-anchor: middle; font-size: 12px;" transform="translate(53.8828125,12)" y="0" x="0" id="text-entity-VideoCategory-1a8ca7f0-cb04-5500-bca3-7a474bd09070" class="er entityLabel">VideoCategory</text><rect height="22" width="22.682291666666668" y="24" x="0" class="er attributeBoxOdd"/><text style="dominant-baseline: middle; font-size: 10.2px;" transform="translate(5,35)" y="0" x="0" id="text-entity-VideoCategory-1a8ca7f0-cb04-5500-bca3-7a474bd09070-attr-1-type" class="er entityLabel">int</text><rect height="22" width="63.697916666666664" y="24" x="22.682291666666668" class="er attributeBoxOdd"/><text style="dominant-baseline: middle; font-size: 10.2px;" transform="translate(27.682291666666668,35)" y="0" x="0" id="text-entity-VideoCategory-1a8ca7f0-cb04-5500-bca3-7a474bd09070-attr-1-name" class="er entityLabel">video_id</text><rect height="22" width="21.385416666666668" y="24" x="86.38020833333333" class="er attributeBoxOdd"/><text style="dominant-baseline: middle; font-size: 10.2px;" transform="translate(91.38020833333333,35)" y="0" x="0" id="text-entity-VideoCategory-1a8ca7f0-cb04-5500-bca3-7a474bd09070-attr-1-key" class="er entityLabel">FK</text><rect height="22.091797828674316" width="22.682291666666668" y="46" x="0" class="er attributeBoxEven"/><text style="dominant-baseline: middle; font-size: 10.2px;" transform="translate(5,57.04589891433716)" y="0" x="0" id="text-entity-VideoCategory-1a8ca7f0-cb04-5500-bca3-7a474bd09070-attr-2-type" class="er entityLabel">int</text><rect height="22.091797828674316" width="63.697916666666664" y="46" x="22.682291666666668" class="er attributeBoxEven"/><text style="dominant-baseline: middle; font-size: 10.2px;" transform="translate(27.682291666666668,57.04589891433716)" y="0" x="0" id="text-entity-VideoCategory-1a8ca7f0-cb04-5500-bca3-7a474bd09070-attr-2-name" class="er entityLabel">category_id</text><rect height="22.091797828674316" width="21.385416666666668" y="46" x="86.38020833333333" class="er attributeBoxEven"/><text style="dominant-baseline: middle; font-size: 10.2px;" transform="translate(91.38020833333333,57.04589891433716)" y="0" x="0" id="text-entity-VideoCategory-1a8ca7f0-cb04-5500-bca3-7a474bd09070-attr-2-key" class="er entityLabel">FK</text></g><g transform="translate(537.2578125,979.28515625 )" id="entity-Comment-09a819da-2a79-5b7d-8a84-94cec22d9152"><rect height="134.09179782867432" width="135.953125" y="0" x="0" class="er entityBox"/><text style="dominant-baseline: middle; text-anchor: middle; font-size: 12px;" transform="translate(67.9765625,12)" y="0" x="0" id="text-entity-Comment-09a819da-2a79-5b7d-8a84-94cec22d9152" class="er entityLabel">Comment</text><rect height="22" width="35.75" y="24" x="0" class="er attributeBoxOdd"/><text style="dominant-baseline: middle; font-size: 10.2px;" transform="translate(5,35)" y="0" x="0" id="text-entity-Comment-09a819da-2a79-5b7d-8a84-94cec22d9152-attr-1-type" class="er entityLabel">int</text><rect height="22" width="78.640625" y="24" x="35.75" class="er attributeBoxOdd"/><text style="dominant-baseline: middle; font-size: 10.2px;" transform="translate(40.75,35)" y="0" x="0" id="text-entity-Comment-09a819da-2a79-5b7d-8a84-94cec22d9152-attr-1-name" class="er entityLabel">comment_id</text><rect height="22" width="21.5625" y="24" x="114.390625" class="er attributeBoxOdd"/><text style="dominant-baseline: middle; font-size: 10.2px;" transform="translate(119.390625,35)" y="0" x="0" id="text-entity-Comment-09a819da-2a79-5b7d-8a84-94cec22d9152-attr-1-key" class="er entityLabel">PK</text><rect height="22" width="35.75" y="46" x="0" class="er attributeBoxEven"/><text style="dominant-baseline: middle; font-size: 10.2px;" transform="translate(5,57)" y="0" x="0" id="text-entity-Comment-09a819da-2a79-5b7d-8a84-94cec22d9152-attr-2-type" class="er entityLabel">int</text><rect height="22" width="78.640625" y="46" x="35.75" class="er attributeBoxEven"/><text style="dominant-baseline: middle; font-size: 10.2px;" transform="translate(40.75,57)" y="0" x="0" id="text-entity-Comment-09a819da-2a79-5b7d-8a84-94cec22d9152-attr-2-name" class="er entityLabel">video_id</text><rect height="22" width="21.5625" y="46" x="114.390625" class="er attributeBoxEven"/><text style="dominant-baseline: middle; font-size: 10.2px;" transform="translate(119.390625,57)" y="0" x="0" id="text-entity-Comment-09a819da-2a79-5b7d-8a84-94cec22d9152-attr-2-key" class="er entityLabel">FK</text><rect height="22" width="35.75" y="68" x="0" class="er attributeBoxOdd"/><text style="dominant-baseline: middle; font-size: 10.2px;" transform="translate(5,79)" y="0" x="0" id="text-entity-Comment-09a819da-2a79-5b7d-8a84-94cec22d9152-attr-3-type" class="er entityLabel">int</text><rect height="22" width="78.640625" y="68" x="35.75" class="er attributeBoxOdd"/><text style="dominant-baseline: middle; font-size: 10.2px;" transform="translate(40.75,79)" y="0" x="0" id="text-entity-Comment-09a819da-2a79-5b7d-8a84-94cec22d9152-attr-3-name" class="er entityLabel">user_id</text><rect height="22" width="21.5625" y="68" x="114.390625" class="er attributeBoxOdd"/><text style="dominant-baseline: middle; font-size: 10.2px;" transform="translate(119.390625,79)" y="0" x="0" id="text-entity-Comment-09a819da-2a79-5b7d-8a84-94cec22d9152-attr-3-key" class="er entityLabel">FK</text><rect height="22.091797828674316" width="35.75" y="90" x="0" class="er attributeBoxEven"/><text style="dominant-baseline: middle; font-size: 10.2px;" transform="translate(5,101.04589891433716)" y="0" x="0" id="text-entity-Comment-09a819da-2a79-5b7d-8a84-94cec22d9152-attr-4-type" class="er entityLabel">string</text><rect height="22.091797828674316" width="78.640625" y="90" x="35.75" class="er attributeBoxEven"/><text style="dominant-baseline: middle; font-size: 10.2px;" transform="translate(40.75,101.04589891433716)" y="0" x="0" id="text-entity-Comment-09a819da-2a79-5b7d-8a84-94cec22d9152-attr-4-name" class="er entityLabel">content</text><rect height="22.091797828674316" width="21.5625" y="90" x="114.390625" class="er attributeBoxEven"/><text style="dominant-baseline: middle; font-size: 10.2px;" transform="translate(119.390625,101.04589891433716)" y="0" x="0" id="text-entity-Comment-09a819da-2a79-5b7d-8a84-94cec22d9152-attr-4-key" class="er entityLabel"/><rect height="22" width="35.75" y="112.09179782867432" x="0" class="er attributeBoxOdd"/><text style="dominant-baseline: middle; font-size: 10.2px;" transform="translate(5,123.09179782867432)" y="0" x="0" id="text-entity-Comment-09a819da-2a79-5b7d-8a84-94cec22d9152-attr-5-type" class="er entityLabel">date</text><rect height="22" width="78.640625" y="112.09179782867432" x="35.75" class="er attributeBoxOdd"/><text style="dominant-baseline: middle; font-size: 10.2px;" transform="translate(40.75,123.09179782867432)" y="0" x="0" id="text-entity-Comment-09a819da-2a79-5b7d-8a84-94cec22d9152-attr-5-name" class="er entityLabel">comment_date</text><rect height="22" width="21.5625" y="112.09179782867432" x="114.390625" class="er attributeBoxOdd"/><text style="dominant-baseline: middle; font-size: 10.2px;" transform="translate(119.390625,123.09179782867432)" y="0" x="0" id="text-entity-Comment-09a819da-2a79-5b7d-8a84-94cec22d9152-attr-5-key" class="er entityLabel"/></g><g transform="translate(773.2109375,1012.3310546875 )" id="entity-Like-6caa5495-cba2-51e4-9a2b-227eb19c2a52"><rect height="68" width="100" y="0" x="0" class="er entityBox"/><text style="dominant-baseline: middle; text-anchor: middle; font-size: 12px;" transform="translate(50,12)" y="0" x="0" id="text-entity-Like-6caa5495-cba2-51e4-9a2b-227eb19c2a52" class="er entityLabel">Like</text><rect height="22" width="25.083333333333332" y="24" x="0" class="er attributeBoxOdd"/><text style="dominant-baseline: middle; font-size: 10.2px;" transform="translate(5,35)" y="0" x="0" id="text-entity-Like-6caa5495-cba2-51e4-9a2b-227eb19c2a52-attr-1-type" class="er entityLabel">int</text><rect height="22" width="51.130208333333336" y="24" x="25.083333333333332" class="er attributeBoxOdd"/><text style="dominant-baseline: middle; font-size: 10.2px;" transform="translate(30.083333333333332,35)" y="0" x="0" id="text-entity-Like-6caa5495-cba2-51e4-9a2b-227eb19c2a52-attr-1-name" class="er entityLabel">video_id</text><rect height="22" width="23.786458333333332" y="24" x="76.21354166666667" class="er attributeBoxOdd"/><text style="dominant-baseline: middle; font-size: 10.2px;" transform="translate(81.21354166666667,35)" y="0" x="0" id="text-entity-Like-6caa5495-cba2-51e4-9a2b-227eb19c2a52-attr-1-key" class="er entityLabel">FK</text><rect height="22" width="25.083333333333332" y="46" x="0" class="er attributeBoxEven"/><text style="dominant-baseline: middle; font-size: 10.2px;" transform="translate(5,57)" y="0" x="0" id="text-entity-Like-6caa5495-cba2-51e4-9a2b-227eb19c2a52-attr-2-type" class="er entityLabel">int</text><rect height="22" width="51.130208333333336" y="46" x="25.083333333333332" class="er attributeBoxEven"/><text style="dominant-baseline: middle; font-size: 10.2px;" transform="translate(30.083333333333332,57)" y="0" x="0" id="text-entity-Like-6caa5495-cba2-51e4-9a2b-227eb19c2a52-attr-2-name" class="er entityLabel">user_id</text><rect height="22" width="23.786458333333332" y="46" x="76.21354166666667" class="er attributeBoxEven"/><text style="dominant-baseline: middle; font-size: 10.2px;" transform="translate(81.21354166666667,57)" y="0" x="0" id="text-entity-Like-6caa5495-cba2-51e4-9a2b-227eb19c2a52-attr-2-key" class="er entityLabel">FK</text></g><g transform="translate(20,298.55078125 )" id="entity-Subscription-57a38d08-83cf-5b3e-8b7c-3deeaeab3fc2"><rect height="90.091796875" width="143.015625" y="0" x="0" class="er entityBox"/><text style="dominant-baseline: middle; text-anchor: middle; font-size: 12px;" transform="translate(71.5078125,12)" y="0" x="0" id="text-entity-Subscription-57a38d08-83cf-5b3e-8b7c-3deeaeab3fc2" class="er entityLabel">Subscription</text><rect height="22" width="30.65625" y="24" x="0" class="er attributeBoxOdd"/><text style="dominant-baseline: middle; font-size: 10.2px;" transform="translate(5,35)" y="0" x="0" id="text-entity-Subscription-57a38d08-83cf-5b3e-8b7c-3deeaeab3fc2-attr-1-type" class="er entityLabel">int</text><rect height="22" width="91.125" y="24" x="30.65625" class="er attributeBoxOdd"/><text style="dominant-baseline: middle; font-size: 10.2px;" transform="translate(35.65625,35)" y="0" x="0" id="text-entity-Subscription-57a38d08-83cf-5b3e-8b7c-3deeaeab3fc2-attr-1-name" class="er entityLabel">subscriber_id</text><rect height="22" width="21.234375" y="24" x="121.78125" class="er attributeBoxOdd"/><text style="dominant-baseline: middle; font-size: 10.2px;" transform="translate(126.78125,35)" y="0" x="0" id="text-entity-Subscription-57a38d08-83cf-5b3e-8b7c-3deeaeab3fc2-attr-1-key" class="er entityLabel">FK</text><rect height="22" width="30.65625" y="46" x="0" class="er attributeBoxEven"/><text style="dominant-baseline: middle; font-size: 10.2px;" transform="translate(5,57)" y="0" x="0" id="text-entity-Subscription-57a38d08-83cf-5b3e-8b7c-3deeaeab3fc2-attr-2-type" class="er entityLabel">int</text><rect height="22" width="91.125" y="46" x="30.65625" class="er attributeBoxEven"/><text style="dominant-baseline: middle; font-size: 10.2px;" transform="translate(35.65625,57)" y="0" x="0" id="text-entity-Subscription-57a38d08-83cf-5b3e-8b7c-3deeaeab3fc2-attr-2-name" class="er entityLabel">subscribed_to_id</text><rect height="22" width="21.234375" y="46" x="121.78125" class="er attributeBoxEven"/><text style="dominant-baseline: middle; font-size: 10.2px;" transform="translate(126.78125,57)" y="0" x="0" id="text-entity-Subscription-57a38d08-83cf-5b3e-8b7c-3deeaeab3fc2-attr-2-key" class="er entityLabel">FK</text><rect height="22.091796875" width="30.65625" y="68" x="0" class="er attributeBoxOdd"/><text style="dominant-baseline: middle; font-size: 10.2px;" transform="translate(5,79.0458984375)" y="0" x="0" id="text-entity-Subscription-57a38d08-83cf-5b3e-8b7c-3deeaeab3fc2-attr-3-type" class="er entityLabel">date</text><rect height="22.091796875" width="91.125" y="68" x="30.65625" class="er attributeBoxOdd"/><text style="dominant-baseline: middle; font-size: 10.2px;" transform="translate(35.65625,79.0458984375)" y="0" x="0" id="text-entity-Subscription-57a38d08-83cf-5b3e-8b7c-3deeaeab3fc2-attr-3-name" class="er entityLabel">subscription_date</text><rect height="22.091796875" width="21.234375" y="68" x="121.78125" class="er attributeBoxOdd"/><text style="dominant-baseline: middle; font-size: 10.2px;" transform="translate(126.78125,79.0458984375)" y="0" x="0" id="text-entity-Subscription-57a38d08-83cf-5b3e-8b7c-3deeaeab3fc2-attr-3-key" class="er entityLabel"/></g><g transform="translate(263.015625,276.458984375 )" id="entity-Playlist-4f3cc4d1-d7e6-5e55-b501-e47738b90f51"><rect height="134.27539253234863" width="131.25" y="0" x="0" class="er entityBox"/><text style="dominant-baseline: middle; text-anchor: middle; font-size: 12px;" transform="translate(65.625,12)" y="0" x="0" id="text-entity-Playlist-4f3cc4d1-d7e6-5e55-b501-e47738b90f51" class="er entityLabel">Playlist</text><rect height="22.091796875" width="35.75" y="24" x="0" class="er attributeBoxOdd"/><text style="dominant-baseline: middle; font-size: 10.2px;" transform="translate(5,35.0458984375)" y="0" x="0" id="text-entity-Playlist-4f3cc4d1-d7e6-5e55-b501-e47738b90f51-attr-1-type" class="er entityLabel">int</text><rect height="22.091796875" width="73.9375" y="24" x="35.75" class="er attributeBoxOdd"/><text style="dominant-baseline: middle; font-size: 10.2px;" transform="translate(40.75,35.0458984375)" y="0" x="0" id="text-entity-Playlist-4f3cc4d1-d7e6-5e55-b501-e47738b90f51-attr-1-name" class="er entityLabel">playlist_id</text><rect height="22.091796875" width="21.5625" y="24" x="109.6875" class="er attributeBoxOdd"/><text style="dominant-baseline: middle; font-size: 10.2px;" transform="translate(114.6875,35.0458984375)" y="0" x="0" id="text-entity-Playlist-4f3cc4d1-d7e6-5e55-b501-e47738b90f51-attr-1-key" class="er entityLabel">PK</text><rect height="22" width="35.75" y="46.091796875" x="0" class="er attributeBoxEven"/><text style="dominant-baseline: middle; font-size: 10.2px;" transform="translate(5,57.091796875)" y="0" x="0" id="text-entity-Playlist-4f3cc4d1-d7e6-5e55-b501-e47738b90f51-attr-2-type" class="er entityLabel">int</text><rect height="22" width="73.9375" y="46.091796875" x="35.75" class="er attributeBoxEven"/><text style="dominant-baseline: middle; font-size: 10.2px;" transform="translate(40.75,57.091796875)" y="0" x="0" id="text-entity-Playlist-4f3cc4d1-d7e6-5e55-b501-e47738b90f51-attr-2-name" class="er entityLabel">user_id</text><rect height="22" width="21.5625" y="46.091796875" x="109.6875" class="er attributeBoxEven"/><text style="dominant-baseline: middle; font-size: 10.2px;" transform="translate(114.6875,57.091796875)" y="0" x="0" id="text-entity-Playlist-4f3cc4d1-d7e6-5e55-b501-e47738b90f51-attr-2-key" class="er entityLabel">FK</text><rect height="22.091797828674316" width="35.75" y="68.091796875" x="0" class="er attributeBoxOdd"/><text style="dominant-baseline: middle; font-size: 10.2px;" transform="translate(5,79.13769578933716)" y="0" x="0" id="text-entity-Playlist-4f3cc4d1-d7e6-5e55-b501-e47738b90f51-attr-3-type" class="er entityLabel">string</text><rect height="22.091797828674316" width="73.9375" y="68.091796875" x="35.75" class="er attributeBoxOdd"/><text style="dominant-baseline: middle; font-size: 10.2px;" transform="translate(40.75,79.13769578933716)" y="0" x="0" id="text-entity-Playlist-4f3cc4d1-d7e6-5e55-b501-e47738b90f51-attr-3-name" class="er entityLabel">name</text><rect height="22.091797828674316" width="21.5625" y="68.091796875" x="109.6875" class="er attributeBoxOdd"/><text style="dominant-baseline: middle; font-size: 10.2px;" transform="translate(114.6875,79.13769578933716)" y="0" x="0" id="text-entity-Playlist-4f3cc4d1-d7e6-5e55-b501-e47738b90f51-attr-3-key" class="er entityLabel"/><rect height="22.091797828674316" width="35.75" y="90.18359470367432" x="0" class="er attributeBoxEven"/><text style="dominant-baseline: middle; font-size: 10.2px;" transform="translate(5,101.22949361801147)" y="0" x="0" id="text-entity-Playlist-4f3cc4d1-d7e6-5e55-b501-e47738b90f51-attr-4-type" class="er entityLabel">string</text><rect height="22.091797828674316" width="73.9375" y="90.18359470367432" x="35.75" class="er attributeBoxEven"/><text style="dominant-baseline: middle; font-size: 10.2px;" transform="translate(40.75,101.22949361801147)" y="0" x="0" id="text-entity-Playlist-4f3cc4d1-d7e6-5e55-b501-e47738b90f51-attr-4-name" class="er entityLabel">description</text><rect height="22.091797828674316" width="21.5625" y="90.18359470367432" x="109.6875" class="er attributeBoxEven"/><text style="dominant-baseline: middle; font-size: 10.2px;" transform="translate(114.6875,101.22949361801147)" y="0" x="0" id="text-entity-Playlist-4f3cc4d1-d7e6-5e55-b501-e47738b90f51-attr-4-key" class="er entityLabel"/><rect height="22" width="35.75" y="112.27539253234863" x="0" class="er attributeBoxOdd"/><text style="dominant-baseline: middle; font-size: 10.2px;" transform="translate(5,123.27539253234863)" y="0" x="0" id="text-entity-Playlist-4f3cc4d1-d7e6-5e55-b501-e47738b90f51-attr-5-type" class="er entityLabel">date</text><rect height="22" width="73.9375" y="112.27539253234863" x="35.75" class="er attributeBoxOdd"/><text style="dominant-baseline: middle; font-size: 10.2px;" transform="translate(40.75,123.27539253234863)" y="0" x="0" id="text-entity-Playlist-4f3cc4d1-d7e6-5e55-b501-e47738b90f51-attr-5-name" class="er entityLabel">creation_date</text><rect height="22" width="21.5625" y="112.27539253234863" x="109.6875" class="er attributeBoxOdd"/><text style="dominant-baseline: middle; font-size: 10.2px;" transform="translate(114.6875,123.27539253234863)" y="0" x="0" id="text-entity-Playlist-4f3cc4d1-d7e6-5e55-b501-e47738b90f51-attr-5-key" class="er entityLabel"/></g><g transform="translate(278.1953125,510.734375 )" id="entity-PlaylistVideo-ee67e7d7-8330-5923-94ce-1443e30d948b"><rect height="68.091796875" width="100.890625" y="0" x="0" class="er entityBox"/><text style="dominant-baseline: middle; text-anchor: middle; font-size: 12px;" transform="translate(50.4453125,12)" y="0" x="0" id="text-entity-PlaylistVideo-ee67e7d7-8330-5923-94ce-1443e30d948b" class="er entityLabel">PlaylistVideo</text><rect height="22.091796875" width="22.53125" y="24" x="0" class="er attributeBoxOdd"/><text style="dominant-baseline: middle; font-size: 10.2px;" transform="translate(5,35.0458984375)" y="0" x="0" id="text-entity-PlaylistVideo-ee67e7d7-8330-5923-94ce-1443e30d948b-attr-1-type" class="er entityLabel">int</text><rect height="22.091796875" width="57.125" y="24" x="22.53125" class="er attributeBoxOdd"/><text style="dominant-baseline: middle; font-size: 10.2px;" transform="translate(27.53125,35.0458984375)" y="0" x="0" id="text-entity-PlaylistVideo-ee67e7d7-8330-5923-94ce-1443e30d948b-attr-1-name" class="er entityLabel">playlist_id</text><rect height="22.091796875" width="21.234375" y="24" x="79.65625" class="er attributeBoxOdd"/><text style="dominant-baseline: middle; font-size: 10.2px;" transform="translate(84.65625,35.0458984375)" y="0" x="0" id="text-entity-PlaylistVideo-ee67e7d7-8330-5923-94ce-1443e30d948b-attr-1-key" class="er entityLabel">FK</text><rect height="22" width="22.53125" y="46.091796875" x="0" class="er attributeBoxEven"/><text style="dominant-baseline: middle; font-size: 10.2px;" transform="translate(5,57.091796875)" y="0" x="0" id="text-entity-PlaylistVideo-ee67e7d7-8330-5923-94ce-1443e30d948b-attr-2-type" class="er entityLabel">int</text><rect height="22" width="57.125" y="46.091796875" x="22.53125" class="er attributeBoxEven"/><text style="dominant-baseline: middle; font-size: 10.2px;" transform="translate(27.53125,57.091796875)" y="0" x="0" id="text-entity-PlaylistVideo-ee67e7d7-8330-5923-94ce-1443e30d948b-attr-2-name" class="er entityLabel">video_id</text><rect height="22" width="21.234375" y="46.091796875" x="79.65625" class="er attributeBoxEven"/><text style="dominant-baseline: middle; font-size: 10.2px;" transform="translate(84.65625,57.091796875)" y="0" x="0" id="text-entity-PlaylistVideo-ee67e7d7-8330-5923-94ce-1443e30d948b-attr-2-key" class="er entityLabel">FK</text></g><rect height="14" width="41.078125" y="423.1904296875" x="473.7269287109375" class="er relationshipLabelBox"/><text style="text-anchor: middle; dominant-baseline: middle; font-size: 12px;" y="430.1904296875" x="494.2659912109375" id="rel1" class="er relationshipLabel">uploads</text><rect height="14" width="33.734375" y="554.7521362304688" x="610.2498168945312" class="er relationshipLabelBox"/><text style="text-anchor: middle; dominant-baseline: middle; font-size: 12px;" y="561.7521362304688" x="627.1170043945312" id="rel2" class="er relationshipLabel">makes</text><rect height="14" width="24.421875" y="480.509521484375" x="823.89404296875" class="er relationshipLabelBox"/><text style="text-anchor: middle; dominant-baseline: middle; font-size: 12px;" y="487.509521484375" x="836.10498046875" id="rel3" class="er relationshipLabel">likes</text><rect height="14" width="55.078125" y="175.77626037597656" x="208.9165496826172" class="er relationshipLabelBox"/><text style="text-anchor: middle; dominant-baseline: middle; font-size: 12px;" y="182.77626037597656" x="236.4556121826172" id="rel4" class="er relationshipLabel">subscribes</text><rect height="14" width="39.625" y="196.67990112304688" x="342.1980895996094" class="er relationshipLabelBox"/><text style="text-anchor: middle; dominant-baseline: middle; font-size: 12px;" y="203.67990112304688" x="362.0105895996094" id="rel5" class="er relationshipLabel">creates</text><rect height="14" width="17.71875" y="938.2178955078125" x="468.3025207519531" class="er relationshipLabelBox"/><text style="text-anchor: middle; dominant-baseline: middle; font-size: 12px;" y="945.2178955078125" x="477.1618957519531" id="rel6" class="er relationshipLabel">has</text><rect height="14" width="44.40625" y="887.720458984375" x="625.526611328125" class="er relationshipLabelBox"/><text style="text-anchor: middle; dominant-baseline: middle; font-size: 12px;" y="894.720458984375" x="647.729736328125" id="rel7" class="er relationshipLabel">receives</text><rect height="14" width="58.140625" y="937.5186767578125" x="325.4224853515625" class="er relationshipLabelBox"/><text style="text-anchor: middle; dominant-baseline: middle; font-size: 12px;" y="944.5186767578125" x="354.4927978515625" id="rel8" class="er relationshipLabel">belongs_to</text><rect height="14" width="79.296875" y="1139.876953125" x="312.7775573730469" class="er relationshipLabelBox"/><text style="text-anchor: middle; dominant-baseline: middle; font-size: 12px;" y="1146.876953125" x="352.4259948730469" id="rel9" class="er relationshipLabel">categorized_in</text><rect height="14" width="44.84375" y="453.7340087890625" x="306.2191162109375" class="er relationshipLabelBox"/><text style="text-anchor: middle; dominant-baseline: middle; font-size: 12px;" y="460.7340087890625" x="328.6409912109375" id="rel10" class="er relationshipLabel">contains</text><rect height="14" width="44.109375" y="624.1198120117188" x="311.8399963378906" class="er relationshipLabelBox"/><text style="text-anchor: middle; dominant-baseline: middle; font-size: 12px;" y="631.1198120117188" x="333.8946838378906" id="rel11" class="er relationshipLabel">includes</text></svg>