<svg aria-roledescription="er" role="graphics-document document" viewBox="0 0 600.046875 753.560546875" style="max-width: 600.047px; background-color: white;" xmlns:xlink="http://www.w3.org/1999/xlink" xmlns="http://www.w3.org/2000/svg" width="100%" id="my-svg"><style>#my-svg{font-family:"trebuchet ms",verdana,arial,sans-serif;font-size:16px;fill:#333;}#my-svg .error-icon{fill:#552222;}#my-svg .error-text{fill:#552222;stroke:#552222;}#my-svg .edge-thickness-normal{stroke-width:1px;}#my-svg .edge-thickness-thick{stroke-width:3.5px;}#my-svg .edge-pattern-solid{stroke-dasharray:0;}#my-svg .edge-thickness-invisible{stroke-width:0;fill:none;}#my-svg .edge-pattern-dashed{stroke-dasharray:3;}#my-svg .edge-pattern-dotted{stroke-dasharray:2;}#my-svg .marker{fill:#333333;stroke:#333333;}#my-svg .marker.cross{stroke:#333333;}#my-svg svg{font-family:"trebuchet ms",verdana,arial,sans-serif;font-size:16px;}#my-svg p{margin:0;}#my-svg .entityBox{fill:#ECECFF;stroke:#9370DB;}#my-svg .attributeBoxOdd{fill:#ffffff;stroke:#9370DB;}#my-svg .attributeBoxEven{fill:#f2f2f2;stroke:#9370DB;}#my-svg .relationshipLabelBox{fill:hsl(80, 100%, 96.2745098039%);opacity:0.7;background-color:hsl(80, 100%, 96.2745098039%);}#my-svg .relationshipLabelBox rect{opacity:0.5;}#my-svg .relationshipLine{stroke:#333333;}#my-svg .entityTitleText{text-anchor:middle;font-size:18px;fill:#333;}#my-svg #MD_PARENT_START{fill:#f5f5f5!important;stroke:#333333!important;stroke-width:1;}#my-svg #MD_PARENT_END{fill:#f5f5f5!important;stroke:#333333!important;stroke-width:1;}#my-svg :root{--mermaid-font-family:"trebuchet ms",verdana,arial,sans-serif;}</style><g/><defs><marker orient="auto" markerHeight="240" markerWidth="190" refY="7" refX="0" id="MD_PARENT_START"><path d="M 18,7 L9,13 L1,7 L9,1 Z"/></marker></defs><defs><marker orient="auto" markerHeight="28" markerWidth="20" refY="7" refX="19" id="MD_PARENT_END"><path d="M 18,7 L9,13 L1,7 L9,1 Z"/></marker></defs><defs><marker orient="auto" markerHeight="18" markerWidth="18" refY="9" refX="0" id="ONLY_ONE_START"><path d="M9,0 L9,18 M15,0 L15,18" fill="none" stroke="gray"/></marker></defs><defs><marker orient="auto" markerHeight="18" markerWidth="18" refY="9" refX="18" id="ONLY_ONE_END"><path d="M3,0 L3,18 M9,0 L9,18" fill="none" stroke="gray"/></marker></defs><defs><marker orient="auto" markerHeight="18" markerWidth="30" refY="9" refX="0" id="ZERO_OR_ONE_START"><circle r="6" cy="9" cx="21" fill="white" stroke="gray"/><path d="M9,0 L9,18" fill="none" stroke="gray"/></marker></defs><defs><marker orient="auto" markerHeight="18" markerWidth="30" refY="9" refX="30" id="ZERO_OR_ONE_END"><circle r="6" cy="9" cx="9" fill="white" stroke="gray"/><path d="M21,0 L21,18" fill="none" stroke="gray"/></marker></defs><defs><marker orient="auto" markerHeight="36" markerWidth="45" refY="18" refX="18" id="ONE_OR_MORE_START"><path d="M0,18 Q 18,0 36,18 Q 18,36 0,18 M42,9 L42,27" fill="none" stroke="gray"/></marker></defs><defs><marker orient="auto" markerHeight="36" markerWidth="45" refY="18" refX="27" id="ONE_OR_MORE_END"><path d="M3,9 L3,27 M9,18 Q27,0 45,18 Q27,36 9,18" fill="none" stroke="gray"/></marker></defs><defs><marker orient="auto" markerHeight="36" markerWidth="57" refY="18" refX="18" id="ZERO_OR_MORE_START"><circle r="6" cy="18" cx="48" fill="white" stroke="gray"/><path d="M0,18 Q18,0 36,18 Q18,36 0,18" fill="none" stroke="gray"/></marker></defs><defs><marker orient="auto" markerHeight="36" markerWidth="57" refY="18" refX="39" id="ZERO_OR_MORE_END"><circle r="6" cy="18" cx="9" fill="white" stroke="gray"/><path d="M21,18 Q39,0 57,18 Q39,36 21,18" fill="none" stroke="gray"/></marker></defs><path style="stroke: gray; fill: none;" marker-start="url(#ONE_OR_MORE_START)" marker-end="url(#ONLY_ONE_END)" d="M91.078,587.469L91.078,595.802C91.078,604.135,91.078,620.802,104.199,637.469C117.32,654.135,143.562,670.802,156.683,679.135L169.804,687.469" class="er relationshipLine"/><path style="stroke: gray; fill: none;" marker-start="url(#ONE_OR_MORE_START)" marker-end="url(#ONE_OR_MORE_END)" d="M321.102,477.056L321.102,503.791C321.102,530.527,321.102,583.998,307.981,619.067C294.86,654.135,268.618,670.802,255.497,679.135L242.376,687.469" class="er relationshipLine"/><path style="stroke: gray; fill: none;" marker-start="url(#ONE_OR_MORE_START)" marker-end="url(#ONE_OR_MORE_END)" d="M264.109,102.435L235.271,115.742C206.432,129.049,148.755,155.662,119.917,177.302C91.078,198.942,91.078,215.609,91.078,223.942L91.078,232.275" class="er relationshipLine"/><path style="stroke: gray; fill: none;" marker-start="url(#ONE_OR_MORE_START)" marker-end="url(#ONE_OR_MORE_END)" d="M321.102,132.275L321.102,140.609C321.102,148.942,321.102,165.609,321.102,200.678C321.102,235.746,321.102,289.217,321.102,315.953L321.102,342.688" class="er relationshipLine"/><path style="stroke: gray; fill: none;" marker-start="url(#ONE_OR_MORE_START)" marker-end="url(#ONLY_ONE_END)" d="M378.094,105.088L403.419,117.953C428.745,130.817,479.396,156.546,504.721,201.669C530.047,246.792,530.047,311.309,530.047,343.568L530.047,375.826" class="er relationshipLine"/><g transform="translate(20,232.275390625 )" id="entity-Card-9e7838cd-1b7e-5cf3-ba52-d5a6e65042c6"><rect height="355.1933698654175" width="142.15625" y="0" x="0" class="er entityBox"/><text style="dominant-baseline: middle; text-anchor: middle; font-size: 12px;" transform="translate(71.078125,12)" y="0" x="0" id="text-entity-Card-9e7838cd-1b7e-5cf3-ba52-d5a6e65042c6" class="er entityLabel">Card</text><rect height="22.091797828674316" width="46.046875" y="24" x="0" class="er attributeBoxOdd"/><text style="dominant-baseline: middle; font-size: 10.2px;" transform="translate(5,35.04589891433716)" y="0" x="0" id="text-entity-Card-9e7838cd-1b7e-5cf3-ba52-d5a6e65042c6-attr-1-type" class="er entityLabel">string</text><rect height="22.091797828674316" width="96.109375" y="24" x="46.046875" class="er attributeBoxOdd"/><text style="dominant-baseline: middle; font-size: 10.2px;" transform="translate(51.046875,35.04589891433716)" y="0" x="0" id="text-entity-Card-9e7838cd-1b7e-5cf3-ba52-d5a6e65042c6-attr-1-name" class="er entityLabel">scryfall_id</text><rect height="22.091797828674316" width="46.046875" y="46.091797828674316" x="0" class="er attributeBoxEven"/><text style="dominant-baseline: middle; font-size: 10.2px;" transform="translate(5,57.137696743011475)" y="0" x="0" id="text-entity-Card-9e7838cd-1b7e-5cf3-ba52-d5a6e65042c6-attr-2-type" class="er entityLabel">string</text><rect height="22.091797828674316" width="96.109375" y="46.091797828674316" x="46.046875" class="er attributeBoxEven"/><text style="dominant-baseline: middle; font-size: 10.2px;" transform="translate(51.046875,57.137696743011475)" y="0" x="0" id="text-entity-Card-9e7838cd-1b7e-5cf3-ba52-d5a6e65042c6-attr-2-name" class="er entityLabel">name</text><rect height="22.091797828674316" width="46.046875" y="68.18359565734863" x="0" class="er attributeBoxOdd"/><text style="dominant-baseline: middle; font-size: 10.2px;" transform="translate(5,79.22949457168579)" y="0" x="0" id="text-entity-Card-9e7838cd-1b7e-5cf3-ba52-d5a6e65042c6-attr-3-type" class="er entityLabel">string</text><rect height="22.091797828674316" width="96.109375" y="68.18359565734863" x="46.046875" class="er attributeBoxOdd"/><text style="dominant-baseline: middle; font-size: 10.2px;" transform="translate(51.046875,79.22949457168579)" y="0" x="0" id="text-entity-Card-9e7838cd-1b7e-5cf3-ba52-d5a6e65042c6-attr-3-name" class="er entityLabel">mana_cost</text><rect height="22" width="46.046875" y="90.27539348602295" x="0" class="er attributeBoxEven"/><text style="dominant-baseline: middle; font-size: 10.2px;" transform="translate(5,101.27539348602295)" y="0" x="0" id="text-entity-Card-9e7838cd-1b7e-5cf3-ba52-d5a6e65042c6-attr-4-type" class="er entityLabel">decimal</text><rect height="22" width="96.109375" y="90.27539348602295" x="46.046875" class="er attributeBoxEven"/><text style="dominant-baseline: middle; font-size: 10.2px;" transform="translate(51.046875,101.27539348602295)" y="0" x="0" id="text-entity-Card-9e7838cd-1b7e-5cf3-ba52-d5a6e65042c6-attr-4-name" class="er entityLabel">mana_value</text><rect height="22.091797828674316" width="46.046875" y="112.27539348602295" x="0" class="er attributeBoxOdd"/><text style="dominant-baseline: middle; font-size: 10.2px;" transform="translate(5,123.32129240036011)" y="0" x="0" id="text-entity-Card-9e7838cd-1b7e-5cf3-ba52-d5a6e65042c6-attr-5-type" class="er entityLabel">string</text><rect height="22.091797828674316" width="96.109375" y="112.27539348602295" x="46.046875" class="er attributeBoxOdd"/><text style="dominant-baseline: middle; font-size: 10.2px;" transform="translate(51.046875,123.32129240036011)" y="0" x="0" id="text-entity-Card-9e7838cd-1b7e-5cf3-ba52-d5a6e65042c6-attr-5-name" class="er entityLabel">type_line</text><rect height="22.091797828674316" width="46.046875" y="134.36719131469727" x="0" class="er attributeBoxEven"/><text style="dominant-baseline: middle; font-size: 10.2px;" transform="translate(5,145.41309022903442)" y="0" x="0" id="text-entity-Card-9e7838cd-1b7e-5cf3-ba52-d5a6e65042c6-attr-6-type" class="er entityLabel">string</text><rect height="22.091797828674316" width="96.109375" y="134.36719131469727" x="46.046875" class="er attributeBoxEven"/><text style="dominant-baseline: middle; font-size: 10.2px;" transform="translate(51.046875,145.41309022903442)" y="0" x="0" id="text-entity-Card-9e7838cd-1b7e-5cf3-ba52-d5a6e65042c6-attr-6-name" class="er entityLabel">oracle_text</text><rect height="22.091797828674316" width="46.046875" y="156.45898914337158" x="0" class="er attributeBoxOdd"/><text style="dominant-baseline: middle; font-size: 10.2px;" transform="translate(5,167.50488805770874)" y="0" x="0" id="text-entity-Card-9e7838cd-1b7e-5cf3-ba52-d5a6e65042c6-attr-7-type" class="er entityLabel">string</text><rect height="22.091797828674316" width="96.109375" y="156.45898914337158" x="46.046875" class="er attributeBoxOdd"/><text style="dominant-baseline: middle; font-size: 10.2px;" transform="translate(51.046875,167.50488805770874)" y="0" x="0" id="text-entity-Card-9e7838cd-1b7e-5cf3-ba52-d5a6e65042c6-attr-7-name" class="er entityLabel">keywords</text><rect height="22.091796875" width="46.046875" y="178.5507869720459" x="0" class="er attributeBoxEven"/><text style="dominant-baseline: middle; font-size: 10.2px;" transform="translate(5,189.5966854095459)" y="0" x="0" id="text-entity-Card-9e7838cd-1b7e-5cf3-ba52-d5a6e65042c6-attr-8-type" class="er entityLabel">int</text><rect height="22.091796875" width="96.109375" y="178.5507869720459" x="46.046875" class="er attributeBoxEven"/><text style="dominant-baseline: middle; font-size: 10.2px;" transform="translate(51.046875,189.5966854095459)" y="0" x="0" id="text-entity-Card-9e7838cd-1b7e-5cf3-ba52-d5a6e65042c6-attr-8-name" class="er entityLabel">power</text><rect height="22.091796875" width="46.046875" y="200.6425838470459" x="0" class="er attributeBoxOdd"/><text style="dominant-baseline: middle; font-size: 10.2px;" transform="translate(5,211.6884822845459)" y="0" x="0" id="text-entity-Card-9e7838cd-1b7e-5cf3-ba52-d5a6e65042c6-attr-9-type" class="er entityLabel">int</text><rect height="22.091796875" width="96.109375" y="200.6425838470459" x="46.046875" class="er attributeBoxOdd"/><text style="dominant-baseline: middle; font-size: 10.2px;" transform="translate(51.046875,211.6884822845459)" y="0" x="0" id="text-entity-Card-9e7838cd-1b7e-5cf3-ba52-d5a6e65042c6-attr-9-name" class="er entityLabel">toughness</text><rect height="22.091797828674316" width="46.046875" y="222.7343807220459" x="0" class="er attributeBoxEven"/><text style="dominant-baseline: middle; font-size: 10.2px;" transform="translate(5,233.78027963638306)" y="0" x="0" id="text-entity-Card-9e7838cd-1b7e-5cf3-ba52-d5a6e65042c6-attr-10-type" class="er entityLabel">string</text><rect height="22.091797828674316" width="96.109375" y="222.7343807220459" x="46.046875" class="er attributeBoxEven"/><text style="dominant-baseline: middle; font-size: 10.2px;" transform="translate(51.046875,233.78027963638306)" y="0" x="0" id="text-entity-Card-9e7838cd-1b7e-5cf3-ba52-d5a6e65042c6-attr-10-name" class="er entityLabel">color_identity</text><rect height="22.091797828674316" width="46.046875" y="244.82617855072021" x="0" class="er attributeBoxOdd"/><text style="dominant-baseline: middle; font-size: 10.2px;" transform="translate(5,255.87207746505737)" y="0" x="0" id="text-entity-Card-9e7838cd-1b7e-5cf3-ba52-d5a6e65042c6-attr-11-type" class="er entityLabel">string</text><rect height="22.091797828674316" width="96.109375" y="244.82617855072021" x="46.046875" class="er attributeBoxOdd"/><text style="dominant-baseline: middle; font-size: 10.2px;" transform="translate(51.046875,255.87207746505737)" y="0" x="0" id="text-entity-Card-9e7838cd-1b7e-5cf3-ba52-d5a6e65042c6-attr-11-name" class="er entityLabel">set_name</text><rect height="22.091797828674316" width="46.046875" y="266.91797637939453" x="0" class="er attributeBoxEven"/><text style="dominant-baseline: middle; font-size: 10.2px;" transform="translate(5,277.9638752937317)" y="0" x="0" id="text-entity-Card-9e7838cd-1b7e-5cf3-ba52-d5a6e65042c6-attr-12-type" class="er entityLabel">string</text><rect height="22.091797828674316" width="96.109375" y="266.91797637939453" x="46.046875" class="er attributeBoxEven"/><text style="dominant-baseline: middle; font-size: 10.2px;" transform="translate(51.046875,277.9638752937317)" y="0" x="0" id="text-entity-Card-9e7838cd-1b7e-5cf3-ba52-d5a6e65042c6-attr-12-name" class="er entityLabel">rarity</text><rect height="22" width="46.046875" y="289.00977420806885" x="0" class="er attributeBoxOdd"/><text style="dominant-baseline: middle; font-size: 10.2px;" transform="translate(5,300.00977420806885)" y="0" x="0" id="text-entity-Card-9e7838cd-1b7e-5cf3-ba52-d5a6e65042c6-attr-13-type" class="er entityLabel">int</text><rect height="22" width="96.109375" y="289.00977420806885" x="46.046875" class="er attributeBoxOdd"/><text style="dominant-baseline: middle; font-size: 10.2px;" transform="translate(51.046875,300.00977420806885)" y="0" x="0" id="text-entity-Card-9e7838cd-1b7e-5cf3-ba52-d5a6e65042c6-attr-13-name" class="er entityLabel">edhrec_rank</text><rect height="22.091797828674316" width="46.046875" y="311.00977420806885" x="0" class="er attributeBoxEven"/><text style="dominant-baseline: middle; font-size: 10.2px;" transform="translate(5,322.055673122406)" y="0" x="0" id="text-entity-Card-9e7838cd-1b7e-5cf3-ba52-d5a6e65042c6-attr-14-type" class="er entityLabel">string</text><rect height="22.091797828674316" width="96.109375" y="311.00977420806885" x="46.046875" class="er attributeBoxEven"/><text style="dominant-baseline: middle; font-size: 10.2px;" transform="translate(51.046875,322.055673122406)" y="0" x="0" id="text-entity-Card-9e7838cd-1b7e-5cf3-ba52-d5a6e65042c6-attr-14-name" class="er entityLabel">img_url</text><rect height="22.091797828674316" width="46.046875" y="333.10157203674316" x="0" class="er attributeBoxOdd"/><text style="dominant-baseline: middle; font-size: 10.2px;" transform="translate(5,344.1474709510803)" y="0" x="0" id="text-entity-Card-9e7838cd-1b7e-5cf3-ba52-d5a6e65042c6-attr-15-type" class="er entityLabel">json</text><rect height="22.091797828674316" width="96.109375" y="333.10157203674316" x="46.046875" class="er attributeBoxOdd"/><text style="dominant-baseline: middle; font-size: 10.2px;" transform="translate(51.046875,344.1474709510803)" y="0" x="0" id="text-entity-Card-9e7838cd-1b7e-5cf3-ba52-d5a6e65042c6-attr-15-name" class="er entityLabel">archetype_weights</text></g><g transform="translate(262.15625,342.6884765625 )" id="entity-Archetype-b33f9265-2ef5-59fc-95f7-f5d2dd0e1a6d"><rect height="134.36719131469727" width="117.890625" y="0" x="0" class="er entityBox"/><text style="dominant-baseline: middle; text-anchor: middle; font-size: 12px;" transform="translate(58.9453125,12)" y="0" x="0" id="text-entity-Archetype-b33f9265-2ef5-59fc-95f7-f5d2dd0e1a6d" class="er entityLabel">Archetype</text><rect height="22" width="35.75" y="24" x="0" class="er attributeBoxOdd"/><text style="dominant-baseline: middle; font-size: 10.2px;" transform="translate(5,35)" y="0" x="0" id="text-entity-Archetype-b33f9265-2ef5-59fc-95f7-f5d2dd0e1a6d-attr-1-type" class="er entityLabel">int</text><rect height="22" width="82.140625" y="24" x="35.75" class="er attributeBoxOdd"/><text style="dominant-baseline: middle; font-size: 10.2px;" transform="translate(40.75,35)" y="0" x="0" id="text-entity-Archetype-b33f9265-2ef5-59fc-95f7-f5d2dd0e1a6d-attr-1-name" class="er entityLabel">id</text><rect height="22.091797828674316" width="35.75" y="46" x="0" class="er attributeBoxEven"/><text style="dominant-baseline: middle; font-size: 10.2px;" transform="translate(5,57.04589891433716)" y="0" x="0" id="text-entity-Archetype-b33f9265-2ef5-59fc-95f7-f5d2dd0e1a6d-attr-2-type" class="er entityLabel">string</text><rect height="22.091797828674316" width="82.140625" y="46" x="35.75" class="er attributeBoxEven"/><text style="dominant-baseline: middle; font-size: 10.2px;" transform="translate(40.75,57.04589891433716)" y="0" x="0" id="text-entity-Archetype-b33f9265-2ef5-59fc-95f7-f5d2dd0e1a6d-attr-2-name" class="er entityLabel">name</text><rect height="22.091797828674316" width="35.75" y="68.09179782867432" x="0" class="er attributeBoxOdd"/><text style="dominant-baseline: middle; font-size: 10.2px;" transform="translate(5,79.13769674301147)" y="0" x="0" id="text-entity-Archetype-b33f9265-2ef5-59fc-95f7-f5d2dd0e1a6d-attr-3-type" class="er entityLabel">string</text><rect height="22.091797828674316" width="82.140625" y="68.09179782867432" x="35.75" class="er attributeBoxOdd"/><text style="dominant-baseline: middle; font-size: 10.2px;" transform="translate(40.75,79.13769674301147)" y="0" x="0" id="text-entity-Archetype-b33f9265-2ef5-59fc-95f7-f5d2dd0e1a6d-attr-3-name" class="er entityLabel">description</text><rect height="22.091797828674316" width="35.75" y="90.18359565734863" x="0" class="er attributeBoxEven"/><text style="dominant-baseline: middle; font-size: 10.2px;" transform="translate(5,101.22949457168579)" y="0" x="0" id="text-entity-Archetype-b33f9265-2ef5-59fc-95f7-f5d2dd0e1a6d-attr-4-type" class="er entityLabel">json</text><rect height="22.091797828674316" width="82.140625" y="90.18359565734863" x="35.75" class="er attributeBoxEven"/><text style="dominant-baseline: middle; font-size: 10.2px;" transform="translate(40.75,101.22949457168579)" y="0" x="0" id="text-entity-Archetype-b33f9265-2ef5-59fc-95f7-f5d2dd0e1a6d-attr-4-name" class="er entityLabel">keywords</text><rect height="22.091797828674316" width="35.75" y="112.27539348602295" x="0" class="er attributeBoxOdd"/><text style="dominant-baseline: middle; font-size: 10.2px;" transform="translate(5,123.32129240036011)" y="0" x="0" id="text-entity-Archetype-b33f9265-2ef5-59fc-95f7-f5d2dd0e1a6d-attr-5-type" class="er entityLabel">json</text><rect height="22.091797828674316" width="82.140625" y="112.27539348602295" x="35.75" class="er attributeBoxOdd"/><text style="dominant-baseline: middle; font-size: 10.2px;" transform="translate(40.75,123.32129240036011)" y="0" x="0" id="text-entity-Archetype-b33f9265-2ef5-59fc-95f7-f5d2dd0e1a6d-attr-5-name" class="er entityLabel">oracle_patterns</text></g><g transform="translate(155.96484375,687.46875 )" id="entity-ColorIdentity-519108ca-374f-5a79-bc85-5192b672ddf0"><rect height="46.091797828674316" width="100.25" y="0" x="0" class="er entityBox"/><text style="dominant-baseline: middle; text-anchor: middle; font-size: 12px;" transform="translate(50.125,12)" y="0" x="0" id="text-entity-ColorIdentity-519108ca-374f-5a79-bc85-5192b672ddf0" class="er entityLabel">ColorIdentity</text><rect height="22.091797828674316" width="49.4453125" y="24" x="0" class="er attributeBoxOdd"/><text style="dominant-baseline: middle; font-size: 10.2px;" transform="translate(5,35.04589891433716)" y="0" x="0" id="text-entity-ColorIdentity-519108ca-374f-5a79-bc85-5192b672ddf0-attr-1-type" class="er entityLabel">string</text><rect height="22.091797828674316" width="50.8046875" y="24" x="49.4453125" class="er attributeBoxOdd"/><text style="dominant-baseline: middle; font-size: 10.2px;" transform="translate(54.4453125,35.04589891433716)" y="0" x="0" id="text-entity-ColorIdentity-519108ca-374f-5a79-bc85-5192b672ddf0-attr-1-name" class="er entityLabel">colors</text></g><g transform="translate(264.109375,20 )" id="entity-Cube-f6e639a2-9593-5d3c-8c34-69c56598bb15"><rect height="112.27539253234863" width="113.984375" y="0" x="0" class="er entityBox"/><text style="dominant-baseline: middle; text-anchor: middle; font-size: 12px;" transform="translate(56.9921875,12)" y="0" x="0" id="text-entity-Cube-f6e639a2-9593-5d3c-8c34-69c56598bb15" class="er entityLabel">Cube</text><rect height="22.091797828674316" width="51.640625" y="24" x="0" class="er attributeBoxOdd"/><text style="dominant-baseline: middle; font-size: 10.2px;" transform="translate(5,35.04589891433716)" y="0" x="0" id="text-entity-Cube-f6e639a2-9593-5d3c-8c34-69c56598bb15-attr-1-type" class="er entityLabel">string</text><rect height="22.091797828674316" width="62.34375" y="24" x="51.640625" class="er attributeBoxOdd"/><text style="dominant-baseline: middle; font-size: 10.2px;" transform="translate(56.640625,35.04589891433716)" y="0" x="0" id="text-entity-Cube-f6e639a2-9593-5d3c-8c34-69c56598bb15-attr-1-name" class="er entityLabel">name</text><rect height="22.091797828674316" width="51.640625" y="46.091797828674316" x="0" class="er attributeBoxEven"/><text style="dominant-baseline: middle; font-size: 10.2px;" transform="translate(5,57.137696743011475)" y="0" x="0" id="text-entity-Cube-f6e639a2-9593-5d3c-8c34-69c56598bb15-attr-2-type" class="er entityLabel">string</text><rect height="22.091797828674316" width="62.34375" y="46.091797828674316" x="51.640625" class="er attributeBoxEven"/><text style="dominant-baseline: middle; font-size: 10.2px;" transform="translate(56.640625,57.137696743011475)" y="0" x="0" id="text-entity-Cube-f6e639a2-9593-5d3c-8c34-69c56598bb15-attr-2-name" class="er entityLabel">description</text><rect height="22" width="51.640625" y="68.18359565734863" x="0" class="er attributeBoxOdd"/><text style="dominant-baseline: middle; font-size: 10.2px;" transform="translate(5,79.18359565734863)" y="0" x="0" id="text-entity-Cube-f6e639a2-9593-5d3c-8c34-69c56598bb15-attr-3-type" class="er entityLabel">datetime</text><rect height="22" width="62.34375" y="68.18359565734863" x="51.640625" class="er attributeBoxOdd"/><text style="dominant-baseline: middle; font-size: 10.2px;" transform="translate(56.640625,79.18359565734863)" y="0" x="0" id="text-entity-Cube-f6e639a2-9593-5d3c-8c34-69c56598bb15-attr-3-name" class="er entityLabel">created_at</text><rect height="22.091796875" width="51.640625" y="90.18359565734863" x="0" class="er attributeBoxEven"/><text style="dominant-baseline: middle; font-size: 10.2px;" transform="translate(5,101.22949409484863)" y="0" x="0" id="text-entity-Cube-f6e639a2-9593-5d3c-8c34-69c56598bb15-attr-4-type" class="er entityLabel">datetime</text><rect height="22.091796875" width="62.34375" y="90.18359565734863" x="51.640625" class="er attributeBoxEven"/><text style="dominant-baseline: middle; font-size: 10.2px;" transform="translate(56.640625,101.22949409484863)" y="0" x="0" id="text-entity-Cube-f6e639a2-9593-5d3c-8c34-69c56598bb15-attr-4-name" class="er entityLabel">updated_at</text></g><g transform="translate(480.046875,375.826171875 )" id="entity-User-818c511a-4a32-5484-ba70-875d765a9175"><rect height="68.09179782867432" width="100" y="0" x="0" class="er entityBox"/><text style="dominant-baseline: middle; text-anchor: middle; font-size: 12px;" transform="translate(50,12)" y="0" x="0" id="text-entity-User-818c511a-4a32-5484-ba70-875d765a9175" class="er entityLabel">User</text><rect height="22" width="40.7734375" y="24" x="0" class="er attributeBoxOdd"/><text style="dominant-baseline: middle; font-size: 10.2px;" transform="translate(5,35)" y="0" x="0" id="text-entity-User-818c511a-4a32-5484-ba70-875d765a9175-attr-1-type" class="er entityLabel">int</text><rect height="22" width="59.2265625" y="24" x="40.7734375" class="er attributeBoxOdd"/><text style="dominant-baseline: middle; font-size: 10.2px;" transform="translate(45.7734375,35)" y="0" x="0" id="text-entity-User-818c511a-4a32-5484-ba70-875d765a9175-attr-1-name" class="er entityLabel">id</text><rect height="22.091797828674316" width="40.7734375" y="46" x="0" class="er attributeBoxEven"/><text style="dominant-baseline: middle; font-size: 10.2px;" transform="translate(5,57.04589891433716)" y="0" x="0" id="text-entity-User-818c511a-4a32-5484-ba70-875d765a9175-attr-2-type" class="er entityLabel">string</text><rect height="22.091797828674316" width="59.2265625" y="46" x="40.7734375" class="er attributeBoxEven"/><text style="dominant-baseline: middle; font-size: 10.2px;" transform="translate(45.7734375,57.04589891433716)" y="0" x="0" id="text-entity-User-818c511a-4a32-5484-ba70-875d765a9175-attr-2-name" class="er entityLabel">username</text></g><rect height="14" width="17.71875" y="641.3355712890625" x="105.5771713256836" class="er relationshipLabelBox"/><text style="text-anchor: middle; dominant-baseline: middle; font-size: 12px;" y="648.3355712890625" x="114.4365463256836" id="rel1" class="er relationshipLabel">has</text><rect height="14" width="81.21875" y="589.7465209960938" x="273.65643310546875" class="er relationshipLabelBox"/><text style="text-anchor: middle; dominant-baseline: middle; font-size: 12px;" y="596.7465209960938" x="314.26580810546875" id="rel2" class="er relationshipLabel">possible_colors</text><rect height="14" width="44.84375" y="144.9124755859375" x="138.89675903320312" class="er relationshipLabelBox"/><text style="text-anchor: middle; dominant-baseline: middle; font-size: 12px;" y="151.9124755859375" x="161.31863403320312" id="rel3" class="er relationshipLabel">contains</text><rect height="14" width="45.515625" y="230.4814910888672" x="298.34417724609375" class="er relationshipLabelBox"/><text style="text-anchor: middle; dominant-baseline: middle; font-size: 12px;" y="237.4814910888672" x="321.10198974609375" id="rel4" class="er relationshipLabel">supports</text><rect height="14" width="54.0625" y="201.81935119628906" x="481.4196472167969" class="er relationshipLabelBox"/><text style="text-anchor: middle; dominant-baseline: middle; font-size: 12px;" y="208.81935119628906" x="508.4508972167969" id="rel5" class="er relationshipLabel">owned_by</text></svg>