<svg aria-roledescription="er" role="graphics-document document" viewBox="0 0 946.7109375 1308.91796875" style="max-width: 946.711px; background-color: white;" xmlns:xlink="http://www.w3.org/1999/xlink" xmlns="http://www.w3.org/2000/svg" width="100%" id="my-svg"><style>#my-svg{font-family:"trebuchet ms",verdana,arial,sans-serif;font-size:16px;fill:#333;}#my-svg .error-icon{fill:#552222;}#my-svg .error-text{fill:#552222;stroke:#552222;}#my-svg .edge-thickness-normal{stroke-width:1px;}#my-svg .edge-thickness-thick{stroke-width:3.5px;}#my-svg .edge-pattern-solid{stroke-dasharray:0;}#my-svg .edge-thickness-invisible{stroke-width:0;fill:none;}#my-svg .edge-pattern-dashed{stroke-dasharray:3;}#my-svg .edge-pattern-dotted{stroke-dasharray:2;}#my-svg .marker{fill:#333333;stroke:#333333;}#my-svg .marker.cross{stroke:#333333;}#my-svg svg{font-family:"trebuchet ms",verdana,arial,sans-serif;font-size:16px;}#my-svg p{margin:0;}#my-svg .entityBox{fill:#ECECFF;stroke:#9370DB;}#my-svg .attributeBoxOdd{fill:#ffffff;stroke:#9370DB;}#my-svg .attributeBoxEven{fill:#f2f2f2;stroke:#9370DB;}#my-svg .relationshipLabelBox{fill:hsl(80, 100%, 96.2745098039%);opacity:0.7;background-color:hsl(80, 100%, 96.2745098039%);}#my-svg .relationshipLabelBox rect{opacity:0.5;}#my-svg .relationshipLine{stroke:#333333;}#my-svg .entityTitleText{text-anchor:middle;font-size:18px;fill:#333;}#my-svg #MD_PARENT_START{fill:#f5f5f5!important;stroke:#333333!important;stroke-width:1;}#my-svg #MD_PARENT_END{fill:#f5f5f5!important;stroke:#333333!important;stroke-width:1;}#my-svg :root{--mermaid-font-family:"trebuchet ms",verdana,arial,sans-serif;}</style><g/><defs><marker orient="auto" markerHeight="240" markerWidth="190" refY="7" refX="0" id="MD_PARENT_START"><path d="M 18,7 L9,13 L1,7 L9,1 Z"/></marker></defs><defs><marker orient="auto" markerHeight="28" markerWidth="20" refY="7" refX="19" id="MD_PARENT_END"><path d="M 18,7 L9,13 L1,7 L9,1 Z"/></marker></defs><defs><marker orient="auto" markerHeight="18" markerWidth="18" refY="9" refX="0" id="ONLY_ONE_START"><path d="M9,0 L9,18 M15,0 L15,18" fill="none" stroke="gray"/></marker></defs><defs><marker orient="auto" markerHeight="18" markerWidth="18" refY="9" refX="18" id="ONLY_ONE_END"><path d="M3,0 L3,18 M9,0 L9,18" fill="none" stroke="gray"/></marker></defs><defs><marker orient="auto" markerHeight="18" markerWidth="30" refY="9" refX="0" id="ZERO_OR_ONE_START"><circle r="6" cy="9" cx="21" fill="white" stroke="gray"/><path d="M9,0 L9,18" fill="none" stroke="gray"/></marker></defs><defs><marker orient="auto" markerHeight="18" markerWidth="30" refY="9" refX="30" id="ZERO_OR_ONE_END"><circle r="6" cy="9" cx="9" fill="white" stroke="gray"/><path d="M21,0 L21,18" fill="none" stroke="gray"/></marker></defs><defs><marker orient="auto" markerHeight="36" markerWidth="45" refY="18" refX="18" id="ONE_OR_MORE_START"><path d="M0,18 Q 18,0 36,18 Q 18,36 0,18 M42,9 L42,27" fill="none" stroke="gray"/></marker></defs><defs><marker orient="auto" markerHeight="36" markerWidth="45" refY="18" refX="27" id="ONE_OR_MORE_END"><path d="M3,9 L3,27 M9,18 Q27,0 45,18 Q27,36 9,18" fill="none" stroke="gray"/></marker></defs><defs><marker orient="auto" markerHeight="36" markerWidth="57" refY="18" refX="18" id="ZERO_OR_MORE_START"><circle r="6" cy="18" cx="48" fill="white" stroke="gray"/><path d="M0,18 Q18,0 36,18 Q18,36 0,18" fill="none" stroke="gray"/></marker></defs><defs><marker orient="auto" markerHeight="36" markerWidth="57" refY="18" refX="39" id="ZERO_OR_MORE_END"><circle r="6" cy="18" cx="9" fill="white" stroke="gray"/><path d="M21,18 Q39,0 57,18 Q39,36 21,18" fill="none" stroke="gray"/></marker></defs><path style="stroke: gray; fill: none;" marker-start="url(#ONLY_ONE_START)" marker-end="url(#ZERO_OR_MORE_END)" d="M424.613,142.17L368.423,163.536C312.232,184.902,199.85,227.635,143.66,257.334C87.469,287.034,87.469,303.701,87.469,312.034L87.469,320.367" class="er relationshipLine"/><path style="stroke: gray; fill: none;" marker-start="url(#ONLY_ONE_START)" marker-end="url(#ONE_OR_MORE_END)" d="M87.469,520.643L87.469,528.976C87.469,537.309,87.469,553.976,87.469,570.643C87.469,587.309,87.469,603.976,87.469,612.309L87.469,620.643" class="er relationshipLine"/><path style="stroke: gray; fill: none;" marker-start="url(#ONLY_ONE_START)" marker-end="url(#ZERO_OR_MORE_END)" d="M424.613,173.654L407.183,189.773C389.753,205.891,354.892,238.129,337.462,279.271C320.031,320.413,320.031,370.459,320.031,420.505C320.031,470.551,320.031,520.597,320.031,555.794C320.031,590.991,320.031,611.34,320.031,621.514L320.031,631.688" class="er relationshipLine"/><path style="stroke: gray; fill: none;" marker-start="url(#ONE_OR_MORE_START)" marker-end="url(#ONLY_ONE_END)" d="M320.031,765.688L320.031,775.863C320.031,786.037,320.031,806.386,351.754,835.864C383.477,865.342,446.922,903.951,478.645,923.255L510.367,942.559" class="er relationshipLine"/><path style="stroke: gray; fill: none;" marker-start="url(#ONLY_ONE_START)" marker-end="url(#ZERO_OR_MORE_END)" d="M538.632,220.367L543.307,228.701C547.981,237.034,557.33,253.701,562.005,270.382C566.68,287.064,566.68,303.762,566.68,312.11L566.68,320.459" class="er relationshipLine"/><path style="stroke: gray; fill: none;" marker-start="url(#ONE_OR_MORE_START)" marker-end="url(#ONLY_ONE_END)" d="M618.76,520.551L623.106,528.899C627.452,537.248,636.144,553.945,640.49,572.461C644.836,590.976,644.836,611.309,644.836,621.476L644.836,631.643" class="er relationshipLine"/><path style="stroke: gray; fill: none;" marker-start="url(#ONLY_ONE_START)" marker-end="url(#ZERO_OR_MORE_END)" d="M514.599,520.551L510.253,528.899C505.907,537.248,497.215,553.945,492.869,583.635C488.523,613.325,488.523,656.007,488.523,698.688C488.523,741.37,488.523,784.052,492.863,813.727C497.202,843.401,505.881,860.068,510.22,868.401L514.56,876.734" class="er relationshipLine"/><path style="stroke: gray; fill: none;" marker-start="url(#ONLY_ONE_START)" marker-end="url(#ONE_OR_MORE_END)" d="M644.836,765.734L644.836,775.901C644.836,786.068,644.836,806.401,640.497,824.901C636.157,843.401,627.479,860.068,623.139,868.401L618.8,876.734" class="er relationshipLine"/><path style="stroke: gray; fill: none;" marker-start="url(#ONLY_ONE_START)" marker-end="url(#ONLY_ONE_END)" d="M566.68,1076.918L566.68,1085.251C566.68,1093.585,566.68,1110.251,566.68,1126.918C566.68,1143.585,566.68,1160.251,566.68,1168.585L566.68,1176.918" class="er relationshipLine"/><path style="stroke: gray; fill: none;" marker-start="url(#ONLY_ONE_START)" marker-end="url(#ZERO_OR_MORE_END)" d="M540.254,142.946L594.2,164.183C648.146,185.42,756.038,227.893,809.984,274.153C863.93,320.413,863.93,370.459,863.93,420.505C863.93,470.551,863.93,520.597,863.93,555.794C863.93,590.991,863.93,611.34,863.93,621.514L863.93,631.688" class="er relationshipLine"/><path style="stroke: gray; fill: none;" marker-start="url(#ONE_OR_MORE_START)" marker-end="url(#ONLY_ONE_END)" d="M863.93,765.688L863.93,775.863C863.93,786.037,863.93,806.386,823.773,836.836C783.617,867.287,703.305,907.839,663.148,928.116L622.992,948.392" class="er relationshipLine"/><g transform="translate(424.61328125,20 )" id="entity-USER-6e7e2962-0c6f-577d-a7fd-2ce3a0cfd2c8"><rect height="200.36718845367432" width="115.640625" y="0" x="0" class="er entityBox"/><text style="dominant-baseline: middle; text-anchor: middle; font-size: 12px;" transform="translate(57.8203125,12)" y="0" x="0" id="text-entity-USER-6e7e2962-0c6f-577d-a7fd-2ce3a0cfd2c8" class="er entityLabel">USER</text><rect height="22" width="44.265625" y="24" x="0" class="er attributeBoxOdd"/><text style="dominant-baseline: middle; font-size: 10.2px;" transform="translate(5,35)" y="0" x="0" id="text-entity-USER-6e7e2962-0c6f-577d-a7fd-2ce3a0cfd2c8-attr-1-type" class="er entityLabel">int</text><rect height="22" width="71.375" y="24" x="44.265625" class="er attributeBoxOdd"/><text style="dominant-baseline: middle; font-size: 10.2px;" transform="translate(49.265625,35)" y="0" x="0" id="text-entity-USER-6e7e2962-0c6f-577d-a7fd-2ce3a0cfd2c8-attr-1-name" class="er entityLabel">id</text><rect height="22" width="44.265625" y="46" x="0" class="er attributeBoxEven"/><text style="dominant-baseline: middle; font-size: 10.2px;" transform="translate(5,57)" y="0" x="0" id="text-entity-USER-6e7e2962-0c6f-577d-a7fd-2ce3a0cfd2c8-attr-2-type" class="er entityLabel">varchar</text><rect height="22" width="71.375" y="46" x="44.265625" class="er attributeBoxEven"/><text style="dominant-baseline: middle; font-size: 10.2px;" transform="translate(49.265625,57)" y="0" x="0" id="text-entity-USER-6e7e2962-0c6f-577d-a7fd-2ce3a0cfd2c8-attr-2-name" class="er entityLabel">name</text><rect height="22" width="44.265625" y="68" x="0" class="er attributeBoxOdd"/><text style="dominant-baseline: middle; font-size: 10.2px;" transform="translate(5,79)" y="0" x="0" id="text-entity-USER-6e7e2962-0c6f-577d-a7fd-2ce3a0cfd2c8-attr-3-type" class="er entityLabel">varchar</text><rect height="22" width="71.375" y="68" x="44.265625" class="er attributeBoxOdd"/><text style="dominant-baseline: middle; font-size: 10.2px;" transform="translate(49.265625,79)" y="0" x="0" id="text-entity-USER-6e7e2962-0c6f-577d-a7fd-2ce3a0cfd2c8-attr-3-name" class="er entityLabel">email</text><rect height="22" width="44.265625" y="90" x="0" class="er attributeBoxEven"/><text style="dominant-baseline: middle; font-size: 10.2px;" transform="translate(5,101)" y="0" x="0" id="text-entity-USER-6e7e2962-0c6f-577d-a7fd-2ce3a0cfd2c8-attr-4-type" class="er entityLabel">varchar</text><rect height="22" width="71.375" y="90" x="44.265625" class="er attributeBoxEven"/><text style="dominant-baseline: middle; font-size: 10.2px;" transform="translate(49.265625,101)" y="0" x="0" id="text-entity-USER-6e7e2962-0c6f-577d-a7fd-2ce3a0cfd2c8-attr-4-name" class="er entityLabel">ra</text><rect height="22.091796875" width="44.265625" y="112" x="0" class="er attributeBoxOdd"/><text style="dominant-baseline: middle; font-size: 10.2px;" transform="translate(5,123.0458984375)" y="0" x="0" id="text-entity-USER-6e7e2962-0c6f-577d-a7fd-2ce3a0cfd2c8-attr-5-type" class="er entityLabel">varchar</text><rect height="22.091796875" width="71.375" y="112" x="44.265625" class="er attributeBoxOdd"/><text style="dominant-baseline: middle; font-size: 10.2px;" transform="translate(49.265625,123.0458984375)" y="0" x="0" id="text-entity-USER-6e7e2962-0c6f-577d-a7fd-2ce3a0cfd2c8-attr-5-name" class="er entityLabel">phone</text><rect height="22.091796875" width="44.265625" y="134.091796875" x="0" class="er attributeBoxEven"/><text style="dominant-baseline: middle; font-size: 10.2px;" transform="translate(5,145.1376953125)" y="0" x="0" id="text-entity-USER-6e7e2962-0c6f-577d-a7fd-2ce3a0cfd2c8-attr-6-type" class="er entityLabel">varchar</text><rect height="22.091796875" width="71.375" y="134.091796875" x="44.265625" class="er attributeBoxEven"/><text style="dominant-baseline: middle; font-size: 10.2px;" transform="translate(49.265625,145.1376953125)" y="0" x="0" id="text-entity-USER-6e7e2962-0c6f-577d-a7fd-2ce3a0cfd2c8-attr-6-name" class="er entityLabel">type</text><rect height="22.091797828674316" width="44.265625" y="156.18359375" x="0" class="er attributeBoxOdd"/><text style="dominant-baseline: middle; font-size: 10.2px;" transform="translate(5,167.22949266433716)" y="0" x="0" id="text-entity-USER-6e7e2962-0c6f-577d-a7fd-2ce3a0cfd2c8-attr-7-type" class="er entityLabel">varchar</text><rect height="22.091797828674316" width="71.375" y="156.18359375" x="44.265625" class="er attributeBoxOdd"/><text style="dominant-baseline: middle; font-size: 10.2px;" transform="translate(49.265625,167.22949266433716)" y="0" x="0" id="text-entity-USER-6e7e2962-0c6f-577d-a7fd-2ce3a0cfd2c8-attr-7-name" class="er entityLabel">permission</text><rect height="22.091796875" width="44.265625" y="178.27539157867432" x="0" class="er attributeBoxEven"/><text style="dominant-baseline: middle; font-size: 10.2px;" transform="translate(5,189.32129001617432)" y="0" x="0" id="text-entity-USER-6e7e2962-0c6f-577d-a7fd-2ce3a0cfd2c8-attr-8-type" class="er entityLabel">bool</text><rect height="22.091796875" width="71.375" y="178.27539157867432" x="44.265625" class="er attributeBoxEven"/><text style="dominant-baseline: middle; font-size: 10.2px;" transform="translate(49.265625,189.32129001617432)" y="0" x="0" id="text-entity-USER-6e7e2962-0c6f-577d-a7fd-2ce3a0cfd2c8-attr-8-name" class="er entityLabel">isSuperAdmin</text></g><g transform="translate(20,320.3671875 )" id="entity-ORDER-36941e20-eb1d-50a3-81c5-00079b43c24a"><rect height="200.275390625" width="134.9375" y="0" x="0" class="er entityBox"/><text style="dominant-baseline: middle; text-anchor: middle; font-size: 12px;" transform="translate(67.46875,12)" y="0" x="0" id="text-entity-ORDER-36941e20-eb1d-50a3-81c5-00079b43c24a" class="er entityLabel">ORDER</text><rect height="22" width="51.640625" y="24" x="0" class="er attributeBoxOdd"/><text style="dominant-baseline: middle; font-size: 10.2px;" transform="translate(5,35)" y="0" x="0" id="text-entity-ORDER-36941e20-eb1d-50a3-81c5-00079b43c24a-attr-1-type" class="er entityLabel">int</text><rect height="22" width="83.296875" y="24" x="51.640625" class="er attributeBoxOdd"/><text style="dominant-baseline: middle; font-size: 10.2px;" transform="translate(56.640625,35)" y="0" x="0" id="text-entity-ORDER-36941e20-eb1d-50a3-81c5-00079b43c24a-attr-1-name" class="er entityLabel">id</text><rect height="22" width="51.640625" y="46" x="0" class="er attributeBoxEven"/><text style="dominant-baseline: middle; font-size: 10.2px;" transform="translate(5,57)" y="0" x="0" id="text-entity-ORDER-36941e20-eb1d-50a3-81c5-00079b43c24a-attr-2-type" class="er entityLabel">int</text><rect height="22" width="83.296875" y="46" x="51.640625" class="er attributeBoxEven"/><text style="dominant-baseline: middle; font-size: 10.2px;" transform="translate(56.640625,57)" y="0" x="0" id="text-entity-ORDER-36941e20-eb1d-50a3-81c5-00079b43c24a-attr-2-name" class="er entityLabel">userId</text><rect height="22" width="51.640625" y="68" x="0" class="er attributeBoxOdd"/><text style="dominant-baseline: middle; font-size: 10.2px;" transform="translate(5,79)" y="0" x="0" id="text-entity-ORDER-36941e20-eb1d-50a3-81c5-00079b43c24a-attr-3-type" class="er entityLabel">int</text><rect height="22" width="83.296875" y="68" x="51.640625" class="er attributeBoxOdd"/><text style="dominant-baseline: middle; font-size: 10.2px;" transform="translate(56.640625,79)" y="0" x="0" id="text-entity-ORDER-36941e20-eb1d-50a3-81c5-00079b43c24a-attr-3-name" class="er entityLabel">ticketIds</text><rect height="22" width="51.640625" y="90" x="0" class="er attributeBoxEven"/><text style="dominant-baseline: middle; font-size: 10.2px;" transform="translate(5,101)" y="0" x="0" id="text-entity-ORDER-36941e20-eb1d-50a3-81c5-00079b43c24a-attr-4-type" class="er entityLabel">decimal</text><rect height="22" width="83.296875" y="90" x="51.640625" class="er attributeBoxEven"/><text style="dominant-baseline: middle; font-size: 10.2px;" transform="translate(56.640625,101)" y="0" x="0" id="text-entity-ORDER-36941e20-eb1d-50a3-81c5-00079b43c24a-attr-4-name" class="er entityLabel">totalValue</text><rect height="22.091796875" width="51.640625" y="112" x="0" class="er attributeBoxOdd"/><text style="dominant-baseline: middle; font-size: 10.2px;" transform="translate(5,123.0458984375)" y="0" x="0" id="text-entity-ORDER-36941e20-eb1d-50a3-81c5-00079b43c24a-attr-5-type" class="er entityLabel">varchar</text><rect height="22.091796875" width="83.296875" y="112" x="51.640625" class="er attributeBoxOdd"/><text style="dominant-baseline: middle; font-size: 10.2px;" transform="translate(56.640625,123.0458984375)" y="0" x="0" id="text-entity-ORDER-36941e20-eb1d-50a3-81c5-00079b43c24a-attr-5-name" class="er entityLabel">paymentMethod</text><rect height="22.091796875" width="51.640625" y="134.091796875" x="0" class="er attributeBoxEven"/><text style="dominant-baseline: middle; font-size: 10.2px;" transform="translate(5,145.1376953125)" y="0" x="0" id="text-entity-ORDER-36941e20-eb1d-50a3-81c5-00079b43c24a-attr-6-type" class="er entityLabel">varchar</text><rect height="22.091796875" width="83.296875" y="134.091796875" x="51.640625" class="er attributeBoxEven"/><text style="dominant-baseline: middle; font-size: 10.2px;" transform="translate(56.640625,145.1376953125)" y="0" x="0" id="text-entity-ORDER-36941e20-eb1d-50a3-81c5-00079b43c24a-attr-6-name" class="er entityLabel">statusPayment</text><rect height="22.091796875" width="51.640625" y="156.18359375" x="0" class="er attributeBoxOdd"/><text style="dominant-baseline: middle; font-size: 10.2px;" transform="translate(5,167.2294921875)" y="0" x="0" id="text-entity-ORDER-36941e20-eb1d-50a3-81c5-00079b43c24a-attr-7-type" class="er entityLabel">datetime</text><rect height="22.091796875" width="83.296875" y="156.18359375" x="51.640625" class="er attributeBoxOdd"/><text style="dominant-baseline: middle; font-size: 10.2px;" transform="translate(56.640625,167.2294921875)" y="0" x="0" id="text-entity-ORDER-36941e20-eb1d-50a3-81c5-00079b43c24a-attr-7-name" class="er entityLabel">paymentAt</text><rect height="22" width="51.640625" y="178.275390625" x="0" class="er attributeBoxEven"/><text style="dominant-baseline: middle; font-size: 10.2px;" transform="translate(5,189.275390625)" y="0" x="0" id="text-entity-ORDER-36941e20-eb1d-50a3-81c5-00079b43c24a-attr-8-type" class="er entityLabel">varchar</text><rect height="22" width="83.296875" y="178.275390625" x="51.640625" class="er attributeBoxEven"/><text style="dominant-baseline: middle; font-size: 10.2px;" transform="translate(56.640625,189.275390625)" y="0" x="0" id="text-entity-ORDER-36941e20-eb1d-50a3-81c5-00079b43c24a-attr-8-name" class="er entityLabel">code</text></g><g transform="translate(23.3984375,620.642578125 )" id="entity-TICKET-62b2a6f9-450b-57ed-a5a2-bdc35d7dd008"><rect height="156.091796875" width="128.140625" y="0" x="0" class="er entityBox"/><text style="dominant-baseline: middle; text-anchor: middle; font-size: 12px;" transform="translate(64.0703125,12)" y="0" x="0" id="text-entity-TICKET-62b2a6f9-450b-57ed-a5a2-bdc35d7dd008" class="er entityLabel">TICKET</text><rect height="22" width="51.640625" y="24" x="0" class="er attributeBoxOdd"/><text style="dominant-baseline: middle; font-size: 10.2px;" transform="translate(5,35)" y="0" x="0" id="text-entity-TICKET-62b2a6f9-450b-57ed-a5a2-bdc35d7dd008-attr-1-type" class="er entityLabel">int</text><rect height="22" width="76.5" y="24" x="51.640625" class="er attributeBoxOdd"/><text style="dominant-baseline: middle; font-size: 10.2px;" transform="translate(56.640625,35)" y="0" x="0" id="text-entity-TICKET-62b2a6f9-450b-57ed-a5a2-bdc35d7dd008-attr-1-name" class="er entityLabel">id</text><rect height="22" width="51.640625" y="46" x="0" class="er attributeBoxEven"/><text style="dominant-baseline: middle; font-size: 10.2px;" transform="translate(5,57)" y="0" x="0" id="text-entity-TICKET-62b2a6f9-450b-57ed-a5a2-bdc35d7dd008-attr-2-type" class="er entityLabel">int</text><rect height="22" width="76.5" y="46" x="51.640625" class="er attributeBoxEven"/><text style="dominant-baseline: middle; font-size: 10.2px;" transform="translate(56.640625,57)" y="0" x="0" id="text-entity-TICKET-62b2a6f9-450b-57ed-a5a2-bdc35d7dd008-attr-2-name" class="er entityLabel">orderId</text><rect height="22" width="51.640625" y="68" x="0" class="er attributeBoxOdd"/><text style="dominant-baseline: middle; font-size: 10.2px;" transform="translate(5,79)" y="0" x="0" id="text-entity-TICKET-62b2a6f9-450b-57ed-a5a2-bdc35d7dd008-attr-3-type" class="er entityLabel">int</text><rect height="22" width="76.5" y="68" x="51.640625" class="er attributeBoxOdd"/><text style="dominant-baseline: middle; font-size: 10.2px;" transform="translate(56.640625,79)" y="0" x="0" id="text-entity-TICKET-62b2a6f9-450b-57ed-a5a2-bdc35d7dd008-attr-3-name" class="er entityLabel">subEventId</text><rect height="22" width="51.640625" y="90" x="0" class="er attributeBoxEven"/><text style="dominant-baseline: middle; font-size: 10.2px;" transform="translate(5,101)" y="0" x="0" id="text-entity-TICKET-62b2a6f9-450b-57ed-a5a2-bdc35d7dd008-attr-4-type" class="er entityLabel">varchar</text><rect height="22" width="76.5" y="90" x="51.640625" class="er attributeBoxEven"/><text style="dominant-baseline: middle; font-size: 10.2px;" transform="translate(56.640625,101)" y="0" x="0" id="text-entity-TICKET-62b2a6f9-450b-57ed-a5a2-bdc35d7dd008-attr-4-name" class="er entityLabel">status</text><rect height="22.091796875" width="51.640625" y="112" x="0" class="er attributeBoxOdd"/><text style="dominant-baseline: middle; font-size: 10.2px;" transform="translate(5,123.0458984375)" y="0" x="0" id="text-entity-TICKET-62b2a6f9-450b-57ed-a5a2-bdc35d7dd008-attr-5-type" class="er entityLabel">varchar</text><rect height="22.091796875" width="76.5" y="112" x="51.640625" class="er attributeBoxOdd"/><text style="dominant-baseline: middle; font-size: 10.2px;" transform="translate(56.640625,123.0458984375)" y="0" x="0" id="text-entity-TICKET-62b2a6f9-450b-57ed-a5a2-bdc35d7dd008-attr-5-name" class="er entityLabel">codigoIngresso</text><rect height="22" width="51.640625" y="134.091796875" x="0" class="er attributeBoxEven"/><text style="dominant-baseline: middle; font-size: 10.2px;" transform="translate(5,145.091796875)" y="0" x="0" id="text-entity-TICKET-62b2a6f9-450b-57ed-a5a2-bdc35d7dd008-attr-6-type" class="er entityLabel">datetime</text><rect height="22" width="76.5" y="134.091796875" x="51.640625" class="er attributeBoxEven"/><text style="dominant-baseline: middle; font-size: 10.2px;" transform="translate(56.640625,145.091796875)" y="0" x="0" id="text-entity-TICKET-62b2a6f9-450b-57ed-a5a2-bdc35d7dd008-attr-6-name" class="er entityLabel">createdAt</text></g><g transform="translate(251.5390625,631.6884765625 )" id="entity-CERTIFICATE-a6b527d1-b300-5267-8ed8-4b0669c24606"><rect height="134" width="136.984375" y="0" x="0" class="er entityBox"/><text style="dominant-baseline: middle; text-anchor: middle; font-size: 12px;" transform="translate(68.4921875,12)" y="0" x="0" id="text-entity-CERTIFICATE-a6b527d1-b300-5267-8ed8-4b0669c24606" class="er entityLabel">CERTIFICATE</text><rect height="22" width="51.640625" y="24" x="0" class="er attributeBoxOdd"/><text style="dominant-baseline: middle; font-size: 10.2px;" transform="translate(5,35)" y="0" x="0" id="text-entity-CERTIFICATE-a6b527d1-b300-5267-8ed8-4b0669c24606-attr-1-type" class="er entityLabel">int</text><rect height="22" width="85.34375" y="24" x="51.640625" class="er attributeBoxOdd"/><text style="dominant-baseline: middle; font-size: 10.2px;" transform="translate(56.640625,35)" y="0" x="0" id="text-entity-CERTIFICATE-a6b527d1-b300-5267-8ed8-4b0669c24606-attr-1-name" class="er entityLabel">id</text><rect height="22" width="51.640625" y="46" x="0" class="er attributeBoxEven"/><text style="dominant-baseline: middle; font-size: 10.2px;" transform="translate(5,57)" y="0" x="0" id="text-entity-CERTIFICATE-a6b527d1-b300-5267-8ed8-4b0669c24606-attr-2-type" class="er entityLabel">int</text><rect height="22" width="85.34375" y="46" x="51.640625" class="er attributeBoxEven"/><text style="dominant-baseline: middle; font-size: 10.2px;" transform="translate(56.640625,57)" y="0" x="0" id="text-entity-CERTIFICATE-a6b527d1-b300-5267-8ed8-4b0669c24606-attr-2-name" class="er entityLabel">userId</text><rect height="22" width="51.640625" y="68" x="0" class="er attributeBoxOdd"/><text style="dominant-baseline: middle; font-size: 10.2px;" transform="translate(5,79)" y="0" x="0" id="text-entity-CERTIFICATE-a6b527d1-b300-5267-8ed8-4b0669c24606-attr-3-type" class="er entityLabel">int</text><rect height="22" width="85.34375" y="68" x="51.640625" class="er attributeBoxOdd"/><text style="dominant-baseline: middle; font-size: 10.2px;" transform="translate(56.640625,79)" y="0" x="0" id="text-entity-CERTIFICATE-a6b527d1-b300-5267-8ed8-4b0669c24606-attr-3-name" class="er entityLabel">subEventId</text><rect height="22" width="51.640625" y="90" x="0" class="er attributeBoxEven"/><text style="dominant-baseline: middle; font-size: 10.2px;" transform="translate(5,101)" y="0" x="0" id="text-entity-CERTIFICATE-a6b527d1-b300-5267-8ed8-4b0669c24606-attr-4-type" class="er entityLabel">datetime</text><rect height="22" width="85.34375" y="90" x="51.640625" class="er attributeBoxEven"/><text style="dominant-baseline: middle; font-size: 10.2px;" transform="translate(56.640625,101)" y="0" x="0" id="text-entity-CERTIFICATE-a6b527d1-b300-5267-8ed8-4b0669c24606-attr-4-name" class="er entityLabel">createdAt</text><rect height="22" width="51.640625" y="112" x="0" class="er attributeBoxOdd"/><text style="dominant-baseline: middle; font-size: 10.2px;" transform="translate(5,123)" y="0" x="0" id="text-entity-CERTIFICATE-a6b527d1-b300-5267-8ed8-4b0669c24606-attr-5-type" class="er entityLabel">varchar</text><rect height="22" width="85.34375" y="112" x="51.640625" class="er attributeBoxOdd"/><text style="dominant-baseline: middle; font-size: 10.2px;" transform="translate(56.640625,123)" y="0" x="0" id="text-entity-CERTIFICATE-a6b527d1-b300-5267-8ed8-4b0669c24606-attr-5-name" class="er entityLabel">verificationCode</text></g><g transform="translate(510.3671875,876.734375 )" id="entity-SUBEVENT-d202133f-b9a2-55c8-b446-01fc56ba2b64"><rect height="200.18359470367432" width="112.625" y="0" x="0" class="er entityBox"/><text style="dominant-baseline: middle; text-anchor: middle; font-size: 12px;" transform="translate(56.3125,12)" y="0" x="0" id="text-entity-SUBEVENT-d202133f-b9a2-55c8-b446-01fc56ba2b64" class="er entityLabel">SUB_EVENT</text><rect height="22" width="51.640625" y="24" x="0" class="er attributeBoxOdd"/><text style="dominant-baseline: middle; font-size: 10.2px;" transform="translate(5,35)" y="0" x="0" id="text-entity-SUBEVENT-d202133f-b9a2-55c8-b446-01fc56ba2b64-attr-1-type" class="er entityLabel">int</text><rect height="22" width="60.984375" y="24" x="51.640625" class="er attributeBoxOdd"/><text style="dominant-baseline: middle; font-size: 10.2px;" transform="translate(56.640625,35)" y="0" x="0" id="text-entity-SUBEVENT-d202133f-b9a2-55c8-b446-01fc56ba2b64-attr-1-name" class="er entityLabel">id</text><rect height="22" width="51.640625" y="46" x="0" class="er attributeBoxEven"/><text style="dominant-baseline: middle; font-size: 10.2px;" transform="translate(5,57)" y="0" x="0" id="text-entity-SUBEVENT-d202133f-b9a2-55c8-b446-01fc56ba2b64-attr-2-type" class="er entityLabel">varchar</text><rect height="22" width="60.984375" y="46" x="51.640625" class="er attributeBoxEven"/><text style="dominant-baseline: middle; font-size: 10.2px;" transform="translate(56.640625,57)" y="0" x="0" id="text-entity-SUBEVENT-d202133f-b9a2-55c8-b446-01fc56ba2b64-attr-2-name" class="er entityLabel">name</text><rect height="22.091796875" width="51.640625" y="68" x="0" class="er attributeBoxOdd"/><text style="dominant-baseline: middle; font-size: 10.2px;" transform="translate(5,79.0458984375)" y="0" x="0" id="text-entity-SUBEVENT-d202133f-b9a2-55c8-b446-01fc56ba2b64-attr-3-type" class="er entityLabel">text</text><rect height="22.091796875" width="60.984375" y="68" x="51.640625" class="er attributeBoxOdd"/><text style="dominant-baseline: middle; font-size: 10.2px;" transform="translate(56.640625,79.0458984375)" y="0" x="0" id="text-entity-SUBEVENT-d202133f-b9a2-55c8-b446-01fc56ba2b64-attr-3-name" class="er entityLabel">description</text><rect height="22" width="51.640625" y="90.091796875" x="0" class="er attributeBoxEven"/><text style="dominant-baseline: middle; font-size: 10.2px;" transform="translate(5,101.091796875)" y="0" x="0" id="text-entity-SUBEVENT-d202133f-b9a2-55c8-b446-01fc56ba2b64-attr-4-type" class="er entityLabel">datetime</text><rect height="22" width="60.984375" y="90.091796875" x="51.640625" class="er attributeBoxEven"/><text style="dominant-baseline: middle; font-size: 10.2px;" transform="translate(56.640625,101.091796875)" y="0" x="0" id="text-entity-SUBEVENT-d202133f-b9a2-55c8-b446-01fc56ba2b64-attr-4-name" class="er entityLabel">startDate</text><rect height="22" width="51.640625" y="112.091796875" x="0" class="er attributeBoxOdd"/><text style="dominant-baseline: middle; font-size: 10.2px;" transform="translate(5,123.091796875)" y="0" x="0" id="text-entity-SUBEVENT-d202133f-b9a2-55c8-b446-01fc56ba2b64-attr-5-type" class="er entityLabel">datetime</text><rect height="22" width="60.984375" y="112.091796875" x="51.640625" class="er attributeBoxOdd"/><text style="dominant-baseline: middle; font-size: 10.2px;" transform="translate(56.640625,123.091796875)" y="0" x="0" id="text-entity-SUBEVENT-d202133f-b9a2-55c8-b446-01fc56ba2b64-attr-5-name" class="er entityLabel">endDate</text><rect height="22" width="51.640625" y="134.091796875" x="0" class="er attributeBoxEven"/><text style="dominant-baseline: middle; font-size: 10.2px;" transform="translate(5,145.091796875)" y="0" x="0" id="text-entity-SUBEVENT-d202133f-b9a2-55c8-b446-01fc56ba2b64-attr-6-type" class="er entityLabel">int</text><rect height="22" width="60.984375" y="134.091796875" x="51.640625" class="er attributeBoxEven"/><text style="dominant-baseline: middle; font-size: 10.2px;" transform="translate(56.640625,145.091796875)" y="0" x="0" id="text-entity-SUBEVENT-d202133f-b9a2-55c8-b446-01fc56ba2b64-attr-6-name" class="er entityLabel">eventId</text><rect height="22" width="51.640625" y="156.091796875" x="0" class="er attributeBoxOdd"/><text style="dominant-baseline: middle; font-size: 10.2px;" transform="translate(5,167.091796875)" y="0" x="0" id="text-entity-SUBEVENT-d202133f-b9a2-55c8-b446-01fc56ba2b64-attr-7-type" class="er entityLabel">decimal</text><rect height="22" width="60.984375" y="156.091796875" x="51.640625" class="er attributeBoxOdd"/><text style="dominant-baseline: middle; font-size: 10.2px;" transform="translate(56.640625,167.091796875)" y="0" x="0" id="text-entity-SUBEVENT-d202133f-b9a2-55c8-b446-01fc56ba2b64-attr-7-name" class="er entityLabel">value</text><rect height="22.091797828674316" width="51.640625" y="178.091796875" x="0" class="er attributeBoxEven"/><text style="dominant-baseline: middle; font-size: 10.2px;" transform="translate(5,189.13769578933716)" y="0" x="0" id="text-entity-SUBEVENT-d202133f-b9a2-55c8-b446-01fc56ba2b64-attr-8-type" class="er entityLabel">int</text><rect height="22.091797828674316" width="60.984375" y="178.091796875" x="51.640625" class="er attributeBoxEven"/><text style="dominant-baseline: middle; font-size: 10.2px;" transform="translate(56.640625,189.13769578933716)" y="0" x="0" id="text-entity-SUBEVENT-d202133f-b9a2-55c8-b446-01fc56ba2b64-attr-8-name" class="er entityLabel">quantity</text></g><g transform="translate(500.7578125,320.458984375 )" id="entity-SUBMISSION-ae5bcb6a-e965-5f7b-b9fa-c1f72437aa74"><rect height="200.091796875" width="131.84375" y="0" x="0" class="er entityBox"/><text style="dominant-baseline: middle; text-anchor: middle; font-size: 12px;" transform="translate(65.921875,12)" y="0" x="0" id="text-entity-SUBMISSION-ae5bcb6a-e965-5f7b-b9fa-c1f72437aa74" class="er entityLabel">SUBMISSION</text><rect height="22" width="51.640625" y="24" x="0" class="er attributeBoxOdd"/><text style="dominant-baseline: middle; font-size: 10.2px;" transform="translate(5,35)" y="0" x="0" id="text-entity-SUBMISSION-ae5bcb6a-e965-5f7b-b9fa-c1f72437aa74-attr-1-type" class="er entityLabel">int</text><rect height="22" width="80.203125" y="24" x="51.640625" class="er attributeBoxOdd"/><text style="dominant-baseline: middle; font-size: 10.2px;" transform="translate(56.640625,35)" y="0" x="0" id="text-entity-SUBMISSION-ae5bcb6a-e965-5f7b-b9fa-c1f72437aa74-attr-1-name" class="er entityLabel">id</text><rect height="22" width="51.640625" y="46" x="0" class="er attributeBoxEven"/><text style="dominant-baseline: middle; font-size: 10.2px;" transform="translate(5,57)" y="0" x="0" id="text-entity-SUBMISSION-ae5bcb6a-e965-5f7b-b9fa-c1f72437aa74-attr-2-type" class="er entityLabel">int</text><rect height="22" width="80.203125" y="46" x="51.640625" class="er attributeBoxEven"/><text style="dominant-baseline: middle; font-size: 10.2px;" transform="translate(56.640625,57)" y="0" x="0" id="text-entity-SUBMISSION-ae5bcb6a-e965-5f7b-b9fa-c1f72437aa74-attr-2-name" class="er entityLabel">userId</text><rect height="22" width="51.640625" y="68" x="0" class="er attributeBoxOdd"/><text style="dominant-baseline: middle; font-size: 10.2px;" transform="translate(5,79)" y="0" x="0" id="text-entity-SUBMISSION-ae5bcb6a-e965-5f7b-b9fa-c1f72437aa74-attr-3-type" class="er entityLabel">int</text><rect height="22" width="80.203125" y="68" x="51.640625" class="er attributeBoxOdd"/><text style="dominant-baseline: middle; font-size: 10.2px;" transform="translate(56.640625,79)" y="0" x="0" id="text-entity-SUBMISSION-ae5bcb6a-e965-5f7b-b9fa-c1f72437aa74-attr-3-name" class="er entityLabel">subEventId</text><rect height="22" width="51.640625" y="90" x="0" class="er attributeBoxEven"/><text style="dominant-baseline: middle; font-size: 10.2px;" transform="translate(5,101)" y="0" x="0" id="text-entity-SUBMISSION-ae5bcb6a-e965-5f7b-b9fa-c1f72437aa74-attr-4-type" class="er entityLabel">varchar</text><rect height="22" width="80.203125" y="90" x="51.640625" class="er attributeBoxEven"/><text style="dominant-baseline: middle; font-size: 10.2px;" transform="translate(56.640625,101)" y="0" x="0" id="text-entity-SUBMISSION-ae5bcb6a-e965-5f7b-b9fa-c1f72437aa74-attr-4-name" class="er entityLabel">workTitle</text><rect height="22.091796875" width="51.640625" y="112" x="0" class="er attributeBoxOdd"/><text style="dominant-baseline: middle; font-size: 10.2px;" transform="translate(5,123.0458984375)" y="0" x="0" id="text-entity-SUBMISSION-ae5bcb6a-e965-5f7b-b9fa-c1f72437aa74-attr-5-type" class="er entityLabel">text</text><rect height="22.091796875" width="80.203125" y="112" x="51.640625" class="er attributeBoxOdd"/><text style="dominant-baseline: middle; font-size: 10.2px;" transform="translate(56.640625,123.0458984375)" y="0" x="0" id="text-entity-SUBMISSION-ae5bcb6a-e965-5f7b-b9fa-c1f72437aa74-attr-5-name" class="er entityLabel">description</text><rect height="22" width="51.640625" y="134.091796875" x="0" class="er attributeBoxEven"/><text style="dominant-baseline: middle; font-size: 10.2px;" transform="translate(5,145.091796875)" y="0" x="0" id="text-entity-SUBMISSION-ae5bcb6a-e965-5f7b-b9fa-c1f72437aa74-attr-6-type" class="er entityLabel">blob</text><rect height="22" width="80.203125" y="134.091796875" x="51.640625" class="er attributeBoxEven"/><text style="dominant-baseline: middle; font-size: 10.2px;" transform="translate(56.640625,145.091796875)" y="0" x="0" id="text-entity-SUBMISSION-ae5bcb6a-e965-5f7b-b9fa-c1f72437aa74-attr-6-name" class="er entityLabel">archive</text><rect height="22" width="51.640625" y="156.091796875" x="0" class="er attributeBoxOdd"/><text style="dominant-baseline: middle; font-size: 10.2px;" transform="translate(5,167.091796875)" y="0" x="0" id="text-entity-SUBMISSION-ae5bcb6a-e965-5f7b-b9fa-c1f72437aa74-attr-7-type" class="er entityLabel">datetime</text><rect height="22" width="80.203125" y="156.091796875" x="51.640625" class="er attributeBoxOdd"/><text style="dominant-baseline: middle; font-size: 10.2px;" transform="translate(56.640625,167.091796875)" y="0" x="0" id="text-entity-SUBMISSION-ae5bcb6a-e965-5f7b-b9fa-c1f72437aa74-attr-7-name" class="er entityLabel">submissionDate</text><rect height="22" width="51.640625" y="178.091796875" x="0" class="er attributeBoxEven"/><text style="dominant-baseline: middle; font-size: 10.2px;" transform="translate(5,189.091796875)" y="0" x="0" id="text-entity-SUBMISSION-ae5bcb6a-e965-5f7b-b9fa-c1f72437aa74-attr-8-type" class="er entityLabel">varchar</text><rect height="22" width="80.203125" y="178.091796875" x="51.640625" class="er attributeBoxEven"/><text style="dominant-baseline: middle; font-size: 10.2px;" transform="translate(56.640625,189.091796875)" y="0" x="0" id="text-entity-SUBMISSION-ae5bcb6a-e965-5f7b-b9fa-c1f72437aa74-attr-8-name" class="er entityLabel">status</text></g><g transform="translate(588.5234375,631.642578125 )" id="entity-EVENT-12434316-4a87-5800-981a-68e9670d1fb3"><rect height="134.091796875" width="112.625" y="0" x="0" class="er entityBox"/><text style="dominant-baseline: middle; text-anchor: middle; font-size: 12px;" transform="translate(56.3125,12)" y="0" x="0" id="text-entity-EVENT-12434316-4a87-5800-981a-68e9670d1fb3" class="er entityLabel">EVENT</text><rect height="22" width="51.640625" y="24" x="0" class="er attributeBoxOdd"/><text style="dominant-baseline: middle; font-size: 10.2px;" transform="translate(5,35)" y="0" x="0" id="text-entity-EVENT-12434316-4a87-5800-981a-68e9670d1fb3-attr-1-type" class="er entityLabel">int</text><rect height="22" width="60.984375" y="24" x="51.640625" class="er attributeBoxOdd"/><text style="dominant-baseline: middle; font-size: 10.2px;" transform="translate(56.640625,35)" y="0" x="0" id="text-entity-EVENT-12434316-4a87-5800-981a-68e9670d1fb3-attr-1-name" class="er entityLabel">id</text><rect height="22" width="51.640625" y="46" x="0" class="er attributeBoxEven"/><text style="dominant-baseline: middle; font-size: 10.2px;" transform="translate(5,57)" y="0" x="0" id="text-entity-EVENT-12434316-4a87-5800-981a-68e9670d1fb3-attr-2-type" class="er entityLabel">varchar</text><rect height="22" width="60.984375" y="46" x="51.640625" class="er attributeBoxEven"/><text style="dominant-baseline: middle; font-size: 10.2px;" transform="translate(56.640625,57)" y="0" x="0" id="text-entity-EVENT-12434316-4a87-5800-981a-68e9670d1fb3-attr-2-name" class="er entityLabel">name</text><rect height="22.091796875" width="51.640625" y="68" x="0" class="er attributeBoxOdd"/><text style="dominant-baseline: middle; font-size: 10.2px;" transform="translate(5,79.0458984375)" y="0" x="0" id="text-entity-EVENT-12434316-4a87-5800-981a-68e9670d1fb3-attr-3-type" class="er entityLabel">text</text><rect height="22.091796875" width="60.984375" y="68" x="51.640625" class="er attributeBoxOdd"/><text style="dominant-baseline: middle; font-size: 10.2px;" transform="translate(56.640625,79.0458984375)" y="0" x="0" id="text-entity-EVENT-12434316-4a87-5800-981a-68e9670d1fb3-attr-3-name" class="er entityLabel">description</text><rect height="22" width="51.640625" y="90.091796875" x="0" class="er attributeBoxEven"/><text style="dominant-baseline: middle; font-size: 10.2px;" transform="translate(5,101.091796875)" y="0" x="0" id="text-entity-EVENT-12434316-4a87-5800-981a-68e9670d1fb3-attr-4-type" class="er entityLabel">datetime</text><rect height="22" width="60.984375" y="90.091796875" x="51.640625" class="er attributeBoxEven"/><text style="dominant-baseline: middle; font-size: 10.2px;" transform="translate(56.640625,101.091796875)" y="0" x="0" id="text-entity-EVENT-12434316-4a87-5800-981a-68e9670d1fb3-attr-4-name" class="er entityLabel">startDate</text><rect height="22" width="51.640625" y="112.091796875" x="0" class="er attributeBoxOdd"/><text style="dominant-baseline: middle; font-size: 10.2px;" transform="translate(5,123.091796875)" y="0" x="0" id="text-entity-EVENT-12434316-4a87-5800-981a-68e9670d1fb3-attr-5-type" class="er entityLabel">datetime</text><rect height="22" width="60.984375" y="112.091796875" x="51.640625" class="er attributeBoxOdd"/><text style="dominant-baseline: middle; font-size: 10.2px;" transform="translate(56.640625,123.091796875)" y="0" x="0" id="text-entity-EVENT-12434316-4a87-5800-981a-68e9670d1fb3-attr-5-name" class="er entityLabel">endDate</text></g><g transform="translate(514.7734375,1176.91796875 )" id="entity-ADDRESS-153346fa-a574-56cf-a80f-86d44868c0af"><rect height="112" width="103.8125" y="0" x="0" class="er entityBox"/><text style="dominant-baseline: middle; text-anchor: middle; font-size: 12px;" transform="translate(51.90625,12)" y="0" x="0" id="text-entity-ADDRESS-153346fa-a574-56cf-a80f-86d44868c0af" class="er entityLabel">ADDRESS</text><rect height="22" width="44.265625" y="24" x="0" class="er attributeBoxOdd"/><text style="dominant-baseline: middle; font-size: 10.2px;" transform="translate(5,35)" y="0" x="0" id="text-entity-ADDRESS-153346fa-a574-56cf-a80f-86d44868c0af-attr-1-type" class="er entityLabel">int</text><rect height="22" width="59.546875" y="24" x="44.265625" class="er attributeBoxOdd"/><text style="dominant-baseline: middle; font-size: 10.2px;" transform="translate(49.265625,35)" y="0" x="0" id="text-entity-ADDRESS-153346fa-a574-56cf-a80f-86d44868c0af-attr-1-name" class="er entityLabel">id</text><rect height="22" width="44.265625" y="46" x="0" class="er attributeBoxEven"/><text style="dominant-baseline: middle; font-size: 10.2px;" transform="translate(5,57)" y="0" x="0" id="text-entity-ADDRESS-153346fa-a574-56cf-a80f-86d44868c0af-attr-2-type" class="er entityLabel">int</text><rect height="22" width="59.546875" y="46" x="44.265625" class="er attributeBoxEven"/><text style="dominant-baseline: middle; font-size: 10.2px;" transform="translate(49.265625,57)" y="0" x="0" id="text-entity-ADDRESS-153346fa-a574-56cf-a80f-86d44868c0af-attr-2-name" class="er entityLabel">subEventId</text><rect height="22" width="44.265625" y="68" x="0" class="er attributeBoxOdd"/><text style="dominant-baseline: middle; font-size: 10.2px;" transform="translate(5,79)" y="0" x="0" id="text-entity-ADDRESS-153346fa-a574-56cf-a80f-86d44868c0af-attr-3-type" class="er entityLabel">varchar</text><rect height="22" width="59.546875" y="68" x="44.265625" class="er attributeBoxOdd"/><text style="dominant-baseline: middle; font-size: 10.2px;" transform="translate(49.265625,79)" y="0" x="0" id="text-entity-ADDRESS-153346fa-a574-56cf-a80f-86d44868c0af-attr-3-name" class="er entityLabel">block</text><rect height="22" width="44.265625" y="90" x="0" class="er attributeBoxEven"/><text style="dominant-baseline: middle; font-size: 10.2px;" transform="translate(5,101)" y="0" x="0" id="text-entity-ADDRESS-153346fa-a574-56cf-a80f-86d44868c0af-attr-4-type" class="er entityLabel">varchar</text><rect height="22" width="59.546875" y="90" x="44.265625" class="er attributeBoxEven"/><text style="dominant-baseline: middle; font-size: 10.2px;" transform="translate(49.265625,101)" y="0" x="0" id="text-entity-ADDRESS-153346fa-a574-56cf-a80f-86d44868c0af-attr-4-name" class="er entityLabel">floor</text></g><g transform="translate(801.1484375,631.6884765625 )" id="entity-ATTENDANCE-8b724785-10d0-5597-9aea-b4e527db643d"><rect height="134" width="125.5625" y="0" x="0" class="er entityBox"/><text style="dominant-baseline: middle; text-anchor: middle; font-size: 12px;" transform="translate(62.78125,12)" y="0" x="0" id="text-entity-ATTENDANCE-8b724785-10d0-5597-9aea-b4e527db643d" class="er entityLabel">ATTENDANCE</text><rect height="22" width="51.640625" y="24" x="0" class="er attributeBoxOdd"/><text style="dominant-baseline: middle; font-size: 10.2px;" transform="translate(5,35)" y="0" x="0" id="text-entity-ATTENDANCE-8b724785-10d0-5597-9aea-b4e527db643d-attr-1-type" class="er entityLabel">int</text><rect height="22" width="73.921875" y="24" x="51.640625" class="er attributeBoxOdd"/><text style="dominant-baseline: middle; font-size: 10.2px;" transform="translate(56.640625,35)" y="0" x="0" id="text-entity-ATTENDANCE-8b724785-10d0-5597-9aea-b4e527db643d-attr-1-name" class="er entityLabel">id</text><rect height="22" width="51.640625" y="46" x="0" class="er attributeBoxEven"/><text style="dominant-baseline: middle; font-size: 10.2px;" transform="translate(5,57)" y="0" x="0" id="text-entity-ATTENDANCE-8b724785-10d0-5597-9aea-b4e527db643d-attr-2-type" class="er entityLabel">int</text><rect height="22" width="73.921875" y="46" x="51.640625" class="er attributeBoxEven"/><text style="dominant-baseline: middle; font-size: 10.2px;" transform="translate(56.640625,57)" y="0" x="0" id="text-entity-ATTENDANCE-8b724785-10d0-5597-9aea-b4e527db643d-attr-2-name" class="er entityLabel">userId</text><rect height="22" width="51.640625" y="68" x="0" class="er attributeBoxOdd"/><text style="dominant-baseline: middle; font-size: 10.2px;" transform="translate(5,79)" y="0" x="0" id="text-entity-ATTENDANCE-8b724785-10d0-5597-9aea-b4e527db643d-attr-3-type" class="er entityLabel">int</text><rect height="22" width="73.921875" y="68" x="51.640625" class="er attributeBoxOdd"/><text style="dominant-baseline: middle; font-size: 10.2px;" transform="translate(56.640625,79)" y="0" x="0" id="text-entity-ATTENDANCE-8b724785-10d0-5597-9aea-b4e527db643d-attr-3-name" class="er entityLabel">subEventId</text><rect height="22" width="51.640625" y="90" x="0" class="er attributeBoxEven"/><text style="dominant-baseline: middle; font-size: 10.2px;" transform="translate(5,101)" y="0" x="0" id="text-entity-ATTENDANCE-8b724785-10d0-5597-9aea-b4e527db643d-attr-4-type" class="er entityLabel">datetime</text><rect height="22" width="73.921875" y="90" x="51.640625" class="er attributeBoxEven"/><text style="dominant-baseline: middle; font-size: 10.2px;" transform="translate(56.640625,101)" y="0" x="0" id="text-entity-ATTENDANCE-8b724785-10d0-5597-9aea-b4e527db643d-attr-4-name" class="er entityLabel">checkinTime</text><rect height="22" width="51.640625" y="112" x="0" class="er attributeBoxOdd"/><text style="dominant-baseline: middle; font-size: 10.2px;" transform="translate(5,123)" y="0" x="0" id="text-entity-ATTENDANCE-8b724785-10d0-5597-9aea-b4e527db643d-attr-5-type" class="er entityLabel">datetime</text><rect height="22" width="73.921875" y="112" x="51.640625" class="er attributeBoxOdd"/><text style="dominant-baseline: middle; font-size: 10.2px;" transform="translate(56.640625,123)" y="0" x="0" id="text-entity-ATTENDANCE-8b724785-10d0-5597-9aea-b4e527db643d-attr-5-name" class="er entityLabel">checkoutTime</text></g><rect height="14" width="33.875" y="206.4791717529297" x="223.9877471923828" class="er relationshipLabelBox"/><text style="text-anchor: middle; dominant-baseline: middle; font-size: 12px;" y="213.4791717529297" x="240.9252471923828" id="rel1" class="er relationshipLabel">places</text><rect height="14" width="44.84375" y="563.6430053710938" x="65.04712677001953" class="er relationshipLabelBox"/><text style="text-anchor: middle; dominant-baseline: middle; font-size: 12px;" y="570.6430053710938" x="87.46900177001953" id="rel2" class="er relationshipLabel">contains</text><rect height="14" width="44.40625" y="378.423583984375" x="298.0524597167969" class="er relationshipLabelBox"/><text style="text-anchor: middle; dominant-baseline: middle; font-size: 12px;" y="385.423583984375" x="320.2555847167969" id="rel3" class="er relationshipLabel">receives</text><rect height="14" width="15.546875" y="863.028564453125" x="387.7656555175781" class="er relationshipLabelBox"/><text style="text-anchor: middle; dominant-baseline: middle; font-size: 12px;" y="870.028564453125" x="395.5390930175781" id="rel4" class="er relationshipLabel">for</text><rect height="14" width="33.734375" y="261.0447082519531" x="544.4528198242188" class="er relationshipLabelBox"/><text style="text-anchor: middle; dominant-baseline: middle; font-size: 12px;" y="268.0447082519531" x="561.3200073242188" id="rel5" class="er relationshipLabel">makes</text><rect height="14" width="15.546875" y="566.9451904296875" x="633.0541381835938" class="er relationshipLabelBox"/><text style="text-anchor: middle; dominant-baseline: middle; font-size: 12px;" y="573.9451904296875" x="640.8275756835938" id="rel6" class="er relationshipLabel">for</text><rect height="14" width="15.546875" y="691.6392211914062" x="480.74957275390625" class="er relationshipLabelBox"/><text style="text-anchor: middle; dominant-baseline: middle; font-size: 12px;" y="698.6392211914062" x="488.52301025390625" id="rel7" class="er relationshipLabel">for</text><rect height="14" width="44.84375" y="816.3836669921875" x="618.4198608398438" class="er relationshipLabelBox"/><text style="text-anchor: middle; dominant-baseline: middle; font-size: 12px;" y="823.3836669921875" x="640.8417358398438" id="rel8" class="er relationshipLabel">contains</text><rect height="14" width="17.71875" y="1119.91796875" x="557.8206176757812" class="er relationshipLabelBox"/><text style="text-anchor: middle; dominant-baseline: middle; font-size: 12px;" y="1126.91796875" x="566.6799926757812" id="rel9" class="er relationshipLabel">has</text><rect height="14" width="46.34375" y="293.38299560546875" x="811.697998046875" class="er relationshipLabelBox"/><text style="text-anchor: middle; dominant-baseline: middle; font-size: 12px;" y="300.38299560546875" x="834.869873046875" id="rel10" class="er relationshipLabel">registers</text><rect height="14" width="15.546875" y="868.346923828125" x="755.3240356445312" class="er relationshipLabelBox"/><text style="text-anchor: middle; dominant-baseline: middle; font-size: 12px;" y="875.346923828125" x="763.0974731445312" id="rel11" class="er relationshipLabel">for</text></svg>