<svg aria-roledescription="er" role="graphics-document document" viewBox="0 -62 559.5546875 702" style="max-width: 559.555px; background-color: white;" xmlns:xlink="http://www.w3.org/1999/xlink" xmlns="http://www.w3.org/2000/svg" width="100%" id="my-svg"><style>#my-svg{font-family:"trebuchet ms",verdana,arial,sans-serif;font-size:16px;fill:#333;}#my-svg .error-icon{fill:#cec0f0;}#my-svg .error-text{fill:#313f0f;stroke:#313f0f;}#my-svg .edge-thickness-normal{stroke-width:1px;}#my-svg .edge-thickness-thick{stroke-width:3.5px;}#my-svg .edge-pattern-solid{stroke-dasharray:0;}#my-svg .edge-thickness-invisible{stroke-width:0;fill:none;}#my-svg .edge-pattern-dashed{stroke-dasharray:3;}#my-svg .edge-pattern-dotted{stroke-dasharray:2;}#my-svg .marker{fill:#0b0b0b;stroke:#0b0b0b;}#my-svg .marker.cross{stroke:#0b0b0b;}#my-svg svg{font-family:"trebuchet ms",verdana,arial,sans-serif;font-size:16px;}#my-svg p{margin:0;}#my-svg .entityBox{fill:#e0e0fc;stroke:hsl(240, 42.3529411765%, 83.3333333333%);}#my-svg .attributeBoxOdd{fill:#ffffff;stroke:hsl(240, 42.3529411765%, 83.3333333333%);}#my-svg .attributeBoxEven{fill:#f2f2f2;stroke:hsl(240, 42.3529411765%, 83.3333333333%);}#my-svg .relationshipLabelBox{fill:#cec0f0;opacity:0.7;background-color:#cec0f0;}#my-svg .relationshipLabelBox rect{opacity:0.5;}#my-svg .relationshipLine{stroke:#0b0b0b;}#my-svg .entityTitleText{text-anchor:middle;font-size:18px;fill:#333;}#my-svg #MD_PARENT_START{fill:#f5f5f5!important;stroke:#0b0b0b!important;stroke-width:1;}#my-svg #MD_PARENT_END{fill:#f5f5f5!important;stroke:#0b0b0b!important;stroke-width:1;}#my-svg :root{--mermaid-font-family:"trebuchet ms",verdana,arial,sans-serif;}</style><g/><defs><marker orient="auto" markerHeight="240" markerWidth="190" refY="7" refX="0" id="MD_PARENT_START"><path d="M 18,7 L9,13 L1,7 L9,1 Z"/></marker></defs><defs><marker orient="auto" markerHeight="28" markerWidth="20" refY="7" refX="19" id="MD_PARENT_END"><path d="M 18,7 L9,13 L1,7 L9,1 Z"/></marker></defs><defs><marker orient="auto" markerHeight="18" markerWidth="18" refY="9" refX="0" id="ONLY_ONE_START"><path d="M9,0 L9,18 M15,0 L15,18" fill="none" stroke="gray"/></marker></defs><defs><marker orient="auto" markerHeight="18" markerWidth="18" refY="9" refX="18" id="ONLY_ONE_END"><path d="M3,0 L3,18 M9,0 L9,18" fill="none" stroke="gray"/></marker></defs><defs><marker orient="auto" markerHeight="18" markerWidth="30" refY="9" refX="0" id="ZERO_OR_ONE_START"><circle r="6" cy="9" cx="21" fill="white" stroke="gray"/><path d="M9,0 L9,18" fill="none" stroke="gray"/></marker></defs><defs><marker orient="auto" markerHeight="18" markerWidth="30" refY="9" refX="30" id="ZERO_OR_ONE_END"><circle r="6" cy="9" cx="9" fill="white" stroke="gray"/><path d="M21,0 L21,18" fill="none" stroke="gray"/></marker></defs><defs><marker orient="auto" markerHeight="36" markerWidth="45" refY="18" refX="18" id="ONE_OR_MORE_START"><path d="M0,18 Q 18,0 36,18 Q 18,36 0,18 M42,9 L42,27" fill="none" stroke="gray"/></marker></defs><defs><marker orient="auto" markerHeight="36" markerWidth="45" refY="18" refX="27" id="ONE_OR_MORE_END"><path d="M3,9 L3,27 M9,18 Q27,0 45,18 Q27,36 9,18" fill="none" stroke="gray"/></marker></defs><defs><marker orient="auto" markerHeight="36" markerWidth="57" refY="18" refX="18" id="ZERO_OR_MORE_START"><circle r="6" cy="18" cx="48" fill="white" stroke="gray"/><path d="M0,18 Q18,0 36,18 Q18,36 0,18" fill="none" stroke="gray"/></marker></defs><defs><marker orient="auto" markerHeight="36" markerWidth="57" refY="18" refX="39" id="ZERO_OR_MORE_END"><circle r="6" cy="18" cx="9" fill="white" stroke="gray"/><path d="M21,18 Q39,0 57,18 Q39,36 21,18" fill="none" stroke="gray"/></marker></defs><path style="stroke: gray; fill: none;" marker-start="url(#ONLY_ONE_START)" marker-end="url(#ZERO_OR_MORE_END)" d="M70,270L70,278.333C70,286.667,70,303.333,94.124,322.506C118.249,341.678,166.497,363.357,190.622,374.196L214.746,385.035" class="er relationshipLine"/><path style="stroke: gray; fill: none;" marker-start="url(#ONLY_ONE_START)" marker-end="url(#ZERO_OR_MORE_END)" d="M270,270L270,278.333C270,286.667,270,303.333,269.5,320C268.999,336.667,267.999,353.333,267.498,361.667L266.998,370" class="er relationshipLine"/><path style="stroke: gray; fill: none;" marker-start="url(#ONLY_ONE_START)" marker-end="url(#ZERO_OR_MORE_END)" d="M470,270L470,278.333C470,286.667,470,303.333,444.124,322.697C418.249,342.062,366.497,364.123,340.622,375.154L314.746,386.185" class="er relationshipLine"/><path style="stroke: gray; fill: none;" marker-start="url(#ONE_OR_MORE_START)" marker-end="url(#ONLY_ONE_END)" d="M470,95L470,103.333C470,111.667,470,128.333,470,145C470,161.667,470,178.333,470,186.667L470,195" class="er relationshipLine"/><path style="stroke: gray; fill: none;" marker-start="url(#ONLY_ONE_START)" marker-end="url(#ONE_OR_MORE_END)" d="M264.746,445L264.746,453.333C264.746,461.667,264.746,478.333,275.271,495C285.795,511.667,306.844,528.333,317.369,536.667L327.893,545" class="er relationshipLine"/><path style="stroke: gray; fill: none;" marker-start="url(#ONE_OR_MORE_START)" marker-end="url(#ONLY_ONE_END)" d="M475.254,445L475.254,453.333C475.254,461.667,475.254,478.333,465.73,495C456.206,511.667,437.159,528.333,427.635,536.667L418.111,545" class="er relationshipLine"/><g transform="translate(20,195 )" id="entity-observerID-49904cec-40d6-5e20-9445-c0d30b5091db"><rect height="75" width="100" y="0" x="0" class="er entityBox"/><text style="dominant-baseline: middle; text-anchor: middle; font-size: 12px;" transform="translate(50,37.5)" y="0" x="0" id="text-entity-observerID-49904cec-40d6-5e20-9445-c0d30b5091db" class="er entityLabel">observerID</text></g><g transform="translate(420,195 )" id="entity-fieldsite-4dfe66ab-89e7-5bf3-b4a0-cfdc02c47880"><rect height="75" width="100" y="0" x="0" class="er entityBox"/><text style="dominant-baseline: middle; text-anchor: middle; font-size: 12px;" transform="translate(50,37.5)" y="0" x="0" id="text-entity-fieldsite-4dfe66ab-89e7-5bf3-b4a0-cfdc02c47880" class="er entityLabel">field_site</text></g><g transform="translate(220,195 )" id="entity-surveys-79fdf2d8-9511-5160-84ac-edd7d8e413cd"><rect height="75" width="100" y="0" x="0" class="er entityBox"/><text style="dominant-baseline: middle; text-anchor: middle; font-size: 12px;" transform="translate(50,37.5)" y="0" x="0" id="text-entity-surveys-79fdf2d8-9511-5160-84ac-edd7d8e413cd" class="er entityLabel">surveys</text></g><g transform="translate(214.74609375,370 )" id="entity-fieldvisit-91533b65-db56-5b36-b0f3-402a2411b2c2"><rect height="75" width="100" y="0" x="0" class="er entityBox"/><text style="dominant-baseline: middle; text-anchor: middle; font-size: 12px;" transform="translate(50,37.5)" y="0" x="0" id="text-entity-fieldvisit-91533b65-db56-5b36-b0f3-402a2411b2c2" class="er entityLabel">field_visit</text></g><g transform="translate(420,20 )" id="entity-firehistory-c97fdc30-551c-5cb8-b807-b41cc538eb5c"><rect height="75" width="100" y="0" x="0" class="er entityBox"/><text style="dominant-baseline: middle; text-anchor: middle; font-size: 12px;" transform="translate(50,37.5)" y="0" x="0" id="text-entity-firehistory-c97fdc30-551c-5cb8-b807-b41cc538eb5c" class="er entityLabel">fire_history</text></g><g transform="translate(414.74609375,370 )" id="entity-quadratsamples-4c15e4d5-8385-5e58-98bf-f0990680d2da"><rect height="75" width="121.015625" y="0" x="0" class="er entityBox"/><text style="dominant-baseline: middle; text-anchor: middle; font-size: 12px;" transform="translate(60.5078125,37.5)" y="0" x="0" id="text-entity-quadratsamples-4c15e4d5-8385-5e58-98bf-f0990680d2da" class="er entityLabel">quadrat_samples</text></g><g transform="translate(323.41796875,545 )" id="entity-fieldsamples-3aa7e35f-5f35-5ba0-9397-98025a507f0c"><rect height="75" width="103.671875" y="0" x="0" class="er entityBox"/><text style="dominant-baseline: middle; text-anchor: middle; font-size: 12px;" transform="translate(51.8359375,37.5)" y="0" x="0" id="text-entity-fieldsamples-3aa7e35f-5f35-5ba0-9397-98025a507f0c" class="er entityLabel">field_samples</text></g><rect height="14" width="90.640625" y="335.778564453125" x="80.55571746826172" class="er relationshipLabelBox"/><text style="text-anchor: middle; dominant-baseline: middle; font-size: 12px;" y="342.778564453125" x="125.87602996826172" id="rel1" class="er relationshipLabel">of main observer</text><rect height="14" width="82.140625" y="313.0299987792969" x="228.42877197265625" class="er relationshipLabelBox"/><text style="text-anchor: middle; dominant-baseline: middle; font-size: 12px;" y="320.0299987792969" x="269.49908447265625" id="rel2" class="er relationshipLabel">survey includes</text><rect height="14" width="70.671875" y="336.879638671875" x="373.4654235839844" class="er relationshipLabelBox"/><text style="text-anchor: middle; dominant-baseline: middle; font-size: 12px;" y="343.879638671875" x="408.8013610839844" id="rel3" class="er relationshipLabel">site is visited</text><rect height="14" width="139.109375" y="138" x="400.4453125" class="er relationshipLabelBox"/><text style="text-anchor: middle; dominant-baseline: middle; font-size: 12px;" y="145" x="470" id="rel4" class="er relationshipLabel">records fire events at site</text><rect height="14" width="108.0625" y="496.46258544921875" x="227.41915893554688" class="er relationshipLabelBox"/><text style="text-anchor: middle; dominant-baseline: middle; font-size: 12px;" y="503.46258544921875" x="281.4504089355469" id="rel5" class="er relationshipLabel">sampled during visit</text><rect height="14" width="94.6875" y="495.4354553222656" x="413.5483093261719" class="er relationshipLabelBox"/><text style="text-anchor: middle; dominant-baseline: middle; font-size: 12px;" y="502.4354553222656" x="460.8920593261719" id="rel6" class="er relationshipLabel">data from sample</text><text class="entityTitleText" y="-25" x="279.77734375" text-anchor="middle">SCHEMA form</text></svg>