<svg aria-roledescription="er" role="graphics-document document" viewBox="-116.9375 0 726.421875 640" style="max-width: 726.422px; background-color: white;" xmlns:xlink="http://www.w3.org/1999/xlink" xmlns="http://www.w3.org/2000/svg" width="100%" id="my-svg"><style>#my-svg{font-family:"trebuchet ms",verdana,arial,sans-serif;font-size:16px;fill:#333;}#my-svg .error-icon{fill:#552222;}#my-svg .error-text{fill:#552222;stroke:#552222;}#my-svg .edge-thickness-normal{stroke-width:1px;}#my-svg .edge-thickness-thick{stroke-width:3.5px;}#my-svg .edge-pattern-solid{stroke-dasharray:0;}#my-svg .edge-thickness-invisible{stroke-width:0;fill:none;}#my-svg .edge-pattern-dashed{stroke-dasharray:3;}#my-svg .edge-pattern-dotted{stroke-dasharray:2;}#my-svg .marker{fill:#333333;stroke:#333333;}#my-svg .marker.cross{stroke:#333333;}#my-svg svg{font-family:"trebuchet ms",verdana,arial,sans-serif;font-size:16px;}#my-svg p{margin:0;}#my-svg .entityBox{fill:#ECECFF;stroke:#9370DB;}#my-svg .attributeBoxOdd{fill:#ffffff;stroke:#9370DB;}#my-svg .attributeBoxEven{fill:#f2f2f2;stroke:#9370DB;}#my-svg .relationshipLabelBox{fill:hsl(80, 100%, 96.2745098039%);opacity:0.7;background-color:hsl(80, 100%, 96.2745098039%);}#my-svg .relationshipLabelBox rect{opacity:0.5;}#my-svg .relationshipLine{stroke:#333333;}#my-svg .entityTitleText{text-anchor:middle;font-size:18px;fill:#333;}#my-svg #MD_PARENT_START{fill:#f5f5f5!important;stroke:#333333!important;stroke-width:1;}#my-svg #MD_PARENT_END{fill:#f5f5f5!important;stroke:#333333!important;stroke-width:1;}#my-svg :root{--mermaid-font-family:"trebuchet ms",verdana,arial,sans-serif;}</style><g/><defs><marker orient="auto" markerHeight="240" markerWidth="190" refY="7" refX="0" id="MD_PARENT_START"><path d="M 18,7 L9,13 L1,7 L9,1 Z"/></marker></defs><defs><marker orient="auto" markerHeight="28" markerWidth="20" refY="7" refX="19" id="MD_PARENT_END"><path d="M 18,7 L9,13 L1,7 L9,1 Z"/></marker></defs><defs><marker orient="auto" markerHeight="18" markerWidth="18" refY="9" refX="0" id="ONLY_ONE_START"><path d="M9,0 L9,18 M15,0 L15,18" fill="none" stroke="gray"/></marker></defs><defs><marker orient="auto" markerHeight="18" markerWidth="18" refY="9" refX="18" id="ONLY_ONE_END"><path d="M3,0 L3,18 M9,0 L9,18" fill="none" stroke="gray"/></marker></defs><defs><marker orient="auto" markerHeight="18" markerWidth="30" refY="9" refX="0" id="ZERO_OR_ONE_START"><circle r="6" cy="9" cx="21" fill="white" stroke="gray"/><path d="M9,0 L9,18" fill="none" stroke="gray"/></marker></defs><defs><marker orient="auto" markerHeight="18" markerWidth="30" refY="9" refX="30" id="ZERO_OR_ONE_END"><circle r="6" cy="9" cx="9" fill="white" stroke="gray"/><path d="M21,0 L21,18" fill="none" stroke="gray"/></marker></defs><defs><marker orient="auto" markerHeight="36" markerWidth="45" refY="18" refX="18" id="ONE_OR_MORE_START"><path d="M0,18 Q 18,0 36,18 Q 18,36 0,18 M42,9 L42,27" fill="none" stroke="gray"/></marker></defs><defs><marker orient="auto" markerHeight="36" markerWidth="45" refY="18" refX="27" id="ONE_OR_MORE_END"><path d="M3,9 L3,27 M9,18 Q27,0 45,18 Q27,36 9,18" fill="none" stroke="gray"/></marker></defs><defs><marker orient="auto" markerHeight="36" markerWidth="57" refY="18" refX="18" id="ZERO_OR_MORE_START"><circle r="6" cy="18" cx="48" fill="white" stroke="gray"/><path d="M0,18 Q18,0 36,18 Q18,36 0,18" fill="none" stroke="gray"/></marker></defs><defs><marker orient="auto" markerHeight="36" markerWidth="57" refY="18" refX="39" id="ZERO_OR_MORE_END"><circle r="6" cy="18" cx="9" fill="white" stroke="gray"/><path d="M21,18 Q39,0 57,18 Q39,36 21,18" fill="none" stroke="gray"/></marker></defs><path style="stroke: gray; fill: none;" marker-start="url(#ONE_OR_MORE_START)" marker-end="url(#ONE_OR_MORE_END)" stroke-dasharray="8,8" d="M84.719,95L84.719,103.333C84.719,111.667,84.719,128.333,84.719,145C84.719,161.667,84.719,178.333,84.719,186.667L84.719,195" class="er relationshipLine"/><path style="stroke: gray; fill: none;" marker-start="url(#ONLY_ONE_START)" marker-end="url(#ZERO_OR_MORE_END)" d="M34.719,84.06L15.599,94.217C-3.521,104.374,-41.76,124.687,-60.88,149.427C-80,174.167,-80,203.333,-80,232.5C-80,261.667,-80,290.833,-60.88,315.573C-41.76,340.313,-3.521,360.626,15.599,370.783L34.719,380.94" class="er relationshipLine"/><path style="stroke: gray; fill: none;" marker-start="url(#ONLY_ONE_START)" marker-end="url(#ZERO_OR_MORE_END)" d="M134.719,77.875L162.172,89.063C189.625,100.25,244.531,122.625,271.984,142.146C299.438,161.667,299.438,178.333,299.438,186.667L299.438,195" class="er relationshipLine"/><path style="stroke: gray; fill: none;" marker-start="url(#ONLY_ONE_START)" marker-end="url(#ZERO_OR_MORE_END)" d="M84.719,270L84.719,278.333C84.719,286.667,84.719,303.333,84.719,320C84.719,336.667,84.719,353.333,84.719,361.667L84.719,370" class="er relationshipLine"/><path style="stroke: gray; fill: none;" marker-start="url(#ONLY_ONE_START)" marker-end="url(#ONE_OR_MORE_END)" d="M299.438,270L299.438,278.333C299.438,286.667,299.438,303.333,271.984,322.854C244.531,342.375,189.625,364.75,162.172,375.937L134.719,387.125" class="er relationshipLine"/><path style="stroke: gray; fill: none;" marker-start="url(#ONLY_ONE_START)" marker-end="url(#ONE_OR_MORE_END)" d="M84.719,445L84.719,453.333C84.719,461.667,84.719,478.333,112.614,497.896C140.509,517.458,196.299,539.915,224.195,551.144L252.09,562.373" class="er relationshipLine"/><path style="stroke: gray; fill: none;" marker-start="url(#ONLY_ONE_START)" marker-end="url(#ONE_OR_MORE_END)" d="M519.461,270L519.461,278.333C519.461,286.667,519.461,303.333,519.461,320C519.461,336.667,519.461,353.333,519.461,361.667L519.461,370" class="er relationshipLine"/><path style="stroke: gray; fill: none;" marker-start="url(#ONLY_ONE_START)" marker-end="url(#ZERO_OR_MORE_END)" d="M519.461,445L519.461,453.333C519.461,461.667,519.461,478.333,491.566,497.896C463.671,517.458,407.88,539.915,379.985,551.144L352.09,562.373" class="er relationshipLine"/><g transform="translate(34.71875,20 )" id="entity-CUSTOMER-7c659eae-ee79-5f5d-acd7-c418f8ad1d67"><rect height="75" width="100" y="0" x="0" class="er entityBox"/><text style="dominant-baseline: middle; text-anchor: middle; font-size: 12px;" transform="translate(50,37.5)" y="0" x="0" id="text-entity-CUSTOMER-7c659eae-ee79-5f5d-acd7-c418f8ad1d67" class="er entityLabel">CUSTOMER</text></g><g transform="translate(20,195 )" id="entity-DELIVERYADDRESS-fd3face8-ad78-5943-8bd2-c15cc8ecb9c6"><rect height="75" width="129.4375" y="0" x="0" class="er entityBox"/><text style="dominant-baseline: middle; text-anchor: middle; font-size: 12px;" transform="translate(64.71875,37.5)" y="0" x="0" id="text-entity-DELIVERYADDRESS-fd3face8-ad78-5943-8bd2-c15cc8ecb9c6" class="er entityLabel">DELIVERY-ADDRESS</text></g><g transform="translate(34.71875,370 )" id="entity-ORDER-36941e20-eb1d-50a3-81c5-00079b43c24a"><rect height="75" width="100" y="0" x="0" class="er entityBox"/><text style="dominant-baseline: middle; text-anchor: middle; font-size: 12px;" transform="translate(50,37.5)" y="0" x="0" id="text-entity-ORDER-36941e20-eb1d-50a3-81c5-00079b43c24a" class="er entityLabel">ORDER</text></g><g transform="translate(249.4375,195 )" id="entity-INVOICE-befa8dd9-5ec7-5029-b058-27b05a6cdbcd"><rect height="75" width="100" y="0" x="0" class="er entityBox"/><text style="dominant-baseline: middle; text-anchor: middle; font-size: 12px;" transform="translate(50,37.5)" y="0" x="0" id="text-entity-INVOICE-befa8dd9-5ec7-5029-b058-27b05a6cdbcd" class="er entityLabel">INVOICE</text></g><g transform="translate(252.08984375,545 )" id="entity-ORDERITEM-2f3e0a8a-1139-508c-8589-2d144a3ff50e"><rect height="75" width="100" y="0" x="0" class="er entityBox"/><text style="dominant-baseline: middle; text-anchor: middle; font-size: 12px;" transform="translate(50,37.5)" y="0" x="0" id="text-entity-ORDERITEM-2f3e0a8a-1139-508c-8589-2d144a3ff50e" class="er entityLabel">ORDER-ITEM</text></g><g transform="translate(449.4375,195 )" id="entity-PRODUCTCATEGORY-d522e853-470b-5a3e-b40c-3b174e1dded4"><rect height="75" width="140.046875" y="0" x="0" class="er entityBox"/><text style="dominant-baseline: middle; text-anchor: middle; font-size: 12px;" transform="translate(70.0234375,37.5)" y="0" x="0" id="text-entity-PRODUCTCATEGORY-d522e853-470b-5a3e-b40c-3b174e1dded4" class="er entityLabel">PRODUCT-CATEGORY</text></g><g transform="translate(469.4609375,370 )" id="entity-PRODUCT-b14524a1-8e20-5805-a382-423fd1ec339f"><rect height="75" width="100" y="0" x="0" class="er entityBox"/><text style="dominant-baseline: middle; text-anchor: middle; font-size: 12px;" transform="translate(50,37.5)" y="0" x="0" id="text-entity-PRODUCT-b14524a1-8e20-5805-a382-423fd1ec339f" class="er entityLabel">PRODUCT</text></g><rect height="14" width="17.71875" y="138" x="75.85962677001953" class="er relationshipLabelBox"/><text style="text-anchor: middle; dominant-baseline: middle; font-size: 12px;" y="145" x="84.71900177001953" id="rel1" class="er relationshipLabel">has</text><rect height="14" width="33.875" y="225.50001525878906" x="-96.9375" class="er relationshipLabelBox"/><text style="text-anchor: middle; dominant-baseline: middle; font-size: 12px;" y="232.50001525878906" x="-80" id="rel2" class="er relationshipLabel">places</text><rect height="14" width="49.203125" y="113.21796417236328" x="208.8260040283203" class="er relationshipLabelBox"/><text style="text-anchor: middle; dominant-baseline: middle; font-size: 12px;" y="120.21796417236328" x="233.4275665283203" id="rel3" class="er relationshipLabel">liable for</text><rect height="14" width="44.40625" y="313" x="62.51587677001953" class="er relationshipLabelBox"/><text style="text-anchor: middle; dominant-baseline: middle; font-size: 12px;" y="320" x="84.71900177001953" id="rel4" class="er relationshipLabel">receives</text><rect height="14" width="34.328125" y="337.78204345703125" x="216.2635040283203" class="er relationshipLabelBox"/><text style="text-anchor: middle; dominant-baseline: middle; font-size: 12px;" y="344.78204345703125" x="233.4275665283203" id="rel5" class="er relationshipLabel">covers</text><rect height="14" width="44.109375" y="513.0205688476562" x="130.02529907226562" class="er relationshipLabelBox"/><text style="text-anchor: middle; dominant-baseline: middle; font-size: 12px;" y="520.0205688476562" x="152.07998657226562" id="rel6" class="er relationshipLabel">includes</text><rect height="14" width="44.84375" y="313" x="497.03912353515625" class="er relationshipLabelBox"/><text style="text-anchor: middle; dominant-baseline: middle; font-size: 12px;" y="320" x="519.4609985351562" id="rel7" class="er relationshipLabel">contains</text><rect height="14" width="55.828125" y="513.0204467773438" x="424.18597412109375" class="er relationshipLabelBox"/><text style="text-anchor: middle; dominant-baseline: middle; font-size: 12px;" y="520.0204467773438" x="452.10003662109375" id="rel8" class="er relationshipLabel">ordered in</text></svg>