<svg aria-roledescription="er" role="graphics-document document" viewBox="-50 -62 1260.36767578125 702" style="max-width: 1260.37px; background-color: white;" xmlns:xlink="http://www.w3.org/1999/xlink" xmlns="http://www.w3.org/2000/svg" width="100%" id="my-svg"><style>#my-svg{font-family:"trebuchet ms",verdana,arial,sans-serif;font-size:16px;fill:#333;}#my-svg .error-icon{fill:#552222;}#my-svg .error-text{fill:#552222;stroke:#552222;}#my-svg .edge-thickness-normal{stroke-width:1px;}#my-svg .edge-thickness-thick{stroke-width:3.5px;}#my-svg .edge-pattern-solid{stroke-dasharray:0;}#my-svg .edge-thickness-invisible{stroke-width:0;fill:none;}#my-svg .edge-pattern-dashed{stroke-dasharray:3;}#my-svg .edge-pattern-dotted{stroke-dasharray:2;}#my-svg .marker{fill:#333333;stroke:#333333;}#my-svg .marker.cross{stroke:#333333;}#my-svg svg{font-family:"trebuchet ms",verdana,arial,sans-serif;font-size:16px;}#my-svg p{margin:0;}#my-svg .entityBox{fill:#ECECFF;stroke:#9370DB;}#my-svg .attributeBoxOdd{fill:#ffffff;stroke:#9370DB;}#my-svg .attributeBoxEven{fill:#f2f2f2;stroke:#9370DB;}#my-svg .relationshipLabelBox{fill:hsl(80, 100%, 96.2745098039%);opacity:0.7;background-color:hsl(80, 100%, 96.2745098039%);}#my-svg .relationshipLabelBox rect{opacity:0.5;}#my-svg .relationshipLine{stroke:#333333;}#my-svg .entityTitleText{text-anchor:middle;font-size:18px;fill:#333;}#my-svg #MD_PARENT_START{fill:#f5f5f5!important;stroke:#333333!important;stroke-width:1;}#my-svg #MD_PARENT_END{fill:#f5f5f5!important;stroke:#333333!important;stroke-width:1;}#my-svg :root{--mermaid-font-family:"trebuchet ms",verdana,arial,sans-serif;}</style><g/><defs><marker orient="auto" markerHeight="240" markerWidth="190" refY="7" refX="0" id="MD_PARENT_START"><path d="M 18,7 L9,13 L1,7 L9,1 Z"/></marker></defs><defs><marker orient="auto" markerHeight="28" markerWidth="20" refY="7" refX="19" id="MD_PARENT_END"><path d="M 18,7 L9,13 L1,7 L9,1 Z"/></marker></defs><defs><marker orient="auto" markerHeight="18" markerWidth="18" refY="9" refX="0" id="ONLY_ONE_START"><path d="M9,0 L9,18 M15,0 L15,18" fill="none" stroke="gray"/></marker></defs><defs><marker orient="auto" markerHeight="18" markerWidth="18" refY="9" refX="18" id="ONLY_ONE_END"><path d="M3,0 L3,18 M9,0 L9,18" fill="none" stroke="gray"/></marker></defs><defs><marker orient="auto" markerHeight="18" markerWidth="30" refY="9" refX="0" id="ZERO_OR_ONE_START"><circle r="6" cy="9" cx="21" fill="white" stroke="gray"/><path d="M9,0 L9,18" fill="none" stroke="gray"/></marker></defs><defs><marker orient="auto" markerHeight="18" markerWidth="30" refY="9" refX="30" id="ZERO_OR_ONE_END"><circle r="6" cy="9" cx="9" fill="white" stroke="gray"/><path d="M21,0 L21,18" fill="none" stroke="gray"/></marker></defs><defs><marker orient="auto" markerHeight="36" markerWidth="45" refY="18" refX="18" id="ONE_OR_MORE_START"><path d="M0,18 Q 18,0 36,18 Q 18,36 0,18 M42,9 L42,27" fill="none" stroke="gray"/></marker></defs><defs><marker orient="auto" markerHeight="36" markerWidth="45" refY="18" refX="27" id="ONE_OR_MORE_END"><path d="M3,9 L3,27 M9,18 Q27,0 45,18 Q27,36 9,18" fill="none" stroke="gray"/></marker></defs><defs><marker orient="auto" markerHeight="36" markerWidth="57" refY="18" refX="18" id="ZERO_OR_MORE_START"><circle r="6" cy="18" cx="48" fill="white" stroke="gray"/><path d="M0,18 Q18,0 36,18 Q18,36 0,18" fill="none" stroke="gray"/></marker></defs><defs><marker orient="auto" markerHeight="36" markerWidth="57" refY="18" refX="39" id="ZERO_OR_MORE_END"><circle r="6" cy="18" cx="9" fill="white" stroke="gray"/><path d="M21,18 Q39,0 57,18 Q39,36 21,18" fill="none" stroke="gray"/></marker></defs><path style="stroke: gray; fill: none;" marker-start="url(#ONLY_ONE_START)" marker-end="url(#ZERO_OR_ONE_END)" stroke-dasharray="8,8" d="M470,64.748L562.27,78.123C654.539,91.499,839.078,118.249,931.348,139.958C1023.617,161.667,1023.617,178.333,1023.617,186.667L1023.617,195" class="er relationshipLine"/><path style="stroke: gray; fill: none;" marker-start="url(#ONLY_ONE_START)" marker-end="url(#ZERO_OR_MORE_END)" stroke-dasharray="8,8" d="M420,95L420,103.333C420,111.667,420,128.333,420,145C420,161.667,420,178.333,420,186.667L420,195" class="er relationshipLine"/><path style="stroke: gray; fill: none;" marker-start="url(#ONLY_ONE_START)" marker-end="url(#ZERO_OR_MORE_END)" stroke-dasharray="8,8" d="M370,67.222L303.333,80.185C236.667,93.148,103.333,119.074,36.667,146.62C-30,174.167,-30,203.333,-30,232.5C-30,261.667,-30,290.833,-20.476,313.75C-10.952,336.667,8.095,353.333,17.619,361.667L27.143,370" class="er relationshipLine"/><path style="stroke: gray; fill: none;" marker-start="url(#ONLY_ONE_START)" marker-end="url(#ZERO_OR_MORE_END)" stroke-dasharray="8,8" d="M370,70L320,82.5C270,95,170,120,120,147.083C70,174.167,70,203.333,70,232.5C70,261.667,70,290.833,70,313.75C70,336.667,70,353.333,70,361.667L70,370" class="er relationshipLine"/><path style="stroke: gray; fill: none;" marker-start="url(#ONLY_ONE_START)" marker-end="url(#ZERO_OR_MORE_END)" stroke-dasharray="8,8" d="M370,86.667L353.333,96.389C336.667,106.111,303.333,125.556,286.667,149.861C270,174.167,270,203.333,270,232.5C270,261.667,270,290.833,277.143,313.75C284.286,336.667,298.571,353.333,305.714,361.667L312.857,370" class="er relationshipLine"/><path style="stroke: gray; fill: none;" marker-start="url(#ONLY_ONE_START)" marker-end="url(#ZERO_OR_MORE_END)" stroke-dasharray="8,8" d="M470,86.667L486.667,96.389C503.333,106.111,536.667,125.556,553.333,149.861C570,174.167,570,203.333,570,232.5C570,261.667,570,290.833,574.762,313.75C579.524,336.667,589.048,353.333,593.81,361.667L598.571,370" class="er relationshipLine"/><path style="stroke: gray; fill: none;" marker-start="url(#ONLY_ONE_START)" marker-end="url(#ZERO_OR_ONE_END)" stroke-dasharray="8,8" d="M420,270L420,278.333C420,286.667,420,303.333,412.857,320C405.714,336.667,391.429,353.333,384.286,361.667L377.143,370" class="er relationshipLine"/><path style="stroke: gray; fill: none;" marker-start="url(#ONLY_ONE_START)" marker-end="url(#ZERO_OR_MORE_END)" stroke-dasharray="8,8" d="M370,250L336.667,261.667C303.333,273.333,236.667,296.667,193.81,316.667C150.952,336.667,131.905,353.333,122.381,361.667L112.857,370" class="er relationshipLine"/><path style="stroke: gray; fill: none;" marker-start="url(#ONLY_ONE_START)" marker-end="url(#ZERO_OR_MORE_END)" stroke-dasharray="8,8" d="M470,250L503.333,261.667C536.667,273.333,603.333,296.667,631.905,316.667C660.476,336.667,650.952,353.333,646.19,361.667L641.429,370" class="er relationshipLine"/><path style="stroke: gray; fill: none;" marker-start="url(#ONLY_ONE_START)" marker-end="url(#ZERO_OR_MORE_END)" stroke-dasharray="8,8" d="M470,243.438L528.333,256.198C586.667,268.958,703.333,294.479,761.667,315.573C820,336.667,820,353.333,820,361.667L820,370" class="er relationshipLine"/><path style="stroke: gray; fill: none;" marker-start="url(#ONLY_ONE_START)" marker-end="url(#ZERO_OR_ONE_END)" stroke-dasharray="8,8" d="M70,445L70,453.333C70,461.667,70,478.333,157.148,499.845C244.297,521.358,418.594,547.715,505.742,560.894L592.891,574.073" class="er relationshipLine"/><path style="stroke: gray; fill: none;" marker-start="url(#ONLY_ONE_START)" marker-end="url(#ZERO_OR_MORE_END)" stroke-dasharray="8,8" d="M470,63.278L587.872,76.898C705.745,90.518,941.49,117.759,1059.362,145.963C1177.234,174.167,1177.234,203.333,1177.234,232.5C1177.234,261.667,1177.234,290.833,1177.234,320C1177.234,349.167,1177.234,378.333,1177.234,407.5C1177.234,436.667,1177.234,465.833,1098.419,493.463C1019.604,521.092,861.974,547.184,783.159,560.23L704.344,573.276" class="er relationshipLine"/><path style="stroke: gray; fill: none;" marker-start="url(#ONLY_ONE_START)" marker-end="url(#ZERO_OR_ONE_END)" stroke-dasharray="8,8" d="M1023.617,270L1023.617,278.333C1023.617,286.667,1023.617,303.333,1023.617,320C1023.617,336.667,1023.617,353.333,1023.617,361.667L1023.617,370" class="er relationshipLine"/><g transform="translate(370,20 )" id="entity-Users-8b6eb67b-f64b-5426-9c24-135a96b8b656"><rect height="75" width="100" y="0" x="0" class="er entityBox"/><text style="dominant-baseline: middle; text-anchor: middle; font-size: 12px;" transform="translate(50,37.5)" y="0" x="0" id="text-entity-Users-8b6eb67b-f64b-5426-9c24-135a96b8b656" class="er entityLabel">Users</text></g><g transform="translate(973.6171875,195 )" id="entity-Chefs-8f7d5507-6c68-5719-99f1-6bc984a983c9"><rect height="75" width="100" y="0" x="0" class="er entityBox"/><text style="dominant-baseline: middle; text-anchor: middle; font-size: 12px;" transform="translate(50,37.5)" y="0" x="0" id="text-entity-Chefs-8f7d5507-6c68-5719-99f1-6bc984a983c9" class="er entityLabel">Chefs</text></g><g transform="translate(370,195 )" id="entity-Recipes-359a8fe8-d165-51eb-9e88-6004425de592"><rect height="75" width="100" y="0" x="0" class="er entityBox"/><text style="dominant-baseline: middle; text-anchor: middle; font-size: 12px;" transform="translate(50,37.5)" y="0" x="0" id="text-entity-Recipes-359a8fe8-d165-51eb-9e88-6004425de592" class="er entityLabel">Recipes</text></g><g transform="translate(20,370 )" id="entity-Reviews-5bc97cb8-91d5-5dd4-a66a-2d4b34fc0ba6"><rect height="75" width="100" y="0" x="0" class="er entityBox"/><text style="dominant-baseline: middle; text-anchor: middle; font-size: 12px;" transform="translate(50,37.5)" y="0" x="0" id="text-entity-Reviews-5bc97cb8-91d5-5dd4-a66a-2d4b34fc0ba6" class="er entityLabel">Reviews</text></g><g transform="translate(295,370 )" id="entity-Favorites-c8334b47-78a0-5680-90f1-af4390b7d7f2"><rect height="75" width="100" y="0" x="0" class="er entityBox"/><text style="dominant-baseline: middle; text-anchor: middle; font-size: 12px;" transform="translate(50,37.5)" y="0" x="0" id="text-entity-Favorites-c8334b47-78a0-5680-90f1-af4390b7d7f2" class="er entityLabel">Favorites</text></g><g transform="translate(570,370 )" id="entity-Ratings-6fb86ea0-60e7-5429-90ce-2d083f794ef3"><rect height="75" width="100" y="0" x="0" class="er entityBox"/><text style="dominant-baseline: middle; text-anchor: middle; font-size: 12px;" transform="translate(50,37.5)" y="0" x="0" id="text-entity-Ratings-6fb86ea0-60e7-5429-90ce-2d083f794ef3" class="er entityLabel">Ratings</text></g><g transform="translate(770,370 )" id="entity-Categories-4066dbfd-a08d-5786-b5c1-a5236eeca05a"><rect height="75" width="100" y="0" x="0" class="er entityBox"/><text style="dominant-baseline: middle; text-anchor: middle; font-size: 12px;" transform="translate(50,37.5)" y="0" x="0" id="text-entity-Categories-4066dbfd-a08d-5786-b5c1-a5236eeca05a" class="er entityLabel">Categories</text></g><g transform="translate(592.890625,545 )" id="entity-MarkedReviews-260902ba-4573-5472-b124-7e1ad47c4094"><rect height="75" width="111.453125" y="0" x="0" class="er entityBox"/><text style="dominant-baseline: middle; text-anchor: middle; font-size: 12px;" transform="translate(55.7265625,37.5)" y="0" x="0" id="text-entity-MarkedReviews-260902ba-4573-5472-b124-7e1ad47c4094" class="er entityLabel">MarkedReviews</text></g><g transform="translate(970,370 )" id="entity-CertifiedChefs-9535a659-9ab8-5ffe-b7d8-5b05e41cda19"><rect height="75" width="107.234375" y="0" x="0" class="er entityBox"/><text style="dominant-baseline: middle; text-anchor: middle; font-size: 12px;" transform="translate(53.6171875,37.5)" y="0" x="0" id="text-entity-CertifiedChefs-9535a659-9ab8-5ffe-b7d8-5b05e41cda19" class="er entityLabel">CertifiedChefs</text></g><rect height="14" width="16.203125" y="100.89220428466797" x="750.9855346679688" class="er relationshipLabelBox"/><text style="text-anchor: middle; dominant-baseline: middle; font-size: 12px;" y="107.89220428466797" x="759.0870971679688" id="rel1" class="er relationshipLabel">ISA</text><rect height="14" width="27.609375" y="138" x="406.1953125" class="er relationshipLabelBox"/><text style="text-anchor: middle; dominant-baseline: middle; font-size: 12px;" y="145" x="420" id="rel2" class="er relationshipLabel">posts</text><rect height="14" width="33.1875" y="128.0353240966797" x="52.06451416015625" class="er relationshipLabelBox"/><text style="text-anchor: middle; dominant-baseline: middle; font-size: 12px;" y="135.0353240966797" x="68.65826416015625" id="rel3" class="er relationshipLabel">writes</text><rect height="14" width="24.421875" y="135.8332977294922" x="116.06944274902344" class="er relationshipLabelBox"/><text style="text-anchor: middle; dominant-baseline: middle; font-size: 12px;" y="142.8332977294922" x="128.28038024902344" id="rel4" class="er relationshipLabel">likes</text><rect height="14" width="17.71875" y="204.4590301513672" x="261.3747253417969" class="er relationshipLabelBox"/><text style="text-anchor: middle; dominant-baseline: middle; font-size: 12px;" y="211.4590301513672" x="270.2341003417969" id="rel5" class="er relationshipLabel">has</text><rect height="14" width="26.734375" y="201.39926147460938" x="556.2793579101562" class="er relationshipLabelBox"/><text style="text-anchor: middle; dominant-baseline: middle; font-size: 12px;" y="208.39926147460938" x="569.6465454101562" id="rel6" class="er relationshipLabel">gives</text><rect height="14" width="16.203125" y="317.87420654296875" x="402.4718933105469" class="er relationshipLabelBox"/><text style="text-anchor: middle; dominant-baseline: middle; font-size: 12px;" y="324.87420654296875" x="410.5734558105469" id="rel7" class="er relationshipLabel">ISA</text><rect height="14" width="17.71875" y="291.8021545410156" x="226.8253173828125" class="er relationshipLabelBox"/><text style="text-anchor: middle; dominant-baseline: middle; font-size: 12px;" y="298.8021545410156" x="235.6846923828125" id="rel8" class="er relationshipLabel">has</text><rect height="14" width="17.71875" y="284.2084045410156" x="573.1111450195312" class="er relationshipLabelBox"/><text style="text-anchor: middle; dominant-baseline: middle; font-size: 12px;" y="291.2084045410156" x="581.9705200195312" id="rel9" class="er relationshipLabel">has</text><rect height="14" width="17.71875" y="279.220947265625" x="650.2479858398438" class="er relationshipLabelBox"/><text style="text-anchor: middle; dominant-baseline: middle; font-size: 12px;" y="286.220947265625" x="659.1073608398438" id="rel10" class="er relationshipLabel">has</text><rect height="14" width="16.203125" y="524.3939819335938" x="310.855712890625" class="er relationshipLabelBox"/><text style="text-anchor: middle; dominant-baseline: middle; font-size: 12px;" y="531.3939819335938" x="318.957275390625" id="rel11" class="er relationshipLabel">ISA</text><rect height="14" width="31.84375" y="200.40611267089844" x="1158.52392578125" class="er relationshipLabelBox"/><text style="text-anchor: middle; dominant-baseline: middle; font-size: 12px;" y="207.40611267089844" x="1174.44580078125" id="rel12" class="er relationshipLabel">marks</text><rect height="14" width="16.203125" y="313" x="1015.5154418945312" class="er relationshipLabelBox"/><text style="text-anchor: middle; dominant-baseline: middle; font-size: 12px;" y="320" x="1023.6170043945312" id="rel13" class="er relationshipLabel">ISA</text><text class="entityTitleText" y="-25" x="580.183837890625" text-anchor="middle">ReciMe ER Diagram</text></svg>