<svg aria-roledescription="er" role="graphics-document document" viewBox="0 0 381.28125 643.376953125" style="max-width: 381.281px; background-color: white;" xmlns:xlink="http://www.w3.org/1999/xlink" xmlns="http://www.w3.org/2000/svg" width="100%" id="my-svg"><style>#my-svg{font-family:"trebuchet ms",verdana,arial,sans-serif;font-size:16px;fill:#333;}#my-svg .error-icon{fill:#552222;}#my-svg .error-text{fill:#552222;stroke:#552222;}#my-svg .edge-thickness-normal{stroke-width:1px;}#my-svg .edge-thickness-thick{stroke-width:3.5px;}#my-svg .edge-pattern-solid{stroke-dasharray:0;}#my-svg .edge-thickness-invisible{stroke-width:0;fill:none;}#my-svg .edge-pattern-dashed{stroke-dasharray:3;}#my-svg .edge-pattern-dotted{stroke-dasharray:2;}#my-svg .marker{fill:#333333;stroke:#333333;}#my-svg .marker.cross{stroke:#333333;}#my-svg svg{font-family:"trebuchet ms",verdana,arial,sans-serif;font-size:16px;}#my-svg p{margin:0;}#my-svg .entityBox{fill:#ECECFF;stroke:#9370DB;}#my-svg .attributeBoxOdd{fill:#ffffff;stroke:#9370DB;}#my-svg .attributeBoxEven{fill:#f2f2f2;stroke:#9370DB;}#my-svg .relationshipLabelBox{fill:hsl(80, 100%, 96.2745098039%);opacity:0.7;background-color:hsl(80, 100%, 96.2745098039%);}#my-svg .relationshipLabelBox rect{opacity:0.5;}#my-svg .relationshipLine{stroke:#333333;}#my-svg .entityTitleText{text-anchor:middle;font-size:18px;fill:#333;}#my-svg #MD_PARENT_START{fill:#f5f5f5!important;stroke:#333333!important;stroke-width:1;}#my-svg #MD_PARENT_END{fill:#f5f5f5!important;stroke:#333333!important;stroke-width:1;}#my-svg :root{--mermaid-font-family:"trebuchet ms",verdana,arial,sans-serif;}</style><g/><defs><marker orient="auto" markerHeight="240" markerWidth="190" refY="7" refX="0" id="MD_PARENT_START"><path d="M 18,7 L9,13 L1,7 L9,1 Z"/></marker></defs><defs><marker orient="auto" markerHeight="28" markerWidth="20" refY="7" refX="19" id="MD_PARENT_END"><path d="M 18,7 L9,13 L1,7 L9,1 Z"/></marker></defs><defs><marker orient="auto" markerHeight="18" markerWidth="18" refY="9" refX="0" id="ONLY_ONE_START"><path d="M9,0 L9,18 M15,0 L15,18" fill="none" stroke="gray"/></marker></defs><defs><marker orient="auto" markerHeight="18" markerWidth="18" refY="9" refX="18" id="ONLY_ONE_END"><path d="M3,0 L3,18 M9,0 L9,18" fill="none" stroke="gray"/></marker></defs><defs><marker orient="auto" markerHeight="18" markerWidth="30" refY="9" refX="0" id="ZERO_OR_ONE_START"><circle r="6" cy="9" cx="21" fill="white" stroke="gray"/><path d="M9,0 L9,18" fill="none" stroke="gray"/></marker></defs><defs><marker orient="auto" markerHeight="18" markerWidth="30" refY="9" refX="30" id="ZERO_OR_ONE_END"><circle r="6" cy="9" cx="9" fill="white" stroke="gray"/><path d="M21,0 L21,18" fill="none" stroke="gray"/></marker></defs><defs><marker orient="auto" markerHeight="36" markerWidth="45" refY="18" refX="18" id="ONE_OR_MORE_START"><path d="M0,18 Q 18,0 36,18 Q 18,36 0,18 M42,9 L42,27" fill="none" stroke="gray"/></marker></defs><defs><marker orient="auto" markerHeight="36" markerWidth="45" refY="18" refX="27" id="ONE_OR_MORE_END"><path d="M3,9 L3,27 M9,18 Q27,0 45,18 Q27,36 9,18" fill="none" stroke="gray"/></marker></defs><defs><marker orient="auto" markerHeight="36" markerWidth="57" refY="18" refX="18" id="ZERO_OR_MORE_START"><circle r="6" cy="18" cx="48" fill="white" stroke="gray"/><path d="M0,18 Q18,0 36,18 Q18,36 0,18" fill="none" stroke="gray"/></marker></defs><defs><marker orient="auto" markerHeight="36" markerWidth="57" refY="18" refX="39" id="ZERO_OR_MORE_END"><circle r="6" cy="18" cx="9" fill="white" stroke="gray"/><path d="M21,18 Q39,0 57,18 Q39,36 21,18" fill="none" stroke="gray"/></marker></defs><path style="stroke: gray; fill: none;" marker-start="url(#ONLY_ONE_START)" marker-end="url(#ZERO_OR_MORE_END)" d="M78.914,132.367L78.914,140.701C78.914,149.034,78.914,165.701,78.914,184.223C78.914,202.746,78.914,223.126,78.914,233.315L78.914,243.505" class="er relationshipLine"/><path style="stroke: gray; fill: none;" marker-start="url(#ONLY_ONE_START)" marker-end="url(#ONE_OR_MORE_END)" d="M78.914,377.78L78.914,387.97C78.914,398.16,78.914,418.539,88.512,438.927C98.109,459.315,117.305,479.713,126.902,489.912L136.5,500.11" class="er relationshipLine"/><path style="stroke: gray; fill: none;" marker-start="url(#ONLY_ONE_START)" marker-end="url(#ZERO_OR_MORE_END)" d="M299.555,388.918L299.555,397.251C299.555,405.585,299.555,422.251,289.957,440.783C280.359,459.315,261.164,479.713,251.566,489.912L241.969,500.11" class="er relationshipLine"/><path style="stroke: gray; fill: none;" marker-start="url(#ONLY_ONE_START)" marker-end="url(#ZERO_OR_MORE_END)" d="M299.555,121.321L299.555,131.496C299.555,141.67,299.555,162.019,299.555,180.526C299.555,199.034,299.555,215.701,299.555,224.034L299.555,232.367" class="er relationshipLine"/><g transform="translate(28.9140625,20 )" id="entity-USER-6e7e2962-0c6f-577d-a7fd-2ce3a0cfd2c8"><rect height="112.36719131469727" width="100" y="0" x="0" class="er entityBox"/><text style="dominant-baseline: middle; text-anchor: middle; font-size: 12px;" transform="translate(50,12)" y="0" x="0" id="text-entity-USER-6e7e2962-0c6f-577d-a7fd-2ce3a0cfd2c8" class="er entityLabel">USER</text><rect height="22.091797828674316" width="49.1171875" y="24" x="0" class="er attributeBoxOdd"/><text style="dominant-baseline: middle; font-size: 10.2px;" transform="translate(5,35.04589891433716)" y="0" x="0" id="text-entity-USER-6e7e2962-0c6f-577d-a7fd-2ce3a0cfd2c8-attr-1-type" class="er entityLabel">integer</text><rect height="22.091797828674316" width="50.8828125" y="24" x="49.1171875" class="er attributeBoxOdd"/><text style="dominant-baseline: middle; font-size: 10.2px;" transform="translate(54.1171875,35.04589891433716)" y="0" x="0" id="text-entity-USER-6e7e2962-0c6f-577d-a7fd-2ce3a0cfd2c8-attr-1-name" class="er entityLabel">id</text><rect height="22.091797828674316" width="49.1171875" y="46.091797828674316" x="0" class="er attributeBoxEven"/><text style="dominant-baseline: middle; font-size: 10.2px;" transform="translate(5,57.137696743011475)" y="0" x="0" id="text-entity-USER-6e7e2962-0c6f-577d-a7fd-2ce3a0cfd2c8-attr-2-type" class="er entityLabel">string</text><rect height="22.091797828674316" width="50.8828125" y="46.091797828674316" x="49.1171875" class="er attributeBoxEven"/><text style="dominant-baseline: middle; font-size: 10.2px;" transform="translate(54.1171875,57.137696743011475)" y="0" x="0" id="text-entity-USER-6e7e2962-0c6f-577d-a7fd-2ce3a0cfd2c8-attr-2-name" class="er entityLabel">email</text><rect height="22.091797828674316" width="49.1171875" y="68.18359565734863" x="0" class="er attributeBoxOdd"/><text style="dominant-baseline: middle; font-size: 10.2px;" transform="translate(5,79.22949457168579)" y="0" x="0" id="text-entity-USER-6e7e2962-0c6f-577d-a7fd-2ce3a0cfd2c8-attr-3-type" class="er entityLabel">string</text><rect height="22.091797828674316" width="50.8828125" y="68.18359565734863" x="49.1171875" class="er attributeBoxOdd"/><text style="dominant-baseline: middle; font-size: 10.2px;" transform="translate(54.1171875,79.22949457168579)" y="0" x="0" id="text-entity-USER-6e7e2962-0c6f-577d-a7fd-2ce3a0cfd2c8-attr-3-name" class="er entityLabel">name</text><rect height="22.091797828674316" width="49.1171875" y="90.27539348602295" x="0" class="er attributeBoxEven"/><text style="dominant-baseline: middle; font-size: 10.2px;" transform="translate(5,101.32129240036011)" y="0" x="0" id="text-entity-USER-6e7e2962-0c6f-577d-a7fd-2ce3a0cfd2c8-attr-4-type" class="er entityLabel">string</text><rect height="22.091797828674316" width="50.8828125" y="90.27539348602295" x="49.1171875" class="er attributeBoxEven"/><text style="dominant-baseline: middle; font-size: 10.2px;" transform="translate(54.1171875,101.32129240036011)" y="0" x="0" id="text-entity-USER-6e7e2962-0c6f-577d-a7fd-2ce3a0cfd2c8-attr-4-name" class="er entityLabel">address</text></g><g transform="translate(20,243.5048828125 )" id="entity-ORDER-36941e20-eb1d-50a3-81c5-00079b43c24a"><rect height="134.27539348602295" width="117.828125" y="0" x="0" class="er entityBox"/><text style="dominant-baseline: middle; text-anchor: middle; font-size: 12px;" transform="translate(58.9140625,12)" y="0" x="0" id="text-entity-ORDER-36941e20-eb1d-50a3-81c5-00079b43c24a" class="er entityLabel">ORDER</text><rect height="22.091797828674316" width="46.046875" y="24" x="0" class="er attributeBoxOdd"/><text style="dominant-baseline: middle; font-size: 10.2px;" transform="translate(5,35.04589891433716)" y="0" x="0" id="text-entity-ORDER-36941e20-eb1d-50a3-81c5-00079b43c24a-attr-1-type" class="er entityLabel">integer</text><rect height="22.091797828674316" width="71.78125" y="24" x="46.046875" class="er attributeBoxOdd"/><text style="dominant-baseline: middle; font-size: 10.2px;" transform="translate(51.046875,35.04589891433716)" y="0" x="0" id="text-entity-ORDER-36941e20-eb1d-50a3-81c5-00079b43c24a-attr-1-name" class="er entityLabel">id</text><rect height="22.091797828674316" width="46.046875" y="46.091797828674316" x="0" class="er attributeBoxEven"/><text style="dominant-baseline: middle; font-size: 10.2px;" transform="translate(5,57.137696743011475)" y="0" x="0" id="text-entity-ORDER-36941e20-eb1d-50a3-81c5-00079b43c24a-attr-2-type" class="er entityLabel">integer</text><rect height="22.091797828674316" width="71.78125" y="46.091797828674316" x="46.046875" class="er attributeBoxEven"/><text style="dominant-baseline: middle; font-size: 10.2px;" transform="translate(51.046875,57.137696743011475)" y="0" x="0" id="text-entity-ORDER-36941e20-eb1d-50a3-81c5-00079b43c24a-attr-2-name" class="er entityLabel">user_id</text><rect height="22" width="46.046875" y="68.18359565734863" x="0" class="er attributeBoxOdd"/><text style="dominant-baseline: middle; font-size: 10.2px;" transform="translate(5,79.18359565734863)" y="0" x="0" id="text-entity-ORDER-36941e20-eb1d-50a3-81c5-00079b43c24a-attr-3-type" class="er entityLabel">date</text><rect height="22" width="71.78125" y="68.18359565734863" x="46.046875" class="er attributeBoxOdd"/><text style="dominant-baseline: middle; font-size: 10.2px;" transform="translate(51.046875,79.18359565734863)" y="0" x="0" id="text-entity-ORDER-36941e20-eb1d-50a3-81c5-00079b43c24a-attr-3-name" class="er entityLabel">order_date</text><rect height="22.091797828674316" width="46.046875" y="90.18359565734863" x="0" class="er attributeBoxEven"/><text style="dominant-baseline: middle; font-size: 10.2px;" transform="translate(5,101.22949457168579)" y="0" x="0" id="text-entity-ORDER-36941e20-eb1d-50a3-81c5-00079b43c24a-attr-4-type" class="er entityLabel">string</text><rect height="22.091797828674316" width="71.78125" y="90.18359565734863" x="46.046875" class="er attributeBoxEven"/><text style="dominant-baseline: middle; font-size: 10.2px;" transform="translate(51.046875,101.22949457168579)" y="0" x="0" id="text-entity-ORDER-36941e20-eb1d-50a3-81c5-00079b43c24a-attr-4-name" class="er entityLabel">status</text><rect height="22" width="46.046875" y="112.27539348602295" x="0" class="er attributeBoxOdd"/><text style="dominant-baseline: middle; font-size: 10.2px;" transform="translate(5,123.27539348602295)" y="0" x="0" id="text-entity-ORDER-36941e20-eb1d-50a3-81c5-00079b43c24a-attr-5-type" class="er entityLabel">decimal</text><rect height="22" width="71.78125" y="112.27539348602295" x="46.046875" class="er attributeBoxOdd"/><text style="dominant-baseline: middle; font-size: 10.2px;" transform="translate(51.046875,123.27539348602295)" y="0" x="0" id="text-entity-ORDER-36941e20-eb1d-50a3-81c5-00079b43c24a-attr-5-name" class="er entityLabel">total_amount</text></g><g transform="translate(136.5,488.91796875 )" id="entity-ORDERITEM-e5349d72-b47b-55be-8020-113016425f62"><rect height="134.45898914337158" width="105.46875" y="0" x="0" class="er entityBox"/><text style="dominant-baseline: middle; text-anchor: middle; font-size: 12px;" transform="translate(52.734375,12)" y="0" x="0" id="text-entity-ORDERITEM-e5349d72-b47b-55be-8020-113016425f62" class="er entityLabel">ORDER_ITEM</text><rect height="22.091797828674316" width="46.046875" y="24" x="0" class="er attributeBoxOdd"/><text style="dominant-baseline: middle; font-size: 10.2px;" transform="translate(5,35.04589891433716)" y="0" x="0" id="text-entity-ORDERITEM-e5349d72-b47b-55be-8020-113016425f62-attr-1-type" class="er entityLabel">integer</text><rect height="22.091797828674316" width="59.421875" y="24" x="46.046875" class="er attributeBoxOdd"/><text style="dominant-baseline: middle; font-size: 10.2px;" transform="translate(51.046875,35.04589891433716)" y="0" x="0" id="text-entity-ORDERITEM-e5349d72-b47b-55be-8020-113016425f62-attr-1-name" class="er entityLabel">id</text><rect height="22.091797828674316" width="46.046875" y="46.091797828674316" x="0" class="er attributeBoxEven"/><text style="dominant-baseline: middle; font-size: 10.2px;" transform="translate(5,57.137696743011475)" y="0" x="0" id="text-entity-ORDERITEM-e5349d72-b47b-55be-8020-113016425f62-attr-2-type" class="er entityLabel">integer</text><rect height="22.091797828674316" width="59.421875" y="46.091797828674316" x="46.046875" class="er attributeBoxEven"/><text style="dominant-baseline: middle; font-size: 10.2px;" transform="translate(51.046875,57.137696743011475)" y="0" x="0" id="text-entity-ORDERITEM-e5349d72-b47b-55be-8020-113016425f62-attr-2-name" class="er entityLabel">order_id</text><rect height="22.091797828674316" width="46.046875" y="68.18359565734863" x="0" class="er attributeBoxOdd"/><text style="dominant-baseline: middle; font-size: 10.2px;" transform="translate(5,79.22949457168579)" y="0" x="0" id="text-entity-ORDERITEM-e5349d72-b47b-55be-8020-113016425f62-attr-3-type" class="er entityLabel">integer</text><rect height="22.091797828674316" width="59.421875" y="68.18359565734863" x="46.046875" class="er attributeBoxOdd"/><text style="dominant-baseline: middle; font-size: 10.2px;" transform="translate(51.046875,79.22949457168579)" y="0" x="0" id="text-entity-ORDERITEM-e5349d72-b47b-55be-8020-113016425f62-attr-3-name" class="er entityLabel">product_id</text><rect height="22.091797828674316" width="46.046875" y="90.27539348602295" x="0" class="er attributeBoxEven"/><text style="dominant-baseline: middle; font-size: 10.2px;" transform="translate(5,101.32129240036011)" y="0" x="0" id="text-entity-ORDERITEM-e5349d72-b47b-55be-8020-113016425f62-attr-4-type" class="er entityLabel">integer</text><rect height="22.091797828674316" width="59.421875" y="90.27539348602295" x="46.046875" class="er attributeBoxEven"/><text style="dominant-baseline: middle; font-size: 10.2px;" transform="translate(51.046875,101.32129240036011)" y="0" x="0" id="text-entity-ORDERITEM-e5349d72-b47b-55be-8020-113016425f62-attr-4-name" class="er entityLabel">quantity</text><rect height="22.091797828674316" width="46.046875" y="112.36719131469727" x="0" class="er attributeBoxOdd"/><text style="dominant-baseline: middle; font-size: 10.2px;" transform="translate(5,123.41309022903442)" y="0" x="0" id="text-entity-ORDERITEM-e5349d72-b47b-55be-8020-113016425f62-attr-5-type" class="er entityLabel">decimal</text><rect height="22.091797828674316" width="59.421875" y="112.36719131469727" x="46.046875" class="er attributeBoxOdd"/><text style="dominant-baseline: middle; font-size: 10.2px;" transform="translate(51.046875,123.41309022903442)" y="0" x="0" id="text-entity-ORDERITEM-e5349d72-b47b-55be-8020-113016425f62-attr-5-name" class="er entityLabel">unit_price</text></g><g transform="translate(237.828125,232.3671875 )" id="entity-PRODUCT-b14524a1-8e20-5805-a382-423fd1ec339f"><rect height="156.55078601837158" width="123.453125" y="0" x="0" class="er entityBox"/><text style="dominant-baseline: middle; text-anchor: middle; font-size: 12px;" transform="translate(61.7265625,12)" y="0" x="0" id="text-entity-PRODUCT-b14524a1-8e20-5805-a382-423fd1ec339f" class="er entityLabel">PRODUCT</text><rect height="22.091797828674316" width="46.046875" y="24" x="0" class="er attributeBoxOdd"/><text style="dominant-baseline: middle; font-size: 10.2px;" transform="translate(5,35.04589891433716)" y="0" x="0" id="text-entity-PRODUCT-b14524a1-8e20-5805-a382-423fd1ec339f-attr-1-type" class="er entityLabel">integer</text><rect height="22.091797828674316" width="77.40625" y="24" x="46.046875" class="er attributeBoxOdd"/><text style="dominant-baseline: middle; font-size: 10.2px;" transform="translate(51.046875,35.04589891433716)" y="0" x="0" id="text-entity-PRODUCT-b14524a1-8e20-5805-a382-423fd1ec339f-attr-1-name" class="er entityLabel">id</text><rect height="22.091797828674316" width="46.046875" y="46.091797828674316" x="0" class="er attributeBoxEven"/><text style="dominant-baseline: middle; font-size: 10.2px;" transform="translate(5,57.137696743011475)" y="0" x="0" id="text-entity-PRODUCT-b14524a1-8e20-5805-a382-423fd1ec339f-attr-2-type" class="er entityLabel">string</text><rect height="22.091797828674316" width="77.40625" y="46.091797828674316" x="46.046875" class="er attributeBoxEven"/><text style="dominant-baseline: middle; font-size: 10.2px;" transform="translate(51.046875,57.137696743011475)" y="0" x="0" id="text-entity-PRODUCT-b14524a1-8e20-5805-a382-423fd1ec339f-attr-2-name" class="er entityLabel">name</text><rect height="22.091796875" width="46.046875" y="68.18359565734863" x="0" class="er attributeBoxOdd"/><text style="dominant-baseline: middle; font-size: 10.2px;" transform="translate(5,79.22949409484863)" y="0" x="0" id="text-entity-PRODUCT-b14524a1-8e20-5805-a382-423fd1ec339f-attr-3-type" class="er entityLabel">text</text><rect height="22.091796875" width="77.40625" y="68.18359565734863" x="46.046875" class="er attributeBoxOdd"/><text style="dominant-baseline: middle; font-size: 10.2px;" transform="translate(51.046875,79.22949409484863)" y="0" x="0" id="text-entity-PRODUCT-b14524a1-8e20-5805-a382-423fd1ec339f-attr-3-name" class="er entityLabel">description</text><rect height="22.091797828674316" width="46.046875" y="90.27539253234863" x="0" class="er attributeBoxEven"/><text style="dominant-baseline: middle; font-size: 10.2px;" transform="translate(5,101.32129144668579)" y="0" x="0" id="text-entity-PRODUCT-b14524a1-8e20-5805-a382-423fd1ec339f-attr-4-type" class="er entityLabel">decimal</text><rect height="22.091797828674316" width="77.40625" y="90.27539253234863" x="46.046875" class="er attributeBoxEven"/><text style="dominant-baseline: middle; font-size: 10.2px;" transform="translate(51.046875,101.32129144668579)" y="0" x="0" id="text-entity-PRODUCT-b14524a1-8e20-5805-a382-423fd1ec339f-attr-4-name" class="er entityLabel">price</text><rect height="22.091797828674316" width="46.046875" y="112.36719036102295" x="0" class="er attributeBoxOdd"/><text style="dominant-baseline: middle; font-size: 10.2px;" transform="translate(5,123.41308927536011)" y="0" x="0" id="text-entity-PRODUCT-b14524a1-8e20-5805-a382-423fd1ec339f-attr-5-type" class="er entityLabel">integer</text><rect height="22.091797828674316" width="77.40625" y="112.36719036102295" x="46.046875" class="er attributeBoxOdd"/><text style="dominant-baseline: middle; font-size: 10.2px;" transform="translate(51.046875,123.41308927536011)" y="0" x="0" id="text-entity-PRODUCT-b14524a1-8e20-5805-a382-423fd1ec339f-attr-5-name" class="er entityLabel">stock_quantity</text><rect height="22.091797828674316" width="46.046875" y="134.45898818969727" x="0" class="er attributeBoxEven"/><text style="dominant-baseline: middle; font-size: 10.2px;" transform="translate(5,145.50488710403442)" y="0" x="0" id="text-entity-PRODUCT-b14524a1-8e20-5805-a382-423fd1ec339f-attr-6-type" class="er entityLabel">integer</text><rect height="22.091797828674316" width="77.40625" y="134.45898818969727" x="46.046875" class="er attributeBoxEven"/><text style="dominant-baseline: middle; font-size: 10.2px;" transform="translate(51.046875,145.50488710403442)" y="0" x="0" id="text-entity-PRODUCT-b14524a1-8e20-5805-a382-423fd1ec339f-attr-6-name" class="er entityLabel">category_id</text></g><g transform="translate(247.6875,31.0458984375 )" id="entity-CATEGORY-4496cc9e-da1f-5994-ab05-87aa395a773d"><rect height="90.27539253234863" width="103.734375" y="0" x="0" class="er entityBox"/><text style="dominant-baseline: middle; text-anchor: middle; font-size: 12px;" transform="translate(51.8671875,12)" y="0" x="0" id="text-entity-CATEGORY-4496cc9e-da1f-5994-ab05-87aa395a773d" class="er entityLabel">CATEGORY</text><rect height="22.091797828674316" width="42.75" y="24" x="0" class="er attributeBoxOdd"/><text style="dominant-baseline: middle; font-size: 10.2px;" transform="translate(5,35.04589891433716)" y="0" x="0" id="text-entity-CATEGORY-4496cc9e-da1f-5994-ab05-87aa395a773d-attr-1-type" class="er entityLabel">integer</text><rect height="22.091797828674316" width="60.984375" y="24" x="42.75" class="er attributeBoxOdd"/><text style="dominant-baseline: middle; font-size: 10.2px;" transform="translate(47.75,35.04589891433716)" y="0" x="0" id="text-entity-CATEGORY-4496cc9e-da1f-5994-ab05-87aa395a773d-attr-1-name" class="er entityLabel">id</text><rect height="22.091797828674316" width="42.75" y="46.091797828674316" x="0" class="er attributeBoxEven"/><text style="dominant-baseline: middle; font-size: 10.2px;" transform="translate(5,57.137696743011475)" y="0" x="0" id="text-entity-CATEGORY-4496cc9e-da1f-5994-ab05-87aa395a773d-attr-2-type" class="er entityLabel">string</text><rect height="22.091797828674316" width="60.984375" y="46.091797828674316" x="42.75" class="er attributeBoxEven"/><text style="dominant-baseline: middle; font-size: 10.2px;" transform="translate(47.75,57.137696743011475)" y="0" x="0" id="text-entity-CATEGORY-4496cc9e-da1f-5994-ab05-87aa395a773d-attr-2-name" class="er entityLabel">name</text><rect height="22.091796875" width="42.75" y="68.18359565734863" x="0" class="er attributeBoxOdd"/><text style="dominant-baseline: middle; font-size: 10.2px;" transform="translate(5,79.22949409484863)" y="0" x="0" id="text-entity-CATEGORY-4496cc9e-da1f-5994-ab05-87aa395a773d-attr-3-type" class="er entityLabel">text</text><rect height="22.091796875" width="60.984375" y="68.18359565734863" x="42.75" class="er attributeBoxOdd"/><text style="dominant-baseline: middle; font-size: 10.2px;" transform="translate(47.75,79.22949409484863)" y="0" x="0" id="text-entity-CATEGORY-4496cc9e-da1f-5994-ab05-87aa395a773d-attr-3-name" class="er entityLabel">description</text></g><rect height="14" width="33.875" y="180.93600463867188" x="61.97650146484375" class="er relationshipLabelBox"/><text style="text-anchor: middle; dominant-baseline: middle; font-size: 12px;" y="187.93600463867188" x="78.91400146484375" id="rel1" class="er relationshipLabel">places</text><rect height="14" width="44.84375" y="438.8349609375" x="69.68999481201172" class="er relationshipLabelBox"/><text style="text-anchor: middle; dominant-baseline: middle; font-size: 12px;" y="445.8349609375" x="92.11186981201172" id="rel2" class="er relationshipLabel">contains</text><rect height="14" width="55.828125" y="443.73931884765625" x="256.145751953125" class="er relationshipLabelBox"/><text style="text-anchor: middle; dominant-baseline: middle; font-size: 12px;" y="450.73931884765625" x="284.059814453125" id="rel3" class="er relationshipLabel">ordered in</text><rect height="14" width="17.71875" y="169.843994140625" x="290.69561767578125" class="er relationshipLabelBox"/><text style="text-anchor: middle; dominant-baseline: middle; font-size: 12px;" y="176.843994140625" x="299.55499267578125" id="rel4" class="er relationshipLabel">has</text></svg>