<svg aria-roledescription="er" role="graphics-document document" viewBox="0 0 560.91015625 819.46875" style="max-width: 560.91px; background-color: white;" xmlns:xlink="http://www.w3.org/1999/xlink" xmlns="http://www.w3.org/2000/svg" width="100%" id="my-svg"><style>#my-svg{font-family:"trebuchet ms",verdana,arial,sans-serif;font-size:16px;fill:#333;}#my-svg .error-icon{fill:#552222;}#my-svg .error-text{fill:#552222;stroke:#552222;}#my-svg .edge-thickness-normal{stroke-width:1px;}#my-svg .edge-thickness-thick{stroke-width:3.5px;}#my-svg .edge-pattern-solid{stroke-dasharray:0;}#my-svg .edge-thickness-invisible{stroke-width:0;fill:none;}#my-svg .edge-pattern-dashed{stroke-dasharray:3;}#my-svg .edge-pattern-dotted{stroke-dasharray:2;}#my-svg .marker{fill:#333333;stroke:#333333;}#my-svg .marker.cross{stroke:#333333;}#my-svg svg{font-family:"trebuchet ms",verdana,arial,sans-serif;font-size:16px;}#my-svg p{margin:0;}#my-svg .entityBox{fill:#ECECFF;stroke:#9370DB;}#my-svg .attributeBoxOdd{fill:#ffffff;stroke:#9370DB;}#my-svg .attributeBoxEven{fill:#f2f2f2;stroke:#9370DB;}#my-svg .relationshipLabelBox{fill:hsl(80, 100%, 96.2745098039%);opacity:0.7;background-color:hsl(80, 100%, 96.2745098039%);}#my-svg .relationshipLabelBox rect{opacity:0.5;}#my-svg .relationshipLine{stroke:#333333;}#my-svg .entityTitleText{text-anchor:middle;font-size:18px;fill:#333;}#my-svg #MD_PARENT_START{fill:#f5f5f5!important;stroke:#333333!important;stroke-width:1;}#my-svg #MD_PARENT_END{fill:#f5f5f5!important;stroke:#333333!important;stroke-width:1;}#my-svg :root{--mermaid-font-family:"trebuchet ms",verdana,arial,sans-serif;}</style><g/><defs><marker orient="auto" markerHeight="240" markerWidth="190" refY="7" refX="0" id="MD_PARENT_START"><path d="M 18,7 L9,13 L1,7 L9,1 Z"/></marker></defs><defs><marker orient="auto" markerHeight="28" markerWidth="20" refY="7" refX="19" id="MD_PARENT_END"><path d="M 18,7 L9,13 L1,7 L9,1 Z"/></marker></defs><defs><marker orient="auto" markerHeight="18" markerWidth="18" refY="9" refX="0" id="ONLY_ONE_START"><path d="M9,0 L9,18 M15,0 L15,18" fill="none" stroke="gray"/></marker></defs><defs><marker orient="auto" markerHeight="18" markerWidth="18" refY="9" refX="18" id="ONLY_ONE_END"><path d="M3,0 L3,18 M9,0 L9,18" fill="none" stroke="gray"/></marker></defs><defs><marker orient="auto" markerHeight="18" markerWidth="30" refY="9" refX="0" id="ZERO_OR_ONE_START"><circle r="6" cy="9" cx="21" fill="white" stroke="gray"/><path d="M9,0 L9,18" fill="none" stroke="gray"/></marker></defs><defs><marker orient="auto" markerHeight="18" markerWidth="30" refY="9" refX="30" id="ZERO_OR_ONE_END"><circle r="6" cy="9" cx="9" fill="white" stroke="gray"/><path d="M21,0 L21,18" fill="none" stroke="gray"/></marker></defs><defs><marker orient="auto" markerHeight="36" markerWidth="45" refY="18" refX="18" id="ONE_OR_MORE_START"><path d="M0,18 Q 18,0 36,18 Q 18,36 0,18 M42,9 L42,27" fill="none" stroke="gray"/></marker></defs><defs><marker orient="auto" markerHeight="36" markerWidth="45" refY="18" refX="27" id="ONE_OR_MORE_END"><path d="M3,9 L3,27 M9,18 Q27,0 45,18 Q27,36 9,18" fill="none" stroke="gray"/></marker></defs><defs><marker orient="auto" markerHeight="36" markerWidth="57" refY="18" refX="18" id="ZERO_OR_MORE_START"><circle r="6" cy="18" cx="48" fill="white" stroke="gray"/><path d="M0,18 Q18,0 36,18 Q18,36 0,18" fill="none" stroke="gray"/></marker></defs><defs><marker orient="auto" markerHeight="36" markerWidth="57" refY="18" refX="39" id="ZERO_OR_MORE_END"><circle r="6" cy="18" cx="9" fill="white" stroke="gray"/><path d="M21,18 Q39,0 57,18 Q39,36 21,18" fill="none" stroke="gray"/></marker></defs><path style="stroke: gray; fill: none;" marker-start="url(#ONLY_ONE_START)" marker-end="url(#ZERO_OR_MORE_END)" d="M105.969,220.367L105.969,228.701C105.969,237.034,105.969,253.701,115.261,274.635C124.553,295.57,143.138,320.772,152.43,333.374L161.723,345.975" class="er relationshipLine"/><path style="stroke: gray; fill: none;" marker-start="url(#ZERO_OR_ONE_START)" marker-end="url(#ZERO_OR_MORE_END)" d="M233.074,565.102L233.074,573.435C233.074,581.768,233.074,598.435,241.745,615.25C250.415,632.064,267.757,649.027,276.427,657.509L285.098,665.99" class="er relationshipLine"/><path style="stroke: gray; fill: none;" marker-start="url(#ONLY_ONE_START)" marker-end="url(#ZERO_OR_MORE_END)" d="M360.18,198.321L360.18,210.329C360.18,222.337,360.18,246.352,350.887,270.961C341.595,295.57,323.01,320.772,313.718,333.374L304.426,345.975" class="er relationshipLine"/><path style="stroke: gray; fill: none;" marker-start="url(#ZERO_OR_ONE_START)" marker-end="url(#ZERO_OR_MORE_END)" d="M472.668,520.872L472.668,536.577C472.668,552.282,472.668,583.692,463.997,607.878C455.327,632.064,437.986,649.027,429.315,657.509L420.645,665.99" class="er relationshipLine"/><g transform="translate(20,20 )" id="entity-users-33ae1e26-be31-5c1d-bf65-e859e9d0308e"><rect height="200.36718845367432" width="171.9375" y="0" x="0" class="er entityBox"/><text style="dominant-baseline: middle; text-anchor: middle; font-size: 12px;" transform="translate(85.96875,12)" y="0" x="0" id="text-entity-users-33ae1e26-be31-5c1d-bf65-e859e9d0308e" class="er entityLabel">users</text><rect height="22.091796875" width="58.671875" y="24" x="0" class="er attributeBoxOdd"/><text style="dominant-baseline: middle; font-size: 10.2px;" transform="translate(5,35.0458984375)" y="0" x="0" id="text-entity-users-33ae1e26-be31-5c1d-bf65-e859e9d0308e-attr-1-type" class="er entityLabel">bigint</text><rect height="22.091796875" width="90.765625" y="24" x="58.671875" class="er attributeBoxOdd"/><text style="dominant-baseline: middle; font-size: 10.2px;" transform="translate(63.671875,35.0458984375)" y="0" x="0" id="text-entity-users-33ae1e26-be31-5c1d-bf65-e859e9d0308e-attr-1-name" class="er entityLabel">id</text><rect height="22.091796875" width="22.5" y="24" x="149.4375" class="er attributeBoxOdd"/><text style="dominant-baseline: middle; font-size: 10.2px;" transform="translate(154.4375,35.0458984375)" y="0" x="0" id="text-entity-users-33ae1e26-be31-5c1d-bf65-e859e9d0308e-attr-1-key" class="er entityLabel">PK</text><rect height="22" width="58.671875" y="46.091796875" x="0" class="er attributeBoxEven"/><text style="dominant-baseline: middle; font-size: 10.2px;" transform="translate(5,57.091796875)" y="0" x="0" id="text-entity-users-33ae1e26-be31-5c1d-bf65-e859e9d0308e-attr-2-type" class="er entityLabel">varchar</text><rect height="22" width="90.765625" y="46.091796875" x="58.671875" class="er attributeBoxEven"/><text style="dominant-baseline: middle; font-size: 10.2px;" transform="translate(63.671875,57.091796875)" y="0" x="0" id="text-entity-users-33ae1e26-be31-5c1d-bf65-e859e9d0308e-attr-2-name" class="er entityLabel">name</text><rect height="22" width="22.5" y="46.091796875" x="149.4375" class="er attributeBoxEven"/><text style="dominant-baseline: middle; font-size: 10.2px;" transform="translate(154.4375,57.091796875)" y="0" x="0" id="text-entity-users-33ae1e26-be31-5c1d-bf65-e859e9d0308e-attr-2-key" class="er entityLabel"/><rect height="22" width="58.671875" y="68.091796875" x="0" class="er attributeBoxOdd"/><text style="dominant-baseline: middle; font-size: 10.2px;" transform="translate(5,79.091796875)" y="0" x="0" id="text-entity-users-33ae1e26-be31-5c1d-bf65-e859e9d0308e-attr-3-type" class="er entityLabel">varchar</text><rect height="22" width="90.765625" y="68.091796875" x="58.671875" class="er attributeBoxOdd"/><text style="dominant-baseline: middle; font-size: 10.2px;" transform="translate(63.671875,79.091796875)" y="0" x="0" id="text-entity-users-33ae1e26-be31-5c1d-bf65-e859e9d0308e-attr-3-name" class="er entityLabel">email</text><rect height="22" width="22.5" y="68.091796875" x="149.4375" class="er attributeBoxOdd"/><text style="dominant-baseline: middle; font-size: 10.2px;" transform="translate(154.4375,79.091796875)" y="0" x="0" id="text-entity-users-33ae1e26-be31-5c1d-bf65-e859e9d0308e-attr-3-key" class="er entityLabel">UK</text><rect height="22.091797828674316" width="58.671875" y="90.091796875" x="0" class="er attributeBoxEven"/><text style="dominant-baseline: middle; font-size: 10.2px;" transform="translate(5,101.13769578933716)" y="0" x="0" id="text-entity-users-33ae1e26-be31-5c1d-bf65-e859e9d0308e-attr-4-type" class="er entityLabel">timestamp</text><rect height="22.091797828674316" width="90.765625" y="90.091796875" x="58.671875" class="er attributeBoxEven"/><text style="dominant-baseline: middle; font-size: 10.2px;" transform="translate(63.671875,101.13769578933716)" y="0" x="0" id="text-entity-users-33ae1e26-be31-5c1d-bf65-e859e9d0308e-attr-4-name" class="er entityLabel">email_verified_at</text><rect height="22.091797828674316" width="22.5" y="90.091796875" x="149.4375" class="er attributeBoxEven"/><text style="dominant-baseline: middle; font-size: 10.2px;" transform="translate(154.4375,101.13769578933716)" y="0" x="0" id="text-entity-users-33ae1e26-be31-5c1d-bf65-e859e9d0308e-attr-4-key" class="er entityLabel"/><rect height="22.091796875" width="58.671875" y="112.18359470367432" x="0" class="er attributeBoxOdd"/><text style="dominant-baseline: middle; font-size: 10.2px;" transform="translate(5,123.22949314117432)" y="0" x="0" id="text-entity-users-33ae1e26-be31-5c1d-bf65-e859e9d0308e-attr-5-type" class="er entityLabel">varchar</text><rect height="22.091796875" width="90.765625" y="112.18359470367432" x="58.671875" class="er attributeBoxOdd"/><text style="dominant-baseline: middle; font-size: 10.2px;" transform="translate(63.671875,123.22949314117432)" y="0" x="0" id="text-entity-users-33ae1e26-be31-5c1d-bf65-e859e9d0308e-attr-5-name" class="er entityLabel">password</text><rect height="22.091796875" width="22.5" y="112.18359470367432" x="149.4375" class="er attributeBoxOdd"/><text style="dominant-baseline: middle; font-size: 10.2px;" transform="translate(154.4375,123.22949314117432)" y="0" x="0" id="text-entity-users-33ae1e26-be31-5c1d-bf65-e859e9d0308e-attr-5-key" class="er entityLabel"/><rect height="22" width="58.671875" y="134.27539157867432" x="0" class="er attributeBoxEven"/><text style="dominant-baseline: middle; font-size: 10.2px;" transform="translate(5,145.27539157867432)" y="0" x="0" id="text-entity-users-33ae1e26-be31-5c1d-bf65-e859e9d0308e-attr-6-type" class="er entityLabel">varchar</text><rect height="22" width="90.765625" y="134.27539157867432" x="58.671875" class="er attributeBoxEven"/><text style="dominant-baseline: middle; font-size: 10.2px;" transform="translate(63.671875,145.27539157867432)" y="0" x="0" id="text-entity-users-33ae1e26-be31-5c1d-bf65-e859e9d0308e-attr-6-name" class="er entityLabel">remember_token</text><rect height="22" width="22.5" y="134.27539157867432" x="149.4375" class="er attributeBoxEven"/><text style="dominant-baseline: middle; font-size: 10.2px;" transform="translate(154.4375,145.27539157867432)" y="0" x="0" id="text-entity-users-33ae1e26-be31-5c1d-bf65-e859e9d0308e-attr-6-key" class="er entityLabel"/><rect height="22" width="58.671875" y="156.27539157867432" x="0" class="er attributeBoxOdd"/><text style="dominant-baseline: middle; font-size: 10.2px;" transform="translate(5,167.27539157867432)" y="0" x="0" id="text-entity-users-33ae1e26-be31-5c1d-bf65-e859e9d0308e-attr-7-type" class="er entityLabel">datetime</text><rect height="22" width="90.765625" y="156.27539157867432" x="58.671875" class="er attributeBoxOdd"/><text style="dominant-baseline: middle; font-size: 10.2px;" transform="translate(63.671875,167.27539157867432)" y="0" x="0" id="text-entity-users-33ae1e26-be31-5c1d-bf65-e859e9d0308e-attr-7-name" class="er entityLabel">created_at</text><rect height="22" width="22.5" y="156.27539157867432" x="149.4375" class="er attributeBoxOdd"/><text style="dominant-baseline: middle; font-size: 10.2px;" transform="translate(154.4375,167.27539157867432)" y="0" x="0" id="text-entity-users-33ae1e26-be31-5c1d-bf65-e859e9d0308e-attr-7-key" class="er entityLabel"/><rect height="22.091796875" width="58.671875" y="178.27539157867432" x="0" class="er attributeBoxEven"/><text style="dominant-baseline: middle; font-size: 10.2px;" transform="translate(5,189.32129001617432)" y="0" x="0" id="text-entity-users-33ae1e26-be31-5c1d-bf65-e859e9d0308e-attr-8-type" class="er entityLabel">datetime</text><rect height="22.091796875" width="90.765625" y="178.27539157867432" x="58.671875" class="er attributeBoxEven"/><text style="dominant-baseline: middle; font-size: 10.2px;" transform="translate(63.671875,189.32129001617432)" y="0" x="0" id="text-entity-users-33ae1e26-be31-5c1d-bf65-e859e9d0308e-attr-8-name" class="er entityLabel">updated_at</text><rect height="22.091796875" width="22.5" y="178.27539157867432" x="149.4375" class="er attributeBoxEven"/><text style="dominant-baseline: middle; font-size: 10.2px;" transform="translate(154.4375,189.32129001617432)" y="0" x="0" id="text-entity-users-33ae1e26-be31-5c1d-bf65-e859e9d0308e-attr-8-key" class="er entityLabel"/></g><g transform="translate(161.72265625,320.3671875 )" id="entity-posts-e718dd5c-88db-5d98-b0b2-74f0389868b7"><rect height="244.73437690734863" width="142.703125" y="0" x="0" class="er entityBox"/><text style="dominant-baseline: middle; text-anchor: middle; font-size: 12px;" transform="translate(71.3515625,12)" y="0" x="0" id="text-entity-posts-e718dd5c-88db-5d98-b0b2-74f0389868b7" class="er entityLabel">posts</text><rect height="22.091796875" width="51.640625" y="24" x="0" class="er attributeBoxOdd"/><text style="dominant-baseline: middle; font-size: 10.2px;" transform="translate(5,35.0458984375)" y="0" x="0" id="text-entity-posts-e718dd5c-88db-5d98-b0b2-74f0389868b7-attr-1-type" class="er entityLabel">bigint</text><rect height="22.091796875" width="68.5625" y="24" x="51.640625" class="er attributeBoxOdd"/><text style="dominant-baseline: middle; font-size: 10.2px;" transform="translate(56.640625,35.0458984375)" y="0" x="0" id="text-entity-posts-e718dd5c-88db-5d98-b0b2-74f0389868b7-attr-1-name" class="er entityLabel">id</text><rect height="22.091796875" width="22.5" y="24" x="120.203125" class="er attributeBoxOdd"/><text style="dominant-baseline: middle; font-size: 10.2px;" transform="translate(125.203125,35.0458984375)" y="0" x="0" id="text-entity-posts-e718dd5c-88db-5d98-b0b2-74f0389868b7-attr-1-key" class="er entityLabel">PK</text><rect height="22.091796875" width="51.640625" y="46.091796875" x="0" class="er attributeBoxEven"/><text style="dominant-baseline: middle; font-size: 10.2px;" transform="translate(5,57.1376953125)" y="0" x="0" id="text-entity-posts-e718dd5c-88db-5d98-b0b2-74f0389868b7-attr-2-type" class="er entityLabel">bigint</text><rect height="22.091796875" width="68.5625" y="46.091796875" x="51.640625" class="er attributeBoxEven"/><text style="dominant-baseline: middle; font-size: 10.2px;" transform="translate(56.640625,57.1376953125)" y="0" x="0" id="text-entity-posts-e718dd5c-88db-5d98-b0b2-74f0389868b7-attr-2-name" class="er entityLabel">user_id</text><rect height="22.091796875" width="22.5" y="46.091796875" x="120.203125" class="er attributeBoxEven"/><text style="dominant-baseline: middle; font-size: 10.2px;" transform="translate(125.203125,57.1376953125)" y="0" x="0" id="text-entity-posts-e718dd5c-88db-5d98-b0b2-74f0389868b7-attr-2-key" class="er entityLabel">FK</text><rect height="22.091797828674316" width="51.640625" y="68.18359375" x="0" class="er attributeBoxOdd"/><text style="dominant-baseline: middle; font-size: 10.2px;" transform="translate(5,79.22949266433716)" y="0" x="0" id="text-entity-posts-e718dd5c-88db-5d98-b0b2-74f0389868b7-attr-3-type" class="er entityLabel">bigint</text><rect height="22.091797828674316" width="68.5625" y="68.18359375" x="51.640625" class="er attributeBoxOdd"/><text style="dominant-baseline: middle; font-size: 10.2px;" transform="translate(56.640625,79.22949266433716)" y="0" x="0" id="text-entity-posts-e718dd5c-88db-5d98-b0b2-74f0389868b7-attr-3-name" class="er entityLabel">category_id</text><rect height="22.091797828674316" width="22.5" y="68.18359375" x="120.203125" class="er attributeBoxOdd"/><text style="dominant-baseline: middle; font-size: 10.2px;" transform="translate(125.203125,79.22949266433716)" y="0" x="0" id="text-entity-posts-e718dd5c-88db-5d98-b0b2-74f0389868b7-attr-3-key" class="er entityLabel">FK</text><rect height="22" width="51.640625" y="90.27539157867432" x="0" class="er attributeBoxEven"/><text style="dominant-baseline: middle; font-size: 10.2px;" transform="translate(5,101.27539157867432)" y="0" x="0" id="text-entity-posts-e718dd5c-88db-5d98-b0b2-74f0389868b7-attr-4-type" class="er entityLabel">varchar</text><rect height="22" width="68.5625" y="90.27539157867432" x="51.640625" class="er attributeBoxEven"/><text style="dominant-baseline: middle; font-size: 10.2px;" transform="translate(56.640625,101.27539157867432)" y="0" x="0" id="text-entity-posts-e718dd5c-88db-5d98-b0b2-74f0389868b7-attr-4-name" class="er entityLabel">title</text><rect height="22" width="22.5" y="90.27539157867432" x="120.203125" class="er attributeBoxEven"/><text style="dominant-baseline: middle; font-size: 10.2px;" transform="translate(125.203125,101.27539157867432)" y="0" x="0" id="text-entity-posts-e718dd5c-88db-5d98-b0b2-74f0389868b7-attr-4-key" class="er entityLabel">UK</text><rect height="22.091796875" width="51.640625" y="112.27539157867432" x="0" class="er attributeBoxOdd"/><text style="dominant-baseline: middle; font-size: 10.2px;" transform="translate(5,123.32129001617432)" y="0" x="0" id="text-entity-posts-e718dd5c-88db-5d98-b0b2-74f0389868b7-attr-5-type" class="er entityLabel">varchar</text><rect height="22.091796875" width="68.5625" y="112.27539157867432" x="51.640625" class="er attributeBoxOdd"/><text style="dominant-baseline: middle; font-size: 10.2px;" transform="translate(56.640625,123.32129001617432)" y="0" x="0" id="text-entity-posts-e718dd5c-88db-5d98-b0b2-74f0389868b7-attr-5-name" class="er entityLabel">slug</text><rect height="22.091796875" width="22.5" y="112.27539157867432" x="120.203125" class="er attributeBoxOdd"/><text style="dominant-baseline: middle; font-size: 10.2px;" transform="translate(125.203125,123.32129001617432)" y="0" x="0" id="text-entity-posts-e718dd5c-88db-5d98-b0b2-74f0389868b7-attr-5-key" class="er entityLabel">UK</text><rect height="22.091796875" width="51.640625" y="134.36718845367432" x="0" class="er attributeBoxEven"/><text style="dominant-baseline: middle; font-size: 10.2px;" transform="translate(5,145.41308689117432)" y="0" x="0" id="text-entity-posts-e718dd5c-88db-5d98-b0b2-74f0389868b7-attr-6-type" class="er entityLabel">longtext</text><rect height="22.091796875" width="68.5625" y="134.36718845367432" x="51.640625" class="er attributeBoxEven"/><text style="dominant-baseline: middle; font-size: 10.2px;" transform="translate(56.640625,145.41308689117432)" y="0" x="0" id="text-entity-posts-e718dd5c-88db-5d98-b0b2-74f0389868b7-attr-6-name" class="er entityLabel">content</text><rect height="22.091796875" width="22.5" y="134.36718845367432" x="120.203125" class="er attributeBoxEven"/><text style="dominant-baseline: middle; font-size: 10.2px;" transform="translate(125.203125,145.41308689117432)" y="0" x="0" id="text-entity-posts-e718dd5c-88db-5d98-b0b2-74f0389868b7-attr-6-key" class="er entityLabel"/><rect height="22.091797828674316" width="51.640625" y="156.45898532867432" x="0" class="er attributeBoxOdd"/><text style="dominant-baseline: middle; font-size: 10.2px;" transform="translate(5,167.50488424301147)" y="0" x="0" id="text-entity-posts-e718dd5c-88db-5d98-b0b2-74f0389868b7-attr-7-type" class="er entityLabel">boolean</text><rect height="22.091797828674316" width="68.5625" y="156.45898532867432" x="51.640625" class="er attributeBoxOdd"/><text style="dominant-baseline: middle; font-size: 10.2px;" transform="translate(56.640625,167.50488424301147)" y="0" x="0" id="text-entity-posts-e718dd5c-88db-5d98-b0b2-74f0389868b7-attr-7-name" class="er entityLabel">is_published</text><rect height="22.091797828674316" width="22.5" y="156.45898532867432" x="120.203125" class="er attributeBoxOdd"/><text style="dominant-baseline: middle; font-size: 10.2px;" transform="translate(125.203125,167.50488424301147)" y="0" x="0" id="text-entity-posts-e718dd5c-88db-5d98-b0b2-74f0389868b7-attr-7-key" class="er entityLabel"/><rect height="22.091796875" width="51.640625" y="178.55078315734863" x="0" class="er attributeBoxEven"/><text style="dominant-baseline: middle; font-size: 10.2px;" transform="translate(5,189.59668159484863)" y="0" x="0" id="text-entity-posts-e718dd5c-88db-5d98-b0b2-74f0389868b7-attr-8-type" class="er entityLabel">datetime</text><rect height="22.091796875" width="68.5625" y="178.55078315734863" x="51.640625" class="er attributeBoxEven"/><text style="dominant-baseline: middle; font-size: 10.2px;" transform="translate(56.640625,189.59668159484863)" y="0" x="0" id="text-entity-posts-e718dd5c-88db-5d98-b0b2-74f0389868b7-attr-8-name" class="er entityLabel">published_at</text><rect height="22.091796875" width="22.5" y="178.55078315734863" x="120.203125" class="er attributeBoxEven"/><text style="dominant-baseline: middle; font-size: 10.2px;" transform="translate(125.203125,189.59668159484863)" y="0" x="0" id="text-entity-posts-e718dd5c-88db-5d98-b0b2-74f0389868b7-attr-8-key" class="er entityLabel"/><rect height="22" width="51.640625" y="200.64258003234863" x="0" class="er attributeBoxOdd"/><text style="dominant-baseline: middle; font-size: 10.2px;" transform="translate(5,211.64258003234863)" y="0" x="0" id="text-entity-posts-e718dd5c-88db-5d98-b0b2-74f0389868b7-attr-9-type" class="er entityLabel">datetime</text><rect height="22" width="68.5625" y="200.64258003234863" x="51.640625" class="er attributeBoxOdd"/><text style="dominant-baseline: middle; font-size: 10.2px;" transform="translate(56.640625,211.64258003234863)" y="0" x="0" id="text-entity-posts-e718dd5c-88db-5d98-b0b2-74f0389868b7-attr-9-name" class="er entityLabel">created_at</text><rect height="22" width="22.5" y="200.64258003234863" x="120.203125" class="er attributeBoxOdd"/><text style="dominant-baseline: middle; font-size: 10.2px;" transform="translate(125.203125,211.64258003234863)" y="0" x="0" id="text-entity-posts-e718dd5c-88db-5d98-b0b2-74f0389868b7-attr-9-key" class="er entityLabel"/><rect height="22.091796875" width="51.640625" y="222.64258003234863" x="0" class="er attributeBoxEven"/><text style="dominant-baseline: middle; font-size: 10.2px;" transform="translate(5,233.68847846984863)" y="0" x="0" id="text-entity-posts-e718dd5c-88db-5d98-b0b2-74f0389868b7-attr-10-type" class="er entityLabel">datetime</text><rect height="22.091796875" width="68.5625" y="222.64258003234863" x="51.640625" class="er attributeBoxEven"/><text style="dominant-baseline: middle; font-size: 10.2px;" transform="translate(56.640625,233.68847846984863)" y="0" x="0" id="text-entity-posts-e718dd5c-88db-5d98-b0b2-74f0389868b7-attr-10-name" class="er entityLabel">updated_at</text><rect height="22.091796875" width="22.5" y="222.64258003234863" x="120.203125" class="er attributeBoxEven"/><text style="dominant-baseline: middle; font-size: 10.2px;" transform="translate(125.203125,233.68847846984863)" y="0" x="0" id="text-entity-posts-e718dd5c-88db-5d98-b0b2-74f0389868b7-attr-10-key" class="er entityLabel"/></g><g transform="translate(285.09765625,665.1015625 )" id="entity-posttag-3b2c7b52-6a10-5a71-b71d-7360cf23c5ab"><rect height="134.36718940734863" width="135.546875" y="0" x="0" class="er entityBox"/><text style="dominant-baseline: middle; text-anchor: middle; font-size: 12px;" transform="translate(67.7734375,12)" y="0" x="0" id="text-entity-posttag-3b2c7b52-6a10-5a71-b71d-7360cf23c5ab" class="er entityLabel">post_tag</text><rect height="22.091796875" width="51.640625" y="24" x="0" class="er attributeBoxOdd"/><text style="dominant-baseline: middle; font-size: 10.2px;" transform="translate(5,35.0458984375)" y="0" x="0" id="text-entity-posttag-3b2c7b52-6a10-5a71-b71d-7360cf23c5ab-attr-1-type" class="er entityLabel">bigint</text><rect height="22.091796875" width="62.34375" y="24" x="51.640625" class="er attributeBoxOdd"/><text style="dominant-baseline: middle; font-size: 10.2px;" transform="translate(56.640625,35.0458984375)" y="0" x="0" id="text-entity-posttag-3b2c7b52-6a10-5a71-b71d-7360cf23c5ab-attr-1-name" class="er entityLabel">id</text><rect height="22.091796875" width="21.5625" y="24" x="113.984375" class="er attributeBoxOdd"/><text style="dominant-baseline: middle; font-size: 10.2px;" transform="translate(118.984375,35.0458984375)" y="0" x="0" id="text-entity-posttag-3b2c7b52-6a10-5a71-b71d-7360cf23c5ab-attr-1-key" class="er entityLabel">PK</text><rect height="22.091797828674316" width="51.640625" y="46.091796875" x="0" class="er attributeBoxEven"/><text style="dominant-baseline: middle; font-size: 10.2px;" transform="translate(5,57.13769578933716)" y="0" x="0" id="text-entity-posttag-3b2c7b52-6a10-5a71-b71d-7360cf23c5ab-attr-2-type" class="er entityLabel">bigint</text><rect height="22.091797828674316" width="62.34375" y="46.091796875" x="51.640625" class="er attributeBoxEven"/><text style="dominant-baseline: middle; font-size: 10.2px;" transform="translate(56.640625,57.13769578933716)" y="0" x="0" id="text-entity-posttag-3b2c7b52-6a10-5a71-b71d-7360cf23c5ab-attr-2-name" class="er entityLabel">post_id</text><rect height="22.091797828674316" width="21.5625" y="46.091796875" x="113.984375" class="er attributeBoxEven"/><text style="dominant-baseline: middle; font-size: 10.2px;" transform="translate(118.984375,57.13769578933716)" y="0" x="0" id="text-entity-posttag-3b2c7b52-6a10-5a71-b71d-7360cf23c5ab-attr-2-key" class="er entityLabel">FK</text><rect height="22.091797828674316" width="51.640625" y="68.18359470367432" x="0" class="er attributeBoxOdd"/><text style="dominant-baseline: middle; font-size: 10.2px;" transform="translate(5,79.22949361801147)" y="0" x="0" id="text-entity-posttag-3b2c7b52-6a10-5a71-b71d-7360cf23c5ab-attr-3-type" class="er entityLabel">bigint</text><rect height="22.091797828674316" width="62.34375" y="68.18359470367432" x="51.640625" class="er attributeBoxOdd"/><text style="dominant-baseline: middle; font-size: 10.2px;" transform="translate(56.640625,79.22949361801147)" y="0" x="0" id="text-entity-posttag-3b2c7b52-6a10-5a71-b71d-7360cf23c5ab-attr-3-name" class="er entityLabel">tag_id</text><rect height="22.091797828674316" width="21.5625" y="68.18359470367432" x="113.984375" class="er attributeBoxOdd"/><text style="dominant-baseline: middle; font-size: 10.2px;" transform="translate(118.984375,79.22949361801147)" y="0" x="0" id="text-entity-posttag-3b2c7b52-6a10-5a71-b71d-7360cf23c5ab-attr-3-key" class="er entityLabel">FK</text><rect height="22" width="51.640625" y="90.27539253234863" x="0" class="er attributeBoxEven"/><text style="dominant-baseline: middle; font-size: 10.2px;" transform="translate(5,101.27539253234863)" y="0" x="0" id="text-entity-posttag-3b2c7b52-6a10-5a71-b71d-7360cf23c5ab-attr-4-type" class="er entityLabel">datetime</text><rect height="22" width="62.34375" y="90.27539253234863" x="51.640625" class="er attributeBoxEven"/><text style="dominant-baseline: middle; font-size: 10.2px;" transform="translate(56.640625,101.27539253234863)" y="0" x="0" id="text-entity-posttag-3b2c7b52-6a10-5a71-b71d-7360cf23c5ab-attr-4-name" class="er entityLabel">created_at</text><rect height="22" width="21.5625" y="90.27539253234863" x="113.984375" class="er attributeBoxEven"/><text style="dominant-baseline: middle; font-size: 10.2px;" transform="translate(118.984375,101.27539253234863)" y="0" x="0" id="text-entity-posttag-3b2c7b52-6a10-5a71-b71d-7360cf23c5ab-attr-4-key" class="er entityLabel"/><rect height="22.091796875" width="51.640625" y="112.27539253234863" x="0" class="er attributeBoxOdd"/><text style="dominant-baseline: middle; font-size: 10.2px;" transform="translate(5,123.32129096984863)" y="0" x="0" id="text-entity-posttag-3b2c7b52-6a10-5a71-b71d-7360cf23c5ab-attr-5-type" class="er entityLabel">datetime</text><rect height="22.091796875" width="62.34375" y="112.27539253234863" x="51.640625" class="er attributeBoxOdd"/><text style="dominant-baseline: middle; font-size: 10.2px;" transform="translate(56.640625,123.32129096984863)" y="0" x="0" id="text-entity-posttag-3b2c7b52-6a10-5a71-b71d-7360cf23c5ab-attr-5-name" class="er entityLabel">updated_at</text><rect height="22.091796875" width="21.5625" y="112.27539253234863" x="113.984375" class="er attributeBoxOdd"/><text style="dominant-baseline: middle; font-size: 10.2px;" transform="translate(118.984375,123.32129096984863)" y="0" x="0" id="text-entity-posttag-3b2c7b52-6a10-5a71-b71d-7360cf23c5ab-attr-5-key" class="er entityLabel"/></g><g transform="translate(291.9375,42.0458984375 )" id="entity-categories-a09d50f2-ac74-5856-9390-f2cc9b07f93b"><rect height="156.275390625" width="136.484375" y="0" x="0" class="er entityBox"/><text style="dominant-baseline: middle; text-anchor: middle; font-size: 12px;" transform="translate(68.2421875,12)" y="0" x="0" id="text-entity-categories-a09d50f2-ac74-5856-9390-f2cc9b07f93b" class="er entityLabel">categories</text><rect height="22.091796875" width="51.640625" y="24" x="0" class="er attributeBoxOdd"/><text style="dominant-baseline: middle; font-size: 10.2px;" transform="translate(5,35.0458984375)" y="0" x="0" id="text-entity-categories-a09d50f2-ac74-5856-9390-f2cc9b07f93b-attr-1-type" class="er entityLabel">bigint</text><rect height="22.091796875" width="62.34375" y="24" x="51.640625" class="er attributeBoxOdd"/><text style="dominant-baseline: middle; font-size: 10.2px;" transform="translate(56.640625,35.0458984375)" y="0" x="0" id="text-entity-categories-a09d50f2-ac74-5856-9390-f2cc9b07f93b-attr-1-name" class="er entityLabel">id</text><rect height="22.091796875" width="22.5" y="24" x="113.984375" class="er attributeBoxOdd"/><text style="dominant-baseline: middle; font-size: 10.2px;" transform="translate(118.984375,35.0458984375)" y="0" x="0" id="text-entity-categories-a09d50f2-ac74-5856-9390-f2cc9b07f93b-attr-1-key" class="er entityLabel">PK</text><rect height="22" width="51.640625" y="46.091796875" x="0" class="er attributeBoxEven"/><text style="dominant-baseline: middle; font-size: 10.2px;" transform="translate(5,57.091796875)" y="0" x="0" id="text-entity-categories-a09d50f2-ac74-5856-9390-f2cc9b07f93b-attr-2-type" class="er entityLabel">varchar</text><rect height="22" width="62.34375" y="46.091796875" x="51.640625" class="er attributeBoxEven"/><text style="dominant-baseline: middle; font-size: 10.2px;" transform="translate(56.640625,57.091796875)" y="0" x="0" id="text-entity-categories-a09d50f2-ac74-5856-9390-f2cc9b07f93b-attr-2-name" class="er entityLabel">name</text><rect height="22" width="22.5" y="46.091796875" x="113.984375" class="er attributeBoxEven"/><text style="dominant-baseline: middle; font-size: 10.2px;" transform="translate(118.984375,57.091796875)" y="0" x="0" id="text-entity-categories-a09d50f2-ac74-5856-9390-f2cc9b07f93b-attr-2-key" class="er entityLabel">UK</text><rect height="22.091796875" width="51.640625" y="68.091796875" x="0" class="er attributeBoxOdd"/><text style="dominant-baseline: middle; font-size: 10.2px;" transform="translate(5,79.1376953125)" y="0" x="0" id="text-entity-categories-a09d50f2-ac74-5856-9390-f2cc9b07f93b-attr-3-type" class="er entityLabel">varchar</text><rect height="22.091796875" width="62.34375" y="68.091796875" x="51.640625" class="er attributeBoxOdd"/><text style="dominant-baseline: middle; font-size: 10.2px;" transform="translate(56.640625,79.1376953125)" y="0" x="0" id="text-entity-categories-a09d50f2-ac74-5856-9390-f2cc9b07f93b-attr-3-name" class="er entityLabel">slug</text><rect height="22.091796875" width="22.5" y="68.091796875" x="113.984375" class="er attributeBoxOdd"/><text style="dominant-baseline: middle; font-size: 10.2px;" transform="translate(118.984375,79.1376953125)" y="0" x="0" id="text-entity-categories-a09d50f2-ac74-5856-9390-f2cc9b07f93b-attr-3-key" class="er entityLabel">UK</text><rect height="22" width="51.640625" y="90.18359375" x="0" class="er attributeBoxEven"/><text style="dominant-baseline: middle; font-size: 10.2px;" transform="translate(5,101.18359375)" y="0" x="0" id="text-entity-categories-a09d50f2-ac74-5856-9390-f2cc9b07f93b-attr-4-type" class="er entityLabel">int</text><rect height="22" width="62.34375" y="90.18359375" x="51.640625" class="er attributeBoxEven"/><text style="dominant-baseline: middle; font-size: 10.2px;" transform="translate(56.640625,101.18359375)" y="0" x="0" id="text-entity-categories-a09d50f2-ac74-5856-9390-f2cc9b07f93b-attr-4-name" class="er entityLabel">sort_order</text><rect height="22" width="22.5" y="90.18359375" x="113.984375" class="er attributeBoxEven"/><text style="dominant-baseline: middle; font-size: 10.2px;" transform="translate(118.984375,101.18359375)" y="0" x="0" id="text-entity-categories-a09d50f2-ac74-5856-9390-f2cc9b07f93b-attr-4-key" class="er entityLabel"/><rect height="22" width="51.640625" y="112.18359375" x="0" class="er attributeBoxOdd"/><text style="dominant-baseline: middle; font-size: 10.2px;" transform="translate(5,123.18359375)" y="0" x="0" id="text-entity-categories-a09d50f2-ac74-5856-9390-f2cc9b07f93b-attr-5-type" class="er entityLabel">datetime</text><rect height="22" width="62.34375" y="112.18359375" x="51.640625" class="er attributeBoxOdd"/><text style="dominant-baseline: middle; font-size: 10.2px;" transform="translate(56.640625,123.18359375)" y="0" x="0" id="text-entity-categories-a09d50f2-ac74-5856-9390-f2cc9b07f93b-attr-5-name" class="er entityLabel">created_at</text><rect height="22" width="22.5" y="112.18359375" x="113.984375" class="er attributeBoxOdd"/><text style="dominant-baseline: middle; font-size: 10.2px;" transform="translate(118.984375,123.18359375)" y="0" x="0" id="text-entity-categories-a09d50f2-ac74-5856-9390-f2cc9b07f93b-attr-5-key" class="er entityLabel"/><rect height="22.091796875" width="51.640625" y="134.18359375" x="0" class="er attributeBoxEven"/><text style="dominant-baseline: middle; font-size: 10.2px;" transform="translate(5,145.2294921875)" y="0" x="0" id="text-entity-categories-a09d50f2-ac74-5856-9390-f2cc9b07f93b-attr-6-type" class="er entityLabel">datetime</text><rect height="22.091796875" width="62.34375" y="134.18359375" x="51.640625" class="er attributeBoxEven"/><text style="dominant-baseline: middle; font-size: 10.2px;" transform="translate(56.640625,145.2294921875)" y="0" x="0" id="text-entity-categories-a09d50f2-ac74-5856-9390-f2cc9b07f93b-attr-6-name" class="er entityLabel">updated_at</text><rect height="22.091796875" width="22.5" y="134.18359375" x="113.984375" class="er attributeBoxEven"/><text style="dominant-baseline: middle; font-size: 10.2px;" transform="translate(118.984375,145.2294921875)" y="0" x="0" id="text-entity-categories-a09d50f2-ac74-5856-9390-f2cc9b07f93b-attr-6-key" class="er entityLabel"/></g><g transform="translate(404.42578125,364.5966796875 )" id="entity-tags-6d8c4510-222a-5f9e-b73d-d896901739b8"><rect height="156.275390625" width="136.484375" y="0" x="0" class="er entityBox"/><text style="dominant-baseline: middle; text-anchor: middle; font-size: 12px;" transform="translate(68.2421875,12)" y="0" x="0" id="text-entity-tags-6d8c4510-222a-5f9e-b73d-d896901739b8" class="er entityLabel">tags</text><rect height="22.091796875" width="51.640625" y="24" x="0" class="er attributeBoxOdd"/><text style="dominant-baseline: middle; font-size: 10.2px;" transform="translate(5,35.0458984375)" y="0" x="0" id="text-entity-tags-6d8c4510-222a-5f9e-b73d-d896901739b8-attr-1-type" class="er entityLabel">bigint</text><rect height="22.091796875" width="62.34375" y="24" x="51.640625" class="er attributeBoxOdd"/><text style="dominant-baseline: middle; font-size: 10.2px;" transform="translate(56.640625,35.0458984375)" y="0" x="0" id="text-entity-tags-6d8c4510-222a-5f9e-b73d-d896901739b8-attr-1-name" class="er entityLabel">id</text><rect height="22.091796875" width="22.5" y="24" x="113.984375" class="er attributeBoxOdd"/><text style="dominant-baseline: middle; font-size: 10.2px;" transform="translate(118.984375,35.0458984375)" y="0" x="0" id="text-entity-tags-6d8c4510-222a-5f9e-b73d-d896901739b8-attr-1-key" class="er entityLabel">PK</text><rect height="22" width="51.640625" y="46.091796875" x="0" class="er attributeBoxEven"/><text style="dominant-baseline: middle; font-size: 10.2px;" transform="translate(5,57.091796875)" y="0" x="0" id="text-entity-tags-6d8c4510-222a-5f9e-b73d-d896901739b8-attr-2-type" class="er entityLabel">varchar</text><rect height="22" width="62.34375" y="46.091796875" x="51.640625" class="er attributeBoxEven"/><text style="dominant-baseline: middle; font-size: 10.2px;" transform="translate(56.640625,57.091796875)" y="0" x="0" id="text-entity-tags-6d8c4510-222a-5f9e-b73d-d896901739b8-attr-2-name" class="er entityLabel">name</text><rect height="22" width="22.5" y="46.091796875" x="113.984375" class="er attributeBoxEven"/><text style="dominant-baseline: middle; font-size: 10.2px;" transform="translate(118.984375,57.091796875)" y="0" x="0" id="text-entity-tags-6d8c4510-222a-5f9e-b73d-d896901739b8-attr-2-key" class="er entityLabel">UK</text><rect height="22.091796875" width="51.640625" y="68.091796875" x="0" class="er attributeBoxOdd"/><text style="dominant-baseline: middle; font-size: 10.2px;" transform="translate(5,79.1376953125)" y="0" x="0" id="text-entity-tags-6d8c4510-222a-5f9e-b73d-d896901739b8-attr-3-type" class="er entityLabel">varchar</text><rect height="22.091796875" width="62.34375" y="68.091796875" x="51.640625" class="er attributeBoxOdd"/><text style="dominant-baseline: middle; font-size: 10.2px;" transform="translate(56.640625,79.1376953125)" y="0" x="0" id="text-entity-tags-6d8c4510-222a-5f9e-b73d-d896901739b8-attr-3-name" class="er entityLabel">slug</text><rect height="22.091796875" width="22.5" y="68.091796875" x="113.984375" class="er attributeBoxOdd"/><text style="dominant-baseline: middle; font-size: 10.2px;" transform="translate(118.984375,79.1376953125)" y="0" x="0" id="text-entity-tags-6d8c4510-222a-5f9e-b73d-d896901739b8-attr-3-key" class="er entityLabel">UK</text><rect height="22" width="51.640625" y="90.18359375" x="0" class="er attributeBoxEven"/><text style="dominant-baseline: middle; font-size: 10.2px;" transform="translate(5,101.18359375)" y="0" x="0" id="text-entity-tags-6d8c4510-222a-5f9e-b73d-d896901739b8-attr-4-type" class="er entityLabel">int</text><rect height="22" width="62.34375" y="90.18359375" x="51.640625" class="er attributeBoxEven"/><text style="dominant-baseline: middle; font-size: 10.2px;" transform="translate(56.640625,101.18359375)" y="0" x="0" id="text-entity-tags-6d8c4510-222a-5f9e-b73d-d896901739b8-attr-4-name" class="er entityLabel">sort_order</text><rect height="22" width="22.5" y="90.18359375" x="113.984375" class="er attributeBoxEven"/><text style="dominant-baseline: middle; font-size: 10.2px;" transform="translate(118.984375,101.18359375)" y="0" x="0" id="text-entity-tags-6d8c4510-222a-5f9e-b73d-d896901739b8-attr-4-key" class="er entityLabel"/><rect height="22" width="51.640625" y="112.18359375" x="0" class="er attributeBoxOdd"/><text style="dominant-baseline: middle; font-size: 10.2px;" transform="translate(5,123.18359375)" y="0" x="0" id="text-entity-tags-6d8c4510-222a-5f9e-b73d-d896901739b8-attr-5-type" class="er entityLabel">datetime</text><rect height="22" width="62.34375" y="112.18359375" x="51.640625" class="er attributeBoxOdd"/><text style="dominant-baseline: middle; font-size: 10.2px;" transform="translate(56.640625,123.18359375)" y="0" x="0" id="text-entity-tags-6d8c4510-222a-5f9e-b73d-d896901739b8-attr-5-name" class="er entityLabel">created_at</text><rect height="22" width="22.5" y="112.18359375" x="113.984375" class="er attributeBoxOdd"/><text style="dominant-baseline: middle; font-size: 10.2px;" transform="translate(118.984375,123.18359375)" y="0" x="0" id="text-entity-tags-6d8c4510-222a-5f9e-b73d-d896901739b8-attr-5-key" class="er entityLabel"/><rect height="22.091796875" width="51.640625" y="134.18359375" x="0" class="er attributeBoxEven"/><text style="dominant-baseline: middle; font-size: 10.2px;" transform="translate(5,145.2294921875)" y="0" x="0" id="text-entity-tags-6d8c4510-222a-5f9e-b73d-d896901739b8-attr-6-type" class="er entityLabel">datetime</text><rect height="22.091796875" width="62.34375" y="134.18359375" x="51.640625" class="er attributeBoxEven"/><text style="dominant-baseline: middle; font-size: 10.2px;" transform="translate(56.640625,145.2294921875)" y="0" x="0" id="text-entity-tags-6d8c4510-222a-5f9e-b73d-d896901739b8-attr-6-name" class="er entityLabel">updated_at</text><rect height="22.091796875" width="22.5" y="134.18359375" x="113.984375" class="er attributeBoxEven"/><text style="dominant-baseline: middle; font-size: 10.2px;" transform="translate(118.984375,145.2294921875)" y="0" x="0" id="text-entity-tags-6d8c4510-222a-5f9e-b73d-d896901739b8-attr-6-key" class="er entityLabel"/></g><rect height="0" width="0" y="287.8816833496094" x="121.9754638671875" class="er relationshipLabelBox"/><text style="text-anchor: middle; dominant-baseline: middle; font-size: 12px;" y="287.8816833496094" x="121.9754638671875" id="rel1" class="er relationshipLabel"/><rect height="0" width="0" y="621.9702758789062" x="245.6390380859375" class="er relationshipLabelBox"/><text style="text-anchor: middle; dominant-baseline: middle; font-size: 12px;" y="621.9702758789062" x="245.6390380859375" id="rel2" class="er relationshipLabel"/><rect height="0" width="0" y="277.8137512207031" x="348.07611083984375" class="er relationshipLabelBox"/><text style="text-anchor: middle; dominant-baseline: middle; font-size: 12px;" y="277.8137512207031" x="348.07611083984375" id="rel3" class="er relationshipLabel"/><rect height="0" width="0" y="600.9013061523438" x="466.2149963378906" class="er relationshipLabelBox"/><text style="text-anchor: middle; dominant-baseline: middle; font-size: 12px;" y="600.9013061523438" x="466.2149963378906" id="rel4" class="er relationshipLabel"/></svg>