<svg aria-roledescription="er" role="graphics-document document" viewBox="0 0 1194.640625 620.3671875" style="max-width: 1194.64px; background-color: white;" xmlns:xlink="http://www.w3.org/1999/xlink" xmlns="http://www.w3.org/2000/svg" width="100%" id="my-svg"><style>#my-svg{font-family:"trebuchet ms",verdana,arial,sans-serif;font-size:16px;fill:#333;}#my-svg .error-icon{fill:#552222;}#my-svg .error-text{fill:#552222;stroke:#552222;}#my-svg .edge-thickness-normal{stroke-width:1px;}#my-svg .edge-thickness-thick{stroke-width:3.5px;}#my-svg .edge-pattern-solid{stroke-dasharray:0;}#my-svg .edge-thickness-invisible{stroke-width:0;fill:none;}#my-svg .edge-pattern-dashed{stroke-dasharray:3;}#my-svg .edge-pattern-dotted{stroke-dasharray:2;}#my-svg .marker{fill:#333333;stroke:#333333;}#my-svg .marker.cross{stroke:#333333;}#my-svg svg{font-family:"trebuchet ms",verdana,arial,sans-serif;font-size:16px;}#my-svg p{margin:0;}#my-svg .entityBox{fill:#ECECFF;stroke:#9370DB;}#my-svg .attributeBoxOdd{fill:#ffffff;stroke:#9370DB;}#my-svg .attributeBoxEven{fill:#f2f2f2;stroke:#9370DB;}#my-svg .relationshipLabelBox{fill:hsl(80, 100%, 96.2745098039%);opacity:0.7;background-color:hsl(80, 100%, 96.2745098039%);}#my-svg .relationshipLabelBox rect{opacity:0.5;}#my-svg .relationshipLine{stroke:#333333;}#my-svg .entityTitleText{text-anchor:middle;font-size:18px;fill:#333;}#my-svg #MD_PARENT_START{fill:#f5f5f5!important;stroke:#333333!important;stroke-width:1;}#my-svg #MD_PARENT_END{fill:#f5f5f5!important;stroke:#333333!important;stroke-width:1;}#my-svg :root{--mermaid-font-family:"trebuchet ms",verdana,arial,sans-serif;}</style><g/><defs><marker orient="auto" markerHeight="240" markerWidth="190" refY="7" refX="0" id="MD_PARENT_START"><path d="M 18,7 L9,13 L1,7 L9,1 Z"/></marker></defs><defs><marker orient="auto" markerHeight="28" markerWidth="20" refY="7" refX="19" id="MD_PARENT_END"><path d="M 18,7 L9,13 L1,7 L9,1 Z"/></marker></defs><defs><marker orient="auto" markerHeight="18" markerWidth="18" refY="9" refX="0" id="ONLY_ONE_START"><path d="M9,0 L9,18 M15,0 L15,18" fill="none" stroke="gray"/></marker></defs><defs><marker orient="auto" markerHeight="18" markerWidth="18" refY="9" refX="18" id="ONLY_ONE_END"><path d="M3,0 L3,18 M9,0 L9,18" fill="none" stroke="gray"/></marker></defs><defs><marker orient="auto" markerHeight="18" markerWidth="30" refY="9" refX="0" id="ZERO_OR_ONE_START"><circle r="6" cy="9" cx="21" fill="white" stroke="gray"/><path d="M9,0 L9,18" fill="none" stroke="gray"/></marker></defs><defs><marker orient="auto" markerHeight="18" markerWidth="30" refY="9" refX="30" id="ZERO_OR_ONE_END"><circle r="6" cy="9" cx="9" fill="white" stroke="gray"/><path d="M21,0 L21,18" fill="none" stroke="gray"/></marker></defs><defs><marker orient="auto" markerHeight="36" markerWidth="45" refY="18" refX="18" id="ONE_OR_MORE_START"><path d="M0,18 Q 18,0 36,18 Q 18,36 0,18 M42,9 L42,27" fill="none" stroke="gray"/></marker></defs><defs><marker orient="auto" markerHeight="36" markerWidth="45" refY="18" refX="27" id="ONE_OR_MORE_END"><path d="M3,9 L3,27 M9,18 Q27,0 45,18 Q27,36 9,18" fill="none" stroke="gray"/></marker></defs><defs><marker orient="auto" markerHeight="36" markerWidth="57" refY="18" refX="18" id="ZERO_OR_MORE_START"><circle r="6" cy="18" cx="48" fill="white" stroke="gray"/><path d="M0,18 Q18,0 36,18 Q18,36 0,18" fill="none" stroke="gray"/></marker></defs><defs><marker orient="auto" markerHeight="36" markerWidth="57" refY="18" refX="39" id="ZERO_OR_MORE_END"><circle r="6" cy="18" cx="9" fill="white" stroke="gray"/><path d="M21,18 Q39,0 57,18 Q39,36 21,18" fill="none" stroke="gray"/></marker></defs><path style="stroke: gray; fill: none;" marker-start="url(#ZERO_OR_MORE_START)" marker-end="url(#ONLY_ONE_END)" d="M500.781,399.375L487.271,409.51C473.76,419.645,446.74,439.914,421.356,458.39C395.973,476.866,372.227,493.548,360.353,501.889L348.48,510.229" class="er relationshipLine"/><path style="stroke: gray; fill: none;" marker-start="url(#ZERO_OR_MORE_START)" marker-end="url(#ONLY_ONE_END)" d="M709.375,394.137L725.102,405.145C740.829,416.153,772.284,438.168,781.557,457.524C790.83,476.881,777.921,493.578,771.467,501.927L765.012,510.275" class="er relationshipLine"/><path style="stroke: gray; fill: none;" marker-start="url(#ZERO_OR_MORE_START)" marker-end="url(#ONLY_ONE_END)" d="M1102.398,377.184L1102.398,391.017C1102.398,404.85,1102.398,432.517,1102.398,454.684C1102.398,476.85,1102.398,493.517,1102.398,501.85L1102.398,510.184" class="er relationshipLine"/><path style="stroke: gray; fill: none;" marker-start="url(#ZERO_OR_MORE_START)" marker-end="url(#ONLY_ONE_END)" d="M869.852,121.046L869.852,131.22C869.852,141.395,869.852,161.743,869.852,187.584C869.852,213.425,869.852,244.758,869.852,260.425L869.852,276.092" class="er relationshipLine"/><path style="stroke: gray; fill: none;" marker-start="url(#ZERO_OR_MORE_START)" marker-end="url(#ONLY_ONE_END)" d="M943.195,109.492L969.729,121.592C996.263,133.692,1049.331,157.892,1075.865,183.825C1102.398,209.758,1102.398,237.425,1102.398,251.258L1102.398,265.092" class="er relationshipLine"/><path style="stroke: gray; fill: none;" marker-start="url(#ZERO_OR_MORE_START)" marker-end="url(#ONLY_ONE_END)" d="M796.508,118.69L778.334,129.257C760.16,139.824,723.813,160.958,700.701,179.858C677.59,198.758,667.714,215.425,662.777,223.758L657.839,232.092" class="er relationshipLine"/><path style="stroke: gray; fill: none;" marker-start="url(#ZERO_OR_MORE_START)" marker-end="url(#ONLY_ONE_END)" d="M240.258,116.002L266.802,127.017C293.346,138.032,346.435,160.062,389.855,182.493C433.276,204.923,467.029,227.755,483.905,239.171L500.781,250.587" class="er relationshipLine"/><path style="stroke: gray; fill: none;" marker-start="url(#ZERO_OR_MORE_START)" marker-end="url(#ONLY_ONE_END)" d="M117.543,132.092L113.614,140.425C109.685,148.758,101.827,165.425,97.898,189.417C93.969,213.41,93.969,244.728,93.969,260.387L93.969,276.046" class="er relationshipLine"/><path style="stroke: gray; fill: none;" marker-start="url(#ZERO_OR_MORE_START)" marker-end="url(#ONLY_ONE_END)" d="M400.781,356.591L433.128,373.856C465.475,391.122,530.169,425.653,574.4,451.267C618.631,476.881,642.399,493.578,654.283,501.927L666.167,510.275" class="er relationshipLine"/><path style="stroke: gray; fill: none;" marker-start="url(#ZERO_OR_MORE_START)" marker-end="url(#ONLY_ONE_END)" d="M301.996,366.138L290.723,381.812C279.45,397.486,256.905,428.835,250.018,452.85C243.131,476.866,251.902,493.548,256.288,501.889L260.674,510.229" class="er relationshipLine"/><g transform="translate(20,276.0458984375 )" id="entity-Partecipante-3c3cb3a2-14d9-5218-9a61-4d2441956818"><rect height="90.18359470367432" width="147.9375" y="0" x="0" class="er entityBox"/><text style="dominant-baseline: middle; text-anchor: middle; font-size: 12px;" transform="translate(73.96875,12)" y="0" x="0" id="text-entity-Partecipante-3c3cb3a2-14d9-5218-9a61-4d2441956818" class="er entityLabel">Partecipante</text><rect height="22.091797828674316" width="49.046875" y="24" x="0" class="er attributeBoxOdd"/><text style="dominant-baseline: middle; font-size: 10.2px;" transform="translate(5,35.04589891433716)" y="0" x="0" id="text-entity-Partecipante-3c3cb3a2-14d9-5218-9a61-4d2441956818-attr-1-type" class="er entityLabel">INTEGER</text><rect height="22.091797828674316" width="77.328125" y="24" x="49.046875" class="er attributeBoxOdd"/><text style="dominant-baseline: middle; font-size: 10.2px;" transform="translate(54.046875,35.04589891433716)" y="0" x="0" id="text-entity-Partecipante-3c3cb3a2-14d9-5218-9a61-4d2441956818-attr-1-name" class="er entityLabel">partecipanteId</text><rect height="22.091797828674316" width="21.5625" y="24" x="126.375" class="er attributeBoxOdd"/><text style="dominant-baseline: middle; font-size: 10.2px;" transform="translate(131.375,35.04589891433716)" y="0" x="0" id="text-entity-Partecipante-3c3cb3a2-14d9-5218-9a61-4d2441956818-attr-1-key" class="er entityLabel">PK</text><rect height="22" width="49.046875" y="46.091797828674316" x="0" class="er attributeBoxEven"/><text style="dominant-baseline: middle; font-size: 10.2px;" transform="translate(5,57.091797828674316)" y="0" x="0" id="text-entity-Partecipante-3c3cb3a2-14d9-5218-9a61-4d2441956818-attr-2-type" class="er entityLabel">TEXT</text><rect height="22" width="77.328125" y="46.091797828674316" x="49.046875" class="er attributeBoxEven"/><text style="dominant-baseline: middle; font-size: 10.2px;" transform="translate(54.046875,57.091797828674316)" y="0" x="0" id="text-entity-Partecipante-3c3cb3a2-14d9-5218-9a61-4d2441956818-attr-2-name" class="er entityLabel">nome</text><rect height="22" width="21.5625" y="46.091797828674316" x="126.375" class="er attributeBoxEven"/><text style="dominant-baseline: middle; font-size: 10.2px;" transform="translate(131.375,57.091797828674316)" y="0" x="0" id="text-entity-Partecipante-3c3cb3a2-14d9-5218-9a61-4d2441956818-attr-2-key" class="er entityLabel"/><rect height="22.091796875" width="49.046875" y="68.09179782867432" x="0" class="er attributeBoxOdd"/><text style="dominant-baseline: middle; font-size: 10.2px;" transform="translate(5,79.13769626617432)" y="0" x="0" id="text-entity-Partecipante-3c3cb3a2-14d9-5218-9a61-4d2441956818-attr-3-type" class="er entityLabel">TEXT</text><rect height="22.091796875" width="77.328125" y="68.09179782867432" x="49.046875" class="er attributeBoxOdd"/><text style="dominant-baseline: middle; font-size: 10.2px;" transform="translate(54.046875,79.13769626617432)" y="0" x="0" id="text-entity-Partecipante-3c3cb3a2-14d9-5218-9a61-4d2441956818-attr-3-name" class="er entityLabel">cognome</text><rect height="22.091796875" width="21.5625" y="68.09179782867432" x="126.375" class="er attributeBoxOdd"/><text style="dominant-baseline: middle; font-size: 10.2px;" transform="translate(131.375,79.13769626617432)" y="0" x="0" id="text-entity-Partecipante-3c3cb3a2-14d9-5218-9a61-4d2441956818-attr-3-key" class="er entityLabel"/></g><g transform="translate(217.9375,510.2294921875 )" id="entity-Istruttore-7a2891fd-f8c3-5463-be31-d3fdb6084d3f"><rect height="90.091796875" width="132.84375" y="0" x="0" class="er entityBox"/><text style="dominant-baseline: middle; text-anchor: middle; font-size: 12px;" transform="translate(66.421875,12)" y="0" x="0" id="text-entity-Istruttore-7a2891fd-f8c3-5463-be31-d3fdb6084d3f" class="er entityLabel">Istruttore</text><rect height="22" width="49.046875" y="24" x="0" class="er attributeBoxOdd"/><text style="dominant-baseline: middle; font-size: 10.2px;" transform="translate(5,35)" y="0" x="0" id="text-entity-Istruttore-7a2891fd-f8c3-5463-be31-d3fdb6084d3f-attr-1-type" class="er entityLabel">INTEGER</text><rect height="22" width="62.234375" y="24" x="49.046875" class="er attributeBoxOdd"/><text style="dominant-baseline: middle; font-size: 10.2px;" transform="translate(54.046875,35)" y="0" x="0" id="text-entity-Istruttore-7a2891fd-f8c3-5463-be31-d3fdb6084d3f-attr-1-name" class="er entityLabel">istruttoreId</text><rect height="22" width="21.5625" y="24" x="111.28125" class="er attributeBoxOdd"/><text style="dominant-baseline: middle; font-size: 10.2px;" transform="translate(116.28125,35)" y="0" x="0" id="text-entity-Istruttore-7a2891fd-f8c3-5463-be31-d3fdb6084d3f-attr-1-key" class="er entityLabel">PK</text><rect height="22" width="49.046875" y="46" x="0" class="er attributeBoxEven"/><text style="dominant-baseline: middle; font-size: 10.2px;" transform="translate(5,57)" y="0" x="0" id="text-entity-Istruttore-7a2891fd-f8c3-5463-be31-d3fdb6084d3f-attr-2-type" class="er entityLabel">TEXT</text><rect height="22" width="62.234375" y="46" x="49.046875" class="er attributeBoxEven"/><text style="dominant-baseline: middle; font-size: 10.2px;" transform="translate(54.046875,57)" y="0" x="0" id="text-entity-Istruttore-7a2891fd-f8c3-5463-be31-d3fdb6084d3f-attr-2-name" class="er entityLabel">nome</text><rect height="22" width="21.5625" y="46" x="111.28125" class="er attributeBoxEven"/><text style="dominant-baseline: middle; font-size: 10.2px;" transform="translate(116.28125,57)" y="0" x="0" id="text-entity-Istruttore-7a2891fd-f8c3-5463-be31-d3fdb6084d3f-attr-2-key" class="er entityLabel"/><rect height="22.091796875" width="49.046875" y="68" x="0" class="er attributeBoxOdd"/><text style="dominant-baseline: middle; font-size: 10.2px;" transform="translate(5,79.0458984375)" y="0" x="0" id="text-entity-Istruttore-7a2891fd-f8c3-5463-be31-d3fdb6084d3f-attr-3-type" class="er entityLabel">TEXT</text><rect height="22.091796875" width="62.234375" y="68" x="49.046875" class="er attributeBoxOdd"/><text style="dominant-baseline: middle; font-size: 10.2px;" transform="translate(54.046875,79.0458984375)" y="0" x="0" id="text-entity-Istruttore-7a2891fd-f8c3-5463-be31-d3fdb6084d3f-attr-3-name" class="er entityLabel">cognome</text><rect height="22.091796875" width="21.5625" y="68" x="111.28125" class="er attributeBoxOdd"/><text style="dominant-baseline: middle; font-size: 10.2px;" transform="translate(116.28125,79.0458984375)" y="0" x="0" id="text-entity-Istruttore-7a2891fd-f8c3-5463-be31-d3fdb6084d3f-attr-3-key" class="er entityLabel"/></g><g transform="translate(655.43359375,510.275390625 )" id="entity-Corso-67ee8776-6159-559a-a2e7-6e7b9c13f9af"><rect height="90" width="149.578125" y="0" x="0" class="er entityBox"/><text style="dominant-baseline: middle; text-anchor: middle; font-size: 12px;" transform="translate(74.7890625,12)" y="0" x="0" id="text-entity-Corso-67ee8776-6159-559a-a2e7-6e7b9c13f9af" class="er entityLabel">Corso</text><rect height="22" width="49.046875" y="24" x="0" class="er attributeBoxOdd"/><text style="dominant-baseline: middle; font-size: 10.2px;" transform="translate(5,35)" y="0" x="0" id="text-entity-Corso-67ee8776-6159-559a-a2e7-6e7b9c13f9af-attr-1-type" class="er entityLabel">INTEGER</text><rect height="22" width="78.96875" y="24" x="49.046875" class="er attributeBoxOdd"/><text style="dominant-baseline: middle; font-size: 10.2px;" transform="translate(54.046875,35)" y="0" x="0" id="text-entity-Corso-67ee8776-6159-559a-a2e7-6e7b9c13f9af-attr-1-name" class="er entityLabel">corsoId</text><rect height="22" width="21.5625" y="24" x="128.015625" class="er attributeBoxOdd"/><text style="dominant-baseline: middle; font-size: 10.2px;" transform="translate(133.015625,35)" y="0" x="0" id="text-entity-Corso-67ee8776-6159-559a-a2e7-6e7b9c13f9af-attr-1-key" class="er entityLabel">PK</text><rect height="22" width="49.046875" y="46" x="0" class="er attributeBoxEven"/><text style="dominant-baseline: middle; font-size: 10.2px;" transform="translate(5,57)" y="0" x="0" id="text-entity-Corso-67ee8776-6159-559a-a2e7-6e7b9c13f9af-attr-2-type" class="er entityLabel">TEXT</text><rect height="22" width="78.96875" y="46" x="49.046875" class="er attributeBoxEven"/><text style="dominant-baseline: middle; font-size: 10.2px;" transform="translate(54.046875,57)" y="0" x="0" id="text-entity-Corso-67ee8776-6159-559a-a2e7-6e7b9c13f9af-attr-2-name" class="er entityLabel">denominazione</text><rect height="22" width="21.5625" y="46" x="128.015625" class="er attributeBoxEven"/><text style="dominant-baseline: middle; font-size: 10.2px;" transform="translate(133.015625,57)" y="0" x="0" id="text-entity-Corso-67ee8776-6159-559a-a2e7-6e7b9c13f9af-attr-2-key" class="er entityLabel"/><rect height="22" width="49.046875" y="68" x="0" class="er attributeBoxOdd"/><text style="dominant-baseline: middle; font-size: 10.2px;" transform="translate(5,79)" y="0" x="0" id="text-entity-Corso-67ee8776-6159-559a-a2e7-6e7b9c13f9af-attr-3-type" class="er entityLabel">TEXT</text><rect height="22" width="78.96875" y="68" x="49.046875" class="er attributeBoxOdd"/><text style="dominant-baseline: middle; font-size: 10.2px;" transform="translate(54.046875,79)" y="0" x="0" id="text-entity-Corso-67ee8776-6159-559a-a2e7-6e7b9c13f9af-attr-3-name" class="er entityLabel">descrizione</text><rect height="22" width="21.5625" y="68" x="128.015625" class="er attributeBoxOdd"/><text style="dominant-baseline: middle; font-size: 10.2px;" transform="translate(133.015625,79)" y="0" x="0" id="text-entity-Corso-67ee8776-6159-559a-a2e7-6e7b9c13f9af-attr-3-key" class="er entityLabel"/></g><g transform="translate(500.78125,232.091796875 )" id="entity-CorsoOfferto-a00a7ef6-3934-5642-b7e4-34af9171605f"><rect height="178.09179782867432" width="208.59375" y="0" x="0" class="er entityBox"/><text style="dominant-baseline: middle; text-anchor: middle; font-size: 12px;" transform="translate(104.296875,12)" y="0" x="0" id="text-entity-CorsoOfferto-a00a7ef6-3934-5642-b7e4-34af9171605f" class="er entityLabel">CorsoOfferto</text><rect height="22" width="49.046875" y="24" x="0" class="er attributeBoxOdd"/><text style="dominant-baseline: middle; font-size: 10.2px;" transform="translate(5,35)" y="0" x="0" id="text-entity-CorsoOfferto-a00a7ef6-3934-5642-b7e4-34af9171605f-attr-1-type" class="er entityLabel">INTEGER</text><rect height="22" width="137.984375" y="24" x="49.046875" class="er attributeBoxOdd"/><text style="dominant-baseline: middle; font-size: 10.2px;" transform="translate(54.046875,35)" y="0" x="0" id="text-entity-CorsoOfferto-a00a7ef6-3934-5642-b7e4-34af9171605f-attr-1-name" class="er entityLabel">corsoOffertoId</text><rect height="22" width="21.5625" y="24" x="187.03125" class="er attributeBoxOdd"/><text style="dominant-baseline: middle; font-size: 10.2px;" transform="translate(192.03125,35)" y="0" x="0" id="text-entity-CorsoOfferto-a00a7ef6-3934-5642-b7e4-34af9171605f-attr-1-key" class="er entityLabel">PK</text><rect height="22" width="49.046875" y="46" x="0" class="er attributeBoxEven"/><text style="dominant-baseline: middle; font-size: 10.2px;" transform="translate(5,57)" y="0" x="0" id="text-entity-CorsoOfferto-a00a7ef6-3934-5642-b7e4-34af9171605f-attr-2-type" class="er entityLabel">INTEGER</text><rect height="22" width="137.984375" y="46" x="49.046875" class="er attributeBoxEven"/><text style="dominant-baseline: middle; font-size: 10.2px;" transform="translate(54.046875,57)" y="0" x="0" id="text-entity-CorsoOfferto-a00a7ef6-3934-5642-b7e4-34af9171605f-attr-2-name" class="er entityLabel">corsoId</text><rect height="22" width="21.5625" y="46" x="187.03125" class="er attributeBoxEven"/><text style="dominant-baseline: middle; font-size: 10.2px;" transform="translate(192.03125,57)" y="0" x="0" id="text-entity-CorsoOfferto-a00a7ef6-3934-5642-b7e4-34af9171605f-attr-2-key" class="er entityLabel">FK</text><rect height="22" width="49.046875" y="68" x="0" class="er attributeBoxOdd"/><text style="dominant-baseline: middle; font-size: 10.2px;" transform="translate(5,79)" y="0" x="0" id="text-entity-CorsoOfferto-a00a7ef6-3934-5642-b7e4-34af9171605f-attr-3-type" class="er entityLabel">INTEGER</text><rect height="22" width="137.984375" y="68" x="49.046875" class="er attributeBoxOdd"/><text style="dominant-baseline: middle; font-size: 10.2px;" transform="translate(54.046875,79)" y="0" x="0" id="text-entity-CorsoOfferto-a00a7ef6-3934-5642-b7e4-34af9171605f-attr-3-name" class="er entityLabel">istruttoreId</text><rect height="22" width="21.5625" y="68" x="187.03125" class="er attributeBoxOdd"/><text style="dominant-baseline: middle; font-size: 10.2px;" transform="translate(192.03125,79)" y="0" x="0" id="text-entity-CorsoOfferto-a00a7ef6-3934-5642-b7e4-34af9171605f-attr-3-key" class="er entityLabel">FK</text><rect height="22.091797828674316" width="49.046875" y="90" x="0" class="er attributeBoxEven"/><text style="dominant-baseline: middle; font-size: 10.2px;" transform="translate(5,101.04589891433716)" y="0" x="0" id="text-entity-CorsoOfferto-a00a7ef6-3934-5642-b7e4-34af9171605f-attr-4-type" class="er entityLabel">INTEGER</text><rect height="22.091797828674316" width="137.984375" y="90" x="49.046875" class="er attributeBoxEven"/><text style="dominant-baseline: middle; font-size: 10.2px;" transform="translate(54.046875,101.04589891433716)" y="0" x="0" id="text-entity-CorsoOfferto-a00a7ef6-3934-5642-b7e4-34af9171605f-attr-4-name" class="er entityLabel">numeroMassimoPartecipanti</text><rect height="22.091797828674316" width="21.5625" y="90" x="187.03125" class="er attributeBoxEven"/><text style="dominant-baseline: middle; font-size: 10.2px;" transform="translate(192.03125,101.04589891433716)" y="0" x="0" id="text-entity-CorsoOfferto-a00a7ef6-3934-5642-b7e4-34af9171605f-attr-4-key" class="er entityLabel"/><rect height="22" width="49.046875" y="112.09179782867432" x="0" class="er attributeBoxOdd"/><text style="dominant-baseline: middle; font-size: 10.2px;" transform="translate(5,123.09179782867432)" y="0" x="0" id="text-entity-CorsoOfferto-a00a7ef6-3934-5642-b7e4-34af9171605f-attr-5-type" class="er entityLabel">TEXT</text><rect height="22" width="137.984375" y="112.09179782867432" x="49.046875" class="er attributeBoxOdd"/><text style="dominant-baseline: middle; font-size: 10.2px;" transform="translate(54.046875,123.09179782867432)" y="0" x="0" id="text-entity-CorsoOfferto-a00a7ef6-3934-5642-b7e4-34af9171605f-attr-5-name" class="er entityLabel">descrizione</text><rect height="22" width="21.5625" y="112.09179782867432" x="187.03125" class="er attributeBoxOdd"/><text style="dominant-baseline: middle; font-size: 10.2px;" transform="translate(192.03125,123.09179782867432)" y="0" x="0" id="text-entity-CorsoOfferto-a00a7ef6-3934-5642-b7e4-34af9171605f-attr-5-key" class="er entityLabel"/><rect height="22" width="49.046875" y="134.09179782867432" x="0" class="er attributeBoxEven"/><text style="dominant-baseline: middle; font-size: 10.2px;" transform="translate(5,145.09179782867432)" y="0" x="0" id="text-entity-CorsoOfferto-a00a7ef6-3934-5642-b7e4-34af9171605f-attr-6-type" class="er entityLabel">TEXT</text><rect height="22" width="137.984375" y="134.09179782867432" x="49.046875" class="er attributeBoxEven"/><text style="dominant-baseline: middle; font-size: 10.2px;" transform="translate(54.046875,145.09179782867432)" y="0" x="0" id="text-entity-CorsoOfferto-a00a7ef6-3934-5642-b7e4-34af9171605f-attr-6-name" class="er entityLabel">inizio</text><rect height="22" width="21.5625" y="134.09179782867432" x="187.03125" class="er attributeBoxEven"/><text style="dominant-baseline: middle; font-size: 10.2px;" transform="translate(192.03125,145.09179782867432)" y="0" x="0" id="text-entity-CorsoOfferto-a00a7ef6-3934-5642-b7e4-34af9171605f-attr-6-key" class="er entityLabel"/><rect height="22" width="49.046875" y="156.09179782867432" x="0" class="er attributeBoxOdd"/><text style="dominant-baseline: middle; font-size: 10.2px;" transform="translate(5,167.09179782867432)" y="0" x="0" id="text-entity-CorsoOfferto-a00a7ef6-3934-5642-b7e4-34af9171605f-attr-7-type" class="er entityLabel">TEXT</text><rect height="22" width="137.984375" y="156.09179782867432" x="49.046875" class="er attributeBoxOdd"/><text style="dominant-baseline: middle; font-size: 10.2px;" transform="translate(54.046875,167.09179782867432)" y="0" x="0" id="text-entity-CorsoOfferto-a00a7ef6-3934-5642-b7e4-34af9171605f-attr-7-name" class="er entityLabel">fine</text><rect height="22" width="21.5625" y="156.09179782867432" x="187.03125" class="er attributeBoxOdd"/><text style="dominant-baseline: middle; font-size: 10.2px;" transform="translate(192.03125,167.09179782867432)" y="0" x="0" id="text-entity-CorsoOfferto-a00a7ef6-3934-5642-b7e4-34af9171605f-attr-7-key" class="er entityLabel"/></g><g transform="translate(1030.15625,510.18359375 )" id="entity-Giorno-41cbb48b-b6aa-5bec-b859-0078f79251a4"><rect height="90.18359565734863" width="144.484375" y="0" x="0" class="er entityBox"/><text style="dominant-baseline: middle; text-anchor: middle; font-size: 12px;" transform="translate(72.2421875,12)" y="0" x="0" id="text-entity-Giorno-41cbb48b-b6aa-5bec-b859-0078f79251a4" class="er entityLabel">Giorno</text><rect height="22.091797828674316" width="49.046875" y="24" x="0" class="er attributeBoxOdd"/><text style="dominant-baseline: middle; font-size: 10.2px;" transform="translate(5,35.04589891433716)" y="0" x="0" id="text-entity-Giorno-41cbb48b-b6aa-5bec-b859-0078f79251a4-attr-1-type" class="er entityLabel">INTEGER</text><rect height="22.091797828674316" width="73.875" y="24" x="49.046875" class="er attributeBoxOdd"/><text style="dominant-baseline: middle; font-size: 10.2px;" transform="translate(54.046875,35.04589891433716)" y="0" x="0" id="text-entity-Giorno-41cbb48b-b6aa-5bec-b859-0078f79251a4-attr-1-name" class="er entityLabel">giornoId</text><rect height="22.091797828674316" width="21.5625" y="24" x="122.921875" class="er attributeBoxOdd"/><text style="dominant-baseline: middle; font-size: 10.2px;" transform="translate(127.921875,35.04589891433716)" y="0" x="0" id="text-entity-Giorno-41cbb48b-b6aa-5bec-b859-0078f79251a4-attr-1-key" class="er entityLabel">PK</text><rect height="22.091797828674316" width="49.046875" y="46.091797828674316" x="0" class="er attributeBoxEven"/><text style="dominant-baseline: middle; font-size: 10.2px;" transform="translate(5,57.137696743011475)" y="0" x="0" id="text-entity-Giorno-41cbb48b-b6aa-5bec-b859-0078f79251a4-attr-2-type" class="er entityLabel">TEXT</text><rect height="22.091797828674316" width="73.875" y="46.091797828674316" x="49.046875" class="er attributeBoxEven"/><text style="dominant-baseline: middle; font-size: 10.2px;" transform="translate(54.046875,57.137696743011475)" y="0" x="0" id="text-entity-Giorno-41cbb48b-b6aa-5bec-b859-0078f79251a4-attr-2-name" class="er entityLabel">giorno</text><rect height="22.091797828674316" width="21.5625" y="46.091797828674316" x="122.921875" class="er attributeBoxEven"/><text style="dominant-baseline: middle; font-size: 10.2px;" transform="translate(127.921875,57.137696743011475)" y="0" x="0" id="text-entity-Giorno-41cbb48b-b6aa-5bec-b859-0078f79251a4-attr-2-key" class="er entityLabel"/><rect height="22" width="49.046875" y="68.18359565734863" x="0" class="er attributeBoxOdd"/><text style="dominant-baseline: middle; font-size: 10.2px;" transform="translate(5,79.18359565734863)" y="0" x="0" id="text-entity-Giorno-41cbb48b-b6aa-5bec-b859-0078f79251a4-attr-3-type" class="er entityLabel">TEXT</text><rect height="22" width="73.875" y="68.18359565734863" x="49.046875" class="er attributeBoxOdd"/><text style="dominant-baseline: middle; font-size: 10.2px;" transform="translate(54.046875,79.18359565734863)" y="0" x="0" id="text-entity-Giorno-41cbb48b-b6aa-5bec-b859-0078f79251a4-attr-3-name" class="er entityLabel">abbreviazione</text><rect height="22" width="21.5625" y="68.18359565734863" x="122.921875" class="er attributeBoxOdd"/><text style="dominant-baseline: middle; font-size: 10.2px;" transform="translate(127.921875,79.18359565734863)" y="0" x="0" id="text-entity-Giorno-41cbb48b-b6aa-5bec-b859-0078f79251a4-attr-3-key" class="er entityLabel"/></g><g transform="translate(1030.328125,265.091796875 )" id="entity-FasciaOraria-81c5a93d-c2dd-5589-91dd-142877eeb703"><rect height="112.09179782867432" width="144.140625" y="0" x="0" class="er entityBox"/><text style="dominant-baseline: middle; text-anchor: middle; font-size: 12px;" transform="translate(72.0703125,12)" y="0" x="0" id="text-entity-FasciaOraria-81c5a93d-c2dd-5589-91dd-142877eeb703" class="er entityLabel">FasciaOraria</text><rect height="22" width="49.046875" y="24" x="0" class="er attributeBoxOdd"/><text style="dominant-baseline: middle; font-size: 10.2px;" transform="translate(5,35)" y="0" x="0" id="text-entity-FasciaOraria-81c5a93d-c2dd-5589-91dd-142877eeb703-attr-1-type" class="er entityLabel">INTEGER</text><rect height="22" width="73.53125" y="24" x="49.046875" class="er attributeBoxOdd"/><text style="dominant-baseline: middle; font-size: 10.2px;" transform="translate(54.046875,35)" y="0" x="0" id="text-entity-FasciaOraria-81c5a93d-c2dd-5589-91dd-142877eeb703-attr-1-name" class="er entityLabel">fasciaOrariaId</text><rect height="22" width="21.5625" y="24" x="122.578125" class="er attributeBoxOdd"/><text style="dominant-baseline: middle; font-size: 10.2px;" transform="translate(127.578125,35)" y="0" x="0" id="text-entity-FasciaOraria-81c5a93d-c2dd-5589-91dd-142877eeb703-attr-1-key" class="er entityLabel">PK</text><rect height="22.091797828674316" width="49.046875" y="46" x="0" class="er attributeBoxEven"/><text style="dominant-baseline: middle; font-size: 10.2px;" transform="translate(5,57.04589891433716)" y="0" x="0" id="text-entity-FasciaOraria-81c5a93d-c2dd-5589-91dd-142877eeb703-attr-2-type" class="er entityLabel">INTEGER</text><rect height="22.091797828674316" width="73.53125" y="46" x="49.046875" class="er attributeBoxEven"/><text style="dominant-baseline: middle; font-size: 10.2px;" transform="translate(54.046875,57.04589891433716)" y="0" x="0" id="text-entity-FasciaOraria-81c5a93d-c2dd-5589-91dd-142877eeb703-attr-2-name" class="er entityLabel">giornoId</text><rect height="22.091797828674316" width="21.5625" y="46" x="122.578125" class="er attributeBoxEven"/><text style="dominant-baseline: middle; font-size: 10.2px;" transform="translate(127.578125,57.04589891433716)" y="0" x="0" id="text-entity-FasciaOraria-81c5a93d-c2dd-5589-91dd-142877eeb703-attr-2-key" class="er entityLabel">FK</text><rect height="22" width="49.046875" y="68.09179782867432" x="0" class="er attributeBoxOdd"/><text style="dominant-baseline: middle; font-size: 10.2px;" transform="translate(5,79.09179782867432)" y="0" x="0" id="text-entity-FasciaOraria-81c5a93d-c2dd-5589-91dd-142877eeb703-attr-3-type" class="er entityLabel">TEXT</text><rect height="22" width="73.53125" y="68.09179782867432" x="49.046875" class="er attributeBoxOdd"/><text style="dominant-baseline: middle; font-size: 10.2px;" transform="translate(54.046875,79.09179782867432)" y="0" x="0" id="text-entity-FasciaOraria-81c5a93d-c2dd-5589-91dd-142877eeb703-attr-3-name" class="er entityLabel">inizio</text><rect height="22" width="21.5625" y="68.09179782867432" x="122.578125" class="er attributeBoxOdd"/><text style="dominant-baseline: middle; font-size: 10.2px;" transform="translate(127.578125,79.09179782867432)" y="0" x="0" id="text-entity-FasciaOraria-81c5a93d-c2dd-5589-91dd-142877eeb703-attr-3-key" class="er entityLabel"/><rect height="22" width="49.046875" y="90.09179782867432" x="0" class="er attributeBoxEven"/><text style="dominant-baseline: middle; font-size: 10.2px;" transform="translate(5,101.09179782867432)" y="0" x="0" id="text-entity-FasciaOraria-81c5a93d-c2dd-5589-91dd-142877eeb703-attr-4-type" class="er entityLabel">TEXT</text><rect height="22" width="73.53125" y="90.09179782867432" x="49.046875" class="er attributeBoxEven"/><text style="dominant-baseline: middle; font-size: 10.2px;" transform="translate(54.046875,101.09179782867432)" y="0" x="0" id="text-entity-FasciaOraria-81c5a93d-c2dd-5589-91dd-142877eeb703-attr-4-name" class="er entityLabel">fine</text><rect height="22" width="21.5625" y="90.09179782867432" x="122.578125" class="er attributeBoxEven"/><text style="dominant-baseline: middle; font-size: 10.2px;" transform="translate(127.578125,101.09179782867432)" y="0" x="0" id="text-entity-FasciaOraria-81c5a93d-c2dd-5589-91dd-142877eeb703-attr-4-key" class="er entityLabel"/></g><g transform="translate(809.375,276.091796875 )" id="entity-Sala-fd0863b3-e1da-57d9-b284-1a8881b9d8de"><rect height="90.09179782867432" width="120.953125" y="0" x="0" class="er entityBox"/><text style="dominant-baseline: middle; text-anchor: middle; font-size: 12px;" transform="translate(60.4765625,12)" y="0" x="0" id="text-entity-Sala-fd0863b3-e1da-57d9-b284-1a8881b9d8de" class="er entityLabel">Sala</text><rect height="22" width="49.046875" y="24" x="0" class="er attributeBoxOdd"/><text style="dominant-baseline: middle; font-size: 10.2px;" transform="translate(5,35)" y="0" x="0" id="text-entity-Sala-fd0863b3-e1da-57d9-b284-1a8881b9d8de-attr-1-type" class="er entityLabel">INTEGER</text><rect height="22" width="50.34375" y="24" x="49.046875" class="er attributeBoxOdd"/><text style="dominant-baseline: middle; font-size: 10.2px;" transform="translate(54.046875,35)" y="0" x="0" id="text-entity-Sala-fd0863b3-e1da-57d9-b284-1a8881b9d8de-attr-1-name" class="er entityLabel">salaId</text><rect height="22" width="21.5625" y="24" x="99.390625" class="er attributeBoxOdd"/><text style="dominant-baseline: middle; font-size: 10.2px;" transform="translate(104.390625,35)" y="0" x="0" id="text-entity-Sala-fd0863b3-e1da-57d9-b284-1a8881b9d8de-attr-1-key" class="er entityLabel">PK</text><rect height="22" width="49.046875" y="46" x="0" class="er attributeBoxEven"/><text style="dominant-baseline: middle; font-size: 10.2px;" transform="translate(5,57)" y="0" x="0" id="text-entity-Sala-fd0863b3-e1da-57d9-b284-1a8881b9d8de-attr-2-type" class="er entityLabel">TEXT</text><rect height="22" width="50.34375" y="46" x="49.046875" class="er attributeBoxEven"/><text style="dominant-baseline: middle; font-size: 10.2px;" transform="translate(54.046875,57)" y="0" x="0" id="text-entity-Sala-fd0863b3-e1da-57d9-b284-1a8881b9d8de-attr-2-name" class="er entityLabel">sala</text><rect height="22" width="21.5625" y="46" x="99.390625" class="er attributeBoxEven"/><text style="dominant-baseline: middle; font-size: 10.2px;" transform="translate(104.390625,57)" y="0" x="0" id="text-entity-Sala-fd0863b3-e1da-57d9-b284-1a8881b9d8de-attr-2-key" class="er entityLabel"/><rect height="22.091797828674316" width="49.046875" y="68" x="0" class="er attributeBoxOdd"/><text style="dominant-baseline: middle; font-size: 10.2px;" transform="translate(5,79.04589891433716)" y="0" x="0" id="text-entity-Sala-fd0863b3-e1da-57d9-b284-1a8881b9d8de-attr-3-type" class="er entityLabel">INTEGER</text><rect height="22.091797828674316" width="50.34375" y="68" x="49.046875" class="er attributeBoxOdd"/><text style="dominant-baseline: middle; font-size: 10.2px;" transform="translate(54.046875,79.04589891433716)" y="0" x="0" id="text-entity-Sala-fd0863b3-e1da-57d9-b284-1a8881b9d8de-attr-3-name" class="er entityLabel">capienza</text><rect height="22.091797828674316" width="21.5625" y="68" x="99.390625" class="er attributeBoxOdd"/><text style="dominant-baseline: middle; font-size: 10.2px;" transform="translate(104.390625,79.04589891433716)" y="0" x="0" id="text-entity-Sala-fd0863b3-e1da-57d9-b284-1a8881b9d8de-attr-3-key" class="er entityLabel"/></g><g transform="translate(796.5078125,31.0458984375 )" id="entity-Orario-92139cee-57fd-505c-9b51-f4304e619a94"><rect height="90" width="146.6875" y="0" x="0" class="er entityBox"/><text style="dominant-baseline: middle; text-anchor: middle; font-size: 12px;" transform="translate(73.34375,12)" y="0" x="0" id="text-entity-Orario-92139cee-57fd-505c-9b51-f4304e619a94" class="er entityLabel">Orario</text><rect height="22" width="49.046875" y="24" x="0" class="er attributeBoxOdd"/><text style="dominant-baseline: middle; font-size: 10.2px;" transform="translate(5,35)" y="0" x="0" id="text-entity-Orario-92139cee-57fd-505c-9b51-f4304e619a94-attr-1-type" class="er entityLabel">INTEGER</text><rect height="22" width="76.078125" y="24" x="49.046875" class="er attributeBoxOdd"/><text style="dominant-baseline: middle; font-size: 10.2px;" transform="translate(54.046875,35)" y="0" x="0" id="text-entity-Orario-92139cee-57fd-505c-9b51-f4304e619a94-attr-1-name" class="er entityLabel">corsoOffertoId</text><rect height="22" width="21.5625" y="24" x="125.125" class="er attributeBoxOdd"/><text style="dominant-baseline: middle; font-size: 10.2px;" transform="translate(130.125,35)" y="0" x="0" id="text-entity-Orario-92139cee-57fd-505c-9b51-f4304e619a94-attr-1-key" class="er entityLabel">PK</text><rect height="22" width="49.046875" y="46" x="0" class="er attributeBoxEven"/><text style="dominant-baseline: middle; font-size: 10.2px;" transform="translate(5,57)" y="0" x="0" id="text-entity-Orario-92139cee-57fd-505c-9b51-f4304e619a94-attr-2-type" class="er entityLabel">INTEGER</text><rect height="22" width="76.078125" y="46" x="49.046875" class="er attributeBoxEven"/><text style="dominant-baseline: middle; font-size: 10.2px;" transform="translate(54.046875,57)" y="0" x="0" id="text-entity-Orario-92139cee-57fd-505c-9b51-f4304e619a94-attr-2-name" class="er entityLabel">fasciaOrariaId</text><rect height="22" width="21.5625" y="46" x="125.125" class="er attributeBoxEven"/><text style="dominant-baseline: middle; font-size: 10.2px;" transform="translate(130.125,57)" y="0" x="0" id="text-entity-Orario-92139cee-57fd-505c-9b51-f4304e619a94-attr-2-key" class="er entityLabel">PK</text><rect height="22" width="49.046875" y="68" x="0" class="er attributeBoxOdd"/><text style="dominant-baseline: middle; font-size: 10.2px;" transform="translate(5,79)" y="0" x="0" id="text-entity-Orario-92139cee-57fd-505c-9b51-f4304e619a94-attr-3-type" class="er entityLabel">INTEGER</text><rect height="22" width="76.078125" y="68" x="49.046875" class="er attributeBoxOdd"/><text style="dominant-baseline: middle; font-size: 10.2px;" transform="translate(54.046875,79)" y="0" x="0" id="text-entity-Orario-92139cee-57fd-505c-9b51-f4304e619a94-attr-3-name" class="er entityLabel">salaId</text><rect height="22" width="21.5625" y="68" x="125.125" class="er attributeBoxOdd"/><text style="dominant-baseline: middle; font-size: 10.2px;" transform="translate(130.125,79)" y="0" x="0" id="text-entity-Orario-92139cee-57fd-505c-9b51-f4304e619a94-attr-3-key" class="er entityLabel">FK</text></g><g transform="translate(47.6796875,20 )" id="entity-Partecipazione-bd82857d-16ac-5037-a357-b6a4f9d0a1fe"><rect height="112.09179782867432" width="192.578125" y="0" x="0" class="er entityBox"/><text style="dominant-baseline: middle; text-anchor: middle; font-size: 12px;" transform="translate(96.2890625,12)" y="0" x="0" id="text-entity-Partecipazione-bd82857d-16ac-5037-a357-b6a4f9d0a1fe" class="er entityLabel">Partecipazione</text><rect height="22.091797828674316" width="49.046875" y="24" x="0" class="er attributeBoxOdd"/><text style="dominant-baseline: middle; font-size: 10.2px;" transform="translate(5,35.04589891433716)" y="0" x="0" id="text-entity-Partecipazione-bd82857d-16ac-5037-a357-b6a4f9d0a1fe-attr-1-type" class="er entityLabel">INTEGER</text><rect height="22.091797828674316" width="121.96875" y="24" x="49.046875" class="er attributeBoxOdd"/><text style="dominant-baseline: middle; font-size: 10.2px;" transform="translate(54.046875,35.04589891433716)" y="0" x="0" id="text-entity-Partecipazione-bd82857d-16ac-5037-a357-b6a4f9d0a1fe-attr-1-name" class="er entityLabel">partecipanteId</text><rect height="22.091797828674316" width="21.5625" y="24" x="171.015625" class="er attributeBoxOdd"/><text style="dominant-baseline: middle; font-size: 10.2px;" transform="translate(176.015625,35.04589891433716)" y="0" x="0" id="text-entity-Partecipazione-bd82857d-16ac-5037-a357-b6a4f9d0a1fe-attr-1-key" class="er entityLabel">PK</text><rect height="22" width="49.046875" y="46.091797828674316" x="0" class="er attributeBoxEven"/><text style="dominant-baseline: middle; font-size: 10.2px;" transform="translate(5,57.091797828674316)" y="0" x="0" id="text-entity-Partecipazione-bd82857d-16ac-5037-a357-b6a4f9d0a1fe-attr-2-type" class="er entityLabel">INTEGER</text><rect height="22" width="121.96875" y="46.091797828674316" x="49.046875" class="er attributeBoxEven"/><text style="dominant-baseline: middle; font-size: 10.2px;" transform="translate(54.046875,57.091797828674316)" y="0" x="0" id="text-entity-Partecipazione-bd82857d-16ac-5037-a357-b6a4f9d0a1fe-attr-2-name" class="er entityLabel">corsoOffertoId</text><rect height="22" width="21.5625" y="46.091797828674316" x="171.015625" class="er attributeBoxEven"/><text style="dominant-baseline: middle; font-size: 10.2px;" transform="translate(176.015625,57.091797828674316)" y="0" x="0" id="text-entity-Partecipazione-bd82857d-16ac-5037-a357-b6a4f9d0a1fe-attr-2-key" class="er entityLabel">PK</text><rect height="22" width="49.046875" y="68.09179782867432" x="0" class="er attributeBoxOdd"/><text style="dominant-baseline: middle; font-size: 10.2px;" transform="translate(5,79.09179782867432)" y="0" x="0" id="text-entity-Partecipazione-bd82857d-16ac-5037-a357-b6a4f9d0a1fe-attr-3-type" class="er entityLabel">TEXT</text><rect height="22" width="121.96875" y="68.09179782867432" x="49.046875" class="er attributeBoxOdd"/><text style="dominant-baseline: middle; font-size: 10.2px;" transform="translate(54.046875,79.09179782867432)" y="0" x="0" id="text-entity-Partecipazione-bd82857d-16ac-5037-a357-b6a4f9d0a1fe-attr-3-name" class="er entityLabel">dataRilascioCertificato</text><rect height="22" width="21.5625" y="68.09179782867432" x="171.015625" class="er attributeBoxOdd"/><text style="dominant-baseline: middle; font-size: 10.2px;" transform="translate(176.015625,79.09179782867432)" y="0" x="0" id="text-entity-Partecipazione-bd82857d-16ac-5037-a357-b6a4f9d0a1fe-attr-3-key" class="er entityLabel"/><rect height="22" width="49.046875" y="90.09179782867432" x="0" class="er attributeBoxEven"/><text style="dominant-baseline: middle; font-size: 10.2px;" transform="translate(5,101.09179782867432)" y="0" x="0" id="text-entity-Partecipazione-bd82857d-16ac-5037-a357-b6a4f9d0a1fe-attr-4-type" class="er entityLabel">TEXT</text><rect height="22" width="121.96875" y="90.09179782867432" x="49.046875" class="er attributeBoxEven"/><text style="dominant-baseline: middle; font-size: 10.2px;" transform="translate(54.046875,101.09179782867432)" y="0" x="0" id="text-entity-Partecipazione-bd82857d-16ac-5037-a357-b6a4f9d0a1fe-attr-4-name" class="er entityLabel">dataScadenzaCertificato</text><rect height="22" width="21.5625" y="90.09179782867432" x="171.015625" class="er attributeBoxEven"/><text style="dominant-baseline: middle; font-size: 10.2px;" transform="translate(176.015625,101.09179782867432)" y="0" x="0" id="text-entity-Partecipazione-bd82857d-16ac-5037-a357-b6a4f9d0a1fe-attr-4-key" class="er entityLabel"/></g><g transform="translate(267.9375,276.1376953125 )" id="entity-Specializzazione-22179e5a-34bc-5ac3-8d15-263d4b29d381"><rect height="90" width="132.84375" y="0" x="0" class="er entityBox"/><text style="dominant-baseline: middle; text-anchor: middle; font-size: 12px;" transform="translate(66.421875,12)" y="0" x="0" id="text-entity-Specializzazione-22179e5a-34bc-5ac3-8d15-263d4b29d381" class="er entityLabel">Specializzazione</text><rect height="22" width="49.046875" y="24" x="0" class="er attributeBoxOdd"/><text style="dominant-baseline: middle; font-size: 10.2px;" transform="translate(5,35)" y="0" x="0" id="text-entity-Specializzazione-22179e5a-34bc-5ac3-8d15-263d4b29d381-attr-1-type" class="er entityLabel">INTEGER</text><rect height="22" width="62.234375" y="24" x="49.046875" class="er attributeBoxOdd"/><text style="dominant-baseline: middle; font-size: 10.2px;" transform="translate(54.046875,35)" y="0" x="0" id="text-entity-Specializzazione-22179e5a-34bc-5ac3-8d15-263d4b29d381-attr-1-name" class="er entityLabel">istruttoreId</text><rect height="22" width="21.5625" y="24" x="111.28125" class="er attributeBoxOdd"/><text style="dominant-baseline: middle; font-size: 10.2px;" transform="translate(116.28125,35)" y="0" x="0" id="text-entity-Specializzazione-22179e5a-34bc-5ac3-8d15-263d4b29d381-attr-1-key" class="er entityLabel">PK</text><rect height="22" width="49.046875" y="46" x="0" class="er attributeBoxEven"/><text style="dominant-baseline: middle; font-size: 10.2px;" transform="translate(5,57)" y="0" x="0" id="text-entity-Specializzazione-22179e5a-34bc-5ac3-8d15-263d4b29d381-attr-2-type" class="er entityLabel">INTEGER</text><rect height="22" width="62.234375" y="46" x="49.046875" class="er attributeBoxEven"/><text style="dominant-baseline: middle; font-size: 10.2px;" transform="translate(54.046875,57)" y="0" x="0" id="text-entity-Specializzazione-22179e5a-34bc-5ac3-8d15-263d4b29d381-attr-2-name" class="er entityLabel">corsoId</text><rect height="22" width="21.5625" y="46" x="111.28125" class="er attributeBoxEven"/><text style="dominant-baseline: middle; font-size: 10.2px;" transform="translate(116.28125,57)" y="0" x="0" id="text-entity-Specializzazione-22179e5a-34bc-5ac3-8d15-263d4b29d381-attr-2-key" class="er entityLabel">PK</text><rect height="22" width="49.046875" y="68" x="0" class="er attributeBoxOdd"/><text style="dominant-baseline: middle; font-size: 10.2px;" transform="translate(5,79)" y="0" x="0" id="text-entity-Specializzazione-22179e5a-34bc-5ac3-8d15-263d4b29d381-attr-3-type" class="er entityLabel">TEXT</text><rect height="22" width="62.234375" y="68" x="49.046875" class="er attributeBoxOdd"/><text style="dominant-baseline: middle; font-size: 10.2px;" transform="translate(54.046875,79)" y="0" x="0" id="text-entity-Specializzazione-22179e5a-34bc-5ac3-8d15-263d4b29d381-attr-3-name" class="er entityLabel">titolo</text><rect height="22" width="21.5625" y="68" x="111.28125" class="er attributeBoxOdd"/><text style="dominant-baseline: middle; font-size: 10.2px;" transform="translate(116.28125,79)" y="0" x="0" id="text-entity-Specializzazione-22179e5a-34bc-5ac3-8d15-263d4b29d381-attr-3-key" class="er entityLabel">PK</text></g><rect height="14" width="61.453125" y="448.5860900878906" x="394.4741516113281" class="er relationshipLabelBox"/><text style="text-anchor: middle; dominant-baseline: middle; font-size: 12px;" y="455.5860900878906" x="425.2007141113281" id="rel1" class="er relationshipLabel">istruttoreId</text><rect height="14" width="38.375" y="435.1492614746094" x="751.32421875" class="er relationshipLabelBox"/><text style="text-anchor: middle; dominant-baseline: middle; font-size: 12px;" y="442.1492614746094" x="770.51171875" id="rel2" class="er relationshipLabel">corsoId</text><rect height="14" width="43.578125" y="436.6839904785156" x="1080.60888671875" class="er relationshipLabelBox"/><text style="text-anchor: middle; dominant-baseline: middle; font-size: 12px;" y="443.6839904785156" x="1102.39794921875" id="rel3" class="er relationshipLabel">giornoId</text><rect height="14" width="31.03125" y="191.56900024414062" x="854.3363647460938" class="er relationshipLabelBox"/><text style="text-anchor: middle; dominant-baseline: middle; font-size: 12px;" y="198.56900024414062" x="869.8519897460938" id="rel4" class="er relationshipLabel">salaId</text><rect height="14" width="74.75" y="157.08377075195312" x="1013.273193359375" class="er relationshipLabelBox"/><text style="text-anchor: middle; dominant-baseline: middle; font-size: 12px;" y="164.08377075195312" x="1050.648193359375" id="rel5" class="er relationshipLabel">fasciaOrariaId</text><rect height="14" width="77.734375" y="159.16563415527344" x="680.1488647460938" class="er relationshipLabelBox"/><text style="text-anchor: middle; dominant-baseline: middle; font-size: 12px;" y="166.16563415527344" x="719.0160522460938" id="rel6" class="er relationshipLabel">corsoOffertoId</text><rect height="14" width="77.734375" y="167.95718383789062" x="336.02581787109375" class="er relationshipLabelBox"/><text style="text-anchor: middle; dominant-baseline: middle; font-size: 12px;" y="174.95718383789062" x="374.89300537109375" id="rel7" class="er relationshipLabel">corsoOffertoId</text><rect height="14" width="79.203125" y="195.2861328125" x="56.60246276855469" class="er relationshipLabelBox"/><text style="text-anchor: middle; dominant-baseline: middle; font-size: 12px;" y="202.2861328125" x="96.20402526855469" id="rel8" class="er relationshipLabel">partecipanteId</text><rect height="14" width="38.375" y="422.46826171875" x="516.6387329101562" class="er relationshipLabelBox"/><text style="text-anchor: middle; dominant-baseline: middle; font-size: 12px;" y="429.46826171875" x="535.8262329101562" id="rel9" class="er relationshipLabel">corsoId</text><rect height="14" width="61.453125" y="426.7516174316406" x="227.0074462890625" class="er relationshipLabelBox"/><text style="text-anchor: middle; dominant-baseline: middle; font-size: 12px;" y="433.7516174316406" x="257.7340087890625" id="rel10" class="er relationshipLabel">istruttoreId</text></svg>