<svg aria-roledescription="er" role="graphics-document document" viewBox="0 0 610.71875 599.009765625" style="max-width: 610.719px; background-color: white;" xmlns:xlink="http://www.w3.org/1999/xlink" xmlns="http://www.w3.org/2000/svg" width="100%" id="my-svg"><style>#my-svg{font-family:"trebuchet ms",verdana,arial,sans-serif;font-size:16px;fill:#333;}#my-svg .error-icon{fill:#552222;}#my-svg .error-text{fill:#552222;stroke:#552222;}#my-svg .edge-thickness-normal{stroke-width:1px;}#my-svg .edge-thickness-thick{stroke-width:3.5px;}#my-svg .edge-pattern-solid{stroke-dasharray:0;}#my-svg .edge-thickness-invisible{stroke-width:0;fill:none;}#my-svg .edge-pattern-dashed{stroke-dasharray:3;}#my-svg .edge-pattern-dotted{stroke-dasharray:2;}#my-svg .marker{fill:#333333;stroke:#333333;}#my-svg .marker.cross{stroke:#333333;}#my-svg svg{font-family:"trebuchet ms",verdana,arial,sans-serif;font-size:16px;}#my-svg p{margin:0;}#my-svg .entityBox{fill:#ECECFF;stroke:#9370DB;}#my-svg .attributeBoxOdd{fill:#ffffff;stroke:#9370DB;}#my-svg .attributeBoxEven{fill:#f2f2f2;stroke:#9370DB;}#my-svg .relationshipLabelBox{fill:hsl(80, 100%, 96.2745098039%);opacity:0.7;background-color:hsl(80, 100%, 96.2745098039%);}#my-svg .relationshipLabelBox rect{opacity:0.5;}#my-svg .relationshipLine{stroke:#333333;}#my-svg .entityTitleText{text-anchor:middle;font-size:18px;fill:#333;}#my-svg #MD_PARENT_START{fill:#f5f5f5!important;stroke:#333333!important;stroke-width:1;}#my-svg #MD_PARENT_END{fill:#f5f5f5!important;stroke:#333333!important;stroke-width:1;}#my-svg :root{--mermaid-font-family:"trebuchet ms",verdana,arial,sans-serif;}</style><g/><defs><marker orient="auto" markerHeight="240" markerWidth="190" refY="7" refX="0" id="MD_PARENT_START"><path d="M 18,7 L9,13 L1,7 L9,1 Z"/></marker></defs><defs><marker orient="auto" markerHeight="28" markerWidth="20" refY="7" refX="19" id="MD_PARENT_END"><path d="M 18,7 L9,13 L1,7 L9,1 Z"/></marker></defs><defs><marker orient="auto" markerHeight="18" markerWidth="18" refY="9" refX="0" id="ONLY_ONE_START"><path d="M9,0 L9,18 M15,0 L15,18" fill="none" stroke="gray"/></marker></defs><defs><marker orient="auto" markerHeight="18" markerWidth="18" refY="9" refX="18" id="ONLY_ONE_END"><path d="M3,0 L3,18 M9,0 L9,18" fill="none" stroke="gray"/></marker></defs><defs><marker orient="auto" markerHeight="18" markerWidth="30" refY="9" refX="0" id="ZERO_OR_ONE_START"><circle r="6" cy="9" cx="21" fill="white" stroke="gray"/><path d="M9,0 L9,18" fill="none" stroke="gray"/></marker></defs><defs><marker orient="auto" markerHeight="18" markerWidth="30" refY="9" refX="30" id="ZERO_OR_ONE_END"><circle r="6" cy="9" cx="9" fill="white" stroke="gray"/><path d="M21,0 L21,18" fill="none" stroke="gray"/></marker></defs><defs><marker orient="auto" markerHeight="36" markerWidth="45" refY="18" refX="18" id="ONE_OR_MORE_START"><path d="M0,18 Q 18,0 36,18 Q 18,36 0,18 M42,9 L42,27" fill="none" stroke="gray"/></marker></defs><defs><marker orient="auto" markerHeight="36" markerWidth="45" refY="18" refX="27" id="ONE_OR_MORE_END"><path d="M3,9 L3,27 M9,18 Q27,0 45,18 Q27,36 9,18" fill="none" stroke="gray"/></marker></defs><defs><marker orient="auto" markerHeight="36" markerWidth="57" refY="18" refX="18" id="ZERO_OR_MORE_START"><circle r="6" cy="18" cx="48" fill="white" stroke="gray"/><path d="M0,18 Q18,0 36,18 Q18,36 0,18" fill="none" stroke="gray"/></marker></defs><defs><marker orient="auto" markerHeight="36" markerWidth="57" refY="18" refX="39" id="ZERO_OR_MORE_END"><circle r="6" cy="18" cx="9" fill="white" stroke="gray"/><path d="M21,18 Q39,0 57,18 Q39,36 21,18" fill="none" stroke="gray"/></marker></defs><path style="stroke: gray; fill: none;" marker-start="url(#ONLY_ONE_START)" marker-end="url(#ONE_OR_MORE_END)" d="M75.898,132.367L75.898,140.701C75.898,149.034,75.898,165.701,75.898,191.557C75.898,217.413,75.898,252.459,75.898,269.982L75.898,287.505" class="er relationshipLine"/><path style="stroke: gray; fill: none;" marker-start="url(#ONE_OR_MORE_START)" marker-end="url(#ONLY_ONE_END)" d="M75.898,355.688L75.898,373.211C75.898,390.734,75.898,425.78,104.531,453.985C133.164,482.19,190.43,503.554,219.063,514.236L247.695,524.918" class="er relationshipLine"/><path style="stroke: gray; fill: none;" marker-start="url(#ONLY_ONE_START)" marker-end="url(#ONE_OR_MORE_END)" d="M297.25,132.367L297.25,140.701C297.25,149.034,297.25,165.701,306.162,184.849C315.074,203.998,332.898,225.628,341.811,236.443L350.723,247.258" class="er relationshipLine"/><path style="stroke: gray; fill: none;" marker-start="url(#ONLY_ONE_START)" marker-end="url(#ONE_OR_MORE_END)" d="M526.711,132.367L526.711,140.701C526.711,149.034,526.711,165.701,517.799,184.849C508.887,203.998,491.063,225.628,482.15,236.443L473.238,247.258" class="er relationshipLine"/><path style="stroke: gray; fill: none;" marker-start="url(#ONE_OR_MORE_START)" marker-end="url(#ONLY_ONE_END)" d="M411.98,410.826L411.98,419.16C411.98,427.493,411.98,444.16,401.013,460.826C390.045,477.493,368.109,494.16,357.142,502.493L346.174,510.826" class="er relationshipLine"/><g transform="translate(20,20 )" id="entity-STUDENT-1b2391c8-f2ba-530c-95a9-6a5256c98860"><rect height="112.36719036102295" width="111.796875" y="0" x="0" class="er entityBox"/><text style="dominant-baseline: middle; text-anchor: middle; font-size: 12px;" transform="translate(55.8984375,12)" y="0" x="0" id="text-entity-STUDENT-1b2391c8-f2ba-530c-95a9-6a5256c98860" class="er entityLabel">STUDENT</text><rect height="22.091797828674316" width="35.75" y="24" x="0" class="er attributeBoxOdd"/><text style="dominant-baseline: middle; font-size: 10.2px;" transform="translate(5,35.04589891433716)" y="0" x="0" id="text-entity-STUDENT-1b2391c8-f2ba-530c-95a9-6a5256c98860-attr-1-type" class="er entityLabel">string</text><rect height="22.091797828674316" width="54.484375" y="24" x="35.75" class="er attributeBoxOdd"/><text style="dominant-baseline: middle; font-size: 10.2px;" transform="translate(40.75,35.04589891433716)" y="0" x="0" id="text-entity-STUDENT-1b2391c8-f2ba-530c-95a9-6a5256c98860-attr-1-name" class="er entityLabel">StudentID</text><rect height="22.091797828674316" width="21.5625" y="24" x="90.234375" class="er attributeBoxOdd"/><text style="dominant-baseline: middle; font-size: 10.2px;" transform="translate(95.234375,35.04589891433716)" y="0" x="0" id="text-entity-STUDENT-1b2391c8-f2ba-530c-95a9-6a5256c98860-attr-1-key" class="er entityLabel">PK</text><rect height="22.091797828674316" width="35.75" y="46.091797828674316" x="0" class="er attributeBoxEven"/><text style="dominant-baseline: middle; font-size: 10.2px;" transform="translate(5,57.137696743011475)" y="0" x="0" id="text-entity-STUDENT-1b2391c8-f2ba-530c-95a9-6a5256c98860-attr-2-type" class="er entityLabel">string</text><rect height="22.091797828674316" width="54.484375" y="46.091797828674316" x="35.75" class="er attributeBoxEven"/><text style="dominant-baseline: middle; font-size: 10.2px;" transform="translate(40.75,57.137696743011475)" y="0" x="0" id="text-entity-STUDENT-1b2391c8-f2ba-530c-95a9-6a5256c98860-attr-2-name" class="er entityLabel">Name</text><rect height="22.091797828674316" width="21.5625" y="46.091797828674316" x="90.234375" class="er attributeBoxEven"/><text style="dominant-baseline: middle; font-size: 10.2px;" transform="translate(95.234375,57.137696743011475)" y="0" x="0" id="text-entity-STUDENT-1b2391c8-f2ba-530c-95a9-6a5256c98860-attr-2-key" class="er entityLabel"/><rect height="22.091796875" width="35.75" y="68.18359565734863" x="0" class="er attributeBoxOdd"/><text style="dominant-baseline: middle; font-size: 10.2px;" transform="translate(5,79.22949409484863)" y="0" x="0" id="text-entity-STUDENT-1b2391c8-f2ba-530c-95a9-6a5256c98860-attr-3-type" class="er entityLabel">int</text><rect height="22.091796875" width="54.484375" y="68.18359565734863" x="35.75" class="er attributeBoxOdd"/><text style="dominant-baseline: middle; font-size: 10.2px;" transform="translate(40.75,79.22949409484863)" y="0" x="0" id="text-entity-STUDENT-1b2391c8-f2ba-530c-95a9-6a5256c98860-attr-3-name" class="er entityLabel">Age</text><rect height="22.091796875" width="21.5625" y="68.18359565734863" x="90.234375" class="er attributeBoxOdd"/><text style="dominant-baseline: middle; font-size: 10.2px;" transform="translate(95.234375,79.22949409484863)" y="0" x="0" id="text-entity-STUDENT-1b2391c8-f2ba-530c-95a9-6a5256c98860-attr-3-key" class="er entityLabel"/><rect height="22.091797828674316" width="35.75" y="90.27539253234863" x="0" class="er attributeBoxEven"/><text style="dominant-baseline: middle; font-size: 10.2px;" transform="translate(5,101.32129144668579)" y="0" x="0" id="text-entity-STUDENT-1b2391c8-f2ba-530c-95a9-6a5256c98860-attr-4-type" class="er entityLabel">string</text><rect height="22.091797828674316" width="54.484375" y="90.27539253234863" x="35.75" class="er attributeBoxEven"/><text style="dominant-baseline: middle; font-size: 10.2px;" transform="translate(40.75,101.32129144668579)" y="0" x="0" id="text-entity-STUDENT-1b2391c8-f2ba-530c-95a9-6a5256c98860-attr-4-name" class="er entityLabel">Email</text><rect height="22.091797828674316" width="21.5625" y="90.27539253234863" x="90.234375" class="er attributeBoxEven"/><text style="dominant-baseline: middle; font-size: 10.2px;" transform="translate(95.234375,101.32129144668579)" y="0" x="0" id="text-entity-STUDENT-1b2391c8-f2ba-530c-95a9-6a5256c98860-attr-4-key" class="er entityLabel"/></g><g transform="translate(20.1640625,287.5048828125 )" id="entity-ENROLLMENT-62af8dcb-2c1a-5fc1-bde0-a3db2031b7f8"><rect height="68.18359565734863" width="111.46875" y="0" x="0" class="er entityBox"/><text style="dominant-baseline: middle; text-anchor: middle; font-size: 12px;" transform="translate(55.734375,12)" y="0" x="0" id="text-entity-ENROLLMENT-62af8dcb-2c1a-5fc1-bde0-a3db2031b7f8" class="er entityLabel">ENROLLMENT</text><rect height="22.091797828674316" width="35.75" y="24" x="0" class="er attributeBoxOdd"/><text style="dominant-baseline: middle; font-size: 10.2px;" transform="translate(5,35.04589891433716)" y="0" x="0" id="text-entity-ENROLLMENT-62af8dcb-2c1a-5fc1-bde0-a3db2031b7f8-attr-1-type" class="er entityLabel">string</text><rect height="22.091797828674316" width="54.484375" y="24" x="35.75" class="er attributeBoxOdd"/><text style="dominant-baseline: middle; font-size: 10.2px;" transform="translate(40.75,35.04589891433716)" y="0" x="0" id="text-entity-ENROLLMENT-62af8dcb-2c1a-5fc1-bde0-a3db2031b7f8-attr-1-name" class="er entityLabel">StudentID</text><rect height="22.091797828674316" width="21.234375" y="24" x="90.234375" class="er attributeBoxOdd"/><text style="dominant-baseline: middle; font-size: 10.2px;" transform="translate(95.234375,35.04589891433716)" y="0" x="0" id="text-entity-ENROLLMENT-62af8dcb-2c1a-5fc1-bde0-a3db2031b7f8-attr-1-key" class="er entityLabel">FK</text><rect height="22.091797828674316" width="35.75" y="46.091797828674316" x="0" class="er attributeBoxEven"/><text style="dominant-baseline: middle; font-size: 10.2px;" transform="translate(5,57.137696743011475)" y="0" x="0" id="text-entity-ENROLLMENT-62af8dcb-2c1a-5fc1-bde0-a3db2031b7f8-attr-2-type" class="er entityLabel">string</text><rect height="22.091797828674316" width="54.484375" y="46.091797828674316" x="35.75" class="er attributeBoxEven"/><text style="dominant-baseline: middle; font-size: 10.2px;" transform="translate(40.75,57.137696743011475)" y="0" x="0" id="text-entity-ENROLLMENT-62af8dcb-2c1a-5fc1-bde0-a3db2031b7f8-attr-2-name" class="er entityLabel">CourseID</text><rect height="22.091797828674316" width="21.234375" y="46.091797828674316" x="90.234375" class="er attributeBoxEven"/><text style="dominant-baseline: middle; font-size: 10.2px;" transform="translate(95.234375,57.137696743011475)" y="0" x="0" id="text-entity-ENROLLMENT-62af8dcb-2c1a-5fc1-bde0-a3db2031b7f8-attr-2-key" class="er entityLabel">FK</text></g><g transform="translate(247.6953125,510.826171875 )" id="entity-COURSE-94e4e0ca-538f-5eec-8201-7eda2bcf423a"><rect height="68.18359565734863" width="107.21875" y="0" x="0" class="er entityBox"/><text style="dominant-baseline: middle; text-anchor: middle; font-size: 12px;" transform="translate(53.609375,12)" y="0" x="0" id="text-entity-COURSE-94e4e0ca-538f-5eec-8201-7eda2bcf423a" class="er entityLabel">COURSE</text><rect height="22.091797828674316" width="35.75" y="24" x="0" class="er attributeBoxOdd"/><text style="dominant-baseline: middle; font-size: 10.2px;" transform="translate(5,35.04589891433716)" y="0" x="0" id="text-entity-COURSE-94e4e0ca-538f-5eec-8201-7eda2bcf423a-attr-1-type" class="er entityLabel">string</text><rect height="22.091797828674316" width="49.90625" y="24" x="35.75" class="er attributeBoxOdd"/><text style="dominant-baseline: middle; font-size: 10.2px;" transform="translate(40.75,35.04589891433716)" y="0" x="0" id="text-entity-COURSE-94e4e0ca-538f-5eec-8201-7eda2bcf423a-attr-1-name" class="er entityLabel">CourseID</text><rect height="22.091797828674316" width="21.5625" y="24" x="85.65625" class="er attributeBoxOdd"/><text style="dominant-baseline: middle; font-size: 10.2px;" transform="translate(90.65625,35.04589891433716)" y="0" x="0" id="text-entity-COURSE-94e4e0ca-538f-5eec-8201-7eda2bcf423a-attr-1-key" class="er entityLabel">PK</text><rect height="22.091797828674316" width="35.75" y="46.091797828674316" x="0" class="er attributeBoxEven"/><text style="dominant-baseline: middle; font-size: 10.2px;" transform="translate(5,57.137696743011475)" y="0" x="0" id="text-entity-COURSE-94e4e0ca-538f-5eec-8201-7eda2bcf423a-attr-2-type" class="er entityLabel">string</text><rect height="22.091797828674316" width="49.90625" y="46.091797828674316" x="35.75" class="er attributeBoxEven"/><text style="dominant-baseline: middle; font-size: 10.2px;" transform="translate(40.75,57.137696743011475)" y="0" x="0" id="text-entity-COURSE-94e4e0ca-538f-5eec-8201-7eda2bcf423a-attr-2-name" class="er entityLabel">Subject</text><rect height="22.091797828674316" width="21.5625" y="46.091797828674316" x="85.65625" class="er attributeBoxEven"/><text style="dominant-baseline: middle; font-size: 10.2px;" transform="translate(90.65625,57.137696743011475)" y="0" x="0" id="text-entity-COURSE-94e4e0ca-538f-5eec-8201-7eda2bcf423a-attr-2-key" class="er entityLabel"/></g><g transform="translate(462.703125,20 )" id="entity-CLASSROOM-8fdc250a-751f-532f-a673-e72c985a85d5"><rect height="112.36719036102295" width="128.015625" y="0" x="0" class="er entityBox"/><text style="dominant-baseline: middle; text-anchor: middle; font-size: 12px;" transform="translate(64.0078125,12)" y="0" x="0" id="text-entity-CLASSROOM-8fdc250a-751f-532f-a673-e72c985a85d5" class="er entityLabel">CLASSROOM</text><rect height="22.091797828674316" width="35.75" y="24" x="0" class="er attributeBoxOdd"/><text style="dominant-baseline: middle; font-size: 10.2px;" transform="translate(5,35.04589891433716)" y="0" x="0" id="text-entity-CLASSROOM-8fdc250a-751f-532f-a673-e72c985a85d5-attr-1-type" class="er entityLabel">string</text><rect height="22.091797828674316" width="70.703125" y="24" x="35.75" class="er attributeBoxOdd"/><text style="dominant-baseline: middle; font-size: 10.2px;" transform="translate(40.75,35.04589891433716)" y="0" x="0" id="text-entity-CLASSROOM-8fdc250a-751f-532f-a673-e72c985a85d5-attr-1-name" class="er entityLabel">ClassroomID</text><rect height="22.091797828674316" width="21.5625" y="24" x="106.453125" class="er attributeBoxOdd"/><text style="dominant-baseline: middle; font-size: 10.2px;" transform="translate(111.453125,35.04589891433716)" y="0" x="0" id="text-entity-CLASSROOM-8fdc250a-751f-532f-a673-e72c985a85d5-attr-1-key" class="er entityLabel">PK</text><rect height="22.091797828674316" width="35.75" y="46.091797828674316" x="0" class="er attributeBoxEven"/><text style="dominant-baseline: middle; font-size: 10.2px;" transform="translate(5,57.137696743011475)" y="0" x="0" id="text-entity-CLASSROOM-8fdc250a-751f-532f-a673-e72c985a85d5-attr-2-type" class="er entityLabel">string</text><rect height="22.091797828674316" width="70.703125" y="46.091797828674316" x="35.75" class="er attributeBoxEven"/><text style="dominant-baseline: middle; font-size: 10.2px;" transform="translate(40.75,57.137696743011475)" y="0" x="0" id="text-entity-CLASSROOM-8fdc250a-751f-532f-a673-e72c985a85d5-attr-2-name" class="er entityLabel">RoomNumber</text><rect height="22.091797828674316" width="21.5625" y="46.091797828674316" x="106.453125" class="er attributeBoxEven"/><text style="dominant-baseline: middle; font-size: 10.2px;" transform="translate(111.453125,57.137696743011475)" y="0" x="0" id="text-entity-CLASSROOM-8fdc250a-751f-532f-a673-e72c985a85d5-attr-2-key" class="er entityLabel"/><rect height="22.091797828674316" width="35.75" y="68.18359565734863" x="0" class="er attributeBoxOdd"/><text style="dominant-baseline: middle; font-size: 10.2px;" transform="translate(5,79.22949457168579)" y="0" x="0" id="text-entity-CLASSROOM-8fdc250a-751f-532f-a673-e72c985a85d5-attr-3-type" class="er entityLabel">string</text><rect height="22.091797828674316" width="70.703125" y="68.18359565734863" x="35.75" class="er attributeBoxOdd"/><text style="dominant-baseline: middle; font-size: 10.2px;" transform="translate(40.75,79.22949457168579)" y="0" x="0" id="text-entity-CLASSROOM-8fdc250a-751f-532f-a673-e72c985a85d5-attr-3-name" class="er entityLabel">Building</text><rect height="22.091797828674316" width="21.5625" y="68.18359565734863" x="106.453125" class="er attributeBoxOdd"/><text style="dominant-baseline: middle; font-size: 10.2px;" transform="translate(111.453125,79.22949457168579)" y="0" x="0" id="text-entity-CLASSROOM-8fdc250a-751f-532f-a673-e72c985a85d5-attr-3-key" class="er entityLabel"/><rect height="22.091796875" width="35.75" y="90.27539348602295" x="0" class="er attributeBoxEven"/><text style="dominant-baseline: middle; font-size: 10.2px;" transform="translate(5,101.32129192352295)" y="0" x="0" id="text-entity-CLASSROOM-8fdc250a-751f-532f-a673-e72c985a85d5-attr-4-type" class="er entityLabel">int</text><rect height="22.091796875" width="70.703125" y="90.27539348602295" x="35.75" class="er attributeBoxEven"/><text style="dominant-baseline: middle; font-size: 10.2px;" transform="translate(40.75,101.32129192352295)" y="0" x="0" id="text-entity-CLASSROOM-8fdc250a-751f-532f-a673-e72c985a85d5-attr-4-name" class="er entityLabel">Capacity</text><rect height="22.091796875" width="21.5625" y="90.27539348602295" x="106.453125" class="er attributeBoxEven"/><text style="dominant-baseline: middle; font-size: 10.2px;" transform="translate(111.453125,101.32129192352295)" y="0" x="0" id="text-entity-CLASSROOM-8fdc250a-751f-532f-a673-e72c985a85d5-attr-4-key" class="er entityLabel"/></g><g transform="translate(231.796875,20 )" id="entity-TEACHER-4e404b36-a1a9-5607-9716-3c3d0629ba29"><rect height="112.36719131469727" width="130.90625" y="0" x="0" class="er entityBox"/><text style="dominant-baseline: middle; text-anchor: middle; font-size: 12px;" transform="translate(65.453125,12)" y="0" x="0" id="text-entity-TEACHER-4e404b36-a1a9-5607-9716-3c3d0629ba29" class="er entityLabel">TEACHER</text><rect height="22.091797828674316" width="35.75" y="24" x="0" class="er attributeBoxOdd"/><text style="dominant-baseline: middle; font-size: 10.2px;" transform="translate(5,35.04589891433716)" y="0" x="0" id="text-entity-TEACHER-4e404b36-a1a9-5607-9716-3c3d0629ba29-attr-1-type" class="er entityLabel">string</text><rect height="22.091797828674316" width="73.59375" y="24" x="35.75" class="er attributeBoxOdd"/><text style="dominant-baseline: middle; font-size: 10.2px;" transform="translate(40.75,35.04589891433716)" y="0" x="0" id="text-entity-TEACHER-4e404b36-a1a9-5607-9716-3c3d0629ba29-attr-1-name" class="er entityLabel">TeacherID</text><rect height="22.091797828674316" width="21.5625" y="24" x="109.34375" class="er attributeBoxOdd"/><text style="dominant-baseline: middle; font-size: 10.2px;" transform="translate(114.34375,35.04589891433716)" y="0" x="0" id="text-entity-TEACHER-4e404b36-a1a9-5607-9716-3c3d0629ba29-attr-1-key" class="er entityLabel">PK</text><rect height="22.091797828674316" width="35.75" y="46.091797828674316" x="0" class="er attributeBoxEven"/><text style="dominant-baseline: middle; font-size: 10.2px;" transform="translate(5,57.137696743011475)" y="0" x="0" id="text-entity-TEACHER-4e404b36-a1a9-5607-9716-3c3d0629ba29-attr-2-type" class="er entityLabel">string</text><rect height="22.091797828674316" width="73.59375" y="46.091797828674316" x="35.75" class="er attributeBoxEven"/><text style="dominant-baseline: middle; font-size: 10.2px;" transform="translate(40.75,57.137696743011475)" y="0" x="0" id="text-entity-TEACHER-4e404b36-a1a9-5607-9716-3c3d0629ba29-attr-2-name" class="er entityLabel">Name</text><rect height="22.091797828674316" width="21.5625" y="46.091797828674316" x="109.34375" class="er attributeBoxEven"/><text style="dominant-baseline: middle; font-size: 10.2px;" transform="translate(114.34375,57.137696743011475)" y="0" x="0" id="text-entity-TEACHER-4e404b36-a1a9-5607-9716-3c3d0629ba29-attr-2-key" class="er entityLabel"/><rect height="22.091797828674316" width="35.75" y="68.18359565734863" x="0" class="er attributeBoxOdd"/><text style="dominant-baseline: middle; font-size: 10.2px;" transform="translate(5,79.22949457168579)" y="0" x="0" id="text-entity-TEACHER-4e404b36-a1a9-5607-9716-3c3d0629ba29-attr-3-type" class="er entityLabel">string</text><rect height="22.091797828674316" width="73.59375" y="68.18359565734863" x="35.75" class="er attributeBoxOdd"/><text style="dominant-baseline: middle; font-size: 10.2px;" transform="translate(40.75,79.22949457168579)" y="0" x="0" id="text-entity-TEACHER-4e404b36-a1a9-5607-9716-3c3d0629ba29-attr-3-name" class="er entityLabel">Email</text><rect height="22.091797828674316" width="21.5625" y="68.18359565734863" x="109.34375" class="er attributeBoxOdd"/><text style="dominant-baseline: middle; font-size: 10.2px;" transform="translate(114.34375,79.22949457168579)" y="0" x="0" id="text-entity-TEACHER-4e404b36-a1a9-5607-9716-3c3d0629ba29-attr-3-key" class="er entityLabel"/><rect height="22.091797828674316" width="35.75" y="90.27539348602295" x="0" class="er attributeBoxEven"/><text style="dominant-baseline: middle; font-size: 10.2px;" transform="translate(5,101.32129240036011)" y="0" x="0" id="text-entity-TEACHER-4e404b36-a1a9-5607-9716-3c3d0629ba29-attr-4-type" class="er entityLabel">string</text><rect height="22.091797828674316" width="73.59375" y="90.27539348602295" x="35.75" class="er attributeBoxEven"/><text style="dominant-baseline: middle; font-size: 10.2px;" transform="translate(40.75,101.32129240036011)" y="0" x="0" id="text-entity-TEACHER-4e404b36-a1a9-5607-9716-3c3d0629ba29-attr-4-name" class="er entityLabel">Specialization</text><rect height="22.091797828674316" width="21.5625" y="90.27539348602295" x="109.34375" class="er attributeBoxEven"/><text style="dominant-baseline: middle; font-size: 10.2px;" transform="translate(114.34375,101.32129240036011)" y="0" x="0" id="text-entity-TEACHER-4e404b36-a1a9-5607-9716-3c3d0629ba29-attr-4-key" class="er entityLabel"/></g><g transform="translate(350.72265625,232.3671875 )" id="entity-LESSON-1c18308b-2959-507f-9a4b-2d92d75d0ce3"><rect height="178.45898914337158" width="122.515625" y="0" x="0" class="er entityBox"/><text style="dominant-baseline: middle; text-anchor: middle; font-size: 12px;" transform="translate(61.2578125,12)" y="0" x="0" id="text-entity-LESSON-1c18308b-2959-507f-9a4b-2d92d75d0ce3" class="er entityLabel">LESSON</text><rect height="22.091797828674316" width="35.75" y="24" x="0" class="er attributeBoxOdd"/><text style="dominant-baseline: middle; font-size: 10.2px;" transform="translate(5,35.04589891433716)" y="0" x="0" id="text-entity-LESSON-1c18308b-2959-507f-9a4b-2d92d75d0ce3-attr-1-type" class="er entityLabel">string</text><rect height="22.091797828674316" width="65.203125" y="24" x="35.75" class="er attributeBoxOdd"/><text style="dominant-baseline: middle; font-size: 10.2px;" transform="translate(40.75,35.04589891433716)" y="0" x="0" id="text-entity-LESSON-1c18308b-2959-507f-9a4b-2d92d75d0ce3-attr-1-name" class="er entityLabel">LessonID</text><rect height="22.091797828674316" width="21.5625" y="24" x="100.953125" class="er attributeBoxOdd"/><text style="dominant-baseline: middle; font-size: 10.2px;" transform="translate(105.953125,35.04589891433716)" y="0" x="0" id="text-entity-LESSON-1c18308b-2959-507f-9a4b-2d92d75d0ce3-attr-1-key" class="er entityLabel">PK</text><rect height="22.091797828674316" width="35.75" y="46.091797828674316" x="0" class="er attributeBoxEven"/><text style="dominant-baseline: middle; font-size: 10.2px;" transform="translate(5,57.137696743011475)" y="0" x="0" id="text-entity-LESSON-1c18308b-2959-507f-9a4b-2d92d75d0ce3-attr-2-type" class="er entityLabel">string</text><rect height="22.091797828674316" width="65.203125" y="46.091797828674316" x="35.75" class="er attributeBoxEven"/><text style="dominant-baseline: middle; font-size: 10.2px;" transform="translate(40.75,57.137696743011475)" y="0" x="0" id="text-entity-LESSON-1c18308b-2959-507f-9a4b-2d92d75d0ce3-attr-2-name" class="er entityLabel">CourseID</text><rect height="22.091797828674316" width="21.5625" y="46.091797828674316" x="100.953125" class="er attributeBoxEven"/><text style="dominant-baseline: middle; font-size: 10.2px;" transform="translate(105.953125,57.137696743011475)" y="0" x="0" id="text-entity-LESSON-1c18308b-2959-507f-9a4b-2d92d75d0ce3-attr-2-key" class="er entityLabel">FK</text><rect height="22.091797828674316" width="35.75" y="68.18359565734863" x="0" class="er attributeBoxOdd"/><text style="dominant-baseline: middle; font-size: 10.2px;" transform="translate(5,79.22949457168579)" y="0" x="0" id="text-entity-LESSON-1c18308b-2959-507f-9a4b-2d92d75d0ce3-attr-3-type" class="er entityLabel">string</text><rect height="22.091797828674316" width="65.203125" y="68.18359565734863" x="35.75" class="er attributeBoxOdd"/><text style="dominant-baseline: middle; font-size: 10.2px;" transform="translate(40.75,79.22949457168579)" y="0" x="0" id="text-entity-LESSON-1c18308b-2959-507f-9a4b-2d92d75d0ce3-attr-3-name" class="er entityLabel">Weekday</text><rect height="22.091797828674316" width="21.5625" y="68.18359565734863" x="100.953125" class="er attributeBoxOdd"/><text style="dominant-baseline: middle; font-size: 10.2px;" transform="translate(105.953125,79.22949457168579)" y="0" x="0" id="text-entity-LESSON-1c18308b-2959-507f-9a4b-2d92d75d0ce3-attr-3-key" class="er entityLabel"/><rect height="22" width="35.75" y="90.27539348602295" x="0" class="er attributeBoxEven"/><text style="dominant-baseline: middle; font-size: 10.2px;" transform="translate(5,101.27539348602295)" y="0" x="0" id="text-entity-LESSON-1c18308b-2959-507f-9a4b-2d92d75d0ce3-attr-4-type" class="er entityLabel">time</text><rect height="22" width="65.203125" y="90.27539348602295" x="35.75" class="er attributeBoxEven"/><text style="dominant-baseline: middle; font-size: 10.2px;" transform="translate(40.75,101.27539348602295)" y="0" x="0" id="text-entity-LESSON-1c18308b-2959-507f-9a4b-2d92d75d0ce3-attr-4-name" class="er entityLabel">Time</text><rect height="22" width="21.5625" y="90.27539348602295" x="100.953125" class="er attributeBoxEven"/><text style="dominant-baseline: middle; font-size: 10.2px;" transform="translate(105.953125,101.27539348602295)" y="0" x="0" id="text-entity-LESSON-1c18308b-2959-507f-9a4b-2d92d75d0ce3-attr-4-key" class="er entityLabel"/><rect height="22" width="35.75" y="112.27539348602295" x="0" class="er attributeBoxOdd"/><text style="dominant-baseline: middle; font-size: 10.2px;" transform="translate(5,123.27539348602295)" y="0" x="0" id="text-entity-LESSON-1c18308b-2959-507f-9a4b-2d92d75d0ce3-attr-5-type" class="er entityLabel">int</text><rect height="22" width="65.203125" y="112.27539348602295" x="35.75" class="er attributeBoxOdd"/><text style="dominant-baseline: middle; font-size: 10.2px;" transform="translate(40.75,123.27539348602295)" y="0" x="0" id="text-entity-LESSON-1c18308b-2959-507f-9a4b-2d92d75d0ce3-attr-5-name" class="er entityLabel">Duration</text><rect height="22" width="21.5625" y="112.27539348602295" x="100.953125" class="er attributeBoxOdd"/><text style="dominant-baseline: middle; font-size: 10.2px;" transform="translate(105.953125,123.27539348602295)" y="0" x="0" id="text-entity-LESSON-1c18308b-2959-507f-9a4b-2d92d75d0ce3-attr-5-key" class="er entityLabel"/><rect height="22.091797828674316" width="35.75" y="134.27539348602295" x="0" class="er attributeBoxEven"/><text style="dominant-baseline: middle; font-size: 10.2px;" transform="translate(5,145.3212924003601)" y="0" x="0" id="text-entity-LESSON-1c18308b-2959-507f-9a4b-2d92d75d0ce3-attr-6-type" class="er entityLabel">string</text><rect height="22.091797828674316" width="65.203125" y="134.27539348602295" x="35.75" class="er attributeBoxEven"/><text style="dominant-baseline: middle; font-size: 10.2px;" transform="translate(40.75,145.3212924003601)" y="0" x="0" id="text-entity-LESSON-1c18308b-2959-507f-9a4b-2d92d75d0ce3-attr-6-name" class="er entityLabel">ClassroomID</text><rect height="22.091797828674316" width="21.5625" y="134.27539348602295" x="100.953125" class="er attributeBoxEven"/><text style="dominant-baseline: middle; font-size: 10.2px;" transform="translate(105.953125,145.3212924003601)" y="0" x="0" id="text-entity-LESSON-1c18308b-2959-507f-9a4b-2d92d75d0ce3-attr-6-key" class="er entityLabel">FK</text><rect height="22.091797828674316" width="35.75" y="156.36719131469727" x="0" class="er attributeBoxOdd"/><text style="dominant-baseline: middle; font-size: 10.2px;" transform="translate(5,167.41309022903442)" y="0" x="0" id="text-entity-LESSON-1c18308b-2959-507f-9a4b-2d92d75d0ce3-attr-7-type" class="er entityLabel">string</text><rect height="22.091797828674316" width="65.203125" y="156.36719131469727" x="35.75" class="er attributeBoxOdd"/><text style="dominant-baseline: middle; font-size: 10.2px;" transform="translate(40.75,167.41309022903442)" y="0" x="0" id="text-entity-LESSON-1c18308b-2959-507f-9a4b-2d92d75d0ce3-attr-7-name" class="er entityLabel">TeacherID</text><rect height="22.091797828674316" width="21.5625" y="156.36719131469727" x="100.953125" class="er attributeBoxOdd"/><text style="dominant-baseline: middle; font-size: 10.2px;" transform="translate(105.953125,167.41309022903442)" y="0" x="0" id="text-entity-LESSON-1c18308b-2959-507f-9a4b-2d92d75d0ce3-attr-7-key" class="er entityLabel">FK</text></g><rect height="14" width="56.421875" y="202.93600463867188" x="47.68706512451172" class="er relationshipLabelBox"/><text style="text-anchor: middle; dominant-baseline: middle; font-size: 12px;" y="209.93600463867188" x="75.89800262451172" id="rel1" class="er relationshipLabel">is enrolled</text><rect height="14" width="78.265625" y="463.98297119140625" x="86.95276641845703" class="er relationshipLabelBox"/><text style="text-anchor: middle; dominant-baseline: middle; font-size: 12px;" y="470.98297119140625" x="126.08557891845703" id="rel2" class="er relationshipLabel">enrollment for</text><rect height="14" width="41.515625" y="188.05992126464844" x="290.80712890625" class="er relationshipLabelBox"/><text style="text-anchor: middle; dominant-baseline: middle; font-size: 12px;" y="195.05992126464844" x="311.56494140625" id="rel3" class="er relationshipLabel">teaches</text><rect height="14" width="36.921875" y="188.05992126464844" x="493.9351806640625" class="er relationshipLabelBox"/><text style="text-anchor: middle; dominant-baseline: middle; font-size: 12px;" y="195.05992126464844" x="512.3961181640625" id="rel4" class="er relationshipLabel">held in</text><rect height="14" width="51.953125" y="462.7277526855469" x="368.2185363769531" class="er relationshipLabelBox"/><text style="text-anchor: middle; dominant-baseline: middle; font-size: 12px;" y="469.7277526855469" x="394.1950988769531" id="rel5" class="er relationshipLabel">lesson for</text></svg>