<svg aria-roledescription="er" role="graphics-document document" viewBox="0 0 765.0859375 789.46875" style="max-width: 765.086px; background-color: white;" xmlns:xlink="http://www.w3.org/1999/xlink" xmlns="http://www.w3.org/2000/svg" width="100%" id="my-svg"><style>#my-svg{font-family:"trebuchet ms",verdana,arial,sans-serif;font-size:16px;fill:#333;}#my-svg .error-icon{fill:#552222;}#my-svg .error-text{fill:#552222;stroke:#552222;}#my-svg .edge-thickness-normal{stroke-width:1px;}#my-svg .edge-thickness-thick{stroke-width:3.5px;}#my-svg .edge-pattern-solid{stroke-dasharray:0;}#my-svg .edge-thickness-invisible{stroke-width:0;fill:none;}#my-svg .edge-pattern-dashed{stroke-dasharray:3;}#my-svg .edge-pattern-dotted{stroke-dasharray:2;}#my-svg .marker{fill:#333333;stroke:#333333;}#my-svg .marker.cross{stroke:#333333;}#my-svg svg{font-family:"trebuchet ms",verdana,arial,sans-serif;font-size:16px;}#my-svg p{margin:0;}#my-svg .entityBox{fill:#ECECFF;stroke:#9370DB;}#my-svg .attributeBoxOdd{fill:#ffffff;stroke:#9370DB;}#my-svg .attributeBoxEven{fill:#f2f2f2;stroke:#9370DB;}#my-svg .relationshipLabelBox{fill:hsl(80, 100%, 96.2745098039%);opacity:0.7;background-color:hsl(80, 100%, 96.2745098039%);}#my-svg .relationshipLabelBox rect{opacity:0.5;}#my-svg .relationshipLine{stroke:#333333;}#my-svg .entityTitleText{text-anchor:middle;font-size:18px;fill:#333;}#my-svg #MD_PARENT_START{fill:#f5f5f5!important;stroke:#333333!important;stroke-width:1;}#my-svg #MD_PARENT_END{fill:#f5f5f5!important;stroke:#333333!important;stroke-width:1;}#my-svg :root{--mermaid-font-family:"trebuchet ms",verdana,arial,sans-serif;}</style><g/><defs><marker orient="auto" markerHeight="240" markerWidth="190" refY="7" refX="0" id="MD_PARENT_START"><path d="M 18,7 L9,13 L1,7 L9,1 Z"/></marker></defs><defs><marker orient="auto" markerHeight="28" markerWidth="20" refY="7" refX="19" id="MD_PARENT_END"><path d="M 18,7 L9,13 L1,7 L9,1 Z"/></marker></defs><defs><marker orient="auto" markerHeight="18" markerWidth="18" refY="9" refX="0" id="ONLY_ONE_START"><path d="M9,0 L9,18 M15,0 L15,18" fill="none" stroke="gray"/></marker></defs><defs><marker orient="auto" markerHeight="18" markerWidth="18" refY="9" refX="18" id="ONLY_ONE_END"><path d="M3,0 L3,18 M9,0 L9,18" fill="none" stroke="gray"/></marker></defs><defs><marker orient="auto" markerHeight="18" markerWidth="30" refY="9" refX="0" id="ZERO_OR_ONE_START"><circle r="6" cy="9" cx="21" fill="white" stroke="gray"/><path d="M9,0 L9,18" fill="none" stroke="gray"/></marker></defs><defs><marker orient="auto" markerHeight="18" markerWidth="30" refY="9" refX="30" id="ZERO_OR_ONE_END"><circle r="6" cy="9" cx="9" fill="white" stroke="gray"/><path d="M21,0 L21,18" fill="none" stroke="gray"/></marker></defs><defs><marker orient="auto" markerHeight="36" markerWidth="45" refY="18" refX="18" id="ONE_OR_MORE_START"><path d="M0,18 Q 18,0 36,18 Q 18,36 0,18 M42,9 L42,27" fill="none" stroke="gray"/></marker></defs><defs><marker orient="auto" markerHeight="36" markerWidth="45" refY="18" refX="27" id="ONE_OR_MORE_END"><path d="M3,9 L3,27 M9,18 Q27,0 45,18 Q27,36 9,18" fill="none" stroke="gray"/></marker></defs><defs><marker orient="auto" markerHeight="36" markerWidth="57" refY="18" refX="18" id="ZERO_OR_MORE_START"><circle r="6" cy="18" cx="48" fill="white" stroke="gray"/><path d="M0,18 Q18,0 36,18 Q18,36 0,18" fill="none" stroke="gray"/></marker></defs><defs><marker orient="auto" markerHeight="36" markerWidth="57" refY="18" refX="39" id="ZERO_OR_MORE_END"><circle r="6" cy="18" cx="9" fill="white" stroke="gray"/><path d="M21,18 Q39,0 57,18 Q39,36 21,18" fill="none" stroke="gray"/></marker></defs><path style="stroke: gray; fill: none;" marker-start="url(#ONLY_ONE_START)" marker-end="url(#ONLY_ONE_END)" d="M255.398,137.402L225.645,152.26C195.891,167.118,136.383,196.834,106.629,221.867C76.875,246.899,76.875,267.248,76.875,277.422L76.875,287.597" class="er relationshipLine"/><path style="stroke: gray; fill: none;" marker-start="url(#ONLY_ONE_START)" marker-end="url(#ZERO_OR_MORE_END)" d="M272.729,176.551L266.232,184.884C259.736,193.217,246.743,209.884,240.246,235.915C233.75,261.945,233.75,297.34,233.75,332.734C233.75,368.129,233.75,403.523,238.13,429.554C242.509,455.585,251.268,472.251,255.648,480.585L260.028,488.918" class="er relationshipLine"/><path style="stroke: gray; fill: none;" marker-start="url(#ONLY_ONE_START)" marker-end="url(#ZERO_OR_MORE_END)" d="M283.75,579.193L283.75,587.527C283.75,595.86,283.75,612.527,292.673,629.193C301.596,645.86,319.443,662.527,328.366,670.86L337.289,679.193" class="er relationshipLine"/><path style="stroke: gray; fill: none;" marker-start="url(#ONLY_ONE_START)" marker-end="url(#ZERO_OR_MORE_END)" d="M487.492,579.193L487.492,587.527C487.492,595.86,487.492,612.527,478.569,629.193C469.646,645.86,451.8,662.527,442.877,670.86L433.953,679.193" class="er relationshipLine"/><path style="stroke: gray; fill: none;" marker-start="url(#ONLY_ONE_START)" marker-end="url(#ZERO_OR_MORE_END)" d="M412.102,163.637L424.671,174.122C437.241,184.608,462.38,205.579,474.95,224.398C487.52,243.217,487.52,259.884,487.52,268.217L487.52,276.551" class="er relationshipLine"/><path style="stroke: gray; fill: none;" marker-start="url(#ONLY_ONE_START)" marker-end="url(#ONLY_ONE_END)" d="M461.064,388.918L457.14,397.251C453.216,405.585,445.368,422.251,424.772,440.899C404.177,459.547,370.835,480.176,354.163,490.491L337.492,500.805" class="er relationshipLine"/><path style="stroke: gray; fill: none;" marker-start="url(#ONLY_ONE_START)" marker-end="url(#ZERO_OR_MORE_END)" d="M412.102,122.937L466.966,140.206C521.831,157.475,631.56,192.013,686.424,226.979C741.289,261.945,741.289,297.34,741.289,332.734C741.289,368.129,741.289,403.523,736.909,429.554C732.53,455.585,723.771,472.251,719.391,480.585L715.011,488.918" class="er relationshipLine"/><path style="stroke: gray; fill: none;" marker-start="url(#ONLY_ONE_START)" marker-end="url(#ZERO_OR_MORE_END)" d="M513.975,388.918L517.899,397.251C521.823,405.585,529.671,422.251,550.258,440.894C570.844,459.536,604.168,480.154,620.83,490.462L637.492,500.771" class="er relationshipLine"/><g transform="translate(255.3984375,20 )" id="entity-users-33ae1e26-be31-5c1d-bf65-e859e9d0308e"><rect height="156.5507869720459" width="156.703125" y="0" x="0" class="er entityBox"/><text style="dominant-baseline: middle; text-anchor: middle; font-size: 12px;" transform="translate(78.3515625,12)" y="0" x="0" id="text-entity-users-33ae1e26-be31-5c1d-bf65-e859e9d0308e" class="er entityLabel">users</text><rect height="22.091797828674316" width="42.75" y="24" x="0" class="er attributeBoxOdd"/><text style="dominant-baseline: middle; font-size: 10.2px;" transform="translate(5,35.04589891433716)" y="0" x="0" id="text-entity-users-33ae1e26-be31-5c1d-bf65-e859e9d0308e-attr-1-type" class="er entityLabel">integer</text><rect height="22.091797828674316" width="92.390625" y="24" x="42.75" class="er attributeBoxOdd"/><text style="dominant-baseline: middle; font-size: 10.2px;" transform="translate(47.75,35.04589891433716)" y="0" x="0" id="text-entity-users-33ae1e26-be31-5c1d-bf65-e859e9d0308e-attr-1-name" class="er entityLabel">id</text><rect height="22.091797828674316" width="21.5625" y="24" x="135.140625" class="er attributeBoxOdd"/><text style="dominant-baseline: middle; font-size: 10.2px;" transform="translate(140.140625,35.04589891433716)" y="0" x="0" id="text-entity-users-33ae1e26-be31-5c1d-bf65-e859e9d0308e-attr-1-key" class="er entityLabel">PK</text><rect height="22.091797828674316" width="42.75" y="46.091797828674316" x="0" class="er attributeBoxEven"/><text style="dominant-baseline: middle; font-size: 10.2px;" transform="translate(5,57.137696743011475)" y="0" x="0" id="text-entity-users-33ae1e26-be31-5c1d-bf65-e859e9d0308e-attr-2-type" class="er entityLabel">string</text><rect height="22.091797828674316" width="92.390625" y="46.091797828674316" x="42.75" class="er attributeBoxEven"/><text style="dominant-baseline: middle; font-size: 10.2px;" transform="translate(47.75,57.137696743011475)" y="0" x="0" id="text-entity-users-33ae1e26-be31-5c1d-bf65-e859e9d0308e-attr-2-name" class="er entityLabel">name</text><rect height="22.091797828674316" width="21.5625" y="46.091797828674316" x="135.140625" class="er attributeBoxEven"/><text style="dominant-baseline: middle; font-size: 10.2px;" transform="translate(140.140625,57.137696743011475)" y="0" x="0" id="text-entity-users-33ae1e26-be31-5c1d-bf65-e859e9d0308e-attr-2-key" class="er entityLabel"/><rect height="22.091797828674316" width="42.75" y="68.18359565734863" x="0" class="er attributeBoxOdd"/><text style="dominant-baseline: middle; font-size: 10.2px;" transform="translate(5,79.22949457168579)" y="0" x="0" id="text-entity-users-33ae1e26-be31-5c1d-bf65-e859e9d0308e-attr-3-type" class="er entityLabel">string</text><rect height="22.091797828674316" width="92.390625" y="68.18359565734863" x="42.75" class="er attributeBoxOdd"/><text style="dominant-baseline: middle; font-size: 10.2px;" transform="translate(47.75,79.22949457168579)" y="0" x="0" id="text-entity-users-33ae1e26-be31-5c1d-bf65-e859e9d0308e-attr-3-name" class="er entityLabel">email</text><rect height="22.091797828674316" width="21.5625" y="68.18359565734863" x="135.140625" class="er attributeBoxOdd"/><text style="dominant-baseline: middle; font-size: 10.2px;" transform="translate(140.140625,79.22949457168579)" y="0" x="0" id="text-entity-users-33ae1e26-be31-5c1d-bf65-e859e9d0308e-attr-3-key" class="er entityLabel"/><rect height="22.091797828674316" width="42.75" y="90.27539348602295" x="0" class="er attributeBoxEven"/><text style="dominant-baseline: middle; font-size: 10.2px;" transform="translate(5,101.32129240036011)" y="0" x="0" id="text-entity-users-33ae1e26-be31-5c1d-bf65-e859e9d0308e-attr-4-type" class="er entityLabel">string</text><rect height="22.091797828674316" width="92.390625" y="90.27539348602295" x="42.75" class="er attributeBoxEven"/><text style="dominant-baseline: middle; font-size: 10.2px;" transform="translate(47.75,101.32129240036011)" y="0" x="0" id="text-entity-users-33ae1e26-be31-5c1d-bf65-e859e9d0308e-attr-4-name" class="er entityLabel">crypted_password</text><rect height="22.091797828674316" width="21.5625" y="90.27539348602295" x="135.140625" class="er attributeBoxEven"/><text style="dominant-baseline: middle; font-size: 10.2px;" transform="translate(140.140625,101.32129240036011)" y="0" x="0" id="text-entity-users-33ae1e26-be31-5c1d-bf65-e859e9d0308e-attr-4-key" class="er entityLabel"/><rect height="22.091797828674316" width="42.75" y="112.36719131469727" x="0" class="er attributeBoxOdd"/><text style="dominant-baseline: middle; font-size: 10.2px;" transform="translate(5,123.41309022903442)" y="0" x="0" id="text-entity-users-33ae1e26-be31-5c1d-bf65-e859e9d0308e-attr-5-type" class="er entityLabel">string</text><rect height="22.091797828674316" width="92.390625" y="112.36719131469727" x="42.75" class="er attributeBoxOdd"/><text style="dominant-baseline: middle; font-size: 10.2px;" transform="translate(47.75,123.41309022903442)" y="0" x="0" id="text-entity-users-33ae1e26-be31-5c1d-bf65-e859e9d0308e-attr-5-name" class="er entityLabel">salt</text><rect height="22.091797828674316" width="21.5625" y="112.36719131469727" x="135.140625" class="er attributeBoxOdd"/><text style="dominant-baseline: middle; font-size: 10.2px;" transform="translate(140.140625,123.41309022903442)" y="0" x="0" id="text-entity-users-33ae1e26-be31-5c1d-bf65-e859e9d0308e-attr-5-key" class="er entityLabel"/><rect height="22.091797828674316" width="42.75" y="134.45898914337158" x="0" class="er attributeBoxEven"/><text style="dominant-baseline: middle; font-size: 10.2px;" transform="translate(5,145.50488805770874)" y="0" x="0" id="text-entity-users-33ae1e26-be31-5c1d-bf65-e859e9d0308e-attr-6-type" class="er entityLabel">integer</text><rect height="22.091797828674316" width="92.390625" y="134.45898914337158" x="42.75" class="er attributeBoxEven"/><text style="dominant-baseline: middle; font-size: 10.2px;" transform="translate(47.75,145.50488805770874)" y="0" x="0" id="text-entity-users-33ae1e26-be31-5c1d-bf65-e859e9d0308e-attr-6-name" class="er entityLabel">role</text><rect height="22.091797828674316" width="21.5625" y="134.45898914337158" x="135.140625" class="er attributeBoxEven"/><text style="dominant-baseline: middle; font-size: 10.2px;" transform="translate(140.140625,145.50488805770874)" y="0" x="0" id="text-entity-users-33ae1e26-be31-5c1d-bf65-e859e9d0308e-attr-6-key" class="er entityLabel"/></g><g transform="translate(20,287.5966796875 )" id="entity-authentications-9f1323c5-7870-5371-ab13-2fce0d6a22c4"><rect height="90.27539348602295" width="113.75" y="0" x="0" class="er entityBox"/><text style="dominant-baseline: middle; text-anchor: middle; font-size: 12px;" transform="translate(56.875,12)" y="0" x="0" id="text-entity-authentications-9f1323c5-7870-5371-ab13-2fce0d6a22c4" class="er entityLabel">authentications</text><rect height="22.091797828674316" width="43.145833333333336" y="24" x="0" class="er attributeBoxOdd"/><text style="dominant-baseline: middle; font-size: 10.2px;" transform="translate(5,35.04589891433716)" y="0" x="0" id="text-entity-authentications-9f1323c5-7870-5371-ab13-2fce0d6a22c4-attr-1-type" class="er entityLabel">integer</text><rect height="22.091797828674316" width="48.645833333333336" y="24" x="43.145833333333336" class="er attributeBoxOdd"/><text style="dominant-baseline: middle; font-size: 10.2px;" transform="translate(48.145833333333336,35.04589891433716)" y="0" x="0" id="text-entity-authentications-9f1323c5-7870-5371-ab13-2fce0d6a22c4-attr-1-name" class="er entityLabel">id</text><rect height="22.091797828674316" width="21.958333333333332" y="24" x="91.79166666666667" class="er attributeBoxOdd"/><text style="dominant-baseline: middle; font-size: 10.2px;" transform="translate(96.79166666666667,35.04589891433716)" y="0" x="0" id="text-entity-authentications-9f1323c5-7870-5371-ab13-2fce0d6a22c4-attr-1-key" class="er entityLabel">PK</text><rect height="22.091797828674316" width="43.145833333333336" y="46.091797828674316" x="0" class="er attributeBoxEven"/><text style="dominant-baseline: middle; font-size: 10.2px;" transform="translate(5,57.137696743011475)" y="0" x="0" id="text-entity-authentications-9f1323c5-7870-5371-ab13-2fce0d6a22c4-attr-2-type" class="er entityLabel">integer</text><rect height="22.091797828674316" width="48.645833333333336" y="46.091797828674316" x="43.145833333333336" class="er attributeBoxEven"/><text style="dominant-baseline: middle; font-size: 10.2px;" transform="translate(48.145833333333336,57.137696743011475)" y="0" x="0" id="text-entity-authentications-9f1323c5-7870-5371-ab13-2fce0d6a22c4-attr-2-name" class="er entityLabel">user_id</text><rect height="22.091797828674316" width="21.958333333333332" y="46.091797828674316" x="91.79166666666667" class="er attributeBoxEven"/><text style="dominant-baseline: middle; font-size: 10.2px;" transform="translate(96.79166666666667,57.137696743011475)" y="0" x="0" id="text-entity-authentications-9f1323c5-7870-5371-ab13-2fce0d6a22c4-attr-2-key" class="er entityLabel">FK</text><rect height="22.091797828674316" width="43.145833333333336" y="68.18359565734863" x="0" class="er attributeBoxOdd"/><text style="dominant-baseline: middle; font-size: 10.2px;" transform="translate(5,79.22949457168579)" y="0" x="0" id="text-entity-authentications-9f1323c5-7870-5371-ab13-2fce0d6a22c4-attr-3-type" class="er entityLabel">string</text><rect height="22.091797828674316" width="48.645833333333336" y="68.18359565734863" x="43.145833333333336" class="er attributeBoxOdd"/><text style="dominant-baseline: middle; font-size: 10.2px;" transform="translate(48.145833333333336,79.22949457168579)" y="0" x="0" id="text-entity-authentications-9f1323c5-7870-5371-ab13-2fce0d6a22c4-attr-3-name" class="er entityLabel">provider</text><rect height="22.091797828674316" width="21.958333333333332" y="68.18359565734863" x="91.79166666666667" class="er attributeBoxOdd"/><text style="dominant-baseline: middle; font-size: 10.2px;" transform="translate(96.79166666666667,79.22949457168579)" y="0" x="0" id="text-entity-authentications-9f1323c5-7870-5371-ab13-2fce0d6a22c4-attr-3-key" class="er entityLabel"/></g><g transform="translate(230.0078125,488.91796875 )" id="entity-smileprices-1cde250f-ec22-5414-9a42-2887581353bc"><rect height="90.27539348602295" width="107.484375" y="0" x="0" class="er entityBox"/><text style="dominant-baseline: middle; text-anchor: middle; font-size: 12px;" transform="translate(53.7421875,12)" y="0" x="0" id="text-entity-smileprices-1cde250f-ec22-5414-9a42-2887581353bc" class="er entityLabel">smile_prices</text><rect height="22.091797828674316" width="42.75" y="24" x="0" class="er attributeBoxOdd"/><text style="dominant-baseline: middle; font-size: 10.2px;" transform="translate(5,35.04589891433716)" y="0" x="0" id="text-entity-smileprices-1cde250f-ec22-5414-9a42-2887581353bc-attr-1-type" class="er entityLabel">integer</text><rect height="22.091797828674316" width="43.171875" y="24" x="42.75" class="er attributeBoxOdd"/><text style="dominant-baseline: middle; font-size: 10.2px;" transform="translate(47.75,35.04589891433716)" y="0" x="0" id="text-entity-smileprices-1cde250f-ec22-5414-9a42-2887581353bc-attr-1-name" class="er entityLabel">id</text><rect height="22.091797828674316" width="21.5625" y="24" x="85.921875" class="er attributeBoxOdd"/><text style="dominant-baseline: middle; font-size: 10.2px;" transform="translate(90.921875,35.04589891433716)" y="0" x="0" id="text-entity-smileprices-1cde250f-ec22-5414-9a42-2887581353bc-attr-1-key" class="er entityLabel">PK</text><rect height="22.091797828674316" width="42.75" y="46.091797828674316" x="0" class="er attributeBoxEven"/><text style="dominant-baseline: middle; font-size: 10.2px;" transform="translate(5,57.137696743011475)" y="0" x="0" id="text-entity-smileprices-1cde250f-ec22-5414-9a42-2887581353bc-attr-2-type" class="er entityLabel">integer</text><rect height="22.091797828674316" width="43.171875" y="46.091797828674316" x="42.75" class="er attributeBoxEven"/><text style="dominant-baseline: middle; font-size: 10.2px;" transform="translate(47.75,57.137696743011475)" y="0" x="0" id="text-entity-smileprices-1cde250f-ec22-5414-9a42-2887581353bc-attr-2-name" class="er entityLabel">user_id</text><rect height="22.091797828674316" width="21.5625" y="46.091797828674316" x="85.921875" class="er attributeBoxEven"/><text style="dominant-baseline: middle; font-size: 10.2px;" transform="translate(90.921875,57.137696743011475)" y="0" x="0" id="text-entity-smileprices-1cde250f-ec22-5414-9a42-2887581353bc-attr-2-key" class="er entityLabel">FK</text><rect height="22.091797828674316" width="42.75" y="68.18359565734863" x="0" class="er attributeBoxOdd"/><text style="dominant-baseline: middle; font-size: 10.2px;" transform="translate(5,79.22949457168579)" y="0" x="0" id="text-entity-smileprices-1cde250f-ec22-5414-9a42-2887581353bc-attr-3-type" class="er entityLabel">integer</text><rect height="22.091797828674316" width="43.171875" y="68.18359565734863" x="42.75" class="er attributeBoxOdd"/><text style="dominant-baseline: middle; font-size: 10.2px;" transform="translate(47.75,79.22949457168579)" y="0" x="0" id="text-entity-smileprices-1cde250f-ec22-5414-9a42-2887581353bc-attr-3-name" class="er entityLabel">price</text><rect height="22.091797828674316" width="21.5625" y="68.18359565734863" x="85.921875" class="er attributeBoxOdd"/><text style="dominant-baseline: middle; font-size: 10.2px;" transform="translate(90.921875,79.22949457168579)" y="0" x="0" id="text-entity-smileprices-1cde250f-ec22-5414-9a42-2887581353bc-attr-3-key" class="er entityLabel"/></g><g transform="translate(437.4921875,488.91796875 )" id="entity-macdmenus-a0d7c69b-28eb-5877-abf7-1bf676e64fb8"><rect height="90.27539348602295" width="100" y="0" x="0" class="er entityBox"/><text style="dominant-baseline: middle; text-anchor: middle; font-size: 12px;" transform="translate(50,12)" y="0" x="0" id="text-entity-macdmenus-a0d7c69b-28eb-5877-abf7-1bf676e64fb8" class="er entityLabel">macd_menus</text><rect height="22.091797828674316" width="42.989583333333336" y="24" x="0" class="er attributeBoxOdd"/><text style="dominant-baseline: middle; font-size: 10.2px;" transform="translate(5,35.04589891433716)" y="0" x="0" id="text-entity-macdmenus-a0d7c69b-28eb-5877-abf7-1bf676e64fb8-attr-1-type" class="er entityLabel">integer</text><rect height="22.091797828674316" width="35.208333333333336" y="24" x="42.989583333333336" class="er attributeBoxOdd"/><text style="dominant-baseline: middle; font-size: 10.2px;" transform="translate(47.989583333333336,35.04589891433716)" y="0" x="0" id="text-entity-macdmenus-a0d7c69b-28eb-5877-abf7-1bf676e64fb8-attr-1-name" class="er entityLabel">id</text><rect height="22.091797828674316" width="21.802083333333332" y="24" x="78.19791666666667" class="er attributeBoxOdd"/><text style="dominant-baseline: middle; font-size: 10.2px;" transform="translate(83.19791666666667,35.04589891433716)" y="0" x="0" id="text-entity-macdmenus-a0d7c69b-28eb-5877-abf7-1bf676e64fb8-attr-1-key" class="er entityLabel">PK</text><rect height="22.091797828674316" width="42.989583333333336" y="46.091797828674316" x="0" class="er attributeBoxEven"/><text style="dominant-baseline: middle; font-size: 10.2px;" transform="translate(5,57.137696743011475)" y="0" x="0" id="text-entity-macdmenus-a0d7c69b-28eb-5877-abf7-1bf676e64fb8-attr-2-type" class="er entityLabel">string</text><rect height="22.091797828674316" width="35.208333333333336" y="46.091797828674316" x="42.989583333333336" class="er attributeBoxEven"/><text style="dominant-baseline: middle; font-size: 10.2px;" transform="translate(47.989583333333336,57.137696743011475)" y="0" x="0" id="text-entity-macdmenus-a0d7c69b-28eb-5877-abf7-1bf676e64fb8-attr-2-name" class="er entityLabel">name</text><rect height="22.091797828674316" width="21.802083333333332" y="46.091797828674316" x="78.19791666666667" class="er attributeBoxEven"/><text style="dominant-baseline: middle; font-size: 10.2px;" transform="translate(83.19791666666667,57.137696743011475)" y="0" x="0" id="text-entity-macdmenus-a0d7c69b-28eb-5877-abf7-1bf676e64fb8-attr-2-key" class="er entityLabel"/><rect height="22.091797828674316" width="42.989583333333336" y="68.18359565734863" x="0" class="er attributeBoxOdd"/><text style="dominant-baseline: middle; font-size: 10.2px;" transform="translate(5,79.22949457168579)" y="0" x="0" id="text-entity-macdmenus-a0d7c69b-28eb-5877-abf7-1bf676e64fb8-attr-3-type" class="er entityLabel">integer</text><rect height="22.091797828674316" width="35.208333333333336" y="68.18359565734863" x="42.989583333333336" class="er attributeBoxOdd"/><text style="dominant-baseline: middle; font-size: 10.2px;" transform="translate(47.989583333333336,79.22949457168579)" y="0" x="0" id="text-entity-macdmenus-a0d7c69b-28eb-5877-abf7-1bf676e64fb8-attr-3-name" class="er entityLabel">price</text><rect height="22.091797828674316" width="21.802083333333332" y="68.18359565734863" x="78.19791666666667" class="er attributeBoxOdd"/><text style="dominant-baseline: middle; font-size: 10.2px;" transform="translate(83.19791666666667,79.22949457168579)" y="0" x="0" id="text-entity-macdmenus-a0d7c69b-28eb-5877-abf7-1bf676e64fb8-attr-3-key" class="er entityLabel"/></g><g transform="translate(299.27734375,679.193359375 )" id="entity-smilepricesmacdmenus-13c6f78f-3b4b-507f-8262-836f5e67ee10"><rect height="90.27539348602295" width="172.6875" y="0" x="0" class="er entityBox"/><text style="dominant-baseline: middle; text-anchor: middle; font-size: 12px;" transform="translate(86.34375,12)" y="0" x="0" id="text-entity-smilepricesmacdmenus-13c6f78f-3b4b-507f-8262-836f5e67ee10" class="er entityLabel">smile_prices_macd_menus</text><rect height="22.091797828674316" width="52.53125" y="24" x="0" class="er attributeBoxOdd"/><text style="dominant-baseline: middle; font-size: 10.2px;" transform="translate(5,35.04589891433716)" y="0" x="0" id="text-entity-smilepricesmacdmenus-13c6f78f-3b4b-507f-8262-836f5e67ee10-attr-1-type" class="er entityLabel">integer</text><rect height="22.091797828674316" width="88.8125" y="24" x="52.53125" class="er attributeBoxOdd"/><text style="dominant-baseline: middle; font-size: 10.2px;" transform="translate(57.53125,35.04589891433716)" y="0" x="0" id="text-entity-smilepricesmacdmenus-13c6f78f-3b4b-507f-8262-836f5e67ee10-attr-1-name" class="er entityLabel">id</text><rect height="22.091797828674316" width="31.34375" y="24" x="141.34375" class="er attributeBoxOdd"/><text style="dominant-baseline: middle; font-size: 10.2px;" transform="translate(146.34375,35.04589891433716)" y="0" x="0" id="text-entity-smilepricesmacdmenus-13c6f78f-3b4b-507f-8262-836f5e67ee10-attr-1-key" class="er entityLabel">PK</text><rect height="22.091797828674316" width="52.53125" y="46.091797828674316" x="0" class="er attributeBoxEven"/><text style="dominant-baseline: middle; font-size: 10.2px;" transform="translate(5,57.137696743011475)" y="0" x="0" id="text-entity-smilepricesmacdmenus-13c6f78f-3b4b-507f-8262-836f5e67ee10-attr-2-type" class="er entityLabel">integer</text><rect height="22.091797828674316" width="88.8125" y="46.091797828674316" x="52.53125" class="er attributeBoxEven"/><text style="dominant-baseline: middle; font-size: 10.2px;" transform="translate(57.53125,57.137696743011475)" y="0" x="0" id="text-entity-smilepricesmacdmenus-13c6f78f-3b4b-507f-8262-836f5e67ee10-attr-2-name" class="er entityLabel">smile_price_id</text><rect height="22.091797828674316" width="31.34375" y="46.091797828674316" x="141.34375" class="er attributeBoxEven"/><text style="dominant-baseline: middle; font-size: 10.2px;" transform="translate(146.34375,57.137696743011475)" y="0" x="0" id="text-entity-smilepricesmacdmenus-13c6f78f-3b4b-507f-8262-836f5e67ee10-attr-2-key" class="er entityLabel">FK</text><rect height="22.091797828674316" width="52.53125" y="68.18359565734863" x="0" class="er attributeBoxOdd"/><text style="dominant-baseline: middle; font-size: 10.2px;" transform="translate(5,79.22949457168579)" y="0" x="0" id="text-entity-smilepricesmacdmenus-13c6f78f-3b4b-507f-8262-836f5e67ee10-attr-3-type" class="er entityLabel">integer</text><rect height="22.091797828674316" width="88.8125" y="68.18359565734863" x="52.53125" class="er attributeBoxOdd"/><text style="dominant-baseline: middle; font-size: 10.2px;" transform="translate(57.53125,79.22949457168579)" y="0" x="0" id="text-entity-smilepricesmacdmenus-13c6f78f-3b4b-507f-8262-836f5e67ee10-attr-3-name" class="er entityLabel">macd_menu_id</text><rect height="22.091797828674316" width="31.34375" y="68.18359565734863" x="141.34375" class="er attributeBoxOdd"/><text style="dominant-baseline: middle; font-size: 10.2px;" transform="translate(146.34375,79.22949457168579)" y="0" x="0" id="text-entity-smilepricesmacdmenus-13c6f78f-3b4b-507f-8262-836f5e67ee10-attr-3-key" class="er entityLabel">FK</text></g><g transform="translate(417.08984375,276.55078125 )" id="entity-posts-e718dd5c-88db-5d98-b0b2-74f0389868b7"><rect height="112.36719131469727" width="140.859375" y="0" x="0" class="er entityBox"/><text style="dominant-baseline: middle; text-anchor: middle; font-size: 12px;" transform="translate(70.4296875,12)" y="0" x="0" id="text-entity-posts-e718dd5c-88db-5d98-b0b2-74f0389868b7" class="er entityLabel">posts</text><rect height="22.091797828674316" width="42.75" y="24" x="0" class="er attributeBoxOdd"/><text style="dominant-baseline: middle; font-size: 10.2px;" transform="translate(5,35.04589891433716)" y="0" x="0" id="text-entity-posts-e718dd5c-88db-5d98-b0b2-74f0389868b7-attr-1-type" class="er entityLabel">integer</text><rect height="22.091797828674316" width="76.546875" y="24" x="42.75" class="er attributeBoxOdd"/><text style="dominant-baseline: middle; font-size: 10.2px;" transform="translate(47.75,35.04589891433716)" y="0" x="0" id="text-entity-posts-e718dd5c-88db-5d98-b0b2-74f0389868b7-attr-1-name" class="er entityLabel">id</text><rect height="22.091797828674316" width="21.5625" y="24" x="119.296875" class="er attributeBoxOdd"/><text style="dominant-baseline: middle; font-size: 10.2px;" transform="translate(124.296875,35.04589891433716)" y="0" x="0" id="text-entity-posts-e718dd5c-88db-5d98-b0b2-74f0389868b7-attr-1-key" class="er entityLabel">PK</text><rect height="22.091797828674316" width="42.75" y="46.091797828674316" x="0" class="er attributeBoxEven"/><text style="dominant-baseline: middle; font-size: 10.2px;" transform="translate(5,57.137696743011475)" y="0" x="0" id="text-entity-posts-e718dd5c-88db-5d98-b0b2-74f0389868b7-attr-2-type" class="er entityLabel">integer</text><rect height="22.091797828674316" width="76.546875" y="46.091797828674316" x="42.75" class="er attributeBoxEven"/><text style="dominant-baseline: middle; font-size: 10.2px;" transform="translate(47.75,57.137696743011475)" y="0" x="0" id="text-entity-posts-e718dd5c-88db-5d98-b0b2-74f0389868b7-attr-2-name" class="er entityLabel">user_id</text><rect height="22.091797828674316" width="21.5625" y="46.091797828674316" x="119.296875" class="er attributeBoxEven"/><text style="dominant-baseline: middle; font-size: 10.2px;" transform="translate(124.296875,57.137696743011475)" y="0" x="0" id="text-entity-posts-e718dd5c-88db-5d98-b0b2-74f0389868b7-attr-2-key" class="er entityLabel">FK</text><rect height="22.091797828674316" width="42.75" y="68.18359565734863" x="0" class="er attributeBoxOdd"/><text style="dominant-baseline: middle; font-size: 10.2px;" transform="translate(5,79.22949457168579)" y="0" x="0" id="text-entity-posts-e718dd5c-88db-5d98-b0b2-74f0389868b7-attr-3-type" class="er entityLabel">integer</text><rect height="22.091797828674316" width="76.546875" y="68.18359565734863" x="42.75" class="er attributeBoxOdd"/><text style="dominant-baseline: middle; font-size: 10.2px;" transform="translate(47.75,79.22949457168579)" y="0" x="0" id="text-entity-posts-e718dd5c-88db-5d98-b0b2-74f0389868b7-attr-3-name" class="er entityLabel">smile_price_id</text><rect height="22.091797828674316" width="21.5625" y="68.18359565734863" x="119.296875" class="er attributeBoxOdd"/><text style="dominant-baseline: middle; font-size: 10.2px;" transform="translate(124.296875,79.22949457168579)" y="0" x="0" id="text-entity-posts-e718dd5c-88db-5d98-b0b2-74f0389868b7-attr-3-key" class="er entityLabel">FK</text><rect height="22.091797828674316" width="42.75" y="90.27539348602295" x="0" class="er attributeBoxEven"/><text style="dominant-baseline: middle; font-size: 10.2px;" transform="translate(5,101.32129240036011)" y="0" x="0" id="text-entity-posts-e718dd5c-88db-5d98-b0b2-74f0389868b7-attr-4-type" class="er entityLabel">string</text><rect height="22.091797828674316" width="76.546875" y="90.27539348602295" x="42.75" class="er attributeBoxEven"/><text style="dominant-baseline: middle; font-size: 10.2px;" transform="translate(47.75,101.32129240036011)" y="0" x="0" id="text-entity-posts-e718dd5c-88db-5d98-b0b2-74f0389868b7-attr-4-name" class="er entityLabel">body</text><rect height="22.091797828674316" width="21.5625" y="90.27539348602295" x="119.296875" class="er attributeBoxEven"/><text style="dominant-baseline: middle; font-size: 10.2px;" transform="translate(124.296875,101.32129240036011)" y="0" x="0" id="text-entity-posts-e718dd5c-88db-5d98-b0b2-74f0389868b7-attr-4-key" class="er entityLabel"/></g><g transform="translate(637.4921875,488.91796875 )" id="entity-favorites-6543ae18-a461-538f-a8fc-80225d2ed641"><rect height="90.27539348602295" width="107.59375" y="0" x="0" class="er entityBox"/><text style="dominant-baseline: middle; text-anchor: middle; font-size: 12px;" transform="translate(53.796875,12)" y="0" x="0" id="text-entity-favorites-6543ae18-a461-538f-a8fc-80225d2ed641" class="er entityLabel">favorites</text><rect height="22.091797828674316" width="42.75" y="24" x="0" class="er attributeBoxOdd"/><text style="dominant-baseline: middle; font-size: 10.2px;" transform="translate(5,35.04589891433716)" y="0" x="0" id="text-entity-favorites-6543ae18-a461-538f-a8fc-80225d2ed641-attr-1-type" class="er entityLabel">integer</text><rect height="22.091797828674316" width="43.28125" y="24" x="42.75" class="er attributeBoxOdd"/><text style="dominant-baseline: middle; font-size: 10.2px;" transform="translate(47.75,35.04589891433716)" y="0" x="0" id="text-entity-favorites-6543ae18-a461-538f-a8fc-80225d2ed641-attr-1-name" class="er entityLabel">id</text><rect height="22.091797828674316" width="21.5625" y="24" x="86.03125" class="er attributeBoxOdd"/><text style="dominant-baseline: middle; font-size: 10.2px;" transform="translate(91.03125,35.04589891433716)" y="0" x="0" id="text-entity-favorites-6543ae18-a461-538f-a8fc-80225d2ed641-attr-1-key" class="er entityLabel">PK</text><rect height="22.091797828674316" width="42.75" y="46.091797828674316" x="0" class="er attributeBoxEven"/><text style="dominant-baseline: middle; font-size: 10.2px;" transform="translate(5,57.137696743011475)" y="0" x="0" id="text-entity-favorites-6543ae18-a461-538f-a8fc-80225d2ed641-attr-2-type" class="er entityLabel">integer</text><rect height="22.091797828674316" width="43.28125" y="46.091797828674316" x="42.75" class="er attributeBoxEven"/><text style="dominant-baseline: middle; font-size: 10.2px;" transform="translate(47.75,57.137696743011475)" y="0" x="0" id="text-entity-favorites-6543ae18-a461-538f-a8fc-80225d2ed641-attr-2-name" class="er entityLabel">user_id</text><rect height="22.091797828674316" width="21.5625" y="46.091797828674316" x="86.03125" class="er attributeBoxEven"/><text style="dominant-baseline: middle; font-size: 10.2px;" transform="translate(91.03125,57.137696743011475)" y="0" x="0" id="text-entity-favorites-6543ae18-a461-538f-a8fc-80225d2ed641-attr-2-key" class="er entityLabel">FK</text><rect height="22.091797828674316" width="42.75" y="68.18359565734863" x="0" class="er attributeBoxOdd"/><text style="dominant-baseline: middle; font-size: 10.2px;" transform="translate(5,79.22949457168579)" y="0" x="0" id="text-entity-favorites-6543ae18-a461-538f-a8fc-80225d2ed641-attr-3-type" class="er entityLabel">integer</text><rect height="22.091797828674316" width="43.28125" y="68.18359565734863" x="42.75" class="er attributeBoxOdd"/><text style="dominant-baseline: middle; font-size: 10.2px;" transform="translate(47.75,79.22949457168579)" y="0" x="0" id="text-entity-favorites-6543ae18-a461-538f-a8fc-80225d2ed641-attr-3-name" class="er entityLabel">post_id</text><rect height="22.091797828674316" width="21.5625" y="68.18359565734863" x="86.03125" class="er attributeBoxOdd"/><text style="dominant-baseline: middle; font-size: 10.2px;" transform="translate(91.03125,79.22949457168579)" y="0" x="0" id="text-entity-favorites-6543ae18-a461-538f-a8fc-80225d2ed641-attr-3-key" class="er entityLabel">FK</text></g><rect height="0" width="0" y="194.79588317871094" x="146.09291076660156" class="er relationshipLabelBox"/><text style="text-anchor: middle; dominant-baseline: middle; font-size: 12px;" y="194.79588317871094" x="146.09291076660156" id="rel1" class="er relationshipLabel"/><rect height="0" width="0" y="330.2770690917969" x="233.75059509277344" class="er relationshipLabelBox"/><text style="text-anchor: middle; dominant-baseline: middle; font-size: 12px;" y="330.2770690917969" x="233.75059509277344" id="rel2" class="er relationshipLabel"/><rect height="0" width="0" y="635.9921264648438" x="296.77752685546875" class="er relationshipLabelBox"/><text style="text-anchor: middle; dominant-baseline: middle; font-size: 12px;" y="635.9921264648438" x="296.77752685546875" id="rel3" class="er relationshipLabel"/><rect height="0" width="0" y="635.9921875" x="474.4645080566406" class="er relationshipLabelBox"/><text style="text-anchor: middle; dominant-baseline: middle; font-size: 12px;" y="635.9921875" x="474.4645080566406" id="rel4" class="er relationshipLabel"/><rect height="0" width="0" y="211.4245147705078" x="464.7648620605469" class="er relationshipLabelBox"/><text style="text-anchor: middle; dominant-baseline: middle; font-size: 12px;" y="211.4245147705078" x="464.7648620605469" id="rel5" class="er relationshipLabel"/><rect height="0" width="0" y="454.219482421875" x="408.5155944824219" class="er relationshipLabelBox"/><text style="text-anchor: middle; dominant-baseline: middle; font-size: 12px;" y="454.219482421875" x="408.5155944824219" id="rel6" class="er relationshipLabel"/><rect height="0" width="0" y="225.1099853515625" x="683.4383544921875" class="er relationshipLabelBox"/><text style="text-anchor: middle; dominant-baseline: middle; font-size: 12px;" y="225.1099853515625" x="683.4383544921875" id="rel7" class="er relationshipLabel"/><rect height="0" width="0" y="454.2015075683594" x="566.49609375" class="er relationshipLabelBox"/><text style="text-anchor: middle; dominant-baseline: middle; font-size: 12px;" y="454.2015075683594" x="566.49609375" id="rel8" class="er relationshipLabel"/></svg>