<svg aria-roledescription="er" role="graphics-document document" viewBox="0 0 582.875 841.536376953125" style="max-width: 582.875px; background-color: white;" xmlns:xlink="http://www.w3.org/1999/xlink" xmlns="http://www.w3.org/2000/svg" width="100%" id="my-svg"><style>#my-svg{font-family:"trebuchet ms",verdana,arial,sans-serif;font-size:16px;fill:#333;}#my-svg .error-icon{fill:#552222;}#my-svg .error-text{fill:#552222;stroke:#552222;}#my-svg .edge-thickness-normal{stroke-width:1px;}#my-svg .edge-thickness-thick{stroke-width:3.5px;}#my-svg .edge-pattern-solid{stroke-dasharray:0;}#my-svg .edge-thickness-invisible{stroke-width:0;fill:none;}#my-svg .edge-pattern-dashed{stroke-dasharray:3;}#my-svg .edge-pattern-dotted{stroke-dasharray:2;}#my-svg .marker{fill:#333333;stroke:#333333;}#my-svg .marker.cross{stroke:#333333;}#my-svg svg{font-family:"trebuchet ms",verdana,arial,sans-serif;font-size:16px;}#my-svg p{margin:0;}#my-svg .entityBox{fill:#ECECFF;stroke:#9370DB;}#my-svg .attributeBoxOdd{fill:#ffffff;stroke:#9370DB;}#my-svg .attributeBoxEven{fill:#f2f2f2;stroke:#9370DB;}#my-svg .relationshipLabelBox{fill:hsl(80, 100%, 96.2745098039%);opacity:0.7;background-color:hsl(80, 100%, 96.2745098039%);}#my-svg .relationshipLabelBox rect{opacity:0.5;}#my-svg .relationshipLine{stroke:#333333;}#my-svg .entityTitleText{text-anchor:middle;font-size:18px;fill:#333;}#my-svg #MD_PARENT_START{fill:#f5f5f5!important;stroke:#333333!important;stroke-width:1;}#my-svg #MD_PARENT_END{fill:#f5f5f5!important;stroke:#333333!important;stroke-width:1;}#my-svg :root{--mermaid-font-family:"trebuchet ms",verdana,arial,sans-serif;}</style><g/><defs><marker orient="auto" markerHeight="240" markerWidth="190" refY="7" refX="0" id="MD_PARENT_START"><path d="M 18,7 L9,13 L1,7 L9,1 Z"/></marker></defs><defs><marker orient="auto" markerHeight="28" markerWidth="20" refY="7" refX="19" id="MD_PARENT_END"><path d="M 18,7 L9,13 L1,7 L9,1 Z"/></marker></defs><defs><marker orient="auto" markerHeight="18" markerWidth="18" refY="9" refX="0" id="ONLY_ONE_START"><path d="M9,0 L9,18 M15,0 L15,18" fill="none" stroke="gray"/></marker></defs><defs><marker orient="auto" markerHeight="18" markerWidth="18" refY="9" refX="18" id="ONLY_ONE_END"><path d="M3,0 L3,18 M9,0 L9,18" fill="none" stroke="gray"/></marker></defs><defs><marker orient="auto" markerHeight="18" markerWidth="30" refY="9" refX="0" id="ZERO_OR_ONE_START"><circle r="6" cy="9" cx="21" fill="white" stroke="gray"/><path d="M9,0 L9,18" fill="none" stroke="gray"/></marker></defs><defs><marker orient="auto" markerHeight="18" markerWidth="30" refY="9" refX="30" id="ZERO_OR_ONE_END"><circle r="6" cy="9" cx="9" fill="white" stroke="gray"/><path d="M21,0 L21,18" fill="none" stroke="gray"/></marker></defs><defs><marker orient="auto" markerHeight="36" markerWidth="45" refY="18" refX="18" id="ONE_OR_MORE_START"><path d="M0,18 Q 18,0 36,18 Q 18,36 0,18 M42,9 L42,27" fill="none" stroke="gray"/></marker></defs><defs><marker orient="auto" markerHeight="36" markerWidth="45" refY="18" refX="27" id="ONE_OR_MORE_END"><path d="M3,9 L3,27 M9,18 Q27,0 45,18 Q27,36 9,18" fill="none" stroke="gray"/></marker></defs><defs><marker orient="auto" markerHeight="36" markerWidth="57" refY="18" refX="18" id="ZERO_OR_MORE_START"><circle r="6" cy="18" cx="48" fill="white" stroke="gray"/><path d="M0,18 Q18,0 36,18 Q18,36 0,18" fill="none" stroke="gray"/></marker></defs><defs><marker orient="auto" markerHeight="36" markerWidth="57" refY="18" refX="39" id="ZERO_OR_MORE_END"><circle r="6" cy="18" cx="9" fill="white" stroke="gray"/><path d="M21,18 Q39,0 57,18 Q39,36 21,18" fill="none" stroke="gray"/></marker></defs><path style="stroke: gray; fill: none;" marker-start="url(#ZERO_OR_MORE_START)" marker-end="url(#ONLY_ONE_END)" d="M91.438,498.906L91.438,507.239C91.438,515.573,91.438,532.239,115.824,559.242C140.211,586.244,188.984,623.583,213.371,642.252L237.758,660.921" class="er relationshipLine"/><path style="stroke: gray; fill: none;" marker-start="url(#ONLY_ONE_START)" marker-end="url(#ZERO_OR_MORE_END)" d="M347.195,218.9L341.475,227.493C335.755,236.086,324.315,253.273,318.595,275.736C312.875,298.2,312.875,325.941,312.875,339.812L312.875,353.682" class="er relationshipLine"/><path style="stroke: gray; fill: none;" marker-start="url(#ONLY_ONE_START)" marker-end="url(#ONLY_ONE_END)" d="M478.555,218.9L484.275,227.493C489.995,236.086,501.435,253.273,507.155,277.57C512.875,301.867,512.875,333.275,512.875,348.979L512.875,364.682" class="er relationshipLine"/><path style="stroke: gray; fill: none;" marker-start="url(#ONLY_ONE_START)" marker-end="url(#ONLY_ONE_END)" d="M512.875,454.682L512.875,470.386C512.875,486.09,512.875,517.498,488.488,551.871C464.102,586.244,415.328,623.583,390.941,642.252L366.555,660.921" class="er relationshipLine"/><g transform="translate(20,320.458984375 )" id="entity-REVIEWS-86b90fbf-f7b6-59df-9364-bf9bfe05ca57"><rect height="178.44687938690186" width="142.875" y="0" x="0" class="er entityBox"/><text style="dominant-baseline: middle; text-anchor: middle; font-size: 12px;" transform="translate(71.4375,12)" y="0" x="0" id="text-entity-REVIEWS-86b90fbf-f7b6-59df-9364-bf9bfe05ca57" class="er entityLabel">REVIEWS</text><rect height="22" width="67.8125" y="24" x="0" class="er attributeBoxOdd"/><text style="dominant-baseline: middle; font-size: 10.2px;" transform="translate(5,35)" y="0" x="0" id="text-entity-REVIEWS-86b90fbf-f7b6-59df-9364-bf9bfe05ca57-attr-1-type" class="er entityLabel">int</text><rect height="22" width="75.0625" y="24" x="67.8125" class="er attributeBoxOdd"/><text style="dominant-baseline: middle; font-size: 10.2px;" transform="translate(72.8125,35)" y="0" x="0" id="text-entity-REVIEWS-86b90fbf-f7b6-59df-9364-bf9bfe05ca57-attr-1-name" class="er entityLabel">id</text><rect height="22" width="67.8125" y="46" x="0" class="er attributeBoxEven"/><text style="dominant-baseline: middle; font-size: 10.2px;" transform="translate(5,57)" y="0" x="0" id="text-entity-REVIEWS-86b90fbf-f7b6-59df-9364-bf9bfe05ca57-attr-2-type" class="er entityLabel">int</text><rect height="22" width="75.0625" y="46" x="67.8125" class="er attributeBoxEven"/><text style="dominant-baseline: middle; font-size: 10.2px;" transform="translate(72.8125,57)" y="0" x="0" id="text-entity-REVIEWS-86b90fbf-f7b6-59df-9364-bf9bfe05ca57-attr-2-name" class="er entityLabel">userId</text><rect height="22.131641387939453" width="67.8125" y="68" x="0" class="er attributeBoxOdd"/><text style="dominant-baseline: middle; font-size: 10.2px;" transform="translate(5,79.06582069396973)" y="0" x="0" id="text-entity-REVIEWS-86b90fbf-f7b6-59df-9364-bf9bfe05ca57-attr-3-type" class="er entityLabel">varchar(135)</text><rect height="22.131641387939453" width="75.0625" y="68" x="67.8125" class="er attributeBoxOdd"/><text style="dominant-baseline: middle; font-size: 10.2px;" transform="translate(72.8125,79.06582069396973)" y="0" x="0" id="text-entity-REVIEWS-86b90fbf-f7b6-59df-9364-bf9bfe05ca57-attr-3-name" class="er entityLabel">bookId</text><rect height="22.091797828674316" width="67.8125" y="90.13164138793945" x="0" class="er attributeBoxEven"/><text style="dominant-baseline: middle; font-size: 10.2px;" transform="translate(5,101.17754030227661)" y="0" x="0" id="text-entity-REVIEWS-86b90fbf-f7b6-59df-9364-bf9bfe05ca57-attr-4-type" class="er entityLabel">int</text><rect height="22.091797828674316" width="75.0625" y="90.13164138793945" x="67.8125" class="er attributeBoxEven"/><text style="dominant-baseline: middle; font-size: 10.2px;" transform="translate(72.8125,101.17754030227661)" y="0" x="0" id="text-entity-REVIEWS-86b90fbf-f7b6-59df-9364-bf9bfe05ca57-attr-4-name" class="er entityLabel">rating</text><rect height="22.091797828674316" width="67.8125" y="112.22343921661377" x="0" class="er attributeBoxOdd"/><text style="dominant-baseline: middle; font-size: 10.2px;" transform="translate(5,123.26933813095093)" y="0" x="0" id="text-entity-REVIEWS-86b90fbf-f7b6-59df-9364-bf9bfe05ca57-attr-5-type" class="er entityLabel">date</text><rect height="22.091797828674316" width="75.0625" y="112.22343921661377" x="67.8125" class="er attributeBoxOdd"/><text style="dominant-baseline: middle; font-size: 10.2px;" transform="translate(72.8125,123.26933813095093)" y="0" x="0" id="text-entity-REVIEWS-86b90fbf-f7b6-59df-9364-bf9bfe05ca57-attr-5-name" class="er entityLabel">timestamp</text><rect height="22" width="67.8125" y="134.3152370452881" x="0" class="er attributeBoxEven"/><text style="dominant-baseline: middle; font-size: 10.2px;" transform="translate(5,145.3152370452881)" y="0" x="0" id="text-entity-REVIEWS-86b90fbf-f7b6-59df-9364-bf9bfe05ca57-attr-6-type" class="er entityLabel">text</text><rect height="22" width="75.0625" y="134.3152370452881" x="67.8125" class="er attributeBoxEven"/><text style="dominant-baseline: middle; font-size: 10.2px;" transform="translate(72.8125,145.3152370452881)" y="0" x="0" id="text-entity-REVIEWS-86b90fbf-f7b6-59df-9364-bf9bfe05ca57-attr-6-name" class="er entityLabel">review</text><rect height="22.13164234161377" width="67.8125" y="156.3152370452881" x="0" class="er attributeBoxOdd"/><text style="dominant-baseline: middle; font-size: 10.2px;" transform="translate(5,167.38105821609497)" y="0" x="0" id="text-entity-REVIEWS-86b90fbf-f7b6-59df-9364-bf9bfe05ca57-attr-7-type" class="er entityLabel">tinyint(1)</text><rect height="22.13164234161377" width="75.0625" y="156.3152370452881" x="67.8125" class="er attributeBoxOdd"/><text style="dominant-baseline: middle; font-size: 10.2px;" transform="translate(72.8125,167.38105821609497)" y="0" x="0" id="text-entity-REVIEWS-86b90fbf-f7b6-59df-9364-bf9bfe05ca57-attr-7-name" class="er entityLabel">recommended</text></g><g transform="translate(237.7578125,598.9058685302734 )" id="entity-BOOKS-3fee73fd-1a09-559c-913c-802407f2e1c8"><rect height="222.63047218322754" width="128.796875" y="0" x="0" class="er entityBox"/><text style="dominant-baseline: middle; text-anchor: middle; font-size: 12px;" transform="translate(64.3984375,12)" y="0" x="0" id="text-entity-BOOKS-3fee73fd-1a09-559c-913c-802407f2e1c8" class="er entityLabel">BOOKS</text><rect height="22.131641387939453" width="67.8125" y="24" x="0" class="er attributeBoxOdd"/><text style="dominant-baseline: middle; font-size: 10.2px;" transform="translate(5,35.06582069396973)" y="0" x="0" id="text-entity-BOOKS-3fee73fd-1a09-559c-913c-802407f2e1c8-attr-1-type" class="er entityLabel">varchar(135)</text><rect height="22.131641387939453" width="60.984375" y="24" x="67.8125" class="er attributeBoxOdd"/><text style="dominant-baseline: middle; font-size: 10.2px;" transform="translate(72.8125,35.06582069396973)" y="0" x="0" id="text-entity-BOOKS-3fee73fd-1a09-559c-913c-802407f2e1c8-attr-1-name" class="er entityLabel">bookId</text><rect height="22.131641387939453" width="67.8125" y="46.13164138793945" x="0" class="er attributeBoxEven"/><text style="dominant-baseline: middle; font-size: 10.2px;" transform="translate(5,57.19746208190918)" y="0" x="0" id="text-entity-BOOKS-3fee73fd-1a09-559c-913c-802407f2e1c8-attr-2-type" class="er entityLabel">varchar(255)</text><rect height="22.131641387939453" width="60.984375" y="46.13164138793945" x="67.8125" class="er attributeBoxEven"/><text style="dominant-baseline: middle; font-size: 10.2px;" transform="translate(72.8125,57.19746208190918)" y="0" x="0" id="text-entity-BOOKS-3fee73fd-1a09-559c-913c-802407f2e1c8-attr-2-name" class="er entityLabel">title</text><rect height="22" width="67.8125" y="68.2632827758789" x="0" class="er attributeBoxOdd"/><text style="dominant-baseline: middle; font-size: 10.2px;" transform="translate(5,79.2632827758789)" y="0" x="0" id="text-entity-BOOKS-3fee73fd-1a09-559c-913c-802407f2e1c8-attr-3-type" class="er entityLabel">varchar</text><rect height="22" width="60.984375" y="68.2632827758789" x="67.8125" class="er attributeBoxOdd"/><text style="dominant-baseline: middle; font-size: 10.2px;" transform="translate(72.8125,79.2632827758789)" y="0" x="0" id="text-entity-BOOKS-3fee73fd-1a09-559c-913c-802407f2e1c8-attr-3-name" class="er entityLabel">series</text><rect height="22" width="67.8125" y="90.2632827758789" x="0" class="er attributeBoxEven"/><text style="dominant-baseline: middle; font-size: 10.2px;" transform="translate(5,101.2632827758789)" y="0" x="0" id="text-entity-BOOKS-3fee73fd-1a09-559c-913c-802407f2e1c8-attr-4-type" class="er entityLabel">varchar</text><rect height="22" width="60.984375" y="90.2632827758789" x="67.8125" class="er attributeBoxEven"/><text style="dominant-baseline: middle; font-size: 10.2px;" transform="translate(72.8125,101.2632827758789)" y="0" x="0" id="text-entity-BOOKS-3fee73fd-1a09-559c-913c-802407f2e1c8-attr-4-name" class="er entityLabel">author</text><rect height="22.091796875" width="67.8125" y="112.2632827758789" x="0" class="er attributeBoxOdd"/><text style="dominant-baseline: middle; font-size: 10.2px;" transform="translate(5,123.3091812133789)" y="0" x="0" id="text-entity-BOOKS-3fee73fd-1a09-559c-913c-802407f2e1c8-attr-5-type" class="er entityLabel">mediumtext</text><rect height="22.091796875" width="60.984375" y="112.2632827758789" x="67.8125" class="er attributeBoxOdd"/><text style="dominant-baseline: middle; font-size: 10.2px;" transform="translate(72.8125,123.3091812133789)" y="0" x="0" id="text-entity-BOOKS-3fee73fd-1a09-559c-913c-802407f2e1c8-attr-5-name" class="er entityLabel">description</text><rect height="22.091796875" width="67.8125" y="134.3550796508789" x="0" class="er attributeBoxEven"/><text style="dominant-baseline: middle; font-size: 10.2px;" transform="translate(5,145.4009780883789)" y="0" x="0" id="text-entity-BOOKS-3fee73fd-1a09-559c-913c-802407f2e1c8-attr-6-type" class="er entityLabel">varchar</text><rect height="22.091796875" width="60.984375" y="134.3550796508789" x="67.8125" class="er attributeBoxEven"/><text style="dominant-baseline: middle; font-size: 10.2px;" transform="translate(72.8125,145.4009780883789)" y="0" x="0" id="text-entity-BOOKS-3fee73fd-1a09-559c-913c-802407f2e1c8-attr-6-name" class="er entityLabel">language</text><rect height="22" width="67.8125" y="156.4468765258789" x="0" class="er attributeBoxOdd"/><text style="dominant-baseline: middle; font-size: 10.2px;" transform="translate(5,167.4468765258789)" y="0" x="0" id="text-entity-BOOKS-3fee73fd-1a09-559c-913c-802407f2e1c8-attr-7-type" class="er entityLabel">varchar</text><rect height="22" width="60.984375" y="156.4468765258789" x="67.8125" class="er attributeBoxOdd"/><text style="dominant-baseline: middle; font-size: 10.2px;" transform="translate(72.8125,167.4468765258789)" y="0" x="0" id="text-entity-BOOKS-3fee73fd-1a09-559c-913c-802407f2e1c8-attr-7-name" class="er entityLabel">isbn</text><rect height="22.091797828674316" width="67.8125" y="178.4468765258789" x="0" class="er attributeBoxEven"/><text style="dominant-baseline: middle; font-size: 10.2px;" transform="translate(5,189.49277544021606)" y="0" x="0" id="text-entity-BOOKS-3fee73fd-1a09-559c-913c-802407f2e1c8-attr-8-type" class="er entityLabel">json</text><rect height="22.091797828674316" width="60.984375" y="178.4468765258789" x="67.8125" class="er attributeBoxEven"/><text style="dominant-baseline: middle; font-size: 10.2px;" transform="translate(72.8125,189.49277544021606)" y="0" x="0" id="text-entity-BOOKS-3fee73fd-1a09-559c-913c-802407f2e1c8-attr-8-name" class="er entityLabel">genres</text><rect height="22.091797828674316" width="67.8125" y="200.53867435455322" x="0" class="er attributeBoxOdd"/><text style="dominant-baseline: middle; font-size: 10.2px;" transform="translate(5,211.58457326889038)" y="0" x="0" id="text-entity-BOOKS-3fee73fd-1a09-559c-913c-802407f2e1c8-attr-9-type" class="er entityLabel">int</text><rect height="22.091797828674316" width="60.984375" y="200.53867435455322" x="67.8125" class="er attributeBoxOdd"/><text style="dominant-baseline: middle; font-size: 10.2px;" transform="translate(72.8125,211.58457326889038)" y="0" x="0" id="text-entity-BOOKS-3fee73fd-1a09-559c-913c-802407f2e1c8-attr-9-name" class="er entityLabel">quantity</text></g><g transform="translate(347.1953125,20 )" id="entity-USER-6e7e2962-0c6f-577d-a7fd-2ce3a0cfd2c8"><rect height="200.45898628234863" width="131.359375" y="0" x="0" class="er entityBox"/><text style="dominant-baseline: middle; text-anchor: middle; font-size: 12px;" transform="translate(65.6796875,12)" y="0" x="0" id="text-entity-USER-6e7e2962-0c6f-577d-a7fd-2ce3a0cfd2c8" class="er entityLabel">USER</text><rect height="22" width="58.671875" y="24" x="0" class="er attributeBoxOdd"/><text style="dominant-baseline: middle; font-size: 10.2px;" transform="translate(5,35)" y="0" x="0" id="text-entity-USER-6e7e2962-0c6f-577d-a7fd-2ce3a0cfd2c8-attr-1-type" class="er entityLabel">int</text><rect height="22" width="72.6875" y="24" x="58.671875" class="er attributeBoxOdd"/><text style="dominant-baseline: middle; font-size: 10.2px;" transform="translate(63.671875,35)" y="0" x="0" id="text-entity-USER-6e7e2962-0c6f-577d-a7fd-2ce3a0cfd2c8-attr-1-name" class="er entityLabel">id</text><rect height="22" width="58.671875" y="46" x="0" class="er attributeBoxEven"/><text style="dominant-baseline: middle; font-size: 10.2px;" transform="translate(5,57)" y="0" x="0" id="text-entity-USER-6e7e2962-0c6f-577d-a7fd-2ce3a0cfd2c8-attr-2-type" class="er entityLabel">varchar</text><rect height="22" width="72.6875" y="46" x="58.671875" class="er attributeBoxEven"/><text style="dominant-baseline: middle; font-size: 10.2px;" transform="translate(63.671875,57)" y="0" x="0" id="text-entity-USER-6e7e2962-0c6f-577d-a7fd-2ce3a0cfd2c8-attr-2-name" class="er entityLabel">username</text><rect height="22.091796875" width="58.671875" y="68" x="0" class="er attributeBoxOdd"/><text style="dominant-baseline: middle; font-size: 10.2px;" transform="translate(5,79.0458984375)" y="0" x="0" id="text-entity-USER-6e7e2962-0c6f-577d-a7fd-2ce3a0cfd2c8-attr-3-type" class="er entityLabel">varchar</text><rect height="22.091796875" width="72.6875" y="68" x="58.671875" class="er attributeBoxOdd"/><text style="dominant-baseline: middle; font-size: 10.2px;" transform="translate(63.671875,79.0458984375)" y="0" x="0" id="text-entity-USER-6e7e2962-0c6f-577d-a7fd-2ce3a0cfd2c8-attr-3-name" class="er entityLabel">password</text><rect height="22" width="58.671875" y="90.091796875" x="0" class="er attributeBoxEven"/><text style="dominant-baseline: middle; font-size: 10.2px;" transform="translate(5,101.091796875)" y="0" x="0" id="text-entity-USER-6e7e2962-0c6f-577d-a7fd-2ce3a0cfd2c8-attr-4-type" class="er entityLabel">varchar</text><rect height="22" width="72.6875" y="90.091796875" x="58.671875" class="er attributeBoxEven"/><text style="dominant-baseline: middle; font-size: 10.2px;" transform="translate(63.671875,101.091796875)" y="0" x="0" id="text-entity-USER-6e7e2962-0c6f-577d-a7fd-2ce3a0cfd2c8-attr-4-name" class="er entityLabel">email</text><rect height="22.091796875" width="58.671875" y="112.091796875" x="0" class="er attributeBoxOdd"/><text style="dominant-baseline: middle; font-size: 10.2px;" transform="translate(5,123.1376953125)" y="0" x="0" id="text-entity-USER-6e7e2962-0c6f-577d-a7fd-2ce3a0cfd2c8-attr-5-type" class="er entityLabel">varchar</text><rect height="22.091796875" width="72.6875" y="112.091796875" x="58.671875" class="er attributeBoxOdd"/><text style="dominant-baseline: middle; font-size: 10.2px;" transform="translate(63.671875,123.1376953125)" y="0" x="0" id="text-entity-USER-6e7e2962-0c6f-577d-a7fd-2ce3a0cfd2c8-attr-5-name" class="er entityLabel">phone</text><rect height="22.091797828674316" width="58.671875" y="134.18359375" x="0" class="er attributeBoxEven"/><text style="dominant-baseline: middle; font-size: 10.2px;" transform="translate(5,145.22949266433716)" y="0" x="0" id="text-entity-USER-6e7e2962-0c6f-577d-a7fd-2ce3a0cfd2c8-attr-6-type" class="er entityLabel">timestamp</text><rect height="22.091797828674316" width="72.6875" y="134.18359375" x="58.671875" class="er attributeBoxEven"/><text style="dominant-baseline: middle; font-size: 10.2px;" transform="translate(63.671875,145.22949266433716)" y="0" x="0" id="text-entity-USER-6e7e2962-0c6f-577d-a7fd-2ce3a0cfd2c8-attr-6-name" class="er entityLabel">timeCreated</text><rect height="22.091797828674316" width="58.671875" y="156.27539157867432" x="0" class="er attributeBoxOdd"/><text style="dominant-baseline: middle; font-size: 10.2px;" transform="translate(5,167.32129049301147)" y="0" x="0" id="text-entity-USER-6e7e2962-0c6f-577d-a7fd-2ce3a0cfd2c8-attr-7-type" class="er entityLabel">timestamp</text><rect height="22.091797828674316" width="72.6875" y="156.27539157867432" x="58.671875" class="er attributeBoxOdd"/><text style="dominant-baseline: middle; font-size: 10.2px;" transform="translate(63.671875,167.32129049301147)" y="0" x="0" id="text-entity-USER-6e7e2962-0c6f-577d-a7fd-2ce3a0cfd2c8-attr-7-name" class="er entityLabel">lastLogin</text><rect height="22.091796875" width="58.671875" y="178.36718940734863" x="0" class="er attributeBoxEven"/><text style="dominant-baseline: middle; font-size: 10.2px;" transform="translate(5,189.41308784484863)" y="0" x="0" id="text-entity-USER-6e7e2962-0c6f-577d-a7fd-2ce3a0cfd2c8-attr-8-type" class="er entityLabel">varchar</text><rect height="22.091796875" width="72.6875" y="178.36718940734863" x="58.671875" class="er attributeBoxEven"/><text style="dominant-baseline: middle; font-size: 10.2px;" transform="translate(63.671875,189.41308784484863)" y="0" x="0" id="text-entity-USER-6e7e2962-0c6f-577d-a7fd-2ce3a0cfd2c8-attr-8-name" class="er entityLabel">profilePicture</text></g><g transform="translate(262.875,353.6824264526367 )" id="entity-FRIENDS-949eff6f-f589-59cc-b917-2c155f1392c2"><rect height="112" width="100" y="0" x="0" class="er entityBox"/><text style="dominant-baseline: middle; text-anchor: middle; font-size: 12px;" transform="translate(50,12)" y="0" x="0" id="text-entity-FRIENDS-949eff6f-f589-59cc-b917-2c155f1392c2" class="er entityLabel">FRIENDS</text><rect height="22" width="47.3828125" y="24" x="0" class="er attributeBoxOdd"/><text style="dominant-baseline: middle; font-size: 10.2px;" transform="translate(5,35)" y="0" x="0" id="text-entity-FRIENDS-949eff6f-f589-59cc-b917-2c155f1392c2-attr-1-type" class="er entityLabel">int</text><rect height="22" width="52.6171875" y="24" x="47.3828125" class="er attributeBoxOdd"/><text style="dominant-baseline: middle; font-size: 10.2px;" transform="translate(52.3828125,35)" y="0" x="0" id="text-entity-FRIENDS-949eff6f-f589-59cc-b917-2c155f1392c2-attr-1-name" class="er entityLabel">id</text><rect height="22" width="47.3828125" y="46" x="0" class="er attributeBoxEven"/><text style="dominant-baseline: middle; font-size: 10.2px;" transform="translate(5,57)" y="0" x="0" id="text-entity-FRIENDS-949eff6f-f589-59cc-b917-2c155f1392c2-attr-2-type" class="er entityLabel">int</text><rect height="22" width="52.6171875" y="46" x="47.3828125" class="er attributeBoxEven"/><text style="dominant-baseline: middle; font-size: 10.2px;" transform="translate(52.3828125,57)" y="0" x="0" id="text-entity-FRIENDS-949eff6f-f589-59cc-b917-2c155f1392c2-attr-2-name" class="er entityLabel">userId</text><rect height="22" width="47.3828125" y="68" x="0" class="er attributeBoxOdd"/><text style="dominant-baseline: middle; font-size: 10.2px;" transform="translate(5,79)" y="0" x="0" id="text-entity-FRIENDS-949eff6f-f589-59cc-b917-2c155f1392c2-attr-3-type" class="er entityLabel">int</text><rect height="22" width="52.6171875" y="68" x="47.3828125" class="er attributeBoxOdd"/><text style="dominant-baseline: middle; font-size: 10.2px;" transform="translate(52.3828125,79)" y="0" x="0" id="text-entity-FRIENDS-949eff6f-f589-59cc-b917-2c155f1392c2-attr-3-name" class="er entityLabel">friendId</text><rect height="22" width="47.3828125" y="90" x="0" class="er attributeBoxEven"/><text style="dominant-baseline: middle; font-size: 10.2px;" transform="translate(5,101)" y="0" x="0" id="text-entity-FRIENDS-949eff6f-f589-59cc-b917-2c155f1392c2-attr-4-type" class="er entityLabel">ennum</text><rect height="22" width="52.6171875" y="90" x="47.3828125" class="er attributeBoxEven"/><text style="dominant-baseline: middle; font-size: 10.2px;" transform="translate(52.3828125,101)" y="0" x="0" id="text-entity-FRIENDS-949eff6f-f589-59cc-b917-2c155f1392c2-attr-4-name" class="er entityLabel">status</text></g><g transform="translate(462.875,364.6824264526367 )" id="entity-CARTITEMS-f2c41032-3f96-5e39-b1ed-ff17764cd4c2"><rect height="90" width="100" y="0" x="0" class="er entityBox"/><text style="dominant-baseline: middle; text-anchor: middle; font-size: 12px;" transform="translate(50,12)" y="0" x="0" id="text-entity-CARTITEMS-f2c41032-3f96-5e39-b1ed-ff17764cd4c2" class="er entityLabel">CARTITEMS</text><rect height="22" width="51.984375" y="24" x="0" class="er attributeBoxOdd"/><text style="dominant-baseline: middle; font-size: 10.2px;" transform="translate(5,35)" y="0" x="0" id="text-entity-CARTITEMS-f2c41032-3f96-5e39-b1ed-ff17764cd4c2-attr-1-type" class="er entityLabel">int</text><rect height="22" width="48.015625" y="24" x="51.984375" class="er attributeBoxOdd"/><text style="dominant-baseline: middle; font-size: 10.2px;" transform="translate(56.984375,35)" y="0" x="0" id="text-entity-CARTITEMS-f2c41032-3f96-5e39-b1ed-ff17764cd4c2-attr-1-name" class="er entityLabel">id</text><rect height="22" width="51.984375" y="46" x="0" class="er attributeBoxEven"/><text style="dominant-baseline: middle; font-size: 10.2px;" transform="translate(5,57)" y="0" x="0" id="text-entity-CARTITEMS-f2c41032-3f96-5e39-b1ed-ff17764cd4c2-attr-2-type" class="er entityLabel">int</text><rect height="22" width="48.015625" y="46" x="51.984375" class="er attributeBoxEven"/><text style="dominant-baseline: middle; font-size: 10.2px;" transform="translate(56.984375,57)" y="0" x="0" id="text-entity-CARTITEMS-f2c41032-3f96-5e39-b1ed-ff17764cd4c2-attr-2-name" class="er entityLabel">userId</text><rect height="22" width="51.984375" y="68" x="0" class="er attributeBoxOdd"/><text style="dominant-baseline: middle; font-size: 10.2px;" transform="translate(5,79)" y="0" x="0" id="text-entity-CARTITEMS-f2c41032-3f96-5e39-b1ed-ff17764cd4c2-attr-3-type" class="er entityLabel">varchar</text><rect height="22" width="48.015625" y="68" x="51.984375" class="er attributeBoxOdd"/><text style="dominant-baseline: middle; font-size: 10.2px;" transform="translate(56.984375,79)" y="0" x="0" id="text-entity-CARTITEMS-f2c41032-3f96-5e39-b1ed-ff17764cd4c2-attr-3-name" class="er entityLabel">bookId</text></g><rect height="14" width="44.84375" y="583.8001708984375" x="126.63349914550781" class="er relationshipLabelBox"/><text style="text-anchor: middle; dominant-baseline: middle; font-size: 12px;" y="590.8001708984375" x="149.0553741455078" id="rel1" class="er relationshipLabel">contains</text><rect height="14" width="17.71875" y="275.7464294433594" x="308.15936279296875" class="er relationshipLabelBox"/><text style="text-anchor: middle; dominant-baseline: middle; font-size: 12px;" y="282.7464294433594" x="317.01873779296875" id="rel2" class="er relationshipLabel">has</text><rect height="14" width="17.71875" y="281.26025390625" x="500.3985290527344" class="er relationshipLabelBox"/><text style="text-anchor: middle; dominant-baseline: middle; font-size: 12px;" y="288.26025390625" x="509.2579040527344" id="rel3" class="er relationshipLabel">has</text><rect height="14" width="17.71875" y="568.532470703125" x="459.7761535644531" class="er relationshipLabelBox"/><text style="text-anchor: middle; dominant-baseline: middle; font-size: 12px;" y="575.532470703125" x="468.6355285644531" id="rel4" class="er relationshipLabel">has</text></svg>