<svg aria-roledescription="er" role="graphics-document document" viewBox="0 0 350.515625 262.55078125" style="max-width: 350.516px; background-color: white;" xmlns:xlink="http://www.w3.org/1999/xlink" xmlns="http://www.w3.org/2000/svg" width="100%" id="my-svg"><style>#my-svg{font-family:"trebuchet ms",verdana,arial,sans-serif;font-size:16px;fill:#333;}#my-svg .error-icon{fill:#552222;}#my-svg .error-text{fill:#552222;stroke:#552222;}#my-svg .edge-thickness-normal{stroke-width:1px;}#my-svg .edge-thickness-thick{stroke-width:3.5px;}#my-svg .edge-pattern-solid{stroke-dasharray:0;}#my-svg .edge-thickness-invisible{stroke-width:0;fill:none;}#my-svg .edge-pattern-dashed{stroke-dasharray:3;}#my-svg .edge-pattern-dotted{stroke-dasharray:2;}#my-svg .marker{fill:#333333;stroke:#333333;}#my-svg .marker.cross{stroke:#333333;}#my-svg svg{font-family:"trebuchet ms",verdana,arial,sans-serif;font-size:16px;}#my-svg p{margin:0;}#my-svg .entityBox{fill:#ECECFF;stroke:#9370DB;}#my-svg .attributeBoxOdd{fill:#ffffff;stroke:#9370DB;}#my-svg .attributeBoxEven{fill:#f2f2f2;stroke:#9370DB;}#my-svg .relationshipLabelBox{fill:hsl(80, 100%, 96.2745098039%);opacity:0.7;background-color:hsl(80, 100%, 96.2745098039%);}#my-svg .relationshipLabelBox rect{opacity:0.5;}#my-svg .relationshipLine{stroke:#333333;}#my-svg .entityTitleText{text-anchor:middle;font-size:18px;fill:#333;}#my-svg #MD_PARENT_START{fill:#f5f5f5!important;stroke:#333333!important;stroke-width:1;}#my-svg #MD_PARENT_END{fill:#f5f5f5!important;stroke:#333333!important;stroke-width:1;}#my-svg :root{--mermaid-font-family:"trebuchet ms",verdana,arial,sans-serif;}</style><g/><defs><marker orient="auto" markerHeight="240" markerWidth="190" refY="7" refX="0" id="MD_PARENT_START"><path d="M 18,7 L9,13 L1,7 L9,1 Z"/></marker></defs><defs><marker orient="auto" markerHeight="28" markerWidth="20" refY="7" refX="19" id="MD_PARENT_END"><path d="M 18,7 L9,13 L1,7 L9,1 Z"/></marker></defs><defs><marker orient="auto" markerHeight="18" markerWidth="18" refY="9" refX="0" id="ONLY_ONE_START"><path d="M9,0 L9,18 M15,0 L15,18" fill="none" stroke="gray"/></marker></defs><defs><marker orient="auto" markerHeight="18" markerWidth="18" refY="9" refX="18" id="ONLY_ONE_END"><path d="M3,0 L3,18 M9,0 L9,18" fill="none" stroke="gray"/></marker></defs><defs><marker orient="auto" markerHeight="18" markerWidth="30" refY="9" refX="0" id="ZERO_OR_ONE_START"><circle r="6" cy="9" cx="21" fill="white" stroke="gray"/><path d="M9,0 L9,18" fill="none" stroke="gray"/></marker></defs><defs><marker orient="auto" markerHeight="18" markerWidth="30" refY="9" refX="30" id="ZERO_OR_ONE_END"><circle r="6" cy="9" cx="9" fill="white" stroke="gray"/><path d="M21,0 L21,18" fill="none" stroke="gray"/></marker></defs><defs><marker orient="auto" markerHeight="36" markerWidth="45" refY="18" refX="18" id="ONE_OR_MORE_START"><path d="M0,18 Q 18,0 36,18 Q 18,36 0,18 M42,9 L42,27" fill="none" stroke="gray"/></marker></defs><defs><marker orient="auto" markerHeight="36" markerWidth="45" refY="18" refX="27" id="ONE_OR_MORE_END"><path d="M3,9 L3,27 M9,18 Q27,0 45,18 Q27,36 9,18" fill="none" stroke="gray"/></marker></defs><defs><marker orient="auto" markerHeight="36" markerWidth="57" refY="18" refX="18" id="ZERO_OR_MORE_START"><circle r="6" cy="18" cx="48" fill="white" stroke="gray"/><path d="M0,18 Q18,0 36,18 Q18,36 0,18" fill="none" stroke="gray"/></marker></defs><defs><marker orient="auto" markerHeight="36" markerWidth="57" refY="18" refX="39" id="ZERO_OR_MORE_END"><circle r="6" cy="18" cx="9" fill="white" stroke="gray"/><path d="M21,18 Q39,0 57,18 Q39,36 21,18" fill="none" stroke="gray"/></marker></defs><g transform="translate(20,20 )" id="entity-BOOK-12b90bf2-7af7-5ded-a124-d6647c4b972e"><rect height="222.55078506469727" width="110.515625" y="0" x="0" class="er entityBox"/><text style="dominant-baseline: middle; text-anchor: middle; font-size: 12px;" transform="translate(55.2578125,12)" y="0" x="0" id="text-entity-BOOK-12b90bf2-7af7-5ded-a124-d6647c4b972e" class="er entityLabel">BOOK</text><rect height="22" width="40.75" y="24" x="0" class="er attributeBoxOdd"/><text style="dominant-baseline: middle; font-size: 10.2px;" transform="translate(5,35)" y="0" x="0" id="text-entity-BOOK-12b90bf2-7af7-5ded-a124-d6647c4b972e-attr-1-type" class="er entityLabel">int</text><rect height="22" width="69.765625" y="24" x="40.75" class="er attributeBoxOdd"/><text style="dominant-baseline: middle; font-size: 10.2px;" transform="translate(45.75,35)" y="0" x="0" id="text-entity-BOOK-12b90bf2-7af7-5ded-a124-d6647c4b972e-attr-1-name" class="er entityLabel">id</text><rect height="22.091796875" width="40.75" y="46" x="0" class="er attributeBoxEven"/><text style="dominant-baseline: middle; font-size: 10.2px;" transform="translate(5,57.0458984375)" y="0" x="0" id="text-entity-BOOK-12b90bf2-7af7-5ded-a124-d6647c4b972e-attr-2-type" class="er entityLabel">int</text><rect height="22.091796875" width="69.765625" y="46" x="40.75" class="er attributeBoxEven"/><text style="dominant-baseline: middle; font-size: 10.2px;" transform="translate(45.75,57.0458984375)" y="0" x="0" id="text-entity-BOOK-12b90bf2-7af7-5ded-a124-d6647c4b972e-attr-2-name" class="er entityLabel">libraryId</text><rect height="22.091797828674316" width="40.75" y="68.091796875" x="0" class="er attributeBoxOdd"/><text style="dominant-baseline: middle; font-size: 10.2px;" transform="translate(5,79.13769578933716)" y="0" x="0" id="text-entity-BOOK-12b90bf2-7af7-5ded-a124-d6647c4b972e-attr-3-type" class="er entityLabel">string</text><rect height="22.091797828674316" width="69.765625" y="68.091796875" x="40.75" class="er attributeBoxOdd"/><text style="dominant-baseline: middle; font-size: 10.2px;" transform="translate(45.75,79.13769578933716)" y="0" x="0" id="text-entity-BOOK-12b90bf2-7af7-5ded-a124-d6647c4b972e-attr-3-name" class="er entityLabel">serialnumber</text><rect height="22.091797828674316" width="40.75" y="90.18359470367432" x="0" class="er attributeBoxEven"/><text style="dominant-baseline: middle; font-size: 10.2px;" transform="translate(5,101.22949361801147)" y="0" x="0" id="text-entity-BOOK-12b90bf2-7af7-5ded-a124-d6647c4b972e-attr-4-type" class="er entityLabel">string</text><rect height="22.091797828674316" width="69.765625" y="90.18359470367432" x="40.75" class="er attributeBoxEven"/><text style="dominant-baseline: middle; font-size: 10.2px;" transform="translate(45.75,101.22949361801147)" y="0" x="0" id="text-entity-BOOK-12b90bf2-7af7-5ded-a124-d6647c4b972e-attr-4-name" class="er entityLabel">title</text><rect height="22.091797828674316" width="40.75" y="112.27539253234863" x="0" class="er attributeBoxOdd"/><text style="dominant-baseline: middle; font-size: 10.2px;" transform="translate(5,123.32129144668579)" y="0" x="0" id="text-entity-BOOK-12b90bf2-7af7-5ded-a124-d6647c4b972e-attr-5-type" class="er entityLabel">string</text><rect height="22.091797828674316" width="69.765625" y="112.27539253234863" x="40.75" class="er attributeBoxOdd"/><text style="dominant-baseline: middle; font-size: 10.2px;" transform="translate(45.75,123.32129144668579)" y="0" x="0" id="text-entity-BOOK-12b90bf2-7af7-5ded-a124-d6647c4b972e-attr-5-name" class="er entityLabel">author</text><rect height="22.091797828674316" width="40.75" y="134.36719036102295" x="0" class="er attributeBoxEven"/><text style="dominant-baseline: middle; font-size: 10.2px;" transform="translate(5,145.4130892753601)" y="0" x="0" id="text-entity-BOOK-12b90bf2-7af7-5ded-a124-d6647c4b972e-attr-6-type" class="er entityLabel">string</text><rect height="22.091797828674316" width="69.765625" y="134.36719036102295" x="40.75" class="er attributeBoxEven"/><text style="dominant-baseline: middle; font-size: 10.2px;" transform="translate(45.75,145.4130892753601)" y="0" x="0" id="text-entity-BOOK-12b90bf2-7af7-5ded-a124-d6647c4b972e-attr-6-name" class="er entityLabel">description</text><rect height="22.091796875" width="40.75" y="156.45898818969727" x="0" class="er attributeBoxOdd"/><text style="dominant-baseline: middle; font-size: 10.2px;" transform="translate(5,167.50488662719727)" y="0" x="0" id="text-entity-BOOK-12b90bf2-7af7-5ded-a124-d6647c4b972e-attr-7-type" class="er entityLabel">ennum</text><rect height="22.091796875" width="69.765625" y="156.45898818969727" x="40.75" class="er attributeBoxOdd"/><text style="dominant-baseline: middle; font-size: 10.2px;" transform="translate(45.75,167.50488662719727)" y="0" x="0" id="text-entity-BOOK-12b90bf2-7af7-5ded-a124-d6647c4b972e-attr-7-name" class="er entityLabel">category</text><rect height="22" width="40.75" y="178.55078506469727" x="0" class="er attributeBoxEven"/><text style="dominant-baseline: middle; font-size: 10.2px;" transform="translate(5,189.55078506469727)" y="0" x="0" id="text-entity-BOOK-12b90bf2-7af7-5ded-a124-d6647c4b972e-attr-8-type" class="er entityLabel">ennum</text><rect height="22" width="69.765625" y="178.55078506469727" x="40.75" class="er attributeBoxEven"/><text style="dominant-baseline: middle; font-size: 10.2px;" transform="translate(45.75,189.55078506469727)" y="0" x="0" id="text-entity-BOOK-12b90bf2-7af7-5ded-a124-d6647c4b972e-attr-8-name" class="er entityLabel">onlineStatus</text><rect height="22" width="40.75" y="200.55078506469727" x="0" class="er attributeBoxOdd"/><text style="dominant-baseline: middle; font-size: 10.2px;" transform="translate(5,211.55078506469727)" y="0" x="0" id="text-entity-BOOK-12b90bf2-7af7-5ded-a124-d6647c4b972e-attr-9-type" class="er entityLabel">bool</text><rect height="22" width="69.765625" y="200.55078506469727" x="40.75" class="er attributeBoxOdd"/><text style="dominant-baseline: middle; font-size: 10.2px;" transform="translate(45.75,211.55078506469727)" y="0" x="0" id="text-entity-BOOK-12b90bf2-7af7-5ded-a124-d6647c4b972e-attr-9-name" class="er entityLabel">reserved</text></g><g transform="translate(230.515625,64.091796875 )" id="entity-USER-6e7e2962-0c6f-577d-a7fd-2ce3a0cfd2c8"><rect height="134.36719131469727" width="100" y="0" x="0" class="er entityBox"/><text style="dominant-baseline: middle; text-anchor: middle; font-size: 12px;" transform="translate(50,12)" y="0" x="0" id="text-entity-USER-6e7e2962-0c6f-577d-a7fd-2ce3a0cfd2c8" class="er entityLabel">USER</text><rect height="22" width="40.7734375" y="24" x="0" class="er attributeBoxOdd"/><text style="dominant-baseline: middle; font-size: 10.2px;" transform="translate(5,35)" y="0" x="0" id="text-entity-USER-6e7e2962-0c6f-577d-a7fd-2ce3a0cfd2c8-attr-1-type" class="er entityLabel">int</text><rect height="22" width="59.2265625" y="24" x="40.7734375" class="er attributeBoxOdd"/><text style="dominant-baseline: middle; font-size: 10.2px;" transform="translate(45.7734375,35)" y="0" x="0" id="text-entity-USER-6e7e2962-0c6f-577d-a7fd-2ce3a0cfd2c8-attr-1-name" class="er entityLabel">id</text><rect height="22.091797828674316" width="40.7734375" y="46" x="0" class="er attributeBoxEven"/><text style="dominant-baseline: middle; font-size: 10.2px;" transform="translate(5,57.04589891433716)" y="0" x="0" id="text-entity-USER-6e7e2962-0c6f-577d-a7fd-2ce3a0cfd2c8-attr-2-type" class="er entityLabel">string</text><rect height="22.091797828674316" width="59.2265625" y="46" x="40.7734375" class="er attributeBoxEven"/><text style="dominant-baseline: middle; font-size: 10.2px;" transform="translate(45.7734375,57.04589891433716)" y="0" x="0" id="text-entity-USER-6e7e2962-0c6f-577d-a7fd-2ce3a0cfd2c8-attr-2-name" class="er entityLabel">username</text><rect height="22.091797828674316" width="40.7734375" y="68.09179782867432" x="0" class="er attributeBoxOdd"/><text style="dominant-baseline: middle; font-size: 10.2px;" transform="translate(5,79.13769674301147)" y="0" x="0" id="text-entity-USER-6e7e2962-0c6f-577d-a7fd-2ce3a0cfd2c8-attr-3-type" class="er entityLabel">string</text><rect height="22.091797828674316" width="59.2265625" y="68.09179782867432" x="40.7734375" class="er attributeBoxOdd"/><text style="dominant-baseline: middle; font-size: 10.2px;" transform="translate(45.7734375,79.13769674301147)" y="0" x="0" id="text-entity-USER-6e7e2962-0c6f-577d-a7fd-2ce3a0cfd2c8-attr-3-name" class="er entityLabel">password</text><rect height="22.091797828674316" width="40.7734375" y="90.18359565734863" x="0" class="er attributeBoxEven"/><text style="dominant-baseline: middle; font-size: 10.2px;" transform="translate(5,101.22949457168579)" y="0" x="0" id="text-entity-USER-6e7e2962-0c6f-577d-a7fd-2ce3a0cfd2c8-attr-4-type" class="er entityLabel">string</text><rect height="22.091797828674316" width="59.2265625" y="90.18359565734863" x="40.7734375" class="er attributeBoxEven"/><text style="dominant-baseline: middle; font-size: 10.2px;" transform="translate(45.7734375,101.22949457168579)" y="0" x="0" id="text-entity-USER-6e7e2962-0c6f-577d-a7fd-2ce3a0cfd2c8-attr-4-name" class="er entityLabel">email</text><rect height="22.091797828674316" width="40.7734375" y="112.27539348602295" x="0" class="er attributeBoxOdd"/><text style="dominant-baseline: middle; font-size: 10.2px;" transform="translate(5,123.32129240036011)" y="0" x="0" id="text-entity-USER-6e7e2962-0c6f-577d-a7fd-2ce3a0cfd2c8-attr-5-type" class="er entityLabel">string</text><rect height="22.091797828674316" width="59.2265625" y="112.27539348602295" x="40.7734375" class="er attributeBoxOdd"/><text style="dominant-baseline: middle; font-size: 10.2px;" transform="translate(45.7734375,123.32129240036011)" y="0" x="0" id="text-entity-USER-6e7e2962-0c6f-577d-a7fd-2ce3a0cfd2c8-attr-5-name" class="er entityLabel">phone</text></g></svg>