<svg aria-roledescription="er" role="graphics-document document" viewBox="0 -62 416.3515625 1115.376953125" style="max-width: 416.352px; background-color: white;" xmlns:xlink="http://www.w3.org/1999/xlink" xmlns="http://www.w3.org/2000/svg" width="100%" id="my-svg"><style>#my-svg{font-family:"trebuchet ms",verdana,arial,sans-serif;font-size:16px;fill:#333;}#my-svg .error-icon{fill:#552222;}#my-svg .error-text{fill:#552222;stroke:#552222;}#my-svg .edge-thickness-normal{stroke-width:1px;}#my-svg .edge-thickness-thick{stroke-width:3.5px;}#my-svg .edge-pattern-solid{stroke-dasharray:0;}#my-svg .edge-thickness-invisible{stroke-width:0;fill:none;}#my-svg .edge-pattern-dashed{stroke-dasharray:3;}#my-svg .edge-pattern-dotted{stroke-dasharray:2;}#my-svg .marker{fill:#333333;stroke:#333333;}#my-svg .marker.cross{stroke:#333333;}#my-svg svg{font-family:"trebuchet ms",verdana,arial,sans-serif;font-size:16px;}#my-svg p{margin:0;}#my-svg .entityBox{fill:#ECECFF;stroke:#9370DB;}#my-svg .attributeBoxOdd{fill:#ffffff;stroke:#9370DB;}#my-svg .attributeBoxEven{fill:#f2f2f2;stroke:#9370DB;}#my-svg .relationshipLabelBox{fill:hsl(80, 100%, 96.2745098039%);opacity:0.7;background-color:hsl(80, 100%, 96.2745098039%);}#my-svg .relationshipLabelBox rect{opacity:0.5;}#my-svg .relationshipLine{stroke:#333333;}#my-svg .entityTitleText{text-anchor:middle;font-size:18px;fill:#333;}#my-svg #MD_PARENT_START{fill:#f5f5f5!important;stroke:#333333!important;stroke-width:1;}#my-svg #MD_PARENT_END{fill:#f5f5f5!important;stroke:#333333!important;stroke-width:1;}#my-svg :root{--mermaid-font-family:"trebuchet ms",verdana,arial,sans-serif;}</style><g/><defs><marker orient="auto" markerHeight="240" markerWidth="190" refY="7" refX="0" id="MD_PARENT_START"><path d="M 18,7 L9,13 L1,7 L9,1 Z"/></marker></defs><defs><marker orient="auto" markerHeight="28" markerWidth="20" refY="7" refX="19" id="MD_PARENT_END"><path d="M 18,7 L9,13 L1,7 L9,1 Z"/></marker></defs><defs><marker orient="auto" markerHeight="18" markerWidth="18" refY="9" refX="0" id="ONLY_ONE_START"><path d="M9,0 L9,18 M15,0 L15,18" fill="none" stroke="gray"/></marker></defs><defs><marker orient="auto" markerHeight="18" markerWidth="18" refY="9" refX="18" id="ONLY_ONE_END"><path d="M3,0 L3,18 M9,0 L9,18" fill="none" stroke="gray"/></marker></defs><defs><marker orient="auto" markerHeight="18" markerWidth="30" refY="9" refX="0" id="ZERO_OR_ONE_START"><circle r="6" cy="9" cx="21" fill="white" stroke="gray"/><path d="M9,0 L9,18" fill="none" stroke="gray"/></marker></defs><defs><marker orient="auto" markerHeight="18" markerWidth="30" refY="9" refX="30" id="ZERO_OR_ONE_END"><circle r="6" cy="9" cx="9" fill="white" stroke="gray"/><path d="M21,0 L21,18" fill="none" stroke="gray"/></marker></defs><defs><marker orient="auto" markerHeight="36" markerWidth="45" refY="18" refX="18" id="ONE_OR_MORE_START"><path d="M0,18 Q 18,0 36,18 Q 18,36 0,18 M42,9 L42,27" fill="none" stroke="gray"/></marker></defs><defs><marker orient="auto" markerHeight="36" markerWidth="45" refY="18" refX="27" id="ONE_OR_MORE_END"><path d="M3,9 L3,27 M9,18 Q27,0 45,18 Q27,36 9,18" fill="none" stroke="gray"/></marker></defs><defs><marker orient="auto" markerHeight="36" markerWidth="57" refY="18" refX="18" id="ZERO_OR_MORE_START"><circle r="6" cy="18" cx="48" fill="white" stroke="gray"/><path d="M0,18 Q18,0 36,18 Q18,36 0,18" fill="none" stroke="gray"/></marker></defs><defs><marker orient="auto" markerHeight="36" markerWidth="57" refY="18" refX="39" id="ZERO_OR_MORE_END"><circle r="6" cy="18" cx="9" fill="white" stroke="gray"/><path d="M21,18 Q39,0 57,18 Q39,36 21,18" fill="none" stroke="gray"/></marker></defs><path style="stroke: gray; fill: none;" marker-start="url(#ONLY_ONE_START)" marker-end="url(#ONLY_ONE_END)" d="M205.547,286.643L205.547,294.976C205.547,303.309,205.547,319.976,205.547,336.643C205.547,353.309,205.547,369.976,205.547,378.309L205.547,386.643" class="er relationshipLine"/><path style="stroke: gray; fill: none;" marker-start="url(#ONLY_ONE_START)" marker-end="url(#ZERO_OR_MORE_END)" d="M137.773,538.59L129.44,547.66C121.107,556.73,104.44,574.87,96.107,595.932C87.773,616.994,87.773,640.979,87.773,652.972L87.773,664.964" class="er relationshipLine"/><path style="stroke: gray; fill: none;" marker-start="url(#ZERO_OR_ONE_START)" marker-end="url(#ZERO_OR_MORE_END)" d="M273.32,538.59L281.654,547.66C289.987,556.73,306.654,574.87,314.987,592.273C323.32,609.676,323.32,626.343,323.32,634.676L323.32,643.01" class="er relationshipLine"/><path style="stroke: gray; fill: none;" marker-start="url(#ONLY_ONE_START)" marker-end="url(#ONLY_ONE_END)" d="M323.32,821.102L323.32,829.435C323.32,837.768,323.32,854.435,323.32,871.102C323.32,887.768,323.32,904.435,323.32,912.768L323.32,921.102" class="er relationshipLine"/><g transform="translate(129.6875,20 )" id="entity-USERDATA-4199e69a-a86a-59cb-92d2-10f6e3d315f4"><rect height="266.6425838470459" width="151.71875" y="0" x="0" class="er entityBox"/><text style="dominant-baseline: middle; text-anchor: middle; font-size: 12px;" transform="translate(75.859375,12)" y="0" x="0" id="text-entity-USERDATA-4199e69a-a86a-59cb-92d2-10f6e3d315f4" class="er entityLabel">USER_DATA</text><rect height="22" width="51.640625" y="24" x="0" class="er attributeBoxOdd"/><text style="dominant-baseline: middle; font-size: 10.2px;" transform="translate(5,35)" y="0" x="0" id="text-entity-USERDATA-4199e69a-a86a-59cb-92d2-10f6e3d315f4-attr-1-type" class="er entityLabel">serial</text><rect height="22" width="78.515625" y="24" x="51.640625" class="er attributeBoxOdd"/><text style="dominant-baseline: middle; font-size: 10.2px;" transform="translate(56.640625,35)" y="0" x="0" id="text-entity-USERDATA-4199e69a-a86a-59cb-92d2-10f6e3d315f4-attr-1-name" class="er entityLabel">id</text><rect height="22" width="21.5625" y="24" x="130.15625" class="er attributeBoxOdd"/><text style="dominant-baseline: middle; font-size: 10.2px;" transform="translate(135.15625,35)" y="0" x="0" id="text-entity-USERDATA-4199e69a-a86a-59cb-92d2-10f6e3d315f4-attr-1-key" class="er entityLabel">PK</text><rect height="22" width="51.640625" y="46" x="0" class="er attributeBoxEven"/><text style="dominant-baseline: middle; font-size: 10.2px;" transform="translate(5,57)" y="0" x="0" id="text-entity-USERDATA-4199e69a-a86a-59cb-92d2-10f6e3d315f4-attr-2-type" class="er entityLabel">int</text><rect height="22" width="78.515625" y="46" x="51.640625" class="er attributeBoxEven"/><text style="dominant-baseline: middle; font-size: 10.2px;" transform="translate(56.640625,57)" y="0" x="0" id="text-entity-USERDATA-4199e69a-a86a-59cb-92d2-10f6e3d315f4-attr-2-name" class="er entityLabel">user_id</text><rect height="22" width="21.5625" y="46" x="130.15625" class="er attributeBoxEven"/><text style="dominant-baseline: middle; font-size: 10.2px;" transform="translate(135.15625,57)" y="0" x="0" id="text-entity-USERDATA-4199e69a-a86a-59cb-92d2-10f6e3d315f4-attr-2-key" class="er entityLabel">FK</text><rect height="22.091797828674316" width="51.640625" y="68" x="0" class="er attributeBoxOdd"/><text style="dominant-baseline: middle; font-size: 10.2px;" transform="translate(5,79.04589891433716)" y="0" x="0" id="text-entity-USERDATA-4199e69a-a86a-59cb-92d2-10f6e3d315f4-attr-3-type" class="er entityLabel">string</text><rect height="22.091797828674316" width="78.515625" y="68" x="51.640625" class="er attributeBoxOdd"/><text style="dominant-baseline: middle; font-size: 10.2px;" transform="translate(56.640625,79.04589891433716)" y="0" x="0" id="text-entity-USERDATA-4199e69a-a86a-59cb-92d2-10f6e3d315f4-attr-3-name" class="er entityLabel">first_name</text><rect height="22.091797828674316" width="21.5625" y="68" x="130.15625" class="er attributeBoxOdd"/><text style="dominant-baseline: middle; font-size: 10.2px;" transform="translate(135.15625,79.04589891433716)" y="0" x="0" id="text-entity-USERDATA-4199e69a-a86a-59cb-92d2-10f6e3d315f4-attr-3-key" class="er entityLabel"/><rect height="22.091797828674316" width="51.640625" y="90.09179782867432" x="0" class="er attributeBoxEven"/><text style="dominant-baseline: middle; font-size: 10.2px;" transform="translate(5,101.13769674301147)" y="0" x="0" id="text-entity-USERDATA-4199e69a-a86a-59cb-92d2-10f6e3d315f4-attr-4-type" class="er entityLabel">string</text><rect height="22.091797828674316" width="78.515625" y="90.09179782867432" x="51.640625" class="er attributeBoxEven"/><text style="dominant-baseline: middle; font-size: 10.2px;" transform="translate(56.640625,101.13769674301147)" y="0" x="0" id="text-entity-USERDATA-4199e69a-a86a-59cb-92d2-10f6e3d315f4-attr-4-name" class="er entityLabel">last_name</text><rect height="22.091797828674316" width="21.5625" y="90.09179782867432" x="130.15625" class="er attributeBoxEven"/><text style="dominant-baseline: middle; font-size: 10.2px;" transform="translate(135.15625,101.13769674301147)" y="0" x="0" id="text-entity-USERDATA-4199e69a-a86a-59cb-92d2-10f6e3d315f4-attr-4-key" class="er entityLabel"/><rect height="22" width="51.640625" y="112.18359565734863" x="0" class="er attributeBoxOdd"/><text style="dominant-baseline: middle; font-size: 10.2px;" transform="translate(5,123.18359565734863)" y="0" x="0" id="text-entity-USERDATA-4199e69a-a86a-59cb-92d2-10f6e3d315f4-attr-5-type" class="er entityLabel">date</text><rect height="22" width="78.515625" y="112.18359565734863" x="51.640625" class="er attributeBoxOdd"/><text style="dominant-baseline: middle; font-size: 10.2px;" transform="translate(56.640625,123.18359565734863)" y="0" x="0" id="text-entity-USERDATA-4199e69a-a86a-59cb-92d2-10f6e3d315f4-attr-5-name" class="er entityLabel">date_of_birth</text><rect height="22" width="21.5625" y="112.18359565734863" x="130.15625" class="er attributeBoxOdd"/><text style="dominant-baseline: middle; font-size: 10.2px;" transform="translate(135.15625,123.18359565734863)" y="0" x="0" id="text-entity-USERDATA-4199e69a-a86a-59cb-92d2-10f6e3d315f4-attr-5-key" class="er entityLabel"/><rect height="22.091797828674316" width="51.640625" y="134.18359565734863" x="0" class="er attributeBoxEven"/><text style="dominant-baseline: middle; font-size: 10.2px;" transform="translate(5,145.2294945716858)" y="0" x="0" id="text-entity-USERDATA-4199e69a-a86a-59cb-92d2-10f6e3d315f4-attr-6-type" class="er entityLabel">string</text><rect height="22.091797828674316" width="78.515625" y="134.18359565734863" x="51.640625" class="er attributeBoxEven"/><text style="dominant-baseline: middle; font-size: 10.2px;" transform="translate(56.640625,145.2294945716858)" y="0" x="0" id="text-entity-USERDATA-4199e69a-a86a-59cb-92d2-10f6e3d315f4-attr-6-name" class="er entityLabel">gender</text><rect height="22.091797828674316" width="21.5625" y="134.18359565734863" x="130.15625" class="er attributeBoxEven"/><text style="dominant-baseline: middle; font-size: 10.2px;" transform="translate(135.15625,145.2294945716858)" y="0" x="0" id="text-entity-USERDATA-4199e69a-a86a-59cb-92d2-10f6e3d315f4-attr-6-key" class="er entityLabel"/><rect height="22.091797828674316" width="51.640625" y="156.27539348602295" x="0" class="er attributeBoxOdd"/><text style="dominant-baseline: middle; font-size: 10.2px;" transform="translate(5,167.3212924003601)" y="0" x="0" id="text-entity-USERDATA-4199e69a-a86a-59cb-92d2-10f6e3d315f4-attr-7-type" class="er entityLabel">string</text><rect height="22.091797828674316" width="78.515625" y="156.27539348602295" x="51.640625" class="er attributeBoxOdd"/><text style="dominant-baseline: middle; font-size: 10.2px;" transform="translate(56.640625,167.3212924003601)" y="0" x="0" id="text-entity-USERDATA-4199e69a-a86a-59cb-92d2-10f6e3d315f4-attr-7-name" class="er entityLabel">phone_number</text><rect height="22.091797828674316" width="21.5625" y="156.27539348602295" x="130.15625" class="er attributeBoxOdd"/><text style="dominant-baseline: middle; font-size: 10.2px;" transform="translate(135.15625,167.3212924003601)" y="0" x="0" id="text-entity-USERDATA-4199e69a-a86a-59cb-92d2-10f6e3d315f4-attr-7-key" class="er entityLabel"/><rect height="22.091797828674316" width="51.640625" y="178.36719131469727" x="0" class="er attributeBoxEven"/><text style="dominant-baseline: middle; font-size: 10.2px;" transform="translate(5,189.41309022903442)" y="0" x="0" id="text-entity-USERDATA-4199e69a-a86a-59cb-92d2-10f6e3d315f4-attr-8-type" class="er entityLabel">string</text><rect height="22.091797828674316" width="78.515625" y="178.36719131469727" x="51.640625" class="er attributeBoxEven"/><text style="dominant-baseline: middle; font-size: 10.2px;" transform="translate(56.640625,189.41309022903442)" y="0" x="0" id="text-entity-USERDATA-4199e69a-a86a-59cb-92d2-10f6e3d315f4-attr-8-name" class="er entityLabel">profile_picture</text><rect height="22.091797828674316" width="21.5625" y="178.36719131469727" x="130.15625" class="er attributeBoxEven"/><text style="dominant-baseline: middle; font-size: 10.2px;" transform="translate(135.15625,189.41309022903442)" y="0" x="0" id="text-entity-USERDATA-4199e69a-a86a-59cb-92d2-10f6e3d315f4-attr-8-key" class="er entityLabel"/><rect height="22.091797828674316" width="51.640625" y="200.45898914337158" x="0" class="er attributeBoxOdd"/><text style="dominant-baseline: middle; font-size: 10.2px;" transform="translate(5,211.50488805770874)" y="0" x="0" id="text-entity-USERDATA-4199e69a-a86a-59cb-92d2-10f6e3d315f4-attr-9-type" class="er entityLabel">string</text><rect height="22.091797828674316" width="78.515625" y="200.45898914337158" x="51.640625" class="er attributeBoxOdd"/><text style="dominant-baseline: middle; font-size: 10.2px;" transform="translate(56.640625,211.50488805770874)" y="0" x="0" id="text-entity-USERDATA-4199e69a-a86a-59cb-92d2-10f6e3d315f4-attr-9-name" class="er entityLabel">cover_picture</text><rect height="22.091797828674316" width="21.5625" y="200.45898914337158" x="130.15625" class="er attributeBoxOdd"/><text style="dominant-baseline: middle; font-size: 10.2px;" transform="translate(135.15625,211.50488805770874)" y="0" x="0" id="text-entity-USERDATA-4199e69a-a86a-59cb-92d2-10f6e3d315f4-attr-9-key" class="er entityLabel"/><rect height="22" width="51.640625" y="222.5507869720459" x="0" class="er attributeBoxEven"/><text style="dominant-baseline: middle; font-size: 10.2px;" transform="translate(5,233.5507869720459)" y="0" x="0" id="text-entity-USERDATA-4199e69a-a86a-59cb-92d2-10f6e3d315f4-attr-10-type" class="er entityLabel">datetime</text><rect height="22" width="78.515625" y="222.5507869720459" x="51.640625" class="er attributeBoxEven"/><text style="dominant-baseline: middle; font-size: 10.2px;" transform="translate(56.640625,233.5507869720459)" y="0" x="0" id="text-entity-USERDATA-4199e69a-a86a-59cb-92d2-10f6e3d315f4-attr-10-name" class="er entityLabel">created_at</text><rect height="22" width="21.5625" y="222.5507869720459" x="130.15625" class="er attributeBoxEven"/><text style="dominant-baseline: middle; font-size: 10.2px;" transform="translate(135.15625,233.5507869720459)" y="0" x="0" id="text-entity-USERDATA-4199e69a-a86a-59cb-92d2-10f6e3d315f4-attr-10-key" class="er entityLabel"/><rect height="22.091796875" width="51.640625" y="244.5507869720459" x="0" class="er attributeBoxOdd"/><text style="dominant-baseline: middle; font-size: 10.2px;" transform="translate(5,255.5966854095459)" y="0" x="0" id="text-entity-USERDATA-4199e69a-a86a-59cb-92d2-10f6e3d315f4-attr-11-type" class="er entityLabel">datetime</text><rect height="22.091796875" width="78.515625" y="244.5507869720459" x="51.640625" class="er attributeBoxOdd"/><text style="dominant-baseline: middle; font-size: 10.2px;" transform="translate(56.640625,255.5966854095459)" y="0" x="0" id="text-entity-USERDATA-4199e69a-a86a-59cb-92d2-10f6e3d315f4-attr-11-name" class="er entityLabel">updated_at</text><rect height="22.091796875" width="21.5625" y="244.5507869720459" x="130.15625" class="er attributeBoxOdd"/><text style="dominant-baseline: middle; font-size: 10.2px;" transform="translate(135.15625,255.5966854095459)" y="0" x="0" id="text-entity-USERDATA-4199e69a-a86a-59cb-92d2-10f6e3d315f4-attr-11-key" class="er entityLabel"/></g><g transform="translate(137.7734375,386.642578125 )" id="entity-USER-6e7e2962-0c6f-577d-a7fd-2ce3a0cfd2c8"><rect height="156.36719036102295" width="135.546875" y="0" x="0" class="er entityBox"/><text style="dominant-baseline: middle; text-anchor: middle; font-size: 12px;" transform="translate(67.7734375,12)" y="0" x="0" id="text-entity-USER-6e7e2962-0c6f-577d-a7fd-2ce3a0cfd2c8" class="er entityLabel">USER</text><rect height="22" width="51.640625" y="24" x="0" class="er attributeBoxOdd"/><text style="dominant-baseline: middle; font-size: 10.2px;" transform="translate(5,35)" y="0" x="0" id="text-entity-USER-6e7e2962-0c6f-577d-a7fd-2ce3a0cfd2c8-attr-1-type" class="er entityLabel">serial</text><rect height="22" width="62.34375" y="24" x="51.640625" class="er attributeBoxOdd"/><text style="dominant-baseline: middle; font-size: 10.2px;" transform="translate(56.640625,35)" y="0" x="0" id="text-entity-USER-6e7e2962-0c6f-577d-a7fd-2ce3a0cfd2c8-attr-1-name" class="er entityLabel">id</text><rect height="22" width="21.5625" y="24" x="113.984375" class="er attributeBoxOdd"/><text style="dominant-baseline: middle; font-size: 10.2px;" transform="translate(118.984375,35)" y="0" x="0" id="text-entity-USER-6e7e2962-0c6f-577d-a7fd-2ce3a0cfd2c8-attr-1-key" class="er entityLabel">PK</text><rect height="22.091797828674316" width="51.640625" y="46" x="0" class="er attributeBoxEven"/><text style="dominant-baseline: middle; font-size: 10.2px;" transform="translate(5,57.04589891433716)" y="0" x="0" id="text-entity-USER-6e7e2962-0c6f-577d-a7fd-2ce3a0cfd2c8-attr-2-type" class="er entityLabel">string</text><rect height="22.091797828674316" width="62.34375" y="46" x="51.640625" class="er attributeBoxEven"/><text style="dominant-baseline: middle; font-size: 10.2px;" transform="translate(56.640625,57.04589891433716)" y="0" x="0" id="text-entity-USER-6e7e2962-0c6f-577d-a7fd-2ce3a0cfd2c8-attr-2-name" class="er entityLabel">username</text><rect height="22.091797828674316" width="21.5625" y="46" x="113.984375" class="er attributeBoxEven"/><text style="dominant-baseline: middle; font-size: 10.2px;" transform="translate(118.984375,57.04589891433716)" y="0" x="0" id="text-entity-USER-6e7e2962-0c6f-577d-a7fd-2ce3a0cfd2c8-attr-2-key" class="er entityLabel"/><rect height="22.091797828674316" width="51.640625" y="68.09179782867432" x="0" class="er attributeBoxOdd"/><text style="dominant-baseline: middle; font-size: 10.2px;" transform="translate(5,79.13769674301147)" y="0" x="0" id="text-entity-USER-6e7e2962-0c6f-577d-a7fd-2ce3a0cfd2c8-attr-3-type" class="er entityLabel">string</text><rect height="22.091797828674316" width="62.34375" y="68.09179782867432" x="51.640625" class="er attributeBoxOdd"/><text style="dominant-baseline: middle; font-size: 10.2px;" transform="translate(56.640625,79.13769674301147)" y="0" x="0" id="text-entity-USER-6e7e2962-0c6f-577d-a7fd-2ce3a0cfd2c8-attr-3-name" class="er entityLabel">email</text><rect height="22.091797828674316" width="21.5625" y="68.09179782867432" x="113.984375" class="er attributeBoxOdd"/><text style="dominant-baseline: middle; font-size: 10.2px;" transform="translate(118.984375,79.13769674301147)" y="0" x="0" id="text-entity-USER-6e7e2962-0c6f-577d-a7fd-2ce3a0cfd2c8-attr-3-key" class="er entityLabel"/><rect height="22.091797828674316" width="51.640625" y="90.18359565734863" x="0" class="er attributeBoxEven"/><text style="dominant-baseline: middle; font-size: 10.2px;" transform="translate(5,101.22949457168579)" y="0" x="0" id="text-entity-USER-6e7e2962-0c6f-577d-a7fd-2ce3a0cfd2c8-attr-4-type" class="er entityLabel">string</text><rect height="22.091797828674316" width="62.34375" y="90.18359565734863" x="51.640625" class="er attributeBoxEven"/><text style="dominant-baseline: middle; font-size: 10.2px;" transform="translate(56.640625,101.22949457168579)" y="0" x="0" id="text-entity-USER-6e7e2962-0c6f-577d-a7fd-2ce3a0cfd2c8-attr-4-name" class="er entityLabel">password</text><rect height="22.091797828674316" width="21.5625" y="90.18359565734863" x="113.984375" class="er attributeBoxEven"/><text style="dominant-baseline: middle; font-size: 10.2px;" transform="translate(118.984375,101.22949457168579)" y="0" x="0" id="text-entity-USER-6e7e2962-0c6f-577d-a7fd-2ce3a0cfd2c8-attr-4-key" class="er entityLabel"/><rect height="22" width="51.640625" y="112.27539348602295" x="0" class="er attributeBoxOdd"/><text style="dominant-baseline: middle; font-size: 10.2px;" transform="translate(5,123.27539348602295)" y="0" x="0" id="text-entity-USER-6e7e2962-0c6f-577d-a7fd-2ce3a0cfd2c8-attr-5-type" class="er entityLabel">datetime</text><rect height="22" width="62.34375" y="112.27539348602295" x="51.640625" class="er attributeBoxOdd"/><text style="dominant-baseline: middle; font-size: 10.2px;" transform="translate(56.640625,123.27539348602295)" y="0" x="0" id="text-entity-USER-6e7e2962-0c6f-577d-a7fd-2ce3a0cfd2c8-attr-5-name" class="er entityLabel">created_at</text><rect height="22" width="21.5625" y="112.27539348602295" x="113.984375" class="er attributeBoxOdd"/><text style="dominant-baseline: middle; font-size: 10.2px;" transform="translate(118.984375,123.27539348602295)" y="0" x="0" id="text-entity-USER-6e7e2962-0c6f-577d-a7fd-2ce3a0cfd2c8-attr-5-key" class="er entityLabel"/><rect height="22.091796875" width="51.640625" y="134.27539348602295" x="0" class="er attributeBoxEven"/><text style="dominant-baseline: middle; font-size: 10.2px;" transform="translate(5,145.32129192352295)" y="0" x="0" id="text-entity-USER-6e7e2962-0c6f-577d-a7fd-2ce3a0cfd2c8-attr-6-type" class="er entityLabel">datetime</text><rect height="22.091796875" width="62.34375" y="134.27539348602295" x="51.640625" class="er attributeBoxEven"/><text style="dominant-baseline: middle; font-size: 10.2px;" transform="translate(56.640625,145.32129192352295)" y="0" x="0" id="text-entity-USER-6e7e2962-0c6f-577d-a7fd-2ce3a0cfd2c8-attr-6-name" class="er entityLabel">updated_at</text><rect height="22.091796875" width="21.5625" y="134.27539348602295" x="113.984375" class="er attributeBoxEven"/><text style="dominant-baseline: middle; font-size: 10.2px;" transform="translate(118.984375,145.32129192352295)" y="0" x="0" id="text-entity-USER-6e7e2962-0c6f-577d-a7fd-2ce3a0cfd2c8-attr-6-key" class="er entityLabel"/></g><g transform="translate(20,664.9638671875 )" id="entity-OLDPASSWORD-db615776-c261-5107-9742-06055330bc16"><rect height="134.18359470367432" width="135.546875" y="0" x="0" class="er entityBox"/><text style="dominant-baseline: middle; text-anchor: middle; font-size: 12px;" transform="translate(67.7734375,12)" y="0" x="0" id="text-entity-OLDPASSWORD-db615776-c261-5107-9742-06055330bc16" class="er entityLabel">OLD_PASSWORD</text><rect height="22" width="51.640625" y="24" x="0" class="er attributeBoxOdd"/><text style="dominant-baseline: middle; font-size: 10.2px;" transform="translate(5,35)" y="0" x="0" id="text-entity-OLDPASSWORD-db615776-c261-5107-9742-06055330bc16-attr-1-type" class="er entityLabel">serial</text><rect height="22" width="62.34375" y="24" x="51.640625" class="er attributeBoxOdd"/><text style="dominant-baseline: middle; font-size: 10.2px;" transform="translate(56.640625,35)" y="0" x="0" id="text-entity-OLDPASSWORD-db615776-c261-5107-9742-06055330bc16-attr-1-name" class="er entityLabel">id</text><rect height="22" width="21.5625" y="24" x="113.984375" class="er attributeBoxOdd"/><text style="dominant-baseline: middle; font-size: 10.2px;" transform="translate(118.984375,35)" y="0" x="0" id="text-entity-OLDPASSWORD-db615776-c261-5107-9742-06055330bc16-attr-1-key" class="er entityLabel">PK</text><rect height="22" width="51.640625" y="46" x="0" class="er attributeBoxEven"/><text style="dominant-baseline: middle; font-size: 10.2px;" transform="translate(5,57)" y="0" x="0" id="text-entity-OLDPASSWORD-db615776-c261-5107-9742-06055330bc16-attr-2-type" class="er entityLabel">int</text><rect height="22" width="62.34375" y="46" x="51.640625" class="er attributeBoxEven"/><text style="dominant-baseline: middle; font-size: 10.2px;" transform="translate(56.640625,57)" y="0" x="0" id="text-entity-OLDPASSWORD-db615776-c261-5107-9742-06055330bc16-attr-2-name" class="er entityLabel">user_id</text><rect height="22" width="21.5625" y="46" x="113.984375" class="er attributeBoxEven"/><text style="dominant-baseline: middle; font-size: 10.2px;" transform="translate(118.984375,57)" y="0" x="0" id="text-entity-OLDPASSWORD-db615776-c261-5107-9742-06055330bc16-attr-2-key" class="er entityLabel">FK</text><rect height="22.091797828674316" width="51.640625" y="68" x="0" class="er attributeBoxOdd"/><text style="dominant-baseline: middle; font-size: 10.2px;" transform="translate(5,79.04589891433716)" y="0" x="0" id="text-entity-OLDPASSWORD-db615776-c261-5107-9742-06055330bc16-attr-3-type" class="er entityLabel">string</text><rect height="22.091797828674316" width="62.34375" y="68" x="51.640625" class="er attributeBoxOdd"/><text style="dominant-baseline: middle; font-size: 10.2px;" transform="translate(56.640625,79.04589891433716)" y="0" x="0" id="text-entity-OLDPASSWORD-db615776-c261-5107-9742-06055330bc16-attr-3-name" class="er entityLabel">password</text><rect height="22.091797828674316" width="21.5625" y="68" x="113.984375" class="er attributeBoxOdd"/><text style="dominant-baseline: middle; font-size: 10.2px;" transform="translate(118.984375,79.04589891433716)" y="0" x="0" id="text-entity-OLDPASSWORD-db615776-c261-5107-9742-06055330bc16-attr-3-key" class="er entityLabel"/><rect height="22" width="51.640625" y="90.09179782867432" x="0" class="er attributeBoxEven"/><text style="dominant-baseline: middle; font-size: 10.2px;" transform="translate(5,101.09179782867432)" y="0" x="0" id="text-entity-OLDPASSWORD-db615776-c261-5107-9742-06055330bc16-attr-4-type" class="er entityLabel">datetime</text><rect height="22" width="62.34375" y="90.09179782867432" x="51.640625" class="er attributeBoxEven"/><text style="dominant-baseline: middle; font-size: 10.2px;" transform="translate(56.640625,101.09179782867432)" y="0" x="0" id="text-entity-OLDPASSWORD-db615776-c261-5107-9742-06055330bc16-attr-4-name" class="er entityLabel">created_at</text><rect height="22" width="21.5625" y="90.09179782867432" x="113.984375" class="er attributeBoxEven"/><text style="dominant-baseline: middle; font-size: 10.2px;" transform="translate(118.984375,101.09179782867432)" y="0" x="0" id="text-entity-OLDPASSWORD-db615776-c261-5107-9742-06055330bc16-attr-4-key" class="er entityLabel"/><rect height="22.091796875" width="51.640625" y="112.09179782867432" x="0" class="er attributeBoxOdd"/><text style="dominant-baseline: middle; font-size: 10.2px;" transform="translate(5,123.13769626617432)" y="0" x="0" id="text-entity-OLDPASSWORD-db615776-c261-5107-9742-06055330bc16-attr-5-type" class="er entityLabel">datetime</text><rect height="22.091796875" width="62.34375" y="112.09179782867432" x="51.640625" class="er attributeBoxOdd"/><text style="dominant-baseline: middle; font-size: 10.2px;" transform="translate(56.640625,123.13769626617432)" y="0" x="0" id="text-entity-OLDPASSWORD-db615776-c261-5107-9742-06055330bc16-attr-5-name" class="er entityLabel">updated_at</text><rect height="22.091796875" width="21.5625" y="112.09179782867432" x="113.984375" class="er attributeBoxOdd"/><text style="dominant-baseline: middle; font-size: 10.2px;" transform="translate(118.984375,123.13769626617432)" y="0" x="0" id="text-entity-OLDPASSWORD-db615776-c261-5107-9742-06055330bc16-attr-5-key" class="er entityLabel"/></g><g transform="translate(255.546875,643.009765625 )" id="entity-USERCHATUSER-79b85ce6-ab84-5137-8d79-571b45ad6601"><rect height="178.091796875" width="135.546875" y="0" x="0" class="er entityBox"/><text style="dominant-baseline: middle; text-anchor: middle; font-size: 12px;" transform="translate(67.7734375,12)" y="0" x="0" id="text-entity-USERCHATUSER-79b85ce6-ab84-5137-8d79-571b45ad6601" class="er entityLabel">USER_CHAT_USER</text><rect height="22" width="51.640625" y="24" x="0" class="er attributeBoxOdd"/><text style="dominant-baseline: middle; font-size: 10.2px;" transform="translate(5,35)" y="0" x="0" id="text-entity-USERCHATUSER-79b85ce6-ab84-5137-8d79-571b45ad6601-attr-1-type" class="er entityLabel">serial</text><rect height="22" width="62.34375" y="24" x="51.640625" class="er attributeBoxOdd"/><text style="dominant-baseline: middle; font-size: 10.2px;" transform="translate(56.640625,35)" y="0" x="0" id="text-entity-USERCHATUSER-79b85ce6-ab84-5137-8d79-571b45ad6601-attr-1-name" class="er entityLabel">id</text><rect height="22" width="21.5625" y="24" x="113.984375" class="er attributeBoxOdd"/><text style="dominant-baseline: middle; font-size: 10.2px;" transform="translate(118.984375,35)" y="0" x="0" id="text-entity-USERCHATUSER-79b85ce6-ab84-5137-8d79-571b45ad6601-attr-1-key" class="er entityLabel">PK</text><rect height="22" width="51.640625" y="46" x="0" class="er attributeBoxEven"/><text style="dominant-baseline: middle; font-size: 10.2px;" transform="translate(5,57)" y="0" x="0" id="text-entity-USERCHATUSER-79b85ce6-ab84-5137-8d79-571b45ad6601-attr-2-type" class="er entityLabel">int</text><rect height="22" width="62.34375" y="46" x="51.640625" class="er attributeBoxEven"/><text style="dominant-baseline: middle; font-size: 10.2px;" transform="translate(56.640625,57)" y="0" x="0" id="text-entity-USERCHATUSER-79b85ce6-ab84-5137-8d79-571b45ad6601-attr-2-name" class="er entityLabel">chat_id</text><rect height="22" width="21.5625" y="46" x="113.984375" class="er attributeBoxEven"/><text style="dominant-baseline: middle; font-size: 10.2px;" transform="translate(118.984375,57)" y="0" x="0" id="text-entity-USERCHATUSER-79b85ce6-ab84-5137-8d79-571b45ad6601-attr-2-key" class="er entityLabel">FK</text><rect height="22" width="51.640625" y="68" x="0" class="er attributeBoxOdd"/><text style="dominant-baseline: middle; font-size: 10.2px;" transform="translate(5,79)" y="0" x="0" id="text-entity-USERCHATUSER-79b85ce6-ab84-5137-8d79-571b45ad6601-attr-3-type" class="er entityLabel">int</text><rect height="22" width="62.34375" y="68" x="51.640625" class="er attributeBoxOdd"/><text style="dominant-baseline: middle; font-size: 10.2px;" transform="translate(56.640625,79)" y="0" x="0" id="text-entity-USERCHATUSER-79b85ce6-ab84-5137-8d79-571b45ad6601-attr-3-name" class="er entityLabel">from_id</text><rect height="22" width="21.5625" y="68" x="113.984375" class="er attributeBoxOdd"/><text style="dominant-baseline: middle; font-size: 10.2px;" transform="translate(118.984375,79)" y="0" x="0" id="text-entity-USERCHATUSER-79b85ce6-ab84-5137-8d79-571b45ad6601-attr-3-key" class="er entityLabel">FK</text><rect height="22" width="51.640625" y="90" x="0" class="er attributeBoxEven"/><text style="dominant-baseline: middle; font-size: 10.2px;" transform="translate(5,101)" y="0" x="0" id="text-entity-USERCHATUSER-79b85ce6-ab84-5137-8d79-571b45ad6601-attr-4-type" class="er entityLabel">int</text><rect height="22" width="62.34375" y="90" x="51.640625" class="er attributeBoxEven"/><text style="dominant-baseline: middle; font-size: 10.2px;" transform="translate(56.640625,101)" y="0" x="0" id="text-entity-USERCHATUSER-79b85ce6-ab84-5137-8d79-571b45ad6601-attr-4-name" class="er entityLabel">to_id</text><rect height="22" width="21.5625" y="90" x="113.984375" class="er attributeBoxEven"/><text style="dominant-baseline: middle; font-size: 10.2px;" transform="translate(118.984375,101)" y="0" x="0" id="text-entity-USERCHATUSER-79b85ce6-ab84-5137-8d79-571b45ad6601-attr-4-key" class="er entityLabel">FK</text><rect height="22" width="51.640625" y="112" x="0" class="er attributeBoxOdd"/><text style="dominant-baseline: middle; font-size: 10.2px;" transform="translate(5,123)" y="0" x="0" id="text-entity-USERCHATUSER-79b85ce6-ab84-5137-8d79-571b45ad6601-attr-5-type" class="er entityLabel">bool</text><rect height="22" width="62.34375" y="112" x="51.640625" class="er attributeBoxOdd"/><text style="dominant-baseline: middle; font-size: 10.2px;" transform="translate(56.640625,123)" y="0" x="0" id="text-entity-USERCHATUSER-79b85ce6-ab84-5137-8d79-571b45ad6601-attr-5-name" class="er entityLabel">is_read</text><rect height="22" width="21.5625" y="112" x="113.984375" class="er attributeBoxOdd"/><text style="dominant-baseline: middle; font-size: 10.2px;" transform="translate(118.984375,123)" y="0" x="0" id="text-entity-USERCHATUSER-79b85ce6-ab84-5137-8d79-571b45ad6601-attr-5-key" class="er entityLabel"/><rect height="22" width="51.640625" y="134" x="0" class="er attributeBoxEven"/><text style="dominant-baseline: middle; font-size: 10.2px;" transform="translate(5,145)" y="0" x="0" id="text-entity-USERCHATUSER-79b85ce6-ab84-5137-8d79-571b45ad6601-attr-6-type" class="er entityLabel">datetime</text><rect height="22" width="62.34375" y="134" x="51.640625" class="er attributeBoxEven"/><text style="dominant-baseline: middle; font-size: 10.2px;" transform="translate(56.640625,145)" y="0" x="0" id="text-entity-USERCHATUSER-79b85ce6-ab84-5137-8d79-571b45ad6601-attr-6-name" class="er entityLabel">created_at</text><rect height="22" width="21.5625" y="134" x="113.984375" class="er attributeBoxEven"/><text style="dominant-baseline: middle; font-size: 10.2px;" transform="translate(118.984375,145)" y="0" x="0" id="text-entity-USERCHATUSER-79b85ce6-ab84-5137-8d79-571b45ad6601-attr-6-key" class="er entityLabel"/><rect height="22.091796875" width="51.640625" y="156" x="0" class="er attributeBoxOdd"/><text style="dominant-baseline: middle; font-size: 10.2px;" transform="translate(5,167.0458984375)" y="0" x="0" id="text-entity-USERCHATUSER-79b85ce6-ab84-5137-8d79-571b45ad6601-attr-7-type" class="er entityLabel">datetime</text><rect height="22.091796875" width="62.34375" y="156" x="51.640625" class="er attributeBoxOdd"/><text style="dominant-baseline: middle; font-size: 10.2px;" transform="translate(56.640625,167.0458984375)" y="0" x="0" id="text-entity-USERCHATUSER-79b85ce6-ab84-5137-8d79-571b45ad6601-attr-7-name" class="er entityLabel">updated_at</text><rect height="22.091796875" width="21.5625" y="156" x="113.984375" class="er attributeBoxOdd"/><text style="dominant-baseline: middle; font-size: 10.2px;" transform="translate(118.984375,167.0458984375)" y="0" x="0" id="text-entity-USERCHATUSER-79b85ce6-ab84-5137-8d79-571b45ad6601-attr-7-key" class="er entityLabel"/></g><g transform="translate(250.2890625,921.1015625 )" id="entity-CHAT-94f24b46-2406-5ed3-be24-44ea02bca1f5"><rect height="112.27539348602295" width="146.0625" y="0" x="0" class="er entityBox"/><text style="dominant-baseline: middle; text-anchor: middle; font-size: 12px;" transform="translate(73.03125,12)" y="0" x="0" id="text-entity-CHAT-94f24b46-2406-5ed3-be24-44ea02bca1f5" class="er entityLabel">CHAT</text><rect height="22" width="35.75" y="24" x="0" class="er attributeBoxOdd"/><text style="dominant-baseline: middle; font-size: 10.2px;" transform="translate(5,35)" y="0" x="0" id="text-entity-CHAT-94f24b46-2406-5ed3-be24-44ea02bca1f5-attr-1-type" class="er entityLabel">serial</text><rect height="22" width="88.75" y="24" x="35.75" class="er attributeBoxOdd"/><text style="dominant-baseline: middle; font-size: 10.2px;" transform="translate(40.75,35)" y="0" x="0" id="text-entity-CHAT-94f24b46-2406-5ed3-be24-44ea02bca1f5-attr-1-name" class="er entityLabel">id</text><rect height="22" width="21.5625" y="24" x="124.5" class="er attributeBoxOdd"/><text style="dominant-baseline: middle; font-size: 10.2px;" transform="translate(129.5,35)" y="0" x="0" id="text-entity-CHAT-94f24b46-2406-5ed3-be24-44ea02bca1f5-attr-1-key" class="er entityLabel">PK</text><rect height="22.091797828674316" width="35.75" y="46" x="0" class="er attributeBoxEven"/><text style="dominant-baseline: middle; font-size: 10.2px;" transform="translate(5,57.04589891433716)" y="0" x="0" id="text-entity-CHAT-94f24b46-2406-5ed3-be24-44ea02bca1f5-attr-2-type" class="er entityLabel">string</text><rect height="22.091797828674316" width="88.75" y="46" x="35.75" class="er attributeBoxEven"/><text style="dominant-baseline: middle; font-size: 10.2px;" transform="translate(40.75,57.04589891433716)" y="0" x="0" id="text-entity-CHAT-94f24b46-2406-5ed3-be24-44ea02bca1f5-attr-2-name" class="er entityLabel">body</text><rect height="22.091797828674316" width="21.5625" y="46" x="124.5" class="er attributeBoxEven"/><text style="dominant-baseline: middle; font-size: 10.2px;" transform="translate(129.5,57.04589891433716)" y="0" x="0" id="text-entity-CHAT-94f24b46-2406-5ed3-be24-44ea02bca1f5-attr-2-key" class="er entityLabel"/><rect height="22.091797828674316" width="35.75" y="68.09179782867432" x="0" class="er attributeBoxOdd"/><text style="dominant-baseline: middle; font-size: 10.2px;" transform="translate(5,79.13769674301147)" y="0" x="0" id="text-entity-CHAT-94f24b46-2406-5ed3-be24-44ea02bca1f5-attr-3-type" class="er entityLabel">string</text><rect height="22.091797828674316" width="88.75" y="68.09179782867432" x="35.75" class="er attributeBoxOdd"/><text style="dominant-baseline: middle; font-size: 10.2px;" transform="translate(40.75,79.13769674301147)" y="0" x="0" id="text-entity-CHAT-94f24b46-2406-5ed3-be24-44ea02bca1f5-attr-3-name" class="er entityLabel">attachment</text><rect height="22.091797828674316" width="21.5625" y="68.09179782867432" x="124.5" class="er attributeBoxOdd"/><text style="dominant-baseline: middle; font-size: 10.2px;" transform="translate(129.5,79.13769674301147)" y="0" x="0" id="text-entity-CHAT-94f24b46-2406-5ed3-be24-44ea02bca1f5-attr-3-key" class="er entityLabel"/><rect height="22.091797828674316" width="35.75" y="90.18359565734863" x="0" class="er attributeBoxEven"/><text style="dominant-baseline: middle; font-size: 10.2px;" transform="translate(5,101.22949457168579)" y="0" x="0" id="text-entity-CHAT-94f24b46-2406-5ed3-be24-44ea02bca1f5-attr-4-type" class="er entityLabel">string</text><rect height="22.091797828674316" width="88.75" y="90.18359565734863" x="35.75" class="er attributeBoxEven"/><text style="dominant-baseline: middle; font-size: 10.2px;" transform="translate(40.75,101.22949457168579)" y="0" x="0" id="text-entity-CHAT-94f24b46-2406-5ed3-be24-44ea02bca1f5-attr-4-name" class="er entityLabel">attachment_type</text><rect height="22.091797828674316" width="21.5625" y="90.18359565734863" x="124.5" class="er attributeBoxEven"/><text style="dominant-baseline: middle; font-size: 10.2px;" transform="translate(129.5,101.22949457168579)" y="0" x="0" id="text-entity-CHAT-94f24b46-2406-5ed3-be24-44ea02bca1f5-attr-4-key" class="er entityLabel"/></g><rect height="14" width="17.71875" y="329.64300537109375" x="196.6876220703125" class="er relationshipLabelBox"/><text style="text-anchor: middle; dominant-baseline: middle; font-size: 12px;" y="336.64300537109375" x="205.5469970703125" id="rel1" class="er relationshipLabel">has</text><rect height="14" width="25.296875" y="588.317138671875" x="83.70484161376953" class="er relationshipLabelBox"/><text style="text-anchor: middle; dominant-baseline: middle; font-size: 12px;" y="595.317138671875" x="96.35327911376953" id="rel2" class="er relationshipLabel">have</text><rect height="14" width="25.296875" y="578.1135864257812" x="298.49261474609375" class="er relationshipLabelBox"/><text style="text-anchor: middle; dominant-baseline: middle; font-size: 12px;" y="585.1135864257812" x="311.14105224609375" id="rel3" class="er relationshipLabel">have</text><rect height="14" width="17.71875" y="864.1019897460938" x="314.46063232421875" class="er relationshipLabelBox"/><text style="text-anchor: middle; dominant-baseline: middle; font-size: 12px;" y="871.1019897460938" x="323.32000732421875" id="rel4" class="er relationshipLabel">has</text><text class="entityTitleText" y="-25" x="208.17578125" text-anchor="middle">Simple Login</text></svg>