<svg aria-roledescription="er" role="graphics-document document" viewBox="0 0 265.0630187988281 709.1015625" style="max-width: 265.063px; background-color: white;" xmlns:xlink="http://www.w3.org/1999/xlink" xmlns="http://www.w3.org/2000/svg" width="100%" id="my-svg"><style>#my-svg{font-family:"trebuchet ms",verdana,arial,sans-serif;font-size:16px;fill:#333;}#my-svg .error-icon{fill:#552222;}#my-svg .error-text{fill:#552222;stroke:#552222;}#my-svg .edge-thickness-normal{stroke-width:1px;}#my-svg .edge-thickness-thick{stroke-width:3.5px;}#my-svg .edge-pattern-solid{stroke-dasharray:0;}#my-svg .edge-thickness-invisible{stroke-width:0;fill:none;}#my-svg .edge-pattern-dashed{stroke-dasharray:3;}#my-svg .edge-pattern-dotted{stroke-dasharray:2;}#my-svg .marker{fill:#333333;stroke:#333333;}#my-svg .marker.cross{stroke:#333333;}#my-svg svg{font-family:"trebuchet ms",verdana,arial,sans-serif;font-size:16px;}#my-svg p{margin:0;}#my-svg .entityBox{fill:#ECECFF;stroke:#9370DB;}#my-svg .attributeBoxOdd{fill:#ffffff;stroke:#9370DB;}#my-svg .attributeBoxEven{fill:#f2f2f2;stroke:#9370DB;}#my-svg .relationshipLabelBox{fill:hsl(80, 100%, 96.2745098039%);opacity:0.7;background-color:hsl(80, 100%, 96.2745098039%);}#my-svg .relationshipLabelBox rect{opacity:0.5;}#my-svg .relationshipLine{stroke:#333333;}#my-svg .entityTitleText{text-anchor:middle;font-size:18px;fill:#333;}#my-svg #MD_PARENT_START{fill:#f5f5f5!important;stroke:#333333!important;stroke-width:1;}#my-svg #MD_PARENT_END{fill:#f5f5f5!important;stroke:#333333!important;stroke-width:1;}#my-svg :root{--mermaid-font-family:"trebuchet ms",verdana,arial,sans-serif;}</style><g/><defs><marker orient="auto" markerHeight="240" markerWidth="190" refY="7" refX="0" id="MD_PARENT_START"><path d="M 18,7 L9,13 L1,7 L9,1 Z"/></marker></defs><defs><marker orient="auto" markerHeight="28" markerWidth="20" refY="7" refX="19" id="MD_PARENT_END"><path d="M 18,7 L9,13 L1,7 L9,1 Z"/></marker></defs><defs><marker orient="auto" markerHeight="18" markerWidth="18" refY="9" refX="0" id="ONLY_ONE_START"><path d="M9,0 L9,18 M15,0 L15,18" fill="none" stroke="gray"/></marker></defs><defs><marker orient="auto" markerHeight="18" markerWidth="18" refY="9" refX="18" id="ONLY_ONE_END"><path d="M3,0 L3,18 M9,0 L9,18" fill="none" stroke="gray"/></marker></defs><defs><marker orient="auto" markerHeight="18" markerWidth="30" refY="9" refX="0" id="ZERO_OR_ONE_START"><circle r="6" cy="9" cx="21" fill="white" stroke="gray"/><path d="M9,0 L9,18" fill="none" stroke="gray"/></marker></defs><defs><marker orient="auto" markerHeight="18" markerWidth="30" refY="9" refX="30" id="ZERO_OR_ONE_END"><circle r="6" cy="9" cx="9" fill="white" stroke="gray"/><path d="M21,0 L21,18" fill="none" stroke="gray"/></marker></defs><defs><marker orient="auto" markerHeight="36" markerWidth="45" refY="18" refX="18" id="ONE_OR_MORE_START"><path d="M0,18 Q 18,0 36,18 Q 18,36 0,18 M42,9 L42,27" fill="none" stroke="gray"/></marker></defs><defs><marker orient="auto" markerHeight="36" markerWidth="45" refY="18" refX="27" id="ONE_OR_MORE_END"><path d="M3,9 L3,27 M9,18 Q27,0 45,18 Q27,36 9,18" fill="none" stroke="gray"/></marker></defs><defs><marker orient="auto" markerHeight="36" markerWidth="57" refY="18" refX="18" id="ZERO_OR_MORE_START"><circle r="6" cy="18" cx="48" fill="white" stroke="gray"/><path d="M0,18 Q18,0 36,18 Q18,36 0,18" fill="none" stroke="gray"/></marker></defs><defs><marker orient="auto" markerHeight="36" markerWidth="57" refY="18" refX="39" id="ZERO_OR_MORE_END"><circle r="6" cy="18" cx="9" fill="white" stroke="gray"/><path d="M21,18 Q39,0 57,18 Q39,36 21,18" fill="none" stroke="gray"/></marker></defs><path style="stroke: gray; fill: none;" marker-start="url(#ONLY_ONE_START)" marker-end="url(#ONE_OR_MORE_END)" d="M111.706,198.551L106.843,206.884C101.981,215.217,92.256,231.884,87.394,248.551C82.531,265.217,82.531,281.884,82.531,290.217L82.531,298.551" class="er relationshipLine"/><path style="stroke: gray; fill: none;" marker-start="url(#ONLY_ONE_START)" marker-end="url(#ONE_OR_MORE_END)" d="M82.531,432.826L82.531,441.16C82.531,449.493,82.531,466.16,87.816,482.826C93.101,499.493,103.671,516.16,108.956,524.493L114.242,532.826" class="er relationshipLine"/><path style="stroke: gray; fill: none;" marker-start="url(#ONLY_ONE_START)" marker-end="url(#ONE_OR_MORE_END)" d="M215.888,198.551L220.75,206.884C225.613,215.217,235.338,231.884,240.2,259.74C245.063,287.597,245.063,326.643,245.063,365.688C245.063,404.734,245.063,443.78,239.777,471.637C234.492,499.493,223.922,516.16,218.637,524.493L213.352,532.826" class="er relationshipLine"/><g transform="translate(101.265625,20 )" id="entity-users-33ae1e26-be31-5c1d-bf65-e859e9d0308e"><rect height="178.55078601837158" width="125.0625" y="0" x="0" class="er entityBox"/><text style="dominant-baseline: middle; text-anchor: middle; font-size: 12px;" transform="translate(62.53125,12)" y="0" x="0" id="text-entity-users-33ae1e26-be31-5c1d-bf65-e859e9d0308e" class="er entityLabel">users</text><rect height="22" width="62.71875" y="24" x="0" class="er attributeBoxOdd"/><text style="dominant-baseline: middle; font-size: 10.2px;" transform="translate(5,35)" y="0" x="0" id="text-entity-users-33ae1e26-be31-5c1d-bf65-e859e9d0308e-attr-1-type" class="er entityLabel">uuid</text><rect height="22" width="62.34375" y="24" x="62.71875" class="er attributeBoxOdd"/><text style="dominant-baseline: middle; font-size: 10.2px;" transform="translate(67.71875,35)" y="0" x="0" id="text-entity-users-33ae1e26-be31-5c1d-bf65-e859e9d0308e-attr-1-name" class="er entityLabel">id</text><rect height="22.091797828674316" width="62.71875" y="46" x="0" class="er attributeBoxEven"/><text style="dominant-baseline: middle; font-size: 10.2px;" transform="translate(5,57.04589891433716)" y="0" x="0" id="text-entity-users-33ae1e26-be31-5c1d-bf65-e859e9d0308e-attr-2-type" class="er entityLabel">string</text><rect height="22.091797828674316" width="62.34375" y="46" x="62.71875" class="er attributeBoxEven"/><text style="dominant-baseline: middle; font-size: 10.2px;" transform="translate(67.71875,57.04589891433716)" y="0" x="0" id="text-entity-users-33ae1e26-be31-5c1d-bf65-e859e9d0308e-attr-2-name" class="er entityLabel">first_name</text><rect height="22.091797828674316" width="62.71875" y="68.09179782867432" x="0" class="er attributeBoxOdd"/><text style="dominant-baseline: middle; font-size: 10.2px;" transform="translate(5,79.13769674301147)" y="0" x="0" id="text-entity-users-33ae1e26-be31-5c1d-bf65-e859e9d0308e-attr-3-type" class="er entityLabel">string</text><rect height="22.091797828674316" width="62.34375" y="68.09179782867432" x="62.71875" class="er attributeBoxOdd"/><text style="dominant-baseline: middle; font-size: 10.2px;" transform="translate(67.71875,79.13769674301147)" y="0" x="0" id="text-entity-users-33ae1e26-be31-5c1d-bf65-e859e9d0308e-attr-3-name" class="er entityLabel">last_name</text><rect height="22.091797828674316" width="62.71875" y="90.18359565734863" x="0" class="er attributeBoxEven"/><text style="dominant-baseline: middle; font-size: 10.2px;" transform="translate(5,101.22949457168579)" y="0" x="0" id="text-entity-users-33ae1e26-be31-5c1d-bf65-e859e9d0308e-attr-4-type" class="er entityLabel">string</text><rect height="22.091797828674316" width="62.34375" y="90.18359565734863" x="62.71875" class="er attributeBoxEven"/><text style="dominant-baseline: middle; font-size: 10.2px;" transform="translate(67.71875,101.22949457168579)" y="0" x="0" id="text-entity-users-33ae1e26-be31-5c1d-bf65-e859e9d0308e-attr-4-name" class="er entityLabel">email</text><rect height="22.091796875" width="62.71875" y="112.27539348602295" x="0" class="er attributeBoxOdd"/><text style="dominant-baseline: middle; font-size: 10.2px;" transform="translate(5,123.32129192352295)" y="0" x="0" id="text-entity-users-33ae1e26-be31-5c1d-bf65-e859e9d0308e-attr-5-type" class="er entityLabel">text</text><rect height="22.091796875" width="62.34375" y="112.27539348602295" x="62.71875" class="er attributeBoxOdd"/><text style="dominant-baseline: middle; font-size: 10.2px;" transform="translate(67.71875,123.32129192352295)" y="0" x="0" id="text-entity-users-33ae1e26-be31-5c1d-bf65-e859e9d0308e-attr-5-name" class="er entityLabel">password</text><rect height="22.091797828674316" width="62.71875" y="134.36719036102295" x="0" class="er attributeBoxEven"/><text style="dominant-baseline: middle; font-size: 10.2px;" transform="translate(5,145.4130892753601)" y="0" x="0" id="text-entity-users-33ae1e26-be31-5c1d-bf65-e859e9d0308e-attr-6-type" class="er entityLabel">timestamp</text><rect height="22.091797828674316" width="62.34375" y="134.36719036102295" x="62.71875" class="er attributeBoxEven"/><text style="dominant-baseline: middle; font-size: 10.2px;" transform="translate(67.71875,145.4130892753601)" y="0" x="0" id="text-entity-users-33ae1e26-be31-5c1d-bf65-e859e9d0308e-attr-6-name" class="er entityLabel">created_at</text><rect height="22.091797828674316" width="62.71875" y="156.45898818969727" x="0" class="er attributeBoxOdd"/><text style="dominant-baseline: middle; font-size: 10.2px;" transform="translate(5,167.50488710403442)" y="0" x="0" id="text-entity-users-33ae1e26-be31-5c1d-bf65-e859e9d0308e-attr-7-type" class="er entityLabel">timestampt</text><rect height="22.091797828674316" width="62.34375" y="156.45898818969727" x="62.71875" class="er attributeBoxOdd"/><text style="dominant-baseline: middle; font-size: 10.2px;" transform="translate(67.71875,167.50488710403442)" y="0" x="0" id="text-entity-users-33ae1e26-be31-5c1d-bf65-e859e9d0308e-attr-7-name" class="er entityLabel">updated_at</text></g><g transform="translate(20,298.55078125 )" id="entity-posts-e718dd5c-88db-5d98-b0b2-74f0389868b7"><rect height="134.27539348602295" width="125.0625" y="0" x="0" class="er entityBox"/><text style="dominant-baseline: middle; text-anchor: middle; font-size: 12px;" transform="translate(62.53125,12)" y="0" x="0" id="text-entity-posts-e718dd5c-88db-5d98-b0b2-74f0389868b7" class="er entityLabel">posts</text><rect height="22" width="62.71875" y="24" x="0" class="er attributeBoxOdd"/><text style="dominant-baseline: middle; font-size: 10.2px;" transform="translate(5,35)" y="0" x="0" id="text-entity-posts-e718dd5c-88db-5d98-b0b2-74f0389868b7-attr-1-type" class="er entityLabel">uuid</text><rect height="22" width="62.34375" y="24" x="62.71875" class="er attributeBoxOdd"/><text style="dominant-baseline: middle; font-size: 10.2px;" transform="translate(67.71875,35)" y="0" x="0" id="text-entity-posts-e718dd5c-88db-5d98-b0b2-74f0389868b7-attr-1-name" class="er entityLabel">id</text><rect height="22.091797828674316" width="62.71875" y="46" x="0" class="er attributeBoxEven"/><text style="dominant-baseline: middle; font-size: 10.2px;" transform="translate(5,57.04589891433716)" y="0" x="0" id="text-entity-posts-e718dd5c-88db-5d98-b0b2-74f0389868b7-attr-2-type" class="er entityLabel">string</text><rect height="22.091797828674316" width="62.34375" y="46" x="62.71875" class="er attributeBoxEven"/><text style="dominant-baseline: middle; font-size: 10.2px;" transform="translate(67.71875,57.04589891433716)" y="0" x="0" id="text-entity-posts-e718dd5c-88db-5d98-b0b2-74f0389868b7-attr-2-name" class="er entityLabel">title</text><rect height="22" width="62.71875" y="68.09179782867432" x="0" class="er attributeBoxOdd"/><text style="dominant-baseline: middle; font-size: 10.2px;" transform="translate(5,79.09179782867432)" y="0" x="0" id="text-entity-posts-e718dd5c-88db-5d98-b0b2-74f0389868b7-attr-3-type" class="er entityLabel">text</text><rect height="22" width="62.34375" y="68.09179782867432" x="62.71875" class="er attributeBoxOdd"/><text style="dominant-baseline: middle; font-size: 10.2px;" transform="translate(67.71875,79.09179782867432)" y="0" x="0" id="text-entity-posts-e718dd5c-88db-5d98-b0b2-74f0389868b7-attr-3-name" class="er entityLabel">content</text><rect height="22.091797828674316" width="62.71875" y="90.09179782867432" x="0" class="er attributeBoxEven"/><text style="dominant-baseline: middle; font-size: 10.2px;" transform="translate(5,101.13769674301147)" y="0" x="0" id="text-entity-posts-e718dd5c-88db-5d98-b0b2-74f0389868b7-attr-4-type" class="er entityLabel">timestamp</text><rect height="22.091797828674316" width="62.34375" y="90.09179782867432" x="62.71875" class="er attributeBoxEven"/><text style="dominant-baseline: middle; font-size: 10.2px;" transform="translate(67.71875,101.13769674301147)" y="0" x="0" id="text-entity-posts-e718dd5c-88db-5d98-b0b2-74f0389868b7-attr-4-name" class="er entityLabel">created_at</text><rect height="22.091797828674316" width="62.71875" y="112.18359565734863" x="0" class="er attributeBoxOdd"/><text style="dominant-baseline: middle; font-size: 10.2px;" transform="translate(5,123.22949457168579)" y="0" x="0" id="text-entity-posts-e718dd5c-88db-5d98-b0b2-74f0389868b7-attr-5-type" class="er entityLabel">timestampt</text><rect height="22.091797828674316" width="62.34375" y="112.18359565734863" x="62.71875" class="er attributeBoxOdd"/><text style="dominant-baseline: middle; font-size: 10.2px;" transform="translate(67.71875,123.22949457168579)" y="0" x="0" id="text-entity-posts-e718dd5c-88db-5d98-b0b2-74f0389868b7-attr-5-name" class="er entityLabel">updated_at</text></g><g transform="translate(101.265625,532.826171875 )" id="entity-comments-ee4794a7-91e9-54fd-896e-9c6c78f4e4b0"><rect height="156.27539348602295" width="125.0625" y="0" x="0" class="er entityBox"/><text style="dominant-baseline: middle; text-anchor: middle; font-size: 12px;" transform="translate(62.53125,12)" y="0" x="0" id="text-entity-comments-ee4794a7-91e9-54fd-896e-9c6c78f4e4b0" class="er entityLabel">comments</text><rect height="22" width="62.71875" y="24" x="0" class="er attributeBoxOdd"/><text style="dominant-baseline: middle; font-size: 10.2px;" transform="translate(5,35)" y="0" x="0" id="text-entity-comments-ee4794a7-91e9-54fd-896e-9c6c78f4e4b0-attr-1-type" class="er entityLabel">uuid</text><rect height="22" width="62.34375" y="24" x="62.71875" class="er attributeBoxOdd"/><text style="dominant-baseline: middle; font-size: 10.2px;" transform="translate(67.71875,35)" y="0" x="0" id="text-entity-comments-ee4794a7-91e9-54fd-896e-9c6c78f4e4b0-attr-1-name" class="er entityLabel">id</text><rect height="22" width="62.71875" y="46" x="0" class="er attributeBoxEven"/><text style="dominant-baseline: middle; font-size: 10.2px;" transform="translate(5,57)" y="0" x="0" id="text-entity-comments-ee4794a7-91e9-54fd-896e-9c6c78f4e4b0-attr-2-type" class="er entityLabel">text</text><rect height="22" width="62.34375" y="46" x="62.71875" class="er attributeBoxEven"/><text style="dominant-baseline: middle; font-size: 10.2px;" transform="translate(67.71875,57)" y="0" x="0" id="text-entity-comments-ee4794a7-91e9-54fd-896e-9c6c78f4e4b0-attr-2-name" class="er entityLabel">comments</text><rect height="22" width="62.71875" y="68" x="0" class="er attributeBoxOdd"/><text style="dominant-baseline: middle; font-size: 10.2px;" transform="translate(5,79)" y="0" x="0" id="text-entity-comments-ee4794a7-91e9-54fd-896e-9c6c78f4e4b0-attr-3-type" class="er entityLabel">uuid</text><rect height="22" width="62.34375" y="68" x="62.71875" class="er attributeBoxOdd"/><text style="dominant-baseline: middle; font-size: 10.2px;" transform="translate(67.71875,79)" y="0" x="0" id="text-entity-comments-ee4794a7-91e9-54fd-896e-9c6c78f4e4b0-attr-3-name" class="er entityLabel">user_id</text><rect height="22.091797828674316" width="62.71875" y="90" x="0" class="er attributeBoxEven"/><text style="dominant-baseline: middle; font-size: 10.2px;" transform="translate(5,101.04589891433716)" y="0" x="0" id="text-entity-comments-ee4794a7-91e9-54fd-896e-9c6c78f4e4b0-attr-4-type" class="er entityLabel">uuid</text><rect height="22.091797828674316" width="62.34375" y="90" x="62.71875" class="er attributeBoxEven"/><text style="dominant-baseline: middle; font-size: 10.2px;" transform="translate(67.71875,101.04589891433716)" y="0" x="0" id="text-entity-comments-ee4794a7-91e9-54fd-896e-9c6c78f4e4b0-attr-4-name" class="er entityLabel">post_id</text><rect height="22.091797828674316" width="62.71875" y="112.09179782867432" x="0" class="er attributeBoxOdd"/><text style="dominant-baseline: middle; font-size: 10.2px;" transform="translate(5,123.13769674301147)" y="0" x="0" id="text-entity-comments-ee4794a7-91e9-54fd-896e-9c6c78f4e4b0-attr-5-type" class="er entityLabel">timestamp</text><rect height="22.091797828674316" width="62.34375" y="112.09179782867432" x="62.71875" class="er attributeBoxOdd"/><text style="dominant-baseline: middle; font-size: 10.2px;" transform="translate(67.71875,123.13769674301147)" y="0" x="0" id="text-entity-comments-ee4794a7-91e9-54fd-896e-9c6c78f4e4b0-attr-5-name" class="er entityLabel">created_at</text><rect height="22.091797828674316" width="62.71875" y="134.18359565734863" x="0" class="er attributeBoxEven"/><text style="dominant-baseline: middle; font-size: 10.2px;" transform="translate(5,145.2294945716858)" y="0" x="0" id="text-entity-comments-ee4794a7-91e9-54fd-896e-9c6c78f4e4b0-attr-6-type" class="er entityLabel">timestampt</text><rect height="22.091797828674316" width="62.34375" y="134.18359565734863" x="62.71875" class="er attributeBoxEven"/><text style="dominant-baseline: middle; font-size: 10.2px;" transform="translate(67.71875,145.2294945716858)" y="0" x="0" id="text-entity-comments-ee4794a7-91e9-54fd-896e-9c6c78f4e4b0-attr-6-name" class="er entityLabel">updated_at</text></g><rect height="0" width="0" y="246.01046752929688" x="88.17205047607422" class="er relationshipLabelBox"/><text style="text-anchor: middle; dominant-baseline: middle; font-size: 12px;" y="246.01046752929688" x="88.17205047607422" id="rel1" class="er relationshipLabel"/><rect height="0" width="0" y="485.7707824707031" x="88.80343627929688" class="er relationshipLabelBox"/><text style="text-anchor: middle; dominant-baseline: middle; font-size: 12px;" y="485.7707824707031" x="88.80343627929688" id="rel2" class="er relationshipLabel"/><rect height="0" width="0" y="366.14569091796875" x="245.06292724609375" class="er relationshipLabelBox"/><text style="text-anchor: middle; dominant-baseline: middle; font-size: 12px;" y="366.14569091796875" x="245.06292724609375" id="rel3" class="er relationshipLabel"/></svg>