<svg aria-roledescription="er" role="graphics-document document" viewBox="0 0 487.0390625 664.642578125" style="max-width: 487.039px; background-color: white;" xmlns:xlink="http://www.w3.org/1999/xlink" xmlns="http://www.w3.org/2000/svg" width="100%" id="my-svg"><style>#my-svg{font-family:"trebuchet ms",verdana,arial,sans-serif;font-size:16px;fill:#333;}#my-svg .error-icon{fill:#552222;}#my-svg .error-text{fill:#552222;stroke:#552222;}#my-svg .edge-thickness-normal{stroke-width:1px;}#my-svg .edge-thickness-thick{stroke-width:3.5px;}#my-svg .edge-pattern-solid{stroke-dasharray:0;}#my-svg .edge-thickness-invisible{stroke-width:0;fill:none;}#my-svg .edge-pattern-dashed{stroke-dasharray:3;}#my-svg .edge-pattern-dotted{stroke-dasharray:2;}#my-svg .marker{fill:#333333;stroke:#333333;}#my-svg .marker.cross{stroke:#333333;}#my-svg svg{font-family:"trebuchet ms",verdana,arial,sans-serif;font-size:16px;}#my-svg p{margin:0;}#my-svg .entityBox{fill:#ECECFF;stroke:#9370DB;}#my-svg .attributeBoxOdd{fill:#ffffff;stroke:#9370DB;}#my-svg .attributeBoxEven{fill:#f2f2f2;stroke:#9370DB;}#my-svg .relationshipLabelBox{fill:hsl(80, 100%, 96.2745098039%);opacity:0.7;background-color:hsl(80, 100%, 96.2745098039%);}#my-svg .relationshipLabelBox rect{opacity:0.5;}#my-svg .relationshipLine{stroke:#333333;}#my-svg .entityTitleText{text-anchor:middle;font-size:18px;fill:#333;}#my-svg #MD_PARENT_START{fill:#f5f5f5!important;stroke:#333333!important;stroke-width:1;}#my-svg #MD_PARENT_END{fill:#f5f5f5!important;stroke:#333333!important;stroke-width:1;}#my-svg :root{--mermaid-font-family:"trebuchet ms",verdana,arial,sans-serif;}</style><g/><defs><marker orient="auto" markerHeight="240" markerWidth="190" refY="7" refX="0" id="MD_PARENT_START"><path d="M 18,7 L9,13 L1,7 L9,1 Z"/></marker></defs><defs><marker orient="auto" markerHeight="28" markerWidth="20" refY="7" refX="19" id="MD_PARENT_END"><path d="M 18,7 L9,13 L1,7 L9,1 Z"/></marker></defs><defs><marker orient="auto" markerHeight="18" markerWidth="18" refY="9" refX="0" id="ONLY_ONE_START"><path d="M9,0 L9,18 M15,0 L15,18" fill="none" stroke="gray"/></marker></defs><defs><marker orient="auto" markerHeight="18" markerWidth="18" refY="9" refX="18" id="ONLY_ONE_END"><path d="M3,0 L3,18 M9,0 L9,18" fill="none" stroke="gray"/></marker></defs><defs><marker orient="auto" markerHeight="18" markerWidth="30" refY="9" refX="0" id="ZERO_OR_ONE_START"><circle r="6" cy="9" cx="21" fill="white" stroke="gray"/><path d="M9,0 L9,18" fill="none" stroke="gray"/></marker></defs><defs><marker orient="auto" markerHeight="18" markerWidth="30" refY="9" refX="30" id="ZERO_OR_ONE_END"><circle r="6" cy="9" cx="9" fill="white" stroke="gray"/><path d="M21,0 L21,18" fill="none" stroke="gray"/></marker></defs><defs><marker orient="auto" markerHeight="36" markerWidth="45" refY="18" refX="18" id="ONE_OR_MORE_START"><path d="M0,18 Q 18,0 36,18 Q 18,36 0,18 M42,9 L42,27" fill="none" stroke="gray"/></marker></defs><defs><marker orient="auto" markerHeight="36" markerWidth="45" refY="18" refX="27" id="ONE_OR_MORE_END"><path d="M3,9 L3,27 M9,18 Q27,0 45,18 Q27,36 9,18" fill="none" stroke="gray"/></marker></defs><defs><marker orient="auto" markerHeight="36" markerWidth="57" refY="18" refX="18" id="ZERO_OR_MORE_START"><circle r="6" cy="18" cx="48" fill="white" stroke="gray"/><path d="M0,18 Q18,0 36,18 Q18,36 0,18" fill="none" stroke="gray"/></marker></defs><defs><marker orient="auto" markerHeight="36" markerWidth="57" refY="18" refX="39" id="ZERO_OR_MORE_END"><circle r="6" cy="18" cx="9" fill="white" stroke="gray"/><path d="M21,18 Q39,0 57,18 Q39,36 21,18" fill="none" stroke="gray"/></marker></defs><path style="stroke: gray; fill: none;" marker-start="url(#ZERO_OR_MORE_START)" marker-end="url(#ONLY_ONE_END)" d="M58.926,88L53.966,96.333C49.005,104.667,39.085,121.333,41.437,139.849C43.79,158.364,58.416,178.728,65.729,188.91L73.043,199.092" class="er relationshipLine"/><path style="stroke: gray; fill: none;" marker-start="url(#ZERO_OR_MORE_START)" marker-end="url(#ONLY_ONE_END)" d="M361.588,88L350.243,96.333C338.899,104.667,316.209,121.333,288.385,143.627C260.56,165.921,227.6,193.842,211.12,207.802L194.641,221.763" class="er relationshipLine"/><path style="stroke: gray; fill: none;" marker-start="url(#ONLY_ONE_START)" marker-end="url(#ZERO_OR_MORE_END)" d="M129.164,355.367L129.164,365.549C129.164,375.731,129.164,396.095,136.015,414.61C142.867,433.126,156.569,449.792,163.421,458.126L170.272,466.459" class="er relationshipLine"/><path style="stroke: gray; fill: none;" marker-start="url(#ONLY_ONE_START)" marker-end="url(#ZERO_OR_MORE_END)" d="M357.875,366.459L357.875,374.792C357.875,383.126,357.875,399.792,351.024,416.459C344.172,433.126,330.47,449.792,323.618,458.126L316.767,466.459" class="er relationshipLine"/><path style="stroke: gray; fill: none;" marker-start="url(#ONLY_ONE_START)" marker-end="url(#ONLY_ONE_END)" d="M428.113,88L433.073,96.333C438.034,104.667,447.954,121.333,446.787,138.198C445.62,155.063,433.365,172.126,427.237,180.657L421.109,189.189" class="er relationshipLine"/><path style="stroke: gray; fill: none;" marker-start="url(#ONLY_ONE_START)" marker-end="url(#ONLY_ONE_END)" d="M125.451,88L136.796,96.333C148.14,104.667,170.83,121.333,199.028,143.944C227.227,166.554,260.934,195.108,277.787,209.385L294.641,223.662" class="er relationshipLine"/><g transform="translate(20,20 )" id="entity-WATCHED-b7da7b80-0382-5f30-a72d-3cf2e4bc10c5"><rect height="68" width="118.328125" y="0" x="0" class="er entityBox"/><text style="dominant-baseline: middle; text-anchor: middle; font-size: 12px;" transform="translate(59.1640625,12)" y="0" x="0" id="text-entity-WATCHED-b7da7b80-0382-5f30-a72d-3cf2e4bc10c5" class="er entityLabel">WATCHED</text><rect height="22" width="22.53125" y="24" x="0" class="er attributeBoxOdd"/><text style="dominant-baseline: middle; font-size: 10.2px;" transform="translate(5,35)" y="0" x="0" id="text-entity-WATCHED-b7da7b80-0382-5f30-a72d-3cf2e4bc10c5-attr-1-type" class="er entityLabel">int</text><rect height="22" width="59.265625" y="24" x="22.53125" class="er attributeBoxOdd"/><text style="dominant-baseline: middle; font-size: 10.2px;" transform="translate(27.53125,35)" y="0" x="0" id="text-entity-WATCHED-b7da7b80-0382-5f30-a72d-3cf2e4bc10c5-attr-1-name" class="er entityLabel">user_id</text><rect height="22" width="36.53125" y="24" x="81.796875" class="er attributeBoxOdd"/><text style="dominant-baseline: middle; font-size: 10.2px;" transform="translate(86.796875,35)" y="0" x="0" id="text-entity-WATCHED-b7da7b80-0382-5f30-a72d-3cf2e4bc10c5-attr-1-key" class="er entityLabel">PK,FK</text><rect height="22" width="22.53125" y="46" x="0" class="er attributeBoxEven"/><text style="dominant-baseline: middle; font-size: 10.2px;" transform="translate(5,57)" y="0" x="0" id="text-entity-WATCHED-b7da7b80-0382-5f30-a72d-3cf2e4bc10c5-attr-2-type" class="er entityLabel">int</text><rect height="22" width="59.265625" y="46" x="22.53125" class="er attributeBoxEven"/><text style="dominant-baseline: middle; font-size: 10.2px;" transform="translate(27.53125,57)" y="0" x="0" id="text-entity-WATCHED-b7da7b80-0382-5f30-a72d-3cf2e4bc10c5-attr-2-name" class="er entityLabel">content_id</text><rect height="22" width="36.53125" y="46" x="81.796875" class="er attributeBoxEven"/><text style="dominant-baseline: middle; font-size: 10.2px;" transform="translate(86.796875,57)" y="0" x="0" id="text-entity-WATCHED-b7da7b80-0382-5f30-a72d-3cf2e4bc10c5-attr-2-key" class="er entityLabel">PK,FK</text></g><g transform="translate(63.6875,199.091796875 )" id="entity-USER-6e7e2962-0c6f-577d-a7fd-2ce3a0cfd2c8"><rect height="156.27539253234863" width="130.953125" y="0" x="0" class="er entityBox"/><text style="dominant-baseline: middle; text-anchor: middle; font-size: 12px;" transform="translate(65.4765625,12)" y="0" x="0" id="text-entity-USER-6e7e2962-0c6f-577d-a7fd-2ce3a0cfd2c8" class="er entityLabel">USER</text><rect height="22" width="35.75" y="24" x="0" class="er attributeBoxOdd"/><text style="dominant-baseline: middle; font-size: 10.2px;" transform="translate(5,35)" y="0" x="0" id="text-entity-USER-6e7e2962-0c6f-577d-a7fd-2ce3a0cfd2c8-attr-1-type" class="er entityLabel">int</text><rect height="22" width="73.640625" y="24" x="35.75" class="er attributeBoxOdd"/><text style="dominant-baseline: middle; font-size: 10.2px;" transform="translate(40.75,35)" y="0" x="0" id="text-entity-USER-6e7e2962-0c6f-577d-a7fd-2ce3a0cfd2c8-attr-1-name" class="er entityLabel">id</text><rect height="22" width="21.5625" y="24" x="109.390625" class="er attributeBoxOdd"/><text style="dominant-baseline: middle; font-size: 10.2px;" transform="translate(114.390625,35)" y="0" x="0" id="text-entity-USER-6e7e2962-0c6f-577d-a7fd-2ce3a0cfd2c8-attr-1-key" class="er entityLabel">PK</text><rect height="22.091797828674316" width="35.75" y="46" x="0" class="er attributeBoxEven"/><text style="dominant-baseline: middle; font-size: 10.2px;" transform="translate(5,57.04589891433716)" y="0" x="0" id="text-entity-USER-6e7e2962-0c6f-577d-a7fd-2ce3a0cfd2c8-attr-2-type" class="er entityLabel">string</text><rect height="22.091797828674316" width="73.640625" y="46" x="35.75" class="er attributeBoxEven"/><text style="dominant-baseline: middle; font-size: 10.2px;" transform="translate(40.75,57.04589891433716)" y="0" x="0" id="text-entity-USER-6e7e2962-0c6f-577d-a7fd-2ce3a0cfd2c8-attr-2-name" class="er entityLabel">email</text><rect height="22.091797828674316" width="21.5625" y="46" x="109.390625" class="er attributeBoxEven"/><text style="dominant-baseline: middle; font-size: 10.2px;" transform="translate(114.390625,57.04589891433716)" y="0" x="0" id="text-entity-USER-6e7e2962-0c6f-577d-a7fd-2ce3a0cfd2c8-attr-2-key" class="er entityLabel"/><rect height="22.091797828674316" width="35.75" y="68.09179782867432" x="0" class="er attributeBoxOdd"/><text style="dominant-baseline: middle; font-size: 10.2px;" transform="translate(5,79.13769674301147)" y="0" x="0" id="text-entity-USER-6e7e2962-0c6f-577d-a7fd-2ce3a0cfd2c8-attr-3-type" class="er entityLabel">string</text><rect height="22.091797828674316" width="73.640625" y="68.09179782867432" x="35.75" class="er attributeBoxOdd"/><text style="dominant-baseline: middle; font-size: 10.2px;" transform="translate(40.75,79.13769674301147)" y="0" x="0" id="text-entity-USER-6e7e2962-0c6f-577d-a7fd-2ce3a0cfd2c8-attr-3-name" class="er entityLabel">name</text><rect height="22.091797828674316" width="21.5625" y="68.09179782867432" x="109.390625" class="er attributeBoxOdd"/><text style="dominant-baseline: middle; font-size: 10.2px;" transform="translate(114.390625,79.13769674301147)" y="0" x="0" id="text-entity-USER-6e7e2962-0c6f-577d-a7fd-2ce3a0cfd2c8-attr-3-key" class="er entityLabel"/><rect height="22" width="35.75" y="90.18359565734863" x="0" class="er attributeBoxEven"/><text style="dominant-baseline: middle; font-size: 10.2px;" transform="translate(5,101.18359565734863)" y="0" x="0" id="text-entity-USER-6e7e2962-0c6f-577d-a7fd-2ce3a0cfd2c8-attr-4-type" class="er entityLabel">date</text><rect height="22" width="73.640625" y="90.18359565734863" x="35.75" class="er attributeBoxEven"/><text style="dominant-baseline: middle; font-size: 10.2px;" transform="translate(40.75,101.18359565734863)" y="0" x="0" id="text-entity-USER-6e7e2962-0c6f-577d-a7fd-2ce3a0cfd2c8-attr-4-name" class="er entityLabel">created_at</text><rect height="22" width="21.5625" y="90.18359565734863" x="109.390625" class="er attributeBoxEven"/><text style="dominant-baseline: middle; font-size: 10.2px;" transform="translate(114.390625,101.18359565734863)" y="0" x="0" id="text-entity-USER-6e7e2962-0c6f-577d-a7fd-2ce3a0cfd2c8-attr-4-key" class="er entityLabel"/><rect height="22" width="35.75" y="112.18359565734863" x="0" class="er attributeBoxOdd"/><text style="dominant-baseline: middle; font-size: 10.2px;" transform="translate(5,123.18359565734863)" y="0" x="0" id="text-entity-USER-6e7e2962-0c6f-577d-a7fd-2ce3a0cfd2c8-attr-5-type" class="er entityLabel">date</text><rect height="22" width="73.640625" y="112.18359565734863" x="35.75" class="er attributeBoxOdd"/><text style="dominant-baseline: middle; font-size: 10.2px;" transform="translate(40.75,123.18359565734863)" y="0" x="0" id="text-entity-USER-6e7e2962-0c6f-577d-a7fd-2ce3a0cfd2c8-attr-5-name" class="er entityLabel">edited_at</text><rect height="22" width="21.5625" y="112.18359565734863" x="109.390625" class="er attributeBoxOdd"/><text style="dominant-baseline: middle; font-size: 10.2px;" transform="translate(114.390625,123.18359565734863)" y="0" x="0" id="text-entity-USER-6e7e2962-0c6f-577d-a7fd-2ce3a0cfd2c8-attr-5-key" class="er entityLabel"/><rect height="22.091796875" width="35.75" y="134.18359565734863" x="0" class="er attributeBoxEven"/><text style="dominant-baseline: middle; font-size: 10.2px;" transform="translate(5,145.22949409484863)" y="0" x="0" id="text-entity-USER-6e7e2962-0c6f-577d-a7fd-2ce3a0cfd2c8-attr-6-type" class="er entityLabel">bool</text><rect height="22.091796875" width="73.640625" y="134.18359565734863" x="35.75" class="er attributeBoxEven"/><text style="dominant-baseline: middle; font-size: 10.2px;" transform="translate(40.75,145.22949409484863)" y="0" x="0" id="text-entity-USER-6e7e2962-0c6f-577d-a7fd-2ce3a0cfd2c8-attr-6-name" class="er entityLabel">public_profile</text><rect height="22.091796875" width="21.5625" y="134.18359565734863" x="109.390625" class="er attributeBoxEven"/><text style="dominant-baseline: middle; font-size: 10.2px;" transform="translate(114.390625,145.22949409484863)" y="0" x="0" id="text-entity-USER-6e7e2962-0c6f-577d-a7fd-2ce3a0cfd2c8-attr-6-key" class="er entityLabel"/></g><g transform="translate(348.7109375,20 )" id="entity-TOWATCH-8a1f27c9-7359-50cb-b1c2-45b2bf2e07f6"><rect height="68" width="118.328125" y="0" x="0" class="er entityBox"/><text style="dominant-baseline: middle; text-anchor: middle; font-size: 12px;" transform="translate(59.1640625,12)" y="0" x="0" id="text-entity-TOWATCH-8a1f27c9-7359-50cb-b1c2-45b2bf2e07f6" class="er entityLabel">TO_WATCH</text><rect height="22" width="22.53125" y="24" x="0" class="er attributeBoxOdd"/><text style="dominant-baseline: middle; font-size: 10.2px;" transform="translate(5,35)" y="0" x="0" id="text-entity-TOWATCH-8a1f27c9-7359-50cb-b1c2-45b2bf2e07f6-attr-1-type" class="er entityLabel">int</text><rect height="22" width="59.265625" y="24" x="22.53125" class="er attributeBoxOdd"/><text style="dominant-baseline: middle; font-size: 10.2px;" transform="translate(27.53125,35)" y="0" x="0" id="text-entity-TOWATCH-8a1f27c9-7359-50cb-b1c2-45b2bf2e07f6-attr-1-name" class="er entityLabel">user_id</text><rect height="22" width="36.53125" y="24" x="81.796875" class="er attributeBoxOdd"/><text style="dominant-baseline: middle; font-size: 10.2px;" transform="translate(86.796875,35)" y="0" x="0" id="text-entity-TOWATCH-8a1f27c9-7359-50cb-b1c2-45b2bf2e07f6-attr-1-key" class="er entityLabel">PK,FK</text><rect height="22" width="22.53125" y="46" x="0" class="er attributeBoxEven"/><text style="dominant-baseline: middle; font-size: 10.2px;" transform="translate(5,57)" y="0" x="0" id="text-entity-TOWATCH-8a1f27c9-7359-50cb-b1c2-45b2bf2e07f6-attr-2-type" class="er entityLabel">int</text><rect height="22" width="59.265625" y="46" x="22.53125" class="er attributeBoxEven"/><text style="dominant-baseline: middle; font-size: 10.2px;" transform="translate(27.53125,57)" y="0" x="0" id="text-entity-TOWATCH-8a1f27c9-7359-50cb-b1c2-45b2bf2e07f6-attr-2-name" class="er entityLabel">content_id</text><rect height="22" width="36.53125" y="46" x="81.796875" class="er attributeBoxEven"/><text style="dominant-baseline: middle; font-size: 10.2px;" transform="translate(86.796875,57)" y="0" x="0" id="text-entity-TOWATCH-8a1f27c9-7359-50cb-b1c2-45b2bf2e07f6-attr-2-key" class="er entityLabel">PK,FK</text></g><g transform="translate(142.01953125,466.458984375 )" id="entity-USERRATING-0fcf522d-44e0-5403-89ce-30747684f999"><rect height="178.18359565734863" width="203" y="0" x="0" class="er entityBox"/><text style="dominant-baseline: middle; text-anchor: middle; font-size: 12px;" transform="translate(101.5,12)" y="0" x="0" id="text-entity-USERRATING-0fcf522d-44e0-5403-89ce-30747684f999" class="er entityLabel">USER_RATING</text><rect height="22" width="35.75" y="24" x="0" class="er attributeBoxOdd"/><text style="dominant-baseline: middle; font-size: 10.2px;" transform="translate(5,35)" y="0" x="0" id="text-entity-USERRATING-0fcf522d-44e0-5403-89ce-30747684f999-attr-1-type" class="er entityLabel">int</text><rect height="22" width="59.984375" y="24" x="35.75" class="er attributeBoxOdd"/><text style="dominant-baseline: middle; font-size: 10.2px;" transform="translate(40.75,35)" y="0" x="0" id="text-entity-USERRATING-0fcf522d-44e0-5403-89ce-30747684f999-attr-1-name" class="er entityLabel">id</text><rect height="22" width="21.5625" y="24" x="95.734375" class="er attributeBoxOdd"/><text style="dominant-baseline: middle; font-size: 10.2px;" transform="translate(100.734375,35)" y="0" x="0" id="text-entity-USERRATING-0fcf522d-44e0-5403-89ce-30747684f999-attr-1-key" class="er entityLabel">PK</text><rect height="22" width="85.703125" y="24" x="117.296875" class="er attributeBoxOdd"/><text style="dominant-baseline: middle; font-size: 10.2px;" transform="translate(122.296875,35)" y="0" x="0" id="text-entity-USERRATING-0fcf522d-44e0-5403-89ce-30747684f999-attr-1-comment" class="er entityLabel"/><rect height="22.091797828674316" width="35.75" y="46" x="0" class="er attributeBoxEven"/><text style="dominant-baseline: middle; font-size: 10.2px;" transform="translate(5,57.04589891433716)" y="0" x="0" id="text-entity-USERRATING-0fcf522d-44e0-5403-89ce-30747684f999-attr-2-type" class="er entityLabel">int</text><rect height="22.091797828674316" width="59.984375" y="46" x="35.75" class="er attributeBoxEven"/><text style="dominant-baseline: middle; font-size: 10.2px;" transform="translate(40.75,57.04589891433716)" y="0" x="0" id="text-entity-USERRATING-0fcf522d-44e0-5403-89ce-30747684f999-attr-2-name" class="er entityLabel">rating</text><rect height="22.091797828674316" width="21.5625" y="46" x="95.734375" class="er attributeBoxEven"/><text style="dominant-baseline: middle; font-size: 10.2px;" transform="translate(100.734375,57.04589891433716)" y="0" x="0" id="text-entity-USERRATING-0fcf522d-44e0-5403-89ce-30747684f999-attr-2-key" class="er entityLabel"/><rect height="22.091797828674316" width="85.703125" y="46" x="117.296875" class="er attributeBoxEven"/><text style="dominant-baseline: middle; font-size: 10.2px;" transform="translate(122.296875,57.04589891433716)" y="0" x="0" id="text-entity-USERRATING-0fcf522d-44e0-5403-89ce-30747684f999-attr-2-comment" class="er entityLabel"/><rect height="22.091797828674316" width="35.75" y="68.09179782867432" x="0" class="er attributeBoxOdd"/><text style="dominant-baseline: middle; font-size: 10.2px;" transform="translate(5,79.13769674301147)" y="0" x="0" id="text-entity-USERRATING-0fcf522d-44e0-5403-89ce-30747684f999-attr-3-type" class="er entityLabel">string</text><rect height="22.091797828674316" width="59.984375" y="68.09179782867432" x="35.75" class="er attributeBoxOdd"/><text style="dominant-baseline: middle; font-size: 10.2px;" transform="translate(40.75,79.13769674301147)" y="0" x="0" id="text-entity-USERRATING-0fcf522d-44e0-5403-89ce-30747684f999-attr-3-name" class="er entityLabel">message</text><rect height="22.091797828674316" width="21.5625" y="68.09179782867432" x="95.734375" class="er attributeBoxOdd"/><text style="dominant-baseline: middle; font-size: 10.2px;" transform="translate(100.734375,79.13769674301147)" y="0" x="0" id="text-entity-USERRATING-0fcf522d-44e0-5403-89ce-30747684f999-attr-3-key" class="er entityLabel"/><rect height="22.091797828674316" width="85.703125" y="68.09179782867432" x="117.296875" class="er attributeBoxOdd"/><text style="dominant-baseline: middle; font-size: 10.2px;" transform="translate(122.296875,79.13769674301147)" y="0" x="0" id="text-entity-USERRATING-0fcf522d-44e0-5403-89ce-30747684f999-attr-3-comment" class="er entityLabel"/><rect height="22" width="35.75" y="90.18359565734863" x="0" class="er attributeBoxEven"/><text style="dominant-baseline: middle; font-size: 10.2px;" transform="translate(5,101.18359565734863)" y="0" x="0" id="text-entity-USERRATING-0fcf522d-44e0-5403-89ce-30747684f999-attr-4-type" class="er entityLabel">date</text><rect height="22" width="59.984375" y="90.18359565734863" x="35.75" class="er attributeBoxEven"/><text style="dominant-baseline: middle; font-size: 10.2px;" transform="translate(40.75,101.18359565734863)" y="0" x="0" id="text-entity-USERRATING-0fcf522d-44e0-5403-89ce-30747684f999-attr-4-name" class="er entityLabel">created_at</text><rect height="22" width="21.5625" y="90.18359565734863" x="95.734375" class="er attributeBoxEven"/><text style="dominant-baseline: middle; font-size: 10.2px;" transform="translate(100.734375,101.18359565734863)" y="0" x="0" id="text-entity-USERRATING-0fcf522d-44e0-5403-89ce-30747684f999-attr-4-key" class="er entityLabel"/><rect height="22" width="85.703125" y="90.18359565734863" x="117.296875" class="er attributeBoxEven"/><text style="dominant-baseline: middle; font-size: 10.2px;" transform="translate(122.296875,101.18359565734863)" y="0" x="0" id="text-entity-USERRATING-0fcf522d-44e0-5403-89ce-30747684f999-attr-4-comment" class="er entityLabel"/><rect height="22" width="35.75" y="112.18359565734863" x="0" class="er attributeBoxOdd"/><text style="dominant-baseline: middle; font-size: 10.2px;" transform="translate(5,123.18359565734863)" y="0" x="0" id="text-entity-USERRATING-0fcf522d-44e0-5403-89ce-30747684f999-attr-5-type" class="er entityLabel">date</text><rect height="22" width="59.984375" y="112.18359565734863" x="35.75" class="er attributeBoxOdd"/><text style="dominant-baseline: middle; font-size: 10.2px;" transform="translate(40.75,123.18359565734863)" y="0" x="0" id="text-entity-USERRATING-0fcf522d-44e0-5403-89ce-30747684f999-attr-5-name" class="er entityLabel">edited_at</text><rect height="22" width="21.5625" y="112.18359565734863" x="95.734375" class="er attributeBoxOdd"/><text style="dominant-baseline: middle; font-size: 10.2px;" transform="translate(100.734375,123.18359565734863)" y="0" x="0" id="text-entity-USERRATING-0fcf522d-44e0-5403-89ce-30747684f999-attr-5-key" class="er entityLabel"/><rect height="22" width="85.703125" y="112.18359565734863" x="117.296875" class="er attributeBoxOdd"/><text style="dominant-baseline: middle; font-size: 10.2px;" transform="translate(122.296875,123.18359565734863)" y="0" x="0" id="text-entity-USERRATING-0fcf522d-44e0-5403-89ce-30747684f999-attr-5-comment" class="er entityLabel"/><rect height="22" width="35.75" y="134.18359565734863" x="0" class="er attributeBoxEven"/><text style="dominant-baseline: middle; font-size: 10.2px;" transform="translate(5,145.18359565734863)" y="0" x="0" id="text-entity-USERRATING-0fcf522d-44e0-5403-89ce-30747684f999-attr-6-type" class="er entityLabel">id</text><rect height="22" width="59.984375" y="134.18359565734863" x="35.75" class="er attributeBoxEven"/><text style="dominant-baseline: middle; font-size: 10.2px;" transform="translate(40.75,145.18359565734863)" y="0" x="0" id="text-entity-USERRATING-0fcf522d-44e0-5403-89ce-30747684f999-attr-6-name" class="er entityLabel">user_id</text><rect height="22" width="21.5625" y="134.18359565734863" x="95.734375" class="er attributeBoxEven"/><text style="dominant-baseline: middle; font-size: 10.2px;" transform="translate(100.734375,145.18359565734863)" y="0" x="0" id="text-entity-USERRATING-0fcf522d-44e0-5403-89ce-30747684f999-attr-6-key" class="er entityLabel">FK</text><rect height="22" width="85.703125" y="134.18359565734863" x="117.296875" class="er attributeBoxEven"/><text style="dominant-baseline: middle; font-size: 10.2px;" transform="translate(122.296875,145.18359565734863)" y="0" x="0" id="text-entity-USERRATING-0fcf522d-44e0-5403-89ce-30747684f999-attr-6-comment" class="er entityLabel">comment author</text><rect height="22" width="35.75" y="156.18359565734863" x="0" class="er attributeBoxOdd"/><text style="dominant-baseline: middle; font-size: 10.2px;" transform="translate(5,167.18359565734863)" y="0" x="0" id="text-entity-USERRATING-0fcf522d-44e0-5403-89ce-30747684f999-attr-7-type" class="er entityLabel">id</text><rect height="22" width="59.984375" y="156.18359565734863" x="35.75" class="er attributeBoxOdd"/><text style="dominant-baseline: middle; font-size: 10.2px;" transform="translate(40.75,167.18359565734863)" y="0" x="0" id="text-entity-USERRATING-0fcf522d-44e0-5403-89ce-30747684f999-attr-7-name" class="er entityLabel">content_id</text><rect height="22" width="21.5625" y="156.18359565734863" x="95.734375" class="er attributeBoxOdd"/><text style="dominant-baseline: middle; font-size: 10.2px;" transform="translate(100.734375,167.18359565734863)" y="0" x="0" id="text-entity-USERRATING-0fcf522d-44e0-5403-89ce-30747684f999-attr-7-key" class="er entityLabel">FK</text><rect height="22" width="85.703125" y="156.18359565734863" x="117.296875" class="er attributeBoxOdd"/><text style="dominant-baseline: middle; font-size: 10.2px;" transform="translate(122.296875,167.18359565734863)" y="0" x="0" id="text-entity-USERRATING-0fcf522d-44e0-5403-89ce-30747684f999-attr-7-comment" class="er entityLabel"/></g><g transform="translate(294.640625,188 )" id="entity-CONTENT-8f63a8aa-44c2-535d-9667-a5a0c4878317"><rect height="178.45898914337158" width="126.46875" y="0" x="0" class="er entityBox"/><text style="dominant-baseline: middle; text-anchor: middle; font-size: 12px;" transform="translate(63.234375,12)" y="0" x="0" id="text-entity-CONTENT-8f63a8aa-44c2-535d-9667-a5a0c4878317" class="er entityLabel">CONTENT</text><rect height="22" width="35.75" y="24" x="0" class="er attributeBoxOdd"/><text style="dominant-baseline: middle; font-size: 10.2px;" transform="translate(5,35)" y="0" x="0" id="text-entity-CONTENT-8f63a8aa-44c2-535d-9667-a5a0c4878317-attr-1-type" class="er entityLabel">int</text><rect height="22" width="69.15625" y="24" x="35.75" class="er attributeBoxOdd"/><text style="dominant-baseline: middle; font-size: 10.2px;" transform="translate(40.75,35)" y="0" x="0" id="text-entity-CONTENT-8f63a8aa-44c2-535d-9667-a5a0c4878317-attr-1-name" class="er entityLabel">id</text><rect height="22" width="21.5625" y="24" x="104.90625" class="er attributeBoxOdd"/><text style="dominant-baseline: middle; font-size: 10.2px;" transform="translate(109.90625,35)" y="0" x="0" id="text-entity-CONTENT-8f63a8aa-44c2-535d-9667-a5a0c4878317-attr-1-key" class="er entityLabel">PK</text><rect height="22.091797828674316" width="35.75" y="46" x="0" class="er attributeBoxEven"/><text style="dominant-baseline: middle; font-size: 10.2px;" transform="translate(5,57.04589891433716)" y="0" x="0" id="text-entity-CONTENT-8f63a8aa-44c2-535d-9667-a5a0c4878317-attr-2-type" class="er entityLabel">string</text><rect height="22.091797828674316" width="69.15625" y="46" x="35.75" class="er attributeBoxEven"/><text style="dominant-baseline: middle; font-size: 10.2px;" transform="translate(40.75,57.04589891433716)" y="0" x="0" id="text-entity-CONTENT-8f63a8aa-44c2-535d-9667-a5a0c4878317-attr-2-name" class="er entityLabel">title</text><rect height="22.091797828674316" width="21.5625" y="46" x="104.90625" class="er attributeBoxEven"/><text style="dominant-baseline: middle; font-size: 10.2px;" transform="translate(109.90625,57.04589891433716)" y="0" x="0" id="text-entity-CONTENT-8f63a8aa-44c2-535d-9667-a5a0c4878317-attr-2-key" class="er entityLabel"/><rect height="22.091797828674316" width="35.75" y="68.09179782867432" x="0" class="er attributeBoxOdd"/><text style="dominant-baseline: middle; font-size: 10.2px;" transform="translate(5,79.13769674301147)" y="0" x="0" id="text-entity-CONTENT-8f63a8aa-44c2-535d-9667-a5a0c4878317-attr-3-type" class="er entityLabel">string</text><rect height="22.091797828674316" width="69.15625" y="68.09179782867432" x="35.75" class="er attributeBoxOdd"/><text style="dominant-baseline: middle; font-size: 10.2px;" transform="translate(40.75,79.13769674301147)" y="0" x="0" id="text-entity-CONTENT-8f63a8aa-44c2-535d-9667-a5a0c4878317-attr-3-name" class="er entityLabel">description</text><rect height="22.091797828674316" width="21.5625" y="68.09179782867432" x="104.90625" class="er attributeBoxOdd"/><text style="dominant-baseline: middle; font-size: 10.2px;" transform="translate(109.90625,79.13769674301147)" y="0" x="0" id="text-entity-CONTENT-8f63a8aa-44c2-535d-9667-a5a0c4878317-attr-3-key" class="er entityLabel"/><rect height="22.091797828674316" width="35.75" y="90.18359565734863" x="0" class="er attributeBoxEven"/><text style="dominant-baseline: middle; font-size: 10.2px;" transform="translate(5,101.22949457168579)" y="0" x="0" id="text-entity-CONTENT-8f63a8aa-44c2-535d-9667-a5a0c4878317-attr-4-type" class="er entityLabel">string</text><rect height="22.091797828674316" width="69.15625" y="90.18359565734863" x="35.75" class="er attributeBoxEven"/><text style="dominant-baseline: middle; font-size: 10.2px;" transform="translate(40.75,101.22949457168579)" y="0" x="0" id="text-entity-CONTENT-8f63a8aa-44c2-535d-9667-a5a0c4878317-attr-4-name" class="er entityLabel">director</text><rect height="22.091797828674316" width="21.5625" y="90.18359565734863" x="104.90625" class="er attributeBoxEven"/><text style="dominant-baseline: middle; font-size: 10.2px;" transform="translate(109.90625,101.22949457168579)" y="0" x="0" id="text-entity-CONTENT-8f63a8aa-44c2-535d-9667-a5a0c4878317-attr-4-key" class="er entityLabel"/><rect height="22" width="35.75" y="112.27539348602295" x="0" class="er attributeBoxOdd"/><text style="dominant-baseline: middle; font-size: 10.2px;" transform="translate(5,123.27539348602295)" y="0" x="0" id="text-entity-CONTENT-8f63a8aa-44c2-535d-9667-a5a0c4878317-attr-5-type" class="er entityLabel">date</text><rect height="22" width="69.15625" y="112.27539348602295" x="35.75" class="er attributeBoxOdd"/><text style="dominant-baseline: middle; font-size: 10.2px;" transform="translate(40.75,123.27539348602295)" y="0" x="0" id="text-entity-CONTENT-8f63a8aa-44c2-535d-9667-a5a0c4878317-attr-5-name" class="er entityLabel">release_date</text><rect height="22" width="21.5625" y="112.27539348602295" x="104.90625" class="er attributeBoxOdd"/><text style="dominant-baseline: middle; font-size: 10.2px;" transform="translate(109.90625,123.27539348602295)" y="0" x="0" id="text-entity-CONTENT-8f63a8aa-44c2-535d-9667-a5a0c4878317-attr-5-key" class="er entityLabel"/><rect height="22.091797828674316" width="35.75" y="134.27539348602295" x="0" class="er attributeBoxEven"/><text style="dominant-baseline: middle; font-size: 10.2px;" transform="translate(5,145.3212924003601)" y="0" x="0" id="text-entity-CONTENT-8f63a8aa-44c2-535d-9667-a5a0c4878317-attr-6-type" class="er entityLabel">string</text><rect height="22.091797828674316" width="69.15625" y="134.27539348602295" x="35.75" class="er attributeBoxEven"/><text style="dominant-baseline: middle; font-size: 10.2px;" transform="translate(40.75,145.3212924003601)" y="0" x="0" id="text-entity-CONTENT-8f63a8aa-44c2-535d-9667-a5a0c4878317-attr-6-name" class="er entityLabel">type</text><rect height="22.091797828674316" width="21.5625" y="134.27539348602295" x="104.90625" class="er attributeBoxEven"/><text style="dominant-baseline: middle; font-size: 10.2px;" transform="translate(109.90625,145.3212924003601)" y="0" x="0" id="text-entity-CONTENT-8f63a8aa-44c2-535d-9667-a5a0c4878317-attr-6-key" class="er entityLabel"/><rect height="22.091797828674316" width="35.75" y="156.36719131469727" x="0" class="er attributeBoxOdd"/><text style="dominant-baseline: middle; font-size: 10.2px;" transform="translate(5,167.41309022903442)" y="0" x="0" id="text-entity-CONTENT-8f63a8aa-44c2-535d-9667-a5a0c4878317-attr-7-type" class="er entityLabel">string</text><rect height="22.091797828674316" width="69.15625" y="156.36719131469727" x="35.75" class="er attributeBoxOdd"/><text style="dominant-baseline: middle; font-size: 10.2px;" transform="translate(40.75,167.41309022903442)" y="0" x="0" id="text-entity-CONTENT-8f63a8aa-44c2-535d-9667-a5a0c4878317-attr-7-name" class="er entityLabel">genres</text><rect height="22.091797828674316" width="21.5625" y="156.36719131469727" x="104.90625" class="er attributeBoxOdd"/><text style="dominant-baseline: middle; font-size: 10.2px;" transform="translate(109.90625,167.41309022903442)" y="0" x="0" id="text-entity-CONTENT-8f63a8aa-44c2-535d-9667-a5a0c4878317-attr-7-key" class="er entityLabel"/></g><rect height="14" width="17.71875" y="138.7087860107422" x="33.69721603393555" class="er relationshipLabelBox"/><text style="text-anchor: middle; dominant-baseline: middle; font-size: 12px;" y="145.7087860107422" x="42.55659103393555" id="rel1" class="er relationshipLabel">has</text><rect height="14" width="17.71875" y="146.08407592773438" x="267.8229064941406" class="er relationshipLabelBox"/><text style="text-anchor: middle; dominant-baseline: middle; font-size: 12px;" y="153.08407592773438" x="276.6822814941406" id="rel2" class="er relationshipLabel">has</text><rect height="14" width="26.734375" y="408.7644348144531" x="123.08502197265625" class="er relationshipLabelBox"/><text style="text-anchor: middle; dominant-baseline: middle; font-size: 12px;" y="415.7644348144531" x="136.45220947265625" id="rel3" class="er relationshipLabel">gives</text><rect height="14" width="17.71875" y="414.0199279785156" x="340.1257019042969" class="er relationshipLabelBox"/><text style="text-anchor: middle; dominant-baseline: middle; font-size: 12px;" y="421.0199279785156" x="348.9850769042969" id="rel4" class="er relationshipLabel">has</text><rect height="14" width="17.71875" y="132.88748168945312" x="437.774169921875" class="er relationshipLabelBox"/><text style="text-anchor: middle; dominant-baseline: middle; font-size: 12px;" y="139.88748168945312" x="446.633544921875" id="rel5" class="er relationshipLabel">has</text><rect height="14" width="17.71875" y="147.02294921875" x="202.6279754638672" class="er relationshipLabelBox"/><text style="text-anchor: middle; dominant-baseline: middle; font-size: 12px;" y="154.02294921875" x="211.4873504638672" id="rel6" class="er relationshipLabel">has</text></svg>