<svg aria-roledescription="er" role="graphics-document document" viewBox="-4.598670959472656 0 411.3642883300781 1044.642578125" style="max-width: 411.364px; background-color: white;" xmlns:xlink="http://www.w3.org/1999/xlink" xmlns="http://www.w3.org/2000/svg" width="100%" id="my-svg"><style>#my-svg{font-family:"trebuchet ms",verdana,arial,sans-serif;font-size:16px;fill:#333;}#my-svg .error-icon{fill:#552222;}#my-svg .error-text{fill:#552222;stroke:#552222;}#my-svg .edge-thickness-normal{stroke-width:1px;}#my-svg .edge-thickness-thick{stroke-width:3.5px;}#my-svg .edge-pattern-solid{stroke-dasharray:0;}#my-svg .edge-thickness-invisible{stroke-width:0;fill:none;}#my-svg .edge-pattern-dashed{stroke-dasharray:3;}#my-svg .edge-pattern-dotted{stroke-dasharray:2;}#my-svg .marker{fill:#333333;stroke:#333333;}#my-svg .marker.cross{stroke:#333333;}#my-svg svg{font-family:"trebuchet ms",verdana,arial,sans-serif;font-size:16px;}#my-svg p{margin:0;}#my-svg .entityBox{fill:#ECECFF;stroke:#9370DB;}#my-svg .attributeBoxOdd{fill:#ffffff;stroke:#9370DB;}#my-svg .attributeBoxEven{fill:#f2f2f2;stroke:#9370DB;}#my-svg .relationshipLabelBox{fill:hsl(80, 100%, 96.2745098039%);opacity:0.7;background-color:hsl(80, 100%, 96.2745098039%);}#my-svg .relationshipLabelBox rect{opacity:0.5;}#my-svg .relationshipLine{stroke:#333333;}#my-svg .entityTitleText{text-anchor:middle;font-size:18px;fill:#333;}#my-svg #MD_PARENT_START{fill:#f5f5f5!important;stroke:#333333!important;stroke-width:1;}#my-svg #MD_PARENT_END{fill:#f5f5f5!important;stroke:#333333!important;stroke-width:1;}#my-svg :root{--mermaid-font-family:"trebuchet ms",verdana,arial,sans-serif;}</style><g/><defs><marker orient="auto" markerHeight="240" markerWidth="190" refY="7" refX="0" id="MD_PARENT_START"><path d="M 18,7 L9,13 L1,7 L9,1 Z"/></marker></defs><defs><marker orient="auto" markerHeight="28" markerWidth="20" refY="7" refX="19" id="MD_PARENT_END"><path d="M 18,7 L9,13 L1,7 L9,1 Z"/></marker></defs><defs><marker orient="auto" markerHeight="18" markerWidth="18" refY="9" refX="0" id="ONLY_ONE_START"><path d="M9,0 L9,18 M15,0 L15,18" fill="none" stroke="gray"/></marker></defs><defs><marker orient="auto" markerHeight="18" markerWidth="18" refY="9" refX="18" id="ONLY_ONE_END"><path d="M3,0 L3,18 M9,0 L9,18" fill="none" stroke="gray"/></marker></defs><defs><marker orient="auto" markerHeight="18" markerWidth="30" refY="9" refX="0" id="ZERO_OR_ONE_START"><circle r="6" cy="9" cx="21" fill="white" stroke="gray"/><path d="M9,0 L9,18" fill="none" stroke="gray"/></marker></defs><defs><marker orient="auto" markerHeight="18" markerWidth="30" refY="9" refX="30" id="ZERO_OR_ONE_END"><circle r="6" cy="9" cx="9" fill="white" stroke="gray"/><path d="M21,0 L21,18" fill="none" stroke="gray"/></marker></defs><defs><marker orient="auto" markerHeight="36" markerWidth="45" refY="18" refX="18" id="ONE_OR_MORE_START"><path d="M0,18 Q 18,0 36,18 Q 18,36 0,18 M42,9 L42,27" fill="none" stroke="gray"/></marker></defs><defs><marker orient="auto" markerHeight="36" markerWidth="45" refY="18" refX="27" id="ONE_OR_MORE_END"><path d="M3,9 L3,27 M9,18 Q27,0 45,18 Q27,36 9,18" fill="none" stroke="gray"/></marker></defs><defs><marker orient="auto" markerHeight="36" markerWidth="57" refY="18" refX="18" id="ZERO_OR_MORE_START"><circle r="6" cy="18" cx="48" fill="white" stroke="gray"/><path d="M0,18 Q18,0 36,18 Q18,36 0,18" fill="none" stroke="gray"/></marker></defs><defs><marker orient="auto" markerHeight="36" markerWidth="57" refY="18" refX="39" id="ZERO_OR_MORE_END"><circle r="6" cy="18" cx="9" fill="white" stroke="gray"/><path d="M21,18 Q39,0 57,18 Q39,36 21,18" fill="none" stroke="gray"/></marker></defs><path style="stroke: gray; fill: none;" marker-start="url(#ONLY_ONE_START)" marker-end="url(#ZERO_OR_MORE_END)" d="M141.461,124.925L123.493,138.104C105.526,151.283,69.591,177.642,51.624,208.495C33.656,239.349,33.656,274.697,33.656,310.046C33.656,345.395,33.656,380.743,37.999,408.592C42.342,436.44,51.028,456.789,55.371,466.963L59.714,477.138" class="er relationshipLine"/><path style="stroke: gray; fill: none;" marker-start="url(#ONLY_ONE_START)" marker-end="url(#ZERO_OR_MORE_END)" d="M236.864,154L242.3,162.333C247.735,170.667,258.606,187.333,264.041,204C269.477,220.667,269.477,237.333,269.477,245.667L269.477,254" class="er relationshipLine"/><path style="stroke: gray; fill: none;" marker-start="url(#ONLY_ONE_START)" marker-end="url(#ZERO_OR_MORE_END)" d="M216.852,361.007L207.371,370.188C197.891,379.369,178.93,397.73,162.821,417.085C146.712,436.44,133.455,456.789,126.827,466.963L120.199,477.138" class="er relationshipLine"/><path style="stroke: gray; fill: none;" marker-start="url(#ONLY_ONE_START)" marker-end="url(#ZERO_OR_MORE_END)" d="M295.902,366.092L299.831,374.425C303.76,382.758,311.618,399.425,315.547,416.092C319.477,432.758,319.477,449.425,319.477,457.758L319.477,466.092" class="er relationshipLine"/><path style="stroke: gray; fill: none;" marker-start="url(#ONLY_ONE_START)" marker-end="url(#ONE_OR_MORE_END)" d="M319.477,600.367L319.477,608.701C319.477,617.034,319.477,633.701,319.477,650.367C319.477,667.034,319.477,683.701,319.477,692.034L319.477,700.367" class="er relationshipLine"/><path style="stroke: gray; fill: none;" marker-start="url(#ONLY_ONE_START)" marker-end="url(#ONE_OR_MORE_END)" d="M319.477,812.551L319.477,820.884C319.477,829.217,319.477,845.884,319.477,862.551C319.477,879.217,319.477,895.884,319.477,904.217L319.477,912.551" class="er relationshipLine"/><g transform="translate(141.4609375,20 )" id="entity-USER-6e7e2962-0c6f-577d-a7fd-2ce3a0cfd2c8"><rect height="134" width="103.40625" y="0" x="0" class="er entityBox"/><text style="dominant-baseline: middle; text-anchor: middle; font-size: 12px;" transform="translate(51.703125,12)" y="0" x="0" id="text-entity-USER-6e7e2962-0c6f-577d-a7fd-2ce3a0cfd2c8" class="er entityLabel">USER</text><rect height="22" width="44.265625" y="24" x="0" class="er attributeBoxOdd"/><text style="dominant-baseline: middle; font-size: 10.2px;" transform="translate(5,35)" y="0" x="0" id="text-entity-USER-6e7e2962-0c6f-577d-a7fd-2ce3a0cfd2c8-attr-1-type" class="er entityLabel">uuid</text><rect height="22" width="59.140625" y="24" x="44.265625" class="er attributeBoxOdd"/><text style="dominant-baseline: middle; font-size: 10.2px;" transform="translate(49.265625,35)" y="0" x="0" id="text-entity-USER-6e7e2962-0c6f-577d-a7fd-2ce3a0cfd2c8-attr-1-name" class="er entityLabel">id</text><rect height="22" width="44.265625" y="46" x="0" class="er attributeBoxEven"/><text style="dominant-baseline: middle; font-size: 10.2px;" transform="translate(5,57)" y="0" x="0" id="text-entity-USER-6e7e2962-0c6f-577d-a7fd-2ce3a0cfd2c8-attr-2-type" class="er entityLabel">varchar</text><rect height="22" width="59.140625" y="46" x="44.265625" class="er attributeBoxEven"/><text style="dominant-baseline: middle; font-size: 10.2px;" transform="translate(49.265625,57)" y="0" x="0" id="text-entity-USER-6e7e2962-0c6f-577d-a7fd-2ce3a0cfd2c8-attr-2-name" class="er entityLabel">email</text><rect height="22" width="44.265625" y="68" x="0" class="er attributeBoxOdd"/><text style="dominant-baseline: middle; font-size: 10.2px;" transform="translate(5,79)" y="0" x="0" id="text-entity-USER-6e7e2962-0c6f-577d-a7fd-2ce3a0cfd2c8-attr-3-type" class="er entityLabel">varchar</text><rect height="22" width="59.140625" y="68" x="44.265625" class="er attributeBoxOdd"/><text style="dominant-baseline: middle; font-size: 10.2px;" transform="translate(49.265625,79)" y="0" x="0" id="text-entity-USER-6e7e2962-0c6f-577d-a7fd-2ce3a0cfd2c8-attr-3-name" class="er entityLabel">username</text><rect height="22" width="44.265625" y="90" x="0" class="er attributeBoxEven"/><text style="dominant-baseline: middle; font-size: 10.2px;" transform="translate(5,101)" y="0" x="0" id="text-entity-USER-6e7e2962-0c6f-577d-a7fd-2ce3a0cfd2c8-attr-4-type" class="er entityLabel">varchar</text><rect height="22" width="59.140625" y="90" x="44.265625" class="er attributeBoxEven"/><text style="dominant-baseline: middle; font-size: 10.2px;" transform="translate(49.265625,101)" y="0" x="0" id="text-entity-USER-6e7e2962-0c6f-577d-a7fd-2ce3a0cfd2c8-attr-4-name" class="er entityLabel">first_name</text><rect height="22" width="44.265625" y="112" x="0" class="er attributeBoxOdd"/><text style="dominant-baseline: middle; font-size: 10.2px;" transform="translate(5,123)" y="0" x="0" id="text-entity-USER-6e7e2962-0c6f-577d-a7fd-2ce3a0cfd2c8-attr-5-type" class="er entityLabel">varchar</text><rect height="22" width="59.140625" y="112" x="44.265625" class="er attributeBoxOdd"/><text style="dominant-baseline: middle; font-size: 10.2px;" transform="translate(49.265625,123)" y="0" x="0" id="text-entity-USER-6e7e2962-0c6f-577d-a7fd-2ce3a0cfd2c8-attr-5-name" class="er entityLabel">last_name</text></g><g transform="translate(20,477.1376953125 )" id="entity-COMPANYACTION-697ae1f4-a83c-5d89-a2fe-2a1a9b81acfb"><rect height="112.18359470367432" width="127.3125" y="0" x="0" class="er entityBox"/><text style="dominant-baseline: middle; text-anchor: middle; font-size: 12px;" transform="translate(63.65625,12)" y="0" x="0" id="text-entity-COMPANYACTION-697ae1f4-a83c-5d89-a2fe-2a1a9b81acfb" class="er entityLabel">COMPANY_ACTION</text><rect height="22" width="48.9609375" y="24" x="0" class="er attributeBoxOdd"/><text style="dominant-baseline: middle; font-size: 10.2px;" transform="translate(5,35)" y="0" x="0" id="text-entity-COMPANYACTION-697ae1f4-a83c-5d89-a2fe-2a1a9b81acfb-attr-1-type" class="er entityLabel">uuid</text><rect height="22" width="78.3515625" y="24" x="48.9609375" class="er attributeBoxOdd"/><text style="dominant-baseline: middle; font-size: 10.2px;" transform="translate(53.9609375,35)" y="0" x="0" id="text-entity-COMPANYACTION-697ae1f4-a83c-5d89-a2fe-2a1a9b81acfb-attr-1-name" class="er entityLabel">id</text><rect height="22.091797828674316" width="48.9609375" y="46" x="0" class="er attributeBoxEven"/><text style="dominant-baseline: middle; font-size: 10.2px;" transform="translate(5,57.04589891433716)" y="0" x="0" id="text-entity-COMPANYACTION-697ae1f4-a83c-5d89-a2fe-2a1a9b81acfb-attr-2-type" class="er entityLabel">uuid</text><rect height="22.091797828674316" width="78.3515625" y="46" x="48.9609375" class="er attributeBoxEven"/><text style="dominant-baseline: middle; font-size: 10.2px;" transform="translate(53.9609375,57.04589891433716)" y="0" x="0" id="text-entity-COMPANYACTION-697ae1f4-a83c-5d89-a2fe-2a1a9b81acfb-attr-2-name" class="er entityLabel">company_id</text><rect height="22" width="48.9609375" y="68.09179782867432" x="0" class="er attributeBoxOdd"/><text style="dominant-baseline: middle; font-size: 10.2px;" transform="translate(5,79.09179782867432)" y="0" x="0" id="text-entity-COMPANYACTION-697ae1f4-a83c-5d89-a2fe-2a1a9b81acfb-attr-3-type" class="er entityLabel">uuid</text><rect height="22" width="78.3515625" y="68.09179782867432" x="48.9609375" class="er attributeBoxOdd"/><text style="dominant-baseline: middle; font-size: 10.2px;" transform="translate(53.9609375,79.09179782867432)" y="0" x="0" id="text-entity-COMPANYACTION-697ae1f4-a83c-5d89-a2fe-2a1a9b81acfb-attr-3-name" class="er entityLabel">user_id</text><rect height="22.091796875" width="48.9609375" y="90.09179782867432" x="0" class="er attributeBoxEven"/><text style="dominant-baseline: middle; font-size: 10.2px;" transform="translate(5,101.13769626617432)" y="0" x="0" id="text-entity-COMPANYACTION-697ae1f4-a83c-5d89-a2fe-2a1a9b81acfb-attr-4-type" class="er entityLabel">enum</text><rect height="22.091796875" width="78.3515625" y="90.09179782867432" x="48.9609375" class="er attributeBoxEven"/><text style="dominant-baseline: middle; font-size: 10.2px;" transform="translate(53.9609375,101.13769626617432)" y="0" x="0" id="text-entity-COMPANYACTION-697ae1f4-a83c-5d89-a2fe-2a1a9b81acfb-attr-4-name" class="er entityLabel">type</text></g><g transform="translate(216.8515625,254 )" id="entity-COMPANY-1f691400-099c-5213-80c0-52cd73efcd42"><rect height="112.091796875" width="105.25" y="0" x="0" class="er entityBox"/><text style="dominant-baseline: middle; text-anchor: middle; font-size: 12px;" transform="translate(52.625,12)" y="0" x="0" id="text-entity-COMPANY-1f691400-099c-5213-80c0-52cd73efcd42" class="er entityLabel">COMPANY</text><rect height="22" width="44.265625" y="24" x="0" class="er attributeBoxOdd"/><text style="dominant-baseline: middle; font-size: 10.2px;" transform="translate(5,35)" y="0" x="0" id="text-entity-COMPANY-1f691400-099c-5213-80c0-52cd73efcd42-attr-1-type" class="er entityLabel">uuid</text><rect height="22" width="60.984375" y="24" x="44.265625" class="er attributeBoxOdd"/><text style="dominant-baseline: middle; font-size: 10.2px;" transform="translate(49.265625,35)" y="0" x="0" id="text-entity-COMPANY-1f691400-099c-5213-80c0-52cd73efcd42-attr-1-name" class="er entityLabel">id</text><rect height="22" width="44.265625" y="46" x="0" class="er attributeBoxEven"/><text style="dominant-baseline: middle; font-size: 10.2px;" transform="translate(5,57)" y="0" x="0" id="text-entity-COMPANY-1f691400-099c-5213-80c0-52cd73efcd42-attr-2-type" class="er entityLabel">uuid</text><rect height="22" width="60.984375" y="46" x="44.265625" class="er attributeBoxEven"/><text style="dominant-baseline: middle; font-size: 10.2px;" transform="translate(49.265625,57)" y="0" x="0" id="text-entity-COMPANY-1f691400-099c-5213-80c0-52cd73efcd42-attr-2-name" class="er entityLabel">owner_id</text><rect height="22" width="44.265625" y="68" x="0" class="er attributeBoxOdd"/><text style="dominant-baseline: middle; font-size: 10.2px;" transform="translate(5,79)" y="0" x="0" id="text-entity-COMPANY-1f691400-099c-5213-80c0-52cd73efcd42-attr-3-type" class="er entityLabel">varchar</text><rect height="22" width="60.984375" y="68" x="44.265625" class="er attributeBoxOdd"/><text style="dominant-baseline: middle; font-size: 10.2px;" transform="translate(49.265625,79)" y="0" x="0" id="text-entity-COMPANY-1f691400-099c-5213-80c0-52cd73efcd42-attr-3-name" class="er entityLabel">name</text><rect height="22.091796875" width="44.265625" y="90" x="0" class="er attributeBoxEven"/><text style="dominant-baseline: middle; font-size: 10.2px;" transform="translate(5,101.0458984375)" y="0" x="0" id="text-entity-COMPANY-1f691400-099c-5213-80c0-52cd73efcd42-attr-4-type" class="er entityLabel">varchar</text><rect height="22.091796875" width="60.984375" y="90" x="44.265625" class="er attributeBoxEven"/><text style="dominant-baseline: middle; font-size: 10.2px;" transform="translate(49.265625,101.0458984375)" y="0" x="0" id="text-entity-COMPANY-1f691400-099c-5213-80c0-52cd73efcd42-attr-4-name" class="er entityLabel">description</text></g><g transform="translate(264.1171875,466.091796875 )" id="entity-QUIZZ-de3fffde-7096-5790-a8c9-6e17989174c3"><rect height="134.27539157867432" width="110.71875" y="0" x="0" class="er entityBox"/><text style="dominant-baseline: middle; text-anchor: middle; font-size: 12px;" transform="translate(55.359375,12)" y="0" x="0" id="text-entity-QUIZZ-de3fffde-7096-5790-a8c9-6e17989174c3" class="er entityLabel">QUIZZ</text><rect height="22" width="46.140625" y="24" x="0" class="er attributeBoxOdd"/><text style="dominant-baseline: middle; font-size: 10.2px;" transform="translate(5,35)" y="0" x="0" id="text-entity-QUIZZ-de3fffde-7096-5790-a8c9-6e17989174c3-attr-1-type" class="er entityLabel">uuid</text><rect height="22" width="64.578125" y="24" x="46.140625" class="er attributeBoxOdd"/><text style="dominant-baseline: middle; font-size: 10.2px;" transform="translate(51.140625,35)" y="0" x="0" id="text-entity-QUIZZ-de3fffde-7096-5790-a8c9-6e17989174c3-attr-1-name" class="er entityLabel">id</text><rect height="22.091797828674316" width="46.140625" y="46" x="0" class="er attributeBoxEven"/><text style="dominant-baseline: middle; font-size: 10.2px;" transform="translate(5,57.04589891433716)" y="0" x="0" id="text-entity-QUIZZ-de3fffde-7096-5790-a8c9-6e17989174c3-attr-2-type" class="er entityLabel">uuid</text><rect height="22.091797828674316" width="64.578125" y="46" x="46.140625" class="er attributeBoxEven"/><text style="dominant-baseline: middle; font-size: 10.2px;" transform="translate(51.140625,57.04589891433716)" y="0" x="0" id="text-entity-QUIZZ-de3fffde-7096-5790-a8c9-6e17989174c3-attr-2-name" class="er entityLabel">company_id</text><rect height="22" width="46.140625" y="68.09179782867432" x="0" class="er attributeBoxOdd"/><text style="dominant-baseline: middle; font-size: 10.2px;" transform="translate(5,79.09179782867432)" y="0" x="0" id="text-entity-QUIZZ-de3fffde-7096-5790-a8c9-6e17989174c3-attr-3-type" class="er entityLabel">varchar</text><rect height="22" width="64.578125" y="68.09179782867432" x="46.140625" class="er attributeBoxOdd"/><text style="dominant-baseline: middle; font-size: 10.2px;" transform="translate(51.140625,79.09179782867432)" y="0" x="0" id="text-entity-QUIZZ-de3fffde-7096-5790-a8c9-6e17989174c3-attr-3-name" class="er entityLabel">title</text><rect height="22.091796875" width="46.140625" y="90.09179782867432" x="0" class="er attributeBoxEven"/><text style="dominant-baseline: middle; font-size: 10.2px;" transform="translate(5,101.13769626617432)" y="0" x="0" id="text-entity-QUIZZ-de3fffde-7096-5790-a8c9-6e17989174c3-attr-4-type" class="er entityLabel">varchar</text><rect height="22.091796875" width="64.578125" y="90.09179782867432" x="46.140625" class="er attributeBoxEven"/><text style="dominant-baseline: middle; font-size: 10.2px;" transform="translate(51.140625,101.13769626617432)" y="0" x="0" id="text-entity-QUIZZ-de3fffde-7096-5790-a8c9-6e17989174c3-attr-4-name" class="er entityLabel">description</text><rect height="22.091796875" width="46.140625" y="112.18359470367432" x="0" class="er attributeBoxOdd"/><text style="dominant-baseline: middle; font-size: 10.2px;" transform="translate(5,123.22949314117432)" y="0" x="0" id="text-entity-QUIZZ-de3fffde-7096-5790-a8c9-6e17989174c3-attr-5-type" class="er entityLabel">boolean</text><rect height="22.091796875" width="64.578125" y="112.18359470367432" x="46.140625" class="er attributeBoxOdd"/><text style="dominant-baseline: middle; font-size: 10.2px;" transform="translate(51.140625,123.22949314117432)" y="0" x="0" id="text-entity-QUIZZ-de3fffde-7096-5790-a8c9-6e17989174c3-attr-5-name" class="er entityLabel">ready</text></g><g transform="translate(258.0390625,700.3671875 )" id="entity-QUIZZQUESTION-1fb9be53-21b9-5620-bf5c-5f3a28a94e29"><rect height="112.18359470367432" width="122.875" y="0" x="0" class="er entityBox"/><text style="dominant-baseline: middle; text-anchor: middle; font-size: 12px;" transform="translate(61.4375,12)" y="0" x="0" id="text-entity-QUIZZQUESTION-1fb9be53-21b9-5620-bf5c-5f3a28a94e29" class="er entityLabel">QUIZZ_QUESTION</text><rect height="22" width="55.9609375" y="24" x="0" class="er attributeBoxOdd"/><text style="dominant-baseline: middle; font-size: 10.2px;" transform="translate(5,35)" y="0" x="0" id="text-entity-QUIZZQUESTION-1fb9be53-21b9-5620-bf5c-5f3a28a94e29-attr-1-type" class="er entityLabel">uuid</text><rect height="22" width="66.9140625" y="24" x="55.9609375" class="er attributeBoxOdd"/><text style="dominant-baseline: middle; font-size: 10.2px;" transform="translate(60.9609375,35)" y="0" x="0" id="text-entity-QUIZZQUESTION-1fb9be53-21b9-5620-bf5c-5f3a28a94e29-attr-1-name" class="er entityLabel">id</text><rect height="22.091797828674316" width="55.9609375" y="46" x="0" class="er attributeBoxEven"/><text style="dominant-baseline: middle; font-size: 10.2px;" transform="translate(5,57.04589891433716)" y="0" x="0" id="text-entity-QUIZZQUESTION-1fb9be53-21b9-5620-bf5c-5f3a28a94e29-attr-2-type" class="er entityLabel">uuid</text><rect height="22.091797828674316" width="66.9140625" y="46" x="55.9609375" class="er attributeBoxEven"/><text style="dominant-baseline: middle; font-size: 10.2px;" transform="translate(60.9609375,57.04589891433716)" y="0" x="0" id="text-entity-QUIZZQUESTION-1fb9be53-21b9-5620-bf5c-5f3a28a94e29-attr-2-name" class="er entityLabel">quizz_id</text><rect height="22" width="55.9609375" y="68.09179782867432" x="0" class="er attributeBoxOdd"/><text style="dominant-baseline: middle; font-size: 10.2px;" transform="translate(5,79.09179782867432)" y="0" x="0" id="text-entity-QUIZZQUESTION-1fb9be53-21b9-5620-bf5c-5f3a28a94e29-attr-3-type" class="er entityLabel">varchar</text><rect height="22" width="66.9140625" y="68.09179782867432" x="55.9609375" class="er attributeBoxOdd"/><text style="dominant-baseline: middle; font-size: 10.2px;" transform="translate(60.9609375,79.09179782867432)" y="0" x="0" id="text-entity-QUIZZQUESTION-1fb9be53-21b9-5620-bf5c-5f3a28a94e29-attr-3-name" class="er entityLabel">text</text><rect height="22.091796875" width="55.9609375" y="90.09179782867432" x="0" class="er attributeBoxEven"/><text style="dominant-baseline: middle; font-size: 10.2px;" transform="translate(5,101.13769626617432)" y="0" x="0" id="text-entity-QUIZZQUESTION-1fb9be53-21b9-5620-bf5c-5f3a28a94e29-attr-4-type" class="er entityLabel">number</text><rect height="22.091796875" width="66.9140625" y="90.09179782867432" x="55.9609375" class="er attributeBoxEven"/><text style="dominant-baseline: middle; font-size: 10.2px;" transform="translate(60.9609375,101.13769626617432)" y="0" x="0" id="text-entity-QUIZZQUESTION-1fb9be53-21b9-5620-bf5c-5f3a28a94e29-attr-4-name" class="er entityLabel">frequency</text></g><g transform="translate(252.1875,912.55078125 )" id="entity-QUESTIONANSWER-25b0c1fa-e5b6-57c5-ab46-606d4ade0e86"><rect height="112.09179782867432" width="134.578125" y="0" x="0" class="er entityBox"/><text style="dominant-baseline: middle; text-anchor: middle; font-size: 12px;" transform="translate(67.2890625,12)" y="0" x="0" id="text-entity-QUESTIONANSWER-25b0c1fa-e5b6-57c5-ab46-606d4ade0e86" class="er entityLabel">QUESTION_ANSWER</text><rect height="22" width="58.9140625" y="24" x="0" class="er attributeBoxOdd"/><text style="dominant-baseline: middle; font-size: 10.2px;" transform="translate(5,35)" y="0" x="0" id="text-entity-QUESTIONANSWER-25b0c1fa-e5b6-57c5-ab46-606d4ade0e86-attr-1-type" class="er entityLabel">uuid</text><rect height="22" width="75.6640625" y="24" x="58.9140625" class="er attributeBoxOdd"/><text style="dominant-baseline: middle; font-size: 10.2px;" transform="translate(63.9140625,35)" y="0" x="0" id="text-entity-QUESTIONANSWER-25b0c1fa-e5b6-57c5-ab46-606d4ade0e86-attr-1-name" class="er entityLabel">id</text><rect height="22.091797828674316" width="58.9140625" y="46" x="0" class="er attributeBoxEven"/><text style="dominant-baseline: middle; font-size: 10.2px;" transform="translate(5,57.04589891433716)" y="0" x="0" id="text-entity-QUESTIONANSWER-25b0c1fa-e5b6-57c5-ab46-606d4ade0e86-attr-2-type" class="er entityLabel">uuid</text><rect height="22.091797828674316" width="75.6640625" y="46" x="58.9140625" class="er attributeBoxEven"/><text style="dominant-baseline: middle; font-size: 10.2px;" transform="translate(63.9140625,57.04589891433716)" y="0" x="0" id="text-entity-QUESTIONANSWER-25b0c1fa-e5b6-57c5-ab46-606d4ade0e86-attr-2-name" class="er entityLabel">question_id</text><rect height="22" width="58.9140625" y="68.09179782867432" x="0" class="er attributeBoxOdd"/><text style="dominant-baseline: middle; font-size: 10.2px;" transform="translate(5,79.09179782867432)" y="0" x="0" id="text-entity-QUESTIONANSWER-25b0c1fa-e5b6-57c5-ab46-606d4ade0e86-attr-3-type" class="er entityLabel">varchar</text><rect height="22" width="75.6640625" y="68.09179782867432" x="58.9140625" class="er attributeBoxOdd"/><text style="dominant-baseline: middle; font-size: 10.2px;" transform="translate(63.9140625,79.09179782867432)" y="0" x="0" id="text-entity-QUESTIONANSWER-25b0c1fa-e5b6-57c5-ab46-606d4ade0e86-attr-3-name" class="er entityLabel">answer</text><rect height="22" width="58.9140625" y="90.09179782867432" x="0" class="er attributeBoxEven"/><text style="dominant-baseline: middle; font-size: 10.2px;" transform="translate(5,101.09179782867432)" y="0" x="0" id="text-entity-QUESTIONANSWER-25b0c1fa-e5b6-57c5-ab46-606d4ade0e86-attr-4-type" class="er entityLabel">boolean</text><rect height="22" width="75.6640625" y="90.09179782867432" x="58.9140625" class="er attributeBoxEven"/><text style="dominant-baseline: middle; font-size: 10.2px;" transform="translate(63.9140625,101.09179782867432)" y="0" x="0" id="text-entity-QUESTIONANSWER-25b0c1fa-e5b6-57c5-ab46-606d4ade0e86-attr-4-name" class="er entityLabel">is_correct</text></g><rect height="14" width="37.21875" y="274.4798278808594" x="15.40133285522461" class="er relationshipLabelBox"/><text style="text-anchor: middle; dominant-baseline: middle; font-size: 12px;" y="281.4798278808594" x="34.01070785522461" id="rel1" class="er relationshipLabel">relates</text><rect height="14" width="26.796875" y="193.90753173828125" x="249.57351684570312" class="er relationshipLabelBox"/><text style="text-anchor: middle; dominant-baseline: middle; font-size: 12px;" y="200.90753173828125" x="262.9719543457031" id="rel2" class="er relationshipLabel">owns</text><rect height="14" width="37.21875" y="408.4659423828125" x="145.56808471679688" class="er relationshipLabelBox"/><text style="text-anchor: middle; dominant-baseline: middle; font-size: 12px;" y="415.4659423828125" x="164.17745971679688" id="rel3" class="er relationshipLabel">relates</text><rect height="14" width="17.71875" y="407.3702087402344" x="306.2678527832031" class="er relationshipLabelBox"/><text style="text-anchor: middle; dominant-baseline: middle; font-size: 12px;" y="414.3702087402344" x="315.1272277832031" id="rel4" class="er relationshipLabel">has</text><rect height="14" width="58.916015625" y="643.3670043945312" x="290.01898193359375" class="er relationshipLabelBox"/><text style="text-anchor: middle; dominant-baseline: middle; font-size: 12px;" y="650.3670043945312" x="319.47698974609375" id="rel5" class="er relationshipLabel">consists_of</text><rect height="14" width="17.71875" y="855.551025390625" x="310.61761474609375" class="er relationshipLabelBox"/><text style="text-anchor: middle; dominant-baseline: middle; font-size: 12px;" y="862.551025390625" x="319.47698974609375" id="rel6" class="er relationshipLabel">has</text></svg>