<svg aria-roledescription="er" role="graphics-document document" viewBox="0 0 906.0081787109375 1053.376953125" style="max-width: 906.008px; background-color: white;" xmlns:xlink="http://www.w3.org/1999/xlink" xmlns="http://www.w3.org/2000/svg" width="100%" id="my-svg"><style>#my-svg{font-family:"trebuchet ms",verdana,arial,sans-serif;font-size:16px;fill:#333;}#my-svg .error-icon{fill:#552222;}#my-svg .error-text{fill:#552222;stroke:#552222;}#my-svg .edge-thickness-normal{stroke-width:1px;}#my-svg .edge-thickness-thick{stroke-width:3.5px;}#my-svg .edge-pattern-solid{stroke-dasharray:0;}#my-svg .edge-thickness-invisible{stroke-width:0;fill:none;}#my-svg .edge-pattern-dashed{stroke-dasharray:3;}#my-svg .edge-pattern-dotted{stroke-dasharray:2;}#my-svg .marker{fill:#333333;stroke:#333333;}#my-svg .marker.cross{stroke:#333333;}#my-svg svg{font-family:"trebuchet ms",verdana,arial,sans-serif;font-size:16px;}#my-svg p{margin:0;}#my-svg .entityBox{fill:#ECECFF;stroke:#9370DB;}#my-svg .attributeBoxOdd{fill:#ffffff;stroke:#9370DB;}#my-svg .attributeBoxEven{fill:#f2f2f2;stroke:#9370DB;}#my-svg .relationshipLabelBox{fill:hsl(80, 100%, 96.2745098039%);opacity:0.7;background-color:hsl(80, 100%, 96.2745098039%);}#my-svg .relationshipLabelBox rect{opacity:0.5;}#my-svg .relationshipLine{stroke:#333333;}#my-svg .entityTitleText{text-anchor:middle;font-size:18px;fill:#333;}#my-svg #MD_PARENT_START{fill:#f5f5f5!important;stroke:#333333!important;stroke-width:1;}#my-svg #MD_PARENT_END{fill:#f5f5f5!important;stroke:#333333!important;stroke-width:1;}#my-svg :root{--mermaid-font-family:"trebuchet ms",verdana,arial,sans-serif;}</style><g/><defs><marker orient="auto" markerHeight="240" markerWidth="190" refY="7" refX="0" id="MD_PARENT_START"><path d="M 18,7 L9,13 L1,7 L9,1 Z"/></marker></defs><defs><marker orient="auto" markerHeight="28" markerWidth="20" refY="7" refX="19" id="MD_PARENT_END"><path d="M 18,7 L9,13 L1,7 L9,1 Z"/></marker></defs><defs><marker orient="auto" markerHeight="18" markerWidth="18" refY="9" refX="0" id="ONLY_ONE_START"><path d="M9,0 L9,18 M15,0 L15,18" fill="none" stroke="gray"/></marker></defs><defs><marker orient="auto" markerHeight="18" markerWidth="18" refY="9" refX="18" id="ONLY_ONE_END"><path d="M3,0 L3,18 M9,0 L9,18" fill="none" stroke="gray"/></marker></defs><defs><marker orient="auto" markerHeight="18" markerWidth="30" refY="9" refX="0" id="ZERO_OR_ONE_START"><circle r="6" cy="9" cx="21" fill="white" stroke="gray"/><path d="M9,0 L9,18" fill="none" stroke="gray"/></marker></defs><defs><marker orient="auto" markerHeight="18" markerWidth="30" refY="9" refX="30" id="ZERO_OR_ONE_END"><circle r="6" cy="9" cx="9" fill="white" stroke="gray"/><path d="M21,0 L21,18" fill="none" stroke="gray"/></marker></defs><defs><marker orient="auto" markerHeight="36" markerWidth="45" refY="18" refX="18" id="ONE_OR_MORE_START"><path d="M0,18 Q 18,0 36,18 Q 18,36 0,18 M42,9 L42,27" fill="none" stroke="gray"/></marker></defs><defs><marker orient="auto" markerHeight="36" markerWidth="45" refY="18" refX="27" id="ONE_OR_MORE_END"><path d="M3,9 L3,27 M9,18 Q27,0 45,18 Q27,36 9,18" fill="none" stroke="gray"/></marker></defs><defs><marker orient="auto" markerHeight="36" markerWidth="57" refY="18" refX="18" id="ZERO_OR_MORE_START"><circle r="6" cy="18" cx="48" fill="white" stroke="gray"/><path d="M0,18 Q18,0 36,18 Q18,36 0,18" fill="none" stroke="gray"/></marker></defs><defs><marker orient="auto" markerHeight="36" markerWidth="57" refY="18" refX="39" id="ZERO_OR_MORE_END"><circle r="6" cy="18" cx="9" fill="white" stroke="gray"/><path d="M21,18 Q39,0 57,18 Q39,36 21,18" fill="none" stroke="gray"/></marker></defs><path style="stroke: gray; fill: none;" marker-start="url(#ONLY_ONE_START)" marker-end="url(#ZERO_OR_MORE_END)" d="M572.23,242.367L567.587,250.701C562.944,259.034,553.657,275.701,549.014,292.367C544.371,309.034,544.371,325.701,544.371,334.034L544.371,342.367" class="er relationshipLine"/><path style="stroke: gray; fill: none;" marker-start="url(#ONLY_ONE_START)" marker-end="url(#ZERO_OR_MORE_END)" d="M548.07,160.642L483.895,182.596C419.72,204.55,291.37,248.459,227.195,297.292C163.02,346.126,163.02,399.884,163.02,453.643C163.02,507.401,163.02,561.16,158.725,596.372C154.43,631.585,145.841,648.251,141.546,656.585L137.251,664.918" class="er relationshipLine"/><path style="stroke: gray; fill: none;" marker-start="url(#ONLY_ONE_START)" marker-end="url(#ZERO_OR_MORE_END)" d="M464.754,480.318L397.798,502.751C330.842,525.185,196.931,570.051,131.668,600.818C66.405,631.585,69.79,648.251,71.482,656.585L73.175,664.918" class="er relationshipLine"/><path style="stroke: gray; fill: none;" marker-start="url(#ONLY_ONE_START)" marker-end="url(#ZERO_OR_MORE_END)" d="M528.052,564.918L526.83,573.251C525.607,581.585,523.163,598.251,502.205,624.1C481.246,649.949,441.774,684.979,422.038,702.494L402.301,720.01" class="er relationshipLine"/><path style="stroke: gray; fill: none;" marker-start="url(#ONLY_ONE_START)" marker-end="url(#ZERO_OR_MORE_END)" d="M313.887,487.643L313.887,508.855C313.887,530.068,313.887,572.493,320.179,611.221C326.471,649.949,339.055,684.979,345.348,702.494L351.64,720.01" class="er relationshipLine"/><path style="stroke: gray; fill: none;" marker-start="url(#ONLY_ONE_START)" marker-end="url(#ZERO_OR_MORE_END)" d="M703.159,242.367L708.329,250.701C713.499,259.034,723.84,275.701,729.01,310.913C734.18,346.126,734.18,399.884,734.18,453.643C734.18,507.401,734.18,561.16,729.866,600.046C725.552,638.933,716.925,662.949,712.612,674.956L708.298,686.964" class="er relationshipLine"/><path style="stroke: gray; fill: none;" marker-start="url(#ONLY_ONE_START)" marker-end="url(#ZERO_OR_MORE_END)" d="M597.049,564.918L600.994,573.251C604.939,581.585,612.829,598.251,622.249,618.592C631.669,638.933,642.618,662.949,648.093,674.956L653.568,686.964" class="er relationshipLine"/><path style="stroke: gray; fill: none;" marker-start="url(#ONLY_ONE_START)" marker-end="url(#ZERO_OR_MORE_END)" d="M720.289,189.388L745.681,206.551C771.073,223.714,821.857,258.041,847.249,302.083C872.641,346.126,872.641,399.884,872.641,453.643C872.641,507.401,872.641,561.16,872.641,611.236C872.641,661.313,872.641,707.707,872.641,754.102C872.641,800.496,872.641,846.891,819.735,882.959C766.829,919.028,661.018,944.77,608.113,957.641L555.207,970.512" class="er relationshipLine"/><path style="stroke: gray; fill: none;" marker-start="url(#ONLY_ONE_START)" marker-end="url(#ZERO_OR_MORE_END)" d="M91.289,843.285L91.289,851.618C91.289,859.952,91.289,876.618,144.195,897.823C197.1,919.028,302.911,944.77,355.817,957.641L408.723,970.512" class="er relationshipLine"/><g transform="translate(548.0703125,20 )" id="entity-USERS-1e82e395-936c-57a7-8ba9-b08f03574b93"><rect height="222.36718940734863" width="172.21875" y="0" x="0" class="er entityBox"/><text style="dominant-baseline: middle; text-anchor: middle; font-size: 12px;" transform="translate(86.109375,12)" y="0" x="0" id="text-entity-USERS-1e82e395-936c-57a7-8ba9-b08f03574b93" class="er entityLabel">USERS</text><rect height="22" width="58.671875" y="24" x="0" class="er attributeBoxOdd"/><text style="dominant-baseline: middle; font-size: 10.2px;" transform="translate(5,35)" y="0" x="0" id="text-entity-USERS-1e82e395-936c-57a7-8ba9-b08f03574b93-attr-1-type" class="er entityLabel">uuid</text><rect height="22" width="91.046875" y="24" x="58.671875" class="er attributeBoxOdd"/><text style="dominant-baseline: middle; font-size: 10.2px;" transform="translate(63.671875,35)" y="0" x="0" id="text-entity-USERS-1e82e395-936c-57a7-8ba9-b08f03574b93-attr-1-name" class="er entityLabel">id</text><rect height="22" width="22.5" y="24" x="149.71875" class="er attributeBoxOdd"/><text style="dominant-baseline: middle; font-size: 10.2px;" transform="translate(154.71875,35)" y="0" x="0" id="text-entity-USERS-1e82e395-936c-57a7-8ba9-b08f03574b93-attr-1-key" class="er entityLabel">PK</text><rect height="22" width="58.671875" y="46" x="0" class="er attributeBoxEven"/><text style="dominant-baseline: middle; font-size: 10.2px;" transform="translate(5,57)" y="0" x="0" id="text-entity-USERS-1e82e395-936c-57a7-8ba9-b08f03574b93-attr-2-type" class="er entityLabel">varchar</text><rect height="22" width="91.046875" y="46" x="58.671875" class="er attributeBoxEven"/><text style="dominant-baseline: middle; font-size: 10.2px;" transform="translate(63.671875,57)" y="0" x="0" id="text-entity-USERS-1e82e395-936c-57a7-8ba9-b08f03574b93-attr-2-name" class="er entityLabel">first_name</text><rect height="22" width="22.5" y="46" x="149.71875" class="er attributeBoxEven"/><text style="dominant-baseline: middle; font-size: 10.2px;" transform="translate(154.71875,57)" y="0" x="0" id="text-entity-USERS-1e82e395-936c-57a7-8ba9-b08f03574b93-attr-2-key" class="er entityLabel"/><rect height="22" width="58.671875" y="68" x="0" class="er attributeBoxOdd"/><text style="dominant-baseline: middle; font-size: 10.2px;" transform="translate(5,79)" y="0" x="0" id="text-entity-USERS-1e82e395-936c-57a7-8ba9-b08f03574b93-attr-3-type" class="er entityLabel">varchar</text><rect height="22" width="91.046875" y="68" x="58.671875" class="er attributeBoxOdd"/><text style="dominant-baseline: middle; font-size: 10.2px;" transform="translate(63.671875,79)" y="0" x="0" id="text-entity-USERS-1e82e395-936c-57a7-8ba9-b08f03574b93-attr-3-name" class="er entityLabel">last_name</text><rect height="22" width="22.5" y="68" x="149.71875" class="er attributeBoxOdd"/><text style="dominant-baseline: middle; font-size: 10.2px;" transform="translate(154.71875,79)" y="0" x="0" id="text-entity-USERS-1e82e395-936c-57a7-8ba9-b08f03574b93-attr-3-key" class="er entityLabel"/><rect height="22" width="58.671875" y="90" x="0" class="er attributeBoxEven"/><text style="dominant-baseline: middle; font-size: 10.2px;" transform="translate(5,101)" y="0" x="0" id="text-entity-USERS-1e82e395-936c-57a7-8ba9-b08f03574b93-attr-4-type" class="er entityLabel">varchar</text><rect height="22" width="91.046875" y="90" x="58.671875" class="er attributeBoxEven"/><text style="dominant-baseline: middle; font-size: 10.2px;" transform="translate(63.671875,101)" y="0" x="0" id="text-entity-USERS-1e82e395-936c-57a7-8ba9-b08f03574b93-attr-4-name" class="er entityLabel">email</text><rect height="22" width="22.5" y="90" x="149.71875" class="er attributeBoxEven"/><text style="dominant-baseline: middle; font-size: 10.2px;" transform="translate(154.71875,101)" y="0" x="0" id="text-entity-USERS-1e82e395-936c-57a7-8ba9-b08f03574b93-attr-4-key" class="er entityLabel">UK</text><rect height="22.091796875" width="58.671875" y="112" x="0" class="er attributeBoxOdd"/><text style="dominant-baseline: middle; font-size: 10.2px;" transform="translate(5,123.0458984375)" y="0" x="0" id="text-entity-USERS-1e82e395-936c-57a7-8ba9-b08f03574b93-attr-5-type" class="er entityLabel">varchar</text><rect height="22.091796875" width="91.046875" y="112" x="58.671875" class="er attributeBoxOdd"/><text style="dominant-baseline: middle; font-size: 10.2px;" transform="translate(63.671875,123.0458984375)" y="0" x="0" id="text-entity-USERS-1e82e395-936c-57a7-8ba9-b08f03574b93-attr-5-name" class="er entityLabel">password_hash</text><rect height="22.091796875" width="22.5" y="112" x="149.71875" class="er attributeBoxOdd"/><text style="dominant-baseline: middle; font-size: 10.2px;" transform="translate(154.71875,123.0458984375)" y="0" x="0" id="text-entity-USERS-1e82e395-936c-57a7-8ba9-b08f03574b93-attr-5-key" class="er entityLabel"/><rect height="22" width="58.671875" y="134.091796875" x="0" class="er attributeBoxEven"/><text style="dominant-baseline: middle; font-size: 10.2px;" transform="translate(5,145.091796875)" y="0" x="0" id="text-entity-USERS-1e82e395-936c-57a7-8ba9-b08f03574b93-attr-6-type" class="er entityLabel">text</text><rect height="22" width="91.046875" y="134.091796875" x="58.671875" class="er attributeBoxEven"/><text style="dominant-baseline: middle; font-size: 10.2px;" transform="translate(63.671875,145.091796875)" y="0" x="0" id="text-entity-USERS-1e82e395-936c-57a7-8ba9-b08f03574b93-attr-6-name" class="er entityLabel">bio</text><rect height="22" width="22.5" y="134.091796875" x="149.71875" class="er attributeBoxEven"/><text style="dominant-baseline: middle; font-size: 10.2px;" transform="translate(154.71875,145.091796875)" y="0" x="0" id="text-entity-USERS-1e82e395-936c-57a7-8ba9-b08f03574b93-attr-6-key" class="er entityLabel"/><rect height="22.091796875" width="58.671875" y="156.091796875" x="0" class="er attributeBoxOdd"/><text style="dominant-baseline: middle; font-size: 10.2px;" transform="translate(5,167.1376953125)" y="0" x="0" id="text-entity-USERS-1e82e395-936c-57a7-8ba9-b08f03574b93-attr-7-type" class="er entityLabel">varchar</text><rect height="22.091796875" width="91.046875" y="156.091796875" x="58.671875" class="er attributeBoxOdd"/><text style="dominant-baseline: middle; font-size: 10.2px;" transform="translate(63.671875,167.1376953125)" y="0" x="0" id="text-entity-USERS-1e82e395-936c-57a7-8ba9-b08f03574b93-attr-7-name" class="er entityLabel">profile_image_url</text><rect height="22.091796875" width="22.5" y="156.091796875" x="149.71875" class="er attributeBoxOdd"/><text style="dominant-baseline: middle; font-size: 10.2px;" transform="translate(154.71875,167.1376953125)" y="0" x="0" id="text-entity-USERS-1e82e395-936c-57a7-8ba9-b08f03574b93-attr-7-key" class="er entityLabel"/><rect height="22.091797828674316" width="58.671875" y="178.18359375" x="0" class="er attributeBoxEven"/><text style="dominant-baseline: middle; font-size: 10.2px;" transform="translate(5,189.22949266433716)" y="0" x="0" id="text-entity-USERS-1e82e395-936c-57a7-8ba9-b08f03574b93-attr-8-type" class="er entityLabel">timestamp</text><rect height="22.091797828674316" width="91.046875" y="178.18359375" x="58.671875" class="er attributeBoxEven"/><text style="dominant-baseline: middle; font-size: 10.2px;" transform="translate(63.671875,189.22949266433716)" y="0" x="0" id="text-entity-USERS-1e82e395-936c-57a7-8ba9-b08f03574b93-attr-8-name" class="er entityLabel">created_at</text><rect height="22.091797828674316" width="22.5" y="178.18359375" x="149.71875" class="er attributeBoxEven"/><text style="dominant-baseline: middle; font-size: 10.2px;" transform="translate(154.71875,189.22949266433716)" y="0" x="0" id="text-entity-USERS-1e82e395-936c-57a7-8ba9-b08f03574b93-attr-8-key" class="er entityLabel"/><rect height="22.091797828674316" width="58.671875" y="200.27539157867432" x="0" class="er attributeBoxOdd"/><text style="dominant-baseline: middle; font-size: 10.2px;" transform="translate(5,211.32129049301147)" y="0" x="0" id="text-entity-USERS-1e82e395-936c-57a7-8ba9-b08f03574b93-attr-9-type" class="er entityLabel">timestamp</text><rect height="22.091797828674316" width="91.046875" y="200.27539157867432" x="58.671875" class="er attributeBoxOdd"/><text style="dominant-baseline: middle; font-size: 10.2px;" transform="translate(63.671875,211.32129049301147)" y="0" x="0" id="text-entity-USERS-1e82e395-936c-57a7-8ba9-b08f03574b93-attr-9-name" class="er entityLabel">updated_at</text><rect height="22.091797828674316" width="22.5" y="200.27539157867432" x="149.71875" class="er attributeBoxOdd"/><text style="dominant-baseline: middle; font-size: 10.2px;" transform="translate(154.71875,211.32129049301147)" y="0" x="0" id="text-entity-USERS-1e82e395-936c-57a7-8ba9-b08f03574b93-attr-9-key" class="er entityLabel"/></g><g transform="translate(464.75390625,342.3671875 )" id="entity-POSTS-8b9e29bd-1bb5-5e7b-b4e1-8fd7a8ad1a35"><rect height="222.55078506469727" width="159.234375" y="0" x="0" class="er entityBox"/><text style="dominant-baseline: middle; text-anchor: middle; font-size: 12px;" transform="translate(79.6171875,12)" y="0" x="0" id="text-entity-POSTS-8b9e29bd-1bb5-5e7b-b4e1-8fd7a8ad1a35" class="er entityLabel">POSTS</text><rect height="22" width="58.671875" y="24" x="0" class="er attributeBoxOdd"/><text style="dominant-baseline: middle; font-size: 10.2px;" transform="translate(5,35)" y="0" x="0" id="text-entity-POSTS-8b9e29bd-1bb5-5e7b-b4e1-8fd7a8ad1a35-attr-1-type" class="er entityLabel">uuid</text><rect height="22" width="79" y="24" x="58.671875" class="er attributeBoxOdd"/><text style="dominant-baseline: middle; font-size: 10.2px;" transform="translate(63.671875,35)" y="0" x="0" id="text-entity-POSTS-8b9e29bd-1bb5-5e7b-b4e1-8fd7a8ad1a35-attr-1-name" class="er entityLabel">id</text><rect height="22" width="21.5625" y="24" x="137.671875" class="er attributeBoxOdd"/><text style="dominant-baseline: middle; font-size: 10.2px;" transform="translate(142.671875,35)" y="0" x="0" id="text-entity-POSTS-8b9e29bd-1bb5-5e7b-b4e1-8fd7a8ad1a35-attr-1-key" class="er entityLabel">PK</text><rect height="22" width="58.671875" y="46" x="0" class="er attributeBoxEven"/><text style="dominant-baseline: middle; font-size: 10.2px;" transform="translate(5,57)" y="0" x="0" id="text-entity-POSTS-8b9e29bd-1bb5-5e7b-b4e1-8fd7a8ad1a35-attr-2-type" class="er entityLabel">uuid</text><rect height="22" width="79" y="46" x="58.671875" class="er attributeBoxEven"/><text style="dominant-baseline: middle; font-size: 10.2px;" transform="translate(63.671875,57)" y="0" x="0" id="text-entity-POSTS-8b9e29bd-1bb5-5e7b-b4e1-8fd7a8ad1a35-attr-2-name" class="er entityLabel">author_id</text><rect height="22" width="21.5625" y="46" x="137.671875" class="er attributeBoxEven"/><text style="dominant-baseline: middle; font-size: 10.2px;" transform="translate(142.671875,57)" y="0" x="0" id="text-entity-POSTS-8b9e29bd-1bb5-5e7b-b4e1-8fd7a8ad1a35-attr-2-key" class="er entityLabel">FK</text><rect height="22" width="58.671875" y="68" x="0" class="er attributeBoxOdd"/><text style="dominant-baseline: middle; font-size: 10.2px;" transform="translate(5,79)" y="0" x="0" id="text-entity-POSTS-8b9e29bd-1bb5-5e7b-b4e1-8fd7a8ad1a35-attr-3-type" class="er entityLabel">varchar</text><rect height="22" width="79" y="68" x="58.671875" class="er attributeBoxOdd"/><text style="dominant-baseline: middle; font-size: 10.2px;" transform="translate(63.671875,79)" y="0" x="0" id="text-entity-POSTS-8b9e29bd-1bb5-5e7b-b4e1-8fd7a8ad1a35-attr-3-name" class="er entityLabel">title</text><rect height="22" width="21.5625" y="68" x="137.671875" class="er attributeBoxOdd"/><text style="dominant-baseline: middle; font-size: 10.2px;" transform="translate(142.671875,79)" y="0" x="0" id="text-entity-POSTS-8b9e29bd-1bb5-5e7b-b4e1-8fd7a8ad1a35-attr-3-key" class="er entityLabel"/><rect height="22.091796875" width="58.671875" y="90" x="0" class="er attributeBoxEven"/><text style="dominant-baseline: middle; font-size: 10.2px;" transform="translate(5,101.0458984375)" y="0" x="0" id="text-entity-POSTS-8b9e29bd-1bb5-5e7b-b4e1-8fd7a8ad1a35-attr-4-type" class="er entityLabel">text</text><rect height="22.091796875" width="79" y="90" x="58.671875" class="er attributeBoxEven"/><text style="dominant-baseline: middle; font-size: 10.2px;" transform="translate(63.671875,101.0458984375)" y="0" x="0" id="text-entity-POSTS-8b9e29bd-1bb5-5e7b-b4e1-8fd7a8ad1a35-attr-4-name" class="er entityLabel">description</text><rect height="22.091796875" width="21.5625" y="90" x="137.671875" class="er attributeBoxEven"/><text style="dominant-baseline: middle; font-size: 10.2px;" transform="translate(142.671875,101.0458984375)" y="0" x="0" id="text-entity-POSTS-8b9e29bd-1bb5-5e7b-b4e1-8fd7a8ad1a35-attr-4-key" class="er entityLabel"/><rect height="22.091797828674316" width="58.671875" y="112.091796875" x="0" class="er attributeBoxOdd"/><text style="dominant-baseline: middle; font-size: 10.2px;" transform="translate(5,123.13769578933716)" y="0" x="0" id="text-entity-POSTS-8b9e29bd-1bb5-5e7b-b4e1-8fd7a8ad1a35-attr-5-type" class="er entityLabel">varchar</text><rect height="22.091797828674316" width="79" y="112.091796875" x="58.671875" class="er attributeBoxOdd"/><text style="dominant-baseline: middle; font-size: 10.2px;" transform="translate(63.671875,123.13769578933716)" y="0" x="0" id="text-entity-POSTS-8b9e29bd-1bb5-5e7b-b4e1-8fd7a8ad1a35-attr-5-name" class="er entityLabel">image_url</text><rect height="22.091797828674316" width="21.5625" y="112.091796875" x="137.671875" class="er attributeBoxOdd"/><text style="dominant-baseline: middle; font-size: 10.2px;" transform="translate(142.671875,123.13769578933716)" y="0" x="0" id="text-entity-POSTS-8b9e29bd-1bb5-5e7b-b4e1-8fd7a8ad1a35-attr-5-key" class="er entityLabel"/><rect height="22.091796875" width="58.671875" y="134.18359470367432" x="0" class="er attributeBoxEven"/><text style="dominant-baseline: middle; font-size: 10.2px;" transform="translate(5,145.22949314117432)" y="0" x="0" id="text-entity-POSTS-8b9e29bd-1bb5-5e7b-b4e1-8fd7a8ad1a35-attr-6-type" class="er entityLabel">enum</text><rect height="22.091796875" width="79" y="134.18359470367432" x="58.671875" class="er attributeBoxEven"/><text style="dominant-baseline: middle; font-size: 10.2px;" transform="translate(63.671875,145.22949314117432)" y="0" x="0" id="text-entity-POSTS-8b9e29bd-1bb5-5e7b-b4e1-8fd7a8ad1a35-attr-6-name" class="er entityLabel">visibility</text><rect height="22.091796875" width="21.5625" y="134.18359470367432" x="137.671875" class="er attributeBoxEven"/><text style="dominant-baseline: middle; font-size: 10.2px;" transform="translate(142.671875,145.22949314117432)" y="0" x="0" id="text-entity-POSTS-8b9e29bd-1bb5-5e7b-b4e1-8fd7a8ad1a35-attr-6-key" class="er entityLabel"/><rect height="22.091797828674316" width="58.671875" y="156.27539157867432" x="0" class="er attributeBoxOdd"/><text style="dominant-baseline: middle; font-size: 10.2px;" transform="translate(5,167.32129049301147)" y="0" x="0" id="text-entity-POSTS-8b9e29bd-1bb5-5e7b-b4e1-8fd7a8ad1a35-attr-7-type" class="er entityLabel">integer</text><rect height="22.091797828674316" width="79" y="156.27539157867432" x="58.671875" class="er attributeBoxOdd"/><text style="dominant-baseline: middle; font-size: 10.2px;" transform="translate(63.671875,167.32129049301147)" y="0" x="0" id="text-entity-POSTS-8b9e29bd-1bb5-5e7b-b4e1-8fd7a8ad1a35-attr-7-name" class="er entityLabel">reaction_count</text><rect height="22.091797828674316" width="21.5625" y="156.27539157867432" x="137.671875" class="er attributeBoxOdd"/><text style="dominant-baseline: middle; font-size: 10.2px;" transform="translate(142.671875,167.32129049301147)" y="0" x="0" id="text-entity-POSTS-8b9e29bd-1bb5-5e7b-b4e1-8fd7a8ad1a35-attr-7-key" class="er entityLabel"/><rect height="22.091797828674316" width="58.671875" y="178.36718940734863" x="0" class="er attributeBoxEven"/><text style="dominant-baseline: middle; font-size: 10.2px;" transform="translate(5,189.4130883216858)" y="0" x="0" id="text-entity-POSTS-8b9e29bd-1bb5-5e7b-b4e1-8fd7a8ad1a35-attr-8-type" class="er entityLabel">timestamp</text><rect height="22.091797828674316" width="79" y="178.36718940734863" x="58.671875" class="er attributeBoxEven"/><text style="dominant-baseline: middle; font-size: 10.2px;" transform="translate(63.671875,189.4130883216858)" y="0" x="0" id="text-entity-POSTS-8b9e29bd-1bb5-5e7b-b4e1-8fd7a8ad1a35-attr-8-name" class="er entityLabel">created_at</text><rect height="22.091797828674316" width="21.5625" y="178.36718940734863" x="137.671875" class="er attributeBoxEven"/><text style="dominant-baseline: middle; font-size: 10.2px;" transform="translate(142.671875,189.4130883216858)" y="0" x="0" id="text-entity-POSTS-8b9e29bd-1bb5-5e7b-b4e1-8fd7a8ad1a35-attr-8-key" class="er entityLabel"/><rect height="22.091797828674316" width="58.671875" y="200.45898723602295" x="0" class="er attributeBoxOdd"/><text style="dominant-baseline: middle; font-size: 10.2px;" transform="translate(5,211.5048861503601)" y="0" x="0" id="text-entity-POSTS-8b9e29bd-1bb5-5e7b-b4e1-8fd7a8ad1a35-attr-9-type" class="er entityLabel">timestamp</text><rect height="22.091797828674316" width="79" y="200.45898723602295" x="58.671875" class="er attributeBoxOdd"/><text style="dominant-baseline: middle; font-size: 10.2px;" transform="translate(63.671875,211.5048861503601)" y="0" x="0" id="text-entity-POSTS-8b9e29bd-1bb5-5e7b-b4e1-8fd7a8ad1a35-attr-9-name" class="er entityLabel">updated_at</text><rect height="22.091797828674316" width="21.5625" y="200.45898723602295" x="137.671875" class="er attributeBoxOdd"/><text style="dominant-baseline: middle; font-size: 10.2px;" transform="translate(142.671875,211.5048861503601)" y="0" x="0" id="text-entity-POSTS-8b9e29bd-1bb5-5e7b-b4e1-8fd7a8ad1a35-attr-9-key" class="er entityLabel"/></g><g transform="translate(263.01953125,419.642578125 )" id="entity-TAGS-d29308f0-f2c6-5478-be38-7375374d6eb9"><rect height="68" width="101.734375" y="0" x="0" class="er entityBox"/><text style="dominant-baseline: middle; text-anchor: middle; font-size: 12px;" transform="translate(50.8671875,12)" y="0" x="0" id="text-entity-TAGS-d29308f0-f2c6-5478-be38-7375374d6eb9" class="er entityLabel">TAGS</text><rect height="22" width="44.265625" y="24" x="0" class="er attributeBoxOdd"/><text style="dominant-baseline: middle; font-size: 10.2px;" transform="translate(5,35)" y="0" x="0" id="text-entity-TAGS-d29308f0-f2c6-5478-be38-7375374d6eb9-attr-1-type" class="er entityLabel">uuid</text><rect height="22" width="34.96875" y="24" x="44.265625" class="er attributeBoxOdd"/><text style="dominant-baseline: middle; font-size: 10.2px;" transform="translate(49.265625,35)" y="0" x="0" id="text-entity-TAGS-d29308f0-f2c6-5478-be38-7375374d6eb9-attr-1-name" class="er entityLabel">id</text><rect height="22" width="22.5" y="24" x="79.234375" class="er attributeBoxOdd"/><text style="dominant-baseline: middle; font-size: 10.2px;" transform="translate(84.234375,35)" y="0" x="0" id="text-entity-TAGS-d29308f0-f2c6-5478-be38-7375374d6eb9-attr-1-key" class="er entityLabel">PK</text><rect height="22" width="44.265625" y="46" x="0" class="er attributeBoxEven"/><text style="dominant-baseline: middle; font-size: 10.2px;" transform="translate(5,57)" y="0" x="0" id="text-entity-TAGS-d29308f0-f2c6-5478-be38-7375374d6eb9-attr-2-type" class="er entityLabel">varchar</text><rect height="22" width="34.96875" y="46" x="44.265625" class="er attributeBoxEven"/><text style="dominant-baseline: middle; font-size: 10.2px;" transform="translate(49.265625,57)" y="0" x="0" id="text-entity-TAGS-d29308f0-f2c6-5478-be38-7375374d6eb9-attr-2-name" class="er entityLabel">name</text><rect height="22" width="22.5" y="46" x="79.234375" class="er attributeBoxEven"/><text style="dominant-baseline: middle; font-size: 10.2px;" transform="translate(84.234375,57)" y="0" x="0" id="text-entity-TAGS-d29308f0-f2c6-5478-be38-7375374d6eb9-attr-2-key" class="er entityLabel">UK</text></g><g transform="translate(20,664.91796875 )" id="entity-COMMENTS-60c35e71-9a87-5bf4-9b85-3f298e64884a"><rect height="178.36719131469727" width="142.578125" y="0" x="0" class="er entityBox"/><text style="dominant-baseline: middle; text-anchor: middle; font-size: 12px;" transform="translate(71.2890625,12)" y="0" x="0" id="text-entity-COMMENTS-60c35e71-9a87-5bf4-9b85-3f298e64884a" class="er entityLabel">COMMENTS</text><rect height="22" width="58.671875" y="24" x="0" class="er attributeBoxOdd"/><text style="dominant-baseline: middle; font-size: 10.2px;" transform="translate(5,35)" y="0" x="0" id="text-entity-COMMENTS-60c35e71-9a87-5bf4-9b85-3f298e64884a-attr-1-type" class="er entityLabel">uuid</text><rect height="22" width="62.34375" y="24" x="58.671875" class="er attributeBoxOdd"/><text style="dominant-baseline: middle; font-size: 10.2px;" transform="translate(63.671875,35)" y="0" x="0" id="text-entity-COMMENTS-60c35e71-9a87-5bf4-9b85-3f298e64884a-attr-1-name" class="er entityLabel">id</text><rect height="22" width="21.5625" y="24" x="121.015625" class="er attributeBoxOdd"/><text style="dominant-baseline: middle; font-size: 10.2px;" transform="translate(126.015625,35)" y="0" x="0" id="text-entity-COMMENTS-60c35e71-9a87-5bf4-9b85-3f298e64884a-attr-1-key" class="er entityLabel">PK</text><rect height="22.091797828674316" width="58.671875" y="46" x="0" class="er attributeBoxEven"/><text style="dominant-baseline: middle; font-size: 10.2px;" transform="translate(5,57.04589891433716)" y="0" x="0" id="text-entity-COMMENTS-60c35e71-9a87-5bf4-9b85-3f298e64884a-attr-2-type" class="er entityLabel">uuid</text><rect height="22.091797828674316" width="62.34375" y="46" x="58.671875" class="er attributeBoxEven"/><text style="dominant-baseline: middle; font-size: 10.2px;" transform="translate(63.671875,57.04589891433716)" y="0" x="0" id="text-entity-COMMENTS-60c35e71-9a87-5bf4-9b85-3f298e64884a-attr-2-name" class="er entityLabel">post_id</text><rect height="22.091797828674316" width="21.5625" y="46" x="121.015625" class="er attributeBoxEven"/><text style="dominant-baseline: middle; font-size: 10.2px;" transform="translate(126.015625,57.04589891433716)" y="0" x="0" id="text-entity-COMMENTS-60c35e71-9a87-5bf4-9b85-3f298e64884a-attr-2-key" class="er entityLabel">FK</text><rect height="22" width="58.671875" y="68.09179782867432" x="0" class="er attributeBoxOdd"/><text style="dominant-baseline: middle; font-size: 10.2px;" transform="translate(5,79.09179782867432)" y="0" x="0" id="text-entity-COMMENTS-60c35e71-9a87-5bf4-9b85-3f298e64884a-attr-3-type" class="er entityLabel">uuid</text><rect height="22" width="62.34375" y="68.09179782867432" x="58.671875" class="er attributeBoxOdd"/><text style="dominant-baseline: middle; font-size: 10.2px;" transform="translate(63.671875,79.09179782867432)" y="0" x="0" id="text-entity-COMMENTS-60c35e71-9a87-5bf4-9b85-3f298e64884a-attr-3-name" class="er entityLabel">author_id</text><rect height="22" width="21.5625" y="68.09179782867432" x="121.015625" class="er attributeBoxOdd"/><text style="dominant-baseline: middle; font-size: 10.2px;" transform="translate(126.015625,79.09179782867432)" y="0" x="0" id="text-entity-COMMENTS-60c35e71-9a87-5bf4-9b85-3f298e64884a-attr-3-key" class="er entityLabel">FK</text><rect height="22" width="58.671875" y="90.09179782867432" x="0" class="er attributeBoxEven"/><text style="dominant-baseline: middle; font-size: 10.2px;" transform="translate(5,101.09179782867432)" y="0" x="0" id="text-entity-COMMENTS-60c35e71-9a87-5bf4-9b85-3f298e64884a-attr-4-type" class="er entityLabel">text</text><rect height="22" width="62.34375" y="90.09179782867432" x="58.671875" class="er attributeBoxEven"/><text style="dominant-baseline: middle; font-size: 10.2px;" transform="translate(63.671875,101.09179782867432)" y="0" x="0" id="text-entity-COMMENTS-60c35e71-9a87-5bf4-9b85-3f298e64884a-attr-4-name" class="er entityLabel">content</text><rect height="22" width="21.5625" y="90.09179782867432" x="121.015625" class="er attributeBoxEven"/><text style="dominant-baseline: middle; font-size: 10.2px;" transform="translate(126.015625,101.09179782867432)" y="0" x="0" id="text-entity-COMMENTS-60c35e71-9a87-5bf4-9b85-3f298e64884a-attr-4-key" class="er entityLabel"/><rect height="22.091797828674316" width="58.671875" y="112.09179782867432" x="0" class="er attributeBoxOdd"/><text style="dominant-baseline: middle; font-size: 10.2px;" transform="translate(5,123.13769674301147)" y="0" x="0" id="text-entity-COMMENTS-60c35e71-9a87-5bf4-9b85-3f298e64884a-attr-5-type" class="er entityLabel">integer</text><rect height="22.091797828674316" width="62.34375" y="112.09179782867432" x="58.671875" class="er attributeBoxOdd"/><text style="dominant-baseline: middle; font-size: 10.2px;" transform="translate(63.671875,123.13769674301147)" y="0" x="0" id="text-entity-COMMENTS-60c35e71-9a87-5bf4-9b85-3f298e64884a-attr-5-name" class="er entityLabel">like_count</text><rect height="22.091797828674316" width="21.5625" y="112.09179782867432" x="121.015625" class="er attributeBoxOdd"/><text style="dominant-baseline: middle; font-size: 10.2px;" transform="translate(126.015625,123.13769674301147)" y="0" x="0" id="text-entity-COMMENTS-60c35e71-9a87-5bf4-9b85-3f298e64884a-attr-5-key" class="er entityLabel"/><rect height="22.091797828674316" width="58.671875" y="134.18359565734863" x="0" class="er attributeBoxEven"/><text style="dominant-baseline: middle; font-size: 10.2px;" transform="translate(5,145.2294945716858)" y="0" x="0" id="text-entity-COMMENTS-60c35e71-9a87-5bf4-9b85-3f298e64884a-attr-6-type" class="er entityLabel">timestamp</text><rect height="22.091797828674316" width="62.34375" y="134.18359565734863" x="58.671875" class="er attributeBoxEven"/><text style="dominant-baseline: middle; font-size: 10.2px;" transform="translate(63.671875,145.2294945716858)" y="0" x="0" id="text-entity-COMMENTS-60c35e71-9a87-5bf4-9b85-3f298e64884a-attr-6-name" class="er entityLabel">created_at</text><rect height="22.091797828674316" width="21.5625" y="134.18359565734863" x="121.015625" class="er attributeBoxEven"/><text style="dominant-baseline: middle; font-size: 10.2px;" transform="translate(126.015625,145.2294945716858)" y="0" x="0" id="text-entity-COMMENTS-60c35e71-9a87-5bf4-9b85-3f298e64884a-attr-6-key" class="er entityLabel"/><rect height="22.091797828674316" width="58.671875" y="156.27539348602295" x="0" class="er attributeBoxOdd"/><text style="dominant-baseline: middle; font-size: 10.2px;" transform="translate(5,167.3212924003601)" y="0" x="0" id="text-entity-COMMENTS-60c35e71-9a87-5bf4-9b85-3f298e64884a-attr-7-type" class="er entityLabel">timestamp</text><rect height="22.091797828674316" width="62.34375" y="156.27539348602295" x="58.671875" class="er attributeBoxOdd"/><text style="dominant-baseline: middle; font-size: 10.2px;" transform="translate(63.671875,167.3212924003601)" y="0" x="0" id="text-entity-COMMENTS-60c35e71-9a87-5bf4-9b85-3f298e64884a-attr-7-name" class="er entityLabel">updated_at</text><rect height="22.091797828674316" width="21.5625" y="156.27539348602295" x="121.015625" class="er attributeBoxOdd"/><text style="dominant-baseline: middle; font-size: 10.2px;" transform="translate(126.015625,167.3212924003601)" y="0" x="0" id="text-entity-COMMENTS-60c35e71-9a87-5bf4-9b85-3f298e64884a-attr-7-key" class="er entityLabel"/></g><g transform="translate(313.88671875,720.009765625 )" id="entity-POSTTAGS-214b8aa2-247f-5edc-98d9-5d8cde1526c7"><rect height="68.18359565734863" width="100" y="0" x="0" class="er entityBox"/><text style="dominant-baseline: middle; text-anchor: middle; font-size: 12px;" transform="translate(50,12)" y="0" x="0" id="text-entity-POSTTAGS-214b8aa2-247f-5edc-98d9-5d8cde1526c7" class="er entityLabel">POST_TAGS</text><rect height="22.091797828674316" width="31.661458333333332" y="24" x="0" class="er attributeBoxOdd"/><text style="dominant-baseline: middle; font-size: 10.2px;" transform="translate(5,35.04589891433716)" y="0" x="0" id="text-entity-POSTTAGS-214b8aa2-247f-5edc-98d9-5d8cde1526c7-attr-1-type" class="er entityLabel">uuid</text><rect height="22.091797828674316" width="45.192708333333336" y="24" x="31.661458333333332" class="er attributeBoxOdd"/><text style="dominant-baseline: middle; font-size: 10.2px;" transform="translate(36.66145833333333,35.04589891433716)" y="0" x="0" id="text-entity-POSTTAGS-214b8aa2-247f-5edc-98d9-5d8cde1526c7-attr-1-name" class="er entityLabel">post_id</text><rect height="22.091797828674316" width="23.145833333333332" y="24" x="76.85416666666667" class="er attributeBoxOdd"/><text style="dominant-baseline: middle; font-size: 10.2px;" transform="translate(81.85416666666667,35.04589891433716)" y="0" x="0" id="text-entity-POSTTAGS-214b8aa2-247f-5edc-98d9-5d8cde1526c7-attr-1-key" class="er entityLabel">FK</text><rect height="22.091797828674316" width="31.661458333333332" y="46.091797828674316" x="0" class="er attributeBoxEven"/><text style="dominant-baseline: middle; font-size: 10.2px;" transform="translate(5,57.137696743011475)" y="0" x="0" id="text-entity-POSTTAGS-214b8aa2-247f-5edc-98d9-5d8cde1526c7-attr-2-type" class="er entityLabel">uuid</text><rect height="22.091797828674316" width="45.192708333333336" y="46.091797828674316" x="31.661458333333332" class="er attributeBoxEven"/><text style="dominant-baseline: middle; font-size: 10.2px;" transform="translate(36.66145833333333,57.137696743011475)" y="0" x="0" id="text-entity-POSTTAGS-214b8aa2-247f-5edc-98d9-5d8cde1526c7-attr-2-name" class="er entityLabel">tag_id</text><rect height="22.091797828674316" width="23.145833333333332" y="46.091797828674316" x="76.85416666666667" class="er attributeBoxEven"/><text style="dominant-baseline: middle; font-size: 10.2px;" transform="translate(81.85416666666667,57.137696743011475)" y="0" x="0" id="text-entity-POSTTAGS-214b8aa2-247f-5edc-98d9-5d8cde1526c7-attr-2-key" class="er entityLabel">FK</text></g><g transform="translate(607.2578125,686.9638671875 )" id="entity-POSTREACTIONS-c141f5df-5c2c-5a74-b8c7-d891c6e4b823"><rect height="134.27539348602295" width="153.84375" y="0" x="0" class="er entityBox"/><text style="dominant-baseline: middle; text-anchor: middle; font-size: 12px;" transform="translate(76.921875,12)" y="0" x="0" id="text-entity-POSTREACTIONS-c141f5df-5c2c-5a74-b8c7-d891c6e4b823" class="er entityLabel">POST_REACTIONS</text><rect height="22" width="58.671875" y="24" x="0" class="er attributeBoxOdd"/><text style="dominant-baseline: middle; font-size: 10.2px;" transform="translate(5,35)" y="0" x="0" id="text-entity-POSTREACTIONS-c141f5df-5c2c-5a74-b8c7-d891c6e4b823-attr-1-type" class="er entityLabel">uuid</text><rect height="22" width="73.609375" y="24" x="58.671875" class="er attributeBoxOdd"/><text style="dominant-baseline: middle; font-size: 10.2px;" transform="translate(63.671875,35)" y="0" x="0" id="text-entity-POSTREACTIONS-c141f5df-5c2c-5a74-b8c7-d891c6e4b823-attr-1-name" class="er entityLabel">id</text><rect height="22" width="21.5625" y="24" x="132.28125" class="er attributeBoxOdd"/><text style="dominant-baseline: middle; font-size: 10.2px;" transform="translate(137.28125,35)" y="0" x="0" id="text-entity-POSTREACTIONS-c141f5df-5c2c-5a74-b8c7-d891c6e4b823-attr-1-key" class="er entityLabel">PK</text><rect height="22.091797828674316" width="58.671875" y="46" x="0" class="er attributeBoxEven"/><text style="dominant-baseline: middle; font-size: 10.2px;" transform="translate(5,57.04589891433716)" y="0" x="0" id="text-entity-POSTREACTIONS-c141f5df-5c2c-5a74-b8c7-d891c6e4b823-attr-2-type" class="er entityLabel">uuid</text><rect height="22.091797828674316" width="73.609375" y="46" x="58.671875" class="er attributeBoxEven"/><text style="dominant-baseline: middle; font-size: 10.2px;" transform="translate(63.671875,57.04589891433716)" y="0" x="0" id="text-entity-POSTREACTIONS-c141f5df-5c2c-5a74-b8c7-d891c6e4b823-attr-2-name" class="er entityLabel">post_id</text><rect height="22.091797828674316" width="21.5625" y="46" x="132.28125" class="er attributeBoxEven"/><text style="dominant-baseline: middle; font-size: 10.2px;" transform="translate(137.28125,57.04589891433716)" y="0" x="0" id="text-entity-POSTREACTIONS-c141f5df-5c2c-5a74-b8c7-d891c6e4b823-attr-2-key" class="er entityLabel">FK</text><rect height="22" width="58.671875" y="68.09179782867432" x="0" class="er attributeBoxOdd"/><text style="dominant-baseline: middle; font-size: 10.2px;" transform="translate(5,79.09179782867432)" y="0" x="0" id="text-entity-POSTREACTIONS-c141f5df-5c2c-5a74-b8c7-d891c6e4b823-attr-3-type" class="er entityLabel">uuid</text><rect height="22" width="73.609375" y="68.09179782867432" x="58.671875" class="er attributeBoxOdd"/><text style="dominant-baseline: middle; font-size: 10.2px;" transform="translate(63.671875,79.09179782867432)" y="0" x="0" id="text-entity-POSTREACTIONS-c141f5df-5c2c-5a74-b8c7-d891c6e4b823-attr-3-name" class="er entityLabel">user_id</text><rect height="22" width="21.5625" y="68.09179782867432" x="132.28125" class="er attributeBoxOdd"/><text style="dominant-baseline: middle; font-size: 10.2px;" transform="translate(137.28125,79.09179782867432)" y="0" x="0" id="text-entity-POSTREACTIONS-c141f5df-5c2c-5a74-b8c7-d891c6e4b823-attr-3-key" class="er entityLabel">FK</text><rect height="22.091797828674316" width="58.671875" y="90.09179782867432" x="0" class="er attributeBoxEven"/><text style="dominant-baseline: middle; font-size: 10.2px;" transform="translate(5,101.13769674301147)" y="0" x="0" id="text-entity-POSTREACTIONS-c141f5df-5c2c-5a74-b8c7-d891c6e4b823-attr-4-type" class="er entityLabel">enum</text><rect height="22.091797828674316" width="73.609375" y="90.09179782867432" x="58.671875" class="er attributeBoxEven"/><text style="dominant-baseline: middle; font-size: 10.2px;" transform="translate(63.671875,101.13769674301147)" y="0" x="0" id="text-entity-POSTREACTIONS-c141f5df-5c2c-5a74-b8c7-d891c6e4b823-attr-4-name" class="er entityLabel">reaction_type</text><rect height="22.091797828674316" width="21.5625" y="90.09179782867432" x="132.28125" class="er attributeBoxEven"/><text style="dominant-baseline: middle; font-size: 10.2px;" transform="translate(137.28125,101.13769674301147)" y="0" x="0" id="text-entity-POSTREACTIONS-c141f5df-5c2c-5a74-b8c7-d891c6e4b823-attr-4-key" class="er entityLabel"/><rect height="22.091797828674316" width="58.671875" y="112.18359565734863" x="0" class="er attributeBoxOdd"/><text style="dominant-baseline: middle; font-size: 10.2px;" transform="translate(5,123.22949457168579)" y="0" x="0" id="text-entity-POSTREACTIONS-c141f5df-5c2c-5a74-b8c7-d891c6e4b823-attr-5-type" class="er entityLabel">timestamp</text><rect height="22.091797828674316" width="73.609375" y="112.18359565734863" x="58.671875" class="er attributeBoxOdd"/><text style="dominant-baseline: middle; font-size: 10.2px;" transform="translate(63.671875,123.22949457168579)" y="0" x="0" id="text-entity-POSTREACTIONS-c141f5df-5c2c-5a74-b8c7-d891c6e4b823-attr-5-name" class="er entityLabel">created_at</text><rect height="22.091797828674316" width="21.5625" y="112.18359565734863" x="132.28125" class="er attributeBoxOdd"/><text style="dominant-baseline: middle; font-size: 10.2px;" transform="translate(137.28125,123.22949457168579)" y="0" x="0" id="text-entity-POSTREACTIONS-c141f5df-5c2c-5a74-b8c7-d891c6e4b823-attr-5-key" class="er entityLabel"/></g><g transform="translate(408.72265625,943.28515625 )" id="entity-COMMENTLIKES-7b462a66-d446-5d65-8efd-2eb7ce00e17e"><rect height="90.09179782867432" width="146.484375" y="0" x="0" class="er entityBox"/><text style="dominant-baseline: middle; text-anchor: middle; font-size: 12px;" transform="translate(73.2421875,12)" y="0" x="0" id="text-entity-COMMENTLIKES-7b462a66-d446-5d65-8efd-2eb7ce00e17e" class="er entityLabel">COMMENT_LIKES</text><rect height="22" width="58.671875" y="24" x="0" class="er attributeBoxOdd"/><text style="dominant-baseline: middle; font-size: 10.2px;" transform="translate(5,35)" y="0" x="0" id="text-entity-COMMENTLIKES-7b462a66-d446-5d65-8efd-2eb7ce00e17e-attr-1-type" class="er entityLabel">uuid</text><rect height="22" width="66.578125" y="24" x="58.671875" class="er attributeBoxOdd"/><text style="dominant-baseline: middle; font-size: 10.2px;" transform="translate(63.671875,35)" y="0" x="0" id="text-entity-COMMENTLIKES-7b462a66-d446-5d65-8efd-2eb7ce00e17e-attr-1-name" class="er entityLabel">comment_id</text><rect height="22" width="21.234375" y="24" x="125.25" class="er attributeBoxOdd"/><text style="dominant-baseline: middle; font-size: 10.2px;" transform="translate(130.25,35)" y="0" x="0" id="text-entity-COMMENTLIKES-7b462a66-d446-5d65-8efd-2eb7ce00e17e-attr-1-key" class="er entityLabel">FK</text><rect height="22" width="58.671875" y="46" x="0" class="er attributeBoxEven"/><text style="dominant-baseline: middle; font-size: 10.2px;" transform="translate(5,57)" y="0" x="0" id="text-entity-COMMENTLIKES-7b462a66-d446-5d65-8efd-2eb7ce00e17e-attr-2-type" class="er entityLabel">uuid</text><rect height="22" width="66.578125" y="46" x="58.671875" class="er attributeBoxEven"/><text style="dominant-baseline: middle; font-size: 10.2px;" transform="translate(63.671875,57)" y="0" x="0" id="text-entity-COMMENTLIKES-7b462a66-d446-5d65-8efd-2eb7ce00e17e-attr-2-name" class="er entityLabel">user_id</text><rect height="22" width="21.234375" y="46" x="125.25" class="er attributeBoxEven"/><text style="dominant-baseline: middle; font-size: 10.2px;" transform="translate(130.25,57)" y="0" x="0" id="text-entity-COMMENTLIKES-7b462a66-d446-5d65-8efd-2eb7ce00e17e-attr-2-key" class="er entityLabel">FK</text><rect height="22.091797828674316" width="58.671875" y="68" x="0" class="er attributeBoxOdd"/><text style="dominant-baseline: middle; font-size: 10.2px;" transform="translate(5,79.04589891433716)" y="0" x="0" id="text-entity-COMMENTLIKES-7b462a66-d446-5d65-8efd-2eb7ce00e17e-attr-3-type" class="er entityLabel">timestamp</text><rect height="22.091797828674316" width="66.578125" y="68" x="58.671875" class="er attributeBoxOdd"/><text style="dominant-baseline: middle; font-size: 10.2px;" transform="translate(63.671875,79.04589891433716)" y="0" x="0" id="text-entity-COMMENTLIKES-7b462a66-d446-5d65-8efd-2eb7ce00e17e-attr-3-name" class="er entityLabel">created_at</text><rect height="22.091797828674316" width="21.234375" y="68" x="125.25" class="er attributeBoxOdd"/><text style="dominant-baseline: middle; font-size: 10.2px;" transform="translate(130.25,79.04589891433716)" y="0" x="0" id="text-entity-COMMENTLIKES-7b462a66-d446-5d65-8efd-2eb7ce00e17e-attr-3-key" class="er entityLabel"/></g><rect height="14" width="39.625" y="283.0284729003906" x="529.8828125" class="er relationshipLabelBox"/><text style="text-anchor: middle; dominant-baseline: middle; font-size: 12px;" y="290.0284729003906" x="549.6953125" id="rel1" class="er relationshipLabel">creates</text><rect height="14" width="33.1875" y="303.95013427734375" x="194.4066162109375" class="er relationshipLabelBox"/><text style="text-anchor: middle; dominant-baseline: middle; font-size: 12px;" y="310.95013427734375" x="211.0003662109375" id="rel2" class="er relationshipLabel">writes</text><rect height="14" width="17.71875" y="546.115966796875" x="242.83554077148438" class="er relationshipLabelBox"/><text style="text-anchor: middle; dominant-baseline: middle; font-size: 12px;" y="553.115966796875" x="251.69491577148438" id="rel3" class="er relationshipLabel">has</text><rect height="14" width="17.71875" y="643.9579467773438" x="468.6932067871094" class="er relationshipLabelBox"/><text style="text-anchor: middle; dominant-baseline: middle; font-size: 12px;" y="650.9579467773438" x="477.5525817871094" id="rel4" class="er relationshipLabel">has</text><rect height="14" width="58.140625" y="599.056884765625" x="290.3095397949219" class="er relationshipLabelBox"/><text style="text-anchor: middle; dominant-baseline: middle; font-size: 12px;" y="606.056884765625" x="319.3798522949219" id="rel5" class="er relationshipLabel">belongs_to</text><rect height="14" width="33.734375" y="456.37335205078125" x="717.3087158203125" class="er relationshipLabelBox"/><text style="text-anchor: middle; dominant-baseline: middle; font-size: 12px;" y="463.37335205078125" x="734.1759033203125" id="rel6" class="er relationshipLabel">makes</text><rect height="14" width="44.40625" y="618.8124389648438" x="603.3826904296875" class="er relationshipLabelBox"/><text style="text-anchor: middle; dominant-baseline: middle; font-size: 12px;" y="625.8124389648438" x="625.5858154296875" id="rel7" class="er relationshipLabel">receives</text><rect height="14" width="26.734375" y="646.7445678710938" x="859.2738037109375" class="er relationshipLabelBox"/><text style="text-anchor: middle; dominant-baseline: middle; font-size: 12px;" y="653.7445678710938" x="872.6409912109375" id="rel8" class="er relationshipLabel">gives</text><rect height="14" width="44.40625" y="919.8947143554688" x="213.2845916748047" class="er relationshipLabelBox"/><text style="text-anchor: middle; dominant-baseline: middle; font-size: 12px;" y="926.8947143554688" x="235.4877166748047" id="rel9" class="er relationshipLabel">receives</text></svg>