<svg aria-roledescription="er" role="graphics-document document" viewBox="0 0 213.0625 262.3671875" style="max-width: 213.062px; background-color: white;" xmlns:xlink="http://www.w3.org/1999/xlink" xmlns="http://www.w3.org/2000/svg" width="100%" id="my-svg"><style>#my-svg{font-family:"trebuchet ms",verdana,arial,sans-serif;font-size:16px;fill:#000;}#my-svg .error-icon{fill:hsl(180, 0%, 49.7058823529%);}#my-svg .error-text{fill:rgb(128.2500000001, 128.2500000001, 128.2500000001);stroke:rgb(128.2500000001, 128.2500000001, 128.2500000001);}#my-svg .edge-thickness-normal{stroke-width:1px;}#my-svg .edge-thickness-thick{stroke-width:3.5px;}#my-svg .edge-pattern-solid{stroke-dasharray:0;}#my-svg .edge-thickness-invisible{stroke-width:0;fill:none;}#my-svg .edge-pattern-dashed{stroke-dasharray:3;}#my-svg .edge-pattern-dotted{stroke-dasharray:2;}#my-svg .marker{fill:#0b0b0b;stroke:#0b0b0b;}#my-svg .marker.cross{stroke:#0b0b0b;}#my-svg svg{font-family:"trebuchet ms",verdana,arial,sans-serif;font-size:16px;}#my-svg p{margin:0;}#my-svg .entityBox{fill:#727272;stroke:hsl(0, 0%, 34.7058823529%);}#my-svg .attributeBoxOdd{fill:#ffffff;stroke:hsl(0, 0%, 34.7058823529%);}#my-svg .attributeBoxEven{fill:#f2f2f2;stroke:hsl(0, 0%, 34.7058823529%);}#my-svg .relationshipLabelBox{fill:hsl(180, 0%, 49.7058823529%);opacity:0.7;background-color:hsl(180, 0%, 49.7058823529%);}#my-svg .relationshipLabelBox rect{opacity:0.5;}#my-svg .relationshipLine{stroke:#0b0b0b;}#my-svg .entityTitleText{text-anchor:middle;font-size:18px;fill:#000;}#my-svg #MD_PARENT_START{fill:#f5f5f5!important;stroke:#0b0b0b!important;stroke-width:1;}#my-svg #MD_PARENT_END{fill:#f5f5f5!important;stroke:#0b0b0b!important;stroke-width:1;}#my-svg :root{--mermaid-font-family:"trebuchet ms",verdana,arial,sans-serif;}</style><g/><defs><marker orient="auto" markerHeight="240" markerWidth="190" refY="7" refX="0" id="MD_PARENT_START"><path d="M 18,7 L9,13 L1,7 L9,1 Z"/></marker></defs><defs><marker orient="auto" markerHeight="28" markerWidth="20" refY="7" refX="19" id="MD_PARENT_END"><path d="M 18,7 L9,13 L1,7 L9,1 Z"/></marker></defs><defs><marker orient="auto" markerHeight="18" markerWidth="18" refY="9" refX="0" id="ONLY_ONE_START"><path d="M9,0 L9,18 M15,0 L15,18" fill="none" stroke="gray"/></marker></defs><defs><marker orient="auto" markerHeight="18" markerWidth="18" refY="9" refX="18" id="ONLY_ONE_END"><path d="M3,0 L3,18 M9,0 L9,18" fill="none" stroke="gray"/></marker></defs><defs><marker orient="auto" markerHeight="18" markerWidth="30" refY="9" refX="0" id="ZERO_OR_ONE_START"><circle r="6" cy="9" cx="21" fill="white" stroke="gray"/><path d="M9,0 L9,18" fill="none" stroke="gray"/></marker></defs><defs><marker orient="auto" markerHeight="18" markerWidth="30" refY="9" refX="30" id="ZERO_OR_ONE_END"><circle r="6" cy="9" cx="9" fill="white" stroke="gray"/><path d="M21,0 L21,18" fill="none" stroke="gray"/></marker></defs><defs><marker orient="auto" markerHeight="36" markerWidth="45" refY="18" refX="18" id="ONE_OR_MORE_START"><path d="M0,18 Q 18,0 36,18 Q 18,36 0,18 M42,9 L42,27" fill="none" stroke="gray"/></marker></defs><defs><marker orient="auto" markerHeight="36" markerWidth="45" refY="18" refX="27" id="ONE_OR_MORE_END"><path d="M3,9 L3,27 M9,18 Q27,0 45,18 Q27,36 9,18" fill="none" stroke="gray"/></marker></defs><defs><marker orient="auto" markerHeight="36" markerWidth="57" refY="18" refX="18" id="ZERO_OR_MORE_START"><circle r="6" cy="18" cx="48" fill="white" stroke="gray"/><path d="M0,18 Q18,0 36,18 Q18,36 0,18" fill="none" stroke="gray"/></marker></defs><defs><marker orient="auto" markerHeight="36" markerWidth="57" refY="18" refX="39" id="ZERO_OR_MORE_END"><circle r="6" cy="18" cx="9" fill="white" stroke="gray"/><path d="M21,18 Q39,0 57,18 Q39,36 21,18" fill="none" stroke="gray"/></marker></defs><g transform="translate(20,20 )" id="entity-history-0051cb9a-41d8-5ec5-a9ff-ae95c5ad2efb"><rect height="222.36718845367432" width="173.0625" y="0" x="0" class="er entityBox"/><text style="dominant-baseline: middle; text-anchor: middle; font-size: 12px;" transform="translate(86.53125,12)" y="0" x="0" id="text-entity-history-0051cb9a-41d8-5ec5-a9ff-ae95c5ad2efb" class="er entityLabel">history</text><rect height="22.091796875" width="51.640625" y="24" x="0" class="er attributeBoxOdd"/><text style="dominant-baseline: middle; font-size: 10.2px;" transform="translate(5,35.0458984375)" y="0" x="0" id="text-entity-history-0051cb9a-41d8-5ec5-a9ff-ae95c5ad2efb-attr-1-type" class="er entityLabel">bigint</text><rect height="22.091796875" width="74.640625" y="24" x="51.640625" class="er attributeBoxOdd"/><text style="dominant-baseline: middle; font-size: 10.2px;" transform="translate(56.640625,35.0458984375)" y="0" x="0" id="text-entity-history-0051cb9a-41d8-5ec5-a9ff-ae95c5ad2efb-attr-1-name" class="er entityLabel">id</text><rect height="22.091796875" width="46.78125" y="24" x="126.28125" class="er attributeBoxOdd"/><text style="dominant-baseline: middle; font-size: 10.2px;" transform="translate(131.28125,35.0458984375)" y="0" x="0" id="text-entity-history-0051cb9a-41d8-5ec5-a9ff-ae95c5ad2efb-attr-1-comment" class="er entityLabel"/><rect height="22.091796875" width="51.640625" y="46.091796875" x="0" class="er attributeBoxEven"/><text style="dominant-baseline: middle; font-size: 10.2px;" transform="translate(5,57.1376953125)" y="0" x="0" id="text-entity-history-0051cb9a-41d8-5ec5-a9ff-ae95c5ad2efb-attr-2-type" class="er entityLabel">varchar</text><rect height="22.091796875" width="74.640625" y="46.091796875" x="51.640625" class="er attributeBoxEven"/><text style="dominant-baseline: middle; font-size: 10.2px;" transform="translate(56.640625,57.1376953125)" y="0" x="0" id="text-entity-history-0051cb9a-41d8-5ec5-a9ff-ae95c5ad2efb-attr-2-name" class="er entityLabel">history_type</text><rect height="22.091796875" width="46.78125" y="46.091796875" x="126.28125" class="er attributeBoxEven"/><text style="dominant-baseline: middle; font-size: 10.2px;" transform="translate(131.28125,57.1376953125)" y="0" x="0" id="text-entity-history-0051cb9a-41d8-5ec5-a9ff-ae95c5ad2efb-attr-2-comment" class="er entityLabel">enum</text><rect height="22" width="51.640625" y="68.18359375" x="0" class="er attributeBoxOdd"/><text style="dominant-baseline: middle; font-size: 10.2px;" transform="translate(5,79.18359375)" y="0" x="0" id="text-entity-history-0051cb9a-41d8-5ec5-a9ff-ae95c5ad2efb-attr-3-type" class="er entityLabel">int</text><rect height="22" width="74.640625" y="68.18359375" x="51.640625" class="er attributeBoxOdd"/><text style="dominant-baseline: middle; font-size: 10.2px;" transform="translate(56.640625,79.18359375)" y="0" x="0" id="text-entity-history-0051cb9a-41d8-5ec5-a9ff-ae95c5ad2efb-attr-3-name" class="er entityLabel">start</text><rect height="22" width="46.78125" y="68.18359375" x="126.28125" class="er attributeBoxOdd"/><text style="dominant-baseline: middle; font-size: 10.2px;" transform="translate(131.28125,79.18359375)" y="0" x="0" id="text-entity-history-0051cb9a-41d8-5ec5-a9ff-ae95c5ad2efb-attr-3-comment" class="er entityLabel"/><rect height="22" width="51.640625" y="90.18359375" x="0" class="er attributeBoxEven"/><text style="dominant-baseline: middle; font-size: 10.2px;" transform="translate(5,101.18359375)" y="0" x="0" id="text-entity-history-0051cb9a-41d8-5ec5-a9ff-ae95c5ad2efb-attr-4-type" class="er entityLabel">int</text><rect height="22" width="74.640625" y="90.18359375" x="51.640625" class="er attributeBoxEven"/><text style="dominant-baseline: middle; font-size: 10.2px;" transform="translate(56.640625,101.18359375)" y="0" x="0" id="text-entity-history-0051cb9a-41d8-5ec5-a9ff-ae95c5ad2efb-attr-4-name" class="er entityLabel">end</text><rect height="22" width="46.78125" y="90.18359375" x="126.28125" class="er attributeBoxEven"/><text style="dominant-baseline: middle; font-size: 10.2px;" transform="translate(131.28125,101.18359375)" y="0" x="0" id="text-entity-history-0051cb9a-41d8-5ec5-a9ff-ae95c5ad2efb-attr-4-comment" class="er entityLabel"/><rect height="22" width="51.640625" y="112.18359375" x="0" class="er attributeBoxOdd"/><text style="dominant-baseline: middle; font-size: 10.2px;" transform="translate(5,123.18359375)" y="0" x="0" id="text-entity-history-0051cb9a-41d8-5ec5-a9ff-ae95c5ad2efb-attr-5-type" class="er entityLabel">bool</text><rect height="22" width="74.640625" y="112.18359375" x="51.640625" class="er attributeBoxOdd"/><text style="dominant-baseline: middle; font-size: 10.2px;" transform="translate(56.640625,123.18359375)" y="0" x="0" id="text-entity-history-0051cb9a-41d8-5ec5-a9ff-ae95c5ad2efb-attr-5-name" class="er entityLabel">is_surah_done</text><rect height="22" width="46.78125" y="112.18359375" x="126.28125" class="er attributeBoxOdd"/><text style="dominant-baseline: middle; font-size: 10.2px;" transform="translate(131.28125,123.18359375)" y="0" x="0" id="text-entity-history-0051cb9a-41d8-5ec5-a9ff-ae95c5ad2efb-attr-5-comment" class="er entityLabel">nullable</text><rect height="22.091797828674316" width="51.640625" y="134.18359375" x="0" class="er attributeBoxEven"/><text style="dominant-baseline: middle; font-size: 10.2px;" transform="translate(5,145.22949266433716)" y="0" x="0" id="text-entity-history-0051cb9a-41d8-5ec5-a9ff-ae95c5ad2efb-attr-6-type" class="er entityLabel">bool</text><rect height="22.091797828674316" width="74.640625" y="134.18359375" x="51.640625" class="er attributeBoxEven"/><text style="dominant-baseline: middle; font-size: 10.2px;" transform="translate(56.640625,145.22949266433716)" y="0" x="0" id="text-entity-history-0051cb9a-41d8-5ec5-a9ff-ae95c5ad2efb-attr-6-name" class="er entityLabel">is_juz_done</text><rect height="22.091797828674316" width="46.78125" y="134.18359375" x="126.28125" class="er attributeBoxEven"/><text style="dominant-baseline: middle; font-size: 10.2px;" transform="translate(131.28125,145.22949266433716)" y="0" x="0" id="text-entity-history-0051cb9a-41d8-5ec5-a9ff-ae95c5ad2efb-attr-6-comment" class="er entityLabel">nullable</text><rect height="22" width="51.640625" y="156.27539157867432" x="0" class="er attributeBoxOdd"/><text style="dominant-baseline: middle; font-size: 10.2px;" transform="translate(5,167.27539157867432)" y="0" x="0" id="text-entity-history-0051cb9a-41d8-5ec5-a9ff-ae95c5ad2efb-attr-7-type" class="er entityLabel">datetime</text><rect height="22" width="74.640625" y="156.27539157867432" x="51.640625" class="er attributeBoxOdd"/><text style="dominant-baseline: middle; font-size: 10.2px;" transform="translate(56.640625,167.27539157867432)" y="0" x="0" id="text-entity-history-0051cb9a-41d8-5ec5-a9ff-ae95c5ad2efb-attr-7-name" class="er entityLabel">occured_at</text><rect height="22" width="46.78125" y="156.27539157867432" x="126.28125" class="er attributeBoxOdd"/><text style="dominant-baseline: middle; font-size: 10.2px;" transform="translate(131.28125,167.27539157867432)" y="0" x="0" id="text-entity-history-0051cb9a-41d8-5ec5-a9ff-ae95c5ad2efb-attr-7-comment" class="er entityLabel"/><rect height="22" width="51.640625" y="178.27539157867432" x="0" class="er attributeBoxEven"/><text style="dominant-baseline: middle; font-size: 10.2px;" transform="translate(5,189.27539157867432)" y="0" x="0" id="text-entity-history-0051cb9a-41d8-5ec5-a9ff-ae95c5ad2efb-attr-8-type" class="er entityLabel">datetime</text><rect height="22" width="74.640625" y="178.27539157867432" x="51.640625" class="er attributeBoxEven"/><text style="dominant-baseline: middle; font-size: 10.2px;" transform="translate(56.640625,189.27539157867432)" y="0" x="0" id="text-entity-history-0051cb9a-41d8-5ec5-a9ff-ae95c5ad2efb-attr-8-name" class="er entityLabel">created_at</text><rect height="22" width="46.78125" y="178.27539157867432" x="126.28125" class="er attributeBoxEven"/><text style="dominant-baseline: middle; font-size: 10.2px;" transform="translate(131.28125,189.27539157867432)" y="0" x="0" id="text-entity-history-0051cb9a-41d8-5ec5-a9ff-ae95c5ad2efb-attr-8-comment" class="er entityLabel"/><rect height="22.091796875" width="51.640625" y="200.27539157867432" x="0" class="er attributeBoxOdd"/><text style="dominant-baseline: middle; font-size: 10.2px;" transform="translate(5,211.32129001617432)" y="0" x="0" id="text-entity-history-0051cb9a-41d8-5ec5-a9ff-ae95c5ad2efb-attr-9-type" class="er entityLabel">datetime</text><rect height="22.091796875" width="74.640625" y="200.27539157867432" x="51.640625" class="er attributeBoxOdd"/><text style="dominant-baseline: middle; font-size: 10.2px;" transform="translate(56.640625,211.32129001617432)" y="0" x="0" id="text-entity-history-0051cb9a-41d8-5ec5-a9ff-ae95c5ad2efb-attr-9-name" class="er entityLabel">updated_at</text><rect height="22.091796875" width="46.78125" y="200.27539157867432" x="126.28125" class="er attributeBoxOdd"/><text style="dominant-baseline: middle; font-size: 10.2px;" transform="translate(131.28125,211.32129001617432)" y="0" x="0" id="text-entity-history-0051cb9a-41d8-5ec5-a9ff-ae95c5ad2efb-attr-9-comment" class="er entityLabel"/></g></svg>