<svg aria-roledescription="er" role="graphics-document document" viewBox="0 0 665.46875 841.009765625" style="max-width: 665.469px; background-color: white;" xmlns:xlink="http://www.w3.org/1999/xlink" xmlns="http://www.w3.org/2000/svg" width="100%" id="my-svg"><style>#my-svg{font-family:"trebuchet ms",verdana,arial,sans-serif;font-size:16px;fill:#333;}#my-svg .error-icon{fill:#552222;}#my-svg .error-text{fill:#552222;stroke:#552222;}#my-svg .edge-thickness-normal{stroke-width:1px;}#my-svg .edge-thickness-thick{stroke-width:3.5px;}#my-svg .edge-pattern-solid{stroke-dasharray:0;}#my-svg .edge-thickness-invisible{stroke-width:0;fill:none;}#my-svg .edge-pattern-dashed{stroke-dasharray:3;}#my-svg .edge-pattern-dotted{stroke-dasharray:2;}#my-svg .marker{fill:#333333;stroke:#333333;}#my-svg .marker.cross{stroke:#333333;}#my-svg svg{font-family:"trebuchet ms",verdana,arial,sans-serif;font-size:16px;}#my-svg p{margin:0;}#my-svg .entityBox{fill:#ECECFF;stroke:#9370DB;}#my-svg .attributeBoxOdd{fill:#ffffff;stroke:#9370DB;}#my-svg .attributeBoxEven{fill:#f2f2f2;stroke:#9370DB;}#my-svg .relationshipLabelBox{fill:hsl(80, 100%, 96.2745098039%);opacity:0.7;background-color:hsl(80, 100%, 96.2745098039%);}#my-svg .relationshipLabelBox rect{opacity:0.5;}#my-svg .relationshipLine{stroke:#333333;}#my-svg .entityTitleText{text-anchor:middle;font-size:18px;fill:#333;}#my-svg #MD_PARENT_START{fill:#f5f5f5!important;stroke:#333333!important;stroke-width:1;}#my-svg #MD_PARENT_END{fill:#f5f5f5!important;stroke:#333333!important;stroke-width:1;}#my-svg :root{--mermaid-font-family:"trebuchet ms",verdana,arial,sans-serif;}</style><g/><defs><marker orient="auto" markerHeight="240" markerWidth="190" refY="7" refX="0" id="MD_PARENT_START"><path d="M 18,7 L9,13 L1,7 L9,1 Z"/></marker></defs><defs><marker orient="auto" markerHeight="28" markerWidth="20" refY="7" refX="19" id="MD_PARENT_END"><path d="M 18,7 L9,13 L1,7 L9,1 Z"/></marker></defs><defs><marker orient="auto" markerHeight="18" markerWidth="18" refY="9" refX="0" id="ONLY_ONE_START"><path d="M9,0 L9,18 M15,0 L15,18" fill="none" stroke="gray"/></marker></defs><defs><marker orient="auto" markerHeight="18" markerWidth="18" refY="9" refX="18" id="ONLY_ONE_END"><path d="M3,0 L3,18 M9,0 L9,18" fill="none" stroke="gray"/></marker></defs><defs><marker orient="auto" markerHeight="18" markerWidth="30" refY="9" refX="0" id="ZERO_OR_ONE_START"><circle r="6" cy="9" cx="21" fill="white" stroke="gray"/><path d="M9,0 L9,18" fill="none" stroke="gray"/></marker></defs><defs><marker orient="auto" markerHeight="18" markerWidth="30" refY="9" refX="30" id="ZERO_OR_ONE_END"><circle r="6" cy="9" cx="9" fill="white" stroke="gray"/><path d="M21,0 L21,18" fill="none" stroke="gray"/></marker></defs><defs><marker orient="auto" markerHeight="36" markerWidth="45" refY="18" refX="18" id="ONE_OR_MORE_START"><path d="M0,18 Q 18,0 36,18 Q 18,36 0,18 M42,9 L42,27" fill="none" stroke="gray"/></marker></defs><defs><marker orient="auto" markerHeight="36" markerWidth="45" refY="18" refX="27" id="ONE_OR_MORE_END"><path d="M3,9 L3,27 M9,18 Q27,0 45,18 Q27,36 9,18" fill="none" stroke="gray"/></marker></defs><defs><marker orient="auto" markerHeight="36" markerWidth="57" refY="18" refX="18" id="ZERO_OR_MORE_START"><circle r="6" cy="18" cx="48" fill="white" stroke="gray"/><path d="M0,18 Q18,0 36,18 Q18,36 0,18" fill="none" stroke="gray"/></marker></defs><defs><marker orient="auto" markerHeight="36" markerWidth="57" refY="18" refX="39" id="ZERO_OR_MORE_END"><circle r="6" cy="18" cx="9" fill="white" stroke="gray"/><path d="M21,18 Q39,0 57,18 Q39,36 21,18" fill="none" stroke="gray"/></marker></defs><path style="stroke: gray; fill: none;" marker-start="url(#ONLY_ONE_START)" marker-end="url(#ZERO_OR_MORE_END)" d="M208.352,286.459L208.352,294.792C208.352,303.126,208.352,319.792,216.585,337.852C224.818,355.912,241.284,375.365,249.517,385.092L257.75,394.818" class="er relationshipLine"/><path style="stroke: gray; fill: none;" marker-start="url(#ONLY_ONE_START)" marker-end="url(#ZERO_OR_MORE_END)" d="M443.898,209.275L443.898,230.473C443.898,251.67,443.898,294.064,435.665,324.988C427.432,355.912,410.966,375.365,402.733,385.092L394.5,394.818" class="er relationshipLine"/><path style="stroke: gray; fill: none;" marker-start="url(#ONLY_ONE_START)" marker-end="url(#ZERO_OR_MORE_END)" d="M257.75,515.511L229.421,532.048C201.091,548.585,144.432,581.66,116.103,608.379C87.773,635.098,87.773,655.462,87.773,665.644L87.773,675.826" class="er relationshipLine"/><path style="stroke: gray; fill: none;" marker-start="url(#ONLY_ONE_START)" marker-end="url(#ZERO_OR_MORE_END)" d="M326.125,564.734L326.125,573.068C326.125,581.401,326.125,598.068,326.125,614.734C326.125,631.401,326.125,648.068,326.125,656.401L326.125,664.734" class="er relationshipLine"/><path style="stroke: gray; fill: none;" marker-start="url(#ONLY_ONE_START)" marker-end="url(#ZERO_OR_MORE_END)" d="M394.5,514.434L423.931,531.15C453.362,547.867,512.224,581.301,541.655,606.359C571.086,631.416,571.086,648.098,571.086,656.439L571.086,664.78" class="er relationshipLine"/><g transform="translate(140.578125,20 )" id="entity-USER-6e7e2962-0c6f-577d-a7fd-2ce3a0cfd2c8"><rect height="266.4589853286743" width="135.546875" y="0" x="0" class="er entityBox"/><text style="dominant-baseline: middle; text-anchor: middle; font-size: 12px;" transform="translate(67.7734375,12)" y="0" x="0" id="text-entity-USER-6e7e2962-0c6f-577d-a7fd-2ce3a0cfd2c8" class="er entityLabel">USER</text><rect height="22" width="62.34375" y="24" x="0" class="er attributeBoxOdd"/><text style="dominant-baseline: middle; font-size: 10.2px;" transform="translate(5,35)" y="0" x="0" id="text-entity-USER-6e7e2962-0c6f-577d-a7fd-2ce3a0cfd2c8-attr-1-type" class="er entityLabel">id</text><rect height="22" width="51.640625" y="24" x="62.34375" class="er attributeBoxOdd"/><text style="dominant-baseline: middle; font-size: 10.2px;" transform="translate(67.34375,35)" y="0" x="0" id="text-entity-USER-6e7e2962-0c6f-577d-a7fd-2ce3a0cfd2c8-attr-1-name" class="er entityLabel">int</text><rect height="22" width="21.5625" y="24" x="113.984375" class="er attributeBoxOdd"/><text style="dominant-baseline: middle; font-size: 10.2px;" transform="translate(118.984375,35)" y="0" x="0" id="text-entity-USER-6e7e2962-0c6f-577d-a7fd-2ce3a0cfd2c8-attr-1-key" class="er entityLabel">PK</text><rect height="22" width="62.34375" y="46" x="0" class="er attributeBoxEven"/><text style="dominant-baseline: middle; font-size: 10.2px;" transform="translate(5,57)" y="0" x="0" id="text-entity-USER-6e7e2962-0c6f-577d-a7fd-2ce3a0cfd2c8-attr-2-type" class="er entityLabel">first_name</text><rect height="22" width="51.640625" y="46" x="62.34375" class="er attributeBoxEven"/><text style="dominant-baseline: middle; font-size: 10.2px;" transform="translate(67.34375,57)" y="0" x="0" id="text-entity-USER-6e7e2962-0c6f-577d-a7fd-2ce3a0cfd2c8-attr-2-name" class="er entityLabel">varchar</text><rect height="22" width="21.5625" y="46" x="113.984375" class="er attributeBoxEven"/><text style="dominant-baseline: middle; font-size: 10.2px;" transform="translate(118.984375,57)" y="0" x="0" id="text-entity-USER-6e7e2962-0c6f-577d-a7fd-2ce3a0cfd2c8-attr-2-key" class="er entityLabel"/><rect height="22" width="62.34375" y="68" x="0" class="er attributeBoxOdd"/><text style="dominant-baseline: middle; font-size: 10.2px;" transform="translate(5,79)" y="0" x="0" id="text-entity-USER-6e7e2962-0c6f-577d-a7fd-2ce3a0cfd2c8-attr-3-type" class="er entityLabel">last_name</text><rect height="22" width="51.640625" y="68" x="62.34375" class="er attributeBoxOdd"/><text style="dominant-baseline: middle; font-size: 10.2px;" transform="translate(67.34375,79)" y="0" x="0" id="text-entity-USER-6e7e2962-0c6f-577d-a7fd-2ce3a0cfd2c8-attr-3-name" class="er entityLabel">varchar</text><rect height="22" width="21.5625" y="68" x="113.984375" class="er attributeBoxOdd"/><text style="dominant-baseline: middle; font-size: 10.2px;" transform="translate(118.984375,79)" y="0" x="0" id="text-entity-USER-6e7e2962-0c6f-577d-a7fd-2ce3a0cfd2c8-attr-3-key" class="er entityLabel"/><rect height="22" width="62.34375" y="90" x="0" class="er attributeBoxEven"/><text style="dominant-baseline: middle; font-size: 10.2px;" transform="translate(5,101)" y="0" x="0" id="text-entity-USER-6e7e2962-0c6f-577d-a7fd-2ce3a0cfd2c8-attr-4-type" class="er entityLabel">email</text><rect height="22" width="51.640625" y="90" x="62.34375" class="er attributeBoxEven"/><text style="dominant-baseline: middle; font-size: 10.2px;" transform="translate(67.34375,101)" y="0" x="0" id="text-entity-USER-6e7e2962-0c6f-577d-a7fd-2ce3a0cfd2c8-attr-4-name" class="er entityLabel">varchar</text><rect height="22" width="21.5625" y="90" x="113.984375" class="er attributeBoxEven"/><text style="dominant-baseline: middle; font-size: 10.2px;" transform="translate(118.984375,101)" y="0" x="0" id="text-entity-USER-6e7e2962-0c6f-577d-a7fd-2ce3a0cfd2c8-attr-4-key" class="er entityLabel"/><rect height="22.091796875" width="62.34375" y="112" x="0" class="er attributeBoxOdd"/><text style="dominant-baseline: middle; font-size: 10.2px;" transform="translate(5,123.0458984375)" y="0" x="0" id="text-entity-USER-6e7e2962-0c6f-577d-a7fd-2ce3a0cfd2c8-attr-5-type" class="er entityLabel">password</text><rect height="22.091796875" width="51.640625" y="112" x="62.34375" class="er attributeBoxOdd"/><text style="dominant-baseline: middle; font-size: 10.2px;" transform="translate(67.34375,123.0458984375)" y="0" x="0" id="text-entity-USER-6e7e2962-0c6f-577d-a7fd-2ce3a0cfd2c8-attr-5-name" class="er entityLabel">varchar</text><rect height="22.091796875" width="21.5625" y="112" x="113.984375" class="er attributeBoxOdd"/><text style="dominant-baseline: middle; font-size: 10.2px;" transform="translate(118.984375,123.0458984375)" y="0" x="0" id="text-entity-USER-6e7e2962-0c6f-577d-a7fd-2ce3a0cfd2c8-attr-5-key" class="er entityLabel"/><rect height="22.091796875" width="62.34375" y="134.091796875" x="0" class="er attributeBoxEven"/><text style="dominant-baseline: middle; font-size: 10.2px;" transform="translate(5,145.1376953125)" y="0" x="0" id="text-entity-USER-6e7e2962-0c6f-577d-a7fd-2ce3a0cfd2c8-attr-6-type" class="er entityLabel">gender</text><rect height="22.091796875" width="51.640625" y="134.091796875" x="62.34375" class="er attributeBoxEven"/><text style="dominant-baseline: middle; font-size: 10.2px;" transform="translate(67.34375,145.1376953125)" y="0" x="0" id="text-entity-USER-6e7e2962-0c6f-577d-a7fd-2ce3a0cfd2c8-attr-6-name" class="er entityLabel">varchar</text><rect height="22.091796875" width="21.5625" y="134.091796875" x="113.984375" class="er attributeBoxEven"/><text style="dominant-baseline: middle; font-size: 10.2px;" transform="translate(118.984375,145.1376953125)" y="0" x="0" id="text-entity-USER-6e7e2962-0c6f-577d-a7fd-2ce3a0cfd2c8-attr-6-key" class="er entityLabel"/><rect height="22" width="62.34375" y="156.18359375" x="0" class="er attributeBoxOdd"/><text style="dominant-baseline: middle; font-size: 10.2px;" transform="translate(5,167.18359375)" y="0" x="0" id="text-entity-USER-6e7e2962-0c6f-577d-a7fd-2ce3a0cfd2c8-attr-7-type" class="er entityLabel">dob</text><rect height="22" width="51.640625" y="156.18359375" x="62.34375" class="er attributeBoxOdd"/><text style="dominant-baseline: middle; font-size: 10.2px;" transform="translate(67.34375,167.18359375)" y="0" x="0" id="text-entity-USER-6e7e2962-0c6f-577d-a7fd-2ce3a0cfd2c8-attr-7-name" class="er entityLabel">datetime</text><rect height="22" width="21.5625" y="156.18359375" x="113.984375" class="er attributeBoxOdd"/><text style="dominant-baseline: middle; font-size: 10.2px;" transform="translate(118.984375,167.18359375)" y="0" x="0" id="text-entity-USER-6e7e2962-0c6f-577d-a7fd-2ce3a0cfd2c8-attr-7-key" class="er entityLabel"/><rect height="22.091797828674316" width="62.34375" y="178.18359375" x="0" class="er attributeBoxEven"/><text style="dominant-baseline: middle; font-size: 10.2px;" transform="translate(5,189.22949266433716)" y="0" x="0" id="text-entity-USER-6e7e2962-0c6f-577d-a7fd-2ce3a0cfd2c8-attr-8-type" class="er entityLabel">weight</text><rect height="22.091797828674316" width="51.640625" y="178.18359375" x="62.34375" class="er attributeBoxEven"/><text style="dominant-baseline: middle; font-size: 10.2px;" transform="translate(67.34375,189.22949266433716)" y="0" x="0" id="text-entity-USER-6e7e2962-0c6f-577d-a7fd-2ce3a0cfd2c8-attr-8-name" class="er entityLabel">float</text><rect height="22.091797828674316" width="21.5625" y="178.18359375" x="113.984375" class="er attributeBoxEven"/><text style="dominant-baseline: middle; font-size: 10.2px;" transform="translate(118.984375,189.22949266433716)" y="0" x="0" id="text-entity-USER-6e7e2962-0c6f-577d-a7fd-2ce3a0cfd2c8-attr-8-key" class="er entityLabel"/><rect height="22.091796875" width="62.34375" y="200.27539157867432" x="0" class="er attributeBoxOdd"/><text style="dominant-baseline: middle; font-size: 10.2px;" transform="translate(5,211.32129001617432)" y="0" x="0" id="text-entity-USER-6e7e2962-0c6f-577d-a7fd-2ce3a0cfd2c8-attr-9-type" class="er entityLabel">height</text><rect height="22.091796875" width="51.640625" y="200.27539157867432" x="62.34375" class="er attributeBoxOdd"/><text style="dominant-baseline: middle; font-size: 10.2px;" transform="translate(67.34375,211.32129001617432)" y="0" x="0" id="text-entity-USER-6e7e2962-0c6f-577d-a7fd-2ce3a0cfd2c8-attr-9-name" class="er entityLabel">float</text><rect height="22.091796875" width="21.5625" y="200.27539157867432" x="113.984375" class="er attributeBoxOdd"/><text style="dominant-baseline: middle; font-size: 10.2px;" transform="translate(118.984375,211.32129001617432)" y="0" x="0" id="text-entity-USER-6e7e2962-0c6f-577d-a7fd-2ce3a0cfd2c8-attr-9-key" class="er entityLabel"/><rect height="22" width="62.34375" y="222.36718845367432" x="0" class="er attributeBoxEven"/><text style="dominant-baseline: middle; font-size: 10.2px;" transform="translate(5,233.36718845367432)" y="0" x="0" id="text-entity-USER-6e7e2962-0c6f-577d-a7fd-2ce3a0cfd2c8-attr-10-type" class="er entityLabel">created_at</text><rect height="22" width="51.640625" y="222.36718845367432" x="62.34375" class="er attributeBoxEven"/><text style="dominant-baseline: middle; font-size: 10.2px;" transform="translate(67.34375,233.36718845367432)" y="0" x="0" id="text-entity-USER-6e7e2962-0c6f-577d-a7fd-2ce3a0cfd2c8-attr-10-name" class="er entityLabel">datetime</text><rect height="22" width="21.5625" y="222.36718845367432" x="113.984375" class="er attributeBoxEven"/><text style="dominant-baseline: middle; font-size: 10.2px;" transform="translate(118.984375,233.36718845367432)" y="0" x="0" id="text-entity-USER-6e7e2962-0c6f-577d-a7fd-2ce3a0cfd2c8-attr-10-key" class="er entityLabel"/><rect height="22.091796875" width="62.34375" y="244.36718845367432" x="0" class="er attributeBoxOdd"/><text style="dominant-baseline: middle; font-size: 10.2px;" transform="translate(5,255.41308689117432)" y="0" x="0" id="text-entity-USER-6e7e2962-0c6f-577d-a7fd-2ce3a0cfd2c8-attr-11-type" class="er entityLabel">updated_at</text><rect height="22.091796875" width="51.640625" y="244.36718845367432" x="62.34375" class="er attributeBoxOdd"/><text style="dominant-baseline: middle; font-size: 10.2px;" transform="translate(67.34375,255.41308689117432)" y="0" x="0" id="text-entity-USER-6e7e2962-0c6f-577d-a7fd-2ce3a0cfd2c8-attr-11-name" class="er entityLabel">datetime</text><rect height="22.091796875" width="21.5625" y="244.36718845367432" x="113.984375" class="er attributeBoxOdd"/><text style="dominant-baseline: middle; font-size: 10.2px;" transform="translate(118.984375,255.41308689117432)" y="0" x="0" id="text-entity-USER-6e7e2962-0c6f-577d-a7fd-2ce3a0cfd2c8-attr-11-key" class="er entityLabel"/></g><g transform="translate(376.125,97.18359375 )" id="entity-HABITCATEGORY-70707833-6bb3-5785-b133-79953d659d20"><rect height="112.091796875" width="135.546875" y="0" x="0" class="er entityBox"/><text style="dominant-baseline: middle; text-anchor: middle; font-size: 12px;" transform="translate(67.7734375,12)" y="0" x="0" id="text-entity-HABITCATEGORY-70707833-6bb3-5785-b133-79953d659d20" class="er entityLabel">HABIT_CATEGORY</text><rect height="22" width="62.34375" y="24" x="0" class="er attributeBoxOdd"/><text style="dominant-baseline: middle; font-size: 10.2px;" transform="translate(5,35)" y="0" x="0" id="text-entity-HABITCATEGORY-70707833-6bb3-5785-b133-79953d659d20-attr-1-type" class="er entityLabel">id</text><rect height="22" width="51.640625" y="24" x="62.34375" class="er attributeBoxOdd"/><text style="dominant-baseline: middle; font-size: 10.2px;" transform="translate(67.34375,35)" y="0" x="0" id="text-entity-HABITCATEGORY-70707833-6bb3-5785-b133-79953d659d20-attr-1-name" class="er entityLabel">int</text><rect height="22" width="21.5625" y="24" x="113.984375" class="er attributeBoxOdd"/><text style="dominant-baseline: middle; font-size: 10.2px;" transform="translate(118.984375,35)" y="0" x="0" id="text-entity-HABITCATEGORY-70707833-6bb3-5785-b133-79953d659d20-attr-1-key" class="er entityLabel">PK</text><rect height="22" width="62.34375" y="46" x="0" class="er attributeBoxEven"/><text style="dominant-baseline: middle; font-size: 10.2px;" transform="translate(5,57)" y="0" x="0" id="text-entity-HABITCATEGORY-70707833-6bb3-5785-b133-79953d659d20-attr-2-type" class="er entityLabel">name</text><rect height="22" width="51.640625" y="46" x="62.34375" class="er attributeBoxEven"/><text style="dominant-baseline: middle; font-size: 10.2px;" transform="translate(67.34375,57)" y="0" x="0" id="text-entity-HABITCATEGORY-70707833-6bb3-5785-b133-79953d659d20-attr-2-name" class="er entityLabel">varchar</text><rect height="22" width="21.5625" y="46" x="113.984375" class="er attributeBoxEven"/><text style="dominant-baseline: middle; font-size: 10.2px;" transform="translate(118.984375,57)" y="0" x="0" id="text-entity-HABITCATEGORY-70707833-6bb3-5785-b133-79953d659d20-attr-2-key" class="er entityLabel"/><rect height="22" width="62.34375" y="68" x="0" class="er attributeBoxOdd"/><text style="dominant-baseline: middle; font-size: 10.2px;" transform="translate(5,79)" y="0" x="0" id="text-entity-HABITCATEGORY-70707833-6bb3-5785-b133-79953d659d20-attr-3-type" class="er entityLabel">created_at</text><rect height="22" width="51.640625" y="68" x="62.34375" class="er attributeBoxOdd"/><text style="dominant-baseline: middle; font-size: 10.2px;" transform="translate(67.34375,79)" y="0" x="0" id="text-entity-HABITCATEGORY-70707833-6bb3-5785-b133-79953d659d20-attr-3-name" class="er entityLabel">datetime</text><rect height="22" width="21.5625" y="68" x="113.984375" class="er attributeBoxOdd"/><text style="dominant-baseline: middle; font-size: 10.2px;" transform="translate(118.984375,79)" y="0" x="0" id="text-entity-HABITCATEGORY-70707833-6bb3-5785-b133-79953d659d20-attr-3-key" class="er entityLabel"/><rect height="22.091796875" width="62.34375" y="90" x="0" class="er attributeBoxEven"/><text style="dominant-baseline: middle; font-size: 10.2px;" transform="translate(5,101.0458984375)" y="0" x="0" id="text-entity-HABITCATEGORY-70707833-6bb3-5785-b133-79953d659d20-attr-4-type" class="er entityLabel">updated_at</text><rect height="22.091796875" width="51.640625" y="90" x="62.34375" class="er attributeBoxEven"/><text style="dominant-baseline: middle; font-size: 10.2px;" transform="translate(67.34375,101.0458984375)" y="0" x="0" id="text-entity-HABITCATEGORY-70707833-6bb3-5785-b133-79953d659d20-attr-4-name" class="er entityLabel">datetime</text><rect height="22.091796875" width="21.5625" y="90" x="113.984375" class="er attributeBoxEven"/><text style="dominant-baseline: middle; font-size: 10.2px;" transform="translate(118.984375,101.0458984375)" y="0" x="0" id="text-entity-HABITCATEGORY-70707833-6bb3-5785-b133-79953d659d20-attr-4-key" class="er entityLabel"/></g><g transform="translate(257.75,386.458984375 )" id="entity-HABIT-50cafd61-dba2-51f6-800d-eb98319f89a1"><rect height="178.27539157867432" width="136.75" y="0" x="0" class="er entityBox"/><text style="dominant-baseline: middle; text-anchor: middle; font-size: 12px;" transform="translate(68.375,12)" y="0" x="0" id="text-entity-HABIT-50cafd61-dba2-51f6-800d-eb98319f89a1" class="er entityLabel">HABIT</text><rect height="22" width="63.546875" y="24" x="0" class="er attributeBoxOdd"/><text style="dominant-baseline: middle; font-size: 10.2px;" transform="translate(5,35)" y="0" x="0" id="text-entity-HABIT-50cafd61-dba2-51f6-800d-eb98319f89a1-attr-1-type" class="er entityLabel">id</text><rect height="22" width="51.640625" y="24" x="63.546875" class="er attributeBoxOdd"/><text style="dominant-baseline: middle; font-size: 10.2px;" transform="translate(68.546875,35)" y="0" x="0" id="text-entity-HABIT-50cafd61-dba2-51f6-800d-eb98319f89a1-attr-1-name" class="er entityLabel">int</text><rect height="22" width="21.5625" y="24" x="115.1875" class="er attributeBoxOdd"/><text style="dominant-baseline: middle; font-size: 10.2px;" transform="translate(120.1875,35)" y="0" x="0" id="text-entity-HABIT-50cafd61-dba2-51f6-800d-eb98319f89a1-attr-1-key" class="er entityLabel">PK</text><rect height="22" width="63.546875" y="46" x="0" class="er attributeBoxEven"/><text style="dominant-baseline: middle; font-size: 10.2px;" transform="translate(5,57)" y="0" x="0" id="text-entity-HABIT-50cafd61-dba2-51f6-800d-eb98319f89a1-attr-2-type" class="er entityLabel">user_id</text><rect height="22" width="51.640625" y="46" x="63.546875" class="er attributeBoxEven"/><text style="dominant-baseline: middle; font-size: 10.2px;" transform="translate(68.546875,57)" y="0" x="0" id="text-entity-HABIT-50cafd61-dba2-51f6-800d-eb98319f89a1-attr-2-name" class="er entityLabel">int</text><rect height="22" width="21.5625" y="46" x="115.1875" class="er attributeBoxEven"/><text style="dominant-baseline: middle; font-size: 10.2px;" transform="translate(120.1875,57)" y="0" x="0" id="text-entity-HABIT-50cafd61-dba2-51f6-800d-eb98319f89a1-attr-2-key" class="er entityLabel">FK</text><rect height="22.091797828674316" width="63.546875" y="68" x="0" class="er attributeBoxOdd"/><text style="dominant-baseline: middle; font-size: 10.2px;" transform="translate(5,79.04589891433716)" y="0" x="0" id="text-entity-HABIT-50cafd61-dba2-51f6-800d-eb98319f89a1-attr-3-type" class="er entityLabel">category_id</text><rect height="22.091797828674316" width="51.640625" y="68" x="63.546875" class="er attributeBoxOdd"/><text style="dominant-baseline: middle; font-size: 10.2px;" transform="translate(68.546875,79.04589891433716)" y="0" x="0" id="text-entity-HABIT-50cafd61-dba2-51f6-800d-eb98319f89a1-attr-3-name" class="er entityLabel">int</text><rect height="22.091797828674316" width="21.5625" y="68" x="115.1875" class="er attributeBoxOdd"/><text style="dominant-baseline: middle; font-size: 10.2px;" transform="translate(120.1875,79.04589891433716)" y="0" x="0" id="text-entity-HABIT-50cafd61-dba2-51f6-800d-eb98319f89a1-attr-3-key" class="er entityLabel">FK</text><rect height="22" width="63.546875" y="90.09179782867432" x="0" class="er attributeBoxEven"/><text style="dominant-baseline: middle; font-size: 10.2px;" transform="translate(5,101.09179782867432)" y="0" x="0" id="text-entity-HABIT-50cafd61-dba2-51f6-800d-eb98319f89a1-attr-4-type" class="er entityLabel">name</text><rect height="22" width="51.640625" y="90.09179782867432" x="63.546875" class="er attributeBoxEven"/><text style="dominant-baseline: middle; font-size: 10.2px;" transform="translate(68.546875,101.09179782867432)" y="0" x="0" id="text-entity-HABIT-50cafd61-dba2-51f6-800d-eb98319f89a1-attr-4-name" class="er entityLabel">varchar</text><rect height="22" width="21.5625" y="90.09179782867432" x="115.1875" class="er attributeBoxEven"/><text style="dominant-baseline: middle; font-size: 10.2px;" transform="translate(120.1875,101.09179782867432)" y="0" x="0" id="text-entity-HABIT-50cafd61-dba2-51f6-800d-eb98319f89a1-attr-4-key" class="er entityLabel"/><rect height="22.091796875" width="63.546875" y="112.09179782867432" x="0" class="er attributeBoxOdd"/><text style="dominant-baseline: middle; font-size: 10.2px;" transform="translate(5,123.13769626617432)" y="0" x="0" id="text-entity-HABIT-50cafd61-dba2-51f6-800d-eb98319f89a1-attr-5-type" class="er entityLabel">description</text><rect height="22.091796875" width="51.640625" y="112.09179782867432" x="63.546875" class="er attributeBoxOdd"/><text style="dominant-baseline: middle; font-size: 10.2px;" transform="translate(68.546875,123.13769626617432)" y="0" x="0" id="text-entity-HABIT-50cafd61-dba2-51f6-800d-eb98319f89a1-attr-5-name" class="er entityLabel">varchar</text><rect height="22.091796875" width="21.5625" y="112.09179782867432" x="115.1875" class="er attributeBoxOdd"/><text style="dominant-baseline: middle; font-size: 10.2px;" transform="translate(120.1875,123.13769626617432)" y="0" x="0" id="text-entity-HABIT-50cafd61-dba2-51f6-800d-eb98319f89a1-attr-5-key" class="er entityLabel"/><rect height="22" width="63.546875" y="134.18359470367432" x="0" class="er attributeBoxEven"/><text style="dominant-baseline: middle; font-size: 10.2px;" transform="translate(5,145.18359470367432)" y="0" x="0" id="text-entity-HABIT-50cafd61-dba2-51f6-800d-eb98319f89a1-attr-6-type" class="er entityLabel">created_at</text><rect height="22" width="51.640625" y="134.18359470367432" x="63.546875" class="er attributeBoxEven"/><text style="dominant-baseline: middle; font-size: 10.2px;" transform="translate(68.546875,145.18359470367432)" y="0" x="0" id="text-entity-HABIT-50cafd61-dba2-51f6-800d-eb98319f89a1-attr-6-name" class="er entityLabel">datetime</text><rect height="22" width="21.5625" y="134.18359470367432" x="115.1875" class="er attributeBoxEven"/><text style="dominant-baseline: middle; font-size: 10.2px;" transform="translate(120.1875,145.18359470367432)" y="0" x="0" id="text-entity-HABIT-50cafd61-dba2-51f6-800d-eb98319f89a1-attr-6-key" class="er entityLabel"/><rect height="22.091796875" width="63.546875" y="156.18359470367432" x="0" class="er attributeBoxOdd"/><text style="dominant-baseline: middle; font-size: 10.2px;" transform="translate(5,167.22949314117432)" y="0" x="0" id="text-entity-HABIT-50cafd61-dba2-51f6-800d-eb98319f89a1-attr-7-type" class="er entityLabel">updated_at</text><rect height="22.091796875" width="51.640625" y="156.18359470367432" x="63.546875" class="er attributeBoxOdd"/><text style="dominant-baseline: middle; font-size: 10.2px;" transform="translate(68.546875,167.22949314117432)" y="0" x="0" id="text-entity-HABIT-50cafd61-dba2-51f6-800d-eb98319f89a1-attr-7-name" class="er entityLabel">datetime</text><rect height="22.091796875" width="21.5625" y="156.18359470367432" x="115.1875" class="er attributeBoxOdd"/><text style="dominant-baseline: middle; font-size: 10.2px;" transform="translate(120.1875,167.22949314117432)" y="0" x="0" id="text-entity-HABIT-50cafd61-dba2-51f6-800d-eb98319f89a1-attr-7-key" class="er entityLabel"/></g><g transform="translate(20,675.826171875 )" id="entity-DAILYRECORD-f92c1cdc-53c3-533b-aff4-80d5d860d531"><rect height="134.091796875" width="135.546875" y="0" x="0" class="er entityBox"/><text style="dominant-baseline: middle; text-anchor: middle; font-size: 12px;" transform="translate(67.7734375,12)" y="0" x="0" id="text-entity-DAILYRECORD-f92c1cdc-53c3-533b-aff4-80d5d860d531" class="er entityLabel">DAILY_RECORD</text><rect height="22" width="62.34375" y="24" x="0" class="er attributeBoxOdd"/><text style="dominant-baseline: middle; font-size: 10.2px;" transform="translate(5,35)" y="0" x="0" id="text-entity-DAILYRECORD-f92c1cdc-53c3-533b-aff4-80d5d860d531-attr-1-type" class="er entityLabel">id</text><rect height="22" width="51.640625" y="24" x="62.34375" class="er attributeBoxOdd"/><text style="dominant-baseline: middle; font-size: 10.2px;" transform="translate(67.34375,35)" y="0" x="0" id="text-entity-DAILYRECORD-f92c1cdc-53c3-533b-aff4-80d5d860d531-attr-1-name" class="er entityLabel">int</text><rect height="22" width="21.5625" y="24" x="113.984375" class="er attributeBoxOdd"/><text style="dominant-baseline: middle; font-size: 10.2px;" transform="translate(118.984375,35)" y="0" x="0" id="text-entity-DAILYRECORD-f92c1cdc-53c3-533b-aff4-80d5d860d531-attr-1-key" class="er entityLabel">PK</text><rect height="22" width="62.34375" y="46" x="0" class="er attributeBoxEven"/><text style="dominant-baseline: middle; font-size: 10.2px;" transform="translate(5,57)" y="0" x="0" id="text-entity-DAILYRECORD-f92c1cdc-53c3-533b-aff4-80d5d860d531-attr-2-type" class="er entityLabel">habit_id</text><rect height="22" width="51.640625" y="46" x="62.34375" class="er attributeBoxEven"/><text style="dominant-baseline: middle; font-size: 10.2px;" transform="translate(67.34375,57)" y="0" x="0" id="text-entity-DAILYRECORD-f92c1cdc-53c3-533b-aff4-80d5d860d531-attr-2-name" class="er entityLabel">int</text><rect height="22" width="21.5625" y="46" x="113.984375" class="er attributeBoxEven"/><text style="dominant-baseline: middle; font-size: 10.2px;" transform="translate(118.984375,57)" y="0" x="0" id="text-entity-DAILYRECORD-f92c1cdc-53c3-533b-aff4-80d5d860d531-attr-2-key" class="er entityLabel">FK</text><rect height="22" width="62.34375" y="68" x="0" class="er attributeBoxOdd"/><text style="dominant-baseline: middle; font-size: 10.2px;" transform="translate(5,79)" y="0" x="0" id="text-entity-DAILYRECORD-f92c1cdc-53c3-533b-aff4-80d5d860d531-attr-3-type" class="er entityLabel">date</text><rect height="22" width="51.640625" y="68" x="62.34375" class="er attributeBoxOdd"/><text style="dominant-baseline: middle; font-size: 10.2px;" transform="translate(67.34375,79)" y="0" x="0" id="text-entity-DAILYRECORD-f92c1cdc-53c3-533b-aff4-80d5d860d531-attr-3-name" class="er entityLabel">date</text><rect height="22" width="21.5625" y="68" x="113.984375" class="er attributeBoxOdd"/><text style="dominant-baseline: middle; font-size: 10.2px;" transform="translate(118.984375,79)" y="0" x="0" id="text-entity-DAILYRECORD-f92c1cdc-53c3-533b-aff4-80d5d860d531-attr-3-key" class="er entityLabel"/><rect height="22" width="62.34375" y="90" x="0" class="er attributeBoxEven"/><text style="dominant-baseline: middle; font-size: 10.2px;" transform="translate(5,101)" y="0" x="0" id="text-entity-DAILYRECORD-f92c1cdc-53c3-533b-aff4-80d5d860d531-attr-4-type" class="er entityLabel">created_at</text><rect height="22" width="51.640625" y="90" x="62.34375" class="er attributeBoxEven"/><text style="dominant-baseline: middle; font-size: 10.2px;" transform="translate(67.34375,101)" y="0" x="0" id="text-entity-DAILYRECORD-f92c1cdc-53c3-533b-aff4-80d5d860d531-attr-4-name" class="er entityLabel">datetime</text><rect height="22" width="21.5625" y="90" x="113.984375" class="er attributeBoxEven"/><text style="dominant-baseline: middle; font-size: 10.2px;" transform="translate(118.984375,101)" y="0" x="0" id="text-entity-DAILYRECORD-f92c1cdc-53c3-533b-aff4-80d5d860d531-attr-4-key" class="er entityLabel"/><rect height="22.091796875" width="62.34375" y="112" x="0" class="er attributeBoxOdd"/><text style="dominant-baseline: middle; font-size: 10.2px;" transform="translate(5,123.0458984375)" y="0" x="0" id="text-entity-DAILYRECORD-f92c1cdc-53c3-533b-aff4-80d5d860d531-attr-5-type" class="er entityLabel">updated_at</text><rect height="22.091796875" width="51.640625" y="112" x="62.34375" class="er attributeBoxOdd"/><text style="dominant-baseline: middle; font-size: 10.2px;" transform="translate(67.34375,123.0458984375)" y="0" x="0" id="text-entity-DAILYRECORD-f92c1cdc-53c3-533b-aff4-80d5d860d531-attr-5-name" class="er entityLabel">datetime</text><rect height="22.091796875" width="21.5625" y="112" x="113.984375" class="er attributeBoxOdd"/><text style="dominant-baseline: middle; font-size: 10.2px;" transform="translate(118.984375,123.0458984375)" y="0" x="0" id="text-entity-DAILYRECORD-f92c1cdc-53c3-533b-aff4-80d5d860d531-attr-5-key" class="er entityLabel"/></g><g transform="translate(255.546875,664.734375 )" id="entity-GOAL-6dcc21b1-3428-594a-8f5d-b1e8f0a4d080"><rect height="156.275390625" width="141.15625" y="0" x="0" class="er entityBox"/><text style="dominant-baseline: middle; text-anchor: middle; font-size: 12px;" transform="translate(70.578125,12)" y="0" x="0" id="text-entity-GOAL-6dcc21b1-3428-594a-8f5d-b1e8f0a4d080" class="er entityLabel">GOAL</text><rect height="22" width="67.953125" y="24" x="0" class="er attributeBoxOdd"/><text style="dominant-baseline: middle; font-size: 10.2px;" transform="translate(5,35)" y="0" x="0" id="text-entity-GOAL-6dcc21b1-3428-594a-8f5d-b1e8f0a4d080-attr-1-type" class="er entityLabel">id</text><rect height="22" width="51.640625" y="24" x="67.953125" class="er attributeBoxOdd"/><text style="dominant-baseline: middle; font-size: 10.2px;" transform="translate(72.953125,35)" y="0" x="0" id="text-entity-GOAL-6dcc21b1-3428-594a-8f5d-b1e8f0a4d080-attr-1-name" class="er entityLabel">int</text><rect height="22" width="21.5625" y="24" x="119.59375" class="er attributeBoxOdd"/><text style="dominant-baseline: middle; font-size: 10.2px;" transform="translate(124.59375,35)" y="0" x="0" id="text-entity-GOAL-6dcc21b1-3428-594a-8f5d-b1e8f0a4d080-attr-1-key" class="er entityLabel">PK</text><rect height="22" width="67.953125" y="46" x="0" class="er attributeBoxEven"/><text style="dominant-baseline: middle; font-size: 10.2px;" transform="translate(5,57)" y="0" x="0" id="text-entity-GOAL-6dcc21b1-3428-594a-8f5d-b1e8f0a4d080-attr-2-type" class="er entityLabel">habit_id</text><rect height="22" width="51.640625" y="46" x="67.953125" class="er attributeBoxEven"/><text style="dominant-baseline: middle; font-size: 10.2px;" transform="translate(72.953125,57)" y="0" x="0" id="text-entity-GOAL-6dcc21b1-3428-594a-8f5d-b1e8f0a4d080-attr-2-name" class="er entityLabel">int</text><rect height="22" width="21.5625" y="46" x="119.59375" class="er attributeBoxEven"/><text style="dominant-baseline: middle; font-size: 10.2px;" transform="translate(124.59375,57)" y="0" x="0" id="text-entity-GOAL-6dcc21b1-3428-594a-8f5d-b1e8f0a4d080-attr-2-key" class="er entityLabel">FK</text><rect height="22.091796875" width="67.953125" y="68" x="0" class="er attributeBoxOdd"/><text style="dominant-baseline: middle; font-size: 10.2px;" transform="translate(5,79.0458984375)" y="0" x="0" id="text-entity-GOAL-6dcc21b1-3428-594a-8f5d-b1e8f0a4d080-attr-3-type" class="er entityLabel">frequency</text><rect height="22.091796875" width="51.640625" y="68" x="67.953125" class="er attributeBoxOdd"/><text style="dominant-baseline: middle; font-size: 10.2px;" transform="translate(72.953125,79.0458984375)" y="0" x="0" id="text-entity-GOAL-6dcc21b1-3428-594a-8f5d-b1e8f0a4d080-attr-3-name" class="er entityLabel">varchar</text><rect height="22.091796875" width="21.5625" y="68" x="119.59375" class="er attributeBoxOdd"/><text style="dominant-baseline: middle; font-size: 10.2px;" transform="translate(124.59375,79.0458984375)" y="0" x="0" id="text-entity-GOAL-6dcc21b1-3428-594a-8f5d-b1e8f0a4d080-attr-3-key" class="er entityLabel"/><rect height="22.091796875" width="67.953125" y="90.091796875" x="0" class="er attributeBoxEven"/><text style="dominant-baseline: middle; font-size: 10.2px;" transform="translate(5,101.1376953125)" y="0" x="0" id="text-entity-GOAL-6dcc21b1-3428-594a-8f5d-b1e8f0a4d080-attr-4-type" class="er entityLabel">target_value</text><rect height="22.091796875" width="51.640625" y="90.091796875" x="67.953125" class="er attributeBoxEven"/><text style="dominant-baseline: middle; font-size: 10.2px;" transform="translate(72.953125,101.1376953125)" y="0" x="0" id="text-entity-GOAL-6dcc21b1-3428-594a-8f5d-b1e8f0a4d080-attr-4-name" class="er entityLabel">int</text><rect height="22.091796875" width="21.5625" y="90.091796875" x="119.59375" class="er attributeBoxEven"/><text style="dominant-baseline: middle; font-size: 10.2px;" transform="translate(124.59375,101.1376953125)" y="0" x="0" id="text-entity-GOAL-6dcc21b1-3428-594a-8f5d-b1e8f0a4d080-attr-4-key" class="er entityLabel"/><rect height="22" width="67.953125" y="112.18359375" x="0" class="er attributeBoxOdd"/><text style="dominant-baseline: middle; font-size: 10.2px;" transform="translate(5,123.18359375)" y="0" x="0" id="text-entity-GOAL-6dcc21b1-3428-594a-8f5d-b1e8f0a4d080-attr-5-type" class="er entityLabel">created_at</text><rect height="22" width="51.640625" y="112.18359375" x="67.953125" class="er attributeBoxOdd"/><text style="dominant-baseline: middle; font-size: 10.2px;" transform="translate(72.953125,123.18359375)" y="0" x="0" id="text-entity-GOAL-6dcc21b1-3428-594a-8f5d-b1e8f0a4d080-attr-5-name" class="er entityLabel">datetime</text><rect height="22" width="21.5625" y="112.18359375" x="119.59375" class="er attributeBoxOdd"/><text style="dominant-baseline: middle; font-size: 10.2px;" transform="translate(124.59375,123.18359375)" y="0" x="0" id="text-entity-GOAL-6dcc21b1-3428-594a-8f5d-b1e8f0a4d080-attr-5-key" class="er entityLabel"/><rect height="22.091796875" width="67.953125" y="134.18359375" x="0" class="er attributeBoxEven"/><text style="dominant-baseline: middle; font-size: 10.2px;" transform="translate(5,145.2294921875)" y="0" x="0" id="text-entity-GOAL-6dcc21b1-3428-594a-8f5d-b1e8f0a4d080-attr-6-type" class="er entityLabel">updated_at</text><rect height="22.091796875" width="51.640625" y="134.18359375" x="67.953125" class="er attributeBoxEven"/><text style="dominant-baseline: middle; font-size: 10.2px;" transform="translate(72.953125,145.2294921875)" y="0" x="0" id="text-entity-GOAL-6dcc21b1-3428-594a-8f5d-b1e8f0a4d080-attr-6-name" class="er entityLabel">datetime</text><rect height="22.091796875" width="21.5625" y="134.18359375" x="119.59375" class="er attributeBoxEven"/><text style="dominant-baseline: middle; font-size: 10.2px;" transform="translate(124.59375,145.2294921875)" y="0" x="0" id="text-entity-GOAL-6dcc21b1-3428-594a-8f5d-b1e8f0a4d080-attr-6-key" class="er entityLabel"/></g><g transform="translate(496.703125,664.7802734375 )" id="entity-REMINDER-70d563b7-26ae-5327-8d3b-834d24d606bc"><rect height="156.18359375" width="148.765625" y="0" x="0" class="er entityBox"/><text style="dominant-baseline: middle; text-anchor: middle; font-size: 12px;" transform="translate(74.3828125,12)" y="0" x="0" id="text-entity-REMINDER-70d563b7-26ae-5327-8d3b-834d24d606bc" class="er entityLabel">REMINDER</text><rect height="22" width="75.5625" y="24" x="0" class="er attributeBoxOdd"/><text style="dominant-baseline: middle; font-size: 10.2px;" transform="translate(5,35)" y="0" x="0" id="text-entity-REMINDER-70d563b7-26ae-5327-8d3b-834d24d606bc-attr-1-type" class="er entityLabel">id</text><rect height="22" width="51.640625" y="24" x="75.5625" class="er attributeBoxOdd"/><text style="dominant-baseline: middle; font-size: 10.2px;" transform="translate(80.5625,35)" y="0" x="0" id="text-entity-REMINDER-70d563b7-26ae-5327-8d3b-834d24d606bc-attr-1-name" class="er entityLabel">int</text><rect height="22" width="21.5625" y="24" x="127.203125" class="er attributeBoxOdd"/><text style="dominant-baseline: middle; font-size: 10.2px;" transform="translate(132.203125,35)" y="0" x="0" id="text-entity-REMINDER-70d563b7-26ae-5327-8d3b-834d24d606bc-attr-1-key" class="er entityLabel">PK</text><rect height="22" width="75.5625" y="46" x="0" class="er attributeBoxEven"/><text style="dominant-baseline: middle; font-size: 10.2px;" transform="translate(5,57)" y="0" x="0" id="text-entity-REMINDER-70d563b7-26ae-5327-8d3b-834d24d606bc-attr-2-type" class="er entityLabel">habit_id</text><rect height="22" width="51.640625" y="46" x="75.5625" class="er attributeBoxEven"/><text style="dominant-baseline: middle; font-size: 10.2px;" transform="translate(80.5625,57)" y="0" x="0" id="text-entity-REMINDER-70d563b7-26ae-5327-8d3b-834d24d606bc-attr-2-name" class="er entityLabel">int</text><rect height="22" width="21.5625" y="46" x="127.203125" class="er attributeBoxEven"/><text style="dominant-baseline: middle; font-size: 10.2px;" transform="translate(132.203125,57)" y="0" x="0" id="text-entity-REMINDER-70d563b7-26ae-5327-8d3b-834d24d606bc-attr-2-key" class="er entityLabel">FK</text><rect height="22" width="75.5625" y="68" x="0" class="er attributeBoxOdd"/><text style="dominant-baseline: middle; font-size: 10.2px;" transform="translate(5,79)" y="0" x="0" id="text-entity-REMINDER-70d563b7-26ae-5327-8d3b-834d24d606bc-attr-3-type" class="er entityLabel">cron_schedule</text><rect height="22" width="51.640625" y="68" x="75.5625" class="er attributeBoxOdd"/><text style="dominant-baseline: middle; font-size: 10.2px;" transform="translate(80.5625,79)" y="0" x="0" id="text-entity-REMINDER-70d563b7-26ae-5327-8d3b-834d24d606bc-attr-3-name" class="er entityLabel">varchar</text><rect height="22" width="21.5625" y="68" x="127.203125" class="er attributeBoxOdd"/><text style="dominant-baseline: middle; font-size: 10.2px;" transform="translate(132.203125,79)" y="0" x="0" id="text-entity-REMINDER-70d563b7-26ae-5327-8d3b-834d24d606bc-attr-3-key" class="er entityLabel"/><rect height="22.091796875" width="75.5625" y="90" x="0" class="er attributeBoxEven"/><text style="dominant-baseline: middle; font-size: 10.2px;" transform="translate(5,101.0458984375)" y="0" x="0" id="text-entity-REMINDER-70d563b7-26ae-5327-8d3b-834d24d606bc-attr-4-type" class="er entityLabel">message</text><rect height="22.091796875" width="51.640625" y="90" x="75.5625" class="er attributeBoxEven"/><text style="dominant-baseline: middle; font-size: 10.2px;" transform="translate(80.5625,101.0458984375)" y="0" x="0" id="text-entity-REMINDER-70d563b7-26ae-5327-8d3b-834d24d606bc-attr-4-name" class="er entityLabel">varchar</text><rect height="22.091796875" width="21.5625" y="90" x="127.203125" class="er attributeBoxEven"/><text style="dominant-baseline: middle; font-size: 10.2px;" transform="translate(132.203125,101.0458984375)" y="0" x="0" id="text-entity-REMINDER-70d563b7-26ae-5327-8d3b-834d24d606bc-attr-4-key" class="er entityLabel"/><rect height="22" width="75.5625" y="112.091796875" x="0" class="er attributeBoxOdd"/><text style="dominant-baseline: middle; font-size: 10.2px;" transform="translate(5,123.091796875)" y="0" x="0" id="text-entity-REMINDER-70d563b7-26ae-5327-8d3b-834d24d606bc-attr-5-type" class="er entityLabel">created_at</text><rect height="22" width="51.640625" y="112.091796875" x="75.5625" class="er attributeBoxOdd"/><text style="dominant-baseline: middle; font-size: 10.2px;" transform="translate(80.5625,123.091796875)" y="0" x="0" id="text-entity-REMINDER-70d563b7-26ae-5327-8d3b-834d24d606bc-attr-5-name" class="er entityLabel">datetime</text><rect height="22" width="21.5625" y="112.091796875" x="127.203125" class="er attributeBoxOdd"/><text style="dominant-baseline: middle; font-size: 10.2px;" transform="translate(132.203125,123.091796875)" y="0" x="0" id="text-entity-REMINDER-70d563b7-26ae-5327-8d3b-834d24d606bc-attr-5-key" class="er entityLabel"/><rect height="22.091796875" width="75.5625" y="134.091796875" x="0" class="er attributeBoxEven"/><text style="dominant-baseline: middle; font-size: 10.2px;" transform="translate(5,145.1376953125)" y="0" x="0" id="text-entity-REMINDER-70d563b7-26ae-5327-8d3b-834d24d606bc-attr-6-type" class="er entityLabel">updated_at</text><rect height="22.091796875" width="51.640625" y="134.091796875" x="75.5625" class="er attributeBoxEven"/><text style="dominant-baseline: middle; font-size: 10.2px;" transform="translate(80.5625,145.1376953125)" y="0" x="0" id="text-entity-REMINDER-70d563b7-26ae-5327-8d3b-834d24d606bc-attr-6-name" class="er entityLabel">datetime</text><rect height="22.091796875" width="21.5625" y="134.091796875" x="127.203125" class="er attributeBoxEven"/><text style="dominant-baseline: middle; font-size: 10.2px;" transform="translate(132.203125,145.1376953125)" y="0" x="0" id="text-entity-REMINDER-70d563b7-26ae-5327-8d3b-834d24d606bc-attr-6-key" class="er entityLabel"/></g><rect height="14" width="17.71875" y="338.8402404785156" x="211.8203582763672" class="er relationshipLabelBox"/><text style="text-anchor: middle; dominant-baseline: middle; font-size: 12px;" y="345.8402404785156" x="220.6797332763672" id="rel1" class="er relationshipLabel">has</text><rect height="14" width="61.203125" y="301.1570129394531" x="408.6265563964844" class="er relationshipLabelBox"/><text style="text-anchor: middle; dominant-baseline: middle; font-size: 12px;" y="308.1570129394531" x="439.2281188964844" id="rel2" class="er relationshipLabel">categorizes</text><rect height="14" width="17.71875" y="572.6080932617188" x="144.04563903808594" class="er relationshipLabelBox"/><text style="text-anchor: middle; dominant-baseline: middle; font-size: 12px;" y="579.6080932617188" x="152.90501403808594" id="rel3" class="er relationshipLabel">has</text><rect height="14" width="17.71875" y="607.7340087890625" x="317.265625" class="er relationshipLabelBox"/><text style="text-anchor: middle; dominant-baseline: middle; font-size: 12px;" y="614.7340087890625" x="326.125" id="rel4" class="er relationshipLabel">has</text><rect height="14" width="17.71875" y="568.7540283203125" x="490.05499267578125" class="er relationshipLabelBox"/><text style="text-anchor: middle; dominant-baseline: middle; font-size: 12px;" y="575.7540283203125" x="498.91436767578125" id="rel5" class="er relationshipLabel">has</text></svg>