<svg aria-roledescription="er" role="graphics-document document" viewBox="0 -62 855.26171875 470.642578125" style="max-width: 855.262px; background-color: white;" xmlns:xlink="http://www.w3.org/1999/xlink" xmlns="http://www.w3.org/2000/svg" width="100%" id="my-svg"><style>#my-svg{font-family:"trebuchet ms",verdana,arial,sans-serif;font-size:16px;fill:#333;}#my-svg .error-icon{fill:#552222;}#my-svg .error-text{fill:#552222;stroke:#552222;}#my-svg .edge-thickness-normal{stroke-width:1px;}#my-svg .edge-thickness-thick{stroke-width:3.5px;}#my-svg .edge-pattern-solid{stroke-dasharray:0;}#my-svg .edge-thickness-invisible{stroke-width:0;fill:none;}#my-svg .edge-pattern-dashed{stroke-dasharray:3;}#my-svg .edge-pattern-dotted{stroke-dasharray:2;}#my-svg .marker{fill:#333333;stroke:#333333;}#my-svg .marker.cross{stroke:#333333;}#my-svg svg{font-family:"trebuchet ms",verdana,arial,sans-serif;font-size:16px;}#my-svg p{margin:0;}#my-svg .entityBox{fill:#ECECFF;stroke:#9370DB;}#my-svg .attributeBoxOdd{fill:#ffffff;stroke:#9370DB;}#my-svg .attributeBoxEven{fill:#f2f2f2;stroke:#9370DB;}#my-svg .relationshipLabelBox{fill:hsl(80, 100%, 96.2745098039%);opacity:0.7;background-color:hsl(80, 100%, 96.2745098039%);}#my-svg .relationshipLabelBox rect{opacity:0.5;}#my-svg .relationshipLine{stroke:#333333;}#my-svg .entityTitleText{text-anchor:middle;font-size:18px;fill:#333;}#my-svg #MD_PARENT_START{fill:#f5f5f5!important;stroke:#333333!important;stroke-width:1;}#my-svg #MD_PARENT_END{fill:#f5f5f5!important;stroke:#333333!important;stroke-width:1;}#my-svg :root{--mermaid-font-family:"trebuchet ms",verdana,arial,sans-serif;}</style><g/><defs><marker orient="auto" markerHeight="240" markerWidth="190" refY="7" refX="0" id="MD_PARENT_START"><path d="M 18,7 L9,13 L1,7 L9,1 Z"/></marker></defs><defs><marker orient="auto" markerHeight="28" markerWidth="20" refY="7" refX="19" id="MD_PARENT_END"><path d="M 18,7 L9,13 L1,7 L9,1 Z"/></marker></defs><defs><marker orient="auto" markerHeight="18" markerWidth="18" refY="9" refX="0" id="ONLY_ONE_START"><path d="M9,0 L9,18 M15,0 L15,18" fill="none" stroke="gray"/></marker></defs><defs><marker orient="auto" markerHeight="18" markerWidth="18" refY="9" refX="18" id="ONLY_ONE_END"><path d="M3,0 L3,18 M9,0 L9,18" fill="none" stroke="gray"/></marker></defs><defs><marker orient="auto" markerHeight="18" markerWidth="30" refY="9" refX="0" id="ZERO_OR_ONE_START"><circle r="6" cy="9" cx="21" fill="white" stroke="gray"/><path d="M9,0 L9,18" fill="none" stroke="gray"/></marker></defs><defs><marker orient="auto" markerHeight="18" markerWidth="30" refY="9" refX="30" id="ZERO_OR_ONE_END"><circle r="6" cy="9" cx="9" fill="white" stroke="gray"/><path d="M21,0 L21,18" fill="none" stroke="gray"/></marker></defs><defs><marker orient="auto" markerHeight="36" markerWidth="45" refY="18" refX="18" id="ONE_OR_MORE_START"><path d="M0,18 Q 18,0 36,18 Q 18,36 0,18 M42,9 L42,27" fill="none" stroke="gray"/></marker></defs><defs><marker orient="auto" markerHeight="36" markerWidth="45" refY="18" refX="27" id="ONE_OR_MORE_END"><path d="M3,9 L3,27 M9,18 Q27,0 45,18 Q27,36 9,18" fill="none" stroke="gray"/></marker></defs><defs><marker orient="auto" markerHeight="36" markerWidth="57" refY="18" refX="18" id="ZERO_OR_MORE_START"><circle r="6" cy="18" cx="48" fill="white" stroke="gray"/><path d="M0,18 Q18,0 36,18 Q18,36 0,18" fill="none" stroke="gray"/></marker></defs><defs><marker orient="auto" markerHeight="36" markerWidth="57" refY="18" refX="39" id="ZERO_OR_MORE_END"><circle r="6" cy="18" cx="9" fill="white" stroke="gray"/><path d="M21,18 Q39,0 57,18 Q39,36 21,18" fill="none" stroke="gray"/></marker></defs><path style="stroke: gray; fill: none;" marker-start="url(#ONE_OR_MORE_START)" marker-end="url(#ONE_OR_MORE_END)" stroke-dasharray="8,8" d="M88.227,154.275L88.227,162.609C88.227,170.942,88.227,187.609,101.847,207.957C115.468,228.306,142.709,252.337,156.33,264.352L169.95,276.367" class="er relationshipLine"/><path style="stroke: gray; fill: none;" marker-start="url(#ONE_OR_MORE_START)" marker-end="url(#ONE_OR_MORE_END)" stroke-dasharray="8,8" d="M310.659,132.184L302.162,144.199C293.665,156.214,276.67,180.245,264.214,204.275C251.758,228.306,243.841,252.337,239.882,264.352L235.923,276.367" class="er relationshipLine"/><path style="stroke: gray; fill: none;" marker-start="url(#ONE_OR_MORE_START)" marker-end="url(#ZERO_OR_MORE_END)" stroke-dasharray="8,8" d="M387.57,132.184L399.588,144.199C411.605,156.214,435.641,180.245,453.57,206.116C471.5,231.988,483.325,259.701,489.237,273.557L495.149,287.413" class="er relationshipLine"/><path style="stroke: gray; fill: none;" marker-start="url(#ONLY_ONE_START)" marker-end="url(#ONE_OR_MORE_END)" stroke-dasharray="8,8" d="M573.75,112.609L538.071,127.887C502.392,143.164,431.034,173.72,381.143,201.013C331.251,228.306,302.827,252.337,288.615,264.352L274.403,276.367" class="er relationshipLine"/><path style="stroke: gray; fill: none;" marker-start="url(#ONLY_ONE_START)" marker-end="url(#ONE_OR_MORE_END)" stroke-dasharray="8,8" d="M652.482,132.229L657.607,144.237C662.733,156.245,672.983,180.26,683.34,200.601C693.696,220.942,704.158,237.609,709.389,245.942L714.62,254.275" class="er relationshipLine"/><path style="stroke: gray; fill: none;" marker-start="url(#ONLY_ONE_START)" marker-end="url(#ONE_OR_MORE_END)" stroke-dasharray="8,8" d="M692.719,127.285L711.731,140.117C730.743,152.948,768.768,178.612,784.225,199.777C799.682,220.942,792.57,237.609,789.015,245.942L785.459,254.275" class="er relationshipLine"/><path style="stroke: gray; fill: none;" marker-start="url(#ONLY_ONE_START)" marker-end="url(#ZERO_OR_MORE_END)" stroke-dasharray="8,8" d="M613.987,132.229L608.862,144.237C603.736,156.245,593.485,180.26,579.662,206.124C565.839,231.988,548.443,259.701,539.745,273.557L531.047,287.413" class="er relationshipLine"/><g transform="translate(155.39453125,276.3671875 )" id="entity-SoftwareRelease-3ac27bfa-743e-5033-a35a-0d1e6d036811"><rect height="90.18359470367432" width="131.34375" y="0" x="0" class="er entityBox"/><text style="dominant-baseline: middle; text-anchor: middle; font-size: 12px;" transform="translate(65.671875,12)" y="0" x="0" id="text-entity-SoftwareRelease-3ac27bfa-743e-5033-a35a-0d1e6d036811" class="er entityLabel">Software-Release</text><rect height="22.091796875" width="84.953125" y="24" x="0" class="er attributeBoxOdd"/><text style="dominant-baseline: middle; font-size: 10.2px;" transform="translate(5,35.0458984375)" y="0" x="0" id="text-entity-SoftwareRelease-3ac27bfa-743e-5033-a35a-0d1e6d036811-attr-1-type" class="er entityLabel">Type</text><rect height="22.091796875" width="46.390625" y="24" x="84.953125" class="er attributeBoxOdd"/><text style="dominant-baseline: middle; font-size: 10.2px;" transform="translate(89.953125,35.0458984375)" y="0" x="0" id="text-entity-SoftwareRelease-3ac27bfa-743e-5033-a35a-0d1e6d036811-attr-1-name" class="er entityLabel">Data</text><rect height="22.091797828674316" width="84.953125" y="46.091796875" x="0" class="er attributeBoxEven"/><text style="dominant-baseline: middle; font-size: 10.2px;" transform="translate(5,57.13769578933716)" y="0" x="0" id="text-entity-SoftwareRelease-3ac27bfa-743e-5033-a35a-0d1e6d036811-attr-2-type" class="er entityLabel">Executable</text><rect height="22.091797828674316" width="46.390625" y="46.091796875" x="84.953125" class="er attributeBoxEven"/><text style="dominant-baseline: middle; font-size: 10.2px;" transform="translate(89.953125,57.13769578933716)" y="0" x="0" id="text-entity-SoftwareRelease-3ac27bfa-743e-5033-a35a-0d1e6d036811-attr-2-name" class="er entityLabel">pgv-File</text><rect height="22" width="84.953125" y="68.18359470367432" x="0" class="er attributeBoxOdd"/><text style="dominant-baseline: middle; font-size: 10.2px;" transform="translate(5,79.18359470367432)" y="0" x="0" id="text-entity-SoftwareRelease-3ac27bfa-743e-5033-a35a-0d1e6d036811-attr-3-type" class="er entityLabel">Base-Calibration</text><rect height="22" width="46.390625" y="68.18359470367432" x="84.953125" class="er attributeBoxOdd"/><text style="dominant-baseline: middle; font-size: 10.2px;" transform="translate(89.953125,79.18359470367432)" y="0" x="0" id="text-entity-SoftwareRelease-3ac27bfa-743e-5033-a35a-0d1e6d036811-attr-3-name" class="er entityLabel">dtv-File</text></g><g transform="translate(678.32421875,254.275390625 )" id="entity-VCU-0ec8b1bb-4c16-5557-a3f9-0c79499f06b5"><rect height="134.36718845367432" width="156.9375" y="0" x="0" class="er entityBox"/><text style="dominant-baseline: middle; text-anchor: middle; font-size: 12px;" transform="translate(78.46875,12)" y="0" x="0" id="text-entity-VCU-0ec8b1bb-4c16-5557-a3f9-0c79499f06b5" class="er entityLabel">VCU</text><rect height="22.091796875" width="102.765625" y="24" x="0" class="er attributeBoxOdd"/><text style="dominant-baseline: middle; font-size: 10.2px;" transform="translate(5,35.0458984375)" y="0" x="0" id="text-entity-VCU-0ec8b1bb-4c16-5557-a3f9-0c79499f06b5-attr-1-type" class="er entityLabel">Type</text><rect height="22.091796875" width="54.171875" y="24" x="102.765625" class="er attributeBoxOdd"/><text style="dominant-baseline: middle; font-size: 10.2px;" transform="translate(107.765625,35.0458984375)" y="0" x="0" id="text-entity-VCU-0ec8b1bb-4c16-5557-a3f9-0c79499f06b5-attr-1-name" class="er entityLabel">Hardware</text><rect height="22.091797828674316" width="102.765625" y="46.091796875" x="0" class="er attributeBoxEven"/><text style="dominant-baseline: middle; font-size: 10.2px;" transform="translate(5,57.13769578933716)" y="0" x="0" id="text-entity-VCU-0ec8b1bb-4c16-5557-a3f9-0c79499f06b5-attr-2-type" class="er entityLabel">Executable</text><rect height="22.091797828674316" width="54.171875" y="46.091796875" x="102.765625" class="er attributeBoxEven"/><text style="dominant-baseline: middle; font-size: 10.2px;" transform="translate(107.765625,57.13769578933716)" y="0" x="0" id="text-entity-VCU-0ec8b1bb-4c16-5557-a3f9-0c79499f06b5-attr-2-name" class="er entityLabel">pgv-File</text><rect height="22" width="102.765625" y="68.18359470367432" x="0" class="er attributeBoxOdd"/><text style="dominant-baseline: middle; font-size: 10.2px;" transform="translate(5,79.18359470367432)" y="0" x="0" id="text-entity-VCU-0ec8b1bb-4c16-5557-a3f9-0c79499f06b5-attr-3-type" class="er entityLabel">Base-Calibration</text><rect height="22" width="54.171875" y="68.18359470367432" x="102.765625" class="er attributeBoxOdd"/><text style="dominant-baseline: middle; font-size: 10.2px;" transform="translate(107.765625,79.18359470367432)" y="0" x="0" id="text-entity-VCU-0ec8b1bb-4c16-5557-a3f9-0c79499f06b5-attr-3-name" class="er entityLabel">dtv-File</text><rect height="22.091796875" width="102.765625" y="90.18359470367432" x="0" class="er attributeBoxEven"/><text style="dominant-baseline: middle; font-size: 10.2px;" transform="translate(5,101.22949314117432)" y="0" x="0" id="text-entity-VCU-0ec8b1bb-4c16-5557-a3f9-0c79499f06b5-attr-4-type" class="er entityLabel">Calibration-Updates</text><rect height="22.091796875" width="54.171875" y="90.18359470367432" x="102.765625" class="er attributeBoxEven"/><text style="dominant-baseline: middle; font-size: 10.2px;" transform="translate(107.765625,101.22949314117432)" y="0" x="0" id="text-entity-VCU-0ec8b1bb-4c16-5557-a3f9-0c79499f06b5-attr-4-name" class="er entityLabel">m-Files</text><rect height="22.091796875" width="102.765625" y="112.27539157867432" x="0" class="er attributeBoxOdd"/><text style="dominant-baseline: middle; font-size: 10.2px;" transform="translate(5,123.32129001617432)" y="0" x="0" id="text-entity-VCU-0ec8b1bb-4c16-5557-a3f9-0c79499f06b5-attr-5-type" class="er entityLabel">Updated-Calibration</text><rect height="22.091796875" width="54.171875" y="112.27539157867432" x="102.765625" class="er attributeBoxOdd"/><text style="dominant-baseline: middle; font-size: 10.2px;" transform="translate(107.765625,123.32129001617432)" y="0" x="0" id="text-entity-VCU-0ec8b1bb-4c16-5557-a3f9-0c79499f06b5-attr-5-name" class="er entityLabel">dtv-File</text></g><g transform="translate(441.02734375,287.4130859375 )" id="entity-CalibrationUpdates-fd6a1cb2-71cb-5269-8943-b73a13165c46"><rect height="68.091796875" width="137.296875" y="0" x="0" class="er entityBox"/><text style="dominant-baseline: middle; text-anchor: middle; font-size: 12px;" transform="translate(68.6484375,12)" y="0" x="0" id="text-entity-CalibrationUpdates-fd6a1cb2-71cb-5269-8943-b73a13165c46" class="er entityLabel">Calibration-Updates</text><rect height="22.091796875" width="68.390625" y="24" x="0" class="er attributeBoxOdd"/><text style="dominant-baseline: middle; font-size: 10.2px;" transform="translate(5,35.0458984375)" y="0" x="0" id="text-entity-CalibrationUpdates-fd6a1cb2-71cb-5269-8943-b73a13165c46-attr-1-type" class="er entityLabel">Type</text><rect height="22.091796875" width="68.90625" y="24" x="68.390625" class="er attributeBoxOdd"/><text style="dominant-baseline: middle; font-size: 10.2px;" transform="translate(73.390625,35.0458984375)" y="0" x="0" id="text-entity-CalibrationUpdates-fd6a1cb2-71cb-5269-8943-b73a13165c46-attr-1-name" class="er entityLabel">Data</text><rect height="22" width="68.390625" y="46.091796875" x="0" class="er attributeBoxEven"/><text style="dominant-baseline: middle; font-size: 10.2px;" transform="translate(5,57.091796875)" y="0" x="0" id="text-entity-CalibrationUpdates-fd6a1cb2-71cb-5269-8943-b73a13165c46-attr-2-type" class="er entityLabel">Format</text><rect height="22" width="68.90625" y="46.091796875" x="68.390625" class="er attributeBoxEven"/><text style="dominant-baseline: middle; font-size: 10.2px;" transform="translate(73.390625,57.091796875)" y="0" x="0" id="text-entity-CalibrationUpdates-fd6a1cb2-71cb-5269-8943-b73a13165c46-attr-2-name" class="er entityLabel">m-Files</text></g><g transform="translate(20,20 )" id="entity-SoftwareDeveloper-499120f3-2b5a-55c8-8bf8-8b9733ebbd11"><rect height="134.27539157867432" width="136.453125" y="0" x="0" class="er entityBox"/><text style="dominant-baseline: middle; text-anchor: middle; font-size: 12px;" transform="translate(68.2265625,12)" y="0" x="0" id="text-entity-SoftwareDeveloper-499120f3-2b5a-55c8-8bf8-8b9733ebbd11" class="er entityLabel">Software-Developer</text><rect height="22.091796875" width="42.2734375" y="24" x="0" class="er attributeBoxOdd"/><text style="dominant-baseline: middle; font-size: 10.2px;" transform="translate(5,35.0458984375)" y="0" x="0" id="text-entity-SoftwareDeveloper-499120f3-2b5a-55c8-8bf8-8b9733ebbd11-attr-1-type" class="er entityLabel">Type</text><rect height="22.091796875" width="94.1796875" y="24" x="42.2734375" class="er attributeBoxOdd"/><text style="dominant-baseline: middle; font-size: 10.2px;" transform="translate(47.2734375,35.0458984375)" y="0" x="0" id="text-entity-SoftwareDeveloper-499120f3-2b5a-55c8-8bf8-8b9733ebbd11-attr-1-name" class="er entityLabel">Actor</text><rect height="22" width="42.2734375" y="46.091796875" x="0" class="er attributeBoxEven"/><text style="dominant-baseline: middle; font-size: 10.2px;" transform="translate(5,57.091796875)" y="0" x="0" id="text-entity-SoftwareDeveloper-499120f3-2b5a-55c8-8bf8-8b9733ebbd11-attr-2-type" class="er entityLabel">Uses</text><rect height="22" width="94.1796875" y="46.091796875" x="42.2734375" class="er attributeBoxEven"/><text style="dominant-baseline: middle; font-size: 10.2px;" transform="translate(47.2734375,57.091796875)" y="0" x="0" id="text-entity-SoftwareDeveloper-499120f3-2b5a-55c8-8bf8-8b9733ebbd11-attr-2-name" class="er entityLabel">Matlab-Simulink</text><rect height="22.091796875" width="42.2734375" y="68.091796875" x="0" class="er attributeBoxOdd"/><text style="dominant-baseline: middle; font-size: 10.2px;" transform="translate(5,79.1376953125)" y="0" x="0" id="text-entity-SoftwareDeveloper-499120f3-2b5a-55c8-8bf8-8b9733ebbd11-attr-3-type" class="er entityLabel">Uses</text><rect height="22.091796875" width="94.1796875" y="68.091796875" x="42.2734375" class="er attributeBoxOdd"/><text style="dominant-baseline: middle; font-size: 10.2px;" transform="translate(47.2734375,79.1376953125)" y="0" x="0" id="text-entity-SoftwareDeveloper-499120f3-2b5a-55c8-8bf8-8b9733ebbd11-attr-3-name" class="er entityLabel">System-Monitor</text><rect height="22" width="42.2734375" y="90.18359375" x="0" class="er attributeBoxEven"/><text style="dominant-baseline: middle; font-size: 10.2px;" transform="translate(5,101.18359375)" y="0" x="0" id="text-entity-SoftwareDeveloper-499120f3-2b5a-55c8-8bf8-8b9733ebbd11-attr-4-type" class="er entityLabel">Uses</text><rect height="22" width="94.1796875" y="90.18359375" x="42.2734375" class="er attributeBoxEven"/><text style="dominant-baseline: middle; font-size: 10.2px;" transform="translate(47.2734375,101.18359375)" y="0" x="0" id="text-entity-SoftwareDeveloper-499120f3-2b5a-55c8-8bf8-8b9733ebbd11-attr-4-name" class="er entityLabel">Gitlab</text><rect height="22.091797828674316" width="42.2734375" y="112.18359375" x="0" class="er attributeBoxOdd"/><text style="dominant-baseline: middle; font-size: 10.2px;" transform="translate(5,123.22949266433716)" y="0" x="0" id="text-entity-SoftwareDeveloper-499120f3-2b5a-55c8-8bf8-8b9733ebbd11-attr-5-type" class="er entityLabel">Uses</text><rect height="22.091797828674316" width="94.1796875" y="112.18359375" x="42.2734375" class="er attributeBoxOdd"/><text style="dominant-baseline: middle; font-size: 10.2px;" transform="translate(47.2734375,123.22949266433716)" y="0" x="0" id="text-entity-SoftwareDeveloper-499120f3-2b5a-55c8-8bf8-8b9733ebbd11-attr-5-name" class="er entityLabel">DevOps</text></g><g transform="translate(267.84375,42.091796875 )" id="entity-PerformanceEngineer-58ad164d-b799-5a37-8529-c7dda06a1eec"><rect height="90.091796875" width="149.34375" y="0" x="0" class="er entityBox"/><text style="dominant-baseline: middle; text-anchor: middle; font-size: 12px;" transform="translate(74.671875,12)" y="0" x="0" id="text-entity-PerformanceEngineer-58ad164d-b799-5a37-8529-c7dda06a1eec" class="er entityLabel">Performance-Engineer</text><rect height="22.091796875" width="34.84375" y="24" x="0" class="er attributeBoxOdd"/><text style="dominant-baseline: middle; font-size: 10.2px;" transform="translate(5,35.0458984375)" y="0" x="0" id="text-entity-PerformanceEngineer-58ad164d-b799-5a37-8529-c7dda06a1eec-attr-1-type" class="er entityLabel">Type</text><rect height="22.091796875" width="114.5" y="24" x="34.84375" class="er attributeBoxOdd"/><text style="dominant-baseline: middle; font-size: 10.2px;" transform="translate(39.84375,35.0458984375)" y="0" x="0" id="text-entity-PerformanceEngineer-58ad164d-b799-5a37-8529-c7dda06a1eec-attr-1-name" class="er entityLabel">Actor</text><rect height="22" width="34.84375" y="46.091796875" x="0" class="er attributeBoxEven"/><text style="dominant-baseline: middle; font-size: 10.2px;" transform="translate(5,57.091796875)" y="0" x="0" id="text-entity-PerformanceEngineer-58ad164d-b799-5a37-8529-c7dda06a1eec-attr-2-type" class="er entityLabel">Uses</text><rect height="22" width="114.5" y="46.091796875" x="34.84375" class="er attributeBoxEven"/><text style="dominant-baseline: middle; font-size: 10.2px;" transform="translate(39.84375,57.091796875)" y="0" x="0" id="text-entity-PerformanceEngineer-58ad164d-b799-5a37-8529-c7dda06a1eec-attr-2-name" class="er entityLabel">Shared-Drive</text><rect height="22" width="34.84375" y="68.091796875" x="0" class="er attributeBoxOdd"/><text style="dominant-baseline: middle; font-size: 10.2px;" transform="translate(5,79.091796875)" y="0" x="0" id="text-entity-PerformanceEngineer-58ad164d-b799-5a37-8529-c7dda06a1eec-attr-3-type" class="er entityLabel">Uses</text><rect height="22" width="114.5" y="68.091796875" x="34.84375" class="er attributeBoxOdd"/><text style="dominant-baseline: middle; font-size: 10.2px;" transform="translate(39.84375,79.091796875)" y="0" x="0" id="text-entity-PerformanceEngineer-58ad164d-b799-5a37-8529-c7dda06a1eec-attr-3-name" class="er entityLabel">Excel-Calibration-Tool</text></g><g transform="translate(573.75,42.0458984375 )" id="entity-SystemEngineer-fd5f967d-ef53-5332-acd6-e702b8f8d43c"><rect height="90.18359375" width="118.96875" y="0" x="0" class="er entityBox"/><text style="dominant-baseline: middle; text-anchor: middle; font-size: 12px;" transform="translate(59.484375,12)" y="0" x="0" id="text-entity-SystemEngineer-fd5f967d-ef53-5332-acd6-e702b8f8d43c" class="er entityLabel">System-Engineer</text><rect height="22.091796875" width="34.71875" y="24" x="0" class="er attributeBoxOdd"/><text style="dominant-baseline: middle; font-size: 10.2px;" transform="translate(5,35.0458984375)" y="0" x="0" id="text-entity-SystemEngineer-fd5f967d-ef53-5332-acd6-e702b8f8d43c-attr-1-type" class="er entityLabel">Type</text><rect height="22.091796875" width="84.25" y="24" x="34.71875" class="er attributeBoxOdd"/><text style="dominant-baseline: middle; font-size: 10.2px;" transform="translate(39.71875,35.0458984375)" y="0" x="0" id="text-entity-SystemEngineer-fd5f967d-ef53-5332-acd6-e702b8f8d43c-attr-1-name" class="er entityLabel">Actor</text><rect height="22" width="34.71875" y="46.091796875" x="0" class="er attributeBoxEven"/><text style="dominant-baseline: middle; font-size: 10.2px;" transform="translate(5,57.091796875)" y="0" x="0" id="text-entity-SystemEngineer-fd5f967d-ef53-5332-acd6-e702b8f8d43c-attr-2-type" class="er entityLabel">Uses</text><rect height="22" width="84.25" y="46.091796875" x="34.71875" class="er attributeBoxEven"/><text style="dominant-baseline: middle; font-size: 10.2px;" transform="translate(39.71875,57.091796875)" y="0" x="0" id="text-entity-SystemEngineer-fd5f967d-ef53-5332-acd6-e702b8f8d43c-attr-2-name" class="er entityLabel">Shared-Drive</text><rect height="22.091796875" width="34.71875" y="68.091796875" x="0" class="er attributeBoxOdd"/><text style="dominant-baseline: middle; font-size: 10.2px;" transform="translate(5,79.1376953125)" y="0" x="0" id="text-entity-SystemEngineer-fd5f967d-ef53-5332-acd6-e702b8f8d43c-attr-3-type" class="er entityLabel">Uses</text><rect height="22.091796875" width="84.25" y="68.091796875" x="34.71875" class="er attributeBoxOdd"/><text style="dominant-baseline: middle; font-size: 10.2px;" transform="translate(39.71875,79.1376953125)" y="0" x="0" id="text-entity-SystemEngineer-fd5f967d-ef53-5332-acd6-e702b8f8d43c-attr-3-name" class="er entityLabel">System-Monitor</text></g><rect height="14" width="39.625" y="216.78005981445312" x="94.48129272460938" class="er relationshipLabelBox"/><text style="text-anchor: middle; dominant-baseline: middle; font-size: 12px;" y="223.78005981445312" x="114.29379272460938" id="rel1" class="er relationshipLabel">creates</text><rect height="14" width="44.40625" y="193.60968017578125" x="243.9453125" class="er relationshipLabelBox"/><text style="text-anchor: middle; dominant-baseline: middle; font-size: 12px;" y="200.60968017578125" x="266.1484375" id="rel2" class="er relationshipLabel">receives</text><rect height="14" width="39.625" y="195.94561767578125" x="431.52374267578125" class="er relationshipLabelBox"/><text style="text-anchor: middle; dominant-baseline: middle; font-size: 12px;" y="202.94561767578125" x="451.33624267578125" id="rel3" class="er relationshipLabel">creates</text><rect height="14" width="44.40625" y="175.43942260742188" x="394.9554138183594" class="er relationshipLabelBox"/><text style="text-anchor: middle; dominant-baseline: middle; font-size: 12px;" y="182.43942260742188" x="417.1585388183594" id="rel4" class="er relationshipLabel">receives</text><rect height="38" width="47.859375" y="175.84274291992188" x="656.5274658203125" class="er relationshipLabelBox"/><text style="text-anchor: middle; dominant-baseline: middle; font-size: 12px;" y="194.84274291992188" x="680.4571533203125" id="rel5" class="er relationshipLabel"><tspan dy="-1em" x="680.4571533203125">Upload</tspan><tspan dy="1em" x="680.4571533203125">Software</tspan><tspan dy="1em" x="680.4571533203125">Release</tspan></text><rect height="38" width="59.28125" y="159.5709991455078" x="734.090576171875" class="er relationshipLabelBox"/><text style="text-anchor: middle; dominant-baseline: middle; font-size: 12px;" y="178.5709991455078" x="763.731201171875" id="rel6" class="er relationshipLabel"><tspan dy="-1em" x="763.731201171875">Upload</tspan><tspan dy="1em" x="763.731201171875">Calibration</tspan><tspan dy="1em" x="763.731201171875">Updates</tspan></text><rect height="14" width="44.40625" y="204.93988037109375" x="554.3087158203125" class="er relationshipLabelBox"/><text style="text-anchor: middle; dominant-baseline: middle; font-size: 12px;" y="211.93988037109375" x="576.5118408203125" id="rel7" class="er relationshipLabel">receives</text><text class="entityTitleText" y="-25" x="427.630859375" text-anchor="middle">Software- and Calibration-Update of a VCU</text></svg>