<svg aria-roledescription="er" role="graphics-document document" viewBox="0 0 199.546875 452.458984375" style="max-width: 199.547px; background-color: white;" xmlns:xlink="http://www.w3.org/1999/xlink" xmlns="http://www.w3.org/2000/svg" width="100%" id="my-svg"><style>#my-svg{font-family:"trebuchet ms",verdana,arial,sans-serif;font-size:16px;fill:#333;}#my-svg .error-icon{fill:#552222;}#my-svg .error-text{fill:#552222;stroke:#552222;}#my-svg .edge-thickness-normal{stroke-width:1px;}#my-svg .edge-thickness-thick{stroke-width:3.5px;}#my-svg .edge-pattern-solid{stroke-dasharray:0;}#my-svg .edge-thickness-invisible{stroke-width:0;fill:none;}#my-svg .edge-pattern-dashed{stroke-dasharray:3;}#my-svg .edge-pattern-dotted{stroke-dasharray:2;}#my-svg .marker{fill:#333333;stroke:#333333;}#my-svg .marker.cross{stroke:#333333;}#my-svg svg{font-family:"trebuchet ms",verdana,arial,sans-serif;font-size:16px;}#my-svg p{margin:0;}#my-svg .entityBox{fill:#ECECFF;stroke:#9370DB;}#my-svg .attributeBoxOdd{fill:#ffffff;stroke:#9370DB;}#my-svg .attributeBoxEven{fill:#f2f2f2;stroke:#9370DB;}#my-svg .relationshipLabelBox{fill:hsl(80, 100%, 96.2745098039%);opacity:0.7;background-color:hsl(80, 100%, 96.2745098039%);}#my-svg .relationshipLabelBox rect{opacity:0.5;}#my-svg .relationshipLine{stroke:#333333;}#my-svg .entityTitleText{text-anchor:middle;font-size:18px;fill:#333;}#my-svg #MD_PARENT_START{fill:#f5f5f5!important;stroke:#333333!important;stroke-width:1;}#my-svg #MD_PARENT_END{fill:#f5f5f5!important;stroke:#333333!important;stroke-width:1;}#my-svg :root{--mermaid-font-family:"trebuchet ms",verdana,arial,sans-serif;}</style><g/><defs><marker orient="auto" markerHeight="240" markerWidth="190" refY="7" refX="0" id="MD_PARENT_START"><path d="M 18,7 L9,13 L1,7 L9,1 Z"/></marker></defs><defs><marker orient="auto" markerHeight="28" markerWidth="20" refY="7" refX="19" id="MD_PARENT_END"><path d="M 18,7 L9,13 L1,7 L9,1 Z"/></marker></defs><defs><marker orient="auto" markerHeight="18" markerWidth="18" refY="9" refX="0" id="ONLY_ONE_START"><path d="M9,0 L9,18 M15,0 L15,18" fill="none" stroke="gray"/></marker></defs><defs><marker orient="auto" markerHeight="18" markerWidth="18" refY="9" refX="18" id="ONLY_ONE_END"><path d="M3,0 L3,18 M9,0 L9,18" fill="none" stroke="gray"/></marker></defs><defs><marker orient="auto" markerHeight="18" markerWidth="30" refY="9" refX="0" id="ZERO_OR_ONE_START"><circle r="6" cy="9" cx="21" fill="white" stroke="gray"/><path d="M9,0 L9,18" fill="none" stroke="gray"/></marker></defs><defs><marker orient="auto" markerHeight="18" markerWidth="30" refY="9" refX="30" id="ZERO_OR_ONE_END"><circle r="6" cy="9" cx="9" fill="white" stroke="gray"/><path d="M21,0 L21,18" fill="none" stroke="gray"/></marker></defs><defs><marker orient="auto" markerHeight="36" markerWidth="45" refY="18" refX="18" id="ONE_OR_MORE_START"><path d="M0,18 Q 18,0 36,18 Q 18,36 0,18 M42,9 L42,27" fill="none" stroke="gray"/></marker></defs><defs><marker orient="auto" markerHeight="36" markerWidth="45" refY="18" refX="27" id="ONE_OR_MORE_END"><path d="M3,9 L3,27 M9,18 Q27,0 45,18 Q27,36 9,18" fill="none" stroke="gray"/></marker></defs><defs><marker orient="auto" markerHeight="36" markerWidth="57" refY="18" refX="18" id="ZERO_OR_MORE_START"><circle r="6" cy="18" cx="48" fill="white" stroke="gray"/><path d="M0,18 Q18,0 36,18 Q18,36 0,18" fill="none" stroke="gray"/></marker></defs><defs><marker orient="auto" markerHeight="36" markerWidth="57" refY="18" refX="39" id="ZERO_OR_MORE_END"><circle r="6" cy="18" cx="9" fill="white" stroke="gray"/><path d="M21,18 Q39,0 57,18 Q39,36 21,18" fill="none" stroke="gray"/></marker></defs><path style="stroke: gray; fill: none;" marker-start="url(#ZERO_OR_MORE_START)" marker-end="url(#ONLY_ONE_END)" d="M99.773,132.184L99.773,140.517C99.773,148.85,99.773,165.517,99.773,182.184C99.773,198.85,99.773,215.517,99.773,223.85L99.773,232.184" class="er relationshipLine"/><g transform="translate(20,232.18359375 )" id="entity-account-fcf9ab90-c354-56d4-af42-ca147676f678"><rect height="200.275390625" width="159.546875" y="0" x="0" class="er entityBox"/><text style="dominant-baseline: middle; text-anchor: middle; font-size: 12px;" transform="translate(79.7734375,12)" y="0" x="0" id="text-entity-account-fcf9ab90-c354-56d4-af42-ca147676f678" class="er entityLabel">account</text><rect height="22.091796875" width="59.984375" y="24" x="0" class="er attributeBoxOdd"/><text style="dominant-baseline: middle; font-size: 10.2px;" transform="translate(5,35.0458984375)" y="0" x="0" id="text-entity-account-fcf9ab90-c354-56d4-af42-ca147676f678-attr-1-type" class="er entityLabel">bigint</text><rect height="22.091796875" width="78" y="24" x="59.984375" class="er attributeBoxOdd"/><text style="dominant-baseline: middle; font-size: 10.2px;" transform="translate(64.984375,35.0458984375)" y="0" x="0" id="text-entity-account-fcf9ab90-c354-56d4-af42-ca147676f678-attr-1-name" class="er entityLabel">id</text><rect height="22.091796875" width="21.5625" y="24" x="137.984375" class="er attributeBoxOdd"/><text style="dominant-baseline: middle; font-size: 10.2px;" transform="translate(142.984375,35.0458984375)" y="0" x="0" id="text-entity-account-fcf9ab90-c354-56d4-af42-ca147676f678-attr-1-key" class="er entityLabel">PK</text><rect height="22" width="59.984375" y="46.091796875" x="0" class="er attributeBoxEven"/><text style="dominant-baseline: middle; font-size: 10.2px;" transform="translate(5,57.091796875)" y="0" x="0" id="text-entity-account-fcf9ab90-c354-56d4-af42-ca147676f678-attr-2-type" class="er entityLabel">varchar</text><rect height="22" width="78" y="46.091796875" x="59.984375" class="er attributeBoxEven"/><text style="dominant-baseline: middle; font-size: 10.2px;" transform="translate(64.984375,57.091796875)" y="0" x="0" id="text-entity-account-fcf9ab90-c354-56d4-af42-ca147676f678-attr-2-name" class="er entityLabel">username</text><rect height="22" width="21.5625" y="46.091796875" x="137.984375" class="er attributeBoxEven"/><text style="dominant-baseline: middle; font-size: 10.2px;" transform="translate(142.984375,57.091796875)" y="0" x="0" id="text-entity-account-fcf9ab90-c354-56d4-af42-ca147676f678-attr-2-key" class="er entityLabel"/><rect height="22.091796875" width="59.984375" y="68.091796875" x="0" class="er attributeBoxOdd"/><text style="dominant-baseline: middle; font-size: 10.2px;" transform="translate(5,79.1376953125)" y="0" x="0" id="text-entity-account-fcf9ab90-c354-56d4-af42-ca147676f678-attr-3-type" class="er entityLabel">varchar</text><rect height="22.091796875" width="78" y="68.091796875" x="59.984375" class="er attributeBoxOdd"/><text style="dominant-baseline: middle; font-size: 10.2px;" transform="translate(64.984375,79.1376953125)" y="0" x="0" id="text-entity-account-fcf9ab90-c354-56d4-af42-ca147676f678-attr-3-name" class="er entityLabel">password_hash</text><rect height="22.091796875" width="21.5625" y="68.091796875" x="137.984375" class="er attributeBoxOdd"/><text style="dominant-baseline: middle; font-size: 10.2px;" transform="translate(142.984375,79.1376953125)" y="0" x="0" id="text-entity-account-fcf9ab90-c354-56d4-af42-ca147676f678-attr-3-key" class="er entityLabel"/><rect height="22.091796875" width="59.984375" y="90.18359375" x="0" class="er attributeBoxEven"/><text style="dominant-baseline: middle; font-size: 10.2px;" transform="translate(5,101.2294921875)" y="0" x="0" id="text-entity-account-fcf9ab90-c354-56d4-af42-ca147676f678-attr-4-type" class="er entityLabel">varchar</text><rect height="22.091796875" width="78" y="90.18359375" x="59.984375" class="er attributeBoxEven"/><text style="dominant-baseline: middle; font-size: 10.2px;" transform="translate(64.984375,101.2294921875)" y="0" x="0" id="text-entity-account-fcf9ab90-c354-56d4-af42-ca147676f678-attr-4-name" class="er entityLabel">display_name</text><rect height="22.091796875" width="21.5625" y="90.18359375" x="137.984375" class="er attributeBoxEven"/><text style="dominant-baseline: middle; font-size: 10.2px;" transform="translate(142.984375,101.2294921875)" y="0" x="0" id="text-entity-account-fcf9ab90-c354-56d4-af42-ca147676f678-attr-4-key" class="er entityLabel"/><rect height="22" width="59.984375" y="112.275390625" x="0" class="er attributeBoxOdd"/><text style="dominant-baseline: middle; font-size: 10.2px;" transform="translate(5,123.275390625)" y="0" x="0" id="text-entity-account-fcf9ab90-c354-56d4-af42-ca147676f678-attr-5-type" class="er entityLabel">text</text><rect height="22" width="78" y="112.275390625" x="59.984375" class="er attributeBoxOdd"/><text style="dominant-baseline: middle; font-size: 10.2px;" transform="translate(64.984375,123.275390625)" y="0" x="0" id="text-entity-account-fcf9ab90-c354-56d4-af42-ca147676f678-attr-5-name" class="er entityLabel">avatar</text><rect height="22" width="21.5625" y="112.275390625" x="137.984375" class="er attributeBoxOdd"/><text style="dominant-baseline: middle; font-size: 10.2px;" transform="translate(142.984375,123.275390625)" y="0" x="0" id="text-entity-account-fcf9ab90-c354-56d4-af42-ca147676f678-attr-5-key" class="er entityLabel"/><rect height="22" width="59.984375" y="134.275390625" x="0" class="er attributeBoxEven"/><text style="dominant-baseline: middle; font-size: 10.2px;" transform="translate(5,145.275390625)" y="0" x="0" id="text-entity-account-fcf9ab90-c354-56d4-af42-ca147676f678-attr-6-type" class="er entityLabel">text</text><rect height="22" width="78" y="134.275390625" x="59.984375" class="er attributeBoxEven"/><text style="dominant-baseline: middle; font-size: 10.2px;" transform="translate(64.984375,145.275390625)" y="0" x="0" id="text-entity-account-fcf9ab90-c354-56d4-af42-ca147676f678-attr-6-name" class="er entityLabel">header</text><rect height="22" width="21.5625" y="134.275390625" x="137.984375" class="er attributeBoxEven"/><text style="dominant-baseline: middle; font-size: 10.2px;" transform="translate(142.984375,145.275390625)" y="0" x="0" id="text-entity-account-fcf9ab90-c354-56d4-af42-ca147676f678-attr-6-key" class="er entityLabel"/><rect height="22" width="59.984375" y="156.275390625" x="0" class="er attributeBoxOdd"/><text style="dominant-baseline: middle; font-size: 10.2px;" transform="translate(5,167.275390625)" y="0" x="0" id="text-entity-account-fcf9ab90-c354-56d4-af42-ca147676f678-attr-7-type" class="er entityLabel">text</text><rect height="22" width="78" y="156.275390625" x="59.984375" class="er attributeBoxOdd"/><text style="dominant-baseline: middle; font-size: 10.2px;" transform="translate(64.984375,167.275390625)" y="0" x="0" id="text-entity-account-fcf9ab90-c354-56d4-af42-ca147676f678-attr-7-name" class="er entityLabel">note</text><rect height="22" width="21.5625" y="156.275390625" x="137.984375" class="er attributeBoxOdd"/><text style="dominant-baseline: middle; font-size: 10.2px;" transform="translate(142.984375,167.275390625)" y="0" x="0" id="text-entity-account-fcf9ab90-c354-56d4-af42-ca147676f678-attr-7-key" class="er entityLabel"/><rect height="22" width="59.984375" y="178.275390625" x="0" class="er attributeBoxEven"/><text style="dominant-baseline: middle; font-size: 10.2px;" transform="translate(5,189.275390625)" y="0" x="0" id="text-entity-account-fcf9ab90-c354-56d4-af42-ca147676f678-attr-8-type" class="er entityLabel">created_at</text><rect height="22" width="78" y="178.275390625" x="59.984375" class="er attributeBoxEven"/><text style="dominant-baseline: middle; font-size: 10.2px;" transform="translate(64.984375,189.275390625)" y="0" x="0" id="text-entity-account-fcf9ab90-c354-56d4-af42-ca147676f678-attr-8-name" class="er entityLabel">datetime</text><rect height="22" width="21.5625" y="178.275390625" x="137.984375" class="er attributeBoxEven"/><text style="dominant-baseline: middle; font-size: 10.2px;" transform="translate(142.984375,189.275390625)" y="0" x="0" id="text-entity-account-fcf9ab90-c354-56d4-af42-ca147676f678-attr-8-key" class="er entityLabel"/></g><g transform="translate(28.9609375,20 )" id="entity-status-3a93d909-c50f-5400-94e9-d6a6a7141509"><rect height="112.18359375" width="141.625" y="0" x="0" class="er entityBox"/><text style="dominant-baseline: middle; text-anchor: middle; font-size: 12px;" transform="translate(70.8125,12)" y="0" x="0" id="text-entity-status-3a93d909-c50f-5400-94e9-d6a6a7141509" class="er entityLabel">status</text><rect height="22.091796875" width="59.984375" y="24" x="0" class="er attributeBoxOdd"/><text style="dominant-baseline: middle; font-size: 10.2px;" transform="translate(5,35.0458984375)" y="0" x="0" id="text-entity-status-3a93d909-c50f-5400-94e9-d6a6a7141509-attr-1-type" class="er entityLabel">bigint</text><rect height="22.091796875" width="60.078125" y="24" x="59.984375" class="er attributeBoxOdd"/><text style="dominant-baseline: middle; font-size: 10.2px;" transform="translate(64.984375,35.0458984375)" y="0" x="0" id="text-entity-status-3a93d909-c50f-5400-94e9-d6a6a7141509-attr-1-name" class="er entityLabel">id</text><rect height="22.091796875" width="21.5625" y="24" x="120.0625" class="er attributeBoxOdd"/><text style="dominant-baseline: middle; font-size: 10.2px;" transform="translate(125.0625,35.0458984375)" y="0" x="0" id="text-entity-status-3a93d909-c50f-5400-94e9-d6a6a7141509-attr-1-key" class="er entityLabel">PK</text><rect height="22.091796875" width="59.984375" y="46.091796875" x="0" class="er attributeBoxEven"/><text style="dominant-baseline: middle; font-size: 10.2px;" transform="translate(5,57.1376953125)" y="0" x="0" id="text-entity-status-3a93d909-c50f-5400-94e9-d6a6a7141509-attr-2-type" class="er entityLabel">bigint</text><rect height="22.091796875" width="60.078125" y="46.091796875" x="59.984375" class="er attributeBoxEven"/><text style="dominant-baseline: middle; font-size: 10.2px;" transform="translate(64.984375,57.1376953125)" y="0" x="0" id="text-entity-status-3a93d909-c50f-5400-94e9-d6a6a7141509-attr-2-name" class="er entityLabel">account_id</text><rect height="22.091796875" width="21.5625" y="46.091796875" x="120.0625" class="er attributeBoxEven"/><text style="dominant-baseline: middle; font-size: 10.2px;" transform="translate(125.0625,57.1376953125)" y="0" x="0" id="text-entity-status-3a93d909-c50f-5400-94e9-d6a6a7141509-attr-2-key" class="er entityLabel">FK</text><rect height="22" width="59.984375" y="68.18359375" x="0" class="er attributeBoxOdd"/><text style="dominant-baseline: middle; font-size: 10.2px;" transform="translate(5,79.18359375)" y="0" x="0" id="text-entity-status-3a93d909-c50f-5400-94e9-d6a6a7141509-attr-3-type" class="er entityLabel">text</text><rect height="22" width="60.078125" y="68.18359375" x="59.984375" class="er attributeBoxOdd"/><text style="dominant-baseline: middle; font-size: 10.2px;" transform="translate(64.984375,79.18359375)" y="0" x="0" id="text-entity-status-3a93d909-c50f-5400-94e9-d6a6a7141509-attr-3-name" class="er entityLabel">content</text><rect height="22" width="21.5625" y="68.18359375" x="120.0625" class="er attributeBoxOdd"/><text style="dominant-baseline: middle; font-size: 10.2px;" transform="translate(125.0625,79.18359375)" y="0" x="0" id="text-entity-status-3a93d909-c50f-5400-94e9-d6a6a7141509-attr-3-key" class="er entityLabel"/><rect height="22" width="59.984375" y="90.18359375" x="0" class="er attributeBoxEven"/><text style="dominant-baseline: middle; font-size: 10.2px;" transform="translate(5,101.18359375)" y="0" x="0" id="text-entity-status-3a93d909-c50f-5400-94e9-d6a6a7141509-attr-4-type" class="er entityLabel">created_at</text><rect height="22" width="60.078125" y="90.18359375" x="59.984375" class="er attributeBoxEven"/><text style="dominant-baseline: middle; font-size: 10.2px;" transform="translate(64.984375,101.18359375)" y="0" x="0" id="text-entity-status-3a93d909-c50f-5400-94e9-d6a6a7141509-attr-4-name" class="er entityLabel">datetime</text><rect height="22" width="21.5625" y="90.18359375" x="120.0625" class="er attributeBoxEven"/><text style="dominant-baseline: middle; font-size: 10.2px;" transform="translate(125.0625,101.18359375)" y="0" x="0" id="text-entity-status-3a93d909-c50f-5400-94e9-d6a6a7141509-attr-4-key" class="er entityLabel"/></g><rect height="14" width="17.71875" y="175.1840057373047" x="90.91362762451172" class="er relationshipLabelBox"/><text style="text-anchor: middle; dominant-baseline: middle; font-size: 12px;" y="182.1840057373047" x="99.77300262451172" id="rel1" class="er relationshipLabel">has</text></svg>