<svg aria-roledescription="er" role="graphics-document document" viewBox="0 0 951.1875 290" style="max-width: 951.188px; background-color: white;" xmlns:xlink="http://www.w3.org/1999/xlink" xmlns="http://www.w3.org/2000/svg" width="100%" id="my-svg"><style>#my-svg{font-family:"trebuchet ms",verdana,arial,sans-serif;font-size:16px;fill:#333;}#my-svg .error-icon{fill:#552222;}#my-svg .error-text{fill:#552222;stroke:#552222;}#my-svg .edge-thickness-normal{stroke-width:1px;}#my-svg .edge-thickness-thick{stroke-width:3.5px;}#my-svg .edge-pattern-solid{stroke-dasharray:0;}#my-svg .edge-thickness-invisible{stroke-width:0;fill:none;}#my-svg .edge-pattern-dashed{stroke-dasharray:3;}#my-svg .edge-pattern-dotted{stroke-dasharray:2;}#my-svg .marker{fill:#333333;stroke:#333333;}#my-svg .marker.cross{stroke:#333333;}#my-svg svg{font-family:"trebuchet ms",verdana,arial,sans-serif;font-size:16px;}#my-svg p{margin:0;}#my-svg .entityBox{fill:#ECECFF;stroke:#9370DB;}#my-svg .attributeBoxOdd{fill:#ffffff;stroke:#9370DB;}#my-svg .attributeBoxEven{fill:#f2f2f2;stroke:#9370DB;}#my-svg .relationshipLabelBox{fill:hsl(80, 100%, 96.2745098039%);opacity:0.7;background-color:hsl(80, 100%, 96.2745098039%);}#my-svg .relationshipLabelBox rect{opacity:0.5;}#my-svg .relationshipLine{stroke:#333333;}#my-svg .entityTitleText{text-anchor:middle;font-size:18px;fill:#333;}#my-svg #MD_PARENT_START{fill:#f5f5f5!important;stroke:#333333!important;stroke-width:1;}#my-svg #MD_PARENT_END{fill:#f5f5f5!important;stroke:#333333!important;stroke-width:1;}#my-svg :root{--mermaid-font-family:"trebuchet ms",verdana,arial,sans-serif;}</style><g/><defs><marker orient="auto" markerHeight="240" markerWidth="190" refY="7" refX="0" id="MD_PARENT_START"><path d="M 18,7 L9,13 L1,7 L9,1 Z"/></marker></defs><defs><marker orient="auto" markerHeight="28" markerWidth="20" refY="7" refX="19" id="MD_PARENT_END"><path d="M 18,7 L9,13 L1,7 L9,1 Z"/></marker></defs><defs><marker orient="auto" markerHeight="18" markerWidth="18" refY="9" refX="0" id="ONLY_ONE_START"><path d="M9,0 L9,18 M15,0 L15,18" fill="none" stroke="gray"/></marker></defs><defs><marker orient="auto" markerHeight="18" markerWidth="18" refY="9" refX="18" id="ONLY_ONE_END"><path d="M3,0 L3,18 M9,0 L9,18" fill="none" stroke="gray"/></marker></defs><defs><marker orient="auto" markerHeight="18" markerWidth="30" refY="9" refX="0" id="ZERO_OR_ONE_START"><circle r="6" cy="9" cx="21" fill="white" stroke="gray"/><path d="M9,0 L9,18" fill="none" stroke="gray"/></marker></defs><defs><marker orient="auto" markerHeight="18" markerWidth="30" refY="9" refX="30" id="ZERO_OR_ONE_END"><circle r="6" cy="9" cx="9" fill="white" stroke="gray"/><path d="M21,0 L21,18" fill="none" stroke="gray"/></marker></defs><defs><marker orient="auto" markerHeight="36" markerWidth="45" refY="18" refX="18" id="ONE_OR_MORE_START"><path d="M0,18 Q 18,0 36,18 Q 18,36 0,18 M42,9 L42,27" fill="none" stroke="gray"/></marker></defs><defs><marker orient="auto" markerHeight="36" markerWidth="45" refY="18" refX="27" id="ONE_OR_MORE_END"><path d="M3,9 L3,27 M9,18 Q27,0 45,18 Q27,36 9,18" fill="none" stroke="gray"/></marker></defs><defs><marker orient="auto" markerHeight="36" markerWidth="57" refY="18" refX="18" id="ZERO_OR_MORE_START"><circle r="6" cy="18" cx="48" fill="white" stroke="gray"/><path d="M0,18 Q18,0 36,18 Q18,36 0,18" fill="none" stroke="gray"/></marker></defs><defs><marker orient="auto" markerHeight="36" markerWidth="57" refY="18" refX="39" id="ZERO_OR_MORE_END"><circle r="6" cy="18" cx="9" fill="white" stroke="gray"/><path d="M21,18 Q39,0 57,18 Q39,36 21,18" fill="none" stroke="gray"/></marker></defs><path style="stroke: gray; fill: none;" marker-start="url(#ONLY_ONE_START)" marker-end="url(#ONLY_ONE_END)" d="M420,68.438L361.667,81.198C303.333,93.958,186.667,119.479,128.333,140.573C70,161.667,70,178.333,70,186.667L70,195" class="er relationshipLine"/><path style="stroke: gray; fill: none;" marker-start="url(#ONLY_ONE_START)" marker-end="url(#ONLY_ONE_END)" d="M420,79.375L395,90.313C370,101.25,320,123.125,295,142.396C270,161.667,270,178.333,270,186.667L270,195" class="er relationshipLine"/><path style="stroke: gray; fill: none;" marker-start="url(#ZERO_OR_MORE_START)" marker-end="url(#ONLY_ONE_END)" d="M470,95L470,103.333C470,111.667,470,128.333,470,145C470,161.667,470,178.333,470,186.667L470,195" class="er relationshipLine"/><path style="stroke: gray; fill: none;" marker-start="url(#ONLY_ONE_START)" marker-end="url(#ZERO_OR_MORE_END)" d="M520,79.375L545,90.313C570,101.25,620,123.125,645,142.396C670,161.667,670,178.333,670,186.667L670,195" class="er relationshipLine"/><path style="stroke: gray; fill: none;" marker-start="url(#ONLY_ONE_START)" marker-end="url(#ZERO_OR_MORE_END)" d="M520,68.287L579.266,81.072C638.531,93.858,757.063,119.429,816.328,140.548C875.594,161.667,875.594,178.333,875.594,186.667L875.594,195" class="er relationshipLine"/><g transform="translate(420,20 )" id="entity-EVENT-12434316-4a87-5800-981a-68e9670d1fb3"><rect height="75" width="100" y="0" x="0" class="er entityBox"/><text style="dominant-baseline: middle; text-anchor: middle; font-size: 12px;" transform="translate(50,37.5)" y="0" x="0" id="text-entity-EVENT-12434316-4a87-5800-981a-68e9670d1fb3" class="er entityLabel">EVENT</text></g><g transform="translate(20,195 )" id="entity-DATE-9a42c8cd-48bd-5df0-946c-f8c2ddcfb82c"><rect height="75" width="100" y="0" x="0" class="er entityBox"/><text style="dominant-baseline: middle; text-anchor: middle; font-size: 12px;" transform="translate(50,37.5)" y="0" x="0" id="text-entity-DATE-9a42c8cd-48bd-5df0-946c-f8c2ddcfb82c" class="er entityLabel">DATE</text></g><g transform="translate(220,195 )" id="entity-STATE-f21d4411-6890-5d4b-861f-d8466c631260"><rect height="75" width="100" y="0" x="0" class="er entityBox"/><text style="dominant-baseline: middle; text-anchor: middle; font-size: 12px;" transform="translate(50,37.5)" y="0" x="0" id="text-entity-STATE-f21d4411-6890-5d4b-861f-d8466c631260" class="er entityLabel">STATE</text></g><g transform="translate(420,195 )" id="entity-TYPE-c1d6f0ba-99e2-5f0e-9246-d99eaeb98283"><rect height="75" width="100" y="0" x="0" class="er entityBox"/><text style="dominant-baseline: middle; text-anchor: middle; font-size: 12px;" transform="translate(50,37.5)" y="0" x="0" id="text-entity-TYPE-c1d6f0ba-99e2-5f0e-9246-d99eaeb98283" class="er entityLabel">TYPE</text></g><g transform="translate(620,195 )" id="entity-PASTEVENT-593b26e3-b020-5bae-b311-d76f2af15309"><rect height="75" width="100" y="0" x="0" class="er entityBox"/><text style="dominant-baseline: middle; text-anchor: middle; font-size: 12px;" transform="translate(50,37.5)" y="0" x="0" id="text-entity-PASTEVENT-593b26e3-b020-5bae-b311-d76f2af15309" class="er entityLabel">PAST-EVENT</text></g><g transform="translate(820,195 )" id="entity-FUTUREEVENT-23fdca5d-0ea2-557b-94bf-71cf9f173230"><rect height="75" width="111.1875" y="0" x="0" class="er entityBox"/><text style="dominant-baseline: middle; text-anchor: middle; font-size: 12px;" transform="translate(55.59375,37.5)" y="0" x="0" id="text-entity-FUTUREEVENT-23fdca5d-0ea2-557b-94bf-71cf9f173230" class="er entityLabel">FUTURE-EVENT</text></g><rect height="14" width="58.875" y="104.22093963623047" x="201.45513916015625" class="er relationshipLabelBox"/><text style="text-anchor: middle; dominant-baseline: middle; font-size: 12px;" y="111.22093963623047" x="230.89263916015625" id="rel1" class="er relationshipLabel">happens at</text><rect height="14" width="45.78125" y="114.6567153930664" x="305.6437072753906" class="er relationshipLabelBox"/><text style="text-anchor: middle; dominant-baseline: middle; font-size: 12px;" y="121.6567153930664" x="328.5343322753906" id="rel2" class="er relationshipLabel">modifies</text><rect height="14" width="27.640625" y="138" x="456.1796875" class="er relationshipLabelBox"/><text style="text-anchor: middle; dominant-baseline: middle; font-size: 12px;" y="145" x="470" id="rel3" class="er relationshipLabel">has a</text><rect height="14" width="18.203125" y="114.65753936767578" x="602.3637084960938" class="er relationshipLabelBox"/><text style="text-anchor: middle; dominant-baseline: middle; font-size: 12px;" y="121.65753936767578" x="611.4652709960938" id="rel4" class="er relationshipLabel">is a</text><rect height="14" width="18.203125" y="104.08154296875" x="702.7407836914062" class="er relationshipLabelBox"/><text style="text-anchor: middle; dominant-baseline: middle; font-size: 12px;" y="111.08154296875" x="711.8423461914062" id="rel5" class="er relationshipLabel">is a</text></svg>