<svg aria-roledescription="er" role="graphics-document document" viewBox="0 0 364.984375 576.734375" style="max-width: 364.984px; background-color: white;" xmlns:xlink="http://www.w3.org/1999/xlink" xmlns="http://www.w3.org/2000/svg" width="100%" id="my-svg"><style>#my-svg{font-family:"trebuchet ms",verdana,arial,sans-serif;font-size:16px;fill:#333;}#my-svg .error-icon{fill:#552222;}#my-svg .error-text{fill:#552222;stroke:#552222;}#my-svg .edge-thickness-normal{stroke-width:1px;}#my-svg .edge-thickness-thick{stroke-width:3.5px;}#my-svg .edge-pattern-solid{stroke-dasharray:0;}#my-svg .edge-thickness-invisible{stroke-width:0;fill:none;}#my-svg .edge-pattern-dashed{stroke-dasharray:3;}#my-svg .edge-pattern-dotted{stroke-dasharray:2;}#my-svg .marker{fill:#333333;stroke:#333333;}#my-svg .marker.cross{stroke:#333333;}#my-svg svg{font-family:"trebuchet ms",verdana,arial,sans-serif;font-size:16px;}#my-svg p{margin:0;}#my-svg .entityBox{fill:#ECECFF;stroke:#9370DB;}#my-svg .attributeBoxOdd{fill:#ffffff;stroke:#9370DB;}#my-svg .attributeBoxEven{fill:#f2f2f2;stroke:#9370DB;}#my-svg .relationshipLabelBox{fill:hsl(80, 100%, 96.2745098039%);opacity:0.7;background-color:hsl(80, 100%, 96.2745098039%);}#my-svg .relationshipLabelBox rect{opacity:0.5;}#my-svg .relationshipLine{stroke:#333333;}#my-svg .entityTitleText{text-anchor:middle;font-size:18px;fill:#333;}#my-svg #MD_PARENT_START{fill:#f5f5f5!important;stroke:#333333!important;stroke-width:1;}#my-svg #MD_PARENT_END{fill:#f5f5f5!important;stroke:#333333!important;stroke-width:1;}#my-svg :root{--mermaid-font-family:"trebuchet ms",verdana,arial,sans-serif;}</style><g/><defs><marker orient="auto" markerHeight="240" markerWidth="190" refY="7" refX="0" id="MD_PARENT_START"><path d="M 18,7 L9,13 L1,7 L9,1 Z"/></marker></defs><defs><marker orient="auto" markerHeight="28" markerWidth="20" refY="7" refX="19" id="MD_PARENT_END"><path d="M 18,7 L9,13 L1,7 L9,1 Z"/></marker></defs><defs><marker orient="auto" markerHeight="18" markerWidth="18" refY="9" refX="0" id="ONLY_ONE_START"><path d="M9,0 L9,18 M15,0 L15,18" fill="none" stroke="gray"/></marker></defs><defs><marker orient="auto" markerHeight="18" markerWidth="18" refY="9" refX="18" id="ONLY_ONE_END"><path d="M3,0 L3,18 M9,0 L9,18" fill="none" stroke="gray"/></marker></defs><defs><marker orient="auto" markerHeight="18" markerWidth="30" refY="9" refX="0" id="ZERO_OR_ONE_START"><circle r="6" cy="9" cx="21" fill="white" stroke="gray"/><path d="M9,0 L9,18" fill="none" stroke="gray"/></marker></defs><defs><marker orient="auto" markerHeight="18" markerWidth="30" refY="9" refX="30" id="ZERO_OR_ONE_END"><circle r="6" cy="9" cx="9" fill="white" stroke="gray"/><path d="M21,0 L21,18" fill="none" stroke="gray"/></marker></defs><defs><marker orient="auto" markerHeight="36" markerWidth="45" refY="18" refX="18" id="ONE_OR_MORE_START"><path d="M0,18 Q 18,0 36,18 Q 18,36 0,18 M42,9 L42,27" fill="none" stroke="gray"/></marker></defs><defs><marker orient="auto" markerHeight="36" markerWidth="45" refY="18" refX="27" id="ONE_OR_MORE_END"><path d="M3,9 L3,27 M9,18 Q27,0 45,18 Q27,36 9,18" fill="none" stroke="gray"/></marker></defs><defs><marker orient="auto" markerHeight="36" markerWidth="57" refY="18" refX="18" id="ZERO_OR_MORE_START"><circle r="6" cy="18" cx="48" fill="white" stroke="gray"/><path d="M0,18 Q18,0 36,18 Q18,36 0,18" fill="none" stroke="gray"/></marker></defs><defs><marker orient="auto" markerHeight="36" markerWidth="57" refY="18" refX="39" id="ZERO_OR_MORE_END"><circle r="6" cy="18" cx="9" fill="white" stroke="gray"/><path d="M21,18 Q39,0 57,18 Q39,36 21,18" fill="none" stroke="gray"/></marker></defs><path style="stroke: gray; fill: none;" marker-start="url(#ONLY_ONE_START)" marker-end="url(#ZERO_OR_MORE_END)" d="M185.84,344.459L185.84,352.792C185.84,361.126,185.84,377.792,185.84,394.459C185.84,411.126,185.84,427.792,185.84,436.126L185.84,444.459" class="er relationshipLine"/><path style="stroke: gray; fill: none;" marker-start="url(#ONLY_ONE_START)" marker-end="url(#ZERO_OR_MORE_END)" d="M79.594,121.275L79.594,131.442C79.594,141.609,79.594,161.942,87.939,180.442C96.285,198.942,112.976,215.609,121.321,223.942L129.666,232.275" class="er relationshipLine"/><path style="stroke: gray; fill: none;" marker-start="url(#ONLY_ONE_START)" marker-end="url(#ZERO_OR_MORE_END)" d="M292.086,132.275L292.086,140.609C292.086,148.942,292.086,165.609,283.74,182.275C275.395,198.942,258.704,215.609,250.359,223.942L242.013,232.275" class="er relationshipLine"/><g transform="translate(109.53515625,232.275390625 )" id="entity-EVENT-12434316-4a87-5800-981a-68e9670d1fb3"><rect height="112.18359565734863" width="152.609375" y="0" x="0" class="er entityBox"/><text style="dominant-baseline: middle; text-anchor: middle; font-size: 12px;" transform="translate(76.3046875,12)" y="0" x="0" id="text-entity-EVENT-12434316-4a87-5800-981a-68e9670d1fb3" class="er entityLabel">EVENT</text><rect height="22" width="51.640625" y="24" x="0" class="er attributeBoxOdd"/><text style="dominant-baseline: middle; font-size: 10.2px;" transform="translate(5,35)" y="0" x="0" id="text-entity-EVENT-12434316-4a87-5800-981a-68e9670d1fb3-attr-1-type" class="er entityLabel">int</text><rect height="22" width="79.40625" y="24" x="51.640625" class="er attributeBoxOdd"/><text style="dominant-baseline: middle; font-size: 10.2px;" transform="translate(56.640625,35)" y="0" x="0" id="text-entity-EVENT-12434316-4a87-5800-981a-68e9670d1fb3-attr-1-name" class="er entityLabel">eventID</text><rect height="22" width="21.5625" y="24" x="131.046875" class="er attributeBoxOdd"/><text style="dominant-baseline: middle; font-size: 10.2px;" transform="translate(136.046875,35)" y="0" x="0" id="text-entity-EVENT-12434316-4a87-5800-981a-68e9670d1fb3-attr-1-key" class="er entityLabel">PK</text><rect height="22.091797828674316" width="51.640625" y="46" x="0" class="er attributeBoxEven"/><text style="dominant-baseline: middle; font-size: 10.2px;" transform="translate(5,57.04589891433716)" y="0" x="0" id="text-entity-EVENT-12434316-4a87-5800-981a-68e9670d1fb3-attr-2-type" class="er entityLabel">string</text><rect height="22.091797828674316" width="79.40625" y="46" x="51.640625" class="er attributeBoxEven"/><text style="dominant-baseline: middle; font-size: 10.2px;" transform="translate(56.640625,57.04589891433716)" y="0" x="0" id="text-entity-EVENT-12434316-4a87-5800-981a-68e9670d1fb3-attr-2-name" class="er entityLabel">eventName</text><rect height="22.091797828674316" width="21.5625" y="46" x="131.046875" class="er attributeBoxEven"/><text style="dominant-baseline: middle; font-size: 10.2px;" transform="translate(136.046875,57.04589891433716)" y="0" x="0" id="text-entity-EVENT-12434316-4a87-5800-981a-68e9670d1fb3-attr-2-key" class="er entityLabel"/><rect height="22" width="51.640625" y="68.09179782867432" x="0" class="er attributeBoxOdd"/><text style="dominant-baseline: middle; font-size: 10.2px;" transform="translate(5,79.09179782867432)" y="0" x="0" id="text-entity-EVENT-12434316-4a87-5800-981a-68e9670d1fb3-attr-3-type" class="er entityLabel">datetime</text><rect height="22" width="79.40625" y="68.09179782867432" x="51.640625" class="er attributeBoxOdd"/><text style="dominant-baseline: middle; font-size: 10.2px;" transform="translate(56.640625,79.09179782867432)" y="0" x="0" id="text-entity-EVENT-12434316-4a87-5800-981a-68e9670d1fb3-attr-3-name" class="er entityLabel">eventDateTime</text><rect height="22" width="21.5625" y="68.09179782867432" x="131.046875" class="er attributeBoxOdd"/><text style="dominant-baseline: middle; font-size: 10.2px;" transform="translate(136.046875,79.09179782867432)" y="0" x="0" id="text-entity-EVENT-12434316-4a87-5800-981a-68e9670d1fb3-attr-3-key" class="er entityLabel"/><rect height="22.091797828674316" width="51.640625" y="90.09179782867432" x="0" class="er attributeBoxEven"/><text style="dominant-baseline: middle; font-size: 10.2px;" transform="translate(5,101.13769674301147)" y="0" x="0" id="text-entity-EVENT-12434316-4a87-5800-981a-68e9670d1fb3-attr-4-type" class="er entityLabel">string</text><rect height="22.091797828674316" width="79.40625" y="90.09179782867432" x="51.640625" class="er attributeBoxEven"/><text style="dominant-baseline: middle; font-size: 10.2px;" transform="translate(56.640625,101.13769674301147)" y="0" x="0" id="text-entity-EVENT-12434316-4a87-5800-981a-68e9670d1fb3-attr-4-name" class="er entityLabel">location</text><rect height="22.091797828674316" width="21.5625" y="90.09179782867432" x="131.046875" class="er attributeBoxEven"/><text style="dominant-baseline: middle; font-size: 10.2px;" transform="translate(136.046875,101.13769674301147)" y="0" x="0" id="text-entity-EVENT-12434316-4a87-5800-981a-68e9670d1fb3-attr-4-key" class="er entityLabel"/></g><g transform="translate(123.87890625,444.458984375 )" id="entity-ATTENDEE-6012d286-4177-5353-b87f-cb063c2e7c8d"><rect height="112.27539348602295" width="123.921875" y="0" x="0" class="er entityBox"/><text style="dominant-baseline: middle; text-anchor: middle; font-size: 12px;" transform="translate(61.9609375,12)" y="0" x="0" id="text-entity-ATTENDEE-6012d286-4177-5353-b87f-cb063c2e7c8d" class="er entityLabel">ATTENDEE</text><rect height="22" width="35.75" y="24" x="0" class="er attributeBoxOdd"/><text style="dominant-baseline: middle; font-size: 10.2px;" transform="translate(5,35)" y="0" x="0" id="text-entity-ATTENDEE-6012d286-4177-5353-b87f-cb063c2e7c8d-attr-1-type" class="er entityLabel">int</text><rect height="22" width="66.609375" y="24" x="35.75" class="er attributeBoxOdd"/><text style="dominant-baseline: middle; font-size: 10.2px;" transform="translate(40.75,35)" y="0" x="0" id="text-entity-ATTENDEE-6012d286-4177-5353-b87f-cb063c2e7c8d-attr-1-name" class="er entityLabel">attendeeID</text><rect height="22" width="21.5625" y="24" x="102.359375" class="er attributeBoxOdd"/><text style="dominant-baseline: middle; font-size: 10.2px;" transform="translate(107.359375,35)" y="0" x="0" id="text-entity-ATTENDEE-6012d286-4177-5353-b87f-cb063c2e7c8d-attr-1-key" class="er entityLabel">PK</text><rect height="22.091797828674316" width="35.75" y="46" x="0" class="er attributeBoxEven"/><text style="dominant-baseline: middle; font-size: 10.2px;" transform="translate(5,57.04589891433716)" y="0" x="0" id="text-entity-ATTENDEE-6012d286-4177-5353-b87f-cb063c2e7c8d-attr-2-type" class="er entityLabel">string</text><rect height="22.091797828674316" width="66.609375" y="46" x="35.75" class="er attributeBoxEven"/><text style="dominant-baseline: middle; font-size: 10.2px;" transform="translate(40.75,57.04589891433716)" y="0" x="0" id="text-entity-ATTENDEE-6012d286-4177-5353-b87f-cb063c2e7c8d-attr-2-name" class="er entityLabel">name</text><rect height="22.091797828674316" width="21.5625" y="46" x="102.359375" class="er attributeBoxEven"/><text style="dominant-baseline: middle; font-size: 10.2px;" transform="translate(107.359375,57.04589891433716)" y="0" x="0" id="text-entity-ATTENDEE-6012d286-4177-5353-b87f-cb063c2e7c8d-attr-2-key" class="er entityLabel"/><rect height="22.091797828674316" width="35.75" y="68.09179782867432" x="0" class="er attributeBoxOdd"/><text style="dominant-baseline: middle; font-size: 10.2px;" transform="translate(5,79.13769674301147)" y="0" x="0" id="text-entity-ATTENDEE-6012d286-4177-5353-b87f-cb063c2e7c8d-attr-3-type" class="er entityLabel">string</text><rect height="22.091797828674316" width="66.609375" y="68.09179782867432" x="35.75" class="er attributeBoxOdd"/><text style="dominant-baseline: middle; font-size: 10.2px;" transform="translate(40.75,79.13769674301147)" y="0" x="0" id="text-entity-ATTENDEE-6012d286-4177-5353-b87f-cb063c2e7c8d-attr-3-name" class="er entityLabel">email</text><rect height="22.091797828674316" width="21.5625" y="68.09179782867432" x="102.359375" class="er attributeBoxOdd"/><text style="dominant-baseline: middle; font-size: 10.2px;" transform="translate(107.359375,79.13769674301147)" y="0" x="0" id="text-entity-ATTENDEE-6012d286-4177-5353-b87f-cb063c2e7c8d-attr-3-key" class="er entityLabel"/><rect height="22.091797828674316" width="35.75" y="90.18359565734863" x="0" class="er attributeBoxEven"/><text style="dominant-baseline: middle; font-size: 10.2px;" transform="translate(5,101.22949457168579)" y="0" x="0" id="text-entity-ATTENDEE-6012d286-4177-5353-b87f-cb063c2e7c8d-attr-4-type" class="er entityLabel">string</text><rect height="22.091797828674316" width="66.609375" y="90.18359565734863" x="35.75" class="er attributeBoxEven"/><text style="dominant-baseline: middle; font-size: 10.2px;" transform="translate(40.75,101.22949457168579)" y="0" x="0" id="text-entity-ATTENDEE-6012d286-4177-5353-b87f-cb063c2e7c8d-attr-4-name" class="er entityLabel">organization</text><rect height="22.091797828674316" width="21.5625" y="90.18359565734863" x="102.359375" class="er attributeBoxEven"/><text style="dominant-baseline: middle; font-size: 10.2px;" transform="translate(107.359375,101.22949457168579)" y="0" x="0" id="text-entity-ATTENDEE-6012d286-4177-5353-b87f-cb063c2e7c8d-attr-4-key" class="er entityLabel"/></g><g transform="translate(20,31 )" id="entity-ORGANIZER-c989f131-009b-5f54-bc9e-0b541e158449"><rect height="90.27539348602295" width="119.1875" y="0" x="0" class="er entityBox"/><text style="dominant-baseline: middle; text-anchor: middle; font-size: 12px;" transform="translate(59.59375,12)" y="0" x="0" id="text-entity-ORGANIZER-c989f131-009b-5f54-bc9e-0b541e158449" class="er entityLabel">ORGANIZER</text><rect height="22.091797828674316" width="35.75" y="24" x="0" class="er attributeBoxOdd"/><text style="dominant-baseline: middle; font-size: 10.2px;" transform="translate(5,35.04589891433716)" y="0" x="0" id="text-entity-ORGANIZER-c989f131-009b-5f54-bc9e-0b541e158449-attr-1-type" class="er entityLabel">int</text><rect height="22.091797828674316" width="61.875" y="24" x="35.75" class="er attributeBoxOdd"/><text style="dominant-baseline: middle; font-size: 10.2px;" transform="translate(40.75,35.04589891433716)" y="0" x="0" id="text-entity-ORGANIZER-c989f131-009b-5f54-bc9e-0b541e158449-attr-1-name" class="er entityLabel">organizerID</text><rect height="22.091797828674316" width="21.5625" y="24" x="97.625" class="er attributeBoxOdd"/><text style="dominant-baseline: middle; font-size: 10.2px;" transform="translate(102.625,35.04589891433716)" y="0" x="0" id="text-entity-ORGANIZER-c989f131-009b-5f54-bc9e-0b541e158449-attr-1-key" class="er entityLabel">PK</text><rect height="22.091797828674316" width="35.75" y="46.091797828674316" x="0" class="er attributeBoxEven"/><text style="dominant-baseline: middle; font-size: 10.2px;" transform="translate(5,57.137696743011475)" y="0" x="0" id="text-entity-ORGANIZER-c989f131-009b-5f54-bc9e-0b541e158449-attr-2-type" class="er entityLabel">string</text><rect height="22.091797828674316" width="61.875" y="46.091797828674316" x="35.75" class="er attributeBoxEven"/><text style="dominant-baseline: middle; font-size: 10.2px;" transform="translate(40.75,57.137696743011475)" y="0" x="0" id="text-entity-ORGANIZER-c989f131-009b-5f54-bc9e-0b541e158449-attr-2-name" class="er entityLabel">name</text><rect height="22.091797828674316" width="21.5625" y="46.091797828674316" x="97.625" class="er attributeBoxEven"/><text style="dominant-baseline: middle; font-size: 10.2px;" transform="translate(102.625,57.137696743011475)" y="0" x="0" id="text-entity-ORGANIZER-c989f131-009b-5f54-bc9e-0b541e158449-attr-2-key" class="er entityLabel"/><rect height="22.091797828674316" width="35.75" y="68.18359565734863" x="0" class="er attributeBoxOdd"/><text style="dominant-baseline: middle; font-size: 10.2px;" transform="translate(5,79.22949457168579)" y="0" x="0" id="text-entity-ORGANIZER-c989f131-009b-5f54-bc9e-0b541e158449-attr-3-type" class="er entityLabel">string</text><rect height="22.091797828674316" width="61.875" y="68.18359565734863" x="35.75" class="er attributeBoxOdd"/><text style="dominant-baseline: middle; font-size: 10.2px;" transform="translate(40.75,79.22949457168579)" y="0" x="0" id="text-entity-ORGANIZER-c989f131-009b-5f54-bc9e-0b541e158449-attr-3-name" class="er entityLabel">company</text><rect height="22.091797828674316" width="21.5625" y="68.18359565734863" x="97.625" class="er attributeBoxOdd"/><text style="dominant-baseline: middle; font-size: 10.2px;" transform="translate(102.625,79.22949457168579)" y="0" x="0" id="text-entity-ORGANIZER-c989f131-009b-5f54-bc9e-0b541e158449-attr-3-key" class="er entityLabel"/></g><g transform="translate(239.1875,20 )" id="entity-VENUE-4b9301ab-73c0-5f41-b2c2-2f413c92ad96"><rect height="112.27539348602295" width="105.796875" y="0" x="0" class="er entityBox"/><text style="dominant-baseline: middle; text-anchor: middle; font-size: 12px;" transform="translate(52.8984375,12)" y="0" x="0" id="text-entity-VENUE-4b9301ab-73c0-5f41-b2c2-2f413c92ad96" class="er entityLabel">VENUE</text><rect height="22" width="35.75" y="24" x="0" class="er attributeBoxOdd"/><text style="dominant-baseline: middle; font-size: 10.2px;" transform="translate(5,35)" y="0" x="0" id="text-entity-VENUE-4b9301ab-73c0-5f41-b2c2-2f413c92ad96-attr-1-type" class="er entityLabel">int</text><rect height="22" width="48.484375" y="24" x="35.75" class="er attributeBoxOdd"/><text style="dominant-baseline: middle; font-size: 10.2px;" transform="translate(40.75,35)" y="0" x="0" id="text-entity-VENUE-4b9301ab-73c0-5f41-b2c2-2f413c92ad96-attr-1-name" class="er entityLabel">venueID</text><rect height="22" width="21.5625" y="24" x="84.234375" class="er attributeBoxOdd"/><text style="dominant-baseline: middle; font-size: 10.2px;" transform="translate(89.234375,35)" y="0" x="0" id="text-entity-VENUE-4b9301ab-73c0-5f41-b2c2-2f413c92ad96-attr-1-key" class="er entityLabel">PK</text><rect height="22.091797828674316" width="35.75" y="46" x="0" class="er attributeBoxEven"/><text style="dominant-baseline: middle; font-size: 10.2px;" transform="translate(5,57.04589891433716)" y="0" x="0" id="text-entity-VENUE-4b9301ab-73c0-5f41-b2c2-2f413c92ad96-attr-2-type" class="er entityLabel">string</text><rect height="22.091797828674316" width="48.484375" y="46" x="35.75" class="er attributeBoxEven"/><text style="dominant-baseline: middle; font-size: 10.2px;" transform="translate(40.75,57.04589891433716)" y="0" x="0" id="text-entity-VENUE-4b9301ab-73c0-5f41-b2c2-2f413c92ad96-attr-2-name" class="er entityLabel">name</text><rect height="22.091797828674316" width="21.5625" y="46" x="84.234375" class="er attributeBoxEven"/><text style="dominant-baseline: middle; font-size: 10.2px;" transform="translate(89.234375,57.04589891433716)" y="0" x="0" id="text-entity-VENUE-4b9301ab-73c0-5f41-b2c2-2f413c92ad96-attr-2-key" class="er entityLabel"/><rect height="22.091797828674316" width="35.75" y="68.09179782867432" x="0" class="er attributeBoxOdd"/><text style="dominant-baseline: middle; font-size: 10.2px;" transform="translate(5,79.13769674301147)" y="0" x="0" id="text-entity-VENUE-4b9301ab-73c0-5f41-b2c2-2f413c92ad96-attr-3-type" class="er entityLabel">string</text><rect height="22.091797828674316" width="48.484375" y="68.09179782867432" x="35.75" class="er attributeBoxOdd"/><text style="dominant-baseline: middle; font-size: 10.2px;" transform="translate(40.75,79.13769674301147)" y="0" x="0" id="text-entity-VENUE-4b9301ab-73c0-5f41-b2c2-2f413c92ad96-attr-3-name" class="er entityLabel">location</text><rect height="22.091797828674316" width="21.5625" y="68.09179782867432" x="84.234375" class="er attributeBoxOdd"/><text style="dominant-baseline: middle; font-size: 10.2px;" transform="translate(89.234375,79.13769674301147)" y="0" x="0" id="text-entity-VENUE-4b9301ab-73c0-5f41-b2c2-2f413c92ad96-attr-3-key" class="er entityLabel"/><rect height="22.091797828674316" width="35.75" y="90.18359565734863" x="0" class="er attributeBoxEven"/><text style="dominant-baseline: middle; font-size: 10.2px;" transform="translate(5,101.22949457168579)" y="0" x="0" id="text-entity-VENUE-4b9301ab-73c0-5f41-b2c2-2f413c92ad96-attr-4-type" class="er entityLabel">int</text><rect height="22.091797828674316" width="48.484375" y="90.18359565734863" x="35.75" class="er attributeBoxEven"/><text style="dominant-baseline: middle; font-size: 10.2px;" transform="translate(40.75,101.22949457168579)" y="0" x="0" id="text-entity-VENUE-4b9301ab-73c0-5f41-b2c2-2f413c92ad96-attr-4-name" class="er entityLabel">capacity</text><rect height="22.091797828674316" width="21.5625" y="90.18359565734863" x="84.234375" class="er attributeBoxEven"/><text style="dominant-baseline: middle; font-size: 10.2px;" transform="translate(89.234375,101.22949457168579)" y="0" x="0" id="text-entity-VENUE-4b9301ab-73c0-5f41-b2c2-2f413c92ad96-attr-4-key" class="er entityLabel"/></g><rect height="14" width="27.46875" y="387.4590148925781" x="172.10562133789062" class="er relationshipLabelBox"/><text style="text-anchor: middle; dominant-baseline: middle; font-size: 12px;" y="394.4590148925781" x="185.83999633789062" id="rel1" class="er relationshipLabel">hosts</text><rect height="14" width="50.515625" y="176.4463653564453" x="64.11593627929688" class="er relationshipLabelBox"/><text style="text-anchor: middle; dominant-baseline: middle; font-size: 12px;" y="183.4463653564453" x="89.37374877929688" id="rel2" class="er relationshipLabel">organizes</text><rect height="14" width="27.46875" y="181.45252990722656" x="266.55206298828125" class="er relationshipLabelBox"/><text style="text-anchor: middle; dominant-baseline: middle; font-size: 12px;" y="188.45252990722656" x="280.28643798828125" id="rel3" class="er relationshipLabel">hosts</text></svg>