<svg aria-roledescription="er" role="graphics-document document" viewBox="0 -62 1348.60546875 352" style="max-width: 1348.61px; background-color: white;" xmlns:xlink="http://www.w3.org/1999/xlink" xmlns="http://www.w3.org/2000/svg" width="100%" id="my-svg"><style>#my-svg{font-family:"trebuchet ms",verdana,arial,sans-serif;font-size:16px;fill:#333;}#my-svg .error-icon{fill:#552222;}#my-svg .error-text{fill:#552222;stroke:#552222;}#my-svg .edge-thickness-normal{stroke-width:1px;}#my-svg .edge-thickness-thick{stroke-width:3.5px;}#my-svg .edge-pattern-solid{stroke-dasharray:0;}#my-svg .edge-thickness-invisible{stroke-width:0;fill:none;}#my-svg .edge-pattern-dashed{stroke-dasharray:3;}#my-svg .edge-pattern-dotted{stroke-dasharray:2;}#my-svg .marker{fill:#333333;stroke:#333333;}#my-svg .marker.cross{stroke:#333333;}#my-svg svg{font-family:"trebuchet ms",verdana,arial,sans-serif;font-size:16px;}#my-svg p{margin:0;}#my-svg .entityBox{fill:#ECECFF;stroke:#9370DB;}#my-svg .attributeBoxOdd{fill:#ffffff;stroke:#9370DB;}#my-svg .attributeBoxEven{fill:#f2f2f2;stroke:#9370DB;}#my-svg .relationshipLabelBox{fill:hsl(80, 100%, 96.2745098039%);opacity:0.7;background-color:hsl(80, 100%, 96.2745098039%);}#my-svg .relationshipLabelBox rect{opacity:0.5;}#my-svg .relationshipLine{stroke:#333333;}#my-svg .entityTitleText{text-anchor:middle;font-size:18px;fill:#333;}#my-svg #MD_PARENT_START{fill:#f5f5f5!important;stroke:#333333!important;stroke-width:1;}#my-svg #MD_PARENT_END{fill:#f5f5f5!important;stroke:#333333!important;stroke-width:1;}#my-svg :root{--mermaid-font-family:"trebuchet ms",verdana,arial,sans-serif;}</style><g/><defs><marker orient="auto" markerHeight="240" markerWidth="190" refY="7" refX="0" id="MD_PARENT_START"><path d="M 18,7 L9,13 L1,7 L9,1 Z"/></marker></defs><defs><marker orient="auto" markerHeight="28" markerWidth="20" refY="7" refX="19" id="MD_PARENT_END"><path d="M 18,7 L9,13 L1,7 L9,1 Z"/></marker></defs><defs><marker orient="auto" markerHeight="18" markerWidth="18" refY="9" refX="0" id="ONLY_ONE_START"><path d="M9,0 L9,18 M15,0 L15,18" fill="none" stroke="gray"/></marker></defs><defs><marker orient="auto" markerHeight="18" markerWidth="18" refY="9" refX="18" id="ONLY_ONE_END"><path d="M3,0 L3,18 M9,0 L9,18" fill="none" stroke="gray"/></marker></defs><defs><marker orient="auto" markerHeight="18" markerWidth="30" refY="9" refX="0" id="ZERO_OR_ONE_START"><circle r="6" cy="9" cx="21" fill="white" stroke="gray"/><path d="M9,0 L9,18" fill="none" stroke="gray"/></marker></defs><defs><marker orient="auto" markerHeight="18" markerWidth="30" refY="9" refX="30" id="ZERO_OR_ONE_END"><circle r="6" cy="9" cx="9" fill="white" stroke="gray"/><path d="M21,0 L21,18" fill="none" stroke="gray"/></marker></defs><defs><marker orient="auto" markerHeight="36" markerWidth="45" refY="18" refX="18" id="ONE_OR_MORE_START"><path d="M0,18 Q 18,0 36,18 Q 18,36 0,18 M42,9 L42,27" fill="none" stroke="gray"/></marker></defs><defs><marker orient="auto" markerHeight="36" markerWidth="45" refY="18" refX="27" id="ONE_OR_MORE_END"><path d="M3,9 L3,27 M9,18 Q27,0 45,18 Q27,36 9,18" fill="none" stroke="gray"/></marker></defs><defs><marker orient="auto" markerHeight="36" markerWidth="57" refY="18" refX="18" id="ZERO_OR_MORE_START"><circle r="6" cy="18" cx="48" fill="white" stroke="gray"/><path d="M0,18 Q18,0 36,18 Q18,36 0,18" fill="none" stroke="gray"/></marker></defs><defs><marker orient="auto" markerHeight="36" markerWidth="57" refY="18" refX="39" id="ZERO_OR_MORE_END"><circle r="6" cy="18" cx="9" fill="white" stroke="gray"/><path d="M21,18 Q39,0 57,18 Q39,36 21,18" fill="none" stroke="gray"/></marker></defs><path style="stroke: gray; fill: none;" marker-start="url(#ONLY_ONE_START)" marker-end="url(#ONLY_ONE_END)" d="M277.143,95L267.619,103.333C258.095,111.667,239.048,128.333,220,145C200.952,161.667,181.905,178.333,172.381,186.667L162.857,195" class="er relationshipLine"/><path style="stroke: gray; fill: none;" marker-start="url(#ONLY_ONE_START)" marker-end="url(#ONLY_ONE_END)" d="M603.732,95L598.97,103.333C594.208,111.667,584.684,128.333,570.398,145C556.113,161.667,537.065,178.333,527.541,186.667L518.017,195" class="er relationshipLine"/><path style="stroke: gray; fill: none;" marker-start="url(#ONLY_ONE_START)" marker-end="url(#ONLY_ONE_END)" d="M70,95L70,103.333C70,111.667,70,128.333,128.988,149.406C187.975,170.478,305.951,195.957,364.938,208.696L423.926,221.435" class="er relationshipLine"/><path style="stroke: gray; fill: none;" marker-start="url(#ONLY_ONE_START)" marker-end="url(#ONLY_ONE_END)" d="M343.64,95L348.893,103.333C354.147,111.667,364.653,128.333,379.431,145C394.208,161.667,413.255,178.333,422.779,186.667L432.303,195" class="er relationshipLine"/><path style="stroke: gray; fill: none;" marker-start="url(#ONLY_ONE_START)" marker-end="url(#ONLY_ONE_END)" d="M646.589,95L651.351,103.333C656.113,111.667,665.636,128.333,674.652,145C683.667,161.667,692.174,178.333,696.427,186.667L700.68,195" class="er relationshipLine"/><path style="stroke: gray; fill: none;" marker-start="url(#ONLY_ONE_START)" marker-end="url(#ONLY_ONE_END)" d="M835.142,95L825.484,103.333C815.825,111.667,796.508,128.333,781.386,145C766.264,161.667,755.336,178.333,749.872,186.667L744.408,195" class="er relationshipLine"/><path style="stroke: gray; fill: none;" marker-start="url(#ONLY_ONE_START)" marker-end="url(#ONLY_ONE_END)" d="M877.999,95L877.865,103.333C877.73,111.667,877.461,128.333,881.655,145C885.85,161.667,894.508,178.333,898.838,186.667L903.167,195" class="er relationshipLine"/><path style="stroke: gray; fill: none;" marker-start="url(#ONLY_ONE_START)" marker-end="url(#ONLY_ONE_END)" d="M921.463,95L930.986,103.333C940.51,111.667,959.558,128.333,963.752,145C967.947,161.667,957.289,178.333,951.959,186.667L946.63,195" class="er relationshipLine"/><path style="stroke: gray; fill: none;" marker-start="url(#ONLY_ONE_START)" marker-end="url(#ONLY_ONE_END)" d="M370,85.697L387.527,95.581C405.053,105.464,440.107,125.232,523.41,147.978C606.714,170.723,738.267,196.447,804.044,209.309L869.82,222.17" class="er relationshipLine"/><path style="stroke: gray; fill: none;" marker-start="url(#ONLY_ONE_START)" marker-end="url(#ONLY_ONE_END)" d="M1135.748,95L1126.225,103.333C1116.701,111.667,1097.653,128.333,996.094,150.012C894.535,171.69,710.465,198.381,618.43,211.726L526.395,225.071" class="er relationshipLine"/><path style="stroke: gray; fill: none;" marker-start="url(#ONLY_ONE_START)" marker-end="url(#ONLY_ONE_END)" d="M1178.605,95L1178.605,103.333C1178.605,111.667,1178.605,128.333,1144.751,148.24C1110.896,168.147,1043.186,191.294,1009.331,202.867L975.477,214.44" class="er relationshipLine"/><path style="stroke: gray; fill: none;" marker-start="url(#ONLY_ONE_START)" marker-end="url(#ONLY_ONE_END)" d="M1221.463,95L1230.986,103.333C1240.51,111.667,1259.558,128.333,1269.082,145C1278.605,161.667,1278.605,178.333,1278.605,186.667L1278.605,195" class="er relationshipLine"/><g transform="translate(270,20 )" id="entity-PLAYER-09044be7-efdd-5fb9-97db-80dc92021a88"><rect height="75" width="100" y="0" x="0" class="er entityBox"/><text style="dominant-baseline: middle; text-anchor: middle; font-size: 12px;" transform="translate(50,37.5)" y="0" x="0" id="text-entity-PLAYER-09044be7-efdd-5fb9-97db-80dc92021a88" class="er entityLabel">PLAYER</text></g><g transform="translate(60.9140625,195 )" id="entity-APPLEIDENTITY-4e24b61c-e7b4-5aff-b941-f41b31e7bd4a"><rect height="75" width="118.171875" y="0" x="0" class="er entityBox"/><text style="dominant-baseline: middle; text-anchor: middle; font-size: 12px;" transform="translate(59.0859375,37.5)" y="0" x="0" id="text-entity-APPLEIDENTITY-4e24b61c-e7b4-5aff-b941-f41b31e7bd4a" class="er entityLabel">APPLE_IDENTITY</text></g><g transform="translate(575.16015625,20 )" id="entity-STRAVA-d4bd3069-3ce9-51b2-8239-7ec2de70be0e"><rect height="75" width="100" y="0" x="0" class="er entityBox"/><text style="dominant-baseline: middle; text-anchor: middle; font-size: 12px;" transform="translate(50,37.5)" y="0" x="0" id="text-entity-STRAVA-d4bd3069-3ce9-51b2-8239-7ec2de70be0e" class="er entityLabel">STRAVA</text></g><g transform="translate(423.92578125,195 )" id="entity-STEPACTION-b55b193d-0d53-5834-a762-44ffbbaf5ba5"><rect height="75" width="102.46875" y="0" x="0" class="er entityBox"/><text style="dominant-baseline: middle; text-anchor: middle; font-size: 12px;" transform="translate(51.234375,37.5)" y="0" x="0" id="text-entity-STEPACTION-b55b193d-0d53-5834-a762-44ffbbaf5ba5" class="er entityLabel">STEP_ACTION</text></g><g transform="translate(20,20 )" id="entity-iHEALTH-14ef0b46-4005-586a-879a-05f1a40054cf"><rect height="75" width="100" y="0" x="0" class="er entityBox"/><text style="dominant-baseline: middle; text-anchor: middle; font-size: 12px;" transform="translate(50,37.5)" y="0" x="0" id="text-entity-iHEALTH-14ef0b46-4005-586a-879a-05f1a40054cf" class="er entityLabel">iHEALTH</text></g><g transform="translate(669.8203125,195 )" id="entity-IDENTITY-47e8c24b-0213-556d-bf48-5dee2cb3b515"><rect height="75" width="100" y="0" x="0" class="er entityBox"/><text style="dominant-baseline: middle; text-anchor: middle; font-size: 12px;" transform="translate(50,37.5)" y="0" x="0" id="text-entity-IDENTITY-47e8c24b-0213-556d-bf48-5dee2cb3b515" class="er entityLabel">IDENTITY</text></g><g transform="translate(828.60546875,20 )" id="entity-GITHUB-79de28c9-7298-5b0f-88f3-7026f5dea125"><rect height="75" width="100" y="0" x="0" class="er entityBox"/><text style="dominant-baseline: middle; text-anchor: middle; font-size: 12px;" transform="translate(50,37.5)" y="0" x="0" id="text-entity-GITHUB-79de28c9-7298-5b0f-88f3-7026f5dea125" class="er entityLabel">GITHUB</text></g><g transform="translate(869.8203125,195 )" id="entity-CODEACTION-6c84892e-2a95-5cdb-8991-1f8cb76e077b"><rect height="75" width="105.65625" y="0" x="0" class="er entityBox"/><text style="dominant-baseline: middle; text-anchor: middle; font-size: 12px;" transform="translate(52.828125,37.5)" y="0" x="0" id="text-entity-CODEACTION-6c84892e-2a95-5cdb-8991-1f8cb76e077b" class="er entityLabel">CODE_ACTION</text></g><g transform="translate(1128.60546875,20 )" id="entity-JINNI-2a9d8010-dc7c-5261-b604-71740cc154ab"><rect height="75" width="100" y="0" x="0" class="er entityBox"/><text style="dominant-baseline: middle; text-anchor: middle; font-size: 12px;" transform="translate(50,37.5)" y="0" x="0" id="text-entity-JINNI-2a9d8010-dc7c-5261-b604-71740cc154ab" class="er entityLabel">JINNI</text></g><g transform="translate(1228.60546875,195 )" id="entity-DIVINATION-c0bb493d-657d-549a-bdb4-4a0f5e08831a"><rect height="75" width="100" y="0" x="0" class="er entityBox"/><text style="dominant-baseline: middle; text-anchor: middle; font-size: 12px;" transform="translate(50,37.5)" y="0" x="0" id="text-entity-DIVINATION-c0bb493d-657d-549a-bdb4-4a0f5e08831a" class="er entityLabel">DIVINATION</text></g><rect height="14" width="25.109375" y="138" x="207.4453125" class="er relationshipLabelBox"/><text style="text-anchor: middle; dominant-baseline: middle; font-size: 12px;" y="145" x="220" id="rel1" class="er relationshipLabel">:HAS</text><rect height="14" width="65.109375" y="142.60305786132812" x="533.781982421875" class="er relationshipLabelBox"/><text style="text-anchor: middle; dominant-baseline: middle; font-size: 12px;" y="149.60305786132812" x="566.336669921875" id="rel2" class="er relationshipLabel">:GENERATES</text><rect height="14" width="49.203125" y="171.77110290527344" x="208.30308532714844" class="er relationshipLabelBox"/><text style="text-anchor: middle; dominant-baseline: middle; font-size: 12px;" y="178.77110290527344" x="232.90464782714844" id="rel3" class="er relationshipLabel">:ATTESTS</text><rect height="14" width="22.46875" y="142.1658477783203" x="371.97607421875" class="er relationshipLabelBox"/><text style="text-anchor: middle; dominant-baseline: middle; font-size: 12px;" y="149.1658477783203" x="383.21044921875" id="rel4" class="er relationshipLabel">:DID</text><rect height="14" width="50.078125" y="137.5746307373047" x="649.3820190429688" class="er relationshipLabelBox"/><text style="text-anchor: middle; dominant-baseline: middle; font-size: 12px;" y="144.5746307373047" x="674.4210815429688" id="rel5" class="er relationshipLabel">:CREATES</text><rect height="14" width="50.078125" y="133.89427185058594" x="760.1541137695312" class="er relationshipLabelBox"/><text style="text-anchor: middle; dominant-baseline: middle; font-size: 12px;" y="140.89427185058594" x="785.1931762695312" id="rel6" class="er relationshipLabel">:CREATES</text><rect height="14" width="65.109375" y="140.06210327148438" x="849.6423950195312" class="er relationshipLabelBox"/><text style="text-anchor: middle; dominant-baseline: middle; font-size: 12px;" y="147.06210327148438" x="882.1970825195312" id="rel7" class="er relationshipLabel">:GENERATES</text><rect height="14" width="49.203125" y="132.37167358398438" x="937.1985473632812" class="er relationshipLabelBox"/><text style="text-anchor: middle; dominant-baseline: middle; font-size: 12px;" y="139.37167358398438" x="961.8001098632812" id="rel8" class="er relationshipLabel">:ATTESTS</text><rect height="14" width="22.46875" y="163.28521728515625" x="603.5751342773438" class="er relationshipLabelBox"/><text style="text-anchor: middle; dominant-baseline: middle; font-size: 12px;" y="170.28521728515625" x="614.8095092773438" id="rel9" class="er relationshipLabel">:DID</text><rect height="14" width="38.03125" y="171.69992065429688" x="817.8613891601562" class="er relationshipLabelBox"/><text style="text-anchor: middle; dominant-baseline: middle; font-size: 12px;" y="178.69992065429688" x="836.8770141601562" id="rel10" class="er relationshipLabel">:READS</text><rect height="14" width="38.03125" y="165.43341064453125" x="1073.9415283203125" class="er relationshipLabelBox"/><text style="text-anchor: middle; dominant-baseline: middle; font-size: 12px;" y="172.43341064453125" x="1092.9571533203125" id="rel11" class="er relationshipLabel">:READS</text><rect height="14" width="28.8125" y="130.56446838378906" x="1249.8377685546875" class="er relationshipLabelBox"/><text style="text-anchor: middle; dominant-baseline: middle; font-size: 12px;" y="137.56446838378906" x="1264.2440185546875" id="rel12" class="er relationshipLabel">:SEES</text><text class="entityTitleText" y="-25" x="674.302734375" text-anchor="middle">Example Action + Divination Generation</text></svg>