<svg aria-roledescription="mindmap" role="graphics-document document" viewBox="5 5 916.0081176757812 538.1442260742188" style="max-width: 916.008px; background-color: white;" xmlns:xlink="http://www.w3.org/1999/xlink" xmlns="http://www.w3.org/2000/svg" width="100%" id="my-svg"><style>#my-svg{font-family:"trebuchet ms",verdana,arial,sans-serif;font-size:16px;fill:#000000;}#my-svg .error-icon{fill:#552222;}#my-svg .error-text{fill:#552222;stroke:#552222;}#my-svg .edge-thickness-normal{stroke-width:1px;}#my-svg .edge-thickness-thick{stroke-width:3.5px;}#my-svg .edge-pattern-solid{stroke-dasharray:0;}#my-svg .edge-thickness-invisible{stroke-width:0;fill:none;}#my-svg .edge-pattern-dashed{stroke-dasharray:3;}#my-svg .edge-pattern-dotted{stroke-dasharray:2;}#my-svg .marker{fill:#000000;stroke:#000000;}#my-svg .marker.cross{stroke:#000000;}#my-svg svg{font-family:"trebuchet ms",verdana,arial,sans-serif;font-size:16px;}#my-svg p{margin:0;}#my-svg .edge{stroke-width:3;}#my-svg .section--1 rect,#my-svg .section--1 path,#my-svg .section--1 circle,#my-svg .section--1 polygon,#my-svg .section--1 path{fill:hsl(78.1578947368, 58.4615384615%, 64.5098039216%);}#my-svg .section--1 text{fill:black;}#my-svg .node-icon--1{font-size:40px;color:black;}#my-svg .section-edge--1{stroke:hsl(78.1578947368, 58.4615384615%, 64.5098039216%);}#my-svg .edge-depth--1{stroke-width:17;}#my-svg .section--1 line{stroke:hsl(258.1578947368, 58.4615384615%, 64.5098039216%);stroke-width:3;}#my-svg .disabled,#my-svg .disabled circle,#my-svg .disabled text{fill:lightgray;}#my-svg .disabled text{fill:#efefef;}#my-svg .section-0 rect,#my-svg .section-0 path,#my-svg .section-0 circle,#my-svg .section-0 polygon,#my-svg .section-0 path{fill:hsl(98.961038961, 100%, 74.9019607843%);}#my-svg .section-0 text{fill:black;}#my-svg .node-icon-0{font-size:40px;color:black;}#my-svg .section-edge-0{stroke:hsl(98.961038961, 100%, 74.9019607843%);}#my-svg .edge-depth-0{stroke-width:14;}#my-svg .section-0 line{stroke:hsl(278.961038961, 100%, 74.9019607843%);stroke-width:3;}#my-svg .disabled,#my-svg .disabled circle,#my-svg .disabled text{fill:lightgray;}#my-svg .disabled text{fill:#efefef;}#my-svg .section-1 rect,#my-svg .section-1 path,#my-svg .section-1 circle,#my-svg .section-1 polygon,#my-svg .section-1 path{fill:hsl(78.1578947368, 58.4615384615%, 74.5098039216%);}#my-svg .section-1 text{fill:black;}#my-svg .node-icon-1{font-size:40px;color:black;}#my-svg .section-edge-1{stroke:hsl(78.1578947368, 58.4615384615%, 74.5098039216%);}#my-svg .edge-depth-1{stroke-width:11;}#my-svg .section-1 line{stroke:hsl(258.1578947368, 58.4615384615%, 74.5098039216%);stroke-width:3;}#my-svg .disabled,#my-svg .disabled circle,#my-svg .disabled text{fill:lightgray;}#my-svg .disabled text{fill:#efefef;}#my-svg .section-2 rect,#my-svg .section-2 path,#my-svg .section-2 circle,#my-svg .section-2 polygon,#my-svg .section-2 path{fill:hsl(108.1578947368, 58.4615384615%, 64.5098039216%);}#my-svg .section-2 text{fill:black;}#my-svg .node-icon-2{font-size:40px;color:black;}#my-svg .section-edge-2{stroke:hsl(108.1578947368, 58.4615384615%, 64.5098039216%);}#my-svg .edge-depth-2{stroke-width:8;}#my-svg .section-2 line{stroke:hsl(288.1578947368, 58.4615384615%, 64.5098039216%);stroke-width:3;}#my-svg .disabled,#my-svg .disabled circle,#my-svg .disabled text{fill:lightgray;}#my-svg .disabled text{fill:#efefef;}#my-svg .section-3 rect,#my-svg .section-3 path,#my-svg .section-3 circle,#my-svg .section-3 polygon,#my-svg .section-3 path{fill:hsl(138.1578947368, 58.4615384615%, 64.5098039216%);}#my-svg .section-3 text{fill:black;}#my-svg .node-icon-3{font-size:40px;color:black;}#my-svg .section-edge-3{stroke:hsl(138.1578947368, 58.4615384615%, 64.5098039216%);}#my-svg .edge-depth-3{stroke-width:5;}#my-svg .section-3 line{stroke:hsl(318.1578947368, 58.4615384615%, 64.5098039216%);stroke-width:3;}#my-svg .disabled,#my-svg .disabled circle,#my-svg .disabled text{fill:lightgray;}#my-svg .disabled text{fill:#efefef;}#my-svg .section-4 rect,#my-svg .section-4 path,#my-svg .section-4 circle,#my-svg .section-4 polygon,#my-svg .section-4 path{fill:hsl(168.1578947368, 58.4615384615%, 64.5098039216%);}#my-svg .section-4 text{fill:black;}#my-svg .node-icon-4{font-size:40px;color:black;}#my-svg .section-edge-4{stroke:hsl(168.1578947368, 58.4615384615%, 64.5098039216%);}#my-svg .edge-depth-4{stroke-width:2;}#my-svg .section-4 line{stroke:hsl(348.1578947368, 58.4615384615%, 64.5098039216%);stroke-width:3;}#my-svg .disabled,#my-svg .disabled circle,#my-svg .disabled text{fill:lightgray;}#my-svg .disabled text{fill:#efefef;}#my-svg .section-5 rect,#my-svg .section-5 path,#my-svg .section-5 circle,#my-svg .section-5 polygon,#my-svg .section-5 path{fill:hsl(198.1578947368, 58.4615384615%, 64.5098039216%);}#my-svg .section-5 text{fill:black;}#my-svg .node-icon-5{font-size:40px;color:black;}#my-svg .section-edge-5{stroke:hsl(198.1578947368, 58.4615384615%, 64.5098039216%);}#my-svg .edge-depth-5{stroke-width:-1;}#my-svg .section-5 line{stroke:hsl(18.1578947368, 58.4615384615%, 64.5098039216%);stroke-width:3;}#my-svg .disabled,#my-svg .disabled circle,#my-svg .disabled text{fill:lightgray;}#my-svg .disabled text{fill:#efefef;}#my-svg .section-6 rect,#my-svg .section-6 path,#my-svg .section-6 circle,#my-svg .section-6 polygon,#my-svg .section-6 path{fill:hsl(228.1578947368, 58.4615384615%, 64.5098039216%);}#my-svg .section-6 text{fill:black;}#my-svg .node-icon-6{font-size:40px;color:black;}#my-svg .section-edge-6{stroke:hsl(228.1578947368, 58.4615384615%, 64.5098039216%);}#my-svg .edge-depth-6{stroke-width:-4;}#my-svg .section-6 line{stroke:hsl(48.1578947368, 58.4615384615%, 64.5098039216%);stroke-width:3;}#my-svg .disabled,#my-svg .disabled circle,#my-svg .disabled text{fill:lightgray;}#my-svg .disabled text{fill:#efefef;}#my-svg .section-7 rect,#my-svg .section-7 path,#my-svg .section-7 circle,#my-svg .section-7 polygon,#my-svg .section-7 path{fill:hsl(288.1578947368, 58.4615384615%, 64.5098039216%);}#my-svg .section-7 text{fill:black;}#my-svg .node-icon-7{font-size:40px;color:black;}#my-svg .section-edge-7{stroke:hsl(288.1578947368, 58.4615384615%, 64.5098039216%);}#my-svg .edge-depth-7{stroke-width:-7;}#my-svg .section-7 line{stroke:hsl(108.1578947368, 58.4615384615%, 64.5098039216%);stroke-width:3;}#my-svg .disabled,#my-svg .disabled circle,#my-svg .disabled text{fill:lightgray;}#my-svg .disabled text{fill:#efefef;}#my-svg .section-8 rect,#my-svg .section-8 path,#my-svg .section-8 circle,#my-svg .section-8 polygon,#my-svg .section-8 path{fill:hsl(348.1578947368, 58.4615384615%, 64.5098039216%);}#my-svg .section-8 text{fill:black;}#my-svg .node-icon-8{font-size:40px;color:black;}#my-svg .section-edge-8{stroke:hsl(348.1578947368, 58.4615384615%, 64.5098039216%);}#my-svg .edge-depth-8{stroke-width:-10;}#my-svg .section-8 line{stroke:hsl(168.1578947368, 58.4615384615%, 64.5098039216%);stroke-width:3;}#my-svg .disabled,#my-svg .disabled circle,#my-svg .disabled text{fill:lightgray;}#my-svg .disabled text{fill:#efefef;}#my-svg .section-9 rect,#my-svg .section-9 path,#my-svg .section-9 circle,#my-svg .section-9 polygon,#my-svg .section-9 path{fill:hsl(18.1578947368, 58.4615384615%, 64.5098039216%);}#my-svg .section-9 text{fill:black;}#my-svg .node-icon-9{font-size:40px;color:black;}#my-svg .section-edge-9{stroke:hsl(18.1578947368, 58.4615384615%, 64.5098039216%);}#my-svg .edge-depth-9{stroke-width:-13;}#my-svg .section-9 line{stroke:hsl(198.1578947368, 58.4615384615%, 64.5098039216%);stroke-width:3;}#my-svg .disabled,#my-svg .disabled circle,#my-svg .disabled text{fill:lightgray;}#my-svg .disabled text{fill:#efefef;}#my-svg .section-10 rect,#my-svg .section-10 path,#my-svg .section-10 circle,#my-svg .section-10 polygon,#my-svg .section-10 path{fill:hsl(48.1578947368, 58.4615384615%, 64.5098039216%);}#my-svg .section-10 text{fill:black;}#my-svg .node-icon-10{font-size:40px;color:black;}#my-svg .section-edge-10{stroke:hsl(48.1578947368, 58.4615384615%, 64.5098039216%);}#my-svg .edge-depth-10{stroke-width:-16;}#my-svg .section-10 line{stroke:hsl(228.1578947368, 58.4615384615%, 64.5098039216%);stroke-width:3;}#my-svg .disabled,#my-svg .disabled circle,#my-svg .disabled text{fill:lightgray;}#my-svg .disabled text{fill:#efefef;}#my-svg .section-root rect,#my-svg .section-root path,#my-svg .section-root circle,#my-svg .section-root polygon{fill:hsl(78.1578947368, 58.4615384615%, 49.5098039216%);}#my-svg .section-root text{fill:#ffffff;}#my-svg .icon-container{height:100%;display:flex;justify-content:center;align-items:center;}#my-svg .edge{fill:none;}#my-svg .mindmap-node-label{dy:1em;alignment-baseline:middle;text-anchor:middle;dominant-baseline:middle;text-align:center;}#my-svg :root{--mermaid-font-family:"trebuchet ms",verdana,arial,sans-serif;}</style><g/><g class="mindmap-edges"><path class="edge section-edge-0 edge-depth-1" d="M 292.6995485148197,137.48432697054866 L 313.1850740105891,103.81440428931612 L333.67059950635854,70.14448160808355"/><path class="edge section-edge-0 edge-depth-1" d="M 269.93252128323365,151.24103905450895 L 188.8342635561379,156.34504598812217 L107.73600582904211,161.4490529217354"/><path class="edge section-edge-0 edge-depth-1" d="M 271.0704674636454,144.4968146788907 L 206.66484512403235,117.48172513442634 L142.2592227844193,90.46663558996198"/><path class="edge section-edge-0 edge-depth-0" d="M 438.92499314130237,217.54971824099243 L 368.7873185576326,186.92541852136253 L298.64964397396284,156.30111880173268"/><path class="edge section-edge-1 edge-depth-1" d="M 294.97176980359546,273.2087038631544 L 248.6013612303696,250.52318380258612 L202.23095265714375,227.83766374201784"/><path class="edge section-edge-1 edge-depth-1" d="M 293.49043945941344,280.95748188264207 L 213.41708440227313,287.15216124338747 L133.3437293451328,293.34684060413286"/><path class="edge section-edge-1 edge-depth-1" d="M 307.6540910714351,294.77959512768064 L 305.932274331868,327.35823026972 L304.2104575923008,359.9368654117594"/><path class="edge section-edge-1 edge-depth-1" d="M 296.5749722382253,288.9702645904164 L 258.3629003020405,318.4877576320547 L220.1508283658557,348.005250673693"/><path class="edge section-edge-1 edge-depth-0" d="M 438.6969295463698,229.00218731274205 L 380.5587438559436,251.67623789974493 L322.4205581655174,274.35028848674784"/><path class="edge section-edge-2 edge-depth-1" d="M 677.1785236773637,261.5563164916977 L 711.9614375763098,231.6288599468634 L746.7443514752558,201.70140340202906"/><path class="edge section-edge-2 edge-depth-1" d="M 668.2876820733811,286.1331893557251 L 673.6702655560713,318.2457647799174 L679.0528490387615,350.3583402041097"/><path class="edge section-edge-2 edge-depth-1" d="M 680.7257171697031,269.7702665384345 L 758.9119749837877,261.54529520128494 L837.0982327978722,253.3203238641354"/><path class="edge section-edge-2 edge-depth-1" d="M 679.5318732630648,277.39400121583725 L 740.8254877393426,304.43441462705937 L802.1191022156205,331.4748280382815"/><path class="edge section-edge-2 edge-depth-0" d="M 467.3083491063145,226.83367100614885 L 559.2398839462298,247.44576977272482 L651.1714187861452,268.0578685393008"/><path class="edge section-edge-3 edge-depth-2" d="M 564.1766604683393,419.96131667716173 L 615.5204379318327,441.28517917194745 L666.8642153953261,462.60904166673316"/><path class="edge section-edge-3 edge-depth-2" d="M 551.499466427734,429.16190074898674 L 553.9569089709695,460.42114921513587 L556.414351514205,491.680397681285"/><path class="edge section-edge-3 edge-depth-1" d="M 478.55563779784904,340.1508700809715 L 509.2203389002565,371.7935744110198 L539.8850400026639,403.43627874106807"/><path class="edge section-edge-3 edge-depth-2" d="M 393.6337417935221,428.3980188952663 L 344.78696287837306,453.0386069288452 L295.940183963224,477.67919496242405"/><path class="edge section-edge-3 edge-depth-2" d="M 408.11810739835227,436.6024255795021 L 410.4054983858101,467.9432306158708 L412.692889373268,499.2840356522395"/><path class="edge section-edge-3 edge-depth-1" d="M 459.83559025297154,341.88596523462445 L 437.57152632310897,375.51066335141365 L415.3074623932464,409.13536146820286"/><path class="edge section-edge-3 edge-depth-0" d="M 454.8379793701714,238.3947304805518 L 460.3942713150483,276.46554236403495 L465.95056325992516,314.53635424751815"/><path class="edge section-edge-4 edge-depth-1" d="M 545.9381961968498,117.87909119744435 L 571.0236520170323,86.17112899131664 L596.1091078372148,54.46316678518892"/><path class="edge section-edge-4 edge-depth-1" d="M 531.9903310848684,115.37885085995873 L 521.0553129501983,81.77139485664199 L510.12029481552815,48.16393885332525"/><path class="edge section-edge-4 edge-depth-1" d="M 521.6442245034865,130.2615518035513 L 468.39955332825514,132.459808510682 L415.1548821530238,134.6580652178127"/><path class="edge section-edge-4 edge-depth-1" d="M 549.1209657903748,137.95014588022138 L 587.3644883172,163.3877002534504 L625.6080108440251,188.8252546266794"/><path class="edge section-edge-4 edge-depth-1" d="M 551.4373865798233,127.23770241715752 L 614.7665458924523,116.95046214656108 L678.0957052050813,106.66322187596464"/><path class="edge section-edge-4 edge-depth-0" d="M 462.6694056994218,212.36955232225802 L 494.65159592761677,176.59738243940623 L526.6337861558118,140.82521255655445"/></g><g class="mindmap-nodes"><g transform="translate(378.9373600029894, 204.65197516552848)" class="mindmap-node section--1 section-root"><g><path d="M0 0 a22.1203125,22.1203125 0 0,1 36.8671875,-14.746875000000001&#10;      a51.614062499999996,51.614062499999996 1 0,1 58.987500000000004,-14.746875000000001&#10;      a36.8671875,36.8671875 1 0,1 51.614062499999996,29.493750000000002&#10;&#10;      a22.1203125,22.1203125 1 0,1 22.1203125,13.229999999999999&#10;      a29.493750000000002,29.493750000000002 1 0,1 -22.1203125,24.57&#10;&#10;      a36.8671875,22.1203125 1 0,1 -36.8671875,22.1203125&#10;      a51.614062499999996,51.614062499999996 1 0,1 -73.734375,0&#10;      a22.1203125,22.1203125 1 0,1 -36.8671875,-22.1203125&#10;&#10;      a22.1203125,22.1203125 1 0,1 -14.746875000000001,-13.229999999999999&#10;      a29.493750000000002,29.493750000000002 1 0,1 14.746875000000001,-24.57&#10;&#10;    H0 V0 Z" class="node-bkg node-cloud" id="node-0"/></g><g transform="translate(73.734375, 5)" text-anchor="middle" dominant-baseline="middle" alignment-baseline="middle" dy="1em"><g><rect style="stroke: none" class="background"/><text style="" y="-10.1"><tspan dy="1.1em" y="-0.1em" x="0" class="text-outer-tspan"><tspan font-weight="normal" class="text-inner-tspan" font-style="normal">Financial</tspan><tspan font-weight="normal" class="text-inner-tspan" font-style="normal"> Literacy</tspan></tspan></text></g></g></g><g transform="translate(230.9341521122758, 126.39886187719662)" class="mindmap-node section-0"><g><polygon transform="translate(-1.9500000000000028, 47.8)" points="11.95,0 99.8875,0 111.8375,-23.9 99.8875,-47.8 11.95,-47.8 0,-23.9"/></g><g transform="translate(53.96875, 10)" text-anchor="middle" dominant-baseline="middle" alignment-baseline="middle" dy="1em"><g><rect style="stroke: none" class="background"/><text style="" y="-10.1"><tspan dy="1.1em" y="-0.1em" x="0" class="text-outer-tspan"><tspan font-weight="normal" class="text-inner-tspan" font-style="normal">Lifestyles</tspan></tspan></text></g></g></g><g transform="translate(270.99262770889777, 255.9005006339614)" class="mindmap-node section-1"><g><polygon transform="translate(-1.9500000000000028, 47.8)" points="11.95,0 66.85625,0 78.80625,-23.9 66.85625,-47.8 11.95,-47.8 0,-23.9"/></g><g transform="translate(37.453125, 10)" text-anchor="middle" dominant-baseline="middle" alignment-baseline="middle" dy="1em"><g><rect style="stroke: none" class="background"/><text style="" y="-10.1"><tspan dy="1.1em" y="-0.1em" x="0" class="text-outer-tspan"><tspan font-weight="normal" class="text-inner-tspan" font-style="normal">Risks</tspan></tspan></text></g></g></g><g transform="translate(597.9564703894703, 247.43956437992117)" class="mindmap-node section-2"><g><polygon transform="translate(-1.9500000000000028, 47.8)" points="11.95,0 127.653125,0 139.603125,-23.9 127.653125,-47.8 11.95,-47.8 0,-23.9"/></g><g transform="translate(67.8515625, 10)" text-anchor="middle" dominant-baseline="middle" alignment-baseline="middle" dy="1em"><g><rect style="stroke: none" class="background"/><text style="" y="-10.1"><tspan dy="1.1em" y="-0.1em" x="0" class="text-outer-tspan"><tspan font-weight="normal" class="text-inner-tspan" font-style="normal">Income</tspan><tspan font-weight="normal" class="text-inner-tspan" font-style="normal"> Types</tspan></tspan></text></g></g></g><g transform="translate(384.00743262710716, 305.47910956254145)" class="mindmap-node section-3"><g><polygon transform="translate(-1.9500000000000028, 47.8)" points="11.95,0 160.16875000000002,0 172.11875,-23.9 160.16875000000002,-47.8 11.95,-47.8 0,-23.9"/></g><g transform="translate(84.109375, 10)" text-anchor="middle" dominant-baseline="middle" alignment-baseline="middle" dy="1em"><g><rect style="stroke: none" class="background"/><text style="" y="-10.1"><tspan dy="1.1em" y="-0.1em" x="0" class="text-outer-tspan"><tspan font-weight="normal" class="text-inner-tspan" font-style="normal">Guiding</tspan><tspan font-weight="normal" class="text-inner-tspan" font-style="normal"> Principles</tspan></tspan></text></g></g></g><g transform="translate(476.6470818522441, 105.74278971328397)" class="mindmap-node section-4"><g><polygon transform="translate(-1.9500000000000028, 47.8)" points="11.95,0 111.91875,0 123.86875,-23.9 111.91875,-47.8 11.95,-47.8 0,-23.9"/></g><g transform="translate(59.984375, 10)" text-anchor="middle" dominant-baseline="middle" alignment-baseline="middle" dy="1em"><g><rect style="stroke: none" class="background"/><text style="" y="-10.1"><tspan dy="1.1em" y="-0.1em" x="0" class="text-outer-tspan"><tspan font-weight="normal" class="text-inner-tspan" font-style="normal">Dimensions</tspan></tspan></text></g></g></g><g transform="translate(249.84224590890244, 38.4299467014356)" class="mindmap-node section-0"><g><path d="M0 32.8 v-27.799999999999997 q0,-5 5,-5 h173.25 q5,0 5,5 v32.8 H0 Z" class="node-bkg node-no-border" id="node-2"/><line y2="37.8" x2="183.25" y1="37.8" x1="0" class="node-line-0"/></g><g transform="translate(91.625, 5)" text-anchor="middle" dominant-baseline="middle" alignment-baseline="middle" dy="1em"><g><rect style="stroke: none" class="background"/><text style="" y="-10.1"><tspan dy="1.1em" y="-0.1em" x="0" class="text-outer-tspan"><tspan font-weight="normal" class="text-inner-tspan" font-style="normal">Live</tspan><tspan font-weight="normal" class="text-inner-tspan" font-style="normal"> above</tspan><tspan font-weight="normal" class="text-inner-tspan" font-style="normal"> your</tspan><tspan font-weight="normal" class="text-inner-tspan" font-style="normal"> means</tspan></tspan></text></g></g></g><g transform="translate(15, 143.4912300990477)" class="mindmap-node section-0"><g><path d="M0 32.8 v-27.799999999999997 q0,-5 5,-5 h145.53125 q5,0 5,5 v32.8 H0 Z" class="node-bkg node-no-border" id="node-3"/><line y2="37.8" x2="155.53125" y1="37.8" x1="0" class="node-line-0"/></g><g transform="translate(77.765625, 5)" text-anchor="middle" dominant-baseline="middle" alignment-baseline="middle" dy="1em"><g><rect style="stroke: none" class="background"/><text style="" y="-10.1"><tspan dy="1.1em" y="-0.1em" x="0" class="text-outer-tspan"><tspan font-weight="normal" class="text-inner-tspan" font-style="normal">Live</tspan><tspan font-weight="normal" class="text-inner-tspan" font-style="normal"> at</tspan><tspan font-weight="normal" class="text-inner-tspan" font-style="normal"> your</tspan><tspan font-weight="normal" class="text-inner-tspan" font-style="normal"> means</tspan></tspan></text></g></g></g><g transform="translate(36.61428813578891, 65.76458839165605)" class="mindmap-node section-0"><g><path d="M0 32.8 v-27.799999999999997 q0,-5 5,-5 h173.625 q5,0 5,5 v32.8 H0 Z" class="node-bkg node-no-border" id="node-4"/><line y2="37.8" x2="183.625" y1="37.8" x1="0" class="node-line-0"/></g><g transform="translate(91.8125, 5)" text-anchor="middle" dominant-baseline="middle" alignment-baseline="middle" dy="1em"><g><rect style="stroke: none" class="background"/><text style="" y="-10.1"><tspan dy="1.1em" y="-0.1em" x="0" class="text-outer-tspan"><tspan font-weight="normal" class="text-inner-tspan" font-style="normal">Live</tspan><tspan font-weight="normal" class="text-inner-tspan" font-style="normal"> below</tspan><tspan font-weight="normal" class="text-inner-tspan" font-style="normal"> your</tspan><tspan font-weight="normal" class="text-inner-tspan" font-style="normal"> means</tspan></tspan></text></g></g></g><g transform="translate(148.52259475184144, 202.34586697121085)" class="mindmap-node section-1"><g><path d="M0 32.8 v-27.799999999999997 q0,-5 5,-5 h70.46875 q5,0 5,5 v32.8 H0 Z" class="node-bkg node-no-border" id="node-6"/><line y2="37.8" x2="80.46875" y1="37.8" x1="0" class="node-line-1"/></g><g transform="translate(40.234375, 5)" text-anchor="middle" dominant-baseline="middle" alignment-baseline="middle" dy="1em"><g><rect style="stroke: none" class="background"/><text style="" y="-10.1"><tspan dy="1.1em" y="-0.1em" x="0" class="text-outer-tspan"><tspan font-weight="normal" class="text-inner-tspan" font-style="normal">Inflation</tspan></tspan></text></g></g></g><g transform="translate(25.927478595648495, 275.60382185281355)" class="mindmap-node section-1"><g><path d="M0 32.8 v-27.799999999999997 q0,-5 5,-5 h174.921875 q5,0 5,5 v32.8 H0 Z" class="node-bkg node-no-border" id="node-7"/><line y2="37.8" x2="184.921875" y1="37.8" x1="0" class="node-line-1"/></g><g transform="translate(92.4609375, 5)" text-anchor="middle" dominant-baseline="middle" alignment-baseline="middle" dy="1em"><g><rect style="stroke: none" class="background"/><text style="" y="-10.1"><tspan dy="1.1em" y="-0.1em" x="0" class="text-outer-tspan"><tspan font-weight="normal" class="text-inner-tspan" font-style="normal">Market</tspan><tspan font-weight="normal" class="text-inner-tspan" font-style="normal"> Risk</tspan><tspan font-weight="normal" class="text-inner-tspan" font-style="normal"> |</tspan><tspan font-weight="normal" class="text-inner-tspan" font-style="normal"> Volatility</tspan></tspan></text></g></g></g><g transform="translate(281.5594209548382, 356.01595990547867)" class="mindmap-node section-1"><g><path d="M0 32.8 v-27.799999999999997 q0,-5 5,-5 h33.71875 q5,0 5,5 v32.8 H0 Z" class="node-bkg node-no-border" id="node-8"/><line y2="37.8" x2="43.71875" y1="37.8" x1="0" class="node-line-1"/></g><g transform="translate(21.859375, 5)" text-anchor="middle" dominant-baseline="middle" alignment-baseline="middle" dy="1em"><g><rect style="stroke: none" class="background"/><text style="" y="-10.1"><tspan dy="1.1em" y="-0.1em" x="0" class="text-outer-tspan"><tspan font-weight="normal" class="text-inner-tspan" font-style="normal">Tax</tspan></tspan></text></g></g></g><g transform="translate(174.5769228951832, 338.275014630148)" class="mindmap-node section-1"><g><path d="M0 32.8 v-27.799999999999997 q0,-5 5,-5 h57.40625 q5,0 5,5 v32.8 H0 Z" class="node-bkg node-no-border" id="node-9"/><line y2="37.8" x2="67.40625" y1="37.8" x1="0" class="node-line-1"/></g><g transform="translate(33.703125, 5)" text-anchor="middle" dominant-baseline="middle" alignment-baseline="middle" dy="1em"><g><rect style="stroke: none" class="background"/><text style="" y="-10.1"><tspan dy="1.1em" y="-0.1em" x="0" class="text-outer-tspan"><tspan font-weight="normal" class="text-inner-tspan" font-style="normal">Health</tspan></tspan></text></g></g></g><g transform="translate(725.7007797631493, 173.0181555138056)" class="mindmap-node section-2"><g><path d="M0 32.8 v-27.799999999999997 q0,-5 5,-5 h54.828125 q5,0 5,5 v32.8 H0 Z" class="node-bkg node-no-border" id="node-11"/><line y2="37.8" x2="64.828125" y1="37.8" x1="0" class="node-line-2"/></g><g transform="translate(32.4140625, 5)" text-anchor="middle" dominant-baseline="middle" alignment-baseline="middle" dy="1em"><g><rect style="stroke: none" class="background"/><text style="" y="-10.1"><tspan dy="1.1em" y="-0.1em" x="0" class="text-outer-tspan"><tspan font-weight="normal" class="text-inner-tspan" font-style="normal">Active</tspan></tspan></text></g></g></g><g transform="translate(646.2043732226723, 346.25196517991367)" class="mindmap-node section-2"><g><path d="M0 32.8 v-27.799999999999997 q0,-5 5,-5 h60.65625 q5,0 5,5 v32.8 H0 Z" class="node-bkg node-no-border" id="node-12"/><line y2="37.8" x2="70.65625" y1="37.8" x1="0" class="node-line-2"/></g><g transform="translate(35.328125, 5)" text-anchor="middle" dominant-baseline="middle" alignment-baseline="middle" dy="1em"><g><rect style="stroke: none" class="background"/><text style="" y="-10.1"><tspan dy="1.1em" y="-0.1em" x="0" class="text-outer-tspan"><tspan font-weight="normal" class="text-inner-tspan" font-style="normal">Passive</tspan></tspan></text></g></g></g><g transform="translate(793.0237295781051, 232.85102602264874)" class="mindmap-node section-2"><g><path d="M0 32.8 v-27.799999999999997 q0,-5 5,-5 h107.984375 q5,0 5,5 v32.8 H0 Z" class="node-bkg node-no-border" id="node-13"/><line y2="37.8" x2="117.984375" y1="37.8" x1="0" class="node-line-2"/></g><g transform="translate(58.9921875, 5)" text-anchor="middle" dominant-baseline="middle" alignment-baseline="middle" dy="1em"><g><rect style="stroke: none" class="background"/><text style="" y="-10.1"><tspan dy="1.1em" y="-0.1em" x="0" class="text-outer-tspan"><tspan font-weight="normal" class="text-inner-tspan" font-style="normal">Single</tspan><tspan font-weight="normal" class="text-inner-tspan" font-style="normal"> Stream</tspan></tspan></text></g></g></g><g transform="translate(760.233567589215, 318.6292648741976)" class="mindmap-node section-2"><g><path d="M0 32.8 v-27.799999999999997 q0,-5 5,-5 h101.21875 q5,0 5,5 v32.8 H0 Z" class="node-bkg node-no-border" id="node-14"/><line y2="37.8" x2="111.21875" y1="37.8" x1="0" class="node-line-2"/></g><g transform="translate(55.609375, 5)" text-anchor="middle" dominant-baseline="middle" alignment-baseline="middle" dy="1em"><g><rect style="stroke: none" class="background"/><text style="" y="-10.1"><tspan dy="1.1em" y="-0.1em" x="0" class="text-outer-tspan"><tspan font-weight="normal" class="text-inner-tspan" font-style="normal">Multi</tspan><tspan font-weight="normal" class="text-inner-tspan" font-style="normal"> Stream</tspan></tspan></text></g></g></g><g transform="translate(503.8785576734058, 395.3080392594982)" class="mindmap-node section-3"><g><path d="M0 32.8 v-27.799999999999997 q0,-5 5,-5 h82.890625 q5,0 5,5 v32.8 H0 Z" class="node-bkg node-no-border" id="node-16"/><line y2="37.8" x2="92.890625" y1="37.8" x1="0" class="node-line-3"/></g><g transform="translate(46.4453125, 5)" text-anchor="middle" dominant-baseline="middle" alignment-baseline="middle" dy="1em"><g><rect style="stroke: none" class="background"/><text style="" y="-10.1"><tspan dy="1.1em" y="-0.1em" x="0" class="text-outer-tspan"><tspan font-weight="normal" class="text-inner-tspan" font-style="normal">Net</tspan><tspan font-weight="normal" class="text-inner-tspan" font-style="normal"> Worth</tspan></tspan></text></g></g></g><g transform="translate(371.1668700191108, 402.7422171402859)" class="mindmap-node section-3"><g><path d="M0 32.8 v-27.799999999999997 q0,-5 5,-5 h61.71875 q5,0 5,5 v32.8 H0 Z" class="node-bkg node-no-border" id="node-19"/><line y2="37.8" x2="71.71875" y1="37.8" x1="0" class="node-line-3"/></g><g transform="translate(35.859375, 5)" text-anchor="middle" dominant-baseline="middle" alignment-baseline="middle" dy="1em"><g><rect style="stroke: none" class="background"/><text style="" y="-10.1"><tspan dy="1.1em" y="-0.1em" x="0" class="text-outer-tspan"><tspan font-weight="normal" class="text-inner-tspan" font-style="normal">Income</tspan></tspan></text></g></g></g><g transform="translate(571.4939721818205, 23.79946826934929)" class="mindmap-node section-4"><g><path d="M0 32.8 v-27.799999999999997 q0,-5 5,-5 h57.84375 q5,0 5,5 v32.8 H0 Z" class="node-bkg node-no-border" id="node-23"/><line y2="37.8" x2="67.84375" y1="37.8" x1="0" class="node-line-4"/></g><g transform="translate(33.921875, 5)" text-anchor="middle" dominant-baseline="middle" alignment-baseline="middle" dy="1em"><g><rect style="stroke: none" class="background"/><text style="" y="-10.1"><tspan dy="1.1em" y="-0.1em" x="0" class="text-outer-tspan"><tspan font-weight="normal" class="text-inner-tspan" font-style="normal">People</tspan></tspan></text></g></g></g><g transform="translate(477.87760654815247, 15)" class="mindmap-node section-4"><g><path d="M0 32.8 v-27.799999999999997 q0,-5 5,-5 h45.203125 q5,0 5,5 v32.8 H0 Z" class="node-bkg node-no-border" id="node-24"/><line y2="37.8" x2="55.203125" y1="37.8" x1="0" class="node-line-4"/></g><g transform="translate(27.6015625, 5)" text-anchor="middle" dominant-baseline="middle" alignment-baseline="middle" dy="1em"><g><rect style="stroke: none" class="background"/><text style="" y="-10.1"><tspan dy="1.1em" y="-0.1em" x="0" class="text-outer-tspan"><tspan font-weight="normal" class="text-inner-tspan" font-style="normal">Time</tspan></tspan></text></g></g></g><g transform="translate(366.07389980426615, 116.37682730808001)" class="mindmap-node section-4"><g><path d="M0 32.8 v-27.799999999999997 q0,-5 5,-5 h58.1875 q5,0 5,5 v32.8 H0 Z" class="node-bkg node-no-border" id="node-25"/><line y2="37.8" x2="68.1875" y1="37.8" x1="0" class="node-line-4"/></g><g transform="translate(34.09375, 5)" text-anchor="middle" dominant-baseline="middle" alignment-baseline="middle" dy="1em"><g><rect style="stroke: none" class="background"/><text style="" y="-10.1"><tspan dy="1.1em" y="-0.1em" x="0" class="text-outer-tspan"><tspan font-weight="normal" class="text-inner-tspan" font-style="normal">Energy</tspan></tspan></text></g></g></g><g transform="translate(589.5662697821558, 178.2326107936168)" class="mindmap-node section-4"><g><path d="M0 32.8 v-27.799999999999997 q0,-5 5,-5 h87.0625 q5,0 5,5 v32.8 H0 Z" class="node-bkg node-no-border" id="node-26"/><line y2="37.8" x2="97.0625" y1="37.8" x1="0" class="node-line-4"/></g><g transform="translate(48.53125, 5)" text-anchor="middle" dominant-baseline="middle" alignment-baseline="middle" dy="1em"><g><rect style="stroke: none" class="background"/><text style="" y="-10.1"><tspan dy="1.1em" y="-0.1em" x="0" class="text-outer-tspan"><tspan font-weight="normal" class="text-inner-tspan" font-style="normal">Knowledge</tspan></tspan></text></g></g></g><g transform="translate(653.5344474326605, 85.35813457983818)" class="mindmap-node section-4"><g><path d="M0 32.8 v-27.799999999999997 q0,-5 5,-5 h68.734375 q5,0 5,5 v32.8 H0 Z" class="node-bkg node-no-border" id="node-27"/><line y2="37.8" x2="78.734375" y1="37.8" x1="0" class="node-line-4"/></g><g transform="translate(39.3671875, 5)" text-anchor="middle" dominant-baseline="middle" alignment-baseline="middle" dy="1em"><g><rect style="stroke: none" class="background"/><text style="" y="-10.1"><tspan dy="1.1em" y="-0.1em" x="0" class="text-outer-tspan"><tspan font-weight="normal" class="text-inner-tspan" font-style="normal">Material</tspan></tspan></text></g></g></g><g transform="translate(648.7482556902596, 449.46231908439677)" class="mindmap-node section-3"><g><path d="M0 32.8 v-27.799999999999997 q0,-5 5,-5 h53.9375 q5,0 5,5 v32.8 H0 Z" class="node-bkg node-no-border" id="node-17"/><line y2="37.8" x2="63.9375" y1="37.8" x1="0" class="node-line-3"/></g><g transform="translate(31.96875, 5)" text-anchor="middle" dominant-baseline="middle" alignment-baseline="middle" dy="1em"><g><rect style="stroke: none" class="background"/><text style="" y="-10.1"><tspan dy="1.1em" y="-0.1em" x="0" class="text-outer-tspan"><tspan font-weight="normal" class="text-inner-tspan" font-style="normal">Assets</tspan></tspan></text></g></g></g><g transform="translate(512.6211977685332, 487.7342591707736)" class="mindmap-node section-3"><g><path d="M0 32.8 v-27.799999999999997 q0,-5 5,-5 h79.9375 q5,0 5,5 v32.8 H0 Z" class="node-bkg node-no-border" id="node-18"/><line y2="37.8" x2="89.9375" y1="37.8" x1="0" class="node-line-3"/></g><g transform="translate(44.96875, 5)" text-anchor="middle" dominant-baseline="middle" alignment-baseline="middle" dy="1em"><g><rect style="stroke: none" class="background"/><text style="" y="-10.1"><tspan dy="1.1em" y="-0.1em" x="0" class="text-outer-tspan"><tspan font-weight="normal" class="text-inner-tspan" font-style="normal">Liabilities</tspan></tspan></text></g></g></g><g transform="translate(242.46174323763535, 465.5349967174045)" class="mindmap-node section-3"><g><path d="M0 32.8 v-27.799999999999997 q0,-5 5,-5 h70.171875 q5,0 5,5 v32.8 H0 Z" class="node-bkg node-no-border" id="node-20"/><line y2="37.8" x2="80.171875" y1="37.8" x1="0" class="node-line-3"/></g><g transform="translate(40.0859375, 5)" text-anchor="middle" dominant-baseline="middle" alignment-baseline="middle" dy="1em"><g><rect style="stroke: none" class="background"/><text style="" y="-10.1"><tspan dy="1.1em" y="-0.1em" x="0" class="text-outer-tspan"><tspan font-weight="normal" class="text-inner-tspan" font-style="normal">Revenue</tspan></tspan></text></g></g></g><g transform="translate(371.45662675250946, 495.3442440914557)" class="mindmap-node section-3"><g><path d="M0 32.8 v-27.799999999999997 q0,-5 5,-5 h74.65625 q5,0 5,5 v32.8 H0 Z" class="node-bkg node-no-border" id="node-21"/><line y2="37.8" x2="84.65625" y1="37.8" x1="0" class="node-line-3"/></g><g transform="translate(42.328125, 5)" text-anchor="middle" dominant-baseline="middle" alignment-baseline="middle" dy="1em"><g><rect style="stroke: none" class="background"/><text style="" y="-10.1"><tspan dy="1.1em" y="-0.1em" x="0" class="text-outer-tspan"><tspan font-weight="normal" class="text-inner-tspan" font-style="normal">Expenses</tspan></tspan></text></g></g></g></g></svg>