<svg aria-roledescription="er" role="graphics-document document" viewBox="0 0 623.125 643.1015625" style="max-width: 623.125px; background-color: white;" xmlns:xlink="http://www.w3.org/1999/xlink" xmlns="http://www.w3.org/2000/svg" width="100%" id="my-svg"><style>#my-svg{font-family:"trebuchet ms",verdana,arial,sans-serif;font-size:16px;fill:#333;}#my-svg .error-icon{fill:#552222;}#my-svg .error-text{fill:#552222;stroke:#552222;}#my-svg .edge-thickness-normal{stroke-width:1px;}#my-svg .edge-thickness-thick{stroke-width:3.5px;}#my-svg .edge-pattern-solid{stroke-dasharray:0;}#my-svg .edge-thickness-invisible{stroke-width:0;fill:none;}#my-svg .edge-pattern-dashed{stroke-dasharray:3;}#my-svg .edge-pattern-dotted{stroke-dasharray:2;}#my-svg .marker{fill:#333333;stroke:#333333;}#my-svg .marker.cross{stroke:#333333;}#my-svg svg{font-family:"trebuchet ms",verdana,arial,sans-serif;font-size:16px;}#my-svg p{margin:0;}#my-svg .entityBox{fill:#ECECFF;stroke:#9370DB;}#my-svg .attributeBoxOdd{fill:#ffffff;stroke:#9370DB;}#my-svg .attributeBoxEven{fill:#f2f2f2;stroke:#9370DB;}#my-svg .relationshipLabelBox{fill:hsl(80, 100%, 96.2745098039%);opacity:0.7;background-color:hsl(80, 100%, 96.2745098039%);}#my-svg .relationshipLabelBox rect{opacity:0.5;}#my-svg .relationshipLine{stroke:#333333;}#my-svg .entityTitleText{text-anchor:middle;font-size:18px;fill:#333;}#my-svg #MD_PARENT_START{fill:#f5f5f5!important;stroke:#333333!important;stroke-width:1;}#my-svg #MD_PARENT_END{fill:#f5f5f5!important;stroke:#333333!important;stroke-width:1;}#my-svg :root{--mermaid-font-family:"trebuchet ms",verdana,arial,sans-serif;}</style><g/><defs><marker orient="auto" markerHeight="240" markerWidth="190" refY="7" refX="0" id="MD_PARENT_START"><path d="M 18,7 L9,13 L1,7 L9,1 Z"/></marker></defs><defs><marker orient="auto" markerHeight="28" markerWidth="20" refY="7" refX="19" id="MD_PARENT_END"><path d="M 18,7 L9,13 L1,7 L9,1 Z"/></marker></defs><defs><marker orient="auto" markerHeight="18" markerWidth="18" refY="9" refX="0" id="ONLY_ONE_START"><path d="M9,0 L9,18 M15,0 L15,18" fill="none" stroke="gray"/></marker></defs><defs><marker orient="auto" markerHeight="18" markerWidth="18" refY="9" refX="18" id="ONLY_ONE_END"><path d="M3,0 L3,18 M9,0 L9,18" fill="none" stroke="gray"/></marker></defs><defs><marker orient="auto" markerHeight="18" markerWidth="30" refY="9" refX="0" id="ZERO_OR_ONE_START"><circle r="6" cy="9" cx="21" fill="white" stroke="gray"/><path d="M9,0 L9,18" fill="none" stroke="gray"/></marker></defs><defs><marker orient="auto" markerHeight="18" markerWidth="30" refY="9" refX="30" id="ZERO_OR_ONE_END"><circle r="6" cy="9" cx="9" fill="white" stroke="gray"/><path d="M21,0 L21,18" fill="none" stroke="gray"/></marker></defs><defs><marker orient="auto" markerHeight="36" markerWidth="45" refY="18" refX="18" id="ONE_OR_MORE_START"><path d="M0,18 Q 18,0 36,18 Q 18,36 0,18 M42,9 L42,27" fill="none" stroke="gray"/></marker></defs><defs><marker orient="auto" markerHeight="36" markerWidth="45" refY="18" refX="27" id="ONE_OR_MORE_END"><path d="M3,9 L3,27 M9,18 Q27,0 45,18 Q27,36 9,18" fill="none" stroke="gray"/></marker></defs><defs><marker orient="auto" markerHeight="36" markerWidth="57" refY="18" refX="18" id="ZERO_OR_MORE_START"><circle r="6" cy="18" cx="48" fill="white" stroke="gray"/><path d="M0,18 Q18,0 36,18 Q18,36 0,18" fill="none" stroke="gray"/></marker></defs><defs><marker orient="auto" markerHeight="36" markerWidth="57" refY="18" refX="39" id="ZERO_OR_MORE_END"><circle r="6" cy="18" cx="9" fill="white" stroke="gray"/><path d="M21,18 Q39,0 57,18 Q39,36 21,18" fill="none" stroke="gray"/></marker></defs><path style="stroke: gray; fill: none;" marker-start="url(#ONLY_ONE_START)" marker-end="url(#ZERO_OR_MORE_END)" d="M86.969,154.367L86.969,162.701C86.969,171.034,86.969,187.701,86.969,204.367C86.969,221.034,86.969,237.701,86.969,246.034L86.969,254.367" class="er relationshipLine"/><path style="stroke: gray; fill: none;" marker-start="url(#ONLY_ONE_START)" marker-end="url(#ZERO_OR_MORE_END)" d="M86.969,432.918L86.969,441.251C86.969,449.585,86.969,466.251,114.259,485.995C141.549,505.739,196.13,528.56,223.421,539.971L250.711,551.381" class="er relationshipLine"/><path style="stroke: gray; fill: none;" marker-start="url(#ONLY_ONE_START)" marker-end="url(#ZERO_OR_MORE_END)" d="M314.398,410.872L314.398,422.88C314.398,434.887,314.398,458.903,314.398,479.244C314.398,499.585,314.398,516.251,314.398,524.585L314.398,532.918" class="er relationshipLine"/><path style="stroke: gray; fill: none;" marker-start="url(#ONLY_ONE_START)" marker-end="url(#ZERO_OR_MORE_END)" d="M538.992,399.78L538.992,413.637C538.992,427.493,538.992,455.205,512.174,480.416C485.357,505.627,431.721,528.336,404.904,539.69L378.086,551.045" class="er relationshipLine"/><g transform="translate(23.078125,20 )" id="entity-AIRLINE-144c3907-5e42-5546-a1ed-b20010ee63c9"><rect height="134.36719131469727" width="127.78125" y="0" x="0" class="er entityBox"/><text style="dominant-baseline: middle; text-anchor: middle; font-size: 12px;" transform="translate(63.890625,12)" y="0" x="0" id="text-entity-AIRLINE-144c3907-5e42-5546-a1ed-b20010ee63c9" class="er entityLabel">AIRLINE</text><rect height="22" width="35.75" y="24" x="0" class="er attributeBoxOdd"/><text style="dominant-baseline: middle; font-size: 10.2px;" transform="translate(5,35)" y="0" x="0" id="text-entity-AIRLINE-144c3907-5e42-5546-a1ed-b20010ee63c9-attr-1-type" class="er entityLabel">int</text><rect height="22" width="70.46875" y="24" x="35.75" class="er attributeBoxOdd"/><text style="dominant-baseline: middle; font-size: 10.2px;" transform="translate(40.75,35)" y="0" x="0" id="text-entity-AIRLINE-144c3907-5e42-5546-a1ed-b20010ee63c9-attr-1-name" class="er entityLabel">airlineId</text><rect height="22" width="21.5625" y="24" x="106.21875" class="er attributeBoxOdd"/><text style="dominant-baseline: middle; font-size: 10.2px;" transform="translate(111.21875,35)" y="0" x="0" id="text-entity-AIRLINE-144c3907-5e42-5546-a1ed-b20010ee63c9-attr-1-key" class="er entityLabel">PK</text><rect height="22.091797828674316" width="35.75" y="46" x="0" class="er attributeBoxEven"/><text style="dominant-baseline: middle; font-size: 10.2px;" transform="translate(5,57.04589891433716)" y="0" x="0" id="text-entity-AIRLINE-144c3907-5e42-5546-a1ed-b20010ee63c9-attr-2-type" class="er entityLabel">string</text><rect height="22.091797828674316" width="70.46875" y="46" x="35.75" class="er attributeBoxEven"/><text style="dominant-baseline: middle; font-size: 10.2px;" transform="translate(40.75,57.04589891433716)" y="0" x="0" id="text-entity-AIRLINE-144c3907-5e42-5546-a1ed-b20010ee63c9-attr-2-name" class="er entityLabel">name</text><rect height="22.091797828674316" width="21.5625" y="46" x="106.21875" class="er attributeBoxEven"/><text style="dominant-baseline: middle; font-size: 10.2px;" transform="translate(111.21875,57.04589891433716)" y="0" x="0" id="text-entity-AIRLINE-144c3907-5e42-5546-a1ed-b20010ee63c9-attr-2-key" class="er entityLabel"/><rect height="22.091797828674316" width="35.75" y="68.09179782867432" x="0" class="er attributeBoxOdd"/><text style="dominant-baseline: middle; font-size: 10.2px;" transform="translate(5,79.13769674301147)" y="0" x="0" id="text-entity-AIRLINE-144c3907-5e42-5546-a1ed-b20010ee63c9-attr-3-type" class="er entityLabel">string</text><rect height="22.091797828674316" width="70.46875" y="68.09179782867432" x="35.75" class="er attributeBoxOdd"/><text style="dominant-baseline: middle; font-size: 10.2px;" transform="translate(40.75,79.13769674301147)" y="0" x="0" id="text-entity-AIRLINE-144c3907-5e42-5546-a1ed-b20010ee63c9-attr-3-name" class="er entityLabel">country</text><rect height="22.091797828674316" width="21.5625" y="68.09179782867432" x="106.21875" class="er attributeBoxOdd"/><text style="dominant-baseline: middle; font-size: 10.2px;" transform="translate(111.21875,79.13769674301147)" y="0" x="0" id="text-entity-AIRLINE-144c3907-5e42-5546-a1ed-b20010ee63c9-attr-3-key" class="er entityLabel"/><rect height="22.091797828674316" width="35.75" y="90.18359565734863" x="0" class="er attributeBoxEven"/><text style="dominant-baseline: middle; font-size: 10.2px;" transform="translate(5,101.22949457168579)" y="0" x="0" id="text-entity-AIRLINE-144c3907-5e42-5546-a1ed-b20010ee63c9-attr-4-type" class="er entityLabel">string</text><rect height="22.091797828674316" width="70.46875" y="90.18359565734863" x="35.75" class="er attributeBoxEven"/><text style="dominant-baseline: middle; font-size: 10.2px;" transform="translate(40.75,101.22949457168579)" y="0" x="0" id="text-entity-AIRLINE-144c3907-5e42-5546-a1ed-b20010ee63c9-attr-4-name" class="er entityLabel">headquarters</text><rect height="22.091797828674316" width="21.5625" y="90.18359565734863" x="106.21875" class="er attributeBoxEven"/><text style="dominant-baseline: middle; font-size: 10.2px;" transform="translate(111.21875,101.22949457168579)" y="0" x="0" id="text-entity-AIRLINE-144c3907-5e42-5546-a1ed-b20010ee63c9-attr-4-key" class="er entityLabel"/><rect height="22.091797828674316" width="35.75" y="112.27539348602295" x="0" class="er attributeBoxOdd"/><text style="dominant-baseline: middle; font-size: 10.2px;" transform="translate(5,123.32129240036011)" y="0" x="0" id="text-entity-AIRLINE-144c3907-5e42-5546-a1ed-b20010ee63c9-attr-5-type" class="er entityLabel">string</text><rect height="22.091797828674316" width="70.46875" y="112.27539348602295" x="35.75" class="er attributeBoxOdd"/><text style="dominant-baseline: middle; font-size: 10.2px;" transform="translate(40.75,123.32129240036011)" y="0" x="0" id="text-entity-AIRLINE-144c3907-5e42-5546-a1ed-b20010ee63c9-attr-5-name" class="er entityLabel">website</text><rect height="22.091797828674316" width="21.5625" y="112.27539348602295" x="106.21875" class="er attributeBoxOdd"/><text style="dominant-baseline: middle; font-size: 10.2px;" transform="translate(111.21875,123.32129240036011)" y="0" x="0" id="text-entity-AIRLINE-144c3907-5e42-5546-a1ed-b20010ee63c9-attr-5-key" class="er entityLabel"/></g><g transform="translate(20,254.3671875 )" id="entity-FLIGHT-bec83506-9f98-517a-ac30-7b3b3dfd19ff"><rect height="178.55078506469727" width="133.9375" y="0" x="0" class="er entityBox"/><text style="dominant-baseline: middle; text-anchor: middle; font-size: 12px;" transform="translate(66.96875,12)" y="0" x="0" id="text-entity-FLIGHT-bec83506-9f98-517a-ac30-7b3b3dfd19ff" class="er entityLabel">FLIGHT</text><rect height="22.091796875" width="35.75" y="24" x="0" class="er attributeBoxOdd"/><text style="dominant-baseline: middle; font-size: 10.2px;" transform="translate(5,35.0458984375)" y="0" x="0" id="text-entity-FLIGHT-bec83506-9f98-517a-ac30-7b3b3dfd19ff-attr-1-type" class="er entityLabel">int</text><rect height="22.091796875" width="76.625" y="24" x="35.75" class="er attributeBoxOdd"/><text style="dominant-baseline: middle; font-size: 10.2px;" transform="translate(40.75,35.0458984375)" y="0" x="0" id="text-entity-FLIGHT-bec83506-9f98-517a-ac30-7b3b3dfd19ff-attr-1-name" class="er entityLabel">flightId</text><rect height="22.091796875" width="21.5625" y="24" x="112.375" class="er attributeBoxOdd"/><text style="dominant-baseline: middle; font-size: 10.2px;" transform="translate(117.375,35.0458984375)" y="0" x="0" id="text-entity-FLIGHT-bec83506-9f98-517a-ac30-7b3b3dfd19ff-attr-1-key" class="er entityLabel">PK</text><rect height="22.091797828674316" width="35.75" y="46.091796875" x="0" class="er attributeBoxEven"/><text style="dominant-baseline: middle; font-size: 10.2px;" transform="translate(5,57.13769578933716)" y="0" x="0" id="text-entity-FLIGHT-bec83506-9f98-517a-ac30-7b3b3dfd19ff-attr-2-type" class="er entityLabel">string</text><rect height="22.091797828674316" width="76.625" y="46.091796875" x="35.75" class="er attributeBoxEven"/><text style="dominant-baseline: middle; font-size: 10.2px;" transform="translate(40.75,57.13769578933716)" y="0" x="0" id="text-entity-FLIGHT-bec83506-9f98-517a-ac30-7b3b3dfd19ff-attr-2-name" class="er entityLabel">flightNumber</text><rect height="22.091797828674316" width="21.5625" y="46.091796875" x="112.375" class="er attributeBoxEven"/><text style="dominant-baseline: middle; font-size: 10.2px;" transform="translate(117.375,57.13769578933716)" y="0" x="0" id="text-entity-FLIGHT-bec83506-9f98-517a-ac30-7b3b3dfd19ff-attr-2-key" class="er entityLabel"/><rect height="22.091797828674316" width="35.75" y="68.18359470367432" x="0" class="er attributeBoxOdd"/><text style="dominant-baseline: middle; font-size: 10.2px;" transform="translate(5,79.22949361801147)" y="0" x="0" id="text-entity-FLIGHT-bec83506-9f98-517a-ac30-7b3b3dfd19ff-attr-3-type" class="er entityLabel">string</text><rect height="22.091797828674316" width="76.625" y="68.18359470367432" x="35.75" class="er attributeBoxOdd"/><text style="dominant-baseline: middle; font-size: 10.2px;" transform="translate(40.75,79.22949361801147)" y="0" x="0" id="text-entity-FLIGHT-bec83506-9f98-517a-ac30-7b3b3dfd19ff-attr-3-name" class="er entityLabel">origin</text><rect height="22.091797828674316" width="21.5625" y="68.18359470367432" x="112.375" class="er attributeBoxOdd"/><text style="dominant-baseline: middle; font-size: 10.2px;" transform="translate(117.375,79.22949361801147)" y="0" x="0" id="text-entity-FLIGHT-bec83506-9f98-517a-ac30-7b3b3dfd19ff-attr-3-key" class="er entityLabel"/><rect height="22.091797828674316" width="35.75" y="90.27539253234863" x="0" class="er attributeBoxEven"/><text style="dominant-baseline: middle; font-size: 10.2px;" transform="translate(5,101.32129144668579)" y="0" x="0" id="text-entity-FLIGHT-bec83506-9f98-517a-ac30-7b3b3dfd19ff-attr-4-type" class="er entityLabel">string</text><rect height="22.091797828674316" width="76.625" y="90.27539253234863" x="35.75" class="er attributeBoxEven"/><text style="dominant-baseline: middle; font-size: 10.2px;" transform="translate(40.75,101.32129144668579)" y="0" x="0" id="text-entity-FLIGHT-bec83506-9f98-517a-ac30-7b3b3dfd19ff-attr-4-name" class="er entityLabel">destination</text><rect height="22.091797828674316" width="21.5625" y="90.27539253234863" x="112.375" class="er attributeBoxEven"/><text style="dominant-baseline: middle; font-size: 10.2px;" transform="translate(117.375,101.32129144668579)" y="0" x="0" id="text-entity-FLIGHT-bec83506-9f98-517a-ac30-7b3b3dfd19ff-attr-4-key" class="er entityLabel"/><rect height="22.091796875" width="35.75" y="112.36719036102295" x="0" class="er attributeBoxOdd"/><text style="dominant-baseline: middle; font-size: 10.2px;" transform="translate(5,123.41308879852295)" y="0" x="0" id="text-entity-FLIGHT-bec83506-9f98-517a-ac30-7b3b3dfd19ff-attr-5-type" class="er entityLabel">date</text><rect height="22.091796875" width="76.625" y="112.36719036102295" x="35.75" class="er attributeBoxOdd"/><text style="dominant-baseline: middle; font-size: 10.2px;" transform="translate(40.75,123.41308879852295)" y="0" x="0" id="text-entity-FLIGHT-bec83506-9f98-517a-ac30-7b3b3dfd19ff-attr-5-name" class="er entityLabel">departureDate</text><rect height="22.091796875" width="21.5625" y="112.36719036102295" x="112.375" class="er attributeBoxOdd"/><text style="dominant-baseline: middle; font-size: 10.2px;" transform="translate(117.375,123.41308879852295)" y="0" x="0" id="text-entity-FLIGHT-bec83506-9f98-517a-ac30-7b3b3dfd19ff-attr-5-key" class="er entityLabel"/><rect height="22" width="35.75" y="134.45898723602295" x="0" class="er attributeBoxEven"/><text style="dominant-baseline: middle; font-size: 10.2px;" transform="translate(5,145.45898723602295)" y="0" x="0" id="text-entity-FLIGHT-bec83506-9f98-517a-ac30-7b3b3dfd19ff-attr-6-type" class="er entityLabel">date</text><rect height="22" width="76.625" y="134.45898723602295" x="35.75" class="er attributeBoxEven"/><text style="dominant-baseline: middle; font-size: 10.2px;" transform="translate(40.75,145.45898723602295)" y="0" x="0" id="text-entity-FLIGHT-bec83506-9f98-517a-ac30-7b3b3dfd19ff-attr-6-name" class="er entityLabel">arrivalDate</text><rect height="22" width="21.5625" y="134.45898723602295" x="112.375" class="er attributeBoxEven"/><text style="dominant-baseline: middle; font-size: 10.2px;" transform="translate(117.375,145.45898723602295)" y="0" x="0" id="text-entity-FLIGHT-bec83506-9f98-517a-ac30-7b3b3dfd19ff-attr-6-key" class="er entityLabel"/><rect height="22.091797828674316" width="35.75" y="156.45898723602295" x="0" class="er attributeBoxOdd"/><text style="dominant-baseline: middle; font-size: 10.2px;" transform="translate(5,167.5048861503601)" y="0" x="0" id="text-entity-FLIGHT-bec83506-9f98-517a-ac30-7b3b3dfd19ff-attr-7-type" class="er entityLabel">float</text><rect height="22.091797828674316" width="76.625" y="156.45898723602295" x="35.75" class="er attributeBoxOdd"/><text style="dominant-baseline: middle; font-size: 10.2px;" transform="translate(40.75,167.5048861503601)" y="0" x="0" id="text-entity-FLIGHT-bec83506-9f98-517a-ac30-7b3b3dfd19ff-attr-7-name" class="er entityLabel">price</text><rect height="22.091797828674316" width="21.5625" y="156.45898723602295" x="112.375" class="er attributeBoxOdd"/><text style="dominant-baseline: middle; font-size: 10.2px;" transform="translate(117.375,167.5048861503601)" y="0" x="0" id="text-entity-FLIGHT-bec83506-9f98-517a-ac30-7b3b3dfd19ff-attr-7-key" class="er entityLabel"/></g><g transform="translate(250.7109375,532.91796875 )" id="entity-RESERVATION-5109fe3f-ee2c-5a88-9977-a90a113e1f41"><rect height="90.18359470367432" width="127.375" y="0" x="0" class="er entityBox"/><text style="dominant-baseline: middle; text-anchor: middle; font-size: 12px;" transform="translate(63.6875,12)" y="0" x="0" id="text-entity-RESERVATION-5109fe3f-ee2c-5a88-9977-a90a113e1f41" class="er entityLabel">RESERVATION</text><rect height="22" width="35.75" y="24" x="0" class="er attributeBoxOdd"/><text style="dominant-baseline: middle; font-size: 10.2px;" transform="translate(5,35)" y="0" x="0" id="text-entity-RESERVATION-5109fe3f-ee2c-5a88-9977-a90a113e1f41-attr-1-type" class="er entityLabel">int</text><rect height="22" width="70.0625" y="24" x="35.75" class="er attributeBoxOdd"/><text style="dominant-baseline: middle; font-size: 10.2px;" transform="translate(40.75,35)" y="0" x="0" id="text-entity-RESERVATION-5109fe3f-ee2c-5a88-9977-a90a113e1f41-attr-1-name" class="er entityLabel">reservationId</text><rect height="22" width="21.5625" y="24" x="105.8125" class="er attributeBoxOdd"/><text style="dominant-baseline: middle; font-size: 10.2px;" transform="translate(110.8125,35)" y="0" x="0" id="text-entity-RESERVATION-5109fe3f-ee2c-5a88-9977-a90a113e1f41-attr-1-key" class="er entityLabel">PK</text><rect height="22.091796875" width="35.75" y="46" x="0" class="er attributeBoxEven"/><text style="dominant-baseline: middle; font-size: 10.2px;" transform="translate(5,57.0458984375)" y="0" x="0" id="text-entity-RESERVATION-5109fe3f-ee2c-5a88-9977-a90a113e1f41-attr-2-type" class="er entityLabel">date</text><rect height="22.091796875" width="70.0625" y="46" x="35.75" class="er attributeBoxEven"/><text style="dominant-baseline: middle; font-size: 10.2px;" transform="translate(40.75,57.0458984375)" y="0" x="0" id="text-entity-RESERVATION-5109fe3f-ee2c-5a88-9977-a90a113e1f41-attr-2-name" class="er entityLabel">bookingDate</text><rect height="22.091796875" width="21.5625" y="46" x="105.8125" class="er attributeBoxEven"/><text style="dominant-baseline: middle; font-size: 10.2px;" transform="translate(110.8125,57.0458984375)" y="0" x="0" id="text-entity-RESERVATION-5109fe3f-ee2c-5a88-9977-a90a113e1f41-attr-2-key" class="er entityLabel"/><rect height="22.091797828674316" width="35.75" y="68.091796875" x="0" class="er attributeBoxOdd"/><text style="dominant-baseline: middle; font-size: 10.2px;" transform="translate(5,79.13769578933716)" y="0" x="0" id="text-entity-RESERVATION-5109fe3f-ee2c-5a88-9977-a90a113e1f41-attr-3-type" class="er entityLabel">string</text><rect height="22.091797828674316" width="70.0625" y="68.091796875" x="35.75" class="er attributeBoxOdd"/><text style="dominant-baseline: middle; font-size: 10.2px;" transform="translate(40.75,79.13769578933716)" y="0" x="0" id="text-entity-RESERVATION-5109fe3f-ee2c-5a88-9977-a90a113e1f41-attr-3-name" class="er entityLabel">status</text><rect height="22.091797828674316" width="21.5625" y="68.091796875" x="105.8125" class="er attributeBoxOdd"/><text style="dominant-baseline: middle; font-size: 10.2px;" transform="translate(110.8125,79.13769578933716)" y="0" x="0" id="text-entity-RESERVATION-5109fe3f-ee2c-5a88-9977-a90a113e1f41-attr-3-key" class="er entityLabel"/></g><g transform="translate(253.9375,276.4130859375 )" id="entity-PASSENGER-2d855d16-fcdd-5af6-8144-002de8b40bc8"><rect height="134.45898818969727" width="120.921875" y="0" x="0" class="er entityBox"/><text style="dominant-baseline: middle; text-anchor: middle; font-size: 12px;" transform="translate(60.4609375,12)" y="0" x="0" id="text-entity-PASSENGER-2d855d16-fcdd-5af6-8144-002de8b40bc8" class="er entityLabel">PASSENGER</text><rect height="22.091796875" width="35.75" y="24" x="0" class="er attributeBoxOdd"/><text style="dominant-baseline: middle; font-size: 10.2px;" transform="translate(5,35.0458984375)" y="0" x="0" id="text-entity-PASSENGER-2d855d16-fcdd-5af6-8144-002de8b40bc8-attr-1-type" class="er entityLabel">int</text><rect height="22.091796875" width="63.609375" y="24" x="35.75" class="er attributeBoxOdd"/><text style="dominant-baseline: middle; font-size: 10.2px;" transform="translate(40.75,35.0458984375)" y="0" x="0" id="text-entity-PASSENGER-2d855d16-fcdd-5af6-8144-002de8b40bc8-attr-1-name" class="er entityLabel">passengerId</text><rect height="22.091796875" width="21.5625" y="24" x="99.359375" class="er attributeBoxOdd"/><text style="dominant-baseline: middle; font-size: 10.2px;" transform="translate(104.359375,35.0458984375)" y="0" x="0" id="text-entity-PASSENGER-2d855d16-fcdd-5af6-8144-002de8b40bc8-attr-1-key" class="er entityLabel">PK</text><rect height="22.091797828674316" width="35.75" y="46.091796875" x="0" class="er attributeBoxEven"/><text style="dominant-baseline: middle; font-size: 10.2px;" transform="translate(5,57.13769578933716)" y="0" x="0" id="text-entity-PASSENGER-2d855d16-fcdd-5af6-8144-002de8b40bc8-attr-2-type" class="er entityLabel">string</text><rect height="22.091797828674316" width="63.609375" y="46.091796875" x="35.75" class="er attributeBoxEven"/><text style="dominant-baseline: middle; font-size: 10.2px;" transform="translate(40.75,57.13769578933716)" y="0" x="0" id="text-entity-PASSENGER-2d855d16-fcdd-5af6-8144-002de8b40bc8-attr-2-name" class="er entityLabel">name</text><rect height="22.091797828674316" width="21.5625" y="46.091796875" x="99.359375" class="er attributeBoxEven"/><text style="dominant-baseline: middle; font-size: 10.2px;" transform="translate(104.359375,57.13769578933716)" y="0" x="0" id="text-entity-PASSENGER-2d855d16-fcdd-5af6-8144-002de8b40bc8-attr-2-key" class="er entityLabel"/><rect height="22.091797828674316" width="35.75" y="68.18359470367432" x="0" class="er attributeBoxOdd"/><text style="dominant-baseline: middle; font-size: 10.2px;" transform="translate(5,79.22949361801147)" y="0" x="0" id="text-entity-PASSENGER-2d855d16-fcdd-5af6-8144-002de8b40bc8-attr-3-type" class="er entityLabel">string</text><rect height="22.091797828674316" width="63.609375" y="68.18359470367432" x="35.75" class="er attributeBoxOdd"/><text style="dominant-baseline: middle; font-size: 10.2px;" transform="translate(40.75,79.22949361801147)" y="0" x="0" id="text-entity-PASSENGER-2d855d16-fcdd-5af6-8144-002de8b40bc8-attr-3-name" class="er entityLabel">email</text><rect height="22.091797828674316" width="21.5625" y="68.18359470367432" x="99.359375" class="er attributeBoxOdd"/><text style="dominant-baseline: middle; font-size: 10.2px;" transform="translate(104.359375,79.22949361801147)" y="0" x="0" id="text-entity-PASSENGER-2d855d16-fcdd-5af6-8144-002de8b40bc8-attr-3-key" class="er entityLabel"/><rect height="22.091797828674316" width="35.75" y="90.27539253234863" x="0" class="er attributeBoxEven"/><text style="dominant-baseline: middle; font-size: 10.2px;" transform="translate(5,101.32129144668579)" y="0" x="0" id="text-entity-PASSENGER-2d855d16-fcdd-5af6-8144-002de8b40bc8-attr-4-type" class="er entityLabel">string</text><rect height="22.091797828674316" width="63.609375" y="90.27539253234863" x="35.75" class="er attributeBoxEven"/><text style="dominant-baseline: middle; font-size: 10.2px;" transform="translate(40.75,101.32129144668579)" y="0" x="0" id="text-entity-PASSENGER-2d855d16-fcdd-5af6-8144-002de8b40bc8-attr-4-name" class="er entityLabel">phone</text><rect height="22.091797828674316" width="21.5625" y="90.27539253234863" x="99.359375" class="er attributeBoxEven"/><text style="dominant-baseline: middle; font-size: 10.2px;" transform="translate(104.359375,101.32129144668579)" y="0" x="0" id="text-entity-PASSENGER-2d855d16-fcdd-5af6-8144-002de8b40bc8-attr-4-key" class="er entityLabel"/><rect height="22.091797828674316" width="35.75" y="112.36719036102295" x="0" class="er attributeBoxOdd"/><text style="dominant-baseline: middle; font-size: 10.2px;" transform="translate(5,123.41308927536011)" y="0" x="0" id="text-entity-PASSENGER-2d855d16-fcdd-5af6-8144-002de8b40bc8-attr-5-type" class="er entityLabel">string</text><rect height="22.091797828674316" width="63.609375" y="112.36719036102295" x="35.75" class="er attributeBoxOdd"/><text style="dominant-baseline: middle; font-size: 10.2px;" transform="translate(40.75,123.41308927536011)" y="0" x="0" id="text-entity-PASSENGER-2d855d16-fcdd-5af6-8144-002de8b40bc8-attr-5-name" class="er entityLabel">nationality</text><rect height="22.091797828674316" width="21.5625" y="112.36719036102295" x="99.359375" class="er attributeBoxOdd"/><text style="dominant-baseline: middle; font-size: 10.2px;" transform="translate(104.359375,123.41308927536011)" y="0" x="0" id="text-entity-PASSENGER-2d855d16-fcdd-5af6-8144-002de8b40bc8-attr-5-key" class="er entityLabel"/></g><g transform="translate(474.859375,287.5048828125 )" id="entity-PAYMENT-9797eee8-7a01-5efe-aaa5-fb9a4f14957c"><rect height="112.27539157867432" width="128.265625" y="0" x="0" class="er entityBox"/><text style="dominant-baseline: middle; text-anchor: middle; font-size: 12px;" transform="translate(64.1328125,12)" y="0" x="0" id="text-entity-PAYMENT-9797eee8-7a01-5efe-aaa5-fb9a4f14957c" class="er entityLabel">PAYMENT</text><rect height="22.091796875" width="35.75" y="24" x="0" class="er attributeBoxOdd"/><text style="dominant-baseline: middle; font-size: 10.2px;" transform="translate(5,35.0458984375)" y="0" x="0" id="text-entity-PAYMENT-9797eee8-7a01-5efe-aaa5-fb9a4f14957c-attr-1-type" class="er entityLabel">int</text><rect height="22.091796875" width="70.953125" y="24" x="35.75" class="er attributeBoxOdd"/><text style="dominant-baseline: middle; font-size: 10.2px;" transform="translate(40.75,35.0458984375)" y="0" x="0" id="text-entity-PAYMENT-9797eee8-7a01-5efe-aaa5-fb9a4f14957c-attr-1-name" class="er entityLabel">paymentId</text><rect height="22.091796875" width="21.5625" y="24" x="106.703125" class="er attributeBoxOdd"/><text style="dominant-baseline: middle; font-size: 10.2px;" transform="translate(111.703125,35.0458984375)" y="0" x="0" id="text-entity-PAYMENT-9797eee8-7a01-5efe-aaa5-fb9a4f14957c-attr-1-key" class="er entityLabel">PK</text><rect height="22" width="35.75" y="46.091796875" x="0" class="er attributeBoxEven"/><text style="dominant-baseline: middle; font-size: 10.2px;" transform="translate(5,57.091796875)" y="0" x="0" id="text-entity-PAYMENT-9797eee8-7a01-5efe-aaa5-fb9a4f14957c-attr-2-type" class="er entityLabel">float</text><rect height="22" width="70.953125" y="46.091796875" x="35.75" class="er attributeBoxEven"/><text style="dominant-baseline: middle; font-size: 10.2px;" transform="translate(40.75,57.091796875)" y="0" x="0" id="text-entity-PAYMENT-9797eee8-7a01-5efe-aaa5-fb9a4f14957c-attr-2-name" class="er entityLabel">amount</text><rect height="22" width="21.5625" y="46.091796875" x="106.703125" class="er attributeBoxEven"/><text style="dominant-baseline: middle; font-size: 10.2px;" transform="translate(111.703125,57.091796875)" y="0" x="0" id="text-entity-PAYMENT-9797eee8-7a01-5efe-aaa5-fb9a4f14957c-attr-2-key" class="er entityLabel"/><rect height="22.091796875" width="35.75" y="68.091796875" x="0" class="er attributeBoxOdd"/><text style="dominant-baseline: middle; font-size: 10.2px;" transform="translate(5,79.1376953125)" y="0" x="0" id="text-entity-PAYMENT-9797eee8-7a01-5efe-aaa5-fb9a4f14957c-attr-3-type" class="er entityLabel">date</text><rect height="22.091796875" width="70.953125" y="68.091796875" x="35.75" class="er attributeBoxOdd"/><text style="dominant-baseline: middle; font-size: 10.2px;" transform="translate(40.75,79.1376953125)" y="0" x="0" id="text-entity-PAYMENT-9797eee8-7a01-5efe-aaa5-fb9a4f14957c-attr-3-name" class="er entityLabel">paymentDate</text><rect height="22.091796875" width="21.5625" y="68.091796875" x="106.703125" class="er attributeBoxOdd"/><text style="dominant-baseline: middle; font-size: 10.2px;" transform="translate(111.703125,79.1376953125)" y="0" x="0" id="text-entity-PAYMENT-9797eee8-7a01-5efe-aaa5-fb9a4f14957c-attr-3-key" class="er entityLabel"/><rect height="22.091797828674316" width="35.75" y="90.18359375" x="0" class="er attributeBoxEven"/><text style="dominant-baseline: middle; font-size: 10.2px;" transform="translate(5,101.22949266433716)" y="0" x="0" id="text-entity-PAYMENT-9797eee8-7a01-5efe-aaa5-fb9a4f14957c-attr-4-type" class="er entityLabel">string</text><rect height="22.091797828674316" width="70.953125" y="90.18359375" x="35.75" class="er attributeBoxEven"/><text style="dominant-baseline: middle; font-size: 10.2px;" transform="translate(40.75,101.22949266433716)" y="0" x="0" id="text-entity-PAYMENT-9797eee8-7a01-5efe-aaa5-fb9a4f14957c-attr-4-name" class="er entityLabel">method</text><rect height="22.091797828674316" width="21.5625" y="90.18359375" x="106.703125" class="er attributeBoxEven"/><text style="dominant-baseline: middle; font-size: 10.2px;" transform="translate(111.703125,101.22949266433716)" y="0" x="0" id="text-entity-PAYMENT-9797eee8-7a01-5efe-aaa5-fb9a4f14957c-attr-4-key" class="er entityLabel"/></g><rect height="14" width="46.8125" y="197.36700439453125" x="63.56275177001953" class="er relationshipLabelBox"/><text style="text-anchor: middle; dominant-baseline: middle; font-size: 12px;" y="204.36700439453125" x="86.96900177001953" id="rel1" class="er relationshipLabel">operates</text><rect height="13.999969482421875" width="63" y="501.1822967529297" x="120.98112487792969" class="er relationshipLabelBox"/><text style="text-anchor: middle; dominant-baseline: middle; font-size: 12px;" y="508.1822814941406" x="152.4811248779297" id="rel2" class="er relationshipLabel">reserved on</text><rect height="14" width="30.484375" y="464.89501953125" x="299.15582275390625" class="er relationshipLabelBox"/><text style="text-anchor: middle; dominant-baseline: middle; font-size: 12px;" y="471.89501953125" x="314.39801025390625" id="rel3" class="er relationshipLabel">books</text><rect height="14" width="46.28125" y="492.53961181640625" x="463.4244384765625" class="er relationshipLabelBox"/><text style="text-anchor: middle; dominant-baseline: middle; font-size: 12px;" y="499.53961181640625" x="486.5650634765625" id="rel4" class="er relationshipLabel">confirms</text></svg>