<svg aria-roledescription="gitGraph" role="graphics-document document" viewBox="-160.25 -34.70000076293945 868.25 504.70001220703125" style="max-width: 868.25px; background-color: white;" xmlns:xlink="http://www.w3.org/1999/xlink" xmlns="http://www.w3.org/2000/svg" width="100%" id="my-svg"><style>#my-svg{font-family:"trebuchet ms",verdana,arial,sans-serif;font-size:16px;fill:#333;}#my-svg .error-icon{fill:hsl(220.5882352941, 100%, 98.3333333333%);}#my-svg .error-text{fill:rgb(8.5000000002, 5.7500000001, 0);stroke:rgb(8.5000000002, 5.7500000001, 0);}#my-svg .edge-thickness-normal{stroke-width:1px;}#my-svg .edge-thickness-thick{stroke-width:3.5px;}#my-svg .edge-pattern-solid{stroke-dasharray:0;}#my-svg .edge-thickness-invisible{stroke-width:0;fill:none;}#my-svg .edge-pattern-dashed{stroke-dasharray:3;}#my-svg .edge-pattern-dotted{stroke-dasharray:2;}#my-svg .marker{fill:#0b0b0b;stroke:#0b0b0b;}#my-svg .marker.cross{stroke:#0b0b0b;}#my-svg svg{font-family:"trebuchet ms",verdana,arial,sans-serif;font-size:16px;}#my-svg p{margin:0;}#my-svg .commit-id,#my-svg .commit-msg,#my-svg .branch-label{fill:lightgrey;color:lightgrey;font-family:'trebuchet ms',verdana,arial,sans-serif;font-family:var(--mermaid-font-family);}#my-svg .branch-label0{fill:#333;}#my-svg .commit0{stroke:hsl(40.5882352941, 100%, 68.3333333333%);fill:hsl(40.5882352941, 100%, 68.3333333333%);}#my-svg .commit-highlight0{stroke:rgb(0, 52.2500000001, 161.5000000002);fill:rgb(0, 52.2500000001, 161.5000000002);}#my-svg .label0{fill:hsl(40.5882352941, 100%, 68.3333333333%);}#my-svg .arrow0{stroke:hsl(40.5882352941, 100%, 68.3333333333%);}#my-svg .branch-label1{fill:#333;}#my-svg .commit1{stroke:hsl(-79.4117647059, 100%, 68.3333333333%);fill:hsl(-79.4117647059, 100%, 68.3333333333%);}#my-svg .commit-highlight1{stroke:rgb(52.2500000001, 161.5000000002, 0);fill:rgb(52.2500000001, 161.5000000002, 0);}#my-svg .label1{fill:hsl(-79.4117647059, 100%, 68.3333333333%);}#my-svg .arrow1{stroke:hsl(-79.4117647059, 100%, 68.3333333333%);}#my-svg .branch-label2{fill:#333;}#my-svg .commit2{stroke:hsl(220.5882352941, 100%, 73.3333333333%);fill:hsl(220.5882352941, 100%, 73.3333333333%);}#my-svg .commit-highlight2{stroke:rgb(136.0000000002, 92.0000000001, 0);fill:rgb(136.0000000002, 92.0000000001, 0);}#my-svg .label2{fill:hsl(220.5882352941, 100%, 73.3333333333%);}#my-svg .arrow2{stroke:hsl(220.5882352941, 100%, 73.3333333333%);}#my-svg .branch-label3{fill:#333;}#my-svg .commit3{stroke:hsl(10.5882352941, 100%, 68.3333333333%);fill:hsl(10.5882352941, 100%, 68.3333333333%);}#my-svg .commit-highlight3{stroke:rgb(0, 133.0000000002, 161.5000000002);fill:rgb(0, 133.0000000002, 161.5000000002);}#my-svg .label3{fill:hsl(10.5882352941, 100%, 68.3333333333%);}#my-svg .arrow3{stroke:hsl(10.5882352941, 100%, 68.3333333333%);}#my-svg .branch-label4{fill:#333;}#my-svg .commit4{stroke:hsl(-19.4117647059, 100%, 68.3333333333%);fill:hsl(-19.4117647059, 100%, 68.3333333333%);}#my-svg .commit-highlight4{stroke:rgb(0, 161.5000000002, 109.2500000001);fill:rgb(0, 161.5000000002, 109.2500000001);}#my-svg .label4{fill:hsl(-19.4117647059, 100%, 68.3333333333%);}#my-svg .arrow4{stroke:hsl(-19.4117647059, 100%, 68.3333333333%);}#my-svg .branch-label5{fill:#333;}#my-svg .commit5{stroke:hsl(-49.4117647059, 100%, 68.3333333333%);fill:hsl(-49.4117647059, 100%, 68.3333333333%);}#my-svg .commit-highlight5{stroke:rgb(0, 161.5000000002, 28.5);fill:rgb(0, 161.5000000002, 28.5);}#my-svg .label5{fill:hsl(-49.4117647059, 100%, 68.3333333333%);}#my-svg .arrow5{stroke:hsl(-49.4117647059, 100%, 68.3333333333%);}#my-svg .branch-label6{fill:#333;}#my-svg .commit6{stroke:hsl(100.5882352941, 100%, 68.3333333333%);fill:hsl(100.5882352941, 100%, 68.3333333333%);}#my-svg .commit-highlight6{stroke:rgb(109.2500000001, 0, 161.5000000002);fill:rgb(109.2500000001, 0, 161.5000000002);}#my-svg .label6{fill:hsl(100.5882352941, 100%, 68.3333333333%);}#my-svg .arrow6{stroke:hsl(100.5882352941, 100%, 68.3333333333%);}#my-svg .branch-label7{fill:#333;}#my-svg .commit7{stroke:hsl(160.5882352941, 100%, 68.3333333333%);fill:hsl(160.5882352941, 100%, 68.3333333333%);}#my-svg .commit-highlight7{stroke:rgb(161.5000000002, 0, 52.2500000001);fill:rgb(161.5000000002, 0, 52.2500000001);}#my-svg .label7{fill:hsl(160.5882352941, 100%, 68.3333333333%);}#my-svg .arrow7{stroke:hsl(160.5882352941, 100%, 68.3333333333%);}#my-svg .branch{stroke-width:1;stroke:#0b0b0b;stroke-dasharray:2;}#my-svg .commit-label{font-size:10px;fill:rgb(11.0000000001, 34.0000000002, 0);}#my-svg .commit-label-bkg{font-size:10px;fill:hsl(-79.4117647059, 100%, 93.3333333333%);opacity:0.5;}#my-svg .tag-label{font-size:10px;fill:#333;}#my-svg .tag-label-bkg{fill:#fff4dd;stroke:hsl(40.5882352941, 60%, 83.3333333333%);}#my-svg .tag-hole{fill:#333;}#my-svg .commit-merge{stroke:#fff4dd;fill:#fff4dd;}#my-svg .commit-reverse{stroke:#fff4dd;fill:#fff4dd;stroke-width:3;}#my-svg .commit-highlight-inner{stroke:#fff4dd;fill:#fff4dd;}#my-svg .arrow{stroke-width:8;stroke-linecap:round;fill:none;}#my-svg .gitTitleText{text-anchor:middle;font-size:18px;fill:#333;}#my-svg :root{--mermaid-font-family:"trebuchet ms",verdana,arial,sans-serif;}</style><g/><g class="commit-bullets"/><g class="commit-labels"/><g><line class="branch branch0" y2="0" x2="700" y1="0" x1="0"/><rect transform="translate(-19, -9.5)" height="23" width="53" y="-1.5" x="-69" ry="4" rx="4" class="branchLabelBkg label0"/><g class="branchLabel"><g transform="translate(-79, -10.5)" class="label branch-label0"><text><tspan class="row" x="0" dy="1em" xml:space="preserve">main</tspan></text></g></g><line class="branch branch1" y2="90" x2="700" y1="90" x1="0"/><rect transform="translate(-19, 80.5)" height="23" width="74.421875" y="-1.5" x="-90.421875" ry="4" rx="4" class="branchLabelBkg label1"/><g class="branchLabel"><g transform="translate(-100.421875, 79.5)" class="label branch-label1"><text><tspan class="row" x="0" dy="1em" xml:space="preserve">develop</tspan></text></g></g><line class="branch branch2" y2="180" x2="700" y1="180" x1="0"/><rect transform="translate(-19, 170.5)" height="23" width="105.484375" y="-1.5" x="-121.484375" ry="4" rx="4" class="branchLabelBkg label2"/><g class="branchLabel"><g transform="translate(-131.484375, 169.5)" class="label branch-label2"><text><tspan class="row" x="0" dy="1em" xml:space="preserve">hotfix/1.2.1</tspan></text></g></g><line class="branch branch3" y2="270" x2="700" y1="270" x1="0"/><rect transform="translate(-19, 260.5)" height="23" width="117.25" y="-1.5" x="-133.25" ry="4" rx="4" class="branchLabelBkg label3"/><g class="branchLabel"><g transform="translate(-143.25, 259.5)" class="label branch-label3"><text><tspan class="row" x="0" dy="1em" xml:space="preserve">feature/feat4</tspan></text></g></g><line class="branch branch4" y2="360" x2="700" y1="360" x1="0"/><rect transform="translate(-19, 350.5)" height="23" width="117.25" y="-1.5" x="-133.25" ry="4" rx="4" class="branchLabelBkg label4"/><g class="branchLabel"><g transform="translate(-143.25, 349.5)" class="label branch-label4"><text><tspan class="row" x="0" dy="1em" xml:space="preserve">feature/feat5</tspan></text></g></g><line class="branch branch5" y2="450" x2="700" y1="450" x1="0"/><rect transform="translate(-19, 440.5)" height="23" width="101.046875" y="-1.5" x="-117.046875" ry="4" rx="4" class="branchLabelBkg label5"/><g class="branchLabel"><g transform="translate(-127.046875, 439.5)" class="label branch-label5"><text><tspan class="row" x="0" dy="1em" xml:space="preserve">release/1.3</tspan></text></g></g></g><g class="commit-arrows"><path class="arrow arrow1" d="M 10 0 L 10 70 A 20 20, 0, 0, 0, 30 90 L 60 90"/><path class="arrow arrow1" d="M 60 90 L 110 90"/><path class="arrow arrow2" d="M 10 0 L 10 160 A 20 20, 0, 0, 0, 30 180 L 160 180"/><path class="arrow arrow0" d="M 10 0 L 210 0"/><path class="arrow arrow2" d="M 160 180 L 190 180 A 20 20, 0, 0, 0, 210 160 L 210 0"/><path class="arrow arrow1" d="M 110 90 L 260 90"/><path class="arrow arrow2" d="M 160 180 L 240 180 A 20 20, 0, 0, 0, 260 160 L 260 90"/><path class="arrow arrow3" d="M 260 90 L 260 250 A 20 20, 0, 0, 0, 280 270 L 310 270"/><path class="arrow arrow4" d="M 260 90 L 260 340 A 20 20, 0, 0, 0, 280 360 L 360 360"/><path class="arrow arrow1" d="M 260 90 L 410 90"/><path class="arrow arrow3" d="M 310 270 L 390 270 A 20 20, 0, 0, 0, 410 250 L 410 90"/><path class="arrow arrow5" d="M 410 90 L 410 430 A 20 20, 0, 0, 0, 430 450 L 460 450"/><path class="arrow arrow4" d="M 360 360 L 510 360"/><path class="arrow arrow1" d="M 410 90 L 560 90"/><path class="arrow arrow4" d="M 510 360 L 540 360 A 20 20, 0, 0, 0, 560 340 L 560 90"/><path class="arrow arrow0" d="M 210 0 L 610 0"/><path class="arrow arrow5" d="M 460 450 L 590 450 A 20 20, 0, 0, 0, 610 430 L 610 0"/><path class="arrow arrow1" d="M 560 90 L 660 90"/><path class="arrow arrow5" d="M 460 450 L 640 450 A 20 20, 0, 0, 0, 660 430 L 660 90"/></g><g class="commit-bullets"><circle class="commit 0-e68b96e commit0" r="10" cy="0" cx="10"/><circle class="commit 1-20e0718 commit1" r="10" cy="90" cx="60"/><circle class="commit 2-6e1e6e1 commit1" r="10" cy="90" cx="110"/><circle class="commit 3-abfb948 commit2" r="10" cy="180" cx="160"/><circle class="commit 4-7a5d3d7 commit0" r="9" cy="0" cx="210"/><circle class="commit commit-merge 4-7a5d3d7 commit0" r="6" cy="0" cx="210"/><circle class="commit 5-3dcc2a2 commit1" r="9" cy="90" cx="260"/><circle class="commit commit-merge 5-3dcc2a2 commit1" r="6" cy="90" cx="260"/><circle class="commit 6-ed407d7 commit3" r="10" cy="270" cx="310"/><circle class="commit 7-9e36331 commit4" r="10" cy="360" cx="360"/><circle class="commit 8-fadc0f3 commit1" r="9" cy="90" cx="410"/><circle class="commit commit-merge 8-fadc0f3 commit1" r="6" cy="90" cx="410"/><circle class="commit 9-719e581 commit5" r="10" cy="450" cx="460"/><circle class="commit 10-fda1581 commit4" r="10" cy="360" cx="510"/><circle class="commit 11-e9cbfc9 commit1" r="9" cy="90" cx="560"/><circle class="commit commit-merge 11-e9cbfc9 commit1" r="6" cy="90" cx="560"/><circle class="commit 12-5ddbf70 commit0" r="9" cy="0" cx="610"/><circle class="commit commit-merge 12-5ddbf70 commit0" r="6" cy="0" cx="610"/><circle class="commit 13-463d3e2 commit1" r="9" cy="90" cx="660"/><circle class="commit commit-merge 13-463d3e2 commit1" r="6" cy="90" cx="660"/></g><g class="commit-labels"><polygon points="-9.0859375,-17.2  &#10;      -9.0859375,-21.2&#10;      -1.0859375,-26.7&#10;      21.0859375,-26.7&#10;      21.0859375,-11.7&#10;      -1.0859375,-11.7" class="tag-label-bkg"/><circle class="tag-hole" r="1.5" cx="-5.0859375" cy="-19.2"/><text x="2.9140625" class="tag-label" y="-16">1.2</text><polygon points="186.4609375,-17.2  &#10;      186.4609375,-21.2&#10;      194.4609375,-26.7&#10;      225.5390625,-26.7&#10;      225.5390625,-11.7&#10;      194.4609375,-11.7" class="tag-label-bkg"/><circle class="tag-hole" r="1.5" cx="190.4609375" cy="-19.2"/><text x="198.4609375" class="tag-label" y="-16">1.2.1</text><polygon points="590.9140625,-17.2  &#10;      590.9140625,-21.2&#10;      598.9140625,-26.7&#10;      621.0859375,-26.7&#10;      621.0859375,-11.7&#10;      598.9140625,-11.7" class="tag-label-bkg"/><circle class="tag-hole" r="1.5" cx="594.9140625" cy="-19.2"/><text x="602.9140625" class="tag-label" y="-16">1.3</text></g></svg>