<svg aria-roledescription="flowchart-v2" role="graphics-document document" viewBox="0 0 1406.6171875 1943" style="max-width: 1406.62px; background-color: white;" class="flowchart" xmlns:xlink="http://www.w3.org/1999/xlink" xmlns="http://www.w3.org/2000/svg" width="100%" id="my-svg"><style>#my-svg{font-family:"trebuchet ms",verdana,arial,sans-serif;font-size:16px;fill:#333;}#my-svg .error-icon{fill:#552222;}#my-svg .error-text{fill:#552222;stroke:#552222;}#my-svg .edge-thickness-normal{stroke-width:1px;}#my-svg .edge-thickness-thick{stroke-width:3.5px;}#my-svg .edge-pattern-solid{stroke-dasharray:0;}#my-svg .edge-thickness-invisible{stroke-width:0;fill:none;}#my-svg .edge-pattern-dashed{stroke-dasharray:3;}#my-svg .edge-pattern-dotted{stroke-dasharray:2;}#my-svg .marker{fill:#333333;stroke:#333333;}#my-svg .marker.cross{stroke:#333333;}#my-svg svg{font-family:"trebuchet ms",verdana,arial,sans-serif;font-size:16px;}#my-svg p{margin:0;}#my-svg .label{font-family:"trebuchet ms",verdana,arial,sans-serif;color:#333;}#my-svg .cluster-label text{fill:#333;}#my-svg .cluster-label span{color:#333;}#my-svg .cluster-label span p{background-color:transparent;}#my-svg .label text,#my-svg span{fill:#333;color:#333;}#my-svg .node rect,#my-svg .node circle,#my-svg .node ellipse,#my-svg .node polygon,#my-svg .node path{fill:#ECECFF;stroke:#9370DB;stroke-width:1px;}#my-svg .rough-node .label text,#my-svg .node .label text,#my-svg .image-shape .label,#my-svg .icon-shape .label{text-anchor:middle;}#my-svg .node .katex path{fill:#000;stroke:#000;stroke-width:1px;}#my-svg .rough-node .label,#my-svg .node .label,#my-svg .image-shape .label,#my-svg .icon-shape .label{text-align:center;}#my-svg .node.clickable{cursor:pointer;}#my-svg .root .anchor path{fill:#333333!important;stroke-width:0;stroke:#333333;}#my-svg .arrowheadPath{fill:#333333;}#my-svg .edgePath .path{stroke:#333333;stroke-width:2.0px;}#my-svg .flowchart-link{stroke:#333333;fill:none;}#my-svg .edgeLabel{background-color:rgba(232,232,232, 0.8);text-align:center;}#my-svg .edgeLabel p{background-color:rgba(232,232,232, 0.8);}#my-svg .edgeLabel rect{opacity:0.5;background-color:rgba(232,232,232, 0.8);fill:rgba(232,232,232, 0.8);}#my-svg .labelBkg{background-color:rgba(232, 232, 232, 0.5);}#my-svg .cluster rect{fill:#ffffde;stroke:#aaaa33;stroke-width:1px;}#my-svg .cluster text{fill:#333;}#my-svg .cluster span{color:#333;}#my-svg div.mermaidTooltip{position:absolute;text-align:center;max-width:200px;padding:2px;font-family:"trebuchet ms",verdana,arial,sans-serif;font-size:12px;background:hsl(80, 100%, 96.2745098039%);border:1px solid #aaaa33;border-radius:2px;pointer-events:none;z-index:100;}#my-svg .flowchartTitleText{text-anchor:middle;font-size:18px;fill:#333;}#my-svg rect.text{fill:none;stroke-width:0;}#my-svg .icon-shape,#my-svg .image-shape{background-color:rgba(232,232,232, 0.8);text-align:center;}#my-svg .icon-shape p,#my-svg .image-shape p{background-color:rgba(232,232,232, 0.8);padding:2px;}#my-svg .icon-shape rect,#my-svg .image-shape rect{opacity:0.5;background-color:rgba(232,232,232, 0.8);fill:rgba(232,232,232, 0.8);}#my-svg :root{--mermaid-font-family:"trebuchet ms",verdana,arial,sans-serif;}</style><g><marker orient="auto" markerHeight="8" markerWidth="8" markerUnits="userSpaceOnUse" refY="5" refX="5" viewBox="0 0 10 10" class="marker flowchart-v2" id="my-svg_flowchart-v2-pointEnd"><path style="stroke-width: 1; stroke-dasharray: 1, 0;" class="arrowMarkerPath" d="M 0 0 L 10 5 L 0 10 z"/></marker><marker orient="auto" markerHeight="8" markerWidth="8" markerUnits="userSpaceOnUse" refY="5" refX="4.5" viewBox="0 0 10 10" class="marker flowchart-v2" id="my-svg_flowchart-v2-pointStart"><path style="stroke-width: 1; stroke-dasharray: 1, 0;" class="arrowMarkerPath" d="M 0 5 L 10 10 L 10 0 z"/></marker><marker orient="auto" markerHeight="11" markerWidth="11" markerUnits="userSpaceOnUse" refY="5" refX="11" viewBox="0 0 10 10" class="marker flowchart-v2" id="my-svg_flowchart-v2-circleEnd"><circle style="stroke-width: 1; stroke-dasharray: 1, 0;" class="arrowMarkerPath" r="5" cy="5" cx="5"/></marker><marker orient="auto" markerHeight="11" markerWidth="11" markerUnits="userSpaceOnUse" refY="5" refX="-1" viewBox="0 0 10 10" class="marker flowchart-v2" id="my-svg_flowchart-v2-circleStart"><circle style="stroke-width: 1; stroke-dasharray: 1, 0;" class="arrowMarkerPath" r="5" cy="5" cx="5"/></marker><marker orient="auto" markerHeight="11" markerWidth="11" markerUnits="userSpaceOnUse" refY="5.2" refX="12" viewBox="0 0 11 11" class="marker cross flowchart-v2" id="my-svg_flowchart-v2-crossEnd"><path style="stroke-width: 2; stroke-dasharray: 1, 0;" class="arrowMarkerPath" d="M 1,1 l 9,9 M 10,1 l -9,9"/></marker><marker orient="auto" markerHeight="11" markerWidth="11" markerUnits="userSpaceOnUse" refY="5.2" refX="-1" viewBox="0 0 11 11" class="marker cross flowchart-v2" id="my-svg_flowchart-v2-crossStart"><path style="stroke-width: 2; stroke-dasharray: 1, 0;" class="arrowMarkerPath" d="M 1,1 l 9,9 M 10,1 l -9,9"/></marker><g class="root"><g class="clusters"><g data-look="classic" id="IndexedDB" class="cluster"><rect height="128" width="544.15625" y="1012" x="385.30078125" style=""/><g transform="translate(619.69921875, 1012)" class="cluster-label"><foreignObject height="24" width="75.359375"><div style="display: table-cell; white-space: nowrap; line-height: 1.5; max-width: 200px; text-align: center;" xmlns="http://www.w3.org/1999/xhtml"><span class="nodeLabel"><p>IndexedDB</p></span></div></foreignObject></g></g><g data-look="classic" id="Supabase" class="cluster"><rect height="104" width="378.59765625" y="1190" x="885.01953125" style=""/><g transform="translate(1041.177734375, 1190)" class="cluster-label"><foreignObject height="24" width="66.28125"><div style="display: table-cell; white-space: nowrap; line-height: 1.5; max-width: 200px; text-align: center;" xmlns="http://www.w3.org/1999/xhtml"><span class="nodeLabel"><p>Supabase</p></span></div></foreignObject></g></g><g data-look="classic" id="subGraph2" class="cluster"><rect height="1125" width="350" y="706" x="8" style=""/><g transform="translate(83, 706)" class="cluster-label"><foreignObject height="48" width="200"><div style="display: table; white-space: break-spaces; line-height: 1.5; max-width: 200px; text-align: center; width: 200px;" xmlns="http://www.w3.org/1999/xhtml"><span class="nodeLabel"><p>Decryption Process and Retrieval</p></span></div></foreignObject></g></g><g data-look="classic" id="subGraph1" class="cluster"><rect height="954" width="615.41796875" y="8" x="433.19921875" style=""/><g transform="translate(640.908203125, 8)" class="cluster-label"><foreignObject height="48" width="200"><div style="display: table; white-space: break-spaces; line-height: 1.5; max-width: 200px; text-align: center; width: 200px;" xmlns="http://www.w3.org/1999/xhtml"><span class="nodeLabel"><p>Encryption Process and Storage</p></span></div></foreignObject></g></g><g data-look="classic" id="subGraph0" class="cluster"><rect height="563" width="330" y="577" x="1068.6171875" style=""/><g transform="translate(1133.6171875, 577)" class="cluster-label"><foreignObject height="48" width="200"><div style="display: table; white-space: break-spaces; line-height: 1.5; max-width: 200px; text-align: center; width: 200px;" xmlns="http://www.w3.org/1999/xhtml"><span class="nodeLabel"><p>User Key Generation and Storage</p></span></div></foreignObject></g></g></g><g class="edgePaths"><path marker-end="url(#my-svg_flowchart-v2-pointEnd)" style="" class="edge-thickness-normal edge-pattern-solid edge-thickness-normal edge-pattern-solid flowchart-link" id="L_A_B_0" d="M1233.617,527L1233.617,531.167C1233.617,535.333,1233.617,543.667,1233.617,552C1233.617,560.333,1233.617,568.667,1233.617,576.333C1233.617,584,1233.617,591,1233.617,594.5L1233.617,598"/><path marker-end="url(#my-svg_flowchart-v2-pointEnd)" style="" class="edge-thickness-normal edge-pattern-solid edge-thickness-normal edge-pattern-solid flowchart-link" id="L_B_C_1" d="M1233.617,656L1233.617,660.167C1233.617,664.333,1233.617,672.667,1233.617,681C1233.617,689.333,1233.617,697.667,1233.617,707.333C1233.617,717,1233.617,728,1233.617,733.5L1233.617,739"/><path marker-end="url(#my-svg_flowchart-v2-pointEnd)" style="" class="edge-thickness-normal edge-pattern-solid edge-thickness-normal edge-pattern-solid flowchart-link" id="L_C_D_2" d="M1233.617,797L1233.617,803.167C1233.617,809.333,1233.617,821.667,1233.617,831.333C1233.617,841,1233.617,848,1233.617,851.5L1233.617,855"/><path marker-end="url(#my-svg_flowchart-v2-pointEnd)" style="" class="edge-thickness-normal edge-pattern-solid edge-thickness-normal edge-pattern-solid flowchart-link" id="L_D_E_3" d="M1233.617,937L1233.617,941.167C1233.617,945.333,1233.617,953.667,1233.617,962C1233.617,970.333,1233.617,978.667,1233.617,987C1233.617,995.333,1233.617,1003.667,1233.617,1011.333C1233.617,1019,1233.617,1026,1233.617,1029.5L1233.617,1033"/><path marker-end="url(#my-svg_flowchart-v2-pointEnd)" style="" class="edge-thickness-normal edge-pattern-solid edge-thickness-normal edge-pattern-solid flowchart-link" id="L_F_G_4" d="M759.238,87L759.238,91.167C759.238,95.333,759.238,103.667,759.238,111.333C759.238,119,759.238,126,759.238,129.5L759.238,133"/><path marker-end="url(#my-svg_flowchart-v2-pointEnd)" style="" class="edge-thickness-normal edge-pattern-solid edge-thickness-normal edge-pattern-solid flowchart-link" id="L_G_H_5" d="M708.965,215L703.594,219.167C698.223,223.333,687.48,231.667,682.109,239.333C676.738,247,676.738,254,676.738,257.5L676.738,261"/><path marker-end="url(#my-svg_flowchart-v2-pointEnd)" style="" class="edge-thickness-normal edge-pattern-solid edge-thickness-normal edge-pattern-solid flowchart-link" id="L_H_I_6" d="M676.738,319L676.738,323.167C676.738,327.333,676.738,335.667,676.738,343.333C676.738,351,676.738,358,676.738,361.5L676.738,365"/><path marker-end="url(#my-svg_flowchart-v2-pointEnd)" style="" class="edge-thickness-normal edge-pattern-solid edge-thickness-normal edge-pattern-solid flowchart-link" id="L_I_J_7" d="M676.738,423L676.738,427.167C676.738,431.333,676.738,439.667,676.738,447.333C676.738,455,676.738,462,676.738,465.5L676.738,469"/><path marker-end="url(#my-svg_flowchart-v2-pointEnd)" style="" class="edge-thickness-normal edge-pattern-solid edge-thickness-normal edge-pattern-solid flowchart-link" id="L_J_K_8" d="M676.738,527L676.738,531.167C676.738,535.333,676.738,543.667,676.738,552C676.738,560.333,676.738,568.667,676.738,576.333C676.738,584,676.738,591,676.738,594.5L676.738,598"/><path marker-end="url(#my-svg_flowchart-v2-pointEnd)" style="" class="edge-thickness-normal edge-pattern-solid edge-thickness-normal edge-pattern-solid flowchart-link" id="L_K_L_9" d="M676.738,656L676.738,660.167C676.738,664.333,676.738,672.667,676.738,681C676.738,689.333,676.738,697.667,676.738,705.333C676.738,713,676.738,720,676.738,723.5L676.738,727"/><path marker-end="url(#my-svg_flowchart-v2-pointEnd)" style="" class="edge-thickness-normal edge-pattern-solid edge-thickness-normal edge-pattern-solid flowchart-link" id="L_L_M_10" d="M676.738,809L676.738,813.167C676.738,817.333,676.738,825.667,676.738,833.333C676.738,841,676.738,848,676.738,851.5L676.738,855"/><path marker-end="url(#my-svg_flowchart-v2-pointEnd)" style="" class="edge-thickness-normal edge-pattern-solid edge-thickness-normal edge-pattern-solid flowchart-link" id="L_N_O_11" d="M193,797L193,803.167C193,809.333,193,821.667,193,831.333C193,841,193,848,193,851.5L193,855"/><path marker-end="url(#my-svg_flowchart-v2-pointEnd)" style="" class="edge-thickness-normal edge-pattern-solid edge-thickness-normal edge-pattern-solid flowchart-link" id="L_O_P_12" d="M186.906,937L186.255,941.167C185.604,945.333,184.302,953.667,183.651,962C183,970.333,183,978.667,183,987C183,995.333,183,1003.667,183,1011.333C183,1019,183,1026,183,1029.5L183,1033"/><path marker-end="url(#my-svg_flowchart-v2-pointEnd)" style="" class="edge-thickness-normal edge-pattern-solid edge-thickness-normal edge-pattern-solid flowchart-link" id="L_P_Q_13" d="M176.906,1115L176.255,1119.167C175.604,1123.333,174.302,1131.667,173.651,1140C173,1148.333,173,1156.667,173,1165C173,1173.333,173,1181.667,173,1189.333C173,1197,173,1204,173,1207.5L173,1211"/><path marker-end="url(#my-svg_flowchart-v2-pointEnd)" style="" class="edge-thickness-normal edge-pattern-solid edge-thickness-normal edge-pattern-solid flowchart-link" id="L_Q_R_14" d="M173,1269L173,1273.167C173,1277.333,173,1285.667,173,1294C173,1302.333,173,1310.667,173,1318.333C173,1326,173,1333,173,1336.5L173,1340"/><path marker-end="url(#my-svg_flowchart-v2-pointEnd)" style="" class="edge-thickness-normal edge-pattern-solid edge-thickness-normal edge-pattern-solid flowchart-link" id="L_R_S_15" d="M173,1446L173,1450.167C173,1454.333,173,1462.667,173,1470.333C173,1478,173,1485,173,1488.5L173,1492"/><path marker-end="url(#my-svg_flowchart-v2-pointEnd)" style="" class="edge-thickness-normal edge-pattern-solid edge-thickness-normal edge-pattern-solid flowchart-link" id="L_S_T_16" d="M173,1574L173,1578.167C173,1582.333,173,1590.667,173,1598.333C173,1606,173,1613,173,1616.5L173,1620"/><path marker-end="url(#my-svg_flowchart-v2-pointEnd)" style="" class="edge-thickness-normal edge-pattern-solid edge-thickness-normal edge-pattern-solid flowchart-link" id="L_T_U_17" d="M173,1678L173,1682.167C173,1686.333,173,1694.667,173,1702.333C173,1710,173,1717,173,1720.5L173,1724"/><path marker-end="url(#my-svg_flowchart-v2-pointEnd)" style="" class="edge-thickness-normal edge-pattern-solid edge-thickness-normal edge-pattern-solid flowchart-link" id="L_U_V_18" d="M173,1806L173,1810.167C173,1814.333,173,1822.667,173,1831C173,1839.333,173,1847.667,173,1855.333C173,1863,173,1870,173,1873.5L173,1877"/><path marker-end="url(#my-svg_flowchart-v2-pointEnd)" style="" class="edge-thickness-normal edge-pattern-solid edge-thickness-normal edge-pattern-solid flowchart-link" id="L_E_DB1_19" d="M1233.617,1115L1233.617,1119.167C1233.617,1123.333,1233.617,1131.667,1233.617,1140C1233.617,1148.333,1233.617,1156.667,1233.617,1165C1233.617,1173.333,1233.617,1181.667,1212.961,1191.342C1192.304,1201.017,1150.991,1212.034,1130.334,1217.542L1109.677,1223.051"/><path marker-end="url(#my-svg_flowchart-v2-pointEnd)" style="" class="edge-thickness-normal edge-pattern-solid edge-thickness-normal edge-pattern-solid flowchart-link" id="L_M_DB2_20" d="M590.793,937L581.61,941.167C572.428,945.333,554.064,953.667,544.881,962C535.699,970.333,535.699,978.667,535.699,987C535.699,995.333,535.699,1003.667,535.699,1013.333C535.699,1023,535.699,1034,535.699,1039.5L535.699,1045"/><path marker-end="url(#my-svg_flowchart-v2-pointEnd)" style="" class="edge-thickness-normal edge-pattern-solid edge-thickness-normal edge-pattern-solid flowchart-link" id="L_M_DB3_21" d="M750.496,937L758.377,941.167C766.257,945.333,782.017,953.667,789.897,962C797.777,970.333,797.777,978.667,797.777,987C797.777,995.333,797.777,1003.667,797.777,1013.333C797.777,1023,797.777,1034,797.777,1039.5L797.777,1045"/><path marker-end="url(#my-svg_flowchart-v2-pointEnd)" style="" class="edge-thickness-normal edge-pattern-solid edge-thickness-normal edge-pattern-solid flowchart-link" id="L_G_DB1_22" d="M879.211,215L892.029,219.167C904.847,223.333,930.482,231.667,943.3,244.5C956.117,257.333,956.117,274.667,956.117,292C956.117,309.333,956.117,326.667,956.117,344C956.117,361.333,956.117,378.667,956.117,396C956.117,413.333,956.117,430.667,956.117,448C956.117,465.333,956.117,482.667,956.117,500C956.117,517.333,956.117,534.667,956.117,547.5C956.117,560.333,956.117,568.667,956.117,581.5C956.117,594.333,956.117,611.667,956.117,629C956.117,646.333,956.117,663.667,956.117,676.5C956.117,689.333,956.117,697.667,956.117,712.5C956.117,727.333,956.117,748.667,956.117,770C956.117,791.333,956.117,812.667,956.117,834C956.117,855.333,956.117,876.667,956.117,898C956.117,919.333,956.117,940.667,956.117,955.5C956.117,970.333,956.117,978.667,956.117,987C956.117,995.333,956.117,1003.667,956.117,1018.5C956.117,1033.333,956.117,1054.667,956.117,1076C956.117,1097.333,956.117,1118.667,956.117,1133.5C956.117,1148.333,956.117,1156.667,956.117,1165C956.117,1173.333,956.117,1181.667,962.164,1189.645C968.21,1197.622,980.304,1205.245,986.35,1209.056L992.397,1212.867"/><path marker-end="url(#my-svg_flowchart-v2-pointEnd)" style="" class="edge-thickness-normal edge-pattern-solid edge-thickness-normal edge-pattern-solid flowchart-link" id="L_O_DB2_23" d="M199.094,937L199.745,941.167C200.396,945.333,201.698,953.667,202.349,962C203,970.333,203,978.667,203,987C203,995.333,203,1003.667,238.562,1014.674C274.124,1025.682,345.249,1039.364,380.811,1046.205L416.373,1053.046"/><path marker-end="url(#my-svg_flowchart-v2-pointEnd)" style="" class="edge-thickness-normal edge-pattern-solid edge-thickness-normal edge-pattern-solid flowchart-link" id="L_O_DB3_24" d="M243.273,937L248.645,941.167C254.016,945.333,264.758,953.667,270.129,962C275.5,970.333,275.5,978.667,275.5,987C275.5,995.333,275.5,1003.667,345.771,1016.444C416.042,1029.222,556.585,1046.444,626.856,1055.055L697.127,1063.666"/><path marker-end="url(#my-svg_flowchart-v2-pointEnd)" style="" class="edge-thickness-normal edge-pattern-solid edge-thickness-normal edge-pattern-solid flowchart-link" id="L_P_DB1_25" d="M227.18,1115L231.9,1119.167C236.62,1123.333,246.06,1131.667,250.78,1140C255.5,1148.333,255.5,1156.667,255.5,1165C255.5,1173.333,255.5,1181.667,374.155,1193.712C492.81,1205.758,730.12,1221.515,848.776,1229.394L967.431,1237.273"/></g><g class="edgeLabels"><g class="edgeLabel"><g transform="translate(0, 0)" class="label"><foreignObject height="0" width="0"><div style="display: table-cell; white-space: nowrap; line-height: 1.5; max-width: 200px; text-align: center;" class="labelBkg" xmlns="http://www.w3.org/1999/xhtml"><span class="edgeLabel"></span></div></foreignObject></g></g><g class="edgeLabel"><g transform="translate(0, 0)" class="label"><foreignObject height="0" width="0"><div style="display: table-cell; white-space: nowrap; line-height: 1.5; max-width: 200px; text-align: center;" class="labelBkg" xmlns="http://www.w3.org/1999/xhtml"><span class="edgeLabel"></span></div></foreignObject></g></g><g class="edgeLabel"><g transform="translate(0, 0)" class="label"><foreignObject height="0" width="0"><div style="display: table-cell; white-space: nowrap; line-height: 1.5; max-width: 200px; text-align: center;" class="labelBkg" xmlns="http://www.w3.org/1999/xhtml"><span class="edgeLabel"></span></div></foreignObject></g></g><g class="edgeLabel"><g transform="translate(0, 0)" class="label"><foreignObject height="0" width="0"><div style="display: table-cell; white-space: nowrap; line-height: 1.5; max-width: 200px; text-align: center;" class="labelBkg" xmlns="http://www.w3.org/1999/xhtml"><span class="edgeLabel"></span></div></foreignObject></g></g><g class="edgeLabel"><g transform="translate(0, 0)" class="label"><foreignObject height="0" width="0"><div style="display: table-cell; white-space: nowrap; line-height: 1.5; max-width: 200px; text-align: center;" class="labelBkg" xmlns="http://www.w3.org/1999/xhtml"><span class="edgeLabel"></span></div></foreignObject></g></g><g class="edgeLabel"><g transform="translate(0, 0)" class="label"><foreignObject height="0" width="0"><div style="display: table-cell; white-space: nowrap; line-height: 1.5; max-width: 200px; text-align: center;" class="labelBkg" xmlns="http://www.w3.org/1999/xhtml"><span class="edgeLabel"></span></div></foreignObject></g></g><g class="edgeLabel"><g transform="translate(0, 0)" class="label"><foreignObject height="0" width="0"><div style="display: table-cell; white-space: nowrap; line-height: 1.5; max-width: 200px; text-align: center;" class="labelBkg" xmlns="http://www.w3.org/1999/xhtml"><span class="edgeLabel"></span></div></foreignObject></g></g><g class="edgeLabel"><g transform="translate(0, 0)" class="label"><foreignObject height="0" width="0"><div style="display: table-cell; white-space: nowrap; line-height: 1.5; max-width: 200px; text-align: center;" class="labelBkg" xmlns="http://www.w3.org/1999/xhtml"><span class="edgeLabel"></span></div></foreignObject></g></g><g class="edgeLabel"><g transform="translate(0, 0)" class="label"><foreignObject height="0" width="0"><div style="display: table-cell; white-space: nowrap; line-height: 1.5; max-width: 200px; text-align: center;" class="labelBkg" xmlns="http://www.w3.org/1999/xhtml"><span class="edgeLabel"></span></div></foreignObject></g></g><g class="edgeLabel"><g transform="translate(0, 0)" class="label"><foreignObject height="0" width="0"><div style="display: table-cell; white-space: nowrap; line-height: 1.5; max-width: 200px; text-align: center;" class="labelBkg" xmlns="http://www.w3.org/1999/xhtml"><span class="edgeLabel"></span></div></foreignObject></g></g><g class="edgeLabel"><g transform="translate(0, 0)" class="label"><foreignObject height="0" width="0"><div style="display: table-cell; white-space: nowrap; line-height: 1.5; max-width: 200px; text-align: center;" class="labelBkg" xmlns="http://www.w3.org/1999/xhtml"><span class="edgeLabel"></span></div></foreignObject></g></g><g class="edgeLabel"><g transform="translate(0, 0)" class="label"><foreignObject height="0" width="0"><div style="display: table-cell; white-space: nowrap; line-height: 1.5; max-width: 200px; text-align: center;" class="labelBkg" xmlns="http://www.w3.org/1999/xhtml"><span class="edgeLabel"></span></div></foreignObject></g></g><g class="edgeLabel"><g transform="translate(0, 0)" class="label"><foreignObject height="0" width="0"><div style="display: table-cell; white-space: nowrap; line-height: 1.5; max-width: 200px; text-align: center;" class="labelBkg" xmlns="http://www.w3.org/1999/xhtml"><span class="edgeLabel"></span></div></foreignObject></g></g><g class="edgeLabel"><g transform="translate(0, 0)" class="label"><foreignObject height="0" width="0"><div style="display: table-cell; white-space: nowrap; line-height: 1.5; max-width: 200px; text-align: center;" class="labelBkg" xmlns="http://www.w3.org/1999/xhtml"><span class="edgeLabel"></span></div></foreignObject></g></g><g class="edgeLabel"><g transform="translate(0, 0)" class="label"><foreignObject height="0" width="0"><div style="display: table-cell; white-space: nowrap; line-height: 1.5; max-width: 200px; text-align: center;" class="labelBkg" xmlns="http://www.w3.org/1999/xhtml"><span class="edgeLabel"></span></div></foreignObject></g></g><g class="edgeLabel"><g transform="translate(0, 0)" class="label"><foreignObject height="0" width="0"><div style="display: table-cell; white-space: nowrap; line-height: 1.5; max-width: 200px; text-align: center;" class="labelBkg" xmlns="http://www.w3.org/1999/xhtml"><span class="edgeLabel"></span></div></foreignObject></g></g><g class="edgeLabel"><g transform="translate(0, 0)" class="label"><foreignObject height="0" width="0"><div style="display: table-cell; white-space: nowrap; line-height: 1.5; max-width: 200px; text-align: center;" class="labelBkg" xmlns="http://www.w3.org/1999/xhtml"><span class="edgeLabel"></span></div></foreignObject></g></g><g class="edgeLabel"><g transform="translate(0, 0)" class="label"><foreignObject height="0" width="0"><div style="display: table-cell; white-space: nowrap; line-height: 1.5; max-width: 200px; text-align: center;" class="labelBkg" xmlns="http://www.w3.org/1999/xhtml"><span class="edgeLabel"></span></div></foreignObject></g></g><g class="edgeLabel"><g transform="translate(0, 0)" class="label"><foreignObject height="0" width="0"><div style="display: table-cell; white-space: nowrap; line-height: 1.5; max-width: 200px; text-align: center;" class="labelBkg" xmlns="http://www.w3.org/1999/xhtml"><span class="edgeLabel"></span></div></foreignObject></g></g><g class="edgeLabel"><g transform="translate(0, 0)" class="label"><foreignObject height="0" width="0"><div style="display: table-cell; white-space: nowrap; line-height: 1.5; max-width: 200px; text-align: center;" class="labelBkg" xmlns="http://www.w3.org/1999/xhtml"><span class="edgeLabel"></span></div></foreignObject></g></g><g class="edgeLabel"><g transform="translate(0, 0)" class="label"><foreignObject height="0" width="0"><div style="display: table-cell; white-space: nowrap; line-height: 1.5; max-width: 200px; text-align: center;" class="labelBkg" xmlns="http://www.w3.org/1999/xhtml"><span class="edgeLabel"></span></div></foreignObject></g></g><g class="edgeLabel"><g transform="translate(0, 0)" class="label"><foreignObject height="0" width="0"><div style="display: table-cell; white-space: nowrap; line-height: 1.5; max-width: 200px; text-align: center;" class="labelBkg" xmlns="http://www.w3.org/1999/xhtml"><span class="edgeLabel"></span></div></foreignObject></g></g><g class="edgeLabel"><g transform="translate(0, 0)" class="label"><foreignObject height="0" width="0"><div style="display: table-cell; white-space: nowrap; line-height: 1.5; max-width: 200px; text-align: center;" class="labelBkg" xmlns="http://www.w3.org/1999/xhtml"><span class="edgeLabel"></span></div></foreignObject></g></g><g class="edgeLabel"><g transform="translate(0, 0)" class="label"><foreignObject height="0" width="0"><div style="display: table-cell; white-space: nowrap; line-height: 1.5; max-width: 200px; text-align: center;" class="labelBkg" xmlns="http://www.w3.org/1999/xhtml"><span class="edgeLabel"></span></div></foreignObject></g></g><g class="edgeLabel"><g transform="translate(0, 0)" class="label"><foreignObject height="0" width="0"><div style="display: table-cell; white-space: nowrap; line-height: 1.5; max-width: 200px; text-align: center;" class="labelBkg" xmlns="http://www.w3.org/1999/xhtml"><span class="edgeLabel"></span></div></foreignObject></g></g><g class="edgeLabel"><g transform="translate(0, 0)" class="label"><foreignObject height="0" width="0"><div style="display: table-cell; white-space: nowrap; line-height: 1.5; max-width: 200px; text-align: center;" class="labelBkg" xmlns="http://www.w3.org/1999/xhtml"><span class="edgeLabel"></span></div></foreignObject></g></g></g><g class="nodes"><g transform="translate(1233.6171875, 500)" id="flowchart-A-0" class="node default"><rect height="54" width="95.015625" y="-27" x="-47.5078125" style="" class="basic label-container"/><g transform="translate(-17.5078125, -12)" style="" class="label"><rect/><foreignObject height="24" width="35.015625"><div style="display: table-cell; white-space: nowrap; line-height: 1.5; max-width: 200px; text-align: center;" xmlns="http://www.w3.org/1999/xhtml"><span class="nodeLabel"><p>Start</p></span></div></foreignObject></g></g><g transform="translate(1233.6171875, 629)" id="flowchart-B-1" class="node default"><rect height="54" width="157.78125" y="-27" x="-78.890625" style="" class="basic label-container"/><g transform="translate(-48.890625, -12)" style="" class="label"><rect/><foreignObject height="24" width="97.78125"><div style="display: table-cell; white-space: nowrap; line-height: 1.5; max-width: 200px; text-align: center;" xmlns="http://www.w3.org/1999/xhtml"><span class="nodeLabel"><p>User Creation</p></span></div></foreignObject></g></g><g transform="translate(1233.6171875, 770)" id="flowchart-C-3" class="node default"><rect height="54" width="193.484375" y="-27" x="-96.7421875" style="" class="basic label-container"/><g transform="translate(-66.7421875, -12)" style="" class="label"><rect/><foreignObject height="24" width="133.484375"><div style="display: table-cell; white-space: nowrap; line-height: 1.5; max-width: 200px; text-align: center;" xmlns="http://www.w3.org/1999/xhtml"><span class="nodeLabel"><p>Generate User Key</p></span></div></foreignObject></g></g><g transform="translate(1233.6171875, 898)" id="flowchart-D-5" class="node default"><rect height="78" width="260" y="-39" x="-130" style="" class="basic label-container"/><g transform="translate(-100, -24)" style="" class="label"><rect/><foreignObject height="48" width="200"><div style="display: table; white-space: break-spaces; line-height: 1.5; max-width: 200px; text-align: center; width: 200px;" xmlns="http://www.w3.org/1999/xhtml"><span class="nodeLabel"><p>Encrypt User Key with Master Key</p></span></div></foreignObject></g></g><g transform="translate(1233.6171875, 1076)" id="flowchart-E-7" class="node default"><rect height="78" width="260" y="-39" x="-130" style="" class="basic label-container"/><g transform="translate(-100, -24)" style="" class="label"><rect/><foreignObject height="48" width="200"><div style="display: table; white-space: break-spaces; line-height: 1.5; max-width: 200px; text-align: center; width: 200px;" xmlns="http://www.w3.org/1999/xhtml"><span class="nodeLabel"><p>Store Encrypted User Key in Supabase</p></span></div></foreignObject></g></g><g transform="translate(759.23828125, 60)" id="flowchart-F-8" class="node default"><rect height="54" width="235.703125" y="-27" x="-117.8515625" style="" class="basic label-container"/><g transform="translate(-87.8515625, -12)" style="" class="label"><rect/><foreignObject height="24" width="175.703125"><div style="display: table-cell; white-space: nowrap; line-height: 1.5; max-width: 200px; text-align: center;" xmlns="http://www.w3.org/1999/xhtml"><span class="nodeLabel"><p>Data Encryption Request</p></span></div></foreignObject></g></g><g transform="translate(759.23828125, 176)" id="flowchart-G-9" class="node default"><rect height="78" width="260" y="-39" x="-130" style="" class="basic label-container"/><g transform="translate(-100, -24)" style="" class="label"><rect/><foreignObject height="48" width="200"><div style="display: table; white-space: break-spaces; line-height: 1.5; max-width: 200px; text-align: center; width: 200px;" xmlns="http://www.w3.org/1999/xhtml"><span class="nodeLabel"><p>Retrieve Encrypted User Key from Supabase</p></span></div></foreignObject></g></g><g transform="translate(676.73828125, 292)" id="flowchart-H-11" class="node default"><rect height="54" width="182.59375" y="-27" x="-91.296875" style="" class="basic label-container"/><g transform="translate(-61.296875, -12)" style="" class="label"><rect/><foreignObject height="24" width="122.59375"><div style="display: table-cell; white-space: nowrap; line-height: 1.5; max-width: 200px; text-align: center;" xmlns="http://www.w3.org/1999/xhtml"><span class="nodeLabel"><p>Decrypt User Key</p></span></div></foreignObject></g></g><g transform="translate(676.73828125, 396)" id="flowchart-I-13" class="node default"><rect height="54" width="208.25" y="-27" x="-104.125" style="" class="basic label-container"/><g transform="translate(-74.125, -12)" style="" class="label"><rect/><foreignObject height="24" width="148.25"><div style="display: table-cell; white-space: nowrap; line-height: 1.5; max-width: 200px; text-align: center;" xmlns="http://www.w3.org/1999/xhtml"><span class="nodeLabel"><p>Generate Salt and IV</p></span></div></foreignObject></g></g><g transform="translate(676.73828125, 500)" id="flowchart-J-15" class="node default"><rect height="54" width="241.625" y="-27" x="-120.8125" style="" class="basic label-container"/><g transform="translate(-90.8125, -12)" style="" class="label"><rect/><foreignObject height="24" width="181.625"><div style="display: table-cell; white-space: nowrap; line-height: 1.5; max-width: 200px; text-align: center;" xmlns="http://www.w3.org/1999/xhtml"><span class="nodeLabel"><p>Derive Key from User Key</p></span></div></foreignObject></g></g><g transform="translate(676.73828125, 629)" id="flowchart-K-17" class="node default"><rect height="54" width="152.390625" y="-27" x="-76.1953125" style="" class="basic label-container"/><g transform="translate(-46.1953125, -12)" style="" class="label"><rect/><foreignObject height="24" width="92.390625"><div style="display: table-cell; white-space: nowrap; line-height: 1.5; max-width: 200px; text-align: center;" xmlns="http://www.w3.org/1999/xhtml"><span class="nodeLabel"><p>Encrypt Data</p></span></div></foreignObject></g></g><g transform="translate(676.73828125, 770)" id="flowchart-L-19" class="node default"><rect height="78" width="260" y="-39" x="-130" style="" class="basic label-container"/><g transform="translate(-100, -24)" style="" class="label"><rect/><foreignObject height="48" width="200"><div style="display: table; white-space: break-spaces; line-height: 1.5; max-width: 200px; text-align: center; width: 200px;" xmlns="http://www.w3.org/1999/xhtml"><span class="nodeLabel"><p>Combine Salt, IV, and Encrypted Data</p></span></div></foreignObject></g></g><g transform="translate(676.73828125, 898)" id="flowchart-M-21" class="node default"><rect height="78" width="260" y="-39" x="-130" style="" class="basic label-container"/><g transform="translate(-100, -24)" style="" class="label"><rect/><foreignObject height="48" width="200"><div style="display: table; white-space: break-spaces; line-height: 1.5; max-width: 200px; text-align: center; width: 200px;" xmlns="http://www.w3.org/1999/xhtml"><span class="nodeLabel"><p>Store Combined Encrypted Data in IndexedDB</p></span></div></foreignObject></g></g><g transform="translate(193, 770)" id="flowchart-N-22" class="node default"><rect height="54" width="236.921875" y="-27" x="-118.4609375" style="" class="basic label-container"/><g transform="translate(-88.4609375, -12)" style="" class="label"><rect/><foreignObject height="24" width="176.921875"><div style="display: table-cell; white-space: nowrap; line-height: 1.5; max-width: 200px; text-align: center;" xmlns="http://www.w3.org/1999/xhtml"><span class="nodeLabel"><p>Data Decryption Request</p></span></div></foreignObject></g></g><g transform="translate(193, 898)" id="flowchart-O-23" class="node default"><rect height="78" width="260" y="-39" x="-130" style="" class="basic label-container"/><g transform="translate(-100, -24)" style="" class="label"><rect/><foreignObject height="48" width="200"><div style="display: table; white-space: break-spaces; line-height: 1.5; max-width: 200px; text-align: center; width: 200px;" xmlns="http://www.w3.org/1999/xhtml"><span class="nodeLabel"><p>Retrieve Encrypted Data from IndexedDB</p></span></div></foreignObject></g></g><g transform="translate(183, 1076)" id="flowchart-P-25" class="node default"><rect height="78" width="260" y="-39" x="-130" style="" class="basic label-container"/><g transform="translate(-100, -24)" style="" class="label"><rect/><foreignObject height="48" width="200"><div style="display: table; white-space: break-spaces; line-height: 1.5; max-width: 200px; text-align: center; width: 200px;" xmlns="http://www.w3.org/1999/xhtml"><span class="nodeLabel"><p>Retrieve Encrypted User Key from Supabase</p></span></div></foreignObject></g></g><g transform="translate(173, 1242)" id="flowchart-Q-27" class="node default"><rect height="54" width="182.59375" y="-27" x="-91.296875" style="" class="basic label-container"/><g transform="translate(-61.296875, -12)" style="" class="label"><rect/><foreignObject height="24" width="122.59375"><div style="display: table-cell; white-space: nowrap; line-height: 1.5; max-width: 200px; text-align: center;" xmlns="http://www.w3.org/1999/xhtml"><span class="nodeLabel"><p>Decrypt User Key</p></span></div></foreignObject></g></g><g transform="translate(173, 1395)" id="flowchart-R-29" class="node default"><rect height="102" width="260" y="-51" x="-130" style="" class="basic label-container"/><g transform="translate(-100, -36)" style="" class="label"><rect/><foreignObject height="72" width="200"><div style="display: table; white-space: break-spaces; line-height: 1.5; max-width: 200px; text-align: center; width: 200px;" xmlns="http://www.w3.org/1999/xhtml"><span class="nodeLabel"><p>Split Encrypted Data into Salt, IV, and Encrypted Content</p></span></div></foreignObject></g></g><g transform="translate(173, 1535)" id="flowchart-S-31" class="node default"><rect height="78" width="260" y="-39" x="-130" style="" class="basic label-container"/><g transform="translate(-100, -24)" style="" class="label"><rect/><foreignObject height="48" width="200"><div style="display: table; white-space: break-spaces; line-height: 1.5; max-width: 200px; text-align: center; width: 200px;" xmlns="http://www.w3.org/1999/xhtml"><span class="nodeLabel"><p>Derive Key from User Key and Salt</p></span></div></foreignObject></g></g><g transform="translate(173, 1651)" id="flowchart-T-33" class="node default"><rect height="54" width="153.625" y="-27" x="-76.8125" style="" class="basic label-container"/><g transform="translate(-46.8125, -12)" style="" class="label"><rect/><foreignObject height="24" width="93.625"><div style="display: table-cell; white-space: nowrap; line-height: 1.5; max-width: 200px; text-align: center;" xmlns="http://www.w3.org/1999/xhtml"><span class="nodeLabel"><p>Decrypt Data</p></span></div></foreignObject></g></g><g transform="translate(173, 1767)" id="flowchart-U-35" class="node default"><rect height="78" width="260" y="-39" x="-130" style="" class="basic label-container"/><g transform="translate(-100, -24)" style="" class="label"><rect/><foreignObject height="48" width="200"><div style="display: table; white-space: break-spaces; line-height: 1.5; max-width: 200px; text-align: center; width: 200px;" xmlns="http://www.w3.org/1999/xhtml"><span class="nodeLabel"><p>Return Decrypted Data to Client</p></span></div></foreignObject></g></g><g transform="translate(173, 1908)" id="flowchart-V-37" class="node default"><rect height="54" width="86.234375" y="-27" x="-43.1171875" style="" class="basic label-container"/><g transform="translate(-13.1171875, -12)" style="" class="label"><rect/><foreignObject height="24" width="26.234375"><div style="display: table-cell; white-space: nowrap; line-height: 1.5; max-width: 200px; text-align: center;" xmlns="http://www.w3.org/1999/xhtml"><span class="nodeLabel"><p>End</p></span></div></foreignObject></g></g><g transform="translate(1038.6171875, 1242)" id="flowchart-DB1-58" class="node default"><rect height="54" width="134.390625" y="-27" x="-67.1953125" style="" class="basic label-container"/><g transform="translate(-37.1953125, -12)" style="" class="label"><rect/><foreignObject height="24" width="74.390625"><div style="display: table-cell; white-space: nowrap; line-height: 1.5; max-width: 200px; text-align: center;" xmlns="http://www.w3.org/1999/xhtml"><span class="nodeLabel"><p>User Table</p></span></div></foreignObject></g></g><g transform="translate(535.69921875, 1076)" id="flowchart-DB2-59" class="node default"><rect height="54" width="230.796875" y="-27" x="-115.3984375" style="" class="basic label-container"/><g transform="translate(-85.3984375, -12)" style="" class="label"><rect/><foreignObject height="24" width="170.796875"><div style="display: table-cell; white-space: nowrap; line-height: 1.5; max-width: 200px; text-align: center;" xmlns="http://www.w3.org/1999/xhtml"><span class="nodeLabel"><p>Blood Test Results Table</p></span></div></foreignObject></g></g><g transform="translate(797.77734375, 1076)" id="flowchart-DB3-60" class="node default"><rect height="54" width="193.359375" y="-27" x="-96.6796875" style="" class="basic label-container"/><g transform="translate(-66.6796875, -12)" style="" class="label"><rect/><foreignObject height="24" width="133.359375"><div style="display: table-cell; white-space: nowrap; line-height: 1.5; max-width: 200px; text-align: center;" xmlns="http://www.w3.org/1999/xhtml"><span class="nodeLabel"><p>Attachments Table</p></span></div></foreignObject></g></g></g></g></g></svg>