<svg aria-roledescription="er" role="graphics-document document" viewBox="0 0 531.6951599121094 708.734375" style="max-width: 531.695px; background-color: white;" xmlns:xlink="http://www.w3.org/1999/xlink" xmlns="http://www.w3.org/2000/svg" width="100%" id="my-svg"><style>#my-svg{font-family:"trebuchet ms",verdana,arial,sans-serif;font-size:16px;fill:#333;}#my-svg .error-icon{fill:#552222;}#my-svg .error-text{fill:#552222;stroke:#552222;}#my-svg .edge-thickness-normal{stroke-width:1px;}#my-svg .edge-thickness-thick{stroke-width:3.5px;}#my-svg .edge-pattern-solid{stroke-dasharray:0;}#my-svg .edge-thickness-invisible{stroke-width:0;fill:none;}#my-svg .edge-pattern-dashed{stroke-dasharray:3;}#my-svg .edge-pattern-dotted{stroke-dasharray:2;}#my-svg .marker{fill:#333333;stroke:#333333;}#my-svg .marker.cross{stroke:#333333;}#my-svg svg{font-family:"trebuchet ms",verdana,arial,sans-serif;font-size:16px;}#my-svg p{margin:0;}#my-svg .entityBox{fill:#ECECFF;stroke:#9370DB;}#my-svg .attributeBoxOdd{fill:#ffffff;stroke:#9370DB;}#my-svg .attributeBoxEven{fill:#f2f2f2;stroke:#9370DB;}#my-svg .relationshipLabelBox{fill:hsl(80, 100%, 96.2745098039%);opacity:0.7;background-color:hsl(80, 100%, 96.2745098039%);}#my-svg .relationshipLabelBox rect{opacity:0.5;}#my-svg .relationshipLine{stroke:#333333;}#my-svg .entityTitleText{text-anchor:middle;font-size:18px;fill:#333;}#my-svg #MD_PARENT_START{fill:#f5f5f5!important;stroke:#333333!important;stroke-width:1;}#my-svg #MD_PARENT_END{fill:#f5f5f5!important;stroke:#333333!important;stroke-width:1;}#my-svg :root{--mermaid-font-family:"trebuchet ms",verdana,arial,sans-serif;}</style><g/><defs><marker orient="auto" markerHeight="240" markerWidth="190" refY="7" refX="0" id="MD_PARENT_START"><path d="M 18,7 L9,13 L1,7 L9,1 Z"/></marker></defs><defs><marker orient="auto" markerHeight="28" markerWidth="20" refY="7" refX="19" id="MD_PARENT_END"><path d="M 18,7 L9,13 L1,7 L9,1 Z"/></marker></defs><defs><marker orient="auto" markerHeight="18" markerWidth="18" refY="9" refX="0" id="ONLY_ONE_START"><path d="M9,0 L9,18 M15,0 L15,18" fill="none" stroke="gray"/></marker></defs><defs><marker orient="auto" markerHeight="18" markerWidth="18" refY="9" refX="18" id="ONLY_ONE_END"><path d="M3,0 L3,18 M9,0 L9,18" fill="none" stroke="gray"/></marker></defs><defs><marker orient="auto" markerHeight="18" markerWidth="30" refY="9" refX="0" id="ZERO_OR_ONE_START"><circle r="6" cy="9" cx="21" fill="white" stroke="gray"/><path d="M9,0 L9,18" fill="none" stroke="gray"/></marker></defs><defs><marker orient="auto" markerHeight="18" markerWidth="30" refY="9" refX="30" id="ZERO_OR_ONE_END"><circle r="6" cy="9" cx="9" fill="white" stroke="gray"/><path d="M21,0 L21,18" fill="none" stroke="gray"/></marker></defs><defs><marker orient="auto" markerHeight="36" markerWidth="45" refY="18" refX="18" id="ONE_OR_MORE_START"><path d="M0,18 Q 18,0 36,18 Q 18,36 0,18 M42,9 L42,27" fill="none" stroke="gray"/></marker></defs><defs><marker orient="auto" markerHeight="36" markerWidth="45" refY="18" refX="27" id="ONE_OR_MORE_END"><path d="M3,9 L3,27 M9,18 Q27,0 45,18 Q27,36 9,18" fill="none" stroke="gray"/></marker></defs><defs><marker orient="auto" markerHeight="36" markerWidth="57" refY="18" refX="18" id="ZERO_OR_MORE_START"><circle r="6" cy="18" cx="48" fill="white" stroke="gray"/><path d="M0,18 Q18,0 36,18 Q18,36 0,18" fill="none" stroke="gray"/></marker></defs><defs><marker orient="auto" markerHeight="36" markerWidth="57" refY="18" refX="39" id="ZERO_OR_MORE_END"><circle r="6" cy="18" cx="9" fill="white" stroke="gray"/><path d="M21,18 Q39,0 57,18 Q39,36 21,18" fill="none" stroke="gray"/></marker></defs><path style="stroke: gray; fill: none;" marker-start="url(#ONE_OR_MORE_START)" marker-end="url(#ONLY_ONE_END)" d="M74.859,476.597L74.859,488.604C74.859,500.612,74.859,524.627,74.859,544.968C74.859,565.309,74.859,581.976,74.859,590.309L74.859,598.643" class="er relationshipLine"/><path style="stroke: gray; fill: none;" marker-start="url(#ONE_OR_MORE_START)" marker-end="url(#ONLY_ONE_END)" d="M83.178,198.367L73.458,214.034C63.738,229.701,44.299,261.034,39.265,288.708C34.23,316.382,43.601,340.398,48.287,352.405L52.972,364.413" class="er relationshipLine"/><path style="stroke: gray; fill: none;" marker-start="url(#ONE_OR_MORE_START)" marker-end="url(#ONLY_ONE_END)" d="M198.525,198.367L215.703,214.034C232.881,229.701,267.237,261.034,293.447,285.832C319.656,310.63,337.719,328.892,346.75,338.023L355.781,347.155" class="er relationshipLine"/><path style="stroke: gray; fill: none;" marker-start="url(#ONE_OR_MORE_START)" marker-end="url(#ONLY_ONE_END)" d="M299.953,202.662L283.56,217.613C267.167,232.564,234.38,262.466,206.008,289.528C177.635,316.591,153.677,340.814,141.698,352.926L129.719,365.038" class="er relationshipLine"/><path style="stroke: gray; fill: none;" marker-start="url(#ONE_OR_MORE_START)" marker-end="url(#ONLY_ONE_END)" d="M447.308,242.367L452.478,250.701C457.648,259.034,467.988,275.701,469.906,292.367C471.825,309.034,465.321,325.701,462.07,334.034L458.818,342.367" class="er relationshipLine"/><g transform="translate(24.859375,598.642578125 )" id="entity-Category-1a07ff93-e37c-5c4b-81d2-6cefab6d4eed"><rect height="90.091796875" width="100" y="0" x="0" class="er entityBox"/><text style="dominant-baseline: middle; text-anchor: middle; font-size: 12px;" transform="translate(50,12)" y="0" x="0" id="text-entity-Category-1a07ff93-e37c-5c4b-81d2-6cefab6d4eed" class="er entityLabel">Category</text><rect height="22" width="59.9375" y="24" x="0" class="er attributeBoxOdd"/><text style="dominant-baseline: middle; font-size: 10.2px;" transform="translate(5,35)" y="0" x="0" id="text-entity-Category-1a07ff93-e37c-5c4b-81d2-6cefab6d4eed-attr-1-type" class="er entityLabel">UUIDField</text><rect height="22" width="40.0625" y="24" x="59.9375" class="er attributeBoxOdd"/><text style="dominant-baseline: middle; font-size: 10.2px;" transform="translate(64.9375,35)" y="0" x="0" id="text-entity-Category-1a07ff93-e37c-5c4b-81d2-6cefab6d4eed-attr-1-name" class="er entityLabel">uuid</text><rect height="22.091796875" width="59.9375" y="46" x="0" class="er attributeBoxEven"/><text style="dominant-baseline: middle; font-size: 10.2px;" transform="translate(5,57.0458984375)" y="0" x="0" id="text-entity-Category-1a07ff93-e37c-5c4b-81d2-6cefab6d4eed-attr-2-type" class="er entityLabel">CharField</text><rect height="22.091796875" width="40.0625" y="46" x="59.9375" class="er attributeBoxEven"/><text style="dominant-baseline: middle; font-size: 10.2px;" transform="translate(64.9375,57.0458984375)" y="0" x="0" id="text-entity-Category-1a07ff93-e37c-5c4b-81d2-6cefab6d4eed-attr-2-name" class="er entityLabel">path</text><rect height="22" width="59.9375" y="68.091796875" x="0" class="er attributeBoxOdd"/><text style="dominant-baseline: middle; font-size: 10.2px;" transform="translate(5,79.091796875)" y="0" x="0" id="text-entity-Category-1a07ff93-e37c-5c4b-81d2-6cefab6d4eed-attr-3-type" class="er entityLabel">CharField</text><rect height="22" width="40.0625" y="68.091796875" x="59.9375" class="er attributeBoxOdd"/><text style="dominant-baseline: middle; font-size: 10.2px;" transform="translate(64.9375,79.091796875)" y="0" x="0" id="text-entity-Category-1a07ff93-e37c-5c4b-81d2-6cefab6d4eed-attr-3-name" class="er entityLabel">name</text></g><g transform="translate(20,364.4130859375 )" id="entity-Form-98b736a9-9996-5ea8-a02c-78b8a2412db0"><rect height="112.18359470367432" width="109.71875" y="0" x="0" class="er entityBox"/><text style="dominant-baseline: middle; text-anchor: middle; font-size: 12px;" transform="translate(54.859375,12)" y="0" x="0" id="text-entity-Form-98b736a9-9996-5ea8-a02c-78b8a2412db0" class="er entityLabel">Form</text><rect height="22" width="60.109375" y="24" x="0" class="er attributeBoxOdd"/><text style="dominant-baseline: middle; font-size: 10.2px;" transform="translate(5,35)" y="0" x="0" id="text-entity-Form-98b736a9-9996-5ea8-a02c-78b8a2412db0-attr-1-type" class="er entityLabel">UUIDField</text><rect height="22" width="49.609375" y="24" x="60.109375" class="er attributeBoxOdd"/><text style="dominant-baseline: middle; font-size: 10.2px;" transform="translate(65.109375,35)" y="0" x="0" id="text-entity-Form-98b736a9-9996-5ea8-a02c-78b8a2412db0-attr-1-name" class="er entityLabel">uuid</text><rect height="22.091796875" width="60.109375" y="46" x="0" class="er attributeBoxEven"/><text style="dominant-baseline: middle; font-size: 10.2px;" transform="translate(5,57.0458984375)" y="0" x="0" id="text-entity-Form-98b736a9-9996-5ea8-a02c-78b8a2412db0-attr-2-type" class="er entityLabel">SlugField</text><rect height="22.091796875" width="49.609375" y="46" x="60.109375" class="er attributeBoxEven"/><text style="dominant-baseline: middle; font-size: 10.2px;" transform="translate(65.109375,57.0458984375)" y="0" x="0" id="text-entity-Form-98b736a9-9996-5ea8-a02c-78b8a2412db0-attr-2-name" class="er entityLabel">slug</text><rect height="22" width="60.109375" y="68.091796875" x="0" class="er attributeBoxOdd"/><text style="dominant-baseline: middle; font-size: 10.2px;" transform="translate(5,79.091796875)" y="0" x="0" id="text-entity-Form-98b736a9-9996-5ea8-a02c-78b8a2412db0-attr-3-type" class="er entityLabel">CharField</text><rect height="22" width="49.609375" y="68.091796875" x="60.109375" class="er attributeBoxOdd"/><text style="dominant-baseline: middle; font-size: 10.2px;" transform="translate(65.109375,79.091796875)" y="0" x="0" id="text-entity-Form-98b736a9-9996-5ea8-a02c-78b8a2412db0-attr-3-name" class="er entityLabel">name</text><rect height="22.091797828674316" width="60.109375" y="90.091796875" x="0" class="er attributeBoxEven"/><text style="dominant-baseline: middle; font-size: 10.2px;" transform="translate(5,101.13769578933716)" y="0" x="0" id="text-entity-Form-98b736a9-9996-5ea8-a02c-78b8a2412db0-attr-4-type" class="er entityLabel">ForeignKey</text><rect height="22.091797828674316" width="49.609375" y="90.091796875" x="60.109375" class="er attributeBoxEven"/><text style="dominant-baseline: middle; font-size: 10.2px;" transform="translate(65.109375,101.13769578933716)" y="0" x="0" id="text-entity-Form-98b736a9-9996-5ea8-a02c-78b8a2412db0-attr-4-name" class="er entityLabel">category</text></g><g transform="translate(355.78125,342.3671875 )" id="entity-FormDefinition-adbfa411-178f-545e-83e5-61ec2a362bd5"><rect height="156.275390625" width="145.09375" y="0" x="0" class="er entityBox"/><text style="dominant-baseline: middle; text-anchor: middle; font-size: 12px;" transform="translate(72.546875,12)" y="0" x="0" id="text-entity-FormDefinition-adbfa411-178f-545e-83e5-61ec2a362bd5" class="er entityLabel">FormDefinition</text><rect height="22" width="68.75" y="24" x="0" class="er attributeBoxOdd"/><text style="dominant-baseline: middle; font-size: 10.2px;" transform="translate(5,35)" y="0" x="0" id="text-entity-FormDefinition-adbfa411-178f-545e-83e5-61ec2a362bd5-attr-1-type" class="er entityLabel">UUIDField</text><rect height="22" width="76.34375" y="24" x="68.75" class="er attributeBoxOdd"/><text style="dominant-baseline: middle; font-size: 10.2px;" transform="translate(73.75,35)" y="0" x="0" id="text-entity-FormDefinition-adbfa411-178f-545e-83e5-61ec2a362bd5-attr-1-name" class="er entityLabel">uuid</text><rect height="22" width="68.75" y="46" x="0" class="er attributeBoxEven"/><text style="dominant-baseline: middle; font-size: 10.2px;" transform="translate(5,57)" y="0" x="0" id="text-entity-FormDefinition-adbfa411-178f-545e-83e5-61ec2a362bd5-attr-2-type" class="er entityLabel">CharField</text><rect height="22" width="76.34375" y="46" x="68.75" class="er attributeBoxEven"/><text style="dominant-baseline: middle; font-size: 10.2px;" transform="translate(73.75,57)" y="0" x="0" id="text-entity-FormDefinition-adbfa411-178f-545e-83e5-61ec2a362bd5-attr-2-name" class="er entityLabel">name</text><rect height="22.091796875" width="68.75" y="68" x="0" class="er attributeBoxOdd"/><text style="dominant-baseline: middle; font-size: 10.2px;" transform="translate(5,79.0458984375)" y="0" x="0" id="text-entity-FormDefinition-adbfa411-178f-545e-83e5-61ec2a362bd5-attr-3-type" class="er entityLabel">SlugField</text><rect height="22.091796875" width="76.34375" y="68" x="68.75" class="er attributeBoxOdd"/><text style="dominant-baseline: middle; font-size: 10.2px;" transform="translate(73.75,79.0458984375)" y="0" x="0" id="text-entity-FormDefinition-adbfa411-178f-545e-83e5-61ec2a362bd5-attr-3-name" class="er entityLabel">slug</text><rect height="22.091796875" width="68.75" y="90.091796875" x="0" class="er attributeBoxEven"/><text style="dominant-baseline: middle; font-size: 10.2px;" transform="translate(5,101.1376953125)" y="0" x="0" id="text-entity-FormDefinition-adbfa411-178f-545e-83e5-61ec2a362bd5-attr-4-type" class="er entityLabel">JSONField</text><rect height="22.091796875" width="76.34375" y="90.091796875" x="68.75" class="er attributeBoxEven"/><text style="dominant-baseline: middle; font-size: 10.2px;" transform="translate(73.75,101.1376953125)" y="0" x="0" id="text-entity-FormDefinition-adbfa411-178f-545e-83e5-61ec2a362bd5-attr-4-name" class="er entityLabel">configuration</text><rect height="22.091796875" width="68.75" y="112.18359375" x="0" class="er attributeBoxOdd"/><text style="dominant-baseline: middle; font-size: 10.2px;" transform="translate(5,123.2294921875)" y="0" x="0" id="text-entity-FormDefinition-adbfa411-178f-545e-83e5-61ec2a362bd5-attr-5-type" class="er entityLabel">BooleanField</text><rect height="22.091796875" width="76.34375" y="112.18359375" x="68.75" class="er attributeBoxOdd"/><text style="dominant-baseline: middle; font-size: 10.2px;" transform="translate(73.75,123.2294921875)" y="0" x="0" id="text-entity-FormDefinition-adbfa411-178f-545e-83e5-61ec2a362bd5-attr-5-name" class="er entityLabel">login_required</text><rect height="22" width="68.75" y="134.275390625" x="0" class="er attributeBoxEven"/><text style="dominant-baseline: middle; font-size: 10.2px;" transform="translate(5,145.275390625)" y="0" x="0" id="text-entity-FormDefinition-adbfa411-178f-545e-83e5-61ec2a362bd5-attr-6-type" class="er entityLabel">BooleanField</text><rect height="22" width="76.34375" y="134.275390625" x="68.75" class="er attributeBoxEven"/><text style="dominant-baseline: middle; font-size: 10.2px;" transform="translate(73.75,145.275390625)" y="0" x="0" id="text-entity-FormDefinition-adbfa411-178f-545e-83e5-61ec2a362bd5-attr-6-name" class="er entityLabel">is_reusable</text></g><g transform="translate(49.765625,64 )" id="entity-FormStep-cdf310fe-eed3-50ab-be01-17dc3dad675b"><rect height="134.36719036102295" width="150.1875" y="0" x="0" class="er entityBox"/><text style="dominant-baseline: middle; text-anchor: middle; font-size: 12px;" transform="translate(75.09375,12)" y="0" x="0" id="text-entity-FormStep-cdf310fe-eed3-50ab-be01-17dc3dad675b" class="er entityLabel">FormStep</text><rect height="22" width="68.75" y="24" x="0" class="er attributeBoxOdd"/><text style="dominant-baseline: middle; font-size: 10.2px;" transform="translate(5,35)" y="0" x="0" id="text-entity-FormStep-cdf310fe-eed3-50ab-be01-17dc3dad675b-attr-1-type" class="er entityLabel">UUIDField</text><rect height="22" width="81.4375" y="24" x="68.75" class="er attributeBoxOdd"/><text style="dominant-baseline: middle; font-size: 10.2px;" transform="translate(73.75,35)" y="0" x="0" id="text-entity-FormStep-cdf310fe-eed3-50ab-be01-17dc3dad675b-attr-1-name" class="er entityLabel">uuid</text><rect height="22.091796875" width="68.75" y="46" x="0" class="er attributeBoxEven"/><text style="dominant-baseline: middle; font-size: 10.2px;" transform="translate(5,57.0458984375)" y="0" x="0" id="text-entity-FormStep-cdf310fe-eed3-50ab-be01-17dc3dad675b-attr-2-type" class="er entityLabel">SlugField</text><rect height="22.091796875" width="81.4375" y="46" x="68.75" class="er attributeBoxEven"/><text style="dominant-baseline: middle; font-size: 10.2px;" transform="translate(73.75,57.0458984375)" y="0" x="0" id="text-entity-FormStep-cdf310fe-eed3-50ab-be01-17dc3dad675b-attr-2-name" class="er entityLabel">slug</text><rect height="22.091797828674316" width="68.75" y="68.091796875" x="0" class="er attributeBoxOdd"/><text style="dominant-baseline: middle; font-size: 10.2px;" transform="translate(5,79.13769578933716)" y="0" x="0" id="text-entity-FormStep-cdf310fe-eed3-50ab-be01-17dc3dad675b-attr-3-type" class="er entityLabel">ForeignKey</text><rect height="22.091797828674316" width="81.4375" y="68.091796875" x="68.75" class="er attributeBoxOdd"/><text style="dominant-baseline: middle; font-size: 10.2px;" transform="translate(73.75,79.13769578933716)" y="0" x="0" id="text-entity-FormStep-cdf310fe-eed3-50ab-be01-17dc3dad675b-attr-3-name" class="er entityLabel">form</text><rect height="22.091797828674316" width="68.75" y="90.18359470367432" x="0" class="er attributeBoxEven"/><text style="dominant-baseline: middle; font-size: 10.2px;" transform="translate(5,101.22949361801147)" y="0" x="0" id="text-entity-FormStep-cdf310fe-eed3-50ab-be01-17dc3dad675b-attr-4-type" class="er entityLabel">ForeignKey</text><rect height="22.091797828674316" width="81.4375" y="90.18359470367432" x="68.75" class="er attributeBoxEven"/><text style="dominant-baseline: middle; font-size: 10.2px;" transform="translate(73.75,101.22949361801147)" y="0" x="0" id="text-entity-FormStep-cdf310fe-eed3-50ab-be01-17dc3dad675b-attr-4-name" class="er entityLabel">form_definition</text><rect height="22.091797828674316" width="68.75" y="112.27539253234863" x="0" class="er attributeBoxOdd"/><text style="dominant-baseline: middle; font-size: 10.2px;" transform="translate(5,123.32129144668579)" y="0" x="0" id="text-entity-FormStep-cdf310fe-eed3-50ab-be01-17dc3dad675b-attr-5-type" class="er entityLabel">BooleanField</text><rect height="22.091797828674316" width="81.4375" y="112.27539253234863" x="68.75" class="er attributeBoxOdd"/><text style="dominant-baseline: middle; font-size: 10.2px;" transform="translate(73.75,123.32129144668579)" y="0" x="0" id="text-entity-FormStep-cdf310fe-eed3-50ab-be01-17dc3dad675b-attr-5-name" class="er entityLabel">is_applicable</text></g><g transform="translate(299.953125,20 )" id="entity-FormVariable-6e0c61e8-084b-5ce7-90d7-ef2d8e60ad44"><rect height="222.36718940734863" width="156.75" y="0" x="0" class="er entityBox"/><text style="dominant-baseline: middle; text-anchor: middle; font-size: 12px;" transform="translate(78.375,12)" y="0" x="0" id="text-entity-FormVariable-6e0c61e8-084b-5ce7-90d7-ef2d8e60ad44" class="er entityLabel">FormVariable</text><rect height="22.091797828674316" width="68.75" y="24" x="0" class="er attributeBoxOdd"/><text style="dominant-baseline: middle; font-size: 10.2px;" transform="translate(5,35.04589891433716)" y="0" x="0" id="text-entity-FormVariable-6e0c61e8-084b-5ce7-90d7-ef2d8e60ad44-attr-1-type" class="er entityLabel">ForeignKey</text><rect height="22.091797828674316" width="88" y="24" x="68.75" class="er attributeBoxOdd"/><text style="dominant-baseline: middle; font-size: 10.2px;" transform="translate(73.75,35.04589891433716)" y="0" x="0" id="text-entity-FormVariable-6e0c61e8-084b-5ce7-90d7-ef2d8e60ad44-attr-1-name" class="er entityLabel">form</text><rect height="22.091797828674316" width="68.75" y="46.091797828674316" x="0" class="er attributeBoxEven"/><text style="dominant-baseline: middle; font-size: 10.2px;" transform="translate(5,57.137696743011475)" y="0" x="0" id="text-entity-FormVariable-6e0c61e8-084b-5ce7-90d7-ef2d8e60ad44-attr-2-type" class="er entityLabel">ForeignKey</text><rect height="22.091797828674316" width="88" y="46.091797828674316" x="68.75" class="er attributeBoxEven"/><text style="dominant-baseline: middle; font-size: 10.2px;" transform="translate(73.75,57.137696743011475)" y="0" x="0" id="text-entity-FormVariable-6e0c61e8-084b-5ce7-90d7-ef2d8e60ad44-attr-2-name" class="er entityLabel">form_definition</text><rect height="22" width="68.75" y="68.18359565734863" x="0" class="er attributeBoxOdd"/><text style="dominant-baseline: middle; font-size: 10.2px;" transform="translate(5,79.18359565734863)" y="0" x="0" id="text-entity-FormVariable-6e0c61e8-084b-5ce7-90d7-ef2d8e60ad44-attr-3-type" class="er entityLabel">TextField</text><rect height="22" width="88" y="68.18359565734863" x="68.75" class="er attributeBoxOdd"/><text style="dominant-baseline: middle; font-size: 10.2px;" transform="translate(73.75,79.18359565734863)" y="0" x="0" id="text-entity-FormVariable-6e0c61e8-084b-5ce7-90d7-ef2d8e60ad44-attr-3-name" class="er entityLabel">name</text><rect height="22.091796875" width="68.75" y="90.18359565734863" x="0" class="er attributeBoxEven"/><text style="dominant-baseline: middle; font-size: 10.2px;" transform="translate(5,101.22949409484863)" y="0" x="0" id="text-entity-FormVariable-6e0c61e8-084b-5ce7-90d7-ef2d8e60ad44-attr-4-type" class="er entityLabel">TextField</text><rect height="22.091796875" width="88" y="90.18359565734863" x="68.75" class="er attributeBoxEven"/><text style="dominant-baseline: middle; font-size: 10.2px;" transform="translate(73.75,101.22949409484863)" y="0" x="0" id="text-entity-FormVariable-6e0c61e8-084b-5ce7-90d7-ef2d8e60ad44-attr-4-name" class="er entityLabel">key</text><rect height="22" width="68.75" y="112.27539253234863" x="0" class="er attributeBoxOdd"/><text style="dominant-baseline: middle; font-size: 10.2px;" transform="translate(5,123.27539253234863)" y="0" x="0" id="text-entity-FormVariable-6e0c61e8-084b-5ce7-90d7-ef2d8e60ad44-attr-5-type" class="er entityLabel">CharField</text><rect height="22" width="88" y="112.27539253234863" x="68.75" class="er attributeBoxOdd"/><text style="dominant-baseline: middle; font-size: 10.2px;" transform="translate(73.75,123.27539253234863)" y="0" x="0" id="text-entity-FormVariable-6e0c61e8-084b-5ce7-90d7-ef2d8e60ad44-attr-5-name" class="er entityLabel">source</text><rect height="22.091796875" width="68.75" y="134.27539253234863" x="0" class="er attributeBoxEven"/><text style="dominant-baseline: middle; font-size: 10.2px;" transform="translate(5,145.32129096984863)" y="0" x="0" id="text-entity-FormVariable-6e0c61e8-084b-5ce7-90d7-ef2d8e60ad44-attr-6-type" class="er entityLabel">CharField</text><rect height="22.091796875" width="88" y="134.27539253234863" x="68.75" class="er attributeBoxEven"/><text style="dominant-baseline: middle; font-size: 10.2px;" transform="translate(73.75,145.32129096984863)" y="0" x="0" id="text-entity-FormVariable-6e0c61e8-084b-5ce7-90d7-ef2d8e60ad44-attr-6-name" class="er entityLabel">data_type</text><rect height="22" width="68.75" y="156.36718940734863" x="0" class="er attributeBoxOdd"/><text style="dominant-baseline: middle; font-size: 10.2px;" transform="translate(5,167.36718940734863)" y="0" x="0" id="text-entity-FormVariable-6e0c61e8-084b-5ce7-90d7-ef2d8e60ad44-attr-7-type" class="er entityLabel">CharField</text><rect height="22" width="88" y="156.36718940734863" x="68.75" class="er attributeBoxOdd"/><text style="dominant-baseline: middle; font-size: 10.2px;" transform="translate(73.75,167.36718940734863)" y="0" x="0" id="text-entity-FormVariable-6e0c61e8-084b-5ce7-90d7-ef2d8e60ad44-attr-7-name" class="er entityLabel">data_format</text><rect height="22" width="68.75" y="178.36718940734863" x="0" class="er attributeBoxEven"/><text style="dominant-baseline: middle; font-size: 10.2px;" transform="translate(5,189.36718940734863)" y="0" x="0" id="text-entity-FormVariable-6e0c61e8-084b-5ce7-90d7-ef2d8e60ad44-attr-8-type" class="er entityLabel">BooleanField</text><rect height="22" width="88" y="178.36718940734863" x="68.75" class="er attributeBoxEven"/><text style="dominant-baseline: middle; font-size: 10.2px;" transform="translate(73.75,189.36718940734863)" y="0" x="0" id="text-entity-FormVariable-6e0c61e8-084b-5ce7-90d7-ef2d8e60ad44-attr-8-name" class="er entityLabel">is_sensitive_data</text><rect height="22" width="68.75" y="200.36718940734863" x="0" class="er attributeBoxOdd"/><text style="dominant-baseline: middle; font-size: 10.2px;" transform="translate(5,211.36718940734863)" y="0" x="0" id="text-entity-FormVariable-6e0c61e8-084b-5ce7-90d7-ef2d8e60ad44-attr-9-type" class="er entityLabel">JSONField</text><rect height="22" width="88" y="200.36718940734863" x="68.75" class="er attributeBoxOdd"/><text style="dominant-baseline: middle; font-size: 10.2px;" transform="translate(73.75,211.36718940734863)" y="0" x="0" id="text-entity-FormVariable-6e0c61e8-084b-5ce7-90d7-ef2d8e60ad44-attr-9-name" class="er entityLabel">initial_value</text></g><rect height="14" width="46.59375" y="530.6199951171875" x="51.56212615966797" class="er relationshipLabelBox"/><text style="text-anchor: middle; dominant-baseline: middle; font-size: 12px;" y="537.6199951171875" x="74.85900115966797" id="rel1" class="er relationshipLabel">category</text><rect height="14" width="25.5" y="270.5841369628906" x="29.211410522460938" class="er relationshipLabelBox"/><text style="text-anchor: middle; dominant-baseline: middle; font-size: 12px;" y="277.5841369628906" x="41.96141052246094" id="rel2" class="er relationshipLabel">form</text><rect height="14" width="84.046875" y="264.5841064453125" x="236.2493896484375" class="er relationshipLabelBox"/><text style="text-anchor: middle; dominant-baseline: middle; font-size: 12px;" y="271.5841064453125" x="278.2728271484375" id="rel3" class="er relationshipLabel">form_definition</text><rect height="14" width="25.5" y="275.4315185546875" x="200.72967529296875" class="er relationshipLabelBox"/><text style="text-anchor: middle; dominant-baseline: middle; font-size: 12px;" y="282.4315185546875" x="213.47967529296875" id="rel4" class="er relationshipLabel">form</text><rect height="14" width="84.046875" y="283.60308837890625" x="427.6482849121094" class="er relationshipLabelBox"/><text style="text-anchor: middle; dominant-baseline: middle; font-size: 12px;" y="290.60308837890625" x="469.6717224121094" id="rel5" class="er relationshipLabel">form_definition</text></svg>