<svg aria-roledescription="gantt" role="graphics-document document" style="max-width: 784px; background-color: white;" viewBox="0 0 784 868" xmlns:xlink="http://www.w3.org/1999/xlink" xmlns="http://www.w3.org/2000/svg" width="100%" id="my-svg"><style>#my-svg{font-family:"trebuchet ms",verdana,arial,sans-serif;font-size:16px;fill:#ccc;}#my-svg .error-icon{fill:#a44141;}#my-svg .error-text{fill:#ddd;stroke:#ddd;}#my-svg .edge-thickness-normal{stroke-width:1px;}#my-svg .edge-thickness-thick{stroke-width:3.5px;}#my-svg .edge-pattern-solid{stroke-dasharray:0;}#my-svg .edge-thickness-invisible{stroke-width:0;fill:none;}#my-svg .edge-pattern-dashed{stroke-dasharray:3;}#my-svg .edge-pattern-dotted{stroke-dasharray:2;}#my-svg .marker{fill:lightgrey;stroke:lightgrey;}#my-svg .marker.cross{stroke:lightgrey;}#my-svg svg{font-family:"trebuchet ms",verdana,arial,sans-serif;font-size:16px;}#my-svg p{margin:0;}#my-svg .mermaid-main-font{font-family:var(--mermaid-font-family, "trebuchet ms", verdana, arial, sans-serif);}#my-svg .exclude-range{fill:hsl(52.9411764706, 28.813559322%, 48.431372549%);}#my-svg .section{stroke:none;opacity:0.2;}#my-svg .section0{fill:hsl(52.9411764706, 28.813559322%, 58.431372549%);}#my-svg .section2{fill:#EAE8D9;}#my-svg .section1,#my-svg .section3{fill:#333;opacity:0.2;}#my-svg .sectionTitle0{fill:#F9FFFE;}#my-svg .sectionTitle1{fill:#F9FFFE;}#my-svg .sectionTitle2{fill:#F9FFFE;}#my-svg .sectionTitle3{fill:#F9FFFE;}#my-svg .sectionTitle{text-anchor:start;font-family:var(--mermaid-font-family, "trebuchet ms", verdana, arial, sans-serif);}#my-svg .grid .tick{stroke:lightgrey;opacity:0.8;shape-rendering:crispEdges;}#my-svg .grid .tick text{font-family:"trebuchet ms",verdana,arial,sans-serif;fill:#ccc;}#my-svg .grid path{stroke-width:0;}#my-svg .today{fill:none;stroke:red;stroke-width:2px;}#my-svg .task{stroke-width:2;}#my-svg .taskText{text-anchor:middle;font-family:var(--mermaid-font-family, "trebuchet ms", verdana, arial, sans-serif);}#my-svg .taskTextOutsideRight{fill:white;text-anchor:start;font-family:var(--mermaid-font-family, "trebuchet ms", verdana, arial, sans-serif);}#my-svg .taskTextOutsideLeft{fill:white;text-anchor:end;}#my-svg .task.clickable{cursor:pointer;}#my-svg .taskText.clickable{cursor:pointer;fill:#003163!important;font-weight:bold;}#my-svg .taskTextOutsideLeft.clickable{cursor:pointer;fill:#003163!important;font-weight:bold;}#my-svg .taskTextOutsideRight.clickable{cursor:pointer;fill:#003163!important;font-weight:bold;}#my-svg .taskText0,#my-svg .taskText1,#my-svg .taskText2,#my-svg .taskText3{fill:white;}#my-svg .task0,#my-svg .task1,#my-svg .task2,#my-svg .task3{fill:black;stroke:black;}#my-svg .taskTextOutside0,#my-svg .taskTextOutside2{fill:lightgrey;}#my-svg .taskTextOutside1,#my-svg .taskTextOutside3{fill:lightgrey;}#my-svg .active0,#my-svg .active1,#my-svg .active2,#my-svg .active3{fill:#0000ff;stroke:lightgrey;}#my-svg .activeText0,#my-svg .activeText1,#my-svg .activeText2,#my-svg .activeText3{fill:white!important;}#my-svg .done0,#my-svg .done1,#my-svg .done2,#my-svg .done3{stroke:lightgrey;fill:grey;stroke-width:2;}#my-svg .doneText0,#my-svg .doneText1,#my-svg .doneText2,#my-svg .doneText3{fill:white!important;}#my-svg .crit0,#my-svg .crit1,#my-svg .crit2,#my-svg .crit3{stroke:lightgrey;fill:#E83737;stroke-width:2;}#my-svg .activeCrit0,#my-svg .activeCrit1,#my-svg .activeCrit2,#my-svg .activeCrit3{stroke:lightgrey;fill:#0000ff;stroke-width:2;}#my-svg .doneCrit0,#my-svg .doneCrit1,#my-svg .doneCrit2,#my-svg .doneCrit3{stroke:lightgrey;fill:grey;stroke-width:2;cursor:pointer;shape-rendering:crispEdges;}#my-svg .milestone{transform:rotate(45deg) scale(0.8,0.8);}#my-svg .milestoneText{font-style:italic;}#my-svg .doneCritText0,#my-svg .doneCritText1,#my-svg .doneCritText2,#my-svg .doneCritText3{fill:white!important;}#my-svg .activeCritText0,#my-svg .activeCritText1,#my-svg .activeCritText2,#my-svg .activeCritText3{fill:white!important;}#my-svg .titleText{text-anchor:middle;font-size:18px;fill:#F9FFFE;font-family:var(--mermaid-font-family, "trebuchet ms", verdana, arial, sans-serif);}#my-svg :root{--mermaid-font-family:"trebuchet ms",verdana,arial,sans-serif;}</style><g/><g text-anchor="middle" font-family="sans-serif" font-size="10" fill="none" transform="translate(75, 818)" class="grid"><path d="M0.5,-783V0.5H634.5V-783" stroke="currentColor" class="domain"/><g transform="translate(0.5,0)" opacity="1" class="tick"><line y2="-783" stroke="currentColor"/><text style="text-anchor: middle;" font-size="10" stroke="none" dy="1em" y="3" fill="#000">2013-01-01</text></g><g transform="translate(54.5,0)" opacity="1" class="tick"><line y2="-783" stroke="currentColor"/><text style="text-anchor: middle;" font-size="10" stroke="none" dy="1em" y="3" fill="#000">2014-01-01</text></g><g transform="translate(108.5,0)" opacity="1" class="tick"><line y2="-783" stroke="currentColor"/><text style="text-anchor: middle;" font-size="10" stroke="none" dy="1em" y="3" fill="#000">2015-01-01</text></g><g transform="translate(162.5,0)" opacity="1" class="tick"><line y2="-783" stroke="currentColor"/><text style="text-anchor: middle;" font-size="10" stroke="none" dy="1em" y="3" fill="#000">2016-01-01</text></g><g transform="translate(216.5,0)" opacity="1" class="tick"><line y2="-783" stroke="currentColor"/><text style="text-anchor: middle;" font-size="10" stroke="none" dy="1em" y="3" fill="#000">2017-01-01</text></g><g transform="translate(270.5,0)" opacity="1" class="tick"><line y2="-783" stroke="currentColor"/><text style="text-anchor: middle;" font-size="10" stroke="none" dy="1em" y="3" fill="#000">2018-01-01</text></g><g transform="translate(324.5,0)" opacity="1" class="tick"><line y2="-783" stroke="currentColor"/><text style="text-anchor: middle;" font-size="10" stroke="none" dy="1em" y="3" fill="#000">2019-01-01</text></g><g transform="translate(378.5,0)" opacity="1" class="tick"><line y2="-783" stroke="currentColor"/><text style="text-anchor: middle;" font-size="10" stroke="none" dy="1em" y="3" fill="#000">2020-01-01</text></g><g transform="translate(432.5,0)" opacity="1" class="tick"><line y2="-783" stroke="currentColor"/><text style="text-anchor: middle;" font-size="10" stroke="none" dy="1em" y="3" fill="#000">2021-01-01</text></g><g transform="translate(486.5,0)" opacity="1" class="tick"><line y2="-783" stroke="currentColor"/><text style="text-anchor: middle;" font-size="10" stroke="none" dy="1em" y="3" fill="#000">2022-01-01</text></g><g transform="translate(540.5,0)" opacity="1" class="tick"><line y2="-783" stroke="currentColor"/><text style="text-anchor: middle;" font-size="10" stroke="none" dy="1em" y="3" fill="#000">2023-01-01</text></g><g transform="translate(593.5,0)" opacity="1" class="tick"><line y2="-783" stroke="currentColor"/><text style="text-anchor: middle;" font-size="10" stroke="none" dy="1em" y="3" fill="#000">2024-01-01</text></g></g><g><rect class="section section0" height="24" width="746.5" y="48" x="0"/><rect class="section section0" height="24" width="746.5" y="72" x="0"/><rect class="section section0" height="24" width="746.5" y="96" x="0"/><rect class="section section0" height="24" width="746.5" y="120" x="0"/><rect class="section section0" height="24" width="746.5" y="144" x="0"/><rect class="section section0" height="24" width="746.5" y="168" x="0"/><rect class="section section0" height="24" width="746.5" y="192" x="0"/><rect class="section section0" height="24" width="746.5" y="216" x="0"/><rect class="section section0" height="24" width="746.5" y="240" x="0"/><rect class="section section0" height="24" width="746.5" y="264" x="0"/><rect class="section section0" height="24" width="746.5" y="288" x="0"/><rect class="section section0" height="24" width="746.5" y="312" x="0"/><rect class="section section0" height="24" width="746.5" y="336" x="0"/><rect class="section section0" height="24" width="746.5" y="360" x="0"/><rect class="section section0" height="24" width="746.5" y="384" x="0"/><rect class="section section0" height="24" width="746.5" y="408" x="0"/><rect class="section section0" height="24" width="746.5" y="432" x="0"/><rect class="section section0" height="24" width="746.5" y="456" x="0"/><rect class="section section0" height="24" width="746.5" y="480" x="0"/><rect class="section section0" height="24" width="746.5" y="504" x="0"/><rect class="section section0" height="24" width="746.5" y="528" x="0"/><rect class="section section0" height="24" width="746.5" y="552" x="0"/><rect class="section section0" height="24" width="746.5" y="576" x="0"/><rect class="section section0" height="24" width="746.5" y="600" x="0"/><rect class="section section0" height="24" width="746.5" y="624" x="0"/><rect class="section section0" height="24" width="746.5" y="648" x="0"/><rect class="section section0" height="24" width="746.5" y="672" x="0"/><rect class="section section0" height="24" width="746.5" y="696" x="0"/><rect class="section section0" height="24" width="746.5" y="720" x="0"/><rect class="section section0" height="24" width="746.5" y="744" x="0"/><rect class="section section0" height="24" width="746.5" y="768" x="0"/><rect class="section section0" height="24" width="746.5" y="792" x="0"/></g><g><rect class="task active0" transform-origin="391.5px 60px" height="20" width="633" y="50" x="75" ry="3" rx="3" id="task1"/><rect class="task active0" transform-origin="391.5px 84px" height="20" width="633" y="74" x="75" ry="3" rx="3" id="task2"/><rect class="task active0" transform-origin="391.5px 108px" height="20" width="633" y="98" x="75" ry="3" rx="3" id="task3"/><rect class="task active0" transform-origin="391.5px 132px" height="20" width="633" y="122" x="75" ry="3" rx="3" id="task4"/><rect class="task done0" transform-origin="335px 156px" height="20" width="262" y="146" x="204" ry="3" rx="3" id="task5"/><rect class="task active0" transform-origin="456.5px 180px" height="20" width="503" y="170" x="205" ry="3" rx="3" id="task6"/><rect class="task active0" transform-origin="467.5px 204px" height="20" width="481" y="194" x="227" ry="3" rx="3" id="task7"/><rect class="task active0" transform-origin="467.5px 228px" height="20" width="481" y="218" x="227" ry="3" rx="3" id="task8"/><rect class="task active0" transform-origin="473.5px 252px" height="20" width="469" y="242" x="239" ry="3" rx="3" id="task9"/><rect class="task active0" transform-origin="473.5px 276px" height="20" width="469" y="266" x="239" ry="3" rx="3" id="task10"/><rect class="task active0" transform-origin="484px 300px" height="20" width="448" y="290" x="260" ry="3" rx="3" id="task11"/><rect class="task active0" transform-origin="538px 324px" height="20" width="340" y="314" x="368" ry="3" rx="3" id="task12"/><rect class="task active0" transform-origin="589px 348px" height="20" width="238" y="338" x="470" ry="3" rx="3" id="task13"/><rect class="task active0" transform-origin="593.5px 372px" height="20" width="229" y="362" x="479" ry="3" rx="3" id="task14"/><rect class="task active0" transform-origin="596px 396px" height="20" width="222" y="386" x="485" ry="3" rx="3" id="task15"/><rect class="task active0" transform-origin="599px 420px" height="20" width="216" y="410" x="491" ry="3" rx="3" id="task16"/><rect class="task active0" transform-origin="599px 444px" height="20" width="216" y="434" x="491" ry="3" rx="3" id="task17"/><rect class="task active0" transform-origin="599.5px 468px" height="20" width="217" y="458" x="491" ry="3" rx="3" id="task18"/><rect class="task active0" transform-origin="604.5px 492px" height="20" width="205" y="482" x="502" ry="3" rx="3" id="task19"/><rect class="task active0" transform-origin="608px 516px" height="20" width="198" y="506" x="509" ry="3" rx="3" id="task20"/><rect class="task active0" transform-origin="635.5px 540px" height="20" width="145" y="530" x="563" ry="3" rx="3" id="task21"/><rect class="task active0" transform-origin="635.5px 564px" height="20" width="145" y="554" x="563" ry="3" rx="3" id="task22"/><rect class="task active0" transform-origin="641px 588px" height="20" width="136" y="578" x="573" ry="3" rx="3" id="task23"/><rect class="task active0" transform-origin="650.5px 612px" height="20" width="113" y="602" x="594" ry="3" rx="3" id="task24"/><rect class="task active0" transform-origin="669.5px 636px" height="20" width="79" y="626" x="630" ry="3" rx="3" id="task25"/><rect class="task active0" transform-origin="669px 660px" height="20" width="78" y="650" x="630" ry="3" rx="3" id="task26"/><rect class="task active0" transform-origin="672px 684px" height="20" width="70" y="674" x="637" ry="3" rx="3" id="task27"/><rect class="task active0" transform-origin="672.5px 708px" height="20" width="69" y="698" x="638" ry="3" rx="3" id="task28"/><rect class="task active0" transform-origin="685.5px 732px" height="20" width="47" y="722" x="662" ry="3" rx="3" id="task29"/><rect class="task active0" transform-origin="705.5px 756px" height="20" width="7" y="746" x="702" ry="3" rx="3" id="task30"/><rect class="task active0" transform-origin="705px 780px" height="20" width="0" y="770" x="705" ry="3" rx="3" id="task31"/><rect class="task active0" transform-origin="709px 804px" height="20" width="0" y="794" x="709" ry="3" rx="3" id="task32"/><text class="taskText taskText0 activeText0 width-70.375" y="63.5" x="391.5" font-size="11" id="task1-text">Nagios-Plugins </text><text class="taskText taskText0 activeText0 width-12.515625" y="87.5" x="391.5" font-size="11" id="task2-text">lib </text><text class="taskText taskText0 activeText0 width-62.21875" y="111.5" x="391.5" font-size="11" id="task3-text">Spotify-tools </text><text class="taskText taskText0 activeText0 width-87.21875" y="135.5" x="391.5" font-size="11" id="task4-text">DevOps-Perl-tools </text><text class="taskText taskText0  doneText0 width-52.71875" y="159.5" x="335" font-size="11" id="task5-text">spark-apps </text><text class="taskText taskText0 activeText0 width-37.53125" y="183.5" x="456.5" font-size="11" id="task6-text">lib-java </text><text class="taskText taskText0 activeText0 width-24.0625" y="207.5" x="467.5" font-size="11" id="task7-text">pylib </text><text class="taskText taskText0 activeText0 width-101.921875" y="231.5" x="467.5" font-size="11" id="task8-text">DevOps-Python-tools </text><text class="taskText taskText0 activeText0 width-54.828125" y="255.5" x="473.5" font-size="11" id="task9-text">Dockerfiles </text><text class="taskText taskText0 activeText0 width-90.546875" y="279.5" x="473.5" font-size="11" id="task10-text">DevOps-Bash-tools </text><text class="taskText taskText0 activeText0 width-97.453125" y="303.5" x="484" font-size="11" id="task11-text">Nagios-Plugin-Kafka </text><text class="taskText taskText0 activeText0 width-79" y="327.5" x="538" font-size="11" id="task12-text">HAProxy-configs </text><text class="taskText taskText0 activeText0 width-101.96875" y="351.5" x="589" font-size="11" id="task13-text">DevOps-Golang-tools </text><text class="taskText taskText0 activeText0 width-78.59375" y="375.5" x="593.5" font-size="11" id="task14-text">Spotify-Playlists </text><text class="taskText taskText0 activeText0 width-54.59375" y="399.5" x="596" font-size="11" id="task15-text">SQL-scripts </text><text class="taskText taskText0 activeText0 width-93.8125" y="423.5" x="599" font-size="11" id="task16-text">Kubernetes-configs </text><text class="taskText taskText0 activeText0 width-68.265625" y="447.5" x="599" font-size="11" id="task17-text">SQL-keywords </text><text class="taskText taskText0 activeText0 width-50.125" y="471.5" x="599.5" font-size="11" id="task18-text">Templates </text><text class="taskText taskText0 activeText0 width-59.109375" y="495.5" x="604.5" font-size="11" id="task19-text">TeamCity-CI </text><text class="taskText taskText0 activeText0 width-48.734375" y="519.5" x="608" font-size="11" id="task20-text">Terraform </text><text class="taskText taskText0 activeText0 width-36.40625" y="543.5" x="635.5" font-size="11" id="task21-text">Jenkins </text><text class="taskText taskText0 activeText0 width-74.125" y="567.5" x="635.5" font-size="11" id="task22-text">GitHub-Actions </text><text class="taskText taskText0 activeText0 width-27.015625" y="591.5" x="641" font-size="11" id="task23-text">CI-CD </text><text class="taskTextOutsideLeft taskTextOutside0 activeText0" y="615.5" x="589" font-size="11" id="task24-text">GitHub-Actions-Contexts </text><text class="taskTextOutsideLeft taskTextOutside0 activeText0" y="639.5" x="625" font-size="11" id="task25-text">Diagrams-as-Code </text><text class="taskText taskText0 activeText0 width-73.6875" y="663.5" x="669" font-size="11" id="task26-text">Template-Repo </text><text class="taskText taskText0 activeText0 width-32.671875" y="687.5" x="672" font-size="11" id="task27-text">Packer </text><text class="taskTextOutsideLeft taskTextOutside0 activeText0" y="711.5" x="633" font-size="11" id="task28-text">Vagrant-templates </text><text class="taskTextOutsideLeft taskTextOutside0 activeText0" y="735.5" x="657" font-size="11" id="task29-text">Knowledge-Base </text><text class="taskTextOutsideLeft taskTextOutside0 activeText0" y="759.5" x="697" font-size="11" id="task30-text">HariSekhon </text><text class="taskTextOutsideLeft taskTextOutside0 activeText0" y="783.5" x="700" font-size="11" id="task31-text">GitHub-Commit-Times-Graph </text><text class="taskTextOutsideLeft taskTextOutside0 activeText0" y="807.5" x="704" font-size="11" id="task32-text">GitHub-Repos-MermaidJS-Gantt-Chart </text></g><g><text class="sectionTitle sectionTitle0" font-size="11" y="434" x="10" dy="0em"><tspan x="10" alignment-baseline="central"/></text></g><g class="today"><line class="today" y2="843" y1="25" x2="714" x1="714"/></g><text class="titleText" y="25" x="392">Repositories Gantt Chart</text></svg>