<svg aria-roledescription="er" role="graphics-document document" viewBox="0 0 354.09375 254.18359375" style="max-width: 354.094px; background-color: white;" xmlns:xlink="http://www.w3.org/1999/xlink" xmlns="http://www.w3.org/2000/svg" width="100%" id="my-svg"><style>#my-svg{font-family:"trebuchet ms",verdana,arial,sans-serif;font-size:16px;fill:#333;}#my-svg .error-icon{fill:#552222;}#my-svg .error-text{fill:#552222;stroke:#552222;}#my-svg .edge-thickness-normal{stroke-width:1px;}#my-svg .edge-thickness-thick{stroke-width:3.5px;}#my-svg .edge-pattern-solid{stroke-dasharray:0;}#my-svg .edge-thickness-invisible{stroke-width:0;fill:none;}#my-svg .edge-pattern-dashed{stroke-dasharray:3;}#my-svg .edge-pattern-dotted{stroke-dasharray:2;}#my-svg .marker{fill:#333333;stroke:#333333;}#my-svg .marker.cross{stroke:#333333;}#my-svg svg{font-family:"trebuchet ms",verdana,arial,sans-serif;font-size:16px;}#my-svg p{margin:0;}#my-svg .entityBox{fill:#ECECFF;stroke:#9370DB;}#my-svg .attributeBoxOdd{fill:#ffffff;stroke:#9370DB;}#my-svg .attributeBoxEven{fill:#f2f2f2;stroke:#9370DB;}#my-svg .relationshipLabelBox{fill:hsl(80, 100%, 96.2745098039%);opacity:0.7;background-color:hsl(80, 100%, 96.2745098039%);}#my-svg .relationshipLabelBox rect{opacity:0.5;}#my-svg .relationshipLine{stroke:#333333;}#my-svg .entityTitleText{text-anchor:middle;font-size:18px;fill:#333;}#my-svg #MD_PARENT_START{fill:#f5f5f5!important;stroke:#333333!important;stroke-width:1;}#my-svg #MD_PARENT_END{fill:#f5f5f5!important;stroke:#333333!important;stroke-width:1;}#my-svg :root{--mermaid-font-family:"trebuchet ms",verdana,arial,sans-serif;}</style><g/><defs><marker orient="auto" markerHeight="240" markerWidth="190" refY="7" refX="0" id="MD_PARENT_START"><path d="M 18,7 L9,13 L1,7 L9,1 Z"/></marker></defs><defs><marker orient="auto" markerHeight="28" markerWidth="20" refY="7" refX="19" id="MD_PARENT_END"><path d="M 18,7 L9,13 L1,7 L9,1 Z"/></marker></defs><defs><marker orient="auto" markerHeight="18" markerWidth="18" refY="9" refX="0" id="ONLY_ONE_START"><path d="M9,0 L9,18 M15,0 L15,18" fill="none" stroke="gray"/></marker></defs><defs><marker orient="auto" markerHeight="18" markerWidth="18" refY="9" refX="18" id="ONLY_ONE_END"><path d="M3,0 L3,18 M9,0 L9,18" fill="none" stroke="gray"/></marker></defs><defs><marker orient="auto" markerHeight="18" markerWidth="30" refY="9" refX="0" id="ZERO_OR_ONE_START"><circle r="6" cy="9" cx="21" fill="white" stroke="gray"/><path d="M9,0 L9,18" fill="none" stroke="gray"/></marker></defs><defs><marker orient="auto" markerHeight="18" markerWidth="30" refY="9" refX="30" id="ZERO_OR_ONE_END"><circle r="6" cy="9" cx="9" fill="white" stroke="gray"/><path d="M21,0 L21,18" fill="none" stroke="gray"/></marker></defs><defs><marker orient="auto" markerHeight="36" markerWidth="45" refY="18" refX="18" id="ONE_OR_MORE_START"><path d="M0,18 Q 18,0 36,18 Q 18,36 0,18 M42,9 L42,27" fill="none" stroke="gray"/></marker></defs><defs><marker orient="auto" markerHeight="36" markerWidth="45" refY="18" refX="27" id="ONE_OR_MORE_END"><path d="M3,9 L3,27 M9,18 Q27,0 45,18 Q27,36 9,18" fill="none" stroke="gray"/></marker></defs><defs><marker orient="auto" markerHeight="36" markerWidth="57" refY="18" refX="18" id="ZERO_OR_MORE_START"><circle r="6" cy="18" cx="48" fill="white" stroke="gray"/><path d="M0,18 Q18,0 36,18 Q18,36 0,18" fill="none" stroke="gray"/></marker></defs><defs><marker orient="auto" markerHeight="36" markerWidth="57" refY="18" refX="39" id="ZERO_OR_MORE_END"><circle r="6" cy="18" cx="9" fill="white" stroke="gray"/><path d="M21,18 Q39,0 57,18 Q39,36 21,18" fill="none" stroke="gray"/></marker></defs><path style="stroke: gray; fill: none;" marker-start="url(#ZERO_OR_MORE_START)" marker-end="url(#ONLY_ONE_END)" stroke-dasharray="8,8" d="M140.862,66.092L129.052,74.425C117.241,82.758,93.621,99.425,81.81,116.092C70,132.758,70,149.425,70,157.758L70,166.092" class="er relationshipLine"/><path style="stroke: gray; fill: none;" marker-start="url(#ONE_OR_MORE_START)" marker-end="url(#ONLY_ONE_END)" stroke-dasharray="8,8" d="M206.185,66.092L217.995,74.425C229.806,82.758,253.426,99.425,265.237,116.099C277.047,132.774,277.047,149.456,277.047,157.797L277.047,166.138" class="er relationshipLine"/><g transform="translate(20,166.091796875 )" id="entity-Produit-7cf0551c-fd62-55cc-ae4f-bed6dd5f575e"><rect height="68.091796875" width="100" y="0" x="0" class="er entityBox"/><text style="dominant-baseline: middle; text-anchor: middle; font-size: 12px;" transform="translate(50,12)" y="0" x="0" id="text-entity-Produit-7cf0551c-fd62-55cc-ae4f-bed6dd5f575e" class="er entityLabel">Produit</text><rect height="22.091796875" width="33.625" y="24" x="0" class="er attributeBoxOdd"/><text style="dominant-baseline: middle; font-size: 10.2px;" transform="translate(5,35.0458984375)" y="0" x="0" id="text-entity-Produit-7cf0551c-fd62-55cc-ae4f-bed6dd5f575e-attr-1-type" class="er entityLabel">TYPE</text><rect height="22.091796875" width="44.078125" y="24" x="33.625" class="er attributeBoxOdd"/><text style="dominant-baseline: middle; font-size: 10.2px;" transform="translate(38.625,35.0458984375)" y="0" x="0" id="text-entity-Produit-7cf0551c-fd62-55cc-ae4f-bed6dd5f575e-attr-1-name" class="er entityLabel">produit</text><rect height="22.091796875" width="22.296875" y="24" x="77.703125" class="er attributeBoxOdd"/><text style="dominant-baseline: middle; font-size: 10.2px;" transform="translate(82.703125,35.0458984375)" y="0" x="0" id="text-entity-Produit-7cf0551c-fd62-55cc-ae4f-bed6dd5f575e-attr-1-key" class="er entityLabel">PK</text><rect height="22" width="33.625" y="46.091796875" x="0" class="er attributeBoxEven"/><text style="dominant-baseline: middle; font-size: 10.2px;" transform="translate(5,57.091796875)" y="0" x="0" id="text-entity-Produit-7cf0551c-fd62-55cc-ae4f-bed6dd5f575e-attr-2-type" class="er entityLabel">TYPE</text><rect height="22" width="44.078125" y="46.091796875" x="33.625" class="er attributeBoxEven"/><text style="dominant-baseline: middle; font-size: 10.2px;" transform="translate(38.625,57.091796875)" y="0" x="0" id="text-entity-Produit-7cf0551c-fd62-55cc-ae4f-bed6dd5f575e-attr-2-name" class="er entityLabel">libelle</text><rect height="22" width="22.296875" y="46.091796875" x="77.703125" class="er attributeBoxEven"/><text style="dominant-baseline: middle; font-size: 10.2px;" transform="translate(82.703125,57.091796875)" y="0" x="0" id="text-entity-Produit-7cf0551c-fd62-55cc-ae4f-bed6dd5f575e-attr-2-key" class="er entityLabel"/></g><g transform="translate(102.1015625,20 )" id="entity-Lignedecommande-5aacd2e8-7e21-5f49-a650-1eaec1796831"><rect height="46.091797828674316" width="142.84375" y="0" x="0" class="er entityBox"/><text style="dominant-baseline: middle; text-anchor: middle; font-size: 12px;" transform="translate(71.421875,12)" y="0" x="0" id="text-entity-Lignedecommande-5aacd2e8-7e21-5f49-a650-1eaec1796831" class="er entityLabel">Ligne_de_commande</text><rect height="22.091797828674316" width="46.104166666666664" y="24" x="0" class="er attributeBoxOdd"/><text style="dominant-baseline: middle; font-size: 10.2px;" transform="translate(5,35.04589891433716)" y="0" x="0" id="text-entity-Lignedecommande-5aacd2e8-7e21-5f49-a650-1eaec1796831-attr-1-type" class="er entityLabel">TYPE</text><rect height="22.091797828674316" width="61.963541666666664" y="24" x="46.104166666666664" class="er attributeBoxOdd"/><text style="dominant-baseline: middle; font-size: 10.2px;" transform="translate(51.104166666666664,35.04589891433716)" y="0" x="0" id="text-entity-Lignedecommande-5aacd2e8-7e21-5f49-a650-1eaec1796831-attr-1-name" class="er entityLabel">quantite</text><rect height="22.091797828674316" width="34.776041666666664" y="24" x="108.06770833333333" class="er attributeBoxOdd"/><text style="dominant-baseline: middle; font-size: 10.2px;" transform="translate(113.06770833333333,35.04589891433716)" y="0" x="0" id="text-entity-Lignedecommande-5aacd2e8-7e21-5f49-a650-1eaec1796831-attr-1-key" class="er entityLabel">PK</text></g><g transform="translate(220,166.1376953125 )" id="entity-Commande-7223ed66-3dd6-58ff-9f47-bb6070432a4a"><rect height="68" width="114.09375" y="0" x="0" class="er entityBox"/><text style="dominant-baseline: middle; text-anchor: middle; font-size: 12px;" transform="translate(57.046875,12)" y="0" x="0" id="text-entity-Commande-7223ed66-3dd6-58ff-9f47-bb6070432a4a" class="er entityLabel">Commande</text><rect height="22" width="32.890625" y="24" x="0" class="er attributeBoxOdd"/><text style="dominant-baseline: middle; font-size: 10.2px;" transform="translate(5,35)" y="0" x="0" id="text-entity-Commande-7223ed66-3dd6-58ff-9f47-bb6070432a4a-attr-1-type" class="er entityLabel">TYPE</text><rect height="22" width="59.640625" y="24" x="32.890625" class="er attributeBoxOdd"/><text style="dominant-baseline: middle; font-size: 10.2px;" transform="translate(37.890625,35)" y="0" x="0" id="text-entity-Commande-7223ed66-3dd6-58ff-9f47-bb6070432a4a-attr-1-name" class="er entityLabel">commande</text><rect height="22" width="21.5625" y="24" x="92.53125" class="er attributeBoxOdd"/><text style="dominant-baseline: middle; font-size: 10.2px;" transform="translate(97.53125,35)" y="0" x="0" id="text-entity-Commande-7223ed66-3dd6-58ff-9f47-bb6070432a4a-attr-1-key" class="er entityLabel">PK</text><rect height="22" width="32.890625" y="46" x="0" class="er attributeBoxEven"/><text style="dominant-baseline: middle; font-size: 10.2px;" transform="translate(5,57)" y="0" x="0" id="text-entity-Commande-7223ed66-3dd6-58ff-9f47-bb6070432a4a-attr-2-type" class="er entityLabel">TYPE</text><rect height="22" width="59.640625" y="46" x="32.890625" class="er attributeBoxEven"/><text style="dominant-baseline: middle; font-size: 10.2px;" transform="translate(37.890625,57)" y="0" x="0" id="text-entity-Commande-7223ed66-3dd6-58ff-9f47-bb6070432a4a-attr-2-name" class="er entityLabel">date</text><rect height="22" width="21.5625" y="46" x="92.53125" class="er attributeBoxEven"/><text style="dominant-baseline: middle; font-size: 10.2px;" transform="translate(97.53125,57)" y="0" x="0" id="text-entity-Commande-7223ed66-3dd6-58ff-9f47-bb6070432a4a-attr-2-key" class="er entityLabel"/></g><rect height="14" width="13.671875" y="99.38707733154297" x="83.0711669921875" class="er relationshipLabelBox"/><text style="text-anchor: middle; dominant-baseline: middle; font-size: 12px;" y="106.38707733154297" x="89.9071044921875" id="rel1" class="er relationshipLabel">DF</text><rect height="14" width="13.671875" y="99.40443420410156" x="250.31695556640625" class="er relationshipLabelBox"/><text style="text-anchor: middle; dominant-baseline: middle; font-size: 12px;" y="106.40443420410156" x="257.15289306640625" id="rel2" class="er relationshipLabel">DF</text></svg>