<svg aria-roledescription="gitGraph" role="graphics-document document" viewBox="-166.9375 -19 874.9375 175.84825134277344" style="max-width: 874.938px; background-color: white;" xmlns:xlink="http://www.w3.org/1999/xlink" xmlns="http://www.w3.org/2000/svg" width="100%" id="my-svg"><style>#my-svg{font-family:"trebuchet ms",verdana,arial,sans-serif;font-size:16px;fill:#333;}#my-svg .error-icon{fill:#552222;}#my-svg .error-text{fill:#552222;stroke:#552222;}#my-svg .edge-thickness-normal{stroke-width:1px;}#my-svg .edge-thickness-thick{stroke-width:3.5px;}#my-svg .edge-pattern-solid{stroke-dasharray:0;}#my-svg .edge-thickness-invisible{stroke-width:0;fill:none;}#my-svg .edge-pattern-dashed{stroke-dasharray:3;}#my-svg .edge-pattern-dotted{stroke-dasharray:2;}#my-svg .marker{fill:#333333;stroke:#333333;}#my-svg .marker.cross{stroke:#333333;}#my-svg svg{font-family:"trebuchet ms",verdana,arial,sans-serif;font-size:16px;}#my-svg p{margin:0;}#my-svg .commit-id,#my-svg .commit-msg,#my-svg .branch-label{fill:lightgrey;color:lightgrey;font-family:'trebuchet ms',verdana,arial,sans-serif;font-family:var(--mermaid-font-family);}#my-svg .branch-label0{fill:#ffffff;}#my-svg .commit0{stroke:hsl(240, 100%, 46.2745098039%);fill:hsl(240, 100%, 46.2745098039%);}#my-svg .commit-highlight0{stroke:hsl(60, 100%, 3.7254901961%);fill:hsl(60, 100%, 3.7254901961%);}#my-svg .label0{fill:hsl(240, 100%, 46.2745098039%);}#my-svg .arrow0{stroke:hsl(240, 100%, 46.2745098039%);}#my-svg .branch-label1{fill:black;}#my-svg .commit1{stroke:hsl(60, 100%, 43.5294117647%);fill:hsl(60, 100%, 43.5294117647%);}#my-svg .commit-highlight1{stroke:rgb(0, 0, 160.5);fill:rgb(0, 0, 160.5);}#my-svg .label1{fill:hsl(60, 100%, 43.5294117647%);}#my-svg .arrow1{stroke:hsl(60, 100%, 43.5294117647%);}#my-svg .branch-label2{fill:black;}#my-svg .commit2{stroke:hsl(80, 100%, 46.2745098039%);fill:hsl(80, 100%, 46.2745098039%);}#my-svg .commit-highlight2{stroke:rgb(48.8333333334, 0, 146.5000000001);fill:rgb(48.8333333334, 0, 146.5000000001);}#my-svg .label2{fill:hsl(80, 100%, 46.2745098039%);}#my-svg .arrow2{stroke:hsl(80, 100%, 46.2745098039%);}#my-svg .branch-label3{fill:#ffffff;}#my-svg .commit3{stroke:hsl(210, 100%, 46.2745098039%);fill:hsl(210, 100%, 46.2745098039%);}#my-svg .commit-highlight3{stroke:rgb(146.5000000001, 73.2500000001, 0);fill:rgb(146.5000000001, 73.2500000001, 0);}#my-svg .label3{fill:hsl(210, 100%, 46.2745098039%);}#my-svg .arrow3{stroke:hsl(210, 100%, 46.2745098039%);}#my-svg .branch-label4{fill:black;}#my-svg .commit4{stroke:hsl(180, 100%, 46.2745098039%);fill:hsl(180, 100%, 46.2745098039%);}#my-svg .commit-highlight4{stroke:rgb(146.5000000001, 0, 0);fill:rgb(146.5000000001, 0, 0);}#my-svg .label4{fill:hsl(180, 100%, 46.2745098039%);}#my-svg .arrow4{stroke:hsl(180, 100%, 46.2745098039%);}#my-svg .branch-label5{fill:black;}#my-svg .commit5{stroke:hsl(150, 100%, 46.2745098039%);fill:hsl(150, 100%, 46.2745098039%);}#my-svg .commit-highlight5{stroke:rgb(146.5000000001, 0, 73.2500000001);fill:rgb(146.5000000001, 0, 73.2500000001);}#my-svg .label5{fill:hsl(150, 100%, 46.2745098039%);}#my-svg .arrow5{stroke:hsl(150, 100%, 46.2745098039%);}#my-svg .branch-label6{fill:black;}#my-svg .commit6{stroke:hsl(300, 100%, 46.2745098039%);fill:hsl(300, 100%, 46.2745098039%);}#my-svg .commit-highlight6{stroke:rgb(0, 146.5000000001, 0);fill:rgb(0, 146.5000000001, 0);}#my-svg .label6{fill:hsl(300, 100%, 46.2745098039%);}#my-svg .arrow6{stroke:hsl(300, 100%, 46.2745098039%);}#my-svg .branch-label7{fill:black;}#my-svg .commit7{stroke:hsl(0, 100%, 46.2745098039%);fill:hsl(0, 100%, 46.2745098039%);}#my-svg .commit-highlight7{stroke:rgb(0, 146.5000000001, 146.5000000001);fill:rgb(0, 146.5000000001, 146.5000000001);}#my-svg .label7{fill:hsl(0, 100%, 46.2745098039%);}#my-svg .arrow7{stroke:hsl(0, 100%, 46.2745098039%);}#my-svg .branch{stroke-width:1;stroke:#333333;stroke-dasharray:2;}#my-svg .commit-label{font-size:10px;fill:#000021;}#my-svg .commit-label-bkg{font-size:10px;fill:#ffffde;opacity:0.5;}#my-svg .tag-label{font-size:10px;fill:#131300;}#my-svg .tag-label-bkg{fill:#ECECFF;stroke:hsl(240, 60%, 86.2745098039%);}#my-svg .tag-hole{fill:#333;}#my-svg .commit-merge{stroke:#ECECFF;fill:#ECECFF;}#my-svg .commit-reverse{stroke:#ECECFF;fill:#ECECFF;stroke-width:3;}#my-svg .commit-highlight-inner{stroke:#ECECFF;fill:#ECECFF;}#my-svg .arrow{stroke-width:8;stroke-linecap:round;fill:none;}#my-svg .gitTitleText{text-anchor:middle;font-size:18px;fill:#333;}#my-svg :root{--mermaid-font-family:"trebuchet ms",verdana,arial,sans-serif;}</style><g/><g class="commit-bullets"/><g class="commit-labels"/><g><line class="branch branch0" y2="0" x2="700" y1="0" x1="0"/><rect transform="translate(-19, -9.5)" height="23" width="67.453125" y="-1.5" x="-83.453125" ry="4" rx="4" class="branchLabelBkg label0"/><g class="branchLabel"><g transform="translate(-93.453125, -10.5)" class="label branch-label0"><text><tspan class="row" x="0" dy="1em" xml:space="preserve">master</tspan></text></g></g><line class="branch branch1" y2="90" x2="700" y1="90" x1="0"/><rect transform="translate(-19, 80.5)" height="23" width="123.9375" y="-1.5" x="-139.9375" ry="4" rx="4" class="branchLabelBkg label1"/><g class="branchLabel"><g transform="translate(-149.9375, 79.5)" class="label branch-label1"><text><tspan class="row" x="0" dy="1em" xml:space="preserve">doc_ja_master</tspan></text></g></g></g><g class="commit-arrows"><path class="arrow arrow0" d="M 10 0 L 60 0"/><path class="arrow arrow0" d="M 60 0 L 110 0"/><path class="arrow arrow0" d="M 110 0 L 160 0"/><path class="arrow arrow1" d="M 160 0 L 160 70 A 20 20, 0, 0, 0, 180 90 L 210 90"/><path class="arrow arrow1" d="M 210 90 L 260 90"/><path class="arrow arrow0" d="M 160 0 L 160 35 A 10 10, 0, 0, 0, 170 45 L 250 45 A 10 10, 0, 0, 1, 260 55 L 260 90"/><path class="arrow arrow0" d="M 160 0 L 310 0"/><path class="arrow arrow0" d="M 310 0 L 360 0"/><path class="arrow arrow1" d="M 260 90 L 410 90"/><path class="arrow arrow1" d="M 410 90 L 460 90"/><path class="arrow arrow0" d="M 360 0 L 360 18.8 A 10 10, 0, 0, 0, 370 28.8 L 450 28.8 A 10 10, 0, 0, 1, 460 38.8 L 460 90"/><path class="arrow arrow0" d="M 360 0 L 510 0"/><path class="arrow arrow0" d="M 510 0 L 560 0"/><path class="arrow arrow1" d="M 460 90 L 610 90"/><path class="arrow arrow0" d="M 560 0 L 590 0 A 20 20, 0, 0, 1, 610 20 L 610 90"/><path class="arrow arrow1" d="M 610 90 L 660 90"/></g><g class="commit-bullets"><circle class="commit 0-c58ea4b commit0" r="10" cy="0" cx="10"/><circle class="commit 1-abfea94 commit0" r="10" cy="0" cx="60"/><circle class="commit 2-b82d88b commit0" r="10" cy="0" cx="110"/><circle class="commit 3-41db05a commit0" r="10" cy="0" cx="160"/><circle class="commit 4-0e18eaa commit1" r="10" cy="90" cx="210"/><circle class="commit 5-31f75b2 commit1" r="9" cy="90" cx="260"/><circle class="commit commit-merge 5-31f75b2 commit1" r="6" cy="90" cx="260"/><circle class="commit 6-5f1e3e3 commit0" r="10" cy="0" cx="310"/><circle class="commit 7-15e32f6 commit0" r="10" cy="0" cx="360"/><circle class="commit 8-a9d3044 commit1" r="10" cy="90" cx="410"/><circle class="commit 9-3570ad2 commit1" r="9" cy="90" cx="460"/><circle class="commit commit-merge 9-3570ad2 commit1" r="6" cy="90" cx="460"/><circle class="commit 10-e47060f commit0" r="10" cy="0" cx="510"/><circle class="commit 11-9aca861 commit0" r="10" cy="0" cx="560"/><circle class="commit 12-2a2c238 commit1" r="9" cy="90" cx="610"/><circle class="commit commit-merge 12-2a2c238 commit1" r="6" cy="90" cx="610"/><circle class="commit 13-fe58850 commit1" r="10" cy="90" cx="660"/></g><g class="commit-labels"><g transform="translate(-28.738437500000003, 25.6028125) rotate(-45, 0, 0)"><rect height="15" width="49.890625" y="13.5" x="-14.9453125" class="commit-label-bkg"/><text class="commit-label" y="25" x="-12.9453125">0-c58ea4b</text></g><g transform="translate(-28.2634375, 25.1778125) rotate(-45, 50, 0)"><rect height="15" width="48.640625" y="13.5" x="35.6796875" class="commit-label-bkg"/><text class="commit-label" y="25" x="37.6796875">1-abfea94</text></g><g transform="translate(-29.011562499999997, 25.847187499999997) rotate(-45, 100, 0)"><rect height="15" width="50.609375" y="13.5" x="84.6953125" class="commit-label-bkg"/><text class="commit-label" y="25" x="86.6953125">2-b82d88b</text></g><g transform="translate(-28.8928125, 25.7409375) rotate(-45, 150, 0)"><rect height="15" width="50.296875" y="13.5" x="134.8515625" class="commit-label-bkg"/><text class="commit-label" y="25" x="136.8515625">3-41db05a</text></g><g transform="translate(-28.8096875, 25.666562499999998) rotate(-45, 200, 90)"><rect height="15" width="50.078125" y="103.5" x="184.9609375" class="commit-label-bkg"/><text class="commit-label" y="115" x="186.9609375">4-0e18eaa</text></g><g transform="translate(-28.21, 25.130000000000003) rotate(-45, 300, 0)"><rect height="15" width="48.5" y="13.5" x="285.75" class="commit-label-bkg"/><text class="commit-label" y="25" x="287.75">6-5f1e3e3</text></g><g transform="translate(-28.1328125, 25.0609375) rotate(-45, 350, 0)"><rect height="15" width="48.296875" y="13.5" x="335.8515625" class="commit-label-bkg"/><text class="commit-label" y="25" x="337.8515625">7-15e32f6</text></g><g transform="translate(-28.768125, 25.629375000000003) rotate(-45, 400, 90)"><rect height="15" width="49.96875" y="103.5" x="385.015625" class="commit-label-bkg"/><text class="commit-label" y="115" x="387.015625">8-a9d3044</text></g><g transform="translate(-30.1404296875, 26.8572265625) rotate(-45, 500, 0)"><rect height="15" width="53.580078125" y="13.5" x="483.2099609375" class="commit-label-bkg"/><text class="commit-label" y="25" x="485.2099609375">10-e47060f</text></g><g transform="translate(-30.5315625, 27.2071875) rotate(-45, 550, 0)"><rect height="15" width="54.609375" y="13.5" x="532.6953125" class="commit-label-bkg"/><text class="commit-label" y="25" x="534.6953125">11-9aca861</text></g><g transform="translate(-30.121875, 26.840625) rotate(-45, 650, 90)"><rect height="15" width="53.53125" y="103.5" x="633.234375" class="commit-label-bkg"/><text class="commit-label" y="115" x="635.234375">13-fe58850</text></g></g></svg>