<svg aria-roledescription="gitGraph" role="graphics-document document" viewBox="-114.078125 -34.72539138793945 672.078125 289.3686828613281" style="max-width: 672.078px; background-color: white;" xmlns:xlink="http://www.w3.org/1999/xlink" xmlns="http://www.w3.org/2000/svg" width="100%" id="my-svg"><style>#my-svg{font-family:"trebuchet ms",verdana,arial,sans-serif;font-size:16px;fill:#333;}#my-svg .error-icon{fill:#552222;}#my-svg .error-text{fill:#552222;stroke:#552222;}#my-svg .edge-thickness-normal{stroke-width:1px;}#my-svg .edge-thickness-thick{stroke-width:3.5px;}#my-svg .edge-pattern-solid{stroke-dasharray:0;}#my-svg .edge-thickness-invisible{stroke-width:0;fill:none;}#my-svg .edge-pattern-dashed{stroke-dasharray:3;}#my-svg .edge-pattern-dotted{stroke-dasharray:2;}#my-svg .marker{fill:#333333;stroke:#333333;}#my-svg .marker.cross{stroke:#333333;}#my-svg svg{font-family:"trebuchet ms",verdana,arial,sans-serif;font-size:16px;}#my-svg p{margin:0;}#my-svg .commit-id,#my-svg .commit-msg,#my-svg .branch-label{fill:lightgrey;color:lightgrey;font-family:'trebuchet ms',verdana,arial,sans-serif;font-family:var(--mermaid-font-family);}#my-svg .branch-label0{fill:#ffffff;}#my-svg .commit0{stroke:hsl(240, 100%, 46.2745098039%);fill:hsl(240, 100%, 46.2745098039%);}#my-svg .commit-highlight0{stroke:hsl(60, 100%, 3.7254901961%);fill:hsl(60, 100%, 3.7254901961%);}#my-svg .label0{fill:hsl(240, 100%, 46.2745098039%);}#my-svg .arrow0{stroke:hsl(240, 100%, 46.2745098039%);}#my-svg .branch-label1{fill:black;}#my-svg .commit1{stroke:hsl(60, 100%, 43.5294117647%);fill:hsl(60, 100%, 43.5294117647%);}#my-svg .commit-highlight1{stroke:rgb(0, 0, 160.5);fill:rgb(0, 0, 160.5);}#my-svg .label1{fill:hsl(60, 100%, 43.5294117647%);}#my-svg .arrow1{stroke:hsl(60, 100%, 43.5294117647%);}#my-svg .branch-label2{fill:black;}#my-svg .commit2{stroke:hsl(80, 100%, 46.2745098039%);fill:hsl(80, 100%, 46.2745098039%);}#my-svg .commit-highlight2{stroke:rgb(48.8333333334, 0, 146.5000000001);fill:rgb(48.8333333334, 0, 146.5000000001);}#my-svg .label2{fill:hsl(80, 100%, 46.2745098039%);}#my-svg .arrow2{stroke:hsl(80, 100%, 46.2745098039%);}#my-svg .branch-label3{fill:#ffffff;}#my-svg .commit3{stroke:hsl(210, 100%, 46.2745098039%);fill:hsl(210, 100%, 46.2745098039%);}#my-svg .commit-highlight3{stroke:rgb(146.5000000001, 73.2500000001, 0);fill:rgb(146.5000000001, 73.2500000001, 0);}#my-svg .label3{fill:hsl(210, 100%, 46.2745098039%);}#my-svg .arrow3{stroke:hsl(210, 100%, 46.2745098039%);}#my-svg .branch-label4{fill:black;}#my-svg .commit4{stroke:hsl(180, 100%, 46.2745098039%);fill:hsl(180, 100%, 46.2745098039%);}#my-svg .commit-highlight4{stroke:rgb(146.5000000001, 0, 0);fill:rgb(146.5000000001, 0, 0);}#my-svg .label4{fill:hsl(180, 100%, 46.2745098039%);}#my-svg .arrow4{stroke:hsl(180, 100%, 46.2745098039%);}#my-svg .branch-label5{fill:black;}#my-svg .commit5{stroke:hsl(150, 100%, 46.2745098039%);fill:hsl(150, 100%, 46.2745098039%);}#my-svg .commit-highlight5{stroke:rgb(146.5000000001, 0, 73.2500000001);fill:rgb(146.5000000001, 0, 73.2500000001);}#my-svg .label5{fill:hsl(150, 100%, 46.2745098039%);}#my-svg .arrow5{stroke:hsl(150, 100%, 46.2745098039%);}#my-svg .branch-label6{fill:black;}#my-svg .commit6{stroke:hsl(300, 100%, 46.2745098039%);fill:hsl(300, 100%, 46.2745098039%);}#my-svg .commit-highlight6{stroke:rgb(0, 146.5000000001, 0);fill:rgb(0, 146.5000000001, 0);}#my-svg .label6{fill:hsl(300, 100%, 46.2745098039%);}#my-svg .arrow6{stroke:hsl(300, 100%, 46.2745098039%);}#my-svg .branch-label7{fill:black;}#my-svg .commit7{stroke:hsl(0, 100%, 46.2745098039%);fill:hsl(0, 100%, 46.2745098039%);}#my-svg .commit-highlight7{stroke:rgb(0, 146.5000000001, 146.5000000001);fill:rgb(0, 146.5000000001, 146.5000000001);}#my-svg .label7{fill:hsl(0, 100%, 46.2745098039%);}#my-svg .arrow7{stroke:hsl(0, 100%, 46.2745098039%);}#my-svg .branch{stroke-width:1;stroke:#333333;stroke-dasharray:2;}#my-svg .commit-label{font-size:10px;fill:#000021;}#my-svg .commit-label-bkg{font-size:10px;fill:#ffffde;opacity:0.5;}#my-svg .tag-label{font-size:10px;fill:#131300;}#my-svg .tag-label-bkg{fill:#ECECFF;stroke:hsl(240, 60%, 86.2745098039%);}#my-svg .tag-hole{fill:#333;}#my-svg .commit-merge{stroke:#ECECFF;fill:#ECECFF;}#my-svg .commit-reverse{stroke:#ECECFF;fill:#ECECFF;stroke-width:3;}#my-svg .commit-highlight-inner{stroke:#ECECFF;fill:#ECECFF;}#my-svg .arrow{stroke-width:8;stroke-linecap:round;fill:none;}#my-svg .gitTitleText{text-anchor:middle;font-size:18px;fill:#333;}#my-svg :root{--mermaid-font-family:"trebuchet ms",verdana,arial,sans-serif;}</style><g/><g class="commit-bullets"/><g class="commit-labels"/><g><line class="branch branch0" y2="0" x2="550" y1="0" x1="0"/><rect transform="translate(-19, -9.5)" height="23" width="53" y="-1.5" x="-69" ry="4" rx="4" class="branchLabelBkg label0"/><g class="branchLabel"><g transform="translate(-79, -10.5)" class="label branch-label0"><text><tspan class="row" x="0" dy="1em" xml:space="preserve">main</tspan></text></g></g><line class="branch branch1" y2="90" x2="550" y1="90" x1="0"/><rect transform="translate(-19, 80.5)" height="23" width="71.078125" y="-1.5" x="-87.078125" ry="4" rx="4" class="branchLabelBkg label1"/><g class="branchLabel"><g transform="translate(-97.078125, 79.5)" class="label branch-label1"><text><tspan class="row" x="0" dy="1em" xml:space="preserve">feature</tspan></text></g></g><line class="branch branch2" y2="180" x2="550" y1="180" x1="0"/><rect transform="translate(-19, 170.5)" height="23" width="62.1875" y="-1.5" x="-78.1875" ry="4" rx="4" class="branchLabelBkg label2"/><g class="branchLabel"><g transform="translate(-88.1875, 169.5)" class="label branch-label2"><text><tspan class="row" x="0" dy="1em" xml:space="preserve">bugfix</tspan></text></g></g></g><g class="commit-arrows"><path class="arrow arrow1" d="M 10 0 L 10 70 A 20 20, 0, 0, 0, 30 90 L 60 90"/><path class="arrow arrow2" d="M 60 90 L 60 160 A 20 20, 0, 0, 0, 80 180 L 110 180"/><path class="arrow arrow0" d="M 10 0 L 160 0"/><path class="arrow arrow1" d="M 60 90 L 210 90"/><path class="arrow arrow2" d="M 110 180 L 260 180"/><path class="arrow arrow0" d="M 160 0 L 310 0"/><path class="arrow arrow0" d="M 310 0 L 360 0"/><path class="arrow arrow2" d="M 260 180 L 340 180 A 20 20, 0, 0, 0, 360 160 L 360 0"/><path class="arrow arrow1" d="M 210 90 L 410 90"/><path class="arrow arrow0" d="M 360 0 L 460 0"/><path class="arrow arrow1" d="M 410 90 L 440 90 A 20 20, 0, 0, 0, 460 70 L 460 0"/><path class="arrow arrow0" d="M 460 0 L 510 0"/></g><g class="commit-bullets"><circle class="commit Initial Commit commit0" r="10" cy="0" cx="10"/><circle class="commit Feature work 1 commit1" r="10" cy="90" cx="60"/><circle class="commit Bugfix work 1 commit2" r="10" cy="180" cx="110"/><circle class="commit Main work 1 commit0" r="10" cy="0" cx="160"/><circle class="commit Feature work 2 commit1" r="10" cy="90" cx="210"/><circle class="commit Bugfix work 2 commit2" r="10" cy="180" cx="260"/><circle class="commit Main work 2 commit0" r="10" cy="0" cx="310"/><circle class="commit 7-47de5b0 commit0" r="9" cy="0" cx="360"/><circle class="commit commit-merge 7-47de5b0 commit0" r="6" cy="0" cx="360"/><circle class="commit Feature work 3 commit1" r="10" cy="90" cx="410"/><circle class="commit 9-bfb3e78 commit0" r="9" cy="0" cx="460"/><circle class="commit commit-merge 9-bfb3e78 commit0" r="6" cy="0" cx="460"/><circle class="commit Main work 3 commit0" r="10" cy="0" cx="510"/></g><g class="commit-labels"><g transform="translate(-35.584374999999994, 31.728125) rotate(-45, 0, 0)"><rect height="15" width="67.90625" y="13.5" x="-23.953125" class="commit-label-bkg"/><text class="commit-label" y="25" x="-21.953125">Initial Commit</text></g><g transform="translate(-37.0390625, 33.0296875) rotate(-45, 50, 90)"><rect height="15" width="71.734375" y="103.5" x="24.1328125" class="commit-label-bkg"/><text class="commit-label" y="115" x="26.1328125">Feature work 1</text></g><g transform="translate(-34.373125, 30.644375) rotate(-45, 100, 180)"><rect height="15.05078125" width="64.71875" y="193.5" x="77.640625" class="commit-label-bkg"/><text class="commit-label" y="205" x="79.640625">Bugfix work 1</text></g><g transform="translate(-31.6953125, 28.2484375) rotate(-45, 150, 0)"><rect height="15" width="57.671875" y="13.5" x="131.1640625" class="commit-label-bkg"/><text class="commit-label" y="25" x="133.1640625">Main work 1</text></g><g transform="translate(-37.0390625, 33.0296875) rotate(-45, 200, 90)"><rect height="15" width="71.734375" y="103.5" x="174.1328125" class="commit-label-bkg"/><text class="commit-label" y="115" x="176.1328125">Feature work 2</text></g><g transform="translate(-34.373125, 30.644375) rotate(-45, 250, 180)"><rect height="15.05078125" width="64.71875" y="193.5" x="227.640625" class="commit-label-bkg"/><text class="commit-label" y="205" x="229.640625">Bugfix work 2</text></g><g transform="translate(-31.6953125, 28.2484375) rotate(-45, 300, 0)"><rect height="15" width="57.671875" y="13.5" x="281.1640625" class="commit-label-bkg"/><text class="commit-label" y="25" x="283.1640625">Main work 2</text></g><polygon points="315.796875,-17.2  &#10;      315.796875,-21.2&#10;      323.796875,-26.725390625&#10;      396.203125,-26.725390625&#10;      396.203125,-11.674609375&#10;      323.796875,-11.674609375" class="tag-label-bkg"/><circle class="tag-hole" r="1.5" cx="319.796875" cy="-19.2"/><text x="327.796875" class="tag-label" y="-16">Bugfix merged</text><g transform="translate(-37.0390625, 33.0296875) rotate(-45, 400, 90)"><rect height="15" width="71.734375" y="103.5" x="374.1328125" class="commit-label-bkg"/><text class="commit-label" y="115" x="376.1328125">Feature work 3</text></g><polygon points="412.28125,-17.2  &#10;      412.28125,-21.2&#10;      420.28125,-26.725390625&#10;      499.71875,-26.725390625&#10;      499.71875,-11.674609375&#10;      420.28125,-11.674609375" class="tag-label-bkg"/><circle class="tag-hole" r="1.5" cx="416.28125" cy="-19.2"/><text x="424.28125" class="tag-label" y="-16">Feature merged</text><g transform="translate(-31.6953125, 28.2484375) rotate(-45, 500, 0)"><rect height="15" width="57.671875" y="13.5" x="481.1640625" class="commit-label-bkg"/><text class="commit-label" y="25" x="483.1640625">Main work 3</text></g></g></svg>