<svg aria-roledescription="gitGraph" role="graphics-document document" viewBox="-123.515625 -19 531.515625 262.3330841064453" style="max-width: 531.516px; background-color: white;" xmlns:xlink="http://www.w3.org/1999/xlink" xmlns="http://www.w3.org/2000/svg" width="100%" id="my-svg"><style>#my-svg{font-family:"trebuchet ms",verdana,arial,sans-serif;font-size:16px;fill:#333;}#my-svg .error-icon{fill:#552222;}#my-svg .error-text{fill:#552222;stroke:#552222;}#my-svg .edge-thickness-normal{stroke-width:1px;}#my-svg .edge-thickness-thick{stroke-width:3.5px;}#my-svg .edge-pattern-solid{stroke-dasharray:0;}#my-svg .edge-thickness-invisible{stroke-width:0;fill:none;}#my-svg .edge-pattern-dashed{stroke-dasharray:3;}#my-svg .edge-pattern-dotted{stroke-dasharray:2;}#my-svg .marker{fill:#333333;stroke:#333333;}#my-svg .marker.cross{stroke:#333333;}#my-svg svg{font-family:"trebuchet ms",verdana,arial,sans-serif;font-size:16px;}#my-svg p{margin:0;}#my-svg .commit-id,#my-svg .commit-msg,#my-svg .branch-label{fill:lightgrey;color:lightgrey;font-family:'trebuchet ms',verdana,arial,sans-serif;font-family:var(--mermaid-font-family);}#my-svg .branch-label0{fill:#ffffff;}#my-svg .commit0{stroke:hsl(240, 100%, 46.2745098039%);fill:hsl(240, 100%, 46.2745098039%);}#my-svg .commit-highlight0{stroke:hsl(60, 100%, 3.7254901961%);fill:hsl(60, 100%, 3.7254901961%);}#my-svg .label0{fill:hsl(240, 100%, 46.2745098039%);}#my-svg .arrow0{stroke:hsl(240, 100%, 46.2745098039%);}#my-svg .branch-label1{fill:black;}#my-svg .commit1{stroke:hsl(60, 100%, 43.5294117647%);fill:hsl(60, 100%, 43.5294117647%);}#my-svg .commit-highlight1{stroke:rgb(0, 0, 160.5);fill:rgb(0, 0, 160.5);}#my-svg .label1{fill:hsl(60, 100%, 43.5294117647%);}#my-svg .arrow1{stroke:hsl(60, 100%, 43.5294117647%);}#my-svg .branch-label2{fill:black;}#my-svg .commit2{stroke:hsl(80, 100%, 46.2745098039%);fill:hsl(80, 100%, 46.2745098039%);}#my-svg .commit-highlight2{stroke:rgb(48.8333333334, 0, 146.5000000001);fill:rgb(48.8333333334, 0, 146.5000000001);}#my-svg .label2{fill:hsl(80, 100%, 46.2745098039%);}#my-svg .arrow2{stroke:hsl(80, 100%, 46.2745098039%);}#my-svg .branch-label3{fill:#ffffff;}#my-svg .commit3{stroke:hsl(210, 100%, 46.2745098039%);fill:hsl(210, 100%, 46.2745098039%);}#my-svg .commit-highlight3{stroke:rgb(146.5000000001, 73.2500000001, 0);fill:rgb(146.5000000001, 73.2500000001, 0);}#my-svg .label3{fill:hsl(210, 100%, 46.2745098039%);}#my-svg .arrow3{stroke:hsl(210, 100%, 46.2745098039%);}#my-svg .branch-label4{fill:black;}#my-svg .commit4{stroke:hsl(180, 100%, 46.2745098039%);fill:hsl(180, 100%, 46.2745098039%);}#my-svg .commit-highlight4{stroke:rgb(146.5000000001, 0, 0);fill:rgb(146.5000000001, 0, 0);}#my-svg .label4{fill:hsl(180, 100%, 46.2745098039%);}#my-svg .arrow4{stroke:hsl(180, 100%, 46.2745098039%);}#my-svg .branch-label5{fill:black;}#my-svg .commit5{stroke:hsl(150, 100%, 46.2745098039%);fill:hsl(150, 100%, 46.2745098039%);}#my-svg .commit-highlight5{stroke:rgb(146.5000000001, 0, 73.2500000001);fill:rgb(146.5000000001, 0, 73.2500000001);}#my-svg .label5{fill:hsl(150, 100%, 46.2745098039%);}#my-svg .arrow5{stroke:hsl(150, 100%, 46.2745098039%);}#my-svg .branch-label6{fill:black;}#my-svg .commit6{stroke:hsl(300, 100%, 46.2745098039%);fill:hsl(300, 100%, 46.2745098039%);}#my-svg .commit-highlight6{stroke:rgb(0, 146.5000000001, 0);fill:rgb(0, 146.5000000001, 0);}#my-svg .label6{fill:hsl(300, 100%, 46.2745098039%);}#my-svg .arrow6{stroke:hsl(300, 100%, 46.2745098039%);}#my-svg .branch-label7{fill:black;}#my-svg .commit7{stroke:hsl(0, 100%, 46.2745098039%);fill:hsl(0, 100%, 46.2745098039%);}#my-svg .commit-highlight7{stroke:rgb(0, 146.5000000001, 146.5000000001);fill:rgb(0, 146.5000000001, 146.5000000001);}#my-svg .label7{fill:hsl(0, 100%, 46.2745098039%);}#my-svg .arrow7{stroke:hsl(0, 100%, 46.2745098039%);}#my-svg .branch{stroke-width:1;stroke:#333333;stroke-dasharray:2;}#my-svg .commit-label{font-size:10px;fill:#000021;}#my-svg .commit-label-bkg{font-size:10px;fill:#ffffde;opacity:0.5;}#my-svg .tag-label{font-size:10px;fill:#ff0000;}#my-svg .tag-label-bkg{fill:#00ff00;stroke:#0000ff;}#my-svg .tag-hole{fill:#333;}#my-svg .commit-merge{stroke:#ECECFF;fill:#ECECFF;}#my-svg .commit-reverse{stroke:#ECECFF;fill:#ECECFF;stroke-width:3;}#my-svg .commit-highlight-inner{stroke:#ECECFF;fill:#ECECFF;}#my-svg .arrow{stroke-width:8;stroke-linecap:round;fill:none;}#my-svg .gitTitleText{text-anchor:middle;font-size:18px;fill:#333;}#my-svg :root{--mermaid-font-family:"trebuchet ms",verdana,arial,sans-serif;}</style><g/><g class="commit-bullets"/><g class="commit-labels"/><g><line class="branch branch0" y2="0" x2="400" y1="0" x1="0"/><rect transform="translate(-19, -9.5)" height="23" width="53" y="-1.5" x="-69" ry="4" rx="4" class="branchLabelBkg label0"/><g class="branchLabel"><g transform="translate(-79, -10.5)" class="label branch-label0"><text><tspan class="row" x="0" dy="1em" xml:space="preserve">main</tspan></text></g></g><line class="branch branch1" y2="90" x2="400" y1="90" x1="0"/><rect transform="translate(-19, 80.5)" height="23" width="74.421875" y="-1.5" x="-90.421875" ry="4" rx="4" class="branchLabelBkg label1"/><g class="branchLabel"><g transform="translate(-100.421875, 79.5)" class="label branch-label1"><text><tspan class="row" x="0" dy="1em" xml:space="preserve">develop</tspan></text></g></g><line class="branch branch2" y2="180" x2="400" y1="180" x1="0"/><rect transform="translate(-19, 170.5)" height="23" width="80.515625" y="-1.5" x="-96.515625" ry="4" rx="4" class="branchLabelBkg label2"/><g class="branchLabel"><g transform="translate(-106.515625, 169.5)" class="label branch-label2"><text><tspan class="row" x="0" dy="1em" xml:space="preserve">featureA</tspan></text></g></g></g><g class="commit-arrows"><path class="arrow arrow1" d="M 10 0 L 10 70 A 20 20, 0, 0, 0, 30 90 L 60 90"/><path class="arrow arrow1" d="M 60 90 L 110 90"/><path class="arrow arrow0" d="M 10 0 L 160 0"/><path class="arrow arrow0" d="M 160 0 L 210 0"/><path class="arrow arrow0" d="M 210 0 L 260 0"/><path class="arrow arrow1" d="M 110 90 L 240 90 A 20 20, 0, 0, 0, 260 70 L 260 0"/><path class="arrow arrow0" d="M 260 0 L 310 0"/><path class="arrow arrow2" d="M 310 0 L 310 160 A 20 20, 0, 0, 0, 330 180 L 360 180"/></g><g class="commit-bullets"><circle class="commit 0-e472e62 commit0" r="10" cy="0" cx="10"/><circle class="commit 1-12e1912 commit1" r="10" cy="90" cx="60"/><circle class="commit 2-aca007b commit1" r="10" cy="90" cx="110"/><rect class="commit 3-085b7da commit-highlight0 commit-highlight-outer" height="20" width="20" y="-10" x="150"/><rect class="commit 3-085b7da commit0 commit-highlight-inner" height="12" width="12" y="-6" x="154"/><circle class="commit 4-2dcce36 commit0" r="10" cy="0" cx="210"/><circle class="commit 5-2d82038 commit0" r="9" cy="0" cx="260"/><circle class="commit commit-merge 5-2d82038 commit0" r="6" cy="0" cx="260"/><circle class="commit 6-bbc15cd commit0" r="10" cy="0" cx="310"/><circle class="commit 7-a9d766f commit2" r="10" cy="180" cx="360"/></g><g class="commit-labels"><g transform="translate(-28.7978125, 25.6559375) rotate(-45, 0, 0)"><rect height="15" width="50.046875" y="13.5" x="-15.0234375" class="commit-label-bkg"/><text class="commit-label" y="25" x="-13.0234375">0-e472e62</text></g><g transform="translate(-28.720625000000002, 25.586875) rotate(-45, 50, 90)"><rect height="15" width="49.84375" y="103.5" x="35.078125" class="commit-label-bkg"/><text class="commit-label" y="115" x="37.078125">1-12e1912</text></g><polygon points="34.0078125,72.8  &#10;      34.0078125,68.8&#10;      42.0078125,63.3&#10;      77.9921875,63.3&#10;      77.9921875,78.3&#10;      42.0078125,78.3" class="tag-label-bkg"/><circle class="tag-hole" r="1.5" cx="38.0078125" cy="70.8"/><text x="46.0078125" class="tag-label" y="74">v1.0.0</text><g transform="translate(-28.66125, 25.533749999999998) rotate(-45, 100, 90)"><rect height="15" width="49.6875" y="103.5" x="85.15625" class="commit-label-bkg"/><text class="commit-label" y="115" x="87.15625">2-aca007b</text></g><g transform="translate(-28.8928125, 25.7409375) rotate(-45, 150, 0)"><rect height="15" width="50.296875" y="13.5" x="134.8515625" class="commit-label-bkg"/><text class="commit-label" y="25" x="136.8515625">3-085b7da</text></g><g transform="translate(-28.6196875, 25.496562500000003) rotate(-45, 200, 0)"><rect height="15" width="49.578125" y="13.5" x="185.2109375" class="commit-label-bkg"/><text class="commit-label" y="25" x="187.2109375">4-2dcce36</text></g><g transform="translate(-28.791875, 25.650624999999998) rotate(-45, 300, 0)"><rect height="15" width="50.03125" y="13.5" x="284.984375" class="commit-label-bkg"/><text class="commit-label" y="25" x="286.984375">6-bbc15cd</text></g><g transform="translate(-28.195898437500002, 25.1173828125) rotate(-45, 350, 180)"><rect height="15" width="48.462890625" y="193.5" x="335.7685546875" class="commit-label-bkg"/><text class="commit-label" y="205" x="337.7685546875">7-a9d766f</text></g></g></svg>