<svg aria-roledescription="gitGraph" role="graphics-document document" viewBox="-132.21875 -19 1040.21875 357.46295166015625" style="max-width: 1040.22px; background-color: white;" xmlns:xlink="http://www.w3.org/1999/xlink" xmlns="http://www.w3.org/2000/svg" width="100%" id="my-svg"><style>#my-svg{font-family:"trebuchet ms",verdana,arial,sans-serif;font-size:16px;fill:#000000;}#my-svg .error-icon{fill:#552222;}#my-svg .error-text{fill:#552222;stroke:#552222;}#my-svg .edge-thickness-normal{stroke-width:1px;}#my-svg .edge-thickness-thick{stroke-width:3.5px;}#my-svg .edge-pattern-solid{stroke-dasharray:0;}#my-svg .edge-thickness-invisible{stroke-width:0;fill:none;}#my-svg .edge-pattern-dashed{stroke-dasharray:3;}#my-svg .edge-pattern-dotted{stroke-dasharray:2;}#my-svg .marker{fill:#666;stroke:#666;}#my-svg .marker.cross{stroke:#666;}#my-svg svg{font-family:"trebuchet ms",verdana,arial,sans-serif;font-size:16px;}#my-svg p{margin:0;}#my-svg .commit-id,#my-svg .commit-msg,#my-svg .branch-label{fill:lightgrey;color:lightgrey;font-family:'trebuchet ms',verdana,arial,sans-serif;font-family:var(--mermaid-font-family);}#my-svg .branch-label0{fill:#333;}#my-svg .commit0{stroke:hsl(0, 0%, 70.6862745098%);fill:hsl(0, 0%, 70.6862745098%);}#my-svg .commit-highlight0{stroke:rgb(74.75, 74.75, 74.75);fill:rgb(74.75, 74.75, 74.75);}#my-svg .label0{fill:hsl(0, 0%, 70.6862745098%);}#my-svg .arrow0{stroke:hsl(0, 0%, 70.6862745098%);}#my-svg .branch-label1{fill:white;}#my-svg .commit1{stroke:#555;fill:#555;}#my-svg .commit-highlight1{stroke:#aaaaaa;fill:#aaaaaa;}#my-svg .label1{fill:#555;}#my-svg .arrow1{stroke:#555;}#my-svg .branch-label2{fill:#333;}#my-svg .commit2{stroke:#BBB;fill:#BBB;}#my-svg .commit-highlight2{stroke:#444444;fill:#444444;}#my-svg .label2{fill:#BBB;}#my-svg .arrow2{stroke:#BBB;}#my-svg .branch-label3{fill:white;}#my-svg .commit3{stroke:#777;fill:#777;}#my-svg .commit-highlight3{stroke:#888888;fill:#888888;}#my-svg .label3{fill:#777;}#my-svg .arrow3{stroke:#777;}#my-svg .branch-label4{fill:#333;}#my-svg .commit4{stroke:#999;fill:#999;}#my-svg .commit-highlight4{stroke:#666666;fill:#666666;}#my-svg .label4{fill:#999;}#my-svg .arrow4{stroke:#999;}#my-svg .branch-label5{fill:#333;}#my-svg .commit5{stroke:#DDD;fill:#DDD;}#my-svg .commit-highlight5{stroke:#222222;fill:#222222;}#my-svg .label5{fill:#DDD;}#my-svg .arrow5{stroke:#DDD;}#my-svg .branch-label6{fill:#333;}#my-svg .commit6{stroke:#FFF;fill:#FFF;}#my-svg .commit-highlight6{stroke:#000000;fill:#000000;}#my-svg .label6{fill:#FFF;}#my-svg .arrow6{stroke:#FFF;}#my-svg .branch-label7{fill:#333;}#my-svg .commit7{stroke:#DDD;fill:#DDD;}#my-svg .commit-highlight7{stroke:#222222;fill:#222222;}#my-svg .label7{fill:#DDD;}#my-svg .arrow7{stroke:#DDD;}#my-svg .branch{stroke-width:1;stroke:#666;stroke-dasharray:2;}#my-svg .commit-label{font-size:10px;fill:rgb(2.7499999999, 2.7499999999, 2.7499999999);}#my-svg .commit-label-bkg{font-size:10px;fill:hsl(0, 0%, 98.9215686275%);opacity:0.5;}#my-svg .tag-label{font-size:10px;fill:#111111;}#my-svg .tag-label-bkg{fill:#eee;stroke:hsl(0, 0%, 83.3333333333%);}#my-svg .tag-hole{fill:#000000;}#my-svg .commit-merge{stroke:#eee;fill:#eee;}#my-svg .commit-reverse{stroke:#eee;fill:#eee;stroke-width:3;}#my-svg .commit-highlight-inner{stroke:#eee;fill:#eee;}#my-svg .arrow{stroke-width:8;stroke-linecap:round;fill:none;}#my-svg .gitTitleText{text-anchor:middle;font-size:18px;fill:#000000;}#my-svg :root{--mermaid-font-family:"trebuchet ms",verdana,arial,sans-serif;}</style><g/><g class="commit-bullets"/><g class="commit-labels"/><g><line class="branch branch0" y2="0" x2="900" y1="0" x1="0"/><rect transform="translate(-19, -9.5)" height="23" width="53" y="-1.5" x="-69" ry="4" rx="4" class="branchLabelBkg label0"/><g class="branchLabel"><g transform="translate(-79, -10.5)" class="label branch-label0"><text><tspan class="row" x="0" dy="1em" xml:space="preserve">main</tspan></text></g></g><line class="branch branch1" y2="90" x2="900" y1="90" x1="0"/><rect transform="translate(-19, 80.5)" height="23" width="55.984375" y="-1.5" x="-71.984375" ry="4" rx="4" class="branchLabelBkg label1"/><g class="branchLabel"><g transform="translate(-81.984375, 79.5)" class="label branch-label1"><text><tspan class="row" x="0" dy="1em" xml:space="preserve">stage</tspan></text></g></g><line class="branch branch2" y2="180" x2="900" y1="180" x1="0"/><rect transform="translate(-19, 170.5)" height="23" width="88.703125" y="-1.5" x="-104.703125" ry="4" rx="4" class="branchLabelBkg label2"/><g class="branchLabel"><g transform="translate(-114.703125, 169.5)" class="label branch-label2"><text><tspan class="row" x="0" dy="1em" xml:space="preserve">develop-a</tspan></text></g></g><line class="branch branch3" y2="270" x2="900" y1="270" x1="0"/><rect transform="translate(-19, 260.5)" height="23" width="89.21875" y="-1.5" x="-105.21875" ry="4" rx="4" class="branchLabelBkg label3"/><g class="branchLabel"><g transform="translate(-115.21875, 259.5)" class="label branch-label3"><text><tspan class="row" x="0" dy="1em" xml:space="preserve">develop-b</tspan></text></g></g></g><g class="commit-arrows"><path class="arrow arrow0" d="M 10 0 L 60 0"/><path class="arrow arrow3" d="M 60 0 L 60 250 A 20 20, 0, 0, 0, 80 270 L 110 270"/><path class="arrow arrow3" d="M 110 270 L 160 270"/><path class="arrow arrow2" d="M 60 0 L 60 160 A 20 20, 0, 0, 0, 80 180 L 210 180"/><path class="arrow arrow2" d="M 210 180 L 260 180"/><path class="arrow arrow1" d="M 60 0 L 60 70 A 20 20, 0, 0, 0, 80 90 L 310 90"/><path class="arrow arrow2" d="M 260 180 L 290 180 A 20 20, 0, 0, 0, 310 160 L 310 90"/><path class="arrow arrow3" d="M 160 270 L 360 270"/><path class="arrow arrow1" d="M 310 90 L 410 90"/><path class="arrow arrow3" d="M 360 270 L 390 270 A 20 20, 0, 0, 0, 410 250 L 410 90"/><path class="arrow arrow2" d="M 260 180 L 460 180"/><path class="arrow arrow2" d="M 460 180 L 510 180"/><path class="arrow arrow0" d="M 60 0 L 560 0"/><path class="arrow arrow1" d="M 410 90 L 540 90 A 20 20, 0, 0, 0, 560 70 L 560 0"/><path class="arrow arrow2" d="M 510 180 L 610 180"/><path class="arrow arrow0" d="M 560 0 L 590 0 A 20 20, 0, 0, 1, 610 20 L 610 180"/><path class="arrow arrow3" d="M 360 270 L 660 270"/><path class="arrow arrow0" d="M 560 0 L 640 0 A 20 20, 0, 0, 1, 660 20 L 660 270"/><path class="arrow arrow3" d="M 660 270 L 710 270"/><path class="arrow arrow3" d="M 710 270 L 760 270"/><path class="arrow arrow2" d="M 610 180 L 810 180"/><path class="arrow arrow2" d="M 810 180 L 860 180"/></g><g class="commit-bullets"><circle class="commit 0-d40883e commit0" r="10" cy="0" cx="10"/><circle class="commit 1-abcdea6 commit0" r="10" cy="0" cx="60"/><circle class="commit 2-87198a0 commit3" r="10" cy="270" cx="110"/><circle class="commit 3-6efea7c commit3" r="10" cy="270" cx="160"/><circle class="commit 4-ac61b25 commit2" r="10" cy="180" cx="210"/><circle class="commit 5-15449c7 commit2" r="10" cy="180" cx="260"/><circle class="commit 6-f548fcf commit1" r="9" cy="90" cx="310"/><circle class="commit commit-merge 6-f548fcf commit1" r="6" cy="90" cx="310"/><circle class="commit 7-81631a8 commit3" r="10" cy="270" cx="360"/><circle class="commit 8-940154f commit1" r="9" cy="90" cx="410"/><circle class="commit commit-merge 8-940154f commit1" r="6" cy="90" cx="410"/><circle class="commit 9-e1335b5 commit2" r="10" cy="180" cx="460"/><circle class="commit 10-6aa0f22 commit2" r="10" cy="180" cx="510"/><circle class="commit 11-18a7755 commit0" r="9" cy="0" cx="560"/><circle class="commit commit-merge 11-18a7755 commit0" r="6" cy="0" cx="560"/><circle class="commit 12-b740f22 commit2" r="9" cy="180" cx="610"/><circle class="commit commit-merge 12-b740f22 commit2" r="6" cy="180" cx="610"/><circle class="commit 13-e10c53d commit3" r="9" cy="270" cx="660"/><circle class="commit commit-merge 13-e10c53d commit3" r="6" cy="270" cx="660"/><circle class="commit 14-85961fe commit3" r="10" cy="270" cx="710"/><circle class="commit 15-3d9d5b1 commit3" r="10" cy="270" cx="760"/><circle class="commit 16-fc224a7 commit2" r="10" cy="180" cx="810"/><circle class="commit 17-e791d1f commit2" r="10" cy="180" cx="860"/></g><g class="commit-labels"><g transform="translate(-28.845312500000002, 25.6984375) rotate(-45, 0, 0)"><rect height="15" width="50.171875" y="13.5" x="-15.0859375" class="commit-label-bkg"/><text class="commit-label" y="25" x="-13.0859375">0-d40883e</text></g><g transform="translate(-28.863124999999997, 25.714374999999997) rotate(-45, 50, 0)"><rect height="15" width="50.21875" y="13.5" x="34.890625" class="commit-label-bkg"/><text class="commit-label" y="25" x="36.890625">1-abcdea6</text></g><g transform="translate(-28.6434375, 25.517812499999998) rotate(-45, 100, 270)"><rect height="15" width="49.640625" y="283.5" x="85.1796875" class="commit-label-bkg"/><text class="commit-label" y="295" x="87.1796875">2-87198a0</text></g><g transform="translate(-28.103125000000002, 25.034375) rotate(-45, 150, 270)"><rect height="15" width="48.21875" y="283.5" x="135.890625" class="commit-label-bkg"/><text class="commit-label" y="295" x="137.890625">3-6efea7c</text></g><g transform="translate(-28.6553125, 25.528437500000003) rotate(-45, 200, 180)"><rect height="15" width="49.671875" y="193.5" x="185.1640625" class="commit-label-bkg"/><text class="commit-label" y="205" x="187.1640625">4-ac61b25</text></g><g transform="translate(-28.530625, 25.416874999999997) rotate(-45, 250, 180)"><rect height="15" width="49.34375" y="193.5" x="235.328125" class="commit-label-bkg"/><text class="commit-label" y="205" x="237.328125">5-15449c7</text></g><g transform="translate(-28.6434375, 25.517812499999998) rotate(-45, 350, 270)"><rect height="15" width="49.640625" y="283.5" x="335.1796875" class="commit-label-bkg"/><text class="commit-label" y="295" x="337.1796875">7-81631a8</text></g><g transform="translate(-28.845312500000002, 25.6984375) rotate(-45, 450, 180)"><rect height="15" width="50.171875" y="193.5" x="434.9140625" class="commit-label-bkg"/><text class="commit-label" y="205" x="436.9140625">9-e1335b5</text></g><g transform="translate(-30.050624999999997, 26.776875) rotate(-45, 500, 180)"><rect height="15" width="53.34375" y="193.5" x="483.328125" class="commit-label-bkg"/><text class="commit-label" y="205" x="485.328125">10-6aa0f22</text></g><g transform="translate(-30.121875, 26.840625) rotate(-45, 700, 270)"><rect height="15" width="53.53125" y="283.5" x="683.234375" class="commit-label-bkg"/><text class="commit-label" y="295" x="685.234375">14-85961fe</text></g><g transform="translate(-31.0065625, 27.6321875) rotate(-45, 750, 270)"><rect height="15" width="55.859375" y="283.5" x="732.0703125" class="commit-label-bkg"/><text class="commit-label" y="295" x="734.0703125">15-3d9d5b1</text></g><g transform="translate(-29.9378125, 26.6759375) rotate(-45, 800, 180)"><rect height="15" width="53.046875" y="193.5" x="783.4765625" class="commit-label-bkg"/><text class="commit-label" y="205" x="785.4765625">16-fc224a7</text></g><g transform="translate(-30.264746093750002, 26.96845703125) rotate(-45, 850, 180)"><rect height="15" width="53.9072265625" y="193.5" x="833.04638671875" class="commit-label-bkg"/><text class="commit-label" y="205" x="835.04638671875">17-e791d1f</text></g></g></svg>