<svg aria-roledescription="gitGraph" role="graphics-document document" viewBox="-131.625 -19 689.625 236.66482543945312" style="max-width: 689.625px; background-color: white;" xmlns:xlink="http://www.w3.org/1999/xlink" xmlns="http://www.w3.org/2000/svg" width="100%" id="my-svg"><style>#my-svg{font-family:"trebuchet ms",verdana,arial,sans-serif;font-size:16px;fill:#333;}#my-svg .error-icon{fill:hsl(220.5882352941, 100%, 98.3333333333%);}#my-svg .error-text{fill:rgb(8.5000000002, 5.7500000001, 0);stroke:rgb(8.5000000002, 5.7500000001, 0);}#my-svg .edge-thickness-normal{stroke-width:1px;}#my-svg .edge-thickness-thick{stroke-width:3.5px;}#my-svg .edge-pattern-solid{stroke-dasharray:0;}#my-svg .edge-thickness-invisible{stroke-width:0;fill:none;}#my-svg .edge-pattern-dashed{stroke-dasharray:3;}#my-svg .edge-pattern-dotted{stroke-dasharray:2;}#my-svg .marker{fill:#0b0b0b;stroke:#0b0b0b;}#my-svg .marker.cross{stroke:#0b0b0b;}#my-svg svg{font-family:"trebuchet ms",verdana,arial,sans-serif;font-size:16px;}#my-svg p{margin:0;}#my-svg .commit-id,#my-svg .commit-msg,#my-svg .branch-label{fill:lightgrey;color:lightgrey;font-family:'trebuchet ms',verdana,arial,sans-serif;font-family:var(--mermaid-font-family);}#my-svg .branch-label0{fill:#333;}#my-svg .commit0{stroke:hsl(40.5882352941, 100%, 68.3333333333%);fill:hsl(40.5882352941, 100%, 68.3333333333%);}#my-svg .commit-highlight0{stroke:rgb(0, 52.2500000001, 161.5000000002);fill:rgb(0, 52.2500000001, 161.5000000002);}#my-svg .label0{fill:hsl(40.5882352941, 100%, 68.3333333333%);}#my-svg .arrow0{stroke:hsl(40.5882352941, 100%, 68.3333333333%);}#my-svg .branch-label1{fill:#333;}#my-svg .commit1{stroke:hsl(-79.4117647059, 100%, 68.3333333333%);fill:hsl(-79.4117647059, 100%, 68.3333333333%);}#my-svg .commit-highlight1{stroke:rgb(52.2500000001, 161.5000000002, 0);fill:rgb(52.2500000001, 161.5000000002, 0);}#my-svg .label1{fill:hsl(-79.4117647059, 100%, 68.3333333333%);}#my-svg .arrow1{stroke:hsl(-79.4117647059, 100%, 68.3333333333%);}#my-svg .branch-label2{fill:#333;}#my-svg .commit2{stroke:hsl(220.5882352941, 100%, 73.3333333333%);fill:hsl(220.5882352941, 100%, 73.3333333333%);}#my-svg .commit-highlight2{stroke:rgb(136.0000000002, 92.0000000001, 0);fill:rgb(136.0000000002, 92.0000000001, 0);}#my-svg .label2{fill:hsl(220.5882352941, 100%, 73.3333333333%);}#my-svg .arrow2{stroke:hsl(220.5882352941, 100%, 73.3333333333%);}#my-svg .branch-label3{fill:#333;}#my-svg .commit3{stroke:hsl(10.5882352941, 100%, 68.3333333333%);fill:hsl(10.5882352941, 100%, 68.3333333333%);}#my-svg .commit-highlight3{stroke:rgb(0, 133.0000000002, 161.5000000002);fill:rgb(0, 133.0000000002, 161.5000000002);}#my-svg .label3{fill:hsl(10.5882352941, 100%, 68.3333333333%);}#my-svg .arrow3{stroke:hsl(10.5882352941, 100%, 68.3333333333%);}#my-svg .branch-label4{fill:#333;}#my-svg .commit4{stroke:hsl(-19.4117647059, 100%, 68.3333333333%);fill:hsl(-19.4117647059, 100%, 68.3333333333%);}#my-svg .commit-highlight4{stroke:rgb(0, 161.5000000002, 109.2500000001);fill:rgb(0, 161.5000000002, 109.2500000001);}#my-svg .label4{fill:hsl(-19.4117647059, 100%, 68.3333333333%);}#my-svg .arrow4{stroke:hsl(-19.4117647059, 100%, 68.3333333333%);}#my-svg .branch-label5{fill:#333;}#my-svg .commit5{stroke:hsl(-49.4117647059, 100%, 68.3333333333%);fill:hsl(-49.4117647059, 100%, 68.3333333333%);}#my-svg .commit-highlight5{stroke:rgb(0, 161.5000000002, 28.5);fill:rgb(0, 161.5000000002, 28.5);}#my-svg .label5{fill:hsl(-49.4117647059, 100%, 68.3333333333%);}#my-svg .arrow5{stroke:hsl(-49.4117647059, 100%, 68.3333333333%);}#my-svg .branch-label6{fill:#333;}#my-svg .commit6{stroke:hsl(100.5882352941, 100%, 68.3333333333%);fill:hsl(100.5882352941, 100%, 68.3333333333%);}#my-svg .commit-highlight6{stroke:rgb(109.2500000001, 0, 161.5000000002);fill:rgb(109.2500000001, 0, 161.5000000002);}#my-svg .label6{fill:hsl(100.5882352941, 100%, 68.3333333333%);}#my-svg .arrow6{stroke:hsl(100.5882352941, 100%, 68.3333333333%);}#my-svg .branch-label7{fill:#333;}#my-svg .commit7{stroke:hsl(160.5882352941, 100%, 68.3333333333%);fill:hsl(160.5882352941, 100%, 68.3333333333%);}#my-svg .commit-highlight7{stroke:rgb(161.5000000002, 0, 52.2500000001);fill:rgb(161.5000000002, 0, 52.2500000001);}#my-svg .label7{fill:hsl(160.5882352941, 100%, 68.3333333333%);}#my-svg .arrow7{stroke:hsl(160.5882352941, 100%, 68.3333333333%);}#my-svg .branch{stroke-width:1;stroke:#0b0b0b;stroke-dasharray:2;}#my-svg .commit-label{font-size:10px;fill:rgb(11.0000000001, 34.0000000002, 0);}#my-svg .commit-label-bkg{font-size:10px;fill:hsl(-79.4117647059, 100%, 93.3333333333%);opacity:0.5;}#my-svg .tag-label{font-size:10px;fill:#333;}#my-svg .tag-label-bkg{fill:#fff4dd;stroke:hsl(40.5882352941, 60%, 83.3333333333%);}#my-svg .tag-hole{fill:#333;}#my-svg .commit-merge{stroke:#fff4dd;fill:#fff4dd;}#my-svg .commit-reverse{stroke:#fff4dd;fill:#fff4dd;stroke-width:3;}#my-svg .commit-highlight-inner{stroke:#fff4dd;fill:#fff4dd;}#my-svg .arrow{stroke-width:8;stroke-linecap:round;fill:none;}#my-svg .gitTitleText{text-anchor:middle;font-size:18px;fill:#333;}#my-svg :root{--mermaid-font-family:"trebuchet ms",verdana,arial,sans-serif;}</style><g/><g class="commit-bullets"/><g class="commit-labels"/><g><line class="branch branch0" y2="0" x2="550" y1="0" x1="0"/><rect transform="translate(-19, -9.5)" height="23" width="80.0625" y="-1.5" x="-96.0625" ry="4" rx="4" class="branchLabelBkg label0"/><g class="branchLabel"><g transform="translate(-106.0625, -10.5)" class="label branch-label0"><text><tspan class="row" x="0" dy="1em" xml:space="preserve">branch_l</tspan></text></g></g><line class="branch branch1" y2="90" x2="550" y1="90" x1="0"/><rect transform="translate(-19, 80.5)" height="23" width="88.625" y="-1.5" x="-104.625" ry="4" rx="4" class="branchLabelBkg label1"/><g class="branchLabel"><g transform="translate(-114.625, 79.5)" class="label branch-label1"><text><tspan class="row" x="0" dy="1em" xml:space="preserve">branch_m</tspan></text></g></g><line class="branch branch2" y2="180" x2="550" y1="180" x1="0"/><rect transform="translate(-19, 170.5)" height="23" width="84.078125" y="-1.5" x="-100.078125" ry="4" rx="4" class="branchLabelBkg label2"/><g class="branchLabel"><g transform="translate(-110.078125, 169.5)" class="label branch-label2"><text><tspan class="row" x="0" dy="1em" xml:space="preserve">branch_n</tspan></text></g></g></g><g class="commit-arrows"><path class="arrow arrow2" d="M 10 90 L 10 160 A 20 20, 0, 0, 0, 30 180 L 60 180"/><path class="arrow arrow0" d="M 10 90 L 10 20 A 20 20, 0, 0, 1, 30 0 L 110 0"/><path class="arrow arrow1" d="M 10 90 L 160 90"/><path class="arrow arrow2" d="M 60 180 L 140 180 A 20 20, 0, 0, 0, 160 160 L 160 90"/><path class="arrow arrow1" d="M 160 90 L 210 90"/><path class="arrow arrow0" d="M 110 0 L 110 35 A 10 10, 0, 0, 0, 120 45 L 200 45 A 10 10, 0, 0, 1, 210 55 L 210 90"/><path class="arrow arrow2" d="M 60 180 L 260 180"/><path class="arrow arrow1" d="M 210 90 L 240 90 A 20 20, 0, 0, 1, 260 110 L 260 180"/><path class="arrow arrow0" d="M 110 0 L 310 0"/><path class="arrow arrow1" d="M 210 90 L 290 90 A 20 20, 0, 0, 0, 310 70 L 310 0"/><path class="arrow arrow1" d="M 210 90 L 360 90"/><path class="arrow arrow2" d="M 260 180 L 340 180 A 20 20, 0, 0, 0, 360 160 L 360 90"/><path class="arrow arrow1" d="M 360 90 L 410 90"/><path class="arrow arrow0" d="M 310 0 L 310 18.8 A 10 10, 0, 0, 0, 320 28.8 L 400 28.8 A 10 10, 0, 0, 1, 410 38.8 L 410 90"/><path class="arrow arrow2" d="M 260 180 L 460 180"/><path class="arrow arrow0" d="M 310 0 L 510 0"/></g><g class="commit-bullets"><circle class="commit a commit1" r="10" cy="90" cx="10"/><circle class="commit u commit2" r="10" cy="180" cx="60"/><circle class="commit f commit0" r="10" cy="0" cx="110"/><circle class="commit 3-b54793b commit1" r="9" cy="90" cx="160"/><circle class="commit commit-merge 3-b54793b commit1" r="6" cy="90" cx="160"/><circle class="commit 4-339650d commit1" r="9" cy="90" cx="210"/><circle class="commit commit-merge 4-339650d commit1" r="6" cy="90" cx="210"/><circle class="commit 5-ebdf329 commit2" r="9" cy="180" cx="260"/><circle class="commit commit-merge 5-ebdf329 commit2" r="6" cy="180" cx="260"/><circle class="commit 6-56030ea commit0" r="9" cy="0" cx="310"/><circle class="commit commit-merge 6-56030ea commit0" r="6" cy="0" cx="310"/><circle class="commit 7-ca1d1a2 commit1" r="9" cy="90" cx="360"/><circle class="commit commit-merge 7-ca1d1a2 commit1" r="6" cy="90" cx="360"/><circle class="commit 8-3d6e327 commit1" r="9" cy="90" cx="410"/><circle class="commit commit-merge 8-3d6e327 commit1" r="6" cy="90" cx="410"/><circle class="commit w commit2" r="10" cy="180" cx="460"/><circle class="commit h commit0" r="10" cy="0" cx="510"/></g><g class="commit-labels"><g transform="translate(-13.3009375, 11.7903125) rotate(-45, 0, 90)"><rect height="15" width="9.265625" y="103.5" x="5.3671875" class="commit-label-bkg"/><text class="commit-label" y="115" x="7.3671875">a</text></g><g transform="translate(-13.378125, 11.859375) rotate(-45, 50, 180)"><rect height="15" width="9.46875" y="193.5" x="55.265625" class="commit-label-bkg"/><text class="commit-label" y="205" x="57.265625">u</text></g><g transform="translate(-12.72314453125, 11.27333984375) rotate(-45, 100, 0)"><rect height="15" width="7.7451171875" y="13.5" x="106.12744140625" class="commit-label-bkg"/><text class="commit-label" y="25" x="108.12744140625">f</text></g><g transform="translate(-14.1321875, 12.5340625) rotate(-45, 450, 180)"><rect height="15" width="11.453125" y="193.5" x="454.2734375" class="commit-label-bkg"/><text class="commit-label" y="205" x="456.2734375">w</text></g><g transform="translate(-13.378125, 11.859375) rotate(-45, 500, 0)"><rect height="15" width="9.46875" y="13.5" x="505.265625" class="commit-label-bkg"/><text class="commit-label" y="25" x="507.265625">h</text></g></g></svg>