<svg aria-roledescription="er" role="graphics-document document" viewBox="-18.1641845703125 -62 543.1110229492188 702" style="max-width: 543.111px; background-color: white;" xmlns:xlink="http://www.w3.org/1999/xlink" xmlns="http://www.w3.org/2000/svg" width="100%" id="my-svg"><style>#my-svg{font-family:"trebuchet ms",verdana,arial,sans-serif;font-size:16px;fill:#333;}#my-svg .error-icon{fill:#552222;}#my-svg .error-text{fill:#552222;stroke:#552222;}#my-svg .edge-thickness-normal{stroke-width:1px;}#my-svg .edge-thickness-thick{stroke-width:3.5px;}#my-svg .edge-pattern-solid{stroke-dasharray:0;}#my-svg .edge-thickness-invisible{stroke-width:0;fill:none;}#my-svg .edge-pattern-dashed{stroke-dasharray:3;}#my-svg .edge-pattern-dotted{stroke-dasharray:2;}#my-svg .marker{fill:#333333;stroke:#333333;}#my-svg .marker.cross{stroke:#333333;}#my-svg svg{font-family:"trebuchet ms",verdana,arial,sans-serif;font-size:16px;}#my-svg p{margin:0;}#my-svg .entityBox{fill:#ECECFF;stroke:#9370DB;}#my-svg .attributeBoxOdd{fill:#ffffff;stroke:#9370DB;}#my-svg .attributeBoxEven{fill:#f2f2f2;stroke:#9370DB;}#my-svg .relationshipLabelBox{fill:hsl(80, 100%, 96.2745098039%);opacity:0.7;background-color:hsl(80, 100%, 96.2745098039%);}#my-svg .relationshipLabelBox rect{opacity:0.5;}#my-svg .relationshipLine{stroke:#333333;}#my-svg .entityTitleText{text-anchor:middle;font-size:18px;fill:#333;}#my-svg #MD_PARENT_START{fill:#f5f5f5!important;stroke:#333333!important;stroke-width:1;}#my-svg #MD_PARENT_END{fill:#f5f5f5!important;stroke:#333333!important;stroke-width:1;}#my-svg :root{--mermaid-font-family:"trebuchet ms",verdana,arial,sans-serif;}</style><g/><defs><marker orient="auto" markerHeight="240" markerWidth="190" refY="7" refX="0" id="MD_PARENT_START"><path d="M 18,7 L9,13 L1,7 L9,1 Z"/></marker></defs><defs><marker orient="auto" markerHeight="28" markerWidth="20" refY="7" refX="19" id="MD_PARENT_END"><path d="M 18,7 L9,13 L1,7 L9,1 Z"/></marker></defs><defs><marker orient="auto" markerHeight="18" markerWidth="18" refY="9" refX="0" id="ONLY_ONE_START"><path d="M9,0 L9,18 M15,0 L15,18" fill="none" stroke="gray"/></marker></defs><defs><marker orient="auto" markerHeight="18" markerWidth="18" refY="9" refX="18" id="ONLY_ONE_END"><path d="M3,0 L3,18 M9,0 L9,18" fill="none" stroke="gray"/></marker></defs><defs><marker orient="auto" markerHeight="18" markerWidth="30" refY="9" refX="0" id="ZERO_OR_ONE_START"><circle r="6" cy="9" cx="21" fill="white" stroke="gray"/><path d="M9,0 L9,18" fill="none" stroke="gray"/></marker></defs><defs><marker orient="auto" markerHeight="18" markerWidth="30" refY="9" refX="30" id="ZERO_OR_ONE_END"><circle r="6" cy="9" cx="9" fill="white" stroke="gray"/><path d="M21,0 L21,18" fill="none" stroke="gray"/></marker></defs><defs><marker orient="auto" markerHeight="36" markerWidth="45" refY="18" refX="18" id="ONE_OR_MORE_START"><path d="M0,18 Q 18,0 36,18 Q 18,36 0,18 M42,9 L42,27" fill="none" stroke="gray"/></marker></defs><defs><marker orient="auto" markerHeight="36" markerWidth="45" refY="18" refX="27" id="ONE_OR_MORE_END"><path d="M3,9 L3,27 M9,18 Q27,0 45,18 Q27,36 9,18" fill="none" stroke="gray"/></marker></defs><defs><marker orient="auto" markerHeight="36" markerWidth="57" refY="18" refX="18" id="ZERO_OR_MORE_START"><circle r="6" cy="18" cx="48" fill="white" stroke="gray"/><path d="M0,18 Q18,0 36,18 Q18,36 0,18" fill="none" stroke="gray"/></marker></defs><defs><marker orient="auto" markerHeight="36" markerWidth="57" refY="18" refX="39" id="ZERO_OR_MORE_END"><circle r="6" cy="18" cx="9" fill="white" stroke="gray"/><path d="M21,18 Q39,0 57,18 Q39,36 21,18" fill="none" stroke="gray"/></marker></defs><path style="stroke: gray; fill: none;" marker-start="url(#ONLY_ONE_START)" marker-end="url(#ZERO_OR_MORE_END)" d="M79.953,95L79.953,103.333C79.953,111.667,79.953,128.333,79.953,145C79.953,161.667,79.953,178.333,79.953,186.667L79.953,195" class="er relationshipLine"/><path style="stroke: gray; fill: none;" marker-start="url(#ZERO_OR_MORE_START)" marker-end="url(#ZERO_OR_ONE_END)" d="M79.953,270L79.953,278.333C79.953,286.667,79.953,303.333,79.953,320C79.953,336.667,79.953,353.333,79.953,361.667L79.953,370" class="er relationshipLine"/><path style="stroke: gray; fill: none;" marker-start="url(#ZERO_OR_ONE_START)" marker-end="url(#ZERO_OR_MORE_END)" d="M286.625,445L286.625,453.333C286.625,461.667,286.625,478.333,286.625,495C286.625,511.667,286.625,528.333,286.625,536.667L286.625,545" class="er relationshipLine"/><path style="stroke: gray; fill: none;" marker-start="url(#ZERO_OR_MORE_START)" marker-end="url(#ZERO_OR_MORE_END)" d="M79.953,445L79.953,453.333C79.953,461.667,79.953,478.333,106.065,497.722C132.177,517.11,184.401,539.221,210.513,550.276L236.625,561.331" class="er relationshipLine"/><path style="stroke: gray; fill: none;" marker-start="url(#ZERO_OR_ONE_START)" marker-end="url(#ZERO_OR_MORE_END)" d="M329.482,270L322.339,278.333C315.196,286.667,300.911,303.333,293.768,320C286.625,336.667,286.625,353.333,286.625,361.667L286.625,370" class="er relationshipLine"/><path style="stroke: gray; fill: none;" marker-start="url(#ONLY_ONE_START)" marker-end="url(#ZERO_OR_MORE_END)" d="M393.768,270L400.911,278.333C408.054,286.667,422.339,303.333,429.482,326.25C436.625,349.167,436.625,378.333,436.625,407.5C436.625,436.667,436.625,465.833,419.958,490.139C403.292,514.444,369.958,533.889,353.292,543.611L336.625,553.333" class="er relationshipLine"/><g transform="translate(25.46875,20 )" id="entity-GITOPSAGENT-ebaa4205-f0d2-5f89-b34e-e739dfce9355"><rect height="75" width="108.96875" y="0" x="0" class="er entityBox"/><text style="dominant-baseline: middle; text-anchor: middle; font-size: 12px;" transform="translate(54.484375,37.5)" y="0" x="0" id="text-entity-GITOPSAGENT-ebaa4205-f0d2-5f89-b34e-e739dfce9355" class="er entityLabel">GITOPS-AGENT</text></g><g transform="translate(20,195 )" id="entity-GITOPSCLUSTER-d7f9fde8-8398-58ce-9352-712fda458195"><rect height="75" width="119.90625" y="0" x="0" class="er entityBox"/><text style="dominant-baseline: middle; text-anchor: middle; font-size: 12px;" transform="translate(59.953125,37.5)" y="0" x="0" id="text-entity-GITOPSCLUSTER-d7f9fde8-8398-58ce-9352-712fda458195" class="er entityLabel">GITOPS-CLUSTER</text></g><g transform="translate(26.5625,370 )" id="entity-ENVIRONMENT-5210375b-fa17-512e-b59d-1ea61127526f"><rect height="75" width="106.78125" y="0" x="0" class="er entityBox"/><text style="dominant-baseline: middle; text-anchor: middle; font-size: 12px;" transform="translate(53.390625,37.5)" y="0" x="0" id="text-entity-ENVIRONMENT-5210375b-fa17-512e-b59d-1ea61127526f" class="er entityLabel">ENVIRONMENT</text></g><g transform="translate(236.625,370 )" id="entity-SERVICE-9e7e25d4-6c7d-5936-bea4-5c3379ed66bc"><rect height="75" width="100" y="0" x="0" class="er entityBox"/><text style="dominant-baseline: middle; text-anchor: middle; font-size: 12px;" transform="translate(50,37.5)" y="0" x="0" id="text-entity-SERVICE-9e7e25d4-6c7d-5936-bea4-5c3379ed66bc" class="er entityLabel">SERVICE</text></g><g transform="translate(236.625,545 )" id="entity-APPLICATION-78931c73-7328-5d57-b058-07575daa1430"><rect height="75" width="100" y="0" x="0" class="er entityBox"/><text style="dominant-baseline: middle; text-anchor: middle; font-size: 12px;" transform="translate(50,37.5)" y="0" x="0" id="text-entity-APPLICATION-78931c73-7328-5d57-b058-07575daa1430" class="er entityLabel">APPLICATION</text></g><g transform="translate(311.625,195 )" id="entity-REPOSITORY-699695b0-5603-5c09-89a1-ea5acd069f5b"><rect height="75" width="100" y="0" x="0" class="er entityBox"/><text style="dominant-baseline: middle; text-anchor: middle; font-size: 12px;" transform="translate(50,37.5)" y="0" x="0" id="text-entity-REPOSITORY-699695b0-5603-5c09-89a1-ea5acd069f5b" class="er entityLabel">REPOSITORY</text></g><rect height="14" width="96.5625" y="138" x="31.6717529296875" class="er relationshipLabelBox"/><text style="text-anchor: middle; dominant-baseline: middle; font-size: 12px;" y="145" x="79.9530029296875" id="rel1" class="er relationshipLabel">runs commands in</text><rect height="14" width="156.234375" y="313" x="1.8358154296875" class="er relationshipLabelBox"/><text style="text-anchor: middle; dominant-baseline: middle; font-size: 12px;" y="320" x="79.9530029296875" id="rel2" class="er relationshipLabel">is compute infrastructure for</text><rect height="14" width="189.65625" y="488" x="191.796875" class="er relationshipLabelBox"/><text style="text-anchor: middle; dominant-baseline: middle; font-size: 12px;" y="495" x="286.625" id="rel3" class="er relationshipLabel">represenents deployed workload of</text><rect height="14" width="131.359375" y="512.0202026367188" x="76.19160461425781" class="er relationshipLabelBox"/><text style="text-anchor: middle; dominant-baseline: middle; font-size: 12px;" y="519.0202026367188" x="141.8712921142578" id="rel4" class="er relationshipLabel">is deployment target for</text><rect height="14" width="186.5625" y="308.12579345703125" x="202.77029418945312" class="er relationshipLabelBox"/><text style="text-anchor: middle; dominant-baseline: middle; font-size: 12px;" y="315.12579345703125" x="296.0515441894531" id="rel5" class="er relationshipLabel">contains deployment manifests for</text><rect height="14" width="137.056640625" y="421.54095458984375" x="367.8619079589844" class="er relationshipLabelBox"/><text style="text-anchor: middle; dominant-baseline: middle; font-size: 12px;" y="428.54095458984375" x="436.3902282714844" id="rel6" class="er relationshipLabel">hosts declarative state of</text><text class="entityTitleText" y="-25" x="253.39132690429688" text-anchor="middle">Example: Harness GitOps Entity Relationships</text></svg>