<svg aria-roledescription="er" role="graphics-document document" viewBox="0 0 912.234375 465" style="max-width: 912.234px; background-color: white;" xmlns:xlink="http://www.w3.org/1999/xlink" xmlns="http://www.w3.org/2000/svg" width="100%" id="my-svg"><style>#my-svg{font-family:"trebuchet ms",verdana,arial,sans-serif;font-size:16px;fill:#333;}#my-svg .error-icon{fill:#552222;}#my-svg .error-text{fill:#552222;stroke:#552222;}#my-svg .edge-thickness-normal{stroke-width:1px;}#my-svg .edge-thickness-thick{stroke-width:3.5px;}#my-svg .edge-pattern-solid{stroke-dasharray:0;}#my-svg .edge-thickness-invisible{stroke-width:0;fill:none;}#my-svg .edge-pattern-dashed{stroke-dasharray:3;}#my-svg .edge-pattern-dotted{stroke-dasharray:2;}#my-svg .marker{fill:#333333;stroke:#333333;}#my-svg .marker.cross{stroke:#333333;}#my-svg svg{font-family:"trebuchet ms",verdana,arial,sans-serif;font-size:16px;}#my-svg p{margin:0;}#my-svg .entityBox{fill:#ECECFF;stroke:#9370DB;}#my-svg .attributeBoxOdd{fill:#ffffff;stroke:#9370DB;}#my-svg .attributeBoxEven{fill:#f2f2f2;stroke:#9370DB;}#my-svg .relationshipLabelBox{fill:hsl(80, 100%, 96.2745098039%);opacity:0.7;background-color:hsl(80, 100%, 96.2745098039%);}#my-svg .relationshipLabelBox rect{opacity:0.5;}#my-svg .relationshipLine{stroke:#333333;}#my-svg .entityTitleText{text-anchor:middle;font-size:18px;fill:#333;}#my-svg #MD_PARENT_START{fill:#f5f5f5!important;stroke:#333333!important;stroke-width:1;}#my-svg #MD_PARENT_END{fill:#f5f5f5!important;stroke:#333333!important;stroke-width:1;}#my-svg :root{--mermaid-font-family:"trebuchet ms",verdana,arial,sans-serif;}</style><g/><defs><marker orient="auto" markerHeight="240" markerWidth="190" refY="7" refX="0" id="MD_PARENT_START"><path d="M 18,7 L9,13 L1,7 L9,1 Z"/></marker></defs><defs><marker orient="auto" markerHeight="28" markerWidth="20" refY="7" refX="19" id="MD_PARENT_END"><path d="M 18,7 L9,13 L1,7 L9,1 Z"/></marker></defs><defs><marker orient="auto" markerHeight="18" markerWidth="18" refY="9" refX="0" id="ONLY_ONE_START"><path d="M9,0 L9,18 M15,0 L15,18" fill="none" stroke="gray"/></marker></defs><defs><marker orient="auto" markerHeight="18" markerWidth="18" refY="9" refX="18" id="ONLY_ONE_END"><path d="M3,0 L3,18 M9,0 L9,18" fill="none" stroke="gray"/></marker></defs><defs><marker orient="auto" markerHeight="18" markerWidth="30" refY="9" refX="0" id="ZERO_OR_ONE_START"><circle r="6" cy="9" cx="21" fill="white" stroke="gray"/><path d="M9,0 L9,18" fill="none" stroke="gray"/></marker></defs><defs><marker orient="auto" markerHeight="18" markerWidth="30" refY="9" refX="30" id="ZERO_OR_ONE_END"><circle r="6" cy="9" cx="9" fill="white" stroke="gray"/><path d="M21,0 L21,18" fill="none" stroke="gray"/></marker></defs><defs><marker orient="auto" markerHeight="36" markerWidth="45" refY="18" refX="18" id="ONE_OR_MORE_START"><path d="M0,18 Q 18,0 36,18 Q 18,36 0,18 M42,9 L42,27" fill="none" stroke="gray"/></marker></defs><defs><marker orient="auto" markerHeight="36" markerWidth="45" refY="18" refX="27" id="ONE_OR_MORE_END"><path d="M3,9 L3,27 M9,18 Q27,0 45,18 Q27,36 9,18" fill="none" stroke="gray"/></marker></defs><defs><marker orient="auto" markerHeight="36" markerWidth="57" refY="18" refX="18" id="ZERO_OR_MORE_START"><circle r="6" cy="18" cx="48" fill="white" stroke="gray"/><path d="M0,18 Q18,0 36,18 Q18,36 0,18" fill="none" stroke="gray"/></marker></defs><defs><marker orient="auto" markerHeight="36" markerWidth="57" refY="18" refX="39" id="ZERO_OR_MORE_END"><circle r="6" cy="18" cx="9" fill="white" stroke="gray"/><path d="M21,18 Q39,0 57,18 Q39,36 21,18" fill="none" stroke="gray"/></marker></defs><path style="stroke: gray; fill: none;" marker-start="url(#ONE_OR_MORE_START)" marker-end="url(#ONLY_ONE_END)" d="M120,95L120,103.333C120,111.667,120,128.333,120,145C120,161.667,120,178.333,120,186.667L120,195" class="er relationshipLine"/><path style="stroke: gray; fill: none;" marker-start="url(#ONLY_ONE_START)" marker-end="url(#ONLY_ONE_END)" d="M98.571,270L93.81,278.333C89.048,286.667,79.524,303.333,74.762,320C70,336.667,70,353.333,70,361.667L70,370" class="er relationshipLine"/><path style="stroke: gray; fill: none;" marker-start="url(#ONLY_ONE_START)" marker-end="url(#ONLY_ONE_END)" d="M142.313,270L147.271,278.333C152.229,286.667,162.146,303.333,200.781,323.357C239.417,343.381,306.771,366.762,340.448,378.453L374.125,390.143" class="er relationshipLine"/><path style="stroke: gray; fill: none;" marker-start="url(#ONE_OR_MORE_START)" marker-end="url(#ONLY_ONE_END)" d="M372.063,270L372.063,278.333C372.063,286.667,372.063,303.333,377.021,320C381.979,336.667,391.896,353.333,396.854,361.667L401.813,370" class="er relationshipLine"/><path style="stroke: gray; fill: none;" marker-start="url(#ONE_OR_MORE_START)" marker-end="url(#ONLY_ONE_END)" d="M572.063,270L572.063,278.333C572.063,286.667,572.063,303.333,555.74,321.321C539.417,339.309,506.771,358.618,490.448,368.272L474.125,377.927" class="er relationshipLine"/><path style="stroke: gray; fill: none;" marker-start="url(#ONLY_ONE_START)" marker-end="url(#ONLY_ONE_END)" d="M784.398,270L784.398,278.333C784.398,286.667,784.398,303.333,732.686,324.226C680.974,345.119,577.549,370.238,525.837,382.797L474.125,395.356" class="er relationshipLine"/><path style="stroke: gray; fill: none;" marker-start="url(#ONE_OR_MORE_START)" marker-end="url(#ONLY_ONE_END)" d="M529.867,95L529.867,103.333C529.867,111.667,529.867,128.333,561.9,147.678C593.932,167.024,657.997,189.047,690.03,200.059L722.063,211.071" class="er relationshipLine"/><path style="stroke: gray; fill: none;" marker-start="url(#ONE_OR_MORE_START)" marker-end="url(#ONLY_ONE_END)" d="M839.477,95L839.477,103.333C839.477,111.667,839.477,128.333,834.231,145C828.985,161.667,818.494,178.333,813.249,186.667L808.003,195" class="er relationshipLine"/><g transform="translate(70,20 )" id="entity-iPhones-67b992c8-c24d-5b3b-b07e-273f2bb3141f"><rect height="75" width="100" y="0" x="0" class="er entityBox"/><text style="dominant-baseline: middle; text-anchor: middle; font-size: 12px;" transform="translate(50,37.5)" y="0" x="0" id="text-entity-iPhones-67b992c8-c24d-5b3b-b07e-273f2bb3141f" class="er entityLabel">iPhones</text></g><g transform="translate(65.875,195 )" id="entity-HomeAssistant-3a2da0dd-cd70-55ea-ae39-b606097cf4ed"><rect height="75" width="108.25" y="0" x="0" class="er entityBox"/><text style="dominant-baseline: middle; text-anchor: middle; font-size: 12px;" transform="translate(54.125,37.5)" y="0" x="0" id="text-entity-HomeAssistant-3a2da0dd-cd70-55ea-ae39-b606097cf4ed" class="er entityLabel">HomeAssistant</text></g><g transform="translate(20,370 )" id="entity-NodeRed-7e475b77-fd46-5ee0-98eb-fe29efca94bd"><rect height="75" width="100" y="0" x="0" class="er entityBox"/><text style="dominant-baseline: middle; text-anchor: middle; font-size: 12px;" transform="translate(50,37.5)" y="0" x="0" id="text-entity-NodeRed-7e475b77-fd46-5ee0-98eb-fe29efca94bd" class="er entityLabel">NodeRed</text></g><g transform="translate(374.125,370 )" id="entity-MqttBroker-7d7cecf6-3661-50bb-a86f-4668c7748233"><rect height="75" width="100" y="0" x="0" class="er entityBox"/><text style="dominant-baseline: middle; text-anchor: middle; font-size: 12px;" transform="translate(50,37.5)" y="0" x="0" id="text-entity-MqttBroker-7d7cecf6-3661-50bb-a86f-4668c7748233" class="er entityLabel">MqttBroker</text></g><g transform="translate(322.0625,195 )" id="entity-SmartPlugs-184bfcd2-382e-567c-9ec7-95e74770bf30"><rect height="75" width="100" y="0" x="0" class="er entityBox"/><text style="dominant-baseline: middle; text-anchor: middle; font-size: 12px;" transform="translate(50,37.5)" y="0" x="0" id="text-entity-SmartPlugs-184bfcd2-382e-567c-9ec7-95e74770bf30" class="er entityLabel">SmartPlugs</text></g><g transform="translate(522.0625,195 )" id="entity-Shellys-8bf5c4c0-1bdc-5e4d-98a1-1dcae454a3ce"><rect height="75" width="100" y="0" x="0" class="er entityBox"/><text style="dominant-baseline: middle; text-anchor: middle; font-size: 12px;" transform="translate(50,37.5)" y="0" x="0" id="text-entity-Shellys-8bf5c4c0-1bdc-5e4d-98a1-1dcae454a3ce" class="er entityLabel">Shellys</text></g><g transform="translate(722.0625,195 )" id="entity-ZigbeeMqttBridge-0b55072f-847d-5c14-89ef-df786db84f2f"><rect height="75" width="124.671875" y="0" x="0" class="er entityBox"/><text style="dominant-baseline: middle; text-anchor: middle; font-size: 12px;" transform="translate(62.3359375,37.5)" y="0" x="0" id="text-entity-ZigbeeMqttBridge-0b55072f-847d-5c14-89ef-df786db84f2f" class="er entityLabel">ZigbeeMqttBridge</text></g><g transform="translate(476.59375,20 )" id="entity-ZigbeeButtons-713ce597-2d73-530d-8829-f44aee9b72ec"><rect height="75" width="106.546875" y="0" x="0" class="er entityBox"/><text style="dominant-baseline: middle; text-anchor: middle; font-size: 12px;" transform="translate(53.2734375,37.5)" y="0" x="0" id="text-entity-ZigbeeButtons-713ce597-2d73-530d-8829-f44aee9b72ec" class="er entityLabel">ZigbeeButtons</text></g><g transform="translate(786.71875,20 )" id="entity-ZigbeeSensors-17f524c0-2490-5062-8912-000d9af9a016"><rect height="75" width="105.515625" y="0" x="0" class="er entityBox"/><text style="dominant-baseline: middle; text-anchor: middle; font-size: 12px;" transform="translate(52.7578125,37.5)" y="0" x="0" id="text-entity-ZigbeeSensors-17f524c0-2490-5062-8912-000d9af9a016" class="er entityLabel">ZigbeeSensors</text></g><rect height="14" width="22.765625" y="138" x="108.6171875" class="er relationshipLabelBox"/><text style="text-anchor: middle; dominant-baseline: middle; font-size: 12px;" y="145" x="120" id="rel1" class="er relationshipLabel">http</text><rect height="14" width="22.765625" y="310.55291748046875" x="64.1119155883789" class="er relationshipLabelBox"/><text style="text-anchor: middle; dominant-baseline: middle; font-size: 12px;" y="317.55291748046875" x="75.4947280883789" id="rel2" class="er relationshipLabel">http</text><rect height="14" width="26.171875" y="337.8112487792969" x="235.746337890625" class="er relationshipLabelBox"/><text style="text-anchor: middle; dominant-baseline: middle; font-size: 12px;" y="344.8112487792969" x="248.832275390625" id="rel3" class="er relationshipLabel">mqtt</text><rect height="14" width="26.171875" y="315.63079833984375" x="364.7579650878906" class="er relationshipLabelBox"/><text style="text-anchor: middle; dominant-baseline: middle; font-size: 12px;" y="322.63079833984375" x="377.8439025878906" id="rel4" class="er relationshipLabel">mqtt</text><rect height="14" width="26.171875" y="329.1026611328125" x="526.32861328125" class="er relationshipLabelBox"/><text style="text-anchor: middle; dominant-baseline: middle; font-size: 12px;" y="336.1026611328125" x="539.41455078125" id="rel5" class="er relationshipLabel">mqtt</text><rect height="14" width="26.171875" y="345.6554260253906" x="630.7432861328125" class="er relationshipLabelBox"/><text style="text-anchor: middle; dominant-baseline: middle; font-size: 12px;" y="352.6554260253906" x="643.8292236328125" id="rel6" class="er relationshipLabel">mqtt</text><rect height="14" width="34.921875" y="163.61952209472656" x="592.48291015625" class="er relationshipLabelBox"/><text style="text-anchor: middle; dominant-baseline: middle; font-size: 12px;" y="170.61952209472656" x="609.94384765625" id="rel7" class="er relationshipLabel">zigbee</text><rect height="14" width="34.921875" y="140.90606689453125" x="815.803466796875" class="er relationshipLabelBox"/><text style="text-anchor: middle; dominant-baseline: middle; font-size: 12px;" y="147.90606689453125" x="833.264404296875" id="rel8" class="er relationshipLabel">zigbee</text></svg>