<svg aria-roledescription="er" role="graphics-document document" viewBox="0 0 620.828125 474.826171875" style="max-width: 620.828px; background-color: white;" xmlns:xlink="http://www.w3.org/1999/xlink" xmlns="http://www.w3.org/2000/svg" width="100%" id="my-svg"><style>#my-svg{font-family:"trebuchet ms",verdana,arial,sans-serif;font-size:16px;fill:#333;}#my-svg .error-icon{fill:#552222;}#my-svg .error-text{fill:#552222;stroke:#552222;}#my-svg .edge-thickness-normal{stroke-width:1px;}#my-svg .edge-thickness-thick{stroke-width:3.5px;}#my-svg .edge-pattern-solid{stroke-dasharray:0;}#my-svg .edge-thickness-invisible{stroke-width:0;fill:none;}#my-svg .edge-pattern-dashed{stroke-dasharray:3;}#my-svg .edge-pattern-dotted{stroke-dasharray:2;}#my-svg .marker{fill:#333333;stroke:#333333;}#my-svg .marker.cross{stroke:#333333;}#my-svg svg{font-family:"trebuchet ms",verdana,arial,sans-serif;font-size:16px;}#my-svg p{margin:0;}#my-svg .entityBox{fill:#ECECFF;stroke:#9370DB;}#my-svg .attributeBoxOdd{fill:#ffffff;stroke:#9370DB;}#my-svg .attributeBoxEven{fill:#f2f2f2;stroke:#9370DB;}#my-svg .relationshipLabelBox{fill:hsl(80, 100%, 96.2745098039%);opacity:0.7;background-color:hsl(80, 100%, 96.2745098039%);}#my-svg .relationshipLabelBox rect{opacity:0.5;}#my-svg .relationshipLine{stroke:#333333;}#my-svg .entityTitleText{text-anchor:middle;font-size:18px;fill:#333;}#my-svg #MD_PARENT_START{fill:#f5f5f5!important;stroke:#333333!important;stroke-width:1;}#my-svg #MD_PARENT_END{fill:#f5f5f5!important;stroke:#333333!important;stroke-width:1;}#my-svg :root{--mermaid-font-family:"trebuchet ms",verdana,arial,sans-serif;}</style><g/><defs><marker orient="auto" markerHeight="240" markerWidth="190" refY="7" refX="0" id="MD_PARENT_START"><path d="M 18,7 L9,13 L1,7 L9,1 Z"/></marker></defs><defs><marker orient="auto" markerHeight="28" markerWidth="20" refY="7" refX="19" id="MD_PARENT_END"><path d="M 18,7 L9,13 L1,7 L9,1 Z"/></marker></defs><defs><marker orient="auto" markerHeight="18" markerWidth="18" refY="9" refX="0" id="ONLY_ONE_START"><path d="M9,0 L9,18 M15,0 L15,18" fill="none" stroke="gray"/></marker></defs><defs><marker orient="auto" markerHeight="18" markerWidth="18" refY="9" refX="18" id="ONLY_ONE_END"><path d="M3,0 L3,18 M9,0 L9,18" fill="none" stroke="gray"/></marker></defs><defs><marker orient="auto" markerHeight="18" markerWidth="30" refY="9" refX="0" id="ZERO_OR_ONE_START"><circle r="6" cy="9" cx="21" fill="white" stroke="gray"/><path d="M9,0 L9,18" fill="none" stroke="gray"/></marker></defs><defs><marker orient="auto" markerHeight="18" markerWidth="30" refY="9" refX="30" id="ZERO_OR_ONE_END"><circle r="6" cy="9" cx="9" fill="white" stroke="gray"/><path d="M21,0 L21,18" fill="none" stroke="gray"/></marker></defs><defs><marker orient="auto" markerHeight="36" markerWidth="45" refY="18" refX="18" id="ONE_OR_MORE_START"><path d="M0,18 Q 18,0 36,18 Q 18,36 0,18 M42,9 L42,27" fill="none" stroke="gray"/></marker></defs><defs><marker orient="auto" markerHeight="36" markerWidth="45" refY="18" refX="27" id="ONE_OR_MORE_END"><path d="M3,9 L3,27 M9,18 Q27,0 45,18 Q27,36 9,18" fill="none" stroke="gray"/></marker></defs><defs><marker orient="auto" markerHeight="36" markerWidth="57" refY="18" refX="18" id="ZERO_OR_MORE_START"><circle r="6" cy="18" cx="48" fill="white" stroke="gray"/><path d="M0,18 Q18,0 36,18 Q18,36 0,18" fill="none" stroke="gray"/></marker></defs><defs><marker orient="auto" markerHeight="36" markerWidth="57" refY="18" refX="39" id="ZERO_OR_MORE_END"><circle r="6" cy="18" cx="9" fill="white" stroke="gray"/><path d="M21,18 Q39,0 57,18 Q39,36 21,18" fill="none" stroke="gray"/></marker></defs><path style="stroke: gray; fill: none;" marker-start="url(#ONLY_ONE_START)" marker-end="url(#ONLY_ONE_END)" d="M194.891,171.178L174.076,184.089C153.26,196.999,111.63,222.821,90.815,249.557C70,276.294,70,303.945,70,317.771L70,331.597" class="er relationshipLine"/><path style="stroke: gray; fill: none;" marker-start="url(#ONLY_ONE_START)" marker-end="url(#ONE_OR_MORE_END)" d="M294.617,198.643L294.617,206.976C294.617,215.309,294.617,231.976,294.617,254.135C294.617,276.294,294.617,303.945,294.617,317.771L294.617,331.597" class="er relationshipLine"/><path style="stroke: gray; fill: none;" marker-start="url(#ONLY_ONE_START)" marker-end="url(#ONLY_ONE_END)" d="M394.344,167.113L417.792,180.702C441.24,194.29,488.135,221.466,511.583,243.388C535.031,265.309,535.031,281.976,535.031,290.309L535.031,298.643" class="er relationshipLine"/><g transform="translate(194.890625,20 )" id="entity-HOTEL-3c67d420-d206-5366-9885-ce668b3fd019"><rect height="178.64258480072021" width="199.453125" y="0" x="0" class="er entityBox"/><text style="dominant-baseline: middle; text-anchor: middle; font-size: 12px;" transform="translate(99.7265625,12)" y="0" x="0" id="text-entity-HOTEL-3c67d420-d206-5366-9885-ce668b3fd019" class="er entityLabel">HOTEL</text><rect height="22.091797828674316" width="47.046875" y="24" x="0" class="er attributeBoxOdd"/><text style="dominant-baseline: middle; font-size: 10.2px;" transform="translate(5,35.04589891433716)" y="0" x="0" id="text-entity-HOTEL-3c67d420-d206-5366-9885-ce668b3fd019-attr-1-type" class="er entityLabel">string</text><rect height="22.091797828674316" width="130.84375" y="24" x="47.046875" class="er attributeBoxOdd"/><text style="dominant-baseline: middle; font-size: 10.2px;" transform="translate(52.046875,35.04589891433716)" y="0" x="0" id="text-entity-HOTEL-3c67d420-d206-5366-9885-ce668b3fd019-attr-1-name" class="er entityLabel">hotel_id</text><rect height="22.091797828674316" width="21.5625" y="24" x="177.890625" class="er attributeBoxOdd"/><text style="dominant-baseline: middle; font-size: 10.2px;" transform="translate(182.890625,35.04589891433716)" y="0" x="0" id="text-entity-HOTEL-3c67d420-d206-5366-9885-ce668b3fd019-attr-1-key" class="er entityLabel">PK</text><rect height="22.091797828674316" width="47.046875" y="46.091797828674316" x="0" class="er attributeBoxEven"/><text style="dominant-baseline: middle; font-size: 10.2px;" transform="translate(5,57.137696743011475)" y="0" x="0" id="text-entity-HOTEL-3c67d420-d206-5366-9885-ce668b3fd019-attr-2-type" class="er entityLabel">string</text><rect height="22.091797828674316" width="130.84375" y="46.091797828674316" x="47.046875" class="er attributeBoxEven"/><text style="dominant-baseline: middle; font-size: 10.2px;" transform="translate(52.046875,57.137696743011475)" y="0" x="0" id="text-entity-HOTEL-3c67d420-d206-5366-9885-ce668b3fd019-attr-2-name" class="er entityLabel">chain_id</text><rect height="22.091797828674316" width="21.5625" y="46.091797828674316" x="177.890625" class="er attributeBoxEven"/><text style="dominant-baseline: middle; font-size: 10.2px;" transform="translate(182.890625,57.137696743011475)" y="0" x="0" id="text-entity-HOTEL-3c67d420-d206-5366-9885-ce668b3fd019-attr-2-key" class="er entityLabel"/><rect height="22.091797828674316" width="47.046875" y="68.18359565734863" x="0" class="er attributeBoxOdd"/><text style="dominant-baseline: middle; font-size: 10.2px;" transform="translate(5,79.22949457168579)" y="0" x="0" id="text-entity-HOTEL-3c67d420-d206-5366-9885-ce668b3fd019-attr-3-type" class="er entityLabel">string</text><rect height="22.091797828674316" width="130.84375" y="68.18359565734863" x="47.046875" class="er attributeBoxOdd"/><text style="dominant-baseline: middle; font-size: 10.2px;" transform="translate(52.046875,79.22949457168579)" y="0" x="0" id="text-entity-HOTEL-3c67d420-d206-5366-9885-ce668b3fd019-attr-3-name" class="er entityLabel">name</text><rect height="22.091797828674316" width="21.5625" y="68.18359565734863" x="177.890625" class="er attributeBoxOdd"/><text style="dominant-baseline: middle; font-size: 10.2px;" transform="translate(182.890625,79.22949457168579)" y="0" x="0" id="text-entity-HOTEL-3c67d420-d206-5366-9885-ce668b3fd019-attr-3-key" class="er entityLabel"/><rect height="22.091797828674316" width="47.046875" y="90.27539348602295" x="0" class="er attributeBoxEven"/><text style="dominant-baseline: middle; font-size: 10.2px;" transform="translate(5,101.32129240036011)" y="0" x="0" id="text-entity-HOTEL-3c67d420-d206-5366-9885-ce668b3fd019-attr-4-type" class="er entityLabel">int</text><rect height="22.091797828674316" width="130.84375" y="90.27539348602295" x="47.046875" class="er attributeBoxEven"/><text style="dominant-baseline: middle; font-size: 10.2px;" transform="translate(52.046875,101.32129240036011)" y="0" x="0" id="text-entity-HOTEL-3c67d420-d206-5366-9885-ce668b3fd019-attr-4-name" class="er entityLabel">eco_rating</text><rect height="22.091797828674316" width="21.5625" y="90.27539348602295" x="177.890625" class="er attributeBoxEven"/><text style="dominant-baseline: middle; font-size: 10.2px;" transform="translate(182.890625,101.32129240036011)" y="0" x="0" id="text-entity-HOTEL-3c67d420-d206-5366-9885-ce668b3fd019-attr-4-key" class="er entityLabel"/><rect height="22.091797828674316" width="47.046875" y="112.36719131469727" x="0" class="er attributeBoxOdd"/><text style="dominant-baseline: middle; font-size: 10.2px;" transform="translate(5,123.41309022903442)" y="0" x="0" id="text-entity-HOTEL-3c67d420-d206-5366-9885-ce668b3fd019-attr-5-type" class="er entityLabel">object</text><rect height="22.091797828674316" width="130.84375" y="112.36719131469727" x="47.046875" class="er attributeBoxOdd"/><text style="dominant-baseline: middle; font-size: 10.2px;" transform="translate(52.046875,123.41309022903442)" y="0" x="0" id="text-entity-HOTEL-3c67d420-d206-5366-9885-ce668b3fd019-attr-5-name" class="er entityLabel">location</text><rect height="22.091797828674316" width="21.5625" y="112.36719131469727" x="177.890625" class="er attributeBoxOdd"/><text style="dominant-baseline: middle; font-size: 10.2px;" transform="translate(182.890625,123.41309022903442)" y="0" x="0" id="text-entity-HOTEL-3c67d420-d206-5366-9885-ce668b3fd019-attr-5-key" class="er entityLabel"/><rect height="22.091797828674316" width="47.046875" y="134.45898914337158" x="0" class="er attributeBoxEven"/><text style="dominant-baseline: middle; font-size: 10.2px;" transform="translate(5,145.50488805770874)" y="0" x="0" id="text-entity-HOTEL-3c67d420-d206-5366-9885-ce668b3fd019-attr-6-type" class="er entityLabel">object[]</text><rect height="22.091797828674316" width="130.84375" y="134.45898914337158" x="47.046875" class="er attributeBoxEven"/><text style="dominant-baseline: middle; font-size: 10.2px;" transform="translate(52.046875,145.50488805770874)" y="0" x="0" id="text-entity-HOTEL-3c67d420-d206-5366-9885-ce668b3fd019-attr-6-name" class="er entityLabel">local_community_projects</text><rect height="22.091797828674316" width="21.5625" y="134.45898914337158" x="177.890625" class="er attributeBoxEven"/><text style="dominant-baseline: middle; font-size: 10.2px;" transform="translate(182.890625,145.50488805770874)" y="0" x="0" id="text-entity-HOTEL-3c67d420-d206-5366-9885-ce668b3fd019-attr-6-key" class="er entityLabel"/><rect height="22.091797828674316" width="47.046875" y="156.5507869720459" x="0" class="er attributeBoxOdd"/><text style="dominant-baseline: middle; font-size: 10.2px;" transform="translate(5,167.59668588638306)" y="0" x="0" id="text-entity-HOTEL-3c67d420-d206-5366-9885-ce668b3fd019-attr-7-type" class="er entityLabel">object</text><rect height="22.091797828674316" width="130.84375" y="156.5507869720459" x="47.046875" class="er attributeBoxOdd"/><text style="dominant-baseline: middle; font-size: 10.2px;" transform="translate(52.046875,167.59668588638306)" y="0" x="0" id="text-entity-HOTEL-3c67d420-d206-5366-9885-ce668b3fd019-attr-7-name" class="er entityLabel">amenities</text><rect height="22.091797828674316" width="21.5625" y="156.5507869720459" x="177.890625" class="er attributeBoxOdd"/><text style="dominant-baseline: middle; font-size: 10.2px;" transform="translate(182.890625,167.59668588638306)" y="0" x="0" id="text-entity-HOTEL-3c67d420-d206-5366-9885-ce668b3fd019-attr-7-key" class="er entityLabel"/></g><g transform="translate(20,331.5966796875 )" id="entity-LOCATION-ee6c233d-8827-5635-889e-70a56078e32c"><rect height="90.27539348602295" width="100" y="0" x="0" class="er entityBox"/><text style="dominant-baseline: middle; text-anchor: middle; font-size: 12px;" transform="translate(50,12)" y="0" x="0" id="text-entity-LOCATION-ee6c233d-8827-5635-889e-70a56078e32c" class="er entityLabel">LOCATION</text><rect height="22.091797828674316" width="45.515625" y="24" x="0" class="er attributeBoxOdd"/><text style="dominant-baseline: middle; font-size: 10.2px;" transform="translate(5,35.04589891433716)" y="0" x="0" id="text-entity-LOCATION-ee6c233d-8827-5635-889e-70a56078e32c-attr-1-type" class="er entityLabel">string</text><rect height="22.091797828674316" width="54.484375" y="24" x="45.515625" class="er attributeBoxOdd"/><text style="dominant-baseline: middle; font-size: 10.2px;" transform="translate(50.515625,35.04589891433716)" y="0" x="0" id="text-entity-LOCATION-ee6c233d-8827-5635-889e-70a56078e32c-attr-1-name" class="er entityLabel">city</text><rect height="22.091797828674316" width="45.515625" y="46.091797828674316" x="0" class="er attributeBoxEven"/><text style="dominant-baseline: middle; font-size: 10.2px;" transform="translate(5,57.137696743011475)" y="0" x="0" id="text-entity-LOCATION-ee6c233d-8827-5635-889e-70a56078e32c-attr-2-type" class="er entityLabel">string</text><rect height="22.091797828674316" width="54.484375" y="46.091797828674316" x="45.515625" class="er attributeBoxEven"/><text style="dominant-baseline: middle; font-size: 10.2px;" transform="translate(50.515625,57.137696743011475)" y="0" x="0" id="text-entity-LOCATION-ee6c233d-8827-5635-889e-70a56078e32c-attr-2-name" class="er entityLabel">state</text><rect height="22.091797828674316" width="45.515625" y="68.18359565734863" x="0" class="er attributeBoxOdd"/><text style="dominant-baseline: middle; font-size: 10.2px;" transform="translate(5,79.22949457168579)" y="0" x="0" id="text-entity-LOCATION-ee6c233d-8827-5635-889e-70a56078e32c-attr-3-type" class="er entityLabel">string</text><rect height="22.091797828674316" width="54.484375" y="68.18359565734863" x="45.515625" class="er attributeBoxOdd"/><text style="dominant-baseline: middle; font-size: 10.2px;" transform="translate(50.515625,79.22949457168579)" y="0" x="0" id="text-entity-LOCATION-ee6c233d-8827-5635-889e-70a56078e32c-attr-3-name" class="er entityLabel">country</text></g><g transform="translate(220,331.5966796875 )" id="entity-COMMUNITYPROJECT-91fe40f2-d0aa-5599-9520-8422c3b8c4b1"><rect height="90.27539348602295" width="149.234375" y="0" x="0" class="er entityBox"/><text style="dominant-baseline: middle; text-anchor: middle; font-size: 12px;" transform="translate(74.6171875,12)" y="0" x="0" id="text-entity-COMMUNITYPROJECT-91fe40f2-d0aa-5599-9520-8422c3b8c4b1" class="er entityLabel">COMMUNITY_PROJECT</text><rect height="22.091797828674316" width="62" y="24" x="0" class="er attributeBoxOdd"/><text style="dominant-baseline: middle; font-size: 10.2px;" transform="translate(5,35.04589891433716)" y="0" x="0" id="text-entity-COMMUNITYPROJECT-91fe40f2-d0aa-5599-9520-8422c3b8c4b1-attr-1-type" class="er entityLabel">string</text><rect height="22.091797828674316" width="87.234375" y="24" x="62" class="er attributeBoxOdd"/><text style="dominant-baseline: middle; font-size: 10.2px;" transform="translate(67,35.04589891433716)" y="0" x="0" id="text-entity-COMMUNITYPROJECT-91fe40f2-d0aa-5599-9520-8422c3b8c4b1-attr-1-name" class="er entityLabel">image_url</text><rect height="22.091797828674316" width="62" y="46.091797828674316" x="0" class="er attributeBoxEven"/><text style="dominant-baseline: middle; font-size: 10.2px;" transform="translate(5,57.137696743011475)" y="0" x="0" id="text-entity-COMMUNITYPROJECT-91fe40f2-d0aa-5599-9520-8422c3b8c4b1-attr-2-type" class="er entityLabel">string</text><rect height="22.091797828674316" width="87.234375" y="46.091797828674316" x="62" class="er attributeBoxEven"/><text style="dominant-baseline: middle; font-size: 10.2px;" transform="translate(67,57.137696743011475)" y="0" x="0" id="text-entity-COMMUNITYPROJECT-91fe40f2-d0aa-5599-9520-8422c3b8c4b1-attr-2-name" class="er entityLabel">title</text><rect height="22.091797828674316" width="62" y="68.18359565734863" x="0" class="er attributeBoxOdd"/><text style="dominant-baseline: middle; font-size: 10.2px;" transform="translate(5,79.22949457168579)" y="0" x="0" id="text-entity-COMMUNITYPROJECT-91fe40f2-d0aa-5599-9520-8422c3b8c4b1-attr-3-type" class="er entityLabel">string</text><rect height="22.091797828674316" width="87.234375" y="68.18359565734863" x="62" class="er attributeBoxOdd"/><text style="dominant-baseline: middle; font-size: 10.2px;" transform="translate(67,79.22949457168579)" y="0" x="0" id="text-entity-COMMUNITYPROJECT-91fe40f2-d0aa-5599-9520-8422c3b8c4b1-attr-3-name" class="er entityLabel">description</text></g><g transform="translate(469.234375,298.642578125 )" id="entity-AMENITIES-d264862d-b26e-500c-96ca-d1c579d30cc2"><rect height="156.18359375" width="131.59375" y="0" x="0" class="er entityBox"/><text style="dominant-baseline: middle; text-anchor: middle; font-size: 12px;" transform="translate(65.796875,12)" y="0" x="0" id="text-entity-AMENITIES-d264862d-b26e-500c-96ca-d1c579d30cc2" class="er entityLabel">AMENITIES</text><rect height="22" width="46.140625" y="24" x="0" class="er attributeBoxOdd"/><text style="dominant-baseline: middle; font-size: 10.2px;" transform="translate(5,35)" y="0" x="0" id="text-entity-AMENITIES-d264862d-b26e-500c-96ca-d1c579d30cc2-attr-1-type" class="er entityLabel">boolean</text><rect height="22" width="85.453125" y="24" x="46.140625" class="er attributeBoxOdd"/><text style="dominant-baseline: middle; font-size: 10.2px;" transform="translate(51.140625,35)" y="0" x="0" id="text-entity-AMENITIES-d264862d-b26e-500c-96ca-d1c579d30cc2-attr-1-name" class="er entityLabel">breakfast</text><rect height="22" width="46.140625" y="46" x="0" class="er attributeBoxEven"/><text style="dominant-baseline: middle; font-size: 10.2px;" transform="translate(5,57)" y="0" x="0" id="text-entity-AMENITIES-d264862d-b26e-500c-96ca-d1c579d30cc2-attr-2-type" class="er entityLabel">boolean</text><rect height="22" width="85.453125" y="46" x="46.140625" class="er attributeBoxEven"/><text style="dominant-baseline: middle; font-size: 10.2px;" transform="translate(51.140625,57)" y="0" x="0" id="text-entity-AMENITIES-d264862d-b26e-500c-96ca-d1c579d30cc2-attr-2-name" class="er entityLabel">bar</text><rect height="22" width="46.140625" y="68" x="0" class="er attributeBoxOdd"/><text style="dominant-baseline: middle; font-size: 10.2px;" transform="translate(5,79)" y="0" x="0" id="text-entity-AMENITIES-d264862d-b26e-500c-96ca-d1c579d30cc2-attr-3-type" class="er entityLabel">boolean</text><rect height="22" width="85.453125" y="68" x="46.140625" class="er attributeBoxOdd"/><text style="dominant-baseline: middle; font-size: 10.2px;" transform="translate(51.140625,79)" y="0" x="0" id="text-entity-AMENITIES-d264862d-b26e-500c-96ca-d1c579d30cc2-attr-3-name" class="er entityLabel">room_service</text><rect height="22.091796875" width="46.140625" y="90" x="0" class="er attributeBoxEven"/><text style="dominant-baseline: middle; font-size: 10.2px;" transform="translate(5,101.0458984375)" y="0" x="0" id="text-entity-AMENITIES-d264862d-b26e-500c-96ca-d1c579d30cc2-attr-4-type" class="er entityLabel">boolean</text><rect height="22.091796875" width="85.453125" y="90" x="46.140625" class="er attributeBoxEven"/><text style="dominant-baseline: middle; font-size: 10.2px;" transform="translate(51.140625,101.0458984375)" y="0" x="0" id="text-entity-AMENITIES-d264862d-b26e-500c-96ca-d1c579d30cc2-attr-4-name" class="er entityLabel">pet_friendly</text><rect height="22" width="46.140625" y="112.091796875" x="0" class="er attributeBoxOdd"/><text style="dominant-baseline: middle; font-size: 10.2px;" transform="translate(5,123.091796875)" y="0" x="0" id="text-entity-AMENITIES-d264862d-b26e-500c-96ca-d1c579d30cc2-attr-5-type" class="er entityLabel">boolean</text><rect height="22" width="85.453125" y="112.091796875" x="46.140625" class="er attributeBoxOdd"/><text style="dominant-baseline: middle; font-size: 10.2px;" transform="translate(51.140625,123.091796875)" y="0" x="0" id="text-entity-AMENITIES-d264862d-b26e-500c-96ca-d1c579d30cc2-attr-5-name" class="er entityLabel">front_desk_24_7</text><rect height="22.091796875" width="46.140625" y="134.091796875" x="0" class="er attributeBoxEven"/><text style="dominant-baseline: middle; font-size: 10.2px;" transform="translate(5,145.1376953125)" y="0" x="0" id="text-entity-AMENITIES-d264862d-b26e-500c-96ca-d1c579d30cc2-attr-6-type" class="er entityLabel">boolean</text><rect height="22.091796875" width="85.453125" y="134.091796875" x="46.140625" class="er attributeBoxEven"/><text style="dominant-baseline: middle; font-size: 10.2px;" transform="translate(51.140625,145.1376953125)" y="0" x="0" id="text-entity-AMENITIES-d264862d-b26e-500c-96ca-d1c579d30cc2-attr-6-name" class="er entityLabel">parking</text></g><rect height="14" width="17.71875" y="226.35108947753906" x="97.0032958984375" class="er relationshipLabelBox"/><text style="text-anchor: middle; dominant-baseline: middle; font-size: 12px;" y="233.35108947753906" x="105.8626708984375" id="rel1" class="er relationshipLabel">has</text><rect height="14" width="17.71875" y="258.1199951171875" x="285.75762939453125" class="er relationshipLabelBox"/><text style="text-anchor: middle; dominant-baseline: middle; font-size: 12px;" y="265.1199951171875" x="294.61700439453125" id="rel2" class="er relationshipLabel">has</text><rect height="14" width="17.71875" y="212.64915466308594" x="472.08514404296875" class="er relationshipLabelBox"/><text style="text-anchor: middle; dominant-baseline: middle; font-size: 12px;" y="219.64915466308594" x="480.94451904296875" id="rel3" class="er relationshipLabel">has</text></svg>