<svg aria-roledescription="flowchart-v2" role="graphics-document document" viewBox="0 0 1070.8359375 1394.4375" style="max-width: 1070.84px; background-color: white;" class="flowchart" xmlns:xlink="http://www.w3.org/1999/xlink" xmlns="http://www.w3.org/2000/svg" width="100%" id="my-svg"><style>#my-svg{font-family:"trebuchet ms",verdana,arial,sans-serif;font-size:16px;fill:#333;}#my-svg .error-icon{fill:#552222;}#my-svg .error-text{fill:#552222;stroke:#552222;}#my-svg .edge-thickness-normal{stroke-width:1px;}#my-svg .edge-thickness-thick{stroke-width:3.5px;}#my-svg .edge-pattern-solid{stroke-dasharray:0;}#my-svg .edge-thickness-invisible{stroke-width:0;fill:none;}#my-svg .edge-pattern-dashed{stroke-dasharray:3;}#my-svg .edge-pattern-dotted{stroke-dasharray:2;}#my-svg .marker{fill:#333333;stroke:#333333;}#my-svg .marker.cross{stroke:#333333;}#my-svg svg{font-family:"trebuchet ms",verdana,arial,sans-serif;font-size:16px;}#my-svg p{margin:0;}#my-svg .label{font-family:"trebuchet ms",verdana,arial,sans-serif;color:#333;}#my-svg .cluster-label text{fill:#333;}#my-svg .cluster-label span{color:#333;}#my-svg .cluster-label span p{background-color:transparent;}#my-svg .label text,#my-svg span{fill:#333;color:#333;}#my-svg .node rect,#my-svg .node circle,#my-svg .node ellipse,#my-svg .node polygon,#my-svg .node path{fill:#ECECFF;stroke:#9370DB;stroke-width:1px;}#my-svg .rough-node .label text,#my-svg .node .label text,#my-svg .image-shape .label,#my-svg .icon-shape .label{text-anchor:middle;}#my-svg .node .katex path{fill:#000;stroke:#000;stroke-width:1px;}#my-svg .rough-node .label,#my-svg .node .label,#my-svg .image-shape .label,#my-svg .icon-shape .label{text-align:center;}#my-svg .node.clickable{cursor:pointer;}#my-svg .root .anchor path{fill:#333333!important;stroke-width:0;stroke:#333333;}#my-svg .arrowheadPath{fill:#333333;}#my-svg .edgePath .path{stroke:#333333;stroke-width:2.0px;}#my-svg .flowchart-link{stroke:#333333;fill:none;}#my-svg .edgeLabel{background-color:rgba(232,232,232, 0.8);text-align:center;}#my-svg .edgeLabel p{background-color:rgba(232,232,232, 0.8);}#my-svg .edgeLabel rect{opacity:0.5;background-color:rgba(232,232,232, 0.8);fill:rgba(232,232,232, 0.8);}#my-svg .labelBkg{background-color:rgba(232, 232, 232, 0.5);}#my-svg .cluster rect{fill:#ffffde;stroke:#aaaa33;stroke-width:1px;}#my-svg .cluster text{fill:#333;}#my-svg .cluster span{color:#333;}#my-svg div.mermaidTooltip{position:absolute;text-align:center;max-width:200px;padding:2px;font-family:"trebuchet ms",verdana,arial,sans-serif;font-size:12px;background:hsl(80, 100%, 96.2745098039%);border:1px solid #aaaa33;border-radius:2px;pointer-events:none;z-index:100;}#my-svg .flowchartTitleText{text-anchor:middle;font-size:18px;fill:#333;}#my-svg rect.text{fill:none;stroke-width:0;}#my-svg .icon-shape,#my-svg .image-shape{background-color:rgba(232,232,232, 0.8);text-align:center;}#my-svg .icon-shape p,#my-svg .image-shape p{background-color:rgba(232,232,232, 0.8);padding:2px;}#my-svg .icon-shape rect,#my-svg .image-shape rect{opacity:0.5;background-color:rgba(232,232,232, 0.8);fill:rgba(232,232,232, 0.8);}#my-svg :root{--mermaid-font-family:"trebuchet ms",verdana,arial,sans-serif;}</style><g><marker orient="auto" markerHeight="8" markerWidth="8" markerUnits="userSpaceOnUse" refY="5" refX="5" viewBox="0 0 10 10" class="marker flowchart-v2" id="my-svg_flowchart-v2-pointEnd"><path style="stroke-width: 1; stroke-dasharray: 1, 0;" class="arrowMarkerPath" d="M 0 0 L 10 5 L 0 10 z"/></marker><marker orient="auto" markerHeight="8" markerWidth="8" markerUnits="userSpaceOnUse" refY="5" refX="4.5" viewBox="0 0 10 10" class="marker flowchart-v2" id="my-svg_flowchart-v2-pointStart"><path style="stroke-width: 1; stroke-dasharray: 1, 0;" class="arrowMarkerPath" d="M 0 5 L 10 10 L 10 0 z"/></marker><marker orient="auto" markerHeight="11" markerWidth="11" markerUnits="userSpaceOnUse" refY="5" refX="11" viewBox="0 0 10 10" class="marker flowchart-v2" id="my-svg_flowchart-v2-circleEnd"><circle style="stroke-width: 1; stroke-dasharray: 1, 0;" class="arrowMarkerPath" r="5" cy="5" cx="5"/></marker><marker orient="auto" markerHeight="11" markerWidth="11" markerUnits="userSpaceOnUse" refY="5" refX="-1" viewBox="0 0 10 10" class="marker flowchart-v2" id="my-svg_flowchart-v2-circleStart"><circle style="stroke-width: 1; stroke-dasharray: 1, 0;" class="arrowMarkerPath" r="5" cy="5" cx="5"/></marker><marker orient="auto" markerHeight="11" markerWidth="11" markerUnits="userSpaceOnUse" refY="5.2" refX="12" viewBox="0 0 11 11" class="marker cross flowchart-v2" id="my-svg_flowchart-v2-crossEnd"><path style="stroke-width: 2; stroke-dasharray: 1, 0;" class="arrowMarkerPath" d="M 1,1 l 9,9 M 10,1 l -9,9"/></marker><marker orient="auto" markerHeight="11" markerWidth="11" markerUnits="userSpaceOnUse" refY="5.2" refX="-1" viewBox="0 0 11 11" class="marker cross flowchart-v2" id="my-svg_flowchart-v2-crossStart"><path style="stroke-width: 2; stroke-dasharray: 1, 0;" class="arrowMarkerPath" d="M 1,1 l 9,9 M 10,1 l -9,9"/></marker><g class="root"><g class="clusters"/><g class="edgePaths"><path marker-end="url(#my-svg_flowchart-v2-pointEnd)" style="" class="edge-thickness-normal edge-pattern-solid edge-thickness-normal edge-pattern-solid flowchart-link" id="L_PRNG_Priv_0" d="M426.395,40.292L375.449,48.077C324.503,55.861,222.611,71.431,171.665,87.882C120.719,104.333,120.719,121.667,120.719,139C120.719,156.333,120.719,173.667,120.719,194.676C120.719,215.685,120.719,240.37,120.719,265.055C120.719,289.74,120.719,314.424,120.719,337.434C120.719,360.443,120.719,381.776,120.719,405.109C120.719,428.443,120.719,453.776,120.719,479.109C120.719,504.443,120.719,529.776,120.719,555.109C120.719,580.443,120.719,605.776,120.719,628.083C120.719,650.391,120.719,669.672,120.719,679.313L120.719,688.953"/><path marker-end="url(#my-svg_flowchart-v2-pointEnd)" style="" class="edge-thickness-normal edge-pattern-solid edge-thickness-normal edge-pattern-solid flowchart-link" id="L_PRNG_Pwd_1" d="M426.395,42.776L393.566,50.146C360.737,57.517,295.079,72.259,268.184,83.436C241.288,94.613,253.154,102.227,259.087,106.033L265.02,109.84"/><path marker-end="url(#my-svg_flowchart-v2-pointEnd)" style="" class="edge-thickness-normal edge-pattern-solid edge-thickness-normal edge-pattern-solid flowchart-link" id="L_PRNG_Salt_2" d="M426.395,43.511L396.899,50.759C367.404,58.007,308.413,72.504,273.35,84.198C238.287,95.892,227.151,104.784,221.584,109.23L216.016,113.676"/><path marker-end="url(#my-svg_flowchart-v2-pointEnd)" style="" class="edge-thickness-normal edge-pattern-dotted edge-thickness-normal edge-pattern-solid flowchart-link" id="L_User_Pwd_3" d="M971.145,62L965.777,66.167C960.408,70.333,949.671,78.667,848.152,90.789C746.633,102.911,554.333,118.822,458.183,126.778L362.033,134.733"/><path marker-end="url(#my-svg_flowchart-v2-pointEnd)" style="" class="edge-thickness-normal edge-pattern-solid edge-thickness-normal edge-pattern-solid flowchart-link" id="L_User_KdfParams_4" d="M1006.09,62L1006.114,66.167C1006.138,70.333,1006.186,78.667,1006.21,86.333C1006.234,94,1006.234,101,1006.234,104.5L1006.234,108"/><path marker-end="url(#my-svg_flowchart-v2-pointEnd)" style="" class="edge-thickness-normal edge-pattern-solid edge-thickness-normal edge-pattern-solid flowchart-link" id="L_PRNG_UUID_5" d="M495.66,40.699L542.555,48.416C589.451,56.133,683.241,71.566,730.136,87.95C777.031,104.333,777.031,121.667,777.031,139C777.031,156.333,777.031,173.667,777.031,194.676C777.031,215.685,777.031,240.37,777.031,265.055C777.031,289.74,777.031,314.424,777.031,337.434C777.031,360.443,777.031,381.776,777.031,405.109C777.031,428.443,777.031,453.776,777.031,479.109C777.031,504.443,777.031,529.776,777.031,555.109C777.031,580.443,777.031,605.776,777.031,633.25C777.031,660.724,777.031,690.339,777.031,717.953C777.031,745.568,777.031,771.182,777.031,798.358C777.031,825.534,777.031,854.271,777.031,883.008C777.031,911.745,777.031,940.482,777.031,968.368C777.031,996.255,777.031,1023.292,777.031,1054.328C777.031,1085.365,777.031,1120.401,777.031,1147.419C777.031,1174.438,777.031,1193.438,777.031,1202.938L777.031,1212.438"/><path marker-end="url(#my-svg_flowchart-v2-pointEnd)" style="" class="edge-thickness-normal edge-pattern-solid edge-thickness-normal edge-pattern-solid flowchart-link" id="L_Priv_ECC_6" d="M120.719,746.953L120.719,755.26C120.719,763.568,120.719,780.182,120.719,791.99C120.719,803.797,120.719,810.797,120.719,814.297L120.719,817.797"/><path marker-end="url(#my-svg_flowchart-v2-pointEnd)" style="" class="edge-thickness-normal edge-pattern-solid edge-thickness-normal edge-pattern-solid flowchart-link" id="L_ECC_Pub_7" d="M120.719,944.219L120.719,948.385C120.719,952.552,120.719,960.885,120.719,973.404C120.719,985.922,120.719,1002.625,120.719,1010.977L120.719,1019.328"/><path marker-end="url(#my-svg_flowchart-v2-pointEnd)" style="" class="edge-thickness-normal edge-pattern-solid edge-thickness-normal edge-pattern-solid flowchart-link" id="L_Pub_Addr_8" d="M120.719,1077.328L120.719,1090.346C120.719,1103.365,120.719,1129.401,120.719,1151.919C120.719,1174.438,120.719,1193.438,120.719,1202.938L120.719,1212.438"/><path marker-end="url(#my-svg_flowchart-v2-pointEnd)" style="" class="edge-thickness-normal edge-pattern-solid edge-thickness-normal edge-pattern-solid flowchart-link" id="L_Pwd_KDF_9" d="M310.469,166L310.469,170.167C310.469,174.333,310.469,182.667,318.865,193.618C327.261,204.569,344.052,218.139,352.448,224.924L360.844,231.708"/><path marker-end="url(#my-svg_flowchart-v2-pointEnd)" style="" class="edge-thickness-normal edge-pattern-solid edge-thickness-normal edge-pattern-solid flowchart-link" id="L_Salt_KDF_10" d="M184.305,166L184.305,170.167C184.305,174.333,184.305,182.667,212.234,196.329C240.163,209.992,296.021,228.984,323.95,238.48L351.879,247.976"/><path marker-end="url(#my-svg_flowchart-v2-pointEnd)" style="" class="edge-thickness-normal edge-pattern-solid edge-thickness-normal edge-pattern-solid flowchart-link" id="L_KdfParams_KDF_11" d="M976.482,166L971.891,170.167C967.299,174.333,958.116,182.667,871.15,197.989C784.184,213.312,619.434,235.623,537.059,246.779L454.684,257.935"/><path marker-end="url(#my-svg_flowchart-v2-pointEnd)" style="" class="edge-thickness-normal edge-pattern-solid edge-thickness-normal edge-pattern-solid flowchart-link" id="L_DkLen_KDF_12" d="M552.887,166L552.887,170.167C552.887,174.333,552.887,182.667,535.694,195.278C518.501,207.889,484.116,224.777,466.923,233.221L449.73,241.666"/><path marker-end="url(#my-svg_flowchart-v2-pointEnd)" style="" class="edge-thickness-normal edge-pattern-solid edge-thickness-normal edge-pattern-solid flowchart-link" id="L_UUID_UTCFile_13" d="M777.031,1270.438L777.031,1276.604C777.031,1282.771,777.031,1295.104,775.527,1304.824C774.022,1314.543,771.014,1321.649,769.509,1325.201L768.005,1328.754"/><path marker-end="url(#my-svg_flowchart-v2-pointEnd)" style="" class="edge-thickness-normal edge-pattern-solid edge-thickness-normal edge-pattern-solid flowchart-link" id="L_AES_IV_AES_14" d="M874.829,582.109L869.746,590.276C864.663,598.443,854.498,614.776,831.174,633.191C807.851,651.606,771.37,672.103,753.129,682.351L734.889,692.599"/><path marker-end="url(#my-svg_flowchart-v2-pointEnd)" style="" class="edge-thickness-normal edge-pattern-solid edge-thickness-normal edge-pattern-solid flowchart-link" id="L_PRNG_AES_IV_15" d="M495.66,39.182L561.656,47.152C627.651,55.122,759.642,71.061,825.637,87.697C891.633,104.333,891.633,121.667,891.633,139C891.633,156.333,891.633,173.667,891.633,194.676C891.633,215.685,891.633,240.37,891.633,265.055C891.633,289.74,891.633,314.424,891.633,337.434C891.633,360.443,891.633,381.776,891.633,405.109C891.633,428.443,891.633,453.776,891.633,473.943C891.633,494.109,891.633,509.109,891.633,516.609L891.633,524.109"/><path marker-end="url(#my-svg_flowchart-v2-pointEnd)" style="" class="edge-thickness-normal edge-pattern-solid edge-thickness-normal edge-pattern-solid flowchart-link" id="L_KDF_DerivedKey_16" d="M402.109,314.109L402.109,318.276C402.109,322.443,402.109,330.776,402.109,338.443C402.109,346.109,402.109,353.109,402.109,356.609L402.109,360.109"/><path marker-end="url(#my-svg_flowchart-v2-pointEnd)" style="" class="edge-thickness-normal edge-pattern-solid edge-thickness-normal edge-pattern-solid flowchart-link" id="L_DerivedKey_EncKey_17" d="M334.685,442.109L324.024,448.276C313.363,454.443,292.041,466.776,281.38,478.443C270.719,490.109,270.719,501.109,270.719,506.609L270.719,512.109"/><path marker-end="url(#my-svg_flowchart-v2-pointEnd)" style="" class="edge-thickness-normal edge-pattern-solid edge-thickness-normal edge-pattern-solid flowchart-link" id="L_DerivedKey_MacKey_18" d="M434.575,442.109L439.708,448.276C444.841,454.443,455.108,466.776,460.242,485.609C465.375,504.443,465.375,529.776,465.375,555.109C465.375,580.443,465.375,605.776,465.375,633.25C465.375,660.724,465.375,690.339,465.375,717.953C465.375,745.568,465.375,771.182,465.375,791.191C465.375,811.201,465.375,825.604,465.375,832.806L465.375,840.008"/><path marker-end="url(#my-svg_flowchart-v2-pointEnd)" style="" class="edge-thickness-normal edge-pattern-solid edge-thickness-normal edge-pattern-solid flowchart-link" id="L_EncKey_AES_19" d="M270.719,594.109L270.719,600.276C270.719,606.443,270.719,618.776,330.865,637.804C391.01,656.832,511.302,682.554,571.448,695.415L631.594,708.276"/><path marker-end="url(#my-svg_flowchart-v2-pointEnd)" style="" class="edge-thickness-normal edge-pattern-solid edge-thickness-normal edge-pattern-solid flowchart-link" id="L_AES_CipherText_20" d="M686.203,771.797L686.203,775.964C686.203,780.13,686.203,788.464,686.203,801.832C686.203,815.201,686.203,833.604,686.203,842.806L686.203,852.008"/><path marker-end="url(#my-svg_flowchart-v2-pointEnd)" style="" class="edge-thickness-normal edge-pattern-solid edge-thickness-normal edge-pattern-solid flowchart-link" id="L_CipherText_MacFunc_21" d="M654.755,910.008L643.261,919.876C631.766,929.745,608.778,949.482,587.241,966.866C565.704,984.25,545.62,999.281,535.577,1006.797L525.535,1014.312"/><path marker-end="url(#my-svg_flowchart-v2-pointEnd)" style="" class="edge-thickness-normal edge-pattern-solid edge-thickness-normal edge-pattern-solid flowchart-link" id="L_MacKey_MacFunc_22" d="M465.375,922.008L465.375,929.876C465.375,937.745,465.375,953.482,465.91,964.959C466.446,976.436,467.517,983.653,468.052,987.261L468.588,990.87"/><path marker-end="url(#my-svg_flowchart-v2-pointEnd)" style="" class="edge-thickness-normal edge-pattern-solid edge-thickness-normal edge-pattern-solid flowchart-link" id="L_MacFunc_MAC_23" d="M477.41,1106.438L477.41,1114.604C477.41,1122.771,477.41,1139.104,477.41,1154.771C477.41,1170.438,477.41,1185.438,477.41,1192.938L477.41,1200.438"/><path marker-end="url(#my-svg_flowchart-v2-pointEnd)" style="" class="edge-thickness-normal edge-pattern-solid edge-thickness-normal edge-pattern-solid flowchart-link" id="L_CipherText_UTCFile_24" d="M689.855,910.008L691.19,919.876C692.524,929.745,695.194,949.482,696.529,972.868C697.863,996.255,697.863,1023.292,697.863,1054.328C697.863,1085.365,697.863,1120.401,697.863,1152.586C697.863,1184.771,697.863,1214.104,697.863,1239.438C697.863,1264.771,697.863,1286.104,701.949,1300.489C706.036,1314.873,714.208,1322.309,718.294,1326.027L722.38,1329.745"/><path marker-end="url(#my-svg_flowchart-v2-pointEnd)" style="" class="edge-thickness-normal edge-pattern-solid edge-thickness-normal edge-pattern-solid flowchart-link" id="L_MAC_UTCFile_25" d="M477.41,1282.438L477.41,1286.604C477.41,1290.771,477.41,1299.104,512.056,1309.761C546.701,1320.417,615.992,1333.397,650.638,1339.886L685.283,1346.376"/><path marker-end="url(#my-svg_flowchart-v2-pointEnd)" style="" class="edge-thickness-normal edge-pattern-solid edge-thickness-normal edge-pattern-solid flowchart-link" id="L_Addr_UTCFile_26" d="M120.719,1270.438L120.719,1276.604C120.719,1282.771,120.719,1295.104,214.804,1308.984C308.889,1322.864,497.058,1338.29,591.143,1346.003L685.228,1353.717"/><path marker-end="url(#my-svg_flowchart-v2-pointEnd)" style="" class="edge-thickness-normal edge-pattern-solid edge-thickness-normal edge-pattern-solid flowchart-link" id="L_AES_IV_UTCFile_27" d="M908.437,582.109L913.52,590.276C918.603,598.443,928.768,614.776,933.851,637.75C938.934,660.724,938.934,690.339,938.934,717.953C938.934,745.568,938.934,771.182,938.934,798.358C938.934,825.534,938.934,854.271,938.934,883.008C938.934,911.745,938.934,940.482,938.934,968.368C938.934,996.255,938.934,1023.292,938.934,1054.328C938.934,1085.365,938.934,1120.401,938.934,1152.586C938.934,1184.771,938.934,1214.104,938.934,1239.438C938.934,1264.771,938.934,1286.104,919.888,1302.156C900.842,1318.207,862.75,1328.977,843.704,1334.362L824.658,1339.747"/><path marker-end="url(#my-svg_flowchart-v2-pointEnd)" style="" class="edge-thickness-normal edge-pattern-solid edge-thickness-normal edge-pattern-solid flowchart-link" id="L_KdfParams_UTCFile_28" d="M1006.234,166L1006.234,170.167C1006.234,174.333,1006.234,182.667,1006.234,199.176C1006.234,215.685,1006.234,240.37,1006.234,265.055C1006.234,289.74,1006.234,314.424,1006.234,337.434C1006.234,360.443,1006.234,381.776,1006.234,405.109C1006.234,428.443,1006.234,453.776,1006.234,479.109C1006.234,504.443,1006.234,529.776,1006.234,555.109C1006.234,580.443,1006.234,605.776,1006.234,633.25C1006.234,660.724,1006.234,690.339,1006.234,717.953C1006.234,745.568,1006.234,771.182,1006.234,798.358C1006.234,825.534,1006.234,854.271,1006.234,883.008C1006.234,911.745,1006.234,940.482,1006.234,968.368C1006.234,996.255,1006.234,1023.292,1006.234,1054.328C1006.234,1085.365,1006.234,1120.401,1006.234,1152.586C1006.234,1184.771,1006.234,1214.104,1006.234,1239.438C1006.234,1264.771,1006.234,1286.104,975.983,1303.033C945.731,1319.961,885.229,1332.484,854.977,1338.746L824.726,1345.008"/></g><g class="edgeLabels"><g class="edgeLabel"><g transform="translate(0, 0)" class="label"><foreignObject height="0" width="0"><div style="display: table-cell; white-space: nowrap; line-height: 1.5; max-width: 200px; text-align: center;" class="labelBkg" xmlns="http://www.w3.org/1999/xhtml"><span class="edgeLabel"></span></div></foreignObject></g></g><g class="edgeLabel"><g transform="translate(0, 0)" class="label"><foreignObject height="0" width="0"><div style="display: table-cell; white-space: nowrap; line-height: 1.5; max-width: 200px; text-align: center;" class="labelBkg" xmlns="http://www.w3.org/1999/xhtml"><span class="edgeLabel"></span></div></foreignObject></g></g><g class="edgeLabel"><g transform="translate(0, 0)" class="label"><foreignObject height="0" width="0"><div style="display: table-cell; white-space: nowrap; line-height: 1.5; max-width: 200px; text-align: center;" class="labelBkg" xmlns="http://www.w3.org/1999/xhtml"><span class="edgeLabel"></span></div></foreignObject></g></g><g class="edgeLabel"><g transform="translate(0, 0)" class="label"><foreignObject height="0" width="0"><div style="display: table-cell; white-space: nowrap; line-height: 1.5; max-width: 200px; text-align: center;" class="labelBkg" xmlns="http://www.w3.org/1999/xhtml"><span class="edgeLabel"></span></div></foreignObject></g></g><g class="edgeLabel"><g transform="translate(0, 0)" class="label"><foreignObject height="0" width="0"><div style="display: table-cell; white-space: nowrap; line-height: 1.5; max-width: 200px; text-align: center;" class="labelBkg" xmlns="http://www.w3.org/1999/xhtml"><span class="edgeLabel"></span></div></foreignObject></g></g><g class="edgeLabel"><g transform="translate(0, 0)" class="label"><foreignObject height="0" width="0"><div style="display: table-cell; white-space: nowrap; line-height: 1.5; max-width: 200px; text-align: center;" class="labelBkg" xmlns="http://www.w3.org/1999/xhtml"><span class="edgeLabel"></span></div></foreignObject></g></g><g class="edgeLabel"><g transform="translate(0, 0)" class="label"><foreignObject height="0" width="0"><div style="display: table-cell; white-space: nowrap; line-height: 1.5; max-width: 200px; text-align: center;" class="labelBkg" xmlns="http://www.w3.org/1999/xhtml"><span class="edgeLabel"></span></div></foreignObject></g></g><g class="edgeLabel"><g transform="translate(0, 0)" class="label"><foreignObject height="0" width="0"><div style="display: table-cell; white-space: nowrap; line-height: 1.5; max-width: 200px; text-align: center;" class="labelBkg" xmlns="http://www.w3.org/1999/xhtml"><span class="edgeLabel"></span></div></foreignObject></g></g><g transform="translate(120.71875, 1155.4375)" class="edgeLabel"><g transform="translate(-100, -24)" class="label"><foreignObject height="48" width="200"><div style="display: table; white-space: break-spaces; line-height: 1.5; max-width: 200px; text-align: center; width: 200px;" class="labelBkg" xmlns="http://www.w3.org/1999/xhtml"><span class="edgeLabel"><p>Remove the first 24 hexa chars</p></span></div></foreignObject></g></g><g class="edgeLabel"><g transform="translate(0, 0)" class="label"><foreignObject height="0" width="0"><div style="display: table-cell; white-space: nowrap; line-height: 1.5; max-width: 200px; text-align: center;" class="labelBkg" xmlns="http://www.w3.org/1999/xhtml"><span class="edgeLabel"></span></div></foreignObject></g></g><g class="edgeLabel"><g transform="translate(0, 0)" class="label"><foreignObject height="0" width="0"><div style="display: table-cell; white-space: nowrap; line-height: 1.5; max-width: 200px; text-align: center;" class="labelBkg" xmlns="http://www.w3.org/1999/xhtml"><span class="edgeLabel"></span></div></foreignObject></g></g><g class="edgeLabel"><g transform="translate(0, 0)" class="label"><foreignObject height="0" width="0"><div style="display: table-cell; white-space: nowrap; line-height: 1.5; max-width: 200px; text-align: center;" class="labelBkg" xmlns="http://www.w3.org/1999/xhtml"><span class="edgeLabel"></span></div></foreignObject></g></g><g class="edgeLabel"><g transform="translate(0, 0)" class="label"><foreignObject height="0" width="0"><div style="display: table-cell; white-space: nowrap; line-height: 1.5; max-width: 200px; text-align: center;" class="labelBkg" xmlns="http://www.w3.org/1999/xhtml"><span class="edgeLabel"></span></div></foreignObject></g></g><g class="edgeLabel"><g transform="translate(0, 0)" class="label"><foreignObject height="0" width="0"><div style="display: table-cell; white-space: nowrap; line-height: 1.5; max-width: 200px; text-align: center;" class="labelBkg" xmlns="http://www.w3.org/1999/xhtml"><span class="edgeLabel"></span></div></foreignObject></g></g><g class="edgeLabel"><g transform="translate(0, 0)" class="label"><foreignObject height="0" width="0"><div style="display: table-cell; white-space: nowrap; line-height: 1.5; max-width: 200px; text-align: center;" class="labelBkg" xmlns="http://www.w3.org/1999/xhtml"><span class="edgeLabel"></span></div></foreignObject></g></g><g class="edgeLabel"><g transform="translate(0, 0)" class="label"><foreignObject height="0" width="0"><div style="display: table-cell; white-space: nowrap; line-height: 1.5; max-width: 200px; text-align: center;" class="labelBkg" xmlns="http://www.w3.org/1999/xhtml"><span class="edgeLabel"></span></div></foreignObject></g></g><g class="edgeLabel"><g transform="translate(0, 0)" class="label"><foreignObject height="0" width="0"><div style="display: table-cell; white-space: nowrap; line-height: 1.5; max-width: 200px; text-align: center;" class="labelBkg" xmlns="http://www.w3.org/1999/xhtml"><span class="edgeLabel"></span></div></foreignObject></g></g><g transform="translate(270.71875, 479.109375)" class="edgeLabel"><g transform="translate(-46.5546875, -12)" class="label"><foreignObject height="24" width="93.109375"><div style="display: table-cell; white-space: nowrap; line-height: 1.5; max-width: 200px; text-align: center;" class="labelBkg" xmlns="http://www.w3.org/1999/xhtml"><span class="edgeLabel"><p>First 128 bits</p></span></div></foreignObject></g></g><g transform="translate(465.375, 631.109375)" class="edgeLabel"><g transform="translate(-45.21875, -12)" class="label"><foreignObject height="24" width="90.4375"><div style="display: table-cell; white-space: nowrap; line-height: 1.5; max-width: 200px; text-align: center;" class="labelBkg" xmlns="http://www.w3.org/1999/xhtml"><span class="edgeLabel"><p>Last 128 bits</p></span></div></foreignObject></g></g><g class="edgeLabel"><g transform="translate(0, 0)" class="label"><foreignObject height="0" width="0"><div style="display: table-cell; white-space: nowrap; line-height: 1.5; max-width: 200px; text-align: center;" class="labelBkg" xmlns="http://www.w3.org/1999/xhtml"><span class="edgeLabel"></span></div></foreignObject></g></g><g class="edgeLabel"><g transform="translate(0, 0)" class="label"><foreignObject height="0" width="0"><div style="display: table-cell; white-space: nowrap; line-height: 1.5; max-width: 200px; text-align: center;" class="labelBkg" xmlns="http://www.w3.org/1999/xhtml"><span class="edgeLabel"></span></div></foreignObject></g></g><g class="edgeLabel"><g transform="translate(0, 0)" class="label"><foreignObject height="0" width="0"><div style="display: table-cell; white-space: nowrap; line-height: 1.5; max-width: 200px; text-align: center;" class="labelBkg" xmlns="http://www.w3.org/1999/xhtml"><span class="edgeLabel"></span></div></foreignObject></g></g><g class="edgeLabel"><g transform="translate(0, 0)" class="label"><foreignObject height="0" width="0"><div style="display: table-cell; white-space: nowrap; line-height: 1.5; max-width: 200px; text-align: center;" class="labelBkg" xmlns="http://www.w3.org/1999/xhtml"><span class="edgeLabel"></span></div></foreignObject></g></g><g class="edgeLabel"><g transform="translate(0, 0)" class="label"><foreignObject height="0" width="0"><div style="display: table-cell; white-space: nowrap; line-height: 1.5; max-width: 200px; text-align: center;" class="labelBkg" xmlns="http://www.w3.org/1999/xhtml"><span class="edgeLabel"></span></div></foreignObject></g></g><g class="edgeLabel"><g transform="translate(0, 0)" class="label"><foreignObject height="0" width="0"><div style="display: table-cell; white-space: nowrap; line-height: 1.5; max-width: 200px; text-align: center;" class="labelBkg" xmlns="http://www.w3.org/1999/xhtml"><span class="edgeLabel"></span></div></foreignObject></g></g><g class="edgeLabel"><g transform="translate(0, 0)" class="label"><foreignObject height="0" width="0"><div style="display: table-cell; white-space: nowrap; line-height: 1.5; max-width: 200px; text-align: center;" class="labelBkg" xmlns="http://www.w3.org/1999/xhtml"><span class="edgeLabel"></span></div></foreignObject></g></g><g class="edgeLabel"><g transform="translate(0, 0)" class="label"><foreignObject height="0" width="0"><div style="display: table-cell; white-space: nowrap; line-height: 1.5; max-width: 200px; text-align: center;" class="labelBkg" xmlns="http://www.w3.org/1999/xhtml"><span class="edgeLabel"></span></div></foreignObject></g></g><g class="edgeLabel"><g transform="translate(0, 0)" class="label"><foreignObject height="0" width="0"><div style="display: table-cell; white-space: nowrap; line-height: 1.5; max-width: 200px; text-align: center;" class="labelBkg" xmlns="http://www.w3.org/1999/xhtml"><span class="edgeLabel"></span></div></foreignObject></g></g><g class="edgeLabel"><g transform="translate(0, 0)" class="label"><foreignObject height="0" width="0"><div style="display: table-cell; white-space: nowrap; line-height: 1.5; max-width: 200px; text-align: center;" class="labelBkg" xmlns="http://www.w3.org/1999/xhtml"><span class="edgeLabel"></span></div></foreignObject></g></g></g><g class="nodes"><g transform="translate(461.02734375, 35)" id="flowchart-PRNG-0" class="node default"><rect height="54" width="69.265625" y="-27" x="-34.6328125" ry="5" rx="5" style="" class="basic label-container"/><g transform="translate(-19.6328125, -12)" style="" class="label"><rect/><foreignObject height="24" width="39.265625"><div style="display: table-cell; white-space: nowrap; line-height: 1.5; max-width: 200px; text-align: center;" xmlns="http://www.w3.org/1999/xhtml"><span class="nodeLabel"><p>PRNG</p></span></div></foreignObject></g></g><g transform="translate(1005.93359375, 35)" id="flowchart-User-1" class="node default"><rect height="54" width="91.796875" y="-27" x="-45.8984375" style="" class="basic label-container"/><g transform="translate(-15.8984375, -12)" style="" class="label"><rect/><foreignObject height="24" width="31.796875"><div style="display: table-cell; white-space: nowrap; line-height: 1.5; max-width: 200px; text-align: center;" xmlns="http://www.w3.org/1999/xhtml"><span class="nodeLabel"><p>User</p></span></div></foreignObject></g></g><g transform="translate(120.71875, 719.953125)" id="flowchart-Priv-2" class="node default"><rect height="54" width="177.40625" y="-27" x="-88.703125" ry="5" rx="5" style="" class="basic label-container"/><g transform="translate(-73.703125, -12)" style="" class="label"><rect/><foreignObject height="24" width="147.40625"><div style="display: table-cell; white-space: nowrap; line-height: 1.5; max-width: 200px; text-align: center;" xmlns="http://www.w3.org/1999/xhtml"><span class="nodeLabel"><p>Private Key: 256 bits</p></span></div></foreignObject></g></g><g transform="translate(120.71875, 1050.328125)" id="flowchart-Pub-3" class="node default"><rect height="54" width="170.921875" y="-27" x="-85.4609375" ry="5" rx="5" style="" class="basic label-container"/><g transform="translate(-70.4609375, -12)" style="" class="label"><rect/><foreignObject height="24" width="140.921875"><div style="display: table-cell; white-space: nowrap; line-height: 1.5; max-width: 200px; text-align: center;" xmlns="http://www.w3.org/1999/xhtml"><span class="nodeLabel"><p>Public Key: 256 bits</p></span></div></foreignObject></g></g><g transform="translate(120.71875, 1243.4375)" id="flowchart-Addr-4" class="node default"><rect height="54" width="225.4375" y="-27" x="-112.71875" ry="5" rx="5" style="" class="basic label-container"/><g transform="translate(-97.71875, -12)" style="" class="label"><rect/><foreignObject height="24" width="195.4375"><div style="display: table-cell; white-space: nowrap; line-height: 1.5; max-width: 200px; text-align: center;" xmlns="http://www.w3.org/1999/xhtml"><span class="nodeLabel"><p>Ethereum Address: 160 bits</p></span></div></foreignObject></g></g><g transform="translate(120.71875, 883.0078125)" id="flowchart-ECC-5" class="node default"><circle cy="0" cx="0" r="61.2109375" style="" class="basic label-container"/><g transform="translate(-53.7109375, -12)" style="" class="label"><rect/><foreignObject height="24" width="107.421875"><div style="display: table-cell; white-space: nowrap; line-height: 1.5; max-width: 200px; text-align: center;" xmlns="http://www.w3.org/1999/xhtml"><span class="nodeLabel"><p>ECC Secp256k1</p></span></div></foreignObject></g></g><g transform="translate(402.109375, 265.0546875)" id="flowchart-KDF-6" class="node default"><circle cy="0" cx="0" r="49.0546875" style="" class="basic label-container"/><g transform="translate(-41.5546875, -12)" style="" class="label"><rect/><foreignObject height="24" width="83.109375"><div style="display: table-cell; white-space: nowrap; line-height: 1.5; max-width: 200px; text-align: center;" xmlns="http://www.w3.org/1999/xhtml"><span class="nodeLabel"><p>KDF: Scrypt</p></span></div></foreignObject></g></g><g transform="translate(310.46875, 139)" id="flowchart-Pwd-7" class="node default"><rect height="54" width="95.15625" y="-27" x="-47.578125" ry="5" rx="5" style="" class="basic label-container"/><g transform="translate(-32.578125, -12)" style="" class="label"><rect/><foreignObject height="24" width="65.15625"><div style="display: table-cell; white-space: nowrap; line-height: 1.5; max-width: 200px; text-align: center;" xmlns="http://www.w3.org/1999/xhtml"><span class="nodeLabel"><p>Password</p></span></div></foreignObject></g></g><g transform="translate(184.3046875, 139)" id="flowchart-Salt-8" class="node default"><rect height="54" width="57.171875" y="-27" x="-28.5859375" ry="5" rx="5" style="" class="basic label-container"/><g transform="translate(-13.5859375, -12)" style="" class="label"><rect/><foreignObject height="24" width="27.171875"><div style="display: table-cell; white-space: nowrap; line-height: 1.5; max-width: 200px; text-align: center;" xmlns="http://www.w3.org/1999/xhtml"><span class="nodeLabel"><p>Salt</p></span></div></foreignObject></g></g><g transform="translate(1006.234375, 139)" id="flowchart-KdfParams-9" class="node default"><rect height="54" width="113.203125" y="-27" x="-56.6015625" ry="5" rx="5" style="" class="basic label-container"/><g transform="translate(-41.6015625, -12)" style="" class="label"><rect/><foreignObject height="24" width="83.203125"><div style="display: table-cell; white-space: nowrap; line-height: 1.5; max-width: 200px; text-align: center;" xmlns="http://www.w3.org/1999/xhtml"><span class="nodeLabel"><p>KDF Params</p></span></div></foreignObject></g></g><g transform="translate(777.03125, 1243.4375)" id="flowchart-UUID-10" class="node default"><rect height="54" width="65.015625" y="-27" x="-32.5078125" ry="5" rx="5" style="" class="basic label-container"/><g transform="translate(-17.5078125, -12)" style="" class="label"><rect/><foreignObject height="24" width="35.015625"><div style="display: table-cell; white-space: nowrap; line-height: 1.5; max-width: 200px; text-align: center;" xmlns="http://www.w3.org/1999/xhtml"><span class="nodeLabel"><p>UUID</p></span></div></foreignObject></g></g><g transform="translate(552.88671875, 139)" id="flowchart-DkLen-11" class="node default"><rect height="54" width="203.265625" y="-27" x="-101.6328125" ry="5" rx="5" style="" class="basic label-container"/><g transform="translate(-86.6328125, -12)" style="" class="label"><rect/><foreignObject height="24" width="173.265625"><div style="display: table-cell; white-space: nowrap; line-height: 1.5; max-width: 200px; text-align: center;" xmlns="http://www.w3.org/1999/xhtml"><span class="nodeLabel"><p>Derived Key Length = 32</p></span></div></foreignObject></g></g><g transform="translate(755.01171875, 1359.4375)" id="flowchart-UTCFile-12" class="node default"><rect height="54" width="131.59375" y="-27" x="-65.796875" ry="5" rx="5" style="" class="basic label-container"/><g transform="translate(-50.796875, -12)" style="" class="label"><rect/><foreignObject height="24" width="101.59375"><div style="display: table-cell; white-space: nowrap; line-height: 1.5; max-width: 200px; text-align: center;" xmlns="http://www.w3.org/1999/xhtml"><span class="nodeLabel"><p>UTC JSON File</p></span></div></foreignObject></g></g><g transform="translate(686.203125, 719.953125)" id="flowchart-AES-13" class="node default"><circle cy="0" cx="0" r="51.84375" style="" class="basic label-container"/><g transform="translate(-44.34375, -12)" style="" class="label"><rect/><foreignObject height="24" width="88.6875"><div style="display: table-cell; white-space: nowrap; line-height: 1.5; max-width: 200px; text-align: center;" xmlns="http://www.w3.org/1999/xhtml"><span class="nodeLabel"><p>AES 128 CTR</p></span></div></foreignObject></g></g><g transform="translate(891.6328125, 555.109375)" id="flowchart-AES_IV-14" class="node default"><rect height="54" width="159.203125" y="-27" x="-79.6015625" ry="5" rx="5" style="" class="basic label-container"/><g transform="translate(-64.6015625, -12)" style="" class="label"><rect/><foreignObject height="24" width="129.203125"><div style="display: table-cell; white-space: nowrap; line-height: 1.5; max-width: 200px; text-align: center;" xmlns="http://www.w3.org/1999/xhtml"><span class="nodeLabel"><p>AES IV: Init Vector</p></span></div></foreignObject></g></g><g transform="translate(477.41015625, 1243.4375)" id="flowchart-MAC-15" class="node default"><rect height="78" width="230" y="-39" x="-115" ry="5" rx="5" style="" class="basic label-container"/><g transform="translate(-100, -24)" style="" class="label"><rect/><foreignObject height="48" width="200"><div style="display: table; white-space: break-spaces; line-height: 1.5; max-width: 200px; text-align: center; width: 200px;" xmlns="http://www.w3.org/1999/xhtml"><span class="nodeLabel"><p>MAC: Message Authentication Code</p></span></div></foreignObject></g></g><g transform="translate(402.109375, 403.109375)" id="flowchart-DerivedKey-16" class="node default"><rect height="78" width="230" y="-39" x="-115" ry="5" rx="5" style="" class="basic label-container"/><g transform="translate(-100, -24)" style="" class="label"><rect/><foreignObject height="48" width="200"><div style="display: table; white-space: break-spaces; line-height: 1.5; max-width: 200px; text-align: center; width: 200px;" xmlns="http://www.w3.org/1999/xhtml"><span class="nodeLabel"><p>Derived Key: 32 bytes = 256 bits</p></span></div></foreignObject></g></g><g transform="translate(270.71875, 555.109375)" id="flowchart-EncKey-17" class="node default"><rect height="78" width="230" y="-39" x="-115" ry="5" rx="5" style="" class="basic label-container"/><g transform="translate(-100, -24)" style="" class="label"><rect/><foreignObject height="48" width="200"><div style="display: table; white-space: break-spaces; line-height: 1.5; max-width: 200px; text-align: center; width: 200px;" xmlns="http://www.w3.org/1999/xhtml"><span class="nodeLabel"><p>Encryption Key: 16 bytes = 128 bits</p></span></div></foreignObject></g></g><g transform="translate(465.375, 883.0078125)" id="flowchart-MacKey-18" class="node default"><rect height="78" width="230" y="-39" x="-115" ry="5" rx="5" style="" class="basic label-container"/><g transform="translate(-100, -24)" style="" class="label"><rect/><foreignObject height="48" width="200"><div style="display: table; white-space: break-spaces; line-height: 1.5; max-width: 200px; text-align: center; width: 200px;" xmlns="http://www.w3.org/1999/xhtml"><span class="nodeLabel"><p>MAC Key: 16 bytes = 128 bits</p></span></div></foreignObject></g></g><g transform="translate(686.203125, 883.0078125)" id="flowchart-CipherText-19" class="node default"><rect height="54" width="111.65625" y="-27" x="-55.828125" ry="5" rx="5" style="" class="basic label-container"/><g transform="translate(-40.828125, -12)" style="" class="label"><rect/><foreignObject height="24" width="81.65625"><div style="display: table-cell; white-space: nowrap; line-height: 1.5; max-width: 200px; text-align: center;" xmlns="http://www.w3.org/1999/xhtml"><span class="nodeLabel"><p>Cipher Text</p></span></div></foreignObject></g></g><g transform="translate(477.41015625, 1050.328125)" id="flowchart-MacFunc-20" class="node default"><circle cy="0" cx="0" r="56.109375" style="" class="basic label-container"/><g transform="translate(-48.609375, -12)" style="" class="label"><rect/><foreignObject height="24" width="97.21875"><div style="display: table-cell; white-space: nowrap; line-height: 1.5; max-width: 200px; text-align: center;" xmlns="http://www.w3.org/1999/xhtml"><span class="nodeLabel"><p>MAC Function</p></span></div></foreignObject></g></g></g></g></g></svg>