<svg aria-roledescription="er" role="graphics-document document" viewBox="0 0 1015.53125 722.734375" style="max-width: 1015.53px; background-color: white;" xmlns:xlink="http://www.w3.org/1999/xlink" xmlns="http://www.w3.org/2000/svg" width="100%" id="my-svg"><style>#my-svg{font-family:"trebuchet ms",verdana,arial,sans-serif;font-size:16px;fill:#333;}#my-svg .error-icon{fill:#552222;}#my-svg .error-text{fill:#552222;stroke:#552222;}#my-svg .edge-thickness-normal{stroke-width:1px;}#my-svg .edge-thickness-thick{stroke-width:3.5px;}#my-svg .edge-pattern-solid{stroke-dasharray:0;}#my-svg .edge-thickness-invisible{stroke-width:0;fill:none;}#my-svg .edge-pattern-dashed{stroke-dasharray:3;}#my-svg .edge-pattern-dotted{stroke-dasharray:2;}#my-svg .marker{fill:#333333;stroke:#333333;}#my-svg .marker.cross{stroke:#333333;}#my-svg svg{font-family:"trebuchet ms",verdana,arial,sans-serif;font-size:16px;}#my-svg p{margin:0;}#my-svg .entityBox{fill:#ECECFF;stroke:#9370DB;}#my-svg .attributeBoxOdd{fill:#ffffff;stroke:#9370DB;}#my-svg .attributeBoxEven{fill:#f2f2f2;stroke:#9370DB;}#my-svg .relationshipLabelBox{fill:hsl(80, 100%, 96.2745098039%);opacity:0.7;background-color:hsl(80, 100%, 96.2745098039%);}#my-svg .relationshipLabelBox rect{opacity:0.5;}#my-svg .relationshipLine{stroke:#333333;}#my-svg .entityTitleText{text-anchor:middle;font-size:18px;fill:#333;}#my-svg #MD_PARENT_START{fill:#f5f5f5!important;stroke:#333333!important;stroke-width:1;}#my-svg #MD_PARENT_END{fill:#f5f5f5!important;stroke:#333333!important;stroke-width:1;}#my-svg :root{--mermaid-font-family:"trebuchet ms",verdana,arial,sans-serif;}</style><g/><defs><marker orient="auto" markerHeight="240" markerWidth="190" refY="7" refX="0" id="MD_PARENT_START"><path d="M 18,7 L9,13 L1,7 L9,1 Z"/></marker></defs><defs><marker orient="auto" markerHeight="28" markerWidth="20" refY="7" refX="19" id="MD_PARENT_END"><path d="M 18,7 L9,13 L1,7 L9,1 Z"/></marker></defs><defs><marker orient="auto" markerHeight="18" markerWidth="18" refY="9" refX="0" id="ONLY_ONE_START"><path d="M9,0 L9,18 M15,0 L15,18" fill="none" stroke="gray"/></marker></defs><defs><marker orient="auto" markerHeight="18" markerWidth="18" refY="9" refX="18" id="ONLY_ONE_END"><path d="M3,0 L3,18 M9,0 L9,18" fill="none" stroke="gray"/></marker></defs><defs><marker orient="auto" markerHeight="18" markerWidth="30" refY="9" refX="0" id="ZERO_OR_ONE_START"><circle r="6" cy="9" cx="21" fill="white" stroke="gray"/><path d="M9,0 L9,18" fill="none" stroke="gray"/></marker></defs><defs><marker orient="auto" markerHeight="18" markerWidth="30" refY="9" refX="30" id="ZERO_OR_ONE_END"><circle r="6" cy="9" cx="9" fill="white" stroke="gray"/><path d="M21,0 L21,18" fill="none" stroke="gray"/></marker></defs><defs><marker orient="auto" markerHeight="36" markerWidth="45" refY="18" refX="18" id="ONE_OR_MORE_START"><path d="M0,18 Q 18,0 36,18 Q 18,36 0,18 M42,9 L42,27" fill="none" stroke="gray"/></marker></defs><defs><marker orient="auto" markerHeight="36" markerWidth="45" refY="18" refX="27" id="ONE_OR_MORE_END"><path d="M3,9 L3,27 M9,18 Q27,0 45,18 Q27,36 9,18" fill="none" stroke="gray"/></marker></defs><defs><marker orient="auto" markerHeight="36" markerWidth="57" refY="18" refX="18" id="ZERO_OR_MORE_START"><circle r="6" cy="18" cx="48" fill="white" stroke="gray"/><path d="M0,18 Q18,0 36,18 Q18,36 0,18" fill="none" stroke="gray"/></marker></defs><defs><marker orient="auto" markerHeight="36" markerWidth="57" refY="18" refX="39" id="ZERO_OR_MORE_END"><circle r="6" cy="18" cx="9" fill="white" stroke="gray"/><path d="M21,18 Q39,0 57,18 Q39,36 21,18" fill="none" stroke="gray"/></marker></defs><path style="stroke: gray; fill: none;" marker-start="url(#ONLY_ONE_START)" marker-end="url(#ZERO_OR_MORE_END)" d="M86.133,110.275L86.133,118.609C86.133,126.942,86.133,143.609,86.133,160.275C86.133,176.942,86.133,193.609,86.133,201.942L86.133,210.275" class="er relationshipLine"/><path style="stroke: gray; fill: none;" marker-start="url(#ONLY_ONE_START)" marker-end="url(#ZERO_OR_MORE_END)" d="M86.133,322.459L86.133,330.792C86.133,339.126,86.133,355.792,146.055,377.741C205.977,399.691,325.82,426.922,385.742,440.538L445.664,454.154" class="er relationshipLine"/><path style="stroke: gray; fill: none;" marker-start="url(#ONLY_ONE_START)" marker-end="url(#ZERO_OR_MORE_END)" d="M504.422,512.551L504.422,520.884C504.422,529.217,504.422,545.884,504.422,562.551C504.422,579.217,504.422,595.884,504.422,604.217L504.422,612.551" class="er relationshipLine"/><path style="stroke: gray; fill: none;" marker-start="url(#ONLY_ONE_START)" marker-end="url(#ZERO_OR_MORE_END)" d="M294.93,311.459L294.93,321.626C294.93,331.792,294.93,352.126,320.052,373.69C345.174,395.255,395.419,418.051,420.542,429.449L445.664,440.847" class="er relationshipLine"/><path style="stroke: gray; fill: none;" marker-start="url(#ONLY_ONE_START)" marker-end="url(#ZERO_OR_MORE_END)" d="M504.422,311.413L504.422,321.587C504.422,331.762,504.422,352.11,504.422,370.618C504.422,389.126,504.422,405.792,504.422,414.126L504.422,422.459" class="er relationshipLine"/><path style="stroke: gray; fill: none;" marker-start="url(#ONLY_ONE_START)" marker-end="url(#ONE_OR_MORE_END)" d="M720.789,311.505L720.789,321.664C720.789,331.823,720.789,352.141,694.521,373.839C668.253,395.537,615.716,418.615,589.448,430.155L563.18,441.694" class="er relationshipLine"/><path style="stroke: gray; fill: none;" marker-start="url(#ONLY_ONE_START)" marker-end="url(#ZERO_OR_MORE_END)" d="M938.477,311.459L938.477,321.626C938.477,331.792,938.477,352.126,875.927,375.989C813.378,399.852,688.279,427.245,625.729,440.942L563.18,454.639" class="er relationshipLine"/><g transform="translate(20,20 )" id="entity-POLICYHOLDER-c37890fa-1dd5-54e4-ac35-1bac6e197561"><rect height="90.27539253234863" width="132.265625" y="0" x="0" class="er entityBox"/><text style="dominant-baseline: middle; text-anchor: middle; font-size: 12px;" transform="translate(66.1328125,12)" y="0" x="0" id="text-entity-POLICYHOLDER-c37890fa-1dd5-54e4-ac35-1bac6e197561" class="er entityLabel">POLICYHOLDER</text><rect height="22.091796875" width="35.75" y="24" x="0" class="er attributeBoxOdd"/><text style="dominant-baseline: middle; font-size: 10.2px;" transform="translate(5,35.0458984375)" y="0" x="0" id="text-entity-POLICYHOLDER-c37890fa-1dd5-54e4-ac35-1bac6e197561-attr-1-type" class="er entityLabel">int</text><rect height="22.091796875" width="74.953125" y="24" x="35.75" class="er attributeBoxOdd"/><text style="dominant-baseline: middle; font-size: 10.2px;" transform="translate(40.75,35.0458984375)" y="0" x="0" id="text-entity-POLICYHOLDER-c37890fa-1dd5-54e4-ac35-1bac6e197561-attr-1-name" class="er entityLabel">policyholderId</text><rect height="22.091796875" width="21.5625" y="24" x="110.703125" class="er attributeBoxOdd"/><text style="dominant-baseline: middle; font-size: 10.2px;" transform="translate(115.703125,35.0458984375)" y="0" x="0" id="text-entity-POLICYHOLDER-c37890fa-1dd5-54e4-ac35-1bac6e197561-attr-1-key" class="er entityLabel">PK</text><rect height="22.091797828674316" width="35.75" y="46.091796875" x="0" class="er attributeBoxEven"/><text style="dominant-baseline: middle; font-size: 10.2px;" transform="translate(5,57.13769578933716)" y="0" x="0" id="text-entity-POLICYHOLDER-c37890fa-1dd5-54e4-ac35-1bac6e197561-attr-2-type" class="er entityLabel">string</text><rect height="22.091797828674316" width="74.953125" y="46.091796875" x="35.75" class="er attributeBoxEven"/><text style="dominant-baseline: middle; font-size: 10.2px;" transform="translate(40.75,57.13769578933716)" y="0" x="0" id="text-entity-POLICYHOLDER-c37890fa-1dd5-54e4-ac35-1bac6e197561-attr-2-name" class="er entityLabel">name</text><rect height="22.091797828674316" width="21.5625" y="46.091796875" x="110.703125" class="er attributeBoxEven"/><text style="dominant-baseline: middle; font-size: 10.2px;" transform="translate(115.703125,57.13769578933716)" y="0" x="0" id="text-entity-POLICYHOLDER-c37890fa-1dd5-54e4-ac35-1bac6e197561-attr-2-key" class="er entityLabel"/><rect height="22.091797828674316" width="35.75" y="68.18359470367432" x="0" class="er attributeBoxOdd"/><text style="dominant-baseline: middle; font-size: 10.2px;" transform="translate(5,79.22949361801147)" y="0" x="0" id="text-entity-POLICYHOLDER-c37890fa-1dd5-54e4-ac35-1bac6e197561-attr-3-type" class="er entityLabel">string</text><rect height="22.091797828674316" width="74.953125" y="68.18359470367432" x="35.75" class="er attributeBoxOdd"/><text style="dominant-baseline: middle; font-size: 10.2px;" transform="translate(40.75,79.22949361801147)" y="0" x="0" id="text-entity-POLICYHOLDER-c37890fa-1dd5-54e4-ac35-1bac6e197561-attr-3-name" class="er entityLabel">email</text><rect height="22.091797828674316" width="21.5625" y="68.18359470367432" x="110.703125" class="er attributeBoxOdd"/><text style="dominant-baseline: middle; font-size: 10.2px;" transform="translate(115.703125,79.22949361801147)" y="0" x="0" id="text-entity-POLICYHOLDER-c37890fa-1dd5-54e4-ac35-1bac6e197561-attr-3-key" class="er entityLabel"/></g><g transform="translate(31.09375,210.275390625 )" id="entity-POLICY-5368decf-a79e-50b6-af26-38b6f8b59da8"><rect height="112.18359470367432" width="110.078125" y="0" x="0" class="er entityBox"/><text style="dominant-baseline: middle; text-anchor: middle; font-size: 12px;" transform="translate(55.0390625,12)" y="0" x="0" id="text-entity-POLICY-5368decf-a79e-50b6-af26-38b6f8b59da8" class="er entityLabel">POLICY</text><rect height="22.091796875" width="35.75" y="24" x="0" class="er attributeBoxOdd"/><text style="dominant-baseline: middle; font-size: 10.2px;" transform="translate(5,35.0458984375)" y="0" x="0" id="text-entity-POLICY-5368decf-a79e-50b6-af26-38b6f8b59da8-attr-1-type" class="er entityLabel">int</text><rect height="22.091796875" width="52.765625" y="24" x="35.75" class="er attributeBoxOdd"/><text style="dominant-baseline: middle; font-size: 10.2px;" transform="translate(40.75,35.0458984375)" y="0" x="0" id="text-entity-POLICY-5368decf-a79e-50b6-af26-38b6f8b59da8-attr-1-name" class="er entityLabel">policyId</text><rect height="22.091796875" width="21.5625" y="24" x="88.515625" class="er attributeBoxOdd"/><text style="dominant-baseline: middle; font-size: 10.2px;" transform="translate(93.515625,35.0458984375)" y="0" x="0" id="text-entity-POLICY-5368decf-a79e-50b6-af26-38b6f8b59da8-attr-1-key" class="er entityLabel">PK</text><rect height="22.091797828674316" width="35.75" y="46.091796875" x="0" class="er attributeBoxEven"/><text style="dominant-baseline: middle; font-size: 10.2px;" transform="translate(5,57.13769578933716)" y="0" x="0" id="text-entity-POLICY-5368decf-a79e-50b6-af26-38b6f8b59da8-attr-2-type" class="er entityLabel">string</text><rect height="22.091797828674316" width="52.765625" y="46.091796875" x="35.75" class="er attributeBoxEven"/><text style="dominant-baseline: middle; font-size: 10.2px;" transform="translate(40.75,57.13769578933716)" y="0" x="0" id="text-entity-POLICY-5368decf-a79e-50b6-af26-38b6f8b59da8-attr-2-name" class="er entityLabel">type</text><rect height="22.091797828674316" width="21.5625" y="46.091796875" x="88.515625" class="er attributeBoxEven"/><text style="dominant-baseline: middle; font-size: 10.2px;" transform="translate(93.515625,57.13769578933716)" y="0" x="0" id="text-entity-POLICY-5368decf-a79e-50b6-af26-38b6f8b59da8-attr-2-key" class="er entityLabel"/><rect height="22" width="35.75" y="68.18359470367432" x="0" class="er attributeBoxOdd"/><text style="dominant-baseline: middle; font-size: 10.2px;" transform="translate(5,79.18359470367432)" y="0" x="0" id="text-entity-POLICY-5368decf-a79e-50b6-af26-38b6f8b59da8-attr-3-type" class="er entityLabel">date</text><rect height="22" width="52.765625" y="68.18359470367432" x="35.75" class="er attributeBoxOdd"/><text style="dominant-baseline: middle; font-size: 10.2px;" transform="translate(40.75,79.18359470367432)" y="0" x="0" id="text-entity-POLICY-5368decf-a79e-50b6-af26-38b6f8b59da8-attr-3-name" class="er entityLabel">startDate</text><rect height="22" width="21.5625" y="68.18359470367432" x="88.515625" class="er attributeBoxOdd"/><text style="dominant-baseline: middle; font-size: 10.2px;" transform="translate(93.515625,79.18359470367432)" y="0" x="0" id="text-entity-POLICY-5368decf-a79e-50b6-af26-38b6f8b59da8-attr-3-key" class="er entityLabel"/><rect height="22" width="35.75" y="90.18359470367432" x="0" class="er attributeBoxEven"/><text style="dominant-baseline: middle; font-size: 10.2px;" transform="translate(5,101.18359470367432)" y="0" x="0" id="text-entity-POLICY-5368decf-a79e-50b6-af26-38b6f8b59da8-attr-4-type" class="er entityLabel">date</text><rect height="22" width="52.765625" y="90.18359470367432" x="35.75" class="er attributeBoxEven"/><text style="dominant-baseline: middle; font-size: 10.2px;" transform="translate(40.75,101.18359470367432)" y="0" x="0" id="text-entity-POLICY-5368decf-a79e-50b6-af26-38b6f8b59da8-attr-4-name" class="er entityLabel">endDate</text><rect height="22" width="21.5625" y="90.18359470367432" x="88.515625" class="er attributeBoxEven"/><text style="dominant-baseline: middle; font-size: 10.2px;" transform="translate(93.515625,101.18359470367432)" y="0" x="0" id="text-entity-POLICY-5368decf-a79e-50b6-af26-38b6f8b59da8-attr-4-key" class="er entityLabel"/></g><g transform="translate(445.6640625,422.458984375 )" id="entity-CLAIM-2af536b1-fdf5-5bc5-a992-0da276cc221f"><rect height="90.09179782867432" width="117.515625" y="0" x="0" class="er entityBox"/><text style="dominant-baseline: middle; text-anchor: middle; font-size: 12px;" transform="translate(58.7578125,12)" y="0" x="0" id="text-entity-CLAIM-2af536b1-fdf5-5bc5-a992-0da276cc221f" class="er entityLabel">CLAIM</text><rect height="22" width="35.75" y="24" x="0" class="er attributeBoxOdd"/><text style="dominant-baseline: middle; font-size: 10.2px;" transform="translate(5,35)" y="0" x="0" id="text-entity-CLAIM-2af536b1-fdf5-5bc5-a992-0da276cc221f-attr-1-type" class="er entityLabel">int</text><rect height="22" width="60.203125" y="24" x="35.75" class="er attributeBoxOdd"/><text style="dominant-baseline: middle; font-size: 10.2px;" transform="translate(40.75,35)" y="0" x="0" id="text-entity-CLAIM-2af536b1-fdf5-5bc5-a992-0da276cc221f-attr-1-name" class="er entityLabel">claimId</text><rect height="22" width="21.5625" y="24" x="95.953125" class="er attributeBoxOdd"/><text style="dominant-baseline: middle; font-size: 10.2px;" transform="translate(100.953125,35)" y="0" x="0" id="text-entity-CLAIM-2af536b1-fdf5-5bc5-a992-0da276cc221f-attr-1-key" class="er entityLabel">PK</text><rect height="22.091797828674316" width="35.75" y="46" x="0" class="er attributeBoxEven"/><text style="dominant-baseline: middle; font-size: 10.2px;" transform="translate(5,57.04589891433716)" y="0" x="0" id="text-entity-CLAIM-2af536b1-fdf5-5bc5-a992-0da276cc221f-attr-2-type" class="er entityLabel">string</text><rect height="22.091797828674316" width="60.203125" y="46" x="35.75" class="er attributeBoxEven"/><text style="dominant-baseline: middle; font-size: 10.2px;" transform="translate(40.75,57.04589891433716)" y="0" x="0" id="text-entity-CLAIM-2af536b1-fdf5-5bc5-a992-0da276cc221f-attr-2-name" class="er entityLabel">status</text><rect height="22.091797828674316" width="21.5625" y="46" x="95.953125" class="er attributeBoxEven"/><text style="dominant-baseline: middle; font-size: 10.2px;" transform="translate(100.953125,57.04589891433716)" y="0" x="0" id="text-entity-CLAIM-2af536b1-fdf5-5bc5-a992-0da276cc221f-attr-2-key" class="er entityLabel"/><rect height="22" width="35.75" y="68.09179782867432" x="0" class="er attributeBoxOdd"/><text style="dominant-baseline: middle; font-size: 10.2px;" transform="translate(5,79.09179782867432)" y="0" x="0" id="text-entity-CLAIM-2af536b1-fdf5-5bc5-a992-0da276cc221f-attr-3-type" class="er entityLabel">date</text><rect height="22" width="60.203125" y="68.09179782867432" x="35.75" class="er attributeBoxOdd"/><text style="dominant-baseline: middle; font-size: 10.2px;" transform="translate(40.75,79.09179782867432)" y="0" x="0" id="text-entity-CLAIM-2af536b1-fdf5-5bc5-a992-0da276cc221f-attr-3-name" class="er entityLabel">dateOfLoss</text><rect height="22" width="21.5625" y="68.09179782867432" x="95.953125" class="er attributeBoxOdd"/><text style="dominant-baseline: middle; font-size: 10.2px;" transform="translate(100.953125,79.09179782867432)" y="0" x="0" id="text-entity-CLAIM-2af536b1-fdf5-5bc5-a992-0da276cc221f-attr-3-key" class="er entityLabel"/></g><g transform="translate(443.7890625,612.55078125 )" id="entity-DOCUMENT-930a1042-f082-53f3-9c67-66f432d02c38"><rect height="90.18359565734863" width="121.265625" y="0" x="0" class="er entityBox"/><text style="dominant-baseline: middle; text-anchor: middle; font-size: 12px;" transform="translate(60.6328125,12)" y="0" x="0" id="text-entity-DOCUMENT-930a1042-f082-53f3-9c67-66f432d02c38" class="er entityLabel">DOCUMENT</text><rect height="22" width="35.75" y="24" x="0" class="er attributeBoxOdd"/><text style="dominant-baseline: middle; font-size: 10.2px;" transform="translate(5,35)" y="0" x="0" id="text-entity-DOCUMENT-930a1042-f082-53f3-9c67-66f432d02c38-attr-1-type" class="er entityLabel">int</text><rect height="22" width="63.953125" y="24" x="35.75" class="er attributeBoxOdd"/><text style="dominant-baseline: middle; font-size: 10.2px;" transform="translate(40.75,35)" y="0" x="0" id="text-entity-DOCUMENT-930a1042-f082-53f3-9c67-66f432d02c38-attr-1-name" class="er entityLabel">documentId</text><rect height="22" width="21.5625" y="24" x="99.703125" class="er attributeBoxOdd"/><text style="dominant-baseline: middle; font-size: 10.2px;" transform="translate(104.703125,35)" y="0" x="0" id="text-entity-DOCUMENT-930a1042-f082-53f3-9c67-66f432d02c38-attr-1-key" class="er entityLabel">PK</text><rect height="22.091797828674316" width="35.75" y="46" x="0" class="er attributeBoxEven"/><text style="dominant-baseline: middle; font-size: 10.2px;" transform="translate(5,57.04589891433716)" y="0" x="0" id="text-entity-DOCUMENT-930a1042-f082-53f3-9c67-66f432d02c38-attr-2-type" class="er entityLabel">string</text><rect height="22.091797828674316" width="63.953125" y="46" x="35.75" class="er attributeBoxEven"/><text style="dominant-baseline: middle; font-size: 10.2px;" transform="translate(40.75,57.04589891433716)" y="0" x="0" id="text-entity-DOCUMENT-930a1042-f082-53f3-9c67-66f432d02c38-attr-2-name" class="er entityLabel">type</text><rect height="22.091797828674316" width="21.5625" y="46" x="99.703125" class="er attributeBoxEven"/><text style="dominant-baseline: middle; font-size: 10.2px;" transform="translate(104.703125,57.04589891433716)" y="0" x="0" id="text-entity-DOCUMENT-930a1042-f082-53f3-9c67-66f432d02c38-attr-2-key" class="er entityLabel"/><rect height="22.091797828674316" width="35.75" y="68.09179782867432" x="0" class="er attributeBoxOdd"/><text style="dominant-baseline: middle; font-size: 10.2px;" transform="translate(5,79.13769674301147)" y="0" x="0" id="text-entity-DOCUMENT-930a1042-f082-53f3-9c67-66f432d02c38-attr-3-type" class="er entityLabel">string</text><rect height="22.091797828674316" width="63.953125" y="68.09179782867432" x="35.75" class="er attributeBoxOdd"/><text style="dominant-baseline: middle; font-size: 10.2px;" transform="translate(40.75,79.13769674301147)" y="0" x="0" id="text-entity-DOCUMENT-930a1042-f082-53f3-9c67-66f432d02c38-attr-3-name" class="er entityLabel">url</text><rect height="22.091797828674316" width="21.5625" y="68.09179782867432" x="99.703125" class="er attributeBoxOdd"/><text style="dominant-baseline: middle; font-size: 10.2px;" transform="translate(104.703125,79.13769674301147)" y="0" x="0" id="text-entity-DOCUMENT-930a1042-f082-53f3-9c67-66f432d02c38-attr-3-key" class="er entityLabel"/></g><g transform="translate(241.171875,221.275390625 )" id="entity-INSURER-c3d2d890-b0d9-55b5-b3f6-43b755a5956b"><rect height="90.18359565734863" width="107.515625" y="0" x="0" class="er entityBox"/><text style="dominant-baseline: middle; text-anchor: middle; font-size: 12px;" transform="translate(53.7578125,12)" y="0" x="0" id="text-entity-INSURER-c3d2d890-b0d9-55b5-b3f6-43b755a5956b" class="er entityLabel">INSURER</text><rect height="22" width="35.75" y="24" x="0" class="er attributeBoxOdd"/><text style="dominant-baseline: middle; font-size: 10.2px;" transform="translate(5,35)" y="0" x="0" id="text-entity-INSURER-c3d2d890-b0d9-55b5-b3f6-43b755a5956b-attr-1-type" class="er entityLabel">int</text><rect height="22" width="50.203125" y="24" x="35.75" class="er attributeBoxOdd"/><text style="dominant-baseline: middle; font-size: 10.2px;" transform="translate(40.75,35)" y="0" x="0" id="text-entity-INSURER-c3d2d890-b0d9-55b5-b3f6-43b755a5956b-attr-1-name" class="er entityLabel">insurerId</text><rect height="22" width="21.5625" y="24" x="85.953125" class="er attributeBoxOdd"/><text style="dominant-baseline: middle; font-size: 10.2px;" transform="translate(90.953125,35)" y="0" x="0" id="text-entity-INSURER-c3d2d890-b0d9-55b5-b3f6-43b755a5956b-attr-1-key" class="er entityLabel">PK</text><rect height="22.091797828674316" width="35.75" y="46" x="0" class="er attributeBoxEven"/><text style="dominant-baseline: middle; font-size: 10.2px;" transform="translate(5,57.04589891433716)" y="0" x="0" id="text-entity-INSURER-c3d2d890-b0d9-55b5-b3f6-43b755a5956b-attr-2-type" class="er entityLabel">string</text><rect height="22.091797828674316" width="50.203125" y="46" x="35.75" class="er attributeBoxEven"/><text style="dominant-baseline: middle; font-size: 10.2px;" transform="translate(40.75,57.04589891433716)" y="0" x="0" id="text-entity-INSURER-c3d2d890-b0d9-55b5-b3f6-43b755a5956b-attr-2-name" class="er entityLabel">name</text><rect height="22.091797828674316" width="21.5625" y="46" x="85.953125" class="er attributeBoxEven"/><text style="dominant-baseline: middle; font-size: 10.2px;" transform="translate(90.953125,57.04589891433716)" y="0" x="0" id="text-entity-INSURER-c3d2d890-b0d9-55b5-b3f6-43b755a5956b-attr-2-key" class="er entityLabel"/><rect height="22.091797828674316" width="35.75" y="68.09179782867432" x="0" class="er attributeBoxOdd"/><text style="dominant-baseline: middle; font-size: 10.2px;" transform="translate(5,79.13769674301147)" y="0" x="0" id="text-entity-INSURER-c3d2d890-b0d9-55b5-b3f6-43b755a5956b-attr-3-type" class="er entityLabel">string</text><rect height="22.091797828674316" width="50.203125" y="68.09179782867432" x="35.75" class="er attributeBoxOdd"/><text style="dominant-baseline: middle; font-size: 10.2px;" transform="translate(40.75,79.13769674301147)" y="0" x="0" id="text-entity-INSURER-c3d2d890-b0d9-55b5-b3f6-43b755a5956b-attr-3-name" class="er entityLabel">email</text><rect height="22.091797828674316" width="21.5625" y="68.09179782867432" x="85.953125" class="er attributeBoxOdd"/><text style="dominant-baseline: middle; font-size: 10.2px;" transform="translate(90.953125,79.13769674301147)" y="0" x="0" id="text-entity-INSURER-c3d2d890-b0d9-55b5-b3f6-43b755a5956b-attr-3-key" class="er entityLabel"/></g><g transform="translate(448.6875,221.3212890625 )" id="entity-PAYMENT-9797eee8-7a01-5efe-aaa5-fb9a4f14957c"><rect height="90.091796875" width="111.46875" y="0" x="0" class="er entityBox"/><text style="dominant-baseline: middle; text-anchor: middle; font-size: 12px;" transform="translate(55.734375,12)" y="0" x="0" id="text-entity-PAYMENT-9797eee8-7a01-5efe-aaa5-fb9a4f14957c" class="er entityLabel">PAYMENT</text><rect height="22.091796875" width="31.65625" y="24" x="0" class="er attributeBoxOdd"/><text style="dominant-baseline: middle; font-size: 10.2px;" transform="translate(5,35.0458984375)" y="0" x="0" id="text-entity-PAYMENT-9797eee8-7a01-5efe-aaa5-fb9a4f14957c-attr-1-type" class="er entityLabel">int</text><rect height="22.091796875" width="58.25" y="24" x="31.65625" class="er attributeBoxOdd"/><text style="dominant-baseline: middle; font-size: 10.2px;" transform="translate(36.65625,35.0458984375)" y="0" x="0" id="text-entity-PAYMENT-9797eee8-7a01-5efe-aaa5-fb9a4f14957c-attr-1-name" class="er entityLabel">paymentId</text><rect height="22.091796875" width="21.5625" y="24" x="89.90625" class="er attributeBoxOdd"/><text style="dominant-baseline: middle; font-size: 10.2px;" transform="translate(94.90625,35.0458984375)" y="0" x="0" id="text-entity-PAYMENT-9797eee8-7a01-5efe-aaa5-fb9a4f14957c-attr-1-key" class="er entityLabel">PK</text><rect height="22" width="31.65625" y="46.091796875" x="0" class="er attributeBoxEven"/><text style="dominant-baseline: middle; font-size: 10.2px;" transform="translate(5,57.091796875)" y="0" x="0" id="text-entity-PAYMENT-9797eee8-7a01-5efe-aaa5-fb9a4f14957c-attr-2-type" class="er entityLabel">float</text><rect height="22" width="58.25" y="46.091796875" x="31.65625" class="er attributeBoxEven"/><text style="dominant-baseline: middle; font-size: 10.2px;" transform="translate(36.65625,57.091796875)" y="0" x="0" id="text-entity-PAYMENT-9797eee8-7a01-5efe-aaa5-fb9a4f14957c-attr-2-name" class="er entityLabel">amount</text><rect height="22" width="21.5625" y="46.091796875" x="89.90625" class="er attributeBoxEven"/><text style="dominant-baseline: middle; font-size: 10.2px;" transform="translate(94.90625,57.091796875)" y="0" x="0" id="text-entity-PAYMENT-9797eee8-7a01-5efe-aaa5-fb9a4f14957c-attr-2-key" class="er entityLabel"/><rect height="22" width="31.65625" y="68.091796875" x="0" class="er attributeBoxOdd"/><text style="dominant-baseline: middle; font-size: 10.2px;" transform="translate(5,79.091796875)" y="0" x="0" id="text-entity-PAYMENT-9797eee8-7a01-5efe-aaa5-fb9a4f14957c-attr-3-type" class="er entityLabel">date</text><rect height="22" width="58.25" y="68.091796875" x="31.65625" class="er attributeBoxOdd"/><text style="dominant-baseline: middle; font-size: 10.2px;" transform="translate(36.65625,79.091796875)" y="0" x="0" id="text-entity-PAYMENT-9797eee8-7a01-5efe-aaa5-fb9a4f14957c-attr-3-name" class="er entityLabel">date</text><rect height="22" width="21.5625" y="68.091796875" x="89.90625" class="er attributeBoxOdd"/><text style="dominant-baseline: middle; font-size: 10.2px;" transform="translate(94.90625,79.091796875)" y="0" x="0" id="text-entity-PAYMENT-9797eee8-7a01-5efe-aaa5-fb9a4f14957c-attr-3-key" class="er entityLabel"/></g><g transform="translate(660.15625,221.2294921875 )" id="entity-ADJUSTER-d9d3d959-e191-5783-8fef-d2ff74f00227"><rect height="90.27539348602295" width="121.265625" y="0" x="0" class="er entityBox"/><text style="dominant-baseline: middle; text-anchor: middle; font-size: 12px;" transform="translate(60.6328125,12)" y="0" x="0" id="text-entity-ADJUSTER-d9d3d959-e191-5783-8fef-d2ff74f00227" class="er entityLabel">ADJUSTER</text><rect height="22.091797828674316" width="35.75" y="24" x="0" class="er attributeBoxOdd"/><text style="dominant-baseline: middle; font-size: 10.2px;" transform="translate(5,35.04589891433716)" y="0" x="0" id="text-entity-ADJUSTER-d9d3d959-e191-5783-8fef-d2ff74f00227-attr-1-type" class="er entityLabel">int</text><rect height="22.091797828674316" width="63.953125" y="24" x="35.75" class="er attributeBoxOdd"/><text style="dominant-baseline: middle; font-size: 10.2px;" transform="translate(40.75,35.04589891433716)" y="0" x="0" id="text-entity-ADJUSTER-d9d3d959-e191-5783-8fef-d2ff74f00227-attr-1-name" class="er entityLabel">adjusterId</text><rect height="22.091797828674316" width="21.5625" y="24" x="99.703125" class="er attributeBoxOdd"/><text style="dominant-baseline: middle; font-size: 10.2px;" transform="translate(104.703125,35.04589891433716)" y="0" x="0" id="text-entity-ADJUSTER-d9d3d959-e191-5783-8fef-d2ff74f00227-attr-1-key" class="er entityLabel">PK</text><rect height="22.091797828674316" width="35.75" y="46.091797828674316" x="0" class="er attributeBoxEven"/><text style="dominant-baseline: middle; font-size: 10.2px;" transform="translate(5,57.137696743011475)" y="0" x="0" id="text-entity-ADJUSTER-d9d3d959-e191-5783-8fef-d2ff74f00227-attr-2-type" class="er entityLabel">string</text><rect height="22.091797828674316" width="63.953125" y="46.091797828674316" x="35.75" class="er attributeBoxEven"/><text style="dominant-baseline: middle; font-size: 10.2px;" transform="translate(40.75,57.137696743011475)" y="0" x="0" id="text-entity-ADJUSTER-d9d3d959-e191-5783-8fef-d2ff74f00227-attr-2-name" class="er entityLabel">name</text><rect height="22.091797828674316" width="21.5625" y="46.091797828674316" x="99.703125" class="er attributeBoxEven"/><text style="dominant-baseline: middle; font-size: 10.2px;" transform="translate(104.703125,57.137696743011475)" y="0" x="0" id="text-entity-ADJUSTER-d9d3d959-e191-5783-8fef-d2ff74f00227-attr-2-key" class="er entityLabel"/><rect height="22.091797828674316" width="35.75" y="68.18359565734863" x="0" class="er attributeBoxOdd"/><text style="dominant-baseline: middle; font-size: 10.2px;" transform="translate(5,79.22949457168579)" y="0" x="0" id="text-entity-ADJUSTER-d9d3d959-e191-5783-8fef-d2ff74f00227-attr-3-type" class="er entityLabel">string</text><rect height="22.091797828674316" width="63.953125" y="68.18359565734863" x="35.75" class="er attributeBoxOdd"/><text style="dominant-baseline: middle; font-size: 10.2px;" transform="translate(40.75,79.22949457168579)" y="0" x="0" id="text-entity-ADJUSTER-d9d3d959-e191-5783-8fef-d2ff74f00227-attr-3-name" class="er entityLabel">department</text><rect height="22.091797828674316" width="21.5625" y="68.18359565734863" x="99.703125" class="er attributeBoxOdd"/><text style="dominant-baseline: middle; font-size: 10.2px;" transform="translate(104.703125,79.22949457168579)" y="0" x="0" id="text-entity-ADJUSTER-d9d3d959-e191-5783-8fef-d2ff74f00227-attr-3-key" class="er entityLabel"/></g><g transform="translate(881.421875,221.275390625 )" id="entity-WITNESS-094b1563-b695-5cae-ab01-3d5317d3d027"><rect height="90.18359565734863" width="114.109375" y="0" x="0" class="er entityBox"/><text style="dominant-baseline: middle; text-anchor: middle; font-size: 12px;" transform="translate(57.0546875,12)" y="0" x="0" id="text-entity-WITNESS-094b1563-b695-5cae-ab01-3d5317d3d027" class="er entityLabel">WITNESS</text><rect height="22" width="35.75" y="24" x="0" class="er attributeBoxOdd"/><text style="dominant-baseline: middle; font-size: 10.2px;" transform="translate(5,35)" y="0" x="0" id="text-entity-WITNESS-094b1563-b695-5cae-ab01-3d5317d3d027-attr-1-type" class="er entityLabel">int</text><rect height="22" width="56.796875" y="24" x="35.75" class="er attributeBoxOdd"/><text style="dominant-baseline: middle; font-size: 10.2px;" transform="translate(40.75,35)" y="0" x="0" id="text-entity-WITNESS-094b1563-b695-5cae-ab01-3d5317d3d027-attr-1-name" class="er entityLabel">witnessId</text><rect height="22" width="21.5625" y="24" x="92.546875" class="er attributeBoxOdd"/><text style="dominant-baseline: middle; font-size: 10.2px;" transform="translate(97.546875,35)" y="0" x="0" id="text-entity-WITNESS-094b1563-b695-5cae-ab01-3d5317d3d027-attr-1-key" class="er entityLabel">PK</text><rect height="22.091797828674316" width="35.75" y="46" x="0" class="er attributeBoxEven"/><text style="dominant-baseline: middle; font-size: 10.2px;" transform="translate(5,57.04589891433716)" y="0" x="0" id="text-entity-WITNESS-094b1563-b695-5cae-ab01-3d5317d3d027-attr-2-type" class="er entityLabel">string</text><rect height="22.091797828674316" width="56.796875" y="46" x="35.75" class="er attributeBoxEven"/><text style="dominant-baseline: middle; font-size: 10.2px;" transform="translate(40.75,57.04589891433716)" y="0" x="0" id="text-entity-WITNESS-094b1563-b695-5cae-ab01-3d5317d3d027-attr-2-name" class="er entityLabel">name</text><rect height="22.091797828674316" width="21.5625" y="46" x="92.546875" class="er attributeBoxEven"/><text style="dominant-baseline: middle; font-size: 10.2px;" transform="translate(97.546875,57.04589891433716)" y="0" x="0" id="text-entity-WITNESS-094b1563-b695-5cae-ab01-3d5317d3d027-attr-2-key" class="er entityLabel"/><rect height="22.091797828674316" width="35.75" y="68.09179782867432" x="0" class="er attributeBoxOdd"/><text style="dominant-baseline: middle; font-size: 10.2px;" transform="translate(5,79.13769674301147)" y="0" x="0" id="text-entity-WITNESS-094b1563-b695-5cae-ab01-3d5317d3d027-attr-3-type" class="er entityLabel">string</text><rect height="22.091797828674316" width="56.796875" y="68.09179782867432" x="35.75" class="er attributeBoxOdd"/><text style="dominant-baseline: middle; font-size: 10.2px;" transform="translate(40.75,79.13769674301147)" y="0" x="0" id="text-entity-WITNESS-094b1563-b695-5cae-ab01-3d5317d3d027-attr-3-name" class="er entityLabel">statement</text><rect height="22.091797828674316" width="21.5625" y="68.09179782867432" x="92.546875" class="er attributeBoxOdd"/><text style="dominant-baseline: middle; font-size: 10.2px;" transform="translate(97.546875,79.13769674301147)" y="0" x="0" id="text-entity-WITNESS-094b1563-b695-5cae-ab01-3d5317d3d027-attr-3-key" class="er entityLabel"/></g><rect height="14" width="26.796875" y="153.27499389648438" x="72.73456573486328" class="er relationshipLabelBox"/><text style="text-anchor: middle; dominant-baseline: middle; font-size: 12px;" y="160.27499389648438" x="86.13300323486328" id="rel1" class="er relationshipLabel">owns</text><rect height="14" width="34.328125" y="401.6944274902344" x="234.62281799316406" class="er relationshipLabelBox"/><text style="text-anchor: middle; dominant-baseline: middle; font-size: 12px;" y="408.6944274902344" x="251.78688049316406" id="rel2" class="er relationshipLabel">covers</text><rect height="14" width="44.109375" y="555.551025390625" x="482.3673095703125" class="er relationshipLabelBox"/><text style="text-anchor: middle; dominant-baseline: middle; font-size: 12px;" y="562.551025390625" x="504.4219970703125" id="rel3" class="er relationshipLabel">includes</text><rect height="14" width="51.40625" y="387.2088623046875" x="324.2849426269531" class="er relationshipLabelBox"/><text style="text-anchor: middle; dominant-baseline: middle; font-size: 12px;" y="394.2088623046875" x="349.9880676269531" id="rel4" class="er relationshipLabel">processes</text><rect height="14" width="51.40625" y="359.9360046386719" x="478.7188720703125" class="er relationshipLabelBox"/><text style="text-anchor: middle; dominant-baseline: middle; font-size: 12px;" y="366.9360046386719" x="504.4219970703125" id="rel5" class="er relationshipLabel">processes</text><rect height="14" width="43.6875" y="388.0640563964844" x="640.4100341796875" class="er relationshipLabelBox"/><text style="text-anchor: middle; dominant-baseline: middle; font-size: 12px;" y="395.0640563964844" x="662.2537841796875" id="rel6" class="er relationshipLabel">assesses</text><rect height="14" width="45.1875" y="400.88690185546875" x="745.82275390625" class="er relationshipLabelBox"/><text style="text-anchor: middle; dominant-baseline: middle; font-size: 12px;" y="407.88690185546875" x="768.41650390625" id="rel7" class="er relationshipLabel">provides</text></svg>