<svg aria-roledescription="mindmap" role="graphics-document document" viewBox="5 -65.4359359741211 1040.92236328125 718.888916015625" style="max-width: 1040.92px; background-color: white;" xmlns:xlink="http://www.w3.org/1999/xlink" xmlns="http://www.w3.org/2000/svg" width="100%" id="my-svg"><style>#my-svg{font-family:"trebuchet ms",verdana,arial,sans-serif;font-size:16px;fill:#333;}#my-svg .error-icon{fill:#552222;}#my-svg .error-text{fill:#552222;stroke:#552222;}#my-svg .edge-thickness-normal{stroke-width:1px;}#my-svg .edge-thickness-thick{stroke-width:3.5px;}#my-svg .edge-pattern-solid{stroke-dasharray:0;}#my-svg .edge-thickness-invisible{stroke-width:0;fill:none;}#my-svg .edge-pattern-dashed{stroke-dasharray:3;}#my-svg .edge-pattern-dotted{stroke-dasharray:2;}#my-svg .marker{fill:#333333;stroke:#333333;}#my-svg .marker.cross{stroke:#333333;}#my-svg svg{font-family:"trebuchet ms",verdana,arial,sans-serif;font-size:16px;}#my-svg p{margin:0;}#my-svg .edge{stroke-width:3;}#my-svg .section--1 rect,#my-svg .section--1 path,#my-svg .section--1 circle,#my-svg .section--1 polygon,#my-svg .section--1 path{fill:hsl(240, 100%, 76.2745098039%);}#my-svg .section--1 text{fill:#ffffff;}#my-svg .node-icon--1{font-size:40px;color:#ffffff;}#my-svg .section-edge--1{stroke:hsl(240, 100%, 76.2745098039%);}#my-svg .edge-depth--1{stroke-width:17;}#my-svg .section--1 line{stroke:hsl(60, 100%, 86.2745098039%);stroke-width:3;}#my-svg .disabled,#my-svg .disabled circle,#my-svg .disabled text{fill:lightgray;}#my-svg .disabled text{fill:#efefef;}#my-svg .section-0 rect,#my-svg .section-0 path,#my-svg .section-0 circle,#my-svg .section-0 polygon,#my-svg .section-0 path{fill:hsl(60, 100%, 73.5294117647%);}#my-svg .section-0 text{fill:black;}#my-svg .node-icon-0{font-size:40px;color:black;}#my-svg .section-edge-0{stroke:hsl(60, 100%, 73.5294117647%);}#my-svg .edge-depth-0{stroke-width:14;}#my-svg .section-0 line{stroke:hsl(240, 100%, 83.5294117647%);stroke-width:3;}#my-svg .disabled,#my-svg .disabled circle,#my-svg .disabled text{fill:lightgray;}#my-svg .disabled text{fill:#efefef;}#my-svg .section-1 rect,#my-svg .section-1 path,#my-svg .section-1 circle,#my-svg .section-1 polygon,#my-svg .section-1 path{fill:hsl(80, 100%, 76.2745098039%);}#my-svg .section-1 text{fill:black;}#my-svg .node-icon-1{font-size:40px;color:black;}#my-svg .section-edge-1{stroke:hsl(80, 100%, 76.2745098039%);}#my-svg .edge-depth-1{stroke-width:11;}#my-svg .section-1 line{stroke:hsl(260, 100%, 86.2745098039%);stroke-width:3;}#my-svg .disabled,#my-svg .disabled circle,#my-svg .disabled text{fill:lightgray;}#my-svg .disabled text{fill:#efefef;}#my-svg .section-2 rect,#my-svg .section-2 path,#my-svg .section-2 circle,#my-svg .section-2 polygon,#my-svg .section-2 path{fill:hsl(270, 100%, 76.2745098039%);}#my-svg .section-2 text{fill:#ffffff;}#my-svg .node-icon-2{font-size:40px;color:#ffffff;}#my-svg .section-edge-2{stroke:hsl(270, 100%, 76.2745098039%);}#my-svg .edge-depth-2{stroke-width:8;}#my-svg .section-2 line{stroke:hsl(90, 100%, 86.2745098039%);stroke-width:3;}#my-svg .disabled,#my-svg .disabled circle,#my-svg .disabled text{fill:lightgray;}#my-svg .disabled text{fill:#efefef;}#my-svg .section-3 rect,#my-svg .section-3 path,#my-svg .section-3 circle,#my-svg .section-3 polygon,#my-svg .section-3 path{fill:hsl(300, 100%, 76.2745098039%);}#my-svg .section-3 text{fill:black;}#my-svg .node-icon-3{font-size:40px;color:black;}#my-svg .section-edge-3{stroke:hsl(300, 100%, 76.2745098039%);}#my-svg .edge-depth-3{stroke-width:5;}#my-svg .section-3 line{stroke:hsl(120, 100%, 86.2745098039%);stroke-width:3;}#my-svg .disabled,#my-svg .disabled circle,#my-svg .disabled text{fill:lightgray;}#my-svg .disabled text{fill:#efefef;}#my-svg .section-4 rect,#my-svg .section-4 path,#my-svg .section-4 circle,#my-svg .section-4 polygon,#my-svg .section-4 path{fill:hsl(330, 100%, 76.2745098039%);}#my-svg .section-4 text{fill:black;}#my-svg .node-icon-4{font-size:40px;color:black;}#my-svg .section-edge-4{stroke:hsl(330, 100%, 76.2745098039%);}#my-svg .edge-depth-4{stroke-width:2;}#my-svg .section-4 line{stroke:hsl(150, 100%, 86.2745098039%);stroke-width:3;}#my-svg .disabled,#my-svg .disabled circle,#my-svg .disabled text{fill:lightgray;}#my-svg .disabled text{fill:#efefef;}#my-svg .section-5 rect,#my-svg .section-5 path,#my-svg .section-5 circle,#my-svg .section-5 polygon,#my-svg .section-5 path{fill:hsl(0, 100%, 76.2745098039%);}#my-svg .section-5 text{fill:black;}#my-svg .node-icon-5{font-size:40px;color:black;}#my-svg .section-edge-5{stroke:hsl(0, 100%, 76.2745098039%);}#my-svg .edge-depth-5{stroke-width:-1;}#my-svg .section-5 line{stroke:hsl(180, 100%, 86.2745098039%);stroke-width:3;}#my-svg .disabled,#my-svg .disabled circle,#my-svg .disabled text{fill:lightgray;}#my-svg .disabled text{fill:#efefef;}#my-svg .section-6 rect,#my-svg .section-6 path,#my-svg .section-6 circle,#my-svg .section-6 polygon,#my-svg .section-6 path{fill:hsl(30, 100%, 76.2745098039%);}#my-svg .section-6 text{fill:black;}#my-svg .node-icon-6{font-size:40px;color:black;}#my-svg .section-edge-6{stroke:hsl(30, 100%, 76.2745098039%);}#my-svg .edge-depth-6{stroke-width:-4;}#my-svg .section-6 line{stroke:hsl(210, 100%, 86.2745098039%);stroke-width:3;}#my-svg .disabled,#my-svg .disabled circle,#my-svg .disabled text{fill:lightgray;}#my-svg .disabled text{fill:#efefef;}#my-svg .section-7 rect,#my-svg .section-7 path,#my-svg .section-7 circle,#my-svg .section-7 polygon,#my-svg .section-7 path{fill:hsl(90, 100%, 76.2745098039%);}#my-svg .section-7 text{fill:black;}#my-svg .node-icon-7{font-size:40px;color:black;}#my-svg .section-edge-7{stroke:hsl(90, 100%, 76.2745098039%);}#my-svg .edge-depth-7{stroke-width:-7;}#my-svg .section-7 line{stroke:hsl(270, 100%, 86.2745098039%);stroke-width:3;}#my-svg .disabled,#my-svg .disabled circle,#my-svg .disabled text{fill:lightgray;}#my-svg .disabled text{fill:#efefef;}#my-svg .section-8 rect,#my-svg .section-8 path,#my-svg .section-8 circle,#my-svg .section-8 polygon,#my-svg .section-8 path{fill:hsl(150, 100%, 76.2745098039%);}#my-svg .section-8 text{fill:black;}#my-svg .node-icon-8{font-size:40px;color:black;}#my-svg .section-edge-8{stroke:hsl(150, 100%, 76.2745098039%);}#my-svg .edge-depth-8{stroke-width:-10;}#my-svg .section-8 line{stroke:hsl(330, 100%, 86.2745098039%);stroke-width:3;}#my-svg .disabled,#my-svg .disabled circle,#my-svg .disabled text{fill:lightgray;}#my-svg .disabled text{fill:#efefef;}#my-svg .section-9 rect,#my-svg .section-9 path,#my-svg .section-9 circle,#my-svg .section-9 polygon,#my-svg .section-9 path{fill:hsl(180, 100%, 76.2745098039%);}#my-svg .section-9 text{fill:black;}#my-svg .node-icon-9{font-size:40px;color:black;}#my-svg .section-edge-9{stroke:hsl(180, 100%, 76.2745098039%);}#my-svg .edge-depth-9{stroke-width:-13;}#my-svg .section-9 line{stroke:hsl(0, 100%, 86.2745098039%);stroke-width:3;}#my-svg .disabled,#my-svg .disabled circle,#my-svg .disabled text{fill:lightgray;}#my-svg .disabled text{fill:#efefef;}#my-svg .section-10 rect,#my-svg .section-10 path,#my-svg .section-10 circle,#my-svg .section-10 polygon,#my-svg .section-10 path{fill:hsl(210, 100%, 76.2745098039%);}#my-svg .section-10 text{fill:black;}#my-svg .node-icon-10{font-size:40px;color:black;}#my-svg .section-edge-10{stroke:hsl(210, 100%, 76.2745098039%);}#my-svg .edge-depth-10{stroke-width:-16;}#my-svg .section-10 line{stroke:hsl(30, 100%, 86.2745098039%);stroke-width:3;}#my-svg .disabled,#my-svg .disabled circle,#my-svg .disabled text{fill:lightgray;}#my-svg .disabled text{fill:#efefef;}#my-svg .section-root rect,#my-svg .section-root path,#my-svg .section-root circle,#my-svg .section-root polygon{fill:hsl(240, 100%, 46.2745098039%);}#my-svg .section-root text{fill:#ffffff;}#my-svg .icon-container{height:100%;display:flex;justify-content:center;align-items:center;}#my-svg .edge{fill:none;}#my-svg .mindmap-node-label{dy:1em;alignment-baseline:middle;text-anchor:middle;dominant-baseline:middle;text-align:center;}#my-svg :root{--mermaid-font-family:"trebuchet ms",verdana,arial,sans-serif;}</style><g/><g class="mindmap-edges"><path class="edge section-edge-0 edge-depth-5" d="M 383.7653833917919,250.88843772726287 L 340.9642436145276,221.67720967105265 L298.16310383726335,192.46598161484246"/><path class="edge section-edge-0 edge-depth-5" d="M 381.24428129390037,257.70939328560314 L 281.1473705451548,246.7351042843594 L181.0504597964092,235.76081528311568"/><path class="edge section-edge-0 edge-depth-4" d="M 500.4443301632698,409.6858109010022 L 452.57443296128474,340.6774525573096 L404.7045357592997,271.66909421361703"/><path class="edge section-edge-0 edge-depth-4" d="M 498.25179514202273,432.48007061070575 L 467.58133752674087,462.3715748524719 L436.910879911459,492.26307909423804"/><path class="edge section-edge-0 edge-depth-4" d="M 516.3180906053562,408.92042971964685 L 554.5557719746052,340.5789608437722 L592.7934533438543,272.2374919678976"/><path class="edge section-edge-0 edge-depth-4" d="M 523.8122321149942,424.33840994433297 L 712.827993508544,454.02892110045184 L901.8437549020937,483.7194322565707"/><path class="edge section-edge-0 edge-depth-5" d="M 679.9166917205665,343.3457575314469 L 802.3853300011112,334.27392679025616 L924.853968281656,325.2020960490654"/><path class="edge section-edge-0 edge-depth-4" d="M 522.4249456067771,415.3318465059976 L 586.9758037623794,383.23230020370306 L651.5266619179818,351.13275390140853"/><path class="edge section-edge-0 edge-depth-5" d="M 760.1094809671201,296.1359599563363 L 839.7919852427424,272.0768947442034 L919.4744895183646,248.0178295320705"/><path class="edge section-edge-0 edge-depth-5" d="M 740.0072011929054,286.6144487506672 L 725.9825535959898,252.771915463582 L711.9579059990741,218.9293821764968"/><path class="edge section-edge-0 edge-depth-4" d="M 522.3383125347456,415.16039351843926 L 627.3718473225839,361.24122117515225 L732.4053821104222,307.32204883186523"/><path class="edge section-edge-0 edge-depth-5" d="M 746.3693663781851,534.0139110122652 L 835.7744895146682,554.3508472689517 L925.1796126511513,574.6877835256382"/><path class="edge section-edge-0 edge-depth-5" d="M 735.7886617945826,545.130977597231 L 744.888519317939,577.6199239020029 L753.9883768412953,610.1088702067749"/><path class="edge section-edge-0 edge-depth-4" d="M 522.4750283159295,428.5879933443904 L 620.3684635478419,476.3488080413182 L718.2618987797542,524.109622738246"/><path class="edge section-edge-0 edge-depth-4" d="M 495.6555991144729,415.14862326916494 L 389.4179471252048,360.49283456265874 L283.1802951359367,305.83704585615254"/><path class="edge section-edge-0 edge-depth-4" d="M 522.5880737050481,428.35104930784695 L 575.3218182697124,452.9460035106529 L628.0555628343766,477.5409577134588"/><path class="edge section-edge-0 edge-depth-4" d="M 494.6095062035365,426.26379348746065 L 353.11829593614266,468.09842668299166 L211.62708566874892,509.93305987852267"/><path class="edge section-edge-0 edge-depth-4" d="M 496.4938664744594,430.3022219954413 L 491.0770677168774,433.89525872305785 L485.6602689592954,437.4882954506744"/><path class="edge section-edge-0 edge-depth-4" d="M 494.05112989633335,420.70206270607827 L 417.5297631508341,414.0002976335029 L341.0083964053349,407.2985325609275"/><path class="edge section-edge-0 edge-depth-4" d="M 493.9949580174397,421.83526611289346 L 313.21962195167305,419.7201488469515 L132.44428588590637,417.6050315810095"/><path class="edge section-edge-0 edge-depth-4" d="M 497.6861303354116,431.8663976607688 L 432.9729561789484,488.2690287424334 L368.2597820224852,544.671659824098"/><path class="edge section-edge-0 edge-depth-4" d="M 514.9824147882757,435.7635055116035 L 532.8089408771203,476.70270468024705 L550.635466965965,517.6419038488906"/><path class="edge section-edge-0 edge-depth-4" d="M 522.5767235441857,415.6461874036356 L 548.075823420439,403.69792101004373 L573.5749232966922,391.74965461645183"/><path class="edge section-edge-0 edge-depth-4" d="M 523.9834745625301,421.4507615838757 L 718.0043333639804,414.2023107222965 L912.0251921654308,406.9538598607173"/><path class="edge section-edge-0 edge-depth-4" d="M 504.8696691524881,436.43263229315824 L 482.4166211467664,514.9472897732226 L459.96357314104466,593.4619472532869"/><path class="edge section-edge-0 edge-depth-4" d="M 501.9275400948739,408.77950271539805 L 491.968759235574,390.1324783477538 L482.0099783762741,371.4854539801096"/><path class="edge section-edge-0 edge-depth-4" d="M 509.67350520489225,407.0261598300665 L 511.8317372209658,359.43715737240075 L513.9899692370394,311.848154914735"/><path class="edge section-edge-0 edge-depth-4" d="M 494.24622019893144,419.2712298006239 L 314.3098647477775,385.84633451955074 L134.37350929662358,352.42143923847755"/><path class="edge section-edge-0 edge-depth-4" d="M 523.8741248675854,423.9028050673106 L 620.6364889102853,436.2063384055664 L717.3988529529852,448.50987174382215"/><path class="edge section-edge-0 edge-depth-4" d="M 494.24504038548673,419.2775887286076 L 389.76967189137946,399.91688856151336 L285.2943033972722,380.5561883944191"/><path class="edge section-edge-0 edge-depth-4" d="M 523.7235599709201,419.17561377023134 L 649.4117412986999,394.9832786827219 L775.0999226264797,370.79094359521247"/><path class="edge section-edge-0 edge-depth-4" d="M 494.6589499249104,426.4275787081672 L 418.4571439153266,449.9064874585399 L342.25533790574275,473.38539620891265"/><path class="edge section-edge-0 edge-depth-4" d="M 523.9935956508523,421.91039624792865 L 611.8247169491572,421.3227246391077 L699.655838247462,420.7350530302868"/><path class="edge section-edge-0 edge-depth-4" d="M 494.085205708417,423.6629982480672 L 375.53584670526135,436.80107843501094 L256.9864877021057,449.9391586219547"/><path class="edge section-edge-0 edge-depth-4" d="M 519.0868543385357,433.107284686395 L 575.6324671281611,495.27558922568164 L632.1780799177866,557.4438937649683"/><path class="edge section-edge-0 edge-depth-3" d="M 404.3522803104537,345.1398126776445 L 450.6287542754188,379.1350359782465 L496.90522824038396,413.1302592788485"/><path class="edge section-edge-0 edge-depth-2" d="M 461.79512205901466,223.45839043885763 L 430.964824618736,273.4743368838929 L400.1345271784573,323.49028332892806"/><path class="edge section-edge-0 edge-depth-1" d="M 429.9342480676197,137.785796198693 L 446.2111193800231,167.65207973285496 L462.4879906924265,197.51836326701692"/><path class="edge section-edge-0 edge-depth-0" d="M 417.30048045871604,48.861250273904346 L 419.48957727865024,79.25739987502644 L421.67867409858445,109.65354947614853"/></g><g class="mindmap-nodes"><g transform="translate(326.8870503872347, 15)" class="mindmap-node section--1 section-root"><g transform="translate(89.3359375, 18.9)"><circle r="89.3359375" class="node-bkg node-circle" id="node-0"/></g><g transform="translate(89.3359375, 5)" text-anchor="middle" dominant-baseline="middle" alignment-baseline="middle" dy="1em"><g><rect style="stroke: none" class="background"/><text style="" y="-10.1"><tspan dy="1.1em" y="-0.1em" x="0" class="text-outer-tspan"><tspan font-weight="normal" class="text-inner-tspan" font-style="normal">IReadOnlyAnnotatable</tspan></tspan></text></g></g></g><g transform="translate(366.8421041700658, 105.71479975005286)" class="mindmap-node section-0"><g><path d="M0 32.8 v-27.799999999999997 q0,-5 5,-5 h101.828125 q5,0 5,5 v32.8 H0 Z" class="node-bkg node-no-border" id="node-1"/><line y2="37.8" x2="111.828125" y1="37.8" x1="0" class="node-line-0"/></g><g transform="translate(55.9140625, 5)" text-anchor="middle" dominant-baseline="middle" alignment-baseline="middle" dy="1em"><g><rect style="stroke: none" class="background"/><text style="" y="-10.1"><tspan dy="1.1em" y="-0.1em" x="0" class="text-outer-tspan"><tspan font-weight="normal" class="text-inner-tspan" font-style="normal">IAnnotatable</tspan></tspan></text></g></g></g><g transform="translate(399.6504470899804, 191.78935971565704)" class="mindmap-node section-0"><g><path d="M0 32.8 v-27.799999999999997 q0,-5 5,-5 h130.03125 q5,0 5,5 v32.8 H0 Z" class="node-bkg node-no-border" id="node-2"/><line y2="37.8" x2="140.03125" y1="37.8" x1="0" class="node-line-0"/></g><g transform="translate(70.015625, 5)" text-anchor="middle" dominant-baseline="middle" alignment-baseline="middle" dy="1em"><g><rect style="stroke: none" class="background"/><text style="" y="-10.1"><tspan dy="1.1em" y="-0.1em" x="0" class="text-outer-tspan"><tspan font-weight="normal" class="text-inner-tspan" font-style="normal">AnnotatableBase</tspan></tspan></text></g></g></g><g transform="translate(338.57607714749156, 317.35931405212864)" class="mindmap-node section-0"><g><path d="M0 32.8 v-27.799999999999997 q0,-5 5,-5 h97.375 q5,0 5,5 v32.8 H0 Z" class="node-bkg node-no-border" id="node-3"/><line y2="37.8" x2="107.375" y1="37.8" x1="0" class="node-line-0"/></g><g transform="translate(53.6875, 5)" text-anchor="middle" dominant-baseline="middle" alignment-baseline="middle" dy="1em"><g><rect style="stroke: none" class="background"/><text style="" y="-10.1"><tspan dy="1.1em" y="-0.1em" x="0" class="text-outer-tspan"><tspan font-weight="normal" class="text-inner-tspan" font-style="normal">Annotatable</tspan></tspan></text></g></g></g><g transform="translate(429.9470564033461, 403.1107579043644)" class="mindmap-node section-0"><g><path d="M0 32.8 v-27.799999999999997 q0,-5 5,-5 h148.09375 q5,0 5,5 v32.8 H0 Z" class="node-bkg node-no-border" id="node-4"/><line y2="37.8" x2="158.09375" y1="37.8" x1="0" class="node-line-0"/></g><g transform="translate(79.046875, 5)" text-anchor="middle" dominant-baseline="middle" alignment-baseline="middle" dy="1em"><g><rect style="stroke: none" class="background"/><text style="" y="-10.1"><tspan dy="1.1em" y="-0.1em" x="0" class="text-outer-tspan"><tspan font-weight="normal" class="text-inner-tspan" font-style="normal">MigrationOperation</tspan></tspan></text></g></g></g><g transform="translate(323.6939970192234, 240.44414721025484)" class="mindmap-node section-0"><g><path d="M0 32.8 v-27.799999999999997 q0,-5 5,-5 h134.921875 q5,0 5,5 v32.8 H0 Z" class="node-bkg node-no-border" id="node-5"/><line y2="37.8" x2="144.921875" y1="37.8" x1="0" class="node-line-0"/></g><g transform="translate(72.4609375, 5)" text-anchor="middle" dominant-baseline="middle" alignment-baseline="middle" dy="1em"><g><rect style="stroke: none" class="background"/><text style="" y="-10.1"><tspan dy="1.1em" y="-0.1em" x="0" class="text-outer-tspan"><tspan font-weight="normal" class="text-inner-tspan" font-style="normal">ColumnOperation</tspan></tspan></text></g></g></g><g transform="translate(327.59843115013564, 483.83239180057944)" class="mindmap-node section-0"><g><path d="M0 32.8 v-27.799999999999997 q0,-5 5,-5 h187.140625 q5,0 5,5 v32.8 H0 Z" class="node-bkg node-no-border" id="node-8"/><line y2="37.8" x2="197.140625" y1="37.8" x1="0" class="node-line-0"/></g><g transform="translate(98.5703125, 5)" text-anchor="middle" dominant-baseline="middle" alignment-baseline="middle" dy="1em"><g><rect style="stroke: none" class="background"/><text style="" y="-10.1"><tspan dy="1.1em" y="-0.1em" x="0" class="text-outer-tspan"><tspan font-weight="normal" class="text-inner-tspan" font-style="normal">AddForeignKeyOperation</tspan></tspan></text></g></g></g><g transform="translate(500.8051125458644, 240.24716378318007)" class="mindmap-node section-0"><g><path d="M0 32.8 v-27.799999999999997 q0,-5 5,-5 h188.625 q5,0 5,5 v32.8 H0 Z" class="node-bkg node-no-border" id="node-9"/><line y2="37.8" x2="198.625" y1="37.8" x1="0" class="node-line-0"/></g><g transform="translate(99.3125, 5)" text-anchor="middle" dominant-baseline="middle" alignment-baseline="middle" dy="1em"><g><rect style="stroke: none" class="background"/><text style="" y="-10.1"><tspan dy="1.1em" y="-0.1em" x="0" class="text-outer-tspan"><tspan font-weight="normal" class="text-inner-tspan" font-style="normal">AddPrimaryKeyOperation</tspan></tspan></text></g></g></g><g transform="translate(809.4745556137418, 458.3470850594788)" class="mindmap-node section-0"><g><path d="M0 50.39999847412109 v-45.39999847412109 q0,-5 5,-5 h204.375 q5,0 5,5 v50.39999847412109 H0 Z" class="node-bkg node-no-border" id="node-10"/><line y2="55.39999847412109" x2="214.375" y1="55.39999847412109" x1="0" class="node-line-0"/></g><g transform="translate(107.1875, 5)" text-anchor="middle" dominant-baseline="middle" alignment-baseline="middle" dy="1em"><g><rect style="stroke: none" class="background"/><text style="" y="-10.1"><tspan dy="1.1em" y="-0.1em" x="0" class="text-outer-tspan"><tspan font-weight="normal" class="text-inner-tspan" font-style="normal">AddUniqueConstraintOpera</tspan></tspan><tspan dy="1.1em" y="1em" x="0" class="text-outer-tspan"><tspan font-weight="normal" class="text-inner-tspan" font-style="normal">tion</tspan></tspan></text></g></g></g><g transform="translate(586.5670511214128, 325.5538425030418)" class="mindmap-node section-0"><g><path d="M0 32.8 v-27.799999999999997 q0,-5 5,-5 h146.78125 q5,0 5,5 v32.8 H0 Z" class="node-bkg node-no-border" id="node-11"/><line y2="37.8" x2="156.78125" y1="37.8" x1="0" class="node-line-0"/></g><g transform="translate(78.390625, 5)" text-anchor="middle" dominant-baseline="middle" alignment-baseline="middle" dy="1em"><g><rect style="stroke: none" class="background"/><text style="" y="-10.1"><tspan dy="1.1em" y="-0.1em" x="0" class="text-outer-tspan"><tspan font-weight="normal" class="text-inner-tspan" font-style="normal">DatabaseOperation</tspan></tspan></text></g></g></g><g transform="translate(666.0075757418217, 281.57168444594015)" class="mindmap-node section-0"><g><path d="M0 32.8 v-27.799999999999997 q0,-5 5,-5 h149.484375 q5,0 5,5 v32.8 H0 Z" class="node-bkg node-no-border" id="node-13"/><line y2="37.8" x2="159.484375" y1="37.8" x1="0" class="node-line-0"/></g><g transform="translate(79.7421875, 5)" text-anchor="middle" dominant-baseline="middle" alignment-baseline="middle" dy="1em"><g><rect style="stroke: none" class="background"/><text style="" y="-10.1"><tspan dy="1.1em" y="-0.1em" x="0" class="text-outer-tspan"><tspan font-weight="normal" class="text-inner-tspan" font-style="normal">SequenceOperation</tspan></tspan></text></g></g></g><g transform="translate(667.0711206923377, 511.78685817827204)" class="mindmap-node section-0"><g><path d="M0 32.8 v-27.799999999999997 q0,-5 5,-5 h119.34375 q5,0 5,5 v32.8 H0 Z" class="node-bkg node-no-border" id="node-16"/><line y2="37.8" x2="129.34375" y1="37.8" x1="0" class="node-line-0"/></g><g transform="translate(64.671875, 5)" text-anchor="middle" dominant-baseline="middle" alignment-baseline="middle" dy="1em"><g><rect style="stroke: none" class="background"/><text style="" y="-10.1"><tspan dy="1.1em" y="-0.1em" x="0" class="text-outer-tspan"><tspan font-weight="normal" class="text-inner-tspan" font-style="normal">TableOperation</tspan></tspan></text></g></g></g><g transform="translate(160.71696284706354, 271.2749119838926)" class="mindmap-node section-0"><g><path d="M0 50.39999847412109 v-45.39999847412109 q0,-5 5,-5 h208.25 q5,0 5,5 v50.39999847412109 H0 Z" class="node-bkg node-no-border" id="node-19"/><line y2="55.39999847412109" x2="218.25" y1="55.39999847412109" x1="0" class="node-line-0"/></g><g transform="translate(109.125, 5)" text-anchor="middle" dominant-baseline="middle" alignment-baseline="middle" dy="1em"><g><rect style="stroke: none" class="background"/><text style="" y="-10.1"><tspan dy="1.1em" y="-0.1em" x="0" class="text-outer-tspan"><tspan font-weight="normal" class="text-inner-tspan" font-style="normal">AddCheckConstraintOperati</tspan></tspan><tspan dy="1.1em" y="1em" x="0" class="text-outer-tspan"><tspan font-weight="normal" class="text-inner-tspan" font-style="normal">on</tspan></tspan></text></g></g></g><g transform="translate(552.5872051360786, 464.9812491169414)" class="mindmap-node section-0"><g><path d="M0 32.8 v-27.799999999999997 q0,-5 5,-5 h168.125 q5,0 5,5 v32.8 H0 Z" class="node-bkg node-no-border" id="node-20"/><line y2="37.8" x2="178.125" y1="37.8" x1="0" class="node-line-0"/></g><g transform="translate(89.0625, 5)" text-anchor="middle" dominant-baseline="middle" alignment-baseline="middle" dy="1em"><g><rect style="stroke: none" class="background"/><text style="" y="-10.1"><tspan dy="1.1em" y="-0.1em" x="0" class="text-outer-tspan"><tspan font-weight="normal" class="text-inner-tspan" font-style="normal">CreateIndexOperation</tspan></tspan></text></g></g></g><g transform="translate(108.01609796893933, 495.28609546161897)" class="mindmap-node section-0"><g><path d="M0 32.8 v-27.799999999999997 q0,-5 5,-5 h168.453125 q5,0 5,5 v32.8 H0 Z" class="node-bkg node-no-border" id="node-21"/><line y2="37.8" x2="178.453125" y1="37.8" x1="0" class="node-line-0"/></g><g transform="translate(89.2265625, 5)" text-anchor="middle" dominant-baseline="middle" alignment-baseline="middle" dy="1em"><g><rect style="stroke: none" class="background"/><text style="" y="-10.1"><tspan dy="1.1em" y="-0.1em" x="0" class="text-outer-tspan"><tspan font-weight="normal" class="text-inner-tspan" font-style="normal">DropColumnOperation</tspan></tspan></text></g></g></g><g transform="translate(371.45707903040875, 426.87975954175135)" class="mindmap-node section-0"><g><path d="M0 32.8 v-27.799999999999997 q0,-5 5,-5 h193.40625 q5,0 5,5 v32.8 H0 Z" class="node-bkg node-no-border" id="node-22"/><line y2="37.8" x2="203.40625" y1="37.8" x1="0" class="node-line-0"/></g><g transform="translate(101.703125, 5)" text-anchor="middle" dominant-baseline="middle" alignment-baseline="middle" dy="1em"><g><rect style="stroke: none" class="background"/><text style="" y="-10.1"><tspan dy="1.1em" y="-0.1em" x="0" class="text-outer-tspan"><tspan font-weight="normal" class="text-inner-tspan" font-style="normal">DropForeignKeyOperation</tspan></tspan></text></g></g></g><g transform="translate(244.22965739832216, 387.08983736264145)" class="mindmap-node section-0"><g><path d="M0 32.8 v-27.799999999999997 q0,-5 5,-5 h153.671875 q5,0 5,5 v32.8 H0 Z" class="node-bkg node-no-border" id="node-23"/><line y2="37.8" x2="163.671875" y1="37.8" x1="0" class="node-line-0"/></g><g transform="translate(81.8359375, 5)" text-anchor="middle" dominant-baseline="middle" alignment-baseline="middle" dy="1em"><g><rect style="stroke: none" class="background"/><text style="" y="-10.1"><tspan dy="1.1em" y="-0.1em" x="0" class="text-outer-tspan"><tspan font-weight="normal" class="text-inner-tspan" font-style="normal">DropIndexOperation</tspan></tspan></text></g></g></g><g transform="translate(15, 398.5295397895386)" class="mindmap-node section-0"><g><path d="M0 32.8 v-27.799999999999997 q0,-5 5,-5 h194.890625 q5,0 5,5 v32.8 H0 Z" class="node-bkg node-no-border" id="node-24"/><line y2="37.8" x2="204.890625" y1="37.8" x1="0" class="node-line-0"/></g><g transform="translate(102.4453125, 5)" text-anchor="middle" dominant-baseline="middle" alignment-baseline="middle" dy="1em"><g><rect style="stroke: none" class="background"/><text style="" y="-10.1"><tspan dy="1.1em" y="-0.1em" x="0" class="text-outer-tspan"><tspan font-weight="normal" class="text-inner-tspan" font-style="normal">DropPrimaryKeyOperation</tspan></tspan></text></g></g></g><g transform="translate(267.15510595455066, 535.6272995805025)" class="mindmap-node section-0"><g><path d="M0 32.8 v-27.799999999999997 q0,-5 5,-5 h169.59375 q5,0 5,5 v32.8 H0 Z" class="node-bkg node-no-border" id="node-25"/><line y2="37.8" x2="179.59375" y1="37.8" x1="0" class="node-line-0"/></g><g transform="translate(89.796875, 5)" text-anchor="middle" dominant-baseline="middle" alignment-baseline="middle" dy="1em"><g><rect style="stroke: none" class="background"/><text style="" y="-10.1"><tspan dy="1.1em" y="-0.1em" x="0" class="text-outer-tspan"><tspan font-weight="normal" class="text-inner-tspan" font-style="normal">DropSchemaOperation</tspan></tspan></text></g></g></g><g transform="translate(460.1161378508946, 512.4946514561298)" class="mindmap-node section-0"><g><path d="M0 32.8 v-27.799999999999997 q0,-5 5,-5 h183.015625 q5,0 5,5 v32.8 H0 Z" class="node-bkg node-no-border" id="node-26"/><line y2="37.8" x2="193.015625" y1="37.8" x1="0" class="node-line-0"/></g><g transform="translate(96.5078125, 5)" text-anchor="middle" dominant-baseline="middle" alignment-baseline="middle" dy="1em"><g><rect style="stroke: none" class="background"/><text style="" y="-10.1"><tspan dy="1.1em" y="-0.1em" x="0" class="text-outer-tspan"><tspan font-weight="normal" class="text-inner-tspan" font-style="normal">DropSequenceOperation</tspan></tspan></text></g></g></g><g transform="translate(505.7202154375318, 366.4850841157231)" class="mindmap-node section-0"><g><path d="M0 32.8 v-27.799999999999997 q0,-5 5,-5 h152.875 q5,0 5,5 v32.8 H0 Z" class="node-bkg node-no-border" id="node-27"/><line y2="37.8" x2="162.875" y1="37.8" x1="0" class="node-line-0"/></g><g transform="translate(81.4375, 5)" text-anchor="middle" dominant-baseline="middle" alignment-baseline="middle" dy="1em"><g><rect style="stroke: none" class="background"/><text style="" y="-10.1"><tspan dy="1.1em" y="-0.1em" x="0" class="text-outer-tspan"><tspan font-weight="normal" class="text-inner-tspan" font-style="normal">DropTableOperation</tspan></tspan></text></g></g></g><g transform="translate(820.8975478246148, 378.6938643031681)" class="mindmap-node section-0"><g><path d="M0 50.39999847412109 v-45.39999847412109 q0,-5 5,-5 h202.234375 q5,0 5,5 v50.39999847412109 H0 Z" class="node-bkg node-no-border" id="node-28"/><line y2="55.39999847412109" x2="212.234375" y1="55.39999847412109" x1="0" class="node-line-0"/></g><g transform="translate(106.1171875, 5)" text-anchor="middle" dominant-baseline="middle" alignment-baseline="middle" dy="1em"><g><rect style="stroke: none" class="background"/><text style="" y="-10.1"><tspan dy="1.1em" y="-0.1em" x="0" class="text-outer-tspan"><tspan font-weight="normal" class="text-inner-tspan" font-style="normal">DropUniqueConstraintOper</tspan></tspan><tspan dy="1.1em" y="1em" x="0" class="text-outer-tspan"><tspan font-weight="normal" class="text-inner-tspan" font-style="normal">ation</tspan></tspan></text></g></g></g><g transform="translate(345.86274839018665, 580.1838224050202)" class="mindmap-node section-0"><g><path d="M0 50.39999847412109 v-45.39999847412109 q0,-5 5,-5 h209.953125 q5,0 5,5 v50.39999847412109 H0 Z" class="node-bkg node-no-border" id="node-29"/><line y2="55.39999847412109" x2="219.953125" y1="55.39999847412109" x1="0" class="node-line-0"/></g><g transform="translate(109.9765625, 5)" text-anchor="middle" dominant-baseline="middle" alignment-baseline="middle" dy="1em"><g><rect style="stroke: none" class="background"/><text style="" y="-10.1"><tspan dy="1.1em" y="-0.1em" x="0" class="text-outer-tspan"><tspan font-weight="normal" class="text-inner-tspan" font-style="normal">DropCheckConstraintOperat</tspan></tspan><tspan dy="1.1em" y="1em" x="0" class="text-outer-tspan"><tspan font-weight="normal" class="text-inner-tspan" font-style="normal">ion</tspan></tspan></text></g></g></g><g transform="translate(378.1779620678019, 339.3541987911433)" class="mindmap-node section-0"><g><path d="M0 32.8 v-27.799999999999997 q0,-5 5,-5 h183.53125 q5,0 5,5 v32.8 H0 Z" class="node-bkg node-no-border" id="node-30"/><line y2="37.8" x2="193.53125" y1="37.8" x1="0" class="node-line-0"/></g><g transform="translate(96.765625, 5)" text-anchor="middle" dominant-baseline="middle" alignment-baseline="middle" dy="1em"><g><rect style="stroke: none" class="background"/><text style="" y="-10.1"><tspan dy="1.1em" y="-0.1em" x="0" class="text-outer-tspan"><tspan font-weight="normal" class="text-inner-tspan" font-style="normal">EnsureSchemaOperation</tspan></tspan></text></g></g></g><g transform="translate(413.9351680385855, 277.96355684043715)" class="mindmap-node section-0"><g><path d="M0 32.8 v-27.799999999999997 q0,-5 5,-5 h191.46875 q5,0 5,5 v32.8 H0 Z" class="node-bkg node-no-border" id="node-31"/><line y2="37.8" x2="201.46875" y1="37.8" x1="0" class="node-line-0"/></g><g transform="translate(100.734375, 5)" text-anchor="middle" dominant-baseline="middle" alignment-baseline="middle" dy="1em"><g><rect style="stroke: none" class="background"/><text style="" y="-10.1"><tspan dy="1.1em" y="-0.1em" x="0" class="text-outer-tspan"><tspan font-weight="normal" class="text-inner-tspan" font-style="normal">RenameColumnOperation</tspan></tspan></text></g></g></g><g transform="translate(26.282048092208925, 330.78191113473713)" class="mindmap-node section-0"><g><path d="M0 32.8 v-27.799999999999997 q0,-5 5,-5 h176.6875 q5,0 5,5 v32.8 H0 Z" class="node-bkg node-no-border" id="node-32"/><line y2="37.8" x2="186.6875" y1="37.8" x1="0" class="node-line-0"/></g><g transform="translate(93.34375, 5)" text-anchor="middle" dominant-baseline="middle" alignment-baseline="middle" dy="1em"><g><rect style="stroke: none" class="background"/><text style="" y="-10.1"><tspan dy="1.1em" y="-0.1em" x="0" class="text-outer-tspan"><tspan font-weight="normal" class="text-inner-tspan" font-style="normal">RenameIndexOperation</tspan></tspan></text></g></g></g><g transform="translate(624.2634214172244, 431.5019189067684)" class="mindmap-node section-0"><g><path d="M0 32.8 v-27.799999999999997 q0,-5 5,-5 h206.03125 q5,0 5,5 v32.8 H0 Z" class="node-bkg node-no-border" id="node-33"/><line y2="37.8" x2="216.03125" y1="37.8" x1="0" class="node-line-0"/></g><g transform="translate(108.015625, 5)" text-anchor="middle" dominant-baseline="middle" alignment-baseline="middle" dy="1em"><g><rect style="stroke: none" class="background"/><text style="" y="-10.1"><tspan dy="1.1em" y="-0.1em" x="0" class="text-outer-tspan"><tspan font-weight="normal" class="text-inner-tspan" font-style="normal">RenameSequenceOperation</tspan></tspan></text></g></g></g><g transform="translate(177.60009987941282, 358.9230192186624)" class="mindmap-node section-0"><g><path d="M0 32.8 v-27.799999999999997 q0,-5 5,-5 h175.890625 q5,0 5,5 v32.8 H0 Z" class="node-bkg node-no-border" id="node-34"/><line y2="37.8" x2="185.890625" y1="37.8" x1="0" class="node-line-0"/></g><g transform="translate(92.9453125, 5)" text-anchor="middle" dominant-baseline="middle" alignment-baseline="middle" dy="1em"><g><rect style="stroke: none" class="background"/><text style="" y="-10.1"><tspan dy="1.1em" y="-0.1em" x="0" class="text-outer-tspan"><tspan font-weight="normal" class="text-inner-tspan" font-style="normal">RenameTableOperation</tspan></tspan></text></g></g></g><g transform="translate(684.5014261940537, 349.05579946107946)" class="mindmap-node section-0"><g><path d="M0 32.8 v-27.799999999999997 q0,-5 5,-5 h200.65625 q5,0 5,5 v32.8 H0 Z" class="node-bkg node-no-border" id="node-35"/><line y2="37.8" x2="210.65625" y1="37.8" x1="0" class="node-line-0"/></g><g transform="translate(105.328125, 5)" text-anchor="middle" dominant-baseline="middle" alignment-baseline="middle" dy="1em"><g><rect style="stroke: none" class="background"/><text style="" y="-10.1"><tspan dy="1.1em" y="-0.1em" x="0" class="text-outer-tspan"><tspan font-weight="normal" class="text-inner-tspan" font-style="normal">RestartSequenceOperation</tspan></tspan></text></g></g></g><g transform="translate(271.61566892730707, 458.9022170127155)" class="mindmap-node section-0"><g><path d="M0 32.8 v-27.799999999999997 q0,-5 5,-5 h102.609375 q5,0 5,5 v32.8 H0 Z" class="node-bkg node-no-border" id="node-36"/><line y2="37.8" x2="112.609375" y1="37.8" x1="0" class="node-line-0"/></g><g transform="translate(56.3046875, 5)" text-anchor="middle" dominant-baseline="middle" alignment-baseline="middle" dy="1em"><g><rect style="stroke: none" class="background"/><text style="" y="-10.1"><tspan dy="1.1em" y="-0.1em" x="0" class="text-outer-tspan"><tspan font-weight="normal" class="text-inner-tspan" font-style="normal">SqlOperation</tspan></tspan></text></g></g></g><g transform="translate(632.0461274949682, 401.7346913738511)" class="mindmap-node section-0"><g><path d="M0 32.8 v-27.799999999999997 q0,-5 5,-5 h155.21875 q5,0 5,5 v32.8 H0 Z" class="node-bkg node-no-border" id="node-37"/><line y2="37.8" x2="165.21875" y1="37.8" x1="0" class="node-line-0"/></g><g transform="translate(82.609375, 5)" text-anchor="middle" dominant-baseline="middle" alignment-baseline="middle" dy="1em"><g><rect style="stroke: none" class="background"/><text style="" y="-10.1"><tspan dy="1.1em" y="-0.1em" x="0" class="text-outer-tspan"><tspan font-weight="normal" class="text-inner-tspan" font-style="normal">InsertDataOperation</tspan></tspan></text></g></g></g><g transform="translate(156.4215120071766, 432.6913989656575)" class="mindmap-node section-0"><g><path d="M0 32.8 v-27.799999999999997 q0,-5 5,-5 h161.3125 q5,0 5,5 v32.8 H0 Z" class="node-bkg node-no-border" id="node-38"/><line y2="37.8" x2="171.3125" y1="37.8" x1="0" class="node-line-0"/></g><g transform="translate(85.65625, 5)" text-anchor="middle" dominant-baseline="middle" alignment-baseline="middle" dy="1em"><g><rect style="stroke: none" class="background"/><text style="" y="-10.1"><tspan dy="1.1em" y="-0.1em" x="0" class="text-outer-tspan"><tspan font-weight="normal" class="text-inner-tspan" font-style="normal">DeleteDataOperation</tspan></tspan></text></g></g></g><g transform="translate(554.3022528529762, 549.6404205469989)" class="mindmap-node section-0"><g><path d="M0 32.8 v-27.799999999999997 q0,-5 5,-5 h165.9375 q5,0 5,5 v32.8 H0 Z" class="node-bkg node-no-border" id="node-39"/><line y2="37.8" x2="175.9375" y1="37.8" x1="0" class="node-line-0"/></g><g transform="translate(87.96875, 5)" text-anchor="middle" dominant-baseline="middle" alignment-baseline="middle" dy="1em"><g><rect style="stroke: none" class="background"/><text style="" y="-10.1"><tspan dy="1.1em" y="-0.1em" x="0" class="text-outer-tspan"><tspan font-weight="normal" class="text-inner-tspan" font-style="normal">UpdateDataOperation</tspan></tspan></text></g></g></g><g transform="translate(199.67980270983185, 165.11027213185048)" class="mindmap-node section-0"><g><path d="M0 32.8 v-27.799999999999997 q0,-5 5,-5 h162.1875 q5,0 5,5 v32.8 H0 Z" class="node-bkg node-no-border" id="node-6"/><line y2="37.8" x2="172.1875" y1="37.8" x1="0" class="node-line-0"/></g><g transform="translate(86.09375, 5)" text-anchor="middle" dominant-baseline="middle" alignment-baseline="middle" dy="1em"><g><rect style="stroke: none" class="background"/><text style="" y="-10.1"><tspan dy="1.1em" y="-0.1em" x="0" class="text-outer-tspan"><tspan font-weight="normal" class="text-inner-tspan" font-style="normal">AddColumnOperation</tspan></tspan></text></g></g></g><g transform="translate(75.95230657108618, 215.226061358464)" class="mindmap-node section-0"><g><path d="M0 32.8 v-27.799999999999997 q0,-5 5,-5 h170.375 q5,0 5,5 v32.8 H0 Z" class="node-bkg node-no-border" id="node-7"/><line y2="37.8" x2="180.375" y1="37.8" x1="0" class="node-line-0"/></g><g transform="translate(90.1875, 5)" text-anchor="middle" dominant-baseline="middle" alignment-baseline="middle" dy="1em"><g><rect style="stroke: none" class="background"/><text style="" y="-10.1"><tspan dy="1.1em" y="-0.1em" x="0" class="text-outer-tspan"><tspan font-weight="normal" class="text-inner-tspan" font-style="normal">AlterColumnOperation</tspan></tspan></text></g></g></g><g transform="translate(843.7036088808097, 305.1940110774706)" class="mindmap-node section-0"><g><path d="M0 32.8 v-27.799999999999997 q0,-5 5,-5 h182.21875 q5,0 5,5 v32.8 H0 Z" class="node-bkg node-no-border" id="node-12"/><line y2="37.8" x2="192.21875" y1="37.8" x1="0" class="node-line-0"/></g><g transform="translate(96.109375, 5)" text-anchor="middle" dominant-baseline="middle" alignment-baseline="middle" dy="1em"><g><rect style="stroke: none" class="background"/><text style="" y="-10.1"><tspan dy="1.1em" y="-0.1em" x="0" class="text-outer-tspan"><tspan font-weight="normal" class="text-inner-tspan" font-style="normal">AlterDatabaseOperation</tspan></tspan></text></g></g></g><g transform="translate(836.3732697436631, 224.7821050424667)" class="mindmap-node section-0"><g><path d="M0 32.8 v-27.799999999999997 q0,-5 5,-5 h184.921875 q5,0 5,5 v32.8 H0 Z" class="node-bkg node-no-border" id="node-14"/><line y2="37.8" x2="194.921875" y1="37.8" x1="0" class="node-line-0"/></g><g transform="translate(97.4609375, 5)" text-anchor="middle" dominant-baseline="middle" alignment-baseline="middle" dy="1em"><g><rect style="stroke: none" class="background"/><text style="" y="-10.1"><tspan dy="1.1em" y="-0.1em" x="0" class="text-outer-tspan"><tspan font-weight="normal" class="text-inner-tspan" font-style="normal">AlterSequenceOperation</tspan></tspan></text></g></g></g><g transform="translate(602.4809689501578, 186.17214648122388)" class="mindmap-node section-0"><g><path d="M0 32.8 v-27.799999999999997 q0,-5 5,-5 h197.46875 q5,0 5,5 v32.8 H0 Z" class="node-bkg node-no-border" id="node-15"/><line y2="37.8" x2="207.46875" y1="37.8" x1="0" class="node-line-0"/></g><g transform="translate(103.734375, 5)" text-anchor="middle" dominant-baseline="middle" alignment-baseline="middle" dy="1em"><g><rect style="stroke: none" class="background"/><text style="" y="-10.1"><tspan dy="1.1em" y="-0.1em" x="0" class="text-outer-tspan"><tspan font-weight="normal" class="text-inner-tspan" font-style="normal">CreateSequenceOperation</tspan></tspan></text></g></g></g><g transform="translate(857.4075458369987, 559.1148363596315)" class="mindmap-node section-0"><g><path d="M0 32.8 v-27.799999999999997 q0,-5 5,-5 h154.796875 q5,0 5,5 v32.8 H0 Z" class="node-bkg node-no-border" id="node-17"/><line y2="37.8" x2="164.796875" y1="37.8" x1="0" class="node-line-0"/></g><g transform="translate(82.3984375, 5)" text-anchor="middle" dominant-baseline="middle" alignment-baseline="middle" dy="1em"><g><rect style="stroke: none" class="background"/><text style="" y="-10.1"><tspan dy="1.1em" y="-0.1em" x="0" class="text-outer-tspan"><tspan font-weight="normal" class="text-inner-tspan" font-style="normal">AlterTableOperation</tspan></tspan></text></g></g></g><g transform="translate(669.3621679435403, 605.6529896257339)" class="mindmap-node section-0"><g><path d="M0 32.8 v-27.799999999999997 q0,-5 5,-5 h167.34375 q5,0 5,5 v32.8 H0 Z" class="node-bkg node-no-border" id="node-18"/><line y2="37.8" x2="177.34375" y1="37.8" x1="0" class="node-line-0"/></g><g transform="translate(88.671875, 5)" text-anchor="middle" dominant-baseline="middle" alignment-baseline="middle" dy="1em"><g><rect style="stroke: none" class="background"/><text style="" y="-10.1"><tspan dy="1.1em" y="-0.1em" x="0" class="text-outer-tspan"><tspan font-weight="normal" class="text-inner-tspan" font-style="normal">CreateTableOperation</tspan></tspan></text></g></g></g></g></svg>