<svg aria-roledescription="er" role="graphics-document document" viewBox="0 0 824.1875 554.91796875" style="max-width: 824.188px; background-color: white;" xmlns:xlink="http://www.w3.org/1999/xlink" xmlns="http://www.w3.org/2000/svg" width="100%" id="my-svg"><style>#my-svg{font-family:"trebuchet ms",verdana,arial,sans-serif;font-size:16px;fill:#333;}#my-svg .error-icon{fill:#552222;}#my-svg .error-text{fill:#552222;stroke:#552222;}#my-svg .edge-thickness-normal{stroke-width:1px;}#my-svg .edge-thickness-thick{stroke-width:3.5px;}#my-svg .edge-pattern-solid{stroke-dasharray:0;}#my-svg .edge-thickness-invisible{stroke-width:0;fill:none;}#my-svg .edge-pattern-dashed{stroke-dasharray:3;}#my-svg .edge-pattern-dotted{stroke-dasharray:2;}#my-svg .marker{fill:#333333;stroke:#333333;}#my-svg .marker.cross{stroke:#333333;}#my-svg svg{font-family:"trebuchet ms",verdana,arial,sans-serif;font-size:16px;}#my-svg p{margin:0;}#my-svg .entityBox{fill:#ECECFF;stroke:#9370DB;}#my-svg .attributeBoxOdd{fill:#ffffff;stroke:#9370DB;}#my-svg .attributeBoxEven{fill:#f2f2f2;stroke:#9370DB;}#my-svg .relationshipLabelBox{fill:hsl(80, 100%, 96.2745098039%);opacity:0.7;background-color:hsl(80, 100%, 96.2745098039%);}#my-svg .relationshipLabelBox rect{opacity:0.5;}#my-svg .relationshipLine{stroke:#333333;}#my-svg .entityTitleText{text-anchor:middle;font-size:18px;fill:#333;}#my-svg #MD_PARENT_START{fill:#f5f5f5!important;stroke:#333333!important;stroke-width:1;}#my-svg #MD_PARENT_END{fill:#f5f5f5!important;stroke:#333333!important;stroke-width:1;}#my-svg :root{--mermaid-font-family:"trebuchet ms",verdana,arial,sans-serif;}</style><g/><defs><marker orient="auto" markerHeight="240" markerWidth="190" refY="7" refX="0" id="MD_PARENT_START"><path d="M 18,7 L9,13 L1,7 L9,1 Z"/></marker></defs><defs><marker orient="auto" markerHeight="28" markerWidth="20" refY="7" refX="19" id="MD_PARENT_END"><path d="M 18,7 L9,13 L1,7 L9,1 Z"/></marker></defs><defs><marker orient="auto" markerHeight="18" markerWidth="18" refY="9" refX="0" id="ONLY_ONE_START"><path d="M9,0 L9,18 M15,0 L15,18" fill="none" stroke="gray"/></marker></defs><defs><marker orient="auto" markerHeight="18" markerWidth="18" refY="9" refX="18" id="ONLY_ONE_END"><path d="M3,0 L3,18 M9,0 L9,18" fill="none" stroke="gray"/></marker></defs><defs><marker orient="auto" markerHeight="18" markerWidth="30" refY="9" refX="0" id="ZERO_OR_ONE_START"><circle r="6" cy="9" cx="21" fill="white" stroke="gray"/><path d="M9,0 L9,18" fill="none" stroke="gray"/></marker></defs><defs><marker orient="auto" markerHeight="18" markerWidth="30" refY="9" refX="30" id="ZERO_OR_ONE_END"><circle r="6" cy="9" cx="9" fill="white" stroke="gray"/><path d="M21,0 L21,18" fill="none" stroke="gray"/></marker></defs><defs><marker orient="auto" markerHeight="36" markerWidth="45" refY="18" refX="18" id="ONE_OR_MORE_START"><path d="M0,18 Q 18,0 36,18 Q 18,36 0,18 M42,9 L42,27" fill="none" stroke="gray"/></marker></defs><defs><marker orient="auto" markerHeight="36" markerWidth="45" refY="18" refX="27" id="ONE_OR_MORE_END"><path d="M3,9 L3,27 M9,18 Q27,0 45,18 Q27,36 9,18" fill="none" stroke="gray"/></marker></defs><defs><marker orient="auto" markerHeight="36" markerWidth="57" refY="18" refX="18" id="ZERO_OR_MORE_START"><circle r="6" cy="18" cx="48" fill="white" stroke="gray"/><path d="M0,18 Q18,0 36,18 Q18,36 0,18" fill="none" stroke="gray"/></marker></defs><defs><marker orient="auto" markerHeight="36" markerWidth="57" refY="18" refX="39" id="ZERO_OR_MORE_END"><circle r="6" cy="18" cx="9" fill="white" stroke="gray"/><path d="M21,18 Q39,0 57,18 Q39,36 21,18" fill="none" stroke="gray"/></marker></defs><path style="stroke: gray; fill: none;" marker-start="url(#ONLY_ONE_START)" marker-end="url(#ZERO_OR_MORE_END)" d="M81.719,121.275L81.719,131.457C81.719,141.639,81.719,162.003,106.616,183.14C131.513,204.276,181.307,226.185,206.204,237.14L231.102,248.094" class="er relationshipLine"/><path style="stroke: gray; fill: none;" marker-start="url(#ONLY_ONE_START)" marker-end="url(#ZERO_OR_MORE_END)" d="M297.945,322.597L297.945,330.938C297.945,339.279,297.945,355.961,307.204,372.941C316.462,389.922,334.979,407.202,344.238,415.841L353.496,424.481" class="er relationshipLine"/><path style="stroke: gray; fill: none;" marker-start="url(#ONLY_ONE_START)" marker-end="url(#ZERO_OR_MORE_END)" d="M297.945,132.367L297.945,140.701C297.945,149.034,297.945,165.701,297.945,182.375C297.945,199.049,297.945,215.731,297.945,224.072L297.945,232.413" class="er relationshipLine"/><path style="stroke: gray; fill: none;" marker-start="url(#ONLY_ONE_START)" marker-end="url(#ZERO_OR_MORE_END)" d="M525.422,322.643L525.422,330.976C525.422,339.309,525.422,355.976,516.163,372.949C506.905,389.922,488.388,407.202,479.13,415.841L469.871,424.481" class="er relationshipLine"/><path style="stroke: gray; fill: none;" marker-start="url(#ONLY_ONE_START)" marker-end="url(#ZERO_OR_MORE_END)" d="M743.555,121.321L743.555,131.496C743.555,141.67,743.555,162.019,680.427,185.671C617.299,209.323,491.044,236.278,427.917,249.756L364.789,263.234" class="er relationshipLine"/><g transform="translate(20,31.091796875 )" id="entity-LABTECHNICIAN-78ab4c2c-3280-506d-8e0d-460beb1a2eb6"><rect height="90.18359565734863" width="123.4375" y="0" x="0" class="er entityBox"/><text style="dominant-baseline: middle; text-anchor: middle; font-size: 12px;" transform="translate(61.71875,12)" y="0" x="0" id="text-entity-LABTECHNICIAN-78ab4c2c-3280-506d-8e0d-460beb1a2eb6" class="er entityLabel">LAB_TECHNICIAN</text><rect height="22" width="35.75" y="24" x="0" class="er attributeBoxOdd"/><text style="dominant-baseline: middle; font-size: 10.2px;" transform="translate(5,35)" y="0" x="0" id="text-entity-LABTECHNICIAN-78ab4c2c-3280-506d-8e0d-460beb1a2eb6-attr-1-type" class="er entityLabel">int</text><rect height="22" width="66.125" y="24" x="35.75" class="er attributeBoxOdd"/><text style="dominant-baseline: middle; font-size: 10.2px;" transform="translate(40.75,35)" y="0" x="0" id="text-entity-LABTECHNICIAN-78ab4c2c-3280-506d-8e0d-460beb1a2eb6-attr-1-name" class="er entityLabel">technicianId</text><rect height="22" width="21.5625" y="24" x="101.875" class="er attributeBoxOdd"/><text style="dominant-baseline: middle; font-size: 10.2px;" transform="translate(106.875,35)" y="0" x="0" id="text-entity-LABTECHNICIAN-78ab4c2c-3280-506d-8e0d-460beb1a2eb6-attr-1-key" class="er entityLabel">PK</text><rect height="22.091797828674316" width="35.75" y="46" x="0" class="er attributeBoxEven"/><text style="dominant-baseline: middle; font-size: 10.2px;" transform="translate(5,57.04589891433716)" y="0" x="0" id="text-entity-LABTECHNICIAN-78ab4c2c-3280-506d-8e0d-460beb1a2eb6-attr-2-type" class="er entityLabel">string</text><rect height="22.091797828674316" width="66.125" y="46" x="35.75" class="er attributeBoxEven"/><text style="dominant-baseline: middle; font-size: 10.2px;" transform="translate(40.75,57.04589891433716)" y="0" x="0" id="text-entity-LABTECHNICIAN-78ab4c2c-3280-506d-8e0d-460beb1a2eb6-attr-2-name" class="er entityLabel">name</text><rect height="22.091797828674316" width="21.5625" y="46" x="101.875" class="er attributeBoxEven"/><text style="dominant-baseline: middle; font-size: 10.2px;" transform="translate(106.875,57.04589891433716)" y="0" x="0" id="text-entity-LABTECHNICIAN-78ab4c2c-3280-506d-8e0d-460beb1a2eb6-attr-2-key" class="er entityLabel"/><rect height="22.091797828674316" width="35.75" y="68.09179782867432" x="0" class="er attributeBoxOdd"/><text style="dominant-baseline: middle; font-size: 10.2px;" transform="translate(5,79.13769674301147)" y="0" x="0" id="text-entity-LABTECHNICIAN-78ab4c2c-3280-506d-8e0d-460beb1a2eb6-attr-3-type" class="er entityLabel">string</text><rect height="22.091797828674316" width="66.125" y="68.09179782867432" x="35.75" class="er attributeBoxOdd"/><text style="dominant-baseline: middle; font-size: 10.2px;" transform="translate(40.75,79.13769674301147)" y="0" x="0" id="text-entity-LABTECHNICIAN-78ab4c2c-3280-506d-8e0d-460beb1a2eb6-attr-3-name" class="er entityLabel">email</text><rect height="22.091797828674316" width="21.5625" y="68.09179782867432" x="101.875" class="er attributeBoxOdd"/><text style="dominant-baseline: middle; font-size: 10.2px;" transform="translate(106.875,79.13769674301147)" y="0" x="0" id="text-entity-LABTECHNICIAN-78ab4c2c-3280-506d-8e0d-460beb1a2eb6-attr-3-key" class="er entityLabel"/></g><g transform="translate(231.1015625,232.4130859375 )" id="entity-SAMPLE-cf44372c-7eeb-5506-a8f0-5d6743a0792b"><rect height="90.18359470367432" width="133.6875" y="0" x="0" class="er entityBox"/><text style="dominant-baseline: middle; text-anchor: middle; font-size: 12px;" transform="translate(66.84375,12)" y="0" x="0" id="text-entity-SAMPLE-cf44372c-7eeb-5506-a8f0-5d6743a0792b" class="er entityLabel">SAMPLE</text><rect height="22.091796875" width="35.75" y="24" x="0" class="er attributeBoxOdd"/><text style="dominant-baseline: middle; font-size: 10.2px;" transform="translate(5,35.0458984375)" y="0" x="0" id="text-entity-SAMPLE-cf44372c-7eeb-5506-a8f0-5d6743a0792b-attr-1-type" class="er entityLabel">int</text><rect height="22.091796875" width="76.375" y="24" x="35.75" class="er attributeBoxOdd"/><text style="dominant-baseline: middle; font-size: 10.2px;" transform="translate(40.75,35.0458984375)" y="0" x="0" id="text-entity-SAMPLE-cf44372c-7eeb-5506-a8f0-5d6743a0792b-attr-1-name" class="er entityLabel">sampleId</text><rect height="22.091796875" width="21.5625" y="24" x="112.125" class="er attributeBoxOdd"/><text style="dominant-baseline: middle; font-size: 10.2px;" transform="translate(117.125,35.0458984375)" y="0" x="0" id="text-entity-SAMPLE-cf44372c-7eeb-5506-a8f0-5d6743a0792b-attr-1-key" class="er entityLabel">PK</text><rect height="22.091797828674316" width="35.75" y="46.091796875" x="0" class="er attributeBoxEven"/><text style="dominant-baseline: middle; font-size: 10.2px;" transform="translate(5,57.13769578933716)" y="0" x="0" id="text-entity-SAMPLE-cf44372c-7eeb-5506-a8f0-5d6743a0792b-attr-2-type" class="er entityLabel">string</text><rect height="22.091797828674316" width="76.375" y="46.091796875" x="35.75" class="er attributeBoxEven"/><text style="dominant-baseline: middle; font-size: 10.2px;" transform="translate(40.75,57.13769578933716)" y="0" x="0" id="text-entity-SAMPLE-cf44372c-7eeb-5506-a8f0-5d6743a0792b-attr-2-name" class="er entityLabel">type</text><rect height="22.091797828674316" width="21.5625" y="46.091796875" x="112.125" class="er attributeBoxEven"/><text style="dominant-baseline: middle; font-size: 10.2px;" transform="translate(117.125,57.13769578933716)" y="0" x="0" id="text-entity-SAMPLE-cf44372c-7eeb-5506-a8f0-5d6743a0792b-attr-2-key" class="er entityLabel"/><rect height="22" width="35.75" y="68.18359470367432" x="0" class="er attributeBoxOdd"/><text style="dominant-baseline: middle; font-size: 10.2px;" transform="translate(5,79.18359470367432)" y="0" x="0" id="text-entity-SAMPLE-cf44372c-7eeb-5506-a8f0-5d6743a0792b-attr-3-type" class="er entityLabel">date</text><rect height="22" width="76.375" y="68.18359470367432" x="35.75" class="er attributeBoxOdd"/><text style="dominant-baseline: middle; font-size: 10.2px;" transform="translate(40.75,79.18359470367432)" y="0" x="0" id="text-entity-SAMPLE-cf44372c-7eeb-5506-a8f0-5d6743a0792b-attr-3-name" class="er entityLabel">collectionDate</text><rect height="22" width="21.5625" y="68.18359470367432" x="112.125" class="er attributeBoxOdd"/><text style="dominant-baseline: middle; font-size: 10.2px;" transform="translate(117.125,79.18359470367432)" y="0" x="0" id="text-entity-SAMPLE-cf44372c-7eeb-5506-a8f0-5d6743a0792b-attr-3-key" class="er entityLabel"/></g><g transform="translate(353.49609375,422.642578125 )" id="entity-TEST-f5cb0284-462c-52e3-a49b-92ed52eb87ca"><rect height="112.27539348602295" width="116.375" y="0" x="0" class="er entityBox"/><text style="dominant-baseline: middle; text-anchor: middle; font-size: 12px;" transform="translate(58.1875,12)" y="0" x="0" id="text-entity-TEST-f5cb0284-462c-52e3-a49b-92ed52eb87ca" class="er entityLabel">TEST</text><rect height="22" width="35.75" y="24" x="0" class="er attributeBoxOdd"/><text style="dominant-baseline: middle; font-size: 10.2px;" transform="translate(5,35)" y="0" x="0" id="text-entity-TEST-f5cb0284-462c-52e3-a49b-92ed52eb87ca-attr-1-type" class="er entityLabel">int</text><rect height="22" width="59.0625" y="24" x="35.75" class="er attributeBoxOdd"/><text style="dominant-baseline: middle; font-size: 10.2px;" transform="translate(40.75,35)" y="0" x="0" id="text-entity-TEST-f5cb0284-462c-52e3-a49b-92ed52eb87ca-attr-1-name" class="er entityLabel">testId</text><rect height="22" width="21.5625" y="24" x="94.8125" class="er attributeBoxOdd"/><text style="dominant-baseline: middle; font-size: 10.2px;" transform="translate(99.8125,35)" y="0" x="0" id="text-entity-TEST-f5cb0284-462c-52e3-a49b-92ed52eb87ca-attr-1-key" class="er entityLabel">PK</text><rect height="22.091797828674316" width="35.75" y="46" x="0" class="er attributeBoxEven"/><text style="dominant-baseline: middle; font-size: 10.2px;" transform="translate(5,57.04589891433716)" y="0" x="0" id="text-entity-TEST-f5cb0284-462c-52e3-a49b-92ed52eb87ca-attr-2-type" class="er entityLabel">string</text><rect height="22.091797828674316" width="59.0625" y="46" x="35.75" class="er attributeBoxEven"/><text style="dominant-baseline: middle; font-size: 10.2px;" transform="translate(40.75,57.04589891433716)" y="0" x="0" id="text-entity-TEST-f5cb0284-462c-52e3-a49b-92ed52eb87ca-attr-2-name" class="er entityLabel">name</text><rect height="22.091797828674316" width="21.5625" y="46" x="94.8125" class="er attributeBoxEven"/><text style="dominant-baseline: middle; font-size: 10.2px;" transform="translate(99.8125,57.04589891433716)" y="0" x="0" id="text-entity-TEST-f5cb0284-462c-52e3-a49b-92ed52eb87ca-attr-2-key" class="er entityLabel"/><rect height="22.091797828674316" width="35.75" y="68.09179782867432" x="0" class="er attributeBoxOdd"/><text style="dominant-baseline: middle; font-size: 10.2px;" transform="translate(5,79.13769674301147)" y="0" x="0" id="text-entity-TEST-f5cb0284-462c-52e3-a49b-92ed52eb87ca-attr-3-type" class="er entityLabel">string</text><rect height="22.091797828674316" width="59.0625" y="68.09179782867432" x="35.75" class="er attributeBoxOdd"/><text style="dominant-baseline: middle; font-size: 10.2px;" transform="translate(40.75,79.13769674301147)" y="0" x="0" id="text-entity-TEST-f5cb0284-462c-52e3-a49b-92ed52eb87ca-attr-3-name" class="er entityLabel">method</text><rect height="22.091797828674316" width="21.5625" y="68.09179782867432" x="94.8125" class="er attributeBoxOdd"/><text style="dominant-baseline: middle; font-size: 10.2px;" transform="translate(99.8125,79.13769674301147)" y="0" x="0" id="text-entity-TEST-f5cb0284-462c-52e3-a49b-92ed52eb87ca-attr-3-key" class="er entityLabel"/><rect height="22.091797828674316" width="35.75" y="90.18359565734863" x="0" class="er attributeBoxEven"/><text style="dominant-baseline: middle; font-size: 10.2px;" transform="translate(5,101.22949457168579)" y="0" x="0" id="text-entity-TEST-f5cb0284-462c-52e3-a49b-92ed52eb87ca-attr-4-type" class="er entityLabel">string</text><rect height="22.091797828674316" width="59.0625" y="90.18359565734863" x="35.75" class="er attributeBoxEven"/><text style="dominant-baseline: middle; font-size: 10.2px;" transform="translate(40.75,101.22949457168579)" y="0" x="0" id="text-entity-TEST-f5cb0284-462c-52e3-a49b-92ed52eb87ca-attr-4-name" class="er entityLabel">equipment</text><rect height="22.091797828674316" width="21.5625" y="90.18359565734863" x="94.8125" class="er attributeBoxEven"/><text style="dominant-baseline: middle; font-size: 10.2px;" transform="translate(99.8125,101.22949457168579)" y="0" x="0" id="text-entity-TEST-f5cb0284-462c-52e3-a49b-92ed52eb87ca-attr-4-key" class="er entityLabel"/></g><g transform="translate(243.4375,20 )" id="entity-PATIENT-1d5528e4-b873-5fa2-b03f-2264906c1060"><rect height="112.36719131469727" width="109.015625" y="0" x="0" class="er entityBox"/><text style="dominant-baseline: middle; text-anchor: middle; font-size: 12px;" transform="translate(54.5078125,12)" y="0" x="0" id="text-entity-PATIENT-1d5528e4-b873-5fa2-b03f-2264906c1060" class="er entityLabel">PATIENT</text><rect height="22.091797828674316" width="35.75" y="24" x="0" class="er attributeBoxOdd"/><text style="dominant-baseline: middle; font-size: 10.2px;" transform="translate(5,35.04589891433716)" y="0" x="0" id="text-entity-PATIENT-1d5528e4-b873-5fa2-b03f-2264906c1060-attr-1-type" class="er entityLabel">int</text><rect height="22.091797828674316" width="51.703125" y="24" x="35.75" class="er attributeBoxOdd"/><text style="dominant-baseline: middle; font-size: 10.2px;" transform="translate(40.75,35.04589891433716)" y="0" x="0" id="text-entity-PATIENT-1d5528e4-b873-5fa2-b03f-2264906c1060-attr-1-name" class="er entityLabel">patientId</text><rect height="22.091797828674316" width="21.5625" y="24" x="87.453125" class="er attributeBoxOdd"/><text style="dominant-baseline: middle; font-size: 10.2px;" transform="translate(92.453125,35.04589891433716)" y="0" x="0" id="text-entity-PATIENT-1d5528e4-b873-5fa2-b03f-2264906c1060-attr-1-key" class="er entityLabel">PK</text><rect height="22.091797828674316" width="35.75" y="46.091797828674316" x="0" class="er attributeBoxEven"/><text style="dominant-baseline: middle; font-size: 10.2px;" transform="translate(5,57.137696743011475)" y="0" x="0" id="text-entity-PATIENT-1d5528e4-b873-5fa2-b03f-2264906c1060-attr-2-type" class="er entityLabel">string</text><rect height="22.091797828674316" width="51.703125" y="46.091797828674316" x="35.75" class="er attributeBoxEven"/><text style="dominant-baseline: middle; font-size: 10.2px;" transform="translate(40.75,57.137696743011475)" y="0" x="0" id="text-entity-PATIENT-1d5528e4-b873-5fa2-b03f-2264906c1060-attr-2-name" class="er entityLabel">name</text><rect height="22.091797828674316" width="21.5625" y="46.091797828674316" x="87.453125" class="er attributeBoxEven"/><text style="dominant-baseline: middle; font-size: 10.2px;" transform="translate(92.453125,57.137696743011475)" y="0" x="0" id="text-entity-PATIENT-1d5528e4-b873-5fa2-b03f-2264906c1060-attr-2-key" class="er entityLabel"/><rect height="22.091797828674316" width="35.75" y="68.18359565734863" x="0" class="er attributeBoxOdd"/><text style="dominant-baseline: middle; font-size: 10.2px;" transform="translate(5,79.22949457168579)" y="0" x="0" id="text-entity-PATIENT-1d5528e4-b873-5fa2-b03f-2264906c1060-attr-3-type" class="er entityLabel">string</text><rect height="22.091797828674316" width="51.703125" y="68.18359565734863" x="35.75" class="er attributeBoxOdd"/><text style="dominant-baseline: middle; font-size: 10.2px;" transform="translate(40.75,79.22949457168579)" y="0" x="0" id="text-entity-PATIENT-1d5528e4-b873-5fa2-b03f-2264906c1060-attr-3-name" class="er entityLabel">dob</text><rect height="22.091797828674316" width="21.5625" y="68.18359565734863" x="87.453125" class="er attributeBoxOdd"/><text style="dominant-baseline: middle; font-size: 10.2px;" transform="translate(92.453125,79.22949457168579)" y="0" x="0" id="text-entity-PATIENT-1d5528e4-b873-5fa2-b03f-2264906c1060-attr-3-key" class="er entityLabel"/><rect height="22.091797828674316" width="35.75" y="90.27539348602295" x="0" class="er attributeBoxEven"/><text style="dominant-baseline: middle; font-size: 10.2px;" transform="translate(5,101.32129240036011)" y="0" x="0" id="text-entity-PATIENT-1d5528e4-b873-5fa2-b03f-2264906c1060-attr-4-type" class="er entityLabel">string</text><rect height="22.091797828674316" width="51.703125" y="90.27539348602295" x="35.75" class="er attributeBoxEven"/><text style="dominant-baseline: middle; font-size: 10.2px;" transform="translate(40.75,101.32129240036011)" y="0" x="0" id="text-entity-PATIENT-1d5528e4-b873-5fa2-b03f-2264906c1060-attr-4-name" class="er entityLabel">gender</text><rect height="22.091797828674316" width="21.5625" y="90.27539348602295" x="87.453125" class="er attributeBoxEven"/><text style="dominant-baseline: middle; font-size: 10.2px;" transform="translate(92.453125,101.32129240036011)" y="0" x="0" id="text-entity-PATIENT-1d5528e4-b873-5fa2-b03f-2264906c1060-attr-4-key" class="er entityLabel"/></g><g transform="translate(452.453125,20.091796875 )" id="entity-RESULT-f01ccfdc-b7d2-534d-88c2-2b8a7038842d"><rect height="112.18359565734863" width="130.46875" y="0" x="0" class="er entityBox"/><text style="dominant-baseline: middle; text-anchor: middle; font-size: 12px;" transform="translate(65.234375,12)" y="0" x="0" id="text-entity-RESULT-f01ccfdc-b7d2-534d-88c2-2b8a7038842d" class="er entityLabel">RESULT</text><rect height="22" width="35.75" y="24" x="0" class="er attributeBoxOdd"/><text style="dominant-baseline: middle; font-size: 10.2px;" transform="translate(5,35)" y="0" x="0" id="text-entity-RESULT-f01ccfdc-b7d2-534d-88c2-2b8a7038842d-attr-1-type" class="er entityLabel">int</text><rect height="22" width="73.15625" y="24" x="35.75" class="er attributeBoxOdd"/><text style="dominant-baseline: middle; font-size: 10.2px;" transform="translate(40.75,35)" y="0" x="0" id="text-entity-RESULT-f01ccfdc-b7d2-534d-88c2-2b8a7038842d-attr-1-name" class="er entityLabel">resultId</text><rect height="22" width="21.5625" y="24" x="108.90625" class="er attributeBoxOdd"/><text style="dominant-baseline: middle; font-size: 10.2px;" transform="translate(113.90625,35)" y="0" x="0" id="text-entity-RESULT-f01ccfdc-b7d2-534d-88c2-2b8a7038842d-attr-1-key" class="er entityLabel">PK</text><rect height="22.091797828674316" width="35.75" y="46" x="0" class="er attributeBoxEven"/><text style="dominant-baseline: middle; font-size: 10.2px;" transform="translate(5,57.04589891433716)" y="0" x="0" id="text-entity-RESULT-f01ccfdc-b7d2-534d-88c2-2b8a7038842d-attr-2-type" class="er entityLabel">string</text><rect height="22.091797828674316" width="73.15625" y="46" x="35.75" class="er attributeBoxEven"/><text style="dominant-baseline: middle; font-size: 10.2px;" transform="translate(40.75,57.04589891433716)" y="0" x="0" id="text-entity-RESULT-f01ccfdc-b7d2-534d-88c2-2b8a7038842d-attr-2-name" class="er entityLabel">value</text><rect height="22.091797828674316" width="21.5625" y="46" x="108.90625" class="er attributeBoxEven"/><text style="dominant-baseline: middle; font-size: 10.2px;" transform="translate(113.90625,57.04589891433716)" y="0" x="0" id="text-entity-RESULT-f01ccfdc-b7d2-534d-88c2-2b8a7038842d-attr-2-key" class="er entityLabel"/><rect height="22.091797828674316" width="35.75" y="68.09179782867432" x="0" class="er attributeBoxOdd"/><text style="dominant-baseline: middle; font-size: 10.2px;" transform="translate(5,79.13769674301147)" y="0" x="0" id="text-entity-RESULT-f01ccfdc-b7d2-534d-88c2-2b8a7038842d-attr-3-type" class="er entityLabel">string</text><rect height="22.091797828674316" width="73.15625" y="68.09179782867432" x="35.75" class="er attributeBoxOdd"/><text style="dominant-baseline: middle; font-size: 10.2px;" transform="translate(40.75,79.13769674301147)" y="0" x="0" id="text-entity-RESULT-f01ccfdc-b7d2-534d-88c2-2b8a7038842d-attr-3-name" class="er entityLabel">unit</text><rect height="22.091797828674316" width="21.5625" y="68.09179782867432" x="108.90625" class="er attributeBoxOdd"/><text style="dominant-baseline: middle; font-size: 10.2px;" transform="translate(113.90625,79.13769674301147)" y="0" x="0" id="text-entity-RESULT-f01ccfdc-b7d2-534d-88c2-2b8a7038842d-attr-3-key" class="er entityLabel"/><rect height="22" width="35.75" y="90.18359565734863" x="0" class="er attributeBoxEven"/><text style="dominant-baseline: middle; font-size: 10.2px;" transform="translate(5,101.18359565734863)" y="0" x="0" id="text-entity-RESULT-f01ccfdc-b7d2-534d-88c2-2b8a7038842d-attr-4-type" class="er entityLabel">date</text><rect height="22" width="73.15625" y="90.18359565734863" x="35.75" class="er attributeBoxEven"/><text style="dominant-baseline: middle; font-size: 10.2px;" transform="translate(40.75,101.18359565734863)" y="0" x="0" id="text-entity-RESULT-f01ccfdc-b7d2-534d-88c2-2b8a7038842d-attr-4-name" class="er entityLabel">dateRecorded</text><rect height="22" width="21.5625" y="90.18359565734863" x="108.90625" class="er attributeBoxEven"/><text style="dominant-baseline: middle; font-size: 10.2px;" transform="translate(113.90625,101.18359565734863)" y="0" x="0" id="text-entity-RESULT-f01ccfdc-b7d2-534d-88c2-2b8a7038842d-attr-4-key" class="er entityLabel"/></g><g transform="translate(464.7890625,232.3671875 )" id="entity-LABANALYST-56d62e74-2de0-5ee6-bc4d-2ec9731a6776"><rect height="90.27539253234863" width="121.265625" y="0" x="0" class="er entityBox"/><text style="dominant-baseline: middle; text-anchor: middle; font-size: 12px;" transform="translate(60.6328125,12)" y="0" x="0" id="text-entity-LABANALYST-56d62e74-2de0-5ee6-bc4d-2ec9731a6776" class="er entityLabel">LAB_ANALYST</text><rect height="22.091796875" width="35.75" y="24" x="0" class="er attributeBoxOdd"/><text style="dominant-baseline: middle; font-size: 10.2px;" transform="translate(5,35.0458984375)" y="0" x="0" id="text-entity-LABANALYST-56d62e74-2de0-5ee6-bc4d-2ec9731a6776-attr-1-type" class="er entityLabel">int</text><rect height="22.091796875" width="63.953125" y="24" x="35.75" class="er attributeBoxOdd"/><text style="dominant-baseline: middle; font-size: 10.2px;" transform="translate(40.75,35.0458984375)" y="0" x="0" id="text-entity-LABANALYST-56d62e74-2de0-5ee6-bc4d-2ec9731a6776-attr-1-name" class="er entityLabel">analystId</text><rect height="22.091796875" width="21.5625" y="24" x="99.703125" class="er attributeBoxOdd"/><text style="dominant-baseline: middle; font-size: 10.2px;" transform="translate(104.703125,35.0458984375)" y="0" x="0" id="text-entity-LABANALYST-56d62e74-2de0-5ee6-bc4d-2ec9731a6776-attr-1-key" class="er entityLabel">PK</text><rect height="22.091797828674316" width="35.75" y="46.091796875" x="0" class="er attributeBoxEven"/><text style="dominant-baseline: middle; font-size: 10.2px;" transform="translate(5,57.13769578933716)" y="0" x="0" id="text-entity-LABANALYST-56d62e74-2de0-5ee6-bc4d-2ec9731a6776-attr-2-type" class="er entityLabel">string</text><rect height="22.091797828674316" width="63.953125" y="46.091796875" x="35.75" class="er attributeBoxEven"/><text style="dominant-baseline: middle; font-size: 10.2px;" transform="translate(40.75,57.13769578933716)" y="0" x="0" id="text-entity-LABANALYST-56d62e74-2de0-5ee6-bc4d-2ec9731a6776-attr-2-name" class="er entityLabel">name</text><rect height="22.091797828674316" width="21.5625" y="46.091796875" x="99.703125" class="er attributeBoxEven"/><text style="dominant-baseline: middle; font-size: 10.2px;" transform="translate(104.703125,57.13769578933716)" y="0" x="0" id="text-entity-LABANALYST-56d62e74-2de0-5ee6-bc4d-2ec9731a6776-attr-2-key" class="er entityLabel"/><rect height="22.091797828674316" width="35.75" y="68.18359470367432" x="0" class="er attributeBoxOdd"/><text style="dominant-baseline: middle; font-size: 10.2px;" transform="translate(5,79.22949361801147)" y="0" x="0" id="text-entity-LABANALYST-56d62e74-2de0-5ee6-bc4d-2ec9731a6776-attr-3-type" class="er entityLabel">string</text><rect height="22.091797828674316" width="63.953125" y="68.18359470367432" x="35.75" class="er attributeBoxOdd"/><text style="dominant-baseline: middle; font-size: 10.2px;" transform="translate(40.75,79.22949361801147)" y="0" x="0" id="text-entity-LABANALYST-56d62e74-2de0-5ee6-bc4d-2ec9731a6776-attr-3-name" class="er entityLabel">department</text><rect height="22.091797828674316" width="21.5625" y="68.18359470367432" x="99.703125" class="er attributeBoxOdd"/><text style="dominant-baseline: middle; font-size: 10.2px;" transform="translate(104.703125,79.22949361801147)" y="0" x="0" id="text-entity-LABANALYST-56d62e74-2de0-5ee6-bc4d-2ec9731a6776-attr-3-key" class="er entityLabel"/></g><g transform="translate(682.921875,31.0458984375 )" id="entity-LABMANAGER-5f110d4c-8264-597a-b1da-a58a17061ea3"><rect height="90.27539253234863" width="121.265625" y="0" x="0" class="er entityBox"/><text style="dominant-baseline: middle; text-anchor: middle; font-size: 12px;" transform="translate(60.6328125,12)" y="0" x="0" id="text-entity-LABMANAGER-5f110d4c-8264-597a-b1da-a58a17061ea3" class="er entityLabel">LAB_MANAGER</text><rect height="22.091796875" width="35.75" y="24" x="0" class="er attributeBoxOdd"/><text style="dominant-baseline: middle; font-size: 10.2px;" transform="translate(5,35.0458984375)" y="0" x="0" id="text-entity-LABMANAGER-5f110d4c-8264-597a-b1da-a58a17061ea3-attr-1-type" class="er entityLabel">int</text><rect height="22.091796875" width="63.953125" y="24" x="35.75" class="er attributeBoxOdd"/><text style="dominant-baseline: middle; font-size: 10.2px;" transform="translate(40.75,35.0458984375)" y="0" x="0" id="text-entity-LABMANAGER-5f110d4c-8264-597a-b1da-a58a17061ea3-attr-1-name" class="er entityLabel">managerId</text><rect height="22.091796875" width="21.5625" y="24" x="99.703125" class="er attributeBoxOdd"/><text style="dominant-baseline: middle; font-size: 10.2px;" transform="translate(104.703125,35.0458984375)" y="0" x="0" id="text-entity-LABMANAGER-5f110d4c-8264-597a-b1da-a58a17061ea3-attr-1-key" class="er entityLabel">PK</text><rect height="22.091797828674316" width="35.75" y="46.091796875" x="0" class="er attributeBoxEven"/><text style="dominant-baseline: middle; font-size: 10.2px;" transform="translate(5,57.13769578933716)" y="0" x="0" id="text-entity-LABMANAGER-5f110d4c-8264-597a-b1da-a58a17061ea3-attr-2-type" class="er entityLabel">string</text><rect height="22.091797828674316" width="63.953125" y="46.091796875" x="35.75" class="er attributeBoxEven"/><text style="dominant-baseline: middle; font-size: 10.2px;" transform="translate(40.75,57.13769578933716)" y="0" x="0" id="text-entity-LABMANAGER-5f110d4c-8264-597a-b1da-a58a17061ea3-attr-2-name" class="er entityLabel">name</text><rect height="22.091797828674316" width="21.5625" y="46.091796875" x="99.703125" class="er attributeBoxEven"/><text style="dominant-baseline: middle; font-size: 10.2px;" transform="translate(104.703125,57.13769578933716)" y="0" x="0" id="text-entity-LABMANAGER-5f110d4c-8264-597a-b1da-a58a17061ea3-attr-2-key" class="er entityLabel"/><rect height="22.091797828674316" width="35.75" y="68.18359470367432" x="0" class="er attributeBoxOdd"/><text style="dominant-baseline: middle; font-size: 10.2px;" transform="translate(5,79.22949361801147)" y="0" x="0" id="text-entity-LABMANAGER-5f110d4c-8264-597a-b1da-a58a17061ea3-attr-3-type" class="er entityLabel">string</text><rect height="22.091797828674316" width="63.953125" y="68.18359470367432" x="35.75" class="er attributeBoxOdd"/><text style="dominant-baseline: middle; font-size: 10.2px;" transform="translate(40.75,79.22949361801147)" y="0" x="0" id="text-entity-LABMANAGER-5f110d4c-8264-597a-b1da-a58a17061ea3-attr-3-name" class="er entityLabel">department</text><rect height="22.091797828674316" width="21.5625" y="68.18359470367432" x="99.703125" class="er attributeBoxOdd"/><text style="dominant-baseline: middle; font-size: 10.2px;" transform="translate(104.703125,79.22949361801147)" y="0" x="0" id="text-entity-LABMANAGER-5f110d4c-8264-597a-b1da-a58a17061ea3-attr-3-key" class="er entityLabel"/></g><rect height="14" width="41.5625" y="195.99652099609375" x="115.25172424316406" class="er relationshipLabelBox"/><text style="text-anchor: middle; dominant-baseline: middle; font-size: 12px;" y="202.99652099609375" x="136.03297424316406" id="rel1" class="er relationshipLabel">collects</text><rect height="14" width="54.875" y="373.4720153808594" x="284.4260559082031" class="er relationshipLabelBox"/><text style="text-anchor: middle; dominant-baseline: middle; font-size: 12px;" y="380.4720153808594" x="311.8635559082031" id="rel2" class="er relationshipLabel">undergoes</text><rect height="14" width="45.1875" y="175.38999938964844" x="275.35125732421875" class="er relationshipLabelBox"/><text style="text-anchor: middle; dominant-baseline: middle; font-size: 12px;" y="182.38999938964844" x="297.94500732421875" id="rel3" class="er relationshipLabel">provides</text><rect height="14" width="45.734375" y="373.49188232421875" x="488.6260986328125" class="er relationshipLabelBox"/><text style="text-anchor: middle; dominant-baseline: middle; font-size: 12px;" y="380.49188232421875" x="511.4932861328125" id="rel4" class="er relationshipLabel">analyzes</text><rect height="14" width="54.875" y="210.25439453125" x="544.2606201171875" class="er relationshipLabelBox"/><text style="text-anchor: middle; dominant-baseline: middle; font-size: 12px;" y="217.25439453125" x="571.6981201171875" id="rel5" class="er relationshipLabel">supervises</text></svg>