<svg aria-roledescription="er" role="graphics-document document" viewBox="0 0 806.453125 833.1015625" style="max-width: 806.453px; background-color: white;" xmlns:xlink="http://www.w3.org/1999/xlink" xmlns="http://www.w3.org/2000/svg" width="100%" id="my-svg"><style>#my-svg{font-family:"trebuchet ms",verdana,arial,sans-serif;font-size:16px;fill:#333;}#my-svg .error-icon{fill:#552222;}#my-svg .error-text{fill:#552222;stroke:#552222;}#my-svg .edge-thickness-normal{stroke-width:1px;}#my-svg .edge-thickness-thick{stroke-width:3.5px;}#my-svg .edge-pattern-solid{stroke-dasharray:0;}#my-svg .edge-thickness-invisible{stroke-width:0;fill:none;}#my-svg .edge-pattern-dashed{stroke-dasharray:3;}#my-svg .edge-pattern-dotted{stroke-dasharray:2;}#my-svg .marker{fill:#333333;stroke:#333333;}#my-svg .marker.cross{stroke:#333333;}#my-svg svg{font-family:"trebuchet ms",verdana,arial,sans-serif;font-size:16px;}#my-svg p{margin:0;}#my-svg .entityBox{fill:#ECECFF;stroke:#9370DB;}#my-svg .attributeBoxOdd{fill:#ffffff;stroke:#9370DB;}#my-svg .attributeBoxEven{fill:#f2f2f2;stroke:#9370DB;}#my-svg .relationshipLabelBox{fill:hsl(80, 100%, 96.2745098039%);opacity:0.7;background-color:hsl(80, 100%, 96.2745098039%);}#my-svg .relationshipLabelBox rect{opacity:0.5;}#my-svg .relationshipLine{stroke:#333333;}#my-svg .entityTitleText{text-anchor:middle;font-size:18px;fill:#333;}#my-svg #MD_PARENT_START{fill:#f5f5f5!important;stroke:#333333!important;stroke-width:1;}#my-svg #MD_PARENT_END{fill:#f5f5f5!important;stroke:#333333!important;stroke-width:1;}#my-svg :root{--mermaid-font-family:"trebuchet ms",verdana,arial,sans-serif;}</style><g/><defs><marker orient="auto" markerHeight="240" markerWidth="190" refY="7" refX="0" id="MD_PARENT_START"><path d="M 18,7 L9,13 L1,7 L9,1 Z"/></marker></defs><defs><marker orient="auto" markerHeight="28" markerWidth="20" refY="7" refX="19" id="MD_PARENT_END"><path d="M 18,7 L9,13 L1,7 L9,1 Z"/></marker></defs><defs><marker orient="auto" markerHeight="18" markerWidth="18" refY="9" refX="0" id="ONLY_ONE_START"><path d="M9,0 L9,18 M15,0 L15,18" fill="none" stroke="gray"/></marker></defs><defs><marker orient="auto" markerHeight="18" markerWidth="18" refY="9" refX="18" id="ONLY_ONE_END"><path d="M3,0 L3,18 M9,0 L9,18" fill="none" stroke="gray"/></marker></defs><defs><marker orient="auto" markerHeight="18" markerWidth="30" refY="9" refX="0" id="ZERO_OR_ONE_START"><circle r="6" cy="9" cx="21" fill="white" stroke="gray"/><path d="M9,0 L9,18" fill="none" stroke="gray"/></marker></defs><defs><marker orient="auto" markerHeight="18" markerWidth="30" refY="9" refX="30" id="ZERO_OR_ONE_END"><circle r="6" cy="9" cx="9" fill="white" stroke="gray"/><path d="M21,0 L21,18" fill="none" stroke="gray"/></marker></defs><defs><marker orient="auto" markerHeight="36" markerWidth="45" refY="18" refX="18" id="ONE_OR_MORE_START"><path d="M0,18 Q 18,0 36,18 Q 18,36 0,18 M42,9 L42,27" fill="none" stroke="gray"/></marker></defs><defs><marker orient="auto" markerHeight="36" markerWidth="45" refY="18" refX="27" id="ONE_OR_MORE_END"><path d="M3,9 L3,27 M9,18 Q27,0 45,18 Q27,36 9,18" fill="none" stroke="gray"/></marker></defs><defs><marker orient="auto" markerHeight="36" markerWidth="57" refY="18" refX="18" id="ZERO_OR_MORE_START"><circle r="6" cy="18" cx="48" fill="white" stroke="gray"/><path d="M0,18 Q18,0 36,18 Q18,36 0,18" fill="none" stroke="gray"/></marker></defs><defs><marker orient="auto" markerHeight="36" markerWidth="57" refY="18" refX="39" id="ZERO_OR_MORE_END"><circle r="6" cy="18" cx="9" fill="white" stroke="gray"/><path d="M21,18 Q39,0 57,18 Q39,36 21,18" fill="none" stroke="gray"/></marker></defs><path style="stroke: gray; fill: none;" marker-start="url(#ONLY_ONE_START)" marker-end="url(#ZERO_OR_MORE_END)" d="M85.063,578.918L85.063,587.251C85.063,595.585,85.063,612.251,129.534,636.763C174.005,661.274,262.948,693.631,307.419,709.809L351.891,725.987" class="er relationshipLine"/><path style="stroke: gray; fill: none;" marker-start="url(#ONLY_ONE_START)" marker-end="url(#ZERO_OR_MORE_END)" d="M301.117,578.872L301.117,587.213C301.117,595.554,301.117,612.236,309.579,629.941C318.042,647.647,334.966,666.375,343.428,675.739L351.891,685.104" class="er relationshipLine"/><path style="stroke: gray; fill: none;" marker-start="url(#ONLY_ONE_START)" marker-end="url(#ZERO_OR_MORE_END)" d="M512.742,567.826L512.742,578.008C512.742,588.19,512.742,608.554,504.28,628.1C495.818,647.647,478.893,666.375,470.431,675.739L461.969,685.104" class="er relationshipLine"/><path style="stroke: gray; fill: none;" marker-start="url(#ONLY_ONE_START)" marker-end="url(#ZERO_OR_MORE_END)" d="M301.117,344.459L301.117,352.792C301.117,361.126,301.117,377.792,301.117,394.467C301.117,411.141,301.117,427.823,301.117,436.164L301.117,444.505" class="er relationshipLine"/><path style="stroke: gray; fill: none;" marker-start="url(#ONLY_ONE_START)" marker-end="url(#ZERO_OR_MORE_END)" d="M301.117,132.275L301.117,140.609C301.117,148.942,301.117,165.609,301.117,182.275C301.117,198.942,301.117,215.609,301.117,223.942L301.117,232.275" class="er relationshipLine"/><path style="stroke: gray; fill: none;" marker-start="url(#ONLY_ONE_START)" marker-end="url(#ZERO_OR_MORE_END)" d="M729.914,567.826L729.914,578.008C729.914,588.19,729.914,608.554,685.257,634.926C640.599,661.297,551.284,693.677,506.626,709.867L461.969,726.056" class="er relationshipLine"/><g transform="translate(20,444.458984375 )" id="entity-LAWYER-516e62bf-31c6-5d08-97bb-584eb0cf5f8c"><rect height="134.45898818969727" width="130.125" y="0" x="0" class="er entityBox"/><text style="dominant-baseline: middle; text-anchor: middle; font-size: 12px;" transform="translate(65.0625,12)" y="0" x="0" id="text-entity-LAWYER-516e62bf-31c6-5d08-97bb-584eb0cf5f8c" class="er entityLabel">LAWYER</text><rect height="22.091796875" width="35.75" y="24" x="0" class="er attributeBoxOdd"/><text style="dominant-baseline: middle; font-size: 10.2px;" transform="translate(5,35.0458984375)" y="0" x="0" id="text-entity-LAWYER-516e62bf-31c6-5d08-97bb-584eb0cf5f8c-attr-1-type" class="er entityLabel">int</text><rect height="22.091796875" width="72.8125" y="24" x="35.75" class="er attributeBoxOdd"/><text style="dominant-baseline: middle; font-size: 10.2px;" transform="translate(40.75,35.0458984375)" y="0" x="0" id="text-entity-LAWYER-516e62bf-31c6-5d08-97bb-584eb0cf5f8c-attr-1-name" class="er entityLabel">lawyerId</text><rect height="22.091796875" width="21.5625" y="24" x="108.5625" class="er attributeBoxOdd"/><text style="dominant-baseline: middle; font-size: 10.2px;" transform="translate(113.5625,35.0458984375)" y="0" x="0" id="text-entity-LAWYER-516e62bf-31c6-5d08-97bb-584eb0cf5f8c-attr-1-key" class="er entityLabel">PK</text><rect height="22.091797828674316" width="35.75" y="46.091796875" x="0" class="er attributeBoxEven"/><text style="dominant-baseline: middle; font-size: 10.2px;" transform="translate(5,57.13769578933716)" y="0" x="0" id="text-entity-LAWYER-516e62bf-31c6-5d08-97bb-584eb0cf5f8c-attr-2-type" class="er entityLabel">string</text><rect height="22.091797828674316" width="72.8125" y="46.091796875" x="35.75" class="er attributeBoxEven"/><text style="dominant-baseline: middle; font-size: 10.2px;" transform="translate(40.75,57.13769578933716)" y="0" x="0" id="text-entity-LAWYER-516e62bf-31c6-5d08-97bb-584eb0cf5f8c-attr-2-name" class="er entityLabel">name</text><rect height="22.091797828674316" width="21.5625" y="46.091796875" x="108.5625" class="er attributeBoxEven"/><text style="dominant-baseline: middle; font-size: 10.2px;" transform="translate(113.5625,57.13769578933716)" y="0" x="0" id="text-entity-LAWYER-516e62bf-31c6-5d08-97bb-584eb0cf5f8c-attr-2-key" class="er entityLabel"/><rect height="22.091797828674316" width="35.75" y="68.18359470367432" x="0" class="er attributeBoxOdd"/><text style="dominant-baseline: middle; font-size: 10.2px;" transform="translate(5,79.22949361801147)" y="0" x="0" id="text-entity-LAWYER-516e62bf-31c6-5d08-97bb-584eb0cf5f8c-attr-3-type" class="er entityLabel">string</text><rect height="22.091797828674316" width="72.8125" y="68.18359470367432" x="35.75" class="er attributeBoxOdd"/><text style="dominant-baseline: middle; font-size: 10.2px;" transform="translate(40.75,79.22949361801147)" y="0" x="0" id="text-entity-LAWYER-516e62bf-31c6-5d08-97bb-584eb0cf5f8c-attr-3-name" class="er entityLabel">email</text><rect height="22.091797828674316" width="21.5625" y="68.18359470367432" x="108.5625" class="er attributeBoxOdd"/><text style="dominant-baseline: middle; font-size: 10.2px;" transform="translate(113.5625,79.22949361801147)" y="0" x="0" id="text-entity-LAWYER-516e62bf-31c6-5d08-97bb-584eb0cf5f8c-attr-3-key" class="er entityLabel"/><rect height="22.091797828674316" width="35.75" y="90.27539253234863" x="0" class="er attributeBoxEven"/><text style="dominant-baseline: middle; font-size: 10.2px;" transform="translate(5,101.32129144668579)" y="0" x="0" id="text-entity-LAWYER-516e62bf-31c6-5d08-97bb-584eb0cf5f8c-attr-4-type" class="er entityLabel">string</text><rect height="22.091797828674316" width="72.8125" y="90.27539253234863" x="35.75" class="er attributeBoxEven"/><text style="dominant-baseline: middle; font-size: 10.2px;" transform="translate(40.75,101.32129144668579)" y="0" x="0" id="text-entity-LAWYER-516e62bf-31c6-5d08-97bb-584eb0cf5f8c-attr-4-name" class="er entityLabel">specialization</text><rect height="22.091797828674316" width="21.5625" y="90.27539253234863" x="108.5625" class="er attributeBoxEven"/><text style="dominant-baseline: middle; font-size: 10.2px;" transform="translate(113.5625,101.32129144668579)" y="0" x="0" id="text-entity-LAWYER-516e62bf-31c6-5d08-97bb-584eb0cf5f8c-attr-4-key" class="er entityLabel"/><rect height="22.091797828674316" width="35.75" y="112.36719036102295" x="0" class="er attributeBoxOdd"/><text style="dominant-baseline: middle; font-size: 10.2px;" transform="translate(5,123.41308927536011)" y="0" x="0" id="text-entity-LAWYER-516e62bf-31c6-5d08-97bb-584eb0cf5f8c-attr-5-type" class="er entityLabel">string</text><rect height="22.091797828674316" width="72.8125" y="112.36719036102295" x="35.75" class="er attributeBoxOdd"/><text style="dominant-baseline: middle; font-size: 10.2px;" transform="translate(40.75,123.41308927536011)" y="0" x="0" id="text-entity-LAWYER-516e62bf-31c6-5d08-97bb-584eb0cf5f8c-attr-5-name" class="er entityLabel">phone</text><rect height="22.091797828674316" width="21.5625" y="112.36719036102295" x="108.5625" class="er attributeBoxOdd"/><text style="dominant-baseline: middle; font-size: 10.2px;" transform="translate(113.5625,123.41308927536011)" y="0" x="0" id="text-entity-LAWYER-516e62bf-31c6-5d08-97bb-584eb0cf5f8c-attr-5-key" class="er entityLabel"/></g><g transform="translate(351.890625,678.91796875 )" id="entity-CASE-b3f01edb-d223-5faa-abb6-f7777d995355"><rect height="134.18359565734863" width="110.078125" y="0" x="0" class="er entityBox"/><text style="dominant-baseline: middle; text-anchor: middle; font-size: 12px;" transform="translate(55.0390625,12)" y="0" x="0" id="text-entity-CASE-b3f01edb-d223-5faa-abb6-f7777d995355" class="er entityLabel">CASE</text><rect height="22" width="35.75" y="24" x="0" class="er attributeBoxOdd"/><text style="dominant-baseline: middle; font-size: 10.2px;" transform="translate(5,35)" y="0" x="0" id="text-entity-CASE-b3f01edb-d223-5faa-abb6-f7777d995355-attr-1-type" class="er entityLabel">int</text><rect height="22" width="52.765625" y="24" x="35.75" class="er attributeBoxOdd"/><text style="dominant-baseline: middle; font-size: 10.2px;" transform="translate(40.75,35)" y="0" x="0" id="text-entity-CASE-b3f01edb-d223-5faa-abb6-f7777d995355-attr-1-name" class="er entityLabel">caseId</text><rect height="22" width="21.5625" y="24" x="88.515625" class="er attributeBoxOdd"/><text style="dominant-baseline: middle; font-size: 10.2px;" transform="translate(93.515625,35)" y="0" x="0" id="text-entity-CASE-b3f01edb-d223-5faa-abb6-f7777d995355-attr-1-key" class="er entityLabel">PK</text><rect height="22.091797828674316" width="35.75" y="46" x="0" class="er attributeBoxEven"/><text style="dominant-baseline: middle; font-size: 10.2px;" transform="translate(5,57.04589891433716)" y="0" x="0" id="text-entity-CASE-b3f01edb-d223-5faa-abb6-f7777d995355-attr-2-type" class="er entityLabel">string</text><rect height="22.091797828674316" width="52.765625" y="46" x="35.75" class="er attributeBoxEven"/><text style="dominant-baseline: middle; font-size: 10.2px;" transform="translate(40.75,57.04589891433716)" y="0" x="0" id="text-entity-CASE-b3f01edb-d223-5faa-abb6-f7777d995355-attr-2-name" class="er entityLabel">name</text><rect height="22.091797828674316" width="21.5625" y="46" x="88.515625" class="er attributeBoxEven"/><text style="dominant-baseline: middle; font-size: 10.2px;" transform="translate(93.515625,57.04589891433716)" y="0" x="0" id="text-entity-CASE-b3f01edb-d223-5faa-abb6-f7777d995355-attr-2-key" class="er entityLabel"/><rect height="22" width="35.75" y="68.09179782867432" x="0" class="er attributeBoxOdd"/><text style="dominant-baseline: middle; font-size: 10.2px;" transform="translate(5,79.09179782867432)" y="0" x="0" id="text-entity-CASE-b3f01edb-d223-5faa-abb6-f7777d995355-attr-3-type" class="er entityLabel">date</text><rect height="22" width="52.765625" y="68.09179782867432" x="35.75" class="er attributeBoxOdd"/><text style="dominant-baseline: middle; font-size: 10.2px;" transform="translate(40.75,79.09179782867432)" y="0" x="0" id="text-entity-CASE-b3f01edb-d223-5faa-abb6-f7777d995355-attr-3-name" class="er entityLabel">startDate</text><rect height="22" width="21.5625" y="68.09179782867432" x="88.515625" class="er attributeBoxOdd"/><text style="dominant-baseline: middle; font-size: 10.2px;" transform="translate(93.515625,79.09179782867432)" y="0" x="0" id="text-entity-CASE-b3f01edb-d223-5faa-abb6-f7777d995355-attr-3-key" class="er entityLabel"/><rect height="22" width="35.75" y="90.09179782867432" x="0" class="er attributeBoxEven"/><text style="dominant-baseline: middle; font-size: 10.2px;" transform="translate(5,101.09179782867432)" y="0" x="0" id="text-entity-CASE-b3f01edb-d223-5faa-abb6-f7777d995355-attr-4-type" class="er entityLabel">date</text><rect height="22" width="52.765625" y="90.09179782867432" x="35.75" class="er attributeBoxEven"/><text style="dominant-baseline: middle; font-size: 10.2px;" transform="translate(40.75,101.09179782867432)" y="0" x="0" id="text-entity-CASE-b3f01edb-d223-5faa-abb6-f7777d995355-attr-4-name" class="er entityLabel">endDate</text><rect height="22" width="21.5625" y="90.09179782867432" x="88.515625" class="er attributeBoxEven"/><text style="dominant-baseline: middle; font-size: 10.2px;" transform="translate(93.515625,101.09179782867432)" y="0" x="0" id="text-entity-CASE-b3f01edb-d223-5faa-abb6-f7777d995355-attr-4-key" class="er entityLabel"/><rect height="22.091797828674316" width="35.75" y="112.09179782867432" x="0" class="er attributeBoxOdd"/><text style="dominant-baseline: middle; font-size: 10.2px;" transform="translate(5,123.13769674301147)" y="0" x="0" id="text-entity-CASE-b3f01edb-d223-5faa-abb6-f7777d995355-attr-5-type" class="er entityLabel">string</text><rect height="22.091797828674316" width="52.765625" y="112.09179782867432" x="35.75" class="er attributeBoxOdd"/><text style="dominant-baseline: middle; font-size: 10.2px;" transform="translate(40.75,123.13769674301147)" y="0" x="0" id="text-entity-CASE-b3f01edb-d223-5faa-abb6-f7777d995355-attr-5-name" class="er entityLabel">status</text><rect height="22.091797828674316" width="21.5625" y="112.09179782867432" x="88.515625" class="er attributeBoxOdd"/><text style="dominant-baseline: middle; font-size: 10.2px;" transform="translate(93.515625,123.13769674301147)" y="0" x="0" id="text-entity-CASE-b3f01edb-d223-5faa-abb6-f7777d995355-attr-5-key" class="er entityLabel"/></g><g transform="translate(250.125,444.5048828125 )" id="entity-CLIENT-4e758595-4f1b-56da-a7d5-19191cf4cb1e"><rect height="134.36719131469727" width="101.984375" y="0" x="0" class="er entityBox"/><text style="dominant-baseline: middle; text-anchor: middle; font-size: 12px;" transform="translate(50.9921875,12)" y="0" x="0" id="text-entity-CLIENT-4e758595-4f1b-56da-a7d5-19191cf4cb1e" class="er entityLabel">CLIENT</text><rect height="22" width="35.75" y="24" x="0" class="er attributeBoxOdd"/><text style="dominant-baseline: middle; font-size: 10.2px;" transform="translate(5,35)" y="0" x="0" id="text-entity-CLIENT-4e758595-4f1b-56da-a7d5-19191cf4cb1e-attr-1-type" class="er entityLabel">int</text><rect height="22" width="44.671875" y="24" x="35.75" class="er attributeBoxOdd"/><text style="dominant-baseline: middle; font-size: 10.2px;" transform="translate(40.75,35)" y="0" x="0" id="text-entity-CLIENT-4e758595-4f1b-56da-a7d5-19191cf4cb1e-attr-1-name" class="er entityLabel">clientId</text><rect height="22" width="21.5625" y="24" x="80.421875" class="er attributeBoxOdd"/><text style="dominant-baseline: middle; font-size: 10.2px;" transform="translate(85.421875,35)" y="0" x="0" id="text-entity-CLIENT-4e758595-4f1b-56da-a7d5-19191cf4cb1e-attr-1-key" class="er entityLabel">PK</text><rect height="22.091797828674316" width="35.75" y="46" x="0" class="er attributeBoxEven"/><text style="dominant-baseline: middle; font-size: 10.2px;" transform="translate(5,57.04589891433716)" y="0" x="0" id="text-entity-CLIENT-4e758595-4f1b-56da-a7d5-19191cf4cb1e-attr-2-type" class="er entityLabel">string</text><rect height="22.091797828674316" width="44.671875" y="46" x="35.75" class="er attributeBoxEven"/><text style="dominant-baseline: middle; font-size: 10.2px;" transform="translate(40.75,57.04589891433716)" y="0" x="0" id="text-entity-CLIENT-4e758595-4f1b-56da-a7d5-19191cf4cb1e-attr-2-name" class="er entityLabel">name</text><rect height="22.091797828674316" width="21.5625" y="46" x="80.421875" class="er attributeBoxEven"/><text style="dominant-baseline: middle; font-size: 10.2px;" transform="translate(85.421875,57.04589891433716)" y="0" x="0" id="text-entity-CLIENT-4e758595-4f1b-56da-a7d5-19191cf4cb1e-attr-2-key" class="er entityLabel"/><rect height="22.091797828674316" width="35.75" y="68.09179782867432" x="0" class="er attributeBoxOdd"/><text style="dominant-baseline: middle; font-size: 10.2px;" transform="translate(5,79.13769674301147)" y="0" x="0" id="text-entity-CLIENT-4e758595-4f1b-56da-a7d5-19191cf4cb1e-attr-3-type" class="er entityLabel">string</text><rect height="22.091797828674316" width="44.671875" y="68.09179782867432" x="35.75" class="er attributeBoxOdd"/><text style="dominant-baseline: middle; font-size: 10.2px;" transform="translate(40.75,79.13769674301147)" y="0" x="0" id="text-entity-CLIENT-4e758595-4f1b-56da-a7d5-19191cf4cb1e-attr-3-name" class="er entityLabel">email</text><rect height="22.091797828674316" width="21.5625" y="68.09179782867432" x="80.421875" class="er attributeBoxOdd"/><text style="dominant-baseline: middle; font-size: 10.2px;" transform="translate(85.421875,79.13769674301147)" y="0" x="0" id="text-entity-CLIENT-4e758595-4f1b-56da-a7d5-19191cf4cb1e-attr-3-key" class="er entityLabel"/><rect height="22.091797828674316" width="35.75" y="90.18359565734863" x="0" class="er attributeBoxEven"/><text style="dominant-baseline: middle; font-size: 10.2px;" transform="translate(5,101.22949457168579)" y="0" x="0" id="text-entity-CLIENT-4e758595-4f1b-56da-a7d5-19191cf4cb1e-attr-4-type" class="er entityLabel">string</text><rect height="22.091797828674316" width="44.671875" y="90.18359565734863" x="35.75" class="er attributeBoxEven"/><text style="dominant-baseline: middle; font-size: 10.2px;" transform="translate(40.75,101.22949457168579)" y="0" x="0" id="text-entity-CLIENT-4e758595-4f1b-56da-a7d5-19191cf4cb1e-attr-4-name" class="er entityLabel">phone</text><rect height="22.091797828674316" width="21.5625" y="90.18359565734863" x="80.421875" class="er attributeBoxEven"/><text style="dominant-baseline: middle; font-size: 10.2px;" transform="translate(85.421875,101.22949457168579)" y="0" x="0" id="text-entity-CLIENT-4e758595-4f1b-56da-a7d5-19191cf4cb1e-attr-4-key" class="er entityLabel"/><rect height="22.091797828674316" width="35.75" y="112.27539348602295" x="0" class="er attributeBoxOdd"/><text style="dominant-baseline: middle; font-size: 10.2px;" transform="translate(5,123.32129240036011)" y="0" x="0" id="text-entity-CLIENT-4e758595-4f1b-56da-a7d5-19191cf4cb1e-attr-5-type" class="er entityLabel">string</text><rect height="22.091797828674316" width="44.671875" y="112.27539348602295" x="35.75" class="er attributeBoxOdd"/><text style="dominant-baseline: middle; font-size: 10.2px;" transform="translate(40.75,123.32129240036011)" y="0" x="0" id="text-entity-CLIENT-4e758595-4f1b-56da-a7d5-19191cf4cb1e-attr-5-name" class="er entityLabel">address</text><rect height="22.091797828674316" width="21.5625" y="112.27539348602295" x="80.421875" class="er attributeBoxOdd"/><text style="dominant-baseline: middle; font-size: 10.2px;" transform="translate(85.421875,123.32129240036011)" y="0" x="0" id="text-entity-CLIENT-4e758595-4f1b-56da-a7d5-19191cf4cb1e-attr-5-key" class="er entityLabel"/></g><g transform="translate(452.109375,455.55078125 )" id="entity-DOCUMENT-930a1042-f082-53f3-9c67-66f432d02c38"><rect height="112.27539253234863" width="121.265625" y="0" x="0" class="er entityBox"/><text style="dominant-baseline: middle; text-anchor: middle; font-size: 12px;" transform="translate(60.6328125,12)" y="0" x="0" id="text-entity-DOCUMENT-930a1042-f082-53f3-9c67-66f432d02c38" class="er entityLabel">DOCUMENT</text><rect height="22" width="35.75" y="24" x="0" class="er attributeBoxOdd"/><text style="dominant-baseline: middle; font-size: 10.2px;" transform="translate(5,35)" y="0" x="0" id="text-entity-DOCUMENT-930a1042-f082-53f3-9c67-66f432d02c38-attr-1-type" class="er entityLabel">int</text><rect height="22" width="63.953125" y="24" x="35.75" class="er attributeBoxOdd"/><text style="dominant-baseline: middle; font-size: 10.2px;" transform="translate(40.75,35)" y="0" x="0" id="text-entity-DOCUMENT-930a1042-f082-53f3-9c67-66f432d02c38-attr-1-name" class="er entityLabel">documentId</text><rect height="22" width="21.5625" y="24" x="99.703125" class="er attributeBoxOdd"/><text style="dominant-baseline: middle; font-size: 10.2px;" transform="translate(104.703125,35)" y="0" x="0" id="text-entity-DOCUMENT-930a1042-f082-53f3-9c67-66f432d02c38-attr-1-key" class="er entityLabel">PK</text><rect height="22.091797828674316" width="35.75" y="46" x="0" class="er attributeBoxEven"/><text style="dominant-baseline: middle; font-size: 10.2px;" transform="translate(5,57.04589891433716)" y="0" x="0" id="text-entity-DOCUMENT-930a1042-f082-53f3-9c67-66f432d02c38-attr-2-type" class="er entityLabel">string</text><rect height="22.091797828674316" width="63.953125" y="46" x="35.75" class="er attributeBoxEven"/><text style="dominant-baseline: middle; font-size: 10.2px;" transform="translate(40.75,57.04589891433716)" y="0" x="0" id="text-entity-DOCUMENT-930a1042-f082-53f3-9c67-66f432d02c38-attr-2-name" class="er entityLabel">name</text><rect height="22.091797828674316" width="21.5625" y="46" x="99.703125" class="er attributeBoxEven"/><text style="dominant-baseline: middle; font-size: 10.2px;" transform="translate(104.703125,57.04589891433716)" y="0" x="0" id="text-entity-DOCUMENT-930a1042-f082-53f3-9c67-66f432d02c38-attr-2-key" class="er entityLabel"/><rect height="22.091797828674316" width="35.75" y="68.09179782867432" x="0" class="er attributeBoxOdd"/><text style="dominant-baseline: middle; font-size: 10.2px;" transform="translate(5,79.13769674301147)" y="0" x="0" id="text-entity-DOCUMENT-930a1042-f082-53f3-9c67-66f432d02c38-attr-3-type" class="er entityLabel">string</text><rect height="22.091797828674316" width="63.953125" y="68.09179782867432" x="35.75" class="er attributeBoxOdd"/><text style="dominant-baseline: middle; font-size: 10.2px;" transform="translate(40.75,79.13769674301147)" y="0" x="0" id="text-entity-DOCUMENT-930a1042-f082-53f3-9c67-66f432d02c38-attr-3-name" class="er entityLabel">type</text><rect height="22.091797828674316" width="21.5625" y="68.09179782867432" x="99.703125" class="er attributeBoxOdd"/><text style="dominant-baseline: middle; font-size: 10.2px;" transform="translate(104.703125,79.13769674301147)" y="0" x="0" id="text-entity-DOCUMENT-930a1042-f082-53f3-9c67-66f432d02c38-attr-3-key" class="er entityLabel"/><rect height="22.091796875" width="35.75" y="90.18359565734863" x="0" class="er attributeBoxEven"/><text style="dominant-baseline: middle; font-size: 10.2px;" transform="translate(5,101.22949409484863)" y="0" x="0" id="text-entity-DOCUMENT-930a1042-f082-53f3-9c67-66f432d02c38-attr-4-type" class="er entityLabel">date</text><rect height="22.091796875" width="63.953125" y="90.18359565734863" x="35.75" class="er attributeBoxEven"/><text style="dominant-baseline: middle; font-size: 10.2px;" transform="translate(40.75,101.22949409484863)" y="0" x="0" id="text-entity-DOCUMENT-930a1042-f082-53f3-9c67-66f432d02c38-attr-4-name" class="er entityLabel">uploadDate</text><rect height="22.091796875" width="21.5625" y="90.18359565734863" x="99.703125" class="er attributeBoxEven"/><text style="dominant-baseline: middle; font-size: 10.2px;" transform="translate(104.703125,101.22949409484863)" y="0" x="0" id="text-entity-DOCUMENT-930a1042-f082-53f3-9c67-66f432d02c38-attr-4-key" class="er entityLabel"/></g><g transform="translate(248.4375,232.275390625 )" id="entity-BILLING-c8bb2aaa-875b-5aff-9a1e-52137d9bcc6c"><rect height="112.18359470367432" width="105.359375" y="0" x="0" class="er entityBox"/><text style="dominant-baseline: middle; text-anchor: middle; font-size: 12px;" transform="translate(52.6796875,12)" y="0" x="0" id="text-entity-BILLING-c8bb2aaa-875b-5aff-9a1e-52137d9bcc6c" class="er entityLabel">BILLING</text><rect height="22.091796875" width="35.75" y="24" x="0" class="er attributeBoxOdd"/><text style="dominant-baseline: middle; font-size: 10.2px;" transform="translate(5,35.0458984375)" y="0" x="0" id="text-entity-BILLING-c8bb2aaa-875b-5aff-9a1e-52137d9bcc6c-attr-1-type" class="er entityLabel">int</text><rect height="22.091796875" width="48.046875" y="24" x="35.75" class="er attributeBoxOdd"/><text style="dominant-baseline: middle; font-size: 10.2px;" transform="translate(40.75,35.0458984375)" y="0" x="0" id="text-entity-BILLING-c8bb2aaa-875b-5aff-9a1e-52137d9bcc6c-attr-1-name" class="er entityLabel">billingId</text><rect height="22.091796875" width="21.5625" y="24" x="83.796875" class="er attributeBoxOdd"/><text style="dominant-baseline: middle; font-size: 10.2px;" transform="translate(88.796875,35.0458984375)" y="0" x="0" id="text-entity-BILLING-c8bb2aaa-875b-5aff-9a1e-52137d9bcc6c-attr-1-key" class="er entityLabel">PK</text><rect height="22" width="35.75" y="46.091796875" x="0" class="er attributeBoxEven"/><text style="dominant-baseline: middle; font-size: 10.2px;" transform="translate(5,57.091796875)" y="0" x="0" id="text-entity-BILLING-c8bb2aaa-875b-5aff-9a1e-52137d9bcc6c-attr-2-type" class="er entityLabel">float</text><rect height="22" width="48.046875" y="46.091796875" x="35.75" class="er attributeBoxEven"/><text style="dominant-baseline: middle; font-size: 10.2px;" transform="translate(40.75,57.091796875)" y="0" x="0" id="text-entity-BILLING-c8bb2aaa-875b-5aff-9a1e-52137d9bcc6c-attr-2-name" class="er entityLabel">amount</text><rect height="22" width="21.5625" y="46.091796875" x="83.796875" class="er attributeBoxEven"/><text style="dominant-baseline: middle; font-size: 10.2px;" transform="translate(88.796875,57.091796875)" y="0" x="0" id="text-entity-BILLING-c8bb2aaa-875b-5aff-9a1e-52137d9bcc6c-attr-2-key" class="er entityLabel"/><rect height="22" width="35.75" y="68.091796875" x="0" class="er attributeBoxOdd"/><text style="dominant-baseline: middle; font-size: 10.2px;" transform="translate(5,79.091796875)" y="0" x="0" id="text-entity-BILLING-c8bb2aaa-875b-5aff-9a1e-52137d9bcc6c-attr-3-type" class="er entityLabel">date</text><rect height="22" width="48.046875" y="68.091796875" x="35.75" class="er attributeBoxOdd"/><text style="dominant-baseline: middle; font-size: 10.2px;" transform="translate(40.75,79.091796875)" y="0" x="0" id="text-entity-BILLING-c8bb2aaa-875b-5aff-9a1e-52137d9bcc6c-attr-3-name" class="er entityLabel">dueDate</text><rect height="22" width="21.5625" y="68.091796875" x="83.796875" class="er attributeBoxOdd"/><text style="dominant-baseline: middle; font-size: 10.2px;" transform="translate(88.796875,79.091796875)" y="0" x="0" id="text-entity-BILLING-c8bb2aaa-875b-5aff-9a1e-52137d9bcc6c-attr-3-key" class="er entityLabel"/><rect height="22.091797828674316" width="35.75" y="90.091796875" x="0" class="er attributeBoxEven"/><text style="dominant-baseline: middle; font-size: 10.2px;" transform="translate(5,101.13769578933716)" y="0" x="0" id="text-entity-BILLING-c8bb2aaa-875b-5aff-9a1e-52137d9bcc6c-attr-4-type" class="er entityLabel">string</text><rect height="22.091797828674316" width="48.046875" y="90.091796875" x="35.75" class="er attributeBoxEven"/><text style="dominant-baseline: middle; font-size: 10.2px;" transform="translate(40.75,101.13769578933716)" y="0" x="0" id="text-entity-BILLING-c8bb2aaa-875b-5aff-9a1e-52137d9bcc6c-attr-4-name" class="er entityLabel">status</text><rect height="22.091797828674316" width="21.5625" y="90.091796875" x="83.796875" class="er attributeBoxEven"/><text style="dominant-baseline: middle; font-size: 10.2px;" transform="translate(88.796875,101.13769578933716)" y="0" x="0" id="text-entity-BILLING-c8bb2aaa-875b-5aff-9a1e-52137d9bcc6c-attr-4-key" class="er entityLabel"/></g><g transform="translate(236.984375,20 )" id="entity-PAYMENT-9797eee8-7a01-5efe-aaa5-fb9a4f14957c"><rect height="112.27539157867432" width="128.265625" y="0" x="0" class="er entityBox"/><text style="dominant-baseline: middle; text-anchor: middle; font-size: 12px;" transform="translate(64.1328125,12)" y="0" x="0" id="text-entity-PAYMENT-9797eee8-7a01-5efe-aaa5-fb9a4f14957c" class="er entityLabel">PAYMENT</text><rect height="22.091796875" width="35.75" y="24" x="0" class="er attributeBoxOdd"/><text style="dominant-baseline: middle; font-size: 10.2px;" transform="translate(5,35.0458984375)" y="0" x="0" id="text-entity-PAYMENT-9797eee8-7a01-5efe-aaa5-fb9a4f14957c-attr-1-type" class="er entityLabel">int</text><rect height="22.091796875" width="70.953125" y="24" x="35.75" class="er attributeBoxOdd"/><text style="dominant-baseline: middle; font-size: 10.2px;" transform="translate(40.75,35.0458984375)" y="0" x="0" id="text-entity-PAYMENT-9797eee8-7a01-5efe-aaa5-fb9a4f14957c-attr-1-name" class="er entityLabel">paymentId</text><rect height="22.091796875" width="21.5625" y="24" x="106.703125" class="er attributeBoxOdd"/><text style="dominant-baseline: middle; font-size: 10.2px;" transform="translate(111.703125,35.0458984375)" y="0" x="0" id="text-entity-PAYMENT-9797eee8-7a01-5efe-aaa5-fb9a4f14957c-attr-1-key" class="er entityLabel">PK</text><rect height="22" width="35.75" y="46.091796875" x="0" class="er attributeBoxEven"/><text style="dominant-baseline: middle; font-size: 10.2px;" transform="translate(5,57.091796875)" y="0" x="0" id="text-entity-PAYMENT-9797eee8-7a01-5efe-aaa5-fb9a4f14957c-attr-2-type" class="er entityLabel">float</text><rect height="22" width="70.953125" y="46.091796875" x="35.75" class="er attributeBoxEven"/><text style="dominant-baseline: middle; font-size: 10.2px;" transform="translate(40.75,57.091796875)" y="0" x="0" id="text-entity-PAYMENT-9797eee8-7a01-5efe-aaa5-fb9a4f14957c-attr-2-name" class="er entityLabel">amount</text><rect height="22" width="21.5625" y="46.091796875" x="106.703125" class="er attributeBoxEven"/><text style="dominant-baseline: middle; font-size: 10.2px;" transform="translate(111.703125,57.091796875)" y="0" x="0" id="text-entity-PAYMENT-9797eee8-7a01-5efe-aaa5-fb9a4f14957c-attr-2-key" class="er entityLabel"/><rect height="22.091796875" width="35.75" y="68.091796875" x="0" class="er attributeBoxOdd"/><text style="dominant-baseline: middle; font-size: 10.2px;" transform="translate(5,79.1376953125)" y="0" x="0" id="text-entity-PAYMENT-9797eee8-7a01-5efe-aaa5-fb9a4f14957c-attr-3-type" class="er entityLabel">date</text><rect height="22.091796875" width="70.953125" y="68.091796875" x="35.75" class="er attributeBoxOdd"/><text style="dominant-baseline: middle; font-size: 10.2px;" transform="translate(40.75,79.1376953125)" y="0" x="0" id="text-entity-PAYMENT-9797eee8-7a01-5efe-aaa5-fb9a4f14957c-attr-3-name" class="er entityLabel">paymentDate</text><rect height="22.091796875" width="21.5625" y="68.091796875" x="106.703125" class="er attributeBoxOdd"/><text style="dominant-baseline: middle; font-size: 10.2px;" transform="translate(111.703125,79.1376953125)" y="0" x="0" id="text-entity-PAYMENT-9797eee8-7a01-5efe-aaa5-fb9a4f14957c-attr-3-key" class="er entityLabel"/><rect height="22.091797828674316" width="35.75" y="90.18359375" x="0" class="er attributeBoxEven"/><text style="dominant-baseline: middle; font-size: 10.2px;" transform="translate(5,101.22949266433716)" y="0" x="0" id="text-entity-PAYMENT-9797eee8-7a01-5efe-aaa5-fb9a4f14957c-attr-4-type" class="er entityLabel">string</text><rect height="22.091797828674316" width="70.953125" y="90.18359375" x="35.75" class="er attributeBoxEven"/><text style="dominant-baseline: middle; font-size: 10.2px;" transform="translate(40.75,101.22949266433716)" y="0" x="0" id="text-entity-PAYMENT-9797eee8-7a01-5efe-aaa5-fb9a4f14957c-attr-4-name" class="er entityLabel">method</text><rect height="22.091797828674316" width="21.5625" y="90.18359375" x="106.703125" class="er attributeBoxEven"/><text style="dominant-baseline: middle; font-size: 10.2px;" transform="translate(111.703125,101.22949266433716)" y="0" x="0" id="text-entity-PAYMENT-9797eee8-7a01-5efe-aaa5-fb9a4f14957c-attr-4-key" class="er entityLabel"/></g><g transform="translate(673.375,455.55078125 )" id="entity-MEETING-8509e550-1312-5578-9170-e60564465ff2"><rect height="112.27539348602295" width="113.078125" y="0" x="0" class="er entityBox"/><text style="dominant-baseline: middle; text-anchor: middle; font-size: 12px;" transform="translate(56.5390625,12)" y="0" x="0" id="text-entity-MEETING-8509e550-1312-5578-9170-e60564465ff2" class="er entityLabel">MEETING</text><rect height="22.091797828674316" width="35.75" y="24" x="0" class="er attributeBoxOdd"/><text style="dominant-baseline: middle; font-size: 10.2px;" transform="translate(5,35.04589891433716)" y="0" x="0" id="text-entity-MEETING-8509e550-1312-5578-9170-e60564465ff2-attr-1-type" class="er entityLabel">int</text><rect height="22.091797828674316" width="55.765625" y="24" x="35.75" class="er attributeBoxOdd"/><text style="dominant-baseline: middle; font-size: 10.2px;" transform="translate(40.75,35.04589891433716)" y="0" x="0" id="text-entity-MEETING-8509e550-1312-5578-9170-e60564465ff2-attr-1-name" class="er entityLabel">meetingId</text><rect height="22.091797828674316" width="21.5625" y="24" x="91.515625" class="er attributeBoxOdd"/><text style="dominant-baseline: middle; font-size: 10.2px;" transform="translate(96.515625,35.04589891433716)" y="0" x="0" id="text-entity-MEETING-8509e550-1312-5578-9170-e60564465ff2-attr-1-key" class="er entityLabel">PK</text><rect height="22.091797828674316" width="35.75" y="46.091797828674316" x="0" class="er attributeBoxEven"/><text style="dominant-baseline: middle; font-size: 10.2px;" transform="translate(5,57.137696743011475)" y="0" x="0" id="text-entity-MEETING-8509e550-1312-5578-9170-e60564465ff2-attr-2-type" class="er entityLabel">string</text><rect height="22.091797828674316" width="55.765625" y="46.091797828674316" x="35.75" class="er attributeBoxEven"/><text style="dominant-baseline: middle; font-size: 10.2px;" transform="translate(40.75,57.137696743011475)" y="0" x="0" id="text-entity-MEETING-8509e550-1312-5578-9170-e60564465ff2-attr-2-name" class="er entityLabel">title</text><rect height="22.091797828674316" width="21.5625" y="46.091797828674316" x="91.515625" class="er attributeBoxEven"/><text style="dominant-baseline: middle; font-size: 10.2px;" transform="translate(96.515625,57.137696743011475)" y="0" x="0" id="text-entity-MEETING-8509e550-1312-5578-9170-e60564465ff2-attr-2-key" class="er entityLabel"/><rect height="22" width="35.75" y="68.18359565734863" x="0" class="er attributeBoxOdd"/><text style="dominant-baseline: middle; font-size: 10.2px;" transform="translate(5,79.18359565734863)" y="0" x="0" id="text-entity-MEETING-8509e550-1312-5578-9170-e60564465ff2-attr-3-type" class="er entityLabel">date</text><rect height="22" width="55.765625" y="68.18359565734863" x="35.75" class="er attributeBoxOdd"/><text style="dominant-baseline: middle; font-size: 10.2px;" transform="translate(40.75,79.18359565734863)" y="0" x="0" id="text-entity-MEETING-8509e550-1312-5578-9170-e60564465ff2-attr-3-name" class="er entityLabel">dateTime</text><rect height="22" width="21.5625" y="68.18359565734863" x="91.515625" class="er attributeBoxOdd"/><text style="dominant-baseline: middle; font-size: 10.2px;" transform="translate(96.515625,79.18359565734863)" y="0" x="0" id="text-entity-MEETING-8509e550-1312-5578-9170-e60564465ff2-attr-3-key" class="er entityLabel"/><rect height="22.091797828674316" width="35.75" y="90.18359565734863" x="0" class="er attributeBoxEven"/><text style="dominant-baseline: middle; font-size: 10.2px;" transform="translate(5,101.22949457168579)" y="0" x="0" id="text-entity-MEETING-8509e550-1312-5578-9170-e60564465ff2-attr-4-type" class="er entityLabel">string</text><rect height="22.091797828674316" width="55.765625" y="90.18359565734863" x="35.75" class="er attributeBoxEven"/><text style="dominant-baseline: middle; font-size: 10.2px;" transform="translate(40.75,101.22949457168579)" y="0" x="0" id="text-entity-MEETING-8509e550-1312-5578-9170-e60564465ff2-attr-4-name" class="er entityLabel">location</text><rect height="22.091797828674316" width="21.5625" y="90.18359565734863" x="91.515625" class="er attributeBoxEven"/><text style="dominant-baseline: middle; font-size: 10.2px;" transform="translate(96.515625,101.22949457168579)" y="0" x="0" id="text-entity-MEETING-8509e550-1312-5578-9170-e60564465ff2-attr-4-key" class="er entityLabel"/></g><rect height="14" width="41.046875" y="663.21630859375" x="182.47483825683594" class="er relationshipLabelBox"/><text style="text-anchor: middle; dominant-baseline: middle; font-size: 12px;" y="670.21630859375" x="202.99827575683594" id="rel1" class="er relationshipLabel">handles</text><rect height="14" width="26.046875" y="630.6278076171875" x="300.6908264160156" class="er relationshipLabelBox"/><text style="text-anchor: middle; dominant-baseline: middle; font-size: 12px;" y="637.6278076171875" x="313.7142639160156" id="rel2" class="er relationshipLabel">hires</text><rect height="14" width="37.21875" y="625.6105346679688" x="483.5661315917969" class="er relationshipLabelBox"/><text style="text-anchor: middle; dominant-baseline: middle; font-size: 12px;" y="632.6105346679688" x="502.1755065917969" id="rel3" class="er relationshipLabel">relates</text><rect height="14" width="43.0625" y="387.48199462890625" x="279.58575439453125" class="er relationshipLabelBox"/><text style="text-anchor: middle; dominant-baseline: middle; font-size: 12px;" y="394.48199462890625" x="301.11700439453125" id="rel4" class="er relationshipLabel">invoices</text><rect height="14" width="23.765625" y="175.27499389648438" x="289.23419189453125" class="er relationshipLabelBox"/><text style="text-anchor: middle; dominant-baseline: middle; font-size: 12px;" y="182.27499389648438" x="301.11700439453125" id="rel5" class="er relationshipLabel">pays</text><rect height="14" width="52.09375" y="661.3124389648438" x="589.2345581054688" class="er relationshipLabelBox"/><text style="text-anchor: middle; dominant-baseline: middle; font-size: 12px;" y="668.3124389648438" x="615.2814331054688" id="rel6" class="er relationshipLabel">schedules</text></svg>