<svg aria-roledescription="er" role="graphics-document document" viewBox="0 0 780.015625 620.826171875" style="max-width: 780.016px; background-color: white;" xmlns:xlink="http://www.w3.org/1999/xlink" xmlns="http://www.w3.org/2000/svg" width="100%" id="my-svg"><style>#my-svg{font-family:"trebuchet ms",verdana,arial,sans-serif;font-size:16px;fill:#333;}#my-svg .error-icon{fill:#552222;}#my-svg .error-text{fill:#552222;stroke:#552222;}#my-svg .edge-thickness-normal{stroke-width:1px;}#my-svg .edge-thickness-thick{stroke-width:3.5px;}#my-svg .edge-pattern-solid{stroke-dasharray:0;}#my-svg .edge-thickness-invisible{stroke-width:0;fill:none;}#my-svg .edge-pattern-dashed{stroke-dasharray:3;}#my-svg .edge-pattern-dotted{stroke-dasharray:2;}#my-svg .marker{fill:#333333;stroke:#333333;}#my-svg .marker.cross{stroke:#333333;}#my-svg svg{font-family:"trebuchet ms",verdana,arial,sans-serif;font-size:16px;}#my-svg p{margin:0;}#my-svg .entityBox{fill:#ECECFF;stroke:#9370DB;}#my-svg .attributeBoxOdd{fill:#ffffff;stroke:#9370DB;}#my-svg .attributeBoxEven{fill:#f2f2f2;stroke:#9370DB;}#my-svg .relationshipLabelBox{fill:hsl(80, 100%, 96.2745098039%);opacity:0.7;background-color:hsl(80, 100%, 96.2745098039%);}#my-svg .relationshipLabelBox rect{opacity:0.5;}#my-svg .relationshipLine{stroke:#333333;}#my-svg .entityTitleText{text-anchor:middle;font-size:18px;fill:#333;}#my-svg #MD_PARENT_START{fill:#f5f5f5!important;stroke:#333333!important;stroke-width:1;}#my-svg #MD_PARENT_END{fill:#f5f5f5!important;stroke:#333333!important;stroke-width:1;}#my-svg :root{--mermaid-font-family:"trebuchet ms",verdana,arial,sans-serif;}</style><g/><defs><marker orient="auto" markerHeight="240" markerWidth="190" refY="7" refX="0" id="MD_PARENT_START"><path d="M 18,7 L9,13 L1,7 L9,1 Z"/></marker></defs><defs><marker orient="auto" markerHeight="28" markerWidth="20" refY="7" refX="19" id="MD_PARENT_END"><path d="M 18,7 L9,13 L1,7 L9,1 Z"/></marker></defs><defs><marker orient="auto" markerHeight="18" markerWidth="18" refY="9" refX="0" id="ONLY_ONE_START"><path d="M9,0 L9,18 M15,0 L15,18" fill="none" stroke="gray"/></marker></defs><defs><marker orient="auto" markerHeight="18" markerWidth="18" refY="9" refX="18" id="ONLY_ONE_END"><path d="M3,0 L3,18 M9,0 L9,18" fill="none" stroke="gray"/></marker></defs><defs><marker orient="auto" markerHeight="18" markerWidth="30" refY="9" refX="0" id="ZERO_OR_ONE_START"><circle r="6" cy="9" cx="21" fill="white" stroke="gray"/><path d="M9,0 L9,18" fill="none" stroke="gray"/></marker></defs><defs><marker orient="auto" markerHeight="18" markerWidth="30" refY="9" refX="30" id="ZERO_OR_ONE_END"><circle r="6" cy="9" cx="9" fill="white" stroke="gray"/><path d="M21,0 L21,18" fill="none" stroke="gray"/></marker></defs><defs><marker orient="auto" markerHeight="36" markerWidth="45" refY="18" refX="18" id="ONE_OR_MORE_START"><path d="M0,18 Q 18,0 36,18 Q 18,36 0,18 M42,9 L42,27" fill="none" stroke="gray"/></marker></defs><defs><marker orient="auto" markerHeight="36" markerWidth="45" refY="18" refX="27" id="ONE_OR_MORE_END"><path d="M3,9 L3,27 M9,18 Q27,0 45,18 Q27,36 9,18" fill="none" stroke="gray"/></marker></defs><defs><marker orient="auto" markerHeight="36" markerWidth="57" refY="18" refX="18" id="ZERO_OR_MORE_START"><circle r="6" cy="18" cx="48" fill="white" stroke="gray"/><path d="M0,18 Q18,0 36,18 Q18,36 0,18" fill="none" stroke="gray"/></marker></defs><defs><marker orient="auto" markerHeight="36" markerWidth="57" refY="18" refX="39" id="ZERO_OR_MORE_END"><circle r="6" cy="18" cx="9" fill="white" stroke="gray"/><path d="M21,18 Q39,0 57,18 Q39,36 21,18" fill="none" stroke="gray"/></marker></defs><path style="stroke: gray; fill: none;" marker-start="url(#ONLY_ONE_START)" marker-end="url(#ZERO_OR_MORE_END)" d="M382.07,388.643L382.07,396.976C382.07,405.309,382.07,421.976,382.07,438.643C382.07,455.309,382.07,471.976,382.07,480.309L382.07,488.643" class="er relationshipLine"/><path style="stroke: gray; fill: none;" marker-start="url(#ONLY_ONE_START)" marker-end="url(#ZERO_OR_MORE_END)" d="M70.992,132.321L70.992,140.662C70.992,149.003,70.992,165.685,113.665,191.604C156.339,217.523,241.685,252.678,284.358,270.256L327.031,287.833" class="er relationshipLine"/><path style="stroke: gray; fill: none;" marker-start="url(#ONLY_ONE_START)" marker-end="url(#ZERO_OR_MORE_END)" d="M275.164,132.367L275.164,140.701C275.164,149.034,275.164,165.701,283.809,184.395C292.453,203.09,309.742,223.812,318.387,234.174L327.031,244.535" class="er relationshipLine"/><path style="stroke: gray; fill: none;" marker-start="url(#ONLY_ONE_START)" marker-end="url(#ZERO_OR_MORE_END)" d="M488.977,132.321L488.977,140.662C488.977,149.003,488.977,165.685,480.332,184.388C471.688,203.09,454.398,223.812,445.754,234.174L437.109,244.535" class="er relationshipLine"/><path style="stroke: gray; fill: none;" marker-start="url(#ONLY_ONE_START)" marker-end="url(#ZERO_OR_MORE_END)" d="M704.813,132.321L704.813,140.662C704.813,149.003,704.813,165.685,660.195,191.74C615.578,217.796,526.344,253.224,481.727,270.939L437.109,288.653" class="er relationshipLine"/><g transform="translate(327.03125,232.3671875 )" id="entity-CASE-b3f01edb-d223-5faa-abb6-f7777d995355"><rect height="156.27539348602295" width="110.078125" y="0" x="0" class="er entityBox"/><text style="dominant-baseline: middle; text-anchor: middle; font-size: 12px;" transform="translate(55.0390625,12)" y="0" x="0" id="text-entity-CASE-b3f01edb-d223-5faa-abb6-f7777d995355" class="er entityLabel">CASE</text><rect height="22" width="35.75" y="24" x="0" class="er attributeBoxOdd"/><text style="dominant-baseline: middle; font-size: 10.2px;" transform="translate(5,35)" y="0" x="0" id="text-entity-CASE-b3f01edb-d223-5faa-abb6-f7777d995355-attr-1-type" class="er entityLabel">int</text><rect height="22" width="52.765625" y="24" x="35.75" class="er attributeBoxOdd"/><text style="dominant-baseline: middle; font-size: 10.2px;" transform="translate(40.75,35)" y="0" x="0" id="text-entity-CASE-b3f01edb-d223-5faa-abb6-f7777d995355-attr-1-name" class="er entityLabel">caseId</text><rect height="22" width="21.5625" y="24" x="88.515625" class="er attributeBoxOdd"/><text style="dominant-baseline: middle; font-size: 10.2px;" transform="translate(93.515625,35)" y="0" x="0" id="text-entity-CASE-b3f01edb-d223-5faa-abb6-f7777d995355-attr-1-key" class="er entityLabel">PK</text><rect height="22.091797828674316" width="35.75" y="46" x="0" class="er attributeBoxEven"/><text style="dominant-baseline: middle; font-size: 10.2px;" transform="translate(5,57.04589891433716)" y="0" x="0" id="text-entity-CASE-b3f01edb-d223-5faa-abb6-f7777d995355-attr-2-type" class="er entityLabel">string</text><rect height="22.091797828674316" width="52.765625" y="46" x="35.75" class="er attributeBoxEven"/><text style="dominant-baseline: middle; font-size: 10.2px;" transform="translate(40.75,57.04589891433716)" y="0" x="0" id="text-entity-CASE-b3f01edb-d223-5faa-abb6-f7777d995355-attr-2-name" class="er entityLabel">name</text><rect height="22.091797828674316" width="21.5625" y="46" x="88.515625" class="er attributeBoxEven"/><text style="dominant-baseline: middle; font-size: 10.2px;" transform="translate(93.515625,57.04589891433716)" y="0" x="0" id="text-entity-CASE-b3f01edb-d223-5faa-abb6-f7777d995355-attr-2-key" class="er entityLabel"/><rect height="22" width="35.75" y="68.09179782867432" x="0" class="er attributeBoxOdd"/><text style="dominant-baseline: middle; font-size: 10.2px;" transform="translate(5,79.09179782867432)" y="0" x="0" id="text-entity-CASE-b3f01edb-d223-5faa-abb6-f7777d995355-attr-3-type" class="er entityLabel">date</text><rect height="22" width="52.765625" y="68.09179782867432" x="35.75" class="er attributeBoxOdd"/><text style="dominant-baseline: middle; font-size: 10.2px;" transform="translate(40.75,79.09179782867432)" y="0" x="0" id="text-entity-CASE-b3f01edb-d223-5faa-abb6-f7777d995355-attr-3-name" class="er entityLabel">startDate</text><rect height="22" width="21.5625" y="68.09179782867432" x="88.515625" class="er attributeBoxOdd"/><text style="dominant-baseline: middle; font-size: 10.2px;" transform="translate(93.515625,79.09179782867432)" y="0" x="0" id="text-entity-CASE-b3f01edb-d223-5faa-abb6-f7777d995355-attr-3-key" class="er entityLabel"/><rect height="22" width="35.75" y="90.09179782867432" x="0" class="er attributeBoxEven"/><text style="dominant-baseline: middle; font-size: 10.2px;" transform="translate(5,101.09179782867432)" y="0" x="0" id="text-entity-CASE-b3f01edb-d223-5faa-abb6-f7777d995355-attr-4-type" class="er entityLabel">date</text><rect height="22" width="52.765625" y="90.09179782867432" x="35.75" class="er attributeBoxEven"/><text style="dominant-baseline: middle; font-size: 10.2px;" transform="translate(40.75,101.09179782867432)" y="0" x="0" id="text-entity-CASE-b3f01edb-d223-5faa-abb6-f7777d995355-attr-4-name" class="er entityLabel">endDate</text><rect height="22" width="21.5625" y="90.09179782867432" x="88.515625" class="er attributeBoxEven"/><text style="dominant-baseline: middle; font-size: 10.2px;" transform="translate(93.515625,101.09179782867432)" y="0" x="0" id="text-entity-CASE-b3f01edb-d223-5faa-abb6-f7777d995355-attr-4-key" class="er entityLabel"/><rect height="22.091797828674316" width="35.75" y="112.09179782867432" x="0" class="er attributeBoxOdd"/><text style="dominant-baseline: middle; font-size: 10.2px;" transform="translate(5,123.13769674301147)" y="0" x="0" id="text-entity-CASE-b3f01edb-d223-5faa-abb6-f7777d995355-attr-5-type" class="er entityLabel">string</text><rect height="22.091797828674316" width="52.765625" y="112.09179782867432" x="35.75" class="er attributeBoxOdd"/><text style="dominant-baseline: middle; font-size: 10.2px;" transform="translate(40.75,123.13769674301147)" y="0" x="0" id="text-entity-CASE-b3f01edb-d223-5faa-abb6-f7777d995355-attr-5-name" class="er entityLabel">status</text><rect height="22.091797828674316" width="21.5625" y="112.09179782867432" x="88.515625" class="er attributeBoxOdd"/><text style="dominant-baseline: middle; font-size: 10.2px;" transform="translate(93.515625,123.13769674301147)" y="0" x="0" id="text-entity-CASE-b3f01edb-d223-5faa-abb6-f7777d995355-attr-5-key" class="er entityLabel"/><rect height="22.091797828674316" width="35.75" y="134.18359565734863" x="0" class="er attributeBoxEven"/><text style="dominant-baseline: middle; font-size: 10.2px;" transform="translate(5,145.2294945716858)" y="0" x="0" id="text-entity-CASE-b3f01edb-d223-5faa-abb6-f7777d995355-attr-6-type" class="er entityLabel">string</text><rect height="22.091797828674316" width="52.765625" y="134.18359565734863" x="35.75" class="er attributeBoxEven"/><text style="dominant-baseline: middle; font-size: 10.2px;" transform="translate(40.75,145.2294945716858)" y="0" x="0" id="text-entity-CASE-b3f01edb-d223-5faa-abb6-f7777d995355-attr-6-name" class="er entityLabel">type</text><rect height="22.091797828674316" width="21.5625" y="134.18359565734863" x="88.515625" class="er attributeBoxEven"/><text style="dominant-baseline: middle; font-size: 10.2px;" transform="translate(93.515625,145.2294945716858)" y="0" x="0" id="text-entity-CASE-b3f01edb-d223-5faa-abb6-f7777d995355-attr-6-key" class="er entityLabel"/></g><g transform="translate(322.921875,488.642578125 )" id="entity-TASK-5f0ceeb5-8943-5386-8f04-a46640e9fb8e"><rect height="112.18359565734863" width="118.296875" y="0" x="0" class="er entityBox"/><text style="dominant-baseline: middle; text-anchor: middle; font-size: 12px;" transform="translate(59.1484375,12)" y="0" x="0" id="text-entity-TASK-5f0ceeb5-8943-5386-8f04-a46640e9fb8e" class="er entityLabel">TASK</text><rect height="22" width="35.75" y="24" x="0" class="er attributeBoxOdd"/><text style="dominant-baseline: middle; font-size: 10.2px;" transform="translate(5,35)" y="0" x="0" id="text-entity-TASK-5f0ceeb5-8943-5386-8f04-a46640e9fb8e-attr-1-type" class="er entityLabel">int</text><rect height="22" width="60.984375" y="24" x="35.75" class="er attributeBoxOdd"/><text style="dominant-baseline: middle; font-size: 10.2px;" transform="translate(40.75,35)" y="0" x="0" id="text-entity-TASK-5f0ceeb5-8943-5386-8f04-a46640e9fb8e-attr-1-name" class="er entityLabel">taskId</text><rect height="22" width="21.5625" y="24" x="96.734375" class="er attributeBoxOdd"/><text style="dominant-baseline: middle; font-size: 10.2px;" transform="translate(101.734375,35)" y="0" x="0" id="text-entity-TASK-5f0ceeb5-8943-5386-8f04-a46640e9fb8e-attr-1-key" class="er entityLabel">PK</text><rect height="22.091797828674316" width="35.75" y="46" x="0" class="er attributeBoxEven"/><text style="dominant-baseline: middle; font-size: 10.2px;" transform="translate(5,57.04589891433716)" y="0" x="0" id="text-entity-TASK-5f0ceeb5-8943-5386-8f04-a46640e9fb8e-attr-2-type" class="er entityLabel">string</text><rect height="22.091797828674316" width="60.984375" y="46" x="35.75" class="er attributeBoxEven"/><text style="dominant-baseline: middle; font-size: 10.2px;" transform="translate(40.75,57.04589891433716)" y="0" x="0" id="text-entity-TASK-5f0ceeb5-8943-5386-8f04-a46640e9fb8e-attr-2-name" class="er entityLabel">description</text><rect height="22.091797828674316" width="21.5625" y="46" x="96.734375" class="er attributeBoxEven"/><text style="dominant-baseline: middle; font-size: 10.2px;" transform="translate(101.734375,57.04589891433716)" y="0" x="0" id="text-entity-TASK-5f0ceeb5-8943-5386-8f04-a46640e9fb8e-attr-2-key" class="er entityLabel"/><rect height="22" width="35.75" y="68.09179782867432" x="0" class="er attributeBoxOdd"/><text style="dominant-baseline: middle; font-size: 10.2px;" transform="translate(5,79.09179782867432)" y="0" x="0" id="text-entity-TASK-5f0ceeb5-8943-5386-8f04-a46640e9fb8e-attr-3-type" class="er entityLabel">date</text><rect height="22" width="60.984375" y="68.09179782867432" x="35.75" class="er attributeBoxOdd"/><text style="dominant-baseline: middle; font-size: 10.2px;" transform="translate(40.75,79.09179782867432)" y="0" x="0" id="text-entity-TASK-5f0ceeb5-8943-5386-8f04-a46640e9fb8e-attr-3-name" class="er entityLabel">deadline</text><rect height="22" width="21.5625" y="68.09179782867432" x="96.734375" class="er attributeBoxOdd"/><text style="dominant-baseline: middle; font-size: 10.2px;" transform="translate(101.734375,79.09179782867432)" y="0" x="0" id="text-entity-TASK-5f0ceeb5-8943-5386-8f04-a46640e9fb8e-attr-3-key" class="er entityLabel"/><rect height="22.091797828674316" width="35.75" y="90.09179782867432" x="0" class="er attributeBoxEven"/><text style="dominant-baseline: middle; font-size: 10.2px;" transform="translate(5,101.13769674301147)" y="0" x="0" id="text-entity-TASK-5f0ceeb5-8943-5386-8f04-a46640e9fb8e-attr-4-type" class="er entityLabel">string</text><rect height="22.091797828674316" width="60.984375" y="90.09179782867432" x="35.75" class="er attributeBoxEven"/><text style="dominant-baseline: middle; font-size: 10.2px;" transform="translate(40.75,101.13769674301147)" y="0" x="0" id="text-entity-TASK-5f0ceeb5-8943-5386-8f04-a46640e9fb8e-attr-4-name" class="er entityLabel">status</text><rect height="22.091797828674316" width="21.5625" y="90.09179782867432" x="96.734375" class="er attributeBoxEven"/><text style="dominant-baseline: middle; font-size: 10.2px;" transform="translate(101.734375,101.13769674301147)" y="0" x="0" id="text-entity-TASK-5f0ceeb5-8943-5386-8f04-a46640e9fb8e-attr-4-key" class="er entityLabel"/></g><g transform="translate(20,20.0458984375 )" id="entity-CLIENT-4e758595-4f1b-56da-a7d5-19191cf4cb1e"><rect height="112.27539348602295" width="101.984375" y="0" x="0" class="er entityBox"/><text style="dominant-baseline: middle; text-anchor: middle; font-size: 12px;" transform="translate(50.9921875,12)" y="0" x="0" id="text-entity-CLIENT-4e758595-4f1b-56da-a7d5-19191cf4cb1e" class="er entityLabel">CLIENT</text><rect height="22" width="35.75" y="24" x="0" class="er attributeBoxOdd"/><text style="dominant-baseline: middle; font-size: 10.2px;" transform="translate(5,35)" y="0" x="0" id="text-entity-CLIENT-4e758595-4f1b-56da-a7d5-19191cf4cb1e-attr-1-type" class="er entityLabel">int</text><rect height="22" width="44.671875" y="24" x="35.75" class="er attributeBoxOdd"/><text style="dominant-baseline: middle; font-size: 10.2px;" transform="translate(40.75,35)" y="0" x="0" id="text-entity-CLIENT-4e758595-4f1b-56da-a7d5-19191cf4cb1e-attr-1-name" class="er entityLabel">clientId</text><rect height="22" width="21.5625" y="24" x="80.421875" class="er attributeBoxOdd"/><text style="dominant-baseline: middle; font-size: 10.2px;" transform="translate(85.421875,35)" y="0" x="0" id="text-entity-CLIENT-4e758595-4f1b-56da-a7d5-19191cf4cb1e-attr-1-key" class="er entityLabel">PK</text><rect height="22.091797828674316" width="35.75" y="46" x="0" class="er attributeBoxEven"/><text style="dominant-baseline: middle; font-size: 10.2px;" transform="translate(5,57.04589891433716)" y="0" x="0" id="text-entity-CLIENT-4e758595-4f1b-56da-a7d5-19191cf4cb1e-attr-2-type" class="er entityLabel">string</text><rect height="22.091797828674316" width="44.671875" y="46" x="35.75" class="er attributeBoxEven"/><text style="dominant-baseline: middle; font-size: 10.2px;" transform="translate(40.75,57.04589891433716)" y="0" x="0" id="text-entity-CLIENT-4e758595-4f1b-56da-a7d5-19191cf4cb1e-attr-2-name" class="er entityLabel">name</text><rect height="22.091797828674316" width="21.5625" y="46" x="80.421875" class="er attributeBoxEven"/><text style="dominant-baseline: middle; font-size: 10.2px;" transform="translate(85.421875,57.04589891433716)" y="0" x="0" id="text-entity-CLIENT-4e758595-4f1b-56da-a7d5-19191cf4cb1e-attr-2-key" class="er entityLabel"/><rect height="22.091797828674316" width="35.75" y="68.09179782867432" x="0" class="er attributeBoxOdd"/><text style="dominant-baseline: middle; font-size: 10.2px;" transform="translate(5,79.13769674301147)" y="0" x="0" id="text-entity-CLIENT-4e758595-4f1b-56da-a7d5-19191cf4cb1e-attr-3-type" class="er entityLabel">string</text><rect height="22.091797828674316" width="44.671875" y="68.09179782867432" x="35.75" class="er attributeBoxOdd"/><text style="dominant-baseline: middle; font-size: 10.2px;" transform="translate(40.75,79.13769674301147)" y="0" x="0" id="text-entity-CLIENT-4e758595-4f1b-56da-a7d5-19191cf4cb1e-attr-3-name" class="er entityLabel">email</text><rect height="22.091797828674316" width="21.5625" y="68.09179782867432" x="80.421875" class="er attributeBoxOdd"/><text style="dominant-baseline: middle; font-size: 10.2px;" transform="translate(85.421875,79.13769674301147)" y="0" x="0" id="text-entity-CLIENT-4e758595-4f1b-56da-a7d5-19191cf4cb1e-attr-3-key" class="er entityLabel"/><rect height="22.091797828674316" width="35.75" y="90.18359565734863" x="0" class="er attributeBoxEven"/><text style="dominant-baseline: middle; font-size: 10.2px;" transform="translate(5,101.22949457168579)" y="0" x="0" id="text-entity-CLIENT-4e758595-4f1b-56da-a7d5-19191cf4cb1e-attr-4-type" class="er entityLabel">string</text><rect height="22.091797828674316" width="44.671875" y="90.18359565734863" x="35.75" class="er attributeBoxEven"/><text style="dominant-baseline: middle; font-size: 10.2px;" transform="translate(40.75,101.22949457168579)" y="0" x="0" id="text-entity-CLIENT-4e758595-4f1b-56da-a7d5-19191cf4cb1e-attr-4-name" class="er entityLabel">phone</text><rect height="22.091797828674316" width="21.5625" y="90.18359565734863" x="80.421875" class="er attributeBoxEven"/><text style="dominant-baseline: middle; font-size: 10.2px;" transform="translate(85.421875,101.22949457168579)" y="0" x="0" id="text-entity-CLIENT-4e758595-4f1b-56da-a7d5-19191cf4cb1e-attr-4-key" class="er entityLabel"/></g><g transform="translate(221.984375,20 )" id="entity-LAWYER-516e62bf-31c6-5d08-97bb-584eb0cf5f8c"><rect height="112.36719036102295" width="106.359375" y="0" x="0" class="er entityBox"/><text style="dominant-baseline: middle; text-anchor: middle; font-size: 12px;" transform="translate(53.1796875,12)" y="0" x="0" id="text-entity-LAWYER-516e62bf-31c6-5d08-97bb-584eb0cf5f8c" class="er entityLabel">LAWYER</text><rect height="22.091796875" width="35.75" y="24" x="0" class="er attributeBoxOdd"/><text style="dominant-baseline: middle; font-size: 10.2px;" transform="translate(5,35.0458984375)" y="0" x="0" id="text-entity-LAWYER-516e62bf-31c6-5d08-97bb-584eb0cf5f8c-attr-1-type" class="er entityLabel">int</text><rect height="22.091796875" width="49.046875" y="24" x="35.75" class="er attributeBoxOdd"/><text style="dominant-baseline: middle; font-size: 10.2px;" transform="translate(40.75,35.0458984375)" y="0" x="0" id="text-entity-LAWYER-516e62bf-31c6-5d08-97bb-584eb0cf5f8c-attr-1-name" class="er entityLabel">lawyerId</text><rect height="22.091796875" width="21.5625" y="24" x="84.796875" class="er attributeBoxOdd"/><text style="dominant-baseline: middle; font-size: 10.2px;" transform="translate(89.796875,35.0458984375)" y="0" x="0" id="text-entity-LAWYER-516e62bf-31c6-5d08-97bb-584eb0cf5f8c-attr-1-key" class="er entityLabel">PK</text><rect height="22.091797828674316" width="35.75" y="46.091796875" x="0" class="er attributeBoxEven"/><text style="dominant-baseline: middle; font-size: 10.2px;" transform="translate(5,57.13769578933716)" y="0" x="0" id="text-entity-LAWYER-516e62bf-31c6-5d08-97bb-584eb0cf5f8c-attr-2-type" class="er entityLabel">string</text><rect height="22.091797828674316" width="49.046875" y="46.091796875" x="35.75" class="er attributeBoxEven"/><text style="dominant-baseline: middle; font-size: 10.2px;" transform="translate(40.75,57.13769578933716)" y="0" x="0" id="text-entity-LAWYER-516e62bf-31c6-5d08-97bb-584eb0cf5f8c-attr-2-name" class="er entityLabel">name</text><rect height="22.091797828674316" width="21.5625" y="46.091796875" x="84.796875" class="er attributeBoxEven"/><text style="dominant-baseline: middle; font-size: 10.2px;" transform="translate(89.796875,57.13769578933716)" y="0" x="0" id="text-entity-LAWYER-516e62bf-31c6-5d08-97bb-584eb0cf5f8c-attr-2-key" class="er entityLabel"/><rect height="22.091797828674316" width="35.75" y="68.18359470367432" x="0" class="er attributeBoxOdd"/><text style="dominant-baseline: middle; font-size: 10.2px;" transform="translate(5,79.22949361801147)" y="0" x="0" id="text-entity-LAWYER-516e62bf-31c6-5d08-97bb-584eb0cf5f8c-attr-3-type" class="er entityLabel">string</text><rect height="22.091797828674316" width="49.046875" y="68.18359470367432" x="35.75" class="er attributeBoxOdd"/><text style="dominant-baseline: middle; font-size: 10.2px;" transform="translate(40.75,79.22949361801147)" y="0" x="0" id="text-entity-LAWYER-516e62bf-31c6-5d08-97bb-584eb0cf5f8c-attr-3-name" class="er entityLabel">email</text><rect height="22.091797828674316" width="21.5625" y="68.18359470367432" x="84.796875" class="er attributeBoxOdd"/><text style="dominant-baseline: middle; font-size: 10.2px;" transform="translate(89.796875,79.22949361801147)" y="0" x="0" id="text-entity-LAWYER-516e62bf-31c6-5d08-97bb-584eb0cf5f8c-attr-3-key" class="er entityLabel"/><rect height="22.091797828674316" width="35.75" y="90.27539253234863" x="0" class="er attributeBoxEven"/><text style="dominant-baseline: middle; font-size: 10.2px;" transform="translate(5,101.32129144668579)" y="0" x="0" id="text-entity-LAWYER-516e62bf-31c6-5d08-97bb-584eb0cf5f8c-attr-4-type" class="er entityLabel">string</text><rect height="22.091797828674316" width="49.046875" y="90.27539253234863" x="35.75" class="er attributeBoxEven"/><text style="dominant-baseline: middle; font-size: 10.2px;" transform="translate(40.75,101.32129144668579)" y="0" x="0" id="text-entity-LAWYER-516e62bf-31c6-5d08-97bb-584eb0cf5f8c-attr-4-name" class="er entityLabel">phone</text><rect height="22.091797828674316" width="21.5625" y="90.27539253234863" x="84.796875" class="er attributeBoxEven"/><text style="dominant-baseline: middle; font-size: 10.2px;" transform="translate(89.796875,101.32129144668579)" y="0" x="0" id="text-entity-LAWYER-516e62bf-31c6-5d08-97bb-584eb0cf5f8c-attr-4-key" class="er entityLabel"/></g><g transform="translate(428.34375,20.0458984375 )" id="entity-DOCUMENT-930a1042-f082-53f3-9c67-66f432d02c38"><rect height="112.27539253234863" width="121.265625" y="0" x="0" class="er entityBox"/><text style="dominant-baseline: middle; text-anchor: middle; font-size: 12px;" transform="translate(60.6328125,12)" y="0" x="0" id="text-entity-DOCUMENT-930a1042-f082-53f3-9c67-66f432d02c38" class="er entityLabel">DOCUMENT</text><rect height="22" width="35.75" y="24" x="0" class="er attributeBoxOdd"/><text style="dominant-baseline: middle; font-size: 10.2px;" transform="translate(5,35)" y="0" x="0" id="text-entity-DOCUMENT-930a1042-f082-53f3-9c67-66f432d02c38-attr-1-type" class="er entityLabel">int</text><rect height="22" width="63.953125" y="24" x="35.75" class="er attributeBoxOdd"/><text style="dominant-baseline: middle; font-size: 10.2px;" transform="translate(40.75,35)" y="0" x="0" id="text-entity-DOCUMENT-930a1042-f082-53f3-9c67-66f432d02c38-attr-1-name" class="er entityLabel">documentId</text><rect height="22" width="21.5625" y="24" x="99.703125" class="er attributeBoxOdd"/><text style="dominant-baseline: middle; font-size: 10.2px;" transform="translate(104.703125,35)" y="0" x="0" id="text-entity-DOCUMENT-930a1042-f082-53f3-9c67-66f432d02c38-attr-1-key" class="er entityLabel">PK</text><rect height="22.091797828674316" width="35.75" y="46" x="0" class="er attributeBoxEven"/><text style="dominant-baseline: middle; font-size: 10.2px;" transform="translate(5,57.04589891433716)" y="0" x="0" id="text-entity-DOCUMENT-930a1042-f082-53f3-9c67-66f432d02c38-attr-2-type" class="er entityLabel">string</text><rect height="22.091797828674316" width="63.953125" y="46" x="35.75" class="er attributeBoxEven"/><text style="dominant-baseline: middle; font-size: 10.2px;" transform="translate(40.75,57.04589891433716)" y="0" x="0" id="text-entity-DOCUMENT-930a1042-f082-53f3-9c67-66f432d02c38-attr-2-name" class="er entityLabel">name</text><rect height="22.091797828674316" width="21.5625" y="46" x="99.703125" class="er attributeBoxEven"/><text style="dominant-baseline: middle; font-size: 10.2px;" transform="translate(104.703125,57.04589891433716)" y="0" x="0" id="text-entity-DOCUMENT-930a1042-f082-53f3-9c67-66f432d02c38-attr-2-key" class="er entityLabel"/><rect height="22.091797828674316" width="35.75" y="68.09179782867432" x="0" class="er attributeBoxOdd"/><text style="dominant-baseline: middle; font-size: 10.2px;" transform="translate(5,79.13769674301147)" y="0" x="0" id="text-entity-DOCUMENT-930a1042-f082-53f3-9c67-66f432d02c38-attr-3-type" class="er entityLabel">string</text><rect height="22.091797828674316" width="63.953125" y="68.09179782867432" x="35.75" class="er attributeBoxOdd"/><text style="dominant-baseline: middle; font-size: 10.2px;" transform="translate(40.75,79.13769674301147)" y="0" x="0" id="text-entity-DOCUMENT-930a1042-f082-53f3-9c67-66f432d02c38-attr-3-name" class="er entityLabel">type</text><rect height="22.091797828674316" width="21.5625" y="68.09179782867432" x="99.703125" class="er attributeBoxOdd"/><text style="dominant-baseline: middle; font-size: 10.2px;" transform="translate(104.703125,79.13769674301147)" y="0" x="0" id="text-entity-DOCUMENT-930a1042-f082-53f3-9c67-66f432d02c38-attr-3-key" class="er entityLabel"/><rect height="22.091796875" width="35.75" y="90.18359565734863" x="0" class="er attributeBoxEven"/><text style="dominant-baseline: middle; font-size: 10.2px;" transform="translate(5,101.22949409484863)" y="0" x="0" id="text-entity-DOCUMENT-930a1042-f082-53f3-9c67-66f432d02c38-attr-4-type" class="er entityLabel">date</text><rect height="22.091796875" width="63.953125" y="90.18359565734863" x="35.75" class="er attributeBoxEven"/><text style="dominant-baseline: middle; font-size: 10.2px;" transform="translate(40.75,101.22949409484863)" y="0" x="0" id="text-entity-DOCUMENT-930a1042-f082-53f3-9c67-66f432d02c38-attr-4-name" class="er entityLabel">uploadDate</text><rect height="22.091796875" width="21.5625" y="90.18359565734863" x="99.703125" class="er attributeBoxEven"/><text style="dominant-baseline: middle; font-size: 10.2px;" transform="translate(104.703125,101.22949409484863)" y="0" x="0" id="text-entity-DOCUMENT-930a1042-f082-53f3-9c67-66f432d02c38-attr-4-key" class="er entityLabel"/></g><g transform="translate(649.609375,20.0458984375 )" id="entity-HEARING-849417ee-2ac4-5784-8b50-729de8e9a025"><rect height="112.27539253234863" width="110.40625" y="0" x="0" class="er entityBox"/><text style="dominant-baseline: middle; text-anchor: middle; font-size: 12px;" transform="translate(55.203125,12)" y="0" x="0" id="text-entity-HEARING-849417ee-2ac4-5784-8b50-729de8e9a025" class="er entityLabel">HEARING</text><rect height="22.091796875" width="35.75" y="24" x="0" class="er attributeBoxOdd"/><text style="dominant-baseline: middle; font-size: 10.2px;" transform="translate(5,35.0458984375)" y="0" x="0" id="text-entity-HEARING-849417ee-2ac4-5784-8b50-729de8e9a025-attr-1-type" class="er entityLabel">int</text><rect height="22.091796875" width="53.09375" y="24" x="35.75" class="er attributeBoxOdd"/><text style="dominant-baseline: middle; font-size: 10.2px;" transform="translate(40.75,35.0458984375)" y="0" x="0" id="text-entity-HEARING-849417ee-2ac4-5784-8b50-729de8e9a025-attr-1-name" class="er entityLabel">hearingId</text><rect height="22.091796875" width="21.5625" y="24" x="88.84375" class="er attributeBoxOdd"/><text style="dominant-baseline: middle; font-size: 10.2px;" transform="translate(93.84375,35.0458984375)" y="0" x="0" id="text-entity-HEARING-849417ee-2ac4-5784-8b50-729de8e9a025-attr-1-key" class="er entityLabel">PK</text><rect height="22.091797828674316" width="35.75" y="46.091796875" x="0" class="er attributeBoxEven"/><text style="dominant-baseline: middle; font-size: 10.2px;" transform="translate(5,57.13769578933716)" y="0" x="0" id="text-entity-HEARING-849417ee-2ac4-5784-8b50-729de8e9a025-attr-2-type" class="er entityLabel">string</text><rect height="22.091797828674316" width="53.09375" y="46.091796875" x="35.75" class="er attributeBoxEven"/><text style="dominant-baseline: middle; font-size: 10.2px;" transform="translate(40.75,57.13769578933716)" y="0" x="0" id="text-entity-HEARING-849417ee-2ac4-5784-8b50-729de8e9a025-attr-2-name" class="er entityLabel">location</text><rect height="22.091797828674316" width="21.5625" y="46.091796875" x="88.84375" class="er attributeBoxEven"/><text style="dominant-baseline: middle; font-size: 10.2px;" transform="translate(93.84375,57.13769578933716)" y="0" x="0" id="text-entity-HEARING-849417ee-2ac4-5784-8b50-729de8e9a025-attr-2-key" class="er entityLabel"/><rect height="22" width="35.75" y="68.18359470367432" x="0" class="er attributeBoxOdd"/><text style="dominant-baseline: middle; font-size: 10.2px;" transform="translate(5,79.18359470367432)" y="0" x="0" id="text-entity-HEARING-849417ee-2ac4-5784-8b50-729de8e9a025-attr-3-type" class="er entityLabel">date</text><rect height="22" width="53.09375" y="68.18359470367432" x="35.75" class="er attributeBoxOdd"/><text style="dominant-baseline: middle; font-size: 10.2px;" transform="translate(40.75,79.18359470367432)" y="0" x="0" id="text-entity-HEARING-849417ee-2ac4-5784-8b50-729de8e9a025-attr-3-name" class="er entityLabel">dateTime</text><rect height="22" width="21.5625" y="68.18359470367432" x="88.84375" class="er attributeBoxOdd"/><text style="dominant-baseline: middle; font-size: 10.2px;" transform="translate(93.84375,79.18359470367432)" y="0" x="0" id="text-entity-HEARING-849417ee-2ac4-5784-8b50-729de8e9a025-attr-3-key" class="er entityLabel"/><rect height="22.091797828674316" width="35.75" y="90.18359470367432" x="0" class="er attributeBoxEven"/><text style="dominant-baseline: middle; font-size: 10.2px;" transform="translate(5,101.22949361801147)" y="0" x="0" id="text-entity-HEARING-849417ee-2ac4-5784-8b50-729de8e9a025-attr-4-type" class="er entityLabel">string</text><rect height="22.091797828674316" width="53.09375" y="90.18359470367432" x="35.75" class="er attributeBoxEven"/><text style="dominant-baseline: middle; font-size: 10.2px;" transform="translate(40.75,101.22949361801147)" y="0" x="0" id="text-entity-HEARING-849417ee-2ac4-5784-8b50-729de8e9a025-attr-4-name" class="er entityLabel">judge</text><rect height="22.091797828674316" width="21.5625" y="90.18359470367432" x="88.84375" class="er attributeBoxEven"/><text style="dominant-baseline: middle; font-size: 10.2px;" transform="translate(93.84375,101.22949361801147)" y="0" x="0" id="text-entity-HEARING-849417ee-2ac4-5784-8b50-729de8e9a025-attr-4-key" class="er entityLabel"/></g><rect height="14" width="17.71875" y="431.64300537109375" x="373.21063232421875" class="er relationshipLabelBox"/><text style="text-anchor: middle; dominant-baseline: middle; font-size: 12px;" y="438.64300537109375" x="382.07000732421875" id="rel1" class="er relationshipLabel">has</text><rect height="14" width="26.046875" y="219.99472045898438" x="170.30227661132812" class="er relationshipLabelBox"/><text style="text-anchor: middle; dominant-baseline: middle; font-size: 12px;" y="226.99472045898438" x="183.32571411132812" id="rel2" class="er relationshipLabel">hires</text><rect height="14" width="41.046875" y="186.69557189941406" x="268.15606689453125" class="er relationshipLabelBox"/><text style="text-anchor: middle; dominant-baseline: middle; font-size: 12px;" y="193.69557189941406" x="288.67950439453125" id="rel3" class="er relationshipLabel">handles</text><rect height="14" width="37.21875" y="186.67544555664062" x="456.8612365722656" class="er relationshipLabelBox"/><text style="text-anchor: middle; dominant-baseline: middle; font-size: 12px;" y="193.67544555664062" x="475.4706115722656" id="rel4" class="er relationshipLabel">relates</text><rect height="14" width="52.09375" y="220.71502685546875" x="560.4943237304688" class="er relationshipLabelBox"/><text style="text-anchor: middle; dominant-baseline: middle; font-size: 12px;" y="227.71502685546875" x="586.5411987304688" id="rel5" class="er relationshipLabel">schedules</text></svg>