<svg aria-roledescription="class" role="graphics-document document" viewBox="0 0 441.6796875 330" style="max-width: 441.68px; background-color: white;" class="classDiagram" xmlns:xlink="http://www.w3.org/1999/xlink" xmlns="http://www.w3.org/2000/svg" width="100%" id="my-svg"><style>#my-svg{font-family:"trebuchet ms",verdana,arial,sans-serif;font-size:16px;fill:#333;}#my-svg .error-icon{fill:#552222;}#my-svg .error-text{fill:#552222;stroke:#552222;}#my-svg .edge-thickness-normal{stroke-width:1px;}#my-svg .edge-thickness-thick{stroke-width:3.5px;}#my-svg .edge-pattern-solid{stroke-dasharray:0;}#my-svg .edge-thickness-invisible{stroke-width:0;fill:none;}#my-svg .edge-pattern-dashed{stroke-dasharray:3;}#my-svg .edge-pattern-dotted{stroke-dasharray:2;}#my-svg .marker{fill:#333333;stroke:#333333;}#my-svg .marker.cross{stroke:#333333;}#my-svg svg{font-family:"trebuchet ms",verdana,arial,sans-serif;font-size:16px;}#my-svg p{margin:0;}#my-svg g.classGroup text{fill:#9370DB;stroke:none;font-family:"trebuchet ms",verdana,arial,sans-serif;font-size:10px;}#my-svg g.classGroup text .title{font-weight:bolder;}#my-svg .nodeLabel,#my-svg .edgeLabel{color:#131300;}#my-svg .edgeLabel .label rect{fill:#ECECFF;}#my-svg .label text{fill:#131300;}#my-svg .labelBkg{background:#ECECFF;}#my-svg .edgeLabel .label span{background:#ECECFF;}#my-svg .classTitle{font-weight:bolder;}#my-svg .node rect,#my-svg .node circle,#my-svg .node ellipse,#my-svg .node polygon,#my-svg .node path{fill:#ECECFF;stroke:#9370DB;stroke-width:1px;}#my-svg .divider{stroke:#9370DB;stroke-width:1;}#my-svg g.clickable{cursor:pointer;}#my-svg g.classGroup rect{fill:#ECECFF;stroke:#9370DB;}#my-svg g.classGroup line{stroke:#9370DB;stroke-width:1;}#my-svg .classLabel .box{stroke:none;stroke-width:0;fill:#ECECFF;opacity:0.5;}#my-svg .classLabel .label{fill:#9370DB;font-size:10px;}#my-svg .relation{stroke:#333333;stroke-width:1;fill:none;}#my-svg .dashed-line{stroke-dasharray:3;}#my-svg .dotted-line{stroke-dasharray:1 2;}#my-svg #compositionStart,#my-svg .composition{fill:#333333!important;stroke:#333333!important;stroke-width:1;}#my-svg #compositionEnd,#my-svg .composition{fill:#333333!important;stroke:#333333!important;stroke-width:1;}#my-svg #dependencyStart,#my-svg .dependency{fill:#333333!important;stroke:#333333!important;stroke-width:1;}#my-svg #dependencyStart,#my-svg .dependency{fill:#333333!important;stroke:#333333!important;stroke-width:1;}#my-svg #extensionStart,#my-svg .extension{fill:transparent!important;stroke:#333333!important;stroke-width:1;}#my-svg #extensionEnd,#my-svg .extension{fill:transparent!important;stroke:#333333!important;stroke-width:1;}#my-svg #aggregationStart,#my-svg .aggregation{fill:transparent!important;stroke:#333333!important;stroke-width:1;}#my-svg #aggregationEnd,#my-svg .aggregation{fill:transparent!important;stroke:#333333!important;stroke-width:1;}#my-svg #lollipopStart,#my-svg .lollipop{fill:#ECECFF!important;stroke:#333333!important;stroke-width:1;}#my-svg #lollipopEnd,#my-svg .lollipop{fill:#ECECFF!important;stroke:#333333!important;stroke-width:1;}#my-svg .edgeTerminals{font-size:11px;line-height:initial;}#my-svg .classTitleText{text-anchor:middle;font-size:18px;fill:#333;}#my-svg :root{--mermaid-font-family:"trebuchet ms",verdana,arial,sans-serif;}</style><g><defs><marker orient="auto" markerHeight="240" markerWidth="190" refY="7" refX="18" class="marker aggregation class" id="my-svg_class-aggregationStart"><path d="M 18,7 L9,13 L1,7 L9,1 Z"/></marker></defs><defs><marker orient="auto" markerHeight="28" markerWidth="20" refY="7" refX="1" class="marker aggregation class" id="my-svg_class-aggregationEnd"><path d="M 18,7 L9,13 L1,7 L9,1 Z"/></marker></defs><defs><marker orient="auto" markerHeight="240" markerWidth="190" refY="7" refX="18" class="marker extension class" id="my-svg_class-extensionStart"><path d="M 1,7 L18,13 V 1 Z"/></marker></defs><defs><marker orient="auto" markerHeight="28" markerWidth="20" refY="7" refX="1" class="marker extension class" id="my-svg_class-extensionEnd"><path d="M 1,1 V 13 L18,7 Z"/></marker></defs><defs><marker orient="auto" markerHeight="240" markerWidth="190" refY="7" refX="18" class="marker composition class" id="my-svg_class-compositionStart"><path d="M 18,7 L9,13 L1,7 L9,1 Z"/></marker></defs><defs><marker orient="auto" markerHeight="28" markerWidth="20" refY="7" refX="1" class="marker composition class" id="my-svg_class-compositionEnd"><path d="M 18,7 L9,13 L1,7 L9,1 Z"/></marker></defs><defs><marker orient="auto" markerHeight="240" markerWidth="190" refY="7" refX="6" class="marker dependency class" id="my-svg_class-dependencyStart"><path d="M 5,7 L9,13 L1,7 L9,1 Z"/></marker></defs><defs><marker orient="auto" markerHeight="28" markerWidth="20" refY="7" refX="13" class="marker dependency class" id="my-svg_class-dependencyEnd"><path d="M 18,7 L9,13 L14,7 L9,1 Z"/></marker></defs><defs><marker orient="auto" markerHeight="240" markerWidth="190" refY="7" refX="13" class="marker lollipop class" id="my-svg_class-lollipopStart"><circle r="6" cy="7" cx="7" fill="transparent" stroke="black"/></marker></defs><defs><marker orient="auto" markerHeight="240" markerWidth="190" refY="7" refX="1" class="marker lollipop class" id="my-svg_class-lollipopEnd"><circle r="6" cy="7" cx="7" fill="transparent" stroke="black"/></marker></defs><g class="root"><g class="clusters"/><g class="edgePaths"><path marker-end="url(#my-svg_class-extensionEnd)" style=";" class="edge-thickness-normal edge-pattern-solid relation" id="id_ExempluClasăConcretă_ExempluClasăAbstractă_1" d="M174.827,92L163.69,102.167C152.552,112.333,130.276,132.667,119.138,150C108,167.333,108,181.667,108,188.833L108,196"/><path marker-end="url(#my-svg_class-extensionEnd)" style=";" class="edge-thickness-normal edge-pattern-dashed relation" id="id_ExempluClasăConcretă_ExempluInterfață_2" d="M266.852,92L277.99,102.167C289.128,112.333,311.404,132.667,322.542,150C333.68,167.333,333.68,181.667,333.68,188.833L333.68,196"/></g><g class="edgeLabels"><g transform="translate(108, 153)" class="edgeLabel"><g transform="translate(-100, -24)" class="label"><foreignObject height="48" width="200"><div class="labelBkg" xmlns="http://www.w3.org/1999/xhtml" style="display: table; white-space: break-spaces; line-height: 1.5; max-width: 200px; text-align: center; width: 200px;"><span class="edgeLabel" style=";display: inline-block"><p>Mostenire! Săgeată cu linie continuă și vârf gol</p></span></div></foreignObject></g></g><g transform="translate(333.6796875, 153)" class="edgeLabel"><g transform="translate(-100, -36)" class="label"><foreignObject height="72" width="200"><div class="labelBkg" xmlns="http://www.w3.org/1999/xhtml" style="display: table; white-space: break-spaces; line-height: 1.5; max-width: 200px; text-align: center; width: 200px;"><span class="edgeLabel" style=";display: inline-block"><p>Implementare Interfata! Săgeată cu linie întreruptă și vârf gol</p></span></div></foreignObject></g></g></g><g class="nodes"><g transform="translate(333.6796875, 268)" id="classId-ExempluInterfață-0" class="node default"><g class="basic label-container"><path style="" fill="#ECECFF" stroke-width="0" stroke="none" d="M-76.9765625 -54 L76.9765625 -54 L76.9765625 54 L-76.9765625 54"/><path style="" fill="none" stroke-width="1.3" stroke="#9370DB" d="M-76.9765625 -54 C-42.68409544795468 -54, -8.391628395909365 -54, 76.9765625 -54 M-76.9765625 -54 C-16.57922287311036 -54, 43.81811675377928 -54, 76.9765625 -54 M76.9765625 -54 C76.9765625 -11.8770776252249, 76.9765625 30.2458447495502, 76.9765625 54 M76.9765625 -54 C76.9765625 -17.37836288099396, 76.9765625 19.243274238012077, 76.9765625 54 M76.9765625 54 C16.78992237699464 54, -43.39671774601072 54, -76.9765625 54 M76.9765625 54 C32.50949263204591 54, -11.957577235908175 54, -76.9765625 54 M-76.9765625 54 C-76.9765625 23.290784907298068, -76.9765625 -7.418430185403864, -76.9765625 -54 M-76.9765625 54 C-76.9765625 16.65601176139708, -76.9765625 -20.687976477205837, -76.9765625 -54"/></g><g transform="translate(-41.171875, -30)" class="annotation-group text"><g transform="translate(0,-12)" style="" class="label"><foreignObject height="24" width="82.34375"><div style="display: table-cell; white-space: nowrap; line-height: 1.5; max-width: 122px; text-align: center;" xmlns="http://www.w3.org/1999/xhtml"><span style="" class="nodeLabel markdown-node-label"><p>«interface»</p></span></div></foreignObject></g></g><g transform="translate(-64.9765625, -6)" class="label-group text"><g transform="translate(0,-12)" style="font-weight: bolder" class="label"><foreignObject height="24" width="129.953125"><div style="display: table-cell; white-space: nowrap; line-height: 1.5; max-width: 162px; text-align: center;" xmlns="http://www.w3.org/1999/xhtml"><span style="" class="nodeLabel markdown-node-label"><p>ExempluInterfață</p></span></div></foreignObject></g></g><g transform="translate(-64.9765625, 42)" class="members-group text"/><g transform="translate(-64.9765625, 72)" class="methods-group text"/><g style="" class="divider"><path style="" fill="none" stroke-width="1.3" stroke="#9370DB" d="M-76.9765625 18 C-24.258258593206563 18, 28.460045313586875 18, 76.9765625 18 M-76.9765625 18 C-21.043505859103433 18, 34.88955078179313 18, 76.9765625 18"/></g><g style="" class="divider"><path style="" fill="none" stroke-width="1.3" stroke="#9370DB" d="M-76.9765625 36 C-28.872129379967802 36, 19.232303740064395 36, 76.9765625 36 M-76.9765625 36 C-33.70761783657188 36, 9.561326826856245 36, 76.9765625 36"/></g></g><g transform="translate(108, 268)" id="classId-ExempluClasăAbstractă-1" class="node default"><g class="basic label-container"><path style="" fill="#ECECFF" stroke-width="0" stroke="none" d="M-98.703125 -54 L98.703125 -54 L98.703125 54 L-98.703125 54"/><path style="" fill="none" stroke-width="1.3" stroke="#9370DB" d="M-98.703125 -54 C-34.44965906493992 -54, 29.803806870120155 -54, 98.703125 -54 M-98.703125 -54 C-54.29335114208665 -54, -9.883577284173299 -54, 98.703125 -54 M98.703125 -54 C98.703125 -11.911822516982475, 98.703125 30.17635496603505, 98.703125 54 M98.703125 -54 C98.703125 -16.94777638830091, 98.703125 20.104447223398182, 98.703125 54 M98.703125 54 C49.615144601568694 54, 0.5271642031373887 54, -98.703125 54 M98.703125 54 C31.837612868866742 54, -35.027899262266516 54, -98.703125 54 M-98.703125 54 C-98.703125 27.011371019011023, -98.703125 0.022742038022045108, -98.703125 -54 M-98.703125 54 C-98.703125 20.444777390346097, -98.703125 -13.110445219307806, -98.703125 -54"/></g><g transform="translate(-37.90625, -30)" class="annotation-group text"><g transform="translate(0,-12)" style="" class="label"><foreignObject height="24" width="75.8125"><div style="display: table-cell; white-space: nowrap; line-height: 1.5; max-width: 116px; text-align: center;" xmlns="http://www.w3.org/1999/xhtml"><span style="" class="nodeLabel markdown-node-label"><p>«abstract»</p></span></div></foreignObject></g></g><g transform="translate(-86.703125, -6)" class="label-group text"><g transform="translate(0,-12)" style="font-weight: bolder" class="label"><foreignObject height="24" width="173.40625"><div style="display: table-cell; white-space: nowrap; line-height: 1.5; max-width: 205px; text-align: center;" xmlns="http://www.w3.org/1999/xhtml"><span style="" class="nodeLabel markdown-node-label"><p>ExempluClasăAbstractă</p></span></div></foreignObject></g></g><g transform="translate(-86.703125, 42)" class="members-group text"/><g transform="translate(-86.703125, 72)" class="methods-group text"/><g style="" class="divider"><path style="" fill="none" stroke-width="1.3" stroke="#9370DB" d="M-98.703125 18 C-42.79155779119162 18, 13.120009417616757 18, 98.703125 18 M-98.703125 18 C-51.32347650466745 18, -3.9438280093348936 18, 98.703125 18"/></g><g style="" class="divider"><path style="" fill="none" stroke-width="1.3" stroke="#9370DB" d="M-98.703125 36 C-35.44454719775699 36, 27.81403060448602 36, 98.703125 36 M-98.703125 36 C-20.950632556328614 36, 56.80185988734277 36, 98.703125 36"/></g></g><g transform="translate(220.83984375, 50)" id="classId-ExempluClasăConcretă-2" class="node default"><g class="basic label-container"><path style="" fill="#ECECFF" stroke-width="0" stroke="none" d="M-97.1015625 -42 L97.1015625 -42 L97.1015625 42 L-97.1015625 42"/><path style="" fill="none" stroke-width="1.3" stroke="#9370DB" d="M-97.1015625 -42 C-22.76102144402273 -42, 51.57951961195454 -42, 97.1015625 -42 M-97.1015625 -42 C-50.462964875793375 -42, -3.82436725158675 -42, 97.1015625 -42 M97.1015625 -42 C97.1015625 -15.563891423442971, 97.1015625 10.872217153114057, 97.1015625 42 M97.1015625 -42 C97.1015625 -20.877183546898465, 97.1015625 0.24563290620307043, 97.1015625 42 M97.1015625 42 C46.887447782745426 42, -3.3266669345091486 42, -97.1015625 42 M97.1015625 42 C38.80841449614659 42, -19.48473350770682 42, -97.1015625 42 M-97.1015625 42 C-97.1015625 23.054721119528594, -97.1015625 4.109442239057188, -97.1015625 -42 M-97.1015625 42 C-97.1015625 17.519677980784294, -97.1015625 -6.960644038431411, -97.1015625 -42"/></g><g transform="translate(0, -18)" class="annotation-group text"/><g transform="translate(-85.1015625, -18)" class="label-group text"><g transform="translate(0,-12)" style="font-weight: bolder" class="label"><foreignObject height="24" width="170.203125"><div style="display: table-cell; white-space: nowrap; line-height: 1.5; max-width: 201px; text-align: center;" xmlns="http://www.w3.org/1999/xhtml"><span style="" class="nodeLabel markdown-node-label"><p>ExempluClasăConcretă</p></span></div></foreignObject></g></g><g transform="translate(-85.1015625, 30)" class="members-group text"/><g transform="translate(-85.1015625, 60)" class="methods-group text"/><g style="" class="divider"><path style="" fill="none" stroke-width="1.3" stroke="#9370DB" d="M-97.1015625 6 C-30.446778513070697 6, 36.208005473858606 6, 97.1015625 6 M-97.1015625 6 C-46.45524962110844 6, 4.191063257783114 6, 97.1015625 6"/></g><g style="" class="divider"><path style="" fill="none" stroke-width="1.3" stroke="#9370DB" d="M-97.1015625 24 C-23.678539043515528 24, 49.744484412968944 24, 97.1015625 24 M-97.1015625 24 C-51.44543522818282 24, -5.789307956365647 24, 97.1015625 24"/></g></g></g></g></g></svg>