<svg aria-roledescription="mindmap" role="graphics-document document" viewBox="5 5 1071.91455078125 555.2910766601562" style="max-width: 1071.91px; background-color: white;" xmlns:xlink="http://www.w3.org/1999/xlink" xmlns="http://www.w3.org/2000/svg" width="100%" id="my-svg"><style>#my-svg{font-family:"trebuchet ms",verdana,arial,sans-serif;font-size:16px;fill:#333;}#my-svg .error-icon{fill:#552222;}#my-svg .error-text{fill:#552222;stroke:#552222;}#my-svg .edge-thickness-normal{stroke-width:1px;}#my-svg .edge-thickness-thick{stroke-width:3.5px;}#my-svg .edge-pattern-solid{stroke-dasharray:0;}#my-svg .edge-thickness-invisible{stroke-width:0;fill:none;}#my-svg .edge-pattern-dashed{stroke-dasharray:3;}#my-svg .edge-pattern-dotted{stroke-dasharray:2;}#my-svg .marker{fill:#333333;stroke:#333333;}#my-svg .marker.cross{stroke:#333333;}#my-svg svg{font-family:"trebuchet ms",verdana,arial,sans-serif;font-size:16px;}#my-svg p{margin:0;}#my-svg .edge{stroke-width:3;}#my-svg .section--1 rect,#my-svg .section--1 path,#my-svg .section--1 circle,#my-svg .section--1 polygon,#my-svg .section--1 path{fill:hsl(240, 100%, 76.2745098039%);}#my-svg .section--1 text{fill:#ffffff;}#my-svg .node-icon--1{font-size:40px;color:#ffffff;}#my-svg .section-edge--1{stroke:hsl(240, 100%, 76.2745098039%);}#my-svg .edge-depth--1{stroke-width:17;}#my-svg .section--1 line{stroke:hsl(60, 100%, 86.2745098039%);stroke-width:3;}#my-svg .disabled,#my-svg .disabled circle,#my-svg .disabled text{fill:lightgray;}#my-svg .disabled text{fill:#efefef;}#my-svg .section-0 rect,#my-svg .section-0 path,#my-svg .section-0 circle,#my-svg .section-0 polygon,#my-svg .section-0 path{fill:hsl(60, 100%, 73.5294117647%);}#my-svg .section-0 text{fill:black;}#my-svg .node-icon-0{font-size:40px;color:black;}#my-svg .section-edge-0{stroke:hsl(60, 100%, 73.5294117647%);}#my-svg .edge-depth-0{stroke-width:14;}#my-svg .section-0 line{stroke:hsl(240, 100%, 83.5294117647%);stroke-width:3;}#my-svg .disabled,#my-svg .disabled circle,#my-svg .disabled text{fill:lightgray;}#my-svg .disabled text{fill:#efefef;}#my-svg .section-1 rect,#my-svg .section-1 path,#my-svg .section-1 circle,#my-svg .section-1 polygon,#my-svg .section-1 path{fill:hsl(80, 100%, 76.2745098039%);}#my-svg .section-1 text{fill:black;}#my-svg .node-icon-1{font-size:40px;color:black;}#my-svg .section-edge-1{stroke:hsl(80, 100%, 76.2745098039%);}#my-svg .edge-depth-1{stroke-width:11;}#my-svg .section-1 line{stroke:hsl(260, 100%, 86.2745098039%);stroke-width:3;}#my-svg .disabled,#my-svg .disabled circle,#my-svg .disabled text{fill:lightgray;}#my-svg .disabled text{fill:#efefef;}#my-svg .section-2 rect,#my-svg .section-2 path,#my-svg .section-2 circle,#my-svg .section-2 polygon,#my-svg .section-2 path{fill:hsl(270, 100%, 76.2745098039%);}#my-svg .section-2 text{fill:#ffffff;}#my-svg .node-icon-2{font-size:40px;color:#ffffff;}#my-svg .section-edge-2{stroke:hsl(270, 100%, 76.2745098039%);}#my-svg .edge-depth-2{stroke-width:8;}#my-svg .section-2 line{stroke:hsl(90, 100%, 86.2745098039%);stroke-width:3;}#my-svg .disabled,#my-svg .disabled circle,#my-svg .disabled text{fill:lightgray;}#my-svg .disabled text{fill:#efefef;}#my-svg .section-3 rect,#my-svg .section-3 path,#my-svg .section-3 circle,#my-svg .section-3 polygon,#my-svg .section-3 path{fill:hsl(300, 100%, 76.2745098039%);}#my-svg .section-3 text{fill:black;}#my-svg .node-icon-3{font-size:40px;color:black;}#my-svg .section-edge-3{stroke:hsl(300, 100%, 76.2745098039%);}#my-svg .edge-depth-3{stroke-width:5;}#my-svg .section-3 line{stroke:hsl(120, 100%, 86.2745098039%);stroke-width:3;}#my-svg .disabled,#my-svg .disabled circle,#my-svg .disabled text{fill:lightgray;}#my-svg .disabled text{fill:#efefef;}#my-svg .section-4 rect,#my-svg .section-4 path,#my-svg .section-4 circle,#my-svg .section-4 polygon,#my-svg .section-4 path{fill:hsl(330, 100%, 76.2745098039%);}#my-svg .section-4 text{fill:black;}#my-svg .node-icon-4{font-size:40px;color:black;}#my-svg .section-edge-4{stroke:hsl(330, 100%, 76.2745098039%);}#my-svg .edge-depth-4{stroke-width:2;}#my-svg .section-4 line{stroke:hsl(150, 100%, 86.2745098039%);stroke-width:3;}#my-svg .disabled,#my-svg .disabled circle,#my-svg .disabled text{fill:lightgray;}#my-svg .disabled text{fill:#efefef;}#my-svg .section-5 rect,#my-svg .section-5 path,#my-svg .section-5 circle,#my-svg .section-5 polygon,#my-svg .section-5 path{fill:hsl(0, 100%, 76.2745098039%);}#my-svg .section-5 text{fill:black;}#my-svg .node-icon-5{font-size:40px;color:black;}#my-svg .section-edge-5{stroke:hsl(0, 100%, 76.2745098039%);}#my-svg .edge-depth-5{stroke-width:-1;}#my-svg .section-5 line{stroke:hsl(180, 100%, 86.2745098039%);stroke-width:3;}#my-svg .disabled,#my-svg .disabled circle,#my-svg .disabled text{fill:lightgray;}#my-svg .disabled text{fill:#efefef;}#my-svg .section-6 rect,#my-svg .section-6 path,#my-svg .section-6 circle,#my-svg .section-6 polygon,#my-svg .section-6 path{fill:hsl(30, 100%, 76.2745098039%);}#my-svg .section-6 text{fill:black;}#my-svg .node-icon-6{font-size:40px;color:black;}#my-svg .section-edge-6{stroke:hsl(30, 100%, 76.2745098039%);}#my-svg .edge-depth-6{stroke-width:-4;}#my-svg .section-6 line{stroke:hsl(210, 100%, 86.2745098039%);stroke-width:3;}#my-svg .disabled,#my-svg .disabled circle,#my-svg .disabled text{fill:lightgray;}#my-svg .disabled text{fill:#efefef;}#my-svg .section-7 rect,#my-svg .section-7 path,#my-svg .section-7 circle,#my-svg .section-7 polygon,#my-svg .section-7 path{fill:hsl(90, 100%, 76.2745098039%);}#my-svg .section-7 text{fill:black;}#my-svg .node-icon-7{font-size:40px;color:black;}#my-svg .section-edge-7{stroke:hsl(90, 100%, 76.2745098039%);}#my-svg .edge-depth-7{stroke-width:-7;}#my-svg .section-7 line{stroke:hsl(270, 100%, 86.2745098039%);stroke-width:3;}#my-svg .disabled,#my-svg .disabled circle,#my-svg .disabled text{fill:lightgray;}#my-svg .disabled text{fill:#efefef;}#my-svg .section-8 rect,#my-svg .section-8 path,#my-svg .section-8 circle,#my-svg .section-8 polygon,#my-svg .section-8 path{fill:hsl(150, 100%, 76.2745098039%);}#my-svg .section-8 text{fill:black;}#my-svg .node-icon-8{font-size:40px;color:black;}#my-svg .section-edge-8{stroke:hsl(150, 100%, 76.2745098039%);}#my-svg .edge-depth-8{stroke-width:-10;}#my-svg .section-8 line{stroke:hsl(330, 100%, 86.2745098039%);stroke-width:3;}#my-svg .disabled,#my-svg .disabled circle,#my-svg .disabled text{fill:lightgray;}#my-svg .disabled text{fill:#efefef;}#my-svg .section-9 rect,#my-svg .section-9 path,#my-svg .section-9 circle,#my-svg .section-9 polygon,#my-svg .section-9 path{fill:hsl(180, 100%, 76.2745098039%);}#my-svg .section-9 text{fill:black;}#my-svg .node-icon-9{font-size:40px;color:black;}#my-svg .section-edge-9{stroke:hsl(180, 100%, 76.2745098039%);}#my-svg .edge-depth-9{stroke-width:-13;}#my-svg .section-9 line{stroke:hsl(0, 100%, 86.2745098039%);stroke-width:3;}#my-svg .disabled,#my-svg .disabled circle,#my-svg .disabled text{fill:lightgray;}#my-svg .disabled text{fill:#efefef;}#my-svg .section-10 rect,#my-svg .section-10 path,#my-svg .section-10 circle,#my-svg .section-10 polygon,#my-svg .section-10 path{fill:hsl(210, 100%, 76.2745098039%);}#my-svg .section-10 text{fill:black;}#my-svg .node-icon-10{font-size:40px;color:black;}#my-svg .section-edge-10{stroke:hsl(210, 100%, 76.2745098039%);}#my-svg .edge-depth-10{stroke-width:-16;}#my-svg .section-10 line{stroke:hsl(30, 100%, 86.2745098039%);stroke-width:3;}#my-svg .disabled,#my-svg .disabled circle,#my-svg .disabled text{fill:lightgray;}#my-svg .disabled text{fill:#efefef;}#my-svg .section-root rect,#my-svg .section-root path,#my-svg .section-root circle,#my-svg .section-root polygon{fill:hsl(240, 100%, 46.2745098039%);}#my-svg .section-root text{fill:#ffffff;}#my-svg .icon-container{height:100%;display:flex;justify-content:center;align-items:center;}#my-svg .edge{fill:none;}#my-svg .mindmap-node-label{dy:1em;alignment-baseline:middle;text-anchor:middle;dominant-baseline:middle;text-align:center;}#my-svg :root{--mermaid-font-family:"trebuchet ms",verdana,arial,sans-serif;}</style><g/><g class="mindmap-edges"><path class="edge section-edge-0 edge-depth-1" d="M 471.9562600063838,421.395391102462 L 424.8938590043797,438.19760344739257 L377.8314580023756,454.99981579232315"/><path class="edge section-edge-0 edge-depth-1" d="M 476.1614011419185,427.60191218120974 L 440.74815149809484,467.7569763045202 L405.3349018542712,507.9120404278307"/><path class="edge section-edge-0 edge-depth-1" d="M 488.9011933165033,431.08475546703994 L 495.1086334439559,463.5351277223722 L501.31607357140854,495.9854999777044"/><path class="edge section-edge-0 edge-depth-1" d="M 500.39061502348443,411.84739893835354 L 548.476413549396,396.70854224668733 L596.5622120753077,381.5696855550211"/><path class="edge section-edge-0 edge-depth-0" d="M 578.3485721188249,317.04230403728997 L 537.3206119867207,361.2025122129884 L496.2926518546164,405.3627203886868"/><path class="edge section-edge-1 edge-depth-1" d="M 317.8118820907182,327.23721119472054 L 252.51002403971586,304.22241999538835 L187.20816598871355,281.20762879605616"/><path class="edge section-edge-1 edge-depth-1" d="M 322.08524608849797,343.5151800971191 L 290.46467414218586,379.67779415833013 L258.84410219587375,415.84040821954113"/><path class="edge section-edge-1 edge-depth-1" d="M 316.9616403463615,331.94036761710487 L 221.23339335202456,330.1352353118813 L125.50514635768766,328.3301030066577"/><path class="edge section-edge-1 edge-depth-1" d="M 346.9201837002729,333.30122858294436 L 405.3265681709221,337.5098125782421 L463.7329526415713,341.7183965735398"/><path class="edge section-edge-1 edge-depth-1" d="M 317.56684322338566,336.45005602118874 L 251.18232212991296,355.9468079438832 L184.79780103644026,375.44355986657763"/><path class="edge section-edge-1 edge-depth-0" d="M 573.6356932506922,307.5750625942674 L 460.25862963950806,319.13815417753426 L346.8815660283239,330.7012457608011"/><path class="edge section-edge-2 edge-depth-1" d="M 858.7160857626354,329.45505625301354 L 920.1791479183171,301.45289819294896 L981.6422100739987,273.4507401328844"/><path class="edge section-edge-2 edge-depth-1" d="M 831.5666510006549,342.21368176452256 L 789.424106538087,362.62957210210993 L747.2815620755191,383.0454624396973"/><path class="edge section-edge-2 edge-depth-1" d="M 855.0804100537297,346.8413699859547 L 892.2293221458556,388.2673430652635 L929.3782342379815,429.6933161445723"/><path class="edge section-edge-2 edge-depth-1" d="M 860.0537748052623,335.0689214621871 L 930.8808842750648,332.20975767809716 L1001.7079937448673,329.3505938940072"/><path class="edge section-edge-2 edge-depth-1" d="M 859.0570704300679,341.08222699570655 L 905.7902174751005,359.14699121870865 L952.523364520133,377.21175544171075"/><path class="edge section-edge-2 edge-depth-1" d="M 850.5202363221462,321.70072361096084 L 861.8578945852577,292.6548316171651 L873.1955528483692,263.60893962336934"/><path class="edge section-edge-2 edge-depth-1" d="M 833.346078334679,326.3121218124921 L 806.2128883026763,304.6381964228452 L779.0796982706737,282.9642710331984"/><path class="edge section-edge-2 edge-depth-1" d="M 830.0883330077913,334.855394787616 L 775.782138607145,331.8874576618548 L721.4759442064988,328.9195205360936"/><path class="edge section-edge-2 edge-depth-1" d="M 844.0011566988816,350.6361090477834 L 842.1416068911146,376.7651659580132 L840.2820570833477,402.894222868243"/><path class="edge section-edge-2 edge-depth-0" d="M 603.4592618061806,307.77386280087006 L 716.8121334535305,320.86354513576725 L830.1650051008803,333.95322747066444"/><path class="edge section-edge-3 edge-depth-1" d="M 672.3209777832816,438.38703893301977 L 715.4585316530205,453.4824295146492 L758.5960855227594,468.57782009627863"/><path class="edge section-edge-3 edge-depth-1" d="M 643.8411058039275,437.89223809113 L 614.2370548626227,447.11066766980423 L584.6330039213179,456.32909724847843"/><path class="edge section-edge-3 edge-depth-1" d="M 652.4298163944443,447.293780252631 L 639.0265845122319,479.69996196300394 L625.6233526300196,512.1061436733769"/><path class="edge section-edge-3 edge-depth-1" d="M 666.5596987876185,445.8620863211512 L 691.2512675991478,482.41183964922334 L715.9428364106772,518.9615929772955"/><path class="edge section-edge-3 edge-depth-0" d="M 595.7510071654148,319.2161452369731 L 623.3605528869117,369.74286300309484 L650.9700986084086,420.2695807692166"/><path class="edge section-edge-4 edge-depth-1" d="M 774.4953210669635,210.09548561440675 L 835.1047256013519,196.38216853460463 L895.7141301357403,182.6688514548025"/><path class="edge section-edge-4 edge-depth-1" d="M 768.6806551247785,201.2695120856366 L 791.2551230999903,170.1917019544783 L813.8295910752022,139.11389182332002"/><path class="edge section-edge-4 edge-depth-1" d="M 746.5576584228913,220.3274761546802 L 712.9941513943925,237.7853428564738 L679.4306443658936,255.2432095582674"/><path class="edge section-edge-4 edge-depth-0" d="M 601.7522981625511,298.9174521252402 L 674.2117047270133,259.7294060293433 L746.6711112914754,220.54135993344642"/><path class="edge section-edge-5 edge-depth-1" d="M 527.395462768829,150.38596855393007 L 457.8205017521923,148.06329773778035 L388.24554073555566,145.74062692163062"/><path class="edge section-edge-5 edge-depth-1" d="M 529.6570125364935,158.82020803534365 L 492.34002747993225,182.07722320340125 L455.02304242337095,205.33423837145884"/><path class="edge section-edge-5 edge-depth-1" d="M 555.9161147660941,144.40832365964303 L 620.457906675713,113.50363876105703 L684.999698585332,82.59895386247103"/><path class="edge section-edge-5 edge-depth-1" d="M 548.4322619008029,137.15851219072607 L 562.4867841387966,105.2420962512206 L576.5413063767902,73.32568031171513"/><path class="edge section-edge-5 edge-depth-1" d="M 530.7414565916014,141.43241310349543 L 507.51694694073296,122.57857671327352 L484.2924372898646,103.72474032305159"/><path class="edge section-edge-5 edge-depth-1" d="M 556.5407073522385,155.8539112655727 L 600.9859368914075,171.4527847735831 L645.4311664305765,187.0516582815935"/><path class="edge section-edge-5 edge-depth-1" d="M 528.6429614537371,144.8782554585273 L 458.7242964323881,114.31364180069104 L388.80563141103903,83.7490281428548"/><path class="edge section-edge-5 edge-depth-1" d="M 557.3124018001039,149.3912195546917 L 619.0948540064065,143.20181070031916 L680.8773062127092,137.0124018459466"/><path class="edge section-edge-5 edge-depth-1" d="M 535.9296232279257,137.3475811120238 L 514.4882216303388,92.39322275212172 L493.04682003275184,47.43886439221964"/><path class="edge section-edge-5 edge-depth-0" d="M 584.2802803558775,291.6761193919706 L 565.472698139791,228.469791953273 L546.6651159237044,165.26346451457545"/><path class="edge section-edge-6 edge-depth-1" d="M 444.49229338377097,280.7190213781894 L 493.33362856524474,259.8319232431703 L542.1749637467185,238.94482510815126"/><path class="edge section-edge-6 edge-depth-1" d="M 422.9487115841266,299.45879833201263 L 400.3982170215195,336.81605495723875 L377.84772245891236,374.17331158246486"/><path class="edge section-edge-6 edge-depth-1" d="M 419.0573422634176,277.1600281941837 L 380.38612199697974,245.74969951240564 L341.7149017305419,214.33937083062756"/><path class="edge section-edge-6 edge-depth-1" d="M 415.96265976797537,283.82511832235235 L 365.43176044141967,274.25242015990113 L314.900861114864,264.6797219974499"/><path class="edge section-edge-6 edge-depth-0" d="M 573.6707044800482,304.22012339150723 L 509.6294081468782,296.33511771573194 L445.5881118137082,288.45011203995665"/></g><g class="mindmap-nodes"><g transform="translate(547.3395350749669, 287.1531384023026)" class="mindmap-node section--1 section-root"><g transform="translate(41.21875, 18.9)"><circle r="41.21875" class="node-bkg node-circle" id="node-0"/></g><g transform="translate(41.21875, 5)" text-anchor="middle" dominant-baseline="middle" alignment-baseline="middle" dy="1em"><g><rect style="stroke: none" class="background"/><text style="" y="-10.1"><tspan dy="1.1em" y="-0.1em" x="0" class="text-outer-tspan"><tspan font-weight="normal" class="text-inner-tspan" font-style="normal">Leopardi</tspan></tspan></text></g></g></g><g transform="translate(452.6766888984745, 397.4518860236742)" class="mindmap-node section-0"><g><path d="M0 32.8 v-27.799999999999997 q0,-5 5,-5 h56.8125 q5,0 5,5 v32.8 H0 Z" class="node-bkg node-no-border" id="node-1"/><line y2="37.8" x2="66.8125" y1="37.8" x1="0" class="node-line-0"/></g><g transform="translate(33.40625, 5)" text-anchor="middle" dominant-baseline="middle" alignment-baseline="middle" dy="1em"><g><rect style="stroke: none" class="background"/><text style="" y="-10.1"><tspan dy="1.1em" y="-0.1em" x="0" class="text-outer-tspan"><tspan font-weight="normal" class="text-inner-tspan" font-style="normal">Tempo</tspan></tspan></text></g></g></g><g transform="translate(291.6777242040491, 313.32316995276597)" class="mindmap-node section-1"><g><path d="M0 32.8 v-27.799999999999997 q0,-5 5,-5 h70.5625 q5,0 5,5 v32.8 H0 Z" class="node-bkg node-no-border" id="node-6"/><line y2="37.8" x2="80.5625" y1="37.8" x1="0" class="node-line-1"/></g><g transform="translate(40.28125, 5)" text-anchor="middle" dominant-baseline="middle" alignment-baseline="middle" dy="1em"><g><rect style="stroke: none" class="background"/><text style="" y="-10.1"><tspan dy="1.1em" y="-0.1em" x="0" class="text-outer-tspan"><tspan font-weight="normal" class="text-inner-tspan" font-style="normal">Dualismi</tspan></tspan></text></g></g></g><g transform="translate(797.058169332094, 316.77395186923195)" class="mindmap-node section-2"><g><path d="M0 32.8 v-27.799999999999997 q0,-5 5,-5 h86.015625 q5,0 5,5 v32.8 H0 Z" class="node-bkg node-no-border" id="node-12"/><line y2="37.8" x2="96.015625" y1="37.8" x1="0" class="node-line-2"/></g><g transform="translate(48.0078125, 5)" text-anchor="middle" dominant-baseline="middle" alignment-baseline="middle" dy="1em"><g><rect style="stroke: none" class="background"/><text style="" y="-10.1"><tspan dy="1.1em" y="-0.1em" x="0" class="text-outer-tspan"><tspan font-weight="normal" class="text-inner-tspan" font-style="normal">Vizi</tspan><tspan font-weight="normal" class="text-inner-tspan" font-style="normal"> Umani</tspan></tspan></text></g></g></g><g transform="translate(630.6706331988565, 414.5325876038871)" class="mindmap-node section-3"><g><path d="M0 32.8 v-27.799999999999997 q0,-5 5,-5 h44.984375 q5,0 5,5 v32.8 H0 Z" class="node-bkg node-no-border" id="node-22"/><line y2="37.8" x2="54.984375" y1="37.8" x1="0" class="node-line-3"/></g><g transform="translate(27.4921875, 5)" text-anchor="middle" dominant-baseline="middle" alignment-baseline="middle" dy="1em"><g><rect style="stroke: none" class="background"/><text style="" y="-10.1"><tspan dy="1.1em" y="-0.1em" x="0" class="text-outer-tspan"><tspan font-weight="normal" class="text-inner-tspan" font-style="normal">Virtù</tspan></tspan></text></g></g></g><g transform="translate(710.9979368790597, 194.50567365638403)" class="mindmap-node section-4"><g><path d="M0 32.8 v-27.799999999999997 q0,-5 5,-5 h87.734375 q5,0 5,5 v32.8 H0 Z" class="node-bkg node-no-border" id="node-27"/><line y2="37.8" x2="97.734375" y1="37.8" x1="0" class="node-line-4"/></g><g transform="translate(48.8671875, 5)" text-anchor="middle" dominant-baseline="middle" alignment-baseline="middle" dy="1em"><g><rect style="stroke: none" class="background"/><text style="" y="-10.1"><tspan dy="1.1em" y="-0.1em" x="0" class="text-outer-tspan"><tspan font-weight="normal" class="text-inner-tspan" font-style="normal">Sentimenti</tspan></tspan></text></g></g></g><g transform="translate(479.89492370461505, 131.98644550424342)" class="mindmap-node section-5"><g><path d="M0 32.8 v-27.799999999999997 q0,-5 5,-5 h114.984375 q5,0 5,5 v32.8 H0 Z" class="node-bkg node-no-border" id="node-31"/><line y2="37.8" x2="124.984375" y1="37.8" x1="0" class="node-line-5"/></g><g transform="translate(62.4921875, 5)" text-anchor="middle" dominant-baseline="middle" alignment-baseline="middle" dy="1em"><g><rect style="stroke: none" class="background"/><text style="" y="-10.1"><tspan dy="1.1em" y="-0.1em" x="0" class="text-outer-tspan"><tspan font-weight="normal" class="text-inner-tspan" font-style="normal">Miserie</tspan><tspan font-weight="normal" class="text-inner-tspan" font-style="normal"> Umane</tspan></tspan></text></g></g></g><g transform="translate(379.0208437187896, 267.7170970291613)" class="mindmap-node section-6"><g><path d="M0 32.8 v-27.799999999999997 q0,-5 5,-5 h93.359375 q5,0 5,5 v32.8 H0 Z" class="node-bkg node-no-border" id="node-41"/><line y2="37.8" x2="103.359375" y1="37.8" x1="0" class="node-line-6"/></g><g transform="translate(51.6796875, 5)" text-anchor="middle" dominant-baseline="middle" alignment-baseline="middle" dy="1em"><g><rect style="stroke: none" class="background"/><text style="" y="-10.1"><tspan dy="1.1em" y="-0.1em" x="0" class="text-outer-tspan"><tspan font-weight="normal" class="text-inner-tspan" font-style="normal">Conoscenza</tspan></tspan></text></g></g></g><g transform="translate(321.5250916102849, 441.143320871111)" class="mindmap-node section-0"><g><path d="M0 32.8 v-27.799999999999997 q0,-5 5,-5 h74.359375 q5,0 5,5 v32.8 H0 Z" class="node-bkg node-no-border" id="node-2"/><line y2="37.8" x2="84.359375" y1="37.8" x1="0" class="node-line-0"/></g><g transform="translate(42.1796875, 5)" text-anchor="middle" dominant-baseline="middle" alignment-baseline="middle" dy="1em"><g><rect style="stroke: none" class="background"/><text style="" y="-10.1"><tspan dy="1.1em" y="-0.1em" x="0" class="text-outer-tspan"><tspan font-weight="normal" class="text-inner-tspan" font-style="normal">Gioventù</tspan></tspan></text></g></g></g><g transform="translate(351.6008640977152, 500.26206658536626)" class="mindmap-node section-0"><g><path d="M0 32.8 v-27.799999999999997 q0,-5 5,-5 h77.625 q5,0 5,5 v32.8 H0 Z" class="node-bkg node-no-border" id="node-3"/><line y2="37.8" x2="87.625" y1="37.8" x1="0" class="node-line-0"/></g><g transform="translate(43.8125, 5)" text-anchor="middle" dominant-baseline="middle" alignment-baseline="middle" dy="1em"><g><rect style="stroke: none" class="background"/><text style="" y="-10.1"><tspan dy="1.1em" y="-0.1em" x="0" class="text-outer-tspan"><tspan font-weight="normal" class="text-inner-tspan" font-style="normal">Vecchiaia</tspan></tspan></text></g></g></g><g transform="translate(455.66557798943734, 491.8183694210702)" class="mindmap-node section-0"><g><path d="M0 32.8 v-27.799999999999997 q0,-5 5,-5 h86.9375 q5,0 5,5 v32.8 H0 Z" class="node-bkg node-no-border" id="node-4"/><line y2="37.8" x2="96.9375" y1="37.8" x1="0" class="node-line-0"/></g><g transform="translate(48.46875, 5)" text-anchor="middle" dominant-baseline="middle" alignment-baseline="middle" dy="1em"><g><rect style="stroke: none" class="background"/><text style="" y="-10.1"><tspan dy="1.1em" y="-0.1em" x="0" class="text-outer-tspan"><tspan font-weight="normal" class="text-inner-tspan" font-style="normal">Esperienza</tspan></tspan></text></g></g></g><g transform="translate(560.9011382003176, 358.1651984697005)" class="mindmap-node section-0"><g><path d="M0 32.8 v-27.799999999999997 q0,-5 5,-5 h89.9375 q5,0 5,5 v32.8 H0 Z" class="node-bkg node-no-border" id="node-5"/><line y2="37.8" x2="99.9375" y1="37.8" x1="0" class="node-line-0"/></g><g transform="translate(49.96875, 5)" text-anchor="middle" dominant-baseline="middle" alignment-baseline="middle" dy="1em"><g><rect style="stroke: none" class="background"/><text style="" y="-10.1"><tspan dy="1.1em" y="-0.1em" x="0" class="text-outer-tspan"><tspan font-weight="normal" class="text-inner-tspan" font-style="normal">Anniversari</tspan></tspan></text></g></g></g><g transform="translate(101.01419887538259, 257.3216700380108)" class="mindmap-node section-1"><g><path d="M0 32.8 v-27.799999999999997 q0,-5 5,-5 h134.09375 q5,0 5,5 v32.8 H0 Z" class="node-bkg node-no-border" id="node-7"/><line y2="37.8" x2="144.09375" y1="37.8" x1="0" class="node-line-1"/></g><g transform="translate(72.046875, 5)" text-anchor="middle" dominant-baseline="middle" alignment-baseline="middle" dy="1em"><g><rect style="stroke: none" class="background"/><text style="" y="-10.1"><tspan dy="1.1em" y="-0.1em" x="0" class="text-outer-tspan"><tspan font-weight="normal" class="text-inner-tspan" font-style="normal">Essere</tspan><tspan font-weight="normal" class="text-inner-tspan" font-style="normal"> e</tspan><tspan font-weight="normal" class="text-inner-tspan" font-style="normal"> Apparire</tspan></tspan></text></g></g></g><g transform="translate(199.24381158032259, 408.23241836389434)" class="mindmap-node section-1"><g><path d="M0 32.8 v-27.799999999999997 q0,-5 5,-5 h89.453125 q5,0 5,5 v32.8 H0 Z" class="node-bkg node-no-border" id="node-8"/><line y2="37.8" x2="99.453125" y1="37.8" x1="0" class="node-line-1"/></g><g transform="translate(49.7265625, 5)" text-anchor="middle" dominant-baseline="middle" alignment-baseline="middle" dy="1em"><g><rect style="stroke: none" class="background"/><text style="" y="-10.1"><tspan dy="1.1em" y="-0.1em" x="0" class="text-outer-tspan"><tspan font-weight="normal" class="text-inner-tspan" font-style="normal">Dire</tspan><tspan font-weight="normal" class="text-inner-tspan" font-style="normal"> e</tspan><tspan font-weight="normal" class="text-inner-tspan" font-style="normal"> Fare</tspan></tspan></text></g></g></g><g transform="translate(15, 309.14730067099663)" class="mindmap-node section-1"><g><path d="M0 32.8 v-27.799999999999997 q0,-5 5,-5 h181.015625 q5,0 5,5 v32.8 H0 Z" class="node-bkg node-no-border" id="node-9"/><line y2="37.8" x2="191.015625" y1="37.8" x1="0" class="node-line-1"/></g><g transform="translate(95.5078125, 5)" text-anchor="middle" dominant-baseline="middle" alignment-baseline="middle" dy="1em"><g><rect style="stroke: none" class="background"/><text style="" y="-10.1"><tspan dy="1.1em" y="-0.1em" x="0" class="text-outer-tspan"><tspan font-weight="normal" class="text-inner-tspan" font-style="normal">Immaginazione</tspan><tspan font-weight="normal" class="text-inner-tspan" font-style="normal"> e</tspan><tspan font-weight="normal" class="text-inner-tspan" font-style="normal"> Realtà</tspan></tspan></text></g></g></g><g transform="translate(414.92853713779505, 323.89645520371823)" class="mindmap-node section-1"><g><path d="M0 32.8 v-27.799999999999997 q0,-5 5,-5 h117.53125 q5,0 5,5 v32.8 H0 Z" class="node-bkg node-no-border" id="node-10"/><line y2="37.8" x2="127.53125" y1="37.8" x1="0" class="node-line-1"/></g><g transform="translate(63.765625, 5)" text-anchor="middle" dominant-baseline="middle" alignment-baseline="middle" dy="1em"><g><rect style="stroke: none" class="background"/><text style="" y="-10.1"><tspan dy="1.1em" y="-0.1em" x="0" class="text-outer-tspan"><tspan font-weight="normal" class="text-inner-tspan" font-style="normal">Uomo</tspan><tspan font-weight="normal" class="text-inner-tspan" font-style="normal"> e</tspan><tspan font-weight="normal" class="text-inner-tspan" font-style="normal"> Natura</tspan></tspan></text></g></g></g><g transform="translate(108.6634825557768, 360.77044593500045)" class="mindmap-node section-1"><g><path d="M0 32.8 v-27.799999999999997 q0,-5 5,-5 h113.484375 q5,0 5,5 v32.8 H0 Z" class="node-bkg node-no-border" id="node-11"/><line y2="37.8" x2="123.484375" y1="37.8" x1="0" class="node-line-1"/></g><g transform="translate(61.7421875, 5)" text-anchor="middle" dominant-baseline="middle" alignment-baseline="middle" dy="1em"><g><rect style="stroke: none" class="background"/><text style="" y="-10.1"><tspan dy="1.1em" y="-0.1em" x="0" class="text-outer-tspan"><tspan font-weight="normal" class="text-inner-tspan" font-style="normal">Uomo</tspan><tspan font-weight="normal" class="text-inner-tspan" font-style="normal"> e</tspan><tspan font-weight="normal" class="text-inner-tspan" font-style="normal"> Donna</tspan></tspan></text></g></g></g><g transform="translate(942.6438765045401, 248.331844516666)" class="mindmap-node section-2"><g><path d="M0 32.8 v-27.799999999999997 q0,-5 5,-5 h95.296875 q5,0 5,5 v32.8 H0 Z" class="node-bkg node-no-border" id="node-13"/><line y2="37.8" x2="105.296875" y1="37.8" x1="0" class="node-line-2"/></g><g transform="translate(52.6484375, 5)" text-anchor="middle" dominant-baseline="middle" alignment-baseline="middle" dy="1em"><g><rect style="stroke: none" class="background"/><text style="" y="-10.1"><tspan dy="1.1em" y="-0.1em" x="0" class="text-outer-tspan"><tspan font-weight="normal" class="text-inner-tspan" font-style="normal">Presunzione</tspan></tspan></text></g></g></g><g transform="translate(689.75098124408, 370.68519233498796)" class="mindmap-node section-2"><g><path d="M0 32.8 v-27.799999999999997 q0,-5 5,-5 h78.0625 q5,0 5,5 v32.8 H0 Z" class="node-bkg node-no-border" id="node-14"/><line y2="37.8" x2="88.0625" y1="37.8" x1="0" class="node-line-2"/></g><g transform="translate(44.03125, 5)" text-anchor="middle" dominant-baseline="middle" alignment-baseline="middle" dy="1em"><g><rect style="stroke: none" class="background"/><text style="" y="-10.1"><tspan dy="1.1em" y="-0.1em" x="0" class="text-outer-tspan"><tspan font-weight="normal" class="text-inner-tspan" font-style="normal">Malvagità</tspan></tspan></text></g></g></g><g transform="translate(898.2989124596171, 421.9607342612951)" class="mindmap-node section-2"><g><path d="M0 32.8 v-27.799999999999997 q0,-5 5,-5 h72.1875 q5,0 5,5 v32.8 H0 Z" class="node-bkg node-no-border" id="node-15"/><line y2="37.8" x2="82.1875" y1="37.8" x1="0" class="node-line-2"/></g><g transform="translate(41.09375, 5)" text-anchor="middle" dominant-baseline="middle" alignment-baseline="middle" dy="1em"><g><rect style="stroke: none" class="background"/><text style="" y="-10.1"><tspan dy="1.1em" y="-0.1em" x="0" class="text-outer-tspan"><tspan font-weight="normal" class="text-inner-tspan" font-style="normal">Superbia</tspan></tspan></text></g></g></g><g transform="translate(966.4770367180355, 309.8455634869624)" class="mindmap-node section-2"><g><path d="M0 32.8 v-27.799999999999997 q0,-5 5,-5 h90.4375 q5,0 5,5 v32.8 H0 Z" class="node-bkg node-no-border" id="node-16"/><line y2="37.8" x2="100.4375" y1="37.8" x1="0" class="node-line-2"/></g><g transform="translate(50.21875, 5)" text-anchor="middle" dominant-baseline="middle" alignment-baseline="middle" dy="1em"><g><rect style="stroke: none" class="background"/><text style="" y="-10.1"><tspan dy="1.1em" y="-0.1em" x="0" class="text-outer-tspan"><tspan font-weight="normal" class="text-inner-tspan" font-style="normal">Prepotenza</tspan></tspan></text></g></g></g><g transform="translate(939.9441406181069, 363.7200305681854)" class="mindmap-node section-2"><g><path d="M0 32.8 v-27.799999999999997 q0,-5 5,-5 h43.140625 q5,0 5,5 v32.8 H0 Z" class="node-bkg node-no-border" id="node-17"/><line y2="37.8" x2="53.140625" y1="37.8" x1="0" class="node-line-2"/></g><g transform="translate(26.5703125, 5)" text-anchor="middle" dominant-baseline="middle" alignment-baseline="middle" dy="1em"><g><rect style="stroke: none" class="background"/><text style="" y="-10.1"><tspan dy="1.1em" y="-0.1em" x="0" class="text-outer-tspan"><tspan font-weight="normal" class="text-inner-tspan" font-style="normal">Viltà</tspan></tspan></text></g></g></g><g transform="translate(834.4076198384213, 230.73571136509827)" class="mindmap-node section-2"><g><path d="M0 32.8 v-27.799999999999997 q0,-5 5,-5 h78.484375 q5,0 5,5 v32.8 H0 Z" class="node-bkg node-no-border" id="node-18"/><line y2="37.8" x2="88.484375" y1="37.8" x1="0" class="node-line-2"/></g><g transform="translate(44.2421875, 5)" text-anchor="middle" dominant-baseline="middle" alignment-baseline="middle" dy="1em"><g><rect style="stroke: none" class="background"/><text style="" y="-10.1"><tspan dy="1.1em" y="-0.1em" x="0" class="text-outer-tspan"><tspan font-weight="normal" class="text-inner-tspan" font-style="normal">Disprezzo</tspan></tspan></text></g></g></g><g transform="translate(727.3051072732586, 254.70244097645852)" class="mindmap-node section-2"><g><path d="M0 32.8 v-27.799999999999997 q0,-5 5,-5 h70.109375 q5,0 5,5 v32.8 H0 Z" class="node-bkg node-no-border" id="node-19"/><line y2="37.8" x2="80.109375" y1="37.8" x1="0" class="node-line-2"/></g><g transform="translate(40.0546875, 5)" text-anchor="middle" dominant-baseline="middle" alignment-baseline="middle" dy="1em"><g><rect style="stroke: none" class="background"/><text style="" y="-10.1"><tspan dy="1.1em" y="-0.1em" x="0" class="text-outer-tspan"><tspan font-weight="normal" class="text-inner-tspan" font-style="normal">Ipocrisia</tspan></tspan></text></g></g></g><g transform="translate(653.670170382196, 309.2009634544777)" class="mindmap-node section-2"><g><path d="M0 32.8 v-27.799999999999997 q0,-5 5,-5 h95.65625 q5,0 5,5 v32.8 H0 Z" class="node-bkg node-no-border" id="node-20"/><line y2="37.8" x2="105.65625" y1="37.8" x1="0" class="node-line-2"/></g><g transform="translate(52.828125, 5)" text-anchor="middle" dominant-baseline="middle" alignment-baseline="middle" dy="1em"><g><rect style="stroke: none" class="background"/><text style="" y="-10.1"><tspan dy="1.1em" y="-0.1em" x="0" class="text-outer-tspan"><tspan font-weight="normal" class="text-inner-tspan" font-style="normal">Intolleranza</tspan></tspan></text></g></g></g><g transform="translate(796.1156694501352, 398.9563800467945)" class="mindmap-node section-2"><g><path d="M0 32.8 v-27.799999999999997 q0,-5 5,-5 h76.203125 q5,0 5,5 v32.8 H0 Z" class="node-bkg node-no-border" id="node-21"/><line y2="37.8" x2="86.203125" y1="37.8" x1="0" class="node-line-2"/></g><g transform="translate(43.1015625, 5)" text-anchor="middle" dominant-baseline="middle" alignment-baseline="middle" dy="1em"><g><rect style="stroke: none" class="background"/><text style="" y="-10.1"><tspan dy="1.1em" y="-0.1em" x="0" class="text-outer-tspan"><tspan font-weight="normal" class="text-inner-tspan" font-style="normal">Credulità</tspan></tspan></text></g></g></g><g transform="translate(738.0120551071844, 454.6322714254113)" class="mindmap-node section-3"><g><path d="M0 32.8 v-27.799999999999997 q0,-5 5,-5 h59.484375 q5,0 5,5 v32.8 H0 Z" class="node-bkg node-no-border" id="node-23"/><line y2="37.8" x2="69.484375" y1="37.8" x1="0" class="node-line-3"/></g><g transform="translate(34.7421875, 5)" text-anchor="middle" dominant-baseline="middle" alignment-baseline="middle" dy="1em"><g><rect style="stroke: none" class="background"/><text style="" y="-10.1"><tspan dy="1.1em" y="-0.1em" x="0" class="text-outer-tspan"><tspan font-weight="normal" class="text-inner-tspan" font-style="normal">Onestà</tspan></tspan></text></g></g></g><g transform="translate(539.7409765263889, 441.8887477357214)" class="mindmap-node section-3"><g><path d="M0 32.8 v-27.799999999999997 q0,-5 5,-5 h51.140625 q5,0 5,5 v32.8 H0 Z" class="node-bkg node-no-border" id="node-24"/><line y2="37.8" x2="61.140625" y1="37.8" x1="0" class="node-line-3"/></g><g transform="translate(30.5703125, 5)" text-anchor="middle" dominant-baseline="middle" alignment-baseline="middle" dy="1em"><g><rect style="stroke: none" class="background"/><text style="" y="-10.1"><tspan dy="1.1em" y="-0.1em" x="0" class="text-outer-tspan"><tspan font-weight="normal" class="text-inner-tspan" font-style="normal">Bontà</tspan></tspan></text></g></g></g><g transform="translate(578.2965983256073, 507.0673363221208)" class="mindmap-node section-3"><g><path d="M0 32.8 v-27.799999999999997 q0,-5 5,-5 h73.1875 q5,0 5,5 v32.8 H0 Z" class="node-bkg node-no-border" id="node-25"/><line y2="37.8" x2="83.1875" y1="37.8" x1="0" class="node-line-3"/></g><g transform="translate(41.59375, 5)" text-anchor="middle" dominant-baseline="middle" alignment-baseline="middle" dy="1em"><g><rect style="stroke: none" class="background"/><text style="" y="-10.1"><tspan dy="1.1em" y="-0.1em" x="0" class="text-outer-tspan"><tspan font-weight="normal" class="text-inner-tspan" font-style="normal">Sincerità</tspan></tspan></text></g></g></g><g transform="translate(682.6522144994391, 512.4910916945596)" class="mindmap-node section-3"><g><path d="M0 32.8 v-27.799999999999997 q0,-5 5,-5 h73.375 q5,0 5,5 v32.8 H0 Z" class="node-bkg node-no-border" id="node-26"/><line y2="37.8" x2="83.375" y1="37.8" x1="0" class="node-line-3"/></g><g transform="translate(41.6875, 5)" text-anchor="middle" dominant-baseline="middle" alignment-baseline="middle" dy="1em"><g><rect style="stroke: none" class="background"/><text style="" y="-10.1"><tspan dy="1.1em" y="-0.1em" x="0" class="text-outer-tspan"><tspan font-weight="normal" class="text-inner-tspan" font-style="normal">Modestia</tspan></tspan></text></g></g></g><g transform="translate(872.9302643236441, 160.45866341282522)" class="mindmap-node section-4"><g><path d="M0 32.8 v-27.799999999999997 q0,-5 5,-5 h64.828125 q5,0 5,5 v32.8 H0 Z" class="node-bkg node-no-border" id="node-28"/><line y2="37.8" x2="74.828125" y1="37.8" x1="0" class="node-line-4"/></g><g transform="translate(37.4140625, 5)" text-anchor="middle" dominant-baseline="middle" alignment-baseline="middle" dy="1em"><g><rect style="stroke: none" class="background"/><text style="" y="-10.1"><tspan dy="1.1em" y="-0.1em" x="0" class="text-outer-tspan"><tspan font-weight="normal" class="text-inner-tspan" font-style="normal">Allegria</tspan></tspan></text></g></g></g><g transform="translate(774.645121820921, 108.07773025257256)" class="mindmap-node section-4"><g><path d="M0 32.8 v-27.799999999999997 q0,-5 5,-5 h86 q5,0 5,5 v32.8 H0 Z" class="node-bkg node-no-border" id="node-29"/><line y2="37.8" x2="96" y1="37.8" x1="0" class="node-line-4"/></g><g transform="translate(48, 5)" text-anchor="middle" dominant-baseline="middle" alignment-baseline="middle" dy="1em"><g><rect style="stroke: none" class="background"/><text style="" y="-10.1"><tspan dy="1.1em" y="-0.1em" x="0" class="text-outer-tspan"><tspan font-weight="normal" class="text-inner-tspan" font-style="normal">Malinconia</tspan></tspan></text></g></g></g><g transform="translate(640.2403659097253, 243.26501205656356)" class="mindmap-node section-4"><g><path d="M0 32.8 v-27.799999999999997 q0,-5 5,-5 h41.765625 q5,0 5,5 v32.8 H0 Z" class="node-bkg node-no-border" id="node-30"/><line y2="37.8" x2="51.765625" y1="37.8" x1="0" class="node-line-4"/></g><g transform="translate(25.8828125, 5)" text-anchor="middle" dominant-baseline="middle" alignment-baseline="middle" dy="1em"><g><rect style="stroke: none" class="background"/><text style="" y="-10.1"><tspan dy="1.1em" y="-0.1em" x="0" class="text-outer-tspan"><tspan font-weight="normal" class="text-inner-tspan" font-style="normal">Noia</tspan></tspan></text></g></g></g><g transform="translate(326.79295479976963, 126.34014997131726)" class="mindmap-node section-5"><g><path d="M0 32.8 v-27.799999999999997 q0,-5 5,-5 h82.921875 q5,0 5,5 v32.8 H0 Z" class="node-bkg node-no-border" id="node-32"/><line y2="37.8" x2="92.921875" y1="37.8" x1="0" class="node-line-5"/></g><g transform="translate(46.4609375, 5)" text-anchor="middle" dominant-baseline="middle" alignment-baseline="middle" dy="1em"><g><rect style="stroke: none" class="background"/><text style="" y="-10.1"><tspan dy="1.1em" y="-0.1em" x="0" class="text-outer-tspan"><tspan font-weight="normal" class="text-inner-tspan" font-style="normal">Popolarità</tspan></tspan></text></g></g></g><g transform="translate(405.26950625524944, 194.36800090255906)" class="mindmap-node section-5"><g><path d="M0 32.8 v-27.799999999999997 q0,-5 5,-5 h64.046875 q5,0 5,5 v32.8 H0 Z" class="node-bkg node-no-border" id="node-33"/><line y2="37.8" x2="74.046875" y1="37.8" x1="0" class="node-line-5"/></g><g transform="translate(37.0234375, 5)" text-anchor="middle" dominant-baseline="middle" alignment-baseline="middle" dy="1em"><g><rect style="stroke: none" class="background"/><text style="" y="-10.1"><tspan dy="1.1em" y="-0.1em" x="0" class="text-outer-tspan"><tspan font-weight="normal" class="text-inner-tspan" font-style="normal">Ingiurie</tspan></tspan></text></g></g></g><g transform="translate(636.450577146811, 57.22083201787064)" class="mindmap-node section-5"><g><path d="M0 32.8 v-27.799999999999997 q0,-5 5,-5 h114.15625 q5,0 5,5 v32.8 H0 Z" class="node-bkg node-no-border" id="node-34"/><line y2="37.8" x2="124.15625" y1="37.8" x1="0" class="node-line-5"/></g><g transform="translate(62.078125, 5)" text-anchor="middle" dominant-baseline="middle" alignment-baseline="middle" dy="1em"><g><rect style="stroke: none" class="background"/><text style="" y="-10.1"><tspan dy="1.1em" y="-0.1em" x="0" class="text-outer-tspan"><tspan font-weight="normal" class="text-inner-tspan" font-style="normal">Parlare</tspan><tspan font-weight="normal" class="text-inner-tspan" font-style="normal"> Troppo</tspan></tspan></text></g></g></g><g transform="translate(544.7348945729781, 40.69774699819777)" class="mindmap-node section-5"><g><path d="M0 32.8 v-27.799999999999997 q0,-5 5,-5 h65.703125 q5,0 5,5 v32.8 H0 Z" class="node-bkg node-no-border" id="node-35"/><line y2="37.8" x2="75.703125" y1="37.8" x1="0" class="node-line-5"/></g><g transform="translate(37.8515625, 5)" text-anchor="middle" dominant-baseline="middle" alignment-baseline="middle" dy="1em"><g><rect style="stroke: none" class="background"/><text style="" y="-10.1"><tspan dy="1.1em" y="-0.1em" x="0" class="text-outer-tspan"><tspan font-weight="normal" class="text-inner-tspan" font-style="normal">Inganno</tspan></tspan></text></g></g></g><g transform="translate(437.3967826768509, 75.37070792230361)" class="mindmap-node section-5"><g><path d="M0 32.8 v-27.799999999999997 q0,-5 5,-5 h60.5 q5,0 5,5 v32.8 H0 Z" class="node-bkg node-no-border" id="node-36"/><line y2="37.8" x2="70.5" y1="37.8" x1="0" class="node-line-5"/></g><g transform="translate(35.25, 5)" text-anchor="middle" dominant-baseline="middle" alignment-baseline="middle" dy="1em"><g><rect style="stroke: none" class="background"/><text style="" y="-10.1"><tspan dy="1.1em" y="-0.1em" x="0" class="text-outer-tspan"><tspan font-weight="normal" class="text-inner-tspan" font-style="normal">Denaro</tspan></tspan></text></g></g></g><g transform="translate(624.4285125782, 173.11912404292275)" class="mindmap-node section-5"><g><path d="M0 32.8 v-27.799999999999997 q0,-5 5,-5 h60.3125 q5,0 5,5 v32.8 H0 Z" class="node-bkg node-no-border" id="node-37"/><line y2="37.8" x2="70.3125" y1="37.8" x1="0" class="node-line-5"/></g><g transform="translate(35.15625, 5)" text-anchor="middle" dominant-baseline="middle" alignment-baseline="middle" dy="1em"><g><rect style="stroke: none" class="background"/><text style="" y="-10.1"><tspan dy="1.1em" y="-0.1em" x="0" class="text-outer-tspan"><tspan font-weight="normal" class="text-inner-tspan" font-style="normal">Segreti</tspan></tspan></text></g></g></g><g transform="translate(331.9286691601611, 58.840838097138665)" class="mindmap-node section-5"><g><path d="M0 32.8 v-27.799999999999997 q0,-5 5,-5 h76.265625 q5,0 5,5 v32.8 H0 Z" class="node-bkg node-no-border" id="node-38"/><line y2="37.8" x2="86.265625" y1="37.8" x1="0" class="node-line-5"/></g><g transform="translate(43.1328125, 5)" text-anchor="middle" dominant-baseline="middle" alignment-baseline="middle" dy="1em"><g><rect style="stroke: none" class="background"/><text style="" y="-10.1"><tspan dy="1.1em" y="-0.1em" x="0" class="text-outer-tspan"><tspan font-weight="normal" class="text-inner-tspan" font-style="normal">Epidemie</tspan></tspan></text></g></g></g><g transform="translate(659.177596808198, 116.61717589639488)" class="mindmap-node section-5"><g><path d="M0 32.8 v-27.799999999999997 q0,-5 5,-5 h63.25 q5,0 5,5 v32.8 H0 Z" class="node-bkg node-no-border" id="node-39"/><line y2="37.8" x2="73.25" y1="37.8" x1="0" class="node-line-5"/></g><g transform="translate(36.625, 5)" text-anchor="middle" dominant-baseline="middle" alignment-baseline="middle" dy="1em"><g><rect style="stroke: none" class="background"/><text style="" y="-10.1"><tspan dy="1.1em" y="-0.1em" x="0" class="text-outer-tspan"><tspan font-weight="normal" class="text-inner-tspan" font-style="normal">Destino</tspan></tspan></text></g></g></g><g transform="translate(445.0502695560625, 15)" class="mindmap-node section-5"><g><path d="M0 32.8 v-27.799999999999997 q0,-5 5,-5 h73.078125 q5,0 5,5 v32.8 H0 Z" class="node-bkg node-no-border" id="node-40"/><line y2="37.8" x2="83.078125" y1="37.8" x1="0" class="node-line-5"/></g><g transform="translate(41.5390625, 5)" text-anchor="middle" dominant-baseline="middle" alignment-baseline="middle" dy="1em"><g><rect style="stroke: none" class="background"/><text style="" y="-10.1"><tspan dy="1.1em" y="-0.1em" x="0" class="text-outer-tspan"><tspan font-weight="normal" class="text-inner-tspan" font-style="normal">Specchio</tspan></tspan></text></g></g></g><g transform="translate(504.6776634116999, 214.14674945717934)" class="mindmap-node section-6"><g><path d="M0 32.8 v-27.799999999999997 q0,-5 5,-5 h92.578125 q5,0 5,5 v32.8 H0 Z" class="node-bkg node-no-border" id="node-42"/><line y2="37.8" x2="102.578125" y1="37.8" x1="0" class="node-line-6"/></g><g transform="translate(51.2890625, 5)" text-anchor="middle" dominant-baseline="middle" alignment-baseline="middle" dy="1em"><g><rect style="stroke: none" class="background"/><text style="" y="-10.1"><tspan dy="1.1em" y="-0.1em" x="0" class="text-outer-tspan"><tspan font-weight="normal" class="text-inner-tspan" font-style="normal">Letteratura</tspan></tspan></text></g></g></g><g transform="translate(317.1271528242494, 368.1150128853162)" class="mindmap-node section-6"><g><path d="M0 32.8 v-27.799999999999997 q0,-5 5,-5 h95.9375 q5,0 5,5 v32.8 H0 Z" class="node-bkg node-no-border" id="node-43"/><line y2="37.8" x2="105.9375" y1="37.8" x1="0" class="node-line-6"/></g><g transform="translate(52.96875, 5)" text-anchor="middle" dominant-baseline="middle" alignment-baseline="middle" dy="1em"><g><rect style="stroke: none" class="background"/><text style="" y="-10.1"><tspan dy="1.1em" y="-0.1em" x="0" class="text-outer-tspan"><tspan font-weight="normal" class="text-inner-tspan" font-style="normal">Guicciardini</tspan></tspan></text></g></g></g><g transform="translate(279.6889002751699, 185.98230199565)" class="mindmap-node section-6"><g><path d="M0 32.8 v-27.799999999999997 q0,-5 5,-5 h90.765625 q5,0 5,5 v32.8 H0 Z" class="node-bkg node-no-border" id="node-44"/><line y2="37.8" x2="100.765625" y1="37.8" x1="0" class="node-line-6"/></g><g transform="translate(50.3828125, 5)" text-anchor="middle" dominant-baseline="middle" alignment-baseline="middle" dy="1em"><g><rect style="stroke: none" class="background"/><text style="" y="-10.1"><tspan dy="1.1em" y="-0.1em" x="0" class="text-outer-tspan"><tspan font-weight="normal" class="text-inner-tspan" font-style="normal">Educazione</tspan></tspan></text></g></g></g><g transform="translate(262.38173966404975, 242.98774329064096)" class="mindmap-node section-6"><g><path d="M0 32.8 v-27.799999999999997 q0,-5 5,-5 h65.5625 q5,0 5,5 v32.8 H0 Z" class="node-bkg node-no-border" id="node-45"/><line y2="37.8" x2="75.5625" y1="37.8" x1="0" class="node-line-6"/></g><g transform="translate(37.78125, 5)" text-anchor="middle" dominant-baseline="middle" alignment-baseline="middle" dy="1em"><g><rect style="stroke: none" class="background"/><text style="" y="-10.1"><tspan dy="1.1em" y="-0.1em" x="0" class="text-outer-tspan"><tspan font-weight="normal" class="text-inner-tspan" font-style="normal">Illusioni</tspan></tspan></text></g></g></g></g></svg>