<svg aria-roledescription="er" role="graphics-document document" viewBox="0 0 1057.953125 568.55078125" style="max-width: 1057.95px; background-color: white;" xmlns:xlink="http://www.w3.org/1999/xlink" xmlns="http://www.w3.org/2000/svg" width="100%" id="my-svg"><style>#my-svg{font-family:"trebuchet ms",verdana,arial,sans-serif;font-size:16px;fill:#000;}#my-svg .error-icon{fill:#fff;}#my-svg .error-text{fill:#000000;stroke:#000000;}#my-svg .edge-thickness-normal{stroke-width:1px;}#my-svg .edge-thickness-thick{stroke-width:3.5px;}#my-svg .edge-pattern-solid{stroke-dasharray:0;}#my-svg .edge-thickness-invisible{stroke-width:0;fill:none;}#my-svg .edge-pattern-dashed{stroke-dasharray:3;}#my-svg .edge-pattern-dotted{stroke-dasharray:2;}#my-svg .marker{fill:#F8B229;stroke:#F8B229;}#my-svg .marker.cross{stroke:#F8B229;}#my-svg svg{font-family:"trebuchet ms",verdana,arial,sans-serif;font-size:16px;}#my-svg p{margin:0;}#my-svg .entityBox{fill:#FFFF99;stroke:#7C0000;}#my-svg .attributeBoxOdd{fill:#ffffff;stroke:#7C0000;}#my-svg .attributeBoxEven{fill:#f2f2f2;stroke:#7C0000;}#my-svg .relationshipLabelBox{fill:#fff;opacity:0.7;background-color:#fff;}#my-svg .relationshipLabelBox rect{opacity:0.5;}#my-svg .relationshipLine{stroke:#F8B229;}#my-svg .entityTitleText{text-anchor:middle;font-size:18px;fill:#000;}#my-svg #MD_PARENT_START{fill:#f5f5f5!important;stroke:#F8B229!important;stroke-width:1;}#my-svg #MD_PARENT_END{fill:#f5f5f5!important;stroke:#F8B229!important;stroke-width:1;}#my-svg :root{--mermaid-font-family:"trebuchet ms",verdana,arial,sans-serif;}</style><g/><defs><marker orient="auto" markerHeight="240" markerWidth="190" refY="7" refX="0" id="MD_PARENT_START"><path d="M 18,7 L9,13 L1,7 L9,1 Z"/></marker></defs><defs><marker orient="auto" markerHeight="28" markerWidth="20" refY="7" refX="19" id="MD_PARENT_END"><path d="M 18,7 L9,13 L1,7 L9,1 Z"/></marker></defs><defs><marker orient="auto" markerHeight="18" markerWidth="18" refY="9" refX="0" id="ONLY_ONE_START"><path d="M9,0 L9,18 M15,0 L15,18" fill="none" stroke="gray"/></marker></defs><defs><marker orient="auto" markerHeight="18" markerWidth="18" refY="9" refX="18" id="ONLY_ONE_END"><path d="M3,0 L3,18 M9,0 L9,18" fill="none" stroke="gray"/></marker></defs><defs><marker orient="auto" markerHeight="18" markerWidth="30" refY="9" refX="0" id="ZERO_OR_ONE_START"><circle r="6" cy="9" cx="21" fill="white" stroke="gray"/><path d="M9,0 L9,18" fill="none" stroke="gray"/></marker></defs><defs><marker orient="auto" markerHeight="18" markerWidth="30" refY="9" refX="30" id="ZERO_OR_ONE_END"><circle r="6" cy="9" cx="9" fill="white" stroke="gray"/><path d="M21,0 L21,18" fill="none" stroke="gray"/></marker></defs><defs><marker orient="auto" markerHeight="36" markerWidth="45" refY="18" refX="18" id="ONE_OR_MORE_START"><path d="M0,18 Q 18,0 36,18 Q 18,36 0,18 M42,9 L42,27" fill="none" stroke="gray"/></marker></defs><defs><marker orient="auto" markerHeight="36" markerWidth="45" refY="18" refX="27" id="ONE_OR_MORE_END"><path d="M3,9 L3,27 M9,18 Q27,0 45,18 Q27,36 9,18" fill="none" stroke="gray"/></marker></defs><defs><marker orient="auto" markerHeight="36" markerWidth="57" refY="18" refX="18" id="ZERO_OR_MORE_START"><circle r="6" cy="18" cx="48" fill="white" stroke="gray"/><path d="M0,18 Q18,0 36,18 Q18,36 0,18" fill="none" stroke="gray"/></marker></defs><defs><marker orient="auto" markerHeight="36" markerWidth="57" refY="18" refX="39" id="ZERO_OR_MORE_END"><circle r="6" cy="18" cx="9" fill="white" stroke="gray"/><path d="M21,18 Q39,0 57,18 Q39,36 21,18" fill="none" stroke="gray"/></marker></defs><path style="stroke: gray; fill: none;" marker-start="url(#ONLY_ONE_START)" marker-end="url(#ONE_OR_MORE_END)" d="M488.461,95L488.461,103.333C488.461,111.667,488.461,128.333,488.461,145C488.461,161.667,488.461,178.333,488.461,186.667L488.461,195" class="er relationshipLine"/><path style="stroke: gray; fill: none;" marker-start="url(#ONLY_ONE_START)" marker-end="url(#ONE_OR_MORE_END)" d="M428.695,245.061L369.266,257.55C309.836,270.04,190.977,295.02,131.547,324.473C72.117,353.925,72.117,387.85,72.117,404.813L72.117,421.775" class="er relationshipLine"/><path style="stroke: gray; fill: none;" marker-start="url(#ONLY_ONE_START)" marker-end="url(#ONE_OR_MORE_END)" d="M428.695,265.022L411.857,274.185C395.018,283.348,361.341,301.674,344.503,326.534C327.664,351.395,327.664,382.789,327.664,398.486L327.664,414.184" class="er relationshipLine"/><path style="stroke: gray; fill: none;" marker-start="url(#ONLY_ONE_START)" marker-end="url(#ONE_OR_MORE_END)" d="M548.227,265.022L565.065,274.185C581.904,283.348,615.581,301.674,632.419,319.17C649.258,336.667,649.258,353.333,649.258,361.667L649.258,370" class="er relationshipLine"/><path style="stroke: gray; fill: none;" marker-start="url(#ONLY_ONE_START)" marker-end="url(#ONE_OR_MORE_END)" d="M548.227,243.765L615.637,256.471C683.047,269.177,817.867,294.588,885.277,317.465C952.688,340.342,952.688,360.684,952.688,370.855L952.688,381.026" class="er relationshipLine"/><path style="stroke: gray; fill: none;" marker-start="url(#ONLY_ONE_START)" marker-end="url(#ONE_OR_MORE_END)" d="M428.695,245.061L369.266,257.55C309.836,270.04,190.977,295.02,131.547,324.473C72.117,353.925,72.117,387.85,72.117,404.813L72.117,421.775" class="er relationshipLine"/><g transform="translate(437.4765625,20 )" id="entity-MRMetadata-3b9b71bc-3ef7-58e9-8ea6-43aed5f7739e"><rect height="75" width="101.96875" y="0" x="0" class="er entityBox"/><text style="dominant-baseline: middle; text-anchor: middle; font-size: 12px;" transform="translate(50.984375,37.5)" y="0" x="0" id="text-entity-MRMetadata-3b9b71bc-3ef7-58e9-8ea6-43aed5f7739e" class="er entityLabel">MR_Metadata</text></g><g transform="translate(428.6953125,195 )" id="entity-ResourceLineage-ff611482-8231-5f54-b660-606455b429f9"><rect height="75" width="119.53125" y="0" x="0" class="er entityBox"/><text style="dominant-baseline: middle; text-anchor: middle; font-size: 12px;" transform="translate(59.765625,37.5)" y="0" x="0" id="text-entity-ResourceLineage-ff611482-8231-5f54-b660-606455b429f9" class="er entityLabel">ResourceLineage</text></g><g transform="translate(20,421.775390625 )" id="entity-LEProcessing-768a1bf5-7313-5b0d-8b33-ed61e149850d"><rect height="75" width="104.234375" y="0" x="0" class="er entityBox"/><text style="dominant-baseline: middle; text-anchor: middle; font-size: 12px;" transform="translate(52.1171875,37.5)" y="0" x="0" id="text-entity-LEProcessing-768a1bf5-7313-5b0d-8b33-ed61e149850d" class="er entityLabel">LE_Processing</text></g><g transform="translate(224.234375,414.18359375 )" id="entity-LILineage-fe813874-01c7-5da2-a42d-6233c89d629b"><rect height="90.18359375" width="206.859375" y="0" x="0" class="er entityBox"/><text style="dominant-baseline: middle; text-anchor: middle; font-size: 12px;" transform="translate(103.4296875,12)" y="0" x="0" id="text-entity-LILineage-fe813874-01c7-5da2-a42d-6233c89d629b" class="er entityLabel">LI_Lineage</text><rect height="22" width="125.359375" y="24" x="0" class="er attributeBoxOdd"/><text style="dominant-baseline: middle; font-size: 10.2px;" transform="translate(5,35)" y="0" x="0" id="text-entity-LILineage-fe813874-01c7-5da2-a42d-6233c89d629b-attr-1-type" class="er entityLabel">additionalDocumentation</text><rect height="22" width="81.5" y="24" x="125.359375" class="er attributeBoxOdd"/><text style="dominant-baseline: middle; font-size: 10.2px;" transform="translate(130.359375,35)" y="0" x="0" id="text-entity-LILineage-fe813874-01c7-5da2-a42d-6233c89d629b-attr-1-name" class="er entityLabel">CI_Citation</text><rect height="22.091796875" width="125.359375" y="46" x="0" class="er attributeBoxEven"/><text style="dominant-baseline: middle; font-size: 10.2px;" transform="translate(5,57.0458984375)" y="0" x="0" id="text-entity-LILineage-fe813874-01c7-5da2-a42d-6233c89d629b-attr-2-type" class="er entityLabel">scope</text><rect height="22.091796875" width="81.5" y="46" x="125.359375" class="er attributeBoxEven"/><text style="dominant-baseline: middle; font-size: 10.2px;" transform="translate(130.359375,57.0458984375)" y="0" x="0" id="text-entity-LILineage-fe813874-01c7-5da2-a42d-6233c89d629b-attr-2-name" class="er entityLabel">MD_Scope</text><rect height="22.091796875" width="125.359375" y="68.091796875" x="0" class="er attributeBoxOdd"/><text style="dominant-baseline: middle; font-size: 10.2px;" transform="translate(5,79.1376953125)" y="0" x="0" id="text-entity-LILineage-fe813874-01c7-5da2-a42d-6233c89d629b-attr-3-type" class="er entityLabel">statement</text><rect height="22.091796875" width="81.5" y="68.091796875" x="125.359375" class="er attributeBoxOdd"/><text style="dominant-baseline: middle; font-size: 10.2px;" transform="translate(130.359375,79.1376953125)" y="0" x="0" id="text-entity-LILineage-fe813874-01c7-5da2-a42d-6233c89d629b-attr-3-name" class="er entityLabel">CharacterString</text></g><g transform="translate(531.09375,370 )" id="entity-LISource-efc927da-74a3-5d42-ae20-ecc44cb22465"><rect height="178.55078125" width="236.328125" y="0" x="0" class="er entityBox"/><text style="dominant-baseline: middle; text-anchor: middle; font-size: 12px;" transform="translate(118.1640625,12)" y="0" x="0" id="text-entity-LISource-efc927da-74a3-5d42-ae20-ecc44cb22465" class="er entityLabel">LI_Source</text><rect height="22.091796875" width="118.296875" y="24" x="0" class="er attributeBoxOdd"/><text style="dominant-baseline: middle; font-size: 10.2px;" transform="translate(5,35.0458984375)" y="0" x="0" id="text-entity-LISource-efc927da-74a3-5d42-ae20-ecc44cb22465-attr-1-type" class="er entityLabel">description</text><rect height="22.091796875" width="118.03125" y="24" x="118.296875" class="er attributeBoxOdd"/><text style="dominant-baseline: middle; font-size: 10.2px;" transform="translate(123.296875,35.0458984375)" y="0" x="0" id="text-entity-LISource-efc927da-74a3-5d42-ae20-ecc44cb22465-attr-1-name" class="er entityLabel">CharacterString</text><rect height="22.091796875" width="118.296875" y="46.091796875" x="0" class="er attributeBoxEven"/><text style="dominant-baseline: middle; font-size: 10.2px;" transform="translate(5,57.1376953125)" y="0" x="0" id="text-entity-LISource-efc927da-74a3-5d42-ae20-ecc44cb22465-attr-2-type" class="er entityLabel">scope</text><rect height="22.091796875" width="118.03125" y="46.091796875" x="118.296875" class="er attributeBoxEven"/><text style="dominant-baseline: middle; font-size: 10.2px;" transform="translate(123.296875,57.1376953125)" y="0" x="0" id="text-entity-LISource-efc927da-74a3-5d42-ae20-ecc44cb22465-attr-2-name" class="er entityLabel">MD</text><rect height="22.091796875" width="118.296875" y="68.18359375" x="0" class="er attributeBoxOdd"/><text style="dominant-baseline: middle; font-size: 10.2px;" transform="translate(5,79.2294921875)" y="0" x="0" id="text-entity-LISource-efc927da-74a3-5d42-ae20-ecc44cb22465-attr-3-type" class="er entityLabel">Scope</text><rect height="22.091796875" width="118.03125" y="68.18359375" x="118.296875" class="er attributeBoxOdd"/><text style="dominant-baseline: middle; font-size: 10.2px;" transform="translate(123.296875,79.2294921875)" y="0" x="0" id="text-entity-LISource-efc927da-74a3-5d42-ae20-ecc44cb22465-attr-3-name" class="er entityLabel">sourceCitation</text><rect height="22" width="118.296875" y="90.275390625" x="0" class="er attributeBoxEven"/><text style="dominant-baseline: middle; font-size: 10.2px;" transform="translate(5,101.275390625)" y="0" x="0" id="text-entity-LISource-efc927da-74a3-5d42-ae20-ecc44cb22465-attr-4-type" class="er entityLabel">CI_Citation</text><rect height="22" width="118.03125" y="90.275390625" x="118.296875" class="er attributeBoxEven"/><text style="dominant-baseline: middle; font-size: 10.2px;" transform="translate(123.296875,101.275390625)" y="0" x="0" id="text-entity-LISource-efc927da-74a3-5d42-ae20-ecc44cb22465-attr-4-name" class="er entityLabel">sourceMetadata</text><rect height="22.091796875" width="118.296875" y="112.275390625" x="0" class="er attributeBoxOdd"/><text style="dominant-baseline: middle; font-size: 10.2px;" transform="translate(5,123.3212890625)" y="0" x="0" id="text-entity-LISource-efc927da-74a3-5d42-ae20-ecc44cb22465-attr-5-type" class="er entityLabel">CI_Citation</text><rect height="22.091796875" width="118.03125" y="112.275390625" x="118.296875" class="er attributeBoxOdd"/><text style="dominant-baseline: middle; font-size: 10.2px;" transform="translate(123.296875,123.3212890625)" y="0" x="0" id="text-entity-LISource-efc927da-74a3-5d42-ae20-ecc44cb22465-attr-5-name" class="er entityLabel">sourceReferenceSystem</text><rect height="22.091796875" width="118.296875" y="134.3671875" x="0" class="er attributeBoxEven"/><text style="dominant-baseline: middle; font-size: 10.2px;" transform="translate(5,145.4130859375)" y="0" x="0" id="text-entity-LISource-efc927da-74a3-5d42-ae20-ecc44cb22465-attr-6-type" class="er entityLabel">MD_</text><rect height="22.091796875" width="118.03125" y="134.3671875" x="118.296875" class="er attributeBoxEven"/><text style="dominant-baseline: middle; font-size: 10.2px;" transform="translate(123.296875,145.4130859375)" y="0" x="0" id="text-entity-LISource-efc927da-74a3-5d42-ae20-ecc44cb22465-attr-6-name" class="er entityLabel">ReferenceSystem</text><rect height="22.091796875" width="118.296875" y="156.458984375" x="0" class="er attributeBoxOdd"/><text style="dominant-baseline: middle; font-size: 10.2px;" transform="translate(5,167.5048828125)" y="0" x="0" id="text-entity-LISource-efc927da-74a3-5d42-ae20-ecc44cb22465-attr-7-type" class="er entityLabel">sourceSpatialResolution</text><rect height="22.091796875" width="118.03125" y="156.458984375" x="118.296875" class="er attributeBoxOdd"/><text style="dominant-baseline: middle; font-size: 10.2px;" transform="translate(123.296875,167.5048828125)" y="0" x="0" id="text-entity-LISource-efc927da-74a3-5d42-ae20-ecc44cb22465-attr-7-name" class="er entityLabel">MD_Resolution</text></g><g transform="translate(867.421875,381.0259780883789 )" id="entity-LIProcessStep-e1b631cf-9349-5d59-93bf-7465b2d4328d"><rect height="156.49882984161377" width="170.53125" y="0" x="0" class="er entityBox"/><text style="dominant-baseline: middle; text-anchor: middle; font-size: 12px;" transform="translate(85.265625,12)" y="0" x="0" id="text-entity-LIProcessStep-e1b631cf-9349-5d59-93bf-7465b2d4328d" class="er entityLabel">LI_ProcessStep</text><rect height="22.131641387939453" width="73.078125" y="24" x="0" class="er attributeBoxOdd"/><text style="dominant-baseline: middle; font-size: 10.2px;" transform="translate(5,35.06582069396973)" y="0" x="0" id="text-entity-LIProcessStep-e1b631cf-9349-5d59-93bf-7465b2d4328d-attr-1-type" class="er entityLabel">description</text><rect height="22.131641387939453" width="97.453125" y="24" x="73.078125" class="er attributeBoxOdd"/><text style="dominant-baseline: middle; font-size: 10.2px;" transform="translate(78.078125,35.06582069396973)" y="0" x="0" id="text-entity-LIProcessStep-e1b631cf-9349-5d59-93bf-7465b2d4328d-attr-1-name" class="er entityLabel">CharacterString(m)</text><rect height="22.091796875" width="73.078125" y="46.13164138793945" x="0" class="er attributeBoxEven"/><text style="dominant-baseline: middle; font-size: 10.2px;" transform="translate(5,57.17753982543945)" y="0" x="0" id="text-entity-LIProcessStep-e1b631cf-9349-5d59-93bf-7465b2d4328d-attr-2-type" class="er entityLabel">processor</text><rect height="22.091796875" width="97.453125" y="46.13164138793945" x="73.078125" class="er attributeBoxEven"/><text style="dominant-baseline: middle; font-size: 10.2px;" transform="translate(78.078125,57.17753982543945)" y="0" x="0" id="text-entity-LIProcessStep-e1b631cf-9349-5d59-93bf-7465b2d4328d-attr-2-name" class="er entityLabel">CI_Responsibility</text><rect height="22.091796875" width="73.078125" y="68.22343826293945" x="0" class="er attributeBoxOdd"/><text style="dominant-baseline: middle; font-size: 10.2px;" transform="translate(5,79.26933670043945)" y="0" x="0" id="text-entity-LIProcessStep-e1b631cf-9349-5d59-93bf-7465b2d4328d-attr-3-type" class="er entityLabel">rationale</text><rect height="22.091796875" width="97.453125" y="68.22343826293945" x="73.078125" class="er attributeBoxOdd"/><text style="dominant-baseline: middle; font-size: 10.2px;" transform="translate(78.078125,79.26933670043945)" y="0" x="0" id="text-entity-LIProcessStep-e1b631cf-9349-5d59-93bf-7465b2d4328d-attr-3-name" class="er entityLabel">CharacterString</text><rect height="22" width="73.078125" y="90.31523513793945" x="0" class="er attributeBoxEven"/><text style="dominant-baseline: middle; font-size: 10.2px;" transform="translate(5,101.31523513793945)" y="0" x="0" id="text-entity-LIProcessStep-e1b631cf-9349-5d59-93bf-7465b2d4328d-attr-4-type" class="er entityLabel">reference</text><rect height="22" width="97.453125" y="90.31523513793945" x="73.078125" class="er attributeBoxEven"/><text style="dominant-baseline: middle; font-size: 10.2px;" transform="translate(78.078125,101.31523513793945)" y="0" x="0" id="text-entity-LIProcessStep-e1b631cf-9349-5d59-93bf-7465b2d4328d-attr-4-name" class="er entityLabel">CI_Citation</text><rect height="22.091796875" width="73.078125" y="112.31523513793945" x="0" class="er attributeBoxOdd"/><text style="dominant-baseline: middle; font-size: 10.2px;" transform="translate(5,123.36113357543945)" y="0" x="0" id="text-entity-LIProcessStep-e1b631cf-9349-5d59-93bf-7465b2d4328d-attr-5-type" class="er entityLabel">scope</text><rect height="22.091796875" width="97.453125" y="112.31523513793945" x="73.078125" class="er attributeBoxOdd"/><text style="dominant-baseline: middle; font-size: 10.2px;" transform="translate(78.078125,123.36113357543945)" y="0" x="0" id="text-entity-LIProcessStep-e1b631cf-9349-5d59-93bf-7465b2d4328d-attr-5-name" class="er entityLabel">MD_Scope</text><rect height="22.091797828674316" width="73.078125" y="134.40703201293945" x="0" class="er attributeBoxEven"/><text style="dominant-baseline: middle; font-size: 10.2px;" transform="translate(5,145.4529309272766)" y="0" x="0" id="text-entity-LIProcessStep-e1b631cf-9349-5d59-93bf-7465b2d4328d-attr-6-type" class="er entityLabel">stepDateTime</text><rect height="22.091797828674316" width="97.453125" y="134.40703201293945" x="73.078125" class="er attributeBoxEven"/><text style="dominant-baseline: middle; font-size: 10.2px;" transform="translate(78.078125,145.4529309272766)" y="0" x="0" id="text-entity-LIProcessStep-e1b631cf-9349-5d59-93bf-7465b2d4328d-attr-6-name" class="er entityLabel">TM_Primitive</text></g><rect height="14" width="17.71875" y="138" x="479.60162353515625" class="er relationshipLabelBox"/><text style="text-anchor: middle; dominant-baseline: middle; font-size: 12px;" y="145" x="488.46099853515625" id="rel1" class="er relationshipLabel">has</text><rect height="14" width="17.71875" y="286.3105773925781" x="209.53456115722656" class="er relationshipLabelBox"/><text style="text-anchor: middle; dominant-baseline: middle; font-size: 12px;" y="293.3105773925781" x="218.39393615722656" id="rel2" class="er relationshipLabel">has</text><rect height="14" width="17.71875" y="313.7187194824219" x="339.9713134765625" class="er relationshipLabelBox"/><text style="text-anchor: middle; dominant-baseline: middle; font-size: 12px;" y="320.7187194824219" x="348.8306884765625" id="rel3" class="er relationshipLabel">has</text><rect height="14" width="17.71875" y="297.63470458984375" x="606.3823852539062" class="er relationshipLabelBox"/><text style="text-anchor: middle; dominant-baseline: middle; font-size: 12px;" y="304.63470458984375" x="615.2417602539062" id="rel4" class="er relationshipLabel">has</text><rect height="14" width="17.71875" y="279.85333251953125" x="758.6716918945312" class="er relationshipLabelBox"/><text style="text-anchor: middle; dominant-baseline: middle; font-size: 12px;" y="286.85333251953125" x="767.5310668945312" id="rel5" class="er relationshipLabel">has</text><rect height="14" width="17.71875" y="286.3105773925781" x="209.53456115722656" class="er relationshipLabelBox"/><text style="text-anchor: middle; dominant-baseline: middle; font-size: 12px;" y="293.3105773925781" x="218.39393615722656" id="rel6" class="er relationshipLabel">has</text></svg>