<svg aria-roledescription="er" role="graphics-document document" viewBox="0 0 567.78125 342.3671875" style="max-width: 567.781px; background-color: white;" xmlns:xlink="http://www.w3.org/1999/xlink" xmlns="http://www.w3.org/2000/svg" width="100%" id="my-svg"><style>#my-svg{font-family:"trebuchet ms",verdana,arial,sans-serif;font-size:16px;fill:#333;}#my-svg .error-icon{fill:#552222;}#my-svg .error-text{fill:#552222;stroke:#552222;}#my-svg .edge-thickness-normal{stroke-width:1px;}#my-svg .edge-thickness-thick{stroke-width:3.5px;}#my-svg .edge-pattern-solid{stroke-dasharray:0;}#my-svg .edge-thickness-invisible{stroke-width:0;fill:none;}#my-svg .edge-pattern-dashed{stroke-dasharray:3;}#my-svg .edge-pattern-dotted{stroke-dasharray:2;}#my-svg .marker{fill:#333333;stroke:#333333;}#my-svg .marker.cross{stroke:#333333;}#my-svg svg{font-family:"trebuchet ms",verdana,arial,sans-serif;font-size:16px;}#my-svg p{margin:0;}#my-svg .entityBox{fill:#ECECFF;stroke:#9370DB;}#my-svg .attributeBoxOdd{fill:#ffffff;stroke:#9370DB;}#my-svg .attributeBoxEven{fill:#f2f2f2;stroke:#9370DB;}#my-svg .relationshipLabelBox{fill:hsl(80, 100%, 96.2745098039%);opacity:0.7;background-color:hsl(80, 100%, 96.2745098039%);}#my-svg .relationshipLabelBox rect{opacity:0.5;}#my-svg .relationshipLine{stroke:#333333;}#my-svg .entityTitleText{text-anchor:middle;font-size:18px;fill:#333;}#my-svg #MD_PARENT_START{fill:#f5f5f5!important;stroke:#333333!important;stroke-width:1;}#my-svg #MD_PARENT_END{fill:#f5f5f5!important;stroke:#333333!important;stroke-width:1;}#my-svg :root{--mermaid-font-family:"trebuchet ms",verdana,arial,sans-serif;}</style><g/><defs><marker orient="auto" markerHeight="240" markerWidth="190" refY="7" refX="0" id="MD_PARENT_START"><path d="M 18,7 L9,13 L1,7 L9,1 Z"/></marker></defs><defs><marker orient="auto" markerHeight="28" markerWidth="20" refY="7" refX="19" id="MD_PARENT_END"><path d="M 18,7 L9,13 L1,7 L9,1 Z"/></marker></defs><defs><marker orient="auto" markerHeight="18" markerWidth="18" refY="9" refX="0" id="ONLY_ONE_START"><path d="M9,0 L9,18 M15,0 L15,18" fill="none" stroke="gray"/></marker></defs><defs><marker orient="auto" markerHeight="18" markerWidth="18" refY="9" refX="18" id="ONLY_ONE_END"><path d="M3,0 L3,18 M9,0 L9,18" fill="none" stroke="gray"/></marker></defs><defs><marker orient="auto" markerHeight="18" markerWidth="30" refY="9" refX="0" id="ZERO_OR_ONE_START"><circle r="6" cy="9" cx="21" fill="white" stroke="gray"/><path d="M9,0 L9,18" fill="none" stroke="gray"/></marker></defs><defs><marker orient="auto" markerHeight="18" markerWidth="30" refY="9" refX="30" id="ZERO_OR_ONE_END"><circle r="6" cy="9" cx="9" fill="white" stroke="gray"/><path d="M21,0 L21,18" fill="none" stroke="gray"/></marker></defs><defs><marker orient="auto" markerHeight="36" markerWidth="45" refY="18" refX="18" id="ONE_OR_MORE_START"><path d="M0,18 Q 18,0 36,18 Q 18,36 0,18 M42,9 L42,27" fill="none" stroke="gray"/></marker></defs><defs><marker orient="auto" markerHeight="36" markerWidth="45" refY="18" refX="27" id="ONE_OR_MORE_END"><path d="M3,9 L3,27 M9,18 Q27,0 45,18 Q27,36 9,18" fill="none" stroke="gray"/></marker></defs><defs><marker orient="auto" markerHeight="36" markerWidth="57" refY="18" refX="18" id="ZERO_OR_MORE_START"><circle r="6" cy="18" cx="48" fill="white" stroke="gray"/><path d="M0,18 Q18,0 36,18 Q18,36 0,18" fill="none" stroke="gray"/></marker></defs><defs><marker orient="auto" markerHeight="36" markerWidth="57" refY="18" refX="39" id="ZERO_OR_MORE_END"><circle r="6" cy="18" cx="9" fill="white" stroke="gray"/><path d="M21,18 Q39,0 57,18 Q39,36 21,18" fill="none" stroke="gray"/></marker></defs><path style="stroke: gray; fill: none;" marker-start="url(#ONLY_ONE_START)" marker-end="url(#ZERO_OR_MORE_END)" d="M70,132.367L70,140.701C70,149.034,70,165.701,92.784,184.683C115.568,203.665,161.135,224.963,183.919,235.612L206.703,246.26" class="er relationshipLine"/><path style="stroke: gray; fill: none;" marker-start="url(#ONLY_ONE_START)" marker-end="url(#ZERO_OR_MORE_END)" d="M273.258,132.367L273.258,140.701C273.258,149.034,273.258,165.701,273.258,182.367C273.258,199.034,273.258,215.701,273.258,224.034L273.258,232.367" class="er relationshipLine"/><path style="stroke: gray; fill: none;" marker-start="url(#ONLY_ONE_START)" marker-end="url(#ZERO_OR_MORE_END)" d="M487.148,121.321L487.148,131.496C487.148,141.67,487.148,162.019,462.592,183.099C438.036,204.18,388.924,225.994,364.368,236.9L339.813,247.807" class="er relationshipLine"/><g transform="translate(20,20 )" id="entity-BOOK-12b90bf2-7af7-5ded-a124-d6647c4b972e"><rect height="112.36719036102295" width="100" y="0" x="0" class="er entityBox"/><text style="dominant-baseline: middle; text-anchor: middle; font-size: 12px;" transform="translate(50,12)" y="0" x="0" id="text-entity-BOOK-12b90bf2-7af7-5ded-a124-d6647c4b972e" class="er entityLabel">BOOK</text><rect height="22.091797828674316" width="36.645833333333336" y="24" x="0" class="er attributeBoxOdd"/><text style="dominant-baseline: middle; font-size: 10.2px;" transform="translate(5,35.04589891433716)" y="0" x="0" id="text-entity-BOOK-12b90bf2-7af7-5ded-a124-d6647c4b972e-attr-1-type" class="er entityLabel">string</text><rect height="22.091797828674316" width="40.895833333333336" y="24" x="36.645833333333336" class="er attributeBoxOdd"/><text style="dominant-baseline: middle; font-size: 10.2px;" transform="translate(41.645833333333336,35.04589891433716)" y="0" x="0" id="text-entity-BOOK-12b90bf2-7af7-5ded-a124-d6647c4b972e-attr-1-name" class="er entityLabel">ISBN</text><rect height="22.091797828674316" width="22.458333333333332" y="24" x="77.54166666666667" class="er attributeBoxOdd"/><text style="dominant-baseline: middle; font-size: 10.2px;" transform="translate(82.54166666666667,35.04589891433716)" y="0" x="0" id="text-entity-BOOK-12b90bf2-7af7-5ded-a124-d6647c4b972e-attr-1-key" class="er entityLabel">PK</text><rect height="22.091797828674316" width="36.645833333333336" y="46.091797828674316" x="0" class="er attributeBoxEven"/><text style="dominant-baseline: middle; font-size: 10.2px;" transform="translate(5,57.137696743011475)" y="0" x="0" id="text-entity-BOOK-12b90bf2-7af7-5ded-a124-d6647c4b972e-attr-2-type" class="er entityLabel">string</text><rect height="22.091797828674316" width="40.895833333333336" y="46.091797828674316" x="36.645833333333336" class="er attributeBoxEven"/><text style="dominant-baseline: middle; font-size: 10.2px;" transform="translate(41.645833333333336,57.137696743011475)" y="0" x="0" id="text-entity-BOOK-12b90bf2-7af7-5ded-a124-d6647c4b972e-attr-2-name" class="er entityLabel">title</text><rect height="22.091797828674316" width="22.458333333333332" y="46.091797828674316" x="77.54166666666667" class="er attributeBoxEven"/><text style="dominant-baseline: middle; font-size: 10.2px;" transform="translate(82.54166666666667,57.137696743011475)" y="0" x="0" id="text-entity-BOOK-12b90bf2-7af7-5ded-a124-d6647c4b972e-attr-2-key" class="er entityLabel"/><rect height="22.091797828674316" width="36.645833333333336" y="68.18359565734863" x="0" class="er attributeBoxOdd"/><text style="dominant-baseline: middle; font-size: 10.2px;" transform="translate(5,79.22949457168579)" y="0" x="0" id="text-entity-BOOK-12b90bf2-7af7-5ded-a124-d6647c4b972e-attr-3-type" class="er entityLabel">string</text><rect height="22.091797828674316" width="40.895833333333336" y="68.18359565734863" x="36.645833333333336" class="er attributeBoxOdd"/><text style="dominant-baseline: middle; font-size: 10.2px;" transform="translate(41.645833333333336,79.22949457168579)" y="0" x="0" id="text-entity-BOOK-12b90bf2-7af7-5ded-a124-d6647c4b972e-attr-3-name" class="er entityLabel">author</text><rect height="22.091797828674316" width="22.458333333333332" y="68.18359565734863" x="77.54166666666667" class="er attributeBoxOdd"/><text style="dominant-baseline: middle; font-size: 10.2px;" transform="translate(82.54166666666667,79.22949457168579)" y="0" x="0" id="text-entity-BOOK-12b90bf2-7af7-5ded-a124-d6647c4b972e-attr-3-key" class="er entityLabel"/><rect height="22.091796875" width="36.645833333333336" y="90.27539348602295" x="0" class="er attributeBoxEven"/><text style="dominant-baseline: middle; font-size: 10.2px;" transform="translate(5,101.32129192352295)" y="0" x="0" id="text-entity-BOOK-12b90bf2-7af7-5ded-a124-d6647c4b972e-attr-4-type" class="er entityLabel">int</text><rect height="22.091796875" width="40.895833333333336" y="90.27539348602295" x="36.645833333333336" class="er attributeBoxEven"/><text style="dominant-baseline: middle; font-size: 10.2px;" transform="translate(41.645833333333336,101.32129192352295)" y="0" x="0" id="text-entity-BOOK-12b90bf2-7af7-5ded-a124-d6647c4b972e-attr-4-name" class="er entityLabel">pages</text><rect height="22.091796875" width="22.458333333333332" y="90.27539348602295" x="77.54166666666667" class="er attributeBoxEven"/><text style="dominant-baseline: middle; font-size: 10.2px;" transform="translate(82.54166666666667,101.32129192352295)" y="0" x="0" id="text-entity-BOOK-12b90bf2-7af7-5ded-a124-d6647c4b972e-attr-4-key" class="er entityLabel"/></g><g transform="translate(206.703125,232.3671875 )" id="entity-LOAN-d7d358ec-057c-581e-be1f-23c7d50b1556"><rect height="90" width="133.109375" y="0" x="0" class="er entityBox"/><text style="dominant-baseline: middle; text-anchor: middle; font-size: 12px;" transform="translate(66.5546875,12)" y="0" x="0" id="text-entity-LOAN-d7d358ec-057c-581e-be1f-23c7d50b1556" class="er entityLabel">LOAN</text><rect height="22" width="51.640625" y="24" x="0" class="er attributeBoxOdd"/><text style="dominant-baseline: middle; font-size: 10.2px;" transform="translate(5,35)" y="0" x="0" id="text-entity-LOAN-d7d358ec-057c-581e-be1f-23c7d50b1556-attr-1-type" class="er entityLabel">int</text><rect height="22" width="59.90625" y="24" x="51.640625" class="er attributeBoxOdd"/><text style="dominant-baseline: middle; font-size: 10.2px;" transform="translate(56.640625,35)" y="0" x="0" id="text-entity-LOAN-d7d358ec-057c-581e-be1f-23c7d50b1556-attr-1-name" class="er entityLabel">loanID</text><rect height="22" width="21.5625" y="24" x="111.546875" class="er attributeBoxOdd"/><text style="dominant-baseline: middle; font-size: 10.2px;" transform="translate(116.546875,35)" y="0" x="0" id="text-entity-LOAN-d7d358ec-057c-581e-be1f-23c7d50b1556-attr-1-key" class="er entityLabel">PK</text><rect height="22" width="51.640625" y="46" x="0" class="er attributeBoxEven"/><text style="dominant-baseline: middle; font-size: 10.2px;" transform="translate(5,57)" y="0" x="0" id="text-entity-LOAN-d7d358ec-057c-581e-be1f-23c7d50b1556-attr-2-type" class="er entityLabel">datetime</text><rect height="22" width="59.90625" y="46" x="51.640625" class="er attributeBoxEven"/><text style="dominant-baseline: middle; font-size: 10.2px;" transform="translate(56.640625,57)" y="0" x="0" id="text-entity-LOAN-d7d358ec-057c-581e-be1f-23c7d50b1556-attr-2-name" class="er entityLabel">loanDate</text><rect height="22" width="21.5625" y="46" x="111.546875" class="er attributeBoxEven"/><text style="dominant-baseline: middle; font-size: 10.2px;" transform="translate(116.546875,57)" y="0" x="0" id="text-entity-LOAN-d7d358ec-057c-581e-be1f-23c7d50b1556-attr-2-key" class="er entityLabel"/><rect height="22" width="51.640625" y="68" x="0" class="er attributeBoxOdd"/><text style="dominant-baseline: middle; font-size: 10.2px;" transform="translate(5,79)" y="0" x="0" id="text-entity-LOAN-d7d358ec-057c-581e-be1f-23c7d50b1556-attr-3-type" class="er entityLabel">datetime</text><rect height="22" width="59.90625" y="68" x="51.640625" class="er attributeBoxOdd"/><text style="dominant-baseline: middle; font-size: 10.2px;" transform="translate(56.640625,79)" y="0" x="0" id="text-entity-LOAN-d7d358ec-057c-581e-be1f-23c7d50b1556-attr-3-name" class="er entityLabel">returnDate</text><rect height="22" width="21.5625" y="68" x="111.546875" class="er attributeBoxOdd"/><text style="dominant-baseline: middle; font-size: 10.2px;" transform="translate(116.546875,79)" y="0" x="0" id="text-entity-LOAN-d7d358ec-057c-581e-be1f-23c7d50b1556-attr-3-key" class="er entityLabel"/></g><g transform="translate(220,20 )" id="entity-PATRON-1da62b03-92d9-5695-b73f-a2c8912ee0b4"><rect height="112.36719131469727" width="106.515625" y="0" x="0" class="er entityBox"/><text style="dominant-baseline: middle; text-anchor: middle; font-size: 12px;" transform="translate(53.2578125,12)" y="0" x="0" id="text-entity-PATRON-1da62b03-92d9-5695-b73f-a2c8912ee0b4" class="er entityLabel">PATRON</text><rect height="22.091797828674316" width="35.75" y="24" x="0" class="er attributeBoxOdd"/><text style="dominant-baseline: middle; font-size: 10.2px;" transform="translate(5,35.04589891433716)" y="0" x="0" id="text-entity-PATRON-1da62b03-92d9-5695-b73f-a2c8912ee0b4-attr-1-type" class="er entityLabel">string</text><rect height="22.091797828674316" width="49.203125" y="24" x="35.75" class="er attributeBoxOdd"/><text style="dominant-baseline: middle; font-size: 10.2px;" transform="translate(40.75,35.04589891433716)" y="0" x="0" id="text-entity-PATRON-1da62b03-92d9-5695-b73f-a2c8912ee0b4-attr-1-name" class="er entityLabel">patronID</text><rect height="22.091797828674316" width="21.5625" y="24" x="84.953125" class="er attributeBoxOdd"/><text style="dominant-baseline: middle; font-size: 10.2px;" transform="translate(89.953125,35.04589891433716)" y="0" x="0" id="text-entity-PATRON-1da62b03-92d9-5695-b73f-a2c8912ee0b4-attr-1-key" class="er entityLabel">PK</text><rect height="22.091797828674316" width="35.75" y="46.091797828674316" x="0" class="er attributeBoxEven"/><text style="dominant-baseline: middle; font-size: 10.2px;" transform="translate(5,57.137696743011475)" y="0" x="0" id="text-entity-PATRON-1da62b03-92d9-5695-b73f-a2c8912ee0b4-attr-2-type" class="er entityLabel">string</text><rect height="22.091797828674316" width="49.203125" y="46.091797828674316" x="35.75" class="er attributeBoxEven"/><text style="dominant-baseline: middle; font-size: 10.2px;" transform="translate(40.75,57.137696743011475)" y="0" x="0" id="text-entity-PATRON-1da62b03-92d9-5695-b73f-a2c8912ee0b4-attr-2-name" class="er entityLabel">name</text><rect height="22.091797828674316" width="21.5625" y="46.091797828674316" x="84.953125" class="er attributeBoxEven"/><text style="dominant-baseline: middle; font-size: 10.2px;" transform="translate(89.953125,57.137696743011475)" y="0" x="0" id="text-entity-PATRON-1da62b03-92d9-5695-b73f-a2c8912ee0b4-attr-2-key" class="er entityLabel"/><rect height="22.091797828674316" width="35.75" y="68.18359565734863" x="0" class="er attributeBoxOdd"/><text style="dominant-baseline: middle; font-size: 10.2px;" transform="translate(5,79.22949457168579)" y="0" x="0" id="text-entity-PATRON-1da62b03-92d9-5695-b73f-a2c8912ee0b4-attr-3-type" class="er entityLabel">string</text><rect height="22.091797828674316" width="49.203125" y="68.18359565734863" x="35.75" class="er attributeBoxOdd"/><text style="dominant-baseline: middle; font-size: 10.2px;" transform="translate(40.75,79.22949457168579)" y="0" x="0" id="text-entity-PATRON-1da62b03-92d9-5695-b73f-a2c8912ee0b4-attr-3-name" class="er entityLabel">address</text><rect height="22.091797828674316" width="21.5625" y="68.18359565734863" x="84.953125" class="er attributeBoxOdd"/><text style="dominant-baseline: middle; font-size: 10.2px;" transform="translate(89.953125,79.22949457168579)" y="0" x="0" id="text-entity-PATRON-1da62b03-92d9-5695-b73f-a2c8912ee0b4-attr-3-key" class="er entityLabel"/><rect height="22.091797828674316" width="35.75" y="90.27539348602295" x="0" class="er attributeBoxEven"/><text style="dominant-baseline: middle; font-size: 10.2px;" transform="translate(5,101.32129240036011)" y="0" x="0" id="text-entity-PATRON-1da62b03-92d9-5695-b73f-a2c8912ee0b4-attr-4-type" class="er entityLabel">string</text><rect height="22.091797828674316" width="49.203125" y="90.27539348602295" x="35.75" class="er attributeBoxEven"/><text style="dominant-baseline: middle; font-size: 10.2px;" transform="translate(40.75,101.32129240036011)" y="0" x="0" id="text-entity-PATRON-1da62b03-92d9-5695-b73f-a2c8912ee0b4-attr-4-name" class="er entityLabel">email</text><rect height="22.091797828674316" width="21.5625" y="90.27539348602295" x="84.953125" class="er attributeBoxEven"/><text style="dominant-baseline: middle; font-size: 10.2px;" transform="translate(89.953125,101.32129240036011)" y="0" x="0" id="text-entity-PATRON-1da62b03-92d9-5695-b73f-a2c8912ee0b4-attr-4-key" class="er entityLabel"/></g><g transform="translate(426.515625,31.0458984375 )" id="entity-LIBRARIAN-9632771d-2f06-5b35-88ef-c1d12af82bcc"><rect height="90.27539348602295" width="121.265625" y="0" x="0" class="er entityBox"/><text style="dominant-baseline: middle; text-anchor: middle; font-size: 12px;" transform="translate(60.6328125,12)" y="0" x="0" id="text-entity-LIBRARIAN-9632771d-2f06-5b35-88ef-c1d12af82bcc" class="er entityLabel">LIBRARIAN</text><rect height="22.091797828674316" width="35.75" y="24" x="0" class="er attributeBoxOdd"/><text style="dominant-baseline: middle; font-size: 10.2px;" transform="translate(5,35.04589891433716)" y="0" x="0" id="text-entity-LIBRARIAN-9632771d-2f06-5b35-88ef-c1d12af82bcc-attr-1-type" class="er entityLabel">string</text><rect height="22.091797828674316" width="63.953125" y="24" x="35.75" class="er attributeBoxOdd"/><text style="dominant-baseline: middle; font-size: 10.2px;" transform="translate(40.75,35.04589891433716)" y="0" x="0" id="text-entity-LIBRARIAN-9632771d-2f06-5b35-88ef-c1d12af82bcc-attr-1-name" class="er entityLabel">librarianID</text><rect height="22.091797828674316" width="21.5625" y="24" x="99.703125" class="er attributeBoxOdd"/><text style="dominant-baseline: middle; font-size: 10.2px;" transform="translate(104.703125,35.04589891433716)" y="0" x="0" id="text-entity-LIBRARIAN-9632771d-2f06-5b35-88ef-c1d12af82bcc-attr-1-key" class="er entityLabel">PK</text><rect height="22.091797828674316" width="35.75" y="46.091797828674316" x="0" class="er attributeBoxEven"/><text style="dominant-baseline: middle; font-size: 10.2px;" transform="translate(5,57.137696743011475)" y="0" x="0" id="text-entity-LIBRARIAN-9632771d-2f06-5b35-88ef-c1d12af82bcc-attr-2-type" class="er entityLabel">string</text><rect height="22.091797828674316" width="63.953125" y="46.091797828674316" x="35.75" class="er attributeBoxEven"/><text style="dominant-baseline: middle; font-size: 10.2px;" transform="translate(40.75,57.137696743011475)" y="0" x="0" id="text-entity-LIBRARIAN-9632771d-2f06-5b35-88ef-c1d12af82bcc-attr-2-name" class="er entityLabel">name</text><rect height="22.091797828674316" width="21.5625" y="46.091797828674316" x="99.703125" class="er attributeBoxEven"/><text style="dominant-baseline: middle; font-size: 10.2px;" transform="translate(104.703125,57.137696743011475)" y="0" x="0" id="text-entity-LIBRARIAN-9632771d-2f06-5b35-88ef-c1d12af82bcc-attr-2-key" class="er entityLabel"/><rect height="22.091797828674316" width="35.75" y="68.18359565734863" x="0" class="er attributeBoxOdd"/><text style="dominant-baseline: middle; font-size: 10.2px;" transform="translate(5,79.22949457168579)" y="0" x="0" id="text-entity-LIBRARIAN-9632771d-2f06-5b35-88ef-c1d12af82bcc-attr-3-type" class="er entityLabel">string</text><rect height="22.091797828674316" width="63.953125" y="68.18359565734863" x="35.75" class="er attributeBoxOdd"/><text style="dominant-baseline: middle; font-size: 10.2px;" transform="translate(40.75,79.22949457168579)" y="0" x="0" id="text-entity-LIBRARIAN-9632771d-2f06-5b35-88ef-c1d12af82bcc-attr-3-name" class="er entityLabel">department</text><rect height="22.091797828674316" width="21.5625" y="68.18359565734863" x="99.703125" class="er attributeBoxOdd"/><text style="dominant-baseline: middle; font-size: 10.2px;" transform="translate(104.703125,79.22949457168579)" y="0" x="0" id="text-entity-LIBRARIAN-9632771d-2f06-5b35-88ef-c1d12af82bcc-attr-3-key" class="er entityLabel"/></g><rect height="14" width="8.28125" y="197.15550231933594" x="117.67731475830078" class="er relationshipLabelBox"/><text style="text-anchor: middle; dominant-baseline: middle; font-size: 12px;" y="204.15550231933594" x="121.81793975830078" id="rel1" class="er relationshipLabel">is</text><rect height="14" width="42.6875" y="175.36700439453125" x="251.91424560546875" class="er relationshipLabelBox"/><text style="text-anchor: middle; dominant-baseline: middle; font-size: 12px;" y="182.36700439453125" x="273.25799560546875" id="rel2" class="er relationshipLabel">borrows</text><rect height="14" width="46.5625" y="195.73782348632812" x="410.56671142578125" class="er relationshipLabelBox"/><text style="text-anchor: middle; dominant-baseline: middle; font-size: 12px;" y="202.73782348632812" x="433.84796142578125" id="rel3" class="er relationshipLabel">manages</text></svg>