<svg aria-roledescription="er" role="graphics-document document" viewBox="-128.86605072021484 0 575.1378784179688 832.91796875" style="max-width: 575.138px; background-color: white;" xmlns:xlink="http://www.w3.org/1999/xlink" xmlns="http://www.w3.org/2000/svg" width="100%" id="my-svg"><style>#my-svg{font-family:"trebuchet ms",verdana,arial,sans-serif;font-size:16px;fill:#333;}#my-svg .error-icon{fill:#552222;}#my-svg .error-text{fill:#552222;stroke:#552222;}#my-svg .edge-thickness-normal{stroke-width:1px;}#my-svg .edge-thickness-thick{stroke-width:3.5px;}#my-svg .edge-pattern-solid{stroke-dasharray:0;}#my-svg .edge-thickness-invisible{stroke-width:0;fill:none;}#my-svg .edge-pattern-dashed{stroke-dasharray:3;}#my-svg .edge-pattern-dotted{stroke-dasharray:2;}#my-svg .marker{fill:#333333;stroke:#333333;}#my-svg .marker.cross{stroke:#333333;}#my-svg svg{font-family:"trebuchet ms",verdana,arial,sans-serif;font-size:16px;}#my-svg p{margin:0;}#my-svg .entityBox{fill:#ECECFF;stroke:#9370DB;}#my-svg .attributeBoxOdd{fill:#ffffff;stroke:#9370DB;}#my-svg .attributeBoxEven{fill:#f2f2f2;stroke:#9370DB;}#my-svg .relationshipLabelBox{fill:hsl(80, 100%, 96.2745098039%);opacity:0.7;background-color:hsl(80, 100%, 96.2745098039%);}#my-svg .relationshipLabelBox rect{opacity:0.5;}#my-svg .relationshipLine{stroke:#333333;}#my-svg .entityTitleText{text-anchor:middle;font-size:18px;fill:#333;}#my-svg #MD_PARENT_START{fill:#f5f5f5!important;stroke:#333333!important;stroke-width:1;}#my-svg #MD_PARENT_END{fill:#f5f5f5!important;stroke:#333333!important;stroke-width:1;}#my-svg :root{--mermaid-font-family:"trebuchet ms",verdana,arial,sans-serif;}</style><g/><defs><marker orient="auto" markerHeight="240" markerWidth="190" refY="7" refX="0" id="MD_PARENT_START"><path d="M 18,7 L9,13 L1,7 L9,1 Z"/></marker></defs><defs><marker orient="auto" markerHeight="28" markerWidth="20" refY="7" refX="19" id="MD_PARENT_END"><path d="M 18,7 L9,13 L1,7 L9,1 Z"/></marker></defs><defs><marker orient="auto" markerHeight="18" markerWidth="18" refY="9" refX="0" id="ONLY_ONE_START"><path d="M9,0 L9,18 M15,0 L15,18" fill="none" stroke="gray"/></marker></defs><defs><marker orient="auto" markerHeight="18" markerWidth="18" refY="9" refX="18" id="ONLY_ONE_END"><path d="M3,0 L3,18 M9,0 L9,18" fill="none" stroke="gray"/></marker></defs><defs><marker orient="auto" markerHeight="18" markerWidth="30" refY="9" refX="0" id="ZERO_OR_ONE_START"><circle r="6" cy="9" cx="21" fill="white" stroke="gray"/><path d="M9,0 L9,18" fill="none" stroke="gray"/></marker></defs><defs><marker orient="auto" markerHeight="18" markerWidth="30" refY="9" refX="30" id="ZERO_OR_ONE_END"><circle r="6" cy="9" cx="9" fill="white" stroke="gray"/><path d="M21,0 L21,18" fill="none" stroke="gray"/></marker></defs><defs><marker orient="auto" markerHeight="36" markerWidth="45" refY="18" refX="18" id="ONE_OR_MORE_START"><path d="M0,18 Q 18,0 36,18 Q 18,36 0,18 M42,9 L42,27" fill="none" stroke="gray"/></marker></defs><defs><marker orient="auto" markerHeight="36" markerWidth="45" refY="18" refX="27" id="ONE_OR_MORE_END"><path d="M3,9 L3,27 M9,18 Q27,0 45,18 Q27,36 9,18" fill="none" stroke="gray"/></marker></defs><defs><marker orient="auto" markerHeight="36" markerWidth="57" refY="18" refX="18" id="ZERO_OR_MORE_START"><circle r="6" cy="18" cx="48" fill="white" stroke="gray"/><path d="M0,18 Q18,0 36,18 Q18,36 0,18" fill="none" stroke="gray"/></marker></defs><defs><marker orient="auto" markerHeight="36" markerWidth="57" refY="18" refX="39" id="ZERO_OR_MORE_END"><circle r="6" cy="18" cx="9" fill="white" stroke="gray"/><path d="M21,18 Q39,0 57,18 Q39,36 21,18" fill="none" stroke="gray"/></marker></defs><path style="stroke: gray; fill: none;" marker-start="url(#ONLY_ONE_START)" marker-end="url(#ONE_OR_MORE_END)" stroke-dasharray="8,8" d="M91.031,644.918L91.031,653.251C91.031,661.585,91.031,678.251,102.873,694.918C114.714,711.585,138.398,728.251,150.239,736.585L162.081,744.918" class="er relationshipLine"/><path style="stroke: gray; fill: none;" marker-start="url(#ONLY_ONE_START)" marker-end="url(#ONE_OR_MORE_END)" stroke-dasharray="8,8" d="M329.758,633.872L329.758,644.046C329.758,654.221,329.758,674.569,317.916,693.077C306.075,711.585,282.391,728.251,270.55,736.585L258.708,744.918" class="er relationshipLine"/><path style="stroke: gray; fill: none;" marker-start="url(#ONLY_ONE_START)" marker-end="url(#ONE_OR_MORE_END)" stroke-dasharray="8,8" d="M55.615,88.092L46.946,96.425C38.277,104.758,20.939,121.425,12.27,156.63C3.602,191.835,3.602,245.578,3.602,299.321C3.602,353.064,3.602,406.808,9.819,442.013C16.036,477.217,28.471,493.884,34.689,502.217L40.906,510.551" class="er relationshipLine"/><path style="stroke: gray; fill: none;" marker-start="url(#ONLY_ONE_START)" marker-end="url(#ONE_OR_MORE_END)" stroke-dasharray="8,8" d="M126.448,88.092L135.117,96.425C143.786,104.758,161.123,121.425,169.792,138.092C178.461,154.758,178.461,171.425,178.461,179.758L178.461,188.092" class="er relationshipLine"/><path style="stroke: gray; fill: none;" marker-start="url(#ONLY_ONE_START)" marker-end="url(#ONE_OR_MORE_END)" stroke-dasharray="8,8" d="M178.461,410.551L178.461,418.884C178.461,427.217,178.461,443.884,172.244,460.551C166.026,477.217,153.591,493.884,147.374,502.217L141.156,510.551" class="er relationshipLine"/><g transform="translate(20,510.55078125 )" id="entity-BOOKDETAILS-bf473a3b-59a4-59a1-8c5c-f0862eb23334"><rect height="134.36719131469727" width="142.0625" y="0" x="0" class="er entityBox"/><text style="dominant-baseline: middle; text-anchor: middle; font-size: 12px;" transform="translate(71.03125,12)" y="0" x="0" id="text-entity-BOOKDETAILS-bf473a3b-59a4-59a1-8c5c-f0862eb23334" class="er entityLabel">BOOKDETAILS</text><rect height="22" width="35.75" y="24" x="0" class="er attributeBoxOdd"/><text style="dominant-baseline: middle; font-size: 10.2px;" transform="translate(5,35)" y="0" x="0" id="text-entity-BOOKDETAILS-bf473a3b-59a4-59a1-8c5c-f0862eb23334-attr-1-type" class="er entityLabel">uuid</text><rect height="22" width="84.75" y="24" x="35.75" class="er attributeBoxOdd"/><text style="dominant-baseline: middle; font-size: 10.2px;" transform="translate(40.75,35)" y="0" x="0" id="text-entity-BOOKDETAILS-bf473a3b-59a4-59a1-8c5c-f0862eb23334-attr-1-name" class="er entityLabel">bookId</text><rect height="22" width="21.5625" y="24" x="120.5" class="er attributeBoxOdd"/><text style="dominant-baseline: middle; font-size: 10.2px;" transform="translate(125.5,35)" y="0" x="0" id="text-entity-BOOKDETAILS-bf473a3b-59a4-59a1-8c5c-f0862eb23334-attr-1-key" class="er entityLabel">PK</text><rect height="22.091797828674316" width="35.75" y="46" x="0" class="er attributeBoxEven"/><text style="dominant-baseline: middle; font-size: 10.2px;" transform="translate(5,57.04589891433716)" y="0" x="0" id="text-entity-BOOKDETAILS-bf473a3b-59a4-59a1-8c5c-f0862eb23334-attr-2-type" class="er entityLabel">string</text><rect height="22.091797828674316" width="84.75" y="46" x="35.75" class="er attributeBoxEven"/><text style="dominant-baseline: middle; font-size: 10.2px;" transform="translate(40.75,57.04589891433716)" y="0" x="0" id="text-entity-BOOKDETAILS-bf473a3b-59a4-59a1-8c5c-f0862eb23334-attr-2-name" class="er entityLabel">authorName</text><rect height="22.091797828674316" width="21.5625" y="46" x="120.5" class="er attributeBoxEven"/><text style="dominant-baseline: middle; font-size: 10.2px;" transform="translate(125.5,57.04589891433716)" y="0" x="0" id="text-entity-BOOKDETAILS-bf473a3b-59a4-59a1-8c5c-f0862eb23334-attr-2-key" class="er entityLabel"/><rect height="22.091797828674316" width="35.75" y="68.09179782867432" x="0" class="er attributeBoxOdd"/><text style="dominant-baseline: middle; font-size: 10.2px;" transform="translate(5,79.13769674301147)" y="0" x="0" id="text-entity-BOOKDETAILS-bf473a3b-59a4-59a1-8c5c-f0862eb23334-attr-3-type" class="er entityLabel">string</text><rect height="22.091797828674316" width="84.75" y="68.09179782867432" x="35.75" class="er attributeBoxOdd"/><text style="dominant-baseline: middle; font-size: 10.2px;" transform="translate(40.75,79.13769674301147)" y="0" x="0" id="text-entity-BOOKDETAILS-bf473a3b-59a4-59a1-8c5c-f0862eb23334-attr-3-name" class="er entityLabel">bookName</text><rect height="22.091797828674316" width="21.5625" y="68.09179782867432" x="120.5" class="er attributeBoxOdd"/><text style="dominant-baseline: middle; font-size: 10.2px;" transform="translate(125.5,79.13769674301147)" y="0" x="0" id="text-entity-BOOKDETAILS-bf473a3b-59a4-59a1-8c5c-f0862eb23334-attr-3-key" class="er entityLabel"/><rect height="22.091797828674316" width="35.75" y="90.18359565734863" x="0" class="er attributeBoxEven"/><text style="dominant-baseline: middle; font-size: 10.2px;" transform="translate(5,101.22949457168579)" y="0" x="0" id="text-entity-BOOKDETAILS-bf473a3b-59a4-59a1-8c5c-f0862eb23334-attr-4-type" class="er entityLabel">string</text><rect height="22.091797828674316" width="84.75" y="90.18359565734863" x="35.75" class="er attributeBoxEven"/><text style="dominant-baseline: middle; font-size: 10.2px;" transform="translate(40.75,101.22949457168579)" y="0" x="0" id="text-entity-BOOKDETAILS-bf473a3b-59a4-59a1-8c5c-f0862eb23334-attr-4-name" class="er entityLabel">shortDescription</text><rect height="22.091797828674316" width="21.5625" y="90.18359565734863" x="120.5" class="er attributeBoxEven"/><text style="dominant-baseline: middle; font-size: 10.2px;" transform="translate(125.5,101.22949457168579)" y="0" x="0" id="text-entity-BOOKDETAILS-bf473a3b-59a4-59a1-8c5c-f0862eb23334-attr-4-key" class="er entityLabel"/><rect height="22.091797828674316" width="35.75" y="112.27539348602295" x="0" class="er attributeBoxOdd"/><text style="dominant-baseline: middle; font-size: 10.2px;" transform="translate(5,123.32129240036011)" y="0" x="0" id="text-entity-BOOKDETAILS-bf473a3b-59a4-59a1-8c5c-f0862eb23334-attr-5-type" class="er entityLabel">string</text><rect height="22.091797828674316" width="84.75" y="112.27539348602295" x="35.75" class="er attributeBoxOdd"/><text style="dominant-baseline: middle; font-size: 10.2px;" transform="translate(40.75,123.32129240036011)" y="0" x="0" id="text-entity-BOOKDETAILS-bf473a3b-59a4-59a1-8c5c-f0862eb23334-attr-5-name" class="er entityLabel">review</text><rect height="22.091797828674316" width="21.5625" y="112.27539348602295" x="120.5" class="er attributeBoxOdd"/><text style="dominant-baseline: middle; font-size: 10.2px;" transform="translate(125.5,123.32129240036011)" y="0" x="0" id="text-entity-BOOKDETAILS-bf473a3b-59a4-59a1-8c5c-f0862eb23334-attr-5-key" class="er entityLabel"/></g><g transform="translate(155.19921875,744.91796875 )" id="entity-BOOKAUTHORS-64e5c79a-603b-5e08-86e1-0cc512d383c4"><rect height="68" width="110.390625" y="0" x="0" class="er entityBox"/><text style="dominant-baseline: middle; text-anchor: middle; font-size: 12px;" transform="translate(55.1953125,12)" y="0" x="0" id="text-entity-BOOKAUTHORS-64e5c79a-603b-5e08-86e1-0cc512d383c4" class="er entityLabel">BOOKAUTHORS</text><rect height="22" width="33.380208333333336" y="24" x="0" class="er attributeBoxOdd"/><text style="dominant-baseline: middle; font-size: 10.2px;" transform="translate(5,35)" y="0" x="0" id="text-entity-BOOKAUTHORS-64e5c79a-603b-5e08-86e1-0cc512d383c4-attr-1-type" class="er entityLabel">uuid</text><rect height="22" width="52.145833333333336" y="24" x="33.380208333333336" class="er attributeBoxOdd"/><text style="dominant-baseline: middle; font-size: 10.2px;" transform="translate(38.380208333333336,35)" y="0" x="0" id="text-entity-BOOKAUTHORS-64e5c79a-603b-5e08-86e1-0cc512d383c4-attr-1-name" class="er entityLabel">bookId</text><rect height="22" width="24.864583333333332" y="24" x="85.52604166666667" class="er attributeBoxOdd"/><text style="dominant-baseline: middle; font-size: 10.2px;" transform="translate(90.52604166666667,35)" y="0" x="0" id="text-entity-BOOKAUTHORS-64e5c79a-603b-5e08-86e1-0cc512d383c4-attr-1-key" class="er entityLabel">FK</text><rect height="22" width="33.380208333333336" y="46" x="0" class="er attributeBoxEven"/><text style="dominant-baseline: middle; font-size: 10.2px;" transform="translate(5,57)" y="0" x="0" id="text-entity-BOOKAUTHORS-64e5c79a-603b-5e08-86e1-0cc512d383c4-attr-2-type" class="er entityLabel">uuid</text><rect height="22" width="52.145833333333336" y="46" x="33.380208333333336" class="er attributeBoxEven"/><text style="dominant-baseline: middle; font-size: 10.2px;" transform="translate(38.380208333333336,57)" y="0" x="0" id="text-entity-BOOKAUTHORS-64e5c79a-603b-5e08-86e1-0cc512d383c4-attr-2-name" class="er entityLabel">authorId</text><rect height="22" width="24.864583333333332" y="46" x="85.52604166666667" class="er attributeBoxEven"/><text style="dominant-baseline: middle; font-size: 10.2px;" transform="translate(90.52604166666667,57)" y="0" x="0" id="text-entity-BOOKAUTHORS-64e5c79a-603b-5e08-86e1-0cc512d383c4-attr-2-key" class="er entityLabel">FK</text></g><g transform="translate(262.0625,521.5966796875 )" id="entity-AUTHORDETAILS-e3b443fd-6cd5-5148-b379-f51259f3c7c0"><rect height="112.27539348602295" width="135.390625" y="0" x="0" class="er entityBox"/><text style="dominant-baseline: middle; text-anchor: middle; font-size: 12px;" transform="translate(67.6953125,12)" y="0" x="0" id="text-entity-AUTHORDETAILS-e3b443fd-6cd5-5148-b379-f51259f3c7c0" class="er entityLabel">AUTHORDETAILS</text><rect height="22" width="35.75" y="24" x="0" class="er attributeBoxOdd"/><text style="dominant-baseline: middle; font-size: 10.2px;" transform="translate(5,35)" y="0" x="0" id="text-entity-AUTHORDETAILS-e3b443fd-6cd5-5148-b379-f51259f3c7c0-attr-1-type" class="er entityLabel">uuid</text><rect height="22" width="78.078125" y="24" x="35.75" class="er attributeBoxOdd"/><text style="dominant-baseline: middle; font-size: 10.2px;" transform="translate(40.75,35)" y="0" x="0" id="text-entity-AUTHORDETAILS-e3b443fd-6cd5-5148-b379-f51259f3c7c0-attr-1-name" class="er entityLabel">authorId</text><rect height="22" width="21.5625" y="24" x="113.828125" class="er attributeBoxOdd"/><text style="dominant-baseline: middle; font-size: 10.2px;" transform="translate(118.828125,35)" y="0" x="0" id="text-entity-AUTHORDETAILS-e3b443fd-6cd5-5148-b379-f51259f3c7c0-attr-1-key" class="er entityLabel">PK</text><rect height="22.091797828674316" width="35.75" y="46" x="0" class="er attributeBoxEven"/><text style="dominant-baseline: middle; font-size: 10.2px;" transform="translate(5,57.04589891433716)" y="0" x="0" id="text-entity-AUTHORDETAILS-e3b443fd-6cd5-5148-b379-f51259f3c7c0-attr-2-type" class="er entityLabel">string</text><rect height="22.091797828674316" width="78.078125" y="46" x="35.75" class="er attributeBoxEven"/><text style="dominant-baseline: middle; font-size: 10.2px;" transform="translate(40.75,57.04589891433716)" y="0" x="0" id="text-entity-AUTHORDETAILS-e3b443fd-6cd5-5148-b379-f51259f3c7c0-attr-2-name" class="er entityLabel">authorName</text><rect height="22.091797828674316" width="21.5625" y="46" x="113.828125" class="er attributeBoxEven"/><text style="dominant-baseline: middle; font-size: 10.2px;" transform="translate(118.828125,57.04589891433716)" y="0" x="0" id="text-entity-AUTHORDETAILS-e3b443fd-6cd5-5148-b379-f51259f3c7c0-attr-2-key" class="er entityLabel"/><rect height="22.091797828674316" width="35.75" y="68.09179782867432" x="0" class="er attributeBoxOdd"/><text style="dominant-baseline: middle; font-size: 10.2px;" transform="translate(5,79.13769674301147)" y="0" x="0" id="text-entity-AUTHORDETAILS-e3b443fd-6cd5-5148-b379-f51259f3c7c0-attr-3-type" class="er entityLabel">string</text><rect height="22.091797828674316" width="78.078125" y="68.09179782867432" x="35.75" class="er attributeBoxOdd"/><text style="dominant-baseline: middle; font-size: 10.2px;" transform="translate(40.75,79.13769674301147)" y="0" x="0" id="text-entity-AUTHORDETAILS-e3b443fd-6cd5-5148-b379-f51259f3c7c0-attr-3-name" class="er entityLabel">shortBiography</text><rect height="22.091797828674316" width="21.5625" y="68.09179782867432" x="113.828125" class="er attributeBoxOdd"/><text style="dominant-baseline: middle; font-size: 10.2px;" transform="translate(118.828125,79.13769674301147)" y="0" x="0" id="text-entity-AUTHORDETAILS-e3b443fd-6cd5-5148-b379-f51259f3c7c0-attr-3-key" class="er entityLabel"/><rect height="22.091797828674316" width="35.75" y="90.18359565734863" x="0" class="er attributeBoxEven"/><text style="dominant-baseline: middle; font-size: 10.2px;" transform="translate(5,101.22949457168579)" y="0" x="0" id="text-entity-AUTHORDETAILS-e3b443fd-6cd5-5148-b379-f51259f3c7c0-attr-4-type" class="er entityLabel">string</text><rect height="22.091797828674316" width="78.078125" y="90.18359565734863" x="35.75" class="er attributeBoxEven"/><text style="dominant-baseline: middle; font-size: 10.2px;" transform="translate(40.75,101.22949457168579)" y="0" x="0" id="text-entity-AUTHORDETAILS-e3b443fd-6cd5-5148-b379-f51259f3c7c0-attr-4-name" class="er entityLabel">imageId</text><rect height="22.091797828674316" width="21.5625" y="90.18359565734863" x="113.828125" class="er attributeBoxEven"/><text style="dominant-baseline: middle; font-size: 10.2px;" transform="translate(118.828125,101.22949457168579)" y="0" x="0" id="text-entity-AUTHORDETAILS-e3b443fd-6cd5-5148-b379-f51259f3c7c0-attr-4-key" class="er entityLabel"/></g><g transform="translate(30.3359375,20 )" id="entity-OWNER-139ddba4-5751-5d90-bf5b-08997eea3ac3"><rect height="68.09179782867432" width="121.390625" y="0" x="0" class="er entityBox"/><text style="dominant-baseline: middle; text-anchor: middle; font-size: 12px;" transform="translate(60.6953125,12)" y="0" x="0" id="text-entity-OWNER-139ddba4-5751-5d90-bf5b-08997eea3ac3" class="er entityLabel">OWNER</text><rect height="22" width="35.75" y="24" x="0" class="er attributeBoxOdd"/><text style="dominant-baseline: middle; font-size: 10.2px;" transform="translate(5,35)" y="0" x="0" id="text-entity-OWNER-139ddba4-5751-5d90-bf5b-08997eea3ac3-attr-1-type" class="er entityLabel">uuid</text><rect height="22" width="64.078125" y="24" x="35.75" class="er attributeBoxOdd"/><text style="dominant-baseline: middle; font-size: 10.2px;" transform="translate(40.75,35)" y="0" x="0" id="text-entity-OWNER-139ddba4-5751-5d90-bf5b-08997eea3ac3-attr-1-name" class="er entityLabel">ownerId</text><rect height="22" width="21.5625" y="24" x="99.828125" class="er attributeBoxOdd"/><text style="dominant-baseline: middle; font-size: 10.2px;" transform="translate(104.828125,35)" y="0" x="0" id="text-entity-OWNER-139ddba4-5751-5d90-bf5b-08997eea3ac3-attr-1-key" class="er entityLabel">PK</text><rect height="22.091797828674316" width="35.75" y="46" x="0" class="er attributeBoxEven"/><text style="dominant-baseline: middle; font-size: 10.2px;" transform="translate(5,57.04589891433716)" y="0" x="0" id="text-entity-OWNER-139ddba4-5751-5d90-bf5b-08997eea3ac3-attr-2-type" class="er entityLabel">string</text><rect height="22.091797828674316" width="64.078125" y="46" x="35.75" class="er attributeBoxEven"/><text style="dominant-baseline: middle; font-size: 10.2px;" transform="translate(40.75,57.04589891433716)" y="0" x="0" id="text-entity-OWNER-139ddba4-5751-5d90-bf5b-08997eea3ac3-attr-2-name" class="er entityLabel">ownerName</text><rect height="22.091797828674316" width="21.5625" y="46" x="99.828125" class="er attributeBoxEven"/><text style="dominant-baseline: middle; font-size: 10.2px;" transform="translate(104.828125,57.04589891433716)" y="0" x="0" id="text-entity-OWNER-139ddba4-5751-5d90-bf5b-08997eea3ac3-attr-2-key" class="er entityLabel"/></g><g transform="translate(103.6015625,188.091796875 )" id="entity-LOCATION-ee6c233d-8827-5635-889e-70a56078e32c"><rect height="222.45898914337158" width="149.71875" y="0" x="0" class="er entityBox"/><text style="dominant-baseline: middle; text-anchor: middle; font-size: 12px;" transform="translate(74.859375,12)" y="0" x="0" id="text-entity-LOCATION-ee6c233d-8827-5635-889e-70a56078e32c" class="er entityLabel">LOCATION</text><rect height="22" width="35.75" y="24" x="0" class="er attributeBoxOdd"/><text style="dominant-baseline: middle; font-size: 10.2px;" transform="translate(5,35)" y="0" x="0" id="text-entity-LOCATION-ee6c233d-8827-5635-889e-70a56078e32c-attr-1-type" class="er entityLabel">uuid</text><rect height="22" width="92.40625" y="24" x="35.75" class="er attributeBoxOdd"/><text style="dominant-baseline: middle; font-size: 10.2px;" transform="translate(40.75,35)" y="0" x="0" id="text-entity-LOCATION-ee6c233d-8827-5635-889e-70a56078e32c-attr-1-name" class="er entityLabel">locationId</text><rect height="22" width="21.5625" y="24" x="128.15625" class="er attributeBoxOdd"/><text style="dominant-baseline: middle; font-size: 10.2px;" transform="translate(133.15625,35)" y="0" x="0" id="text-entity-LOCATION-ee6c233d-8827-5635-889e-70a56078e32c-attr-1-key" class="er entityLabel">PK</text><rect height="22.091797828674316" width="35.75" y="46" x="0" class="er attributeBoxEven"/><text style="dominant-baseline: middle; font-size: 10.2px;" transform="translate(5,57.04589891433716)" y="0" x="0" id="text-entity-LOCATION-ee6c233d-8827-5635-889e-70a56078e32c-attr-2-type" class="er entityLabel">string</text><rect height="22.091797828674316" width="92.40625" y="46" x="35.75" class="er attributeBoxEven"/><text style="dominant-baseline: middle; font-size: 10.2px;" transform="translate(40.75,57.04589891433716)" y="0" x="0" id="text-entity-LOCATION-ee6c233d-8827-5635-889e-70a56078e32c-attr-2-name" class="er entityLabel">country</text><rect height="22.091797828674316" width="21.5625" y="46" x="128.15625" class="er attributeBoxEven"/><text style="dominant-baseline: middle; font-size: 10.2px;" transform="translate(133.15625,57.04589891433716)" y="0" x="0" id="text-entity-LOCATION-ee6c233d-8827-5635-889e-70a56078e32c-attr-2-key" class="er entityLabel"/><rect height="22.091797828674316" width="35.75" y="68.09179782867432" x="0" class="er attributeBoxOdd"/><text style="dominant-baseline: middle; font-size: 10.2px;" transform="translate(5,79.13769674301147)" y="0" x="0" id="text-entity-LOCATION-ee6c233d-8827-5635-889e-70a56078e32c-attr-3-type" class="er entityLabel">string</text><rect height="22.091797828674316" width="92.40625" y="68.09179782867432" x="35.75" class="er attributeBoxOdd"/><text style="dominant-baseline: middle; font-size: 10.2px;" transform="translate(40.75,79.13769674301147)" y="0" x="0" id="text-entity-LOCATION-ee6c233d-8827-5635-889e-70a56078e32c-attr-3-name" class="er entityLabel">state</text><rect height="22.091797828674316" width="21.5625" y="68.09179782867432" x="128.15625" class="er attributeBoxOdd"/><text style="dominant-baseline: middle; font-size: 10.2px;" transform="translate(133.15625,79.13769674301147)" y="0" x="0" id="text-entity-LOCATION-ee6c233d-8827-5635-889e-70a56078e32c-attr-3-key" class="er entityLabel"/><rect height="22.091797828674316" width="35.75" y="90.18359565734863" x="0" class="er attributeBoxEven"/><text style="dominant-baseline: middle; font-size: 10.2px;" transform="translate(5,101.22949457168579)" y="0" x="0" id="text-entity-LOCATION-ee6c233d-8827-5635-889e-70a56078e32c-attr-4-type" class="er entityLabel">string</text><rect height="22.091797828674316" width="92.40625" y="90.18359565734863" x="35.75" class="er attributeBoxEven"/><text style="dominant-baseline: middle; font-size: 10.2px;" transform="translate(40.75,101.22949457168579)" y="0" x="0" id="text-entity-LOCATION-ee6c233d-8827-5635-889e-70a56078e32c-attr-4-name" class="er entityLabel">city</text><rect height="22.091797828674316" width="21.5625" y="90.18359565734863" x="128.15625" class="er attributeBoxEven"/><text style="dominant-baseline: middle; font-size: 10.2px;" transform="translate(133.15625,101.22949457168579)" y="0" x="0" id="text-entity-LOCATION-ee6c233d-8827-5635-889e-70a56078e32c-attr-4-key" class="er entityLabel"/><rect height="22.091797828674316" width="35.75" y="112.27539348602295" x="0" class="er attributeBoxOdd"/><text style="dominant-baseline: middle; font-size: 10.2px;" transform="translate(5,123.32129240036011)" y="0" x="0" id="text-entity-LOCATION-ee6c233d-8827-5635-889e-70a56078e32c-attr-5-type" class="er entityLabel">string</text><rect height="22.091797828674316" width="92.40625" y="112.27539348602295" x="35.75" class="er attributeBoxOdd"/><text style="dominant-baseline: middle; font-size: 10.2px;" transform="translate(40.75,123.32129240036011)" y="0" x="0" id="text-entity-LOCATION-ee6c233d-8827-5635-889e-70a56078e32c-attr-5-name" class="er entityLabel">street</text><rect height="22.091797828674316" width="21.5625" y="112.27539348602295" x="128.15625" class="er attributeBoxOdd"/><text style="dominant-baseline: middle; font-size: 10.2px;" transform="translate(133.15625,123.32129240036011)" y="0" x="0" id="text-entity-LOCATION-ee6c233d-8827-5635-889e-70a56078e32c-attr-5-key" class="er entityLabel"/><rect height="22" width="35.75" y="134.36719131469727" x="0" class="er attributeBoxEven"/><text style="dominant-baseline: middle; font-size: 10.2px;" transform="translate(5,145.36719131469727)" y="0" x="0" id="text-entity-LOCATION-ee6c233d-8827-5635-889e-70a56078e32c-attr-6-type" class="er entityLabel">int</text><rect height="22" width="92.40625" y="134.36719131469727" x="35.75" class="er attributeBoxEven"/><text style="dominant-baseline: middle; font-size: 10.2px;" transform="translate(40.75,145.36719131469727)" y="0" x="0" id="text-entity-LOCATION-ee6c233d-8827-5635-889e-70a56078e32c-attr-6-name" class="er entityLabel">houseNumber</text><rect height="22" width="21.5625" y="134.36719131469727" x="128.15625" class="er attributeBoxEven"/><text style="dominant-baseline: middle; font-size: 10.2px;" transform="translate(133.15625,145.36719131469727)" y="0" x="0" id="text-entity-LOCATION-ee6c233d-8827-5635-889e-70a56078e32c-attr-6-key" class="er entityLabel"/><rect height="22" width="35.75" y="156.36719131469727" x="0" class="er attributeBoxOdd"/><text style="dominant-baseline: middle; font-size: 10.2px;" transform="translate(5,167.36719131469727)" y="0" x="0" id="text-entity-LOCATION-ee6c233d-8827-5635-889e-70a56078e32c-attr-7-type" class="er entityLabel">int</text><rect height="22" width="92.40625" y="156.36719131469727" x="35.75" class="er attributeBoxOdd"/><text style="dominant-baseline: middle; font-size: 10.2px;" transform="translate(40.75,167.36719131469727)" y="0" x="0" id="text-entity-LOCATION-ee6c233d-8827-5635-889e-70a56078e32c-attr-7-name" class="er entityLabel">floor</text><rect height="22" width="21.5625" y="156.36719131469727" x="128.15625" class="er attributeBoxOdd"/><text style="dominant-baseline: middle; font-size: 10.2px;" transform="translate(133.15625,167.36719131469727)" y="0" x="0" id="text-entity-LOCATION-ee6c233d-8827-5635-889e-70a56078e32c-attr-7-key" class="er entityLabel"/><rect height="22" width="35.75" y="178.36719131469727" x="0" class="er attributeBoxEven"/><text style="dominant-baseline: middle; font-size: 10.2px;" transform="translate(5,189.36719131469727)" y="0" x="0" id="text-entity-LOCATION-ee6c233d-8827-5635-889e-70a56078e32c-attr-8-type" class="er entityLabel">int</text><rect height="22" width="92.40625" y="178.36719131469727" x="35.75" class="er attributeBoxEven"/><text style="dominant-baseline: middle; font-size: 10.2px;" transform="translate(40.75,189.36719131469727)" y="0" x="0" id="text-entity-LOCATION-ee6c233d-8827-5635-889e-70a56078e32c-attr-8-name" class="er entityLabel">room</text><rect height="22" width="21.5625" y="178.36719131469727" x="128.15625" class="er attributeBoxEven"/><text style="dominant-baseline: middle; font-size: 10.2px;" transform="translate(133.15625,189.36719131469727)" y="0" x="0" id="text-entity-LOCATION-ee6c233d-8827-5635-889e-70a56078e32c-attr-8-key" class="er entityLabel"/><rect height="22.091797828674316" width="35.75" y="200.36719131469727" x="0" class="er attributeBoxOdd"/><text style="dominant-baseline: middle; font-size: 10.2px;" transform="translate(5,211.41309022903442)" y="0" x="0" id="text-entity-LOCATION-ee6c233d-8827-5635-889e-70a56078e32c-attr-9-type" class="er entityLabel">string</text><rect height="22.091797828674316" width="92.40625" y="200.36719131469727" x="35.75" class="er attributeBoxOdd"/><text style="dominant-baseline: middle; font-size: 10.2px;" transform="translate(40.75,211.41309022903442)" y="0" x="0" id="text-entity-LOCATION-ee6c233d-8827-5635-889e-70a56078e32c-attr-9-name" class="er entityLabel">locationNickName</text><rect height="22.091797828674316" width="21.5625" y="200.36719131469727" x="128.15625" class="er attributeBoxOdd"/><text style="dominant-baseline: middle; font-size: 10.2px;" transform="translate(133.15625,211.41309022903442)" y="0" x="0" id="text-entity-LOCATION-ee6c233d-8827-5635-889e-70a56078e32c-attr-9-key" class="er entityLabel"/></g><rect height="14" width="227.078125" y="697.65185546875" x="-2.5202407836914062" class="er relationshipLabelBox"/><text style="text-anchor: middle; dominant-baseline: middle; font-size: 12px;" y="704.65185546875" x="111.0188217163086" id="rel1" class="er relationshipLabel">One book can map to one or more authors</text><rect height="14" width="227.1875" y="693.275390625" x="199.08428955078125" class="er relationshipLabelBox"/><text style="text-anchor: middle; dominant-baseline: middle; font-size: 12px;" y="700.275390625" x="312.67803955078125" id="rel2" class="er relationshipLabel">One Author can map to one or more books</text><rect height="14" width="224.9375" y="289.008544921875" x="-108.86605405807495" class="er relationshipLabelBox"/><text style="text-anchor: middle; dominant-baseline: middle; font-size: 12px;" y="296.008544921875" x="3.602695941925049" id="rel3" class="er relationshipLabel">One owner can map to one or more books</text><rect height="14" width="237.859375" y="124.56568908691406" x="47.0511474609375" class="er relationshipLabelBox"/><text style="text-anchor: middle; dominant-baseline: middle; font-size: 12px;" y="131.56568908691406" x="165.9808349609375" id="rel4" class="er relationshipLabel">One owner can map to one or more location</text><rect height="14" width="247.46875" y="457.4407043457031" x="46.94969177246094" class="er relationshipLabelBox"/><text style="text-anchor: middle; dominant-baseline: middle; font-size: 12px;" y="464.4407043457031" x="170.68406677246094" id="rel5" class="er relationshipLabel">One Location Maps to manyone or more books</text></svg>