<svg aria-roledescription="er" role="graphics-document document" viewBox="0 0 540.16015625 709.009765625" style="max-width: 540.16px; background-color: white;" xmlns:xlink="http://www.w3.org/1999/xlink" xmlns="http://www.w3.org/2000/svg" width="100%" id="my-svg"><style>#my-svg{font-family:"trebuchet ms",verdana,arial,sans-serif;font-size:16px;fill:#333;}#my-svg .error-icon{fill:#552222;}#my-svg .error-text{fill:#552222;stroke:#552222;}#my-svg .edge-thickness-normal{stroke-width:1px;}#my-svg .edge-thickness-thick{stroke-width:3.5px;}#my-svg .edge-pattern-solid{stroke-dasharray:0;}#my-svg .edge-thickness-invisible{stroke-width:0;fill:none;}#my-svg .edge-pattern-dashed{stroke-dasharray:3;}#my-svg .edge-pattern-dotted{stroke-dasharray:2;}#my-svg .marker{fill:#333333;stroke:#333333;}#my-svg .marker.cross{stroke:#333333;}#my-svg svg{font-family:"trebuchet ms",verdana,arial,sans-serif;font-size:16px;}#my-svg p{margin:0;}#my-svg .entityBox{fill:#ECECFF;stroke:#9370DB;}#my-svg .attributeBoxOdd{fill:#ffffff;stroke:#9370DB;}#my-svg .attributeBoxEven{fill:#f2f2f2;stroke:#9370DB;}#my-svg .relationshipLabelBox{fill:hsl(80, 100%, 96.2745098039%);opacity:0.7;background-color:hsl(80, 100%, 96.2745098039%);}#my-svg .relationshipLabelBox rect{opacity:0.5;}#my-svg .relationshipLine{stroke:#333333;}#my-svg .entityTitleText{text-anchor:middle;font-size:18px;fill:#333;}#my-svg #MD_PARENT_START{fill:#f5f5f5!important;stroke:#333333!important;stroke-width:1;}#my-svg #MD_PARENT_END{fill:#f5f5f5!important;stroke:#333333!important;stroke-width:1;}#my-svg :root{--mermaid-font-family:"trebuchet ms",verdana,arial,sans-serif;}</style><g/><defs><marker orient="auto" markerHeight="240" markerWidth="190" refY="7" refX="0" id="MD_PARENT_START"><path d="M 18,7 L9,13 L1,7 L9,1 Z"/></marker></defs><defs><marker orient="auto" markerHeight="28" markerWidth="20" refY="7" refX="19" id="MD_PARENT_END"><path d="M 18,7 L9,13 L1,7 L9,1 Z"/></marker></defs><defs><marker orient="auto" markerHeight="18" markerWidth="18" refY="9" refX="0" id="ONLY_ONE_START"><path d="M9,0 L9,18 M15,0 L15,18" fill="none" stroke="gray"/></marker></defs><defs><marker orient="auto" markerHeight="18" markerWidth="18" refY="9" refX="18" id="ONLY_ONE_END"><path d="M3,0 L3,18 M9,0 L9,18" fill="none" stroke="gray"/></marker></defs><defs><marker orient="auto" markerHeight="18" markerWidth="30" refY="9" refX="0" id="ZERO_OR_ONE_START"><circle r="6" cy="9" cx="21" fill="white" stroke="gray"/><path d="M9,0 L9,18" fill="none" stroke="gray"/></marker></defs><defs><marker orient="auto" markerHeight="18" markerWidth="30" refY="9" refX="30" id="ZERO_OR_ONE_END"><circle r="6" cy="9" cx="9" fill="white" stroke="gray"/><path d="M21,0 L21,18" fill="none" stroke="gray"/></marker></defs><defs><marker orient="auto" markerHeight="36" markerWidth="45" refY="18" refX="18" id="ONE_OR_MORE_START"><path d="M0,18 Q 18,0 36,18 Q 18,36 0,18 M42,9 L42,27" fill="none" stroke="gray"/></marker></defs><defs><marker orient="auto" markerHeight="36" markerWidth="45" refY="18" refX="27" id="ONE_OR_MORE_END"><path d="M3,9 L3,27 M9,18 Q27,0 45,18 Q27,36 9,18" fill="none" stroke="gray"/></marker></defs><defs><marker orient="auto" markerHeight="36" markerWidth="57" refY="18" refX="18" id="ZERO_OR_MORE_START"><circle r="6" cy="18" cx="48" fill="white" stroke="gray"/><path d="M0,18 Q18,0 36,18 Q18,36 0,18" fill="none" stroke="gray"/></marker></defs><defs><marker orient="auto" markerHeight="36" markerWidth="57" refY="18" refX="39" id="ZERO_OR_MORE_END"><circle r="6" cy="18" cx="9" fill="white" stroke="gray"/><path d="M21,18 Q39,0 57,18 Q39,36 21,18" fill="none" stroke="gray"/></marker></defs><path style="stroke: gray; fill: none;" marker-start="url(#ONLY_ONE_START)" marker-end="url(#ZERO_OR_MORE_END)" d="M307.645,415.194L299.005,426.451C290.365,437.707,273.085,460.221,254.07,482.626C235.055,505.031,214.305,527.327,203.93,538.476L193.555,549.624" class="er relationshipLine"/><path style="stroke: gray; fill: none;" marker-start="url(#ONLY_ONE_START)" marker-end="url(#ONLY_ONE_END)" d="M414.088,432.734L416.672,441.068C419.256,449.401,424.423,466.068,427.006,484.56C429.59,503.052,429.59,523.37,429.59,533.529L429.59,543.688" class="er relationshipLine"/><path style="stroke: gray; fill: none;" marker-start="url(#ONLY_ONE_START)" marker-end="url(#ZERO_OR_MORE_END)" d="M379.59,110.184L379.59,118.517C379.59,126.85,379.59,143.517,379.59,160.184C379.59,176.85,379.59,193.517,379.59,201.85L379.59,210.184" class="er relationshipLine"/><path style="stroke: gray; fill: none;" marker-start="url(#ONLY_ONE_START)" marker-end="url(#ZERO_OR_MORE_END)" d="M86.555,377.643L86.555,395.158C86.555,412.673,86.555,447.704,89.806,473.552C93.058,499.401,99.562,516.068,102.813,524.401L106.065,532.734" class="er relationshipLine"/><g transform="translate(307.64453125,210.18359375 )" id="entity-ORDERS-892fdbd0-1a6d-547f-b5d2-5ca9e20e885e"><rect height="222.55078315734863" width="143.890625" y="0" x="0" class="er entityBox"/><text style="dominant-baseline: middle; text-anchor: middle; font-size: 12px;" transform="translate(71.9453125,12)" y="0" x="0" id="text-entity-ORDERS-892fdbd0-1a6d-547f-b5d2-5ca9e20e885e" class="er entityLabel">ORDERS</text><rect height="22" width="35.75" y="24" x="0" class="er attributeBoxOdd"/><text style="dominant-baseline: middle; font-size: 10.2px;" transform="translate(5,35)" y="0" x="0" id="text-entity-ORDERS-892fdbd0-1a6d-547f-b5d2-5ca9e20e885e-attr-1-type" class="er entityLabel">int</text><rect height="22" width="86.578125" y="24" x="35.75" class="er attributeBoxOdd"/><text style="dominant-baseline: middle; font-size: 10.2px;" transform="translate(40.75,35)" y="0" x="0" id="text-entity-ORDERS-892fdbd0-1a6d-547f-b5d2-5ca9e20e885e-attr-1-name" class="er entityLabel">order_id</text><rect height="22" width="21.5625" y="24" x="122.328125" class="er attributeBoxOdd"/><text style="dominant-baseline: middle; font-size: 10.2px;" transform="translate(127.328125,35)" y="0" x="0" id="text-entity-ORDERS-892fdbd0-1a6d-547f-b5d2-5ca9e20e885e-attr-1-key" class="er entityLabel">PK</text><rect height="22" width="35.75" y="46" x="0" class="er attributeBoxEven"/><text style="dominant-baseline: middle; font-size: 10.2px;" transform="translate(5,57)" y="0" x="0" id="text-entity-ORDERS-892fdbd0-1a6d-547f-b5d2-5ca9e20e885e-attr-2-type" class="er entityLabel">date</text><rect height="22" width="86.578125" y="46" x="35.75" class="er attributeBoxEven"/><text style="dominant-baseline: middle; font-size: 10.2px;" transform="translate(40.75,57)" y="0" x="0" id="text-entity-ORDERS-892fdbd0-1a6d-547f-b5d2-5ca9e20e885e-attr-2-name" class="er entityLabel">order_date</text><rect height="22" width="21.5625" y="46" x="122.328125" class="er attributeBoxEven"/><text style="dominant-baseline: middle; font-size: 10.2px;" transform="translate(127.328125,57)" y="0" x="0" id="text-entity-ORDERS-892fdbd0-1a6d-547f-b5d2-5ca9e20e885e-attr-2-key" class="er entityLabel"/><rect height="22.091796875" width="35.75" y="68" x="0" class="er attributeBoxOdd"/><text style="dominant-baseline: middle; font-size: 10.2px;" transform="translate(5,79.0458984375)" y="0" x="0" id="text-entity-ORDERS-892fdbd0-1a6d-547f-b5d2-5ca9e20e885e-attr-3-type" class="er entityLabel">date</text><rect height="22.091796875" width="86.578125" y="68" x="35.75" class="er attributeBoxOdd"/><text style="dominant-baseline: middle; font-size: 10.2px;" transform="translate(40.75,79.0458984375)" y="0" x="0" id="text-entity-ORDERS-892fdbd0-1a6d-547f-b5d2-5ca9e20e885e-attr-3-name" class="er entityLabel">ship_date</text><rect height="22.091796875" width="21.5625" y="68" x="122.328125" class="er attributeBoxOdd"/><text style="dominant-baseline: middle; font-size: 10.2px;" transform="translate(127.328125,79.0458984375)" y="0" x="0" id="text-entity-ORDERS-892fdbd0-1a6d-547f-b5d2-5ca9e20e885e-attr-3-key" class="er entityLabel"/><rect height="22.091797828674316" width="35.75" y="90.091796875" x="0" class="er attributeBoxEven"/><text style="dominant-baseline: middle; font-size: 10.2px;" transform="translate(5,101.13769578933716)" y="0" x="0" id="text-entity-ORDERS-892fdbd0-1a6d-547f-b5d2-5ca9e20e885e-attr-4-type" class="er entityLabel">string</text><rect height="22.091797828674316" width="86.578125" y="90.091796875" x="35.75" class="er attributeBoxEven"/><text style="dominant-baseline: middle; font-size: 10.2px;" transform="translate(40.75,101.13769578933716)" y="0" x="0" id="text-entity-ORDERS-892fdbd0-1a6d-547f-b5d2-5ca9e20e885e-attr-4-name" class="er entityLabel">ship_mode</text><rect height="22.091797828674316" width="21.5625" y="90.091796875" x="122.328125" class="er attributeBoxEven"/><text style="dominant-baseline: middle; font-size: 10.2px;" transform="translate(127.328125,101.13769578933716)" y="0" x="0" id="text-entity-ORDERS-892fdbd0-1a6d-547f-b5d2-5ca9e20e885e-attr-4-key" class="er entityLabel"/><rect height="22" width="35.75" y="112.18359470367432" x="0" class="er attributeBoxOdd"/><text style="dominant-baseline: middle; font-size: 10.2px;" transform="translate(5,123.18359470367432)" y="0" x="0" id="text-entity-ORDERS-892fdbd0-1a6d-547f-b5d2-5ca9e20e885e-attr-5-type" class="er entityLabel">int</text><rect height="22" width="86.578125" y="112.18359470367432" x="35.75" class="er attributeBoxOdd"/><text style="dominant-baseline: middle; font-size: 10.2px;" transform="translate(40.75,123.18359470367432)" y="0" x="0" id="text-entity-ORDERS-892fdbd0-1a6d-547f-b5d2-5ca9e20e885e-attr-5-name" class="er entityLabel">customer_id</text><rect height="22" width="21.5625" y="112.18359470367432" x="122.328125" class="er attributeBoxOdd"/><text style="dominant-baseline: middle; font-size: 10.2px;" transform="translate(127.328125,123.18359470367432)" y="0" x="0" id="text-entity-ORDERS-892fdbd0-1a6d-547f-b5d2-5ca9e20e885e-attr-5-key" class="er entityLabel">FK</text><rect height="22.091797828674316" width="35.75" y="134.18359470367432" x="0" class="er attributeBoxEven"/><text style="dominant-baseline: middle; font-size: 10.2px;" transform="translate(5,145.22949361801147)" y="0" x="0" id="text-entity-ORDERS-892fdbd0-1a6d-547f-b5d2-5ca9e20e885e-attr-6-type" class="er entityLabel">string</text><rect height="22.091797828674316" width="86.578125" y="134.18359470367432" x="35.75" class="er attributeBoxEven"/><text style="dominant-baseline: middle; font-size: 10.2px;" transform="translate(40.75,145.22949361801147)" y="0" x="0" id="text-entity-ORDERS-892fdbd0-1a6d-547f-b5d2-5ca9e20e885e-attr-6-name" class="er entityLabel">delivery_address</text><rect height="22.091797828674316" width="21.5625" y="134.18359470367432" x="122.328125" class="er attributeBoxEven"/><text style="dominant-baseline: middle; font-size: 10.2px;" transform="translate(127.328125,145.22949361801147)" y="0" x="0" id="text-entity-ORDERS-892fdbd0-1a6d-547f-b5d2-5ca9e20e885e-attr-6-key" class="er entityLabel"/><rect height="22.091796875" width="35.75" y="156.27539253234863" x="0" class="er attributeBoxOdd"/><text style="dominant-baseline: middle; font-size: 10.2px;" transform="translate(5,167.32129096984863)" y="0" x="0" id="text-entity-ORDERS-892fdbd0-1a6d-547f-b5d2-5ca9e20e885e-attr-7-type" class="er entityLabel">float</text><rect height="22.091796875" width="86.578125" y="156.27539253234863" x="35.75" class="er attributeBoxOdd"/><text style="dominant-baseline: middle; font-size: 10.2px;" transform="translate(40.75,167.32129096984863)" y="0" x="0" id="text-entity-ORDERS-892fdbd0-1a6d-547f-b5d2-5ca9e20e885e-attr-7-name" class="er entityLabel">delivery_lat</text><rect height="22.091796875" width="21.5625" y="156.27539253234863" x="122.328125" class="er attributeBoxOdd"/><text style="dominant-baseline: middle; font-size: 10.2px;" transform="translate(127.328125,167.32129096984863)" y="0" x="0" id="text-entity-ORDERS-892fdbd0-1a6d-547f-b5d2-5ca9e20e885e-attr-7-key" class="er entityLabel"/><rect height="22.091796875" width="35.75" y="178.36718940734863" x="0" class="er attributeBoxEven"/><text style="dominant-baseline: middle; font-size: 10.2px;" transform="translate(5,189.41308784484863)" y="0" x="0" id="text-entity-ORDERS-892fdbd0-1a6d-547f-b5d2-5ca9e20e885e-attr-8-type" class="er entityLabel">float</text><rect height="22.091796875" width="86.578125" y="178.36718940734863" x="35.75" class="er attributeBoxEven"/><text style="dominant-baseline: middle; font-size: 10.2px;" transform="translate(40.75,189.41308784484863)" y="0" x="0" id="text-entity-ORDERS-892fdbd0-1a6d-547f-b5d2-5ca9e20e885e-attr-8-name" class="er entityLabel">delivery_lon</text><rect height="22.091796875" width="21.5625" y="178.36718940734863" x="122.328125" class="er attributeBoxEven"/><text style="dominant-baseline: middle; font-size: 10.2px;" transform="translate(127.328125,189.41308784484863)" y="0" x="0" id="text-entity-ORDERS-892fdbd0-1a6d-547f-b5d2-5ca9e20e885e-attr-8-key" class="er entityLabel"/><rect height="22.091796875" width="35.75" y="200.45898628234863" x="0" class="er attributeBoxOdd"/><text style="dominant-baseline: middle; font-size: 10.2px;" transform="translate(5,211.50488471984863)" y="0" x="0" id="text-entity-ORDERS-892fdbd0-1a6d-547f-b5d2-5ca9e20e885e-attr-9-type" class="er entityLabel">int</text><rect height="22.091796875" width="86.578125" y="200.45898628234863" x="35.75" class="er attributeBoxOdd"/><text style="dominant-baseline: middle; font-size: 10.2px;" transform="translate(40.75,211.50488471984863)" y="0" x="0" id="text-entity-ORDERS-892fdbd0-1a6d-547f-b5d2-5ca9e20e885e-attr-9-name" class="er entityLabel">delivery_h3</text><rect height="22.091796875" width="21.5625" y="200.45898628234863" x="122.328125" class="er attributeBoxOdd"/><text style="dominant-baseline: middle; font-size: 10.2px;" transform="translate(127.328125,211.50488471984863)" y="0" x="0" id="text-entity-ORDERS-892fdbd0-1a6d-547f-b5d2-5ca9e20e885e-attr-9-key" class="er entityLabel"/></g><g transform="translate(79.5546875,532.734375 )" id="entity-ORDERDETAILS-86a37542-8520-508f-92cc-e86384e046ee"><rect height="156.27539157867432" width="114" y="0" x="0" class="er entityBox"/><text style="dominant-baseline: middle; text-anchor: middle; font-size: 12px;" transform="translate(57,12)" y="0" x="0" id="text-entity-ORDERDETAILS-86a37542-8520-508f-92cc-e86384e046ee" class="er entityLabel">ORDER_DETAILS</text><rect height="22" width="32.21875" y="24" x="0" class="er attributeBoxOdd"/><text style="dominant-baseline: middle; font-size: 10.2px;" transform="translate(5,35)" y="0" x="0" id="text-entity-ORDERDETAILS-86a37542-8520-508f-92cc-e86384e046ee-attr-1-type" class="er entityLabel">int</text><rect height="22" width="59.984375" y="24" x="32.21875" class="er attributeBoxOdd"/><text style="dominant-baseline: middle; font-size: 10.2px;" transform="translate(37.21875,35)" y="0" x="0" id="text-entity-ORDERDETAILS-86a37542-8520-508f-92cc-e86384e046ee-attr-1-name" class="er entityLabel">order_id</text><rect height="22" width="21.796875" y="24" x="92.203125" class="er attributeBoxOdd"/><text style="dominant-baseline: middle; font-size: 10.2px;" transform="translate(97.203125,35)" y="0" x="0" id="text-entity-ORDERDETAILS-86a37542-8520-508f-92cc-e86384e046ee-attr-1-key" class="er entityLabel">FK</text><rect height="22.091796875" width="32.21875" y="46" x="0" class="er attributeBoxEven"/><text style="dominant-baseline: middle; font-size: 10.2px;" transform="translate(5,57.0458984375)" y="0" x="0" id="text-entity-ORDERDETAILS-86a37542-8520-508f-92cc-e86384e046ee-attr-2-type" class="er entityLabel">int</text><rect height="22.091796875" width="59.984375" y="46" x="32.21875" class="er attributeBoxEven"/><text style="dominant-baseline: middle; font-size: 10.2px;" transform="translate(37.21875,57.0458984375)" y="0" x="0" id="text-entity-ORDERDETAILS-86a37542-8520-508f-92cc-e86384e046ee-attr-2-name" class="er entityLabel">product_id</text><rect height="22.091796875" width="21.796875" y="46" x="92.203125" class="er attributeBoxEven"/><text style="dominant-baseline: middle; font-size: 10.2px;" transform="translate(97.203125,57.0458984375)" y="0" x="0" id="text-entity-ORDERDETAILS-86a37542-8520-508f-92cc-e86384e046ee-attr-2-key" class="er entityLabel">FK</text><rect height="22" width="32.21875" y="68.091796875" x="0" class="er attributeBoxOdd"/><text style="dominant-baseline: middle; font-size: 10.2px;" transform="translate(5,79.091796875)" y="0" x="0" id="text-entity-ORDERDETAILS-86a37542-8520-508f-92cc-e86384e046ee-attr-3-type" class="er entityLabel">float</text><rect height="22" width="59.984375" y="68.091796875" x="32.21875" class="er attributeBoxOdd"/><text style="dominant-baseline: middle; font-size: 10.2px;" transform="translate(37.21875,79.091796875)" y="0" x="0" id="text-entity-ORDERDETAILS-86a37542-8520-508f-92cc-e86384e046ee-attr-3-name" class="er entityLabel">sales</text><rect height="22" width="21.796875" y="68.091796875" x="92.203125" class="er attributeBoxOdd"/><text style="dominant-baseline: middle; font-size: 10.2px;" transform="translate(97.203125,79.091796875)" y="0" x="0" id="text-entity-ORDERDETAILS-86a37542-8520-508f-92cc-e86384e046ee-attr-3-key" class="er entityLabel"/><rect height="22.091797828674316" width="32.21875" y="90.091796875" x="0" class="er attributeBoxEven"/><text style="dominant-baseline: middle; font-size: 10.2px;" transform="translate(5,101.13769578933716)" y="0" x="0" id="text-entity-ORDERDETAILS-86a37542-8520-508f-92cc-e86384e046ee-attr-4-type" class="er entityLabel">int</text><rect height="22.091797828674316" width="59.984375" y="90.091796875" x="32.21875" class="er attributeBoxEven"/><text style="dominant-baseline: middle; font-size: 10.2px;" transform="translate(37.21875,101.13769578933716)" y="0" x="0" id="text-entity-ORDERDETAILS-86a37542-8520-508f-92cc-e86384e046ee-attr-4-name" class="er entityLabel">quantity</text><rect height="22.091797828674316" width="21.796875" y="90.091796875" x="92.203125" class="er attributeBoxEven"/><text style="dominant-baseline: middle; font-size: 10.2px;" transform="translate(97.203125,101.13769578933716)" y="0" x="0" id="text-entity-ORDERDETAILS-86a37542-8520-508f-92cc-e86384e046ee-attr-4-key" class="er entityLabel"/><rect height="22" width="32.21875" y="112.18359470367432" x="0" class="er attributeBoxOdd"/><text style="dominant-baseline: middle; font-size: 10.2px;" transform="translate(5,123.18359470367432)" y="0" x="0" id="text-entity-ORDERDETAILS-86a37542-8520-508f-92cc-e86384e046ee-attr-5-type" class="er entityLabel">float</text><rect height="22" width="59.984375" y="112.18359470367432" x="32.21875" class="er attributeBoxOdd"/><text style="dominant-baseline: middle; font-size: 10.2px;" transform="translate(37.21875,123.18359470367432)" y="0" x="0" id="text-entity-ORDERDETAILS-86a37542-8520-508f-92cc-e86384e046ee-attr-5-name" class="er entityLabel">discount</text><rect height="22" width="21.796875" y="112.18359470367432" x="92.203125" class="er attributeBoxOdd"/><text style="dominant-baseline: middle; font-size: 10.2px;" transform="translate(97.203125,123.18359470367432)" y="0" x="0" id="text-entity-ORDERDETAILS-86a37542-8520-508f-92cc-e86384e046ee-attr-5-key" class="er entityLabel"/><rect height="22.091796875" width="32.21875" y="134.18359470367432" x="0" class="er attributeBoxEven"/><text style="dominant-baseline: middle; font-size: 10.2px;" transform="translate(5,145.22949314117432)" y="0" x="0" id="text-entity-ORDERDETAILS-86a37542-8520-508f-92cc-e86384e046ee-attr-6-type" class="er entityLabel">float</text><rect height="22.091796875" width="59.984375" y="134.18359470367432" x="32.21875" class="er attributeBoxEven"/><text style="dominant-baseline: middle; font-size: 10.2px;" transform="translate(37.21875,145.22949314117432)" y="0" x="0" id="text-entity-ORDERDETAILS-86a37542-8520-508f-92cc-e86384e046ee-attr-6-name" class="er entityLabel">profit</text><rect height="22.091796875" width="21.796875" y="134.18359470367432" x="92.203125" class="er attributeBoxEven"/><text style="dominant-baseline: middle; font-size: 10.2px;" transform="translate(97.203125,145.22949314117432)" y="0" x="0" id="text-entity-ORDERDETAILS-86a37542-8520-508f-92cc-e86384e046ee-attr-6-key" class="er entityLabel"/></g><g transform="translate(339.01953125,543.6884765625 )" id="entity-DELIVERIES-8fb82aa9-aac4-5d9b-9df3-e9f82ed981cc"><rect height="134.36718845367432" width="181.140625" y="0" x="0" class="er entityBox"/><text style="dominant-baseline: middle; text-anchor: middle; font-size: 12px;" transform="translate(90.5703125,12)" y="0" x="0" id="text-entity-DELIVERIES-8fb82aa9-aac4-5d9b-9df3-e9f82ed981cc" class="er entityLabel">DELIVERIES</text><rect height="22.091796875" width="35.75" y="24" x="0" class="er attributeBoxOdd"/><text style="dominant-baseline: middle; font-size: 10.2px;" transform="translate(5,35.0458984375)" y="0" x="0" id="text-entity-DELIVERIES-8fb82aa9-aac4-5d9b-9df3-e9f82ed981cc-attr-1-type" class="er entityLabel">int</text><rect height="22.091796875" width="123.828125" y="24" x="35.75" class="er attributeBoxOdd"/><text style="dominant-baseline: middle; font-size: 10.2px;" transform="translate(40.75,35.0458984375)" y="0" x="0" id="text-entity-DELIVERIES-8fb82aa9-aac4-5d9b-9df3-e9f82ed981cc-attr-1-name" class="er entityLabel">delivery_id</text><rect height="22.091796875" width="21.5625" y="24" x="159.578125" class="er attributeBoxOdd"/><text style="dominant-baseline: middle; font-size: 10.2px;" transform="translate(164.578125,35.0458984375)" y="0" x="0" id="text-entity-DELIVERIES-8fb82aa9-aac4-5d9b-9df3-e9f82ed981cc-attr-1-key" class="er entityLabel">PK</text><rect height="22" width="35.75" y="46.091796875" x="0" class="er attributeBoxEven"/><text style="dominant-baseline: middle; font-size: 10.2px;" transform="translate(5,57.091796875)" y="0" x="0" id="text-entity-DELIVERIES-8fb82aa9-aac4-5d9b-9df3-e9f82ed981cc-attr-2-type" class="er entityLabel">int</text><rect height="22" width="123.828125" y="46.091796875" x="35.75" class="er attributeBoxEven"/><text style="dominant-baseline: middle; font-size: 10.2px;" transform="translate(40.75,57.091796875)" y="0" x="0" id="text-entity-DELIVERIES-8fb82aa9-aac4-5d9b-9df3-e9f82ed981cc-attr-2-name" class="er entityLabel">order_id</text><rect height="22" width="21.5625" y="46.091796875" x="159.578125" class="er attributeBoxEven"/><text style="dominant-baseline: middle; font-size: 10.2px;" transform="translate(164.578125,57.091796875)" y="0" x="0" id="text-entity-DELIVERIES-8fb82aa9-aac4-5d9b-9df3-e9f82ed981cc-attr-2-key" class="er entityLabel">FK</text><rect height="22.091796875" width="35.75" y="68.091796875" x="0" class="er attributeBoxOdd"/><text style="dominant-baseline: middle; font-size: 10.2px;" transform="translate(5,79.1376953125)" y="0" x="0" id="text-entity-DELIVERIES-8fb82aa9-aac4-5d9b-9df3-e9f82ed981cc-attr-3-type" class="er entityLabel">date</text><rect height="22.091796875" width="123.828125" y="68.091796875" x="35.75" class="er attributeBoxOdd"/><text style="dominant-baseline: middle; font-size: 10.2px;" transform="translate(40.75,79.1376953125)" y="0" x="0" id="text-entity-DELIVERIES-8fb82aa9-aac4-5d9b-9df3-e9f82ed981cc-attr-3-name" class="er entityLabel">estimated_delivery_date</text><rect height="22.091796875" width="21.5625" y="68.091796875" x="159.578125" class="er attributeBoxOdd"/><text style="dominant-baseline: middle; font-size: 10.2px;" transform="translate(164.578125,79.1376953125)" y="0" x="0" id="text-entity-DELIVERIES-8fb82aa9-aac4-5d9b-9df3-e9f82ed981cc-attr-3-key" class="er entityLabel"/><rect height="22.091796875" width="35.75" y="90.18359375" x="0" class="er attributeBoxEven"/><text style="dominant-baseline: middle; font-size: 10.2px;" transform="translate(5,101.2294921875)" y="0" x="0" id="text-entity-DELIVERIES-8fb82aa9-aac4-5d9b-9df3-e9f82ed981cc-attr-4-type" class="er entityLabel">date</text><rect height="22.091796875" width="123.828125" y="90.18359375" x="35.75" class="er attributeBoxEven"/><text style="dominant-baseline: middle; font-size: 10.2px;" transform="translate(40.75,101.2294921875)" y="0" x="0" id="text-entity-DELIVERIES-8fb82aa9-aac4-5d9b-9df3-e9f82ed981cc-attr-4-name" class="er entityLabel">actual_delivery_date</text><rect height="22.091796875" width="21.5625" y="90.18359375" x="159.578125" class="er attributeBoxEven"/><text style="dominant-baseline: middle; font-size: 10.2px;" transform="translate(164.578125,101.2294921875)" y="0" x="0" id="text-entity-DELIVERIES-8fb82aa9-aac4-5d9b-9df3-e9f82ed981cc-attr-4-key" class="er entityLabel"/><rect height="22.091797828674316" width="35.75" y="112.275390625" x="0" class="er attributeBoxOdd"/><text style="dominant-baseline: middle; font-size: 10.2px;" transform="translate(5,123.32128953933716)" y="0" x="0" id="text-entity-DELIVERIES-8fb82aa9-aac4-5d9b-9df3-e9f82ed981cc-attr-5-type" class="er entityLabel">string</text><rect height="22.091797828674316" width="123.828125" y="112.275390625" x="35.75" class="er attributeBoxOdd"/><text style="dominant-baseline: middle; font-size: 10.2px;" transform="translate(40.75,123.32128953933716)" y="0" x="0" id="text-entity-DELIVERIES-8fb82aa9-aac4-5d9b-9df3-e9f82ed981cc-attr-5-name" class="er entityLabel">delivery_status</text><rect height="22.091797828674316" width="21.5625" y="112.275390625" x="159.578125" class="er attributeBoxOdd"/><text style="dominant-baseline: middle; font-size: 10.2px;" transform="translate(164.578125,123.32128953933716)" y="0" x="0" id="text-entity-DELIVERIES-8fb82aa9-aac4-5d9b-9df3-e9f82ed981cc-attr-5-key" class="er entityLabel"/></g><g transform="translate(309.64453125,20 )" id="entity-CUSTOMERS-f16d4b86-fdce-5504-97dd-e4b4cdf26b8c"><rect height="90.18359565734863" width="139.890625" y="0" x="0" class="er entityBox"/><text style="dominant-baseline: middle; text-anchor: middle; font-size: 12px;" transform="translate(69.9453125,12)" y="0" x="0" id="text-entity-CUSTOMERS-f16d4b86-fdce-5504-97dd-e4b4cdf26b8c" class="er entityLabel">CUSTOMERS</text><rect height="22" width="35.75" y="24" x="0" class="er attributeBoxOdd"/><text style="dominant-baseline: middle; font-size: 10.2px;" transform="translate(5,35)" y="0" x="0" id="text-entity-CUSTOMERS-f16d4b86-fdce-5504-97dd-e4b4cdf26b8c-attr-1-type" class="er entityLabel">int</text><rect height="22" width="82.578125" y="24" x="35.75" class="er attributeBoxOdd"/><text style="dominant-baseline: middle; font-size: 10.2px;" transform="translate(40.75,35)" y="0" x="0" id="text-entity-CUSTOMERS-f16d4b86-fdce-5504-97dd-e4b4cdf26b8c-attr-1-name" class="er entityLabel">customer_id</text><rect height="22" width="21.5625" y="24" x="118.328125" class="er attributeBoxOdd"/><text style="dominant-baseline: middle; font-size: 10.2px;" transform="translate(123.328125,35)" y="0" x="0" id="text-entity-CUSTOMERS-f16d4b86-fdce-5504-97dd-e4b4cdf26b8c-attr-1-key" class="er entityLabel">PK</text><rect height="22.091797828674316" width="35.75" y="46" x="0" class="er attributeBoxEven"/><text style="dominant-baseline: middle; font-size: 10.2px;" transform="translate(5,57.04589891433716)" y="0" x="0" id="text-entity-CUSTOMERS-f16d4b86-fdce-5504-97dd-e4b4cdf26b8c-attr-2-type" class="er entityLabel">string</text><rect height="22.091797828674316" width="82.578125" y="46" x="35.75" class="er attributeBoxEven"/><text style="dominant-baseline: middle; font-size: 10.2px;" transform="translate(40.75,57.04589891433716)" y="0" x="0" id="text-entity-CUSTOMERS-f16d4b86-fdce-5504-97dd-e4b4cdf26b8c-attr-2-name" class="er entityLabel">customer_name</text><rect height="22.091797828674316" width="21.5625" y="46" x="118.328125" class="er attributeBoxEven"/><text style="dominant-baseline: middle; font-size: 10.2px;" transform="translate(123.328125,57.04589891433716)" y="0" x="0" id="text-entity-CUSTOMERS-f16d4b86-fdce-5504-97dd-e4b4cdf26b8c-attr-2-key" class="er entityLabel"/><rect height="22.091797828674316" width="35.75" y="68.09179782867432" x="0" class="er attributeBoxOdd"/><text style="dominant-baseline: middle; font-size: 10.2px;" transform="translate(5,79.13769674301147)" y="0" x="0" id="text-entity-CUSTOMERS-f16d4b86-fdce-5504-97dd-e4b4cdf26b8c-attr-3-type" class="er entityLabel">string</text><rect height="22.091797828674316" width="82.578125" y="68.09179782867432" x="35.75" class="er attributeBoxOdd"/><text style="dominant-baseline: middle; font-size: 10.2px;" transform="translate(40.75,79.13769674301147)" y="0" x="0" id="text-entity-CUSTOMERS-f16d4b86-fdce-5504-97dd-e4b4cdf26b8c-attr-3-name" class="er entityLabel">segment</text><rect height="22.091797828674316" width="21.5625" y="68.09179782867432" x="118.328125" class="er attributeBoxOdd"/><text style="dominant-baseline: middle; font-size: 10.2px;" transform="translate(123.328125,79.13769674301147)" y="0" x="0" id="text-entity-CUSTOMERS-f16d4b86-fdce-5504-97dd-e4b4cdf26b8c-attr-3-key" class="er entityLabel"/></g><g transform="translate(20,265.275390625 )" id="entity-PRODUCTS-362c442a-463b-592a-aa0d-86bc5b21c2f4"><rect height="112.36719036102295" width="133.109375" y="0" x="0" class="er entityBox"/><text style="dominant-baseline: middle; text-anchor: middle; font-size: 12px;" transform="translate(66.5546875,12)" y="0" x="0" id="text-entity-PRODUCTS-362c442a-463b-592a-aa0d-86bc5b21c2f4" class="er entityLabel">PRODUCTS</text><rect height="22.091796875" width="35.75" y="24" x="0" class="er attributeBoxOdd"/><text style="dominant-baseline: middle; font-size: 10.2px;" transform="translate(5,35.0458984375)" y="0" x="0" id="text-entity-PRODUCTS-362c442a-463b-592a-aa0d-86bc5b21c2f4-attr-1-type" class="er entityLabel">int</text><rect height="22.091796875" width="75.796875" y="24" x="35.75" class="er attributeBoxOdd"/><text style="dominant-baseline: middle; font-size: 10.2px;" transform="translate(40.75,35.0458984375)" y="0" x="0" id="text-entity-PRODUCTS-362c442a-463b-592a-aa0d-86bc5b21c2f4-attr-1-name" class="er entityLabel">product_id</text><rect height="22.091796875" width="21.5625" y="24" x="111.546875" class="er attributeBoxOdd"/><text style="dominant-baseline: middle; font-size: 10.2px;" transform="translate(116.546875,35.0458984375)" y="0" x="0" id="text-entity-PRODUCTS-362c442a-463b-592a-aa0d-86bc5b21c2f4-attr-1-key" class="er entityLabel">PK</text><rect height="22.091797828674316" width="35.75" y="46.091796875" x="0" class="er attributeBoxEven"/><text style="dominant-baseline: middle; font-size: 10.2px;" transform="translate(5,57.13769578933716)" y="0" x="0" id="text-entity-PRODUCTS-362c442a-463b-592a-aa0d-86bc5b21c2f4-attr-2-type" class="er entityLabel">string</text><rect height="22.091797828674316" width="75.796875" y="46.091796875" x="35.75" class="er attributeBoxEven"/><text style="dominant-baseline: middle; font-size: 10.2px;" transform="translate(40.75,57.13769578933716)" y="0" x="0" id="text-entity-PRODUCTS-362c442a-463b-592a-aa0d-86bc5b21c2f4-attr-2-name" class="er entityLabel">product_name</text><rect height="22.091797828674316" width="21.5625" y="46.091796875" x="111.546875" class="er attributeBoxEven"/><text style="dominant-baseline: middle; font-size: 10.2px;" transform="translate(116.546875,57.13769578933716)" y="0" x="0" id="text-entity-PRODUCTS-362c442a-463b-592a-aa0d-86bc5b21c2f4-attr-2-key" class="er entityLabel"/><rect height="22.091797828674316" width="35.75" y="68.18359470367432" x="0" class="er attributeBoxOdd"/><text style="dominant-baseline: middle; font-size: 10.2px;" transform="translate(5,79.22949361801147)" y="0" x="0" id="text-entity-PRODUCTS-362c442a-463b-592a-aa0d-86bc5b21c2f4-attr-3-type" class="er entityLabel">string</text><rect height="22.091797828674316" width="75.796875" y="68.18359470367432" x="35.75" class="er attributeBoxOdd"/><text style="dominant-baseline: middle; font-size: 10.2px;" transform="translate(40.75,79.22949361801147)" y="0" x="0" id="text-entity-PRODUCTS-362c442a-463b-592a-aa0d-86bc5b21c2f4-attr-3-name" class="er entityLabel">category</text><rect height="22.091797828674316" width="21.5625" y="68.18359470367432" x="111.546875" class="er attributeBoxOdd"/><text style="dominant-baseline: middle; font-size: 10.2px;" transform="translate(116.546875,79.22949361801147)" y="0" x="0" id="text-entity-PRODUCTS-362c442a-463b-592a-aa0d-86bc5b21c2f4-attr-3-key" class="er entityLabel"/><rect height="22.091797828674316" width="35.75" y="90.27539253234863" x="0" class="er attributeBoxEven"/><text style="dominant-baseline: middle; font-size: 10.2px;" transform="translate(5,101.32129144668579)" y="0" x="0" id="text-entity-PRODUCTS-362c442a-463b-592a-aa0d-86bc5b21c2f4-attr-4-type" class="er entityLabel">string</text><rect height="22.091797828674316" width="75.796875" y="90.27539253234863" x="35.75" class="er attributeBoxEven"/><text style="dominant-baseline: middle; font-size: 10.2px;" transform="translate(40.75,101.32129144668579)" y="0" x="0" id="text-entity-PRODUCTS-362c442a-463b-592a-aa0d-86bc5b21c2f4-attr-4-name" class="er entityLabel">sub_category</text><rect height="22.091797828674316" width="21.5625" y="90.27539253234863" x="111.546875" class="er attributeBoxEven"/><text style="dominant-baseline: middle; font-size: 10.2px;" transform="translate(116.546875,101.32129144668579)" y="0" x="0" id="text-entity-PRODUCTS-362c442a-463b-592a-aa0d-86bc5b21c2f4-attr-4-key" class="er entityLabel"/></g><rect height="14" width="44.84375" y="477.2085876464844" x="230.30105590820312" class="er relationshipLabelBox"/><text style="text-anchor: middle; dominant-baseline: middle; font-size: 12px;" y="484.2085876464844" x="252.72293090820312" id="rel1" class="er relationshipLabel">contains</text><rect height="14" width="58.921875" y="480.4132385253906" x="397.921630859375" class="er relationshipLabelBox"/><text style="text-anchor: middle; dominant-baseline: middle; font-size: 12px;" y="487.4132385253906" x="427.382568359375" id="rel2" class="er relationshipLabel">fulfilled by</text><rect height="14" width="33.875" y="153.1840057373047" x="362.6524963378906" class="er relationshipLabelBox"/><text style="text-anchor: middle; dominant-baseline: middle; font-size: 12px;" y="160.1840057373047" x="379.5899963378906" id="rel3" class="er relationshipLabel">places</text><rect height="14" width="35.125" y="449.41021728515625" x="70.60368347167969" class="er relationshipLabelBox"/><text style="text-anchor: middle; dominant-baseline: middle; font-size: 12px;" y="456.41021728515625" x="88.16618347167969" id="rel4" class="er relationshipLabel">sold in</text></svg>