<svg aria-roledescription="flowchart-v2" role="graphics-document document" viewBox="0 0 1424.79296875 2961.609375" style="max-width: 1424.79px; background-color: white;" class="flowchart" xmlns:xlink="http://www.w3.org/1999/xlink" xmlns="http://www.w3.org/2000/svg" width="100%" id="my-svg"><style>#my-svg{font-family:"trebuchet ms",verdana,arial,sans-serif;font-size:16px;fill:#333;}#my-svg .error-icon{fill:#552222;}#my-svg .error-text{fill:#552222;stroke:#552222;}#my-svg .edge-thickness-normal{stroke-width:1px;}#my-svg .edge-thickness-thick{stroke-width:3.5px;}#my-svg .edge-pattern-solid{stroke-dasharray:0;}#my-svg .edge-thickness-invisible{stroke-width:0;fill:none;}#my-svg .edge-pattern-dashed{stroke-dasharray:3;}#my-svg .edge-pattern-dotted{stroke-dasharray:2;}#my-svg .marker{fill:#333333;stroke:#333333;}#my-svg .marker.cross{stroke:#333333;}#my-svg svg{font-family:"trebuchet ms",verdana,arial,sans-serif;font-size:16px;}#my-svg p{margin:0;}#my-svg .label{font-family:"trebuchet ms",verdana,arial,sans-serif;color:#333;}#my-svg .cluster-label text{fill:#333;}#my-svg .cluster-label span{color:#333;}#my-svg .cluster-label span p{background-color:transparent;}#my-svg .label text,#my-svg span{fill:#333;color:#333;}#my-svg .node rect,#my-svg .node circle,#my-svg .node ellipse,#my-svg .node polygon,#my-svg .node path{fill:#ECECFF;stroke:#9370DB;stroke-width:1px;}#my-svg .rough-node .label text,#my-svg .node .label text,#my-svg .image-shape .label,#my-svg .icon-shape .label{text-anchor:middle;}#my-svg .node .katex path{fill:#000;stroke:#000;stroke-width:1px;}#my-svg .rough-node .label,#my-svg .node .label,#my-svg .image-shape .label,#my-svg .icon-shape .label{text-align:center;}#my-svg .node.clickable{cursor:pointer;}#my-svg .root .anchor path{fill:#333333!important;stroke-width:0;stroke:#333333;}#my-svg .arrowheadPath{fill:#333333;}#my-svg .edgePath .path{stroke:#333333;stroke-width:2.0px;}#my-svg .flowchart-link{stroke:#333333;fill:none;}#my-svg .edgeLabel{background-color:rgba(232,232,232, 0.8);text-align:center;}#my-svg .edgeLabel p{background-color:rgba(232,232,232, 0.8);}#my-svg .edgeLabel rect{opacity:0.5;background-color:rgba(232,232,232, 0.8);fill:rgba(232,232,232, 0.8);}#my-svg .labelBkg{background-color:rgba(232, 232, 232, 0.5);}#my-svg .cluster rect{fill:#ffffde;stroke:#aaaa33;stroke-width:1px;}#my-svg .cluster text{fill:#333;}#my-svg .cluster span{color:#333;}#my-svg div.mermaidTooltip{position:absolute;text-align:center;max-width:200px;padding:2px;font-family:"trebuchet ms",verdana,arial,sans-serif;font-size:12px;background:hsl(80, 100%, 96.2745098039%);border:1px solid #aaaa33;border-radius:2px;pointer-events:none;z-index:100;}#my-svg .flowchartTitleText{text-anchor:middle;font-size:18px;fill:#333;}#my-svg rect.text{fill:none;stroke-width:0;}#my-svg .icon-shape,#my-svg .image-shape{background-color:rgba(232,232,232, 0.8);text-align:center;}#my-svg .icon-shape p,#my-svg .image-shape p{background-color:rgba(232,232,232, 0.8);padding:2px;}#my-svg .icon-shape rect,#my-svg .image-shape rect{opacity:0.5;background-color:rgba(232,232,232, 0.8);fill:rgba(232,232,232, 0.8);}#my-svg :root{--mermaid-font-family:"trebuchet ms",verdana,arial,sans-serif;}</style><g><marker orient="auto" markerHeight="8" markerWidth="8" markerUnits="userSpaceOnUse" refY="5" refX="5" viewBox="0 0 10 10" class="marker flowchart-v2" id="my-svg_flowchart-v2-pointEnd"><path style="stroke-width: 1; stroke-dasharray: 1, 0;" class="arrowMarkerPath" d="M 0 0 L 10 5 L 0 10 z"/></marker><marker orient="auto" markerHeight="8" markerWidth="8" markerUnits="userSpaceOnUse" refY="5" refX="4.5" viewBox="0 0 10 10" class="marker flowchart-v2" id="my-svg_flowchart-v2-pointStart"><path style="stroke-width: 1; stroke-dasharray: 1, 0;" class="arrowMarkerPath" d="M 0 5 L 10 10 L 10 0 z"/></marker><marker orient="auto" markerHeight="11" markerWidth="11" markerUnits="userSpaceOnUse" refY="5" refX="11" viewBox="0 0 10 10" class="marker flowchart-v2" id="my-svg_flowchart-v2-circleEnd"><circle style="stroke-width: 1; stroke-dasharray: 1, 0;" class="arrowMarkerPath" r="5" cy="5" cx="5"/></marker><marker orient="auto" markerHeight="11" markerWidth="11" markerUnits="userSpaceOnUse" refY="5" refX="-1" viewBox="0 0 10 10" class="marker flowchart-v2" id="my-svg_flowchart-v2-circleStart"><circle style="stroke-width: 1; stroke-dasharray: 1, 0;" class="arrowMarkerPath" r="5" cy="5" cx="5"/></marker><marker orient="auto" markerHeight="11" markerWidth="11" markerUnits="userSpaceOnUse" refY="5.2" refX="12" viewBox="0 0 11 11" class="marker cross flowchart-v2" id="my-svg_flowchart-v2-crossEnd"><path style="stroke-width: 2; stroke-dasharray: 1, 0;" class="arrowMarkerPath" d="M 1,1 l 9,9 M 10,1 l -9,9"/></marker><marker orient="auto" markerHeight="11" markerWidth="11" markerUnits="userSpaceOnUse" refY="5.2" refX="-1" viewBox="0 0 11 11" class="marker cross flowchart-v2" id="my-svg_flowchart-v2-crossStart"><path style="stroke-width: 2; stroke-dasharray: 1, 0;" class="arrowMarkerPath" d="M 1,1 l 9,9 M 10,1 l -9,9"/></marker><g class="root"><g class="clusters"><g data-look="classic" id="subGraph1" class="cluster"><rect height="552.484375" width="650" y="2089.125" x="613" style=""/><g transform="translate(838, 2089.125)" class="cluster-label"><foreignObject height="48" width="200"><div style="display: table; white-space: break-spaces; line-height: 1.5; max-width: 200px; text-align: center; width: 200px;" xmlns="http://www.w3.org/1999/xhtml"><span class="nodeLabel"><p>Concurrent WildFire Registration</p></span></div></foreignObject></g></g><g data-look="classic" id="subGraph0" class="cluster"><rect height="1049.65625" width="640" y="320" x="776.79296875" style=""/><g transform="translate(1045.18359375, 320)" class="cluster-label"><foreignObject height="24" width="103.21875"><div style="display: table-cell; white-space: nowrap; line-height: 1.5; max-width: 200px; text-align: center;" xmlns="http://www.w3.org/1999/xhtml"><span class="nodeLabel"><p>Error Handling</p></span></div></foreignObject></g></g></g><g class="edgePaths"><path marker-end="url(#my-svg_flowchart-v2-pointEnd)" style="" class="edge-thickness-normal edge-pattern-solid edge-thickness-normal edge-pattern-solid flowchart-link" id="L_A_B_0" d="M1077.84,62L1077.84,66.167C1077.84,70.333,1077.84,78.667,1077.84,86.333C1077.84,94,1077.84,101,1077.84,104.5L1077.84,108"/><path marker-end="url(#my-svg_flowchart-v2-pointEnd)" style="" class="edge-thickness-normal edge-pattern-solid edge-thickness-normal edge-pattern-solid flowchart-link" id="L_B_C_1" d="M1077.84,166L1077.84,170.167C1077.84,174.333,1077.84,182.667,1077.84,190.333C1077.84,198,1077.84,205,1077.84,208.5L1077.84,212"/><path marker-end="url(#my-svg_flowchart-v2-pointEnd)" style="" class="edge-thickness-normal edge-pattern-solid edge-thickness-normal edge-pattern-solid flowchart-link" id="L_C_D_2" d="M1077.84,270L1077.84,274.167C1077.84,278.333,1077.84,286.667,1077.84,295C1077.84,303.333,1077.84,311.667,1077.84,319.333C1077.84,327,1077.84,334,1077.84,337.5L1077.84,341"/><path marker-end="url(#my-svg_flowchart-v2-pointEnd)" style="" class="edge-thickness-normal edge-pattern-solid edge-thickness-normal edge-pattern-solid flowchart-link" id="L_D_E_3" d="M1047.254,399L1040.268,405.167C1033.283,411.333,1019.311,423.667,969.054,438.634C918.797,453.601,832.255,471.202,788.984,480.002L745.713,488.803"/><path marker-end="url(#my-svg_flowchart-v2-pointEnd)" style="" class="edge-thickness-normal edge-pattern-solid edge-thickness-normal edge-pattern-solid flowchart-link" id="L_E_F_4" d="M741.793,527.798L797.801,535.832C853.809,543.866,965.824,559.933,1021.832,571.466C1077.84,583,1077.84,590,1077.84,593.5L1077.84,597"/><path marker-end="url(#my-svg_flowchart-v2-pointEnd)" style="" class="edge-thickness-normal edge-pattern-solid edge-thickness-normal edge-pattern-solid flowchart-link" id="L_F_G_5" d="M1047.254,655L1040.268,661.167C1033.283,667.333,1019.311,679.667,957.753,702.15C896.195,724.634,787.051,757.267,732.479,773.584L677.906,789.901"/><path marker-end="url(#my-svg_flowchart-v2-pointEnd)" style="" class="edge-thickness-normal edge-pattern-solid edge-thickness-normal edge-pattern-solid flowchart-link" id="L_G_H_6" d="M612.527,889.156L612.444,895.24C612.361,901.323,612.194,913.49,612.111,927.073C612.027,940.656,612.027,955.656,612.027,963.156L612.027,970.656"/><path marker-end="url(#my-svg_flowchart-v2-pointEnd)" style="" class="edge-thickness-normal edge-pattern-solid edge-thickness-normal edge-pattern-solid flowchart-link" id="L_G_I_7" d="M676.853,824.831L746.843,841.635C816.833,858.439,956.813,892.048,1026.803,914.352C1096.793,936.656,1096.793,947.656,1096.793,953.156L1096.793,958.656"/><path marker-end="url(#my-svg_flowchart-v2-pointEnd)" style="" class="edge-thickness-normal edge-pattern-solid edge-thickness-normal edge-pattern-solid flowchart-link" id="L_I_J_8" d="M1017.253,1040.656L1004.677,1046.823C992.1,1052.99,966.946,1065.323,954.37,1076.99C941.793,1088.656,941.793,1099.656,941.793,1105.156L941.793,1110.656"/><path marker-end="url(#my-svg_flowchart-v2-pointEnd)" style="" class="edge-thickness-normal edge-pattern-solid edge-thickness-normal edge-pattern-solid flowchart-link" id="L_J_K_9" d="M904.589,1192.656L898.706,1198.823C892.824,1204.99,881.058,1217.323,848.275,1231.467C815.491,1245.611,761.689,1261.565,734.787,1269.542L707.886,1277.519"/><path marker-end="url(#my-svg_flowchart-v2-pointEnd)" style="" class="edge-thickness-normal edge-pattern-solid edge-thickness-normal edge-pattern-solid flowchart-link" id="L_K_L_10" d="M613,1332.656L613,1338.823C613,1344.99,613,1357.323,613,1367.656C613,1377.99,613,1386.323,613,1393.99C613,1401.656,613,1408.656,613,1412.156L613,1415.656"/><path marker-end="url(#my-svg_flowchart-v2-pointEnd)" style="" class="edge-thickness-normal edge-pattern-solid edge-thickness-normal edge-pattern-solid flowchart-link" id="L_L_M_11" d="M613,1497.656L613,1501.823C613,1505.99,613,1514.323,613.07,1522.073C613.141,1529.823,613.281,1536.99,613.351,1540.574L613.422,1544.157"/><path marker-end="url(#my-svg_flowchart-v2-pointEnd)" style="" class="edge-thickness-normal edge-pattern-solid edge-thickness-normal edge-pattern-solid flowchart-link" id="L_M_N_12" d="M539.996,1662.121L472.997,1680.455C405.997,1698.789,271.999,1735.457,204.999,1766.458C138,1797.458,138,1822.792,138,1846.125C138,1869.458,138,1890.792,138,1912.125C138,1933.458,138,1954.792,138,1978.125C138,2001.458,138,2026.792,138,2045.625C138,2064.458,138,2076.792,138,2093.625C138,2110.458,138,2131.792,138,2153.125C138,2174.458,138,2195.792,138,2229.165C138,2262.539,138,2307.953,138,2355.367C138,2402.781,138,2452.195,138,2482.402C138,2512.609,138,2523.609,138,2529.109L138,2534.609"/><path marker-end="url(#my-svg_flowchart-v2-pointEnd)" style="" class="edge-thickness-normal edge-pattern-solid edge-thickness-normal edge-pattern-solid flowchart-link" id="L_M_O_13" d="M680.047,1669.078L722.206,1686.253C764.365,1703.427,848.682,1737.776,890.841,1760.451C933,1783.125,933,1794.125,933,1799.625L933,1805.125"/><path marker-end="url(#my-svg_flowchart-v2-pointEnd)" style="" class="edge-thickness-normal edge-pattern-solid edge-thickness-normal edge-pattern-solid flowchart-link" id="L_O_P_14" d="M933,1887.125L933,1891.292C933,1895.458,933,1903.792,933,1911.458C933,1919.125,933,1926.125,933,1929.625L933,1933.125"/><path marker-end="url(#my-svg_flowchart-v2-pointEnd)" style="" class="edge-thickness-normal edge-pattern-solid edge-thickness-normal edge-pattern-solid flowchart-link" id="L_P_Q_15" d="M933,2015.125L933,2021.292C933,2027.458,933,2039.792,933,2052.125C933,2064.458,933,2076.792,933,2086.458C933,2096.125,933,2103.125,933,2106.625L933,2110.125"/><path marker-end="url(#my-svg_flowchart-v2-pointEnd)" style="" class="edge-thickness-normal edge-pattern-solid edge-thickness-normal edge-pattern-solid flowchart-link" id="L_Q_R_16" d="M803,2189.696L786.75,2194.268C770.5,2198.839,738,2207.982,691.708,2228.449C645.415,2248.916,585.331,2280.706,555.289,2296.601L525.246,2312.497"/><path marker-end="url(#my-svg_flowchart-v2-pointEnd)" style="" class="edge-thickness-normal edge-pattern-solid edge-thickness-normal edge-pattern-solid flowchart-link" id="L_R_S_17" d="M448,2392.367L448,2410.574C448,2428.781,448,2465.195,448,2488.902C448,2512.609,448,2523.609,448,2529.109L448,2534.609"/><path marker-end="url(#my-svg_flowchart-v2-pointEnd)" style="" class="edge-thickness-normal edge-pattern-solid edge-thickness-normal edge-pattern-solid flowchart-link" id="L_N_T_18" d="M138,2616.609L138,2620.776C138,2624.943,138,2633.276,138,2641.609C138,2649.943,138,2658.276,149.788,2666.397C161.576,2674.519,185.151,2682.428,196.939,2686.383L208.727,2690.337"/><path marker-end="url(#my-svg_flowchart-v2-pointEnd)" style="" class="edge-thickness-normal edge-pattern-solid edge-thickness-normal edge-pattern-solid flowchart-link" id="L_S_T_19" d="M448,2616.609L448,2620.776C448,2624.943,448,2633.276,448,2641.609C448,2649.943,448,2658.276,436.212,2666.397C424.424,2674.519,400.849,2682.428,389.061,2686.383L377.273,2690.337"/><path marker-end="url(#my-svg_flowchart-v2-pointEnd)" style="" class="edge-thickness-normal edge-pattern-solid edge-thickness-normal edge-pattern-solid flowchart-link" id="L_T_U_20" d="M293,2745.609L293,2749.776C293,2753.943,293,2762.276,293,2769.943C293,2777.609,293,2784.609,293,2788.109L293,2791.609"/><path marker-end="url(#my-svg_flowchart-v2-pointEnd)" style="" class="edge-thickness-normal edge-pattern-solid edge-thickness-normal edge-pattern-solid flowchart-link" id="L_U_V_21" d="M293,2849.609L293,2853.776C293,2857.943,293,2866.276,293,2873.943C293,2881.609,293,2888.609,293,2892.109L293,2895.609"/><path marker-end="url(#my-svg_flowchart-v2-pointEnd)" style="" class="edge-thickness-normal edge-pattern-solid edge-thickness-normal edge-pattern-solid flowchart-link" id="L_D_W_22" d="M1085.836,399L1087.662,405.167C1089.488,411.333,1093.141,423.667,1094.967,435.333C1096.793,447,1096.793,458,1096.793,463.5L1096.793,469"/><path marker-end="url(#my-svg_flowchart-v2-pointEnd)" style="" class="edge-thickness-normal edge-pattern-solid edge-thickness-normal edge-pattern-solid flowchart-link" id="L_F_X_23" d="M1085.836,655L1087.662,661.167C1089.488,667.333,1093.141,679.667,1094.967,698.138C1096.793,716.609,1096.793,741.219,1096.793,753.523L1096.793,765.828"/><path marker-end="url(#my-svg_flowchart-v2-pointEnd)" style="" class="edge-thickness-normal edge-pattern-solid edge-thickness-normal edge-pattern-solid flowchart-link" id="L_I_Y_24" d="M1176.332,1040.656L1188.909,1046.823C1201.486,1052.99,1226.639,1065.323,1239.216,1076.99C1251.793,1088.656,1251.793,1099.656,1251.793,1105.156L1251.793,1110.656"/><path marker-end="url(#my-svg_flowchart-v2-pointEnd)" style="" class="edge-thickness-normal edge-pattern-solid edge-thickness-normal edge-pattern-solid flowchart-link" id="L_J_Z_25" d="M1021.332,1192.656L1033.909,1198.823C1046.486,1204.99,1071.639,1217.323,1084.216,1228.99C1096.793,1240.656,1096.793,1251.656,1096.793,1257.156L1096.793,1262.656"/><path marker-end="url(#my-svg_flowchart-v2-pointEnd)" style="" class="edge-thickness-normal edge-pattern-solid edge-thickness-normal edge-pattern-solid flowchart-link" id="L_Q_AA_26" d="M939.094,2192.125L939.745,2196.292C940.396,2200.458,941.698,2208.792,942.419,2216.542C943.141,2224.292,943.281,2231.459,943.351,2235.042L943.422,2238.626"/><path marker-end="url(#my-svg_flowchart-v2-pointEnd)" style="" class="edge-thickness-normal edge-pattern-solid edge-thickness-normal edge-pattern-solid flowchart-link" id="L_AA_AB_27" d="M886.639,2408.249L870.199,2423.809C853.76,2439.369,820.88,2470.489,804.44,2491.549C788,2512.609,788,2523.609,788,2529.109L788,2534.609"/><path marker-end="url(#my-svg_flowchart-v2-pointEnd)" style="" class="edge-thickness-normal edge-pattern-solid edge-thickness-normal edge-pattern-solid flowchart-link" id="L_AA_AC_28" d="M1000.361,2408.249L1016.634,2423.809C1032.907,2439.369,1065.454,2470.489,1081.727,2491.549C1098,2512.609,1098,2523.609,1098,2529.109L1098,2534.609"/></g><g class="edgeLabels"><g class="edgeLabel"><g transform="translate(0, 0)" class="label"><foreignObject height="0" width="0"><div style="display: table-cell; white-space: nowrap; line-height: 1.5; max-width: 200px; text-align: center;" class="labelBkg" xmlns="http://www.w3.org/1999/xhtml"><span class="edgeLabel"></span></div></foreignObject></g></g><g class="edgeLabel"><g transform="translate(0, 0)" class="label"><foreignObject height="0" width="0"><div style="display: table-cell; white-space: nowrap; line-height: 1.5; max-width: 200px; text-align: center;" class="labelBkg" xmlns="http://www.w3.org/1999/xhtml"><span class="edgeLabel"></span></div></foreignObject></g></g><g class="edgeLabel"><g transform="translate(0, 0)" class="label"><foreignObject height="0" width="0"><div style="display: table-cell; white-space: nowrap; line-height: 1.5; max-width: 200px; text-align: center;" class="labelBkg" xmlns="http://www.w3.org/1999/xhtml"><span class="edgeLabel"></span></div></foreignObject></g></g><g class="edgeLabel"><g transform="translate(0, 0)" class="label"><foreignObject height="0" width="0"><div style="display: table-cell; white-space: nowrap; line-height: 1.5; max-width: 200px; text-align: center;" class="labelBkg" xmlns="http://www.w3.org/1999/xhtml"><span class="edgeLabel"></span></div></foreignObject></g></g><g class="edgeLabel"><g transform="translate(0, 0)" class="label"><foreignObject height="0" width="0"><div style="display: table-cell; white-space: nowrap; line-height: 1.5; max-width: 200px; text-align: center;" class="labelBkg" xmlns="http://www.w3.org/1999/xhtml"><span class="edgeLabel"></span></div></foreignObject></g></g><g class="edgeLabel"><g transform="translate(0, 0)" class="label"><foreignObject height="0" width="0"><div style="display: table-cell; white-space: nowrap; line-height: 1.5; max-width: 200px; text-align: center;" class="labelBkg" xmlns="http://www.w3.org/1999/xhtml"><span class="edgeLabel"></span></div></foreignObject></g></g><g transform="translate(612.02734375, 925.65625)" class="edgeLabel"><g transform="translate(-9.3984375, -12)" class="label"><foreignObject height="24" width="18.796875"><div style="display: table-cell; white-space: nowrap; line-height: 1.5; max-width: 200px; text-align: center;" class="labelBkg" xmlns="http://www.w3.org/1999/xhtml"><span class="edgeLabel"><p>No</p></span></div></foreignObject></g></g><g transform="translate(1096.79296875, 925.65625)" class="edgeLabel"><g transform="translate(-11.328125, -12)" class="label"><foreignObject height="24" width="22.65625"><div style="display: table-cell; white-space: nowrap; line-height: 1.5; max-width: 200px; text-align: center;" class="labelBkg" xmlns="http://www.w3.org/1999/xhtml"><span class="edgeLabel"><p>Yes</p></span></div></foreignObject></g></g><g class="edgeLabel"><g transform="translate(0, 0)" class="label"><foreignObject height="0" width="0"><div style="display: table-cell; white-space: nowrap; line-height: 1.5; max-width: 200px; text-align: center;" class="labelBkg" xmlns="http://www.w3.org/1999/xhtml"><span class="edgeLabel"></span></div></foreignObject></g></g><g class="edgeLabel"><g transform="translate(0, 0)" class="label"><foreignObject height="0" width="0"><div style="display: table-cell; white-space: nowrap; line-height: 1.5; max-width: 200px; text-align: center;" class="labelBkg" xmlns="http://www.w3.org/1999/xhtml"><span class="edgeLabel"></span></div></foreignObject></g></g><g class="edgeLabel"><g transform="translate(0, 0)" class="label"><foreignObject height="0" width="0"><div style="display: table-cell; white-space: nowrap; line-height: 1.5; max-width: 200px; text-align: center;" class="labelBkg" xmlns="http://www.w3.org/1999/xhtml"><span class="edgeLabel"></span></div></foreignObject></g></g><g class="edgeLabel"><g transform="translate(0, 0)" class="label"><foreignObject height="0" width="0"><div style="display: table-cell; white-space: nowrap; line-height: 1.5; max-width: 200px; text-align: center;" class="labelBkg" xmlns="http://www.w3.org/1999/xhtml"><span class="edgeLabel"></span></div></foreignObject></g></g><g transform="translate(138, 2052.125)" class="edgeLabel"><g transform="translate(-11.328125, -12)" class="label"><foreignObject height="24" width="22.65625"><div style="display: table-cell; white-space: nowrap; line-height: 1.5; max-width: 200px; text-align: center;" class="labelBkg" xmlns="http://www.w3.org/1999/xhtml"><span class="edgeLabel"><p>Yes</p></span></div></foreignObject></g></g><g transform="translate(933, 1772.125)" class="edgeLabel"><g transform="translate(-9.3984375, -12)" class="label"><foreignObject height="24" width="18.796875"><div style="display: table-cell; white-space: nowrap; line-height: 1.5; max-width: 200px; text-align: center;" class="labelBkg" xmlns="http://www.w3.org/1999/xhtml"><span class="edgeLabel"><p>No</p></span></div></foreignObject></g></g><g class="edgeLabel"><g transform="translate(0, 0)" class="label"><foreignObject height="0" width="0"><div style="display: table-cell; white-space: nowrap; line-height: 1.5; max-width: 200px; text-align: center;" class="labelBkg" xmlns="http://www.w3.org/1999/xhtml"><span class="edgeLabel"></span></div></foreignObject></g></g><g class="edgeLabel"><g transform="translate(0, 0)" class="label"><foreignObject height="0" width="0"><div style="display: table-cell; white-space: nowrap; line-height: 1.5; max-width: 200px; text-align: center;" class="labelBkg" xmlns="http://www.w3.org/1999/xhtml"><span class="edgeLabel"></span></div></foreignObject></g></g><g class="edgeLabel"><g transform="translate(0, 0)" class="label"><foreignObject height="0" width="0"><div style="display: table-cell; white-space: nowrap; line-height: 1.5; max-width: 200px; text-align: center;" class="labelBkg" xmlns="http://www.w3.org/1999/xhtml"><span class="edgeLabel"></span></div></foreignObject></g></g><g class="edgeLabel"><g transform="translate(0, 0)" class="label"><foreignObject height="0" width="0"><div style="display: table-cell; white-space: nowrap; line-height: 1.5; max-width: 200px; text-align: center;" class="labelBkg" xmlns="http://www.w3.org/1999/xhtml"><span class="edgeLabel"></span></div></foreignObject></g></g><g class="edgeLabel"><g transform="translate(0, 0)" class="label"><foreignObject height="0" width="0"><div style="display: table-cell; white-space: nowrap; line-height: 1.5; max-width: 200px; text-align: center;" class="labelBkg" xmlns="http://www.w3.org/1999/xhtml"><span class="edgeLabel"></span></div></foreignObject></g></g><g class="edgeLabel"><g transform="translate(0, 0)" class="label"><foreignObject height="0" width="0"><div style="display: table-cell; white-space: nowrap; line-height: 1.5; max-width: 200px; text-align: center;" class="labelBkg" xmlns="http://www.w3.org/1999/xhtml"><span class="edgeLabel"></span></div></foreignObject></g></g><g class="edgeLabel"><g transform="translate(0, 0)" class="label"><foreignObject height="0" width="0"><div style="display: table-cell; white-space: nowrap; line-height: 1.5; max-width: 200px; text-align: center;" class="labelBkg" xmlns="http://www.w3.org/1999/xhtml"><span class="edgeLabel"></span></div></foreignObject></g></g><g class="edgeLabel"><g transform="translate(0, 0)" class="label"><foreignObject height="0" width="0"><div style="display: table-cell; white-space: nowrap; line-height: 1.5; max-width: 200px; text-align: center;" class="labelBkg" xmlns="http://www.w3.org/1999/xhtml"><span class="edgeLabel"></span></div></foreignObject></g></g><g transform="translate(1096.79296875, 436)" class="edgeLabel"><g transform="translate(-17.90625, -12)" class="label"><foreignObject height="24" width="35.8125"><div style="display: table-cell; white-space: nowrap; line-height: 1.5; max-width: 200px; text-align: center;" class="labelBkg" xmlns="http://www.w3.org/1999/xhtml"><span class="edgeLabel"><p>Error</p></span></div></foreignObject></g></g><g transform="translate(1096.79296875, 692)" class="edgeLabel"><g transform="translate(-17.90625, -12)" class="label"><foreignObject height="24" width="35.8125"><div style="display: table-cell; white-space: nowrap; line-height: 1.5; max-width: 200px; text-align: center;" class="labelBkg" xmlns="http://www.w3.org/1999/xhtml"><span class="edgeLabel"><p>Error</p></span></div></foreignObject></g></g><g transform="translate(1251.79296875, 1077.65625)" class="edgeLabel"><g transform="translate(-17.90625, -12)" class="label"><foreignObject height="24" width="35.8125"><div style="display: table-cell; white-space: nowrap; line-height: 1.5; max-width: 200px; text-align: center;" class="labelBkg" xmlns="http://www.w3.org/1999/xhtml"><span class="edgeLabel"><p>Error</p></span></div></foreignObject></g></g><g transform="translate(1096.79296875, 1229.65625)" class="edgeLabel"><g transform="translate(-17.90625, -12)" class="label"><foreignObject height="24" width="35.8125"><div style="display: table-cell; white-space: nowrap; line-height: 1.5; max-width: 200px; text-align: center;" class="labelBkg" xmlns="http://www.w3.org/1999/xhtml"><span class="edgeLabel"><p>Error</p></span></div></foreignObject></g></g><g class="edgeLabel"><g transform="translate(0, 0)" class="label"><foreignObject height="0" width="0"><div style="display: table-cell; white-space: nowrap; line-height: 1.5; max-width: 200px; text-align: center;" class="labelBkg" xmlns="http://www.w3.org/1999/xhtml"><span class="edgeLabel"></span></div></foreignObject></g></g><g transform="translate(788, 2501.609375)" class="edgeLabel"><g transform="translate(-11.328125, -12)" class="label"><foreignObject height="24" width="22.65625"><div style="display: table-cell; white-space: nowrap; line-height: 1.5; max-width: 200px; text-align: center;" class="labelBkg" xmlns="http://www.w3.org/1999/xhtml"><span class="edgeLabel"><p>Yes</p></span></div></foreignObject></g></g><g transform="translate(1098, 2501.609375)" class="edgeLabel"><g transform="translate(-9.3984375, -12)" class="label"><foreignObject height="24" width="18.796875"><div style="display: table-cell; white-space: nowrap; line-height: 1.5; max-width: 200px; text-align: center;" class="labelBkg" xmlns="http://www.w3.org/1999/xhtml"><span class="edgeLabel"><p>No</p></span></div></foreignObject></g></g></g><g class="nodes"><g transform="translate(1077.83984375, 35)" id="flowchart-A-0" class="node default"><rect height="54" width="95.015625" y="-27" x="-47.5078125" style="" class="basic label-container"/><g transform="translate(-17.5078125, -12)" style="" class="label"><rect/><foreignObject height="24" width="35.015625"><div style="display: table-cell; white-space: nowrap; line-height: 1.5; max-width: 200px; text-align: center;" xmlns="http://www.w3.org/1999/xhtml"><span class="nodeLabel"><p>Start</p></span></div></foreignObject></g></g><g transform="translate(1077.83984375, 139)" id="flowchart-B-1" class="node default"><rect height="54" width="242.953125" y="-27" x="-121.4765625" style="" class="basic label-container"/><g transform="translate(-91.4765625, -12)" style="" class="label"><rect/><foreignObject height="24" width="182.953125"><div style="display: table-cell; white-space: nowrap; line-height: 1.5; max-width: 200px; text-align: center;" xmlns="http://www.w3.org/1999/xhtml"><span class="nodeLabel"><p>Parse command-line flags</p></span></div></foreignObject></g></g><g transform="translate(1077.83984375, 243)" id="flowchart-C-3" class="node default"><rect height="54" width="171.8125" y="-27" x="-85.90625" style="" class="basic label-container"/><g transform="translate(-55.90625, -12)" style="" class="label"><rect/><foreignObject height="24" width="111.8125"><div style="display: table-cell; white-space: nowrap; line-height: 1.5; max-width: 200px; text-align: center;" xmlns="http://www.w3.org/1999/xhtml"><span class="nodeLabel"><p>Initialize logger</p></span></div></foreignObject></g></g><g transform="translate(1077.83984375, 372)" id="flowchart-D-5" class="node default"><rect height="54" width="194.1875" y="-27" x="-97.09375" style="" class="basic label-container"/><g transform="translate(-67.09375, -12)" style="" class="label"><rect/><foreignObject height="24" width="134.1875"><div style="display: table-cell; white-space: nowrap; line-height: 1.5; max-width: 200px; text-align: center;" xmlns="http://www.w3.org/1999/xhtml"><span class="nodeLabel"><p>Load configuration</p></span></div></foreignObject></g></g><g transform="translate(631.65234375, 512)" id="flowchart-E-7" class="node default"><rect height="54" width="220.28125" y="-27" x="-110.140625" style="" class="basic label-container"/><g transform="translate(-80.140625, -12)" style="" class="label"><rect/><foreignObject height="24" width="160.28125"><div style="display: table-cell; white-space: nowrap; line-height: 1.5; max-width: 200px; text-align: center;" xmlns="http://www.w3.org/1999/xhtml"><span class="nodeLabel"><p>Create DeviceManager</p></span></div></foreignObject></g></g><g transform="translate(1077.83984375, 628)" id="flowchart-F-9" class="node default"><rect height="54" width="164.328125" y="-27" x="-82.1640625" style="" class="basic label-container"/><g transform="translate(-52.1640625, -12)" style="" class="label"><rect/><foreignObject height="24" width="104.328125"><div style="display: table-cell; white-space: nowrap; line-height: 1.5; max-width: 200px; text-align: center;" xmlns="http://www.w3.org/1999/xhtml"><span class="nodeLabel"><p>Get device list</p></span></div></foreignObject></g></g><g transform="translate(612.02734375, 808.828125)" id="flowchart-G-11" class="node default"><polygon transform="translate(-79.828125,79.828125)" class="label-container" points="79.828125,0 159.65625,-79.828125 79.828125,-159.65625 0,-79.828125"/><g transform="translate(-52.828125, -12)" style="" class="label"><rect/><foreignObject height="24" width="105.65625"><div style="display: table-cell; white-space: nowrap; line-height: 1.5; max-width: 200px; text-align: center;" xmlns="http://www.w3.org/1999/xhtml"><span class="nodeLabel"><p>Devices found?</p></span></div></foreignObject></g></g><g transform="translate(612.02734375, 1001.65625)" id="flowchart-H-13" class="node default"><rect height="54" width="259.53125" y="-27" x="-129.765625" style="" class="basic label-container"/><g transform="translate(-99.765625, -12)" style="" class="label"><rect/><foreignObject height="24" width="199.53125"><div style="display: table-cell; white-space: nowrap; line-height: 1.5; max-width: 200px; text-align: center;" xmlns="http://www.w3.org/1999/xhtml"><span class="nodeLabel"><p>Fatal: No devices processed</p></span></div></foreignObject></g></g><g transform="translate(1096.79296875, 1001.65625)" id="flowchart-I-15" class="node default"><rect height="78" width="260" y="-39" x="-130" style="" class="basic label-container"/><g transform="translate(-100, -24)" style="" class="label"><rect/><foreignObject height="48" width="200"><div style="display: table; white-space: break-spaces; line-height: 1.5; max-width: 200px; text-align: center; width: 200px;" xmlns="http://www.w3.org/1999/xhtml"><span class="nodeLabel"><p>Parse versions for each device</p></span></div></foreignObject></g></g><g transform="translate(941.79296875, 1153.65625)" id="flowchart-J-17" class="node default"><rect height="78" width="260" y="-39" x="-130" style="" class="basic label-container"/><g transform="translate(-100, -24)" style="" class="label"><rect/><foreignObject height="48" width="200"><div style="display: table; white-space: break-spaces; line-height: 1.5; max-width: 200px; text-align: center; width: 200px;" xmlns="http://www.w3.org/1999/xhtml"><span class="nodeLabel"><p>Split devices into affected and unaffected</p></span></div></foreignObject></g></g><g transform="translate(613, 1305.65625)" id="flowchart-K-19" class="node default"><rect height="54" width="255.640625" y="-27" x="-127.8203125" style="" class="basic label-container"/><g transform="translate(-97.8203125, -12)" style="" class="label"><rect/><foreignObject height="24" width="195.640625"><div style="display: table-cell; white-space: nowrap; line-height: 1.5; max-width: 200px; text-align: center;" xmlns="http://www.w3.org/1999/xhtml"><span class="nodeLabel"><p>Print unaffected device list</p></span></div></foreignObject></g></g><g transform="translate(613, 1458.65625)" id="flowchart-L-21" class="node default"><rect height="78" width="260" y="-39" x="-130" style="" class="basic label-container"/><g transform="translate(-100, -24)" style="" class="label"><rect/><foreignObject height="48" width="200"><div style="display: table; white-space: break-spaces; line-height: 1.5; max-width: 200px; text-align: center; width: 200px;" xmlns="http://www.w3.org/1999/xhtml"><span class="nodeLabel"><p>Print starting firewall connections</p></span></div></foreignObject></g></g><g transform="translate(613, 1641.390625)" id="flowchart-M-23" class="node default"><polygon transform="translate(-93.734375,93.734375)" class="label-container" points="93.734375,0 187.46875,-93.734375 93.734375,-187.46875 0,-93.734375"/><g transform="translate(-66.734375, -12)" style="" class="label"><rect/><foreignObject height="24" width="133.46875"><div style="display: table-cell; white-space: nowrap; line-height: 1.5; max-width: 200px; text-align: center;" xmlns="http://www.w3.org/1999/xhtml"><span class="nodeLabel"><p>Report-only mode?</p></span></div></foreignObject></g></g><g transform="translate(138, 2577.609375)" id="flowchart-N-25" class="node default"><rect height="78" width="260" y="-39" x="-130" style="" class="basic label-container"/><g transform="translate(-100, -24)" style="" class="label"><rect/><foreignObject height="48" width="200"><div style="display: table; white-space: break-spaces; line-height: 1.5; max-width: 200px; text-align: center; width: 200px;" xmlns="http://www.w3.org/1999/xhtml"><span class="nodeLabel"><p>Set 'Skipped' message for unaffected devices</p></span></div></foreignObject></g></g><g transform="translate(933, 1848.125)" id="flowchart-O-27" class="node default"><rect height="78" width="260" y="-39" x="-130" style="" class="basic label-container"/><g transform="translate(-100, -24)" style="" class="label"><rect/><foreignObject height="48" width="200"><div style="display: table; white-space: break-spaces; line-height: 1.5; max-width: 200px; text-align: center; width: 200px;" xmlns="http://www.w3.org/1999/xhtml"><span class="nodeLabel"><p>Create channels and WaitGroup</p></span></div></foreignObject></g></g><g transform="translate(933, 1976.125)" id="flowchart-P-29" class="node default"><rect height="78" width="260" y="-39" x="-130" style="" class="basic label-container"/><g transform="translate(-100, -24)" style="" class="label"><rect/><foreignObject height="48" width="200"><div style="display: table; white-space: break-spaces; line-height: 1.5; max-width: 200px; text-align: center; width: 200px;" xmlns="http://www.w3.org/1999/xhtml"><span class="nodeLabel"><p>Start goroutines for each unaffected device</p></span></div></foreignObject></g></g><g transform="translate(933, 2153.125)" id="flowchart-Q-31" class="node default"><rect height="78" width="260" y="-39" x="-130" style="" class="basic label-container"/><g transform="translate(-100, -24)" style="" class="label"><rect/><foreignObject height="48" width="200"><div style="display: table; white-space: break-spaces; line-height: 1.5; max-width: 200px; text-align: center; width: 200px;" xmlns="http://www.w3.org/1999/xhtml"><span class="nodeLabel"><p>Register WildFire concurrently</p></span></div></foreignObject></g></g><g transform="translate(448, 2353.3671875)" id="flowchart-R-33" class="node default"><rect height="78" width="260" y="-39" x="-130" style="" class="basic label-container"/><g transform="translate(-100, -24)" style="" class="label"><rect/><foreignObject height="48" width="200"><div style="display: table; white-space: break-spaces; line-height: 1.5; max-width: 200px; text-align: center; width: 200px;" xmlns="http://www.w3.org/1999/xhtml"><span class="nodeLabel"><p>Wait for all goroutines to finish</p></span></div></foreignObject></g></g><g transform="translate(448, 2577.609375)" id="flowchart-S-35" class="node default"><rect height="78" width="260" y="-39" x="-130" style="" class="basic label-container"/><g transform="translate(-100, -24)" style="" class="label"><rect/><foreignObject height="48" width="200"><div style="display: table; white-space: break-spaces; line-height: 1.5; max-width: 200px; text-align: center; width: 200px;" xmlns="http://www.w3.org/1999/xhtml"><span class="nodeLabel"><p>Process results and update unaffected devices</p></span></div></foreignObject></g></g><g transform="translate(293, 2718.609375)" id="flowchart-T-37" class="node default"><rect height="54" width="208.5" y="-27" x="-104.25" style="" class="basic label-container"/><g transform="translate(-74.25, -12)" style="" class="label"><rect/><foreignObject height="24" width="148.5"><div style="display: table-cell; white-space: nowrap; line-height: 1.5; max-width: 200px; text-align: center;" xmlns="http://www.w3.org/1999/xhtml"><span class="nodeLabel"><p>Generate PDF report</p></span></div></foreignObject></g></g><g transform="translate(293, 2822.609375)" id="flowchart-U-41" class="node default"><rect height="54" width="146.5625" y="-27" x="-73.28125" style="" class="basic label-container"/><g transform="translate(-43.28125, -12)" style="" class="label"><rect/><foreignObject height="24" width="86.5625"><div style="display: table-cell; white-space: nowrap; line-height: 1.5; max-width: 200px; text-align: center;" xmlns="http://www.w3.org/1999/xhtml"><span class="nodeLabel"><p>Print results</p></span></div></foreignObject></g></g><g transform="translate(293, 2926.609375)" id="flowchart-V-43" class="node default"><rect height="54" width="86.234375" y="-27" x="-43.1171875" style="" class="basic label-container"/><g transform="translate(-13.1171875, -12)" style="" class="label"><rect/><foreignObject height="24" width="26.234375"><div style="display: table-cell; white-space: nowrap; line-height: 1.5; max-width: 200px; text-align: center;" xmlns="http://www.w3.org/1999/xhtml"><span class="nodeLabel"><p>End</p></span></div></foreignObject></g></g><g transform="translate(1096.79296875, 512)" id="flowchart-W-45" class="node default"><rect height="78" width="260" y="-39" x="-130" style="" class="basic label-container"/><g transform="translate(-100, -24)" style="" class="label"><rect/><foreignObject height="48" width="200"><div style="display: table; white-space: break-spaces; line-height: 1.5; max-width: 200px; text-align: center; width: 200px;" xmlns="http://www.w3.org/1999/xhtml"><span class="nodeLabel"><p>Fatal: Failed to load configuration</p></span></div></foreignObject></g></g><g transform="translate(1096.79296875, 808.828125)" id="flowchart-X-47" class="node default"><rect height="78" width="260" y="-39" x="-130" style="" class="basic label-container"/><g transform="translate(-100, -24)" style="" class="label"><rect/><foreignObject height="48" width="200"><div style="display: table; white-space: break-spaces; line-height: 1.5; max-width: 200px; text-align: center; width: 200px;" xmlns="http://www.w3.org/1999/xhtml"><span class="nodeLabel"><p>Fatal: Failed to get device list</p></span></div></foreignObject></g></g><g transform="translate(1251.79296875, 1153.65625)" id="flowchart-Y-49" class="node default"><rect height="78" width="260" y="-39" x="-130" style="" class="basic label-container"/><g transform="translate(-100, -24)" style="" class="label"><rect/><foreignObject height="48" width="200"><div style="display: table; white-space: break-spaces; line-height: 1.5; max-width: 200px; text-align: center; width: 200px;" xmlns="http://www.w3.org/1999/xhtml"><span class="nodeLabel"><p>Fatal: Failed to parse version</p></span></div></foreignObject></g></g><g transform="translate(1096.79296875, 1305.65625)" id="flowchart-Z-51" class="node default"><rect height="78" width="260" y="-39" x="-130" style="" class="basic label-container"/><g transform="translate(-100, -24)" style="" class="label"><rect/><foreignObject height="48" width="200"><div style="display: table; white-space: break-spaces; line-height: 1.5; max-width: 200px; text-align: center; width: 200px;" xmlns="http://www.w3.org/1999/xhtml"><span class="nodeLabel"><p>Fatal: Failed to split devices</p></span></div></foreignObject></g></g><g transform="translate(943, 2353.3671875)" id="flowchart-AA-53" class="node default"><polygon transform="translate(-111.2421875,111.2421875)" class="label-container" points="111.2421875,0 222.484375,-111.2421875 111.2421875,-222.484375 0,-111.2421875"/><g transform="translate(-84.2421875, -12)" style="" class="label"><rect/><foreignObject height="24" width="168.484375"><div style="display: table-cell; white-space: nowrap; line-height: 1.5; max-width: 200px; text-align: center;" xmlns="http://www.w3.org/1999/xhtml"><span class="nodeLabel"><p>Registration successful?</p></span></div></foreignObject></g></g><g transform="translate(788, 2577.609375)" id="flowchart-AB-55" class="node default"><rect height="78" width="260" y="-39" x="-130" style="" class="basic label-container"/><g transform="translate(-100, -24)" style="" class="label"><rect/><foreignObject height="48" width="200"><div style="display: table; white-space: break-spaces; line-height: 1.5; max-width: 200px; text-align: center; width: 200px;" xmlns="http://www.w3.org/1999/xhtml"><span class="nodeLabel"><p>Add success message to results</p></span></div></foreignObject></g></g><g transform="translate(1098, 2577.609375)" id="flowchart-AC-57" class="node default"><rect height="78" width="260" y="-39" x="-130" style="" class="basic label-container"/><g transform="translate(-100, -24)" style="" class="label"><rect/><foreignObject height="48" width="200"><div style="display: table; white-space: break-spaces; line-height: 1.5; max-width: 200px; text-align: center; width: 200px;" xmlns="http://www.w3.org/1999/xhtml"><span class="nodeLabel"><p>Add failure message to results</p></span></div></foreignObject></g></g></g></g></g></svg>