<svg aria-roledescription="er" role="graphics-document document" viewBox="0 -62 1340 2277" style="max-width: 1340px; background-color: white;" xmlns:xlink="http://www.w3.org/1999/xlink" xmlns="http://www.w3.org/2000/svg" width="100%" id="my-svg"><style>#my-svg{font-family:"trebuchet ms",verdana,arial,sans-serif;font-size:16px;fill:#333;}#my-svg .error-icon{fill:#552222;}#my-svg .error-text{fill:#552222;stroke:#552222;}#my-svg .edge-thickness-normal{stroke-width:1px;}#my-svg .edge-thickness-thick{stroke-width:3.5px;}#my-svg .edge-pattern-solid{stroke-dasharray:0;}#my-svg .edge-thickness-invisible{stroke-width:0;fill:none;}#my-svg .edge-pattern-dashed{stroke-dasharray:3;}#my-svg .edge-pattern-dotted{stroke-dasharray:2;}#my-svg .marker{fill:#333333;stroke:#333333;}#my-svg .marker.cross{stroke:#333333;}#my-svg svg{font-family:"trebuchet ms",verdana,arial,sans-serif;font-size:16px;}#my-svg p{margin:0;}#my-svg .entityBox{fill:#ECECFF;stroke:#9370DB;}#my-svg .attributeBoxOdd{fill:#ffffff;stroke:#9370DB;}#my-svg .attributeBoxEven{fill:#f2f2f2;stroke:#9370DB;}#my-svg .relationshipLabelBox{fill:hsl(80, 100%, 96.2745098039%);opacity:0.7;background-color:hsl(80, 100%, 96.2745098039%);}#my-svg .relationshipLabelBox rect{opacity:0.5;}#my-svg .relationshipLine{stroke:#333333;}#my-svg .entityTitleText{text-anchor:middle;font-size:18px;fill:#333;}#my-svg #MD_PARENT_START{fill:#f5f5f5!important;stroke:#333333!important;stroke-width:1;}#my-svg #MD_PARENT_END{fill:#f5f5f5!important;stroke:#333333!important;stroke-width:1;}#my-svg :root{--mermaid-font-family:"trebuchet ms",verdana,arial,sans-serif;}</style><g/><defs><marker orient="auto" markerHeight="240" markerWidth="190" refY="7" refX="0" id="MD_PARENT_START"><path d="M 18,7 L9,13 L1,7 L9,1 Z"/></marker></defs><defs><marker orient="auto" markerHeight="28" markerWidth="20" refY="7" refX="19" id="MD_PARENT_END"><path d="M 18,7 L9,13 L1,7 L9,1 Z"/></marker></defs><defs><marker orient="auto" markerHeight="18" markerWidth="18" refY="9" refX="0" id="ONLY_ONE_START"><path d="M9,0 L9,18 M15,0 L15,18" fill="none" stroke="gray"/></marker></defs><defs><marker orient="auto" markerHeight="18" markerWidth="18" refY="9" refX="18" id="ONLY_ONE_END"><path d="M3,0 L3,18 M9,0 L9,18" fill="none" stroke="gray"/></marker></defs><defs><marker orient="auto" markerHeight="18" markerWidth="30" refY="9" refX="0" id="ZERO_OR_ONE_START"><circle r="6" cy="9" cx="21" fill="white" stroke="gray"/><path d="M9,0 L9,18" fill="none" stroke="gray"/></marker></defs><defs><marker orient="auto" markerHeight="18" markerWidth="30" refY="9" refX="30" id="ZERO_OR_ONE_END"><circle r="6" cy="9" cx="9" fill="white" stroke="gray"/><path d="M21,0 L21,18" fill="none" stroke="gray"/></marker></defs><defs><marker orient="auto" markerHeight="36" markerWidth="45" refY="18" refX="18" id="ONE_OR_MORE_START"><path d="M0,18 Q 18,0 36,18 Q 18,36 0,18 M42,9 L42,27" fill="none" stroke="gray"/></marker></defs><defs><marker orient="auto" markerHeight="36" markerWidth="45" refY="18" refX="27" id="ONE_OR_MORE_END"><path d="M3,9 L3,27 M9,18 Q27,0 45,18 Q27,36 9,18" fill="none" stroke="gray"/></marker></defs><defs><marker orient="auto" markerHeight="36" markerWidth="57" refY="18" refX="18" id="ZERO_OR_MORE_START"><circle r="6" cy="18" cx="48" fill="white" stroke="gray"/><path d="M0,18 Q18,0 36,18 Q18,36 0,18" fill="none" stroke="gray"/></marker></defs><defs><marker orient="auto" markerHeight="36" markerWidth="57" refY="18" refX="39" id="ZERO_OR_MORE_END"><circle r="6" cy="18" cx="9" fill="white" stroke="gray"/><path d="M21,18 Q39,0 57,18 Q39,36 21,18" fill="none" stroke="gray"/></marker></defs><path style="stroke: gray; fill: none;" marker-start="url(#ONLY_ONE_START)" marker-end="url(#ONLY_ONE_END)" d="M570,95L570,103.333C570,111.667,570,128.333,570,145C570,161.667,570,178.333,570,186.667L570,195" class="er relationshipLine"/><path style="stroke: gray; fill: none;" marker-start="url(#ONLY_ONE_START)" marker-end="url(#ONLY_ONE_END)" d="M527.143,270L517.619,278.333C508.095,286.667,489.048,303.333,479.524,320C470,336.667,470,353.333,470,361.667L470,370" class="er relationshipLine"/><path style="stroke: gray; fill: none;" marker-start="url(#ONLY_ONE_START)" marker-end="url(#ONLY_ONE_END)" d="M612.857,270L622.381,278.333C631.905,286.667,650.952,303.333,660.476,320C670,336.667,670,353.333,670,361.667L670,370" class="er relationshipLine"/><path style="stroke: gray; fill: none;" marker-start="url(#ONLY_ONE_START)" marker-end="url(#ONLY_ONE_END)" d="M470,445L470,453.333C470,461.667,470,478.333,470,495C470,511.667,470,528.333,470,536.667L470,545" class="er relationshipLine"/><path style="stroke: gray; fill: none;" marker-start="url(#ONLY_ONE_START)" marker-end="url(#ONLY_ONE_END)" d="M670,445L670,453.333C670,461.667,670,478.333,670,495C670,511.667,670,528.333,670,536.667L670,545" class="er relationshipLine"/><path style="stroke: gray; fill: none;" marker-start="url(#ONLY_ONE_START)" marker-end="url(#ZERO_OR_MORE_END)" d="M620,604.375L595,615.313C570,626.25,520,648.125,495,673.646C470,699.167,470,728.333,470,757.5C470,786.667,470,815.833,470,845C470,874.167,470,903.333,470,932.5C470,961.667,470,990.833,470,1020C470,1049.167,470,1078.333,470,1107.5C470,1136.667,470,1165.833,470,1195C470,1224.167,470,1253.333,470,1282.5C470,1311.667,470,1340.833,470,1370C470,1399.167,470,1428.333,470,1457.5C470,1486.667,470,1515.833,495,1541.354C520,1566.875,570,1588.75,595,1599.688L620,1610.625" class="er relationshipLine"/><path style="stroke: gray; fill: none;" marker-start="url(#ONLY_ONE_START)" marker-end="url(#ZERO_OR_MORE_END)" d="M702.143,620L709.286,628.333C716.429,636.667,730.714,653.333,737.857,670C745,686.667,745,703.333,745,711.667L745,720" class="er relationshipLine"/><path style="stroke: gray; fill: none;" marker-start="url(#ONLY_ONE_START)" marker-end="url(#ZERO_OR_MORE_END)" d="M695,792.5L682.5,801.25C670,810,645,827.5,632.5,850.833C620,874.167,620,903.333,620,932.5C620,961.667,620,990.833,620,1020C620,1049.167,620,1078.333,620,1107.5C620,1136.667,620,1165.833,620,1195C620,1224.167,620,1253.333,620,1282.5C620,1311.667,620,1340.833,620,1370C620,1399.167,620,1428.333,620,1457.5C620,1486.667,620,1515.833,624.762,1538.75C629.524,1561.667,639.048,1578.333,643.81,1586.667L648.571,1595" class="er relationshipLine"/><path style="stroke: gray; fill: none;" marker-start="url(#ONLY_ONE_START)" marker-end="url(#ZERO_OR_MORE_END)" d="M777.143,795L784.286,803.333C791.429,811.667,805.714,828.333,812.857,845C820,861.667,820,878.333,820,886.667L820,895" class="er relationshipLine"/><path style="stroke: gray; fill: none;" marker-start="url(#ONLY_ONE_START)" marker-end="url(#ZERO_OR_MORE_END)" d="M787.857,970L780.714,978.333C773.571,986.667,759.286,1003.333,752.143,1026.25C745,1049.167,745,1078.333,745,1107.5C745,1136.667,745,1165.833,745,1195C745,1224.167,745,1253.333,745,1282.5C745,1311.667,745,1340.833,745,1370C745,1399.167,745,1428.333,745,1457.5C745,1486.667,745,1515.833,737.857,1538.75C730.714,1561.667,716.429,1578.333,709.286,1586.667L702.143,1595" class="er relationshipLine"/><path style="stroke: gray; fill: none;" marker-start="url(#ONLY_ONE_START)" marker-end="url(#ZERO_OR_MORE_END)" d="M862.857,970L872.381,978.333C881.905,986.667,900.952,1003.333,910.476,1020C920,1036.667,920,1053.333,920,1061.667L920,1070" class="er relationshipLine"/><path style="stroke: gray; fill: none;" marker-start="url(#ONLY_ONE_START)" marker-end="url(#ZERO_OR_MORE_END)" d="M898.571,1145L893.81,1153.333C889.048,1161.667,879.524,1178.333,874.762,1201.25C870,1224.167,870,1253.333,870,1282.5C870,1311.667,870,1340.833,870,1370C870,1399.167,870,1428.333,870,1457.5C870,1486.667,870,1515.833,845,1541.354C820,1566.875,770,1588.75,745,1599.688L720,1610.625" class="er relationshipLine"/><path style="stroke: gray; fill: none;" marker-start="url(#ONLY_ONE_START)" marker-end="url(#ZERO_OR_MORE_END)" d="M970,1136.667L986.667,1146.389C1003.333,1156.111,1036.667,1175.556,1053.333,1193.611C1070,1211.667,1070,1228.333,1070,1236.667L1070,1245" class="er relationshipLine"/><path style="stroke: gray; fill: none;" marker-start="url(#ONLY_ONE_START)" marker-end="url(#ZERO_OR_MORE_END)" d="M1037.857,1320L1030.714,1328.333C1023.571,1336.667,1009.286,1353.333,1002.143,1376.25C995,1399.167,995,1428.333,995,1457.5C995,1486.667,995,1515.833,949.167,1542.756C903.333,1569.679,811.667,1594.359,765.833,1606.699L720,1619.038" class="er relationshipLine"/><path style="stroke: gray; fill: none;" marker-start="url(#ONLY_ONE_START)" marker-end="url(#ZERO_OR_MORE_END)" d="M1102.143,1320L1109.286,1328.333C1116.429,1336.667,1130.714,1353.333,1137.857,1370C1145,1386.667,1145,1403.333,1145,1411.667L1145,1420" class="er relationshipLine"/><path style="stroke: gray; fill: none;" marker-start="url(#ONLY_ONE_START)" marker-end="url(#ZERO_OR_MORE_END)" d="M1145,1495L1145,1503.333C1145,1511.667,1145,1528.333,1074.167,1549.715C1003.333,1571.096,861.667,1597.193,790.833,1610.241L720,1623.289" class="er relationshipLine"/><path style="stroke: gray; fill: none;" marker-start="url(#ONLY_ONE_START)" marker-end="url(#ZERO_OR_MORE_END)" d="M620,1639.792L528.333,1653.16C436.667,1666.528,253.333,1693.264,161.667,1714.965C70,1736.667,70,1753.333,70,1761.667L70,1770" class="er relationshipLine"/><path style="stroke: gray; fill: none;" marker-start="url(#ONLY_ONE_START)" marker-end="url(#ZERO_OR_MORE_END)" d="M620,1643.438L561.667,1656.198C503.333,1668.958,386.667,1694.479,328.333,1715.573C270,1736.667,270,1753.333,270,1761.667L270,1770" class="er relationshipLine"/><path style="stroke: gray; fill: none;" marker-start="url(#ONLY_ONE_START)" marker-end="url(#ZERO_OR_MORE_END)" d="M620,1654.375L595,1665.313C570,1676.25,520,1698.125,495,1717.396C470,1736.667,470,1753.333,470,1761.667L470,1770" class="er relationshipLine"/><path style="stroke: gray; fill: none;" marker-start="url(#ONLY_ONE_START)" marker-end="url(#ZERO_OR_MORE_END)" d="M620,1654.375L595,1665.313C570,1676.25,520,1698.125,495,1717.396C470,1736.667,470,1753.333,470,1761.667L470,1770" class="er relationshipLine"/><path style="stroke: gray; fill: none;" marker-start="url(#ONLY_ONE_START)" marker-end="url(#ZERO_OR_MORE_END)" d="M670,1670L670,1678.333C670,1686.667,670,1703.333,670,1720C670,1736.667,670,1753.333,670,1761.667L670,1770" class="er relationshipLine"/><path style="stroke: gray; fill: none;" marker-start="url(#ONLY_ONE_START)" marker-end="url(#ZERO_OR_MORE_END)" d="M720,1654.375L745,1665.313C770,1676.25,820,1698.125,845,1717.396C870,1736.667,870,1753.333,870,1761.667L870,1770" class="er relationshipLine"/><path style="stroke: gray; fill: none;" marker-start="url(#ONLY_ONE_START)" marker-end="url(#ZERO_OR_MORE_END)" d="M720,1643.438L778.333,1656.198C836.667,1668.958,953.333,1694.479,1011.667,1715.573C1070,1736.667,1070,1753.333,1070,1761.667L1070,1770" class="er relationshipLine"/><path style="stroke: gray; fill: none;" marker-start="url(#ONLY_ONE_START)" marker-end="url(#ZERO_OR_MORE_END)" d="M720,1639.792L811.667,1653.16C903.333,1666.528,1086.667,1693.264,1178.333,1714.965C1270,1736.667,1270,1753.333,1270,1761.667L1270,1770" class="er relationshipLine"/><path style="stroke: gray; fill: none;" marker-start="url(#ONLY_ONE_START)" marker-end="url(#ZERO_OR_MORE_END)" d="M70,1845L70,1853.333C70,1861.667,70,1878.333,70,1895C70,1911.667,70,1928.333,70,1936.667L70,1945" class="er relationshipLine"/><path style="stroke: gray; fill: none;" marker-start="url(#ONLY_ONE_START)" marker-end="url(#ZERO_OR_MORE_END)" d="M270,1845L270,1853.333C270,1861.667,270,1878.333,279.524,1895C289.048,1911.667,308.095,1928.333,317.619,1936.667L327.143,1945" class="er relationshipLine"/><path style="stroke: gray; fill: none;" marker-start="url(#ONLY_ONE_START)" marker-end="url(#ZERO_OR_MORE_END)" d="M470,1845L470,1853.333C470,1861.667,470,1878.333,460.476,1895C450.952,1911.667,431.905,1928.333,422.381,1936.667L412.857,1945" class="er relationshipLine"/><path style="stroke: gray; fill: none;" marker-start="url(#ONLY_ONE_START)" marker-end="url(#ZERO_OR_MORE_END)" d="M670,1845L670,1853.333C670,1861.667,670,1878.333,670,1895C670,1911.667,670,1928.333,670,1936.667L670,1945" class="er relationshipLine"/><path style="stroke: gray; fill: none;" marker-start="url(#ONLY_ONE_START)" marker-end="url(#ZERO_OR_MORE_END)" d="M670,2020L670,2028.333C670,2036.667,670,2053.333,670,2070C670,2086.667,670,2103.333,670,2111.667L670,2120" class="er relationshipLine"/><g transform="translate(520,20 )" id="entity-DOCUMENT-930a1042-f082-53f3-9c67-66f432d02c38"><rect height="75" width="100" y="0" x="0" class="er entityBox"/><text style="dominant-baseline: middle; text-anchor: middle; font-size: 12px;" transform="translate(50,37.5)" y="0" x="0" id="text-entity-DOCUMENT-930a1042-f082-53f3-9c67-66f432d02c38" class="er entityLabel">DOCUMENT</text></g><g transform="translate(520,195 )" id="entity-HTML-cf2de8a2-d5d2-52ee-8b46-354762b09b6f"><rect height="75" width="100" y="0" x="0" class="er entityBox"/><text style="dominant-baseline: middle; text-anchor: middle; font-size: 12px;" transform="translate(50,37.5)" y="0" x="0" id="text-entity-HTML-cf2de8a2-d5d2-52ee-8b46-354762b09b6f" class="er entityLabel">HTML</text></g><g transform="translate(420,370 )" id="entity-HEAD-9b0efcc5-3104-52fa-a585-7c731a593bfb"><rect height="75" width="100" y="0" x="0" class="er entityBox"/><text style="dominant-baseline: middle; text-anchor: middle; font-size: 12px;" transform="translate(50,37.5)" y="0" x="0" id="text-entity-HEAD-9b0efcc5-3104-52fa-a585-7c731a593bfb" class="er entityLabel">HEAD</text></g><g transform="translate(620,370 )" id="entity-BODY-bde634e1-2d4a-5104-8ba4-f5431ed4e1cf"><rect height="75" width="100" y="0" x="0" class="er entityBox"/><text style="dominant-baseline: middle; text-anchor: middle; font-size: 12px;" transform="translate(50,37.5)" y="0" x="0" id="text-entity-BODY-bde634e1-2d4a-5104-8ba4-f5431ed4e1cf" class="er entityLabel">BODY</text></g><g transform="translate(420,545 )" id="entity-METADATA-a1453df0-012f-57e8-8913-2cd6dbb27e66"><rect height="75" width="100" y="0" x="0" class="er entityBox"/><text style="dominant-baseline: middle; text-anchor: middle; font-size: 12px;" transform="translate(50,37.5)" y="0" x="0" id="text-entity-METADATA-a1453df0-012f-57e8-8913-2cd6dbb27e66" class="er entityLabel">METADATA</text></g><g transform="translate(620,545 )" id="entity-H1-9331f23f-dac2-55c2-94ee-5ac19bb2a061"><rect height="75" width="100" y="0" x="0" class="er entityBox"/><text style="dominant-baseline: middle; text-anchor: middle; font-size: 12px;" transform="translate(50,37.5)" y="0" x="0" id="text-entity-H1-9331f23f-dac2-55c2-94ee-5ac19bb2a061" class="er entityLabel">H1</text></g><g transform="translate(620,1595 )" id="entity-MDOBJECT-c54ea4f3-6606-55d6-90ea-83447d96d98d"><rect height="75" width="100" y="0" x="0" class="er entityBox"/><text style="dominant-baseline: middle; text-anchor: middle; font-size: 12px;" transform="translate(50,37.5)" y="0" x="0" id="text-entity-MDOBJECT-c54ea4f3-6606-55d6-90ea-83447d96d98d" class="er entityLabel">MD-OBJECT</text></g><g transform="translate(695,720 )" id="entity-H2-f87210bb-2a1b-543a-9ddb-733b6794abb3"><rect height="75" width="100" y="0" x="0" class="er entityBox"/><text style="dominant-baseline: middle; text-anchor: middle; font-size: 12px;" transform="translate(50,37.5)" y="0" x="0" id="text-entity-H2-f87210bb-2a1b-543a-9ddb-733b6794abb3" class="er entityLabel">H2</text></g><g transform="translate(770,895 )" id="entity-H3-a39c309d-5f0b-5de7-8eb6-66ca10ac2027"><rect height="75" width="100" y="0" x="0" class="er entityBox"/><text style="dominant-baseline: middle; text-anchor: middle; font-size: 12px;" transform="translate(50,37.5)" y="0" x="0" id="text-entity-H3-a39c309d-5f0b-5de7-8eb6-66ca10ac2027" class="er entityLabel">H3</text></g><g transform="translate(870,1070 )" id="entity-H4-16104ce4-cbde-55b0-918c-6a05f18ee817"><rect height="75" width="100" y="0" x="0" class="er entityBox"/><text style="dominant-baseline: middle; text-anchor: middle; font-size: 12px;" transform="translate(50,37.5)" y="0" x="0" id="text-entity-H4-16104ce4-cbde-55b0-918c-6a05f18ee817" class="er entityLabel">H4</text></g><g transform="translate(1020,1245 )" id="entity-H5-793d8260-7393-581f-a9e5-9576ddfa146d"><rect height="75" width="100" y="0" x="0" class="er entityBox"/><text style="dominant-baseline: middle; text-anchor: middle; font-size: 12px;" transform="translate(50,37.5)" y="0" x="0" id="text-entity-H5-793d8260-7393-581f-a9e5-9576ddfa146d" class="er entityLabel">H5</text></g><g transform="translate(1095,1420 )" id="entity-H6-ed980d90-39ac-57e2-9900-4a1a90238b7b"><rect height="75" width="100" y="0" x="0" class="er entityBox"/><text style="dominant-baseline: middle; text-anchor: middle; font-size: 12px;" transform="translate(50,37.5)" y="0" x="0" id="text-entity-H6-ed980d90-39ac-57e2-9900-4a1a90238b7b" class="er entityLabel">H6</text></g><g transform="translate(20,1770 )" id="entity-P-4e5a9182-8659-58bc-9e87-d72fdca7c32b"><rect height="75" width="100" y="0" x="0" class="er entityBox"/><text style="dominant-baseline: middle; text-anchor: middle; font-size: 12px;" transform="translate(50,37.5)" y="0" x="0" id="text-entity-P-4e5a9182-8659-58bc-9e87-d72fdca7c32b" class="er entityLabel">P</text></g><g transform="translate(220,1770 )" id="entity-OL-825ae48e-633f-5c94-be82-fca3c66a53f2"><rect height="75" width="100" y="0" x="0" class="er entityBox"/><text style="dominant-baseline: middle; text-anchor: middle; font-size: 12px;" transform="translate(50,37.5)" y="0" x="0" id="text-entity-OL-825ae48e-633f-5c94-be82-fca3c66a53f2" class="er entityLabel">OL</text></g><g transform="translate(420,1770 )" id="entity-UL-b1519cf7-2f52-53d2-b392-6a1cffc4ef0b"><rect height="75" width="100" y="0" x="0" class="er entityBox"/><text style="dominant-baseline: middle; text-anchor: middle; font-size: 12px;" transform="translate(50,37.5)" y="0" x="0" id="text-entity-UL-b1519cf7-2f52-53d2-b392-6a1cffc4ef0b" class="er entityLabel">UL</text></g><g transform="translate(620,1770 )" id="entity-TABLE-a27f74dd-5df1-5a8e-aca8-fa10be37f872"><rect height="75" width="100" y="0" x="0" class="er entityBox"/><text style="dominant-baseline: middle; text-anchor: middle; font-size: 12px;" transform="translate(50,37.5)" y="0" x="0" id="text-entity-TABLE-a27f74dd-5df1-5a8e-aca8-fa10be37f872" class="er entityLabel">TABLE</text></g><g transform="translate(820,1770 )" id="entity-CODE-974822f3-13ca-5fd5-a8f0-59c4b8f61f97"><rect height="75" width="100" y="0" x="0" class="er entityBox"/><text style="dominant-baseline: middle; text-anchor: middle; font-size: 12px;" transform="translate(50,37.5)" y="0" x="0" id="text-entity-CODE-974822f3-13ca-5fd5-a8f0-59c4b8f61f97" class="er entityLabel">CODE</text></g><g transform="translate(1020,1770 )" id="entity-ALERT-2749889f-e9d1-5df4-b3d9-85dfbb849560"><rect height="75" width="100" y="0" x="0" class="er entityBox"/><text style="dominant-baseline: middle; text-anchor: middle; font-size: 12px;" transform="translate(50,37.5)" y="0" x="0" id="text-entity-ALERT-2749889f-e9d1-5df4-b3d9-85dfbb849560" class="er entityLabel">ALERT</text></g><g transform="translate(1220,1770 )" id="entity-FIGURE-aaac79a6-8fbd-5f2c-ad64-92a336078c51"><rect height="75" width="100" y="0" x="0" class="er entityBox"/><text style="dominant-baseline: middle; text-anchor: middle; font-size: 12px;" transform="translate(50,37.5)" y="0" x="0" id="text-entity-FIGURE-aaac79a6-8fbd-5f2c-ad64-92a336078c51" class="er entityLabel">FIGURE</text></g><g transform="translate(20,1945 )" id="entity-LINK-0f465eb1-1d37-537d-829e-8b3f7c132a9a"><rect height="75" width="100" y="0" x="0" class="er entityBox"/><text style="dominant-baseline: middle; text-anchor: middle; font-size: 12px;" transform="translate(50,37.5)" y="0" x="0" id="text-entity-LINK-0f465eb1-1d37-537d-829e-8b3f7c132a9a" class="er entityLabel">LINK</text></g><g transform="translate(320,1945 )" id="entity-LI-d326d719-297e-5ef0-ade4-b06b4f985159"><rect height="75" width="100" y="0" x="0" class="er entityBox"/><text style="dominant-baseline: middle; text-anchor: middle; font-size: 12px;" transform="translate(50,37.5)" y="0" x="0" id="text-entity-LI-d326d719-297e-5ef0-ade4-b06b4f985159" class="er entityLabel">LI</text></g><g transform="translate(620,1945 )" id="entity-ROW-62add83a-b713-54a5-9a67-d27e24870b63"><rect height="75" width="100" y="0" x="0" class="er entityBox"/><text style="dominant-baseline: middle; text-anchor: middle; font-size: 12px;" transform="translate(50,37.5)" y="0" x="0" id="text-entity-ROW-62add83a-b713-54a5-9a67-d27e24870b63" class="er entityLabel">ROW</text></g><g transform="translate(620,2120 )" id="entity-COLUMN-7f883bc8-a7c5-556e-aa76-b26629a09ce0"><rect height="75" width="100" y="0" x="0" class="er entityBox"/><text style="dominant-baseline: middle; text-anchor: middle; font-size: 12px;" transform="translate(50,37.5)" y="0" x="0" id="text-entity-COLUMN-7f883bc8-a7c5-556e-aa76-b26629a09ce0" class="er entityLabel">COLUMN</text></g><rect height="14" width="26.15625" y="138" x="556.921875" class="er relationshipLabelBox"/><text style="text-anchor: middle; dominant-baseline: middle; font-size: 12px;" y="145" x="570" id="rel1" class="er relationshipLabel">child</text><rect height="14" width="26.15625" y="305.5645446777344" x="471.2837829589844" class="er relationshipLabelBox"/><text style="text-anchor: middle; dominant-baseline: middle; font-size: 12px;" y="312.5645446777344" x="484.3619079589844" id="rel2" class="er relationshipLabel">child</text><rect height="14" width="26.15625" y="305.5645751953125" x="642.5599365234375" class="er relationshipLabelBox"/><text style="text-anchor: middle; dominant-baseline: middle; font-size: 12px;" y="312.5645751953125" x="655.6380615234375" id="rel3" class="er relationshipLabel">child</text><rect height="14" width="26.15625" y="488" x="456.921875" class="er relationshipLabelBox"/><text style="text-anchor: middle; dominant-baseline: middle; font-size: 12px;" y="495" x="470" id="rel4" class="er relationshipLabel">child</text><rect height="14" width="26.15625" y="488" x="656.921875" class="er relationshipLabelBox"/><text style="text-anchor: middle; dominant-baseline: middle; font-size: 12px;" y="495" x="670" id="rel5" class="er relationshipLabel">child</text><rect height="14" width="26.15625" y="1100.5001220703125" x="456.921875" class="er relationshipLabelBox"/><text style="text-anchor: middle; dominant-baseline: middle; font-size: 12px;" y="1107.5001220703125" x="470" id="rel6" class="er relationshipLabel">child</text><rect height="14" width="26.15625" y="658.1257934570312" x="722.4953002929688" class="er relationshipLabelBox"/><text style="text-anchor: middle; dominant-baseline: middle; font-size: 12px;" y="665.1257934570312" x="735.5734252929688" id="rel7" class="er relationshipLabel">child</text><rect height="14" width="26.15625" y="1174.55615234375" x="606.921875" class="er relationshipLabelBox"/><text style="text-anchor: middle; dominant-baseline: middle; font-size: 12px;" y="1181.55615234375" x="620" id="rel8" class="er relationshipLabel">child</text><rect height="14" width="26.15625" y="833.1257934570312" x="797.4953002929688" class="er relationshipLabelBox"/><text style="text-anchor: middle; dominant-baseline: middle; font-size: 12px;" y="840.1257934570312" x="810.5734252929688" id="rel9" class="er relationshipLabel">child</text><rect height="14" width="26.15625" y="1275.5" x="731.921875" class="er relationshipLabelBox"/><text style="text-anchor: middle; dominant-baseline: middle; font-size: 12px;" y="1282.5" x="745" id="rel10" class="er relationshipLabel">child</text><rect height="14" width="26.15625" y="1005.5645751953125" x="892.5599365234375" class="er relationshipLabelBox"/><text style="text-anchor: middle; dominant-baseline: middle; font-size: 12px;" y="1012.5645751953125" x="905.6380615234375" id="rel11" class="er relationshipLabel">child</text><rect height="14" width="26.15625" y="1408.4884033203125" x="856.921875" class="er relationshipLabelBox"/><text style="text-anchor: middle; dominant-baseline: middle; font-size: 12px;" y="1415.4884033203125" x="870" id="rel12" class="er relationshipLabel">child</text><rect height="14" width="26.15625" y="1171.52392578125" x="1023.2764892578125" class="er relationshipLabelBox"/><text style="text-anchor: middle; dominant-baseline: middle; font-size: 12px;" y="1178.52392578125" x="1036.3546142578125" id="rel13" class="er relationshipLabel">child</text><rect height="14" width="26.15625" y="1533.12890625" x="940.4047241210938" class="er relationshipLabelBox"/><text style="text-anchor: middle; dominant-baseline: middle; font-size: 12px;" y="1540.12890625" x="953.4828491210938" id="rel14" class="er relationshipLabel">child</text><rect height="14" width="26.15625" y="1358.1259765625" x="1122.494873046875" class="er relationshipLabelBox"/><text style="text-anchor: middle; dominant-baseline: middle; font-size: 12px;" y="1365.1259765625" x="1135.572998046875" id="rel15" class="er relationshipLabel">child</text><rect height="14" width="26.15625" y="1573.3590087890625" x="932.7583618164062" class="er relationshipLabelBox"/><text style="text-anchor: middle; dominant-baseline: middle; font-size: 12px;" y="1580.3590087890625" x="945.8364868164062" id="rel16" class="er relationshipLabel">child</text><rect height="14" width="26.15625" y="1675.930419921875" x="319.6173095703125" class="er relationshipLabelBox"/><text style="text-anchor: middle; dominant-baseline: middle; font-size: 12px;" y="1682.930419921875" x="332.6954345703125" id="rel17" class="er relationshipLabel">child</text><rect height="14" width="26.15625" y="1679.222900390625" x="417.8149108886719" class="er relationshipLabelBox"/><text style="text-anchor: middle; dominant-baseline: middle; font-size: 12px;" y="1686.222900390625" x="430.8930358886719" id="rel18" class="er relationshipLabel">child</text><rect height="14" width="26.15625" y="1689.657470703125" x="515.45654296875" class="er relationshipLabelBox"/><text style="text-anchor: middle; dominant-baseline: middle; font-size: 12px;" y="1696.657470703125" x="528.53466796875" id="rel19" class="er relationshipLabel">child</text><rect height="14" width="26.15625" y="1689.657470703125" x="515.45654296875" class="er relationshipLabelBox"/><text style="text-anchor: middle; dominant-baseline: middle; font-size: 12px;" y="1696.657470703125" x="528.53466796875" id="rel20" class="er relationshipLabel">child</text><rect height="14" width="26.15625" y="1713" x="656.921875" class="er relationshipLabelBox"/><text style="text-anchor: middle; dominant-baseline: middle; font-size: 12px;" y="1720" x="670" id="rel21" class="er relationshipLabel">child</text><rect height="14" width="26.15625" y="1689.657470703125" x="798.38720703125" class="er relationshipLabelBox"/><text style="text-anchor: middle; dominant-baseline: middle; font-size: 12px;" y="1696.657470703125" x="811.46533203125" id="rel22" class="er relationshipLabel">child</text><rect height="14" width="26.15625" y="1679.222900390625" x="896.02880859375" class="er relationshipLabelBox"/><text style="text-anchor: middle; dominant-baseline: middle; font-size: 12px;" y="1686.222900390625" x="909.10693359375" id="rel23" class="er relationshipLabel">child</text><rect height="14" width="26.15625" y="1675.930419921875" x="994.2264404296875" class="er relationshipLabelBox"/><text style="text-anchor: middle; dominant-baseline: middle; font-size: 12px;" y="1682.930419921875" x="1007.3045654296875" id="rel24" class="er relationshipLabel">child</text><rect height="14" width="26.15625" y="1888" x="56.921875" class="er relationshipLabelBox"/><text style="text-anchor: middle; dominant-baseline: middle; font-size: 12px;" y="1895" x="70" id="rel25" class="er relationshipLabel">child</text><rect height="14" width="26.15625" y="1895.434814453125" x="271.2845458984375" class="er relationshipLabelBox"/><text style="text-anchor: middle; dominant-baseline: middle; font-size: 12px;" y="1902.434814453125" x="284.3626708984375" id="rel26" class="er relationshipLabel">child</text><rect height="14" width="26.15625" y="1895.434814453125" x="442.5592041015625" class="er relationshipLabelBox"/><text style="text-anchor: middle; dominant-baseline: middle; font-size: 12px;" y="1902.434814453125" x="455.6373291015625" id="rel27" class="er relationshipLabel">child</text><rect height="14" width="26.15625" y="1888" x="656.921875" class="er relationshipLabelBox"/><text style="text-anchor: middle; dominant-baseline: middle; font-size: 12px;" y="1895" x="670" id="rel28" class="er relationshipLabel">child</text><rect height="14" width="26.15625" y="2063" x="656.921875" class="er relationshipLabelBox"/><text style="text-anchor: middle; dominant-baseline: middle; font-size: 12px;" y="2070" x="670" id="rel29" class="er relationshipLabel">child</text><text class="entityTitleText" y="-25" x="670" text-anchor="middle">Article (Doc) and Learn (Unit) Model [2.26.23]</text></svg>