<svg aria-roledescription="er" role="graphics-document document" viewBox="0 0 1011.734375 744.826171875" style="max-width: 1011.73px; background-color: white;" xmlns:xlink="http://www.w3.org/1999/xlink" xmlns="http://www.w3.org/2000/svg" width="100%" id="my-svg"><style>#my-svg{font-family:"trebuchet ms",verdana,arial,sans-serif;font-size:16px;fill:#333;}#my-svg .error-icon{fill:#552222;}#my-svg .error-text{fill:#552222;stroke:#552222;}#my-svg .edge-thickness-normal{stroke-width:1px;}#my-svg .edge-thickness-thick{stroke-width:3.5px;}#my-svg .edge-pattern-solid{stroke-dasharray:0;}#my-svg .edge-thickness-invisible{stroke-width:0;fill:none;}#my-svg .edge-pattern-dashed{stroke-dasharray:3;}#my-svg .edge-pattern-dotted{stroke-dasharray:2;}#my-svg .marker{fill:#333333;stroke:#333333;}#my-svg .marker.cross{stroke:#333333;}#my-svg svg{font-family:"trebuchet ms",verdana,arial,sans-serif;font-size:16px;}#my-svg p{margin:0;}#my-svg .entityBox{fill:#ECECFF;stroke:#9370DB;}#my-svg .attributeBoxOdd{fill:#ffffff;stroke:#9370DB;}#my-svg .attributeBoxEven{fill:#f2f2f2;stroke:#9370DB;}#my-svg .relationshipLabelBox{fill:hsl(80, 100%, 96.2745098039%);opacity:0.7;background-color:hsl(80, 100%, 96.2745098039%);}#my-svg .relationshipLabelBox rect{opacity:0.5;}#my-svg .relationshipLine{stroke:#333333;}#my-svg .entityTitleText{text-anchor:middle;font-size:18px;fill:#333;}#my-svg #MD_PARENT_START{fill:#f5f5f5!important;stroke:#333333!important;stroke-width:1;}#my-svg #MD_PARENT_END{fill:#f5f5f5!important;stroke:#333333!important;stroke-width:1;}#my-svg :root{--mermaid-font-family:"trebuchet ms",verdana,arial,sans-serif;}</style><g/><defs><marker orient="auto" markerHeight="240" markerWidth="190" refY="7" refX="0" id="MD_PARENT_START"><path d="M 18,7 L9,13 L1,7 L9,1 Z"/></marker></defs><defs><marker orient="auto" markerHeight="28" markerWidth="20" refY="7" refX="19" id="MD_PARENT_END"><path d="M 18,7 L9,13 L1,7 L9,1 Z"/></marker></defs><defs><marker orient="auto" markerHeight="18" markerWidth="18" refY="9" refX="0" id="ONLY_ONE_START"><path d="M9,0 L9,18 M15,0 L15,18" fill="none" stroke="gray"/></marker></defs><defs><marker orient="auto" markerHeight="18" markerWidth="18" refY="9" refX="18" id="ONLY_ONE_END"><path d="M3,0 L3,18 M9,0 L9,18" fill="none" stroke="gray"/></marker></defs><defs><marker orient="auto" markerHeight="18" markerWidth="30" refY="9" refX="0" id="ZERO_OR_ONE_START"><circle r="6" cy="9" cx="21" fill="white" stroke="gray"/><path d="M9,0 L9,18" fill="none" stroke="gray"/></marker></defs><defs><marker orient="auto" markerHeight="18" markerWidth="30" refY="9" refX="30" id="ZERO_OR_ONE_END"><circle r="6" cy="9" cx="9" fill="white" stroke="gray"/><path d="M21,0 L21,18" fill="none" stroke="gray"/></marker></defs><defs><marker orient="auto" markerHeight="36" markerWidth="45" refY="18" refX="18" id="ONE_OR_MORE_START"><path d="M0,18 Q 18,0 36,18 Q 18,36 0,18 M42,9 L42,27" fill="none" stroke="gray"/></marker></defs><defs><marker orient="auto" markerHeight="36" markerWidth="45" refY="18" refX="27" id="ONE_OR_MORE_END"><path d="M3,9 L3,27 M9,18 Q27,0 45,18 Q27,36 9,18" fill="none" stroke="gray"/></marker></defs><defs><marker orient="auto" markerHeight="36" markerWidth="57" refY="18" refX="18" id="ZERO_OR_MORE_START"><circle r="6" cy="18" cx="48" fill="white" stroke="gray"/><path d="M0,18 Q18,0 36,18 Q18,36 0,18" fill="none" stroke="gray"/></marker></defs><defs><marker orient="auto" markerHeight="36" markerWidth="57" refY="18" refX="39" id="ZERO_OR_MORE_END"><circle r="6" cy="18" cx="9" fill="white" stroke="gray"/><path d="M21,18 Q39,0 57,18 Q39,36 21,18" fill="none" stroke="gray"/></marker></defs><path style="stroke: gray; fill: none;" marker-start="url(#ONLY_ONE_START)" marker-end="url(#ZERO_OR_MORE_END)" d="M84.461,322.367L84.461,330.701C84.461,339.034,84.461,355.701,144.669,378.987C204.878,402.274,325.294,432.18,385.503,447.133L445.711,462.087" class="er relationshipLine"/><path style="stroke: gray; fill: none;" marker-start="url(#ONLY_ONE_START)" marker-end="url(#ZERO_OR_MORE_END)" d="M511.633,534.551L511.633,542.884C511.633,551.217,511.633,567.884,511.633,584.551C511.633,601.217,511.633,617.884,511.633,626.217L511.633,634.551" class="er relationshipLine"/><path style="stroke: gray; fill: none;" marker-start="url(#ONLY_ONE_START)" marker-end="url(#ZERO_OR_MORE_END)" d="M300.383,311.321L300.383,321.496C300.383,331.67,300.383,352.019,324.604,374.357C348.826,396.696,397.268,421.024,421.49,433.188L445.711,445.352" class="er relationshipLine"/><path style="stroke: gray; fill: none;" marker-start="url(#ONLY_ONE_START)" marker-end="url(#ZERO_OR_MORE_END)" d="M511.633,322.321L511.633,330.662C511.633,339.003,511.633,355.685,511.633,372.36C511.633,389.034,511.633,405.701,511.633,414.034L511.633,422.367" class="er relationshipLine"/><path style="stroke: gray; fill: none;" marker-start="url(#ONLY_ONE_START)" marker-end="url(#ZERO_OR_MORE_END)" d="M84.461,110.092L84.461,118.425C84.461,126.758,84.461,143.425,84.461,160.092C84.461,176.758,84.461,193.425,84.461,201.758L84.461,210.092" class="er relationshipLine"/><path style="stroke: gray; fill: none;" marker-start="url(#ONLY_ONE_START)" marker-end="url(#ZERO_OR_MORE_END)" d="M725.82,311.321L725.82,321.496C725.82,331.67,725.82,352.019,701.109,374.433C676.398,396.847,626.977,421.327,602.266,433.567L577.555,445.806" class="er relationshipLine"/><path style="stroke: gray; fill: none;" marker-start="url(#ONLY_ONE_START)" marker-end="url(#ZERO_OR_MORE_END)" d="M939.82,311.321L939.82,321.496C939.82,331.67,939.82,352.019,879.443,377.153C819.065,402.287,698.31,432.206,637.932,447.166L577.555,462.126" class="er relationshipLine"/><g transform="translate(27.6875,210.091796875 )" id="entity-MEMBER-0dec0ffe-bf75-5285-8a95-fadf08c8d17e"><rect height="112.27539348602295" width="113.546875" y="0" x="0" class="er entityBox"/><text style="dominant-baseline: middle; text-anchor: middle; font-size: 12px;" transform="translate(56.7734375,12)" y="0" x="0" id="text-entity-MEMBER-0dec0ffe-bf75-5285-8a95-fadf08c8d17e" class="er entityLabel">MEMBER</text><rect height="22" width="35.75" y="24" x="0" class="er attributeBoxOdd"/><text style="dominant-baseline: middle; font-size: 10.2px;" transform="translate(5,35)" y="0" x="0" id="text-entity-MEMBER-0dec0ffe-bf75-5285-8a95-fadf08c8d17e-attr-1-type" class="er entityLabel">int</text><rect height="22" width="56.234375" y="24" x="35.75" class="er attributeBoxOdd"/><text style="dominant-baseline: middle; font-size: 10.2px;" transform="translate(40.75,35)" y="0" x="0" id="text-entity-MEMBER-0dec0ffe-bf75-5285-8a95-fadf08c8d17e-attr-1-name" class="er entityLabel">memberId</text><rect height="22" width="21.5625" y="24" x="91.984375" class="er attributeBoxOdd"/><text style="dominant-baseline: middle; font-size: 10.2px;" transform="translate(96.984375,35)" y="0" x="0" id="text-entity-MEMBER-0dec0ffe-bf75-5285-8a95-fadf08c8d17e-attr-1-key" class="er entityLabel">PK</text><rect height="22.091797828674316" width="35.75" y="46" x="0" class="er attributeBoxEven"/><text style="dominant-baseline: middle; font-size: 10.2px;" transform="translate(5,57.04589891433716)" y="0" x="0" id="text-entity-MEMBER-0dec0ffe-bf75-5285-8a95-fadf08c8d17e-attr-2-type" class="er entityLabel">string</text><rect height="22.091797828674316" width="56.234375" y="46" x="35.75" class="er attributeBoxEven"/><text style="dominant-baseline: middle; font-size: 10.2px;" transform="translate(40.75,57.04589891433716)" y="0" x="0" id="text-entity-MEMBER-0dec0ffe-bf75-5285-8a95-fadf08c8d17e-attr-2-name" class="er entityLabel">name</text><rect height="22.091797828674316" width="21.5625" y="46" x="91.984375" class="er attributeBoxEven"/><text style="dominant-baseline: middle; font-size: 10.2px;" transform="translate(96.984375,57.04589891433716)" y="0" x="0" id="text-entity-MEMBER-0dec0ffe-bf75-5285-8a95-fadf08c8d17e-attr-2-key" class="er entityLabel"/><rect height="22.091797828674316" width="35.75" y="68.09179782867432" x="0" class="er attributeBoxOdd"/><text style="dominant-baseline: middle; font-size: 10.2px;" transform="translate(5,79.13769674301147)" y="0" x="0" id="text-entity-MEMBER-0dec0ffe-bf75-5285-8a95-fadf08c8d17e-attr-3-type" class="er entityLabel">string</text><rect height="22.091797828674316" width="56.234375" y="68.09179782867432" x="35.75" class="er attributeBoxOdd"/><text style="dominant-baseline: middle; font-size: 10.2px;" transform="translate(40.75,79.13769674301147)" y="0" x="0" id="text-entity-MEMBER-0dec0ffe-bf75-5285-8a95-fadf08c8d17e-attr-3-name" class="er entityLabel">email</text><rect height="22.091797828674316" width="21.5625" y="68.09179782867432" x="91.984375" class="er attributeBoxOdd"/><text style="dominant-baseline: middle; font-size: 10.2px;" transform="translate(96.984375,79.13769674301147)" y="0" x="0" id="text-entity-MEMBER-0dec0ffe-bf75-5285-8a95-fadf08c8d17e-attr-3-key" class="er entityLabel"/><rect height="22.091797828674316" width="35.75" y="90.18359565734863" x="0" class="er attributeBoxEven"/><text style="dominant-baseline: middle; font-size: 10.2px;" transform="translate(5,101.22949457168579)" y="0" x="0" id="text-entity-MEMBER-0dec0ffe-bf75-5285-8a95-fadf08c8d17e-attr-4-type" class="er entityLabel">date</text><rect height="22.091797828674316" width="56.234375" y="90.18359565734863" x="35.75" class="er attributeBoxEven"/><text style="dominant-baseline: middle; font-size: 10.2px;" transform="translate(40.75,101.22949457168579)" y="0" x="0" id="text-entity-MEMBER-0dec0ffe-bf75-5285-8a95-fadf08c8d17e-attr-4-name" class="er entityLabel">joinDate</text><rect height="22.091797828674316" width="21.5625" y="90.18359565734863" x="91.984375" class="er attributeBoxEven"/><text style="dominant-baseline: middle; font-size: 10.2px;" transform="translate(96.984375,101.22949457168579)" y="0" x="0" id="text-entity-MEMBER-0dec0ffe-bf75-5285-8a95-fadf08c8d17e-attr-4-key" class="er entityLabel"/></g><g transform="translate(445.7109375,422.3671875 )" id="entity-MEMBERSHIP-db6d0660-13b0-5094-9d78-6e0f3883f74b"><rect height="112.18359470367432" width="131.84375" y="0" x="0" class="er entityBox"/><text style="dominant-baseline: middle; text-anchor: middle; font-size: 12px;" transform="translate(65.921875,12)" y="0" x="0" id="text-entity-MEMBERSHIP-db6d0660-13b0-5094-9d78-6e0f3883f74b" class="er entityLabel">MEMBERSHIP</text><rect height="22.091796875" width="35.75" y="24" x="0" class="er attributeBoxOdd"/><text style="dominant-baseline: middle; font-size: 10.2px;" transform="translate(5,35.0458984375)" y="0" x="0" id="text-entity-MEMBERSHIP-db6d0660-13b0-5094-9d78-6e0f3883f74b-attr-1-type" class="er entityLabel">int</text><rect height="22.091796875" width="74.53125" y="24" x="35.75" class="er attributeBoxOdd"/><text style="dominant-baseline: middle; font-size: 10.2px;" transform="translate(40.75,35.0458984375)" y="0" x="0" id="text-entity-MEMBERSHIP-db6d0660-13b0-5094-9d78-6e0f3883f74b-attr-1-name" class="er entityLabel">membershipId</text><rect height="22.091796875" width="21.5625" y="24" x="110.28125" class="er attributeBoxOdd"/><text style="dominant-baseline: middle; font-size: 10.2px;" transform="translate(115.28125,35.0458984375)" y="0" x="0" id="text-entity-MEMBERSHIP-db6d0660-13b0-5094-9d78-6e0f3883f74b-attr-1-key" class="er entityLabel">PK</text><rect height="22.091797828674316" width="35.75" y="46.091796875" x="0" class="er attributeBoxEven"/><text style="dominant-baseline: middle; font-size: 10.2px;" transform="translate(5,57.13769578933716)" y="0" x="0" id="text-entity-MEMBERSHIP-db6d0660-13b0-5094-9d78-6e0f3883f74b-attr-2-type" class="er entityLabel">string</text><rect height="22.091797828674316" width="74.53125" y="46.091796875" x="35.75" class="er attributeBoxEven"/><text style="dominant-baseline: middle; font-size: 10.2px;" transform="translate(40.75,57.13769578933716)" y="0" x="0" id="text-entity-MEMBERSHIP-db6d0660-13b0-5094-9d78-6e0f3883f74b-attr-2-name" class="er entityLabel">type</text><rect height="22.091797828674316" width="21.5625" y="46.091796875" x="110.28125" class="er attributeBoxEven"/><text style="dominant-baseline: middle; font-size: 10.2px;" transform="translate(115.28125,57.13769578933716)" y="0" x="0" id="text-entity-MEMBERSHIP-db6d0660-13b0-5094-9d78-6e0f3883f74b-attr-2-key" class="er entityLabel"/><rect height="22" width="35.75" y="68.18359470367432" x="0" class="er attributeBoxOdd"/><text style="dominant-baseline: middle; font-size: 10.2px;" transform="translate(5,79.18359470367432)" y="0" x="0" id="text-entity-MEMBERSHIP-db6d0660-13b0-5094-9d78-6e0f3883f74b-attr-3-type" class="er entityLabel">date</text><rect height="22" width="74.53125" y="68.18359470367432" x="35.75" class="er attributeBoxOdd"/><text style="dominant-baseline: middle; font-size: 10.2px;" transform="translate(40.75,79.18359470367432)" y="0" x="0" id="text-entity-MEMBERSHIP-db6d0660-13b0-5094-9d78-6e0f3883f74b-attr-3-name" class="er entityLabel">startDate</text><rect height="22" width="21.5625" y="68.18359470367432" x="110.28125" class="er attributeBoxOdd"/><text style="dominant-baseline: middle; font-size: 10.2px;" transform="translate(115.28125,79.18359470367432)" y="0" x="0" id="text-entity-MEMBERSHIP-db6d0660-13b0-5094-9d78-6e0f3883f74b-attr-3-key" class="er entityLabel"/><rect height="22" width="35.75" y="90.18359470367432" x="0" class="er attributeBoxEven"/><text style="dominant-baseline: middle; font-size: 10.2px;" transform="translate(5,101.18359470367432)" y="0" x="0" id="text-entity-MEMBERSHIP-db6d0660-13b0-5094-9d78-6e0f3883f74b-attr-4-type" class="er entityLabel">date</text><rect height="22" width="74.53125" y="90.18359470367432" x="35.75" class="er attributeBoxEven"/><text style="dominant-baseline: middle; font-size: 10.2px;" transform="translate(40.75,101.18359470367432)" y="0" x="0" id="text-entity-MEMBERSHIP-db6d0660-13b0-5094-9d78-6e0f3883f74b-attr-4-name" class="er entityLabel">endDate</text><rect height="22" width="21.5625" y="90.18359470367432" x="110.28125" class="er attributeBoxEven"/><text style="dominant-baseline: middle; font-size: 10.2px;" transform="translate(115.28125,101.18359470367432)" y="0" x="0" id="text-entity-MEMBERSHIP-db6d0660-13b0-5094-9d78-6e0f3883f74b-attr-4-key" class="er entityLabel"/></g><g transform="translate(446.15625,634.55078125 )" id="entity-SUBSCRIPTION-94f3d937-f8eb-5596-9824-f1f8ba9bed64"><rect height="90.27539253234863" width="130.953125" y="0" x="0" class="er entityBox"/><text style="dominant-baseline: middle; text-anchor: middle; font-size: 12px;" transform="translate(65.4765625,12)" y="0" x="0" id="text-entity-SUBSCRIPTION-94f3d937-f8eb-5596-9824-f1f8ba9bed64" class="er entityLabel">SUBSCRIPTION</text><rect height="22.091796875" width="35.75" y="24" x="0" class="er attributeBoxOdd"/><text style="dominant-baseline: middle; font-size: 10.2px;" transform="translate(5,35.0458984375)" y="0" x="0" id="text-entity-SUBSCRIPTION-94f3d937-f8eb-5596-9824-f1f8ba9bed64-attr-1-type" class="er entityLabel">int</text><rect height="22.091796875" width="73.640625" y="24" x="35.75" class="er attributeBoxOdd"/><text style="dominant-baseline: middle; font-size: 10.2px;" transform="translate(40.75,35.0458984375)" y="0" x="0" id="text-entity-SUBSCRIPTION-94f3d937-f8eb-5596-9824-f1f8ba9bed64-attr-1-name" class="er entityLabel">subscriptionId</text><rect height="22.091796875" width="21.5625" y="24" x="109.390625" class="er attributeBoxOdd"/><text style="dominant-baseline: middle; font-size: 10.2px;" transform="translate(114.390625,35.0458984375)" y="0" x="0" id="text-entity-SUBSCRIPTION-94f3d937-f8eb-5596-9824-f1f8ba9bed64-attr-1-key" class="er entityLabel">PK</text><rect height="22.091797828674316" width="35.75" y="46.091796875" x="0" class="er attributeBoxEven"/><text style="dominant-baseline: middle; font-size: 10.2px;" transform="translate(5,57.13769578933716)" y="0" x="0" id="text-entity-SUBSCRIPTION-94f3d937-f8eb-5596-9824-f1f8ba9bed64-attr-2-type" class="er entityLabel">float</text><rect height="22.091797828674316" width="73.640625" y="46.091796875" x="35.75" class="er attributeBoxEven"/><text style="dominant-baseline: middle; font-size: 10.2px;" transform="translate(40.75,57.13769578933716)" y="0" x="0" id="text-entity-SUBSCRIPTION-94f3d937-f8eb-5596-9824-f1f8ba9bed64-attr-2-name" class="er entityLabel">price</text><rect height="22.091797828674316" width="21.5625" y="46.091796875" x="109.390625" class="er attributeBoxEven"/><text style="dominant-baseline: middle; font-size: 10.2px;" transform="translate(114.390625,57.13769578933716)" y="0" x="0" id="text-entity-SUBSCRIPTION-94f3d937-f8eb-5596-9824-f1f8ba9bed64-attr-2-key" class="er entityLabel"/><rect height="22.091797828674316" width="35.75" y="68.18359470367432" x="0" class="er attributeBoxOdd"/><text style="dominant-baseline: middle; font-size: 10.2px;" transform="translate(5,79.22949361801147)" y="0" x="0" id="text-entity-SUBSCRIPTION-94f3d937-f8eb-5596-9824-f1f8ba9bed64-attr-3-type" class="er entityLabel">string</text><rect height="22.091797828674316" width="73.640625" y="68.18359470367432" x="35.75" class="er attributeBoxOdd"/><text style="dominant-baseline: middle; font-size: 10.2px;" transform="translate(40.75,79.22949361801147)" y="0" x="0" id="text-entity-SUBSCRIPTION-94f3d937-f8eb-5596-9824-f1f8ba9bed64-attr-3-name" class="er entityLabel">status</text><rect height="22.091797828674316" width="21.5625" y="68.18359470367432" x="109.390625" class="er attributeBoxOdd"/><text style="dominant-baseline: middle; font-size: 10.2px;" transform="translate(114.390625,79.22949361801147)" y="0" x="0" id="text-entity-SUBSCRIPTION-94f3d937-f8eb-5596-9824-f1f8ba9bed64-attr-3-key" class="er entityLabel"/></g><g transform="translate(241.234375,221.1376953125 )" id="entity-BENEFIT-097ea67b-b9ec-53b0-858e-a9c39824b9d6"><rect height="90.18359565734863" width="118.296875" y="0" x="0" class="er entityBox"/><text style="dominant-baseline: middle; text-anchor: middle; font-size: 12px;" transform="translate(59.1484375,12)" y="0" x="0" id="text-entity-BENEFIT-097ea67b-b9ec-53b0-858e-a9c39824b9d6" class="er entityLabel">BENEFIT</text><rect height="22" width="35.75" y="24" x="0" class="er attributeBoxOdd"/><text style="dominant-baseline: middle; font-size: 10.2px;" transform="translate(5,35)" y="0" x="0" id="text-entity-BENEFIT-097ea67b-b9ec-53b0-858e-a9c39824b9d6-attr-1-type" class="er entityLabel">int</text><rect height="22" width="60.984375" y="24" x="35.75" class="er attributeBoxOdd"/><text style="dominant-baseline: middle; font-size: 10.2px;" transform="translate(40.75,35)" y="0" x="0" id="text-entity-BENEFIT-097ea67b-b9ec-53b0-858e-a9c39824b9d6-attr-1-name" class="er entityLabel">benefitId</text><rect height="22" width="21.5625" y="24" x="96.734375" class="er attributeBoxOdd"/><text style="dominant-baseline: middle; font-size: 10.2px;" transform="translate(101.734375,35)" y="0" x="0" id="text-entity-BENEFIT-097ea67b-b9ec-53b0-858e-a9c39824b9d6-attr-1-key" class="er entityLabel">PK</text><rect height="22.091797828674316" width="35.75" y="46" x="0" class="er attributeBoxEven"/><text style="dominant-baseline: middle; font-size: 10.2px;" transform="translate(5,57.04589891433716)" y="0" x="0" id="text-entity-BENEFIT-097ea67b-b9ec-53b0-858e-a9c39824b9d6-attr-2-type" class="er entityLabel">string</text><rect height="22.091797828674316" width="60.984375" y="46" x="35.75" class="er attributeBoxEven"/><text style="dominant-baseline: middle; font-size: 10.2px;" transform="translate(40.75,57.04589891433716)" y="0" x="0" id="text-entity-BENEFIT-097ea67b-b9ec-53b0-858e-a9c39824b9d6-attr-2-name" class="er entityLabel">name</text><rect height="22.091797828674316" width="21.5625" y="46" x="96.734375" class="er attributeBoxEven"/><text style="dominant-baseline: middle; font-size: 10.2px;" transform="translate(101.734375,57.04589891433716)" y="0" x="0" id="text-entity-BENEFIT-097ea67b-b9ec-53b0-858e-a9c39824b9d6-attr-2-key" class="er entityLabel"/><rect height="22.091797828674316" width="35.75" y="68.09179782867432" x="0" class="er attributeBoxOdd"/><text style="dominant-baseline: middle; font-size: 10.2px;" transform="translate(5,79.13769674301147)" y="0" x="0" id="text-entity-BENEFIT-097ea67b-b9ec-53b0-858e-a9c39824b9d6-attr-3-type" class="er entityLabel">string</text><rect height="22.091797828674316" width="60.984375" y="68.09179782867432" x="35.75" class="er attributeBoxOdd"/><text style="dominant-baseline: middle; font-size: 10.2px;" transform="translate(40.75,79.13769674301147)" y="0" x="0" id="text-entity-BENEFIT-097ea67b-b9ec-53b0-858e-a9c39824b9d6-attr-3-name" class="er entityLabel">description</text><rect height="22.091797828674316" width="21.5625" y="68.09179782867432" x="96.734375" class="er attributeBoxOdd"/><text style="dominant-baseline: middle; font-size: 10.2px;" transform="translate(101.734375,79.13769674301147)" y="0" x="0" id="text-entity-BENEFIT-097ea67b-b9ec-53b0-858e-a9c39824b9d6-attr-3-key" class="er entityLabel"/></g><g transform="translate(459.53125,210.1376953125 )" id="entity-EVENT-12434316-4a87-5800-981a-68e9670d1fb3"><rect height="112.18359565734863" width="104.203125" y="0" x="0" class="er entityBox"/><text style="dominant-baseline: middle; text-anchor: middle; font-size: 12px;" transform="translate(52.1015625,12)" y="0" x="0" id="text-entity-EVENT-12434316-4a87-5800-981a-68e9670d1fb3" class="er entityLabel">EVENT</text><rect height="22" width="35.75" y="24" x="0" class="er attributeBoxOdd"/><text style="dominant-baseline: middle; font-size: 10.2px;" transform="translate(5,35)" y="0" x="0" id="text-entity-EVENT-12434316-4a87-5800-981a-68e9670d1fb3-attr-1-type" class="er entityLabel">int</text><rect height="22" width="46.890625" y="24" x="35.75" class="er attributeBoxOdd"/><text style="dominant-baseline: middle; font-size: 10.2px;" transform="translate(40.75,35)" y="0" x="0" id="text-entity-EVENT-12434316-4a87-5800-981a-68e9670d1fb3-attr-1-name" class="er entityLabel">eventId</text><rect height="22" width="21.5625" y="24" x="82.640625" class="er attributeBoxOdd"/><text style="dominant-baseline: middle; font-size: 10.2px;" transform="translate(87.640625,35)" y="0" x="0" id="text-entity-EVENT-12434316-4a87-5800-981a-68e9670d1fb3-attr-1-key" class="er entityLabel">PK</text><rect height="22.091797828674316" width="35.75" y="46" x="0" class="er attributeBoxEven"/><text style="dominant-baseline: middle; font-size: 10.2px;" transform="translate(5,57.04589891433716)" y="0" x="0" id="text-entity-EVENT-12434316-4a87-5800-981a-68e9670d1fb3-attr-2-type" class="er entityLabel">string</text><rect height="22.091797828674316" width="46.890625" y="46" x="35.75" class="er attributeBoxEven"/><text style="dominant-baseline: middle; font-size: 10.2px;" transform="translate(40.75,57.04589891433716)" y="0" x="0" id="text-entity-EVENT-12434316-4a87-5800-981a-68e9670d1fb3-attr-2-name" class="er entityLabel">name</text><rect height="22.091797828674316" width="21.5625" y="46" x="82.640625" class="er attributeBoxEven"/><text style="dominant-baseline: middle; font-size: 10.2px;" transform="translate(87.640625,57.04589891433716)" y="0" x="0" id="text-entity-EVENT-12434316-4a87-5800-981a-68e9670d1fb3-attr-2-key" class="er entityLabel"/><rect height="22" width="35.75" y="68.09179782867432" x="0" class="er attributeBoxOdd"/><text style="dominant-baseline: middle; font-size: 10.2px;" transform="translate(5,79.09179782867432)" y="0" x="0" id="text-entity-EVENT-12434316-4a87-5800-981a-68e9670d1fb3-attr-3-type" class="er entityLabel">date</text><rect height="22" width="46.890625" y="68.09179782867432" x="35.75" class="er attributeBoxOdd"/><text style="dominant-baseline: middle; font-size: 10.2px;" transform="translate(40.75,79.09179782867432)" y="0" x="0" id="text-entity-EVENT-12434316-4a87-5800-981a-68e9670d1fb3-attr-3-name" class="er entityLabel">date</text><rect height="22" width="21.5625" y="68.09179782867432" x="82.640625" class="er attributeBoxOdd"/><text style="dominant-baseline: middle; font-size: 10.2px;" transform="translate(87.640625,79.09179782867432)" y="0" x="0" id="text-entity-EVENT-12434316-4a87-5800-981a-68e9670d1fb3-attr-3-key" class="er entityLabel"/><rect height="22.091797828674316" width="35.75" y="90.09179782867432" x="0" class="er attributeBoxEven"/><text style="dominant-baseline: middle; font-size: 10.2px;" transform="translate(5,101.13769674301147)" y="0" x="0" id="text-entity-EVENT-12434316-4a87-5800-981a-68e9670d1fb3-attr-4-type" class="er entityLabel">string</text><rect height="22.091797828674316" width="46.890625" y="90.09179782867432" x="35.75" class="er attributeBoxEven"/><text style="dominant-baseline: middle; font-size: 10.2px;" transform="translate(40.75,101.13769674301147)" y="0" x="0" id="text-entity-EVENT-12434316-4a87-5800-981a-68e9670d1fb3-attr-4-name" class="er entityLabel">location</text><rect height="22.091797828674316" width="21.5625" y="90.09179782867432" x="82.640625" class="er attributeBoxEven"/><text style="dominant-baseline: middle; font-size: 10.2px;" transform="translate(87.640625,101.13769674301147)" y="0" x="0" id="text-entity-EVENT-12434316-4a87-5800-981a-68e9670d1fb3-attr-4-key" class="er entityLabel"/></g><g transform="translate(20,20 )" id="entity-NOTIFICATION-5f6efb57-77a0-5636-b1c2-92f816a1abf8"><rect height="90.09179782867432" width="128.921875" y="0" x="0" class="er entityBox"/><text style="dominant-baseline: middle; text-anchor: middle; font-size: 12px;" transform="translate(64.4609375,12)" y="0" x="0" id="text-entity-NOTIFICATION-5f6efb57-77a0-5636-b1c2-92f816a1abf8" class="er entityLabel">NOTIFICATION</text><rect height="22" width="35.75" y="24" x="0" class="er attributeBoxOdd"/><text style="dominant-baseline: middle; font-size: 10.2px;" transform="translate(5,35)" y="0" x="0" id="text-entity-NOTIFICATION-5f6efb57-77a0-5636-b1c2-92f816a1abf8-attr-1-type" class="er entityLabel">int</text><rect height="22" width="71.609375" y="24" x="35.75" class="er attributeBoxOdd"/><text style="dominant-baseline: middle; font-size: 10.2px;" transform="translate(40.75,35)" y="0" x="0" id="text-entity-NOTIFICATION-5f6efb57-77a0-5636-b1c2-92f816a1abf8-attr-1-name" class="er entityLabel">notificationId</text><rect height="22" width="21.5625" y="24" x="107.359375" class="er attributeBoxOdd"/><text style="dominant-baseline: middle; font-size: 10.2px;" transform="translate(112.359375,35)" y="0" x="0" id="text-entity-NOTIFICATION-5f6efb57-77a0-5636-b1c2-92f816a1abf8-attr-1-key" class="er entityLabel">PK</text><rect height="22.091797828674316" width="35.75" y="46" x="0" class="er attributeBoxEven"/><text style="dominant-baseline: middle; font-size: 10.2px;" transform="translate(5,57.04589891433716)" y="0" x="0" id="text-entity-NOTIFICATION-5f6efb57-77a0-5636-b1c2-92f816a1abf8-attr-2-type" class="er entityLabel">string</text><rect height="22.091797828674316" width="71.609375" y="46" x="35.75" class="er attributeBoxEven"/><text style="dominant-baseline: middle; font-size: 10.2px;" transform="translate(40.75,57.04589891433716)" y="0" x="0" id="text-entity-NOTIFICATION-5f6efb57-77a0-5636-b1c2-92f816a1abf8-attr-2-name" class="er entityLabel">content</text><rect height="22.091797828674316" width="21.5625" y="46" x="107.359375" class="er attributeBoxEven"/><text style="dominant-baseline: middle; font-size: 10.2px;" transform="translate(112.359375,57.04589891433716)" y="0" x="0" id="text-entity-NOTIFICATION-5f6efb57-77a0-5636-b1c2-92f816a1abf8-attr-2-key" class="er entityLabel"/><rect height="22" width="35.75" y="68.09179782867432" x="0" class="er attributeBoxOdd"/><text style="dominant-baseline: middle; font-size: 10.2px;" transform="translate(5,79.09179782867432)" y="0" x="0" id="text-entity-NOTIFICATION-5f6efb57-77a0-5636-b1c2-92f816a1abf8-attr-3-type" class="er entityLabel">date</text><rect height="22" width="71.609375" y="68.09179782867432" x="35.75" class="er attributeBoxOdd"/><text style="dominant-baseline: middle; font-size: 10.2px;" transform="translate(40.75,79.09179782867432)" y="0" x="0" id="text-entity-NOTIFICATION-5f6efb57-77a0-5636-b1c2-92f816a1abf8-attr-3-name" class="er entityLabel">sentDate</text><rect height="22" width="21.5625" y="68.09179782867432" x="107.359375" class="er attributeBoxOdd"/><text style="dominant-baseline: middle; font-size: 10.2px;" transform="translate(112.359375,79.09179782867432)" y="0" x="0" id="text-entity-NOTIFICATION-5f6efb57-77a0-5636-b1c2-92f816a1abf8-attr-3-key" class="er entityLabel"/></g><g transform="translate(663.734375,221.1376953125 )" id="entity-PAYMENT-9797eee8-7a01-5efe-aaa5-fb9a4f14957c"><rect height="90.18359375" width="124.171875" y="0" x="0" class="er entityBox"/><text style="dominant-baseline: middle; text-anchor: middle; font-size: 12px;" transform="translate(62.0859375,12)" y="0" x="0" id="text-entity-PAYMENT-9797eee8-7a01-5efe-aaa5-fb9a4f14957c" class="er entityLabel">PAYMENT</text><rect height="22.091796875" width="31.65625" y="24" x="0" class="er attributeBoxOdd"/><text style="dominant-baseline: middle; font-size: 10.2px;" transform="translate(5,35.0458984375)" y="0" x="0" id="text-entity-PAYMENT-9797eee8-7a01-5efe-aaa5-fb9a4f14957c-attr-1-type" class="er entityLabel">int</text><rect height="22.091796875" width="70.953125" y="24" x="31.65625" class="er attributeBoxOdd"/><text style="dominant-baseline: middle; font-size: 10.2px;" transform="translate(36.65625,35.0458984375)" y="0" x="0" id="text-entity-PAYMENT-9797eee8-7a01-5efe-aaa5-fb9a4f14957c-attr-1-name" class="er entityLabel">paymentId</text><rect height="22.091796875" width="21.5625" y="24" x="102.609375" class="er attributeBoxOdd"/><text style="dominant-baseline: middle; font-size: 10.2px;" transform="translate(107.609375,35.0458984375)" y="0" x="0" id="text-entity-PAYMENT-9797eee8-7a01-5efe-aaa5-fb9a4f14957c-attr-1-key" class="er entityLabel">PK</text><rect height="22" width="31.65625" y="46.091796875" x="0" class="er attributeBoxEven"/><text style="dominant-baseline: middle; font-size: 10.2px;" transform="translate(5,57.091796875)" y="0" x="0" id="text-entity-PAYMENT-9797eee8-7a01-5efe-aaa5-fb9a4f14957c-attr-2-type" class="er entityLabel">float</text><rect height="22" width="70.953125" y="46.091796875" x="31.65625" class="er attributeBoxEven"/><text style="dominant-baseline: middle; font-size: 10.2px;" transform="translate(36.65625,57.091796875)" y="0" x="0" id="text-entity-PAYMENT-9797eee8-7a01-5efe-aaa5-fb9a4f14957c-attr-2-name" class="er entityLabel">amount</text><rect height="22" width="21.5625" y="46.091796875" x="102.609375" class="er attributeBoxEven"/><text style="dominant-baseline: middle; font-size: 10.2px;" transform="translate(107.609375,57.091796875)" y="0" x="0" id="text-entity-PAYMENT-9797eee8-7a01-5efe-aaa5-fb9a4f14957c-attr-2-key" class="er entityLabel"/><rect height="22.091796875" width="31.65625" y="68.091796875" x="0" class="er attributeBoxOdd"/><text style="dominant-baseline: middle; font-size: 10.2px;" transform="translate(5,79.1376953125)" y="0" x="0" id="text-entity-PAYMENT-9797eee8-7a01-5efe-aaa5-fb9a4f14957c-attr-3-type" class="er entityLabel">date</text><rect height="22.091796875" width="70.953125" y="68.091796875" x="31.65625" class="er attributeBoxOdd"/><text style="dominant-baseline: middle; font-size: 10.2px;" transform="translate(36.65625,79.1376953125)" y="0" x="0" id="text-entity-PAYMENT-9797eee8-7a01-5efe-aaa5-fb9a4f14957c-attr-3-name" class="er entityLabel">paymentDate</text><rect height="22.091796875" width="21.5625" y="68.091796875" x="102.609375" class="er attributeBoxOdd"/><text style="dominant-baseline: middle; font-size: 10.2px;" transform="translate(107.609375,79.1376953125)" y="0" x="0" id="text-entity-PAYMENT-9797eee8-7a01-5efe-aaa5-fb9a4f14957c-attr-3-key" class="er entityLabel"/></g><g transform="translate(887.90625,221.1376953125 )" id="entity-ADMIN-d96a280c-1f9e-545d-8f4d-aed8db9e78be"><rect height="90.18359565734863" width="103.828125" y="0" x="0" class="er entityBox"/><text style="dominant-baseline: middle; text-anchor: middle; font-size: 12px;" transform="translate(51.9140625,12)" y="0" x="0" id="text-entity-ADMIN-d96a280c-1f9e-545d-8f4d-aed8db9e78be" class="er entityLabel">ADMIN</text><rect height="22" width="35.75" y="24" x="0" class="er attributeBoxOdd"/><text style="dominant-baseline: middle; font-size: 10.2px;" transform="translate(5,35)" y="0" x="0" id="text-entity-ADMIN-d96a280c-1f9e-545d-8f4d-aed8db9e78be-attr-1-type" class="er entityLabel">int</text><rect height="22" width="46.515625" y="24" x="35.75" class="er attributeBoxOdd"/><text style="dominant-baseline: middle; font-size: 10.2px;" transform="translate(40.75,35)" y="0" x="0" id="text-entity-ADMIN-d96a280c-1f9e-545d-8f4d-aed8db9e78be-attr-1-name" class="er entityLabel">adminId</text><rect height="22" width="21.5625" y="24" x="82.265625" class="er attributeBoxOdd"/><text style="dominant-baseline: middle; font-size: 10.2px;" transform="translate(87.265625,35)" y="0" x="0" id="text-entity-ADMIN-d96a280c-1f9e-545d-8f4d-aed8db9e78be-attr-1-key" class="er entityLabel">PK</text><rect height="22.091797828674316" width="35.75" y="46" x="0" class="er attributeBoxEven"/><text style="dominant-baseline: middle; font-size: 10.2px;" transform="translate(5,57.04589891433716)" y="0" x="0" id="text-entity-ADMIN-d96a280c-1f9e-545d-8f4d-aed8db9e78be-attr-2-type" class="er entityLabel">string</text><rect height="22.091797828674316" width="46.515625" y="46" x="35.75" class="er attributeBoxEven"/><text style="dominant-baseline: middle; font-size: 10.2px;" transform="translate(40.75,57.04589891433716)" y="0" x="0" id="text-entity-ADMIN-d96a280c-1f9e-545d-8f4d-aed8db9e78be-attr-2-name" class="er entityLabel">name</text><rect height="22.091797828674316" width="21.5625" y="46" x="82.265625" class="er attributeBoxEven"/><text style="dominant-baseline: middle; font-size: 10.2px;" transform="translate(87.265625,57.04589891433716)" y="0" x="0" id="text-entity-ADMIN-d96a280c-1f9e-545d-8f4d-aed8db9e78be-attr-2-key" class="er entityLabel"/><rect height="22.091797828674316" width="35.75" y="68.09179782867432" x="0" class="er attributeBoxOdd"/><text style="dominant-baseline: middle; font-size: 10.2px;" transform="translate(5,79.13769674301147)" y="0" x="0" id="text-entity-ADMIN-d96a280c-1f9e-545d-8f4d-aed8db9e78be-attr-3-type" class="er entityLabel">string</text><rect height="22.091797828674316" width="46.515625" y="68.09179782867432" x="35.75" class="er attributeBoxOdd"/><text style="dominant-baseline: middle; font-size: 10.2px;" transform="translate(40.75,79.13769674301147)" y="0" x="0" id="text-entity-ADMIN-d96a280c-1f9e-545d-8f4d-aed8db9e78be-attr-3-name" class="er entityLabel">role</text><rect height="22.091797828674316" width="21.5625" y="68.09179782867432" x="82.265625" class="er attributeBoxOdd"/><text style="dominant-baseline: middle; font-size: 10.2px;" transform="translate(87.265625,79.13769674301147)" y="0" x="0" id="text-entity-ADMIN-d96a280c-1f9e-545d-8f4d-aed8db9e78be-attr-3-key" class="er entityLabel"/></g><rect height="14" width="46.34375" y="405.2771301269531" x="227.6524658203125" class="er relationshipLabelBox"/><text style="text-anchor: middle; dominant-baseline: middle; font-size: 12px;" y="412.2771301269531" x="250.8243408203125" id="rel1" class="er relationshipLabel">registers</text><rect height="14" width="44.109375" y="577.551025390625" x="489.57830810546875" class="er relationshipLabelBox"/><text style="text-anchor: middle; dominant-baseline: middle; font-size: 12px;" y="584.551025390625" x="511.63299560546875" id="rel2" class="er relationshipLabel">includes</text><rect height="14" width="31.390625" y="388.37677001953125" x="337.1193542480469" class="er relationshipLabelBox"/><text style="text-anchor: middle; dominant-baseline: middle; font-size: 12px;" y="395.37677001953125" x="352.8146667480469" id="rel3" class="er relationshipLabel">offers</text><rect height="14" width="27.46875" y="365.343994140625" x="497.89862060546875" class="er relationshipLabelBox"/><text style="text-anchor: middle; dominant-baseline: middle; font-size: 12px;" y="372.343994140625" x="511.63299560546875" id="rel4" class="er relationshipLabel">hosts</text><rect height="14" width="29.515625" y="153.0919952392578" x="69.70318603515625" class="er relationshipLabelBox"/><text style="text-anchor: middle; dominant-baseline: middle; font-size: 12px;" y="160.0919952392578" x="84.46099853515625" id="rel5" class="er relationshipLabel">sends</text><rect height="14" width="51.40625" y="388.7951965332031" x="646.2217407226562" class="er relationshipLabelBox"/><text style="text-anchor: middle; dominant-baseline: middle; font-size: 12px;" y="395.7951965332031" x="671.9248657226562" id="rel6" class="er relationshipLabel">processes</text><rect height="14" width="46.5625" y="403.9512939453125" x="753.3572387695312" class="er relationshipLabelBox"/><text style="text-anchor: middle; dominant-baseline: middle; font-size: 12px;" y="410.9512939453125" x="776.6384887695312" id="rel7" class="er relationshipLabel">manages</text></svg>