<svg aria-roledescription="er" role="graphics-document document" viewBox="0 0 1839.171875 218.091796875" style="max-width: 1839.17px; background-color: white;" xmlns:xlink="http://www.w3.org/1999/xlink" xmlns="http://www.w3.org/2000/svg" width="100%" id="my-svg"><style>#my-svg{font-family:"trebuchet ms",verdana,arial,sans-serif;font-size:16px;fill:#333;}#my-svg .error-icon{fill:#552222;}#my-svg .error-text{fill:#552222;stroke:#552222;}#my-svg .edge-thickness-normal{stroke-width:1px;}#my-svg .edge-thickness-thick{stroke-width:3.5px;}#my-svg .edge-pattern-solid{stroke-dasharray:0;}#my-svg .edge-thickness-invisible{stroke-width:0;fill:none;}#my-svg .edge-pattern-dashed{stroke-dasharray:3;}#my-svg .edge-pattern-dotted{stroke-dasharray:2;}#my-svg .marker{fill:#333333;stroke:#333333;}#my-svg .marker.cross{stroke:#333333;}#my-svg svg{font-family:"trebuchet ms",verdana,arial,sans-serif;font-size:16px;}#my-svg p{margin:0;}#my-svg .entityBox{fill:#ECECFF;stroke:#9370DB;}#my-svg .attributeBoxOdd{fill:#ffffff;stroke:#9370DB;}#my-svg .attributeBoxEven{fill:#f2f2f2;stroke:#9370DB;}#my-svg .relationshipLabelBox{fill:hsl(80, 100%, 96.2745098039%);opacity:0.7;background-color:hsl(80, 100%, 96.2745098039%);}#my-svg .relationshipLabelBox rect{opacity:0.5;}#my-svg .relationshipLine{stroke:#333333;}#my-svg .entityTitleText{text-anchor:middle;font-size:18px;fill:#333;}#my-svg #MD_PARENT_START{fill:#f5f5f5!important;stroke:#333333!important;stroke-width:1;}#my-svg #MD_PARENT_END{fill:#f5f5f5!important;stroke:#333333!important;stroke-width:1;}#my-svg :root{--mermaid-font-family:"trebuchet ms",verdana,arial,sans-serif;}</style><g/><defs><marker orient="auto" markerHeight="240" markerWidth="190" refY="7" refX="0" id="MD_PARENT_START"><path d="M 18,7 L9,13 L1,7 L9,1 Z"/></marker></defs><defs><marker orient="auto" markerHeight="28" markerWidth="20" refY="7" refX="19" id="MD_PARENT_END"><path d="M 18,7 L9,13 L1,7 L9,1 Z"/></marker></defs><defs><marker orient="auto" markerHeight="18" markerWidth="18" refY="9" refX="0" id="ONLY_ONE_START"><path d="M9,0 L9,18 M15,0 L15,18" fill="none" stroke="gray"/></marker></defs><defs><marker orient="auto" markerHeight="18" markerWidth="18" refY="9" refX="18" id="ONLY_ONE_END"><path d="M3,0 L3,18 M9,0 L9,18" fill="none" stroke="gray"/></marker></defs><defs><marker orient="auto" markerHeight="18" markerWidth="30" refY="9" refX="0" id="ZERO_OR_ONE_START"><circle r="6" cy="9" cx="21" fill="white" stroke="gray"/><path d="M9,0 L9,18" fill="none" stroke="gray"/></marker></defs><defs><marker orient="auto" markerHeight="18" markerWidth="30" refY="9" refX="30" id="ZERO_OR_ONE_END"><circle r="6" cy="9" cx="9" fill="white" stroke="gray"/><path d="M21,0 L21,18" fill="none" stroke="gray"/></marker></defs><defs><marker orient="auto" markerHeight="36" markerWidth="45" refY="18" refX="18" id="ONE_OR_MORE_START"><path d="M0,18 Q 18,0 36,18 Q 18,36 0,18 M42,9 L42,27" fill="none" stroke="gray"/></marker></defs><defs><marker orient="auto" markerHeight="36" markerWidth="45" refY="18" refX="27" id="ONE_OR_MORE_END"><path d="M3,9 L3,27 M9,18 Q27,0 45,18 Q27,36 9,18" fill="none" stroke="gray"/></marker></defs><defs><marker orient="auto" markerHeight="36" markerWidth="57" refY="18" refX="18" id="ZERO_OR_MORE_START"><circle r="6" cy="18" cx="48" fill="white" stroke="gray"/><path d="M0,18 Q18,0 36,18 Q18,36 0,18" fill="none" stroke="gray"/></marker></defs><defs><marker orient="auto" markerHeight="36" markerWidth="57" refY="18" refX="39" id="ZERO_OR_MORE_END"><circle r="6" cy="18" cx="9" fill="white" stroke="gray"/><path d="M21,18 Q39,0 57,18 Q39,36 21,18" fill="none" stroke="gray"/></marker></defs><g transform="translate(20,20 )" id="entity-LOCATIONS-6f7e545e-f24f-521a-86f4-89876e405250"><rect height="178.091796875" width="144.8125" y="0" x="0" class="er entityBox"/><text style="dominant-baseline: middle; text-anchor: middle; font-size: 12px;" transform="translate(72.40625,12)" y="0" x="0" id="text-entity-LOCATIONS-6f7e545e-f24f-521a-86f4-89876e405250" class="er entityLabel">LOCATIONS</text><rect height="22" width="46.046875" y="24" x="0" class="er attributeBoxOdd"/><text style="dominant-baseline: middle; font-size: 10.2px;" transform="translate(5,35)" y="0" x="0" id="text-entity-LOCATIONS-6f7e545e-f24f-521a-86f4-89876e405250-attr-1-type" class="er entityLabel">int</text><rect height="22" width="77.203125" y="24" x="46.046875" class="er attributeBoxOdd"/><text style="dominant-baseline: middle; font-size: 10.2px;" transform="translate(51.046875,35)" y="0" x="0" id="text-entity-LOCATIONS-6f7e545e-f24f-521a-86f4-89876e405250-attr-1-name" class="er entityLabel">location_id</text><rect height="22" width="21.5625" y="24" x="123.25" class="er attributeBoxOdd"/><text style="dominant-baseline: middle; font-size: 10.2px;" transform="translate(128.25,35)" y="0" x="0" id="text-entity-LOCATIONS-6f7e545e-f24f-521a-86f4-89876e405250-attr-1-key" class="er entityLabel">PK</text><rect height="22" width="46.046875" y="46" x="0" class="er attributeBoxEven"/><text style="dominant-baseline: middle; font-size: 10.2px;" transform="translate(5,57)" y="0" x="0" id="text-entity-LOCATIONS-6f7e545e-f24f-521a-86f4-89876e405250-attr-2-type" class="er entityLabel">varchar</text><rect height="22" width="77.203125" y="46" x="46.046875" class="er attributeBoxEven"/><text style="dominant-baseline: middle; font-size: 10.2px;" transform="translate(51.046875,57)" y="0" x="0" id="text-entity-LOCATIONS-6f7e545e-f24f-521a-86f4-89876e405250-attr-2-name" class="er entityLabel">location_name</text><rect height="22" width="21.5625" y="46" x="123.25" class="er attributeBoxEven"/><text style="dominant-baseline: middle; font-size: 10.2px;" transform="translate(128.25,57)" y="0" x="0" id="text-entity-LOCATIONS-6f7e545e-f24f-521a-86f4-89876e405250-attr-2-key" class="er entityLabel"/><rect height="22" width="46.046875" y="68" x="0" class="er attributeBoxOdd"/><text style="dominant-baseline: middle; font-size: 10.2px;" transform="translate(5,79)" y="0" x="0" id="text-entity-LOCATIONS-6f7e545e-f24f-521a-86f4-89876e405250-attr-3-type" class="er entityLabel">int</text><rect height="22" width="77.203125" y="68" x="46.046875" class="er attributeBoxOdd"/><text style="dominant-baseline: middle; font-size: 10.2px;" transform="translate(51.046875,79)" y="0" x="0" id="text-entity-LOCATIONS-6f7e545e-f24f-521a-86f4-89876e405250-attr-3-name" class="er entityLabel">location_root</text><rect height="22" width="21.5625" y="68" x="123.25" class="er attributeBoxOdd"/><text style="dominant-baseline: middle; font-size: 10.2px;" transform="translate(128.25,79)" y="0" x="0" id="text-entity-LOCATIONS-6f7e545e-f24f-521a-86f4-89876e405250-attr-3-key" class="er entityLabel"/><rect height="22" width="46.046875" y="90" x="0" class="er attributeBoxEven"/><text style="dominant-baseline: middle; font-size: 10.2px;" transform="translate(5,101)" y="0" x="0" id="text-entity-LOCATIONS-6f7e545e-f24f-521a-86f4-89876e405250-attr-4-type" class="er entityLabel">varchar</text><rect height="22" width="77.203125" y="90" x="46.046875" class="er attributeBoxEven"/><text style="dominant-baseline: middle; font-size: 10.2px;" transform="translate(51.046875,101)" y="0" x="0" id="text-entity-LOCATIONS-6f7e545e-f24f-521a-86f4-89876e405250-attr-4-name" class="er entityLabel">location_desc</text><rect height="22" width="21.5625" y="90" x="123.25" class="er attributeBoxEven"/><text style="dominant-baseline: middle; font-size: 10.2px;" transform="translate(128.25,101)" y="0" x="0" id="text-entity-LOCATIONS-6f7e545e-f24f-521a-86f4-89876e405250-attr-4-key" class="er entityLabel"/><rect height="22" width="46.046875" y="112" x="0" class="er attributeBoxOdd"/><text style="dominant-baseline: middle; font-size: 10.2px;" transform="translate(5,123)" y="0" x="0" id="text-entity-LOCATIONS-6f7e545e-f24f-521a-86f4-89876e405250-attr-5-type" class="er entityLabel">decimal</text><rect height="22" width="77.203125" y="112" x="46.046875" class="er attributeBoxOdd"/><text style="dominant-baseline: middle; font-size: 10.2px;" transform="translate(51.046875,123)" y="0" x="0" id="text-entity-LOCATIONS-6f7e545e-f24f-521a-86f4-89876e405250-attr-5-name" class="er entityLabel">latitude</text><rect height="22" width="21.5625" y="112" x="123.25" class="er attributeBoxOdd"/><text style="dominant-baseline: middle; font-size: 10.2px;" transform="translate(128.25,123)" y="0" x="0" id="text-entity-LOCATIONS-6f7e545e-f24f-521a-86f4-89876e405250-attr-5-key" class="er entityLabel"/><rect height="22.091796875" width="46.046875" y="134" x="0" class="er attributeBoxEven"/><text style="dominant-baseline: middle; font-size: 10.2px;" transform="translate(5,145.0458984375)" y="0" x="0" id="text-entity-LOCATIONS-6f7e545e-f24f-521a-86f4-89876e405250-attr-6-type" class="er entityLabel">decimal</text><rect height="22.091796875" width="77.203125" y="134" x="46.046875" class="er attributeBoxEven"/><text style="dominant-baseline: middle; font-size: 10.2px;" transform="translate(51.046875,145.0458984375)" y="0" x="0" id="text-entity-LOCATIONS-6f7e545e-f24f-521a-86f4-89876e405250-attr-6-name" class="er entityLabel">longitude</text><rect height="22.091796875" width="21.5625" y="134" x="123.25" class="er attributeBoxEven"/><text style="dominant-baseline: middle; font-size: 10.2px;" transform="translate(128.25,145.0458984375)" y="0" x="0" id="text-entity-LOCATIONS-6f7e545e-f24f-521a-86f4-89876e405250-attr-6-key" class="er entityLabel"/><rect height="22" width="46.046875" y="156.091796875" x="0" class="er attributeBoxOdd"/><text style="dominant-baseline: middle; font-size: 10.2px;" transform="translate(5,167.091796875)" y="0" x="0" id="text-entity-LOCATIONS-6f7e545e-f24f-521a-86f4-89876e405250-attr-7-type" class="er entityLabel">int</text><rect height="22" width="77.203125" y="156.091796875" x="46.046875" class="er attributeBoxOdd"/><text style="dominant-baseline: middle; font-size: 10.2px;" transform="translate(51.046875,167.091796875)" y="0" x="0" id="text-entity-LOCATIONS-6f7e545e-f24f-521a-86f4-89876e405250-attr-7-name" class="er entityLabel">address_id</text><rect height="22" width="21.5625" y="156.091796875" x="123.25" class="er attributeBoxOdd"/><text style="dominant-baseline: middle; font-size: 10.2px;" transform="translate(128.25,167.091796875)" y="0" x="0" id="text-entity-LOCATIONS-6f7e545e-f24f-521a-86f4-89876e405250-attr-7-key" class="er entityLabel"/></g><g transform="translate(264.8125,30.908203125 )" id="entity-DEVICES-44b3ce9d-e1aa-546d-aa04-f048af54c81d"><rect height="156.27539157867432" width="176.046875" y="0" x="0" class="er entityBox"/><text style="dominant-baseline: middle; text-anchor: middle; font-size: 12px;" transform="translate(88.0234375,12)" y="0" x="0" id="text-entity-DEVICES-44b3ce9d-e1aa-546d-aa04-f048af54c81d" class="er entityLabel">DEVICES</text><rect height="22" width="44.265625" y="24" x="0" class="er attributeBoxOdd"/><text style="dominant-baseline: middle; font-size: 10.2px;" transform="translate(5,35)" y="0" x="0" id="text-entity-DEVICES-44b3ce9d-e1aa-546d-aa04-f048af54c81d-attr-1-type" class="er entityLabel">int</text><rect height="22" width="110.21875" y="24" x="44.265625" class="er attributeBoxOdd"/><text style="dominant-baseline: middle; font-size: 10.2px;" transform="translate(49.265625,35)" y="0" x="0" id="text-entity-DEVICES-44b3ce9d-e1aa-546d-aa04-f048af54c81d-attr-1-name" class="er entityLabel">device_id</text><rect height="22" width="21.5625" y="24" x="154.484375" class="er attributeBoxOdd"/><text style="dominant-baseline: middle; font-size: 10.2px;" transform="translate(159.484375,35)" y="0" x="0" id="text-entity-DEVICES-44b3ce9d-e1aa-546d-aa04-f048af54c81d-attr-1-key" class="er entityLabel">PK</text><rect height="22.091796875" width="44.265625" y="46" x="0" class="er attributeBoxEven"/><text style="dominant-baseline: middle; font-size: 10.2px;" transform="translate(5,57.0458984375)" y="0" x="0" id="text-entity-DEVICES-44b3ce9d-e1aa-546d-aa04-f048af54c81d-attr-2-type" class="er entityLabel">varchar</text><rect height="22.091796875" width="110.21875" y="46" x="44.265625" class="er attributeBoxEven"/><text style="dominant-baseline: middle; font-size: 10.2px;" transform="translate(49.265625,57.0458984375)" y="0" x="0" id="text-entity-DEVICES-44b3ce9d-e1aa-546d-aa04-f048af54c81d-attr-2-name" class="er entityLabel">device_type</text><rect height="22.091796875" width="21.5625" y="46" x="154.484375" class="er attributeBoxEven"/><text style="dominant-baseline: middle; font-size: 10.2px;" transform="translate(159.484375,57.0458984375)" y="0" x="0" id="text-entity-DEVICES-44b3ce9d-e1aa-546d-aa04-f048af54c81d-attr-2-key" class="er entityLabel"/><rect height="22" width="44.265625" y="68.091796875" x="0" class="er attributeBoxOdd"/><text style="dominant-baseline: middle; font-size: 10.2px;" transform="translate(5,79.091796875)" y="0" x="0" id="text-entity-DEVICES-44b3ce9d-e1aa-546d-aa04-f048af54c81d-attr-3-type" class="er entityLabel">int</text><rect height="22" width="110.21875" y="68.091796875" x="44.265625" class="er attributeBoxOdd"/><text style="dominant-baseline: middle; font-size: 10.2px;" transform="translate(49.265625,79.091796875)" y="0" x="0" id="text-entity-DEVICES-44b3ce9d-e1aa-546d-aa04-f048af54c81d-attr-3-name" class="er entityLabel">location_id</text><rect height="22" width="21.5625" y="68.091796875" x="154.484375" class="er attributeBoxOdd"/><text style="dominant-baseline: middle; font-size: 10.2px;" transform="translate(159.484375,79.091796875)" y="0" x="0" id="text-entity-DEVICES-44b3ce9d-e1aa-546d-aa04-f048af54c81d-attr-3-key" class="er entityLabel">FK</text><rect height="22" width="44.265625" y="90.091796875" x="0" class="er attributeBoxEven"/><text style="dominant-baseline: middle; font-size: 10.2px;" transform="translate(5,101.091796875)" y="0" x="0" id="text-entity-DEVICES-44b3ce9d-e1aa-546d-aa04-f048af54c81d-attr-4-type" class="er entityLabel">int</text><rect height="22" width="110.21875" y="90.091796875" x="44.265625" class="er attributeBoxEven"/><text style="dominant-baseline: middle; font-size: 10.2px;" transform="translate(49.265625,101.091796875)" y="0" x="0" id="text-entity-DEVICES-44b3ce9d-e1aa-546d-aa04-f048af54c81d-attr-4-name" class="er entityLabel">device_serial_number</text><rect height="22" width="21.5625" y="90.091796875" x="154.484375" class="er attributeBoxEven"/><text style="dominant-baseline: middle; font-size: 10.2px;" transform="translate(159.484375,101.091796875)" y="0" x="0" id="text-entity-DEVICES-44b3ce9d-e1aa-546d-aa04-f048af54c81d-attr-4-key" class="er entityLabel"/><rect height="22.091796875" width="44.265625" y="112.091796875" x="0" class="er attributeBoxOdd"/><text style="dominant-baseline: middle; font-size: 10.2px;" transform="translate(5,123.1376953125)" y="0" x="0" id="text-entity-DEVICES-44b3ce9d-e1aa-546d-aa04-f048af54c81d-attr-5-type" class="er entityLabel">varchar</text><rect height="22.091796875" width="110.21875" y="112.091796875" x="44.265625" class="er attributeBoxOdd"/><text style="dominant-baseline: middle; font-size: 10.2px;" transform="translate(49.265625,123.1376953125)" y="0" x="0" id="text-entity-DEVICES-44b3ce9d-e1aa-546d-aa04-f048af54c81d-attr-5-name" class="er entityLabel">description</text><rect height="22.091796875" width="21.5625" y="112.091796875" x="154.484375" class="er attributeBoxOdd"/><text style="dominant-baseline: middle; font-size: 10.2px;" transform="translate(159.484375,123.1376953125)" y="0" x="0" id="text-entity-DEVICES-44b3ce9d-e1aa-546d-aa04-f048af54c81d-attr-5-key" class="er entityLabel"/><rect height="22.091797828674316" width="44.265625" y="134.18359375" x="0" class="er attributeBoxEven"/><text style="dominant-baseline: middle; font-size: 10.2px;" transform="translate(5,145.22949266433716)" y="0" x="0" id="text-entity-DEVICES-44b3ce9d-e1aa-546d-aa04-f048af54c81d-attr-6-type" class="er entityLabel">varchar</text><rect height="22.091797828674316" width="110.21875" y="134.18359375" x="44.265625" class="er attributeBoxEven"/><text style="dominant-baseline: middle; font-size: 10.2px;" transform="translate(49.265625,145.22949266433716)" y="0" x="0" id="text-entity-DEVICES-44b3ce9d-e1aa-546d-aa04-f048af54c81d-attr-6-name" class="er entityLabel">image_path</text><rect height="22.091797828674316" width="21.5625" y="134.18359375" x="154.484375" class="er attributeBoxEven"/><text style="dominant-baseline: middle; font-size: 10.2px;" transform="translate(159.484375,145.22949266433716)" y="0" x="0" id="text-entity-DEVICES-44b3ce9d-e1aa-546d-aa04-f048af54c81d-attr-6-key" class="er entityLabel"/></g><g transform="translate(540.859375,30.9541015625 )" id="entity-USERS-1e82e395-936c-57a7-8ba9-b08f03574b93"><rect height="156.18359470367432" width="126.15625" y="0" x="0" class="er entityBox"/><text style="dominant-baseline: middle; text-anchor: middle; font-size: 12px;" transform="translate(63.078125,12)" y="0" x="0" id="text-entity-USERS-1e82e395-936c-57a7-8ba9-b08f03574b93" class="er entityLabel">USERS</text><rect height="22" width="44.265625" y="24" x="0" class="er attributeBoxOdd"/><text style="dominant-baseline: middle; font-size: 10.2px;" transform="translate(5,35)" y="0" x="0" id="text-entity-USERS-1e82e395-936c-57a7-8ba9-b08f03574b93-attr-1-type" class="er entityLabel">int</text><rect height="22" width="60.328125" y="24" x="44.265625" class="er attributeBoxOdd"/><text style="dominant-baseline: middle; font-size: 10.2px;" transform="translate(49.265625,35)" y="0" x="0" id="text-entity-USERS-1e82e395-936c-57a7-8ba9-b08f03574b93-attr-1-name" class="er entityLabel">user_id</text><rect height="22" width="21.5625" y="24" x="104.59375" class="er attributeBoxOdd"/><text style="dominant-baseline: middle; font-size: 10.2px;" transform="translate(109.59375,35)" y="0" x="0" id="text-entity-USERS-1e82e395-936c-57a7-8ba9-b08f03574b93-attr-1-key" class="er entityLabel">PK</text><rect height="22.091796875" width="44.265625" y="46" x="0" class="er attributeBoxEven"/><text style="dominant-baseline: middle; font-size: 10.2px;" transform="translate(5,57.0458984375)" y="0" x="0" id="text-entity-USERS-1e82e395-936c-57a7-8ba9-b08f03574b93-attr-2-type" class="er entityLabel">varchar</text><rect height="22.091796875" width="60.328125" y="46" x="44.265625" class="er attributeBoxEven"/><text style="dominant-baseline: middle; font-size: 10.2px;" transform="translate(49.265625,57.0458984375)" y="0" x="0" id="text-entity-USERS-1e82e395-936c-57a7-8ba9-b08f03574b93-attr-2-name" class="er entityLabel">use_group</text><rect height="22.091796875" width="21.5625" y="46" x="104.59375" class="er attributeBoxEven"/><text style="dominant-baseline: middle; font-size: 10.2px;" transform="translate(109.59375,57.0458984375)" y="0" x="0" id="text-entity-USERS-1e82e395-936c-57a7-8ba9-b08f03574b93-attr-2-key" class="er entityLabel"/><rect height="22" width="44.265625" y="68.091796875" x="0" class="er attributeBoxOdd"/><text style="dominant-baseline: middle; font-size: 10.2px;" transform="translate(5,79.091796875)" y="0" x="0" id="text-entity-USERS-1e82e395-936c-57a7-8ba9-b08f03574b93-attr-3-type" class="er entityLabel">varchar</text><rect height="22" width="60.328125" y="68.091796875" x="44.265625" class="er attributeBoxOdd"/><text style="dominant-baseline: middle; font-size: 10.2px;" transform="translate(49.265625,79.091796875)" y="0" x="0" id="text-entity-USERS-1e82e395-936c-57a7-8ba9-b08f03574b93-attr-3-name" class="er entityLabel">user_role</text><rect height="22" width="21.5625" y="68.091796875" x="104.59375" class="er attributeBoxOdd"/><text style="dominant-baseline: middle; font-size: 10.2px;" transform="translate(109.59375,79.091796875)" y="0" x="0" id="text-entity-USERS-1e82e395-936c-57a7-8ba9-b08f03574b93-attr-3-key" class="er entityLabel"/><rect height="22.091797828674316" width="44.265625" y="90.091796875" x="0" class="er attributeBoxEven"/><text style="dominant-baseline: middle; font-size: 10.2px;" transform="translate(5,101.13769578933716)" y="0" x="0" id="text-entity-USERS-1e82e395-936c-57a7-8ba9-b08f03574b93-attr-4-type" class="er entityLabel">varchar</text><rect height="22.091797828674316" width="60.328125" y="90.091796875" x="44.265625" class="er attributeBoxEven"/><text style="dominant-baseline: middle; font-size: 10.2px;" transform="translate(49.265625,101.13769578933716)" y="0" x="0" id="text-entity-USERS-1e82e395-936c-57a7-8ba9-b08f03574b93-attr-4-name" class="er entityLabel">user_rights</text><rect height="22.091797828674316" width="21.5625" y="90.091796875" x="104.59375" class="er attributeBoxEven"/><text style="dominant-baseline: middle; font-size: 10.2px;" transform="translate(109.59375,101.13769578933716)" y="0" x="0" id="text-entity-USERS-1e82e395-936c-57a7-8ba9-b08f03574b93-attr-4-key" class="er entityLabel"/><rect height="22" width="44.265625" y="112.18359470367432" x="0" class="er attributeBoxOdd"/><text style="dominant-baseline: middle; font-size: 10.2px;" transform="translate(5,123.18359470367432)" y="0" x="0" id="text-entity-USERS-1e82e395-936c-57a7-8ba9-b08f03574b93-attr-5-type" class="er entityLabel">varchar</text><rect height="22" width="60.328125" y="112.18359470367432" x="44.265625" class="er attributeBoxOdd"/><text style="dominant-baseline: middle; font-size: 10.2px;" transform="translate(49.265625,123.18359470367432)" y="0" x="0" id="text-entity-USERS-1e82e395-936c-57a7-8ba9-b08f03574b93-attr-5-name" class="er entityLabel">user_name</text><rect height="22" width="21.5625" y="112.18359470367432" x="104.59375" class="er attributeBoxOdd"/><text style="dominant-baseline: middle; font-size: 10.2px;" transform="translate(109.59375,123.18359470367432)" y="0" x="0" id="text-entity-USERS-1e82e395-936c-57a7-8ba9-b08f03574b93-attr-5-key" class="er entityLabel"/><rect height="22" width="44.265625" y="134.18359470367432" x="0" class="er attributeBoxEven"/><text style="dominant-baseline: middle; font-size: 10.2px;" transform="translate(5,145.18359470367432)" y="0" x="0" id="text-entity-USERS-1e82e395-936c-57a7-8ba9-b08f03574b93-attr-6-type" class="er entityLabel">varchar</text><rect height="22" width="60.328125" y="134.18359470367432" x="44.265625" class="er attributeBoxEven"/><text style="dominant-baseline: middle; font-size: 10.2px;" transform="translate(49.265625,145.18359470367432)" y="0" x="0" id="text-entity-USERS-1e82e395-936c-57a7-8ba9-b08f03574b93-attr-6-name" class="er entityLabel">user_email</text><rect height="22" width="21.5625" y="134.18359470367432" x="104.59375" class="er attributeBoxEven"/><text style="dominant-baseline: middle; font-size: 10.2px;" transform="translate(109.59375,145.18359470367432)" y="0" x="0" id="text-entity-USERS-1e82e395-936c-57a7-8ba9-b08f03574b93-attr-6-key" class="er entityLabel"/></g><g transform="translate(767.015625,63.9541015625 )" id="entity-TAGS-d29308f0-f2c6-5478-be38-7375374d6eb9"><rect height="90.18359470367432" width="126.8125" y="0" x="0" class="er entityBox"/><text style="dominant-baseline: middle; text-anchor: middle; font-size: 12px;" transform="translate(63.40625,12)" y="0" x="0" id="text-entity-TAGS-d29308f0-f2c6-5478-be38-7375374d6eb9" class="er entityLabel">TAGS</text><rect height="22.091797828674316" width="44.265625" y="24" x="0" class="er attributeBoxOdd"/><text style="dominant-baseline: middle; font-size: 10.2px;" transform="translate(5,35.04589891433716)" y="0" x="0" id="text-entity-TAGS-d29308f0-f2c6-5478-be38-7375374d6eb9-attr-1-type" class="er entityLabel">int</text><rect height="22.091797828674316" width="60.984375" y="24" x="44.265625" class="er attributeBoxOdd"/><text style="dominant-baseline: middle; font-size: 10.2px;" transform="translate(49.265625,35.04589891433716)" y="0" x="0" id="text-entity-TAGS-d29308f0-f2c6-5478-be38-7375374d6eb9-attr-1-name" class="er entityLabel">tag_id</text><rect height="22.091797828674316" width="21.5625" y="24" x="105.25" class="er attributeBoxOdd"/><text style="dominant-baseline: middle; font-size: 10.2px;" transform="translate(110.25,35.04589891433716)" y="0" x="0" id="text-entity-TAGS-d29308f0-f2c6-5478-be38-7375374d6eb9-attr-1-key" class="er entityLabel">PK</text><rect height="22.091796875" width="44.265625" y="46.091797828674316" x="0" class="er attributeBoxEven"/><text style="dominant-baseline: middle; font-size: 10.2px;" transform="translate(5,57.137696266174316)" y="0" x="0" id="text-entity-TAGS-d29308f0-f2c6-5478-be38-7375374d6eb9-attr-2-type" class="er entityLabel">varchar</text><rect height="22.091796875" width="60.984375" y="46.091797828674316" x="44.265625" class="er attributeBoxEven"/><text style="dominant-baseline: middle; font-size: 10.2px;" transform="translate(49.265625,57.137696266174316)" y="0" x="0" id="text-entity-TAGS-d29308f0-f2c6-5478-be38-7375374d6eb9-attr-2-name" class="er entityLabel">description</text><rect height="22.091796875" width="21.5625" y="46.091797828674316" x="105.25" class="er attributeBoxEven"/><text style="dominant-baseline: middle; font-size: 10.2px;" transform="translate(110.25,57.137696266174316)" y="0" x="0" id="text-entity-TAGS-d29308f0-f2c6-5478-be38-7375374d6eb9-attr-2-key" class="er entityLabel"/><rect height="22" width="44.265625" y="68.18359470367432" x="0" class="er attributeBoxOdd"/><text style="dominant-baseline: middle; font-size: 10.2px;" transform="translate(5,79.18359470367432)" y="0" x="0" id="text-entity-TAGS-d29308f0-f2c6-5478-be38-7375374d6eb9-attr-3-type" class="er entityLabel">varchar</text><rect height="22" width="60.984375" y="68.18359470367432" x="44.265625" class="er attributeBoxOdd"/><text style="dominant-baseline: middle; font-size: 10.2px;" transform="translate(49.265625,79.18359470367432)" y="0" x="0" id="text-entity-TAGS-d29308f0-f2c6-5478-be38-7375374d6eb9-attr-3-name" class="er entityLabel">unit</text><rect height="22" width="21.5625" y="68.18359470367432" x="105.25" class="er attributeBoxOdd"/><text style="dominant-baseline: middle; font-size: 10.2px;" transform="translate(110.25,79.18359470367432)" y="0" x="0" id="text-entity-TAGS-d29308f0-f2c6-5478-be38-7375374d6eb9-attr-3-key" class="er entityLabel"/></g><g transform="translate(993.828125,64 )" id="entity-DEVICETAGS-6c1bedcd-1537-51ea-9989-672dd187c22d"><rect height="90.09179782867432" width="100.84375" y="0" x="0" class="er entityBox"/><text style="dominant-baseline: middle; text-anchor: middle; font-size: 12px;" transform="translate(50.421875,12)" y="0" x="0" id="text-entity-DEVICETAGS-6c1bedcd-1537-51ea-9989-672dd187c22d" class="er entityLabel">DEVICE_TAGS</text><rect height="22" width="23.541666666666668" y="24" x="0" class="er attributeBoxOdd"/><text style="dominant-baseline: middle; font-size: 10.2px;" transform="translate(5,35)" y="0" x="0" id="text-entity-DEVICETAGS-6c1bedcd-1537-51ea-9989-672dd187c22d-attr-1-type" class="er entityLabel">int</text><rect height="22" width="54.729166666666664" y="24" x="23.541666666666668" class="er attributeBoxOdd"/><text style="dominant-baseline: middle; font-size: 10.2px;" transform="translate(28.541666666666668,35)" y="0" x="0" id="text-entity-DEVICETAGS-6c1bedcd-1537-51ea-9989-672dd187c22d-attr-1-name" class="er entityLabel">ID</text><rect height="22" width="22.572916666666668" y="24" x="78.27083333333333" class="er attributeBoxOdd"/><text style="dominant-baseline: middle; font-size: 10.2px;" transform="translate(83.27083333333333,35)" y="0" x="0" id="text-entity-DEVICETAGS-6c1bedcd-1537-51ea-9989-672dd187c22d-attr-1-key" class="er entityLabel">PK</text><rect height="22" width="23.541666666666668" y="46" x="0" class="er attributeBoxEven"/><text style="dominant-baseline: middle; font-size: 10.2px;" transform="translate(5,57)" y="0" x="0" id="text-entity-DEVICETAGS-6c1bedcd-1537-51ea-9989-672dd187c22d-attr-2-type" class="er entityLabel">int</text><rect height="22" width="54.729166666666664" y="46" x="23.541666666666668" class="er attributeBoxEven"/><text style="dominant-baseline: middle; font-size: 10.2px;" transform="translate(28.541666666666668,57)" y="0" x="0" id="text-entity-DEVICETAGS-6c1bedcd-1537-51ea-9989-672dd187c22d-attr-2-name" class="er entityLabel">device_id</text><rect height="22" width="22.572916666666668" y="46" x="78.27083333333333" class="er attributeBoxEven"/><text style="dominant-baseline: middle; font-size: 10.2px;" transform="translate(83.27083333333333,57)" y="0" x="0" id="text-entity-DEVICETAGS-6c1bedcd-1537-51ea-9989-672dd187c22d-attr-2-key" class="er entityLabel">FK</text><rect height="22.091797828674316" width="23.541666666666668" y="68" x="0" class="er attributeBoxOdd"/><text style="dominant-baseline: middle; font-size: 10.2px;" transform="translate(5,79.04589891433716)" y="0" x="0" id="text-entity-DEVICETAGS-6c1bedcd-1537-51ea-9989-672dd187c22d-attr-3-type" class="er entityLabel">int</text><rect height="22.091797828674316" width="54.729166666666664" y="68" x="23.541666666666668" class="er attributeBoxOdd"/><text style="dominant-baseline: middle; font-size: 10.2px;" transform="translate(28.541666666666668,79.04589891433716)" y="0" x="0" id="text-entity-DEVICETAGS-6c1bedcd-1537-51ea-9989-672dd187c22d-attr-3-name" class="er entityLabel">tag_id</text><rect height="22.091797828674316" width="22.572916666666668" y="68" x="78.27083333333333" class="er attributeBoxOdd"/><text style="dominant-baseline: middle; font-size: 10.2px;" transform="translate(83.27083333333333,79.04589891433716)" y="0" x="0" id="text-entity-DEVICETAGS-6c1bedcd-1537-51ea-9989-672dd187c22d-attr-3-key" class="er entityLabel">FK</text></g><g transform="translate(1194.671875,52.9541015625 )" id="entity-HistoryData-a162fc0d-e5ea-5fc7-8961-c4ced7b6dbc7"><rect height="112.18359565734863" width="146.484375" y="0" x="0" class="er entityBox"/><text style="dominant-baseline: middle; text-anchor: middle; font-size: 12px;" transform="translate(73.2421875,12)" y="0" x="0" id="text-entity-HistoryData-a162fc0d-e5ea-5fc7-8961-c4ced7b6dbc7" class="er entityLabel">History_Data</text><rect height="22" width="58.671875" y="24" x="0" class="er attributeBoxOdd"/><text style="dominant-baseline: middle; font-size: 10.2px;" transform="translate(5,35)" y="0" x="0" id="text-entity-HistoryData-a162fc0d-e5ea-5fc7-8961-c4ced7b6dbc7-attr-1-type" class="er entityLabel">int</text><rect height="22" width="66.25" y="24" x="58.671875" class="er attributeBoxOdd"/><text style="dominant-baseline: middle; font-size: 10.2px;" transform="translate(63.671875,35)" y="0" x="0" id="text-entity-HistoryData-a162fc0d-e5ea-5fc7-8961-c4ced7b6dbc7-attr-1-name" class="er entityLabel">ID</text><rect height="22" width="21.5625" y="24" x="124.921875" class="er attributeBoxOdd"/><text style="dominant-baseline: middle; font-size: 10.2px;" transform="translate(129.921875,35)" y="0" x="0" id="text-entity-HistoryData-a162fc0d-e5ea-5fc7-8961-c4ced7b6dbc7-attr-1-key" class="er entityLabel">PK</text><rect height="22.091797828674316" width="58.671875" y="46" x="0" class="er attributeBoxEven"/><text style="dominant-baseline: middle; font-size: 10.2px;" transform="translate(5,57.04589891433716)" y="0" x="0" id="text-entity-HistoryData-a162fc0d-e5ea-5fc7-8961-c4ced7b6dbc7-attr-2-type" class="er entityLabel">int</text><rect height="22.091797828674316" width="66.25" y="46" x="58.671875" class="er attributeBoxEven"/><text style="dominant-baseline: middle; font-size: 10.2px;" transform="translate(63.671875,57.04589891433716)" y="0" x="0" id="text-entity-HistoryData-a162fc0d-e5ea-5fc7-8961-c4ced7b6dbc7-attr-2-name" class="er entityLabel">tag_id</text><rect height="22.091797828674316" width="21.5625" y="46" x="124.921875" class="er attributeBoxEven"/><text style="dominant-baseline: middle; font-size: 10.2px;" transform="translate(129.921875,57.04589891433716)" y="0" x="0" id="text-entity-HistoryData-a162fc0d-e5ea-5fc7-8961-c4ced7b6dbc7-attr-2-key" class="er entityLabel">FK</text><rect height="22" width="58.671875" y="68.09179782867432" x="0" class="er attributeBoxOdd"/><text style="dominant-baseline: middle; font-size: 10.2px;" transform="translate(5,79.09179782867432)" y="0" x="0" id="text-entity-HistoryData-a162fc0d-e5ea-5fc7-8961-c4ced7b6dbc7-attr-3-type" class="er entityLabel">int</text><rect height="22" width="66.25" y="68.09179782867432" x="58.671875" class="er attributeBoxOdd"/><text style="dominant-baseline: middle; font-size: 10.2px;" transform="translate(63.671875,79.09179782867432)" y="0" x="0" id="text-entity-HistoryData-a162fc0d-e5ea-5fc7-8961-c4ced7b6dbc7-attr-3-name" class="er entityLabel">Value</text><rect height="22" width="21.5625" y="68.09179782867432" x="124.921875" class="er attributeBoxOdd"/><text style="dominant-baseline: middle; font-size: 10.2px;" transform="translate(129.921875,79.09179782867432)" y="0" x="0" id="text-entity-HistoryData-a162fc0d-e5ea-5fc7-8961-c4ced7b6dbc7-attr-3-key" class="er entityLabel"/><rect height="22.091797828674316" width="58.671875" y="90.09179782867432" x="0" class="er attributeBoxEven"/><text style="dominant-baseline: middle; font-size: 10.2px;" transform="translate(5,101.13769674301147)" y="0" x="0" id="text-entity-HistoryData-a162fc0d-e5ea-5fc7-8961-c4ced7b6dbc7-attr-4-type" class="er entityLabel">timestamp</text><rect height="22.091797828674316" width="66.25" y="90.09179782867432" x="58.671875" class="er attributeBoxEven"/><text style="dominant-baseline: middle; font-size: 10.2px;" transform="translate(63.671875,101.13769674301147)" y="0" x="0" id="text-entity-HistoryData-a162fc0d-e5ea-5fc7-8961-c4ced7b6dbc7-attr-4-name" class="er entityLabel">Time_Stamp</text><rect height="22.091797828674316" width="21.5625" y="90.09179782867432" x="124.921875" class="er attributeBoxEven"/><text style="dominant-baseline: middle; font-size: 10.2px;" transform="translate(129.921875,101.13769674301147)" y="0" x="0" id="text-entity-HistoryData-a162fc0d-e5ea-5fc7-8961-c4ced7b6dbc7-attr-4-key" class="er entityLabel"/></g><g transform="translate(1441.15625,42 )" id="entity-Historyalerts-a8ef5d87-6a72-5150-84f9-54eab2103f53"><rect height="134.09179782867432" width="146.484375" y="0" x="0" class="er entityBox"/><text style="dominant-baseline: middle; text-anchor: middle; font-size: 12px;" transform="translate(73.2421875,12)" y="0" x="0" id="text-entity-Historyalerts-a8ef5d87-6a72-5150-84f9-54eab2103f53" class="er entityLabel">History_alerts</text><rect height="22" width="58.671875" y="24" x="0" class="er attributeBoxOdd"/><text style="dominant-baseline: middle; font-size: 10.2px;" transform="translate(5,35)" y="0" x="0" id="text-entity-Historyalerts-a8ef5d87-6a72-5150-84f9-54eab2103f53-attr-1-type" class="er entityLabel">int</text><rect height="22" width="66.25" y="24" x="58.671875" class="er attributeBoxOdd"/><text style="dominant-baseline: middle; font-size: 10.2px;" transform="translate(63.671875,35)" y="0" x="0" id="text-entity-Historyalerts-a8ef5d87-6a72-5150-84f9-54eab2103f53-attr-1-name" class="er entityLabel">alert_id</text><rect height="22" width="21.5625" y="24" x="124.921875" class="er attributeBoxOdd"/><text style="dominant-baseline: middle; font-size: 10.2px;" transform="translate(129.921875,35)" y="0" x="0" id="text-entity-Historyalerts-a8ef5d87-6a72-5150-84f9-54eab2103f53-attr-1-key" class="er entityLabel">PK</text><rect height="22" width="58.671875" y="46" x="0" class="er attributeBoxEven"/><text style="dominant-baseline: middle; font-size: 10.2px;" transform="translate(5,57)" y="0" x="0" id="text-entity-Historyalerts-a8ef5d87-6a72-5150-84f9-54eab2103f53-attr-2-type" class="er entityLabel">int</text><rect height="22" width="66.25" y="46" x="58.671875" class="er attributeBoxEven"/><text style="dominant-baseline: middle; font-size: 10.2px;" transform="translate(63.671875,57)" y="0" x="0" id="text-entity-Historyalerts-a8ef5d87-6a72-5150-84f9-54eab2103f53-attr-2-name" class="er entityLabel">device_id</text><rect height="22" width="21.5625" y="46" x="124.921875" class="er attributeBoxEven"/><text style="dominant-baseline: middle; font-size: 10.2px;" transform="translate(129.921875,57)" y="0" x="0" id="text-entity-Historyalerts-a8ef5d87-6a72-5150-84f9-54eab2103f53-attr-2-key" class="er entityLabel">FK</text><rect height="22.091797828674316" width="58.671875" y="68" x="0" class="er attributeBoxOdd"/><text style="dominant-baseline: middle; font-size: 10.2px;" transform="translate(5,79.04589891433716)" y="0" x="0" id="text-entity-Historyalerts-a8ef5d87-6a72-5150-84f9-54eab2103f53-attr-3-type" class="er entityLabel">timestamp</text><rect height="22.091797828674316" width="66.25" y="68" x="58.671875" class="er attributeBoxOdd"/><text style="dominant-baseline: middle; font-size: 10.2px;" transform="translate(63.671875,79.04589891433716)" y="0" x="0" id="text-entity-Historyalerts-a8ef5d87-6a72-5150-84f9-54eab2103f53-attr-3-name" class="er entityLabel">Time_Stamp</text><rect height="22.091797828674316" width="21.5625" y="68" x="124.921875" class="er attributeBoxOdd"/><text style="dominant-baseline: middle; font-size: 10.2px;" transform="translate(129.921875,79.04589891433716)" y="0" x="0" id="text-entity-Historyalerts-a8ef5d87-6a72-5150-84f9-54eab2103f53-attr-3-key" class="er entityLabel"/><rect height="22" width="58.671875" y="90.09179782867432" x="0" class="er attributeBoxEven"/><text style="dominant-baseline: middle; font-size: 10.2px;" transform="translate(5,101.09179782867432)" y="0" x="0" id="text-entity-Historyalerts-a8ef5d87-6a72-5150-84f9-54eab2103f53-attr-4-type" class="er entityLabel">varchar</text><rect height="22" width="66.25" y="90.09179782867432" x="58.671875" class="er attributeBoxEven"/><text style="dominant-baseline: middle; font-size: 10.2px;" transform="translate(63.671875,101.09179782867432)" y="0" x="0" id="text-entity-Historyalerts-a8ef5d87-6a72-5150-84f9-54eab2103f53-attr-4-name" class="er entityLabel">Alert_status</text><rect height="22" width="21.5625" y="90.09179782867432" x="124.921875" class="er attributeBoxEven"/><text style="dominant-baseline: middle; font-size: 10.2px;" transform="translate(129.921875,101.09179782867432)" y="0" x="0" id="text-entity-Historyalerts-a8ef5d87-6a72-5150-84f9-54eab2103f53-attr-4-key" class="er entityLabel"/><rect height="22" width="58.671875" y="112.09179782867432" x="0" class="er attributeBoxOdd"/><text style="dominant-baseline: middle; font-size: 10.2px;" transform="translate(5,123.09179782867432)" y="0" x="0" id="text-entity-Historyalerts-a8ef5d87-6a72-5150-84f9-54eab2103f53-attr-5-type" class="er entityLabel">int</text><rect height="22" width="66.25" y="112.09179782867432" x="58.671875" class="er attributeBoxOdd"/><text style="dominant-baseline: middle; font-size: 10.2px;" transform="translate(63.671875,123.09179782867432)" y="0" x="0" id="text-entity-Historyalerts-a8ef5d87-6a72-5150-84f9-54eab2103f53-attr-5-name" class="er entityLabel">Action_id</text><rect height="22" width="21.5625" y="112.09179782867432" x="124.921875" class="er attributeBoxOdd"/><text style="dominant-baseline: middle; font-size: 10.2px;" transform="translate(129.921875,123.09179782867432)" y="0" x="0" id="text-entity-Historyalerts-a8ef5d87-6a72-5150-84f9-54eab2103f53-attr-5-key" class="er entityLabel">FK</text></g><g transform="translate(1687.640625,64.0458984375 )" id="entity-Actionalert-31c31cc4-eec0-5ace-bfa2-f5e6f860253c"><rect height="90" width="131.53125" y="0" x="0" class="er entityBox"/><text style="dominant-baseline: middle; text-anchor: middle; font-size: 12px;" transform="translate(65.765625,12)" y="0" x="0" id="text-entity-Actionalert-31c31cc4-eec0-5ace-bfa2-f5e6f860253c" class="er entityLabel">Action_alert</text><rect height="22" width="44.265625" y="24" x="0" class="er attributeBoxOdd"/><text style="dominant-baseline: middle; font-size: 10.2px;" transform="translate(5,35)" y="0" x="0" id="text-entity-Actionalert-31c31cc4-eec0-5ace-bfa2-f5e6f860253c-attr-1-type" class="er entityLabel">int</text><rect height="22" width="65.703125" y="24" x="44.265625" class="er attributeBoxOdd"/><text style="dominant-baseline: middle; font-size: 10.2px;" transform="translate(49.265625,35)" y="0" x="0" id="text-entity-Actionalert-31c31cc4-eec0-5ace-bfa2-f5e6f860253c-attr-1-name" class="er entityLabel">Action_id</text><rect height="22" width="21.5625" y="24" x="109.96875" class="er attributeBoxOdd"/><text style="dominant-baseline: middle; font-size: 10.2px;" transform="translate(114.96875,35)" y="0" x="0" id="text-entity-Actionalert-31c31cc4-eec0-5ace-bfa2-f5e6f860253c-attr-1-key" class="er entityLabel">PK</text><rect height="22" width="44.265625" y="46" x="0" class="er attributeBoxEven"/><text style="dominant-baseline: middle; font-size: 10.2px;" transform="translate(5,57)" y="0" x="0" id="text-entity-Actionalert-31c31cc4-eec0-5ace-bfa2-f5e6f860253c-attr-2-type" class="er entityLabel">varchar</text><rect height="22" width="65.703125" y="46" x="44.265625" class="er attributeBoxEven"/><text style="dominant-baseline: middle; font-size: 10.2px;" transform="translate(49.265625,57)" y="0" x="0" id="text-entity-Actionalert-31c31cc4-eec0-5ace-bfa2-f5e6f860253c-attr-2-name" class="er entityLabel">action_desc</text><rect height="22" width="21.5625" y="46" x="109.96875" class="er attributeBoxEven"/><text style="dominant-baseline: middle; font-size: 10.2px;" transform="translate(114.96875,57)" y="0" x="0" id="text-entity-Actionalert-31c31cc4-eec0-5ace-bfa2-f5e6f860253c-attr-2-key" class="er entityLabel"/><rect height="22" width="44.265625" y="68" x="0" class="er attributeBoxOdd"/><text style="dominant-baseline: middle; font-size: 10.2px;" transform="translate(5,79)" y="0" x="0" id="text-entity-Actionalert-31c31cc4-eec0-5ace-bfa2-f5e6f860253c-attr-3-type" class="er entityLabel">int</text><rect height="22" width="65.703125" y="68" x="44.265625" class="er attributeBoxOdd"/><text style="dominant-baseline: middle; font-size: 10.2px;" transform="translate(49.265625,79)" y="0" x="0" id="text-entity-Actionalert-31c31cc4-eec0-5ace-bfa2-f5e6f860253c-attr-3-name" class="er entityLabel">alert_action</text><rect height="22" width="21.5625" y="68" x="109.96875" class="er attributeBoxOdd"/><text style="dominant-baseline: middle; font-size: 10.2px;" transform="translate(114.96875,79)" y="0" x="0" id="text-entity-Actionalert-31c31cc4-eec0-5ace-bfa2-f5e6f860253c-attr-3-key" class="er entityLabel"/></g></svg>