<svg aria-roledescription="flowchart-v2" role="graphics-document document" viewBox="0 0 1497.53125 881.84765625" style="max-width: 1497.53px; background-color: white;" class="flowchart" xmlns:xlink="http://www.w3.org/1999/xlink" xmlns="http://www.w3.org/2000/svg" width="100%" id="my-svg"><style>#my-svg{font-family:"trebuchet ms",verdana,arial,sans-serif;font-size:16px;fill:#333;}#my-svg .error-icon{fill:#552222;}#my-svg .error-text{fill:#552222;stroke:#552222;}#my-svg .edge-thickness-normal{stroke-width:1px;}#my-svg .edge-thickness-thick{stroke-width:3.5px;}#my-svg .edge-pattern-solid{stroke-dasharray:0;}#my-svg .edge-thickness-invisible{stroke-width:0;fill:none;}#my-svg .edge-pattern-dashed{stroke-dasharray:3;}#my-svg .edge-pattern-dotted{stroke-dasharray:2;}#my-svg .marker{fill:#333333;stroke:#333333;}#my-svg .marker.cross{stroke:#333333;}#my-svg svg{font-family:"trebuchet ms",verdana,arial,sans-serif;font-size:16px;}#my-svg p{margin:0;}#my-svg .label{font-family:"trebuchet ms",verdana,arial,sans-serif;color:#333;}#my-svg .cluster-label text{fill:#333;}#my-svg .cluster-label span{color:#333;}#my-svg .cluster-label span p{background-color:transparent;}#my-svg .label text,#my-svg span{fill:#333;color:#333;}#my-svg .node rect,#my-svg .node circle,#my-svg .node ellipse,#my-svg .node polygon,#my-svg .node path{fill:#ECECFF;stroke:#9370DB;stroke-width:1px;}#my-svg .rough-node .label text,#my-svg .node .label text,#my-svg .image-shape .label,#my-svg .icon-shape .label{text-anchor:middle;}#my-svg .node .katex path{fill:#000;stroke:#000;stroke-width:1px;}#my-svg .rough-node .label,#my-svg .node .label,#my-svg .image-shape .label,#my-svg .icon-shape .label{text-align:center;}#my-svg .node.clickable{cursor:pointer;}#my-svg .root .anchor path{fill:#333333!important;stroke-width:0;stroke:#333333;}#my-svg .arrowheadPath{fill:#333333;}#my-svg .edgePath .path{stroke:#333333;stroke-width:2.0px;}#my-svg .flowchart-link{stroke:#333333;fill:none;}#my-svg .edgeLabel{background-color:rgba(232,232,232, 0.8);text-align:center;}#my-svg .edgeLabel p{background-color:rgba(232,232,232, 0.8);}#my-svg .edgeLabel rect{opacity:0.5;background-color:rgba(232,232,232, 0.8);fill:rgba(232,232,232, 0.8);}#my-svg .labelBkg{background-color:rgba(232, 232, 232, 0.5);}#my-svg .cluster rect{fill:#ffffde;stroke:#aaaa33;stroke-width:1px;}#my-svg .cluster text{fill:#333;}#my-svg .cluster span{color:#333;}#my-svg div.mermaidTooltip{position:absolute;text-align:center;max-width:200px;padding:2px;font-family:"trebuchet ms",verdana,arial,sans-serif;font-size:12px;background:hsl(80, 100%, 96.2745098039%);border:1px solid #aaaa33;border-radius:2px;pointer-events:none;z-index:100;}#my-svg .flowchartTitleText{text-anchor:middle;font-size:18px;fill:#333;}#my-svg rect.text{fill:none;stroke-width:0;}#my-svg .icon-shape,#my-svg .image-shape{background-color:rgba(232,232,232, 0.8);text-align:center;}#my-svg .icon-shape p,#my-svg .image-shape p{background-color:rgba(232,232,232, 0.8);padding:2px;}#my-svg .icon-shape rect,#my-svg .image-shape rect{opacity:0.5;background-color:rgba(232,232,232, 0.8);fill:rgba(232,232,232, 0.8);}#my-svg :root{--mermaid-font-family:"trebuchet ms",verdana,arial,sans-serif;}</style><g><marker orient="auto" markerHeight="8" markerWidth="8" markerUnits="userSpaceOnUse" refY="5" refX="5" viewBox="0 0 10 10" class="marker flowchart-v2" id="my-svg_flowchart-v2-pointEnd"><path style="stroke-width: 1; stroke-dasharray: 1, 0;" class="arrowMarkerPath" d="M 0 0 L 10 5 L 0 10 z"/></marker><marker orient="auto" markerHeight="8" markerWidth="8" markerUnits="userSpaceOnUse" refY="5" refX="4.5" viewBox="0 0 10 10" class="marker flowchart-v2" id="my-svg_flowchart-v2-pointStart"><path style="stroke-width: 1; stroke-dasharray: 1, 0;" class="arrowMarkerPath" d="M 0 5 L 10 10 L 10 0 z"/></marker><marker orient="auto" markerHeight="11" markerWidth="11" markerUnits="userSpaceOnUse" refY="5" refX="11" viewBox="0 0 10 10" class="marker flowchart-v2" id="my-svg_flowchart-v2-circleEnd"><circle style="stroke-width: 1; stroke-dasharray: 1, 0;" class="arrowMarkerPath" r="5" cy="5" cx="5"/></marker><marker orient="auto" markerHeight="11" markerWidth="11" markerUnits="userSpaceOnUse" refY="5" refX="-1" viewBox="0 0 10 10" class="marker flowchart-v2" id="my-svg_flowchart-v2-circleStart"><circle style="stroke-width: 1; stroke-dasharray: 1, 0;" class="arrowMarkerPath" r="5" cy="5" cx="5"/></marker><marker orient="auto" markerHeight="11" markerWidth="11" markerUnits="userSpaceOnUse" refY="5.2" refX="12" viewBox="0 0 11 11" class="marker cross flowchart-v2" id="my-svg_flowchart-v2-crossEnd"><path style="stroke-width: 2; stroke-dasharray: 1, 0;" class="arrowMarkerPath" d="M 1,1 l 9,9 M 10,1 l -9,9"/></marker><marker orient="auto" markerHeight="11" markerWidth="11" markerUnits="userSpaceOnUse" refY="5.2" refX="-1" viewBox="0 0 11 11" class="marker cross flowchart-v2" id="my-svg_flowchart-v2-crossStart"><path style="stroke-width: 2; stroke-dasharray: 1, 0;" class="arrowMarkerPath" d="M 1,1 l 9,9 M 10,1 l -9,9"/></marker><g class="root"><g class="clusters"><g data-look="classic" id="backend" class="cluster"><rect height="359.9315948486328" width="447.671875" y="301.9668426513672" x="1041.859375" style=""/><g transform="translate(1235.84375, 301.9668426513672)" class="cluster-label"><foreignObject height="24" width="59.703125"><div style="display: table-cell; white-space: nowrap; line-height: 1.5; max-width: 200px; text-align: center;" xmlns="http://www.w3.org/1999/xhtml"><span class="nodeLabel"><p>backend</p></span></div></foreignObject></g></g><g data-look="classic" id="network" class="cluster"><rect height="589.0189361572266" width="144.75" y="222.82872009277344" x="847.109375" style=""/><g transform="translate(890.1875, 222.82872009277344)" class="cluster-label"><foreignObject height="24" width="58.59375"><div style="display: table-cell; white-space: nowrap; line-height: 1.5; max-width: 200px; text-align: center;" xmlns="http://www.w3.org/1999/xhtml"><span class="nodeLabel"><p>network</p></span></div></foreignObject></g></g><g data-look="classic" id="sensors" class="cluster"><rect height="865.84765625" width="789.109375" y="8" x="8" style=""/><g transform="translate(376.703125, 8)" class="cluster-label"><foreignObject height="24" width="51.703125"><div style="display: table-cell; white-space: nowrap; line-height: 1.5; max-width: 200px; text-align: center;" xmlns="http://www.w3.org/1999/xhtml"><span class="nodeLabel"><p>sensors</p></span></div></foreignObject></g></g><g data-look="classic" id="cellular" class="cluster"><rect height="228" width="244.984375" y="625.84765625" x="527.125" style=""/><g transform="translate(622.53125, 625.84765625)" class="cluster-label"><foreignObject height="24" width="54.171875"><div style="display: table-cell; white-space: nowrap; line-height: 1.5; max-width: 200px; text-align: center;" xmlns="http://www.w3.org/1999/xhtml"><span class="nodeLabel"><p>cellular</p></span></div></foreignObject></g></g><g data-look="classic" id="sub1ghz" class="cluster"><rect height="231.44921875" width="226.328125" y="380" x="250.796875" style=""/><g transform="translate(335.515625, 380)" class="cluster-label"><foreignObject height="24" width="56.890625"><div style="display: table-cell; white-space: nowrap; line-height: 1.5; max-width: 200px; text-align: center;" xmlns="http://www.w3.org/1999/xhtml"><span class="nodeLabel"><p>sub1ghz</p></span></div></foreignObject></g></g><g data-look="classic" id="ism" class="cluster"><rect height="332" width="444.125" y="28" x="33" style=""/><g transform="translate(242.8984375, 28)" class="cluster-label"><foreignObject height="24" width="24.328125"><div style="display: table-cell; white-space: nowrap; line-height: 1.5; max-width: 200px; text-align: center;" xmlns="http://www.w3.org/1999/xhtml"><span class="nodeLabel"><p>ism</p></span></div></foreignObject></g></g></g><g class="edgePaths"><path marker-end="url(#my-svg_flowchart-v2-pointEnd)" style="" class="edge-thickness-normal edge-pattern-solid edge-thickness-normal edge-pattern-solid flowchart-link" id="L_RF-1_relay_0" d="M199.883,90L204.202,90C208.521,90,217.159,90,225.645,90C234.13,90,242.464,90,261.547,103.715C280.631,117.431,310.464,144.862,325.381,158.577L340.298,172.293"/><path marker-end="url(#my-svg_flowchart-v2-pointEnd)" style="" class="edge-thickness-normal edge-pattern-solid edge-thickness-normal edge-pattern-solid flowchart-link" id="L_RF-2_relay_1" d="M199.883,194L204.202,194C208.521,194,217.159,194,225.645,194C234.13,194,242.464,194,252.719,194.075C262.974,194.15,275.151,194.3,281.24,194.376L287.328,194.451"/><path marker-end="url(#my-svg_flowchart-v2-pointEnd)" style="" class="edge-thickness-normal edge-pattern-solid edge-thickness-normal edge-pattern-solid flowchart-link" id="L_RF-N_relay_2" d="M200.797,298L204.964,298C209.13,298,217.464,298,225.797,298C234.13,298,242.464,298,261.544,284.448C280.625,270.897,310.454,243.793,325.368,230.242L340.282,216.69"/><path marker-end="url(#my-svg_flowchart-v2-pointEnd)" style="" class="edge-thickness-normal edge-pattern-solid edge-thickness-normal edge-pattern-solid flowchart-link" id="L_relay_gateway_3" d="M437.594,194.5L444.182,194.417C450.771,194.333,463.948,194.167,474.703,194.083C485.458,194,493.792,194,502.125,194C510.458,194,518.792,194,540.178,213.694C561.565,233.389,596.005,272.778,613.225,292.472L630.445,312.167"/><path marker-end="url(#my-svg_flowchart-v2-pointEnd)" style="" class="edge-thickness-normal edge-pattern-solid edge-thickness-normal edge-pattern-solid flowchart-link" id="L_Kotori_InfluxDB_4" d="M1222.78,449.885L1239.418,436.649C1256.056,423.412,1289.333,396.939,1313.01,383.702C1336.688,370.465,1350.766,370.465,1357.805,370.465L1364.844,370.465"/><path marker-end="url(#my-svg_flowchart-v2-pointEnd)" style="" class="edge-thickness-normal edge-pattern-solid edge-thickness-normal edge-pattern-solid flowchart-link" id="L_Kotori_CrateDB_5" d="M1298.109,486.662L1302.193,486.77C1306.276,486.877,1314.443,487.091,1325.674,487.199C1336.906,487.306,1351.203,487.306,1358.352,487.306L1365.5,487.306"/><path marker-end="url(#my-svg_flowchart-v2-pointEnd)" style="" class="edge-thickness-normal edge-pattern-solid edge-thickness-normal edge-pattern-solid flowchart-link" id="L_Kotori_Grafana_6" d="M1220.604,512.885L1237.605,527.013C1254.606,541.14,1288.608,569.394,1309.109,583.521C1329.609,597.648,1336.609,597.648,1340.109,597.648L1343.609,597.648"/><path marker-end="url(#my-svg_flowchart-v2-pointEnd)" style="" class="edge-thickness-normal edge-pattern-solid edge-thickness-normal edge-pattern-solid flowchart-link" id="L_LORAWAN_TTN_7" d="M452.125,549.449L456.292,549.449C460.458,549.449,468.792,549.449,477.125,549.449C485.458,549.449,493.792,549.449,502.125,549.449C510.458,549.449,518.792,549.449,535.891,549.528C552.99,549.608,578.854,549.766,591.787,549.845L604.719,549.925"/><path marker-end="url(#my-svg_flowchart-v2-pointEnd)" style="" class="edge-thickness-normal edge-pattern-solid edge-thickness-normal edge-pattern-solid flowchart-link" id="L_LORA_gateway_8" d="M436.188,442L443.01,442C449.833,442,463.479,442,474.469,442C485.458,442,493.792,442,502.125,442C510.458,442,518.792,442,539.262,427.801C559.733,413.602,592.34,385.203,608.644,371.004L624.948,356.805"/><path marker-end="url(#my-svg_flowchart-v2-pointEnd)" style="" class="edge-thickness-normal edge-pattern-solid edge-thickness-normal edge-pattern-solid flowchart-link" id="L_MQTT_Kotori_13" d="M967.359,381.096L971.443,381.012C975.526,380.929,983.693,380.762,991.943,380.679C1000.193,380.596,1008.526,380.596,1016.859,380.596C1025.193,380.596,1033.526,380.596,1053.281,391.756C1073.037,402.916,1104.214,425.237,1119.803,436.397L1135.392,447.557"/><path marker-end="url(#my-svg_flowchart-v2-pointEnd)" style="" class="edge-thickness-normal edge-pattern-solid edge-thickness-normal edge-pattern-solid flowchart-link" id="L_HTTP_Kotori_14" d="M965.969,615.977L970.284,615.894C974.599,615.81,983.229,615.644,991.711,615.56C1000.193,615.477,1008.526,615.477,1016.859,615.477C1025.193,615.477,1033.526,615.477,1055.213,598.838C1076.9,582.198,1111.94,548.919,1129.46,532.28L1146.98,515.64"/><path marker-end="url(#my-svg_flowchart-v2-pointEnd)" style="" class="edge-thickness-normal edge-pattern-solid edge-thickness-normal edge-pattern-solid flowchart-link" id="L_gateway_network_9" d="M728.43,334.178L735.71,334.178C742.99,334.178,757.549,334.178,768.996,334.178C780.443,334.178,788.776,334.178,797.109,334.178C805.443,334.178,813.776,334.178,821.443,334.178C829.109,334.178,836.109,334.178,839.609,334.178L843.109,334.178"/><path marker-end="url(#my-svg_flowchart-v2-pointEnd)" style="" class="edge-thickness-normal edge-pattern-solid edge-thickness-normal edge-pattern-solid flowchart-link" id="L_TTN_network_10" d="M691.016,549.449L704.531,549.449C718.047,549.449,745.078,549.449,762.76,549.449C780.443,549.449,788.776,549.449,797.109,549.449C805.443,549.449,813.776,549.449,821.443,549.449C829.109,549.449,836.109,549.449,839.609,549.449L843.109,549.449"/><path marker-end="url(#my-svg_flowchart-v2-pointEnd)" style="" class="edge-thickness-normal edge-pattern-solid edge-thickness-normal edge-pattern-solid flowchart-link" id="L_CELL-GSM_network_11" d="M719.578,687.848L728.333,687.848C737.089,687.848,754.599,687.848,767.521,687.848C780.443,687.848,788.776,687.848,797.109,687.848C805.443,687.848,813.776,687.848,821.443,687.848C829.109,687.848,836.109,687.848,839.609,687.848L843.109,687.848"/><path marker-end="url(#my-svg_flowchart-v2-pointEnd)" style="" class="edge-thickness-normal edge-pattern-solid edge-thickness-normal edge-pattern-solid flowchart-link" id="L_CELL-LTE_network_12" d="M747.109,791.848L751.276,791.848C755.443,791.848,763.776,791.848,772.109,791.848C780.443,791.848,788.776,791.848,797.109,791.848C805.443,791.848,813.776,791.848,821.443,791.848C829.109,791.848,836.109,791.848,839.609,791.848L843.109,791.848"/></g><g class="edgeLabels"><g class="edgeLabel"><g transform="translate(0, 0)" class="label"><foreignObject height="0" width="0"><div style="display: table-cell; white-space: nowrap; line-height: 1.5; max-width: 200px; text-align: center;" class="labelBkg" xmlns="http://www.w3.org/1999/xhtml"><span class="edgeLabel"></span></div></foreignObject></g></g><g class="edgeLabel"><g transform="translate(0, 0)" class="label"><foreignObject height="0" width="0"><div style="display: table-cell; white-space: nowrap; line-height: 1.5; max-width: 200px; text-align: center;" class="labelBkg" xmlns="http://www.w3.org/1999/xhtml"><span class="edgeLabel"></span></div></foreignObject></g></g><g class="edgeLabel"><g transform="translate(0, 0)" class="label"><foreignObject height="0" width="0"><div style="display: table-cell; white-space: nowrap; line-height: 1.5; max-width: 200px; text-align: center;" class="labelBkg" xmlns="http://www.w3.org/1999/xhtml"><span class="edgeLabel"></span></div></foreignObject></g></g><g class="edgeLabel"><g transform="translate(0, 0)" class="label"><foreignObject height="0" width="0"><div style="display: table-cell; white-space: nowrap; line-height: 1.5; max-width: 200px; text-align: center;" class="labelBkg" xmlns="http://www.w3.org/1999/xhtml"><span class="edgeLabel"></span></div></foreignObject></g></g><g class="edgeLabel"><g transform="translate(0, 0)" class="label"><foreignObject height="0" width="0"><div style="display: table-cell; white-space: nowrap; line-height: 1.5; max-width: 200px; text-align: center;" class="labelBkg" xmlns="http://www.w3.org/1999/xhtml"><span class="edgeLabel"></span></div></foreignObject></g></g><g class="edgeLabel"><g transform="translate(0, 0)" class="label"><foreignObject height="0" width="0"><div style="display: table-cell; white-space: nowrap; line-height: 1.5; max-width: 200px; text-align: center;" class="labelBkg" xmlns="http://www.w3.org/1999/xhtml"><span class="edgeLabel"></span></div></foreignObject></g></g><g class="edgeLabel"><g transform="translate(0, 0)" class="label"><foreignObject height="0" width="0"><div style="display: table-cell; white-space: nowrap; line-height: 1.5; max-width: 200px; text-align: center;" class="labelBkg" xmlns="http://www.w3.org/1999/xhtml"><span class="edgeLabel"></span></div></foreignObject></g></g><g class="edgeLabel"><g transform="translate(0, 0)" class="label"><foreignObject height="0" width="0"><div style="display: table-cell; white-space: nowrap; line-height: 1.5; max-width: 200px; text-align: center;" class="labelBkg" xmlns="http://www.w3.org/1999/xhtml"><span class="edgeLabel"></span></div></foreignObject></g></g><g class="edgeLabel"><g transform="translate(0, 0)" class="label"><foreignObject height="0" width="0"><div style="display: table-cell; white-space: nowrap; line-height: 1.5; max-width: 200px; text-align: center;" class="labelBkg" xmlns="http://www.w3.org/1999/xhtml"><span class="edgeLabel"></span></div></foreignObject></g></g><g class="edgeLabel"><g transform="translate(0, 0)" class="label"><foreignObject height="0" width="0"><div style="display: table-cell; white-space: nowrap; line-height: 1.5; max-width: 200px; text-align: center;" class="labelBkg" xmlns="http://www.w3.org/1999/xhtml"><span class="edgeLabel"></span></div></foreignObject></g></g><g class="edgeLabel"><g transform="translate(0, 0)" class="label"><foreignObject height="0" width="0"><div style="display: table-cell; white-space: nowrap; line-height: 1.5; max-width: 200px; text-align: center;" class="labelBkg" xmlns="http://www.w3.org/1999/xhtml"><span class="edgeLabel"></span></div></foreignObject></g></g><g class="edgeLabel"><g transform="translate(0, 0)" class="label"><foreignObject height="0" width="0"><div style="display: table-cell; white-space: nowrap; line-height: 1.5; max-width: 200px; text-align: center;" class="labelBkg" xmlns="http://www.w3.org/1999/xhtml"><span class="edgeLabel"></span></div></foreignObject></g></g><g class="edgeLabel"><g transform="translate(0, 0)" class="label"><foreignObject height="0" width="0"><div style="display: table-cell; white-space: nowrap; line-height: 1.5; max-width: 200px; text-align: center;" class="labelBkg" xmlns="http://www.w3.org/1999/xhtml"><span class="edgeLabel"></span></div></foreignObject></g></g><g class="edgeLabel"><g transform="translate(0, 0)" class="label"><foreignObject height="0" width="0"><div style="display: table-cell; white-space: nowrap; line-height: 1.5; max-width: 200px; text-align: center;" class="labelBkg" xmlns="http://www.w3.org/1999/xhtml"><span class="edgeLabel"></span></div></foreignObject></g></g><g class="edgeLabel"><g transform="translate(0, 0)" class="label"><foreignObject height="0" width="0"><div style="display: table-cell; white-space: nowrap; line-height: 1.5; max-width: 200px; text-align: center;" class="labelBkg" xmlns="http://www.w3.org/1999/xhtml"><span class="edgeLabel"></span></div></foreignObject></g></g></g><g class="nodes"><g transform="translate(129.3984375, 90)" id="flowchart-RF-1-0" class="node default"><rect height="54" width="140.96875" y="-27" x="-70.484375" style="" class="basic label-container"/><g transform="translate(-40.484375, -12)" style="" class="label"><rect/><foreignObject height="24" width="80.96875"><div style="display: table-cell; white-space: nowrap; line-height: 1.5; max-width: 200px; text-align: center;" xmlns="http://www.w3.org/1999/xhtml"><span class="nodeLabel"><p>RF sensor 1</p></span></div></foreignObject></g></g><g transform="translate(129.3984375, 194)" id="flowchart-RF-2-1" class="node default"><rect height="54" width="140.96875" y="-27" x="-70.484375" style="" class="basic label-container"/><g transform="translate(-40.484375, -12)" style="" class="label"><rect/><foreignObject height="24" width="80.96875"><div style="display: table-cell; white-space: nowrap; line-height: 1.5; max-width: 200px; text-align: center;" xmlns="http://www.w3.org/1999/xhtml"><span class="nodeLabel"><p>RF sensor 2</p></span></div></foreignObject></g></g><g transform="translate(129.3984375, 298)" id="flowchart-RF-N-2" class="node default"><rect height="54" width="142.796875" y="-27" x="-71.3984375" style="" class="basic label-container"/><g transform="translate(-41.3984375, -12)" style="" class="label"><rect/><foreignObject height="24" width="82.796875"><div style="display: table-cell; white-space: nowrap; line-height: 1.5; max-width: 200px; text-align: center;" xmlns="http://www.w3.org/1999/xhtml"><span class="nodeLabel"><p>RF sensor N</p></span></div></foreignObject></g></g><g transform="translate(363.9609375, 194)" id="flowchart-relay-3" class="node default"><polygon transform="translate(-73.1328125,19.5)" class="label-container" points="9.75,0 136.515625,0 146.265625,-19.5 136.515625,-39 9.75,-39 0,-19.5"/><g transform="translate(-55.8828125, -12)" style="" class="label"><rect/><foreignObject height="24" width="111.765625"><div style="display: table-cell; white-space: nowrap; line-height: 1.5; max-width: 200px; text-align: center;" xmlns="http://www.w3.org/1999/xhtml"><span class="nodeLabel"><p>telemetry relay</p></span></div></foreignObject></g></g><g transform="translate(363.9609375, 549.44921875)" id="flowchart-LORAWAN-4" class="node default"><rect height="54" width="176.328125" y="-27" x="-88.1640625" style="" class="basic label-container"/><g transform="translate(-58.1640625, -12)" style="" class="label"><rect/><foreignObject height="24" width="116.328125"><div style="display: table-cell; white-space: nowrap; line-height: 1.5; max-width: 200px; text-align: center;" xmlns="http://www.w3.org/1999/xhtml"><span class="nodeLabel"><p>LoRaWAN sensor</p></span></div></foreignObject></g></g><g transform="translate(363.9609375, 442)" id="flowchart-LORA-5" class="node default"><rect height="54" width="144.453125" y="-27" x="-72.2265625" style="" class="basic label-container"/><g transform="translate(-42.2265625, -12)" style="" class="label"><rect/><foreignObject height="24" width="84.453125"><div style="display: table-cell; white-space: nowrap; line-height: 1.5; max-width: 200px; text-align: center;" xmlns="http://www.w3.org/1999/xhtml"><span class="nodeLabel"><p>LoRa sensor</p></span></div></foreignObject></g></g><g transform="translate(649.6171875, 687.84765625)" id="flowchart-CELL-GSM-6" class="node default"><rect height="54" width="139.921875" y="-27" x="-69.9609375" style="" class="basic label-container"/><g transform="translate(-39.9609375, -12)" style="" class="label"><rect/><foreignObject height="24" width="79.921875"><div style="display: table-cell; white-space: nowrap; line-height: 1.5; max-width: 200px; text-align: center;" xmlns="http://www.w3.org/1999/xhtml"><span class="nodeLabel"><p>GSM sensor</p></span></div></foreignObject></g></g><g transform="translate(649.6171875, 791.84765625)" id="flowchart-CELL-LTE-7" class="node default"><rect height="54" width="194.984375" y="-27" x="-97.4921875" style="" class="basic label-container"/><g transform="translate(-67.4921875, -12)" style="" class="label"><rect/><foreignObject height="24" width="134.984375"><div style="display: table-cell; white-space: nowrap; line-height: 1.5; max-width: 200px; text-align: center;" xmlns="http://www.w3.org/1999/xhtml"><span class="nodeLabel"><p>LTE M1/NB1 sensor</p></span></div></foreignObject></g></g><g transform="translate(649.6171875, 334.1779251098633)" id="flowchart-gateway-8" class="node default"><polygon transform="translate(-78.8125,19.5)" class="label-container" points="9.75,0 147.875,0 157.625,-19.5 147.875,-39 9.75,-39 0,-19.5"/><g transform="translate(-61.5625, -12)" style="" class="label"><rect/><foreignObject height="24" width="123.125"><div style="display: table-cell; white-space: nowrap; line-height: 1.5; max-width: 200px; text-align: center;" xmlns="http://www.w3.org/1999/xhtml"><span class="nodeLabel"><p>network gateway</p></span></div></foreignObject></g></g><g transform="translate(649.6171875, 549.44921875)" id="flowchart-TTN-17" class="node default"><polygon transform="translate(-41.3984375,41.3984375)" class="label-container" points="41.3984375,0 82.796875,-41.3984375 41.3984375,-82.796875 0,-41.3984375"/><g transform="translate(-14.3984375, -12)" style="" class="label"><rect/><foreignObject height="24" width="28.796875"><div style="display: table-cell; white-space: nowrap; line-height: 1.5; max-width: 200px; text-align: center;" xmlns="http://www.w3.org/1999/xhtml"><span class="nodeLabel"><p>TTN</p></span></div></foreignObject></g></g><g transform="translate(919.484375, 615.4771575927734)" id="flowchart-HTTP-18" class="node default"><polygon transform="translate(-45.984375,45.984375)" class="label-container" points="45.984375,0 91.96875,-45.984375 45.984375,-91.96875 0,-45.984375"/><g transform="translate(-18.984375, -12)" style="" class="label"><rect/><foreignObject height="24" width="37.96875"><div style="display: table-cell; white-space: nowrap; line-height: 1.5; max-width: 200px; text-align: center;" xmlns="http://www.w3.org/1999/xhtml"><span class="nodeLabel"><p>HTTP</p></span></div></foreignObject></g></g><g transform="translate(919.484375, 380.59582138061523)" id="flowchart-MQTT-19" class="node default"><polygon transform="translate(-47.375,47.375)" class="label-container" points="47.375,0 94.75,-47.375 47.375,-94.75 0,-47.375"/><g transform="translate(-20.375, -12)" style="" class="label"><rect/><foreignObject height="24" width="40.75"><div style="display: table-cell; white-space: nowrap; line-height: 1.5; max-width: 200px; text-align: center;" xmlns="http://www.w3.org/1999/xhtml"><span class="nodeLabel"><p>MQTT</p></span></div></foreignObject></g></g><g transform="translate(1182.234375, 480.8854789733887)" id="flowchart-Kotori-20" class="node default"><g transform="translate(7.875,0)" class="basic label-container"><path style="" fill="#ECECFF" stroke-width="0" stroke="none" d="M-123.25 -31.5 C-119.39419302567914 -23.788386051358273, -115.53838605135827 -16.07677210271655, -107.5 0 C-113.75340454228157 12.50680908456314, -120.00680908456314 25.01361816912628, -123.25 31.5 C-32.03148444394225 31.5, 59.187031112115505 31.5, 107.5 31.5 C107.5 16.104631580699202, 107.5 0.709263161398404, 107.5 -31.5 C28.044337920627 -31.5, -51.411324158746 -31.5, -123.25 -31.5"/><path style="" fill="none" stroke-width="1.3" stroke="#9370DB" d="M-123.25 -31.5 C-119.26881904663834 -23.537638093276684, -115.28763809327668 -15.57527618655337, -107.5 0 M-123.25 -31.5 C-119.58700805268816 -24.17401610537633, -115.92401610537634 -16.848032210752663, -107.5 0 M-107.5 0 C-111.16836939515291 7.336738790305804, -114.8367387903058 14.673477580611609, -123.25 31.5 M-107.5 0 C-113.5648950793795 12.129790158758999, -119.629790158759 24.259580317517997, -123.25 31.5 M-123.25 31.5 C-73.33311797385684 31.5, -23.416235947713673 31.5, 107.5 31.5 M-123.25 31.5 C-55.01280525562572 31.5, 13.224389488748557 31.5, 107.5 31.5 M107.5 31.5 C107.5 18.439649890524905, 107.5 5.379299781049809, 107.5 -31.5 M107.5 31.5 C107.5 6.499791242983392, 107.5 -18.500417514033217, 107.5 -31.5 M107.5 -31.5 C43.18243316694998 -31.5, -21.135133666100046 -31.5, -123.25 -31.5 M107.5 -31.5 C22.338879951024225 -31.5, -62.82224009795155 -31.5, -123.25 -31.5"/></g><g transform="translate(-92.125, -24)" style="" class="label"><rect/><foreignObject height="48" width="200"><div style="display: table; white-space: break-spaces; line-height: 1.5; max-width: 200px; text-align: center; width: 200px;" xmlns="http://www.w3.org/1999/xhtml"><span class="nodeLabel"><p>Kotori message router\nand data historian</p></span></div></foreignObject></g></g><g transform="translate(1406.0703125, 370.46508026123047)" id="flowchart-InfluxDB-21" class="node default"><path transform="translate(-37.2265625, -33.49823736780259)" style="" class="basic label-container" d="M0,9.332158245201724 a37.2265625,9.332158245201724 0,0,0 74.453125,0 a37.2265625,9.332158245201724 0,0,0 -74.453125,0 l0,48.332158245201725 a37.2265625,9.332158245201724 0,0,0 74.453125,0 l0,-48.332158245201725"/><g transform="translate(-29.7265625, -2)" style="" class="label"><rect/><foreignObject height="24" width="59.453125"><div style="display: table-cell; white-space: nowrap; line-height: 1.5; max-width: 200px; text-align: center;" xmlns="http://www.w3.org/1999/xhtml"><span class="nodeLabel"><p>InfluxDB</p></span></div></foreignObject></g></g><g transform="translate(1406.0703125, 487.3058776855469)" id="flowchart-CrateDB-22" class="node default"><path transform="translate(-36.5703125, -33.34255973503667)" style="" class="basic label-container" d="M0,9.228373156691113 a36.5703125,9.228373156691113 0,0,0 73.140625,0 a36.5703125,9.228373156691113 0,0,0 -73.140625,0 l0,48.22837315669111 a36.5703125,9.228373156691113 0,0,0 73.140625,0 l0,-48.22837315669111"/><g transform="translate(-29.0703125, -2)" style="" class="label"><rect/><foreignObject height="24" width="58.140625"><div style="display: table-cell; white-space: nowrap; line-height: 1.5; max-width: 200px; text-align: center;" xmlns="http://www.w3.org/1999/xhtml"><span class="nodeLabel"><p>CrateDB</p></span></div></foreignObject></g></g><g transform="translate(1406.0703125, 597.6484375)" id="flowchart-Grafana-28" class="node default"><rect height="54" width="116.921875" y="-27" x="-58.4609375" style="" class="basic label-container"/><g transform="translate(-28.4609375, -12)" style="" class="label"><rect/><foreignObject height="24" width="56.921875"><div style="display: table-cell; white-space: nowrap; line-height: 1.5; max-width: 200px; text-align: center;" xmlns="http://www.w3.org/1999/xhtml"><span class="nodeLabel"><p>Grafana</p></span></div></foreignObject></g></g></g></g></g></svg>