<svg aria-roledescription="mindmap" role="graphics-document document" viewBox="5 5 1542.77099609375 578.655029296875" style="max-width: 1542.77px; background-color: white;" xmlns:xlink="http://www.w3.org/1999/xlink" xmlns="http://www.w3.org/2000/svg" width="100%" id="my-svg"><style>#my-svg{font-family:"trebuchet ms",verdana,arial,sans-serif;font-size:16px;fill:#333;}#my-svg .error-icon{fill:#552222;}#my-svg .error-text{fill:#552222;stroke:#552222;}#my-svg .edge-thickness-normal{stroke-width:1px;}#my-svg .edge-thickness-thick{stroke-width:3.5px;}#my-svg .edge-pattern-solid{stroke-dasharray:0;}#my-svg .edge-thickness-invisible{stroke-width:0;fill:none;}#my-svg .edge-pattern-dashed{stroke-dasharray:3;}#my-svg .edge-pattern-dotted{stroke-dasharray:2;}#my-svg .marker{fill:#333333;stroke:#333333;}#my-svg .marker.cross{stroke:#333333;}#my-svg svg{font-family:"trebuchet ms",verdana,arial,sans-serif;font-size:16px;}#my-svg p{margin:0;}#my-svg .edge{stroke-width:3;}#my-svg .section--1 rect,#my-svg .section--1 path,#my-svg .section--1 circle,#my-svg .section--1 polygon,#my-svg .section--1 path{fill:hsl(240, 100%, 76.2745098039%);}#my-svg .section--1 text{fill:#ffffff;}#my-svg .node-icon--1{font-size:40px;color:#ffffff;}#my-svg .section-edge--1{stroke:hsl(240, 100%, 76.2745098039%);}#my-svg .edge-depth--1{stroke-width:17;}#my-svg .section--1 line{stroke:hsl(60, 100%, 86.2745098039%);stroke-width:3;}#my-svg .disabled,#my-svg .disabled circle,#my-svg .disabled text{fill:lightgray;}#my-svg .disabled text{fill:#efefef;}#my-svg .section-0 rect,#my-svg .section-0 path,#my-svg .section-0 circle,#my-svg .section-0 polygon,#my-svg .section-0 path{fill:hsl(60, 100%, 73.5294117647%);}#my-svg .section-0 text{fill:black;}#my-svg .node-icon-0{font-size:40px;color:black;}#my-svg .section-edge-0{stroke:hsl(60, 100%, 73.5294117647%);}#my-svg .edge-depth-0{stroke-width:14;}#my-svg .section-0 line{stroke:hsl(240, 100%, 83.5294117647%);stroke-width:3;}#my-svg .disabled,#my-svg .disabled circle,#my-svg .disabled text{fill:lightgray;}#my-svg .disabled text{fill:#efefef;}#my-svg .section-1 rect,#my-svg .section-1 path,#my-svg .section-1 circle,#my-svg .section-1 polygon,#my-svg .section-1 path{fill:hsl(80, 100%, 76.2745098039%);}#my-svg .section-1 text{fill:black;}#my-svg .node-icon-1{font-size:40px;color:black;}#my-svg .section-edge-1{stroke:hsl(80, 100%, 76.2745098039%);}#my-svg .edge-depth-1{stroke-width:11;}#my-svg .section-1 line{stroke:hsl(260, 100%, 86.2745098039%);stroke-width:3;}#my-svg .disabled,#my-svg .disabled circle,#my-svg .disabled text{fill:lightgray;}#my-svg .disabled text{fill:#efefef;}#my-svg .section-2 rect,#my-svg .section-2 path,#my-svg .section-2 circle,#my-svg .section-2 polygon,#my-svg .section-2 path{fill:hsl(270, 100%, 76.2745098039%);}#my-svg .section-2 text{fill:#ffffff;}#my-svg .node-icon-2{font-size:40px;color:#ffffff;}#my-svg .section-edge-2{stroke:hsl(270, 100%, 76.2745098039%);}#my-svg .edge-depth-2{stroke-width:8;}#my-svg .section-2 line{stroke:hsl(90, 100%, 86.2745098039%);stroke-width:3;}#my-svg .disabled,#my-svg .disabled circle,#my-svg .disabled text{fill:lightgray;}#my-svg .disabled text{fill:#efefef;}#my-svg .section-3 rect,#my-svg .section-3 path,#my-svg .section-3 circle,#my-svg .section-3 polygon,#my-svg .section-3 path{fill:hsl(300, 100%, 76.2745098039%);}#my-svg .section-3 text{fill:black;}#my-svg .node-icon-3{font-size:40px;color:black;}#my-svg .section-edge-3{stroke:hsl(300, 100%, 76.2745098039%);}#my-svg .edge-depth-3{stroke-width:5;}#my-svg .section-3 line{stroke:hsl(120, 100%, 86.2745098039%);stroke-width:3;}#my-svg .disabled,#my-svg .disabled circle,#my-svg .disabled text{fill:lightgray;}#my-svg .disabled text{fill:#efefef;}#my-svg .section-4 rect,#my-svg .section-4 path,#my-svg .section-4 circle,#my-svg .section-4 polygon,#my-svg .section-4 path{fill:hsl(330, 100%, 76.2745098039%);}#my-svg .section-4 text{fill:black;}#my-svg .node-icon-4{font-size:40px;color:black;}#my-svg .section-edge-4{stroke:hsl(330, 100%, 76.2745098039%);}#my-svg .edge-depth-4{stroke-width:2;}#my-svg .section-4 line{stroke:hsl(150, 100%, 86.2745098039%);stroke-width:3;}#my-svg .disabled,#my-svg .disabled circle,#my-svg .disabled text{fill:lightgray;}#my-svg .disabled text{fill:#efefef;}#my-svg .section-5 rect,#my-svg .section-5 path,#my-svg .section-5 circle,#my-svg .section-5 polygon,#my-svg .section-5 path{fill:hsl(0, 100%, 76.2745098039%);}#my-svg .section-5 text{fill:black;}#my-svg .node-icon-5{font-size:40px;color:black;}#my-svg .section-edge-5{stroke:hsl(0, 100%, 76.2745098039%);}#my-svg .edge-depth-5{stroke-width:-1;}#my-svg .section-5 line{stroke:hsl(180, 100%, 86.2745098039%);stroke-width:3;}#my-svg .disabled,#my-svg .disabled circle,#my-svg .disabled text{fill:lightgray;}#my-svg .disabled text{fill:#efefef;}#my-svg .section-6 rect,#my-svg .section-6 path,#my-svg .section-6 circle,#my-svg .section-6 polygon,#my-svg .section-6 path{fill:hsl(30, 100%, 76.2745098039%);}#my-svg .section-6 text{fill:black;}#my-svg .node-icon-6{font-size:40px;color:black;}#my-svg .section-edge-6{stroke:hsl(30, 100%, 76.2745098039%);}#my-svg .edge-depth-6{stroke-width:-4;}#my-svg .section-6 line{stroke:hsl(210, 100%, 86.2745098039%);stroke-width:3;}#my-svg .disabled,#my-svg .disabled circle,#my-svg .disabled text{fill:lightgray;}#my-svg .disabled text{fill:#efefef;}#my-svg .section-7 rect,#my-svg .section-7 path,#my-svg .section-7 circle,#my-svg .section-7 polygon,#my-svg .section-7 path{fill:hsl(90, 100%, 76.2745098039%);}#my-svg .section-7 text{fill:black;}#my-svg .node-icon-7{font-size:40px;color:black;}#my-svg .section-edge-7{stroke:hsl(90, 100%, 76.2745098039%);}#my-svg .edge-depth-7{stroke-width:-7;}#my-svg .section-7 line{stroke:hsl(270, 100%, 86.2745098039%);stroke-width:3;}#my-svg .disabled,#my-svg .disabled circle,#my-svg .disabled text{fill:lightgray;}#my-svg .disabled text{fill:#efefef;}#my-svg .section-8 rect,#my-svg .section-8 path,#my-svg .section-8 circle,#my-svg .section-8 polygon,#my-svg .section-8 path{fill:hsl(150, 100%, 76.2745098039%);}#my-svg .section-8 text{fill:black;}#my-svg .node-icon-8{font-size:40px;color:black;}#my-svg .section-edge-8{stroke:hsl(150, 100%, 76.2745098039%);}#my-svg .edge-depth-8{stroke-width:-10;}#my-svg .section-8 line{stroke:hsl(330, 100%, 86.2745098039%);stroke-width:3;}#my-svg .disabled,#my-svg .disabled circle,#my-svg .disabled text{fill:lightgray;}#my-svg .disabled text{fill:#efefef;}#my-svg .section-9 rect,#my-svg .section-9 path,#my-svg .section-9 circle,#my-svg .section-9 polygon,#my-svg .section-9 path{fill:hsl(180, 100%, 76.2745098039%);}#my-svg .section-9 text{fill:black;}#my-svg .node-icon-9{font-size:40px;color:black;}#my-svg .section-edge-9{stroke:hsl(180, 100%, 76.2745098039%);}#my-svg .edge-depth-9{stroke-width:-13;}#my-svg .section-9 line{stroke:hsl(0, 100%, 86.2745098039%);stroke-width:3;}#my-svg .disabled,#my-svg .disabled circle,#my-svg .disabled text{fill:lightgray;}#my-svg .disabled text{fill:#efefef;}#my-svg .section-10 rect,#my-svg .section-10 path,#my-svg .section-10 circle,#my-svg .section-10 polygon,#my-svg .section-10 path{fill:hsl(210, 100%, 76.2745098039%);}#my-svg .section-10 text{fill:black;}#my-svg .node-icon-10{font-size:40px;color:black;}#my-svg .section-edge-10{stroke:hsl(210, 100%, 76.2745098039%);}#my-svg .edge-depth-10{stroke-width:-16;}#my-svg .section-10 line{stroke:hsl(30, 100%, 86.2745098039%);stroke-width:3;}#my-svg .disabled,#my-svg .disabled circle,#my-svg .disabled text{fill:lightgray;}#my-svg .disabled text{fill:#efefef;}#my-svg .section-root rect,#my-svg .section-root path,#my-svg .section-root circle,#my-svg .section-root polygon{fill:hsl(240, 100%, 46.2745098039%);}#my-svg .section-root text{fill:#ffffff;}#my-svg .icon-container{height:100%;display:flex;justify-content:center;align-items:center;}#my-svg .edge{fill:none;}#my-svg .mindmap-node-label{dy:1em;alignment-baseline:middle;text-anchor:middle;dominant-baseline:middle;text-align:center;}#my-svg :root{--mermaid-font-family:"trebuchet ms",verdana,arial,sans-serif;}</style><g/><g class="mindmap-edges"><path class="edge section-edge-0 edge-depth-1" d="M 942.8616233951836,255.89899346391348 L 1001.0725244475713,232.3025082615452 L1059.2834254999589,208.70602305917694"/><path class="edge section-edge-0 edge-depth-1" d="M 943.2488178592489,266.0990209606398 L 999.9570865837452,284.21650224760447 L1056.6653553082417,302.33398353456914"/><path class="edge section-edge-0 edge-depth-0" d="M 794.9920268063277,309.6879353543493 L 854.9182664655498,288.14790502287144 L914.8445061247719,266.6078746913936"/><path class="edge section-edge-1 edge-depth-1" d="M 575.7167310366178,293.1737460236105 L 531.8499426977904,268.3435575773463 L487.983154358963,243.51336913108216"/><path class="edge section-edge-1 edge-depth-1" d="M 584.524887638268,314.9492943342051 L 573.8450849938816,351.13785353676246 L563.1652823494953,387.32641273931984"/><path class="edge section-edge-1 edge-depth-1" d="M 601.8570956471272,307.8936954976849 L 645.0157724959878,332.0709646035347 L688.1744493448484,356.2482337093845"/><path class="edge section-edge-1 edge-depth-1" d="M 602.5751162932602,294.69455857526066 L 648.017698656627,275.37743632332024 L693.4602810199938,256.0603140713799"/><path class="edge section-edge-1 edge-depth-1" d="M 592.0561469584122,285.9269552843592 L 601.300080617857,244.7491580822413 L610.5440142773018,203.57136088012345"/><path class="edge section-edge-1 edge-depth-0" d="M 765.9170149035501,313.65608340309615 L 684.8234007445801,307.6622311733853 L603.7297865856101,301.66837894367444"/><path class="edge section-edge-2 edge-depth-2" d="M 360.94274549319675,272.8677502706224 L 330.5573678495057,241.230549502653 L300.1719902058146,209.59334873468362"/><path class="edge section-edge-2 edge-depth-1" d="M 481.1543724855994,343.13500464246545 L 432.83940151240483,316.9809872862831 L384.52443053921013,290.82696993010074"/><path class="edge section-edge-2 edge-depth-2" d="M 319.5211378389351,405.4737547473378 L 266.99968884782976,410.42756739737104 L214.47823985672443,415.38138004740426"/><path class="edge section-edge-2 edge-depth-2" d="M 326.31784778113297,416.666362491662 L 307.1694120047753,446.3200517492431 L288.0209762284177,475.9737410068241"/><path class="edge section-edge-2 edge-depth-1" d="M 480.12859210252486,355.05856247261687 L 414.40025335838834,377.1704792098577 L348.6719146142517,399.28239594709856"/><path class="edge section-edge-2 edge-depth-2" d="M 444.08240225006597,463.074219977039 L 442.76846483546274,497.75149674179823 L441.4545274208595,532.4287735065575"/><path class="edge section-edge-2 edge-depth-1" d="M 487.5510996161733,363.6486360718631 L 469.4980000101522,399.18036262026317 L451.44490040413115,434.7120891686632"/><path class="edge section-edge-2 edge-depth-2" d="M 268.0443966716745,327.51237088779965 L 232.05977390062304,303.22482875078435 L196.07515112957157,278.93728661376906"/><path class="edge section-edge-2 edge-depth-2" d="M 265.4854517529367,336.39355831807615 L 181.78560487330287,339.1269101672009 L98.08575799366906,341.86026201632563"/><path class="edge section-edge-2 edge-depth-1" d="M 479.37940241665524,349.2700288950473 L 387.4115542041433,343.0898598063703 L295.4437059916313,336.90969071769337"/><path class="edge section-edge-2 edge-depth-0" d="M 765.9901155391289,316.606813368707 L 637.6109287363324,332.5187539000794 L509.231741933536,348.4306944314518"/><path class="edge section-edge-3 edge-depth-2" d="M 760.9220174129272,117.1528024821602 L 695.0213669070476,93.52298637524711 L629.1207164011681,69.89317026833403"/><path class="edge section-edge-3 edge-depth-2" d="M 781.0709993113187,108.48075067682171 L 794.4257712775279,78.05784078340756 L807.7805432437374,47.634930889993385"/><path class="edge section-edge-3 edge-depth-1" d="M 839.7555457578994,195.11790996650174 L 812.377592008582,164.27573391219218 L784.9996382592647,133.43355785788262"/><path class="edge section-edge-3 edge-depth-2" d="M 982.9140007680168,123.47950418610046 L 1001.4291160769465,93.45088424494625 L1019.9442313858762,63.42226430379205"/><path class="edge section-edge-3 edge-depth-2" d="M 989.9499785911737,134.59352400115768 L 1086.6821692447254,123.86158480787262 L1183.414359898277,113.12964561458756"/><path class="edge section-edge-3 edge-depth-1" d="M 862.8052587018922,199.01432813687057 L 912.3774351678205,171.2916673853663 L961.9496116337489,143.56900663386205"/><path class="edge section-edge-3 edge-depth-0" d="M 788.9159416017,302.0983192303702 L 815.2948142070766,260.5487724285003 L841.6736868124532,218.99922562663042"/><path class="edge section-edge-4 edge-depth-1" d="M 777.5284225628196,434.27008498261864 L 776.3302425655656,473.57533637993043 L775.1320625683117,512.8805877772422"/><path class="edge section-edge-4 edge-depth-1" d="M 792.0897224060623,424.3829342477762 L 851.887942871617,446.03050532264507 L911.6861633371718,467.67807639751396"/><path class="edge section-edge-4 edge-depth-1" d="M 763.8735187023947,424.36161822005124 L 698.8563109547173,447.7874682889418 L633.8391032070399,471.21331835783235"/><path class="edge section-edge-4 edge-depth-0" d="M 780.4614894973497,329.75602443310584 L 779.4308392857849,367.01940413515615 L778.4001890742204,404.28278383720647"/><path class="edge section-edge-5 edge-depth-2" d="M 1222.2882632975325,351.103467628513 L 1300.1799386504997,334.76182930092307 L1378.071614003467,318.42019097333315"/><path class="edge section-edge-5 edge-depth-2" d="M 1222.4824203895212,356.1193127481132 L 1324.0956536424455,369.3441537675111 L1425.7088868953697,382.568994786909"/><path class="edge section-edge-5 edge-depth-2" d="M 1214.6502445886408,340.9393543040534 L 1233.5050379143331,305.48059541633893 L1252.3598312400252,270.0218365286245"/><path class="edge section-edge-5 edge-depth-1" d="M 1015.9505041527743,370.1819697669276 L 1104.3051810980246,362.80657991573133 L1192.6598580432747,355.4311900645351"/><path class="edge section-edge-5 edge-depth-2" d="M 1088.0833380350696,464.55991277989256 L 1056.665203384899,499.66855029638225 L1025.2470687347284,534.777187812872"/><path class="edge section-edge-5 edge-depth-2" d="M 1113.0535875733854,452.39396671436424 L 1190.7591714119064,447.26388969102385 L1268.4647552504275,442.13381266768346"/><path class="edge section-edge-5 edge-depth-2" d="M 1111.3595405002977,460.3690692538011 L 1170.3434171224922,491.4175614625034 L1229.3272937446864,522.4660536712056"/><path class="edge section-edge-5 edge-depth-1" d="M 1012.4646535492958,381.1054368509967 L 1049.5443316334856,412.40592948644996 L1086.6240097176756,443.70642212190324"/><path class="edge section-edge-5 edge-depth-0" d="M 795.4025821271364,318.50134123386744 L 890.9393508774263,343.0957553793074 L986.4761196277161,367.6901695247473"/></g><g class="mindmap-nodes"><g transform="translate(693.344958810984, 295.86175859943137)" class="mindmap-node section--1 section-root"><g transform="translate(87.53125, 18.9)"><circle r="87.53125" class="node-bkg node-circle" id="node-0"/></g><g transform="translate(87.53125, 5)" text-anchor="middle" dominant-baseline="middle" alignment-baseline="middle" dy="1em"><g><rect style="stroke: none" class="background"/><text style="" y="-10.1"><tspan dy="1.1em" y="-0.1em" x="0" class="text-outer-tspan"><tspan font-weight="normal" class="text-inner-tspan" font-style="normal">Golf</tspan><tspan font-weight="normal" class="text-inner-tspan" font-style="normal"> Shot</tspan><tspan font-weight="normal" class="text-inner-tspan" font-style="normal"> Tracker</tspan><tspan font-weight="normal" class="text-inner-tspan" font-style="normal"> App</tspan></tspan></text></g></g></g><g transform="translate(885.6634491201155, 242.63405144631153)" class="mindmap-node section-0"><g><path d="M0 32.8 v-27.799999999999997 q0,-5 5,-5 h76.59375 q5,0 5,5 v32.8 H0 Z" class="node-bkg node-no-border" id="node-1"/><line y2="37.8" x2="86.59375" y1="37.8" x1="0" class="node-line-0"/></g><g transform="translate(43.296875, 5)" text-anchor="middle" dominant-baseline="middle" alignment-baseline="middle" dy="1em"><g><rect style="stroke: none" class="background"/><text style="" y="-10.1"><tspan dy="1.1em" y="-0.1em" x="0" class="text-outer-tspan"><tspan font-weight="normal" class="text-inner-tspan" font-style="normal">Overview</tspan></tspan></text></g></g></g><g transform="translate(547.7471551781762, 281.66270374733926)" class="mindmap-node section-1"><g><path d="M0 32.8 v-27.799999999999997 q0,-5 5,-5 h72.046875 q5,0 5,5 v32.8 H0 Z" class="node-bkg node-no-border" id="node-4"/><line y2="37.8" x2="82.046875" y1="37.8" x1="0" class="node-line-1"/></g><g transform="translate(41.0234375, 5)" text-anchor="middle" dominant-baseline="middle" alignment-baseline="middle" dy="1em"><g><rect style="stroke: none" class="background"/><text style="" y="-10.1"><tspan dy="1.1em" y="-0.1em" x="0" class="text-outer-tspan"><tspan font-weight="normal" class="text-inner-tspan" font-style="normal">Features</tspan></tspan></text></g></g></g><g transform="translate(423.0878361616808, 331.37574920072745)" class="mindmap-node section-2"><g><path d="M0 32.8 v-27.799999999999997 q0,-5 5,-5 h132.515625 q5,0 5,5 v32.8 H0 Z" class="node-bkg node-no-border" id="node-10"/><line y2="37.8" x2="142.515625" y1="37.8" x1="0" class="node-line-2"/></g><g transform="translate(71.2578125, 5)" text-anchor="middle" dominant-baseline="middle" alignment-baseline="middle" dy="1em"><g><rect style="stroke: none" class="background"/><text style="" y="-10.1"><tspan dy="1.1em" y="-0.1em" x="0" class="text-outer-tspan"><tspan font-weight="normal" class="text-inner-tspan" font-style="normal">Technology</tspan><tspan font-weight="normal" class="text-inner-tspan" font-style="normal"> Stack</tspan></tspan></text></g></g></g><g transform="translate(762.0024821031691, 187.43578625756925)" class="mindmap-node section-3"><g><path d="M0 32.8 v-27.799999999999997 q0,-5 5,-5 h165.421875 q5,0 5,5 v32.8 H0 Z" class="node-bkg node-no-border" id="node-21"/><line y2="37.8" x2="175.421875" y1="37.8" x1="0" class="node-line-3"/></g><g transform="translate(87.7109375, 5)" text-anchor="middle" dominant-baseline="middle" alignment-baseline="middle" dy="1em"><g><rect style="stroke: none" class="background"/><text style="" y="-10.1"><tspan dy="1.1em" y="-0.1em" x="0" class="text-outer-tspan"><tspan font-weight="normal" class="text-inner-tspan" font-style="normal">Future</tspan><tspan font-weight="normal" class="text-inner-tspan" font-style="normal"> Enhancements</tspan></tspan></text></g></g></g><g transform="translate(714.438594760586, 400.377049670881)" class="mindmap-node section-4"><g><path d="M0 32.8 v-27.799999999999997 q0,-5 5,-5 h117.09375 q5,0 5,5 v32.8 H0 Z" class="node-bkg node-no-border" id="node-28"/><line y2="37.8" x2="127.09375" y1="37.8" x1="0" class="node-line-4"/></g><g transform="translate(63.546875, 5)" text-anchor="middle" dominant-baseline="middle" alignment-baseline="middle" dy="1em"><g><rect style="stroke: none" class="background"/><text style="" y="-10.1"><tspan dy="1.1em" y="-0.1em" x="0" class="text-outer-tspan"><tspan font-weight="normal" class="text-inner-tspan" font-style="normal">Research</tspan><tspan font-weight="normal" class="text-inner-tspan" font-style="normal"> Areas</tspan></tspan></text></g></g></g><g transform="translate(949.7446804438684, 352.52975215918343)" class="mindmap-node section-5"><g><path d="M0 32.8 v-27.799999999999997 q0,-5 5,-5 h92.515625 q5,0 5,5 v32.8 H0 Z" class="node-bkg node-no-border" id="node-32"/><line y2="37.8" x2="102.515625" y1="37.8" x1="0" class="node-line-5"/></g><g transform="translate(51.2578125, 5)" text-anchor="middle" dominant-baseline="middle" alignment-baseline="middle" dy="1em"><g><rect style="stroke: none" class="background"/><text style="" y="-10.1"><tspan dy="1.1em" y="-0.1em" x="0" class="text-outer-tspan"><tspan font-weight="normal" class="text-inner-tspan" font-style="normal">SwingU</tspan><tspan font-weight="normal" class="text-inner-tspan" font-style="normal"> App</tspan></tspan></text></g></g></g><g transform="translate(977.286287275027, 184.17096507677888)" class="mindmap-node section-0"><g><path d="M0 32.8 v-27.799999999999997 q0,-5 5,-5 h181.796875 q5,0 5,5 v32.8 H0 Z" class="node-bkg node-no-border" id="node-2"/><line y2="37.8" x2="191.796875" y1="37.8" x1="0" class="node-line-0"/></g><g transform="translate(95.8984375, 5)" text-anchor="middle" dominant-baseline="middle" alignment-baseline="middle" dy="1em"><g><rect style="stroke: none" class="background"/><text style="" y="-10.1"><tspan dy="1.1em" y="-0.1em" x="0" class="text-outer-tspan"><tspan font-weight="normal" class="text-inner-tspan" font-style="normal">Real-Time</tspan><tspan font-weight="normal" class="text-inner-tspan" font-style="normal"> Shot</tspan><tspan font-weight="normal" class="text-inner-tspan" font-style="normal"> Tracking</tspan></tspan></text></g></g></g><g transform="translate(985.1647865473751, 287.9989530488974)" class="mindmap-node section-0"><g><path d="M0 32.8 v-27.799999999999997 q0,-5 5,-5 h161.578125 q5,0 5,5 v32.8 H0 Z" class="node-bkg node-no-border" id="node-3"/><line y2="37.8" x2="171.578125" y1="37.8" x1="0" class="node-line-0"/></g><g transform="translate(85.7890625, 5)" text-anchor="middle" dominant-baseline="middle" alignment-baseline="middle" dy="1em"><g><rect style="stroke: none" class="background"/><text style="" y="-10.1"><tspan dy="1.1em" y="-0.1em" x="0" class="text-outer-tspan"><tspan font-weight="normal" class="text-inner-tspan" font-style="normal">Performance</tspan><tspan font-weight="normal" class="text-inner-tspan" font-style="normal"> Analysis</tspan></tspan></text></g></g></g><g transform="translate(412.9449177174047, 217.2244114073534)" class="mindmap-node section-1"><g><path d="M0 32.8 v-27.799999999999997 q0,-5 5,-5 h113.96875 q5,0 5,5 v32.8 H0 Z" class="node-bkg node-no-border" id="node-5"/><line y2="37.8" x2="123.96875" y1="37.8" x1="0" class="node-line-1"/></g><g transform="translate(61.984375, 5)" text-anchor="middle" dominant-baseline="middle" alignment-baseline="middle" dy="1em"><g><rect style="stroke: none" class="background"/><text style="" y="-10.1"><tspan dy="1.1em" y="-0.1em" x="0" class="text-outer-tspan"><tspan font-weight="normal" class="text-inner-tspan" font-style="normal">Track</tspan><tspan font-weight="normal" class="text-inner-tspan" font-style="normal"> Distance</tspan></tspan></text></g></g></g><g transform="translate(479.5367648095871, 382.8130033261857)" class="mindmap-node section-1"><g><path d="M0 32.8 v-27.799999999999997 q0,-5 5,-5 h148.765625 q5,0 5,5 v32.8 H0 Z" class="node-bkg node-no-border" id="node-6"/><line y2="37.8" x2="158.765625" y1="37.8" x1="0" class="node-line-1"/></g><g transform="translate(79.3828125, 5)" text-anchor="middle" dominant-baseline="middle" alignment-baseline="middle" dy="1em"><g><rect style="stroke: none" class="background"/><text style="" y="-10.1"><tspan dy="1.1em" y="-0.1em" x="0" class="text-outer-tspan"><tspan font-weight="normal" class="text-inner-tspan" font-style="normal">GPS-based</tspan><tspan font-weight="normal" class="text-inner-tspan" font-style="normal"> Tracking</tspan></tspan></text></g></g></g><g transform="translate(647.8859523137994, 344.6792254597302)" class="mindmap-node section-1"><g><path d="M0 32.8 v-27.799999999999997 q0,-5 5,-5 h96.75 q5,0 5,5 v32.8 H0 Z" class="node-bkg node-no-border" id="node-7"/><line y2="37.8" x2="106.75" y1="37.8" x1="0" class="node-line-1"/></g><g transform="translate(53.375, 5)" text-anchor="middle" dominant-baseline="middle" alignment-baseline="middle" dy="1em"><g><rect style="stroke: none" class="background"/><text style="" y="-10.1"><tspan dy="1.1em" y="-0.1em" x="0" class="text-outer-tspan"><tspan font-weight="normal" class="text-inner-tspan" font-style="normal">Shot</tspan><tspan font-weight="normal" class="text-inner-tspan" font-style="normal"> History</tspan></tspan></text></g></g></g><g transform="translate(610.0773046350778, 231.29216889930126)" class="mindmap-node section-1"><g><path d="M0 32.8 v-27.799999999999997 q0,-5 5,-5 h184.375 q5,0 5,5 v32.8 H0 Z" class="node-bkg node-no-border" id="node-8"/><line y2="37.8" x2="194.375" y1="37.8" x1="0" class="node-line-1"/></g><g transform="translate(97.1875, 5)" text-anchor="middle" dominant-baseline="middle" alignment-baseline="middle" dy="1em"><g><rect style="stroke: none" class="background"/><text style="" y="-10.1"><tspan dy="1.1em" y="-0.1em" x="0" class="text-outer-tspan"><tspan font-weight="normal" class="text-inner-tspan" font-style="normal">Performance</tspan><tspan font-weight="normal" class="text-inner-tspan" font-style="normal"> Breakdown</tspan></tspan></text></g></g></g><g transform="translate(549.8451935575379, 161.23561318008285)" class="mindmap-node section-1"><g><path d="M0 50.39999847412109 v-45.39999847412109 q0,-5 5,-5 h117.96875 q5,0 5,5 v50.39999847412109 H0 Z" class="node-bkg node-no-border" id="node-9"/><line y2="55.39999847412109" x2="127.96875" y1="55.39999847412109" x1="0" class="node-line-1"/></g><g transform="translate(63.984375, 5)" text-anchor="middle" dominant-baseline="middle" alignment-baseline="middle" dy="1em"><g><rect style="stroke: none" class="background"/><text style="" y="-10.1"><tspan dy="1.1em" y="-0.1em" x="0" class="text-outer-tspan"><tspan font-weight="normal" class="text-inner-tspan" font-style="normal">Suggestions</tspan><tspan font-weight="normal" class="text-inner-tspan" font-style="normal"> for</tspan></tspan><tspan dy="1.1em" y="1em" x="0" class="text-outer-tspan"><tspan font-weight="normal" class="text-inner-tspan" font-style="normal">Improvement</tspan></tspan></text></g></g></g><g transform="translate(328.99721686312876, 264.7862253718388)" class="mindmap-node section-2"><g><path d="M0 32.8 v-27.799999999999997 q0,-5 5,-5 h74.671875 q5,0 5,5 v32.8 H0 Z" class="node-bkg node-no-border" id="node-11"/><line y2="37.8" x2="84.671875" y1="37.8" x1="0" class="node-line-2"/></g><g transform="translate(42.3359375, 5)" text-anchor="middle" dominant-baseline="middle" alignment-baseline="middle" dy="1em"><g><rect style="stroke: none" class="background"/><text style="" y="-10.1"><tspan dy="1.1em" y="-0.1em" x="0" class="text-outer-tspan"><tspan font-weight="normal" class="text-inner-tspan" font-style="normal">Frontend</tspan></tspan></text></g></g></g><g transform="translate(294.53298305509577, 385.165209218988)" class="mindmap-node section-2"><g><path d="M0 32.8 v-27.799999999999997 q0,-5 5,-5 h69.84375 q5,0 5,5 v32.8 H0 Z" class="node-bkg node-no-border" id="node-13"/><line y2="37.8" x2="79.84375" y1="37.8" x1="0" class="node-line-2"/></g><g transform="translate(39.921875, 5)" text-anchor="middle" dominant-baseline="middle" alignment-baseline="middle" dy="1em"><g><rect style="stroke: none" class="background"/><text style="" y="-10.1"><tspan dy="1.1em" y="-0.1em" x="0" class="text-outer-tspan"><tspan font-weight="normal" class="text-inner-tspan" font-style="normal">Backend</tspan></tspan></text></g></g></g><g transform="translate(401.90035135862365, 429.1849760397989)" class="mindmap-node section-2"><g><path d="M0 32.8 v-27.799999999999997 q0,-5 5,-5 h75.5 q5,0 5,5 v32.8 H0 Z" class="node-bkg node-no-border" id="node-16"/><line y2="37.8" x2="85.5" y1="37.8" x1="0" class="node-line-2"/></g><g transform="translate(42.75, 5)" text-anchor="middle" dominant-baseline="middle" alignment-baseline="middle" dy="1em"><g><rect style="stroke: none" class="background"/><text style="" y="-10.1"><tspan dy="1.1em" y="-0.1em" x="0" class="text-outer-tspan"><tspan font-weight="normal" class="text-inner-tspan" font-style="normal">Database</tspan></tspan></text></g></g></g><g transform="translate(208.36027224660575, 317.00397041201325)" class="mindmap-node section-2"><g><path d="M0 32.8 v-27.799999999999997 q0,-5 5,-5 h134.234375 q5,0 5,5 v32.8 H0 Z" class="node-bkg node-no-border" id="node-18"/><line y2="37.8" x2="144.234375" y1="37.8" x1="0" class="node-line-2"/></g><g transform="translate(72.1171875, 5)" text-anchor="middle" dominant-baseline="middle" alignment-baseline="middle" dy="1em"><g><rect style="stroke: none" class="background"/><text style="" y="-10.1"><tspan dy="1.1em" y="-0.1em" x="0" class="text-outer-tspan"><tspan font-weight="normal" class="text-inner-tspan" font-style="normal">Location</tspan><tspan font-weight="normal" class="text-inner-tspan" font-style="normal"> Services</tspan></tspan></text></g></g></g><g transform="translate(702.635514413995, 103.3156815668151)" class="mindmap-node section-3"><g><path d="M0 32.8 v-27.799999999999997 q0,-5 5,-5 h134.8125 q5,0 5,5 v32.8 H0 Z" class="node-bkg node-no-border" id="node-22"/><line y2="37.8" x2="144.8125" y1="37.8" x1="0" class="node-line-3"/></g><g transform="translate(72.40625, 5)" text-anchor="middle" dominant-baseline="middle" alignment-baseline="middle" dy="1em"><g><rect style="stroke: none" class="background"/><text style="" y="-10.1"><tspan dy="1.1em" y="-0.1em" x="0" class="text-outer-tspan"><tspan font-weight="normal" class="text-inner-tspan" font-style="normal">Machine</tspan><tspan font-weight="normal" class="text-inner-tspan" font-style="normal"> Learning</tspan></tspan></text></g></g></g><g transform="translate(889.541450732472, 117.34754851316336)" class="mindmap-node section-3"><g><path d="M0 32.8 v-27.799999999999997 q0,-5 5,-5 h161 q5,0 5,5 v32.8 H0 Z" class="node-bkg node-no-border" id="node-25"/><line y2="37.8" x2="171" y1="37.8" x1="0" class="node-line-3"/></g><g transform="translate(85.5, 5)" text-anchor="middle" dominant-baseline="middle" alignment-baseline="middle" dy="1em"><g><rect style="stroke: none" class="background"/><text style="" y="-10.1"><tspan dy="1.1em" y="-0.1em" x="0" class="text-outer-tspan"><tspan font-weight="normal" class="text-inner-tspan" font-style="normal">Wearable</tspan><tspan font-weight="normal" class="text-inner-tspan" font-style="normal"> Integration</tspan></tspan></text></g></g></g><g transform="translate(701.8859528705452, 500.1736238519194)" class="mindmap-node section-4"><g><path d="M0 50.39999847412109 v-45.39999847412109 q0,-5 5,-5 h135.578125 q5,0 5,5 v50.39999847412109 H0 Z" class="node-bkg node-no-border" id="node-29"/><line y2="55.39999847412109" x2="145.578125" y1="55.39999847412109" x1="0" class="node-line-4"/></g><g transform="translate(72.7890625, 5)" text-anchor="middle" dominant-baseline="middle" alignment-baseline="middle" dy="1em"><g><rect style="stroke: none" class="background"/><text style="" y="-10.1"><tspan dy="1.1em" y="-0.1em" x="0" class="text-outer-tspan"><tspan font-weight="normal" class="text-inner-tspan" font-style="normal">Accuracy</tspan><tspan font-weight="normal" class="text-inner-tspan" font-style="normal"> in</tspan></tspan><tspan dy="1.1em" y="1em" x="0" class="text-outer-tspan"><tspan font-weight="normal" class="text-inner-tspan" font-style="normal">Weather/Lighting</tspan></tspan></text></g></g></g><g transform="translate(829.899790982648, 453.8839609744092)" class="mindmap-node section-4"><g><path d="M0 32.8 v-27.799999999999997 q0,-5 5,-5 h181.78125 q5,0 5,5 v32.8 H0 Z" class="node-bkg node-no-border" id="node-30"/><line y2="37.8" x2="191.78125" y1="37.8" x1="0" class="node-line-4"/></g><g transform="translate(95.890625, 5)" text-anchor="middle" dominant-baseline="middle" alignment-baseline="middle" dy="1em"><g><rect style="stroke: none" class="background"/><text style="" y="-10.1"><tspan dy="1.1em" y="-0.1em" x="0" class="text-outer-tspan"><tspan font-weight="normal" class="text-inner-tspan" font-style="normal">User</tspan><tspan font-weight="normal" class="text-inner-tspan" font-style="normal"> Usability</tspan><tspan font-weight="normal" class="text-inner-tspan" font-style="normal"> Feedback</tspan></tspan></text></g></g></g><g transform="translate(529.4849646488485, 457.39788690700266)" class="mindmap-node section-4"><g><path d="M0 32.8 v-27.799999999999997 q0,-5 5,-5 h170.484375 q5,0 5,5 v32.8 H0 Z" class="node-bkg node-no-border" id="node-31"/><line y2="37.8" x2="180.484375" y1="37.8" x1="0" class="node-line-4"/></g><g transform="translate(90.2421875, 5)" text-anchor="middle" dominant-baseline="middle" alignment-baseline="middle" dy="1em"><g><rect style="stroke: none" class="background"/><text style="" y="-10.1"><tspan dy="1.1em" y="-0.1em" x="0" class="text-outer-tspan"><tspan font-weight="normal" class="text-inner-tspan" font-style="normal">Professional</tspan><tspan font-weight="normal" class="text-inner-tspan" font-style="normal"> Use</tspan><tspan font-weight="normal" class="text-inner-tspan" font-style="normal"> Cases</tspan></tspan></text></g></g></g><g transform="translate(1139.4516192521805, 335.2834076722793)" class="mindmap-node section-5"><g><path d="M0 32.8 v-27.799999999999997 q0,-5 5,-5 h126.3125 q5,0 5,5 v32.8 H0 Z" class="node-bkg node-no-border" id="node-33"/><line y2="37.8" x2="136.3125" y1="37.8" x1="0" class="node-line-5"/></g><g transform="translate(68.15625, 5)" text-anchor="middle" dominant-baseline="middle" alignment-baseline="middle" dy="1em"><g><rect style="stroke: none" class="background"/><text style="" y="-10.1"><tspan dy="1.1em" y="-0.1em" x="0" class="text-outer-tspan"><tspan font-weight="normal" class="text-inner-tspan" font-style="normal">Similar</tspan><tspan font-weight="normal" class="text-inner-tspan" font-style="normal"> Features</tspan></tspan></text></g></g></g><g transform="translate(1047.2111703231028, 434.48210681371654)" class="mindmap-node section-5"><g><path d="M0 32.8 v-27.799999999999997 q0,-5 5,-5 h91.75 q5,0 5,5 v32.8 H0 Z" class="node-bkg node-no-border" id="node-37"/><line y2="37.8" x2="101.75" y1="37.8" x1="0" class="node-line-5"/></g><g transform="translate(50.875, 5)" text-anchor="middle" dominant-baseline="middle" alignment-baseline="middle" dy="1em"><g><rect style="stroke: none" class="background"/><text style="" y="-10.1"><tspan dy="1.1em" y="-0.1em" x="0" class="text-outer-tspan"><tspan font-weight="normal" class="text-inner-tspan" font-style="normal">Differences</tspan></tspan></text></g></g></g><g transform="translate(202.3050188358826, 174.87487363346725)" class="mindmap-node section-2"><g><rect width="174.953125" ry="20" rx="20" height="47.8" class="node-bkg node-rounded-rect" id="node-12"/></g><g transform="translate(87.4765625, 10)" text-anchor="middle" dominant-baseline="middle" alignment-baseline="middle" dy="1em"><g><rect style="stroke: none" class="background"/><text style="" y="-10.1"><tspan dy="1.1em" y="-0.1em" x="0" class="text-outer-tspan"><tspan font-weight="normal" class="text-inner-tspan" font-style="normal">iOS</tspan><tspan font-weight="normal" class="text-inner-tspan" font-style="normal"> &amp;amp;</tspan><tspan font-weight="normal" class="text-inner-tspan" font-style="normal"> Android</tspan></tspan></text></g></g></g><g transform="translate(162.21639464056375, 397.8899255757541)" class="mindmap-node section-2"><g><path d="M0 32.8 v-27.799999999999997 q0,-5 5,-5 h64.65625 q5,0 5,5 v32.8 H0 Z" class="node-bkg node-no-border" id="node-14"/><line y2="37.8" x2="74.65625" y1="37.8" x1="0" class="node-line-2"/></g><g transform="translate(37.328125, 5)" text-anchor="middle" dominant-baseline="middle" alignment-baseline="middle" dy="1em"><g><rect style="stroke: none" class="background"/><text style="" y="-10.1"><tspan dy="1.1em" y="-0.1em" x="0" class="text-outer-tspan"><tspan font-weight="normal" class="text-inner-tspan" font-style="normal">Node.js</tspan></tspan></text></g></g></g><g transform="translate(243.18084095445488, 469.6748942794982)" class="mindmap-node section-2"><g><path d="M0 32.8 v-27.799999999999997 q0,-5 5,-5 h63.40625 q5,0 5,5 v32.8 H0 Z" class="node-bkg node-no-border" id="node-15"/><line y2="37.8" x2="73.40625" y1="37.8" x1="0" class="node-line-2"/></g><g transform="translate(36.703125, 5)" text-anchor="middle" dominant-baseline="middle" alignment-baseline="middle" dy="1em"><g><rect style="stroke: none" class="background"/><text style="" y="-10.1"><tspan dy="1.1em" y="-0.1em" x="0" class="text-outer-tspan"><tspan font-weight="normal" class="text-inner-tspan" font-style="normal">Express</tspan></tspan></text></g></g></g><g transform="translate(356.8162658123018, 523.5180174437976)" class="mindmap-node section-2"><g><rect width="168.140625" ry="20" rx="20" height="47.8" class="node-bkg node-rounded-rect" id="node-17"/></g><g transform="translate(84.0703125, 10)" text-anchor="middle" dominant-baseline="middle" alignment-baseline="middle" dy="1em"><g><rect style="stroke: none" class="background"/><text style="" y="-10.1"><tspan dy="1.1em" y="-0.1em" x="0" class="text-outer-tspan"><tspan font-weight="normal" class="text-inner-tspan" font-style="normal">Real-time</tspan><tspan font-weight="normal" class="text-inner-tspan" font-style="normal"> Storage</tspan></tspan></text></g></g></g><g transform="translate(159.92333805464034, 251.64568708955548)" class="mindmap-node section-2"><g><path d="M0 32.8 v-27.799999999999997 q0,-5 5,-5 h37.4375 q5,0 5,5 v32.8 H0 Z" class="node-bkg node-no-border" id="node-19"/><line y2="37.8" x2="47.4375" y1="37.8" x1="0" class="node-line-2"/></g><g transform="translate(23.71875, 5)" text-anchor="middle" dominant-baseline="middle" alignment-baseline="middle" dy="1em"><g><rect style="stroke: none" class="background"/><text style="" y="-10.1"><tspan dy="1.1em" y="-0.1em" x="0" class="text-outer-tspan"><tspan font-weight="normal" class="text-inner-tspan" font-style="normal">GPS</tspan></tspan></text></g></g></g><g transform="translate(15, 323.4498499223886)" class="mindmap-node section-2"><g><path d="M0 32.8 v-27.799999999999997 q0,-5 5,-5 h126.1875 q5,0 5,5 v32.8 H0 Z" class="node-bkg node-no-border" id="node-20"/><line y2="37.8" x2="136.1875" y1="37.8" x1="0" class="node-line-2"/></g><g transform="translate(68.09375, 5)" text-anchor="middle" dominant-baseline="middle" alignment-baseline="middle" dy="1em"><g><rect style="stroke: none" class="background"/><text style="" y="-10.1"><tspan dy="1.1em" y="-0.1em" x="0" class="text-outer-tspan"><tspan font-weight="normal" class="text-inner-tspan" font-style="normal">Google</tspan><tspan font-weight="normal" class="text-inner-tspan" font-style="normal"> Maps</tspan><tspan font-weight="normal" class="text-inner-tspan" font-style="normal"> API</tspan></tspan></text></g></g></g><g transform="translate(558.9853444001003, 45.930291183679124)" class="mindmap-node section-3"><g><path d="M0 32.8 v-27.799999999999997 q0,-5 5,-5 h102.03125 q5,0 5,5 v32.8 H0 Z" class="node-bkg node-no-border" id="node-23"/><line y2="37.8" x2="112.03125" y1="37.8" x1="0" class="node-line-3"/></g><g transform="translate(56.015625, 5)" text-anchor="middle" dominant-baseline="middle" alignment-baseline="middle" dy="1em"><g><rect style="stroke: none" class="background"/><text style="" y="-10.1"><tspan dy="1.1em" y="-0.1em" x="0" class="text-outer-tspan"><tspan font-weight="normal" class="text-inner-tspan" font-style="normal">Shot</tspan><tspan font-weight="normal" class="text-inner-tspan" font-style="normal"> Analysis</tspan></tspan></text></g></g></g><g transform="translate(722.4347781410611, 15)" class="mindmap-node section-3"><g><path d="M0 32.8 v-27.799999999999997 q0,-5 5,-5 h172.75 q5,0 5,5 v32.8 H0 Z" class="node-bkg node-no-border" id="node-24"/><line y2="37.8" x2="182.75" y1="37.8" x1="0" class="node-line-3"/></g><g transform="translate(91.375, 5)" text-anchor="middle" dominant-baseline="middle" alignment-baseline="middle" dy="1em"><g><rect style="stroke: none" class="background"/><text style="" y="-10.1"><tspan dy="1.1em" y="-0.1em" x="0" class="text-outer-tspan"><tspan font-weight="normal" class="text-inner-tspan" font-style="normal">Personalized</tspan><tspan font-weight="normal" class="text-inner-tspan" font-style="normal"> Feedback</tspan></tspan></text></g></g></g><g transform="translate(967.394906421421, 31.754219976729132)" class="mindmap-node section-3"><g><path d="M0 32.8 v-27.799999999999997 q0,-5 5,-5 h110.84375 q5,0 5,5 v32.8 H0 Z" class="node-bkg node-no-border" id="node-26"/><line y2="37.8" x2="120.84375" y1="37.8" x1="0" class="node-line-3"/></g><g transform="translate(60.421875, 5)" text-anchor="middle" dominant-baseline="middle" alignment-baseline="middle" dy="1em"><g><rect style="stroke: none" class="background"/><text style="" y="-10.1"><tspan dy="1.1em" y="-0.1em" x="0" class="text-outer-tspan"><tspan font-weight="normal" class="text-inner-tspan" font-style="normal">Smart</tspan><tspan font-weight="normal" class="text-inner-tspan" font-style="normal"> Devices</tspan></tspan></text></g></g></g><g transform="translate(1118.1510127569788, 92.57562110258186)" class="mindmap-node section-3"><g><path d="M0 32.8 v-27.799999999999997 q0,-5 5,-5 h150.34375 q5,0 5,5 v32.8 H0 Z" class="node-bkg node-no-border" id="node-27"/><line y2="37.8" x2="160.34375" y1="37.8" x1="0" class="node-line-3"/></g><g transform="translate(80.171875, 5)" text-anchor="middle" dominant-baseline="middle" alignment-baseline="middle" dy="1em"><g><rect style="stroke: none" class="background"/><text style="" y="-10.1"><tspan dy="1.1em" y="-0.1em" x="0" class="text-outer-tspan"><tspan font-weight="normal" class="text-inner-tspan" font-style="normal">More</tspan><tspan font-weight="normal" class="text-inner-tspan" font-style="normal"> Accurate</tspan><tspan font-weight="normal" class="text-inner-tspan" font-style="normal"> Data</tspan></tspan></text></g></g></g><g transform="translate(1335.0566955488189, 296.4402509295669)" class="mindmap-node section-5"><g><path d="M0 32.8 v-27.799999999999997 q0,-5 5,-5 h105.390625 q5,0 5,5 v32.8 H0 Z" class="node-bkg node-no-border" id="node-34"/><line y2="37.8" x2="115.390625" y1="37.8" x1="0" class="node-line-5"/></g><g transform="translate(57.6953125, 5)" text-anchor="middle" dominant-baseline="middle" alignment-baseline="middle" dy="1em"><g><rect style="stroke: none" class="background"/><text style="" y="-10.1"><tspan dy="1.1em" y="-0.1em" x="0" class="text-outer-tspan"><tspan font-weight="normal" class="text-inner-tspan" font-style="normal">Shot</tspan><tspan font-weight="normal" class="text-inner-tspan" font-style="normal"> Tracking</tspan></tspan></text></g></g></g><g transform="translate(1343.3959380327103, 365.60489986274297)" class="mindmap-node section-5"><g><path d="M0 32.8 v-27.799999999999997 q0,-5 5,-5 h184.375 q5,0 5,5 v32.8 H0 Z" class="node-bkg node-no-border" id="node-35"/><line y2="37.8" x2="194.375" y1="37.8" x1="0" class="node-line-5"/></g><g transform="translate(97.1875, 5)" text-anchor="middle" dominant-baseline="middle" alignment-baseline="middle" dy="1em"><g><rect style="stroke: none" class="background"/><text style="" y="-10.1"><tspan dy="1.1em" y="-0.1em" x="0" class="text-outer-tspan"><tspan font-weight="normal" class="text-inner-tspan" font-style="normal">Performance</tspan><tspan font-weight="normal" class="text-inner-tspan" font-style="normal"> Breakdown</tspan></tspan></text></g></g></g><g transform="translate(1179.1209565764855, 229.07778392333805)" class="mindmap-node section-5"><g><path d="M0 50.39999847412109 v-45.39999847412109 q0,-5 5,-5 h150.5625 q5,0 5,5 v50.39999847412109 H0 Z" class="node-bkg node-no-border" id="node-36"/><line y2="55.39999847412109" x2="160.5625" y1="55.39999847412109" x1="0" class="node-line-5"/></g><g transform="translate(80.28125, 5)" text-anchor="middle" dominant-baseline="middle" alignment-baseline="middle" dy="1em"><g><rect style="stroke: none" class="background"/><text style="" y="-10.1"><tspan dy="1.1em" y="-0.1em" x="0" class="text-outer-tspan"><tspan font-weight="normal" class="text-inner-tspan" font-style="normal">GPS-based</tspan><tspan font-weight="normal" class="text-inner-tspan" font-style="normal"> Distance</tspan></tspan><tspan dy="1.1em" y="1em" x="0" class="text-outer-tspan"><tspan font-weight="normal" class="text-inner-tspan" font-style="normal">Tracking</tspan></tspan></text></g></g></g><g transform="translate(921.4473614466951, 518.2549945419875)" class="mindmap-node section-5"><g><path d="M0 50.39999847412109 v-45.39999847412109 q0,-5 5,-5 h177.59375 q5,0 5,5 v50.39999847412109 H0 Z" class="node-bkg node-no-border" id="node-38"/><line y2="55.39999847412109" x2="187.59375" y1="55.39999847412109" x1="0" class="node-line-5"/></g><g transform="translate(93.796875, 5)" text-anchor="middle" dominant-baseline="middle" alignment-baseline="middle" dy="1em"><g><rect style="stroke: none" class="background"/><text style="" y="-10.1"><tspan dy="1.1em" y="-0.1em" x="0" class="text-outer-tspan"><tspan font-weight="normal" class="text-inner-tspan" font-style="normal">Paid</tspan><tspan font-weight="normal" class="text-inner-tspan" font-style="normal"> Tiers</tspan><tspan font-weight="normal" class="text-inner-tspan" font-style="normal"> for</tspan><tspan font-weight="normal" class="text-inner-tspan" font-style="normal"> Advanced</tspan></tspan><tspan dy="1.1em" y="1em" x="0" class="text-outer-tspan"><tspan font-weight="normal" class="text-inner-tspan" font-style="normal">Analytics</tspan></tspan></text></g></g></g><g transform="translate(1198.19779750071, 413.44567333127065)" class="mindmap-node section-5"><g><path d="M0 50.39999847412109 v-45.39999847412109 q0,-5 5,-5 h160.46875 q5,0 5,5 v50.39999847412109 H0 Z" class="node-bkg node-no-border" id="node-39"/><line y2="55.39999847412109" x2="170.46875" y1="55.39999847412109" x1="0" class="node-line-5"/></g><g transform="translate(85.234375, 5)" text-anchor="middle" dominant-baseline="middle" alignment-baseline="middle" dy="1em"><g><rect style="stroke: none" class="background"/><text style="" y="-10.1"><tspan dy="1.1em" y="-0.1em" x="0" class="text-outer-tspan"><tspan font-weight="normal" class="text-inner-tspan" font-style="normal">Integration</tspan><tspan font-weight="normal" class="text-inner-tspan" font-style="normal"> with</tspan><tspan font-weight="normal" class="text-inner-tspan" font-style="normal"> Golf</tspan></tspan><tspan dy="1.1em" y="1em" x="0" class="text-outer-tspan"><tspan font-weight="normal" class="text-inner-tspan" font-style="normal">Courses</tspan></tspan></text></g></g></g><g transform="translate(1136.6241014218813, 501.7530168742296)" class="mindmap-node section-5"><g><path d="M0 50.39999847412109 v-45.39999847412109 q0,-5 5,-5 h201.953125 q5,0 5,5 v50.39999847412109 H0 Z" class="node-bkg node-no-border" id="node-40"/><line y2="55.39999847412109" x2="211.953125" y1="55.39999847412109" x1="0" class="node-line-5"/></g><g transform="translate(105.9765625, 5)" text-anchor="middle" dominant-baseline="middle" alignment-baseline="middle" dy="1em"><g><rect style="stroke: none" class="background"/><text style="" y="-10.1"><tspan dy="1.1em" y="-0.1em" x="0" class="text-outer-tspan"><tspan font-weight="normal" class="text-inner-tspan" font-style="normal">Coach-Linked</tspan><tspan font-weight="normal" class="text-inner-tspan" font-style="normal"> Performance</tspan></tspan><tspan dy="1.1em" y="1em" x="0" class="text-outer-tspan"><tspan font-weight="normal" class="text-inner-tspan" font-style="normal">Analysis</tspan></tspan></text></g></g></g></g></svg>