<svg aria-roledescription="er" role="graphics-document document" viewBox="0 0 985.57421875 899.28515625" style="max-width: 985.574px; background-color: white;" xmlns:xlink="http://www.w3.org/1999/xlink" xmlns="http://www.w3.org/2000/svg" width="100%" id="my-svg"><style>#my-svg{font-family:"trebuchet ms",verdana,arial,sans-serif;font-size:16px;fill:#333;}#my-svg .error-icon{fill:#552222;}#my-svg .error-text{fill:#552222;stroke:#552222;}#my-svg .edge-thickness-normal{stroke-width:1px;}#my-svg .edge-thickness-thick{stroke-width:3.5px;}#my-svg .edge-pattern-solid{stroke-dasharray:0;}#my-svg .edge-thickness-invisible{stroke-width:0;fill:none;}#my-svg .edge-pattern-dashed{stroke-dasharray:3;}#my-svg .edge-pattern-dotted{stroke-dasharray:2;}#my-svg .marker{fill:#333333;stroke:#333333;}#my-svg .marker.cross{stroke:#333333;}#my-svg svg{font-family:"trebuchet ms",verdana,arial,sans-serif;font-size:16px;}#my-svg p{margin:0;}#my-svg .entityBox{fill:#ECECFF;stroke:#9370DB;}#my-svg .attributeBoxOdd{fill:#ffffff;stroke:#9370DB;}#my-svg .attributeBoxEven{fill:#f2f2f2;stroke:#9370DB;}#my-svg .relationshipLabelBox{fill:hsl(80, 100%, 96.2745098039%);opacity:0.7;background-color:hsl(80, 100%, 96.2745098039%);}#my-svg .relationshipLabelBox rect{opacity:0.5;}#my-svg .relationshipLine{stroke:#333333;}#my-svg .entityTitleText{text-anchor:middle;font-size:18px;fill:#333;}#my-svg #MD_PARENT_START{fill:#f5f5f5!important;stroke:#333333!important;stroke-width:1;}#my-svg #MD_PARENT_END{fill:#f5f5f5!important;stroke:#333333!important;stroke-width:1;}#my-svg :root{--mermaid-font-family:"trebuchet ms",verdana,arial,sans-serif;}</style><g/><defs><marker orient="auto" markerHeight="240" markerWidth="190" refY="7" refX="0" id="MD_PARENT_START"><path d="M 18,7 L9,13 L1,7 L9,1 Z"/></marker></defs><defs><marker orient="auto" markerHeight="28" markerWidth="20" refY="7" refX="19" id="MD_PARENT_END"><path d="M 18,7 L9,13 L1,7 L9,1 Z"/></marker></defs><defs><marker orient="auto" markerHeight="18" markerWidth="18" refY="9" refX="0" id="ONLY_ONE_START"><path d="M9,0 L9,18 M15,0 L15,18" fill="none" stroke="gray"/></marker></defs><defs><marker orient="auto" markerHeight="18" markerWidth="18" refY="9" refX="18" id="ONLY_ONE_END"><path d="M3,0 L3,18 M9,0 L9,18" fill="none" stroke="gray"/></marker></defs><defs><marker orient="auto" markerHeight="18" markerWidth="30" refY="9" refX="0" id="ZERO_OR_ONE_START"><circle r="6" cy="9" cx="21" fill="white" stroke="gray"/><path d="M9,0 L9,18" fill="none" stroke="gray"/></marker></defs><defs><marker orient="auto" markerHeight="18" markerWidth="30" refY="9" refX="30" id="ZERO_OR_ONE_END"><circle r="6" cy="9" cx="9" fill="white" stroke="gray"/><path d="M21,0 L21,18" fill="none" stroke="gray"/></marker></defs><defs><marker orient="auto" markerHeight="36" markerWidth="45" refY="18" refX="18" id="ONE_OR_MORE_START"><path d="M0,18 Q 18,0 36,18 Q 18,36 0,18 M42,9 L42,27" fill="none" stroke="gray"/></marker></defs><defs><marker orient="auto" markerHeight="36" markerWidth="45" refY="18" refX="27" id="ONE_OR_MORE_END"><path d="M3,9 L3,27 M9,18 Q27,0 45,18 Q27,36 9,18" fill="none" stroke="gray"/></marker></defs><defs><marker orient="auto" markerHeight="36" markerWidth="57" refY="18" refX="18" id="ZERO_OR_MORE_START"><circle r="6" cy="18" cx="48" fill="white" stroke="gray"/><path d="M0,18 Q18,0 36,18 Q18,36 0,18" fill="none" stroke="gray"/></marker></defs><defs><marker orient="auto" markerHeight="36" markerWidth="57" refY="18" refX="39" id="ZERO_OR_MORE_END"><circle r="6" cy="18" cx="9" fill="white" stroke="gray"/><path d="M21,18 Q39,0 57,18 Q39,36 21,18" fill="none" stroke="gray"/></marker></defs><path style="stroke: gray; fill: none;" marker-start="url(#ONLY_ONE_START)" marker-end="url(#ONLY_ONE_END)" d="M194.898,645.01L194.898,657.01C194.898,669.01,194.898,693.01,210.749,713.343C226.6,733.676,258.302,750.343,274.153,758.676L290.004,767.01" class="er relationshipLine"/><path style="stroke: gray; fill: none;" marker-start="url(#ONLY_ONE_START)" marker-end="url(#ONLY_ONE_END)" d="M399.16,143.315L399.16,157.142C399.16,170.969,399.16,198.622,402.41,220.782C405.659,242.942,412.158,259.609,415.407,267.942L418.656,276.275" class="er relationshipLine"/><path style="stroke: gray; fill: none;" marker-start="url(#ONLY_ONE_START)" marker-end="url(#ONLY_ONE_END)" d="M707.012,176.275L697.289,184.609C687.565,192.942,668.119,209.609,645.052,226.518C621.986,243.427,595.299,260.579,581.956,269.155L568.613,277.73" class="er relationshipLine"/><path style="stroke: gray; fill: none;" marker-start="url(#ONLY_ONE_START)" marker-end="url(#ZERO_OR_MORE_END)" d="M449.16,432.734L449.16,441.068C449.16,449.401,449.16,466.068,459.797,482.734C470.433,499.401,491.706,516.068,502.342,524.401L512.979,532.734" class="er relationshipLine"/><path style="stroke: gray; fill: none;" marker-start="url(#ONLY_ONE_START)" marker-end="url(#ZERO_OR_MORE_END)" d="M828.673,176.275L831.925,184.609C835.177,192.942,841.68,209.609,844.932,239.314C848.184,269.019,848.184,311.762,848.184,354.505C848.184,397.248,848.184,439.991,828.077,470.802C807.971,501.613,767.759,520.491,747.653,529.93L727.547,539.369" class="er relationshipLine"/><path style="stroke: gray; fill: none;" marker-start="url(#ZERO_OR_MORE_START)" marker-end="url(#ONLY_ONE_END)" d="M598.672,667.01L598.672,675.343C598.672,683.676,598.672,700.343,582.821,717.01C566.97,733.676,535.268,750.343,519.417,758.676L503.566,767.01" class="er relationshipLine"/><g transform="translate(268.91015625,767.009765625 )" id="entity-PROVINCE-c75511a2-6bab-5647-a4f7-567153e76c3a"><rect height="112.27539348602295" width="255.75" y="0" x="0" class="er entityBox"/><text style="dominant-baseline: middle; text-anchor: middle; font-size: 12px;" transform="translate(127.875,12)" y="0" x="0" id="text-entity-PROVINCE-c75511a2-6bab-5647-a4f7-567153e76c3a" class="er entityLabel">PROVINCE</text><rect height="22.091797828674316" width="35.75" y="24" x="0" class="er attributeBoxOdd"/><text style="dominant-baseline: middle; font-size: 10.2px;" transform="translate(5,35.04589891433716)" y="0" x="0" id="text-entity-PROVINCE-c75511a2-6bab-5647-a4f7-567153e76c3a-attr-1-type" class="er entityLabel">string</text><rect height="22.091797828674316" width="63.15625" y="24" x="35.75" class="er attributeBoxOdd"/><text style="dominant-baseline: middle; font-size: 10.2px;" transform="translate(40.75,35.04589891433716)" y="0" x="0" id="text-entity-PROVINCE-c75511a2-6bab-5647-a4f7-567153e76c3a-attr-1-name" class="er entityLabel">province_id</text><rect height="22.091797828674316" width="21.5625" y="24" x="98.90625" class="er attributeBoxOdd"/><text style="dominant-baseline: middle; font-size: 10.2px;" transform="translate(103.90625,35.04589891433716)" y="0" x="0" id="text-entity-PROVINCE-c75511a2-6bab-5647-a4f7-567153e76c3a-attr-1-key" class="er entityLabel">PK</text><rect height="22.091797828674316" width="135.28125" y="24" x="120.46875" class="er attributeBoxOdd"/><text style="dominant-baseline: middle; font-size: 10.2px;" transform="translate(125.46875,35.04589891433716)" y="0" x="0" id="text-entity-PROVINCE-c75511a2-6bab-5647-a4f7-567153e76c3a-attr-1-comment" class="er entityLabel">Mã định danh cho tỉnh</text><rect height="22.091797828674316" width="35.75" y="46.091797828674316" x="0" class="er attributeBoxEven"/><text style="dominant-baseline: middle; font-size: 10.2px;" transform="translate(5,57.137696743011475)" y="0" x="0" id="text-entity-PROVINCE-c75511a2-6bab-5647-a4f7-567153e76c3a-attr-2-type" class="er entityLabel">string</text><rect height="22.091797828674316" width="63.15625" y="46.091797828674316" x="35.75" class="er attributeBoxEven"/><text style="dominant-baseline: middle; font-size: 10.2px;" transform="translate(40.75,57.137696743011475)" y="0" x="0" id="text-entity-PROVINCE-c75511a2-6bab-5647-a4f7-567153e76c3a-attr-2-name" class="er entityLabel">name</text><rect height="22.091797828674316" width="21.5625" y="46.091797828674316" x="98.90625" class="er attributeBoxEven"/><text style="dominant-baseline: middle; font-size: 10.2px;" transform="translate(103.90625,57.137696743011475)" y="0" x="0" id="text-entity-PROVINCE-c75511a2-6bab-5647-a4f7-567153e76c3a-attr-2-key" class="er entityLabel"/><rect height="22.091797828674316" width="135.28125" y="46.091797828674316" x="120.46875" class="er attributeBoxEven"/><text style="dominant-baseline: middle; font-size: 10.2px;" transform="translate(125.46875,57.137696743011475)" y="0" x="0" id="text-entity-PROVINCE-c75511a2-6bab-5647-a4f7-567153e76c3a-attr-2-comment" class="er entityLabel">Tên tỉnh</text><rect height="22.091797828674316" width="35.75" y="68.18359565734863" x="0" class="er attributeBoxOdd"/><text style="dominant-baseline: middle; font-size: 10.2px;" transform="translate(5,79.22949457168579)" y="0" x="0" id="text-entity-PROVINCE-c75511a2-6bab-5647-a4f7-567153e76c3a-attr-3-type" class="er entityLabel">string</text><rect height="22.091797828674316" width="63.15625" y="68.18359565734863" x="35.75" class="er attributeBoxOdd"/><text style="dominant-baseline: middle; font-size: 10.2px;" transform="translate(40.75,79.22949457168579)" y="0" x="0" id="text-entity-PROVINCE-c75511a2-6bab-5647-a4f7-567153e76c3a-attr-3-name" class="er entityLabel">polygon_id</text><rect height="22.091797828674316" width="21.5625" y="68.18359565734863" x="98.90625" class="er attributeBoxOdd"/><text style="dominant-baseline: middle; font-size: 10.2px;" transform="translate(103.90625,79.22949457168579)" y="0" x="0" id="text-entity-PROVINCE-c75511a2-6bab-5647-a4f7-567153e76c3a-attr-3-key" class="er entityLabel">FK</text><rect height="22.091797828674316" width="135.28125" y="68.18359565734863" x="120.46875" class="er attributeBoxOdd"/><text style="dominant-baseline: middle; font-size: 10.2px;" transform="translate(125.46875,79.22949457168579)" y="0" x="0" id="text-entity-PROVINCE-c75511a2-6bab-5647-a4f7-567153e76c3a-attr-3-comment" class="er entityLabel">Mã polygon liên kết</text><rect height="22" width="35.75" y="90.27539348602295" x="0" class="er attributeBoxEven"/><text style="dominant-baseline: middle; font-size: 10.2px;" transform="translate(5,101.27539348602295)" y="0" x="0" id="text-entity-PROVINCE-c75511a2-6bab-5647-a4f7-567153e76c3a-attr-4-type" class="er entityLabel">xxx</text><rect height="22" width="63.15625" y="90.27539348602295" x="35.75" class="er attributeBoxEven"/><text style="dominant-baseline: middle; font-size: 10.2px;" transform="translate(40.75,101.27539348602295)" y="0" x="0" id="text-entity-PROVINCE-c75511a2-6bab-5647-a4f7-567153e76c3a-attr-4-name" class="er entityLabel">xxx</text><rect height="22" width="21.5625" y="90.27539348602295" x="98.90625" class="er attributeBoxEven"/><text style="dominant-baseline: middle; font-size: 10.2px;" transform="translate(103.90625,101.27539348602295)" y="0" x="0" id="text-entity-PROVINCE-c75511a2-6bab-5647-a4f7-567153e76c3a-attr-4-key" class="er entityLabel"/><rect height="22" width="135.28125" y="90.27539348602295" x="120.46875" class="er attributeBoxEven"/><text style="dominant-baseline: middle; font-size: 10.2px;" transform="translate(125.46875,101.27539348602295)" y="0" x="0" id="text-entity-PROVINCE-c75511a2-6bab-5647-a4f7-567153e76c3a-attr-4-comment" class="er entityLabel">Các thuộc tính khác nếu có</text></g><g transform="translate(20,554.734375 )" id="entity-POLYGON-77e8f39e-7ba5-523d-9aea-41c51f8c1f7d"><rect height="90.27539253234863" width="349.796875" y="0" x="0" class="er entityBox"/><text style="dominant-baseline: middle; text-anchor: middle; font-size: 12px;" transform="translate(174.8984375,12)" y="0" x="0" id="text-entity-POLYGON-77e8f39e-7ba5-523d-9aea-41c51f8c1f7d" class="er entityLabel">POLYGON</text><rect height="22.091797828674316" width="53.234375" y="24" x="0" class="er attributeBoxOdd"/><text style="dominant-baseline: middle; font-size: 10.2px;" transform="translate(5,35.04589891433716)" y="0" x="0" id="text-entity-POLYGON-77e8f39e-7ba5-523d-9aea-41c51f8c1f7d-attr-1-type" class="er entityLabel">string</text><rect height="22.091797828674316" width="59.3125" y="24" x="53.234375" class="er attributeBoxOdd"/><text style="dominant-baseline: middle; font-size: 10.2px;" transform="translate(58.234375,35.04589891433716)" y="0" x="0" id="text-entity-POLYGON-77e8f39e-7ba5-523d-9aea-41c51f8c1f7d-attr-1-name" class="er entityLabel">polygon_id</text><rect height="22.091797828674316" width="21.5625" y="24" x="112.546875" class="er attributeBoxOdd"/><text style="dominant-baseline: middle; font-size: 10.2px;" transform="translate(117.546875,35.04589891433716)" y="0" x="0" id="text-entity-POLYGON-77e8f39e-7ba5-523d-9aea-41c51f8c1f7d-attr-1-key" class="er entityLabel">PK</text><rect height="22.091797828674316" width="215.6875" y="24" x="134.109375" class="er attributeBoxOdd"/><text style="dominant-baseline: middle; font-size: 10.2px;" transform="translate(139.109375,35.04589891433716)" y="0" x="0" id="text-entity-POLYGON-77e8f39e-7ba5-523d-9aea-41c51f8c1f7d-attr-1-comment" class="er entityLabel">Mã định danh cho polygon</text><rect height="22.091796875" width="53.234375" y="46.091797828674316" x="0" class="er attributeBoxEven"/><text style="dominant-baseline: middle; font-size: 10.2px;" transform="translate(5,57.137696266174316)" y="0" x="0" id="text-entity-POLYGON-77e8f39e-7ba5-523d-9aea-41c51f8c1f7d-attr-2-type" class="er entityLabel">geometry</text><rect height="22.091796875" width="59.3125" y="46.091797828674316" x="53.234375" class="er attributeBoxEven"/><text style="dominant-baseline: middle; font-size: 10.2px;" transform="translate(58.234375,57.137696266174316)" y="0" x="0" id="text-entity-POLYGON-77e8f39e-7ba5-523d-9aea-41c51f8c1f7d-attr-2-name" class="er entityLabel">shape</text><rect height="22.091796875" width="21.5625" y="46.091797828674316" x="112.546875" class="er attributeBoxEven"/><text style="dominant-baseline: middle; font-size: 10.2px;" transform="translate(117.546875,57.137696266174316)" y="0" x="0" id="text-entity-POLYGON-77e8f39e-7ba5-523d-9aea-41c51f8c1f7d-attr-2-key" class="er entityLabel"/><rect height="22.091796875" width="215.6875" y="46.091797828674316" x="134.109375" class="er attributeBoxEven"/><text style="dominant-baseline: middle; font-size: 10.2px;" transform="translate(139.109375,57.137696266174316)" y="0" x="0" id="text-entity-POLYGON-77e8f39e-7ba5-523d-9aea-41c51f8c1f7d-attr-2-comment" class="er entityLabel">Hình dạng polygon dưới định dạng Geometry</text><rect height="22.091797828674316" width="53.234375" y="68.18359470367432" x="0" class="er attributeBoxOdd"/><text style="dominant-baseline: middle; font-size: 10.2px;" transform="translate(5,79.22949361801147)" y="0" x="0" id="text-entity-POLYGON-77e8f39e-7ba5-523d-9aea-41c51f8c1f7d-attr-3-type" class="er entityLabel">string</text><rect height="22.091797828674316" width="59.3125" y="68.18359470367432" x="53.234375" class="er attributeBoxOdd"/><text style="dominant-baseline: middle; font-size: 10.2px;" transform="translate(58.234375,79.22949361801147)" y="0" x="0" id="text-entity-POLYGON-77e8f39e-7ba5-523d-9aea-41c51f8c1f7d-attr-3-name" class="er entityLabel">name</text><rect height="22.091797828674316" width="21.5625" y="68.18359470367432" x="112.546875" class="er attributeBoxOdd"/><text style="dominant-baseline: middle; font-size: 10.2px;" transform="translate(117.546875,79.22949361801147)" y="0" x="0" id="text-entity-POLYGON-77e8f39e-7ba5-523d-9aea-41c51f8c1f7d-attr-3-key" class="er entityLabel"/><rect height="22.091797828674316" width="215.6875" y="68.18359470367432" x="134.109375" class="er attributeBoxOdd"/><text style="dominant-baseline: middle; font-size: 10.2px;" transform="translate(139.109375,79.22949361801147)" y="0" x="0" id="text-entity-POLYGON-77e8f39e-7ba5-523d-9aea-41c51f8c1f7d-attr-3-comment" class="er entityLabel">Tên polygon</text></g><g transform="translate(267.52734375,52.96015548706055 )" id="entity-POINT-4596e71d-4363-5af6-9ffc-3b61697370c2"><rect height="90.35508060455322" width="263.265625" y="0" x="0" class="er entityBox"/><text style="dominant-baseline: middle; text-anchor: middle; font-size: 12px;" transform="translate(131.6328125,12)" y="0" x="0" id="text-entity-POINT-4596e71d-4363-5af6-9ffc-3b61697370c2" class="er entityLabel">POINT</text><rect height="22.091796875" width="31.65625" y="24" x="0" class="er attributeBoxOdd"/><text style="dominant-baseline: middle; font-size: 10.2px;" transform="translate(5,35.0458984375)" y="0" x="0" id="text-entity-POINT-4596e71d-4363-5af6-9ffc-3b61697370c2-attr-1-type" class="er entityLabel">int</text><rect height="22.091796875" width="69.5625" y="24" x="31.65625" class="er attributeBoxOdd"/><text style="dominant-baseline: middle; font-size: 10.2px;" transform="translate(36.65625,35.0458984375)" y="0" x="0" id="text-entity-POINT-4596e71d-4363-5af6-9ffc-3b61697370c2-attr-1-name" class="er entityLabel">id</text><rect height="22.091796875" width="21.5625" y="24" x="101.21875" class="er attributeBoxOdd"/><text style="dominant-baseline: middle; font-size: 10.2px;" transform="translate(106.21875,35.0458984375)" y="0" x="0" id="text-entity-POINT-4596e71d-4363-5af6-9ffc-3b61697370c2-attr-1-key" class="er entityLabel">PK</text><rect height="22.091796875" width="140.484375" y="24" x="122.78125" class="er attributeBoxOdd"/><text style="dominant-baseline: middle; font-size: 10.2px;" transform="translate(127.78125,35.0458984375)" y="0" x="0" id="text-entity-POINT-4596e71d-4363-5af6-9ffc-3b61697370c2-attr-1-comment" class="er entityLabel">Mã định danh cho từng điểm</text><rect height="22.131641387939453" width="31.65625" y="46.091796875" x="0" class="er attributeBoxEven"/><text style="dominant-baseline: middle; font-size: 10.2px;" transform="translate(5,57.15761756896973)" y="0" x="0" id="text-entity-POINT-4596e71d-4363-5af6-9ffc-3b61697370c2-attr-2-type" class="er entityLabel">float</text><rect height="22.131641387939453" width="69.5625" y="46.091796875" x="31.65625" class="er attributeBoxEven"/><text style="dominant-baseline: middle; font-size: 10.2px;" transform="translate(36.65625,57.15761756896973)" y="0" x="0" id="text-entity-POINT-4596e71d-4363-5af6-9ffc-3b61697370c2-attr-2-name" class="er entityLabel">coordinate_x</text><rect height="22.131641387939453" width="21.5625" y="46.091796875" x="101.21875" class="er attributeBoxEven"/><text style="dominant-baseline: middle; font-size: 10.2px;" transform="translate(106.21875,57.15761756896973)" y="0" x="0" id="text-entity-POINT-4596e71d-4363-5af6-9ffc-3b61697370c2-attr-2-key" class="er entityLabel"/><rect height="22.131641387939453" width="140.484375" y="46.091796875" x="122.78125" class="er attributeBoxEven"/><text style="dominant-baseline: middle; font-size: 10.2px;" transform="translate(127.78125,57.15761756896973)" y="0" x="0" id="text-entity-POINT-4596e71d-4363-5af6-9ffc-3b61697370c2-attr-2-comment" class="er entityLabel">Tọa độ X (kinh độ)</text><rect height="22.13164234161377" width="31.65625" y="68.22343826293945" x="0" class="er attributeBoxOdd"/><text style="dominant-baseline: middle; font-size: 10.2px;" transform="translate(5,79.28925943374634)" y="0" x="0" id="text-entity-POINT-4596e71d-4363-5af6-9ffc-3b61697370c2-attr-3-type" class="er entityLabel">float</text><rect height="22.13164234161377" width="69.5625" y="68.22343826293945" x="31.65625" class="er attributeBoxOdd"/><text style="dominant-baseline: middle; font-size: 10.2px;" transform="translate(36.65625,79.28925943374634)" y="0" x="0" id="text-entity-POINT-4596e71d-4363-5af6-9ffc-3b61697370c2-attr-3-name" class="er entityLabel">coordinate_y</text><rect height="22.13164234161377" width="21.5625" y="68.22343826293945" x="101.21875" class="er attributeBoxOdd"/><text style="dominant-baseline: middle; font-size: 10.2px;" transform="translate(106.21875,79.28925943374634)" y="0" x="0" id="text-entity-POINT-4596e71d-4363-5af6-9ffc-3b61697370c2-attr-3-key" class="er entityLabel"/><rect height="22.13164234161377" width="140.484375" y="68.22343826293945" x="122.78125" class="er attributeBoxOdd"/><text style="dominant-baseline: middle; font-size: 10.2px;" transform="translate(127.78125,79.28925943374634)" y="0" x="0" id="text-entity-POINT-4596e71d-4363-5af6-9ffc-3b61697370c2-attr-3-comment" class="er entityLabel">Tọa độ Y (vĩ độ)</text></g><g transform="translate(469.796875,532.734375 )" id="entity-TREATMENTAREA-e952da69-bfdb-5d34-a25e-1e8aa41a1683"><rect height="134.27539348602295" width="257.75" y="0" x="0" class="er entityBox"/><text style="dominant-baseline: middle; text-anchor: middle; font-size: 12px;" transform="translate(128.875,12)" y="0" x="0" id="text-entity-TREATMENTAREA-e952da69-bfdb-5d34-a25e-1e8aa41a1683" class="er entityLabel">TREATMENT_AREA</text><rect height="22.091797828674316" width="35.75" y="24" x="0" class="er attributeBoxOdd"/><text style="dominant-baseline: middle; font-size: 10.2px;" transform="translate(5,35.04589891433716)" y="0" x="0" id="text-entity-TREATMENTAREA-e952da69-bfdb-5d34-a25e-1e8aa41a1683-attr-1-type" class="er entityLabel">string</text><rect height="22.091797828674316" width="63.15625" y="24" x="35.75" class="er attributeBoxOdd"/><text style="dominant-baseline: middle; font-size: 10.2px;" transform="translate(40.75,35.04589891433716)" y="0" x="0" id="text-entity-TREATMENTAREA-e952da69-bfdb-5d34-a25e-1e8aa41a1683-attr-1-name" class="er entityLabel">id</text><rect height="22.091797828674316" width="21.5625" y="24" x="98.90625" class="er attributeBoxOdd"/><text style="dominant-baseline: middle; font-size: 10.2px;" transform="translate(103.90625,35.04589891433716)" y="0" x="0" id="text-entity-TREATMENTAREA-e952da69-bfdb-5d34-a25e-1e8aa41a1683-attr-1-key" class="er entityLabel">PK</text><rect height="22.091797828674316" width="137.28125" y="24" x="120.46875" class="er attributeBoxOdd"/><text style="dominant-baseline: middle; font-size: 10.2px;" transform="translate(125.46875,35.04589891433716)" y="0" x="0" id="text-entity-TREATMENTAREA-e952da69-bfdb-5d34-a25e-1e8aa41a1683-attr-1-comment" class="er entityLabel">Mã khu vực điều trị</text><rect height="22.091797828674316" width="35.75" y="46.091797828674316" x="0" class="er attributeBoxEven"/><text style="dominant-baseline: middle; font-size: 10.2px;" transform="translate(5,57.137696743011475)" y="0" x="0" id="text-entity-TREATMENTAREA-e952da69-bfdb-5d34-a25e-1e8aa41a1683-attr-2-type" class="er entityLabel">string</text><rect height="22.091797828674316" width="63.15625" y="46.091797828674316" x="35.75" class="er attributeBoxEven"/><text style="dominant-baseline: middle; font-size: 10.2px;" transform="translate(40.75,57.137696743011475)" y="0" x="0" id="text-entity-TREATMENTAREA-e952da69-bfdb-5d34-a25e-1e8aa41a1683-attr-2-name" class="er entityLabel">name</text><rect height="22.091797828674316" width="21.5625" y="46.091797828674316" x="98.90625" class="er attributeBoxEven"/><text style="dominant-baseline: middle; font-size: 10.2px;" transform="translate(103.90625,57.137696743011475)" y="0" x="0" id="text-entity-TREATMENTAREA-e952da69-bfdb-5d34-a25e-1e8aa41a1683-attr-2-key" class="er entityLabel"/><rect height="22.091797828674316" width="137.28125" y="46.091797828674316" x="120.46875" class="er attributeBoxEven"/><text style="dominant-baseline: middle; font-size: 10.2px;" transform="translate(125.46875,57.137696743011475)" y="0" x="0" id="text-entity-TREATMENTAREA-e952da69-bfdb-5d34-a25e-1e8aa41a1683-attr-2-comment" class="er entityLabel">Tên khu vực điều trị</text><rect height="22" width="35.75" y="68.18359565734863" x="0" class="er attributeBoxOdd"/><text style="dominant-baseline: middle; font-size: 10.2px;" transform="translate(5,79.18359565734863)" y="0" x="0" id="text-entity-TREATMENTAREA-e952da69-bfdb-5d34-a25e-1e8aa41a1683-attr-3-type" class="er entityLabel">int</text><rect height="22" width="63.15625" y="68.18359565734863" x="35.75" class="er attributeBoxOdd"/><text style="dominant-baseline: middle; font-size: 10.2px;" transform="translate(40.75,79.18359565734863)" y="0" x="0" id="text-entity-TREATMENTAREA-e952da69-bfdb-5d34-a25e-1e8aa41a1683-attr-3-name" class="er entityLabel">address_id</text><rect height="22" width="21.5625" y="68.18359565734863" x="98.90625" class="er attributeBoxOdd"/><text style="dominant-baseline: middle; font-size: 10.2px;" transform="translate(103.90625,79.18359565734863)" y="0" x="0" id="text-entity-TREATMENTAREA-e952da69-bfdb-5d34-a25e-1e8aa41a1683-attr-3-key" class="er entityLabel">FK</text><rect height="22" width="137.28125" y="68.18359565734863" x="120.46875" class="er attributeBoxOdd"/><text style="dominant-baseline: middle; font-size: 10.2px;" transform="translate(125.46875,79.18359565734863)" y="0" x="0" id="text-entity-TREATMENTAREA-e952da69-bfdb-5d34-a25e-1e8aa41a1683-attr-3-comment" class="er entityLabel">Mã địa chỉ liên kết</text><rect height="22.091797828674316" width="35.75" y="90.18359565734863" x="0" class="er attributeBoxEven"/><text style="dominant-baseline: middle; font-size: 10.2px;" transform="translate(5,101.22949457168579)" y="0" x="0" id="text-entity-TREATMENTAREA-e952da69-bfdb-5d34-a25e-1e8aa41a1683-attr-4-type" class="er entityLabel">int</text><rect height="22.091797828674316" width="63.15625" y="90.18359565734863" x="35.75" class="er attributeBoxEven"/><text style="dominant-baseline: middle; font-size: 10.2px;" transform="translate(40.75,101.22949457168579)" y="0" x="0" id="text-entity-TREATMENTAREA-e952da69-bfdb-5d34-a25e-1e8aa41a1683-attr-4-name" class="er entityLabel">province_id</text><rect height="22.091797828674316" width="21.5625" y="90.18359565734863" x="98.90625" class="er attributeBoxEven"/><text style="dominant-baseline: middle; font-size: 10.2px;" transform="translate(103.90625,101.22949457168579)" y="0" x="0" id="text-entity-TREATMENTAREA-e952da69-bfdb-5d34-a25e-1e8aa41a1683-attr-4-key" class="er entityLabel">FK</text><rect height="22.091797828674316" width="137.28125" y="90.18359565734863" x="120.46875" class="er attributeBoxEven"/><text style="dominant-baseline: middle; font-size: 10.2px;" transform="translate(125.46875,101.22949457168579)" y="0" x="0" id="text-entity-TREATMENTAREA-e952da69-bfdb-5d34-a25e-1e8aa41a1683-attr-4-comment" class="er entityLabel">Mã Tỉnh, thành phố liên kết</text><rect height="22" width="35.75" y="112.27539348602295" x="0" class="er attributeBoxOdd"/><text style="dominant-baseline: middle; font-size: 10.2px;" transform="translate(5,123.27539348602295)" y="0" x="0" id="text-entity-TREATMENTAREA-e952da69-bfdb-5d34-a25e-1e8aa41a1683-attr-5-type" class="er entityLabel">xxx</text><rect height="22" width="63.15625" y="112.27539348602295" x="35.75" class="er attributeBoxOdd"/><text style="dominant-baseline: middle; font-size: 10.2px;" transform="translate(40.75,123.27539348602295)" y="0" x="0" id="text-entity-TREATMENTAREA-e952da69-bfdb-5d34-a25e-1e8aa41a1683-attr-5-name" class="er entityLabel">xxx</text><rect height="22" width="21.5625" y="112.27539348602295" x="98.90625" class="er attributeBoxOdd"/><text style="dominant-baseline: middle; font-size: 10.2px;" transform="translate(103.90625,123.27539348602295)" y="0" x="0" id="text-entity-TREATMENTAREA-e952da69-bfdb-5d34-a25e-1e8aa41a1683-attr-5-key" class="er entityLabel"/><rect height="22" width="137.28125" y="112.27539348602295" x="120.46875" class="er attributeBoxOdd"/><text style="dominant-baseline: middle; font-size: 10.2px;" transform="translate(125.46875,123.27539348602295)" y="0" x="0" id="text-entity-TREATMENTAREA-e952da69-bfdb-5d34-a25e-1e8aa41a1683-attr-5-comment" class="er entityLabel">Các thuộc tính khác nếu có</text></g><g transform="translate(329.70703125,276.275390625 )" id="entity-ADDRESS-153346fa-a574-56cf-a80f-86d44868c0af"><rect height="156.45898914337158" width="238.90625" y="0" x="0" class="er entityBox"/><text style="dominant-baseline: middle; text-anchor: middle; font-size: 12px;" transform="translate(119.453125,12)" y="0" x="0" id="text-entity-ADDRESS-153346fa-a574-56cf-a80f-86d44868c0af" class="er entityLabel">ADDRESS</text><rect height="22" width="35.75" y="24" x="0" class="er attributeBoxOdd"/><text style="dominant-baseline: middle; font-size: 10.2px;" transform="translate(5,35)" y="0" x="0" id="text-entity-ADDRESS-153346fa-a574-56cf-a80f-86d44868c0af-attr-1-type" class="er entityLabel">int</text><rect height="22" width="58.453125" y="24" x="35.75" class="er attributeBoxOdd"/><text style="dominant-baseline: middle; font-size: 10.2px;" transform="translate(40.75,35)" y="0" x="0" id="text-entity-ADDRESS-153346fa-a574-56cf-a80f-86d44868c0af-attr-1-name" class="er entityLabel">address_id</text><rect height="22" width="21.5625" y="24" x="94.203125" class="er attributeBoxOdd"/><text style="dominant-baseline: middle; font-size: 10.2px;" transform="translate(99.203125,35)" y="0" x="0" id="text-entity-ADDRESS-153346fa-a574-56cf-a80f-86d44868c0af-attr-1-key" class="er entityLabel">PK</text><rect height="22" width="123.140625" y="24" x="115.765625" class="er attributeBoxOdd"/><text style="dominant-baseline: middle; font-size: 10.2px;" transform="translate(120.765625,35)" y="0" x="0" id="text-entity-ADDRESS-153346fa-a574-56cf-a80f-86d44868c0af-attr-1-comment" class="er entityLabel">Mã định danh cho địa chỉ</text><rect height="22.091797828674316" width="35.75" y="46" x="0" class="er attributeBoxEven"/><text style="dominant-baseline: middle; font-size: 10.2px;" transform="translate(5,57.04589891433716)" y="0" x="0" id="text-entity-ADDRESS-153346fa-a574-56cf-a80f-86d44868c0af-attr-2-type" class="er entityLabel">int</text><rect height="22.091797828674316" width="58.453125" y="46" x="35.75" class="er attributeBoxEven"/><text style="dominant-baseline: middle; font-size: 10.2px;" transform="translate(40.75,57.04589891433716)" y="0" x="0" id="text-entity-ADDRESS-153346fa-a574-56cf-a80f-86d44868c0af-attr-2-name" class="er entityLabel">point_id</text><rect height="22.091797828674316" width="21.5625" y="46" x="94.203125" class="er attributeBoxEven"/><text style="dominant-baseline: middle; font-size: 10.2px;" transform="translate(99.203125,57.04589891433716)" y="0" x="0" id="text-entity-ADDRESS-153346fa-a574-56cf-a80f-86d44868c0af-attr-2-key" class="er entityLabel">FK</text><rect height="22.091797828674316" width="123.140625" y="46" x="115.765625" class="er attributeBoxEven"/><text style="dominant-baseline: middle; font-size: 10.2px;" transform="translate(120.765625,57.04589891433716)" y="0" x="0" id="text-entity-ADDRESS-153346fa-a574-56cf-a80f-86d44868c0af-attr-2-comment" class="er entityLabel">Mã điểm tọa độ liên kết</text><rect height="22.091797828674316" width="35.75" y="68.09179782867432" x="0" class="er attributeBoxOdd"/><text style="dominant-baseline: middle; font-size: 10.2px;" transform="translate(5,79.13769674301147)" y="0" x="0" id="text-entity-ADDRESS-153346fa-a574-56cf-a80f-86d44868c0af-attr-3-type" class="er entityLabel">string</text><rect height="22.091797828674316" width="58.453125" y="68.09179782867432" x="35.75" class="er attributeBoxOdd"/><text style="dominant-baseline: middle; font-size: 10.2px;" transform="translate(40.75,79.13769674301147)" y="0" x="0" id="text-entity-ADDRESS-153346fa-a574-56cf-a80f-86d44868c0af-attr-3-name" class="er entityLabel">street</text><rect height="22.091797828674316" width="21.5625" y="68.09179782867432" x="94.203125" class="er attributeBoxOdd"/><text style="dominant-baseline: middle; font-size: 10.2px;" transform="translate(99.203125,79.13769674301147)" y="0" x="0" id="text-entity-ADDRESS-153346fa-a574-56cf-a80f-86d44868c0af-attr-3-key" class="er entityLabel"/><rect height="22.091797828674316" width="123.140625" y="68.09179782867432" x="115.765625" class="er attributeBoxOdd"/><text style="dominant-baseline: middle; font-size: 10.2px;" transform="translate(120.765625,79.13769674301147)" y="0" x="0" id="text-entity-ADDRESS-153346fa-a574-56cf-a80f-86d44868c0af-attr-3-comment" class="er entityLabel">Tên đường</text><rect height="22.091797828674316" width="35.75" y="90.18359565734863" x="0" class="er attributeBoxEven"/><text style="dominant-baseline: middle; font-size: 10.2px;" transform="translate(5,101.22949457168579)" y="0" x="0" id="text-entity-ADDRESS-153346fa-a574-56cf-a80f-86d44868c0af-attr-4-type" class="er entityLabel">string</text><rect height="22.091797828674316" width="58.453125" y="90.18359565734863" x="35.75" class="er attributeBoxEven"/><text style="dominant-baseline: middle; font-size: 10.2px;" transform="translate(40.75,101.22949457168579)" y="0" x="0" id="text-entity-ADDRESS-153346fa-a574-56cf-a80f-86d44868c0af-attr-4-name" class="er entityLabel">city</text><rect height="22.091797828674316" width="21.5625" y="90.18359565734863" x="94.203125" class="er attributeBoxEven"/><text style="dominant-baseline: middle; font-size: 10.2px;" transform="translate(99.203125,101.22949457168579)" y="0" x="0" id="text-entity-ADDRESS-153346fa-a574-56cf-a80f-86d44868c0af-attr-4-key" class="er entityLabel"/><rect height="22.091797828674316" width="123.140625" y="90.18359565734863" x="115.765625" class="er attributeBoxEven"/><text style="dominant-baseline: middle; font-size: 10.2px;" transform="translate(120.765625,101.22949457168579)" y="0" x="0" id="text-entity-ADDRESS-153346fa-a574-56cf-a80f-86d44868c0af-attr-4-comment" class="er entityLabel">Thành phố</text><rect height="22.091797828674316" width="35.75" y="112.27539348602295" x="0" class="er attributeBoxOdd"/><text style="dominant-baseline: middle; font-size: 10.2px;" transform="translate(5,123.32129240036011)" y="0" x="0" id="text-entity-ADDRESS-153346fa-a574-56cf-a80f-86d44868c0af-attr-5-type" class="er entityLabel">string</text><rect height="22.091797828674316" width="58.453125" y="112.27539348602295" x="35.75" class="er attributeBoxOdd"/><text style="dominant-baseline: middle; font-size: 10.2px;" transform="translate(40.75,123.32129240036011)" y="0" x="0" id="text-entity-ADDRESS-153346fa-a574-56cf-a80f-86d44868c0af-attr-5-name" class="er entityLabel">province</text><rect height="22.091797828674316" width="21.5625" y="112.27539348602295" x="94.203125" class="er attributeBoxOdd"/><text style="dominant-baseline: middle; font-size: 10.2px;" transform="translate(99.203125,123.32129240036011)" y="0" x="0" id="text-entity-ADDRESS-153346fa-a574-56cf-a80f-86d44868c0af-attr-5-key" class="er entityLabel"/><rect height="22.091797828674316" width="123.140625" y="112.27539348602295" x="115.765625" class="er attributeBoxOdd"/><text style="dominant-baseline: middle; font-size: 10.2px;" transform="translate(120.765625,123.32129240036011)" y="0" x="0" id="text-entity-ADDRESS-153346fa-a574-56cf-a80f-86d44868c0af-attr-5-comment" class="er entityLabel">Tỉnh</text><rect height="22.091797828674316" width="35.75" y="134.36719131469727" x="0" class="er attributeBoxEven"/><text style="dominant-baseline: middle; font-size: 10.2px;" transform="translate(5,145.41309022903442)" y="0" x="0" id="text-entity-ADDRESS-153346fa-a574-56cf-a80f-86d44868c0af-attr-6-type" class="er entityLabel">string</text><rect height="22.091797828674316" width="58.453125" y="134.36719131469727" x="35.75" class="er attributeBoxEven"/><text style="dominant-baseline: middle; font-size: 10.2px;" transform="translate(40.75,145.41309022903442)" y="0" x="0" id="text-entity-ADDRESS-153346fa-a574-56cf-a80f-86d44868c0af-attr-6-name" class="er entityLabel">country</text><rect height="22.091797828674316" width="21.5625" y="134.36719131469727" x="94.203125" class="er attributeBoxEven"/><text style="dominant-baseline: middle; font-size: 10.2px;" transform="translate(99.203125,145.41309022903442)" y="0" x="0" id="text-entity-ADDRESS-153346fa-a574-56cf-a80f-86d44868c0af-attr-6-key" class="er entityLabel"/><rect height="22.091797828674316" width="123.140625" y="134.36719131469727" x="115.765625" class="er attributeBoxEven"/><text style="dominant-baseline: middle; font-size: 10.2px;" transform="translate(120.765625,145.41309022903442)" y="0" x="0" id="text-entity-ADDRESS-153346fa-a574-56cf-a80f-86d44868c0af-attr-6-comment" class="er entityLabel">Quốc gia</text></g><g transform="translate(630.79296875,20 )" id="entity-PATIENT-1d5528e4-b873-5fa2-b03f-2264906c1060"><rect height="156.27539253234863" width="334.78125" y="0" x="0" class="er entityBox"/><text style="dominant-baseline: middle; text-anchor: middle; font-size: 12px;" transform="translate(167.390625,12)" y="0" x="0" id="text-entity-PATIENT-1d5528e4-b873-5fa2-b03f-2264906c1060" class="er entityLabel">PATIENT</text><rect height="22.091796875" width="51.640625" y="24" x="0" class="er attributeBoxOdd"/><text style="dominant-baseline: middle; font-size: 10.2px;" transform="translate(5,35.0458984375)" y="0" x="0" id="text-entity-PATIENT-1d5528e4-b873-5fa2-b03f-2264906c1060-attr-1-type" class="er entityLabel">int</text><rect height="22.091796875" width="96.171875" y="24" x="51.640625" class="er attributeBoxOdd"/><text style="dominant-baseline: middle; font-size: 10.2px;" transform="translate(56.640625,35.0458984375)" y="0" x="0" id="text-entity-PATIENT-1d5528e4-b873-5fa2-b03f-2264906c1060-attr-1-name" class="er entityLabel">id</text><rect height="22.091796875" width="21.5625" y="24" x="147.8125" class="er attributeBoxOdd"/><text style="dominant-baseline: middle; font-size: 10.2px;" transform="translate(152.8125,35.0458984375)" y="0" x="0" id="text-entity-PATIENT-1d5528e4-b873-5fa2-b03f-2264906c1060-attr-1-key" class="er entityLabel">PK</text><rect height="22.091796875" width="165.40625" y="24" x="169.375" class="er attributeBoxOdd"/><text style="dominant-baseline: middle; font-size: 10.2px;" transform="translate(174.375,35.0458984375)" y="0" x="0" id="text-entity-PATIENT-1d5528e4-b873-5fa2-b03f-2264906c1060-attr-1-comment" class="er entityLabel">Mã định danh cho từng bệnh nhân</text><rect height="22" width="51.640625" y="46.091796875" x="0" class="er attributeBoxEven"/><text style="dominant-baseline: middle; font-size: 10.2px;" transform="translate(5,57.091796875)" y="0" x="0" id="text-entity-PATIENT-1d5528e4-b873-5fa2-b03f-2264906c1060-attr-2-type" class="er entityLabel">int</text><rect height="22" width="96.171875" y="46.091796875" x="51.640625" class="er attributeBoxEven"/><text style="dominant-baseline: middle; font-size: 10.2px;" transform="translate(56.640625,57.091796875)" y="0" x="0" id="text-entity-PATIENT-1d5528e4-b873-5fa2-b03f-2264906c1060-attr-2-name" class="er entityLabel">address_id</text><rect height="22" width="21.5625" y="46.091796875" x="147.8125" class="er attributeBoxEven"/><text style="dominant-baseline: middle; font-size: 10.2px;" transform="translate(152.8125,57.091796875)" y="0" x="0" id="text-entity-PATIENT-1d5528e4-b873-5fa2-b03f-2264906c1060-attr-2-key" class="er entityLabel">FK</text><rect height="22" width="165.40625" y="46.091796875" x="169.375" class="er attributeBoxEven"/><text style="dominant-baseline: middle; font-size: 10.2px;" transform="translate(174.375,57.091796875)" y="0" x="0" id="text-entity-PATIENT-1d5528e4-b873-5fa2-b03f-2264906c1060-attr-2-comment" class="er entityLabel">Mã địa chỉ liên kết</text><rect height="22.091797828674316" width="51.640625" y="68.091796875" x="0" class="er attributeBoxOdd"/><text style="dominant-baseline: middle; font-size: 10.2px;" transform="translate(5,79.13769578933716)" y="0" x="0" id="text-entity-PATIENT-1d5528e4-b873-5fa2-b03f-2264906c1060-attr-3-type" class="er entityLabel">string</text><rect height="22.091797828674316" width="96.171875" y="68.091796875" x="51.640625" class="er attributeBoxOdd"/><text style="dominant-baseline: middle; font-size: 10.2px;" transform="translate(56.640625,79.13769578933716)" y="0" x="0" id="text-entity-PATIENT-1d5528e4-b873-5fa2-b03f-2264906c1060-attr-3-name" class="er entityLabel">status</text><rect height="22.091797828674316" width="21.5625" y="68.091796875" x="147.8125" class="er attributeBoxOdd"/><text style="dominant-baseline: middle; font-size: 10.2px;" transform="translate(152.8125,79.13769578933716)" y="0" x="0" id="text-entity-PATIENT-1d5528e4-b873-5fa2-b03f-2264906c1060-attr-3-key" class="er entityLabel"/><rect height="22.091797828674316" width="165.40625" y="68.091796875" x="169.375" class="er attributeBoxOdd"/><text style="dominant-baseline: middle; font-size: 10.2px;" transform="translate(174.375,79.13769578933716)" y="0" x="0" id="text-entity-PATIENT-1d5528e4-b873-5fa2-b03f-2264906c1060-attr-3-comment" class="er entityLabel">Tình trạng bệnh nhân</text><rect height="22.091797828674316" width="51.640625" y="90.18359470367432" x="0" class="er attributeBoxEven"/><text style="dominant-baseline: middle; font-size: 10.2px;" transform="translate(5,101.22949361801147)" y="0" x="0" id="text-entity-PATIENT-1d5528e4-b873-5fa2-b03f-2264906c1060-attr-4-type" class="er entityLabel">datetime</text><rect height="22.091797828674316" width="96.171875" y="90.18359470367432" x="51.640625" class="er attributeBoxEven"/><text style="dominant-baseline: middle; font-size: 10.2px;" transform="translate(56.640625,101.22949361801147)" y="0" x="0" id="text-entity-PATIENT-1d5528e4-b873-5fa2-b03f-2264906c1060-attr-4-name" class="er entityLabel">recorded_time</text><rect height="22.091797828674316" width="21.5625" y="90.18359470367432" x="147.8125" class="er attributeBoxEven"/><text style="dominant-baseline: middle; font-size: 10.2px;" transform="translate(152.8125,101.22949361801147)" y="0" x="0" id="text-entity-PATIENT-1d5528e4-b873-5fa2-b03f-2264906c1060-attr-4-key" class="er entityLabel"/><rect height="22.091797828674316" width="165.40625" y="90.18359470367432" x="169.375" class="er attributeBoxEven"/><text style="dominant-baseline: middle; font-size: 10.2px;" transform="translate(174.375,101.22949361801147)" y="0" x="0" id="text-entity-PATIENT-1d5528e4-b873-5fa2-b03f-2264906c1060-attr-4-comment" class="er entityLabel">Thời gian ghi nhận</text><rect height="22" width="51.640625" y="112.27539253234863" x="0" class="er attributeBoxOdd"/><text style="dominant-baseline: middle; font-size: 10.2px;" transform="translate(5,123.27539253234863)" y="0" x="0" id="text-entity-PATIENT-1d5528e4-b873-5fa2-b03f-2264906c1060-attr-5-type" class="er entityLabel">int</text><rect height="22" width="96.171875" y="112.27539253234863" x="51.640625" class="er attributeBoxOdd"/><text style="dominant-baseline: middle; font-size: 10.2px;" transform="translate(56.640625,123.27539253234863)" y="0" x="0" id="text-entity-PATIENT-1d5528e4-b873-5fa2-b03f-2264906c1060-attr-5-name" class="er entityLabel">treatment_area_id</text><rect height="22" width="21.5625" y="112.27539253234863" x="147.8125" class="er attributeBoxOdd"/><text style="dominant-baseline: middle; font-size: 10.2px;" transform="translate(152.8125,123.27539253234863)" y="0" x="0" id="text-entity-PATIENT-1d5528e4-b873-5fa2-b03f-2264906c1060-attr-5-key" class="er entityLabel"/><rect height="22" width="165.40625" y="112.27539253234863" x="169.375" class="er attributeBoxOdd"/><text style="dominant-baseline: middle; font-size: 10.2px;" transform="translate(174.375,123.27539253234863)" y="0" x="0" id="text-entity-PATIENT-1d5528e4-b873-5fa2-b03f-2264906c1060-attr-5-comment" class="er entityLabel">Nơi điều trị</text><rect height="22" width="51.640625" y="134.27539253234863" x="0" class="er attributeBoxEven"/><text style="dominant-baseline: middle; font-size: 10.2px;" transform="translate(5,145.27539253234863)" y="0" x="0" id="text-entity-PATIENT-1d5528e4-b873-5fa2-b03f-2264906c1060-attr-6-type" class="er entityLabel">xxx</text><rect height="22" width="96.171875" y="134.27539253234863" x="51.640625" class="er attributeBoxEven"/><text style="dominant-baseline: middle; font-size: 10.2px;" transform="translate(56.640625,145.27539253234863)" y="0" x="0" id="text-entity-PATIENT-1d5528e4-b873-5fa2-b03f-2264906c1060-attr-6-name" class="er entityLabel">xxx</text><rect height="22" width="21.5625" y="134.27539253234863" x="147.8125" class="er attributeBoxEven"/><text style="dominant-baseline: middle; font-size: 10.2px;" transform="translate(152.8125,145.27539253234863)" y="0" x="0" id="text-entity-PATIENT-1d5528e4-b873-5fa2-b03f-2264906c1060-attr-6-key" class="er entityLabel"/><rect height="22" width="165.40625" y="134.27539253234863" x="169.375" class="er attributeBoxEven"/><text style="dominant-baseline: middle; font-size: 10.2px;" transform="translate(174.375,145.27539253234863)" y="0" x="0" id="text-entity-PATIENT-1d5528e4-b873-5fa2-b03f-2264906c1060-attr-6-comment" class="er entityLabel">Các thuộc tính khác nếu có</text></g><rect height="14" width="83.21875" y="715.443115234375" x="177.4588623046875" class="er relationshipLabelBox"/><text style="text-anchor: middle; dominant-baseline: middle; font-size: 12px;" y="722.443115234375" x="219.0682373046875" id="rel1" class="er relationshipLabel">có một polygon</text><rect height="14" width="77.3125" y="204.04248046875" x="362.5544738769531" class="er relationshipLabelBox"/><text style="text-anchor: middle; dominant-baseline: middle; font-size: 12px;" y="211.04248046875" x="401.2107238769531" id="rel2" class="er relationshipLabel">có một địa chỉ</text><rect height="14" width="77.3125" y="223.10984802246094" x="601.4466552734375" class="er relationshipLabelBox"/><text style="text-anchor: middle; dominant-baseline: middle; font-size: 12px;" y="230.10984802246094" x="640.1029052734375" id="rel3" class="er relationshipLabel">có một địa chỉ</text><rect height="14" width="51.6875" y="484.3086242675781" x="440.2913513183594" class="er relationshipLabelBox"/><text style="text-anchor: middle; dominant-baseline: middle; font-size: 12px;" y="491.3086242675781" x="466.1351013183594" id="rel4" class="er relationshipLabel">có địa chỉ</text><rect height="14" width="59.15625" y="378.6796875" x="818.311279296875" class="er relationshipLabelBox"/><text style="text-anchor: middle; dominant-baseline: middle; font-size: 12px;" y="385.6796875" x="847.889404296875" id="rel5" class="er relationshipLabel">điều trị tại</text><rect height="14" width="39.34375" y="722.9494018554688" x="548.0098876953125" class="er relationshipLabelBox"/><text style="text-anchor: middle; dominant-baseline: middle; font-size: 12px;" y="729.9494018554688" x="567.6817626953125" id="rel6" class="er relationshipLabel">ở trong</text></svg>