<svg aria-roledescription="er" role="graphics-document document" viewBox="0 0 386.515625 815" style="max-width: 386.516px; background-color: white;" xmlns:xlink="http://www.w3.org/1999/xlink" xmlns="http://www.w3.org/2000/svg" width="100%" id="my-svg"><style>#my-svg{font-family:"trebuchet ms",verdana,arial,sans-serif;font-size:16px;fill:#333;}#my-svg .error-icon{fill:#552222;}#my-svg .error-text{fill:#552222;stroke:#552222;}#my-svg .edge-thickness-normal{stroke-width:1px;}#my-svg .edge-thickness-thick{stroke-width:3.5px;}#my-svg .edge-pattern-solid{stroke-dasharray:0;}#my-svg .edge-thickness-invisible{stroke-width:0;fill:none;}#my-svg .edge-pattern-dashed{stroke-dasharray:3;}#my-svg .edge-pattern-dotted{stroke-dasharray:2;}#my-svg .marker{fill:#333333;stroke:#333333;}#my-svg .marker.cross{stroke:#333333;}#my-svg svg{font-family:"trebuchet ms",verdana,arial,sans-serif;font-size:16px;}#my-svg p{margin:0;}#my-svg .entityBox{fill:#ECECFF;stroke:#9370DB;}#my-svg .attributeBoxOdd{fill:#ffffff;stroke:#9370DB;}#my-svg .attributeBoxEven{fill:#f2f2f2;stroke:#9370DB;}#my-svg .relationshipLabelBox{fill:hsl(80, 100%, 96.2745098039%);opacity:0.7;background-color:hsl(80, 100%, 96.2745098039%);}#my-svg .relationshipLabelBox rect{opacity:0.5;}#my-svg .relationshipLine{stroke:#333333;}#my-svg .entityTitleText{text-anchor:middle;font-size:18px;fill:#333;}#my-svg #MD_PARENT_START{fill:#f5f5f5!important;stroke:#333333!important;stroke-width:1;}#my-svg #MD_PARENT_END{fill:#f5f5f5!important;stroke:#333333!important;stroke-width:1;}#my-svg :root{--mermaid-font-family:"trebuchet ms",verdana,arial,sans-serif;}</style><g/><defs><marker orient="auto" markerHeight="240" markerWidth="190" refY="7" refX="0" id="MD_PARENT_START"><path d="M 18,7 L9,13 L1,7 L9,1 Z"/></marker></defs><defs><marker orient="auto" markerHeight="28" markerWidth="20" refY="7" refX="19" id="MD_PARENT_END"><path d="M 18,7 L9,13 L1,7 L9,1 Z"/></marker></defs><defs><marker orient="auto" markerHeight="18" markerWidth="18" refY="9" refX="0" id="ONLY_ONE_START"><path d="M9,0 L9,18 M15,0 L15,18" fill="none" stroke="gray"/></marker></defs><defs><marker orient="auto" markerHeight="18" markerWidth="18" refY="9" refX="18" id="ONLY_ONE_END"><path d="M3,0 L3,18 M9,0 L9,18" fill="none" stroke="gray"/></marker></defs><defs><marker orient="auto" markerHeight="18" markerWidth="30" refY="9" refX="0" id="ZERO_OR_ONE_START"><circle r="6" cy="9" cx="21" fill="white" stroke="gray"/><path d="M9,0 L9,18" fill="none" stroke="gray"/></marker></defs><defs><marker orient="auto" markerHeight="18" markerWidth="30" refY="9" refX="30" id="ZERO_OR_ONE_END"><circle r="6" cy="9" cx="9" fill="white" stroke="gray"/><path d="M21,0 L21,18" fill="none" stroke="gray"/></marker></defs><defs><marker orient="auto" markerHeight="36" markerWidth="45" refY="18" refX="18" id="ONE_OR_MORE_START"><path d="M0,18 Q 18,0 36,18 Q 18,36 0,18 M42,9 L42,27" fill="none" stroke="gray"/></marker></defs><defs><marker orient="auto" markerHeight="36" markerWidth="45" refY="18" refX="27" id="ONE_OR_MORE_END"><path d="M3,9 L3,27 M9,18 Q27,0 45,18 Q27,36 9,18" fill="none" stroke="gray"/></marker></defs><defs><marker orient="auto" markerHeight="36" markerWidth="57" refY="18" refX="18" id="ZERO_OR_MORE_START"><circle r="6" cy="18" cx="48" fill="white" stroke="gray"/><path d="M0,18 Q18,0 36,18 Q18,36 0,18" fill="none" stroke="gray"/></marker></defs><defs><marker orient="auto" markerHeight="36" markerWidth="57" refY="18" refX="39" id="ZERO_OR_MORE_END"><circle r="6" cy="18" cx="9" fill="white" stroke="gray"/><path d="M21,18 Q39,0 57,18 Q39,36 21,18" fill="none" stroke="gray"/></marker></defs><path style="stroke: gray; fill: none;" marker-start="url(#ONLY_ONE_START)" marker-end="url(#ONLY_ONE_END)" d="M70,95L70,103.333C70,111.667,70,128.333,80.631,145C91.263,161.667,112.525,178.333,123.157,186.667L133.788,195" class="er relationshipLine"/><path style="stroke: gray; fill: none;" marker-start="url(#ONLY_ONE_START)" marker-end="url(#ONLY_ONE_END)" d="M293.258,95L293.258,103.333C293.258,111.667,293.258,128.333,282.626,145C271.995,161.667,250.733,178.333,240.101,186.667L229.47,195" class="er relationshipLine"/><path style="stroke: gray; fill: none;" marker-start="url(#ONLY_ONE_START)" marker-end="url(#ZERO_OR_MORE_END)" d="M181.629,270L181.629,278.333C181.629,286.667,181.629,303.333,181.629,320C181.629,336.667,181.629,353.333,181.629,361.667L181.629,370" class="er relationshipLine"/><path style="stroke: gray; fill: none;" marker-start="url(#ONLY_ONE_START)" marker-end="url(#ONLY_ONE_END)" d="M181.629,445L181.629,453.333C181.629,461.667,181.629,478.333,181.629,495C181.629,511.667,181.629,528.333,181.629,536.667L181.629,545" class="er relationshipLine"/><path style="stroke: gray; fill: none;" marker-start="url(#ONLY_ONE_START)" marker-end="url(#ONE_OR_MORE_END)" d="M181.629,620L181.629,628.333C181.629,636.667,181.629,653.333,181.629,670C181.629,686.667,181.629,703.333,181.629,711.667L181.629,720" class="er relationshipLine"/><g transform="translate(20,20 )" id="entity-Useragent-c9526e61-9ed5-5462-bb04-7210e4a2cc7d"><rect height="75" width="100" y="0" x="0" class="er entityBox"/><text style="dominant-baseline: middle; text-anchor: middle; font-size: 12px;" transform="translate(50,37.5)" y="0" x="0" id="text-entity-Useragent-c9526e61-9ed5-5462-bb04-7210e4a2cc7d" class="er entityLabel">User agent</text></g><g transform="translate(131.62890625,195 )" id="entity-Storageshed-6c183f15-8adb-5e2c-91ad-bc4e1cdb8fd8"><rect height="75" width="100" y="0" x="0" class="er entityBox"/><text style="dominant-baseline: middle; text-anchor: middle; font-size: 12px;" transform="translate(50,37.5)" y="0" x="0" id="text-entity-Storageshed-6c183f15-8adb-5e2c-91ad-bc4e1cdb8fd8" class="er entityLabel">Storage shed</text></g><g transform="translate(220,20 )" id="entity-Traversablenavigable-8b5919ab-6e0b-53b2-9993-582dbf1ffa1f"><rect height="75" width="146.515625" y="0" x="0" class="er entityBox"/><text style="dominant-baseline: middle; text-anchor: middle; font-size: 12px;" transform="translate(73.2578125,37.5)" y="0" x="0" id="text-entity-Traversablenavigable-8b5919ab-6e0b-53b2-9993-582dbf1ffa1f" class="er entityLabel">Traversable navigable</text></g><g transform="translate(131.572265625,370 )" id="entity-Storageshelf-7f13a9bc-15e1-5d8b-b30b-6fb640a68871"><rect height="75" width="100.11328125" y="0" x="0" class="er entityBox"/><text style="dominant-baseline: middle; text-anchor: middle; font-size: 12px;" transform="translate(50.056640625,37.5)" y="0" x="0" id="text-entity-Storageshelf-7f13a9bc-15e1-5d8b-b30b-6fb640a68871" class="er entityLabel">Storage shelf</text></g><g transform="translate(126.29296875,545 )" id="entity-Storagebucket-599c60e6-caef-5ff2-aaa1-2aeabb35594e"><rect height="75" width="110.671875" y="0" x="0" class="er entityBox"/><text style="dominant-baseline: middle; text-anchor: middle; font-size: 12px;" transform="translate(55.3359375,37.5)" y="0" x="0" id="text-entity-Storagebucket-599c60e6-caef-5ff2-aaa1-2aeabb35594e" class="er entityLabel">Storage bucket</text></g><g transform="translate(128.19921875,720 )" id="entity-Storagebottle-864de251-980f-5463-b201-0acf0806c385"><rect height="75" width="106.859375" y="0" x="0" class="er entityBox"/><text style="dominant-baseline: middle; text-anchor: middle; font-size: 12px;" transform="translate(53.4296875,37.5)" y="0" x="0" id="text-entity-Storagebottle-864de251-980f-5463-b201-0acf0806c385" class="er entityLabel">Storage bottle</text></g><rect height="14" width="66.28125" y="146.56956481933594" x="53.82170104980469" class="er relationshipLabelBox"/><text style="text-anchor: middle; dominant-baseline: middle; font-size: 12px;" y="153.56956481933594" x="86.96232604980469" id="rel1" class="er relationshipLabel">holds (local)</text><rect height="14" width="78.046875" y="146.56936645507812" x="237.27182006835938" class="er relationshipLabelBox"/><text style="text-anchor: middle; dominant-baseline: middle; font-size: 12px;" y="153.56936645507812" x="276.2952575683594" id="rel2" class="er relationshipLabel">holds (session)</text><rect height="14" width="109.84375" y="313" x="126.70712280273438" class="er relationshipLabelBox"/><text style="text-anchor: middle; dominant-baseline: middle; font-size: 12px;" y="320" x="181.62899780273438" id="rel3" class="er relationshipLabel">for each storage key</text><rect height="14" width="79.34375" y="488" x="141.95712280273438" class="er relationshipLabelBox"/><text style="text-anchor: middle; dominant-baseline: middle; font-size: 12px;" y="495" x="181.62899780273438" id="rel4" class="er relationshipLabel">holds (default)</text><rect height="14" width="138.984375" y="663" x="112.13681030273438" class="er relationshipLabelBox"/><text style="text-anchor: middle; dominant-baseline: middle; font-size: 12px;" y="670" x="181.62899780273438" id="rel5" class="er relationshipLabel">for each storage endpoint</text></svg>