<svg aria-roledescription="er" role="graphics-document document" viewBox="0 0 629.21875 612.642578125" style="max-width: 629.219px; background-color: white;" xmlns:xlink="http://www.w3.org/1999/xlink" xmlns="http://www.w3.org/2000/svg" width="100%" id="my-svg"><style>#my-svg{font-family:"trebuchet ms",verdana,arial,sans-serif;font-size:16px;fill:#333;}#my-svg .error-icon{fill:#552222;}#my-svg .error-text{fill:#552222;stroke:#552222;}#my-svg .edge-thickness-normal{stroke-width:1px;}#my-svg .edge-thickness-thick{stroke-width:3.5px;}#my-svg .edge-pattern-solid{stroke-dasharray:0;}#my-svg .edge-thickness-invisible{stroke-width:0;fill:none;}#my-svg .edge-pattern-dashed{stroke-dasharray:3;}#my-svg .edge-pattern-dotted{stroke-dasharray:2;}#my-svg .marker{fill:#333333;stroke:#333333;}#my-svg .marker.cross{stroke:#333333;}#my-svg svg{font-family:"trebuchet ms",verdana,arial,sans-serif;font-size:16px;}#my-svg p{margin:0;}#my-svg .entityBox{fill:#ECECFF;stroke:#9370DB;}#my-svg .attributeBoxOdd{fill:#ffffff;stroke:#9370DB;}#my-svg .attributeBoxEven{fill:#f2f2f2;stroke:#9370DB;}#my-svg .relationshipLabelBox{fill:hsl(80, 100%, 96.2745098039%);opacity:0.7;background-color:hsl(80, 100%, 96.2745098039%);}#my-svg .relationshipLabelBox rect{opacity:0.5;}#my-svg .relationshipLine{stroke:#333333;}#my-svg .entityTitleText{text-anchor:middle;font-size:18px;fill:#333;}#my-svg #MD_PARENT_START{fill:#f5f5f5!important;stroke:#333333!important;stroke-width:1;}#my-svg #MD_PARENT_END{fill:#f5f5f5!important;stroke:#333333!important;stroke-width:1;}#my-svg :root{--mermaid-font-family:"trebuchet ms",verdana,arial,sans-serif;}</style><g/><defs><marker orient="auto" markerHeight="240" markerWidth="190" refY="7" refX="0" id="MD_PARENT_START"><path d="M 18,7 L9,13 L1,7 L9,1 Z"/></marker></defs><defs><marker orient="auto" markerHeight="28" markerWidth="20" refY="7" refX="19" id="MD_PARENT_END"><path d="M 18,7 L9,13 L1,7 L9,1 Z"/></marker></defs><defs><marker orient="auto" markerHeight="18" markerWidth="18" refY="9" refX="0" id="ONLY_ONE_START"><path d="M9,0 L9,18 M15,0 L15,18" fill="none" stroke="gray"/></marker></defs><defs><marker orient="auto" markerHeight="18" markerWidth="18" refY="9" refX="18" id="ONLY_ONE_END"><path d="M3,0 L3,18 M9,0 L9,18" fill="none" stroke="gray"/></marker></defs><defs><marker orient="auto" markerHeight="18" markerWidth="30" refY="9" refX="0" id="ZERO_OR_ONE_START"><circle r="6" cy="9" cx="21" fill="white" stroke="gray"/><path d="M9,0 L9,18" fill="none" stroke="gray"/></marker></defs><defs><marker orient="auto" markerHeight="18" markerWidth="30" refY="9" refX="30" id="ZERO_OR_ONE_END"><circle r="6" cy="9" cx="9" fill="white" stroke="gray"/><path d="M21,0 L21,18" fill="none" stroke="gray"/></marker></defs><defs><marker orient="auto" markerHeight="36" markerWidth="45" refY="18" refX="18" id="ONE_OR_MORE_START"><path d="M0,18 Q 18,0 36,18 Q 18,36 0,18 M42,9 L42,27" fill="none" stroke="gray"/></marker></defs><defs><marker orient="auto" markerHeight="36" markerWidth="45" refY="18" refX="27" id="ONE_OR_MORE_END"><path d="M3,9 L3,27 M9,18 Q27,0 45,18 Q27,36 9,18" fill="none" stroke="gray"/></marker></defs><defs><marker orient="auto" markerHeight="36" markerWidth="57" refY="18" refX="18" id="ZERO_OR_MORE_START"><circle r="6" cy="18" cx="48" fill="white" stroke="gray"/><path d="M0,18 Q18,0 36,18 Q18,36 0,18" fill="none" stroke="gray"/></marker></defs><defs><marker orient="auto" markerHeight="36" markerWidth="57" refY="18" refX="39" id="ZERO_OR_MORE_END"><circle r="6" cy="18" cx="9" fill="white" stroke="gray"/><path d="M21,18 Q39,0 57,18 Q39,36 21,18" fill="none" stroke="gray"/></marker></defs><path style="stroke: gray; fill: none;" marker-start="url(#ZERO_OR_MORE_START)" marker-end="url(#ONLY_ONE_END)" d="M49.746,88.092L44.788,96.425C39.83,104.758,29.915,121.425,36.366,138.092C42.817,154.758,65.633,171.425,77.042,179.758L88.45,188.092" class="er relationshipLine"/><path style="stroke: gray; fill: none;" marker-start="url(#ZERO_OR_MORE_START)" marker-end="url(#ONLY_ONE_END)" d="M90.254,88.092L95.212,96.425C100.17,104.758,110.085,121.425,115.042,138.092C120,154.758,120,171.425,120,179.758L120,188.092" class="er relationshipLine"/><path style="stroke: gray; fill: none;" marker-start="url(#ZERO_OR_ONE_START)" marker-end="url(#ONLY_ONE_END)" d="M258.044,88.092L252.571,96.425C247.097,104.758,236.15,121.425,218.675,138.092C201.199,154.758,177.195,171.425,165.193,179.758L153.191,188.092" class="er relationshipLine"/><path style="stroke: gray; fill: none;" marker-start="url(#ZERO_OR_MORE_START)" marker-end="url(#ONLY_ONE_END)" d="M300.661,88.092L305.618,96.425C310.576,104.758,320.491,121.425,299.604,138.731C278.716,156.037,227.026,173.982,201.181,182.954L175.336,191.927" class="er relationshipLine"/><path style="stroke: gray; fill: none;" marker-start="url(#ZERO_OR_MORE_START)" marker-end="url(#ONLY_ONE_END)" d="M170,424.459L170,432.792C170,441.126,170,457.792,170,474.459C170,491.126,170,507.792,170,516.126L170,524.459" class="er relationshipLine"/><path style="stroke: gray; fill: none;" marker-start="url(#ZERO_OR_MORE_START)" marker-end="url(#ZERO_OR_MORE_END)" d="M299.219,350.044L310.885,347.4C322.552,344.757,345.885,339.47,360.469,336.827C375.052,334.184,380.885,334.184,386.719,341.707C392.552,349.229,398.385,364.275,398.385,379.321C398.385,394.367,392.552,409.413,386.719,416.936C380.885,424.459,375.052,424.459,360.469,421.816C345.885,419.172,322.552,413.886,310.885,411.242L299.219,408.599" class="er relationshipLine"/><path style="stroke: gray; fill: none;" marker-start="url(#ZERO_OR_MORE_START)" marker-end="url(#ZERO_OR_MORE_END)" d="M120,234.184L120,242.517C120,250.85,120,267.517,124.38,284.184C128.759,300.85,137.518,317.517,141.898,325.85L146.278,334.184" class="er relationshipLine"/><path style="stroke: gray; fill: none;" marker-start="url(#ZERO_OR_MORE_START)" marker-end="url(#ONLY_ONE_END)" d="M417.277,229.159L391.833,238.33C366.388,247.5,315.499,265.842,281.767,283.346C248.035,300.85,231.461,317.517,223.174,325.85L214.887,334.184" class="er relationshipLine"/><path style="stroke: gray; fill: none;" marker-start="url(#ZERO_OR_MORE_START)" marker-end="url(#ONE_OR_MORE_END)" d="M434.886,234.184L423.173,242.517C411.46,250.85,388.035,267.517,359.276,284.184C330.517,300.85,296.424,317.517,279.378,325.85L262.332,334.184" class="er relationshipLine"/><path style="stroke: gray; fill: none;" marker-start="url(#ZERO_OR_MORE_START)" marker-end="url(#ZERO_OR_MORE_END)" d="M496.285,234.184L506.774,242.517C517.263,250.85,538.241,267.517,548.73,285.457C559.219,303.396,559.219,322.609,559.219,332.215L559.219,341.821" class="er relationshipLine"/><g transform="translate(64.6640625,188.091796875 )" id="entity-Title-4f030900-07b9-590a-a8ae-a91c541e09ce"><rect height="46.091797828674316" width="110.671875" y="0" x="0" class="er entityBox"/><text style="dominant-baseline: middle; text-anchor: middle; font-size: 12px;" transform="translate(55.3359375,12)" y="0" x="0" id="text-entity-Title-4f030900-07b9-590a-a8ae-a91c541e09ce" class="er entityLabel">Title</text><rect height="22.091797828674316" width="18.59375" y="24" x="0" class="er attributeBoxOdd"/><text style="dominant-baseline: middle; font-size: 10.2px;" transform="translate(5,35.04589891433716)" y="0" x="0" id="text-entity-Title-4f030900-07b9-590a-a8ae-a91c541e09ce-attr-1-type" class="er entityLabel">id</text><rect height="22.091797828674316" width="27.890625" y="24" x="18.59375" class="er attributeBoxOdd"/><text style="dominant-baseline: middle; font-size: 10.2px;" transform="translate(23.59375,35.04589891433716)" y="0" x="0" id="text-entity-Title-4f030900-07b9-590a-a8ae-a91c541e09ce-attr-1-name" class="er entityLabel">PPN</text><rect height="22.091797828674316" width="64.1875" y="24" x="46.484375" class="er attributeBoxOdd"/><text style="dominant-baseline: middle; font-size: 10.2px;" transform="translate(51.484375,35.04589891433716)" y="0" x="0" id="text-entity-Title-4f030900-07b9-590a-a8ae-a91c541e09ce-attr-1-comment" class="er entityLabel">primary key</text></g><g transform="translate(20,20 )" id="entity-Hierarchy-c6dd355d-d882-53f4-947d-ccf22bb093be"><rect height="68.091796875" width="100" y="0" x="0" class="er entityBox"/><text style="dominant-baseline: middle; text-anchor: middle; font-size: 12px;" transform="translate(50,12)" y="0" x="0" id="text-entity-Hierarchy-c6dd355d-d882-53f4-947d-ccf22bb093be" class="er entityLabel">Hierarchy</text><rect height="22" width="56.1484375" y="24" x="0" class="er attributeBoxOdd"/><text style="dominant-baseline: middle; font-size: 10.2px;" transform="translate(5,35)" y="0" x="0" id="text-entity-Hierarchy-c6dd355d-d882-53f4-947d-ccf22bb093be-attr-1-type" class="er entityLabel">child</text><rect height="22" width="43.8515625" y="24" x="56.1484375" class="er attributeBoxOdd"/><text style="dominant-baseline: middle; font-size: 10.2px;" transform="translate(61.1484375,35)" y="0" x="0" id="text-entity-Hierarchy-c6dd355d-d882-53f4-947d-ccf22bb093be-attr-1-name" class="er entityLabel">PPN</text><rect height="22.091796875" width="56.1484375" y="46" x="0" class="er attributeBoxEven"/><text style="dominant-baseline: middle; font-size: 10.2px;" transform="translate(5,57.0458984375)" y="0" x="0" id="text-entity-Hierarchy-c6dd355d-d882-53f4-947d-ccf22bb093be-attr-2-type" class="er entityLabel">parent</text><rect height="22.091796875" width="43.8515625" y="46" x="56.1484375" class="er attributeBoxEven"/><text style="dominant-baseline: middle; font-size: 10.2px;" transform="translate(61.1484375,57.0458984375)" y="0" x="0" id="text-entity-Hierarchy-c6dd355d-d882-53f4-947d-ccf22bb093be-attr-2-name" class="er entityLabel">PPN</text></g><g transform="translate(220,20 )" id="entity-Redirect-ee0c9b9e-d30d-5628-a955-f67a519e97b3"><rect height="68.09179782867432" width="120.8125" y="0" x="0" class="er entityBox"/><text style="dominant-baseline: middle; text-anchor: middle; font-size: 12px;" transform="translate(60.40625,12)" y="0" x="0" id="text-entity-Redirect-ee0c9b9e-d30d-5628-a955-f67a519e97b3" class="er entityLabel">Redirect</text><rect height="22.091797828674316" width="28.734375" y="24" x="0" class="er attributeBoxOdd"/><text style="dominant-baseline: middle; font-size: 10.2px;" transform="translate(5,35.04589891433716)" y="0" x="0" id="text-entity-Redirect-ee0c9b9e-d30d-5628-a955-f67a519e97b3-attr-1-type" class="er entityLabel">old</text><rect height="22.091797828674316" width="27.890625" y="24" x="28.734375" class="er attributeBoxOdd"/><text style="dominant-baseline: middle; font-size: 10.2px;" transform="translate(33.734375,35.04589891433716)" y="0" x="0" id="text-entity-Redirect-ee0c9b9e-d30d-5628-a955-f67a519e97b3-attr-1-name" class="er entityLabel">PPN</text><rect height="22.091797828674316" width="64.1875" y="24" x="56.625" class="er attributeBoxOdd"/><text style="dominant-baseline: middle; font-size: 10.2px;" transform="translate(61.625,35.04589891433716)" y="0" x="0" id="text-entity-Redirect-ee0c9b9e-d30d-5628-a955-f67a519e97b3-attr-1-comment" class="er entityLabel">primary key</text><rect height="22" width="28.734375" y="46.091797828674316" x="0" class="er attributeBoxEven"/><text style="dominant-baseline: middle; font-size: 10.2px;" transform="translate(5,57.091797828674316)" y="0" x="0" id="text-entity-Redirect-ee0c9b9e-d30d-5628-a955-f67a519e97b3-attr-2-type" class="er entityLabel">new</text><rect height="22" width="27.890625" y="46.091797828674316" x="28.734375" class="er attributeBoxEven"/><text style="dominant-baseline: middle; font-size: 10.2px;" transform="translate(33.734375,57.091797828674316)" y="0" x="0" id="text-entity-Redirect-ee0c9b9e-d30d-5628-a955-f67a519e97b3-attr-2-name" class="er entityLabel">PPN</text><rect height="22" width="64.1875" y="46.091797828674316" x="56.625" class="er attributeBoxEven"/><text style="dominant-baseline: middle; font-size: 10.2px;" transform="translate(61.625,57.091797828674316)" y="0" x="0" id="text-entity-Redirect-ee0c9b9e-d30d-5628-a955-f67a519e97b3-attr-2-comment" class="er entityLabel"/></g><g transform="translate(112.734375,524.458984375 )" id="entity-Vocabulary-7366264d-f06c-5a95-9434-e5a4bc9ddba4"><rect height="68.18359565734863" width="114.53125" y="0" x="0" class="er entityBox"/><text style="dominant-baseline: middle; text-anchor: middle; font-size: 12px;" transform="translate(57.265625,12)" y="0" x="0" id="text-entity-Vocabulary-7366264d-f06c-5a95-9434-e5a4bc9ddba4" class="er entityLabel">Vocabulary</text><rect height="22.091797828674316" width="22.453125" y="24" x="0" class="er attributeBoxOdd"/><text style="dominant-baseline: middle; font-size: 10.2px;" transform="translate(5,35.04589891433716)" y="0" x="0" id="text-entity-Vocabulary-7366264d-f06c-5a95-9434-e5a4bc9ddba4-attr-1-type" class="er entityLabel">id</text><rect height="22.091797828674316" width="27.890625" y="24" x="22.453125" class="er attributeBoxOdd"/><text style="dominant-baseline: middle; font-size: 10.2px;" transform="translate(27.453125,35.04589891433716)" y="0" x="0" id="text-entity-Vocabulary-7366264d-f06c-5a95-9434-e5a4bc9ddba4-attr-1-name" class="er entityLabel">URI</text><rect height="22.091797828674316" width="64.1875" y="24" x="50.34375" class="er attributeBoxOdd"/><text style="dominant-baseline: middle; font-size: 10.2px;" transform="translate(55.34375,35.04589891433716)" y="0" x="0" id="text-entity-Vocabulary-7366264d-f06c-5a95-9434-e5a4bc9ddba4-attr-1-comment" class="er entityLabel">primary key</text><rect height="22.091797828674316" width="22.453125" y="46.091797828674316" x="0" class="er attributeBoxEven"/><text style="dominant-baseline: middle; font-size: 10.2px;" transform="translate(5,57.137696743011475)" y="0" x="0" id="text-entity-Vocabulary-7366264d-f06c-5a95-9434-e5a4bc9ddba4-attr-2-type" class="er entityLabel">uri</text><rect height="22.091797828674316" width="27.890625" y="46.091797828674316" x="22.453125" class="er attributeBoxEven"/><text style="dominant-baseline: middle; font-size: 10.2px;" transform="translate(27.453125,57.137696743011475)" y="0" x="0" id="text-entity-Vocabulary-7366264d-f06c-5a95-9434-e5a4bc9ddba4-attr-2-name" class="er entityLabel">PPN</text><rect height="22.091797828674316" width="64.1875" y="46.091797828674316" x="50.34375" class="er attributeBoxEven"/><text style="dominant-baseline: middle; font-size: 10.2px;" transform="translate(55.34375,57.137696743011475)" y="0" x="0" id="text-entity-Vocabulary-7366264d-f06c-5a95-9434-e5a4bc9ddba4-attr-2-comment" class="er entityLabel">unique</text></g><g transform="translate(40.78125,334.18359375 )" id="entity-Concept-8993e37b-e395-5263-a074-491c52a2de64"><rect height="90.27539253234863" width="258.4375" y="0" x="0" class="er entityBox"/><text style="dominant-baseline: middle; text-anchor: middle; font-size: 12px;" transform="translate(129.21875,12)" y="0" x="0" id="text-entity-Concept-8993e37b-e395-5263-a074-491c52a2de64" class="er entityLabel">Concept</text><rect height="22.091797828674316" width="25.53125" y="24" x="0" class="er attributeBoxOdd"/><text style="dominant-baseline: middle; font-size: 10.2px;" transform="translate(5,35.04589891433716)" y="0" x="0" id="text-entity-Concept-8993e37b-e395-5263-a074-491c52a2de64-attr-1-type" class="er entityLabel">uri</text><rect height="22.091797828674316" width="35.75" y="24" x="25.53125" class="er attributeBoxOdd"/><text style="dominant-baseline: middle; font-size: 10.2px;" transform="translate(30.53125,35.04589891433716)" y="0" x="0" id="text-entity-Concept-8993e37b-e395-5263-a074-491c52a2de64-attr-1-name" class="er entityLabel">URI</text><rect height="22.091797828674316" width="197.15625" y="24" x="61.28125" class="er attributeBoxOdd"/><text style="dominant-baseline: middle; font-size: 10.2px;" transform="translate(66.28125,35.04589891433716)" y="0" x="0" id="text-entity-Concept-8993e37b-e395-5263-a074-491c52a2de64-attr-1-comment" class="er entityLabel">primary key</text><rect height="22.091797828674316" width="25.53125" y="46.091797828674316" x="0" class="er attributeBoxEven"/><text style="dominant-baseline: middle; font-size: 10.2px;" transform="translate(5,57.137696743011475)" y="0" x="0" id="text-entity-Concept-8993e37b-e395-5263-a074-491c52a2de64-attr-2-type" class="er entityLabel">id</text><rect height="22.091797828674316" width="35.75" y="46.091797828674316" x="25.53125" class="er attributeBoxEven"/><text style="dominant-baseline: middle; font-size: 10.2px;" transform="translate(30.53125,57.137696743011475)" y="0" x="0" id="text-entity-Concept-8993e37b-e395-5263-a074-491c52a2de64-attr-2-name" class="er entityLabel">string</text><rect height="22.091797828674316" width="197.15625" y="46.091797828674316" x="61.28125" class="er attributeBoxEven"/><text style="dominant-baseline: middle; font-size: 10.2px;" transform="translate(66.28125,57.137696743011475)" y="0" x="0" id="text-entity-Concept-8993e37b-e395-5263-a074-491c52a2de64-attr-2-comment" class="er entityLabel">unique combined with voc</text><rect height="22.091796875" width="25.53125" y="68.18359565734863" x="0" class="er attributeBoxOdd"/><text style="dominant-baseline: middle; font-size: 10.2px;" transform="translate(5,79.22949409484863)" y="0" x="0" id="text-entity-Concept-8993e37b-e395-5263-a074-491c52a2de64-attr-3-type" class="er entityLabel">voc</text><rect height="22.091796875" width="35.75" y="68.18359565734863" x="25.53125" class="er attributeBoxOdd"/><text style="dominant-baseline: middle; font-size: 10.2px;" transform="translate(30.53125,79.22949409484863)" y="0" x="0" id="text-entity-Concept-8993e37b-e395-5263-a074-491c52a2de64-attr-3-name" class="er entityLabel">URI</text><rect height="22.091796875" width="197.15625" y="68.18359565734863" x="61.28125" class="er attributeBoxOdd"/><text style="dominant-baseline: middle; font-size: 10.2px;" transform="translate(66.28125,79.22949409484863)" y="0" x="0" id="text-entity-Concept-8993e37b-e395-5263-a074-491c52a2de64-attr-3-comment" class="er entityLabel">foreign key and unique combined with id</text></g><g transform="translate(417.27734375,188.091796875 )" id="entity-Mapping-1370b814-b9dd-5b93-bbd5-9dc23aa69b8e"><rect height="46.091796875" width="100" y="0" x="0" class="er entityBox"/><text style="dominant-baseline: middle; text-anchor: middle; font-size: 12px;" transform="translate(50,12)" y="0" x="0" id="text-entity-Mapping-1370b814-b9dd-5b93-bbd5-9dc23aa69b8e" class="er entityLabel">Mapping</text><rect height="22.091796875" width="48.71875" y="24" x="0" class="er attributeBoxOdd"/><text style="dominant-baseline: middle; font-size: 10.2px;" transform="translate(5,35.0458984375)" y="0" x="0" id="text-entity-Mapping-1370b814-b9dd-5b93-bbd5-9dc23aa69b8e-attr-1-type" class="er entityLabel">type</text><rect height="22.091796875" width="51.28125" y="24" x="48.71875" class="er attributeBoxOdd"/><text style="dominant-baseline: middle; font-size: 10.2px;" transform="translate(53.71875,35.0458984375)" y="0" x="0" id="text-entity-Mapping-1370b814-b9dd-5b93-bbd5-9dc23aa69b8e-attr-1-name" class="er entityLabel">TYPE</text></g><g transform="translate(509.21875,341.8212890625 )" id="entity-Concordance-4d61a2f0-49cf-54a1-890b-a28b72ea6b8a"><rect height="75" width="100" y="0" x="0" class="er entityBox"/><text style="dominant-baseline: middle; text-anchor: middle; font-size: 12px;" transform="translate(50,37.5)" y="0" x="0" id="text-entity-Concordance-4d61a2f0-49cf-54a1-890b-a28b72ea6b8a" class="er entityLabel">Concordance</text></g><rect height="14" width="26.15625" y="139.5312957763672" x="27.847137451171875" class="er relationshipLabelBox"/><text style="text-anchor: middle; dominant-baseline: middle; font-size: 12px;" y="146.5312957763672" x="40.925262451171875" id="rel1" class="er relationshipLabel">child</text><rect height="14" width="35.515625" y="128.46197509765625" x="96.46171569824219" class="er relationshipLabelBox"/><text style="text-anchor: middle; dominant-baseline: middle; font-size: 12px;" y="135.46197509765625" x="114.21952819824219" id="rel2" class="er relationshipLabel">parent</text><rect height="14" width="16.671875" y="137.38473510742188" x="203.4481964111328" class="er relationshipLabelBox"/><text style="text-anchor: middle; dominant-baseline: middle; font-size: 12px;" y="144.38473510742188" x="211.7841339111328" id="rel3" class="er relationshipLabel">old</text><rect height="14" width="22.03125" y="151.0849151611328" x="254.81375122070312" class="er relationshipLabelBox"/><text style="text-anchor: middle; dominant-baseline: middle; font-size: 12px;" y="158.0849151611328" x="265.8293762207031" id="rel4" class="er relationshipLabel">new</text><rect height="14" width="51.3125" y="467.458984375" x="144.34375" class="er relationshipLabelBox"/><text style="text-anchor: middle; dominant-baseline: middle; font-size: 12px;" y="474.458984375" x="170" id="rel5" class="er relationshipLabel">inScheme</text><rect height="14" width="42.234375" y="372.3214416503906" x="377.267822265625" class="er relationshipLabelBox"/><text style="text-anchor: middle; dominant-baseline: middle; font-size: 12px;" y="379.3214416503906" x="398.385009765625" id="rel6" class="er relationshipLabel">relation</text><rect height="14" width="39.75" y="279.2870788574219" x="105.08052062988281" class="er relationshipLabelBox"/><text style="text-anchor: middle; dominant-baseline: middle; font-size: 12px;" y="286.2870788574219" x="124.95552062988281" id="rel7" class="er relationshipLabel">subject</text><rect height="14" width="25.5" y="263.2196350097656" x="296.8619384765625" class="er relationshipLabelBox"/><text style="text-anchor: middle; dominant-baseline: middle; font-size: 12px;" y="270.2196350097656" x="309.6119384765625" id="rel8" class="er relationshipLabel">from</text><rect height="14" width="11.203125" y="281.7452087402344" x="345.6756896972656" class="er relationshipLabelBox"/><text style="text-anchor: middle; dominant-baseline: middle; font-size: 12px;" y="288.7452087402344" x="351.2772521972656" id="rel9" class="er relationshipLabel">to</text><rect height="14" width="34.9921875" y="271.9337158203125" x="526.9447021484375" class="er relationshipLabelBox"/><text style="text-anchor: middle; dominant-baseline: middle; font-size: 12px;" y="278.9337158203125" x="544.4407958984375" id="rel10" class="er relationshipLabel">partOf</text></svg>