<svg aria-roledescription="er" role="graphics-document document" viewBox="0 0 1121.89453125 692.458984375" style="max-width: 1121.89px; background-color: white;" xmlns:xlink="http://www.w3.org/1999/xlink" xmlns="http://www.w3.org/2000/svg" width="100%" id="my-svg"><style>#my-svg{font-family:"trebuchet ms",verdana,arial,sans-serif;font-size:16px;fill:#333;}#my-svg .error-icon{fill:#552222;}#my-svg .error-text{fill:#552222;stroke:#552222;}#my-svg .edge-thickness-normal{stroke-width:1px;}#my-svg .edge-thickness-thick{stroke-width:3.5px;}#my-svg .edge-pattern-solid{stroke-dasharray:0;}#my-svg .edge-thickness-invisible{stroke-width:0;fill:none;}#my-svg .edge-pattern-dashed{stroke-dasharray:3;}#my-svg .edge-pattern-dotted{stroke-dasharray:2;}#my-svg .marker{fill:#333333;stroke:#333333;}#my-svg .marker.cross{stroke:#333333;}#my-svg svg{font-family:"trebuchet ms",verdana,arial,sans-serif;font-size:16px;}#my-svg p{margin:0;}#my-svg .entityBox{fill:#ECECFF;stroke:#9370DB;}#my-svg .attributeBoxOdd{fill:#ffffff;stroke:#9370DB;}#my-svg .attributeBoxEven{fill:#f2f2f2;stroke:#9370DB;}#my-svg .relationshipLabelBox{fill:hsl(80, 100%, 96.2745098039%);opacity:0.7;background-color:hsl(80, 100%, 96.2745098039%);}#my-svg .relationshipLabelBox rect{opacity:0.5;}#my-svg .relationshipLine{stroke:#333333;}#my-svg .entityTitleText{text-anchor:middle;font-size:18px;fill:#333;}#my-svg #MD_PARENT_START{fill:#f5f5f5!important;stroke:#333333!important;stroke-width:1;}#my-svg #MD_PARENT_END{fill:#f5f5f5!important;stroke:#333333!important;stroke-width:1;}#my-svg :root{--mermaid-font-family:"trebuchet ms",verdana,arial,sans-serif;}</style><g/><defs><marker orient="auto" markerHeight="240" markerWidth="190" refY="7" refX="0" id="MD_PARENT_START"><path d="M 18,7 L9,13 L1,7 L9,1 Z"/></marker></defs><defs><marker orient="auto" markerHeight="28" markerWidth="20" refY="7" refX="19" id="MD_PARENT_END"><path d="M 18,7 L9,13 L1,7 L9,1 Z"/></marker></defs><defs><marker orient="auto" markerHeight="18" markerWidth="18" refY="9" refX="0" id="ONLY_ONE_START"><path d="M9,0 L9,18 M15,0 L15,18" fill="none" stroke="gray"/></marker></defs><defs><marker orient="auto" markerHeight="18" markerWidth="18" refY="9" refX="18" id="ONLY_ONE_END"><path d="M3,0 L3,18 M9,0 L9,18" fill="none" stroke="gray"/></marker></defs><defs><marker orient="auto" markerHeight="18" markerWidth="30" refY="9" refX="0" id="ZERO_OR_ONE_START"><circle r="6" cy="9" cx="21" fill="white" stroke="gray"/><path d="M9,0 L9,18" fill="none" stroke="gray"/></marker></defs><defs><marker orient="auto" markerHeight="18" markerWidth="30" refY="9" refX="30" id="ZERO_OR_ONE_END"><circle r="6" cy="9" cx="9" fill="white" stroke="gray"/><path d="M21,0 L21,18" fill="none" stroke="gray"/></marker></defs><defs><marker orient="auto" markerHeight="36" markerWidth="45" refY="18" refX="18" id="ONE_OR_MORE_START"><path d="M0,18 Q 18,0 36,18 Q 18,36 0,18 M42,9 L42,27" fill="none" stroke="gray"/></marker></defs><defs><marker orient="auto" markerHeight="36" markerWidth="45" refY="18" refX="27" id="ONE_OR_MORE_END"><path d="M3,9 L3,27 M9,18 Q27,0 45,18 Q27,36 9,18" fill="none" stroke="gray"/></marker></defs><defs><marker orient="auto" markerHeight="36" markerWidth="57" refY="18" refX="18" id="ZERO_OR_MORE_START"><circle r="6" cy="18" cx="48" fill="white" stroke="gray"/><path d="M0,18 Q18,0 36,18 Q18,36 0,18" fill="none" stroke="gray"/></marker></defs><defs><marker orient="auto" markerHeight="36" markerWidth="57" refY="18" refX="39" id="ZERO_OR_MORE_END"><circle r="6" cy="18" cx="9" fill="white" stroke="gray"/><path d="M21,18 Q39,0 57,18 Q39,36 21,18" fill="none" stroke="gray"/></marker></defs><path style="stroke: gray; fill: none;" marker-start="url(#ONLY_ONE_START)" marker-end="url(#ONLY_ONE_END)" d="M335.094,54.98L291.288,65.165C247.482,75.351,159.87,95.721,116.064,116.073C72.258,136.425,72.258,156.758,72.258,166.925L72.258,177.092" class="er relationshipLine"/><path style="stroke: gray; fill: none;" marker-start="url(#ONLY_ONE_START)" marker-end="url(#ZERO_OR_MORE_END)" d="M72.258,223.184L72.258,233.35C72.258,243.517,72.258,263.85,72.258,282.35C72.258,300.85,72.258,317.517,72.258,325.85L72.258,334.184" class="er relationshipLine"/><path style="stroke: gray; fill: none;" marker-start="url(#ONLY_ONE_START)" marker-end="url(#ONLY_ONE_END)" d="M437.75,53.384L489.641,63.835C541.533,74.286,645.315,95.189,697.206,113.974C749.098,132.758,749.098,149.425,749.098,157.758L749.098,166.092" class="er relationshipLine"/><path style="stroke: gray; fill: none;" marker-start="url(#ONLY_ONE_START)" marker-end="url(#ONLY_ONE_END)" d="M417.972,66.092L429.38,74.425C440.788,82.758,463.605,99.425,475.014,117.925C486.422,136.425,486.422,156.758,486.422,166.925L486.422,177.092" class="er relationshipLine"/><path style="stroke: gray; fill: none;" marker-start="url(#ONLY_ONE_START)" marker-end="url(#ONLY_ONE_END)" d="M354.872,66.092L343.464,74.425C332.055,82.758,309.239,99.425,297.83,117.925C286.422,136.425,286.422,156.758,286.422,166.925L286.422,177.092" class="er relationshipLine"/><path style="stroke: gray; fill: none;" marker-start="url(#ONLY_ONE_START)" marker-end="url(#ONE_OR_MORE_END)" d="M286.422,223.184L286.422,233.35C286.422,243.517,286.422,263.85,286.422,282.35C286.422,300.85,286.422,317.517,286.422,325.85L286.422,334.184" class="er relationshipLine"/><path style="stroke: gray; fill: none;" marker-start="url(#ONLY_ONE_START)" marker-end="url(#ZERO_OR_MORE_END)" d="M707.456,234.184L697.263,242.517C687.071,250.85,666.686,267.517,656.493,284.184C646.301,300.85,646.301,317.517,646.301,325.85L646.301,334.184" class="er relationshipLine"/><path style="stroke: gray; fill: none;" marker-start="url(#ONLY_ONE_START)" marker-end="url(#ZERO_OR_MORE_END)" d="M799.098,214.016L841.23,225.711C883.363,237.405,967.629,260.794,1009.762,280.822C1051.895,300.85,1051.895,317.517,1051.895,325.85L1051.895,334.184" class="er relationshipLine"/><path style="stroke: gray; fill: none;" marker-start="url(#ONLY_ONE_START)" marker-end="url(#ONLY_ONE_END)" d="M790.739,234.184L800.932,242.517C811.124,250.85,831.509,267.517,841.702,284.184C851.895,300.85,851.895,317.517,851.895,325.85L851.895,334.184" class="er relationshipLine"/><path style="stroke: gray; fill: none;" marker-start="url(#ONLY_ONE_START)" marker-end="url(#ONE_OR_MORE_END)" d="M646.301,380.275L646.301,388.609C646.301,396.942,646.301,413.609,684.733,431.947C723.165,450.285,800.03,470.295,838.462,480.3L876.895,490.305" class="er relationshipLine"/><path style="stroke: gray; fill: none;" marker-start="url(#ONLY_ONE_START)" marker-end="url(#ONE_OR_MORE_END)" d="M1051.895,380.275L1051.895,388.609C1051.895,396.942,1051.895,413.609,1037.634,430.275C1023.374,446.942,994.853,463.609,980.592,471.942L966.332,480.275" class="er relationshipLine"/><path style="stroke: gray; fill: none;" marker-start="url(#ONLY_ONE_START)" marker-end="url(#ONLY_ONE_END)" d="M699.098,216.401L664.366,227.698C629.634,238.995,560.171,261.589,525.439,285.061C490.707,308.532,490.707,332.881,490.707,357.229C490.707,381.578,490.707,405.927,490.707,430.275C490.707,454.624,490.707,478.973,490.707,503.321C490.707,527.67,490.707,552.019,542.105,574.669C593.504,597.319,696.301,618.271,747.699,628.746L799.098,639.222" class="er relationshipLine"/><path style="stroke: gray; fill: none;" marker-start="url(#ONLY_ONE_START)" marker-end="url(#ONLY_ONE_END)" d="M926.895,526.367L926.895,534.701C926.895,543.034,926.895,559.701,918.019,576.367C909.144,593.034,891.393,609.701,882.518,618.034L873.642,626.367" class="er relationshipLine"/><g transform="translate(335.09375,20 )" id="entity-MODEL-ac5f2eec-271c-5885-aa63-b762a8e597da"><rect height="46.091796875" width="102.65625" y="0" x="0" class="er entityBox"/><text style="dominant-baseline: middle; text-anchor: middle; font-size: 12px;" transform="translate(51.328125,12)" y="0" x="0" id="text-entity-MODEL-ac5f2eec-271c-5885-aa63-b762a8e597da" class="er entityLabel">MODEL</text><rect height="22.091796875" width="77.921875" y="24" x="0" class="er attributeBoxOdd"/><text style="dominant-baseline: middle; font-size: 10.2px;" transform="translate(5,35.0458984375)" y="0" x="0" id="text-entity-MODEL-ac5f2eec-271c-5885-aa63-b762a8e597da-attr-1-type" class="er entityLabel">aggregate-root</text><rect height="22.091796875" width="24.734375" y="24" x="77.921875" class="er attributeBoxOdd"/><text style="dominant-baseline: middle; font-size: 10.2px;" transform="translate(82.921875,35.0458984375)" y="0" x="0" id="text-entity-MODEL-ac5f2eec-271c-5885-aa63-b762a8e597da-attr-1-name" class="er entityLabel">yes</text></g><g transform="translate(20,177.091796875 )" id="entity-MIDDLEWARES-c1828f66-48c0-561d-8671-00059a2d2c0d"><rect height="46.091797828674316" width="104.515625" y="0" x="0" class="er entityBox"/><text style="dominant-baseline: middle; text-anchor: middle; font-size: 12px;" transform="translate(52.2578125,12)" y="0" x="0" id="text-entity-MIDDLEWARES-c1828f66-48c0-561d-8671-00059a2d2c0d" class="er entityLabel">MIDDLEWARES</text><rect height="22.091797828674316" width="73.796875" y="24" x="0" class="er attributeBoxOdd"/><text style="dominant-baseline: middle; font-size: 10.2px;" transform="translate(5,35.04589891433716)" y="0" x="0" id="text-entity-MIDDLEWARES-c1828f66-48c0-561d-8671-00059a2d2c0d-attr-1-type" class="er entityLabel">value-object</text><rect height="22.091797828674316" width="30.71875" y="24" x="73.796875" class="er attributeBoxOdd"/><text style="dominant-baseline: middle; font-size: 10.2px;" transform="translate(78.796875,35.04589891433716)" y="0" x="0" id="text-entity-MIDDLEWARES-c1828f66-48c0-561d-8671-00059a2d2c0d-attr-1-name" class="er entityLabel">yes</text></g><g transform="translate(22.2578125,334.18359375 )" id="entity-MIDDLEWARE-372b33f8-0204-53f4-9d2c-60c63ec04851"><rect height="46.091797828674316" width="100" y="0" x="0" class="er entityBox"/><text style="dominant-baseline: middle; text-anchor: middle; font-size: 12px;" transform="translate(50,12)" y="0" x="0" id="text-entity-MIDDLEWARE-372b33f8-0204-53f4-9d2c-60c63ec04851" class="er entityLabel">MIDDLEWARE</text><rect height="22.091797828674316" width="71.5390625" y="24" x="0" class="er attributeBoxOdd"/><text style="dominant-baseline: middle; font-size: 10.2px;" transform="translate(5,35.04589891433716)" y="0" x="0" id="text-entity-MIDDLEWARE-372b33f8-0204-53f4-9d2c-60c63ec04851-attr-1-type" class="er entityLabel">value-object</text><rect height="22.091797828674316" width="28.4609375" y="24" x="71.5390625" class="er attributeBoxOdd"/><text style="dominant-baseline: middle; font-size: 10.2px;" transform="translate(76.5390625,35.04589891433716)" y="0" x="0" id="text-entity-MIDDLEWARE-372b33f8-0204-53f4-9d2c-60c63ec04851-attr-1-name" class="er entityLabel">yes</text></g><g transform="translate(699.09765625,166.091796875 )" id="entity-SNAPSHOT-a95779a5-29f3-5497-96dd-faf8c917163c"><rect height="68.09179782867432" width="100" y="0" x="0" class="er entityBox"/><text style="dominant-baseline: middle; text-anchor: middle; font-size: 12px;" transform="translate(50,12)" y="0" x="0" id="text-entity-SNAPSHOT-a95779a5-29f3-5497-96dd-faf8c917163c" class="er entityLabel">SNAPSHOT</text><rect height="22" width="71.5390625" y="24" x="0" class="er attributeBoxOdd"/><text style="dominant-baseline: middle; font-size: 10.2px;" transform="translate(5,35)" y="0" x="0" id="text-entity-SNAPSHOT-a95779a5-29f3-5497-96dd-faf8c917163c-attr-1-type" class="er entityLabel">iteration</text><rect height="22" width="28.4609375" y="24" x="71.5390625" class="er attributeBoxOdd"/><text style="dominant-baseline: middle; font-size: 10.2px;" transform="translate(76.5390625,35)" y="0" x="0" id="text-entity-SNAPSHOT-a95779a5-29f3-5497-96dd-faf8c917163c-attr-1-name" class="er entityLabel">int</text><rect height="22.091797828674316" width="71.5390625" y="46" x="0" class="er attributeBoxEven"/><text style="dominant-baseline: middle; font-size: 10.2px;" transform="translate(5,57.04589891433716)" y="0" x="0" id="text-entity-SNAPSHOT-a95779a5-29f3-5497-96dd-faf8c917163c-attr-2-type" class="er entityLabel">value-object</text><rect height="22.091797828674316" width="28.4609375" y="46" x="71.5390625" class="er attributeBoxEven"/><text style="dominant-baseline: middle; font-size: 10.2px;" transform="translate(76.5390625,57.04589891433716)" y="0" x="0" id="text-entity-SNAPSHOT-a95779a5-29f3-5497-96dd-faf8c917163c-attr-2-name" class="er entityLabel">yes</text></g><g transform="translate(436.421875,177.091796875 )" id="entity-ORDERING-58848751-faf7-51d0-a0bf-7f15f0fdca7f"><rect height="46.091797828674316" width="100" y="0" x="0" class="er entityBox"/><text style="dominant-baseline: middle; text-anchor: middle; font-size: 12px;" transform="translate(50,12)" y="0" x="0" id="text-entity-ORDERING-58848751-faf7-51d0-a0bf-7f15f0fdca7f" class="er entityLabel">ORDERING</text><rect height="22.091797828674316" width="71.5390625" y="24" x="0" class="er attributeBoxOdd"/><text style="dominant-baseline: middle; font-size: 10.2px;" transform="translate(5,35.04589891433716)" y="0" x="0" id="text-entity-ORDERING-58848751-faf7-51d0-a0bf-7f15f0fdca7f-attr-1-type" class="er entityLabel">value-object</text><rect height="22.091797828674316" width="28.4609375" y="24" x="71.5390625" class="er attributeBoxOdd"/><text style="dominant-baseline: middle; font-size: 10.2px;" transform="translate(76.5390625,35.04589891433716)" y="0" x="0" id="text-entity-ORDERING-58848751-faf7-51d0-a0bf-7f15f0fdca7f-attr-1-name" class="er entityLabel">yes</text></g><g transform="translate(236.421875,177.091796875 )" id="entity-REGISTRY-3a7da15f-ae42-535b-bc4a-cdff0d554bd9"><rect height="46.091797828674316" width="100" y="0" x="0" class="er entityBox"/><text style="dominant-baseline: middle; text-anchor: middle; font-size: 12px;" transform="translate(50,12)" y="0" x="0" id="text-entity-REGISTRY-3a7da15f-ae42-535b-bc4a-cdff0d554bd9" class="er entityLabel">REGISTRY</text><rect height="22.091797828674316" width="71.5390625" y="24" x="0" class="er attributeBoxOdd"/><text style="dominant-baseline: middle; font-size: 10.2px;" transform="translate(5,35.04589891433716)" y="0" x="0" id="text-entity-REGISTRY-3a7da15f-ae42-535b-bc4a-cdff0d554bd9-attr-1-type" class="er entityLabel">value-object</text><rect height="22.091797828674316" width="28.4609375" y="24" x="71.5390625" class="er attributeBoxOdd"/><text style="dominant-baseline: middle; font-size: 10.2px;" transform="translate(76.5390625,35.04589891433716)" y="0" x="0" id="text-entity-REGISTRY-3a7da15f-ae42-535b-bc4a-cdff0d554bd9-attr-1-name" class="er entityLabel">yes</text></g><g transform="translate(222.2578125,334.18359375 )" id="entity-EVENTEXECUTION-201170a8-8ec2-52fa-a06c-5860f422005e"><rect height="46.091797828674316" width="128.328125" y="0" x="0" class="er entityBox"/><text style="dominant-baseline: middle; text-anchor: middle; font-size: 12px;" transform="translate(64.1640625,12)" y="0" x="0" id="text-entity-EVENTEXECUTION-201170a8-8ec2-52fa-a06c-5860f422005e" class="er entityLabel">EVENT-EXECUTION</text><rect height="22.091797828674316" width="85.703125" y="24" x="0" class="er attributeBoxOdd"/><text style="dominant-baseline: middle; font-size: 10.2px;" transform="translate(5,35.04589891433716)" y="0" x="0" id="text-entity-EVENTEXECUTION-201170a8-8ec2-52fa-a06c-5860f422005e-attr-1-type" class="er entityLabel">value-object</text><rect height="22.091797828674316" width="42.625" y="24" x="85.703125" class="er attributeBoxOdd"/><text style="dominant-baseline: middle; font-size: 10.2px;" transform="translate(90.703125,35.04589891433716)" y="0" x="0" id="text-entity-EVENTEXECUTION-201170a8-8ec2-52fa-a06c-5860f422005e-attr-1-name" class="er entityLabel">yes</text></g><g transform="translate(1001.89453125,334.18359375 )" id="entity-PASTEVENT-593b26e3-b020-5bae-b311-d76f2af15309"><rect height="46.091797828674316" width="100" y="0" x="0" class="er entityBox"/><text style="dominant-baseline: middle; text-anchor: middle; font-size: 12px;" transform="translate(50,12)" y="0" x="0" id="text-entity-PASTEVENT-593b26e3-b020-5bae-b311-d76f2af15309" class="er entityLabel">PAST-EVENT</text><rect height="22.091797828674316" width="71.5390625" y="24" x="0" class="er attributeBoxOdd"/><text style="dominant-baseline: middle; font-size: 10.2px;" transform="translate(5,35.04589891433716)" y="0" x="0" id="text-entity-PASTEVENT-593b26e3-b020-5bae-b311-d76f2af15309-attr-1-type" class="er entityLabel">value-object</text><rect height="22.091797828674316" width="28.4609375" y="24" x="71.5390625" class="er attributeBoxOdd"/><text style="dominant-baseline: middle; font-size: 10.2px;" transform="translate(76.5390625,35.04589891433716)" y="0" x="0" id="text-entity-PASTEVENT-593b26e3-b020-5bae-b311-d76f2af15309-attr-1-name" class="er entityLabel">yes</text></g><g transform="translate(590.70703125,334.18359375 )" id="entity-FUTUREEVENT-23fdca5d-0ea2-557b-94bf-71cf9f173230"><rect height="46.091797828674316" width="111.1875" y="0" x="0" class="er entityBox"/><text style="dominant-baseline: middle; text-anchor: middle; font-size: 12px;" transform="translate(55.59375,12)" y="0" x="0" id="text-entity-FUTUREEVENT-23fdca5d-0ea2-557b-94bf-71cf9f173230" class="er entityLabel">FUTURE-EVENT</text><rect height="22.091797828674316" width="77.1328125" y="24" x="0" class="er attributeBoxOdd"/><text style="dominant-baseline: middle; font-size: 10.2px;" transform="translate(5,35.04589891433716)" y="0" x="0" id="text-entity-FUTUREEVENT-23fdca5d-0ea2-557b-94bf-71cf9f173230-attr-1-type" class="er entityLabel">value-object</text><rect height="22.091797828674316" width="34.0546875" y="24" x="77.1328125" class="er attributeBoxOdd"/><text style="dominant-baseline: middle; font-size: 10.2px;" transform="translate(82.1328125,35.04589891433716)" y="0" x="0" id="text-entity-FUTUREEVENT-23fdca5d-0ea2-557b-94bf-71cf9f173230-attr-1-name" class="er entityLabel">yes</text></g><g transform="translate(801.89453125,334.18359375 )" id="entity-STATE-f21d4411-6890-5d4b-861f-d8466c631260"><rect height="46.091797828674316" width="100" y="0" x="0" class="er entityBox"/><text style="dominant-baseline: middle; text-anchor: middle; font-size: 12px;" transform="translate(50,12)" y="0" x="0" id="text-entity-STATE-f21d4411-6890-5d4b-861f-d8466c631260" class="er entityLabel">STATE</text><rect height="22.091797828674316" width="71.5390625" y="24" x="0" class="er attributeBoxOdd"/><text style="dominant-baseline: middle; font-size: 10.2px;" transform="translate(5,35.04589891433716)" y="0" x="0" id="text-entity-STATE-f21d4411-6890-5d4b-861f-d8466c631260-attr-1-type" class="er entityLabel">value-object</text><rect height="22.091797828674316" width="28.4609375" y="24" x="71.5390625" class="er attributeBoxOdd"/><text style="dominant-baseline: middle; font-size: 10.2px;" transform="translate(76.5390625,35.04589891433716)" y="0" x="0" id="text-entity-STATE-f21d4411-6890-5d4b-861f-d8466c631260-attr-1-name" class="er entityLabel">yes</text></g><g transform="translate(876.89453125,480.275390625 )" id="entity-EVENT-12434316-4a87-5800-981a-68e9670d1fb3"><rect height="46.091797828674316" width="100" y="0" x="0" class="er entityBox"/><text style="dominant-baseline: middle; text-anchor: middle; font-size: 12px;" transform="translate(50,12)" y="0" x="0" id="text-entity-EVENT-12434316-4a87-5800-981a-68e9670d1fb3" class="er entityLabel">EVENT</text><rect height="22.091797828674316" width="71.5390625" y="24" x="0" class="er attributeBoxOdd"/><text style="dominant-baseline: middle; font-size: 10.2px;" transform="translate(5,35.04589891433716)" y="0" x="0" id="text-entity-EVENT-12434316-4a87-5800-981a-68e9670d1fb3-attr-1-type" class="er entityLabel">value-object</text><rect height="22.091797828674316" width="28.4609375" y="24" x="71.5390625" class="er attributeBoxOdd"/><text style="dominant-baseline: middle; font-size: 10.2px;" transform="translate(76.5390625,35.04589891433716)" y="0" x="0" id="text-entity-EVENT-12434316-4a87-5800-981a-68e9670d1fb3-attr-1-name" class="er entityLabel">yes</text></g><g transform="translate(799.09765625,626.3671875 )" id="entity-DATE-9a42c8cd-48bd-5df0-946c-f8c2ddcfb82c"><rect height="46.091797828674316" width="100" y="0" x="0" class="er entityBox"/><text style="dominant-baseline: middle; text-anchor: middle; font-size: 12px;" transform="translate(50,12)" y="0" x="0" id="text-entity-DATE-9a42c8cd-48bd-5df0-946c-f8c2ddcfb82c" class="er entityLabel">DATE</text><rect height="22.091797828674316" width="71.5390625" y="24" x="0" class="er attributeBoxOdd"/><text style="dominant-baseline: middle; font-size: 10.2px;" transform="translate(5,35.04589891433716)" y="0" x="0" id="text-entity-DATE-9a42c8cd-48bd-5df0-946c-f8c2ddcfb82c-attr-1-type" class="er entityLabel">value-object</text><rect height="22.091797828674316" width="28.4609375" y="24" x="71.5390625" class="er attributeBoxOdd"/><text style="dominant-baseline: middle; font-size: 10.2px;" transform="translate(76.5390625,35.04589891433716)" y="0" x="0" id="text-entity-DATE-9a42c8cd-48bd-5df0-946c-f8c2ddcfb82c-attr-1-name" class="er entityLabel">yes</text></g><rect height="0" width="0" y="92.03766632080078" x="184.94320678710938" class="er relationshipLabelBox"/><text style="text-anchor: middle; dominant-baseline: middle; font-size: 12px;" y="92.03766632080078" x="184.94320678710938" id="rel1" class="er relationshipLabel"/><rect height="0" width="0" y="278.6839904785156" x="72.25800323486328" class="er relationshipLabelBox"/><text style="text-anchor: middle; dominant-baseline: middle; font-size: 12px;" y="278.6839904785156" x="72.25800323486328" id="rel2" class="er relationshipLabel"/><rect height="0" width="0" y="89.08065032958984" x="607.6754150390625" class="er relationshipLabelBox"/><text style="text-anchor: middle; dominant-baseline: middle; font-size: 12px;" y="89.08065032958984" x="607.6754150390625" id="rel3" class="er relationshipLabel"/><rect height="0" width="0" y="111.2098617553711" x="470.3407897949219" class="er relationshipLabelBox"/><text style="text-anchor: middle; dominant-baseline: middle; font-size: 12px;" y="111.2098617553711" x="470.3407897949219" id="rel4" class="er relationshipLabel"/><rect height="0" width="0" y="111.20982360839844" x="302.5032043457031" class="er relationshipLabelBox"/><text style="text-anchor: middle; dominant-baseline: middle; font-size: 12px;" y="111.20982360839844" x="302.5032043457031" id="rel5" class="er relationshipLabel"/><rect height="0" width="0" y="278.6839904785156" x="286.4219970703125" class="er relationshipLabelBox"/><text style="text-anchor: middle; dominant-baseline: middle; font-size: 12px;" y="278.6839904785156" x="286.4219970703125" id="rel6" class="er relationshipLabel"/><rect height="0" width="0" y="276.0566711425781" x="662.2120361328125" class="er relationshipLabelBox"/><text style="text-anchor: middle; dominant-baseline: middle; font-size: 12px;" y="276.0566711425781" x="662.2120361328125" id="rel7" class="er relationshipLabel"/><rect height="0" width="0" y="254.9591064453125" x="940.7294921875" class="er relationshipLabelBox"/><text style="text-anchor: middle; dominant-baseline: middle; font-size: 12px;" y="254.9591064453125" x="940.7294921875" id="rel8" class="er relationshipLabel"/><rect height="0" width="0" y="276.05682373046875" x="835.9830932617188" class="er relationshipLabelBox"/><text style="text-anchor: middle; dominant-baseline: middle; font-size: 12px;" y="276.05682373046875" x="835.9830932617188" id="rel9" class="er relationshipLabel"/><rect height="0" width="0" y="454.5909118652344" x="746.2508544921875" class="er relationshipLabelBox"/><text style="text-anchor: middle; dominant-baseline: middle; font-size: 12px;" y="454.5909118652344" x="746.2508544921875" id="rel10" class="er relationshipLabel"/><rect height="0" width="0" y="442.0628967285156" x="1025.4129638671875" class="er relationshipLabelBox"/><text style="text-anchor: middle; dominant-baseline: middle; font-size: 12px;" y="442.0628967285156" x="1025.4129638671875" id="rel11" class="er relationshipLabel"/><rect height="0" width="0" y="474.70550537109375" x="490.7070007324219" class="er relationshipLabelBox"/><text style="text-anchor: middle; dominant-baseline: middle; font-size: 12px;" y="474.70550537109375" x="490.7070007324219" id="rel12" class="er relationshipLabel"/><rect height="0" width="0" y="583.114990234375" x="913.9705810546875" class="er relationshipLabelBox"/><text style="text-anchor: middle; dominant-baseline: middle; font-size: 12px;" y="583.114990234375" x="913.9705810546875" id="rel13" class="er relationshipLabel"/></svg>