<svg aria-roledescription="er" role="graphics-document document" viewBox="0 -62 362.203125 426.55078125" style="max-width: 362.203px; background-color: white;" xmlns:xlink="http://www.w3.org/1999/xlink" xmlns="http://www.w3.org/2000/svg" width="100%" id="my-svg"><style>#my-svg{font-family:"trebuchet ms",verdana,arial,sans-serif;font-size:16px;fill:#333;}#my-svg .error-icon{fill:#552222;}#my-svg .error-text{fill:#552222;stroke:#552222;}#my-svg .edge-thickness-normal{stroke-width:1px;}#my-svg .edge-thickness-thick{stroke-width:3.5px;}#my-svg .edge-pattern-solid{stroke-dasharray:0;}#my-svg .edge-thickness-invisible{stroke-width:0;fill:none;}#my-svg .edge-pattern-dashed{stroke-dasharray:3;}#my-svg .edge-pattern-dotted{stroke-dasharray:2;}#my-svg .marker{fill:#333333;stroke:#333333;}#my-svg .marker.cross{stroke:#333333;}#my-svg svg{font-family:"trebuchet ms",verdana,arial,sans-serif;font-size:16px;}#my-svg p{margin:0;}#my-svg .entityBox{fill:#ECECFF;stroke:#9370DB;}#my-svg .attributeBoxOdd{fill:#ffffff;stroke:#9370DB;}#my-svg .attributeBoxEven{fill:#f2f2f2;stroke:#9370DB;}#my-svg .relationshipLabelBox{fill:hsl(80, 100%, 96.2745098039%);opacity:0.7;background-color:hsl(80, 100%, 96.2745098039%);}#my-svg .relationshipLabelBox rect{opacity:0.5;}#my-svg .relationshipLine{stroke:#333333;}#my-svg .entityTitleText{text-anchor:middle;font-size:18px;fill:#333;}#my-svg #MD_PARENT_START{fill:#f5f5f5!important;stroke:#333333!important;stroke-width:1;}#my-svg #MD_PARENT_END{fill:#f5f5f5!important;stroke:#333333!important;stroke-width:1;}#my-svg :root{--mermaid-font-family:"trebuchet ms",verdana,arial,sans-serif;}</style><g/><defs><marker orient="auto" markerHeight="240" markerWidth="190" refY="7" refX="0" id="MD_PARENT_START"><path d="M 18,7 L9,13 L1,7 L9,1 Z"/></marker></defs><defs><marker orient="auto" markerHeight="28" markerWidth="20" refY="7" refX="19" id="MD_PARENT_END"><path d="M 18,7 L9,13 L1,7 L9,1 Z"/></marker></defs><defs><marker orient="auto" markerHeight="18" markerWidth="18" refY="9" refX="0" id="ONLY_ONE_START"><path d="M9,0 L9,18 M15,0 L15,18" fill="none" stroke="gray"/></marker></defs><defs><marker orient="auto" markerHeight="18" markerWidth="18" refY="9" refX="18" id="ONLY_ONE_END"><path d="M3,0 L3,18 M9,0 L9,18" fill="none" stroke="gray"/></marker></defs><defs><marker orient="auto" markerHeight="18" markerWidth="30" refY="9" refX="0" id="ZERO_OR_ONE_START"><circle r="6" cy="9" cx="21" fill="white" stroke="gray"/><path d="M9,0 L9,18" fill="none" stroke="gray"/></marker></defs><defs><marker orient="auto" markerHeight="18" markerWidth="30" refY="9" refX="30" id="ZERO_OR_ONE_END"><circle r="6" cy="9" cx="9" fill="white" stroke="gray"/><path d="M21,0 L21,18" fill="none" stroke="gray"/></marker></defs><defs><marker orient="auto" markerHeight="36" markerWidth="45" refY="18" refX="18" id="ONE_OR_MORE_START"><path d="M0,18 Q 18,0 36,18 Q 18,36 0,18 M42,9 L42,27" fill="none" stroke="gray"/></marker></defs><defs><marker orient="auto" markerHeight="36" markerWidth="45" refY="18" refX="27" id="ONE_OR_MORE_END"><path d="M3,9 L3,27 M9,18 Q27,0 45,18 Q27,36 9,18" fill="none" stroke="gray"/></marker></defs><defs><marker orient="auto" markerHeight="36" markerWidth="57" refY="18" refX="18" id="ZERO_OR_MORE_START"><circle r="6" cy="18" cx="48" fill="white" stroke="gray"/><path d="M0,18 Q18,0 36,18 Q18,36 0,18" fill="none" stroke="gray"/></marker></defs><defs><marker orient="auto" markerHeight="36" markerWidth="57" refY="18" refX="39" id="ZERO_OR_MORE_END"><circle r="6" cy="18" cx="9" fill="white" stroke="gray"/><path d="M21,18 Q39,0 57,18 Q39,36 21,18" fill="none" stroke="gray"/></marker></defs><path style="stroke: gray; fill: none;" marker-start="url(#ZERO_OR_ONE_START)" marker-end="url(#ONLY_ONE_END)" d="M79.531,154.367L79.531,162.701C79.531,171.034,79.531,187.701,88.781,204.367C98.031,221.034,116.531,237.701,125.781,246.034L135.031,254.367" class="er relationshipLine"/><path style="stroke: gray; fill: none;" marker-start="url(#ZERO_OR_ONE_START)" marker-end="url(#ONLY_ONE_END)" d="M290.633,143.367L290.633,153.534C290.633,163.701,290.633,184.034,281.383,202.534C272.133,221.034,253.633,237.701,244.383,246.034L235.133,254.367" class="er relationshipLine"/><g transform="translate(20,20 )" id="entity-Films-212e9a26-b0c0-5aeb-bcb1-2efd015ebe7e"><rect height="134.36719131469727" width="119.0625" y="0" x="0" class="er entityBox"/><text style="dominant-baseline: middle; text-anchor: middle; font-size: 12px;" transform="translate(59.53125,12)" y="0" x="0" id="text-entity-Films-212e9a26-b0c0-5aeb-bcb1-2efd015ebe7e" class="er entityLabel">Films</text><rect height="22.091797828674316" width="58.953125" y="24" x="0" class="er attributeBoxOdd"/><text style="dominant-baseline: middle; font-size: 10.2px;" transform="translate(5,35.04589891433716)" y="0" x="0" id="text-entity-Films-212e9a26-b0c0-5aeb-bcb1-2efd015ebe7e-attr-1-type" class="er entityLabel">id</text><rect height="22.091797828674316" width="60.109375" y="24" x="58.953125" class="er attributeBoxOdd"/><text style="dominant-baseline: middle; font-size: 10.2px;" transform="translate(63.953125,35.04589891433716)" y="0" x="0" id="text-entity-Films-212e9a26-b0c0-5aeb-bcb1-2efd015ebe7e-attr-1-name" class="er entityLabel">ForeingKey</text><rect height="22.091797828674316" width="58.953125" y="46.091797828674316" x="0" class="er attributeBoxEven"/><text style="dominant-baseline: middle; font-size: 10.2px;" transform="translate(5,57.137696743011475)" y="0" x="0" id="text-entity-Films-212e9a26-b0c0-5aeb-bcb1-2efd015ebe7e-attr-2-type" class="er entityLabel">title</text><rect height="22.091797828674316" width="60.109375" y="46.091797828674316" x="58.953125" class="er attributeBoxEven"/><text style="dominant-baseline: middle; font-size: 10.2px;" transform="translate(63.953125,57.137696743011475)" y="0" x="0" id="text-entity-Films-212e9a26-b0c0-5aeb-bcb1-2efd015ebe7e-attr-2-name" class="er entityLabel">string</text><rect height="22.091797828674316" width="58.953125" y="68.18359565734863" x="0" class="er attributeBoxOdd"/><text style="dominant-baseline: middle; font-size: 10.2px;" transform="translate(5,79.22949457168579)" y="0" x="0" id="text-entity-Films-212e9a26-b0c0-5aeb-bcb1-2efd015ebe7e-attr-3-type" class="er entityLabel">name</text><rect height="22.091797828674316" width="60.109375" y="68.18359565734863" x="58.953125" class="er attributeBoxOdd"/><text style="dominant-baseline: middle; font-size: 10.2px;" transform="translate(63.953125,79.22949457168579)" y="0" x="0" id="text-entity-Films-212e9a26-b0c0-5aeb-bcb1-2efd015ebe7e-attr-3-name" class="er entityLabel">string</text><rect height="22.091797828674316" width="58.953125" y="90.27539348602295" x="0" class="er attributeBoxEven"/><text style="dominant-baseline: middle; font-size: 10.2px;" transform="translate(5,101.32129240036011)" y="0" x="0" id="text-entity-Films-212e9a26-b0c0-5aeb-bcb1-2efd015ebe7e-attr-4-type" class="er entityLabel">episode_id</text><rect height="22.091797828674316" width="60.109375" y="90.27539348602295" x="58.953125" class="er attributeBoxEven"/><text style="dominant-baseline: middle; font-size: 10.2px;" transform="translate(63.953125,101.32129240036011)" y="0" x="0" id="text-entity-Films-212e9a26-b0c0-5aeb-bcb1-2efd015ebe7e-attr-4-name" class="er entityLabel">number</text><rect height="22" width="58.953125" y="112.36719131469727" x="0" class="er attributeBoxOdd"/><text style="dominant-baseline: middle; font-size: 10.2px;" transform="translate(5,123.36719131469727)" y="0" x="0" id="text-entity-Films-212e9a26-b0c0-5aeb-bcb1-2efd015ebe7e-attr-5-type" class="er entityLabel">characters</text><rect height="22" width="60.109375" y="112.36719131469727" x="58.953125" class="er attributeBoxOdd"/><text style="dominant-baseline: middle; font-size: 10.2px;" transform="translate(63.953125,123.36719131469727)" y="0" x="0" id="text-entity-Films-212e9a26-b0c0-5aeb-bcb1-2efd015ebe7e-attr-5-name" class="er entityLabel">boolean</text></g><g transform="translate(101.58984375,254.3671875 )" id="entity-PeopleInFilms-b91ad11d-1935-5cc8-b370-353735ed58bb"><rect height="90.18359470367432" width="166.984375" y="0" x="0" class="er entityBox"/><text style="dominant-baseline: middle; text-anchor: middle; font-size: 12px;" transform="translate(83.4921875,12)" y="0" x="0" id="text-entity-PeopleInFilms-b91ad11d-1935-5cc8-b370-353735ed58bb" class="er entityLabel">PeopleInFilms</text><rect height="22.091797828674316" width="54.921875" y="24" x="0" class="er attributeBoxOdd"/><text style="dominant-baseline: middle; font-size: 10.2px;" transform="translate(5,35.04589891433716)" y="0" x="0" id="text-entity-PeopleInFilms-b91ad11d-1935-5cc8-b370-353735ed58bb-attr-1-type" class="er entityLabel">id</text><rect height="22.091797828674316" width="112.0625" y="24" x="54.921875" class="er attributeBoxOdd"/><text style="dominant-baseline: middle; font-size: 10.2px;" transform="translate(59.921875,35.04589891433716)" y="0" x="0" id="text-entity-PeopleInFilms-b91ad11d-1935-5cc8-b370-353735ed58bb-attr-1-name" class="er entityLabel">ForeingKey-Generated</text><rect height="22" width="54.921875" y="46.091797828674316" x="0" class="er attributeBoxEven"/><text style="dominant-baseline: middle; font-size: 10.2px;" transform="translate(5,57.091797828674316)" y="0" x="0" id="text-entity-PeopleInFilms-b91ad11d-1935-5cc8-b370-353735ed58bb-attr-2-type" class="er entityLabel">film_id</text><rect height="22" width="112.0625" y="46.091797828674316" x="54.921875" class="er attributeBoxEven"/><text style="dominant-baseline: middle; font-size: 10.2px;" transform="translate(59.921875,57.091797828674316)" y="0" x="0" id="text-entity-PeopleInFilms-b91ad11d-1935-5cc8-b370-353735ed58bb-attr-2-name" class="er entityLabel">number</text><rect height="22.091796875" width="54.921875" y="68.09179782867432" x="0" class="er attributeBoxOdd"/><text style="dominant-baseline: middle; font-size: 10.2px;" transform="translate(5,79.13769626617432)" y="0" x="0" id="text-entity-PeopleInFilms-b91ad11d-1935-5cc8-b370-353735ed58bb-attr-3-type" class="er entityLabel">people_id</text><rect height="22.091796875" width="112.0625" y="68.09179782867432" x="54.921875" class="er attributeBoxOdd"/><text style="dominant-baseline: middle; font-size: 10.2px;" transform="translate(59.921875,79.13769626617432)" y="0" x="0" id="text-entity-PeopleInFilms-b91ad11d-1935-5cc8-b370-353735ed58bb-attr-3-name" class="er entityLabel">number</text></g><g transform="translate(239.0625,31 )" id="entity-People-f7bbcb1a-6666-552e-8a0b-9bd2c8638418"><rect height="112.36719131469727" width="103.140625" y="0" x="0" class="er entityBox"/><text style="dominant-baseline: middle; text-anchor: middle; font-size: 12px;" transform="translate(51.5703125,12)" y="0" x="0" id="text-entity-People-f7bbcb1a-6666-552e-8a0b-9bd2c8638418" class="er entityLabel">People</text><rect height="22.091797828674316" width="43.03125" y="24" x="0" class="er attributeBoxOdd"/><text style="dominant-baseline: middle; font-size: 10.2px;" transform="translate(5,35.04589891433716)" y="0" x="0" id="text-entity-People-f7bbcb1a-6666-552e-8a0b-9bd2c8638418-attr-1-type" class="er entityLabel">id</text><rect height="22.091797828674316" width="60.109375" y="24" x="43.03125" class="er attributeBoxOdd"/><text style="dominant-baseline: middle; font-size: 10.2px;" transform="translate(48.03125,35.04589891433716)" y="0" x="0" id="text-entity-People-f7bbcb1a-6666-552e-8a0b-9bd2c8638418-attr-1-name" class="er entityLabel">ForeingKey</text><rect height="22.091797828674316" width="43.03125" y="46.091797828674316" x="0" class="er attributeBoxEven"/><text style="dominant-baseline: middle; font-size: 10.2px;" transform="translate(5,57.137696743011475)" y="0" x="0" id="text-entity-People-f7bbcb1a-6666-552e-8a0b-9bd2c8638418-attr-2-type" class="er entityLabel">name</text><rect height="22.091797828674316" width="60.109375" y="46.091797828674316" x="43.03125" class="er attributeBoxEven"/><text style="dominant-baseline: middle; font-size: 10.2px;" transform="translate(48.03125,57.137696743011475)" y="0" x="0" id="text-entity-People-f7bbcb1a-6666-552e-8a0b-9bd2c8638418-attr-2-name" class="er entityLabel">string</text><rect height="22.091797828674316" width="43.03125" y="68.18359565734863" x="0" class="er attributeBoxOdd"/><text style="dominant-baseline: middle; font-size: 10.2px;" transform="translate(5,79.22949457168579)" y="0" x="0" id="text-entity-People-f7bbcb1a-6666-552e-8a0b-9bd2c8638418-attr-3-type" class="er entityLabel">gender</text><rect height="22.091797828674316" width="60.109375" y="68.18359565734863" x="43.03125" class="er attributeBoxOdd"/><text style="dominant-baseline: middle; font-size: 10.2px;" transform="translate(48.03125,79.22949457168579)" y="0" x="0" id="text-entity-People-f7bbcb1a-6666-552e-8a0b-9bd2c8638418-attr-3-name" class="er entityLabel">string</text><rect height="22.091797828674316" width="43.03125" y="90.27539348602295" x="0" class="er attributeBoxEven"/><text style="dominant-baseline: middle; font-size: 10.2px;" transform="translate(5,101.32129240036011)" y="0" x="0" id="text-entity-People-f7bbcb1a-6666-552e-8a0b-9bd2c8638418-attr-4-type" class="er entityLabel">species</text><rect height="22.091797828674316" width="60.109375" y="90.27539348602295" x="43.03125" class="er attributeBoxEven"/><text style="dominant-baseline: middle; font-size: 10.2px;" transform="translate(48.03125,101.32129240036011)" y="0" x="0" id="text-entity-People-f7bbcb1a-6666-552e-8a0b-9bd2c8638418-attr-4-name" class="er entityLabel">string</text></g><rect height="14" width="37.765625" y="204.5138702392578" x="74.39484405517578" class="er relationshipLabelBox"/><text style="text-anchor: middle; dominant-baseline: middle; font-size: 12px;" y="211.5138702392578" x="93.27765655517578" id="rel1" class="er relationshipLabel">film_id</text><rect height="14" width="52.84375" y="199.6580047607422" x="252.73397827148438" class="er relationshipLabelBox"/><text style="text-anchor: middle; dominant-baseline: middle; font-size: 12px;" y="206.6580047607422" x="279.1558532714844" id="rel2" class="er relationshipLabel">people_id</text><text class="entityTitleText" y="-25" x="181.1015625" text-anchor="middle">Diagrama de modelos</text></svg>