<svg aria-roledescription="er" role="graphics-document document" viewBox="0 0 151.515625 510.826171875" style="max-width: 151.516px; background-color: white;" xmlns:xlink="http://www.w3.org/1999/xlink" xmlns="http://www.w3.org/2000/svg" width="100%" id="my-svg"><style>#my-svg{font-family:"trebuchet ms",verdana,arial,sans-serif;font-size:16px;fill:#333;}#my-svg .error-icon{fill:#552222;}#my-svg .error-text{fill:#552222;stroke:#552222;}#my-svg .edge-thickness-normal{stroke-width:1px;}#my-svg .edge-thickness-thick{stroke-width:3.5px;}#my-svg .edge-pattern-solid{stroke-dasharray:0;}#my-svg .edge-thickness-invisible{stroke-width:0;fill:none;}#my-svg .edge-pattern-dashed{stroke-dasharray:3;}#my-svg .edge-pattern-dotted{stroke-dasharray:2;}#my-svg .marker{fill:#333333;stroke:#333333;}#my-svg .marker.cross{stroke:#333333;}#my-svg svg{font-family:"trebuchet ms",verdana,arial,sans-serif;font-size:16px;}#my-svg p{margin:0;}#my-svg .entityBox{fill:#ECECFF;stroke:#9370DB;}#my-svg .attributeBoxOdd{fill:#ffffff;stroke:#9370DB;}#my-svg .attributeBoxEven{fill:#f2f2f2;stroke:#9370DB;}#my-svg .relationshipLabelBox{fill:hsl(80, 100%, 96.2745098039%);opacity:0.7;background-color:hsl(80, 100%, 96.2745098039%);}#my-svg .relationshipLabelBox rect{opacity:0.5;}#my-svg .relationshipLine{stroke:#333333;}#my-svg .entityTitleText{text-anchor:middle;font-size:18px;fill:#333;}#my-svg #MD_PARENT_START{fill:#f5f5f5!important;stroke:#333333!important;stroke-width:1;}#my-svg #MD_PARENT_END{fill:#f5f5f5!important;stroke:#333333!important;stroke-width:1;}#my-svg :root{--mermaid-font-family:"trebuchet ms",verdana,arial,sans-serif;}</style><g/><defs><marker orient="auto" markerHeight="240" markerWidth="190" refY="7" refX="0" id="MD_PARENT_START"><path d="M 18,7 L9,13 L1,7 L9,1 Z"/></marker></defs><defs><marker orient="auto" markerHeight="28" markerWidth="20" refY="7" refX="19" id="MD_PARENT_END"><path d="M 18,7 L9,13 L1,7 L9,1 Z"/></marker></defs><defs><marker orient="auto" markerHeight="18" markerWidth="18" refY="9" refX="0" id="ONLY_ONE_START"><path d="M9,0 L9,18 M15,0 L15,18" fill="none" stroke="gray"/></marker></defs><defs><marker orient="auto" markerHeight="18" markerWidth="18" refY="9" refX="18" id="ONLY_ONE_END"><path d="M3,0 L3,18 M9,0 L9,18" fill="none" stroke="gray"/></marker></defs><defs><marker orient="auto" markerHeight="18" markerWidth="30" refY="9" refX="0" id="ZERO_OR_ONE_START"><circle r="6" cy="9" cx="21" fill="white" stroke="gray"/><path d="M9,0 L9,18" fill="none" stroke="gray"/></marker></defs><defs><marker orient="auto" markerHeight="18" markerWidth="30" refY="9" refX="30" id="ZERO_OR_ONE_END"><circle r="6" cy="9" cx="9" fill="white" stroke="gray"/><path d="M21,0 L21,18" fill="none" stroke="gray"/></marker></defs><defs><marker orient="auto" markerHeight="36" markerWidth="45" refY="18" refX="18" id="ONE_OR_MORE_START"><path d="M0,18 Q 18,0 36,18 Q 18,36 0,18 M42,9 L42,27" fill="none" stroke="gray"/></marker></defs><defs><marker orient="auto" markerHeight="36" markerWidth="45" refY="18" refX="27" id="ONE_OR_MORE_END"><path d="M3,9 L3,27 M9,18 Q27,0 45,18 Q27,36 9,18" fill="none" stroke="gray"/></marker></defs><defs><marker orient="auto" markerHeight="36" markerWidth="57" refY="18" refX="18" id="ZERO_OR_MORE_START"><circle r="6" cy="18" cx="48" fill="white" stroke="gray"/><path d="M0,18 Q18,0 36,18 Q18,36 0,18" fill="none" stroke="gray"/></marker></defs><defs><marker orient="auto" markerHeight="36" markerWidth="57" refY="18" refX="39" id="ZERO_OR_MORE_END"><circle r="6" cy="18" cx="9" fill="white" stroke="gray"/><path d="M21,18 Q39,0 57,18 Q39,36 21,18" fill="none" stroke="gray"/></marker></defs><path style="stroke: gray; fill: none;" marker-start="url(#ONLY_ONE_START)" marker-end="url(#ZERO_OR_MORE_END)" d="M75.758,110.275L75.758,118.609C75.758,126.942,75.758,143.609,75.758,160.275C75.758,176.942,75.758,193.609,75.758,201.942L75.758,210.275" class="er relationshipLine"/><path style="stroke: gray; fill: none;" marker-start="url(#ONLY_ONE_START)" marker-end="url(#ONE_OR_MORE_END)" d="M75.758,278.459L75.758,286.792C75.758,295.126,75.758,311.792,75.758,328.459C75.758,345.126,75.758,361.792,75.758,370.126L75.758,378.459" class="er relationshipLine"/><g transform="translate(20,20 )" id="entity-USER-6e7e2962-0c6f-577d-a7fd-2ce3a0cfd2c8"><rect height="90.27539348602295" width="111.515625" y="0" x="0" class="er entityBox"/><text style="dominant-baseline: middle; text-anchor: middle; font-size: 12px;" transform="translate(55.7578125,12)" y="0" x="0" id="text-entity-USER-6e7e2962-0c6f-577d-a7fd-2ce3a0cfd2c8" class="er entityLabel">USER</text><rect height="22.091797828674316" width="35.75" y="24" x="0" class="er attributeBoxOdd"/><text style="dominant-baseline: middle; font-size: 10.2px;" transform="translate(5,35.04589891433716)" y="0" x="0" id="text-entity-USER-6e7e2962-0c6f-577d-a7fd-2ce3a0cfd2c8-attr-1-type" class="er entityLabel">string</text><rect height="22.091797828674316" width="54.203125" y="24" x="35.75" class="er attributeBoxOdd"/><text style="dominant-baseline: middle; font-size: 10.2px;" transform="translate(40.75,35.04589891433716)" y="0" x="0" id="text-entity-USER-6e7e2962-0c6f-577d-a7fd-2ce3a0cfd2c8-attr-1-name" class="er entityLabel">userId</text><rect height="22.091797828674316" width="21.5625" y="24" x="89.953125" class="er attributeBoxOdd"/><text style="dominant-baseline: middle; font-size: 10.2px;" transform="translate(94.953125,35.04589891433716)" y="0" x="0" id="text-entity-USER-6e7e2962-0c6f-577d-a7fd-2ce3a0cfd2c8-attr-1-key" class="er entityLabel">PK</text><rect height="22.091797828674316" width="35.75" y="46.091797828674316" x="0" class="er attributeBoxEven"/><text style="dominant-baseline: middle; font-size: 10.2px;" transform="translate(5,57.137696743011475)" y="0" x="0" id="text-entity-USER-6e7e2962-0c6f-577d-a7fd-2ce3a0cfd2c8-attr-2-type" class="er entityLabel">string</text><rect height="22.091797828674316" width="54.203125" y="46.091797828674316" x="35.75" class="er attributeBoxEven"/><text style="dominant-baseline: middle; font-size: 10.2px;" transform="translate(40.75,57.137696743011475)" y="0" x="0" id="text-entity-USER-6e7e2962-0c6f-577d-a7fd-2ce3a0cfd2c8-attr-2-name" class="er entityLabel">username</text><rect height="22.091797828674316" width="21.5625" y="46.091797828674316" x="89.953125" class="er attributeBoxEven"/><text style="dominant-baseline: middle; font-size: 10.2px;" transform="translate(94.953125,57.137696743011475)" y="0" x="0" id="text-entity-USER-6e7e2962-0c6f-577d-a7fd-2ce3a0cfd2c8-attr-2-key" class="er entityLabel"/><rect height="22.091797828674316" width="35.75" y="68.18359565734863" x="0" class="er attributeBoxOdd"/><text style="dominant-baseline: middle; font-size: 10.2px;" transform="translate(5,79.22949457168579)" y="0" x="0" id="text-entity-USER-6e7e2962-0c6f-577d-a7fd-2ce3a0cfd2c8-attr-3-type" class="er entityLabel">string</text><rect height="22.091797828674316" width="54.203125" y="68.18359565734863" x="35.75" class="er attributeBoxOdd"/><text style="dominant-baseline: middle; font-size: 10.2px;" transform="translate(40.75,79.22949457168579)" y="0" x="0" id="text-entity-USER-6e7e2962-0c6f-577d-a7fd-2ce3a0cfd2c8-attr-3-name" class="er entityLabel">email</text><rect height="22.091797828674316" width="21.5625" y="68.18359565734863" x="89.953125" class="er attributeBoxOdd"/><text style="dominant-baseline: middle; font-size: 10.2px;" transform="translate(94.953125,79.22949457168579)" y="0" x="0" id="text-entity-USER-6e7e2962-0c6f-577d-a7fd-2ce3a0cfd2c8-attr-3-key" class="er entityLabel"/></g><g transform="translate(21.25,210.275390625 )" id="entity-PLAYLIST-6a2442d5-9689-586e-847c-248de2b9f89e"><rect height="68.18359470367432" width="109.015625" y="0" x="0" class="er entityBox"/><text style="dominant-baseline: middle; text-anchor: middle; font-size: 12px;" transform="translate(54.5078125,12)" y="0" x="0" id="text-entity-PLAYLIST-6a2442d5-9689-586e-847c-248de2b9f89e" class="er entityLabel">PLAYLIST</text><rect height="22.091796875" width="35.75" y="24" x="0" class="er attributeBoxOdd"/><text style="dominant-baseline: middle; font-size: 10.2px;" transform="translate(5,35.0458984375)" y="0" x="0" id="text-entity-PLAYLIST-6a2442d5-9689-586e-847c-248de2b9f89e-attr-1-type" class="er entityLabel">int</text><rect height="22.091796875" width="51.703125" y="24" x="35.75" class="er attributeBoxOdd"/><text style="dominant-baseline: middle; font-size: 10.2px;" transform="translate(40.75,35.0458984375)" y="0" x="0" id="text-entity-PLAYLIST-6a2442d5-9689-586e-847c-248de2b9f89e-attr-1-name" class="er entityLabel">playlistId</text><rect height="22.091796875" width="21.5625" y="24" x="87.453125" class="er attributeBoxOdd"/><text style="dominant-baseline: middle; font-size: 10.2px;" transform="translate(92.453125,35.0458984375)" y="0" x="0" id="text-entity-PLAYLIST-6a2442d5-9689-586e-847c-248de2b9f89e-attr-1-key" class="er entityLabel">PK</text><rect height="22.091797828674316" width="35.75" y="46.091796875" x="0" class="er attributeBoxEven"/><text style="dominant-baseline: middle; font-size: 10.2px;" transform="translate(5,57.13769578933716)" y="0" x="0" id="text-entity-PLAYLIST-6a2442d5-9689-586e-847c-248de2b9f89e-attr-2-type" class="er entityLabel">string</text><rect height="22.091797828674316" width="51.703125" y="46.091796875" x="35.75" class="er attributeBoxEven"/><text style="dominant-baseline: middle; font-size: 10.2px;" transform="translate(40.75,57.13769578933716)" y="0" x="0" id="text-entity-PLAYLIST-6a2442d5-9689-586e-847c-248de2b9f89e-attr-2-name" class="er entityLabel">title</text><rect height="22.091797828674316" width="21.5625" y="46.091796875" x="87.453125" class="er attributeBoxEven"/><text style="dominant-baseline: middle; font-size: 10.2px;" transform="translate(92.453125,57.13769578933716)" y="0" x="0" id="text-entity-PLAYLIST-6a2442d5-9689-586e-847c-248de2b9f89e-attr-2-key" class="er entityLabel"/></g><g transform="translate(25.7578125,378.458984375 )" id="entity-SONG-a5e918bd-15d4-5d06-9b5a-2d2fe78c74ff"><rect height="112.36719131469727" width="100" y="0" x="0" class="er entityBox"/><text style="dominant-baseline: middle; text-anchor: middle; font-size: 12px;" transform="translate(50,12)" y="0" x="0" id="text-entity-SONG-a5e918bd-15d4-5d06-9b5a-2d2fe78c74ff" class="er entityLabel">SONG</text><rect height="22.091797828674316" width="37.036458333333336" y="24" x="0" class="er attributeBoxOdd"/><text style="dominant-baseline: middle; font-size: 10.2px;" transform="translate(5,35.04589891433716)" y="0" x="0" id="text-entity-SONG-a5e918bd-15d4-5d06-9b5a-2d2fe78c74ff-attr-1-type" class="er entityLabel">string</text><rect height="22.091797828674316" width="40.114583333333336" y="24" x="37.036458333333336" class="er attributeBoxOdd"/><text style="dominant-baseline: middle; font-size: 10.2px;" transform="translate(42.036458333333336,35.04589891433716)" y="0" x="0" id="text-entity-SONG-a5e918bd-15d4-5d06-9b5a-2d2fe78c74ff-attr-1-name" class="er entityLabel">songId</text><rect height="22.091797828674316" width="22.848958333333332" y="24" x="77.15104166666667" class="er attributeBoxOdd"/><text style="dominant-baseline: middle; font-size: 10.2px;" transform="translate(82.15104166666667,35.04589891433716)" y="0" x="0" id="text-entity-SONG-a5e918bd-15d4-5d06-9b5a-2d2fe78c74ff-attr-1-key" class="er entityLabel">PK</text><rect height="22.091797828674316" width="37.036458333333336" y="46.091797828674316" x="0" class="er attributeBoxEven"/><text style="dominant-baseline: middle; font-size: 10.2px;" transform="translate(5,57.137696743011475)" y="0" x="0" id="text-entity-SONG-a5e918bd-15d4-5d06-9b5a-2d2fe78c74ff-attr-2-type" class="er entityLabel">string</text><rect height="22.091797828674316" width="40.114583333333336" y="46.091797828674316" x="37.036458333333336" class="er attributeBoxEven"/><text style="dominant-baseline: middle; font-size: 10.2px;" transform="translate(42.036458333333336,57.137696743011475)" y="0" x="0" id="text-entity-SONG-a5e918bd-15d4-5d06-9b5a-2d2fe78c74ff-attr-2-name" class="er entityLabel">title</text><rect height="22.091797828674316" width="22.848958333333332" y="46.091797828674316" x="77.15104166666667" class="er attributeBoxEven"/><text style="dominant-baseline: middle; font-size: 10.2px;" transform="translate(82.15104166666667,57.137696743011475)" y="0" x="0" id="text-entity-SONG-a5e918bd-15d4-5d06-9b5a-2d2fe78c74ff-attr-2-key" class="er entityLabel"/><rect height="22.091797828674316" width="37.036458333333336" y="68.18359565734863" x="0" class="er attributeBoxOdd"/><text style="dominant-baseline: middle; font-size: 10.2px;" transform="translate(5,79.22949457168579)" y="0" x="0" id="text-entity-SONG-a5e918bd-15d4-5d06-9b5a-2d2fe78c74ff-attr-3-type" class="er entityLabel">string</text><rect height="22.091797828674316" width="40.114583333333336" y="68.18359565734863" x="37.036458333333336" class="er attributeBoxOdd"/><text style="dominant-baseline: middle; font-size: 10.2px;" transform="translate(42.036458333333336,79.22949457168579)" y="0" x="0" id="text-entity-SONG-a5e918bd-15d4-5d06-9b5a-2d2fe78c74ff-attr-3-name" class="er entityLabel">artist</text><rect height="22.091797828674316" width="22.848958333333332" y="68.18359565734863" x="77.15104166666667" class="er attributeBoxOdd"/><text style="dominant-baseline: middle; font-size: 10.2px;" transform="translate(82.15104166666667,79.22949457168579)" y="0" x="0" id="text-entity-SONG-a5e918bd-15d4-5d06-9b5a-2d2fe78c74ff-attr-3-key" class="er entityLabel"/><rect height="22.091797828674316" width="37.036458333333336" y="90.27539348602295" x="0" class="er attributeBoxEven"/><text style="dominant-baseline: middle; font-size: 10.2px;" transform="translate(5,101.32129240036011)" y="0" x="0" id="text-entity-SONG-a5e918bd-15d4-5d06-9b5a-2d2fe78c74ff-attr-4-type" class="er entityLabel">string</text><rect height="22.091797828674316" width="40.114583333333336" y="90.27539348602295" x="37.036458333333336" class="er attributeBoxEven"/><text style="dominant-baseline: middle; font-size: 10.2px;" transform="translate(42.036458333333336,101.32129240036011)" y="0" x="0" id="text-entity-SONG-a5e918bd-15d4-5d06-9b5a-2d2fe78c74ff-attr-4-name" class="er entityLabel">genre</text><rect height="22.091797828674316" width="22.848958333333332" y="90.27539348602295" x="77.15104166666667" class="er attributeBoxEven"/><text style="dominant-baseline: middle; font-size: 10.2px;" transform="translate(82.15104166666667,101.32129240036011)" y="0" x="0" id="text-entity-SONG-a5e918bd-15d4-5d06-9b5a-2d2fe78c74ff-attr-4-key" class="er entityLabel"/></g><rect height="14" width="39.625" y="153.27499389648438" x="55.94550323486328" class="er relationshipLabelBox"/><text style="text-anchor: middle; dominant-baseline: middle; font-size: 12px;" y="160.27499389648438" x="75.75800323486328" id="rel1" class="er relationshipLabel">creates</text><rect height="14" width="44.84375" y="321.4590148925781" x="53.33612823486328" class="er relationshipLabelBox"/><text style="text-anchor: middle; dominant-baseline: middle; font-size: 12px;" y="328.4590148925781" x="75.75800323486328" id="rel2" class="er relationshipLabel">contains</text></svg>