<svg aria-roledescription="er" role="graphics-document document" viewBox="0 0 581.328125 518.642578125" style="max-width: 581.328px; background-color: white;" xmlns:xlink="http://www.w3.org/1999/xlink" xmlns="http://www.w3.org/2000/svg" width="100%" id="my-svg"><style>#my-svg{font-family:"trebuchet ms",verdana,arial,sans-serif;font-size:16px;fill:#333;}#my-svg .error-icon{fill:#552222;}#my-svg .error-text{fill:#552222;stroke:#552222;}#my-svg .edge-thickness-normal{stroke-width:1px;}#my-svg .edge-thickness-thick{stroke-width:3.5px;}#my-svg .edge-pattern-solid{stroke-dasharray:0;}#my-svg .edge-thickness-invisible{stroke-width:0;fill:none;}#my-svg .edge-pattern-dashed{stroke-dasharray:3;}#my-svg .edge-pattern-dotted{stroke-dasharray:2;}#my-svg .marker{fill:#333333;stroke:#333333;}#my-svg .marker.cross{stroke:#333333;}#my-svg svg{font-family:"trebuchet ms",verdana,arial,sans-serif;font-size:16px;}#my-svg p{margin:0;}#my-svg .entityBox{fill:#ECECFF;stroke:#9370DB;}#my-svg .attributeBoxOdd{fill:#ffffff;stroke:#9370DB;}#my-svg .attributeBoxEven{fill:#f2f2f2;stroke:#9370DB;}#my-svg .relationshipLabelBox{fill:hsl(80, 100%, 96.2745098039%);opacity:0.7;background-color:hsl(80, 100%, 96.2745098039%);}#my-svg .relationshipLabelBox rect{opacity:0.5;}#my-svg .relationshipLine{stroke:#333333;}#my-svg .entityTitleText{text-anchor:middle;font-size:18px;fill:#333;}#my-svg #MD_PARENT_START{fill:#f5f5f5!important;stroke:#333333!important;stroke-width:1;}#my-svg #MD_PARENT_END{fill:#f5f5f5!important;stroke:#333333!important;stroke-width:1;}#my-svg :root{--mermaid-font-family:"trebuchet ms",verdana,arial,sans-serif;}</style><g/><defs><marker orient="auto" markerHeight="240" markerWidth="190" refY="7" refX="0" id="MD_PARENT_START"><path d="M 18,7 L9,13 L1,7 L9,1 Z"/></marker></defs><defs><marker orient="auto" markerHeight="28" markerWidth="20" refY="7" refX="19" id="MD_PARENT_END"><path d="M 18,7 L9,13 L1,7 L9,1 Z"/></marker></defs><defs><marker orient="auto" markerHeight="18" markerWidth="18" refY="9" refX="0" id="ONLY_ONE_START"><path d="M9,0 L9,18 M15,0 L15,18" fill="none" stroke="gray"/></marker></defs><defs><marker orient="auto" markerHeight="18" markerWidth="18" refY="9" refX="18" id="ONLY_ONE_END"><path d="M3,0 L3,18 M9,0 L9,18" fill="none" stroke="gray"/></marker></defs><defs><marker orient="auto" markerHeight="18" markerWidth="30" refY="9" refX="0" id="ZERO_OR_ONE_START"><circle r="6" cy="9" cx="21" fill="white" stroke="gray"/><path d="M9,0 L9,18" fill="none" stroke="gray"/></marker></defs><defs><marker orient="auto" markerHeight="18" markerWidth="30" refY="9" refX="30" id="ZERO_OR_ONE_END"><circle r="6" cy="9" cx="9" fill="white" stroke="gray"/><path d="M21,0 L21,18" fill="none" stroke="gray"/></marker></defs><defs><marker orient="auto" markerHeight="36" markerWidth="45" refY="18" refX="18" id="ONE_OR_MORE_START"><path d="M0,18 Q 18,0 36,18 Q 18,36 0,18 M42,9 L42,27" fill="none" stroke="gray"/></marker></defs><defs><marker orient="auto" markerHeight="36" markerWidth="45" refY="18" refX="27" id="ONE_OR_MORE_END"><path d="M3,9 L3,27 M9,18 Q27,0 45,18 Q27,36 9,18" fill="none" stroke="gray"/></marker></defs><defs><marker orient="auto" markerHeight="36" markerWidth="57" refY="18" refX="18" id="ZERO_OR_MORE_START"><circle r="6" cy="18" cx="48" fill="white" stroke="gray"/><path d="M0,18 Q18,0 36,18 Q18,36 0,18" fill="none" stroke="gray"/></marker></defs><defs><marker orient="auto" markerHeight="36" markerWidth="57" refY="18" refX="39" id="ZERO_OR_MORE_END"><circle r="6" cy="18" cx="9" fill="white" stroke="gray"/><path d="M21,18 Q39,0 57,18 Q39,36 21,18" fill="none" stroke="gray"/></marker></defs><path style="stroke: gray; fill: none;" marker-start="url(#ONLY_ONE_START)" marker-end="url(#ZERO_OR_MORE_END)" d="M79.586,264.551L79.586,272.884C79.586,281.217,79.586,297.884,105.391,320.584C131.195,343.285,182.805,372.019,208.609,386.386L234.414,400.753" class="er relationshipLine"/><path style="stroke: gray; fill: none;" marker-start="url(#ONLY_ONE_START)" marker-end="url(#ZERO_OR_MORE_END)" d="M289.813,176.321L289.813,199.36C289.813,222.398,289.813,268.474,289.813,299.846C289.813,331.217,289.813,347.884,289.813,356.217L289.813,364.551" class="er relationshipLine"/><path style="stroke: gray; fill: none;" marker-start="url(#ONLY_ONE_START)" marker-end="url(#ZERO_OR_MORE_END)" d="M500.891,187.321L500.891,208.526C500.891,229.731,500.891,272.141,474.944,307.734C448.997,343.326,397.104,372.102,371.158,386.49L345.211,400.877" class="er relationshipLine"/><g transform="translate(20,20 )" id="entity-MyDimDate-74336db3-7b17-58bb-a764-56aa6c2c74b3"><rect height="244.55078125" width="119.171875" y="0" x="0" class="er entityBox"/><text style="dominant-baseline: middle; text-anchor: middle; font-size: 12px;" transform="translate(59.5859375,12)" y="0" x="0" id="text-entity-MyDimDate-74336db3-7b17-58bb-a764-56aa6c2c74b3" class="er entityLabel">MyDimDate</text><rect height="22" width="74.90625" y="24" x="0" class="er attributeBoxOdd"/><text style="dominant-baseline: middle; font-size: 10.2px;" transform="translate(5,35)" y="0" x="0" id="text-entity-MyDimDate-74336db3-7b17-58bb-a764-56aa6c2c74b3-attr-1-type" class="er entityLabel">dateid</text><rect height="22" width="44.265625" y="24" x="74.90625" class="er attributeBoxOdd"/><text style="dominant-baseline: middle; font-size: 10.2px;" transform="translate(79.90625,35)" y="0" x="0" id="text-entity-MyDimDate-74336db3-7b17-58bb-a764-56aa6c2c74b3-attr-1-name" class="er entityLabel">int</text><rect height="22" width="74.90625" y="46" x="0" class="er attributeBoxEven"/><text style="dominant-baseline: middle; font-size: 10.2px;" transform="translate(5,57)" y="0" x="0" id="text-entity-MyDimDate-74336db3-7b17-58bb-a764-56aa6c2c74b3-attr-2-type" class="er entityLabel">date</text><rect height="22" width="44.265625" y="46" x="74.90625" class="er attributeBoxEven"/><text style="dominant-baseline: middle; font-size: 10.2px;" transform="translate(79.90625,57)" y="0" x="0" id="text-entity-MyDimDate-74336db3-7b17-58bb-a764-56aa6c2c74b3-attr-2-name" class="er entityLabel">date</text><rect height="22" width="74.90625" y="68" x="0" class="er attributeBoxOdd"/><text style="dominant-baseline: middle; font-size: 10.2px;" transform="translate(5,79)" y="0" x="0" id="text-entity-MyDimDate-74336db3-7b17-58bb-a764-56aa6c2c74b3-attr-3-type" class="er entityLabel">month</text><rect height="22" width="44.265625" y="68" x="74.90625" class="er attributeBoxOdd"/><text style="dominant-baseline: middle; font-size: 10.2px;" transform="translate(79.90625,79)" y="0" x="0" id="text-entity-MyDimDate-74336db3-7b17-58bb-a764-56aa6c2c74b3-attr-3-name" class="er entityLabel">int</text><rect height="22" width="74.90625" y="90" x="0" class="er attributeBoxEven"/><text style="dominant-baseline: middle; font-size: 10.2px;" transform="translate(5,101)" y="0" x="0" id="text-entity-MyDimDate-74336db3-7b17-58bb-a764-56aa6c2c74b3-attr-4-type" class="er entityLabel">monthname</text><rect height="22" width="44.265625" y="90" x="74.90625" class="er attributeBoxEven"/><text style="dominant-baseline: middle; font-size: 10.2px;" transform="translate(79.90625,101)" y="0" x="0" id="text-entity-MyDimDate-74336db3-7b17-58bb-a764-56aa6c2c74b3-attr-4-name" class="er entityLabel">varchar</text><rect height="22.091796875" width="74.90625" y="112" x="0" class="er attributeBoxOdd"/><text style="dominant-baseline: middle; font-size: 10.2px;" transform="translate(5,123.0458984375)" y="0" x="0" id="text-entity-MyDimDate-74336db3-7b17-58bb-a764-56aa6c2c74b3-attr-5-type" class="er entityLabel">quarter</text><rect height="22.091796875" width="44.265625" y="112" x="74.90625" class="er attributeBoxOdd"/><text style="dominant-baseline: middle; font-size: 10.2px;" transform="translate(79.90625,123.0458984375)" y="0" x="0" id="text-entity-MyDimDate-74336db3-7b17-58bb-a764-56aa6c2c74b3-attr-5-name" class="er entityLabel">int</text><rect height="22.091796875" width="74.90625" y="134.091796875" x="0" class="er attributeBoxEven"/><text style="dominant-baseline: middle; font-size: 10.2px;" transform="translate(5,145.1376953125)" y="0" x="0" id="text-entity-MyDimDate-74336db3-7b17-58bb-a764-56aa6c2c74b3-attr-6-type" class="er entityLabel">quartername</text><rect height="22.091796875" width="44.265625" y="134.091796875" x="74.90625" class="er attributeBoxEven"/><text style="dominant-baseline: middle; font-size: 10.2px;" transform="translate(79.90625,145.1376953125)" y="0" x="0" id="text-entity-MyDimDate-74336db3-7b17-58bb-a764-56aa6c2c74b3-attr-6-name" class="er entityLabel">varchar</text><rect height="22.091796875" width="74.90625" y="156.18359375" x="0" class="er attributeBoxOdd"/><text style="dominant-baseline: middle; font-size: 10.2px;" transform="translate(5,167.2294921875)" y="0" x="0" id="text-entity-MyDimDate-74336db3-7b17-58bb-a764-56aa6c2c74b3-attr-7-type" class="er entityLabel">year</text><rect height="22.091796875" width="44.265625" y="156.18359375" x="74.90625" class="er attributeBoxOdd"/><text style="dominant-baseline: middle; font-size: 10.2px;" transform="translate(79.90625,167.2294921875)" y="0" x="0" id="text-entity-MyDimDate-74336db3-7b17-58bb-a764-56aa6c2c74b3-attr-7-name" class="er entityLabel">int</text><rect height="22.091796875" width="74.90625" y="178.275390625" x="0" class="er attributeBoxEven"/><text style="dominant-baseline: middle; font-size: 10.2px;" transform="translate(5,189.3212890625)" y="0" x="0" id="text-entity-MyDimDate-74336db3-7b17-58bb-a764-56aa6c2c74b3-attr-8-type" class="er entityLabel">weekday</text><rect height="22.091796875" width="44.265625" y="178.275390625" x="74.90625" class="er attributeBoxEven"/><text style="dominant-baseline: middle; font-size: 10.2px;" transform="translate(79.90625,189.3212890625)" y="0" x="0" id="text-entity-MyDimDate-74336db3-7b17-58bb-a764-56aa6c2c74b3-attr-8-name" class="er entityLabel">int</text><rect height="22.091796875" width="74.90625" y="200.3671875" x="0" class="er attributeBoxOdd"/><text style="dominant-baseline: middle; font-size: 10.2px;" transform="translate(5,211.4130859375)" y="0" x="0" id="text-entity-MyDimDate-74336db3-7b17-58bb-a764-56aa6c2c74b3-attr-9-type" class="er entityLabel">weekdayname</text><rect height="22.091796875" width="44.265625" y="200.3671875" x="74.90625" class="er attributeBoxOdd"/><text style="dominant-baseline: middle; font-size: 10.2px;" transform="translate(79.90625,211.4130859375)" y="0" x="0" id="text-entity-MyDimDate-74336db3-7b17-58bb-a764-56aa6c2c74b3-attr-9-name" class="er entityLabel">varchar</text><rect height="22.091796875" width="74.90625" y="222.458984375" x="0" class="er attributeBoxEven"/><text style="dominant-baseline: middle; font-size: 10.2px;" transform="translate(5,233.5048828125)" y="0" x="0" id="text-entity-MyDimDate-74336db3-7b17-58bb-a764-56aa6c2c74b3-attr-10-type" class="er entityLabel">day</text><rect height="22.091796875" width="44.265625" y="222.458984375" x="74.90625" class="er attributeBoxEven"/><text style="dominant-baseline: middle; font-size: 10.2px;" transform="translate(79.90625,233.5048828125)" y="0" x="0" id="text-entity-MyDimDate-74336db3-7b17-58bb-a764-56aa6c2c74b3-attr-10-name" class="er entityLabel">int</text></g><g transform="translate(234.4140625,364.55078125 )" id="entity-MyFactTrips-3636cdac-260b-5b75-a756-0e468a64ed58"><rect height="134.09179782867432" width="110.796875" y="0" x="0" class="er entityBox"/><text style="dominant-baseline: middle; text-anchor: middle; font-size: 12px;" transform="translate(55.3984375,12)" y="0" x="0" id="text-entity-MyFactTrips-3636cdac-260b-5b75-a756-0e468a64ed58" class="er entityLabel">MyFactTrips</text><rect height="22.091797828674316" width="79.140625" y="24" x="0" class="er attributeBoxOdd"/><text style="dominant-baseline: middle; font-size: 10.2px;" transform="translate(5,35.04589891433716)" y="0" x="0" id="text-entity-MyFactTrips-3636cdac-260b-5b75-a756-0e468a64ed58-attr-1-type" class="er entityLabel">tripid</text><rect height="22.091797828674316" width="31.65625" y="24" x="79.140625" class="er attributeBoxOdd"/><text style="dominant-baseline: middle; font-size: 10.2px;" transform="translate(84.140625,35.04589891433716)" y="0" x="0" id="text-entity-MyFactTrips-3636cdac-260b-5b75-a756-0e468a64ed58-attr-1-name" class="er entityLabel">int</text><rect height="22" width="79.140625" y="46.091797828674316" x="0" class="er attributeBoxEven"/><text style="dominant-baseline: middle; font-size: 10.2px;" transform="translate(5,57.091797828674316)" y="0" x="0" id="text-entity-MyFactTrips-3636cdac-260b-5b75-a756-0e468a64ed58-attr-2-type" class="er entityLabel">dateid</text><rect height="22" width="31.65625" y="46.091797828674316" x="79.140625" class="er attributeBoxEven"/><text style="dominant-baseline: middle; font-size: 10.2px;" transform="translate(84.140625,57.091797828674316)" y="0" x="0" id="text-entity-MyFactTrips-3636cdac-260b-5b75-a756-0e468a64ed58-attr-2-name" class="er entityLabel">int</text><rect height="22" width="79.140625" y="68.09179782867432" x="0" class="er attributeBoxOdd"/><text style="dominant-baseline: middle; font-size: 10.2px;" transform="translate(5,79.09179782867432)" y="0" x="0" id="text-entity-MyFactTrips-3636cdac-260b-5b75-a756-0e468a64ed58-attr-3-type" class="er entityLabel">zoneid</text><rect height="22" width="31.65625" y="68.09179782867432" x="79.140625" class="er attributeBoxOdd"/><text style="dominant-baseline: middle; font-size: 10.2px;" transform="translate(84.140625,79.09179782867432)" y="0" x="0" id="text-entity-MyFactTrips-3636cdac-260b-5b75-a756-0e468a64ed58-attr-3-name" class="er entityLabel">int</text><rect height="22" width="79.140625" y="90.09179782867432" x="0" class="er attributeBoxEven"/><text style="dominant-baseline: middle; font-size: 10.2px;" transform="translate(5,101.09179782867432)" y="0" x="0" id="text-entity-MyFactTrips-3636cdac-260b-5b75-a756-0e468a64ed58-attr-4-type" class="er entityLabel">wasteid</text><rect height="22" width="31.65625" y="90.09179782867432" x="79.140625" class="er attributeBoxEven"/><text style="dominant-baseline: middle; font-size: 10.2px;" transform="translate(84.140625,101.09179782867432)" y="0" x="0" id="text-entity-MyFactTrips-3636cdac-260b-5b75-a756-0e468a64ed58-attr-4-name" class="er entityLabel">int</text><rect height="22" width="79.140625" y="112.09179782867432" x="0" class="er attributeBoxOdd"/><text style="dominant-baseline: middle; font-size: 10.2px;" transform="translate(5,123.09179782867432)" y="0" x="0" id="text-entity-MyFactTrips-3636cdac-260b-5b75-a756-0e468a64ed58-attr-5-type" class="er entityLabel">wastecollected</text><rect height="22" width="31.65625" y="112.09179782867432" x="79.140625" class="er attributeBoxOdd"/><text style="dominant-baseline: middle; font-size: 10.2px;" transform="translate(84.140625,123.09179782867432)" y="0" x="0" id="text-entity-MyFactTrips-3636cdac-260b-5b75-a756-0e468a64ed58-attr-5-name" class="er entityLabel">float</text></g><g transform="translate(239.171875,108.2294921875 )" id="entity-MyDimWaste-fef12337-7674-577e-87db-0164a8c654e2"><rect height="68.091796875" width="101.28125" y="0" x="0" class="er entityBox"/><text style="dominant-baseline: middle; text-anchor: middle; font-size: 12px;" transform="translate(50.640625,12)" y="0" x="0" id="text-entity-MyDimWaste-fef12337-7674-577e-87db-0164a8c654e2" class="er entityLabel">MyDimWaste</text><rect height="22" width="57.015625" y="24" x="0" class="er attributeBoxOdd"/><text style="dominant-baseline: middle; font-size: 10.2px;" transform="translate(5,35)" y="0" x="0" id="text-entity-MyDimWaste-fef12337-7674-577e-87db-0164a8c654e2-attr-1-type" class="er entityLabel">wasteid</text><rect height="22" width="44.265625" y="24" x="57.015625" class="er attributeBoxOdd"/><text style="dominant-baseline: middle; font-size: 10.2px;" transform="translate(62.015625,35)" y="0" x="0" id="text-entity-MyDimWaste-fef12337-7674-577e-87db-0164a8c654e2-attr-1-name" class="er entityLabel">int</text><rect height="22.091796875" width="57.015625" y="46" x="0" class="er attributeBoxEven"/><text style="dominant-baseline: middle; font-size: 10.2px;" transform="translate(5,57.0458984375)" y="0" x="0" id="text-entity-MyDimWaste-fef12337-7674-577e-87db-0164a8c654e2-attr-2-type" class="er entityLabel">wastetype</text><rect height="22.091796875" width="44.265625" y="46" x="57.015625" class="er attributeBoxEven"/><text style="dominant-baseline: middle; font-size: 10.2px;" transform="translate(62.015625,57.0458984375)" y="0" x="0" id="text-entity-MyDimWaste-fef12337-7674-577e-87db-0164a8c654e2-attr-2-name" class="er entityLabel">varchar</text></g><g transform="translate(440.453125,97.2294921875 )" id="entity-MyDimZone-c66c2e78-1d60-5c8b-9b90-6b29631de081"><rect height="90.09179782867432" width="120.875" y="0" x="0" class="er entityBox"/><text style="dominant-baseline: middle; text-anchor: middle; font-size: 12px;" transform="translate(60.4375,12)" y="0" x="0" id="text-entity-MyDimZone-c66c2e78-1d60-5c8b-9b90-6b29631de081" class="er entityLabel">MyDimZone</text><rect height="22" width="76.609375" y="24" x="0" class="er attributeBoxOdd"/><text style="dominant-baseline: middle; font-size: 10.2px;" transform="translate(5,35)" y="0" x="0" id="text-entity-MyDimZone-c66c2e78-1d60-5c8b-9b90-6b29631de081-attr-1-type" class="er entityLabel">zoneid</text><rect height="22" width="44.265625" y="24" x="76.609375" class="er attributeBoxOdd"/><text style="dominant-baseline: middle; font-size: 10.2px;" transform="translate(81.609375,35)" y="0" x="0" id="text-entity-MyDimZone-c66c2e78-1d60-5c8b-9b90-6b29631de081-attr-1-name" class="er entityLabel">int</text><rect height="22" width="76.609375" y="46" x="0" class="er attributeBoxEven"/><text style="dominant-baseline: middle; font-size: 10.2px;" transform="translate(5,57)" y="0" x="0" id="text-entity-MyDimZone-c66c2e78-1d60-5c8b-9b90-6b29631de081-attr-2-type" class="er entityLabel">collectionzone</text><rect height="22" width="44.265625" y="46" x="76.609375" class="er attributeBoxEven"/><text style="dominant-baseline: middle; font-size: 10.2px;" transform="translate(81.609375,57)" y="0" x="0" id="text-entity-MyDimZone-c66c2e78-1d60-5c8b-9b90-6b29631de081-attr-2-name" class="er entityLabel">varchar</text><rect height="22.091797828674316" width="76.609375" y="68" x="0" class="er attributeBoxOdd"/><text style="dominant-baseline: middle; font-size: 10.2px;" transform="translate(5,79.04589891433716)" y="0" x="0" id="text-entity-MyDimZone-c66c2e78-1d60-5c8b-9b90-6b29631de081-attr-3-type" class="er entityLabel">city</text><rect height="22.091797828674316" width="44.265625" y="68" x="76.609375" class="er attributeBoxOdd"/><text style="dominant-baseline: middle; font-size: 10.2px;" transform="translate(81.609375,79.04589891433716)" y="0" x="0" id="text-entity-MyDimZone-c66c2e78-1d60-5c8b-9b90-6b29631de081-attr-3-name" class="er entityLabel">varchar</text></g><rect height="0" width="0" y="346.4097900390625" x="140.75323486328125" class="er relationshipLabelBox"/><text style="text-anchor: middle; dominant-baseline: middle; font-size: 12px;" y="346.4097900390625" x="140.75323486328125" id="rel1" class="er relationshipLabel"/><rect height="0" width="0" y="270.4360046386719" x="289.81298828125" class="er relationshipLabelBox"/><text style="text-anchor: middle; dominant-baseline: middle; font-size: 12px;" y="270.4360046386719" x="289.81298828125" id="rel2" class="er relationshipLabel"/><rect height="0" width="0" y="321.25823974609375" x="463.61767578125" class="er relationshipLabelBox"/><text style="text-anchor: middle; dominant-baseline: middle; font-size: 12px;" y="321.25823974609375" x="463.61767578125" id="rel3" class="er relationshipLabel"/></svg>