<svg aria-roledescription="er" role="graphics-document document" viewBox="0 0 194.828125 496.734375" style="max-width: 194.828px; background-color: white;" xmlns:xlink="http://www.w3.org/1999/xlink" xmlns="http://www.w3.org/2000/svg" width="100%" id="my-svg"><style>#my-svg{font-family:"trebuchet ms",verdana,arial,sans-serif;font-size:16px;fill:#333;}#my-svg .error-icon{fill:#552222;}#my-svg .error-text{fill:#552222;stroke:#552222;}#my-svg .edge-thickness-normal{stroke-width:1px;}#my-svg .edge-thickness-thick{stroke-width:3.5px;}#my-svg .edge-pattern-solid{stroke-dasharray:0;}#my-svg .edge-thickness-invisible{stroke-width:0;fill:none;}#my-svg .edge-pattern-dashed{stroke-dasharray:3;}#my-svg .edge-pattern-dotted{stroke-dasharray:2;}#my-svg .marker{fill:#333333;stroke:#333333;}#my-svg .marker.cross{stroke:#333333;}#my-svg svg{font-family:"trebuchet ms",verdana,arial,sans-serif;font-size:16px;}#my-svg p{margin:0;}#my-svg .entityBox{fill:#ECECFF;stroke:#9370DB;}#my-svg .attributeBoxOdd{fill:#ffffff;stroke:#9370DB;}#my-svg .attributeBoxEven{fill:#f2f2f2;stroke:#9370DB;}#my-svg .relationshipLabelBox{fill:hsl(80, 100%, 96.2745098039%);opacity:0.7;background-color:hsl(80, 100%, 96.2745098039%);}#my-svg .relationshipLabelBox rect{opacity:0.5;}#my-svg .relationshipLine{stroke:#333333;}#my-svg .entityTitleText{text-anchor:middle;font-size:18px;fill:#333;}#my-svg #MD_PARENT_START{fill:#f5f5f5!important;stroke:#333333!important;stroke-width:1;}#my-svg #MD_PARENT_END{fill:#f5f5f5!important;stroke:#333333!important;stroke-width:1;}#my-svg :root{--mermaid-font-family:"trebuchet ms",verdana,arial,sans-serif;}</style><g/><defs><marker orient="auto" markerHeight="240" markerWidth="190" refY="7" refX="0" id="MD_PARENT_START"><path d="M 18,7 L9,13 L1,7 L9,1 Z"/></marker></defs><defs><marker orient="auto" markerHeight="28" markerWidth="20" refY="7" refX="19" id="MD_PARENT_END"><path d="M 18,7 L9,13 L1,7 L9,1 Z"/></marker></defs><defs><marker orient="auto" markerHeight="18" markerWidth="18" refY="9" refX="0" id="ONLY_ONE_START"><path d="M9,0 L9,18 M15,0 L15,18" fill="none" stroke="gray"/></marker></defs><defs><marker orient="auto" markerHeight="18" markerWidth="18" refY="9" refX="18" id="ONLY_ONE_END"><path d="M3,0 L3,18 M9,0 L9,18" fill="none" stroke="gray"/></marker></defs><defs><marker orient="auto" markerHeight="18" markerWidth="30" refY="9" refX="0" id="ZERO_OR_ONE_START"><circle r="6" cy="9" cx="21" fill="white" stroke="gray"/><path d="M9,0 L9,18" fill="none" stroke="gray"/></marker></defs><defs><marker orient="auto" markerHeight="18" markerWidth="30" refY="9" refX="30" id="ZERO_OR_ONE_END"><circle r="6" cy="9" cx="9" fill="white" stroke="gray"/><path d="M21,0 L21,18" fill="none" stroke="gray"/></marker></defs><defs><marker orient="auto" markerHeight="36" markerWidth="45" refY="18" refX="18" id="ONE_OR_MORE_START"><path d="M0,18 Q 18,0 36,18 Q 18,36 0,18 M42,9 L42,27" fill="none" stroke="gray"/></marker></defs><defs><marker orient="auto" markerHeight="36" markerWidth="45" refY="18" refX="27" id="ONE_OR_MORE_END"><path d="M3,9 L3,27 M9,18 Q27,0 45,18 Q27,36 9,18" fill="none" stroke="gray"/></marker></defs><defs><marker orient="auto" markerHeight="36" markerWidth="57" refY="18" refX="18" id="ZERO_OR_MORE_START"><circle r="6" cy="18" cx="48" fill="white" stroke="gray"/><path d="M0,18 Q18,0 36,18 Q18,36 0,18" fill="none" stroke="gray"/></marker></defs><defs><marker orient="auto" markerHeight="36" markerWidth="57" refY="18" refX="39" id="ZERO_OR_MORE_END"><circle r="6" cy="18" cx="9" fill="white" stroke="gray"/><path d="M21,18 Q39,0 57,18 Q39,36 21,18" fill="none" stroke="gray"/></marker></defs><path style="stroke: gray; fill: none;" marker-start="url(#ONLY_ONE_START)" marker-end="url(#ZERO_OR_MORE_END)" d="M97.414,198.367L97.414,206.701C97.414,215.034,97.414,231.701,97.414,248.367C97.414,265.034,97.414,281.701,97.414,290.034L97.414,298.367" class="er relationshipLine"/><g transform="translate(39.0859375,298.3671875 )" id="entity-nbaplayerinfo-ee3ab659-5456-55ad-b9b2-4dcfc92f9d81"><rect height="178.36718940734863" width="116.65625" y="0" x="0" class="er entityBox"/><text style="dominant-baseline: middle; text-anchor: middle; font-size: 12px;" transform="translate(58.328125,12)" y="0" x="0" id="text-entity-nbaplayerinfo-ee3ab659-5456-55ad-b9b2-4dcfc92f9d81" class="er entityLabel">nba_player_info</text><rect height="22.091796875" width="47.9609375" y="24" x="0" class="er attributeBoxOdd"/><text style="dominant-baseline: middle; font-size: 10.2px;" transform="translate(5,35.0458984375)" y="0" x="0" id="text-entity-nbaplayerinfo-ee3ab659-5456-55ad-b9b2-4dcfc92f9d81-attr-1-type" class="er entityLabel">STRING</text><rect height="22.091796875" width="68.6953125" y="24" x="47.9609375" class="er attributeBoxOdd"/><text style="dominant-baseline: middle; font-size: 10.2px;" transform="translate(52.9609375,35.0458984375)" y="0" x="0" id="text-entity-nbaplayerinfo-ee3ab659-5456-55ad-b9b2-4dcfc92f9d81-attr-1-name" class="er entityLabel">player_id</text><rect height="22" width="47.9609375" y="46.091796875" x="0" class="er attributeBoxEven"/><text style="dominant-baseline: middle; font-size: 10.2px;" transform="translate(5,57.091796875)" y="0" x="0" id="text-entity-nbaplayerinfo-ee3ab659-5456-55ad-b9b2-4dcfc92f9d81-attr-2-type" class="er entityLabel">STRING</text><rect height="22" width="68.6953125" y="46.091796875" x="47.9609375" class="er attributeBoxEven"/><text style="dominant-baseline: middle; font-size: 10.2px;" transform="translate(52.9609375,57.091796875)" y="0" x="0" id="text-entity-nbaplayerinfo-ee3ab659-5456-55ad-b9b2-4dcfc92f9d81-attr-2-name" class="er entityLabel">first_name</text><rect height="22" width="47.9609375" y="68.091796875" x="0" class="er attributeBoxOdd"/><text style="dominant-baseline: middle; font-size: 10.2px;" transform="translate(5,79.091796875)" y="0" x="0" id="text-entity-nbaplayerinfo-ee3ab659-5456-55ad-b9b2-4dcfc92f9d81-attr-3-type" class="er entityLabel">STRING</text><rect height="22" width="68.6953125" y="68.091796875" x="47.9609375" class="er attributeBoxOdd"/><text style="dominant-baseline: middle; font-size: 10.2px;" transform="translate(52.9609375,79.091796875)" y="0" x="0" id="text-entity-nbaplayerinfo-ee3ab659-5456-55ad-b9b2-4dcfc92f9d81-attr-3-name" class="er entityLabel">last_name</text><rect height="22" width="47.9609375" y="90.091796875" x="0" class="er attributeBoxEven"/><text style="dominant-baseline: middle; font-size: 10.2px;" transform="translate(5,101.091796875)" y="0" x="0" id="text-entity-nbaplayerinfo-ee3ab659-5456-55ad-b9b2-4dcfc92f9d81-attr-4-type" class="er entityLabel">STRING</text><rect height="22" width="68.6953125" y="90.091796875" x="47.9609375" class="er attributeBoxEven"/><text style="dominant-baseline: middle; font-size: 10.2px;" transform="translate(52.9609375,101.091796875)" y="0" x="0" id="text-entity-nbaplayerinfo-ee3ab659-5456-55ad-b9b2-4dcfc92f9d81-attr-4-name" class="er entityLabel">team_name</text><rect height="22.091797828674316" width="47.9609375" y="112.091796875" x="0" class="er attributeBoxOdd"/><text style="dominant-baseline: middle; font-size: 10.2px;" transform="translate(5,123.13769578933716)" y="0" x="0" id="text-entity-nbaplayerinfo-ee3ab659-5456-55ad-b9b2-4dcfc92f9d81-attr-5-type" class="er entityLabel">STRING</text><rect height="22.091797828674316" width="68.6953125" y="112.091796875" x="47.9609375" class="er attributeBoxOdd"/><text style="dominant-baseline: middle; font-size: 10.2px;" transform="translate(52.9609375,123.13769578933716)" y="0" x="0" id="text-entity-nbaplayerinfo-ee3ab659-5456-55ad-b9b2-4dcfc92f9d81-attr-5-name" class="er entityLabel">position</text><rect height="22.091796875" width="47.9609375" y="134.18359470367432" x="0" class="er attributeBoxEven"/><text style="dominant-baseline: middle; font-size: 10.2px;" transform="translate(5,145.22949314117432)" y="0" x="0" id="text-entity-nbaplayerinfo-ee3ab659-5456-55ad-b9b2-4dcfc92f9d81-attr-6-type" class="er entityLabel">STRING</text><rect height="22.091796875" width="68.6953125" y="134.18359470367432" x="47.9609375" class="er attributeBoxEven"/><text style="dominant-baseline: middle; font-size: 10.2px;" transform="translate(52.9609375,145.22949314117432)" y="0" x="0" id="text-entity-nbaplayerinfo-ee3ab659-5456-55ad-b9b2-4dcfc92f9d81-attr-6-name" class="er entityLabel">height</text><rect height="22.091797828674316" width="47.9609375" y="156.27539157867432" x="0" class="er attributeBoxOdd"/><text style="dominant-baseline: middle; font-size: 10.2px;" transform="translate(5,167.32129049301147)" y="0" x="0" id="text-entity-nbaplayerinfo-ee3ab659-5456-55ad-b9b2-4dcfc92f9d81-attr-7-type" class="er entityLabel">STRING</text><rect height="22.091797828674316" width="68.6953125" y="156.27539157867432" x="47.9609375" class="er attributeBoxOdd"/><text style="dominant-baseline: middle; font-size: 10.2px;" transform="translate(52.9609375,167.32129049301147)" y="0" x="0" id="text-entity-nbaplayerinfo-ee3ab659-5456-55ad-b9b2-4dcfc92f9d81-attr-7-name" class="er entityLabel">weight</text></g><g transform="translate(20,20 )" id="entity-COMMONPLAYERINFO-be389618-964b-5d65-9805-22bff9937c58"><rect height="178.36719036102295" width="154.828125" y="0" x="0" class="er entityBox"/><text style="dominant-baseline: middle; text-anchor: middle; font-size: 12px;" transform="translate(77.4140625,12)" y="0" x="0" id="text-entity-COMMONPLAYERINFO-be389618-964b-5d65-9805-22bff9937c58" class="er entityLabel">COMMON_PLAYER_INFO</text><rect height="22.091797828674316" width="67.046875" y="24" x="0" class="er attributeBoxOdd"/><text style="dominant-baseline: middle; font-size: 10.2px;" transform="translate(5,35.04589891433716)" y="0" x="0" id="text-entity-COMMONPLAYERINFO-be389618-964b-5d65-9805-22bff9937c58-attr-1-type" class="er entityLabel">STRING</text><rect height="22.091797828674316" width="87.78125" y="24" x="67.046875" class="er attributeBoxOdd"/><text style="dominant-baseline: middle; font-size: 10.2px;" transform="translate(72.046875,35.04589891433716)" y="0" x="0" id="text-entity-COMMONPLAYERINFO-be389618-964b-5d65-9805-22bff9937c58-attr-1-name" class="er entityLabel">person_id</text><rect height="22" width="67.046875" y="46.091797828674316" x="0" class="er attributeBoxEven"/><text style="dominant-baseline: middle; font-size: 10.2px;" transform="translate(5,57.091797828674316)" y="0" x="0" id="text-entity-COMMONPLAYERINFO-be389618-964b-5d65-9805-22bff9937c58-attr-2-type" class="er entityLabel">STRING</text><rect height="22" width="87.78125" y="46.091797828674316" x="67.046875" class="er attributeBoxEven"/><text style="dominant-baseline: middle; font-size: 10.2px;" transform="translate(72.046875,57.091797828674316)" y="0" x="0" id="text-entity-COMMONPLAYERINFO-be389618-964b-5d65-9805-22bff9937c58-attr-2-name" class="er entityLabel">first_name</text><rect height="22" width="67.046875" y="68.09179782867432" x="0" class="er attributeBoxOdd"/><text style="dominant-baseline: middle; font-size: 10.2px;" transform="translate(5,79.09179782867432)" y="0" x="0" id="text-entity-COMMONPLAYERINFO-be389618-964b-5d65-9805-22bff9937c58-attr-3-type" class="er entityLabel">STRING</text><rect height="22" width="87.78125" y="68.09179782867432" x="67.046875" class="er attributeBoxOdd"/><text style="dominant-baseline: middle; font-size: 10.2px;" transform="translate(72.046875,79.09179782867432)" y="0" x="0" id="text-entity-COMMONPLAYERINFO-be389618-964b-5d65-9805-22bff9937c58-attr-3-name" class="er entityLabel">last_name</text><rect height="22" width="67.046875" y="90.09179782867432" x="0" class="er attributeBoxEven"/><text style="dominant-baseline: middle; font-size: 10.2px;" transform="translate(5,101.09179782867432)" y="0" x="0" id="text-entity-COMMONPLAYERINFO-be389618-964b-5d65-9805-22bff9937c58-attr-4-type" class="er entityLabel">STRING</text><rect height="22" width="87.78125" y="90.09179782867432" x="67.046875" class="er attributeBoxEven"/><text style="dominant-baseline: middle; font-size: 10.2px;" transform="translate(72.046875,101.09179782867432)" y="0" x="0" id="text-entity-COMMONPLAYERINFO-be389618-964b-5d65-9805-22bff9937c58-attr-4-name" class="er entityLabel">team_name</text><rect height="22.091797828674316" width="67.046875" y="112.09179782867432" x="0" class="er attributeBoxOdd"/><text style="dominant-baseline: middle; font-size: 10.2px;" transform="translate(5,123.13769674301147)" y="0" x="0" id="text-entity-COMMONPLAYERINFO-be389618-964b-5d65-9805-22bff9937c58-attr-5-type" class="er entityLabel">STRING</text><rect height="22.091797828674316" width="87.78125" y="112.09179782867432" x="67.046875" class="er attributeBoxOdd"/><text style="dominant-baseline: middle; font-size: 10.2px;" transform="translate(72.046875,123.13769674301147)" y="0" x="0" id="text-entity-COMMONPLAYERINFO-be389618-964b-5d65-9805-22bff9937c58-attr-5-name" class="er entityLabel">position</text><rect height="22.091796875" width="67.046875" y="134.18359565734863" x="0" class="er attributeBoxEven"/><text style="dominant-baseline: middle; font-size: 10.2px;" transform="translate(5,145.22949409484863)" y="0" x="0" id="text-entity-COMMONPLAYERINFO-be389618-964b-5d65-9805-22bff9937c58-attr-6-type" class="er entityLabel">STRING</text><rect height="22.091796875" width="87.78125" y="134.18359565734863" x="67.046875" class="er attributeBoxEven"/><text style="dominant-baseline: middle; font-size: 10.2px;" transform="translate(72.046875,145.22949409484863)" y="0" x="0" id="text-entity-COMMONPLAYERINFO-be389618-964b-5d65-9805-22bff9937c58-attr-6-name" class="er entityLabel">height</text><rect height="22.091797828674316" width="67.046875" y="156.27539253234863" x="0" class="er attributeBoxOdd"/><text style="dominant-baseline: middle; font-size: 10.2px;" transform="translate(5,167.3212914466858)" y="0" x="0" id="text-entity-COMMONPLAYERINFO-be389618-964b-5d65-9805-22bff9937c58-attr-7-type" class="er entityLabel">STRING</text><rect height="22.091797828674316" width="87.78125" y="156.27539253234863" x="67.046875" class="er attributeBoxOdd"/><text style="dominant-baseline: middle; font-size: 10.2px;" transform="translate(72.046875,167.3212914466858)" y="0" x="0" id="text-entity-COMMONPLAYERINFO-be389618-964b-5d65-9805-22bff9937c58-attr-7-name" class="er entityLabel">weight</text></g><rect height="14" width="120.140625" y="241.36700439453125" x="37.34368896484375" class="er relationshipLabelBox"/><text style="text-anchor: middle; dominant-baseline: middle; font-size: 12px;" y="248.36700439453125" x="97.41400146484375" id="rel1" class="er relationshipLabel">player_id -&gt; person_id</text></svg>