<svg aria-roledescription="er" role="graphics-document document" viewBox="0 0 604.265625 465" style="max-width: 604.266px; background-color: white;" xmlns:xlink="http://www.w3.org/1999/xlink" xmlns="http://www.w3.org/2000/svg" width="100%" id="my-svg"><style>#my-svg{font-family:"trebuchet ms",verdana,arial,sans-serif;font-size:16px;fill:#333;}#my-svg .error-icon{fill:#552222;}#my-svg .error-text{fill:#552222;stroke:#552222;}#my-svg .edge-thickness-normal{stroke-width:1px;}#my-svg .edge-thickness-thick{stroke-width:3.5px;}#my-svg .edge-pattern-solid{stroke-dasharray:0;}#my-svg .edge-thickness-invisible{stroke-width:0;fill:none;}#my-svg .edge-pattern-dashed{stroke-dasharray:3;}#my-svg .edge-pattern-dotted{stroke-dasharray:2;}#my-svg .marker{fill:#333333;stroke:#333333;}#my-svg .marker.cross{stroke:#333333;}#my-svg svg{font-family:"trebuchet ms",verdana,arial,sans-serif;font-size:16px;}#my-svg p{margin:0;}#my-svg .entityBox{fill:#ECECFF;stroke:#9370DB;}#my-svg .attributeBoxOdd{fill:#ffffff;stroke:#9370DB;}#my-svg .attributeBoxEven{fill:#f2f2f2;stroke:#9370DB;}#my-svg .relationshipLabelBox{fill:hsl(80, 100%, 96.2745098039%);opacity:0.7;background-color:hsl(80, 100%, 96.2745098039%);}#my-svg .relationshipLabelBox rect{opacity:0.5;}#my-svg .relationshipLine{stroke:#333333;}#my-svg .entityTitleText{text-anchor:middle;font-size:18px;fill:#333;}#my-svg #MD_PARENT_START{fill:#f5f5f5!important;stroke:#333333!important;stroke-width:1;}#my-svg #MD_PARENT_END{fill:#f5f5f5!important;stroke:#333333!important;stroke-width:1;}#my-svg :root{--mermaid-font-family:"trebuchet ms",verdana,arial,sans-serif;}</style><g/><defs><marker orient="auto" markerHeight="240" markerWidth="190" refY="7" refX="0" id="MD_PARENT_START"><path d="M 18,7 L9,13 L1,7 L9,1 Z"/></marker></defs><defs><marker orient="auto" markerHeight="28" markerWidth="20" refY="7" refX="19" id="MD_PARENT_END"><path d="M 18,7 L9,13 L1,7 L9,1 Z"/></marker></defs><defs><marker orient="auto" markerHeight="18" markerWidth="18" refY="9" refX="0" id="ONLY_ONE_START"><path d="M9,0 L9,18 M15,0 L15,18" fill="none" stroke="gray"/></marker></defs><defs><marker orient="auto" markerHeight="18" markerWidth="18" refY="9" refX="18" id="ONLY_ONE_END"><path d="M3,0 L3,18 M9,0 L9,18" fill="none" stroke="gray"/></marker></defs><defs><marker orient="auto" markerHeight="18" markerWidth="30" refY="9" refX="0" id="ZERO_OR_ONE_START"><circle r="6" cy="9" cx="21" fill="white" stroke="gray"/><path d="M9,0 L9,18" fill="none" stroke="gray"/></marker></defs><defs><marker orient="auto" markerHeight="18" markerWidth="30" refY="9" refX="30" id="ZERO_OR_ONE_END"><circle r="6" cy="9" cx="9" fill="white" stroke="gray"/><path d="M21,0 L21,18" fill="none" stroke="gray"/></marker></defs><defs><marker orient="auto" markerHeight="36" markerWidth="45" refY="18" refX="18" id="ONE_OR_MORE_START"><path d="M0,18 Q 18,0 36,18 Q 18,36 0,18 M42,9 L42,27" fill="none" stroke="gray"/></marker></defs><defs><marker orient="auto" markerHeight="36" markerWidth="45" refY="18" refX="27" id="ONE_OR_MORE_END"><path d="M3,9 L3,27 M9,18 Q27,0 45,18 Q27,36 9,18" fill="none" stroke="gray"/></marker></defs><defs><marker orient="auto" markerHeight="36" markerWidth="57" refY="18" refX="18" id="ZERO_OR_MORE_START"><circle r="6" cy="18" cx="48" fill="white" stroke="gray"/><path d="M0,18 Q18,0 36,18 Q18,36 0,18" fill="none" stroke="gray"/></marker></defs><defs><marker orient="auto" markerHeight="36" markerWidth="57" refY="18" refX="39" id="ZERO_OR_MORE_END"><circle r="6" cy="18" cx="9" fill="white" stroke="gray"/><path d="M21,18 Q39,0 57,18 Q39,36 21,18" fill="none" stroke="gray"/></marker></defs><path style="stroke: gray; fill: none;" marker-start="url(#ONE_OR_MORE_START)" marker-end="url(#ONLY_ONE_END)" d="M278.016,95L278.016,103.333C278.016,111.667,278.016,128.333,278.016,145C278.016,161.667,278.016,178.333,278.016,186.667L278.016,195" class="er relationshipLine"/><path style="stroke: gray; fill: none;" marker-start="url(#ONLY_ONE_START)" marker-end="url(#ONLY_ONE_END)" d="M228.016,253.532L201.68,264.61C175.344,275.688,122.672,297.844,96.336,317.255C70,336.667,70,353.333,70,361.667L70,370" class="er relationshipLine"/><path style="stroke: gray; fill: none;" marker-start="url(#ONLY_ONE_START)" marker-end="url(#ONLY_ONE_END)" d="M278.016,270L278.016,278.333C278.016,286.667,278.016,303.333,278.016,320C278.016,336.667,278.016,353.333,278.016,361.667L278.016,370" class="er relationshipLine"/><path style="stroke: gray; fill: none;" marker-start="url(#ONLY_ONE_START)" marker-end="url(#ONLY_ONE_END)" d="M328.016,251.347L358.371,262.789C388.727,274.231,449.438,297.116,479.793,316.891C510.148,336.667,510.148,353.333,510.148,361.667L510.148,370" class="er relationshipLine"/><g transform="translate(197.328125,20 )" id="entity-SCENARIOMANAGEMENT-c5f4374e-af03-5299-8969-d1d7c0734ed1"><rect height="75" width="161.375" y="0" x="0" class="er entityBox"/><text style="dominant-baseline: middle; text-anchor: middle; font-size: 12px;" transform="translate(80.6875,37.5)" y="0" x="0" id="text-entity-SCENARIOMANAGEMENT-c5f4374e-af03-5299-8969-d1d7c0734ed1" class="er entityLabel">SCENARIO-MANAGEMENT</text></g><g transform="translate(228.015625,195 )" id="entity-ORDERING-58848751-faf7-51d0-a0bf-7f15f0fdca7f"><rect height="75" width="100" y="0" x="0" class="er entityBox"/><text style="dominant-baseline: middle; text-anchor: middle; font-size: 12px;" transform="translate(50,37.5)" y="0" x="0" id="text-entity-ORDERING-58848751-faf7-51d0-a0bf-7f15f0fdca7f" class="er entityLabel">ORDERING</text></g><g transform="translate(20,370 )" id="entity-SCHEDULER-4878ebb1-831e-570f-ae80-426a16f06d54"><rect height="75" width="100" y="0" x="0" class="er entityBox"/><text style="dominant-baseline: middle; text-anchor: middle; font-size: 12px;" transform="translate(50,37.5)" y="0" x="0" id="text-entity-SCHEDULER-4878ebb1-831e-570f-ae80-426a16f06d54" class="er entityLabel">SCHEDULER</text></g><g transform="translate(220,370 )" id="entity-DATEORDERING-36b3ed2a-90b8-5d35-bc35-c81dd0988096"><rect height="75" width="116.03125" y="0" x="0" class="er entityBox"/><text style="dominant-baseline: middle; text-anchor: middle; font-size: 12px;" transform="translate(58.015625,37.5)" y="0" x="0" id="text-entity-DATEORDERING-36b3ed2a-90b8-5d35-bc35-c81dd0988096" class="er entityLabel">DATE-ORDERING</text></g><g transform="translate(436.03125,370 )" id="entity-SAMEDATEORDERING-aea76122-9c9f-5f3b-98f5-31543cadf44b"><rect height="75" width="148.234375" y="0" x="0" class="er entityBox"/><text style="dominant-baseline: middle; text-anchor: middle; font-size: 12px;" transform="translate(74.1171875,37.5)" y="0" x="0" id="text-entity-SAMEDATEORDERING-aea76122-9c9f-5f3b-98f5-31543cadf44b" class="er entityLabel">SAME-DATE-ORDERING</text></g><rect height="14" width="39.625" y="138" x="258.2034912109375" class="er relationshipLabelBox"/><text style="text-anchor: middle; dominant-baseline: middle; font-size: 12px;" y="145" x="278.0159912109375" id="rel1" class="er relationshipLabel">creates</text><rect height="14" width="53.21875" y="288.84844970703125" x="105.99159240722656" class="er relationshipLabelBox"/><text style="text-anchor: middle; dominant-baseline: middle; font-size: 12px;" y="295.84844970703125" x="132.60096740722656" id="rel2" class="er relationshipLabel">contained</text><rect height="14" width="44.84375" y="313" x="255.5941162109375" class="er relationshipLabelBox"/><text style="text-anchor: middle; dominant-baseline: middle; font-size: 12px;" y="320" x="278.0159912109375" id="rel3" class="er relationshipLabel">contains</text><rect height="14" width="44.84375" y="286.7480773925781" x="412.8323669433594" class="er relationshipLabelBox"/><text style="text-anchor: middle; dominant-baseline: middle; font-size: 12px;" y="293.7480773925781" x="435.2542419433594" id="rel4" class="er relationshipLabel">contains</text></svg>