<svg aria-roledescription="er" role="graphics-document document" viewBox="0 0 907.4609375 430.734375" style="max-width: 907.461px; background-color: white;" xmlns:xlink="http://www.w3.org/1999/xlink" xmlns="http://www.w3.org/2000/svg" width="100%" id="my-svg"><style>#my-svg{font-family:"trebuchet ms",verdana,arial,sans-serif;font-size:16px;fill:#333;}#my-svg .error-icon{fill:#552222;}#my-svg .error-text{fill:#552222;stroke:#552222;}#my-svg .edge-thickness-normal{stroke-width:1px;}#my-svg .edge-thickness-thick{stroke-width:3.5px;}#my-svg .edge-pattern-solid{stroke-dasharray:0;}#my-svg .edge-thickness-invisible{stroke-width:0;fill:none;}#my-svg .edge-pattern-dashed{stroke-dasharray:3;}#my-svg .edge-pattern-dotted{stroke-dasharray:2;}#my-svg .marker{fill:#333333;stroke:#333333;}#my-svg .marker.cross{stroke:#333333;}#my-svg svg{font-family:"trebuchet ms",verdana,arial,sans-serif;font-size:16px;}#my-svg p{margin:0;}#my-svg .entityBox{fill:#ECECFF;stroke:#9370DB;}#my-svg .attributeBoxOdd{fill:#ffffff;stroke:#9370DB;}#my-svg .attributeBoxEven{fill:#f2f2f2;stroke:#9370DB;}#my-svg .relationshipLabelBox{fill:hsl(80, 100%, 96.2745098039%);opacity:0.7;background-color:hsl(80, 100%, 96.2745098039%);}#my-svg .relationshipLabelBox rect{opacity:0.5;}#my-svg .relationshipLine{stroke:#333333;}#my-svg .entityTitleText{text-anchor:middle;font-size:18px;fill:#333;}#my-svg #MD_PARENT_START{fill:#f5f5f5!important;stroke:#333333!important;stroke-width:1;}#my-svg #MD_PARENT_END{fill:#f5f5f5!important;stroke:#333333!important;stroke-width:1;}#my-svg :root{--mermaid-font-family:"trebuchet ms",verdana,arial,sans-serif;}</style><g/><defs><marker orient="auto" markerHeight="240" markerWidth="190" refY="7" refX="0" id="MD_PARENT_START"><path d="M 18,7 L9,13 L1,7 L9,1 Z"/></marker></defs><defs><marker orient="auto" markerHeight="28" markerWidth="20" refY="7" refX="19" id="MD_PARENT_END"><path d="M 18,7 L9,13 L1,7 L9,1 Z"/></marker></defs><defs><marker orient="auto" markerHeight="18" markerWidth="18" refY="9" refX="0" id="ONLY_ONE_START"><path d="M9,0 L9,18 M15,0 L15,18" fill="none" stroke="gray"/></marker></defs><defs><marker orient="auto" markerHeight="18" markerWidth="18" refY="9" refX="18" id="ONLY_ONE_END"><path d="M3,0 L3,18 M9,0 L9,18" fill="none" stroke="gray"/></marker></defs><defs><marker orient="auto" markerHeight="18" markerWidth="30" refY="9" refX="0" id="ZERO_OR_ONE_START"><circle r="6" cy="9" cx="21" fill="white" stroke="gray"/><path d="M9,0 L9,18" fill="none" stroke="gray"/></marker></defs><defs><marker orient="auto" markerHeight="18" markerWidth="30" refY="9" refX="30" id="ZERO_OR_ONE_END"><circle r="6" cy="9" cx="9" fill="white" stroke="gray"/><path d="M21,0 L21,18" fill="none" stroke="gray"/></marker></defs><defs><marker orient="auto" markerHeight="36" markerWidth="45" refY="18" refX="18" id="ONE_OR_MORE_START"><path d="M0,18 Q 18,0 36,18 Q 18,36 0,18 M42,9 L42,27" fill="none" stroke="gray"/></marker></defs><defs><marker orient="auto" markerHeight="36" markerWidth="45" refY="18" refX="27" id="ONE_OR_MORE_END"><path d="M3,9 L3,27 M9,18 Q27,0 45,18 Q27,36 9,18" fill="none" stroke="gray"/></marker></defs><defs><marker orient="auto" markerHeight="36" markerWidth="57" refY="18" refX="18" id="ZERO_OR_MORE_START"><circle r="6" cy="18" cx="48" fill="white" stroke="gray"/><path d="M0,18 Q18,0 36,18 Q18,36 0,18" fill="none" stroke="gray"/></marker></defs><defs><marker orient="auto" markerHeight="36" markerWidth="57" refY="18" refX="39" id="ZERO_OR_MORE_END"><circle r="6" cy="18" cx="9" fill="white" stroke="gray"/><path d="M21,18 Q39,0 57,18 Q39,36 21,18" fill="none" stroke="gray"/></marker></defs><path style="stroke: gray; fill: none;" marker-start="url(#ONLY_ONE_START)" marker-end="url(#ZERO_OR_MORE_END)" d="M168.785,147.242L149.646,160.444C130.508,173.647,92.23,200.053,76.649,221.589C61.067,243.126,68.181,259.792,71.738,268.126L75.296,276.459" class="er relationshipLine"/><path style="stroke: gray; fill: none;" marker-start="url(#ONLY_ONE_START)" marker-end="url(#ZERO_OR_MORE_END)" d="M310.879,151.492L327.546,163.986C344.212,176.481,377.546,201.47,394.212,222.298C410.879,243.126,410.879,259.792,410.879,268.126L410.879,276.459" class="er relationshipLine"/><path style="stroke: gray; fill: none;" marker-start="url(#ONLY_ONE_START)" marker-end="url(#ZERO_OR_MORE_END)" d="M410.879,133.688L379.899,149.15C348.919,164.612,286.96,195.535,247.368,219.331C207.777,243.126,190.554,259.792,181.943,268.126L173.331,276.459" class="er relationshipLine"/><path style="stroke: gray; fill: none;" marker-start="url(#ONLY_ONE_START)" marker-end="url(#ZERO_OR_MORE_END)" d="M552.973,148.482L571.346,161.479C589.72,174.475,626.467,200.467,656.647,225.478C686.827,250.49,710.439,274.52,722.245,286.535L734.051,298.551" class="er relationshipLine"/><path style="stroke: gray; fill: none;" marker-start="url(#ONLY_ONE_START)" marker-end="url(#ZERO_OR_MORE_END)" d="M828.313,143.321L828.313,157.178C828.313,171.034,828.313,198.746,823.184,224.618C818.055,250.49,807.798,274.52,802.669,286.535L797.54,298.551" class="er relationshipLine"/><g transform="translate(168.78515625,20.0458984375 )" id="entity-PATIENTS-fd3fe854-cc3b-562b-a636-b050bcf7ba13"><rect height="156.36719131469727" width="142.09375" y="0" x="0" class="er entityBox"/><text style="dominant-baseline: middle; text-anchor: middle; font-size: 12px;" transform="translate(71.046875,12)" y="0" x="0" id="text-entity-PATIENTS-fd3fe854-cc3b-562b-a636-b050bcf7ba13" class="er entityLabel">PATIENTS</text><rect height="22" width="35.75" y="24" x="0" class="er attributeBoxOdd"/><text style="dominant-baseline: middle; font-size: 10.2px;" transform="translate(5,35)" y="0" x="0" id="text-entity-PATIENTS-fd3fe854-cc3b-562b-a636-b050bcf7ba13-attr-1-type" class="er entityLabel">int</text><rect height="22" width="84.78125" y="24" x="35.75" class="er attributeBoxOdd"/><text style="dominant-baseline: middle; font-size: 10.2px;" transform="translate(40.75,35)" y="0" x="0" id="text-entity-PATIENTS-fd3fe854-cc3b-562b-a636-b050bcf7ba13-attr-1-name" class="er entityLabel">id</text><rect height="22" width="21.5625" y="24" x="120.53125" class="er attributeBoxOdd"/><text style="dominant-baseline: middle; font-size: 10.2px;" transform="translate(125.53125,35)" y="0" x="0" id="text-entity-PATIENTS-fd3fe854-cc3b-562b-a636-b050bcf7ba13-attr-1-key" class="er entityLabel">PK</text><rect height="22.091797828674316" width="35.75" y="46" x="0" class="er attributeBoxEven"/><text style="dominant-baseline: middle; font-size: 10.2px;" transform="translate(5,57.04589891433716)" y="0" x="0" id="text-entity-PATIENTS-fd3fe854-cc3b-562b-a636-b050bcf7ba13-attr-2-type" class="er entityLabel">string</text><rect height="22.091797828674316" width="84.78125" y="46" x="35.75" class="er attributeBoxEven"/><text style="dominant-baseline: middle; font-size: 10.2px;" transform="translate(40.75,57.04589891433716)" y="0" x="0" id="text-entity-PATIENTS-fd3fe854-cc3b-562b-a636-b050bcf7ba13-attr-2-name" class="er entityLabel">name</text><rect height="22.091797828674316" width="21.5625" y="46" x="120.53125" class="er attributeBoxEven"/><text style="dominant-baseline: middle; font-size: 10.2px;" transform="translate(125.53125,57.04589891433716)" y="0" x="0" id="text-entity-PATIENTS-fd3fe854-cc3b-562b-a636-b050bcf7ba13-attr-2-key" class="er entityLabel"/><rect height="22.091797828674316" width="35.75" y="68.09179782867432" x="0" class="er attributeBoxOdd"/><text style="dominant-baseline: middle; font-size: 10.2px;" transform="translate(5,79.13769674301147)" y="0" x="0" id="text-entity-PATIENTS-fd3fe854-cc3b-562b-a636-b050bcf7ba13-attr-3-type" class="er entityLabel">string</text><rect height="22.091797828674316" width="84.78125" y="68.09179782867432" x="35.75" class="er attributeBoxOdd"/><text style="dominant-baseline: middle; font-size: 10.2px;" transform="translate(40.75,79.13769674301147)" y="0" x="0" id="text-entity-PATIENTS-fd3fe854-cc3b-562b-a636-b050bcf7ba13-attr-3-name" class="er entityLabel">surname</text><rect height="22.091797828674316" width="21.5625" y="68.09179782867432" x="120.53125" class="er attributeBoxOdd"/><text style="dominant-baseline: middle; font-size: 10.2px;" transform="translate(125.53125,79.13769674301147)" y="0" x="0" id="text-entity-PATIENTS-fd3fe854-cc3b-562b-a636-b050bcf7ba13-attr-3-key" class="er entityLabel"/><rect height="22" width="35.75" y="90.18359565734863" x="0" class="er attributeBoxEven"/><text style="dominant-baseline: middle; font-size: 10.2px;" transform="translate(5,101.18359565734863)" y="0" x="0" id="text-entity-PATIENTS-fd3fe854-cc3b-562b-a636-b050bcf7ba13-attr-4-type" class="er entityLabel">date</text><rect height="22" width="84.78125" y="90.18359565734863" x="35.75" class="er attributeBoxEven"/><text style="dominant-baseline: middle; font-size: 10.2px;" transform="translate(40.75,101.18359565734863)" y="0" x="0" id="text-entity-PATIENTS-fd3fe854-cc3b-562b-a636-b050bcf7ba13-attr-4-name" class="er entityLabel">date_of_birth</text><rect height="22" width="21.5625" y="90.18359565734863" x="120.53125" class="er attributeBoxEven"/><text style="dominant-baseline: middle; font-size: 10.2px;" transform="translate(125.53125,101.18359565734863)" y="0" x="0" id="text-entity-PATIENTS-fd3fe854-cc3b-562b-a636-b050bcf7ba13-attr-4-key" class="er entityLabel"/><rect height="22.091797828674316" width="35.75" y="112.18359565734863" x="0" class="er attributeBoxOdd"/><text style="dominant-baseline: middle; font-size: 10.2px;" transform="translate(5,123.22949457168579)" y="0" x="0" id="text-entity-PATIENTS-fd3fe854-cc3b-562b-a636-b050bcf7ba13-attr-5-type" class="er entityLabel">string</text><rect height="22.091797828674316" width="84.78125" y="112.18359565734863" x="35.75" class="er attributeBoxOdd"/><text style="dominant-baseline: middle; font-size: 10.2px;" transform="translate(40.75,123.22949457168579)" y="0" x="0" id="text-entity-PATIENTS-fd3fe854-cc3b-562b-a636-b050bcf7ba13-attr-5-name" class="er entityLabel">contact_number</text><rect height="22.091797828674316" width="21.5625" y="112.18359565734863" x="120.53125" class="er attributeBoxOdd"/><text style="dominant-baseline: middle; font-size: 10.2px;" transform="translate(125.53125,123.22949457168579)" y="0" x="0" id="text-entity-PATIENTS-fd3fe854-cc3b-562b-a636-b050bcf7ba13-attr-5-key" class="er entityLabel"/><rect height="22.091797828674316" width="35.75" y="134.27539348602295" x="0" class="er attributeBoxEven"/><text style="dominant-baseline: middle; font-size: 10.2px;" transform="translate(5,145.3212924003601)" y="0" x="0" id="text-entity-PATIENTS-fd3fe854-cc3b-562b-a636-b050bcf7ba13-attr-6-type" class="er entityLabel">string</text><rect height="22.091797828674316" width="84.78125" y="134.27539348602295" x="35.75" class="er attributeBoxEven"/><text style="dominant-baseline: middle; font-size: 10.2px;" transform="translate(40.75,145.3212924003601)" y="0" x="0" id="text-entity-PATIENTS-fd3fe854-cc3b-562b-a636-b050bcf7ba13-attr-6-name" class="er entityLabel">email</text><rect height="22.091797828674316" width="21.5625" y="134.27539348602295" x="120.53125" class="er attributeBoxEven"/><text style="dominant-baseline: middle; font-size: 10.2px;" transform="translate(125.53125,145.3212924003601)" y="0" x="0" id="text-entity-PATIENTS-fd3fe854-cc3b-562b-a636-b050bcf7ba13-attr-6-key" class="er entityLabel"/></g><g transform="translate(20,276.458984375 )" id="entity-APPOINTMENTS-bfb248a4-37f0-5897-89c9-b7a6f4ef5692"><rect height="134.27539348602295" width="167.90625" y="0" x="0" class="er entityBox"/><text style="dominant-baseline: middle; text-anchor: middle; font-size: 12px;" transform="translate(83.953125,12)" y="0" x="0" id="text-entity-APPOINTMENTS-bfb248a4-37f0-5897-89c9-b7a6f4ef5692" class="er entityLabel">APPOINTMENTS</text><rect height="22" width="51.640625" y="24" x="0" class="er attributeBoxOdd"/><text style="dominant-baseline: middle; font-size: 10.2px;" transform="translate(5,35)" y="0" x="0" id="text-entity-APPOINTMENTS-bfb248a4-37f0-5897-89c9-b7a6f4ef5692-attr-1-type" class="er entityLabel">int</text><rect height="22" width="94.703125" y="24" x="51.640625" class="er attributeBoxOdd"/><text style="dominant-baseline: middle; font-size: 10.2px;" transform="translate(56.640625,35)" y="0" x="0" id="text-entity-APPOINTMENTS-bfb248a4-37f0-5897-89c9-b7a6f4ef5692-attr-1-name" class="er entityLabel">id</text><rect height="22" width="21.5625" y="24" x="146.34375" class="er attributeBoxOdd"/><text style="dominant-baseline: middle; font-size: 10.2px;" transform="translate(151.34375,35)" y="0" x="0" id="text-entity-APPOINTMENTS-bfb248a4-37f0-5897-89c9-b7a6f4ef5692-attr-1-key" class="er entityLabel">PK</text><rect height="22.091797828674316" width="51.640625" y="46" x="0" class="er attributeBoxEven"/><text style="dominant-baseline: middle; font-size: 10.2px;" transform="translate(5,57.04589891433716)" y="0" x="0" id="text-entity-APPOINTMENTS-bfb248a4-37f0-5897-89c9-b7a6f4ef5692-attr-2-type" class="er entityLabel">int</text><rect height="22.091797828674316" width="94.703125" y="46" x="51.640625" class="er attributeBoxEven"/><text style="dominant-baseline: middle; font-size: 10.2px;" transform="translate(56.640625,57.04589891433716)" y="0" x="0" id="text-entity-APPOINTMENTS-bfb248a4-37f0-5897-89c9-b7a6f4ef5692-attr-2-name" class="er entityLabel">patient_id</text><rect height="22.091797828674316" width="21.5625" y="46" x="146.34375" class="er attributeBoxEven"/><text style="dominant-baseline: middle; font-size: 10.2px;" transform="translate(151.34375,57.04589891433716)" y="0" x="0" id="text-entity-APPOINTMENTS-bfb248a4-37f0-5897-89c9-b7a6f4ef5692-attr-2-key" class="er entityLabel">FK</text><rect height="22" width="51.640625" y="68.09179782867432" x="0" class="er attributeBoxOdd"/><text style="dominant-baseline: middle; font-size: 10.2px;" transform="translate(5,79.09179782867432)" y="0" x="0" id="text-entity-APPOINTMENTS-bfb248a4-37f0-5897-89c9-b7a6f4ef5692-attr-3-type" class="er entityLabel">int</text><rect height="22" width="94.703125" y="68.09179782867432" x="51.640625" class="er attributeBoxOdd"/><text style="dominant-baseline: middle; font-size: 10.2px;" transform="translate(56.640625,79.09179782867432)" y="0" x="0" id="text-entity-APPOINTMENTS-bfb248a4-37f0-5897-89c9-b7a6f4ef5692-attr-3-name" class="er entityLabel">doctor_id</text><rect height="22" width="21.5625" y="68.09179782867432" x="146.34375" class="er attributeBoxOdd"/><text style="dominant-baseline: middle; font-size: 10.2px;" transform="translate(151.34375,79.09179782867432)" y="0" x="0" id="text-entity-APPOINTMENTS-bfb248a4-37f0-5897-89c9-b7a6f4ef5692-attr-3-key" class="er entityLabel">FK</text><rect height="22.091797828674316" width="51.640625" y="90.09179782867432" x="0" class="er attributeBoxEven"/><text style="dominant-baseline: middle; font-size: 10.2px;" transform="translate(5,101.13769674301147)" y="0" x="0" id="text-entity-APPOINTMENTS-bfb248a4-37f0-5897-89c9-b7a6f4ef5692-attr-4-type" class="er entityLabel">datetime</text><rect height="22.091797828674316" width="94.703125" y="90.09179782867432" x="51.640625" class="er attributeBoxEven"/><text style="dominant-baseline: middle; font-size: 10.2px;" transform="translate(56.640625,101.13769674301147)" y="0" x="0" id="text-entity-APPOINTMENTS-bfb248a4-37f0-5897-89c9-b7a6f4ef5692-attr-4-name" class="er entityLabel">appointment_time</text><rect height="22.091797828674316" width="21.5625" y="90.09179782867432" x="146.34375" class="er attributeBoxEven"/><text style="dominant-baseline: middle; font-size: 10.2px;" transform="translate(151.34375,101.13769674301147)" y="0" x="0" id="text-entity-APPOINTMENTS-bfb248a4-37f0-5897-89c9-b7a6f4ef5692-attr-4-key" class="er entityLabel"/><rect height="22.091797828674316" width="51.640625" y="112.18359565734863" x="0" class="er attributeBoxOdd"/><text style="dominant-baseline: middle; font-size: 10.2px;" transform="translate(5,123.22949457168579)" y="0" x="0" id="text-entity-APPOINTMENTS-bfb248a4-37f0-5897-89c9-b7a6f4ef5692-attr-5-type" class="er entityLabel">string</text><rect height="22.091797828674316" width="94.703125" y="112.18359565734863" x="51.640625" class="er attributeBoxOdd"/><text style="dominant-baseline: middle; font-size: 10.2px;" transform="translate(56.640625,123.22949457168579)" y="0" x="0" id="text-entity-APPOINTMENTS-bfb248a4-37f0-5897-89c9-b7a6f4ef5692-attr-5-name" class="er entityLabel">status</text><rect height="22.091797828674316" width="21.5625" y="112.18359565734863" x="146.34375" class="er attributeBoxOdd"/><text style="dominant-baseline: middle; font-size: 10.2px;" transform="translate(151.34375,123.22949457168579)" y="0" x="0" id="text-entity-APPOINTMENTS-bfb248a4-37f0-5897-89c9-b7a6f4ef5692-attr-5-key" class="er entityLabel"/></g><g transform="translate(323.07421875,276.458984375 )" id="entity-PATIENTMEDICALHISTORY-07a537f3-3e71-5bec-9549-319babe920b3"><rect height="134.27539348602295" width="175.609375" y="0" x="0" class="er entityBox"/><text style="dominant-baseline: middle; text-anchor: middle; font-size: 12px;" transform="translate(87.8046875,12)" y="0" x="0" id="text-entity-PATIENTMEDICALHISTORY-07a537f3-3e71-5bec-9549-319babe920b3" class="er entityLabel">PATIENT_MEDICAL_HISTORY</text><rect height="22" width="53.28125" y="24" x="0" class="er attributeBoxOdd"/><text style="dominant-baseline: middle; font-size: 10.2px;" transform="translate(5,35)" y="0" x="0" id="text-entity-PATIENTMEDICALHISTORY-07a537f3-3e71-5bec-9549-319babe920b3-attr-1-type" class="er entityLabel">int</text><rect height="22" width="83.234375" y="24" x="53.28125" class="er attributeBoxOdd"/><text style="dominant-baseline: middle; font-size: 10.2px;" transform="translate(58.28125,35)" y="0" x="0" id="text-entity-PATIENTMEDICALHISTORY-07a537f3-3e71-5bec-9549-319babe920b3-attr-1-name" class="er entityLabel">id</text><rect height="22" width="39.09375" y="24" x="136.515625" class="er attributeBoxOdd"/><text style="dominant-baseline: middle; font-size: 10.2px;" transform="translate(141.515625,35)" y="0" x="0" id="text-entity-PATIENTMEDICALHISTORY-07a537f3-3e71-5bec-9549-319babe920b3-attr-1-key" class="er entityLabel">PK</text><rect height="22.091797828674316" width="53.28125" y="46" x="0" class="er attributeBoxEven"/><text style="dominant-baseline: middle; font-size: 10.2px;" transform="translate(5,57.04589891433716)" y="0" x="0" id="text-entity-PATIENTMEDICALHISTORY-07a537f3-3e71-5bec-9549-319babe920b3-attr-2-type" class="er entityLabel">int</text><rect height="22.091797828674316" width="83.234375" y="46" x="53.28125" class="er attributeBoxEven"/><text style="dominant-baseline: middle; font-size: 10.2px;" transform="translate(58.28125,57.04589891433716)" y="0" x="0" id="text-entity-PATIENTMEDICALHISTORY-07a537f3-3e71-5bec-9549-319babe920b3-attr-2-name" class="er entityLabel">patient_id</text><rect height="22.091797828674316" width="39.09375" y="46" x="136.515625" class="er attributeBoxEven"/><text style="dominant-baseline: middle; font-size: 10.2px;" transform="translate(141.515625,57.04589891433716)" y="0" x="0" id="text-entity-PATIENTMEDICALHISTORY-07a537f3-3e71-5bec-9549-319babe920b3-attr-2-key" class="er entityLabel">FK</text><rect height="22" width="53.28125" y="68.09179782867432" x="0" class="er attributeBoxOdd"/><text style="dominant-baseline: middle; font-size: 10.2px;" transform="translate(5,79.09179782867432)" y="0" x="0" id="text-entity-PATIENTMEDICALHISTORY-07a537f3-3e71-5bec-9549-319babe920b3-attr-3-type" class="er entityLabel">date</text><rect height="22" width="83.234375" y="68.09179782867432" x="53.28125" class="er attributeBoxOdd"/><text style="dominant-baseline: middle; font-size: 10.2px;" transform="translate(58.28125,79.09179782867432)" y="0" x="0" id="text-entity-PATIENTMEDICALHISTORY-07a537f3-3e71-5bec-9549-319babe920b3-attr-3-name" class="er entityLabel">record_date</text><rect height="22" width="39.09375" y="68.09179782867432" x="136.515625" class="er attributeBoxOdd"/><text style="dominant-baseline: middle; font-size: 10.2px;" transform="translate(141.515625,79.09179782867432)" y="0" x="0" id="text-entity-PATIENTMEDICALHISTORY-07a537f3-3e71-5bec-9549-319babe920b3-attr-3-key" class="er entityLabel"/><rect height="22.091797828674316" width="53.28125" y="90.09179782867432" x="0" class="er attributeBoxEven"/><text style="dominant-baseline: middle; font-size: 10.2px;" transform="translate(5,101.13769674301147)" y="0" x="0" id="text-entity-PATIENTMEDICALHISTORY-07a537f3-3e71-5bec-9549-319babe920b3-attr-4-type" class="er entityLabel">string</text><rect height="22.091797828674316" width="83.234375" y="90.09179782867432" x="53.28125" class="er attributeBoxEven"/><text style="dominant-baseline: middle; font-size: 10.2px;" transform="translate(58.28125,101.13769674301147)" y="0" x="0" id="text-entity-PATIENTMEDICALHISTORY-07a537f3-3e71-5bec-9549-319babe920b3-attr-4-name" class="er entityLabel">diagnosis</text><rect height="22.091797828674316" width="39.09375" y="90.09179782867432" x="136.515625" class="er attributeBoxEven"/><text style="dominant-baseline: middle; font-size: 10.2px;" transform="translate(141.515625,101.13769674301147)" y="0" x="0" id="text-entity-PATIENTMEDICALHISTORY-07a537f3-3e71-5bec-9549-319babe920b3-attr-4-key" class="er entityLabel"/><rect height="22.091797828674316" width="53.28125" y="112.18359565734863" x="0" class="er attributeBoxOdd"/><text style="dominant-baseline: middle; font-size: 10.2px;" transform="translate(5,123.22949457168579)" y="0" x="0" id="text-entity-PATIENTMEDICALHISTORY-07a537f3-3e71-5bec-9549-319babe920b3-attr-5-type" class="er entityLabel">string</text><rect height="22.091797828674316" width="83.234375" y="112.18359565734863" x="53.28125" class="er attributeBoxOdd"/><text style="dominant-baseline: middle; font-size: 10.2px;" transform="translate(58.28125,123.22949457168579)" y="0" x="0" id="text-entity-PATIENTMEDICALHISTORY-07a537f3-3e71-5bec-9549-319babe920b3-attr-5-name" class="er entityLabel">treatment</text><rect height="22.091797828674316" width="39.09375" y="112.18359565734863" x="136.515625" class="er attributeBoxOdd"/><text style="dominant-baseline: middle; font-size: 10.2px;" transform="translate(141.515625,123.22949457168579)" y="0" x="0" id="text-entity-PATIENTMEDICALHISTORY-07a537f3-3e71-5bec-9549-319babe920b3-attr-5-key" class="er entityLabel"/></g><g transform="translate(410.87890625,20 )" id="entity-DOCTORS-bcd18a5b-659f-57c6-8555-22f6a4442de2"><rect height="156.45898914337158" width="142.09375" y="0" x="0" class="er entityBox"/><text style="dominant-baseline: middle; text-anchor: middle; font-size: 12px;" transform="translate(71.046875,12)" y="0" x="0" id="text-entity-DOCTORS-bcd18a5b-659f-57c6-8555-22f6a4442de2" class="er entityLabel">DOCTORS</text><rect height="22" width="35.75" y="24" x="0" class="er attributeBoxOdd"/><text style="dominant-baseline: middle; font-size: 10.2px;" transform="translate(5,35)" y="0" x="0" id="text-entity-DOCTORS-bcd18a5b-659f-57c6-8555-22f6a4442de2-attr-1-type" class="er entityLabel">int</text><rect height="22" width="84.78125" y="24" x="35.75" class="er attributeBoxOdd"/><text style="dominant-baseline: middle; font-size: 10.2px;" transform="translate(40.75,35)" y="0" x="0" id="text-entity-DOCTORS-bcd18a5b-659f-57c6-8555-22f6a4442de2-attr-1-name" class="er entityLabel">id</text><rect height="22" width="21.5625" y="24" x="120.53125" class="er attributeBoxOdd"/><text style="dominant-baseline: middle; font-size: 10.2px;" transform="translate(125.53125,35)" y="0" x="0" id="text-entity-DOCTORS-bcd18a5b-659f-57c6-8555-22f6a4442de2-attr-1-key" class="er entityLabel">PK</text><rect height="22.091797828674316" width="35.75" y="46" x="0" class="er attributeBoxEven"/><text style="dominant-baseline: middle; font-size: 10.2px;" transform="translate(5,57.04589891433716)" y="0" x="0" id="text-entity-DOCTORS-bcd18a5b-659f-57c6-8555-22f6a4442de2-attr-2-type" class="er entityLabel">string</text><rect height="22.091797828674316" width="84.78125" y="46" x="35.75" class="er attributeBoxEven"/><text style="dominant-baseline: middle; font-size: 10.2px;" transform="translate(40.75,57.04589891433716)" y="0" x="0" id="text-entity-DOCTORS-bcd18a5b-659f-57c6-8555-22f6a4442de2-attr-2-name" class="er entityLabel">name</text><rect height="22.091797828674316" width="21.5625" y="46" x="120.53125" class="er attributeBoxEven"/><text style="dominant-baseline: middle; font-size: 10.2px;" transform="translate(125.53125,57.04589891433716)" y="0" x="0" id="text-entity-DOCTORS-bcd18a5b-659f-57c6-8555-22f6a4442de2-attr-2-key" class="er entityLabel"/><rect height="22.091797828674316" width="35.75" y="68.09179782867432" x="0" class="er attributeBoxOdd"/><text style="dominant-baseline: middle; font-size: 10.2px;" transform="translate(5,79.13769674301147)" y="0" x="0" id="text-entity-DOCTORS-bcd18a5b-659f-57c6-8555-22f6a4442de2-attr-3-type" class="er entityLabel">string</text><rect height="22.091797828674316" width="84.78125" y="68.09179782867432" x="35.75" class="er attributeBoxOdd"/><text style="dominant-baseline: middle; font-size: 10.2px;" transform="translate(40.75,79.13769674301147)" y="0" x="0" id="text-entity-DOCTORS-bcd18a5b-659f-57c6-8555-22f6a4442de2-attr-3-name" class="er entityLabel">surname</text><rect height="22.091797828674316" width="21.5625" y="68.09179782867432" x="120.53125" class="er attributeBoxOdd"/><text style="dominant-baseline: middle; font-size: 10.2px;" transform="translate(125.53125,79.13769674301147)" y="0" x="0" id="text-entity-DOCTORS-bcd18a5b-659f-57c6-8555-22f6a4442de2-attr-3-key" class="er entityLabel"/><rect height="22.091797828674316" width="35.75" y="90.18359565734863" x="0" class="er attributeBoxEven"/><text style="dominant-baseline: middle; font-size: 10.2px;" transform="translate(5,101.22949457168579)" y="0" x="0" id="text-entity-DOCTORS-bcd18a5b-659f-57c6-8555-22f6a4442de2-attr-4-type" class="er entityLabel">string</text><rect height="22.091797828674316" width="84.78125" y="90.18359565734863" x="35.75" class="er attributeBoxEven"/><text style="dominant-baseline: middle; font-size: 10.2px;" transform="translate(40.75,101.22949457168579)" y="0" x="0" id="text-entity-DOCTORS-bcd18a5b-659f-57c6-8555-22f6a4442de2-attr-4-name" class="er entityLabel">specialization</text><rect height="22.091797828674316" width="21.5625" y="90.18359565734863" x="120.53125" class="er attributeBoxEven"/><text style="dominant-baseline: middle; font-size: 10.2px;" transform="translate(125.53125,101.22949457168579)" y="0" x="0" id="text-entity-DOCTORS-bcd18a5b-659f-57c6-8555-22f6a4442de2-attr-4-key" class="er entityLabel"/><rect height="22.091797828674316" width="35.75" y="112.27539348602295" x="0" class="er attributeBoxOdd"/><text style="dominant-baseline: middle; font-size: 10.2px;" transform="translate(5,123.32129240036011)" y="0" x="0" id="text-entity-DOCTORS-bcd18a5b-659f-57c6-8555-22f6a4442de2-attr-5-type" class="er entityLabel">string</text><rect height="22.091797828674316" width="84.78125" y="112.27539348602295" x="35.75" class="er attributeBoxOdd"/><text style="dominant-baseline: middle; font-size: 10.2px;" transform="translate(40.75,123.32129240036011)" y="0" x="0" id="text-entity-DOCTORS-bcd18a5b-659f-57c6-8555-22f6a4442de2-attr-5-name" class="er entityLabel">contact_number</text><rect height="22.091797828674316" width="21.5625" y="112.27539348602295" x="120.53125" class="er attributeBoxOdd"/><text style="dominant-baseline: middle; font-size: 10.2px;" transform="translate(125.53125,123.32129240036011)" y="0" x="0" id="text-entity-DOCTORS-bcd18a5b-659f-57c6-8555-22f6a4442de2-attr-5-key" class="er entityLabel"/><rect height="22.091797828674316" width="35.75" y="134.36719131469727" x="0" class="er attributeBoxEven"/><text style="dominant-baseline: middle; font-size: 10.2px;" transform="translate(5,145.41309022903442)" y="0" x="0" id="text-entity-DOCTORS-bcd18a5b-659f-57c6-8555-22f6a4442de2-attr-6-type" class="er entityLabel">string</text><rect height="22.091797828674316" width="84.78125" y="134.36719131469727" x="35.75" class="er attributeBoxEven"/><text style="dominant-baseline: middle; font-size: 10.2px;" transform="translate(40.75,145.41309022903442)" y="0" x="0" id="text-entity-DOCTORS-bcd18a5b-659f-57c6-8555-22f6a4442de2-attr-6-name" class="er entityLabel">email</text><rect height="22.091797828674316" width="21.5625" y="134.36719131469727" x="120.53125" class="er attributeBoxEven"/><text style="dominant-baseline: middle; font-size: 10.2px;" transform="translate(125.53125,145.41309022903442)" y="0" x="0" id="text-entity-DOCTORS-bcd18a5b-659f-57c6-8555-22f6a4442de2-attr-6-key" class="er entityLabel"/></g><g transform="translate(703.5390625,298.55078125 )" id="entity-DOCTORDEPARTMENT-f9b02ac7-2117-5580-9e86-f5c49b8f701c"><rect height="90.091796875" width="149.546875" y="0" x="0" class="er entityBox"/><text style="dominant-baseline: middle; text-anchor: middle; font-size: 12px;" transform="translate(74.7734375,12)" y="0" x="0" id="text-entity-DOCTORDEPARTMENT-f9b02ac7-2117-5580-9e86-f5c49b8f701c" class="er entityLabel">DOCTOR_DEPARTMENT</text><rect height="22" width="31.71875" y="24" x="0" class="er attributeBoxOdd"/><text style="dominant-baseline: middle; font-size: 10.2px;" transform="translate(5,35)" y="0" x="0" id="text-entity-DOCTORDEPARTMENT-f9b02ac7-2117-5580-9e86-f5c49b8f701c-attr-1-type" class="er entityLabel">int</text><rect height="22" width="87.078125" y="24" x="31.71875" class="er attributeBoxOdd"/><text style="dominant-baseline: middle; font-size: 10.2px;" transform="translate(36.71875,35)" y="0" x="0" id="text-entity-DOCTORDEPARTMENT-f9b02ac7-2117-5580-9e86-f5c49b8f701c-attr-1-name" class="er entityLabel">id</text><rect height="22" width="30.75" y="24" x="118.796875" class="er attributeBoxOdd"/><text style="dominant-baseline: middle; font-size: 10.2px;" transform="translate(123.796875,35)" y="0" x="0" id="text-entity-DOCTORDEPARTMENT-f9b02ac7-2117-5580-9e86-f5c49b8f701c-attr-1-key" class="er entityLabel">PK</text><rect height="22" width="31.71875" y="46" x="0" class="er attributeBoxEven"/><text style="dominant-baseline: middle; font-size: 10.2px;" transform="translate(5,57)" y="0" x="0" id="text-entity-DOCTORDEPARTMENT-f9b02ac7-2117-5580-9e86-f5c49b8f701c-attr-2-type" class="er entityLabel">int</text><rect height="22" width="87.078125" y="46" x="31.71875" class="er attributeBoxEven"/><text style="dominant-baseline: middle; font-size: 10.2px;" transform="translate(36.71875,57)" y="0" x="0" id="text-entity-DOCTORDEPARTMENT-f9b02ac7-2117-5580-9e86-f5c49b8f701c-attr-2-name" class="er entityLabel">doctor_id</text><rect height="22" width="30.75" y="46" x="118.796875" class="er attributeBoxEven"/><text style="dominant-baseline: middle; font-size: 10.2px;" transform="translate(123.796875,57)" y="0" x="0" id="text-entity-DOCTORDEPARTMENT-f9b02ac7-2117-5580-9e86-f5c49b8f701c-attr-2-key" class="er entityLabel">FK</text><rect height="22.091796875" width="31.71875" y="68" x="0" class="er attributeBoxOdd"/><text style="dominant-baseline: middle; font-size: 10.2px;" transform="translate(5,79.0458984375)" y="0" x="0" id="text-entity-DOCTORDEPARTMENT-f9b02ac7-2117-5580-9e86-f5c49b8f701c-attr-3-type" class="er entityLabel">int</text><rect height="22.091796875" width="87.078125" y="68" x="31.71875" class="er attributeBoxOdd"/><text style="dominant-baseline: middle; font-size: 10.2px;" transform="translate(36.71875,79.0458984375)" y="0" x="0" id="text-entity-DOCTORDEPARTMENT-f9b02ac7-2117-5580-9e86-f5c49b8f701c-attr-3-name" class="er entityLabel">department_id</text><rect height="22.091796875" width="30.75" y="68" x="118.796875" class="er attributeBoxOdd"/><text style="dominant-baseline: middle; font-size: 10.2px;" transform="translate(123.796875,79.0458984375)" y="0" x="0" id="text-entity-DOCTORDEPARTMENT-f9b02ac7-2117-5580-9e86-f5c49b8f701c-attr-3-key" class="er entityLabel">FK</text></g><g transform="translate(769.1640625,53.1376953125 )" id="entity-DEPARTMENTS-dd33900e-4f85-5f09-8fb6-fa80d9dcadfc"><rect height="90.18359565734863" width="118.296875" y="0" x="0" class="er entityBox"/><text style="dominant-baseline: middle; text-anchor: middle; font-size: 12px;" transform="translate(59.1484375,12)" y="0" x="0" id="text-entity-DEPARTMENTS-dd33900e-4f85-5f09-8fb6-fa80d9dcadfc" class="er entityLabel">DEPARTMENTS</text><rect height="22" width="35.75" y="24" x="0" class="er attributeBoxOdd"/><text style="dominant-baseline: middle; font-size: 10.2px;" transform="translate(5,35)" y="0" x="0" id="text-entity-DEPARTMENTS-dd33900e-4f85-5f09-8fb6-fa80d9dcadfc-attr-1-type" class="er entityLabel">int</text><rect height="22" width="60.984375" y="24" x="35.75" class="er attributeBoxOdd"/><text style="dominant-baseline: middle; font-size: 10.2px;" transform="translate(40.75,35)" y="0" x="0" id="text-entity-DEPARTMENTS-dd33900e-4f85-5f09-8fb6-fa80d9dcadfc-attr-1-name" class="er entityLabel">id</text><rect height="22" width="21.5625" y="24" x="96.734375" class="er attributeBoxOdd"/><text style="dominant-baseline: middle; font-size: 10.2px;" transform="translate(101.734375,35)" y="0" x="0" id="text-entity-DEPARTMENTS-dd33900e-4f85-5f09-8fb6-fa80d9dcadfc-attr-1-key" class="er entityLabel">PK</text><rect height="22.091797828674316" width="35.75" y="46" x="0" class="er attributeBoxEven"/><text style="dominant-baseline: middle; font-size: 10.2px;" transform="translate(5,57.04589891433716)" y="0" x="0" id="text-entity-DEPARTMENTS-dd33900e-4f85-5f09-8fb6-fa80d9dcadfc-attr-2-type" class="er entityLabel">string</text><rect height="22.091797828674316" width="60.984375" y="46" x="35.75" class="er attributeBoxEven"/><text style="dominant-baseline: middle; font-size: 10.2px;" transform="translate(40.75,57.04589891433716)" y="0" x="0" id="text-entity-DEPARTMENTS-dd33900e-4f85-5f09-8fb6-fa80d9dcadfc-attr-2-name" class="er entityLabel">name</text><rect height="22.091797828674316" width="21.5625" y="46" x="96.734375" class="er attributeBoxEven"/><text style="dominant-baseline: middle; font-size: 10.2px;" transform="translate(101.734375,57.04589891433716)" y="0" x="0" id="text-entity-DEPARTMENTS-dd33900e-4f85-5f09-8fb6-fa80d9dcadfc-attr-2-key" class="er entityLabel"/><rect height="22.091797828674316" width="35.75" y="68.09179782867432" x="0" class="er attributeBoxOdd"/><text style="dominant-baseline: middle; font-size: 10.2px;" transform="translate(5,79.13769674301147)" y="0" x="0" id="text-entity-DEPARTMENTS-dd33900e-4f85-5f09-8fb6-fa80d9dcadfc-attr-3-type" class="er entityLabel">string</text><rect height="22.091797828674316" width="60.984375" y="68.09179782867432" x="35.75" class="er attributeBoxOdd"/><text style="dominant-baseline: middle; font-size: 10.2px;" transform="translate(40.75,79.13769674301147)" y="0" x="0" id="text-entity-DEPARTMENTS-dd33900e-4f85-5f09-8fb6-fa80d9dcadfc-attr-3-name" class="er entityLabel">description</text><rect height="22.091797828674316" width="21.5625" y="68.09179782867432" x="96.734375" class="er attributeBoxOdd"/><text style="dominant-baseline: middle; font-size: 10.2px;" transform="translate(101.734375,79.13769674301147)" y="0" x="0" id="text-entity-DEPARTMENTS-dd33900e-4f85-5f09-8fb6-fa80d9dcadfc-attr-3-key" class="er entityLabel"/></g><rect height="14" width="17.71875" y="192.80068969726562" x="88.58744049072266" class="er relationshipLabelBox"/><text style="text-anchor: middle; dominant-baseline: middle; font-size: 12px;" y="199.80068969726562" x="97.44681549072266" id="rel1" class="er relationshipLabel">has</text><rect height="14" width="17.71875" y="196.69696044921875" x="367.63604736328125" class="er relationshipLabelBox"/><text style="text-anchor: middle; dominant-baseline: middle; font-size: 12px;" y="203.69696044921875" x="376.49542236328125" id="rel2" class="er relationshipLabel">has</text><rect height="14" width="47.75" y="189.97975158691406" x="263.0226135253906" class="er relationshipLabelBox"/><text style="text-anchor: middle; dominant-baseline: middle; font-size: 12px;" y="196.97975158691406" x="286.8976135253906" id="rel3" class="er relationshipLabel">conducts</text><rect height="14" width="55.46875" y="211.3150177001953" x="620.12939453125" class="er relationshipLabelBox"/><text style="text-anchor: middle; dominant-baseline: middle; font-size: 12px;" y="218.3150177001953" x="647.86376953125" id="rel4" class="er relationshipLabel">belongs to</text><rect height="14" width="17.71875" y="216.05311584472656" x="814.6275024414062" class="er relationshipLabelBox"/><text style="text-anchor: middle; dominant-baseline: middle; font-size: 12px;" y="223.05311584472656" x="823.4868774414062" id="rel5" class="er relationshipLabel">has</text></svg>