<svg aria-roledescription="mindmap" role="graphics-document document" viewBox="-12.381250381469727 -26.53849220275879 898.6651611328125 496.513671875" style="max-width: 898.665px; background-color: white;" xmlns:xlink="http://www.w3.org/1999/xlink" xmlns="http://www.w3.org/2000/svg" width="100%" id="my-svg"><style>#my-svg{font-family:"trebuchet ms",verdana,arial,sans-serif;font-size:16px;fill:#333;}#my-svg .error-icon{fill:#552222;}#my-svg .error-text{fill:#552222;stroke:#552222;}#my-svg .edge-thickness-normal{stroke-width:1px;}#my-svg .edge-thickness-thick{stroke-width:3.5px;}#my-svg .edge-pattern-solid{stroke-dasharray:0;}#my-svg .edge-thickness-invisible{stroke-width:0;fill:none;}#my-svg .edge-pattern-dashed{stroke-dasharray:3;}#my-svg .edge-pattern-dotted{stroke-dasharray:2;}#my-svg .marker{fill:#333333;stroke:#333333;}#my-svg .marker.cross{stroke:#333333;}#my-svg svg{font-family:"trebuchet ms",verdana,arial,sans-serif;font-size:16px;}#my-svg p{margin:0;}#my-svg .edge{stroke-width:3;}#my-svg .section--1 rect,#my-svg .section--1 path,#my-svg .section--1 circle,#my-svg .section--1 polygon,#my-svg .section--1 path{fill:hsl(240, 100%, 76.2745098039%);}#my-svg .section--1 text{fill:#ffffff;}#my-svg .node-icon--1{font-size:40px;color:#ffffff;}#my-svg .section-edge--1{stroke:hsl(240, 100%, 76.2745098039%);}#my-svg .edge-depth--1{stroke-width:17;}#my-svg .section--1 line{stroke:hsl(60, 100%, 86.2745098039%);stroke-width:3;}#my-svg .disabled,#my-svg .disabled circle,#my-svg .disabled text{fill:lightgray;}#my-svg .disabled text{fill:#efefef;}#my-svg .section-0 rect,#my-svg .section-0 path,#my-svg .section-0 circle,#my-svg .section-0 polygon,#my-svg .section-0 path{fill:hsl(60, 100%, 73.5294117647%);}#my-svg .section-0 text{fill:black;}#my-svg .node-icon-0{font-size:40px;color:black;}#my-svg .section-edge-0{stroke:hsl(60, 100%, 73.5294117647%);}#my-svg .edge-depth-0{stroke-width:14;}#my-svg .section-0 line{stroke:hsl(240, 100%, 83.5294117647%);stroke-width:3;}#my-svg .disabled,#my-svg .disabled circle,#my-svg .disabled text{fill:lightgray;}#my-svg .disabled text{fill:#efefef;}#my-svg .section-1 rect,#my-svg .section-1 path,#my-svg .section-1 circle,#my-svg .section-1 polygon,#my-svg .section-1 path{fill:hsl(80, 100%, 76.2745098039%);}#my-svg .section-1 text{fill:black;}#my-svg .node-icon-1{font-size:40px;color:black;}#my-svg .section-edge-1{stroke:hsl(80, 100%, 76.2745098039%);}#my-svg .edge-depth-1{stroke-width:11;}#my-svg .section-1 line{stroke:hsl(260, 100%, 86.2745098039%);stroke-width:3;}#my-svg .disabled,#my-svg .disabled circle,#my-svg .disabled text{fill:lightgray;}#my-svg .disabled text{fill:#efefef;}#my-svg .section-2 rect,#my-svg .section-2 path,#my-svg .section-2 circle,#my-svg .section-2 polygon,#my-svg .section-2 path{fill:hsl(270, 100%, 76.2745098039%);}#my-svg .section-2 text{fill:#ffffff;}#my-svg .node-icon-2{font-size:40px;color:#ffffff;}#my-svg .section-edge-2{stroke:hsl(270, 100%, 76.2745098039%);}#my-svg .edge-depth-2{stroke-width:8;}#my-svg .section-2 line{stroke:hsl(90, 100%, 86.2745098039%);stroke-width:3;}#my-svg .disabled,#my-svg .disabled circle,#my-svg .disabled text{fill:lightgray;}#my-svg .disabled text{fill:#efefef;}#my-svg .section-3 rect,#my-svg .section-3 path,#my-svg .section-3 circle,#my-svg .section-3 polygon,#my-svg .section-3 path{fill:hsl(300, 100%, 76.2745098039%);}#my-svg .section-3 text{fill:black;}#my-svg .node-icon-3{font-size:40px;color:black;}#my-svg .section-edge-3{stroke:hsl(300, 100%, 76.2745098039%);}#my-svg .edge-depth-3{stroke-width:5;}#my-svg .section-3 line{stroke:hsl(120, 100%, 86.2745098039%);stroke-width:3;}#my-svg .disabled,#my-svg .disabled circle,#my-svg .disabled text{fill:lightgray;}#my-svg .disabled text{fill:#efefef;}#my-svg .section-4 rect,#my-svg .section-4 path,#my-svg .section-4 circle,#my-svg .section-4 polygon,#my-svg .section-4 path{fill:hsl(330, 100%, 76.2745098039%);}#my-svg .section-4 text{fill:black;}#my-svg .node-icon-4{font-size:40px;color:black;}#my-svg .section-edge-4{stroke:hsl(330, 100%, 76.2745098039%);}#my-svg .edge-depth-4{stroke-width:2;}#my-svg .section-4 line{stroke:hsl(150, 100%, 86.2745098039%);stroke-width:3;}#my-svg .disabled,#my-svg .disabled circle,#my-svg .disabled text{fill:lightgray;}#my-svg .disabled text{fill:#efefef;}#my-svg .section-5 rect,#my-svg .section-5 path,#my-svg .section-5 circle,#my-svg .section-5 polygon,#my-svg .section-5 path{fill:hsl(0, 100%, 76.2745098039%);}#my-svg .section-5 text{fill:black;}#my-svg .node-icon-5{font-size:40px;color:black;}#my-svg .section-edge-5{stroke:hsl(0, 100%, 76.2745098039%);}#my-svg .edge-depth-5{stroke-width:-1;}#my-svg .section-5 line{stroke:hsl(180, 100%, 86.2745098039%);stroke-width:3;}#my-svg .disabled,#my-svg .disabled circle,#my-svg .disabled text{fill:lightgray;}#my-svg .disabled text{fill:#efefef;}#my-svg .section-6 rect,#my-svg .section-6 path,#my-svg .section-6 circle,#my-svg .section-6 polygon,#my-svg .section-6 path{fill:hsl(30, 100%, 76.2745098039%);}#my-svg .section-6 text{fill:black;}#my-svg .node-icon-6{font-size:40px;color:black;}#my-svg .section-edge-6{stroke:hsl(30, 100%, 76.2745098039%);}#my-svg .edge-depth-6{stroke-width:-4;}#my-svg .section-6 line{stroke:hsl(210, 100%, 86.2745098039%);stroke-width:3;}#my-svg .disabled,#my-svg .disabled circle,#my-svg .disabled text{fill:lightgray;}#my-svg .disabled text{fill:#efefef;}#my-svg .section-7 rect,#my-svg .section-7 path,#my-svg .section-7 circle,#my-svg .section-7 polygon,#my-svg .section-7 path{fill:hsl(90, 100%, 76.2745098039%);}#my-svg .section-7 text{fill:black;}#my-svg .node-icon-7{font-size:40px;color:black;}#my-svg .section-edge-7{stroke:hsl(90, 100%, 76.2745098039%);}#my-svg .edge-depth-7{stroke-width:-7;}#my-svg .section-7 line{stroke:hsl(270, 100%, 86.2745098039%);stroke-width:3;}#my-svg .disabled,#my-svg .disabled circle,#my-svg .disabled text{fill:lightgray;}#my-svg .disabled text{fill:#efefef;}#my-svg .section-8 rect,#my-svg .section-8 path,#my-svg .section-8 circle,#my-svg .section-8 polygon,#my-svg .section-8 path{fill:hsl(150, 100%, 76.2745098039%);}#my-svg .section-8 text{fill:black;}#my-svg .node-icon-8{font-size:40px;color:black;}#my-svg .section-edge-8{stroke:hsl(150, 100%, 76.2745098039%);}#my-svg .edge-depth-8{stroke-width:-10;}#my-svg .section-8 line{stroke:hsl(330, 100%, 86.2745098039%);stroke-width:3;}#my-svg .disabled,#my-svg .disabled circle,#my-svg .disabled text{fill:lightgray;}#my-svg .disabled text{fill:#efefef;}#my-svg .section-9 rect,#my-svg .section-9 path,#my-svg .section-9 circle,#my-svg .section-9 polygon,#my-svg .section-9 path{fill:hsl(180, 100%, 76.2745098039%);}#my-svg .section-9 text{fill:black;}#my-svg .node-icon-9{font-size:40px;color:black;}#my-svg .section-edge-9{stroke:hsl(180, 100%, 76.2745098039%);}#my-svg .edge-depth-9{stroke-width:-13;}#my-svg .section-9 line{stroke:hsl(0, 100%, 86.2745098039%);stroke-width:3;}#my-svg .disabled,#my-svg .disabled circle,#my-svg .disabled text{fill:lightgray;}#my-svg .disabled text{fill:#efefef;}#my-svg .section-10 rect,#my-svg .section-10 path,#my-svg .section-10 circle,#my-svg .section-10 polygon,#my-svg .section-10 path{fill:hsl(210, 100%, 76.2745098039%);}#my-svg .section-10 text{fill:black;}#my-svg .node-icon-10{font-size:40px;color:black;}#my-svg .section-edge-10{stroke:hsl(210, 100%, 76.2745098039%);}#my-svg .edge-depth-10{stroke-width:-16;}#my-svg .section-10 line{stroke:hsl(30, 100%, 86.2745098039%);stroke-width:3;}#my-svg .disabled,#my-svg .disabled circle,#my-svg .disabled text{fill:lightgray;}#my-svg .disabled text{fill:#efefef;}#my-svg .section-root rect,#my-svg .section-root path,#my-svg .section-root circle,#my-svg .section-root polygon{fill:hsl(240, 100%, 46.2745098039%);}#my-svg .section-root text{fill:#ffffff;}#my-svg .icon-container{height:100%;display:flex;justify-content:center;align-items:center;}#my-svg .edge{fill:none;}#my-svg .mindmap-node-label{dy:1em;alignment-baseline:middle;text-anchor:middle;dominant-baseline:middle;text-align:center;}#my-svg :root{--mermaid-font-family:"trebuchet ms",verdana,arial,sans-serif;}</style><g/><g class="mindmap-edges"><path class="edge section-edge-0 edge-depth-1" d="M 429.2712514735243,110.03909093806763 L 426.66025298931083,79.44238538672121 L424.0492545050974,48.84567983537478"/><path class="edge section-edge-0 edge-depth-0" d="M 425.96303367185936,202.33628878183293 L 427.8111948489885,171.14739661996904 L429.6593560261177,139.95850445810515"/><path class="edge section-edge-1 edge-depth-1" d="M 574.5927839236699,209.37313356743442 L 655.7853742576352,194.35180155343826 L736.9779645916005,179.3304695394421"/><path class="edge section-edge-1 edge-depth-0" d="M 440.06454649005815,216.73078171376622 L 492.45941126613764,214.70598873809965 L544.8542760422171,212.68119576243308"/><path class="edge section-edge-2 edge-depth-1" d="M 428.35911224244404,324.5213778915114 L 430.3677871962976,355.13943302011137 L432.3764621501512,385.75748814871133"/><path class="edge section-edge-2 edge-depth-0" d="M 425.44985984149844,232.30535608554976 L 426.2264469017389,263.43178796485637 L427.0030339619793,294.558219844163"/><path class="edge section-edge-3 edge-depth-1" d="M 272.9663434795342,208.159056414516 L 194.83172133563068,194.9727967876664 L116.69709919172718,181.7865371608168"/><path class="edge section-edge-3 edge-depth-0" d="M 410.09331836429925,216.5839356839582 L 356.416463664405,213.98261597938307 L302.73960896451075,211.381296274808"/></g><g class="mindmap-nodes"><g transform="translate(388.87260965754865, 198.41002246649566)" class="mindmap-node section--1 section-root"><g transform="translate(36.203125, 18.9)"><circle r="36.203125" class="node-bkg node-circle" id="node-0"/></g><g transform="translate(36.203125, 5)" text-anchor="middle" dominant-baseline="middle" alignment-baseline="middle" dy="1em"><g><rect style="stroke: none" class="background"/><text style="" y="-10.1"><tspan dy="1.1em" y="-0.1em" x="0" class="text-outer-tspan"><tspan font-weight="normal" class="text-inner-tspan" font-style="normal">SemCal</tspan></tspan></text></g></g></g><g transform="translate(374.3357175404284, 106.08477077344241)" class="mindmap-node section-0"><g><path d="M0 32.8 v-27.799999999999997 q0,-5 5,-5 h102.421875 q5,0 5,5 v32.8 H0 Z" class="node-bkg node-no-border" id="node-1"/><line y2="37.8" x2="112.421875" y1="37.8" x1="0" class="node-line-0"/></g><g transform="translate(56.2109375, 5)" text-anchor="middle" dominant-baseline="middle" alignment-baseline="middle" dy="1em"><g><rect style="stroke: none" class="background"/><text style="" y="-10.1"><tspan dy="1.1em" y="-0.1em" x="0" class="text-outer-tspan"><tspan font-weight="normal" class="text-inner-tspan" font-style="normal">Rich</tspan><tspan font-weight="normal" class="text-inner-tspan" font-style="normal"> Content</tspan></tspan></text></g></g></g><g transform="translate(516.3899628747266, 193.20195500970362)" class="mindmap-node section-1"><g><path d="M0 32.8 v-27.799999999999997 q0,-5 5,-5 h76.90625 q5,0 5,5 v32.8 H0 Z" class="node-bkg node-no-border" id="node-3"/><line y2="37.8" x2="86.90625" y1="37.8" x1="0" class="node-line-1"/></g><g transform="translate(43.453125, 5)" text-anchor="middle" dominant-baseline="middle" alignment-baseline="middle" dy="1em"><g><rect style="stroke: none" class="background"/><text style="" y="-10.1"><tspan dy="1.1em" y="-0.1em" x="0" class="text-outer-tspan"><tspan font-weight="normal" class="text-inner-tspan" font-style="normal">Metadata</tspan></tspan></text></g></g></g><g transform="translate(391.9709091459291, 290.6535534632171)" class="mindmap-node section-2"><g><path d="M0 32.8 v-27.799999999999997 q0,-5 5,-5 h60.8125 q5,0 5,5 v32.8 H0 Z" class="node-bkg node-no-border" id="node-5"/><line y2="37.8" x2="70.8125" y1="37.8" x1="0" class="node-line-2"/></g><g transform="translate(35.40625, 5)" text-anchor="middle" dominant-baseline="middle" alignment-baseline="middle" dy="1em"><g><rect style="stroke: none" class="background"/><text style="" y="-10.1"><tspan dy="1.1em" y="-0.1em" x="0" class="text-outer-tspan"><tspan font-weight="normal" class="text-inner-tspan" font-style="normal">Linking</tspan></tspan></text></g></g></g><g transform="translate(241.54625517126135, 191.75520949227052)" class="mindmap-node section-3"><g><path d="M0 32.8 v-27.799999999999997 q0,-5 5,-5 h82.421875 q5,0 5,5 v32.8 H0 Z" class="node-bkg node-no-border" id="node-7"/><line y2="37.8" x2="92.421875" y1="37.8" x1="0" class="node-line-3"/></g><g transform="translate(46.2109375, 5)" text-anchor="middle" dominant-baseline="middle" alignment-baseline="middle" dy="1em"><g><rect style="stroke: none" class="background"/><text style="" y="-10.1"><tspan dy="1.1em" y="-0.1em" x="0" class="text-outer-tspan"><tspan font-weight="normal" class="text-inner-tspan" font-style="normal">Publishing</tspan></tspan></text></g></g></g><g transform="translate(352.8754134381933, 15)" class="mindmap-node section-0"><g><path d="M0 0 a20.96953125,20.96953125 0 0,1 34.94921875,-13.9796875&#10;      a48.92890625,48.92890625 1 0,1 55.91875,-13.9796875&#10;      a34.94921875,34.94921875 1 0,1 48.92890625,27.959375&#10;&#10;      a20.96953125,20.96953125 1 0,1 20.96953125,13.229999999999999&#10;      a27.959375,27.959375 1 0,1 -20.96953125,24.57&#10;&#10;      a34.94921875,20.96953125 1 0,1 -34.94921875,20.96953125&#10;      a48.92890625,48.92890625 1 0,1 -69.8984375,0&#10;      a20.96953125,20.96953125 1 0,1 -34.94921875,-20.96953125&#10;&#10;      a20.96953125,20.96953125 1 0,1 -13.9796875,-13.229999999999999&#10;      a27.959375,27.959375 1 0,1 13.9796875,-24.57&#10;&#10;    H0 V0 Z" class="node-bkg node-cloud" id="node-2"/></g><g transform="translate(69.8984375, 5)" text-anchor="middle" dominant-baseline="middle" alignment-baseline="middle" dy="1em"><g><rect style="stroke: none" class="background"/><text style="" y="-10.1"><tspan dy="1.1em" y="-0.1em" x="0" class="text-outer-tspan"><tspan font-weight="normal" class="text-inner-tspan" font-style="normal">HTML/Markdown</tspan></tspan></text></g></g></g><g transform="translate(655.9151606405438, 157.7016480971729)" class="mindmap-node section-1"><g><path d="M0 0 a28.74375,28.74375 0 0,1 47.90625,-19.1625&#10;      a67.06875,67.06875 1 0,1 76.65,-19.1625&#10;      a47.90625,47.90625 1 0,1 67.06875,38.325&#10;&#10;      a28.74375,28.74375 1 0,1 28.74375,13.229999999999999&#10;      a38.325,38.325 1 0,1 -28.74375,24.57&#10;&#10;      a47.90625,28.74375 1 0,1 -47.90625,28.74375&#10;      a67.06875,67.06875 1 0,1 -95.8125,0&#10;      a28.74375,28.74375 1 0,1 -47.90625,-28.74375&#10;&#10;      a28.74375,28.74375 1 0,1 -19.1625,-13.229999999999999&#10;      a38.325,38.325 1 0,1 19.1625,-24.57&#10;&#10;    H0 V0 Z" class="node-bkg node-cloud" id="node-4"/></g><g transform="translate(95.8125, 5)" text-anchor="middle" dominant-baseline="middle" alignment-baseline="middle" dy="1em"><g><rect style="stroke: none" class="background"/><text style="" y="-10.1"><tspan dy="1.1em" y="-0.1em" x="0" class="text-outer-tspan"><tspan font-weight="normal" class="text-inner-tspan" font-style="normal">Concept/RDFa/JSON-LD</tspan></tspan></text></g></g></g><g transform="translate(354.25685274666614, 381.82531257700566)" class="mindmap-node section-2"><g><path d="M0 0 a23.73046875,23.73046875 0 0,1 39.55078125,-15.8203125&#10;      a55.37109375,55.37109375 1 0,1 63.28125,-15.8203125&#10;      a39.55078125,39.55078125 1 0,1 55.37109375,31.640625&#10;&#10;      a23.73046875,23.73046875 1 0,1 23.73046875,13.229999999999999&#10;      a31.640625,31.640625 1 0,1 -23.73046875,24.57&#10;&#10;      a39.55078125,23.73046875 1 0,1 -39.55078125,23.73046875&#10;      a55.37109375,55.37109375 1 0,1 -79.1015625,0&#10;      a23.73046875,23.73046875 1 0,1 -39.55078125,-23.73046875&#10;&#10;      a23.73046875,23.73046875 1 0,1 -15.8203125,-13.229999999999999&#10;      a31.640625,31.640625 1 0,1 15.8203125,-24.57&#10;&#10;    H0 V0 Z" class="node-bkg node-cloud" id="node-6"/></g><g transform="translate(79.1015625, 5)" text-anchor="middle" dominant-baseline="middle" alignment-baseline="middle" dy="1em"><g><rect style="stroke: none" class="background"/><text style="" y="-10.1"><tspan dy="1.1em" y="-0.1em" x="0" class="text-outer-tspan"><tspan font-weight="normal" class="text-inner-tspan" font-style="normal">Weblinking</tspan><tspan font-weight="normal" class="text-inner-tspan" font-style="normal"> Support</tspan></tspan></text></g></g></g><g transform="translate(15, 160.39038408306226)" class="mindmap-node section-3"><g><path d="M0 0 a26.071875,26.071875 0 0,1 43.453125,-17.38125&#10;      a60.834374999999994,60.834374999999994 1 0,1 69.525,-17.38125&#10;      a43.453125,43.453125 1 0,1 60.834374999999994,34.7625&#10;&#10;      a26.071875,26.071875 1 0,1 26.071875,13.229999999999999&#10;      a34.7625,34.7625 1 0,1 -26.071875,24.57&#10;&#10;      a43.453125,26.071875 1 0,1 -43.453125,26.071875&#10;      a60.834374999999994,60.834374999999994 1 0,1 -86.90625,0&#10;      a26.071875,26.071875 1 0,1 -43.453125,-26.071875&#10;&#10;      a26.071875,26.071875 1 0,1 -17.38125,-13.229999999999999&#10;      a34.7625,34.7625 1 0,1 17.38125,-24.57&#10;&#10;    H0 V0 Z" class="node-bkg node-cloud" id="node-8"/></g><g transform="translate(86.90625, 5)" text-anchor="middle" dominant-baseline="middle" alignment-baseline="middle" dy="1em"><g><rect style="stroke: none" class="background"/><text style="" y="-10.1"><tspan dy="1.1em" y="-0.1em" x="0" class="text-outer-tspan"><tspan font-weight="normal" class="text-inner-tspan" font-style="normal">WebSub/Webmention</tspan></tspan></text></g></g></g></g></svg>