<svg aria-roledescription="er" role="graphics-document document" viewBox="0 -62 992.78125 702" style="max-width: 992.781px; background-color: white;" xmlns:xlink="http://www.w3.org/1999/xlink" xmlns="http://www.w3.org/2000/svg" width="100%" id="my-svg"><style>#my-svg{font-family:"trebuchet ms",verdana,arial,sans-serif;font-size:16px;fill:#333;}#my-svg .error-icon{fill:#552222;}#my-svg .error-text{fill:#552222;stroke:#552222;}#my-svg .edge-thickness-normal{stroke-width:1px;}#my-svg .edge-thickness-thick{stroke-width:3.5px;}#my-svg .edge-pattern-solid{stroke-dasharray:0;}#my-svg .edge-thickness-invisible{stroke-width:0;fill:none;}#my-svg .edge-pattern-dashed{stroke-dasharray:3;}#my-svg .edge-pattern-dotted{stroke-dasharray:2;}#my-svg .marker{fill:#333333;stroke:#333333;}#my-svg .marker.cross{stroke:#333333;}#my-svg svg{font-family:"trebuchet ms",verdana,arial,sans-serif;font-size:16px;}#my-svg p{margin:0;}#my-svg .entityBox{fill:#ECECFF;stroke:#9370DB;}#my-svg .attributeBoxOdd{fill:#ffffff;stroke:#9370DB;}#my-svg .attributeBoxEven{fill:#f2f2f2;stroke:#9370DB;}#my-svg .relationshipLabelBox{fill:hsl(80, 100%, 96.2745098039%);opacity:0.7;background-color:hsl(80, 100%, 96.2745098039%);}#my-svg .relationshipLabelBox rect{opacity:0.5;}#my-svg .relationshipLine{stroke:#333333;}#my-svg .entityTitleText{text-anchor:middle;font-size:18px;fill:#333;}#my-svg #MD_PARENT_START{fill:#f5f5f5!important;stroke:#333333!important;stroke-width:1;}#my-svg #MD_PARENT_END{fill:#f5f5f5!important;stroke:#333333!important;stroke-width:1;}#my-svg :root{--mermaid-font-family:"trebuchet ms",verdana,arial,sans-serif;}</style><g/><defs><marker orient="auto" markerHeight="240" markerWidth="190" refY="7" refX="0" id="MD_PARENT_START"><path d="M 18,7 L9,13 L1,7 L9,1 Z"/></marker></defs><defs><marker orient="auto" markerHeight="28" markerWidth="20" refY="7" refX="19" id="MD_PARENT_END"><path d="M 18,7 L9,13 L1,7 L9,1 Z"/></marker></defs><defs><marker orient="auto" markerHeight="18" markerWidth="18" refY="9" refX="0" id="ONLY_ONE_START"><path d="M9,0 L9,18 M15,0 L15,18" fill="none" stroke="gray"/></marker></defs><defs><marker orient="auto" markerHeight="18" markerWidth="18" refY="9" refX="18" id="ONLY_ONE_END"><path d="M3,0 L3,18 M9,0 L9,18" fill="none" stroke="gray"/></marker></defs><defs><marker orient="auto" markerHeight="18" markerWidth="30" refY="9" refX="0" id="ZERO_OR_ONE_START"><circle r="6" cy="9" cx="21" fill="white" stroke="gray"/><path d="M9,0 L9,18" fill="none" stroke="gray"/></marker></defs><defs><marker orient="auto" markerHeight="18" markerWidth="30" refY="9" refX="30" id="ZERO_OR_ONE_END"><circle r="6" cy="9" cx="9" fill="white" stroke="gray"/><path d="M21,0 L21,18" fill="none" stroke="gray"/></marker></defs><defs><marker orient="auto" markerHeight="36" markerWidth="45" refY="18" refX="18" id="ONE_OR_MORE_START"><path d="M0,18 Q 18,0 36,18 Q 18,36 0,18 M42,9 L42,27" fill="none" stroke="gray"/></marker></defs><defs><marker orient="auto" markerHeight="36" markerWidth="45" refY="18" refX="27" id="ONE_OR_MORE_END"><path d="M3,9 L3,27 M9,18 Q27,0 45,18 Q27,36 9,18" fill="none" stroke="gray"/></marker></defs><defs><marker orient="auto" markerHeight="36" markerWidth="57" refY="18" refX="18" id="ZERO_OR_MORE_START"><circle r="6" cy="18" cx="48" fill="white" stroke="gray"/><path d="M0,18 Q18,0 36,18 Q18,36 0,18" fill="none" stroke="gray"/></marker></defs><defs><marker orient="auto" markerHeight="36" markerWidth="57" refY="18" refX="39" id="ZERO_OR_MORE_END"><circle r="6" cy="18" cx="9" fill="white" stroke="gray"/><path d="M21,18 Q39,0 57,18 Q39,36 21,18" fill="none" stroke="gray"/></marker></defs><path style="stroke: gray; fill: none;" marker-start="url(#ONLY_ONE_START)" marker-end="url(#ONLY_ONE_END)" d="M424.375,70.196L365.313,82.664C306.25,95.131,188.125,120.065,129.063,140.866C70,161.667,70,178.333,70,186.667L70,195" class="er relationshipLine"/><path style="stroke: gray; fill: none;" marker-start="url(#ONLY_ONE_START)" marker-end="url(#ZERO_OR_MORE_END)" d="M70,270L70,278.333C70,286.667,70,303.333,70,320C70,336.667,70,353.333,70,361.667L70,370" class="er relationshipLine"/><path style="stroke: gray; fill: none;" marker-start="url(#ONLY_ONE_START)" marker-end="url(#ONLY_ONE_END)" d="M484.523,95L484.523,103.333C484.523,111.667,484.523,128.333,484.523,145C484.523,161.667,484.523,178.333,484.523,186.667L484.523,195" class="er relationshipLine"/><path style="stroke: gray; fill: none;" marker-start="url(#ONLY_ONE_START)" marker-end="url(#ZERO_OR_MORE_END)" d="M428.203,256.01L402.654,266.675C377.104,277.34,326.005,298.67,300.456,317.668C274.906,336.667,274.906,353.333,274.906,361.667L274.906,370" class="er relationshipLine"/><path style="stroke: gray; fill: none;" marker-start="url(#ONLY_ONE_START)" marker-end="url(#ZERO_OR_MORE_END)" d="M274.906,445L274.906,453.333C274.906,461.667,274.906,478.333,274.906,495C274.906,511.667,274.906,528.333,274.906,536.667L274.906,545" class="er relationshipLine"/><path style="stroke: gray; fill: none;" marker-start="url(#ONLY_ONE_START)" marker-end="url(#ONLY_ONE_END)" d="M484.523,270L484.523,278.333C484.523,286.667,484.523,303.333,484.523,320C484.523,336.667,484.523,353.333,484.523,361.667L484.523,370" class="er relationshipLine"/><path style="stroke: gray; fill: none;" marker-start="url(#ONLY_ONE_START)" marker-end="url(#ZERO_OR_MORE_END)" d="M484.523,445L484.523,453.333C484.523,461.667,484.523,478.333,484.523,495C484.523,511.667,484.523,528.333,484.523,536.667L484.523,545" class="er relationshipLine"/><path style="stroke: gray; fill: none;" marker-start="url(#ONLY_ONE_START)" marker-end="url(#ONLY_ONE_END)" d="M540.844,256.314L565.947,266.928C591.049,277.543,641.255,298.771,666.358,317.719C691.461,336.667,691.461,353.333,691.461,361.667L691.461,370" class="er relationshipLine"/><path style="stroke: gray; fill: none;" marker-start="url(#ONLY_ONE_START)" marker-end="url(#ONLY_ONE_END)" d="M691.461,445L691.461,453.333C691.461,461.667,691.461,478.333,691.461,495C691.461,511.667,691.461,528.333,691.461,536.667L691.461,545" class="er relationshipLine"/><path style="stroke: gray; fill: none;" marker-start="url(#ONLY_ONE_START)" marker-end="url(#ONLY_ONE_END)" d="M544.672,69.921L605.266,82.434C665.859,94.947,787.047,119.974,847.641,140.82C908.234,161.667,908.234,178.333,908.234,186.667L908.234,195" class="er relationshipLine"/><path style="stroke: gray; fill: none;" marker-start="url(#ONLY_ONE_START)" marker-end="url(#ZERO_OR_MORE_END)" d="M908.234,270L908.234,278.333C908.234,286.667,908.234,303.333,908.234,320C908.234,336.667,908.234,353.333,908.234,361.667L908.234,370" class="er relationshipLine"/><g transform="translate(424.375,20 )" id="entity-SKILLINGPARSER-9c291534-e3bc-590f-8ea5-20a0ad38a799"><rect height="75" width="120.296875" y="0" x="0" class="er entityBox"/><text style="dominant-baseline: middle; text-anchor: middle; font-size: 12px;" transform="translate(60.1484375,37.5)" y="0" x="0" id="text-entity-SKILLINGPARSER-9c291534-e3bc-590f-8ea5-20a0ad38a799" class="er entityLabel">SKILLING-PARSER</text></g><g transform="translate(20,195 )" id="entity-FILEROUTER-c16ed093-4cba-5218-b8d0-447bcd2d5438"><rect height="75" width="100" y="0" x="0" class="er entityBox"/><text style="dominant-baseline: middle; text-anchor: middle; font-size: 12px;" transform="translate(50,37.5)" y="0" x="0" id="text-entity-FILEROUTER-c16ed093-4cba-5218-b8d0-447bcd2d5438" class="er entityLabel">FILE-ROUTER</text></g><g transform="translate(20,370 )" id="entity-FILEREADER-f1371db2-1467-565a-9ef8-b9dbadf42ef5"><rect height="75" width="100" y="0" x="0" class="er entityBox"/><text style="dominant-baseline: middle; text-anchor: middle; font-size: 12px;" transform="translate(50,37.5)" y="0" x="0" id="text-entity-FILEREADER-f1371db2-1467-565a-9ef8-b9dbadf42ef5" class="er entityLabel">FILE-READER</text></g><g transform="translate(428.203125,195 )" id="entity-PARSERENGINE-af0052f0-8618-53e1-8abd-22e12a025951"><rect height="75" width="112.640625" y="0" x="0" class="er entityBox"/><text style="dominant-baseline: middle; text-anchor: middle; font-size: 12px;" transform="translate(56.3203125,37.5)" y="0" x="0" id="text-entity-PARSERENGINE-af0052f0-8618-53e1-8abd-22e12a025951" class="er entityLabel">PARSER-ENGINE</text></g><g transform="translate(220,370 )" id="entity-SLICERENGINE-bf22b300-85de-50e1-b485-70817c7d5ba7"><rect height="75" width="109.8125" y="0" x="0" class="er entityBox"/><text style="dominant-baseline: middle; text-anchor: middle; font-size: 12px;" transform="translate(54.90625,37.5)" y="0" x="0" id="text-entity-SLICERENGINE-bf22b300-85de-50e1-b485-70817c7d5ba7" class="er entityLabel">SLICER-ENGINE</text></g><g transform="translate(224.90625,545 )" id="entity-SLICER-5d52f412-1179-54c9-839e-2d5f181ecd6c"><rect height="75" width="100" y="0" x="0" class="er entityBox"/><text style="dominant-baseline: middle; text-anchor: middle; font-size: 12px;" transform="translate(50,37.5)" y="0" x="0" id="text-entity-SLICER-5d52f412-1179-54c9-839e-2d5f181ecd6c" class="er entityLabel">SLICER</text></g><g transform="translate(429.8125,370 )" id="entity-TOKENENGINE-f325ce83-fb50-519b-84d4-632d8e89cdfe"><rect height="75" width="109.421875" y="0" x="0" class="er entityBox"/><text style="dominant-baseline: middle; text-anchor: middle; font-size: 12px;" transform="translate(54.7109375,37.5)" y="0" x="0" id="text-entity-TOKENENGINE-f325ce83-fb50-519b-84d4-632d8e89cdfe" class="er entityLabel">TOKEN-ENGINE</text></g><g transform="translate(432.8359375,545 )" id="entity-TOKENSTORE-d46c22fb-81ea-578a-b5ff-4a04d6558f61"><rect height="75" width="103.375" y="0" x="0" class="er entityBox"/><text style="dominant-baseline: middle; text-anchor: middle; font-size: 12px;" transform="translate(51.6875,37.5)" y="0" x="0" id="text-entity-TOKENSTORE-d46c22fb-81ea-578a-b5ff-4a04d6558f61" class="er entityLabel">TOKEN-STORE</text></g><g transform="translate(639.234375,370 )" id="entity-MODELSTORE-da1d3c04-2357-5c7b-be5d-49aa16ddf07c"><rect height="75" width="104.453125" y="0" x="0" class="er entityBox"/><text style="dominant-baseline: middle; text-anchor: middle; font-size: 12px;" transform="translate(52.2265625,37.5)" y="0" x="0" id="text-entity-MODELSTORE-da1d3c04-2357-5c7b-be5d-49aa16ddf07c" class="er entityLabel">MODEL-STORE</text></g><g transform="translate(641.4609375,545 )" id="entity-MODEL-ac5f2eec-271c-5885-aa63-b762a8e597da"><rect height="75" width="100" y="0" x="0" class="er entityBox"/><text style="dominant-baseline: middle; text-anchor: middle; font-size: 12px;" transform="translate(50,37.5)" y="0" x="0" id="text-entity-MODEL-ac5f2eec-271c-5885-aa63-b762a8e597da" class="er entityLabel">MODEL</text></g><g transform="translate(858.234375,195 )" id="entity-RULESTORE-1cfd1e6e-49fb-5d6e-bce6-2aeb99693ed7"><rect height="75" width="100" y="0" x="0" class="er entityBox"/><text style="dominant-baseline: middle; text-anchor: middle; font-size: 12px;" transform="translate(50,37.5)" y="0" x="0" id="text-entity-RULESTORE-1cfd1e6e-49fb-5d6e-bce6-2aeb99693ed7" class="er entityLabel">RULE-STORE</text></g><g transform="translate(843.6875,370 )" id="entity-VALIDATIONRULES-3f4923e6-535a-583e-a798-5abd6216558d"><rect height="75" width="129.09375" y="0" x="0" class="er entityBox"/><text style="dominant-baseline: middle; text-anchor: middle; font-size: 12px;" transform="translate(64.546875,37.5)" y="0" x="0" id="text-entity-VALIDATIONRULES-3f4923e6-535a-583e-a798-5abd6216558d" class="er entityLabel">VALIDATION-RULES</text></g><rect height="14" width="22.828125" y="104.96508026123047" x="221.75807189941406" class="er relationshipLabelBox"/><text style="text-anchor: middle; dominant-baseline: middle; font-size: 12px;" y="111.96508026123047" x="233.17213439941406" id="rel1" class="er relationshipLabel">uses</text><rect height="14" width="22.828125" y="313" x="58.5859375" class="er relationshipLabelBox"/><text style="text-anchor: middle; dominant-baseline: middle; font-size: 12px;" y="320" x="70" id="rel2" class="er relationshipLabel">uses</text><rect height="14" width="22.828125" y="138" x="473.10894775390625" class="er relationshipLabelBox"/><text style="text-anchor: middle; dominant-baseline: middle; font-size: 12px;" y="145" x="484.52301025390625" id="rel3" class="er relationshipLabel">uses</text><rect height="14" width="22.828125" y="290.10064697265625" x="323.6930236816406" class="er relationshipLabelBox"/><text style="text-anchor: middle; dominant-baseline: middle; font-size: 12px;" y="297.10064697265625" x="335.1070861816406" id="rel4" class="er relationshipLabel">uses</text><rect height="14" width="22.828125" y="488" x="263.491943359375" class="er relationshipLabelBox"/><text style="text-anchor: middle; dominant-baseline: middle; font-size: 12px;" y="495" x="274.906005859375" id="rel5" class="er relationshipLabel">uses</text><rect height="14" width="22.828125" y="313" x="473.10894775390625" class="er relationshipLabelBox"/><text style="text-anchor: middle; dominant-baseline: middle; font-size: 12px;" y="320" x="484.52301025390625" id="rel6" class="er relationshipLabel">uses</text><rect height="14" width="22.828125" y="488" x="473.10894775390625" class="er relationshipLabelBox"/><text style="text-anchor: middle; dominant-baseline: middle; font-size: 12px;" y="495" x="484.52301025390625" id="rel7" class="er relationshipLabel">uses</text><rect height="14" width="22.828125" y="290.3805236816406" x="621.2064819335938" class="er relationshipLabelBox"/><text style="text-anchor: middle; dominant-baseline: middle; font-size: 12px;" y="297.3805236816406" x="632.6205444335938" id="rel8" class="er relationshipLabel">uses</text><rect height="14" width="22.828125" y="488" x="680.0469360351562" class="er relationshipLabelBox"/><text style="text-anchor: middle; dominant-baseline: middle; font-size: 12px;" y="495" x="691.4609985351562" id="rel9" class="er relationshipLabel">uses</text><rect height="14" width="22.828125" y="104.72965240478516" x="728.954833984375" class="er relationshipLabelBox"/><text style="text-anchor: middle; dominant-baseline: middle; font-size: 12px;" y="111.72965240478516" x="740.368896484375" id="rel10" class="er relationshipLabel">uses</text><rect height="14" width="22.828125" y="313" x="896.8199462890625" class="er relationshipLabelBox"/><text style="text-anchor: middle; dominant-baseline: middle; font-size: 12px;" y="320" x="908.2340087890625" id="rel11" class="er relationshipLabel">uses</text><text class="entityTitleText" y="-25" x="496.390625" text-anchor="middle">Parse modules [2.26.23]</text></svg>