<svg aria-roledescription="er" role="graphics-document document" viewBox="0 0 1378.53125 640" style="max-width: 1378.53px; background-color: white;" xmlns:xlink="http://www.w3.org/1999/xlink" xmlns="http://www.w3.org/2000/svg" width="100%" id="my-svg"><style>#my-svg{font-family:"trebuchet ms",verdana,arial,sans-serif;font-size:16px;fill:#333;}#my-svg .error-icon{fill:#552222;}#my-svg .error-text{fill:#552222;stroke:#552222;}#my-svg .edge-thickness-normal{stroke-width:1px;}#my-svg .edge-thickness-thick{stroke-width:3.5px;}#my-svg .edge-pattern-solid{stroke-dasharray:0;}#my-svg .edge-thickness-invisible{stroke-width:0;fill:none;}#my-svg .edge-pattern-dashed{stroke-dasharray:3;}#my-svg .edge-pattern-dotted{stroke-dasharray:2;}#my-svg .marker{fill:#333333;stroke:#333333;}#my-svg .marker.cross{stroke:#333333;}#my-svg svg{font-family:"trebuchet ms",verdana,arial,sans-serif;font-size:16px;}#my-svg p{margin:0;}#my-svg .entityBox{fill:#ECECFF;stroke:#9370DB;}#my-svg .attributeBoxOdd{fill:#ffffff;stroke:#9370DB;}#my-svg .attributeBoxEven{fill:#f2f2f2;stroke:#9370DB;}#my-svg .relationshipLabelBox{fill:hsl(80, 100%, 96.2745098039%);opacity:0.7;background-color:hsl(80, 100%, 96.2745098039%);}#my-svg .relationshipLabelBox rect{opacity:0.5;}#my-svg .relationshipLine{stroke:#333333;}#my-svg .entityTitleText{text-anchor:middle;font-size:18px;fill:#333;}#my-svg #MD_PARENT_START{fill:#f5f5f5!important;stroke:#333333!important;stroke-width:1;}#my-svg #MD_PARENT_END{fill:#f5f5f5!important;stroke:#333333!important;stroke-width:1;}#my-svg :root{--mermaid-font-family:"trebuchet ms",verdana,arial,sans-serif;}</style><g/><defs><marker orient="auto" markerHeight="240" markerWidth="190" refY="7" refX="0" id="MD_PARENT_START"><path d="M 18,7 L9,13 L1,7 L9,1 Z"/></marker></defs><defs><marker orient="auto" markerHeight="28" markerWidth="20" refY="7" refX="19" id="MD_PARENT_END"><path d="M 18,7 L9,13 L1,7 L9,1 Z"/></marker></defs><defs><marker orient="auto" markerHeight="18" markerWidth="18" refY="9" refX="0" id="ONLY_ONE_START"><path d="M9,0 L9,18 M15,0 L15,18" fill="none" stroke="gray"/></marker></defs><defs><marker orient="auto" markerHeight="18" markerWidth="18" refY="9" refX="18" id="ONLY_ONE_END"><path d="M3,0 L3,18 M9,0 L9,18" fill="none" stroke="gray"/></marker></defs><defs><marker orient="auto" markerHeight="18" markerWidth="30" refY="9" refX="0" id="ZERO_OR_ONE_START"><circle r="6" cy="9" cx="21" fill="white" stroke="gray"/><path d="M9,0 L9,18" fill="none" stroke="gray"/></marker></defs><defs><marker orient="auto" markerHeight="18" markerWidth="30" refY="9" refX="30" id="ZERO_OR_ONE_END"><circle r="6" cy="9" cx="9" fill="white" stroke="gray"/><path d="M21,0 L21,18" fill="none" stroke="gray"/></marker></defs><defs><marker orient="auto" markerHeight="36" markerWidth="45" refY="18" refX="18" id="ONE_OR_MORE_START"><path d="M0,18 Q 18,0 36,18 Q 18,36 0,18 M42,9 L42,27" fill="none" stroke="gray"/></marker></defs><defs><marker orient="auto" markerHeight="36" markerWidth="45" refY="18" refX="27" id="ONE_OR_MORE_END"><path d="M3,9 L3,27 M9,18 Q27,0 45,18 Q27,36 9,18" fill="none" stroke="gray"/></marker></defs><defs><marker orient="auto" markerHeight="36" markerWidth="57" refY="18" refX="18" id="ZERO_OR_MORE_START"><circle r="6" cy="18" cx="48" fill="white" stroke="gray"/><path d="M0,18 Q18,0 36,18 Q18,36 0,18" fill="none" stroke="gray"/></marker></defs><defs><marker orient="auto" markerHeight="36" markerWidth="57" refY="18" refX="39" id="ZERO_OR_MORE_END"><circle r="6" cy="18" cx="9" fill="white" stroke="gray"/><path d="M21,18 Q39,0 57,18 Q39,36 21,18" fill="none" stroke="gray"/></marker></defs><path style="stroke: gray; fill: none;" marker-start="url(#ZERO_OR_ONE_START)" marker-end="url(#ZERO_OR_MORE_END)" d="M106.477,95L106.477,103.333C106.477,111.667,106.477,128.333,106.477,145C106.477,161.667,106.477,178.333,106.477,186.667L106.477,195" class="er relationshipLine"/><path style="stroke: gray; fill: none;" marker-start="url(#ZERO_OR_ONE_START)" marker-end="url(#ZERO_OR_MORE_END)" d="M106.477,270L106.477,278.333C106.477,286.667,106.477,303.333,106.477,320C106.477,336.667,106.477,353.333,106.477,361.667L106.477,370" class="er relationshipLine"/><path style="stroke: gray; fill: none;" marker-start="url(#ZERO_OR_ONE_START)" marker-end="url(#ZERO_OR_ONE_END)" d="M106.477,445L106.477,453.333C106.477,461.667,106.477,478.333,212.999,500.192C319.521,522.05,532.565,549.101,639.087,562.626L745.609,576.151" class="er relationshipLine"/><path style="stroke: gray; fill: none;" marker-start="url(#ZERO_OR_ONE_START)" marker-end="url(#ZERO_OR_ONE_END)" d="M358.563,445L358.563,453.333C358.563,461.667,358.563,478.333,423.07,499.582C487.578,520.83,616.594,546.66,681.102,559.575L745.609,572.49" class="er relationshipLine"/><path style="stroke: gray; fill: none;" marker-start="url(#ZERO_OR_ONE_START)" marker-end="url(#ZERO_OR_ONE_END)" d="M584.891,445L584.891,453.333C584.891,461.667,584.891,478.333,611.677,497.79C638.464,517.246,692.036,539.492,718.823,550.615L745.609,561.738" class="er relationshipLine"/><path style="stroke: gray; fill: none;" marker-start="url(#ZERO_OR_ONE_START)" marker-end="url(#ZERO_OR_MORE_END)" d="M358.563,270L358.563,278.333C358.563,286.667,358.563,303.333,358.563,320C358.563,336.667,358.563,353.333,358.563,361.667L358.563,370" class="er relationshipLine"/><path style="stroke: gray; fill: none;" marker-start="url(#ZERO_OR_MORE_START)" marker-end="url(#ZERO_OR_ONE_END)" d="M795.609,445L795.609,453.333C795.609,461.667,795.609,478.333,795.609,495C795.609,511.667,795.609,528.333,795.609,536.667L795.609,545" class="er relationshipLine"/><path style="stroke: gray; fill: none;" marker-start="url(#ZERO_OR_MORE_START)" marker-end="url(#ZERO_OR_MORE_END)" d="M902.752,270L909.895,278.333C917.038,286.667,931.324,303.333,938.467,326.25C945.609,349.167,945.609,378.333,945.609,407.5C945.609,436.667,945.609,465.833,928.943,490.139C912.276,514.444,878.943,533.889,862.276,543.611L845.609,553.333" class="er relationshipLine"/><path style="stroke: gray; fill: none;" marker-start="url(#ZERO_OR_MORE_START)" marker-end="url(#ZERO_OR_MORE_END)" d="M838.467,270L831.324,278.333C824.181,286.667,809.895,303.333,802.752,320C795.609,336.667,795.609,353.333,795.609,361.667L795.609,370" class="er relationshipLine"/><path style="stroke: gray; fill: none;" marker-start="url(#ONLY_ONE_START)" marker-end="url(#ONLY_ONE_END)" d="M1154.598,270L1144.767,278.333C1134.935,286.667,1115.272,303.333,1105.441,320C1095.609,336.667,1095.609,353.333,1095.609,361.667L1095.609,370" class="er relationshipLine"/><path style="stroke: gray; fill: none;" marker-start="url(#ONLY_ONE_START)" marker-end="url(#ONLY_ONE_END)" d="M1243.081,270L1252.913,278.333C1262.744,286.667,1282.407,303.333,1292.239,320C1302.07,336.667,1302.07,353.333,1302.07,361.667L1302.07,370" class="er relationshipLine"/><path style="stroke: gray; fill: none;" marker-start="url(#ZERO_OR_ONE_START)" marker-end="url(#ONE_OR_MORE_END)" d="M1095.609,445L1095.609,453.333C1095.609,461.667,1095.609,478.333,1053.943,498.819C1012.276,519.306,928.943,543.611,887.276,555.764L845.609,567.917" class="er relationshipLine"/><path style="stroke: gray; fill: none;" marker-start="url(#ZERO_OR_ONE_START)" marker-end="url(#ONE_OR_MORE_END)" d="M1302.07,445L1302.07,453.333C1302.07,461.667,1302.07,478.333,1225.993,499.81C1149.917,521.287,997.763,547.574,921.686,560.718L845.609,573.862" class="er relationshipLine"/><g transform="translate(44.46875,20 )" id="entity-PATTERNLIBRARY-bc0ebd54-868b-504c-b4ce-f027a2eb57e8"><rect height="75" width="124.015625" y="0" x="0" class="er entityBox"/><text style="dominant-baseline: middle; text-anchor: middle; font-size: 12px;" transform="translate(62.0078125,37.5)" y="0" x="0" id="text-entity-PATTERNLIBRARY-bc0ebd54-868b-504c-b4ce-f027a2eb57e8" class="er entityLabel">PATTERN-LIBRARY</text></g><g transform="translate(35.8984375,195 )" id="entity-PATTERNDEFINITION-6862abee-99b1-5f64-a7c7-ad1ca79c3933"><rect height="75" width="141.15625" y="0" x="0" class="er entityBox"/><text style="dominant-baseline: middle; text-anchor: middle; font-size: 12px;" transform="translate(70.578125,37.5)" y="0" x="0" id="text-entity-PATTERNDEFINITION-6862abee-99b1-5f64-a7c7-ad1ca79c3933" class="er entityLabel">PATTERN-DEFINITION</text></g><g transform="translate(20,370 )" id="entity-PATTERMIMPLEMENTATION-09993fde-8ef7-5543-8af0-1aa03d6d6338"><rect height="75" width="172.953125" y="0" x="0" class="er entityBox"/><text style="dominant-baseline: middle; text-anchor: middle; font-size: 12px;" transform="translate(86.4765625,37.5)" y="0" x="0" id="text-entity-PATTERMIMPLEMENTATION-09993fde-8ef7-5543-8af0-1aa03d6d6338" class="er entityLabel">PATTERM-IMPLEMENTATION</text></g><g transform="translate(745.609375,545 )" id="entity-TEMPLATE-a55023da-16e5-5976-ba0c-7f33941f776e"><rect height="75" width="100" y="0" x="0" class="er entityBox"/><text style="dominant-baseline: middle; text-anchor: middle; font-size: 12px;" transform="translate(50,37.5)" y="0" x="0" id="text-entity-TEMPLATE-a55023da-16e5-5976-ba0c-7f33941f776e" class="er entityLabel">TEMPLATE</text></g><g transform="translate(292.953125,370 )" id="entity-TEMPLATESCHEMA-bfe080fe-25bd-5123-a17b-4476f7f59145"><rect height="75" width="131.21875" y="0" x="0" class="er entityBox"/><text style="dominant-baseline: middle; text-anchor: middle; font-size: 12px;" transform="translate(65.609375,37.5)" y="0" x="0" id="text-entity-TEMPLATESCHEMA-bfe080fe-25bd-5123-a17b-4476f7f59145" class="er entityLabel">TEMPLATE-SCHEMA</text></g><g transform="translate(524.171875,370 )" id="entity-TEMPLATERULES-4cc7f293-8a7a-5aac-b1ce-dbeaea533d21"><rect height="75" width="121.4375" y="0" x="0" class="er entityBox"/><text style="dominant-baseline: middle; text-anchor: middle; font-size: 12px;" transform="translate(60.71875,37.5)" y="0" x="0" id="text-entity-TEMPLATERULES-4cc7f293-8a7a-5aac-b1ce-dbeaea533d21" class="er entityLabel">TEMPLATE-RULES</text></g><g transform="translate(308.5625,195 )" id="entity-ARCHETYPE-137ea317-d27e-551a-8a62-6c2cf911812a"><rect height="75" width="100" y="0" x="0" class="er entityBox"/><text style="dominant-baseline: middle; text-anchor: middle; font-size: 12px;" transform="translate(50,37.5)" y="0" x="0" id="text-entity-ARCHETYPE-137ea317-d27e-551a-8a62-6c2cf911812a" class="er entityLabel">ARCHETYPE</text></g><g transform="translate(745.609375,370 )" id="entity-UNIT-21a3c401-0e70-5c7b-bead-7cfbb2a25ea1"><rect height="75" width="100" y="0" x="0" class="er entityBox"/><text style="dominant-baseline: middle; text-anchor: middle; font-size: 12px;" transform="translate(50,37.5)" y="0" x="0" id="text-entity-UNIT-21a3c401-0e70-5c7b-bead-7cfbb2a25ea1" class="er entityLabel">UNIT</text></g><g transform="translate(820.609375,195 )" id="entity-COMPONENT-d249d13d-360c-585b-adeb-0241362d7f78"><rect height="75" width="100" y="0" x="0" class="er entityBox"/><text style="dominant-baseline: middle; text-anchor: middle; font-size: 12px;" transform="translate(50,37.5)" y="0" x="0" id="text-entity-COMPONENT-d249d13d-360c-585b-adeb-0241362d7f78" class="er entityLabel">COMPONENT</text></g><g transform="translate(1148.83984375,195 )" id="entity-PORTFOLIO-9b21d1d1-53a7-5598-9afe-65b1907d710b"><rect height="75" width="100" y="0" x="0" class="er entityBox"/><text style="dominant-baseline: middle; text-anchor: middle; font-size: 12px;" transform="translate(50,37.5)" y="0" x="0" id="text-entity-PORTFOLIO-9b21d1d1-53a7-5598-9afe-65b1907d710b" class="er entityLabel">PORTFOLIO</text></g><g transform="translate(1045.609375,370 )" id="entity-DOCDESIGN-ab5441f2-c96e-5a9a-92e3-74a7b57584d4"><rect height="75" width="100" y="0" x="0" class="er entityBox"/><text style="dominant-baseline: middle; text-anchor: middle; font-size: 12px;" transform="translate(50,37.5)" y="0" x="0" id="text-entity-DOCDESIGN-ab5441f2-c96e-5a9a-92e3-74a7b57584d4" class="er entityLabel">DOCDESIGN</text></g><g transform="translate(1245.609375,370 )" id="entity-MODULEDESIGN-f457d076-eac5-5630-a60e-8c1154778fd2"><rect height="75" width="112.921875" y="0" x="0" class="er entityBox"/><text style="dominant-baseline: middle; text-anchor: middle; font-size: 12px;" transform="translate(56.4609375,37.5)" y="0" x="0" id="text-entity-MODULEDESIGN-f457d076-eac5-5630-a60e-8c1154778fd2" class="er entityLabel">MODULEDESIGN</text></g><rect height="14" width="21.4375" y="138" x="95.75824737548828" class="er relationshipLabelBox"/><text style="text-anchor: middle; dominant-baseline: middle; font-size: 12px;" y="145" x="106.47699737548828" id="rel1" class="er relationshipLabel">lists</text><rect height="14" width="57.3125" y="313" x="77.82074737548828" class="er relationshipLabelBox"/><text style="text-anchor: middle; dominant-baseline: middle; font-size: 12px;" y="320" x="106.47699737548828" id="rel2" class="er relationshipLabel">references</text><rect height="14" width="46.375" y="525.884765625" x="391.1376647949219" class="er relationshipLabelBox"/><text style="text-anchor: middle; dominant-baseline: middle; font-size: 12px;" y="532.884765625" x="414.3251647949219" id="rel3" class="er relationshipLabel">instructs</text><rect height="14" width="56" y="522.6338500976562" x="510.3748779296875" class="er relationshipLabelBox"/><text style="text-anchor: middle; dominant-baseline: middle; font-size: 12px;" y="529.6338500976562" x="538.3748779296875" id="rel4" class="er relationshipLabel">structured</text><rect height="14" width="57.890625" y="512.4100341796875" x="619.9202270507812" class="er relationshipLabelBox"/><text style="text-anchor: middle; dominant-baseline: middle; font-size: 12px;" y="519.4100341796875" x="648.8655395507812" id="rel5" class="er relationshipLabel">defined-by</text><rect height="14" width="39.046875" y="313" x="339.03955078125" class="er relationshipLabelBox"/><text style="text-anchor: middle; dominant-baseline: middle; font-size: 12px;" y="320" x="358.56298828125" id="rel6" class="er relationshipLabel">defines</text><rect height="14" width="44.8359375" y="488" x="773.1910400390625" class="er relationshipLabelBox"/><text style="text-anchor: middle; dominant-baseline: middle; font-size: 12px;" y="495" x="795.6090087890625" id="rel7" class="er relationshipLabel">made-of</text><rect height="14" width="44.8359375" y="421.541015625" x="922.956298828125" class="er relationshipLabelBox"/><text style="text-anchor: middle; dominant-baseline: middle; font-size: 12px;" y="428.541015625" x="945.374267578125" id="rel8" class="er relationshipLabel">made-of</text><rect height="14" width="44.8359375" y="308.12554931640625" x="782.6177368164062" class="er relationshipLabelBox"/><text style="text-anchor: middle; dominant-baseline: middle; font-size: 12px;" y="315.12554931640625" x="805.0357055664062" id="rel9" class="er relationshipLabel">made-of</text><rect height="14" width="44.84375" y="305.24383544921875" x="1088.25390625" class="er relationshipLabelBox"/><text style="text-anchor: middle; dominant-baseline: middle; font-size: 12px;" y="312.24383544921875" x="1110.67578125" id="rel10" class="er relationshipLabel">contains</text><rect height="14" width="44.84375" y="305.24371337890625" x="1264.5816650390625" class="er relationshipLabelBox"/><text style="text-anchor: middle; dominant-baseline: middle; font-size: 12px;" y="312.24371337890625" x="1287.0035400390625" id="rel11" class="er relationshipLabel">contains</text><rect height="14" width="51.578125" y="518.3453979492188" x="960.1450805664062" class="er relationshipLabelBox"/><text style="text-anchor: middle; dominant-baseline: middle; font-size: 12px;" y="525.3453979492188" x="985.9341430664062" id="rel12" class="er relationshipLabel">expresses</text><rect height="14" width="51.578125" y="523.8750610351562" x="1061.099853515625" class="er relationshipLabelBox"/><text style="text-anchor: middle; dominant-baseline: middle; font-size: 12px;" y="530.8750610351562" x="1086.888916015625" id="rel13" class="er relationshipLabel">expresses</text></svg>