<svg aria-roledescription="quadrantChart" role="graphics-document document" viewBox="0 0 500 500" style="max-width: 500px; background-color: white;" xmlns:xlink="http://www.w3.org/1999/xlink" xmlns="http://www.w3.org/2000/svg" width="100%" id="my-svg"><style>#my-svg{font-family:verdana;font-size:16px;fill:#1f1b30;}#my-svg .error-icon{fill:#fff;}#my-svg .error-text{fill:#000000;stroke:#000000;}#my-svg .edge-thickness-normal{stroke-width:1px;}#my-svg .edge-thickness-thick{stroke-width:3.5px;}#my-svg .edge-pattern-solid{stroke-dasharray:0;}#my-svg .edge-thickness-invisible{stroke-width:0;fill:none;}#my-svg .edge-pattern-dashed{stroke-dasharray:3;}#my-svg .edge-pattern-dotted{stroke-dasharray:2;}#my-svg .marker{fill:#1f1b30;stroke:#1f1b30;}#my-svg .marker.cross{stroke:#1f1b30;}#my-svg svg{font-family:verdana;font-size:16px;}#my-svg p{margin:0;}#my-svg :root{--mermaid-font-family:"trebuchet ms",verdana,arial,sans-serif;}</style><g/><g class="main"><g class="quadrants"><g class="quadrant"><rect fill="#fff" height="232" width="232" y="5" x="263"/><text transform="translate(379, 10) rotate(0)" text-anchor="middle" dominant-baseline="hanging" font-size="16" fill="#1f1b30" y="0" x="0">Opportunities</text></g><g class="quadrant"><rect fill="#ffffff" height="232" width="232" y="5" x="31"/><text transform="translate(147, 10) rotate(0)" text-anchor="middle" dominant-baseline="hanging" font-size="16" fill="#1a162b" y="0" x="0">Strengths</text></g><g class="quadrant"><rect fill="#ffffff" height="232" width="232" y="237" x="31"/><text transform="translate(147, 242) rotate(0)" text-anchor="middle" dominant-baseline="hanging" font-size="16" fill="#151126" y="0" x="0">Weaknesses</text></g><g class="quadrant"><rect fill="#ffffff" height="232" width="232" y="237" x="263"/><text transform="translate(379, 242) rotate(0)" text-anchor="middle" dominant-baseline="hanging" font-size="16" fill="#100c21" y="0" x="0">Threats</text></g></g><g class="border"><line style="stroke: rgb(255, 36, 83); stroke-width: 2;" y2="5" x2="496" y1="5" x1="30"/><line style="stroke: rgb(255, 36, 83); stroke-width: 2;" y2="468" x2="495" y1="6" x1="495"/><line style="stroke: rgb(255, 36, 83); stroke-width: 2;" y2="469" x2="496" y1="469" x1="30"/><line style="stroke: rgb(255, 36, 83); stroke-width: 2;" y2="468" x2="31" y1="6" x1="31"/><line style="stroke: rgb(255, 36, 83); stroke-width: 1;" y2="468" x2="263" y1="6" x1="263"/><line style="stroke: rgb(255, 36, 83); stroke-width: 1;" y2="237" x2="494" y1="237" x1="32"/></g><g class="data-points"><g class="data-point"><circle stroke-width="0px" stroke="hsl(0, 0%, NaN%)" fill="hsl(0, 0%, NaN%)" r="5" cy="422.6" cx="448.6"/><text transform="translate(448.6, 427.6) rotate(0)" text-anchor="middle" dominant-baseline="hanging" font-size="12" fill="#1f1b30" y="0" x="0">Migration Laws</text></g><g class="data-point"><circle stroke-width="0px" stroke="hsl(0, 0%, NaN%)" fill="hsl(0, 0%, NaN%)" r="5" cy="376.20000000000005" cx="309.4"/><text transform="translate(309.4, 381.20000000000005) rotate(0)" text-anchor="middle" dominant-baseline="hanging" font-size="12" fill="#1f1b30" y="0" x="0">Competition</text></g><g class="data-point"><circle stroke-width="0px" stroke="hsl(0, 0%, NaN%)" fill="hsl(0, 0%, NaN%)" r="5" cy="329.79999999999995" cx="355.8"/><text transform="translate(355.8, 334.79999999999995) rotate(0)" text-anchor="middle" dominant-baseline="hanging" font-size="12" fill="#1f1b30" y="0" x="0">Workforce Changes</text></g><g class="data-point"><circle stroke-width="0px" stroke="hsl(0, 0%, NaN%)" fill="hsl(0, 0%, NaN%)" r="5" cy="283.4" cx="309.4"/><text transform="translate(309.4, 288.4) rotate(0)" text-anchor="middle" dominant-baseline="hanging" font-size="12" fill="#1f1b30" y="0" x="0">AI Automation</text></g><g class="data-point"><circle stroke-width="0px" stroke="hsl(0, 0%, NaN%)" fill="hsl(0, 0%, NaN%)" r="5" cy="51.39999999999999" cx="402.2"/><text transform="translate(402.2, 56.39999999999999) rotate(0)" text-anchor="middle" dominant-baseline="hanging" font-size="12" fill="#1f1b30" y="0" x="0">Referrals</text></g><g class="data-point"><circle stroke-width="0px" stroke="hsl(0, 0%, NaN%)" fill="hsl(0, 0%, NaN%)" r="5" cy="144.20000000000002" cx="402.2"/><text transform="translate(402.2, 149.20000000000002) rotate(0)" text-anchor="middle" dominant-baseline="hanging" font-size="12" fill="#1f1b30" y="0" x="0">Further Education</text></g><g class="data-point"><circle stroke-width="0px" stroke="hsl(0, 0%, NaN%)" fill="hsl(0, 0%, NaN%)" r="5" cy="51.39999999999999" cx="309.4"/><text transform="translate(309.4, 56.39999999999999) rotate(0)" text-anchor="middle" dominant-baseline="hanging" font-size="12" fill="#1f1b30" y="0" x="0">Networking</text></g><g class="data-point"><circle stroke-width="0px" stroke="hsl(0, 0%, NaN%)" fill="hsl(0, 0%, NaN%)" r="5" cy="97.79999999999998" cx="323.32000000000005"/><text transform="translate(323.32000000000005, 102.79999999999998) rotate(0)" text-anchor="middle" dominant-baseline="hanging" font-size="12" fill="#1f1b30" y="0" x="0">Open Career Paths</text></g><g class="data-point"><circle stroke-width="0px" stroke="hsl(0, 0%, NaN%)" fill="hsl(0, 0%, NaN%)" r="5" cy="376.20000000000005" cx="142.35999999999999"/><text transform="translate(142.35999999999999, 381.20000000000005) rotate(0)" text-anchor="middle" dominant-baseline="hanging" font-size="12" fill="#1f1b30" y="0" x="0">Seeking Opportunities</text></g><g class="data-point"><circle stroke-width="0px" stroke="hsl(0, 0%, NaN%)" fill="hsl(0, 0%, NaN%)" r="5" cy="353" cx="193.4"/><text transform="translate(193.4, 358) rotate(0)" text-anchor="middle" dominant-baseline="hanging" font-size="12" fill="#1f1b30" y="0" x="0">Industry Experience</text></g><g class="data-point"><circle stroke-width="0px" stroke="hsl(0, 0%, NaN%)" fill="hsl(0, 0%, NaN%)" r="5" cy="306.6" cx="123.8"/><text transform="translate(123.8, 311.6) rotate(0)" text-anchor="middle" dominant-baseline="hanging" font-size="12" fill="#1f1b30" y="0" x="0">Emotional Intelligence</text></g><g class="data-point"><circle stroke-width="0px" stroke="hsl(0, 0%, NaN%)" fill="hsl(0, 0%, NaN%)" r="5" cy="427.24" cx="91.32000000000001"/><text transform="translate(91.32000000000001, 432.24) rotate(0)" text-anchor="middle" dominant-baseline="hanging" font-size="12" fill="#1f1b30" y="0" x="0">Work-Life Balance</text></g><g class="data-point"><circle stroke-width="0px" stroke="hsl(0, 0%, NaN%)" fill="hsl(0, 0%, NaN%)" r="5" cy="269.48" cx="123.8"/><text transform="translate(123.8, 274.48) rotate(0)" text-anchor="middle" dominant-baseline="hanging" font-size="12" fill="#1f1b30" y="0" x="0">Introversion</text></g><g class="data-point"><circle stroke-width="0px" stroke="hsl(0, 0%, NaN%)" fill="hsl(0, 0%, NaN%)" r="5" cy="283.4" cx="216.6"/><text transform="translate(216.6, 288.4) rotate(0)" text-anchor="middle" dominant-baseline="hanging" font-size="12" fill="#1f1b30" y="0" x="0">Self-Doubt</text></g><g class="data-point"><circle stroke-width="0px" stroke="hsl(0, 0%, NaN%)" fill="hsl(0, 0%, NaN%)" r="5" cy="413.32000000000005" cx="193.4"/><text transform="translate(193.4, 418.32000000000005) rotate(0)" text-anchor="middle" dominant-baseline="hanging" font-size="12" fill="#1f1b30" y="0" x="0">Setting Boundaries</text></g><g class="data-point"><circle stroke-width="0px" stroke="hsl(0, 0%, NaN%)" fill="hsl(0, 0%, NaN%)" r="5" cy="445.79999999999995" cx="216.6"/><text transform="translate(216.6, 450.79999999999995) rotate(0)" text-anchor="middle" dominant-baseline="hanging" font-size="12" fill="#1f1b30" y="0" x="0">Anxiety</text></g><g class="data-point"><circle stroke-width="0px" stroke="hsl(0, 0%, NaN%)" fill="hsl(0, 0%, NaN%)" r="5" cy="144.20000000000002" cx="170.2"/><text transform="translate(170.2, 149.20000000000002) rotate(0)" text-anchor="middle" dominant-baseline="hanging" font-size="12" fill="#1f1b30" y="0" x="0">Productivity</text></g><g class="data-point"><circle stroke-width="0px" stroke="hsl(0, 0%, NaN%)" fill="hsl(0, 0%, NaN%)" r="5" cy="158.11999999999998" cx="100.6"/><text transform="translate(100.6, 163.11999999999998) rotate(0)" text-anchor="middle" dominant-baseline="hanging" font-size="12" fill="#1f1b30" y="0" x="0">Passion</text></g><g class="data-point"><circle stroke-width="0px" stroke="hsl(0, 0%, NaN%)" fill="hsl(0, 0%, NaN%)" r="5" cy="121" cx="123.8"/><text transform="translate(123.8, 126) rotate(0)" text-anchor="middle" dominant-baseline="hanging" font-size="12" fill="#1f1b30" y="0" x="0">Work Ethic</text></g><g class="data-point"><circle stroke-width="0px" stroke="hsl(0, 0%, NaN%)" fill="hsl(0, 0%, NaN%)" r="5" cy="88.52000000000001" cx="216.6"/><text transform="translate(216.6, 93.52000000000001) rotate(0)" text-anchor="middle" dominant-baseline="hanging" font-size="12" fill="#1f1b30" y="0" x="0">Learning</text></g><g class="data-point"><circle stroke-width="0px" stroke="hsl(0, 0%, NaN%)" fill="hsl(0, 0%, NaN%)" r="5" cy="97.79999999999998" cx="77.4"/><text transform="translate(77.4, 102.79999999999998) rotate(0)" text-anchor="middle" dominant-baseline="hanging" font-size="12" fill="#1f1b30" y="0" x="0">Independence</text></g><g class="data-point"><circle stroke-width="0px" stroke="hsl(0, 0%, NaN%)" fill="hsl(0, 0%, NaN%)" r="5" cy="190.60000000000002" cx="77.4"/><text transform="translate(77.4, 195.60000000000002) rotate(0)" text-anchor="middle" dominant-baseline="hanging" font-size="12" fill="#1f1b30" y="0" x="0">Teamwork</text></g><g class="data-point"><circle stroke-width="0px" stroke="hsl(0, 0%, NaN%)" fill="hsl(0, 0%, NaN%)" r="5" cy="60.68" cx="193.4"/><text transform="translate(193.4, 65.68) rotate(0)" text-anchor="middle" dominant-baseline="hanging" font-size="12" fill="#1f1b30" y="0" x="0">Communication</text></g><g class="data-point"><circle stroke-width="0px" stroke="hsl(0, 0%, NaN%)" fill="hsl(0, 0%, NaN%)" r="5" cy="51.39999999999999" cx="86.68"/><text transform="translate(86.68, 56.39999999999999) rotate(0)" text-anchor="middle" dominant-baseline="hanging" font-size="12" fill="#1f1b30" y="0" x="0">Problem Solving</text></g></g><g class="labels"><g class="label"><text transform="translate(147, 479) rotate(0)" text-anchor="middle" dominant-baseline="hanging" font-size="16" fill="#1f1b30" y="0" x="0">Internal Factors</text></g><g class="label"><text transform="translate(379, 479) rotate(0)" text-anchor="middle" dominant-baseline="hanging" font-size="16" fill="#1f1b30" y="0" x="0">External Factors</text></g><g class="label"><text transform="translate(5, 353) rotate(-90)" text-anchor="middle" dominant-baseline="hanging" font-size="16" fill="#1f1b30" y="0" x="0">Harmful</text></g><g class="label"><text transform="translate(5, 121) rotate(-90)" text-anchor="middle" dominant-baseline="hanging" font-size="16" fill="#1f1b30" y="0" x="0">Beneficial</text></g></g><g class="title"/></g></svg>