<svg aria-roledescription="er" role="graphics-document document" viewBox="0 0 505.984375 700.55078125" style="max-width: 505.984px; background-color: white;" xmlns:xlink="http://www.w3.org/1999/xlink" xmlns="http://www.w3.org/2000/svg" width="100%" id="my-svg"><style>#my-svg{font-family:"trebuchet ms",verdana,arial,sans-serif;font-size:16px;fill:#333;}#my-svg .error-icon{fill:#552222;}#my-svg .error-text{fill:#552222;stroke:#552222;}#my-svg .edge-thickness-normal{stroke-width:1px;}#my-svg .edge-thickness-thick{stroke-width:3.5px;}#my-svg .edge-pattern-solid{stroke-dasharray:0;}#my-svg .edge-thickness-invisible{stroke-width:0;fill:none;}#my-svg .edge-pattern-dashed{stroke-dasharray:3;}#my-svg .edge-pattern-dotted{stroke-dasharray:2;}#my-svg .marker{fill:#333333;stroke:#333333;}#my-svg .marker.cross{stroke:#333333;}#my-svg svg{font-family:"trebuchet ms",verdana,arial,sans-serif;font-size:16px;}#my-svg p{margin:0;}#my-svg .entityBox{fill:#ECECFF;stroke:#9370DB;}#my-svg .attributeBoxOdd{fill:#ffffff;stroke:#9370DB;}#my-svg .attributeBoxEven{fill:#f2f2f2;stroke:#9370DB;}#my-svg .relationshipLabelBox{fill:hsl(80, 100%, 96.2745098039%);opacity:0.7;background-color:hsl(80, 100%, 96.2745098039%);}#my-svg .relationshipLabelBox rect{opacity:0.5;}#my-svg .relationshipLine{stroke:#333333;}#my-svg .entityTitleText{text-anchor:middle;font-size:18px;fill:#333;}#my-svg #MD_PARENT_START{fill:#f5f5f5!important;stroke:#333333!important;stroke-width:1;}#my-svg #MD_PARENT_END{fill:#f5f5f5!important;stroke:#333333!important;stroke-width:1;}#my-svg :root{--mermaid-font-family:"trebuchet ms",verdana,arial,sans-serif;}</style><g/><defs><marker orient="auto" markerHeight="240" markerWidth="190" refY="7" refX="0" id="MD_PARENT_START"><path d="M 18,7 L9,13 L1,7 L9,1 Z"/></marker></defs><defs><marker orient="auto" markerHeight="28" markerWidth="20" refY="7" refX="19" id="MD_PARENT_END"><path d="M 18,7 L9,13 L1,7 L9,1 Z"/></marker></defs><defs><marker orient="auto" markerHeight="18" markerWidth="18" refY="9" refX="0" id="ONLY_ONE_START"><path d="M9,0 L9,18 M15,0 L15,18" fill="none" stroke="gray"/></marker></defs><defs><marker orient="auto" markerHeight="18" markerWidth="18" refY="9" refX="18" id="ONLY_ONE_END"><path d="M3,0 L3,18 M9,0 L9,18" fill="none" stroke="gray"/></marker></defs><defs><marker orient="auto" markerHeight="18" markerWidth="30" refY="9" refX="0" id="ZERO_OR_ONE_START"><circle r="6" cy="9" cx="21" fill="white" stroke="gray"/><path d="M9,0 L9,18" fill="none" stroke="gray"/></marker></defs><defs><marker orient="auto" markerHeight="18" markerWidth="30" refY="9" refX="30" id="ZERO_OR_ONE_END"><circle r="6" cy="9" cx="9" fill="white" stroke="gray"/><path d="M21,0 L21,18" fill="none" stroke="gray"/></marker></defs><defs><marker orient="auto" markerHeight="36" markerWidth="45" refY="18" refX="18" id="ONE_OR_MORE_START"><path d="M0,18 Q 18,0 36,18 Q 18,36 0,18 M42,9 L42,27" fill="none" stroke="gray"/></marker></defs><defs><marker orient="auto" markerHeight="36" markerWidth="45" refY="18" refX="27" id="ONE_OR_MORE_END"><path d="M3,9 L3,27 M9,18 Q27,0 45,18 Q27,36 9,18" fill="none" stroke="gray"/></marker></defs><defs><marker orient="auto" markerHeight="36" markerWidth="57" refY="18" refX="18" id="ZERO_OR_MORE_START"><circle r="6" cy="18" cx="48" fill="white" stroke="gray"/><path d="M0,18 Q18,0 36,18 Q18,36 0,18" fill="none" stroke="gray"/></marker></defs><defs><marker orient="auto" markerHeight="36" markerWidth="57" refY="18" refX="39" id="ZERO_OR_MORE_END"><circle r="6" cy="18" cx="9" fill="white" stroke="gray"/><path d="M21,18 Q39,0 57,18 Q39,36 21,18" fill="none" stroke="gray"/></marker></defs><path style="stroke: gray; fill: none;" marker-start="url(#ONLY_ONE_START)" marker-end="url(#ONLY_ONE_END)" d="M58.356,245.229L53.009,255.404C47.662,265.578,36.968,285.927,31.621,313.775C26.273,341.624,26.273,376.973,26.273,412.321C26.273,447.67,26.273,483.019,37.881,510.303C49.488,537.588,72.703,556.809,84.311,566.419L95.918,576.03" class="er relationshipLine"/><path style="stroke: gray; fill: none;" marker-start="url(#ONE_OR_MORE_START)" marker-end="url(#ONLY_ONE_END)" d="M254.41,468.367L254.41,476.701C254.41,485.034,254.41,501.701,246.555,518.367C238.7,535.034,222.991,551.701,215.136,560.034L207.281,568.367" class="er relationshipLine"/><path style="stroke: gray; fill: none;" marker-start="url(#ONLY_ONE_START)" marker-end="url(#ONE_OR_MORE_END)" d="M94.191,245.229L99.538,255.404C104.885,265.578,115.579,285.927,132.43,305.621C149.28,325.316,172.286,344.356,183.79,353.876L195.293,363.396" class="er relationshipLine"/><path style="stroke: gray; fill: none;" marker-start="url(#ONE_OR_MORE_START)" marker-end="url(#ONLY_ONE_END)" d="M129.792,66L120.872,74.333C111.952,82.667,94.113,99.333,85.193,117.841C76.273,136.349,76.273,156.697,76.273,166.872L76.273,177.046" class="er relationshipLine"/><path style="stroke: gray; fill: none;" marker-start="url(#ONE_OR_MORE_START)" marker-end="url(#ONE_OR_MORE_END)" d="M194.782,66L209.409,74.333C224.037,82.667,253.292,99.333,267.919,123.523C282.547,147.713,282.547,179.425,282.547,211.138C282.547,242.85,282.547,274.563,280.336,298.752C278.125,322.942,273.703,339.609,271.492,347.942L269.281,356.275" class="er relationshipLine"/><path style="stroke: gray; fill: none;" marker-start="url(#ONE_OR_MORE_START)" marker-end="url(#ONE_OR_MORE_END)" d="M434.266,256.275L434.266,264.609C434.266,272.942,434.266,289.609,414.143,309.807C394.02,330.005,353.773,353.735,333.65,365.6L313.527,377.465" class="er relationshipLine"/><g transform="translate(382.546875,166 )" id="entity-Attacken-80c766d4-3763-5a70-b550-b51bf2d576a4"><rect height="90.27539253234863" width="103.4375" y="0" x="0" class="er entityBox"/><text style="dominant-baseline: middle; text-anchor: middle; font-size: 12px;" transform="translate(51.71875,12)" y="0" x="0" id="text-entity-Attacken-80c766d4-3763-5a70-b550-b51bf2d576a4" class="er entityLabel">Attacken</text><rect height="22.091797828674316" width="35.75" y="24" x="0" class="er attributeBoxOdd"/><text style="dominant-baseline: middle; font-size: 10.2px;" transform="translate(5,35.04589891433716)" y="0" x="0" id="text-entity-Attacken-80c766d4-3763-5a70-b550-b51bf2d576a4-attr-1-type" class="er entityLabel">string</text><rect height="22.091797828674316" width="46.125" y="24" x="35.75" class="er attributeBoxOdd"/><text style="dominant-baseline: middle; font-size: 10.2px;" transform="translate(40.75,35.04589891433716)" y="0" x="0" id="text-entity-Attacken-80c766d4-3763-5a70-b550-b51bf2d576a4-attr-1-name" class="er entityLabel">Name</text><rect height="22.091797828674316" width="21.5625" y="24" x="81.875" class="er attributeBoxOdd"/><text style="dominant-baseline: middle; font-size: 10.2px;" transform="translate(86.875,35.04589891433716)" y="0" x="0" id="text-entity-Attacken-80c766d4-3763-5a70-b550-b51bf2d576a4-attr-1-key" class="er entityLabel">PK</text><rect height="22.091797828674316" width="35.75" y="46.091797828674316" x="0" class="er attributeBoxEven"/><text style="dominant-baseline: middle; font-size: 10.2px;" transform="translate(5,57.137696743011475)" y="0" x="0" id="text-entity-Attacken-80c766d4-3763-5a70-b550-b51bf2d576a4-attr-2-type" class="er entityLabel">string</text><rect height="22.091797828674316" width="46.125" y="46.091797828674316" x="35.75" class="er attributeBoxEven"/><text style="dominant-baseline: middle; font-size: 10.2px;" transform="translate(40.75,57.137696743011475)" y="0" x="0" id="text-entity-Attacken-80c766d4-3763-5a70-b550-b51bf2d576a4-attr-2-name" class="er entityLabel">Type</text><rect height="22.091797828674316" width="21.5625" y="46.091797828674316" x="81.875" class="er attributeBoxEven"/><text style="dominant-baseline: middle; font-size: 10.2px;" transform="translate(86.875,57.137696743011475)" y="0" x="0" id="text-entity-Attacken-80c766d4-3763-5a70-b550-b51bf2d576a4-attr-2-key" class="er entityLabel"/><rect height="22.091796875" width="35.75" y="68.18359565734863" x="0" class="er attributeBoxOdd"/><text style="dominant-baseline: middle; font-size: 10.2px;" transform="translate(5,79.22949409484863)" y="0" x="0" id="text-entity-Attacken-80c766d4-3763-5a70-b550-b51bf2d576a4-attr-3-type" class="er entityLabel">int</text><rect height="22.091796875" width="46.125" y="68.18359565734863" x="35.75" class="er attributeBoxOdd"/><text style="dominant-baseline: middle; font-size: 10.2px;" transform="translate(40.75,79.22949409484863)" y="0" x="0" id="text-entity-Attacken-80c766d4-3763-5a70-b550-b51bf2d576a4-attr-3-name" class="er entityLabel">Damage</text><rect height="22.091796875" width="21.5625" y="68.18359565734863" x="81.875" class="er attributeBoxOdd"/><text style="dominant-baseline: middle; font-size: 10.2px;" transform="translate(86.875,79.22949409484863)" y="0" x="0" id="text-entity-Attacken-80c766d4-3763-5a70-b550-b51bf2d576a4-attr-3-key" class="er entityLabel"/></g><g transform="translate(195.29296875,356.275390625 )" id="entity-Pokemon-2d359b9b-1dd9-5b69-8fd1-1ac2d4959051"><rect height="112.09179782867432" width="118.234375" y="0" x="0" class="er entityBox"/><text style="dominant-baseline: middle; text-anchor: middle; font-size: 12px;" transform="translate(59.1171875,12)" y="0" x="0" id="text-entity-Pokemon-2d359b9b-1dd9-5b69-8fd1-1ac2d4959051" class="er entityLabel">Pokemon</text><rect height="22" width="35.75" y="24" x="0" class="er attributeBoxOdd"/><text style="dominant-baseline: middle; font-size: 10.2px;" transform="translate(5,35)" y="0" x="0" id="text-entity-Pokemon-2d359b9b-1dd9-5b69-8fd1-1ac2d4959051-attr-1-type" class="er entityLabel">int</text><rect height="22" width="60.921875" y="24" x="35.75" class="er attributeBoxOdd"/><text style="dominant-baseline: middle; font-size: 10.2px;" transform="translate(40.75,35)" y="0" x="0" id="text-entity-Pokemon-2d359b9b-1dd9-5b69-8fd1-1ac2d4959051-attr-1-name" class="er entityLabel">ID</text><rect height="22" width="21.5625" y="24" x="96.671875" class="er attributeBoxOdd"/><text style="dominant-baseline: middle; font-size: 10.2px;" transform="translate(101.671875,35)" y="0" x="0" id="text-entity-Pokemon-2d359b9b-1dd9-5b69-8fd1-1ac2d4959051-attr-1-key" class="er entityLabel">PK</text><rect height="22.091797828674316" width="35.75" y="46" x="0" class="er attributeBoxEven"/><text style="dominant-baseline: middle; font-size: 10.2px;" transform="translate(5,57.04589891433716)" y="0" x="0" id="text-entity-Pokemon-2d359b9b-1dd9-5b69-8fd1-1ac2d4959051-attr-2-type" class="er entityLabel">string</text><rect height="22.091797828674316" width="60.921875" y="46" x="35.75" class="er attributeBoxEven"/><text style="dominant-baseline: middle; font-size: 10.2px;" transform="translate(40.75,57.04589891433716)" y="0" x="0" id="text-entity-Pokemon-2d359b9b-1dd9-5b69-8fd1-1ac2d4959051-attr-2-name" class="er entityLabel">Name</text><rect height="22.091797828674316" width="21.5625" y="46" x="96.671875" class="er attributeBoxEven"/><text style="dominant-baseline: middle; font-size: 10.2px;" transform="translate(101.671875,57.04589891433716)" y="0" x="0" id="text-entity-Pokemon-2d359b9b-1dd9-5b69-8fd1-1ac2d4959051-attr-2-key" class="er entityLabel"/><rect height="22" width="35.75" y="68.09179782867432" x="0" class="er attributeBoxOdd"/><text style="dominant-baseline: middle; font-size: 10.2px;" transform="translate(5,79.09179782867432)" y="0" x="0" id="text-entity-Pokemon-2d359b9b-1dd9-5b69-8fd1-1ac2d4959051-attr-3-type" class="er entityLabel">int</text><rect height="22" width="60.921875" y="68.09179782867432" x="35.75" class="er attributeBoxOdd"/><text style="dominant-baseline: middle; font-size: 10.2px;" transform="translate(40.75,79.09179782867432)" y="0" x="0" id="text-entity-Pokemon-2d359b9b-1dd9-5b69-8fd1-1ac2d4959051-attr-3-name" class="er entityLabel">Generation</text><rect height="22" width="21.5625" y="68.09179782867432" x="96.671875" class="er attributeBoxOdd"/><text style="dominant-baseline: middle; font-size: 10.2px;" transform="translate(101.671875,79.09179782867432)" y="0" x="0" id="text-entity-Pokemon-2d359b9b-1dd9-5b69-8fd1-1ac2d4959051-attr-3-key" class="er entityLabel"/><rect height="22" width="35.75" y="90.09179782867432" x="0" class="er attributeBoxEven"/><text style="dominant-baseline: middle; font-size: 10.2px;" transform="translate(5,101.09179782867432)" y="0" x="0" id="text-entity-Pokemon-2d359b9b-1dd9-5b69-8fd1-1ac2d4959051-attr-4-type" class="er entityLabel">int</text><rect height="22" width="60.921875" y="90.09179782867432" x="35.75" class="er attributeBoxEven"/><text style="dominant-baseline: middle; font-size: 10.2px;" transform="translate(40.75,101.09179782867432)" y="0" x="0" id="text-entity-Pokemon-2d359b9b-1dd9-5b69-8fd1-1ac2d4959051-attr-4-name" class="er entityLabel">Value</text><rect height="22" width="21.5625" y="90.09179782867432" x="96.671875" class="er attributeBoxEven"/><text style="dominant-baseline: middle; font-size: 10.2px;" transform="translate(101.671875,101.09179782867432)" y="0" x="0" id="text-entity-Pokemon-2d359b9b-1dd9-5b69-8fd1-1ac2d4959051-attr-4-key" class="er entityLabel"/></g><g transform="translate(104.41015625,20 )" id="entity-Angebot-ad130177-ddde-5801-8c99-9e64ab602d3a"><rect height="46" width="100" y="0" x="0" class="er entityBox"/><text style="dominant-baseline: middle; text-anchor: middle; font-size: 12px;" transform="translate(50,12)" y="0" x="0" id="text-entity-Angebot-ad130177-ddde-5801-8c99-9e64ab602d3a" class="er entityLabel">Angebot</text><rect height="22" width="34.796875" y="24" x="0" class="er attributeBoxOdd"/><text style="dominant-baseline: middle; font-size: 10.2px;" transform="translate(5,35)" y="0" x="0" id="text-entity-Angebot-ad130177-ddde-5801-8c99-9e64ab602d3a-attr-1-type" class="er entityLabel">int</text><rect height="22" width="31.375" y="24" x="34.796875" class="er attributeBoxOdd"/><text style="dominant-baseline: middle; font-size: 10.2px;" transform="translate(39.796875,35)" y="0" x="0" id="text-entity-Angebot-ad130177-ddde-5801-8c99-9e64ab602d3a-attr-1-name" class="er entityLabel">ID</text><rect height="22" width="33.828125" y="24" x="66.171875" class="er attributeBoxOdd"/><text style="dominant-baseline: middle; font-size: 10.2px;" transform="translate(71.171875,35)" y="0" x="0" id="text-entity-Angebot-ad130177-ddde-5801-8c99-9e64ab602d3a-attr-1-key" class="er entityLabel">PK</text></g><g transform="translate(20,177.0458984375 )" id="entity-User-818c511a-4a32-5484-ba70-875d765a9175"><rect height="68.18359565734863" width="112.546875" y="0" x="0" class="er entityBox"/><text style="dominant-baseline: middle; text-anchor: middle; font-size: 12px;" transform="translate(56.2734375,12)" y="0" x="0" id="text-entity-User-818c511a-4a32-5484-ba70-875d765a9175" class="er entityLabel">User</text><rect height="22.091797828674316" width="35.75" y="24" x="0" class="er attributeBoxOdd"/><text style="dominant-baseline: middle; font-size: 10.2px;" transform="translate(5,35.04589891433716)" y="0" x="0" id="text-entity-User-818c511a-4a32-5484-ba70-875d765a9175-attr-1-type" class="er entityLabel">string</text><rect height="22.091797828674316" width="55.234375" y="24" x="35.75" class="er attributeBoxOdd"/><text style="dominant-baseline: middle; font-size: 10.2px;" transform="translate(40.75,35.04589891433716)" y="0" x="0" id="text-entity-User-818c511a-4a32-5484-ba70-875d765a9175-attr-1-name" class="er entityLabel">Username</text><rect height="22.091797828674316" width="21.5625" y="24" x="90.984375" class="er attributeBoxOdd"/><text style="dominant-baseline: middle; font-size: 10.2px;" transform="translate(95.984375,35.04589891433716)" y="0" x="0" id="text-entity-User-818c511a-4a32-5484-ba70-875d765a9175-attr-1-key" class="er entityLabel">PK</text><rect height="22.091797828674316" width="35.75" y="46.091797828674316" x="0" class="er attributeBoxEven"/><text style="dominant-baseline: middle; font-size: 10.2px;" transform="translate(5,57.137696743011475)" y="0" x="0" id="text-entity-User-818c511a-4a32-5484-ba70-875d765a9175-attr-2-type" class="er entityLabel">string</text><rect height="22.091797828674316" width="55.234375" y="46.091797828674316" x="35.75" class="er attributeBoxEven"/><text style="dominant-baseline: middle; font-size: 10.2px;" transform="translate(40.75,57.137696743011475)" y="0" x="0" id="text-entity-User-818c511a-4a32-5484-ba70-875d765a9175-attr-2-name" class="er entityLabel">Password</text><rect height="22.091797828674316" width="21.5625" y="46.091797828674316" x="90.984375" class="er attributeBoxEven"/><text style="dominant-baseline: middle; font-size: 10.2px;" transform="translate(95.984375,57.137696743011475)" y="0" x="0" id="text-entity-User-818c511a-4a32-5484-ba70-875d765a9175-attr-2-key" class="er entityLabel"/></g><g transform="translate(95.91796875,568.3671875 )" id="entity-ImTeam-a5e7335b-d0ff-550e-b437-263db7ae5e88"><rect height="112.18359565734863" width="116.984375" y="0" x="0" class="er entityBox"/><text style="dominant-baseline: middle; text-anchor: middle; font-size: 12px;" transform="translate(58.4921875,12)" y="0" x="0" id="text-entity-ImTeam-a5e7335b-d0ff-550e-b437-263db7ae5e88" class="er entityLabel">Im_Team</text><rect height="22" width="35.75" y="24" x="0" class="er attributeBoxOdd"/><text style="dominant-baseline: middle; font-size: 10.2px;" transform="translate(5,35)" y="0" x="0" id="text-entity-ImTeam-a5e7335b-d0ff-550e-b437-263db7ae5e88-attr-1-type" class="er entityLabel">int</text><rect height="22" width="60" y="24" x="35.75" class="er attributeBoxOdd"/><text style="dominant-baseline: middle; font-size: 10.2px;" transform="translate(40.75,35)" y="0" x="0" id="text-entity-ImTeam-a5e7335b-d0ff-550e-b437-263db7ae5e88-attr-1-name" class="er entityLabel">Level</text><rect height="22" width="21.234375" y="24" x="95.75" class="er attributeBoxOdd"/><text style="dominant-baseline: middle; font-size: 10.2px;" transform="translate(100.75,35)" y="0" x="0" id="text-entity-ImTeam-a5e7335b-d0ff-550e-b437-263db7ae5e88-attr-1-key" class="er entityLabel"/><rect height="22.091797828674316" width="35.75" y="46" x="0" class="er attributeBoxEven"/><text style="dominant-baseline: middle; font-size: 10.2px;" transform="translate(5,57.04589891433716)" y="0" x="0" id="text-entity-ImTeam-a5e7335b-d0ff-550e-b437-263db7ae5e88-attr-2-type" class="er entityLabel">string</text><rect height="22.091797828674316" width="60" y="46" x="35.75" class="er attributeBoxEven"/><text style="dominant-baseline: middle; font-size: 10.2px;" transform="translate(40.75,57.04589891433716)" y="0" x="0" id="text-entity-ImTeam-a5e7335b-d0ff-550e-b437-263db7ae5e88-attr-2-name" class="er entityLabel">Nickname</text><rect height="22.091797828674316" width="21.234375" y="46" x="95.75" class="er attributeBoxEven"/><text style="dominant-baseline: middle; font-size: 10.2px;" transform="translate(100.75,57.04589891433716)" y="0" x="0" id="text-entity-ImTeam-a5e7335b-d0ff-550e-b437-263db7ae5e88-attr-2-key" class="er entityLabel"/><rect height="22.091797828674316" width="35.75" y="68.09179782867432" x="0" class="er attributeBoxOdd"/><text style="dominant-baseline: middle; font-size: 10.2px;" transform="translate(5,79.13769674301147)" y="0" x="0" id="text-entity-ImTeam-a5e7335b-d0ff-550e-b437-263db7ae5e88-attr-3-type" class="er entityLabel">string</text><rect height="22.091797828674316" width="60" y="68.09179782867432" x="35.75" class="er attributeBoxOdd"/><text style="dominant-baseline: middle; font-size: 10.2px;" transform="translate(40.75,79.13769674301147)" y="0" x="0" id="text-entity-ImTeam-a5e7335b-d0ff-550e-b437-263db7ae5e88-attr-3-name" class="er entityLabel">Username</text><rect height="22.091797828674316" width="21.234375" y="68.09179782867432" x="95.75" class="er attributeBoxOdd"/><text style="dominant-baseline: middle; font-size: 10.2px;" transform="translate(100.75,79.13769674301147)" y="0" x="0" id="text-entity-ImTeam-a5e7335b-d0ff-550e-b437-263db7ae5e88-attr-3-key" class="er entityLabel">FK</text><rect height="22" width="35.75" y="90.18359565734863" x="0" class="er attributeBoxEven"/><text style="dominant-baseline: middle; font-size: 10.2px;" transform="translate(5,101.18359565734863)" y="0" x="0" id="text-entity-ImTeam-a5e7335b-d0ff-550e-b437-263db7ae5e88-attr-4-type" class="er entityLabel">int</text><rect height="22" width="60" y="90.18359565734863" x="35.75" class="er attributeBoxEven"/><text style="dominant-baseline: middle; font-size: 10.2px;" transform="translate(40.75,101.18359565734863)" y="0" x="0" id="text-entity-ImTeam-a5e7335b-d0ff-550e-b437-263db7ae5e88-attr-4-name" class="er entityLabel">PokemonID</text><rect height="22" width="21.234375" y="90.18359565734863" x="95.75" class="er attributeBoxEven"/><text style="dominant-baseline: middle; font-size: 10.2px;" transform="translate(100.75,101.18359565734863)" y="0" x="0" id="text-entity-ImTeam-a5e7335b-d0ff-550e-b437-263db7ae5e88-attr-4-key" class="er entityLabel">FK</text></g><rect height="0" width="0" y="419.9302062988281" x="26.277833938598633" class="er relationshipLabelBox"/><text style="text-anchor: middle; dominant-baseline: middle; font-size: 12px;" y="419.9302062988281" x="26.277833938598633" id="rel1" class="er relationshipLabel"/><rect height="0" width="0" y="524.0126342773438" x="243.60934448242188" class="er relationshipLabelBox"/><text style="text-anchor: middle; dominant-baseline: middle; font-size: 12px;" y="524.0126342773438" x="243.60934448242188" id="rel2" class="er relationshipLabel"/><rect height="14" width="47.25" y="303.8008728027344" x="113.38606262207031" class="er relationshipLabelBox"/><text style="text-anchor: middle; dominant-baseline: middle; font-size: 12px;" y="310.8008728027344" x="137.0110626220703" id="rel3" class="er relationshipLabel">im_team</text><rect height="14" width="51.875" y="107.13833618164062" x="61.168373107910156" class="er relationshipLabelBox"/><text style="text-anchor: middle; dominant-baseline: middle; font-size: 12px;" y="114.13833618164062" x="87.10587310791016" id="rel4" class="er relationshipLabel">angezeigt</text><rect height="14" width="63" y="185.2772674560547" x="250.9315185546875" class="er relationshipLabelBox"/><text style="text-anchor: middle; dominant-baseline: middle; font-size: 12px;" y="192.2772674560547" x="282.4315185546875" id="rel5" class="er relationshipLabel">im_angebot</text><rect height="14" width="17.625" y="322.6056823730469" x="381.3863220214844" class="er relationshipLabelBox"/><text style="text-anchor: middle; dominant-baseline: middle; font-size: 12px;" y="329.6056823730469" x="390.1988220214844" id="rel6" class="er relationshipLabel">hat</text></svg>