<svg aria-roledescription="er" role="graphics-document document" viewBox="0 0 1920.875 655.3551025390625" style="max-width: 1920.88px; background-color: white;" xmlns:xlink="http://www.w3.org/1999/xlink" xmlns="http://www.w3.org/2000/svg" width="100%" id="my-svg"><style>#my-svg{font-family:"trebuchet ms",verdana,arial,sans-serif;font-size:16px;fill:#333;}#my-svg .error-icon{fill:#552222;}#my-svg .error-text{fill:#552222;stroke:#552222;}#my-svg .edge-thickness-normal{stroke-width:1px;}#my-svg .edge-thickness-thick{stroke-width:3.5px;}#my-svg .edge-pattern-solid{stroke-dasharray:0;}#my-svg .edge-thickness-invisible{stroke-width:0;fill:none;}#my-svg .edge-pattern-dashed{stroke-dasharray:3;}#my-svg .edge-pattern-dotted{stroke-dasharray:2;}#my-svg .marker{fill:#333333;stroke:#333333;}#my-svg .marker.cross{stroke:#333333;}#my-svg svg{font-family:"trebuchet ms",verdana,arial,sans-serif;font-size:16px;}#my-svg p{margin:0;}#my-svg .entityBox{fill:#ECECFF;stroke:#9370DB;}#my-svg .attributeBoxOdd{fill:#ffffff;stroke:#9370DB;}#my-svg .attributeBoxEven{fill:#f2f2f2;stroke:#9370DB;}#my-svg .relationshipLabelBox{fill:hsl(80, 100%, 96.2745098039%);opacity:0.7;background-color:hsl(80, 100%, 96.2745098039%);}#my-svg .relationshipLabelBox rect{opacity:0.5;}#my-svg .relationshipLine{stroke:#333333;}#my-svg .entityTitleText{text-anchor:middle;font-size:18px;fill:#333;}#my-svg #MD_PARENT_START{fill:#f5f5f5!important;stroke:#333333!important;stroke-width:1;}#my-svg #MD_PARENT_END{fill:#f5f5f5!important;stroke:#333333!important;stroke-width:1;}#my-svg :root{--mermaid-font-family:"trebuchet ms",verdana,arial,sans-serif;}</style><g/><defs><marker orient="auto" markerHeight="240" markerWidth="190" refY="7" refX="0" id="MD_PARENT_START"><path d="M 18,7 L9,13 L1,7 L9,1 Z"/></marker></defs><defs><marker orient="auto" markerHeight="28" markerWidth="20" refY="7" refX="19" id="MD_PARENT_END"><path d="M 18,7 L9,13 L1,7 L9,1 Z"/></marker></defs><defs><marker orient="auto" markerHeight="18" markerWidth="18" refY="9" refX="0" id="ONLY_ONE_START"><path d="M9,0 L9,18 M15,0 L15,18" fill="none" stroke="gray"/></marker></defs><defs><marker orient="auto" markerHeight="18" markerWidth="18" refY="9" refX="18" id="ONLY_ONE_END"><path d="M3,0 L3,18 M9,0 L9,18" fill="none" stroke="gray"/></marker></defs><defs><marker orient="auto" markerHeight="18" markerWidth="30" refY="9" refX="0" id="ZERO_OR_ONE_START"><circle r="6" cy="9" cx="21" fill="white" stroke="gray"/><path d="M9,0 L9,18" fill="none" stroke="gray"/></marker></defs><defs><marker orient="auto" markerHeight="18" markerWidth="30" refY="9" refX="30" id="ZERO_OR_ONE_END"><circle r="6" cy="9" cx="9" fill="white" stroke="gray"/><path d="M21,0 L21,18" fill="none" stroke="gray"/></marker></defs><defs><marker orient="auto" markerHeight="36" markerWidth="45" refY="18" refX="18" id="ONE_OR_MORE_START"><path d="M0,18 Q 18,0 36,18 Q 18,36 0,18 M42,9 L42,27" fill="none" stroke="gray"/></marker></defs><defs><marker orient="auto" markerHeight="36" markerWidth="45" refY="18" refX="27" id="ONE_OR_MORE_END"><path d="M3,9 L3,27 M9,18 Q27,0 45,18 Q27,36 9,18" fill="none" stroke="gray"/></marker></defs><defs><marker orient="auto" markerHeight="36" markerWidth="57" refY="18" refX="18" id="ZERO_OR_MORE_START"><circle r="6" cy="18" cx="48" fill="white" stroke="gray"/><path d="M0,18 Q18,0 36,18 Q18,36 0,18" fill="none" stroke="gray"/></marker></defs><defs><marker orient="auto" markerHeight="36" markerWidth="57" refY="18" refX="39" id="ZERO_OR_MORE_END"><circle r="6" cy="18" cx="9" fill="white" stroke="gray"/><path d="M21,18 Q39,0 57,18 Q39,36 21,18" fill="none" stroke="gray"/></marker></defs><path style="stroke: gray; fill: none;" marker-start="url(#ONLY_ONE_START)" marker-end="url(#ONLY_ONE_END)" d="M1300.875,430.628L1215.397,443.916C1129.919,457.204,958.964,483.779,873.486,505.984C788.008,528.188,788.008,546.022,788.008,554.938L788.008,563.855" class="er relationshipLine"/><path style="stroke: gray; fill: none;" marker-start="url(#ONLY_ONE_START)" marker-end="url(#ONLY_ONE_END)" d="M1300.875,437.438L1259.208,449.591C1217.542,461.744,1134.208,486.05,1092.542,508.945C1050.875,531.84,1050.875,553.324,1050.875,564.067L1050.875,574.809" class="er relationshipLine"/><path style="stroke: gray; fill: none;" marker-start="url(#ONLY_ONE_START)" marker-end="url(#ONLY_ONE_END)" d="M1308.018,460.355L1298.494,468.688C1288.97,477.022,1269.923,493.688,1260.399,512.764C1250.875,531.84,1250.875,553.324,1250.875,564.067L1250.875,574.809" class="er relationshipLine"/><path style="stroke: gray; fill: none;" marker-start="url(#ONLY_ONE_START)" marker-end="url(#ONLY_ONE_END)" d="M1393.732,460.355L1403.256,468.688C1412.78,477.022,1431.827,493.688,1441.351,510.931C1450.875,528.173,1450.875,545.991,1450.875,554.9L1450.875,563.809" class="er relationshipLine"/><path style="stroke: gray; fill: none;" marker-start="url(#ONLY_ONE_START)" marker-end="url(#ZERO_OR_ONE_END)" d="M1400.875,437.438L1442.542,449.591C1484.208,461.744,1567.542,486.05,1609.208,506.536C1650.875,527.022,1650.875,543.688,1650.875,552.022L1650.875,560.355" class="er relationshipLine"/><path style="stroke: gray; fill: none;" marker-start="url(#ONLY_ONE_START)" marker-end="url(#ZERO_OR_ONE_END)" d="M1400.875,431.605L1475.875,444.73C1550.875,457.855,1700.875,484.105,1775.875,505.563C1850.875,527.022,1850.875,543.688,1850.875,552.022L1850.875,560.355" class="er relationshipLine"/><path style="stroke: gray; fill: none;" marker-start="url(#ONLY_ONE_START)" marker-end="url(#ONLY_ONE_END)" d="M229.609,444.217L203.809,455.24C178.008,466.263,126.406,488.309,100.605,510.074C74.805,531.84,74.805,553.324,74.805,564.067L74.805,574.809" class="er relationshipLine"/><path style="stroke: gray; fill: none;" marker-start="url(#ONLY_ONE_START)" marker-end="url(#ONLY_ONE_END)" d="M279.609,460.355L279.609,468.688C279.609,477.022,279.609,493.688,279.609,512.764C279.609,531.84,279.609,553.324,279.609,564.067L279.609,574.809" class="er relationshipLine"/><path style="stroke: gray; fill: none;" marker-start="url(#ONLY_ONE_START)" marker-end="url(#ONLY_ONE_END)" d="M329.609,449.965L348.173,460.03C366.737,470.095,403.865,490.225,428.676,509.196C453.487,528.166,465.982,545.978,472.23,554.884L478.477,563.789" class="er relationshipLine"/><path style="stroke: gray; fill: none;" marker-start="url(#ONLY_ONE_START)" marker-end="url(#ONLY_ONE_END)" d="M545.191,71.363L500.928,83.636C456.664,95.909,368.137,120.454,323.873,144.746C279.609,169.037,279.609,193.074,279.609,205.093L279.609,217.112" class="er relationshipLine"/><path style="stroke: gray; fill: none;" marker-start="url(#ONLY_ONE_START)" marker-end="url(#ONLY_ONE_END)" d="M645.191,63.289L762.805,76.908C880.419,90.526,1115.647,117.763,1233.261,139.715C1350.875,161.667,1350.875,178.333,1350.875,186.667L1350.875,195" class="er relationshipLine"/><path style="stroke: gray; fill: none;" marker-start="url(#ONLY_ONE_START)" marker-end="url(#ONLY_ONE_END)" d="M576.842,95L572.764,103.333C568.686,111.667,560.531,128.333,556.453,152.53C552.375,176.726,552.375,208.452,552.375,240.178C552.375,271.903,552.375,303.629,552.375,334.075C552.375,364.522,552.375,393.688,552.375,422.855C552.375,452.022,552.375,481.188,547.286,504.677C542.197,528.166,532.019,545.978,526.93,554.884L521.841,563.789" class="er relationshipLine"/><path style="stroke: gray; fill: none;" marker-start="url(#ONLY_ONE_START)" marker-end="url(#ZERO_OR_MORE_END)" d="M1247.258,255.428L1156.745,268.749C1066.233,282.07,885.208,308.713,894.145,335.49C903.081,362.267,1101.978,389.178,1201.426,402.634L1300.875,416.09" class="er relationshipLine"/><path style="stroke: gray; fill: none;" marker-start="url(#ONLY_ONE_START)" marker-end="url(#ONE_OR_MORE_END)" d="M1374.608,285.355L1378.986,293.688C1383.364,302.022,1392.119,318.688,1391.735,335.355C1391.351,352.022,1381.827,368.688,1377.065,377.022L1372.304,385.355" class="er relationshipLine"/><path style="stroke: gray; fill: none;" marker-start="url(#ONLY_ONE_START)" marker-end="url(#ONE_OR_MORE_END)" d="M279.609,263.243L279.609,275.262C279.609,287.281,279.609,311.318,279.609,331.67C279.609,352.022,279.609,368.688,279.609,377.022L279.609,385.355" class="er relationshipLine"/><g transform="translate(1300.875,385.3550796508789 )" id="entity-Item-8a1f935b-4333-55f4-bdb2-98b6af61c805"><rect height="75" width="100" y="0" x="0" class="er entityBox"/><text style="dominant-baseline: middle; text-anchor: middle; font-size: 12px;" transform="translate(50,37.5)" y="0" x="0" id="text-entity-Item-8a1f935b-4333-55f4-bdb2-98b6af61c805" class="er entityLabel">Item</text></g><g transform="translate(675.140625,563.8550796508789 )" id="entity-ProductionCost-33d4ea68-c4a0-5d36-a431-5519b38e93d9"><rect height="68" width="225.734375" y="0" x="0" class="er entityBox"/><text style="dominant-baseline: middle; text-anchor: middle; font-size: 12px;" transform="translate(112.8671875,12)" y="0" x="0" id="text-entity-ProductionCost-33d4ea68-c4a0-5d36-a431-5519b38e93d9" class="er entityLabel">ProductionCost</text><rect height="22" width="26.28125" y="24" x="0" class="er attributeBoxOdd"/><text style="dominant-baseline: middle; font-size: 10.2px;" transform="translate(5,35)" y="0" x="0" id="text-entity-ProductionCost-33d4ea68-c4a0-5d36-a431-5519b38e93d9-attr-1-type" class="er entityLabel">u64</text><rect height="22" width="70.890625" y="24" x="26.28125" class="er attributeBoxOdd"/><text style="dominant-baseline: middle; font-size: 10.2px;" transform="translate(31.28125,35)" y="0" x="0" id="text-entity-ProductionCost-33d4ea68-c4a0-5d36-a431-5519b38e93d9-attr-1-name" class="er entityLabel">variable_cost</text><rect height="22" width="128.5625" y="24" x="97.171875" class="er attributeBoxOdd"/><text style="dominant-baseline: middle; font-size: 10.2px;" transform="translate(102.171875,35)" y="0" x="0" id="text-entity-ProductionCost-33d4ea68-c4a0-5d36-a431-5519b38e93d9-attr-1-comment" class="er entityLabel">Resource and labour costs</text><rect height="22" width="26.28125" y="46" x="0" class="er attributeBoxEven"/><text style="dominant-baseline: middle; font-size: 10.2px;" transform="translate(5,57)" y="0" x="0" id="text-entity-ProductionCost-33d4ea68-c4a0-5d36-a431-5519b38e93d9-attr-2-type" class="er entityLabel">u64</text><rect height="22" width="70.890625" y="46" x="26.28125" class="er attributeBoxEven"/><text style="dominant-baseline: middle; font-size: 10.2px;" transform="translate(31.28125,57)" y="0" x="0" id="text-entity-ProductionCost-33d4ea68-c4a0-5d36-a431-5519b38e93d9-attr-2-name" class="er entityLabel">fixed_cost</text><rect height="22" width="128.5625" y="46" x="97.171875" class="er attributeBoxEven"/><text style="dominant-baseline: middle; font-size: 10.2px;" transform="translate(102.171875,57)" y="0" x="0" id="text-entity-ProductionCost-33d4ea68-c4a0-5d36-a431-5519b38e93d9-attr-2-comment" class="er entityLabel">Rent, utilities, etc.</text></g><g transform="translate(1000.875,574.8091812133789 )" id="entity-Owner-b015d58d-3b3f-51b4-9ed0-f31091e8dcf8"><rect height="46.091797828674316" width="100" y="0" x="0" class="er entityBox"/><text style="dominant-baseline: middle; text-anchor: middle; font-size: 12px;" transform="translate(50,12)" y="0" x="0" id="text-entity-Owner-b015d58d-3b3f-51b4-9ed0-f31091e8dcf8" class="er entityLabel">Owner</text><rect height="22.091797828674316" width="37.5859375" y="24" x="0" class="er attributeBoxOdd"/><text style="dominant-baseline: middle; font-size: 10.2px;" transform="translate(5,35.04589891433716)" y="0" x="0" id="text-entity-Owner-b015d58d-3b3f-51b4-9ed0-f31091e8dcf8-attr-1-type" class="er entityLabel">u32</text><rect height="22.091797828674316" width="62.4140625" y="24" x="37.5859375" class="er attributeBoxOdd"/><text style="dominant-baseline: middle; font-size: 10.2px;" transform="translate(42.5859375,35.04589891433716)" y="0" x="0" id="text-entity-Owner-b015d58d-3b3f-51b4-9ed0-f31091e8dcf8-attr-1-name" class="er entityLabel">entity_id</text></g><g transform="translate(1200.875,574.8091812133789 )" id="entity-ItemType-d4c43746-2e69-5df7-9e38-4f9a7eafa931"><rect height="46.091797828674316" width="100" y="0" x="0" class="er entityBox"/><text style="dominant-baseline: middle; text-anchor: middle; font-size: 12px;" transform="translate(50,12)" y="0" x="0" id="text-entity-ItemType-d4c43746-2e69-5df7-9e38-4f9a7eafa931" class="er entityLabel">ItemType</text><rect height="22.091797828674316" width="50.390625" y="24" x="0" class="er attributeBoxOdd"/><text style="dominant-baseline: middle; font-size: 10.2px;" transform="translate(5,35.04589891433716)" y="0" x="0" id="text-entity-ItemType-d4c43746-2e69-5df7-9e38-4f9a7eafa931-attr-1-type" class="er entityLabel">string</text><rect height="22.091797828674316" width="49.609375" y="24" x="50.390625" class="er attributeBoxOdd"/><text style="dominant-baseline: middle; font-size: 10.2px;" transform="translate(55.390625,35.04589891433716)" y="0" x="0" id="text-entity-ItemType-d4c43746-2e69-5df7-9e38-4f9a7eafa931-attr-1-name" class="er entityLabel">name</text></g><g transform="translate(1400.875,563.8091812133789 )" id="entity-Physical-3ea70adb-cca9-56d1-968f-af3126ff2056"><rect height="68.09179782867432" width="100" y="0" x="0" class="er entityBox"/><text style="dominant-baseline: middle; text-anchor: middle; font-size: 12px;" transform="translate(50,12)" y="0" x="0" id="text-entity-Physical-3ea70adb-cca9-56d1-968f-af3126ff2056" class="er entityLabel">Physical</text><rect height="22" width="40.6875" y="24" x="0" class="er attributeBoxOdd"/><text style="dominant-baseline: middle; font-size: 10.2px;" transform="translate(5,35)" y="0" x="0" id="text-entity-Physical-3ea70adb-cca9-56d1-968f-af3126ff2056-attr-1-type" class="er entityLabel">f32</text><rect height="22" width="59.3125" y="24" x="40.6875" class="er attributeBoxOdd"/><text style="dominant-baseline: middle; font-size: 10.2px;" transform="translate(45.6875,35)" y="0" x="0" id="text-entity-Physical-3ea70adb-cca9-56d1-968f-af3126ff2056-attr-1-name" class="er entityLabel">volume</text><rect height="22.091797828674316" width="40.6875" y="46" x="0" class="er attributeBoxEven"/><text style="dominant-baseline: middle; font-size: 10.2px;" transform="translate(5,57.04589891433716)" y="0" x="0" id="text-entity-Physical-3ea70adb-cca9-56d1-968f-af3126ff2056-attr-2-type" class="er entityLabel">f32</text><rect height="22.091797828674316" width="59.3125" y="46" x="40.6875" class="er attributeBoxEven"/><text style="dominant-baseline: middle; font-size: 10.2px;" transform="translate(45.6875,57.04589891433716)" y="0" x="0" id="text-entity-Physical-3ea70adb-cca9-56d1-968f-af3126ff2056-attr-2-name" class="er entityLabel">weight</text></g><g transform="translate(1600.875,560.3550796508789 )" id="entity-Degradable-30c70460-a8d0-5556-aa20-65feb7c03a1b"><rect height="75" width="100" y="0" x="0" class="er entityBox"/><text style="dominant-baseline: middle; text-anchor: middle; font-size: 12px;" transform="translate(50,37.5)" y="0" x="0" id="text-entity-Degradable-30c70460-a8d0-5556-aa20-65feb7c03a1b" class="er entityLabel">Degradable</text></g><g transform="translate(1800.875,560.3550796508789 )" id="entity-Repairable-64c59842-066f-55c0-a319-4c0cde39c183"><rect height="75" width="100" y="0" x="0" class="er entityBox"/><text style="dominant-baseline: middle; text-anchor: middle; font-size: 12px;" transform="translate(50,37.5)" y="0" x="0" id="text-entity-Repairable-64c59842-066f-55c0-a319-4c0cde39c183" class="er entityLabel">Repairable</text></g><g transform="translate(229.609375,385.3550796508789 )" id="entity-Worker-e70784f3-6fa0-5117-a3a9-433f4910cbb4"><rect height="75" width="100" y="0" x="0" class="er entityBox"/><text style="dominant-baseline: middle; text-anchor: middle; font-size: 12px;" transform="translate(50,37.5)" y="0" x="0" id="text-entity-Worker-e70784f3-6fa0-5117-a3a9-433f4910cbb4" class="er entityLabel">Worker</text></g><g transform="translate(20,574.8091812133789 )" id="entity-Salary-b48308fa-7a0c-5433-a229-f900966b9bf3"><rect height="46.091796875" width="109.609375" y="0" x="0" class="er entityBox"/><text style="dominant-baseline: middle; text-anchor: middle; font-size: 12px;" transform="translate(54.8046875,12)" y="0" x="0" id="text-entity-Salary-b48308fa-7a0c-5433-a229-f900966b9bf3" class="er entityLabel">Salary</text><rect height="22.091796875" width="26.28125" y="24" x="0" class="er attributeBoxOdd"/><text style="dominant-baseline: middle; font-size: 10.2px;" transform="translate(5,35.0458984375)" y="0" x="0" id="text-entity-Salary-b48308fa-7a0c-5433-a229-f900966b9bf3-attr-1-type" class="er entityLabel">u64</text><rect height="22.091796875" width="83.328125" y="24" x="26.28125" class="er attributeBoxOdd"/><text style="dominant-baseline: middle; font-size: 10.2px;" transform="translate(31.28125,35.0458984375)" y="0" x="0" id="text-entity-Salary-b48308fa-7a0c-5433-a229-f900966b9bf3-attr-1-name" class="er entityLabel">credits_per_day</text></g><g transform="translate(229.609375,574.8091812133789 )" id="entity-WorksAt-c2b07c66-6c14-54b4-823c-756776eb6e6d"><rect height="46.091797828674316" width="100" y="0" x="0" class="er entityBox"/><text style="dominant-baseline: middle; text-anchor: middle; font-size: 12px;" transform="translate(50,12)" y="0" x="0" id="text-entity-WorksAt-c2b07c66-6c14-54b4-823c-756776eb6e6d" class="er entityLabel">WorksAt</text><rect height="22.091797828674316" width="37.5859375" y="24" x="0" class="er attributeBoxOdd"/><text style="dominant-baseline: middle; font-size: 10.2px;" transform="translate(5,35.04589891433716)" y="0" x="0" id="text-entity-WorksAt-c2b07c66-6c14-54b4-823c-756776eb6e6d-attr-1-type" class="er entityLabel">u32</text><rect height="22.091797828674316" width="62.4140625" y="24" x="37.5859375" class="er attributeBoxOdd"/><text style="dominant-baseline: middle; font-size: 10.2px;" transform="translate(42.5859375,35.04589891433716)" y="0" x="0" id="text-entity-WorksAt-c2b07c66-6c14-54b4-823c-756776eb6e6d-attr-1-name" class="er entityLabel">entity_id</text></g><g transform="translate(429.609375,563.7892608642578 )" id="entity-Inventory-1b36f409-8c02-5227-a3b0-d588273060ae"><rect height="68.13164138793945" width="145.53125" y="0" x="0" class="er entityBox"/><text style="dominant-baseline: middle; text-anchor: middle; font-size: 12px;" transform="translate(72.765625,12)" y="0" x="0" id="text-entity-Inventory-1b36f409-8c02-5227-a3b0-d588273060ae" class="er entityLabel">Inventory</text><rect height="22.131641387939453" width="104.1875" y="24" x="0" class="er attributeBoxOdd"/><text style="dominant-baseline: middle; font-size: 10.2px;" transform="translate(5,35.06582069396973)" y="0" x="0" id="text-entity-Inventory-1b36f409-8c02-5227-a3b0-d588273060ae-attr-1-type" class="er entityLabel">map[type][vec(u32)]</text><rect height="22.131641387939453" width="41.34375" y="24" x="104.1875" class="er attributeBoxOdd"/><text style="dominant-baseline: middle; font-size: 10.2px;" transform="translate(109.1875,35.06582069396973)" y="0" x="0" id="text-entity-Inventory-1b36f409-8c02-5227-a3b0-d588273060ae-attr-1-name" class="er entityLabel">items</text><rect height="22" width="104.1875" y="46.13164138793945" x="0" class="er attributeBoxEven"/><text style="dominant-baseline: middle; font-size: 10.2px;" transform="translate(5,57.13164138793945)" y="0" x="0" id="text-entity-Inventory-1b36f409-8c02-5227-a3b0-d588273060ae-attr-2-type" class="er entityLabel">u64</text><rect height="22" width="41.34375" y="46.13164138793945" x="104.1875" class="er attributeBoxEven"/><text style="dominant-baseline: middle; font-size: 10.2px;" transform="translate(109.1875,57.13164138793945)" y="0" x="0" id="text-entity-Inventory-1b36f409-8c02-5227-a3b0-d588273060ae-attr-2-name" class="er entityLabel">credits</text></g><g transform="translate(545.19140625,20 )" id="entity-Business-6d5256e9-9330-5277-b783-ed06f8c0f874"><rect height="75" width="100" y="0" x="0" class="er entityBox"/><text style="dominant-baseline: middle; text-anchor: middle; font-size: 12px;" transform="translate(50,37.5)" y="0" x="0" id="text-entity-Business-6d5256e9-9330-5277-b783-ed06f8c0f874" class="er entityLabel">Business</text></g><g transform="translate(229.609375,217.11171913146973 )" id="entity-Workplace-c0141771-5051-5f9a-a60a-9aeb4da00acb"><rect height="46.13164234161377" width="100" y="0" x="0" class="er entityBox"/><text style="dominant-baseline: middle; text-anchor: middle; font-size: 12px;" transform="translate(50,12)" y="0" x="0" id="text-entity-Workplace-c0141771-5051-5f9a-a60a-9aeb4da00acb" class="er entityLabel">Workplace</text><rect height="22.13164234161377" width="51.765625" y="24" x="0" class="er attributeBoxOdd"/><text style="dominant-baseline: middle; font-size: 10.2px;" transform="translate(5,35.065821170806885)" y="0" x="0" id="text-entity-Workplace-c0141771-5051-5f9a-a60a-9aeb4da00acb-attr-1-type" class="er entityLabel">vec(u32)</text><rect height="22.13164234161377" width="48.234375" y="24" x="51.765625" class="er attributeBoxOdd"/><text style="dominant-baseline: middle; font-size: 10.2px;" transform="translate(56.765625,35.065821170806885)" y="0" x="0" id="text-entity-Workplace-c0141771-5051-5f9a-a60a-9aeb4da00acb-attr-1-name" class="er entityLabel">workers</text></g><g transform="translate(1247.2578125,195 )" id="entity-ProductionCycle-5011cbcf-842a-50bc-90fc-a1dd08b6a003"><rect height="90.35508155822754" width="207.234375" y="0" x="0" class="er entityBox"/><text style="dominant-baseline: middle; text-anchor: middle; font-size: 12px;" transform="translate(103.6171875,12)" y="0" x="0" id="text-entity-ProductionCycle-5011cbcf-842a-50bc-90fc-a1dd08b6a003" class="er entityLabel">ProductionCycle</text><rect height="22.13164234161377" width="49.375" y="24" x="0" class="er attributeBoxOdd"/><text style="dominant-baseline: middle; font-size: 10.2px;" transform="translate(5,35.065821170806885)" y="0" x="0" id="text-entity-ProductionCycle-5011cbcf-842a-50bc-90fc-a1dd08b6a003-attr-1-type" class="er entityLabel">vec(u32)</text><rect height="22.13164234161377" width="57.734375" y="24" x="49.375" class="er attributeBoxOdd"/><text style="dominant-baseline: middle; font-size: 10.2px;" transform="translate(54.375,35.065821170806885)" y="0" x="0" id="text-entity-ProductionCycle-5011cbcf-842a-50bc-90fc-a1dd08b6a003-attr-1-name" class="er entityLabel">input</text><rect height="22.13164234161377" width="100.125" y="24" x="107.109375" class="er attributeBoxOdd"/><text style="dominant-baseline: middle; font-size: 10.2px;" transform="translate(112.109375,35.065821170806885)" y="0" x="0" id="text-entity-ProductionCycle-5011cbcf-842a-50bc-90fc-a1dd08b6a003-attr-1-comment" class="er entityLabel">References item ids</text><rect height="22.13164234161377" width="49.375" y="46.13164234161377" x="0" class="er attributeBoxEven"/><text style="dominant-baseline: middle; font-size: 10.2px;" transform="translate(5,57.197463512420654)" y="0" x="0" id="text-entity-ProductionCycle-5011cbcf-842a-50bc-90fc-a1dd08b6a003-attr-2-type" class="er entityLabel">vec(u32)</text><rect height="22.13164234161377" width="57.734375" y="46.13164234161377" x="49.375" class="er attributeBoxEven"/><text style="dominant-baseline: middle; font-size: 10.2px;" transform="translate(54.375,57.197463512420654)" y="0" x="0" id="text-entity-ProductionCycle-5011cbcf-842a-50bc-90fc-a1dd08b6a003-attr-2-name" class="er entityLabel">output</text><rect height="22.13164234161377" width="100.125" y="46.13164234161377" x="107.109375" class="er attributeBoxEven"/><text style="dominant-baseline: middle; font-size: 10.2px;" transform="translate(112.109375,57.197463512420654)" y="0" x="0" id="text-entity-ProductionCycle-5011cbcf-842a-50bc-90fc-a1dd08b6a003-attr-2-comment" class="er entityLabel">References item ids</text><rect height="22.091796875" width="49.375" y="68.26328468322754" x="0" class="er attributeBoxOdd"/><text style="dominant-baseline: middle; font-size: 10.2px;" transform="translate(5,79.30918312072754)" y="0" x="0" id="text-entity-ProductionCycle-5011cbcf-842a-50bc-90fc-a1dd08b6a003-attr-3-type" class="er entityLabel">u64</text><rect height="22.091796875" width="57.734375" y="68.26328468322754" x="49.375" class="er attributeBoxOdd"/><text style="dominant-baseline: middle; font-size: 10.2px;" transform="translate(54.375,79.30918312072754)" y="0" x="0" id="text-entity-ProductionCycle-5011cbcf-842a-50bc-90fc-a1dd08b6a003-attr-3-name" class="er entityLabel">work_days</text><rect height="22.091796875" width="100.125" y="68.26328468322754" x="107.109375" class="er attributeBoxOdd"/><text style="dominant-baseline: middle; font-size: 10.2px;" transform="translate(112.109375,79.30918312072754)" y="0" x="0" id="text-entity-ProductionCycle-5011cbcf-842a-50bc-90fc-a1dd08b6a003-attr-3-comment" class="er entityLabel"/></g><rect height="14" width="17.71875" y="466.98260498046875" x="1021.942626953125" class="er relationshipLabelBox"/><text style="text-anchor: middle; dominant-baseline: middle; font-size: 12px;" y="473.98260498046875" x="1030.802001953125" id="rel1" class="er relationshipLabel">has</text><rect height="14" width="17.71875" y="475.2908935546875" x="1146.57958984375" class="er relationshipLabelBox"/><text style="text-anchor: middle; dominant-baseline: middle; font-size: 12px;" y="482.2908935546875" x="1155.43896484375" id="rel2" class="er relationshipLabel">has</text><rect height="13.999969482421875" width="8.28125" y="502.2959442138672" x="1258.106689453125" class="er relationshipLabelBox"/><text style="text-anchor: middle; dominant-baseline: middle; font-size: 12px;" y="509.2959289550781" x="1262.247314453125" id="rel3" class="er relationshipLabel">is</text><rect height="14" width="8.28125" y="497.3960876464844" x="1433.1534423828125" class="er relationshipLabelBox"/><text style="text-anchor: middle; dominant-baseline: middle; font-size: 12px;" y="504.3960876464844" x="1437.2940673828125" id="rel4" class="er relationshipLabel">is</text><rect height="14" width="8.28125" y="473.01007080078125" x="1537.0592041015625" class="er relationshipLabelBox"/><text style="text-anchor: middle; dominant-baseline: middle; font-size: 12px;" y="480.01007080078125" x="1541.1998291015625" id="rel5" class="er relationshipLabel">is</text><rect height="14" width="8.28125" y="467.580078125" x="1634.84130859375" class="er relationshipLabelBox"/><text style="text-anchor: middle; dominant-baseline: middle; font-size: 12px;" y="474.580078125" x="1638.98193359375" id="rel6" class="er relationshipLabel">is</text><rect height="14" width="17.71875" y="482.9964294433594" x="121.80441284179688" class="er relationshipLabelBox"/><text style="text-anchor: middle; dominant-baseline: middle; font-size: 12px;" y="489.9964294433594" x="130.66378784179688" id="rel7" class="er relationshipLabel">has</text><rect height="14" width="17.71875" y="510.58203125" x="270.7496337890625" class="er relationshipLabelBox"/><text style="text-anchor: middle; dominant-baseline: middle; font-size: 12px;" y="517.58203125" x="279.6090087890625" id="rel8" class="er relationshipLabel">has</text><rect height="14" width="17.71875" y="490.28515625" x="402.9771728515625" class="er relationshipLabelBox"/><text style="text-anchor: middle; dominant-baseline: middle; font-size: 12px;" y="497.28515625" x="411.8365478515625" id="rel9" class="er relationshipLabel">has</text><rect height="14" width="8.28125" y="110.35102081298828" x="385.3157653808594" class="er relationshipLabelBox"/><text style="text-anchor: middle; dominant-baseline: middle; font-size: 12px;" y="117.35102081298828" x="389.4563903808594" id="rel10" class="er relationshipLabel">is</text><rect height="14" width="17.71875" y="99.64202117919922" x="1000.51513671875" class="er relationshipLabelBox"/><text style="text-anchor: middle; dominant-baseline: middle; font-size: 12px;" y="106.64202117919922" x="1009.37451171875" id="rel11" class="er relationshipLabel">has</text><rect height="14" width="17.71875" y="323.34130859375" x="543.515625" class="er relationshipLabelBox"/><text style="text-anchor: middle; dominant-baseline: middle; font-size: 12px;" y="330.34130859375" x="552.375" id="rel12" class="er relationshipLabel">has</text><rect height="14" width="32.84375" y="342.21197509765625" x="897.6277465820312" class="er relationshipLabelBox"/><text style="text-anchor: middle; dominant-baseline: middle; font-size: 12px;" y="349.21197509765625" x="914.0496215820312" id="rel13" class="er relationshipLabel">inputs</text><rect height="14" width="40.625" y="328.7382507324219" x="1371.412109375" class="er relationshipLabelBox"/><text style="text-anchor: middle; dominant-baseline: middle; font-size: 12px;" y="335.7382507324219" x="1391.724609375" id="rel14" class="er relationshipLabel">outputs</text><rect height="14" width="63.5" y="317.29901123046875" x="247.8590087890625" class="er relationshipLabelBox"/><text style="text-anchor: middle; dominant-baseline: middle; font-size: 12px;" y="324.29901123046875" x="279.6090087890625" id="rel15" class="er relationshipLabel">has workers</text></svg>