<svg aria-roledescription="sequence" role="graphics-document document" viewBox="-50 -10 1305 2857" style="max-width: 1305px; background-color: white;" xmlns:xlink="http://www.w3.org/1999/xlink" xmlns="http://www.w3.org/2000/svg" width="100%" id="my-svg"><g><rect class="actor actor-bottom" ry="3" rx="3" name="Coverage.io" height="65" width="150" stroke="#666" fill="#eaeaea" y="2771" x="1055"/><text style="text-anchor: middle; font-size: 16px; font-weight: 400;" class="actor actor-box" alignment-baseline="central" dominant-baseline="central" y="2803.5" x="1130"><tspan dy="0" x="1130">Coverage.io</tspan></text></g><g><rect class="actor actor-bottom" ry="3" rx="3" name="GitHub Registry" height="65" width="150" stroke="#666" fill="#eaeaea" y="2771" x="855"/><text style="text-anchor: middle; font-size: 16px; font-weight: 400;" class="actor actor-box" alignment-baseline="central" dominant-baseline="central" y="2803.5" x="930"><tspan dy="0" x="930">GitHub Registry</tspan></text></g><g><rect class="actor actor-bottom" ry="3" rx="3" name="Build Images" height="65" width="150" stroke="#666" fill="#eaeaea" y="2771" x="655"/><text style="text-anchor: middle; font-size: 16px; font-weight: 400;" class="actor actor-box" alignment-baseline="central" dominant-baseline="central" y="2803.5" x="730"><tspan dy="0" x="730">Build Images</tspan></text></g><g><rect class="actor actor-bottom" ry="3" rx="3" name="CI Build" height="65" width="150" stroke="#666" fill="#eaeaea" y="2771" x="445"/><text style="text-anchor: middle; font-size: 16px; font-weight: 400;" class="actor actor-box" alignment-baseline="central" dominant-baseline="central" y="2803.5" x="520"><tspan dy="0" x="520">CI Build</tspan></text></g><g><rect class="actor actor-bottom" ry="3" rx="3" name="Airflow Repo" height="65" width="150" stroke="#666" fill="#eaeaea" y="2771" x="200"/><text style="text-anchor: middle; font-size: 16px; font-weight: 400;" class="actor actor-box" alignment-baseline="central" dominant-baseline="central" y="2803.5" x="275"><tspan dy="0" x="275">Airflow Repo</tspan></text></g><g><rect class="actor actor-bottom" ry="3" rx="3" name="Fork" height="65" width="150" stroke="#666" fill="#eaeaea" y="2771" x="0"/><text style="text-anchor: middle; font-size: 16px; font-weight: 400;" class="actor actor-box" alignment-baseline="central" dominant-baseline="central" y="2803.5" x="75"><tspan dy="0" x="75">Fork</tspan></text></g><g><line name="Coverage.io" stroke="#999" stroke-width="0.5px" class="actor-line 200" y2="2771" x2="1130" y1="65" x1="1130" id="actor5"/><g id="root-5"><rect class="actor actor-top" ry="3" rx="3" name="Coverage.io" height="65" width="150" stroke="#666" fill="#eaeaea" y="0" x="1055"/><text style="text-anchor: middle; font-size: 16px; font-weight: 400;" class="actor actor-box" alignment-baseline="central" dominant-baseline="central" y="32.5" x="1130"><tspan dy="0" x="1130">Coverage.io</tspan></text></g></g><g><line name="GitHub Registry" stroke="#999" stroke-width="0.5px" class="actor-line 200" y2="2771" x2="930" y1="65" x1="930" id="actor4"/><g id="root-4"><rect class="actor actor-top" ry="3" rx="3" name="GitHub Registry" height="65" width="150" stroke="#666" fill="#eaeaea" y="0" x="855"/><text style="text-anchor: middle; font-size: 16px; font-weight: 400;" class="actor actor-box" alignment-baseline="central" dominant-baseline="central" y="32.5" x="930"><tspan dy="0" x="930">GitHub Registry</tspan></text></g></g><g><line name="Build Images" stroke="#999" stroke-width="0.5px" class="actor-line 200" y2="2771" x2="730" y1="65" x1="730" id="actor3"/><g id="root-3"><rect class="actor actor-top" ry="3" rx="3" name="Build Images" height="65" width="150" stroke="#666" fill="#eaeaea" y="0" x="655"/><text style="text-anchor: middle; font-size: 16px; font-weight: 400;" class="actor actor-box" alignment-baseline="central" dominant-baseline="central" y="32.5" x="730"><tspan dy="0" x="730">Build Images</tspan></text></g></g><g><line name="CI Build" stroke="#999" stroke-width="0.5px" class="actor-line 200" y2="2771" x2="520" y1="65" x1="520" id="actor2"/><g id="root-2"><rect class="actor actor-top" ry="3" rx="3" name="CI Build" height="65" width="150" stroke="#666" fill="#eaeaea" y="0" x="445"/><text style="text-anchor: middle; font-size: 16px; font-weight: 400;" class="actor actor-box" alignment-baseline="central" dominant-baseline="central" y="32.5" x="520"><tspan dy="0" x="520">CI Build</tspan></text></g></g><g><line name="Airflow Repo" stroke="#999" stroke-width="0.5px" class="actor-line 200" y2="2771" x2="275" y1="65" x1="275" id="actor1"/><g id="root-1"><rect class="actor actor-top" ry="3" rx="3" name="Airflow Repo" height="65" width="150" stroke="#666" fill="#eaeaea" y="0" x="200"/><text style="text-anchor: middle; font-size: 16px; font-weight: 400;" class="actor actor-box" alignment-baseline="central" dominant-baseline="central" y="32.5" x="275"><tspan dy="0" x="275">Airflow Repo</tspan></text></g></g><g><line name="Fork" stroke="#999" stroke-width="0.5px" class="actor-line 200" y2="2771" x2="75" y1="65" x1="75" id="actor0"/><g id="root-0"><rect class="actor actor-top" ry="3" rx="3" name="Fork" height="65" width="150" stroke="#666" fill="#eaeaea" y="0" x="0"/><text style="text-anchor: middle; font-size: 16px; font-weight: 400;" class="actor actor-box" alignment-baseline="central" dominant-baseline="central" y="32.5" x="75"><tspan dy="0" x="75">Fork</tspan></text></g></g><style>#my-svg{font-family:"trebuchet ms",verdana,arial,sans-serif;font-size:16px;fill:#333;}#my-svg .error-icon{fill:#552222;}#my-svg .error-text{fill:#552222;stroke:#552222;}#my-svg .edge-thickness-normal{stroke-width:1px;}#my-svg .edge-thickness-thick{stroke-width:3.5px;}#my-svg .edge-pattern-solid{stroke-dasharray:0;}#my-svg .edge-thickness-invisible{stroke-width:0;fill:none;}#my-svg .edge-pattern-dashed{stroke-dasharray:3;}#my-svg .edge-pattern-dotted{stroke-dasharray:2;}#my-svg .marker{fill:#333333;stroke:#333333;}#my-svg .marker.cross{stroke:#333333;}#my-svg svg{font-family:"trebuchet ms",verdana,arial,sans-serif;font-size:16px;}#my-svg p{margin:0;}#my-svg .actor{stroke:hsl(259.6261682243, 59.7765363128%, 87.9019607843%);fill:#ECECFF;}#my-svg text.actor&gt;tspan{fill:black;stroke:none;}#my-svg .actor-line{stroke:hsl(259.6261682243, 59.7765363128%, 87.9019607843%);}#my-svg .messageLine0{stroke-width:1.5;stroke-dasharray:none;stroke:#333;}#my-svg .messageLine1{stroke-width:1.5;stroke-dasharray:2,2;stroke:#333;}#my-svg #arrowhead path{fill:#333;stroke:#333;}#my-svg .sequenceNumber{fill:white;}#my-svg #sequencenumber{fill:#333;}#my-svg #crosshead path{fill:#333;stroke:#333;}#my-svg .messageText{fill:#333;stroke:none;}#my-svg .labelBox{stroke:hsl(259.6261682243, 59.7765363128%, 87.9019607843%);fill:#ECECFF;}#my-svg .labelText,#my-svg .labelText&gt;tspan{fill:black;stroke:none;}#my-svg .loopText,#my-svg .loopText&gt;tspan{fill:black;stroke:none;}#my-svg .loopLine{stroke-width:2px;stroke-dasharray:2,2;stroke:hsl(259.6261682243, 59.7765363128%, 87.9019607843%);fill:hsl(259.6261682243, 59.7765363128%, 87.9019607843%);}#my-svg .note{stroke:#aaaa33;fill:#fff5ad;}#my-svg .noteText,#my-svg .noteText&gt;tspan{fill:black;stroke:none;}#my-svg .activation0{fill:#f4f4f4;stroke:#666;}#my-svg .activation1{fill:#f4f4f4;stroke:#666;}#my-svg .activation2{fill:#f4f4f4;stroke:#666;}#my-svg .actorPopupMenu{position:absolute;}#my-svg .actorPopupMenuPanel{position:absolute;fill:#ECECFF;box-shadow:0px 8px 16px 0px rgba(0,0,0,0.2);filter:drop-shadow(3px 5px 2px rgb(0 0 0 / 0.4));}#my-svg .actor-man line{stroke:hsl(259.6261682243, 59.7765363128%, 87.9019607843%);fill:#ECECFF;}#my-svg .actor-man circle,#my-svg line{stroke:hsl(259.6261682243, 59.7765363128%, 87.9019607843%);fill:#ECECFF;stroke-width:2px;}#my-svg :root{--mermaid-font-family:"trebuchet ms",verdana,arial,sans-serif;}</style><g/><defs><symbol height="24" width="24" id="computer"><path d="M2 2v13h20v-13h-20zm18 11h-16v-9h16v9zm-10.228 6l.466-1h3.524l.467 1h-4.457zm14.228 3h-24l2-6h2.104l-1.33 4h18.45l-1.297-4h2.073l2 6zm-5-10h-14v-7h14v7z" transform="scale(.5)"/></symbol></defs><defs><symbol clip-rule="evenodd" fill-rule="evenodd" id="database"><path d="M12.258.001l.256.004.255.005.253.008.251.01.249.012.247.015.246.016.242.019.241.02.239.023.236.024.233.027.231.028.229.031.225.032.223.034.22.036.217.038.214.04.211.041.208.043.205.045.201.046.198.048.194.05.191.051.187.053.183.054.18.056.175.057.172.059.168.06.163.061.16.063.155.064.15.066.074.033.073.033.071.034.07.034.069.035.068.035.067.035.066.035.064.036.064.036.062.036.06.036.06.037.058.037.058.037.055.038.055.038.053.038.052.038.051.039.05.039.048.039.047.039.045.04.044.04.043.04.041.04.04.041.039.041.037.041.036.041.034.041.033.042.032.042.03.042.029.042.027.042.026.043.024.043.023.043.021.043.02.043.018.044.017.043.015.044.013.044.012.044.011.045.009.044.007.045.006.045.004.045.002.045.001.045v17l-.001.045-.002.045-.004.045-.006.045-.007.045-.009.044-.011.045-.012.044-.013.044-.015.044-.017.043-.018.044-.02.043-.021.043-.023.043-.024.043-.026.043-.027.042-.029.042-.03.042-.032.042-.033.042-.034.041-.036.041-.037.041-.039.041-.04.041-.041.04-.043.04-.044.04-.045.04-.047.039-.048.039-.05.039-.051.039-.052.038-.053.038-.055.038-.055.038-.058.037-.058.037-.06.037-.06.036-.062.036-.064.036-.064.036-.066.035-.067.035-.068.035-.069.035-.07.034-.071.034-.073.033-.074.033-.15.066-.155.064-.16.063-.163.061-.168.06-.172.059-.175.057-.18.056-.183.054-.187.053-.191.051-.194.05-.198.048-.201.046-.205.045-.208.043-.211.041-.214.04-.217.038-.22.036-.223.034-.225.032-.229.031-.231.028-.233.027-.236.024-.239.023-.241.02-.242.019-.246.016-.247.015-.249.012-.251.01-.253.008-.255.005-.256.004-.258.001-.258-.001-.256-.004-.255-.005-.253-.008-.251-.01-.249-.012-.247-.015-.245-.016-.243-.019-.241-.02-.238-.023-.236-.024-.234-.027-.231-.028-.228-.031-.226-.032-.223-.034-.22-.036-.217-.038-.214-.04-.211-.041-.208-.043-.204-.045-.201-.046-.198-.048-.195-.05-.19-.051-.187-.053-.184-.054-.179-.056-.176-.057-.172-.059-.167-.06-.164-.061-.159-.063-.155-.064-.151-.066-.074-.033-.072-.033-.072-.034-.07-.034-.069-.035-.068-.035-.067-.035-.066-.035-.064-.036-.063-.036-.062-.036-.061-.036-.06-.037-.058-.037-.057-.037-.056-.038-.055-.038-.053-.038-.052-.038-.051-.039-.049-.039-.049-.039-.046-.039-.046-.04-.044-.04-.043-.04-.041-.04-.04-.041-.039-.041-.037-.041-.036-.041-.034-.041-.033-.042-.032-.042-.03-.042-.029-.042-.027-.042-.026-.043-.024-.043-.023-.043-.021-.043-.02-.043-.018-.044-.017-.043-.015-.044-.013-.044-.012-.044-.011-.045-.009-.044-.007-.045-.006-.045-.004-.045-.002-.045-.001-.045v-17l.001-.045.002-.045.004-.045.006-.045.007-.045.009-.044.011-.045.012-.044.013-.044.015-.044.017-.043.018-.044.02-.043.021-.043.023-.043.024-.043.026-.043.027-.042.029-.042.03-.042.032-.042.033-.042.034-.041.036-.041.037-.041.039-.041.04-.041.041-.04.043-.04.044-.04.046-.04.046-.039.049-.039.049-.039.051-.039.052-.038.053-.038.055-.038.056-.038.057-.037.058-.037.06-.037.061-.036.062-.036.063-.036.064-.036.066-.035.067-.035.068-.035.069-.035.07-.034.072-.034.072-.033.074-.033.151-.066.155-.064.159-.063.164-.061.167-.06.172-.059.176-.057.179-.056.184-.054.187-.053.19-.051.195-.05.198-.048.201-.046.204-.045.208-.043.211-.041.214-.04.217-.038.22-.036.223-.034.226-.032.228-.031.231-.028.234-.027.236-.024.238-.023.241-.02.243-.019.245-.016.247-.015.249-.012.251-.01.253-.008.255-.005.256-.004.258-.001.258.001zm-9.258 20.499v.01l.001.021.003.021.004.022.005.021.006.022.007.022.009.023.01.022.011.023.012.023.013.023.015.023.016.024.017.023.018.024.019.024.021.024.022.025.023.024.024.025.052.049.056.05.061.051.066.051.07.051.075.051.079.052.084.052.088.052.092.052.097.052.102.051.105.052.11.052.114.051.119.051.123.051.127.05.131.05.135.05.139.048.144.049.147.047.152.047.155.047.16.045.163.045.167.043.171.043.176.041.178.041.183.039.187.039.19.037.194.035.197.035.202.033.204.031.209.03.212.029.216.027.219.025.222.024.226.021.23.02.233.018.236.016.24.015.243.012.246.01.249.008.253.005.256.004.259.001.26-.001.257-.004.254-.005.25-.008.247-.011.244-.012.241-.014.237-.016.233-.018.231-.021.226-.021.224-.024.22-.026.216-.027.212-.028.21-.031.205-.031.202-.034.198-.034.194-.036.191-.037.187-.039.183-.04.179-.04.175-.042.172-.043.168-.044.163-.045.16-.046.155-.046.152-.047.148-.048.143-.049.139-.049.136-.05.131-.05.126-.05.123-.051.118-.052.114-.051.11-.052.106-.052.101-.052.096-.052.092-.052.088-.053.083-.051.079-.052.074-.052.07-.051.065-.051.06-.051.056-.05.051-.05.023-.024.023-.025.021-.024.02-.024.019-.024.018-.024.017-.024.015-.023.014-.024.013-.023.012-.023.01-.023.01-.022.008-.022.006-.022.006-.022.004-.022.004-.021.001-.021.001-.021v-4.127l-.077.055-.08.053-.083.054-.085.053-.087.052-.09.052-.093.051-.095.05-.097.05-.1.049-.102.049-.105.048-.106.047-.109.047-.111.046-.114.045-.115.045-.118.044-.12.043-.122.042-.124.042-.126.041-.128.04-.13.04-.132.038-.134.038-.135.037-.138.037-.139.035-.142.035-.143.034-.144.033-.147.032-.148.031-.15.03-.151.03-.153.029-.154.027-.156.027-.158.026-.159.025-.161.024-.162.023-.163.022-.165.021-.166.02-.167.019-.169.018-.169.017-.171.016-.173.015-.173.014-.175.013-.175.012-.177.011-.178.01-.179.008-.179.008-.181.006-.182.005-.182.004-.184.003-.184.002h-.37l-.184-.002-.184-.003-.182-.004-.182-.005-.181-.006-.179-.008-.179-.008-.178-.01-.176-.011-.176-.012-.175-.013-.173-.014-.172-.015-.171-.016-.17-.017-.169-.018-.167-.019-.166-.02-.165-.021-.163-.022-.162-.023-.161-.024-.159-.025-.157-.026-.156-.027-.155-.027-.153-.029-.151-.03-.15-.03-.148-.031-.146-.032-.145-.033-.143-.034-.141-.035-.14-.035-.137-.037-.136-.037-.134-.038-.132-.038-.13-.04-.128-.04-.126-.041-.124-.042-.122-.042-.12-.044-.117-.043-.116-.045-.113-.045-.112-.046-.109-.047-.106-.047-.105-.048-.102-.049-.1-.049-.097-.05-.095-.05-.093-.052-.09-.051-.087-.052-.085-.053-.083-.054-.08-.054-.077-.054v4.127zm0-5.654v.011l.001.021.003.021.004.021.005.022.006.022.007.022.009.022.01.022.011.023.012.023.013.023.015.024.016.023.017.024.018.024.019.024.021.024.022.024.023.025.024.024.052.05.056.05.061.05.066.051.07.051.075.052.079.051.084.052.088.052.092.052.097.052.102.052.105.052.11.051.114.051.119.052.123.05.127.051.131.05.135.049.139.049.144.048.147.048.152.047.155.046.16.045.163.045.167.044.171.042.176.042.178.04.183.04.187.038.19.037.194.036.197.034.202.033.204.032.209.03.212.028.216.027.219.025.222.024.226.022.23.02.233.018.236.016.24.014.243.012.246.01.249.008.253.006.256.003.259.001.26-.001.257-.003.254-.006.25-.008.247-.01.244-.012.241-.015.237-.016.233-.018.231-.02.226-.022.224-.024.22-.025.216-.027.212-.029.21-.03.205-.032.202-.033.198-.035.194-.036.191-.037.187-.039.183-.039.179-.041.175-.042.172-.043.168-.044.163-.045.16-.045.155-.047.152-.047.148-.048.143-.048.139-.05.136-.049.131-.05.126-.051.123-.051.118-.051.114-.052.11-.052.106-.052.101-.052.096-.052.092-.052.088-.052.083-.052.079-.052.074-.051.07-.052.065-.051.06-.05.056-.051.051-.049.023-.025.023-.024.021-.025.02-.024.019-.024.018-.024.017-.024.015-.023.014-.023.013-.024.012-.022.01-.023.01-.023.008-.022.006-.022.006-.022.004-.021.004-.022.001-.021.001-.021v-4.139l-.077.054-.08.054-.083.054-.085.052-.087.053-.09.051-.093.051-.095.051-.097.05-.1.049-.102.049-.105.048-.106.047-.109.047-.111.046-.114.045-.115.044-.118.044-.12.044-.122.042-.124.042-.126.041-.128.04-.13.039-.132.039-.134.038-.135.037-.138.036-.139.036-.142.035-.143.033-.144.033-.147.033-.148.031-.15.03-.151.03-.153.028-.154.028-.156.027-.158.026-.159.025-.161.024-.162.023-.163.022-.165.021-.166.02-.167.019-.169.018-.169.017-.171.016-.173.015-.173.014-.175.013-.175.012-.177.011-.178.009-.179.009-.179.007-.181.007-.182.005-.182.004-.184.003-.184.002h-.37l-.184-.002-.184-.003-.182-.004-.182-.005-.181-.007-.179-.007-.179-.009-.178-.009-.176-.011-.176-.012-.175-.013-.173-.014-.172-.015-.171-.016-.17-.017-.169-.018-.167-.019-.166-.02-.165-.021-.163-.022-.162-.023-.161-.024-.159-.025-.157-.026-.156-.027-.155-.028-.153-.028-.151-.03-.15-.03-.148-.031-.146-.033-.145-.033-.143-.033-.141-.035-.14-.036-.137-.036-.136-.037-.134-.038-.132-.039-.13-.039-.128-.04-.126-.041-.124-.042-.122-.043-.12-.043-.117-.044-.116-.044-.113-.046-.112-.046-.109-.046-.106-.047-.105-.048-.102-.049-.1-.049-.097-.05-.095-.051-.093-.051-.09-.051-.087-.053-.085-.052-.083-.054-.08-.054-.077-.054v4.139zm0-5.666v.011l.001.02.003.022.004.021.005.022.006.021.007.022.009.023.01.022.011.023.012.023.013.023.015.023.016.024.017.024.018.023.019.024.021.025.022.024.023.024.024.025.052.05.056.05.061.05.066.051.07.051.075.052.079.051.084.052.088.052.092.052.097.052.102.052.105.051.11.052.114.051.119.051.123.051.127.05.131.05.135.05.139.049.144.048.147.048.152.047.155.046.16.045.163.045.167.043.171.043.176.042.178.04.183.04.187.038.19.037.194.036.197.034.202.033.204.032.209.03.212.028.216.027.219.025.222.024.226.021.23.02.233.018.236.017.24.014.243.012.246.01.249.008.253.006.256.003.259.001.26-.001.257-.003.254-.006.25-.008.247-.01.244-.013.241-.014.237-.016.233-.018.231-.02.226-.022.224-.024.22-.025.216-.027.212-.029.21-.03.205-.032.202-.033.198-.035.194-.036.191-.037.187-.039.183-.039.179-.041.175-.042.172-.043.168-.044.163-.045.16-.045.155-.047.152-.047.148-.048.143-.049.139-.049.136-.049.131-.051.126-.05.123-.051.118-.052.114-.051.11-.052.106-.052.101-.052.096-.052.092-.052.088-.052.083-.052.079-.052.074-.052.07-.051.065-.051.06-.051.056-.05.051-.049.023-.025.023-.025.021-.024.02-.024.019-.024.018-.024.017-.024.015-.023.014-.024.013-.023.012-.023.01-.022.01-.023.008-.022.006-.022.006-.022.004-.022.004-.021.001-.021.001-.021v-4.153l-.077.054-.08.054-.083.053-.085.053-.087.053-.09.051-.093.051-.095.051-.097.05-.1.049-.102.048-.105.048-.106.048-.109.046-.111.046-.114.046-.115.044-.118.044-.12.043-.122.043-.124.042-.126.041-.128.04-.13.039-.132.039-.134.038-.135.037-.138.036-.139.036-.142.034-.143.034-.144.033-.147.032-.148.032-.15.03-.151.03-.153.028-.154.028-.156.027-.158.026-.159.024-.161.024-.162.023-.163.023-.165.021-.166.02-.167.019-.169.018-.169.017-.171.016-.173.015-.173.014-.175.013-.175.012-.177.01-.178.01-.179.009-.179.007-.181.006-.182.006-.182.004-.184.003-.184.001-.185.001-.185-.001-.184-.001-.184-.003-.182-.004-.182-.006-.181-.006-.179-.007-.179-.009-.178-.01-.176-.01-.176-.012-.175-.013-.173-.014-.172-.015-.171-.016-.17-.017-.169-.018-.167-.019-.166-.02-.165-.021-.163-.023-.162-.023-.161-.024-.159-.024-.157-.026-.156-.027-.155-.028-.153-.028-.151-.03-.15-.03-.148-.032-.146-.032-.145-.033-.143-.034-.141-.034-.14-.036-.137-.036-.136-.037-.134-.038-.132-.039-.13-.039-.128-.041-.126-.041-.124-.041-.122-.043-.12-.043-.117-.044-.116-.044-.113-.046-.112-.046-.109-.046-.106-.048-.105-.048-.102-.048-.1-.05-.097-.049-.095-.051-.093-.051-.09-.052-.087-.052-.085-.053-.083-.053-.08-.054-.077-.054v4.153zm8.74-8.179l-.257.004-.254.005-.25.008-.247.011-.244.012-.241.014-.237.016-.233.018-.231.021-.226.022-.224.023-.22.026-.216.027-.212.028-.21.031-.205.032-.202.033-.198.034-.194.036-.191.038-.187.038-.183.04-.179.041-.175.042-.172.043-.168.043-.163.045-.16.046-.155.046-.152.048-.148.048-.143.048-.139.049-.136.05-.131.05-.126.051-.123.051-.118.051-.114.052-.11.052-.106.052-.101.052-.096.052-.092.052-.088.052-.083.052-.079.052-.074.051-.07.052-.065.051-.06.05-.056.05-.051.05-.023.025-.023.024-.021.024-.02.025-.019.024-.018.024-.017.023-.015.024-.014.023-.013.023-.012.023-.01.023-.01.022-.008.022-.006.023-.006.021-.004.022-.004.021-.001.021-.001.021.001.021.001.021.004.021.004.022.006.021.006.023.008.022.01.022.01.023.012.023.013.023.014.023.015.024.017.023.018.024.019.024.02.025.021.024.023.024.023.025.051.05.056.05.06.05.065.051.07.052.074.051.079.052.083.052.088.052.092.052.096.052.101.052.106.052.11.052.114.052.118.051.123.051.126.051.131.05.136.05.139.049.143.048.148.048.152.048.155.046.16.046.163.045.168.043.172.043.175.042.179.041.183.04.187.038.191.038.194.036.198.034.202.033.205.032.21.031.212.028.216.027.22.026.224.023.226.022.231.021.233.018.237.016.241.014.244.012.247.011.25.008.254.005.257.004.26.001.26-.001.257-.004.254-.005.25-.008.247-.011.244-.012.241-.014.237-.016.233-.018.231-.021.226-.022.224-.023.22-.026.216-.027.212-.028.21-.031.205-.032.202-.033.198-.034.194-.036.191-.038.187-.038.183-.04.179-.041.175-.042.172-.043.168-.043.163-.045.16-.046.155-.046.152-.048.148-.048.143-.048.139-.049.136-.05.131-.05.126-.051.123-.051.118-.051.114-.052.11-.052.106-.052.101-.052.096-.052.092-.052.088-.052.083-.052.079-.052.074-.051.07-.052.065-.051.06-.05.056-.05.051-.05.023-.025.023-.024.021-.024.02-.025.019-.024.018-.024.017-.023.015-.024.014-.023.013-.023.012-.023.01-.023.01-.022.008-.022.006-.023.006-.021.004-.022.004-.021.001-.021.001-.021-.001-.021-.001-.021-.004-.021-.004-.022-.006-.021-.006-.023-.008-.022-.01-.022-.01-.023-.012-.023-.013-.023-.014-.023-.015-.024-.017-.023-.018-.024-.019-.024-.02-.025-.021-.024-.023-.024-.023-.025-.051-.05-.056-.05-.06-.05-.065-.051-.07-.052-.074-.051-.079-.052-.083-.052-.088-.052-.092-.052-.096-.052-.101-.052-.106-.052-.11-.052-.114-.052-.118-.051-.123-.051-.126-.051-.131-.05-.136-.05-.139-.049-.143-.048-.148-.048-.152-.048-.155-.046-.16-.046-.163-.045-.168-.043-.172-.043-.175-.042-.179-.041-.183-.04-.187-.038-.191-.038-.194-.036-.198-.034-.202-.033-.205-.032-.21-.031-.212-.028-.216-.027-.22-.026-.224-.023-.226-.022-.231-.021-.233-.018-.237-.016-.241-.014-.244-.012-.247-.011-.25-.008-.254-.005-.257-.004-.26-.001-.26.001z" transform="scale(.5)"/></symbol></defs><defs><symbol height="24" width="24" id="clock"><path d="M12 2c5.514 0 10 4.486 10 10s-4.486 10-10 10-10-4.486-10-10 4.486-10 10-10zm0-2c-6.627 0-12 5.373-12 12s5.373 12 12 12 12-5.373 12-12-5.373-12-12-12zm5.848 12.459c.202.038.202.333.001.372-1.907.361-6.045 1.111-6.547 1.111-.719 0-1.301-.582-1.301-1.301 0-.512.77-5.447 1.125-7.445.034-.192.312-.181.343.014l.985 6.238 5.394 1.011z" transform="scale(.5)"/></symbol></defs><defs><marker orient="auto-start-reverse" markerHeight="12" markerWidth="12" markerUnits="userSpaceOnUse" refY="5" refX="7.9" id="arrowhead"><path d="M -1 0 L 10 5 L 0 10 z"/></marker></defs><defs><marker refY="4.5" refX="4" orient="auto" markerHeight="8" markerWidth="15" id="crosshead"><path style="stroke-dasharray: 0, 0;" d="M 1,2 L 6,7 M 6,2 L 1,7" stroke-width="1pt" stroke="#000000" fill="none"/></marker></defs><defs><marker orient="auto" markerHeight="28" markerWidth="20" refY="7" refX="15.5" id="filled-head"><path d="M 18,7 L9,13 L14,7 L9,1 Z"/></marker></defs><defs><marker orient="auto" markerHeight="40" markerWidth="60" refY="15" refX="15" id="sequencenumber"><circle r="6" cy="15" cx="15"/></marker></defs><g><rect class="note" height="58" width="150" stroke="#666" fill="#EDF2AE" y="119" x="445"/><text style="font-size: 16px; font-weight: 400;" dy="1em" class="noteText" alignment-baseline="middle" dominant-baseline="middle" text-anchor="middle" y="124" x="520"><tspan x="520">pull_request</tspan></text><text style="font-size: 16px; font-weight: 400;" dy="1em" class="noteText" alignment-baseline="middle" dominant-baseline="middle" text-anchor="middle" y="143" x="520"><tspan x="520">[Read Token]</tspan></text></g><g><rect class="note" height="58" width="150" stroke="#666" fill="#EDF2AE" y="187" x="655"/><text style="font-size: 16px; font-weight: 400;" dy="1em" class="noteText" alignment-baseline="middle" dominant-baseline="middle" text-anchor="middle" y="192" x="730"><tspan x="730">pull_request_target</tspan></text><text style="font-size: 16px; font-weight: 400;" dy="1em" class="noteText" alignment-baseline="middle" dominant-baseline="middle" text-anchor="middle" y="211" x="730"><tspan x="730">[Write Token]</tspan></text></g><g><rect class="activation0" height="2506" width="10" stroke="#666" fill="#EDF2AE" y="245" x="270"/></g><g><rect class="activation0" height="2460" width="10" stroke="#666" fill="#EDF2AE" y="291" x="515"/></g><g><rect class="activation0" height="1095" width="10" stroke="#666" fill="#EDF2AE" y="291" x="725"/></g><g><rect class="note" height="58" width="150" stroke="#666" fill="#EDF2AE" y="388" x="755"/><text style="font-size: 16px; font-weight: 400;" dy="1em" class="noteText" alignment-baseline="middle" dominant-baseline="middle" text-anchor="middle" y="393" x="830"><tspan x="830">Find failed</tspan></text><text style="font-size: 16px; font-weight: 400;" dy="1em" class="noteText" alignment-baseline="middle" dominant-baseline="middle" text-anchor="middle" y="412" x="830"><tspan x="830">[CI Build]</tspan></text></g><g><line class="loopLine" y2="343" x2="915" y1="343" x1="505"/><line class="loopLine" y2="500" x2="915" y1="343" x1="915"/><line class="loopLine" y2="500" x2="915" y1="500" x1="505"/><line class="loopLine" y2="500" x2="505" y1="343" x1="505"/><polygon class="labelBox" points="505,343 555,343 555,356 546.6,363 505,363"/><text style="font-size: 16px; font-weight: 400;" class="labelText" alignment-baseline="middle" dominant-baseline="middle" text-anchor="middle" y="356" x="530">opt</text><text style="font-size: 16px; font-weight: 400;" class="loopText" text-anchor="middle" y="361" x="735"><tspan x="735">[Failed builds]</tspan></text></g><g><rect class="note" height="39" width="150" stroke="#666" fill="#EDF2AE" y="510" x="655"/><text style="font-size: 16px; font-weight: 400;" dy="1em" class="noteText" alignment-baseline="middle" dominant-baseline="middle" text-anchor="middle" y="515" x="730"><tspan x="730">Build info</tspan></text></g><g><rect class="note" height="58" width="152" stroke="#666" fill="#EDF2AE" y="618" x="654"/><text style="font-size: 16px; font-weight: 400;" dy="1em" class="noteText" alignment-baseline="middle" dominant-baseline="middle" text-anchor="middle" y="623" x="730"><tspan x="730">Build PROD Images</tspan></text><text style="font-size: 16px; font-weight: 400;" dy="1em" class="noteText" alignment-baseline="middle" dominant-baseline="middle" text-anchor="middle" y="642" x="730"><tspan x="730">[COMMIT_SHA]</tspan></text></g><g><rect class="note" height="58" width="150" stroke="#666" fill="#EDF2AE" y="711" x="655"/><text style="font-size: 16px; font-weight: 400;" dy="1em" class="noteText" alignment-baseline="middle" dominant-baseline="middle" text-anchor="middle" y="716" x="730"><tspan x="730">Build CI Images</tspan></text><text style="font-size: 16px; font-weight: 400;" dy="1em" class="noteText" alignment-baseline="middle" dominant-baseline="middle" text-anchor="middle" y="735" x="730"><tspan x="730">[COMMIT_SHA]</tspan></text></g><g><line class="loopLine" y2="559" x2="816" y1="559" x1="644"/><line class="loopLine" y2="779" x2="816" y1="559" x1="816"/><line class="loopLine" y2="779" x2="816" y1="779" x1="644"/><line class="loopLine" y2="779" x2="644" y1="559" x1="644"/><line style="stroke-dasharray: 3, 3;" class="loopLine" y2="691" x2="816" y1="691" x1="644"/><polygon class="labelBox" points="644,559 694,559 694,572 685.6,579 644,579"/><text style="font-size: 16px; font-weight: 400;" class="labelText" alignment-baseline="middle" dominant-baseline="middle" text-anchor="middle" y="572" x="669">par</text><text style="font-size: 16px; font-weight: 400;" class="loopText" text-anchor="middle" y="577" x="755"><tspan x="755">[3.6, 3.7,</tspan></text><text style="font-size: 16px; font-weight: 400;" class="loopText" text-anchor="middle" y="596" x="755"><tspan x="755">3.8]</tspan></text></g><g><rect class="note" height="39" width="150" stroke="#666" fill="#EDF2AE" y="848" x="445"/><text style="font-size: 16px; font-weight: 400;" dy="1em" class="noteText" alignment-baseline="middle" dominant-baseline="middle" text-anchor="middle" y="853" x="520"><tspan x="520">Build info</tspan></text></g><g><rect class="note" height="39" width="152" stroke="#666" fill="#EDF2AE" y="922" x="444"/><text style="font-size: 16px; font-weight: 400;" dy="1em" class="noteText" alignment-baseline="middle" dominant-baseline="middle" text-anchor="middle" y="927" x="520"><tspan x="520">Should trigger tests?</tspan></text></g><g><rect class="note" height="39" width="150" stroke="#666" fill="#EDF2AE" y="996" x="445"/><text style="font-size: 16px; font-weight: 400;" dy="1em" class="noteText" alignment-baseline="middle" dominant-baseline="middle" text-anchor="middle" y="1001" x="520"><tspan x="520">Helm tests</tspan></text></g><g><rect class="note" height="39" width="150" stroke="#666" fill="#EDF2AE" y="1070" x="445"/><text style="font-size: 16px; font-weight: 400;" dy="1em" class="noteText" alignment-baseline="middle" dominant-baseline="middle" text-anchor="middle" y="1075" x="520"><tspan x="520">OpenAPI client gen</tspan></text></g><g><line class="loopLine" y2="789" x2="606" y1="789" x1="434"/><line class="loopLine" y2="1119" x2="606" y1="789" x1="606"/><line class="loopLine" y2="1119" x2="606" y1="1119" x1="434"/><line class="loopLine" y2="1119" x2="434" y1="789" x1="434"/><line style="stroke-dasharray: 3, 3;" class="loopLine" y2="902" x2="606" y1="902" x1="434"/><line style="stroke-dasharray: 3, 3;" class="loopLine" y2="976" x2="606" y1="976" x1="434"/><line style="stroke-dasharray: 3, 3;" class="loopLine" y2="1050" x2="606" y1="1050" x1="434"/><polygon class="labelBox" points="434,789 484,789 484,802 475.6,809 434,809"/><text style="font-size: 16px; font-weight: 400;" class="labelText" alignment-baseline="middle" dominant-baseline="middle" text-anchor="middle" y="802" x="459">par</text><text style="font-size: 16px; font-weight: 400;" class="loopText" text-anchor="middle" y="807" x="545"><tspan x="545">[No CI</tspan></text><text style="font-size: 16px; font-weight: 400;" class="loopText" text-anchor="middle" y="826" x="545"><tspan x="545">image]</tspan></text></g><g><rect class="activation0" height="831" width="10" stroke="#666" fill="#EDF2AE" y="1210" x="925"/></g><g><line class="loopLine" y2="1129" x2="945" y1="1129" x1="715"/><line class="loopLine" y2="1287" x2="945" y1="1129" x1="945"/><line class="loopLine" y2="1287" x2="945" y1="1287" x1="715"/><line class="loopLine" y2="1287" x2="715" y1="1129" x1="715"/><line style="stroke-dasharray: 3, 3;" class="loopLine" y2="1223" x2="945" y1="1223" x1="715"/><polygon class="labelBox" points="715,1129 765,1129 765,1142 756.6,1149 715,1149"/><text style="font-size: 16px; font-weight: 400;" class="labelText" alignment-baseline="middle" dominant-baseline="middle" text-anchor="middle" y="1142" x="740">par</text><text style="font-size: 16px; font-weight: 400;" class="loopText" text-anchor="middle" y="1147" x="855"><tspan x="855">[3.6, 3.7, 3.8]</tspan></text></g><g><line class="loopLine" y2="1297" x2="745" y1="1297" x1="505"/><line class="loopLine" y2="1386" x2="745" y1="1297" x1="745"/><line class="loopLine" y2="1386" x2="745" y1="1386" x1="505"/><line class="loopLine" y2="1386" x2="505" y1="1297" x1="505"/><polygon class="labelBox" points="505,1297 555,1297 555,1310 546.6,1317 505,1317"/><text style="font-size: 16px; font-weight: 400;" class="labelText" alignment-baseline="middle" dominant-baseline="middle" text-anchor="middle" y="1310" x="530">opt</text><text style="font-size: 16px; font-weight: 400;" class="loopText" text-anchor="middle" y="1315" x="650"><tspan x="650">[If any step failed]</tspan></text></g><g><rect class="note" height="58" width="150" stroke="#666" fill="#EDF2AE" y="1396" x="855"/><text style="font-size: 16px; font-weight: 400;" dy="1em" class="noteText" alignment-baseline="middle" dominant-baseline="middle" text-anchor="middle" y="1401" x="930"><tspan x="930">Tagged Images</tspan></text><text style="font-size: 16px; font-weight: 400;" dy="1em" class="noteText" alignment-baseline="middle" dominant-baseline="middle" text-anchor="middle" y="1420" x="930"><tspan x="930">[COMMIT_SHA]</tspan></text></g><g><rect class="note" height="58" width="150" stroke="#666" fill="#EDF2AE" y="1628" x="445"/><text style="font-size: 16px; font-weight: 400;" dy="1em" class="noteText" alignment-baseline="middle" dominant-baseline="middle" text-anchor="middle" y="1633" x="520"><tspan x="520">Wait for</tspan></text><text style="font-size: 16px; font-weight: 400;" dy="1em" class="noteText" alignment-baseline="middle" dominant-baseline="middle" text-anchor="middle" y="1652" x="520"><tspan x="520">[COMMIT_SHA]</tspan></text></g><g><rect class="note" height="58" width="150" stroke="#666" fill="#EDF2AE" y="1795" x="445"/><text style="font-size: 16px; font-weight: 400;" dy="1em" class="noteText" alignment-baseline="middle" dominant-baseline="middle" text-anchor="middle" y="1800" x="520"><tspan x="520">Wait for</tspan></text><text style="font-size: 16px; font-weight: 400;" dy="1em" class="noteText" alignment-baseline="middle" dominant-baseline="middle" text-anchor="middle" y="1819" x="520"><tspan x="520">[COMMIT_SHA]</tspan></text></g><g><line class="loopLine" y2="1509" x2="610" y1="1509" x1="435"/><line class="loopLine" y2="1863" x2="610" y1="1509" x1="610"/><line class="loopLine" y2="1863" x2="610" y1="1863" x1="435"/><line class="loopLine" y2="1863" x2="435" y1="1509" x1="435"/><line style="stroke-dasharray: 3, 3;" class="loopLine" y2="1701" x2="610" y1="1701" x1="435"/><polygon class="labelBox" points="435,1509 485,1509 485,1522 476.6,1529 435,1529"/><text style="font-size: 16px; font-weight: 400;" class="labelText" alignment-baseline="middle" dominant-baseline="middle" text-anchor="middle" y="1522" x="460">par</text><text style="font-size: 16px; font-weight: 400;" class="loopText" text-anchor="middle" y="1527" x="547.5"><tspan x="547.5">[3.6, 3.7, 3.8]</tspan></text></g><g><line class="loopLine" y2="1464" x2="620" y1="1464" x1="425"/><line class="loopLine" y2="1873" x2="620" y1="1464" x1="620"/><line class="loopLine" y2="1873" x2="620" y1="1873" x1="425"/><line class="loopLine" y2="1873" x2="425" y1="1464" x1="425"/><polygon class="labelBox" points="425,1464 475,1464 475,1477 466.6,1484 425,1484"/><text style="font-size: 16px; font-weight: 400;" class="labelText" alignment-baseline="middle" dominant-baseline="middle" text-anchor="middle" y="1477" x="450">loop</text><text style="font-size: 16px; font-weight: 400;" class="loopText" text-anchor="middle" y="1482" x="547.5"><tspan x="547.5">[Wait for images]</tspan></text></g><g><line class="loopLine" y2="1883" x2="945" y1="1883" x1="505"/><line class="loopLine" y2="2041" x2="945" y1="1883" x1="945"/><line class="loopLine" y2="2041" x2="945" y1="2041" x1="505"/><line class="loopLine" y2="2041" x2="505" y1="1883" x1="505"/><line style="stroke-dasharray: 3, 3;" class="loopLine" y2="1977" x2="945" y1="1977" x1="505"/><polygon class="labelBox" points="505,1883 555,1883 555,1896 546.6,1903 505,1903"/><text style="font-size: 16px; font-weight: 400;" class="labelText" alignment-baseline="middle" dominant-baseline="middle" text-anchor="middle" y="1896" x="530">par</text><text style="font-size: 16px; font-weight: 400;" class="loopText" text-anchor="middle" y="1901" x="750"><tspan x="750">[3.6, 3.7, 3.8]</tspan></text></g><g><rect class="note" height="39" width="150" stroke="#666" fill="#EDF2AE" y="2110" x="445"/><text style="font-size: 16px; font-weight: 400;" dy="1em" class="noteText" alignment-baseline="middle" dominant-baseline="middle" text-anchor="middle" y="2115" x="520"><tspan x="520">Run static checks</tspan></text></g><g><rect class="note" height="39" width="150" stroke="#666" fill="#EDF2AE" y="2184" x="445"/><text style="font-size: 16px; font-weight: 400;" dy="1em" class="noteText" alignment-baseline="middle" dominant-baseline="middle" text-anchor="middle" y="2189" x="520"><tspan x="520">Build docs</tspan></text></g><g><rect class="note" height="39" width="150" stroke="#666" fill="#EDF2AE" y="2258" x="445"/><text style="font-size: 16px; font-weight: 400;" dy="1em" class="noteText" alignment-baseline="middle" dominant-baseline="middle" text-anchor="middle" y="2263" x="520"><tspan x="520">Spell check docs</tspan></text></g><g><rect class="note" height="39" width="150" stroke="#666" fill="#EDF2AE" y="2377" x="445"/><text style="font-size: 16px; font-weight: 400;" dy="1em" class="noteText" alignment-baseline="middle" dominant-baseline="middle" text-anchor="middle" y="2382" x="520"><tspan x="520">Tests</tspan></text></g><g><line class="loopLine" y2="2332" x2="605" y1="2332" x1="435"/><line class="loopLine" y2="2426" x2="605" y1="2332" x1="605"/><line class="loopLine" y2="2426" x2="605" y1="2426" x1="435"/><line class="loopLine" y2="2426" x2="435" y1="2332" x1="435"/><polygon class="labelBox" points="435,2332 485,2332 485,2345 476.6,2352 435,2352"/><text style="font-size: 16px; font-weight: 400;" class="labelText" alignment-baseline="middle" dominant-baseline="middle" text-anchor="middle" y="2345" x="460">opt</text><text style="font-size: 16px; font-weight: 400;" class="loopText" text-anchor="middle" y="2350" x="545"><tspan x="545">[Triggered?]</tspan></text></g><g><rect class="note" height="39" width="150" stroke="#666" fill="#EDF2AE" y="2506" x="445"/><text style="font-size: 16px; font-weight: 400;" dy="1em" class="noteText" alignment-baseline="middle" dominant-baseline="middle" text-anchor="middle" y="2511" x="520"><tspan x="520">Kubernetes  Tests</tspan></text></g><g><line class="loopLine" y2="2461" x2="605" y1="2461" x1="435"/><line class="loopLine" y2="2555" x2="605" y1="2461" x1="605"/><line class="loopLine" y2="2555" x2="605" y1="2555" x1="435"/><line class="loopLine" y2="2555" x2="435" y1="2461" x1="435"/><polygon class="labelBox" points="435,2461 485,2461 485,2474 476.6,2481 435,2481"/><text style="font-size: 16px; font-weight: 400;" class="labelText" alignment-baseline="middle" dominant-baseline="middle" text-anchor="middle" y="2474" x="460">opt</text><text style="font-size: 16px; font-weight: 400;" class="loopText" text-anchor="middle" y="2479" x="545"><tspan x="545">[Triggered?]</tspan></text></g><g><line class="loopLine" y2="2051" x2="615" y1="2051" x1="425"/><line class="loopLine" y2="2565" x2="615" y1="2051" x1="615"/><line class="loopLine" y2="2565" x2="615" y1="2565" x1="425"/><line class="loopLine" y2="2565" x2="425" y1="2051" x1="425"/><line style="stroke-dasharray: 3, 3;" class="loopLine" y2="2164" x2="615" y1="2164" x1="425"/><line style="stroke-dasharray: 3, 3;" class="loopLine" y2="2238" x2="615" y1="2238" x1="425"/><line style="stroke-dasharray: 3, 3;" class="loopLine" y2="2312" x2="615" y1="2312" x1="425"/><line style="stroke-dasharray: 3, 3;" class="loopLine" y2="2441" x2="615" y1="2441" x1="425"/><polygon class="labelBox" points="425,2051 475,2051 475,2064 466.6,2071 425,2071"/><text style="font-size: 16px; font-weight: 400;" class="labelText" alignment-baseline="middle" dominant-baseline="middle" text-anchor="middle" y="2064" x="450">par</text><text style="font-size: 16px; font-weight: 400;" class="loopText" text-anchor="middle" y="2069" x="545"><tspan x="545">[3.6, 3.7,</tspan></text><text style="font-size: 16px; font-weight: 400;" class="loopText" text-anchor="middle" y="2088" x="545"><tspan x="545">3.8]</tspan></text></g><g><rect class="note" height="39" width="150" stroke="#666" fill="#EDF2AE" y="2575" x="445"/><text style="font-size: 16px; font-weight: 400;" dy="1em" class="noteText" alignment-baseline="middle" dominant-baseline="middle" text-anchor="middle" y="2580" x="520"><tspan x="520">Quarantined tests</tspan></text></g><g><rect class="note" height="39" width="150" stroke="#666" fill="#EDF2AE" y="2624" x="445"/><text style="font-size: 16px; font-weight: 400;" dy="1em" class="noteText" alignment-baseline="middle" dominant-baseline="middle" text-anchor="middle" y="2629" x="520"><tspan x="520">Merge Coverage</tspan></text></g><text style="font-size: 16px; font-weight: 400;" dy="1em" class="messageText" alignment-baseline="middle" dominant-baseline="middle" text-anchor="middle" y="80" x="174">Start Pull Request</text><line style="stroke-dasharray: 3, 3; fill: none;" marker-end="url(#arrowhead)" stroke="none" stroke-width="2" class="messageLine1" y2="109" x2="271" y1="109" x1="76"/><text style="font-size: 16px; font-weight: 400;" dy="1em" class="messageText" alignment-baseline="middle" dominant-baseline="middle" text-anchor="middle" y="260" x="398">Trigger 'pull_request' event</text><line style="stroke-dasharray: 3, 3; fill: none;" marker-end="url(#arrowhead)" stroke="none" stroke-width="2" class="messageLine1" y2="289" x2="516" y1="289" x1="280"/><text style="font-size: 16px; font-weight: 400;" dy="1em" class="messageText" alignment-baseline="middle" dominant-baseline="middle" text-anchor="middle" y="304" x="501">Trigger 'pull_request_target' event</text><line style="stroke-dasharray: 3, 3; fill: none;" marker-end="url(#arrowhead)" stroke="none" stroke-width="2" class="messageLine1" y2="333" x2="722" y1="333" x1="280"/><text style="font-size: 16px; font-weight: 400;" dy="1em" class="messageText" alignment-baseline="middle" dominant-baseline="middle" text-anchor="middle" y="461" x="627">Cancel</text><line style="stroke-dasharray: 3, 3; fill: none;" marker-end="url(#arrowhead)" stroke="none" stroke-width="2" class="messageLine1" y2="490" x2="528" y1="490" x1="725"/><text style="font-size: 16px; font-weight: 400;" dy="1em" class="messageText" alignment-baseline="middle" dominant-baseline="middle" text-anchor="middle" y="1179" x="831">Push CI Images</text><line style="fill: none;" marker-end="url(#arrowhead)" stroke="none" stroke-width="2" class="messageLine0" y2="1208" x2="926" y1="1208" x1="735"/><text style="font-size: 16px; font-weight: 400;" dy="1em" class="messageText" alignment-baseline="middle" dominant-baseline="middle" text-anchor="middle" y="1248" x="829">Push PROD Images</text><line style="fill: none;" marker-end="url(#arrowhead)" stroke="none" stroke-width="2" class="messageLine0" y2="1277" x2="922" y1="1277" x1="735"/><text style="font-size: 16px; font-weight: 400;" dy="1em" class="messageText" alignment-baseline="middle" dominant-baseline="middle" text-anchor="middle" y="1347" x="627">Cancel associated run</text><line style="stroke-dasharray: 3, 3; fill: none;" marker-end="url(#arrowhead)" stroke="none" stroke-width="2" class="messageLine1" y2="1376" x2="528" y1="1376" x1="725"/><text style="font-size: 16px; font-weight: 400;" dy="1em" class="messageText" alignment-baseline="middle" dominant-baseline="middle" text-anchor="middle" y="1559" x="525">Pull CI Images</text><path style="fill: none;" marker-end="url(#arrowhead)" stroke="none" stroke-width="2" class="messageLine0" d="M 525,1588 C 585,1578 585,1618 525,1608"/><text style="font-size: 16px; font-weight: 400;" dy="1em" class="messageText" alignment-baseline="middle" dominant-baseline="middle" text-anchor="middle" y="1726" x="525">Pull PROD Images</text><path style="fill: none;" marker-end="url(#arrowhead)" stroke="none" stroke-width="2" class="messageLine0" d="M 525,1755 C 585,1745 585,1785 525,1775"/><text style="font-size: 16px; font-weight: 400;" dy="1em" class="messageText" alignment-baseline="middle" dominant-baseline="middle" text-anchor="middle" y="1933" x="727">Pull CI Images</text><line style="fill: none;" marker-end="url(#arrowhead)" stroke="none" stroke-width="2" class="messageLine0" y2="1962" x2="528" y1="1962" x1="925"/><text style="font-size: 16px; font-weight: 400;" dy="1em" class="messageText" alignment-baseline="middle" dominant-baseline="middle" text-anchor="middle" y="2002" x="727">Pull PROD Images</text><line style="fill: none;" marker-end="url(#arrowhead)" stroke="none" stroke-width="2" class="messageLine0" y2="2031" x2="528" y1="2031" x1="925"/><text style="font-size: 16px; font-weight: 400;" dy="1em" class="messageText" alignment-baseline="middle" dominant-baseline="middle" text-anchor="middle" y="2678" x="826">Upload Coverage</text><line style="stroke-dasharray: 3, 3; fill: none;" marker-end="url(#arrowhead)" stroke="none" stroke-width="2" class="messageLine1" y2="2707" x2="1126" y1="2707" x1="525"/><text style="font-size: 16px; font-weight: 400;" dy="1em" class="messageText" alignment-baseline="middle" dominant-baseline="middle" text-anchor="middle" y="2722" x="399">Status Check for CI Build</text><line style="stroke-dasharray: 3, 3; fill: none;" marker-end="url(#arrowhead)" stroke="none" stroke-width="2" class="messageLine1" y2="2751" x2="283" y1="2751" x1="515"/></svg>