<svg aria-roledescription="pie" role="graphics-document document" style="max-width: 604.062px; background-color: white;" viewBox="0 0 604.0625 450" xmlns:xlink="http://www.w3.org/1999/xlink" xmlns="http://www.w3.org/2000/svg" width="100%" id="my-svg"><style>#my-svg{font-family:"trebuchet ms",verdana,arial,sans-serif;font-size:16px;fill:#333;}#my-svg .error-icon{fill:#552222;}#my-svg .error-text{fill:#552222;stroke:#552222;}#my-svg .edge-thickness-normal{stroke-width:1px;}#my-svg .edge-thickness-thick{stroke-width:3.5px;}#my-svg .edge-pattern-solid{stroke-dasharray:0;}#my-svg .edge-thickness-invisible{stroke-width:0;fill:none;}#my-svg .edge-pattern-dashed{stroke-dasharray:3;}#my-svg .edge-pattern-dotted{stroke-dasharray:2;}#my-svg .marker{fill:#333333;stroke:#333333;}#my-svg .marker.cross{stroke:#333333;}#my-svg svg{font-family:"trebuchet ms",verdana,arial,sans-serif;font-size:16px;}#my-svg p{margin:0;}#my-svg .pieCircle{stroke:black;stroke-width:2px;opacity:0.7;}#my-svg .pieOuterCircle{stroke:black;stroke-width:2px;fill:none;}#my-svg .pieTitleText{text-anchor:middle;font-size:25px;fill:black;font-family:"trebuchet ms",verdana,arial,sans-serif;}#my-svg .slice{font-family:"trebuchet ms",verdana,arial,sans-serif;fill:#333;font-size:17px;}#my-svg .legend text{fill:black;font-family:"trebuchet ms",verdana,arial,sans-serif;font-size:9px;}#my-svg :root{--mermaid-font-family:"trebuchet ms",verdana,arial,sans-serif;}</style><g/><g transform="translate(225,225)"><circle class="pieOuterCircle" r="186" cy="0" cx="0"/><path class="pieCircle" fill="#ECECFF" d="M0,-185A185,185,0,1,1,-104.214,152.854L0,0Z"/><path class="pieCircle" fill="#ffffde" d="M-104.214,152.854A185,185,0,0,1,-135.615,-125.832L0,0Z"/><path class="pieCircle" fill="hsl(80, 100%, 56.2745098039%)" d="M-135.615,-125.832A185,185,0,0,1,-25.29,-183.263L0,0Z"/><path class="pieCircle" fill="hsl(240, 100%, 86.2745098039%)" d="M-25.29,-183.263A185,185,0,0,1,0,-185L0,0Z"/><text style="text-anchor: middle;" class="slice" transform="translate(132.58572680282703,40.897280449512934)">60%</text><text style="text-anchor: middle;" class="slice" transform="translate(-137.8775691226874,15.535071059334104)">27%</text><text style="text-anchor: middle;" class="slice" transform="translate(-64.06762008636102,-123.07275310347823)">11%</text><text style="text-anchor: middle;" class="slice" transform="translate(-9.506150017422147,-138.4239705103356)">2%</text><text class="pieTitleText" y="-200" x="0">About Python Experience</text><g transform="translate(216,-44)" class="legend"><rect style="fill: rgb(236, 236, 255); stroke: rgb(236, 236, 255);" height="18" width="18"/><text y="14" x="22">for the first time at all</text></g><g transform="translate(216,-22)" class="legend"><rect style="fill: rgb(255, 255, 222); stroke: rgb(255, 255, 222);" height="18" width="18"/><text y="14" x="22">Occasional use</text></g><g transform="translate(216,0)" class="legend"><rect style="fill: rgb(181, 255, 32); stroke: rgb(181, 255, 32);" height="18" width="18"/><text y="14" x="22">Just a little</text></g><g transform="translate(216,22)" class="legend"><rect style="fill: rgb(185, 185, 255); stroke: rgb(185, 185, 255);" height="18" width="18"/><text y="14" x="22">use frequently</text></g></g></svg>