<svg aria-roledescription="er" role="graphics-document document" viewBox="0 0 664.86328125 1133.1015625" style="max-width: 664.863px; background-color: white;" xmlns:xlink="http://www.w3.org/1999/xlink" xmlns="http://www.w3.org/2000/svg" width="100%" id="my-svg"><style>#my-svg{font-family:"trebuchet ms",verdana,arial,sans-serif;font-size:16px;fill:#333;}#my-svg .error-icon{fill:#552222;}#my-svg .error-text{fill:#552222;stroke:#552222;}#my-svg .edge-thickness-normal{stroke-width:1px;}#my-svg .edge-thickness-thick{stroke-width:3.5px;}#my-svg .edge-pattern-solid{stroke-dasharray:0;}#my-svg .edge-thickness-invisible{stroke-width:0;fill:none;}#my-svg .edge-pattern-dashed{stroke-dasharray:3;}#my-svg .edge-pattern-dotted{stroke-dasharray:2;}#my-svg .marker{fill:#333333;stroke:#333333;}#my-svg .marker.cross{stroke:#333333;}#my-svg svg{font-family:"trebuchet ms",verdana,arial,sans-serif;font-size:16px;}#my-svg p{margin:0;}#my-svg .entityBox{fill:#ECECFF;stroke:#9370DB;}#my-svg .attributeBoxOdd{fill:#ffffff;stroke:#9370DB;}#my-svg .attributeBoxEven{fill:#f2f2f2;stroke:#9370DB;}#my-svg .relationshipLabelBox{fill:hsl(80, 100%, 96.2745098039%);opacity:0.7;background-color:hsl(80, 100%, 96.2745098039%);}#my-svg .relationshipLabelBox rect{opacity:0.5;}#my-svg .relationshipLine{stroke:#333333;}#my-svg .entityTitleText{text-anchor:middle;font-size:18px;fill:#333;}#my-svg #MD_PARENT_START{fill:#f5f5f5!important;stroke:#333333!important;stroke-width:1;}#my-svg #MD_PARENT_END{fill:#f5f5f5!important;stroke:#333333!important;stroke-width:1;}#my-svg :root{--mermaid-font-family:"trebuchet ms",verdana,arial,sans-serif;}</style><g/><defs><marker orient="auto" markerHeight="240" markerWidth="190" refY="7" refX="0" id="MD_PARENT_START"><path d="M 18,7 L9,13 L1,7 L9,1 Z"/></marker></defs><defs><marker orient="auto" markerHeight="28" markerWidth="20" refY="7" refX="19" id="MD_PARENT_END"><path d="M 18,7 L9,13 L1,7 L9,1 Z"/></marker></defs><defs><marker orient="auto" markerHeight="18" markerWidth="18" refY="9" refX="0" id="ONLY_ONE_START"><path d="M9,0 L9,18 M15,0 L15,18" fill="none" stroke="gray"/></marker></defs><defs><marker orient="auto" markerHeight="18" markerWidth="18" refY="9" refX="18" id="ONLY_ONE_END"><path d="M3,0 L3,18 M9,0 L9,18" fill="none" stroke="gray"/></marker></defs><defs><marker orient="auto" markerHeight="18" markerWidth="30" refY="9" refX="0" id="ZERO_OR_ONE_START"><circle r="6" cy="9" cx="21" fill="white" stroke="gray"/><path d="M9,0 L9,18" fill="none" stroke="gray"/></marker></defs><defs><marker orient="auto" markerHeight="18" markerWidth="30" refY="9" refX="30" id="ZERO_OR_ONE_END"><circle r="6" cy="9" cx="9" fill="white" stroke="gray"/><path d="M21,0 L21,18" fill="none" stroke="gray"/></marker></defs><defs><marker orient="auto" markerHeight="36" markerWidth="45" refY="18" refX="18" id="ONE_OR_MORE_START"><path d="M0,18 Q 18,0 36,18 Q 18,36 0,18 M42,9 L42,27" fill="none" stroke="gray"/></marker></defs><defs><marker orient="auto" markerHeight="36" markerWidth="45" refY="18" refX="27" id="ONE_OR_MORE_END"><path d="M3,9 L3,27 M9,18 Q27,0 45,18 Q27,36 9,18" fill="none" stroke="gray"/></marker></defs><defs><marker orient="auto" markerHeight="36" markerWidth="57" refY="18" refX="18" id="ZERO_OR_MORE_START"><circle r="6" cy="18" cx="48" fill="white" stroke="gray"/><path d="M0,18 Q18,0 36,18 Q18,36 0,18" fill="none" stroke="gray"/></marker></defs><defs><marker orient="auto" markerHeight="36" markerWidth="57" refY="18" refX="39" id="ZERO_OR_MORE_END"><circle r="6" cy="18" cx="9" fill="white" stroke="gray"/><path d="M21,18 Q39,0 57,18 Q39,36 21,18" fill="none" stroke="gray"/></marker></defs><path style="stroke: gray; fill: none;" marker-start="url(#ONLY_ONE_START)" marker-end="url(#ZERO_OR_MORE_END)" d="M269.727,87.324L300.182,99.467C330.638,111.61,391.549,135.897,422.005,156.374C452.461,176.85,452.461,193.517,452.461,201.85L452.461,210.184" class="er relationshipLine"/><path style="stroke: gray; fill: none;" marker-start="url(#ONLY_ONE_START)" marker-end="url(#ZERO_OR_MORE_END)" d="M158.211,96.149L139.051,106.822C119.891,117.494,81.57,138.839,62.41,172.708C43.25,206.578,43.25,252.973,43.25,299.367C43.25,345.762,43.25,392.156,46.246,423.687C49.241,455.217,55.232,471.884,58.228,480.217L61.224,488.551" class="er relationshipLine"/><path style="stroke: gray; fill: none;" marker-start="url(#ONLY_ONE_START)" marker-end="url(#ONLY_ONE_END)" d="M213.969,110.184L213.969,118.517C213.969,126.85,213.969,143.517,213.969,163.858C213.969,184.199,213.969,208.214,213.969,220.222L213.969,232.229" class="er relationshipLine"/><path style="stroke: gray; fill: none;" marker-start="url(#ONLY_ONE_START)" marker-end="url(#ONE_OR_MORE_END)" d="M484.499,388.551L487.493,396.884C490.486,405.217,496.474,421.884,499.467,444.051C502.461,466.217,502.461,493.884,502.461,507.717L502.461,521.551" class="er relationshipLine"/><path style="stroke: gray; fill: none;" marker-start="url(#ONLY_ONE_START)" marker-end="url(#ONE_OR_MORE_END)" d="M535.046,633.734L543.082,647.568C551.118,661.401,567.19,689.068,575.226,711.234C583.262,733.401,583.262,750.068,583.262,758.401L583.262,766.734" class="er relationshipLine"/><path style="stroke: gray; fill: none;" marker-start="url(#ONLY_ONE_START)" marker-end="url(#ZERO_OR_MORE_END)" d="M384.688,360.38L370.215,373.409C355.743,386.437,326.799,412.494,290.435,440.405C254.07,468.316,210.285,498.082,188.393,512.964L166.5,527.847" class="er relationshipLine"/><path style="stroke: gray; fill: none;" marker-start="url(#ONLY_ONE_START)" marker-end="url(#ONE_OR_MORE_END)" d="M93.25,666.734L93.25,675.068C93.25,683.401,93.25,700.068,93.25,726.083C93.25,752.098,93.25,787.462,93.25,822.826C93.25,858.19,93.25,893.554,124.079,925.414C154.908,957.274,216.565,985.63,247.394,999.808L278.223,1013.986" class="er relationshipLine"/><path style="stroke: gray; fill: none;" marker-start="url(#ONLY_ONE_START)" marker-end="url(#ZERO_OR_MORE_END)" d="M460.277,633.734L449.873,647.568C439.469,661.401,418.662,689.068,408.259,720.583C397.855,752.098,397.855,787.462,397.855,822.826C397.855,858.19,397.855,893.554,394.297,919.569C390.739,945.585,383.622,962.251,380.063,970.585L376.505,978.918" class="er relationshipLine"/><path style="stroke: gray; fill: none;" marker-start="url(#ONLY_ONE_START)" marker-end="url(#ZERO_OR_MORE_END)" d="M583.262,878.918L583.262,887.251C583.262,895.585,583.262,912.251,555.633,934.327C528.004,956.403,472.746,983.889,445.117,997.631L417.488,1011.374" class="er relationshipLine"/><g transform="translate(158.2109375,20 )" id="entity-User-818c511a-4a32-5484-ba70-875d765a9175"><rect height="90.18359565734863" width="111.515625" y="0" x="0" class="er entityBox"/><text style="dominant-baseline: middle; text-anchor: middle; font-size: 12px;" transform="translate(55.7578125,12)" y="0" x="0" id="text-entity-User-818c511a-4a32-5484-ba70-875d765a9175" class="er entityLabel">User</text><rect height="22" width="35.75" y="24" x="0" class="er attributeBoxOdd"/><text style="dominant-baseline: middle; font-size: 10.2px;" transform="translate(5,35)" y="0" x="0" id="text-entity-User-818c511a-4a32-5484-ba70-875d765a9175-attr-1-type" class="er entityLabel">int</text><rect height="22" width="54.203125" y="24" x="35.75" class="er attributeBoxOdd"/><text style="dominant-baseline: middle; font-size: 10.2px;" transform="translate(40.75,35)" y="0" x="0" id="text-entity-User-818c511a-4a32-5484-ba70-875d765a9175-attr-1-name" class="er entityLabel">id</text><rect height="22" width="21.5625" y="24" x="89.953125" class="er attributeBoxOdd"/><text style="dominant-baseline: middle; font-size: 10.2px;" transform="translate(94.953125,35)" y="0" x="0" id="text-entity-User-818c511a-4a32-5484-ba70-875d765a9175-attr-1-key" class="er entityLabel">PK</text><rect height="22.091797828674316" width="35.75" y="46" x="0" class="er attributeBoxEven"/><text style="dominant-baseline: middle; font-size: 10.2px;" transform="translate(5,57.04589891433716)" y="0" x="0" id="text-entity-User-818c511a-4a32-5484-ba70-875d765a9175-attr-2-type" class="er entityLabel">string</text><rect height="22.091797828674316" width="54.203125" y="46" x="35.75" class="er attributeBoxEven"/><text style="dominant-baseline: middle; font-size: 10.2px;" transform="translate(40.75,57.04589891433716)" y="0" x="0" id="text-entity-User-818c511a-4a32-5484-ba70-875d765a9175-attr-2-name" class="er entityLabel">username</text><rect height="22.091797828674316" width="21.5625" y="46" x="89.953125" class="er attributeBoxEven"/><text style="dominant-baseline: middle; font-size: 10.2px;" transform="translate(94.953125,57.04589891433716)" y="0" x="0" id="text-entity-User-818c511a-4a32-5484-ba70-875d765a9175-attr-2-key" class="er entityLabel"/><rect height="22.091797828674316" width="35.75" y="68.09179782867432" x="0" class="er attributeBoxOdd"/><text style="dominant-baseline: middle; font-size: 10.2px;" transform="translate(5,79.13769674301147)" y="0" x="0" id="text-entity-User-818c511a-4a32-5484-ba70-875d765a9175-attr-3-type" class="er entityLabel">string</text><rect height="22.091797828674316" width="54.203125" y="68.09179782867432" x="35.75" class="er attributeBoxOdd"/><text style="dominant-baseline: middle; font-size: 10.2px;" transform="translate(40.75,79.13769674301147)" y="0" x="0" id="text-entity-User-818c511a-4a32-5484-ba70-875d765a9175-attr-3-name" class="er entityLabel">email</text><rect height="22.091797828674316" width="21.5625" y="68.09179782867432" x="89.953125" class="er attributeBoxOdd"/><text style="dominant-baseline: middle; font-size: 10.2px;" transform="translate(94.953125,79.13769674301147)" y="0" x="0" id="text-entity-User-818c511a-4a32-5484-ba70-875d765a9175-attr-3-key" class="er entityLabel"/></g><g transform="translate(384.6875,210.18359375 )" id="entity-Quiz-b2db8fea-ba1a-5ebc-878f-7d4c01530558"><rect height="178.36719036102295" width="135.546875" y="0" x="0" class="er entityBox"/><text style="dominant-baseline: middle; text-anchor: middle; font-size: 12px;" transform="translate(67.7734375,12)" y="0" x="0" id="text-entity-Quiz-b2db8fea-ba1a-5ebc-878f-7d4c01530558" class="er entityLabel">Quiz</text><rect height="22" width="51.640625" y="24" x="0" class="er attributeBoxOdd"/><text style="dominant-baseline: middle; font-size: 10.2px;" transform="translate(5,35)" y="0" x="0" id="text-entity-Quiz-b2db8fea-ba1a-5ebc-878f-7d4c01530558-attr-1-type" class="er entityLabel">int</text><rect height="22" width="62.34375" y="24" x="51.640625" class="er attributeBoxOdd"/><text style="dominant-baseline: middle; font-size: 10.2px;" transform="translate(56.640625,35)" y="0" x="0" id="text-entity-Quiz-b2db8fea-ba1a-5ebc-878f-7d4c01530558-attr-1-name" class="er entityLabel">id</text><rect height="22" width="21.5625" y="24" x="113.984375" class="er attributeBoxOdd"/><text style="dominant-baseline: middle; font-size: 10.2px;" transform="translate(118.984375,35)" y="0" x="0" id="text-entity-Quiz-b2db8fea-ba1a-5ebc-878f-7d4c01530558-attr-1-key" class="er entityLabel">PK</text><rect height="22.091797828674316" width="51.640625" y="46" x="0" class="er attributeBoxEven"/><text style="dominant-baseline: middle; font-size: 10.2px;" transform="translate(5,57.04589891433716)" y="0" x="0" id="text-entity-Quiz-b2db8fea-ba1a-5ebc-878f-7d4c01530558-attr-2-type" class="er entityLabel">string</text><rect height="22.091797828674316" width="62.34375" y="46" x="51.640625" class="er attributeBoxEven"/><text style="dominant-baseline: middle; font-size: 10.2px;" transform="translate(56.640625,57.04589891433716)" y="0" x="0" id="text-entity-Quiz-b2db8fea-ba1a-5ebc-878f-7d4c01530558-attr-2-name" class="er entityLabel">title</text><rect height="22.091797828674316" width="21.5625" y="46" x="113.984375" class="er attributeBoxEven"/><text style="dominant-baseline: middle; font-size: 10.2px;" transform="translate(118.984375,57.04589891433716)" y="0" x="0" id="text-entity-Quiz-b2db8fea-ba1a-5ebc-878f-7d4c01530558-attr-2-key" class="er entityLabel"/><rect height="22.091797828674316" width="51.640625" y="68.09179782867432" x="0" class="er attributeBoxOdd"/><text style="dominant-baseline: middle; font-size: 10.2px;" transform="translate(5,79.13769674301147)" y="0" x="0" id="text-entity-Quiz-b2db8fea-ba1a-5ebc-878f-7d4c01530558-attr-3-type" class="er entityLabel">string</text><rect height="22.091797828674316" width="62.34375" y="68.09179782867432" x="51.640625" class="er attributeBoxOdd"/><text style="dominant-baseline: middle; font-size: 10.2px;" transform="translate(56.640625,79.13769674301147)" y="0" x="0" id="text-entity-Quiz-b2db8fea-ba1a-5ebc-878f-7d4c01530558-attr-3-name" class="er entityLabel">description</text><rect height="22.091797828674316" width="21.5625" y="68.09179782867432" x="113.984375" class="er attributeBoxOdd"/><text style="dominant-baseline: middle; font-size: 10.2px;" transform="translate(118.984375,79.13769674301147)" y="0" x="0" id="text-entity-Quiz-b2db8fea-ba1a-5ebc-878f-7d4c01530558-attr-3-key" class="er entityLabel"/><rect height="22.091797828674316" width="51.640625" y="90.18359565734863" x="0" class="er attributeBoxEven"/><text style="dominant-baseline: middle; font-size: 10.2px;" transform="translate(5,101.22949457168579)" y="0" x="0" id="text-entity-Quiz-b2db8fea-ba1a-5ebc-878f-7d4c01530558-attr-4-type" class="er entityLabel">string</text><rect height="22.091797828674316" width="62.34375" y="90.18359565734863" x="51.640625" class="er attributeBoxEven"/><text style="dominant-baseline: middle; font-size: 10.2px;" transform="translate(56.640625,101.22949457168579)" y="0" x="0" id="text-entity-Quiz-b2db8fea-ba1a-5ebc-878f-7d4c01530558-attr-4-name" class="er entityLabel">category</text><rect height="22.091797828674316" width="21.5625" y="90.18359565734863" x="113.984375" class="er attributeBoxEven"/><text style="dominant-baseline: middle; font-size: 10.2px;" transform="translate(118.984375,101.22949457168579)" y="0" x="0" id="text-entity-Quiz-b2db8fea-ba1a-5ebc-878f-7d4c01530558-attr-4-key" class="er entityLabel"/><rect height="22" width="51.640625" y="112.27539348602295" x="0" class="er attributeBoxOdd"/><text style="dominant-baseline: middle; font-size: 10.2px;" transform="translate(5,123.27539348602295)" y="0" x="0" id="text-entity-Quiz-b2db8fea-ba1a-5ebc-878f-7d4c01530558-attr-5-type" class="er entityLabel">int</text><rect height="22" width="62.34375" y="112.27539348602295" x="51.640625" class="er attributeBoxOdd"/><text style="dominant-baseline: middle; font-size: 10.2px;" transform="translate(56.640625,123.27539348602295)" y="0" x="0" id="text-entity-Quiz-b2db8fea-ba1a-5ebc-878f-7d4c01530558-attr-5-name" class="er entityLabel">creator</text><rect height="22" width="21.5625" y="112.27539348602295" x="113.984375" class="er attributeBoxOdd"/><text style="dominant-baseline: middle; font-size: 10.2px;" transform="translate(118.984375,123.27539348602295)" y="0" x="0" id="text-entity-Quiz-b2db8fea-ba1a-5ebc-878f-7d4c01530558-attr-5-key" class="er entityLabel">FK</text><rect height="22" width="51.640625" y="134.27539348602295" x="0" class="er attributeBoxEven"/><text style="dominant-baseline: middle; font-size: 10.2px;" transform="translate(5,145.27539348602295)" y="0" x="0" id="text-entity-Quiz-b2db8fea-ba1a-5ebc-878f-7d4c01530558-attr-6-type" class="er entityLabel">datetime</text><rect height="22" width="62.34375" y="134.27539348602295" x="51.640625" class="er attributeBoxEven"/><text style="dominant-baseline: middle; font-size: 10.2px;" transform="translate(56.640625,145.27539348602295)" y="0" x="0" id="text-entity-Quiz-b2db8fea-ba1a-5ebc-878f-7d4c01530558-attr-6-name" class="er entityLabel">created_at</text><rect height="22" width="21.5625" y="134.27539348602295" x="113.984375" class="er attributeBoxEven"/><text style="dominant-baseline: middle; font-size: 10.2px;" transform="translate(118.984375,145.27539348602295)" y="0" x="0" id="text-entity-Quiz-b2db8fea-ba1a-5ebc-878f-7d4c01530558-attr-6-key" class="er entityLabel"/><rect height="22.091796875" width="51.640625" y="156.27539348602295" x="0" class="er attributeBoxOdd"/><text style="dominant-baseline: middle; font-size: 10.2px;" transform="translate(5,167.32129192352295)" y="0" x="0" id="text-entity-Quiz-b2db8fea-ba1a-5ebc-878f-7d4c01530558-attr-7-type" class="er entityLabel">datetime</text><rect height="22.091796875" width="62.34375" y="156.27539348602295" x="51.640625" class="er attributeBoxOdd"/><text style="dominant-baseline: middle; font-size: 10.2px;" transform="translate(56.640625,167.32129192352295)" y="0" x="0" id="text-entity-Quiz-b2db8fea-ba1a-5ebc-878f-7d4c01530558-attr-7-name" class="er entityLabel">updated_at</text><rect height="22.091796875" width="21.5625" y="156.27539348602295" x="113.984375" class="er attributeBoxOdd"/><text style="dominant-baseline: middle; font-size: 10.2px;" transform="translate(118.984375,167.32129192352295)" y="0" x="0" id="text-entity-Quiz-b2db8fea-ba1a-5ebc-878f-7d4c01530558-attr-7-key" class="er entityLabel"/></g><g transform="translate(20,488.55078125 )" id="entity-QuizAttempt-38e7455a-1401-59f6-949e-694fc6cacafe"><rect height="178.18359470367432" width="146.5" y="0" x="0" class="er entityBox"/><text style="dominant-baseline: middle; text-anchor: middle; font-size: 12px;" transform="translate(73.25,12)" y="0" x="0" id="text-entity-QuizAttempt-38e7455a-1401-59f6-949e-694fc6cacafe" class="er entityLabel">QuizAttempt</text><rect height="22" width="51.640625" y="24" x="0" class="er attributeBoxOdd"/><text style="dominant-baseline: middle; font-size: 10.2px;" transform="translate(5,35)" y="0" x="0" id="text-entity-QuizAttempt-38e7455a-1401-59f6-949e-694fc6cacafe-attr-1-type" class="er entityLabel">int</text><rect height="22" width="73.296875" y="24" x="51.640625" class="er attributeBoxOdd"/><text style="dominant-baseline: middle; font-size: 10.2px;" transform="translate(56.640625,35)" y="0" x="0" id="text-entity-QuizAttempt-38e7455a-1401-59f6-949e-694fc6cacafe-attr-1-name" class="er entityLabel">id</text><rect height="22" width="21.5625" y="24" x="124.9375" class="er attributeBoxOdd"/><text style="dominant-baseline: middle; font-size: 10.2px;" transform="translate(129.9375,35)" y="0" x="0" id="text-entity-QuizAttempt-38e7455a-1401-59f6-949e-694fc6cacafe-attr-1-key" class="er entityLabel">PK</text><rect height="22.091797828674316" width="51.640625" y="46" x="0" class="er attributeBoxEven"/><text style="dominant-baseline: middle; font-size: 10.2px;" transform="translate(5,57.04589891433716)" y="0" x="0" id="text-entity-QuizAttempt-38e7455a-1401-59f6-949e-694fc6cacafe-attr-2-type" class="er entityLabel">int</text><rect height="22.091797828674316" width="73.296875" y="46" x="51.640625" class="er attributeBoxEven"/><text style="dominant-baseline: middle; font-size: 10.2px;" transform="translate(56.640625,57.04589891433716)" y="0" x="0" id="text-entity-QuizAttempt-38e7455a-1401-59f6-949e-694fc6cacafe-attr-2-name" class="er entityLabel">quiz</text><rect height="22.091797828674316" width="21.5625" y="46" x="124.9375" class="er attributeBoxEven"/><text style="dominant-baseline: middle; font-size: 10.2px;" transform="translate(129.9375,57.04589891433716)" y="0" x="0" id="text-entity-QuizAttempt-38e7455a-1401-59f6-949e-694fc6cacafe-attr-2-key" class="er entityLabel">FK</text><rect height="22" width="51.640625" y="68.09179782867432" x="0" class="er attributeBoxOdd"/><text style="dominant-baseline: middle; font-size: 10.2px;" transform="translate(5,79.09179782867432)" y="0" x="0" id="text-entity-QuizAttempt-38e7455a-1401-59f6-949e-694fc6cacafe-attr-3-type" class="er entityLabel">int</text><rect height="22" width="73.296875" y="68.09179782867432" x="51.640625" class="er attributeBoxOdd"/><text style="dominant-baseline: middle; font-size: 10.2px;" transform="translate(56.640625,79.09179782867432)" y="0" x="0" id="text-entity-QuizAttempt-38e7455a-1401-59f6-949e-694fc6cacafe-attr-3-name" class="er entityLabel">user</text><rect height="22" width="21.5625" y="68.09179782867432" x="124.9375" class="er attributeBoxOdd"/><text style="dominant-baseline: middle; font-size: 10.2px;" transform="translate(129.9375,79.09179782867432)" y="0" x="0" id="text-entity-QuizAttempt-38e7455a-1401-59f6-949e-694fc6cacafe-attr-3-key" class="er entityLabel">FK</text><rect height="22" width="51.640625" y="90.09179782867432" x="0" class="er attributeBoxEven"/><text style="dominant-baseline: middle; font-size: 10.2px;" transform="translate(5,101.09179782867432)" y="0" x="0" id="text-entity-QuizAttempt-38e7455a-1401-59f6-949e-694fc6cacafe-attr-4-type" class="er entityLabel">int</text><rect height="22" width="73.296875" y="90.09179782867432" x="51.640625" class="er attributeBoxEven"/><text style="dominant-baseline: middle; font-size: 10.2px;" transform="translate(56.640625,101.09179782867432)" y="0" x="0" id="text-entity-QuizAttempt-38e7455a-1401-59f6-949e-694fc6cacafe-attr-4-name" class="er entityLabel">score</text><rect height="22" width="21.5625" y="90.09179782867432" x="124.9375" class="er attributeBoxEven"/><text style="dominant-baseline: middle; font-size: 10.2px;" transform="translate(129.9375,101.09179782867432)" y="0" x="0" id="text-entity-QuizAttempt-38e7455a-1401-59f6-949e-694fc6cacafe-attr-4-key" class="er entityLabel"/><rect height="22" width="51.640625" y="112.09179782867432" x="0" class="er attributeBoxOdd"/><text style="dominant-baseline: middle; font-size: 10.2px;" transform="translate(5,123.09179782867432)" y="0" x="0" id="text-entity-QuizAttempt-38e7455a-1401-59f6-949e-694fc6cacafe-attr-5-type" class="er entityLabel">duration</text><rect height="22" width="73.296875" y="112.09179782867432" x="51.640625" class="er attributeBoxOdd"/><text style="dominant-baseline: middle; font-size: 10.2px;" transform="translate(56.640625,123.09179782867432)" y="0" x="0" id="text-entity-QuizAttempt-38e7455a-1401-59f6-949e-694fc6cacafe-attr-5-name" class="er entityLabel">time_taken</text><rect height="22" width="21.5625" y="112.09179782867432" x="124.9375" class="er attributeBoxOdd"/><text style="dominant-baseline: middle; font-size: 10.2px;" transform="translate(129.9375,123.09179782867432)" y="0" x="0" id="text-entity-QuizAttempt-38e7455a-1401-59f6-949e-694fc6cacafe-attr-5-key" class="er entityLabel"/><rect height="22" width="51.640625" y="134.09179782867432" x="0" class="er attributeBoxEven"/><text style="dominant-baseline: middle; font-size: 10.2px;" transform="translate(5,145.09179782867432)" y="0" x="0" id="text-entity-QuizAttempt-38e7455a-1401-59f6-949e-694fc6cacafe-attr-6-type" class="er entityLabel">datetime</text><rect height="22" width="73.296875" y="134.09179782867432" x="51.640625" class="er attributeBoxEven"/><text style="dominant-baseline: middle; font-size: 10.2px;" transform="translate(56.640625,145.09179782867432)" y="0" x="0" id="text-entity-QuizAttempt-38e7455a-1401-59f6-949e-694fc6cacafe-attr-6-name" class="er entityLabel">started_at</text><rect height="22" width="21.5625" y="134.09179782867432" x="124.9375" class="er attributeBoxEven"/><text style="dominant-baseline: middle; font-size: 10.2px;" transform="translate(129.9375,145.09179782867432)" y="0" x="0" id="text-entity-QuizAttempt-38e7455a-1401-59f6-949e-694fc6cacafe-attr-6-key" class="er entityLabel"/><rect height="22.091796875" width="51.640625" y="156.09179782867432" x="0" class="er attributeBoxOdd"/><text style="dominant-baseline: middle; font-size: 10.2px;" transform="translate(5,167.13769626617432)" y="0" x="0" id="text-entity-QuizAttempt-38e7455a-1401-59f6-949e-694fc6cacafe-attr-7-type" class="er entityLabel">datetime</text><rect height="22.091796875" width="73.296875" y="156.09179782867432" x="51.640625" class="er attributeBoxOdd"/><text style="dominant-baseline: middle; font-size: 10.2px;" transform="translate(56.640625,167.13769626617432)" y="0" x="0" id="text-entity-QuizAttempt-38e7455a-1401-59f6-949e-694fc6cacafe-attr-7-name" class="er entityLabel">completed_at</text><rect height="22.091796875" width="21.5625" y="156.09179782867432" x="124.9375" class="er attributeBoxOdd"/><text style="dominant-baseline: middle; font-size: 10.2px;" transform="translate(129.9375,167.13769626617432)" y="0" x="0" id="text-entity-QuizAttempt-38e7455a-1401-59f6-949e-694fc6cacafe-attr-7-key" class="er entityLabel"/></g><g transform="translate(143.25,232.2294921875 )" id="entity-UserProfile-aeaab73e-960c-5979-ae10-72dcaf1725c1"><rect height="134.27539348602295" width="141.4375" y="0" x="0" class="er entityBox"/><text style="dominant-baseline: middle; text-anchor: middle; font-size: 12px;" transform="translate(70.71875,12)" y="0" x="0" id="text-entity-UserProfile-aeaab73e-960c-5979-ae10-72dcaf1725c1" class="er entityLabel">UserProfile</text><rect height="22" width="35.75" y="24" x="0" class="er attributeBoxOdd"/><text style="dominant-baseline: middle; font-size: 10.2px;" transform="translate(5,35)" y="0" x="0" id="text-entity-UserProfile-aeaab73e-960c-5979-ae10-72dcaf1725c1-attr-1-type" class="er entityLabel">int</text><rect height="22" width="84.125" y="24" x="35.75" class="er attributeBoxOdd"/><text style="dominant-baseline: middle; font-size: 10.2px;" transform="translate(40.75,35)" y="0" x="0" id="text-entity-UserProfile-aeaab73e-960c-5979-ae10-72dcaf1725c1-attr-1-name" class="er entityLabel">id</text><rect height="22" width="21.5625" y="24" x="119.875" class="er attributeBoxOdd"/><text style="dominant-baseline: middle; font-size: 10.2px;" transform="translate(124.875,35)" y="0" x="0" id="text-entity-UserProfile-aeaab73e-960c-5979-ae10-72dcaf1725c1-attr-1-key" class="er entityLabel">PK</text><rect height="22" width="35.75" y="46" x="0" class="er attributeBoxEven"/><text style="dominant-baseline: middle; font-size: 10.2px;" transform="translate(5,57)" y="0" x="0" id="text-entity-UserProfile-aeaab73e-960c-5979-ae10-72dcaf1725c1-attr-2-type" class="er entityLabel">int</text><rect height="22" width="84.125" y="46" x="35.75" class="er attributeBoxEven"/><text style="dominant-baseline: middle; font-size: 10.2px;" transform="translate(40.75,57)" y="0" x="0" id="text-entity-UserProfile-aeaab73e-960c-5979-ae10-72dcaf1725c1-attr-2-name" class="er entityLabel">user</text><rect height="22" width="21.5625" y="46" x="119.875" class="er attributeBoxEven"/><text style="dominant-baseline: middle; font-size: 10.2px;" transform="translate(124.875,57)" y="0" x="0" id="text-entity-UserProfile-aeaab73e-960c-5979-ae10-72dcaf1725c1-attr-2-key" class="er entityLabel">FK</text><rect height="22.091797828674316" width="35.75" y="68" x="0" class="er attributeBoxOdd"/><text style="dominant-baseline: middle; font-size: 10.2px;" transform="translate(5,79.04589891433716)" y="0" x="0" id="text-entity-UserProfile-aeaab73e-960c-5979-ae10-72dcaf1725c1-attr-3-type" class="er entityLabel">string</text><rect height="22.091797828674316" width="84.125" y="68" x="35.75" class="er attributeBoxOdd"/><text style="dominant-baseline: middle; font-size: 10.2px;" transform="translate(40.75,79.04589891433716)" y="0" x="0" id="text-entity-UserProfile-aeaab73e-960c-5979-ae10-72dcaf1725c1-attr-3-name" class="er entityLabel">bio</text><rect height="22.091797828674316" width="21.5625" y="68" x="119.875" class="er attributeBoxOdd"/><text style="dominant-baseline: middle; font-size: 10.2px;" transform="translate(124.875,79.04589891433716)" y="0" x="0" id="text-entity-UserProfile-aeaab73e-960c-5979-ae10-72dcaf1725c1-attr-3-key" class="er entityLabel"/><rect height="22.091797828674316" width="35.75" y="90.09179782867432" x="0" class="er attributeBoxEven"/><text style="dominant-baseline: middle; font-size: 10.2px;" transform="translate(5,101.13769674301147)" y="0" x="0" id="text-entity-UserProfile-aeaab73e-960c-5979-ae10-72dcaf1725c1-attr-4-type" class="er entityLabel">int</text><rect height="22.091797828674316" width="84.125" y="90.09179782867432" x="35.75" class="er attributeBoxEven"/><text style="dominant-baseline: middle; font-size: 10.2px;" transform="translate(40.75,101.13769674301147)" y="0" x="0" id="text-entity-UserProfile-aeaab73e-960c-5979-ae10-72dcaf1725c1-attr-4-name" class="er entityLabel">quizzes_taken</text><rect height="22.091797828674316" width="21.5625" y="90.09179782867432" x="119.875" class="er attributeBoxEven"/><text style="dominant-baseline: middle; font-size: 10.2px;" transform="translate(124.875,101.13769674301147)" y="0" x="0" id="text-entity-UserProfile-aeaab73e-960c-5979-ae10-72dcaf1725c1-attr-4-key" class="er entityLabel"/><rect height="22.091797828674316" width="35.75" y="112.18359565734863" x="0" class="er attributeBoxOdd"/><text style="dominant-baseline: middle; font-size: 10.2px;" transform="translate(5,123.22949457168579)" y="0" x="0" id="text-entity-UserProfile-aeaab73e-960c-5979-ae10-72dcaf1725c1-attr-5-type" class="er entityLabel">int</text><rect height="22.091797828674316" width="84.125" y="112.18359565734863" x="35.75" class="er attributeBoxOdd"/><text style="dominant-baseline: middle; font-size: 10.2px;" transform="translate(40.75,123.22949457168579)" y="0" x="0" id="text-entity-UserProfile-aeaab73e-960c-5979-ae10-72dcaf1725c1-attr-5-name" class="er entityLabel">quizzes_created</text><rect height="22.091797828674316" width="21.5625" y="112.18359565734863" x="119.875" class="er attributeBoxOdd"/><text style="dominant-baseline: middle; font-size: 10.2px;" transform="translate(124.875,123.22949457168579)" y="0" x="0" id="text-entity-UserProfile-aeaab73e-960c-5979-ae10-72dcaf1725c1-attr-5-key" class="er entityLabel"/></g><g transform="translate(452.4609375,521.55078125 )" id="entity-Question-489e4f99-55a1-57b9-ae56-53457bd575f3"><rect height="112.18359565734863" width="100" y="0" x="0" class="er entityBox"/><text style="dominant-baseline: middle; text-anchor: middle; font-size: 12px;" transform="translate(50,12)" y="0" x="0" id="text-entity-Question-489e4f99-55a1-57b9-ae56-53457bd575f3" class="er entityLabel">Question</text><rect height="22" width="38.427083333333336" y="24" x="0" class="er attributeBoxOdd"/><text style="dominant-baseline: middle; font-size: 10.2px;" transform="translate(5,35)" y="0" x="0" id="text-entity-Question-489e4f99-55a1-57b9-ae56-53457bd575f3-attr-1-type" class="er entityLabel">int</text><rect height="22" width="37.333333333333336" y="24" x="38.427083333333336" class="er attributeBoxOdd"/><text style="dominant-baseline: middle; font-size: 10.2px;" transform="translate(43.427083333333336,35)" y="0" x="0" id="text-entity-Question-489e4f99-55a1-57b9-ae56-53457bd575f3-attr-1-name" class="er entityLabel">id</text><rect height="22" width="24.239583333333332" y="24" x="75.76041666666667" class="er attributeBoxOdd"/><text style="dominant-baseline: middle; font-size: 10.2px;" transform="translate(80.76041666666667,35)" y="0" x="0" id="text-entity-Question-489e4f99-55a1-57b9-ae56-53457bd575f3-attr-1-key" class="er entityLabel">PK</text><rect height="22.091797828674316" width="38.427083333333336" y="46" x="0" class="er attributeBoxEven"/><text style="dominant-baseline: middle; font-size: 10.2px;" transform="translate(5,57.04589891433716)" y="0" x="0" id="text-entity-Question-489e4f99-55a1-57b9-ae56-53457bd575f3-attr-2-type" class="er entityLabel">int</text><rect height="22.091797828674316" width="37.333333333333336" y="46" x="38.427083333333336" class="er attributeBoxEven"/><text style="dominant-baseline: middle; font-size: 10.2px;" transform="translate(43.427083333333336,57.04589891433716)" y="0" x="0" id="text-entity-Question-489e4f99-55a1-57b9-ae56-53457bd575f3-attr-2-name" class="er entityLabel">quiz</text><rect height="22.091797828674316" width="24.239583333333332" y="46" x="75.76041666666667" class="er attributeBoxEven"/><text style="dominant-baseline: middle; font-size: 10.2px;" transform="translate(80.76041666666667,57.04589891433716)" y="0" x="0" id="text-entity-Question-489e4f99-55a1-57b9-ae56-53457bd575f3-attr-2-key" class="er entityLabel">FK</text><rect height="22.091797828674316" width="38.427083333333336" y="68.09179782867432" x="0" class="er attributeBoxOdd"/><text style="dominant-baseline: middle; font-size: 10.2px;" transform="translate(5,79.13769674301147)" y="0" x="0" id="text-entity-Question-489e4f99-55a1-57b9-ae56-53457bd575f3-attr-3-type" class="er entityLabel">string</text><rect height="22.091797828674316" width="37.333333333333336" y="68.09179782867432" x="38.427083333333336" class="er attributeBoxOdd"/><text style="dominant-baseline: middle; font-size: 10.2px;" transform="translate(43.427083333333336,79.13769674301147)" y="0" x="0" id="text-entity-Question-489e4f99-55a1-57b9-ae56-53457bd575f3-attr-3-name" class="er entityLabel">text</text><rect height="22.091797828674316" width="24.239583333333332" y="68.09179782867432" x="75.76041666666667" class="er attributeBoxOdd"/><text style="dominant-baseline: middle; font-size: 10.2px;" transform="translate(80.76041666666667,79.13769674301147)" y="0" x="0" id="text-entity-Question-489e4f99-55a1-57b9-ae56-53457bd575f3-attr-3-key" class="er entityLabel"/><rect height="22" width="38.427083333333336" y="90.18359565734863" x="0" class="er attributeBoxEven"/><text style="dominant-baseline: middle; font-size: 10.2px;" transform="translate(5,101.18359565734863)" y="0" x="0" id="text-entity-Question-489e4f99-55a1-57b9-ae56-53457bd575f3-attr-4-type" class="er entityLabel">int</text><rect height="22" width="37.333333333333336" y="90.18359565734863" x="38.427083333333336" class="er attributeBoxEven"/><text style="dominant-baseline: middle; font-size: 10.2px;" transform="translate(43.427083333333336,101.18359565734863)" y="0" x="0" id="text-entity-Question-489e4f99-55a1-57b9-ae56-53457bd575f3-attr-4-name" class="er entityLabel">order</text><rect height="22" width="24.239583333333332" y="90.18359565734863" x="75.76041666666667" class="er attributeBoxEven"/><text style="dominant-baseline: middle; font-size: 10.2px;" transform="translate(80.76041666666667,101.18359565734863)" y="0" x="0" id="text-entity-Question-489e4f99-55a1-57b9-ae56-53457bd575f3-attr-4-key" class="er entityLabel"/></g><g transform="translate(521.66015625,766.734375 )" id="entity-Answer-ece50f12-3031-5cf8-81e8-464b2211b4a2"><rect height="112.18359565734863" width="123.203125" y="0" x="0" class="er entityBox"/><text style="dominant-baseline: middle; text-anchor: middle; font-size: 12px;" transform="translate(61.6015625,12)" y="0" x="0" id="text-entity-Answer-ece50f12-3031-5cf8-81e8-464b2211b4a2" class="er entityLabel">Answer</text><rect height="22" width="46.140625" y="24" x="0" class="er attributeBoxOdd"/><text style="dominant-baseline: middle; font-size: 10.2px;" transform="translate(5,35)" y="0" x="0" id="text-entity-Answer-ece50f12-3031-5cf8-81e8-464b2211b4a2-attr-1-type" class="er entityLabel">int</text><rect height="22" width="55.5" y="24" x="46.140625" class="er attributeBoxOdd"/><text style="dominant-baseline: middle; font-size: 10.2px;" transform="translate(51.140625,35)" y="0" x="0" id="text-entity-Answer-ece50f12-3031-5cf8-81e8-464b2211b4a2-attr-1-name" class="er entityLabel">id</text><rect height="22" width="21.5625" y="24" x="101.640625" class="er attributeBoxOdd"/><text style="dominant-baseline: middle; font-size: 10.2px;" transform="translate(106.640625,35)" y="0" x="0" id="text-entity-Answer-ece50f12-3031-5cf8-81e8-464b2211b4a2-attr-1-key" class="er entityLabel">PK</text><rect height="22.091797828674316" width="46.140625" y="46" x="0" class="er attributeBoxEven"/><text style="dominant-baseline: middle; font-size: 10.2px;" transform="translate(5,57.04589891433716)" y="0" x="0" id="text-entity-Answer-ece50f12-3031-5cf8-81e8-464b2211b4a2-attr-2-type" class="er entityLabel">int</text><rect height="22.091797828674316" width="55.5" y="46" x="46.140625" class="er attributeBoxEven"/><text style="dominant-baseline: middle; font-size: 10.2px;" transform="translate(51.140625,57.04589891433716)" y="0" x="0" id="text-entity-Answer-ece50f12-3031-5cf8-81e8-464b2211b4a2-attr-2-name" class="er entityLabel">question</text><rect height="22.091797828674316" width="21.5625" y="46" x="101.640625" class="er attributeBoxEven"/><text style="dominant-baseline: middle; font-size: 10.2px;" transform="translate(106.640625,57.04589891433716)" y="0" x="0" id="text-entity-Answer-ece50f12-3031-5cf8-81e8-464b2211b4a2-attr-2-key" class="er entityLabel">FK</text><rect height="22.091797828674316" width="46.140625" y="68.09179782867432" x="0" class="er attributeBoxOdd"/><text style="dominant-baseline: middle; font-size: 10.2px;" transform="translate(5,79.13769674301147)" y="0" x="0" id="text-entity-Answer-ece50f12-3031-5cf8-81e8-464b2211b4a2-attr-3-type" class="er entityLabel">string</text><rect height="22.091797828674316" width="55.5" y="68.09179782867432" x="46.140625" class="er attributeBoxOdd"/><text style="dominant-baseline: middle; font-size: 10.2px;" transform="translate(51.140625,79.13769674301147)" y="0" x="0" id="text-entity-Answer-ece50f12-3031-5cf8-81e8-464b2211b4a2-attr-3-name" class="er entityLabel">text</text><rect height="22.091797828674316" width="21.5625" y="68.09179782867432" x="101.640625" class="er attributeBoxOdd"/><text style="dominant-baseline: middle; font-size: 10.2px;" transform="translate(106.640625,79.13769674301147)" y="0" x="0" id="text-entity-Answer-ece50f12-3031-5cf8-81e8-464b2211b4a2-attr-3-key" class="er entityLabel"/><rect height="22" width="46.140625" y="90.18359565734863" x="0" class="er attributeBoxEven"/><text style="dominant-baseline: middle; font-size: 10.2px;" transform="translate(5,101.18359565734863)" y="0" x="0" id="text-entity-Answer-ece50f12-3031-5cf8-81e8-464b2211b4a2-attr-4-type" class="er entityLabel">boolean</text><rect height="22" width="55.5" y="90.18359565734863" x="46.140625" class="er attributeBoxEven"/><text style="dominant-baseline: middle; font-size: 10.2px;" transform="translate(51.140625,101.18359565734863)" y="0" x="0" id="text-entity-Answer-ece50f12-3031-5cf8-81e8-464b2211b4a2-attr-4-name" class="er entityLabel">is_correct</text><rect height="22" width="21.5625" y="90.18359565734863" x="101.640625" class="er attributeBoxEven"/><text style="dominant-baseline: middle; font-size: 10.2px;" transform="translate(106.640625,101.18359565734863)" y="0" x="0" id="text-entity-Answer-ece50f12-3031-5cf8-81e8-464b2211b4a2-attr-4-key" class="er entityLabel"/></g><g transform="translate(278.22265625,978.91796875 )" id="entity-UserAnswer-e0ffb233-fe47-54f6-a77a-4eb316275986"><rect height="134.18359565734863" width="139.265625" y="0" x="0" class="er entityBox"/><text style="dominant-baseline: middle; text-anchor: middle; font-size: 12px;" transform="translate(69.6328125,12)" y="0" x="0" id="text-entity-UserAnswer-e0ffb233-fe47-54f6-a77a-4eb316275986" class="er entityLabel">UserAnswer</text><rect height="22" width="46.140625" y="24" x="0" class="er attributeBoxOdd"/><text style="dominant-baseline: middle; font-size: 10.2px;" transform="translate(5,35)" y="0" x="0" id="text-entity-UserAnswer-e0ffb233-fe47-54f6-a77a-4eb316275986-attr-1-type" class="er entityLabel">int</text><rect height="22" width="71.5625" y="24" x="46.140625" class="er attributeBoxOdd"/><text style="dominant-baseline: middle; font-size: 10.2px;" transform="translate(51.140625,35)" y="0" x="0" id="text-entity-UserAnswer-e0ffb233-fe47-54f6-a77a-4eb316275986-attr-1-name" class="er entityLabel">id</text><rect height="22" width="21.5625" y="24" x="117.703125" class="er attributeBoxOdd"/><text style="dominant-baseline: middle; font-size: 10.2px;" transform="translate(122.703125,35)" y="0" x="0" id="text-entity-UserAnswer-e0ffb233-fe47-54f6-a77a-4eb316275986-attr-1-key" class="er entityLabel">PK</text><rect height="22.091797828674316" width="46.140625" y="46" x="0" class="er attributeBoxEven"/><text style="dominant-baseline: middle; font-size: 10.2px;" transform="translate(5,57.04589891433716)" y="0" x="0" id="text-entity-UserAnswer-e0ffb233-fe47-54f6-a77a-4eb316275986-attr-2-type" class="er entityLabel">int</text><rect height="22.091797828674316" width="71.5625" y="46" x="46.140625" class="er attributeBoxEven"/><text style="dominant-baseline: middle; font-size: 10.2px;" transform="translate(51.140625,57.04589891433716)" y="0" x="0" id="text-entity-UserAnswer-e0ffb233-fe47-54f6-a77a-4eb316275986-attr-2-name" class="er entityLabel">quiz_attempt</text><rect height="22.091797828674316" width="21.5625" y="46" x="117.703125" class="er attributeBoxEven"/><text style="dominant-baseline: middle; font-size: 10.2px;" transform="translate(122.703125,57.04589891433716)" y="0" x="0" id="text-entity-UserAnswer-e0ffb233-fe47-54f6-a77a-4eb316275986-attr-2-key" class="er entityLabel">FK</text><rect height="22.091797828674316" width="46.140625" y="68.09179782867432" x="0" class="er attributeBoxOdd"/><text style="dominant-baseline: middle; font-size: 10.2px;" transform="translate(5,79.13769674301147)" y="0" x="0" id="text-entity-UserAnswer-e0ffb233-fe47-54f6-a77a-4eb316275986-attr-3-type" class="er entityLabel">int</text><rect height="22.091797828674316" width="71.5625" y="68.09179782867432" x="46.140625" class="er attributeBoxOdd"/><text style="dominant-baseline: middle; font-size: 10.2px;" transform="translate(51.140625,79.13769674301147)" y="0" x="0" id="text-entity-UserAnswer-e0ffb233-fe47-54f6-a77a-4eb316275986-attr-3-name" class="er entityLabel">question</text><rect height="22.091797828674316" width="21.5625" y="68.09179782867432" x="117.703125" class="er attributeBoxOdd"/><text style="dominant-baseline: middle; font-size: 10.2px;" transform="translate(122.703125,79.13769674301147)" y="0" x="0" id="text-entity-UserAnswer-e0ffb233-fe47-54f6-a77a-4eb316275986-attr-3-key" class="er entityLabel">FK</text><rect height="22" width="46.140625" y="90.18359565734863" x="0" class="er attributeBoxEven"/><text style="dominant-baseline: middle; font-size: 10.2px;" transform="translate(5,101.18359565734863)" y="0" x="0" id="text-entity-UserAnswer-e0ffb233-fe47-54f6-a77a-4eb316275986-attr-4-type" class="er entityLabel">int</text><rect height="22" width="71.5625" y="90.18359565734863" x="46.140625" class="er attributeBoxEven"/><text style="dominant-baseline: middle; font-size: 10.2px;" transform="translate(51.140625,101.18359565734863)" y="0" x="0" id="text-entity-UserAnswer-e0ffb233-fe47-54f6-a77a-4eb316275986-attr-4-name" class="er entityLabel">answer</text><rect height="22" width="21.5625" y="90.18359565734863" x="117.703125" class="er attributeBoxEven"/><text style="dominant-baseline: middle; font-size: 10.2px;" transform="translate(122.703125,101.18359565734863)" y="0" x="0" id="text-entity-UserAnswer-e0ffb233-fe47-54f6-a77a-4eb316275986-attr-4-key" class="er entityLabel">FK</text><rect height="22" width="46.140625" y="112.18359565734863" x="0" class="er attributeBoxOdd"/><text style="dominant-baseline: middle; font-size: 10.2px;" transform="translate(5,123.18359565734863)" y="0" x="0" id="text-entity-UserAnswer-e0ffb233-fe47-54f6-a77a-4eb316275986-attr-5-type" class="er entityLabel">boolean</text><rect height="22" width="71.5625" y="112.18359565734863" x="46.140625" class="er attributeBoxOdd"/><text style="dominant-baseline: middle; font-size: 10.2px;" transform="translate(51.140625,123.18359565734863)" y="0" x="0" id="text-entity-UserAnswer-e0ffb233-fe47-54f6-a77a-4eb316275986-attr-5-name" class="er entityLabel">is_correct</text><rect height="22" width="21.5625" y="112.18359565734863" x="117.703125" class="er attributeBoxOdd"/><text style="dominant-baseline: middle; font-size: 10.2px;" transform="translate(122.703125,123.18359565734863)" y="0" x="0" id="text-entity-UserAnswer-e0ffb233-fe47-54f6-a77a-4eb316275986-attr-5-key" class="er entityLabel"/></g><rect height="14" width="39.625" y="125.18501281738281" x="357.47216796875" class="er relationshipLabelBox"/><text style="text-anchor: middle; dominant-baseline: middle; font-size: 12px;" y="132.1850128173828" x="377.28466796875" id="rel1" class="er relationshipLabel">creates</text><rect height="14" width="28.53125" y="261.06854248046875" x="29.205341339111328" class="er relationshipLabelBox"/><text style="text-anchor: middle; dominant-baseline: middle; font-size: 12px;" y="268.06854248046875" x="43.47096633911133" id="rel2" class="er relationshipLabel">takes</text><rect height="14" width="17.71875" y="164.2064971923828" x="205.109619140625" class="er relationshipLabelBox"/><text style="text-anchor: middle; dominant-baseline: middle; font-size: 12px;" y="171.2064971923828" x="213.968994140625" id="rel3" class="er relationshipLabel">has</text><rect height="14" width="44.84375" y="446.98712158203125" x="478.1679382324219" class="er relationshipLabelBox"/><text style="text-anchor: middle; dominant-baseline: middle; font-size: 12px;" y="453.98712158203125" x="500.5898132324219" id="rel4" class="er relationshipLabel">contains</text><rect height="14" width="17.71875" y="689.922607421875" x="560.4804077148438" class="er relationshipLabelBox"/><text style="text-anchor: middle; dominant-baseline: middle; font-size: 12px;" y="696.922607421875" x="569.3397827148438" id="rel5" class="er relationshipLabel">has</text><rect height="14" width="17.71875" y="441.8641662597656" x="270.4093322753906" class="er relationshipLabelBox"/><text style="text-anchor: middle; dominant-baseline: middle; font-size: 12px;" y="448.8641662597656" x="279.2687072753906" id="rel6" class="er relationshipLabel">has</text><rect height="14" width="44.84375" y="881.5308227539062" x="78.4448471069336" class="er relationshipLabelBox"/><text style="text-anchor: middle; dominant-baseline: middle; font-size: 12px;" y="888.5308227539062" x="100.8667221069336" id="rel7" class="er relationshipLabel">contains</text><rect height="14" width="57.3125" y="792.884521484375" x="369.3049011230469" class="er relationshipLabelBox"/><text style="text-anchor: middle; dominant-baseline: middle; font-size: 12px;" y="799.884521484375" x="397.9611511230469" id="rel8" class="er relationshipLabel">references</text><rect height="14" width="37.046875" y="952.937255859375" x="498.14288330078125" class="er relationshipLabelBox"/><text style="text-anchor: middle; dominant-baseline: middle; font-size: 12px;" y="959.937255859375" x="516.6663208007812" id="rel9" class="er relationshipLabel">selects</text></svg>