<svg aria-roledescription="requirement" role="graphics-document document" viewBox="10 10 958.046875 1720" style="max-width: 958.047px; background-color: white;" xmlns:xlink="http://www.w3.org/1999/xlink" xmlns="http://www.w3.org/2000/svg" width="100%" id="my-svg"><style>#my-svg{font-family:"trebuchet ms",verdana,arial,sans-serif;font-size:16px;fill:#333;}#my-svg .error-icon{fill:#552222;}#my-svg .error-text{fill:#552222;stroke:#552222;}#my-svg .edge-thickness-normal{stroke-width:1px;}#my-svg .edge-thickness-thick{stroke-width:3.5px;}#my-svg .edge-pattern-solid{stroke-dasharray:0;}#my-svg .edge-thickness-invisible{stroke-width:0;fill:none;}#my-svg .edge-pattern-dashed{stroke-dasharray:3;}#my-svg .edge-pattern-dotted{stroke-dasharray:2;}#my-svg .marker{fill:#333333;stroke:#333333;}#my-svg .marker.cross{stroke:#333333;}#my-svg svg{font-family:"trebuchet ms",verdana,arial,sans-serif;font-size:16px;}#my-svg p{margin:0;}#my-svg marker{fill:#333333;stroke:#333333;}#my-svg marker.cross{stroke:#333333;}#my-svg svg{font-family:"trebuchet ms",verdana,arial,sans-serif;font-size:16px;}#my-svg .reqBox{fill:#ECECFF;fill-opacity:1.0;stroke:hsl(240, 60%, 86.2745098039%);stroke-width:1;}#my-svg .reqTitle,#my-svg .reqLabel{fill:#131300;}#my-svg .reqLabelBox{fill:rgba(232,232,232, 0.8);fill-opacity:1.0;}#my-svg .req-title-line{stroke:hsl(240, 60%, 86.2745098039%);stroke-width:1;}#my-svg .relationshipLine{stroke:#333333;stroke-width:1;}#my-svg .relationshipLabel{fill:black;}#my-svg :root{--mermaid-font-family:"trebuchet ms",verdana,arial,sans-serif;}</style><g/><defs><marker orient="auto" markerHeight="20" markerWidth="20" refY="10" refX="0" id="contains_line_ending"><g><circle fill="none" r="10" cy="10" cx="10"/><line stroke-width="1" y2="10" y1="10" x2="20" x1="0"/><line stroke-width="1" x2="10" x1="10" y2="20" y1="0"/></g></marker></defs><defs><marker orient="auto" markerHeight="20" markerWidth="20" refY="10" refX="20" id="arrow_line_ending"><path stroke-width="1" d="M0,0&#10;      L20,10&#10;      M20,10&#10;      L0,20"/></marker></defs><g transform="translate(370,320 )" id="test_req"><rect height="200px" width="200px" y="0" x="0" class="req reqBox"/><text dominant-baseline="hanging" y="10" x="100" id="test_req_title" class="req reqLabel reqTitle"><tspan dy="0" x="100" text-anchor="middle">&lt;&lt;Requirement&gt;&gt;</tspan><tspan dy="15" x="100" text-anchor="middle">test_req</tspan></text><line y2="45" y1="45" x2="200" x1="0" class="req-title-line"/><text dominant-baseline="hanging" y="45" x="10" id="test_req_body" class="req reqLabel"><tspan dy="20" x="10">Id: 1</tspan><tspan dy="20" x="10">Text: the test text.</tspan><tspan dy="20" x="10">Risk: High</tspan><tspan dy="20" x="10">Verification: Test</tspan></text></g><g transform="translate(70,620 )" id="test_req2"><rect height="200px" width="200px" y="0" x="0" class="req reqBox"/><text dominant-baseline="hanging" y="10" x="100" id="test_req2_title" class="req reqLabel reqTitle"><tspan dy="0" x="100" text-anchor="middle">&lt;&lt;Functional Requirement&gt;&gt;</tspan><tspan dy="15" x="100" text-anchor="middle">test_req2</tspan></text><line y2="45" y1="45" x2="200" x1="0" class="req-title-line"/><text dominant-baseline="hanging" y="45" x="10" id="test_req2_body" class="req reqLabel"><tspan dy="20" x="10">Id: 1.1</tspan><tspan dy="20" x="10">Text: the second test text.</tspan><tspan dy="20" x="10">Risk: Low</tspan><tspan dy="20" x="10">Verification: Inspection</tspan></text></g><g transform="translate(420,620 )" id="test_req3"><rect height="200px" width="200px" y="0" x="0" class="req reqBox"/><text dominant-baseline="hanging" y="10" x="100" id="test_req3_title" class="req reqLabel reqTitle"><tspan dy="0" x="100" text-anchor="middle">&lt;&lt;Performance Requirement&gt;&gt;</tspan><tspan dy="15" x="100" text-anchor="middle">test_req3</tspan></text><line y2="45" y1="45" x2="200" x1="0" class="req-title-line"/><text dominant-baseline="hanging" y="45" x="10" id="test_req3_body" class="req reqLabel"><tspan dy="20" x="10">Id: 1.2</tspan><tspan dy="20" x="10">Text: the third test text.</tspan><tspan dy="20" x="10">Risk: Medium</tspan><tspan dy="20" x="10">Verification: Demonstration</tspan></text></g><g transform="translate(420,920 )" id="test_req4"><rect height="200px" width="200px" y="0" x="0" class="req reqBox"/><text dominant-baseline="hanging" y="10" x="100" id="test_req4_title" class="req reqLabel reqTitle"><tspan dy="0" x="100" text-anchor="middle">&lt;&lt;Interface Requirement&gt;&gt;</tspan><tspan dy="15" x="100" text-anchor="middle">test_req4</tspan></text><line y2="45" y1="45" x2="200" x1="0" class="req-title-line"/><text dominant-baseline="hanging" y="45" x="10" id="test_req4_body" class="req reqLabel"><tspan dy="20" x="10">Id: 1.2.1</tspan><tspan dy="20" x="10">Text: the fourth test text.</tspan><tspan dy="20" x="10">Risk: Medium</tspan><tspan dy="20" x="10">Verification: Analysis</tspan></text></g><g transform="translate(570,1220 )" id="test_req5"><rect height="200px" width="200px" y="0" x="0" class="req reqBox"/><text dominant-baseline="hanging" y="10" x="100" id="test_req5_title" class="req reqLabel reqTitle"><tspan dy="0" x="100" text-anchor="middle">&lt;&lt;Physical Requirement&gt;&gt;</tspan><tspan dy="15" x="100" text-anchor="middle">test_req5</tspan></text><line y2="45" y1="45" x2="200" x1="0" class="req-title-line"/><text dominant-baseline="hanging" y="45" x="10" id="test_req5_body" class="req reqLabel"><tspan dy="20" x="10">Id: 1.2.2</tspan><tspan dy="20" x="10">Text: the fifth test text.</tspan><tspan dy="20" x="10">Risk: Medium</tspan><tspan dy="20" x="10">Verification: Analysis</tspan></text></g><g transform="translate(570,1520 )" id="test_req6"><rect height="200px" width="200px" y="0" x="0" class="req reqBox"/><text dominant-baseline="hanging" y="10" x="100" id="test_req6_title" class="req reqLabel reqTitle"><tspan dy="0" x="100" text-anchor="middle">&lt;&lt;Design Constraint&gt;&gt;</tspan><tspan dy="15" x="100" text-anchor="middle">test_req6</tspan></text><line y2="45" y1="45" x2="200" x1="0" class="req-title-line"/><text dominant-baseline="hanging" y="45" x="10" id="test_req6_body" class="req reqLabel"><tspan dy="20" x="10">Id: 1.2.3</tspan><tspan dy="20" x="10">Text: the sixth test text.</tspan><tspan dy="20" x="10">Risk: Medium</tspan><tspan dy="20" x="10">Verification: Analysis</tspan></text></g><g transform="translate(20,320 )" id="test_entity"><rect height="200px" width="200px" y="0" x="0" class="req reqBox"/><text dominant-baseline="hanging" y="10" x="100" id="element-test_entity_title" class="req reqLabel reqTitle"><tspan dy="0" x="100" text-anchor="middle">&lt;&lt;Element&gt;&gt;</tspan><tspan dy="15" x="100" text-anchor="middle">test_entity</tspan></text><line y2="45" y1="45" x2="200" x1="0" class="req-title-line"/><text dominant-baseline="hanging" y="45" x="10" id="element-test_entity_body" class="req reqLabel"><tspan dy="20" x="10">Type: simulation</tspan><tspan dy="20" x="10">Doc Ref: None</tspan></text></g><g transform="translate(370,20 )" id="test_entity2"><rect height="200px" width="200px" y="0" x="0" class="req reqBox"/><text dominant-baseline="hanging" y="10" x="100" id="element-test_entity2_title" class="req reqLabel reqTitle"><tspan dy="0" x="100" text-anchor="middle">&lt;&lt;Element&gt;&gt;</tspan><tspan dy="15" x="100" text-anchor="middle">test_entity2</tspan></text><line y2="45" y1="45" x2="200" x1="0" class="req-title-line"/><text dominant-baseline="hanging" y="45" x="10" id="element-test_entity2_body" class="req reqLabel"><tspan dy="20" x="10">Type: word doc</tspan><tspan dy="20" x="10">Doc Ref: reqs/test_entity</tspan></text></g><g transform="translate(720,920 )" id="test_entity3"><rect height="200px" width="200px" y="0" x="0" class="req reqBox"/><text dominant-baseline="hanging" y="10" x="100" id="element-test_entity3_title" class="req reqLabel reqTitle"><tspan dy="0" x="100" text-anchor="middle">&lt;&lt;Element&gt;&gt;</tspan><tspan dy="15" x="100" text-anchor="middle">test_entity3</tspan></text><line y2="45" y1="45" x2="200" x1="0" class="req-title-line"/><text dominant-baseline="hanging" y="45" x="10" id="element-test_entity3_body" class="req reqLabel"><tspan dy="20" x="10">Type: test suite</tspan><tspan dy="20" x="10">Doc Ref: github.com/all_the_te</tspan><tspan dy="20" x="10">sts</tspan></text></g><path marker-end="url(#arrow_line_ending)" stroke-dasharray="10,7" fill="none" d="M120,520L120,570L136.667,620" class="er relationshipLine"/><rect fill-opacity="85%" fill="white" height="19" width="91.515625" y="561.782958984375" x="74.66985321044922" class="req reqLabelBox"/><text dominant-baseline="middle" text-anchor="middle" y="571.282958984375" x="120.42766571044922" id="rel0" class="req relationshipLabel">&lt;&lt;satisfies&gt;&gt;</text><path marker-end="url(#arrow_line_ending)" stroke-dasharray="10,7" fill="none" d="M370,520L320,570L270,620" class="er relationshipLine"/><rect fill-opacity="85%" fill="white" height="19" width="77.65625" y="560.5" x="281.171875" class="req reqLabelBox"/><text dominant-baseline="middle" text-anchor="middle" y="570" x="320" id="rel1" class="req relationshipLabel">&lt;&lt;traces&gt;&gt;</text><path marker-start="url(#contains_line_ending)" fill="none" d="M503.333,520L520,570L520,620" class="er relationshipLine"/><rect fill-opacity="85%" fill="white" height="19" width="93.34375" y="559.217041015625" x="472.90045166015625" class="req reqLabelBox"/><text dominant-baseline="middle" text-anchor="middle" y="568.717041015625" x="519.5723266601562" id="rel2" class="req relationshipLabel">&lt;&lt;contains&gt;&gt;</text><path marker-start="url(#contains_line_ending)" fill="none" d="M520,820L520,870L520,920" class="er relationshipLine"/><rect fill-opacity="85%" fill="white" height="19" width="93.34375" y="860.5" x="473.328125" class="req reqLabelBox"/><text dominant-baseline="middle" text-anchor="middle" y="870" x="520" id="rel3" class="req relationshipLabel">&lt;&lt;contains&gt;&gt;</text><path marker-end="url(#arrow_line_ending)" stroke-dasharray="10,7" fill="none" d="M520,1120L520,1170L570,1220" class="er relationshipLine"/><rect fill-opacity="85%" fill="white" height="19" width="85.03125" y="1167.8223876953125" x="484.80670166015625" class="req reqLabelBox"/><text dominant-baseline="middle" text-anchor="middle" y="1177.3223876953125" x="527.3223266601562" id="rel4" class="req relationshipLabel">&lt;&lt;derives&gt;&gt;</text><path marker-end="url(#arrow_line_ending)" stroke-dasharray="10,7" fill="none" d="M670,1420L670,1470L670,1520" class="er relationshipLine"/><rect fill-opacity="85%" fill="white" height="19" width="82.9375" y="1460.5" x="628.53125" class="req reqLabelBox"/><text dominant-baseline="middle" text-anchor="middle" y="1470" x="670" id="rel5" class="req relationshipLabel">&lt;&lt;refines&gt;&gt;</text><path marker-end="url(#arrow_line_ending)" stroke-dasharray="10,7" fill="none" d="M820,1120L820,1170L770,1220" class="er relationshipLine"/><rect fill-opacity="85%" fill="white" height="19" width="86.59375" y="1167.8223876953125" x="769.3807983398438" class="req reqLabelBox"/><text dominant-baseline="middle" text-anchor="middle" y="1177.3223876953125" x="812.6776733398438" id="rel6" class="req relationshipLabel">&lt;&lt;verifies&gt;&gt;</text><path marker-end="url(#arrow_line_ending)" stroke-dasharray="10,7" fill="none" d="M470,220L470,270L470,320" class="er relationshipLine"/><rect fill-opacity="85%" fill="white" height="19" width="78.75" y="260.5" x="430.625" class="req reqLabelBox"/><text dominant-baseline="middle" text-anchor="middle" y="270" x="470" id="rel7" class="req relationshipLabel">&lt;&lt;copies&gt;&gt;</text></svg>