<svg aria-roledescription="er" role="graphics-document document" viewBox="0 0 581.3624267578125 130" style="max-width: 581.362px; background-color: white;" xmlns:xlink="http://www.w3.org/1999/xlink" xmlns="http://www.w3.org/2000/svg" width="100%" id="my-svg"><style>#my-svg{font-family:"trebuchet ms",verdana,arial,sans-serif;font-size:16px;fill:#333;}#my-svg .error-icon{fill:#552222;}#my-svg .error-text{fill:#552222;stroke:#552222;}#my-svg .edge-thickness-normal{stroke-width:1px;}#my-svg .edge-thickness-thick{stroke-width:3.5px;}#my-svg .edge-pattern-solid{stroke-dasharray:0;}#my-svg .edge-thickness-invisible{stroke-width:0;fill:none;}#my-svg .edge-pattern-dashed{stroke-dasharray:3;}#my-svg .edge-pattern-dotted{stroke-dasharray:2;}#my-svg .marker{fill:#333333;stroke:#333333;}#my-svg .marker.cross{stroke:#333333;}#my-svg svg{font-family:"trebuchet ms",verdana,arial,sans-serif;font-size:16px;}#my-svg p{margin:0;}#my-svg .entityBox{fill:#ECECFF;stroke:#9370DB;}#my-svg .attributeBoxOdd{fill:#ffffff;stroke:#9370DB;}#my-svg .attributeBoxEven{fill:#f2f2f2;stroke:#9370DB;}#my-svg .relationshipLabelBox{fill:hsl(80, 100%, 96.2745098039%);opacity:0.7;background-color:hsl(80, 100%, 96.2745098039%);}#my-svg .relationshipLabelBox rect{opacity:0.5;}#my-svg .relationshipLine{stroke:#333333;}#my-svg .entityTitleText{text-anchor:middle;font-size:18px;fill:#333;}#my-svg #MD_PARENT_START{fill:#f5f5f5!important;stroke:#333333!important;stroke-width:1;}#my-svg #MD_PARENT_END{fill:#f5f5f5!important;stroke:#333333!important;stroke-width:1;}#my-svg :root{--mermaid-font-family:"trebuchet ms",verdana,arial,sans-serif;}</style><g/><defs><marker orient="auto" markerHeight="240" markerWidth="190" refY="7" refX="0" id="MD_PARENT_START"><path d="M 18,7 L9,13 L1,7 L9,1 Z"/></marker></defs><defs><marker orient="auto" markerHeight="28" markerWidth="20" refY="7" refX="19" id="MD_PARENT_END"><path d="M 18,7 L9,13 L1,7 L9,1 Z"/></marker></defs><defs><marker orient="auto" markerHeight="18" markerWidth="18" refY="9" refX="0" id="ONLY_ONE_START"><path d="M9,0 L9,18 M15,0 L15,18" fill="none" stroke="gray"/></marker></defs><defs><marker orient="auto" markerHeight="18" markerWidth="18" refY="9" refX="18" id="ONLY_ONE_END"><path d="M3,0 L3,18 M9,0 L9,18" fill="none" stroke="gray"/></marker></defs><defs><marker orient="auto" markerHeight="18" markerWidth="30" refY="9" refX="0" id="ZERO_OR_ONE_START"><circle r="6" cy="9" cx="21" fill="white" stroke="gray"/><path d="M9,0 L9,18" fill="none" stroke="gray"/></marker></defs><defs><marker orient="auto" markerHeight="18" markerWidth="30" refY="9" refX="30" id="ZERO_OR_ONE_END"><circle r="6" cy="9" cx="9" fill="white" stroke="gray"/><path d="M21,0 L21,18" fill="none" stroke="gray"/></marker></defs><defs><marker orient="auto" markerHeight="36" markerWidth="45" refY="18" refX="18" id="ONE_OR_MORE_START"><path d="M0,18 Q 18,0 36,18 Q 18,36 0,18 M42,9 L42,27" fill="none" stroke="gray"/></marker></defs><defs><marker orient="auto" markerHeight="36" markerWidth="45" refY="18" refX="27" id="ONE_OR_MORE_END"><path d="M3,9 L3,27 M9,18 Q27,0 45,18 Q27,36 9,18" fill="none" stroke="gray"/></marker></defs><defs><marker orient="auto" markerHeight="36" markerWidth="57" refY="18" refX="18" id="ZERO_OR_MORE_START"><circle r="6" cy="18" cx="48" fill="white" stroke="gray"/><path d="M0,18 Q18,0 36,18 Q18,36 0,18" fill="none" stroke="gray"/></marker></defs><defs><marker orient="auto" markerHeight="36" markerWidth="57" refY="18" refX="39" id="ZERO_OR_MORE_END"><circle r="6" cy="18" cx="9" fill="white" stroke="gray"/><path d="M21,18 Q39,0 57,18 Q39,36 21,18" fill="none" stroke="gray"/></marker></defs><path style="stroke: gray; fill: none;" marker-start="url(#ZERO_OR_MORE_START)" marker-end="url(#ZERO_OR_MORE_END)" d="M120,55.398L131.667,53.157C143.333,50.916,166.667,46.435,181.25,44.195C195.833,41.954,201.667,41.954,207.5,45.795C213.333,49.636,219.167,57.318,219.167,65C219.167,72.682,213.333,80.364,207.5,84.205C201.667,88.046,195.833,88.046,181.25,85.805C166.667,83.565,143.333,79.084,131.667,76.843L120,74.602" class="er relationshipLine"/><path style="stroke: gray; fill: none;" marker-start="url(#ZERO_OR_ONE_START)" marker-end="url(#ZERO_OR_MORE_END)" d="M430.172,46.231L441.839,41.859C453.505,37.487,476.839,28.744,491.422,24.372C506.005,20,511.839,20,517.672,27.5C523.505,35,529.339,50,529.339,65C529.339,80,523.505,95,517.672,102.5C511.839,110,506.005,110,491.422,105.628C476.839,101.256,453.505,92.513,441.839,88.141L430.172,83.769" class="er relationshipLine"/><g transform="translate(20,41.9541015625 )" id="entity-PIECE-2bb1847f-4a38-55ea-baed-f5b72392493e"><rect height="46.091797828674316" width="100" y="0" x="0" class="er entityBox"/><text style="dominant-baseline: middle; text-anchor: middle; font-size: 12px;" transform="translate(50,12)" y="0" x="0" id="text-entity-PIECE-2bb1847f-4a38-55ea-baed-f5b72392493e" class="er entityLabel">PIECE</text><rect height="22.091797828674316" width="36.479166666666664" y="24" x="0" class="er attributeBoxOdd"/><text style="dominant-baseline: middle; font-size: 10.2px;" transform="translate(5,35.04589891433716)" y="0" x="0" id="text-entity-PIECE-2bb1847f-4a38-55ea-baed-f5b72392493e-attr-1-type" class="er entityLabel">TYPE</text><rect height="22.091797828674316" width="38.369791666666664" y="24" x="36.479166666666664" class="er attributeBoxOdd"/><text style="dominant-baseline: middle; font-size: 10.2px;" transform="translate(41.479166666666664,35.04589891433716)" y="0" x="0" id="text-entity-PIECE-2bb1847f-4a38-55ea-baed-f5b72392493e-attr-1-name" class="er entityLabel">piece</text><rect height="22.091797828674316" width="25.151041666666668" y="24" x="74.84895833333333" class="er attributeBoxOdd"/><text style="dominant-baseline: middle; font-size: 10.2px;" transform="translate(79.84895833333333,35.04589891433716)" y="0" x="0" id="text-entity-PIECE-2bb1847f-4a38-55ea-baed-f5b72392493e-attr-1-key" class="er entityLabel">PK</text></g><g transform="translate(330,20 )" id="entity-HOMME-90a3088b-c736-55b3-8340-6031a2f1fc22"><rect height="90" width="100.171875" y="0" x="0" class="er entityBox"/><text style="dominant-baseline: middle; text-anchor: middle; font-size: 12px;" transform="translate(50.0859375,12)" y="0" x="0" id="text-entity-HOMME-90a3088b-c736-55b3-8340-6031a2f1fc22" class="er entityLabel">HOMME</text><rect height="22" width="32.890625" y="24" x="0" class="er attributeBoxOdd"/><text style="dominant-baseline: middle; font-size: 10.2px;" transform="translate(5,35)" y="0" x="0" id="text-entity-HOMME-90a3088b-c736-55b3-8340-6031a2f1fc22-attr-1-type" class="er entityLabel">TYPE</text><rect height="22" width="45.71875" y="24" x="32.890625" class="er attributeBoxOdd"/><text style="dominant-baseline: middle; font-size: 10.2px;" transform="translate(37.890625,35)" y="0" x="0" id="text-entity-HOMME-90a3088b-c736-55b3-8340-6031a2f1fc22-attr-1-name" class="er entityLabel">Num_SS</text><rect height="22" width="21.5625" y="24" x="78.609375" class="er attributeBoxOdd"/><text style="dominant-baseline: middle; font-size: 10.2px;" transform="translate(83.609375,35)" y="0" x="0" id="text-entity-HOMME-90a3088b-c736-55b3-8340-6031a2f1fc22-attr-1-key" class="er entityLabel">PK</text><rect height="22" width="32.890625" y="46" x="0" class="er attributeBoxEven"/><text style="dominant-baseline: middle; font-size: 10.2px;" transform="translate(5,57)" y="0" x="0" id="text-entity-HOMME-90a3088b-c736-55b3-8340-6031a2f1fc22-attr-2-type" class="er entityLabel">TYPE</text><rect height="22" width="45.71875" y="46" x="32.890625" class="er attributeBoxEven"/><text style="dominant-baseline: middle; font-size: 10.2px;" transform="translate(37.890625,57)" y="0" x="0" id="text-entity-HOMME-90a3088b-c736-55b3-8340-6031a2f1fc22-attr-2-name" class="er entityLabel">Nom</text><rect height="22" width="21.5625" y="46" x="78.609375" class="er attributeBoxEven"/><text style="dominant-baseline: middle; font-size: 10.2px;" transform="translate(83.609375,57)" y="0" x="0" id="text-entity-HOMME-90a3088b-c736-55b3-8340-6031a2f1fc22-attr-2-key" class="er entityLabel"/><rect height="22" width="32.890625" y="68" x="0" class="er attributeBoxOdd"/><text style="dominant-baseline: middle; font-size: 10.2px;" transform="translate(5,79)" y="0" x="0" id="text-entity-HOMME-90a3088b-c736-55b3-8340-6031a2f1fc22-attr-3-type" class="er entityLabel">TYPE</text><rect height="22" width="45.71875" y="68" x="32.890625" class="er attributeBoxOdd"/><text style="dominant-baseline: middle; font-size: 10.2px;" transform="translate(37.890625,79)" y="0" x="0" id="text-entity-HOMME-90a3088b-c736-55b3-8340-6031a2f1fc22-attr-3-name" class="er entityLabel">Prenom</text><rect height="22" width="21.5625" y="68" x="78.609375" class="er attributeBoxOdd"/><text style="dominant-baseline: middle; font-size: 10.2px;" transform="translate(83.609375,79)" y="0" x="0" id="text-entity-HOMME-90a3088b-c736-55b3-8340-6031a2f1fc22-attr-3-key" class="er entityLabel"/></g><rect height="14" width="57.75" y="58" x="190.29200744628906" class="er relationshipLabelBox"/><text style="text-anchor: middle; dominant-baseline: middle; font-size: 12px;" y="65" x="219.16700744628906" id="rel1" class="er relationshipLabel">COMPOSER</text><rect height="14" width="64.046875" y="57.99998474121094" x="497.3155517578125" class="er relationshipLabelBox"/><text style="text-anchor: middle; dominant-baseline: middle; font-size: 12px;" y="64.99998474121094" x="529.3389892578125" id="rel2" class="er relationshipLabel">ENGENDRER</text></svg>