<svg aria-roledescription="er" role="graphics-document document" viewBox="0 0 398.703125 465" style="max-width: 398.703px; background-color: white;" xmlns:xlink="http://www.w3.org/1999/xlink" xmlns="http://www.w3.org/2000/svg" width="100%" id="my-svg"><style>#my-svg{font-family:"trebuchet ms",verdana,arial,sans-serif;font-size:16px;fill:#333;}#my-svg .error-icon{fill:#552222;}#my-svg .error-text{fill:#552222;stroke:#552222;}#my-svg .edge-thickness-normal{stroke-width:1px;}#my-svg .edge-thickness-thick{stroke-width:3.5px;}#my-svg .edge-pattern-solid{stroke-dasharray:0;}#my-svg .edge-thickness-invisible{stroke-width:0;fill:none;}#my-svg .edge-pattern-dashed{stroke-dasharray:3;}#my-svg .edge-pattern-dotted{stroke-dasharray:2;}#my-svg .marker{fill:#333333;stroke:#333333;}#my-svg .marker.cross{stroke:#333333;}#my-svg svg{font-family:"trebuchet ms",verdana,arial,sans-serif;font-size:16px;}#my-svg p{margin:0;}#my-svg .entityBox{fill:#ECECFF;stroke:#9370DB;}#my-svg .attributeBoxOdd{fill:#ffffff;stroke:#9370DB;}#my-svg .attributeBoxEven{fill:#f2f2f2;stroke:#9370DB;}#my-svg .relationshipLabelBox{fill:hsl(80, 100%, 96.2745098039%);opacity:0.7;background-color:hsl(80, 100%, 96.2745098039%);}#my-svg .relationshipLabelBox rect{opacity:0.5;}#my-svg .relationshipLine{stroke:#333333;}#my-svg .entityTitleText{text-anchor:middle;font-size:18px;fill:#333;}#my-svg #MD_PARENT_START{fill:#f5f5f5!important;stroke:#333333!important;stroke-width:1;}#my-svg #MD_PARENT_END{fill:#f5f5f5!important;stroke:#333333!important;stroke-width:1;}#my-svg :root{--mermaid-font-family:"trebuchet ms",verdana,arial,sans-serif;}</style><g/><defs><marker orient="auto" markerHeight="240" markerWidth="190" refY="7" refX="0" id="MD_PARENT_START"><path d="M 18,7 L9,13 L1,7 L9,1 Z"/></marker></defs><defs><marker orient="auto" markerHeight="28" markerWidth="20" refY="7" refX="19" id="MD_PARENT_END"><path d="M 18,7 L9,13 L1,7 L9,1 Z"/></marker></defs><defs><marker orient="auto" markerHeight="18" markerWidth="18" refY="9" refX="0" id="ONLY_ONE_START"><path d="M9,0 L9,18 M15,0 L15,18" fill="none" stroke="gray"/></marker></defs><defs><marker orient="auto" markerHeight="18" markerWidth="18" refY="9" refX="18" id="ONLY_ONE_END"><path d="M3,0 L3,18 M9,0 L9,18" fill="none" stroke="gray"/></marker></defs><defs><marker orient="auto" markerHeight="18" markerWidth="30" refY="9" refX="0" id="ZERO_OR_ONE_START"><circle r="6" cy="9" cx="21" fill="white" stroke="gray"/><path d="M9,0 L9,18" fill="none" stroke="gray"/></marker></defs><defs><marker orient="auto" markerHeight="18" markerWidth="30" refY="9" refX="30" id="ZERO_OR_ONE_END"><circle r="6" cy="9" cx="9" fill="white" stroke="gray"/><path d="M21,0 L21,18" fill="none" stroke="gray"/></marker></defs><defs><marker orient="auto" markerHeight="36" markerWidth="45" refY="18" refX="18" id="ONE_OR_MORE_START"><path d="M0,18 Q 18,0 36,18 Q 18,36 0,18 M42,9 L42,27" fill="none" stroke="gray"/></marker></defs><defs><marker orient="auto" markerHeight="36" markerWidth="45" refY="18" refX="27" id="ONE_OR_MORE_END"><path d="M3,9 L3,27 M9,18 Q27,0 45,18 Q27,36 9,18" fill="none" stroke="gray"/></marker></defs><defs><marker orient="auto" markerHeight="36" markerWidth="57" refY="18" refX="18" id="ZERO_OR_MORE_START"><circle r="6" cy="18" cx="48" fill="white" stroke="gray"/><path d="M0,18 Q18,0 36,18 Q18,36 0,18" fill="none" stroke="gray"/></marker></defs><defs><marker orient="auto" markerHeight="36" markerWidth="57" refY="18" refX="39" id="ZERO_OR_MORE_END"><circle r="6" cy="18" cx="9" fill="white" stroke="gray"/><path d="M21,18 Q39,0 57,18 Q39,36 21,18" fill="none" stroke="gray"/></marker></defs><path style="stroke: gray; fill: none;" marker-start="url(#ZERO_OR_ONE_START)" marker-end="url(#ZERO_OR_ONE_END)" d="M93.266,95L93.266,103.333C93.266,111.667,93.266,128.333,104.141,145C115.016,161.667,136.767,178.333,147.642,186.667L158.518,195" class="er relationshipLine"/><path style="stroke: gray; fill: none;" marker-start="url(#ZERO_OR_ONE_START)" marker-end="url(#ZERO_OR_ONE_END)" d="M321.648,95L321.648,103.333C321.648,111.667,321.648,128.333,310.773,145C299.898,161.667,278.147,178.333,267.272,186.667L256.396,195" class="er relationshipLine"/><path style="stroke: gray; fill: none;" marker-start="url(#ONLY_ONE_START)" marker-end="url(#ONLY_ONE_END)" d="M161.565,270L151.366,278.333C141.168,286.667,120.772,303.333,110.573,320C100.375,336.667,100.375,353.333,100.375,361.667L100.375,370" class="er relationshipLine"/><path style="stroke: gray; fill: none;" marker-start="url(#ONE_OR_MORE_START)" marker-end="url(#ONE_OR_MORE_END)" d="M253.349,270L263.548,278.333C273.746,286.667,294.142,303.333,304.341,322.409C314.539,341.485,314.539,362.969,314.539,373.712L314.539,384.454" class="er relationshipLine"/><g transform="translate(20,20 )" id="entity-INDUSTRYMODELLING-2a878e94-b64f-5b6d-aeb2-138a55553e6f"><rect height="75" width="146.53125" y="0" x="0" class="er entityBox"/><text style="dominant-baseline: middle; text-anchor: middle; font-size: 12px;" transform="translate(73.265625,37.5)" y="0" x="0" id="text-entity-INDUSTRYMODELLING-2a878e94-b64f-5b6d-aeb2-138a55553e6f" class="er entityLabel">INDUSTRY-MODELLING</text></g><g transform="translate(157.45703125,195 )" id="entity-REGISTRY-3a7da15f-ae42-535b-bc4a-cdff0d554bd9"><rect height="75" width="100" y="0" x="0" class="er entityBox"/><text style="dominant-baseline: middle; text-anchor: middle; font-size: 12px;" transform="translate(50,37.5)" y="0" x="0" id="text-entity-REGISTRY-3a7da15f-ae42-535b-bc4a-cdff0d554bd9" class="er entityLabel">REGISTRY</text></g><g transform="translate(266.53125,20 )" id="entity-RCMODELLING-81746db5-7ba5-5fd0-aa5b-8574803baac1"><rect height="75" width="110.234375" y="0" x="0" class="er entityBox"/><text style="dominant-baseline: middle; text-anchor: middle; font-size: 12px;" transform="translate(55.1171875,37.5)" y="0" x="0" id="text-entity-RCMODELLING-81746db5-7ba5-5fd0-aa5b-8574803baac1" class="er entityLabel">RC-MODELLING</text></g><g transform="translate(250.375,384.4541015625 )" id="entity-EVENTEXECUTION-201170a8-8ec2-52fa-a06c-5860f422005e"><rect height="46.091796875" width="128.328125" y="0" x="0" class="er entityBox"/><text style="dominant-baseline: middle; text-anchor: middle; font-size: 12px;" transform="translate(64.1640625,12)" y="0" x="0" id="text-entity-EVENTEXECUTION-201170a8-8ec2-52fa-a06c-5860f422005e" class="er entityLabel">EVENT-EXECUTION</text><rect height="22.091796875" width="81.5" y="24" x="0" class="er attributeBoxOdd"/><text style="dominant-baseline: middle; font-size: 10.2px;" transform="translate(5,35.0458984375)" y="0" x="0" id="text-entity-EVENTEXECUTION-201170a8-8ec2-52fa-a06c-5860f422005e-attr-1-type" class="er entityLabel">EVENT-TYPE</text><rect height="22.091796875" width="46.828125" y="24" x="81.5" class="er attributeBoxOdd"/><text style="dominant-baseline: middle; font-size: 10.2px;" transform="translate(86.5,35.0458984375)" y="0" x="0" id="text-entity-EVENTEXECUTION-201170a8-8ec2-52fa-a06c-5860f422005e-attr-1-name" class="er entityLabel">type</text></g><g transform="translate(50.375,370 )" id="entity-SCHEDULER-4878ebb1-831e-570f-ae80-426a16f06d54"><rect height="75" width="100" y="0" x="0" class="er entityBox"/><text style="dominant-baseline: middle; text-anchor: middle; font-size: 12px;" transform="translate(50,37.5)" y="0" x="0" id="text-entity-SCHEDULER-4878ebb1-831e-570f-ae80-426a16f06d54" class="er entityLabel">SCHEDULER</text></g><rect height="14" width="87.140625" y="146.81117248535156" x="67.25347137451172" class="er relationshipLabelBox"/><text style="text-anchor: middle; dominant-baseline: middle; font-size: 12px;" y="153.81117248535156" x="110.82378387451172" id="rel1" class="er relationshipLabel">produces events</text><rect height="14" width="87.140625" y="146.81117248535156" x="260.5199279785156" class="er relationshipLabelBox"/><text style="text-anchor: middle; dominant-baseline: middle; font-size: 12px;" y="153.81117248535156" x="304.0902404785156" id="rel2" class="er relationshipLabel">produces events</text><rect height="14" width="44.84375" y="304.8668212890625" x="93.87812805175781" class="er relationshipLabelBox"/><text style="text-anchor: middle; dominant-baseline: middle; font-size: 12px;" y="311.8668212890625" x="116.30000305175781" id="rel3" class="er relationshipLabel">contains</text><rect height="14" width="39.046875" y="311.0837097167969" x="282.3114929199219" class="er relationshipLabelBox"/><text style="text-anchor: middle; dominant-baseline: middle; font-size: 12px;" y="318.0837097167969" x="301.8349304199219" id="rel4" class="er relationshipLabel">defines</text></svg>