<svg aria-roledescription="er" role="graphics-document document" viewBox="0 -62 415 535.458984375" style="max-width: 415px; background-color: white;" xmlns:xlink="http://www.w3.org/1999/xlink" xmlns="http://www.w3.org/2000/svg" width="100%" id="my-svg"><style>#my-svg{font-family:"trebuchet ms",verdana,arial,sans-serif;font-size:16px;fill:#333;}#my-svg .error-icon{fill:#552222;}#my-svg .error-text{fill:#552222;stroke:#552222;}#my-svg .edge-thickness-normal{stroke-width:1px;}#my-svg .edge-thickness-thick{stroke-width:3.5px;}#my-svg .edge-pattern-solid{stroke-dasharray:0;}#my-svg .edge-thickness-invisible{stroke-width:0;fill:none;}#my-svg .edge-pattern-dashed{stroke-dasharray:3;}#my-svg .edge-pattern-dotted{stroke-dasharray:2;}#my-svg .marker{fill:#333333;stroke:#333333;}#my-svg .marker.cross{stroke:#333333;}#my-svg svg{font-family:"trebuchet ms",verdana,arial,sans-serif;font-size:16px;}#my-svg p{margin:0;}#my-svg .entityBox{fill:#ECECFF;stroke:#9370DB;}#my-svg .attributeBoxOdd{fill:#ffffff;stroke:#9370DB;}#my-svg .attributeBoxEven{fill:#f2f2f2;stroke:#9370DB;}#my-svg .relationshipLabelBox{fill:hsl(80, 100%, 96.2745098039%);opacity:0.7;background-color:hsl(80, 100%, 96.2745098039%);}#my-svg .relationshipLabelBox rect{opacity:0.5;}#my-svg .relationshipLine{stroke:#333333;}#my-svg .entityTitleText{text-anchor:middle;font-size:18px;fill:#333;}#my-svg #MD_PARENT_START{fill:#f5f5f5!important;stroke:#333333!important;stroke-width:1;}#my-svg #MD_PARENT_END{fill:#f5f5f5!important;stroke:#333333!important;stroke-width:1;}#my-svg :root{--mermaid-font-family:"trebuchet ms",verdana,arial,sans-serif;}</style><g/><defs><marker orient="auto" markerHeight="240" markerWidth="190" refY="7" refX="0" id="MD_PARENT_START"><path d="M 18,7 L9,13 L1,7 L9,1 Z"/></marker></defs><defs><marker orient="auto" markerHeight="28" markerWidth="20" refY="7" refX="19" id="MD_PARENT_END"><path d="M 18,7 L9,13 L1,7 L9,1 Z"/></marker></defs><defs><marker orient="auto" markerHeight="18" markerWidth="18" refY="9" refX="0" id="ONLY_ONE_START"><path d="M9,0 L9,18 M15,0 L15,18" fill="none" stroke="gray"/></marker></defs><defs><marker orient="auto" markerHeight="18" markerWidth="18" refY="9" refX="18" id="ONLY_ONE_END"><path d="M3,0 L3,18 M9,0 L9,18" fill="none" stroke="gray"/></marker></defs><defs><marker orient="auto" markerHeight="18" markerWidth="30" refY="9" refX="0" id="ZERO_OR_ONE_START"><circle r="6" cy="9" cx="21" fill="white" stroke="gray"/><path d="M9,0 L9,18" fill="none" stroke="gray"/></marker></defs><defs><marker orient="auto" markerHeight="18" markerWidth="30" refY="9" refX="30" id="ZERO_OR_ONE_END"><circle r="6" cy="9" cx="9" fill="white" stroke="gray"/><path d="M21,0 L21,18" fill="none" stroke="gray"/></marker></defs><defs><marker orient="auto" markerHeight="36" markerWidth="45" refY="18" refX="18" id="ONE_OR_MORE_START"><path d="M0,18 Q 18,0 36,18 Q 18,36 0,18 M42,9 L42,27" fill="none" stroke="gray"/></marker></defs><defs><marker orient="auto" markerHeight="36" markerWidth="45" refY="18" refX="27" id="ONE_OR_MORE_END"><path d="M3,9 L3,27 M9,18 Q27,0 45,18 Q27,36 9,18" fill="none" stroke="gray"/></marker></defs><defs><marker orient="auto" markerHeight="36" markerWidth="57" refY="18" refX="18" id="ZERO_OR_MORE_START"><circle r="6" cy="18" cx="48" fill="white" stroke="gray"/><path d="M0,18 Q18,0 36,18 Q18,36 0,18" fill="none" stroke="gray"/></marker></defs><defs><marker orient="auto" markerHeight="36" markerWidth="57" refY="18" refX="39" id="ZERO_OR_MORE_END"><circle r="6" cy="18" cx="9" fill="white" stroke="gray"/><path d="M21,18 Q39,0 57,18 Q39,36 21,18" fill="none" stroke="gray"/></marker></defs><path style="stroke: gray; fill: none;" marker-start="url(#ONLY_ONE_START)" marker-end="url(#ZERO_OR_MORE_END)" d="M125.246,80.546L116.039,91.288C106.831,102.031,88.415,123.515,79.208,142.591C70,161.667,70,178.333,70,186.667L70,195" class="er relationshipLine"/><path style="stroke: gray; fill: none;" marker-start="url(#ZERO_OR_ONE_START)" marker-end="url(#ZERO_OR_MORE_END)" d="M70,263.184L70,271.517C70,279.85,70,296.517,76.569,313.184C83.139,329.85,96.278,346.517,102.847,354.85L109.417,363.184" class="er relationshipLine"/><path style="stroke: gray; fill: none;" marker-start="url(#ONLY_ONE_START)" marker-end="url(#ZERO_OR_MORE_END)" d="M180.583,363.184L187.153,354.85C193.722,346.517,206.861,329.85,213.431,307.502C220,285.153,220,257.122,220,229.092C220,201.061,220,173.031,210.792,148.273C201.585,123.515,183.169,102.031,173.961,91.288L164.754,80.546" class="er relationshipLine"/><g transform="translate(95,34.4541015625 )" id="entity-e1-624190f1-305a-5e5e-96fc-15f3f64845d8"><rect height="46.091796875" width="100" y="0" x="0" class="er entityBox"/><text style="dominant-baseline: middle; text-anchor: middle; font-size: 12px;" transform="translate(50,12)" y="0" x="0" id="text-entity-e1-624190f1-305a-5e5e-96fc-15f3f64845d8" class="er entityLabel">entity1</text><rect height="22.091796875" width="34.265625" y="24" x="0" class="er attributeBoxOdd"/><text style="dominant-baseline: middle; font-size: 10.2px;" transform="translate(5,35.0458984375)" y="0" x="0" id="text-entity-e1-624190f1-305a-5e5e-96fc-15f3f64845d8-attr-1-type" class="er entityLabel">type</text><rect height="22.091796875" width="31.359375" y="24" x="34.265625" class="er attributeBoxOdd"/><text style="dominant-baseline: middle; font-size: 10.2px;" transform="translate(39.265625,35.0458984375)" y="0" x="0" id="text-entity-e1-624190f1-305a-5e5e-96fc-15f3f64845d8-attr-1-name" class="er entityLabel">attr</text><rect height="22.091796875" width="34.375" y="24" x="65.625" class="er attributeBoxOdd"/><text style="dominant-baseline: middle; font-size: 10.2px;" transform="translate(70.625,35.0458984375)" y="0" x="0" id="text-entity-e1-624190f1-305a-5e5e-96fc-15f3f64845d8-attr-1-comment" class="er entityLabel">desc</text></g><g transform="translate(20,195 )" id="entity-e2-cff1a8dc-10c4-506d-a6b9-8f65b7595c54"><rect height="68.18359375" width="100" y="0" x="0" class="er entityBox"/><text style="dominant-baseline: middle; text-anchor: middle; font-size: 12px;" transform="translate(50,12)" y="0" x="0" id="text-entity-e2-cff1a8dc-10c4-506d-a6b9-8f65b7595c54" class="er entityLabel">entity2</text><rect height="22.091796875" width="51.453125" y="24" x="0" class="er attributeBoxOdd"/><text style="dominant-baseline: middle; font-size: 10.2px;" transform="translate(5,35.0458984375)" y="0" x="0" id="text-entity-e2-cff1a8dc-10c4-506d-a6b9-8f65b7595c54-attr-1-type" class="er entityLabel">type</text><rect height="22.091796875" width="48.546875" y="24" x="51.453125" class="er attributeBoxOdd"/><text style="dominant-baseline: middle; font-size: 10.2px;" transform="translate(56.453125,35.0458984375)" y="0" x="0" id="text-entity-e2-cff1a8dc-10c4-506d-a6b9-8f65b7595c54-attr-1-name" class="er entityLabel">attr</text><rect height="22.091796875" width="51.453125" y="46.091796875" x="0" class="er attributeBoxEven"/><text style="dominant-baseline: middle; font-size: 10.2px;" transform="translate(5,57.1376953125)" y="0" x="0" id="text-entity-e2-cff1a8dc-10c4-506d-a6b9-8f65b7595c54-attr-2-type" class="er entityLabel">type</text><rect height="22.091796875" width="48.546875" y="46.091796875" x="51.453125" class="er attributeBoxEven"/><text style="dominant-baseline: middle; font-size: 10.2px;" transform="translate(56.453125,57.1376953125)" y="0" x="0" id="text-entity-e2-cff1a8dc-10c4-506d-a6b9-8f65b7595c54-attr-2-name" class="er entityLabel">attr</text></g><g transform="translate(95,363.18359375 )" id="entity-entity3-b2e972c4-ac82-57d3-a1f0-25bf1853434f"><rect height="90.275390625" width="100" y="0" x="0" class="er entityBox"/><text style="dominant-baseline: middle; text-anchor: middle; font-size: 12px;" transform="translate(50,12)" y="0" x="0" id="text-entity-entity3-b2e972c4-ac82-57d3-a1f0-25bf1853434f" class="er entityLabel">entity3</text><rect height="22.091796875" width="51.453125" y="24" x="0" class="er attributeBoxOdd"/><text style="dominant-baseline: middle; font-size: 10.2px;" transform="translate(5,35.0458984375)" y="0" x="0" id="text-entity-entity3-b2e972c4-ac82-57d3-a1f0-25bf1853434f-attr-1-type" class="er entityLabel">type</text><rect height="22.091796875" width="48.546875" y="24" x="51.453125" class="er attributeBoxOdd"/><text style="dominant-baseline: middle; font-size: 10.2px;" transform="translate(56.453125,35.0458984375)" y="0" x="0" id="text-entity-entity3-b2e972c4-ac82-57d3-a1f0-25bf1853434f-attr-1-name" class="er entityLabel">attr</text><rect height="22.091796875" width="51.453125" y="46.091796875" x="0" class="er attributeBoxEven"/><text style="dominant-baseline: middle; font-size: 10.2px;" transform="translate(5,57.1376953125)" y="0" x="0" id="text-entity-entity3-b2e972c4-ac82-57d3-a1f0-25bf1853434f-attr-2-type" class="er entityLabel">type</text><rect height="22.091796875" width="48.546875" y="46.091796875" x="51.453125" class="er attributeBoxEven"/><text style="dominant-baseline: middle; font-size: 10.2px;" transform="translate(56.453125,57.1376953125)" y="0" x="0" id="text-entity-entity3-b2e972c4-ac82-57d3-a1f0-25bf1853434f-attr-2-name" class="er entityLabel">attr</text><rect height="22.091796875" width="51.453125" y="68.18359375" x="0" class="er attributeBoxOdd"/><text style="dominant-baseline: middle; font-size: 10.2px;" transform="translate(5,79.2294921875)" y="0" x="0" id="text-entity-entity3-b2e972c4-ac82-57d3-a1f0-25bf1853434f-attr-3-type" class="er entityLabel">type</text><rect height="22.091796875" width="48.546875" y="68.18359375" x="51.453125" class="er attributeBoxOdd"/><text style="dominant-baseline: middle; font-size: 10.2px;" transform="translate(56.453125,79.2294921875)" y="0" x="0" id="text-entity-entity3-b2e972c4-ac82-57d3-a1f0-25bf1853434f-attr-3-name" class="er entityLabel">attr</text></g><g transform="translate(295,20 )" id="entity-entity4-9042506f-056d-532c-9ed5-c8cb3bc2ee84"><rect height="75" width="100" y="0" x="0" class="er entityBox"/><text style="dominant-baseline: middle; text-anchor: middle; font-size: 12px;" transform="translate(50,37.5)" y="0" x="0" id="text-entity-entity4-9042506f-056d-532c-9ed5-c8cb3bc2ee84" class="er entityLabel">entity4</text></g><rect height="14" width="22.078125" y="125.22074890136719" x="73.87474060058594" class="er relationshipLabelBox"/><text style="text-anchor: middle; dominant-baseline: middle; font-size: 12px;" y="132.2207489013672" x="84.91380310058594" id="rel1" class="er relationshipLabel">text</text><rect height="14" width="22.078125" y="310.44439697265625" x="67.34685516357422" class="er relationshipLabelBox"/><text style="text-anchor: middle; dominant-baseline: middle; font-size: 12px;" y="317.44439697265625" x="78.38591766357422" id="rel2" class="er relationshipLabel">text</text><rect height="14" width="22.078125" y="212.04779052734375" x="208.94479370117188" class="er relationshipLabelBox"/><text style="text-anchor: middle; dominant-baseline: middle; font-size: 12px;" y="219.04779052734375" x="219.98385620117188" id="rel3" class="er relationshipLabel">text</text><text class="entityTitleText" y="-25" x="207.5" text-anchor="middle">relation</text></svg>