<svg aria-roledescription="gitGraph" role="graphics-document document" viewBox="-67.77262115478516 -8 256.8130187988281 663.3822021484375" style="max-width: 256.813px; background-color: white;" xmlns:xlink="http://www.w3.org/1999/xlink" xmlns="http://www.w3.org/2000/svg" width="100%" id="my-svg"><style>#my-svg{font-family:"trebuchet ms",verdana,arial,sans-serif;font-size:16px;fill:#333;}#my-svg .error-icon{fill:#552222;}#my-svg .error-text{fill:#552222;stroke:#552222;}#my-svg .edge-thickness-normal{stroke-width:1px;}#my-svg .edge-thickness-thick{stroke-width:3.5px;}#my-svg .edge-pattern-solid{stroke-dasharray:0;}#my-svg .edge-thickness-invisible{stroke-width:0;fill:none;}#my-svg .edge-pattern-dashed{stroke-dasharray:3;}#my-svg .edge-pattern-dotted{stroke-dasharray:2;}#my-svg .marker{fill:#333333;stroke:#333333;}#my-svg .marker.cross{stroke:#333333;}#my-svg svg{font-family:"trebuchet ms",verdana,arial,sans-serif;font-size:16px;}#my-svg p{margin:0;}#my-svg .commit-id,#my-svg .commit-msg,#my-svg .branch-label{fill:lightgrey;color:lightgrey;font-family:'trebuchet ms',verdana,arial,sans-serif;font-family:var(--mermaid-font-family);}#my-svg .branch-label0{fill:#ffffff;}#my-svg .commit0{stroke:hsl(240, 100%, 46.2745098039%);fill:hsl(240, 100%, 46.2745098039%);}#my-svg .commit-highlight0{stroke:hsl(60, 100%, 3.7254901961%);fill:hsl(60, 100%, 3.7254901961%);}#my-svg .label0{fill:hsl(240, 100%, 46.2745098039%);}#my-svg .arrow0{stroke:hsl(240, 100%, 46.2745098039%);}#my-svg .branch-label1{fill:black;}#my-svg .commit1{stroke:hsl(60, 100%, 43.5294117647%);fill:hsl(60, 100%, 43.5294117647%);}#my-svg .commit-highlight1{stroke:rgb(0, 0, 160.5);fill:rgb(0, 0, 160.5);}#my-svg .label1{fill:hsl(60, 100%, 43.5294117647%);}#my-svg .arrow1{stroke:hsl(60, 100%, 43.5294117647%);}#my-svg .branch-label2{fill:black;}#my-svg .commit2{stroke:hsl(80, 100%, 46.2745098039%);fill:hsl(80, 100%, 46.2745098039%);}#my-svg .commit-highlight2{stroke:rgb(48.8333333334, 0, 146.5000000001);fill:rgb(48.8333333334, 0, 146.5000000001);}#my-svg .label2{fill:hsl(80, 100%, 46.2745098039%);}#my-svg .arrow2{stroke:hsl(80, 100%, 46.2745098039%);}#my-svg .branch-label3{fill:#ffffff;}#my-svg .commit3{stroke:hsl(210, 100%, 46.2745098039%);fill:hsl(210, 100%, 46.2745098039%);}#my-svg .commit-highlight3{stroke:rgb(146.5000000001, 73.2500000001, 0);fill:rgb(146.5000000001, 73.2500000001, 0);}#my-svg .label3{fill:hsl(210, 100%, 46.2745098039%);}#my-svg .arrow3{stroke:hsl(210, 100%, 46.2745098039%);}#my-svg .branch-label4{fill:black;}#my-svg .commit4{stroke:hsl(180, 100%, 46.2745098039%);fill:hsl(180, 100%, 46.2745098039%);}#my-svg .commit-highlight4{stroke:rgb(146.5000000001, 0, 0);fill:rgb(146.5000000001, 0, 0);}#my-svg .label4{fill:hsl(180, 100%, 46.2745098039%);}#my-svg .arrow4{stroke:hsl(180, 100%, 46.2745098039%);}#my-svg .branch-label5{fill:black;}#my-svg .commit5{stroke:hsl(150, 100%, 46.2745098039%);fill:hsl(150, 100%, 46.2745098039%);}#my-svg .commit-highlight5{stroke:rgb(146.5000000001, 0, 73.2500000001);fill:rgb(146.5000000001, 0, 73.2500000001);}#my-svg .label5{fill:hsl(150, 100%, 46.2745098039%);}#my-svg .arrow5{stroke:hsl(150, 100%, 46.2745098039%);}#my-svg .branch-label6{fill:black;}#my-svg .commit6{stroke:hsl(300, 100%, 46.2745098039%);fill:hsl(300, 100%, 46.2745098039%);}#my-svg .commit-highlight6{stroke:rgb(0, 146.5000000001, 0);fill:rgb(0, 146.5000000001, 0);}#my-svg .label6{fill:hsl(300, 100%, 46.2745098039%);}#my-svg .arrow6{stroke:hsl(300, 100%, 46.2745098039%);}#my-svg .branch-label7{fill:black;}#my-svg .commit7{stroke:hsl(0, 100%, 46.2745098039%);fill:hsl(0, 100%, 46.2745098039%);}#my-svg .commit-highlight7{stroke:rgb(0, 146.5000000001, 146.5000000001);fill:rgb(0, 146.5000000001, 146.5000000001);}#my-svg .label7{fill:hsl(0, 100%, 46.2745098039%);}#my-svg .arrow7{stroke:hsl(0, 100%, 46.2745098039%);}#my-svg .branch{stroke-width:1;stroke:#333333;stroke-dasharray:2;}#my-svg .commit-label{font-size:10px;fill:#000021;}#my-svg .commit-label-bkg{font-size:10px;fill:#ffffde;opacity:0.5;}#my-svg .tag-label{font-size:10px;fill:#131300;}#my-svg .tag-label-bkg{fill:#ECECFF;stroke:hsl(240, 60%, 86.2745098039%);}#my-svg .tag-hole{fill:#333;}#my-svg .commit-merge{stroke:#ECECFF;fill:#ECECFF;}#my-svg .commit-reverse{stroke:#ECECFF;fill:#ECECFF;stroke-width:3;}#my-svg .commit-highlight-inner{stroke:#ECECFF;fill:#ECECFF;}#my-svg .arrow{stroke-width:8;stroke-linecap:round;fill:none;}#my-svg .gitTitleText{text-anchor:middle;font-size:18px;fill:#333;}#my-svg :root{--mermaid-font-family:"trebuchet ms",verdana,arial,sans-serif;}</style><g/><g class="commit-bullets"/><g class="commit-labels"/><g><line class="branch branch0" y2="630" x2="0" y1="30" x1="0"/><rect height="23" width="53" y="0" x="-27.5" ry="4" rx="4" class="branchLabelBkg label0"/><g class="branchLabel"><g transform="translate(-22.5, 0)" class="label branch-label0"><text><tspan class="row" x="0" dy="1em" xml:space="preserve">main</tspan></text></g></g><line class="branch branch1" y2="630" x2="107.5" y1="30" x1="107.5"/><rect height="23" width="75.328125" y="0" x="68.8359375" ry="4" rx="4" class="branchLabelBkg label1"/><g class="branchLabel"><g transform="translate(73.8359375, 0)" class="label branch-label1"><text><tspan class="row" x="0" dy="1em" xml:space="preserve">Develop</tspan></text></g></g></g><g class="commit-arrows"><path class="arrow arrow1" d="M 0 40 L 87.5 40 A 20 20, 0, 0, 1, 107.5 60 L 107.5 90"/><path class="arrow arrow1" d="M 107.5 90 L 107.5 140"/><path class="arrow arrow1" d="M 107.5 140 L 107.5 190"/><path class="arrow arrow1" d="M 107.5 190 L 107.5 240"/><path class="arrow arrow1" d="M 107.5 240 L 107.5 290"/><path class="arrow arrow1" d="M 107.5 290 L 107.5 340"/><path class="arrow arrow1" d="M 107.5 340 L 107.5 390"/><path class="arrow arrow1" d="M 107.5 390 L 107.5 440"/><path class="arrow arrow0" d="M 0 40 L 0 490"/><path class="arrow arrow1" d="M 107.5 440 L 107.5 470 A 20 20, 0, 0, 1, 87.5 490 L 0 490"/><path class="arrow arrow0" d="M 0 490 L 0 540"/><path class="arrow arrow1" d="M 107.5 440 L 107.5 590"/></g><g class="commit-bullets"><circle class="commit 0-f4517ef commit0" r="10" cy="40" cx="0"/><circle class="commit 1-1adb6cd commit1" r="10" cy="90" cx="107.5"/><circle class="commit 2-2b4b8e2 commit1" r="10" cy="140" cx="107.5"/><circle class="commit 3-1ab5098 commit1" r="10" cy="190" cx="107.5"/><circle class="commit 4-1e45932 commit1" r="10" cy="240" cx="107.5"/><circle class="commit 5-19c9db4 commit1" r="10" cy="290" cx="107.5"/><circle class="commit 6-df7002b commit1" r="10" cy="340" cx="107.5"/><circle class="commit 7-14f892d commit1" r="10" cy="390" cx="107.5"/><circle class="commit 8-db9c769 commit1" r="10" cy="440" cx="107.5"/><circle class="commit 9-85d5829 commit0" r="9" cy="490" cx="0"/><circle class="commit commit-merge 9-85d5829 commit0" r="6" cy="490" cx="0"/><circle class="commit 10-0d4b281 commit0" r="10" cy="540" cx="0"/><circle class="commit 11-8390720 commit1" r="10" cy="590" cx="107.5"/></g><g class="commit-labels"><g><rect transform="rotate(-45, 0, 40)" height="15" width="46.7880859375" y="28" x="-63.7880859375" class="commit-label-bkg"/><text transform="rotate(-45, 0, 40)" class="commit-label" y="39" x="-58.7880859375">0-f4517ef</text></g><g><rect transform="rotate(-45, 107.5, 90)" height="15" width="50.328125" y="78" x="40.171875" class="commit-label-bkg"/><text transform="rotate(-45, 107.5, 90)" class="commit-label" y="89" x="45.171875">1-1adb6cd</text></g><polygon transform="translate(12,12) rotate(45, 107.5,80)" points="107.5,82&#10;        107.5,78&#10;        117.5,72.474609375&#10;        178.296875,72.474609375&#10;        178.296875,87.525390625&#10;        117.5,87.525390625" class="tag-label-bkg"/><circle transform="translate(12,12) rotate(45, 107.5,80)" class="tag-hole" r="1.5" cx="109.5" cy="80"/><text transform="translate(14,14) rotate(45, 107.5,80)" x="112.5" class="tag-label" y="83">v3.0.0-Alpha</text><g><rect transform="rotate(-45, 107.5, 140)" height="15" width="50.5" y="128" x="40" class="commit-label-bkg"/><text transform="rotate(-45, 107.5, 140)" class="commit-label" y="139" x="45">2-2b4b8e2</text></g><polygon transform="translate(12,12) rotate(45, 107.5,130)" points="107.5,132&#10;        107.5,128&#10;        117.5,122.474609375&#10;        178.296875,122.474609375&#10;        178.296875,137.525390625&#10;        117.5,137.525390625" class="tag-label-bkg"/><circle transform="translate(12,12) rotate(45, 107.5,130)" class="tag-hole" r="1.5" cx="109.5" cy="130"/><text transform="translate(14,14) rotate(45, 107.5,130)" x="112.5" class="tag-label" y="133">v3.0.0-Alpha</text><g><rect transform="rotate(-45, 107.5, 190)" height="15" width="49.96875" y="178" x="40.53125" class="commit-label-bkg"/><text transform="rotate(-45, 107.5, 190)" class="commit-label" y="189" x="45.53125">3-1ab5098</text></g><polygon transform="translate(12,12) rotate(45, 107.5,180)" points="107.5,182&#10;        107.5,178&#10;        117.5,172.5&#10;        173.484375,172.5&#10;        173.484375,187.5&#10;        117.5,187.5" class="tag-label-bkg"/><circle transform="translate(12,12) rotate(45, 107.5,180)" class="tag-hole" r="1.5" cx="109.5" cy="180"/><text transform="translate(14,14) rotate(45, 107.5,180)" x="112.5" class="tag-label" y="183">v3.0.0-Beta</text><g><rect transform="rotate(-45, 107.5, 240)" height="15" width="49.84375" y="228" x="40.65625" class="commit-label-bkg"/><text transform="rotate(-45, 107.5, 240)" class="commit-label" y="239" x="45.65625">4-1e45932</text></g><polygon transform="translate(12,12) rotate(45, 107.5,230)" points="107.5,232&#10;        107.5,228&#10;        117.5,222.5&#10;        173.484375,222.5&#10;        173.484375,237.5&#10;        117.5,237.5" class="tag-label-bkg"/><circle transform="translate(12,12) rotate(45, 107.5,230)" class="tag-hole" r="1.5" cx="109.5" cy="230"/><text transform="translate(14,14) rotate(45, 107.5,230)" x="112.5" class="tag-label" y="233">v3.0.0-Beta</text><g><rect transform="rotate(-45, 107.5, 290)" height="15" width="50" y="278" x="40.5" class="commit-label-bkg"/><text transform="rotate(-45, 107.5, 290)" class="commit-label" y="289" x="45.5">5-19c9db4</text></g><polygon transform="translate(12,12) rotate(45, 107.5,280)" points="107.5,282&#10;        107.5,278&#10;        117.5,272.5&#10;        173.484375,272.5&#10;        173.484375,287.5&#10;        117.5,287.5" class="tag-label-bkg"/><circle transform="translate(12,12) rotate(45, 107.5,280)" class="tag-hole" r="1.5" cx="109.5" cy="280"/><text transform="translate(14,14) rotate(45, 107.5,280)" x="112.5" class="tag-label" y="283">v3.0.0-Beta</text><g><rect transform="rotate(-45, 107.5, 340)" height="15" width="48.734375" y="328" x="41.765625" class="commit-label-bkg"/><text transform="rotate(-45, 107.5, 340)" class="commit-label" y="339" x="46.765625">6-df7002b</text></g><polygon transform="translate(12,12) rotate(45, 107.5,330)" points="107.5,332&#10;        107.5,328&#10;        117.5,322.5&#10;        187.03125,322.5&#10;        187.03125,337.5&#10;        117.5,337.5" class="tag-label-bkg"/><circle transform="translate(12,12) rotate(45, 107.5,330)" class="tag-hole" r="1.5" cx="109.5" cy="330"/><text transform="translate(14,14) rotate(45, 107.5,330)" x="112.5" class="tag-label" y="333">v3.0.0-Gamma</text><g><rect transform="rotate(-45, 107.5, 390)" height="15" width="48.40625" y="378" x="42.09375" class="commit-label-bkg"/><text transform="rotate(-45, 107.5, 390)" class="commit-label" y="389" x="47.09375">7-14f892d</text></g><polygon transform="translate(12,12) rotate(45, 107.5,380)" points="107.5,382&#10;        107.5,378&#10;        117.5,372.5&#10;        187.03125,372.5&#10;        187.03125,387.5&#10;        117.5,387.5" class="tag-label-bkg"/><circle transform="translate(12,12) rotate(45, 107.5,380)" class="tag-hole" r="1.5" cx="109.5" cy="380"/><text transform="translate(14,14) rotate(45, 107.5,380)" x="112.5" class="tag-label" y="383">v3.0.0-Gamma</text><g><rect transform="rotate(-45, 107.5, 440)" height="15" width="50" y="428" x="40.5" class="commit-label-bkg"/><text transform="rotate(-45, 107.5, 440)" class="commit-label" y="439" x="45.5">8-db9c769</text></g><polygon transform="translate(12,12) rotate(45, 107.5,430)" points="107.5,432&#10;        107.5,428&#10;        117.5,422.5&#10;        173.796875,422.5&#10;        173.796875,437.5&#10;        117.5,437.5" class="tag-label-bkg"/><circle transform="translate(12,12) rotate(45, 107.5,430)" class="tag-hole" r="1.5" cx="109.5" cy="430"/><text transform="translate(14,14) rotate(45, 107.5,430)" x="112.5" class="tag-label" y="433">v3.0.0-Gold</text><g><rect transform="rotate(-45, 0, 540)" height="15" width="55.53125" y="528" x="-72.53125" class="commit-label-bkg"/><text transform="rotate(-45, 0, 540)" class="commit-label" y="539" x="-67.53125">10-0d4b281</text></g><polygon transform="translate(12,12) rotate(45, 0,530)" points="0,532&#10;        0,528&#10;        10,522.5&#10;        73.65625,522.5&#10;        73.65625,537.5&#10;        10,537.5" class="tag-label-bkg"/><circle transform="translate(12,12) rotate(45, 0,530)" class="tag-hole" r="1.5" cx="2" cy="530"/><text transform="translate(14,14) rotate(45, 0,530)" x="5" class="tag-label" y="533">v3.0.0-Stable</text><g><rect transform="rotate(-45, 107.5, 590)" height="15" width="54.875" y="578" x="35.625" class="commit-label-bkg"/><text transform="rotate(-45, 107.5, 590)" class="commit-label" y="589" x="40.625">11-8390720</text></g><polygon transform="translate(12,12) rotate(45, 107.5,580)" points="107.5,582&#10;        107.5,578&#10;        117.5,572.474609375&#10;        178.296875,572.474609375&#10;        178.296875,587.525390625&#10;        117.5,587.525390625" class="tag-label-bkg"/><circle transform="translate(12,12) rotate(45, 107.5,580)" class="tag-hole" r="1.5" cx="109.5" cy="580"/><text transform="translate(14,14) rotate(45, 107.5,580)" x="112.5" class="tag-label" y="583">v3.0.1-Alpha</text></g></svg>