<svg aria-roledescription="er" role="graphics-document document" viewBox="0 0 1192.1875 290" style="max-width: 1192.19px; background-color: white;" xmlns:xlink="http://www.w3.org/1999/xlink" xmlns="http://www.w3.org/2000/svg" width="100%" id="my-svg"><style>#my-svg{font-family:"trebuchet ms",verdana,arial,sans-serif;font-size:16px;fill:#333;}#my-svg .error-icon{fill:#552222;}#my-svg .error-text{fill:#552222;stroke:#552222;}#my-svg .edge-thickness-normal{stroke-width:1px;}#my-svg .edge-thickness-thick{stroke-width:3.5px;}#my-svg .edge-pattern-solid{stroke-dasharray:0;}#my-svg .edge-thickness-invisible{stroke-width:0;fill:none;}#my-svg .edge-pattern-dashed{stroke-dasharray:3;}#my-svg .edge-pattern-dotted{stroke-dasharray:2;}#my-svg .marker{fill:#333333;stroke:#333333;}#my-svg .marker.cross{stroke:#333333;}#my-svg svg{font-family:"trebuchet ms",verdana,arial,sans-serif;font-size:16px;}#my-svg p{margin:0;}#my-svg .entityBox{fill:#ECECFF;stroke:#9370DB;}#my-svg .attributeBoxOdd{fill:#ffffff;stroke:#9370DB;}#my-svg .attributeBoxEven{fill:#f2f2f2;stroke:#9370DB;}#my-svg .relationshipLabelBox{fill:hsl(80, 100%, 96.2745098039%);opacity:0.7;background-color:hsl(80, 100%, 96.2745098039%);}#my-svg .relationshipLabelBox rect{opacity:0.5;}#my-svg .relationshipLine{stroke:#333333;}#my-svg .entityTitleText{text-anchor:middle;font-size:18px;fill:#333;}#my-svg #MD_PARENT_START{fill:#f5f5f5!important;stroke:#333333!important;stroke-width:1;}#my-svg #MD_PARENT_END{fill:#f5f5f5!important;stroke:#333333!important;stroke-width:1;}#my-svg :root{--mermaid-font-family:"trebuchet ms",verdana,arial,sans-serif;}</style><g/><defs><marker orient="auto" markerHeight="240" markerWidth="190" refY="7" refX="0" id="MD_PARENT_START"><path d="M 18,7 L9,13 L1,7 L9,1 Z"/></marker></defs><defs><marker orient="auto" markerHeight="28" markerWidth="20" refY="7" refX="19" id="MD_PARENT_END"><path d="M 18,7 L9,13 L1,7 L9,1 Z"/></marker></defs><defs><marker orient="auto" markerHeight="18" markerWidth="18" refY="9" refX="0" id="ONLY_ONE_START"><path d="M9,0 L9,18 M15,0 L15,18" fill="none" stroke="gray"/></marker></defs><defs><marker orient="auto" markerHeight="18" markerWidth="18" refY="9" refX="18" id="ONLY_ONE_END"><path d="M3,0 L3,18 M9,0 L9,18" fill="none" stroke="gray"/></marker></defs><defs><marker orient="auto" markerHeight="18" markerWidth="30" refY="9" refX="0" id="ZERO_OR_ONE_START"><circle r="6" cy="9" cx="21" fill="white" stroke="gray"/><path d="M9,0 L9,18" fill="none" stroke="gray"/></marker></defs><defs><marker orient="auto" markerHeight="18" markerWidth="30" refY="9" refX="30" id="ZERO_OR_ONE_END"><circle r="6" cy="9" cx="9" fill="white" stroke="gray"/><path d="M21,0 L21,18" fill="none" stroke="gray"/></marker></defs><defs><marker orient="auto" markerHeight="36" markerWidth="45" refY="18" refX="18" id="ONE_OR_MORE_START"><path d="M0,18 Q 18,0 36,18 Q 18,36 0,18 M42,9 L42,27" fill="none" stroke="gray"/></marker></defs><defs><marker orient="auto" markerHeight="36" markerWidth="45" refY="18" refX="27" id="ONE_OR_MORE_END"><path d="M3,9 L3,27 M9,18 Q27,0 45,18 Q27,36 9,18" fill="none" stroke="gray"/></marker></defs><defs><marker orient="auto" markerHeight="36" markerWidth="57" refY="18" refX="18" id="ZERO_OR_MORE_START"><circle r="6" cy="18" cx="48" fill="white" stroke="gray"/><path d="M0,18 Q18,0 36,18 Q18,36 0,18" fill="none" stroke="gray"/></marker></defs><defs><marker orient="auto" markerHeight="36" markerWidth="57" refY="18" refX="39" id="ZERO_OR_MORE_END"><circle r="6" cy="18" cx="9" fill="white" stroke="gray"/><path d="M21,18 Q39,0 57,18 Q39,36 21,18" fill="none" stroke="gray"/></marker></defs><path style="stroke: gray; fill: none;" marker-start="url(#ZERO_OR_MORE_START)" marker-end="url(#ONLY_ONE_END)" d="M525.203,66.16L449.336,79.3C373.469,92.44,221.734,118.72,145.867,140.193C70,161.667,70,178.333,70,186.667L70,195" class="er relationshipLine"/><path style="stroke: gray; fill: none;" marker-start="url(#ZERO_OR_MORE_START)" marker-end="url(#ONLY_ONE_END)" d="M525.203,71.835L482.669,84.029C440.135,96.223,355.068,120.612,312.534,141.139C270,161.667,270,178.333,270,186.667L270,195" class="er relationshipLine"/><path style="stroke: gray; fill: none;" marker-start="url(#ZERO_OR_MORE_START)" marker-end="url(#ONLY_ONE_END)" d="M530.116,95L520.097,103.333C510.077,111.667,490.039,128.333,480.019,145C470,161.667,470,178.333,470,186.667L470,195" class="er relationshipLine"/><path style="stroke: gray; fill: none;" marker-start="url(#ZERO_OR_MORE_START)" marker-end="url(#ONLY_ONE_END)" d="M620.29,95L630.31,103.333C640.329,111.667,660.368,128.333,670.387,145C680.406,161.667,680.406,178.333,680.406,186.667L680.406,195" class="er relationshipLine"/><path style="stroke: gray; fill: none;" marker-start="url(#ZERO_OR_MORE_START)" marker-end="url(#ONLY_ONE_END)" d="M625.203,70.706L672.086,83.088C718.969,95.47,812.734,120.235,859.617,140.951C906.5,161.667,906.5,178.333,906.5,186.667L906.5,195" class="er relationshipLine"/><path style="stroke: gray; fill: none;" marker-start="url(#ZERO_OR_MORE_START)" marker-end="url(#ONLY_ONE_END)" d="M625.203,65.498L708.034,78.749C790.865,91.999,956.526,118.499,1039.357,140.083C1122.188,161.667,1122.188,178.333,1122.188,186.667L1122.188,195" class="er relationshipLine"/><g transform="translate(525.203125,20 )" id="entity-REQUEST-106589bd-ec1c-566b-93e5-cb3c81cd0ccb"><rect height="75" width="100" y="0" x="0" class="er entityBox"/><text style="dominant-baseline: middle; text-anchor: middle; font-size: 12px;" transform="translate(50,37.5)" y="0" x="0" id="text-entity-REQUEST-106589bd-ec1c-566b-93e5-cb3c81cd0ccb" class="er entityLabel">REQUEST</text></g><g transform="translate(20,195 )" id="entity-MIDDLEWARE-372b33f8-0204-53f4-9d2c-60c63ec04851"><rect height="75" width="100" y="0" x="0" class="er entityBox"/><text style="dominant-baseline: middle; text-anchor: middle; font-size: 12px;" transform="translate(50,37.5)" y="0" x="0" id="text-entity-MIDDLEWARE-372b33f8-0204-53f4-9d2c-60c63ec04851" class="er entityLabel">MIDDLEWARE</text></g><g transform="translate(220,195 )" id="entity-STOP-8906cf5e-8ba6-5241-a0df-33938a5a8e98"><rect height="75" width="100" y="0" x="0" class="er entityBox"/><text style="dominant-baseline: middle; text-anchor: middle; font-size: 12px;" transform="translate(50,37.5)" y="0" x="0" id="text-entity-STOP-8906cf5e-8ba6-5241-a0df-33938a5a8e98" class="er entityLabel">STOP</text></g><g transform="translate(420,195 )" id="entity-SNAPSHOT-a95779a5-29f3-5497-96dd-faf8c917163c"><rect height="75" width="100" y="0" x="0" class="er entityBox"/><text style="dominant-baseline: middle; text-anchor: middle; font-size: 12px;" transform="translate(50,37.5)" y="0" x="0" id="text-entity-SNAPSHOT-a95779a5-29f3-5497-96dd-faf8c917163c" class="er entityLabel">SNAPSHOT</text></g><g transform="translate(620,195 )" id="entity-CURRENTEVENT-57d0bf04-d9ed-5863-b439-0f33a5d537d8"><rect height="75" width="120.8125" y="0" x="0" class="er entityBox"/><text style="dominant-baseline: middle; text-anchor: middle; font-size: 12px;" transform="translate(60.40625,37.5)" y="0" x="0" id="text-entity-CURRENTEVENT-57d0bf04-d9ed-5863-b439-0f33a5d537d8" class="er entityLabel">CURRENT_EVENT</text></g><g transform="translate(840.8125,195 )" id="entity-EVENTEXECUTION-b1adb495-6949-5c24-9660-3c8a87cf950b"><rect height="75" width="131.375" y="0" x="0" class="er entityBox"/><text style="dominant-baseline: middle; text-anchor: middle; font-size: 12px;" transform="translate(65.6875,37.5)" y="0" x="0" id="text-entity-EVENTEXECUTION-b1adb495-6949-5c24-9660-3c8a87cf950b" class="er entityLabel">EVENT_EXECUTION</text></g><g transform="translate(1072.1875,195 )" id="entity-SORTING-b22c9efc-22db-5dac-a3f0-5a0a4307df9c"><rect height="75" width="100" y="0" x="0" class="er entityBox"/><text style="dominant-baseline: middle; text-anchor: middle; font-size: 12px;" transform="translate(50,37.5)" y="0" x="0" id="text-entity-SORTING-b22c9efc-22db-5dac-a3f0-5a0a4307df9c" class="er entityLabel">SORTING</text></g><rect height="14" width="29.078125" y="102.14261627197266" x="270.00152587890625" class="er relationshipLabelBox"/><text style="text-anchor: middle; dominant-baseline: middle; font-size: 12px;" y="109.14261627197266" x="284.54058837890625" id="rel1" class="er relationshipLabel">feeds</text><rect height="14" width="44.84375" y="107.41765594482422" x="359.92181396484375" class="er relationshipLabelBox"/><text style="text-anchor: middle; dominant-baseline: middle; font-size: 12px;" y="114.41765594482422" x="382.34368896484375" id="rel2" class="er relationshipLabel">contains</text><rect height="14" width="44.84375" y="130.05007934570312" x="463.0820007324219" class="er relationshipLabelBox"/><text style="text-anchor: middle; dominant-baseline: middle; font-size: 12px;" y="137.05007934570312" x="485.5038757324219" id="rel3" class="er relationshipLabel">contains</text><rect height="14" width="44.84375" y="130.04986572265625" x="642.48046875" class="er relationshipLabelBox"/><text style="text-anchor: middle; dominant-baseline: middle; font-size: 12px;" y="137.04986572265625" x="664.90234375" id="rel4" class="er relationshipLabel">contains</text><rect height="14" width="44.84375" y="106.34587860107422" x="758.3540649414062" class="er relationshipLabelBox"/><text style="text-anchor: middle; dominant-baseline: middle; font-size: 12px;" y="113.34587860107422" x="780.7759399414062" id="rel5" class="er relationshipLabel">contains</text><rect height="14" width="44.84375" y="101.55226135253906" x="863.98193359375" class="er relationshipLabelBox"/><text style="text-anchor: middle; dominant-baseline: middle; font-size: 12px;" y="108.55226135253906" x="886.40380859375" id="rel6" class="er relationshipLabel">contains</text></svg>