<svg aria-roledescription="requirement" role="graphics-document document" viewBox="10 10 4165.703125 820" style="max-width: 4165.7px; background-color: white;" xmlns:xlink="http://www.w3.org/1999/xlink" xmlns="http://www.w3.org/2000/svg" width="100%" id="my-svg"><style>#my-svg{font-family:"trebuchet ms",verdana,arial,sans-serif;font-size:16px;fill:#333;}#my-svg .error-icon{fill:#552222;}#my-svg .error-text{fill:#552222;stroke:#552222;}#my-svg .edge-thickness-normal{stroke-width:1px;}#my-svg .edge-thickness-thick{stroke-width:3.5px;}#my-svg .edge-pattern-solid{stroke-dasharray:0;}#my-svg .edge-thickness-invisible{stroke-width:0;fill:none;}#my-svg .edge-pattern-dashed{stroke-dasharray:3;}#my-svg .edge-pattern-dotted{stroke-dasharray:2;}#my-svg .marker{fill:#333333;stroke:#333333;}#my-svg .marker.cross{stroke:#333333;}#my-svg svg{font-family:"trebuchet ms",verdana,arial,sans-serif;font-size:16px;}#my-svg p{margin:0;}#my-svg marker{fill:#333333;stroke:#333333;}#my-svg marker.cross{stroke:#333333;}#my-svg svg{font-family:"trebuchet ms",verdana,arial,sans-serif;font-size:16px;}#my-svg .reqBox{fill:#ECECFF;fill-opacity:1.0;stroke:hsl(240, 60%, 86.2745098039%);stroke-width:1;}#my-svg .reqTitle,#my-svg .reqLabel{fill:#131300;}#my-svg .reqLabelBox{fill:rgba(232,232,232, 0.8);fill-opacity:1.0;}#my-svg .req-title-line{stroke:hsl(240, 60%, 86.2745098039%);stroke-width:1;}#my-svg .relationshipLine{stroke:#333333;stroke-width:1;}#my-svg .relationshipLabel{fill:black;}#my-svg :root{--mermaid-font-family:"trebuchet ms",verdana,arial,sans-serif;}</style><g/><defs><marker orient="auto" markerHeight="20" markerWidth="20" refY="10" refX="0" id="contains_line_ending"><g><circle fill="none" r="10" cy="10" cx="10"/><line stroke-width="1" y2="10" y1="10" x2="20" x1="0"/><line stroke-width="1" x2="10" x1="10" y2="20" y1="0"/></g></marker></defs><defs><marker orient="auto" markerHeight="20" markerWidth="20" refY="10" refX="20" id="arrow_line_ending"><path stroke-width="1" d="M0,0&#10;      L20,10&#10;      M20,10&#10;      L0,20"/></marker></defs><g transform="translate(1970,20 )" id="software"><rect height="200px" width="200px" y="0" x="0" class="req reqBox"/><text dominant-baseline="hanging" y="10" x="100" id="software_title" class="req reqLabel reqTitle"><tspan dy="0" x="100" text-anchor="middle">&lt;&lt;Requirement&gt;&gt;</tspan><tspan dy="15" x="100" text-anchor="middle">software</tspan></text><line y2="45" y1="45" x2="200" x1="0" class="req-title-line"/><text dominant-baseline="hanging" y="45" x="10" id="software_body" class="req reqLabel"><tspan dy="20" x="10">Id: 1</tspan><tspan dy="20" x="10">Text: Software zur Daten Gener</tspan><tspan dy="20" x="10">ierung und Training</tspan><tspan dy="20" x="10">Risk: undefined</tspan><tspan dy="20" x="10">Verification: undefined</tspan></text></g><g transform="translate(320,320 )" id="dataManagement"><rect height="200px" width="200px" y="0" x="0" class="req reqBox"/><text dominant-baseline="hanging" y="10" x="100" id="dataManagement_title" class="req reqLabel reqTitle"><tspan dy="0" x="100" text-anchor="middle">&lt;&lt;Requirement&gt;&gt;</tspan><tspan dy="15" x="100" text-anchor="middle">dataManagement</tspan></text><line y2="45" y1="45" x2="200" x1="0" class="req-title-line"/><text dominant-baseline="hanging" y="45" x="10" id="dataManagement_body" class="req reqLabel"><tspan dy="20" x="10">Id: 1.1</tspan><tspan dy="20" x="10">Text: Effizientes und flexible</tspan><tspan dy="20" x="10">s Datenmanagement</tspan><tspan dy="20" x="10">Risk: undefined</tspan><tspan dy="20" x="10">Verification: undefined</tspan></text></g><g transform="translate(1220,320 )" id="modelTraining"><rect height="200px" width="200px" y="0" x="0" class="req reqBox"/><text dominant-baseline="hanging" y="10" x="100" id="modelTraining_title" class="req reqLabel reqTitle"><tspan dy="0" x="100" text-anchor="middle">&lt;&lt;Requirement&gt;&gt;</tspan><tspan dy="15" x="100" text-anchor="middle">modelTraining</tspan></text><line y2="45" y1="45" x2="200" x1="0" class="req-title-line"/><text dominant-baseline="hanging" y="45" x="10" id="modelTraining_body" class="req reqLabel"><tspan dy="20" x="10">Id: 1.2</tspan><tspan dy="20" x="10">Text: Training und Konfigurati</tspan><tspan dy="20" x="10">on von Modellen</tspan><tspan dy="20" x="10">Risk: undefined</tspan><tspan dy="20" x="10">Verification: undefined</tspan></text></g><g transform="translate(1970,320 )" id="userInterface"><rect height="200px" width="200px" y="0" x="0" class="req reqBox"/><text dominant-baseline="hanging" y="10" x="100" id="userInterface_title" class="req reqLabel reqTitle"><tspan dy="0" x="100" text-anchor="middle">&lt;&lt;Requirement&gt;&gt;</tspan><tspan dy="15" x="100" text-anchor="middle">userInterface</tspan></text><line y2="45" y1="45" x2="200" x1="0" class="req-title-line"/><text dominant-baseline="hanging" y="45" x="10" id="userInterface_body" class="req reqLabel"><tspan dy="20" x="10">Id: 1.3</tspan><tspan dy="20" x="10">Text: Benutzerfreundliche Schn</tspan><tspan dy="20" x="10">ittstelle</tspan><tspan dy="20" x="10">Risk: undefined</tspan><tspan dy="20" x="10">Verification: undefined</tspan></text></g><g transform="translate(2570,320 )" id="securityPrivacy"><rect height="200px" width="200px" y="0" x="0" class="req reqBox"/><text dominant-baseline="hanging" y="10" x="100" id="securityPrivacy_title" class="req reqLabel reqTitle"><tspan dy="0" x="100" text-anchor="middle">&lt;&lt;Requirement&gt;&gt;</tspan><tspan dy="15" x="100" text-anchor="middle">securityPrivacy</tspan></text><line y2="45" y1="45" x2="200" x1="0" class="req-title-line"/><text dominant-baseline="hanging" y="45" x="10" id="securityPrivacy_body" class="req reqLabel"><tspan dy="20" x="10">Id: 1.4</tspan><tspan dy="20" x="10">Text: Sicherheit und Datenschu</tspan><tspan dy="20" x="10">tz</tspan><tspan dy="20" x="10">Risk: undefined</tspan><tspan dy="20" x="10">Verification: undefined</tspan></text></g><g transform="translate(3470,320 )" id="technical"><rect height="200px" width="200px" y="0" x="0" class="req reqBox"/><text dominant-baseline="hanging" y="10" x="100" id="technical_title" class="req reqLabel reqTitle"><tspan dy="0" x="100" text-anchor="middle">&lt;&lt;Requirement&gt;&gt;</tspan><tspan dy="15" x="100" text-anchor="middle">technical</tspan></text><line y2="45" y1="45" x2="200" x1="0" class="req-title-line"/><text dominant-baseline="hanging" y="45" x="10" id="technical_body" class="req reqLabel"><tspan dy="20" x="10">Id: 1.5</tspan><tspan dy="20" x="10">Text: Technische Anforderungen</tspan><tspan dy="20" x="10"> für Integration und Deploymen</tspan><tspan dy="20" x="10">t</tspan><tspan dy="20" x="10">Risk: undefined</tspan><tspan dy="20" x="10">Verification: undefined</tspan></text></g><g transform="translate(20,620 )" id="versatileDataIntegration"><rect height="200px" width="200px" y="0" x="0" class="req reqBox"/><text dominant-baseline="hanging" y="10" x="100" id="versatileDataIntegration_title" class="req reqLabel reqTitle"><tspan dy="0" x="100" text-anchor="middle">&lt;&lt;Requirement&gt;&gt;</tspan><tspan dy="15" x="100" text-anchor="middle">versatileDataIntegration</tspan></text><line y2="45" y1="45" x2="200" x1="0" class="req-title-line"/><text dominant-baseline="hanging" y="45" x="10" id="versatileDataIntegration_body" class="req reqLabel"><tspan dy="20" x="10">Id: 1.1.1</tspan><tspan dy="20" x="10">Text: Integration verschiedene</tspan><tspan dy="20" x="10">r Datenquellen und -formate</tspan><tspan dy="20" x="10">Risk: undefined</tspan><tspan dy="20" x="10">Verification: undefined</tspan></text></g><g transform="translate(320,620 )" id="dataProcessing"><rect height="200px" width="200px" y="0" x="0" class="req reqBox"/><text dominant-baseline="hanging" y="10" x="100" id="dataProcessing_title" class="req reqLabel reqTitle"><tspan dy="0" x="100" text-anchor="middle">&lt;&lt;Requirement&gt;&gt;</tspan><tspan dy="15" x="100" text-anchor="middle">dataProcessing</tspan></text><line y2="45" y1="45" x2="200" x1="0" class="req-title-line"/><text dominant-baseline="hanging" y="45" x="10" id="dataProcessing_body" class="req reqLabel"><tspan dy="20" x="10">Id: 1.1.2</tspan><tspan dy="20" x="10">Text: Verarbeitungslogik für e</tspan><tspan dy="20" x="10">ffiziente Datenverarbeitung</tspan><tspan dy="20" x="10">Risk: undefined</tspan><tspan dy="20" x="10">Verification: undefined</tspan></text></g><g transform="translate(620,620 )" id="userFeedback"><rect height="200px" width="200px" y="0" x="0" class="req reqBox"/><text dominant-baseline="hanging" y="10" x="100" id="userFeedback_title" class="req reqLabel reqTitle"><tspan dy="0" x="100" text-anchor="middle">&lt;&lt;Requirement&gt;&gt;</tspan><tspan dy="15" x="100" text-anchor="middle">userFeedback</tspan></text><line y2="45" y1="45" x2="200" x1="0" class="req-title-line"/><text dominant-baseline="hanging" y="45" x="10" id="userFeedback_body" class="req reqLabel"><tspan dy="20" x="10">Id: 1.1.3</tspan><tspan dy="20" x="10">Text: Visuelles Feedback und D</tspan><tspan dy="20" x="10">atenexploration</tspan><tspan dy="20" x="10">Risk: undefined</tspan><tspan dy="20" x="10">Verification: undefined</tspan></text></g><g transform="translate(920,620 )" id="algorithmSelection"><rect height="200px" width="200px" y="0" x="0" class="req reqBox"/><text dominant-baseline="hanging" y="10" x="100" id="algorithmSelection_title" class="req reqLabel reqTitle"><tspan dy="0" x="100" text-anchor="middle">&lt;&lt;Requirement&gt;&gt;</tspan><tspan dy="15" x="100" text-anchor="middle">algorithmSelection</tspan></text><line y2="45" y1="45" x2="200" x1="0" class="req-title-line"/><text dominant-baseline="hanging" y="45" x="10" id="algorithmSelection_body" class="req reqLabel"><tspan dy="20" x="10">Id: 1.2.1</tspan><tspan dy="20" x="10">Text: Vielfältige Algorithmena</tspan><tspan dy="20" x="10">uswahl und Beschreibung</tspan><tspan dy="20" x="10">Risk: undefined</tspan><tspan dy="20" x="10">Verification: undefined</tspan></text></g><g transform="translate(1220,620 )" id="modelConfiguration"><rect height="200px" width="200px" y="0" x="0" class="req reqBox"/><text dominant-baseline="hanging" y="10" x="100" id="modelConfiguration_title" class="req reqLabel reqTitle"><tspan dy="0" x="100" text-anchor="middle">&lt;&lt;Requirement&gt;&gt;</tspan><tspan dy="15" x="100" text-anchor="middle">modelConfiguration</tspan></text><line y2="45" y1="45" x2="200" x1="0" class="req-title-line"/><text dominant-baseline="hanging" y="45" x="10" id="modelConfiguration_body" class="req reqLabel"><tspan dy="20" x="10">Id: 1.2.2</tspan><tspan dy="20" x="10">Text: Intuitive Modellkonfigur</tspan><tspan dy="20" x="10">ation und -anpassung</tspan><tspan dy="20" x="10">Risk: undefined</tspan><tspan dy="20" x="10">Verification: undefined</tspan></text></g><g transform="translate(1520,620 )" id="trainingEfficiency"><rect height="200px" width="200px" y="0" x="0" class="req reqBox"/><text dominant-baseline="hanging" y="10" x="100" id="trainingEfficiency_title" class="req reqLabel reqTitle"><tspan dy="0" x="100" text-anchor="middle">&lt;&lt;Requirement&gt;&gt;</tspan><tspan dy="15" x="100" text-anchor="middle">trainingEfficiency</tspan></text><line y2="45" y1="45" x2="200" x1="0" class="req-title-line"/><text dominant-baseline="hanging" y="45" x="10" id="trainingEfficiency_body" class="req reqLabel"><tspan dy="20" x="10">Id: 1.2.3</tspan><tspan dy="20" x="10">Text: Effiziente Nutzung der S</tspan><tspan dy="20" x="10">ystemressourcen</tspan><tspan dy="20" x="10">Risk: undefined</tspan><tspan dy="20" x="10">Verification: undefined</tspan></text></g><g transform="translate(1820,620 )" id="usabilityPrinciples"><rect height="200px" width="200px" y="0" x="0" class="req reqBox"/><text dominant-baseline="hanging" y="10" x="100" id="usabilityPrinciples_title" class="req reqLabel reqTitle"><tspan dy="0" x="100" text-anchor="middle">&lt;&lt;Requirement&gt;&gt;</tspan><tspan dy="15" x="100" text-anchor="middle">usabilityPrinciples</tspan></text><line y2="45" y1="45" x2="200" x1="0" class="req-title-line"/><text dominant-baseline="hanging" y="45" x="10" id="usabilityPrinciples_body" class="req reqLabel"><tspan dy="20" x="10">Id: 1.3.1</tspan><tspan dy="20" x="10">Text: Anwendung von Benutzbark</tspan><tspan dy="20" x="10">eitsprinzipien (ISO 9241-110)</tspan><tspan dy="20" x="10">Risk: undefined</tspan><tspan dy="20" x="10">Verification: undefined</tspan></text></g><g transform="translate(2120,620 )" id="navigation"><rect height="200px" width="200px" y="0" x="0" class="req reqBox"/><text dominant-baseline="hanging" y="10" x="100" id="navigation_title" class="req reqLabel reqTitle"><tspan dy="0" x="100" text-anchor="middle">&lt;&lt;Requirement&gt;&gt;</tspan><tspan dy="15" x="100" text-anchor="middle">navigation</tspan></text><line y2="45" y1="45" x2="200" x1="0" class="req-title-line"/><text dominant-baseline="hanging" y="45" x="10" id="navigation_body" class="req reqLabel"><tspan dy="20" x="10">Id: 1.3.2</tspan><tspan dy="20" x="10">Text: Klare und verständliche </tspan><tspan dy="20" x="10">Navigation</tspan><tspan dy="20" x="10">Risk: undefined</tspan><tspan dy="20" x="10">Verification: undefined</tspan></text></g><g transform="translate(2420,620 )" id="dataProtection"><rect height="200px" width="200px" y="0" x="0" class="req reqBox"/><text dominant-baseline="hanging" y="10" x="100" id="dataProtection_title" class="req reqLabel reqTitle"><tspan dy="0" x="100" text-anchor="middle">&lt;&lt;Requirement&gt;&gt;</tspan><tspan dy="15" x="100" text-anchor="middle">dataProtection</tspan></text><line y2="45" y1="45" x2="200" x1="0" class="req-title-line"/><text dominant-baseline="hanging" y="45" x="10" id="dataProtection_body" class="req reqLabel"><tspan dy="20" x="10">Id: 1.4.1</tspan><tspan dy="20" x="10">Text: DSGVO-konforme Datensich</tspan><tspan dy="20" x="10">erheit</tspan><tspan dy="20" x="10">Risk: undefined</tspan><tspan dy="20" x="10">Verification: undefined</tspan></text></g><g transform="translate(2720,620 )" id="accessControl"><rect height="200px" width="200px" y="0" x="0" class="req reqBox"/><text dominant-baseline="hanging" y="10" x="100" id="accessControl_title" class="req reqLabel reqTitle"><tspan dy="0" x="100" text-anchor="middle">&lt;&lt;Requirement&gt;&gt;</tspan><tspan dy="15" x="100" text-anchor="middle">accessControl</tspan></text><line y2="45" y1="45" x2="200" x1="0" class="req-title-line"/><text dominant-baseline="hanging" y="45" x="10" id="accessControl_body" class="req reqLabel"><tspan dy="20" x="10">Id: 1.4.2</tspan><tspan dy="20" x="10">Text: Effektive Zugriffskontro</tspan><tspan dy="20" x="10">llen und Datenisolation</tspan><tspan dy="20" x="10">Risk: undefined</tspan><tspan dy="20" x="10">Verification: undefined</tspan></text></g><g transform="translate(3020,620 )" id="apiIntegration"><rect height="200px" width="200px" y="0" x="0" class="req reqBox"/><text dominant-baseline="hanging" y="10" x="100" id="apiIntegration_title" class="req reqLabel reqTitle"><tspan dy="0" x="100" text-anchor="middle">&lt;&lt;Requirement&gt;&gt;</tspan><tspan dy="15" x="100" text-anchor="middle">apiIntegration</tspan></text><line y2="45" y1="45" x2="200" x1="0" class="req-title-line"/><text dominant-baseline="hanging" y="45" x="10" id="apiIntegration_body" class="req reqLabel"><tspan dy="20" x="10">Id: 1.5.1</tspan><tspan dy="20" x="10">Text: API-Integration und -Dok</tspan><tspan dy="20" x="10">umentation</tspan><tspan dy="20" x="10">Risk: undefined</tspan><tspan dy="20" x="10">Verification: undefined</tspan></text></g><g transform="translate(3320,620 )" id="errorHandling"><rect height="200px" width="200px" y="0" x="0" class="req reqBox"/><text dominant-baseline="hanging" y="10" x="100" id="errorHandling_title" class="req reqLabel reqTitle"><tspan dy="0" x="100" text-anchor="middle">&lt;&lt;Requirement&gt;&gt;</tspan><tspan dy="15" x="100" text-anchor="middle">errorHandling</tspan></text><line y2="45" y1="45" x2="200" x1="0" class="req-title-line"/><text dominant-baseline="hanging" y="45" x="10" id="errorHandling_body" class="req reqLabel"><tspan dy="20" x="10">Id: 1.5.2</tspan><tspan dy="20" x="10">Text: Einheitliche Fehlerbehan</tspan><tspan dy="20" x="10">dlung über APIs</tspan><tspan dy="20" x="10">Risk: undefined</tspan><tspan dy="20" x="10">Verification: undefined</tspan></text></g><g transform="translate(3620,620 )" id="monitoring"><rect height="200px" width="200px" y="0" x="0" class="req reqBox"/><text dominant-baseline="hanging" y="10" x="100" id="monitoring_title" class="req reqLabel reqTitle"><tspan dy="0" x="100" text-anchor="middle">&lt;&lt;Requirement&gt;&gt;</tspan><tspan dy="15" x="100" text-anchor="middle">monitoring</tspan></text><line y2="45" y1="45" x2="200" x1="0" class="req-title-line"/><text dominant-baseline="hanging" y="45" x="10" id="monitoring_body" class="req reqLabel"><tspan dy="20" x="10">Id: 1.5.3</tspan><tspan dy="20" x="10">Text: Zentrales Überwachungssy</tspan><tspan dy="20" x="10">stem für Logs und Metriken</tspan><tspan dy="20" x="10">Risk: undefined</tspan><tspan dy="20" x="10">Verification: undefined</tspan></text></g><g transform="translate(3920,620 )" id="deploymentStrategy"><rect height="200px" width="200px" y="0" x="0" class="req reqBox"/><text dominant-baseline="hanging" y="10" x="100" id="deploymentStrategy_title" class="req reqLabel reqTitle"><tspan dy="0" x="100" text-anchor="middle">&lt;&lt;Requirement&gt;&gt;</tspan><tspan dy="15" x="100" text-anchor="middle">deploymentStrategy</tspan></text><line y2="45" y1="45" x2="200" x1="0" class="req-title-line"/><text dominant-baseline="hanging" y="45" x="10" id="deploymentStrategy_body" class="req reqLabel"><tspan dy="20" x="10">Id: 1.5.4</tspan><tspan dy="20" x="10">Text: Durchdachte Deployment-S</tspan><tspan dy="20" x="10">trategie</tspan><tspan dy="20" x="10">Risk: undefined</tspan><tspan dy="20" x="10">Verification: undefined</tspan></text></g><path marker-start="url(#contains_line_ending)" fill="none" d="M1970,129.091L420,270L420,320" class="er relationshipLine"/><rect fill-opacity="85%" fill="white" height="19" width="93.34375" y="192.30894470214844" x="1123.4307861328125" class="req reqLabelBox"/><text dominant-baseline="middle" text-anchor="middle" y="201.80894470214844" x="1170.1026611328125" id="rel0" class="req relationshipLabel">&lt;&lt;contains&gt;&gt;</text><path marker-start="url(#contains_line_ending)" fill="none" d="M1970,140L1320,270L1320,320" class="er relationshipLine"/><rect fill-opacity="85%" fill="white" height="19" width="93.34375" y="200.40292358398438" x="1573.8135986328125" class="req reqLabelBox"/><text dominant-baseline="middle" text-anchor="middle" y="209.90292358398438" x="1620.4854736328125" id="rel1" class="req relationshipLabel">&lt;&lt;contains&gt;&gt;</text><path marker-start="url(#contains_line_ending)" fill="none" d="M2070,220L2070,270L2070,320" class="er relationshipLine"/><rect fill-opacity="85%" fill="white" height="19" width="93.34375" y="260.5" x="2023.328125" class="req reqLabelBox"/><text dominant-baseline="middle" text-anchor="middle" y="270" x="2070" id="rel2" class="req relationshipLabel">&lt;&lt;contains&gt;&gt;</text><path marker-start="url(#contains_line_ending)" fill="none" d="M2170,145L2670,270L2670,320" class="er relationshipLine"/><rect fill-opacity="85%" fill="white" height="19" width="93.34375" y="204.06338500976562" x="2397.581787109375" class="req reqLabelBox"/><text dominant-baseline="middle" text-anchor="middle" y="213.56338500976562" x="2444.253662109375" id="rel3" class="req relationshipLabel">&lt;&lt;contains&gt;&gt;</text><path marker-start="url(#contains_line_ending)" fill="none" d="M2170,130L3570,270L3570,320" class="er relationshipLine"/><rect fill-opacity="85%" fill="white" height="19" width="93.34375" y="192.9875946044922" x="2848.2041015625" class="req reqLabelBox"/><text dominant-baseline="middle" text-anchor="middle" y="202.4875946044922" x="2894.8759765625" id="rel4" class="req relationshipLabel">&lt;&lt;contains&gt;&gt;</text><path marker-start="url(#contains_line_ending)" fill="none" d="M320,470L120,570L120,620" class="er relationshipLine"/><rect fill-opacity="85%" fill="white" height="19" width="93.34375" y="521.6803588867188" x="150.96743774414062" class="req reqLabelBox"/><text dominant-baseline="middle" text-anchor="middle" y="531.1803588867188" x="197.63931274414062" id="rel5" class="req relationshipLabel">&lt;&lt;contains&gt;&gt;</text><path marker-start="url(#contains_line_ending)" fill="none" d="M420,520L420,570L420,620" class="er relationshipLine"/><rect fill-opacity="85%" fill="white" height="19" width="93.34375" y="560.5" x="373.328125" class="req reqLabelBox"/><text dominant-baseline="middle" text-anchor="middle" y="570" x="420" id="rel6" class="req relationshipLabel">&lt;&lt;contains&gt;&gt;</text><path marker-start="url(#contains_line_ending)" fill="none" d="M520,470L720,570L720,620" class="er relationshipLine"/><rect fill-opacity="85%" fill="white" height="19" width="93.34375" y="521.6803588867188" x="595.6888427734375" class="req reqLabelBox"/><text dominant-baseline="middle" text-anchor="middle" y="531.1803588867188" x="642.3607177734375" id="rel7" class="req relationshipLabel">&lt;&lt;contains&gt;&gt;</text><path marker-start="url(#contains_line_ending)" fill="none" d="M1220,470L1020,570L1020,620" class="er relationshipLine"/><rect fill-opacity="85%" fill="white" height="19" width="93.34375" y="521.6803588867188" x="1050.9674072265625" class="req reqLabelBox"/><text dominant-baseline="middle" text-anchor="middle" y="531.1803588867188" x="1097.6392822265625" id="rel8" class="req relationshipLabel">&lt;&lt;contains&gt;&gt;</text><path marker-start="url(#contains_line_ending)" fill="none" d="M1320,520L1320,570L1320,620" class="er relationshipLine"/><rect fill-opacity="85%" fill="white" height="19" width="93.34375" y="560.5" x="1273.328125" class="req reqLabelBox"/><text dominant-baseline="middle" text-anchor="middle" y="570" x="1320" id="rel9" class="req relationshipLabel">&lt;&lt;contains&gt;&gt;</text><path marker-start="url(#contains_line_ending)" fill="none" d="M1420,470L1620,570L1620,620" class="er relationshipLine"/><rect fill-opacity="85%" fill="white" height="19" width="93.34375" y="521.6803588867188" x="1495.6888427734375" class="req reqLabelBox"/><text dominant-baseline="middle" text-anchor="middle" y="531.1803588867188" x="1542.3607177734375" id="rel10" class="req relationshipLabel">&lt;&lt;contains&gt;&gt;</text><path marker-start="url(#contains_line_ending)" fill="none" d="M1970,520L1920,570L1920,620" class="er relationshipLine"/><rect fill-opacity="85%" fill="white" height="19" width="93.34375" y="553.1776733398438" x="1880.6505126953125" class="req reqLabelBox"/><text dominant-baseline="middle" text-anchor="middle" y="562.6776733398438" x="1927.3223876953125" id="rel11" class="req relationshipLabel">&lt;&lt;contains&gt;&gt;</text><path marker-start="url(#contains_line_ending)" fill="none" d="M2170,520L2220,570L2220,620" class="er relationshipLine"/><rect fill-opacity="85%" fill="white" height="19" width="93.34375" y="553.1776733398438" x="2166.005859375" class="req reqLabelBox"/><text dominant-baseline="middle" text-anchor="middle" y="562.6776733398438" x="2212.677734375" id="rel12" class="req relationshipLabel">&lt;&lt;contains&gt;&gt;</text><path marker-start="url(#contains_line_ending)" fill="none" d="M2570,520L2520,570L2520,620" class="er relationshipLine"/><rect fill-opacity="85%" fill="white" height="19" width="93.34375" y="553.1776733398438" x="2480.650390625" class="req reqLabelBox"/><text dominant-baseline="middle" text-anchor="middle" y="562.6776733398438" x="2527.322265625" id="rel13" class="req relationshipLabel">&lt;&lt;contains&gt;&gt;</text><path marker-start="url(#contains_line_ending)" fill="none" d="M2770,520L2820,570L2820,620" class="er relationshipLine"/><rect fill-opacity="85%" fill="white" height="19" width="93.34375" y="553.1776733398438" x="2766.005859375" class="req reqLabelBox"/><text dominant-baseline="middle" text-anchor="middle" y="562.6776733398438" x="2812.677734375" id="rel14" class="req relationshipLabel">&lt;&lt;contains&gt;&gt;</text><path marker-start="url(#contains_line_ending)" fill="none" d="M3470,453.333L3120,570L3120,620" class="er relationshipLine"/><rect fill-opacity="85%" fill="white" height="19" width="93.34375" y="510.07220458984375" x="3224.611083984375" class="req reqLabelBox"/><text dominant-baseline="middle" text-anchor="middle" y="519.5722045898438" x="3271.282958984375" id="rel15" class="req relationshipLabel">&lt;&lt;contains&gt;&gt;</text><path marker-start="url(#contains_line_ending)" fill="none" d="M3470,520L3420,570L3420,620" class="er relationshipLine"/><rect fill-opacity="85%" fill="white" height="19" width="93.34375" y="553.1776733398438" x="3380.650390625" class="req reqLabelBox"/><text dominant-baseline="middle" text-anchor="middle" y="562.6776733398438" x="3427.322265625" id="rel16" class="req relationshipLabel">&lt;&lt;contains&gt;&gt;</text><path marker-start="url(#contains_line_ending)" fill="none" d="M3670,520L3720,570L3720,620" class="er relationshipLine"/><rect fill-opacity="85%" fill="white" height="19" width="93.34375" y="553.1776733398438" x="3666.005859375" class="req reqLabelBox"/><text dominant-baseline="middle" text-anchor="middle" y="562.6776733398438" x="3712.677734375" id="rel17" class="req relationshipLabel">&lt;&lt;contains&gt;&gt;</text><path marker-start="url(#contains_line_ending)" fill="none" d="M3670,453.333L4020,570L4020,620" class="er relationshipLine"/><rect fill-opacity="85%" fill="white" height="19" width="93.34375" y="510.07220458984375" x="3822.045166015625" class="req reqLabelBox"/><text dominant-baseline="middle" text-anchor="middle" y="519.5722045898438" x="3868.717041015625" id="rel18" class="req relationshipLabel">&lt;&lt;contains&gt;&gt;</text></svg>