<svg aria-roledescription="gitGraph" role="graphics-document document" viewBox="-179.453125 -34.70000076293945 787.453125 473.060302734375" style="max-width: 787.453px; background-color: white;" xmlns:xlink="http://www.w3.org/1999/xlink" xmlns="http://www.w3.org/2000/svg" width="100%" id="my-svg"><style>#my-svg{font-family:"trebuchet ms",verdana,arial,sans-serif;font-size:16px;fill:#333;}#my-svg .error-icon{fill:#552222;}#my-svg .error-text{fill:#552222;stroke:#552222;}#my-svg .edge-thickness-normal{stroke-width:1px;}#my-svg .edge-thickness-thick{stroke-width:3.5px;}#my-svg .edge-pattern-solid{stroke-dasharray:0;}#my-svg .edge-thickness-invisible{stroke-width:0;fill:none;}#my-svg .edge-pattern-dashed{stroke-dasharray:3;}#my-svg .edge-pattern-dotted{stroke-dasharray:2;}#my-svg .marker{fill:#333333;stroke:#333333;}#my-svg .marker.cross{stroke:#333333;}#my-svg svg{font-family:"trebuchet ms",verdana,arial,sans-serif;font-size:16px;}#my-svg p{margin:0;}#my-svg .commit-id,#my-svg .commit-msg,#my-svg .branch-label{fill:lightgrey;color:lightgrey;font-family:'trebuchet ms',verdana,arial,sans-serif;font-family:var(--mermaid-font-family);}#my-svg .branch-label0{fill:#ffffff;}#my-svg .commit0{stroke:hsl(240, 100%, 46.2745098039%);fill:hsl(240, 100%, 46.2745098039%);}#my-svg .commit-highlight0{stroke:hsl(60, 100%, 3.7254901961%);fill:hsl(60, 100%, 3.7254901961%);}#my-svg .label0{fill:hsl(240, 100%, 46.2745098039%);}#my-svg .arrow0{stroke:hsl(240, 100%, 46.2745098039%);}#my-svg .branch-label1{fill:black;}#my-svg .commit1{stroke:hsl(60, 100%, 43.5294117647%);fill:hsl(60, 100%, 43.5294117647%);}#my-svg .commit-highlight1{stroke:rgb(0, 0, 160.5);fill:rgb(0, 0, 160.5);}#my-svg .label1{fill:hsl(60, 100%, 43.5294117647%);}#my-svg .arrow1{stroke:hsl(60, 100%, 43.5294117647%);}#my-svg .branch-label2{fill:black;}#my-svg .commit2{stroke:hsl(80, 100%, 46.2745098039%);fill:hsl(80, 100%, 46.2745098039%);}#my-svg .commit-highlight2{stroke:rgb(48.8333333334, 0, 146.5000000001);fill:rgb(48.8333333334, 0, 146.5000000001);}#my-svg .label2{fill:hsl(80, 100%, 46.2745098039%);}#my-svg .arrow2{stroke:hsl(80, 100%, 46.2745098039%);}#my-svg .branch-label3{fill:#ffffff;}#my-svg .commit3{stroke:hsl(210, 100%, 46.2745098039%);fill:hsl(210, 100%, 46.2745098039%);}#my-svg .commit-highlight3{stroke:rgb(146.5000000001, 73.2500000001, 0);fill:rgb(146.5000000001, 73.2500000001, 0);}#my-svg .label3{fill:hsl(210, 100%, 46.2745098039%);}#my-svg .arrow3{stroke:hsl(210, 100%, 46.2745098039%);}#my-svg .branch-label4{fill:black;}#my-svg .commit4{stroke:hsl(180, 100%, 46.2745098039%);fill:hsl(180, 100%, 46.2745098039%);}#my-svg .commit-highlight4{stroke:rgb(146.5000000001, 0, 0);fill:rgb(146.5000000001, 0, 0);}#my-svg .label4{fill:hsl(180, 100%, 46.2745098039%);}#my-svg .arrow4{stroke:hsl(180, 100%, 46.2745098039%);}#my-svg .branch-label5{fill:black;}#my-svg .commit5{stroke:hsl(150, 100%, 46.2745098039%);fill:hsl(150, 100%, 46.2745098039%);}#my-svg .commit-highlight5{stroke:rgb(146.5000000001, 0, 73.2500000001);fill:rgb(146.5000000001, 0, 73.2500000001);}#my-svg .label5{fill:hsl(150, 100%, 46.2745098039%);}#my-svg .arrow5{stroke:hsl(150, 100%, 46.2745098039%);}#my-svg .branch-label6{fill:black;}#my-svg .commit6{stroke:hsl(300, 100%, 46.2745098039%);fill:hsl(300, 100%, 46.2745098039%);}#my-svg .commit-highlight6{stroke:rgb(0, 146.5000000001, 0);fill:rgb(0, 146.5000000001, 0);}#my-svg .label6{fill:hsl(300, 100%, 46.2745098039%);}#my-svg .arrow6{stroke:hsl(300, 100%, 46.2745098039%);}#my-svg .branch-label7{fill:black;}#my-svg .commit7{stroke:hsl(0, 100%, 46.2745098039%);fill:hsl(0, 100%, 46.2745098039%);}#my-svg .commit-highlight7{stroke:rgb(0, 146.5000000001, 146.5000000001);fill:rgb(0, 146.5000000001, 146.5000000001);}#my-svg .label7{fill:hsl(0, 100%, 46.2745098039%);}#my-svg .arrow7{stroke:hsl(0, 100%, 46.2745098039%);}#my-svg .branch{stroke-width:1;stroke:#333333;stroke-dasharray:2;}#my-svg .commit-label{font-size:10px;fill:#000021;}#my-svg .commit-label-bkg{font-size:10px;fill:#ffffde;opacity:0.5;}#my-svg .tag-label{font-size:10px;fill:#131300;}#my-svg .tag-label-bkg{fill:#ECECFF;stroke:hsl(240, 60%, 86.2745098039%);}#my-svg .tag-hole{fill:#333;}#my-svg .commit-merge{stroke:#ECECFF;fill:#ECECFF;}#my-svg .commit-reverse{stroke:#ECECFF;fill:#ECECFF;stroke-width:3;}#my-svg .commit-highlight-inner{stroke:#ECECFF;fill:#ECECFF;}#my-svg .arrow{stroke-width:8;stroke-linecap:round;fill:none;}#my-svg .gitTitleText{text-anchor:middle;font-size:18px;fill:#333;}#my-svg :root{--mermaid-font-family:"trebuchet ms",verdana,arial,sans-serif;}</style><g/><g class="commit-bullets"/><g class="commit-labels"/><g><line class="branch branch0" y2="0" x2="600" y1="0" x1="0"/><rect transform="translate(-19, -9.5)" height="23" width="53" y="-1.5" x="-69" ry="4" rx="4" class="branchLabelBkg label0"/><g class="branchLabel"><g transform="translate(-79, -10.5)" class="label branch-label0"><text><tspan class="row" x="0" dy="1em" xml:space="preserve">main</tspan></text></g></g><line class="branch branch1" y2="90" x2="600" y1="90" x1="0"/><rect transform="translate(-19, 80.5)" height="23" width="74.421875" y="-1.5" x="-90.421875" ry="4" rx="4" class="branchLabelBkg label1"/><g class="branchLabel"><g transform="translate(-100.421875, 79.5)" class="label branch-label1"><text><tspan class="row" x="0" dy="1em" xml:space="preserve">develop</tspan></text></g></g><line class="branch branch2" y2="180" x2="600" y1="180" x1="0"/><rect transform="translate(-19, 170.5)" height="23" width="123.25" y="-1.5" x="-139.25" ry="4" rx="4" class="branchLabelBkg label2"/><g class="branchLabel"><g transform="translate(-149.25, 169.5)" class="label branch-label2"><text><tspan class="row" x="0" dy="1em" xml:space="preserve">Release Please</tspan></text></g></g><line class="branch branch3" y2="270" x2="600" y1="270" x1="0"/><rect transform="translate(-19, 260.5)" height="23" width="136.453125" y="-1.5" x="-152.453125" ry="4" rx="4" class="branchLabelBkg label3"/><g class="branchLabel"><g transform="translate(-162.453125, 259.5)" class="label branch-label3"><text><tspan class="row" x="0" dy="1em" xml:space="preserve">Release Please 2</tspan></text></g></g><line class="branch branch4" y2="360" x2="600" y1="360" x1="0"/><rect transform="translate(-19, 350.5)" height="23" width="136.453125" y="-1.5" x="-152.453125" ry="4" rx="4" class="branchLabelBkg label4"/><g class="branchLabel"><g transform="translate(-162.453125, 349.5)" class="label branch-label4"><text><tspan class="row" x="0" dy="1em" xml:space="preserve">Release Please 3</tspan></text></g></g></g><g class="commit-arrows"><path class="arrow arrow1" d="M 10 0 L 10 70 A 20 20, 0, 0, 0, 30 90 L 60 90"/><path class="arrow arrow2" d="M 60 90 L 60 160 A 20 20, 0, 0, 0, 80 180 L 110 180"/><path class="arrow arrow1" d="M 60 90 L 160 90"/><path class="arrow arrow2" d="M 110 180 L 210 180"/><path class="arrow arrow1" d="M 160 90 L 260 90"/><path class="arrow arrow2" d="M 210 180 L 240 180 A 20 20, 0, 0, 0, 260 160 L 260 90"/><path class="arrow arrow1" d="M 260 90 L 310 90"/><path class="arrow arrow3" d="M 310 90 L 310 250 A 20 20, 0, 0, 0, 330 270 L 360 270"/><path class="arrow arrow1" d="M 310 90 L 410 90"/><path class="arrow arrow3" d="M 360 270 L 390 270 A 20 20, 0, 0, 0, 410 250 L 410 90"/><path class="arrow arrow0" d="M 10 0 L 460 0"/><path class="arrow arrow1" d="M 410 90 L 440 90 A 20 20, 0, 0, 0, 460 70 L 460 0"/><path class="arrow arrow1" d="M 410 90 L 510 90"/><path class="arrow arrow0" d="M 460 0 L 490 0 A 20 20, 0, 0, 1, 510 20 L 510 90"/><path class="arrow arrow4" d="M 510 90 L 510 340 A 20 20, 0, 0, 0, 530 360 L 560 360"/></g><g class="commit-bullets"><circle class="commit chore: release v1.0.0 commit0" r="10" cy="0" cx="10"/><circle class="commit fix: broken commit1" r="10" cy="90" cx="60"/><circle class="commit prepare v1.0.1 commit2" r="10" cy="180" cx="110"/><circle class="commit feat: new hotness commit1" r="10" cy="90" cx="160"/><circle class="commit prepare v1.1.0 commit2" r="10" cy="180" cx="210"/><circle class="commit chore: set v1.1.0 commit1" r="9" cy="90" cx="260"/><circle class="commit commit-merge chore: set v1.1.0 commit1" r="6" cy="90" cx="260"/><circle class="commit feat!: breaking change commit1" r="10" cy="90" cx="310"/><circle class="commit prepare v2.0.0 commit3" r="10" cy="270" cx="360"/><circle class="commit chore: set v2.0.0 commit1" r="9" cy="90" cx="410"/><circle class="commit commit-merge chore: set v2.0.0 commit1" r="6" cy="90" cx="410"/><circle class="commit chore: release v2.0.0 commit0" r="9" cy="0" cx="460"/><circle class="commit commit-merge chore: release v2.0.0 commit0" r="6" cy="0" cx="460"/><circle class="commit merge tags commit1" r="9" cy="90" cx="510"/><circle class="commit commit-merge merge tags commit1" r="6" cy="90" cx="510"/><circle class="commit prepare v2.0.1 commit4" r="10" cy="360" cx="560"/></g><g class="commit-labels"><g transform="translate(-47.5128125, 42.4009375) rotate(-45, 0, 0)"><rect height="15" width="99.296875" y="13.5" x="-39.6484375" class="commit-label-bkg"/><text class="commit-label" y="25" x="-37.6484375">chore: release v1.0.0</text></g><polygon points="-15.9921875,-17.2  &#10;      -15.9921875,-21.2&#10;      -7.9921875,-26.7&#10;      27.9921875,-26.7&#10;      27.9921875,-11.7&#10;      -7.9921875,-11.7" class="tag-label-bkg"/><circle class="tag-hole" r="1.5" cx="-11.9921875" cy="-19.2"/><text x="-3.9921875" class="tag-label" y="-16">v1.0.0</text><g transform="translate(-29.931875, 26.670625) rotate(-45, 50, 90)"><rect height="15" width="53.03125" y="103.5" x="33.484375" class="commit-label-bkg"/><text class="commit-label" y="115" x="35.484375">fix: broken</text></g><g transform="translate(-36.4096875, 32.466562499999995) rotate(-45, 100, 180)"><rect height="15.05078125" width="70.078125" y="193.5" x="74.9609375" class="commit-label-bkg"/><text class="commit-label" y="205" x="76.9609375">prepare v1.0.1</text></g><g transform="translate(-41.7890625, 37.2796875) rotate(-45, 150, 90)"><rect height="15" width="84.234375" y="103.5" x="117.8828125" class="commit-label-bkg"/><text class="commit-label" y="115" x="119.8828125">feat: new hotness</text></g><g transform="translate(-36.4096875, 32.466562499999995) rotate(-45, 200, 180)"><rect height="15.05078125" width="70.078125" y="193.5" x="174.9609375" class="commit-label-bkg"/><text class="commit-label" y="205" x="176.9609375">prepare v1.1.0</text></g><g transform="translate(-40.2809375, 35.9303125) rotate(-45, 250, 90)"><rect height="15" width="80.265625" y="103.5" x="219.8671875" class="commit-label-bkg"/><text class="commit-label" y="115" x="221.8671875">chore: set v1.1.0</text></g><g transform="translate(-50.0184375, 44.6428125) rotate(-45, 300, 90)"><rect height="15.05078125" width="105.890625" y="103.5" x="257.0546875" class="commit-label-bkg"/><text class="commit-label" y="115" x="259.0546875">feat!: breaking change</text></g><g transform="translate(-36.4096875, 32.466562499999995) rotate(-45, 350, 270)"><rect height="15.05078125" width="70.078125" y="283.5" x="324.9609375" class="commit-label-bkg"/><text class="commit-label" y="295" x="326.9609375">prepare v2.0.0</text></g><g transform="translate(-40.2809375, 35.9303125) rotate(-45, 400, 90)"><rect height="15" width="80.265625" y="103.5" x="369.8671875" class="commit-label-bkg"/><text class="commit-label" y="115" x="371.8671875">chore: set v2.0.0</text></g><g transform="translate(-47.5128125, 42.4009375) rotate(-45, 450, 0)"><rect height="15" width="99.296875" y="13.5" x="410.3515625" class="commit-label-bkg"/><text class="commit-label" y="25" x="412.3515625">chore: release v2.0.0</text></g><polygon points="434.0078125,-17.2  &#10;      434.0078125,-21.2&#10;      442.0078125,-26.7&#10;      477.9921875,-26.7&#10;      477.9921875,-11.7&#10;      442.0078125,-11.7" class="tag-label-bkg"/><circle class="tag-hole" r="1.5" cx="438.0078125" cy="-19.2"/><text x="446.0078125" class="tag-label" y="-16">v2.0.0</text><g transform="translate(-30.0803125, 26.8034375) rotate(-45, 500, 90)"><rect height="15.05078125" width="53.421875" y="103.5" x="483.2890625" class="commit-label-bkg"/><text class="commit-label" y="115" x="485.2890625">merge tags</text></g><g transform="translate(-36.4096875, 32.466562499999995) rotate(-45, 550, 360)"><rect height="15.05078125" width="70.078125" y="373.5" x="524.9609375" class="commit-label-bkg"/><text class="commit-label" y="385" x="526.9609375">prepare v2.0.1</text></g></g></svg>