<svg aria-roledescription="er" role="graphics-document document" viewBox="0 0 448.234375 532.91796875" style="max-width: 448.234px; background-color: white;" xmlns:xlink="http://www.w3.org/1999/xlink" xmlns="http://www.w3.org/2000/svg" width="100%" id="my-svg"><style>#my-svg{font-family:"trebuchet ms",verdana,arial,sans-serif;font-size:16px;fill:#333;}#my-svg .error-icon{fill:#552222;}#my-svg .error-text{fill:#552222;stroke:#552222;}#my-svg .edge-thickness-normal{stroke-width:1px;}#my-svg .edge-thickness-thick{stroke-width:3.5px;}#my-svg .edge-pattern-solid{stroke-dasharray:0;}#my-svg .edge-thickness-invisible{stroke-width:0;fill:none;}#my-svg .edge-pattern-dashed{stroke-dasharray:3;}#my-svg .edge-pattern-dotted{stroke-dasharray:2;}#my-svg .marker{fill:#333333;stroke:#333333;}#my-svg .marker.cross{stroke:#333333;}#my-svg svg{font-family:"trebuchet ms",verdana,arial,sans-serif;font-size:16px;}#my-svg p{margin:0;}#my-svg .entityBox{fill:#ECECFF;stroke:#9370DB;}#my-svg .attributeBoxOdd{fill:#ffffff;stroke:#9370DB;}#my-svg .attributeBoxEven{fill:#f2f2f2;stroke:#9370DB;}#my-svg .relationshipLabelBox{fill:hsl(80, 100%, 96.2745098039%);opacity:0.7;background-color:hsl(80, 100%, 96.2745098039%);}#my-svg .relationshipLabelBox rect{opacity:0.5;}#my-svg .relationshipLine{stroke:#333333;}#my-svg .entityTitleText{text-anchor:middle;font-size:18px;fill:#333;}#my-svg #MD_PARENT_START{fill:#f5f5f5!important;stroke:#333333!important;stroke-width:1;}#my-svg #MD_PARENT_END{fill:#f5f5f5!important;stroke:#333333!important;stroke-width:1;}#my-svg :root{--mermaid-font-family:"trebuchet ms",verdana,arial,sans-serif;}</style><g/><defs><marker orient="auto" markerHeight="240" markerWidth="190" refY="7" refX="0" id="MD_PARENT_START"><path d="M 18,7 L9,13 L1,7 L9,1 Z"/></marker></defs><defs><marker orient="auto" markerHeight="28" markerWidth="20" refY="7" refX="19" id="MD_PARENT_END"><path d="M 18,7 L9,13 L1,7 L9,1 Z"/></marker></defs><defs><marker orient="auto" markerHeight="18" markerWidth="18" refY="9" refX="0" id="ONLY_ONE_START"><path d="M9,0 L9,18 M15,0 L15,18" fill="none" stroke="gray"/></marker></defs><defs><marker orient="auto" markerHeight="18" markerWidth="18" refY="9" refX="18" id="ONLY_ONE_END"><path d="M3,0 L3,18 M9,0 L9,18" fill="none" stroke="gray"/></marker></defs><defs><marker orient="auto" markerHeight="18" markerWidth="30" refY="9" refX="0" id="ZERO_OR_ONE_START"><circle r="6" cy="9" cx="21" fill="white" stroke="gray"/><path d="M9,0 L9,18" fill="none" stroke="gray"/></marker></defs><defs><marker orient="auto" markerHeight="18" markerWidth="30" refY="9" refX="30" id="ZERO_OR_ONE_END"><circle r="6" cy="9" cx="9" fill="white" stroke="gray"/><path d="M21,0 L21,18" fill="none" stroke="gray"/></marker></defs><defs><marker orient="auto" markerHeight="36" markerWidth="45" refY="18" refX="18" id="ONE_OR_MORE_START"><path d="M0,18 Q 18,0 36,18 Q 18,36 0,18 M42,9 L42,27" fill="none" stroke="gray"/></marker></defs><defs><marker orient="auto" markerHeight="36" markerWidth="45" refY="18" refX="27" id="ONE_OR_MORE_END"><path d="M3,9 L3,27 M9,18 Q27,0 45,18 Q27,36 9,18" fill="none" stroke="gray"/></marker></defs><defs><marker orient="auto" markerHeight="36" markerWidth="57" refY="18" refX="18" id="ZERO_OR_MORE_START"><circle r="6" cy="18" cx="48" fill="white" stroke="gray"/><path d="M0,18 Q18,0 36,18 Q18,36 0,18" fill="none" stroke="gray"/></marker></defs><defs><marker orient="auto" markerHeight="36" markerWidth="57" refY="18" refX="39" id="ZERO_OR_MORE_END"><circle r="6" cy="18" cx="9" fill="white" stroke="gray"/><path d="M21,18 Q39,0 57,18 Q39,36 21,18" fill="none" stroke="gray"/></marker></defs><path style="stroke: gray; fill: none;" marker-start="url(#ONLY_ONE_START)" marker-end="url(#ONE_OR_MORE_END)" d="M97.102,300.551L97.102,308.884C97.102,317.217,97.102,333.884,107.4,350.824C117.699,367.764,138.297,384.978,148.596,393.585L158.895,402.192" class="er relationshipLine"/><path style="stroke: gray; fill: none;" marker-start="url(#ONLY_ONE_START)" marker-end="url(#ONE_OR_MORE_END)" d="M351.219,289.505L351.219,299.679C351.219,309.854,351.219,330.202,340.92,348.983C330.621,367.764,310.023,384.978,299.725,393.585L289.426,402.192" class="er relationshipLine"/><path style="stroke: gray; fill: none;" marker-start="url(#ONLY_ONE_START)" marker-end="url(#ONE_OR_MORE_END)" d="M97.102,88.184L97.102,96.517C97.102,104.85,97.102,121.517,97.102,138.184C97.102,154.85,97.102,171.517,97.102,179.85L97.102,188.184" class="er relationshipLine"/><g transform="translate(20,188.18359375 )" id="entity-items-a3f952a6-d074-5205-abf0-e48300f539a9"><rect height="112.36719036102295" width="154.203125" y="0" x="0" class="er entityBox"/><text style="dominant-baseline: middle; text-anchor: middle; font-size: 12px;" transform="translate(77.1015625,12)" y="0" x="0" id="text-entity-items-a3f952a6-d074-5205-abf0-e48300f539a9" class="er entityLabel">items</text><rect height="22.091796875" width="42.75" y="24" x="0" class="er attributeBoxOdd"/><text style="dominant-baseline: middle; font-size: 10.2px;" transform="translate(5,35.0458984375)" y="0" x="0" id="text-entity-items-a3f952a6-d074-5205-abf0-e48300f539a9-attr-1-type" class="er entityLabel">bigint</text><rect height="22.091796875" width="89.890625" y="24" x="42.75" class="er attributeBoxOdd"/><text style="dominant-baseline: middle; font-size: 10.2px;" transform="translate(47.75,35.0458984375)" y="0" x="0" id="text-entity-items-a3f952a6-d074-5205-abf0-e48300f539a9-attr-1-name" class="er entityLabel">id</text><rect height="22.091796875" width="21.5625" y="24" x="132.640625" class="er attributeBoxOdd"/><text style="dominant-baseline: middle; font-size: 10.2px;" transform="translate(137.640625,35.0458984375)" y="0" x="0" id="text-entity-items-a3f952a6-d074-5205-abf0-e48300f539a9-attr-1-key" class="er entityLabel">PK</text><rect height="22.091797828674316" width="42.75" y="46.091796875" x="0" class="er attributeBoxEven"/><text style="dominant-baseline: middle; font-size: 10.2px;" transform="translate(5,57.13769578933716)" y="0" x="0" id="text-entity-items-a3f952a6-d074-5205-abf0-e48300f539a9-attr-2-type" class="er entityLabel">string</text><rect height="22.091797828674316" width="89.890625" y="46.091796875" x="42.75" class="er attributeBoxEven"/><text style="dominant-baseline: middle; font-size: 10.2px;" transform="translate(47.75,57.13769578933716)" y="0" x="0" id="text-entity-items-a3f952a6-d074-5205-abf0-e48300f539a9-attr-2-name" class="er entityLabel">name</text><rect height="22.091797828674316" width="21.5625" y="46.091796875" x="132.640625" class="er attributeBoxEven"/><text style="dominant-baseline: middle; font-size: 10.2px;" transform="translate(137.640625,57.13769578933716)" y="0" x="0" id="text-entity-items-a3f952a6-d074-5205-abf0-e48300f539a9-attr-2-key" class="er entityLabel"/><rect height="22.091797828674316" width="42.75" y="68.18359470367432" x="0" class="er attributeBoxOdd"/><text style="dominant-baseline: middle; font-size: 10.2px;" transform="translate(5,79.22949361801147)" y="0" x="0" id="text-entity-items-a3f952a6-d074-5205-abf0-e48300f539a9-attr-3-type" class="er entityLabel">integer</text><rect height="22.091797828674316" width="89.890625" y="68.18359470367432" x="42.75" class="er attributeBoxOdd"/><text style="dominant-baseline: middle; font-size: 10.2px;" transform="translate(47.75,79.22949361801147)" y="0" x="0" id="text-entity-items-a3f952a6-d074-5205-abf0-e48300f539a9-attr-3-name" class="er entityLabel">price</text><rect height="22.091797828674316" width="21.5625" y="68.18359470367432" x="132.640625" class="er attributeBoxOdd"/><text style="dominant-baseline: middle; font-size: 10.2px;" transform="translate(137.640625,79.22949361801147)" y="0" x="0" id="text-entity-items-a3f952a6-d074-5205-abf0-e48300f539a9-attr-3-key" class="er entityLabel"/><rect height="22.091797828674316" width="42.75" y="90.27539253234863" x="0" class="er attributeBoxEven"/><text style="dominant-baseline: middle; font-size: 10.2px;" transform="translate(5,101.32129144668579)" y="0" x="0" id="text-entity-items-a3f952a6-d074-5205-abf0-e48300f539a9-attr-4-type" class="er entityLabel">bigint</text><rect height="22.091797828674316" width="89.890625" y="90.27539253234863" x="42.75" class="er attributeBoxEven"/><text style="dominant-baseline: middle; font-size: 10.2px;" transform="translate(47.75,101.32129144668579)" y="0" x="0" id="text-entity-items-a3f952a6-d074-5205-abf0-e48300f539a9-attr-4-name" class="er entityLabel">item_category_id</text><rect height="22.091797828674316" width="21.5625" y="90.27539253234863" x="132.640625" class="er attributeBoxEven"/><text style="dominant-baseline: middle; font-size: 10.2px;" transform="translate(137.640625,101.32129144668579)" y="0" x="0" id="text-entity-items-a3f952a6-d074-5205-abf0-e48300f539a9-attr-4-key" class="er entityLabel">FK</text></g><g transform="translate(158.89453125,400.55078125 )" id="entity-orders-b199f09d-589f-57c9-bdcc-48b896df9a97"><rect height="112.36718845367432" width="130.53125" y="0" x="0" class="er entityBox"/><text style="dominant-baseline: middle; text-anchor: middle; font-size: 12px;" transform="translate(65.265625,12)" y="0" x="0" id="text-entity-orders-b199f09d-589f-57c9-bdcc-48b896df9a97" class="er entityLabel">orders</text><rect height="22.091796875" width="42.75" y="24" x="0" class="er attributeBoxOdd"/><text style="dominant-baseline: middle; font-size: 10.2px;" transform="translate(5,35.0458984375)" y="0" x="0" id="text-entity-orders-b199f09d-589f-57c9-bdcc-48b896df9a97-attr-1-type" class="er entityLabel">bigint</text><rect height="22.091796875" width="66.21875" y="24" x="42.75" class="er attributeBoxOdd"/><text style="dominant-baseline: middle; font-size: 10.2px;" transform="translate(47.75,35.0458984375)" y="0" x="0" id="text-entity-orders-b199f09d-589f-57c9-bdcc-48b896df9a97-attr-1-name" class="er entityLabel">id</text><rect height="22.091796875" width="21.5625" y="24" x="108.96875" class="er attributeBoxOdd"/><text style="dominant-baseline: middle; font-size: 10.2px;" transform="translate(113.96875,35.0458984375)" y="0" x="0" id="text-entity-orders-b199f09d-589f-57c9-bdcc-48b896df9a97-attr-1-key" class="er entityLabel">PK</text><rect height="22.091796875" width="42.75" y="46.091796875" x="0" class="er attributeBoxEven"/><text style="dominant-baseline: middle; font-size: 10.2px;" transform="translate(5,57.1376953125)" y="0" x="0" id="text-entity-orders-b199f09d-589f-57c9-bdcc-48b896df9a97-attr-2-type" class="er entityLabel">bigint</text><rect height="22.091796875" width="66.21875" y="46.091796875" x="42.75" class="er attributeBoxEven"/><text style="dominant-baseline: middle; font-size: 10.2px;" transform="translate(47.75,57.1376953125)" y="0" x="0" id="text-entity-orders-b199f09d-589f-57c9-bdcc-48b896df9a97-attr-2-name" class="er entityLabel">customer_id</text><rect height="22.091796875" width="21.5625" y="46.091796875" x="108.96875" class="er attributeBoxEven"/><text style="dominant-baseline: middle; font-size: 10.2px;" transform="translate(113.96875,57.1376953125)" y="0" x="0" id="text-entity-orders-b199f09d-589f-57c9-bdcc-48b896df9a97-attr-2-key" class="er entityLabel">FK</text><rect height="22.091796875" width="42.75" y="68.18359375" x="0" class="er attributeBoxOdd"/><text style="dominant-baseline: middle; font-size: 10.2px;" transform="translate(5,79.2294921875)" y="0" x="0" id="text-entity-orders-b199f09d-589f-57c9-bdcc-48b896df9a97-attr-3-type" class="er entityLabel">bigint</text><rect height="22.091796875" width="66.21875" y="68.18359375" x="42.75" class="er attributeBoxOdd"/><text style="dominant-baseline: middle; font-size: 10.2px;" transform="translate(47.75,79.2294921875)" y="0" x="0" id="text-entity-orders-b199f09d-589f-57c9-bdcc-48b896df9a97-attr-3-name" class="er entityLabel">item_id</text><rect height="22.091796875" width="21.5625" y="68.18359375" x="108.96875" class="er attributeBoxOdd"/><text style="dominant-baseline: middle; font-size: 10.2px;" transform="translate(113.96875,79.2294921875)" y="0" x="0" id="text-entity-orders-b199f09d-589f-57c9-bdcc-48b896df9a97-attr-3-key" class="er entityLabel">FK</text><rect height="22.091797828674316" width="42.75" y="90.275390625" x="0" class="er attributeBoxEven"/><text style="dominant-baseline: middle; font-size: 10.2px;" transform="translate(5,101.32128953933716)" y="0" x="0" id="text-entity-orders-b199f09d-589f-57c9-bdcc-48b896df9a97-attr-4-type" class="er entityLabel">integer</text><rect height="22.091797828674316" width="66.21875" y="90.275390625" x="42.75" class="er attributeBoxEven"/><text style="dominant-baseline: middle; font-size: 10.2px;" transform="translate(47.75,101.32128953933716)" y="0" x="0" id="text-entity-orders-b199f09d-589f-57c9-bdcc-48b896df9a97-attr-4-name" class="er entityLabel">count</text><rect height="22.091797828674316" width="21.5625" y="90.275390625" x="108.96875" class="er attributeBoxEven"/><text style="dominant-baseline: middle; font-size: 10.2px;" transform="translate(113.96875,101.32128953933716)" y="0" x="0" id="text-entity-orders-b199f09d-589f-57c9-bdcc-48b896df9a97-attr-4-key" class="er entityLabel"/></g><g transform="translate(274.203125,199.2294921875 )" id="entity-customers-81c4bf60-f037-5ffd-bea1-c082debbd530"><rect height="90.27539253234863" width="154.03125" y="0" x="0" class="er entityBox"/><text style="dominant-baseline: middle; text-anchor: middle; font-size: 12px;" transform="translate(77.015625,12)" y="0" x="0" id="text-entity-customers-81c4bf60-f037-5ffd-bea1-c082debbd530" class="er entityLabel">customers</text><rect height="22.091796875" width="36.25" y="24" x="0" class="er attributeBoxOdd"/><text style="dominant-baseline: middle; font-size: 10.2px;" transform="translate(5,35.0458984375)" y="0" x="0" id="text-entity-customers-81c4bf60-f037-5ffd-bea1-c082debbd530-attr-1-type" class="er entityLabel">bigint</text><rect height="22.091796875" width="96.21875" y="24" x="36.25" class="er attributeBoxOdd"/><text style="dominant-baseline: middle; font-size: 10.2px;" transform="translate(41.25,35.0458984375)" y="0" x="0" id="text-entity-customers-81c4bf60-f037-5ffd-bea1-c082debbd530-attr-1-name" class="er entityLabel">id</text><rect height="22.091796875" width="21.5625" y="24" x="132.46875" class="er attributeBoxOdd"/><text style="dominant-baseline: middle; font-size: 10.2px;" transform="translate(137.46875,35.0458984375)" y="0" x="0" id="text-entity-customers-81c4bf60-f037-5ffd-bea1-c082debbd530-attr-1-key" class="er entityLabel">PK</text><rect height="22.091797828674316" width="36.25" y="46.091796875" x="0" class="er attributeBoxEven"/><text style="dominant-baseline: middle; font-size: 10.2px;" transform="translate(5,57.13769578933716)" y="0" x="0" id="text-entity-customers-81c4bf60-f037-5ffd-bea1-c082debbd530-attr-2-type" class="er entityLabel">string</text><rect height="22.091797828674316" width="96.21875" y="46.091796875" x="36.25" class="er attributeBoxEven"/><text style="dominant-baseline: middle; font-size: 10.2px;" transform="translate(41.25,57.13769578933716)" y="0" x="0" id="text-entity-customers-81c4bf60-f037-5ffd-bea1-c082debbd530-attr-2-name" class="er entityLabel">name</text><rect height="22.091797828674316" width="21.5625" y="46.091796875" x="132.46875" class="er attributeBoxEven"/><text style="dominant-baseline: middle; font-size: 10.2px;" transform="translate(137.46875,57.13769578933716)" y="0" x="0" id="text-entity-customers-81c4bf60-f037-5ffd-bea1-c082debbd530-attr-2-key" class="er entityLabel"/><rect height="22.091797828674316" width="36.25" y="68.18359470367432" x="0" class="er attributeBoxOdd"/><text style="dominant-baseline: middle; font-size: 10.2px;" transform="translate(5,79.22949361801147)" y="0" x="0" id="text-entity-customers-81c4bf60-f037-5ffd-bea1-c082debbd530-attr-3-type" class="er entityLabel">string</text><rect height="22.091797828674316" width="96.21875" y="68.18359470367432" x="36.25" class="er attributeBoxOdd"/><text style="dominant-baseline: middle; font-size: 10.2px;" transform="translate(41.25,79.22949361801147)" y="0" x="0" id="text-entity-customers-81c4bf60-f037-5ffd-bea1-c082debbd530-attr-3-name" class="er entityLabel">telephone_number</text><rect height="22.091797828674316" width="21.5625" y="68.18359470367432" x="132.46875" class="er attributeBoxOdd"/><text style="dominant-baseline: middle; font-size: 10.2px;" transform="translate(137.46875,79.22949361801147)" y="0" x="0" id="text-entity-customers-81c4bf60-f037-5ffd-bea1-c082debbd530-attr-3-key" class="er entityLabel"/></g><g transform="translate(38.859375,20 )" id="entity-itemcategories-359b110a-62e2-5896-9878-d0b19733b4f0"><rect height="68.18359470367432" width="116.484375" y="0" x="0" class="er entityBox"/><text style="dominant-baseline: middle; text-anchor: middle; font-size: 12px;" transform="translate(58.2421875,12)" y="0" x="0" id="text-entity-itemcategories-359b110a-62e2-5896-9878-d0b19733b4f0" class="er entityLabel">item_categories</text><rect height="22.091796875" width="44.151041666666664" y="24" x="0" class="er attributeBoxOdd"/><text style="dominant-baseline: middle; font-size: 10.2px;" transform="translate(5,35.0458984375)" y="0" x="0" id="text-entity-itemcategories-359b110a-62e2-5896-9878-d0b19733b4f0-attr-1-type" class="er entityLabel">bigint</text><rect height="22.091796875" width="42.869791666666664" y="24" x="44.151041666666664" class="er attributeBoxOdd"/><text style="dominant-baseline: middle; font-size: 10.2px;" transform="translate(49.151041666666664,35.0458984375)" y="0" x="0" id="text-entity-itemcategories-359b110a-62e2-5896-9878-d0b19733b4f0-attr-1-name" class="er entityLabel">id</text><rect height="22.091796875" width="29.463541666666668" y="24" x="87.02083333333333" class="er attributeBoxOdd"/><text style="dominant-baseline: middle; font-size: 10.2px;" transform="translate(92.02083333333333,35.0458984375)" y="0" x="0" id="text-entity-itemcategories-359b110a-62e2-5896-9878-d0b19733b4f0-attr-1-key" class="er entityLabel">PK</text><rect height="22.091797828674316" width="44.151041666666664" y="46.091796875" x="0" class="er attributeBoxEven"/><text style="dominant-baseline: middle; font-size: 10.2px;" transform="translate(5,57.13769578933716)" y="0" x="0" id="text-entity-itemcategories-359b110a-62e2-5896-9878-d0b19733b4f0-attr-2-type" class="er entityLabel">string</text><rect height="22.091797828674316" width="42.869791666666664" y="46.091796875" x="44.151041666666664" class="er attributeBoxEven"/><text style="dominant-baseline: middle; font-size: 10.2px;" transform="translate(49.151041666666664,57.13769578933716)" y="0" x="0" id="text-entity-itemcategories-359b110a-62e2-5896-9878-d0b19733b4f0-attr-2-name" class="er entityLabel">name</text><rect height="22.091797828674316" width="29.463541666666668" y="46.091796875" x="87.02083333333333" class="er attributeBoxEven"/><text style="dominant-baseline: middle; font-size: 10.2px;" transform="translate(92.02083333333333,57.13769578933716)" y="0" x="0" id="text-entity-itemcategories-359b110a-62e2-5896-9878-d0b19733b4f0-attr-2-key" class="er entityLabel"/></g><rect height="0" width="0" y="359.38800048828125" x="113.4008560180664" class="er relationshipLabelBox"/><text style="text-anchor: middle; dominant-baseline: middle; font-size: 12px;" y="359.38800048828125" x="113.4008560180664" id="rel1" class="er relationshipLabel"/><rect height="0" width="0" y="354.6941833496094" x="337.45513916015625" class="er relationshipLabelBox"/><text style="text-anchor: middle; dominant-baseline: middle; font-size: 12px;" y="354.6941833496094" x="337.45513916015625" id="rel2" class="er relationshipLabel"/><rect height="0" width="0" y="138.1840057373047" x="97.10199737548828" class="er relationshipLabelBox"/><text style="text-anchor: middle; dominant-baseline: middle; font-size: 12px;" y="138.1840057373047" x="97.10199737548828" id="rel3" class="er relationshipLabel"/></svg>