<svg aria-roledescription="er" role="graphics-document document" viewBox="0 0 379.9375 554.642578125" style="max-width: 379.938px; background-color: white;" xmlns:xlink="http://www.w3.org/1999/xlink" xmlns="http://www.w3.org/2000/svg" width="100%" id="my-svg"><style>#my-svg{font-family:"trebuchet ms",verdana,arial,sans-serif;font-size:16px;fill:#333;}#my-svg .error-icon{fill:#552222;}#my-svg .error-text{fill:#552222;stroke:#552222;}#my-svg .edge-thickness-normal{stroke-width:1px;}#my-svg .edge-thickness-thick{stroke-width:3.5px;}#my-svg .edge-pattern-solid{stroke-dasharray:0;}#my-svg .edge-thickness-invisible{stroke-width:0;fill:none;}#my-svg .edge-pattern-dashed{stroke-dasharray:3;}#my-svg .edge-pattern-dotted{stroke-dasharray:2;}#my-svg .marker{fill:#333333;stroke:#333333;}#my-svg .marker.cross{stroke:#333333;}#my-svg svg{font-family:"trebuchet ms",verdana,arial,sans-serif;font-size:16px;}#my-svg p{margin:0;}#my-svg .entityBox{fill:#ECECFF;stroke:#9370DB;}#my-svg .attributeBoxOdd{fill:#ffffff;stroke:#9370DB;}#my-svg .attributeBoxEven{fill:#f2f2f2;stroke:#9370DB;}#my-svg .relationshipLabelBox{fill:hsl(80, 100%, 96.2745098039%);opacity:0.7;background-color:hsl(80, 100%, 96.2745098039%);}#my-svg .relationshipLabelBox rect{opacity:0.5;}#my-svg .relationshipLine{stroke:#333333;}#my-svg .entityTitleText{text-anchor:middle;font-size:18px;fill:#333;}#my-svg #MD_PARENT_START{fill:#f5f5f5!important;stroke:#333333!important;stroke-width:1;}#my-svg #MD_PARENT_END{fill:#f5f5f5!important;stroke:#333333!important;stroke-width:1;}#my-svg :root{--mermaid-font-family:"trebuchet ms",verdana,arial,sans-serif;}</style><g/><defs><marker orient="auto" markerHeight="240" markerWidth="190" refY="7" refX="0" id="MD_PARENT_START"><path d="M 18,7 L9,13 L1,7 L9,1 Z"/></marker></defs><defs><marker orient="auto" markerHeight="28" markerWidth="20" refY="7" refX="19" id="MD_PARENT_END"><path d="M 18,7 L9,13 L1,7 L9,1 Z"/></marker></defs><defs><marker orient="auto" markerHeight="18" markerWidth="18" refY="9" refX="0" id="ONLY_ONE_START"><path d="M9,0 L9,18 M15,0 L15,18" fill="none" stroke="gray"/></marker></defs><defs><marker orient="auto" markerHeight="18" markerWidth="18" refY="9" refX="18" id="ONLY_ONE_END"><path d="M3,0 L3,18 M9,0 L9,18" fill="none" stroke="gray"/></marker></defs><defs><marker orient="auto" markerHeight="18" markerWidth="30" refY="9" refX="0" id="ZERO_OR_ONE_START"><circle r="6" cy="9" cx="21" fill="white" stroke="gray"/><path d="M9,0 L9,18" fill="none" stroke="gray"/></marker></defs><defs><marker orient="auto" markerHeight="18" markerWidth="30" refY="9" refX="30" id="ZERO_OR_ONE_END"><circle r="6" cy="9" cx="9" fill="white" stroke="gray"/><path d="M21,0 L21,18" fill="none" stroke="gray"/></marker></defs><defs><marker orient="auto" markerHeight="36" markerWidth="45" refY="18" refX="18" id="ONE_OR_MORE_START"><path d="M0,18 Q 18,0 36,18 Q 18,36 0,18 M42,9 L42,27" fill="none" stroke="gray"/></marker></defs><defs><marker orient="auto" markerHeight="36" markerWidth="45" refY="18" refX="27" id="ONE_OR_MORE_END"><path d="M3,9 L3,27 M9,18 Q27,0 45,18 Q27,36 9,18" fill="none" stroke="gray"/></marker></defs><defs><marker orient="auto" markerHeight="36" markerWidth="57" refY="18" refX="18" id="ZERO_OR_MORE_START"><circle r="6" cy="18" cx="48" fill="white" stroke="gray"/><path d="M0,18 Q18,0 36,18 Q18,36 0,18" fill="none" stroke="gray"/></marker></defs><defs><marker orient="auto" markerHeight="36" markerWidth="57" refY="18" refX="39" id="ZERO_OR_MORE_END"><circle r="6" cy="18" cx="9" fill="white" stroke="gray"/><path d="M21,18 Q39,0 57,18 Q39,36 21,18" fill="none" stroke="gray"/></marker></defs><path style="stroke: gray; fill: none;" marker-start="url(#ONLY_ONE_START)" marker-end="url(#ZERO_OR_MORE_END)" d="M189.32,322.275L189.32,330.609C189.32,338.942,189.32,355.609,189.32,372.275C189.32,388.942,189.32,405.609,189.32,413.942L189.32,422.275" class="er relationshipLine"/><path style="stroke: gray; fill: none;" marker-start="url(#ONLY_ONE_START)" marker-end="url(#ZERO_OR_MORE_END)" d="M79.336,132.275L79.336,140.609C79.336,148.942,79.336,165.609,88.984,182.275C98.631,198.942,117.927,215.609,127.575,223.942L137.222,232.275" class="er relationshipLine"/><path style="stroke: gray; fill: none;" marker-start="url(#ONLY_ONE_START)" marker-end="url(#ZERO_OR_MORE_END)" d="M299.305,121.275L299.305,131.442C299.305,141.609,299.305,161.942,289.657,180.442C280.009,198.942,260.714,215.609,251.066,223.942L241.418,232.275" class="er relationshipLine"/><g transform="translate(116.859375,232.275390625 )" id="entity-SALE-693be88d-391d-5318-bfcf-d1e179018751"><rect height="90" width="144.921875" y="0" x="0" class="er entityBox"/><text style="dominant-baseline: middle; text-anchor: middle; font-size: 12px;" transform="translate(72.4609375,12)" y="0" x="0" id="text-entity-SALE-693be88d-391d-5318-bfcf-d1e179018751" class="er entityLabel">SALE</text><rect height="22" width="51.640625" y="24" x="0" class="er attributeBoxOdd"/><text style="dominant-baseline: middle; font-size: 10.2px;" transform="translate(5,35)" y="0" x="0" id="text-entity-SALE-693be88d-391d-5318-bfcf-d1e179018751-attr-1-type" class="er entityLabel">int</text><rect height="22" width="71.71875" y="24" x="51.640625" class="er attributeBoxOdd"/><text style="dominant-baseline: middle; font-size: 10.2px;" transform="translate(56.640625,35)" y="0" x="0" id="text-entity-SALE-693be88d-391d-5318-bfcf-d1e179018751-attr-1-name" class="er entityLabel">saleID</text><rect height="22" width="21.5625" y="24" x="123.359375" class="er attributeBoxOdd"/><text style="dominant-baseline: middle; font-size: 10.2px;" transform="translate(128.359375,35)" y="0" x="0" id="text-entity-SALE-693be88d-391d-5318-bfcf-d1e179018751-attr-1-key" class="er entityLabel">PK</text><rect height="22" width="51.640625" y="46" x="0" class="er attributeBoxEven"/><text style="dominant-baseline: middle; font-size: 10.2px;" transform="translate(5,57)" y="0" x="0" id="text-entity-SALE-693be88d-391d-5318-bfcf-d1e179018751-attr-2-type" class="er entityLabel">datetime</text><rect height="22" width="71.71875" y="46" x="51.640625" class="er attributeBoxEven"/><text style="dominant-baseline: middle; font-size: 10.2px;" transform="translate(56.640625,57)" y="0" x="0" id="text-entity-SALE-693be88d-391d-5318-bfcf-d1e179018751-attr-2-name" class="er entityLabel">saleDateTime</text><rect height="22" width="21.5625" y="46" x="123.359375" class="er attributeBoxEven"/><text style="dominant-baseline: middle; font-size: 10.2px;" transform="translate(128.359375,57)" y="0" x="0" id="text-entity-SALE-693be88d-391d-5318-bfcf-d1e179018751-attr-2-key" class="er entityLabel"/><rect height="22" width="51.640625" y="68" x="0" class="er attributeBoxOdd"/><text style="dominant-baseline: middle; font-size: 10.2px;" transform="translate(5,79)" y="0" x="0" id="text-entity-SALE-693be88d-391d-5318-bfcf-d1e179018751-attr-3-type" class="er entityLabel">float</text><rect height="22" width="71.71875" y="68" x="51.640625" class="er attributeBoxOdd"/><text style="dominant-baseline: middle; font-size: 10.2px;" transform="translate(56.640625,79)" y="0" x="0" id="text-entity-SALE-693be88d-391d-5318-bfcf-d1e179018751-attr-3-name" class="er entityLabel">totalAmount</text><rect height="22" width="21.5625" y="68" x="123.359375" class="er attributeBoxOdd"/><text style="dominant-baseline: middle; font-size: 10.2px;" transform="translate(128.359375,79)" y="0" x="0" id="text-entity-SALE-693be88d-391d-5318-bfcf-d1e179018751-attr-3-key" class="er entityLabel"/></g><g transform="translate(124.9765625,422.275390625 )" id="entity-PRODUCT-b14524a1-8e20-5805-a382-423fd1ec339f"><rect height="112.36719036102295" width="128.6875" y="0" x="0" class="er entityBox"/><text style="dominant-baseline: middle; text-anchor: middle; font-size: 12px;" transform="translate(64.34375,12)" y="0" x="0" id="text-entity-PRODUCT-b14524a1-8e20-5805-a382-423fd1ec339f" class="er entityLabel">PRODUCT</text><rect height="22.091796875" width="35.75" y="24" x="0" class="er attributeBoxOdd"/><text style="dominant-baseline: middle; font-size: 10.2px;" transform="translate(5,35.0458984375)" y="0" x="0" id="text-entity-PRODUCT-b14524a1-8e20-5805-a382-423fd1ec339f-attr-1-type" class="er entityLabel">int</text><rect height="22.091796875" width="71.375" y="24" x="35.75" class="er attributeBoxOdd"/><text style="dominant-baseline: middle; font-size: 10.2px;" transform="translate(40.75,35.0458984375)" y="0" x="0" id="text-entity-PRODUCT-b14524a1-8e20-5805-a382-423fd1ec339f-attr-1-name" class="er entityLabel">productID</text><rect height="22.091796875" width="21.5625" y="24" x="107.125" class="er attributeBoxOdd"/><text style="dominant-baseline: middle; font-size: 10.2px;" transform="translate(112.125,35.0458984375)" y="0" x="0" id="text-entity-PRODUCT-b14524a1-8e20-5805-a382-423fd1ec339f-attr-1-key" class="er entityLabel">PK</text><rect height="22.091797828674316" width="35.75" y="46.091796875" x="0" class="er attributeBoxEven"/><text style="dominant-baseline: middle; font-size: 10.2px;" transform="translate(5,57.13769578933716)" y="0" x="0" id="text-entity-PRODUCT-b14524a1-8e20-5805-a382-423fd1ec339f-attr-2-type" class="er entityLabel">string</text><rect height="22.091797828674316" width="71.375" y="46.091796875" x="35.75" class="er attributeBoxEven"/><text style="dominant-baseline: middle; font-size: 10.2px;" transform="translate(40.75,57.13769578933716)" y="0" x="0" id="text-entity-PRODUCT-b14524a1-8e20-5805-a382-423fd1ec339f-attr-2-name" class="er entityLabel">productName</text><rect height="22.091797828674316" width="21.5625" y="46.091796875" x="107.125" class="er attributeBoxEven"/><text style="dominant-baseline: middle; font-size: 10.2px;" transform="translate(112.125,57.13769578933716)" y="0" x="0" id="text-entity-PRODUCT-b14524a1-8e20-5805-a382-423fd1ec339f-attr-2-key" class="er entityLabel"/><rect height="22.091797828674316" width="35.75" y="68.18359470367432" x="0" class="er attributeBoxOdd"/><text style="dominant-baseline: middle; font-size: 10.2px;" transform="translate(5,79.22949361801147)" y="0" x="0" id="text-entity-PRODUCT-b14524a1-8e20-5805-a382-423fd1ec339f-attr-3-type" class="er entityLabel">float</text><rect height="22.091797828674316" width="71.375" y="68.18359470367432" x="35.75" class="er attributeBoxOdd"/><text style="dominant-baseline: middle; font-size: 10.2px;" transform="translate(40.75,79.22949361801147)" y="0" x="0" id="text-entity-PRODUCT-b14524a1-8e20-5805-a382-423fd1ec339f-attr-3-name" class="er entityLabel">price</text><rect height="22.091797828674316" width="21.5625" y="68.18359470367432" x="107.125" class="er attributeBoxOdd"/><text style="dominant-baseline: middle; font-size: 10.2px;" transform="translate(112.125,79.22949361801147)" y="0" x="0" id="text-entity-PRODUCT-b14524a1-8e20-5805-a382-423fd1ec339f-attr-3-key" class="er entityLabel"/><rect height="22.091797828674316" width="35.75" y="90.27539253234863" x="0" class="er attributeBoxEven"/><text style="dominant-baseline: middle; font-size: 10.2px;" transform="translate(5,101.32129144668579)" y="0" x="0" id="text-entity-PRODUCT-b14524a1-8e20-5805-a382-423fd1ec339f-attr-4-type" class="er entityLabel">int</text><rect height="22.091797828674316" width="71.375" y="90.27539253234863" x="35.75" class="er attributeBoxEven"/><text style="dominant-baseline: middle; font-size: 10.2px;" transform="translate(40.75,101.32129144668579)" y="0" x="0" id="text-entity-PRODUCT-b14524a1-8e20-5805-a382-423fd1ec339f-attr-4-name" class="er entityLabel">quantity</text><rect height="22.091797828674316" width="21.5625" y="90.27539253234863" x="107.125" class="er attributeBoxEven"/><text style="dominant-baseline: middle; font-size: 10.2px;" transform="translate(112.125,101.32129144668579)" y="0" x="0" id="text-entity-PRODUCT-b14524a1-8e20-5805-a382-423fd1ec339f-attr-4-key" class="er entityLabel"/></g><g transform="translate(20,20 )" id="entity-CUSTOMER-7c659eae-ee79-5f5d-acd7-c418f8ad1d67"><rect height="112.27539348602295" width="118.671875" y="0" x="0" class="er entityBox"/><text style="dominant-baseline: middle; text-anchor: middle; font-size: 12px;" transform="translate(59.3359375,12)" y="0" x="0" id="text-entity-CUSTOMER-7c659eae-ee79-5f5d-acd7-c418f8ad1d67" class="er entityLabel">CUSTOMER</text><rect height="22" width="35.75" y="24" x="0" class="er attributeBoxOdd"/><text style="dominant-baseline: middle; font-size: 10.2px;" transform="translate(5,35)" y="0" x="0" id="text-entity-CUSTOMER-7c659eae-ee79-5f5d-acd7-c418f8ad1d67-attr-1-type" class="er entityLabel">int</text><rect height="22" width="61.359375" y="24" x="35.75" class="er attributeBoxOdd"/><text style="dominant-baseline: middle; font-size: 10.2px;" transform="translate(40.75,35)" y="0" x="0" id="text-entity-CUSTOMER-7c659eae-ee79-5f5d-acd7-c418f8ad1d67-attr-1-name" class="er entityLabel">customerID</text><rect height="22" width="21.5625" y="24" x="97.109375" class="er attributeBoxOdd"/><text style="dominant-baseline: middle; font-size: 10.2px;" transform="translate(102.109375,35)" y="0" x="0" id="text-entity-CUSTOMER-7c659eae-ee79-5f5d-acd7-c418f8ad1d67-attr-1-key" class="er entityLabel">PK</text><rect height="22.091797828674316" width="35.75" y="46" x="0" class="er attributeBoxEven"/><text style="dominant-baseline: middle; font-size: 10.2px;" transform="translate(5,57.04589891433716)" y="0" x="0" id="text-entity-CUSTOMER-7c659eae-ee79-5f5d-acd7-c418f8ad1d67-attr-2-type" class="er entityLabel">string</text><rect height="22.091797828674316" width="61.359375" y="46" x="35.75" class="er attributeBoxEven"/><text style="dominant-baseline: middle; font-size: 10.2px;" transform="translate(40.75,57.04589891433716)" y="0" x="0" id="text-entity-CUSTOMER-7c659eae-ee79-5f5d-acd7-c418f8ad1d67-attr-2-name" class="er entityLabel">name</text><rect height="22.091797828674316" width="21.5625" y="46" x="97.109375" class="er attributeBoxEven"/><text style="dominant-baseline: middle; font-size: 10.2px;" transform="translate(102.109375,57.04589891433716)" y="0" x="0" id="text-entity-CUSTOMER-7c659eae-ee79-5f5d-acd7-c418f8ad1d67-attr-2-key" class="er entityLabel"/><rect height="22.091797828674316" width="35.75" y="68.09179782867432" x="0" class="er attributeBoxOdd"/><text style="dominant-baseline: middle; font-size: 10.2px;" transform="translate(5,79.13769674301147)" y="0" x="0" id="text-entity-CUSTOMER-7c659eae-ee79-5f5d-acd7-c418f8ad1d67-attr-3-type" class="er entityLabel">string</text><rect height="22.091797828674316" width="61.359375" y="68.09179782867432" x="35.75" class="er attributeBoxOdd"/><text style="dominant-baseline: middle; font-size: 10.2px;" transform="translate(40.75,79.13769674301147)" y="0" x="0" id="text-entity-CUSTOMER-7c659eae-ee79-5f5d-acd7-c418f8ad1d67-attr-3-name" class="er entityLabel">email</text><rect height="22.091797828674316" width="21.5625" y="68.09179782867432" x="97.109375" class="er attributeBoxOdd"/><text style="dominant-baseline: middle; font-size: 10.2px;" transform="translate(102.109375,79.13769674301147)" y="0" x="0" id="text-entity-CUSTOMER-7c659eae-ee79-5f5d-acd7-c418f8ad1d67-attr-3-key" class="er entityLabel"/><rect height="22.091797828674316" width="35.75" y="90.18359565734863" x="0" class="er attributeBoxEven"/><text style="dominant-baseline: middle; font-size: 10.2px;" transform="translate(5,101.22949457168579)" y="0" x="0" id="text-entity-CUSTOMER-7c659eae-ee79-5f5d-acd7-c418f8ad1d67-attr-4-type" class="er entityLabel">string</text><rect height="22.091797828674316" width="61.359375" y="90.18359565734863" x="35.75" class="er attributeBoxEven"/><text style="dominant-baseline: middle; font-size: 10.2px;" transform="translate(40.75,101.22949457168579)" y="0" x="0" id="text-entity-CUSTOMER-7c659eae-ee79-5f5d-acd7-c418f8ad1d67-attr-4-name" class="er entityLabel">address</text><rect height="22.091797828674316" width="21.5625" y="90.18359565734863" x="97.109375" class="er attributeBoxEven"/><text style="dominant-baseline: middle; font-size: 10.2px;" transform="translate(102.109375,101.22949457168579)" y="0" x="0" id="text-entity-CUSTOMER-7c659eae-ee79-5f5d-acd7-c418f8ad1d67-attr-4-key" class="er entityLabel"/></g><g transform="translate(238.671875,31 )" id="entity-EMPLOYEE-fcaaba41-0847-5740-91ce-65189257a19b"><rect height="90.27539253234863" width="121.265625" y="0" x="0" class="er entityBox"/><text style="dominant-baseline: middle; text-anchor: middle; font-size: 12px;" transform="translate(60.6328125,12)" y="0" x="0" id="text-entity-EMPLOYEE-fcaaba41-0847-5740-91ce-65189257a19b" class="er entityLabel">EMPLOYEE</text><rect height="22.091796875" width="35.75" y="24" x="0" class="er attributeBoxOdd"/><text style="dominant-baseline: middle; font-size: 10.2px;" transform="translate(5,35.0458984375)" y="0" x="0" id="text-entity-EMPLOYEE-fcaaba41-0847-5740-91ce-65189257a19b-attr-1-type" class="er entityLabel">int</text><rect height="22.091796875" width="63.953125" y="24" x="35.75" class="er attributeBoxOdd"/><text style="dominant-baseline: middle; font-size: 10.2px;" transform="translate(40.75,35.0458984375)" y="0" x="0" id="text-entity-EMPLOYEE-fcaaba41-0847-5740-91ce-65189257a19b-attr-1-name" class="er entityLabel">employeeID</text><rect height="22.091796875" width="21.5625" y="24" x="99.703125" class="er attributeBoxOdd"/><text style="dominant-baseline: middle; font-size: 10.2px;" transform="translate(104.703125,35.0458984375)" y="0" x="0" id="text-entity-EMPLOYEE-fcaaba41-0847-5740-91ce-65189257a19b-attr-1-key" class="er entityLabel">PK</text><rect height="22.091797828674316" width="35.75" y="46.091796875" x="0" class="er attributeBoxEven"/><text style="dominant-baseline: middle; font-size: 10.2px;" transform="translate(5,57.13769578933716)" y="0" x="0" id="text-entity-EMPLOYEE-fcaaba41-0847-5740-91ce-65189257a19b-attr-2-type" class="er entityLabel">string</text><rect height="22.091797828674316" width="63.953125" y="46.091796875" x="35.75" class="er attributeBoxEven"/><text style="dominant-baseline: middle; font-size: 10.2px;" transform="translate(40.75,57.13769578933716)" y="0" x="0" id="text-entity-EMPLOYEE-fcaaba41-0847-5740-91ce-65189257a19b-attr-2-name" class="er entityLabel">name</text><rect height="22.091797828674316" width="21.5625" y="46.091796875" x="99.703125" class="er attributeBoxEven"/><text style="dominant-baseline: middle; font-size: 10.2px;" transform="translate(104.703125,57.13769578933716)" y="0" x="0" id="text-entity-EMPLOYEE-fcaaba41-0847-5740-91ce-65189257a19b-attr-2-key" class="er entityLabel"/><rect height="22.091797828674316" width="35.75" y="68.18359470367432" x="0" class="er attributeBoxOdd"/><text style="dominant-baseline: middle; font-size: 10.2px;" transform="translate(5,79.22949361801147)" y="0" x="0" id="text-entity-EMPLOYEE-fcaaba41-0847-5740-91ce-65189257a19b-attr-3-type" class="er entityLabel">string</text><rect height="22.091797828674316" width="63.953125" y="68.18359470367432" x="35.75" class="er attributeBoxOdd"/><text style="dominant-baseline: middle; font-size: 10.2px;" transform="translate(40.75,79.22949361801147)" y="0" x="0" id="text-entity-EMPLOYEE-fcaaba41-0847-5740-91ce-65189257a19b-attr-3-name" class="er entityLabel">department</text><rect height="22.091797828674316" width="21.5625" y="68.18359470367432" x="99.703125" class="er attributeBoxOdd"/><text style="dominant-baseline: middle; font-size: 10.2px;" transform="translate(104.703125,79.22949361801147)" y="0" x="0" id="text-entity-EMPLOYEE-fcaaba41-0847-5740-91ce-65189257a19b-attr-3-key" class="er entityLabel"/></g><rect height="14" width="44.109375" y="365.2749938964844" x="167.26531982421875" class="er relationshipLabelBox"/><text style="text-anchor: middle; dominant-baseline: middle; font-size: 12px;" y="372.2749938964844" x="189.32000732421875" id="rel1" class="er relationshipLabel">includes</text><rect height="14" width="33.734375" y="182.83995056152344" x="77.11285400390625" class="er relationshipLabelBox"/><text style="text-anchor: middle; dominant-baseline: middle; font-size: 12px;" y="189.83995056152344" x="93.98004150390625" id="rel2" class="er relationshipLabel">makes</text><rect height="14" width="39.796875" y="178.05543518066406" x="267.1377868652344" class="er relationshipLabelBox"/><text style="text-anchor: middle; dominant-baseline: middle; font-size: 12px;" y="185.05543518066406" x="287.0362243652344" id="rel3" class="er relationshipLabel">records</text></svg>