<svg aria-roledescription="er" role="graphics-document document" viewBox="0 0 351.546875 488.55078125" style="max-width: 351.547px; background-color: white;" xmlns:xlink="http://www.w3.org/1999/xlink" xmlns="http://www.w3.org/2000/svg" width="100%" id="my-svg"><style>#my-svg{font-family:"trebuchet ms",verdana,arial,sans-serif;font-size:16px;fill:#333;}#my-svg .error-icon{fill:#552222;}#my-svg .error-text{fill:#552222;stroke:#552222;}#my-svg .edge-thickness-normal{stroke-width:1px;}#my-svg .edge-thickness-thick{stroke-width:3.5px;}#my-svg .edge-pattern-solid{stroke-dasharray:0;}#my-svg .edge-thickness-invisible{stroke-width:0;fill:none;}#my-svg .edge-pattern-dashed{stroke-dasharray:3;}#my-svg .edge-pattern-dotted{stroke-dasharray:2;}#my-svg .marker{fill:#333333;stroke:#333333;}#my-svg .marker.cross{stroke:#333333;}#my-svg svg{font-family:"trebuchet ms",verdana,arial,sans-serif;font-size:16px;}#my-svg p{margin:0;}#my-svg .entityBox{fill:#ECECFF;stroke:#9370DB;}#my-svg .attributeBoxOdd{fill:#ffffff;stroke:#9370DB;}#my-svg .attributeBoxEven{fill:#f2f2f2;stroke:#9370DB;}#my-svg .relationshipLabelBox{fill:hsl(80, 100%, 96.2745098039%);opacity:0.7;background-color:hsl(80, 100%, 96.2745098039%);}#my-svg .relationshipLabelBox rect{opacity:0.5;}#my-svg .relationshipLine{stroke:#333333;}#my-svg .entityTitleText{text-anchor:middle;font-size:18px;fill:#333;}#my-svg #MD_PARENT_START{fill:#f5f5f5!important;stroke:#333333!important;stroke-width:1;}#my-svg #MD_PARENT_END{fill:#f5f5f5!important;stroke:#333333!important;stroke-width:1;}#my-svg :root{--mermaid-font-family:"trebuchet ms",verdana,arial,sans-serif;}</style><g/><defs><marker orient="auto" markerHeight="240" markerWidth="190" refY="7" refX="0" id="MD_PARENT_START"><path d="M 18,7 L9,13 L1,7 L9,1 Z"/></marker></defs><defs><marker orient="auto" markerHeight="28" markerWidth="20" refY="7" refX="19" id="MD_PARENT_END"><path d="M 18,7 L9,13 L1,7 L9,1 Z"/></marker></defs><defs><marker orient="auto" markerHeight="18" markerWidth="18" refY="9" refX="0" id="ONLY_ONE_START"><path d="M9,0 L9,18 M15,0 L15,18" fill="none" stroke="gray"/></marker></defs><defs><marker orient="auto" markerHeight="18" markerWidth="18" refY="9" refX="18" id="ONLY_ONE_END"><path d="M3,0 L3,18 M9,0 L9,18" fill="none" stroke="gray"/></marker></defs><defs><marker orient="auto" markerHeight="18" markerWidth="30" refY="9" refX="0" id="ZERO_OR_ONE_START"><circle r="6" cy="9" cx="21" fill="white" stroke="gray"/><path d="M9,0 L9,18" fill="none" stroke="gray"/></marker></defs><defs><marker orient="auto" markerHeight="18" markerWidth="30" refY="9" refX="30" id="ZERO_OR_ONE_END"><circle r="6" cy="9" cx="9" fill="white" stroke="gray"/><path d="M21,0 L21,18" fill="none" stroke="gray"/></marker></defs><defs><marker orient="auto" markerHeight="36" markerWidth="45" refY="18" refX="18" id="ONE_OR_MORE_START"><path d="M0,18 Q 18,0 36,18 Q 18,36 0,18 M42,9 L42,27" fill="none" stroke="gray"/></marker></defs><defs><marker orient="auto" markerHeight="36" markerWidth="45" refY="18" refX="27" id="ONE_OR_MORE_END"><path d="M3,9 L3,27 M9,18 Q27,0 45,18 Q27,36 9,18" fill="none" stroke="gray"/></marker></defs><defs><marker orient="auto" markerHeight="36" markerWidth="57" refY="18" refX="18" id="ZERO_OR_MORE_START"><circle r="6" cy="18" cx="48" fill="white" stroke="gray"/><path d="M0,18 Q18,0 36,18 Q18,36 0,18" fill="none" stroke="gray"/></marker></defs><defs><marker orient="auto" markerHeight="36" markerWidth="57" refY="18" refX="39" id="ZERO_OR_MORE_END"><circle r="6" cy="18" cx="9" fill="white" stroke="gray"/><path d="M21,18 Q39,0 57,18 Q39,36 21,18" fill="none" stroke="gray"/></marker></defs><path style="stroke: gray; fill: none;" marker-start="url(#ONLY_ONE_START)" marker-end="url(#ZERO_OR_MORE_END)" d="M70,110.184L70,118.517C70,126.85,70,143.517,70,162.04C70,180.563,70,200.942,70,211.132L70,221.321" class="er relationshipLine"/><path style="stroke: gray; fill: none;" marker-start="url(#ONLY_ONE_START)" marker-end="url(#ONE_OR_MORE_END)" d="M70,289.321L70,299.511C70,309.701,70,330.08,80.201,348.603C90.403,367.126,110.806,383.792,121.007,392.126L131.209,400.459" class="er relationshipLine"/><path style="stroke: gray; fill: none;" marker-start="url(#ONLY_ONE_START)" marker-end="url(#ZERO_OR_MORE_END)" d="M275.773,300.459L275.773,308.792C275.773,317.126,275.773,333.792,265.572,350.459C255.371,367.126,234.968,383.792,224.766,392.126L214.565,400.459" class="er relationshipLine"/><g transform="translate(20,20 )" id="entity-CUSTOMER-7c659eae-ee79-5f5d-acd7-c418f8ad1d67"><rect height="90.18359565734863" width="100" y="0" x="0" class="er entityBox"/><text style="dominant-baseline: middle; text-anchor: middle; font-size: 12px;" transform="translate(50,12)" y="0" x="0" id="text-entity-CUSTOMER-7c659eae-ee79-5f5d-acd7-c418f8ad1d67" class="er entityLabel">CUSTOMER</text><rect height="22" width="50.21875" y="24" x="0" class="er attributeBoxOdd"/><text style="dominant-baseline: middle; font-size: 10.2px;" transform="translate(5,35)" y="0" x="0" id="text-entity-CUSTOMER-7c659eae-ee79-5f5d-acd7-c418f8ad1d67-attr-1-type" class="er entityLabel">int</text><rect height="22" width="49.78125" y="24" x="50.21875" class="er attributeBoxOdd"/><text style="dominant-baseline: middle; font-size: 10.2px;" transform="translate(55.21875,35)" y="0" x="0" id="text-entity-CUSTOMER-7c659eae-ee79-5f5d-acd7-c418f8ad1d67-attr-1-name" class="er entityLabel">id</text><rect height="22.091797828674316" width="50.21875" y="46" x="0" class="er attributeBoxEven"/><text style="dominant-baseline: middle; font-size: 10.2px;" transform="translate(5,57.04589891433716)" y="0" x="0" id="text-entity-CUSTOMER-7c659eae-ee79-5f5d-acd7-c418f8ad1d67-attr-2-type" class="er entityLabel">string</text><rect height="22.091797828674316" width="49.78125" y="46" x="50.21875" class="er attributeBoxEven"/><text style="dominant-baseline: middle; font-size: 10.2px;" transform="translate(55.21875,57.04589891433716)" y="0" x="0" id="text-entity-CUSTOMER-7c659eae-ee79-5f5d-acd7-c418f8ad1d67-attr-2-name" class="er entityLabel">name</text><rect height="22.091797828674316" width="50.21875" y="68.09179782867432" x="0" class="er attributeBoxOdd"/><text style="dominant-baseline: middle; font-size: 10.2px;" transform="translate(5,79.13769674301147)" y="0" x="0" id="text-entity-CUSTOMER-7c659eae-ee79-5f5d-acd7-c418f8ad1d67-attr-3-type" class="er entityLabel">string</text><rect height="22.091797828674316" width="49.78125" y="68.09179782867432" x="50.21875" class="er attributeBoxOdd"/><text style="dominant-baseline: middle; font-size: 10.2px;" transform="translate(55.21875,79.13769674301147)" y="0" x="0" id="text-entity-CUSTOMER-7c659eae-ee79-5f5d-acd7-c418f8ad1d67-attr-3-name" class="er entityLabel">email</text></g><g transform="translate(20,221.3212890625 )" id="entity-ORDER-36941e20-eb1d-50a3-81c5-00079b43c24a"><rect height="68" width="100" y="0" x="0" class="er entityBox"/><text style="dominant-baseline: middle; text-anchor: middle; font-size: 12px;" transform="translate(50,12)" y="0" x="0" id="text-entity-ORDER-36941e20-eb1d-50a3-81c5-00079b43c24a" class="er entityLabel">ORDER</text><rect height="22" width="35" y="24" x="0" class="er attributeBoxOdd"/><text style="dominant-baseline: middle; font-size: 10.2px;" transform="translate(5,35)" y="0" x="0" id="text-entity-ORDER-36941e20-eb1d-50a3-81c5-00079b43c24a-attr-1-type" class="er entityLabel">int</text><rect height="22" width="65" y="24" x="35" class="er attributeBoxOdd"/><text style="dominant-baseline: middle; font-size: 10.2px;" transform="translate(40,35)" y="0" x="0" id="text-entity-ORDER-36941e20-eb1d-50a3-81c5-00079b43c24a-attr-1-name" class="er entityLabel">order_id</text><rect height="22" width="35" y="46" x="0" class="er attributeBoxEven"/><text style="dominant-baseline: middle; font-size: 10.2px;" transform="translate(5,57)" y="0" x="0" id="text-entity-ORDER-36941e20-eb1d-50a3-81c5-00079b43c24a-attr-2-type" class="er entityLabel">date</text><rect height="22" width="65" y="46" x="35" class="er attributeBoxEven"/><text style="dominant-baseline: middle; font-size: 10.2px;" transform="translate(40,57)" y="0" x="0" id="text-entity-ORDER-36941e20-eb1d-50a3-81c5-00079b43c24a-attr-2-name" class="er entityLabel">order_date</text></g><g transform="translate(122.88671875,400.458984375 )" id="entity-LINEITEM-e64ed672-8903-5ccc-ba58-38999100fbd7"><rect height="68.09179782867432" width="100" y="0" x="0" class="er entityBox"/><text style="dominant-baseline: middle; text-anchor: middle; font-size: 12px;" transform="translate(50,12)" y="0" x="0" id="text-entity-LINEITEM-e64ed672-8903-5ccc-ba58-38999100fbd7" class="er entityLabel">LINE-ITEM</text><rect height="22" width="27.6015625" y="24" x="0" class="er attributeBoxOdd"/><text style="dominant-baseline: middle; font-size: 10.2px;" transform="translate(5,35)" y="0" x="0" id="text-entity-LINEITEM-e64ed672-8903-5ccc-ba58-38999100fbd7-attr-1-type" class="er entityLabel">int</text><rect height="22" width="72.3984375" y="24" x="27.6015625" class="er attributeBoxOdd"/><text style="dominant-baseline: middle; font-size: 10.2px;" transform="translate(32.6015625,35)" y="0" x="0" id="text-entity-LINEITEM-e64ed672-8903-5ccc-ba58-38999100fbd7-attr-1-name" class="er entityLabel">line_item_id</text><rect height="22.091797828674316" width="27.6015625" y="46" x="0" class="er attributeBoxEven"/><text style="dominant-baseline: middle; font-size: 10.2px;" transform="translate(5,57.04589891433716)" y="0" x="0" id="text-entity-LINEITEM-e64ed672-8903-5ccc-ba58-38999100fbd7-attr-2-type" class="er entityLabel">int</text><rect height="22.091797828674316" width="72.3984375" y="46" x="27.6015625" class="er attributeBoxEven"/><text style="dominant-baseline: middle; font-size: 10.2px;" transform="translate(32.6015625,57.04589891433716)" y="0" x="0" id="text-entity-LINEITEM-e64ed672-8903-5ccc-ba58-38999100fbd7-attr-2-name" class="er entityLabel">quantity</text></g><g transform="translate(220,210.18359375 )" id="entity-PRODUCT-b14524a1-8e20-5805-a382-423fd1ec339f"><rect height="90.27539253234863" width="111.546875" y="0" x="0" class="er entityBox"/><text style="dominant-baseline: middle; text-anchor: middle; font-size: 12px;" transform="translate(55.7734375,12)" y="0" x="0" id="text-entity-PRODUCT-b14524a1-8e20-5805-a382-423fd1ec339f" class="er entityLabel">PRODUCT</text><rect height="22.091796875" width="35.75" y="24" x="0" class="er attributeBoxOdd"/><text style="dominant-baseline: middle; font-size: 10.2px;" transform="translate(5,35.0458984375)" y="0" x="0" id="text-entity-PRODUCT-b14524a1-8e20-5805-a382-423fd1ec339f-attr-1-type" class="er entityLabel">int</text><rect height="22.091796875" width="75.796875" y="24" x="35.75" class="er attributeBoxOdd"/><text style="dominant-baseline: middle; font-size: 10.2px;" transform="translate(40.75,35.0458984375)" y="0" x="0" id="text-entity-PRODUCT-b14524a1-8e20-5805-a382-423fd1ec339f-attr-1-name" class="er entityLabel">product_id</text><rect height="22.091797828674316" width="35.75" y="46.091796875" x="0" class="er attributeBoxEven"/><text style="dominant-baseline: middle; font-size: 10.2px;" transform="translate(5,57.13769578933716)" y="0" x="0" id="text-entity-PRODUCT-b14524a1-8e20-5805-a382-423fd1ec339f-attr-2-type" class="er entityLabel">string</text><rect height="22.091797828674316" width="75.796875" y="46.091796875" x="35.75" class="er attributeBoxEven"/><text style="dominant-baseline: middle; font-size: 10.2px;" transform="translate(40.75,57.13769578933716)" y="0" x="0" id="text-entity-PRODUCT-b14524a1-8e20-5805-a382-423fd1ec339f-attr-2-name" class="er entityLabel">product_name</text><rect height="22.091797828674316" width="35.75" y="68.18359470367432" x="0" class="er attributeBoxOdd"/><text style="dominant-baseline: middle; font-size: 10.2px;" transform="translate(5,79.22949361801147)" y="0" x="0" id="text-entity-PRODUCT-b14524a1-8e20-5805-a382-423fd1ec339f-attr-3-type" class="er entityLabel">float</text><rect height="22.091797828674316" width="75.796875" y="68.18359470367432" x="35.75" class="er attributeBoxOdd"/><text style="dominant-baseline: middle; font-size: 10.2px;" transform="translate(40.75,79.22949361801147)" y="0" x="0" id="text-entity-PRODUCT-b14524a1-8e20-5805-a382-423fd1ec339f-attr-3-name" class="er entityLabel">price</text></g><rect height="14" width="33.875" y="158.75250244140625" x="53.0625" class="er relationshipLabelBox"/><text style="text-anchor: middle; dominant-baseline: middle; font-size: 12px;" y="165.75250244140625" x="70" id="rel1" class="er relationshipLabel">places</text><rect height="14" width="44.84375" y="346.8532409667969" x="60.963539123535156" class="er relationshipLabelBox"/><text style="text-anchor: middle; dominant-baseline: middle; font-size: 12px;" y="353.8532409667969" x="83.38541412353516" id="rel2" class="er relationshipLabel">contains</text><rect height="14" width="60.65625" y="351.59539794921875" x="229.512939453125" class="er relationshipLabelBox"/><text style="text-anchor: middle; dominant-baseline: middle; font-size: 12px;" y="358.59539794921875" x="259.841064453125" id="rel3" class="er relationshipLabel">is_listed_in</text></svg>