<svg aria-roledescription="er" role="graphics-document document" viewBox="0 0 185.140625 474.826171875" style="max-width: 185.141px; background-color: white;" xmlns:xlink="http://www.w3.org/1999/xlink" xmlns="http://www.w3.org/2000/svg" width="100%" id="my-svg"><style>#my-svg{font-family:"trebuchet ms",verdana,arial,sans-serif;font-size:16px;fill:#333;}#my-svg .error-icon{fill:#552222;}#my-svg .error-text{fill:#552222;stroke:#552222;}#my-svg .edge-thickness-normal{stroke-width:1px;}#my-svg .edge-thickness-thick{stroke-width:3.5px;}#my-svg .edge-pattern-solid{stroke-dasharray:0;}#my-svg .edge-thickness-invisible{stroke-width:0;fill:none;}#my-svg .edge-pattern-dashed{stroke-dasharray:3;}#my-svg .edge-pattern-dotted{stroke-dasharray:2;}#my-svg .marker{fill:#333333;stroke:#333333;}#my-svg .marker.cross{stroke:#333333;}#my-svg svg{font-family:"trebuchet ms",verdana,arial,sans-serif;font-size:16px;}#my-svg p{margin:0;}#my-svg .entityBox{fill:#ECECFF;stroke:#9370DB;}#my-svg .attributeBoxOdd{fill:#ffffff;stroke:#9370DB;}#my-svg .attributeBoxEven{fill:#f2f2f2;stroke:#9370DB;}#my-svg .relationshipLabelBox{fill:hsl(80, 100%, 96.2745098039%);opacity:0.7;background-color:hsl(80, 100%, 96.2745098039%);}#my-svg .relationshipLabelBox rect{opacity:0.5;}#my-svg .relationshipLine{stroke:#333333;}#my-svg .entityTitleText{text-anchor:middle;font-size:18px;fill:#333;}#my-svg #MD_PARENT_START{fill:#f5f5f5!important;stroke:#333333!important;stroke-width:1;}#my-svg #MD_PARENT_END{fill:#f5f5f5!important;stroke:#333333!important;stroke-width:1;}#my-svg :root{--mermaid-font-family:"trebuchet ms",verdana,arial,sans-serif;}</style><g/><defs><marker orient="auto" markerHeight="240" markerWidth="190" refY="7" refX="0" id="MD_PARENT_START"><path d="M 18,7 L9,13 L1,7 L9,1 Z"/></marker></defs><defs><marker orient="auto" markerHeight="28" markerWidth="20" refY="7" refX="19" id="MD_PARENT_END"><path d="M 18,7 L9,13 L1,7 L9,1 Z"/></marker></defs><defs><marker orient="auto" markerHeight="18" markerWidth="18" refY="9" refX="0" id="ONLY_ONE_START"><path d="M9,0 L9,18 M15,0 L15,18" fill="none" stroke="gray"/></marker></defs><defs><marker orient="auto" markerHeight="18" markerWidth="18" refY="9" refX="18" id="ONLY_ONE_END"><path d="M3,0 L3,18 M9,0 L9,18" fill="none" stroke="gray"/></marker></defs><defs><marker orient="auto" markerHeight="18" markerWidth="30" refY="9" refX="0" id="ZERO_OR_ONE_START"><circle r="6" cy="9" cx="21" fill="white" stroke="gray"/><path d="M9,0 L9,18" fill="none" stroke="gray"/></marker></defs><defs><marker orient="auto" markerHeight="18" markerWidth="30" refY="9" refX="30" id="ZERO_OR_ONE_END"><circle r="6" cy="9" cx="9" fill="white" stroke="gray"/><path d="M21,0 L21,18" fill="none" stroke="gray"/></marker></defs><defs><marker orient="auto" markerHeight="36" markerWidth="45" refY="18" refX="18" id="ONE_OR_MORE_START"><path d="M0,18 Q 18,0 36,18 Q 18,36 0,18 M42,9 L42,27" fill="none" stroke="gray"/></marker></defs><defs><marker orient="auto" markerHeight="36" markerWidth="45" refY="18" refX="27" id="ONE_OR_MORE_END"><path d="M3,9 L3,27 M9,18 Q27,0 45,18 Q27,36 9,18" fill="none" stroke="gray"/></marker></defs><defs><marker orient="auto" markerHeight="36" markerWidth="57" refY="18" refX="18" id="ZERO_OR_MORE_START"><circle r="6" cy="18" cx="48" fill="white" stroke="gray"/><path d="M0,18 Q18,0 36,18 Q18,36 0,18" fill="none" stroke="gray"/></marker></defs><defs><marker orient="auto" markerHeight="36" markerWidth="57" refY="18" refX="39" id="ZERO_OR_MORE_END"><circle r="6" cy="18" cx="9" fill="white" stroke="gray"/><path d="M21,18 Q39,0 57,18 Q39,36 21,18" fill="none" stroke="gray"/></marker></defs><path style="stroke: gray; fill: none;" marker-start="url(#ONLY_ONE_START)" marker-end="url(#ZERO_OR_ONE_END)" d="M92.57,88.092L92.57,96.425C92.57,104.758,92.57,121.425,92.57,138.092C92.57,154.758,92.57,171.425,92.57,179.758L92.57,188.092" class="er relationshipLine"/><g transform="translate(42.5703125,20 )" id="entity-Container-bc34fb32-8a75-5b81-936b-92374bf40296"><rect height="68.09179782867432" width="100" y="0" x="0" class="er entityBox"/><text style="dominant-baseline: middle; text-anchor: middle; font-size: 12px;" transform="translate(50,12)" y="0" x="0" id="text-entity-Container-bc34fb32-8a75-5b81-936b-92374bf40296" class="er entityLabel">Container</text><rect height="22" width="62.25" y="24" x="0" class="er attributeBoxOdd"/><text style="dominant-baseline: middle; font-size: 10.2px;" transform="translate(5,35)" y="0" x="0" id="text-entity-Container-bc34fb32-8a75-5b81-936b-92374bf40296-attr-1-type" class="er entityLabel">uriorcurie</text><rect height="22" width="37.75" y="24" x="62.25" class="er attributeBoxOdd"/><text style="dominant-baseline: middle; font-size: 10.2px;" transform="translate(67.25,35)" y="0" x="0" id="text-entity-Container-bc34fb32-8a75-5b81-936b-92374bf40296-attr-1-name" class="er entityLabel">iri</text><rect height="22.091797828674316" width="62.25" y="46" x="0" class="er attributeBoxEven"/><text style="dominant-baseline: middle; font-size: 10.2px;" transform="translate(5,57.04589891433716)" y="0" x="0" id="text-entity-Container-bc34fb32-8a75-5b81-936b-92374bf40296-attr-2-type" class="er entityLabel">stringList</text><rect height="22.091797828674316" width="37.75" y="46" x="62.25" class="er attributeBoxEven"/><text style="dominant-baseline: middle; font-size: 10.2px;" transform="translate(67.25,57.04589891433716)" y="0" x="0" id="text-entity-Container-bc34fb32-8a75-5b81-936b-92374bf40296-attr-2-name" class="er entityLabel">data</text></g><g transform="translate(20,188.091796875 )" id="entity-CollectionMetadata-8d6760eb-00a2-52a2-a48d-b9b9e21e8a79"><rect height="266.7343807220459" width="145.140625" y="0" x="0" class="er entityBox"/><text style="dominant-baseline: middle; text-anchor: middle; font-size: 12px;" transform="translate(72.5703125,12)" y="0" x="0" id="text-entity-CollectionMetadata-8d6760eb-00a2-52a2-a48d-b9b9e21e8a79" class="er entityLabel">CollectionMetadata</text><rect height="22.091797828674316" width="71.203125" y="24" x="0" class="er attributeBoxOdd"/><text style="dominant-baseline: middle; font-size: 10.2px;" transform="translate(5,35.04589891433716)" y="0" x="0" id="text-entity-CollectionMetadata-8d6760eb-00a2-52a2-a48d-b9b9e21e8a79-attr-1-type" class="er entityLabel">string</text><rect height="22.091797828674316" width="73.9375" y="24" x="71.203125" class="er attributeBoxOdd"/><text style="dominant-baseline: middle; font-size: 10.2px;" transform="translate(76.203125,35.04589891433716)" y="0" x="0" id="text-entity-CollectionMetadata-8d6760eb-00a2-52a2-a48d-b9b9e21e8a79-attr-1-name" class="er entityLabel">title</text><rect height="22.091797828674316" width="71.203125" y="46.091797828674316" x="0" class="er attributeBoxEven"/><text style="dominant-baseline: middle; font-size: 10.2px;" transform="translate(5,57.137696743011475)" y="0" x="0" id="text-entity-CollectionMetadata-8d6760eb-00a2-52a2-a48d-b9b9e21e8a79-attr-2-type" class="er entityLabel">string</text><rect height="22.091797828674316" width="73.9375" y="46.091797828674316" x="71.203125" class="er attributeBoxEven"/><text style="dominant-baseline: middle; font-size: 10.2px;" transform="translate(76.203125,57.137696743011475)" y="0" x="0" id="text-entity-CollectionMetadata-8d6760eb-00a2-52a2-a48d-b9b9e21e8a79-attr-2-name" class="er entityLabel">description</text><rect height="22.091796875" width="71.203125" y="68.18359565734863" x="0" class="er attributeBoxOdd"/><text style="dominant-baseline: middle; font-size: 10.2px;" transform="translate(5,79.22949409484863)" y="0" x="0" id="text-entity-CollectionMetadata-8d6760eb-00a2-52a2-a48d-b9b9e21e8a79-attr-3-type" class="er entityLabel">uriorcurieList</text><rect height="22.091796875" width="73.9375" y="68.18359565734863" x="71.203125" class="er attributeBoxOdd"/><text style="dominant-baseline: middle; font-size: 10.2px;" transform="translate(76.203125,79.22949409484863)" y="0" x="0" id="text-entity-CollectionMetadata-8d6760eb-00a2-52a2-a48d-b9b9e21e8a79-attr-3-name" class="er entityLabel">created_by</text><rect height="22.091797828674316" width="71.203125" y="90.27539253234863" x="0" class="er attributeBoxEven"/><text style="dominant-baseline: middle; font-size: 10.2px;" transform="translate(5,101.32129144668579)" y="0" x="0" id="text-entity-CollectionMetadata-8d6760eb-00a2-52a2-a48d-b9b9e21e8a79-attr-4-type" class="er entityLabel">string</text><rect height="22.091797828674316" width="73.9375" y="90.27539253234863" x="71.203125" class="er attributeBoxEven"/><text style="dominant-baseline: middle; font-size: 10.2px;" transform="translate(76.203125,101.32129144668579)" y="0" x="0" id="text-entity-CollectionMetadata-8d6760eb-00a2-52a2-a48d-b9b9e21e8a79-attr-4-name" class="er entityLabel">version</text><rect height="22.091797828674316" width="71.203125" y="112.36719036102295" x="0" class="er attributeBoxOdd"/><text style="dominant-baseline: middle; font-size: 10.2px;" transform="translate(5,123.41308927536011)" y="0" x="0" id="text-entity-CollectionMetadata-8d6760eb-00a2-52a2-a48d-b9b9e21e8a79-attr-5-type" class="er entityLabel">string</text><rect height="22.091797828674316" width="73.9375" y="112.36719036102295" x="71.203125" class="er attributeBoxOdd"/><text style="dominant-baseline: middle; font-size: 10.2px;" transform="translate(76.203125,123.41308927536011)" y="0" x="0" id="text-entity-CollectionMetadata-8d6760eb-00a2-52a2-a48d-b9b9e21e8a79-attr-5-name" class="er entityLabel">creation_date</text><rect height="22.091797828674316" width="71.203125" y="134.45898818969727" x="0" class="er attributeBoxEven"/><text style="dominant-baseline: middle; font-size: 10.2px;" transform="translate(5,145.50488710403442)" y="0" x="0" id="text-entity-CollectionMetadata-8d6760eb-00a2-52a2-a48d-b9b9e21e8a79-attr-6-type" class="er entityLabel">string</text><rect height="22.091797828674316" width="73.9375" y="134.45898818969727" x="71.203125" class="er attributeBoxEven"/><text style="dominant-baseline: middle; font-size: 10.2px;" transform="translate(76.203125,145.50488710403442)" y="0" x="0" id="text-entity-CollectionMetadata-8d6760eb-00a2-52a2-a48d-b9b9e21e8a79-attr-6-name" class="er entityLabel">license</text><rect height="22.091797828674316" width="71.203125" y="156.55078601837158" x="0" class="er attributeBoxOdd"/><text style="dominant-baseline: middle; font-size: 10.2px;" transform="translate(5,167.59668493270874)" y="0" x="0" id="text-entity-CollectionMetadata-8d6760eb-00a2-52a2-a48d-b9b9e21e8a79-attr-7-type" class="er entityLabel">string</text><rect height="22.091797828674316" width="73.9375" y="156.55078601837158" x="71.203125" class="er attributeBoxOdd"/><text style="dominant-baseline: middle; font-size: 10.2px;" transform="translate(76.203125,167.59668493270874)" y="0" x="0" id="text-entity-CollectionMetadata-8d6760eb-00a2-52a2-a48d-b9b9e21e8a79-attr-7-name" class="er entityLabel">publisher</text><rect height="22" width="71.203125" y="178.6425838470459" x="0" class="er attributeBoxEven"/><text style="dominant-baseline: middle; font-size: 10.2px;" transform="translate(5,189.6425838470459)" y="0" x="0" id="text-entity-CollectionMetadata-8d6760eb-00a2-52a2-a48d-b9b9e21e8a79-attr-8-type" class="er entityLabel">uriorcurie</text><rect height="22" width="73.9375" y="178.6425838470459" x="71.203125" class="er attributeBoxEven"/><text style="dominant-baseline: middle; font-size: 10.2px;" transform="translate(76.203125,189.6425838470459)" y="0" x="0" id="text-entity-CollectionMetadata-8d6760eb-00a2-52a2-a48d-b9b9e21e8a79-attr-8-name" class="er entityLabel">see_also</text><rect height="22" width="71.203125" y="200.6425838470459" x="0" class="er attributeBoxOdd"/><text style="dominant-baseline: middle; font-size: 10.2px;" transform="translate(5,211.6425838470459)" y="0" x="0" id="text-entity-CollectionMetadata-8d6760eb-00a2-52a2-a48d-b9b9e21e8a79-attr-9-type" class="er entityLabel">uriorcurie</text><rect height="22" width="73.9375" y="200.6425838470459" x="71.203125" class="er attributeBoxOdd"/><text style="dominant-baseline: middle; font-size: 10.2px;" transform="translate(76.203125,211.6425838470459)" y="0" x="0" id="text-entity-CollectionMetadata-8d6760eb-00a2-52a2-a48d-b9b9e21e8a79-attr-9-name" class="er entityLabel">derived_from</text><rect height="22" width="71.203125" y="222.6425838470459" x="0" class="er attributeBoxEven"/><text style="dominant-baseline: middle; font-size: 10.2px;" transform="translate(5,233.6425838470459)" y="0" x="0" id="text-entity-CollectionMetadata-8d6760eb-00a2-52a2-a48d-b9b9e21e8a79-attr-10-type" class="er entityLabel">uriorcurieList</text><rect height="22" width="73.9375" y="222.6425838470459" x="71.203125" class="er attributeBoxEven"/><text style="dominant-baseline: middle; font-size: 10.2px;" transform="translate(76.203125,233.6425838470459)" y="0" x="0" id="text-entity-CollectionMetadata-8d6760eb-00a2-52a2-a48d-b9b9e21e8a79-attr-10-name" class="er entityLabel">had_member</text><rect height="22.091796875" width="71.203125" y="244.6425838470459" x="0" class="er attributeBoxOdd"/><text style="dominant-baseline: middle; font-size: 10.2px;" transform="translate(5,255.6884822845459)" y="0" x="0" id="text-entity-CollectionMetadata-8d6760eb-00a2-52a2-a48d-b9b9e21e8a79-attr-11-type" class="er entityLabel">uriorcurieList</text><rect height="22.091796875" width="73.9375" y="244.6425838470459" x="71.203125" class="er attributeBoxOdd"/><text style="dominant-baseline: middle; font-size: 10.2px;" transform="translate(76.203125,255.6884822845459)" y="0" x="0" id="text-entity-CollectionMetadata-8d6760eb-00a2-52a2-a48d-b9b9e21e8a79-attr-11-name" class="er entityLabel">ontology_root</text></g><rect height="14" width="51.625" y="131.0919952392578" x="66.75749969482422" class="er relationshipLabelBox"/><text style="text-anchor: middle; dominant-baseline: middle; font-size: 12px;" y="138.0919952392578" x="92.56999969482422" id="rel1" class="er relationshipLabel">metadata</text></svg>