<svg aria-roledescription="er" role="graphics-document document" viewBox="0 0 553.5703125 386.458984375" style="max-width: 553.57px; background-color: white;" xmlns:xlink="http://www.w3.org/1999/xlink" xmlns="http://www.w3.org/2000/svg" width="100%" id="my-svg"><style>#my-svg{font-family:"trebuchet ms",verdana,arial,sans-serif;font-size:16px;fill:#333;}#my-svg .error-icon{fill:#552222;}#my-svg .error-text{fill:#552222;stroke:#552222;}#my-svg .edge-thickness-normal{stroke-width:1px;}#my-svg .edge-thickness-thick{stroke-width:3.5px;}#my-svg .edge-pattern-solid{stroke-dasharray:0;}#my-svg .edge-thickness-invisible{stroke-width:0;fill:none;}#my-svg .edge-pattern-dashed{stroke-dasharray:3;}#my-svg .edge-pattern-dotted{stroke-dasharray:2;}#my-svg .marker{fill:#333333;stroke:#333333;}#my-svg .marker.cross{stroke:#333333;}#my-svg svg{font-family:"trebuchet ms",verdana,arial,sans-serif;font-size:16px;}#my-svg p{margin:0;}#my-svg .entityBox{fill:#ECECFF;stroke:#9370DB;}#my-svg .attributeBoxOdd{fill:#ffffff;stroke:#9370DB;}#my-svg .attributeBoxEven{fill:#f2f2f2;stroke:#9370DB;}#my-svg .relationshipLabelBox{fill:hsl(80, 100%, 96.2745098039%);opacity:0.7;background-color:hsl(80, 100%, 96.2745098039%);}#my-svg .relationshipLabelBox rect{opacity:0.5;}#my-svg .relationshipLine{stroke:#333333;}#my-svg .entityTitleText{text-anchor:middle;font-size:18px;fill:#333;}#my-svg #MD_PARENT_START{fill:#f5f5f5!important;stroke:#333333!important;stroke-width:1;}#my-svg #MD_PARENT_END{fill:#f5f5f5!important;stroke:#333333!important;stroke-width:1;}#my-svg :root{--mermaid-font-family:"trebuchet ms",verdana,arial,sans-serif;}</style><g/><defs><marker orient="auto" markerHeight="240" markerWidth="190" refY="7" refX="0" id="MD_PARENT_START"><path d="M 18,7 L9,13 L1,7 L9,1 Z"/></marker></defs><defs><marker orient="auto" markerHeight="28" markerWidth="20" refY="7" refX="19" id="MD_PARENT_END"><path d="M 18,7 L9,13 L1,7 L9,1 Z"/></marker></defs><defs><marker orient="auto" markerHeight="18" markerWidth="18" refY="9" refX="0" id="ONLY_ONE_START"><path d="M9,0 L9,18 M15,0 L15,18" fill="none" stroke="gray"/></marker></defs><defs><marker orient="auto" markerHeight="18" markerWidth="18" refY="9" refX="18" id="ONLY_ONE_END"><path d="M3,0 L3,18 M9,0 L9,18" fill="none" stroke="gray"/></marker></defs><defs><marker orient="auto" markerHeight="18" markerWidth="30" refY="9" refX="0" id="ZERO_OR_ONE_START"><circle r="6" cy="9" cx="21" fill="white" stroke="gray"/><path d="M9,0 L9,18" fill="none" stroke="gray"/></marker></defs><defs><marker orient="auto" markerHeight="18" markerWidth="30" refY="9" refX="30" id="ZERO_OR_ONE_END"><circle r="6" cy="9" cx="9" fill="white" stroke="gray"/><path d="M21,0 L21,18" fill="none" stroke="gray"/></marker></defs><defs><marker orient="auto" markerHeight="36" markerWidth="45" refY="18" refX="18" id="ONE_OR_MORE_START"><path d="M0,18 Q 18,0 36,18 Q 18,36 0,18 M42,9 L42,27" fill="none" stroke="gray"/></marker></defs><defs><marker orient="auto" markerHeight="36" markerWidth="45" refY="18" refX="27" id="ONE_OR_MORE_END"><path d="M3,9 L3,27 M9,18 Q27,0 45,18 Q27,36 9,18" fill="none" stroke="gray"/></marker></defs><defs><marker orient="auto" markerHeight="36" markerWidth="57" refY="18" refX="18" id="ZERO_OR_MORE_START"><circle r="6" cy="18" cx="48" fill="white" stroke="gray"/><path d="M0,18 Q18,0 36,18 Q18,36 0,18" fill="none" stroke="gray"/></marker></defs><defs><marker orient="auto" markerHeight="36" markerWidth="57" refY="18" refX="39" id="ZERO_OR_MORE_END"><circle r="6" cy="18" cx="9" fill="white" stroke="gray"/><path d="M21,18 Q39,0 57,18 Q39,36 21,18" fill="none" stroke="gray"/></marker></defs><path style="stroke: gray; fill: none;" marker-start="url(#ONLY_ONE_START)" marker-end="url(#ZERO_OR_MORE_END)" d="M129.625,132.275L125.699,140.609C121.773,148.942,113.922,165.609,109.996,182.275C106.07,198.942,106.07,215.609,106.07,223.942L106.07,232.275" class="er relationshipLine"/><path style="stroke: gray; fill: none;" marker-start="url(#ONLY_ONE_START)" marker-end="url(#ZERO_OR_MORE_END)" d="M222.747,132.275L232.644,140.609C242.542,148.942,262.337,165.609,287.742,187.791C313.146,209.973,344.159,237.67,359.665,251.519L375.172,265.367" class="er relationshipLine"/><path style="stroke: gray; fill: none;" marker-start="url(#ONLY_ONE_START)" marker-end="url(#ZERO_OR_MORE_END)" d="M463.242,110.184L463.242,122.199C463.242,134.214,463.242,158.245,457.329,184.109C451.415,209.973,439.588,237.67,433.674,251.519L427.761,265.367" class="er relationshipLine"/><g transform="translate(64.1796875,20 )" id="entity-Books-5e2bc31f-8ec9-51cd-9d88-5a97d7861887"><rect height="112.27539253234863" width="183.78125" y="0" x="0" class="er entityBox"/><text style="dominant-baseline: middle; text-anchor: middle; font-size: 12px;" transform="translate(91.890625,12)" y="0" x="0" id="text-entity-Books-5e2bc31f-8ec9-51cd-9d88-5a97d7861887" class="er entityLabel">Books</text><rect height="22" width="35.75" y="24" x="0" class="er attributeBoxOdd"/><text style="dominant-baseline: middle; font-size: 10.2px;" transform="translate(5,35)" y="0" x="0" id="text-entity-Books-5e2bc31f-8ec9-51cd-9d88-5a97d7861887-attr-1-type" class="er entityLabel">int</text><rect height="22" width="78.09375" y="24" x="35.75" class="er attributeBoxOdd"/><text style="dominant-baseline: middle; font-size: 10.2px;" transform="translate(40.75,35)" y="0" x="0" id="text-entity-Books-5e2bc31f-8ec9-51cd-9d88-5a97d7861887-attr-1-name" class="er entityLabel">id</text><rect height="22" width="21.5625" y="24" x="113.84375" class="er attributeBoxOdd"/><text style="dominant-baseline: middle; font-size: 10.2px;" transform="translate(118.84375,35)" y="0" x="0" id="text-entity-Books-5e2bc31f-8ec9-51cd-9d88-5a97d7861887-attr-1-key" class="er entityLabel">PK</text><rect height="22" width="48.375" y="24" x="135.40625" class="er attributeBoxOdd"/><text style="dominant-baseline: middle; font-size: 10.2px;" transform="translate(140.40625,35)" y="0" x="0" id="text-entity-Books-5e2bc31f-8ec9-51cd-9d88-5a97d7861887-attr-1-comment" class="er entityLabel">서적 ID</text><rect height="22.091797828674316" width="35.75" y="46" x="0" class="er attributeBoxEven"/><text style="dominant-baseline: middle; font-size: 10.2px;" transform="translate(5,57.04589891433716)" y="0" x="0" id="text-entity-Books-5e2bc31f-8ec9-51cd-9d88-5a97d7861887-attr-2-type" class="er entityLabel">string</text><rect height="22.091797828674316" width="78.09375" y="46" x="35.75" class="er attributeBoxEven"/><text style="dominant-baseline: middle; font-size: 10.2px;" transform="translate(40.75,57.04589891433716)" y="0" x="0" id="text-entity-Books-5e2bc31f-8ec9-51cd-9d88-5a97d7861887-attr-2-name" class="er entityLabel">title</text><rect height="22.091797828674316" width="21.5625" y="46" x="113.84375" class="er attributeBoxEven"/><text style="dominant-baseline: middle; font-size: 10.2px;" transform="translate(118.84375,57.04589891433716)" y="0" x="0" id="text-entity-Books-5e2bc31f-8ec9-51cd-9d88-5a97d7861887-attr-2-key" class="er entityLabel"/><rect height="22.091797828674316" width="48.375" y="46" x="135.40625" class="er attributeBoxEven"/><text style="dominant-baseline: middle; font-size: 10.2px;" transform="translate(140.40625,57.04589891433716)" y="0" x="0" id="text-entity-Books-5e2bc31f-8ec9-51cd-9d88-5a97d7861887-attr-2-comment" class="er entityLabel">서적 제목</text><rect height="22.091797828674316" width="35.75" y="68.09179782867432" x="0" class="er attributeBoxOdd"/><text style="dominant-baseline: middle; font-size: 10.2px;" transform="translate(5,79.13769674301147)" y="0" x="0" id="text-entity-Books-5e2bc31f-8ec9-51cd-9d88-5a97d7861887-attr-3-type" class="er entityLabel">string</text><rect height="22.091797828674316" width="78.09375" y="68.09179782867432" x="35.75" class="er attributeBoxOdd"/><text style="dominant-baseline: middle; font-size: 10.2px;" transform="translate(40.75,79.13769674301147)" y="0" x="0" id="text-entity-Books-5e2bc31f-8ec9-51cd-9d88-5a97d7861887-attr-3-name" class="er entityLabel">publisher</text><rect height="22.091797828674316" width="21.5625" y="68.09179782867432" x="113.84375" class="er attributeBoxOdd"/><text style="dominant-baseline: middle; font-size: 10.2px;" transform="translate(118.84375,79.13769674301147)" y="0" x="0" id="text-entity-Books-5e2bc31f-8ec9-51cd-9d88-5a97d7861887-attr-3-key" class="er entityLabel"/><rect height="22.091797828674316" width="48.375" y="68.09179782867432" x="135.40625" class="er attributeBoxOdd"/><text style="dominant-baseline: middle; font-size: 10.2px;" transform="translate(140.40625,79.13769674301147)" y="0" x="0" id="text-entity-Books-5e2bc31f-8ec9-51cd-9d88-5a97d7861887-attr-3-comment" class="er entityLabel">출판사</text><rect height="22.091796875" width="35.75" y="90.18359565734863" x="0" class="er attributeBoxEven"/><text style="dominant-baseline: middle; font-size: 10.2px;" transform="translate(5,101.22949409484863)" y="0" x="0" id="text-entity-Books-5e2bc31f-8ec9-51cd-9d88-5a97d7861887-attr-4-type" class="er entityLabel">date</text><rect height="22.091796875" width="78.09375" y="90.18359565734863" x="35.75" class="er attributeBoxEven"/><text style="dominant-baseline: middle; font-size: 10.2px;" transform="translate(40.75,101.22949409484863)" y="0" x="0" id="text-entity-Books-5e2bc31f-8ec9-51cd-9d88-5a97d7861887-attr-4-name" class="er entityLabel">publisher_date</text><rect height="22.091796875" width="21.5625" y="90.18359565734863" x="113.84375" class="er attributeBoxEven"/><text style="dominant-baseline: middle; font-size: 10.2px;" transform="translate(118.84375,101.22949409484863)" y="0" x="0" id="text-entity-Books-5e2bc31f-8ec9-51cd-9d88-5a97d7861887-attr-4-key" class="er entityLabel"/><rect height="22.091796875" width="48.375" y="90.18359565734863" x="135.40625" class="er attributeBoxEven"/><text style="dominant-baseline: middle; font-size: 10.2px;" transform="translate(140.40625,101.22949409484863)" y="0" x="0" id="text-entity-Books-5e2bc31f-8ec9-51cd-9d88-5a97d7861887-attr-4-comment" class="er entityLabel">출판일</text></g><g transform="translate(392.9140625,42.091796875 )" id="entity-Author-17acff7c-e0a9-5e68-a8c8-82d7688f389c"><rect height="68.09179782867432" width="140.65625" y="0" x="0" class="er entityBox"/><text style="dominant-baseline: middle; text-anchor: middle; font-size: 12px;" transform="translate(70.328125,12)" y="0" x="0" id="text-entity-Author-17acff7c-e0a9-5e68-a8c8-82d7688f389c" class="er entityLabel">Author</text><rect height="22" width="35.75" y="24" x="0" class="er attributeBoxOdd"/><text style="dominant-baseline: middle; font-size: 10.2px;" transform="translate(5,35)" y="0" x="0" id="text-entity-Author-17acff7c-e0a9-5e68-a8c8-82d7688f389c-attr-1-type" class="er entityLabel">int</text><rect height="22" width="34.96875" y="24" x="35.75" class="er attributeBoxOdd"/><text style="dominant-baseline: middle; font-size: 10.2px;" transform="translate(40.75,35)" y="0" x="0" id="text-entity-Author-17acff7c-e0a9-5e68-a8c8-82d7688f389c-attr-1-name" class="er entityLabel">id</text><rect height="22" width="21.5625" y="24" x="70.71875" class="er attributeBoxOdd"/><text style="dominant-baseline: middle; font-size: 10.2px;" transform="translate(75.71875,35)" y="0" x="0" id="text-entity-Author-17acff7c-e0a9-5e68-a8c8-82d7688f389c-attr-1-key" class="er entityLabel">PK</text><rect height="22" width="48.375" y="24" x="92.28125" class="er attributeBoxOdd"/><text style="dominant-baseline: middle; font-size: 10.2px;" transform="translate(97.28125,35)" y="0" x="0" id="text-entity-Author-17acff7c-e0a9-5e68-a8c8-82d7688f389c-attr-1-comment" class="er entityLabel">저자 ID</text><rect height="22.091797828674316" width="35.75" y="46" x="0" class="er attributeBoxEven"/><text style="dominant-baseline: middle; font-size: 10.2px;" transform="translate(5,57.04589891433716)" y="0" x="0" id="text-entity-Author-17acff7c-e0a9-5e68-a8c8-82d7688f389c-attr-2-type" class="er entityLabel">string</text><rect height="22.091797828674316" width="34.96875" y="46" x="35.75" class="er attributeBoxEven"/><text style="dominant-baseline: middle; font-size: 10.2px;" transform="translate(40.75,57.04589891433716)" y="0" x="0" id="text-entity-Author-17acff7c-e0a9-5e68-a8c8-82d7688f389c-attr-2-name" class="er entityLabel">name</text><rect height="22.091797828674316" width="21.5625" y="46" x="70.71875" class="er attributeBoxEven"/><text style="dominant-baseline: middle; font-size: 10.2px;" transform="translate(75.71875,57.04589891433716)" y="0" x="0" id="text-entity-Author-17acff7c-e0a9-5e68-a8c8-82d7688f389c-attr-2-key" class="er entityLabel"/><rect height="22.091797828674316" width="48.375" y="46" x="92.28125" class="er attributeBoxEven"/><text style="dominant-baseline: middle; font-size: 10.2px;" transform="translate(97.28125,57.04589891433716)" y="0" x="0" id="text-entity-Author-17acff7c-e0a9-5e68-a8c8-82d7688f389c-attr-2-comment" class="er entityLabel">저자 이름</text></g><g transform="translate(20,232.275390625 )" id="entity-Reviews-5bc97cb8-91d5-5dd4-a66a-2d4b34fc0ba6"><rect height="134.18359565734863" width="172.140625" y="0" x="0" class="er entityBox"/><text style="dominant-baseline: middle; text-anchor: middle; font-size: 12px;" transform="translate(86.0703125,12)" y="0" x="0" id="text-entity-Reviews-5bc97cb8-91d5-5dd4-a66a-2d4b34fc0ba6" class="er entityLabel">Reviews</text><rect height="22" width="35.75" y="24" x="0" class="er attributeBoxOdd"/><text style="dominant-baseline: middle; font-size: 10.2px;" transform="translate(5,35)" y="0" x="0" id="text-entity-Reviews-5bc97cb8-91d5-5dd4-a66a-2d4b34fc0ba6-attr-1-type" class="er entityLabel">int</text><rect height="22" width="66.453125" y="24" x="35.75" class="er attributeBoxOdd"/><text style="dominant-baseline: middle; font-size: 10.2px;" transform="translate(40.75,35)" y="0" x="0" id="text-entity-Reviews-5bc97cb8-91d5-5dd4-a66a-2d4b34fc0ba6-attr-1-name" class="er entityLabel">id</text><rect height="22" width="21.5625" y="24" x="102.203125" class="er attributeBoxOdd"/><text style="dominant-baseline: middle; font-size: 10.2px;" transform="translate(107.203125,35)" y="0" x="0" id="text-entity-Reviews-5bc97cb8-91d5-5dd4-a66a-2d4b34fc0ba6-attr-1-key" class="er entityLabel">PK</text><rect height="22" width="48.375" y="24" x="123.765625" class="er attributeBoxOdd"/><text style="dominant-baseline: middle; font-size: 10.2px;" transform="translate(128.765625,35)" y="0" x="0" id="text-entity-Reviews-5bc97cb8-91d5-5dd4-a66a-2d4b34fc0ba6-attr-1-comment" class="er entityLabel">리뷰 ID</text><rect height="22" width="35.75" y="46" x="0" class="er attributeBoxEven"/><text style="dominant-baseline: middle; font-size: 10.2px;" transform="translate(5,57)" y="0" x="0" id="text-entity-Reviews-5bc97cb8-91d5-5dd4-a66a-2d4b34fc0ba6-attr-2-type" class="er entityLabel">int</text><rect height="22" width="66.453125" y="46" x="35.75" class="er attributeBoxEven"/><text style="dominant-baseline: middle; font-size: 10.2px;" transform="translate(40.75,57)" y="0" x="0" id="text-entity-Reviews-5bc97cb8-91d5-5dd4-a66a-2d4b34fc0ba6-attr-2-name" class="er entityLabel">bookId</text><rect height="22" width="21.5625" y="46" x="102.203125" class="er attributeBoxEven"/><text style="dominant-baseline: middle; font-size: 10.2px;" transform="translate(107.203125,57)" y="0" x="0" id="text-entity-Reviews-5bc97cb8-91d5-5dd4-a66a-2d4b34fc0ba6-attr-2-key" class="er entityLabel">FK</text><rect height="22" width="48.375" y="46" x="123.765625" class="er attributeBoxEven"/><text style="dominant-baseline: middle; font-size: 10.2px;" transform="translate(128.765625,57)" y="0" x="0" id="text-entity-Reviews-5bc97cb8-91d5-5dd4-a66a-2d4b34fc0ba6-attr-2-comment" class="er entityLabel">서적 ID</text><rect height="22.091797828674316" width="35.75" y="68" x="0" class="er attributeBoxOdd"/><text style="dominant-baseline: middle; font-size: 10.2px;" transform="translate(5,79.04589891433716)" y="0" x="0" id="text-entity-Reviews-5bc97cb8-91d5-5dd4-a66a-2d4b34fc0ba6-attr-3-type" class="er entityLabel">string</text><rect height="22.091797828674316" width="66.453125" y="68" x="35.75" class="er attributeBoxOdd"/><text style="dominant-baseline: middle; font-size: 10.2px;" transform="translate(40.75,79.04589891433716)" y="0" x="0" id="text-entity-Reviews-5bc97cb8-91d5-5dd4-a66a-2d4b34fc0ba6-attr-3-name" class="er entityLabel">content</text><rect height="22.091797828674316" width="21.5625" y="68" x="102.203125" class="er attributeBoxOdd"/><text style="dominant-baseline: middle; font-size: 10.2px;" transform="translate(107.203125,79.04589891433716)" y="0" x="0" id="text-entity-Reviews-5bc97cb8-91d5-5dd4-a66a-2d4b34fc0ba6-attr-3-key" class="er entityLabel"/><rect height="22.091797828674316" width="48.375" y="68" x="123.765625" class="er attributeBoxOdd"/><text style="dominant-baseline: middle; font-size: 10.2px;" transform="translate(128.765625,79.04589891433716)" y="0" x="0" id="text-entity-Reviews-5bc97cb8-91d5-5dd4-a66a-2d4b34fc0ba6-attr-3-comment" class="er entityLabel">리뷰 내용</text><rect height="22.091797828674316" width="35.75" y="90.09179782867432" x="0" class="er attributeBoxEven"/><text style="dominant-baseline: middle; font-size: 10.2px;" transform="translate(5,101.13769674301147)" y="0" x="0" id="text-entity-Reviews-5bc97cb8-91d5-5dd4-a66a-2d4b34fc0ba6-attr-4-type" class="er entityLabel">float</text><rect height="22.091797828674316" width="66.453125" y="90.09179782867432" x="35.75" class="er attributeBoxEven"/><text style="dominant-baseline: middle; font-size: 10.2px;" transform="translate(40.75,101.13769674301147)" y="0" x="0" id="text-entity-Reviews-5bc97cb8-91d5-5dd4-a66a-2d4b34fc0ba6-attr-4-name" class="er entityLabel">rating</text><rect height="22.091797828674316" width="21.5625" y="90.09179782867432" x="102.203125" class="er attributeBoxEven"/><text style="dominant-baseline: middle; font-size: 10.2px;" transform="translate(107.203125,101.13769674301147)" y="0" x="0" id="text-entity-Reviews-5bc97cb8-91d5-5dd4-a66a-2d4b34fc0ba6-attr-4-key" class="er entityLabel"/><rect height="22.091797828674316" width="48.375" y="90.09179782867432" x="123.765625" class="er attributeBoxEven"/><text style="dominant-baseline: middle; font-size: 10.2px;" transform="translate(128.765625,101.13769674301147)" y="0" x="0" id="text-entity-Reviews-5bc97cb8-91d5-5dd4-a66a-2d4b34fc0ba6-attr-4-comment" class="er entityLabel">평점</text><rect height="22" width="35.75" y="112.18359565734863" x="0" class="er attributeBoxOdd"/><text style="dominant-baseline: middle; font-size: 10.2px;" transform="translate(5,123.18359565734863)" y="0" x="0" id="text-entity-Reviews-5bc97cb8-91d5-5dd4-a66a-2d4b34fc0ba6-attr-5-type" class="er entityLabel">date</text><rect height="22" width="66.453125" y="112.18359565734863" x="35.75" class="er attributeBoxOdd"/><text style="dominant-baseline: middle; font-size: 10.2px;" transform="translate(40.75,123.18359565734863)" y="0" x="0" id="text-entity-Reviews-5bc97cb8-91d5-5dd4-a66a-2d4b34fc0ba6-attr-5-name" class="er entityLabel">createdDate</text><rect height="22" width="21.5625" y="112.18359565734863" x="102.203125" class="er attributeBoxOdd"/><text style="dominant-baseline: middle; font-size: 10.2px;" transform="translate(107.203125,123.18359565734863)" y="0" x="0" id="text-entity-Reviews-5bc97cb8-91d5-5dd4-a66a-2d4b34fc0ba6-attr-5-key" class="er entityLabel"/><rect height="22" width="48.375" y="112.18359565734863" x="123.765625" class="er attributeBoxOdd"/><text style="dominant-baseline: middle; font-size: 10.2px;" transform="translate(128.765625,123.18359565734863)" y="0" x="0" id="text-entity-Reviews-5bc97cb8-91d5-5dd4-a66a-2d4b34fc0ba6-attr-5-comment" class="er entityLabel">작성일</text></g><g transform="translate(347.1875,265.3671875 )" id="entity-BooksAuthors-5e431b31-e613-5ce7-9d8b-56d06459a00e"><rect height="68" width="132.109375" y="0" x="0" class="er entityBox"/><text style="dominant-baseline: middle; text-anchor: middle; font-size: 12px;" transform="translate(66.0546875,12)" y="0" x="0" id="text-entity-BooksAuthors-5e431b31-e613-5ce7-9d8b-56d06459a00e" class="er entityLabel">BooksAuthors</text><rect height="22" width="22.53125" y="24" x="0" class="er attributeBoxOdd"/><text style="dominant-baseline: middle; font-size: 10.2px;" transform="translate(5,35)" y="0" x="0" id="text-entity-BooksAuthors-5e431b31-e613-5ce7-9d8b-56d06459a00e-attr-1-type" class="er entityLabel">int</text><rect height="22" width="48.515625" y="24" x="22.53125" class="er attributeBoxOdd"/><text style="dominant-baseline: middle; font-size: 10.2px;" transform="translate(27.53125,35)" y="0" x="0" id="text-entity-BooksAuthors-5e431b31-e613-5ce7-9d8b-56d06459a00e-attr-1-name" class="er entityLabel">bookId</text><rect height="22" width="21.234375" y="24" x="71.046875" class="er attributeBoxOdd"/><text style="dominant-baseline: middle; font-size: 10.2px;" transform="translate(76.046875,35)" y="0" x="0" id="text-entity-BooksAuthors-5e431b31-e613-5ce7-9d8b-56d06459a00e-attr-1-key" class="er entityLabel">FK</text><rect height="22" width="39.828125" y="24" x="92.28125" class="er attributeBoxOdd"/><text style="dominant-baseline: middle; font-size: 10.2px;" transform="translate(97.28125,35)" y="0" x="0" id="text-entity-BooksAuthors-5e431b31-e613-5ce7-9d8b-56d06459a00e-attr-1-comment" class="er entityLabel">서적 ID</text><rect height="22" width="22.53125" y="46" x="0" class="er attributeBoxEven"/><text style="dominant-baseline: middle; font-size: 10.2px;" transform="translate(5,57)" y="0" x="0" id="text-entity-BooksAuthors-5e431b31-e613-5ce7-9d8b-56d06459a00e-attr-2-type" class="er entityLabel">int</text><rect height="22" width="48.515625" y="46" x="22.53125" class="er attributeBoxEven"/><text style="dominant-baseline: middle; font-size: 10.2px;" transform="translate(27.53125,57)" y="0" x="0" id="text-entity-BooksAuthors-5e431b31-e613-5ce7-9d8b-56d06459a00e-attr-2-name" class="er entityLabel">authorId</text><rect height="22" width="21.234375" y="46" x="71.046875" class="er attributeBoxEven"/><text style="dominant-baseline: middle; font-size: 10.2px;" transform="translate(76.046875,57)" y="0" x="0" id="text-entity-BooksAuthors-5e431b31-e613-5ce7-9d8b-56d06459a00e-attr-2-key" class="er entityLabel">FK</text><rect height="22" width="39.828125" y="46" x="92.28125" class="er attributeBoxEven"/><text style="dominant-baseline: middle; font-size: 10.2px;" transform="translate(97.28125,57)" y="0" x="0" id="text-entity-BooksAuthors-5e431b31-e613-5ce7-9d8b-56d06459a00e-attr-2-comment" class="er entityLabel">저자 ID</text></g><rect height="14" width="17.71875" y="173.55575561523438" x="101.55548095703125" class="er relationshipLabelBox"/><text style="text-anchor: middle; dominant-baseline: middle; font-size: 12px;" y="180.55575561523438" x="110.41485595703125" id="rel1" class="er relationshipLabel">has</text><rect height="14" width="17.71875" y="191.14222717285156" x="290.6912841796875" class="er relationshipLabelBox"/><text style="text-anchor: middle; dominant-baseline: middle; font-size: 12px;" y="198.14222717285156" x="299.5506591796875" id="rel2" class="er relationshipLabel">has</text><rect height="14" width="33.1875" y="183.05679321289062" x="439.28271484375" class="er relationshipLabelBox"/><text style="text-anchor: middle; dominant-baseline: middle; font-size: 12px;" y="190.05679321289062" x="455.87646484375" id="rel3" class="er relationshipLabel">writes</text></svg>