<svg aria-roledescription="er" role="graphics-document document" viewBox="0 -62 612.1015625 572.826171875" style="max-width: 612.102px; background-color: white;" xmlns:xlink="http://www.w3.org/1999/xlink" xmlns="http://www.w3.org/2000/svg" width="100%" id="my-svg"><style>#my-svg{font-family:"trebuchet ms",verdana,arial,sans-serif;font-size:16px;fill:#333;}#my-svg .error-icon{fill:#552222;}#my-svg .error-text{fill:#552222;stroke:#552222;}#my-svg .edge-thickness-normal{stroke-width:1px;}#my-svg .edge-thickness-thick{stroke-width:3.5px;}#my-svg .edge-pattern-solid{stroke-dasharray:0;}#my-svg .edge-thickness-invisible{stroke-width:0;fill:none;}#my-svg .edge-pattern-dashed{stroke-dasharray:3;}#my-svg .edge-pattern-dotted{stroke-dasharray:2;}#my-svg .marker{fill:#333333;stroke:#333333;}#my-svg .marker.cross{stroke:#333333;}#my-svg svg{font-family:"trebuchet ms",verdana,arial,sans-serif;font-size:16px;}#my-svg p{margin:0;}#my-svg .entityBox{fill:#ECECFF;stroke:#9370DB;}#my-svg .attributeBoxOdd{fill:#ffffff;stroke:#9370DB;}#my-svg .attributeBoxEven{fill:#f2f2f2;stroke:#9370DB;}#my-svg .relationshipLabelBox{fill:hsl(80, 100%, 96.2745098039%);opacity:0.7;background-color:hsl(80, 100%, 96.2745098039%);}#my-svg .relationshipLabelBox rect{opacity:0.5;}#my-svg .relationshipLine{stroke:#333333;}#my-svg .entityTitleText{text-anchor:middle;font-size:18px;fill:#333;}#my-svg #MD_PARENT_START{fill:#f5f5f5!important;stroke:#333333!important;stroke-width:1;}#my-svg #MD_PARENT_END{fill:#f5f5f5!important;stroke:#333333!important;stroke-width:1;}#my-svg :root{--mermaid-font-family:"trebuchet ms",verdana,arial,sans-serif;}</style><g/><defs><marker orient="auto" markerHeight="240" markerWidth="190" refY="7" refX="0" id="MD_PARENT_START"><path d="M 18,7 L9,13 L1,7 L9,1 Z"/></marker></defs><defs><marker orient="auto" markerHeight="28" markerWidth="20" refY="7" refX="19" id="MD_PARENT_END"><path d="M 18,7 L9,13 L1,7 L9,1 Z"/></marker></defs><defs><marker orient="auto" markerHeight="18" markerWidth="18" refY="9" refX="0" id="ONLY_ONE_START"><path d="M9,0 L9,18 M15,0 L15,18" fill="none" stroke="gray"/></marker></defs><defs><marker orient="auto" markerHeight="18" markerWidth="18" refY="9" refX="18" id="ONLY_ONE_END"><path d="M3,0 L3,18 M9,0 L9,18" fill="none" stroke="gray"/></marker></defs><defs><marker orient="auto" markerHeight="18" markerWidth="30" refY="9" refX="0" id="ZERO_OR_ONE_START"><circle r="6" cy="9" cx="21" fill="white" stroke="gray"/><path d="M9,0 L9,18" fill="none" stroke="gray"/></marker></defs><defs><marker orient="auto" markerHeight="18" markerWidth="30" refY="9" refX="30" id="ZERO_OR_ONE_END"><circle r="6" cy="9" cx="9" fill="white" stroke="gray"/><path d="M21,0 L21,18" fill="none" stroke="gray"/></marker></defs><defs><marker orient="auto" markerHeight="36" markerWidth="45" refY="18" refX="18" id="ONE_OR_MORE_START"><path d="M0,18 Q 18,0 36,18 Q 18,36 0,18 M42,9 L42,27" fill="none" stroke="gray"/></marker></defs><defs><marker orient="auto" markerHeight="36" markerWidth="45" refY="18" refX="27" id="ONE_OR_MORE_END"><path d="M3,9 L3,27 M9,18 Q27,0 45,18 Q27,36 9,18" fill="none" stroke="gray"/></marker></defs><defs><marker orient="auto" markerHeight="36" markerWidth="57" refY="18" refX="18" id="ZERO_OR_MORE_START"><circle r="6" cy="18" cx="48" fill="white" stroke="gray"/><path d="M0,18 Q18,0 36,18 Q18,36 0,18" fill="none" stroke="gray"/></marker></defs><defs><marker orient="auto" markerHeight="36" markerWidth="57" refY="18" refX="39" id="ZERO_OR_MORE_END"><circle r="6" cy="18" cx="9" fill="white" stroke="gray"/><path d="M21,18 Q39,0 57,18 Q39,36 21,18" fill="none" stroke="gray"/></marker></defs><path style="stroke: gray; fill: none;" marker-start="url(#ONLY_ONE_START)" marker-end="url(#ZERO_OR_MORE_END)" d="M142.9,278.459L130.791,286.792C118.681,295.126,94.462,311.792,82.352,328.459C70.242,345.126,70.242,361.792,70.242,370.126L70.242,378.459" class="er relationshipLine"/><path style="stroke: gray; fill: none;" marker-start="url(#ONLY_ONE_START)" marker-end="url(#ZERO_OR_MORE_END)" d="M203.81,278.459L206.589,286.792C209.368,295.126,214.926,311.792,225.183,330.3C235.44,348.808,250.396,369.156,257.874,379.331L265.352,389.505" class="er relationshipLine"/><path style="stroke: gray; fill: none;" marker-start="url(#ONLY_ONE_START)" marker-end="url(#ZERO_OR_MORE_END)" d="M248.527,262.414L282.737,273.421C316.947,284.429,385.366,306.444,427.053,327.626C468.741,348.808,483.697,369.156,491.175,379.331L498.653,389.505" class="er relationshipLine"/><path style="stroke: gray; fill: none;" marker-start="url(#ZERO_OR_MORE_START)" marker-end="url(#ONLY_ONE_END)" d="M316.461,96.196L295.791,106.876C275.121,117.556,233.781,138.915,213.111,157.929C192.441,176.942,192.441,193.609,192.441,201.942L192.441,210.275" class="er relationshipLine"/><path style="stroke: gray; fill: none;" marker-start="url(#ZERO_OR_MORE_START)" marker-end="url(#ONLY_ONE_END)" d="M365.76,110.275L363.764,118.609C361.768,126.942,357.777,143.609,355.781,165.957C353.785,188.306,353.785,216.337,353.785,244.367C353.785,272.398,353.785,300.428,348.49,324.618C343.196,348.808,332.606,369.156,327.312,379.331L322.017,389.505" class="er relationshipLine"/><path style="stroke: gray; fill: none;" marker-start="url(#ZERO_OR_MORE_START)" marker-end="url(#ONLY_ONE_END)" d="M436.68,96.478L457.074,107.111C477.467,117.744,518.255,139.009,538.649,163.658C559.043,188.306,559.043,216.337,559.043,244.367C559.043,272.398,559.043,300.428,556.435,324.618C553.828,348.808,548.612,369.156,546.005,379.331L543.397,389.505" class="er relationshipLine"/><g transform="translate(136.35546875,210.275390625 )" id="entity-USERIDENTITY-0aa8385e-800e-51a7-b2f1-72be42467f78"><rect height="68.18359565734863" width="112.171875" y="0" x="0" class="er entityBox"/><text style="dominant-baseline: middle; text-anchor: middle; font-size: 12px;" transform="translate(56.0859375,12)" y="0" x="0" id="text-entity-USERIDENTITY-0aa8385e-800e-51a7-b2f1-72be42467f78" class="er entityLabel">USER_IDENTITY</text><rect height="22.091797828674316" width="39.03125" y="24" x="0" class="er attributeBoxOdd"/><text style="dominant-baseline: middle; font-size: 10.2px;" transform="translate(5,35.04589891433716)" y="0" x="0" id="text-entity-USERIDENTITY-0aa8385e-800e-51a7-b2f1-72be42467f78-attr-1-type" class="er entityLabel">string</text><rect height="22.091797828674316" width="48.296875" y="24" x="39.03125" class="er attributeBoxOdd"/><text style="dominant-baseline: middle; font-size: 10.2px;" transform="translate(44.03125,35.04589891433716)" y="0" x="0" id="text-entity-USERIDENTITY-0aa8385e-800e-51a7-b2f1-72be42467f78-attr-1-name" class="er entityLabel">user_id</text><rect height="22.091797828674316" width="24.84375" y="24" x="87.328125" class="er attributeBoxOdd"/><text style="dominant-baseline: middle; font-size: 10.2px;" transform="translate(92.328125,35.04589891433716)" y="0" x="0" id="text-entity-USERIDENTITY-0aa8385e-800e-51a7-b2f1-72be42467f78-attr-1-key" class="er entityLabel">PK</text><rect height="22.091797828674316" width="39.03125" y="46.091797828674316" x="0" class="er attributeBoxEven"/><text style="dominant-baseline: middle; font-size: 10.2px;" transform="translate(5,57.137696743011475)" y="0" x="0" id="text-entity-USERIDENTITY-0aa8385e-800e-51a7-b2f1-72be42467f78-attr-2-type" class="er entityLabel">string</text><rect height="22.091797828674316" width="48.296875" y="46.091797828674316" x="39.03125" class="er attributeBoxEven"/><text style="dominant-baseline: middle; font-size: 10.2px;" transform="translate(44.03125,57.137696743011475)" y="0" x="0" id="text-entity-USERIDENTITY-0aa8385e-800e-51a7-b2f1-72be42467f78-attr-2-name" class="er entityLabel">idp_sub</text><rect height="22.091797828674316" width="24.84375" y="46.091797828674316" x="87.328125" class="er attributeBoxEven"/><text style="dominant-baseline: middle; font-size: 10.2px;" transform="translate(92.328125,57.137696743011475)" y="0" x="0" id="text-entity-USERIDENTITY-0aa8385e-800e-51a7-b2f1-72be42467f78-attr-2-key" class="er entityLabel"/></g><g transform="translate(20,378.458984375 )" id="entity-LINK-0f465eb1-1d37-537d-829e-8b3f7c132a9a"><rect height="112.36719131469727" width="100.484375" y="0" x="0" class="er entityBox"/><text style="dominant-baseline: middle; text-anchor: middle; font-size: 12px;" transform="translate(50.2421875,12)" y="0" x="0" id="text-entity-LINK-0f465eb1-1d37-537d-829e-8b3f7c132a9a" class="er entityLabel">LINK</text><rect height="22.091797828674316" width="35.75" y="24" x="0" class="er attributeBoxOdd"/><text style="dominant-baseline: middle; font-size: 10.2px;" transform="translate(5,35.04589891433716)" y="0" x="0" id="text-entity-LINK-0f465eb1-1d37-537d-829e-8b3f7c132a9a-attr-1-type" class="er entityLabel">string</text><rect height="22.091797828674316" width="43.171875" y="24" x="35.75" class="er attributeBoxOdd"/><text style="dominant-baseline: middle; font-size: 10.2px;" transform="translate(40.75,35.04589891433716)" y="0" x="0" id="text-entity-LINK-0f465eb1-1d37-537d-829e-8b3f7c132a9a-attr-1-name" class="er entityLabel">link_id</text><rect height="22.091797828674316" width="21.5625" y="24" x="78.921875" class="er attributeBoxOdd"/><text style="dominant-baseline: middle; font-size: 10.2px;" transform="translate(83.921875,35.04589891433716)" y="0" x="0" id="text-entity-LINK-0f465eb1-1d37-537d-829e-8b3f7c132a9a-attr-1-key" class="er entityLabel">PK</text><rect height="22.091797828674316" width="35.75" y="46.091797828674316" x="0" class="er attributeBoxEven"/><text style="dominant-baseline: middle; font-size: 10.2px;" transform="translate(5,57.137696743011475)" y="0" x="0" id="text-entity-LINK-0f465eb1-1d37-537d-829e-8b3f7c132a9a-attr-2-type" class="er entityLabel">stirng</text><rect height="22.091797828674316" width="43.171875" y="46.091797828674316" x="35.75" class="er attributeBoxEven"/><text style="dominant-baseline: middle; font-size: 10.2px;" transform="translate(40.75,57.137696743011475)" y="0" x="0" id="text-entity-LINK-0f465eb1-1d37-537d-829e-8b3f7c132a9a-attr-2-name" class="er entityLabel">user_id</text><rect height="22.091797828674316" width="21.5625" y="46.091797828674316" x="78.921875" class="er attributeBoxEven"/><text style="dominant-baseline: middle; font-size: 10.2px;" transform="translate(83.921875,57.137696743011475)" y="0" x="0" id="text-entity-LINK-0f465eb1-1d37-537d-829e-8b3f7c132a9a-attr-2-key" class="er entityLabel">FK</text><rect height="22.091797828674316" width="35.75" y="68.18359565734863" x="0" class="er attributeBoxOdd"/><text style="dominant-baseline: middle; font-size: 10.2px;" transform="translate(5,79.22949457168579)" y="0" x="0" id="text-entity-LINK-0f465eb1-1d37-537d-829e-8b3f7c132a9a-attr-3-type" class="er entityLabel">string</text><rect height="22.091797828674316" width="43.171875" y="68.18359565734863" x="35.75" class="er attributeBoxOdd"/><text style="dominant-baseline: middle; font-size: 10.2px;" transform="translate(40.75,79.22949457168579)" y="0" x="0" id="text-entity-LINK-0f465eb1-1d37-537d-829e-8b3f7c132a9a-attr-3-name" class="er entityLabel">name</text><rect height="22.091797828674316" width="21.5625" y="68.18359565734863" x="78.921875" class="er attributeBoxOdd"/><text style="dominant-baseline: middle; font-size: 10.2px;" transform="translate(83.921875,79.22949457168579)" y="0" x="0" id="text-entity-LINK-0f465eb1-1d37-537d-829e-8b3f7c132a9a-attr-3-key" class="er entityLabel"/><rect height="22.091797828674316" width="35.75" y="90.27539348602295" x="0" class="er attributeBoxEven"/><text style="dominant-baseline: middle; font-size: 10.2px;" transform="translate(5,101.32129240036011)" y="0" x="0" id="text-entity-LINK-0f465eb1-1d37-537d-829e-8b3f7c132a9a-attr-4-type" class="er entityLabel">string</text><rect height="22.091797828674316" width="43.171875" y="90.27539348602295" x="35.75" class="er attributeBoxEven"/><text style="dominant-baseline: middle; font-size: 10.2px;" transform="translate(40.75,101.32129240036011)" y="0" x="0" id="text-entity-LINK-0f465eb1-1d37-537d-829e-8b3f7c132a9a-attr-4-name" class="er entityLabel">link</text><rect height="22.091797828674316" width="21.5625" y="90.27539348602295" x="78.921875" class="er attributeBoxEven"/><text style="dominant-baseline: middle; font-size: 10.2px;" transform="translate(83.921875,101.32129240036011)" y="0" x="0" id="text-entity-LINK-0f465eb1-1d37-537d-829e-8b3f7c132a9a-attr-4-key" class="er entityLabel"/></g><g transform="translate(248.28515625,389.5048828125 )" id="entity-TAG-a8da97c4-fe96-50e4-85f7-7ca8b26aba43"><rect height="90.27539348602295" width="100.484375" y="0" x="0" class="er entityBox"/><text style="dominant-baseline: middle; text-anchor: middle; font-size: 12px;" transform="translate(50.2421875,12)" y="0" x="0" id="text-entity-TAG-a8da97c4-fe96-50e4-85f7-7ca8b26aba43" class="er entityLabel">TAG</text><rect height="22.091797828674316" width="35.75" y="24" x="0" class="er attributeBoxOdd"/><text style="dominant-baseline: middle; font-size: 10.2px;" transform="translate(5,35.04589891433716)" y="0" x="0" id="text-entity-TAG-a8da97c4-fe96-50e4-85f7-7ca8b26aba43-attr-1-type" class="er entityLabel">string</text><rect height="22.091797828674316" width="43.171875" y="24" x="35.75" class="er attributeBoxOdd"/><text style="dominant-baseline: middle; font-size: 10.2px;" transform="translate(40.75,35.04589891433716)" y="0" x="0" id="text-entity-TAG-a8da97c4-fe96-50e4-85f7-7ca8b26aba43-attr-1-name" class="er entityLabel">tag_id</text><rect height="22.091797828674316" width="21.5625" y="24" x="78.921875" class="er attributeBoxOdd"/><text style="dominant-baseline: middle; font-size: 10.2px;" transform="translate(83.921875,35.04589891433716)" y="0" x="0" id="text-entity-TAG-a8da97c4-fe96-50e4-85f7-7ca8b26aba43-attr-1-key" class="er entityLabel">PK</text><rect height="22.091797828674316" width="35.75" y="46.091797828674316" x="0" class="er attributeBoxEven"/><text style="dominant-baseline: middle; font-size: 10.2px;" transform="translate(5,57.137696743011475)" y="0" x="0" id="text-entity-TAG-a8da97c4-fe96-50e4-85f7-7ca8b26aba43-attr-2-type" class="er entityLabel">string</text><rect height="22.091797828674316" width="43.171875" y="46.091797828674316" x="35.75" class="er attributeBoxEven"/><text style="dominant-baseline: middle; font-size: 10.2px;" transform="translate(40.75,57.137696743011475)" y="0" x="0" id="text-entity-TAG-a8da97c4-fe96-50e4-85f7-7ca8b26aba43-attr-2-name" class="er entityLabel">user_id</text><rect height="22.091797828674316" width="21.5625" y="46.091797828674316" x="78.921875" class="er attributeBoxEven"/><text style="dominant-baseline: middle; font-size: 10.2px;" transform="translate(83.921875,57.137696743011475)" y="0" x="0" id="text-entity-TAG-a8da97c4-fe96-50e4-85f7-7ca8b26aba43-attr-2-key" class="er entityLabel">FK</text><rect height="22.091797828674316" width="35.75" y="68.18359565734863" x="0" class="er attributeBoxOdd"/><text style="dominant-baseline: middle; font-size: 10.2px;" transform="translate(5,79.22949457168579)" y="0" x="0" id="text-entity-TAG-a8da97c4-fe96-50e4-85f7-7ca8b26aba43-attr-3-type" class="er entityLabel">string</text><rect height="22.091797828674316" width="43.171875" y="68.18359565734863" x="35.75" class="er attributeBoxOdd"/><text style="dominant-baseline: middle; font-size: 10.2px;" transform="translate(40.75,79.22949457168579)" y="0" x="0" id="text-entity-TAG-a8da97c4-fe96-50e4-85f7-7ca8b26aba43-attr-3-name" class="er entityLabel">name</text><rect height="22.091797828674316" width="21.5625" y="68.18359565734863" x="78.921875" class="er attributeBoxOdd"/><text style="dominant-baseline: middle; font-size: 10.2px;" transform="translate(83.921875,79.22949457168579)" y="0" x="0" id="text-entity-TAG-a8da97c4-fe96-50e4-85f7-7ca8b26aba43-attr-3-key" class="er entityLabel"/></g><g transform="translate(471.5546875,389.5048828125 )" id="entity-RESOURCE-36990b0c-be8f-56c4-bd88-e934fec22ca0"><rect height="90.27539348602295" width="120.546875" y="0" x="0" class="er entityBox"/><text style="dominant-baseline: middle; text-anchor: middle; font-size: 12px;" transform="translate(60.2734375,12)" y="0" x="0" id="text-entity-RESOURCE-36990b0c-be8f-56c4-bd88-e934fec22ca0" class="er entityLabel">RESOURCE</text><rect height="22.091797828674316" width="35.75" y="24" x="0" class="er attributeBoxOdd"/><text style="dominant-baseline: middle; font-size: 10.2px;" transform="translate(5,35.04589891433716)" y="0" x="0" id="text-entity-RESOURCE-36990b0c-be8f-56c4-bd88-e934fec22ca0-attr-1-type" class="er entityLabel">string</text><rect height="22.091797828674316" width="63.234375" y="24" x="35.75" class="er attributeBoxOdd"/><text style="dominant-baseline: middle; font-size: 10.2px;" transform="translate(40.75,35.04589891433716)" y="0" x="0" id="text-entity-RESOURCE-36990b0c-be8f-56c4-bd88-e934fec22ca0-attr-1-name" class="er entityLabel">resource_id</text><rect height="22.091797828674316" width="21.5625" y="24" x="98.984375" class="er attributeBoxOdd"/><text style="dominant-baseline: middle; font-size: 10.2px;" transform="translate(103.984375,35.04589891433716)" y="0" x="0" id="text-entity-RESOURCE-36990b0c-be8f-56c4-bd88-e934fec22ca0-attr-1-key" class="er entityLabel">PK</text><rect height="22.091797828674316" width="35.75" y="46.091797828674316" x="0" class="er attributeBoxEven"/><text style="dominant-baseline: middle; font-size: 10.2px;" transform="translate(5,57.137696743011475)" y="0" x="0" id="text-entity-RESOURCE-36990b0c-be8f-56c4-bd88-e934fec22ca0-attr-2-type" class="er entityLabel">string</text><rect height="22.091797828674316" width="63.234375" y="46.091797828674316" x="35.75" class="er attributeBoxEven"/><text style="dominant-baseline: middle; font-size: 10.2px;" transform="translate(40.75,57.137696743011475)" y="0" x="0" id="text-entity-RESOURCE-36990b0c-be8f-56c4-bd88-e934fec22ca0-attr-2-name" class="er entityLabel">user_id</text><rect height="22.091797828674316" width="21.5625" y="46.091797828674316" x="98.984375" class="er attributeBoxEven"/><text style="dominant-baseline: middle; font-size: 10.2px;" transform="translate(103.984375,57.137696743011475)" y="0" x="0" id="text-entity-RESOURCE-36990b0c-be8f-56c4-bd88-e934fec22ca0-attr-2-key" class="er entityLabel">FK</text><rect height="22.091797828674316" width="35.75" y="68.18359565734863" x="0" class="er attributeBoxOdd"/><text style="dominant-baseline: middle; font-size: 10.2px;" transform="translate(5,79.22949457168579)" y="0" x="0" id="text-entity-RESOURCE-36990b0c-be8f-56c4-bd88-e934fec22ca0-attr-3-type" class="er entityLabel">string</text><rect height="22.091797828674316" width="63.234375" y="68.18359565734863" x="35.75" class="er attributeBoxOdd"/><text style="dominant-baseline: middle; font-size: 10.2px;" transform="translate(40.75,79.22949457168579)" y="0" x="0" id="text-entity-RESOURCE-36990b0c-be8f-56c4-bd88-e934fec22ca0-attr-3-name" class="er entityLabel">name</text><rect height="22.091797828674316" width="21.5625" y="68.18359565734863" x="98.984375" class="er attributeBoxOdd"/><text style="dominant-baseline: middle; font-size: 10.2px;" transform="translate(103.984375,79.22949457168579)" y="0" x="0" id="text-entity-RESOURCE-36990b0c-be8f-56c4-bd88-e934fec22ca0-attr-3-key" class="er entityLabel"/></g><g transform="translate(316.4609375,20 )" id="entity-RESOURCETAG-fa0f5bc0-d5bc-5868-b94e-0314bdb0b894"><rect height="90.27539348602295" width="120.21875" y="0" x="0" class="er entityBox"/><text style="dominant-baseline: middle; text-anchor: middle; font-size: 12px;" transform="translate(60.109375,12)" y="0" x="0" id="text-entity-RESOURCETAG-fa0f5bc0-d5bc-5868-b94e-0314bdb0b894" class="er entityLabel">RESOURCE_TAG</text><rect height="22.091797828674316" width="35.75" y="24" x="0" class="er attributeBoxOdd"/><text style="dominant-baseline: middle; font-size: 10.2px;" transform="translate(5,35.04589891433716)" y="0" x="0" id="text-entity-RESOURCETAG-fa0f5bc0-d5bc-5868-b94e-0314bdb0b894-attr-1-type" class="er entityLabel">string</text><rect height="22.091797828674316" width="63.234375" y="24" x="35.75" class="er attributeBoxOdd"/><text style="dominant-baseline: middle; font-size: 10.2px;" transform="translate(40.75,35.04589891433716)" y="0" x="0" id="text-entity-RESOURCETAG-fa0f5bc0-d5bc-5868-b94e-0314bdb0b894-attr-1-name" class="er entityLabel">user_id</text><rect height="22.091797828674316" width="21.234375" y="24" x="98.984375" class="er attributeBoxOdd"/><text style="dominant-baseline: middle; font-size: 10.2px;" transform="translate(103.984375,35.04589891433716)" y="0" x="0" id="text-entity-RESOURCETAG-fa0f5bc0-d5bc-5868-b94e-0314bdb0b894-attr-1-key" class="er entityLabel">FK</text><rect height="22.091797828674316" width="35.75" y="46.091797828674316" x="0" class="er attributeBoxEven"/><text style="dominant-baseline: middle; font-size: 10.2px;" transform="translate(5,57.137696743011475)" y="0" x="0" id="text-entity-RESOURCETAG-fa0f5bc0-d5bc-5868-b94e-0314bdb0b894-attr-2-type" class="er entityLabel">string</text><rect height="22.091797828674316" width="63.234375" y="46.091797828674316" x="35.75" class="er attributeBoxEven"/><text style="dominant-baseline: middle; font-size: 10.2px;" transform="translate(40.75,57.137696743011475)" y="0" x="0" id="text-entity-RESOURCETAG-fa0f5bc0-d5bc-5868-b94e-0314bdb0b894-attr-2-name" class="er entityLabel">resource_id</text><rect height="22.091797828674316" width="21.234375" y="46.091797828674316" x="98.984375" class="er attributeBoxEven"/><text style="dominant-baseline: middle; font-size: 10.2px;" transform="translate(103.984375,57.137696743011475)" y="0" x="0" id="text-entity-RESOURCETAG-fa0f5bc0-d5bc-5868-b94e-0314bdb0b894-attr-2-key" class="er entityLabel">FK</text><rect height="22.091797828674316" width="35.75" y="68.18359565734863" x="0" class="er attributeBoxOdd"/><text style="dominant-baseline: middle; font-size: 10.2px;" transform="translate(5,79.22949457168579)" y="0" x="0" id="text-entity-RESOURCETAG-fa0f5bc0-d5bc-5868-b94e-0314bdb0b894-attr-3-type" class="er entityLabel">string</text><rect height="22.091797828674316" width="63.234375" y="68.18359565734863" x="35.75" class="er attributeBoxOdd"/><text style="dominant-baseline: middle; font-size: 10.2px;" transform="translate(40.75,79.22949457168579)" y="0" x="0" id="text-entity-RESOURCETAG-fa0f5bc0-d5bc-5868-b94e-0314bdb0b894-attr-3-name" class="er entityLabel">tag_id</text><rect height="22.091797828674316" width="21.234375" y="68.18359565734863" x="98.984375" class="er attributeBoxOdd"/><text style="dominant-baseline: middle; font-size: 10.2px;" transform="translate(103.984375,79.22949457168579)" y="0" x="0" id="text-entity-RESOURCETAG-fa0f5bc0-d5bc-5868-b94e-0314bdb0b894-attr-3-key" class="er entityLabel">FK</text></g><rect height="14" width="17.71875" y="311.4795837402344" x="82.06330871582031" class="er relationshipLabelBox"/><text style="text-anchor: middle; dominant-baseline: middle; font-size: 12px;" y="318.4795837402344" x="90.92268371582031" id="rel1" class="er relationshipLabel">has</text><rect height="14" width="17.71875" y="329.9813537597656" x="220.1746063232422" class="er relationshipLabelBox"/><text style="text-anchor: middle; dominant-baseline: middle; font-size: 12px;" y="336.9813537597656" x="229.0339813232422" id="rel2" class="er relationshipLabel">has</text><rect height="14" width="17.71875" y="301.6203308105469" x="375.0081481933594" class="er relationshipLabelBox"/><text style="text-anchor: middle; dominant-baseline: middle; font-size: 12px;" y="308.6203308105469" x="383.8675231933594" id="rel3" class="er relationshipLabel">has</text><rect height="14" width="25.6875" y="132.3870849609375" x="225.09779357910156" class="er relationshipLabelBox"/><text style="text-anchor: middle; dominant-baseline: middle; font-size: 12px;" y="139.3870849609375" x="237.94154357910156" id="rel4" class="er relationshipLabel">joins</text><rect height="13.999984741210938" width="25.6875" y="245.27169036865234" x="340.93682861328125" class="er relationshipLabelBox"/><text style="text-anchor: middle; dominant-baseline: middle; font-size: 12px;" y="252.2716827392578" x="353.78057861328125" id="rel5" class="er relationshipLabel">joins</text><rect height="14" width="25.6875" y="206.65504455566406" x="545.189453125" class="er relationshipLabelBox"/><text style="text-anchor: middle; dominant-baseline: middle; font-size: 12px;" y="213.65504455566406" x="558.033203125" id="rel6" class="er relationshipLabel">joins</text><text class="entityTitleText" y="-25" x="306.05078125" text-anchor="middle">LinkLake database schema design</text></svg>