<svg aria-roledescription="er" role="graphics-document document" viewBox="0 -62 365.90625 1363.65234375" style="max-width: 365.906px; background-color: white;" xmlns:xlink="http://www.w3.org/1999/xlink" xmlns="http://www.w3.org/2000/svg" width="100%" id="my-svg"><style>#my-svg{font-family:"trebuchet ms",verdana,arial,sans-serif;font-size:16px;fill:#333;}#my-svg .error-icon{fill:#552222;}#my-svg .error-text{fill:#552222;stroke:#552222;}#my-svg .edge-thickness-normal{stroke-width:1px;}#my-svg .edge-thickness-thick{stroke-width:3.5px;}#my-svg .edge-pattern-solid{stroke-dasharray:0;}#my-svg .edge-thickness-invisible{stroke-width:0;fill:none;}#my-svg .edge-pattern-dashed{stroke-dasharray:3;}#my-svg .edge-pattern-dotted{stroke-dasharray:2;}#my-svg .marker{fill:#333333;stroke:#333333;}#my-svg .marker.cross{stroke:#333333;}#my-svg svg{font-family:"trebuchet ms",verdana,arial,sans-serif;font-size:16px;}#my-svg p{margin:0;}#my-svg .entityBox{fill:#ECECFF;stroke:#9370DB;}#my-svg .attributeBoxOdd{fill:#ffffff;stroke:#9370DB;}#my-svg .attributeBoxEven{fill:#f2f2f2;stroke:#9370DB;}#my-svg .relationshipLabelBox{fill:hsl(80, 100%, 96.2745098039%);opacity:0.7;background-color:hsl(80, 100%, 96.2745098039%);}#my-svg .relationshipLabelBox rect{opacity:0.5;}#my-svg .relationshipLine{stroke:#333333;}#my-svg .entityTitleText{text-anchor:middle;font-size:18px;fill:#333;}#my-svg #MD_PARENT_START{fill:#f5f5f5!important;stroke:#333333!important;stroke-width:1;}#my-svg #MD_PARENT_END{fill:#f5f5f5!important;stroke:#333333!important;stroke-width:1;}#my-svg :root{--mermaid-font-family:"trebuchet ms",verdana,arial,sans-serif;}</style><g/><defs><marker orient="auto" markerHeight="240" markerWidth="190" refY="7" refX="0" id="MD_PARENT_START"><path d="M 18,7 L9,13 L1,7 L9,1 Z"/></marker></defs><defs><marker orient="auto" markerHeight="28" markerWidth="20" refY="7" refX="19" id="MD_PARENT_END"><path d="M 18,7 L9,13 L1,7 L9,1 Z"/></marker></defs><defs><marker orient="auto" markerHeight="18" markerWidth="18" refY="9" refX="0" id="ONLY_ONE_START"><path d="M9,0 L9,18 M15,0 L15,18" fill="none" stroke="gray"/></marker></defs><defs><marker orient="auto" markerHeight="18" markerWidth="18" refY="9" refX="18" id="ONLY_ONE_END"><path d="M3,0 L3,18 M9,0 L9,18" fill="none" stroke="gray"/></marker></defs><defs><marker orient="auto" markerHeight="18" markerWidth="30" refY="9" refX="0" id="ZERO_OR_ONE_START"><circle r="6" cy="9" cx="21" fill="white" stroke="gray"/><path d="M9,0 L9,18" fill="none" stroke="gray"/></marker></defs><defs><marker orient="auto" markerHeight="18" markerWidth="30" refY="9" refX="30" id="ZERO_OR_ONE_END"><circle r="6" cy="9" cx="9" fill="white" stroke="gray"/><path d="M21,0 L21,18" fill="none" stroke="gray"/></marker></defs><defs><marker orient="auto" markerHeight="36" markerWidth="45" refY="18" refX="18" id="ONE_OR_MORE_START"><path d="M0,18 Q 18,0 36,18 Q 18,36 0,18 M42,9 L42,27" fill="none" stroke="gray"/></marker></defs><defs><marker orient="auto" markerHeight="36" markerWidth="45" refY="18" refX="27" id="ONE_OR_MORE_END"><path d="M3,9 L3,27 M9,18 Q27,0 45,18 Q27,36 9,18" fill="none" stroke="gray"/></marker></defs><defs><marker orient="auto" markerHeight="36" markerWidth="57" refY="18" refX="18" id="ZERO_OR_MORE_START"><circle r="6" cy="18" cx="48" fill="white" stroke="gray"/><path d="M0,18 Q18,0 36,18 Q18,36 0,18" fill="none" stroke="gray"/></marker></defs><defs><marker orient="auto" markerHeight="36" markerWidth="57" refY="18" refX="39" id="ZERO_OR_MORE_END"><circle r="6" cy="18" cx="9" fill="white" stroke="gray"/><path d="M21,18 Q39,0 57,18 Q39,36 21,18" fill="none" stroke="gray"/></marker></defs><path style="stroke: gray; fill: none;" marker-start="url(#ONLY_ONE_START)" marker-end="url(#ONLY_ONE_END)" d="M185.625,132.275L185.625,140.609C185.625,148.942,185.625,165.609,185.625,182.275C185.625,198.942,185.625,215.609,185.625,223.942L185.625,232.275" class="er relationshipLine"/><path style="stroke: gray; fill: none;" marker-start="url(#ONLY_ONE_START)" marker-end="url(#ONE_OR_MORE_END)" d="M185.625,322.367L185.625,330.701C185.625,339.034,185.625,355.701,185.625,372.367C185.625,389.034,185.625,405.701,185.625,414.034L185.625,422.367" class="er relationshipLine"/><path style="stroke: gray; fill: none;" marker-start="url(#ONLY_ONE_START)" marker-end="url(#ONE_OR_MORE_END)" d="M185.625,534.551L185.625,542.884C185.625,551.217,185.625,567.884,185.625,584.551C185.625,601.217,185.625,617.884,185.625,626.217L185.625,634.551" class="er relationshipLine"/><path style="stroke: gray; fill: none;" marker-start="url(#ZERO_OR_MORE_START)" marker-end="url(#ONLY_ONE_END)" d="M126.477,801.123L118.589,811.438C110.701,821.752,94.924,842.381,87.036,861.029C79.148,879.676,79.148,896.343,79.148,904.676L79.148,913.01" class="er relationshipLine"/><path style="stroke: gray; fill: none;" marker-start="url(#ONLY_ONE_START)" marker-end="url(#ZERO_OR_MORE_END)" d="M79.148,1003.193L79.148,1011.527C79.148,1019.86,79.148,1036.527,79.148,1053.193C79.148,1069.86,79.148,1086.527,79.148,1094.86L79.148,1103.193" class="er relationshipLine"/><path style="stroke: gray; fill: none;" marker-start="url(#ONLY_ONE_START)" marker-end="url(#ONLY_ONE_END)" d="M244.773,801.123L252.661,811.438C260.549,821.752,276.326,842.381,284.214,861.044C292.102,879.707,292.102,896.404,292.102,904.753L292.102,913.102" class="er relationshipLine"/><g transform="translate(129.8671875,20 )" id="entity-ACCOUNT-f130cb0a-4814-56a6-8bfb-dad0553367b9"><rect height="112.27539348602295" width="111.515625" y="0" x="0" class="er entityBox"/><text style="dominant-baseline: middle; text-anchor: middle; font-size: 12px;" transform="translate(55.7578125,12)" y="0" x="0" id="text-entity-ACCOUNT-f130cb0a-4814-56a6-8bfb-dad0553367b9" class="er entityLabel">ACCOUNT</text><rect height="22" width="35.75" y="24" x="0" class="er attributeBoxOdd"/><text style="dominant-baseline: middle; font-size: 10.2px;" transform="translate(5,35)" y="0" x="0" id="text-entity-ACCOUNT-f130cb0a-4814-56a6-8bfb-dad0553367b9-attr-1-type" class="er entityLabel">int</text><rect height="22" width="54.203125" y="24" x="35.75" class="er attributeBoxOdd"/><text style="dominant-baseline: middle; font-size: 10.2px;" transform="translate(40.75,35)" y="0" x="0" id="text-entity-ACCOUNT-f130cb0a-4814-56a6-8bfb-dad0553367b9-attr-1-name" class="er entityLabel">id</text><rect height="22" width="21.5625" y="24" x="89.953125" class="er attributeBoxOdd"/><text style="dominant-baseline: middle; font-size: 10.2px;" transform="translate(94.953125,35)" y="0" x="0" id="text-entity-ACCOUNT-f130cb0a-4814-56a6-8bfb-dad0553367b9-attr-1-key" class="er entityLabel">PK</text><rect height="22.091797828674316" width="35.75" y="46" x="0" class="er attributeBoxEven"/><text style="dominant-baseline: middle; font-size: 10.2px;" transform="translate(5,57.04589891433716)" y="0" x="0" id="text-entity-ACCOUNT-f130cb0a-4814-56a6-8bfb-dad0553367b9-attr-2-type" class="er entityLabel">string</text><rect height="22.091797828674316" width="54.203125" y="46" x="35.75" class="er attributeBoxEven"/><text style="dominant-baseline: middle; font-size: 10.2px;" transform="translate(40.75,57.04589891433716)" y="0" x="0" id="text-entity-ACCOUNT-f130cb0a-4814-56a6-8bfb-dad0553367b9-attr-2-name" class="er entityLabel">email</text><rect height="22.091797828674316" width="21.5625" y="46" x="89.953125" class="er attributeBoxEven"/><text style="dominant-baseline: middle; font-size: 10.2px;" transform="translate(94.953125,57.04589891433716)" y="0" x="0" id="text-entity-ACCOUNT-f130cb0a-4814-56a6-8bfb-dad0553367b9-attr-2-key" class="er entityLabel"/><rect height="22.091797828674316" width="35.75" y="68.09179782867432" x="0" class="er attributeBoxOdd"/><text style="dominant-baseline: middle; font-size: 10.2px;" transform="translate(5,79.13769674301147)" y="0" x="0" id="text-entity-ACCOUNT-f130cb0a-4814-56a6-8bfb-dad0553367b9-attr-3-type" class="er entityLabel">string</text><rect height="22.091797828674316" width="54.203125" y="68.09179782867432" x="35.75" class="er attributeBoxOdd"/><text style="dominant-baseline: middle; font-size: 10.2px;" transform="translate(40.75,79.13769674301147)" y="0" x="0" id="text-entity-ACCOUNT-f130cb0a-4814-56a6-8bfb-dad0553367b9-attr-3-name" class="er entityLabel">username</text><rect height="22.091797828674316" width="21.5625" y="68.09179782867432" x="89.953125" class="er attributeBoxOdd"/><text style="dominant-baseline: middle; font-size: 10.2px;" transform="translate(94.953125,79.13769674301147)" y="0" x="0" id="text-entity-ACCOUNT-f130cb0a-4814-56a6-8bfb-dad0553367b9-attr-3-key" class="er entityLabel"/><rect height="22.091797828674316" width="35.75" y="90.18359565734863" x="0" class="er attributeBoxEven"/><text style="dominant-baseline: middle; font-size: 10.2px;" transform="translate(5,101.22949457168579)" y="0" x="0" id="text-entity-ACCOUNT-f130cb0a-4814-56a6-8bfb-dad0553367b9-attr-4-type" class="er entityLabel">string</text><rect height="22.091797828674316" width="54.203125" y="90.18359565734863" x="35.75" class="er attributeBoxEven"/><text style="dominant-baseline: middle; font-size: 10.2px;" transform="translate(40.75,101.22949457168579)" y="0" x="0" id="text-entity-ACCOUNT-f130cb0a-4814-56a6-8bfb-dad0553367b9-attr-4-name" class="er entityLabel">password</text><rect height="22.091797828674316" width="21.5625" y="90.18359565734863" x="89.953125" class="er attributeBoxEven"/><text style="dominant-baseline: middle; font-size: 10.2px;" transform="translate(94.953125,101.22949457168579)" y="0" x="0" id="text-entity-ACCOUNT-f130cb0a-4814-56a6-8bfb-dad0553367b9-attr-4-key" class="er entityLabel"/></g><g transform="translate(129.640625,232.275390625 )" id="entity-BOARD-aa67d1a4-73b8-50a4-91cf-4c9c55c19b1d"><rect height="90.09179782867432" width="111.96875" y="0" x="0" class="er entityBox"/><text style="dominant-baseline: middle; text-anchor: middle; font-size: 12px;" transform="translate(55.984375,12)" y="0" x="0" id="text-entity-BOARD-aa67d1a4-73b8-50a4-91cf-4c9c55c19b1d" class="er entityLabel">BOARD</text><rect height="22" width="35.75" y="24" x="0" class="er attributeBoxOdd"/><text style="dominant-baseline: middle; font-size: 10.2px;" transform="translate(5,35)" y="0" x="0" id="text-entity-BOARD-aa67d1a4-73b8-50a4-91cf-4c9c55c19b1d-attr-1-type" class="er entityLabel">int</text><rect height="22" width="54.65625" y="24" x="35.75" class="er attributeBoxOdd"/><text style="dominant-baseline: middle; font-size: 10.2px;" transform="translate(40.75,35)" y="0" x="0" id="text-entity-BOARD-aa67d1a4-73b8-50a4-91cf-4c9c55c19b1d-attr-1-name" class="er entityLabel">id</text><rect height="22" width="21.5625" y="24" x="90.40625" class="er attributeBoxOdd"/><text style="dominant-baseline: middle; font-size: 10.2px;" transform="translate(95.40625,35)" y="0" x="0" id="text-entity-BOARD-aa67d1a4-73b8-50a4-91cf-4c9c55c19b1d-attr-1-key" class="er entityLabel">PK</text><rect height="22" width="35.75" y="46" x="0" class="er attributeBoxEven"/><text style="dominant-baseline: middle; font-size: 10.2px;" transform="translate(5,57)" y="0" x="0" id="text-entity-BOARD-aa67d1a4-73b8-50a4-91cf-4c9c55c19b1d-attr-2-type" class="er entityLabel">int</text><rect height="22" width="54.65625" y="46" x="35.75" class="er attributeBoxEven"/><text style="dominant-baseline: middle; font-size: 10.2px;" transform="translate(40.75,57)" y="0" x="0" id="text-entity-BOARD-aa67d1a4-73b8-50a4-91cf-4c9c55c19b1d-attr-2-name" class="er entityLabel">accountId</text><rect height="22" width="21.5625" y="46" x="90.40625" class="er attributeBoxEven"/><text style="dominant-baseline: middle; font-size: 10.2px;" transform="translate(95.40625,57)" y="0" x="0" id="text-entity-BOARD-aa67d1a4-73b8-50a4-91cf-4c9c55c19b1d-attr-2-key" class="er entityLabel">FK</text><rect height="22.091797828674316" width="35.75" y="68" x="0" class="er attributeBoxOdd"/><text style="dominant-baseline: middle; font-size: 10.2px;" transform="translate(5,79.04589891433716)" y="0" x="0" id="text-entity-BOARD-aa67d1a4-73b8-50a4-91cf-4c9c55c19b1d-attr-3-type" class="er entityLabel">string</text><rect height="22.091797828674316" width="54.65625" y="68" x="35.75" class="er attributeBoxOdd"/><text style="dominant-baseline: middle; font-size: 10.2px;" transform="translate(40.75,79.04589891433716)" y="0" x="0" id="text-entity-BOARD-aa67d1a4-73b8-50a4-91cf-4c9c55c19b1d-attr-3-name" class="er entityLabel">title</text><rect height="22.091797828674316" width="21.5625" y="68" x="90.40625" class="er attributeBoxOdd"/><text style="dominant-baseline: middle; font-size: 10.2px;" transform="translate(95.40625,79.04589891433716)" y="0" x="0" id="text-entity-BOARD-aa67d1a4-73b8-50a4-91cf-4c9c55c19b1d-attr-3-key" class="er entityLabel"/></g><g transform="translate(133.8671875,422.3671875 )" id="entity-COLUMN-7f883bc8-a7c5-556e-aa76-b26629a09ce0"><rect height="112.18359565734863" width="103.515625" y="0" x="0" class="er entityBox"/><text style="dominant-baseline: middle; text-anchor: middle; font-size: 12px;" transform="translate(51.7578125,12)" y="0" x="0" id="text-entity-COLUMN-7f883bc8-a7c5-556e-aa76-b26629a09ce0" class="er entityLabel">COLUMN</text><rect height="22" width="35.75" y="24" x="0" class="er attributeBoxOdd"/><text style="dominant-baseline: middle; font-size: 10.2px;" transform="translate(5,35)" y="0" x="0" id="text-entity-COLUMN-7f883bc8-a7c5-556e-aa76-b26629a09ce0-attr-1-type" class="er entityLabel">int</text><rect height="22" width="46.203125" y="24" x="35.75" class="er attributeBoxOdd"/><text style="dominant-baseline: middle; font-size: 10.2px;" transform="translate(40.75,35)" y="0" x="0" id="text-entity-COLUMN-7f883bc8-a7c5-556e-aa76-b26629a09ce0-attr-1-name" class="er entityLabel">id</text><rect height="22" width="21.5625" y="24" x="81.953125" class="er attributeBoxOdd"/><text style="dominant-baseline: middle; font-size: 10.2px;" transform="translate(86.953125,35)" y="0" x="0" id="text-entity-COLUMN-7f883bc8-a7c5-556e-aa76-b26629a09ce0-attr-1-key" class="er entityLabel">PK</text><rect height="22" width="35.75" y="46" x="0" class="er attributeBoxEven"/><text style="dominant-baseline: middle; font-size: 10.2px;" transform="translate(5,57)" y="0" x="0" id="text-entity-COLUMN-7f883bc8-a7c5-556e-aa76-b26629a09ce0-attr-2-type" class="er entityLabel">int</text><rect height="22" width="46.203125" y="46" x="35.75" class="er attributeBoxEven"/><text style="dominant-baseline: middle; font-size: 10.2px;" transform="translate(40.75,57)" y="0" x="0" id="text-entity-COLUMN-7f883bc8-a7c5-556e-aa76-b26629a09ce0-attr-2-name" class="er entityLabel">boardId</text><rect height="22" width="21.5625" y="46" x="81.953125" class="er attributeBoxEven"/><text style="dominant-baseline: middle; font-size: 10.2px;" transform="translate(86.953125,57)" y="0" x="0" id="text-entity-COLUMN-7f883bc8-a7c5-556e-aa76-b26629a09ce0-attr-2-key" class="er entityLabel">FK</text><rect height="22.091797828674316" width="35.75" y="68" x="0" class="er attributeBoxOdd"/><text style="dominant-baseline: middle; font-size: 10.2px;" transform="translate(5,79.04589891433716)" y="0" x="0" id="text-entity-COLUMN-7f883bc8-a7c5-556e-aa76-b26629a09ce0-attr-3-type" class="er entityLabel">string</text><rect height="22.091797828674316" width="46.203125" y="68" x="35.75" class="er attributeBoxOdd"/><text style="dominant-baseline: middle; font-size: 10.2px;" transform="translate(40.75,79.04589891433716)" y="0" x="0" id="text-entity-COLUMN-7f883bc8-a7c5-556e-aa76-b26629a09ce0-attr-3-name" class="er entityLabel">title</text><rect height="22.091797828674316" width="21.5625" y="68" x="81.953125" class="er attributeBoxOdd"/><text style="dominant-baseline: middle; font-size: 10.2px;" transform="translate(86.953125,79.04589891433716)" y="0" x="0" id="text-entity-COLUMN-7f883bc8-a7c5-556e-aa76-b26629a09ce0-attr-3-key" class="er entityLabel"/><rect height="22.091797828674316" width="35.75" y="90.09179782867432" x="0" class="er attributeBoxEven"/><text style="dominant-baseline: middle; font-size: 10.2px;" transform="translate(5,101.13769674301147)" y="0" x="0" id="text-entity-COLUMN-7f883bc8-a7c5-556e-aa76-b26629a09ce0-attr-4-type" class="er entityLabel">int</text><rect height="22.091797828674316" width="46.203125" y="90.09179782867432" x="35.75" class="er attributeBoxEven"/><text style="dominant-baseline: middle; font-size: 10.2px;" transform="translate(40.75,101.13769674301147)" y="0" x="0" id="text-entity-COLUMN-7f883bc8-a7c5-556e-aa76-b26629a09ce0-attr-4-name" class="er entityLabel">position</text><rect height="22.091797828674316" width="21.5625" y="90.09179782867432" x="81.953125" class="er attributeBoxEven"/><text style="dominant-baseline: middle; font-size: 10.2px;" transform="translate(86.953125,101.13769674301147)" y="0" x="0" id="text-entity-COLUMN-7f883bc8-a7c5-556e-aa76-b26629a09ce0-attr-4-key" class="er entityLabel"/></g><g transform="translate(126.4765625,634.55078125 )" id="entity-CARD-2533ca9f-19be-51f9-b4bd-6aa7fabd52ca"><rect height="178.45898818969727" width="118.296875" y="0" x="0" class="er entityBox"/><text style="dominant-baseline: middle; text-anchor: middle; font-size: 12px;" transform="translate(59.1484375,12)" y="0" x="0" id="text-entity-CARD-2533ca9f-19be-51f9-b4bd-6aa7fabd52ca" class="er entityLabel">CARD</text><rect height="22" width="35.75" y="24" x="0" class="er attributeBoxOdd"/><text style="dominant-baseline: middle; font-size: 10.2px;" transform="translate(5,35)" y="0" x="0" id="text-entity-CARD-2533ca9f-19be-51f9-b4bd-6aa7fabd52ca-attr-1-type" class="er entityLabel">int</text><rect height="22" width="60.984375" y="24" x="35.75" class="er attributeBoxOdd"/><text style="dominant-baseline: middle; font-size: 10.2px;" transform="translate(40.75,35)" y="0" x="0" id="text-entity-CARD-2533ca9f-19be-51f9-b4bd-6aa7fabd52ca-attr-1-name" class="er entityLabel">id</text><rect height="22" width="21.5625" y="24" x="96.734375" class="er attributeBoxOdd"/><text style="dominant-baseline: middle; font-size: 10.2px;" transform="translate(101.734375,35)" y="0" x="0" id="text-entity-CARD-2533ca9f-19be-51f9-b4bd-6aa7fabd52ca-attr-1-key" class="er entityLabel">PK</text><rect height="22" width="35.75" y="46" x="0" class="er attributeBoxEven"/><text style="dominant-baseline: middle; font-size: 10.2px;" transform="translate(5,57)" y="0" x="0" id="text-entity-CARD-2533ca9f-19be-51f9-b4bd-6aa7fabd52ca-attr-2-type" class="er entityLabel">int</text><rect height="22" width="60.984375" y="46" x="35.75" class="er attributeBoxEven"/><text style="dominant-baseline: middle; font-size: 10.2px;" transform="translate(40.75,57)" y="0" x="0" id="text-entity-CARD-2533ca9f-19be-51f9-b4bd-6aa7fabd52ca-attr-2-name" class="er entityLabel">columnId</text><rect height="22" width="21.5625" y="46" x="96.734375" class="er attributeBoxEven"/><text style="dominant-baseline: middle; font-size: 10.2px;" transform="translate(101.734375,57)" y="0" x="0" id="text-entity-CARD-2533ca9f-19be-51f9-b4bd-6aa7fabd52ca-attr-2-key" class="er entityLabel">FK</text><rect height="22.091796875" width="35.75" y="68" x="0" class="er attributeBoxOdd"/><text style="dominant-baseline: middle; font-size: 10.2px;" transform="translate(5,79.0458984375)" y="0" x="0" id="text-entity-CARD-2533ca9f-19be-51f9-b4bd-6aa7fabd52ca-attr-3-type" class="er entityLabel">int</text><rect height="22.091796875" width="60.984375" y="68" x="35.75" class="er attributeBoxOdd"/><text style="dominant-baseline: middle; font-size: 10.2px;" transform="translate(40.75,79.0458984375)" y="0" x="0" id="text-entity-CARD-2533ca9f-19be-51f9-b4bd-6aa7fabd52ca-attr-3-name" class="er entityLabel">companyId</text><rect height="22.091796875" width="21.5625" y="68" x="96.734375" class="er attributeBoxOdd"/><text style="dominant-baseline: middle; font-size: 10.2px;" transform="translate(101.734375,79.0458984375)" y="0" x="0" id="text-entity-CARD-2533ca9f-19be-51f9-b4bd-6aa7fabd52ca-attr-3-key" class="er entityLabel">FK</text><rect height="22.091797828674316" width="35.75" y="90.091796875" x="0" class="er attributeBoxEven"/><text style="dominant-baseline: middle; font-size: 10.2px;" transform="translate(5,101.13769578933716)" y="0" x="0" id="text-entity-CARD-2533ca9f-19be-51f9-b4bd-6aa7fabd52ca-attr-4-type" class="er entityLabel">string</text><rect height="22.091797828674316" width="60.984375" y="90.091796875" x="35.75" class="er attributeBoxEven"/><text style="dominant-baseline: middle; font-size: 10.2px;" transform="translate(40.75,101.13769578933716)" y="0" x="0" id="text-entity-CARD-2533ca9f-19be-51f9-b4bd-6aa7fabd52ca-attr-4-name" class="er entityLabel">title</text><rect height="22.091797828674316" width="21.5625" y="90.091796875" x="96.734375" class="er attributeBoxEven"/><text style="dominant-baseline: middle; font-size: 10.2px;" transform="translate(101.734375,101.13769578933716)" y="0" x="0" id="text-entity-CARD-2533ca9f-19be-51f9-b4bd-6aa7fabd52ca-attr-4-key" class="er entityLabel"/><rect height="22.091797828674316" width="35.75" y="112.18359470367432" x="0" class="er attributeBoxOdd"/><text style="dominant-baseline: middle; font-size: 10.2px;" transform="translate(5,123.22949361801147)" y="0" x="0" id="text-entity-CARD-2533ca9f-19be-51f9-b4bd-6aa7fabd52ca-attr-5-type" class="er entityLabel">string</text><rect height="22.091797828674316" width="60.984375" y="112.18359470367432" x="35.75" class="er attributeBoxOdd"/><text style="dominant-baseline: middle; font-size: 10.2px;" transform="translate(40.75,123.22949361801147)" y="0" x="0" id="text-entity-CARD-2533ca9f-19be-51f9-b4bd-6aa7fabd52ca-attr-5-name" class="er entityLabel">description</text><rect height="22.091797828674316" width="21.5625" y="112.18359470367432" x="96.734375" class="er attributeBoxOdd"/><text style="dominant-baseline: middle; font-size: 10.2px;" transform="translate(101.734375,123.22949361801147)" y="0" x="0" id="text-entity-CARD-2533ca9f-19be-51f9-b4bd-6aa7fabd52ca-attr-5-key" class="er entityLabel"/><rect height="22.091797828674316" width="35.75" y="134.27539253234863" x="0" class="er attributeBoxEven"/><text style="dominant-baseline: middle; font-size: 10.2px;" transform="translate(5,145.3212914466858)" y="0" x="0" id="text-entity-CARD-2533ca9f-19be-51f9-b4bd-6aa7fabd52ca-attr-6-type" class="er entityLabel">string</text><rect height="22.091797828674316" width="60.984375" y="134.27539253234863" x="35.75" class="er attributeBoxEven"/><text style="dominant-baseline: middle; font-size: 10.2px;" transform="translate(40.75,145.3212914466858)" y="0" x="0" id="text-entity-CARD-2533ca9f-19be-51f9-b4bd-6aa7fabd52ca-attr-6-name" class="er entityLabel">note</text><rect height="22.091797828674316" width="21.5625" y="134.27539253234863" x="96.734375" class="er attributeBoxEven"/><text style="dominant-baseline: middle; font-size: 10.2px;" transform="translate(101.734375,145.3212914466858)" y="0" x="0" id="text-entity-CARD-2533ca9f-19be-51f9-b4bd-6aa7fabd52ca-attr-6-key" class="er entityLabel"/><rect height="22.091797828674316" width="35.75" y="156.36719036102295" x="0" class="er attributeBoxOdd"/><text style="dominant-baseline: middle; font-size: 10.2px;" transform="translate(5,167.4130892753601)" y="0" x="0" id="text-entity-CARD-2533ca9f-19be-51f9-b4bd-6aa7fabd52ca-attr-7-type" class="er entityLabel">int</text><rect height="22.091797828674316" width="60.984375" y="156.36719036102295" x="35.75" class="er attributeBoxOdd"/><text style="dominant-baseline: middle; font-size: 10.2px;" transform="translate(40.75,167.4130892753601)" y="0" x="0" id="text-entity-CARD-2533ca9f-19be-51f9-b4bd-6aa7fabd52ca-attr-7-name" class="er entityLabel">position</text><rect height="22.091797828674316" width="21.5625" y="156.36719036102295" x="96.734375" class="er attributeBoxOdd"/><text style="dominant-baseline: middle; font-size: 10.2px;" transform="translate(101.734375,167.4130892753601)" y="0" x="0" id="text-entity-CARD-2533ca9f-19be-51f9-b4bd-6aa7fabd52ca-attr-7-key" class="er entityLabel"/></g><g transform="translate(20,913.009765625 )" id="entity-COMPANY-1f691400-099c-5213-80c0-52cd73efcd42"><rect height="90.18359565734863" width="118.296875" y="0" x="0" class="er entityBox"/><text style="dominant-baseline: middle; text-anchor: middle; font-size: 12px;" transform="translate(59.1484375,12)" y="0" x="0" id="text-entity-COMPANY-1f691400-099c-5213-80c0-52cd73efcd42" class="er entityLabel">COMPANY</text><rect height="22" width="35.75" y="24" x="0" class="er attributeBoxOdd"/><text style="dominant-baseline: middle; font-size: 10.2px;" transform="translate(5,35)" y="0" x="0" id="text-entity-COMPANY-1f691400-099c-5213-80c0-52cd73efcd42-attr-1-type" class="er entityLabel">int</text><rect height="22" width="60.984375" y="24" x="35.75" class="er attributeBoxOdd"/><text style="dominant-baseline: middle; font-size: 10.2px;" transform="translate(40.75,35)" y="0" x="0" id="text-entity-COMPANY-1f691400-099c-5213-80c0-52cd73efcd42-attr-1-name" class="er entityLabel">id</text><rect height="22" width="21.5625" y="24" x="96.734375" class="er attributeBoxOdd"/><text style="dominant-baseline: middle; font-size: 10.2px;" transform="translate(101.734375,35)" y="0" x="0" id="text-entity-COMPANY-1f691400-099c-5213-80c0-52cd73efcd42-attr-1-key" class="er entityLabel">PK</text><rect height="22.091797828674316" width="35.75" y="46" x="0" class="er attributeBoxEven"/><text style="dominant-baseline: middle; font-size: 10.2px;" transform="translate(5,57.04589891433716)" y="0" x="0" id="text-entity-COMPANY-1f691400-099c-5213-80c0-52cd73efcd42-attr-2-type" class="er entityLabel">string</text><rect height="22.091797828674316" width="60.984375" y="46" x="35.75" class="er attributeBoxEven"/><text style="dominant-baseline: middle; font-size: 10.2px;" transform="translate(40.75,57.04589891433716)" y="0" x="0" id="text-entity-COMPANY-1f691400-099c-5213-80c0-52cd73efcd42-attr-2-name" class="er entityLabel">name</text><rect height="22.091797828674316" width="21.5625" y="46" x="96.734375" class="er attributeBoxEven"/><text style="dominant-baseline: middle; font-size: 10.2px;" transform="translate(101.734375,57.04589891433716)" y="0" x="0" id="text-entity-COMPANY-1f691400-099c-5213-80c0-52cd73efcd42-attr-2-key" class="er entityLabel"/><rect height="22.091797828674316" width="35.75" y="68.09179782867432" x="0" class="er attributeBoxOdd"/><text style="dominant-baseline: middle; font-size: 10.2px;" transform="translate(5,79.13769674301147)" y="0" x="0" id="text-entity-COMPANY-1f691400-099c-5213-80c0-52cd73efcd42-attr-3-type" class="er entityLabel">string</text><rect height="22.091797828674316" width="60.984375" y="68.09179782867432" x="35.75" class="er attributeBoxOdd"/><text style="dominant-baseline: middle; font-size: 10.2px;" transform="translate(40.75,79.13769674301147)" y="0" x="0" id="text-entity-COMPANY-1f691400-099c-5213-80c0-52cd73efcd42-attr-3-name" class="er entityLabel">description</text><rect height="22.091797828674316" width="21.5625" y="68.09179782867432" x="96.734375" class="er attributeBoxOdd"/><text style="dominant-baseline: middle; font-size: 10.2px;" transform="translate(101.734375,79.13769674301147)" y="0" x="0" id="text-entity-COMPANY-1f691400-099c-5213-80c0-52cd73efcd42-attr-3-key" class="er entityLabel"/></g><g transform="translate(20.90625,1103.193359375 )" id="entity-CONTACT-26691264-9be6-58e8-9300-138d9eadaa87"><rect height="178.45898818969727" width="116.484375" y="0" x="0" class="er entityBox"/><text style="dominant-baseline: middle; text-anchor: middle; font-size: 12px;" transform="translate(58.2421875,12)" y="0" x="0" id="text-entity-CONTACT-26691264-9be6-58e8-9300-138d9eadaa87" class="er entityLabel">CONTACT</text><rect height="22" width="35.75" y="24" x="0" class="er attributeBoxOdd"/><text style="dominant-baseline: middle; font-size: 10.2px;" transform="translate(5,35)" y="0" x="0" id="text-entity-CONTACT-26691264-9be6-58e8-9300-138d9eadaa87-attr-1-type" class="er entityLabel">int</text><rect height="22" width="59.171875" y="24" x="35.75" class="er attributeBoxOdd"/><text style="dominant-baseline: middle; font-size: 10.2px;" transform="translate(40.75,35)" y="0" x="0" id="text-entity-CONTACT-26691264-9be6-58e8-9300-138d9eadaa87-attr-1-name" class="er entityLabel">id</text><rect height="22" width="21.5625" y="24" x="94.921875" class="er attributeBoxOdd"/><text style="dominant-baseline: middle; font-size: 10.2px;" transform="translate(99.921875,35)" y="0" x="0" id="text-entity-CONTACT-26691264-9be6-58e8-9300-138d9eadaa87-attr-1-key" class="er entityLabel">PK</text><rect height="22.091796875" width="35.75" y="46" x="0" class="er attributeBoxEven"/><text style="dominant-baseline: middle; font-size: 10.2px;" transform="translate(5,57.0458984375)" y="0" x="0" id="text-entity-CONTACT-26691264-9be6-58e8-9300-138d9eadaa87-attr-2-type" class="er entityLabel">int</text><rect height="22.091796875" width="59.171875" y="46" x="35.75" class="er attributeBoxEven"/><text style="dominant-baseline: middle; font-size: 10.2px;" transform="translate(40.75,57.0458984375)" y="0" x="0" id="text-entity-CONTACT-26691264-9be6-58e8-9300-138d9eadaa87-attr-2-name" class="er entityLabel">companyId</text><rect height="22.091796875" width="21.5625" y="46" x="94.921875" class="er attributeBoxEven"/><text style="dominant-baseline: middle; font-size: 10.2px;" transform="translate(99.921875,57.0458984375)" y="0" x="0" id="text-entity-CONTACT-26691264-9be6-58e8-9300-138d9eadaa87-attr-2-key" class="er entityLabel">FK</text><rect height="22.091797828674316" width="35.75" y="68.091796875" x="0" class="er attributeBoxOdd"/><text style="dominant-baseline: middle; font-size: 10.2px;" transform="translate(5,79.13769578933716)" y="0" x="0" id="text-entity-CONTACT-26691264-9be6-58e8-9300-138d9eadaa87-attr-3-type" class="er entityLabel">string</text><rect height="22.091797828674316" width="59.171875" y="68.091796875" x="35.75" class="er attributeBoxOdd"/><text style="dominant-baseline: middle; font-size: 10.2px;" transform="translate(40.75,79.13769578933716)" y="0" x="0" id="text-entity-CONTACT-26691264-9be6-58e8-9300-138d9eadaa87-attr-3-name" class="er entityLabel">name</text><rect height="22.091797828674316" width="21.5625" y="68.091796875" x="94.921875" class="er attributeBoxOdd"/><text style="dominant-baseline: middle; font-size: 10.2px;" transform="translate(99.921875,79.13769578933716)" y="0" x="0" id="text-entity-CONTACT-26691264-9be6-58e8-9300-138d9eadaa87-attr-3-key" class="er entityLabel"/><rect height="22.091797828674316" width="35.75" y="90.18359470367432" x="0" class="er attributeBoxEven"/><text style="dominant-baseline: middle; font-size: 10.2px;" transform="translate(5,101.22949361801147)" y="0" x="0" id="text-entity-CONTACT-26691264-9be6-58e8-9300-138d9eadaa87-attr-4-type" class="er entityLabel">string</text><rect height="22.091797828674316" width="59.171875" y="90.18359470367432" x="35.75" class="er attributeBoxEven"/><text style="dominant-baseline: middle; font-size: 10.2px;" transform="translate(40.75,101.22949361801147)" y="0" x="0" id="text-entity-CONTACT-26691264-9be6-58e8-9300-138d9eadaa87-attr-4-name" class="er entityLabel">email</text><rect height="22.091797828674316" width="21.5625" y="90.18359470367432" x="94.921875" class="er attributeBoxEven"/><text style="dominant-baseline: middle; font-size: 10.2px;" transform="translate(99.921875,101.22949361801147)" y="0" x="0" id="text-entity-CONTACT-26691264-9be6-58e8-9300-138d9eadaa87-attr-4-key" class="er entityLabel"/><rect height="22.091797828674316" width="35.75" y="112.27539253234863" x="0" class="er attributeBoxOdd"/><text style="dominant-baseline: middle; font-size: 10.2px;" transform="translate(5,123.32129144668579)" y="0" x="0" id="text-entity-CONTACT-26691264-9be6-58e8-9300-138d9eadaa87-attr-5-type" class="er entityLabel">string</text><rect height="22.091797828674316" width="59.171875" y="112.27539253234863" x="35.75" class="er attributeBoxOdd"/><text style="dominant-baseline: middle; font-size: 10.2px;" transform="translate(40.75,123.32129144668579)" y="0" x="0" id="text-entity-CONTACT-26691264-9be6-58e8-9300-138d9eadaa87-attr-5-name" class="er entityLabel">twitter</text><rect height="22.091797828674316" width="21.5625" y="112.27539253234863" x="94.921875" class="er attributeBoxOdd"/><text style="dominant-baseline: middle; font-size: 10.2px;" transform="translate(99.921875,123.32129144668579)" y="0" x="0" id="text-entity-CONTACT-26691264-9be6-58e8-9300-138d9eadaa87-attr-5-key" class="er entityLabel"/><rect height="22.091797828674316" width="35.75" y="134.36719036102295" x="0" class="er attributeBoxEven"/><text style="dominant-baseline: middle; font-size: 10.2px;" transform="translate(5,145.4130892753601)" y="0" x="0" id="text-entity-CONTACT-26691264-9be6-58e8-9300-138d9eadaa87-attr-6-type" class="er entityLabel">string</text><rect height="22.091797828674316" width="59.171875" y="134.36719036102295" x="35.75" class="er attributeBoxEven"/><text style="dominant-baseline: middle; font-size: 10.2px;" transform="translate(40.75,145.4130892753601)" y="0" x="0" id="text-entity-CONTACT-26691264-9be6-58e8-9300-138d9eadaa87-attr-6-name" class="er entityLabel">linkedin</text><rect height="22.091797828674316" width="21.5625" y="134.36719036102295" x="94.921875" class="er attributeBoxEven"/><text style="dominant-baseline: middle; font-size: 10.2px;" transform="translate(99.921875,145.4130892753601)" y="0" x="0" id="text-entity-CONTACT-26691264-9be6-58e8-9300-138d9eadaa87-attr-6-key" class="er entityLabel"/><rect height="22" width="35.75" y="156.45898818969727" x="0" class="er attributeBoxOdd"/><text style="dominant-baseline: middle; font-size: 10.2px;" transform="translate(5,167.45898818969727)" y="0" x="0" id="text-entity-CONTACT-26691264-9be6-58e8-9300-138d9eadaa87-attr-7-type" class="er entityLabel">text</text><rect height="22" width="59.171875" y="156.45898818969727" x="35.75" class="er attributeBoxOdd"/><text style="dominant-baseline: middle; font-size: 10.2px;" transform="translate(40.75,167.45898818969727)" y="0" x="0" id="text-entity-CONTACT-26691264-9be6-58e8-9300-138d9eadaa87-attr-7-name" class="er entityLabel">note</text><rect height="22" width="21.5625" y="156.45898818969727" x="94.921875" class="er attributeBoxOdd"/><text style="dominant-baseline: middle; font-size: 10.2px;" transform="translate(99.921875,167.45898818969727)" y="0" x="0" id="text-entity-CONTACT-26691264-9be6-58e8-9300-138d9eadaa87-attr-7-key" class="er entityLabel"/></g><g transform="translate(238.296875,913.1015625 )" id="entity-TODO-7adb7c38-975c-5786-a33e-2542903f0e18"><rect height="90" width="107.609375" y="0" x="0" class="er entityBox"/><text style="dominant-baseline: middle; text-anchor: middle; font-size: 12px;" transform="translate(53.8046875,12)" y="0" x="0" id="text-entity-TODO-7adb7c38-975c-5786-a33e-2542903f0e18" class="er entityLabel">TODO</text><rect height="22" width="46.140625" y="24" x="0" class="er attributeBoxOdd"/><text style="dominant-baseline: middle; font-size: 10.2px;" transform="translate(5,35)" y="0" x="0" id="text-entity-TODO-7adb7c38-975c-5786-a33e-2542903f0e18-attr-1-type" class="er entityLabel">int</text><rect height="22" width="39.90625" y="24" x="46.140625" class="er attributeBoxOdd"/><text style="dominant-baseline: middle; font-size: 10.2px;" transform="translate(51.140625,35)" y="0" x="0" id="text-entity-TODO-7adb7c38-975c-5786-a33e-2542903f0e18-attr-1-name" class="er entityLabel">id</text><rect height="22" width="21.5625" y="24" x="86.046875" class="er attributeBoxOdd"/><text style="dominant-baseline: middle; font-size: 10.2px;" transform="translate(91.046875,35)" y="0" x="0" id="text-entity-TODO-7adb7c38-975c-5786-a33e-2542903f0e18-attr-1-key" class="er entityLabel">PK</text><rect height="22" width="46.140625" y="46" x="0" class="er attributeBoxEven"/><text style="dominant-baseline: middle; font-size: 10.2px;" transform="translate(5,57)" y="0" x="0" id="text-entity-TODO-7adb7c38-975c-5786-a33e-2542903f0e18-attr-2-type" class="er entityLabel">int</text><rect height="22" width="39.90625" y="46" x="46.140625" class="er attributeBoxEven"/><text style="dominant-baseline: middle; font-size: 10.2px;" transform="translate(51.140625,57)" y="0" x="0" id="text-entity-TODO-7adb7c38-975c-5786-a33e-2542903f0e18-attr-2-name" class="er entityLabel">cardId</text><rect height="22" width="21.5625" y="46" x="86.046875" class="er attributeBoxEven"/><text style="dominant-baseline: middle; font-size: 10.2px;" transform="translate(91.046875,57)" y="0" x="0" id="text-entity-TODO-7adb7c38-975c-5786-a33e-2542903f0e18-attr-2-key" class="er entityLabel">FK</text><rect height="22" width="46.140625" y="68" x="0" class="er attributeBoxOdd"/><text style="dominant-baseline: middle; font-size: 10.2px;" transform="translate(5,79)" y="0" x="0" id="text-entity-TODO-7adb7c38-975c-5786-a33e-2542903f0e18-attr-3-type" class="er entityLabel">boolean</text><rect height="22" width="39.90625" y="68" x="46.140625" class="er attributeBoxOdd"/><text style="dominant-baseline: middle; font-size: 10.2px;" transform="translate(51.140625,79)" y="0" x="0" id="text-entity-TODO-7adb7c38-975c-5786-a33e-2542903f0e18-attr-3-name" class="er entityLabel">isDone</text><rect height="22" width="21.5625" y="68" x="86.046875" class="er attributeBoxOdd"/><text style="dominant-baseline: middle; font-size: 10.2px;" transform="translate(91.046875,79)" y="0" x="0" id="text-entity-TODO-7adb7c38-975c-5786-a33e-2542903f0e18-attr-3-key" class="er entityLabel"/></g><rect height="14" width="17.71875" y="175.27499389648438" x="176.765625" class="er relationshipLabelBox"/><text style="text-anchor: middle; dominant-baseline: middle; font-size: 12px;" y="182.27499389648438" x="185.625" id="rel1" class="er relationshipLabel">has</text><rect height="14" width="44.84375" y="365.36700439453125" x="163.203125" class="er relationshipLabelBox"/><text style="text-anchor: middle; dominant-baseline: middle; font-size: 12px;" y="372.36700439453125" x="185.625" id="rel2" class="er relationshipLabel">contains</text><rect height="14" width="44.84375" y="577.551025390625" x="163.203125" class="er relationshipLabelBox"/><text style="text-anchor: middle; dominant-baseline: middle; font-size: 12px;" y="584.551025390625" x="185.625" id="rel3" class="er relationshipLabel">contains</text><rect height="14" width="24.4375" y="845.4976196289062" x="78.87185668945312" class="er relationshipLabelBox"/><text style="text-anchor: middle; dominant-baseline: middle; font-size: 12px;" y="852.4976196289062" x="91.09060668945312" id="rel4" class="er relationshipLabel">links</text><rect height="14" width="44.84375" y="1046.1929931640625" x="56.72612762451172" class="er relationshipLabelBox"/><text style="text-anchor: middle; dominant-baseline: middle; font-size: 12px;" y="1053.1929931640625" x="79.14800262451172" id="rel5" class="er relationshipLabel">contains</text><rect height="14" width="44.84375" y="845.539306640625" x="257.7544250488281" class="er relationshipLabelBox"/><text style="text-anchor: middle; dominant-baseline: middle; font-size: 12px;" y="852.539306640625" x="280.1763000488281" id="rel6" class="er relationshipLabel">contains</text><text class="entityTitleText" y="-25" x="182.953125" text-anchor="middle">100hunters database schema</text></svg>