<svg aria-roledescription="er" role="graphics-document document" viewBox="0 0 968.04296875 1208.478515625" style="max-width: 968.043px; background-color: white;" xmlns:xlink="http://www.w3.org/1999/xlink" xmlns="http://www.w3.org/2000/svg" width="100%" id="my-svg"><style>#my-svg{font-family:"trebuchet ms",verdana,arial,sans-serif;font-size:16px;fill:#333;}#my-svg .error-icon{fill:#552222;}#my-svg .error-text{fill:#552222;stroke:#552222;}#my-svg .edge-thickness-normal{stroke-width:1px;}#my-svg .edge-thickness-thick{stroke-width:3.5px;}#my-svg .edge-pattern-solid{stroke-dasharray:0;}#my-svg .edge-thickness-invisible{stroke-width:0;fill:none;}#my-svg .edge-pattern-dashed{stroke-dasharray:3;}#my-svg .edge-pattern-dotted{stroke-dasharray:2;}#my-svg .marker{fill:#333333;stroke:#333333;}#my-svg .marker.cross{stroke:#333333;}#my-svg svg{font-family:"trebuchet ms",verdana,arial,sans-serif;font-size:16px;}#my-svg p{margin:0;}#my-svg .entityBox{fill:#ECECFF;stroke:#9370DB;}#my-svg .attributeBoxOdd{fill:#ffffff;stroke:#9370DB;}#my-svg .attributeBoxEven{fill:#f2f2f2;stroke:#9370DB;}#my-svg .relationshipLabelBox{fill:hsl(80, 100%, 96.2745098039%);opacity:0.7;background-color:hsl(80, 100%, 96.2745098039%);}#my-svg .relationshipLabelBox rect{opacity:0.5;}#my-svg .relationshipLine{stroke:#333333;}#my-svg .entityTitleText{text-anchor:middle;font-size:18px;fill:#333;}#my-svg #MD_PARENT_START{fill:#f5f5f5!important;stroke:#333333!important;stroke-width:1;}#my-svg #MD_PARENT_END{fill:#f5f5f5!important;stroke:#333333!important;stroke-width:1;}#my-svg :root{--mermaid-font-family:"trebuchet ms",verdana,arial,sans-serif;}</style><g/><defs><marker orient="auto" markerHeight="240" markerWidth="190" refY="7" refX="0" id="MD_PARENT_START"><path d="M 18,7 L9,13 L1,7 L9,1 Z"/></marker></defs><defs><marker orient="auto" markerHeight="28" markerWidth="20" refY="7" refX="19" id="MD_PARENT_END"><path d="M 18,7 L9,13 L1,7 L9,1 Z"/></marker></defs><defs><marker orient="auto" markerHeight="18" markerWidth="18" refY="9" refX="0" id="ONLY_ONE_START"><path d="M9,0 L9,18 M15,0 L15,18" fill="none" stroke="gray"/></marker></defs><defs><marker orient="auto" markerHeight="18" markerWidth="18" refY="9" refX="18" id="ONLY_ONE_END"><path d="M3,0 L3,18 M9,0 L9,18" fill="none" stroke="gray"/></marker></defs><defs><marker orient="auto" markerHeight="18" markerWidth="30" refY="9" refX="0" id="ZERO_OR_ONE_START"><circle r="6" cy="9" cx="21" fill="white" stroke="gray"/><path d="M9,0 L9,18" fill="none" stroke="gray"/></marker></defs><defs><marker orient="auto" markerHeight="18" markerWidth="30" refY="9" refX="30" id="ZERO_OR_ONE_END"><circle r="6" cy="9" cx="9" fill="white" stroke="gray"/><path d="M21,0 L21,18" fill="none" stroke="gray"/></marker></defs><defs><marker orient="auto" markerHeight="36" markerWidth="45" refY="18" refX="18" id="ONE_OR_MORE_START"><path d="M0,18 Q 18,0 36,18 Q 18,36 0,18 M42,9 L42,27" fill="none" stroke="gray"/></marker></defs><defs><marker orient="auto" markerHeight="36" markerWidth="45" refY="18" refX="27" id="ONE_OR_MORE_END"><path d="M3,9 L3,27 M9,18 Q27,0 45,18 Q27,36 9,18" fill="none" stroke="gray"/></marker></defs><defs><marker orient="auto" markerHeight="36" markerWidth="57" refY="18" refX="18" id="ZERO_OR_MORE_START"><circle r="6" cy="18" cx="48" fill="white" stroke="gray"/><path d="M0,18 Q18,0 36,18 Q18,36 0,18" fill="none" stroke="gray"/></marker></defs><defs><marker orient="auto" markerHeight="36" markerWidth="57" refY="18" refX="39" id="ZERO_OR_MORE_END"><circle r="6" cy="18" cx="9" fill="white" stroke="gray"/><path d="M21,18 Q39,0 57,18 Q39,36 21,18" fill="none" stroke="gray"/></marker></defs><path style="stroke: gray; fill: none;" marker-start="url(#ONLY_ONE_START)" marker-end="url(#ONE_OR_MORE_END)" d="M506.301,215.39L556.439,242.978C606.578,270.566,706.855,325.742,756.994,387.573C807.133,449.404,807.133,517.891,807.133,586.377C807.133,654.863,807.133,723.35,816.154,773.29C825.176,823.23,843.218,854.625,852.24,870.322L861.261,886.02" class="er relationshipLine"/><path style="stroke: gray; fill: none;" marker-start="url(#ONLY_ONE_START)" marker-end="url(#ONE_OR_MORE_END)" d="M361.16,216.758L313.083,244.118C265.007,271.478,168.853,326.198,120.776,387.801C72.699,449.404,72.699,517.891,72.699,586.377C72.699,654.863,72.699,723.35,73.321,767.782C73.942,812.215,75.186,832.594,75.807,842.784L76.429,852.974" class="er relationshipLine"/><path style="stroke: gray; fill: none;" marker-start="url(#ONLY_ONE_START)" marker-end="url(#ZERO_OR_ONE_END)" d="M433.73,330.918L433.73,339.251C433.73,347.585,433.73,364.251,433.73,380.918C433.73,397.585,433.73,414.251,433.73,422.585L433.73,430.918" class="er relationshipLine"/><path style="stroke: gray; fill: none;" marker-start="url(#ONLY_ONE_START)" marker-end="url(#ZERO_OR_MORE_END)" d="M500.277,615.259L568.087,644.688C635.896,674.118,771.514,732.977,837.074,778.104C902.634,823.23,898.136,854.625,895.886,870.322L893.637,886.02" class="er relationshipLine"/><path style="stroke: gray; fill: none;" marker-start="url(#ONLY_ONE_START)" marker-end="url(#ZERO_OR_MORE_END)" d="M367.184,677.528L353.275,696.579C339.366,715.631,311.548,753.733,303.13,781.118C294.712,808.503,305.694,825.169,311.185,833.503L316.676,841.836" class="er relationshipLine"/><path style="stroke: gray; fill: none;" marker-start="url(#ONLY_ONE_START)" marker-end="url(#ZERO_OR_MORE_END)" d="M500.277,657.934L521.032,680.251C541.786,702.568,583.296,747.202,604.05,787.05C624.805,826.897,624.805,861.958,624.805,879.489L624.805,897.02" class="er relationshipLine"/><path style="stroke: gray; fill: none;" marker-start="url(#ONLY_ONE_START)" marker-end="url(#ZERO_OR_MORE_END)" d="M395.898,741.836L393.87,750.169C391.842,758.503,387.786,775.169,385.266,791.836C382.746,808.503,381.761,825.169,381.268,833.503L380.776,841.836" class="er relationshipLine"/><path style="stroke: gray; fill: none;" marker-start="url(#ONLY_ONE_START)" marker-end="url(#ZERO_OR_MORE_END)" d="M471.563,741.836L473.591,750.169C475.619,758.503,479.675,775.169,473.809,793.661C467.943,812.152,452.155,832.469,444.261,842.627L436.367,852.785" class="er relationshipLine"/><path style="stroke: gray; fill: none;" marker-start="url(#ONLY_ONE_START)" marker-end="url(#ZERO_OR_MORE_END)" d="M367.184,641.068L336.608,666.196C306.033,691.324,244.882,741.58,206.804,776.897C168.727,812.215,153.724,832.594,146.222,842.784L138.721,852.974" class="er relationshipLine"/><path style="stroke: gray; fill: none;" marker-start="url(#ONLY_ONE_START)" marker-end="url(#ZERO_OR_ONE_END)" d="M500.277,534.938L522.706,517.601C545.134,500.264,589.991,465.591,618.026,448.255C646.062,430.918,657.276,430.918,668.49,456.828C679.704,482.738,690.919,534.557,690.919,586.377C690.919,638.197,679.704,690.016,668.49,715.926C657.276,741.836,646.062,741.836,618.026,724.499C589.991,707.163,545.134,672.489,522.706,655.153L500.277,637.816" class="er relationshipLine"/><path style="stroke: gray; fill: none;" marker-start="url(#ONLY_ONE_START)" marker-end="url(#ZERO_OR_MORE_END)" d="M375.5,1020.387L375.5,1028.72C375.5,1037.053,375.5,1053.72,375.5,1070.387C375.5,1087.053,375.5,1103.72,375.5,1112.053L375.5,1120.387" class="er relationshipLine"/><g transform="translate(361.16015625,20 )" id="entity-Container-bc34fb32-8a75-5b81-936b-92374bf40296"><rect height="310.91797733306885" width="145.140625" y="0" x="0" class="er entityBox"/><text style="dominant-baseline: middle; text-anchor: middle; font-size: 12px;" transform="translate(72.5703125,12)" y="0" x="0" id="text-entity-Container-bc34fb32-8a75-5b81-936b-92374bf40296" class="er entityLabel">Container</text><rect height="22.091797828674316" width="71.203125" y="24" x="0" class="er attributeBoxOdd"/><text style="dominant-baseline: middle; font-size: 10.2px;" transform="translate(5,35.04589891433716)" y="0" x="0" id="text-entity-Container-bc34fb32-8a75-5b81-936b-92374bf40296-attr-1-type" class="er entityLabel">string</text><rect height="22.091797828674316" width="73.9375" y="24" x="71.203125" class="er attributeBoxOdd"/><text style="dominant-baseline: middle; font-size: 10.2px;" transform="translate(76.203125,35.04589891433716)" y="0" x="0" id="text-entity-Container-bc34fb32-8a75-5b81-936b-92374bf40296-attr-1-name" class="er entityLabel">name</text><rect height="22.091797828674316" width="71.203125" y="46.091797828674316" x="0" class="er attributeBoxEven"/><text style="dominant-baseline: middle; font-size: 10.2px;" transform="translate(5,57.137696743011475)" y="0" x="0" id="text-entity-Container-bc34fb32-8a75-5b81-936b-92374bf40296-attr-2-type" class="er entityLabel">string</text><rect height="22.091797828674316" width="73.9375" y="46.091797828674316" x="71.203125" class="er attributeBoxEven"/><text style="dominant-baseline: middle; font-size: 10.2px;" transform="translate(76.203125,57.137696743011475)" y="0" x="0" id="text-entity-Container-bc34fb32-8a75-5b81-936b-92374bf40296-attr-2-name" class="er entityLabel">type</text><rect height="22.091797828674316" width="71.203125" y="68.18359565734863" x="0" class="er attributeBoxOdd"/><text style="dominant-baseline: middle; font-size: 10.2px;" transform="translate(5,79.22949457168579)" y="0" x="0" id="text-entity-Container-bc34fb32-8a75-5b81-936b-92374bf40296-attr-3-type" class="er entityLabel">string</text><rect height="22.091797828674316" width="73.9375" y="68.18359565734863" x="71.203125" class="er attributeBoxOdd"/><text style="dominant-baseline: middle; font-size: 10.2px;" transform="translate(76.203125,79.22949457168579)" y="0" x="0" id="text-entity-Container-bc34fb32-8a75-5b81-936b-92374bf40296-attr-3-name" class="er entityLabel">title</text><rect height="22.091797828674316" width="71.203125" y="90.27539348602295" x="0" class="er attributeBoxEven"/><text style="dominant-baseline: middle; font-size: 10.2px;" transform="translate(5,101.32129240036011)" y="0" x="0" id="text-entity-Container-bc34fb32-8a75-5b81-936b-92374bf40296-attr-4-type" class="er entityLabel">string</text><rect height="22.091797828674316" width="73.9375" y="90.27539348602295" x="71.203125" class="er attributeBoxEven"/><text style="dominant-baseline: middle; font-size: 10.2px;" transform="translate(76.203125,101.32129240036011)" y="0" x="0" id="text-entity-Container-bc34fb32-8a75-5b81-936b-92374bf40296-attr-4-name" class="er entityLabel">description</text><rect height="22.091797828674316" width="71.203125" y="112.36719131469727" x="0" class="er attributeBoxOdd"/><text style="dominant-baseline: middle; font-size: 10.2px;" transform="translate(5,123.41309022903442)" y="0" x="0" id="text-entity-Container-bc34fb32-8a75-5b81-936b-92374bf40296-attr-5-type" class="er entityLabel">string</text><rect height="22.091797828674316" width="73.9375" y="112.36719131469727" x="71.203125" class="er attributeBoxOdd"/><text style="dominant-baseline: middle; font-size: 10.2px;" transform="translate(76.203125,123.41309022903442)" y="0" x="0" id="text-entity-Container-bc34fb32-8a75-5b81-936b-92374bf40296-attr-5-name" class="er entityLabel">version</text><rect height="22.091797828674316" width="71.203125" y="134.45898914337158" x="0" class="er attributeBoxEven"/><text style="dominant-baseline: middle; font-size: 10.2px;" transform="translate(5,145.50488805770874)" y="0" x="0" id="text-entity-Container-bc34fb32-8a75-5b81-936b-92374bf40296-attr-6-type" class="er entityLabel">string</text><rect height="22.091797828674316" width="73.9375" y="134.45898914337158" x="71.203125" class="er attributeBoxEven"/><text style="dominant-baseline: middle; font-size: 10.2px;" transform="translate(76.203125,145.50488805770874)" y="0" x="0" id="text-entity-Container-bc34fb32-8a75-5b81-936b-92374bf40296-attr-6-name" class="er entityLabel">creation_date</text><rect height="22.091797828674316" width="71.203125" y="156.5507869720459" x="0" class="er attributeBoxOdd"/><text style="dominant-baseline: middle; font-size: 10.2px;" transform="translate(5,167.59668588638306)" y="0" x="0" id="text-entity-Container-bc34fb32-8a75-5b81-936b-92374bf40296-attr-7-type" class="er entityLabel">string</text><rect height="22.091797828674316" width="73.9375" y="156.5507869720459" x="71.203125" class="er attributeBoxOdd"/><text style="dominant-baseline: middle; font-size: 10.2px;" transform="translate(76.203125,167.59668588638306)" y="0" x="0" id="text-entity-Container-bc34fb32-8a75-5b81-936b-92374bf40296-attr-7-name" class="er entityLabel">publisher</text><rect height="22.091797828674316" width="71.203125" y="178.64258480072021" x="0" class="er attributeBoxEven"/><text style="dominant-baseline: middle; font-size: 10.2px;" transform="translate(5,189.68848371505737)" y="0" x="0" id="text-entity-Container-bc34fb32-8a75-5b81-936b-92374bf40296-attr-8-type" class="er entityLabel">string</text><rect height="22.091797828674316" width="73.9375" y="178.64258480072021" x="71.203125" class="er attributeBoxEven"/><text style="dominant-baseline: middle; font-size: 10.2px;" transform="translate(76.203125,189.68848371505737)" y="0" x="0" id="text-entity-Container-bc34fb32-8a75-5b81-936b-92374bf40296-attr-8-name" class="er entityLabel">license</text><rect height="22" width="71.203125" y="200.73438262939453" x="0" class="er attributeBoxOdd"/><text style="dominant-baseline: middle; font-size: 10.2px;" transform="translate(5,211.73438262939453)" y="0" x="0" id="text-entity-Container-bc34fb32-8a75-5b81-936b-92374bf40296-attr-9-type" class="er entityLabel">uriorcurie</text><rect height="22" width="73.9375" y="200.73438262939453" x="71.203125" class="er attributeBoxOdd"/><text style="dominant-baseline: middle; font-size: 10.2px;" transform="translate(76.203125,211.73438262939453)" y="0" x="0" id="text-entity-Container-bc34fb32-8a75-5b81-936b-92374bf40296-attr-9-name" class="er entityLabel">see_also</text><rect height="22" width="71.203125" y="222.73438262939453" x="0" class="er attributeBoxEven"/><text style="dominant-baseline: middle; font-size: 10.2px;" transform="translate(5,233.73438262939453)" y="0" x="0" id="text-entity-Container-bc34fb32-8a75-5b81-936b-92374bf40296-attr-10-type" class="er entityLabel">uriorcurieList</text><rect height="22" width="73.9375" y="222.73438262939453" x="71.203125" class="er attributeBoxEven"/><text style="dominant-baseline: middle; font-size: 10.2px;" transform="translate(76.203125,233.73438262939453)" y="0" x="0" id="text-entity-Container-bc34fb32-8a75-5b81-936b-92374bf40296-attr-10-name" class="er entityLabel">had_member</text><rect height="22.091796875" width="71.203125" y="244.73438262939453" x="0" class="er attributeBoxOdd"/><text style="dominant-baseline: middle; font-size: 10.2px;" transform="translate(5,255.78028106689453)" y="0" x="0" id="text-entity-Container-bc34fb32-8a75-5b81-936b-92374bf40296-attr-11-type" class="er entityLabel">uriorcurieList</text><rect height="22.091796875" width="73.9375" y="244.73438262939453" x="71.203125" class="er attributeBoxOdd"/><text style="dominant-baseline: middle; font-size: 10.2px;" transform="translate(76.203125,255.78028106689453)" y="0" x="0" id="text-entity-Container-bc34fb32-8a75-5b81-936b-92374bf40296-attr-11-name" class="er entityLabel">ontology_root</text><rect height="22" width="71.203125" y="266.82617950439453" x="0" class="er attributeBoxEven"/><text style="dominant-baseline: middle; font-size: 10.2px;" transform="translate(5,277.82617950439453)" y="0" x="0" id="text-entity-Container-bc34fb32-8a75-5b81-936b-92374bf40296-attr-12-type" class="er entityLabel">uriorcurie</text><rect height="22" width="73.9375" y="266.82617950439453" x="71.203125" class="er attributeBoxEven"/><text style="dominant-baseline: middle; font-size: 10.2px;" transform="translate(76.203125,277.82617950439453)" y="0" x="0" id="text-entity-Container-bc34fb32-8a75-5b81-936b-92374bf40296-attr-12-name" class="er entityLabel">id</text><rect height="22.091797828674316" width="71.203125" y="288.82617950439453" x="0" class="er attributeBoxOdd"/><text style="dominant-baseline: middle; font-size: 10.2px;" transform="translate(5,299.8720784187317)" y="0" x="0" id="text-entity-Container-bc34fb32-8a75-5b81-936b-92374bf40296-attr-13-type" class="er entityLabel">string</text><rect height="22.091797828674316" width="73.9375" y="288.82617950439453" x="71.203125" class="er attributeBoxOdd"/><text style="dominant-baseline: middle; font-size: 10.2px;" transform="translate(76.203125,299.8720784187317)" y="0" x="0" id="text-entity-Container-bc34fb32-8a75-5b81-936b-92374bf40296-attr-13-name" class="er entityLabel">label</text></g><g transform="translate(367.18359375,430.91796875 )" id="entity-Dataset-ea18c94d-808e-5959-ac2f-1bcc27afd155"><rect height="310.91797828674316" width="133.09375" y="0" x="0" class="er entityBox"/><text style="dominant-baseline: middle; text-anchor: middle; font-size: 12px;" transform="translate(66.546875,12)" y="0" x="0" id="text-entity-Dataset-ea18c94d-808e-5959-ac2f-1bcc27afd155" class="er entityLabel">Dataset</text><rect height="22.091797828674316" width="54.953125" y="24" x="0" class="er attributeBoxOdd"/><text style="dominant-baseline: middle; font-size: 10.2px;" transform="translate(5,35.04589891433716)" y="0" x="0" id="text-entity-Dataset-ea18c94d-808e-5959-ac2f-1bcc27afd155-attr-1-type" class="er entityLabel">string</text><rect height="22.091797828674316" width="78.140625" y="24" x="54.953125" class="er attributeBoxOdd"/><text style="dominant-baseline: middle; font-size: 10.2px;" transform="translate(59.953125,35.04589891433716)" y="0" x="0" id="text-entity-Dataset-ea18c94d-808e-5959-ac2f-1bcc27afd155-attr-1-name" class="er entityLabel">title</text><rect height="22.091797828674316" width="54.953125" y="46.091797828674316" x="0" class="er attributeBoxEven"/><text style="dominant-baseline: middle; font-size: 10.2px;" transform="translate(5,57.137696743011475)" y="0" x="0" id="text-entity-Dataset-ea18c94d-808e-5959-ac2f-1bcc27afd155-attr-2-type" class="er entityLabel">string</text><rect height="22.091797828674316" width="78.140625" y="46.091797828674316" x="54.953125" class="er attributeBoxEven"/><text style="dominant-baseline: middle; font-size: 10.2px;" transform="translate(59.953125,57.137696743011475)" y="0" x="0" id="text-entity-Dataset-ea18c94d-808e-5959-ac2f-1bcc27afd155-attr-2-name" class="er entityLabel">description</text><rect height="22.091797828674316" width="54.953125" y="68.18359565734863" x="0" class="er attributeBoxOdd"/><text style="dominant-baseline: middle; font-size: 10.2px;" transform="translate(5,79.22949457168579)" y="0" x="0" id="text-entity-Dataset-ea18c94d-808e-5959-ac2f-1bcc27afd155-attr-3-type" class="er entityLabel">string</text><rect height="22.091797828674316" width="78.140625" y="68.18359565734863" x="54.953125" class="er attributeBoxOdd"/><text style="dominant-baseline: middle; font-size: 10.2px;" transform="translate(59.953125,79.22949457168579)" y="0" x="0" id="text-entity-Dataset-ea18c94d-808e-5959-ac2f-1bcc27afd155-attr-3-name" class="er entityLabel">creation_date</text><rect height="22.091797828674316" width="54.953125" y="90.27539348602295" x="0" class="er attributeBoxEven"/><text style="dominant-baseline: middle; font-size: 10.2px;" transform="translate(5,101.32129240036011)" y="0" x="0" id="text-entity-Dataset-ea18c94d-808e-5959-ac2f-1bcc27afd155-attr-4-type" class="er entityLabel">string</text><rect height="22.091797828674316" width="78.140625" y="90.27539348602295" x="54.953125" class="er attributeBoxEven"/><text style="dominant-baseline: middle; font-size: 10.2px;" transform="translate(59.953125,101.32129240036011)" y="0" x="0" id="text-entity-Dataset-ea18c94d-808e-5959-ac2f-1bcc27afd155-attr-4-name" class="er entityLabel">version</text><rect height="22.091797828674316" width="54.953125" y="112.36719131469727" x="0" class="er attributeBoxOdd"/><text style="dominant-baseline: middle; font-size: 10.2px;" transform="translate(5,123.41309022903442)" y="0" x="0" id="text-entity-Dataset-ea18c94d-808e-5959-ac2f-1bcc27afd155-attr-5-type" class="er entityLabel">string</text><rect height="22.091797828674316" width="78.140625" y="112.36719131469727" x="54.953125" class="er attributeBoxOdd"/><text style="dominant-baseline: middle; font-size: 10.2px;" transform="translate(59.953125,123.41309022903442)" y="0" x="0" id="text-entity-Dataset-ea18c94d-808e-5959-ac2f-1bcc27afd155-attr-5-name" class="er entityLabel">license</text><rect height="22" width="54.953125" y="134.45898914337158" x="0" class="er attributeBoxEven"/><text style="dominant-baseline: middle; font-size: 10.2px;" transform="translate(5,145.45898914337158)" y="0" x="0" id="text-entity-Dataset-ea18c94d-808e-5959-ac2f-1bcc27afd155-attr-6-type" class="er entityLabel">uriorcurie</text><rect height="22" width="78.140625" y="134.45898914337158" x="54.953125" class="er attributeBoxEven"/><text style="dominant-baseline: middle; font-size: 10.2px;" transform="translate(59.953125,145.45898914337158)" y="0" x="0" id="text-entity-Dataset-ea18c94d-808e-5959-ac2f-1bcc27afd155-attr-6-name" class="er entityLabel">see_also</text><rect height="22.091797828674316" width="54.953125" y="156.45898914337158" x="0" class="er attributeBoxOdd"/><text style="dominant-baseline: middle; font-size: 10.2px;" transform="translate(5,167.50488805770874)" y="0" x="0" id="text-entity-Dataset-ea18c94d-808e-5959-ac2f-1bcc27afd155-attr-7-type" class="er entityLabel">string</text><rect height="22.091797828674316" width="78.140625" y="156.45898914337158" x="54.953125" class="er attributeBoxOdd"/><text style="dominant-baseline: middle; font-size: 10.2px;" transform="translate(59.953125,167.50488805770874)" y="0" x="0" id="text-entity-Dataset-ea18c94d-808e-5959-ac2f-1bcc27afd155-attr-7-name" class="er entityLabel">publisher</text><rect height="22.091797828674316" width="54.953125" y="178.5507869720459" x="0" class="er attributeBoxEven"/><text style="dominant-baseline: middle; font-size: 10.2px;" transform="translate(5,189.59668588638306)" y="0" x="0" id="text-entity-Dataset-ea18c94d-808e-5959-ac2f-1bcc27afd155-attr-8-type" class="er entityLabel">string</text><rect height="22.091797828674316" width="78.140625" y="178.5507869720459" x="54.953125" class="er attributeBoxEven"/><text style="dominant-baseline: middle; font-size: 10.2px;" transform="translate(59.953125,189.59668588638306)" y="0" x="0" id="text-entity-Dataset-ea18c94d-808e-5959-ac2f-1bcc27afd155-attr-8-name" class="er entityLabel">citation</text><rect height="22.091797828674316" width="54.953125" y="200.64258480072021" x="0" class="er attributeBoxOdd"/><text style="dominant-baseline: middle; font-size: 10.2px;" transform="translate(5,211.68848371505737)" y="0" x="0" id="text-entity-Dataset-ea18c94d-808e-5959-ac2f-1bcc27afd155-attr-9-type" class="er entityLabel">string</text><rect height="22.091797828674316" width="78.140625" y="200.64258480072021" x="54.953125" class="er attributeBoxOdd"/><text style="dominant-baseline: middle; font-size: 10.2px;" transform="translate(59.953125,211.68848371505737)" y="0" x="0" id="text-entity-Dataset-ea18c94d-808e-5959-ac2f-1bcc27afd155-attr-9-name" class="er entityLabel">citationOverall</text><rect height="22" width="54.953125" y="222.73438262939453" x="0" class="er attributeBoxEven"/><text style="dominant-baseline: middle; font-size: 10.2px;" transform="translate(5,233.73438262939453)" y="0" x="0" id="text-entity-Dataset-ea18c94d-808e-5959-ac2f-1bcc27afd155-attr-10-type" class="er entityLabel">uriorcurie</text><rect height="22" width="78.140625" y="222.73438262939453" x="54.953125" class="er attributeBoxEven"/><text style="dominant-baseline: middle; font-size: 10.2px;" transform="translate(59.953125,233.73438262939453)" y="0" x="0" id="text-entity-Dataset-ea18c94d-808e-5959-ac2f-1bcc27afd155-attr-10-name" class="er entityLabel">doi</text><rect height="22.091797828674316" width="54.953125" y="244.73438262939453" x="0" class="er attributeBoxOdd"/><text style="dominant-baseline: middle; font-size: 10.2px;" transform="translate(5,255.7802815437317)" y="0" x="0" id="text-entity-Dataset-ea18c94d-808e-5959-ac2f-1bcc27afd155-attr-11-type" class="er entityLabel">string</text><rect height="22.091797828674316" width="78.140625" y="244.73438262939453" x="54.953125" class="er attributeBoxOdd"/><text style="dominant-baseline: middle; font-size: 10.2px;" transform="translate(59.953125,255.7802815437317)" y="0" x="0" id="text-entity-Dataset-ea18c94d-808e-5959-ac2f-1bcc27afd155-attr-11-name" class="er entityLabel">hubmapId</text><rect height="22" width="54.953125" y="266.82618045806885" x="0" class="er attributeBoxEven"/><text style="dominant-baseline: middle; font-size: 10.2px;" transform="translate(5,277.82618045806885)" y="0" x="0" id="text-entity-Dataset-ea18c94d-808e-5959-ac2f-1bcc27afd155-attr-12-type" class="er entityLabel">uriorcurie</text><rect height="22" width="78.140625" y="266.82618045806885" x="54.953125" class="er attributeBoxEven"/><text style="dominant-baseline: middle; font-size: 10.2px;" transform="translate(59.953125,277.82618045806885)" y="0" x="0" id="text-entity-Dataset-ea18c94d-808e-5959-ac2f-1bcc27afd155-attr-12-name" class="er entityLabel">id</text><rect height="22.091797828674316" width="54.953125" y="288.82618045806885" x="0" class="er attributeBoxOdd"/><text style="dominant-baseline: middle; font-size: 10.2px;" transform="translate(5,299.872079372406)" y="0" x="0" id="text-entity-Dataset-ea18c94d-808e-5959-ac2f-1bcc27afd155-attr-13-type" class="er entityLabel">string</text><rect height="22.091797828674316" width="78.140625" y="288.82618045806885" x="54.953125" class="er attributeBoxOdd"/><text style="dominant-baseline: middle; font-size: 10.2px;" transform="translate(59.953125,299.872079372406)" y="0" x="0" id="text-entity-Dataset-ea18c94d-808e-5959-ac2f-1bcc27afd155-attr-13-name" class="er entityLabel">label</text></g><g transform="translate(20,852.9736328125 )" id="entity-Distribution-f9898466-f9b2-5f40-b605-9060bbc75b7d"><rect height="156.27539348602295" width="122.390625" y="0" x="0" class="er entityBox"/><text style="dominant-baseline: middle; text-anchor: middle; font-size: 12px;" transform="translate(61.1953125,12)" y="0" x="0" id="text-entity-Distribution-f9898466-f9b2-5f40-b605-9060bbc75b7d" class="er entityLabel">Distribution</text><rect height="22.091797828674316" width="54.953125" y="24" x="0" class="er attributeBoxOdd"/><text style="dominant-baseline: middle; font-size: 10.2px;" transform="translate(5,35.04589891433716)" y="0" x="0" id="text-entity-Distribution-f9898466-f9b2-5f40-b605-9060bbc75b7d-attr-1-type" class="er entityLabel">string</text><rect height="22.091797828674316" width="67.4375" y="24" x="54.953125" class="er attributeBoxOdd"/><text style="dominant-baseline: middle; font-size: 10.2px;" transform="translate(59.953125,35.04589891433716)" y="0" x="0" id="text-entity-Distribution-f9898466-f9b2-5f40-b605-9060bbc75b7d-attr-1-name" class="er entityLabel">title</text><rect height="22" width="54.953125" y="46.091797828674316" x="0" class="er attributeBoxEven"/><text style="dominant-baseline: middle; font-size: 10.2px;" transform="translate(5,57.091797828674316)" y="0" x="0" id="text-entity-Distribution-f9898466-f9b2-5f40-b605-9060bbc75b7d-attr-2-type" class="er entityLabel">uri</text><rect height="22" width="67.4375" y="46.091797828674316" x="54.953125" class="er attributeBoxEven"/><text style="dominant-baseline: middle; font-size: 10.2px;" transform="translate(59.953125,57.091797828674316)" y="0" x="0" id="text-entity-Distribution-f9898466-f9b2-5f40-b605-9060bbc75b7d-attr-2-name" class="er entityLabel">downloadUrl</text><rect height="22" width="54.953125" y="68.09179782867432" x="0" class="er attributeBoxOdd"/><text style="dominant-baseline: middle; font-size: 10.2px;" transform="translate(5,79.09179782867432)" y="0" x="0" id="text-entity-Distribution-f9898466-f9b2-5f40-b605-9060bbc75b7d-attr-3-type" class="er entityLabel">uri</text><rect height="22" width="67.4375" y="68.09179782867432" x="54.953125" class="er attributeBoxOdd"/><text style="dominant-baseline: middle; font-size: 10.2px;" transform="translate(59.953125,79.09179782867432)" y="0" x="0" id="text-entity-Distribution-f9898466-f9b2-5f40-b605-9060bbc75b7d-attr-3-name" class="er entityLabel">accessUrl</text><rect height="22.091797828674316" width="54.953125" y="90.09179782867432" x="0" class="er attributeBoxEven"/><text style="dominant-baseline: middle; font-size: 10.2px;" transform="translate(5,101.13769674301147)" y="0" x="0" id="text-entity-Distribution-f9898466-f9b2-5f40-b605-9060bbc75b7d-attr-4-type" class="er entityLabel">string</text><rect height="22.091797828674316" width="67.4375" y="90.09179782867432" x="54.953125" class="er attributeBoxEven"/><text style="dominant-baseline: middle; font-size: 10.2px;" transform="translate(59.953125,101.13769674301147)" y="0" x="0" id="text-entity-Distribution-f9898466-f9b2-5f40-b605-9060bbc75b7d-attr-4-name" class="er entityLabel">mediaType</text><rect height="22" width="54.953125" y="112.18359565734863" x="0" class="er attributeBoxOdd"/><text style="dominant-baseline: middle; font-size: 10.2px;" transform="translate(5,123.18359565734863)" y="0" x="0" id="text-entity-Distribution-f9898466-f9b2-5f40-b605-9060bbc75b7d-attr-5-type" class="er entityLabel">uriorcurie</text><rect height="22" width="67.4375" y="112.18359565734863" x="54.953125" class="er attributeBoxOdd"/><text style="dominant-baseline: middle; font-size: 10.2px;" transform="translate(59.953125,123.18359565734863)" y="0" x="0" id="text-entity-Distribution-f9898466-f9b2-5f40-b605-9060bbc75b7d-attr-5-name" class="er entityLabel">id</text><rect height="22.091797828674316" width="54.953125" y="134.18359565734863" x="0" class="er attributeBoxEven"/><text style="dominant-baseline: middle; font-size: 10.2px;" transform="translate(5,145.2294945716858)" y="0" x="0" id="text-entity-Distribution-f9898466-f9b2-5f40-b605-9060bbc75b7d-attr-6-type" class="er entityLabel">string</text><rect height="22.091797828674316" width="67.4375" y="134.18359565734863" x="54.953125" class="er attributeBoxEven"/><text style="dominant-baseline: middle; font-size: 10.2px;" transform="translate(59.953125,145.2294945716858)" y="0" x="0" id="text-entity-Distribution-f9898466-f9b2-5f40-b605-9060bbc75b7d-attr-6-name" class="er entityLabel">label</text></g><g transform="translate(314.6328125,841.8359375 )" id="entity-Person-84ee9ab5-8d8f-5582-81c6-bfa2c33a578d"><rect height="178.5507869720459" width="121.734375" y="0" x="0" class="er entityBox"/><text style="dominant-baseline: middle; text-anchor: middle; font-size: 12px;" transform="translate(60.8671875,12)" y="0" x="0" id="text-entity-Person-84ee9ab5-8d8f-5582-81c6-bfa2c33a578d" class="er entityLabel">Person</text><rect height="22.091797828674316" width="54.953125" y="24" x="0" class="er attributeBoxOdd"/><text style="dominant-baseline: middle; font-size: 10.2px;" transform="translate(5,35.04589891433716)" y="0" x="0" id="text-entity-Person-84ee9ab5-8d8f-5582-81c6-bfa2c33a578d-attr-1-type" class="er entityLabel">string</text><rect height="22.091797828674316" width="66.78125" y="24" x="54.953125" class="er attributeBoxOdd"/><text style="dominant-baseline: middle; font-size: 10.2px;" transform="translate(59.953125,35.04589891433716)" y="0" x="0" id="text-entity-Person-84ee9ab5-8d8f-5582-81c6-bfa2c33a578d-attr-1-name" class="er entityLabel">fullName</text><rect height="22.091797828674316" width="54.953125" y="46.091797828674316" x="0" class="er attributeBoxEven"/><text style="dominant-baseline: middle; font-size: 10.2px;" transform="translate(5,57.137696743011475)" y="0" x="0" id="text-entity-Person-84ee9ab5-8d8f-5582-81c6-bfa2c33a578d-attr-2-type" class="er entityLabel">string</text><rect height="22.091797828674316" width="66.78125" y="46.091797828674316" x="54.953125" class="er attributeBoxEven"/><text style="dominant-baseline: middle; font-size: 10.2px;" transform="translate(59.953125,57.137696743011475)" y="0" x="0" id="text-entity-Person-84ee9ab5-8d8f-5582-81c6-bfa2c33a578d-attr-2-name" class="er entityLabel">firstName</text><rect height="22.091797828674316" width="54.953125" y="68.18359565734863" x="0" class="er attributeBoxOdd"/><text style="dominant-baseline: middle; font-size: 10.2px;" transform="translate(5,79.22949457168579)" y="0" x="0" id="text-entity-Person-84ee9ab5-8d8f-5582-81c6-bfa2c33a578d-attr-3-type" class="er entityLabel">string</text><rect height="22.091797828674316" width="66.78125" y="68.18359565734863" x="54.953125" class="er attributeBoxOdd"/><text style="dominant-baseline: middle; font-size: 10.2px;" transform="translate(59.953125,79.22949457168579)" y="0" x="0" id="text-entity-Person-84ee9ab5-8d8f-5582-81c6-bfa2c33a578d-attr-3-name" class="er entityLabel">lastName</text><rect height="22.091797828674316" width="54.953125" y="90.27539348602295" x="0" class="er attributeBoxEven"/><text style="dominant-baseline: middle; font-size: 10.2px;" transform="translate(5,101.32129240036011)" y="0" x="0" id="text-entity-Person-84ee9ab5-8d8f-5582-81c6-bfa2c33a578d-attr-4-type" class="er entityLabel">string</text><rect height="22.091797828674316" width="66.78125" y="90.27539348602295" x="54.953125" class="er attributeBoxEven"/><text style="dominant-baseline: middle; font-size: 10.2px;" transform="translate(59.953125,101.32129240036011)" y="0" x="0" id="text-entity-Person-84ee9ab5-8d8f-5582-81c6-bfa2c33a578d-attr-4-name" class="er entityLabel">orcid</text><rect height="22.091797828674316" width="54.953125" y="112.36719131469727" x="0" class="er attributeBoxOdd"/><text style="dominant-baseline: middle; font-size: 10.2px;" transform="translate(5,123.41309022903442)" y="0" x="0" id="text-entity-Person-84ee9ab5-8d8f-5582-81c6-bfa2c33a578d-attr-5-type" class="er entityLabel">string</text><rect height="22.091797828674316" width="66.78125" y="112.36719131469727" x="54.953125" class="er attributeBoxOdd"/><text style="dominant-baseline: middle; font-size: 10.2px;" transform="translate(59.953125,123.41309022903442)" y="0" x="0" id="text-entity-Person-84ee9ab5-8d8f-5582-81c6-bfa2c33a578d-attr-5-name" class="er entityLabel">conforms_to</text><rect height="22" width="54.953125" y="134.45898914337158" x="0" class="er attributeBoxEven"/><text style="dominant-baseline: middle; font-size: 10.2px;" transform="translate(5,145.45898914337158)" y="0" x="0" id="text-entity-Person-84ee9ab5-8d8f-5582-81c6-bfa2c33a578d-attr-6-type" class="er entityLabel">uriorcurie</text><rect height="22" width="66.78125" y="134.45898914337158" x="54.953125" class="er attributeBoxEven"/><text style="dominant-baseline: middle; font-size: 10.2px;" transform="translate(59.953125,145.45898914337158)" y="0" x="0" id="text-entity-Person-84ee9ab5-8d8f-5582-81c6-bfa2c33a578d-attr-6-name" class="er entityLabel">id</text><rect height="22.091797828674316" width="54.953125" y="156.45898914337158" x="0" class="er attributeBoxOdd"/><text style="dominant-baseline: middle; font-size: 10.2px;" transform="translate(5,167.50488805770874)" y="0" x="0" id="text-entity-Person-84ee9ab5-8d8f-5582-81c6-bfa2c33a578d-attr-7-type" class="er entityLabel">string</text><rect height="22.091797828674316" width="66.78125" y="156.45898914337158" x="54.953125" class="er attributeBoxOdd"/><text style="dominant-baseline: middle; font-size: 10.2px;" transform="translate(59.953125,167.50488805770874)" y="0" x="0" id="text-entity-Person-84ee9ab5-8d8f-5582-81c6-bfa2c33a578d-attr-7-name" class="er entityLabel">label</text></g><g transform="translate(325.5,1120.38671875 )" id="entity-Named-527792da-945b-57c2-aece-6a504f46f916"><rect height="68.09179782867432" width="100" y="0" x="0" class="er entityBox"/><text style="dominant-baseline: middle; text-anchor: middle; font-size: 12px;" transform="translate(50,12)" y="0" x="0" id="text-entity-Named-527792da-945b-57c2-aece-6a504f46f916" class="er entityLabel">Named</text><rect height="22" width="61.1640625" y="24" x="0" class="er attributeBoxOdd"/><text style="dominant-baseline: middle; font-size: 10.2px;" transform="translate(5,35)" y="0" x="0" id="text-entity-Named-527792da-945b-57c2-aece-6a504f46f916-attr-1-type" class="er entityLabel">uriorcurie</text><rect height="22" width="38.8359375" y="24" x="61.1640625" class="er attributeBoxOdd"/><text style="dominant-baseline: middle; font-size: 10.2px;" transform="translate(66.1640625,35)" y="0" x="0" id="text-entity-Named-527792da-945b-57c2-aece-6a504f46f916-attr-1-name" class="er entityLabel">id</text><rect height="22.091797828674316" width="61.1640625" y="46" x="0" class="er attributeBoxEven"/><text style="dominant-baseline: middle; font-size: 10.2px;" transform="translate(5,57.04589891433716)" y="0" x="0" id="text-entity-Named-527792da-945b-57c2-aece-6a504f46f916-attr-2-type" class="er entityLabel">string</text><rect height="22.091797828674316" width="38.8359375" y="46" x="61.1640625" class="er attributeBoxEven"/><text style="dominant-baseline: middle; font-size: 10.2px;" transform="translate(66.1640625,57.04589891433716)" y="0" x="0" id="text-entity-Named-527792da-945b-57c2-aece-6a504f46f916-attr-2-name" class="er entityLabel">label</text></g><g transform="translate(570.0703125,897.01953125 )" id="entity-Grant-291daf2c-8722-576f-890e-1045bc6484c0"><rect height="68.18359565734863" width="109.46875" y="0" x="0" class="er entityBox"/><text style="dominant-baseline: middle; text-anchor: middle; font-size: 12px;" transform="translate(54.734375,12)" y="0" x="0" id="text-entity-Grant-291daf2c-8722-576f-890e-1045bc6484c0" class="er entityLabel">Grant</text><rect height="22.091797828674316" width="35.75" y="24" x="0" class="er attributeBoxOdd"/><text style="dominant-baseline: middle; font-size: 10.2px;" transform="translate(5,35.04589891433716)" y="0" x="0" id="text-entity-Grant-291daf2c-8722-576f-890e-1045bc6484c0-attr-1-type" class="er entityLabel">string</text><rect height="22.091797828674316" width="73.71875" y="24" x="35.75" class="er attributeBoxOdd"/><text style="dominant-baseline: middle; font-size: 10.2px;" transform="translate(40.75,35.04589891433716)" y="0" x="0" id="text-entity-Grant-291daf2c-8722-576f-890e-1045bc6484c0-attr-1-name" class="er entityLabel">funder</text><rect height="22.091797828674316" width="35.75" y="46.091797828674316" x="0" class="er attributeBoxEven"/><text style="dominant-baseline: middle; font-size: 10.2px;" transform="translate(5,57.137696743011475)" y="0" x="0" id="text-entity-Grant-291daf2c-8722-576f-890e-1045bc6484c0-attr-2-type" class="er entityLabel">string</text><rect height="22.091797828674316" width="73.71875" y="46.091797828674316" x="35.75" class="er attributeBoxEven"/><text style="dominant-baseline: middle; font-size: 10.2px;" transform="translate(40.75,57.137696743011475)" y="0" x="0" id="text-entity-Grant-291daf2c-8722-576f-890e-1045bc6484c0-attr-2-name" class="er entityLabel">awardNumber</text></g><g transform="translate(826.30859375,886.01953125 )" id="entity-Creator-22c37820-830e-5050-9ef7-2120deecbdf9"><rect height="90.18359565734863" width="121.734375" y="0" x="0" class="er entityBox"/><text style="dominant-baseline: middle; text-anchor: middle; font-size: 12px;" transform="translate(60.8671875,12)" y="0" x="0" id="text-entity-Creator-22c37820-830e-5050-9ef7-2120deecbdf9" class="er entityLabel">Creator</text><rect height="22.091797828674316" width="54.953125" y="24" x="0" class="er attributeBoxOdd"/><text style="dominant-baseline: middle; font-size: 10.2px;" transform="translate(5,35.04589891433716)" y="0" x="0" id="text-entity-Creator-22c37820-830e-5050-9ef7-2120deecbdf9-attr-1-type" class="er entityLabel">string</text><rect height="22.091797828674316" width="66.78125" y="24" x="54.953125" class="er attributeBoxOdd"/><text style="dominant-baseline: middle; font-size: 10.2px;" transform="translate(59.953125,35.04589891433716)" y="0" x="0" id="text-entity-Creator-22c37820-830e-5050-9ef7-2120deecbdf9-attr-1-name" class="er entityLabel">conforms_to</text><rect height="22" width="54.953125" y="46.091797828674316" x="0" class="er attributeBoxEven"/><text style="dominant-baseline: middle; font-size: 10.2px;" transform="translate(5,57.091797828674316)" y="0" x="0" id="text-entity-Creator-22c37820-830e-5050-9ef7-2120deecbdf9-attr-2-type" class="er entityLabel">uriorcurie</text><rect height="22" width="66.78125" y="46.091797828674316" x="54.953125" class="er attributeBoxEven"/><text style="dominant-baseline: middle; font-size: 10.2px;" transform="translate(59.953125,57.091797828674316)" y="0" x="0" id="text-entity-Creator-22c37820-830e-5050-9ef7-2120deecbdf9-attr-2-name" class="er entityLabel">id</text><rect height="22.091797828674316" width="54.953125" y="68.09179782867432" x="0" class="er attributeBoxOdd"/><text style="dominant-baseline: middle; font-size: 10.2px;" transform="translate(5,79.13769674301147)" y="0" x="0" id="text-entity-Creator-22c37820-830e-5050-9ef7-2120deecbdf9-attr-3-type" class="er entityLabel">string</text><rect height="22.091797828674316" width="66.78125" y="68.09179782867432" x="54.953125" class="er attributeBoxOdd"/><text style="dominant-baseline: middle; font-size: 10.2px;" transform="translate(59.953125,79.13769674301147)" y="0" x="0" id="text-entity-Creator-22c37820-830e-5050-9ef7-2120deecbdf9-attr-3-name" class="er entityLabel">label</text></g><rect height="14" width="44.1875" y="476.69830322265625" x="778.6229858398438" class="er relationshipLabelBox"/><text style="text-anchor: middle; dominant-baseline: middle; font-size: 12px;" y="483.69830322265625" x="800.7167358398438" id="rel1" class="er relationshipLabel">creators</text><rect height="14" width="67.09375" y="460.66131591796875" x="48.75269317626953" class="er relationshipLabelBox"/><text style="text-anchor: middle; dominant-baseline: middle; font-size: 12px;" y="467.66131591796875" x="82.29956817626953" id="rel2" class="er relationshipLabel">distributions</text><rect height="14" width="98.609375" y="373.9179992675781" x="384.4253234863281" class="er relationshipLabelBox"/><text style="text-anchor: middle; dominant-baseline: middle; font-size: 12px;" y="380.9179992675781" x="433.7300109863281" id="rel3" class="er relationshipLabel">was_derived_from</text><rect height="14" width="44.1875" y="711.9562377929688" x="709.1388549804688" class="er relationshipLabelBox"/><text style="text-anchor: middle; dominant-baseline: middle; font-size: 12px;" y="718.9562377929688" x="731.2326049804688" id="rel4" class="er relationshipLabel">creators</text><rect height="14" width="52.0625" y="748.0189819335938" x="288.6659851074219" class="er relationshipLabelBox"/><text style="text-anchor: middle; dominant-baseline: middle; font-size: 12px;" y="755.0189819335938" x="314.6972351074219" id="rel5" class="er relationshipLabel">reviewers</text><rect height="14" width="40.3125" y="757.3839111328125" x="570.3534545898438" class="er relationshipLabelBox"/><text style="text-anchor: middle; dominant-baseline: middle; font-size: 12px;" y="764.3839111328125" x="590.5097045898438" id="rel6" class="er relationshipLabel">funders</text><rect height="14" width="73.671875" y="784.3834228515625" x="348.499755859375" class="er relationshipLabelBox"/><text style="text-anchor: middle; dominant-baseline: middle; font-size: 12px;" y="791.3834228515625" x="385.335693359375" id="rel7" class="er relationshipLabel">project_leads</text><rect height="14" width="98.8125" y="794.8994140625" x="421.2274475097656" class="er relationshipLabelBox"/><text style="text-anchor: middle; dominant-baseline: middle; font-size: 12px;" y="801.8994140625" x="470.6336975097656" id="rel8" class="er relationshipLabel">externalReviewers</text><rect height="14" width="67.09375" y="734.0630493164062" x="213.58045959472656" class="er relationshipLabelBox"/><text style="text-anchor: middle; dominant-baseline: middle; font-size: 12px;" y="741.0630493164062" x="247.12733459472656" id="rel9" class="er relationshipLabel">distributions</text><rect height="14" width="98.609375" y="579.3770141601562" x="641.6143188476562" class="er relationshipLabelBox"/><text style="text-anchor: middle; dominant-baseline: middle; font-size: 12px;" y="586.3770141601562" x="690.9190063476562" id="rel10" class="er relationshipLabel">was_derived_from</text><rect height="14" width="41.1328125" y="1063.386962890625" x="354.93359375" class="er relationshipLabelBox"/><text style="text-anchor: middle; dominant-baseline: middle; font-size: 12px;" y="1070.386962890625" x="375.5" id="rel11" class="er relationshipLabel">type_of</text></svg>