<svg aria-roledescription="er" role="graphics-document document" viewBox="-57.11482620239258 0 538.7359313964844 789.009765625" style="max-width: 538.736px; background-color: white;" xmlns:xlink="http://www.w3.org/1999/xlink" xmlns="http://www.w3.org/2000/svg" width="100%" id="my-svg"><style>#my-svg{font-family:"trebuchet ms",verdana,arial,sans-serif;font-size:16px;fill:#333;}#my-svg .error-icon{fill:#552222;}#my-svg .error-text{fill:#552222;stroke:#552222;}#my-svg .edge-thickness-normal{stroke-width:1px;}#my-svg .edge-thickness-thick{stroke-width:3.5px;}#my-svg .edge-pattern-solid{stroke-dasharray:0;}#my-svg .edge-thickness-invisible{stroke-width:0;fill:none;}#my-svg .edge-pattern-dashed{stroke-dasharray:3;}#my-svg .edge-pattern-dotted{stroke-dasharray:2;}#my-svg .marker{fill:#333333;stroke:#333333;}#my-svg .marker.cross{stroke:#333333;}#my-svg svg{font-family:"trebuchet ms",verdana,arial,sans-serif;font-size:16px;}#my-svg p{margin:0;}#my-svg .entityBox{fill:#ECECFF;stroke:#9370DB;}#my-svg .attributeBoxOdd{fill:#ffffff;stroke:#9370DB;}#my-svg .attributeBoxEven{fill:#f2f2f2;stroke:#9370DB;}#my-svg .relationshipLabelBox{fill:hsl(80, 100%, 96.2745098039%);opacity:0.7;background-color:hsl(80, 100%, 96.2745098039%);}#my-svg .relationshipLabelBox rect{opacity:0.5;}#my-svg .relationshipLine{stroke:#333333;}#my-svg .entityTitleText{text-anchor:middle;font-size:18px;fill:#333;}#my-svg #MD_PARENT_START{fill:#f5f5f5!important;stroke:#333333!important;stroke-width:1;}#my-svg #MD_PARENT_END{fill:#f5f5f5!important;stroke:#333333!important;stroke-width:1;}#my-svg :root{--mermaid-font-family:"trebuchet ms",verdana,arial,sans-serif;}</style><g/><defs><marker orient="auto" markerHeight="240" markerWidth="190" refY="7" refX="0" id="MD_PARENT_START"><path d="M 18,7 L9,13 L1,7 L9,1 Z"/></marker></defs><defs><marker orient="auto" markerHeight="28" markerWidth="20" refY="7" refX="19" id="MD_PARENT_END"><path d="M 18,7 L9,13 L1,7 L9,1 Z"/></marker></defs><defs><marker orient="auto" markerHeight="18" markerWidth="18" refY="9" refX="0" id="ONLY_ONE_START"><path d="M9,0 L9,18 M15,0 L15,18" fill="none" stroke="gray"/></marker></defs><defs><marker orient="auto" markerHeight="18" markerWidth="18" refY="9" refX="18" id="ONLY_ONE_END"><path d="M3,0 L3,18 M9,0 L9,18" fill="none" stroke="gray"/></marker></defs><defs><marker orient="auto" markerHeight="18" markerWidth="30" refY="9" refX="0" id="ZERO_OR_ONE_START"><circle r="6" cy="9" cx="21" fill="white" stroke="gray"/><path d="M9,0 L9,18" fill="none" stroke="gray"/></marker></defs><defs><marker orient="auto" markerHeight="18" markerWidth="30" refY="9" refX="30" id="ZERO_OR_ONE_END"><circle r="6" cy="9" cx="9" fill="white" stroke="gray"/><path d="M21,0 L21,18" fill="none" stroke="gray"/></marker></defs><defs><marker orient="auto" markerHeight="36" markerWidth="45" refY="18" refX="18" id="ONE_OR_MORE_START"><path d="M0,18 Q 18,0 36,18 Q 18,36 0,18 M42,9 L42,27" fill="none" stroke="gray"/></marker></defs><defs><marker orient="auto" markerHeight="36" markerWidth="45" refY="18" refX="27" id="ONE_OR_MORE_END"><path d="M3,9 L3,27 M9,18 Q27,0 45,18 Q27,36 9,18" fill="none" stroke="gray"/></marker></defs><defs><marker orient="auto" markerHeight="36" markerWidth="57" refY="18" refX="18" id="ZERO_OR_MORE_START"><circle r="6" cy="18" cx="48" fill="white" stroke="gray"/><path d="M0,18 Q18,0 36,18 Q18,36 0,18" fill="none" stroke="gray"/></marker></defs><defs><marker orient="auto" markerHeight="36" markerWidth="57" refY="18" refX="39" id="ZERO_OR_MORE_END"><circle r="6" cy="18" cx="9" fill="white" stroke="gray"/><path d="M21,18 Q39,0 57,18 Q39,36 21,18" fill="none" stroke="gray"/></marker></defs><path style="stroke: gray; fill: none;" marker-start="url(#ONLY_ONE_START)" marker-end="url(#ZERO_OR_ONE_END)" d="M309.1,66L322.173,74.333C335.247,82.667,361.395,99.333,374.469,116C387.543,132.667,387.543,149.333,387.543,157.667L387.543,166" class="er relationshipLine"/><path style="stroke: gray; fill: none;" marker-start="url(#ONLY_ONE_START)" marker-end="url(#ZERO_OR_MORE_END)" d="M236.932,66L223.858,74.333C210.784,82.667,184.636,99.333,171.562,127.046C158.488,154.758,158.488,193.517,158.488,212.896L158.488,232.275" class="er relationshipLine"/><path style="stroke: gray; fill: none;" marker-start="url(#ONLY_ONE_START)" marker-end="url(#ZERO_OR_MORE_END)" d="M214.973,315.28L245.568,335.84C276.163,356.401,337.353,397.522,367.948,426.423C398.543,455.325,398.543,472.007,398.543,480.347L398.543,488.688" class="er relationshipLine"/><path style="stroke: gray; fill: none;" marker-start="url(#ONLY_ONE_START)" marker-end="url(#ZERO_OR_MORE_END)" d="M158.488,322.367L158.488,341.746C158.488,361.126,158.488,399.884,158.488,427.597C158.488,455.309,158.488,471.976,158.488,480.309L158.488,488.643" class="er relationshipLine"/><path style="stroke: gray; fill: none;" marker-start="url(#ONLY_ONE_START)" marker-end="url(#ZERO_OR_MORE_END)" d="M109.071,322.367L87.811,341.746C66.551,361.126,24.031,399.884,2.772,436.953C-18.488,474.022,-18.488,509.401,-18.488,544.78C-18.488,580.16,-18.488,615.539,-9.714,641.562C-0.941,667.585,16.607,684.251,25.381,692.585L34.155,700.918" class="er relationshipLine"/><path style="stroke: gray; fill: none;" marker-start="url(#ONLY_ONE_START)" marker-end="url(#ZERO_OR_MORE_END)" d="M158.488,600.918L158.488,609.251C158.488,617.585,158.488,634.251,149.714,650.918C140.941,667.585,123.393,684.251,114.619,692.585L105.845,700.918" class="er relationshipLine"/><path style="stroke: gray; fill: none;" marker-start="url(#ONLY_ONE_START)" marker-end="url(#ZERO_OR_MORE_END)" d="M398.543,600.872L398.543,609.213C398.543,617.554,398.543,634.236,352.119,654.453C305.695,674.67,212.848,698.421,166.424,710.297L120,722.173" class="er relationshipLine"/><g transform="translate(223.015625,20 )" id="entity-Container-bc34fb32-8a75-5b81-936b-92374bf40296"><rect height="46" width="100" y="0" x="0" class="er entityBox"/><text style="dominant-baseline: middle; text-anchor: middle; font-size: 12px;" transform="translate(50,12)" y="0" x="0" id="text-entity-Container-bc34fb32-8a75-5b81-936b-92374bf40296" class="er entityLabel">Container</text><rect height="22" width="67.578125" y="24" x="0" class="er attributeBoxOdd"/><text style="dominant-baseline: middle; font-size: 10.2px;" transform="translate(5,35)" y="0" x="0" id="text-entity-Container-bc34fb32-8a75-5b81-936b-92374bf40296-attr-1-type" class="er entityLabel">uriorcurie</text><rect height="22" width="32.421875" y="24" x="67.578125" class="er attributeBoxOdd"/><text style="dominant-baseline: middle; font-size: 10.2px;" transform="translate(72.578125,35)" y="0" x="0" id="text-entity-Container-bc34fb32-8a75-5b81-936b-92374bf40296-attr-1-name" class="er entityLabel">iri</text></g><g transform="translate(102.00390625,232.275390625 )" id="entity-FtuIllustration-34be1589-3c86-5e2a-8723-bbcddc02f58a"><rect height="90.09179782867432" width="112.96875" y="0" x="0" class="er entityBox"/><text style="dominant-baseline: middle; text-anchor: middle; font-size: 12px;" transform="translate(56.484375,12)" y="0" x="0" id="text-entity-FtuIllustration-34be1589-3c86-5e2a-8723-bbcddc02f58a" class="er entityLabel">FtuIllustration</text><rect height="22" width="54.953125" y="24" x="0" class="er attributeBoxOdd"/><text style="dominant-baseline: middle; font-size: 10.2px;" transform="translate(5,35)" y="0" x="0" id="text-entity-FtuIllustration-34be1589-3c86-5e2a-8723-bbcddc02f58a-attr-1-type" class="er entityLabel">uriorcurie</text><rect height="22" width="58.015625" y="24" x="54.953125" class="er attributeBoxOdd"/><text style="dominant-baseline: middle; font-size: 10.2px;" transform="translate(59.953125,35)" y="0" x="0" id="text-entity-FtuIllustration-34be1589-3c86-5e2a-8723-bbcddc02f58a-attr-1-name" class="er entityLabel">located_in</text><rect height="22" width="54.953125" y="46" x="0" class="er attributeBoxEven"/><text style="dominant-baseline: middle; font-size: 10.2px;" transform="translate(5,57)" y="0" x="0" id="text-entity-FtuIllustration-34be1589-3c86-5e2a-8723-bbcddc02f58a-attr-2-type" class="er entityLabel">uriorcurie</text><rect height="22" width="58.015625" y="46" x="54.953125" class="er attributeBoxEven"/><text style="dominant-baseline: middle; font-size: 10.2px;" transform="translate(59.953125,57)" y="0" x="0" id="text-entity-FtuIllustration-34be1589-3c86-5e2a-8723-bbcddc02f58a-attr-2-name" class="er entityLabel">id</text><rect height="22.091797828674316" width="54.953125" y="68" x="0" class="er attributeBoxOdd"/><text style="dominant-baseline: middle; font-size: 10.2px;" transform="translate(5,79.04589891433716)" y="0" x="0" id="text-entity-FtuIllustration-34be1589-3c86-5e2a-8723-bbcddc02f58a-attr-3-type" class="er entityLabel">string</text><rect height="22.091797828674316" width="58.015625" y="68" x="54.953125" class="er attributeBoxOdd"/><text style="dominant-baseline: middle; font-size: 10.2px;" transform="translate(59.953125,79.04589891433716)" y="0" x="0" id="text-entity-FtuIllustration-34be1589-3c86-5e2a-8723-bbcddc02f58a-attr-3-name" class="er entityLabel">label</text></g><g transform="translate(20,700.91796875 )" id="entity-Named-527792da-945b-57c2-aece-6a504f46f916"><rect height="68.09179782867432" width="100" y="0" x="0" class="er entityBox"/><text style="dominant-baseline: middle; text-anchor: middle; font-size: 12px;" transform="translate(50,12)" y="0" x="0" id="text-entity-Named-527792da-945b-57c2-aece-6a504f46f916" class="er entityLabel">Named</text><rect height="22" width="61.1640625" y="24" x="0" class="er attributeBoxOdd"/><text style="dominant-baseline: middle; font-size: 10.2px;" transform="translate(5,35)" y="0" x="0" id="text-entity-Named-527792da-945b-57c2-aece-6a504f46f916-attr-1-type" class="er entityLabel">uriorcurie</text><rect height="22" width="38.8359375" y="24" x="61.1640625" class="er attributeBoxOdd"/><text style="dominant-baseline: middle; font-size: 10.2px;" transform="translate(66.1640625,35)" y="0" x="0" id="text-entity-Named-527792da-945b-57c2-aece-6a504f46f916-attr-1-name" class="er entityLabel">id</text><rect height="22.091797828674316" width="61.1640625" y="46" x="0" class="er attributeBoxEven"/><text style="dominant-baseline: middle; font-size: 10.2px;" transform="translate(5,57.04589891433716)" y="0" x="0" id="text-entity-Named-527792da-945b-57c2-aece-6a504f46f916-attr-2-type" class="er entityLabel">string</text><rect height="22.091797828674316" width="38.8359375" y="46" x="61.1640625" class="er attributeBoxEven"/><text style="dominant-baseline: middle; font-size: 10.2px;" transform="translate(66.1640625,57.04589891433716)" y="0" x="0" id="text-entity-Named-527792da-945b-57c2-aece-6a504f46f916-attr-2-name" class="er entityLabel">label</text></g><g transform="translate(81.51171875,488.642578125 )" id="entity-FtuIllustrationNode-06e03507-7f6b-5f00-b53f-e37ac626315d"><rect height="112.27539348602295" width="153.953125" y="0" x="0" class="er entityBox"/><text style="dominant-baseline: middle; text-anchor: middle; font-size: 12px;" transform="translate(76.9765625,12)" y="0" x="0" id="text-entity-FtuIllustrationNode-06e03507-7f6b-5f00-b53f-e37ac626315d" class="er entityLabel">FtuIllustrationNode</text><rect height="22.091797828674316" width="54.953125" y="24" x="0" class="er attributeBoxOdd"/><text style="dominant-baseline: middle; font-size: 10.2px;" transform="translate(5,35.04589891433716)" y="0" x="0" id="text-entity-FtuIllustrationNode-06e03507-7f6b-5f00-b53f-e37ac626315d-attr-1-type" class="er entityLabel">string</text><rect height="22.091797828674316" width="99" y="24" x="54.953125" class="er attributeBoxOdd"/><text style="dominant-baseline: middle; font-size: 10.2px;" transform="translate(59.953125,35.04589891433716)" y="0" x="0" id="text-entity-FtuIllustrationNode-06e03507-7f6b-5f00-b53f-e37ac626315d-attr-1-name" class="er entityLabel">node_name</text><rect height="22.091797828674316" width="54.953125" y="46.091797828674316" x="0" class="er attributeBoxEven"/><text style="dominant-baseline: middle; font-size: 10.2px;" transform="translate(5,57.137696743011475)" y="0" x="0" id="text-entity-FtuIllustrationNode-06e03507-7f6b-5f00-b53f-e37ac626315d-attr-2-type" class="er entityLabel">string</text><rect height="22.091797828674316" width="99" y="46.091797828674316" x="54.953125" class="er attributeBoxEven"/><text style="dominant-baseline: middle; font-size: 10.2px;" transform="translate(59.953125,57.137696743011475)" y="0" x="0" id="text-entity-FtuIllustrationNode-06e03507-7f6b-5f00-b53f-e37ac626315d-attr-2-name" class="er entityLabel">part_of_illustration</text><rect height="22" width="54.953125" y="68.18359565734863" x="0" class="er attributeBoxOdd"/><text style="dominant-baseline: middle; font-size: 10.2px;" transform="translate(5,79.18359565734863)" y="0" x="0" id="text-entity-FtuIllustrationNode-06e03507-7f6b-5f00-b53f-e37ac626315d-attr-3-type" class="er entityLabel">uriorcurie</text><rect height="22" width="99" y="68.18359565734863" x="54.953125" class="er attributeBoxOdd"/><text style="dominant-baseline: middle; font-size: 10.2px;" transform="translate(59.953125,79.18359565734863)" y="0" x="0" id="text-entity-FtuIllustrationNode-06e03507-7f6b-5f00-b53f-e37ac626315d-attr-3-name" class="er entityLabel">id</text><rect height="22.091797828674316" width="54.953125" y="90.18359565734863" x="0" class="er attributeBoxEven"/><text style="dominant-baseline: middle; font-size: 10.2px;" transform="translate(5,101.22949457168579)" y="0" x="0" id="text-entity-FtuIllustrationNode-06e03507-7f6b-5f00-b53f-e37ac626315d-attr-4-type" class="er entityLabel">string</text><rect height="22.091797828674316" width="99" y="90.18359565734863" x="54.953125" class="er attributeBoxEven"/><text style="dominant-baseline: middle; font-size: 10.2px;" transform="translate(59.953125,101.22949457168579)" y="0" x="0" id="text-entity-FtuIllustrationNode-06e03507-7f6b-5f00-b53f-e37ac626315d-attr-4-name" class="er entityLabel">label</text></g><g transform="translate(335.46484375,488.6884765625 )" id="entity-FtuIllustrationFile-1f8fa152-fa14-5892-8686-63f30b69f575"><rect height="112.18359565734863" width="126.15625" y="0" x="0" class="er entityBox"/><text style="dominant-baseline: middle; text-anchor: middle; font-size: 12px;" transform="translate(63.078125,12)" y="0" x="0" id="text-entity-FtuIllustrationFile-1f8fa152-fa14-5892-8686-63f30b69f575" class="er entityLabel">FtuIllustrationFile</text><rect height="22" width="59.7109375" y="24" x="0" class="er attributeBoxOdd"/><text style="dominant-baseline: middle; font-size: 10.2px;" transform="translate(5,35)" y="0" x="0" id="text-entity-FtuIllustrationFile-1f8fa152-fa14-5892-8686-63f30b69f575-attr-1-type" class="er entityLabel">uri</text><rect height="22" width="66.4453125" y="24" x="59.7109375" class="er attributeBoxOdd"/><text style="dominant-baseline: middle; font-size: 10.2px;" transform="translate(64.7109375,35)" y="0" x="0" id="text-entity-FtuIllustrationFile-1f8fa152-fa14-5892-8686-63f30b69f575-attr-1-name" class="er entityLabel">file_url</text><rect height="22.091797828674316" width="59.7109375" y="46" x="0" class="er attributeBoxEven"/><text style="dominant-baseline: middle; font-size: 10.2px;" transform="translate(5,57.04589891433716)" y="0" x="0" id="text-entity-FtuIllustrationFile-1f8fa152-fa14-5892-8686-63f30b69f575-attr-2-type" class="er entityLabel">string</text><rect height="22.091797828674316" width="66.4453125" y="46" x="59.7109375" class="er attributeBoxEven"/><text style="dominant-baseline: middle; font-size: 10.2px;" transform="translate(64.7109375,57.04589891433716)" y="0" x="0" id="text-entity-FtuIllustrationFile-1f8fa152-fa14-5892-8686-63f30b69f575-attr-2-name" class="er entityLabel">file_format</text><rect height="22" width="59.7109375" y="68.09179782867432" x="0" class="er attributeBoxOdd"/><text style="dominant-baseline: middle; font-size: 10.2px;" transform="translate(5,79.09179782867432)" y="0" x="0" id="text-entity-FtuIllustrationFile-1f8fa152-fa14-5892-8686-63f30b69f575-attr-3-type" class="er entityLabel">uriorcurie</text><rect height="22" width="66.4453125" y="68.09179782867432" x="59.7109375" class="er attributeBoxOdd"/><text style="dominant-baseline: middle; font-size: 10.2px;" transform="translate(64.7109375,79.09179782867432)" y="0" x="0" id="text-entity-FtuIllustrationFile-1f8fa152-fa14-5892-8686-63f30b69f575-attr-3-name" class="er entityLabel">id</text><rect height="22.091797828674316" width="59.7109375" y="90.09179782867432" x="0" class="er attributeBoxEven"/><text style="dominant-baseline: middle; font-size: 10.2px;" transform="translate(5,101.13769674301147)" y="0" x="0" id="text-entity-FtuIllustrationFile-1f8fa152-fa14-5892-8686-63f30b69f575-attr-4-type" class="er entityLabel">string</text><rect height="22.091797828674316" width="66.4453125" y="90.09179782867432" x="59.7109375" class="er attributeBoxEven"/><text style="dominant-baseline: middle; font-size: 10.2px;" transform="translate(64.7109375,101.13769674301147)" y="0" x="0" id="text-entity-FtuIllustrationFile-1f8fa152-fa14-5892-8686-63f30b69f575-attr-4-name" class="er entityLabel">label</text></g><g transform="translate(314.97265625,166 )" id="entity-FtuMetadata-05f03653-eeef-5522-8ffe-39db23941fa9"><rect height="222.6425838470459" width="145.140625" y="0" x="0" class="er entityBox"/><text style="dominant-baseline: middle; text-anchor: middle; font-size: 12px;" transform="translate(72.5703125,12)" y="0" x="0" id="text-entity-FtuMetadata-05f03653-eeef-5522-8ffe-39db23941fa9" class="er entityLabel">FtuMetadata</text><rect height="22.091797828674316" width="71.203125" y="24" x="0" class="er attributeBoxOdd"/><text style="dominant-baseline: middle; font-size: 10.2px;" transform="translate(5,35.04589891433716)" y="0" x="0" id="text-entity-FtuMetadata-05f03653-eeef-5522-8ffe-39db23941fa9-attr-1-type" class="er entityLabel">string</text><rect height="22.091797828674316" width="73.9375" y="24" x="71.203125" class="er attributeBoxOdd"/><text style="dominant-baseline: middle; font-size: 10.2px;" transform="translate(76.203125,35.04589891433716)" y="0" x="0" id="text-entity-FtuMetadata-05f03653-eeef-5522-8ffe-39db23941fa9-attr-1-name" class="er entityLabel">title</text><rect height="22.091797828674316" width="71.203125" y="46.091797828674316" x="0" class="er attributeBoxEven"/><text style="dominant-baseline: middle; font-size: 10.2px;" transform="translate(5,57.137696743011475)" y="0" x="0" id="text-entity-FtuMetadata-05f03653-eeef-5522-8ffe-39db23941fa9-attr-2-type" class="er entityLabel">string</text><rect height="22.091797828674316" width="73.9375" y="46.091797828674316" x="71.203125" class="er attributeBoxEven"/><text style="dominant-baseline: middle; font-size: 10.2px;" transform="translate(76.203125,57.137696743011475)" y="0" x="0" id="text-entity-FtuMetadata-05f03653-eeef-5522-8ffe-39db23941fa9-attr-2-name" class="er entityLabel">description</text><rect height="22.091796875" width="71.203125" y="68.18359565734863" x="0" class="er attributeBoxOdd"/><text style="dominant-baseline: middle; font-size: 10.2px;" transform="translate(5,79.22949409484863)" y="0" x="0" id="text-entity-FtuMetadata-05f03653-eeef-5522-8ffe-39db23941fa9-attr-3-type" class="er entityLabel">uriorcurieList</text><rect height="22.091796875" width="73.9375" y="68.18359565734863" x="71.203125" class="er attributeBoxOdd"/><text style="dominant-baseline: middle; font-size: 10.2px;" transform="translate(76.203125,79.22949409484863)" y="0" x="0" id="text-entity-FtuMetadata-05f03653-eeef-5522-8ffe-39db23941fa9-attr-3-name" class="er entityLabel">created_by</text><rect height="22.091797828674316" width="71.203125" y="90.27539253234863" x="0" class="er attributeBoxEven"/><text style="dominant-baseline: middle; font-size: 10.2px;" transform="translate(5,101.32129144668579)" y="0" x="0" id="text-entity-FtuMetadata-05f03653-eeef-5522-8ffe-39db23941fa9-attr-4-type" class="er entityLabel">string</text><rect height="22.091797828674316" width="73.9375" y="90.27539253234863" x="71.203125" class="er attributeBoxEven"/><text style="dominant-baseline: middle; font-size: 10.2px;" transform="translate(76.203125,101.32129144668579)" y="0" x="0" id="text-entity-FtuMetadata-05f03653-eeef-5522-8ffe-39db23941fa9-attr-4-name" class="er entityLabel">creation_date</text><rect height="22.091797828674316" width="71.203125" y="112.36719036102295" x="0" class="er attributeBoxOdd"/><text style="dominant-baseline: middle; font-size: 10.2px;" transform="translate(5,123.41308927536011)" y="0" x="0" id="text-entity-FtuMetadata-05f03653-eeef-5522-8ffe-39db23941fa9-attr-5-type" class="er entityLabel">string</text><rect height="22.091797828674316" width="73.9375" y="112.36719036102295" x="71.203125" class="er attributeBoxOdd"/><text style="dominant-baseline: middle; font-size: 10.2px;" transform="translate(76.203125,123.41308927536011)" y="0" x="0" id="text-entity-FtuMetadata-05f03653-eeef-5522-8ffe-39db23941fa9-attr-5-name" class="er entityLabel">version</text><rect height="22.091797828674316" width="71.203125" y="134.45898818969727" x="0" class="er attributeBoxEven"/><text style="dominant-baseline: middle; font-size: 10.2px;" transform="translate(5,145.50488710403442)" y="0" x="0" id="text-entity-FtuMetadata-05f03653-eeef-5522-8ffe-39db23941fa9-attr-6-type" class="er entityLabel">string</text><rect height="22.091797828674316" width="73.9375" y="134.45898818969727" x="71.203125" class="er attributeBoxEven"/><text style="dominant-baseline: middle; font-size: 10.2px;" transform="translate(76.203125,145.50488710403442)" y="0" x="0" id="text-entity-FtuMetadata-05f03653-eeef-5522-8ffe-39db23941fa9-attr-6-name" class="er entityLabel">license</text><rect height="22.091797828674316" width="71.203125" y="156.55078601837158" x="0" class="er attributeBoxOdd"/><text style="dominant-baseline: middle; font-size: 10.2px;" transform="translate(5,167.59668493270874)" y="0" x="0" id="text-entity-FtuMetadata-05f03653-eeef-5522-8ffe-39db23941fa9-attr-7-type" class="er entityLabel">string</text><rect height="22.091797828674316" width="73.9375" y="156.55078601837158" x="71.203125" class="er attributeBoxOdd"/><text style="dominant-baseline: middle; font-size: 10.2px;" transform="translate(76.203125,167.59668493270874)" y="0" x="0" id="text-entity-FtuMetadata-05f03653-eeef-5522-8ffe-39db23941fa9-attr-7-name" class="er entityLabel">publisher</text><rect height="22" width="71.203125" y="178.6425838470459" x="0" class="er attributeBoxEven"/><text style="dominant-baseline: middle; font-size: 10.2px;" transform="translate(5,189.6425838470459)" y="0" x="0" id="text-entity-FtuMetadata-05f03653-eeef-5522-8ffe-39db23941fa9-attr-8-type" class="er entityLabel">uriorcurie</text><rect height="22" width="73.9375" y="178.6425838470459" x="71.203125" class="er attributeBoxEven"/><text style="dominant-baseline: middle; font-size: 10.2px;" transform="translate(76.203125,189.6425838470459)" y="0" x="0" id="text-entity-FtuMetadata-05f03653-eeef-5522-8ffe-39db23941fa9-attr-8-name" class="er entityLabel">see_also</text><rect height="22" width="71.203125" y="200.6425838470459" x="0" class="er attributeBoxOdd"/><text style="dominant-baseline: middle; font-size: 10.2px;" transform="translate(5,211.6425838470459)" y="0" x="0" id="text-entity-FtuMetadata-05f03653-eeef-5522-8ffe-39db23941fa9-attr-9-type" class="er entityLabel">uriorcurie</text><rect height="22" width="73.9375" y="200.6425838470459" x="71.203125" class="er attributeBoxOdd"/><text style="dominant-baseline: middle; font-size: 10.2px;" transform="translate(76.203125,211.6425838470459)" y="0" x="0" id="text-entity-FtuMetadata-05f03653-eeef-5522-8ffe-39db23941fa9-attr-9-name" class="er entityLabel">derived_from</text></g><rect height="14" width="51.625" y="98.17330932617188" x="338.49896240234375" class="er relationshipLabelBox"/><text style="text-anchor: middle; dominant-baseline: middle; font-size: 12px;" y="105.17330932617188" x="364.31146240234375" id="rel1" class="er relationshipLabel">metadata</text><rect height="14" width="24.0625" y="127.46617126464844" x="156.4228973388672" class="er relationshipLabelBox"/><text style="text-anchor: middle; dominant-baseline: middle; font-size: 12px;" y="134.46617126464844" x="168.4541473388672" id="rel2" class="er relationshipLabel">data</text><rect height="14" width="56.5" y="382.52978515625" x="294.3149719238281" class="er relationshipLabelBox"/><text style="text-anchor: middle; dominant-baseline: middle; font-size: 12px;" y="389.52978515625" x="322.5649719238281" id="rel3" class="er relationshipLabel">image_file</text><rect height="14" width="91.34375" y="398.5050048828125" x="112.81613159179688" class="er relationshipLabelBox"/><text style="text-anchor: middle; dominant-baseline: middle; font-size: 12px;" y="405.5050048828125" x="158.48800659179688" id="rel4" class="er relationshipLabel">illustration_node</text><rect height="14" width="41.1328125" y="489.8489685058594" x="-37.11482810974121" class="er relationshipLabelBox"/><text style="text-anchor: middle; dominant-baseline: middle; font-size: 12px;" y="496.8489685058594" x="-16.54842185974121" id="rel5" class="er relationshipLabel">type_of</text><rect height="14" width="41.1328125" y="650.5573120117188" x="125.21693420410156" class="er relationshipLabelBox"/><text style="text-anchor: middle; dominant-baseline: middle; font-size: 12px;" y="657.5573120117188" x="145.78334045410156" id="rel6" class="er relationshipLabel">type_of</text><rect height="14" width="41.1328125" y="674.1724243164062" x="253.61767578125" class="er relationshipLabelBox"/><text style="text-anchor: middle; dominant-baseline: middle; font-size: 12px;" y="681.1724243164062" x="274.18408203125" id="rel7" class="er relationshipLabel">type_of</text></svg>