<svg aria-roledescription="er" role="graphics-document document" viewBox="0 0 968.04296875 1164.38671875" style="max-width: 968.043px; background-color: white;" xmlns:xlink="http://www.w3.org/1999/xlink" xmlns="http://www.w3.org/2000/svg" width="100%" id="my-svg"><style>#my-svg{font-family:"trebuchet ms",verdana,arial,sans-serif;font-size:16px;fill:#333;}#my-svg .error-icon{fill:#552222;}#my-svg .error-text{fill:#552222;stroke:#552222;}#my-svg .edge-thickness-normal{stroke-width:1px;}#my-svg .edge-thickness-thick{stroke-width:3.5px;}#my-svg .edge-pattern-solid{stroke-dasharray:0;}#my-svg .edge-thickness-invisible{stroke-width:0;fill:none;}#my-svg .edge-pattern-dashed{stroke-dasharray:3;}#my-svg .edge-pattern-dotted{stroke-dasharray:2;}#my-svg .marker{fill:#333333;stroke:#333333;}#my-svg .marker.cross{stroke:#333333;}#my-svg svg{font-family:"trebuchet ms",verdana,arial,sans-serif;font-size:16px;}#my-svg p{margin:0;}#my-svg .entityBox{fill:#ECECFF;stroke:#9370DB;}#my-svg .attributeBoxOdd{fill:#ffffff;stroke:#9370DB;}#my-svg .attributeBoxEven{fill:#f2f2f2;stroke:#9370DB;}#my-svg .relationshipLabelBox{fill:hsl(80, 100%, 96.2745098039%);opacity:0.7;background-color:hsl(80, 100%, 96.2745098039%);}#my-svg .relationshipLabelBox rect{opacity:0.5;}#my-svg .relationshipLine{stroke:#333333;}#my-svg .entityTitleText{text-anchor:middle;font-size:18px;fill:#333;}#my-svg #MD_PARENT_START{fill:#f5f5f5!important;stroke:#333333!important;stroke-width:1;}#my-svg #MD_PARENT_END{fill:#f5f5f5!important;stroke:#333333!important;stroke-width:1;}#my-svg :root{--mermaid-font-family:"trebuchet ms",verdana,arial,sans-serif;}</style><g/><defs><marker orient="auto" markerHeight="240" markerWidth="190" refY="7" refX="0" id="MD_PARENT_START"><path d="M 18,7 L9,13 L1,7 L9,1 Z"/></marker></defs><defs><marker orient="auto" markerHeight="28" markerWidth="20" refY="7" refX="19" id="MD_PARENT_END"><path d="M 18,7 L9,13 L1,7 L9,1 Z"/></marker></defs><defs><marker orient="auto" markerHeight="18" markerWidth="18" refY="9" refX="0" id="ONLY_ONE_START"><path d="M9,0 L9,18 M15,0 L15,18" fill="none" stroke="gray"/></marker></defs><defs><marker orient="auto" markerHeight="18" markerWidth="18" refY="9" refX="18" id="ONLY_ONE_END"><path d="M3,0 L3,18 M9,0 L9,18" fill="none" stroke="gray"/></marker></defs><defs><marker orient="auto" markerHeight="18" markerWidth="30" refY="9" refX="0" id="ZERO_OR_ONE_START"><circle r="6" cy="9" cx="21" fill="white" stroke="gray"/><path d="M9,0 L9,18" fill="none" stroke="gray"/></marker></defs><defs><marker orient="auto" markerHeight="18" markerWidth="30" refY="9" refX="30" id="ZERO_OR_ONE_END"><circle r="6" cy="9" cx="9" fill="white" stroke="gray"/><path d="M21,0 L21,18" fill="none" stroke="gray"/></marker></defs><defs><marker orient="auto" markerHeight="36" markerWidth="45" refY="18" refX="18" id="ONE_OR_MORE_START"><path d="M0,18 Q 18,0 36,18 Q 18,36 0,18 M42,9 L42,27" fill="none" stroke="gray"/></marker></defs><defs><marker orient="auto" markerHeight="36" markerWidth="45" refY="18" refX="27" id="ONE_OR_MORE_END"><path d="M3,9 L3,27 M9,18 Q27,0 45,18 Q27,36 9,18" fill="none" stroke="gray"/></marker></defs><defs><marker orient="auto" markerHeight="36" markerWidth="57" refY="18" refX="18" id="ZERO_OR_MORE_START"><circle r="6" cy="18" cx="48" fill="white" stroke="gray"/><path d="M0,18 Q18,0 36,18 Q18,36 0,18" fill="none" stroke="gray"/></marker></defs><defs><marker orient="auto" markerHeight="36" markerWidth="57" refY="18" refX="39" id="ZERO_OR_MORE_END"><circle r="6" cy="18" cx="9" fill="white" stroke="gray"/><path d="M21,18 Q39,0 57,18 Q39,36 21,18" fill="none" stroke="gray"/></marker></defs><path style="stroke: gray; fill: none;" marker-start="url(#ONLY_ONE_START)" marker-end="url(#ONE_OR_MORE_END)" d="M498.176,185.068L549.669,210.361C601.161,235.654,704.147,286.24,755.64,345.776C807.133,405.313,807.133,473.799,807.133,542.285C807.133,610.771,807.133,679.258,816.154,729.198C825.176,779.139,843.218,810.533,852.24,826.23L861.261,841.928" class="er relationshipLine"/><path style="stroke: gray; fill: none;" marker-start="url(#ONLY_ONE_START)" marker-end="url(#ONE_OR_MORE_END)" d="M369.285,186.153L319.854,211.265C270.423,236.377,171.561,286.602,122.13,345.957C72.699,405.313,72.699,473.799,72.699,542.285C72.699,610.771,72.699,679.258,73.321,723.691C73.942,768.123,75.186,788.503,75.807,798.692L76.429,808.882" class="er relationshipLine"/><path style="stroke: gray; fill: none;" marker-start="url(#ONLY_ONE_START)" marker-end="url(#ZERO_OR_ONE_END)" d="M433.73,286.826L433.73,295.16C433.73,303.493,433.73,320.16,433.73,336.826C433.73,353.493,433.73,370.16,433.73,378.493L433.73,386.826" class="er relationshipLine"/><path style="stroke: gray; fill: none;" marker-start="url(#ONLY_ONE_START)" marker-end="url(#ZERO_OR_MORE_END)" d="M500.277,571.167L568.087,600.596C635.896,630.026,771.514,688.885,837.074,734.012C902.634,779.139,898.136,810.533,895.886,826.23L893.637,841.928" class="er relationshipLine"/><path style="stroke: gray; fill: none;" marker-start="url(#ONLY_ONE_START)" marker-end="url(#ZERO_OR_MORE_END)" d="M367.184,633.436L353.275,652.488C339.366,671.539,311.548,709.641,303.13,737.026C294.712,764.411,305.694,781.077,311.185,789.411L316.676,797.744" class="er relationshipLine"/><path style="stroke: gray; fill: none;" marker-start="url(#ONLY_ONE_START)" marker-end="url(#ZERO_OR_MORE_END)" d="M500.277,613.842L521.032,636.159C541.786,658.476,583.296,703.11,604.05,742.958C624.805,782.805,624.805,817.867,624.805,835.397L624.805,852.928" class="er relationshipLine"/><path style="stroke: gray; fill: none;" marker-start="url(#ONLY_ONE_START)" marker-end="url(#ZERO_OR_MORE_END)" d="M395.898,697.744L393.87,706.077C391.842,714.411,387.786,731.077,385.266,747.744C382.746,764.411,381.761,781.077,381.268,789.411L380.776,797.744" class="er relationshipLine"/><path style="stroke: gray; fill: none;" marker-start="url(#ONLY_ONE_START)" marker-end="url(#ZERO_OR_MORE_END)" d="M471.563,697.744L473.591,706.077C475.619,714.411,479.675,731.077,473.809,749.569C467.943,768.06,452.155,788.377,444.261,798.535L436.367,808.693" class="er relationshipLine"/><path style="stroke: gray; fill: none;" marker-start="url(#ONLY_ONE_START)" marker-end="url(#ZERO_OR_MORE_END)" d="M367.184,596.976L336.608,622.104C306.033,647.232,244.882,697.488,206.804,732.806C168.727,768.123,153.724,788.503,146.222,798.692L138.721,808.882" class="er relationshipLine"/><path style="stroke: gray; fill: none;" marker-start="url(#ONLY_ONE_START)" marker-end="url(#ZERO_OR_ONE_END)" d="M500.277,490.846L522.706,473.509C545.134,456.173,589.991,421.499,618.026,404.163C646.062,386.826,657.276,386.826,668.49,412.736C679.704,438.646,690.919,490.465,690.919,542.285C690.919,594.105,679.704,645.924,668.49,671.834C657.276,697.744,646.062,697.744,618.026,680.408C589.991,663.071,545.134,628.398,522.706,611.061L500.277,593.724" class="er relationshipLine"/><path style="stroke: gray; fill: none;" marker-start="url(#ONLY_ONE_START)" marker-end="url(#ZERO_OR_MORE_END)" d="M375.5,976.295L375.5,984.628C375.5,992.962,375.5,1009.628,375.5,1026.295C375.5,1042.962,375.5,1059.628,375.5,1067.962L375.5,1076.295" class="er relationshipLine"/><g transform="translate(369.28515625,20 )" id="entity-Container-bc34fb32-8a75-5b81-936b-92374bf40296"><rect height="266.82618045806885" width="128.890625" y="0" x="0" class="er entityBox"/><text style="dominant-baseline: middle; text-anchor: middle; font-size: 12px;" transform="translate(64.4453125,12)" y="0" x="0" id="text-entity-Container-bc34fb32-8a75-5b81-936b-92374bf40296" class="er entityLabel">Container</text><rect height="22.091797828674316" width="54.953125" y="24" x="0" class="er attributeBoxOdd"/><text style="dominant-baseline: middle; font-size: 10.2px;" transform="translate(5,35.04589891433716)" y="0" x="0" id="text-entity-Container-bc34fb32-8a75-5b81-936b-92374bf40296-attr-1-type" class="er entityLabel">string</text><rect height="22.091797828674316" width="73.9375" y="24" x="54.953125" class="er attributeBoxOdd"/><text style="dominant-baseline: middle; font-size: 10.2px;" transform="translate(59.953125,35.04589891433716)" y="0" x="0" id="text-entity-Container-bc34fb32-8a75-5b81-936b-92374bf40296-attr-1-name" class="er entityLabel">name</text><rect height="22.091797828674316" width="54.953125" y="46.091797828674316" x="0" class="er attributeBoxEven"/><text style="dominant-baseline: middle; font-size: 10.2px;" transform="translate(5,57.137696743011475)" y="0" x="0" id="text-entity-Container-bc34fb32-8a75-5b81-936b-92374bf40296-attr-2-type" class="er entityLabel">string</text><rect height="22.091797828674316" width="73.9375" y="46.091797828674316" x="54.953125" class="er attributeBoxEven"/><text style="dominant-baseline: middle; font-size: 10.2px;" transform="translate(59.953125,57.137696743011475)" y="0" x="0" id="text-entity-Container-bc34fb32-8a75-5b81-936b-92374bf40296-attr-2-name" class="er entityLabel">type</text><rect height="22.091797828674316" width="54.953125" y="68.18359565734863" x="0" class="er attributeBoxOdd"/><text style="dominant-baseline: middle; font-size: 10.2px;" transform="translate(5,79.22949457168579)" y="0" x="0" id="text-entity-Container-bc34fb32-8a75-5b81-936b-92374bf40296-attr-3-type" class="er entityLabel">string</text><rect height="22.091797828674316" width="73.9375" y="68.18359565734863" x="54.953125" class="er attributeBoxOdd"/><text style="dominant-baseline: middle; font-size: 10.2px;" transform="translate(59.953125,79.22949457168579)" y="0" x="0" id="text-entity-Container-bc34fb32-8a75-5b81-936b-92374bf40296-attr-3-name" class="er entityLabel">title</text><rect height="22.091797828674316" width="54.953125" y="90.27539348602295" x="0" class="er attributeBoxEven"/><text style="dominant-baseline: middle; font-size: 10.2px;" transform="translate(5,101.32129240036011)" y="0" x="0" id="text-entity-Container-bc34fb32-8a75-5b81-936b-92374bf40296-attr-4-type" class="er entityLabel">string</text><rect height="22.091797828674316" width="73.9375" y="90.27539348602295" x="54.953125" class="er attributeBoxEven"/><text style="dominant-baseline: middle; font-size: 10.2px;" transform="translate(59.953125,101.32129240036011)" y="0" x="0" id="text-entity-Container-bc34fb32-8a75-5b81-936b-92374bf40296-attr-4-name" class="er entityLabel">description</text><rect height="22.091797828674316" width="54.953125" y="112.36719131469727" x="0" class="er attributeBoxOdd"/><text style="dominant-baseline: middle; font-size: 10.2px;" transform="translate(5,123.41309022903442)" y="0" x="0" id="text-entity-Container-bc34fb32-8a75-5b81-936b-92374bf40296-attr-5-type" class="er entityLabel">string</text><rect height="22.091797828674316" width="73.9375" y="112.36719131469727" x="54.953125" class="er attributeBoxOdd"/><text style="dominant-baseline: middle; font-size: 10.2px;" transform="translate(59.953125,123.41309022903442)" y="0" x="0" id="text-entity-Container-bc34fb32-8a75-5b81-936b-92374bf40296-attr-5-name" class="er entityLabel">version</text><rect height="22.091797828674316" width="54.953125" y="134.45898914337158" x="0" class="er attributeBoxEven"/><text style="dominant-baseline: middle; font-size: 10.2px;" transform="translate(5,145.50488805770874)" y="0" x="0" id="text-entity-Container-bc34fb32-8a75-5b81-936b-92374bf40296-attr-6-type" class="er entityLabel">string</text><rect height="22.091797828674316" width="73.9375" y="134.45898914337158" x="54.953125" class="er attributeBoxEven"/><text style="dominant-baseline: middle; font-size: 10.2px;" transform="translate(59.953125,145.50488805770874)" y="0" x="0" id="text-entity-Container-bc34fb32-8a75-5b81-936b-92374bf40296-attr-6-name" class="er entityLabel">creation_date</text><rect height="22.091797828674316" width="54.953125" y="156.5507869720459" x="0" class="er attributeBoxOdd"/><text style="dominant-baseline: middle; font-size: 10.2px;" transform="translate(5,167.59668588638306)" y="0" x="0" id="text-entity-Container-bc34fb32-8a75-5b81-936b-92374bf40296-attr-7-type" class="er entityLabel">string</text><rect height="22.091797828674316" width="73.9375" y="156.5507869720459" x="54.953125" class="er attributeBoxOdd"/><text style="dominant-baseline: middle; font-size: 10.2px;" transform="translate(59.953125,167.59668588638306)" y="0" x="0" id="text-entity-Container-bc34fb32-8a75-5b81-936b-92374bf40296-attr-7-name" class="er entityLabel">publisher</text><rect height="22.091797828674316" width="54.953125" y="178.64258480072021" x="0" class="er attributeBoxEven"/><text style="dominant-baseline: middle; font-size: 10.2px;" transform="translate(5,189.68848371505737)" y="0" x="0" id="text-entity-Container-bc34fb32-8a75-5b81-936b-92374bf40296-attr-8-type" class="er entityLabel">string</text><rect height="22.091797828674316" width="73.9375" y="178.64258480072021" x="54.953125" class="er attributeBoxEven"/><text style="dominant-baseline: middle; font-size: 10.2px;" transform="translate(59.953125,189.68848371505737)" y="0" x="0" id="text-entity-Container-bc34fb32-8a75-5b81-936b-92374bf40296-attr-8-name" class="er entityLabel">license</text><rect height="22" width="54.953125" y="200.73438262939453" x="0" class="er attributeBoxOdd"/><text style="dominant-baseline: middle; font-size: 10.2px;" transform="translate(5,211.73438262939453)" y="0" x="0" id="text-entity-Container-bc34fb32-8a75-5b81-936b-92374bf40296-attr-9-type" class="er entityLabel">uriorcurie</text><rect height="22" width="73.9375" y="200.73438262939453" x="54.953125" class="er attributeBoxOdd"/><text style="dominant-baseline: middle; font-size: 10.2px;" transform="translate(59.953125,211.73438262939453)" y="0" x="0" id="text-entity-Container-bc34fb32-8a75-5b81-936b-92374bf40296-attr-9-name" class="er entityLabel">see_also</text><rect height="22" width="54.953125" y="222.73438262939453" x="0" class="er attributeBoxEven"/><text style="dominant-baseline: middle; font-size: 10.2px;" transform="translate(5,233.73438262939453)" y="0" x="0" id="text-entity-Container-bc34fb32-8a75-5b81-936b-92374bf40296-attr-10-type" class="er entityLabel">uriorcurie</text><rect height="22" width="73.9375" y="222.73438262939453" x="54.953125" class="er attributeBoxEven"/><text style="dominant-baseline: middle; font-size: 10.2px;" transform="translate(59.953125,233.73438262939453)" y="0" x="0" id="text-entity-Container-bc34fb32-8a75-5b81-936b-92374bf40296-attr-10-name" class="er entityLabel">id</text><rect height="22.091797828674316" width="54.953125" y="244.73438262939453" x="0" class="er attributeBoxOdd"/><text style="dominant-baseline: middle; font-size: 10.2px;" transform="translate(5,255.7802815437317)" y="0" x="0" id="text-entity-Container-bc34fb32-8a75-5b81-936b-92374bf40296-attr-11-type" class="er entityLabel">string</text><rect height="22.091797828674316" width="73.9375" y="244.73438262939453" x="54.953125" class="er attributeBoxOdd"/><text style="dominant-baseline: middle; font-size: 10.2px;" transform="translate(59.953125,255.7802815437317)" y="0" x="0" id="text-entity-Container-bc34fb32-8a75-5b81-936b-92374bf40296-attr-11-name" class="er entityLabel">label</text></g><g transform="translate(367.18359375,386.826171875 )" id="entity-Dataset-ea18c94d-808e-5959-ac2f-1bcc27afd155"><rect height="310.91797828674316" width="133.09375" y="0" x="0" class="er entityBox"/><text style="dominant-baseline: middle; text-anchor: middle; font-size: 12px;" transform="translate(66.546875,12)" y="0" x="0" id="text-entity-Dataset-ea18c94d-808e-5959-ac2f-1bcc27afd155" class="er entityLabel">Dataset</text><rect height="22.091797828674316" width="54.953125" y="24" x="0" class="er attributeBoxOdd"/><text style="dominant-baseline: middle; font-size: 10.2px;" transform="translate(5,35.04589891433716)" y="0" x="0" id="text-entity-Dataset-ea18c94d-808e-5959-ac2f-1bcc27afd155-attr-1-type" class="er entityLabel">string</text><rect height="22.091797828674316" width="78.140625" y="24" x="54.953125" class="er attributeBoxOdd"/><text style="dominant-baseline: middle; font-size: 10.2px;" transform="translate(59.953125,35.04589891433716)" y="0" x="0" id="text-entity-Dataset-ea18c94d-808e-5959-ac2f-1bcc27afd155-attr-1-name" class="er entityLabel">title</text><rect height="22.091797828674316" width="54.953125" y="46.091797828674316" x="0" class="er attributeBoxEven"/><text style="dominant-baseline: middle; font-size: 10.2px;" transform="translate(5,57.137696743011475)" y="0" x="0" id="text-entity-Dataset-ea18c94d-808e-5959-ac2f-1bcc27afd155-attr-2-type" class="er entityLabel">string</text><rect height="22.091797828674316" width="78.140625" y="46.091797828674316" x="54.953125" class="er attributeBoxEven"/><text style="dominant-baseline: middle; font-size: 10.2px;" transform="translate(59.953125,57.137696743011475)" y="0" x="0" id="text-entity-Dataset-ea18c94d-808e-5959-ac2f-1bcc27afd155-attr-2-name" class="er entityLabel">description</text><rect height="22.091797828674316" width="54.953125" y="68.18359565734863" x="0" class="er attributeBoxOdd"/><text style="dominant-baseline: middle; font-size: 10.2px;" transform="translate(5,79.22949457168579)" y="0" x="0" id="text-entity-Dataset-ea18c94d-808e-5959-ac2f-1bcc27afd155-attr-3-type" class="er entityLabel">string</text><rect height="22.091797828674316" width="78.140625" y="68.18359565734863" x="54.953125" class="er attributeBoxOdd"/><text style="dominant-baseline: middle; font-size: 10.2px;" transform="translate(59.953125,79.22949457168579)" y="0" x="0" id="text-entity-Dataset-ea18c94d-808e-5959-ac2f-1bcc27afd155-attr-3-name" class="er entityLabel">creation_date</text><rect height="22.091797828674316" width="54.953125" y="90.27539348602295" x="0" class="er attributeBoxEven"/><text style="dominant-baseline: middle; font-size: 10.2px;" transform="translate(5,101.32129240036011)" y="0" x="0" id="text-entity-Dataset-ea18c94d-808e-5959-ac2f-1bcc27afd155-attr-4-type" class="er entityLabel">string</text><rect height="22.091797828674316" width="78.140625" y="90.27539348602295" x="54.953125" class="er attributeBoxEven"/><text style="dominant-baseline: middle; font-size: 10.2px;" transform="translate(59.953125,101.32129240036011)" y="0" x="0" id="text-entity-Dataset-ea18c94d-808e-5959-ac2f-1bcc27afd155-attr-4-name" class="er entityLabel">version</text><rect height="22.091797828674316" width="54.953125" y="112.36719131469727" x="0" class="er attributeBoxOdd"/><text style="dominant-baseline: middle; font-size: 10.2px;" transform="translate(5,123.41309022903442)" y="0" x="0" id="text-entity-Dataset-ea18c94d-808e-5959-ac2f-1bcc27afd155-attr-5-type" class="er entityLabel">string</text><rect height="22.091797828674316" width="78.140625" y="112.36719131469727" x="54.953125" class="er attributeBoxOdd"/><text style="dominant-baseline: middle; font-size: 10.2px;" transform="translate(59.953125,123.41309022903442)" y="0" x="0" id="text-entity-Dataset-ea18c94d-808e-5959-ac2f-1bcc27afd155-attr-5-name" class="er entityLabel">license</text><rect height="22" width="54.953125" y="134.45898914337158" x="0" class="er attributeBoxEven"/><text style="dominant-baseline: middle; font-size: 10.2px;" transform="translate(5,145.45898914337158)" y="0" x="0" id="text-entity-Dataset-ea18c94d-808e-5959-ac2f-1bcc27afd155-attr-6-type" class="er entityLabel">uriorcurie</text><rect height="22" width="78.140625" y="134.45898914337158" x="54.953125" class="er attributeBoxEven"/><text style="dominant-baseline: middle; font-size: 10.2px;" transform="translate(59.953125,145.45898914337158)" y="0" x="0" id="text-entity-Dataset-ea18c94d-808e-5959-ac2f-1bcc27afd155-attr-6-name" class="er entityLabel">see_also</text><rect height="22.091797828674316" width="54.953125" y="156.45898914337158" x="0" class="er attributeBoxOdd"/><text style="dominant-baseline: middle; font-size: 10.2px;" transform="translate(5,167.50488805770874)" y="0" x="0" id="text-entity-Dataset-ea18c94d-808e-5959-ac2f-1bcc27afd155-attr-7-type" class="er entityLabel">string</text><rect height="22.091797828674316" width="78.140625" y="156.45898914337158" x="54.953125" class="er attributeBoxOdd"/><text style="dominant-baseline: middle; font-size: 10.2px;" transform="translate(59.953125,167.50488805770874)" y="0" x="0" id="text-entity-Dataset-ea18c94d-808e-5959-ac2f-1bcc27afd155-attr-7-name" class="er entityLabel">publisher</text><rect height="22.091797828674316" width="54.953125" y="178.5507869720459" x="0" class="er attributeBoxEven"/><text style="dominant-baseline: middle; font-size: 10.2px;" transform="translate(5,189.59668588638306)" y="0" x="0" id="text-entity-Dataset-ea18c94d-808e-5959-ac2f-1bcc27afd155-attr-8-type" class="er entityLabel">string</text><rect height="22.091797828674316" width="78.140625" y="178.5507869720459" x="54.953125" class="er attributeBoxEven"/><text style="dominant-baseline: middle; font-size: 10.2px;" transform="translate(59.953125,189.59668588638306)" y="0" x="0" id="text-entity-Dataset-ea18c94d-808e-5959-ac2f-1bcc27afd155-attr-8-name" class="er entityLabel">citation</text><rect height="22.091797828674316" width="54.953125" y="200.64258480072021" x="0" class="er attributeBoxOdd"/><text style="dominant-baseline: middle; font-size: 10.2px;" transform="translate(5,211.68848371505737)" y="0" x="0" id="text-entity-Dataset-ea18c94d-808e-5959-ac2f-1bcc27afd155-attr-9-type" class="er entityLabel">string</text><rect height="22.091797828674316" width="78.140625" y="200.64258480072021" x="54.953125" class="er attributeBoxOdd"/><text style="dominant-baseline: middle; font-size: 10.2px;" transform="translate(59.953125,211.68848371505737)" y="0" x="0" id="text-entity-Dataset-ea18c94d-808e-5959-ac2f-1bcc27afd155-attr-9-name" class="er entityLabel">citationOverall</text><rect height="22" width="54.953125" y="222.73438262939453" x="0" class="er attributeBoxEven"/><text style="dominant-baseline: middle; font-size: 10.2px;" transform="translate(5,233.73438262939453)" y="0" x="0" id="text-entity-Dataset-ea18c94d-808e-5959-ac2f-1bcc27afd155-attr-10-type" class="er entityLabel">uriorcurie</text><rect height="22" width="78.140625" y="222.73438262939453" x="54.953125" class="er attributeBoxEven"/><text style="dominant-baseline: middle; font-size: 10.2px;" transform="translate(59.953125,233.73438262939453)" y="0" x="0" id="text-entity-Dataset-ea18c94d-808e-5959-ac2f-1bcc27afd155-attr-10-name" class="er entityLabel">doi</text><rect height="22.091797828674316" width="54.953125" y="244.73438262939453" x="0" class="er attributeBoxOdd"/><text style="dominant-baseline: middle; font-size: 10.2px;" transform="translate(5,255.7802815437317)" y="0" x="0" id="text-entity-Dataset-ea18c94d-808e-5959-ac2f-1bcc27afd155-attr-11-type" class="er entityLabel">string</text><rect height="22.091797828674316" width="78.140625" y="244.73438262939453" x="54.953125" class="er attributeBoxOdd"/><text style="dominant-baseline: middle; font-size: 10.2px;" transform="translate(59.953125,255.7802815437317)" y="0" x="0" id="text-entity-Dataset-ea18c94d-808e-5959-ac2f-1bcc27afd155-attr-11-name" class="er entityLabel">hubmapId</text><rect height="22" width="54.953125" y="266.82618045806885" x="0" class="er attributeBoxEven"/><text style="dominant-baseline: middle; font-size: 10.2px;" transform="translate(5,277.82618045806885)" y="0" x="0" id="text-entity-Dataset-ea18c94d-808e-5959-ac2f-1bcc27afd155-attr-12-type" class="er entityLabel">uriorcurie</text><rect height="22" width="78.140625" y="266.82618045806885" x="54.953125" class="er attributeBoxEven"/><text style="dominant-baseline: middle; font-size: 10.2px;" transform="translate(59.953125,277.82618045806885)" y="0" x="0" id="text-entity-Dataset-ea18c94d-808e-5959-ac2f-1bcc27afd155-attr-12-name" class="er entityLabel">id</text><rect height="22.091797828674316" width="54.953125" y="288.82618045806885" x="0" class="er attributeBoxOdd"/><text style="dominant-baseline: middle; font-size: 10.2px;" transform="translate(5,299.872079372406)" y="0" x="0" id="text-entity-Dataset-ea18c94d-808e-5959-ac2f-1bcc27afd155-attr-13-type" class="er entityLabel">string</text><rect height="22.091797828674316" width="78.140625" y="288.82618045806885" x="54.953125" class="er attributeBoxOdd"/><text style="dominant-baseline: middle; font-size: 10.2px;" transform="translate(59.953125,299.872079372406)" y="0" x="0" id="text-entity-Dataset-ea18c94d-808e-5959-ac2f-1bcc27afd155-attr-13-name" class="er entityLabel">label</text></g><g transform="translate(20,808.8818359375 )" id="entity-Distribution-f9898466-f9b2-5f40-b605-9060bbc75b7d"><rect height="156.27539348602295" width="122.390625" y="0" x="0" class="er entityBox"/><text style="dominant-baseline: middle; text-anchor: middle; font-size: 12px;" transform="translate(61.1953125,12)" y="0" x="0" id="text-entity-Distribution-f9898466-f9b2-5f40-b605-9060bbc75b7d" class="er entityLabel">Distribution</text><rect height="22.091797828674316" width="54.953125" y="24" x="0" class="er attributeBoxOdd"/><text style="dominant-baseline: middle; font-size: 10.2px;" transform="translate(5,35.04589891433716)" y="0" x="0" id="text-entity-Distribution-f9898466-f9b2-5f40-b605-9060bbc75b7d-attr-1-type" class="er entityLabel">string</text><rect height="22.091797828674316" width="67.4375" y="24" x="54.953125" class="er attributeBoxOdd"/><text style="dominant-baseline: middle; font-size: 10.2px;" transform="translate(59.953125,35.04589891433716)" y="0" x="0" id="text-entity-Distribution-f9898466-f9b2-5f40-b605-9060bbc75b7d-attr-1-name" class="er entityLabel">title</text><rect height="22" width="54.953125" y="46.091797828674316" x="0" class="er attributeBoxEven"/><text style="dominant-baseline: middle; font-size: 10.2px;" transform="translate(5,57.091797828674316)" y="0" x="0" id="text-entity-Distribution-f9898466-f9b2-5f40-b605-9060bbc75b7d-attr-2-type" class="er entityLabel">uri</text><rect height="22" width="67.4375" y="46.091797828674316" x="54.953125" class="er attributeBoxEven"/><text style="dominant-baseline: middle; font-size: 10.2px;" transform="translate(59.953125,57.091797828674316)" y="0" x="0" id="text-entity-Distribution-f9898466-f9b2-5f40-b605-9060bbc75b7d-attr-2-name" class="er entityLabel">downloadUrl</text><rect height="22" width="54.953125" y="68.09179782867432" x="0" class="er attributeBoxOdd"/><text style="dominant-baseline: middle; font-size: 10.2px;" transform="translate(5,79.09179782867432)" y="0" x="0" id="text-entity-Distribution-f9898466-f9b2-5f40-b605-9060bbc75b7d-attr-3-type" class="er entityLabel">uri</text><rect height="22" width="67.4375" y="68.09179782867432" x="54.953125" class="er attributeBoxOdd"/><text style="dominant-baseline: middle; font-size: 10.2px;" transform="translate(59.953125,79.09179782867432)" y="0" x="0" id="text-entity-Distribution-f9898466-f9b2-5f40-b605-9060bbc75b7d-attr-3-name" class="er entityLabel">accessUrl</text><rect height="22.091797828674316" width="54.953125" y="90.09179782867432" x="0" class="er attributeBoxEven"/><text style="dominant-baseline: middle; font-size: 10.2px;" transform="translate(5,101.13769674301147)" y="0" x="0" id="text-entity-Distribution-f9898466-f9b2-5f40-b605-9060bbc75b7d-attr-4-type" class="er entityLabel">string</text><rect height="22.091797828674316" width="67.4375" y="90.09179782867432" x="54.953125" class="er attributeBoxEven"/><text style="dominant-baseline: middle; font-size: 10.2px;" transform="translate(59.953125,101.13769674301147)" y="0" x="0" id="text-entity-Distribution-f9898466-f9b2-5f40-b605-9060bbc75b7d-attr-4-name" class="er entityLabel">mediaType</text><rect height="22" width="54.953125" y="112.18359565734863" x="0" class="er attributeBoxOdd"/><text style="dominant-baseline: middle; font-size: 10.2px;" transform="translate(5,123.18359565734863)" y="0" x="0" id="text-entity-Distribution-f9898466-f9b2-5f40-b605-9060bbc75b7d-attr-5-type" class="er entityLabel">uriorcurie</text><rect height="22" width="67.4375" y="112.18359565734863" x="54.953125" class="er attributeBoxOdd"/><text style="dominant-baseline: middle; font-size: 10.2px;" transform="translate(59.953125,123.18359565734863)" y="0" x="0" id="text-entity-Distribution-f9898466-f9b2-5f40-b605-9060bbc75b7d-attr-5-name" class="er entityLabel">id</text><rect height="22.091797828674316" width="54.953125" y="134.18359565734863" x="0" class="er attributeBoxEven"/><text style="dominant-baseline: middle; font-size: 10.2px;" transform="translate(5,145.2294945716858)" y="0" x="0" id="text-entity-Distribution-f9898466-f9b2-5f40-b605-9060bbc75b7d-attr-6-type" class="er entityLabel">string</text><rect height="22.091797828674316" width="67.4375" y="134.18359565734863" x="54.953125" class="er attributeBoxEven"/><text style="dominant-baseline: middle; font-size: 10.2px;" transform="translate(59.953125,145.2294945716858)" y="0" x="0" id="text-entity-Distribution-f9898466-f9b2-5f40-b605-9060bbc75b7d-attr-6-name" class="er entityLabel">label</text></g><g transform="translate(314.6328125,797.744140625 )" id="entity-Person-84ee9ab5-8d8f-5582-81c6-bfa2c33a578d"><rect height="178.5507869720459" width="121.734375" y="0" x="0" class="er entityBox"/><text style="dominant-baseline: middle; text-anchor: middle; font-size: 12px;" transform="translate(60.8671875,12)" y="0" x="0" id="text-entity-Person-84ee9ab5-8d8f-5582-81c6-bfa2c33a578d" class="er entityLabel">Person</text><rect height="22.091797828674316" width="54.953125" y="24" x="0" class="er attributeBoxOdd"/><text style="dominant-baseline: middle; font-size: 10.2px;" transform="translate(5,35.04589891433716)" y="0" x="0" id="text-entity-Person-84ee9ab5-8d8f-5582-81c6-bfa2c33a578d-attr-1-type" class="er entityLabel">string</text><rect height="22.091797828674316" width="66.78125" y="24" x="54.953125" class="er attributeBoxOdd"/><text style="dominant-baseline: middle; font-size: 10.2px;" transform="translate(59.953125,35.04589891433716)" y="0" x="0" id="text-entity-Person-84ee9ab5-8d8f-5582-81c6-bfa2c33a578d-attr-1-name" class="er entityLabel">fullName</text><rect height="22.091797828674316" width="54.953125" y="46.091797828674316" x="0" class="er attributeBoxEven"/><text style="dominant-baseline: middle; font-size: 10.2px;" transform="translate(5,57.137696743011475)" y="0" x="0" id="text-entity-Person-84ee9ab5-8d8f-5582-81c6-bfa2c33a578d-attr-2-type" class="er entityLabel">string</text><rect height="22.091797828674316" width="66.78125" y="46.091797828674316" x="54.953125" class="er attributeBoxEven"/><text style="dominant-baseline: middle; font-size: 10.2px;" transform="translate(59.953125,57.137696743011475)" y="0" x="0" id="text-entity-Person-84ee9ab5-8d8f-5582-81c6-bfa2c33a578d-attr-2-name" class="er entityLabel">firstName</text><rect height="22.091797828674316" width="54.953125" y="68.18359565734863" x="0" class="er attributeBoxOdd"/><text style="dominant-baseline: middle; font-size: 10.2px;" transform="translate(5,79.22949457168579)" y="0" x="0" id="text-entity-Person-84ee9ab5-8d8f-5582-81c6-bfa2c33a578d-attr-3-type" class="er entityLabel">string</text><rect height="22.091797828674316" width="66.78125" y="68.18359565734863" x="54.953125" class="er attributeBoxOdd"/><text style="dominant-baseline: middle; font-size: 10.2px;" transform="translate(59.953125,79.22949457168579)" y="0" x="0" id="text-entity-Person-84ee9ab5-8d8f-5582-81c6-bfa2c33a578d-attr-3-name" class="er entityLabel">lastName</text><rect height="22.091797828674316" width="54.953125" y="90.27539348602295" x="0" class="er attributeBoxEven"/><text style="dominant-baseline: middle; font-size: 10.2px;" transform="translate(5,101.32129240036011)" y="0" x="0" id="text-entity-Person-84ee9ab5-8d8f-5582-81c6-bfa2c33a578d-attr-4-type" class="er entityLabel">string</text><rect height="22.091797828674316" width="66.78125" y="90.27539348602295" x="54.953125" class="er attributeBoxEven"/><text style="dominant-baseline: middle; font-size: 10.2px;" transform="translate(59.953125,101.32129240036011)" y="0" x="0" id="text-entity-Person-84ee9ab5-8d8f-5582-81c6-bfa2c33a578d-attr-4-name" class="er entityLabel">orcid</text><rect height="22.091797828674316" width="54.953125" y="112.36719131469727" x="0" class="er attributeBoxOdd"/><text style="dominant-baseline: middle; font-size: 10.2px;" transform="translate(5,123.41309022903442)" y="0" x="0" id="text-entity-Person-84ee9ab5-8d8f-5582-81c6-bfa2c33a578d-attr-5-type" class="er entityLabel">string</text><rect height="22.091797828674316" width="66.78125" y="112.36719131469727" x="54.953125" class="er attributeBoxOdd"/><text style="dominant-baseline: middle; font-size: 10.2px;" transform="translate(59.953125,123.41309022903442)" y="0" x="0" id="text-entity-Person-84ee9ab5-8d8f-5582-81c6-bfa2c33a578d-attr-5-name" class="er entityLabel">conforms_to</text><rect height="22" width="54.953125" y="134.45898914337158" x="0" class="er attributeBoxEven"/><text style="dominant-baseline: middle; font-size: 10.2px;" transform="translate(5,145.45898914337158)" y="0" x="0" id="text-entity-Person-84ee9ab5-8d8f-5582-81c6-bfa2c33a578d-attr-6-type" class="er entityLabel">uriorcurie</text><rect height="22" width="66.78125" y="134.45898914337158" x="54.953125" class="er attributeBoxEven"/><text style="dominant-baseline: middle; font-size: 10.2px;" transform="translate(59.953125,145.45898914337158)" y="0" x="0" id="text-entity-Person-84ee9ab5-8d8f-5582-81c6-bfa2c33a578d-attr-6-name" class="er entityLabel">id</text><rect height="22.091797828674316" width="54.953125" y="156.45898914337158" x="0" class="er attributeBoxOdd"/><text style="dominant-baseline: middle; font-size: 10.2px;" transform="translate(5,167.50488805770874)" y="0" x="0" id="text-entity-Person-84ee9ab5-8d8f-5582-81c6-bfa2c33a578d-attr-7-type" class="er entityLabel">string</text><rect height="22.091797828674316" width="66.78125" y="156.45898914337158" x="54.953125" class="er attributeBoxOdd"/><text style="dominant-baseline: middle; font-size: 10.2px;" transform="translate(59.953125,167.50488805770874)" y="0" x="0" id="text-entity-Person-84ee9ab5-8d8f-5582-81c6-bfa2c33a578d-attr-7-name" class="er entityLabel">label</text></g><g transform="translate(325.5,1076.294921875 )" id="entity-Named-527792da-945b-57c2-aece-6a504f46f916"><rect height="68.09179782867432" width="100" y="0" x="0" class="er entityBox"/><text style="dominant-baseline: middle; text-anchor: middle; font-size: 12px;" transform="translate(50,12)" y="0" x="0" id="text-entity-Named-527792da-945b-57c2-aece-6a504f46f916" class="er entityLabel">Named</text><rect height="22" width="61.1640625" y="24" x="0" class="er attributeBoxOdd"/><text style="dominant-baseline: middle; font-size: 10.2px;" transform="translate(5,35)" y="0" x="0" id="text-entity-Named-527792da-945b-57c2-aece-6a504f46f916-attr-1-type" class="er entityLabel">uriorcurie</text><rect height="22" width="38.8359375" y="24" x="61.1640625" class="er attributeBoxOdd"/><text style="dominant-baseline: middle; font-size: 10.2px;" transform="translate(66.1640625,35)" y="0" x="0" id="text-entity-Named-527792da-945b-57c2-aece-6a504f46f916-attr-1-name" class="er entityLabel">id</text><rect height="22.091797828674316" width="61.1640625" y="46" x="0" class="er attributeBoxEven"/><text style="dominant-baseline: middle; font-size: 10.2px;" transform="translate(5,57.04589891433716)" y="0" x="0" id="text-entity-Named-527792da-945b-57c2-aece-6a504f46f916-attr-2-type" class="er entityLabel">string</text><rect height="22.091797828674316" width="38.8359375" y="46" x="61.1640625" class="er attributeBoxEven"/><text style="dominant-baseline: middle; font-size: 10.2px;" transform="translate(66.1640625,57.04589891433716)" y="0" x="0" id="text-entity-Named-527792da-945b-57c2-aece-6a504f46f916-attr-2-name" class="er entityLabel">label</text></g><g transform="translate(570.0703125,852.927734375 )" id="entity-Grant-291daf2c-8722-576f-890e-1045bc6484c0"><rect height="68.18359565734863" width="109.46875" y="0" x="0" class="er entityBox"/><text style="dominant-baseline: middle; text-anchor: middle; font-size: 12px;" transform="translate(54.734375,12)" y="0" x="0" id="text-entity-Grant-291daf2c-8722-576f-890e-1045bc6484c0" class="er entityLabel">Grant</text><rect height="22.091797828674316" width="35.75" y="24" x="0" class="er attributeBoxOdd"/><text style="dominant-baseline: middle; font-size: 10.2px;" transform="translate(5,35.04589891433716)" y="0" x="0" id="text-entity-Grant-291daf2c-8722-576f-890e-1045bc6484c0-attr-1-type" class="er entityLabel">string</text><rect height="22.091797828674316" width="73.71875" y="24" x="35.75" class="er attributeBoxOdd"/><text style="dominant-baseline: middle; font-size: 10.2px;" transform="translate(40.75,35.04589891433716)" y="0" x="0" id="text-entity-Grant-291daf2c-8722-576f-890e-1045bc6484c0-attr-1-name" class="er entityLabel">funder</text><rect height="22.091797828674316" width="35.75" y="46.091797828674316" x="0" class="er attributeBoxEven"/><text style="dominant-baseline: middle; font-size: 10.2px;" transform="translate(5,57.137696743011475)" y="0" x="0" id="text-entity-Grant-291daf2c-8722-576f-890e-1045bc6484c0-attr-2-type" class="er entityLabel">string</text><rect height="22.091797828674316" width="73.71875" y="46.091797828674316" x="35.75" class="er attributeBoxEven"/><text style="dominant-baseline: middle; font-size: 10.2px;" transform="translate(40.75,57.137696743011475)" y="0" x="0" id="text-entity-Grant-291daf2c-8722-576f-890e-1045bc6484c0-attr-2-name" class="er entityLabel">awardNumber</text></g><g transform="translate(826.30859375,841.927734375 )" id="entity-Creator-22c37820-830e-5050-9ef7-2120deecbdf9"><rect height="90.18359565734863" width="121.734375" y="0" x="0" class="er entityBox"/><text style="dominant-baseline: middle; text-anchor: middle; font-size: 12px;" transform="translate(60.8671875,12)" y="0" x="0" id="text-entity-Creator-22c37820-830e-5050-9ef7-2120deecbdf9" class="er entityLabel">Creator</text><rect height="22.091797828674316" width="54.953125" y="24" x="0" class="er attributeBoxOdd"/><text style="dominant-baseline: middle; font-size: 10.2px;" transform="translate(5,35.04589891433716)" y="0" x="0" id="text-entity-Creator-22c37820-830e-5050-9ef7-2120deecbdf9-attr-1-type" class="er entityLabel">string</text><rect height="22.091797828674316" width="66.78125" y="24" x="54.953125" class="er attributeBoxOdd"/><text style="dominant-baseline: middle; font-size: 10.2px;" transform="translate(59.953125,35.04589891433716)" y="0" x="0" id="text-entity-Creator-22c37820-830e-5050-9ef7-2120deecbdf9-attr-1-name" class="er entityLabel">conforms_to</text><rect height="22" width="54.953125" y="46.091797828674316" x="0" class="er attributeBoxEven"/><text style="dominant-baseline: middle; font-size: 10.2px;" transform="translate(5,57.091797828674316)" y="0" x="0" id="text-entity-Creator-22c37820-830e-5050-9ef7-2120deecbdf9-attr-2-type" class="er entityLabel">uriorcurie</text><rect height="22" width="66.78125" y="46.091797828674316" x="54.953125" class="er attributeBoxEven"/><text style="dominant-baseline: middle; font-size: 10.2px;" transform="translate(59.953125,57.091797828674316)" y="0" x="0" id="text-entity-Creator-22c37820-830e-5050-9ef7-2120deecbdf9-attr-2-name" class="er entityLabel">id</text><rect height="22.091797828674316" width="54.953125" y="68.09179782867432" x="0" class="er attributeBoxOdd"/><text style="dominant-baseline: middle; font-size: 10.2px;" transform="translate(5,79.13769674301147)" y="0" x="0" id="text-entity-Creator-22c37820-830e-5050-9ef7-2120deecbdf9-attr-3-type" class="er entityLabel">string</text><rect height="22.091797828674316" width="66.78125" y="68.09179782867432" x="54.953125" class="er attributeBoxOdd"/><text style="dominant-baseline: middle; font-size: 10.2px;" transform="translate(59.953125,79.13769674301147)" y="0" x="0" id="text-entity-Creator-22c37820-830e-5050-9ef7-2120deecbdf9-attr-3-name" class="er entityLabel">label</text></g><rect height="14" width="44.1875" y="433.61029052734375" x="778.590087890625" class="er relationshipLabelBox"/><text style="text-anchor: middle; dominant-baseline: middle; font-size: 12px;" y="440.61029052734375" x="800.683837890625" id="rel1" class="er relationshipLabel">creators</text><rect height="14" width="67.09375" y="417.6243896484375" x="48.8673095703125" class="er relationshipLabelBox"/><text style="text-anchor: middle; dominant-baseline: middle; font-size: 12px;" y="424.6243896484375" x="82.4141845703125" id="rel2" class="er relationshipLabel">distributions</text><rect height="14" width="98.609375" y="329.82598876953125" x="384.4253234863281" class="er relationshipLabelBox"/><text style="text-anchor: middle; dominant-baseline: middle; font-size: 12px;" y="336.82598876953125" x="433.7300109863281" id="rel3" class="er relationshipLabel">was_derived_from</text><rect height="14" width="44.1875" y="667.8642578125" x="709.1387329101562" class="er relationshipLabelBox"/><text style="text-anchor: middle; dominant-baseline: middle; font-size: 12px;" y="674.8642578125" x="731.2324829101562" id="rel4" class="er relationshipLabel">creators</text><rect height="14" width="52.0625" y="703.9269409179688" x="288.66595458984375" class="er relationshipLabelBox"/><text style="text-anchor: middle; dominant-baseline: middle; font-size: 12px;" y="710.9269409179688" x="314.69720458984375" id="rel5" class="er relationshipLabel">reviewers</text><rect height="14" width="40.3125" y="713.2918701171875" x="570.3534545898438" class="er relationshipLabelBox"/><text style="text-anchor: middle; dominant-baseline: middle; font-size: 12px;" y="720.2918701171875" x="590.5097045898438" id="rel6" class="er relationshipLabel">funders</text><rect height="14" width="73.671875" y="740.2914428710938" x="348.499755859375" class="er relationshipLabelBox"/><text style="text-anchor: middle; dominant-baseline: middle; font-size: 12px;" y="747.2914428710938" x="385.335693359375" id="rel7" class="er relationshipLabel">project_leads</text><rect height="14" width="98.8125" y="750.8074340820312" x="421.2274169921875" class="er relationshipLabelBox"/><text style="text-anchor: middle; dominant-baseline: middle; font-size: 12px;" y="757.8074340820312" x="470.6336669921875" id="rel8" class="er relationshipLabel">externalReviewers</text><rect height="14" width="67.09375" y="689.9712524414062" x="213.5806427001953" class="er relationshipLabelBox"/><text style="text-anchor: middle; dominant-baseline: middle; font-size: 12px;" y="696.9712524414062" x="247.1275177001953" id="rel9" class="er relationshipLabel">distributions</text><rect height="14" width="98.609375" y="535.2852172851562" x="641.6143188476562" class="er relationshipLabelBox"/><text style="text-anchor: middle; dominant-baseline: middle; font-size: 12px;" y="542.2852172851562" x="690.9190063476562" id="rel10" class="er relationshipLabel">was_derived_from</text><rect height="14" width="41.1328125" y="1019.2950439453125" x="354.93359375" class="er relationshipLabelBox"/><text style="text-anchor: middle; dominant-baseline: middle; font-size: 12px;" y="1026.2950439453125" x="375.5" id="rel11" class="er relationshipLabel">type_of</text></svg>