<svg aria-roledescription="er" role="graphics-document document" viewBox="0 0 680.140625 465" style="max-width: 680.141px; background-color: white;" xmlns:xlink="http://www.w3.org/1999/xlink" xmlns="http://www.w3.org/2000/svg" width="100%" id="my-svg"><style>#my-svg{font-family:"trebuchet ms",verdana,arial,sans-serif;font-size:16px;fill:#333;}#my-svg .error-icon{fill:#552222;}#my-svg .error-text{fill:#552222;stroke:#552222;}#my-svg .edge-thickness-normal{stroke-width:1px;}#my-svg .edge-thickness-thick{stroke-width:3.5px;}#my-svg .edge-pattern-solid{stroke-dasharray:0;}#my-svg .edge-thickness-invisible{stroke-width:0;fill:none;}#my-svg .edge-pattern-dashed{stroke-dasharray:3;}#my-svg .edge-pattern-dotted{stroke-dasharray:2;}#my-svg .marker{fill:#333333;stroke:#333333;}#my-svg .marker.cross{stroke:#333333;}#my-svg svg{font-family:"trebuchet ms",verdana,arial,sans-serif;font-size:16px;}#my-svg p{margin:0;}#my-svg .entityBox{fill:#ECECFF;stroke:#9370DB;}#my-svg .attributeBoxOdd{fill:#ffffff;stroke:#9370DB;}#my-svg .attributeBoxEven{fill:#f2f2f2;stroke:#9370DB;}#my-svg .relationshipLabelBox{fill:hsl(80, 100%, 96.2745098039%);opacity:0.7;background-color:hsl(80, 100%, 96.2745098039%);}#my-svg .relationshipLabelBox rect{opacity:0.5;}#my-svg .relationshipLine{stroke:#333333;}#my-svg .entityTitleText{text-anchor:middle;font-size:18px;fill:#333;}#my-svg #MD_PARENT_START{fill:#f5f5f5!important;stroke:#333333!important;stroke-width:1;}#my-svg #MD_PARENT_END{fill:#f5f5f5!important;stroke:#333333!important;stroke-width:1;}#my-svg :root{--mermaid-font-family:"trebuchet ms",verdana,arial,sans-serif;}</style><g/><defs><marker orient="auto" markerHeight="240" markerWidth="190" refY="7" refX="0" id="MD_PARENT_START"><path d="M 18,7 L9,13 L1,7 L9,1 Z"/></marker></defs><defs><marker orient="auto" markerHeight="28" markerWidth="20" refY="7" refX="19" id="MD_PARENT_END"><path d="M 18,7 L9,13 L1,7 L9,1 Z"/></marker></defs><defs><marker orient="auto" markerHeight="18" markerWidth="18" refY="9" refX="0" id="ONLY_ONE_START"><path d="M9,0 L9,18 M15,0 L15,18" fill="none" stroke="gray"/></marker></defs><defs><marker orient="auto" markerHeight="18" markerWidth="18" refY="9" refX="18" id="ONLY_ONE_END"><path d="M3,0 L3,18 M9,0 L9,18" fill="none" stroke="gray"/></marker></defs><defs><marker orient="auto" markerHeight="18" markerWidth="30" refY="9" refX="0" id="ZERO_OR_ONE_START"><circle r="6" cy="9" cx="21" fill="white" stroke="gray"/><path d="M9,0 L9,18" fill="none" stroke="gray"/></marker></defs><defs><marker orient="auto" markerHeight="18" markerWidth="30" refY="9" refX="30" id="ZERO_OR_ONE_END"><circle r="6" cy="9" cx="9" fill="white" stroke="gray"/><path d="M21,0 L21,18" fill="none" stroke="gray"/></marker></defs><defs><marker orient="auto" markerHeight="36" markerWidth="45" refY="18" refX="18" id="ONE_OR_MORE_START"><path d="M0,18 Q 18,0 36,18 Q 18,36 0,18 M42,9 L42,27" fill="none" stroke="gray"/></marker></defs><defs><marker orient="auto" markerHeight="36" markerWidth="45" refY="18" refX="27" id="ONE_OR_MORE_END"><path d="M3,9 L3,27 M9,18 Q27,0 45,18 Q27,36 9,18" fill="none" stroke="gray"/></marker></defs><defs><marker orient="auto" markerHeight="36" markerWidth="57" refY="18" refX="18" id="ZERO_OR_MORE_START"><circle r="6" cy="18" cx="48" fill="white" stroke="gray"/><path d="M0,18 Q18,0 36,18 Q18,36 0,18" fill="none" stroke="gray"/></marker></defs><defs><marker orient="auto" markerHeight="36" markerWidth="57" refY="18" refX="39" id="ZERO_OR_MORE_END"><circle r="6" cy="18" cx="9" fill="white" stroke="gray"/><path d="M21,18 Q39,0 57,18 Q39,36 21,18" fill="none" stroke="gray"/></marker></defs><path style="stroke: gray; fill: none;" marker-start="url(#ONLY_ONE_START)" marker-end="url(#ZERO_OR_MORE_END)" stroke-dasharray="8,8" d="M100.688,95L100.688,103.333C100.688,111.667,100.688,128.333,134.727,148.382C168.766,168.43,236.844,191.861,270.883,203.576L304.922,215.291" class="er relationshipLine"/><path style="stroke: gray; fill: none;" marker-start="url(#ZERO_OR_MORE_START)" marker-end="url(#ZERO_OR_ONE_END)" d="M354.922,95L354.922,103.333C354.922,111.667,354.922,128.333,354.922,145C354.922,161.667,354.922,178.333,354.922,186.667L354.922,195" class="er relationshipLine"/><path style="stroke: gray; fill: none;" marker-start="url(#ZERO_OR_ONE_START)" marker-end="url(#ZERO_OR_MORE_END)" stroke-dasharray="8,8" d="M594.305,95L594.305,103.333C594.305,111.667,594.305,128.333,562.741,148.204C531.177,168.075,468.049,191.149,436.486,202.687L404.922,214.224" class="er relationshipLine"/><path style="stroke: gray; fill: none;" marker-start="url(#ZERO_OR_MORE_START)" marker-end="url(#ONLY_ONE_END)" d="M304.922,253.592L278.684,264.66C252.447,275.728,199.971,297.864,173.734,317.265C147.496,336.667,147.496,353.333,147.496,361.667L147.496,370" class="er relationshipLine"/><path style="stroke: gray; fill: none;" marker-start="url(#ZERO_OR_MORE_START)" marker-end="url(#ONLY_ONE_END)" d="M351.739,270L351.032,278.333C350.325,286.667,348.911,303.333,348.203,320C347.496,336.667,347.496,353.333,347.496,361.667L347.496,370" class="er relationshipLine"/><path style="stroke: gray; fill: none;" marker-start="url(#ONLY_ONE_START)" marker-end="url(#ONE_OR_MORE_END)" d="M404.922,255.219L428.684,266.015C452.447,276.812,499.971,298.406,523.734,317.536C547.496,336.667,547.496,353.333,547.496,361.667L547.496,370" class="er relationshipLine"/><g transform="translate(20,20 )" id="entity-SCENARIOMANAGEMENT-c5f4374e-af03-5299-8969-d1d7c0734ed1"><rect height="75" width="161.375" y="0" x="0" class="er entityBox"/><text style="dominant-baseline: middle; text-anchor: middle; font-size: 12px;" transform="translate(80.6875,37.5)" y="0" x="0" id="text-entity-SCENARIOMANAGEMENT-c5f4374e-af03-5299-8969-d1d7c0734ed1" class="er entityLabel">SCENARIO-MANAGEMENT</text></g><g transform="translate(304.921875,195 )" id="entity-SCHEDULER-4878ebb1-831e-570f-ae80-426a16f06d54"><rect height="75" width="100" y="0" x="0" class="er entityBox"/><text style="dominant-baseline: middle; text-anchor: middle; font-size: 12px;" transform="translate(50,37.5)" y="0" x="0" id="text-entity-SCHEDULER-4878ebb1-831e-570f-ae80-426a16f06d54" class="er entityLabel">SCHEDULER</text></g><g transform="translate(281.375,20 )" id="entity-TIMEBASEDVARIABLE-74717c28-84ed-58be-9dad-c577531b3f58"><rect height="75" width="147.09375" y="0" x="0" class="er entityBox"/><text style="dominant-baseline: middle; text-anchor: middle; font-size: 12px;" transform="translate(73.546875,37.5)" y="0" x="0" id="text-entity-TIMEBASEDVARIABLE-74717c28-84ed-58be-9dad-c577531b3f58" class="er entityLabel">TIME-BASED-VARIABLE</text></g><g transform="translate(528.46875,20 )" id="entity-EXECUTIONGRAPH-91eb1a97-e8b6-50cc-bd4a-ce7429b11100"><rect height="75" width="131.671875" y="0" x="0" class="er entityBox"/><text style="dominant-baseline: middle; text-anchor: middle; font-size: 12px;" transform="translate(65.8359375,37.5)" y="0" x="0" id="text-entity-EXECUTIONGRAPH-91eb1a97-e8b6-50cc-bd4a-ce7429b11100" class="er entityLabel">EXECUTION-GRAPH</text></g><g transform="translate(97.49609375,370 )" id="entity-MODEL-ac5f2eec-271c-5885-aa63-b762a8e597da"><rect height="75" width="100" y="0" x="0" class="er entityBox"/><text style="dominant-baseline: middle; text-anchor: middle; font-size: 12px;" transform="translate(50,37.5)" y="0" x="0" id="text-entity-MODEL-ac5f2eec-271c-5885-aa63-b762a8e597da" class="er entityLabel">MODEL</text></g><g transform="translate(297.49609375,370 )" id="entity-SNAPSHOT-a95779a5-29f3-5497-96dd-faf8c917163c"><rect height="75" width="100" y="0" x="0" class="er entityBox"/><text style="dominant-baseline: middle; text-anchor: middle; font-size: 12px;" transform="translate(50,37.5)" y="0" x="0" id="text-entity-SNAPSHOT-a95779a5-29f3-5497-96dd-faf8c917163c" class="er entityLabel">SNAPSHOT</text></g><g transform="translate(497.49609375,370 )" id="entity-RESPONSE-8fa7fdf9-0d75-5955-8028-f6c38c016eed"><rect height="75" width="100" y="0" x="0" class="er entityBox"/><text style="dominant-baseline: middle; text-anchor: middle; font-size: 12px;" transform="translate(50,37.5)" y="0" x="0" id="text-entity-RESPONSE-8fa7fdf9-0d75-5955-8028-f6c38c016eed" class="er entityLabel">RESPONSE</text></g><rect height="14" width="40.96875" y="165.82913208007812" x="166.40867614746094" class="er relationshipLabelBox"/><text style="text-anchor: middle; dominant-baseline: middle; font-size: 12px;" y="172.82913208007812" x="186.89305114746094" id="rel1" class="er relationshipLabel">triggers</text><rect height="14" width="29.078125" y="138" x="340.3829345703125" class="er relationshipLabelBox"/><text style="text-anchor: middle; dominant-baseline: middle; font-size: 12px;" y="145" x="354.9219970703125" id="rel2" class="er relationshipLabel">feeds</text><rect height="14" width="40.625" y="164.80140686035156" x="495.3909912109375" class="er relationshipLabelBox"/><text style="text-anchor: middle; dominant-baseline: middle; font-size: 12px;" y="171.80140686035156" x="515.7034912109375" id="rel3" class="er relationshipLabel">outputs</text><rect height="14" width="44.046875" y="288.9058837890625" x="187.77381896972656" class="er relationshipLabelBox"/><text style="text-anchor: middle; dominant-baseline: middle; font-size: 12px;" y="295.9058837890625" x="209.79725646972656" id="rel4" class="er relationshipLabel">initiates</text><rect height="14" width="44.046875" y="312.9401550292969" x="326.18218994140625" class="er relationshipLabelBox"/><text style="text-anchor: middle; dominant-baseline: middle; font-size: 12px;" y="319.9401550292969" x="348.20562744140625" id="rel5" class="er relationshipLabel">initiates</text><rect height="14" width="38.609375" y="290.46319580078125" x="473.41265869140625" class="er relationshipLabelBox"/><text style="text-anchor: middle; dominant-baseline: middle; font-size: 12px;" y="297.46319580078125" x="492.71734619140625" id="rel6" class="er relationshipLabel">returns</text></svg>