<svg aria-roledescription="sequence" role="graphics-document document" viewBox="-50 -10 2049 3130" style="max-width: 2049px; background-color: white;" xmlns:xlink="http://www.w3.org/1999/xlink" xmlns="http://www.w3.org/2000/svg" width="100%" id="my-svg"><g><rect class="actor actor-bottom" ry="3" rx="3" name="IAM" height="65" width="150" stroke="#666" fill="#eaeaea" y="3044" x="1611"/><text style="text-anchor: middle; font-size: 16px; font-weight: 400;" class="actor actor-box" alignment-baseline="central" dominant-baseline="central" y="3076.5" x="1686"><tspan dy="0" x="1686">IAM</tspan></text></g><g><rect class="actor actor-bottom" ry="3" rx="3" name="AUTH" height="65" width="150" stroke="#666" fill="#eaeaea" y="3044" x="1275"/><text style="text-anchor: middle; font-size: 16px; font-weight: 400;" class="actor actor-box" alignment-baseline="central" dominant-baseline="central" y="3076.5" x="1350"><tspan dy="0" x="1350">P4PA_AUTH</tspan></text></g><g><rect class="actor actor-bottom" ry="3" rx="3" name="BFF" height="65" width="150" stroke="#666" fill="#eaeaea" y="3044" x="979"/><text style="text-anchor: middle; font-size: 16px; font-weight: 400;" class="actor actor-box" alignment-baseline="central" dominant-baseline="central" y="3076.5" x="1054"><tspan dy="0" x="1054">BFF_MyOperatore</tspan></text></g><g><rect class="actor actor-bottom" ry="3" rx="3" name="FE" height="65" width="150" stroke="#666" fill="#eaeaea" y="3044" x="683"/><text style="text-anchor: middle; font-size: 16px; font-weight: 400;" class="actor actor-box" alignment-baseline="central" dominant-baseline="central" y="3076.5" x="758"><tspan dy="0" x="758">FE_MyOperatore</tspan></text></g><g><rect class="actor actor-bottom" ry="3" rx="3" name="UserAgent" height="65" width="150" stroke="#666" fill="#eaeaea" y="3044" x="317"/><text style="text-anchor: middle; font-size: 16px; font-weight: 400;" class="actor actor-box" alignment-baseline="central" dominant-baseline="central" y="3076.5" x="392"><tspan dy="0" x="392">UserAgent</tspan></text></g><g/><g><line name="IAM" stroke="#999" stroke-width="0.5px" class="actor-line 200" y2="3044" x2="1686" y1="65" x1="1686" id="actor5"/><g id="root-5"><rect class="actor actor-top" ry="3" rx="3" name="IAM" height="65" width="150" stroke="#666" fill="#eaeaea" y="0" x="1611"/><text style="text-anchor: middle; font-size: 16px; font-weight: 400;" class="actor actor-box" alignment-baseline="central" dominant-baseline="central" y="32.5" x="1686"><tspan dy="0" x="1686">IAM</tspan></text></g></g><g><line name="AUTH" stroke="#999" stroke-width="0.5px" class="actor-line 200" y2="3044" x2="1350" y1="65" x1="1350" id="actor4"/><g id="root-4"><rect class="actor actor-top" ry="3" rx="3" name="AUTH" height="65" width="150" stroke="#666" fill="#eaeaea" y="0" x="1275"/><text style="text-anchor: middle; font-size: 16px; font-weight: 400;" class="actor actor-box" alignment-baseline="central" dominant-baseline="central" y="32.5" x="1350"><tspan dy="0" x="1350">P4PA_AUTH</tspan></text></g></g><g><line name="BFF" stroke="#999" stroke-width="0.5px" class="actor-line 200" y2="3044" x2="1054" y1="65" x1="1054" id="actor3"/><g id="root-3"><rect class="actor actor-top" ry="3" rx="3" name="BFF" height="65" width="150" stroke="#666" fill="#eaeaea" y="0" x="979"/><text style="text-anchor: middle; font-size: 16px; font-weight: 400;" class="actor actor-box" alignment-baseline="central" dominant-baseline="central" y="32.5" x="1054"><tspan dy="0" x="1054">BFF_MyOperatore</tspan></text></g></g><g><line name="FE" stroke="#999" stroke-width="0.5px" class="actor-line 200" y2="3044" x2="758" y1="65" x1="758" id="actor2"/><g id="root-2"><rect class="actor actor-top" ry="3" rx="3" name="FE" height="65" width="150" stroke="#666" fill="#eaeaea" y="0" x="683"/><text style="text-anchor: middle; font-size: 16px; font-weight: 400;" class="actor actor-box" alignment-baseline="central" dominant-baseline="central" y="32.5" x="758"><tspan dy="0" x="758">FE_MyOperatore</tspan></text></g></g><g><line name="UserAgent" stroke="#999" stroke-width="0.5px" class="actor-line 200" y2="3044" x2="392" y1="65" x1="392" id="actor1"/><g id="root-1"><rect class="actor actor-top" ry="3" rx="3" name="UserAgent" height="65" width="150" stroke="#666" fill="#eaeaea" y="0" x="317"/><text style="text-anchor: middle; font-size: 16px; font-weight: 400;" class="actor actor-box" alignment-baseline="central" dominant-baseline="central" y="32.5" x="392"><tspan dy="0" x="392">UserAgent</tspan></text></g></g><g><line name="Operatore" stroke="#999" stroke-width="0.5px" class="actor-line 200" y2="3044" x2="75" y1="80" x1="75" id="actor0"/></g><style>#my-svg{font-family:"trebuchet ms",verdana,arial,sans-serif;font-size:16px;fill:#333;}#my-svg .error-icon{fill:#552222;}#my-svg .error-text{fill:#552222;stroke:#552222;}#my-svg .edge-thickness-normal{stroke-width:1px;}#my-svg .edge-thickness-thick{stroke-width:3.5px;}#my-svg .edge-pattern-solid{stroke-dasharray:0;}#my-svg .edge-thickness-invisible{stroke-width:0;fill:none;}#my-svg .edge-pattern-dashed{stroke-dasharray:3;}#my-svg .edge-pattern-dotted{stroke-dasharray:2;}#my-svg .marker{fill:#333333;stroke:#333333;}#my-svg .marker.cross{stroke:#333333;}#my-svg svg{font-family:"trebuchet ms",verdana,arial,sans-serif;font-size:16px;}#my-svg p{margin:0;}#my-svg .actor{stroke:hsl(259.6261682243, 59.7765363128%, 87.9019607843%);fill:#ECECFF;}#my-svg text.actor&gt;tspan{fill:black;stroke:none;}#my-svg .actor-line{stroke:hsl(259.6261682243, 59.7765363128%, 87.9019607843%);}#my-svg .messageLine0{stroke-width:1.5;stroke-dasharray:none;stroke:#333;}#my-svg .messageLine1{stroke-width:1.5;stroke-dasharray:2,2;stroke:#333;}#my-svg #arrowhead path{fill:#333;stroke:#333;}#my-svg .sequenceNumber{fill:white;}#my-svg #sequencenumber{fill:#333;}#my-svg #crosshead path{fill:#333;stroke:#333;}#my-svg .messageText{fill:#333;stroke:none;}#my-svg .labelBox{stroke:hsl(259.6261682243, 59.7765363128%, 87.9019607843%);fill:#ECECFF;}#my-svg .labelText,#my-svg .labelText&gt;tspan{fill:black;stroke:none;}#my-svg .loopText,#my-svg .loopText&gt;tspan{fill:black;stroke:none;}#my-svg .loopLine{stroke-width:2px;stroke-dasharray:2,2;stroke:hsl(259.6261682243, 59.7765363128%, 87.9019607843%);fill:hsl(259.6261682243, 59.7765363128%, 87.9019607843%);}#my-svg .note{stroke:#aaaa33;fill:#fff5ad;}#my-svg .noteText,#my-svg .noteText&gt;tspan{fill:black;stroke:none;}#my-svg .activation0{fill:#f4f4f4;stroke:#666;}#my-svg .activation1{fill:#f4f4f4;stroke:#666;}#my-svg .activation2{fill:#f4f4f4;stroke:#666;}#my-svg .actorPopupMenu{position:absolute;}#my-svg .actorPopupMenuPanel{position:absolute;fill:#ECECFF;box-shadow:0px 8px 16px 0px rgba(0,0,0,0.2);filter:drop-shadow(3px 5px 2px rgb(0 0 0 / 0.4));}#my-svg .actor-man line{stroke:hsl(259.6261682243, 59.7765363128%, 87.9019607843%);fill:#ECECFF;}#my-svg .actor-man circle,#my-svg line{stroke:hsl(259.6261682243, 59.7765363128%, 87.9019607843%);fill:#ECECFF;stroke-width:2px;}#my-svg :root{--mermaid-font-family:"trebuchet ms",verdana,arial,sans-serif;}</style><g/><defs><symbol height="24" width="24" id="computer"><path d="M2 2v13h20v-13h-20zm18 11h-16v-9h16v9zm-10.228 6l.466-1h3.524l.467 1h-4.457zm14.228 3h-24l2-6h2.104l-1.33 4h18.45l-1.297-4h2.073l2 6zm-5-10h-14v-7h14v7z" transform="scale(.5)"/></symbol></defs><defs><symbol clip-rule="evenodd" fill-rule="evenodd" id="database"><path d="M12.258.001l.256.004.255.005.253.008.251.01.249.012.247.015.246.016.242.019.241.02.239.023.236.024.233.027.231.028.229.031.225.032.223.034.22.036.217.038.214.04.211.041.208.043.205.045.201.046.198.048.194.05.191.051.187.053.183.054.18.056.175.057.172.059.168.06.163.061.16.063.155.064.15.066.074.033.073.033.071.034.07.034.069.035.068.035.067.035.066.035.064.036.064.036.062.036.06.036.06.037.058.037.058.037.055.038.055.038.053.038.052.038.051.039.05.039.048.039.047.039.045.04.044.04.043.04.041.04.04.041.039.041.037.041.036.041.034.041.033.042.032.042.03.042.029.042.027.042.026.043.024.043.023.043.021.043.02.043.018.044.017.043.015.044.013.044.012.044.011.045.009.044.007.045.006.045.004.045.002.045.001.045v17l-.001.045-.002.045-.004.045-.006.045-.007.045-.009.044-.011.045-.012.044-.013.044-.015.044-.017.043-.018.044-.02.043-.021.043-.023.043-.024.043-.026.043-.027.042-.029.042-.03.042-.032.042-.033.042-.034.041-.036.041-.037.041-.039.041-.04.041-.041.04-.043.04-.044.04-.045.04-.047.039-.048.039-.05.039-.051.039-.052.038-.053.038-.055.038-.055.038-.058.037-.058.037-.06.037-.06.036-.062.036-.064.036-.064.036-.066.035-.067.035-.068.035-.069.035-.07.034-.071.034-.073.033-.074.033-.15.066-.155.064-.16.063-.163.061-.168.06-.172.059-.175.057-.18.056-.183.054-.187.053-.191.051-.194.05-.198.048-.201.046-.205.045-.208.043-.211.041-.214.04-.217.038-.22.036-.223.034-.225.032-.229.031-.231.028-.233.027-.236.024-.239.023-.241.02-.242.019-.246.016-.247.015-.249.012-.251.01-.253.008-.255.005-.256.004-.258.001-.258-.001-.256-.004-.255-.005-.253-.008-.251-.01-.249-.012-.247-.015-.245-.016-.243-.019-.241-.02-.238-.023-.236-.024-.234-.027-.231-.028-.228-.031-.226-.032-.223-.034-.22-.036-.217-.038-.214-.04-.211-.041-.208-.043-.204-.045-.201-.046-.198-.048-.195-.05-.19-.051-.187-.053-.184-.054-.179-.056-.176-.057-.172-.059-.167-.06-.164-.061-.159-.063-.155-.064-.151-.066-.074-.033-.072-.033-.072-.034-.07-.034-.069-.035-.068-.035-.067-.035-.066-.035-.064-.036-.063-.036-.062-.036-.061-.036-.06-.037-.058-.037-.057-.037-.056-.038-.055-.038-.053-.038-.052-.038-.051-.039-.049-.039-.049-.039-.046-.039-.046-.04-.044-.04-.043-.04-.041-.04-.04-.041-.039-.041-.037-.041-.036-.041-.034-.041-.033-.042-.032-.042-.03-.042-.029-.042-.027-.042-.026-.043-.024-.043-.023-.043-.021-.043-.02-.043-.018-.044-.017-.043-.015-.044-.013-.044-.012-.044-.011-.045-.009-.044-.007-.045-.006-.045-.004-.045-.002-.045-.001-.045v-17l.001-.045.002-.045.004-.045.006-.045.007-.045.009-.044.011-.045.012-.044.013-.044.015-.044.017-.043.018-.044.02-.043.021-.043.023-.043.024-.043.026-.043.027-.042.029-.042.03-.042.032-.042.033-.042.034-.041.036-.041.037-.041.039-.041.04-.041.041-.04.043-.04.044-.04.046-.04.046-.039.049-.039.049-.039.051-.039.052-.038.053-.038.055-.038.056-.038.057-.037.058-.037.06-.037.061-.036.062-.036.063-.036.064-.036.066-.035.067-.035.068-.035.069-.035.07-.034.072-.034.072-.033.074-.033.151-.066.155-.064.159-.063.164-.061.167-.06.172-.059.176-.057.179-.056.184-.054.187-.053.19-.051.195-.05.198-.048.201-.046.204-.045.208-.043.211-.041.214-.04.217-.038.22-.036.223-.034.226-.032.228-.031.231-.028.234-.027.236-.024.238-.023.241-.02.243-.019.245-.016.247-.015.249-.012.251-.01.253-.008.255-.005.256-.004.258-.001.258.001zm-9.258 20.499v.01l.001.021.003.021.004.022.005.021.006.022.007.022.009.023.01.022.011.023.012.023.013.023.015.023.016.024.017.023.018.024.019.024.021.024.022.025.023.024.024.025.052.049.056.05.061.051.066.051.07.051.075.051.079.052.084.052.088.052.092.052.097.052.102.051.105.052.11.052.114.051.119.051.123.051.127.05.131.05.135.05.139.048.144.049.147.047.152.047.155.047.16.045.163.045.167.043.171.043.176.041.178.041.183.039.187.039.19.037.194.035.197.035.202.033.204.031.209.03.212.029.216.027.219.025.222.024.226.021.23.02.233.018.236.016.24.015.243.012.246.01.249.008.253.005.256.004.259.001.26-.001.257-.004.254-.005.25-.008.247-.011.244-.012.241-.014.237-.016.233-.018.231-.021.226-.021.224-.024.22-.026.216-.027.212-.028.21-.031.205-.031.202-.034.198-.034.194-.036.191-.037.187-.039.183-.04.179-.04.175-.042.172-.043.168-.044.163-.045.16-.046.155-.046.152-.047.148-.048.143-.049.139-.049.136-.05.131-.05.126-.05.123-.051.118-.052.114-.051.11-.052.106-.052.101-.052.096-.052.092-.052.088-.053.083-.051.079-.052.074-.052.07-.051.065-.051.06-.051.056-.05.051-.05.023-.024.023-.025.021-.024.02-.024.019-.024.018-.024.017-.024.015-.023.014-.024.013-.023.012-.023.01-.023.01-.022.008-.022.006-.022.006-.022.004-.022.004-.021.001-.021.001-.021v-4.127l-.077.055-.08.053-.083.054-.085.053-.087.052-.09.052-.093.051-.095.05-.097.05-.1.049-.102.049-.105.048-.106.047-.109.047-.111.046-.114.045-.115.045-.118.044-.12.043-.122.042-.124.042-.126.041-.128.04-.13.04-.132.038-.134.038-.135.037-.138.037-.139.035-.142.035-.143.034-.144.033-.147.032-.148.031-.15.03-.151.03-.153.029-.154.027-.156.027-.158.026-.159.025-.161.024-.162.023-.163.022-.165.021-.166.02-.167.019-.169.018-.169.017-.171.016-.173.015-.173.014-.175.013-.175.012-.177.011-.178.01-.179.008-.179.008-.181.006-.182.005-.182.004-.184.003-.184.002h-.37l-.184-.002-.184-.003-.182-.004-.182-.005-.181-.006-.179-.008-.179-.008-.178-.01-.176-.011-.176-.012-.175-.013-.173-.014-.172-.015-.171-.016-.17-.017-.169-.018-.167-.019-.166-.02-.165-.021-.163-.022-.162-.023-.161-.024-.159-.025-.157-.026-.156-.027-.155-.027-.153-.029-.151-.03-.15-.03-.148-.031-.146-.032-.145-.033-.143-.034-.141-.035-.14-.035-.137-.037-.136-.037-.134-.038-.132-.038-.13-.04-.128-.04-.126-.041-.124-.042-.122-.042-.12-.044-.117-.043-.116-.045-.113-.045-.112-.046-.109-.047-.106-.047-.105-.048-.102-.049-.1-.049-.097-.05-.095-.05-.093-.052-.09-.051-.087-.052-.085-.053-.083-.054-.08-.054-.077-.054v4.127zm0-5.654v.011l.001.021.003.021.004.021.005.022.006.022.007.022.009.022.01.022.011.023.012.023.013.023.015.024.016.023.017.024.018.024.019.024.021.024.022.024.023.025.024.024.052.05.056.05.061.05.066.051.07.051.075.052.079.051.084.052.088.052.092.052.097.052.102.052.105.052.11.051.114.051.119.052.123.05.127.051.131.05.135.049.139.049.144.048.147.048.152.047.155.046.16.045.163.045.167.044.171.042.176.042.178.04.183.04.187.038.19.037.194.036.197.034.202.033.204.032.209.03.212.028.216.027.219.025.222.024.226.022.23.02.233.018.236.016.24.014.243.012.246.01.249.008.253.006.256.003.259.001.26-.001.257-.003.254-.006.25-.008.247-.01.244-.012.241-.015.237-.016.233-.018.231-.02.226-.022.224-.024.22-.025.216-.027.212-.029.21-.03.205-.032.202-.033.198-.035.194-.036.191-.037.187-.039.183-.039.179-.041.175-.042.172-.043.168-.044.163-.045.16-.045.155-.047.152-.047.148-.048.143-.048.139-.05.136-.049.131-.05.126-.051.123-.051.118-.051.114-.052.11-.052.106-.052.101-.052.096-.052.092-.052.088-.052.083-.052.079-.052.074-.051.07-.052.065-.051.06-.05.056-.051.051-.049.023-.025.023-.024.021-.025.02-.024.019-.024.018-.024.017-.024.015-.023.014-.023.013-.024.012-.022.01-.023.01-.023.008-.022.006-.022.006-.022.004-.021.004-.022.001-.021.001-.021v-4.139l-.077.054-.08.054-.083.054-.085.052-.087.053-.09.051-.093.051-.095.051-.097.05-.1.049-.102.049-.105.048-.106.047-.109.047-.111.046-.114.045-.115.044-.118.044-.12.044-.122.042-.124.042-.126.041-.128.04-.13.039-.132.039-.134.038-.135.037-.138.036-.139.036-.142.035-.143.033-.144.033-.147.033-.148.031-.15.03-.151.03-.153.028-.154.028-.156.027-.158.026-.159.025-.161.024-.162.023-.163.022-.165.021-.166.02-.167.019-.169.018-.169.017-.171.016-.173.015-.173.014-.175.013-.175.012-.177.011-.178.009-.179.009-.179.007-.181.007-.182.005-.182.004-.184.003-.184.002h-.37l-.184-.002-.184-.003-.182-.004-.182-.005-.181-.007-.179-.007-.179-.009-.178-.009-.176-.011-.176-.012-.175-.013-.173-.014-.172-.015-.171-.016-.17-.017-.169-.018-.167-.019-.166-.02-.165-.021-.163-.022-.162-.023-.161-.024-.159-.025-.157-.026-.156-.027-.155-.028-.153-.028-.151-.03-.15-.03-.148-.031-.146-.033-.145-.033-.143-.033-.141-.035-.14-.036-.137-.036-.136-.037-.134-.038-.132-.039-.13-.039-.128-.04-.126-.041-.124-.042-.122-.043-.12-.043-.117-.044-.116-.044-.113-.046-.112-.046-.109-.046-.106-.047-.105-.048-.102-.049-.1-.049-.097-.05-.095-.051-.093-.051-.09-.051-.087-.053-.085-.052-.083-.054-.08-.054-.077-.054v4.139zm0-5.666v.011l.001.02.003.022.004.021.005.022.006.021.007.022.009.023.01.022.011.023.012.023.013.023.015.023.016.024.017.024.018.023.019.024.021.025.022.024.023.024.024.025.052.05.056.05.061.05.066.051.07.051.075.052.079.051.084.052.088.052.092.052.097.052.102.052.105.051.11.052.114.051.119.051.123.051.127.05.131.05.135.05.139.049.144.048.147.048.152.047.155.046.16.045.163.045.167.043.171.043.176.042.178.04.183.04.187.038.19.037.194.036.197.034.202.033.204.032.209.03.212.028.216.027.219.025.222.024.226.021.23.02.233.018.236.017.24.014.243.012.246.01.249.008.253.006.256.003.259.001.26-.001.257-.003.254-.006.25-.008.247-.01.244-.013.241-.014.237-.016.233-.018.231-.02.226-.022.224-.024.22-.025.216-.027.212-.029.21-.03.205-.032.202-.033.198-.035.194-.036.191-.037.187-.039.183-.039.179-.041.175-.042.172-.043.168-.044.163-.045.16-.045.155-.047.152-.047.148-.048.143-.049.139-.049.136-.049.131-.051.126-.05.123-.051.118-.052.114-.051.11-.052.106-.052.101-.052.096-.052.092-.052.088-.052.083-.052.079-.052.074-.052.07-.051.065-.051.06-.051.056-.05.051-.049.023-.025.023-.025.021-.024.02-.024.019-.024.018-.024.017-.024.015-.023.014-.024.013-.023.012-.023.01-.022.01-.023.008-.022.006-.022.006-.022.004-.022.004-.021.001-.021.001-.021v-4.153l-.077.054-.08.054-.083.053-.085.053-.087.053-.09.051-.093.051-.095.051-.097.05-.1.049-.102.048-.105.048-.106.048-.109.046-.111.046-.114.046-.115.044-.118.044-.12.043-.122.043-.124.042-.126.041-.128.04-.13.039-.132.039-.134.038-.135.037-.138.036-.139.036-.142.034-.143.034-.144.033-.147.032-.148.032-.15.03-.151.03-.153.028-.154.028-.156.027-.158.026-.159.024-.161.024-.162.023-.163.023-.165.021-.166.02-.167.019-.169.018-.169.017-.171.016-.173.015-.173.014-.175.013-.175.012-.177.01-.178.01-.179.009-.179.007-.181.006-.182.006-.182.004-.184.003-.184.001-.185.001-.185-.001-.184-.001-.184-.003-.182-.004-.182-.006-.181-.006-.179-.007-.179-.009-.178-.01-.176-.01-.176-.012-.175-.013-.173-.014-.172-.015-.171-.016-.17-.017-.169-.018-.167-.019-.166-.02-.165-.021-.163-.023-.162-.023-.161-.024-.159-.024-.157-.026-.156-.027-.155-.028-.153-.028-.151-.03-.15-.03-.148-.032-.146-.032-.145-.033-.143-.034-.141-.034-.14-.036-.137-.036-.136-.037-.134-.038-.132-.039-.13-.039-.128-.041-.126-.041-.124-.041-.122-.043-.12-.043-.117-.044-.116-.044-.113-.046-.112-.046-.109-.046-.106-.048-.105-.048-.102-.048-.1-.05-.097-.049-.095-.051-.093-.051-.09-.052-.087-.052-.085-.053-.083-.053-.08-.054-.077-.054v4.153zm8.74-8.179l-.257.004-.254.005-.25.008-.247.011-.244.012-.241.014-.237.016-.233.018-.231.021-.226.022-.224.023-.22.026-.216.027-.212.028-.21.031-.205.032-.202.033-.198.034-.194.036-.191.038-.187.038-.183.04-.179.041-.175.042-.172.043-.168.043-.163.045-.16.046-.155.046-.152.048-.148.048-.143.048-.139.049-.136.05-.131.05-.126.051-.123.051-.118.051-.114.052-.11.052-.106.052-.101.052-.096.052-.092.052-.088.052-.083.052-.079.052-.074.051-.07.052-.065.051-.06.05-.056.05-.051.05-.023.025-.023.024-.021.024-.02.025-.019.024-.018.024-.017.023-.015.024-.014.023-.013.023-.012.023-.01.023-.01.022-.008.022-.006.023-.006.021-.004.022-.004.021-.001.021-.001.021.001.021.001.021.004.021.004.022.006.021.006.023.008.022.01.022.01.023.012.023.013.023.014.023.015.024.017.023.018.024.019.024.02.025.021.024.023.024.023.025.051.05.056.05.06.05.065.051.07.052.074.051.079.052.083.052.088.052.092.052.096.052.101.052.106.052.11.052.114.052.118.051.123.051.126.051.131.05.136.05.139.049.143.048.148.048.152.048.155.046.16.046.163.045.168.043.172.043.175.042.179.041.183.04.187.038.191.038.194.036.198.034.202.033.205.032.21.031.212.028.216.027.22.026.224.023.226.022.231.021.233.018.237.016.241.014.244.012.247.011.25.008.254.005.257.004.26.001.26-.001.257-.004.254-.005.25-.008.247-.011.244-.012.241-.014.237-.016.233-.018.231-.021.226-.022.224-.023.22-.026.216-.027.212-.028.21-.031.205-.032.202-.033.198-.034.194-.036.191-.038.187-.038.183-.04.179-.041.175-.042.172-.043.168-.043.163-.045.16-.046.155-.046.152-.048.148-.048.143-.048.139-.049.136-.05.131-.05.126-.051.123-.051.118-.051.114-.052.11-.052.106-.052.101-.052.096-.052.092-.052.088-.052.083-.052.079-.052.074-.051.07-.052.065-.051.06-.05.056-.05.051-.05.023-.025.023-.024.021-.024.02-.025.019-.024.018-.024.017-.023.015-.024.014-.023.013-.023.012-.023.01-.023.01-.022.008-.022.006-.023.006-.021.004-.022.004-.021.001-.021.001-.021-.001-.021-.001-.021-.004-.021-.004-.022-.006-.021-.006-.023-.008-.022-.01-.022-.01-.023-.012-.023-.013-.023-.014-.023-.015-.024-.017-.023-.018-.024-.019-.024-.02-.025-.021-.024-.023-.024-.023-.025-.051-.05-.056-.05-.06-.05-.065-.051-.07-.052-.074-.051-.079-.052-.083-.052-.088-.052-.092-.052-.096-.052-.101-.052-.106-.052-.11-.052-.114-.052-.118-.051-.123-.051-.126-.051-.131-.05-.136-.05-.139-.049-.143-.048-.148-.048-.152-.048-.155-.046-.16-.046-.163-.045-.168-.043-.172-.043-.175-.042-.179-.041-.183-.04-.187-.038-.191-.038-.194-.036-.198-.034-.202-.033-.205-.032-.21-.031-.212-.028-.216-.027-.22-.026-.224-.023-.226-.022-.231-.021-.233-.018-.237-.016-.241-.014-.244-.012-.247-.011-.25-.008-.254-.005-.257-.004-.26-.001-.26.001z" transform="scale(.5)"/></symbol></defs><defs><symbol height="24" width="24" id="clock"><path d="M12 2c5.514 0 10 4.486 10 10s-4.486 10-10 10-10-4.486-10-10 4.486-10 10-10zm0-2c-6.627 0-12 5.373-12 12s5.373 12 12 12 12-5.373 12-12-5.373-12-12-12zm5.848 12.459c.202.038.202.333.001.372-1.907.361-6.045 1.111-6.547 1.111-.719 0-1.301-.582-1.301-1.301 0-.512.77-5.447 1.125-7.445.034-.192.312-.181.343.014l.985 6.238 5.394 1.011z" transform="scale(.5)"/></symbol></defs><defs><marker orient="auto-start-reverse" markerHeight="12" markerWidth="12" markerUnits="userSpaceOnUse" refY="5" refX="7.9" id="arrowhead"><path d="M -1 0 L 10 5 L 0 10 z"/></marker></defs><defs><marker refY="4.5" refX="4" orient="auto" markerHeight="8" markerWidth="15" id="crosshead"><path style="stroke-dasharray: 0, 0;" d="M 1,2 L 6,7 M 6,2 L 1,7" stroke-width="1pt" stroke="#000000" fill="none"/></marker></defs><defs><marker orient="auto" markerHeight="28" markerWidth="20" refY="7" refX="15.5" id="filled-head"><path d="M 18,7 L9,13 L14,7 L9,1 Z"/></marker></defs><defs><marker orient="auto" markerHeight="40" markerWidth="60" refY="15" refX="15" id="sequencenumber"><circle r="6" cy="15" cx="15"/></marker></defs><g><rect class="activation0" height="2889" width="10" stroke="#666" fill="#EDF2AE" y="67" x="387"/></g><g><rect class="note" height="39" width="367" stroke="#666" fill="#EDF2AE" y="134" x="50"/><text style="font-size: 16px; font-weight: 400;" dy="1em" class="noteText" alignment-baseline="middle" dominant-baseline="middle" text-anchor="middle" y="139" x="234"><tspan x="234">Assenza di una sessione valida</tspan></text></g><g><rect class="activation0" height="42" width="10" stroke="#666" fill="#EDF2AE" y="229" x="753"/></g><g><line class="loopLine" y2="75" x2="773" y1="75" x1="40"/><line class="loopLine" y2="350" x2="773" y1="75" x1="773"/><line class="loopLine" y2="350" x2="773" y1="350" x1="40"/><line class="loopLine" y2="350" x2="40" y1="75" x1="40"/><line style="stroke-dasharray: 3, 3;" class="loopLine" y2="286" x2="773" y1="286" x1="40"/><polygon class="labelBox" points="40,75 90,75 90,88 81.6,95 40,95"/><text style="font-size: 16px; font-weight: 400;" class="labelText" alignment-baseline="middle" dominant-baseline="middle" text-anchor="middle" y="88" x="65">alt</text><text style="font-size: 16px; font-weight: 400;" class="loopText" text-anchor="middle" y="93" x="431.5"><tspan x="431.5">[Operatore entra direttamente sul portale</tspan></text><text style="font-size: 16px; font-weight: 400;" class="loopText" text-anchor="middle" y="112" x="431.5"><tspan x="431.5">Piattaforma Unitaria]</tspan></text></g><g><rect class="activation0" height="110" width="10" stroke="#666" fill="#EDF2AE" y="396" x="1681"/></g><g><rect class="note" height="58" width="238" stroke="#666" fill="#EDF2AE" y="404" x="1711"/><text style="font-size: 16px; font-weight: 400;" dy="1em" class="noteText" alignment-baseline="middle" dominant-baseline="middle" text-anchor="middle" y="409" x="1830"><tspan x="1830">L'utente si autentica e accede</tspan></text><text style="font-size: 16px; font-weight: 400;" dy="1em" class="noteText" alignment-baseline="middle" dominant-baseline="middle" text-anchor="middle" y="428" x="1830"><tspan x="1830">al prodotto "Piattaforma Unitaria"</tspan></text></g><g><rect class="note" height="58" width="1344" stroke="#666" fill="#EDF2AE" y="516" x="367"/><text style="font-size: 16px; font-weight: 400;" dy="1em" class="noteText" alignment-baseline="middle" dominant-baseline="middle" text-anchor="middle" y="521" x="1039"><tspan x="1039">RFC 8693 dello standard OAuth 2.0, token passato mediante query param.</tspan></text><text style="font-size: 16px; font-weight: 400;" dy="1em" class="noteText" alignment-baseline="middle" dominant-baseline="middle" text-anchor="middle" y="540" x="1039"><tspan x="1039">L'ID Token dovrà avere durata effimera (1 minuto)</tspan></text></g><g><rect class="activation0" height="2326" width="10" stroke="#666" fill="#EDF2AE" y="620" x="753"/></g><g><rect class="activation0" height="1833" width="10" stroke="#666" fill="#EDF2AE" y="664" x="1049"/></g><g/><g><rect class="note" height="39" width="150" stroke="#666" fill="#EDF2AE" y="760" x="1375"/><text style="font-size: 16px; font-weight: 400;" dy="1em" class="noteText" alignment-baseline="middle" dominant-baseline="middle" text-anchor="middle" y="765" x="1450"><tspan x="1450">Valida ID Token</tspan></text></g><g><rect class="activation1" height="1578" width="10" stroke="#666" fill="#EDF2AE" y="875" x="1350"/></g><g><rect class="note" height="39" width="250" stroke="#666" fill="#EDF2AE" y="928" x="1375"/><text style="font-size: 16px; font-weight: 400;" dy="1em" class="noteText" alignment-baseline="middle" dominant-baseline="middle" text-anchor="middle" y="933" x="1500"><tspan x="1500">Genera access Token con scope 'tos'</tspan></text></g><g><rect class="note" height="77" width="175" stroke="#666" fill="#EDF2AE" y="977" x="1375"/><text style="font-size: 16px; font-weight: 400;" dy="1em" class="noteText" alignment-baseline="middle" dominant-baseline="middle" text-anchor="middle" y="982" x="1463"><tspan x="1463">Salva in cache la coppia</tspan></text><text style="font-size: 16px; font-weight: 400;" dy="1em" class="noteText" alignment-baseline="middle" dominant-baseline="middle" text-anchor="middle" y="1001" x="1463"><tspan x="1463">AccessToken: ID Token</tspan></text><text style="font-size: 16px; font-weight: 400;" dy="1em" class="noteText" alignment-baseline="middle" dominant-baseline="middle" text-anchor="middle" y="1020" x="1463"><tspan x="1463">Retention pari al exp</tspan></text></g><g><rect class="note" height="39" width="346" stroke="#666" fill="#EDF2AE" y="1304" x="733"/><text style="font-size: 16px; font-weight: 400;" dy="1em" class="noteText" alignment-baseline="middle" dominant-baseline="middle" text-anchor="middle" y="1309" x="906"><tspan x="906">Authorization: Bearer &lt;accessToken&gt;</tspan></text></g><g><rect class="note" height="39" width="346" stroke="#666" fill="#EDF2AE" y="1397" x="1029"/><text style="font-size: 16px; font-weight: 400;" dy="1em" class="noteText" alignment-baseline="middle" dominant-baseline="middle" text-anchor="middle" y="1402" x="1202"><tspan x="1202">Authorization: Bearer &lt;accessToken&gt;</tspan></text></g><g><rect class="activation2" height="603" width="10" stroke="#666" fill="#EDF2AE" y="1438" x="1355"/></g><g><rect class="note" height="39" width="228" stroke="#666" fill="#EDF2AE" y="1446" x="1375"/><text style="font-size: 16px; font-weight: 400;" dy="1em" class="noteText" alignment-baseline="middle" dominant-baseline="middle" text-anchor="middle" y="1451" x="1489"><tspan x="1489">Recupera l'ID Token dalla cache</tspan></text></g><g><line class="loopLine" y2="1688" x2="1539" y1="1688" x1="1191"/><line class="loopLine" y2="1851" x2="1539" y1="1688" x1="1539"/><line class="loopLine" y2="1851" x2="1539" y1="1851" x1="1191"/><line class="loopLine" y2="1851" x2="1191" y1="1688" x1="1191"/><polygon class="labelBox" points="1191,1688 1241,1688 1241,1701 1232.6,1708 1191,1708"/><text style="font-size: 16px; font-weight: 400;" class="labelText" alignment-baseline="middle" dominant-baseline="middle" text-anchor="middle" y="1701" x="1216">alt</text><text style="font-size: 16px; font-weight: 400;" class="loopText" text-anchor="middle" y="1706" x="1390"><tspan x="1390">[Il token contiene l'ente di accesso ed il</tspan></text><text style="font-size: 16px; font-weight: 400;" class="loopText" text-anchor="middle" y="1725" x="1390"><tspan x="1390">ruolo]</tspan></text></g><g><line class="loopLine" y2="1569" x2="1549" y1="1569" x1="1181"/><line class="loopLine" y2="1861" x2="1549" y1="1569" x1="1549"/><line class="loopLine" y2="1861" x2="1549" y1="1861" x1="1181"/><line class="loopLine" y2="1861" x2="1181" y1="1569" x1="1181"/><polygon class="labelBox" points="1181,1569 1231,1569 1231,1582 1222.6,1589 1181,1589"/><text style="font-size: 16px; font-weight: 400;" class="labelText" alignment-baseline="middle" dominant-baseline="middle" text-anchor="middle" y="1582" x="1206">alt</text><text style="font-size: 16px; font-weight: 400;" class="loopText" text-anchor="middle" y="1587" x="1390"><tspan x="1390">[Utente non registrato]</tspan></text></g><g><rect class="note" height="39" width="251" stroke="#666" fill="#EDF2AE" y="1871" x="1375"/><text style="font-size: 16px; font-weight: 400;" dy="1em" class="noteText" alignment-baseline="middle" dominant-baseline="middle" text-anchor="middle" y="1876" x="1501"><tspan x="1501">Genera access Token con scope 'api'</tspan></text></g><g><rect class="note" height="77" width="175" stroke="#666" fill="#EDF2AE" y="1920" x="1375"/><text style="font-size: 16px; font-weight: 400;" dy="1em" class="noteText" alignment-baseline="middle" dominant-baseline="middle" text-anchor="middle" y="1925" x="1463"><tspan x="1463">Salva in cache la coppia</tspan></text><text style="font-size: 16px; font-weight: 400;" dy="1em" class="noteText" alignment-baseline="middle" dominant-baseline="middle" text-anchor="middle" y="1944" x="1463"><tspan x="1463">AccessToken: ID Token</tspan></text><text style="font-size: 16px; font-weight: 400;" dy="1em" class="noteText" alignment-baseline="middle" dominant-baseline="middle" text-anchor="middle" y="1963" x="1463"><tspan x="1463">Retention pari al exp</tspan></text></g><g><rect class="note" height="58" width="286" stroke="#666" fill="#EDF2AE" y="2195" x="1375"/><text style="font-size: 16px; font-weight: 400;" dy="1em" class="noteText" alignment-baseline="middle" dominant-baseline="middle" text-anchor="middle" y="2200" x="1518"><tspan x="1518">Se il token non contiene l'ente di accesso,</tspan></text><text style="font-size: 16px; font-weight: 400;" dy="1em" class="noteText" alignment-baseline="middle" dominant-baseline="middle" text-anchor="middle" y="2219" x="1518"><tspan x="1518">si otterrà l'errore di token non valido</tspan></text></g><g><line class="loopLine" y2="2076" x2="1671" y1="2076" x1="1186"/><line class="loopLine" y2="2263" x2="1671" y1="2076" x1="1671"/><line class="loopLine" y2="2263" x2="1671" y1="2263" x1="1186"/><line class="loopLine" y2="2263" x2="1186" y1="2076" x1="1186"/><polygon class="labelBox" points="1186,2076 1236,2076 1236,2089 1227.6,2096 1186,2096"/><text style="font-size: 16px; font-weight: 400;" class="labelText" alignment-baseline="middle" dominant-baseline="middle" text-anchor="middle" y="2089" x="1211">alt</text><text style="font-size: 16px; font-weight: 400;" class="loopText" text-anchor="middle" y="2094" x="1453.5"><tspan x="1453.5">[Configurata modalità "ente di accesso"]</tspan></text></g><g><rect class="note" height="39" width="251" stroke="#666" fill="#EDF2AE" y="2273" x="1375"/><text style="font-size: 16px; font-weight: 400;" dy="1em" class="noteText" alignment-baseline="middle" dominant-baseline="middle" text-anchor="middle" y="2278" x="1501"><tspan x="1501">Genera access Token con scope 'api'</tspan></text></g><g><rect class="note" height="77" width="175" stroke="#666" fill="#EDF2AE" y="2322" x="1375"/><text style="font-size: 16px; font-weight: 400;" dy="1em" class="noteText" alignment-baseline="middle" dominant-baseline="middle" text-anchor="middle" y="2327" x="1463"><tspan x="1463">Salva in cache la coppia</tspan></text><text style="font-size: 16px; font-weight: 400;" dy="1em" class="noteText" alignment-baseline="middle" dominant-baseline="middle" text-anchor="middle" y="2346" x="1463"><tspan x="1463">AccessToken: ID Token</tspan></text><text style="font-size: 16px; font-weight: 400;" dy="1em" class="noteText" alignment-baseline="middle" dominant-baseline="middle" text-anchor="middle" y="2365" x="1463"><tspan x="1463">Retention pari al exp</tspan></text></g><g><line class="loopLine" y2="883" x2="1681" y1="883" x1="64"/><line class="loopLine" y2="2453" x2="1681" y1="883" x1="1681"/><line class="loopLine" y2="2453" x2="1681" y1="2453" x1="64"/><line class="loopLine" y2="2453" x2="64" y1="883" x1="64"/><line style="stroke-dasharray: 3, 3;" class="loopLine" y2="2056" x2="1681" y1="2056" x1="64"/><polygon class="labelBox" points="64,883 114,883 114,896 105.6,903 64,903"/><text style="font-size: 16px; font-weight: 400;" class="labelText" alignment-baseline="middle" dominant-baseline="middle" text-anchor="middle" y="896" x="89">alt</text><text style="font-size: 16px; font-weight: 400;" class="loopText" text-anchor="middle" y="901" x="897.5"><tspan x="897.5">[Utente non registrato]</tspan></text></g><g><rect class="activation0" height="295" width="10" stroke="#666" fill="#EDF2AE" y="2543" x="1049"/></g><g><rect class="activation1" height="207" width="10" stroke="#666" fill="#EDF2AE" y="2587" x="1350"/></g><g><rect class="note" height="39" width="204" stroke="#666" fill="#EDF2AE" y="2848" x="783"/><text style="font-size: 16px; font-weight: 400;" dy="1em" class="noteText" alignment-baseline="middle" dominant-baseline="middle" text-anchor="middle" y="2853" x="885"><tspan x="885">Salva dati utente in memoria</tspan></text></g><g><rect class="note" height="39" width="316" stroke="#666" fill="#EDF2AE" y="2897" x="417"/><text style="font-size: 16px; font-weight: 400;" dy="1em" class="noteText" alignment-baseline="middle" dominant-baseline="middle" text-anchor="middle" y="2902" x="575"><tspan x="575">token di sessione persistito nel session storage</tspan></text></g><g><rect class="note" height="58" width="201" stroke="#666" fill="#EDF2AE" y="2966" x="100"/><text style="font-size: 16px; font-weight: 400;" dy="1em" class="noteText" alignment-baseline="middle" dominant-baseline="middle" text-anchor="middle" y="2971" x="201"><tspan x="201">Operatore libero di navigare</tspan></text><text style="font-size: 16px; font-weight: 400;" dy="1em" class="noteText" alignment-baseline="middle" dominant-baseline="middle" text-anchor="middle" y="2990" x="201"><tspan x="201">all'interno del portale</tspan></text></g><g name="Operatore" class="actor-man actor-top"><line y2="45" x2="75" y1="25" x1="75" id="actor-man-torso0"/><line y2="33" x2="93" y1="33" x1="57" id="actor-man-arms0"/><line y2="45" x2="75" y1="60" x1="57"/><line y2="60" x2="91" y1="45" x1="75"/><circle height="65" width="150" r="15" cy="10" cx="75"/><text style="text-anchor: middle; font-size: 16px; font-weight: 400;" class="actor actor-man" alignment-baseline="central" dominant-baseline="central" y="67.5" x="75"><tspan dy="0" x="75">Operatore</tspan></text></g><text style="font-size: 16px; font-weight: 400;" dy="1em" class="messageText" alignment-baseline="middle" dominant-baseline="middle" text-anchor="middle" y="188" x="230">Accede al portale Piattaforma Unitaria</text><line style="fill: none;" marker-end="url(#arrowhead)" stroke="none" stroke-width="2" class="messageLine0" y2="217" x2="384" y1="217" x1="76"/><text style="font-size: 16px; font-weight: 400;" dy="1em" class="messageText" alignment-baseline="middle" dominant-baseline="middle" text-anchor="middle" y="232" x="576">​</text><line style="fill: none;" marker-end="url(#arrowhead)" stroke="none" stroke-width="2" class="messageLine0" y2="227" x2="754" y1="227" x1="397"/><text style="font-size: 16px; font-weight: 400;" dy="1em" class="messageText" alignment-baseline="middle" dominant-baseline="middle" text-anchor="middle" y="242" x="577">Redirect verso pagina di login</text><line style="stroke-dasharray: 3, 3; fill: none;" marker-end="url(#arrowhead)" stroke="none" stroke-width="2" class="messageLine1" y2="271" x2="400" y1="271" x1="753"/><text style="font-size: 16px; font-weight: 400;" dy="1em" class="messageText" alignment-baseline="middle" dominant-baseline="middle" text-anchor="middle" y="311" x="230">Accede all'Area Riservata</text><line style="fill: none;" marker-end="url(#arrowhead)" stroke="none" stroke-width="2" class="messageLine0" y2="340" x2="384" y1="340" x1="76"/><text style="font-size: 16px; font-weight: 400;" dy="1em" class="messageText" alignment-baseline="middle" dominant-baseline="middle" text-anchor="middle" y="365" x="1040">Pagina di login</text><line style="fill: none;" marker-end="url(#arrowhead)" stroke="none" stroke-width="2" class="messageLine0" y2="394" x2="1682" y1="394" x1="397"/><text style="font-size: 16px; font-weight: 400;" dy="1em" class="messageText" alignment-baseline="middle" dominant-baseline="middle" text-anchor="middle" y="477" x="1041">Redirect verso pagina di accettazione ID Token</text><line style="stroke-dasharray: 3, 3; fill: none;" marker-end="url(#arrowhead)" stroke="none" stroke-width="2" class="messageLine1" y2="506" x2="400" y1="506" x1="1681"/><text style="font-size: 16px; font-weight: 400;" dy="1em" class="messageText" alignment-baseline="middle" dominant-baseline="middle" text-anchor="middle" y="589" x="576">Prosegue con la redirect</text><line style="fill: none;" marker-end="url(#arrowhead)" stroke="none" stroke-width="2" class="messageLine0" y2="618" x2="754" y1="618" x1="397"/><text style="font-size: 16px; font-weight: 400;" dy="1em" class="messageText" alignment-baseline="middle" dominant-baseline="middle" text-anchor="middle" y="633" x="907">Consegna ID Token</text><line style="fill: none;" marker-end="url(#arrowhead)" stroke="none" stroke-width="2" class="messageLine0" y2="662" x2="1050" y1="662" x1="763"/><text style="font-size: 16px; font-weight: 400;" dy="1em" class="messageText" alignment-baseline="middle" dominant-baseline="middle" text-anchor="middle" y="677" x="1203">POST /token</text><line style="fill: none;" marker-end="url(#arrowhead)" stroke="none" stroke-width="2" class="messageLine0" y2="706" x2="1346" y1="706" x1="1059"/><text style="font-size: 16px; font-weight: 400;" dy="1em" class="messageText" alignment-baseline="middle" dominant-baseline="middle" text-anchor="middle" y="721" x="1519">Recupera .well-known/jwks.json</text><line style="fill: none;" marker-end="url(#arrowhead)" stroke="none" stroke-width="2" class="messageLine0" y2="750" x2="1682" y1="750" x1="1355"/><text style="font-size: 16px; font-weight: 400;" dy="1em" class="messageText" alignment-baseline="middle" dominant-baseline="middle" text-anchor="middle" y="814" x="1355">Ricerca in tabella Users</text><path style="fill: none;" marker-end="url(#arrowhead)" stroke="none" stroke-width="2" class="messageLine0" d="M 1355,843 C 1415,833 1415,873 1355,863"/><text style="font-size: 16px; font-weight: 400;" dy="1em" class="messageText" alignment-baseline="middle" dominant-baseline="middle" text-anchor="middle" y="1069" x="1204">access token JWT e HttpStatus 412</text><line style="stroke-dasharray: 3, 3; fill: none;" marker-end="url(#arrowhead)" stroke="none" stroke-width="2" class="messageLine1" y2="1098" x2="1062" y1="1098" x1="1345"/><text style="font-size: 16px; font-weight: 400;" dy="1em" class="messageText" alignment-baseline="middle" dominant-baseline="middle" text-anchor="middle" y="1113" x="908">access token JWT e HttpStatus 412</text><line style="stroke-dasharray: 3, 3; fill: none;" marker-end="url(#arrowhead)" stroke="none" stroke-width="2" class="messageLine1" y2="1142" x2="766" y1="1142" x1="1049"/><text style="font-size: 16px; font-weight: 400;" dy="1em" class="messageText" alignment-baseline="middle" dominant-baseline="middle" text-anchor="middle" y="1157" x="577">Pagina di accettazione ToS</text><line style="stroke-dasharray: 3, 3; fill: none;" marker-end="url(#arrowhead)" stroke="none" stroke-width="2" class="messageLine1" y2="1186" x2="400" y1="1186" x1="753"/><text style="font-size: 16px; font-weight: 400;" dy="1em" class="messageText" alignment-baseline="middle" dominant-baseline="middle" text-anchor="middle" y="1201" x="233">​</text><line style="stroke-dasharray: 3, 3; fill: none;" marker-end="url(#arrowhead)" stroke="none" stroke-width="2" class="messageLine1" y2="1196" x2="79" y1="1196" x1="387"/><text style="font-size: 16px; font-weight: 400;" dy="1em" class="messageText" alignment-baseline="middle" dominant-baseline="middle" text-anchor="middle" y="1211" x="230">Accetta ToS</text><line style="fill: none;" marker-end="url(#arrowhead)" stroke="none" stroke-width="2" class="messageLine0" y2="1240" x2="384" y1="1240" x1="76"/><text style="font-size: 16px; font-weight: 400;" dy="1em" class="messageText" alignment-baseline="middle" dominant-baseline="middle" text-anchor="middle" y="1255" x="574">​</text><line style="fill: none;" marker-end="url(#arrowhead)" stroke="none" stroke-width="2" class="messageLine0" y2="1250" x2="750" y1="1250" x1="397"/><text style="font-size: 16px; font-weight: 400;" dy="1em" class="messageText" alignment-baseline="middle" dominant-baseline="middle" text-anchor="middle" y="1265" x="905">Accettazione ToS</text><line style="fill: none;" marker-end="url(#arrowhead)" stroke="none" stroke-width="2" class="messageLine0" y2="1294" x2="1046" y1="1294" x1="763"/><text style="font-size: 16px; font-weight: 400;" dy="1em" class="messageText" alignment-baseline="middle" dominant-baseline="middle" text-anchor="middle" y="1358" x="1201">POST /consent</text><line style="fill: none;" marker-end="url(#arrowhead)" stroke="none" stroke-width="2" class="messageLine0" y2="1387" x2="1342" y1="1387" x1="1059"/><text style="font-size: 16px; font-weight: 400;" dy="1em" class="messageText" alignment-baseline="middle" dominant-baseline="middle" text-anchor="middle" y="1500" x="1365">Ricerca in tabella utenti</text><path style="fill: none;" marker-end="url(#arrowhead)" stroke="none" stroke-width="2" class="messageLine0" d="M 1365,1529 C 1425,1519 1425,1559 1365,1549"/><text style="font-size: 16px; font-weight: 400;" dy="1em" class="messageText" alignment-baseline="middle" dominant-baseline="middle" text-anchor="middle" y="1619" x="1365">Registra dati utente in tabella Users (no PII)</text><path style="fill: none;" marker-end="url(#arrowhead)" stroke="none" stroke-width="2" class="messageLine0" d="M 1365,1648 C 1425,1638 1425,1678 1365,1668"/><text style="font-size: 16px; font-weight: 400;" dy="1em" class="messageText" alignment-baseline="middle" dominant-baseline="middle" text-anchor="middle" y="1752" x="1365">Aggiorna relazione ente-utente in tabella Operators</text><path style="fill: none;" marker-end="url(#arrowhead)" stroke="none" stroke-width="2" class="messageLine0" d="M 1365,1781 C 1425,1771 1425,1811 1365,1801"/><text style="font-size: 16px; font-weight: 400;" dy="1em" class="messageText" alignment-baseline="middle" dominant-baseline="middle" text-anchor="middle" y="2012" x="1204">200: Consegna Access Token</text><line style="stroke-dasharray: 3, 3; fill: none;" marker-end="url(#arrowhead)" stroke="none" stroke-width="2" class="messageLine1" y2="2041" x2="1062" y1="2041" x1="1345"/><text style="font-size: 16px; font-weight: 400;" dy="1em" class="messageText" alignment-baseline="middle" dominant-baseline="middle" text-anchor="middle" y="2126" x="1360">Aggiorna relazione ente-utente in tabella Operators</text><path style="fill: none;" marker-end="url(#arrowhead)" stroke="none" stroke-width="2" class="messageLine0" d="M 1360,2155 C 1420,2145 1420,2185 1360,2175"/><text style="font-size: 16px; font-weight: 400;" dy="1em" class="messageText" alignment-baseline="middle" dominant-baseline="middle" text-anchor="middle" y="2414" x="1204">200: Consegna Access Token</text><line style="fill: none;" marker-end="url(#arrowhead)" stroke="none" stroke-width="2" class="messageLine0" y2="2443" x2="1062" y1="2443" x1="1345"/><text style="font-size: 16px; font-weight: 400;" dy="1em" class="messageText" alignment-baseline="middle" dominant-baseline="middle" text-anchor="middle" y="2468" x="908">access token JWT e HttpStatus 200</text><line style="stroke-dasharray: 3, 3; fill: none;" marker-end="url(#arrowhead)" stroke="none" stroke-width="2" class="messageLine1" y2="2497" x2="766" y1="2497" x1="1049"/><text style="font-size: 16px; font-weight: 400;" dy="1em" class="messageText" alignment-baseline="middle" dominant-baseline="middle" text-anchor="middle" y="2512" x="907">GET /userinfo</text><line style="fill: none;" marker-end="url(#arrowhead)" stroke="none" stroke-width="2" class="messageLine0" y2="2541" x2="1050" y1="2541" x1="763"/><text style="font-size: 16px; font-weight: 400;" dy="1em" class="messageText" alignment-baseline="middle" dominant-baseline="middle" text-anchor="middle" y="2556" x="1201">GET /userinfo</text><line style="fill: none;" marker-end="url(#arrowhead)" stroke="none" stroke-width="2" class="messageLine0" y2="2585" x2="1342" y1="2585" x1="1059"/><text style="font-size: 16px; font-weight: 400;" dy="1em" class="messageText" alignment-baseline="middle" dominant-baseline="middle" text-anchor="middle" y="2600" x="1360">Recupera l'ID Token dalla cache</text><path style="fill: none;" marker-end="url(#arrowhead)" stroke="none" stroke-width="2" class="messageLine0" d="M 1360,2629 C 1420,2619 1420,2659 1360,2649"/><text style="font-size: 16px; font-weight: 400;" dy="1em" class="messageText" alignment-baseline="middle" dominant-baseline="middle" text-anchor="middle" y="2674" x="1360">Recupera le relazioni ed i ruoli</text><text style="font-size: 16px; font-weight: 400;" dy="1em" class="messageText" alignment-baseline="middle" dominant-baseline="middle" text-anchor="middle" y="2693" x="1360">con gli enti dalla tabella Operators</text><path style="fill: none;" marker-end="url(#arrowhead)" stroke="none" stroke-width="2" class="messageLine0" d="M 1360,2720 C 1420,2710 1420,2750 1360,2740"/><text style="font-size: 16px; font-weight: 400;" dy="1em" class="messageText" alignment-baseline="middle" dominant-baseline="middle" text-anchor="middle" y="2765" x="1204">Dati utente ed enti/ruoli</text><line style="stroke-dasharray: 3, 3; fill: none;" marker-end="url(#arrowhead)" stroke="none" stroke-width="2" class="messageLine1" y2="2794" x2="1062" y1="2794" x1="1345"/><text style="font-size: 16px; font-weight: 400;" dy="1em" class="messageText" alignment-baseline="middle" dominant-baseline="middle" text-anchor="middle" y="2809" x="908">Dati utente</text><line style="stroke-dasharray: 3, 3; fill: none;" marker-end="url(#arrowhead)" stroke="none" stroke-width="2" class="messageLine1" y2="2838" x2="766" y1="2838" x1="1049"/><text style="font-size: 16px; font-weight: 400;" dy="1em" class="messageText" alignment-baseline="middle" dominant-baseline="middle" text-anchor="middle" y="2951" x="577">​</text><line style="stroke-dasharray: 3, 3; fill: none;" marker-end="url(#arrowhead)" stroke="none" stroke-width="2" class="messageLine1" y2="2946" x2="400" y1="2946" x1="753"/><text style="font-size: 16px; font-weight: 400;" dy="1em" class="messageText" alignment-baseline="middle" dominant-baseline="middle" text-anchor="middle" y="2961" x="233">​</text><line style="stroke-dasharray: 3, 3; fill: none;" marker-end="url(#arrowhead)" stroke="none" stroke-width="2" class="messageLine1" y2="2956" x2="79" y1="2956" x1="387"/><g name="Operatore" class="actor-man actor-bottom"><line y2="3089" x2="75" y1="3069" x1="75" id="actor-man-torso5"/><line y2="3077" x2="93" y1="3077" x1="57" id="actor-man-arms5"/><line y2="3089" x2="75" y1="3104" x1="57"/><line y2="3104" x2="91" y1="3089" x1="75"/><circle height="65" width="150" r="15" cy="3054" cx="75"/><text style="text-anchor: middle; font-size: 16px; font-weight: 400;" class="actor actor-man" alignment-baseline="central" dominant-baseline="central" y="3111.5" x="75"><tspan dy="0" x="75">Operatore</tspan></text></g></svg>