<svg aria-roledescription="er" role="graphics-document document" viewBox="0 0 540 597.18359375" style="max-width: 540px; background-color: white;" xmlns:xlink="http://www.w3.org/1999/xlink" xmlns="http://www.w3.org/2000/svg" width="100%" id="my-svg"><style>#my-svg{font-family:"trebuchet ms",verdana,arial,sans-serif;font-size:16px;fill:#333;}#my-svg .error-icon{fill:#552222;}#my-svg .error-text{fill:#552222;stroke:#552222;}#my-svg .edge-thickness-normal{stroke-width:1px;}#my-svg .edge-thickness-thick{stroke-width:3.5px;}#my-svg .edge-pattern-solid{stroke-dasharray:0;}#my-svg .edge-thickness-invisible{stroke-width:0;fill:none;}#my-svg .edge-pattern-dashed{stroke-dasharray:3;}#my-svg .edge-pattern-dotted{stroke-dasharray:2;}#my-svg .marker{fill:#333333;stroke:#333333;}#my-svg .marker.cross{stroke:#333333;}#my-svg svg{font-family:"trebuchet ms",verdana,arial,sans-serif;font-size:16px;}#my-svg p{margin:0;}#my-svg .entityBox{fill:#ECECFF;stroke:#9370DB;}#my-svg .attributeBoxOdd{fill:#ffffff;stroke:#9370DB;}#my-svg .attributeBoxEven{fill:#f2f2f2;stroke:#9370DB;}#my-svg .relationshipLabelBox{fill:hsl(80, 100%, 96.2745098039%);opacity:0.7;background-color:hsl(80, 100%, 96.2745098039%);}#my-svg .relationshipLabelBox rect{opacity:0.5;}#my-svg .relationshipLine{stroke:#333333;}#my-svg .entityTitleText{text-anchor:middle;font-size:18px;fill:#333;}#my-svg #MD_PARENT_START{fill:#f5f5f5!important;stroke:#333333!important;stroke-width:1;}#my-svg #MD_PARENT_END{fill:#f5f5f5!important;stroke:#333333!important;stroke-width:1;}#my-svg :root{--mermaid-font-family:"trebuchet ms",verdana,arial,sans-serif;}</style><g/><defs><marker orient="auto" markerHeight="240" markerWidth="190" refY="7" refX="0" id="MD_PARENT_START"><path d="M 18,7 L9,13 L1,7 L9,1 Z"/></marker></defs><defs><marker orient="auto" markerHeight="28" markerWidth="20" refY="7" refX="19" id="MD_PARENT_END"><path d="M 18,7 L9,13 L1,7 L9,1 Z"/></marker></defs><defs><marker orient="auto" markerHeight="18" markerWidth="18" refY="9" refX="0" id="ONLY_ONE_START"><path d="M9,0 L9,18 M15,0 L15,18" fill="none" stroke="gray"/></marker></defs><defs><marker orient="auto" markerHeight="18" markerWidth="18" refY="9" refX="18" id="ONLY_ONE_END"><path d="M3,0 L3,18 M9,0 L9,18" fill="none" stroke="gray"/></marker></defs><defs><marker orient="auto" markerHeight="18" markerWidth="30" refY="9" refX="0" id="ZERO_OR_ONE_START"><circle r="6" cy="9" cx="21" fill="white" stroke="gray"/><path d="M9,0 L9,18" fill="none" stroke="gray"/></marker></defs><defs><marker orient="auto" markerHeight="18" markerWidth="30" refY="9" refX="30" id="ZERO_OR_ONE_END"><circle r="6" cy="9" cx="9" fill="white" stroke="gray"/><path d="M21,0 L21,18" fill="none" stroke="gray"/></marker></defs><defs><marker orient="auto" markerHeight="36" markerWidth="45" refY="18" refX="18" id="ONE_OR_MORE_START"><path d="M0,18 Q 18,0 36,18 Q 18,36 0,18 M42,9 L42,27" fill="none" stroke="gray"/></marker></defs><defs><marker orient="auto" markerHeight="36" markerWidth="45" refY="18" refX="27" id="ONE_OR_MORE_END"><path d="M3,9 L3,27 M9,18 Q27,0 45,18 Q27,36 9,18" fill="none" stroke="gray"/></marker></defs><defs><marker orient="auto" markerHeight="36" markerWidth="57" refY="18" refX="18" id="ZERO_OR_MORE_START"><circle r="6" cy="18" cx="48" fill="white" stroke="gray"/><path d="M0,18 Q18,0 36,18 Q18,36 0,18" fill="none" stroke="gray"/></marker></defs><defs><marker orient="auto" markerHeight="36" markerWidth="57" refY="18" refX="39" id="ZERO_OR_MORE_END"><circle r="6" cy="18" cx="9" fill="white" stroke="gray"/><path d="M21,18 Q39,0 57,18 Q39,36 21,18" fill="none" stroke="gray"/></marker></defs><path style="stroke: gray; fill: none;" marker-start="url(#ONLY_ONE_START)" marker-end="url(#ZERO_OR_MORE_END)" d="M70,263.184L70,271.517C70,279.85,70,296.517,95,315.35C120,334.184,170,355.184,195,365.684L220,376.184" class="er relationshipLine"/><path style="stroke: gray; fill: none;" marker-start="url(#ONLY_ONE_START)" marker-end="url(#ONE_OR_MORE_END)" d="M329.459,88.184L319.549,96.517C309.639,104.85,289.82,121.517,279.91,138.767C270,156.017,270,173.85,270,182.767L270,191.684" class="er relationshipLine"/><path style="stroke: gray; fill: none;" marker-start="url(#ONLY_ONE_START)" marker-end="url(#ONE_OR_MORE_END)" d="M410.541,88.184L420.451,96.517C430.361,104.85,450.18,121.517,460.09,138.767C470,156.017,470,173.85,470,182.767L470,191.684" class="er relationshipLine"/><path style="stroke: gray; fill: none;" marker-start="url(#ONLY_ONE_START)" marker-end="url(#ONLY_ONE_END)" d="M270,431.184L270,439.517C270,447.85,270,464.517,270,481.184C270,497.85,270,514.517,270,522.85L270,531.184" class="er relationshipLine"/><path style="stroke: gray; fill: none;" marker-start="url(#ONE_OR_MORE_START)" marker-end="url(#ONLY_ONE_END)" d="M270,259.684L270,268.6C270,277.517,270,295.35,270,312.6C270,329.85,270,346.517,270,354.85L270,363.184" class="er relationshipLine"/><path style="stroke: gray; fill: none;" marker-start="url(#ONE_OR_MORE_START)" marker-end="url(#ONLY_ONE_END)" d="M470,259.684L470,268.6C470,277.517,470,295.35,445,314.767C420,334.184,370,355.184,345,365.684L320,376.184" class="er relationshipLine"/><g transform="translate(20,188.18359375 )" id="entity-ARRAY-ae24a817-6584-5ce0-b259-90cbb54662b8"><rect height="75" width="100" y="0" x="0" class="er entityBox"/><text style="dominant-baseline: middle; text-anchor: middle; font-size: 12px;" transform="translate(50,37.5)" y="0" x="0" id="text-entity-ARRAY-ae24a817-6584-5ce0-b259-90cbb54662b8" class="er entityLabel">ARRAY</text></g><g transform="translate(220,363.18359375 )" id="entity-ELEMENT-6a40bb53-8bb8-5bc3-88f4-12bfbc66f081"><rect height="68" width="100" y="0" x="0" class="er entityBox"/><text style="dominant-baseline: middle; text-anchor: middle; font-size: 12px;" transform="translate(50,12)" y="0" x="0" id="text-entity-ELEMENT-6a40bb53-8bb8-5bc3-88f4-12bfbc66f081" class="er entityLabel">ELEMENT</text><rect height="22" width="43.84375" y="24" x="0" class="er attributeBoxOdd"/><text style="dominant-baseline: middle; font-size: 10.2px;" transform="translate(5,35)" y="0" x="0" id="text-entity-ELEMENT-6a40bb53-8bb8-5bc3-88f4-12bfbc66f081-attr-1-type" class="er entityLabel">int</text><rect height="22" width="56.15625" y="24" x="43.84375" class="er attributeBoxOdd"/><text style="dominant-baseline: middle; font-size: 10.2px;" transform="translate(48.84375,35)" y="0" x="0" id="text-entity-ELEMENT-6a40bb53-8bb8-5bc3-88f4-12bfbc66f081-attr-1-name" class="er entityLabel">value</text><rect height="22" width="43.84375" y="46" x="0" class="er attributeBoxEven"/><text style="dominant-baseline: middle; font-size: 10.2px;" transform="translate(5,57)" y="0" x="0" id="text-entity-ELEMENT-6a40bb53-8bb8-5bc3-88f4-12bfbc66f081-attr-2-type" class="er entityLabel">int</text><rect height="22" width="56.15625" y="46" x="43.84375" class="er attributeBoxEven"/><text style="dominant-baseline: middle; font-size: 10.2px;" transform="translate(48.84375,57)" y="0" x="0" id="text-entity-ELEMENT-6a40bb53-8bb8-5bc3-88f4-12bfbc66f081-attr-2-name" class="er entityLabel">index</text></g><g transform="translate(308.7890625,20 )" id="entity-ALGORITHM-46d48257-9922-5253-a7ba-027d19c83c3d"><rect height="68.18359565734863" width="122.421875" y="0" x="0" class="er entityBox"/><text style="dominant-baseline: middle; text-anchor: middle; font-size: 12px;" transform="translate(61.2109375,12)" y="0" x="0" id="text-entity-ALGORITHM-46d48257-9922-5253-a7ba-027d19c83c3d" class="er entityLabel">ALGORITHM</text><rect height="22.091797828674316" width="35.75" y="24" x="0" class="er attributeBoxOdd"/><text style="dominant-baseline: middle; font-size: 10.2px;" transform="translate(5,35.04589891433716)" y="0" x="0" id="text-entity-ALGORITHM-46d48257-9922-5253-a7ba-027d19c83c3d-attr-1-type" class="er entityLabel">string</text><rect height="22.091797828674316" width="86.671875" y="24" x="35.75" class="er attributeBoxOdd"/><text style="dominant-baseline: middle; font-size: 10.2px;" transform="translate(40.75,35.04589891433716)" y="0" x="0" id="text-entity-ALGORITHM-46d48257-9922-5253-a7ba-027d19c83c3d-attr-1-name" class="er entityLabel">name</text><rect height="22.091797828674316" width="35.75" y="46.091797828674316" x="0" class="er attributeBoxEven"/><text style="dominant-baseline: middle; font-size: 10.2px;" transform="translate(5,57.137696743011475)" y="0" x="0" id="text-entity-ALGORITHM-46d48257-9922-5253-a7ba-027d19c83c3d-attr-2-type" class="er entityLabel">int</text><rect height="22.091797828674316" width="86.671875" y="46.091797828674316" x="35.75" class="er attributeBoxEven"/><text style="dominant-baseline: middle; font-size: 10.2px;" transform="translate(40.75,57.137696743011475)" y="0" x="0" id="text-entity-ALGORITHM-46d48257-9922-5253-a7ba-027d19c83c3d-attr-2-name" class="er entityLabel">time_complexity</text></g><g transform="translate(220,191.68359375 )" id="entity-COMPARISON-3232af1f-29ae-5823-bf74-1c2a0717128f"><rect height="68" width="100" y="0" x="0" class="er entityBox"/><text style="dominant-baseline: middle; text-anchor: middle; font-size: 12px;" transform="translate(50,12)" y="0" x="0" id="text-entity-COMPARISON-3232af1f-29ae-5823-bf74-1c2a0717128f" class="er entityLabel">COMPARISON</text><rect height="22" width="25.4296875" y="24" x="0" class="er attributeBoxOdd"/><text style="dominant-baseline: middle; font-size: 10.2px;" transform="translate(5,35)" y="0" x="0" id="text-entity-COMPARISON-3232af1f-29ae-5823-bf74-1c2a0717128f-attr-1-type" class="er entityLabel">int</text><rect height="22" width="74.5703125" y="24" x="25.4296875" class="er attributeBoxOdd"/><text style="dominant-baseline: middle; font-size: 10.2px;" transform="translate(30.4296875,35)" y="0" x="0" id="text-entity-COMPARISON-3232af1f-29ae-5823-bf74-1c2a0717128f-attr-1-name" class="er entityLabel">first_index</text><rect height="22" width="25.4296875" y="46" x="0" class="er attributeBoxEven"/><text style="dominant-baseline: middle; font-size: 10.2px;" transform="translate(5,57)" y="0" x="0" id="text-entity-COMPARISON-3232af1f-29ae-5823-bf74-1c2a0717128f-attr-2-type" class="er entityLabel">int</text><rect height="22" width="74.5703125" y="46" x="25.4296875" class="er attributeBoxEven"/><text style="dominant-baseline: middle; font-size: 10.2px;" transform="translate(30.4296875,57)" y="0" x="0" id="text-entity-COMPARISON-3232af1f-29ae-5823-bf74-1c2a0717128f-attr-2-name" class="er entityLabel">second_index</text></g><g transform="translate(420,191.68359375 )" id="entity-SWAP-4ea14c00-f4c1-583c-b9a0-ab5367898abc"><rect height="68" width="100" y="0" x="0" class="er entityBox"/><text style="dominant-baseline: middle; text-anchor: middle; font-size: 12px;" transform="translate(50,12)" y="0" x="0" id="text-entity-SWAP-4ea14c00-f4c1-583c-b9a0-ab5367898abc" class="er entityLabel">SWAP</text><rect height="22" width="25.4296875" y="24" x="0" class="er attributeBoxOdd"/><text style="dominant-baseline: middle; font-size: 10.2px;" transform="translate(5,35)" y="0" x="0" id="text-entity-SWAP-4ea14c00-f4c1-583c-b9a0-ab5367898abc-attr-1-type" class="er entityLabel">int</text><rect height="22" width="74.5703125" y="24" x="25.4296875" class="er attributeBoxOdd"/><text style="dominant-baseline: middle; font-size: 10.2px;" transform="translate(30.4296875,35)" y="0" x="0" id="text-entity-SWAP-4ea14c00-f4c1-583c-b9a0-ab5367898abc-attr-1-name" class="er entityLabel">first_index</text><rect height="22" width="25.4296875" y="46" x="0" class="er attributeBoxEven"/><text style="dominant-baseline: middle; font-size: 10.2px;" transform="translate(5,57)" y="0" x="0" id="text-entity-SWAP-4ea14c00-f4c1-583c-b9a0-ab5367898abc-attr-2-type" class="er entityLabel">int</text><rect height="22" width="74.5703125" y="46" x="25.4296875" class="er attributeBoxEven"/><text style="dominant-baseline: middle; font-size: 10.2px;" transform="translate(30.4296875,57)" y="0" x="0" id="text-entity-SWAP-4ea14c00-f4c1-583c-b9a0-ab5367898abc-attr-2-name" class="er entityLabel">second_index</text></g><g transform="translate(220,531.18359375 )" id="entity-POSITION-adf88214-f9d0-5aef-9945-144f4723c262"><rect height="46" width="100" y="0" x="0" class="er entityBox"/><text style="dominant-baseline: middle; text-anchor: middle; font-size: 12px;" transform="translate(50,12)" y="0" x="0" id="text-entity-POSITION-adf88214-f9d0-5aef-9945-144f4723c262" class="er entityLabel">POSITION</text><rect height="22" width="43.84375" y="24" x="0" class="er attributeBoxOdd"/><text style="dominant-baseline: middle; font-size: 10.2px;" transform="translate(5,35)" y="0" x="0" id="text-entity-POSITION-adf88214-f9d0-5aef-9945-144f4723c262-attr-1-type" class="er entityLabel">int</text><rect height="22" width="56.15625" y="24" x="43.84375" class="er attributeBoxOdd"/><text style="dominant-baseline: middle; font-size: 10.2px;" transform="translate(48.84375,35)" y="0" x="0" id="text-entity-POSITION-adf88214-f9d0-5aef-9945-144f4723c262-attr-1-name" class="er entityLabel">index</text></g><rect height="14" width="44.84375" y="328.49822998046875" x="106.10353088378906" class="er relationshipLabelBox"/><text style="text-anchor: middle; dominant-baseline: middle; font-size: 12px;" y="335.49822998046875" x="128.52540588378906" id="rel1" class="er relationshipLabel">contains</text><rect height="14" width="48.265625" y="124.81915283203125" x="260.2930908203125" class="er relationshipLabelBox"/><text style="text-anchor: middle; dominant-baseline: middle; font-size: 12px;" y="131.81915283203125" x="284.4259033203125" id="rel2" class="er relationshipLabel">performs</text><rect height="14" width="47.765625" y="124.81916809082031" x="431.6912841796875" class="er relationshipLabelBox"/><text style="text-anchor: middle; dominant-baseline: middle; font-size: 12px;" y="131.8191680908203" x="455.5740966796875" id="rel3" class="er relationshipLabel">executes</text><rect height="14" width="17.71875" y="474.18402099609375" x="261.140625" class="er relationshipLabelBox"/><text style="text-anchor: middle; dominant-baseline: middle; font-size: 12px;" y="481.18402099609375" x="270" id="rel4" class="er relationshipLabel">has</text><rect height="14" width="43.125" y="304.4339904785156" x="248.4375" class="er relationshipLabelBox"/><text style="text-anchor: middle; dominant-baseline: middle; font-size: 12px;" y="311.4339904785156" x="270" id="rel5" class="er relationshipLabel">involves</text><rect height="14" width="37.28125" y="327.6875305175781" x="394.0760192871094" class="er relationshipLabelBox"/><text style="text-anchor: middle; dominant-baseline: middle; font-size: 12px;" y="334.6875305175781" x="412.7166442871094" id="rel6" class="er relationshipLabel">affects</text></svg>