<svg aria-roledescription="er" role="graphics-document document" viewBox="0 0 901.3125 436.091796875" style="max-width: 901.312px; background-color: white;" xmlns:xlink="http://www.w3.org/1999/xlink" xmlns="http://www.w3.org/2000/svg" width="100%" id="my-svg"><style>#my-svg{font-family:"trebuchet ms",verdana,arial,sans-serif;font-size:16px;fill:#333;}#my-svg .error-icon{fill:#552222;}#my-svg .error-text{fill:#552222;stroke:#552222;}#my-svg .edge-thickness-normal{stroke-width:1px;}#my-svg .edge-thickness-thick{stroke-width:3.5px;}#my-svg .edge-pattern-solid{stroke-dasharray:0;}#my-svg .edge-thickness-invisible{stroke-width:0;fill:none;}#my-svg .edge-pattern-dashed{stroke-dasharray:3;}#my-svg .edge-pattern-dotted{stroke-dasharray:2;}#my-svg .marker{fill:#333333;stroke:#333333;}#my-svg .marker.cross{stroke:#333333;}#my-svg svg{font-family:"trebuchet ms",verdana,arial,sans-serif;font-size:16px;}#my-svg p{margin:0;}#my-svg .entityBox{fill:#ECECFF;stroke:#9370DB;}#my-svg .attributeBoxOdd{fill:#ffffff;stroke:#9370DB;}#my-svg .attributeBoxEven{fill:#f2f2f2;stroke:#9370DB;}#my-svg .relationshipLabelBox{fill:hsl(80, 100%, 96.2745098039%);opacity:0.7;background-color:hsl(80, 100%, 96.2745098039%);}#my-svg .relationshipLabelBox rect{opacity:0.5;}#my-svg .relationshipLine{stroke:#333333;}#my-svg .entityTitleText{text-anchor:middle;font-size:18px;fill:#333;}#my-svg #MD_PARENT_START{fill:#f5f5f5!important;stroke:#333333!important;stroke-width:1;}#my-svg #MD_PARENT_END{fill:#f5f5f5!important;stroke:#333333!important;stroke-width:1;}#my-svg :root{--mermaid-font-family:"trebuchet ms",verdana,arial,sans-serif;}</style><g/><defs><marker orient="auto" markerHeight="240" markerWidth="190" refY="7" refX="0" id="MD_PARENT_START"><path d="M 18,7 L9,13 L1,7 L9,1 Z"/></marker></defs><defs><marker orient="auto" markerHeight="28" markerWidth="20" refY="7" refX="19" id="MD_PARENT_END"><path d="M 18,7 L9,13 L1,7 L9,1 Z"/></marker></defs><defs><marker orient="auto" markerHeight="18" markerWidth="18" refY="9" refX="0" id="ONLY_ONE_START"><path d="M9,0 L9,18 M15,0 L15,18" fill="none" stroke="gray"/></marker></defs><defs><marker orient="auto" markerHeight="18" markerWidth="18" refY="9" refX="18" id="ONLY_ONE_END"><path d="M3,0 L3,18 M9,0 L9,18" fill="none" stroke="gray"/></marker></defs><defs><marker orient="auto" markerHeight="18" markerWidth="30" refY="9" refX="0" id="ZERO_OR_ONE_START"><circle r="6" cy="9" cx="21" fill="white" stroke="gray"/><path d="M9,0 L9,18" fill="none" stroke="gray"/></marker></defs><defs><marker orient="auto" markerHeight="18" markerWidth="30" refY="9" refX="30" id="ZERO_OR_ONE_END"><circle r="6" cy="9" cx="9" fill="white" stroke="gray"/><path d="M21,0 L21,18" fill="none" stroke="gray"/></marker></defs><defs><marker orient="auto" markerHeight="36" markerWidth="45" refY="18" refX="18" id="ONE_OR_MORE_START"><path d="M0,18 Q 18,0 36,18 Q 18,36 0,18 M42,9 L42,27" fill="none" stroke="gray"/></marker></defs><defs><marker orient="auto" markerHeight="36" markerWidth="45" refY="18" refX="27" id="ONE_OR_MORE_END"><path d="M3,9 L3,27 M9,18 Q27,0 45,18 Q27,36 9,18" fill="none" stroke="gray"/></marker></defs><defs><marker orient="auto" markerHeight="36" markerWidth="57" refY="18" refX="18" id="ZERO_OR_MORE_START"><circle r="6" cy="18" cx="48" fill="white" stroke="gray"/><path d="M0,18 Q18,0 36,18 Q18,36 0,18" fill="none" stroke="gray"/></marker></defs><defs><marker orient="auto" markerHeight="36" markerWidth="57" refY="18" refX="39" id="ZERO_OR_MORE_END"><circle r="6" cy="18" cx="9" fill="white" stroke="gray"/><path d="M21,18 Q39,0 57,18 Q39,36 21,18" fill="none" stroke="gray"/></marker></defs><path style="stroke: gray; fill: none;" marker-start="url(#ZERO_OR_MORE_START)" marker-end="url(#ONLY_ONE_END)" d="M94.828,80.5L94.828,91.25C94.828,102,94.828,123.5,141.081,144.004C187.333,164.508,279.839,184.015,326.091,193.769L372.344,203.523" class="er relationshipLine"/><path style="stroke: gray; fill: none;" marker-start="url(#ZERO_OR_MORE_START)" marker-end="url(#ONLY_ONE_END)" d="M325.711,95L325.711,103.333C325.711,111.667,325.711,128.333,338.888,145C352.064,161.667,378.418,178.333,391.594,186.667L404.771,195" class="er relationshipLine"/><path style="stroke: gray; fill: none;" marker-start="url(#ZERO_OR_MORE_START)" marker-end="url(#ONLY_ONE_END)" d="M556.711,95L556.711,103.333C556.711,111.667,556.711,128.333,543.534,145C530.358,161.667,504.004,178.333,490.828,186.667L477.651,195" class="er relationshipLine"/><path style="stroke: gray; fill: none;" marker-start="url(#ZERO_OR_MORE_START)" marker-end="url(#ONLY_ONE_END)" d="M806.484,80.5L806.484,91.25C806.484,102,806.484,123.5,757.083,144.129C707.682,164.758,608.88,184.516,559.479,194.395L510.078,204.274" class="er relationshipLine"/><path style="stroke: gray; fill: none;" marker-start="url(#ONLY_ONE_START)" marker-end="url(#ZERO_OR_MORE_END)" d="M405.911,241.092L393.146,249.425C380.382,257.758,354.853,274.425,342.089,291.092C329.324,307.758,329.324,324.425,329.324,332.758L329.324,341.092" class="er relationshipLine"/><path style="stroke: gray; fill: none;" marker-start="url(#ZERO_OR_MORE_START)" marker-end="url(#ZERO_OR_MORE_END)" d="M476.511,241.092L489.276,249.425C502.04,257.758,527.569,274.425,540.333,291.092C553.098,307.758,553.098,324.425,553.098,332.758L553.098,341.092" class="er relationshipLine"/><g transform="translate(20,34.5 )" id="entity-CONTROL-0d2affd8-584a-5c42-890a-84dadb9d27e5"><rect height="46" width="149.65625" y="0" x="0" class="er entityBox"/><text style="dominant-baseline: middle; text-anchor: middle; font-size: 12px;" transform="translate(74.828125,12)" y="0" x="0" id="text-entity-CONTROL-0d2affd8-584a-5c42-890a-84dadb9d27e5" class="er entityLabel">CONTROL</text><rect height="22" width="87.84375" y="24" x="0" class="er attributeBoxOdd"/><text style="dominant-baseline: middle; font-size: 10.2px;" transform="translate(5,35)" y="0" x="0" id="text-entity-CONTROL-0d2affd8-584a-5c42-890a-84dadb9d27e5-attr-1-type" class="er entityLabel">bounded-context</text><rect height="22" width="61.8125" y="24" x="87.84375" class="er attributeBoxOdd"/><text style="dominant-baseline: middle; font-size: 10.2px;" transform="translate(92.84375,35)" y="0" x="0" id="text-entity-CONTROL-0d2affd8-584a-5c42-890a-84dadb9d27e5-attr-1-name" class="er entityLabel">RENDERING</text></g><g transform="translate(731.65625,34.5 )" id="entity-COMPUTATION-0a4ce14a-b51f-5f6d-aff4-f7963dec3ed5"><rect height="46" width="149.65625" y="0" x="0" class="er entityBox"/><text style="dominant-baseline: middle; text-anchor: middle; font-size: 12px;" transform="translate(74.828125,12)" y="0" x="0" id="text-entity-COMPUTATION-0a4ce14a-b51f-5f6d-aff4-f7963dec3ed5" class="er entityLabel">COMPUTATION</text><rect height="22" width="87.84375" y="24" x="0" class="er attributeBoxOdd"/><text style="dominant-baseline: middle; font-size: 10.2px;" transform="translate(5,35)" y="0" x="0" id="text-entity-COMPUTATION-0a4ce14a-b51f-5f6d-aff4-f7963dec3ed5-attr-1-type" class="er entityLabel">bounded-context</text><rect height="22" width="61.8125" y="24" x="87.84375" class="er attributeBoxOdd"/><text style="dominant-baseline: middle; font-size: 10.2px;" transform="translate(92.84375,35)" y="0" x="0" id="text-entity-COMPUTATION-0a4ce14a-b51f-5f6d-aff4-f7963dec3ed5-attr-1-name" class="er entityLabel">RENDERING</text></g><g transform="translate(372.34375,195 )" id="entity-STOPPINGREGISTRY-e4066314-f823-5687-b423-a2eaa9a8aa0f"><rect height="46.091797828674316" width="137.734375" y="0" x="0" class="er entityBox"/><text style="dominant-baseline: middle; text-anchor: middle; font-size: 12px;" transform="translate(68.8671875,12)" y="0" x="0" id="text-entity-STOPPINGREGISTRY-e4066314-f823-5687-b423-a2eaa9a8aa0f" class="er entityLabel">STOPPING-REGISTRY</text><rect height="22.091797828674316" width="88.1953125" y="24" x="0" class="er attributeBoxOdd"/><text style="dominant-baseline: middle; font-size: 10.2px;" transform="translate(5,35.04589891433716)" y="0" x="0" id="text-entity-STOPPINGREGISTRY-e4066314-f823-5687-b423-a2eaa9a8aa0f-attr-1-type" class="er entityLabel">value-object</text><rect height="22.091797828674316" width="49.5390625" y="24" x="88.1953125" class="er attributeBoxOdd"/><text style="dominant-baseline: middle; font-size: 10.2px;" transform="translate(93.1953125,35.04589891433716)" y="0" x="0" id="text-entity-STOPPINGREGISTRY-e4066314-f823-5687-b423-a2eaa9a8aa0f-attr-1-name" class="er entityLabel">true</text></g><g transform="translate(269.65625,20 )" id="entity-RCMODELLING-b7d77363-f2a5-5079-a706-868c9e2bcbbd"><rect height="75" width="112.109375" y="0" x="0" class="er entityBox"/><text style="dominant-baseline: middle; text-anchor: middle; font-size: 12px;" transform="translate(56.0546875,37.5)" y="0" x="0" id="text-entity-RCMODELLING-b7d77363-f2a5-5079-a706-868c9e2bcbbd" class="er entityLabel">RC_MODELLING</text></g><g transform="translate(481.765625,20 )" id="entity-INDUSTRYMODELLING-1e5d0df2-08a4-51ab-ae5d-21615ac6edbe"><rect height="75" width="149.890625" y="0" x="0" class="er entityBox"/><text style="dominant-baseline: middle; text-anchor: middle; font-size: 12px;" transform="translate(74.9453125,37.5)" y="0" x="0" id="text-entity-INDUSTRYMODELLING-1e5d0df2-08a4-51ab-ae5d-21615ac6edbe" class="er entityLabel">INDUSTRY_MODELLING</text></g><g transform="translate(279.32421875,341.091796875 )" id="entity-SCHEDULER-4878ebb1-831e-570f-ae80-426a16f06d54"><rect height="75" width="100" y="0" x="0" class="er entityBox"/><text style="dominant-baseline: middle; text-anchor: middle; font-size: 12px;" transform="translate(50,37.5)" y="0" x="0" id="text-entity-SCHEDULER-4878ebb1-831e-570f-ae80-426a16f06d54" class="er entityLabel">SCHEDULER</text></g><g transform="translate(479.32421875,341.091796875 )" id="entity-STOPPINGDEFINITION-ef847183-d4a0-562d-bcfe-2f181f657e14"><rect height="75" width="147.546875" y="0" x="0" class="er entityBox"/><text style="dominant-baseline: middle; text-anchor: middle; font-size: 12px;" transform="translate(73.7734375,37.5)" y="0" x="0" id="text-entity-STOPPINGDEFINITION-ef847183-d4a0-562d-bcfe-2f181f657e14" class="er entityLabel">STOPPING-DEFINITION</text></g><rect height="14" width="45.09375" y="160.8556365966797" x="191.3892364501953" class="er relationshipLabelBox"/><text style="text-anchor: middle; dominant-baseline: middle; font-size: 12px;" y="167.8556365966797" x="213.9361114501953" id="rel1" class="er relationshipLabel">enriches</text><rect height="14" width="45.09375" y="148.91363525390625" x="326.67279052734375" class="er relationshipLabelBox"/><text style="text-anchor: middle; dominant-baseline: middle; font-size: 12px;" y="155.91363525390625" x="349.21966552734375" id="rel2" class="er relationshipLabel">enriches</text><rect height="14" width="45.09375" y="148.9136199951172" x="510.65545654296875" class="er relationshipLabelBox"/><text style="text-anchor: middle; dominant-baseline: middle; font-size: 12px;" y="155.9136199951172" x="533.2023315429688" id="rel3" class="er relationshipLabel">enriches</text><rect height="14" width="45.09375" y="161.5884552001953" x="655.0830688476562" class="er relationshipLabelBox"/><text style="text-anchor: middle; dominant-baseline: middle; font-size: 12px;" y="168.5884552001953" x="677.6299438476562" id="rel4" class="er relationshipLabel">enriches</text><rect height="14" width="45.09375" y="273.53057861328125" x="329.1806335449219" class="er relationshipLabelBox"/><text style="text-anchor: middle; dominant-baseline: middle; font-size: 12px;" y="280.53057861328125" x="351.7275085449219" id="rel5" class="er relationshipLabel">enriches</text><rect height="14" width="44.84375" y="273.53057861328125" x="508.27264404296875" class="er relationshipLabelBox"/><text style="text-anchor: middle; dominant-baseline: middle; font-size: 12px;" y="280.53057861328125" x="530.6945190429688" id="rel6" class="er relationshipLabel">contains</text></svg>