<svg aria-roledescription="er" role="graphics-document document" viewBox="0 0 813.109375 502.275390625" style="max-width: 813.109px; background-color: white;" xmlns:xlink="http://www.w3.org/1999/xlink" xmlns="http://www.w3.org/2000/svg" width="100%" id="my-svg"><style>#my-svg{font-family:"trebuchet ms",verdana,arial,sans-serif;font-size:16px;fill:#333;}#my-svg .error-icon{fill:#552222;}#my-svg .error-text{fill:#552222;stroke:#552222;}#my-svg .edge-thickness-normal{stroke-width:1px;}#my-svg .edge-thickness-thick{stroke-width:3.5px;}#my-svg .edge-pattern-solid{stroke-dasharray:0;}#my-svg .edge-thickness-invisible{stroke-width:0;fill:none;}#my-svg .edge-pattern-dashed{stroke-dasharray:3;}#my-svg .edge-pattern-dotted{stroke-dasharray:2;}#my-svg .marker{fill:#333333;stroke:#333333;}#my-svg .marker.cross{stroke:#333333;}#my-svg svg{font-family:"trebuchet ms",verdana,arial,sans-serif;font-size:16px;}#my-svg p{margin:0;}#my-svg .entityBox{fill:#ECECFF;stroke:#9370DB;}#my-svg .attributeBoxOdd{fill:#ffffff;stroke:#9370DB;}#my-svg .attributeBoxEven{fill:#f2f2f2;stroke:#9370DB;}#my-svg .relationshipLabelBox{fill:hsl(80, 100%, 96.2745098039%);opacity:0.7;background-color:hsl(80, 100%, 96.2745098039%);}#my-svg .relationshipLabelBox rect{opacity:0.5;}#my-svg .relationshipLine{stroke:#333333;}#my-svg .entityTitleText{text-anchor:middle;font-size:18px;fill:#333;}#my-svg #MD_PARENT_START{fill:#f5f5f5!important;stroke:#333333!important;stroke-width:1;}#my-svg #MD_PARENT_END{fill:#f5f5f5!important;stroke:#333333!important;stroke-width:1;}#my-svg :root{--mermaid-font-family:"trebuchet ms",verdana,arial,sans-serif;}</style><g/><defs><marker orient="auto" markerHeight="240" markerWidth="190" refY="7" refX="0" id="MD_PARENT_START"><path d="M 18,7 L9,13 L1,7 L9,1 Z"/></marker></defs><defs><marker orient="auto" markerHeight="28" markerWidth="20" refY="7" refX="19" id="MD_PARENT_END"><path d="M 18,7 L9,13 L1,7 L9,1 Z"/></marker></defs><defs><marker orient="auto" markerHeight="18" markerWidth="18" refY="9" refX="0" id="ONLY_ONE_START"><path d="M9,0 L9,18 M15,0 L15,18" fill="none" stroke="gray"/></marker></defs><defs><marker orient="auto" markerHeight="18" markerWidth="18" refY="9" refX="18" id="ONLY_ONE_END"><path d="M3,0 L3,18 M9,0 L9,18" fill="none" stroke="gray"/></marker></defs><defs><marker orient="auto" markerHeight="18" markerWidth="30" refY="9" refX="0" id="ZERO_OR_ONE_START"><circle r="6" cy="9" cx="21" fill="white" stroke="gray"/><path d="M9,0 L9,18" fill="none" stroke="gray"/></marker></defs><defs><marker orient="auto" markerHeight="18" markerWidth="30" refY="9" refX="30" id="ZERO_OR_ONE_END"><circle r="6" cy="9" cx="9" fill="white" stroke="gray"/><path d="M21,0 L21,18" fill="none" stroke="gray"/></marker></defs><defs><marker orient="auto" markerHeight="36" markerWidth="45" refY="18" refX="18" id="ONE_OR_MORE_START"><path d="M0,18 Q 18,0 36,18 Q 18,36 0,18 M42,9 L42,27" fill="none" stroke="gray"/></marker></defs><defs><marker orient="auto" markerHeight="36" markerWidth="45" refY="18" refX="27" id="ONE_OR_MORE_END"><path d="M3,9 L3,27 M9,18 Q27,0 45,18 Q27,36 9,18" fill="none" stroke="gray"/></marker></defs><defs><marker orient="auto" markerHeight="36" markerWidth="57" refY="18" refX="18" id="ZERO_OR_MORE_START"><circle r="6" cy="18" cx="48" fill="white" stroke="gray"/><path d="M0,18 Q18,0 36,18 Q18,36 0,18" fill="none" stroke="gray"/></marker></defs><defs><marker orient="auto" markerHeight="36" markerWidth="57" refY="18" refX="39" id="ZERO_OR_MORE_END"><circle r="6" cy="18" cx="9" fill="white" stroke="gray"/><path d="M21,18 Q39,0 57,18 Q39,36 21,18" fill="none" stroke="gray"/></marker></defs><path style="stroke: gray; fill: none;" marker-start="url(#ZERO_OR_MORE_START)" marker-end="url(#ZERO_OR_MORE_END)" d="M151.57,80.5L151.57,91.25C151.57,102,151.57,123.5,178.993,145.909C206.417,168.317,261.263,191.634,288.686,203.293L316.109,214.951" class="er relationshipLine"/><path style="stroke: gray; fill: none;" marker-start="url(#ZERO_OR_MORE_START)" marker-end="url(#ZERO_OR_MORE_END)" d="M401.227,80.5L401.227,91.25C401.227,102,401.227,123.5,401.227,142.583C401.227,161.667,401.227,178.333,401.227,186.667L401.227,195" class="er relationshipLine"/><path style="stroke: gray; fill: none;" marker-start="url(#ZERO_OR_MORE_START)" marker-end="url(#ZERO_OR_MORE_END)" d="M642.672,95L642.672,103.333C642.672,111.667,642.672,128.333,616.617,148.12C590.563,167.907,538.453,190.814,512.398,202.267L486.344,213.721" class="er relationshipLine"/><path style="stroke: gray; fill: none;" marker-start="url(#ZERO_OR_MORE_START)" marker-end="url(#ONLY_ONE_END)" d="M316.109,278.413L275.091,291.556C234.073,304.7,152.036,330.988,111.018,352.465C70,373.942,70,390.609,70,398.942L70,407.275" class="er relationshipLine"/><path style="stroke: gray; fill: none;" marker-start="url(#ZERO_OR_ONE_START)" marker-end="url(#ZERO_OR_MORE_END)" d="M341.174,307.275L332.26,315.609C323.345,323.942,305.516,340.609,296.602,357.275C287.688,373.942,287.688,390.609,287.688,398.942L287.688,407.275" class="er relationshipLine"/><path style="stroke: gray; fill: none;" marker-start="url(#ZERO_OR_MORE_START)" marker-end="url(#ONLY_ONE_END)" d="M456.312,307.275L464.489,315.609C472.666,323.942,489.021,340.609,497.198,359.684C505.375,378.76,505.375,400.245,505.375,410.987L505.375,421.729" class="er relationshipLine"/><path style="stroke: gray; fill: none;" marker-start="url(#ZERO_OR_MORE_START)" marker-end="url(#ZERO_OR_MORE_END)" d="M486.344,279.106L525.993,292.134C565.643,305.162,644.943,331.219,684.592,352.58C724.242,373.942,724.242,390.609,724.242,398.942L724.242,407.275" class="er relationshipLine"/><g transform="translate(326.3984375,34.5 )" id="entity-CONTROL-0d2affd8-584a-5c42-890a-84dadb9d27e5"><rect height="46" width="149.65625" y="0" x="0" class="er entityBox"/><text style="dominant-baseline: middle; text-anchor: middle; font-size: 12px;" transform="translate(74.828125,12)" y="0" x="0" id="text-entity-CONTROL-0d2affd8-584a-5c42-890a-84dadb9d27e5" class="er entityLabel">CONTROL</text><rect height="22" width="87.84375" y="24" x="0" class="er attributeBoxOdd"/><text style="dominant-baseline: middle; font-size: 10.2px;" transform="translate(5,35)" y="0" x="0" id="text-entity-CONTROL-0d2affd8-584a-5c42-890a-84dadb9d27e5-attr-1-type" class="er entityLabel">bounded-context</text><rect height="22" width="61.8125" y="24" x="87.84375" class="er attributeBoxOdd"/><text style="dominant-baseline: middle; font-size: 10.2px;" transform="translate(92.84375,35)" y="0" x="0" id="text-entity-CONTROL-0d2affd8-584a-5c42-890a-84dadb9d27e5-attr-1-name" class="er entityLabel">RENDERING</text></g><g transform="translate(76.7421875,34.5 )" id="entity-COMPUTATION-0a4ce14a-b51f-5f6d-aff4-f7963dec3ed5"><rect height="46" width="149.65625" y="0" x="0" class="er entityBox"/><text style="dominant-baseline: middle; text-anchor: middle; font-size: 12px;" transform="translate(74.828125,12)" y="0" x="0" id="text-entity-COMPUTATION-0a4ce14a-b51f-5f6d-aff4-f7963dec3ed5" class="er entityLabel">COMPUTATION</text><rect height="22" width="87.84375" y="24" x="0" class="er attributeBoxOdd"/><text style="dominant-baseline: middle; font-size: 10.2px;" transform="translate(5,35)" y="0" x="0" id="text-entity-COMPUTATION-0a4ce14a-b51f-5f6d-aff4-f7963dec3ed5-attr-1-type" class="er entityLabel">bounded-context</text><rect height="22" width="61.8125" y="24" x="87.84375" class="er attributeBoxOdd"/><text style="dominant-baseline: middle; font-size: 10.2px;" transform="translate(92.84375,35)" y="0" x="0" id="text-entity-COMPUTATION-0a4ce14a-b51f-5f6d-aff4-f7963dec3ed5-attr-1-name" class="er entityLabel">RENDERING</text></g><g transform="translate(316.109375,195 )" id="entity-STOPPINGDEFINITION-ef847183-d4a0-562d-bcfe-2f181f657e14"><rect height="112.27539253234863" width="170.234375" y="0" x="0" class="er entityBox"/><text style="dominant-baseline: middle; text-anchor: middle; font-size: 12px;" transform="translate(85.1171875,12)" y="0" x="0" id="text-entity-STOPPINGDEFINITION-ef847183-d4a0-562d-bcfe-2f181f657e14" class="er entityLabel">STOPPING-DEFINITION</text><rect height="22.091796875" width="100.21875" y="24" x="0" class="er attributeBoxOdd"/><text style="dominant-baseline: middle; font-size: 10.2px;" transform="translate(5,35.0458984375)" y="0" x="0" id="text-entity-STOPPINGDEFINITION-ef847183-d4a0-562d-bcfe-2f181f657e14-attr-1-type" class="er entityLabel">id</text><rect height="22.091796875" width="48.453125" y="24" x="100.21875" class="er attributeBoxOdd"/><text style="dominant-baseline: middle; font-size: 10.2px;" transform="translate(105.21875,35.0458984375)" y="0" x="0" id="text-entity-STOPPINGDEFINITION-ef847183-d4a0-562d-bcfe-2f181f657e14-attr-1-name" class="er entityLabel">keyword</text><rect height="22.091796875" width="21.5625" y="24" x="148.671875" class="er attributeBoxOdd"/><text style="dominant-baseline: middle; font-size: 10.2px;" transform="translate(153.671875,35.0458984375)" y="0" x="0" id="text-entity-STOPPINGDEFINITION-ef847183-d4a0-562d-bcfe-2f181f657e14-attr-1-key" class="er entityLabel">PK</text><rect height="22.091797828674316" width="100.21875" y="46.091796875" x="0" class="er attributeBoxEven"/><text style="dominant-baseline: middle; font-size: 10.2px;" transform="translate(5,57.13769578933716)" y="0" x="0" id="text-entity-STOPPINGDEFINITION-ef847183-d4a0-562d-bcfe-2f181f657e14-attr-2-type" class="er entityLabel">stopping-evaluation</text><rect height="22.091797828674316" width="48.453125" y="46.091796875" x="100.21875" class="er attributeBoxEven"/><text style="dominant-baseline: middle; font-size: 10.2px;" transform="translate(105.21875,57.13769578933716)" y="0" x="0" id="text-entity-STOPPINGDEFINITION-ef847183-d4a0-562d-bcfe-2f181f657e14-attr-2-name" class="er entityLabel">fn</text><rect height="22.091797828674316" width="21.5625" y="46.091796875" x="148.671875" class="er attributeBoxEven"/><text style="dominant-baseline: middle; font-size: 10.2px;" transform="translate(153.671875,57.13769578933716)" y="0" x="0" id="text-entity-STOPPINGDEFINITION-ef847183-d4a0-562d-bcfe-2f181f657e14-attr-2-key" class="er entityLabel"/><rect height="22" width="100.21875" y="68.18359470367432" x="0" class="er attributeBoxOdd"/><text style="dominant-baseline: middle; font-size: 10.2px;" transform="translate(5,79.18359470367432)" y="0" x="0" id="text-entity-STOPPINGDEFINITION-ef847183-d4a0-562d-bcfe-2f181f657e14-attr-3-type" class="er entityLabel">built-inQMark</text><rect height="22" width="48.453125" y="68.18359470367432" x="100.21875" class="er attributeBoxOdd"/><text style="dominant-baseline: middle; font-size: 10.2px;" transform="translate(105.21875,79.18359470367432)" y="0" x="0" id="text-entity-STOPPINGDEFINITION-ef847183-d4a0-562d-bcfe-2f181f657e14-attr-3-name" class="er entityLabel">boolean</text><rect height="22" width="21.5625" y="68.18359470367432" x="148.671875" class="er attributeBoxOdd"/><text style="dominant-baseline: middle; font-size: 10.2px;" transform="translate(153.671875,79.18359470367432)" y="0" x="0" id="text-entity-STOPPINGDEFINITION-ef847183-d4a0-562d-bcfe-2f181f657e14-attr-3-key" class="er entityLabel"/><rect height="22.091797828674316" width="100.21875" y="90.18359470367432" x="0" class="er attributeBoxEven"/><text style="dominant-baseline: middle; font-size: 10.2px;" transform="translate(5,101.22949361801147)" y="0" x="0" id="text-entity-STOPPINGDEFINITION-ef847183-d4a0-562d-bcfe-2f181f657e14-attr-4-type" class="er entityLabel">next-possibleQMark</text><rect height="22.091797828674316" width="48.453125" y="90.18359470367432" x="100.21875" class="er attributeBoxEven"/><text style="dominant-baseline: middle; font-size: 10.2px;" transform="translate(105.21875,101.22949361801147)" y="0" x="0" id="text-entity-STOPPINGDEFINITION-ef847183-d4a0-562d-bcfe-2f181f657e14-attr-4-name" class="er entityLabel">boolean</text><rect height="22.091797828674316" width="21.5625" y="90.18359470367432" x="148.671875" class="er attributeBoxEven"/><text style="dominant-baseline: middle; font-size: 10.2px;" transform="translate(153.671875,101.22949361801147)" y="0" x="0" id="text-entity-STOPPINGDEFINITION-ef847183-d4a0-562d-bcfe-2f181f657e14-attr-4-key" class="er entityLabel"/></g><g transform="translate(455.375,421.7294921875 )" id="entity-SNAPSHOT-a95779a5-29f3-5497-96dd-faf8c917163c"><rect height="46.091797828674316" width="100" y="0" x="0" class="er entityBox"/><text style="dominant-baseline: middle; text-anchor: middle; font-size: 12px;" transform="translate(50,12)" y="0" x="0" id="text-entity-SNAPSHOT-a95779a5-29f3-5497-96dd-faf8c917163c" class="er entityLabel">SNAPSHOT</text><rect height="22.091797828674316" width="69.328125" y="24" x="0" class="er attributeBoxOdd"/><text style="dominant-baseline: middle; font-size: 10.2px;" transform="translate(5,35.04589891433716)" y="0" x="0" id="text-entity-SNAPSHOT-a95779a5-29f3-5497-96dd-faf8c917163c-attr-1-type" class="er entityLabel">value-object</text><rect height="22.091797828674316" width="30.671875" y="24" x="69.328125" class="er attributeBoxOdd"/><text style="dominant-baseline: middle; font-size: 10.2px;" transform="translate(74.328125,35.04589891433716)" y="0" x="0" id="text-entity-SNAPSHOT-a95779a5-29f3-5497-96dd-faf8c917163c-attr-1-name" class="er entityLabel">true</text></g><g transform="translate(576.0546875,20 )" id="entity-INDUSTRIALMODEL-118df0a7-f966-574e-a1ab-16cb3408619e"><rect height="75" width="133.234375" y="0" x="0" class="er entityBox"/><text style="dominant-baseline: middle; text-anchor: middle; font-size: 12px;" transform="translate(66.6171875,37.5)" y="0" x="0" id="text-entity-INDUSTRIALMODEL-118df0a7-f966-574e-a1ab-16cb3408619e" class="er entityLabel">INDUSTRIAL-MODEL</text></g><g transform="translate(20,407.275390625 )" id="entity-SCHEDULER-4878ebb1-831e-570f-ae80-426a16f06d54"><rect height="75" width="100" y="0" x="0" class="er entityBox"/><text style="dominant-baseline: middle; text-anchor: middle; font-size: 12px;" transform="translate(50,37.5)" y="0" x="0" id="text-entity-SCHEDULER-4878ebb1-831e-570f-ae80-426a16f06d54" class="er entityLabel">SCHEDULER</text></g><g transform="translate(220,407.275390625 )" id="entity-STOPPINGCRITERIA-b86b76a4-a2ba-5c6f-ad52-b619707f6779"><rect height="75" width="135.375" y="0" x="0" class="er entityBox"/><text style="dominant-baseline: middle; text-anchor: middle; font-size: 12px;" transform="translate(67.6875,37.5)" y="0" x="0" id="text-entity-STOPPINGCRITERIA-b86b76a4-a2ba-5c6f-ad52-b619707f6779" class="er entityLabel">STOPPING-CRITERIA</text></g><g transform="translate(655.375,407.275390625 )" id="entity-STOPPINGREGISTRY-e4066314-f823-5687-b423-a2eaa9a8aa0f"><rect height="75" width="137.734375" y="0" x="0" class="er entityBox"/><text style="dominant-baseline: middle; text-anchor: middle; font-size: 12px;" transform="translate(68.8671875,37.5)" y="0" x="0" id="text-entity-STOPPINGREGISTRY-e4066314-f823-5687-b423-a2eaa9a8aa0f" class="er entityLabel">STOPPING-REGISTRY</text></g><rect height="14" width="22.828125" y="160.5106964111328" x="200.93768310546875" class="er relationshipLabelBox"/><text style="text-anchor: middle; dominant-baseline: middle; font-size: 12px;" y="167.5106964111328" x="212.35174560546875" id="rel1" class="er relationshipLabel">uses</text><rect height="14" width="22.828125" y="130.75" x="389.81292724609375" class="er relationshipLabelBox"/><text style="text-anchor: middle; dominant-baseline: middle; font-size: 12px;" y="137.75" x="401.22698974609375" id="rel2" class="er relationshipLabel">uses</text><rect height="0" width="0" y="169.94737243652344" x="580.9219360351562" class="er relationshipLabelBox"/><text style="text-anchor: middle; dominant-baseline: middle; font-size: 12px;" y="169.94737243652344" x="580.9219360351562" id="rel3" class="er relationshipLabel"/><rect height="14" width="65.78125" y="317.466064453125" x="144.6842041015625" class="er relationshipLabelBox"/><text style="text-anchor: middle; dominant-baseline: middle; font-size: 12px;" y="324.466064453125" x="177.5748291015625" id="rel4" class="er relationshipLabel">uses built-in</text><rect height="14" width="65.109375" y="343.4853210449219" x="268.1416320800781" class="er relationshipLabelBox"/><text style="text-anchor: middle; dominant-baseline: middle; font-size: 12px;" y="350.4853210449219" x="300.6963195800781" id="rel5" class="er relationshipLabel">is contained</text><rect height="14" width="43.625" y="350.93951416015625" x="474.6120910644531" class="er relationshipLabelBox"/><text style="text-anchor: middle; dominant-baseline: middle; font-size: 12px;" y="357.93951416015625" x="496.4245910644531" id="rel6" class="er relationshipLabel">inspects</text><rect height="14" width="66.609375" y="318.0002746582031" x="587.5647583007812" class="er relationshipLabelBox"/><text style="text-anchor: middle; dominant-baseline: middle; font-size: 12px;" y="325.0002746582031" x="620.8694458007812" id="rel7" class="er relationshipLabel">is registered</text></svg>