<svg aria-roledescription="er" role="graphics-document document" viewBox="0 0 719.4902954101562 298.3671875" style="max-width: 719.49px; background-color: white;" xmlns:xlink="http://www.w3.org/1999/xlink" xmlns="http://www.w3.org/2000/svg" width="100%" id="my-svg"><style>#my-svg{font-family:"trebuchet ms",verdana,arial,sans-serif;font-size:16px;fill:#333;}#my-svg .error-icon{fill:#552222;}#my-svg .error-text{fill:#552222;stroke:#552222;}#my-svg .edge-thickness-normal{stroke-width:1px;}#my-svg .edge-thickness-thick{stroke-width:3.5px;}#my-svg .edge-pattern-solid{stroke-dasharray:0;}#my-svg .edge-thickness-invisible{stroke-width:0;fill:none;}#my-svg .edge-pattern-dashed{stroke-dasharray:3;}#my-svg .edge-pattern-dotted{stroke-dasharray:2;}#my-svg .marker{fill:#333333;stroke:#333333;}#my-svg .marker.cross{stroke:#333333;}#my-svg svg{font-family:"trebuchet ms",verdana,arial,sans-serif;font-size:16px;}#my-svg p{margin:0;}#my-svg .entityBox{fill:#ECECFF;stroke:#9370DB;}#my-svg .attributeBoxOdd{fill:#ffffff;stroke:#9370DB;}#my-svg .attributeBoxEven{fill:#f2f2f2;stroke:#9370DB;}#my-svg .relationshipLabelBox{fill:hsl(80, 100%, 96.2745098039%);opacity:0.7;background-color:hsl(80, 100%, 96.2745098039%);}#my-svg .relationshipLabelBox rect{opacity:0.5;}#my-svg .relationshipLine{stroke:#333333;}#my-svg .entityTitleText{text-anchor:middle;font-size:18px;fill:#333;}#my-svg #MD_PARENT_START{fill:#f5f5f5!important;stroke:#333333!important;stroke-width:1;}#my-svg #MD_PARENT_END{fill:#f5f5f5!important;stroke:#333333!important;stroke-width:1;}#my-svg :root{--mermaid-font-family:"trebuchet ms",verdana,arial,sans-serif;}</style><g/><defs><marker orient="auto" markerHeight="240" markerWidth="190" refY="7" refX="0" id="MD_PARENT_START"><path d="M 18,7 L9,13 L1,7 L9,1 Z"/></marker></defs><defs><marker orient="auto" markerHeight="28" markerWidth="20" refY="7" refX="19" id="MD_PARENT_END"><path d="M 18,7 L9,13 L1,7 L9,1 Z"/></marker></defs><defs><marker orient="auto" markerHeight="18" markerWidth="18" refY="9" refX="0" id="ONLY_ONE_START"><path d="M9,0 L9,18 M15,0 L15,18" fill="none" stroke="gray"/></marker></defs><defs><marker orient="auto" markerHeight="18" markerWidth="18" refY="9" refX="18" id="ONLY_ONE_END"><path d="M3,0 L3,18 M9,0 L9,18" fill="none" stroke="gray"/></marker></defs><defs><marker orient="auto" markerHeight="18" markerWidth="30" refY="9" refX="0" id="ZERO_OR_ONE_START"><circle r="6" cy="9" cx="21" fill="white" stroke="gray"/><path d="M9,0 L9,18" fill="none" stroke="gray"/></marker></defs><defs><marker orient="auto" markerHeight="18" markerWidth="30" refY="9" refX="30" id="ZERO_OR_ONE_END"><circle r="6" cy="9" cx="9" fill="white" stroke="gray"/><path d="M21,0 L21,18" fill="none" stroke="gray"/></marker></defs><defs><marker orient="auto" markerHeight="36" markerWidth="45" refY="18" refX="18" id="ONE_OR_MORE_START"><path d="M0,18 Q 18,0 36,18 Q 18,36 0,18 M42,9 L42,27" fill="none" stroke="gray"/></marker></defs><defs><marker orient="auto" markerHeight="36" markerWidth="45" refY="18" refX="27" id="ONE_OR_MORE_END"><path d="M3,9 L3,27 M9,18 Q27,0 45,18 Q27,36 9,18" fill="none" stroke="gray"/></marker></defs><defs><marker orient="auto" markerHeight="36" markerWidth="57" refY="18" refX="18" id="ZERO_OR_MORE_START"><circle r="6" cy="18" cx="48" fill="white" stroke="gray"/><path d="M0,18 Q18,0 36,18 Q18,36 0,18" fill="none" stroke="gray"/></marker></defs><defs><marker orient="auto" markerHeight="36" markerWidth="57" refY="18" refX="39" id="ZERO_OR_MORE_END"><circle r="6" cy="18" cx="9" fill="white" stroke="gray"/><path d="M21,18 Q39,0 57,18 Q39,36 21,18" fill="none" stroke="gray"/></marker></defs><path style="stroke: gray; fill: none;" marker-start="url(#ONE_OR_MORE_START)" marker-end="url(#ONLY_ONE_END)" stroke-dasharray="8,8" d="M105.883,110.184L105.883,122.214C105.883,134.245,105.883,158.306,105.883,178.67C105.883,199.034,105.883,215.701,105.883,224.034L105.883,232.367" class="er relationshipLine"/><g transform="translate(36.078125,232.3671875 )" id="entity-VACATAIRE-16e439da-17a0-5c70-8dd2-c9dd4ea92e8f"><rect height="46" width="139.609375" y="0" x="0" class="er entityBox"/><text style="dominant-baseline: middle; text-anchor: middle; font-size: 12px;" transform="translate(69.8046875,12)" y="0" x="0" id="text-entity-VACATAIRE-16e439da-17a0-5c70-8dd2-c9dd4ea92e8f" class="er entityLabel">VACATAIRE</text><rect height="22" width="32.890625" y="24" x="0" class="er attributeBoxOdd"/><text style="dominant-baseline: middle; font-size: 10.2px;" transform="translate(5,35)" y="0" x="0" id="text-entity-VACATAIRE-16e439da-17a0-5c70-8dd2-c9dd4ea92e8f-attr-1-type" class="er entityLabel">TYPE</text><rect height="22" width="85.15625" y="24" x="32.890625" class="er attributeBoxOdd"/><text style="dominant-baseline: middle; font-size: 10.2px;" transform="translate(37.890625,35)" y="0" x="0" id="text-entity-VACATAIRE-16e439da-17a0-5c70-8dd2-c9dd4ea92e8f-attr-1-name" class="er entityLabel">statut_vacataire</text><rect height="22" width="21.5625" y="24" x="118.046875" class="er attributeBoxOdd"/><text style="dominant-baseline: middle; font-size: 10.2px;" transform="translate(123.046875,35)" y="0" x="0" id="text-entity-VACATAIRE-16e439da-17a0-5c70-8dd2-c9dd4ea92e8f-attr-1-key" class="er entityLabel">PK</text></g><g transform="translate(20,42.18359375 )" id="entity-CONTRAT-22125f33-152f-5b66-b75c-f4c8aef38916"><rect height="68" width="171.765625" y="0" x="0" class="er entityBox"/><text style="dominant-baseline: middle; text-anchor: middle; font-size: 12px;" transform="translate(85.8828125,12)" y="0" x="0" id="text-entity-CONTRAT-22125f33-152f-5b66-b75c-f4c8aef38916" class="er entityLabel">CONTRAT</text><rect height="22" width="32.890625" y="24" x="0" class="er attributeBoxOdd"/><text style="dominant-baseline: middle; font-size: 10.2px;" transform="translate(5,35)" y="0" x="0" id="text-entity-CONTRAT-22125f33-152f-5b66-b75c-f4c8aef38916-attr-1-type" class="er entityLabel">TYPE</text><rect height="22" width="117.3125" y="24" x="32.890625" class="er attributeBoxOdd"/><text style="dominant-baseline: middle; font-size: 10.2px;" transform="translate(37.890625,35)" y="0" x="0" id="text-entity-CONTRAT-22125f33-152f-5b66-b75c-f4c8aef38916-attr-1-name" class="er entityLabel">date_contrat</text><rect height="22" width="21.5625" y="24" x="150.203125" class="er attributeBoxOdd"/><text style="dominant-baseline: middle; font-size: 10.2px;" transform="translate(155.203125,35)" y="0" x="0" id="text-entity-CONTRAT-22125f33-152f-5b66-b75c-f4c8aef38916-attr-1-key" class="er entityLabel">PK</text><rect height="22" width="32.890625" y="46" x="0" class="er attributeBoxEven"/><text style="dominant-baseline: middle; font-size: 10.2px;" transform="translate(5,57)" y="0" x="0" id="text-entity-CONTRAT-22125f33-152f-5b66-b75c-f4c8aef38916-attr-2-type" class="er entityLabel">TYPE</text><rect height="22" width="117.3125" y="46" x="32.890625" class="er attributeBoxEven"/><text style="dominant-baseline: middle; font-size: 10.2px;" transform="translate(37.890625,57)" y="0" x="0" id="text-entity-CONTRAT-22125f33-152f-5b66-b75c-f4c8aef38916-attr-2-name" class="er entityLabel">salaire_horaire_contrat</text><rect height="22" width="21.5625" y="46" x="150.203125" class="er attributeBoxEven"/><text style="dominant-baseline: middle; font-size: 10.2px;" transform="translate(155.203125,57)" y="0" x="0" id="text-entity-CONTRAT-22125f33-152f-5b66-b75c-f4c8aef38916-attr-2-key" class="er entityLabel"/></g><g transform="translate(291.765625,31.18359375 )" id="entity-SALARIE-27952a70-9c5b-5df1-9ea8-da7c9d6408b7"><rect height="90" width="172.9375" y="0" x="0" class="er entityBox"/><text style="dominant-baseline: middle; text-anchor: middle; font-size: 12px;" transform="translate(86.46875,12)" y="0" x="0" id="text-entity-SALARIE-27952a70-9c5b-5df1-9ea8-da7c9d6408b7" class="er entityLabel">SALARIE</text><rect height="22" width="32.890625" y="24" x="0" class="er attributeBoxOdd"/><text style="dominant-baseline: middle; font-size: 10.2px;" transform="translate(5,35)" y="0" x="0" id="text-entity-SALARIE-27952a70-9c5b-5df1-9ea8-da7c9d6408b7-attr-1-type" class="er entityLabel">TYPE</text><rect height="22" width="118.484375" y="24" x="32.890625" class="er attributeBoxOdd"/><text style="dominant-baseline: middle; font-size: 10.2px;" transform="translate(37.890625,35)" y="0" x="0" id="text-entity-SALARIE-27952a70-9c5b-5df1-9ea8-da7c9d6408b7-attr-1-name" class="er entityLabel">date_embauche_salarie</text><rect height="22" width="21.5625" y="24" x="151.375" class="er attributeBoxOdd"/><text style="dominant-baseline: middle; font-size: 10.2px;" transform="translate(156.375,35)" y="0" x="0" id="text-entity-SALARIE-27952a70-9c5b-5df1-9ea8-da7c9d6408b7-attr-1-key" class="er entityLabel">PK</text><rect height="22" width="32.890625" y="46" x="0" class="er attributeBoxEven"/><text style="dominant-baseline: middle; font-size: 10.2px;" transform="translate(5,57)" y="0" x="0" id="text-entity-SALARIE-27952a70-9c5b-5df1-9ea8-da7c9d6408b7-attr-2-type" class="er entityLabel">TYPE</text><rect height="22" width="118.484375" y="46" x="32.890625" class="er attributeBoxEven"/><text style="dominant-baseline: middle; font-size: 10.2px;" transform="translate(37.890625,57)" y="0" x="0" id="text-entity-SALARIE-27952a70-9c5b-5df1-9ea8-da7c9d6408b7-attr-2-name" class="er entityLabel">echelon_salarie</text><rect height="22" width="21.5625" y="46" x="151.375" class="er attributeBoxEven"/><text style="dominant-baseline: middle; font-size: 10.2px;" transform="translate(156.375,57)" y="0" x="0" id="text-entity-SALARIE-27952a70-9c5b-5df1-9ea8-da7c9d6408b7-attr-2-key" class="er entityLabel"/><rect height="22" width="32.890625" y="68" x="0" class="er attributeBoxOdd"/><text style="dominant-baseline: middle; font-size: 10.2px;" transform="translate(5,79)" y="0" x="0" id="text-entity-SALARIE-27952a70-9c5b-5df1-9ea8-da7c9d6408b7-attr-3-type" class="er entityLabel">TYPE</text><rect height="22" width="118.484375" y="68" x="32.890625" class="er attributeBoxOdd"/><text style="dominant-baseline: middle; font-size: 10.2px;" transform="translate(37.890625,79)" y="0" x="0" id="text-entity-SALARIE-27952a70-9c5b-5df1-9ea8-da7c9d6408b7-attr-3-name" class="er entityLabel">salaire_salarie</text><rect height="22" width="21.5625" y="68" x="151.375" class="er attributeBoxOdd"/><text style="dominant-baseline: middle; font-size: 10.2px;" transform="translate(156.375,79)" y="0" x="0" id="text-entity-SALARIE-27952a70-9c5b-5df1-9ea8-da7c9d6408b7-attr-3-key" class="er entityLabel"/></g><g transform="translate(564.703125,20 )" id="entity-PROFESSEUR-c0e57c3d-9697-5774-bf7c-b869f267d1a6"><rect height="112.3671875" width="134.7871856689453" y="0" x="0" class="er entityBox"/><text style="dominant-baseline: middle; text-anchor: middle; font-size: 12px;" transform="translate(67.39359283447266,12)" y="0" x="0" id="text-entity-PROFESSEUR-c0e57c3d-9697-5774-bf7c-b869f267d1a6" class="er entityLabel">PROFESSEUR</text><rect height="22.091796875" width="32.890625" y="24" x="0" class="er attributeBoxOdd"/><text style="dominant-baseline: middle; font-size: 10.2px;" transform="translate(5,35.0458984375)" y="0" x="0" id="text-entity-PROFESSEUR-c0e57c3d-9697-5774-bf7c-b869f267d1a6-attr-1-type" class="er entityLabel">TYPE</text><rect height="22.091796875" width="80.33406066894531" y="24" x="32.890625" class="er attributeBoxOdd"/><text style="dominant-baseline: middle; font-size: 10.2px;" transform="translate(37.890625,35.0458984375)" y="0" x="0" id="text-entity-PROFESSEUR-c0e57c3d-9697-5774-bf7c-b869f267d1a6-attr-1-name" class="er entityLabel">num_prof</text><rect height="22.091796875" width="21.5625" y="24" x="113.22468566894531" class="er attributeBoxOdd"/><text style="dominant-baseline: middle; font-size: 10.2px;" transform="translate(118.22468566894531,35.0458984375)" y="0" x="0" id="text-entity-PROFESSEUR-c0e57c3d-9697-5774-bf7c-b869f267d1a6-attr-1-key" class="er entityLabel">PK</text><rect height="22.091796875" width="32.890625" y="46.091796875" x="0" class="er attributeBoxEven"/><text style="dominant-baseline: middle; font-size: 10.2px;" transform="translate(5,57.1376953125)" y="0" x="0" id="text-entity-PROFESSEUR-c0e57c3d-9697-5774-bf7c-b869f267d1a6-attr-2-type" class="er entityLabel">TYPE</text><rect height="22.091796875" width="80.33406066894531" y="46.091796875" x="32.890625" class="er attributeBoxEven"/><text style="dominant-baseline: middle; font-size: 10.2px;" transform="translate(37.890625,57.1376953125)" y="0" x="0" id="text-entity-PROFESSEUR-c0e57c3d-9697-5774-bf7c-b869f267d1a6-attr-2-name" class="er entityLabel">nom_prof</text><rect height="22.091796875" width="21.5625" y="46.091796875" x="113.22468566894531" class="er attributeBoxEven"/><text style="dominant-baseline: middle; font-size: 10.2px;" transform="translate(118.22468566894531,57.1376953125)" y="0" x="0" id="text-entity-PROFESSEUR-c0e57c3d-9697-5774-bf7c-b869f267d1a6-attr-2-key" class="er entityLabel"/><rect height="22.091796875" width="32.890625" y="68.18359375" x="0" class="er attributeBoxOdd"/><text style="dominant-baseline: middle; font-size: 10.2px;" transform="translate(5,79.2294921875)" y="0" x="0" id="text-entity-PROFESSEUR-c0e57c3d-9697-5774-bf7c-b869f267d1a6-attr-3-type" class="er entityLabel">TYPE</text><rect height="22.091796875" width="80.33406066894531" y="68.18359375" x="32.890625" class="er attributeBoxOdd"/><text style="dominant-baseline: middle; font-size: 10.2px;" transform="translate(37.890625,79.2294921875)" y="0" x="0" id="text-entity-PROFESSEUR-c0e57c3d-9697-5774-bf7c-b869f267d1a6-attr-3-name" class="er entityLabel">prenom_prof</text><rect height="22.091796875" width="21.5625" y="68.18359375" x="113.22468566894531" class="er attributeBoxOdd"/><text style="dominant-baseline: middle; font-size: 10.2px;" transform="translate(118.22468566894531,79.2294921875)" y="0" x="0" id="text-entity-PROFESSEUR-c0e57c3d-9697-5774-bf7c-b869f267d1a6-attr-3-key" class="er entityLabel"/><rect height="22.091796875" width="32.890625" y="90.275390625" x="0" class="er attributeBoxEven"/><text style="dominant-baseline: middle; font-size: 10.2px;" transform="translate(5,101.3212890625)" y="0" x="0" id="text-entity-PROFESSEUR-c0e57c3d-9697-5774-bf7c-b869f267d1a6-attr-4-type" class="er entityLabel">TYPE</text><rect height="22.091796875" width="80.33406066894531" y="90.275390625" x="32.890625" class="er attributeBoxEven"/><text style="dominant-baseline: middle; font-size: 10.2px;" transform="translate(37.890625,101.3212890625)" y="0" x="0" id="text-entity-PROFESSEUR-c0e57c3d-9697-5774-bf7c-b869f267d1a6-attr-4-name" class="er entityLabel">telephone_prof</text><rect height="22.091796875" width="21.5625" y="90.275390625" x="113.22468566894531" class="er attributeBoxEven"/><text style="dominant-baseline: middle; font-size: 10.2px;" transform="translate(118.22468566894531,101.3212890625)" y="0" x="0" id="text-entity-PROFESSEUR-c0e57c3d-9697-5774-bf7c-b869f267d1a6-attr-4-key" class="er entityLabel"/></g><rect height="14" width="13.671875" y="164.27549743652344" x="99.04706573486328" class="er relationshipLabelBox"/><text style="text-anchor: middle; dominant-baseline: middle; font-size: 12px;" y="171.27549743652344" x="105.88300323486328" id="rel1" class="er relationshipLabel">DF</text></svg>