<svg aria-roledescription="er" role="graphics-document document" viewBox="0 0 180.046875 576.658203125" style="max-width: 180.047px; background-color: white;" xmlns:xlink="http://www.w3.org/1999/xlink" xmlns="http://www.w3.org/2000/svg" width="100%" id="my-svg"><style>#my-svg{font-family:"trebuchet ms",verdana,arial,sans-serif;font-size:16px;fill:#333;}#my-svg .error-icon{fill:#552222;}#my-svg .error-text{fill:#552222;stroke:#552222;}#my-svg .edge-thickness-normal{stroke-width:1px;}#my-svg .edge-thickness-thick{stroke-width:3.5px;}#my-svg .edge-pattern-solid{stroke-dasharray:0;}#my-svg .edge-thickness-invisible{stroke-width:0;fill:none;}#my-svg .edge-pattern-dashed{stroke-dasharray:3;}#my-svg .edge-pattern-dotted{stroke-dasharray:2;}#my-svg .marker{fill:#333333;stroke:#333333;}#my-svg .marker.cross{stroke:#333333;}#my-svg svg{font-family:"trebuchet ms",verdana,arial,sans-serif;font-size:16px;}#my-svg p{margin:0;}#my-svg .entityBox{fill:#ECECFF;stroke:#9370DB;}#my-svg .attributeBoxOdd{fill:#ffffff;stroke:#9370DB;}#my-svg .attributeBoxEven{fill:#f2f2f2;stroke:#9370DB;}#my-svg .relationshipLabelBox{fill:hsl(80, 100%, 96.2745098039%);opacity:0.7;background-color:hsl(80, 100%, 96.2745098039%);}#my-svg .relationshipLabelBox rect{opacity:0.5;}#my-svg .relationshipLine{stroke:#333333;}#my-svg .entityTitleText{text-anchor:middle;font-size:18px;fill:#333;}#my-svg #MD_PARENT_START{fill:#f5f5f5!important;stroke:#333333!important;stroke-width:1;}#my-svg #MD_PARENT_END{fill:#f5f5f5!important;stroke:#333333!important;stroke-width:1;}#my-svg :root{--mermaid-font-family:"trebuchet ms",verdana,arial,sans-serif;}</style><g/><defs><marker orient="auto" markerHeight="240" markerWidth="190" refY="7" refX="0" id="MD_PARENT_START"><path d="M 18,7 L9,13 L1,7 L9,1 Z"/></marker></defs><defs><marker orient="auto" markerHeight="28" markerWidth="20" refY="7" refX="19" id="MD_PARENT_END"><path d="M 18,7 L9,13 L1,7 L9,1 Z"/></marker></defs><defs><marker orient="auto" markerHeight="18" markerWidth="18" refY="9" refX="0" id="ONLY_ONE_START"><path d="M9,0 L9,18 M15,0 L15,18" fill="none" stroke="gray"/></marker></defs><defs><marker orient="auto" markerHeight="18" markerWidth="18" refY="9" refX="18" id="ONLY_ONE_END"><path d="M3,0 L3,18 M9,0 L9,18" fill="none" stroke="gray"/></marker></defs><defs><marker orient="auto" markerHeight="18" markerWidth="30" refY="9" refX="0" id="ZERO_OR_ONE_START"><circle r="6" cy="9" cx="21" fill="white" stroke="gray"/><path d="M9,0 L9,18" fill="none" stroke="gray"/></marker></defs><defs><marker orient="auto" markerHeight="18" markerWidth="30" refY="9" refX="30" id="ZERO_OR_ONE_END"><circle r="6" cy="9" cx="9" fill="white" stroke="gray"/><path d="M21,0 L21,18" fill="none" stroke="gray"/></marker></defs><defs><marker orient="auto" markerHeight="36" markerWidth="45" refY="18" refX="18" id="ONE_OR_MORE_START"><path d="M0,18 Q 18,0 36,18 Q 18,36 0,18 M42,9 L42,27" fill="none" stroke="gray"/></marker></defs><defs><marker orient="auto" markerHeight="36" markerWidth="45" refY="18" refX="27" id="ONE_OR_MORE_END"><path d="M3,9 L3,27 M9,18 Q27,0 45,18 Q27,36 9,18" fill="none" stroke="gray"/></marker></defs><defs><marker orient="auto" markerHeight="36" markerWidth="57" refY="18" refX="18" id="ZERO_OR_MORE_START"><circle r="6" cy="18" cx="48" fill="white" stroke="gray"/><path d="M0,18 Q18,0 36,18 Q18,36 0,18" fill="none" stroke="gray"/></marker></defs><defs><marker orient="auto" markerHeight="36" markerWidth="57" refY="18" refX="39" id="ZERO_OR_MORE_END"><circle r="6" cy="18" cx="9" fill="white" stroke="gray"/><path d="M21,18 Q39,0 57,18 Q39,36 21,18" fill="none" stroke="gray"/></marker></defs><path style="stroke: gray; fill: none;" marker-start="url(#ONLY_ONE_START)" marker-end="url(#ONE_OR_MORE_END)" d="M90.023,176.658L90.023,184.992C90.023,193.325,90.023,209.992,90.023,226.658C90.023,243.325,90.023,259.992,90.023,268.325L90.023,276.658" class="er relationshipLine"/><path style="stroke: gray; fill: none;" marker-start="url(#ONLY_ONE_START)" marker-end="url(#ONE_OR_MORE_END)" d="M90.023,366.658L90.023,374.992C90.023,383.325,90.023,399.992,90.023,416.658C90.023,433.325,90.023,449.992,90.023,458.325L90.023,466.658" class="er relationshipLine"/><g transform="translate(20,20 )" id="entity-Student-8f7f7a56-d9f8-57b5-bb12-4f40575e65f5"><rect height="156.65821170806885" width="140.046875" y="0" x="0" class="er entityBox"/><text style="dominant-baseline: middle; text-anchor: middle; font-size: 12px;" transform="translate(70.0234375,12)" y="0" x="0" id="text-entity-Student-8f7f7a56-d9f8-57b5-bb12-4f40575e65f5" class="er entityLabel">Student</text><rect height="22" width="62.171875" y="24" x="0" class="er attributeBoxOdd"/><text style="dominant-baseline: middle; font-size: 10.2px;" transform="translate(5,35)" y="0" x="0" id="text-entity-Student-8f7f7a56-d9f8-57b5-bb12-4f40575e65f5-attr-1-type" class="er entityLabel">int</text><rect height="22" width="56.3125" y="24" x="62.171875" class="er attributeBoxOdd"/><text style="dominant-baseline: middle; font-size: 10.2px;" transform="translate(67.171875,35)" y="0" x="0" id="text-entity-Student-8f7f7a56-d9f8-57b5-bb12-4f40575e65f5-attr-1-name" class="er entityLabel">Id</text><rect height="22" width="21.5625" y="24" x="118.484375" class="er attributeBoxOdd"/><text style="dominant-baseline: middle; font-size: 10.2px;" transform="translate(123.484375,35)" y="0" x="0" id="text-entity-Student-8f7f7a56-d9f8-57b5-bb12-4f40575e65f5-attr-1-key" class="er entityLabel">PK</text><rect height="22.13164234161377" width="62.171875" y="46" x="0" class="er attributeBoxEven"/><text style="dominant-baseline: middle; font-size: 10.2px;" transform="translate(5,57.065821170806885)" y="0" x="0" id="text-entity-Student-8f7f7a56-d9f8-57b5-bb12-4f40575e65f5-attr-2-type" class="er entityLabel">string(100)</text><rect height="22.13164234161377" width="56.3125" y="46" x="62.171875" class="er attributeBoxEven"/><text style="dominant-baseline: middle; font-size: 10.2px;" transform="translate(67.171875,57.065821170806885)" y="0" x="0" id="text-entity-Student-8f7f7a56-d9f8-57b5-bb12-4f40575e65f5-attr-2-name" class="er entityLabel">FirstName</text><rect height="22.13164234161377" width="21.5625" y="46" x="118.484375" class="er attributeBoxEven"/><text style="dominant-baseline: middle; font-size: 10.2px;" transform="translate(123.484375,57.065821170806885)" y="0" x="0" id="text-entity-Student-8f7f7a56-d9f8-57b5-bb12-4f40575e65f5-attr-2-key" class="er entityLabel"/><rect height="22.13164234161377" width="62.171875" y="68.13164234161377" x="0" class="er attributeBoxOdd"/><text style="dominant-baseline: middle; font-size: 10.2px;" transform="translate(5,79.19746351242065)" y="0" x="0" id="text-entity-Student-8f7f7a56-d9f8-57b5-bb12-4f40575e65f5-attr-3-type" class="er entityLabel">string(100)</text><rect height="22.13164234161377" width="56.3125" y="68.13164234161377" x="62.171875" class="er attributeBoxOdd"/><text style="dominant-baseline: middle; font-size: 10.2px;" transform="translate(67.171875,79.19746351242065)" y="0" x="0" id="text-entity-Student-8f7f7a56-d9f8-57b5-bb12-4f40575e65f5-attr-3-name" class="er entityLabel">LastName</text><rect height="22.13164234161377" width="21.5625" y="68.13164234161377" x="118.484375" class="er attributeBoxOdd"/><text style="dominant-baseline: middle; font-size: 10.2px;" transform="translate(123.484375,79.19746351242065)" y="0" x="0" id="text-entity-Student-8f7f7a56-d9f8-57b5-bb12-4f40575e65f5-attr-3-key" class="er entityLabel"/><rect height="22.13164234161377" width="62.171875" y="90.26328468322754" x="0" class="er attributeBoxEven"/><text style="dominant-baseline: middle; font-size: 10.2px;" transform="translate(5,101.32910585403442)" y="0" x="0" id="text-entity-Student-8f7f7a56-d9f8-57b5-bb12-4f40575e65f5-attr-4-type" class="er entityLabel">string(200)</text><rect height="22.13164234161377" width="56.3125" y="90.26328468322754" x="62.171875" class="er attributeBoxEven"/><text style="dominant-baseline: middle; font-size: 10.2px;" transform="translate(67.171875,101.32910585403442)" y="0" x="0" id="text-entity-Student-8f7f7a56-d9f8-57b5-bb12-4f40575e65f5-attr-4-name" class="er entityLabel">Email</text><rect height="22.13164234161377" width="21.5625" y="90.26328468322754" x="118.484375" class="er attributeBoxEven"/><text style="dominant-baseline: middle; font-size: 10.2px;" transform="translate(123.484375,101.32910585403442)" y="0" x="0" id="text-entity-Student-8f7f7a56-d9f8-57b5-bb12-4f40575e65f5-attr-4-key" class="er entityLabel"/><rect height="22.13164234161377" width="62.171875" y="112.39492702484131" x="0" class="er attributeBoxOdd"/><text style="dominant-baseline: middle; font-size: 10.2px;" transform="translate(5,123.4607481956482)" y="0" x="0" id="text-entity-Student-8f7f7a56-d9f8-57b5-bb12-4f40575e65f5-attr-5-type" class="er entityLabel">string(200)</text><rect height="22.13164234161377" width="56.3125" y="112.39492702484131" x="62.171875" class="er attributeBoxOdd"/><text style="dominant-baseline: middle; font-size: 10.2px;" transform="translate(67.171875,123.4607481956482)" y="0" x="0" id="text-entity-Student-8f7f7a56-d9f8-57b5-bb12-4f40575e65f5-attr-5-name" class="er entityLabel">Phone</text><rect height="22.13164234161377" width="21.5625" y="112.39492702484131" x="118.484375" class="er attributeBoxOdd"/><text style="dominant-baseline: middle; font-size: 10.2px;" transform="translate(123.484375,123.4607481956482)" y="0" x="0" id="text-entity-Student-8f7f7a56-d9f8-57b5-bb12-4f40575e65f5-attr-5-key" class="er entityLabel"/><rect height="22.13164234161377" width="62.171875" y="134.52656936645508" x="0" class="er attributeBoxEven"/><text style="dominant-baseline: middle; font-size: 10.2px;" transform="translate(5,145.59239053726196)" y="0" x="0" id="text-entity-Student-8f7f7a56-d9f8-57b5-bb12-4f40575e65f5-attr-6-type" class="er entityLabel">string(MAX)</text><rect height="22.13164234161377" width="56.3125" y="134.52656936645508" x="62.171875" class="er attributeBoxEven"/><text style="dominant-baseline: middle; font-size: 10.2px;" transform="translate(67.171875,145.59239053726196)" y="0" x="0" id="text-entity-Student-8f7f7a56-d9f8-57b5-bb12-4f40575e65f5-attr-6-name" class="er entityLabel">Address</text><rect height="22.13164234161377" width="21.5625" y="134.52656936645508" x="118.484375" class="er attributeBoxEven"/><text style="dominant-baseline: middle; font-size: 10.2px;" transform="translate(123.484375,145.59239053726196)" y="0" x="0" id="text-entity-Student-8f7f7a56-d9f8-57b5-bb12-4f40575e65f5-attr-6-key" class="er entityLabel"/></g><g transform="translate(36.0859375,276.65821838378906 )" id="entity-StudentCourse-aa3514a2-02c3-5141-bec6-6f814e8ea79c"><rect height="90" width="107.875" y="0" x="0" class="er entityBox"/><text style="dominant-baseline: middle; text-anchor: middle; font-size: 12px;" transform="translate(53.9375,12)" y="0" x="0" id="text-entity-StudentCourse-aa3514a2-02c3-5141-bec6-6f814e8ea79c" class="er entityLabel">StudentCourse</text><rect height="22" width="25.817708333333332" y="24" x="0" class="er attributeBoxOdd"/><text style="dominant-baseline: middle; font-size: 10.2px;" transform="translate(5,35)" y="0" x="0" id="text-entity-StudentCourse-aa3514a2-02c3-5141-bec6-6f814e8ea79c-attr-1-type" class="er entityLabel">int</text><rect height="22" width="57.208333333333336" y="24" x="25.817708333333332" class="er attributeBoxOdd"/><text style="dominant-baseline: middle; font-size: 10.2px;" transform="translate(30.817708333333332,35)" y="0" x="0" id="text-entity-StudentCourse-aa3514a2-02c3-5141-bec6-6f814e8ea79c-attr-1-name" class="er entityLabel">Id</text><rect height="22" width="24.848958333333332" y="24" x="83.02604166666667" class="er attributeBoxOdd"/><text style="dominant-baseline: middle; font-size: 10.2px;" transform="translate(88.02604166666667,35)" y="0" x="0" id="text-entity-StudentCourse-aa3514a2-02c3-5141-bec6-6f814e8ea79c-attr-1-key" class="er entityLabel">PK</text><rect height="22" width="25.817708333333332" y="46" x="0" class="er attributeBoxEven"/><text style="dominant-baseline: middle; font-size: 10.2px;" transform="translate(5,57)" y="0" x="0" id="text-entity-StudentCourse-aa3514a2-02c3-5141-bec6-6f814e8ea79c-attr-2-type" class="er entityLabel">int</text><rect height="22" width="57.208333333333336" y="46" x="25.817708333333332" class="er attributeBoxEven"/><text style="dominant-baseline: middle; font-size: 10.2px;" transform="translate(30.817708333333332,57)" y="0" x="0" id="text-entity-StudentCourse-aa3514a2-02c3-5141-bec6-6f814e8ea79c-attr-2-name" class="er entityLabel">StudentId</text><rect height="22" width="24.848958333333332" y="46" x="83.02604166666667" class="er attributeBoxEven"/><text style="dominant-baseline: middle; font-size: 10.2px;" transform="translate(88.02604166666667,57)" y="0" x="0" id="text-entity-StudentCourse-aa3514a2-02c3-5141-bec6-6f814e8ea79c-attr-2-key" class="er entityLabel">FK</text><rect height="22" width="25.817708333333332" y="68" x="0" class="er attributeBoxOdd"/><text style="dominant-baseline: middle; font-size: 10.2px;" transform="translate(5,79)" y="0" x="0" id="text-entity-StudentCourse-aa3514a2-02c3-5141-bec6-6f814e8ea79c-attr-3-type" class="er entityLabel">int</text><rect height="22" width="57.208333333333336" y="68" x="25.817708333333332" class="er attributeBoxOdd"/><text style="dominant-baseline: middle; font-size: 10.2px;" transform="translate(30.817708333333332,79)" y="0" x="0" id="text-entity-StudentCourse-aa3514a2-02c3-5141-bec6-6f814e8ea79c-attr-3-name" class="er entityLabel">CourseId</text><rect height="22" width="24.848958333333332" y="68" x="83.02604166666667" class="er attributeBoxOdd"/><text style="dominant-baseline: middle; font-size: 10.2px;" transform="translate(88.02604166666667,79)" y="0" x="0" id="text-entity-StudentCourse-aa3514a2-02c3-5141-bec6-6f814e8ea79c-attr-3-key" class="er entityLabel">FK</text></g><g transform="translate(25.6171875,466.65821838378906 )" id="entity-Grade-bf122346-2edc-566f-95ff-91bd6f97edf5"><rect height="90" width="128.8125" y="0" x="0" class="er entityBox"/><text style="dominant-baseline: middle; text-anchor: middle; font-size: 12px;" transform="translate(64.40625,12)" y="0" x="0" id="text-entity-Grade-bf122346-2edc-566f-95ff-91bd6f97edf5" class="er entityLabel">Grade</text><rect height="22" width="22.53125" y="24" x="0" class="er attributeBoxOdd"/><text style="dominant-baseline: middle; font-size: 10.2px;" transform="translate(5,35)" y="0" x="0" id="text-entity-Grade-bf122346-2edc-566f-95ff-91bd6f97edf5-attr-1-type" class="er entityLabel">int</text><rect height="22" width="84.71875" y="24" x="22.53125" class="er attributeBoxOdd"/><text style="dominant-baseline: middle; font-size: 10.2px;" transform="translate(27.53125,35)" y="0" x="0" id="text-entity-Grade-bf122346-2edc-566f-95ff-91bd6f97edf5-attr-1-name" class="er entityLabel">Id</text><rect height="22" width="21.5625" y="24" x="107.25" class="er attributeBoxOdd"/><text style="dominant-baseline: middle; font-size: 10.2px;" transform="translate(112.25,35)" y="0" x="0" id="text-entity-Grade-bf122346-2edc-566f-95ff-91bd6f97edf5-attr-1-key" class="er entityLabel">PK</text><rect height="22" width="22.53125" y="46" x="0" class="er attributeBoxEven"/><text style="dominant-baseline: middle; font-size: 10.2px;" transform="translate(5,57)" y="0" x="0" id="text-entity-Grade-bf122346-2edc-566f-95ff-91bd6f97edf5-attr-2-type" class="er entityLabel">int</text><rect height="22" width="84.71875" y="46" x="22.53125" class="er attributeBoxEven"/><text style="dominant-baseline: middle; font-size: 10.2px;" transform="translate(27.53125,57)" y="0" x="0" id="text-entity-Grade-bf122346-2edc-566f-95ff-91bd6f97edf5-attr-2-name" class="er entityLabel">StudentCourseId</text><rect height="22" width="21.5625" y="46" x="107.25" class="er attributeBoxEven"/><text style="dominant-baseline: middle; font-size: 10.2px;" transform="translate(112.25,57)" y="0" x="0" id="text-entity-Grade-bf122346-2edc-566f-95ff-91bd6f97edf5-attr-2-key" class="er entityLabel">FK</text><rect height="22" width="22.53125" y="68" x="0" class="er attributeBoxOdd"/><text style="dominant-baseline: middle; font-size: 10.2px;" transform="translate(5,79)" y="0" x="0" id="text-entity-Grade-bf122346-2edc-566f-95ff-91bd6f97edf5-attr-3-type" class="er entityLabel">int</text><rect height="22" width="84.71875" y="68" x="22.53125" class="er attributeBoxOdd"/><text style="dominant-baseline: middle; font-size: 10.2px;" transform="translate(27.53125,79)" y="0" x="0" id="text-entity-Grade-bf122346-2edc-566f-95ff-91bd6f97edf5-attr-3-name" class="er entityLabel">Grade</text><rect height="22" width="21.5625" y="68" x="107.25" class="er attributeBoxOdd"/><text style="dominant-baseline: middle; font-size: 10.2px;" transform="translate(112.25,79)" y="0" x="0" id="text-entity-Grade-bf122346-2edc-566f-95ff-91bd6f97edf5-attr-3-key" class="er entityLabel"/></g><rect height="14" width="31.109375" y="219.65798950195312" x="74.46831512451172" class="er relationshipLabelBox"/><text style="text-anchor: middle; dominant-baseline: middle; font-size: 12px;" y="226.65798950195312" x="90.02300262451172" id="rel1" class="er relationshipLabel">are in</text><rect height="14" width="17.71875" y="409.6579895019531" x="81.16362762451172" class="er relationshipLabelBox"/><text style="text-anchor: middle; dominant-baseline: middle; font-size: 12px;" y="416.6579895019531" x="90.02300262451172" id="rel2" class="er relationshipLabel">has</text></svg>