<svg aria-roledescription="flowchart-v2" role="graphics-document document" viewBox="0 0 1449.375 585.125" style="max-width: 1449.38px; background-color: white;" class="flowchart" xmlns:xlink="http://www.w3.org/1999/xlink" xmlns="http://www.w3.org/2000/svg" width="100%" id="my-svg"><style>#my-svg{font-family:"trebuchet ms",verdana,arial,sans-serif;font-size:16px;fill:#333;}#my-svg .error-icon{fill:#552222;}#my-svg .error-text{fill:#552222;stroke:#552222;}#my-svg .edge-thickness-normal{stroke-width:1px;}#my-svg .edge-thickness-thick{stroke-width:3.5px;}#my-svg .edge-pattern-solid{stroke-dasharray:0;}#my-svg .edge-thickness-invisible{stroke-width:0;fill:none;}#my-svg .edge-pattern-dashed{stroke-dasharray:3;}#my-svg .edge-pattern-dotted{stroke-dasharray:2;}#my-svg .marker{fill:#333333;stroke:#333333;}#my-svg .marker.cross{stroke:#333333;}#my-svg svg{font-family:"trebuchet ms",verdana,arial,sans-serif;font-size:16px;}#my-svg p{margin:0;}#my-svg .label{font-family:"trebuchet ms",verdana,arial,sans-serif;color:#333;}#my-svg .cluster-label text{fill:#333;}#my-svg .cluster-label span{color:#333;}#my-svg .cluster-label span p{background-color:transparent;}#my-svg .label text,#my-svg span{fill:#333;color:#333;}#my-svg .node rect,#my-svg .node circle,#my-svg .node ellipse,#my-svg .node polygon,#my-svg .node path{fill:#ECECFF;stroke:#9370DB;stroke-width:1px;}#my-svg .rough-node .label text,#my-svg .node .label text,#my-svg .image-shape .label,#my-svg .icon-shape .label{text-anchor:middle;}#my-svg .node .katex path{fill:#000;stroke:#000;stroke-width:1px;}#my-svg .rough-node .label,#my-svg .node .label,#my-svg .image-shape .label,#my-svg .icon-shape .label{text-align:center;}#my-svg .node.clickable{cursor:pointer;}#my-svg .root .anchor path{fill:#333333!important;stroke-width:0;stroke:#333333;}#my-svg .arrowheadPath{fill:#333333;}#my-svg .edgePath .path{stroke:#333333;stroke-width:2.0px;}#my-svg .flowchart-link{stroke:#333333;fill:none;}#my-svg .edgeLabel{background-color:rgba(232,232,232, 0.8);text-align:center;}#my-svg .edgeLabel p{background-color:rgba(232,232,232, 0.8);}#my-svg .edgeLabel rect{opacity:0.5;background-color:rgba(232,232,232, 0.8);fill:rgba(232,232,232, 0.8);}#my-svg .labelBkg{background-color:rgba(232, 232, 232, 0.5);}#my-svg .cluster rect{fill:#ffffde;stroke:#aaaa33;stroke-width:1px;}#my-svg .cluster text{fill:#333;}#my-svg .cluster span{color:#333;}#my-svg div.mermaidTooltip{position:absolute;text-align:center;max-width:200px;padding:2px;font-family:"trebuchet ms",verdana,arial,sans-serif;font-size:12px;background:hsl(80, 100%, 96.2745098039%);border:1px solid #aaaa33;border-radius:2px;pointer-events:none;z-index:100;}#my-svg .flowchartTitleText{text-anchor:middle;font-size:18px;fill:#333;}#my-svg rect.text{fill:none;stroke-width:0;}#my-svg .icon-shape,#my-svg .image-shape{background-color:rgba(232,232,232, 0.8);text-align:center;}#my-svg .icon-shape p,#my-svg .image-shape p{background-color:rgba(232,232,232, 0.8);padding:2px;}#my-svg .icon-shape rect,#my-svg .image-shape rect{opacity:0.5;background-color:rgba(232,232,232, 0.8);fill:rgba(232,232,232, 0.8);}#my-svg :root{--mermaid-font-family:"trebuchet ms",verdana,arial,sans-serif;}#my-svg .green&gt;*{fill:#9f6!important;stroke:#333!important;stroke-width:2px!important;}#my-svg .green span{fill:#9f6!important;stroke:#333!important;stroke-width:2px!important;}#my-svg .orange&gt;*{fill:#f96!important;stroke:#333!important;stroke-width:4px!important;}#my-svg .orange span{fill:#f96!important;stroke:#333!important;stroke-width:4px!important;}</style><g><marker orient="auto" markerHeight="8" markerWidth="8" markerUnits="userSpaceOnUse" refY="5" refX="5" viewBox="0 0 10 10" class="marker flowchart-v2" id="my-svg_flowchart-v2-pointEnd"><path style="stroke-width: 1; stroke-dasharray: 1, 0;" class="arrowMarkerPath" d="M 0 0 L 10 5 L 0 10 z"/></marker><marker orient="auto" markerHeight="8" markerWidth="8" markerUnits="userSpaceOnUse" refY="5" refX="4.5" viewBox="0 0 10 10" class="marker flowchart-v2" id="my-svg_flowchart-v2-pointStart"><path style="stroke-width: 1; stroke-dasharray: 1, 0;" class="arrowMarkerPath" d="M 0 5 L 10 10 L 10 0 z"/></marker><marker orient="auto" markerHeight="11" markerWidth="11" markerUnits="userSpaceOnUse" refY="5" refX="11" viewBox="0 0 10 10" class="marker flowchart-v2" id="my-svg_flowchart-v2-circleEnd"><circle style="stroke-width: 1; stroke-dasharray: 1, 0;" class="arrowMarkerPath" r="5" cy="5" cx="5"/></marker><marker orient="auto" markerHeight="11" markerWidth="11" markerUnits="userSpaceOnUse" refY="5" refX="-1" viewBox="0 0 10 10" class="marker flowchart-v2" id="my-svg_flowchart-v2-circleStart"><circle style="stroke-width: 1; stroke-dasharray: 1, 0;" class="arrowMarkerPath" r="5" cy="5" cx="5"/></marker><marker orient="auto" markerHeight="11" markerWidth="11" markerUnits="userSpaceOnUse" refY="5.2" refX="12" viewBox="0 0 11 11" class="marker cross flowchart-v2" id="my-svg_flowchart-v2-crossEnd"><path style="stroke-width: 2; stroke-dasharray: 1, 0;" class="arrowMarkerPath" d="M 1,1 l 9,9 M 10,1 l -9,9"/></marker><marker orient="auto" markerHeight="11" markerWidth="11" markerUnits="userSpaceOnUse" refY="5.2" refX="-1" viewBox="0 0 11 11" class="marker cross flowchart-v2" id="my-svg_flowchart-v2-crossStart"><path style="stroke-width: 2; stroke-dasharray: 1, 0;" class="arrowMarkerPath" d="M 1,1 l 9,9 M 10,1 l -9,9"/></marker><g class="root"><g class="clusters"/><g class="edgePaths"><path marker-end="url(#my-svg_flowchart-v2-pointEnd)" style="" class="edge-thickness-normal edge-pattern-solid edge-thickness-normal edge-pattern-solid flowchart-link" id="L_sq_ci_0" d="M757.883,214.258L757.883,243.801C757.883,273.344,757.883,332.43,757.883,370.289C757.883,408.148,757.883,424.781,757.883,433.098L757.883,441.414"/><path marker-end="url(#my-svg_flowchart-v2-pointEnd)" style="" class="edge-thickness-normal edge-pattern-solid edge-thickness-normal edge-pattern-solid flowchart-link" id="L_e_od3_4" d="M1049.198,251.766L1037.276,275.058C1025.354,298.35,1001.509,344.933,989.664,377.942C977.82,410.951,977.976,430.386,978.054,440.103L978.132,449.82"/><path marker-end="url(#my-svg_flowchart-v2-pointEnd)" style="" class="edge-thickness-normal edge-pattern-solid edge-thickness-normal edge-pattern-solid flowchart-link" id="L_e_f_5" d="M1115.239,251.766L1127.162,275.058C1139.084,298.35,1162.929,344.933,1174.851,380.608C1186.773,416.284,1186.773,441.052,1186.773,453.436L1186.773,465.82"/><path marker-end="url(#my-svg_flowchart-v2-pointEnd)" style="" class="edge-thickness-normal edge-pattern-solid edge-thickness-normal edge-pattern-solid flowchart-link" id="L_cyr_cyr2_6" d="M1361.07,214.258L1361.07,243.801C1361.07,273.344,1361.07,332.43,1361.07,365.473C1361.07,398.516,1361.07,405.516,1361.07,409.016L1361.07,412.516"/></g><g class="edgeLabels"><g class="edgeLabel"><g transform="translate(0, 0)" class="label"><foreignObject height="0" width="0"><div style="display: table-cell; white-space: nowrap; line-height: 1.5; max-width: 200px; text-align: center;" class="labelBkg" xmlns="http://www.w3.org/1999/xhtml"><span class="edgeLabel"></span></div></foreignObject></g></g><g class="edgeLabel"><g transform="translate(0, 0)" class="label"><foreignObject height="0" width="0"><div style="display: table-cell; white-space: nowrap; line-height: 1.5; max-width: 200px; text-align: center;" class="labelBkg" xmlns="http://www.w3.org/1999/xhtml"><span class="edgeLabel"></span></div></foreignObject></g></g><g class="edgeLabel"><g transform="translate(0, 0)" class="label"><foreignObject height="0" width="0"><div style="display: table-cell; white-space: nowrap; line-height: 1.5; max-width: 200px; text-align: center;" class="labelBkg" xmlns="http://www.w3.org/1999/xhtml"><span class="edgeLabel"></span></div></foreignObject></g></g><g class="edgeLabel"><g transform="translate(0, 0)" class="label"><foreignObject height="0" width="0"><div style="display: table-cell; white-space: nowrap; line-height: 1.5; max-width: 200px; text-align: center;" class="labelBkg" xmlns="http://www.w3.org/1999/xhtml"><span class="edgeLabel"></span></div></foreignObject></g></g></g><g class="nodes"><g transform="translate(0, 0)" class="root"><g class="clusters"><g data-look="classic" id="A" class="cluster"><rect height="358.515625" width="622.484375" y="8" x="8" style=""/><g transform="translate(314.5234375, 8)" class="cluster-label"><foreignObject height="24" width="9.4375"><div style="display: table-cell; white-space: nowrap; line-height: 1.5; max-width: 200px; text-align: center;" xmlns="http://www.w3.org/1999/xhtml"><span class="nodeLabel"><p>A</p></span></div></foreignObject></g></g></g><g class="edgePaths"><path marker-end="url(#my-svg_flowchart-v2-pointEnd)" style="" class="edge-thickness-normal edge-pattern-solid edge-thickness-normal edge-pattern-solid flowchart-link" id="L_od_ro_1" d="M184.07,78.75L205.516,78.667C226.961,78.583,269.852,78.417,313.927,81.019C358.001,83.621,403.261,88.991,425.89,91.677L448.52,94.362"/><path marker-end="url(#my-svg_flowchart-v2-pointEnd)" style="" class="edge-thickness-normal edge-pattern-dotted edge-thickness-normal edge-pattern-solid flowchart-link" id="L_di_ro_2" d="M199.41,220.395L218.299,213.524C237.188,206.654,274.965,192.913,316.532,176.388C358.099,159.864,403.455,140.556,426.134,130.903L448.812,121.249"/><path marker-end="url(#my-svg_flowchart-v2-pointEnd)" style="" class="edge-thickness-thick edge-pattern-solid edge-thickness-normal edge-pattern-solid flowchart-link" id="L_di_ro2_3" d="M209.758,256.602L226.922,259.475C244.086,262.349,278.414,268.096,310.004,270.97C341.594,273.844,370.445,273.844,384.871,273.844L399.297,273.844"/></g><g class="edgeLabels"><g transform="translate(312.7421875, 78.25)" class="edgeLabel"><g transform="translate(-53.0546875, -24)" class="label"><foreignObject height="48" width="106.109375"><div style="display: table-cell; white-space: nowrap; line-height: 1.5; max-width: 200px; text-align: center;" class="labelBkg" xmlns="http://www.w3.org/1999/xhtml"><span class="edgeLabel"><p>Two line<br />edge comment</p></span></div></foreignObject></g></g><g class="edgeLabel"><g transform="translate(0, 0)" class="label"><foreignObject height="0" width="0"><div style="display: table-cell; white-space: nowrap; line-height: 1.5; max-width: 200px; text-align: center;" class="labelBkg" xmlns="http://www.w3.org/1999/xhtml"><span class="edgeLabel"></span></div></foreignObject></g></g><g class="edgeLabel"><g transform="translate(0, 0)" class="label"><foreignObject height="0" width="0"><div style="display: table-cell; white-space: nowrap; line-height: 1.5; max-width: 200px; text-align: center;" class="labelBkg" xmlns="http://www.w3.org/1999/xhtml"><span class="edgeLabel"></span></div></foreignObject></g></g></g><g class="nodes"><g transform="translate(133.84375, 78.25)" id="flowchart-od-2" class="node default"><g transform="translate(4.875,0)" class="basic label-container"><path style="" fill="#ECECFF" stroke-width="0" stroke="none" d="M-54.6015625 -19.5 C-51.65550908762368 -13.60789317524736, -48.70945567524736 -7.715786350494721, -44.8515625 0 C-47.12471918754362 4.546313375087235, -49.39787587508724 9.09262675017447, -54.6015625 19.5 C-21.35542105577423 19.5, 11.890720388451541 19.5, 44.8515625 19.5 C44.8515625 5.930138395061185, 44.8515625 -7.63972320987763, 44.8515625 -19.5 C18.049100803125178 -19.5, -8.753360893749644 -19.5, -54.6015625 -19.5"/><path style="" fill="none" stroke-width="1.3" stroke="#9370DB" d="M-54.6015625 -19.5 C-51.59962388432036 -13.496122768640717, -48.59768526864072 -7.492245537281432, -44.8515625 0 M-54.6015625 -19.5 C-52.29920462812572 -14.89528425625145, -49.99684675625145 -10.2905685125029, -44.8515625 0 M-44.8515625 0 C-47.93412972923611 6.1651344584722185, -51.01669695847222 12.330268916944437, -54.6015625 19.5 M-44.8515625 0 C-47.67463928425324 5.646153568506474, -50.49771606850648 11.292307137012948, -54.6015625 19.5 M-54.6015625 19.5 C-17.249406293934214 19.5, 20.10274991213157 19.5, 44.8515625 19.5 M-54.6015625 19.5 C-27.541128725522945 19.5, -0.48069495104589066 19.5, 44.8515625 19.5 M44.8515625 19.5 C44.8515625 9.644469625703886, 44.8515625 -0.211060748592228, 44.8515625 -19.5 M44.8515625 19.5 C44.8515625 10.124014596613977, 44.8515625 0.7480291932279535, 44.8515625 -19.5 M44.8515625 -19.5 C23.08934369304695 -19.5, 1.3271248860938982 -19.5, -54.6015625 -19.5 M44.8515625 -19.5 C11.869497517097813 -19.5, -21.112567465804375 -19.5, -54.6015625 -19.5"/></g><g transform="translate(-32.4765625, -12)" style="" class="label"><rect/><foreignObject height="24" width="74.703125"><div style="display: table-cell; white-space: nowrap; line-height: 1.5; max-width: 200px; text-align: center;" xmlns="http://www.w3.org/1999/xhtml"><span class="nodeLabel"><p>Odd shape</p></span></div></foreignObject></g></g><g transform="translate(498.140625, 100.25)" id="flowchart-ro-3" class="node default"><rect height="102" width="91.296875" y="-51" x="-45.6484375" ry="5" rx="5" style="" class="basic label-container"/><g transform="translate(-30.6484375, -36)" style="" class="label"><rect/><foreignObject height="72" width="61.296875"><div style="display: table-cell; white-space: nowrap; line-height: 1.5; max-width: 200px; text-align: center;" xmlns="http://www.w3.org/1999/xhtml"><span class="nodeLabel"><p>Rounded<br />square<br />shape</p></span></div></foreignObject></g></g><g transform="translate(133.84375, 243.171875)" id="flowchart-di-4" class="node default orange"><polygon style="fill:#f96 !important;stroke:#333 !important;stroke-width:4px !important" transform="translate(-88.34375,88.34375)" class="label-container" points="88.34375,0 176.6875,-88.34375 88.34375,-176.6875 0,-88.34375"/><g transform="translate(-49.34375, -24)" style="" class="label"><rect/><foreignObject height="48" width="98.6875"><div style="display: table-cell; white-space: nowrap; line-height: 1.5; max-width: 200px; text-align: center;" xmlns="http://www.w3.org/1999/xhtml"><span class="nodeLabel"><p>Diamond with <br /> line break</p></span></div></foreignObject></g></g><g transform="translate(498.140625, 273.84375)" id="flowchart-ro2-7" class="node default"><rect height="54" width="189.6875" y="-27" x="-94.84375" ry="5" rx="5" style="" class="basic label-container"/><g transform="translate(-79.84375, -12)" style="" class="label"><rect/><foreignObject height="24" width="159.6875"><div style="display: table-cell; white-space: nowrap; line-height: 1.5; max-width: 200px; text-align: center;" xmlns="http://www.w3.org/1999/xhtml"><span class="nodeLabel"><p>Rounded square shape</p></span></div></foreignObject></g></g></g></g><g transform="translate(757.8828125, 187.2578125)" id="flowchart-sq-0" class="node default green"><rect height="54" width="154.796875" y="-27" x="-77.3984375" style="fill:#9f6 !important;stroke:#333 !important;stroke-width:2px !important" class="basic label-container"/><g transform="translate(-47.3984375, -12)" style="" class="label"><rect/><foreignObject height="24" width="94.796875"><div style="display: table-cell; white-space: nowrap; line-height: 1.5; max-width: 200px; text-align: center;" xmlns="http://www.w3.org/1999/xhtml"><span class="nodeLabel"><p>Square shape</p></span></div></foreignObject></g></g><g transform="translate(757.8828125, 496.8203125)" id="flowchart-ci-1" class="node default"><circle cy="0" cx="0" r="51.40625" style="" class="basic label-container"/><g transform="translate(-43.90625, -12)" style="" class="label"><rect/><foreignObject height="24" width="87.8125"><div style="display: table-cell; white-space: nowrap; line-height: 1.5; max-width: 200px; text-align: center;" xmlns="http://www.w3.org/1999/xhtml"><span class="nodeLabel"><p>Circle shape</p></span></div></foreignObject></g></g><g transform="translate(1082.21875, 187.2578125)" id="flowchart-e-8" class="node default green"><circle cy="0" cx="0" r="72.46875" style="fill:#9f6 !important;stroke:#333 !important;stroke-width:2px !important" class="basic label-container"/><g transform="translate(-64.96875, -36)" style="" class="label"><rect/><foreignObject height="72" width="129.9375"><div style="display: table-cell; white-space: nowrap; line-height: 1.5; max-width: 200px; text-align: center;" xmlns="http://www.w3.org/1999/xhtml"><span class="nodeLabel"><p>Inner / circle<br />and some odd <br />special characters</p></span></div></foreignObject></g></g><g transform="translate(977.6640625, 496.8203125)" id="flowchart-od3-9" class="node default"><g transform="translate(10.875,0)" class="basic label-container"><path style="" fill="#ECECFF" stroke-width="0" stroke="none" d="M-129.25 -43.5 C-122.54093306666144 -30.081866133322862, -115.83186613332286 -16.663732266645727, -107.5 0 C-113.00760143254789 11.015202865095764, -118.51520286509576 22.03040573019153, -129.25 43.5 C-35.558269493185534 43.5, 58.13346101362893 43.5, 107.5 43.5 C107.5 11.674951687678934, 107.5 -20.15009662464213, 107.5 -43.5 C36.76408549908672 -43.5, -33.97182900182656 -43.5, -129.25 -43.5"/><path style="" fill="none" stroke-width="1.3" stroke="#9370DB" d="M-129.25 -43.5 C-121.43916324514944 -27.87832649029889, -113.62832649029889 -12.256652980597774, -107.5 0 M-129.25 -43.5 C-124.15078721907452 -33.30157443814902, -119.05157443814902 -23.103148876298043, -107.5 0 M-107.5 0 C-112.79673694370703 10.593473887414069, -118.09347388741406 21.186947774828138, -129.25 43.5 M-107.5 0 C-114.71672331616014 14.433446632320283, -121.93344663232028 28.866893264640566, -129.25 43.5 M-129.25 43.5 C-36.189985831712704 43.5, 56.87002833657459 43.5, 107.5 43.5 M-129.25 43.5 C-46.29368969597171 43.5, 36.662620608056585 43.5, 107.5 43.5 M107.5 43.5 C107.5 22.515581455456907, 107.5 1.5311629109138138, 107.5 -43.5 M107.5 43.5 C107.5 10.943814616465573, 107.5 -21.612370767068853, 107.5 -43.5 M107.5 -43.5 C13.771656061844581 -43.5, -79.95668787631084 -43.5, -129.25 -43.5 M107.5 -43.5 C20.04449444367077 -43.5, -67.41101111265846 -43.5, -129.25 -43.5"/></g><g transform="translate(-89.125, -36)" style="" class="label"><rect/><foreignObject height="72" width="200"><div style="display: table; white-space: break-spaces; line-height: 1.5; max-width: 200px; text-align: center; width: 200px;" xmlns="http://www.w3.org/1999/xhtml"><span class="nodeLabel"><p>Really long text with linebreak<br />in an Odd shape</p></span></div></foreignObject></g></g><g transform="translate(1186.7734375, 496.8203125)" id="flowchart-f-11" class="node default"><rect height="54" width="81.46875" y="-27" x="-40.734375" ry="5" rx="5" style="" class="basic label-container"/><g transform="translate(-25.734375, -12)" style="" class="label"><rect/><foreignObject height="24" width="51.46875"><div style="display: table-cell; white-space: nowrap; line-height: 1.5; max-width: 200px; text-align: center;" xmlns="http://www.w3.org/1999/xhtml"><span class="nodeLabel"><p>,.?!+-*ز</p></span></div></foreignObject></g></g><g transform="translate(1361.0703125, 187.2578125)" id="flowchart-cyr-12" class="node default"><rect height="54" width="110.171875" y="-27" x="-55.0859375" style="" class="basic label-container"/><g transform="translate(-25.0859375, -12)" style="" class="label"><rect/><foreignObject height="24" width="50.171875"><div style="display: table-cell; white-space: nowrap; line-height: 1.5; max-width: 200px; text-align: center;" xmlns="http://www.w3.org/1999/xhtml"><span class="nodeLabel"><p>Cyrillic</p></span></div></foreignObject></g></g><g transform="translate(1361.0703125, 496.8203125)" id="flowchart-cyr2-13" class="node default"><circle cy="0" cx="0" r="80.3046875" style="" class="basic label-container"/><g transform="translate(-72.8046875, -12)" style="" class="label"><rect/><foreignObject height="24" width="145.609375"><div style="display: table-cell; white-space: nowrap; line-height: 1.5; max-width: 200px; text-align: center;" xmlns="http://www.w3.org/1999/xhtml"><span class="nodeLabel"><p>Circle shape Начало</p></span></div></foreignObject></g></g></g></g></g></svg>