<svg aria-roledescription="er" role="graphics-document document" viewBox="0 -62 781.4609375 726.642578125" style="max-width: 781.461px; background-color: white;" xmlns:xlink="http://www.w3.org/1999/xlink" xmlns="http://www.w3.org/2000/svg" width="100%" id="my-svg"><style>#my-svg{font-family:"trebuchet ms",verdana,arial,sans-serif;font-size:16px;fill:#333;}#my-svg .error-icon{fill:#552222;}#my-svg .error-text{fill:#552222;stroke:#552222;}#my-svg .edge-thickness-normal{stroke-width:1px;}#my-svg .edge-thickness-thick{stroke-width:3.5px;}#my-svg .edge-pattern-solid{stroke-dasharray:0;}#my-svg .edge-thickness-invisible{stroke-width:0;fill:none;}#my-svg .edge-pattern-dashed{stroke-dasharray:3;}#my-svg .edge-pattern-dotted{stroke-dasharray:2;}#my-svg .marker{fill:#333333;stroke:#333333;}#my-svg .marker.cross{stroke:#333333;}#my-svg svg{font-family:"trebuchet ms",verdana,arial,sans-serif;font-size:16px;}#my-svg p{margin:0;}#my-svg .entityBox{fill:#ECECFF;stroke:#9370DB;}#my-svg .attributeBoxOdd{fill:#ffffff;stroke:#9370DB;}#my-svg .attributeBoxEven{fill:#f2f2f2;stroke:#9370DB;}#my-svg .relationshipLabelBox{fill:hsl(80, 100%, 96.2745098039%);opacity:0.7;background-color:hsl(80, 100%, 96.2745098039%);}#my-svg .relationshipLabelBox rect{opacity:0.5;}#my-svg .relationshipLine{stroke:#333333;}#my-svg .entityTitleText{text-anchor:middle;font-size:18px;fill:#333;}#my-svg #MD_PARENT_START{fill:#f5f5f5!important;stroke:#333333!important;stroke-width:1;}#my-svg #MD_PARENT_END{fill:#f5f5f5!important;stroke:#333333!important;stroke-width:1;}#my-svg :root{--mermaid-font-family:"trebuchet ms",verdana,arial,sans-serif;}</style><g/><defs><marker orient="auto" markerHeight="240" markerWidth="190" refY="7" refX="0" id="MD_PARENT_START"><path d="M 18,7 L9,13 L1,7 L9,1 Z"/></marker></defs><defs><marker orient="auto" markerHeight="28" markerWidth="20" refY="7" refX="19" id="MD_PARENT_END"><path d="M 18,7 L9,13 L1,7 L9,1 Z"/></marker></defs><defs><marker orient="auto" markerHeight="18" markerWidth="18" refY="9" refX="0" id="ONLY_ONE_START"><path d="M9,0 L9,18 M15,0 L15,18" fill="none" stroke="gray"/></marker></defs><defs><marker orient="auto" markerHeight="18" markerWidth="18" refY="9" refX="18" id="ONLY_ONE_END"><path d="M3,0 L3,18 M9,0 L9,18" fill="none" stroke="gray"/></marker></defs><defs><marker orient="auto" markerHeight="18" markerWidth="30" refY="9" refX="0" id="ZERO_OR_ONE_START"><circle r="6" cy="9" cx="21" fill="white" stroke="gray"/><path d="M9,0 L9,18" fill="none" stroke="gray"/></marker></defs><defs><marker orient="auto" markerHeight="18" markerWidth="30" refY="9" refX="30" id="ZERO_OR_ONE_END"><circle r="6" cy="9" cx="9" fill="white" stroke="gray"/><path d="M21,0 L21,18" fill="none" stroke="gray"/></marker></defs><defs><marker orient="auto" markerHeight="36" markerWidth="45" refY="18" refX="18" id="ONE_OR_MORE_START"><path d="M0,18 Q 18,0 36,18 Q 18,36 0,18 M42,9 L42,27" fill="none" stroke="gray"/></marker></defs><defs><marker orient="auto" markerHeight="36" markerWidth="45" refY="18" refX="27" id="ONE_OR_MORE_END"><path d="M3,9 L3,27 M9,18 Q27,0 45,18 Q27,36 9,18" fill="none" stroke="gray"/></marker></defs><defs><marker orient="auto" markerHeight="36" markerWidth="57" refY="18" refX="18" id="ZERO_OR_MORE_START"><circle r="6" cy="18" cx="48" fill="white" stroke="gray"/><path d="M0,18 Q18,0 36,18 Q18,36 0,18" fill="none" stroke="gray"/></marker></defs><defs><marker orient="auto" markerHeight="36" markerWidth="57" refY="18" refX="39" id="ZERO_OR_MORE_END"><circle r="6" cy="18" cx="9" fill="white" stroke="gray"/><path d="M21,18 Q39,0 57,18 Q39,36 21,18" fill="none" stroke="gray"/></marker></defs><path style="stroke: gray; fill: none;" marker-start="url(#ZERO_OR_MORE_START)" marker-end="url(#ONLY_ONE_END)" d="M102.375,410.367L102.375,418.701C102.375,427.034,102.375,443.701,102.375,462.223C102.375,480.746,102.375,501.126,102.375,511.315L102.375,521.505" class="er relationshipLine"/><path style="stroke: gray; fill: none;" marker-start="url(#ZERO_OR_ONE_START)" marker-end="url(#ONLY_ONE_END)" d="M433.824,366.367L433.824,382.034C433.824,397.701,433.824,429.034,447.97,456.133C462.116,483.232,490.408,506.098,504.553,517.53L518.699,528.963" class="er relationshipLine"/><path style="stroke: gray; fill: none;" marker-start="url(#ZERO_OR_ONE_START)" marker-end="url(#ONLY_ONE_END)" d="M703.211,333.275L703.211,354.457C703.211,375.639,703.211,418.003,692.48,449.286C681.749,480.568,660.286,500.77,649.555,510.87L638.824,520.971" class="er relationshipLine"/><path style="stroke: gray; fill: none;" marker-start="url(#ZERO_OR_MORE_START)" marker-end="url(#ONLY_ONE_END)" d="M163.273,88.184L144.79,96.517C126.307,104.85,89.341,121.517,73.444,138.184C57.548,154.85,62.721,171.517,65.308,179.85L67.894,188.184" class="er relationshipLine"/><path style="stroke: gray; fill: none;" marker-start="url(#ZERO_OR_MORE_START)" marker-end="url(#ONLY_ONE_END)" d="M317.917,88.184L337.235,96.517C356.553,104.85,395.188,121.517,414.506,145.517C433.824,169.517,433.824,200.85,433.824,216.517L433.824,232.184" class="er relationshipLine"/><path style="stroke: gray; fill: none;" marker-start="url(#ZERO_OR_MORE_START)" marker-end="url(#ONLY_ONE_END)" d="M435.98,81.813L404.536,91.208C373.091,100.603,310.202,119.393,268.33,140.378C226.458,161.362,205.604,184.541,195.177,196.13L184.75,207.719" class="er relationshipLine"/><path style="stroke: gray; fill: none;" marker-start="url(#ZERO_OR_MORE_START)" marker-end="url(#ONLY_ONE_END)" d="M599.485,88.184L616.773,96.517C634.061,104.85,668.636,121.517,685.923,151.032C703.211,180.548,703.211,222.911,703.211,244.093L703.211,265.275" class="er relationshipLine"/><g transform="translate(20,188.18359375 )" id="entity-EVENT-12434316-4a87-5800-981a-68e9670d1fb3"><rect height="222.18359375" width="164.75" y="0" x="0" class="er entityBox"/><text style="dominant-baseline: middle; text-anchor: middle; font-size: 12px;" transform="translate(82.375,12)" y="0" x="0" id="text-entity-EVENT-12434316-4a87-5800-981a-68e9670d1fb3" class="er entityLabel">EVENT</text><rect height="22" width="30.65625" y="24" x="0" class="er attributeBoxOdd"/><text style="dominant-baseline: middle; font-size: 10.2px;" transform="translate(5,35)" y="0" x="0" id="text-entity-EVENT-12434316-4a87-5800-981a-68e9670d1fb3-attr-1-type" class="er entityLabel">int</text><rect height="22" width="75.25" y="24" x="30.65625" class="er attributeBoxOdd"/><text style="dominant-baseline: middle; font-size: 10.2px;" transform="translate(35.65625,35)" y="0" x="0" id="text-entity-EVENT-12434316-4a87-5800-981a-68e9670d1fb3-attr-1-name" class="er entityLabel">id</text><rect height="22" width="21.5625" y="24" x="105.90625" class="er attributeBoxOdd"/><text style="dominant-baseline: middle; font-size: 10.2px;" transform="translate(110.90625,35)" y="0" x="0" id="text-entity-EVENT-12434316-4a87-5800-981a-68e9670d1fb3-attr-1-key" class="er entityLabel">PK</text><rect height="22" width="37.28125" y="24" x="127.46875" class="er attributeBoxOdd"/><text style="dominant-baseline: middle; font-size: 10.2px;" transform="translate(132.46875,35)" y="0" x="0" id="text-entity-EVENT-12434316-4a87-5800-981a-68e9670d1fb3-attr-1-comment" class="er entityLabel"/><rect height="22" width="30.65625" y="46" x="0" class="er attributeBoxEven"/><text style="dominant-baseline: middle; font-size: 10.2px;" transform="translate(5,57)" y="0" x="0" id="text-entity-EVENT-12434316-4a87-5800-981a-68e9670d1fb3-attr-2-type" class="er entityLabel">int</text><rect height="22" width="75.25" y="46" x="30.65625" class="er attributeBoxEven"/><text style="dominant-baseline: middle; font-size: 10.2px;" transform="translate(35.65625,57)" y="0" x="0" id="text-entity-EVENT-12434316-4a87-5800-981a-68e9670d1fb3-attr-2-name" class="er entityLabel">venue_id</text><rect height="22" width="21.5625" y="46" x="105.90625" class="er attributeBoxEven"/><text style="dominant-baseline: middle; font-size: 10.2px;" transform="translate(110.90625,57)" y="0" x="0" id="text-entity-EVENT-12434316-4a87-5800-981a-68e9670d1fb3-attr-2-key" class="er entityLabel">FK</text><rect height="22" width="37.28125" y="46" x="127.46875" class="er attributeBoxEven"/><text style="dominant-baseline: middle; font-size: 10.2px;" transform="translate(132.46875,57)" y="0" x="0" id="text-entity-EVENT-12434316-4a87-5800-981a-68e9670d1fb3-attr-2-comment" class="er entityLabel">venue</text><rect height="22" width="30.65625" y="68" x="0" class="er attributeBoxOdd"/><text style="dominant-baseline: middle; font-size: 10.2px;" transform="translate(5,79)" y="0" x="0" id="text-entity-EVENT-12434316-4a87-5800-981a-68e9670d1fb3-attr-3-type" class="er entityLabel">text</text><rect height="22" width="75.25" y="68" x="30.65625" class="er attributeBoxOdd"/><text style="dominant-baseline: middle; font-size: 10.2px;" transform="translate(35.65625,79)" y="0" x="0" id="text-entity-EVENT-12434316-4a87-5800-981a-68e9670d1fb3-attr-3-name" class="er entityLabel">name</text><rect height="22" width="21.5625" y="68" x="105.90625" class="er attributeBoxOdd"/><text style="dominant-baseline: middle; font-size: 10.2px;" transform="translate(110.90625,79)" y="0" x="0" id="text-entity-EVENT-12434316-4a87-5800-981a-68e9670d1fb3-attr-3-key" class="er entityLabel"/><rect height="22" width="37.28125" y="68" x="127.46875" class="er attributeBoxOdd"/><text style="dominant-baseline: middle; font-size: 10.2px;" transform="translate(132.46875,79)" y="0" x="0" id="text-entity-EVENT-12434316-4a87-5800-981a-68e9670d1fb3-attr-3-comment" class="er entityLabel"/><rect height="22.091796875" width="30.65625" y="90" x="0" class="er attributeBoxEven"/><text style="dominant-baseline: middle; font-size: 10.2px;" transform="translate(5,101.0458984375)" y="0" x="0" id="text-entity-EVENT-12434316-4a87-5800-981a-68e9670d1fb3-attr-4-type" class="er entityLabel">text</text><rect height="22.091796875" width="75.25" y="90" x="30.65625" class="er attributeBoxEven"/><text style="dominant-baseline: middle; font-size: 10.2px;" transform="translate(35.65625,101.0458984375)" y="0" x="0" id="text-entity-EVENT-12434316-4a87-5800-981a-68e9670d1fb3-attr-4-name" class="er entityLabel">description</text><rect height="22.091796875" width="21.5625" y="90" x="105.90625" class="er attributeBoxEven"/><text style="dominant-baseline: middle; font-size: 10.2px;" transform="translate(110.90625,101.0458984375)" y="0" x="0" id="text-entity-EVENT-12434316-4a87-5800-981a-68e9670d1fb3-attr-4-key" class="er entityLabel"/><rect height="22.091796875" width="37.28125" y="90" x="127.46875" class="er attributeBoxEven"/><text style="dominant-baseline: middle; font-size: 10.2px;" transform="translate(132.46875,101.0458984375)" y="0" x="0" id="text-entity-EVENT-12434316-4a87-5800-981a-68e9670d1fb3-attr-4-comment" class="er entityLabel"/><rect height="22.091796875" width="30.65625" y="112.091796875" x="0" class="er attributeBoxOdd"/><text style="dominant-baseline: middle; font-size: 10.2px;" transform="translate(5,123.1376953125)" y="0" x="0" id="text-entity-EVENT-12434316-4a87-5800-981a-68e9670d1fb3-attr-5-type" class="er entityLabel">text</text><rect height="22.091796875" width="75.25" y="112.091796875" x="30.65625" class="er attributeBoxOdd"/><text style="dominant-baseline: middle; font-size: 10.2px;" transform="translate(35.65625,123.1376953125)" y="0" x="0" id="text-entity-EVENT-12434316-4a87-5800-981a-68e9670d1fb3-attr-5-name" class="er entityLabel">country</text><rect height="22.091796875" width="21.5625" y="112.091796875" x="105.90625" class="er attributeBoxOdd"/><text style="dominant-baseline: middle; font-size: 10.2px;" transform="translate(110.90625,123.1376953125)" y="0" x="0" id="text-entity-EVENT-12434316-4a87-5800-981a-68e9670d1fb3-attr-5-key" class="er entityLabel"/><rect height="22.091796875" width="37.28125" y="112.091796875" x="127.46875" class="er attributeBoxOdd"/><text style="dominant-baseline: middle; font-size: 10.2px;" transform="translate(132.46875,123.1376953125)" y="0" x="0" id="text-entity-EVENT-12434316-4a87-5800-981a-68e9670d1fb3-attr-5-comment" class="er entityLabel"/><rect height="22" width="30.65625" y="134.18359375" x="0" class="er attributeBoxEven"/><text style="dominant-baseline: middle; font-size: 10.2px;" transform="translate(5,145.18359375)" y="0" x="0" id="text-entity-EVENT-12434316-4a87-5800-981a-68e9670d1fb3-attr-6-type" class="er entityLabel">int</text><rect height="22" width="75.25" y="134.18359375" x="30.65625" class="er attributeBoxEven"/><text style="dominant-baseline: middle; font-size: 10.2px;" transform="translate(35.65625,145.18359375)" y="0" x="0" id="text-entity-EVENT-12434316-4a87-5800-981a-68e9670d1fb3-attr-6-name" class="er entityLabel">stars</text><rect height="22" width="21.5625" y="134.18359375" x="105.90625" class="er attributeBoxEven"/><text style="dominant-baseline: middle; font-size: 10.2px;" transform="translate(110.90625,145.18359375)" y="0" x="0" id="text-entity-EVENT-12434316-4a87-5800-981a-68e9670d1fb3-attr-6-key" class="er entityLabel"/><rect height="22" width="37.28125" y="134.18359375" x="127.46875" class="er attributeBoxEven"/><text style="dominant-baseline: middle; font-size: 10.2px;" transform="translate(132.46875,145.18359375)" y="0" x="0" id="text-entity-EVENT-12434316-4a87-5800-981a-68e9670d1fb3-attr-6-comment" class="er entityLabel">1 to 4</text><rect height="22" width="30.65625" y="156.18359375" x="0" class="er attributeBoxOdd"/><text style="dominant-baseline: middle; font-size: 10.2px;" transform="translate(5,167.18359375)" y="0" x="0" id="text-entity-EVENT-12434316-4a87-5800-981a-68e9670d1fb3-attr-7-type" class="er entityLabel">date</text><rect height="22" width="75.25" y="156.18359375" x="30.65625" class="er attributeBoxOdd"/><text style="dominant-baseline: middle; font-size: 10.2px;" transform="translate(35.65625,167.18359375)" y="0" x="0" id="text-entity-EVENT-12434316-4a87-5800-981a-68e9670d1fb3-attr-7-name" class="er entityLabel">start_date</text><rect height="22" width="21.5625" y="156.18359375" x="105.90625" class="er attributeBoxOdd"/><text style="dominant-baseline: middle; font-size: 10.2px;" transform="translate(110.90625,167.18359375)" y="0" x="0" id="text-entity-EVENT-12434316-4a87-5800-981a-68e9670d1fb3-attr-7-key" class="er entityLabel"/><rect height="22" width="37.28125" y="156.18359375" x="127.46875" class="er attributeBoxOdd"/><text style="dominant-baseline: middle; font-size: 10.2px;" transform="translate(132.46875,167.18359375)" y="0" x="0" id="text-entity-EVENT-12434316-4a87-5800-981a-68e9670d1fb3-attr-7-comment" class="er entityLabel"/><rect height="22" width="30.65625" y="178.18359375" x="0" class="er attributeBoxEven"/><text style="dominant-baseline: middle; font-size: 10.2px;" transform="translate(5,189.18359375)" y="0" x="0" id="text-entity-EVENT-12434316-4a87-5800-981a-68e9670d1fb3-attr-8-type" class="er entityLabel">date</text><rect height="22" width="75.25" y="178.18359375" x="30.65625" class="er attributeBoxEven"/><text style="dominant-baseline: middle; font-size: 10.2px;" transform="translate(35.65625,189.18359375)" y="0" x="0" id="text-entity-EVENT-12434316-4a87-5800-981a-68e9670d1fb3-attr-8-name" class="er entityLabel">end_date</text><rect height="22" width="21.5625" y="178.18359375" x="105.90625" class="er attributeBoxEven"/><text style="dominant-baseline: middle; font-size: 10.2px;" transform="translate(110.90625,189.18359375)" y="0" x="0" id="text-entity-EVENT-12434316-4a87-5800-981a-68e9670d1fb3-attr-8-key" class="er entityLabel"/><rect height="22" width="37.28125" y="178.18359375" x="127.46875" class="er attributeBoxEven"/><text style="dominant-baseline: middle; font-size: 10.2px;" transform="translate(132.46875,189.18359375)" y="0" x="0" id="text-entity-EVENT-12434316-4a87-5800-981a-68e9670d1fb3-attr-8-comment" class="er entityLabel"/><rect height="22" width="30.65625" y="200.18359375" x="0" class="er attributeBoxOdd"/><text style="dominant-baseline: middle; font-size: 10.2px;" transform="translate(5,211.18359375)" y="0" x="0" id="text-entity-EVENT-12434316-4a87-5800-981a-68e9670d1fb3-attr-9-type" class="er entityLabel">text</text><rect height="22" width="75.25" y="200.18359375" x="30.65625" class="er attributeBoxOdd"/><text style="dominant-baseline: middle; font-size: 10.2px;" transform="translate(35.65625,211.18359375)" y="0" x="0" id="text-entity-EVENT-12434316-4a87-5800-981a-68e9670d1fb3-attr-9-name" class="er entityLabel">contact_email</text><rect height="22" width="21.5625" y="200.18359375" x="105.90625" class="er attributeBoxOdd"/><text style="dominant-baseline: middle; font-size: 10.2px;" transform="translate(110.90625,211.18359375)" y="0" x="0" id="text-entity-EVENT-12434316-4a87-5800-981a-68e9670d1fb3-attr-9-key" class="er entityLabel"/><rect height="22" width="37.28125" y="200.18359375" x="127.46875" class="er attributeBoxOdd"/><text style="dominant-baseline: middle; font-size: 10.2px;" transform="translate(132.46875,211.18359375)" y="0" x="0" id="text-entity-EVENT-12434316-4a87-5800-981a-68e9670d1fb3-attr-9-comment" class="er entityLabel"/></g><g transform="translate(39.5859375,521.5048828125 )" id="entity-VENUE-4b9301ab-73c0-5f41-b2c2-2f413c92ad96"><rect height="112" width="125.578125" y="0" x="0" class="er entityBox"/><text style="dominant-baseline: middle; text-anchor: middle; font-size: 12px;" transform="translate(62.7890625,12)" y="0" x="0" id="text-entity-VENUE-4b9301ab-73c0-5f41-b2c2-2f413c92ad96" class="er entityLabel">VENUE</text><rect height="22" width="28.765625" y="24" x="0" class="er attributeBoxOdd"/><text style="dominant-baseline: middle; font-size: 10.2px;" transform="translate(5,35)" y="0" x="0" id="text-entity-VENUE-4b9301ab-73c0-5f41-b2c2-2f413c92ad96-attr-1-type" class="er entityLabel">int</text><rect height="22" width="75.25" y="24" x="28.765625" class="er attributeBoxOdd"/><text style="dominant-baseline: middle; font-size: 10.2px;" transform="translate(33.765625,35)" y="0" x="0" id="text-entity-VENUE-4b9301ab-73c0-5f41-b2c2-2f413c92ad96-attr-1-name" class="er entityLabel">id</text><rect height="22" width="21.5625" y="24" x="104.015625" class="er attributeBoxOdd"/><text style="dominant-baseline: middle; font-size: 10.2px;" transform="translate(109.015625,35)" y="0" x="0" id="text-entity-VENUE-4b9301ab-73c0-5f41-b2c2-2f413c92ad96-attr-1-key" class="er entityLabel">PK</text><rect height="22" width="28.765625" y="46" x="0" class="er attributeBoxEven"/><text style="dominant-baseline: middle; font-size: 10.2px;" transform="translate(5,57)" y="0" x="0" id="text-entity-VENUE-4b9301ab-73c0-5f41-b2c2-2f413c92ad96-attr-2-type" class="er entityLabel">text</text><rect height="22" width="75.25" y="46" x="28.765625" class="er attributeBoxEven"/><text style="dominant-baseline: middle; font-size: 10.2px;" transform="translate(33.765625,57)" y="0" x="0" id="text-entity-VENUE-4b9301ab-73c0-5f41-b2c2-2f413c92ad96-attr-2-name" class="er entityLabel">name</text><rect height="22" width="21.5625" y="46" x="104.015625" class="er attributeBoxEven"/><text style="dominant-baseline: middle; font-size: 10.2px;" transform="translate(109.015625,57)" y="0" x="0" id="text-entity-VENUE-4b9301ab-73c0-5f41-b2c2-2f413c92ad96-attr-2-key" class="er entityLabel"/><rect height="22" width="28.765625" y="68" x="0" class="er attributeBoxOdd"/><text style="dominant-baseline: middle; font-size: 10.2px;" transform="translate(5,79)" y="0" x="0" id="text-entity-VENUE-4b9301ab-73c0-5f41-b2c2-2f413c92ad96-attr-3-type" class="er entityLabel">text</text><rect height="22" width="75.25" y="68" x="28.765625" class="er attributeBoxOdd"/><text style="dominant-baseline: middle; font-size: 10.2px;" transform="translate(33.765625,79)" y="0" x="0" id="text-entity-VENUE-4b9301ab-73c0-5f41-b2c2-2f413c92ad96-attr-3-name" class="er entityLabel">address</text><rect height="22" width="21.5625" y="68" x="104.015625" class="er attributeBoxOdd"/><text style="dominant-baseline: middle; font-size: 10.2px;" transform="translate(109.015625,79)" y="0" x="0" id="text-entity-VENUE-4b9301ab-73c0-5f41-b2c2-2f413c92ad96-attr-3-key" class="er entityLabel"/><rect height="22" width="28.765625" y="90" x="0" class="er attributeBoxEven"/><text style="dominant-baseline: middle; font-size: 10.2px;" transform="translate(5,101)" y="0" x="0" id="text-entity-VENUE-4b9301ab-73c0-5f41-b2c2-2f413c92ad96-attr-4-type" class="er entityLabel">text</text><rect height="22" width="75.25" y="90" x="28.765625" class="er attributeBoxEven"/><text style="dominant-baseline: middle; font-size: 10.2px;" transform="translate(33.765625,101)" y="0" x="0" id="text-entity-VENUE-4b9301ab-73c0-5f41-b2c2-2f413c92ad96-attr-4-name" class="er entityLabel">contact_email</text><rect height="22" width="21.5625" y="90" x="104.015625" class="er attributeBoxEven"/><text style="dominant-baseline: middle; font-size: 10.2px;" transform="translate(109.015625,101)" y="0" x="0" id="text-entity-VENUE-4b9301ab-73c0-5f41-b2c2-2f413c92ad96-attr-4-key" class="er entityLabel"/></g><g transform="translate(343.17578125,232.18359375 )" id="entity-COMPETITOR-cea53f97-9775-59c8-aa36-084c7041798a"><rect height="134.18359375" width="181.296875" y="0" x="0" class="er entityBox"/><text style="dominant-baseline: middle; text-anchor: middle; font-size: 12px;" transform="translate(90.6484375,12)" y="0" x="0" id="text-entity-COMPETITOR-cea53f97-9775-59c8-aa36-084c7041798a" class="er entityLabel">COMPETITOR</text><rect height="22" width="30.65625" y="24" x="0" class="er attributeBoxOdd"/><text style="dominant-baseline: middle; font-size: 10.2px;" transform="translate(5,35)" y="0" x="0" id="text-entity-COMPETITOR-cea53f97-9775-59c8-aa36-084c7041798a-attr-1-type" class="er entityLabel">int</text><rect height="22" width="99.84375" y="24" x="30.65625" class="er attributeBoxOdd"/><text style="dominant-baseline: middle; font-size: 10.2px;" transform="translate(35.65625,35)" y="0" x="0" id="text-entity-COMPETITOR-cea53f97-9775-59c8-aa36-084c7041798a-attr-1-name" class="er entityLabel">id</text><rect height="22" width="21.5625" y="24" x="130.5" class="er attributeBoxOdd"/><text style="dominant-baseline: middle; font-size: 10.2px;" transform="translate(135.5,35)" y="0" x="0" id="text-entity-COMPETITOR-cea53f97-9775-59c8-aa36-084c7041798a-attr-1-key" class="er entityLabel">PK</text><rect height="22" width="29.234375" y="24" x="152.0625" class="er attributeBoxOdd"/><text style="dominant-baseline: middle; font-size: 10.2px;" transform="translate(157.0625,35)" y="0" x="0" id="text-entity-COMPETITOR-cea53f97-9775-59c8-aa36-084c7041798a-attr-1-comment" class="er entityLabel"/><rect height="22" width="30.65625" y="46" x="0" class="er attributeBoxEven"/><text style="dominant-baseline: middle; font-size: 10.2px;" transform="translate(5,57)" y="0" x="0" id="text-entity-COMPETITOR-cea53f97-9775-59c8-aa36-084c7041798a-attr-2-type" class="er entityLabel">int</text><rect height="22" width="99.84375" y="46" x="30.65625" class="er attributeBoxEven"/><text style="dominant-baseline: middle; font-size: 10.2px;" transform="translate(35.65625,57)" y="0" x="0" id="text-entity-COMPETITOR-cea53f97-9775-59c8-aa36-084c7041798a-attr-2-name" class="er entityLabel">user_id</text><rect height="22" width="21.5625" y="46" x="130.5" class="er attributeBoxEven"/><text style="dominant-baseline: middle; font-size: 10.2px;" transform="translate(135.5,57)" y="0" x="0" id="text-entity-COMPETITOR-cea53f97-9775-59c8-aa36-084c7041798a-attr-2-key" class="er entityLabel">FK</text><rect height="22" width="29.234375" y="46" x="152.0625" class="er attributeBoxEven"/><text style="dominant-baseline: middle; font-size: 10.2px;" transform="translate(157.0625,57)" y="0" x="0" id="text-entity-COMPETITOR-cea53f97-9775-59c8-aa36-084c7041798a-attr-2-comment" class="er entityLabel">user</text><rect height="22.091796875" width="30.65625" y="68" x="0" class="er attributeBoxOdd"/><text style="dominant-baseline: middle; font-size: 10.2px;" transform="translate(5,79.0458984375)" y="0" x="0" id="text-entity-COMPETITOR-cea53f97-9775-59c8-aa36-084c7041798a-attr-3-type" class="er entityLabel">text</text><rect height="22.091796875" width="99.84375" y="68" x="30.65625" class="er attributeBoxOdd"/><text style="dominant-baseline: middle; font-size: 10.2px;" transform="translate(35.65625,79.0458984375)" y="0" x="0" id="text-entity-COMPETITOR-cea53f97-9775-59c8-aa36-084c7041798a-attr-3-name" class="er entityLabel">nationality</text><rect height="22.091796875" width="21.5625" y="68" x="130.5" class="er attributeBoxOdd"/><text style="dominant-baseline: middle; font-size: 10.2px;" transform="translate(135.5,79.0458984375)" y="0" x="0" id="text-entity-COMPETITOR-cea53f97-9775-59c8-aa36-084c7041798a-attr-3-key" class="er entityLabel"/><rect height="22.091796875" width="29.234375" y="68" x="152.0625" class="er attributeBoxOdd"/><text style="dominant-baseline: middle; font-size: 10.2px;" transform="translate(157.0625,79.0458984375)" y="0" x="0" id="text-entity-COMPETITOR-cea53f97-9775-59c8-aa36-084c7041798a-attr-3-comment" class="er entityLabel"/><rect height="22" width="30.65625" y="90.091796875" x="0" class="er attributeBoxEven"/><text style="dominant-baseline: middle; font-size: 10.2px;" transform="translate(5,101.091796875)" y="0" x="0" id="text-entity-COMPETITOR-cea53f97-9775-59c8-aa36-084c7041798a-attr-4-type" class="er entityLabel">date</text><rect height="22" width="99.84375" y="90.091796875" x="30.65625" class="er attributeBoxEven"/><text style="dominant-baseline: middle; font-size: 10.2px;" transform="translate(35.65625,101.091796875)" y="0" x="0" id="text-entity-COMPETITOR-cea53f97-9775-59c8-aa36-084c7041798a-attr-4-name" class="er entityLabel">date_of_birth</text><rect height="22" width="21.5625" y="90.091796875" x="130.5" class="er attributeBoxEven"/><text style="dominant-baseline: middle; font-size: 10.2px;" transform="translate(135.5,101.091796875)" y="0" x="0" id="text-entity-COMPETITOR-cea53f97-9775-59c8-aa36-084c7041798a-attr-4-key" class="er entityLabel"/><rect height="22" width="29.234375" y="90.091796875" x="152.0625" class="er attributeBoxEven"/><text style="dominant-baseline: middle; font-size: 10.2px;" transform="translate(157.0625,101.091796875)" y="0" x="0" id="text-entity-COMPETITOR-cea53f97-9775-59c8-aa36-084c7041798a-attr-4-comment" class="er entityLabel"/><rect height="22.091796875" width="30.65625" y="112.091796875" x="0" class="er attributeBoxOdd"/><text style="dominant-baseline: middle; font-size: 10.2px;" transform="translate(5,123.1376953125)" y="0" x="0" id="text-entity-COMPETITOR-cea53f97-9775-59c8-aa36-084c7041798a-attr-5-type" class="er entityLabel">text</text><rect height="22.091796875" width="99.84375" y="112.091796875" x="30.65625" class="er attributeBoxOdd"/><text style="dominant-baseline: middle; font-size: 10.2px;" transform="translate(35.65625,123.1376953125)" y="0" x="0" id="text-entity-COMPETITOR-cea53f97-9775-59c8-aa36-084c7041798a-attr-5-name" class="er entityLabel">emergency_contact</text><rect height="22.091796875" width="21.5625" y="112.091796875" x="130.5" class="er attributeBoxOdd"/><text style="dominant-baseline: middle; font-size: 10.2px;" transform="translate(135.5,123.1376953125)" y="0" x="0" id="text-entity-COMPETITOR-cea53f97-9775-59c8-aa36-084c7041798a-attr-5-key" class="er entityLabel"/><rect height="22.091796875" width="29.234375" y="112.091796875" x="152.0625" class="er attributeBoxOdd"/><text style="dominant-baseline: middle; font-size: 10.2px;" transform="translate(157.0625,123.1376953125)" y="0" x="0" id="text-entity-COMPETITOR-cea53f97-9775-59c8-aa36-084c7041798a-attr-5-comment" class="er entityLabel"/></g><g transform="translate(518.69921875,510.3671875 )" id="entity-USER-6e7e2962-0c6f-577d-a7fd-2ce3a0cfd2c8"><rect height="134.27539157867432" width="120.125" y="0" x="0" class="er entityBox"/><text style="dominant-baseline: middle; text-anchor: middle; font-size: 12px;" transform="translate(60.0625,12)" y="0" x="0" id="text-entity-USER-6e7e2962-0c6f-577d-a7fd-2ce3a0cfd2c8" class="er entityLabel">USER</text><rect height="22" width="28.765625" y="24" x="0" class="er attributeBoxOdd"/><text style="dominant-baseline: middle; font-size: 10.2px;" transform="translate(5,35)" y="0" x="0" id="text-entity-USER-6e7e2962-0c6f-577d-a7fd-2ce3a0cfd2c8-attr-1-type" class="er entityLabel">int</text><rect height="22" width="68.859375" y="24" x="28.765625" class="er attributeBoxOdd"/><text style="dominant-baseline: middle; font-size: 10.2px;" transform="translate(33.765625,35)" y="0" x="0" id="text-entity-USER-6e7e2962-0c6f-577d-a7fd-2ce3a0cfd2c8-attr-1-name" class="er entityLabel">id</text><rect height="22" width="22.5" y="24" x="97.625" class="er attributeBoxOdd"/><text style="dominant-baseline: middle; font-size: 10.2px;" transform="translate(102.625,35)" y="0" x="0" id="text-entity-USER-6e7e2962-0c6f-577d-a7fd-2ce3a0cfd2c8-attr-1-key" class="er entityLabel">PK</text><rect height="22" width="28.765625" y="46" x="0" class="er attributeBoxEven"/><text style="dominant-baseline: middle; font-size: 10.2px;" transform="translate(5,57)" y="0" x="0" id="text-entity-USER-6e7e2962-0c6f-577d-a7fd-2ce3a0cfd2c8-attr-2-type" class="er entityLabel">text</text><rect height="22" width="68.859375" y="46" x="28.765625" class="er attributeBoxEven"/><text style="dominant-baseline: middle; font-size: 10.2px;" transform="translate(33.765625,57)" y="0" x="0" id="text-entity-USER-6e7e2962-0c6f-577d-a7fd-2ce3a0cfd2c8-attr-2-name" class="er entityLabel">email</text><rect height="22" width="22.5" y="46" x="97.625" class="er attributeBoxEven"/><text style="dominant-baseline: middle; font-size: 10.2px;" transform="translate(102.625,57)" y="0" x="0" id="text-entity-USER-6e7e2962-0c6f-577d-a7fd-2ce3a0cfd2c8-attr-2-key" class="er entityLabel">UK</text><rect height="22.091796875" width="28.765625" y="68" x="0" class="er attributeBoxOdd"/><text style="dominant-baseline: middle; font-size: 10.2px;" transform="translate(5,79.0458984375)" y="0" x="0" id="text-entity-USER-6e7e2962-0c6f-577d-a7fd-2ce3a0cfd2c8-attr-3-type" class="er entityLabel">text</text><rect height="22.091796875" width="68.859375" y="68" x="28.765625" class="er attributeBoxOdd"/><text style="dominant-baseline: middle; font-size: 10.2px;" transform="translate(33.765625,79.0458984375)" y="0" x="0" id="text-entity-USER-6e7e2962-0c6f-577d-a7fd-2ce3a0cfd2c8-attr-3-name" class="er entityLabel">family_name</text><rect height="22.091796875" width="22.5" y="68" x="97.625" class="er attributeBoxOdd"/><text style="dominant-baseline: middle; font-size: 10.2px;" transform="translate(102.625,79.0458984375)" y="0" x="0" id="text-entity-USER-6e7e2962-0c6f-577d-a7fd-2ce3a0cfd2c8-attr-3-key" class="er entityLabel"/><rect height="22.091797828674316" width="28.765625" y="90.091796875" x="0" class="er attributeBoxEven"/><text style="dominant-baseline: middle; font-size: 10.2px;" transform="translate(5,101.13769578933716)" y="0" x="0" id="text-entity-USER-6e7e2962-0c6f-577d-a7fd-2ce3a0cfd2c8-attr-4-type" class="er entityLabel">text</text><rect height="22.091797828674316" width="68.859375" y="90.091796875" x="28.765625" class="er attributeBoxEven"/><text style="dominant-baseline: middle; font-size: 10.2px;" transform="translate(33.765625,101.13769578933716)" y="0" x="0" id="text-entity-USER-6e7e2962-0c6f-577d-a7fd-2ce3a0cfd2c8-attr-4-name" class="er entityLabel">given_names</text><rect height="22.091797828674316" width="22.5" y="90.091796875" x="97.625" class="er attributeBoxEven"/><text style="dominant-baseline: middle; font-size: 10.2px;" transform="translate(102.625,101.13769578933716)" y="0" x="0" id="text-entity-USER-6e7e2962-0c6f-577d-a7fd-2ce3a0cfd2c8-attr-4-key" class="er entityLabel"/><rect height="22.091796875" width="28.765625" y="112.18359470367432" x="0" class="er attributeBoxOdd"/><text style="dominant-baseline: middle; font-size: 10.2px;" transform="translate(5,123.22949314117432)" y="0" x="0" id="text-entity-USER-6e7e2962-0c6f-577d-a7fd-2ce3a0cfd2c8-attr-5-type" class="er entityLabel">text</text><rect height="22.091796875" width="68.859375" y="112.18359470367432" x="28.765625" class="er attributeBoxOdd"/><text style="dominant-baseline: middle; font-size: 10.2px;" transform="translate(33.765625,123.22949314117432)" y="0" x="0" id="text-entity-USER-6e7e2962-0c6f-577d-a7fd-2ce3a0cfd2c8-attr-5-name" class="er entityLabel">password</text><rect height="22.091796875" width="22.5" y="112.18359470367432" x="97.625" class="er attributeBoxOdd"/><text style="dominant-baseline: middle; font-size: 10.2px;" transform="translate(102.625,123.22949314117432)" y="0" x="0" id="text-entity-USER-6e7e2962-0c6f-577d-a7fd-2ce3a0cfd2c8-attr-5-key" class="er entityLabel"/></g><g transform="translate(644.9609375,265.275390625 )" id="entity-ORGANISER-cd469dfb-c04b-5570-900c-ec2445b10312"><rect height="68" width="116.5" y="0" x="0" class="er entityBox"/><text style="dominant-baseline: middle; text-anchor: middle; font-size: 12px;" transform="translate(58.25,12)" y="0" x="0" id="text-entity-ORGANISER-cd469dfb-c04b-5570-900c-ec2445b10312" class="er entityLabel">ORGANISER</text><rect height="22" width="22.53125" y="24" x="0" class="er attributeBoxOdd"/><text style="dominant-baseline: middle; font-size: 10.2px;" transform="translate(5,35)" y="0" x="0" id="text-entity-ORGANISER-cd469dfb-c04b-5570-900c-ec2445b10312-attr-1-type" class="er entityLabel">int</text><rect height="22" width="43.171875" y="24" x="22.53125" class="er attributeBoxOdd"/><text style="dominant-baseline: middle; font-size: 10.2px;" transform="translate(27.53125,35)" y="0" x="0" id="text-entity-ORGANISER-cd469dfb-c04b-5570-900c-ec2445b10312-attr-1-name" class="er entityLabel">id</text><rect height="22" width="21.5625" y="24" x="65.703125" class="er attributeBoxOdd"/><text style="dominant-baseline: middle; font-size: 10.2px;" transform="translate(70.703125,35)" y="0" x="0" id="text-entity-ORGANISER-cd469dfb-c04b-5570-900c-ec2445b10312-attr-1-key" class="er entityLabel">PK</text><rect height="22" width="29.234375" y="24" x="87.265625" class="er attributeBoxOdd"/><text style="dominant-baseline: middle; font-size: 10.2px;" transform="translate(92.265625,35)" y="0" x="0" id="text-entity-ORGANISER-cd469dfb-c04b-5570-900c-ec2445b10312-attr-1-comment" class="er entityLabel"/><rect height="22" width="22.53125" y="46" x="0" class="er attributeBoxEven"/><text style="dominant-baseline: middle; font-size: 10.2px;" transform="translate(5,57)" y="0" x="0" id="text-entity-ORGANISER-cd469dfb-c04b-5570-900c-ec2445b10312-attr-2-type" class="er entityLabel">int</text><rect height="22" width="43.171875" y="46" x="22.53125" class="er attributeBoxEven"/><text style="dominant-baseline: middle; font-size: 10.2px;" transform="translate(27.53125,57)" y="0" x="0" id="text-entity-ORGANISER-cd469dfb-c04b-5570-900c-ec2445b10312-attr-2-name" class="er entityLabel">user_id</text><rect height="22" width="21.5625" y="46" x="65.703125" class="er attributeBoxEven"/><text style="dominant-baseline: middle; font-size: 10.2px;" transform="translate(70.703125,57)" y="0" x="0" id="text-entity-ORGANISER-cd469dfb-c04b-5570-900c-ec2445b10312-attr-2-key" class="er entityLabel">FK</text><rect height="22" width="29.234375" y="46" x="87.265625" class="er attributeBoxEven"/><text style="dominant-baseline: middle; font-size: 10.2px;" transform="translate(92.265625,57)" y="0" x="0" id="text-entity-ORGANISER-cd469dfb-c04b-5570-900c-ec2445b10312-attr-2-comment" class="er entityLabel">user</text></g><g transform="translate(141.79296875,20 )" id="entity-EVENTENTRY-0143461a-79e8-57bc-a92d-4d3707322c6d"><rect height="68.18359470367432" width="194.1875" y="0" x="0" class="er entityBox"/><text style="dominant-baseline: middle; text-anchor: middle; font-size: 12px;" transform="translate(97.09375,12)" y="0" x="0" id="text-entity-EVENTENTRY-0143461a-79e8-57bc-a92d-4d3707322c6d" class="er entityLabel">EVENT_ENTRY</text><rect height="22.091797828674316" width="22.53125" y="24" x="0" class="er attributeBoxOdd"/><text style="dominant-baseline: middle; font-size: 10.2px;" transform="translate(5,35.04589891433716)" y="0" x="0" id="text-entity-EVENTENTRY-0143461a-79e8-57bc-a92d-4d3707322c6d-attr-1-type" class="er entityLabel">int</text><rect height="22.091797828674316" width="74.625" y="24" x="22.53125" class="er attributeBoxOdd"/><text style="dominant-baseline: middle; font-size: 10.2px;" transform="translate(27.53125,35.04589891433716)" y="0" x="0" id="text-entity-EVENTENTRY-0143461a-79e8-57bc-a92d-4d3707322c6d-attr-1-name" class="er entityLabel">competitor_id</text><rect height="22.091797828674316" width="21.234375" y="24" x="97.15625" class="er attributeBoxOdd"/><text style="dominant-baseline: middle; font-size: 10.2px;" transform="translate(102.15625,35.04589891433716)" y="0" x="0" id="text-entity-EVENTENTRY-0143461a-79e8-57bc-a92d-4d3707322c6d-attr-1-key" class="er entityLabel">FK</text><rect height="22.091797828674316" width="75.796875" y="24" x="118.390625" class="er attributeBoxOdd"/><text style="dominant-baseline: middle; font-size: 10.2px;" transform="translate(123.390625,35.04589891433716)" y="0" x="0" id="text-entity-EVENTENTRY-0143461a-79e8-57bc-a92d-4d3707322c6d-attr-1-comment" class="er entityLabel">compound key</text><rect height="22.091796875" width="22.53125" y="46.091797828674316" x="0" class="er attributeBoxEven"/><text style="dominant-baseline: middle; font-size: 10.2px;" transform="translate(5,57.137696266174316)" y="0" x="0" id="text-entity-EVENTENTRY-0143461a-79e8-57bc-a92d-4d3707322c6d-attr-2-type" class="er entityLabel">int</text><rect height="22.091796875" width="74.625" y="46.091797828674316" x="22.53125" class="er attributeBoxEven"/><text style="dominant-baseline: middle; font-size: 10.2px;" transform="translate(27.53125,57.137696266174316)" y="0" x="0" id="text-entity-EVENTENTRY-0143461a-79e8-57bc-a92d-4d3707322c6d-attr-2-name" class="er entityLabel">event_id</text><rect height="22.091796875" width="21.234375" y="46.091797828674316" x="97.15625" class="er attributeBoxEven"/><text style="dominant-baseline: middle; font-size: 10.2px;" transform="translate(102.15625,57.137696266174316)" y="0" x="0" id="text-entity-EVENTENTRY-0143461a-79e8-57bc-a92d-4d3707322c6d-attr-2-key" class="er entityLabel">FK</text><rect height="22.091796875" width="75.796875" y="46.091797828674316" x="118.390625" class="er attributeBoxEven"/><text style="dominant-baseline: middle; font-size: 10.2px;" transform="translate(123.390625,57.137696266174316)" y="0" x="0" id="text-entity-EVENTENTRY-0143461a-79e8-57bc-a92d-4d3707322c6d-attr-2-comment" class="er entityLabel">compound key</text></g><g transform="translate(435.98046875,20 )" id="entity-EVENTORGANISER-a3467af2-bfa7-5ab1-aee1-36838cee266d"><rect height="68.18359470367432" width="185.5625" y="0" x="0" class="er entityBox"/><text style="dominant-baseline: middle; text-anchor: middle; font-size: 12px;" transform="translate(92.78125,12)" y="0" x="0" id="text-entity-EVENTORGANISER-a3467af2-bfa7-5ab1-aee1-36838cee266d" class="er entityLabel">EVENT_ORGANISER</text><rect height="22.091796875" width="22.53125" y="24" x="0" class="er attributeBoxOdd"/><text style="dominant-baseline: middle; font-size: 10.2px;" transform="translate(5,35.0458984375)" y="0" x="0" id="text-entity-EVENTORGANISER-a3467af2-bfa7-5ab1-aee1-36838cee266d-attr-1-type" class="er entityLabel">int</text><rect height="22.091796875" width="66" y="24" x="22.53125" class="er attributeBoxOdd"/><text style="dominant-baseline: middle; font-size: 10.2px;" transform="translate(27.53125,35.0458984375)" y="0" x="0" id="text-entity-EVENTORGANISER-a3467af2-bfa7-5ab1-aee1-36838cee266d-attr-1-name" class="er entityLabel">event_id</text><rect height="22.091796875" width="21.234375" y="24" x="88.53125" class="er attributeBoxOdd"/><text style="dominant-baseline: middle; font-size: 10.2px;" transform="translate(93.53125,35.0458984375)" y="0" x="0" id="text-entity-EVENTORGANISER-a3467af2-bfa7-5ab1-aee1-36838cee266d-attr-1-key" class="er entityLabel">FK</text><rect height="22.091796875" width="75.796875" y="24" x="109.765625" class="er attributeBoxOdd"/><text style="dominant-baseline: middle; font-size: 10.2px;" transform="translate(114.765625,35.0458984375)" y="0" x="0" id="text-entity-EVENTORGANISER-a3467af2-bfa7-5ab1-aee1-36838cee266d-attr-1-comment" class="er entityLabel">compound key</text><rect height="22.091797828674316" width="22.53125" y="46.091796875" x="0" class="er attributeBoxEven"/><text style="dominant-baseline: middle; font-size: 10.2px;" transform="translate(5,57.13769578933716)" y="0" x="0" id="text-entity-EVENTORGANISER-a3467af2-bfa7-5ab1-aee1-36838cee266d-attr-2-type" class="er entityLabel">int</text><rect height="22.091797828674316" width="66" y="46.091796875" x="22.53125" class="er attributeBoxEven"/><text style="dominant-baseline: middle; font-size: 10.2px;" transform="translate(27.53125,57.13769578933716)" y="0" x="0" id="text-entity-EVENTORGANISER-a3467af2-bfa7-5ab1-aee1-36838cee266d-attr-2-name" class="er entityLabel">organiser_id</text><rect height="22.091797828674316" width="21.234375" y="46.091796875" x="88.53125" class="er attributeBoxEven"/><text style="dominant-baseline: middle; font-size: 10.2px;" transform="translate(93.53125,57.13769578933716)" y="0" x="0" id="text-entity-EVENTORGANISER-a3467af2-bfa7-5ab1-aee1-36838cee266d-attr-2-key" class="er entityLabel">FK</text><rect height="22.091797828674316" width="75.796875" y="46.091796875" x="109.765625" class="er attributeBoxEven"/><text style="dominant-baseline: middle; font-size: 10.2px;" transform="translate(114.765625,57.13769578933716)" y="0" x="0" id="text-entity-EVENTORGANISER-a3467af2-bfa7-5ab1-aee1-36838cee266d-attr-2-comment" class="er entityLabel">compound</text></g><rect height="14" width="75.828125" y="458.9360046386719" x="64.4609375" class="er relationshipLabelBox"/><text style="text-anchor: middle; dominant-baseline: middle; font-size: 12px;" y="465.9360046386719" x="102.375" id="rel1" class="er relationshipLabel">takes place at</text><rect height="0" width="0" y="460.67388916015625" x="450.4924011230469" class="er relationshipLabelBox"/><text style="text-anchor: middle; dominant-baseline: middle; font-size: 12px;" y="460.67388916015625" x="450.4924011230469" id="rel2" class="er relationshipLabel"/><rect height="0" width="0" y="436.6002197265625" x="696.142822265625" class="er relationshipLabelBox"/><text style="text-anchor: middle; dominant-baseline: middle; font-size: 12px;" y="436.6002197265625" x="696.142822265625" id="rel3" class="er relationshipLabel"/><rect height="14" width="55.90625" y="116.01995849609375" x="65.03218078613281" class="er relationshipLabelBox"/><text style="text-anchor: middle; dominant-baseline: middle; font-size: 12px;" y="123.01995849609375" x="92.98530578613281" id="rel4" class="er relationshipLabel">entered in</text><rect height="14" width="40.15625" y="130.23776245117188" x="386.74981689453125" class="er relationshipLabelBox"/><text style="text-anchor: middle; dominant-baseline: middle; font-size: 12px;" y="137.23776245117188" x="406.82794189453125" id="rel5" class="er relationshipLabel">entrant</text><rect height="13.999992370605469" width="67.71875" y="119.24747848510742" x="266.27630615234375" class="er relationshipLabelBox"/><text style="text-anchor: middle; dominant-baseline: middle; font-size: 12px;" y="126.24747467041016" x="300.13568115234375" id="rel6" class="er relationshipLabel">organised by</text><rect height="14" width="49.671875" y="147.6854248046875" x="663.106689453125" class="er relationshipLabelBox"/><text style="text-anchor: middle; dominant-baseline: middle; font-size: 12px;" y="154.6854248046875" x="687.942626953125" id="rel7" class="er relationshipLabel">organises</text><text class="entityTitleText" y="-25" x="390.73046875" text-anchor="middle">IFA Tables</text></svg>