<svg aria-roledescription="class" role="graphics-document document" viewBox="0 0 3620.578125 682" style="max-width: 3620.58px; background-color: white;" class="classDiagram" xmlns:xlink="http://www.w3.org/1999/xlink" xmlns="http://www.w3.org/2000/svg" width="100%" id="my-svg"><style>#my-svg{font-family:Arial;font-size:24px;fill:#000000;}#my-svg .error-icon{fill:#552222;}#my-svg .error-text{fill:#552222;stroke:#552222;}#my-svg .edge-thickness-normal{stroke-width:1px;}#my-svg .edge-thickness-thick{stroke-width:3.5px;}#my-svg .edge-pattern-solid{stroke-dasharray:0;}#my-svg .edge-thickness-invisible{stroke-width:0;fill:none;}#my-svg .edge-pattern-dashed{stroke-dasharray:3;}#my-svg .edge-pattern-dotted{stroke-dasharray:2;}#my-svg .marker{fill:#000000;stroke:#000000;}#my-svg .marker.cross{stroke:#000000;}#my-svg svg{font-family:Arial;font-size:24px;}#my-svg p{margin:0;}#my-svg g.classGroup text{fill:#13540c;stroke:none;font-family:Arial;font-size:10px;}#my-svg g.classGroup text .title{font-weight:bolder;}#my-svg .nodeLabel,#my-svg .edgeLabel{color:#321b67;}#my-svg .edgeLabel .label rect{fill:#cde498;}#my-svg .label text{fill:#321b67;}#my-svg .labelBkg{background:#cde498;}#my-svg .edgeLabel .label span{background:#cde498;}#my-svg .classTitle{font-weight:bolder;}#my-svg .node rect,#my-svg .node circle,#my-svg .node ellipse,#my-svg .node polygon,#my-svg .node path{fill:#cde498;stroke:#13540c;stroke-width:1px;}#my-svg .divider{stroke:#13540c;stroke-width:1;}#my-svg g.clickable{cursor:pointer;}#my-svg g.classGroup rect{fill:#cde498;stroke:#13540c;}#my-svg g.classGroup line{stroke:#13540c;stroke-width:1;}#my-svg .classLabel .box{stroke:none;stroke-width:0;fill:#cde498;opacity:0.5;}#my-svg .classLabel .label{fill:#13540c;font-size:10px;}#my-svg .relation{stroke:#000000;stroke-width:1;fill:none;}#my-svg .dashed-line{stroke-dasharray:3;}#my-svg .dotted-line{stroke-dasharray:1 2;}#my-svg #compositionStart,#my-svg .composition{fill:#000000!important;stroke:#000000!important;stroke-width:1;}#my-svg #compositionEnd,#my-svg .composition{fill:#000000!important;stroke:#000000!important;stroke-width:1;}#my-svg #dependencyStart,#my-svg .dependency{fill:#000000!important;stroke:#000000!important;stroke-width:1;}#my-svg #dependencyStart,#my-svg .dependency{fill:#000000!important;stroke:#000000!important;stroke-width:1;}#my-svg #extensionStart,#my-svg .extension{fill:transparent!important;stroke:#000000!important;stroke-width:1;}#my-svg #extensionEnd,#my-svg .extension{fill:transparent!important;stroke:#000000!important;stroke-width:1;}#my-svg #aggregationStart,#my-svg .aggregation{fill:transparent!important;stroke:#000000!important;stroke-width:1;}#my-svg #aggregationEnd,#my-svg .aggregation{fill:transparent!important;stroke:#000000!important;stroke-width:1;}#my-svg #lollipopStart,#my-svg .lollipop{fill:#cde498!important;stroke:#000000!important;stroke-width:1;}#my-svg #lollipopEnd,#my-svg .lollipop{fill:#cde498!important;stroke:#000000!important;stroke-width:1;}#my-svg .edgeTerminals{font-size:11px;line-height:initial;}#my-svg .classTitleText{text-anchor:middle;font-size:18px;fill:#000000;}#my-svg :root{--mermaid-font-family:"trebuchet ms",verdana,arial,sans-serif;}</style><g><defs><marker orient="auto" markerHeight="240" markerWidth="190" refY="7" refX="18" class="marker aggregation class" id="my-svg_class-aggregationStart"><path d="M 18,7 L9,13 L1,7 L9,1 Z"/></marker></defs><defs><marker orient="auto" markerHeight="28" markerWidth="20" refY="7" refX="1" class="marker aggregation class" id="my-svg_class-aggregationEnd"><path d="M 18,7 L9,13 L1,7 L9,1 Z"/></marker></defs><defs><marker orient="auto" markerHeight="240" markerWidth="190" refY="7" refX="18" class="marker extension class" id="my-svg_class-extensionStart"><path d="M 1,7 L18,13 V 1 Z"/></marker></defs><defs><marker orient="auto" markerHeight="28" markerWidth="20" refY="7" refX="1" class="marker extension class" id="my-svg_class-extensionEnd"><path d="M 1,1 V 13 L18,7 Z"/></marker></defs><defs><marker orient="auto" markerHeight="240" markerWidth="190" refY="7" refX="18" class="marker composition class" id="my-svg_class-compositionStart"><path d="M 18,7 L9,13 L1,7 L9,1 Z"/></marker></defs><defs><marker orient="auto" markerHeight="28" markerWidth="20" refY="7" refX="1" class="marker composition class" id="my-svg_class-compositionEnd"><path d="M 18,7 L9,13 L1,7 L9,1 Z"/></marker></defs><defs><marker orient="auto" markerHeight="240" markerWidth="190" refY="7" refX="6" class="marker dependency class" id="my-svg_class-dependencyStart"><path d="M 5,7 L9,13 L1,7 L9,1 Z"/></marker></defs><defs><marker orient="auto" markerHeight="28" markerWidth="20" refY="7" refX="13" class="marker dependency class" id="my-svg_class-dependencyEnd"><path d="M 18,7 L9,13 L14,7 L9,1 Z"/></marker></defs><defs><marker orient="auto" markerHeight="240" markerWidth="190" refY="7" refX="13" class="marker lollipop class" id="my-svg_class-lollipopStart"><circle r="6" cy="7" cx="7" fill="transparent" stroke="black"/></marker></defs><defs><marker orient="auto" markerHeight="240" markerWidth="190" refY="7" refX="1" class="marker lollipop class" id="my-svg_class-lollipopEnd"><circle r="6" cy="7" cx="7" fill="transparent" stroke="black"/></marker></defs><g class="root"><g class="clusters"/><g class="edgePaths"/><g class="edgeLabels"/><g class="nodes"><g transform="translate(196, 341)" id="classId-Top-levelWindows-0" class="node default"><g class="basic label-container"><path style="" fill="#cde498" stroke-width="0" stroke="none" d="M-188 -144 L188 -144 L188 144 L-188 144"/><path style="" fill="none" stroke-width="1.3" stroke="#13540c" d="M-188 -144 C-84.50061789215255 -144, 18.998764215694905 -144, 188 -144 M-188 -144 C-48.40445138870811 -144, 91.19109722258378 -144, 188 -144 M188 -144 C188 -81.22274531035082, 188 -18.445490620701634, 188 144 M188 -144 C188 -71.87153844500708, 188 0.25692310998584844, 188 144 M188 144 C57.48554675094107 144, -73.02890649811786 144, -188 144 M188 144 C56.462095048807356 144, -75.07580990238529 144, -188 144 M-188 144 C-188 29.324854313174058, -188 -85.35029137365188, -188 -144 M-188 144 C-188 63.07675182911376, -188 -17.84649634177248, -188 -144"/></g><g transform="translate(0, -120)" class="annotation-group text"/><g transform="translate(-86, -120)" class="label-group text"><g transform="translate(0,-36)" style="font-weight: bolder" class="label"><foreignObject height="72" width="172"><div style="display: table; white-space: break-spaces; line-height: 1.5; max-width: 172px; text-align: center; width: 172px;" xmlns="http://www.w3.org/1999/xhtml"><span style="" class="nodeLabel markdown-node-label"><p>Top-levelWindows</p></span></div></foreignObject></g></g><g transform="translate(-176, -24)" class="members-group text"><g transform="translate(0,-36)" style="" class="label"><foreignObject height="72" width="263"><div style="display: table; white-space: break-spaces; line-height: 1.5; max-width: 263px; text-align: center; width: 263px;" xmlns="http://www.w3.org/1999/xhtml"><span style="" class="nodeLabel markdown-node-label"><p>-- Tk : Main application window</p></span></div></foreignObject></g><g transform="translate(0,36)" style="" class="label"><foreignObject height="72" width="266"><div style="display: table; white-space: break-spaces; line-height: 1.5; max-width: 266px; text-align: center; width: 266px;" xmlns="http://www.w3.org/1999/xhtml"><span style="" class="nodeLabel markdown-node-label"><p>-- Toplevel : Additional windows</p></span></div></foreignObject></g></g><g transform="translate(-176, 144)" class="methods-group text"/><g style="" class="divider"><path style="" fill="none" stroke-width="1.3" stroke="#13540c" d="M-188 -48 C-105.80341030096058 -48, -23.606820601921157 -48, 188 -48 M-188 -48 C-62.024955363554355 -48, 63.95008927289129 -48, 188 -48"/></g><g style="" class="divider"><path style="" fill="none" stroke-width="1.3" stroke="#13540c" d="M-188 120 C-53.26979256681133 120, 81.46041486637733 120, 188 120 M-188 120 C-41.54826476272618 120, 104.90347047454765 120, 188 120"/></g></g><g transform="translate(636.7890625, 341)" id="classId-FrameWidgets-1" class="node default"><g class="basic label-container"><path style="" fill="#cde498" stroke-width="0" stroke="none" d="M-202.7890625 -153 L202.7890625 -153 L202.7890625 153 L-202.7890625 153"/><path style="" fill="none" stroke-width="1.3" stroke="#13540c" d="M-202.7890625 -153 C-67.21360497844609 -153, 68.36185254310783 -153, 202.7890625 -153 M-202.7890625 -153 C-60.25235992493205 -153, 82.2843426501359 -153, 202.7890625 -153 M202.7890625 -153 C202.7890625 -66.73105544630026, 202.7890625 19.53788910739948, 202.7890625 153 M202.7890625 -153 C202.7890625 -32.678776057119634, 202.7890625 87.64244788576073, 202.7890625 153 M202.7890625 153 C41.22558098313618 153, -120.33790053372763 153, -202.7890625 153 M202.7890625 153 C84.36386066747498 153, -34.06134116505004 153, -202.7890625 153 M-202.7890625 153 C-202.7890625 39.240912200133366, -202.7890625 -74.51817559973327, -202.7890625 -153 M-202.7890625 153 C-202.7890625 30.650889922076303, -202.7890625 -91.6982201558474, -202.7890625 -153"/></g><g transform="translate(0, -129)" class="annotation-group text"/><g transform="translate(-82.578125, -129)" class="label-group text"><g transform="translate(0,-18)" style="font-weight: bolder" class="label"><foreignObject height="36" width="165.15625"><div style="display: table; white-space: break-spaces; line-height: 1.5; max-width: 144px; text-align: center; width: 144px;" xmlns="http://www.w3.org/1999/xhtml"><span style="" class="nodeLabel markdown-node-label"><p>FrameWidgets</p></span></div></foreignObject></g></g><g transform="translate(-190.7890625, -69)" class="members-group text"><g transform="translate(0,-36)" style="" class="label"><foreignObject height="72" width="299"><div style="display: table; white-space: break-spaces; line-height: 1.5; max-width: 299px; text-align: center; width: 299px;" xmlns="http://www.w3.org/1999/xhtml"><span style="" class="nodeLabel markdown-node-label"><p>-- Frame : Container for other widgets</p></span></div></foreignObject></g><g transform="translate(0,36)" style="" class="label"><foreignObject height="72" width="289"><div style="display: table; white-space: break-spaces; line-height: 1.5; max-width: 289px; text-align: center; width: 289px;" xmlns="http://www.w3.org/1999/xhtml"><span style="" class="nodeLabel markdown-node-label"><p>-- LabelFrame : Container with label</p></span></div></foreignObject></g><g transform="translate(0,108)" style="" class="label"><foreignObject height="72" width="278"><div style="display: table; white-space: break-spaces; line-height: 1.5; max-width: 278px; text-align: center; width: 278px;" xmlns="http://www.w3.org/1999/xhtml"><span style="" class="nodeLabel markdown-node-label"><p>-- PanedWindow : Resizable panes</p></span></div></foreignObject></g></g><g transform="translate(-190.7890625, 171)" class="methods-group text"/><g style="" class="divider"><path style="" fill="none" stroke-width="1.3" stroke="#13540c" d="M-202.7890625 -93 C-96.71975436244523 -93, 9.349553775109541 -93, 202.7890625 -93 M-202.7890625 -93 C-57.978999512799476 -93, 86.83106347440105 -93, 202.7890625 -93"/></g><g style="" class="divider"><path style="" fill="none" stroke-width="1.3" stroke="#13540c" d="M-202.7890625 147 C-68.71237006065877 147, 65.36432237868246 147, 202.7890625 147 M-202.7890625 147 C-47.07744089706921 147, 108.63418070586158 147, 202.7890625 147"/></g></g><g transform="translate(1095.37109375, 341)" id="classId-BasicWidgets-2" class="node default"><g class="basic label-container"><path style="" fill="#cde498" stroke-width="0" stroke="none" d="M-205.79296875 -261 L205.79296875 -261 L205.79296875 261 L-205.79296875 261"/><path style="" fill="none" stroke-width="1.3" stroke="#13540c" d="M-205.79296875 -261 C-77.59944465355676 -261, 50.59407944288648 -261, 205.79296875 -261 M-205.79296875 -261 C-65.6607758420796 -261, 74.4714170658408 -261, 205.79296875 -261 M205.79296875 -261 C205.79296875 -121.16484403375969, 205.79296875 18.670311932480615, 205.79296875 261 M205.79296875 -261 C205.79296875 -98.1910096869756, 205.79296875 64.61798062604879, 205.79296875 261 M205.79296875 261 C41.434059957893766 261, -122.92484883421247 261, -205.79296875 261 M205.79296875 261 C113.2986215024132 261, 20.804274254826396 261, -205.79296875 261 M-205.79296875 261 C-205.79296875 149.4183077554693, -205.79296875 37.83661551093857, -205.79296875 -261 M-205.79296875 261 C-205.79296875 126.7866487170067, -205.79296875 -7.426702565986602, -205.79296875 -261"/></g><g transform="translate(0, -237)" class="annotation-group text"/><g transform="translate(-78.5859375, -237)" class="label-group text"><g transform="translate(0,-18)" style="font-weight: bolder" class="label"><foreignObject height="36" width="157.171875"><div style="display: table; white-space: break-spaces; line-height: 1.5; max-width: 138px; text-align: center; width: 138px;" xmlns="http://www.w3.org/1999/xhtml"><span style="" class="nodeLabel markdown-node-label"><p>BasicWidgets</p></span></div></foreignObject></g></g><g transform="translate(-193.79296875, -177)" class="members-group text"><g transform="translate(0,-36)" style="" class="label"><foreignObject height="72" width="243"><div style="display: table; white-space: break-spaces; line-height: 1.5; max-width: 243px; text-align: center; width: 243px;" xmlns="http://www.w3.org/1999/xhtml"><span style="" class="nodeLabel markdown-node-label"><p>-- Label : Static text or image</p></span></div></foreignObject></g><g transform="translate(0,36)" style="" class="label"><foreignObject height="72" width="296"><div style="display: table; white-space: break-spaces; line-height: 1.5; max-width: 296px; text-align: center; width: 296px;" xmlns="http://www.w3.org/1999/xhtml"><span style="" class="nodeLabel markdown-node-label"><p>-- Button : Click to execute command</p></span></div></foreignObject></g><g transform="translate(0,108)" style="" class="label"><foreignObject height="72" width="224"><div style="display: table; white-space: break-spaces; line-height: 1.5; max-width: 224px; text-align: center; width: 224px;" xmlns="http://www.w3.org/1999/xhtml"><span style="" class="nodeLabel markdown-node-label"><p>-- Entry : Single-line input</p></span></div></foreignObject></g><g transform="translate(0,180)" style="" class="label"><foreignObject height="72" width="211"><div style="display: table; white-space: break-spaces; line-height: 1.5; max-width: 211px; text-align: center; width: 211px;" xmlns="http://www.w3.org/1999/xhtml"><span style="" class="nodeLabel markdown-node-label"><p>-- Text : Multi-line input</p></span></div></foreignObject></g><g transform="translate(0,252)" style="" class="label"><foreignObject height="72" width="286"><div style="display: table; white-space: break-spaces; line-height: 1.5; max-width: 286px; text-align: center; width: 286px;" xmlns="http://www.w3.org/1999/xhtml"><span style="" class="nodeLabel markdown-node-label"><p>-- Canvas : Draw shapes or graphics</p></span></div></foreignObject></g><g transform="translate(0,324)" style="" class="label"><foreignObject height="72" width="309"><div style="display: table; white-space: break-spaces; line-height: 1.5; max-width: 309px; text-align: center; width: 309px;" xmlns="http://www.w3.org/1999/xhtml"><span style="" class="nodeLabel markdown-node-label"><p>-- Message : Multiline non-editable text</p></span></div></foreignObject></g></g><g transform="translate(-193.79296875, 279)" class="methods-group text"/><g style="" class="divider"><path style="" fill="none" stroke-width="1.3" stroke="#13540c" d="M-205.79296875 -201 C-122.014606499403 -201, -38.236244248806 -201, 205.79296875 -201 M-205.79296875 -201 C-83.64872866551016 -201, 38.495511418979675 -201, 205.79296875 -201"/></g><g style="" class="divider"><path style="" fill="none" stroke-width="1.3" stroke="#13540c" d="M-205.79296875 255 C-54.06330547487178 255, 97.66635780025643 255, 205.79296875 255 M-205.79296875 255 C-55.3656874792853 255, 95.0615937914294 255, 205.79296875 255"/></g></g><g transform="translate(1539.9609375, 341)" id="classId-VariableWidgets-3" class="node default"><g class="basic label-container"><path style="" fill="#cde498" stroke-width="0" stroke="none" d="M-188.796875 -189 L188.796875 -189 L188.796875 189 L-188.796875 189"/><path style="" fill="none" stroke-width="1.3" stroke="#13540c" d="M-188.796875 -189 C-86.35460907653878 -189, 16.087656846922442 -189, 188.796875 -189 M-188.796875 -189 C-85.21597226783892 -189, 18.364930464322157 -189, 188.796875 -189 M188.796875 -189 C188.796875 -48.202617813159804, 188.796875 92.59476437368039, 188.796875 189 M188.796875 -189 C188.796875 -79.20045379160234, 188.796875 30.599092416795315, 188.796875 189 M188.796875 189 C85.38850804107938 189, -18.019858917841248 189, -188.796875 189 M188.796875 189 C60.466152397688774 189, -67.86457020462245 189, -188.796875 189 M-188.796875 189 C-188.796875 74.51030220274174, -188.796875 -39.97939559451652, -188.796875 -189 M-188.796875 189 C-188.796875 91.79600554583155, -188.796875 -5.407988908336904, -188.796875 -189"/></g><g transform="translate(0, -165)" class="annotation-group text"/><g transform="translate(-92.59375, -165)" class="label-group text"><g transform="translate(0,-18)" style="font-weight: bolder" class="label"><foreignObject height="36" width="185.1875"><div style="display: table; white-space: break-spaces; line-height: 1.5; max-width: 156px; text-align: center; width: 156px;" xmlns="http://www.w3.org/1999/xhtml"><span style="" class="nodeLabel markdown-node-label"><p>VariableWidgets</p></span></div></foreignObject></g></g><g transform="translate(-176.796875, -105)" class="members-group text"><g transform="translate(0,-36)" style="" class="label"><foreignObject height="72" width="233"><div style="display: table; white-space: break-spaces; line-height: 1.5; max-width: 233px; text-align: center; width: 233px;" xmlns="http://www.w3.org/1999/xhtml"><span style="" class="nodeLabel markdown-node-label"><p>-- StringVar : Holds a string</p></span></div></foreignObject></g><g transform="translate(0,36)" style="" class="label"><foreignObject height="72" width="227"><div style="display: table; white-space: break-spaces; line-height: 1.5; max-width: 227px; text-align: center; width: 227px;" xmlns="http://www.w3.org/1999/xhtml"><span style="" class="nodeLabel markdown-node-label"><p>-- IntVar : Holds an integer</p></span></div></foreignObject></g><g transform="translate(0,108)" style="" class="label"><foreignObject height="72" width="234"><div style="display: table; white-space: break-spaces; line-height: 1.5; max-width: 234px; text-align: center; width: 234px;" xmlns="http://www.w3.org/1999/xhtml"><span style="" class="nodeLabel markdown-node-label"><p>-- DoubleVar : Holds a float</p></span></div></foreignObject></g><g transform="translate(0,180)" style="" class="label"><foreignObject height="72" width="261"><div style="display: table; white-space: break-spaces; line-height: 1.5; max-width: 261px; text-align: center; width: 261px;" xmlns="http://www.w3.org/1999/xhtml"><span style="" class="nodeLabel markdown-node-label"><p>-- BooleanVar : Holds a boolean</p></span></div></foreignObject></g></g><g transform="translate(-176.796875, 207)" class="methods-group text"/><g style="" class="divider"><path style="" fill="none" stroke-width="1.3" stroke="#13540c" d="M-188.796875 -129 C-75.90050775063662 -129, 36.99585949872676 -129, 188.796875 -129 M-188.796875 -129 C-94.59407685654023 -129, -0.39127871308045314 -129, 188.796875 -129"/></g><g style="" class="divider"><path style="" fill="none" stroke-width="1.3" stroke="#13540c" d="M-188.796875 183 C-52.45009118726128 183, 83.89669262547744 183, 188.796875 183 M-188.796875 183 C-39.59251146586885 183, 109.6118520682623 183, 188.796875 183"/></g></g><g transform="translate(2012.0390625, 341)" id="classId-CompositeWidgets-4" class="node default"><g class="basic label-container"><path style="" fill="#cde498" stroke-width="0" stroke="none" d="M-233.28125 -333 L233.28125 -333 L233.28125 333 L-233.28125 333"/><path style="" fill="none" stroke-width="1.3" stroke="#13540c" d="M-233.28125 -333 C-72.1072492785205 -333, 89.066751442959 -333, 233.28125 -333 M-233.28125 -333 C-136.45719729700855 -333, -39.6331445940171 -333, 233.28125 -333 M233.28125 -333 C233.28125 -101.66679667000864, 233.28125 129.66640665998273, 233.28125 333 M233.28125 -333 C233.28125 -188.95399297509582, 233.28125 -44.90798595019163, 233.28125 333 M233.28125 333 C113.71499306153203 333, -5.8512638769359455 333, -233.28125 333 M233.28125 333 C88.22113114235066 333, -56.838987715298686 333, -233.28125 333 M-233.28125 333 C-233.28125 85.12118969914215, -233.28125 -162.7576206017157, -233.28125 -333 M-233.28125 333 C-233.28125 145.2693460903189, -233.28125 -42.46130781936222, -233.28125 -333"/></g><g transform="translate(0, -309)" class="annotation-group text"/><g transform="translate(-108.5625, -309)" class="label-group text"><g transform="translate(0,-18)" style="font-weight: bolder" class="label"><foreignObject height="36" width="217.125"><div style="display: table; white-space: break-spaces; line-height: 1.5; max-width: 172px; text-align: center; width: 172px;" xmlns="http://www.w3.org/1999/xhtml"><span style="" class="nodeLabel markdown-node-label"><p>CompositeWidgets</p></span></div></foreignObject></g></g><g transform="translate(-221.28125, -249)" class="members-group text"><g transform="translate(0,-36)" style="" class="label"><foreignObject height="72" width="310"><div style="display: table; white-space: break-spaces; line-height: 1.5; max-width: 310px; text-align: center; width: 310px;" xmlns="http://www.w3.org/1999/xhtml"><span style="" class="nodeLabel markdown-node-label"><p>-- Checkbutton : Options as checkboxes</p></span></div></foreignObject></g><g transform="translate(0,36)" style="" class="label"><foreignObject height="72" width="317"><div style="display: table; white-space: break-spaces; line-height: 1.5; max-width: 317px; text-align: center; width: 317px;" xmlns="http://www.w3.org/1999/xhtml"><span style="" class="nodeLabel markdown-node-label"><p>-- Radiobutton : Options as radio buttons</p></span></div></foreignObject></g><g transform="translate(0,108)" style="" class="label"><foreignObject height="72" width="211"><div style="display: table; white-space: break-spaces; line-height: 1.5; max-width: 211px; text-align: center; width: 211px;" xmlns="http://www.w3.org/1999/xhtml"><span style="" class="nodeLabel markdown-node-label"><p>-- Listbox : List of items</p></span></div></foreignObject></g><g transform="translate(0,180)" style="" class="label"><foreignObject height="72" width="245"><div style="display: table; white-space: break-spaces; line-height: 1.5; max-width: 245px; text-align: center; width: 245px;" xmlns="http://www.w3.org/1999/xhtml"><span style="" class="nodeLabel markdown-node-label"><p>-- Scale : Slide to select value</p></span></div></foreignObject></g><g transform="translate(0,252)" style="" class="label"><foreignObject height="72" width="253"><div style="display: table; white-space: break-spaces; line-height: 1.5; max-width: 253px; text-align: center; width: 253px;" xmlns="http://www.w3.org/1999/xhtml"><span style="" class="nodeLabel markdown-node-label"><p>-- Scrollbar : Scrollable widget</p></span></div></foreignObject></g><g transform="translate(0,324)" style="" class="label"><foreignObject height="72" width="334"><div style="display: table; white-space: break-spaces; line-height: 1.5; max-width: 334px; text-align: center; width: 334px;" xmlns="http://www.w3.org/1999/xhtml"><span style="" class="nodeLabel markdown-node-label"><p>-- OptionMenu : Dropdown to select option</p></span></div></foreignObject></g><g transform="translate(0,396)" style="" class="label"><foreignObject height="72" width="254"><div style="display: table; white-space: break-spaces; line-height: 1.5; max-width: 254px; text-align: center; width: 254px;" xmlns="http://www.w3.org/1999/xhtml"><span style="" class="nodeLabel markdown-node-label"><p>-- Menu : Contains menu items</p></span></div></foreignObject></g><g transform="translate(0,468)" style="" class="label"><foreignObject height="72" width="255"><div style="display: table; white-space: break-spaces; line-height: 1.5; max-width: 255px; text-align: center; width: 255px;" xmlns="http://www.w3.org/1999/xhtml"><span style="" class="nodeLabel markdown-node-label"><p>-- Menubutton : Display menus</p></span></div></foreignObject></g></g><g transform="translate(-221.28125, 351)" class="methods-group text"/><g style="" class="divider"><path style="" fill="none" stroke-width="1.3" stroke="#13540c" d="M-233.28125 -273 C-109.4886699689096 -273, 14.30391006218079 -273, 233.28125 -273 M-233.28125 -273 C-122.32352283934252 -273, -11.365795678685032 -273, 233.28125 -273"/></g><g style="" class="divider"><path style="" fill="none" stroke-width="1.3" stroke="#13540c" d="M-233.28125 327 C-123.40093785023971 327, -13.520625700479428 327, 233.28125 327 M-233.28125 327 C-102.87347936485523 327, 27.534291270289543 327, 233.28125 327"/></g></g><g transform="translate(2503.4921875, 341)" id="classId-Dialogs-5" class="node default"><g class="basic label-container"><path style="" fill="#cde498" stroke-width="0" stroke="none" d="M-208.171875 -225 L208.171875 -225 L208.171875 225 L-208.171875 225"/><path style="" fill="none" stroke-width="1.3" stroke="#13540c" d="M-208.171875 -225 C-120.6268993304613 -225, -33.0819236609226 -225, 208.171875 -225 M-208.171875 -225 C-105.28533197923275 -225, -2.398788958465502 -225, 208.171875 -225 M208.171875 -225 C208.171875 -88.65021274260806, 208.171875 47.699574514783876, 208.171875 225 M208.171875 -225 C208.171875 -116.73355460332427, 208.171875 -8.46710920664853, 208.171875 225 M208.171875 225 C70.19825215850707 225, -67.77537068298585 225, -208.171875 225 M208.171875 225 C118.18512102669817 225, 28.19836705339634 225, -208.171875 225 M-208.171875 225 C-208.171875 60.767209035212545, -208.171875 -103.46558192957491, -208.171875 -225 M-208.171875 225 C-208.171875 100.04522409177835, -208.171875 -24.909551816443297, -208.171875 -225"/></g><g transform="translate(0, -201)" class="annotation-group text"/><g transform="translate(-43.34375, -201)" class="label-group text"><g transform="translate(0,-18)" style="font-weight: bolder" class="label"><foreignObject height="36" width="86.6875"><div style="display: table-cell; white-space: nowrap; line-height: 1.5; max-width: 100px; text-align: center;" xmlns="http://www.w3.org/1999/xhtml"><span style="" class="nodeLabel markdown-node-label"><p>Dialogs</p></span></div></foreignObject></g></g><g transform="translate(-196.171875, -141)" class="members-group text"><g transform="translate(0,-36)" style="" class="label"><foreignObject height="72" width="349"><div style="display: table; white-space: break-spaces; line-height: 1.5; max-width: 349px; text-align: center; width: 349px;" xmlns="http://www.w3.org/1999/xhtml"><span style="" class="nodeLabel markdown-node-label"><p>-- messagebox : Error, warning, info, question</p></span></div></foreignObject></g><g transform="translate(0,36)" style="" class="label"><foreignObject height="72" width="277"><div style="display: table; white-space: break-spaces; line-height: 1.5; max-width: 277px; text-align: center; width: 277px;" xmlns="http://www.w3.org/1999/xhtml"><span style="" class="nodeLabel markdown-node-label"><p>-- simpledialog : Get simple inputs</p></span></div></foreignObject></g><g transform="translate(0,108)" style="" class="label"><foreignObject height="72" width="268"><div style="display: table; white-space: break-spaces; line-height: 1.5; max-width: 268px; text-align: center; width: 268px;" xmlns="http://www.w3.org/1999/xhtml"><span style="" class="nodeLabel markdown-node-label"><p>-- filedialog : Choose files or dirs</p></span></div></foreignObject></g><g transform="translate(0,180)" style="" class="label"><foreignObject height="72" width="249"><div style="display: table; white-space: break-spaces; line-height: 1.5; max-width: 249px; text-align: center; width: 249px;" xmlns="http://www.w3.org/1999/xhtml"><span style="" class="nodeLabel markdown-node-label"><p>-- colorchooser : Choose color</p></span></div></foreignObject></g><g transform="translate(0,252)" style="" class="label"><foreignObject height="72" width="185"><div style="display: table; white-space: break-spaces; line-height: 1.5; max-width: 185px; text-align: center; width: 185px;" xmlns="http://www.w3.org/1999/xhtml"><span style="" class="nodeLabel markdown-node-label"><p>-- font : Choose font</p></span></div></foreignObject></g></g><g transform="translate(-196.171875, 243)" class="methods-group text"/><g style="" class="divider"><path style="" fill="none" stroke-width="1.3" stroke="#13540c" d="M-208.171875 -165 C-110.07893896674135 -165, -11.986002933482695 -165, 208.171875 -165 M-208.171875 -165 C-79.42239228957848 -165, 49.327090420843035 -165, 208.171875 -165"/></g><g style="" class="divider"><path style="" fill="none" stroke-width="1.3" stroke="#13540c" d="M-208.171875 219 C-82.74180908798844 219, 42.688256824023114 219, 208.171875 219 M-208.171875 219 C-108.83354655820507 219, -9.495218116410143 219, 208.171875 219"/></g></g><g transform="translate(2971.62109375, 341)" id="classId-AdvancedWidgets-6" class="node default"><g class="basic label-container"><path style="" fill="#cde498" stroke-width="0" stroke="none" d="M-209.95703125 -261 L209.95703125 -261 L209.95703125 261 L-209.95703125 261"/><path style="" fill="none" stroke-width="1.3" stroke="#13540c" d="M-209.95703125 -261 C-124.24214151369056 -261, -38.52725177738111 -261, 209.95703125 -261 M-209.95703125 -261 C-89.59642283024456 -261, 30.764185589510873 -261, 209.95703125 -261 M209.95703125 -261 C209.95703125 -131.20732437951756, 209.95703125 -1.414648759035117, 209.95703125 261 M209.95703125 -261 C209.95703125 -62.69023034173236, 209.95703125 135.61953931653528, 209.95703125 261 M209.95703125 261 C47.456881726387024 261, -115.04326779722595 261, -209.95703125 261 M209.95703125 261 C109.90089932295159 261, 9.844767395903176 261, -209.95703125 261 M-209.95703125 261 C-209.95703125 108.49676959432611, -209.95703125 -44.00646081134778, -209.95703125 -261 M-209.95703125 261 C-209.95703125 88.38718125304015, -209.95703125 -84.22563749391969, -209.95703125 -261"/></g><g transform="translate(0, -237)" class="annotation-group text"/><g transform="translate(-103.9140625, -237)" class="label-group text"><g transform="translate(0,-18)" style="font-weight: bolder" class="label"><foreignObject height="36" width="207.828125"><div style="display: table; white-space: break-spaces; line-height: 1.5; max-width: 168px; text-align: center; width: 168px;" xmlns="http://www.w3.org/1999/xhtml"><span style="" class="nodeLabel markdown-node-label"><p>AdvancedWidgets</p></span></div></foreignObject></g></g><g transform="translate(-197.95703125, -177)" class="members-group text"><g transform="translate(0,-36)" style="" class="label"><foreignObject height="72" width="273"><div style="display: table; white-space: break-spaces; line-height: 1.5; max-width: 273px; text-align: center; width: 273px;" xmlns="http://www.w3.org/1999/xhtml"><span style="" class="nodeLabel markdown-node-label"><p>-- Combobox : Dropdown list box</p></span></div></foreignObject></g><g transform="translate(0,36)" style="" class="label"><foreignObject height="72" width="237"><div style="display: table; white-space: break-spaces; line-height: 1.5; max-width: 237px; text-align: center; width: 237px;" xmlns="http://www.w3.org/1999/xhtml"><span style="" class="nodeLabel markdown-node-label"><p>-- Notebook : Tabs for panes</p></span></div></foreignObject></g><g transform="translate(0,108)" style="" class="label"><foreignObject height="72" width="254"><div style="display: table; white-space: break-spaces; line-height: 1.5; max-width: 254px; text-align: center; width: 254px;" xmlns="http://www.w3.org/1999/xhtml"><span style="" class="nodeLabel markdown-node-label"><p>-- Progressbar : Task's progress</p></span></div></foreignObject></g><g transform="translate(0,180)" style="" class="label"><foreignObject height="72" width="282"><div style="display: table; white-space: break-spaces; line-height: 1.5; max-width: 282px; text-align: center; width: 282px;" xmlns="http://www.w3.org/1999/xhtml"><span style="" class="nodeLabel markdown-node-label"><p>-- Treeview : Hierarchical item lists</p></span></div></foreignObject></g><g transform="translate(0,252)" style="" class="label"><foreignObject height="72" width="246"><div style="display: table; white-space: break-spaces; line-height: 1.5; max-width: 246px; text-align: center; width: 246px;" xmlns="http://www.w3.org/1999/xhtml"><span style="" class="nodeLabel markdown-node-label"><p>-- Separator : Visual separator</p></span></div></foreignObject></g><g transform="translate(0,324)" style="" class="label"><foreignObject height="72" width="292"><div style="display: table; white-space: break-spaces; line-height: 1.5; max-width: 292px; text-align: center; width: 292px;" xmlns="http://www.w3.org/1999/xhtml"><span style="" class="nodeLabel markdown-node-label"><p>-- Sizegrip : Resize grip for windows</p></span></div></foreignObject></g></g><g transform="translate(-197.95703125, 279)" class="methods-group text"/><g style="" class="divider"><path style="" fill="none" stroke-width="1.3" stroke="#13540c" d="M-209.95703125 -201 C-71.1129953518826 -201, 67.7310405462348 -201, 209.95703125 -201 M-209.95703125 -201 C-60.316056743346905 -201, 89.32491776330619 -201, 209.95703125 -201"/></g><g style="" class="divider"><path style="" fill="none" stroke-width="1.3" stroke="#13540c" d="M-209.95703125 255 C-52.30635553761263 255, 105.34432017477474 255, 209.95703125 255 M-209.95703125 255 C-112.19710978754652 255, -14.437188325093047 255, 209.95703125 255"/></g></g><g transform="translate(3422.078125, 341)" id="classId-Special-purposeWidgets-7" class="node default"><g class="basic label-container"><path style="" fill="#cde498" stroke-width="0" stroke="none" d="M-190.5 -108 L190.5 -108 L190.5 108 L-190.5 108"/><path style="" fill="none" stroke-width="1.3" stroke="#13540c" d="M-190.5 -108 C-44.799940231991656 -108, 100.90011953601669 -108, 190.5 -108 M-190.5 -108 C-57.9797665335002 -108, 74.5404669329996 -108, 190.5 -108 M190.5 -108 C190.5 -55.03480333770252, 190.5 -2.0696066754050406, 190.5 108 M190.5 -108 C190.5 -47.53387491965336, 190.5 12.932250160693286, 190.5 108 M190.5 108 C77.62832726843436 108, -35.24334546313128 108, -190.5 108 M190.5 108 C68.61095528486355 108, -53.2780894302729 108, -190.5 108 M-190.5 108 C-190.5 43.88292074227866, -190.5 -20.234158515442687, -190.5 -108 M-190.5 108 C-190.5 33.85182629670605, -190.5 -40.2963474065879, -190.5 -108"/></g><g transform="translate(0, -84)" class="annotation-group text"/><g transform="translate(-103, -84)" class="label-group text"><g transform="translate(0,-36)" style="font-weight: bolder" class="label"><foreignObject height="72" width="206"><div style="display: table; white-space: break-spaces; line-height: 1.5; max-width: 206px; text-align: center; width: 206px;" xmlns="http://www.w3.org/1999/xhtml"><span style="" class="nodeLabel markdown-node-label"><p>Special-purposeWidgets</p></span></div></foreignObject></g></g><g transform="translate(-178.5, 12)" class="members-group text"><g transform="translate(0,-36)" style="" class="label"><foreignObject height="72" width="254"><div style="display: table; white-space: break-spaces; line-height: 1.5; max-width: 254px; text-align: center; width: 254px;" xmlns="http://www.w3.org/1999/xhtml"><span style="" class="nodeLabel markdown-node-label"><p>-- Spinbox : Select from values</p></span></div></foreignObject></g></g><g transform="translate(-178.5, 108)" class="methods-group text"/><g style="" class="divider"><path style="" fill="none" stroke-width="1.3" stroke="#13540c" d="M-190.5 -12 C-63.08759452895963 -12, 64.32481094208075 -12, 190.5 -12 M-190.5 -12 C-73.94324327463063 -12, 42.613513450738736 -12, 190.5 -12"/></g><g style="" class="divider"><path style="" fill="none" stroke-width="1.3" stroke="#13540c" d="M-190.5 84 C-43.16549389269014 84, 104.16901221461973 84, 190.5 84 M-190.5 84 C-79.7146429976475 84, 31.070714004704996 84, 190.5 84"/></g></g></g></g></g></svg>