<svg aria-roledescription="flowchart-v2" role="graphics-document document" viewBox="0 -50 1348.53125 953.3201293945312" style="max-width: 1348.53px; background-color: white;" class="flowchart" xmlns:xlink="http://www.w3.org/1999/xlink" xmlns="http://www.w3.org/2000/svg" width="100%" id="my-svg"><style>#my-svg{font-family:"trebuchet ms",verdana,arial,sans-serif;font-size:16px;fill:#333;}#my-svg .error-icon{fill:#552222;}#my-svg .error-text{fill:#552222;stroke:#552222;}#my-svg .edge-thickness-normal{stroke-width:1px;}#my-svg .edge-thickness-thick{stroke-width:3.5px;}#my-svg .edge-pattern-solid{stroke-dasharray:0;}#my-svg .edge-thickness-invisible{stroke-width:0;fill:none;}#my-svg .edge-pattern-dashed{stroke-dasharray:3;}#my-svg .edge-pattern-dotted{stroke-dasharray:2;}#my-svg .marker{fill:#333333;stroke:#333333;}#my-svg .marker.cross{stroke:#333333;}#my-svg svg{font-family:"trebuchet ms",verdana,arial,sans-serif;font-size:16px;}#my-svg p{margin:0;}#my-svg .label{font-family:"trebuchet ms",verdana,arial,sans-serif;color:#333;}#my-svg .cluster-label text{fill:#333;}#my-svg .cluster-label span{color:#333;}#my-svg .cluster-label span p{background-color:transparent;}#my-svg .label text,#my-svg span{fill:#333;color:#333;}#my-svg .node rect,#my-svg .node circle,#my-svg .node ellipse,#my-svg .node polygon,#my-svg .node path{fill:#ECECFF;stroke:#9370DB;stroke-width:1px;}#my-svg .rough-node .label text,#my-svg .node .label text,#my-svg .image-shape .label,#my-svg .icon-shape .label{text-anchor:middle;}#my-svg .node .katex path{fill:#000;stroke:#000;stroke-width:1px;}#my-svg .rough-node .label,#my-svg .node .label,#my-svg .image-shape .label,#my-svg .icon-shape .label{text-align:center;}#my-svg .node.clickable{cursor:pointer;}#my-svg .root .anchor path{fill:#333333!important;stroke-width:0;stroke:#333333;}#my-svg .arrowheadPath{fill:#333333;}#my-svg .edgePath .path{stroke:#333333;stroke-width:2.0px;}#my-svg .flowchart-link{stroke:#333333;fill:none;}#my-svg .edgeLabel{background-color:rgba(232,232,232, 0.8);text-align:center;}#my-svg .edgeLabel p{background-color:rgba(232,232,232, 0.8);}#my-svg .edgeLabel rect{opacity:0.5;background-color:rgba(232,232,232, 0.8);fill:rgba(232,232,232, 0.8);}#my-svg .labelBkg{background-color:rgba(232, 232, 232, 0.5);}#my-svg .cluster rect{fill:#ffffde;stroke:#aaaa33;stroke-width:1px;}#my-svg .cluster text{fill:#333;}#my-svg .cluster span{color:#333;}#my-svg div.mermaidTooltip{position:absolute;text-align:center;max-width:200px;padding:2px;font-family:"trebuchet ms",verdana,arial,sans-serif;font-size:12px;background:hsl(80, 100%, 96.2745098039%);border:1px solid #aaaa33;border-radius:2px;pointer-events:none;z-index:100;}#my-svg .flowchartTitleText{text-anchor:middle;font-size:18px;fill:#333;}#my-svg rect.text{fill:none;stroke-width:0;}#my-svg .icon-shape,#my-svg .image-shape{background-color:rgba(232,232,232, 0.8);text-align:center;}#my-svg .icon-shape p,#my-svg .image-shape p{background-color:rgba(232,232,232, 0.8);padding:2px;}#my-svg .icon-shape rect,#my-svg .image-shape rect{opacity:0.5;background-color:rgba(232,232,232, 0.8);fill:rgba(232,232,232, 0.8);}#my-svg :root{--mermaid-font-family:"trebuchet ms",verdana,arial,sans-serif;}</style><g><marker orient="auto" markerHeight="8" markerWidth="8" markerUnits="userSpaceOnUse" refY="5" refX="5" viewBox="0 0 10 10" class="marker flowchart-v2" id="my-svg_flowchart-v2-pointEnd"><path style="stroke-width: 1; stroke-dasharray: 1, 0;" class="arrowMarkerPath" d="M 0 0 L 10 5 L 0 10 z"/></marker><marker orient="auto" markerHeight="8" markerWidth="8" markerUnits="userSpaceOnUse" refY="5" refX="4.5" viewBox="0 0 10 10" class="marker flowchart-v2" id="my-svg_flowchart-v2-pointStart"><path style="stroke-width: 1; stroke-dasharray: 1, 0;" class="arrowMarkerPath" d="M 0 5 L 10 10 L 10 0 z"/></marker><marker orient="auto" markerHeight="11" markerWidth="11" markerUnits="userSpaceOnUse" refY="5" refX="11" viewBox="0 0 10 10" class="marker flowchart-v2" id="my-svg_flowchart-v2-circleEnd"><circle style="stroke-width: 1; stroke-dasharray: 1, 0;" class="arrowMarkerPath" r="5" cy="5" cx="5"/></marker><marker orient="auto" markerHeight="11" markerWidth="11" markerUnits="userSpaceOnUse" refY="5" refX="-1" viewBox="0 0 10 10" class="marker flowchart-v2" id="my-svg_flowchart-v2-circleStart"><circle style="stroke-width: 1; stroke-dasharray: 1, 0;" class="arrowMarkerPath" r="5" cy="5" cx="5"/></marker><marker orient="auto" markerHeight="11" markerWidth="11" markerUnits="userSpaceOnUse" refY="5.2" refX="12" viewBox="0 0 11 11" class="marker cross flowchart-v2" id="my-svg_flowchart-v2-crossEnd"><path style="stroke-width: 2; stroke-dasharray: 1, 0;" class="arrowMarkerPath" d="M 1,1 l 9,9 M 10,1 l -9,9"/></marker><marker orient="auto" markerHeight="11" markerWidth="11" markerUnits="userSpaceOnUse" refY="5.2" refX="-1" viewBox="0 0 11 11" class="marker cross flowchart-v2" id="my-svg_flowchart-v2-crossStart"><path style="stroke-width: 2; stroke-dasharray: 1, 0;" class="arrowMarkerPath" d="M 1,1 l 9,9 M 10,1 l -9,9"/></marker><g class="root"><g class="clusters"/><g class="edgePaths"><path marker-end="url(#my-svg_flowchart-v2-pointEnd)" style="" class="edge-thickness-normal edge-pattern-solid edge-thickness-normal edge-pattern-solid flowchart-link" id="L_lst_tseb_0" d="M156.086,28L174.835,27.917C193.583,27.833,231.081,27.667,272.517,27.583C313.953,27.5,359.328,27.5,404.703,27.5C450.078,27.5,495.453,27.5,545.474,27.5C595.495,27.5,650.161,27.5,704.828,27.5C759.495,27.5,814.161,27.5,854.09,71.74C894.018,115.979,919.208,204.459,931.803,248.698L944.398,292.938"/><path marker-end="url(#my-svg_flowchart-v2-pointEnd)" style="" class="edge-thickness-normal edge-pattern-solid edge-thickness-normal edge-pattern-solid flowchart-link" id="L_lai_tseb_1" d="M181.267,498.287L195.819,494.667C210.371,491.048,239.474,483.809,276.714,480.19C313.953,476.57,359.328,476.57,404.703,476.57C450.078,476.57,495.453,476.57,545.474,476.57C595.495,476.57,650.161,476.57,704.828,476.57C759.495,476.57,814.161,476.57,852.747,456.19C891.332,435.809,913.836,395.048,925.088,374.667L936.34,354.287"/><path marker-end="url(#my-svg_flowchart-v2-pointEnd)" style="" class="edge-thickness-normal edge-pattern-solid edge-thickness-normal edge-pattern-solid flowchart-link" id="L_glai_tseb_2" d="M178.563,117L193.565,116.917C208.568,116.833,238.573,116.667,276.263,116.583C313.953,116.5,359.328,116.5,404.703,116.5C450.078,116.5,495.453,116.5,545.474,116.5C595.495,116.5,650.161,116.5,704.828,116.5C759.495,116.5,814.161,116.5,853.471,145.93C892.78,175.36,916.733,234.22,928.709,263.65L940.685,293.08"/><path marker-end="url(#my-svg_flowchart-v2-pointEnd)" style="" class="edge-thickness-normal edge-pattern-solid edge-thickness-normal edge-pattern-solid flowchart-link" id="L_lw_tseb_3" d="M217.18,206L225.746,205.917C234.313,205.833,251.445,205.667,282.699,205.583C313.953,205.5,359.328,205.5,404.703,205.5C450.078,205.5,495.453,205.5,545.474,205.5C595.495,205.5,650.161,205.5,704.828,205.5C759.495,205.5,814.161,205.5,851.957,220.171C889.753,234.843,910.678,264.186,921.141,278.857L931.603,293.528"/><path marker-end="url(#my-svg_flowchart-v2-pointEnd)" style="" class="edge-thickness-normal edge-pattern-solid edge-thickness-normal edge-pattern-solid flowchart-link" id="L_tseb_ln_4" d="M968.174,296.785L979.733,275.97C991.293,255.154,1014.412,213.523,1032.18,192.783C1049.948,172.043,1062.365,172.194,1068.573,172.269L1074.782,172.344"/><path marker-end="url(#my-svg_flowchart-v2-pointEnd)" style="" class="edge-thickness-normal edge-pattern-solid edge-thickness-normal edge-pattern-solid flowchart-link" id="L_tseb_g_5" d="M997.931,296.785L1004.531,292.803C1011.131,288.821,1024.331,280.857,1046.554,276.955C1068.776,273.052,1100.021,273.212,1115.643,273.292L1131.266,273.372"/><path marker-end="url(#my-svg_flowchart-v2-pointEnd)" style="" class="edge-thickness-normal edge-pattern-solid edge-thickness-normal edge-pattern-solid flowchart-link" id="L_tseb_h_6" d="M998.632,350.785L1005.115,354.636C1011.598,358.488,1024.565,366.19,1037.256,370.117C1049.948,374.043,1062.365,374.194,1068.573,374.269L1074.782,374.344"/><path marker-end="url(#my-svg_flowchart-v2-pointEnd)" style="" class="edge-thickness-normal edge-pattern-solid edge-thickness-normal edge-pattern-solid flowchart-link" id="L_tseb_le_7" d="M967.143,350.785L978.874,373.47C990.606,396.154,1014.068,441.523,1032.008,464.283C1049.948,487.043,1062.365,487.194,1068.573,487.269L1074.782,487.344"/><path marker-end="url(#my-svg_flowchart-v2-pointEnd)" style="" class="edge-thickness-normal edge-pattern-solid edge-thickness-normal edge-pattern-solid flowchart-link" id="L_weather_rtm_8" d="M191.961,293.328L204.73,289.381C217.5,285.433,243.039,277.538,276.413,324.211C309.787,370.883,350.996,472.124,371.601,522.745L392.205,573.365"/><path marker-end="url(#my-svg_flowchart-v2-pointEnd)" style="" class="edge-thickness-normal edge-pattern-solid edge-thickness-normal edge-pattern-solid flowchart-link" id="L_wc_rtm_9" d="M193.25,422.57L205.805,422.487C218.359,422.403,243.469,422.237,274.946,447.453C306.423,472.669,344.268,523.268,363.191,548.567L382.113,573.867"/><path marker-end="url(#my-svg_flowchart-v2-pointEnd)" style="" class="edge-thickness-normal edge-pattern-solid edge-thickness-normal edge-pattern-solid flowchart-link" id="L_fc_rtm_10" d="M206.996,767.82L217.26,765.237C227.523,762.653,248.051,757.487,276.419,735.186C304.787,712.886,340.997,673.451,359.101,653.734L377.206,634.016"/><path marker-end="url(#my-svg_flowchart-v2-pointEnd)" style="" class="edge-thickness-normal edge-pattern-solid edge-thickness-normal edge-pattern-solid flowchart-link" id="L_lai_rtm_11" d="M173.188,514.444L189.086,515.34C204.985,516.236,236.781,518.028,267.53,528.115C298.278,538.202,327.978,556.583,342.827,565.774L357.677,574.965"/><path marker-end="url(#my-svg_flowchart-v2-pointEnd)" style="" class="edge-thickness-normal edge-pattern-solid edge-thickness-normal edge-pattern-solid flowchart-link" id="L_albedo_rtm_12" d="M228.398,609.32L235.095,609.237C241.792,609.153,255.185,608.987,268.082,608.687C280.98,608.387,293.382,607.955,299.583,607.738L305.784,607.522"/><path marker-end="url(#my-svg_flowchart-v2-pointEnd)" style="" class="edge-thickness-normal edge-pattern-solid edge-thickness-normal edge-pattern-solid flowchart-link" id="L_lidf_rtm_13" d="M180.836,698.32L195.46,698.237C210.083,698.153,239.331,697.987,269.559,687.157C299.787,676.326,330.996,654.833,346.6,644.086L362.205,633.339"/><path marker-end="url(#my-svg_flowchart-v2-pointEnd)" style="" class="edge-thickness-normal edge-pattern-solid edge-thickness-normal edge-pattern-solid flowchart-link" id="L_weather_tseb_14" d="M191.961,318.419L204.73,319.314C217.5,320.208,243.039,321.996,278.496,322.891C313.953,323.785,359.328,323.785,404.703,323.785C450.078,323.785,495.453,323.785,545.474,323.785C595.495,323.785,650.161,323.785,704.828,323.785C759.495,323.785,814.161,323.785,844.995,323.785C875.828,323.785,882.828,323.785,886.328,323.785L889.828,323.785"/><path marker-end="url(#my-svg_flowchart-v2-pointEnd)" style="" class="edge-thickness-normal edge-pattern-solid edge-thickness-normal edge-pattern-solid flowchart-link" id="L_rtm_sn_15" d="M499.625,604.07L506.492,604.07C513.359,604.07,527.094,604.07,540.169,604.145C553.245,604.221,565.662,604.371,571.87,604.446L578.078,604.522"/><path marker-end="url(#my-svg_flowchart-v2-pointEnd)" style="" class="edge-thickness-normal edge-pattern-solid edge-thickness-normal edge-pattern-solid flowchart-link" id="L_sn_tseb_16" d="M828.578,604.57L835.286,604.487C841.995,604.403,855.411,604.237,874.632,562.578C893.853,520.919,918.877,437.767,931.389,396.191L943.901,354.615"/><path marker-end="url(#my-svg_flowchart-v2-pointEnd)" style="" class="edge-thickness-normal edge-pattern-solid edge-thickness-normal edge-pattern-solid flowchart-link" id="L_lai_roughness_17" d="M168.267,524.285L184.986,529.291C201.704,534.297,235.141,544.308,272.274,582.331C309.406,620.353,350.234,686.385,370.647,719.402L391.061,752.418"/><path marker-end="url(#my-svg_flowchart-v2-pointEnd)" style="" class="edge-thickness-normal edge-pattern-solid edge-thickness-normal edge-pattern-solid flowchart-link" id="L_hc_roughness_18" d="M195.445,876.32L207.634,876.237C219.823,876.153,244.201,875.987,274.242,862.798C304.284,849.609,339.991,823.398,357.844,810.293L375.697,797.187"/><path marker-end="url(#my-svg_flowchart-v2-pointEnd)" style="" class="edge-thickness-normal edge-pattern-solid edge-thickness-normal edge-pattern-solid flowchart-link" id="L_fc_roughness_19" d="M206.996,806.82L217.26,809.237C227.523,811.653,248.051,816.487,270.939,814.698C293.827,812.908,319.075,804.496,331.699,800.29L344.324,796.084"/><path marker-end="url(#my-svg_flowchart-v2-pointEnd)" style="" class="edge-thickness-normal edge-pattern-solid edge-thickness-normal edge-pattern-solid flowchart-link" id="L_roughness_tseb_20" d="M506.578,775.32L512.286,775.237C517.995,775.153,529.411,774.987,562.453,774.903C595.495,774.82,650.161,774.82,704.828,774.82C759.495,774.82,814.161,774.82,854.589,704.803C895.017,634.786,921.206,494.751,934.3,424.734L947.395,354.717"/></g><g class="edgeLabels"><g class="edgeLabel"><g transform="translate(0, 0)" class="label"><foreignObject height="0" width="0"><div style="display: table-cell; white-space: nowrap; line-height: 1.5; max-width: 200px; text-align: center;" class="labelBkg" xmlns="http://www.w3.org/1999/xhtml"><span class="edgeLabel"></span></div></foreignObject></g></g><g class="edgeLabel"><g transform="translate(0, 0)" class="label"><foreignObject height="0" width="0"><div style="display: table-cell; white-space: nowrap; line-height: 1.5; max-width: 200px; text-align: center;" class="labelBkg" xmlns="http://www.w3.org/1999/xhtml"><span class="edgeLabel"></span></div></foreignObject></g></g><g class="edgeLabel"><g transform="translate(0, 0)" class="label"><foreignObject height="0" width="0"><div style="display: table-cell; white-space: nowrap; line-height: 1.5; max-width: 200px; text-align: center;" class="labelBkg" xmlns="http://www.w3.org/1999/xhtml"><span class="edgeLabel"></span></div></foreignObject></g></g><g class="edgeLabel"><g transform="translate(0, 0)" class="label"><foreignObject height="0" width="0"><div style="display: table-cell; white-space: nowrap; line-height: 1.5; max-width: 200px; text-align: center;" class="labelBkg" xmlns="http://www.w3.org/1999/xhtml"><span class="edgeLabel"></span></div></foreignObject></g></g><g class="edgeLabel"><g transform="translate(0, 0)" class="label"><foreignObject height="0" width="0"><div style="display: table-cell; white-space: nowrap; line-height: 1.5; max-width: 200px; text-align: center;" class="labelBkg" xmlns="http://www.w3.org/1999/xhtml"><span class="edgeLabel"></span></div></foreignObject></g></g><g class="edgeLabel"><g transform="translate(0, 0)" class="label"><foreignObject height="0" width="0"><div style="display: table-cell; white-space: nowrap; line-height: 1.5; max-width: 200px; text-align: center;" class="labelBkg" xmlns="http://www.w3.org/1999/xhtml"><span class="edgeLabel"></span></div></foreignObject></g></g><g class="edgeLabel"><g transform="translate(0, 0)" class="label"><foreignObject height="0" width="0"><div style="display: table-cell; white-space: nowrap; line-height: 1.5; max-width: 200px; text-align: center;" class="labelBkg" xmlns="http://www.w3.org/1999/xhtml"><span class="edgeLabel"></span></div></foreignObject></g></g><g class="edgeLabel"><g transform="translate(0, 0)" class="label"><foreignObject height="0" width="0"><div style="display: table-cell; white-space: nowrap; line-height: 1.5; max-width: 200px; text-align: center;" class="labelBkg" xmlns="http://www.w3.org/1999/xhtml"><span class="edgeLabel"></span></div></foreignObject></g></g><g class="edgeLabel"><g transform="translate(0, 0)" class="label"><foreignObject height="0" width="0"><div style="display: table-cell; white-space: nowrap; line-height: 1.5; max-width: 200px; text-align: center;" class="labelBkg" xmlns="http://www.w3.org/1999/xhtml"><span class="edgeLabel"></span></div></foreignObject></g></g><g class="edgeLabel"><g transform="translate(0, 0)" class="label"><foreignObject height="0" width="0"><div style="display: table-cell; white-space: nowrap; line-height: 1.5; max-width: 200px; text-align: center;" class="labelBkg" xmlns="http://www.w3.org/1999/xhtml"><span class="edgeLabel"></span></div></foreignObject></g></g><g class="edgeLabel"><g transform="translate(0, 0)" class="label"><foreignObject height="0" width="0"><div style="display: table-cell; white-space: nowrap; line-height: 1.5; max-width: 200px; text-align: center;" class="labelBkg" xmlns="http://www.w3.org/1999/xhtml"><span class="edgeLabel"></span></div></foreignObject></g></g><g class="edgeLabel"><g transform="translate(0, 0)" class="label"><foreignObject height="0" width="0"><div style="display: table-cell; white-space: nowrap; line-height: 1.5; max-width: 200px; text-align: center;" class="labelBkg" xmlns="http://www.w3.org/1999/xhtml"><span class="edgeLabel"></span></div></foreignObject></g></g><g class="edgeLabel"><g transform="translate(0, 0)" class="label"><foreignObject height="0" width="0"><div style="display: table-cell; white-space: nowrap; line-height: 1.5; max-width: 200px; text-align: center;" class="labelBkg" xmlns="http://www.w3.org/1999/xhtml"><span class="edgeLabel"></span></div></foreignObject></g></g><g class="edgeLabel"><g transform="translate(0, 0)" class="label"><foreignObject height="0" width="0"><div style="display: table-cell; white-space: nowrap; line-height: 1.5; max-width: 200px; text-align: center;" class="labelBkg" xmlns="http://www.w3.org/1999/xhtml"><span class="edgeLabel"></span></div></foreignObject></g></g><g class="edgeLabel"><g transform="translate(0, 0)" class="label"><foreignObject height="0" width="0"><div style="display: table-cell; white-space: nowrap; line-height: 1.5; max-width: 200px; text-align: center;" class="labelBkg" xmlns="http://www.w3.org/1999/xhtml"><span class="edgeLabel"></span></div></foreignObject></g></g><g class="edgeLabel"><g transform="translate(0, 0)" class="label"><foreignObject height="0" width="0"><div style="display: table-cell; white-space: nowrap; line-height: 1.5; max-width: 200px; text-align: center;" class="labelBkg" xmlns="http://www.w3.org/1999/xhtml"><span class="edgeLabel"></span></div></foreignObject></g></g><g class="edgeLabel"><g transform="translate(0, 0)" class="label"><foreignObject height="0" width="0"><div style="display: table-cell; white-space: nowrap; line-height: 1.5; max-width: 200px; text-align: center;" class="labelBkg" xmlns="http://www.w3.org/1999/xhtml"><span class="edgeLabel"></span></div></foreignObject></g></g><g class="edgeLabel"><g transform="translate(0, 0)" class="label"><foreignObject height="0" width="0"><div style="display: table-cell; white-space: nowrap; line-height: 1.5; max-width: 200px; text-align: center;" class="labelBkg" xmlns="http://www.w3.org/1999/xhtml"><span class="edgeLabel"></span></div></foreignObject></g></g><g class="edgeLabel"><g transform="translate(0, 0)" class="label"><foreignObject height="0" width="0"><div style="display: table-cell; white-space: nowrap; line-height: 1.5; max-width: 200px; text-align: center;" class="labelBkg" xmlns="http://www.w3.org/1999/xhtml"><span class="edgeLabel"></span></div></foreignObject></g></g><g class="edgeLabel"><g transform="translate(0, 0)" class="label"><foreignObject height="0" width="0"><div style="display: table-cell; white-space: nowrap; line-height: 1.5; max-width: 200px; text-align: center;" class="labelBkg" xmlns="http://www.w3.org/1999/xhtml"><span class="edgeLabel"></span></div></foreignObject></g></g><g class="edgeLabel"><g transform="translate(0, 0)" class="label"><foreignObject height="0" width="0"><div style="display: table-cell; white-space: nowrap; line-height: 1.5; max-width: 200px; text-align: center;" class="labelBkg" xmlns="http://www.w3.org/1999/xhtml"><span class="edgeLabel"></span></div></foreignObject></g></g></g><g class="nodes"><g transform="translate(125.7890625, 313.7850646972656)" id="flowchart-weather-0" class="node default"><path transform="translate(-66.171875, -38.78506375227687)" style="" class="basic label-container" d="M0,12.85670916818458 a66.171875,12.85670916818458 0,0,0 132.34375,0 a66.171875,12.85670916818458 0,0,0 -132.34375,0 l0,51.85670916818458 a66.171875,12.85670916818458 0,0,0 132.34375,0 l0,-51.85670916818458"/><g transform="translate(-58.671875, -2)" style="" class="label"><rect/><foreignObject height="24" width="117.34375"><div style="display: table-cell; white-space: nowrap; line-height: 1.5; max-width: 200px; text-align: center;" xmlns="http://www.w3.org/1999/xhtml"><span class="nodeLabel"><p>Weather Forcing</p></span></div></foreignObject></g></g><g transform="translate(125.7890625, 27.5)" id="flowchart-lst-1" class="node default"><polygon transform="translate(-20.046875,19.5)" class="label-container" points="-19.5,0 40.09375,0 59.59375,-39 0,-39"/><g transform="translate(-12.546875, -12)" style="" class="label"><rect/><foreignObject height="24" width="25.09375"><div style="display: table-cell; white-space: nowrap; line-height: 1.5; max-width: 200px; text-align: center;" xmlns="http://www.w3.org/1999/xhtml"><span class="nodeLabel"><p>LST</p></span></div></foreignObject></g></g><g transform="translate(125.7890625, 511.07012939453125)" id="flowchart-lai-2" class="node default"><polygon transform="translate(-38.5859375,19.5)" class="label-container" points="-19.5,0 77.171875,0 96.671875,-39 0,-39"/><g transform="translate(-31.0859375, -12)" style="" class="label"><rect/><foreignObject height="24" width="62.171875"><div style="display: table-cell; white-space: nowrap; line-height: 1.5; max-width: 200px; text-align: center;" xmlns="http://www.w3.org/1999/xhtml"><span class="nodeLabel"><p>Total LAI</p></span></div></foreignObject></g></g><g transform="translate(125.7890625, 116.5)" id="flowchart-glai-3" class="node default"><polygon transform="translate(-42.5234375,19.5)" class="label-container" points="-19.5,0 85.046875,0 104.546875,-39 0,-39"/><g transform="translate(-35.0234375, -12)" style="" class="label"><rect/><foreignObject height="24" width="70.046875"><div style="display: table-cell; white-space: nowrap; line-height: 1.5; max-width: 200px; text-align: center;" xmlns="http://www.w3.org/1999/xhtml"><span class="nodeLabel"><p>Green LAI</p></span></div></foreignObject></g></g><g transform="translate(125.7890625, 697.8201293945312)" id="flowchart-lidf-4" class="node default"><polygon transform="translate(-44.796875,19.5)" class="label-container" points="-19.5,0 89.59375,0 109.09375,-39 0,-39"/><g transform="translate(-37.296875, -12)" style="" class="label"><rect/><foreignObject height="24" width="74.59375"><div style="display: table-cell; white-space: nowrap; line-height: 1.5; max-width: 200px; text-align: center;" xmlns="http://www.w3.org/1999/xhtml"><span class="nodeLabel"><p>Leaf angle</p></span></div></foreignObject></g></g><g transform="translate(125.7890625, 608.8201293945312)" id="flowchart-albedo-5" class="node default"><polygon transform="translate(-92.359375,19.5)" class="label-container" points="-19.5,0 184.71875,0 204.21875,-39 0,-39"/><g transform="translate(-84.859375, -12)" style="" class="label"><rect/><foreignObject height="24" width="169.71875"><div style="display: table-cell; white-space: nowrap; line-height: 1.5; max-width: 200px; text-align: center;" xmlns="http://www.w3.org/1999/xhtml"><span class="nodeLabel"><p>albedo &amp; transmittance</p></span></div></foreignObject></g></g><g transform="translate(125.7890625, 875.8201293945312)" id="flowchart-hc-6" class="node default"><polygon transform="translate(-59.40625,19.5)" class="label-container" points="-19.5,0 118.8125,0 138.3125,-39 0,-39"/><g transform="translate(-51.90625, -12)" style="" class="label"><rect/><foreignObject height="24" width="103.8125"><div style="display: table-cell; white-space: nowrap; line-height: 1.5; max-width: 200px; text-align: center;" xmlns="http://www.w3.org/1999/xhtml"><span class="nodeLabel"><p>Canopy Height</p></span></div></foreignObject></g></g><g transform="translate(125.7890625, 422.07012939453125)" id="flowchart-wc-7" class="node default"><polygon transform="translate(-57.2109375,19.5)" class="label-container" points="-19.5,0 114.421875,0 133.921875,-39 0,-39"/><g transform="translate(-49.7109375, -12)" style="" class="label"><rect/><foreignObject height="24" width="99.421875"><div style="display: table-cell; white-space: nowrap; line-height: 1.5; max-width: 200px; text-align: center;" xmlns="http://www.w3.org/1999/xhtml"><span class="nodeLabel"><p>Canopy Shape</p></span></div></foreignObject></g></g><g transform="translate(125.7890625, 786.8201293945312)" id="flowchart-fc-8" class="node default"><polygon transform="translate(-98.2890625,19.5)" class="label-container" points="-19.5,0 196.578125,0 216.078125,-39 0,-39"/><g transform="translate(-90.7890625, -12)" style="" class="label"><rect/><foreignObject height="24" width="181.578125"><div style="display: table-cell; white-space: nowrap; line-height: 1.5; max-width: 200px; text-align: center;" xmlns="http://www.w3.org/1999/xhtml"><span class="nodeLabel"><p>Cover of clumped canopy</p></span></div></foreignObject></g></g><g transform="translate(125.7890625, 205.5)" id="flowchart-lw-9" class="node default"><polygon transform="translate(-81.140625,19.5)" class="label-container" points="-19.5,0 162.28125,0 181.78125,-39 0,-39"/><g transform="translate(-73.640625, -12)" style="" class="label"><rect/><foreignObject height="24" width="147.28125"><div style="display: table-cell; white-space: nowrap; line-height: 1.5; max-width: 200px; text-align: center;" xmlns="http://www.w3.org/1999/xhtml"><span class="nodeLabel"><p>Effective Leaf Width</p></span></div></foreignObject></g></g><g transform="translate(404.703125, 604.0701293945312)" id="flowchart-rtm-10" class="node default"><rect height="54" width="189.84375" y="-27" x="-94.921875" style="" class="basic label-container"/><g transform="translate(-64.921875, -12)" style="" class="label"><rect/><foreignObject height="24" width="129.84375"><div style="display: table-cell; white-space: nowrap; line-height: 1.5; max-width: 200px; text-align: center;" xmlns="http://www.w3.org/1999/xhtml"><span class="nodeLabel"><p>Radiative Transfer</p></span></div></foreignObject></g></g><g transform="translate(953.1796875, 323.7850646972656)" id="flowchart-tseb-11" class="node default"><rect height="54" width="118.703125" y="-27" x="-59.3515625" style="" class="basic label-container"/><g transform="translate(-29.3515625, -12)" style="" class="label"><rect/><foreignObject height="24" width="58.703125"><div style="display: table-cell; white-space: nowrap; line-height: 1.5; max-width: 200px; text-align: center;" xmlns="http://www.w3.org/1999/xhtml"><span class="nodeLabel"><p>TSEB-PT</p></span></div></foreignObject></g></g><g transform="translate(404.703125, 774.8201293945312)" id="flowchart-roughness-12" class="node default"><polygon transform="translate(-91.625,19.5)" class="label-container" points="-19.5,0 183.25,0 202.75,-39 0,-39"/><g transform="translate(-84.125, -12)" style="" class="label"><rect/><foreignObject height="24" width="168.25"><div style="display: table-cell; white-space: nowrap; line-height: 1.5; max-width: 200px; text-align: center;" xmlns="http://www.w3.org/1999/xhtml"><span class="nodeLabel"><p>Aerodynamic roughness</p></span></div></foreignObject></g></g><g transform="translate(704.828125, 604.0701293945312)" id="flowchart-sn-13" class="node default"><polygon transform="translate(-107.5,31.5)" class="label-container" points="-31.5,0 215,0 246.5,-63 0,-63"/><g transform="translate(-100, -24)" style="" class="label"><rect/><foreignObject height="48" width="200"><div style="display: table; white-space: break-spaces; line-height: 1.5; max-width: 200px; text-align: center; width: 200px;" xmlns="http://www.w3.org/1999/xhtml"><span class="nodeLabel"><p>Net Soil/Canopy SW Radiation</p></span></div></foreignObject></g></g><g transform="translate(1201.53125, 171.8925323486328)" id="flowchart-ln-14" class="node default"><polygon transform="translate(-107.5,31.5)" class="label-container" points="-31.5,0 215,0 246.5,-63 0,-63"/><g transform="translate(-100, -24)" style="" class="label"><rect/><foreignObject height="48" width="200"><div style="display: table; white-space: break-spaces; line-height: 1.5; max-width: 200px; text-align: center; width: 200px;" xmlns="http://www.w3.org/1999/xhtml"><span class="nodeLabel"><p>Net Soil/Canopy LW Radiation</p></span></div></foreignObject></g></g><g transform="translate(1201.53125, 272.8925323486328)" id="flowchart-g-15" class="node default"><polygon transform="translate(-57.015625,19.5)" class="label-container" points="-19.5,0 114.03125,0 133.53125,-39 0,-39"/><g transform="translate(-49.515625, -12)" style="" class="label"><rect/><foreignObject height="24" width="99.03125"><div style="display: table-cell; white-space: nowrap; line-height: 1.5; max-width: 200px; text-align: center;" xmlns="http://www.w3.org/1999/xhtml"><span class="nodeLabel"><p>Soil Heat Flux</p></span></div></foreignObject></g></g><g transform="translate(1201.53125, 373.8925323486328)" id="flowchart-h-16" class="node default"><polygon transform="translate(-107.5,31.5)" class="label-container" points="-31.5,0 215,0 246.5,-63 0,-63"/><g transform="translate(-100, -24)" style="" class="label"><rect/><foreignObject height="48" width="200"><div style="display: table; white-space: break-spaces; line-height: 1.5; max-width: 200px; text-align: center; width: 200px;" xmlns="http://www.w3.org/1999/xhtml"><span class="nodeLabel"><p>Soil/Canopy Sensible Heat Flux</p></span></div></foreignObject></g></g><g transform="translate(1201.53125, 486.8925323486328)" id="flowchart-le-17" class="node default"><polygon transform="translate(-107.5,31.5)" class="label-container" points="-31.5,0 215,0 246.5,-63 0,-63"/><g transform="translate(-100, -24)" style="" class="label"><rect/><foreignObject height="48" width="200"><div style="display: table; white-space: break-spaces; line-height: 1.5; max-width: 200px; text-align: center; width: 200px;" xmlns="http://www.w3.org/1999/xhtml"><span class="nodeLabel"><p>Soil/Canopy Latent Heat Flux</p></span></div></foreignObject></g></g></g></g></g><text class="flowchartTitleText" y="-25" x="674.265625" text-anchor="middle">pyTSEB workflow</text></svg>