<svg aria-roledescription="flowchart-v2" role="graphics-document document" viewBox="0 0 673.11328125 1456.005859375" style="max-width: 673.113px; background-color: white;" class="flowchart" xmlns:xlink="http://www.w3.org/1999/xlink" xmlns="http://www.w3.org/2000/svg" width="100%" id="my-svg"><style>#my-svg{font-family:"trebuchet ms",verdana,arial,sans-serif;font-size:16px;fill:#333;}#my-svg .error-icon{fill:#552222;}#my-svg .error-text{fill:#552222;stroke:#552222;}#my-svg .edge-thickness-normal{stroke-width:1px;}#my-svg .edge-thickness-thick{stroke-width:3.5px;}#my-svg .edge-pattern-solid{stroke-dasharray:0;}#my-svg .edge-thickness-invisible{stroke-width:0;fill:none;}#my-svg .edge-pattern-dashed{stroke-dasharray:3;}#my-svg .edge-pattern-dotted{stroke-dasharray:2;}#my-svg .marker{fill:#333333;stroke:#333333;}#my-svg .marker.cross{stroke:#333333;}#my-svg svg{font-family:"trebuchet ms",verdana,arial,sans-serif;font-size:16px;}#my-svg p{margin:0;}#my-svg .label{font-family:"trebuchet ms",verdana,arial,sans-serif;color:#333;}#my-svg .cluster-label text{fill:#333;}#my-svg .cluster-label span{color:#333;}#my-svg .cluster-label span p{background-color:transparent;}#my-svg .label text,#my-svg span{fill:#333;color:#333;}#my-svg .node rect,#my-svg .node circle,#my-svg .node ellipse,#my-svg .node polygon,#my-svg .node path{fill:#ECECFF;stroke:#9370DB;stroke-width:1px;}#my-svg .rough-node .label text,#my-svg .node .label text,#my-svg .image-shape .label,#my-svg .icon-shape .label{text-anchor:middle;}#my-svg .node .katex path{fill:#000;stroke:#000;stroke-width:1px;}#my-svg .rough-node .label,#my-svg .node .label,#my-svg .image-shape .label,#my-svg .icon-shape .label{text-align:center;}#my-svg .node.clickable{cursor:pointer;}#my-svg .root .anchor path{fill:#333333!important;stroke-width:0;stroke:#333333;}#my-svg .arrowheadPath{fill:#333333;}#my-svg .edgePath .path{stroke:#333333;stroke-width:2.0px;}#my-svg .flowchart-link{stroke:#333333;fill:none;}#my-svg .edgeLabel{background-color:rgba(232,232,232, 0.8);text-align:center;}#my-svg .edgeLabel p{background-color:rgba(232,232,232, 0.8);}#my-svg .edgeLabel rect{opacity:0.5;background-color:rgba(232,232,232, 0.8);fill:rgba(232,232,232, 0.8);}#my-svg .labelBkg{background-color:rgba(232, 232, 232, 0.5);}#my-svg .cluster rect{fill:#ffffde;stroke:#aaaa33;stroke-width:1px;}#my-svg .cluster text{fill:#333;}#my-svg .cluster span{color:#333;}#my-svg div.mermaidTooltip{position:absolute;text-align:center;max-width:200px;padding:2px;font-family:"trebuchet ms",verdana,arial,sans-serif;font-size:12px;background:hsl(80, 100%, 96.2745098039%);border:1px solid #aaaa33;border-radius:2px;pointer-events:none;z-index:100;}#my-svg .flowchartTitleText{text-anchor:middle;font-size:18px;fill:#333;}#my-svg rect.text{fill:none;stroke-width:0;}#my-svg .icon-shape,#my-svg .image-shape{background-color:rgba(232,232,232, 0.8);text-align:center;}#my-svg .icon-shape p,#my-svg .image-shape p{background-color:rgba(232,232,232, 0.8);padding:2px;}#my-svg .icon-shape rect,#my-svg .image-shape rect{opacity:0.5;background-color:rgba(232,232,232, 0.8);fill:rgba(232,232,232, 0.8);}#my-svg :root{--mermaid-font-family:"trebuchet ms",verdana,arial,sans-serif;}</style><g><marker orient="auto" markerHeight="8" markerWidth="8" markerUnits="userSpaceOnUse" refY="5" refX="5" viewBox="0 0 10 10" class="marker flowchart-v2" id="my-svg_flowchart-v2-pointEnd"><path style="stroke-width: 1; stroke-dasharray: 1, 0;" class="arrowMarkerPath" d="M 0 0 L 10 5 L 0 10 z"/></marker><marker orient="auto" markerHeight="8" markerWidth="8" markerUnits="userSpaceOnUse" refY="5" refX="4.5" viewBox="0 0 10 10" class="marker flowchart-v2" id="my-svg_flowchart-v2-pointStart"><path style="stroke-width: 1; stroke-dasharray: 1, 0;" class="arrowMarkerPath" d="M 0 5 L 10 10 L 10 0 z"/></marker><marker orient="auto" markerHeight="11" markerWidth="11" markerUnits="userSpaceOnUse" refY="5" refX="11" viewBox="0 0 10 10" class="marker flowchart-v2" id="my-svg_flowchart-v2-circleEnd"><circle style="stroke-width: 1; stroke-dasharray: 1, 0;" class="arrowMarkerPath" r="5" cy="5" cx="5"/></marker><marker orient="auto" markerHeight="11" markerWidth="11" markerUnits="userSpaceOnUse" refY="5" refX="-1" viewBox="0 0 10 10" class="marker flowchart-v2" id="my-svg_flowchart-v2-circleStart"><circle style="stroke-width: 1; stroke-dasharray: 1, 0;" class="arrowMarkerPath" r="5" cy="5" cx="5"/></marker><marker orient="auto" markerHeight="11" markerWidth="11" markerUnits="userSpaceOnUse" refY="5.2" refX="12" viewBox="0 0 11 11" class="marker cross flowchart-v2" id="my-svg_flowchart-v2-crossEnd"><path style="stroke-width: 2; stroke-dasharray: 1, 0;" class="arrowMarkerPath" d="M 1,1 l 9,9 M 10,1 l -9,9"/></marker><marker orient="auto" markerHeight="11" markerWidth="11" markerUnits="userSpaceOnUse" refY="5.2" refX="-1" viewBox="0 0 11 11" class="marker cross flowchart-v2" id="my-svg_flowchart-v2-crossStart"><path style="stroke-width: 2; stroke-dasharray: 1, 0;" class="arrowMarkerPath" d="M 1,1 l 9,9 M 10,1 l -9,9"/></marker><g class="root"><g class="clusters"/><g class="edgePaths"><path marker-end="url(#my-svg_flowchart-v2-pointEnd)" style="" class="edge-thickness-normal edge-pattern-solid edge-thickness-normal edge-pattern-solid flowchart-link" id="L_p_v_0" d="M456.309,134.5L456.225,138.583C456.142,142.667,455.975,150.833,455.962,158.5C455.949,166.167,456.09,173.334,456.16,176.917L456.23,180.501"/><path marker-end="url(#my-svg_flowchart-v2-pointEnd)" style="" class="edge-thickness-normal edge-pattern-solid edge-thickness-normal edge-pattern-solid flowchart-link" id="L_ai_v_1" d="M607.301,1314.672L611.697,1308.332C616.093,1301.992,624.884,1289.311,629.28,1270.304C633.676,1251.298,633.676,1225.964,633.676,1196.631C633.676,1167.298,633.676,1133.964,633.676,1091.498C633.676,1049.032,633.676,997.433,633.676,945.834C633.676,894.235,633.676,842.636,633.676,803.107C633.676,763.578,633.676,736.119,633.676,704.659C633.676,673.2,633.676,637.741,633.676,602.594C633.676,567.448,633.676,532.615,633.676,499.781C633.676,466.948,633.676,436.115,612.084,403.581C590.493,371.048,547.31,336.815,525.718,319.699L504.127,302.583"/><path marker-end="url(#my-svg_flowchart-v2-pointEnd)" style="" class="edge-thickness-normal edge-pattern-solid edge-thickness-normal edge-pattern-solid flowchart-link" id="L_v_pr_2" d="M406.555,295.028L376.249,313.404C345.943,331.779,285.331,368.53,255.103,396.489C224.875,424.448,225.03,443.615,225.108,453.198L225.186,462.781"/><path marker-end="url(#my-svg_flowchart-v2-pointEnd)" style="" class="edge-thickness-normal edge-pattern-solid edge-thickness-normal edge-pattern-solid flowchart-link" id="L_pr_a_3" d="M169.284,529.781L147.596,541.865C125.908,553.948,82.532,578.115,66.892,604.066C51.252,630.018,63.348,657.756,69.396,671.624L75.444,685.493"/><path marker-end="url(#my-svg_flowchart-v2-pointEnd)" style="" class="edge-thickness-normal edge-pattern-solid edge-thickness-normal edge-pattern-solid flowchart-link" id="L_a_pr_4" d="M94.051,689.159L100.365,674.68C106.68,660.2,119.309,631.241,136.062,605.173C152.816,579.105,173.695,555.929,184.134,544.341L194.574,532.753"/><path marker-end="url(#my-svg_flowchart-v2-pointEnd)" style="" class="edge-thickness-normal edge-pattern-solid edge-thickness-normal edge-pattern-solid flowchart-link" id="L_pr_r_5" d="M225.219,529.781L225.135,541.865C225.052,553.948,224.885,578.115,230.2,604.056C235.515,629.998,246.312,657.715,251.71,671.574L257.109,685.432"/><path marker-end="url(#my-svg_flowchart-v2-pointEnd)" style="" class="edge-thickness-normal edge-pattern-solid edge-thickness-normal edge-pattern-solid flowchart-link" id="L_r_pr_6" d="M273.752,689.159L279.392,674.68C285.033,660.2,296.313,631.241,292.802,605.2C289.29,579.16,270.987,556.039,261.835,544.478L252.683,532.917"/><path marker-end="url(#my-svg_flowchart-v2-pointEnd)" style="" class="edge-thickness-normal edge-pattern-solid edge-thickness-normal edge-pattern-solid flowchart-link" id="L_pr_data_7" d="M278.161,529.781L298.526,541.865C318.891,553.948,359.621,578.115,379.986,601.698C400.352,625.281,400.352,648.281,400.352,659.781L400.352,671.281"/><path marker-end="url(#my-svg_flowchart-v2-pointEnd)" style="" class="edge-thickness-normal edge-pattern-solid edge-thickness-normal edge-pattern-solid flowchart-link" id="L_data_dp_8" d="M400.352,742.037L400.352,750.204C400.352,758.37,400.352,774.704,400.983,791.526C401.615,808.347,402.878,825.657,403.509,834.313L404.141,842.968"/><path marker-end="url(#my-svg_flowchart-v2-pointEnd)" style="" class="edge-thickness-normal edge-pattern-solid edge-thickness-normal edge-pattern-solid flowchart-link" id="L_d_dp_9" d="M522.046,740.159L514.799,748.639C507.553,757.119,493.059,774.078,480.185,795.589C467.31,817.1,456.055,843.163,450.427,856.195L444.799,869.226"/><path marker-end="url(#my-svg_flowchart-v2-pointEnd)" style="" class="edge-thickness-normal edge-pattern-solid edge-thickness-normal edge-pattern-solid flowchart-link" id="L_dp_pc_10" d="M410.852,1052.131L410.768,1060.214C410.685,1068.298,410.518,1084.464,410.435,1100.048C410.352,1115.631,410.352,1130.631,410.352,1138.131L410.352,1145.631"/><path marker-end="url(#my-svg_flowchart-v2-pointEnd)" style="" class="edge-thickness-normal edge-pattern-solid edge-thickness-normal edge-pattern-solid flowchart-link" id="L_pc_ai_11" d="M410.352,1251.631L410.352,1255.798C410.352,1259.964,410.352,1268.298,425.354,1281.952C440.356,1295.607,470.361,1314.584,485.364,1324.072L500.366,1333.56"/><path marker-end="url(#my-svg_flowchart-v2-pointEnd)" style="" class="edge-thickness-normal edge-pattern-dotted edge-thickness-normal edge-pattern-solid flowchart-link" id="L_d_ai_12" d="M555.326,740.159L557.039,748.639C558.751,757.119,562.177,774.078,563.889,808.357C565.602,842.636,565.602,894.235,565.602,945.834C565.602,997.433,565.602,1049.032,565.602,1091.498C565.602,1133.964,565.602,1167.298,565.602,1196.631C565.602,1225.964,565.602,1251.298,565.602,1267.464C565.602,1283.631,565.602,1290.631,565.602,1294.131L565.602,1297.631"/></g><g class="edgeLabels"><g class="edgeLabel"><g transform="translate(0, 0)" class="label"><foreignObject height="0" width="0"><div style="display: table-cell; white-space: nowrap; line-height: 1.5; max-width: 200px; text-align: center;" class="labelBkg" xmlns="http://www.w3.org/1999/xhtml"><span class="edgeLabel"></span></div></foreignObject></g></g><g transform="translate(633.67578125, 791.0371551513672)" class="edgeLabel"><g transform="translate(-31.4375, -24)" class="label"><foreignObject height="48" width="62.875"><div style="display: table-cell; white-space: nowrap; line-height: 1.5; max-width: 200px; text-align: center;" class="labelBkg" xmlns="http://www.w3.org/1999/xhtml"><span class="edgeLabel"><p>aligned<br />response</p></span></div></foreignObject></g></g><g transform="translate(224.71875, 405.28125)" class="edgeLabel"><g transform="translate(-57.9375, -36)" class="label"><foreignObject height="72" width="115.875"><div style="display: table-cell; white-space: nowrap; line-height: 1.5; max-width: 200px; text-align: center;" class="labelBkg" xmlns="http://www.w3.org/1999/xhtml"><span class="edgeLabel"><p>erc20 funding<br />&amp; list of authors<br />and reviewers</p></span></div></foreignObject></g></g><g transform="translate(39.15625, 602.28125)" class="edgeLabel"><g transform="translate(-31.15625, -24)" class="label"><foreignObject height="48" width="62.3125"><div style="display: table-cell; white-space: nowrap; line-height: 1.5; max-width: 200px; text-align: center;" class="labelBkg" xmlns="http://www.w3.org/1999/xhtml"><span class="edgeLabel"><p>erc20<br />payment</p></span></div></foreignObject></g></g><g transform="translate(131.9375, 602.28125)" class="edgeLabel"><g transform="translate(-41.625, -48)" class="label"><foreignObject height="96" width="83.25"><div style="display: table-cell; white-space: nowrap; line-height: 1.5; max-width: 200px; text-align: center;" class="labelBkg" xmlns="http://www.w3.org/1999/xhtml"><span class="edgeLabel"><p>submit<br />instruction<br />&amp; response<br />data object</p></span></div></foreignObject></g></g><g transform="translate(224.71875, 602.28125)" class="edgeLabel"><g transform="translate(-31.15625, -24)" class="label"><foreignObject height="48" width="62.3125"><div style="display: table-cell; white-space: nowrap; line-height: 1.5; max-width: 200px; text-align: center;" class="labelBkg" xmlns="http://www.w3.org/1999/xhtml"><span class="edgeLabel"><p>erc20<br />payment</p></span></div></foreignObject></g></g><g transform="translate(307.59375, 602.28125)" class="edgeLabel"><g transform="translate(-31.71875, -24)" class="label"><foreignObject height="48" width="63.4375"><div style="display: table-cell; white-space: nowrap; line-height: 1.5; max-width: 200px; text-align: center;" class="labelBkg" xmlns="http://www.w3.org/1999/xhtml"><span class="edgeLabel"><p>accept<br /> or reject</p></span></div></foreignObject></g></g><g class="edgeLabel"><g transform="translate(0, 0)" class="label"><foreignObject height="0" width="0"><div style="display: table-cell; white-space: nowrap; line-height: 1.5; max-width: 200px; text-align: center;" class="labelBkg" xmlns="http://www.w3.org/1999/xhtml"><span class="edgeLabel"></span></div></foreignObject></g></g><g class="edgeLabel"><g transform="translate(0, 0)" class="label"><foreignObject height="0" width="0"><div style="display: table-cell; white-space: nowrap; line-height: 1.5; max-width: 200px; text-align: center;" class="labelBkg" xmlns="http://www.w3.org/1999/xhtml"><span class="edgeLabel"></span></div></foreignObject></g></g><g class="edgeLabel"><g transform="translate(0, 0)" class="label"><foreignObject height="0" width="0"><div style="display: table-cell; white-space: nowrap; line-height: 1.5; max-width: 200px; text-align: center;" class="labelBkg" xmlns="http://www.w3.org/1999/xhtml"><span class="edgeLabel"></span></div></foreignObject></g></g><g class="edgeLabel"><g transform="translate(0, 0)" class="label"><foreignObject height="0" width="0"><div style="display: table-cell; white-space: nowrap; line-height: 1.5; max-width: 200px; text-align: center;" class="labelBkg" xmlns="http://www.w3.org/1999/xhtml"><span class="edgeLabel"></span></div></foreignObject></g></g><g class="edgeLabel"><g transform="translate(0, 0)" class="label"><foreignObject height="0" width="0"><div style="display: table-cell; white-space: nowrap; line-height: 1.5; max-width: 200px; text-align: center;" class="labelBkg" xmlns="http://www.w3.org/1999/xhtml"><span class="edgeLabel"></span></div></foreignObject></g></g><g transform="translate(565.6015625, 1100.6309051513672)" class="edgeLabel"><g transform="translate(-31.296875, -24)" class="label"><foreignObject height="48" width="62.59375"><div style="display: table-cell; white-space: nowrap; line-height: 1.5; max-width: 200px; text-align: center;" class="labelBkg" xmlns="http://www.w3.org/1999/xhtml"><span class="edgeLabel"><p>delegate<br />voting</p></span></div></foreignObject></g></g></g><g class="nodes"><g transform="translate(455.80859375, 71)" id="flowchart-p-0" class="node default"><polygon transform="translate(-85.078125,63)" class="label-container" points="0,0 170.15625,0 233.15625,-126 -63,-126"/><g transform="translate(-70.078125, -48)" style="" class="label"><rect/><foreignObject height="96" width="140.15625"><div style="display: table-cell; white-space: nowrap; line-height: 1.5; max-width: 200px; text-align: center;" xmlns="http://www.w3.org/1999/xhtml"><span class="nodeLabel"><p>proposal:<br />create a dataset on<br />decent vs cent AI<br />understanding</p></span></div></foreignObject></g></g><g transform="translate(455.80859375, 264.140625)" id="flowchart-v-1" class="node default"><polygon transform="translate(-80.140625,80.140625)" class="label-container" points="80.140625,0 160.28125,-80.140625 80.140625,-160.28125 0,-80.140625"/><g transform="translate(-41.140625, -24)" style="" class="label"><rect/><foreignObject height="48" width="82.28125"><div style="display: table-cell; white-space: nowrap; line-height: 1.5; max-width: 200px; text-align: center;" xmlns="http://www.w3.org/1999/xhtml"><span class="nodeLabel"><p>vote on the<br />proposal</p></span></div></foreignObject></g></g><g transform="translate(565.6015625, 1374.8184051513672)" id="flowchart-ai-2" class="node default"><g style="" class="basic label-container"><circle cy="0" cx="0" r="73.1875" style="" class="outer-circle"/><circle cy="0" cx="0" r="68.1875" style="" class="inner-circle"/></g><g transform="translate(-60.6875, -36)" style="" class="label"><rect/><foreignObject height="72" width="121.375"><div style="display: table-cell; white-space: nowrap; line-height: 1.5; max-width: 200px; text-align: center;" xmlns="http://www.w3.org/1999/xhtml"><span class="nodeLabel"><p><b>AI DAO Delegate</b><br />as an on-chain<br />GPU LLM</p></span></div></foreignObject></g></g><g transform="translate(224.71875, 497.78125)" id="flowchart-pr-3" class="node default"><polygon transform="translate(-50.71875,31.5)" class="label-container" points="0,0 101.4375,0 101.4375,-63 0,-63 0,0 -8,0 109.4375,0 109.4375,-63 -8,-63 -8,0"/><g transform="translate(-43.21875, -24)" style="" class="label"><rect/><foreignObject height="48" width="86.4375"><div style="display: table-cell; white-space: nowrap; line-height: 1.5; max-width: 200px; text-align: center;" xmlns="http://www.w3.org/1999/xhtml"><span class="nodeLabel"><p>peer-review<br />manager</p></span></div></foreignObject></g></g><g transform="translate(85.546875, 708.6592025756836)" id="flowchart-a-4" class="node default"><rect height="39" width="78.265625" y="-19.5" x="-39.1328125" ry="19.5" rx="19.5" style="" class="basic label-container"/><g transform="translate(-26.7578125, -12)" style="" class="label"><rect/><foreignObject height="24" width="53.515625"><div style="display: table-cell; white-space: nowrap; line-height: 1.5; max-width: 200px; text-align: center;" xmlns="http://www.w3.org/1999/xhtml"><span class="nodeLabel"><p>authors</p></span></div></foreignObject></g></g><g transform="translate(266.15625, 708.6592025756836)" id="flowchart-r-5" class="node default"><rect height="39" width="94.15625" y="-19.5" x="-47.078125" ry="19.5" rx="19.5" style="" class="basic label-container"/><g transform="translate(-34.703125, -12)" style="" class="label"><rect/><foreignObject height="24" width="69.40625"><div style="display: table-cell; white-space: nowrap; line-height: 1.5; max-width: 200px; text-align: center;" xmlns="http://www.w3.org/1999/xhtml"><span class="nodeLabel"><p>reviewers</p></span></div></foreignObject></g></g><g transform="translate(400.3515625, 708.6592025756836)" id="flowchart-data-6" class="node default"><path transform="translate(-36.71875, -33.37795275590551)" style="" class="basic label-container" d="M0,9.251968503937007 a36.71875,9.251968503937007 0,0,0 73.4375,0 a36.71875,9.251968503937007 0,0,0 -73.4375,0 l0,48.25196850393701 a36.71875,9.251968503937007 0,0,0 73.4375,0 l0,-48.25196850393701"/><g transform="translate(-29.21875, -2)" style="" class="label"><rect/><foreignObject height="24" width="58.4375"><div style="display: table-cell; white-space: nowrap; line-height: 1.5; max-width: 200px; text-align: center;" xmlns="http://www.w3.org/1999/xhtml"><span class="nodeLabel"><p>data set</p></span></div></foreignObject></g></g><g transform="translate(410.3515625, 945.8340301513672)" id="flowchart-dp-7" class="node default"><polygon transform="translate(-105.796875,105.796875)" class="label-container" points="105.796875,0 211.59375,-105.796875 105.796875,-211.59375 0,-105.796875"/><g transform="translate(-54.796875, -36)" style="" class="label"><rect/><foreignObject height="72" width="109.59375"><div style="display: table-cell; white-space: nowrap; line-height: 1.5; max-width: 200px; text-align: center;" xmlns="http://www.w3.org/1999/xhtml"><span class="nodeLabel"><p>delegator's<br />personalization<br />of data</p></span></div></foreignObject></g></g><g transform="translate(548.96484375, 708.6592025756836)" id="flowchart-d-8" class="node default"><rect height="63" width="99.421875" y="-31.5" x="-49.7109375" ry="31.5" rx="31.5" style="" class="basic label-container"/><g transform="translate(-34.3359375, -24)" style="" class="label"><rect/><foreignObject height="48" width="68.671875"><div style="display: table-cell; white-space: nowrap; line-height: 1.5; max-width: 200px; text-align: center;" xmlns="http://www.w3.org/1999/xhtml"><span class="nodeLabel"><p>human<br />delegator</p></span></div></foreignObject></g></g><g transform="translate(410.3515625, 1200.6309051513672)" id="flowchart-pc-9" class="node default"><rect height="102" width="131.5625" y="-51" x="-65.78125" style="" class="basic label-container"/><g transform="translate(-35.78125, -36)" style="" class="label"><rect/><foreignObject height="72" width="71.5625"><div style="display: table-cell; white-space: nowrap; line-height: 1.5; max-width: 200px; text-align: center;" xmlns="http://www.w3.org/1999/xhtml"><span class="nodeLabel"><p>alignment<br />context<br />in prompt</p></span></div></foreignObject></g></g></g></g></g></svg>