<svg aria-roledescription="class" role="graphics-document document" viewBox="0 0 136.140625 234" style="max-width: 136.141px; background-color: white;" class="classDiagram" xmlns:xlink="http://www.w3.org/1999/xlink" xmlns="http://www.w3.org/2000/svg" width="100%" id="my-svg"><style>#my-svg{font-family:"trebuchet ms",verdana,arial,sans-serif;font-size:16px;fill:#333;}#my-svg .error-icon{fill:#552222;}#my-svg .error-text{fill:#552222;stroke:#552222;}#my-svg .edge-thickness-normal{stroke-width:1px;}#my-svg .edge-thickness-thick{stroke-width:3.5px;}#my-svg .edge-pattern-solid{stroke-dasharray:0;}#my-svg .edge-thickness-invisible{stroke-width:0;fill:none;}#my-svg .edge-pattern-dashed{stroke-dasharray:3;}#my-svg .edge-pattern-dotted{stroke-dasharray:2;}#my-svg .marker{fill:#333333;stroke:#333333;}#my-svg .marker.cross{stroke:#333333;}#my-svg svg{font-family:"trebuchet ms",verdana,arial,sans-serif;font-size:16px;}#my-svg p{margin:0;}#my-svg g.classGroup text{fill:#9370DB;stroke:none;font-family:"trebuchet ms",verdana,arial,sans-serif;font-size:10px;}#my-svg g.classGroup text .title{font-weight:bolder;}#my-svg .nodeLabel,#my-svg .edgeLabel{color:#131300;}#my-svg .edgeLabel .label rect{fill:#ECECFF;}#my-svg .label text{fill:#131300;}#my-svg .labelBkg{background:#ECECFF;}#my-svg .edgeLabel .label span{background:#ECECFF;}#my-svg .classTitle{font-weight:bolder;}#my-svg .node rect,#my-svg .node circle,#my-svg .node ellipse,#my-svg .node polygon,#my-svg .node path{fill:#ECECFF;stroke:#9370DB;stroke-width:1px;}#my-svg .divider{stroke:#9370DB;stroke-width:1;}#my-svg g.clickable{cursor:pointer;}#my-svg g.classGroup rect{fill:#ECECFF;stroke:#9370DB;}#my-svg g.classGroup line{stroke:#9370DB;stroke-width:1;}#my-svg .classLabel .box{stroke:none;stroke-width:0;fill:#ECECFF;opacity:0.5;}#my-svg .classLabel .label{fill:#9370DB;font-size:10px;}#my-svg .relation{stroke:#333333;stroke-width:1;fill:none;}#my-svg .dashed-line{stroke-dasharray:3;}#my-svg .dotted-line{stroke-dasharray:1 2;}#my-svg #compositionStart,#my-svg .composition{fill:#333333!important;stroke:#333333!important;stroke-width:1;}#my-svg #compositionEnd,#my-svg .composition{fill:#333333!important;stroke:#333333!important;stroke-width:1;}#my-svg #dependencyStart,#my-svg .dependency{fill:#333333!important;stroke:#333333!important;stroke-width:1;}#my-svg #dependencyStart,#my-svg .dependency{fill:#333333!important;stroke:#333333!important;stroke-width:1;}#my-svg #extensionStart,#my-svg .extension{fill:transparent!important;stroke:#333333!important;stroke-width:1;}#my-svg #extensionEnd,#my-svg .extension{fill:transparent!important;stroke:#333333!important;stroke-width:1;}#my-svg #aggregationStart,#my-svg .aggregation{fill:transparent!important;stroke:#333333!important;stroke-width:1;}#my-svg #aggregationEnd,#my-svg .aggregation{fill:transparent!important;stroke:#333333!important;stroke-width:1;}#my-svg #lollipopStart,#my-svg .lollipop{fill:#ECECFF!important;stroke:#333333!important;stroke-width:1;}#my-svg #lollipopEnd,#my-svg .lollipop{fill:#ECECFF!important;stroke:#333333!important;stroke-width:1;}#my-svg .edgeTerminals{font-size:11px;line-height:initial;}#my-svg .classTitleText{text-anchor:middle;font-size:18px;fill:#333;}#my-svg :root{--mermaid-font-family:"trebuchet ms",verdana,arial,sans-serif;}</style><g><defs><marker orient="auto" markerHeight="240" markerWidth="190" refY="7" refX="18" class="marker aggregation class" id="my-svg_class-aggregationStart"><path d="M 18,7 L9,13 L1,7 L9,1 Z"/></marker></defs><defs><marker orient="auto" markerHeight="28" markerWidth="20" refY="7" refX="1" class="marker aggregation class" id="my-svg_class-aggregationEnd"><path d="M 18,7 L9,13 L1,7 L9,1 Z"/></marker></defs><defs><marker orient="auto" markerHeight="240" markerWidth="190" refY="7" refX="18" class="marker extension class" id="my-svg_class-extensionStart"><path d="M 1,7 L18,13 V 1 Z"/></marker></defs><defs><marker orient="auto" markerHeight="28" markerWidth="20" refY="7" refX="1" class="marker extension class" id="my-svg_class-extensionEnd"><path d="M 1,1 V 13 L18,7 Z"/></marker></defs><defs><marker orient="auto" markerHeight="240" markerWidth="190" refY="7" refX="18" class="marker composition class" id="my-svg_class-compositionStart"><path d="M 18,7 L9,13 L1,7 L9,1 Z"/></marker></defs><defs><marker orient="auto" markerHeight="28" markerWidth="20" refY="7" refX="1" class="marker composition class" id="my-svg_class-compositionEnd"><path d="M 18,7 L9,13 L1,7 L9,1 Z"/></marker></defs><defs><marker orient="auto" markerHeight="240" markerWidth="190" refY="7" refX="6" class="marker dependency class" id="my-svg_class-dependencyStart"><path d="M 5,7 L9,13 L1,7 L9,1 Z"/></marker></defs><defs><marker orient="auto" markerHeight="28" markerWidth="20" refY="7" refX="13" class="marker dependency class" id="my-svg_class-dependencyEnd"><path d="M 18,7 L9,13 L14,7 L9,1 Z"/></marker></defs><defs><marker orient="auto" markerHeight="240" markerWidth="190" refY="7" refX="13" class="marker lollipop class" id="my-svg_class-lollipopStart"><circle r="6" cy="7" cx="7" fill="transparent" stroke="black"/></marker></defs><defs><marker orient="auto" markerHeight="240" markerWidth="190" refY="7" refX="1" class="marker lollipop class" id="my-svg_class-lollipopEnd"><circle r="6" cy="7" cx="7" fill="transparent" stroke="black"/></marker></defs><g class="root"><g class="clusters"/><g class="edgePaths"><path style=";" class="edge-thickness-normal edge-pattern-solid relation" id="id_CorsoOfferto_Orario_1" d="M68.07,92L68.07,96.167C68.07,100.333,68.07,108.667,68.07,117C68.07,125.333,68.07,133.667,68.07,137.833L68.07,142"/></g><g class="edgeLabels"><g class="edgeLabel"><g transform="translate(0, -12)" class="label"><foreignObject height="24" width="0"><div class="labelBkg" xmlns="http://www.w3.org/1999/xhtml" style="display: table-cell; white-space: nowrap; line-height: 1.5; max-width: 200px; text-align: center;"><span class="edgeLabel" style=";display: inline-block"></span></div></foreignObject></g></g><g transform="translate(53.070311250000046, 109.49999892857143)" class="edgeTerminals"><g transform="translate(0, 0)" class="inner"><foreignObject style="width: 36px; height: 12px;"><div xmlns="http://www.w3.org/1999/xhtml" style="display: inline-block; padding-right: 1px; white-space: nowrap;"><span style=";display: inline-block" class="edgeLabel">0..n</span></div></foreignObject></g></g><g transform="translate(78.07031124999996, 119.49999892857143)" class="edgeTerminals"><g transform="translate(0, 0)" class="inner"/><foreignObject style="width: 36px; height: 12px;"><div xmlns="http://www.w3.org/1999/xhtml" style="display: inline-block; padding-right: 1px; white-space: nowrap;"><span style=";display: inline-block" class="edgeLabel">0..n</span></div></foreignObject></g></g><g class="nodes"><g transform="translate(68.0703125, 184)" id="classId-Orario-0" class="node default"><g class="basic label-container"><path style="" fill="#ECECFF" stroke-width="0" stroke="none" d="M-35.390625 -42 L35.390625 -42 L35.390625 42 L-35.390625 42"/><path style="" fill="none" stroke-width="1.3" stroke="#9370DB" d="M-35.390625 -42 C-12.734920827369312 -42, 9.920783345261377 -42, 35.390625 -42 M-35.390625 -42 C-13.948703082299811 -42, 7.493218835400377 -42, 35.390625 -42 M35.390625 -42 C35.390625 -18.882550975371032, 35.390625 4.234898049257936, 35.390625 42 M35.390625 -42 C35.390625 -11.040553027563604, 35.390625 19.918893944872792, 35.390625 42 M35.390625 42 C10.71271884082358 42, -13.96518731835284 42, -35.390625 42 M35.390625 42 C12.584187787735292 42, -10.222249424529416 42, -35.390625 42 M-35.390625 42 C-35.390625 19.82390014840967, -35.390625 -2.352199703180659, -35.390625 -42 M-35.390625 42 C-35.390625 10.037047802263405, -35.390625 -21.92590439547319, -35.390625 -42"/></g><g transform="translate(0, -18)" class="annotation-group text"/><g transform="translate(-23.390625, -18)" class="label-group text"><g transform="translate(0,-12)" style="font-weight: bolder" class="label"><foreignObject height="24" width="46.78125"><div style="display: table-cell; white-space: nowrap; line-height: 1.5; max-width: 92px; text-align: center;" xmlns="http://www.w3.org/1999/xhtml"><span style="" class="nodeLabel markdown-node-label"><p>Orario</p></span></div></foreignObject></g></g><g transform="translate(-23.390625, 30)" class="members-group text"/><g transform="translate(-23.390625, 60)" class="methods-group text"/><g style="" class="divider"><path style="" fill="none" stroke-width="1.3" stroke="#9370DB" d="M-35.390625 6 C-13.793252156365693 6, 7.804120687268615 6, 35.390625 6 M-35.390625 6 C-10.234358889878376 6, 14.921907220243249 6, 35.390625 6"/></g><g style="" class="divider"><path style="" fill="none" stroke-width="1.3" stroke="#9370DB" d="M-35.390625 24 C-8.267995279261271 24, 18.854634441477458 24, 35.390625 24 M-35.390625 24 C-7.970174412308928 24, 19.450276175382143 24, 35.390625 24"/></g></g><g transform="translate(68.0703125, 50)" id="classId-CorsoOfferto-1" class="node default"><g class="basic label-container"><path style="" fill="#ECECFF" stroke-width="0" stroke="none" d="M-60.0703125 -42 L60.0703125 -42 L60.0703125 42 L-60.0703125 42"/><path style="" fill="none" stroke-width="1.3" stroke="#9370DB" d="M-60.0703125 -42 C-34.965935855921366 -42, -9.861559211842732 -42, 60.0703125 -42 M-60.0703125 -42 C-35.27109381320459 -42, -10.47187512640918 -42, 60.0703125 -42 M60.0703125 -42 C60.0703125 -17.5630976797917, 60.0703125 6.873804640416601, 60.0703125 42 M60.0703125 -42 C60.0703125 -14.869152442968677, 60.0703125 12.261695114062647, 60.0703125 42 M60.0703125 42 C26.06269028050032 42, -7.9449319389993605 42, -60.0703125 42 M60.0703125 42 C30.522289640974567 42, 0.9742667819491331 42, -60.0703125 42 M-60.0703125 42 C-60.0703125 17.148888292945934, -60.0703125 -7.702223414108133, -60.0703125 -42 M-60.0703125 42 C-60.0703125 22.493925347323373, -60.0703125 2.9878506946467454, -60.0703125 -42"/></g><g transform="translate(0, -18)" class="annotation-group text"/><g transform="translate(-48.0703125, -18)" class="label-group text"><g transform="translate(0,-12)" style="font-weight: bolder" class="label"><foreignObject height="24" width="96.140625"><div style="display: table-cell; white-space: nowrap; line-height: 1.5; max-width: 135px; text-align: center;" xmlns="http://www.w3.org/1999/xhtml"><span style="" class="nodeLabel markdown-node-label"><p>CorsoOfferto</p></span></div></foreignObject></g></g><g transform="translate(-48.0703125, 30)" class="members-group text"/><g transform="translate(-48.0703125, 60)" class="methods-group text"/><g style="" class="divider"><path style="" fill="none" stroke-width="1.3" stroke="#9370DB" d="M-60.0703125 6 C-31.697949355270623 6, -3.325586210541246 6, 60.0703125 6 M-60.0703125 6 C-29.695710027188223 6, 0.6788924456235534 6, 60.0703125 6"/></g><g style="" class="divider"><path style="" fill="none" stroke-width="1.3" stroke="#9370DB" d="M-60.0703125 24 C-19.748679723266022 24, 20.572953053467955 24, 60.0703125 24 M-60.0703125 24 C-30.80844177495414 24, -1.5465710499082803 24, 60.0703125 24"/></g></g></g></g></g></svg>