<svg aria-roledescription="er" role="graphics-document document" viewBox="0 0 184.5 612.458984375" style="max-width: 184.5px; background-color: white;" xmlns:xlink="http://www.w3.org/1999/xlink" xmlns="http://www.w3.org/2000/svg" width="100%" id="my-svg"><style>#my-svg{font-family:"trebuchet ms",verdana,arial,sans-serif;font-size:16px;fill:#333;}#my-svg .error-icon{fill:#552222;}#my-svg .error-text{fill:#552222;stroke:#552222;}#my-svg .edge-thickness-normal{stroke-width:1px;}#my-svg .edge-thickness-thick{stroke-width:3.5px;}#my-svg .edge-pattern-solid{stroke-dasharray:0;}#my-svg .edge-thickness-invisible{stroke-width:0;fill:none;}#my-svg .edge-pattern-dashed{stroke-dasharray:3;}#my-svg .edge-pattern-dotted{stroke-dasharray:2;}#my-svg .marker{fill:#333333;stroke:#333333;}#my-svg .marker.cross{stroke:#333333;}#my-svg svg{font-family:"trebuchet ms",verdana,arial,sans-serif;font-size:16px;}#my-svg p{margin:0;}#my-svg .entityBox{fill:#ECECFF;stroke:#9370DB;}#my-svg .attributeBoxOdd{fill:#ffffff;stroke:#9370DB;}#my-svg .attributeBoxEven{fill:#f2f2f2;stroke:#9370DB;}#my-svg .relationshipLabelBox{fill:hsl(80, 100%, 96.2745098039%);opacity:0.7;background-color:hsl(80, 100%, 96.2745098039%);}#my-svg .relationshipLabelBox rect{opacity:0.5;}#my-svg .relationshipLine{stroke:#333333;}#my-svg .entityTitleText{text-anchor:middle;font-size:18px;fill:#333;}#my-svg #MD_PARENT_START{fill:#f5f5f5!important;stroke:#333333!important;stroke-width:1;}#my-svg #MD_PARENT_END{fill:#f5f5f5!important;stroke:#333333!important;stroke-width:1;}#my-svg :root{--mermaid-font-family:"trebuchet ms",verdana,arial,sans-serif;}</style><g/><defs><marker orient="auto" markerHeight="240" markerWidth="190" refY="7" refX="0" id="MD_PARENT_START"><path d="M 18,7 L9,13 L1,7 L9,1 Z"/></marker></defs><defs><marker orient="auto" markerHeight="28" markerWidth="20" refY="7" refX="19" id="MD_PARENT_END"><path d="M 18,7 L9,13 L1,7 L9,1 Z"/></marker></defs><defs><marker orient="auto" markerHeight="18" markerWidth="18" refY="9" refX="0" id="ONLY_ONE_START"><path d="M9,0 L9,18 M15,0 L15,18" fill="none" stroke="gray"/></marker></defs><defs><marker orient="auto" markerHeight="18" markerWidth="18" refY="9" refX="18" id="ONLY_ONE_END"><path d="M3,0 L3,18 M9,0 L9,18" fill="none" stroke="gray"/></marker></defs><defs><marker orient="auto" markerHeight="18" markerWidth="30" refY="9" refX="0" id="ZERO_OR_ONE_START"><circle r="6" cy="9" cx="21" fill="white" stroke="gray"/><path d="M9,0 L9,18" fill="none" stroke="gray"/></marker></defs><defs><marker orient="auto" markerHeight="18" markerWidth="30" refY="9" refX="30" id="ZERO_OR_ONE_END"><circle r="6" cy="9" cx="9" fill="white" stroke="gray"/><path d="M21,0 L21,18" fill="none" stroke="gray"/></marker></defs><defs><marker orient="auto" markerHeight="36" markerWidth="45" refY="18" refX="18" id="ONE_OR_MORE_START"><path d="M0,18 Q 18,0 36,18 Q 18,36 0,18 M42,9 L42,27" fill="none" stroke="gray"/></marker></defs><defs><marker orient="auto" markerHeight="36" markerWidth="45" refY="18" refX="27" id="ONE_OR_MORE_END"><path d="M3,9 L3,27 M9,18 Q27,0 45,18 Q27,36 9,18" fill="none" stroke="gray"/></marker></defs><defs><marker orient="auto" markerHeight="36" markerWidth="57" refY="18" refX="18" id="ZERO_OR_MORE_START"><circle r="6" cy="18" cx="48" fill="white" stroke="gray"/><path d="M0,18 Q18,0 36,18 Q18,36 0,18" fill="none" stroke="gray"/></marker></defs><defs><marker orient="auto" markerHeight="36" markerWidth="57" refY="18" refX="39" id="ZERO_OR_MORE_END"><circle r="6" cy="18" cx="9" fill="white" stroke="gray"/><path d="M21,18 Q39,0 57,18 Q39,36 21,18" fill="none" stroke="gray"/></marker></defs><path style="stroke: gray; fill: none;" marker-start="url(#ONLY_ONE_START)" marker-end="url(#ZERO_OR_MORE_END)" stroke-dasharray="8,8" d="M92.25,424.275L92.25,432.609C92.25,440.942,92.25,457.609,92.25,474.275C92.25,490.942,92.25,507.609,92.25,515.942L92.25,524.275" class="er relationshipLine"/><path style="stroke: gray; fill: none;" marker-start="url(#ONLY_ONE_START)" marker-end="url(#ONE_OR_MORE_END)" stroke-dasharray="8,8" d="M92.25,256.092L92.25,264.425C92.25,272.758,92.25,289.425,92.25,306.092C92.25,322.758,92.25,339.425,92.25,347.758L92.25,356.092" class="er relationshipLine"/><path style="stroke: gray; fill: none;" marker-start="url(#ONLY_ONE_START)" marker-end="url(#ZERO_OR_MORE_END)" stroke-dasharray="8,8" d="M92.25,88L92.25,96.333C92.25,104.667,92.25,121.333,92.25,138C92.25,154.667,92.25,171.333,92.25,179.667L92.25,188" class="er relationshipLine"/><g transform="translate(32.4921875,524.275390625 )" id="entity-Appartement-b954d535-eb66-5445-ae41-30268204f58d"><rect height="68.18359375" width="119.515625" y="0" x="0" class="er entityBox"/><text style="dominant-baseline: middle; text-anchor: middle; font-size: 12px;" transform="translate(59.7578125,12)" y="0" x="0" id="text-entity-Appartement-b954d535-eb66-5445-ae41-30268204f58d" class="er entityLabel">Appartement</text><rect height="22.091796875" width="32.890625" y="24" x="0" class="er attributeBoxOdd"/><text style="dominant-baseline: middle; font-size: 10.2px;" transform="translate(5,35.0458984375)" y="0" x="0" id="text-entity-Appartement-b954d535-eb66-5445-ae41-30268204f58d-attr-1-type" class="er entityLabel">TYPE</text><rect height="22.091796875" width="65.0625" y="24" x="32.890625" class="er attributeBoxOdd"/><text style="dominant-baseline: middle; font-size: 10.2px;" transform="translate(37.890625,35.0458984375)" y="0" x="0" id="text-entity-Appartement-b954d535-eb66-5445-ae41-30268204f58d-attr-1-name" class="er entityLabel">num_appart</text><rect height="22.091796875" width="21.5625" y="24" x="97.953125" class="er attributeBoxOdd"/><text style="dominant-baseline: middle; font-size: 10.2px;" transform="translate(102.953125,35.0458984375)" y="0" x="0" id="text-entity-Appartement-b954d535-eb66-5445-ae41-30268204f58d-attr-1-key" class="er entityLabel">PK</text><rect height="22.091796875" width="32.890625" y="46.091796875" x="0" class="er attributeBoxEven"/><text style="dominant-baseline: middle; font-size: 10.2px;" transform="translate(5,57.1376953125)" y="0" x="0" id="text-entity-Appartement-b954d535-eb66-5445-ae41-30268204f58d-attr-2-type" class="er entityLabel">TYPE</text><rect height="22.091796875" width="65.0625" y="46.091796875" x="32.890625" class="er attributeBoxEven"/><text style="dominant-baseline: middle; font-size: 10.2px;" transform="translate(37.890625,57.1376953125)" y="0" x="0" id="text-entity-Appartement-b954d535-eb66-5445-ae41-30268204f58d-attr-2-name" class="er entityLabel">nb_pieces</text><rect height="22.091796875" width="21.5625" y="46.091796875" x="97.953125" class="er attributeBoxEven"/><text style="dominant-baseline: middle; font-size: 10.2px;" transform="translate(102.953125,57.1376953125)" y="0" x="0" id="text-entity-Appartement-b954d535-eb66-5445-ae41-30268204f58d-attr-2-key" class="er entityLabel"/></g><g transform="translate(20,356.091796875 )" id="entity-Etage-e3407293-2366-5099-9c88-db591d946ba7"><rect height="68.18359375" width="144.5" y="0" x="0" class="er entityBox"/><text style="dominant-baseline: middle; text-anchor: middle; font-size: 12px;" transform="translate(72.25,12)" y="0" x="0" id="text-entity-Etage-e3407293-2366-5099-9c88-db591d946ba7" class="er entityLabel">Etage</text><rect height="22.091796875" width="32.890625" y="24" x="0" class="er attributeBoxOdd"/><text style="dominant-baseline: middle; font-size: 10.2px;" transform="translate(5,35.0458984375)" y="0" x="0" id="text-entity-Etage-e3407293-2366-5099-9c88-db591d946ba7-attr-1-type" class="er entityLabel">TYPE</text><rect height="22.091796875" width="90.046875" y="24" x="32.890625" class="er attributeBoxOdd"/><text style="dominant-baseline: middle; font-size: 10.2px;" transform="translate(37.890625,35.0458984375)" y="0" x="0" id="text-entity-Etage-e3407293-2366-5099-9c88-db591d946ba7-attr-1-name" class="er entityLabel">num_etage</text><rect height="22.091796875" width="21.5625" y="24" x="122.9375" class="er attributeBoxOdd"/><text style="dominant-baseline: middle; font-size: 10.2px;" transform="translate(127.9375,35.0458984375)" y="0" x="0" id="text-entity-Etage-e3407293-2366-5099-9c88-db591d946ba7-attr-1-key" class="er entityLabel">PK</text><rect height="22.091796875" width="32.890625" y="46.091796875" x="0" class="er attributeBoxEven"/><text style="dominant-baseline: middle; font-size: 10.2px;" transform="translate(5,57.1376953125)" y="0" x="0" id="text-entity-Etage-e3407293-2366-5099-9c88-db591d946ba7-attr-2-type" class="er entityLabel">TYPE</text><rect height="22.091796875" width="90.046875" y="46.091796875" x="32.890625" class="er attributeBoxEven"/><text style="dominant-baseline: middle; font-size: 10.2px;" transform="translate(37.890625,57.1376953125)" y="0" x="0" id="text-entity-Etage-e3407293-2366-5099-9c88-db591d946ba7-attr-2-name" class="er entityLabel">nb_appartements</text><rect height="22.091796875" width="21.5625" y="46.091796875" x="122.9375" class="er attributeBoxEven"/><text style="dominant-baseline: middle; font-size: 10.2px;" transform="translate(127.9375,57.1376953125)" y="0" x="0" id="text-entity-Etage-e3407293-2366-5099-9c88-db591d946ba7-attr-2-key" class="er entityLabel"/></g><g transform="translate(24.921875,188 )" id="entity-Immeuble-e3738f06-4e41-5e5d-b8b6-83e6b6c8408a"><rect height="68.091796875" width="134.65625" y="0" x="0" class="er entityBox"/><text style="dominant-baseline: middle; text-anchor: middle; font-size: 12px;" transform="translate(67.328125,12)" y="0" x="0" id="text-entity-Immeuble-e3738f06-4e41-5e5d-b8b6-83e6b6c8408a" class="er entityLabel">Immeuble</text><rect height="22" width="32.890625" y="24" x="0" class="er attributeBoxOdd"/><text style="dominant-baseline: middle; font-size: 10.2px;" transform="translate(5,35)" y="0" x="0" id="text-entity-Immeuble-e3738f06-4e41-5e5d-b8b6-83e6b6c8408a-attr-1-type" class="er entityLabel">TYPE</text><rect height="22" width="80.203125" y="24" x="32.890625" class="er attributeBoxOdd"/><text style="dominant-baseline: middle; font-size: 10.2px;" transform="translate(37.890625,35)" y="0" x="0" id="text-entity-Immeuble-e3738f06-4e41-5e5d-b8b6-83e6b6c8408a-attr-1-name" class="er entityLabel">num_immeuble</text><rect height="22" width="21.5625" y="24" x="113.09375" class="er attributeBoxOdd"/><text style="dominant-baseline: middle; font-size: 10.2px;" transform="translate(118.09375,35)" y="0" x="0" id="text-entity-Immeuble-e3738f06-4e41-5e5d-b8b6-83e6b6c8408a-attr-1-key" class="er entityLabel">PK</text><rect height="22.091796875" width="32.890625" y="46" x="0" class="er attributeBoxEven"/><text style="dominant-baseline: middle; font-size: 10.2px;" transform="translate(5,57.0458984375)" y="0" x="0" id="text-entity-Immeuble-e3738f06-4e41-5e5d-b8b6-83e6b6c8408a-attr-2-type" class="er entityLabel">TYPE</text><rect height="22.091796875" width="80.203125" y="46" x="32.890625" class="er attributeBoxEven"/><text style="dominant-baseline: middle; font-size: 10.2px;" transform="translate(37.890625,57.0458984375)" y="0" x="0" id="text-entity-Immeuble-e3738f06-4e41-5e5d-b8b6-83e6b6c8408a-attr-2-name" class="er entityLabel">nb_etages</text><rect height="22.091796875" width="21.5625" y="46" x="113.09375" class="er attributeBoxEven"/><text style="dominant-baseline: middle; font-size: 10.2px;" transform="translate(118.09375,57.0458984375)" y="0" x="0" id="text-entity-Immeuble-e3738f06-4e41-5e5d-b8b6-83e6b6c8408a-attr-2-key" class="er entityLabel"/></g><g transform="translate(38.90625,20 )" id="entity-Rue-7c4a688f-8efe-54ce-a4fe-358fc764cb80"><rect height="68" width="106.6875" y="0" x="0" class="er entityBox"/><text style="dominant-baseline: middle; text-anchor: middle; font-size: 12px;" transform="translate(53.34375,12)" y="0" x="0" id="text-entity-Rue-7c4a688f-8efe-54ce-a4fe-358fc764cb80" class="er entityLabel">Rue</text><rect height="22" width="32.890625" y="24" x="0" class="er attributeBoxOdd"/><text style="dominant-baseline: middle; font-size: 10.2px;" transform="translate(5,35)" y="0" x="0" id="text-entity-Rue-7c4a688f-8efe-54ce-a4fe-358fc764cb80-attr-1-type" class="er entityLabel">TYPE</text><rect height="22" width="52.234375" y="24" x="32.890625" class="er attributeBoxOdd"/><text style="dominant-baseline: middle; font-size: 10.2px;" transform="translate(37.890625,35)" y="0" x="0" id="text-entity-Rue-7c4a688f-8efe-54ce-a4fe-358fc764cb80-attr-1-name" class="er entityLabel">code_rue</text><rect height="22" width="21.5625" y="24" x="85.125" class="er attributeBoxOdd"/><text style="dominant-baseline: middle; font-size: 10.2px;" transform="translate(90.125,35)" y="0" x="0" id="text-entity-Rue-7c4a688f-8efe-54ce-a4fe-358fc764cb80-attr-1-key" class="er entityLabel">PK</text><rect height="22" width="32.890625" y="46" x="0" class="er attributeBoxEven"/><text style="dominant-baseline: middle; font-size: 10.2px;" transform="translate(5,57)" y="0" x="0" id="text-entity-Rue-7c4a688f-8efe-54ce-a4fe-358fc764cb80-attr-2-type" class="er entityLabel">TYPE</text><rect height="22" width="52.234375" y="46" x="32.890625" class="er attributeBoxEven"/><text style="dominant-baseline: middle; font-size: 10.2px;" transform="translate(37.890625,57)" y="0" x="0" id="text-entity-Rue-7c4a688f-8efe-54ce-a4fe-358fc764cb80-attr-2-name" class="er entityLabel">nom_rue</text><rect height="22" width="21.5625" y="46" x="85.125" class="er attributeBoxEven"/><text style="dominant-baseline: middle; font-size: 10.2px;" transform="translate(90.125,57)" y="0" x="0" id="text-entity-Rue-7c4a688f-8efe-54ce-a4fe-358fc764cb80-attr-2-key" class="er entityLabel"/></g><rect height="14" width="52.78125" y="467.2750244140625" x="65.859375" class="er relationshipLabelBox"/><text style="text-anchor: middle; dominant-baseline: middle; font-size: 12px;" y="474.2750244140625" x="92.25" id="rel1" class="er relationshipLabel">Composer</text><rect height="14" width="57.375" y="299.0920104980469" x="63.5625" class="er relationshipLabelBox"/><text style="text-anchor: middle; dominant-baseline: middle; font-size: 12px;" y="306.0920104980469" x="92.25" id="rel2" class="er relationshipLabel">Appartenir</text><rect height="14" width="49.421875" y="131" x="67.5390625" class="er relationshipLabelBox"/><text style="text-anchor: middle; dominant-baseline: middle; font-size: 12px;" y="138" x="92.25" id="rel3" class="er relationshipLabel">Se_situer</text></svg>