<svg aria-roledescription="er" role="graphics-document document" viewBox="0 -62 866.96875 492.55078125" style="max-width: 866.969px; background-color: white;" xmlns:xlink="http://www.w3.org/1999/xlink" xmlns="http://www.w3.org/2000/svg" width="100%" id="my-svg"><style>#my-svg{font-family:"trebuchet ms",verdana,arial,sans-serif;font-size:16px;fill:#333;}#my-svg .error-icon{fill:#552222;}#my-svg .error-text{fill:#552222;stroke:#552222;}#my-svg .edge-thickness-normal{stroke-width:1px;}#my-svg .edge-thickness-thick{stroke-width:3.5px;}#my-svg .edge-pattern-solid{stroke-dasharray:0;}#my-svg .edge-thickness-invisible{stroke-width:0;fill:none;}#my-svg .edge-pattern-dashed{stroke-dasharray:3;}#my-svg .edge-pattern-dotted{stroke-dasharray:2;}#my-svg .marker{fill:#333333;stroke:#333333;}#my-svg .marker.cross{stroke:#333333;}#my-svg svg{font-family:"trebuchet ms",verdana,arial,sans-serif;font-size:16px;}#my-svg p{margin:0;}#my-svg .entityBox{fill:#ECECFF;stroke:#9370DB;}#my-svg .attributeBoxOdd{fill:#ffffff;stroke:#9370DB;}#my-svg .attributeBoxEven{fill:#f2f2f2;stroke:#9370DB;}#my-svg .relationshipLabelBox{fill:hsl(80, 100%, 96.2745098039%);opacity:0.7;background-color:hsl(80, 100%, 96.2745098039%);}#my-svg .relationshipLabelBox rect{opacity:0.5;}#my-svg .relationshipLine{stroke:#333333;}#my-svg .entityTitleText{text-anchor:middle;font-size:18px;fill:#333;}#my-svg #MD_PARENT_START{fill:#f5f5f5!important;stroke:#333333!important;stroke-width:1;}#my-svg #MD_PARENT_END{fill:#f5f5f5!important;stroke:#333333!important;stroke-width:1;}#my-svg :root{--mermaid-font-family:"trebuchet ms",verdana,arial,sans-serif;}</style><g/><defs><marker orient="auto" markerHeight="240" markerWidth="190" refY="7" refX="0" id="MD_PARENT_START"><path d="M 18,7 L9,13 L1,7 L9,1 Z"/></marker></defs><defs><marker orient="auto" markerHeight="28" markerWidth="20" refY="7" refX="19" id="MD_PARENT_END"><path d="M 18,7 L9,13 L1,7 L9,1 Z"/></marker></defs><defs><marker orient="auto" markerHeight="18" markerWidth="18" refY="9" refX="0" id="ONLY_ONE_START"><path d="M9,0 L9,18 M15,0 L15,18" fill="none" stroke="gray"/></marker></defs><defs><marker orient="auto" markerHeight="18" markerWidth="18" refY="9" refX="18" id="ONLY_ONE_END"><path d="M3,0 L3,18 M9,0 L9,18" fill="none" stroke="gray"/></marker></defs><defs><marker orient="auto" markerHeight="18" markerWidth="30" refY="9" refX="0" id="ZERO_OR_ONE_START"><circle r="6" cy="9" cx="21" fill="white" stroke="gray"/><path d="M9,0 L9,18" fill="none" stroke="gray"/></marker></defs><defs><marker orient="auto" markerHeight="18" markerWidth="30" refY="9" refX="30" id="ZERO_OR_ONE_END"><circle r="6" cy="9" cx="9" fill="white" stroke="gray"/><path d="M21,0 L21,18" fill="none" stroke="gray"/></marker></defs><defs><marker orient="auto" markerHeight="36" markerWidth="45" refY="18" refX="18" id="ONE_OR_MORE_START"><path d="M0,18 Q 18,0 36,18 Q 18,36 0,18 M42,9 L42,27" fill="none" stroke="gray"/></marker></defs><defs><marker orient="auto" markerHeight="36" markerWidth="45" refY="18" refX="27" id="ONE_OR_MORE_END"><path d="M3,9 L3,27 M9,18 Q27,0 45,18 Q27,36 9,18" fill="none" stroke="gray"/></marker></defs><defs><marker orient="auto" markerHeight="36" markerWidth="57" refY="18" refX="18" id="ZERO_OR_MORE_START"><circle r="6" cy="18" cx="48" fill="white" stroke="gray"/><path d="M0,18 Q18,0 36,18 Q18,36 0,18" fill="none" stroke="gray"/></marker></defs><defs><marker orient="auto" markerHeight="36" markerWidth="57" refY="18" refX="39" id="ZERO_OR_MORE_END"><circle r="6" cy="18" cx="9" fill="white" stroke="gray"/><path d="M21,18 Q39,0 57,18 Q39,36 21,18" fill="none" stroke="gray"/></marker></defs><path style="stroke: gray; fill: none;" marker-start="url(#ONLY_ONE_START)" marker-end="url(#ZERO_OR_MORE_END)" d="M92.883,121.184L92.883,131.381C92.883,141.578,92.883,161.973,137.268,189.81C181.654,217.648,270.424,252.928,314.81,270.568L359.195,288.208" class="er relationshipLine"/><path style="stroke: gray; fill: none;" marker-start="url(#ONLY_ONE_START)" marker-end="url(#ZERO_OR_MORE_END)" d="M326.25,121.184L326.25,131.381C326.25,141.578,326.25,161.973,333.236,180.503C340.223,199.034,354.195,215.701,361.182,224.034L368.168,232.367" class="er relationshipLine"/><path style="stroke: gray; fill: none;" marker-start="url(#ONLY_ONE_START)" marker-end="url(#ZERO_OR_MORE_END)" d="M559.469,132.367L559.469,140.701C559.469,149.034,559.469,165.701,552.482,182.367C545.496,199.034,531.523,215.701,524.537,224.034L517.551,232.367" class="er relationshipLine"/><path style="stroke: gray; fill: none;" marker-start="url(#ONLY_ONE_START)" marker-end="url(#ZERO_OR_MORE_END)" d="M789.586,132.275L789.586,140.624C789.586,148.973,789.586,165.67,745.742,191.607C701.898,217.544,614.211,252.72,570.367,270.308L526.523,287.897" class="er relationshipLine"/><g transform="translate(20,31.18359375 )" id="entity-Author-17acff7c-e0a9-5e68-a8c8-82d7688f389c"><rect height="90" width="145.765625" y="0" x="0" class="er entityBox"/><text style="dominant-baseline: middle; text-anchor: middle; font-size: 12px;" transform="translate(72.8828125,12)" y="0" x="0" id="text-entity-Author-17acff7c-e0a9-5e68-a8c8-82d7688f389c" class="er entityLabel">Author</text><rect height="22" width="49.046875" y="24" x="0" class="er attributeBoxOdd"/><text style="dominant-baseline: middle; font-size: 10.2px;" transform="translate(5,35)" y="0" x="0" id="text-entity-Author-17acff7c-e0a9-5e68-a8c8-82d7688f389c-attr-1-type" class="er entityLabel">INTEGER</text><rect height="22" width="75.15625" y="24" x="49.046875" class="er attributeBoxOdd"/><text style="dominant-baseline: middle; font-size: 10.2px;" transform="translate(54.046875,35)" y="0" x="0" id="text-entity-Author-17acff7c-e0a9-5e68-a8c8-82d7688f389c-attr-1-name" class="er entityLabel">authorID</text><rect height="22" width="21.5625" y="24" x="124.203125" class="er attributeBoxOdd"/><text style="dominant-baseline: middle; font-size: 10.2px;" transform="translate(129.203125,35)" y="0" x="0" id="text-entity-Author-17acff7c-e0a9-5e68-a8c8-82d7688f389c-attr-1-key" class="er entityLabel">PK</text><rect height="22" width="49.046875" y="46" x="0" class="er attributeBoxEven"/><text style="dominant-baseline: middle; font-size: 10.2px;" transform="translate(5,57)" y="0" x="0" id="text-entity-Author-17acff7c-e0a9-5e68-a8c8-82d7688f389c-attr-2-type" class="er entityLabel">TEXT</text><rect height="22" width="75.15625" y="46" x="49.046875" class="er attributeBoxEven"/><text style="dominant-baseline: middle; font-size: 10.2px;" transform="translate(54.046875,57)" y="0" x="0" id="text-entity-Author-17acff7c-e0a9-5e68-a8c8-82d7688f389c-attr-2-name" class="er entityLabel">authorName</text><rect height="22" width="21.5625" y="46" x="124.203125" class="er attributeBoxEven"/><text style="dominant-baseline: middle; font-size: 10.2px;" transform="translate(129.203125,57)" y="0" x="0" id="text-entity-Author-17acff7c-e0a9-5e68-a8c8-82d7688f389c-attr-2-key" class="er entityLabel"/><rect height="22" width="49.046875" y="68" x="0" class="er attributeBoxOdd"/><text style="dominant-baseline: middle; font-size: 10.2px;" transform="translate(5,79)" y="0" x="0" id="text-entity-Author-17acff7c-e0a9-5e68-a8c8-82d7688f389c-attr-3-type" class="er entityLabel">TEXT</text><rect height="22" width="75.15625" y="68" x="49.046875" class="er attributeBoxOdd"/><text style="dominant-baseline: middle; font-size: 10.2px;" transform="translate(54.046875,79)" y="0" x="0" id="text-entity-Author-17acff7c-e0a9-5e68-a8c8-82d7688f389c-attr-3-name" class="er entityLabel">authorAddress</text><rect height="22" width="21.5625" y="68" x="124.203125" class="er attributeBoxOdd"/><text style="dominant-baseline: middle; font-size: 10.2px;" transform="translate(129.203125,79)" y="0" x="0" id="text-entity-Author-17acff7c-e0a9-5e68-a8c8-82d7688f389c-attr-3-key" class="er entityLabel"/></g><g transform="translate(359.1953125,232.3671875 )" id="entity-Sale-697430c8-2a7d-5224-aadf-11edc87ac050"><rect height="178.18359375" width="167.328125" y="0" x="0" class="er entityBox"/><text style="dominant-baseline: middle; text-anchor: middle; font-size: 12px;" transform="translate(83.6640625,12)" y="0" x="0" id="text-entity-Sale-697430c8-2a7d-5224-aadf-11edc87ac050" class="er entityLabel">Sale</text><rect height="22" width="49.046875" y="24" x="0" class="er attributeBoxOdd"/><text style="dominant-baseline: middle; font-size: 10.2px;" transform="translate(5,35)" y="0" x="0" id="text-entity-Sale-697430c8-2a7d-5224-aadf-11edc87ac050-attr-1-type" class="er entityLabel">INTEGER</text><rect height="22" width="81.75" y="24" x="49.046875" class="er attributeBoxOdd"/><text style="dominant-baseline: middle; font-size: 10.2px;" transform="translate(54.046875,35)" y="0" x="0" id="text-entity-Sale-697430c8-2a7d-5224-aadf-11edc87ac050-attr-1-name" class="er entityLabel">authorID</text><rect height="22" width="36.53125" y="24" x="130.796875" class="er attributeBoxOdd"/><text style="dominant-baseline: middle; font-size: 10.2px;" transform="translate(135.796875,35)" y="0" x="0" id="text-entity-Sale-697430c8-2a7d-5224-aadf-11edc87ac050-attr-1-key" class="er entityLabel">PK,FK</text><rect height="22" width="49.046875" y="46" x="0" class="er attributeBoxEven"/><text style="dominant-baseline: middle; font-size: 10.2px;" transform="translate(5,57)" y="0" x="0" id="text-entity-Sale-697430c8-2a7d-5224-aadf-11edc87ac050-attr-2-type" class="er entityLabel">INTEGER</text><rect height="22" width="81.75" y="46" x="49.046875" class="er attributeBoxEven"/><text style="dominant-baseline: middle; font-size: 10.2px;" transform="translate(54.046875,57)" y="0" x="0" id="text-entity-Sale-697430c8-2a7d-5224-aadf-11edc87ac050-attr-2-name" class="er entityLabel">catID</text><rect height="22" width="36.53125" y="46" x="130.796875" class="er attributeBoxEven"/><text style="dominant-baseline: middle; font-size: 10.2px;" transform="translate(135.796875,57)" y="0" x="0" id="text-entity-Sale-697430c8-2a7d-5224-aadf-11edc87ac050-attr-2-key" class="er entityLabel">PK,FK</text><rect height="22.091796875" width="49.046875" y="68" x="0" class="er attributeBoxOdd"/><text style="dominant-baseline: middle; font-size: 10.2px;" transform="translate(5,79.0458984375)" y="0" x="0" id="text-entity-Sale-697430c8-2a7d-5224-aadf-11edc87ac050-attr-3-type" class="er entityLabel">INTEGER</text><rect height="22.091796875" width="81.75" y="68" x="49.046875" class="er attributeBoxOdd"/><text style="dominant-baseline: middle; font-size: 10.2px;" transform="translate(54.046875,79.0458984375)" y="0" x="0" id="text-entity-Sale-697430c8-2a7d-5224-aadf-11edc87ac050-attr-3-name" class="er entityLabel">agentCode</text><rect height="22.091796875" width="36.53125" y="68" x="130.796875" class="er attributeBoxOdd"/><text style="dominant-baseline: middle; font-size: 10.2px;" transform="translate(135.796875,79.0458984375)" y="0" x="0" id="text-entity-Sale-697430c8-2a7d-5224-aadf-11edc87ac050-attr-3-key" class="er entityLabel">PK,FK</text><rect height="22" width="49.046875" y="90.091796875" x="0" class="er attributeBoxEven"/><text style="dominant-baseline: middle; font-size: 10.2px;" transform="translate(5,101.091796875)" y="0" x="0" id="text-entity-Sale-697430c8-2a7d-5224-aadf-11edc87ac050-attr-4-type" class="er entityLabel">INTEGER</text><rect height="22" width="81.75" y="90.091796875" x="49.046875" class="er attributeBoxEven"/><text style="dominant-baseline: middle; font-size: 10.2px;" transform="translate(54.046875,101.091796875)" y="0" x="0" id="text-entity-Sale-697430c8-2a7d-5224-aadf-11edc87ac050-attr-4-name" class="er entityLabel">timeID</text><rect height="22" width="36.53125" y="90.091796875" x="130.796875" class="er attributeBoxEven"/><text style="dominant-baseline: middle; font-size: 10.2px;" transform="translate(135.796875,101.091796875)" y="0" x="0" id="text-entity-Sale-697430c8-2a7d-5224-aadf-11edc87ac050-attr-4-key" class="er entityLabel">PK,FK</text><rect height="22.091796875" width="49.046875" y="112.091796875" x="0" class="er attributeBoxOdd"/><text style="dominant-baseline: middle; font-size: 10.2px;" transform="translate(5,123.1376953125)" y="0" x="0" id="text-entity-Sale-697430c8-2a7d-5224-aadf-11edc87ac050-attr-5-type" class="er entityLabel">INTEGER</text><rect height="22.091796875" width="81.75" y="112.091796875" x="49.046875" class="er attributeBoxOdd"/><text style="dominant-baseline: middle; font-size: 10.2px;" transform="translate(54.046875,123.1376953125)" y="0" x="0" id="text-entity-Sale-697430c8-2a7d-5224-aadf-11edc87ac050-attr-5-name" class="er entityLabel">salesQuantity</text><rect height="22.091796875" width="36.53125" y="112.091796875" x="130.796875" class="er attributeBoxOdd"/><text style="dominant-baseline: middle; font-size: 10.2px;" transform="translate(135.796875,123.1376953125)" y="0" x="0" id="text-entity-Sale-697430c8-2a7d-5224-aadf-11edc87ac050-attr-5-key" class="er entityLabel"/><rect height="22" width="49.046875" y="134.18359375" x="0" class="er attributeBoxEven"/><text style="dominant-baseline: middle; font-size: 10.2px;" transform="translate(5,145.18359375)" y="0" x="0" id="text-entity-Sale-697430c8-2a7d-5224-aadf-11edc87ac050-attr-6-type" class="er entityLabel">REAL</text><rect height="22" width="81.75" y="134.18359375" x="49.046875" class="er attributeBoxEven"/><text style="dominant-baseline: middle; font-size: 10.2px;" transform="translate(54.046875,145.18359375)" y="0" x="0" id="text-entity-Sale-697430c8-2a7d-5224-aadf-11edc87ac050-attr-6-name" class="er entityLabel">salesValue</text><rect height="22" width="36.53125" y="134.18359375" x="130.796875" class="er attributeBoxEven"/><text style="dominant-baseline: middle; font-size: 10.2px;" transform="translate(135.796875,145.18359375)" y="0" x="0" id="text-entity-Sale-697430c8-2a7d-5224-aadf-11edc87ac050-attr-6-key" class="er entityLabel"/><rect height="22" width="49.046875" y="156.18359375" x="0" class="er attributeBoxOdd"/><text style="dominant-baseline: middle; font-size: 10.2px;" transform="translate(5,167.18359375)" y="0" x="0" id="text-entity-Sale-697430c8-2a7d-5224-aadf-11edc87ac050-attr-7-type" class="er entityLabel">REAL</text><rect height="22" width="81.75" y="156.18359375" x="49.046875" class="er attributeBoxOdd"/><text style="dominant-baseline: middle; font-size: 10.2px;" transform="translate(54.046875,167.18359375)" y="0" x="0" id="text-entity-Sale-697430c8-2a7d-5224-aadf-11edc87ac050-attr-7-name" class="er entityLabel">commissionPaid</text><rect height="22" width="36.53125" y="156.18359375" x="130.796875" class="er attributeBoxOdd"/><text style="dominant-baseline: middle; font-size: 10.2px;" transform="translate(135.796875,167.18359375)" y="0" x="0" id="text-entity-Sale-697430c8-2a7d-5224-aadf-11edc87ac050-attr-7-key" class="er entityLabel"/></g><g transform="translate(265.765625,31.18359375 )" id="entity-Category-1a07ff93-e37c-5c4b-81d2-6cefab6d4eed"><rect height="90" width="120.96875" y="0" x="0" class="er entityBox"/><text style="dominant-baseline: middle; text-anchor: middle; font-size: 12px;" transform="translate(60.484375,12)" y="0" x="0" id="text-entity-Category-1a07ff93-e37c-5c4b-81d2-6cefab6d4eed" class="er entityLabel">Category</text><rect height="22" width="49.046875" y="24" x="0" class="er attributeBoxOdd"/><text style="dominant-baseline: middle; font-size: 10.2px;" transform="translate(5,35)" y="0" x="0" id="text-entity-Category-1a07ff93-e37c-5c4b-81d2-6cefab6d4eed-attr-1-type" class="er entityLabel">INTEGER</text><rect height="22" width="50.359375" y="24" x="49.046875" class="er attributeBoxOdd"/><text style="dominant-baseline: middle; font-size: 10.2px;" transform="translate(54.046875,35)" y="0" x="0" id="text-entity-Category-1a07ff93-e37c-5c4b-81d2-6cefab6d4eed-attr-1-name" class="er entityLabel">catID</text><rect height="22" width="21.5625" y="24" x="99.40625" class="er attributeBoxOdd"/><text style="dominant-baseline: middle; font-size: 10.2px;" transform="translate(104.40625,35)" y="0" x="0" id="text-entity-Category-1a07ff93-e37c-5c4b-81d2-6cefab6d4eed-attr-1-key" class="er entityLabel">PK</text><rect height="22" width="49.046875" y="46" x="0" class="er attributeBoxEven"/><text style="dominant-baseline: middle; font-size: 10.2px;" transform="translate(5,57)" y="0" x="0" id="text-entity-Category-1a07ff93-e37c-5c4b-81d2-6cefab6d4eed-attr-2-type" class="er entityLabel">TEXT</text><rect height="22" width="50.359375" y="46" x="49.046875" class="er attributeBoxEven"/><text style="dominant-baseline: middle; font-size: 10.2px;" transform="translate(54.046875,57)" y="0" x="0" id="text-entity-Category-1a07ff93-e37c-5c4b-81d2-6cefab6d4eed-attr-2-name" class="er entityLabel">catName</text><rect height="22" width="21.5625" y="46" x="99.40625" class="er attributeBoxEven"/><text style="dominant-baseline: middle; font-size: 10.2px;" transform="translate(104.40625,57)" y="0" x="0" id="text-entity-Category-1a07ff93-e37c-5c4b-81d2-6cefab6d4eed-attr-2-key" class="er entityLabel"/><rect height="22" width="49.046875" y="68" x="0" class="er attributeBoxOdd"/><text style="dominant-baseline: middle; font-size: 10.2px;" transform="translate(5,79)" y="0" x="0" id="text-entity-Category-1a07ff93-e37c-5c4b-81d2-6cefab6d4eed-attr-3-type" class="er entityLabel">TEXT</text><rect height="22" width="50.359375" y="68" x="49.046875" class="er attributeBoxOdd"/><text style="dominant-baseline: middle; font-size: 10.2px;" transform="translate(54.046875,79)" y="0" x="0" id="text-entity-Category-1a07ff93-e37c-5c4b-81d2-6cefab6d4eed-attr-3-name" class="er entityLabel">catDesc</text><rect height="22" width="21.5625" y="68" x="99.40625" class="er attributeBoxOdd"/><text style="dominant-baseline: middle; font-size: 10.2px;" transform="translate(104.40625,79)" y="0" x="0" id="text-entity-Category-1a07ff93-e37c-5c4b-81d2-6cefab6d4eed-attr-3-key" class="er entityLabel"/></g><g transform="translate(486.734375,20 )" id="entity-Agent-3fdc1d7e-6e17-5851-95d3-7f55b6cec43f"><rect height="112.36718845367432" width="145.46875" y="0" x="0" class="er entityBox"/><text style="dominant-baseline: middle; text-anchor: middle; font-size: 12px;" transform="translate(72.734375,12)" y="0" x="0" id="text-entity-Agent-3fdc1d7e-6e17-5851-95d3-7f55b6cec43f" class="er entityLabel">Agent</text><rect height="22.091796875" width="49.046875" y="24" x="0" class="er attributeBoxOdd"/><text style="dominant-baseline: middle; font-size: 10.2px;" transform="translate(5,35.0458984375)" y="0" x="0" id="text-entity-Agent-3fdc1d7e-6e17-5851-95d3-7f55b6cec43f-attr-1-type" class="er entityLabel">INTEGER</text><rect height="22.091796875" width="74.859375" y="24" x="49.046875" class="er attributeBoxOdd"/><text style="dominant-baseline: middle; font-size: 10.2px;" transform="translate(54.046875,35.0458984375)" y="0" x="0" id="text-entity-Agent-3fdc1d7e-6e17-5851-95d3-7f55b6cec43f-attr-1-name" class="er entityLabel">agentCode</text><rect height="22.091796875" width="21.5625" y="24" x="123.90625" class="er attributeBoxOdd"/><text style="dominant-baseline: middle; font-size: 10.2px;" transform="translate(128.90625,35.0458984375)" y="0" x="0" id="text-entity-Agent-3fdc1d7e-6e17-5851-95d3-7f55b6cec43f-attr-1-key" class="er entityLabel">PK</text><rect height="22.091796875" width="49.046875" y="46.091796875" x="0" class="er attributeBoxEven"/><text style="dominant-baseline: middle; font-size: 10.2px;" transform="translate(5,57.1376953125)" y="0" x="0" id="text-entity-Agent-3fdc1d7e-6e17-5851-95d3-7f55b6cec43f-attr-2-type" class="er entityLabel">TEXT</text><rect height="22.091796875" width="74.859375" y="46.091796875" x="49.046875" class="er attributeBoxEven"/><text style="dominant-baseline: middle; font-size: 10.2px;" transform="translate(54.046875,57.1376953125)" y="0" x="0" id="text-entity-Agent-3fdc1d7e-6e17-5851-95d3-7f55b6cec43f-attr-2-name" class="er entityLabel">agentName</text><rect height="22.091796875" width="21.5625" y="46.091796875" x="123.90625" class="er attributeBoxEven"/><text style="dominant-baseline: middle; font-size: 10.2px;" transform="translate(128.90625,57.1376953125)" y="0" x="0" id="text-entity-Agent-3fdc1d7e-6e17-5851-95d3-7f55b6cec43f-attr-2-key" class="er entityLabel"/><rect height="22.091797828674316" width="49.046875" y="68.18359375" x="0" class="er attributeBoxOdd"/><text style="dominant-baseline: middle; font-size: 10.2px;" transform="translate(5,79.22949266433716)" y="0" x="0" id="text-entity-Agent-3fdc1d7e-6e17-5851-95d3-7f55b6cec43f-attr-3-type" class="er entityLabel">TEXT</text><rect height="22.091797828674316" width="74.859375" y="68.18359375" x="49.046875" class="er attributeBoxOdd"/><text style="dominant-baseline: middle; font-size: 10.2px;" transform="translate(54.046875,79.22949266433716)" y="0" x="0" id="text-entity-Agent-3fdc1d7e-6e17-5851-95d3-7f55b6cec43f-attr-3-name" class="er entityLabel">territoryName</text><rect height="22.091797828674316" width="21.5625" y="68.18359375" x="123.90625" class="er attributeBoxOdd"/><text style="dominant-baseline: middle; font-size: 10.2px;" transform="translate(128.90625,79.22949266433716)" y="0" x="0" id="text-entity-Agent-3fdc1d7e-6e17-5851-95d3-7f55b6cec43f-attr-3-key" class="er entityLabel"/><rect height="22.091796875" width="49.046875" y="90.27539157867432" x="0" class="er attributeBoxEven"/><text style="dominant-baseline: middle; font-size: 10.2px;" transform="translate(5,101.32129001617432)" y="0" x="0" id="text-entity-Agent-3fdc1d7e-6e17-5851-95d3-7f55b6cec43f-attr-4-type" class="er entityLabel">TEXT</text><rect height="22.091796875" width="74.859375" y="90.27539157867432" x="49.046875" class="er attributeBoxEven"/><text style="dominant-baseline: middle; font-size: 10.2px;" transform="translate(54.046875,101.32129001617432)" y="0" x="0" id="text-entity-Agent-3fdc1d7e-6e17-5851-95d3-7f55b6cec43f-attr-4-name" class="er entityLabel">countryName</text><rect height="22.091796875" width="21.5625" y="90.27539157867432" x="123.90625" class="er attributeBoxEven"/><text style="dominant-baseline: middle; font-size: 10.2px;" transform="translate(128.90625,101.32129001617432)" y="0" x="0" id="text-entity-Agent-3fdc1d7e-6e17-5851-95d3-7f55b6cec43f-attr-4-key" class="er entityLabel"/></g><g transform="translate(732.203125,20.091796875 )" id="entity-Time-d4794805-7400-5d26-be0f-9da72b06586d"><rect height="112.18359375" width="114.765625" y="0" x="0" class="er entityBox"/><text style="dominant-baseline: middle; text-anchor: middle; font-size: 12px;" transform="translate(57.3828125,12)" y="0" x="0" id="text-entity-Time-d4794805-7400-5d26-be0f-9da72b06586d" class="er entityLabel">Time</text><rect height="22" width="49.046875" y="24" x="0" class="er attributeBoxOdd"/><text style="dominant-baseline: middle; font-size: 10.2px;" transform="translate(5,35)" y="0" x="0" id="text-entity-Time-d4794805-7400-5d26-be0f-9da72b06586d-attr-1-type" class="er entityLabel">INTEGER</text><rect height="22" width="44.15625" y="24" x="49.046875" class="er attributeBoxOdd"/><text style="dominant-baseline: middle; font-size: 10.2px;" transform="translate(54.046875,35)" y="0" x="0" id="text-entity-Time-d4794805-7400-5d26-be0f-9da72b06586d-attr-1-name" class="er entityLabel">timeID</text><rect height="22" width="21.5625" y="24" x="93.203125" class="er attributeBoxOdd"/><text style="dominant-baseline: middle; font-size: 10.2px;" transform="translate(98.203125,35)" y="0" x="0" id="text-entity-Time-d4794805-7400-5d26-be0f-9da72b06586d-attr-1-key" class="er entityLabel">PK</text><rect height="22.091796875" width="49.046875" y="46" x="0" class="er attributeBoxEven"/><text style="dominant-baseline: middle; font-size: 10.2px;" transform="translate(5,57.0458984375)" y="0" x="0" id="text-entity-Time-d4794805-7400-5d26-be0f-9da72b06586d-attr-2-type" class="er entityLabel">INTEGER</text><rect height="22.091796875" width="44.15625" y="46" x="49.046875" class="er attributeBoxEven"/><text style="dominant-baseline: middle; font-size: 10.2px;" transform="translate(54.046875,57.0458984375)" y="0" x="0" id="text-entity-Time-d4794805-7400-5d26-be0f-9da72b06586d-attr-2-name" class="er entityLabel">year</text><rect height="22.091796875" width="21.5625" y="46" x="93.203125" class="er attributeBoxEven"/><text style="dominant-baseline: middle; font-size: 10.2px;" transform="translate(98.203125,57.0458984375)" y="0" x="0" id="text-entity-Time-d4794805-7400-5d26-be0f-9da72b06586d-attr-2-key" class="er entityLabel"/><rect height="22.091796875" width="49.046875" y="68.091796875" x="0" class="er attributeBoxOdd"/><text style="dominant-baseline: middle; font-size: 10.2px;" transform="translate(5,79.1376953125)" y="0" x="0" id="text-entity-Time-d4794805-7400-5d26-be0f-9da72b06586d-attr-3-type" class="er entityLabel">INTEGER</text><rect height="22.091796875" width="44.15625" y="68.091796875" x="49.046875" class="er attributeBoxOdd"/><text style="dominant-baseline: middle; font-size: 10.2px;" transform="translate(54.046875,79.1376953125)" y="0" x="0" id="text-entity-Time-d4794805-7400-5d26-be0f-9da72b06586d-attr-3-name" class="er entityLabel">quarter</text><rect height="22.091796875" width="21.5625" y="68.091796875" x="93.203125" class="er attributeBoxOdd"/><text style="dominant-baseline: middle; font-size: 10.2px;" transform="translate(98.203125,79.1376953125)" y="0" x="0" id="text-entity-Time-d4794805-7400-5d26-be0f-9da72b06586d-attr-3-key" class="er entityLabel"/><rect height="22" width="49.046875" y="90.18359375" x="0" class="er attributeBoxEven"/><text style="dominant-baseline: middle; font-size: 10.2px;" transform="translate(5,101.18359375)" y="0" x="0" id="text-entity-Time-d4794805-7400-5d26-be0f-9da72b06586d-attr-4-type" class="er entityLabel">INTEGER</text><rect height="22" width="44.15625" y="90.18359375" x="49.046875" class="er attributeBoxEven"/><text style="dominant-baseline: middle; font-size: 10.2px;" transform="translate(54.046875,101.18359375)" y="0" x="0" id="text-entity-Time-d4794805-7400-5d26-be0f-9da72b06586d-attr-4-name" class="er entityLabel">month</text><rect height="22" width="21.5625" y="90.18359375" x="93.203125" class="er attributeBoxEven"/><text style="dominant-baseline: middle; font-size: 10.2px;" transform="translate(98.203125,101.18359375)" y="0" x="0" id="text-entity-Time-d4794805-7400-5d26-be0f-9da72b06586d-attr-4-key" class="er entityLabel"/></g><rect height="0" width="0" y="225.37039184570312" x="206.56968688964844" class="er relationshipLabelBox"/><text style="text-anchor: middle; dominant-baseline: middle; font-size: 12px;" y="225.37039184570312" x="206.56968688964844" id="rel1" class="er relationshipLabel"/><rect height="0" width="0" y="181.7898406982422" x="333.7334899902344" class="er relationshipLabelBox"/><text style="text-anchor: middle; dominant-baseline: middle; font-size: 12px;" y="181.7898406982422" x="333.7334899902344" id="rel2" class="er relationshipLabel"/><rect height="0" width="0" y="187.07261657714844" x="550.3321533203125" class="er relationshipLabelBox"/><text style="text-anchor: middle; dominant-baseline: middle; font-size: 12px;" y="187.07261657714844" x="550.3321533203125" id="rel3" class="er relationshipLabel"/><rect height="0" width="0" y="227.23509216308594" x="673.6896362304688" class="er relationshipLabelBox"/><text style="text-anchor: middle; dominant-baseline: middle; font-size: 12px;" y="227.23509216308594" x="673.6896362304688" id="rel4" class="er relationshipLabel"/><text class="entityTitleText" y="-25" x="433.484375" text-anchor="middle">Week 11 Case Study Star Schema</text></svg>