<svg aria-roledescription="er" role="graphics-document document" viewBox="0 -62 844.890625 492.275390625" style="max-width: 844.891px; background-color: white;" xmlns:xlink="http://www.w3.org/1999/xlink" xmlns="http://www.w3.org/2000/svg" width="100%" id="my-svg"><style>#my-svg{font-family:"trebuchet ms",verdana,arial,sans-serif;font-size:16px;fill:#333;}#my-svg .error-icon{fill:#552222;}#my-svg .error-text{fill:#552222;stroke:#552222;}#my-svg .edge-thickness-normal{stroke-width:1px;}#my-svg .edge-thickness-thick{stroke-width:3.5px;}#my-svg .edge-pattern-solid{stroke-dasharray:0;}#my-svg .edge-thickness-invisible{stroke-width:0;fill:none;}#my-svg .edge-pattern-dashed{stroke-dasharray:3;}#my-svg .edge-pattern-dotted{stroke-dasharray:2;}#my-svg .marker{fill:#333333;stroke:#333333;}#my-svg .marker.cross{stroke:#333333;}#my-svg svg{font-family:"trebuchet ms",verdana,arial,sans-serif;font-size:16px;}#my-svg p{margin:0;}#my-svg .entityBox{fill:#ECECFF;stroke:#9370DB;}#my-svg .attributeBoxOdd{fill:#ffffff;stroke:#9370DB;}#my-svg .attributeBoxEven{fill:#f2f2f2;stroke:#9370DB;}#my-svg .relationshipLabelBox{fill:hsl(80, 100%, 96.2745098039%);opacity:0.7;background-color:hsl(80, 100%, 96.2745098039%);}#my-svg .relationshipLabelBox rect{opacity:0.5;}#my-svg .relationshipLine{stroke:#333333;}#my-svg .entityTitleText{text-anchor:middle;font-size:18px;fill:#333;}#my-svg #MD_PARENT_START{fill:#f5f5f5!important;stroke:#333333!important;stroke-width:1;}#my-svg #MD_PARENT_END{fill:#f5f5f5!important;stroke:#333333!important;stroke-width:1;}#my-svg :root{--mermaid-font-family:"trebuchet ms",verdana,arial,sans-serif;}</style><g/><defs><marker orient="auto" markerHeight="240" markerWidth="190" refY="7" refX="0" id="MD_PARENT_START"><path d="M 18,7 L9,13 L1,7 L9,1 Z"/></marker></defs><defs><marker orient="auto" markerHeight="28" markerWidth="20" refY="7" refX="19" id="MD_PARENT_END"><path d="M 18,7 L9,13 L1,7 L9,1 Z"/></marker></defs><defs><marker orient="auto" markerHeight="18" markerWidth="18" refY="9" refX="0" id="ONLY_ONE_START"><path d="M9,0 L9,18 M15,0 L15,18" fill="none" stroke="gray"/></marker></defs><defs><marker orient="auto" markerHeight="18" markerWidth="18" refY="9" refX="18" id="ONLY_ONE_END"><path d="M3,0 L3,18 M9,0 L9,18" fill="none" stroke="gray"/></marker></defs><defs><marker orient="auto" markerHeight="18" markerWidth="30" refY="9" refX="0" id="ZERO_OR_ONE_START"><circle r="6" cy="9" cx="21" fill="white" stroke="gray"/><path d="M9,0 L9,18" fill="none" stroke="gray"/></marker></defs><defs><marker orient="auto" markerHeight="18" markerWidth="30" refY="9" refX="30" id="ZERO_OR_ONE_END"><circle r="6" cy="9" cx="9" fill="white" stroke="gray"/><path d="M21,0 L21,18" fill="none" stroke="gray"/></marker></defs><defs><marker orient="auto" markerHeight="36" markerWidth="45" refY="18" refX="18" id="ONE_OR_MORE_START"><path d="M0,18 Q 18,0 36,18 Q 18,36 0,18 M42,9 L42,27" fill="none" stroke="gray"/></marker></defs><defs><marker orient="auto" markerHeight="36" markerWidth="45" refY="18" refX="27" id="ONE_OR_MORE_END"><path d="M3,9 L3,27 M9,18 Q27,0 45,18 Q27,36 9,18" fill="none" stroke="gray"/></marker></defs><defs><marker orient="auto" markerHeight="36" markerWidth="57" refY="18" refX="18" id="ZERO_OR_MORE_START"><circle r="6" cy="18" cx="48" fill="white" stroke="gray"/><path d="M0,18 Q18,0 36,18 Q18,36 0,18" fill="none" stroke="gray"/></marker></defs><defs><marker orient="auto" markerHeight="36" markerWidth="57" refY="18" refX="39" id="ZERO_OR_MORE_END"><circle r="6" cy="18" cx="9" fill="white" stroke="gray"/><path d="M21,18 Q39,0 57,18 Q39,36 21,18" fill="none" stroke="gray"/></marker></defs><path style="stroke: gray; fill: none;" marker-start="url(#ONLY_ONE_START)" marker-end="url(#ZERO_OR_MORE_END)" d="M77.664,132.184L77.664,140.517C77.664,148.85,77.664,165.517,119.792,191.806C161.919,218.094,246.174,254.005,288.302,271.961L330.43,289.916" class="er relationshipLine"/><path style="stroke: gray; fill: none;" marker-start="url(#ONLY_ONE_START)" marker-end="url(#ZERO_OR_MORE_END)" d="M290.672,132.138L290.672,140.479C290.672,148.82,290.672,165.502,297.458,182.176C304.244,198.85,317.816,215.517,324.601,223.85L331.387,232.184" class="er relationshipLine"/><path style="stroke: gray; fill: none;" marker-start="url(#ONLY_ONE_START)" marker-end="url(#ZERO_OR_MORE_END)" d="M517.125,110.092L517.125,122.107C517.125,134.122,517.125,158.153,510.339,178.502C503.553,198.85,489.981,215.517,483.195,223.85L476.409,232.184" class="er relationshipLine"/><path style="stroke: gray; fill: none;" marker-start="url(#ONLY_ONE_START)" marker-end="url(#ZERO_OR_MORE_END)" d="M756.563,121.229L756.563,131.389C756.563,141.548,756.563,161.866,710.03,190.371C663.497,218.877,570.432,255.57,523.9,273.916L477.367,292.263" class="er relationshipLine"/><g transform="translate(20,20 )" id="entity-Customer-7db3a251-ee0f-5d85-b53f-42db636cc6f9"><rect height="112.18359470367432" width="115.328125" y="0" x="0" class="er entityBox"/><text style="dominant-baseline: middle; text-anchor: middle; font-size: 12px;" transform="translate(57.6640625,12)" y="0" x="0" id="text-entity-Customer-7db3a251-ee0f-5d85-b53f-42db636cc6f9" class="er entityLabel">Customer</text><rect height="22" width="49.046875" y="24" x="0" class="er attributeBoxOdd"/><text style="dominant-baseline: middle; font-size: 10.2px;" transform="translate(5,35)" y="0" x="0" id="text-entity-Customer-7db3a251-ee0f-5d85-b53f-42db636cc6f9-attr-1-type" class="er entityLabel">INTEGER</text><rect height="22" width="44.71875" y="24" x="49.046875" class="er attributeBoxOdd"/><text style="dominant-baseline: middle; font-size: 10.2px;" transform="translate(54.046875,35)" y="0" x="0" id="text-entity-Customer-7db3a251-ee0f-5d85-b53f-42db636cc6f9-attr-1-name" class="er entityLabel">id</text><rect height="22" width="21.5625" y="24" x="93.765625" class="er attributeBoxOdd"/><text style="dominant-baseline: middle; font-size: 10.2px;" transform="translate(98.765625,35)" y="0" x="0" id="text-entity-Customer-7db3a251-ee0f-5d85-b53f-42db636cc6f9-attr-1-key" class="er entityLabel">PK</text><rect height="22" width="49.046875" y="46" x="0" class="er attributeBoxEven"/><text style="dominant-baseline: middle; font-size: 10.2px;" transform="translate(5,57)" y="0" x="0" id="text-entity-Customer-7db3a251-ee0f-5d85-b53f-42db636cc6f9-attr-2-type" class="er entityLabel">TEXT</text><rect height="22" width="44.71875" y="46" x="49.046875" class="er attributeBoxEven"/><text style="dominant-baseline: middle; font-size: 10.2px;" transform="translate(54.046875,57)" y="0" x="0" id="text-entity-Customer-7db3a251-ee0f-5d85-b53f-42db636cc6f9-attr-2-name" class="er entityLabel">suburb</text><rect height="22" width="21.5625" y="46" x="93.765625" class="er attributeBoxEven"/><text style="dominant-baseline: middle; font-size: 10.2px;" transform="translate(98.765625,57)" y="0" x="0" id="text-entity-Customer-7db3a251-ee0f-5d85-b53f-42db636cc6f9-attr-2-key" class="er entityLabel"/><rect height="22.091797828674316" width="49.046875" y="68" x="0" class="er attributeBoxOdd"/><text style="dominant-baseline: middle; font-size: 10.2px;" transform="translate(5,79.04589891433716)" y="0" x="0" id="text-entity-Customer-7db3a251-ee0f-5d85-b53f-42db636cc6f9-attr-3-type" class="er entityLabel">TEXT</text><rect height="22.091797828674316" width="44.71875" y="68" x="49.046875" class="er attributeBoxOdd"/><text style="dominant-baseline: middle; font-size: 10.2px;" transform="translate(54.046875,79.04589891433716)" y="0" x="0" id="text-entity-Customer-7db3a251-ee0f-5d85-b53f-42db636cc6f9-attr-3-name" class="er entityLabel">city</text><rect height="22.091797828674316" width="21.5625" y="68" x="93.765625" class="er attributeBoxOdd"/><text style="dominant-baseline: middle; font-size: 10.2px;" transform="translate(98.765625,79.04589891433716)" y="0" x="0" id="text-entity-Customer-7db3a251-ee0f-5d85-b53f-42db636cc6f9-attr-3-key" class="er entityLabel"/><rect height="22.091796875" width="49.046875" y="90.09179782867432" x="0" class="er attributeBoxEven"/><text style="dominant-baseline: middle; font-size: 10.2px;" transform="translate(5,101.13769626617432)" y="0" x="0" id="text-entity-Customer-7db3a251-ee0f-5d85-b53f-42db636cc6f9-attr-4-type" class="er entityLabel">TEXT</text><rect height="22.091796875" width="44.71875" y="90.09179782867432" x="49.046875" class="er attributeBoxEven"/><text style="dominant-baseline: middle; font-size: 10.2px;" transform="translate(54.046875,101.13769626617432)" y="0" x="0" id="text-entity-Customer-7db3a251-ee0f-5d85-b53f-42db636cc6f9-attr-4-name" class="er entityLabel">country</text><rect height="22.091796875" width="21.5625" y="90.09179782867432" x="93.765625" class="er attributeBoxEven"/><text style="dominant-baseline: middle; font-size: 10.2px;" transform="translate(98.765625,101.13769626617432)" y="0" x="0" id="text-entity-Customer-7db3a251-ee0f-5d85-b53f-42db636cc6f9-attr-4-key" class="er entityLabel"/></g><g transform="translate(330.4296875,232.18359375 )" id="entity-Sales-f0c0f900-9d92-5339-90dd-ee2ec422bfc4"><rect height="178.091796875" width="146.9375" y="0" x="0" class="er entityBox"/><text style="dominant-baseline: middle; text-anchor: middle; font-size: 12px;" transform="translate(73.46875,12)" y="0" x="0" id="text-entity-Sales-f0c0f900-9d92-5339-90dd-ee2ec422bfc4" class="er entityLabel">Sales</text><rect height="22.091796875" width="49.046875" y="24" x="0" class="er attributeBoxOdd"/><text style="dominant-baseline: middle; font-size: 10.2px;" transform="translate(5,35.0458984375)" y="0" x="0" id="text-entity-Sales-f0c0f900-9d92-5339-90dd-ee2ec422bfc4-attr-1-type" class="er entityLabel">INTEGER</text><rect height="22.091796875" width="61.359375" y="24" x="49.046875" class="er attributeBoxOdd"/><text style="dominant-baseline: middle; font-size: 10.2px;" transform="translate(54.046875,35.0458984375)" y="0" x="0" id="text-entity-Sales-f0c0f900-9d92-5339-90dd-ee2ec422bfc4-attr-1-name" class="er entityLabel">prodID</text><rect height="22.091796875" width="36.53125" y="24" x="110.40625" class="er attributeBoxOdd"/><text style="dominant-baseline: middle; font-size: 10.2px;" transform="translate(115.40625,35.0458984375)" y="0" x="0" id="text-entity-Sales-f0c0f900-9d92-5339-90dd-ee2ec422bfc4-attr-1-key" class="er entityLabel">PK,FK</text><rect height="22" width="49.046875" y="46.091796875" x="0" class="er attributeBoxEven"/><text style="dominant-baseline: middle; font-size: 10.2px;" transform="translate(5,57.091796875)" y="0" x="0" id="text-entity-Sales-f0c0f900-9d92-5339-90dd-ee2ec422bfc4-attr-2-type" class="er entityLabel">INTEGER</text><rect height="22" width="61.359375" y="46.091796875" x="49.046875" class="er attributeBoxEven"/><text style="dominant-baseline: middle; font-size: 10.2px;" transform="translate(54.046875,57.091796875)" y="0" x="0" id="text-entity-Sales-f0c0f900-9d92-5339-90dd-ee2ec422bfc4-attr-2-name" class="er entityLabel">timeID</text><rect height="22" width="36.53125" y="46.091796875" x="110.40625" class="er attributeBoxEven"/><text style="dominant-baseline: middle; font-size: 10.2px;" transform="translate(115.40625,57.091796875)" y="0" x="0" id="text-entity-Sales-f0c0f900-9d92-5339-90dd-ee2ec422bfc4-attr-2-key" class="er entityLabel">PK,FK</text><rect height="22" width="49.046875" y="68.091796875" x="0" class="er attributeBoxOdd"/><text style="dominant-baseline: middle; font-size: 10.2px;" transform="translate(5,79.091796875)" y="0" x="0" id="text-entity-Sales-f0c0f900-9d92-5339-90dd-ee2ec422bfc4-attr-3-type" class="er entityLabel">INTEGER</text><rect height="22" width="61.359375" y="68.091796875" x="49.046875" class="er attributeBoxOdd"/><text style="dominant-baseline: middle; font-size: 10.2px;" transform="translate(54.046875,79.091796875)" y="0" x="0" id="text-entity-Sales-f0c0f900-9d92-5339-90dd-ee2ec422bfc4-attr-3-name" class="er entityLabel">channelID</text><rect height="22" width="36.53125" y="68.091796875" x="110.40625" class="er attributeBoxOdd"/><text style="dominant-baseline: middle; font-size: 10.2px;" transform="translate(115.40625,79.091796875)" y="0" x="0" id="text-entity-Sales-f0c0f900-9d92-5339-90dd-ee2ec422bfc4-attr-3-key" class="er entityLabel">PK,FK</text><rect height="22" width="49.046875" y="90.091796875" x="0" class="er attributeBoxEven"/><text style="dominant-baseline: middle; font-size: 10.2px;" transform="translate(5,101.091796875)" y="0" x="0" id="text-entity-Sales-f0c0f900-9d92-5339-90dd-ee2ec422bfc4-attr-4-type" class="er entityLabel">INTEGER</text><rect height="22" width="61.359375" y="90.091796875" x="49.046875" class="er attributeBoxEven"/><text style="dominant-baseline: middle; font-size: 10.2px;" transform="translate(54.046875,101.091796875)" y="0" x="0" id="text-entity-Sales-f0c0f900-9d92-5339-90dd-ee2ec422bfc4-attr-4-name" class="er entityLabel">customerID</text><rect height="22" width="36.53125" y="90.091796875" x="110.40625" class="er attributeBoxEven"/><text style="dominant-baseline: middle; font-size: 10.2px;" transform="translate(115.40625,101.091796875)" y="0" x="0" id="text-entity-Sales-f0c0f900-9d92-5339-90dd-ee2ec422bfc4-attr-4-key" class="er entityLabel">PK,FK</text><rect height="22" width="49.046875" y="112.091796875" x="0" class="er attributeBoxOdd"/><text style="dominant-baseline: middle; font-size: 10.2px;" transform="translate(5,123.091796875)" y="0" x="0" id="text-entity-Sales-f0c0f900-9d92-5339-90dd-ee2ec422bfc4-attr-5-type" class="er entityLabel">REAL</text><rect height="22" width="61.359375" y="112.091796875" x="49.046875" class="er attributeBoxOdd"/><text style="dominant-baseline: middle; font-size: 10.2px;" transform="translate(54.046875,123.091796875)" y="0" x="0" id="text-entity-Sales-f0c0f900-9d92-5339-90dd-ee2ec422bfc4-attr-5-name" class="er entityLabel">dollarSold</text><rect height="22" width="36.53125" y="112.091796875" x="110.40625" class="er attributeBoxOdd"/><text style="dominant-baseline: middle; font-size: 10.2px;" transform="translate(115.40625,123.091796875)" y="0" x="0" id="text-entity-Sales-f0c0f900-9d92-5339-90dd-ee2ec422bfc4-attr-5-key" class="er entityLabel"/><rect height="22" width="49.046875" y="134.091796875" x="0" class="er attributeBoxEven"/><text style="dominant-baseline: middle; font-size: 10.2px;" transform="translate(5,145.091796875)" y="0" x="0" id="text-entity-Sales-f0c0f900-9d92-5339-90dd-ee2ec422bfc4-attr-6-type" class="er entityLabel">INTEGER</text><rect height="22" width="61.359375" y="134.091796875" x="49.046875" class="er attributeBoxEven"/><text style="dominant-baseline: middle; font-size: 10.2px;" transform="translate(54.046875,145.091796875)" y="0" x="0" id="text-entity-Sales-f0c0f900-9d92-5339-90dd-ee2ec422bfc4-attr-6-name" class="er entityLabel">unitSold</text><rect height="22" width="36.53125" y="134.091796875" x="110.40625" class="er attributeBoxEven"/><text style="dominant-baseline: middle; font-size: 10.2px;" transform="translate(115.40625,145.091796875)" y="0" x="0" id="text-entity-Sales-f0c0f900-9d92-5339-90dd-ee2ec422bfc4-attr-6-key" class="er entityLabel"/><rect height="22" width="49.046875" y="156.091796875" x="0" class="er attributeBoxOdd"/><text style="dominant-baseline: middle; font-size: 10.2px;" transform="translate(5,167.091796875)" y="0" x="0" id="text-entity-Sales-f0c0f900-9d92-5339-90dd-ee2ec422bfc4-attr-7-type" class="er entityLabel">REAL</text><rect height="22" width="61.359375" y="156.091796875" x="49.046875" class="er attributeBoxOdd"/><text style="dominant-baseline: middle; font-size: 10.2px;" transform="translate(54.046875,167.091796875)" y="0" x="0" id="text-entity-Sales-f0c0f900-9d92-5339-90dd-ee2ec422bfc4-attr-7-name" class="er entityLabel">dollarCost</text><rect height="22" width="36.53125" y="156.091796875" x="110.40625" class="er attributeBoxOdd"/><text style="dominant-baseline: middle; font-size: 10.2px;" transform="translate(115.40625,167.091796875)" y="0" x="0" id="text-entity-Sales-f0c0f900-9d92-5339-90dd-ee2ec422bfc4-attr-7-key" class="er entityLabel"/></g><g transform="translate(235.328125,20.0458984375 )" id="entity-Time-d4794805-7400-5d26-be0f-9da72b06586d"><rect height="112.091796875" width="110.6875" y="0" x="0" class="er entityBox"/><text style="dominant-baseline: middle; text-anchor: middle; font-size: 12px;" transform="translate(55.34375,12)" y="0" x="0" id="text-entity-Time-d4794805-7400-5d26-be0f-9da72b06586d" class="er entityLabel">Time</text><rect height="22" width="49.046875" y="24" x="0" class="er attributeBoxOdd"/><text style="dominant-baseline: middle; font-size: 10.2px;" transform="translate(5,35)" y="0" x="0" id="text-entity-Time-d4794805-7400-5d26-be0f-9da72b06586d-attr-1-type" class="er entityLabel">INTEGER</text><rect height="22" width="40.078125" y="24" x="49.046875" class="er attributeBoxOdd"/><text style="dominant-baseline: middle; font-size: 10.2px;" transform="translate(54.046875,35)" y="0" x="0" id="text-entity-Time-d4794805-7400-5d26-be0f-9da72b06586d-attr-1-name" class="er entityLabel">timeID</text><rect height="22" width="21.5625" y="24" x="89.125" class="er attributeBoxOdd"/><text style="dominant-baseline: middle; font-size: 10.2px;" transform="translate(94.125,35)" y="0" x="0" id="text-entity-Time-d4794805-7400-5d26-be0f-9da72b06586d-attr-1-key" class="er entityLabel">PK</text><rect height="22.091796875" width="49.046875" y="46" x="0" class="er attributeBoxEven"/><text style="dominant-baseline: middle; font-size: 10.2px;" transform="translate(5,57.0458984375)" y="0" x="0" id="text-entity-Time-d4794805-7400-5d26-be0f-9da72b06586d-attr-2-type" class="er entityLabel">INTEGER</text><rect height="22.091796875" width="40.078125" y="46" x="49.046875" class="er attributeBoxEven"/><text style="dominant-baseline: middle; font-size: 10.2px;" transform="translate(54.046875,57.0458984375)" y="0" x="0" id="text-entity-Time-d4794805-7400-5d26-be0f-9da72b06586d-attr-2-name" class="er entityLabel">year</text><rect height="22.091796875" width="21.5625" y="46" x="89.125" class="er attributeBoxEven"/><text style="dominant-baseline: middle; font-size: 10.2px;" transform="translate(94.125,57.0458984375)" y="0" x="0" id="text-entity-Time-d4794805-7400-5d26-be0f-9da72b06586d-attr-2-key" class="er entityLabel"/><rect height="22" width="49.046875" y="68.091796875" x="0" class="er attributeBoxOdd"/><text style="dominant-baseline: middle; font-size: 10.2px;" transform="translate(5,79.091796875)" y="0" x="0" id="text-entity-Time-d4794805-7400-5d26-be0f-9da72b06586d-attr-3-type" class="er entityLabel">INTEGER</text><rect height="22" width="40.078125" y="68.091796875" x="49.046875" class="er attributeBoxOdd"/><text style="dominant-baseline: middle; font-size: 10.2px;" transform="translate(54.046875,79.091796875)" y="0" x="0" id="text-entity-Time-d4794805-7400-5d26-be0f-9da72b06586d-attr-3-name" class="er entityLabel">month</text><rect height="22" width="21.5625" y="68.091796875" x="89.125" class="er attributeBoxOdd"/><text style="dominant-baseline: middle; font-size: 10.2px;" transform="translate(94.125,79.091796875)" y="0" x="0" id="text-entity-Time-d4794805-7400-5d26-be0f-9da72b06586d-attr-3-key" class="er entityLabel"/><rect height="22" width="49.046875" y="90.091796875" x="0" class="er attributeBoxEven"/><text style="dominant-baseline: middle; font-size: 10.2px;" transform="translate(5,101.091796875)" y="0" x="0" id="text-entity-Time-d4794805-7400-5d26-be0f-9da72b06586d-attr-4-type" class="er entityLabel">INTEGER</text><rect height="22" width="40.078125" y="90.091796875" x="49.046875" class="er attributeBoxEven"/><text style="dominant-baseline: middle; font-size: 10.2px;" transform="translate(54.046875,101.091796875)" y="0" x="0" id="text-entity-Time-d4794805-7400-5d26-be0f-9da72b06586d-attr-4-name" class="er entityLabel">week</text><rect height="22" width="21.5625" y="90.091796875" x="89.125" class="er attributeBoxEven"/><text style="dominant-baseline: middle; font-size: 10.2px;" transform="translate(94.125,101.091796875)" y="0" x="0" id="text-entity-Time-d4794805-7400-5d26-be0f-9da72b06586d-attr-4-key" class="er entityLabel"/></g><g transform="translate(446.015625,42.091796875 )" id="entity-Channel-b37d1e29-5834-522a-9ba8-7b58491447bb"><rect height="68" width="142.21875" y="0" x="0" class="er entityBox"/><text style="dominant-baseline: middle; text-anchor: middle; font-size: 12px;" transform="translate(71.109375,12)" y="0" x="0" id="text-entity-Channel-b37d1e29-5834-522a-9ba8-7b58491447bb" class="er entityLabel">Channel</text><rect height="22" width="49.046875" y="24" x="0" class="er attributeBoxOdd"/><text style="dominant-baseline: middle; font-size: 10.2px;" transform="translate(5,35)" y="0" x="0" id="text-entity-Channel-b37d1e29-5834-522a-9ba8-7b58491447bb-attr-1-type" class="er entityLabel">INTEGER</text><rect height="22" width="71.609375" y="24" x="49.046875" class="er attributeBoxOdd"/><text style="dominant-baseline: middle; font-size: 10.2px;" transform="translate(54.046875,35)" y="0" x="0" id="text-entity-Channel-b37d1e29-5834-522a-9ba8-7b58491447bb-attr-1-name" class="er entityLabel">channelID</text><rect height="22" width="21.5625" y="24" x="120.65625" class="er attributeBoxOdd"/><text style="dominant-baseline: middle; font-size: 10.2px;" transform="translate(125.65625,35)" y="0" x="0" id="text-entity-Channel-b37d1e29-5834-522a-9ba8-7b58491447bb-attr-1-key" class="er entityLabel">PK</text><rect height="22" width="49.046875" y="46" x="0" class="er attributeBoxEven"/><text style="dominant-baseline: middle; font-size: 10.2px;" transform="translate(5,57)" y="0" x="0" id="text-entity-Channel-b37d1e29-5834-522a-9ba8-7b58491447bb-attr-2-type" class="er entityLabel">TEXT</text><rect height="22" width="71.609375" y="46" x="49.046875" class="er attributeBoxEven"/><text style="dominant-baseline: middle; font-size: 10.2px;" transform="translate(54.046875,57)" y="0" x="0" id="text-entity-Channel-b37d1e29-5834-522a-9ba8-7b58491447bb-attr-2-name" class="er entityLabel">channelName</text><rect height="22" width="21.5625" y="46" x="120.65625" class="er attributeBoxEven"/><text style="dominant-baseline: middle; font-size: 10.2px;" transform="translate(125.65625,57)" y="0" x="0" id="text-entity-Channel-b37d1e29-5834-522a-9ba8-7b58491447bb-attr-2-key" class="er entityLabel"/></g><g transform="translate(688.234375,30.9541015625 )" id="entity-Product-8913f459-c6e1-5923-8b2e-55129fac4b99"><rect height="90.275390625" width="136.65625" y="0" x="0" class="er entityBox"/><text style="dominant-baseline: middle; text-anchor: middle; font-size: 12px;" transform="translate(68.328125,12)" y="0" x="0" id="text-entity-Product-8913f459-c6e1-5923-8b2e-55129fac4b99" class="er entityLabel">Product</text><rect height="22.091796875" width="49.046875" y="24" x="0" class="er attributeBoxOdd"/><text style="dominant-baseline: middle; font-size: 10.2px;" transform="translate(5,35.0458984375)" y="0" x="0" id="text-entity-Product-8913f459-c6e1-5923-8b2e-55129fac4b99-attr-1-type" class="er entityLabel">INTEGER</text><rect height="22.091796875" width="66.046875" y="24" x="49.046875" class="er attributeBoxOdd"/><text style="dominant-baseline: middle; font-size: 10.2px;" transform="translate(54.046875,35.0458984375)" y="0" x="0" id="text-entity-Product-8913f459-c6e1-5923-8b2e-55129fac4b99-attr-1-name" class="er entityLabel">prodID</text><rect height="22.091796875" width="21.5625" y="24" x="115.09375" class="er attributeBoxOdd"/><text style="dominant-baseline: middle; font-size: 10.2px;" transform="translate(120.09375,35.0458984375)" y="0" x="0" id="text-entity-Product-8913f459-c6e1-5923-8b2e-55129fac4b99-attr-1-key" class="er entityLabel">PK</text><rect height="22.091796875" width="49.046875" y="46.091796875" x="0" class="er attributeBoxEven"/><text style="dominant-baseline: middle; font-size: 10.2px;" transform="translate(5,57.1376953125)" y="0" x="0" id="text-entity-Product-8913f459-c6e1-5923-8b2e-55129fac4b99-attr-2-type" class="er entityLabel">TEXT</text><rect height="22.091796875" width="66.046875" y="46.091796875" x="49.046875" class="er attributeBoxEven"/><text style="dominant-baseline: middle; font-size: 10.2px;" transform="translate(54.046875,57.1376953125)" y="0" x="0" id="text-entity-Product-8913f459-c6e1-5923-8b2e-55129fac4b99-attr-2-name" class="er entityLabel">subCategory</text><rect height="22.091796875" width="21.5625" y="46.091796875" x="115.09375" class="er attributeBoxEven"/><text style="dominant-baseline: middle; font-size: 10.2px;" transform="translate(120.09375,57.1376953125)" y="0" x="0" id="text-entity-Product-8913f459-c6e1-5923-8b2e-55129fac4b99-attr-2-key" class="er entityLabel"/><rect height="22.091796875" width="49.046875" y="68.18359375" x="0" class="er attributeBoxOdd"/><text style="dominant-baseline: middle; font-size: 10.2px;" transform="translate(5,79.2294921875)" y="0" x="0" id="text-entity-Product-8913f459-c6e1-5923-8b2e-55129fac4b99-attr-3-type" class="er entityLabel">TEXT</text><rect height="22.091796875" width="66.046875" y="68.18359375" x="49.046875" class="er attributeBoxOdd"/><text style="dominant-baseline: middle; font-size: 10.2px;" transform="translate(54.046875,79.2294921875)" y="0" x="0" id="text-entity-Product-8913f459-c6e1-5923-8b2e-55129fac4b99-attr-3-name" class="er entityLabel">category</text><rect height="22.091796875" width="21.5625" y="68.18359375" x="115.09375" class="er attributeBoxOdd"/><text style="dominant-baseline: middle; font-size: 10.2px;" transform="translate(120.09375,79.2294921875)" y="0" x="0" id="text-entity-Product-8913f459-c6e1-5923-8b2e-55129fac4b99-attr-3-key" class="er entityLabel"/></g><rect height="0" width="0" y="227.6987762451172" x="188.33267211914062" class="er relationshipLabelBox"/><text style="text-anchor: middle; dominant-baseline: middle; font-size: 12px;" y="227.6987762451172" x="188.33267211914062" id="rel1" class="er relationshipLabel"/><rect height="0" width="0" y="186.65310668945312" x="299.4366760253906" class="er relationshipLabelBox"/><text style="text-anchor: middle; dominant-baseline: middle; font-size: 12px;" y="186.65310668945312" x="299.4366760253906" id="rel2" class="er relationshipLabel"/><rect height="0" width="0" y="176.04188537597656" x="511.1214904785156" class="er relationshipLabelBox"/><text style="text-anchor: middle; dominant-baseline: middle; font-size: 12px;" y="176.04188537597656" x="511.1214904785156" id="rel3" class="er relationshipLabel"/><rect height="0" width="0" y="227.50575256347656" x="636.252197265625" class="er relationshipLabelBox"/><text style="text-anchor: middle; dominant-baseline: middle; font-size: 12px;" y="227.50575256347656" x="636.252197265625" id="rel4" class="er relationshipLabel"/><text class="entityTitleText" y="-25" x="422.4453125" text-anchor="middle">Week 11 Quiz 01 Star Schema</text></svg>