<svg aria-roledescription="gitGraph" role="graphics-document document" viewBox="-117.421875 -34.70000076293945 475.421875 189.21835327148438" style="max-width: 475.422px; background-color: white;" xmlns:xlink="http://www.w3.org/1999/xlink" xmlns="http://www.w3.org/2000/svg" width="100%" id="my-svg"><style>#my-svg{font-family:"trebuchet ms",verdana,arial,sans-serif;font-size:16px;fill:#333;}#my-svg .error-icon{fill:#552222;}#my-svg .error-text{fill:#552222;stroke:#552222;}#my-svg .edge-thickness-normal{stroke-width:1px;}#my-svg .edge-thickness-thick{stroke-width:3.5px;}#my-svg .edge-pattern-solid{stroke-dasharray:0;}#my-svg .edge-thickness-invisible{stroke-width:0;fill:none;}#my-svg .edge-pattern-dashed{stroke-dasharray:3;}#my-svg .edge-pattern-dotted{stroke-dasharray:2;}#my-svg .marker{fill:#333333;stroke:#333333;}#my-svg .marker.cross{stroke:#333333;}#my-svg svg{font-family:"trebuchet ms",verdana,arial,sans-serif;font-size:16px;}#my-svg p{margin:0;}#my-svg .commit-id,#my-svg .commit-msg,#my-svg .branch-label{fill:lightgrey;color:lightgrey;font-family:'trebuchet ms',verdana,arial,sans-serif;font-family:var(--mermaid-font-family);}#my-svg .branch-label0{fill:#ffffff;}#my-svg .commit0{stroke:#ff0000;fill:#ff0000;}#my-svg .commit-highlight0{stroke:hsl(60, 100%, 3.7254901961%);fill:hsl(60, 100%, 3.7254901961%);}#my-svg .label0{fill:#ff0000;}#my-svg .arrow0{stroke:#ff0000;}#my-svg .branch-label1{fill:black;}#my-svg .commit1{stroke:#00ff00;fill:#00ff00;}#my-svg .commit-highlight1{stroke:rgb(0, 0, 160.5);fill:rgb(0, 0, 160.5);}#my-svg .label1{fill:#00ff00;}#my-svg .arrow1{stroke:#00ff00;}#my-svg .branch-label2{fill:black;}#my-svg .commit2{stroke:#7171ff;fill:#7171ff;}#my-svg .commit-highlight2{stroke:rgb(48.8333333334, 0, 146.5000000001);fill:rgb(48.8333333334, 0, 146.5000000001);}#my-svg .label2{fill:#7171ff;}#my-svg .arrow2{stroke:#7171ff;}#my-svg .branch-label3{fill:#ffffff;}#my-svg .commit3{stroke:#ff00ff;fill:#ff00ff;}#my-svg .commit-highlight3{stroke:rgb(146.5000000001, 73.2500000001, 0);fill:rgb(146.5000000001, 73.2500000001, 0);}#my-svg .label3{fill:#ff00ff;}#my-svg .arrow3{stroke:#ff00ff;}#my-svg .branch-label4{fill:black;}#my-svg .commit4{stroke:#00ffff;fill:#00ffff;}#my-svg .commit-highlight4{stroke:rgb(146.5000000001, 0, 0);fill:rgb(146.5000000001, 0, 0);}#my-svg .label4{fill:#00ffff;}#my-svg .arrow4{stroke:#00ffff;}#my-svg .branch-label5{fill:black;}#my-svg .commit5{stroke:#ffff00;fill:#ffff00;}#my-svg .commit-highlight5{stroke:rgb(146.5000000001, 0, 73.2500000001);fill:rgb(146.5000000001, 0, 73.2500000001);}#my-svg .label5{fill:#ffff00;}#my-svg .arrow5{stroke:#ffff00;}#my-svg .branch-label6{fill:black;}#my-svg .commit6{stroke:#ff00ff;fill:#ff00ff;}#my-svg .commit-highlight6{stroke:rgb(0, 146.5000000001, 0);fill:rgb(0, 146.5000000001, 0);}#my-svg .label6{fill:#ff00ff;}#my-svg .arrow6{stroke:#ff00ff;}#my-svg .branch-label7{fill:black;}#my-svg .commit7{stroke:#00ffff;fill:#00ffff;}#my-svg .commit-highlight7{stroke:rgb(0, 146.5000000001, 146.5000000001);fill:rgb(0, 146.5000000001, 146.5000000001);}#my-svg .label7{fill:#00ffff;}#my-svg .arrow7{stroke:#00ffff;}#my-svg .branch{stroke-width:1;stroke:#333333;stroke-dasharray:2;}#my-svg .commit-label{font-size:10px;fill:#000021;}#my-svg .commit-label-bkg{font-size:10px;fill:#ffffde;opacity:0.5;}#my-svg .tag-label{font-size:10px;fill:#131300;}#my-svg .tag-label-bkg{fill:#ECECFF;stroke:hsl(240, 60%, 86.2745098039%);}#my-svg .tag-hole{fill:#333;}#my-svg .commit-merge{stroke:#ECECFF;fill:#ECECFF;}#my-svg .commit-reverse{stroke:#ECECFF;fill:#ECECFF;stroke-width:3;}#my-svg .commit-highlight-inner{stroke:#ECECFF;fill:#ECECFF;}#my-svg .arrow{stroke-width:8;stroke-linecap:round;fill:none;}#my-svg .gitTitleText{text-anchor:middle;font-size:18px;fill:#333;}#my-svg :root{--mermaid-font-family:"trebuchet ms",verdana,arial,sans-serif;}</style><g/><g class="commit-bullets"/><g class="commit-labels"/><g><line class="branch branch0" y2="0" x2="350" y1="0" x1="0"/><rect transform="translate(-19, -9.5)" height="23" width="53" y="-1.5" x="-69" ry="4" rx="4" class="branchLabelBkg label0"/><g class="branchLabel"><g transform="translate(-79, -10.5)" class="label branch-label0"><text><tspan class="row" x="0" dy="1em" xml:space="preserve">main</tspan></text></g></g><line class="branch branch1" y2="90" x2="350" y1="90" x1="0"/><rect transform="translate(-19, 80.5)" height="23" width="74.421875" y="-1.5" x="-90.421875" ry="4" rx="4" class="branchLabelBkg label1"/><g class="branchLabel"><g transform="translate(-100.421875, 79.5)" class="label branch-label1"><text><tspan class="row" x="0" dy="1em" xml:space="preserve">develop</tspan></text></g></g></g><g class="commit-arrows"><path class="arrow arrow1" d="M 10 0 L 10 70 A 20 20, 0, 0, 0, 30 90 L 60 90"/><path class="arrow arrow1" d="M 60 90 L 110 90"/><path class="arrow arrow0" d="M 10 0 L 160 0"/><path class="arrow arrow1" d="M 110 90 L 210 90"/><path class="arrow arrow0" d="M 160 0 L 260 0"/><path class="arrow arrow1" d="M 210 90 L 310 90"/></g><g class="commit-bullets"><circle class="commit 0-53a8d11 commit0" r="10" cy="0" cx="10"/><circle class="commit 1-8ca5961 commit1" r="10" cy="90" cx="60"/><circle class="commit 2-2105d2e commit1" r="10" cy="90" cx="110"/><circle class="commit 3-4b6c6b7 commit0" r="10" cy="0" cx="160"/><circle class="commit 4-5443a64 commit1" r="10" cy="90" cx="210"/><circle class="commit 5-6e373e6 commit0" r="10" cy="0" cx="260"/><circle class="commit 6-57571b7 commit1" r="10" cy="90" cx="310"/></g><g class="commit-labels"><g transform="translate(-28.768125, 25.629375000000003) rotate(-45, 0, 0)"><rect height="15" width="49.96875" y="13.5" x="-14.984375" class="commit-label-bkg"/><text class="commit-label" y="25" x="-12.984375">0-53a8d11</text></g><polygon points="-11.53125,-17.2  &#10;      -11.53125,-21.2&#10;      -3.53125,-26.7&#10;      23.53125,-26.7&#10;      23.53125,-11.7&#10;      -3.53125,-11.7" class="tag-label-bkg"/><circle class="tag-hole" r="1.5" cx="-7.53125" cy="-19.2"/><text x="0.46875" class="tag-label" y="-16">v0.1</text><g transform="translate(-28.530625, 25.416874999999997) rotate(-45, 50, 90)"><rect height="15" width="49.34375" y="103.5" x="35.328125" class="commit-label-bkg"/><text class="commit-label" y="115" x="37.328125">1-8ca5961</text></g><g transform="translate(-28.845312500000002, 25.6984375) rotate(-45, 100, 90)"><rect height="15" width="50.171875" y="103.5" x="84.9140625" class="commit-label-bkg"/><text class="commit-label" y="115" x="86.9140625">2-2105d2e</text></g><g transform="translate(-28.78, 25.64) rotate(-45, 150, 0)"><rect height="15" width="50" y="13.5" x="135" class="commit-label-bkg"/><text class="commit-label" y="25" x="137">3-4b6c6b7</text></g><polygon points="138.46875,-17.2  &#10;      138.46875,-21.2&#10;      146.46875,-26.7&#10;      173.53125,-26.7&#10;      173.53125,-11.7&#10;      146.46875,-11.7" class="tag-label-bkg"/><circle class="tag-hole" r="1.5" cx="142.46875" cy="-19.2"/><text x="150.46875" class="tag-label" y="-16">v0.2</text><g transform="translate(-28.6434375, 25.517812499999998) rotate(-45, 200, 90)"><rect height="15" width="49.640625" y="103.5" x="185.1796875" class="commit-label-bkg"/><text class="commit-label" y="115" x="187.1796875">4-5443a64</text></g><g transform="translate(-28.7978125, 25.6559375) rotate(-45, 250, 0)"><rect height="15" width="50.046875" y="13.5" x="234.9765625" class="commit-label-bkg"/><text class="commit-label" y="25" x="236.9765625">5-6e373e6</text></g><polygon points="238.46875,-17.2  &#10;      238.46875,-21.2&#10;      246.46875,-26.7&#10;      273.53125,-26.7&#10;      273.53125,-11.7&#10;      246.46875,-11.7" class="tag-label-bkg"/><circle class="tag-hole" r="1.5" cx="242.46875" cy="-19.2"/><text x="250.46875" class="tag-label" y="-16">v1.0</text><g transform="translate(-28.762187500000003, 25.6240625) rotate(-45, 300, 90)"><rect height="15" width="49.953125" y="103.5" x="285.0234375" class="commit-label-bkg"/><text class="commit-label" y="115" x="287.0234375">6-57571b7</text></g></g></svg>