<svg aria-roledescription="gitGraph" role="graphics-document document" viewBox="-123.515625 -34.70000076293945 881.515625 461.63494873046875" style="max-width: 881.516px; background-color: white;" xmlns:xlink="http://www.w3.org/1999/xlink" xmlns="http://www.w3.org/2000/svg" width="100%" id="my-svg"><style>#my-svg{font-family:"trebuchet ms",verdana,arial,sans-serif;font-size:16px;fill:#333;}#my-svg .error-icon{fill:#552222;}#my-svg .error-text{fill:#552222;stroke:#552222;}#my-svg .edge-thickness-normal{stroke-width:1px;}#my-svg .edge-thickness-thick{stroke-width:3.5px;}#my-svg .edge-pattern-solid{stroke-dasharray:0;}#my-svg .edge-thickness-invisible{stroke-width:0;fill:none;}#my-svg .edge-pattern-dashed{stroke-dasharray:3;}#my-svg .edge-pattern-dotted{stroke-dasharray:2;}#my-svg .marker{fill:#333333;stroke:#333333;}#my-svg .marker.cross{stroke:#333333;}#my-svg svg{font-family:"trebuchet ms",verdana,arial,sans-serif;font-size:16px;}#my-svg p{margin:0;}#my-svg .commit-id,#my-svg .commit-msg,#my-svg .branch-label{fill:lightgrey;color:lightgrey;font-family:'trebuchet ms',verdana,arial,sans-serif;font-family:var(--mermaid-font-family);}#my-svg .branch-label0{fill:#ffffff;}#my-svg .commit0{stroke:#ff0000;fill:#ff0000;}#my-svg .commit-highlight0{stroke:hsl(60, 100%, 3.7254901961%);fill:hsl(60, 100%, 3.7254901961%);}#my-svg .label0{fill:#ff0000;}#my-svg .arrow0{stroke:#ff0000;}#my-svg .branch-label1{fill:black;}#my-svg .commit1{stroke:#00ff00;fill:#00ff00;}#my-svg .commit-highlight1{stroke:rgb(0, 0, 160.5);fill:rgb(0, 0, 160.5);}#my-svg .label1{fill:#00ff00;}#my-svg .arrow1{stroke:#00ff00;}#my-svg .branch-label2{fill:black;}#my-svg .commit2{stroke:#7171ff;fill:#7171ff;}#my-svg .commit-highlight2{stroke:rgb(48.8333333334, 0, 146.5000000001);fill:rgb(48.8333333334, 0, 146.5000000001);}#my-svg .label2{fill:#7171ff;}#my-svg .arrow2{stroke:#7171ff;}#my-svg .branch-label3{fill:#ffffff;}#my-svg .commit3{stroke:#ff00ff;fill:#ff00ff;}#my-svg .commit-highlight3{stroke:rgb(146.5000000001, 73.2500000001, 0);fill:rgb(146.5000000001, 73.2500000001, 0);}#my-svg .label3{fill:#ff00ff;}#my-svg .arrow3{stroke:#ff00ff;}#my-svg .branch-label4{fill:black;}#my-svg .commit4{stroke:#00ffff;fill:#00ffff;}#my-svg .commit-highlight4{stroke:rgb(146.5000000001, 0, 0);fill:rgb(146.5000000001, 0, 0);}#my-svg .label4{fill:#00ffff;}#my-svg .arrow4{stroke:#00ffff;}#my-svg .branch-label5{fill:black;}#my-svg .commit5{stroke:#ffff00;fill:#ffff00;}#my-svg .commit-highlight5{stroke:rgb(146.5000000001, 0, 73.2500000001);fill:rgb(146.5000000001, 0, 73.2500000001);}#my-svg .label5{fill:#ffff00;}#my-svg .arrow5{stroke:#ffff00;}#my-svg .branch-label6{fill:black;}#my-svg .commit6{stroke:#ff00ff;fill:#ff00ff;}#my-svg .commit-highlight6{stroke:rgb(0, 146.5000000001, 0);fill:rgb(0, 146.5000000001, 0);}#my-svg .label6{fill:#ff00ff;}#my-svg .arrow6{stroke:#ff00ff;}#my-svg .branch-label7{fill:black;}#my-svg .commit7{stroke:#00ffff;fill:#00ffff;}#my-svg .commit-highlight7{stroke:rgb(0, 146.5000000001, 146.5000000001);fill:rgb(0, 146.5000000001, 146.5000000001);}#my-svg .label7{fill:#00ffff;}#my-svg .arrow7{stroke:#00ffff;}#my-svg .branch{stroke-width:1;stroke:#333333;stroke-dasharray:2;}#my-svg .commit-label{font-size:10px;fill:#000021;}#my-svg .commit-label-bkg{font-size:10px;fill:#ffffde;opacity:0.5;}#my-svg .tag-label{font-size:10px;fill:#131300;}#my-svg .tag-label-bkg{fill:#ECECFF;stroke:hsl(240, 60%, 86.2745098039%);}#my-svg .tag-hole{fill:#333;}#my-svg .commit-merge{stroke:#ECECFF;fill:#ECECFF;}#my-svg .commit-reverse{stroke:#ECECFF;fill:#ECECFF;stroke-width:3;}#my-svg .commit-highlight-inner{stroke:#ECECFF;fill:#ECECFF;}#my-svg .arrow{stroke-width:8;stroke-linecap:round;fill:none;}#my-svg .gitTitleText{text-anchor:middle;font-size:18px;fill:#333;}#my-svg :root{--mermaid-font-family:"trebuchet ms",verdana,arial,sans-serif;}</style><g/><g class="commit-bullets"/><g class="commit-labels"/><g><line class="branch branch0" y2="0" x2="750" y1="0" x1="0"/><rect transform="translate(-19, -9.5)" height="23" width="53" y="-1.5" x="-69" ry="4" rx="4" class="branchLabelBkg label0"/><g class="branchLabel"><g transform="translate(-79, -10.5)" class="label branch-label0"><text><tspan class="row" x="0" dy="1em" xml:space="preserve">main</tspan></text></g></g><line class="branch branch1" y2="90" x2="750" y1="90" x1="0"/><rect transform="translate(-19, 80.5)" height="23" width="74.421875" y="-1.5" x="-90.421875" ry="4" rx="4" class="branchLabelBkg label1"/><g class="branchLabel"><g transform="translate(-100.421875, 79.5)" class="label branch-label1"><text><tspan class="row" x="0" dy="1em" xml:space="preserve">develop</tspan></text></g></g><line class="branch branch2" y2="180" x2="750" y1="180" x1="0"/><rect transform="translate(-19, 170.5)" height="23" width="80.140625" y="-1.5" x="-96.140625" ry="4" rx="4" class="branchLabelBkg label2"/><g class="branchLabel"><g transform="translate(-106.140625, 169.5)" class="label branch-label2"><text><tspan class="row" x="0" dy="1em" xml:space="preserve">featureB</tspan></text></g></g><line class="branch branch3" y2="270" x2="750" y1="270" x1="0"/><rect transform="translate(-19, 260.5)" height="23" width="80.515625" y="-1.5" x="-96.515625" ry="4" rx="4" class="branchLabelBkg label3"/><g class="branchLabel"><g transform="translate(-106.515625, 259.5)" class="label branch-label3"><text><tspan class="row" x="0" dy="1em" xml:space="preserve">featureA</tspan></text></g></g><line class="branch branch4" y2="360" x2="750" y1="360" x1="0"/><rect transform="translate(-19, 350.5)" height="23" width="70" y="-1.5" x="-86" ry="4" rx="4" class="branchLabelBkg label4"/><g class="branchLabel"><g transform="translate(-96, 349.5)" class="label branch-label4"><text><tspan class="row" x="0" dy="1em" xml:space="preserve">release</tspan></text></g></g></g><g class="commit-arrows"><path class="arrow arrow1" d="M 10 0 L 10 70 A 20 20, 0, 0, 0, 30 90 L 60 90"/><path class="arrow arrow2" d="M 60 90 L 60 160 A 20 20, 0, 0, 0, 80 180 L 110 180"/><path class="arrow arrow1" d="M 60 90 L 160 90"/><path class="arrow arrow2" d="M 110 180 L 210 180"/><path class="arrow arrow0" d="M 10 0 L 260 0"/><path class="arrow arrow2" d="M 210 180 L 310 180"/><path class="arrow arrow3" d="M 160 90 L 160 250 A 20 20, 0, 0, 0, 180 270 L 360 270"/><path class="arrow arrow3" d="M 360 270 L 410 270"/><path class="arrow arrow2" d="M 310 180 L 460 180"/><path class="arrow arrow1" d="M 160 90 L 510 90"/><path class="arrow arrow3" d="M 410 270 L 490 270 A 20 20, 0, 0, 0, 510 250 L 510 90"/><path class="arrow arrow4" d="M 510 90 L 510 340 A 20 20, 0, 0, 0, 530 360 L 560 360"/><path class="arrow arrow0" d="M 260 0 L 610 0"/><path class="arrow arrow4" d="M 560 360 L 660 360"/><path class="arrow arrow0" d="M 610 0 L 640 0 A 20 20, 0, 0, 1, 660 20 L 660 360"/><path class="arrow arrow1" d="M 510 90 L 710 90"/><path class="arrow arrow4" d="M 660 360 L 690 360 A 20 20, 0, 0, 0, 710 340 L 710 90"/></g><g class="commit-bullets"><circle class="commit 0-fbebce6 commit0" r="10" cy="0" cx="10"/><circle class="commit 1-677a22e commit1" r="10" cy="90" cx="60"/><circle class="commit 2-db9aea2 commit2" r="10" cy="180" cx="110"/><circle class="commit 3-df4491f commit1" r="10" cy="90" cx="160"/><circle class="commit 4-d6c2568 commit2" r="10" cy="180" cx="210"/><circle class="commit 5-a58cce1 commit0" r="10" cy="0" cx="260"/><circle class="commit 6-9417194 commit2" r="10" cy="180" cx="310"/><circle class="commit 7-b47467e commit3" r="10" cy="270" cx="360"/><circle class="commit 8-a25b258 commit3" r="10" cy="270" cx="410"/><circle class="commit 9-8fd0deb commit2" r="10" cy="180" cx="460"/><circle class="commit 10-b5aab4a commit1" r="9" cy="90" cx="510"/><circle class="commit commit-merge 10-b5aab4a commit1" r="6" cy="90" cx="510"/><circle class="commit 11-6f75d59 commit4" r="10" cy="360" cx="560"/><circle class="commit 12-1a6f25e commit0" r="10" cy="0" cx="610"/><circle class="commit 13-582be6b commit4" r="9" cy="360" cx="660"/><circle class="commit commit-merge 13-582be6b commit4" r="6" cy="360" cx="660"/><circle class="commit 14-0ad8a6b commit1" r="9" cy="90" cx="710"/><circle class="commit commit-merge 14-0ad8a6b commit1" r="6" cy="90" cx="710"/></g><g class="commit-labels"><g transform="translate(-28.3465625, 25.252187499999998) rotate(-45, 0, 0)"><rect height="15" width="48.859375" y="13.5" x="-14.4296875" class="commit-label-bkg"/><text class="commit-label" y="25" x="-12.4296875">0-fbebce6</text></g><polygon points="-11.53125,-17.2  &#10;      -11.53125,-21.2&#10;      -3.53125,-26.7&#10;      23.53125,-26.7&#10;      23.53125,-11.7&#10;      -3.53125,-11.7" class="tag-label-bkg"/><circle class="tag-hole" r="1.5" cx="-7.53125" cy="-19.2"/><text x="0.46875" class="tag-label" y="-16">v0.1</text><g transform="translate(-28.7265625, 25.5921875) rotate(-45, 50, 90)"><rect height="15" width="49.859375" y="103.5" x="35.0703125" class="commit-label-bkg"/><text class="commit-label" y="115" x="37.0703125">1-677a22e</text></g><g transform="translate(-28.9759375, 25.815312499999997) rotate(-45, 100, 180)"><rect height="15" width="50.515625" y="193.5" x="84.7421875" class="commit-label-bkg"/><text class="commit-label" y="205" x="86.7421875">2-db9aea2</text></g><g transform="translate(-27.60400390625, 24.58779296875) rotate(-45, 150, 90)"><rect height="15" width="46.9052734375" y="103.5" x="136.54736328125" class="commit-label-bkg"/><text class="commit-label" y="115" x="138.54736328125">3-df4491f</text></g><g transform="translate(-28.6553125, 25.528437500000003) rotate(-45, 200, 180)"><rect height="15" width="49.671875" y="193.5" x="185.1640625" class="commit-label-bkg"/><text class="commit-label" y="205" x="187.1640625">4-d6c2568</text></g><g transform="translate(-28.5009375, 25.3903125) rotate(-45, 250, 0)"><rect height="15" width="49.265625" y="13.5" x="235.3671875" class="commit-label-bkg"/><text class="commit-label" y="25" x="237.3671875">5-a58cce1</text></g><polygon points="238.46875,-17.2  &#10;      238.46875,-21.2&#10;      246.46875,-26.7&#10;      273.53125,-26.7&#10;      273.53125,-11.7&#10;      246.46875,-11.7" class="tag-label-bkg"/><circle class="tag-hole" r="1.5" cx="242.46875" cy="-19.2"/><text x="250.46875" class="tag-label" y="-16">v0.2</text><g transform="translate(-28.6375, 25.5125) rotate(-45, 300, 180)"><rect height="15" width="49.625" y="193.5" x="285.1875" class="commit-label-bkg"/><text class="commit-label" y="205" x="287.1875">6-9417194</text></g><g transform="translate(-28.845312500000002, 25.6984375) rotate(-45, 350, 270)"><rect height="15" width="50.171875" y="283.5" x="334.9140625" class="commit-label-bkg"/><text class="commit-label" y="295" x="336.9140625">7-b47467e</text></g><g transform="translate(-28.768125, 25.629375000000003) rotate(-45, 400, 270)"><rect height="15" width="49.96875" y="283.5" x="385.015625" class="commit-label-bkg"/><text class="commit-label" y="295" x="387.015625">8-a25b258</text></g><g transform="translate(-28.506875, 25.395625000000003) rotate(-45, 450, 180)"><rect height="15" width="49.28125" y="193.5" x="435.359375" class="commit-label-bkg"/><text class="commit-label" y="205" x="437.359375">9-8fd0deb</text></g><g transform="translate(-30.169375, 26.883125) rotate(-45, 550, 360)"><rect height="15" width="53.65625" y="373.5" x="533.171875" class="commit-label-bkg"/><text class="commit-label" y="385" x="535.171875">11-6f75d59</text></g><g transform="translate(-30.1278125, 26.8459375) rotate(-45, 600, 0)"><rect height="15" width="53.546875" y="13.5" x="583.2265625" class="commit-label-bkg"/><text class="commit-label" y="25" x="585.2265625">12-1a6f25e</text></g><polygon points="588.46875,-17.2  &#10;      588.46875,-21.2&#10;      596.46875,-26.7&#10;      623.53125,-26.7&#10;      623.53125,-11.7&#10;      596.46875,-11.7" class="tag-label-bkg"/><circle class="tag-hole" r="1.5" cx="592.46875" cy="-19.2"/><text x="600.46875" class="tag-label" y="-16">v1.0</text></g></svg>